<svg xmlns="http://www.w3.org/2000/svg" width="16" height="16">
  <path style="fill:context-fill;fill-opacity:context-fill-opacity" d="M8 0a2 2 0 0 0-2 2H3.5C2.677 2 2 2.677 2 3.5V6a2.002 2.002 0 0 0 0 4v2.5c0 .823.677 1.5 1.5 1.5H6a2.002 2.002 0 0 0 4 0h2.5c.823 0 1.5-.677 1.5-1.5v-3a.5.5 0 0 0-.5-.5H12a.998.998 0 1 1 0-2h1.5a.5.5 0 0 0 .5-.5v-3c0-.823-.677-1.5-1.5-1.5H10a2.003 2.003 0 0 0-2-2zm0 1a.999.999 0 0 1 1 1v.5a.5.5 0 0 0 .5.5h3c.282 0 .5.218.5.5V6h-1a2.002 2.002 0 0 0 0 4h1v2.5c0 .282-.218.5-.5.5h-3a.5.5 0 0 0-.5.5v.5a.998.998 0 1 1-2 0v-.5a.5.5 0 0 0-.5-.5h-3a.493.493 0 0 1-.5-.5v-3a.5.5 0 0 0-.5-.5H2a.998.998 0 1 1 0-2h.5a.5.5 0 0 0 .5-.5v-3c0-.282.218-.5.5-.5h3a.5.5 0 0 0 .5-.5V2a.997.997 0 0 1 1-1z"/>
</svg>
