<svg xmlns="http://www.w3.org/2000/svg" width="16" height="16">
  <style>
    #big:not(:target),#big:target+path,#overlayStroke:not(:target){display:none}
  </style>
  <path id="overlayStroke" style="fill:context-stroke;fill-opacity:context-stroke-opacity" d="M8.234 1.143a1.884 1.884 0 0 0-1.517.646l-.004.004L4.855 4H3.486A2.507 2.507 0 0 0 .992 6.508l.016 3.002v.002A2.529 2.529 0 0 0 3.508 12h1.258l1.95 2.236.005.004c.511.572 1.328.78 2.05.52l.012-.006.012-.004A1.897 1.897 0 0 0 10 13.016v-1.61c.38.13.801.105 1.164-.072a1.515 1.515 0 0 0 .254 1.703c.565.59 1.53.61 2.12.045l.005-.004.004-.004s.52-.52.93-1.373c.404-.842.773-2.077.773-3.703 0-1.625-.367-2.858-.773-3.701-.41-.851-.93-1.371-.93-1.371l-.004-.004-.004-.004a1.5 1.5 0 0 0-.959-.418c-.038-.002-.075 0-.113 0h-.06l-.009.002a1.5 1.5 0 0 0-.98.459 1.515 1.515 0 0 0-.256 1.7 1.495 1.495 0 0 0-.715-.161h-.002c-.153.006-.302.04-.445.09V3c0-.835-.51-1.49-1.225-1.752l-.002-.002H8.77a1.833 1.833 0 0 0-.536-.103z"/>
  <g style="fill:context-fill;fill-opacity:context-fill-opacity">
    <path id="big" d="M8.85.01a.985.985 0 0 0-.53.26L4.446 3.865a.498.498 0 0 1-.34.133H1.5a1.5 1.5 0 0 0-1.5 1.5v5.003a1.5 1.5 0 0 0 1.5 1.5h2.607a.5.5 0 0 1 .34.134l3.872 3.595c.64.594 1.68.141 1.68-.732V1.002c0-.655-.586-1.074-1.149-.992zm.15.992v13.996l-3.873-3.596a1.497 1.497 0 0 0-1.02-.4H1.5a.5.5 0 0 1-.5-.5V5.498a.5.5 0 0 1 .5-.5h2.607c.378 0 .742-.143 1.02-.401zm4.62 1.495a.502.502 0 0 0-.4.834 7.007 7.007 0 0 1 0 9.337.502.502 0 0 0 .04.708c.205.184.52.166.704-.04a8.01 8.01 0 0 0 0-10.673.496.496 0 0 0-.344-.166zm-1.35 2.505a.5.5 0 0 0-.371.746 4.501 4.501 0 0 1 0 4.503.501.501 0 0 0 .868.5 5.504 5.504 0 0 0-.002-5.502.499.499 0 0 0-.494-.247z"/>
    <path d="M8.186 2.139a.882.882 0 0 0-.713.304L5.32 5H3.486c-.822 0-1.498.68-1.494 1.502l.016 3A1.514 1.514 0 0 0 3.514 11h1.705l2.248 2.574a.89.89 0 0 0 .965.244A.892.892 0 0 0 9 13V3c0-.378-.259-.7-.568-.813a.83.83 0 0 0-.246-.048zM8 3.37v9.297l-2.176-2.496A.5.5 0 0 0 5.447 10H3.514a.498.498 0 0 1-.506-.502l-.016-3A.487.487 0 0 1 3.486 6h2.067a.5.5 0 0 0 .383-.178L8 3.372zm4.467.129a.5.5 0 0 0-.328.154.5.5 0 0 0 .015.707s.238.219.52.805c.282.586.576 1.506.576 2.834s-.294 2.248-.576 2.834c-.282.586-.52.805-.52.805a.5.5 0 0 0-.015.707.5.5 0 0 0 .707.015s.387-.38.73-1.093c.343-.713.674-1.792.674-3.268 0-1.476-.33-2.555-.674-3.268-.343-.712-.73-1.093-.73-1.093a.5.5 0 0 0-.32-.139.5.5 0 0 0-.06 0zm-1.985 2a.5.5 0 0 0-.332.143.5.5 0 0 0-.007.707s.607.623.607 1.65-.607 1.65-.607 1.65a.5.5 0 0 0 .007.707.5.5 0 0 0 .707-.007s.893-.916.893-2.35c0-1.434-.893-2.35-.893-2.35a.5.5 0 0 0-.375-.15z"/>
  </g>
</svg>
