<svg xmlns="http://www.w3.org/2000/svg" width="16" height="16">
  <path style="fill:context-fill;fill-opacity:context-fill-opacity" d="M.477 0a.5.5 0 0 0-.33.146.5.5 0 0 0 0 .708L7.5 8.207v2.197a3.25 3.25 0 1 0 .994 2.166.509.509 0 0 0 .006-.07V9.207l6.646 6.647a.5.5 0 0 0 .708 0 .5.5 0 0 0 0-.708l-15-15A.5.5 0 0 0 .477 0zm7.439.008A.498.498 0 0 0 7.5.5v4.879l1 1V5.178l5.854 1.8A.499.499 0 0 0 15 6.5V3.977a2.5 2.5 0 0 0-1.766-2.39L8.146.022a.497.497 0 0 0-.23-.013zm.584 1.17 4.441 1.365A1.5 1.5 0 0 1 14 3.977v1.845L8.5 4.131V1.178zM5.25 10.5a2.25 2.25 0 1 1 0 4.5 2.25 2.25 0 0 1 0-4.5z"/>
</svg>
