<svg xmlns="http://www.w3.org/2000/svg" width="16" height="16">
  <path style="fill:context-fill;fill-opacity:context-fill-opacity" d="M7 .5a.5.5 0 0 0-1 0V1c0 .397.116.767.315 1.078A3.001 3.001 0 0 0 4 5h-.5A1.5 1.5 0 0 1 2 3.5v-2a.5.5 0 0 0-1 0v2A2.5 2.5 0 0 0 3.5 6H4v2H.5a.5.5 0 0 0 0 1H4v2h-.5A2.5 2.5 0 0 0 1 13.5v2a.5.5 0 0 0 1 0v-2A1.5 1.5 0 0 1 3.5 12H4a4 4 0 0 0 8 0h.5a1.5 1.5 0 0 1 1.5 1.5v2a.5.5 0 0 0 1 0v-2c0-1.38-1.883-1.265-2.5-2.5H12V9h3.5a.5.5 0 0 0 0-1H12V6h.5A2.5 2.5 0 0 0 15 3.5v-2a.5.5 0 0 0-1 0v2A1.5 1.5 0 0 1 12.5 5H12a3.001 3.001 0 0 0-2.315-2.922c.2-.31.315-.68.315-1.078V.5a.5.5 0 0 0-1 0V1a1 1 0 1 1-2 0zM11 5v7a3 3 0 1 1-6 0V5a2 2 0 0 1 2-2h2a2 2 0 0 1 2 2z"/>
</svg>
