<svg xmlns="http://www.w3.org/2000/svg" width="16" height="16">
  <path style="fill:context-fill;fill-opacity:context-fill-opacity" d="M6.12 0a1.5 1.5 0 0 0-1.34.826L4.19 2H2.5A2.5 2.5 0 0 0 0 4.5v8A2.5 2.5 0 0 0 2.5 15h11a2.5 2.5 0 0 0 2.5-2.5v-8A2.5 2.5 0 0 0 13.5 2h-1.69L11.226.83A1.5 1.5 0 0 0 9.883 0H6.119zm0 1h3.763a.5.5 0 0 1 .447.277l.725 1.446c.084.17.256.277.445.277h2A1.5 1.5 0 0 1 15 4.5v8a1.5 1.5 0 0 1-1.5 1.5h-11A1.5 1.5 0 0 1 1 12.5v-8A1.5 1.5 0 0 1 2.5 3h1.998a.5.5 0 0 0 .447-.275l.727-1.45A.5.5 0 0 1 6.119 1zm1.876 3a4 4 0 1 0 0 8 4 4 0 0 0 0-8zm0 1a3 3 0 1 1 0 6 3 3 0 0 1 0-6z"/>
</svg>
