<svg xmlns="http://www.w3.org/2000/svg" width="16" height="16">
  <path style="fill:context-fill;fill-opacity:context-fill-opacity" d="M.5 0a.498.498 0 0 0-.354.854l1.409 1.408C1.205 2.752 1 3.352 1 4v8a3 3 0 0 0 3 3h8c.648 0 1.248-.205 1.738-.555l1.408 1.409a.5.5 0 0 0 .708-.708l-15-15A.498.498 0 0 0 .5 0zM4 1c-.269 0-.53.035-.777.102L4.12 2H12a2 2 0 0 1 2 2v7.879l.898.898c.067-.247.102-.508.102-.777V4a3 3 0 0 0-3-3H4zM2.277 2.984l5.137 5.137a1.494 1.494 0 0 0-.465.31L2.28 13.02A1.989 1.989 0 0 1 2 12V4c0-.37.101-.718.277-1.016zM10.5 4a1.5 1.5 0 1 0 0 3 1.5 1.5 0 0 0 0-3zm0 1a.5.5 0 1 1 0 1 .5.5 0 0 1 0-1zM8 9.002c.127 0 .252.047.35.143l4.662 4.582A1.99 1.99 0 0 1 12 14H4a1.99 1.99 0 0 1-1.012-.273L7.65 9.145A.496.496 0 0 1 8 9.002z"/>
</svg>
