<svg xmlns="http://www.w3.org/2000/svg" width="16" height="16">
  <path style="fill:context-fill;fill-opacity:context-fill-opacity" d="M4 1a3 3 0 0 0-3 3v8a3 3 0 0 0 3 3h8a3 3 0 0 0 3-3V4a3 3 0 0 0-3-3H4zm0 1h8a2 2 0 0 1 2 2v8c0 .373-.102.72-.28 1.02L9.05 8.432a1.499 1.499 0 0 0-2.1 0L2.28 13.02A1.988 1.988 0 0 1 2 12V4a2 2 0 0 1 2-2zm6.5 2a1.5 1.5 0 1 0 0 3 1.5 1.5 0 0 0 0-3zm0 1a.5.5 0 1 1 0 1 .5.5 0 0 1 0-1zM8 9.002c.127 0 .252.047.35.143l4.662 4.582A1.99 1.99 0 0 1 12 14H4a1.99 1.99 0 0 1-1.012-.273L7.65 9.145A.496.496 0 0 1 8 9.002z"/>
</svg>
