<svg xmlns="http://www.w3.org/2000/svg" width="16" height="16">
  <path style="fill:context-fill;fill-opacity:context-fill-opacity" d="M8 0c-.51 0-1.022.26-1.305.781L.185 12.766C-.36 13.77.359 15 1.49 15h13.02c1.132 0 1.85-1.23 1.304-2.234L9.304.78A1.471 1.471 0 0 0 8 0zm0 1.006a.49.49 0 0 1 .436.26l6.507 11.984a.502.502 0 0 1-.433.744H1.49a.502.502 0 0 1-.433-.744L7.564 1.266A.49.49 0 0 1 8 1.006zm.06 3.92a.5.5 0 0 0-.5.5v4a.5.5 0 0 0 1 0v-4a.5.5 0 0 0-.5-.5zm0 6a.75.75 0 1 0 0 1.5.75.75 0 0 0 0-1.5z"/>
</svg>
