<svg xmlns="http://www.w3.org/2000/svg" width="16" height="16">
  <path style="fill:context-fill;fill-opacity:context-fill-opacity" d="M7.994 0c-3.227 0-5.87 2.451-5.993 5.568l-.006.225V9.4l-.924 2.221-.043.127-.021.127c-.05.464.192.882.603 1.053l.125.043a.996.996 0 0 0 .26.033h3.502l.005.16a2.5 2.5 0 0 0 4.99.002l.004-.162H14l.135-.01.115-.027c.453-.13.75-.515.75-.963l-.008-.131-.015-.086a.985.985 0 0 0-.053-.166l-.926-2.223V5.803l-.004-.225-.013-.223C13.74 2.335 11.144 0 7.994 0zm0 1c2.698 0 4.895 2.034 5 4.607l.004.205V9.5l.04.191.962 2.313-.045.002-11.96-.002.963-2.313.037-.191V5.803l.004-.205.013-.213C3.222 2.924 5.372 1 7.994 1zM6.497 13.004h3l-.006.14A1.5 1.5 0 0 1 7.996 14.5l-.144-.008a1.5 1.5 0 0 1-1.348-1.347z"/>
</svg>
