<svg xmlns="http://www.w3.org/2000/svg" width="16" height="16">
  <style>
    :root&gt;g:not(:target),:root&gt;use:not(:target){display:none}
  </style>
  <defs>
    <path id="arrow-icon" d="M8 0a.5.5 0 0 0-.5.5l-.004 11.785-3.646-3.64-.069-.057a.5.5 0 0 0-.637.766l4.456 4.45a.502.502 0 0 0 .396.196l.106-.012a.498.498 0 0 0 .255-.136l4.493-4.5.056-.069a.501.501 0 0 0-.058-.638l-.069-.057a.501.501 0 0 0-.638.058l-3.645 3.649L8.5.5 8.492.41A.5.5 0 0 0 8 0z"/>
    <path id="arrow-icon-short" d="M8 0a.5.5 0 0 0-.5.5l-.004 10.785-3.646-3.64-.069-.057a.5.5 0 0 0-.637.766l4.456 4.45a.502.502 0 0 0 .396.196l.106-.012a.498.498 0 0 0 .255-.136l4.493-4.5.056-.069a.501.501 0 0 0-.058-.638l-.069-.057a.501.501 0 0 0-.638.059l-3.645 3.648L8.5.5 8.492.41A.5.5 0 0 0 8 0z"/>
    <path id="short-bar-icon" d="m2.5 15-.09.008A.5.5 0 0 0 2.5 16h11l.09-.008A.5.5 0 0 0 13.5 15z"/>
    <path id="long-bar-icon" d="M1 14h14a1 1 45 0 1 1 1 1 1 135 0 1-1 1H1a1 1 45 0 1-1-1 1 1 135 0 1 1-1z"/>
  </defs>
  <use id="arrow" fill="context-fill" fill-opacity="context-fill-opacity" href="#arrow-icon"/>
  <use id="arrow-progress" fill="context-fill" fill-opacity="context-fill-opacity" href="#arrow-icon-short"/>
  <g id="arrow-with-bar" fill="context-fill" fill-opacity="context-fill-opacity">
    <use href="#arrow-icon"/>
    <use href="#short-bar-icon"/>
  </g>
  <use id="default-bar" fill="context-fill" fill-opacity="context-fill-opacity" href="#short-bar-icon"/>
  <use id="progress-bar-bg" fill="context-fill" fill-opacity=".2" href="#long-bar-icon"/>
  <use id="progress-bar-fg" fill="context-fill" fill-opacity="context-fill-opacity" href="#long-bar-icon"/>
</svg>
