<svg xmlns="http://www.w3.org/2000/svg" width="16" height="16">
  <path style="fill:context-fill;fill-opacity:context-fill-opacity" d="M8 0a6.975 6.975 0 0 0-4.95 2.05 7.006 7.006 0 0 0 0 9.905l1.52 1.498 2.043 1.986.133.118c.775.628 1.91.589 2.64-.118l2.436-2.37 1.127-1.114a7.006 7.006 0 0 0 0-9.904A6.975 6.975 0 0 0 8 0zm0 .998a5.98 5.98 0 0 1 4.244 1.758 6.008 6.008 0 0 1 .176 8.31l-.176.184-1.32 1.305-2.23 2.168-.094.08a.995.995 0 0 1-1.2 0l-.093-.08-2.98-2.907-.571-.566-.176-.184a6.008 6.008 0 0 1 .176-8.31A5.98 5.98 0 0 1 8 .998zM8 4a3 3 0 1 0 0 6 3 3 0 0 0 0-6zm0 1a2 2 0 1 1 0 4 2 2 0 0 1 0-4z"/>
</svg>
