<svg xmlns="http://www.w3.org/2000/svg" width="16" height="16">
  <path style="fill:context-fill;fill-opacity:context-fill-opacity" d="M8 0a8 8 0 1 0 0 16A8 8 0 0 0 8 0zm0 1c.657 0 1.406.59 2.021 1.908.218.466.407 1.002.56 1.592H5.42a9.25 9.25 0 0 1 .559-1.592C6.594 1.59 7.343 1 8 1zm-2.285.38c-.242.331-.456.705-.643 1.104A10.511 10.511 0 0 0 4.39 4.5H1.936a7.026 7.026 0 0 1 3.779-3.12zm4.57 0a7.026 7.026 0 0 1 3.78 3.12H11.61a10.513 10.513 0 0 0-.683-2.016 6.635 6.635 0 0 0-.643-1.103zM1.46 5.5h2.734C4.068 6.288 4 7.13 4 8c0 .87.068 1.712.193 2.5H1.46A6.983 6.983 0 0 1 1 8c0-.88.162-1.724.459-2.5zm3.748 0h5.586c.133.775.207 1.617.207 2.5s-.074 1.725-.207 2.5H5.207A14.866 14.866 0 0 1 5 8c0-.883.074-1.725.207-2.5zm6.6 0h2.734c.297.776.459 1.62.459 2.5 0 .88-.162 1.724-.459 2.5h-2.734C11.932 9.712 12 8.87 12 8c0-.87-.068-1.712-.193-2.5zm-9.871 6h2.453c.175.743.407 1.423.683 2.016.187.399.401.773.643 1.103a7.026 7.026 0 0 1-3.78-3.119zm3.484 0h5.16a9.247 9.247 0 0 1-.559 1.592C9.406 14.41 8.657 15 8 15c-.657 0-1.406-.59-2.021-1.908a9.253 9.253 0 0 1-.56-1.592zm6.191 0h2.453a7.026 7.026 0 0 1-3.779 3.12c.242-.331.456-.705.643-1.104.276-.593.508-1.273.683-2.016z"/>
</svg>
