<svg xmlns="http://www.w3.org/2000/svg" width="16" height="16">
  <path style="fill:context-fill;fill-opacity:context-fill-opacity" d="M1.5 0a.5.5 0 0 0-.5.5v4a.5.5 0 0 0 .5.5h4a.5.5 0 0 0 .5-.5.5.5 0 0 0-.5-.5H2.256a6.995 6.995 0 0 1 8.424-2.467 6.994 6.994 0 0 1 4.082 8.28 6.994 6.994 0 0 1-7.676 5.126A6.993 6.993 0 0 1 1 8a.5.5 0 0 0-.5-.5.5.5 0 0 0-.5.5 8.005 8.005 0 0 0 6.955 7.932 8.006 8.006 0 0 0 8.772-5.862A8.005 8.005 0 0 0 8.219.002 8.006 8.006 0 0 0 2 2.734V.5a.5.5 0 0 0-.5-.5zm6 4a.5.5 0 0 0-.5.5v5a.5.5 0 0 0 .5.5h3a.5.5 0 0 0 .5-.5.5.5 0 0 0-.5-.5H8V4.5a.5.5 0 0 0-.5-.5z"/>
</svg>
