<svg xmlns="http://www.w3.org/2000/svg" width="16" height="16">
  <path style="fill:context-fill;fill-opacity:context-fill-opacity" d="M8.11.008a2.522 2.522 0 0 0-.462.078L1.854 1.639l-.159.047A2.501 2.501 0 0 0 .085 4.7l1.554 5.795.052.17a2.503 2.503 0 0 0 2.311 1.684v-1.002a1.5 1.5 0 0 1-1.397-1.112L1.051 4.441l-.03-.14a1.5 1.5 0 0 1 1.092-1.696l5.795-1.554.14-.03a1.5 1.5 0 0 1 1.696 1.092l.506 1.889h1.035l-.574-2.148-.049-.159-.057-.15A2.5 2.5 0 0 0 8.11.008zm-.608 4.994-.166.004a2.5 2.5 0 0 0-2.334 2.496V13.5l.004.166A2.5 2.5 0 0 0 7.502 16H13.5l.166-.004A2.5 2.5 0 0 0 16 13.5V7.502l-.004-.166A2.5 2.5 0 0 0 13.5 5.002H7.502zm0 1H13.5l.145.006c.76.073 1.355.714 1.355 1.494V13.5l-.006.145A1.501 1.501 0 0 1 13.5 15H7.502l-.145-.006A1.501 1.501 0 0 1 6.002 13.5V7.502l.006-.145a1.501 1.501 0 0 1 1.494-1.355zm2.998 1a.5.5 0 0 0-.5.5v2.5H7.502l-.09.008a.5.5 0 0 0 .09.992H10v2.5l.01.09a.498.498 0 0 0 .99-.09v-2.5h2.502l.09-.01a.498.498 0 0 0-.09-.99H11v-2.5l-.008-.09a.5.5 0 0 0-.492-.41z"/>
</svg>
