<svg xmlns="http://www.w3.org/2000/svg" width="16" height="16">
  <path style="fill:context-fill;fill-opacity:context-fill-opacity" d="M2.477 2a.5.5 0 0 0-.33.147.5.5 0 0 0 0 .707L7 7.707V9.5a2.5 2.5 0 1 0 1 2V8.707l5.146 5.147a.5.5 0 0 0 .708 0 .5.5 0 0 0 0-.707L8 7.293l-1-1-4.146-4.146a.5.5 0 0 0-.377-.146zM7.48 2a.5.5 0 0 0-.48.5v2.38l1.29 1.288 4.112.823A.5.5 0 0 0 13 6.5V4.53c0-.834-.595-1.56-1.414-1.724L7.598 2.01A.5.5 0 0 0 7.48 2zM8 3.11l3.39.678c.358.071.61.38.61.744V5.89l-4-.8zM5.5 10a1.5 1.5 0 1 1 0 3 1.5 1.5 0 0 1 0-3z"/>
</svg>
