<svg xmlns="http://www.w3.org/2000/svg" width="16" height="16">
  <style>
    :is(#copy,#dots):not(:target),#copy:target+path{display: none}
    </style>
  <g style="fill:context-fill;fill-opacity:context-fill-opacity">
    <path id="copy" d="M5.5 0A2.5 2.5 0 0 0 3 2.5v8A2.5 2.5 0 0 0 5.5 13h8a2.5 2.5 0 0 0 2.5-2.5v-8A2.5 2.5 0 0 0 13.5 0h-8zm0 1H7v1.5A1.5 1.5 0 0 0 8.5 4H15v6.5a1.5 1.5 0 0 1-1.5 1.5h-8A1.5 1.5 0 0 1 4 10.5v-8A1.5 1.5 0 0 1 5.5 1zM8 1h5.5A1.5 1.5 0 0 1 15 2.5V3H8.5a.5.5 0 0 1-.5-.5V1zM2 3.05A2.5 2.5 0 0 0 0 5.5V12a4 4 0 0 0 4 4h6.5a2.5 2.5 0 0 0 2.45-2h-1.036a1.5 1.5 0 0 1-1.414 1H4a3 3 0 0 1-3-3V5.5a1.5 1.5 0 0 1 1-1.414V3.05z"/>
    <path d="M3.5 1A2.5 2.5 0 0 0 1 3.5v9A2.5 2.5 0 0 0 3.5 15h9a2.5 2.5 0 0 0 2.5-2.5v-9A2.5 2.5 0 0 0 12.5 1h-9zm0 1H6v1.5A1.5 1.5 0 0 0 7.5 5H14v7.5a1.5 1.5 0 0 1-1.5 1.5h-9A1.5 1.5 0 0 1 2 12.5v-9A1.5 1.5 0 0 1 3.5 2zM7 2h5.5A1.5 1.5 0 0 1 14 3.5V4H7.5a.5.5 0 0 1-.5-.5V2zM5"/>
    <path id="dots" d="M5 8a1 1 0 1 0 0 2 1 1 0 0 0 0-2zm3 0a1 1 0 1 0 0 2 1 1 0 0 0 0-2zm3 0a1 1 0 1 0 0 2 1 1 0 0 0 0-2z"/>
  </g>
</svg>
