<svg xmlns="http://www.w3.org/2000/svg" width="16" height="16">
  <style>
    #big:not(:target),#big:target+path{display:none}
  </style>
  <g style="fill:context-fill;fill-opacity:context-fill-opacity">
    <path id="big" d="M3 1a3 3 0 0 0-3 3v8a3 3 0 0 0 3 3h10a3 3 0 0 0 3-3V4a3 3 0 0 0-3-3zm0 1h10a2 2 0 0 1 2 2v8a2 2 0 0 1-2 2H3a2 2 0 0 1-2-2V4a2 2 0 0 1 2-2zm4 5a1 1 0 0 0-1 1v4a1 1 0 0 0 1 1h6a1 1 0 0 0 1-1V8a1 1 0 0 0-1-1zm0 1h6v4h-1.293L9.354 9.646a.5.5 0 0 0-.708 0L7 11.293zm4.5 1a.5.5 0 1 0 0 1 .5.5 0 0 0 0-1zM9 10.707 10.293 12H7.707z"/>
    <path d="M4 3c-1.099 0-2 .901-2 2v6c0 1.099.901 2 2 2h8c1.099 0 2-.901 2-2V5c0-1.099-.901-2-2-2H4zm0 1h8c.558 0 1 .442 1 1v6c0 .558-.442 1-1 1H4c-.558 0-1-.442-1-1V5c0-.558.442-1 1-1zm2.5 2a.5.5 0 0 0-.5.5v4a.5.5 0 0 0 .5.5h5a.5.5 0 0 0 .5-.5v-4a.5.5 0 0 0-.5-.5h-5zM7 7h4v3h-.793L8.604 8.396a.5.5 0 0 0-.708 0L7 9.293V7zm2.988.5A.5.5 0 0 0 9.5 8a.5.5 0 0 0 .5.5.5.5 0 0 0 .5-.5.5.5 0 0 0-.5-.5.5.5 0 0 0-.012 0zM8.25 9.457l.543.543H7.707l.543-.543z"/>
  </g>
</svg>
