<svg xmlns="http://www.w3.org/2000/svg" width="16" height="16">
  <path style="fill:context-fill;fill-opacity:context-fill-opacity" d="M.5 0a.498.498 0 0 0-.354.854L2.03 2.736A2.994 2.994 0 0 0 1 5v7a3 3 0 0 0 3 3h7c.903 0 1.714-.398 2.264-1.03l1.882 1.884a.5.5 0 0 0 .708-.708l-15-15A.498.498 0 0 0 .5 0zm8 1a.5.5 0 0 0 0 1h4.793L8.707 6.586l.707.707L14 2.707V7.5a.5.5 0 0 0 1 0V1.496A.495.495 0 0 0 14.5 1h-6zM4.121 2l1 1H6.5a.5.5 0 0 0 0-1H4.121zm-1.38 1.447L7.292 8l-.147.146a.5.5 0 1 0 .708.708L8 8.707l4.553 4.553c-.367.451-.926.74-1.553.74H4a2 2 0 0 1-2-2V5c0-.627.289-1.186.74-1.553zM13.5 9a.5.5 0 0 0-.5.5v1.379l1 1V9.5a.5.5 0 0 0-.5-.5z"/>
</svg>
