<svg xmlns="http://www.w3.org/2000/svg" width="16" height="16">
  <path style="fill:context-fill;fill-opacity:context-fill-opacity" d="M3.5 1A2.5 2.5 0 0 0 1 3.5v9A2.5 2.5 0 0 0 3.5 15h5.035a5.746 5.746 0 0 1-.713-1H3.5A1.5 1.5 0 0 1 2 12.5V5h12v1.232c.328.19.66.314 1 .38V3.5A2.5 2.5 0 0 0 12.5 1h-9zm0 1h9A1.5 1.5 0 0 1 14 3.5V4H2v-.5A1.5 1.5 0 0 1 3.5 2zM12 6a.386.386 0 0 0-.281.121C10.724 7.157 9.624 7.666 8.4 7.666a.41.41 0 0 0-.4.418v2.5l.004.266c.041 1.247.38 2.3 1.006 3.15.274.372.605.706.99 1 .524.4 1.148.727 1.873.979a.388.388 0 0 0 .254 0c2.56-.89 3.873-2.713 3.873-5.395v-2.5L15.992 8a.406.406 0 0 0-.392-.334 4.056 4.056 0 0 1-1.6-.318c-.606-.255-1.177-.662-1.717-1.225A.392.392 0 0 0 12 6z"/>
</svg>
