<svg xmlns="http://www.w3.org/2000/svg" width="16" height="16">
  <path style="fill:context-fill;fill-opacity:context-fill-opacity" d="M14.5 0a.5.5 0 0 0-.5.5v2.234A8.006 8.006 0 0 0 7.781.002 8.005 8.005 0 0 0 .273 10.07a8.006 8.006 0 0 0 8.772 5.862A8.005 8.005 0 0 0 16 8a.5.5 0 0 0-.5-.5.5.5 0 0 0-.5.5c0 3.517-2.6 6.48-6.086 6.94a6.994 6.994 0 0 1-7.676-5.127 6.994 6.994 0 0 1 4.082-8.28A6.995 6.995 0 0 1 13.744 4H10.5a.5.5 0 0 0-.5.5.5.5 0 0 0 .5.5h4a.5.5 0 0 0 .5-.5v-4a.5.5 0 0 0-.5-.5z"/>
</svg>
