<svg xmlns="http://www.w3.org/2000/svg" width="16" height="16">
  <path style="fill:context-fill;fill-opacity:context-fill-opacity" d="M1.955 2A1.963 1.963 0 0 0 0 3.955v2.272C0 10.513 3.487 14 7.773 14h.454C12.513 14 16 10.513 16 6.227V3.955A1.963 1.963 0 0 0 14.045 2H1.955zm0 1h12.09c.533 0 .955.422.955.955v2.272A6.766 6.766 0 0 1 8.227 13h-.454A6.766 6.766 0 0 1 1 6.227V3.955C1 3.422 1.422 3 1.955 3zm2.531 2.5a.5.5 0 0 0-.34.146.5.5 0 0 0 0 .708l3.5 3.5a.5.5 0 0 0 .708 0l3.5-3.5a.5.5 0 0 0 0-.708.5.5 0 0 0-.708 0L8 8.793 4.854 5.646a.5.5 0 0 0-.368-.146z"/>
</svg>
