<svg xmlns="http://www.w3.org/2000/svg" width="16" height="16">
  <path style="fill:context-fill;fill-opacity:context-fill-opacity" d="M3 1a2 2 0 0 0-2 2v10a2 2 0 0 0 2 2h10a2 2 0 0 0 2-2V3a2 2 0 0 0-2-2H3zm0 1h10a1 1 0 0 1 1 1v10a1 1 0 0 1-1 1H3a1 1 0 0 1-1-1V3a1 1 0 0 1 1-1zm1.5 1A1.5 1.5 0 0 0 3 4.5v2a.5.5 0 0 0 1 0v-2a.5.5 0 0 1 .5-.5h2a.5.5 0 0 0 0-1h-2zm5 0a.5.5 0 0 0 0 1h2a.5.5 0 0 1 .5.5v2a.5.5 0 0 0 1 0v-2A1.5 1.5 0 0 0 11.5 3h-2zm-6 6a.5.5 0 0 0-.5.5v2A1.5 1.5 0 0 0 4.5 13h2a.5.5 0 0 0 0-1h-2a.5.5 0 0 1-.5-.5v-2a.5.5 0 0 0-.5-.5zm9 0a.5.5 0 0 0-.5.5v2a.5.5 0 0 1-.5.5h-2a.5.5 0 0 0 0 1h2a1.5 1.5 0 0 0 1.5-1.5v-2a.5.5 0 0 0-.5-.5z"/>
</svg>
