<svg xmlns="http://www.w3.org/2000/svg" width="16" height="16">
  <style>
    #fill:not(:target),#fill:target+path{display:none}
  </style>
  <g style="fill:context-fill;fill-opacity:context-fill-opacity">
    <path id="fill" d="M2 1C.895.98 0 1.895 0 3v10a2 2 0 0 0 2 2h12a2 2 0 0 0 2-2V3a2 2 0 0 0-2-2H2zm5 1h7a1 1 0 0 1 1 1v10a1 1 0 0 1-1 1H7V2zM2.5 4h2a.5.5 0 1 1 0 1h-2a.5.5 0 1 1 0-1zm0 3h2a.5.5 0 1 1 0 1h-2a.5.5 0 1 1 0-1zm0 3h2a.5.5 0 0 1 0 1h-2a.5.5 0 0 1 0-1z"/>
    <path d="M2 1C.895.98 0 1.895 0 3v10a2 2 0 0 0 2 2h12a2 2 0 0 0 2-2V3a2 2 0 0 0-2-2zm0 1h4v12H2a1 1 0 0 1-1-1V3c0-.552.438-.86 1-1zm5 0h7a1 1 0 0 1 1 1v10a1 1 0 0 1-1 1H7zM2.5 4a.5.5 0 1 0 0 1h2a.5.5 0 1 0 0-1zm0 3a.5.5 0 1 0 0 1h2a.5.5 0 1 0 0-1zm0 3a.5.5 0 0 0 0 1h2a.5.5 0 0 0 0-1z"/>
  </g>
</svg>
