<svg xmlns="http://www.w3.org/2000/svg" width="16" height="16">
  <path style="fill:context-fill;fill-opacity:context-fill-opacity" d="M8 0a.5.5 0 0 0-.277.084 15.058 15.058 0 0 1-6.295 2.422A.498.498 0 0 0 1 3v4.5c0 3.891 2.307 6.73 6.82 8.467a.496.496 0 0 0 .358 0C12.69 14.23 15 11.39 15 7.5V3a.5.5 0 0 0-.43-.494c-2.259-.323-4.355-1.13-6.293-2.422A.5.5 0 0 0 8 0zm0 1.098.4.248A15.971 15.971 0 0 0 14 3.428V7.5c0 3.392-1.968 5.863-6 7.463-4.032-1.6-6-4.071-6-7.463V3.428a15.962 15.962 0 0 0 5.598-2.082z"/>
</svg>
