<svg xmlns="http://www.w3.org/2000/svg" width="16" height="16">
  <path style="fill:context-fill;fill-opacity:context-fill-opacity" d="M2.5 0A2.5 2.5 0 0 0 0 2.5v9A2.5 2.5 0 0 0 2.5 14h5.143c.034-.08.062-.163.107-.24l.44-.76H2.5A1.5 1.5 0 0 1 1 11.5V3.998h12L14 4V2.5A2.5 2.5 0 0 0 11.5 0h-9zm-.002.998h9a1.5 1.5 0 0 1 1.5 1.5v.5h-12v-.5a1.5 1.5 0 0 1 1.5-1.5zm3.5 4a.498.498 0 0 0-.353.147l-2.5 2.5a.5.5 0 0 0 0 .707l2.5 2.5a.5.5 0 0 0 .707-.707L4.205 7.998l2.147-2.146a.5.5 0 0 0-.354-.854zm2.5 0a.498.498 0 0 0-.353.854L9.68 7.387a3.21 3.21 0 0 1 .326-.797c.035-.061.079-.115.117-.174L8.852 5.145a.498.498 0 0 0-.354-.147zm4.842.703a2.737 2.737 0 0 0-2.461 1.389c-.556.975-.46 2.15.146 3.01l-2.373 4.162a1.167 1.167 0 0 0 .42 1.582c.547.32 1.245.13 1.56-.424l2.378-4.17a2.731 2.731 0 0 0 2.62-1.379 2.81 2.81 0 0 0-.288-3.197l-1.293 2.27a.91.91 0 0 1-1.25.341.935.935 0 0 1-.334-1.267l1.293-2.272a2.69 2.69 0 0 0-.418-.045zM9.62 8.67l-1.475 1.475a.5.5 0 1 0 .707.707l1.05-1.05A4.401 4.401 0 0 1 9.62 8.67z"/>
</svg>
