<svg xmlns="http://www.w3.org/2000/svg" width="16" height="16">
  <path style="fill:context-fill;fill-opacity:context-fill-opacity" d="M6 0a2.5 2.5 0 0 0-2 4H2a1 1 0 0 0-1 1v3a1 1 0 0 0 1 1v4.5A2.5 2.5 0 0 0 4.5 16h7a2.5 2.5 0 0 0 2.5-2.5V9a1 1 0 0 0 1-1V5a1 1 0 0 0-1-1h-2a2.5 2.5 0 0 0-2-4c-.818 0-1.544.394-1.998 1.002A2.499 2.499 0 0 0 6 0zm0 1a1.5 1.5 0 0 1 1.492 1.355L7.5 2.5V4H6l-.145-.008A1.5 1.5 0 0 1 6 1zm4 0a1.5 1.5 0 0 1 0 3H8.5V2.5A1.5 1.5 0 0 1 10 1zM2 5h5.5v3H2V5zm6.5 0H14v3H8.5V5zM3 9h4.5v6h-3A1.5 1.5 0 0 1 3 13.5V9zm5.5 0H13v4.5a1.5 1.5 0 0 1-1.5 1.5h-3V9z"/>
</svg>
