<svg xmlns="http://www.w3.org/2000/svg" width="16" height="16">
  <path style="fill:context-fill;fill-opacity:context-fill-opacity" d="M.477 0a.5.5 0 0 0-.33.146.5.5 0 0 0 0 .708l3.505 3.505c-.886.138-1.773.304-2.66.528A1.32 1.32 0 0 0 0 6.17v2.549C0 10.523 1.441 12 3.236 12H5.24a2.11 2.11 0 0 0 1.596-.732l.53-.612a.835.835 0 0 1 1.269 0l.53.612A2.11 2.11 0 0 0 10.76 12h.533l3.853 3.854a.5.5 0 0 0 .708 0 .5.5 0 0 0 0-.708l-15-15A.5.5 0 0 0 .477 0zM8 4c-.606 0-1.212.02-1.818.06l.966.967C7.432 5.018 7.716 5 8 5c2.25 0 4.503.285 6.762.855.134.034.238.16.238.315v2.549a2.26 2.26 0 0 1-1.912 2.248l.812.812A3.272 3.272 0 0 0 16 8.72v-2.55a1.32 1.32 0 0 0-.992-1.282A28.515 28.515 0 0 0 8 4zM4.543 5.25l4.346 4.346a1.833 1.833 0 0 0-2.28.406l-.529.611a1.11 1.11 0 0 1-.84.387H3.236C2.008 11 1 9.986 1 8.719v-2.55c0-.153.104-.28.238-.314a27.689 27.689 0 0 1 3.305-.605zM2.5 7a.5.5 0 0 0 0 1H4a.5.5 0 0 0 0-1H2.5zm9.502 0a.5.5 0 0 0-.004 1l1.5.004a.502.502 0 0 0 .502-.5c0-.276-.222-.5-.498-.5L12.002 7z"/>
</svg>
