/* XPM */
static char * default_xpm[] = {
"48 48 77 1",
" 	c None",
".	c #FEFEFE",
"+	c #FFFF00",
"@	c #000000",
"#	c #F96611",
"$	c #BABA00",
"%	c #EFEFEF",
"&	c #D9D900",
"*	c #F0F000",
"=	c #303030",
"-	c #101010",
";	c #404040",
">	c #100101",
",	c #3F0403",
"'	c #2F0302",
")	c #9F9F9F",
"!	c #DFDFDF",
"~	c #7F7F7F",
"{	c #606060",
"]	c #C8C7C6",
"^	c #8F8F8F",
"/	c #BFBFBF",
"(	c #1F0202",
"_	c #5D2606",
":	c #202020",
"<	c #505050",
"[	c #D7D6D4",
"}	c #331A0B",
"|	c #93775A",
"1	c #9A7C5C",
"2	c #FEFDFD",
"3	c #AFAFAF",
"4	c #4E0504",
"5	c #707070",
"6	c #7D3309",
"7	c #8C6061",
"8	c #BB4D0D",
"9	c #926D5D",
"0	c #331F0F",
"a	c #E96010",
"b	c #C7BAB1",
"c	c #C69CB5",
"d	c #5E0605",
"e	c #56491D",
"f	c #2F2014",
"g	c #C7C6C5",
"h	c #9C400B",
"i	c #100601",
"j	c #CAC0B5",
"k	c #3E1A04",
"l	c #C9C4BD",
"m	c #AB460C",
"n	c #DA590F",
"o	c #484227",
"p	c #794018",
"q	c #CA530E",
"r	c #5C501D",
"s	c #2F1303",
"t	c #4E2005",
"u	c #CDCDC8",
"v	c #F0EFF2",
"w	c #D3D2CE",
"x	c #CFCFCF",
"y	c #341D0D",
"z	c #6D6022",
"A	c #1F0D02",
"B	c #724B1B",
"C	c #4C4421",
"D	c #231408",
"E	c #874E66",
"F	c #B1A14F",
"G	c #4F471F",
"H	c #665B24",
"I	c #6D2D07",
"J	c #6E0705",
"K	c #7E0806",
"L	c #FFFFFF",
"                                                ",
"                                                ",
"                                                ",
"                     %@=5!                      ",
"                      x:@i{!                    ",
"                       %=_6@~                   ",
"                        !-8qs;%                 ",
"                         ^A#a_=%                ",
"                   3;%    :q##_=%               ",
"                 %{@<     56###t<               ",
"     !~         %=@-%     ^_###aA3      !{      ",
"     {-        %=d4~      3k####8-%     /@~     ",
"    !@>!       {'*@%      ~6#####k~     )>-%    ",
"    5d4^      3>*&;  !<%  <h#####8-%    {$${    ",
"    -*$=     %-&+&;  %@{ %@n######k)    -**-%   ",
"   3(++>/  @@@@@@@@@@@@@@@@@@@@@##h=   )'++4^   ",
"   5J++$;  @+++++++++++++++++++@##a@! %:&++&=   ",
"   =&++*(^ @+++++++++++++++++++@###t) {,++++>!  ",
"  %@++++&-x@@@@@@@@@@@@@@@@@@@@@###6{)>*++++,)  ",
"  /'+++++&-@...@...@...@...@...@###8->*+++++$~  ",
"  /,++++++&@...@...@...@...@...@###n@*++++++$<  ",
"  ~,+++++++@...@...@...@...@...@####@+++++++&;  ",
"  3,+++++++@@@@@@@@@@@@@@@@@@@@@####@+++++++$5  ",
"  /'+++++++@...@...@...@...@...@####@+++++++$^  ",
":) @*++++++@...@...@...@...@...@###n>++++++*>!):",
"=@<;$++++*+@...@...@...@...@.vj@G@ooez+++++$:<@=",
")'d@@$+++4$@@@@@@@@@@@@@@@@@@@C|b[g[b1rB++$@@$')",
"%-&*$$+++,>@...@...@...@...@D|w...]...u|0+$$*&-%",
" ~,++++++,s@...@...@...@..lH1.]......].21y+++,~ ",
" %-&+++++,m@...@...@...@.v1|............270+$-% ",
"  ^(*++++,m@@@@@@@@@@@@@@@@w]..]........]lo*(^  ",
"  %;d++++@6@...@...@...@.F|...]@].........7@=%  ",
" !@=@$+++@_@...@...@...@.1b....]@]........c',@% ",
"  =,'>+++@_@...@...@...@.9[.....]@].......[f(=  ",
"  )(++++++(@@@@@@@@@@@@@@9g].....]@......]gf:)  ",
"   :$+++++@_##IK+++++++++@[.......@.......[>/   ",
"   />&++++&>m#h,+++++++++eb.......@.......c~    ",
"    5'*++++$i8a@&++++++++z1.].....@.....].7f    ",
"     {'*++++$@6_4+++++++++ru......@......jf     ",
"      {'*++++&'i@$++++++++B|2.....@.....2E}     ",
"       ~>$+++++$'@$++++++++012]...|...]29}      ",
"        /=($*+++++++++++++++09l...]...j7}       ",
"          );>4$&++++++&&&&+++pe9c[g[c7e0        ",
"            !^<=@@@@@@-;;;;;;;;py}}}}p          ",
"                                                ",
"                                                ",
"                                                ",
"                                                "};
