/* XPM */
static char * mozicon16[] = {
/* columns rows colors chars-per-pixel */
"16 16 185 2",
"   c #9D382F",
".  c #A73D14",
"X  c #B8291A",
"o  c #B17648",
"O  c #DF2800",
"+  c #DF2900",
"@  c #DD3D31",
"#  c #E02700",
"$  c #E12900",
"%  c #E02B00",
"&  c #E12B00",
"*  c #E12D00",
"=  c #E02E00",
"-  c #E22F00",
";  c #EE2C00",
":  c #E53700",
">  c #F62700",
",  c #C24337",
"<  c #CF483E",
"1  c #D04B41",
"2  c #D14F45",
"3  c #D15248",
"4  c #D2554B",
"5  c #D2574D",
"6  c #D2594F",
"7  c #D35C52",
"8  c #D45C52",
"9  c #C2785E",
"0  c #8C8A70",
"q  c #8E8A79",
"w  c #8F8B78",
"e  c #918D6C",
"r  c #F38C3F",
"t  c #E99758",
"y  c #E89C5F",
"u  c #E7A268",
"i  c #E7AF77",
"p  c #E8A970",
"a  c #E5B17D",
"s  c #8D8B85",
"d  c #8F8D84",
"f  c #969486",
"g  c #9B9781",
"h  c #9B998E",
"j  c #969591",
"k  c #9D9896",
"l  c #9E9D98",
"z  c #9BA6AD",
"x  c #96AFB6",
"c  c #A29E82",
"v  c #A09E8D",
"b  c #A29F9C",
"n  c #A6A186",
"m  c #A6A39F",
"M  c #B1AC90",
"N  c #B3AE92",
"B  c #B5B198",
"V  c #BFBA98",
"C  c #A4A4A8",
"Z  c #A8A7A4",
"A  c #ABA9A2",
"S  c gray68",
"D  c #AEB9B5",
"F  c #B1AEA4",
"G  c #B1AEA5",
"H  c #B5B2A6",
"J  c #BEBCA6",
"K  c #B3B3B6",
"L  c #BCBCBF",
"P  c #ABC0C6",
"I  c #C2BF9E",
"U  c #DCB0AB",
"Y  c #E6B988",
"T  c #E5BF8F",
"R  c #CEC99E",
"E  c #C4C2B7",
"W  c #C1C0B9",
"Q  c #C1C7BF",
"!  c #C7C4B8",
"~  c #C9C5B2",
"^  c #CAC7B5",
"/  c #CBC8BC",
"(  c #D1CCA2",
")  c #D2CEB1",
"_  c #D7D3A2",
"`  c #D5D2B6",
"'  c #DCD3BF",
"]  c #E5C597",
"[  c #E6CB9E",
"{  c #E8D1A0",
"}  c #F2EEB8",
"|  c #C7C7CC",
" . c #CAC5C5",
".. c #C9C9D0",
"X. c #CECFD4",
"o. c #D1CEC1",
"O. c #D1CFC0",
"+. c #D3D0C3",
"@. c #DAD4C2",
"#. c #D3D3D6",
"$. c #D5D4D9",
"%. c #DAD6D8",
"&. c #D9DADF",
"*. c #E0DBC4",
"=. c #E1DDC1",
"-. c #E7E2CF",
";. c #E8E3C3",
":. c #EAE5C2",
">. c #EAE7CF",
",. c #ECE8C8",
"<. c #EFEBCA",
"1. c #E6E2D2",
"2. c #E6E7D9",
"3. c #EBE7D0",
"4. c #E8E5D6",
"5. c #E9E6DC",
"6. c #EBE8D6",
"7. c #ECE8D0",
"8. c #EEEAD2",
"9. c #EEEBD2",
"0. c #EEEBD3",
"q. c #ECE8D4",
"w. c #EDEAD4",
"e. c #EEEBD4",
"r. c #EEEBD5",
"t. c #EFECD5",
"y. c #EFECD6",
"u. c #EEEBD9",
"i. c #EEEBDA",
"p. c #EFECDA",
"a. c #EFEDDA",
"s. c #EAF4D1",
"d. c #F0ECD1",
"f. c #F2EED0",
"g. c #F0EDD7",
"h. c #F4EFD0",
"j. c #F1EED9",
"k. c #F4F1DD",
"l. c #F4F1DF",
"z. c #F6F4DF",
"x. c #F0FBDD",
"c. c #FCF8D4",
"v. c #FCF8DC",
"b. c #E0E1E2",
"n. c #E6E2E6",
"m. c #EBE8E6",
"M. c #E9E8EB",
"N. c #EEFFE9",
"B. c #EAF3F3",
"V. c #EFFFF4",
"C. c #F7F5E8",
"Z. c #F2FFE4",
"A. c #F4FFEA",
"S. c #F8F5E2",
"D. c #FFFDE9",
"F. c #FFFFEE",
"G. c #F1F0F5",
"H. c gray97",
"J. c #F0F1F8",
"K. c #F0FFF3",
"L. c #F0FFF5",
"P. c #F0FFF6",
"I. c #F1FFF6",
"U. c #FCFBF7",
"Y. c #FCFCF4",
"T. c #FCFCF5",
"R. c #FCFCF6",
"E. c #FEFFF4",
"W. c #FFFFF5",
"Q. c #FEFEF6",
"!. c #FFFFF6",
"~. c #FFFFF7",
"^. c #F8F8F8",
"/. c #F9F9F9",
"(. c gray98",
"). c #FBFBFA",
"_. c #FBFBFB",
"`. c #F8F9FC",
"'. c #FAFBFF",
"]. c #FBFFFF",
"[. c gray99",
"{. c #FFFFFC",
"}. c #FEFEFE",
"|. c gray100",
" X c None",
/* pixels */
" XU X , 8 7 6 5 4 3 2 1 1 @   D ",
" X9 ; : = % + + # % % % = > . x ",
" X' { [ ] T Y a i p u y t r o z ",
" X2.s.x.Z.A.N.K.K.I.V.I.K.}.Q k ",
" X4.;.f.j j j j j j j j j ~.E b ",
" X1.<.i.j i.j q.j a.j a.j U.! m ",
" X@.<.q.j j j j j j j j j T./ A ",
" X*.f.g.j q.j >.j 0.j q.j T.o.G ",
"m.;.f.g.j j j j j j j j j E.O.G ",
"-.c.a./ j 9.j q.j 9.j 9.j U.^ H ",
"~ V f.g.j j j j j j j j S.T.B W ",
"b.d q n ) v.D.z.l.C.T.}.~.k.c #.",
" X X XS d w M =.F.T.5.J ` R h  X",
" X X X X XX.Z f g N ( _ } 0 .. X",
" X X X X X X X X| l v I e C  X X",
" X X X X X X X X X X XL K  X X X"
};
