/* XPM */
static char * mozicon50[] = {
/* columns rows colors chars-per-pixel */
"48 48 257 2",
"   c #010101",
".  c #0A0A08",
"X  c #0B0B12",
"o  c #151517",
"O  c #18160E",
"+  c #1A1C26",
"@  c #211D11",
"#  c #24221A",
"$  c #272628",
"%  c #3B3827",
"&  c #292A35",
"*  c #393B44",
"=  c #37464B",
"-  c #3C5154",
";  c #403D2B",
":  c #4C4834",
">  c #4C4C52",
",  c #575965",
"<  c #546A65",
"1  c #736F54",
"2  c #6C747B",
"3  c #78726B",
"4  c #7A7773",
"5  c #6E6C6C",
"6  c #784A42",
"7  c #757D85",
"8  c #7B8289",
"9  c #7F9297",
"0  c #BE1D18",
"q  c #A83831",
"w  c #BD572D",
"e  c #9A504B",
"r  c #807A5E",
"t  c #817E67",
"y  c #837D75",
"u  c #9D7870",
"i  c #A95A56",
"p  c #AC6A5D",
"a  c #AC7D70",
"s  c #B16E6C",
"d  c #DE1500",
"f  c #DF1800",
"g  c #DD3400",
"h  c #D93B00",
"j  c #DE270A",
"k  c #C63C33",
"l  c #D03D34",
"z  c #D7362F",
"x  c #E11C00",
"c  c #FB1B00",
"v  c #E90F00",
"b  c #E32104",
"n  c #E82708",
"m  c #E53902",
"M  c #F12E10",
"N  c #EA342A",
"B  c #D84901",
"V  c #DE4A1D",
"C  c #DB471B",
"Z  c #D55507",
"A  c #D95518",
"S  c #CF5816",
"D  c #C05428",
"F  c #CB5F34",
"G  c #D0433C",
"H  c #CF462E",
"J  c #D5641F",
"K  c #D27439",
"L  c #CF672E",
"P  c #E34300",
"I  c #E54B02",
"U  c #E84507",
"Y  c #E04D19",
"T  c #E24B15",
"R  c #E65506",
"E  c #E0501A",
"W  c #E55A13",
"Q  c #E25C18",
"!  c #F75501",
"~  c #F14505",
"^  c #CF4E4B",
"/  c #D04A44",
"(  c #D04D49",
")  c #CD5754",
"_  c #CF7E45",
"`  c #C96F51",
"'  c #C56766",
"]  c #C67876",
"[  c #8B8754",
"{  c #888266",
"}  c #8B847A",
"|  c #938A7A",
" . c #99947A",
".. c #9C976A",
"X. c #A5A170",
"o. c #A7857A",
"O. c #D28B57",
"+. c #C8807E",
"@. c #D39567",
"#. c #D4A379",
"$. c #8B8580",
"%. c #89898D",
"&. c #898886",
"*. c #838A90",
"=. c #8D8E92",
"-. c #8F9093",
";. c #8E909A",
":. c #918E89",
">. c #918C83",
",. c #959289",
"<. c #999688",
"1. c #929396",
"2. c #999A9C",
"3. c #989896",
"4. c #9D9EA3",
"5. c #9EA0A3",
"6. c #A49E98",
"7. c #A99993",
"8. c #A9A487",
"9. c #A9A493",
"0. c #A6A296",
"q. c #B3AD8B",
"w. c #B1AD97",
"e. c #B8B488",
"r. c #B9B598",
"t. c #A3A3A4",
"y. c #A3A5AC",
"u. c #A9A9AC",
"i. c #ACA4A2",
"p. c #ABADB2",
"a. c #AEB0B7",
"s. c #B8B3A8",
"d. c #B7B8BA",
"f. c #BBB4B2",
"g. c #BCBDBE",
"h. c #B7B6B8",
"j. c #B6AEAC",
"k. c #BCBDC2",
"l. c #BFC0C2",
"z. c #C98B8A",
"x. c #C98482",
"c. c #D09797",
"v. c #C4B89A",
"b. c #D7B08C",
"n. c #C2BAA7",
"m. c #C2BCB5",
"M. c #DCBDA2",
"N. c #C0BAC3",
"B. c #C8C39C",
"V. c #D1CB9F",
"C. c #CCC9AA",
"Z. c #C9C5A8",
"A. c #C3C2BC",
"S. c #C9C3B3",
"D. c #C9C5BA",
"F. c #CCC9B4",
"G. c #CBC9BB",
"H. c #C5C2B2",
"J. c #D2CCAD",
"K. c #D2CDA1",
"L. c #D3CDB4",
"P. c #D4CEB8",
"I. c #DBC9B1",
"U. c #D9D5AE",
"Y. c #D5D0B5",
"T. c #D5D1BB",
"R. c #D9D4B6",
"E. c #DAD5BB",
"W. c #DDD9BC",
"Q. c #EAC19F",
"!. c #E1DCAC",
"~. c #E2DCBD",
"^. c #E0D8B6",
"/. c #E0CBB1",
"(. c #E5E0BC",
"). c #EAE5BC",
"_. c #EBE6B8",
"`. c #EDE8B9",
"'. c #C3C4C2",
"]. c #CCCAC2",
"[. c #CBCBCC",
"{. c #C5C4C7",
"}. c #C9CAD1",
"|. c #CED0D0",
" X c #CDDAD8",
".X c #D2CEC6",
"XX c #D5D3C2",
"oX c #D4D3CB",
"OX c #D9D6C3",
"+X c #D8D5CA",
"@X c #DDDAC3",
"#X c #DDDACB",
"$X c #D1D1D2",
"%X c #D6D5DA",
"&X c #DCDAD2",
"*X c #DADBDB",
"=X c #D9D8D7",
"-X c #D1CFD0",
";X c #DDDEE1",
":X c #D5D3E3",
">X c #DDE9D3",
",X c #DBE5CF",
"<X c #DBF2F5",
"1X c #E2DDC3",
"2X c #E1DECA",
"3X c #E2D5C3",
"4X c #E1DDD3",
"5X c #E0DCE4",
"6X c #E5E1C2",
"7X c #E4E1CB",
"8X c #E9E5C3",
"9X c #E9E5CA",
"0X c #EDE9C3",
"qX c #ECE9CC",
"wX c #E3E2D3",
"eX c #E4E3DA",
"rX c #ECEAD2",
"tX c #ECEBDC",
"yX c #E8E6D6",
"uX c #ECF2DD",
"iX c #F1EBC3",
"pX c #F2EDCB",
"aX c #F2E7C3",
"sX c #F2EDD3",
"dX c #F0EEDB",
"fX c #F5F1CC",
"gX c #F9F4CC",
"hX c #FAF4C6",
"jX c #F5F1D3",
"kX c #F5F2DB",
"lX c #FAF5D4",
"zX c #FAF5DB",
"xX c #FDFAD3",
"cX c #FDFBDC",
"vX c #F6F8D9",
"bX c #E4E3E3",
"nX c #EBEAE3",
"mX c #ECECEA",
"MX c #E7E6E8",
"NX c #EAEAF1",
"BX c #ECF7E7",
"VX c #EBF9F4",
"CX c #F0EEEA",
"ZX c #F0EFE2",
"AX c #F4F3E4",
"SX c #F3F3EC",
"DX c #F5F9EC",
"FX c #F9F5E3",
"GX c #F8F6EA",
"HX c #FDFBE3",
"JX c #FDFCEB",
"KX c #F3F3F3",
"LX c #F4FCFD",
"PX c #FDFDF2",
"IX c #FEFEFD",
"UX c #F5F5F7",
"YX c None",
/* pixels */
"YXYXYXYXYX7.q i i e e s c.c.z.z.z.z.z.z.x.x.x.+.+.+.] ] ] ] ] ' ] ' ' ' ' ' ' ' i ) i ( e < A.YX",
"YXYXYXYX Xs 0 k k k q / ^ ^ ^ ^ ^ ^ / / ( ( ( / / / / / / / G G G G l l l l l l z z N N 6 = s.YX",
"YXYXYXYXp v c j M n M x d d d d d d v d x d f f d x x v x f x x x x x b b x n x n j c n < - 3 YX",
"YXYXYXYXp m T H C C V V V V V V V V V V V V V V V C C V V V V V V V V C C V V V V V M H 9 8 | YX",
"YXYXYXYX` B U Y T Y Y Y E A E E V E A Y E E E Y E Y E Y V Y Y Y E E A Y Y Y T A E A ~ C *.2 | l.",
"YXYXYXYXw g j g g g m g m m m P U U P I I I I W W R W W Q Q Q Q Q Q W W Q Q Q W Q A ! W 8 2 y t.",
"YXYXYXYXn.b.b.b.#.@.O.O.O.K K L S S S Z B B B h h h B m B P P P I I I I I R R R R R ! W 9 7 y u.",
"YXYXYXYX,XDXIXPXIXLXIXIXVXDXVXBXBXuXuX2X2X1XI.M.M.b.#.#.@.O.K O.K L J J Z Z Z B I Z ~ B *.8 } 0.",
"YXYXYXYXL.0XiX^.1X8X6X8XqXvXvXHXJXPXPXPXIXIXIXIXIXIXIXLXIXLXLXLXLXUXVXmXeX4X2X3XI.I.Q.b.} 4 $.y.",
"YXYXYXYXL.pX6XY.6X~.~.~.@XW.W.~.W.W.W.~.~.W.1X8X0XsXsXzXzXHXPXPXPXPXIXIXIXIXIXIXIXIXLXLX} 5 &.t.",
"YXYXYXYXL.0X1X6XlXgXjXjXpXpXfXqXpX9X9X9XP.1X7XwX+XF.E.OXOXXXT.@X2X2X7XrXdXZXdXkXHXFXPXCX&.3 >.0.",
"YXYXYXYXP.aX8X8XlXpXpXpXjXfXjXjXpXvXcXzX1XxXcXPXSXOXgXkXAXmXT.0X9XrXeXF.R.W.#X+XoXFXIXnX&.3 >.t.",
"YXYXYXYXL.pX8XR.aX8XpXgXjXjXfXlXzXvXfXpX@XjXkXJXCX#XgXFXPXPX#XgXzXJXJX#XgXxXFXJX#XtXIXmX>.4 :.5.",
"YXYXYXYXL.pX(.T.9X2X@XT.W.1X1XqXpXyXlXsX7XHXJXPXKX1XcXFXJXGX@XjXdXJXGX#XjXFXcXJX*XdXIXCX>.y ,.0.",
"YXYXYXYXF.aX~.6XcXzXGX+X).qXtX+XF.3X2X1XP.wXtXSXmX#XHXPXIXUXwXxXFXJXPX2XfXkXFXPX4XtXIXmX>.4 ,.2.",
"YXYXYXYXL.pX1X9XcXzXPX2XpXzXPXyX~.xXkXAXXXU.@XyX$XD.6X&XbXbX+XdXGXLXUXwXcXJXPXIX4XkXIXCX,.} ,.u.",
"YXYXYXYXF.iX(.2XJXJXIXwXpXzXJXtX1XcXFXJX2XfXcXHXdXW.pX9XrXwXF.W.OX#X*X].7XtXSXUX*XkXIXSX,.} } =X",
"YXYXYXYXXXgX(.H.2XyXbXoXrXJXIXmX9XcXHXPX2XpXvXJXZX#XxXcXJXGX1XfXsXvXtXP.~.2X#X+X[.AXIXmX<.} >.|.",
"YXYXYXYX&XhX1X(.pX9XwXF.R.2XeX[.P.dXGXLX*XlXJXPXKX@XfXkXJXAX#XfXzXJXGX#XgXlXFXFX&XAXIXCX<.| >.oX",
"YXYXYXYXF.xXW.0XcXcXPX6XiXfXrX+XL.~.1X=XG.@XdXKXNX2XHXPXPXUX2XjXkXJXAX#XfXzXHXJXwXZXIXCX3.} ,.|.",
"YXYXYXYXT.xXE.7XcXJXUX@XgXzXJXtX8XxXlXuXT.~.1X2XoXD.2XtXmXNX&XzXJXPXIXwXlXzXFXJX*XAXIXCX6.| <.|.",
"YXYXYXP.8XxXF.T.W.nXbXOXlXcXPXeX6XgXHXGXW.gXxXcXtXY.).~.2X#XF.@X#XnXNX#XkXJXPXIXbXkXIXCX0.| <.|.",
"YXYXYXf.fXqXR.fX8XtXoXZ.@XwXmX#X8XzXPXSXE.gXzXJXtX~.gXlXHXkX~.).6X9X&XD.T.#XeXNX*XGXIXKX0.>.<.-X",
"YXYXYXm.xX8X~.cXcXPX#X).fXrXwXH.~.2XnX*X~.zXHXPXeX8XlXsXHXtX6XgXzXcXFXW.`.pXqX1X].DXIXCX0. .<.=X",
"YXYXYXE.lXY.qXcXJXPXXXfXzXJXZX~.gXpXyXG.R.7X2XSX&X8XcXzXPXmX~.gXrXHXCXE.gXcXzXcX4XSXIXnX9.<.<.{.",
"YXYXm.pXxXm.T.7XZXbX6XcXzXJX*X(.gXFXPX@X`.fXyXtXD.L.1XyXKXeX1XcXHXPXnXE.pXsXzXFX*XSXIXeX9.9.6.6.",
"YXYXm.xX1X1XfX9XwXA.Y.9XdXPX#XgXzXJXSXE.pXzXJXAXW.iXqX9XyX].Y.7XwXGXeX0XcXzXJXJXyXPXIX+Xw.w.,.:.",
"YXi.3XcXL.jXcXHXPX@X0X1XwX&Xm.~.dXPX*X0XcXsXPX4XR.xXzXcXDXOX0X8X2X>X'.L.7XrXGXCXbXPXIXH.w.r.:.2.",
"YXA.xX~.1XcXvXPXbX~.xXcXPX4XR.qX1X&XA.~.rXzXIXyXaXlXsXJXCXR.xXlXJXPXP.(.9X2X#X].nXIXIXs.w.r.:.YX",
"h.qXcXW.P.9XAXIX#XfXzXFXPXXXgXcXJXeXL.8XT.wX*XF.qXzXHXPX*X0XlXdXJXnX~.xXcXzXFX&XmXIXCXr.n.8.%.YX",
"n.0XcXHXjX@X2X].C.jXFXIX4X6XlXsXJX&X0XcXvXJX&XC.1XOXwXnXT.iXcXFXPX4X(.lXrXFXFXbXPXIX+Xw.R.{ -.YX",
"A. .r.2XqXcXcXfXqXOXW.*XG.0XcXPXCXY.gXvXHXPX#XhXcXrXtXoXXX7X2XkXbXR.gXcXzXJXyXbXIXIXF.r.W.y 8 YX",
"YX7.{ v.~.R.3X9XzXJXcX9X@XR.#XeX].iXcXzXPXbXW.gXjXzXJXeXGXPXnXnX+XOX7X7XzXJX=XPXIXMXr.L.B.3 YXYX",
"YXYX1.@ : 8.U.R.W.E.yXcXPXJXkX#XP.W.@XkXUXOXhXcXkXJXyXeXJXJXPXJXPXPXnXwXtX$X*XIXIXOXq.8X ., YXYX",
"YXYXYX* * o # 1 q.I.~.L.L.yXHXJXPXAX7XwXG.F.qXsXHXDXeXAXJXAXFXGXJXPXPXIXPXoXSXIXMXZ.Z.iX> 7 YXYX",
"YXYXYXYXYXa.8 + . ; r v.iX~.L.XXwXJXIXJXFXZX#XT.eXoXwXPXPXJXJXPXGXFXPXIXnXUXIX*XZ.B.qXU.$ YXYXYX",
"YXYXYXYXYXYXYXYXk.> $ $ ; { U.`.~.Y.P.yXPXIXPXPXtX2XeXeXwXtXPXAXGXIXIXIXIXmXf.B.U.L.JX: > YXYXYX",
"YXYXYXYXYXYXYXYXYXYXYX%.* & O : q.!.).~.L.E.tXPXIXIXPXFXnXtXwXZXIXbX . .9.8.B.`.J.zXB.  [.YXYXYX",
"YXYXYXYXYXYXYXYXYXYXYXYXYXYX4 , X o 1 8.!.gX^.Y.OXyXGXPXIXIXIXKXs.1 [ [ ..B.^.C.(.JX@ > YXYXYXYX",
"YXYXYXYXYXYXYXYXYXYXYXYXYXYXYXYXbX1.+ . # 1 v.hXhX^.L.F.T.@XG.q.X.q.e.e.J.C.K.U.PX{   YXYXYXYXYX",
"YXYXYXYXYXYXYXYXYXYXYXYXYXYXYXYXYXYXYX[.2 * o # 3 K.hXxXhXK.e.e.Z.U.U.).).(.U.PXT.  %.YXYXYXYXYX",
"YXYXYXYXYXYXYXYXYXYXYXYXYXYXYXYXYXYXYXYXYXYXy.7 & . % t B.cXJXlX).`.iX).0X_.cXGX  = YXYXYXYXYXYX",
"YXYXYXYXYXYXYXYXYXYXYXYXYXYXYXYXYXYXYXYXYXYXYXYXYXk., X O % { 7XJXcXxX`.!.xXIX# o YXYXYXYXYXYXYX",
"YXYXYXYXYXYXYXYXYXYXYXYXYXYXYXYXYXYXYXYXYXYXYXYXYXYXYXYX4.= $   % 8.gXcXPXIX$   bXYXYXYXYXYXYXYX",
"YXYXYXYXYXYXYXYXYXYXYXYXYXYXYXYXYXYXYXYXYXYXYXYXYXYXYXYXYXYXYXy., . . 1 A.@   %XYXYXYXYXYXYXYXYX",
"YXYXYXYXYXYXYXYXYXYXYXYXYXYXYXYXYXYXYXYXYXYXYXYXYXYXYXYXYXYXYXYXYXYX4.= . o *XYXYXYXYXYXYXYXYXYX",
"YXYXYXYXYXYXYXYXYXYXYXYXYXYXYXYXYXYXYXYXYXYXYXYXYXYXYXYXYXYXYXYXYXYXYXYX4.u.YXYXYXYXYXYXYXYXYXYX",
"YXYXYXYXYXYXYXYXYXYXYXYXYXYXYXYXYXYXYXYXYXYXYXYXYXYXYXYXYXYXYXYXYXYXYXYXYXYXYXYXYXYXYXYXYXYXYXYX"
};
