<svg xmlns="http://www.w3.org/2000/svg" width="16" height="16">
    <path d="M8 1c-.22 0-.44.011-.656.031l-.406 2.094a5.012 5.012 0 00-.969.312L4.438 1.97c-.389.23-.727.514-1.063.812l.906 1.906a5.057 5.057 0 00-.593.813L1.594 5.22a6.91 6.91 0 00-.406 1.28l1.843 1a4.826 4.826 0 00-.03.5c0 .173.013.332.03.5l-1.843 1c.097.445.228.872.406 1.281l2.094-.281c.17.29.371.563.593.812l-.906 1.907c.336.298.674.582 1.063.812l1.531-1.469c.306.137.634.24.969.313l.406 2.094a7.118 7.118 0 001.312 0l.407-2.094c.334-.073.663-.176.968-.313l1.532 1.47c.388-.23.727-.515 1.062-.813l-.906-1.907a5.11 5.11 0 00.594-.812l2.093.281a6.91 6.91 0 00.407-1.281l-1.844-1c.017-.168.031-.327.031-.5s-.014-.332-.031-.5l1.844-1a6.908 6.908 0 00-.407-1.281l-2.093.281a5.057 5.057 0 00-.594-.813l.906-1.906c-.335-.298-.674-.582-1.062-.812L10.03 3.437a5.015 5.015 0 00-.968-.312l-.407-2.094A7.118 7.118 0 008 1zm0 4a3 3 0 110 6 3 3 0 010-6z" style="marker:none" color="#000" overflow="visible" fill="context-fill" stroke="context-stroke" fill-opacity="context-fill-opacity" stroke-opacity="context-stroke-opacity"/>
</svg>
