<svg xmlns="http://www.w3.org/2000/svg" width="16" height="16"><g color="#bebebe" fill="context-fill" stroke="context-stroke" fill-opacity="context-fill-opacity"><path d="M2 1v7c0 2.072 1.498 3.695 2.832 4.889a18.66 18.66 0 002.66 1.972l.516.305.512-.31s1.32-.8 2.65-2.002C12.5 11.65 14 10.044 14 8V1zm2 2h8v5c0 .92-1 2.313-2.17 3.37-.913.825-1.477 1.154-1.836 1.386-.358-.226-.918-.543-1.828-1.358C5 10.355 4 8.98 4 8z" style="line-height:normal;font-variant-ligatures:normal;font-variant-position:normal;font-variant-caps:normal;font-variant-numeric:normal;font-variant-alternates:normal;font-feature-settings:normal;text-indent:0;text-align:start;text-decoration-line:none;text-decoration-style:solid;text-decoration-color:#000;text-transform:none;text-orientation:mixed;shape-padding:0;isolation:auto;mix-blend-mode:normal;marker:none" font-weight="400" font-family="sans-serif" overflow="visible"/><path d="M5 4v4c0 .357.755 1.641 1.844 2.625.575.52.736.58 1.156.875.42-.294.581-.355 1.156-.875C10.246 9.641 11 8.357 11 8V4z" style="marker:none" overflow="visible"/></g></svg>
