<!-- This Source Code Form is subject to the terms of the Mozilla Public
   - License, v. 2.0. If a copy of the MPL was not distributed with this
   - file, You can obtain one at http://mozilla.org/MPL/2.0/. -->
<svg width="222px" height="122px" viewBox="0 0 222 122" version="1.1" xmlns="http://www.w3.org/2000/svg" xmlns:xlink="http://www.w3.org/1999/xlink">
    <!-- Generator: Sketch 45.2 (43514) - http://www.bohemiancoding.com/sketch -->
    <title>Storage</title>
    <desc>Created with Sketch.</desc>
    <defs></defs>
    <g id="Page-1" stroke="none" stroke-width="1" fill="none" fill-rule="evenodd">
        <g id="2017.06.07.Firefox.DevEdition-[white]" transform="translate(-494.000000, -3171.000000)">
            <g id="Group-16" transform="translate(562.000000, 3192.000000)" stroke-width="5" stroke-linecap="round">
                <path d="M79.0179219,81.9119141 L9.41614704,81.9119141 C4.47517472,81.9119141 0.43303223,78.6943644 0.43303223,74.7621705 L0.43303223,61.8828944 C0.43303223,57.9507005 4.47517472,54.7331509 9.41614704,54.7331509 L79.0179219,54.7331509 C83.9578575,54.7331509 88,57.9507005 88,61.8828944 L88,74.7621705 C88,78.6943644 83.9578575,81.9119141 79.0179219,81.9119141 Z" id="Stroke-1" stroke="#0022A9"></path>
                <path d="M79.0179219,54.7335635 L9.41614704,54.7335635 C4.47517472,54.7335635 0.43303223,51.5160138 0.43303223,47.5838199 L0.43303223,34.7045439 C0.43303223,30.7723499 4.47517472,27.5548003 9.41614704,27.5548003 L79.0179219,27.5548003 C83.9578575,27.5548003 88,30.7723499 88,34.7045439 L88,47.5838199 C88,51.5160138 83.9578575,54.7335635 79.0179219,54.7335635 Z" id="Stroke-3" stroke="#137EFF"></path>
                <path d="M79.0179219,27.5551304 L9.41614704,27.5551304 C4.47517472,27.5551304 0.43303223,24.3375807 0.43303223,20.4053868 L0.43303223,7.52611075 C0.43303223,3.59391684 4.47517472,0.376367187 9.41614704,0.376367187 L79.0179219,0.376367187 C83.9578575,0.376367187 88,3.59391684 88,7.52611075 L88,20.4053868 C88,24.3375807 83.9578575,27.5551304 79.0179219,27.5551304 Z" id="Stroke-5" stroke="#00C7D8"></path>
            </g>
            <path d="M576.8016,3209.62875 C574.701741,3209.62875 573,3207.92195 573,3205.8148 C573,3203.70765 574.701741,3202 576.8016,3202 C578.900612,3202 580.602353,3203.70765 580.602353,3205.8148 C580.602353,3207.92195 578.900612,3209.62875 576.8016,3209.62875 Z" id="Fill-7" fill="#1C2142"></path>
            <path d="M580.602353,3232.8148 C580.602353,3234.92195 578.900612,3236.62875 576.8016,3236.62875 C574.701741,3236.62875 573,3234.92195 573,3232.8148 C573,3230.70765 574.701741,3229 576.8016,3229 C578.900612,3229 580.602353,3230.70765 580.602353,3232.8148" id="Fill-9" fill="#1C2142"></path>
            <path d="M576.8016,3263.62875 C574.701741,3263.62875 573,3261.9211 573,3259.8148 C573,3257.70765 574.701741,3256 576.8016,3256 C578.900612,3256 580.602353,3257.70765 580.602353,3259.8148 C580.602353,3261.9211 578.900612,3263.62875 576.8016,3263.62875 Z" id="Fill-11" fill="#1C2142"></path>
            <g id="Group-6" transform="translate(145.000000, 2865.000000)"></g>
        </g>
    </g>
</svg>