<!-- This Source Code Form is subject to the terms of the Mozilla Public
   - License, v. 2.0. If a copy of the MPL was not distributed with this
   - file, You can obtain one at http://mozilla.org/MPL/2.0/. -->
<svg xmlns="http://www.w3.org/2000/svg" width="28" height="28" aria-hidden="true" role="img">
  <path
      fill="context-fill rgba(135, 135, 137, 0.9)"
      d="M13.966 0A13.966 13.973 0 0 0 .494 10.294c1.276-1.36 2.62-2.343 4.039-2.955 2.12-.914 4.382-1.004 6.716-.467 4.841 1.114 6.054 6.024 6.054 6.024l-.042.01c.139.403.214.835.214 1.283 0 1.184-.526 2.25-1.354 2.955.954.69 2.703 1.454 4.784 1.28 1.97-.163 4.365-1.1 7.014-3.99a13.966 13.973 0 0 0 .013-.461A13.966 13.973 0 0 0 13.966 0zM8.405 7.823a8.511 8.511 0 0 0-3.362.699c-1.726.744-3.391 2.135-4.994 4.332a13.966 13.973 0 0 0-.05 1.119 13.966 13.973 0 0 0 13.464 13.96c-1.561-.822-2.804-1.802-3.746-2.942-1.472-1.78-2.199-3.935-2.337-6.326-.288-4.962 4.09-7.496 4.09-7.496l.003.006a3.61 3.61 0 0 1 3.154-.717c-.784-.98-1.952-1.94-3.666-2.334a11.243 11.243 0 0 0-2.32-.299c-.079-.002-.158-.002-.235-.002zm1.648 6.351c-.798 1.047-1.498 2.52-1.388 4.422.126 2.182.758 4.019 2.04 5.57 1.2 1.452 3.004 2.66 5.567 3.584a13.966 13.973 0 0 0 10.02-7.22c-1.744.987-3.463 1.494-5.07 1.628-3.177.264-5.767-.842-7.389-2.049-1.448-1.077-2.31-2.094-2.811-2.924a5.443 5.443 0 0 1-.507-1.071 3.142 3.142 0 0 1-.06-.204 3.896 3.896 0 0 1-.402-1.721v-.014z"/>
</svg>
