<!-- This Source Code Form is subject to the terms of the Mozilla Public
   - License, v. 2.0. If a copy of the MPL was not distributed with this
   - file, You can obtain one at http://mozilla.org/MPL/2.0/. -->
<svg xmlns="http://www.w3.org/2000/svg" width="28" height="28" aria-hidden="true" role="img">
  <path
      fill="context-fill rgba(135, 135, 137, 0.9)"
      d="M28 14.641c0 .547-.031 1.094-.109 1.625H9.907c0 3.109 2.734 5.359 5.734 5.359 2.031 0 3.984-1 5.031-2.766h6.609a12.604 12.604 0 0 1-11.859 8.375c-1.922 0-3.844-.453-5.563-1.297-1.75.891-4.203 1.813-6.156 1.813C1.078 27.75 0 26.141 0 23.641c0-1.453.313-2.906.703-4.297.25-.906 1.25-2.75 1.703-3.578 1.922-3.484 4.453-6.828 7.422-9.469-2.391 1.031-4.984 3.625-6.672 5.531a12.585 12.585 0 0 1 12.266-9.766c.234 0 .469 0 .703.016C18.062 1.187 20.766.25 22.891.25c2.531 0 4.703.969 4.703 3.828 0 1.5-.578 3.125-1.172 4.469A12.605 12.605 0 0 1 28 14.641zm-1.094-10c0-1.75-1.25-2.828-2.969-2.828-1.313 0-2.797.531-3.969 1.094a12.69 12.69 0 0 1 6.141 5.109c.391-1.031.797-2.281.797-3.375zM2 23.969c0 1.813 1.078 2.797 2.859 2.797 1.391 0 2.938-.625 4.156-1.297a12.587 12.587 0 0 1-5.484-6.687C2.812 20.282 2 22.282 2 23.969zm7.875-11.141H21.25c-.109-3.016-2.766-5.187-5.688-5.187-2.938 0-5.578 2.172-5.688 5.187z"/>
</svg>
