<!-- This Source Code Form is subject to the terms of the Mozilla Public
   - License, v. 2.0. If a copy of the MPL was not distributed with this
   - file, You can obtain one at http://mozilla.org/MPL/2.0/. -->
<svg xmlns="http://www.w3.org/2000/svg" width="28" height="28" aria-hidden="true" role="img">
  <path
      fill="context-fill rgba(135, 135, 137, 0.9)"
      d="M23.328 3.563a10.068 10.068 0 0 0-5.609-1.719c-3.328 0-6.266 1.703-8.328 4.266-1.5 1.875-2.547 4.531-2.625 7.562v.656c.078 3.031 1.125 5.688 2.625 7.562 2.063 2.562 5 4.266 8.328 4.266 2.047 0 3.969-.625 5.609-1.719A13.922 13.922 0 0 1 14 28c-.219 0-.453 0-.672-.016C5.906 27.64 0 21.515 0 14 0 6.266 6.266 0 14 0h.047a13.981 13.981 0 0 1 9.281 3.563zM28 14c0 4.078-1.75 7.734-4.531 10.297a6.653 6.653 0 0 1-3.469.984c-1.437 0-2.797-.469-3.984-1.313 3.172-1.156 5.516-5.172 5.516-9.969 0-4.781-2.328-8.797-5.5-9.969 1.188-.828 2.531-1.297 3.969-1.297 1.266 0 2.453.359 3.531 1.016a13.963 13.963 0 0 1 4.469 10.25z"/>
</svg>
