<!-- This Source Code Form is subject to the terms of the Mozilla Public
   - License, v. 2.0. If a copy of the MPL was not distributed with this
   - file, You can obtain one at http://mozilla.org/MPL/2.0/. -->
<svg xmlns="http://www.w3.org/2000/svg" width="28" height="28" aria-hidden="true" role="img">
  <path
      fill="context-fill rgba(135, 135, 137, 0.9)"
      d="M14.828 13.953c0 .516-.359 1-.906 1-.516 0-1-.375-1-.906 0-.516.375-1 .922-1 .5 0 .984.359.984.906zm.234.906l5.469-9.078c-.734.688-7.578 6.984-7.766 7.313l-5.453 9.063c.719-.672 7.578-7 7.75-7.297zM25.172 14c0 2.047-.562 4.062-1.625 5.797-.156-.078-.812-.547-.938-.547a.207.207 0 0 0-.203.203c0 .203.734.578.922.688a11.229 11.229 0 0 1-6.656 4.703l-.25-1.047c-.016-.141-.109-.156-.234-.156-.109 0-.172.156-.156.234l.25 1.062c-.75.156-1.516.234-2.281.234-2.047 0-4.062-.578-5.812-1.641.094-.156.688-1.016.688-1.141a.207.207 0 0 0-.203-.203c-.219 0-.688.938-.828 1.125a11.24 11.24 0 0 1-4.719-6.75l1.078-.234c.125-.031.156-.125.156-.234s-.156-.172-.25-.156l-1.062.234a11.222 11.222 0 0 1-.219-2.172c0-2.094.594-4.156 1.703-5.922.156.094.906.609 1.031.609.109 0 .203-.078.203-.187 0-.219-.828-.641-1.016-.766 1.594-2.328 4.016-4 6.766-4.625l.234 1.047c.031.125.125.156.234.156s.172-.156.156-.25l-.234-1.031a11.745 11.745 0 0 1 2.094-.203 11.2 11.2 0 0 1 5.922 1.703c-.109.156-.609.891-.609 1.016 0 .109.078.203.187.203.219 0 .641-.812.75-1a11.165 11.165 0 0 1 4.609 6.672l-.875.187c-.141.031-.156.125-.156.25 0 .109.156.172.234.156l.891-.203c.141.719.219 1.453.219 2.187zm1.328 0c0-6.906-5.594-12.5-12.5-12.5S1.5 7.094 1.5 14 7.094 26.5 14 26.5 26.5 20.906 26.5 14zm1.5 0c0 7.734-6.266 14-14 14S0 21.734 0 14 6.266 0 14 0s14 6.266 14 14z"/>
</svg>
