<!-- may be protected as a trademark in some jurisdictions -->
<svg xmlns="http://www.w3.org/2000/svg" width="135" height="40" xml:space="preserve"><path fill="#A6A6A6" d="M130.197 40H4.729A4.74 4.74 0 0 1 0 35.267V4.726A4.733 4.733 0 0 1 4.729 0h125.468C132.803 0 135 2.12 135 4.726v30.541c0 2.605-2.197 4.733-4.803 4.733z"/><path d="M134.032 35.268a3.83 3.83 0 0 1-3.834 3.83H4.729a3.835 3.835 0 0 1-3.839-3.83V4.725A3.84 3.84 0 0 1 4.729.89h125.468a3.834 3.834 0 0 1 3.834 3.835l.001 30.543z"/><g fill="#FFF"><path d="M30.128 19.784c-.029-3.223 2.639-4.791 2.761-4.864-1.511-2.203-3.853-2.504-4.676-2.528-1.967-.207-3.875 1.177-4.877 1.177-1.022 0-2.565-1.157-4.228-1.123-2.14.033-4.142 1.272-5.24 3.196-2.266 3.923-.576 9.688 1.595 12.859 1.086 1.553 2.355 3.287 4.016 3.226 1.625-.067 2.232-1.036 4.193-1.036 1.943 0 2.513 1.036 4.207.997 1.744-.028 2.842-1.56 3.89-3.127 1.255-1.78 1.759-3.533 1.779-3.623-.041-.014-3.387-1.291-3.42-5.154zM26.928 10.306c.874-1.093 1.472-2.58 1.306-4.089-1.265.056-2.847.875-3.758 1.944-.806.942-1.526 2.486-1.34 3.938 1.421.106 2.88-.717 3.792-1.793z"/></g><g fill="#FFF"><path d="M53.645 31.504h-2.271l-1.244-3.909h-4.324l-1.185 3.909H42.41l4.284-13.308h2.646l4.305 13.308zm-3.89-5.549L48.63 22.48c-.119-.355-.342-1.191-.671-2.507h-.04a96.75 96.75 0 0 1-.632 2.507l-1.105 3.475h3.573zM64.662 26.588c0 1.632-.441 2.922-1.323 3.869-.79.843-1.771 1.264-2.942 1.264-1.264 0-2.172-.454-2.725-1.362h-.04v5.055H55.5V25.067c0-1.026-.027-2.079-.079-3.159h1.875l.119 1.521h.04c.711-1.146 1.79-1.718 3.238-1.718 1.132 0 2.077.447 2.833 1.342.758.896 1.136 2.074 1.136 3.535zm-2.172.078c0-.934-.21-1.704-.632-2.31-.461-.632-1.08-.948-1.856-.948-.526 0-1.004.176-1.431.523-.428.35-.708.807-.839 1.373-.066.264-.099.48-.099.65v1.6c0 .698.214 1.287.642 1.768s.984.721 1.668.721c.803 0 1.428-.31 1.875-.928.448-.619.672-1.435.672-2.449zM75.699 26.588c0 1.632-.441 2.922-1.324 3.869-.789.843-1.77 1.264-2.941 1.264-1.264 0-2.172-.454-2.724-1.362h-.04v5.055h-2.132V25.067c0-1.026-.027-2.079-.079-3.159h1.875l.119 1.521h.04c.71-1.146 1.789-1.718 3.238-1.718 1.131 0 2.076.447 2.834 1.342.755.896 1.134 2.074 1.134 3.535zm-2.172.078c0-.934-.211-1.704-.633-2.31-.461-.632-1.078-.948-1.855-.948a2.22 2.22 0 0 0-1.432.523c-.428.35-.707.807-.838 1.373-.065.264-.099.48-.099.65v1.6c0 .698.214 1.287.64 1.768.428.48.984.721 1.67.721.803 0 1.428-.31 1.875-.928.448-.619.672-1.435.672-2.449zM88.039 27.772c0 1.132-.393 2.053-1.182 2.764-.867.777-2.074 1.165-3.625 1.165-1.432 0-2.58-.276-3.449-.829l.494-1.777c.936.566 1.963.85 3.082.85.803 0 1.428-.182 1.877-.544.447-.362.67-.848.67-1.454 0-.54-.184-.995-.553-1.364-.367-.369-.98-.712-1.836-1.029-2.33-.869-3.494-2.142-3.494-3.816 0-1.094.408-1.991 1.225-2.689.814-.699 1.9-1.048 3.258-1.048 1.211 0 2.217.211 3.02.632l-.533 1.738c-.75-.408-1.598-.612-2.547-.612-.75 0-1.336.185-1.756.553a1.58 1.58 0 0 0-.533 1.205c0 .526.203.961.611 1.303.355.316 1 .658 1.936 1.027 1.145.461 1.986 1 2.527 1.618.539.616.808 1.387.808 2.307zM95.088 23.508h-2.35v4.659c0 1.185.414 1.777 1.244 1.777.381 0 .697-.033.947-.099l.059 1.619c-.42.157-.973.236-1.658.236-.842 0-1.5-.257-1.975-.77-.473-.514-.711-1.376-.711-2.587v-4.837h-1.4v-1.6h1.4v-1.757l2.094-.632v2.389h2.35v1.602zM105.691 26.627c0 1.475-.422 2.686-1.264 3.633-.883.975-2.055 1.461-3.516 1.461-1.408 0-2.529-.467-3.365-1.401s-1.254-2.113-1.254-3.534c0-1.487.43-2.705 1.293-3.652.861-.948 2.023-1.422 3.484-1.422 1.408 0 2.541.467 3.396 1.402.818.907 1.226 2.078 1.226 3.513zm-2.212.069c0-.885-.189-1.644-.572-2.277-.447-.766-1.086-1.148-1.914-1.148-.857 0-1.508.383-1.955 1.148-.383.634-.572 1.405-.572 2.317 0 .885.189 1.644.572 2.276.461.766 1.105 1.148 1.936 1.148.814 0 1.453-.39 1.914-1.168.393-.645.591-1.412.591-2.296zM112.621 23.783a3.702 3.702 0 0 0-.672-.059c-.75 0-1.33.283-1.738.85-.355.5-.533 1.132-.533 1.895v5.035h-2.131l.02-6.574c0-1.106-.027-2.113-.08-3.021h1.857l.078 1.836h.059c.225-.631.58-1.139 1.066-1.52a2.578 2.578 0 0 1 1.541-.514c.197 0 .375.014.533.039v2.033zM122.156 26.252a5 5 0 0 1-.078.967h-6.396c.025.948.334 1.673.928 2.173.539.447 1.236.671 2.092.671.947 0 1.811-.151 2.588-.454l.334 1.48c-.908.396-1.98.593-3.217.593-1.488 0-2.656-.438-3.506-1.313-.848-.875-1.273-2.05-1.273-3.524 0-1.447.395-2.652 1.186-3.613.828-1.026 1.947-1.539 3.355-1.539 1.383 0 2.43.513 3.141 1.539.563.815.846 1.823.846 3.02zm-2.033-.553c.014-.632-.125-1.178-.414-1.639-.369-.593-.936-.889-1.699-.889-.697 0-1.264.289-1.697.869-.355.461-.566 1.014-.631 1.658h4.441z"/></g><g fill="#FFF"><path d="M47.42 11.6c0 .557-.193 1.009-.58 1.358-.426.381-1.02.572-1.781.572-.703 0-1.269-.136-1.694-.408l.242-.873c.46.278.964.417 1.515.417.395 0 .701-.089.922-.268a.87.87 0 0 0 .329-.714.91.91 0 0 0-.271-.67c-.181-.181-.481-.35-.901-.505-1.145-.427-1.717-1.052-1.717-1.875 0-.538.2-.978.601-1.321.401-.343.935-.515 1.601-.515.595 0 1.09.104 1.484.311l-.262.854a2.573 2.573 0 0 0-1.252-.301c-.368 0-.656.091-.863.271a.779.779 0 0 0-.262.592.8.8 0 0 0 .301.64c.175.155.491.324.951.504.562.227.976.492 1.241.795.264.305.396.683.396 1.136zM51.397 9.504h-1.154v2.29c0 .582.204.873.611.873.188 0 .343-.016.466-.049l.028.795c-.207.078-.479.117-.814.117-.414 0-.737-.126-.97-.378-.233-.252-.35-.676-.35-1.271V9.504h-.688v-.785h.688v-.864l1.028-.31v1.173h1.154v.786zM54.015 7.312a.603.603 0 0 1-.184.456.661.661 0 0 1-.476.175.611.611 0 0 1-.621-.63c0-.181.062-.33.185-.446s.274-.175.456-.175a.64.64 0 0 1 .456.175.582.582 0 0 1 .184.445zm-.116 6.121h-1.048V8.719h1.048v4.714zM59.292 13.433h-.941l-.077-.543h-.029c-.323.433-.782.65-1.377.65-.446 0-.806-.143-1.077-.427a1.338 1.338 0 0 1-.368-.96c0-.576.24-1.015.723-1.319.481-.304 1.159-.453 2.032-.446V10.3c0-.621-.326-.931-.978-.931-.465 0-.875.117-1.229.349l-.213-.688c.438-.271.979-.407 1.617-.407 1.233 0 1.85.65 1.85 1.95v1.736c-.001.471.023.846.067 1.124zm-1.086-1.62v-.727c-1.157-.02-1.735.297-1.735.95 0 .246.067.43.202.553a.73.73 0 0 0 .511.184c.231 0 .445-.073.642-.218a.889.889 0 0 0 .38-.742zM65.151 13.433h-1.048v-2.68c0-.845-.316-1.268-.95-1.268-.485 0-.818.245-.999.735a1.283 1.283 0 0 0-.049.377v2.835h-1.048V6.556h1.048v2.841h.02c.33-.517.802-.775 1.416-.775.434 0 .792.142 1.077.427.355.355.533.883.533 1.581v2.803zM71.088 13.433h-1.049v-2.7c0-.832-.316-1.248-.949-1.248a.944.944 0 0 0-.757.343 1.217 1.217 0 0 0-.291.808v2.796h-1.048v-3.366c0-.414-.013-.863-.038-1.349h.921l.049.737h.029c.122-.229.304-.418.543-.569.284-.176.602-.265.95-.265.441 0 .807.142 1.098.427.361.349.543.87.543 1.562v2.824zM77.004 13.433h-.92l-.059-.718h-.02c-.33.55-.828.825-1.494.825-.465 0-.838-.146-1.115-.437-.33-.356-.494-.893-.494-1.61V8.719h1.047v2.6c0 .906.311 1.358.932 1.358.465 0 .789-.226.969-.679.045-.116.068-.249.068-.398V8.719h1.047v3.356c0 .446.014.899.039 1.358zM81.205 9.504h-1.154v2.29c0 .582.205.873.611.873.188 0 .344-.016.467-.049l.027.795c-.207.078-.479.117-.814.117-.414 0-.736-.126-.969-.378-.234-.252-.35-.676-.35-1.271V9.504h-.689v-.785h.689v-.864l1.027-.31v1.173h1.154v.786zm-.475-1.726c.084-.064.162-.157.238-.276a.786.786 0 0 0 .037-.733.923.923 0 0 0-.178-.252l.717-.136a.77.77 0 0 1 .223.262.791.791 0 0 1 .107.407c0 .168-.033.317-.098.446s-.143.241-.232.335-.183.169-.28.224a1.841 1.841 0 0 1-.252.121l-.282-.398zM89.625 13.433h-1.049v-2.7c0-.832-.316-1.248-.949-1.248a.95.95 0 0 0-.758.343 1.217 1.217 0 0 0-.291.808v2.796h-1.047v-3.366c0-.414-.014-.863-.039-1.349h.922l.049.737h.029c.121-.229.303-.418.543-.569.283-.176.602-.265.949-.265.441 0 .807.142 1.098.427.361.349.543.87.543 1.562v2.824zM94.998 13.433h-.941l-.077-.543h-.029c-.324.433-.783.65-1.377.65-.447 0-.807-.143-1.078-.427a1.337 1.337 0 0 1-.367-.96c0-.576.24-1.015.723-1.319.48-.304 1.158-.453 2.031-.446V10.3c0-.621-.326-.931-.977-.931-.465 0-.875.117-1.23.349l-.213-.688c.439-.271.979-.407 1.617-.407 1.234 0 1.85.65 1.85 1.95v1.736c0 .471.023.846.068 1.124zm-1.086-1.62v-.727c-1.158-.02-1.736.297-1.736.95 0 .246.068.43.203.553a.728.728 0 0 0 .51.184c.232 0 .445-.073.643-.218a.898.898 0 0 0 .38-.742z"/></g></svg>
