<?xml version="1.0" encoding="utf-8"?>
<!-- This Source Code Form is subject to the terms of the Mozilla Public
   - License, v. 2.0. If a copy of the MPL was not distributed with this
   - file, You can obtain one at http://mozilla.org/MPL/2.0/. -->
<svg xmlns="http://www.w3.org/2000/svg" xmlns:xlink="http://www.w3.org/1999/xlink"
     width="47.203" height="26.109" viewBox="0 0 94.407 52.219">
  <path fill="#fff" d="M92.657,14.670 C92.270,21.197 93.816,28.994 85.124,40.236 C75.849,52.230 66.639,51.314 64.901,51.495 C54.468,52.578 53.093,43.491 46.999,43.491 C41.664,43.491 37.317,52.520 29.481,51.495 C27.749,51.268 18.533,52.230 9.259,40.236 C0.567,28.994 2.112,21.197 1.726,14.670 C1.340,8.142 -0.012,1.071 -0.012,1.071 C-0.012,1.071 4.176,5.241 9.585,5.604 C14.993,5.967 16.004,3.740 27.416,0.527 C39.755,-2.947 47.191,11.290 47.191,11.290 C47.191,11.290 55.571,-2.737 66.967,0.527 C78.363,3.791 78.836,5.967 84.245,5.604 C89.653,5.241 94.395,1.071 94.395,1.071 C94.395,1.071 93.043,8.142 92.657,14.670 ZM28.858,17.405 C22.113,15.942 19.283,18.441 16.393,19.507 C13.872,20.437 11.577,20.726 11.577,20.726 C11.577,20.726 11.963,24.533 18.724,27.797 C25.484,31.061 39.352,29.377 39.352,29.377 C39.352,29.377 40.824,20.000 28.858,17.405 ZM77.990,19.507 C75.100,18.441 72.270,15.942 65.525,17.405 C53.557,20.000 55.030,29.377 55.030,29.377 C55.030,29.377 68.899,31.061 75.659,27.797 C82.419,24.533 82.805,20.726 82.805,20.726 C82.805,20.726 80.511,20.437 77.990,19.507 Z"/>
</svg>
