<?xml version="1.0" encoding="utf-8"?>
<!-- This Source Code Form is subject to the terms of the Mozilla Public
   - License, v. 2.0. If a copy of the MPL was not distributed with this
   - file, You can obtain one at http://mozilla.org/MPL/2.0/. -->

<svg xmlns="http://www.w3.org/2000/svg" viewBox="0 0 32 32">
  <path fill="#ccc" d="M27.2,2.8L16,1L4.8,2.8C3.8,3,3,3.8,3,4.8c0,2.5,0,6.9,0.3,8.7C3.8,19,5,21.8,7.5,25.1C10.8,29.5,16,30,16,30
    s5.2-0.5,8.6-4.9c2.5-3.2,3.6-5.9,4.2-11.6C29,11.7,29,7.2,29,4.8C29,3.8,28.2,3,27.2,2.8z M26.8,13.3L26.8,13.3L26.8,13.3
    c-0.5,5.6-1.7,8-3.8,10.7c-2.4,3.1-6.1,3.9-7,4.1c-0.9-0.2-4.6-1-7-4.1c-2.1-2.8-3.3-5.2-3.8-10.6l0,0l0,0C5,11.5,5,7.2,5,4.8
    c0,0,0,0,0.1,0l0,0l0,0L16,3l10.8,1.8l0,0l0,0c0.1,0,0.1,0,0.1,0C27,7,27,11.5,26.8,13.3z M7.1,6.5L7.1,6.5L7.1,6.5
    C7,6.5,7,6.5,7.1,6.5C7,8.5,7,12.1,7.2,13.6l0,0l0,0c0.4,4.5,1.4,6.5,3.1,8.9c2,2.6,5,3.3,5.7,3.4v-21L7.1,6.5z"/>
</svg>
