<?xml version="1.0" encoding="UTF-8" standalone="no"?>
<!DOCTYPE svg PUBLIC "-//W3C//DTD SVG 1.1//EN" "http://www.w3.org/Graphics/SVG/1.1/DTD/svg11.dtd">
<!-- Created with Vectornator (http://vectornator.io/) -->
<svg height="100%" stroke-miterlimit="10" style="fill-rule:nonzero;clip-rule:evenodd;stroke-linecap:round;stroke-linejoin:round;" version="1.1" viewBox="0 0 256 256" width="100%" xml:space="preserve" xmlns="http://www.w3.org/2000/svg" xmlns:xlink="http://www.w3.org/1999/xlink">
<defs/>
<g id="レイヤー-1">
<path d="M128.017 21.6339C79.4571 21.6339 36.2684 49.4744 17.4368 90.838C1.07935 126.767 6.38678 171.416 30.2554 200.323C58.2287 234.202 89.9125 237.741 120.148 232.289C149.025 227.081 176.939 203.448 176.939 166.898C176.939 143.891 155.145 120.126 128.261 120.126C101.377 120.126 79.5827 143.891 79.5827 166.898C79.5827 189.904 101.377 203.447 128.261 203.447C130.719 203.447 133.081 203.224 135.441 203.001C131.155 205.979 126.307 208.48 121 210.221C97.3378 217.984 67.8721 215.331 45.2645 187.951C26.2039 164.867 21.8502 128.154 35.1638 98.9105C50.837 64.4841 87.0973 41.1051 128.017 41.1051C165.885 41.1051 202.147 60.9874 219.532 96.0709C229.262 115.705 231.256 139.257 224.725 161.016C217.894 183.774 202.223 203.105 178.683 216.347C177.153 217.207 176.57 219.133 177.385 220.687C179.297 224.331 181.483 228.498 183.429 232.208C184.278 233.824 186.298 234.437 187.892 233.546C215.979 217.851 235.064 194.333 243.385 166.614C251.336 140.124 248.896 111.445 236.975 87.39C216.109 45.2797 172.916 21.6339 128.017 21.6339ZM103.476 73.2733C93.7972 73.2733 85.9514 81.1191 85.9514 90.7974C85.9514 100.476 93.7972 108.322 103.476 108.322C113.154 108.322 121 100.476 121 90.7974C121 81.1191 113.154 73.2733 103.476 73.2733ZM153.006 73.2733C143.327 73.2733 135.481 81.1191 135.481 90.7974C135.481 100.476 143.327 108.322 153.006 108.322C162.684 108.322 170.53 100.476 170.53 90.7974C170.53 81.1191 162.684 73.2733 153.006 73.2733ZM64.3302 102.602C54.6518 102.602 46.806 110.448 46.806 120.126C46.806 129.804 54.6518 137.65 64.3302 137.65C74.0085 137.65 81.8543 129.804 81.8543 120.126C81.8543 110.448 74.0085 102.602 64.3302 102.602ZM191.705 102.602C182.026 102.602 174.181 110.448 174.181 120.126C174.181 129.804 182.026 137.65 191.705 137.65C201.383 137.65 209.229 129.804 209.229 120.126C209.229 110.448 201.383 102.602 191.705 102.602Z" fill="#19badc" fill-rule="nonzero" opacity="1" stroke="none"/>
</g>
</svg>
