<!-- This Source Code Form is subject to the terms of the Mozilla Public
   - License, v. 2.0. If a copy of the MPL was not distributed with this
   - file, You can obtain one at http://mozilla.org/MPL/2.0/. -->
<svg xmlns="http://www.w3.org/2000/svg" viewBox="0 0 20 20" width="20" height="20" fill="context-fill">
  <path d="M1.75 2v16H0V2h1.75zM20 2v16h-1.75V2H20zM14.064 12.996a.75.75 0 0 1-1.28-.53v-1.591H7.21v1.591a.75.75 0 0 1-1.28.53L3.464 10.53a.75.75 0 0 1 0-1.061L5.93 7.004a.75.75 0 0 1 1.28.53v1.591h5.574V7.533a.75.75 0 0 1 1.28-.53l2.466 2.466a.75.75 0 0 1 0 1.061l-2.466 2.466z"/>
</svg>
