<!-- This Source Code Form is subject to the terms of the Mozilla Public
   - License, v. 2.0. If a copy of the MPL was not distributed with this
   - file, You can obtain one at http://mozilla.org/MPL/2.0/. -->
<svg width="54" height="48" fill="none" xmlns="http://www.w3.org/2000/svg"><g clip-path="url(#a)"><path d="M33.5 8A20 20 0 0 0 17 16.74l.16.08.19.1.16.09.21.13.42.28c.55.36 1.15.77 1.95 1.28 1.45.75 2.53 1.21 3.52 1.72a9.942 9.942 0 0 1 2.88 2.14s.18.17.4.42c.45-.75.937-1.479 1.46-2.18l1-1.36.71-1c.24-.34.49-.68.74-1a.379.379 0 0 1 .12-.32 6.93 6.93 0 0 1 1.26-1.79 10.838 10.838 0 0 1 1.77-1.51A18.292 18.292 0 0 1 36 12.65c.7-.35 1.41-.67 2.12-1 .26-.1.55-.17.86-.27a4.47 4.47 0 0 1 1.21-.12 3.591 3.591 0 0 1 1.48.37 2.84 2.84 0 0 1 1.15 1.08c.072.114.132.234.18.36.061.117.108.242.14.37.083.26.137.528.16.8.035.504-.03 1.01-.19 1.49l-.12.31c0 .1-.1.2-.12.25-.02.05-.14.25-.21.36a5.015 5.015 0 0 1-.42.61 29.475 29.475 0 0 1-1.79 3.65l-.36.23a1 1 0 0 1-.21.6c0-.2-.13 0-.24 0l-.08.4c-.3-.05-.12 1.08-.42 1h-.26c-1.12 1.23-2.11 2.68-3.19 4.13a26.834 26.834 0 0 1-3.53 4.11c-.384.216-.79.39-1.21.52l-.33.1-.38.1a5.064 5.064 0 0 1-.81.15v.28c-.44.09-.5 0-.54-.08-.04-.08-.11-.18-.5-.33.073.145.16.282.26.41a3.111 3.111 0 0 1-.44-.08l-.41-.13c-.23-.08-.43-.17-.6-.24h.2c-.38-.18-.83-.32-.91-.15 0-.18.15-.24-.32-.49-.2.36-.91 0-1.58-.28 0 0-.19-.21 0-.18a3.6 3.6 0 0 1-1.78-1 3.87 3.87 0 0 0-1.74-1c-.86-.91-1.52-.81-2.49-1.8l-.08.21a7.832 7.832 0 0 0-1.7-1.16h.2l-.4-.28h.05c-.21-.08-.52-.41-.91-.57h.05a1.39 1.39 0 0 0-.7-.51l-.12-.34a3.378 3.378 0 0 1-1-.72A20 20 0 1 0 33.5 8Z" fill="#FF6682"/><path d="M27.44 24.64a1.93 1.93 0 0 1-1.07.38c-.21 0-.24-.28-.15-.63-.55-.19-1.3-.48-2.3-.87a3.45 3.45 0 0 0-1.66-1.22v.27a3.88 3.88 0 0 0-1.3-.76c-.33 0 .19.41-.37.28l-1.31-.77c.12-.08.57.22.53 0-.12 0-.79-.34-.81-.1l.09-.22c-.2 0-.24-.25-.47-.38-.23-.13-.26 0 0 .2-.5-.19-1.26-.33-1.53-.66-.44-.22-.2-.35-.25-.57-.14-.05-.39-.05-.43 0v-.05H16.18a.58.58 0 0 0-.45-.25 1.521 1.521 0 0 0-.33.05.68.68 0 0 1-.4-.1h.16c.05 0 .08 0 0-.17a.75.75 0 0 0-.33.1.202.202 0 0 0 .06-.09.364.364 0 0 0 0-.1.312.312 0 0 0-.11-.25.67.67 0 0 0-.35.27.999.999 0 0 0-.13.43c-.02.305.065.609.24.86-.1 0-.14 0-.15.05a.24.24 0 0 0 .06.13c.08.09.18.19.15.32a.09.09 0 0 1 .08-.06c0-.08 0-.11.18 0a.29.29 0 0 0 .16 0c0 .14-.06.17-.14.13.09.08.2.16 0 .18.02.037.048.071.08.1H15.08a.73.73 0 0 0 .26.09c.168.003.334.037.49.1a6 6 0 0 0 .66.61c.22.18.46.38.86.66h-.13c.18.2.1.45.54.75.43-.2.69 0 1 .33.325.41.73.75 1.19 1 0-.3.45.13.53-.07.76.86 1.77.94 2.7 1.79h-.07a1.76 1.76 0 0 0 1.31.65c-.25.08.23.45-.05.48.36-.09 1.24.56 1.24.56.06.32.88.51 1.23.92h.74l-.31.09c.32.14.3.32.14.33.12.11.22.08.45.15l-.18.11c.35.26.71-.05.38-.17.5 0 .59.08.64.19a.399.399 0 0 0 .1.15c.07 0 .1 0 .17-.05.042-.123.069-.25.08-.38v.13c0 .04 0 0 .07.12s.09.2.12 0l.09.16v-.07c0-.06 0-.11-.07-.18.11-.06.24-.15.4-.26.16-.11.34-.24.52-.36l1-.68c.32-.41-.25 0-.19-.25.19-.58.54-.48.94-.78h-.23l.73-.68v.21l.46-.49c0-.22-.14 0-.33.12.226-.26.405-.559.53-.88a1.51 1.51 0 0 1 .68-.76l.08.18s-.1 0-.12.11c-.23.74.47-.3.59-.25-.05-.3.49-.7.41-1.11 1.1-.77 1.19-1.93 1.91-2.6 0 .29.28-.2.39-.09.34-.3 0-.4.22-.7l.4-.17c.16-1 .61-.36.92-1.19a1.42 1.42 0 0 1 .45-.86c.265-.303.441-.674.51-1.07l.17.06c.15-.65.62-.8.74-1.33.23 0 0 .16.26.25.08-.56.29.29.26-.13.118-.15.191-.33.21-.52.005-.18-.037-.36-.12-.52-.16-.32-.41-.45-.43-.63-.18-.12-.17-.29-.23-.47s-.15-.28-.28-.07a.58.58 0 0 1 .15.11 1 1 0 0 0-.48-.1v-.17c-.18.07-1.21 0-1.56.43h-.07a1.491 1.491 0 0 1-.49.23.729.729 0 0 0-.38.34v-.08c-.15.197-.322.378-.51.54-.2.2-.45.39-.69.62-.52.442-1.001.927-1.44 1.45-.21-.14-.62.48-.92.94.11-.14 0-.22 0-.27-.24.76-1.22 1.09-1.42 1.94a2.117 2.117 0 0 0-.43.64c-.15.26-.33.49-.54.42a5.8 5.8 0 0 1-1.8 2.6v-.08c-.85.61-1.49 1-2 1.33a.283.283 0 0 1-.09.08Z" fill="#FBFBFE"/><path d="m27.58 24.55-.14.09a.28.28 0 0 0 .14-.09Z" fill="#424242"/><path d="m16.56 19.79-.14-.16s.01.08.14.16ZM12.61 22.69l-.09-.06.09.06ZM21.59 5.46h-.38s.11.03.38 0Z" fill="#202020"/><path d="M25.81 2.2c-5.07.6-6.46.39-11.68 1.29-2.5.31-5.15.78-7.59 1.17l-.46.15-.26.06-.35.13a7.77 7.77 0 0 0-1.56.53 5.55 5.55 0 0 0-1.42 1 4.42 4.42 0 0 0-.93 1.25c-.18.18-.35.37-.51.57a19.05 19.05 0 0 0-.5 2.08l-.05-.14c0 .26 0 .52.06.77s0 .25 0 .37a1.28 1.28 0 0 1 0 .17v.13c.03.267.08.53.15.79H.65l.15.85-.1-.14a22 22 0 0 1 .59 3.61l.2-.12c.1 2.42.66 3.24.68 5.43.218.6.376 1.22.47 1.85.08.58.1 1.11.16 1.71.036.606.12 1.207.25 1.8.09.3.18.62.3.94.126.344.277.678.45 1-.18-.34 0 .18-.11.17.52 1.25 1.19 2.58 1.59 2.38.44.89.25.79.17 1 .08 0 .24.11.44.36s.2.28.3.44c.1.16.23.32.33.48L6.27 34c.21.31.41.63.63.93.22.3.45.6.68.89v-.56c.62 1-.16.49.6 1.33l.21-.19c.233.292.45.595.65.91.187.28.367.56.54.84.36.61.774 1.186 1.24 1.72A20 20 0 0 0 15 42.74a23.79 23.79 0 0 0 4.77 1.82 32.648 32.648 0 0 0 9.72.91l.3.18c.08.16.49 0 .91-.22.42-.22.84-.4 1-.29l.67-.29c.21 0 .64-.06.31.11a3.13 3.13 0 0 0 1.08-.45h.74a14.5 14.5 0 0 0 3.5-1.6c1.06-.65 2.07-1.38 3.19-2.19.398-.236.78-.5 1.14-.79.426-.305.83-.639 1.21-1a17.999 17.999 0 0 0 2.32-2.69 21.998 21.998 0 0 0 1.83-3.09c.445-.937.83-1.903 1.15-2.89.34-1.22.71-2.46 1-3.76a28.83 28.83 0 0 0 .72-4 19.755 19.755 0 0 0 0-4.14 27.762 27.762 0 0 0-.64-3.72 1.071 1.071 0 0 0-.17-.55l-.58-4.45s-.18-1.34-.46-3.1c-.07-.44-.14-.91-.22-1.39v-.4a2.659 2.659 0 0 0-.11-.47c0-.15-.09-.3-.15-.45l-.23-.5A5.15 5.15 0 0 0 45.41.9a4.15 4.15 0 0 0-2.47-.28 1.41 1.41 0 0 0-.57.24c-.1.08-.1.17 0 .24.1.07.76.26 1.61.71.49.278.921.648 1.27 1.09.215.269.387.569.51.89.143.347.224.715.24 1.09l-.09-.06c.06.37.09 1 .15 1.52s.11 1 .18 1.43c.123.851.327 1.688.61 2.5-.38.32.24 2 .18 2.59.53 1.44.16 3.09.65 4.48 0-.05-.16-.06-.21-.39.1.52.22 1.13.29 1.62.07.49.06.84-.06.89.163 1.283.2 2.58.11 3.87 0 .65-.1 1.28-.14 1.84-.04.56-.07 1.05-.08 1.44v-.12a2.68 2.68 0 0 1-.12 1 8.917 8.917 0 0 0-.29 1.05c-.05 0-.08.1-.1.08a5.28 5.28 0 0 1-.54 1.77l-.42.87c-.122.22-.229.446-.32.68h-.17c-.29.55-.6 1.11-.94 1.64l.41-.58c.13.22-.13.49-.48.86-.206.195-.4.402-.58.62-.221.248-.41.524-.56.82a8.069 8.069 0 0 0-1 1.76 5.315 5.315 0 0 1-.53.9 2.57 2.57 0 0 1-.75.72c-.36.59.21-.64-.42.12-.18-.16.24-.41-.07-.39a4.23 4.23 0 0 1-1 .75c-.18.1-.37.2-.57.33-.2.13-.39.28-.62.47l-.14-.13a3.9 3.9 0 0 1-.88.66 5.43 5.43 0 0 1-.92.43c-.558.17-1.085.43-1.56.77a2 2 0 0 1-1.27.29 1.45 1.45 0 0 0-.49 0 2.803 2.803 0 0 0-.33.12l-.47.22-.66-.08c-.67.1-.41.41-1.18.44 0-.16-1 0-.55-.19a11.21 11.21 0 0 0-1.29.11l-1.34.17a7.8 7.8 0 0 1-3-.21c-.341.099-.7.12-1.05.06a2.452 2.452 0 0 0-1 0 5.365 5.365 0 0 0-1-.32 1.23 1.23 0 0 1-.37-.16c0-.05.09-.05.42-.05.11 0 .3.05.27.1l.19-.14a5.361 5.361 0 0 0-1.7-.52l-.86-.16a4.618 4.618 0 0 1-.86-.3c.32.2.79.37.43.36-.36-.01-.72-.3-1.07-.48h.28c-.25-.13-.52-.26-.77-.41l-.81-.54.12.28a6.417 6.417 0 0 1-.78-.68 2.31 2.31 0 0 0-1-.53c-.45-.12.55.65-.25.21a32.525 32.525 0 0 1-3.08-3c-.06.25-.32 0-.63-.3l.1-.16c-.61-.49-.62-.67-.63-.84-.01-.17 0-.36-.56-.89h.19L9.51 34c-.55-.46-.59-.67-.63-.89a.82.82 0 0 0-.15-.36 3.151 3.151 0 0 0-.57-.6c.33.51-.2.46-.51-.25l.25.1a2.84 2.84 0 0 1-.46-.7c.2.18.29 0 0-.53l.39.26c-.13-.14-.28-.29-.4-.44L7 30.1a2.58 2.58 0 0 0-.09-.35l-.12-.37c-.09-.25-.2-.5-.28-.74a2.37 2.37 0 0 1-.23-1.12l-.07-.3c0-.18-.11-.42-.16-.68a7.598 7.598 0 0 0-.21-.76 1.72 1.72 0 0 0-.23-.52c.23.35.12-.7.36-.43a4.999 4.999 0 0 1-.4-1.26 4.31 4.31 0 0 1-.12-1.4v.11c-.11-2.33-.84-3.9-.87-6-.2.12-.24-1-.47-.68a13.65 13.65 0 0 1-.33-2.86 5.35 5.35 0 0 0-.14-1.07 1.62 1.62 0 0 0-.18-.4l-.06-.09h-.06L3.25 11a1.41 1.41 0 0 1 0-.46c.025-.1.062-.198.11-.29.1-.15.18-.25.27-.41a.999.999 0 0 0 0 .17 2.74 2.74 0 0 1 .64-1.25c.28-.301.62-.54 1-.7a1 1 0 0 0 .25-.21l.23-.23a1.15 1.15 0 0 1 .35-.19c.232-.062.47-.1.71-.11-.37.21.13.11.58.05-.29.06-.37.13.24.16a1.19 1.19 0 0 1 .32-.15c.75-.16.61-.19.26-.16l-.14-.08c.82.09 2.19-.32 2.32-.07 2.27-.37 3.86-.87 5.73-1.24.23.1-.19.29-.73.42l1.33-.24c0 .2-.75.22-1.16.31 1.64.1 3.25-.77 5.17-.74l.36-.21h.12c0-.08.39-.25.66-.32.29.13 0 .4 1 .25a12.2 12.2 0 0 0 3-.6c-.52.05-.36-.07-.15-.16.46-.07.76.06 1.1-.06l.08.22c-.21-.19 1.18-.4 1.34-.52.29.13-.7.25-.8.39l2.79-.42c1-.31-.21-.19.23-.46a14 14 0 0 1 2.73-.45l-.35-.16a12.53 12.53 0 0 1 3.75-.45C48.6-.68 38.83.07 38.83.07 34 .29 31.54 1.23 25.81 2.2Z" fill="#FBFBFE"/></g><defs><clipPath id="a"><path fill="#fff" transform="translate(.5)" d="M0 0h53v48H0z"/></clipPath></defs></svg>
