<!-- This Source Code Form is subject to the terms of the Mozilla Public
   - License, v. 2.0. If a copy of the MPL was not distributed with this
   - file, You can obtain one at http://mozilla.org/MPL/2.0/. -->
<svg xmlns="http://www.w3.org/2000/svg" width="21" height="13" fill="context-fill">
  <path
     d="M 12.088127,11.897958 H 7.2016131 v -0.587043 q 0.6449206,-0.04134 1.0665998,-0.165364 0.4299469,-0.124023 0.4299469,-0.305924 0,-0.07441 -0.01654,-0.181901 -0.01654,-0.107486 -0.04961,-0.190168 L 7.656365,7.838266 H 3.547063 Q 3.315553,8.417041 3.166726,8.846988 3.026166,9.276935 2.910411,9.640736 2.802924,9.996269 2.761583,10.219511 q -0.04134,0.223242 -0.04134,0.363802 0,0.330728 0.520897,0.512629 0.520898,0.1819 1.174087,0.214973 v 0.587043 H 0 v -0.587043 q 0.214974,-0.01654 0.53743401,-0.09095 0.32246003,-0.08268 0.52916499,-0.214974 0.330729,-0.223241 0.51263,-0.46302 0.1819,-0.248046 0.355533,-0.677993 Q 2.819461,7.656365 3.88606,4.90305 4.95266,2.149735 5.787749,0 h 0.661457 l 3.910865,10.120293 q 0.124023,0.32246 0.281119,0.520897 0.157096,0.198437 0.438215,0.388606 0.190169,0.115755 0.496093,0.198437 0.305924,0.07441 0.512629,0.08268 z M 7.3587101,7.102395 5.5810441,2.554878 3.836451,7.102395 Z"
     />
  <path
     d="m 20.03388,11.749131 q -0.388606,0.140559 -0.686262,0.223241 -0.289387,0.09095 -0.661457,0.09095 -0.64492,0 -1.033526,-0.297656 -0.380338,-0.305924 -0.487825,-0.884699 H 17.1152 q -0.537434,0.595312 -1.15755,0.909504 -0.611848,0.314192 -1.48001,0.314192 -0.917772,0 -1.513083,-0.562239 -0.587043,-0.562238 -0.587043,-1.471742 0,-0.471288 0.132291,-0.843357 0.132291,-0.37207 0.396874,-0.669726 0.206706,-0.248046 0.545702,-0.438215 0.338997,-0.198437 0.636653,-0.314192 0.372069,-0.14056 1.504814,-0.520897 1.141014,-0.380338 1.537888,-0.595312 V 5.87043 q 0,-0.107487 -0.04961,-0.41341 -0.04134,-0.305924 -0.190169,-0.578775 -0.165364,-0.305924 -0.471288,-0.529166 -0.297656,-0.23151 -0.851626,-0.23151 -0.380338,0 -0.711066,0.132291 -0.322461,0.124024 -0.454752,0.264583 0,0.165365 0.07441,0.487825 0.08268,0.32246 0.08268,0.595311 0,0.289388 -0.264583,0.529166 -0.256315,0.239778 -0.719334,0.239778 -0.413411,0 -0.611848,-0.289387 -0.190169,-0.297656 -0.190169,-0.661458 0,-0.380337 0.264583,-0.727602 0.272851,-0.347265 0.702798,-0.620116 0.372069,-0.23151 0.901235,-0.388606 0.529166,-0.165364 1.033527,-0.165364 0.69453,0 1.207159,0.09922 0.520897,0.09095 0.942576,0.405143 0.421679,0.305923 0.636652,0.835089 0.223242,0.520897 0.223242,1.347719 0,1.182354 -0.02481,2.100126 -0.0248,0.909503 -0.0248,1.992639 0,0.32246 0.107487,0.512629 0.115755,0.190169 0.347265,0.322461 0.124023,0.07441 0.388607,0.08268 0.27285,0.0083 0.553969,0.0083 z M 17.148274,7.383514 q -0.702799,0.206705 -1.231964,0.405143 -0.529166,0.198437 -0.983918,0.496092 -0.41341,0.28112 -0.653188,0.669726 -0.239779,0.380337 -0.239779,0.909503 0,0.686262 0.355534,1.008722 0.363801,0.32246 0.917771,0.32246 0.587043,0 1.033527,-0.281119 0.446483,-0.289387 0.752407,-0.677993 z"
     />
</svg>
