<?xml version="1.0" encoding="UTF-8" standalone="no"?>
<!DOCTYPE svg PUBLIC "-//W3C//DTD SVG 1.1//EN" "http://www.w3.org/Graphics/SVG/1.1/DTD/svg11.dtd">
<!-- Created with Vectornator (http://vectornator.io/) -->
<svg height="210.0pt" stroke-miterlimit="10" style="fill-rule:nonzero;clip-rule:evenodd;stroke-linecap:round;stroke-linejoin:round;" version="1.1" viewBox="0 0 570 210" width="570.0pt" xml:space="preserve" xmlns="http://www.w3.org/2000/svg" xmlns:vectornator="http://vectornator.io" xmlns:xlink="http://www.w3.org/1999/xlink">
<defs>
<path d="M49.3659 150C49.3659 138.954 58.3207 130 69.3669 130C80.4132 130 89.368 138.954 89.368 150C89.368 161.046 80.4132 170 69.3669 170C58.3207 170 49.3659 161.046 49.3659 150Z" id="Fill"/>
<path d="M129.37 150C129.37 138.954 138.325 130 149.371 130C160.418 130 169.372 138.954 169.372 150C169.372 161.046 160.418 170 149.371 170C138.325 170 129.37 161.046 129.37 150Z" id="Fill_2"/>
<path d="M230.746 150C230.746 138.954 239.701 130 250.747 130C261.793 130 270.748 138.954 270.748 150C270.748 161.046 261.793 170 250.747 170C239.701 170 230.746 161.046 230.746 150Z" id="Fill_3"/>
</defs>
<path d="M0 0L570 0L570 210L0 210L0 0Z" fill="#ececec" fill-rule="nonzero" opacity="1" stroke="none" vectornator:artboardBackground="true"/>
<g id="レイヤー-1" vectornator:layerName="レイヤー 1">
<path d="M85 5C76.7122 5 70 11.7168 70 20C70 30.9531 70 210 70 210L405 210L405 20C405 11.7157 398.284 5 390 5C390 5 160 5 85 5Z" fill="#d1d1d1" fill-rule="nonzero" opacity="1" stroke="none" vectornator:layerName="曲線 3"/>
<path d="M85 10C79.4772 10 75 14.4772 75 20L75 100L0 100L0 210L570 210L570 100L395 100L395 20C395 14.4772 390.523 10 385 10L85 10Z" fill="#ffffff" fill-rule="nonzero" opacity="1" stroke="none" vectornator:layerName="曲線 6"/>
<path d="M134.992 54.9318C134.992 52.208 137.2 50 139.924 50L330.06 50C332.784 50 334.992 52.208 334.992 54.9318L334.992 55.0682C334.992 57.792 332.784 60 330.06 60L139.924 60C137.2 60 134.992 57.792 134.992 55.0682L134.992 54.9318Z" fill="#262626" fill-rule="nonzero" opacity="1" stroke="none" vectornator:layerName="長方形 3"/>
<g opacity="1" vectornator:layerName="楕円形 2">
<mask height="40" id="StrokeMask" maskUnits="userSpaceOnUse" width="40.0022" x="49.3659" y="130">
<rect fill="#000000" height="40" stroke="none" width="40.0022" x="49.3659" y="130"/>
<use fill="#ffffff" fill-rule="evenodd" stroke="none" xlink:href="#Fill"/>
</mask>
<use fill="none" mask="url(#StrokeMask)" stroke="#262626" stroke-linecap="butt" stroke-linejoin="round" stroke-width="10" xlink:href="#Fill"/>
</g>
<g opacity="1" vectornator:layerName="楕円形 3">
<mask height="40" id="StrokeMask_2" maskUnits="userSpaceOnUse" width="40.0022" x="129.37" y="130">
<rect fill="#000000" height="40" stroke="none" width="40.0022" x="129.37" y="130"/>
<use fill="#ffffff" fill-rule="evenodd" stroke="none" xlink:href="#Fill_2"/>
</mask>
<use fill="none" mask="url(#StrokeMask_2)" stroke="#262626" stroke-linecap="butt" stroke-linejoin="round" stroke-width="10" xlink:href="#Fill_2"/>
</g>
<path d="M219.375 110C213.852 110 209.375 114.477 209.375 120L209.375 180C209.375 185.523 213.852 190 219.375 190L570 190L570 110L219.375 110Z" fill="#ececec" fill-rule="nonzero" opacity="1" stroke="none" vectornator:layerName="曲線 4"/>
<g opacity="1" vectornator:layerName="楕円形 4">
<mask height="40" id="StrokeMask_3" maskUnits="userSpaceOnUse" width="40.0022" x="230.746" y="130">
<rect fill="#000000" height="40" stroke="none" width="40.0022" x="230.746" y="130"/>
<use fill="#ffffff" fill-rule="evenodd" stroke="none" xlink:href="#Fill_3"/>
</mask>
<use fill="none" mask="url(#StrokeMask_3)" stroke="#262626" stroke-linecap="butt" stroke-linejoin="round" stroke-width="10" xlink:href="#Fill_3"/>
</g>
<path d="M297.125 145C294.369 145 292.125 147.244 292.125 150C292.125 152.756 294.369 155 297.125 155L570 155L570 145L297.125 145Z" fill="#262626" fill-rule="nonzero" opacity="1" stroke="none" vectornator:layerName="曲線 5"/>
<path d="M459.938 50C457.214 50 455 52.2138 455 54.9375L455 55.0625C455 57.7862 457.214 60 459.938 60L570 60L570 50L459.938 50Z" fill="#929194" fill-rule="nonzero" opacity="1" stroke="none" vectornator:layerName="曲線 2"/>
</g>
</svg>
