<!-- This Source Code Form is subject to the terms of the Mozilla Public
   - License, v. 2.0. If a copy of the MPL was not distributed with this
   - file, You can obtain one at http://mozilla.org/MPL/2.0/. -->
<svg width="680" height="92" fill="none" xmlns="http://www.w3.org/2000/svg">
  <rect width="680" height="92" fill="rgb(247,227,255)"/>
  <g filter="url(#filter0_dd)">
    <rect x="28" y="5" width="166" height="34" rx="4" fill="color-mix(in srgb, rgb(247,227,255) 60%, white)"/>
  </g>
  <rect x="51" y="20" width="121" height="4" rx="2" fill="color-mix(in srgb, rgb(247,227,255) 15%, black)"/>
  <rect x="221" y="20" width="121" height="4" rx="2" fill="color-mix(in srgb, rgb(247,227,255) 15%, black)"/>
  <rect y="44" width="680" height="48" fill="color-mix(in srgb, rgb(247,227,255) 60%, white)"/>
  <circle cx="24" cy="68" r="6.25" stroke-width="1.5" stroke="color-mix(in srgb, rgb(247,227,255) 15%, black)"/>
  <circle cx="60" cy="68" r="6.25" stroke-width="1.5" stroke="color-mix(in srgb, rgb(247,227,255) 15%, black)"/>
  <rect x="114" y="52" width="488" height="32" rx="4" fill="rgb(247,227,255)"/>
  <circle cx="130" cy="68" r="6.25" stroke-width="1.5" stroke="color-mix(in srgb, rgb(247,227,255) 15%, black)"/>
  <rect x="146" y="66" width="308" height="4" rx="2" fill="color-mix(in srgb, rgb(247,227,255) 15%, black)"/>
  <mask id="mask0" mask-type="alpha" maskUnits="userSpaceOnUse" x="0" y="0" width="680" height="92">
    <path d="M680 92V0H334C321.85 0 312 9.84974 312 22C312 34.1503 302.15 44 290 44H252C238.745 44 228 54.7452 228 68C228 81.2548 217.255 92 204 92H680Z" fill="#C4C4C4"/>
  </mask>
  <g mask="url(#mask0)">
    <rect width="680" height="92" fill="rgb(150,43,185)"/>
    <rect x="221" y="20" width="121" height="4" rx="2" fill="color-mix(in srgb, rgb(150,43,185) 10%, white)"/>
    <rect y="44" width="680" height="48" fill="color-mix(in srgb, rgb(150,43,185) 85%, white)"/>
    <line x1="663" y1="73.75" x2="649" y2="73.75" stroke-width="1.5" stroke="color-mix(in srgb, rgb(150,43,185) 10%, white)"/>
    <line x1="663" y1="67.75" x2="649" y2="67.75" stroke-width="1.5" stroke="color-mix(in srgb, rgb(150,43,185) 10%, white)"/>
    <line x1="663" y1="61.75" x2="649" y2="61.75" stroke-width="1.5" stroke="color-mix(in srgb, rgb(150,43,185) 10%, white)"/>
    <rect x="114" y="52" width="488" height="32" rx="4" fill="rgb(150,43,185)"/>
    <rect x="146" y="66" width="308" height="4" rx="2" fill="color-mix(in srgb, rgb(150,43,185) 10%, white)"/>
  </g>
  <defs>
    <filter id="filter0_dd" x="24" y="1" width="174" height="42" filterUnits="userSpaceOnUse" color-interpolation-filters="sRGB">
      <feFlood flood-opacity="0" result="BackgroundImageFix"/>
      <feColorMatrix in="SourceAlpha" type="matrix" values="0 0 0 0 0 0 0 0 0 0 0 0 0 0 0 0 0 0 127 0"/>
      <feOffset/>
      <feGaussianBlur stdDeviation="2"/>
      <feColorMatrix type="matrix" values="0 0 0 0 0.501961 0 0 0 0 0.501961 0 0 0 0 0.556863 0 0 0 0.5 0"/>
      <feBlend mode="normal" in2="BackgroundImageFix" result="effect1_dropShadow"/>
      <feColorMatrix in="SourceAlpha" type="matrix" values="0 0 0 0 0 0 0 0 0 0 0 0 0 0 0 0 0 0 127 0"/>
      <feOffset/>
      <feGaussianBlur stdDeviation="0.5"/>
      <feColorMatrix type="matrix" values="0 0 0 0 0.501961 0 0 0 0 0.501961 0 0 0 0 0.556863 0 0 0 0.9 0"/>
      <feBlend mode="normal" in2="effect1_dropShadow" result="effect2_dropShadow"/>
      <feBlend mode="normal" in="SourceGraphic" in2="effect2_dropShadow" result="shape"/>
    </filter>
  </defs>
</svg>
