<!-- This Source Code Form is subject to the terms of the Mozilla Public
   - License, v. 2.0. If a copy of the MPL was not distributed with this
   - file, You can obtain one at http://mozilla.org/MPL/2.0/. -->
<svg xmlns="http://www.w3.org/2000/svg" viewBox="0 0 16 16" width="16" height="16" fill="context-fill" fill-opacity="context-fill-opacity">
  <path d="M7.3 6h1.5c.1 0 .2-.1.2-.3V2c0-.5-.4-1-1-1s-1 .4-1 1v3.8c0 .1.1.2.3.2z"/>
  <path d="M13.5 3H11c-.6 0-1 .4-1 1s.4 1 1 1h2.5c.3 0 .5.2.5.5v7c0 .3-.2.5-.5.5h-11c-.3 0-.5-.3-.5-.5v-7c0-.3.2-.5.5-.5H5c.6 0 1-.4 1-1s-.4-1-1-1H2.5C1.1 3 0 4.1 0 5.5v7C0 13.8 1.1 15 2.5 15h11c1.4 0 2.5-1.1 2.5-2.5v-7C16 4.1 14.9 3 13.5 3z"/>
  <path d="M3.6 7h2.8c.3 0 .6.2.6.5v2.8c0 .4-.3.7-.6.7H3.6c-.3 0-.6-.3-.6-.6V7.5c0-.3.3-.5.6-.5zM9.5 8h3c.3 0 .5-.3.5-.5s-.2-.5-.5-.5h-3c-.3 0-.5.2-.5.5s.2.5.5.5zM9.5 9c-.3 0-.5.2-.5.5s.2.5.5.5h2c.3 0 .5-.2.5-.5s-.2-.5-.5-.5h-2z"/>
</svg>
