<?xml version="1.0"?>
<svg xmlns="http://www.w3.org/2000/svg" xmlns:xlink="http://www.w3.org/1999/xlink" viewBox="0 0 36 36">
  <style>
    use:not(:target) {
      display: none;
    }
    use {
      fill: #ccc;
    }
    use[id$="-hover"] {
      fill: #444;
    }
    use[id$="-active"] {
      fill: #0095dd;
    }
    use[id$="-white"] {
      fill: #fff;
    }
  </style>
  <defs>
    <g id="blue" transform="translate(-2588 -413) translate(2588 413)" fill="none">
      <path d="M18 36c9.941 0 18-8.059 18-18s-8.059-18-18-18-18 8.059-18 18 8.059 18 18 18zm-12.021-5.979c3.076 3.076 7.326 4.979 12.021 4.979 9.389 0 17-7.611 17-17s-7.611-17-17-17-17 7.611-17 17c0 4.694 1.903 8.944 4.979 12.021z" fill="#4A90E2"/><path d="M5.979 30.021c3.076 3.076 7.326 4.979 12.021 4.979 9.389 0 17-7.611 17-17s-7.611-17-17-17-17 7.611-17 17c0 4.694 1.903 8.944 4.979 12.021z" fill="#4A90E2"/><path d="M30.779 29.212c-3.116 3.548-7.686 5.788-12.779 5.788-4.694 0-8.944-1.903-12.021-4.979l-.181-.183c2.676-4.187 7.364-6.962 12.701-6.962 5.066 0 9.549 2.501 12.279 6.337z" fill-opacity=".7" fill="#fff"/><path d="M18 35c9.389 0 17-7.611 17-17s-7.611-17-17-17v34z" fill-opacity=".1" fill="#000"/><ellipse fill-opacity=".7" fill="#fff" cx="18.5" cy="12.932" rx="8.002" ry="8.002"/>
    </g>
    <g id="orange" transform="translate(-2638 -317) translate(2638 317)" fill="none">
      <path d="M18 36c9.941 0 18-8.059 18-18s-8.059-18-18-18-18 8.059-18 18 8.059 18 18 18zm-12.021-5.979c3.076 3.076 7.326 4.979 12.021 4.979 9.389 0 17-7.611 17-17s-7.611-17-17-17-17 7.611-17 17c0 4.694 1.903 8.944 4.979 12.021z" fill="#F3A35C"/><path d="M5.979 30.021c3.076 3.076 7.326 4.979 12.021 4.979 9.389 0 17-7.611 17-17s-7.611-17-17-17-17 7.611-17 17c0 4.694 1.903 8.944 4.979 12.021z" fill="#F3A35C"/><path d="M30.779 29.212c-3.116 3.548-7.686 5.788-12.779 5.788-4.694 0-8.944-1.903-12.021-4.979l-.181-.183c2.676-4.187 7.364-6.962 12.701-6.962 5.066 0 9.549 2.501 12.279 6.337z" fill-opacity=".7" fill="#fff"/><path d="M18 35c9.389 0 17-7.611 17-17s-7.611-17-17-17v34z" fill-opacity=".1" fill="#000"/><ellipse fill-opacity=".7" fill="#fff" cx="18.5" cy="12.932" rx="8.002" ry="8.002"/>
    </g>
    <g id="mintgreen" transform="translate(-2588 -317) translate(2588 317)" fill="none">
      <path d="M18 36c9.941 0 18-8.059 18-18s-8.059-18-18-18-18 8.059-18 18 8.059 18 18 18zm-12.021-5.979c3.076 3.076 7.326 4.979 12.021 4.979 9.389 0 17-7.611 17-17s-7.611-17-17-17-17 7.611-17 17c0 4.694 1.903 8.944 4.979 12.021z" fill="#50E2C2"/><path d="M5.979 30.021c3.076 3.076 7.326 4.979 12.021 4.979 9.389 0 17-7.611 17-17s-7.611-17-17-17-17 7.611-17 17c0 4.694 1.903 8.944 4.979 12.021z" fill="#50E2C2"/><path d="M30.779 29.212c-3.116 3.548-7.686 5.788-12.779 5.788-4.694 0-8.944-1.903-12.021-4.979l-.181-.183c2.676-4.187 7.364-6.962 12.701-6.962 5.066 0 9.549 2.501 12.279 6.337z" fill-opacity=".7" fill="#fff"/><path d="M18 35c9.389 0 17-7.611 17-17s-7.611-17-17-17v34z" fill-opacity=".1" fill="#000"/><ellipse fill-opacity=".7" fill="#fff" cx="18.5" cy="12.932" rx="8.002" ry="8.002"/>
    </g>
    <g id="lightpink" transform="translate(-2687 -366) translate(2687 366)" fill="none">
      <path d="M18 36c9.941 0 18-8.059 18-18s-8.059-18-18-18-18 8.059-18 18 8.059 18 18 18zm-12.021-5.979c3.076 3.076 7.326 4.979 12.021 4.979 9.389 0 17-7.611 17-17s-7.611-17-17-17-17 7.611-17 17c0 4.694 1.903 8.944 4.979 12.021z" fill="#E364A1"/><path d="M5.979 30.021c3.076 3.076 7.326 4.979 12.021 4.979 9.389 0 17-7.611 17-17s-7.611-17-17-17-17 7.611-17 17c0 4.694 1.903 8.944 4.979 12.021z" fill="#E364A1"/><path d="M30.779 29.212c-3.116 3.548-7.686 5.788-12.779 5.788-4.694 0-8.944-1.903-12.021-4.979l-.181-.183c2.676-4.187 7.364-6.962 12.701-6.962 5.066 0 9.549 2.501 12.279 6.337z" fill-opacity=".7" fill="#fff"/><path d="M18 35c9.389 0 17-7.611 17-17s-7.611-17-17-17v34z" fill-opacity=".1" fill="#000"/><ellipse fill-opacity=".7" fill="#fff" cx="18.5" cy="12.932" rx="8.002" ry="8.002"/>
    </g>
    <g id="grey" transform="translate(-2736 -366) translate(2736 366)" fill="none">
      <path d="M18 36c9.941 0 18-8.059 18-18s-8.059-18-18-18-18 8.059-18 18 8.059 18 18 18zm-12.021-5.979c3.076 3.076 7.326 4.979 12.021 4.979 9.389 0 17-7.611 17-17s-7.611-17-17-17-17 7.611-17 17c0 4.694 1.903 8.944 4.979 12.021z" fill="#9B9B9B"/><path d="M5.979 30.021c3.076 3.076 7.326 4.979 12.021 4.979 9.389 0 17-7.611 17-17s-7.611-17-17-17-17 7.611-17 17c0 4.694 1.903 8.944 4.979 12.021z" fill="#9B9B9B"/><path d="M30.779 29.212c-3.116 3.548-7.686 5.788-12.779 5.788-4.694 0-8.944-1.903-12.021-4.979l-.181-.183c2.676-4.187 7.364-6.962 12.701-6.962 5.066 0 9.549 2.501 12.279 6.337z" fill-opacity=".7" fill="#fff"/><path d="M18 35c9.389 0 17-7.611 17-17s-7.611-17-17-17v34z" fill-opacity=".1" fill="#000"/><ellipse fill-opacity=".7" fill="#fff" cx="18.5" cy="12.932" rx="8.002" ry="8.002"/>
    </g>
    <g id="yellow" transform="translate(-2732 -317) translate(2732 317)" fill="none">
      <path d="M18 36c9.941 0 18-8.059 18-18s-8.059-18-18-18-18 8.059-18 18 8.059 18 18 18zm-12.021-5.979c3.076 3.076 7.326 4.979 12.021 4.979 9.389 0 17-7.611 17-17s-7.611-17-17-17-17 7.611-17 17c0 4.694 1.903 8.944 4.979 12.021z" fill="#F3E968"/><path d="M5.979 30.021c3.076 3.076 7.326 4.979 12.021 4.979 9.389 0 17-7.611 17-17s-7.611-17-17-17-17 7.611-17 17c0 4.694 1.903 8.944 4.979 12.021z" fill="#F3E968"/><path d="M30.779 29.212c-3.116 3.548-7.686 5.788-12.779 5.788-4.694 0-8.944-1.903-12.021-4.979l-.181-.183c2.676-4.187 7.364-6.962 12.701-6.962 5.066 0 9.549 2.501 12.279 6.337z" fill-opacity=".7" fill="#fff"/><path d="M18 35c9.389 0 17-7.611 17-17s-7.611-17-17-17v34z" fill-opacity=".1" fill="#000"/><ellipse fill-opacity=".7" fill="#fff" cx="18.5" cy="12.932" rx="8.002" ry="8.002"/>
    </g>
    <g id="purple" transform="translate(-2588 -366) translate(2588 366)" fill="none">
      <path d="M18 36c9.941 0 18-8.059 18-18s-8.059-18-18-18-18 8.059-18 18 8.059 18 18 18zm-12.021-5.979c3.076 3.076 7.326 4.979 12.021 4.979 9.389 0 17-7.611 17-17s-7.611-17-17-17-17 7.611-17 17c0 4.694 1.903 8.944 4.979 12.021z" fill="#9C61AF"/><path d="M5.979 30.021c3.076 3.076 7.326 4.979 12.021 4.979 9.389 0 17-7.611 17-17s-7.611-17-17-17-17 7.611-17 17c0 4.694 1.903 8.944 4.979 12.021z" fill="#9C61AF"/><path d="M30.779 29.212c-3.116 3.548-7.686 5.788-12.779 5.788-4.694 0-8.944-1.903-12.021-4.979l-.181-.183c2.676-4.187 7.364-6.962 12.701-6.962 5.066 0 9.549 2.501 12.279 6.337z" fill-opacity=".7" fill="#fff"/><path d="M18 35c9.389 0 17-7.611 17-17s-7.611-17-17-17v34z" fill-opacity=".1" fill="#000"/><ellipse fill-opacity=".7" fill="#fff" cx="18.5" cy="12.932" rx="8.002" ry="8.002"/>
    </g>
    <g id="lightgreen" transform="translate(-2686 -317) translate(2686 317)" fill="none">
      <path d="M18 36c9.941 0 18-8.059 18-18s-8.059-18-18-18-18 8.059-18 18 8.059 18 18 18zm-12.021-5.979c3.076 3.076 7.326 4.979 12.021 4.979 9.389 0 17-7.611 17-17s-7.611-17-17-17-17 7.611-17 17c0 4.694 1.903 8.944 4.979 12.021z" fill="#9AC967"/><path d="M5.979 30.021c3.076 3.076 7.326 4.979 12.021 4.979 9.389 0 17-7.611 17-17s-7.611-17-17-17-17 7.611-17 17c0 4.694 1.903 8.944 4.979 12.021z" fill="#9AC967"/><path d="M30.779 29.212c-3.116 3.548-7.686 5.788-12.779 5.788-4.694 0-8.944-1.903-12.021-4.979l-.181-.183c2.676-4.187 7.364-6.962 12.701-6.962 5.066 0 9.549 2.501 12.279 6.337z" fill-opacity=".7" fill="#fff"/><path d="M18 35c9.389 0 17-7.611 17-17s-7.611-17-17-17v34z" fill-opacity=".1" fill="#000"/><ellipse fill-opacity=".7" fill="#fff" cx="18.5" cy="12.932" rx="8.002" ry="8.002"/>
    </g>
    <g id="darkblue" transform="translate(-2686 -413) translate(2686 413)" fill="none">
      <path d="M18 36c9.941 0 18-8.059 18-18s-8.059-18-18-18-18 8.059-18 18 8.059 18 18 18zm-12.021-5.979c3.076 3.076 7.326 4.979 12.021 4.979 9.389 0 17-7.611 17-17s-7.611-17-17-17-17 7.611-17 17c0 4.694 1.903 8.944 4.979 12.021z" fill="#607CAE"/><path d="M5.979 30.021c3.076 3.076 7.326 4.979 12.021 4.979 9.389 0 17-7.611 17-17s-7.611-17-17-17-17 7.611-17 17c0 4.694 1.903 8.944 4.979 12.021z" fill="#607CAE"/><path d="M30.779 29.212c-3.116 3.548-7.686 5.788-12.779 5.788-4.694 0-8.944-1.903-12.021-4.979l-.181-.183c2.676-4.187 7.364-6.962 12.701-6.962 5.066 0 9.549 2.501 12.279 6.337z" fill-opacity=".7" fill="#fff"/><path d="M18 35c9.389 0 17-7.611 17-17s-7.611-17-17-17v34z" fill-opacity=".1" fill="#000"/><ellipse fill-opacity=".7" fill="#fff" cx="18.5" cy="12.932" rx="8.002" ry="8.002"/>
    </g>
    <g id="darkpink" transform="translate(-2638 -413) translate(2638 413)" fill="none">
      <path d="M18 36c9.941 0 18-8.059 18-18s-8.059-18-18-18-18 8.059-18 18 8.059 18 18 18zm-12.021-5.979c3.076 3.076 7.326 4.979 12.021 4.979 9.389 0 17-7.611 17-17s-7.611-17-17-17-17 7.611-17 17c0 4.694 1.903 8.944 4.979 12.021z" fill="#CE4D6E"/><path d="M5.979 30.021c3.076 3.076 7.326 4.979 12.021 4.979 9.389 0 17-7.611 17-17s-7.611-17-17-17-17 7.611-17 17c0 4.694 1.903 8.944 4.979 12.021z" fill="#CE4D6E"/><path d="M30.779 29.212c-3.116 3.548-7.686 5.788-12.779 5.788-4.694 0-8.944-1.903-12.021-4.979l-.181-.183c2.676-4.187 7.364-6.962 12.701-6.962 5.066 0 9.549 2.501 12.279 6.337z" fill-opacity=".7" fill="#fff"/><path d="M18 35c9.389 0 17-7.611 17-17s-7.611-17-17-17v34z" fill-opacity=".1" fill="#000"/><ellipse fill-opacity=".7" fill="#fff" cx="18.5" cy="12.932" rx="8.002" ry="8.002"/>
    </g>
    <g id="brown" transform="translate(-2736 -413) translate(2736 413)" fill="none">
      <path d="M18 36c9.941 0 18-8.059 18-18s-8.059-18-18-18-18 8.059-18 18 8.059 18 18 18zm-12.021-5.979c3.076 3.076 7.326 4.979 12.021 4.979 9.389 0 17-7.611 17-17s-7.611-17-17-17-17 7.611-17 17c0 4.694 1.903 8.944 4.979 12.021z" fill="#8A572A"/><path d="M5.979 30.021c3.076 3.076 7.326 4.979 12.021 4.979 9.389 0 17-7.611 17-17s-7.611-17-17-17-17 7.611-17 17c0 4.694 1.903 8.944 4.979 12.021z" fill="#8A572A"/><path d="M30.779 29.212c-3.116 3.548-7.686 5.788-12.779 5.788-4.694 0-8.944-1.903-12.021-4.979l-.181-.183c2.676-4.187 7.364-6.962 12.701-6.962 5.066 0 9.549 2.501 12.279 6.337z" fill-opacity=".7" fill="#fff"/><path d="M18 35c9.389 0 17-7.611 17-17s-7.611-17-17-17v34z" fill-opacity=".1" fill="#000"/><ellipse fill-opacity=".7" fill="#fff" cx="18.5" cy="12.932" rx="8.002" ry="8.002"/>
    </g>
    <g id="green" transform="translate(-2638 -366) translate(2637.857 366)" fill="none">
      <path d="M18 36c9.941 0 18-8.059 18-18s-8.059-18-18-18-18 8.059-18 18 8.059 18 18 18zm-12.021-5.979c3.076 3.076 7.326 4.979 12.021 4.979 9.389 0 17-7.611 17-17s-7.611-17-17-17-17 7.611-17 17c0 4.694 1.903 8.944 4.979 12.021z" fill="#56B397"/><path d="M5.979 30.021c3.076 3.076 7.326 4.979 12.021 4.979 9.389 0 17-7.611 17-17s-7.611-17-17-17-17 7.611-17 17c0 4.694 1.903 8.944 4.979 12.021z" fill="#56B397"/><path d="M30.779 29.212c-3.116 3.548-7.686 5.788-12.779 5.788-4.694 0-8.944-1.903-12.021-4.979l-.181-.183c2.676-4.187 7.364-6.962 12.701-6.962 5.066 0 9.549 2.501 12.279 6.337z" fill-opacity=".7" fill="#fff"/><path d="M18 35c9.389 0 17-7.611 17-17s-7.611-17-17-17v34z" fill-opacity=".1" fill="#000"/><ellipse fill-opacity=".7" fill="#fff" cx="18.5" cy="12.932" rx="8.002" ry="8.002"/>
    </g>
  </defs>
  <use id="blue-avatar" xlink:href="#blue"/>
  <use id="orange-avatar" xlink:href="#orange"/>
  <use id="mintgreen-avatar" xlink:href="#mintgreen"/>
  <use id="lightpink-avatar" xlink:href="#lightpink"/>
  <use id="grey-avatar" xlink:href="#grey"/>
  <use id="yellow-avatar" xlink:href="#yellow"/>
  <use id="purple-avatar" xlink:href="#purple"/>
  <use id="lightgreen-avatar" xlink:href="#lightgreen"/>
  <use id="darkblue-avatar" xlink:href="#darkblue"/>
  <use id="darkpink-avatar" xlink:href="#darkpink"/>
  <use id="brown-avatar" xlink:href="#brown"/>
  <use id="green-avatar" xlink:href="#green"/>
</svg>
