<svg xmlns="http://www.w3.org/2000/svg" viewBox="0 0 50 50"><path fill="#ffffff" d="M47.3,38.6c0-0.9-0.4-1.9-1.1-2.6l-11-11l11-11c0.7-0.7,1.1-1.6,1.1-2.6c0-0.9-0.4-1.9-1.1-2.6l-5.1-5.1 c-0.7-0.7-1.6-1.1-2.6-1.1c-0.9,0-1.9,0.4-2.6,1.1l-11,11l-11-11c-0.7-0.7-1.6-1.1-2.6-1.1c-0.9,0-1.9,0.4-2.6,1.1L3.8,8.9 c-0.7,0.7-1.1,1.6-1.1,2.6c0,0.9,0.4,1.9,1.1,2.6l11,11l-11,11c-0.7,0.7-1.1,1.6-1.1,2.6c0,0.9,0.4,1.9,1.1,2.6l5.1,5.1 c0.7,0.7,1.6,1.1,2.6,1.1c0.9,0,1.9-0.4,2.6-1.1l11-11l11,11c0.7,0.7,1.6,1.1,2.6,1.1c0.9,0,1.9-0.4,2.6-1.1l5.1-5.1 C46.9,40.5,47.3,39.5,47.3,38.6z"/></svg>