<svg xmlns="http://www.w3.org/2000/svg" viewBox="0 0 310 310"><path fill="#383F44" d="M260.4,88.5h-200c-5.5,0-10,4.5-10,10v21h220v-21C270.4,93,265.9,88.5,260.4,88.5z"/><path fill="#D6DCE5" d="M50.4 119.5H270.4V150.5H50.4z"/><path fill="#71C4EA" d="M60.4,237.5h200c5.5,0,10-4.5,10-10v-77h-220v77C50.4,233,54.9,237.5,60.4,237.5z"/><path fill="#D6DCE5" fill-rule="evenodd" d="M128.4,110.4c-0.8-4.2-2.1-12-12.6-12H90 c-10.4,0-11.8,7.8-12.6,12c-1.2,6.6-3.8,10.1-10.7,10.1c4.6,0,67.8,0,72.5,0C132.3,120.5,129.7,117,128.4,110.4z" clip-rule="evenodd"/><path fill="#FFF" d="M66.4 126.5H240.4V143.5H66.4z"/><circle cx="67.9" cy="135" r="10.5" fill="#383F44"/><path fill="#FFF" d="M246.4 128c0 .8.7 1.5 1.5 1.5h14c.8 0 1.5-.7 1.5-1.5 0-.8-.7-1.5-1.5-1.5h-14C247.1 126.5 246.4 127.1 246.4 128 246.4 128 246.4 127.1 246.4 128zM246.4 135c0 .8.7 1.5 1.5 1.5h14c.8 0 1.5-.7 1.5-1.5s-.7-1.5-1.5-1.5h-14C247.1 133.5 246.4 134.1 246.4 135 246.4 135 246.4 134.1 246.4 135zM246.4 142c0 .8.7 1.5 1.5 1.5h14c.8 0 1.5-.7 1.5-1.5s-.7-1.5-1.5-1.5h-14C247.1 140.5 246.4 141.1 246.4 142 246.4 142 246.4 141.1 246.4 142z"/><path fill="#FFF" fill-rule="evenodd" d="M71.6,133.5h-4.4l2-2c0.3-0.3,0.4-0.8,0.1-1l-0.9-0.9 c-0.2-0.2-0.7-0.2-1,0.1l-4.6,4.7c-0.1,0.1-0.1,0.1-0.1,0.2l0,0c0,0,0,0,0,0c0,0,0,0.1-0.1,0.1c0,0.1-0.1,0.1-0.1,0.2 c0,0,0,0.1,0,0.1c0,0,0,0.1,0,0.1c0,0.1,0,0.1,0.1,0.2c0,0,0,0.1,0.1,0.1c0,0,0,0,0,0l0,0c0,0.1,0.1,0.1,0.1,0.2l4.6,4.7 c0.3,0.3,0.8,0.4,1,0.1l0.9-0.9c0.2-0.2,0.2-0.7-0.1-1l-2-2h4.5c0.4,0,0.7-0.3,0.7-0.7v-1.5C72.3,133.9,72,133.5,71.6,133.5z" clip-rule="evenodd"/><path fill="#CE7C32" d="M174.9,207.4l19.7-4.1c7-2,9.6-3.8,9.6-3.8c2.4-1.6,4.3-4.2,4.9-7.3c1.2-6.2-2.8-12.2-9-13.5l-20.6-4.2 c0,0,0,0,0,0l-2.3-0.5c-0.4-0.1-0.8,0.2-0.9,0.6l-0.3,1.5c0,0,0,0.1,0,0.1c0,0.1,0,0.1-0.1,0.2c-0.3,1.4,0.6,2.8,2,3l3.6,0.7 c1.2,0.2,2,1.4,1.7,2.6c-0.2,1.2-1.4,2-2.6,1.7l-21.2-4.2c-1.4-0.3-2.7,0.6-3,2c-0.3,1.4,0.6,2.8,2,3l17.4,3.5 c0.2,0.1,0.4,0.2,0.3,0.4c0,0.2-0.1,0.3-0.4,0.3l-16,3.6c-1.4,0.3-2.3,1.6-2,3c0.3,1.4,1.7,2.3,3.1,2l16.1-3.5 c0.3,0,0.5,0.1,0.5,0.4c0,0.3-0.1,0.5-0.4,0.6l-11,2.4c-1.4,0.3-2.3,1.7-2,3.1c0.3,1.4,1.7,2.3,3.1,2l11-2.4c0.2,0,0.5,0.1,0.5,0.3 c0,0.2-0.1,0.5-0.3,0.5l-4.5,0.9c-1.4,0.3-2.3,1.7-2,3.1C172.1,206.8,173.5,207.7,174.9,207.4z"/><path fill="#0283B1" d="M279.6,111.1c1.9,14.3,1.2,27.4-1.9,38.9c-2.9,10.5-7.9,19.7-14.9,27.4c-24.5,27-64.6,26.1-66.3,26.1 l0.8-25.2l0,0c0.3,0,30.5,0.5,47-17.9c9.5-10.6,13-26.1,10.4-46L279.6,111.1z"/><path fill="#CE7C32" d="M261.9,91.3l-36.5-9.9c-5.2-1.4-9.2-4.9-11.6-9.3C199,72.8,189.8,86.9,189.7,87c-5.5,26,10.1,52,36.1,59.1 c22.1,6,44.7-3.7,56.1-22.2C286.8,97.4,261.9,91.3,261.9,91.3z"/><path fill="#383F44" d="M252.2,48.9c-2.8-0.8-5.6-1.3-8.3-1.5c1.6-1.7,3.6-3.1,5.9-4.3c-4.5-1.1-9.7-0.7-14.7,1.2 c-1.6,0.6-3.2,1.3-4.7,2.2c-5-1.4-10.1-1.4-14.4-0.1c2.3,1,4.3,2.3,6.1,3.8c-1,0.4-2,0.7-2.9,1.1c-1.5,0.7-3,1.4-4.4,2.2 c-9.6,5.3-17.5,13.8-22,24.4c-0.9,2.1-1.6,4.2-2.2,6.4c-0.2,0.9-0.5,1.8-0.7,2.7c0.1-0.2,9.3-14.3,24.2-14.9 c-0.3-0.6-0.6-1.2-0.9-1.9c0.7,1.8,1.7,3.5,2.9,5c0,0,0,0,0,0.1c0.2,0.3,0.5,0.6,0.7,0.9c0.5,0.6,0.9,1.1,1.4,1.7c1,1.1,2,2,3,3 c2.1,1.8,4.3,3.4,6.7,4.6c4.7,2.5,9.8,3.6,14.4,3.1c-1.6-1.1-3.1-2.4-4.3-3.8l24,6.5c0,0,24.8,6.1,19.9,32.6 c2.5-4,4.4-8.4,5.7-13.2C294.9,83.8,279,56.2,252.2,48.9z"/><circle cx="189.3" cy="93.9" r="6.8" fill="#CE7C32"/><path fill="#CE7C32" d="M290.5,121.4c1-3.6-1.2-7.4-4.8-8.4c-3.6-1-7.4,1.2-8.4,4.8c-1,3.6,1.2,7.4,4.8,8.4 C285.8,127.2,289.5,125,290.5,121.4z"/><path fill="#FFF" d="M215.7,118.8c-2.5,9.1,3,18.3,12.1,20.8c9.1,2.5,18.4-2.7,20.9-11.8L215.7,118.8z"/><path fill="#383F44" fill-rule="evenodd" d="M281,106.3c0.2-1,0.1-1.2-0.9-1.5c-1.2-0.4-2.4-0.8-3.6-1.3 c-1.7-0.7-3.4-1.4-5.1-2.1c-0.7-0.3-1.4-0.5-2.1-0.8c-1.2-0.5-2.5-0.9-3.7-1.3c-0.6-0.2-1.2-0.4-1.9-0.7c-1.5-0.6-3.1-0.8-4.7-1 c-1.1-0.2-2.1-0.4-3.2-0.5c-1.5-0.2-3-0.3-4.4-0.4c-1.8-0.1-3.6-0.2-5.5-0.2c-2.1-0.1-4.2-0.5-6.2-1c-2-0.6-3.9-1.2-5.8-2.2 c-1.6-0.9-3.2-1.7-4.8-2.6c-1.3-0.7-2.7-1.3-4-1.9c-1-0.4-2-0.8-3-1.2c-1.5-0.6-3-1.2-4.6-1.5c-0.6-0.1-1.3-0.2-1.9-0.4 c-1.3-0.2-2.6-0.5-3.9-0.7c-0.7-0.1-1.5-0.3-2.2-0.4c-1.8-0.3-3.6-0.5-5.5-0.8c-1.3-0.2-2.5-0.5-3.8-0.7c-1-0.2-1.2,0-1.5,0.9 c-0.1,0.2-0.2,0.5-0.3,0.7c-0.3,1-0.6,2-0.9,3c-0.1,0.4-0.1,0.8,0.3,1.1c1.1,0.7,1.5,1.7,1.4,3c-0.2,1.5-0.3,3.1-0.4,4.6 c-0.2,2.4-0.3,4.8,0,7.2c0.3,2.1,0.9,4,2.4,5.5c1,1,2.1,1.9,3.3,2.6c2,1.3,4.2,2.2,6.6,2.7c6.6,1.4,13.3-0.1,17.9-5.1 c1.9-2,3.5-4.3,5-6.6c2-2.9,6.4-1.8,6.7,1.8c0.2,2.8,0.4,5.5,1,8.2c1.4,6.7,6.5,11.4,12.9,13.5c2.3,0.8,4.7,1.1,7,1 c1.4,0,2.8-0.3,4.2-0.6c2.1-0.5,3.6-1.9,4.9-3.6c1.5-1.9,2.7-4,3.7-6.2c0.7-1.4,1.3-2.8,2-4.2c0.5-1.2,1.4-1.8,2.7-1.9 c0.5,0,0.7-0.4,0.9-0.8c0.3-1,0.5-2.1,0.8-3.1C280.9,106.8,281,106.5,281,106.3z M229.9,105.2c-1,1.7-2.1,3.2-3.6,4.6 c-3.6,3.3-8.6,4.5-13.3,3.6c-1.6-0.3-3.3-0.7-4.9-1.3c-1.1-0.4-2.1-0.9-3-1.7c-0.4-0.3-0.8-0.6-1.1-0.9c-0.3-0.3-0.6-0.6-0.9-0.8 c-1.8-1.6-2.5-3.7-2.5-6c0-4.1,0.7-8.1,2.3-11.9c0.3-0.8,0.8-1.5,1.2-2.1c0.8-1.2,2-1.6,3.4-1.8c2-0.3,4-0.2,6,0.1 c3,0.4,6,1.1,8.9,2.2c2.8,1,5.4,2.4,7.7,4.3c0.5,0.4,0.9,0.9,1.2,1.3c0.2,0.2,0.3,0.4,0.4,0.7c0.1,0.3,0.2,0.6,0.3,0.9 c0.1,0.3,0.2,0.6,0.3,0.9c0.2,0.6,0,1.3,0,1.9C231.9,101.5,230.9,103.3,229.9,105.2z M269.9,121.5c-1.2,2-2.8,3.4-5.2,3.9 c-0.4,0.1-0.8,0.2-1.2,0.3c-0.5,0.1-0.9,0.1-1.4,0.2c-1.1,0.2-2.3,0.1-3.4-0.1c-1.6-0.2-3.3-0.7-4.9-1.3c-4.5-1.7-8.3-5.2-9.7-9.9 c-0.6-1.9-0.8-3.8-0.7-5.8c0-2.1,0.1-4.3,0.8-6.3c0.3-0.6,0.5-1.2,1-1.7c0.2-0.2,0.5-0.4,0.7-0.6c0.2-0.2,0.5-0.5,0.7-0.7 c0.2-0.1,0.5-0.2,0.7-0.3c0.6-0.2,1.2-0.4,1.8-0.5c2.9-0.5,5.9-0.3,8.8,0.2c3,0.5,6,1.4,8.8,2.6c1.9,0.8,3.7,1.7,5.3,2.9 c1.1,0.8,1.9,1.8,2,3.2c0,0.8,0.1,1.7,0,2.5C273.4,114.2,272,118,269.9,121.5z" clip-rule="evenodd"/><circle cx="257.5" cy="112" r="3" fill="#383F44" fill-rule="evenodd" clip-rule="evenodd"/><circle cx="217.4" cy="101.1" r="3" fill="#383F44" fill-rule="evenodd" clip-rule="evenodd"/><path fill="#DB5527" d="M122.7,259.8c8.9,8.3,20.6,10.2,23.1,7.7c2.5-2.5,0.6-14.2-7.8-23c-4.6-4.3-9.9-6.9-14.4-8l-9,9.1 C115.7,249.9,118.3,255.2,122.7,259.8z"/><path fill="#009BDE" d="M114.8,236.7c-1.2,1.2-1.4,4.6-0.3,8.7l9-9.1C119.4,235.3,116,235.5,114.8,236.7z"/><path fill="#F2D1BB" d="M101.5,211.1c-28.9,8.8-48.2,5.2-60.2-0.4c0,0-20.3,22.9-6.6,48.5c13.6,13.1,33.9,18.1,52.8,11.2 c13.5-5,23.6-15.1,29-27.3C119.8,218.8,101.5,211.1,101.5,211.1z"/><path fill="#F2D1BB" d="M115.7,205.8c-1.3-3.5-3-6.8-4.9-9.8c-12.1-18.6-35.9-27.1-57.6-19.1c-7.4,2.7-13.8,7.1-18.8,12.5 c-2.3,2.4-4.3,5.1-6,7.9c-0.4,0.7-0.8,1.4-1.2,2.1c-0.4,0.7-0.8,1.4-1.1,2.1c-4,8.3-5.6,17.8-4.4,27.2c0.2,1.5,0.4,2.9,0.8,4.4 c0.5,2.1,1.1,4.2,1.8,6.3c2.6,7.1,6.7,13.3,11.8,18.2c0,0,0,0.1,0.1,0.1c13,12.6,32.6,17.4,50.7,10.7c13-4.8,22.7-14.5,27.8-26.2 c0-0.1,0-0.2,0-0.2c3-7,4.4-14.7,3.9-22.6C118.3,214.8,117.4,210.3,115.7,205.8z"/><path fill="#DB5527" d="M112.5,194.9c-12.6-19.4-37.4-28.2-60-19.9c-7.7,2.8-14.3,7.4-19.6,13c-2.4,2.5-4.4,5.3-6.2,8.3 c-0.4,0.7-0.8,1.5-1.2,2.2c-0.4,0.7-0.8,1.4-1.2,2.2c-4.2,8.7-5.9,18.5-4.6,28.4c0.2,1.5,0.5,3,0.8,4.5c0.5,2.2,1.1,4.4,1.9,6.6 c2.7,7.4,7,13.8,12.3,19c-13.7-25.6,6.6-48.5,6.6-48.5c11.9,5.5,31.2,9.1,60.2,0.4c0,0,18.3,7.7,15,31.9 c3.2-7.3,4.7-15.5,4.1-23.7c-0.3-4.7-1.3-9.5-3-14.2C116.2,201.4,114.5,198,112.5,194.9z"/><g fill="#383F44"><path d="M48.9,252.1c-1.6-1.6-2.1-4.1-1.6-6.4c0.5-2.4,2-4.5,4-5.8c2-1.4,4.5-2,6.8-1.7c2.3,0.3,4.5,1.7,5.5,3.6 c-4.3-0.2-6.9,0.9-9.2,2.5c-1.1,0.8-2.1,1.8-3,3C50.4,248.5,49.6,250,48.9,252.1z"/><path d="M52.9,240.1c0,0-5.3,6.7-10.3,5.4c0,0,4,2.5,8.2,1.2L52.9,240.1z"/></g><g fill="#383F44"><path d="M105.6,231.2c0.2-2.2-1-4.5-2.9-5.9c-1.9-1.5-4.4-2.2-6.8-1.9c-2.4,0.2-4.7,1.4-6.3,3.2 c-1.6,1.8-2.3,4.2-1.8,6.3c3.2-3,5.8-3.8,8.6-4.1c1.4-0.1,2.8,0,4.3,0.3C102.1,229.5,103.7,230.1,105.6,231.2z"/><path d="M94.9,224.7c0,0,8.3,1.7,11.4-2.6c0,0-1.4,4.5-5.4,6.2L94.9,224.7z"/></g><path fill="#FFF" d="M72.1 256.5c1.7 4.5 6.7 6.8 11.2 5.2 4.5-1.7 6.8-6.7 5.2-11.2L72.1 256.5zM141.4 36.6c19.3 0 35 13.6 35 30.3 0 8.3-3.9 15.9-10.2 21.4 1.1 3.8 3.3 8.9 7.5 14-.7 1.3-12.8-3.2-21.2-6.6-3.5 1-7.2 1.6-11.1 1.6-19.3 0-35-13.6-35-30.3C106.4 50.1 122.1 36.6 141.4 36.6z"/><path fill="#0283B1" d="M150.4,50.2l-8.6-2.3l-5.3,24.8l6.1,1.6L150.4,50.2z M133.1,84.3c0.6,0.9,1.6,1.6,3,2 c1.4,0.4,2.5,0.3,3.5-0.3c1-0.6,1.6-1.5,2-2.8c0.4-1.4,0.3-2.5-0.3-3.5c-0.6-0.9-1.5-1.6-2.9-2c-1.4-0.4-2.6-0.3-3.6,0.2 c-0.9,0.5-1.6,1.5-2,2.9C132.5,82.2,132.6,83.3,133.1,84.3z"/></svg>