<svg xmlns="http://www.w3.org/2000/svg" xmlns:xlink="http://www.w3.org/1999/xlink" viewBox="0 0 310 310"><defs><path id="a" d="M155,63.5c55.2,0,100,44.8,100,100s-44.8,100-100,100c-55.2,0-100-44.8-100-100S99.8,63.5,155,63.5z"/></defs><clipPath id="b"><use xlink:href="#a" overflow="visible"/></clipPath><path fill="#FFF" fill-rule="evenodd" d="M155,63.5c55.2,0,100,44.8,100,100 s-44.8,100-100,100c-55.2,0-100-44.8-100-100S99.8,63.5,155,63.5z" clip-path="url(#b)" clip-rule="evenodd"/><g fill="#E7C1A8" clip-path="url(#b)"><path d="M80.3 199.7H123.3V254.7H80.3z" transform="rotate(71.16 101.822 227.175)"/><path d="M84.6,163c7.1-1,13.8,1.9,15,11.4l3,22.5c0.1,0.9,1.5,1.5,2.4,1.4c0.9-0.1,1.6-1,1.4-1.9l-10-74.2l0,0 l-0.5-3.5c-0.5-3.4,2-6.6,5.4-7.1c3.5-0.5,6.7,1.9,7.1,5.4l0.5,3.5l5.8,42.7l3-0.4l-7-51.6l0,0l-0.5-3.5c-0.5-3.4,2-6.6,5.4-7.1 c3.5-0.5,6.7,1.9,7.1,5.4l0.5,3.5l0,0l7,51.6l4.1-0.6l-5.8-42.7l-0.5-3.5c-0.5-3.4,2-6.6,5.4-7.1c3.5-0.5,6.7,1.9,7.1,5.4 l0.5,3.5l0,0l5.8,42.7l3.9-0.5L147,130l0,0l-0.5-3.5c-0.5-3.4,2-6.6,5.4-7.1c3.5-0.5,6.7,1.9,7.1,5.4l0.5,3.5c0,0,0,0,0,0 c1.2,9.3,8.9,65.7,9.1,67.8c2.9,21.5-12.3,41.3-33.9,44.2c-21.6,2.9-41.5-12.2-44.4-33.7C90.1,205.1,84.6,163,84.6,163z"/></g><g clip-path="url(#b)"><defs><path id="c" d="M84.6,163c7.1-1,13.8,1.9,15,11.4l3,22.5c0.1,0.9,1.5,1.5,2.4,1.4c0.9-0.1,1.6-1,1.4-1.9l-10-74.2l0,0 l-0.5-3.5c-0.5-3.4,2-6.6,5.4-7.1c3.5-0.5,6.7,1.9,7.1,5.4l0.5,3.5l5.8,42.7l3-0.4l-7-51.6l0,0l-0.5-3.5c-0.5-3.4,2-6.6,5.4-7.1 c3.5-0.5,6.7,1.9,7.1,5.4l0.5,3.5l0,0l7,51.6l4.1-0.6l-5.8-42.7l-0.5-3.5c-0.5-3.4,2-6.6,5.4-7.1c3.5-0.5,6.7,1.9,7.1,5.4 l0.5,3.5l0,0l5.8,42.7l3.9-0.5L147,130l0,0l-0.5-3.5c-0.5-3.4,2-6.6,5.4-7.1c3.5-0.5,6.7,1.9,7.1,5.4l0.5,3.5c0,0,0,0,0,0 c1.2,9.3,8.9,65.7,9.1,67.8c2.9,21.5-12.3,41.3-33.9,44.2c-21.6,2.9-41.5-12.2-44.4-33.7C90.1,205.1,84.6,163,84.6,163z"/></defs><clipPath id="d"><use xlink:href="#c" overflow="visible"/></clipPath><path fill="#F4D2BB" d="M104.7,196.9c-0.2,0-0.3,0.1-0.5,0.1l-6.4-47.6L78,152.1l7.1,52.8 c-12,8.9-19,23.9-16.8,39.8c3.1,23.3,24.5,39.6,47.8,36.4s39.6-24.5,36.4-47.8S127.9,193.8,104.7,196.9z" clip-path="url(#d)"/></g><path fill="#CE7C32" d="M215.7,212.9c0.8-2.7,1.4-5.5,1.6-8.5c0.2-2,4.4-58.9,5.1-68.2c0,0,0,0,0,0 l0.3-3.6c0.3-3.5-2.4-6.5-5.8-6.7c-3.5-0.3-6.5,2.3-6.8,5.8l-0.3,3.6l0,0l-2.1,28.5l-3.9-0.3l3.2-43l0,0l0.3-3.6 c0.3-3.5-2.4-6.5-5.8-6.7c-3.5-0.3-6.5,2.3-6.8,5.8l-0.3,3.6l-3.2,43l-4.1-0.3l3.9-52l0,0l0.3-3.6c0.3-3.5-2.4-6.5-5.8-6.7 c-3.5-0.3-6.5,2.3-6.8,5.8l-0.3,3.6l0,0l-3.9,52l-3-0.2l3.2-43l0.3-3.6c0.3-3.5-2.4-6.5-5.8-6.7c-3.5-0.3-6.5,2.3-6.8,5.8 l-0.3,3.6l0,0l-5.6,74.7c-0.1,0.9-0.9,1.6-1.8,1.6c-0.9-0.1-2.1-0.9-2.1-1.8l1.7-22.7c0.7-9.6-5.2-13.7-12.4-14.3 c0,0-3.3,42.3-3.4,43.9c-1.5,19.8,12.1,37.2,31,41.3l0,0.1l50.6,21.6l16.9-39.6L215.7,212.9z" clip-path="url(#b)"/><g fill="#71C4EA"><path d="M153.8,79.4c0,1.5,1.2,2.6,2.6,2.6c1.5,0,2.6-1.2,2.6-2.6V49.1c0-1.5-1.2-2.6-2.6-2.6 c-1.5,0-2.6,1.2-2.6,2.6V79.4z"/><path d="M174.7,86.4c-0.8,1.2-0.6,2.8,0.6,3.7c1.2,0.8,2.8,0.6,3.7-0.6l17.5-24.7c0.8-1.2,0.6-2.8-0.6-3.7 c-1.2-0.8-2.8-0.6-3.7,0.6L174.7,86.4z"/><path d="M138.1,86.4c0.8,1.2,0.6,2.8-0.6,3.7c-1.2,0.8-2.8,0.6-3.7-0.6l-17.5-24.7c-0.8-1.2-0.6-2.8,0.6-3.7 c1.2-0.8,2.8-0.6,3.7,0.6L138.1,86.4z"/></g></svg>