<svg xmlns="http://www.w3.org/2000/svg" xmlns:xlink="http://www.w3.org/1999/xlink" viewBox="0 0 310 310"><path fill="#71C4EA" d="M265.5,53.9c0-2.6-2.1-3.7-4.7-3.7h-79.6c-2.6,0-4.7,2.1-4.7,4.7V64h89V53.9z"/><circle cx="184.1" cy="56.9" r="1.6" fill="#FFF"/><circle cx="190.2" cy="56.9" r="1.6" fill="#FFF"/><circle cx="196.3" cy="56.9" r="1.6" fill="#FFF"/><path fill="#FFF" d="M181.2,118h79.6c2.6,0,4.7-2.1,4.7-4.7V64h-89v49.3C176.5,115.9,178.6,118,181.2,118z"/><path fill="#D6DCE5" d="M176.5 64H265.5V73H176.5z"/><path fill="#06A6E0" fill-rule="evenodd" d="M153.5,59.9c55.2,0,100,44.8,100,100s-44.8,100-100,100 c-55.2,0-100-44.8-100-100S98.3,59.9,153.5,59.9z" clip-rule="evenodd"/><path fill="none" d="M153.5,59.9c55.2,0,100,44.8,100,100s-44.8,100-100,100 c-55.2,0-100-44.8-100-100S98.3,59.9,153.5,59.9z" clip-rule="evenodd"/><defs><path id="a" d="M153.5,59.9c55.2,0,100,44.8,100,100s-44.8,100-100,100c-55.2,0-100-44.8-100-100S98.3,59.9,153.5,59.9z"/></defs><clipPath id="b"><use xlink:href="#a" overflow="visible"/></clipPath><g clip-path="url(#b)"><path fill="#0283B1" d="M259.4,134.6L259.4,134.6C259.4,134.6,259.4,134.6,259.4,134.6c0-0.1,0-0.2-0.1-0.2h0 c-4.3-13.9-11.2-26.9-20.1-38.1l-2.2,0.8l-1.8,3.9L223,98l-6.8,5.9l1.8,3.4l-11.2-6.9l5.5-5.8l9.7-3.4l-1.5-3.4L210.3,92 l-7.3,7.5l6.3,7.2l-9.4,0l-14.2,9.3l-4.8-5l7.3,0.7l3.3-5.1l-18.5-4.3l-12.4,3l-11.2,15.1l-0.4,5.8l6.8-0.8l1.5,3.9l6.4-1.8 l0.4-5.1l-2.3-1.9l6.4-8.3l2.9,3l-5,3.9l2,4.3l6.8-2.4l1.9,2.4l-10.8,4.1l-0.4,2.8l-9.9,0.5l-1.9-2.9l-2.9,1.4l1.5,3.9l-1.6,1.6 l-4,3.6l-2.9,0.4l-5,3.9l2.9,3l-1.4,3.4l-7.9-0.5l4,11l11.2-10.4l2,1.1l3.3-3l5.9,4.4l1.4,5.8l3.4-4.8l-5.3-7.3l1.2-1.3l6.6,7.6 l1,5.8l5.5,4l-1-7.9l5.8,7.9l4.4-5.9v5.9l-2,2l-10.7-0.5l-3-2.5l-3.9,3.4l-7.9-2.5l0.5-2.5l-2.5-2.8l-9.8,0.9l-17.7,15.3 l0.4,15.1l8,7l13.7,0.4l6.8,4.4l-2.9,1.9l7,8.3v5.8l-2.6,3.4l8.3,22.6l9.4,0.5l11.7-14.2l0.5-5.5l4.5-3.4l-0.6-7.3l-1.8-1.9 l15.2-22.1l-8.4,0.6l-5.5-4.1l-7.2-14.6l0.4-4h2.9l10.8,20.7l10.3-3.9l4.4-5.5l-4.4-4.3l-4,1.4l-3.9-6.4l23.6,4.3l-0.4,6.6 l2.8,0.9l4,11.2l6.5-1.8v-5.9l8.2-6.4l1.1-4.5h2.4v5l8.4,18.2l-5.9-0.4l9.9,10.8c0.6-1.9,1.2-3.8,1.7-5.7l-1.8-0.2l-1-3l3.4,0.9 c0.3-1,0.5-2.1,0.7-3.1l-4.1-2.7l-1.5-6.4l1.5-0.4l3,5.7l2.1-1.2c0.5-2.9,0.9-5.9,1.2-8.9c0-0.3,0.1-0.6,0.1-0.9 c0.3-3.5,0.5-7,0.5-10.5C264.5,156.8,262.7,145.4,259.4,134.6z M181.9,149.5h-3l-3.9,3l-0.9-3.4l4.4-5.5l2.5,3.2l2.9-0.3 l-0.2-2.6l3.3,0.6l3.6,5.7L181.9,149.5z M201.7,157.9l-0.6-10.4l2.8-2.2l1.4,1.5l-2.7,3.7l3.2,6.4L201.7,157.9z M211.9,150.8 l-0.3-4l2.5-0.3l0.5,4L211.9,150.8z M192.3,219.7l-1.8,6.4l6.4,4.4l4.4-14.1l-2.6-1.6L192.3,219.7z M130.3,134.4l-0.2,0.4l0,0 l-0.3,0.5l3.3,3l3-3.3l-0.5-0.6h0l-3-3.8L130.3,134.4L130.3,134.4z M86.9,200.7l-0.9-7h-7.4l-0.6-6l-9.2-0.3l-4.8-1.8l-6.8,2.9 h-7l-1-5.9l-3.9-0.4l1-5.5l-2.6-1.4l-3.9,2.4H38l-4.1-3.9l4.1-7.3h10.8l2.9,4.4h3.4l-2-6.5l7-5.9l-0.6-3.9l2.9-2.9l3,0.4v-5.3 l17.2-9.8l-2.1-2.5h0l-10-12.1l-15.2-2.5l0,7.3l1.4,1.5l-1.9,5.8h-0.1l-0.5,1.5l-1.3-1.5h-0.1l-5-5.8l-6.4-1.9 c-1,2.5-1.9,5.1-2.7,7.8h0c-3.3,10.8-5.1,22.3-5.1,34.2c0,4.9,0.3,9.7,0.9,14.4l6.5,3.7l3.9-0.4l3,5.9h6.8v5l-2.9,4.4l6.8,17 l6.5,3l-3.8,22c3.1,3.6,6.4,7,9.9,10.2l29.1-31.1l1.1-8.8l3.9-4.5L92,200.7H86.9z M155.8,156.2l3,1.1l-1.2-4L155.8,156.2z M76.3,182.5l-13.9-5.9l-0.9,2.5l12.3,4.4L76.3,182.5z M50.5,176.6l7.5,1.6l1-3l-7.8-2.3L50.5,176.6z M58.1,167.7v3.4l3.9,1.9 L58.1,167.7z M126.9,110.6l-9.8,2.5l5.3,7.9l8.8-6.3L126.9,110.6z M138.8,134.8l-1.4,2.7h6.9l0.3-2.6l0.2-1.7l-4.3-3.5l-2-4.8 l-3.3,3.4l4.5,4.9L138.8,134.8z M123.5,83.7l5.8-4.9l-10.7-8.8l-36.4,4.4c-6.4,4.5-12.2,9.7-17.5,15.4l2.4,3.3l6.5-2l5.9,4.4 l2.9,15.2l7.3,11.3l6.4,0.4l3.5-8.4l14.1-4.3l8.9-13.7L123.5,83.7z M50.9,112.5l1.9-5.5l4.5,0l-1.6,8l12.8,2.3l6.8-7.3 L58.8,96.4c-5,6.3-9.4,13.1-13,20.3l6.5,0.6L50.9,112.5z"/></g><g fill="none" stroke="#F5C825" stroke-width="4" stroke-miterlimit="10" stroke-linecap="round"><path d="M128.5 57L128.5 57"/><path d="M117,53.3c-22.1-6-41.2-4-52.7,7.5c-25.5,25.5-4.4,87.8,47,139.3s113.8,72.5,139.3,47c11.6-11.6,13.6-30.9,7.3-53.4" stroke-dasharray="0,12.1246"/><path d="M256.2 187.9L256.2 187.9"/></g><path fill="#7DC14C" d="M166.5,172.1c0-3.5-2.9-5.1-6.4-5.1H50.9c-3.5,0-6.4,2.9-6.4,6.4V186h122V172.1z"/><circle cx="54.6" cy="176.2" r="2.2" fill="#FFF"/><circle cx="62.9" cy="176.2" r="2.2" fill="#FFF"/><circle cx="71.3" cy="176.2" r="2.2" fill="#FFF"/><path fill="#FFF" d="M50.9,260h109.2c3.5,0,6.4-2.9,6.4-6.4V186h-122v67.6C44.5,257.1,47.4,260,50.9,260z"/><path fill="#D6DCE5" d="M44.5 186H166.5V199H44.5z"/></svg>