<svg xmlns="http://www.w3.org/2000/svg" x="0px" y="0px" xmlns:xlink="http://www.w3.org/1999/xlink" viewBox="0 0 310 310"><path fill="#A3D189" fill-rule="evenodd" d="M142.5,55c55.2,0,100,44.8,100,100s-44.8,100-100,100 c-55.2,0-100-44.8-100-100S87.3,55,142.5,55z" clip-rule="evenodd"/><defs><path id="a" d="M267.5,66h-79.4c-13.7-7-29.2-11-45.6-11c-55.2,0-100,44.8-100,100c0,55.2,44.8,100,100,100 c20.7,0,39.9-6.3,55.8-17h69.2V66z"/></defs><clipPath id="b"><use xlink:href="#a" overflow="visible"/></clipPath><g clip-path="url(#b)"><path fill="#D6DCE5" d="M14.5 111H234.5V142H14.5z"/><path fill="#383F44" d="M234.5,90c0-5.5-4.5-10-10-10h-200c-5.5,0-10,4.5-10,10v21h220V90z"/><path fill="#FFF" d="M14.5,219c0,5.5,4.5,10,10,10h200c5.5,0,10-4.5,10-10v-77h-220V219z"/><path fill="#D6DCE5" fill-rule="evenodd" d="M92.5,101c-0.8-4.2-2.1-12-12.6-12H54.1 c-10.4,0-11.8,7.8-12.6,12c-1.2,6.6-3.8,10.1-10.7,10.1c4.6,0,67.8,0,72.5,0C96.3,111.1,93.7,107.6,92.5,101z" clip-rule="evenodd"/><path fill="#FFF" d="M29.5 118H165.5V135H29.5z"/><circle cx="32" cy="126.5" r="10.5" fill="#41484E"/><path fill="#FFF" d="M210.5 119.5c0 .8.7 1.5 1.5 1.5h14c.8 0 1.5-.7 1.5-1.5 0-.8-.7-1.5-1.5-1.5h-14C211.2 118 210.5 118.7 210.5 119.5 210.5 119.5 210.5 118.7 210.5 119.5zM210.5 126.5c0 .8.7 1.5 1.5 1.5h14c.8 0 1.5-.7 1.5-1.5 0-.8-.7-1.5-1.5-1.5h-14C211.2 125 210.5 125.7 210.5 126.5 210.5 126.5 210.5 125.7 210.5 126.5zM210.5 133.5c0 .8.7 1.5 1.5 1.5h14c.8 0 1.5-.7 1.5-1.5s-.7-1.5-1.5-1.5h-14C211.2 132 210.5 132.7 210.5 133.5 210.5 133.5 210.5 132.7 210.5 133.5z"/><path fill="#FFF" fill-rule="evenodd" d="M35.7,125.1h-4.4l2-2c0.3-0.3,0.4-0.8,0.1-1l-0.9-0.9 c-0.2-0.2-0.7-0.2-1,0.1l-4.6,4.7c-0.1,0.1-0.1,0.1-0.1,0.2l0,0c0,0,0,0,0,0c0,0,0,0.1-0.1,0.1c0,0.1-0.1,0.1-0.1,0.2 c0,0,0,0.1,0,0.1c0,0,0,0.1,0,0.1c0,0.1,0,0.1,0.1,0.2c0,0,0,0.1,0.1,0.1c0,0,0,0,0,0l0,0c0,0.1,0.1,0.1,0.1,0.2l4.6,4.7 c0.3,0.3,0.8,0.4,1,0.1l0.9-0.9c0.2-0.2,0.2-0.7-0.1-1l-2-2h4.5c0.4,0,0.7-0.3,0.7-0.7v-1.5C36.4,125.4,36.1,125.1,35.7,125.1z" clip-rule="evenodd"/><circle cx="187.5" cy="127" r="9" fill="#FFF"/><path fill="#0283B1" d="M187.5,114.4c-7.2,0-13,5.1-13,11.3c0,3.1,1.4,5.9,3.8,8c-0.4,1.4-1.2,3.3-2.8,5.2 c0.3,0.5,4.7-1.2,7.9-2.5c1.3,0.4,2.7,0.6,4.1,0.6c7.2,0,13-5.1,13-11.3C200.5,119.5,194.7,114.4,187.5,114.4z M191.4,121.2 c0.9,0,1.7,0.8,1.7,1.7c0,0.9-0.8,1.7-1.7,1.7c-0.9,0-1.7-0.8-1.7-1.7C189.7,121.9,190.4,121.2,191.4,121.2z M183.5,121.2 c0.9,0,1.7,0.8,1.7,1.7c0,0.9-0.8,1.7-1.7,1.7c-1,0-1.7-0.8-1.7-1.7C181.8,121.9,182.6,121.2,183.5,121.2z M187.5,133.6 C187.5,133.6,187.5,133.6,187.5,133.6c-0.1,0-0.1,0-0.1,0c-3.5,0-7.3-2.2-8.2-6c2.3,1.1,5.6,1.5,8.3,1.5c2.7,0,5.9-0.5,8.3-1.5 C194.9,131.4,191,133.6,187.5,133.6z"/></g><path fill="#383F44" d="M195.5,155.8v-19.5l17,12.5l-7.4,1.2l3,7.6l-3.3,1.4l-3.9-6.8L195.5,155.8z"/></svg>