<svg xmlns="http://www.w3.org/2000/svg" viewBox="0 0 64 64"><path fill-rule="evenodd" clip-rule="evenodd" fill="#00A9DC" d="M32 0C14.3 0 0 12.6 0 28.1c0 7.7 3.6 14.7 9.3 19.8-1 3.5-3 8.3-6.9 12.9.7 1.2 11.7-3 19.4-6.1 3.2.9 6.6 1.5 10.2 1.5 17.7 0 32-12.6 32-28.1S49.7 0 32 0zm9.6 16.9c2.3 0 4.2 1.9 4.2 4.2 0 2.3-1.9 4.2-4.2 4.2-2.3 0-4.2-1.9-4.2-4.2-.1-2.3 1.8-4.2 4.2-4.2zm-19.3 0c2.3 0 4.2 1.9 4.2 4.2 0 2.3-1.9 4.2-4.2 4.2-2.3 0-4.2-1.9-4.2-4.2-.1-2.3 1.8-4.2 4.2-4.2zM32 47.7h-.2c-8.6 0-18.1-5.5-20.3-14.9 5.8 2.7 13.8 3.8 20.4 3.8 6.6 0 14.7-1.2 20.4-3.8-2.2 9.3-11.7 14.9-20.3 14.9z"/></svg>