<svg xmlns="http://www.w3.org/2000/svg" width="230" height="133" viewBox="0 0 230 133"><defs><filter id="a" width="200%" height="200%" x="-50%" y="-50%" filterUnits="objectBoundingBox"><feOffset dy="-1" in="SourceAlpha" result="shadowOffsetOuter1"/><feGaussianBlur stdDeviation="2" in="shadowOffsetOuter1" result="shadowBlurOuter1"/><feColorMatrix values="0 0 0 0 0 0 0 0 0 0 0 0 0 0 0 0 0 0 0.175 0" in="shadowBlurOuter1" result="shadowMatrixOuter1"/><feMerge><feMergeNode in="shadowMatrixOuter1"/><feMergeNode in="SourceGraphic"/></feMerge></filter><filter id="b" width="200%" height="200%" x="-50%" y="-50%" filterUnits="objectBoundingBox"><feOffset dy="1" in="SourceAlpha" result="shadowOffsetOuter1"/><feGaussianBlur stdDeviation="1" in="shadowOffsetOuter1" result="shadowBlurOuter1"/><feColorMatrix values="0 0 0 0 0 0 0 0 0 0 0 0 0 0 0 0 0 0 0.245 0" in="shadowBlurOuter1" result="shadowMatrixOuter1"/><feMerge><feMergeNode in="shadowMatrixOuter1"/><feMergeNode in="SourceGraphic"/></feMerge></filter><filter id="c" width="200%" height="200%" x="-50%" y="-50%" filterUnits="objectBoundingBox"><feOffset dy="1" in="SourceAlpha" result="shadowOffsetOuter1"/><feGaussianBlur stdDeviation="1" in="shadowOffsetOuter1" result="shadowBlurOuter1"/><feColorMatrix values="0 0 0 0 0 0 0 0 0 0 0 0 0 0 0 0 0 0 0.245 0" in="shadowBlurOuter1" result="shadowMatrixOuter1"/><feMerge><feMergeNode in="shadowMatrixOuter1"/><feMergeNode in="SourceGraphic"/></feMerge></filter></defs><g fill="none"><g transform="translate(4 5)"><path fill="#6D889D" d="M0 0h222v128H0z" filter="url(#a)"/><path fill="#E9EDF0" d="M2 31h218v97H2zm0-17h218v15H2z"/><path fill="#ccc" d="M202 14h1v15h-1z"/><path fill="#fff" d="M14.006 17.494H133.06v9.097H14.006z"/><ellipse cx="9.804" cy="22.043" fill="#6D889D" rx="5.953" ry="5.948"/><path fill="#fff" d="M134.81 17.494h42.02v9.097h-42.02z"/><path d="M7.446 22.522l.356.353.075.053 1.816 1.745c.212.207.512.252.67.098l.355-.355c.157-.154.112-.447-.1-.655l-.74-.71h1.994c.235 0 .425-.18.425-.4v-.8c0-.222-.19-.4-.425-.4H9.858l.793-.76c.214-.207.26-.5.102-.65l-.356-.354c-.157-.153-.457-.11-.67.098l-1.83 1.754-.094.062-.356.356c-.074.072-.102.175-.09.285-.013.11.016.212.09.284m0-.002l.356.353.075.053 1.816 1.745c.212.207.512.252.67.098l.355-.355c.157-.154.112-.447-.1-.655l-.74-.71h1.994c.235 0 .425-.18.425-.4v-.8c0-.222-.19-.4-.425-.4H9.858l.793-.76c.214-.207.26-.5.102-.65l-.356-.354c-.157-.153-.457-.11-.67.098l-1.83 1.754-.094.062-.356.356c-.074.072-.102.175-.09.285-.013.11.016.212.09.284"/><path fill="#fff" d="M7.446 22.522l.356.353.075.053 1.816 1.745c.212.207.512.252.67.098l.355-.355c.157-.154.112-.447-.1-.655l-.74-.71h1.994c.235 0 .425-.18.425-.4v-.8c0-.222-.19-.4-.425-.4H9.858l.793-.76c.214-.207.26-.5.102-.65l-.356-.354c-.157-.153-.457-.11-.67.098l-1.83 1.754-.094.062-.356.356c-.074.072-.102.175-.09.285-.013.11.016.212.09.284"/><path d="M7.446 22.522l.356.353.075.053 1.816 1.745c.212.207.512.252.67.098l.355-.355c.157-.154.112-.447-.1-.655l-.74-.71h1.994c.235 0 .425-.18.425-.4v-.8c0-.222-.19-.4-.425-.4H9.858l.793-.76c.214-.207.26-.5.102-.65l-.356-.354c-.157-.153-.457-.11-.67.098l-1.83 1.754-.094.062-.356.356c-.074.072-.102.175-.09.285-.013.11.016.212.09.284M129.91 22.043h-2.102l.853-.852c-.195-.13-.424-.21-.677-.21-.685 0-1.24.554-1.24 1.237 0 .684.555 1.24 1.24 1.24.365 0 .69-.16.916-.41l.59.354c-.352.45-.893.742-1.507.742-1.063 0-1.926-.862-1.926-1.925 0-1.063.862-1.924 1.926-1.924.443 0 .848.15 1.173.402l.753-.753v2.1m0 0h-2.102l.853-.85c-.195-.13-.424-.213-.677-.213-.685 0-1.24.554-1.24 1.237 0 .684.555 1.24 1.24 1.24.365 0 .69-.16.916-.41l.59.354c-.352.45-.893.742-1.507.742-1.063 0-1.926-.862-1.926-1.925 0-1.063.862-1.924 1.926-1.924.443 0 .848.15 1.173.402l.753-.753v2.1"/><path fill="#6D889D" d="M129.91 22.043h-2.102l.853-.852c-.195-.13-.424-.21-.677-.21-.685 0-1.24.554-1.24 1.237 0 .684.555 1.24 1.24 1.24.365 0 .69-.16.916-.41l.59.354c-.352.45-.893.742-1.507.742-1.063 0-1.926-.862-1.926-1.925 0-1.063.862-1.924 1.926-1.924.443 0 .848.15 1.173.402l.753-.753v2.1"/><path d="M129.91 22.043h-2.102l.853-.852c-.195-.13-.424-.21-.677-.21-.685 0-1.24.554-1.24 1.237 0 .684.555 1.24 1.24 1.24.365 0 .69-.16.916-.41l.59.354c-.352.45-.893.742-1.507.742-1.063 0-1.926-.862-1.926-1.925 0-1.063.862-1.924 1.926-1.924.443 0 .848.15 1.173.402l.753-.753v2.1"/><path fill="#6D889D" d="M118.353 20.993h3.502l-1.75 2.45-1.752-2.45M173.228 21.793c0-.29-.103-.536-.308-.742-.206-.204-.453-.307-.742-.307s-.537.103-.742.308c-.206.206-.308.454-.308.743s.103.536.308.742c.206.205.453.308.742.308s.537-.103.742-.308c.206-.205.308-.453.308-.742zm1.2 1.95c0 .08-.03.15-.088.21s-.13.09-.21.09c-.085 0-.156-.03-.212-.09l-.804-.8c-.28.193-.592.29-.936.29-.224 0-.437-.043-.64-.13-.205-.087-.38-.204-.53-.35-.147-.15-.264-.324-.35-.528-.088-.204-.13-.417-.13-.64 0-.224.042-.438.13-.642.086-.204.203-.38.35-.527.15-.148.325-.265.53-.35.203-.088.417-.13.64-.13.224 0 .437.042.64.13.205.086.38.203.53.35.147.148.264.323.35.527.088.204.13.417.13.64 0 .345-.096.656-.29.936l.804.803c.058.058.087.128.087.21z"/><path fill="#00A9DC" d="M189.96 18.194c-2.223 0-4.027 1.587-4.027 3.543 0 .974.447 1.857 1.17 2.497-.126.443-.374 1.045-.865 1.632.084.15 1.467-.376 2.442-.77.402.12.832.184 1.28.184 2.224 0 4.027-1.586 4.027-3.543 0-1.956-1.803-3.543-4.027-3.543z"/><g><path d="M208.656 20.154h5.688c.362 0 .656-.26.656-.577 0-.32-.294-.577-.656-.577h-5.688c-.362 0-.656.258-.656.577 0 .32.294.577.656.577zm5.688.77h-5.688c-.362 0-.656.257-.656.576 0 .32.294.577.656.577h5.688c.362 0 .656-.258.656-.577 0-.32-.294-.577-.656-.577zm0 1.922h-5.688c-.362 0-.656.258-.656.577 0 .32.294.577.656.577h5.688c.362 0 .656-.258.656-.577 0-.32-.294-.577-.656-.577zm-5.688-2.692h5.688c.362 0 .656-.26.656-.577 0-.32-.294-.577-.656-.577h-5.688c-.362 0-.656.258-.656.577 0 .32.294.577.656.577zm5.688.77h-5.688c-.362 0-.656.257-.656.576 0 .32.294.577.656.577h5.688c.362 0 .656-.258.656-.577 0-.32-.294-.577-.656-.577zm0 1.922h-5.688c-.362 0-.656.258-.656.577 0 .32.294.577.656.577h5.688c.362 0 .656-.258.656-.577 0-.32-.294-.577-.656-.577z"/><path fill="#6D889D" d="M208.656 20.154h5.688c.362 0 .656-.26.656-.577 0-.32-.294-.577-.656-.577h-5.688c-.362 0-.656.258-.656.577 0 .32.294.577.656.577zm5.688.77h-5.688c-.362 0-.656.257-.656.576 0 .32.294.577.656.577h5.688c.362 0 .656-.258.656-.577 0-.32-.294-.577-.656-.577zm0 1.922h-5.688c-.362 0-.656.258-.656.577 0 .32.294.577.656.577h5.688c.362 0 .656-.258.656-.577 0-.32-.294-.577-.656-.577z"/><path d="M208.656 20.154h5.688c.362 0 .656-.26.656-.577 0-.32-.294-.577-.656-.577h-5.688c-.362 0-.656.258-.656.577 0 .32.294.577.656.577zm5.688.77h-5.688c-.362 0-.656.257-.656.576 0 .32.294.577.656.577h5.688c.362 0 .656-.258.656-.577 0-.32-.294-.577-.656-.577zm0 1.922h-5.688c-.362 0-.656.258-.656.577 0 .32.294.577.656.577h5.688c.362 0 .656-.258.656-.577 0-.32-.294-.577-.656-.577z"/></g><path fill="#E9EDF0" d="M91.503 9.668c-.37-1.994-.91-5.12-5.827-5.12H26.33c-4.842 0-5.412 3.586-5.78 5.58-.578 3.115-1.577 4.375-4.792 4.375v1.942h80.536v-1.942c-3.215 0-4.214-1.72-4.79-4.835z"/><path fill="#CED9E1" fill-opacity=".35" d="M12 46h131v40H12zM12 91h63v37H12zm68 0h63v37H80zm69-45h63v82h-63z"/></g><path fill="#00A9DC" d="M6 36h218v8H6z"/><path fill="#fff" d="M13 38c-1.104 0-2 .824-2 1.84 0 .507.222.966.58 1.3-.06.23-.185.542-.43.847.043.077.73-.195 1.214-.4.2.062.413.096.636.096 1.105 0 2-.824 2-1.84S14.104 38 13 38z"/><path fill="#fff" fill-opacity=".5" d="M18 39h70v2H18z"/><g><path fill="#fff" d="M57.52 79.898l-1.98.995-.85.428-.47-.828L50 73.03l-.518-.915.937-.472 1.977-.996.85-.428.47.828 4.222 7.464.516.914-.938.472zM48 65v-2.227l1.664 1.48 9 8 1.966 1.746H52l.8-.4-3 4L48 80V65z" filter="url(#b)"/><path fill="#1C7F9D" d="M51.505 73.66L55.09 80l1.98-.995L53.673 73H58l-9-8v12l2.505-3.34z"/></g><g><path fill="#fff" d="M176.52 116.898l-1.98.995-.85.428-.47-.828-4.22-7.463-.518-.915.937-.472 1.977-.996.85-.428.47.828 4.222 7.464.516.914-.938.472zM167 102v-2.227l1.664 1.48 9 8 1.966 1.746H171l.8-.4-3 4-1.8 2.4v-15z" filter="url(#c)"/><path fill="#F7A25E" d="M170.505 110.66l3.586 6.34 1.98-.995-3.397-6.005H177l-9-8v12l2.505-3.34z"/></g></g></svg>
