<?xml version="1.0" encoding="UTF-8" standalone="no"?>
<svg width="13px" height="10px" viewBox="0 0 13 10" version="1.1" xmlns="http://www.w3.org/2000/svg" xmlns:xlink="http://www.w3.org/1999/xlink" xmlns:sketch="http://www.bohemiancoding.com/sketch/ns">
    <!-- Generator: Sketch 3.5.1 (25234) - http://www.bohemiancoding.com/sketch -->
    <title>Shape Copy 2</title>
    <desc>Created with Sketch.</desc>
    <defs></defs>
    <g id="Link-Clickers-Flow" stroke="none" stroke-width="1" fill="none" fill-rule="evenodd" sketch:type="MSPage">
        <g id="LG-has-left" sketch:type="MSArtboardGroup" transform="translate(-1114.000000, -519.000000)" fill="#757575">
            <g id="SideBar---Empty---Ad" sketch:type="MSLayerGroup" transform="translate(1093.000000, 78.000000)">
                <g id="Panel" transform="translate(1.000000, 0.000000)" sketch:type="MSShapeGroup">
                    <g id="Notification-3" transform="translate(9.000000, 414.000000)">
                        <path d="M17.0190514,29.0316428 C17.0127791,29.0315277 17.0064926,29.03147 17.0001925,29.03147 L13.9998075,29.03147 C13.4437166,29.03147 13,29.479099 13,30.0312775 L13,33.0316625 C13,33.5877533 13.4476291,34.03147 13.9998075,34.03147 L17.0001925,34.03147 C17.0064934,34.03147 17.0127799,34.0314125 17.0190514,34.0312981 L17.0190514,35.5706518 C17.0190514,36.1103849 17.3755471,36.2960247 17.8153068,35.9629325 L22.8239665,32.1691662 C23.2653143,31.8348711 23.2637262,31.2960247 22.8239665,30.9629325 L17.8153068,27.1691662 C17.373959,26.8348711 17.0190514,27.011704 17.0190514,27.5614469 L17.0190514,29.0316428 Z M11,27.03147 L16,27.03147 L16,28.03147 L12,28.03147 L12,35.03147 L16,35.03147 L16,36.0414724 L11,36.0414721 L11,27.03147 Z" id="Shape-Copy-2"></path>
                    </g>
                </g>
            </g>
        </g>
    </g>
</svg>