<svg width="32" height="30" viewBox="0 0 32 30" xmlns="http://www.w3.org/2000/svg"><path d="M15.999 0c-8.834 0-15.999 6.135-15.999 13.7 0 3.767 1.776 7.179 4.648 9.656-.499 1.714-1.487 4.04-3.438 6.311.334.575 5.83-1.454 9.704-2.973 1.599.456 3.306.706 5.084.706 8.837 0 16.001-6.134 16.001-13.701 0-7.565-7.164-13.7-16.001-13.7zm4.742 8.186v9.823c0 .121-.035.226-.106.314-.07.088-.154.133-.25.133h-2.844c-.096 0-.18-.044-.25-.133-.07-.088-.106-.193-.106-.314v-9.823c0-.121.035-.226.106-.314.07-.088.154-.133.25-.133h2.844c.096 0 .18.044.25.133.07.088.106.193.106.314zm-5.333 0v9.823c0 .121-.035.226-.106.314-.07.088-.154.133-.25.133h-2.844c-.096 0-.18-.044-.25-.133-.07-.088-.106-.193-.106-.314v-9.823c0-.121.035-.226.106-.314.07-.088.154-.133.25-.133h2.844c.096 0 .18.044.25.133.07.088.106.193.106.314z" fill="#757575"/></svg>
