<?xml version="1.0" encoding="UTF-8" standalone="no"?>
<svg width="28px" height="28px" viewBox="0 0 28 28" version="1.1" xmlns="http://www.w3.org/2000/svg" xmlns:xlink="http://www.w3.org/1999/xlink">
    <defs></defs>
    <g id="Page-1" stroke="none" stroke-width="1" fill="none" fill-rule="evenodd">
        <rect id="Rectangle-1264-Copy-2" opacity="0.95" fill="#5CCCEE" x="2" y="2" width="24" height="24" rx="40"></rect>
        <path d="M2,14 L2,14 C2,20.6288742 7.372583,26 14,26 L14,26 C20.6288742,26 26,20.627417 26,14 L26,14 C26,7.37112582 20.627417,2 14,2 L14,2 C7.37112582,2 2,7.372583 2,14 L2,14 Z M0,14 L0,14 C0,6.26754774 6.26702203,0 14,0 C21.7324523,0 28,6.26702203 28,14 C28,21.7324523 21.732978,28 14,28 C6.26754774,28 0,21.732978 0,14 L0,14 Z" id="Shape" fill-opacity="0.2" fill="#000000"></path>
        <path d="M16,14 C16,15.1015625 15.1015625,16 14,16 C12.8984375,16 12,15.1015625 12,14 C12,12.8984375 12.8984375,12 14,12 C15.1015625,12 16,12.8984375 16,14 L16,14 Z M20,13.1484375 C20,13.015625 19.90625,12.890625 19.7734375,12.8671875 L18.34375,12.6484375 C18.265625,12.390625 18.15625,12.1328125 18.0234375,11.8828125 C18.2890625,11.515625 18.578125,11.171875 18.84375,10.8125 C18.8828125,10.7578125 18.90625,10.703125 18.90625,10.6328125 C18.90625,10.5703125 18.890625,10.5078125 18.8515625,10.4609375 C18.5234375,10 17.9765625,9.515625 17.5625,9.1328125 C17.5078125,9.0859375 17.4375,9.0546875 17.3671875,9.0546875 C17.296875,9.0546875 17.2265625,9.078125 17.1796875,9.125 L16.0703125,9.9609375 C15.84375,9.84375 15.609375,9.75 15.3671875,9.671875 L15.1484375,8.234375 C15.1328125,8.1015625 15.0078125,8 14.8671875,8 L13.1328125,8 C12.9921875,8 12.8828125,8.09375 12.8515625,8.21875 C12.7265625,8.6875 12.6796875,9.1953125 12.625,9.671875 C12.3828125,9.75 12.140625,9.8515625 11.9140625,9.96875 L10.8359375,9.1328125 C10.7734375,9.0859375 10.703125,9.0546875 10.6328125,9.0546875 C10.3671875,9.0546875 9.3125,10.1953125 9.125,10.453125 C9.0859375,10.5078125 9.0546875,10.5625 9.0546875,10.6328125 C9.0546875,10.703125 9.0859375,10.765625 9.1328125,10.8203125 C9.421875,11.171875 9.703125,11.5234375 9.96875,11.8984375 C9.84375,12.1328125 9.7421875,12.3671875 9.6640625,12.6171875 L8.2109375,12.8359375 C8.09375,12.859375 8,13 8,13.1171875 L8,14.8515625 C8,14.984375 8.09375,15.109375 8.2265625,15.1328125 L9.65625,15.34375 C9.734375,15.609375 9.84375,15.8671875 9.9765625,16.1171875 C9.7109375,16.484375 9.421875,16.828125 9.15625,17.1875 C9.1171875,17.2421875 9.09375,17.296875 9.09375,17.3671875 C9.09375,17.4296875 9.109375,17.4921875 9.1484375,17.546875 C9.4765625,18 10.0234375,18.484375 10.4375,18.859375 C10.4921875,18.9140625 10.5625,18.9453125 10.6328125,18.9453125 C10.703125,18.9453125 10.7734375,18.921875 10.828125,18.875 L11.9296875,18.0390625 C12.15625,18.15625 12.390625,18.25 12.6328125,18.328125 L12.8515625,19.765625 C12.8671875,19.8984375 12.9921875,20 13.1328125,20 L14.8671875,20 C15.0078125,20 15.1171875,19.90625 15.1484375,19.78125 C15.2734375,19.3125 15.3203125,18.8046875 15.375,18.328125 C15.6171875,18.25 15.859375,18.1484375 16.0859375,18.03125 L17.1640625,18.875 C17.2265625,18.9140625 17.296875,18.9453125 17.3671875,18.9453125 C17.6328125,18.9453125 18.6875,17.796875 18.875,17.546875 C18.921875,17.4921875 18.9453125,17.4375 18.9453125,17.3671875 C18.9453125,17.296875 18.9140625,17.2265625 18.8671875,17.171875 C18.578125,16.8203125 18.296875,16.4765625 18.03125,16.09375 C18.15625,15.8671875 18.25,15.6328125 18.3359375,15.3828125 L19.78125,15.1640625 C19.90625,15.140625 20,15 20,14.8828125 L20,13.1484375 Z" id="-2-copy" fill="#FFFFFF"></path>
    </g>
</svg>