<svg width="32" height="32" viewBox="0 0 32 32" xmlns="http://www.w3.org/2000/svg"><title>icon copy 2-32</title><g fill="none" fill-rule="evenodd"><g fill="#4D4D4D"><path d="M8 2a4 4 0 0 0-4 4h4V2zm6 0h-4v4h4V2zm14 22a4 4 0 0 0 4-4h-4v4zm-12.2.642l6.034 4.6a4 4 0 0 0 5.57-.984L19.28 22.2l-3.48 2.442z" fill-rule="nonzero"/><path d="M21.86 17.437L9.9 26.016a4.988 4.988 0 1 1-2.3-3.266l2.8-1.964-2.484-1.738A5 5 0 1 1 4 10.1V8h4v3.022A4.976 4.976 0 0 1 10 15c-.008.196-.027.39-.058.584l3.936 2.76 4.46-3.292a9.014 9.014 0 0 0 3.522 2.385zM5 17.5a2.5 2.5 0 1 0 0-5 2.5 2.5 0 0 0 0 5zm0 12a2.5 2.5 0 1 0 0-5 2.5 2.5 0 0 0 0 5zM16.512 6H16V2h3.343a9.018 9.018 0 0 0-2.83 4zM28 17.488V18h4v-3.343a9.018 9.018 0 0 1-4 2.83z"/></g><g transform="translate(18 2)"><circle fill="#00FEFF" cx="7" cy="7" r="7"/><path d="M7 2c.332 0 .765.182.89.694l.401 1.653.075.31.308-.09 1.645-.482a.906.906 0 0 1 1.113.542.868.868 0 0 1-.223.985L9.965 6.783l-.232.22.232.218 1.244 1.172a.869.869 0 0 1 .223.984.906.906 0 0 1-1.113.542l-1.645-.481-.308-.09-.075.31-.402 1.652c-.124.513-.557.694-.889.694-.332 0-.765-.181-.89-.694L5.71 9.657l-.075-.31-.308.091-1.645.481a.906.906 0 0 1-1.113-.542.869.869 0 0 1 .223-.984L4.035 7.22l.232-.219-.232-.219L2.79 5.612a.868.868 0 0 1-.223-.985.906.906 0 0 1 1.113-.542l1.645.481.308.09.075-.309.402-1.653C6.235 2.182 6.668 2 7 2" fill="#005A71"/></g></g></svg>
