<?xml version="1.0" encoding="UTF-8"?>
<svg width="32px" height="32px" viewBox="0 0 32 32" version="1.1" xmlns="http://www.w3.org/2000/svg" xmlns:xlink="http://www.w3.org/1999/xlink">
    <!-- Generator: Sketch 43.2 (39069) - http://www.bohemiancoding.com/sketch -->
    <title>icon-starred-32</title>
    <desc>Created with Sketch.</desc>
    <defs></defs>
    <g id="Onboarding" stroke="none" stroke-width="1" fill="none" fill-rule="evenodd">
        <g id="icon-starred">
            <path d="M11,2 L15,2 L15,4 L11,4 L11,2 Z M17,2 L19,2 L19,4 L17,4 L17,2 Z M14,28 L18,28 L21,28 L21,30 L14,30 L14,28 Z M28,18 L30,18 L30,21 L28,21 L28,18 Z M28.9970707,30 L23,30 L23,28 L27.5023012,28 C27.7851562,28 28,27.7771727 28,27.5023012 L28,23 L30,23 L30,28.9970707 C30,29.5621186 29.5509732,30 28.9970707,30 Z M9,2 L9,4 L4.49769878,4 C4.21484375,4 4,4.22595492 4,4.50468445 L4,6 L2,6 L2,3.0093689 C2,2.44335318 2.44902676,2 3.00292933,2 L9,2 Z" id="Combined-Shape" fill="#4D4D4D"></path>
            <path d="M7.5,18 C4.46243388,18 2,15.5375661 2,12.5 C2,9.46243388 4.46243388,7 7.5,7 C10.5375661,7 13,9.46243388 13,12.5 C13,15.5375661 10.5375661,18 7.5,18 Z M7.5,15.25 C9.01878306,15.25 10.25,14.0187831 10.25,12.5 C10.25,10.9812169 9.01878306,9.75 7.5,9.75 C5.98121694,9.75 4.75,10.9812169 4.75,12.5 C4.75,14.0187831 5.98121694,15.25 7.5,15.25 Z" id="Combined-Shape" fill="#4D4D4D"></path>
            <path d="M7.5,30 C4.46243388,30 2,27.5375661 2,24.5 C2,21.4624339 4.46243388,19 7.5,19 C10.5375661,19 13,21.4624339 13,24.5 C13,27.5375661 10.5375661,30 7.5,30 Z M7.5,27.25 C9.01878306,27.25 10.25,26.0187831 10.25,24.5 C10.25,22.9812169 9.01878306,21.75 7.5,21.75 C5.98121694,21.75 4.75,22.9812169 4.75,24.5 C4.75,26.0187831 5.98121694,27.25 7.5,27.25 Z" id="Combined-Shape-Copy" fill="#4D4D4D"></path>
            <path d="M19.5621306,18.4336316 L12.0225886,23.7556612 C10.8995145,24.5484194 8.65292225,21.2380958 9.80606657,20.4241116 L12.5318913,18.5 L9.47511461,16.3422753 C8.43228761,15.6061621 10.6291131,12.260709 11.6169865,12.9580314 L16,16.0519233 L16.2999464,15.8401964 C16.308319,16.6949285 16.7256347,17.5052335 17.4378266,18.0070314 C18.0631741,18.4476404 18.8359546,18.5940831 19.5621306,18.4336316 Z M20.9681087,19.5588235 L25.6533664,22.8660643 C26.5557642,23.5030509 26.7709224,24.7509686 26.1339357,25.6533664 C25.4969491,26.5557642 24.2490314,26.7709224 23.3466336,26.1339357 L17.5,22.0069002 C18.6001,21.2303591 19.7896836,20.390653 20.9681087,19.5588235 Z" id="Combined-Shape" fill="#4D4D4D" fill-rule="nonzero"></path>
            <path d="M31.0298163,5.60065296 L26.6315676,4.81413617 L24.5599053,0.655603441 C24.3597524,0.253892444 23.949655,-8.95905326e-17 23.5009482,0 C23.0522413,5.97270217e-17 22.642144,0.253892444 22.441991,0.655603441 L20.3692531,4.81413617 L15.9796095,5.59850107 C15.5518938,5.67324058 15.1994617,5.97631422 15.0614174,6.38809939 C14.9233731,6.79988456 15.0218952,7.25422244 15.3180974,7.57178672 L18.4664647,10.9577899 L17.8114064,15.6489161 C17.7498225,16.0883409 17.9391303,16.5253075 18.3017873,16.7808292 C18.6644442,17.036351 19.1395182,17.0674963 19.5324134,16.8615077 L23.5004103,14.7913869 L27.4694829,16.8647355 C27.8623781,17.0707241 28.3374521,17.0395788 28.7001091,16.7840571 C29.062766,16.5285353 29.2520739,16.0915688 29.19049,15.652144 L28.534356,10.9577899 L31.6816477,7.57286266 C31.9779332,7.25540997 32.0766057,6.80113504 31.9387231,6.38932166 C31.8019739,5.98045861 31.4537759,5.67832329 31.0298163,5.60065296 Z" id="Shape" fill="#FF1AD9" fill-rule="nonzero"></path>
        </g>
    </g>
</svg>