<svg width="32" height="32" viewBox="0 0 32 32" xmlns="http://www.w3.org/2000/svg"><title>icon-16</title><path d="M8 2a4 4 0 0 0-4 4h4V2zm12 0h-4v4h4V2zm8 0v4h4a4 4 0 0 0-4-4zM14 2h-4v4h4V2zm12 0h-4v4h4V2zm2 10h4V8h-4v4zm0 12a4 4 0 0 0 4-4h-4v4zm0-6h4v-4h-4v4zm-.882-4.334a4 4 0 0 0-5.57-.984l-7.67 5.662-3.936-2.76c.031-.193.05-.388.058-.584a4.976 4.976 0 0 0-2-3.978V8H4v2.1a5 5 0 1 0 3.916 8.948l2.484 1.738-2.8 1.964a4.988 4.988 0 1 0 2.3 3.266l17.218-12.35zM5 17.5a2.5 2.5 0 1 1 0-5 2.5 2.5 0 0 1 0 5zm0 12a2.5 2.5 0 1 1 0-5 2.5 2.5 0 0 1 0 5zm10.8-4.858l6.034 4.6a4 4 0 0 0 5.57-.984L19.28 22.2l-3.48 2.442z" fill-rule="nonzero" fill="#4C4C4C"/></svg>
