<?xml version="1.0" encoding="UTF-8"?>
<svg width="32px" height="32px" viewBox="0 0 32 32" version="1.1" xmlns="http://www.w3.org/2000/svg" xmlns:xlink="http://www.w3.org/1999/xlink">
    <!-- Generator: Sketch 43.2 (39069) - http://www.bohemiancoding.com/sketch -->
    <title>icon-16</title>
    <desc>Created with Sketch.</desc>
    <defs></defs>
    <g id="Onboarding" stroke="none" stroke-width="1" fill="none" fill-rule="evenodd">
        <g id="icon" fill="#4D4D4D">
            <path d="M11,2 L15,2 L15,4 L11,4 L11,2 Z M17,2 L21,2 L21,4 L17,4 L17,2 Z M14,28 L18,28 L21,28 L21,30 L14,30 L14,28 Z M28,11 L30,11 L30,15 L28,15 L28,11 Z M28,17 L30,17 L30,21 L28,21 L28,17 Z M30,3.00292933 L30,9 L28,9 L28,4.49769878 C28,4.21484375 27.7771727,4 27.5023012,4 L23,4 L23,2 L28.9970707,2 C29.5621186,2 30,2.44902676 30,3.00292933 Z M28.9970707,30 L23,30 L23,28 L27.5023012,28 C27.7851562,28 28,27.7771727 28,27.5023012 L28,23 L30,23 L30,28.9970707 C30,29.5621186 29.5509732,30 28.9970707,30 Z M9,2 L9,4 L4.49769878,4 C4.21484375,4 4,4.22595492 4,4.50468445 L4,6 L2,6 L2,3.0093689 C2,2.44335318 2.44902676,2 3.00292933,2 L9,2 Z" id="Combined-Shape"></path>
            <path d="M7.5,18 C4.46243388,18 2,15.5375661 2,12.5 C2,9.46243388 4.46243388,7 7.5,7 C10.5375661,7 13,9.46243388 13,12.5 C13,15.5375661 10.5375661,18 7.5,18 Z M7.5,15.25 C9.01878306,15.25 10.25,14.0187831 10.25,12.5 C10.25,10.9812169 9.01878306,9.75 7.5,9.75 C5.98121694,9.75 4.75,10.9812169 4.75,12.5 C4.75,14.0187831 5.98121694,15.25 7.5,15.25 Z" id="Combined-Shape"></path>
            <path d="M7.5,30 C4.46243388,30 2,27.5375661 2,24.5 C2,21.4624339 4.46243388,19 7.5,19 C10.5375661,19 13,21.4624339 13,24.5 C13,27.5375661 10.5375661,30 7.5,30 Z M7.5,27.25 C9.01878306,27.25 10.25,26.0187831 10.25,24.5 C10.25,22.9812169 9.01878306,21.75 7.5,21.75 C5.98121694,21.75 4.75,22.9812169 4.75,24.5 C4.75,26.0187831 5.98121694,27.25 7.5,27.25 Z" id="Combined-Shape-Copy"></path>
            <path d="M17.5,17.1107468 C15.3660747,15.6044466 13.2177087,14.087953 11.6169865,12.9580314 C10.6291131,12.260709 8.43228761,15.6061621 9.47511461,16.3422753 L14.0318913,19.5588235 L17.5,17.1107468 Z M20.9681087,19.5588235 C23.6164424,21.4282356 25.6533664,22.8660643 25.6533664,22.8660643 C26.5557642,23.5030509 26.7709224,24.7509686 26.1339357,25.6533664 C25.4969491,26.5557642 24.2490314,26.7709224 23.3466336,26.1339357 L17.5,22.0069002 C18.6001,21.2303591 19.7896836,20.390653 20.9681087,19.5588235 Z" id="Combined-Shape" fill-rule="nonzero"></path>
            <path d="M12.0225886,23.7556612 L25.6533664,14.1339357 C26.5557642,13.4969491 26.7709224,12.2490314 26.1339357,11.3466336 C25.4969491,10.4442358 24.2490314,10.2290776 23.3466336,10.8660643 L9.80606657,20.4241116 C8.65292225,21.2380958 10.8995145,24.5484194 12.0225886,23.7556612 Z" id="Line" fill-rule="nonzero"></path>
        </g>
    </g>
</svg>