<svg id="Layer_1" xmlns="http://www.w3.org/2000/svg" viewBox="0 0 46 46"><style>.st0{fill:#3e3d40}.st1{fill:#00fdff}.st2{fill:#00d1e6}</style><path id="Fill-1" class="st0" d="M5 12c0-.6.5-1 1-1h34c.6 0 1 .5 1 1v24c0 .6-.5 1-1 1H6c-.6 0-1-.5-1-1V12zm2 23V13h32v22H7z"/><path id="bg" class="st1" d="M7 35h32V13H7z"/><path id="dash" class="st2" d="M38 19h1v-2h-1v2zm0 3h1v-2h-1v2zm0 3h1v-2h-1v2zm0 3h1v-2h-1v2zm0 3h1v-2h-1v2zm0 3h1v-2h-1v2zm-1 1h2v-1h-2v1zm-3 0h2v-1h-2v1zm-3 0h2v-1h-2v1zm-3 0h2v-1h-2v1zm-3 0h2v-1h-2v1zm-3 0h2v-1h-2v1zm-3 0h2v-1h-2v1zm-3 0h2v-1h-2v1zm-3 0h2v-1h-2v1zm-3 0h2v-1h-2v1zm-2-3H7v3h2v-1H8v-2zm-1-1h1v-2H7v2zm0-3h1v-2H7v2zm0-3h1v-2H7v2zm0-3h1v-2H7v2zm0-3h1v-2H7v2zm2-6H7v3h1v-2h1v-1zm1 1h2v-1h-2v1zm3 0h2v-1h-2v1zm3 0h2v-1h-2v1zm3 0h2v-1h-2v1zm3 0h2v-1h-2v1zm3 0h2v-1h-2v1zm3 0h2v-1h-2v1zm3 0h2v-1h-2v1zm3 0h2v-1h-2v1zm5-1h-2v1h1v2h1v-3z"/></svg>