/* XPM */
static char * winInspectorMain_xpm[] = {
"32 32 6 1",
" 	c None",
".	c #000000",
"+	c #FFB300",
"@	c #FF7500",
"#	c #FF8C00",
"$	c #FF0000",
"................................",
"................................",
"..++++++++++++++++++++++++++++..",
"..++++++++++++++++++++++++++++..",
"..++++++++++........++++++++++..",
"..++++++++++........++++++++++..",
"..++++++....@@@@@@@@....++++++..",
"..++++++....@@@@@@@@....++++++..",
"..++++++..@@@@@@@@@@@@..++++++..",
"..++++++..@@@@@@@@@@@@..++++++..",
"..++++..@@@@@@@@@@@@@@@@..++++..",
"..++++..@@@@@@@@@@@@@@@@..++++..",
"..++++..@@@@@@@@@@@@@@@@..++++..",
"..++++..@@@@@@@@@@@@@@@@..++++..",
"..++++..@@@@@@@@@@@@##@@..++++..",
"..++++..@@@@@@@@@@@@##@@..++++..",
"..++++..@@@@@@@@@@@@##@@..++++..",
"..++++..@@@@@@@@@@@@##@@..++++..",
"..++++++..@@@@@@####$$..++++++..",
"..++++++..@@@@@@####$$..++++++..",
"..++++++....@@@@@@@@......++++..",
"..++++++....@@@@@@@@......++++..",
"..++++++++++........++......++..",
"..++++++++++........++......++..",
"..++++++++++++++++++++++........",
"..++++++++++++++++++++++........",
"..++++++++++++++++++++++++......",
"..++++++++++++++++++++++++......",
"..++++++++++++++++++++++++++....",
"..++++++++++++++++++++++++++....",
"................................",
"................................"};
