/* XPM */
static char * winInspectorMain16_xpm[] = {
"16 16 6 1",
" 	c None",
".	c #000000",
"+	c #FFAD00",
"@	c #FF6D00",
"#	c #FF8500",
"$	c #FF0000",
"................",
".++++++++++++++.",
".+++++....+++++.",
".+++..@@@@..+++.",
".+++.@@@@@@.+++.",
".++.@@@@@@@@.++.",
".++.@@@@@@@@.++.",
".++.@@@@@@#@.++.",
".++.@@@@@@#@.++.",
".+++.@@@##$.+++.",
".+++..@@@@...++.",
".+++++....+...+.",
".+++++++++++....",
".++++++++++++...",
".+++++++++++++..",
"................"};
