<!-- This Source Code Form is subject to the terms of the Mozilla Public
   - License, v. 2.0. If a copy of the MPL was not distributed with this
   - file, You can obtain one at http://mozilla.org/MPL/2.0/. -->
<svg height="16" width="16" xmlns="http://www.w3.org/2000/svg" viewBox="0 0 72 72" opacity="1.0">
    <path fill="#C89979" d="M57.2 20.6c-1 0-2 .4-2.7 1 0 0-.1 0-.2.1-.8.8-1.6.8-2.4 0-.7-.7-1.7-1.1-2.8-1.1-1.1 0-2 .4-2.7 1 0 0-.1 0-.2.1-.8.8-1.6.8-2.4.1-.7-.7-1.8-1.2-2.9-1.2-1.1 0-2 .4-2.7 1 0 0-.1 0-.2.1-.3.3-.6.5-.9.6V4c0-2.2-1.8-4.1-4.1-4.1S29 1.7 29 4v35c-1-1.2-1.9-1.6-3.2-2.9-7.2-6.9-10.7-5-12.3-3.6-1.5 1.5-1.1 4 .5 5.5 7.9 6.8 12.1 17.5 13.8 20.8 0 0 0 .1.1.1.2.4.4.7.5.8 1 1.4 2.3 2.5 3.8 3.2V69c0 1.6 1.3 2.9 2.9 2.9h18.6c1.6 0 2.9-1.3 2.9-2.9v-8c2.8-2.3 4.6-5.9 4.6-9.8V24.7c.1-2.3-1.8-4.1-4-4.1z"/>
    <path fill="#AD7E5E" d="M48.6 63.9h-.2H36.1c-1.4 0-2.7-.3-3.9-.9v1.3c0 1.2 1 2.2 2.2 2.2h20c1.2 0 2.2-1 2.2-2.2V61c-2.2 1.8-5 2.9-8 2.9z"/>
</svg>