<!-- This Source Code Form is subject to the terms of the Mozilla Public
   - License, v. 2.0. If a copy of the MPL was not distributed with this
   - file, You can obtain one at http://mozilla.org/MPL/2.0/. -->
<svg height="16" width="16" xmlns="http://www.w3.org/2000/svg" viewBox="0 0 512 512" opacity="1.0">
  <path fill="#D19B61" d="M30.588 157.435C45.694 92.48 111.838 11.252 210.984 8.688S399.89 31.77 458.878 108.708s58.986 220.88 25.646 265.6-41.87 142.173-192.764 131.914c-150.894-10.258-204.75-42.22-253.48-112.154S10.037 245.802 30.59 157.435z"/>
  <path fill="#4F3D30" d="M161.834 173.737c0 10.843-18.425 19.634-41.154 19.634s-41.154-8.79-41.154-19.633c0-26.124 43.257-30.846 43.79-41.152.1-1.933 2.78-3.17 5.054-2.25 11.912 4.824 33.464 17.178 33.464 43.402zm161.668 236.25c-2.04-.663-4.442.227-4.532 1.617-.48 7.408-39.28 10.802-39.28 29.58 0 7.793 16.527 14.11 36.914 14.11s36.915-6.317 36.915-14.11c0-18.85-19.333-27.73-30.018-31.198zm87.547-118.38c-2.04-.968-4.443.333-4.533 2.366-.48 10.834-39.28 15.797-39.28 43.258 0 11.4 16.527 20.64 36.914 20.64s36.916-9.24 36.916-20.64c0-27.565-19.333-40.55-30.017-45.623z"/>
  <path fill="#332A23" d="M264.82 274.863c0 10.345-16.527 18.73-36.914 18.73s-36.915-8.385-36.915-18.73c0-24.923 38.803-29.428 39.282-39.26.09-1.846 2.494-3.027 4.532-2.148 10.684 4.603 30.017 16.39 30.017 41.408zm6.9-210.826c-2.04-.662-4.443.228-4.533 1.618-.48 7.408-39.28 10.802-39.28 29.58 0 7.793 16.527 14.11 36.914 14.11s36.916-6.317 36.916-14.11c0-18.85-19.333-27.73-30.017-31.198zm121.1 54.782c-1.857-.914-4.048.314-4.13 2.232-.437 10.227-35.806 14.912-35.806 40.833 0 10.76 15.065 19.482 33.65 19.482 18.584 0 33.65-8.722 33.65-19.482-.002-26.02-17.624-38.28-27.363-43.066zM157.535 356.05c-2.272-1.118-4.95.384-5.052 2.73-.534 12.504-43.782 18.233-43.782 49.93 0 13.155 18.42 23.82 41.145 23.82 22.724 0 41.145-10.665 41.145-23.82 0-31.82-21.548-46.807-33.456-52.66z"/>
</svg>