<!-- This Source Code Form is subject to the terms of the Mozilla Public
   - License, v. 2.0. If a copy of the MPL was not distributed with this
   - file, You can obtain one at http://mozilla.org/MPL/2.0/. -->
<svg height="16" width="16" xmlns="http://www.w3.org/2000/svg" viewBox="0 0 72 72" opacity="1.0">
  <path fill="#FF473E" d="M45.4 35.2V2.1c0-4.9-18.8 9.8-18.8 15.1v18h18.8z"/>
  <path fill="#D1CFC3" d="M25.8 41.1c-.4 0-.7-.3-.7-.7v-7.2c0-.4.3-.7.7-.7h20.9c.4 0 .7.3.7.7v7.2c0 .4-.3.7-.7.7H25.8z"/>
  <path fill="#BFBCAF" d="M50.1 39.6c0-.4-.3-.7-.7-.7H22.6c-.4 0-.7.3-.7.7V67.5C21.9 70 28.2 72 36 72s14.1-2 14.1-4.5v-.1-27.8z"/>
  <ellipse transform="rotate(45 35.977 9.37)" fill="#FF6E83" cx="36" cy="9.4" rx="4" ry="12.6"/>
  <path fill="#FC7570" d="M41.9 30.5c-.8 0-1.5-.7-1.5-1.5V17.5c0-.8.7-1.5 1.5-1.5s1.5.7 1.5 1.5V29c-.1.9-.7 1.5-1.5 1.5z"/>
  <circle fill="#C4F0F2" cx="36" cy="53.9" r="3.8"/>
</svg>