<!-- This Source Code Form is subject to the terms of the Mozilla Public
   - License, v. 2.0. If a copy of the MPL was not distributed with this
   - file, You can obtain one at http://mozilla.org/MPL/2.0/. -->
<svg height="16" width="16" xmlns="http://www.w3.org/2000/svg" viewBox="0 0 512 512" opacity="1.0">
  <path fill="#A9B8C2" d="M509.507 277.512c-.132-6.324-.47-12.764-1.04-19.213-.632-6.447-1.428-12.904-2.614-19.245-1.206-6.336-2.63-12.568-4.475-18.537-1.87-5.96-3.99-11.684-6.497-16.98-.595-1.332-1.307-2.607-1.945-3.884l-.975-1.893-1.06-1.824c-.712-1.2-1.388-2.395-2.105-3.543l-2.23-3.322c-.705-1.1-1.51-2.11-2.28-3.112-.78-.994-1.507-1.99-2.287-2.913l-2.348-2.653-1.13-1.268-1.182-1.164c-1.56-1.52-2.987-2.98-4.48-4.16-1.473-1.22-2.712-2.35-4.158-3.326-1.088-.78-2.095-1.49-3-2.118-17.824-20.005-42.044-32.73-73.602-32.262-65.688.978-93.648 12.662-135.097-21.204-18.746-41.434-58.357-72.004-117.605-57.282C50.467 79.708 17.34 103.01 10.62 151.743c-1.177 3.953-1.833 8.13-1.86 12.463l-.058 9.042-.018 2.794-.056 2.945c-.038 1.238-.08 2.662-.13 4.256-.217 6.425-.762 15.903-1.466 27.59-.686 11.68-1.51 25.55-1.832 40.698-.166 7.57-.185 15.47.016 23.567.214 8.102.645 16.406 1.457 24.8.798 8.392 1.978 16.873 3.64 25.29 1.69 8.415 3.835 16.766 6.67 24.84 2.778 8.07 6.28 15.85 10.322 23.028 4.088 7.17 8.782 13.704 13.74 19.314 4.985 5.6 10.21 10.248 15.127 13.945 4.91 3.723 9.528 6.466 13.38 8.522l2.747 1.44c.874.414 1.694.8 2.457 1.16 1.526.725 2.832 1.31 3.903 1.732l3.276 1.337c7.498 3.063 16.404.77 21.39-6.07 5.868-8.047 4.1-19.328-3.946-25.196l-4.27-3.112-1.967-1.435c-.647-.447-1.408-1.05-2.277-1.77l-1.4-1.138-1.507-1.362c-2.102-1.915-4.49-4.328-6.8-7.322-2.325-2.975-4.593-6.484-6.567-10.504-1.954-4.048-3.62-8.6-4.9-13.612-1.242-5.053-2.145-10.52-2.577-16.423-.47-5.864-.484-12.145-.174-18.62.17-3.342.436-6.743.782-10.183 2.13-5.07 4.632-11.54 7.39-19.013 2.704.653 5.46 1.06 8.26 1.23l.002.014c7.48 1.072 23.013 9.41 23.51 16.948 2.443 37.036 15.236 59.378 26.407 72.06 10.125 11.492 16.997 25.48 20.296 40.437 7.742 35.107.006 76.796 46.07 76.796s20.08-48.648 34.932-78.647c14.85-30 51.294-24 51.294-24 32.974 0 47.557 10.897 55.47 25.767 10.23 19.23-3.268 76.878 47.38 76.878 49.846 0 35.89-67.9 50.29-86.76 18.117-23.724 41.402-51.33 54.37-84.85-.154 2.273-.32 4.483-.492 6.603-.398 4.603-.795 8.822-1.228 12.556-.387 3.738-.84 6.987-1.168 9.668l-1.175 8.41-.013.09c-.468 3.384 1.82 6.558 5.213 7.158 3.472.613 6.783-1.704 7.397-5.175 0 0 .55-3.12 1.516-8.58.435-2.74 1.02-6.057 1.557-9.887.583-3.823 1.15-8.152 1.73-12.882.558-4.734 1.1-9.874 1.552-15.33.2-2.73.46-5.532.603-8.408l.254-4.357.18-4.45c.248-5.99.284-12.198.185-18.52z"/>
  <path fill="#2B3B47" d="M80.323 159.56c-8.07-.432-14.963 5.762-15.394 13.833l-1.35 25.27c-.43 8.072 5.763 14.964 13.834 15.395 8.07.43 14.963-5.763 15.394-13.834l1.35-25.27c.43-8.072-5.764-14.964-13.835-15.395z"/>
  <path fill="#7E9AA8" d="M155.92 254.302l.545.627.67.768c.26.278.558.6.897.966 1.375 1.45 3.472 3.58 6.338 5.903 2.878 2.305 6.577 4.818 11.15 6.742 4.558 1.923 9.945 3.32 15.91 3.456 5.952.167 12.446-.82 19.002-3.106 6.56-2.253 13.2-5.68 19.5-10.12 6.315-4.412 12.35-9.754 17.747-15.804 5.403-6.053 10.17-12.735 14.56-19.53 4.383-6.795 8.28-13.91 10.84-21.304 2.587-7.375 3.857-14.943 3.643-22.166-.105-3.612-.592-7.137-1.44-10.51-.212-.842-.44-1.678-.7-2.5l-.405-1.277-.47-1.426-1.845-5.463c-2.468-7.185-5.09-13.94-7.617-20.116-2.512-6.19-5.044-11.765-7.338-16.683-2.314-4.908-4.522-9.077-6.41-12.475-1.93-3.36-3.527-5.955-4.663-7.686l-1.782-2.63-.063-.093c-.648-.957-.4-2.258.558-2.906.846-.572 1.96-.443 2.657.256l2.36 2.37c1.52 1.56 3.67 3.92 6.24 7.056 2.53 3.15 5.532 7.045 8.752 11.65 3.233 4.6 6.64 9.935 10.217 15.844 3.557 5.925 7.206 12.444 10.864 19.52.906 1.786 1.846 3.653 2.698 5.42l.657 1.35.352.733.347.79c.47 1.057.9 2.138 1.31 3.235 1.643 4.386 2.833 9.065 3.514 13.883 1.38 9.652.618 19.764-1.692 29.466-2.33 9.71-6.1 19.137-11.242 27.675-5.142 8.547-11.762 16.038-18.96 22.523-7.2 6.49-14.974 12.09-23.122 16.485-8.143 4.383-16.626 7.64-25.07 9.388-8.43 1.745-16.805 2.01-24.324.718-7.525-1.26-14.11-3.94-19.253-7.182-5.183-3.21-9.01-6.814-11.86-9.924-2.86-3.128-4.708-5.822-5.948-7.694l-.812-1.252-.53-.872-.43-.71c-.828-1.365-.393-3.14.97-3.97 1.22-.74 2.77-.47 3.676.572z"/>
  <path fill="#E8EBED" d="M88.503 271.766l-1.664 1.06-2.395 1.56c-1.02.69-2.11 1.282-3.305 1.943-1.196.655-2.56 1.31-3.992 1.95l-2.24.927c-.77.293-1.57.556-2.372.832-.798.29-1.628.498-2.456.73-.83.237-1.664.45-2.507.615-1.684.39-3.368.628-5.034.87-1.654.162-3.297.342-4.87.387-1.585.1-3.098.074-4.562.082-1.453-.027-2.84-.078-4.145-.14l-3.636-.25c-2.228-.2-4.065-.38-5.34-.542l-2.003-.233c-2.678-.313-4.597-2.737-4.286-5.415.234-2.008 1.655-3.59 3.48-4.124l.13-.035 1.852-.54c1.183-.33 2.847-.85 4.817-1.48l3.128-1.073c1.09-.403 2.223-.835 3.37-1.296 1.127-.49 2.305-.962 3.41-1.526 1.14-.52 2.198-1.14 3.26-1.716 1.006-.636 2.008-1.242 2.884-1.915.458-.313.88-.654 1.278-.997.402-.34.812-.648 1.163-1.008.36-.35.72-.67 1.05-1.007l.936-1.013c.587-.684 1.12-1.315 1.59-1.953.465-.64.914-1.22 1.16-1.69.295-.493.47-.798.904-1.41l1.122-1.625c4.45-6.442 13.282-8.055 19.724-3.604 6.442 4.45 8.055 13.282 3.604 19.724-1.096 1.586-2.457 2.88-3.982 3.86l-.075.05z"/>
</svg>