<!-- This Source Code Form is subject to the terms of the Mozilla Public
   - License, v. 2.0. If a copy of the MPL was not distributed with this
   - file, You can obtain one at http://mozilla.org/MPL/2.0/. -->
<svg xmlns="http://www.w3.org/2000/svg" viewBox="0 0 512 512">
  <path fill="#51BA7B" d="M487.82 258.67H439.1c-10.04 0-18.18-8.14-18.18-18.182s8.14-18.18 18.18-18.18h48.72c10.04 0 18.18 8.14 18.18 18.18s-8.14 18.18-18.18 18.18z"/>
  <path fill="#BADEBE" d="M415.747 69.674s-.387.603-1.06 1.667c-.19.28-.363.484-.637.8-.294.505-.672 1.205-1.057 1.933-.357.806-.812 1.618-1.2 2.6-.41.952-.832 1.982-1.232 3.082-.432 1.086-.782 2.248-1.19 3.426-.363 1.184-.74 2.396-1.063 3.615-.316 1.22-.645 2.445-.884 3.643-.286 1.22-.475 2.38-.68 3.523-.187 1.143-.307 2.215-.433 3.244-.04.505-.077.988-.118 1.457-.043.484-.07.94-.063 1.34-.008.81-.064 1.645 0 2.22.013.315.033.61.047.882 0 .14.007.273.015.4l.04.3c.114.777.162 1.26.162 1.26l.19 2.025c.364 3.895-2.5 7.348-6.396 7.712-2.83.266-5.42-1.178-6.774-3.468 0 0-.49-.826-1.308-2.353-.1-.19-.204-.393-.316-.604-.084-.203-.18-.413-.274-.63-.195-.448-.398-.932-.616-1.45-.484-1.058-.806-2.164-1.233-3.432-.217-.637-.398-1.275-.56-1.933-.175-.664-.35-1.35-.533-2.065-.3-1.387-.622-2.88-.876-4.393-.23-1.506-.49-3.09-.638-4.66-.195-1.582-.308-3.18-.42-4.783-.105-1.605-.146-3.202-.19-4.792 0-1.576-.026-3.145.044-4.665.034-1.513.125-2.998.238-4.42.077-1.408.28-2.802.414-4.063.188-1.31.37-2.48.588-3.622.3-1.31.622-2.53.853-3.41.31-1.213.477-1.914.477-1.914 1.968-7.887 9.967-12.692 17.856-10.724 7.894 1.975 12.69 9.968 10.725 17.862-.387 1.55-1.01 2.984-1.815 4.266l-.083.126zm-56.35 17.01c.566-1.408.923-2.92 1.036-4.518.56-8.11-5.562-15.145-13.68-15.705-8.12-.56-15.152 5.563-15.712 13.682 0 0-.05.715-.132 1.976-.097 1.07-.21 2.55-.258 4.133.014.666.055 1.234.09 1.913.05.638.064 1.366.155 2.025.174 1.33.308 2.823.595 4.245l.407 2.22c.168.73.335 1.48.51 2.235.323 1.527.784 3.033 1.19 4.575.478 1.526.91 3.068 1.458 4.574.518 1.52 1.065 3.02 1.654 4.483.55 1.464 1.21 2.893 1.805 4.26.638 1.378 1.276 2.695 1.905 3.935.694 1.254 1.255 2.41 1.948 3.496.665 1.087 1.226 2.053 1.864 2.937.622.882 1.08 1.61 1.618 2.248l1.59 1.94c1.85 2.256 4.973 3.244 7.887 2.235 3.74-1.29 5.715-5.373 4.426-9.107l-.47-1.338s-.167-.497-.468-1.366c-.162-.387-.303-1.052-.498-1.69-.204-.63-.357-1.477-.554-2.346-.217-.833-.344-1.89-.532-2.906-.153-1.058-.3-2.192-.427-3.362-.097-1.198-.23-2.396-.274-3.664-.085-1.247-.112-2.53-.12-3.797-.028-1.268.042-2.543.064-3.775.09-1.22.11-2.438.25-3.566.064-.56.12-1.12.175-1.66.076-.52.16-1.03.232-1.527.132-1.016.37-1.83.525-2.627.077-.407.21-.693.3-1.016.098-.294.182-.645.268-.84.188-.128.258-.148.342-.295l.75-1.83.08-.176z"/>
  <path fill="#8ACCA0" d="M456.112 143.24c-11.45-34.634-48.8-53.434-83.44-41.983-34.635 11.45-53.432 48.807-41.983 83.442 17.716 53.597 16.872 94.848-2.59 126.04-1.717 2.392-3.662 5.075-4.908 6.584-2.608 1.882-5.037 3.926-7.29 6.104-1.263.64-2.52 1.306-3.757 2.035 0 0-.99.58-2.85 1.674-.114.077-.155.112-.247.19-.04.034-.077.07-.125.11-.022.022-.03.036-.07.07l-.233.128c-.3.182-.63.37-.973.575-.364.203-.75.413-1.156.637-1.658.876-3.76 1.92-6.493 2.956-2.71 1.044-6.03 2.11-10.03 3.04-4.007.91-8.672 1.71-13.996 2.18-5.316.482-11.27.67-17.693.475-1.613-.056-3.25-.126-4.912-.224-1.597-.105-3.208-.21-4.826-.322-4.135-.393-8.31-.784-12.518-1.19-1.907-.17-3.875-.42-5.82-.624-1.963-.217-3.777-.47-5.682-.693-1.828-.26-3.656-.504-5.437-.777-1.765-.287-3.537-.553-5.288-.882-1.738-.294-3.538-.673-5.33-1.023l-2.775-.603c-.925-.203-1.864-.406-2.865-.652l-2.943-.693-3.095-.77c-2.136-.54-4.26-1.078-6.382-1.618-8.713-2.24-17.86-4.617-26.604-6.732l-1.64-.398-.2-.05-.1-.028c-1.233-.358-.398-.105-.7-.19l-.4-.07-.79-.147c-1.058-.182-2.11-.37-3.153-.56-2.634-.476-5.24-.953-7.824-1.415-.694-.133-1.337-.23-1.955-.322-.63-.097-1.26-.196-1.89-.287-1.255-.19-2.5-.372-3.74-.56-2.517-.317-4.967-.66-7.44-.925-9.863-1.1-19.447-1.646-28.545-1.62-9.107.05-17.682.61-25.54 1.662-7.84 1.023-14.95 2.522-21.05 4.175-3.055.827-5.893 1.716-8.42 2.578-2.564.89-4.862 1.773-6.85 2.592-2.033.847-3.79 1.646-5.205 2.326l-2.04 1c-.98.506-1.478.758-1.478.758-26.17 13.548-36.403 45.75-22.857 71.92 13.555 26.178 45.756 36.405 71.927 22.857l-1.45.735c-.3.14-.742.35-1.324.63-.344.155-.848.386-1.507.693-.252.134-.343.204-.21.21.168.016.503-.013 1.07-.062 1.164-.09 3.14-.26 5.956-.23 2.774 0 6.41.23 10.66.756 4.273.54 9.226 1.457 14.67 2.767 1.357.322 2.766.722 4.174 1.072.715.203 1.437.413 2.165.617l1.086.307c.38.105.736.203 1.024.302 1.394.44 2.808.88 4.23 1.33 1.766.575 3.545 1.15 5.338 1.73 7.824 2.473 15.71 5.093 24.357 7.98 2.226.742 4.46 1.477 6.708 2.22l3.496 1.142 3.692 1.17 1.864.59 1.946.587 3.923 1.176c2.703.77 5.386 1.555 8.174 2.27 2.76.75 5.527 1.414 8.294 2.086 2.745.658 5.464 1.248 8.168 1.843 2.634.54 5.344 1.12 7.9 1.604 2.585.475 5.108.98 7.705 1.428l7.587 1.31c2.208.364 4.407.722 6.6 1.086 1.443.217 2.885.427 4.315.644 1.366.182 2.724.37 4.077.553 2.71.352 5.427.667 8.138.947 10.85 1.128 21.682 1.647 32.23 1.513 10.543-.12 20.833-.932 30.48-2.29 9.665-1.367 18.688-3.314 26.715-5.55 8.028-2.213 15.053-4.74 20.79-7.06 1.43-.595 2.782-1.162 4.056-1.695 1.268-.568 2.458-1.093 3.565-1.59l.812-.364c.31-.146.617-.293.912-.433.6-.295 1.176-.568 1.73-.834 1.086-.54 2.073-1.023 2.955-1.464 1.92-.982 2.943-1.5 2.943-1.5l1.975-1.01c1.107-.567 2.2-1.17 3.285-1.807 4.71-2.77 8.938-6.043 12.68-9.695 2.102-1.074 4.168-2.266 6.186-3.588 18.693-12.238 30.142-28.256 38.55-40.018l.926-1.294.862-1.338c23.738-36.84 36.17-79.03 36.947-125.397.6-35.782-5.868-74.417-19.228-114.833z"/>
  <path fill="#FFF" d="M379.07 155.928l4.3 16.062h-.02c.006.028.026.028.033.042 1.688 6.31-2.06 12.798-8.363 14.486-6.312 1.688-12.8-2.06-14.487-8.364-.007-.014-.007-.02-.014-.05l-.05.015-4.302-16.063.14-.035c-1.057-5.99 2.55-11.887 8.532-13.492 5.97-1.597 12.048 1.71 14.116 7.425l.113-.027zm48.158-20.587c-2.697-5.45-9.107-8.047-14.858-5.79-5.765 2.262-8.693 8.53-6.97 14.366l-.133.05 6.08 15.48.05-.02c.007.02.007.026.014.04 2.388 6.08 9.255 9.072 15.335 6.684 6.08-2.38 9.07-9.254 6.682-15.334 0-.008-.027-.008-.034-.028l.02-.015-6.08-15.474-.105.04z"/>
  <path fill="#51BA7B" d="M386.722 311.106l40.557 17.233c9.246 3.93 13.554 14.61 9.63 23.858-3.93 9.253-14.618 13.56-23.865 9.632-.405-.175-.847-.38-1.24-.58l-39.143-20.224c-8.118-4.196-11.292-14.17-7.104-22.29 3.994-7.728 13.284-10.95 21.164-7.63"/>
  <path fill="#74C48D" d="M394.574 405.513c-12.623 0-25.31-3.56-36.185-10.523-2.647-1.694-3.418-5.212-1.724-7.858 1.693-2.645 5.212-3.415 7.857-1.723 15.343 9.825 35 11.5 51.304 4.37 2.88-1.256 6.232.053 7.49 2.932 1.26 2.878-.053 6.232-2.932 7.49-8.137 3.558-16.96 5.31-25.81 5.31zm-52.133 40.603c.157-3.138-2.26-5.81-5.395-5.966-14.406-.72-28.217-7.446-37.895-18.452-2.074-2.358-5.666-2.59-8.027-.515-2.36 2.075-2.59 5.668-.515 8.028 11.694 13.3 28.412 21.43 45.868 22.302.098.005.194.007.29.007 3.01 0 5.523-2.363 5.675-5.404zm81.465-133.345c15.644-.292 30.09-5.856 41.777-16.09 2.363-2.07 2.6-5.664.53-8.026-2.068-2.363-5.662-2.602-8.026-.532-9.64 8.443-21.568 13.033-34.493 13.275-3.14.06-5.64 2.653-5.58 5.794.056 3.105 2.592 5.582 5.683 5.582h.11z"/>
</svg>
