<!-- This Source Code Form is subject to the terms of the Mozilla Public
   - License, v. 2.0. If a copy of the MPL was not distributed with this
   - file, You can obtain one at http://mozilla.org/MPL/2.0/. -->
<svg height="16" width="16" xmlns="http://www.w3.org/2000/svg" viewBox="0 0 512 512" opacity="1.0">
  <path fill="#FFB636" d="M378.553 355.648L45.117 500.733c-21.735 8.65-43.335-12.764-34.874-34.572l145.71-338.683"/>
  <path fill="#FFD469" d="M10.243 466.16l11.58-26.915c.993-1.514 1.983-3.03 2.977-4.543 57.597-87.744 116.038-174.952 176.475-260.768l67.765 69.46C217.91 278.496 51.89 450.064 17.115 495.57c-7.57-6.962-11.25-18.127-6.872-29.41z"/>
  <path fill="#A06C33" d="M304.382 204.434c61.854 61.854 95.685 128.308 75.564 148.43-20.12 20.12-86.575-13.71-148.43-75.564s-95.685-128.308-75.564-148.43 86.575 13.71 148.43 75.564z"/>
  <path fill="#F7F9AA" d="M155.6 327.572c0 6.012-4.873 10.885-10.884 10.885s-10.885-4.873-10.885-10.885 4.874-10.885 10.886-10.885 10.885 4.873 10.885 10.885z"/>
  <path fill="#FFB636" d="M501.986 213.16c0 8.628-6.994 15.622-15.622 15.622s-15.622-6.994-15.622-15.622 6.994-15.622 15.622-15.622 15.622 6.994 15.622 15.622zM397.663 421.182c-8.628 0-15.622 6.994-15.622 15.622s6.995 15.622 15.623 15.622 15.622-6.994 15.622-15.622-6.995-15.622-15.622-15.622z"/>
  <path fill="#BEA4FF" d="M355.95 79.523c-1.34 9.065-7.198 17.072-16.07 21.968-6.127 3.38-13.33 5.138-20.808 5.138-2.354 0-4.734-.174-7.117-.526-5.288-.782-10.58.016-14.52 2.19-1.766.973-4.8 3.104-5.293 6.437-.492 3.332 1.796 6.25 3.203 7.693 3.058 3.135 7.725 5.38 12.85 6.22.14.015.28.02.42.04 21.62 3.197 37.062 20.32 34.422 38.174-1.34 9.066-7.197 17.073-16.07 21.97-6.127 3.38-13.33 5.136-20.807 5.136-2.354 0-4.734-.174-7.117-.526-5.287-.783-10.582.015-14.52 2.19-1.767.973-4.8 3.104-5.294 6.437-.79 5.35 5.777 12.41 16.47 13.99 5.816.86 9.835 6.274 8.975 12.092-.782 5.29-5.328 9.092-10.52 9.092-.52 0-1.043-.038-1.57-.116-21.62-3.196-37.06-20.32-34.422-38.173 1.34-9.067 7.197-17.074 16.07-21.97 8.056-4.444 17.973-6.082 27.925-4.61 5.288.78 10.58-.017 14.52-2.19 1.766-.974 4.8-3.105 5.293-6.438.778-5.262-5.576-12.17-15.962-13.898-.17-.017-.34-.03-.512-.056-9.95-1.472-18.97-5.908-25.395-12.493-7.076-7.254-10.366-16.614-9.025-25.68 1.34-9.066 7.197-17.073 16.07-21.97 8.055-4.443 17.972-6.08 27.924-4.61 5.285.78 10.58-.016 14.52-2.19 1.765-.973 4.8-3.104 5.292-6.437s-1.796-6.25-3.203-7.694c-3.143-3.22-7.978-5.516-13.268-6.297-5.817-.86-9.836-6.273-8.976-12.09.86-5.82 6.274-9.833 12.09-8.978 9.952 1.47 18.972 5.907 25.396 12.492 7.078 7.255 10.368 16.615 9.027 25.68z"/>
  <path fill="#FF6E83" d="M81.73 159.69c0 9.776-7.925 17.702-17.702 17.702s-17.703-7.926-17.703-17.703c0-9.778 7.926-17.704 17.703-17.704S81.73 149.91 81.73 159.69zm316.446-20.454c-11.296 0-20.452 9.157-20.452 20.452s9.157 20.452 20.452 20.452 20.452-9.157 20.452-20.452-9.156-20.452-20.452-20.452zM215.53 395.9c-11.297 0-20.453 9.156-20.453 20.45s9.157 20.453 20.452 20.453c11.295 0 20.45-9.157 20.45-20.452s-9.155-20.45-20.45-20.45zm271.302-93.647c3.093-5.99.745-13.352-5.244-16.445-2.388-1.232-5.238-2.868-8.538-4.76-28.993-16.634-89.32-51.243-160.352 6.108-5.245 4.234-6.063 11.92-1.83 17.163 4.234 5.244 11.918 6.064 17.164 1.828 58.035-46.856 104.882-19.985 132.87-3.928 3.404 1.952 6.618 3.796 9.484 5.276 1.79.925 3.705 1.363 5.59 1.363 4.42 0 8.688-2.41 10.856-6.607z"/>
  <path fill="#59CAFC" d="M434.834 62.776c0 6.012-4.874 10.885-10.885 10.885-6.013 0-10.886-4.872-10.886-10.884s4.873-10.885 10.885-10.885c6.01 0 10.884 4.874 10.884 10.886zM46.324 11.894c-6.012 0-10.885 4.873-10.885 10.885s4.872 10.884 10.884 10.884S57.21 28.79 57.21 22.78s-4.874-10.886-10.886-10.886zm170.68 142.057c1.232-2.413 2.75-5.162 4.357-8.072 8.155-14.77 19.32-35 19.993-58.56.807-28.303-13.934-54-43.812-76.38-5.186-3.884-12.538-2.827-16.42 2.358-3.884 5.186-2.83 12.538 2.357 16.42 23.75 17.79 35.01 36.412 34.425 56.934-.51 17.872-9.697 34.516-17.08 47.89-1.7 3.082-3.31 5.993-4.713 8.746-2.946 5.77-.655 12.836 5.115 15.78 1.708.873 3.53 1.286 5.323 1.286 4.267 0 8.384-2.338 10.457-6.4z"/>
</svg>