<svg xmlns="http://www.w3.org/2000/svg" width="16" height="16" viewBox="0 0 16 16" fill="context-fill" fill-opacity="context-fill-opacity"><path fill-rule="evenodd" d="M14 7.25h-3a.75.75 0 0 0-.75.75v6c0 .414.336.75.75.75h3a.75.75 0 0 0 .75-.75V8a.75.75 0 0 0-.75-.75ZM11 6a2 2 0 0 0-2 2v6a2 2 0 0 0 2 2h3a2 2 0 0 0 2-2V8a2 2 0 0 0-2-2h-3Z" clip-rule="evenodd"/><path fill-rule="evenodd" d="M1.255 4.63c0-.76.616-1.375 1.375-1.375h6.74c.76 0 1.375.616 1.375 1.375v.38c.084-.006.17-.01.255-.01h.995v-.37A2.625 2.625 0 0 0 9.37 2.005H2.63A2.625 2.625 0 0 0 .005 4.63v4.74a2.625 2.625 0 0 0 2.625 2.625h2.375v1.75H2.63a.625.625 0 1 0 0 1.25h5.539A2.995 2.995 0 0 1 8 14v-.255H6.255v-1.75H8v-1.25H2.63c-.76 0-1.375-.616-1.375-1.375V4.63Z" clip-rule="evenodd"/></svg>
