<svg xmlns="http://www.w3.org/2000/svg" viewBox="0 0 16 16" width="16" height="16" fill="context-fill" fill-opacity="context-fill-opacity">
  <path d="M1.5 3a2 2 0 1 1 4 0c0 2.089-.745 4.925-1.183 6.405a.84.84 0 0 1-.816.595.842.842 0 0 1-.817-.597C2.246 7.915 1.5 5.065 1.5 3Zm2-3a3 3 0 0 0-3 3c0 2.227.789 5.204 1.225 6.685A1.842 1.842 0 0 0 3.5 11c.81 0 1.54-.518 1.775-1.31C5.712 8.213 6.5 5.25 6.5 3a3 3 0 0 0-3-3Zm-1 14a1 1 0 1 1 2 0 1 1 0 0 1-2 0zm1-2a2 2 0 1 0 0 4 2 2 0 0 0 0-4zm9-10.293V15.5a.5.5 0 0 1-1 0V1.707L9.354 3.854a.5.5 0 0 1-.708-.708l3-3a.5.5 0 0 1 .708 0l3 3a.5.5 0 0 1-.708.708z"/>
</svg>
