<svg xmlns="http://www.w3.org/2000/svg" width="16" height="16" viewBox="0 0 16 16" fill="context-fill" fill-opacity="context-fill-opacity"><path fill-rule="evenodd" d="M9.568 11.951a.625.625 0 0 1-.02-.883l1.987-2.073h-7.07l1.986 2.073a.625.625 0 0 1-.902.864l-3-3.13a.625.625 0 0 1 .019-.884l3-2.87a.625.625 0 0 1 .864.904L4.557 7.745h6.886L9.568 5.952a.625.625 0 0 1 .864-.904l3 2.87a.625.625 0 0 1 .02.884l-3 3.13a.625.625 0 0 1-.884.02Z" clip-rule="evenodd"/><path d="M0 2.625a.625.625 0 1 1 1.25 0v10.75a.625.625 0 1 1-1.25 0V2.625ZM14.75 2.625a.625.625 0 1 1 1.25 0v10.75a.625.625 0 1 1-1.25 0V2.625Z"/></svg>
