<svg xmlns="http://www.w3.org/2000/svg" width="16" height="16" viewBox="0 0 16 16" fill="context-fill" fill-opacity="context-fill-opacity"><path fill-rule="evenodd" d="m12.499 9.154 1.326-1.326a4 4 0 0 0-5.657-5.656L6.842 3.497a.625.625 0 0 0 0 .884l4.773 4.773c.244.244.64.244.884 0ZM9.052 3.055a2.75 2.75 0 0 1 3.889 3.89l-.878.878-3.89-3.89.879-.878ZM3.497 6.842 2.172 8.168a4 4 0 0 0 5.656 5.657l1.326-1.326a.625.625 0 0 0 0-.884L4.381 6.842a.625.625 0 0 0-.884 0Zm3.448 6.099a2.75 2.75 0 0 1-3.89-3.89l.876-.875 3.889 3.89-.875.875Z" clip-rule="evenodd"/><path fill-rule="evenodd" d="M15.812.188a.625.625 0 0 1 0 .884l-2 2a.625.625 0 1 1-.884-.884l2-2a.625.625 0 0 1 .884 0Zm-8.37 6.37a.625.625 0 0 1 0 .884l-1.5 1.5a.625.625 0 0 1-.884-.884l1.5-1.5a.625.625 0 0 1 .884 0Zm2 2a.625.625 0 0 1 0 .884l-1.5 1.5a.625.625 0 1 1-.884-.884l1.5-1.5a.625.625 0 0 1 .884 0Zm-6.5 4.5a.625.625 0 0 1 0 .884l-1.87 1.87a.625.625 0 0 1-.884-.884l1.87-1.87a.625.625 0 0 1 .884 0Z" clip-rule="evenodd"/></svg>
