<svg xmlns="http://www.w3.org/2000/svg" width="16" height="16" viewBox="0 0 16 16" fill="context-fill" fill-opacity="context-fill-opacity"><path fill-rule="evenodd" d="M13.75 11.969c.16-.287.25-.617.25-.969V4a1.99 1.99 0 0 0-1.031-1.75A1.991 1.991 0 0 0 12 2H2a2 2 0 0 0-2 2v7a2 2 0 0 0 2 2h10a2 2 0 0 0 1.75-1.031ZM2.439.75c-.063.079-.12.162-.171.25H14a1 1 0 0 1 1 1v8.732A1.996 1.996 0 0 0 16 9V2a2 2 0 0 0-2-2H4c-.632 0-1.195.293-1.561.75ZM12 3.25H2a.75.75 0 0 0-.75.75v7c0 .414.336.75.75.75h10a.75.75 0 0 0 .75-.75V4a.75.75 0 0 0-.75-.75Z" clip-rule="evenodd"/></svg>
