<svg xmlns="http://www.w3.org/2000/svg" width="16" height="16" viewBox="0 0 16 16" fill="context-fill" fill-opacity="context-fill-opacity"><path d="M14.46 10.57c0 .258-.046.495-.137.713-.09.218-.228.41-.41.576-.179.163-.4.293-.664.391v.03c.446.094.781.286 1.006.575.228.29.342.668.342 1.133 0 .43-.091.803-.274 1.118-.179.316-.438.56-.776.733-.339.172-.744.259-1.216.259-.31 0-.59-.025-.845-.074a3.361 3.361 0 0 1-.805-.263V14.5c.244.143.49.252.737.327.247.075.485.112.713.112.364 0 .631-.088.8-.263.173-.18.26-.428.26-.747 0-.238-.048-.432-.142-.581a.797.797 0 0 0-.43-.337c-.195-.075-.45-.113-.762-.113h-.356v-1.127h.366c.277 0 .51-.041.698-.123a.917.917 0 0 0 .425-.36c.098-.16.147-.35.147-.567 0-.26-.069-.46-.205-.596-.134-.137-.33-.205-.591-.205-.13 0-.257.018-.381.054-.124.035-.247.09-.371.16s-.25.157-.381.264l-.527-.981c.293-.24.589-.41.888-.508a3.25 3.25 0 0 1 1.03-.151c.573 0 1.026.156 1.358.469.335.309.503.756.503 1.342ZM9.831 16H5.939v-.972l1.373-1.909c.292-.407.515-.744.668-1.01a2.99 2.99 0 0 0 .308-.713c.055-.209.083-.42.083-.635 0-.25-.06-.45-.18-.596-.118-.15-.294-.225-.528-.225-.185 0-.361.05-.527.147-.166.098-.352.272-.557.522l-.66-.888c.2-.235.395-.422.587-.562.195-.143.4-.246.615-.307.215-.062.448-.093.698-.093.378 0 .71.081.996.244.287.16.51.382.67.669.159.286.239.622.239 1.006 0 .315-.038.617-.113.903a3.65 3.65 0 0 1-.38.889 8.73 8.73 0 0 1-.738 1.05l-.952 1.25v.048h2.29V16ZM4.533 16H3.195v-4.61l.01-.43.02-.419a5.612 5.612 0 0 1-.38.469l-.621.64-.801-.792 1.919-1.997h1.191V16ZM13.942 1.94a.855.855 0 0 0-.546.186c-.157.124-.287.3-.391.527-.101.225-.178.49-.23.796a6.37 6.37 0 0 0-.073 1.001c0 .53.05.98.152 1.348.1.364.248.641.444.83a.987.987 0 0 0 .713.283c.221 0 .431-.037.63-.112.198-.075.395-.165.59-.269v1.221c-.205.114-.426.2-.664.259a3.114 3.114 0 0 1-.757.088c-.537 0-.994-.142-1.372-.425-.374-.287-.66-.702-.859-1.245-.199-.547-.298-1.21-.298-1.988 0-.533.056-1.023.166-1.47.114-.449.28-.838.498-1.166.218-.332.485-.59.801-.772A2.165 2.165 0 0 1 13.84.76c.286 0 .563.036.83.107.267.072.524.182.771.332l-.39 1.133a2.559 2.559 0 0 0-.532-.283 1.537 1.537 0 0 0-.577-.108ZM6.218.861h1.88c.735 0 1.285.145 1.65.435.368.286.552.727.552 1.323 0 .28-.04.53-.117.752a1.391 1.391 0 0 1-.328.542 1.147 1.147 0 0 1-.517.298v.049c.254.068.46.176.62.322.163.147.282.332.357.557.074.224.112.488.112.79 0 .424-.085.79-.254 1.1-.166.309-.407.548-.723.717-.316.17-.693.254-1.133.254h-2.1V.861ZM7.59 3.752h.508c.276 0 .481-.08.615-.24.137-.159.205-.393.205-.702 0-.27-.07-.476-.21-.616-.14-.143-.35-.215-.63-.215H7.59v1.773Zm0 1.089v2.007h.62c.273 0 .478-.085.615-.254.137-.17.205-.427.205-.772 0-.211-.034-.389-.102-.532a.724.724 0 0 0-.298-.332.889.889 0 0 0-.474-.117H7.59ZM4.113 8l-.37-1.719H2.154L1.785 8H.314L2.042.861h1.772L5.573 8h-1.46Zm-.58-2.91L3.145 3.2l-.078-.459c-.022-.15-.045-.293-.068-.43l-.054-.39c-.01.114-.024.24-.044.376a14.36 14.36 0 0 1-.156.884l-.38 1.909h1.166Z"/></svg>
