<?xml version="1.0" encoding="utf-8"?>
<!DOCTYPE svg PUBLIC "-//W3C//DTD SVG 1.1//EN" "http://www.w3.org/Graphics/SVG/1.1/DTD/svg11.dtd">

<svg version="1.1" id="aboutWordmark" xmlns="http://www.w3.org/2000/svg" xmlns:xlink="http://www.w3.org/1999/xlink" x="0px" y="0px" width="132px" height="48px" viewBox="0 0 132 48" xml:space="preserve">

  <path fill="#fff" d="M60.6,14.3l-2.4-2.4C57,12.7,56,13,54.7,13c-3,0-3.8-1.4-7.6-1.4c-5.4,0-9.2,3.4-9.2,8.4
  	c0,3.3,2.2,6.1,5.6,7.2c-3.4,1-4.5,2.2-4.5,4.3c0,2.2,1.8,3.6,4.7,3.6h3.8c2.5,0,3.9,0.2,4.9,0.9c0.9,0.6,1.4,1.6,1.4,3
  	c0,3.1-2.2,4.4-6,4.4c-2,0-3.8-0.5-5.1-1.2c-0.9-0.6-1.5-1.6-1.5-2.9c0-0.8,0.3-1.7,0.7-2.2l-4.1,0.4c-0.3,1-0.5,1.7-0.5,2.6
  	c0,3.5,3,6.4,10.8,6.4c6.1,0,9.9-2.5,9.9-7.9c0-2.1-0.8-3.9-2.7-5.3c-1.5-1.1-3.1-1.4-6-1.4h-4c-1.3,0-2-0.5-2-1.2
  	c0-0.8,1.1-1.7,4.5-2.9c1.8,0,3.4-0.3,4.7-1.1c2.3-1.4,3.7-4.1,3.7-6.8c0-1.6-0.5-3-1.5-4.3c0.4,0.2,1.1,0.3,1.7,0.3
  	C57.9,15.8,59,15.4,60.6,14.3z M47.1,24.8c-3.1,0-4.8-1.7-4.8-4.8c0-3.5,1.6-5.1,4.7-5.1c3.3,0,4.6,1.5,4.6,4.9
  	C51.6,23.1,50.1,24.8,47.1,24.8z M30.7,1.3c-1.7,0-3,1.4-3,3.1s1.4,3,3,3c1.7,0,3.1-1.3,3.1-3C33.7,2.7,32.4,1.3,30.7,1.3z
  	 M107.7,34.5c-1.1,0-1.4-0.6-1.4-2.5V6.5c0-3.8-0.6-5.9-0.6-5.9l-3.9,0.8c0,0,0.6,1.9,0.6,5.1v26.4c0,1.8,0.4,2.8,1.2,3.5
  	c0.7,0.7,1.7,1,2.9,1c1,0,1.5-0.1,2.5-0.5l-0.8-2.5C108.2,34.4,107.8,34.5,107.7,34.5z M74.7,11.6c-3.2,0-6.1,1.8-8.3,3.9
  	c0,0,0.2-1.8,0.2-3.4V6.3c0-3.8-0.7-5.9-0.7-5.9l-3.9,0.7c0,0,0.7,1.9,0.7,5.1V37h3.9V19.3c2.1-2.7,4.9-4.2,7.2-4.2
  	c1.3,0,2.3,0.4,2.9,1c0.7,0.7,0.9,1.8,0.9,3.7V37h3.8V19.1c0-1.8-0.1-2.6-0.4-3.6C80.4,13.2,77.7,11.6,74.7,11.6z M127.4,12.1
  	l-4.9,16.4c-0.6,2-1.6,5.2-1.6,5.2s-0.7-3.9-1.5-6.2l-5.1-16.2l-3.9,1.3l5.4,15.6c0.8,2.5,2.2,7.4,2.5,9l1.6-0.3
  	c-1.3,5.1-2.5,6.7-5.7,7.6l1.2,2.7c4.4-1,6.4-4.3,8-9.3l8.6-25.8H127.4z M96.9,15l1.2-2.9h-6.2c0-3.3,0.5-7.2,0.5-7.2l-4.1,0.9
  	c0,0-0.4,3.9-0.4,6.3h-3.2V15h3.2v17.1c0,2.5,0.7,4.1,2.4,5c0.9,0.4,1.9,0.7,3.3,0.7c1.8,0,3.1-0.4,4.4-1l-0.6-2.5
  	c-0.7,0.3-1.3,0.5-2.4,0.5c-2.4,0-3.2-0.9-3.2-3.7V15H96.9z M28.6,37h4.1V11.5l-4.1,0.6V37z M18.9,21.3c0,5,0.4,10.5,0.4,10.5
  	s-1.4-3.8-3.2-7.2L4.8,2.7H0V37h4.2L4,17.1c0-4.5-0.4-9.3-0.4-9.3s1.7,4.1,3.9,8.2l11,21h4.3V2.7h-4L18.9,21.3z"/>
	
</svg>
