<svg xmlns="http://www.w3.org/2000/svg" width="512" height="512"><defs><radialGradient id="a" cx="-41114.54" cy="-37248.438" r="214.628" gradientTransform="translate(54257.311 49219.919) scale(1.314)" gradientUnits="userSpaceOnUse"><stop offset=".467" stop-color="#0df" stop-opacity=".2"/><stop offset=".606" stop-color="#06dffa" stop-opacity=".214"/><stop offset=".748" stop-color="#18e7ec" stop-opacity=".256"/><stop offset=".889" stop-color="#35f2d5" stop-opacity=".326"/><stop offset="1" stop-color="#54ffbd" stop-opacity=".4"/></radialGradient><radialGradient id="b" cx="-12416.691" cy="-14775.525" r="23.73" gradientTransform="translate(157911.044 187788.707) scale(12.695)" gradientUnits="userSpaceOnUse"><stop offset=".434" stop-color="#7542e5" stop-opacity="0"/><stop offset=".561" stop-color="#7844e6" stop-opacity=".013"/><stop offset=".665" stop-color="#804be8" stop-opacity=".053"/><stop offset=".761" stop-color="#8d57ed" stop-opacity=".12"/><stop offset=".852" stop-color="#a068f3" stop-opacity=".214"/><stop offset=".939" stop-color="#b97efb" stop-opacity=".335"/><stop offset=".978" stop-color="#c689ff" stop-opacity=".4"/></radialGradient></defs><g data-name="Icon 80 (Full Color)"><path fill="#3a1b73" d="M133.322 430.484l43.919 33.811 21.075-44.121-64.994 10.31z"/><path fill="#0fbae2" d="M258.553 92.066l95.738-2.905-58.952-42.719-36.786 45.624z"/><path fill="#27c7d6" d="M347.179 46.121l-51.84.322 58.952 42.718-7.112-43.04z"/><path fill="#44ddca" d="M408.804 85.601l-30.99-42.74 42.894 25.696-11.904 17.044z"/><path fill="#42d4cb" d="M449.846 111.773l-41.042-26.172 11.904-17.044 29.138 43.216z"/><path fill="#2ac4d5" d="M408.804 85.601l-6.864 29.28 37.536 15.004-30.672-44.284z"/><path fill="#3dc9cc" d="M408.804 85.601l41.042 26.172-10.37 18.112-30.672-44.284z"/><path fill="#1ec4dc" d="M354.291 89.161l54.513-3.56-6.864 29.28-47.649-25.72z"/><path fill="#00c9ed" d="M354.291 89.161l-43.072 38.993 55.435 27.151-12.363-66.144z"/><path fill="#00c2ed" d="M258.553 92.066l95.738-2.905-43.072 38.993-52.666-36.088z"/><path fill="#28bad5" d="M401.94 114.881l26.069 50.563 11.467-35.559-37.536-15.004z"/><path fill="#2babd4" d="M428.009 165.444l11.467-35.559 27.312 64.969-38.779-29.41z"/><path fill="#39afcd" d="M439.476 129.885l41.625 30.489-14.313 34.48-27.312-64.969z"/><path fill="#35b9d0" d="M449.846 111.773l8.033-4.03 23.222 52.631-31.255-48.601z"/><path fill="#47b4c6" d="M481.101 160.374l9.275 8.696-32.497-61.327 23.222 52.631z"/><path fill="#36b6cf" d="M481.101 160.374l-31.255-48.601-10.37 18.112 41.625 30.489z"/><path fill="#45d5ca" d="M420.708 68.557l29.138 43.216 8.033-4.03-37.171-39.186z"/><path fill="#44a0c4" d="M499.65 236.246l-9.274-67.176 11.362 37.712-2.239 29.464h.151z"/><path fill="#47b4c6" d="M481.101 160.374l18.549 75.872-9.274-67.176-9.275-8.696z"/><path fill="#3ca4c9" d="M466.788 194.854l32.862 41.392-18.549-75.872-14.313 34.48z"/><path fill="#4782b9" d="M499.499 236.246l2.239-29.464L504 282.343l-4.35-46.097h-.151z"/><path fill="#477cb7" d="M494.143 295.961L504 282.343l-4.35-46.097-5.507 59.715z"/><path fill="#495fa9" d="M496.035 330.657l-7.882 3.798L504 282.343l-7.965 48.314z"/><path fill="#4372b8" d="M488.153 334.455L504 282.343l-9.857 13.618-5.99 38.494z"/><path fill="#4184c1" d="M494.143 295.961l5.507-59.715-16.883 19.918 11.376 39.797z"/><path fill="#485bac" d="M488.153 334.455l5.99-38.494-32.565 54.733 26.575-16.239z"/><path fill="#4192c3" d="M466.788 194.854l32.862 41.392-16.883 19.918-15.979-61.31z"/><path fill="#4170bb" d="M494.143 295.961l-11.376-39.797-17.168 49.02 28.544-9.223z"/><path fill="#443e93" d="M459.96 401.285l28.193-66.83-26.377 48.72-1.816 18.11z"/><path fill="#484da3" d="M461.776 383.175l26.377-48.72-26.575 16.239.198 32.481z"/><path fill="#4855a4" d="M488.154 334.455l-28.194 66.83 36.075-70.628-7.881 3.798z"/><path fill="#413587" d="M434.443 431.733l25.517-30.448 1.816-18.111-27.333 48.559z"/><path fill="#351967" d="M401.535 459.81l32.908-28.077-34.777 15.997 1.869 12.08z"/><path fill="#49278c" d="M209.474 479.368l-33.247 8.133 1.014-23.206 32.233 15.073z"/><path fill="#3c2679" d="M24.629 163.524l9.165-3.395-23.175 52.627 14.01-49.232z"/><path fill="#392272" d="M10.619 212.756l17.545-3.265 5.63-49.362-23.175 52.627z"/><path fill="#321762" d="M11.666 275.96l-1.047-63.204 17.545-3.265-16.498 66.469z"/><path fill="#09b7e4" d="M401.94 114.881l-35.286 40.424 61.355 10.139-26.069-50.563z"/><path fill="#466cb2" d="M94.022 73.419l45.04-30.819-40.195 19.98-4.845 10.839z"/><path fill="#4294c3" d="M98.867 62.58l61.799-36.173L139.063 42.6 98.867 62.58z"/><path fill="#4595c1" d="M139.063 42.6l56.431-26.901-34.828 10.708L139.063 42.6z"/><path fill="#00c3e9" d="M354.291 89.161l12.363 66.144 35.286-40.424-47.649-25.72z"/><path fill="#42a4c6" d="M173.433 39.466l52.568-21.024-30.507-2.743-22.061 23.767z"/><path fill="#46b9c8" d="M238.178 7.994l-42.684 7.705 30.507 2.742 12.177-10.447z"/><path fill="#39d1ce" d="M377.813 42.86l-30.634 3.261 61.625 39.48-30.991-42.741z"/><path fill="#44d3ca" d="M278.548 17.919l68.434 9.011-41.112-14.626-27.322 5.615z"/><path fill="#43e6c8" d="M377.814 42.861l-30.832-15.932 34.264 13.451-3.432 2.481z"/><path fill="#472888" d="M21.355 338.381l20.23 16.65-29.918-79.071 9.688 62.421z"/><path fill="#3c1e76" d="M300.566 495.622l17.784-41.877-64.814 17.414 47.03 24.463z"/><path fill="#351966" d="M318.35 453.745l54.179 15.036 3.288-41.902-57.467 26.866z"/><path fill="#3e277f" d="M399.666 447.73l-23.848-20.851 57.618-38.293-33.77 59.144z"/><path d="M381.246 40.38l-3.433 2.48 42.9 25.7zm-34.067 5.741l30.634-3.261-30.831-15.93z" fill="#3cd3cd"/><path fill="#44bcc9" d="M238.178 7.994l40.37 9.925 27.322-5.615-67.692-4.31z"/><path fill="#41d7cb" d="M346.982 26.93l-68.434-9.011 68.631 28.202-.197-19.191z"/><path fill="#2fc5d1" d="M278.549 17.919l16.79 28.523 51.84-.321-68.63-28.202z"/><path fill="#34bdd0" d="M278.549 17.919l16.79 28.523-55.922-4.505 39.132-24.018z"/><path fill="#3ab7cb" d="M226.001 18.441l13.416 23.496 39.132-24.018-52.548.522z"/><path fill="#38a6cc" d="M173.432 39.466l52.569-21.025 13.416 23.496-65.985-2.471z"/><path fill="#4294c3" d="M139.062 42.6l34.371-3.134 22.061-23.767L139.062 42.6z"/><path fill="#2f97d2" d="M173.433 39.466l35.67 32.551 30.314-30.08-65.984-2.471z"/><path fill="#4182c0" d="M173.432 39.466l-58.068 54.455L139.063 42.6l34.369-3.134z"/><path fill="#3477ca" d="M115.364 93.921l37.053 6.164 21.015-60.619-58.068 54.455z"/><path fill="#2986d6" d="M152.417 100.085l21.015-60.619 35.672 32.551-56.687 28.068z"/><path fill="#464d9f" d="M60.242 105.674L62.5 127.58l31.522-54.161-33.78 32.255z"/><path fill="#463f96" d="M33.794 160.129l26.448-54.455L62.5 127.58l-28.706 32.549z"/><path fill="#465ab0" d="M62.5 127.58l31.522-54.161 21.342 20.502L62.5 127.58z"/><path fill="#453895" d="M60.591 174.537L62.5 127.58l-28.706 32.549 26.797 14.408z"/><path fill="#4640a7" d="M60.591 174.537L62.5 127.58l37.251 30.246-39.16 16.711z"/><path fill="#4452b6" d="M99.751 157.826l15.613-63.905L62.5 127.58l37.251 30.246z"/><path fill="#3761c7" d="M99.751 157.826l15.613-63.905 37.053 6.164-52.666 57.741z"/><path fill="#402c85" d="M28.164 209.491l5.63-49.362 26.797 14.408-32.427 34.954z"/><path fill="#3c2378" d="M300.566 495.622l49.821-7.736 22.142-19.105-71.963 26.841z"/><path fill="#442683" d="M8 287.452l3.667-11.492-1.048-63.204L8 287.452z"/><path fill="#3d1d78" d="M41.584 355.031l24.681 3.461-17.283-40.352-7.398 36.891z"/><path fill="#452386" d="M64.614 400.906l25.939 4.989-24.289-47.403-1.65 42.414z"/><path fill="#4c2b8f" d="M21.355 338.381l29.46 57.982-9.23-41.332-20.23-16.65z"/><path fill="#492c8b" d="M8 287.452l13.355 50.929-9.688-62.421L8 287.452z"/><path fill="#422283" d="M66.264 358.492l-24.679-3.461 23.029 45.875 1.65-42.414z"/><path fill="#391b70" d="M26.985 263.424l14.6 91.607 7.397-36.891-21.997-54.716z"/><path fill="#402685" d="M28.164 209.491l34.827 53.882-2.4-88.836-32.427 34.954z"/><path fill="#341967" d="M26.985 263.424l21.997 54.716 14.009-54.767-36.006.051z"/><path fill="#381b70" d="M48.982 318.14l14.009-54.767 17.414 43.276-31.423 11.491z"/><path fill="#321762" d="M66.265 358.492l66.775 41.385-52.635-93.228-14.14 51.843z"/><path fill="#502e95" d="M50.815 396.363l13.799 4.543-23.029-45.875 9.23 41.332z"/><path fill="#38196f" d="M198.316 420.174l-21.075 44.121 76.295 6.864-55.22-50.985z"/><path fill="#381d70" d="M375.817 426.879l-3.288 41.902 27.137-21.051-23.849-20.851z"/><path fill="#371c6e" d="M26.985 263.424l36.006-.051-34.828-53.881-1.178 53.932z"/><path fill="#402588" d="M316.043 397.207l2.307 56.538 57.467-26.866-59.774-29.672z"/><path fill="#4235a6" d="M316.044 397.207l36.983-33.494 22.791 63.166-59.774-29.672z"/><path fill="#4339ad" d="M375.818 426.879l27.957-84.68-50.748 21.514 22.791 63.166z"/><path fill="#42339d" d="M433.436 388.586l-57.618 38.293 27.957-84.68 29.661 46.387z"/><path fill="#3f2f82" d="M33.794 160.129l26.448-54.455-35.613 57.85 9.165-3.395z"/><path fill="#367cc9" d="M442.54 227.528l23.058 77.655 17.17-49.019-40.228-28.636z"/><path fill="#338ccd" d="M482.767 256.164l-15.979-61.31-24.248 32.674 40.227 28.636z"/><path fill="#2d60d0" d="M403.775 342.199l61.824-37.015-59.921-26.678-1.903 63.693z"/><path fill="#275fd4" d="M403.775 342.199l-56.029-56.621 5.281 78.135 50.748-21.514z"/><path fill="#4043bb" d="M316.044 397.207l-43.018-38.092 80.001 4.598-36.983 33.494z"/><path fill="#321762" d="M66.264 358.492l14.142-51.843-31.424 11.491 17.282 40.352z"/><path fill="#4630a4" d="M273.027 359.115l-13.948 61.75 56.964-23.658-43.016-38.092z"/><path fill="#4733aa" d="M259.079 420.865l13.947-61.75-89.049 12.631 75.102 49.119z"/><path fill="#45309d" d="M62.991 263.373l17.865-57.029-20.265-31.807 2.4 88.836z"/><path fill="#1f69da" d="M99.751 157.826l78.396-22.856-41.409 84.606-36.987-61.75z"/><path fill="#1c6edb" d="M403.775 342.199l-56.029-56.621 57.932-7.072-1.903 63.693z"/><path fill="#2d70d2" d="M465.599 305.184l-23.059-77.656-36.862 50.978 59.921 26.678z"/><path fill="#1b6dda" d="M353.027 363.713l-64.074-61.963 58.793-16.172 5.281 78.135z"/><path fill="#2c58ca" d="M273.026 359.115l80.001 4.598-64.074-61.963-15.927 57.365z"/><path fill="#2c5acd" d="M273.026 359.115l-43.821-35.687 59.748-21.678-15.927 57.365z"/><path fill="#4854a5" d="M94.022 73.419l4.845-10.839-38.625 43.094 33.78-32.255z"/><path fill="#2b9cd4" d="M428.009 165.444l14.531 62.084 24.248-32.674-38.779-29.41z"/><path fill="#3e46bf" d="M99.751 157.826l36.987 61.75-55.882-13.232 18.895-48.518z"/><path fill="#423cb4" d="M80.856 206.344l55.882 13.232-37.791 59.532-18.091-72.764z"/><path fill="#1e82db" d="M178.147 134.97l30.957-62.953-56.687 28.068 25.73 34.885z"/><path fill="#41248a" d="M62.991 263.373l35.956 15.735-18.542 27.541-17.414-43.276z"/><path fill="#4438b0" d="M142.568 350.694l5.829-86.61-49.45 15.024 43.621 71.586z"/><path fill="#3d46bf" d="M142.568 350.694l86.637-27.266-80.808-59.344-5.829 86.61z"/><path fill="#1f67d8" d="M229.205 323.428l-8.443-66.963-72.365 7.619 80.808 59.344z"/><path fill="#0b87e6" d="M220.762 256.465l61.109-22.855 7.082 68.14-68.191-45.285z"/><path fill="#3e46bf" d="M183.977 371.746l89.049-12.631-43.821-35.687-45.228 48.318z"/><path fill="#4338ab" d="M183.977 371.746l-41.409-21.052 86.637-27.266-45.228 48.318z"/><path fill="#0493ea" d="M178.147 134.97l53.068 5.614-22.111-68.567-30.957 62.953z"/><path fill="#01a1e9" d="M258.553 92.066l-49.449-20.049 22.111 68.567 27.338-48.518z"/><path fill="#00aef1" d="M258.553 92.066l52.666 36.088-80.004 12.43 27.338-48.518z"/><path fill="#00a9f0" d="M231.215 140.584l78.476 41.621-27.82 51.405-50.656-93.026z"/><path fill="#00b6f6" d="M309.691 182.205l1.528-54.051-80.004 12.43 78.476 41.621z"/><path fill="#00c1f7" d="M309.691 182.205l1.528-54.051 55.435 27.151-56.963 26.9z"/><path fill="#0099ec" d="M231.215 140.584l50.656 93.026-88.849-44.508 38.193-48.518z"/><path fill="#088ce8" d="M220.762 256.465l61.109-22.855-88.849-44.508 27.74 67.363z"/><path fill="#00a9f1" d="M281.871 233.61l78.361-14.315-50.541-37.09-27.82 51.405z"/><path fill="#00b3f5" d="M366.654 155.305l-6.422 63.99-50.541-37.09 56.963-26.9z"/><path fill="#00aaf1" d="M366.654 155.305l36.987 50.237-43.409 13.753 6.422-63.99z"/><path fill="#01ade8" d="M428.009 165.444l-61.355-10.139 36.987 50.237 24.368-40.098z"/><path fill="#456ab7" d="M115.364 93.921L139.062 42.6l-45.04 30.819 21.342 20.502z"/><path fill="#1498e1" d="M428.009 165.444l-24.369 40.098 38.9 21.986-14.531-62.084z"/><path fill="#128de1" d="M405.678 278.506l36.862-50.978-38.899-21.986 2.037 72.964z"/><path fill="#009aea" d="M405.678 278.506l-2.037-72.964-43.409 13.753 45.446 59.211z"/><path fill="#2470d8" d="M99.752 157.825l78.395-22.855-25.729-34.884-52.666 57.739z"/><path fill="#019bec" d="M281.871 233.61l65.875 51.968 12.486-66.283-78.361 14.315z"/><path fill="#0a8ae6" d="M288.953 301.75l58.793-16.172-65.875-51.968 7.082 68.14z"/><path fill="#068de8" d="M178.147 134.97l14.875 54.132 38.193-48.518-53.068-5.614z"/><path fill="#1279e1" d="M178.147 134.97l-41.409 84.606 56.284-30.474-14.875-54.132z"/><path fill="#1675df" d="M193.022 189.102l-44.625 74.982 72.365-7.619-27.74-67.363z"/><path fill="#1771dd" d="M220.763 256.466l8.442 66.962 59.748-21.678-68.19-45.284z"/><path fill="#2164d6" d="M148.397 264.084l44.626-74.982-56.285 30.474 11.659 44.508z"/><path fill="#4044bd" d="M98.947 279.108l37.791-59.532 11.659 44.508-49.45 15.024z"/><path fill="#522f9a" d="M136.205 474.988l40.022 12.513-61.16-39.463 21.138 26.95z"/><path fill="#331865" d="M133.322 430.484l64.994-10.31-65.276-20.297.282 30.607z"/><path fill="#341867" d="M253.536 471.159l5.543-50.294-60.763-.691 55.22 50.985z"/><path fill="#371b6e" d="M318.35 453.745l-17.784 41.877 71.963-26.841-54.179-15.036z"/><path fill="#452a98" d="M62.991 263.373l17.865-57.029 18.091 72.764-35.956-15.735z"/><path fill="#463cab" d="M80.856 206.344l18.896-48.519-39.161 16.712 20.265 31.807z"/><path fill="#088be7" d="M360.232 219.295l-12.486 66.283 57.932-7.072-45.446-59.211z"/><path fill="#442590" d="M98.947 279.108l-18.541 27.541 62.161 44.046-43.62-71.587z"/><path fill="#3e1f80" d="M80.406 306.649l52.634 93.228 9.527-49.182-62.161-44.046z"/><path fill="#3d207e" d="M183.976 371.745l-41.409-21.05-9.527 49.182 50.936-28.132z"/><path fill="#391d72" d="M183.976 371.745l-50.936 28.132 65.276 20.297-14.34-48.429z"/><path fill="#402284" d="M183.976 371.745l14.34 48.429 60.763.691-75.103-49.12z"/><path fill="#361a68" d="M259.079 420.865l-5.543 50.294 64.814-17.414-59.271-32.88z"/><path fill="#412084" d="M259.079 420.865l59.271 32.88-2.307-56.538-56.964 23.658z"/><path fill="#48278a" d="M177.241 464.295l-62.174-16.257 61.16 39.464 1.014-23.207z"/><path fill="#462587" d="M177.241 464.295l-43.919-33.811-18.255 17.554 62.174 16.257z"/><path fill="#432484" d="M253.536 471.159l.962 31.77 46.068-7.307-47.03-24.463z"/><path fill="#412280" d="M253.536 471.159l-76.295-6.864 32.233 15.073 44.062-8.209z"/><path fill="#432384" d="M253.536 471.159l-44.062 8.209 45.024 23.561-.962-31.77z"/><path fill="#45278a" d="M209.474 479.368l-33.247 8.134 78.271 15.427-45.024-23.561z"/><path fill="#46298b" d="M176.227 487.502l-40.022-12.514 44.246 19.248-4.224-6.734z"/><path fill="#46298b" d="M176.227 487.502l4.224 6.734 74.047 8.693-78.271-15.427z"/><path fill="#4a268d" d="M90.553 405.895l-25.939-4.989 50.453 47.132-24.514-42.143z"/><path fill="#4e2892" d="M64.614 400.906l-13.799-4.543 20.777 28.005-6.978-23.462z"/><path fill="#4e2893" d="M64.614 400.906l6.978 23.462 43.475 23.67-50.453-47.132z"/><path fill="#4e2a93" d="M71.592 424.368l64.613 50.62-21.138-26.95-43.475-23.67z"/><path fill="#4f2b94" d="M71.592 424.368l28.731 26.345 35.882 24.275-64.613-50.62z"/><path fill="#3c1b75" d="M66.264 358.492l24.289 47.403 42.487-6.018-66.776-41.385z"/><path fill="#3a1b72" d="M90.553 405.895l42.769 24.589-.282-30.607-42.487 6.018z"/><path fill="#451f86" d="M90.553 405.895l24.514 42.143 18.255-17.554-42.769-24.589z"/><path fill="#442c87" d="M254.498 502.929l38.664 1.077 7.404-8.384-46.068 7.307z"/><path fill="#442a86" d="M293.162 504.006l57.225-16.12-49.821 7.736-7.404 8.384z"/><path fill="#4341a3" d="M461.578 350.695l-57.803-8.497 29.662 46.388 28.141-37.891z"/><path fill="#403696" d="M461.578 350.695l-28.141 37.891 28.339-5.412-.198-32.479z"/><path fill="#3d287e" d="M399.666 447.73l34.777-15.997 27.333-48.559-62.11 64.556z"/><path fill="#43338c" d="M433.437 388.586l-33.771 59.144 62.11-64.556-28.339 5.412z"/><path fill="#4259ba" d="M465.598 305.183l-61.823 37.015 57.803 8.497 4.02-45.512z"/><path fill="#4355b6" d="M465.598 305.183l-4.02 45.512 32.565-54.734-28.545 9.222z"/><path fill="#351966" d="M28.163 209.492L11.667 275.96l15.318-12.536 1.178-53.932z"/><path fill="#3c2074" d="M11.667 275.96l29.918 79.071-14.6-91.607-15.318 12.536z"/><path fill="#28c7d6" d="M347.179 46.121l7.112 43.04 54.513-3.56-61.625-39.48z"/><path fill="#19aadd" d="M239.417 41.937l19.136 50.129 36.786-45.623-55.922-4.506z"/><path fill="#1aa7dd" d="M239.417 41.937l-30.314 30.08 49.45 20.049-19.136-50.129z"/><path fill="#371e6d" d="M372.529 468.781l-22.142 19.105 51.148-28.076-29.006 8.971z"/><path fill="#321762" d="M399.666 447.73l-27.137 21.051 29.006-8.971-1.869-12.08z"/><path fill="#44bcc9" d="M238.178 7.994l-12.177 10.447 52.548-.522-40.371-9.925z"/><path d="M504 282.293v-.072-.044l-2.252-75.208v-.031-.055c0-.019-.009-.051-.014-.077s-.012-.067-.021-.1v-.023l-11.308-37.529v-.008a.244.244 0 00-.01-.024 1.1 1.1 0 00-.023-.061.808.808 0 00-.035-.08c0-.011-.008-.023-.013-.034l-32.367-61.057c-.006-.011-.014-.019-.02-.03a1.17 1.17 0 00-.076-.116l-.023-.033-.035-.037c-.012-.013-.013-.019-.022-.028l-37-39.009-.018-.016-.025-.025c-.022-.02-.046-.038-.07-.056s-.03-.03-.048-.043h-.006l-.008-.006-39.274-28.045-.019-.01-.038-.026c-.026-.016-.054-.028-.081-.043s-.056-.03-.084-.042l-.019-.009-34.086-13.38-.021-.008h-.016l-.017-.008h-.007L306.02 12.353c-.013 0-.026 0-.039-.009s-.052-.016-.079-.022l-.072-.016c-.025 0-.05-.006-.075-.009s-.025-.005-.039-.006L238.329 8H238.3a.786.786 0 00-.083.005 1.034 1.034 0 00-.111.007h-.043l-42.492 7.67-.025.008c-.013 0-.026 0-.038.006l-.028.009c-.026.007-.051.012-.076.021l-34.638 10.652h-.012c-.025.008-.05.02-.076.031s-.06.024-.089.039-.03.013-.044.021l-.015.007-61.522 36.016L99 62.5l-.051.036a.476.476 0 00-.047.031c-.015.011-.028.024-.042.036s-.025.018-.037.029-.029.031-.044.047-.023.019-.033.03l-.015.017-38.441 42.883c-.006.007-.009.015-.015.021l-.027.032-.026.035a.539.539 0 00-.033.05.184.184 0 00-.017.022l-.013.021-35.441 57.569a.336.336 0 00-.016.033.718.718 0 00-.063.13c-.009.023-.021.053-.03.08 0 .012-.01.022-.013.035l-13.947 49.01v.02c0 .012-.007.023-.01.036V212.731c-.005.025-.006.051-.01.077s-.008.055-.01.082v.021L8 287.271v.116c0 .023.005.046.008.069a.912.912 0 00.017.091c0 .015 0 .029.007.044l.008.031 13.287 50.668.006.02a.243.243 0 00.013.038.9.9 0 00.042.106c.008.018.012.036.021.053v.015l29.32 57.705.006.009c.005.01.013.018.018.028a.937.937 0 00.059.095c.006.008.009.018.016.027l20.671 27.861.005.006.006.008.009.01.026.033c.018.023.04.042.061.064s.028.035.045.05l28.6 26.227c.022.02.047.035.071.054s.036.033.057.047l35.721 24.166a.179.179 0 00.024.012h.009c.028.017.055.035.085.05l.045.023.017.009 44.047 19.161c.015.006.03.008.044.014a.976.976 0 00.1.033l.051.014c.026.006.052.01.078.014s.029.008.045.01l73.715 8.654h.099L292.964 504H293.005a1.1 1.1 0 00.216-.022c.015 0 .03-.01.045-.014h.031l56.968-16.047c.011 0 .021-.01.032-.013s.034-.008.051-.014.029-.015.044-.021l.031-.015c.022-.01.045-.018.067-.03h.009l.023-.013 50.888-27.934.015-.009.021-.012c.029-.018.056-.039.083-.059.023-.017.048-.03.069-.048l32.759-27.95c.013-.011.022-.024.034-.035s.029-.025.043-.04l.041-.044.013-.013 25.4-30.3v-.006l.01-.014a1.334 1.334 0 00.09-.132c.009-.016.021-.031.03-.047l.008-.014 35.913-70.311a.538.538 0 00.02-.051.9.9 0 00.038-.084c0-.013.006-.026.01-.039a.936.936 0 00.024-.091c0-.02.012-.039.015-.059l7.927-48.085v-.01a.283.283 0 010-.029c0-.013 0-.027.006-.04s.021-.048.021-.062zM101.714 448.962l-7.409-6.794 16.663 13.055zm108.117 28.243L183.8 465.031l61.623 5.543zm9.5-221.692l-68.355 7.2 42.152-70.826zm-23.86-63.785l83.512 41.834-57.443 21.482zm24.486 65.954L227.9 320.7l-76.043-55.844zm6.948 65.04l-82.6 26 5.558-82.577zm-4.571-63.989l64.025 42.517-56.1 20.354zm1.02-1.992l57.446-21.486 6.657 64.056zm88.264-74l53.24-25.142-6 59.808zm45.414 36.086l-73.19 13.37 25.985-48.012zm-75.275 12.547l-47.68-87.56 73.866 39.175zm-2.671-.249l-84.059-42.109 36.134-45.9zm-129.8 30.065l-10.715-40.89 51.713-28zm-7.082 85.5l-40.852-67.043 46.312-14.07zm83.418-21.237l-41.561 44.4-38.054-19.343zm61.536-22.131l-14.823 53.389-40.788-33.211zm-4.02-67.109l61.785 48.741-55.143 15.168zm1.24-1.854l74-13.517-11.791 62.589zm76.666-16.472l5.936-59.142 34.185 46.431zm40.865-10.616L403.8 275l-42.188-54.96zm-91.291-26.515l1.421-50.271 51.557 25.252zm-2.227-.043L234.8 141.687l75.019-11.656zm-114.594 6.266L180 136.791l49.206 5.2zm-1.8 1.865l-52.2 28.261 38.4-78.46zM147.532 263.3L102.2 277.068l34.645-54.576zm-8.21 82.949l-56.6-40.1 16.883-25.076zm4.568 5.684l38.037 19.336-46.789 25.842zm85.538-27.286l40.849 33.265-83.009 11.774zm59.95-21l60.289 58.3-75.275-4.326zm1.6-1.546l55.337-15.221 4.971 73.54zm69.42-79.985l42.54 55.424-54.228 6.62zm43.748-14.408l35.926 20.306-34.044 47.081zm.379-2.34l22.248-36.608 13.267 56.682zm-1.636-1.594L368.675 157.3l56.756 9.38zm-89.955-75.319l40.186-36.384 11.536 61.713zm-79.513 11.2l25.5-45.246 49.115 33.654zm-53.221-5.078l28.9-58.772 20.643 64.013zm-43.023 82.832l-35.028-58.478 74.244-21.645zm-37.069 58.8l-16.945-68.141L135.5 220.46zm-18.665 27.848l-15.536-38.609 32.079 14.039zm60.4 46.7l-8.773 45.288L84.607 310.2zm41.778 22.108l13.291 44.889-60.5-18.814zm87.883-12.89l-13.176 58.337-70.953-46.405zm78.37 4.207l-34.112 30.895-39.678-35.136zm-1.231-75.831l52.52 53.074-47.563 20.168zm1.072-2.081l54.135-6.608-1.778 59.518zm91.56-56.132l21.625 72.826-56.19-25.017zM429.024 168.6l35.268 26.747-22.053 29.715zm-60.717-13.616l32.739-37.5 24.187 46.913zm-1.477-1.692L355.372 92l44.159 23.836zm-55.954-25.979l-48.9-33.5 88.886-2.7zm-79.27 11.025l-20.5-63.57 45.847 18.587zm-53.3-4.96l-23.74-32.186 52.3-25.9zm-1.65 1.513l-72.714 21.2 48.849-53.555zm-41.691 83.158L83.143 205.78l17.522-44.992zm-36.939 59.03l-32.808-14.358 16.3-52.035zm-18.294 28.692l-28.219 10.32 12.581-49.183zM130.489 396l-62.08-38.475 13.147-48.2zm63.211 23.083l-58.726 9.317-.254-27.654zm-7.473-45.27l69.041 45.155-55.859-.635zm87.394-13.083l40.085 35.5-53.082 22.045zm78.486 4.436l21.184 58.717-55.562-27.583zm1.893-1.327l47.289-20.047-26.056 78.908zm52.074-83.745l56.181 25.013-57.965 34.7zm37.619-49.659l36.734 26.148-15.678 44.761zm-.417-3.027l22.078-29.75 14.55 55.823zm-14.734-61.965l10.252-31.79 24.417 58.082zM427 162.961l-23.359-45.308 33.632 13.447zm-69.224-72.193l48.915-3.2-6.159 26.273zm-96.85.851l34.439-42.714L350.558 88.9zm-2.034-1.019L241.16 44.149l51.816 4.174zm-2.3.216l-45.3-18.365 27.768-27.554zm-101.767 7.769L174.3 42.4l33.062 30.17zM102.569 154.3l14.264-58.381 33.85 5.632zM81.4 204.117L63.111 175.41l35.344-15.082zm-.977 2.61l-15.632 49.908-2.1-77.742zm-18 57.725l-12.748 49.837L29.659 264.5zm-33.272-2.174l1.069-48.928 31.6 48.881zm50.4 45.925l-12.67 46.453L51.4 318.5zm50.849 90.356l-38.475 5.45-21.993-42.926zm2.089 1.949l.251 27.257-38.09-21.9zm64.168 20.356l-19.476 40.773-40.581-31.246zm2.271.412l51.463 47.515-71.1-6.4zm2.524-.7l56.371.64-5.143 46.658zm113.274-22.366l2.15 52.711-55.26-30.655zm2.237.193l55.757 27.677-53.606 25.059zm86.472-54.021l27.678 43.287-53.767 35.731zm1.927-1.118l53.292 7.832-25.946 34.935zm.993-2.1l57-34.128L459.65 349zm75.287-81.326l10.065 35.217-25.258 8.16zm-13.393-59.887l28.869 36.361-14.832 17.5zm-27.015-66.23l37.494 27.463-12.893 31.056zm-38.647-18.882l6.043-25.778 27 38.987zm-47.8-26.1l-6.511-39.389 56.395 36.129zm-2.475-1.316l-53.751-38.948 47.264-.294zM242.975 42.066l35.088-21.536 15.055 25.576zM209.282 71.31l-32.488-29.647 60.1 2.251zm-57.145 28.226L118.4 93.923l52.877-49.586zm-52.349 56.759l-34.521-28.029 48.989-31.191zm-1.467 1.673l-35.669 15.221 1.74-42.769zM62.637 259.4L30.59 209.822l29.839-32.163zm-13.883 58.567L42.672 348.3l-12-75.311zm1.544 3.625l15.019 35.064-21.447-3.007zM89.264 403.7l-22.641-4.355 1.441-37.022zm42.77 26.225l-16.085 15.466-21.6-37.13zm1.919 1.24l38.622 29.735-54.675-14.3zm126.036-9.257l55.14 30.588-60.3 16.2zm114.031 6.019L371 466.391l-49.737-13.8zm55.326-36.412l-30.617 53.621-21.622-18.9zm30.216-37.907l.171 28.079-24.5 4.678zm6.141-47.814l24.907-8.048-28.416 47.761zm17.28-49.364l14.141-16.682-4.613 50.013zm-15.862-61.48l12.695-30.58 16.451 67.291zm-27.01-64.808l8.919-15.577 26.883 41.8zm-1.549-1.774l-26.384-38.093 35.305 22.513zm-88.53-80.534l26.711-2.842 27.02 37.265zM295.8 46.27l-14.713-25 60.142 24.714zm-55.908-4.918L228.041 20.6l46.407-.462zm-2.356.363l-58.452-2.189L225.649 20.9zM119.4 89.932l20.93-45.325 30.354-2.767zm-3.761 2.833l-19.133-18.38 40.38-27.629zm-1.434 1.707l-47.572 30.289L95 76.022zm-53.777 78.61l-23.875-12.837 25.576-29zm-.753 2.119l-29 31.256 5.035-44.14zm-32.764 87.655L14.65 272.889l13.2-53.2zm.307 2.622L39.732 344l-25.645-67.777zm38.747 93.512l-1.436 36.9-20.037-39.91zm24.621 47.225L110.94 441.2l-41.89-39.128zm85.856 57.985l-.885 20.269-53.418-34.468zm2.192.866l27.721 12.962-28.592 7zm73.839 6.45l.861 28.429-40.29-21.083zm63.68-17L299.811 493l-43.217-22.48zm2.561-.334l49.7 13.792L302.4 492.6zm57.5-25.78l21.056 18.409-23.957 18.589zm57.137-39.422l24.274-4.636-53.2 55.294zm28.585-10.729l-.166-27.368 22.396-13.683zm1.969-31.278l27.18-45.683-5 32.129zm34.661-98.654l3.169 33.588-7.182 9.924zm-16.507-84.146l6.215 5.827 6.212 44.993zM450.58 112.86l5.845-2.933 16.9 38.293zm-40.886-26.806l10.258-14.688 25.11 37.241zm-1.594-1.606l-26.741-36.882 37.015 22.175zM347.871 45.83l-.165-16.03 25.76 13.31zm-2.233-.432l-58.876-24.193 58.708 7.73zM229.174 18.369l9.375-8.044 31.082 7.641zm-51.19 19.2l18.227-19.636 25.2 2.266zm-4.708 1.8l-27.6 2.517 45.318-21.6zM97.374 71.1l3.053-6.83 25.33-12.59zm-33.248 53.544l-1.842-17.867 27.552-26.308zm-1.915 3.144l-22.847 25.905 21.05-43.34zm-34.038 80.97l-14.585 2.714 19.265-43.749zm-.484 2.351l-13.953 56.22-.886-53.459zM40.026 351.07l-16.582-13.648-7.944-51.167zm23.251 47.29l-10.591-3.487-7.086-31.724zm45.268 43.652l-35.189-19.158-5.648-18.991zm6.418 6.026l15.237 19.426-46.573-36.487zm5.7 3.661l48.444 31.258-31.7-9.911zm88.875 27.842l37.649 19.7-65.449-12.9zm45.18-7.489l42.145 21.922-41.283 6.547zm111.868-1.022l-17.11 14.763-38.5 5.978zm31.623-22.13l1.425 9.21-22.117 6.841zm57.391-59.231l-22.749 40.414L403.9 443.4zm6.342-6.736l15.23-28.133-16.282 38.6zm32.195-86.717l5.751-7.946-9.245 30.4zm5.534-59.966v-.052-.014l-.081-.59.572-7.532.584 19.5zm-1.529-11.091l-5.756-41.687 7.127 23.652zm-17.123-65.009l-10.5-23.8 14.7 27.736zm-31.667-49.161l-20.975-31.108 26.757 28.207zm-70.067-67.257l1.4-1.013 16.124 11.513zm-2.116-1.215l-10.9-5.633 12.117 4.756zm-92.035-23.768l20.431-4.2 30.744 10.938zm-6.665-.9l-27.82-6.839 46.651 2.971zm-52.7.51l-21.7-1.95 30.362-5.481zM149.192 37.75l12.416-9.306 20.015-6.154zM139 42.61l-10.768 5.352 16.556-9.69zM93.82 73.589l-12.774 12.2 14.607-16.3zm-59.836 86.085l-5.679 2.1 22.067-35.845zm-7.4 5.111l6.13-2.271-15.5 35.2zm-15.262 91.331l.324 19.59-1.136 3.562zm1.065 24.6l5.59 36.009-7.7-29.38zM41.543 355.2l7.177 32.138-22.907-45.085zm23.028 45.926l4.983 16.754-14.836-20zM175.859 487.4l2.079 3.315-21.776-9.473zm5.591 4.726l-2.556-4.075 47.37 9.336zm116.034 4l-4.98 5.638-26-.724zm3.452-.547l31-4.813-35.6 10.029zm71.622-26.764l18.179-5.623-32.055 17.6zm29.119-12.064l-1.427-9.226 26.562-12.219zm57.536-68.969l-1.243 12.4-17.47 20.844zm28.762-52.863l4.489-2.163-20.546 40.224zm5.978-5.348L488.914 332l10.129-33.309z" fill="url(#a)"/><path d="M504 282.293v-.072-.044l-2.252-75.208v-.031-.055c0-.019-.009-.051-.014-.077s-.012-.067-.021-.1v-.023l-11.308-37.529v-.008a.244.244 0 00-.01-.024 1.1 1.1 0 00-.023-.061.808.808 0 00-.035-.08c0-.011-.008-.023-.013-.034l-32.367-61.057c-.006-.011-.014-.019-.02-.03a1.17 1.17 0 00-.076-.116l-.023-.033-.035-.037c-.012-.013-.013-.019-.022-.028l-37-39.009-.018-.016-.025-.025c-.022-.02-.046-.038-.07-.056s-.03-.03-.048-.043h-.006l-.008-.006-39.274-28.045-.019-.01-.038-.026c-.026-.016-.054-.028-.081-.043s-.056-.03-.084-.042l-.019-.009-34.086-13.38-.021-.008h-.016l-.017-.008h-.007L306.02 12.353c-.013 0-.026 0-.039-.009s-.052-.016-.079-.022l-.072-.016c-.025 0-.05-.006-.075-.009s-.025-.005-.039-.006L238.329 8H238.3a.786.786 0 00-.083.005 1.034 1.034 0 00-.111.007h-.043l-42.492 7.67-.025.008c-.013 0-.026 0-.038.006l-.028.009c-.026.007-.051.012-.076.021l-34.638 10.652h-.012c-.025.008-.05.02-.076.031s-.06.024-.089.039-.03.013-.044.021l-.015.007-61.522 36.016L99 62.5l-.051.036a.476.476 0 00-.047.031c-.015.011-.028.024-.042.036s-.025.018-.037.029-.029.031-.044.047-.023.019-.033.03l-.015.017-38.441 42.883c-.006.007-.009.015-.015.021l-.027.032-.026.035a.539.539 0 00-.033.05.184.184 0 00-.017.022l-.013.021-35.441 57.569a.336.336 0 00-.016.033.718.718 0 00-.063.13c-.009.023-.021.053-.03.08 0 .012-.01.022-.013.035l-13.947 49.01v.02c0 .012-.007.023-.01.036V212.731c-.005.025-.006.051-.01.077s-.008.055-.01.082v.021L8 287.271v.116c0 .023.005.046.008.069a.912.912 0 00.017.091c0 .015 0 .029.007.044l.008.031 13.287 50.668.006.02a.243.243 0 00.013.038.9.9 0 00.042.106c.008.018.012.036.021.053v.015l29.32 57.705.006.009c.005.01.013.018.018.028a.937.937 0 00.059.095c.006.008.009.018.016.027l20.671 27.861.005.006.006.008.009.01.026.033c.018.023.04.042.061.064s.028.035.045.05l28.6 26.227c.022.02.047.035.071.054s.036.033.057.047l35.721 24.166a.179.179 0 00.024.012h.009c.028.017.055.035.085.05l.045.023.017.009 44.047 19.161c.015.006.03.008.044.014a.976.976 0 00.1.033l.051.014c.026.006.052.01.078.014s.029.008.045.01l73.715 8.654h.099L292.964 504H293.005a1.1 1.1 0 00.216-.022c.015 0 .03-.01.045-.014h.031l56.968-16.047c.011 0 .021-.01.032-.013s.034-.008.051-.014.029-.015.044-.021l.031-.015c.022-.01.045-.018.067-.03h.009l.023-.013 50.888-27.934.015-.009.021-.012c.029-.018.056-.039.083-.059.023-.017.048-.03.069-.048l32.759-27.95c.013-.011.022-.024.034-.035s.029-.025.043-.04l.041-.044.013-.013 25.4-30.3v-.006l.01-.014a1.334 1.334 0 00.09-.132c.009-.016.021-.031.03-.047l.008-.014 35.913-70.311a.538.538 0 00.02-.051.9.9 0 00.038-.084c0-.013.006-.026.01-.039a.936.936 0 00.024-.091c0-.02.012-.039.015-.059l7.927-48.085v-.01a.283.283 0 010-.029c0-.013 0-.027.006-.04s.021-.048.021-.062zM101.714 448.962l-7.409-6.794 16.663 13.055zm108.117 28.243L183.8 465.031l61.623 5.543zm9.5-221.692l-68.355 7.2 42.152-70.826zm-23.86-63.785l83.512 41.834-57.443 21.482zm24.486 65.954L227.9 320.7l-76.043-55.844zm6.948 65.04l-82.6 26 5.558-82.577zm-4.571-63.989l64.025 42.517-56.1 20.354zm1.02-1.992l57.446-21.486 6.657 64.056zm88.264-74l53.24-25.142-6 59.808zm45.414 36.086l-73.19 13.37 25.985-48.012zm-75.275 12.547l-47.68-87.56 73.866 39.175zm-2.671-.249l-84.059-42.109 36.134-45.9zm-129.8 30.065l-10.715-40.89 51.713-28zm-7.082 85.5l-40.852-67.043 46.312-14.07zm83.418-21.237l-41.561 44.4-38.054-19.343zm61.536-22.131l-14.823 53.389-40.788-33.211zm-4.02-67.109l61.785 48.741-55.143 15.168zm1.24-1.854l74-13.517-11.791 62.589zm76.666-16.472l5.936-59.142 34.185 46.431zm40.865-10.616L403.8 275l-42.188-54.96zm-91.291-26.515l1.421-50.271 51.557 25.252zm-2.227-.043L234.8 141.687l75.019-11.656zm-114.594 6.266L180 136.791l49.206 5.2zm-1.8 1.865l-52.2 28.261 38.4-78.46zM147.532 263.3L102.2 277.068l34.645-54.576zm-8.21 82.949l-56.6-40.1 16.883-25.076zm4.568 5.684l38.037 19.336-46.789 25.842zm85.538-27.286l40.849 33.265-83.009 11.774zm59.95-21l60.289 58.3-75.275-4.326zm1.6-1.546l55.337-15.221 4.971 73.54zm69.42-79.985l42.54 55.424-54.228 6.62zm43.748-14.408l35.926 20.306-34.044 47.081zm.379-2.34l22.248-36.608 13.267 56.682zm-1.636-1.594L368.675 157.3l56.756 9.38zm-89.955-75.319l40.186-36.384 11.536 61.713zm-79.513 11.2l25.5-45.246 49.115 33.654zm-53.221-5.078l28.9-58.772 20.643 64.013zm-43.023 82.832l-35.028-58.478 74.244-21.645zm-37.069 58.8l-16.945-68.141L135.5 220.46zm-18.665 27.848l-15.536-38.609 32.079 14.039zm60.4 46.7l-8.773 45.288L84.607 310.2zm41.778 22.108l13.291 44.889-60.5-18.814zm87.883-12.89l-13.176 58.337-70.953-46.405zm78.37 4.207l-34.112 30.895-39.678-35.136zm-1.231-75.831l52.52 53.074-47.563 20.168zm1.072-2.081l54.135-6.608-1.778 59.518zm91.56-56.132l21.625 72.826-56.19-25.017zM429.024 168.6l35.268 26.747-22.053 29.715zm-60.717-13.616l32.739-37.5 24.187 46.913zm-1.477-1.692L355.372 92l44.159 23.836zm-55.954-25.979l-48.9-33.5 88.886-2.7zm-79.27 11.025l-20.5-63.57 45.847 18.587zm-53.3-4.96l-23.74-32.186 52.3-25.9zm-1.65 1.513l-72.714 21.2 48.849-53.555zm-41.691 83.158L83.143 205.78l17.522-44.992zm-36.939 59.03l-32.808-14.358 16.3-52.035zm-18.294 28.692l-28.219 10.32 12.581-49.183zM130.489 396l-62.08-38.475 13.147-48.2zm63.211 23.083l-58.726 9.317-.254-27.654zm-7.473-45.27l69.041 45.155-55.859-.635zm87.394-13.083l40.085 35.5-53.082 22.045zm78.486 4.436l21.184 58.717-55.562-27.583zm1.893-1.327l47.289-20.047-26.056 78.908zm52.074-83.745l56.181 25.013-57.965 34.7zm37.619-49.659l36.734 26.148-15.678 44.761zm-.417-3.027l22.078-29.75 14.55 55.823zm-14.734-61.965l10.252-31.79 24.417 58.082zM427 162.961l-23.359-45.308 33.632 13.447zm-69.224-72.193l48.915-3.2-6.159 26.273zm-96.85.851l34.439-42.714L350.558 88.9zm-2.034-1.019L241.16 44.149l51.816 4.174zm-2.3.216l-45.3-18.365 27.768-27.554zm-101.767 7.769L174.3 42.4l33.062 30.17zM102.569 154.3l14.264-58.381 33.85 5.632zM81.4 204.117L63.111 175.41l35.344-15.082zm-.977 2.61l-15.632 49.908-2.1-77.742zm-18 57.725l-12.748 49.837L29.659 264.5zm-33.272-2.174l1.069-48.928 31.6 48.881zm50.4 45.925l-12.67 46.453L51.4 318.5zm50.849 90.356l-38.475 5.45-21.993-42.926zm2.089 1.949l.251 27.257-38.09-21.9zm64.168 20.356l-19.476 40.773-40.581-31.246zm2.271.412l51.463 47.515-71.1-6.4zm2.524-.7l56.371.64-5.143 46.658zm113.274-22.366l2.15 52.711-55.26-30.655zm2.237.193l55.757 27.677-53.606 25.059zm86.472-54.021l27.678 43.287-53.767 35.731zm1.927-1.118l53.292 7.832-25.946 34.935zm.993-2.1l57-34.128L459.65 349zm75.287-81.326l10.065 35.217-25.258 8.16zm-13.393-59.887l28.869 36.361-14.832 17.5zm-27.015-66.23l37.494 27.463-12.893 31.056zm-38.647-18.882l6.043-25.778 27 38.987zm-47.8-26.1l-6.511-39.389 56.395 36.129zm-2.475-1.316l-53.751-38.948 47.264-.294zM242.975 42.066l35.088-21.536 15.055 25.576zM209.282 71.31l-32.488-29.647 60.1 2.251zm-57.145 28.226L118.4 93.923l52.877-49.586zm-52.349 56.759l-34.521-28.029 48.989-31.191zm-1.467 1.673l-35.669 15.221 1.74-42.769zM62.637 259.4L30.59 209.822l29.839-32.163zm-13.883 58.567L42.672 348.3l-12-75.311zm1.544 3.625l15.019 35.064-21.447-3.007zM89.264 403.7l-22.641-4.355 1.441-37.022zm42.77 26.225l-16.085 15.466-21.6-37.13zm1.919 1.24l38.622 29.735-54.675-14.3zm126.036-9.257l55.14 30.588-60.3 16.2zm114.031 6.019L371 466.391l-49.737-13.8zm55.326-36.412l-30.617 53.621-21.622-18.9zm30.216-37.907l.171 28.079-24.5 4.678zm6.141-47.814l24.907-8.048-28.416 47.761zm17.28-49.364l14.141-16.682-4.613 50.013zm-15.862-61.48l12.695-30.58 16.451 67.291zm-27.01-64.808l8.919-15.577 26.883 41.8zm-1.549-1.774l-26.384-38.093 35.305 22.513zm-88.53-80.534l26.711-2.842 27.02 37.265zM295.8 46.27l-14.713-25 60.142 24.714zm-55.908-4.918L228.041 20.6l46.407-.462zm-2.356.363l-58.452-2.189L225.649 20.9zM119.4 89.932l20.93-45.325 30.354-2.767zm-3.761 2.833l-19.133-18.38 40.38-27.629zm-1.434 1.707l-47.572 30.289L95 76.022zm-53.777 78.61l-23.875-12.837 25.576-29zm-.753 2.119l-29 31.256 5.035-44.14zm-32.764 87.655L14.65 272.889l13.2-53.2zm.307 2.622L39.732 344l-25.645-67.777zm38.747 93.512l-1.436 36.9-20.037-39.91zm24.621 47.225L110.94 441.2l-41.89-39.128zm85.856 57.985l-.885 20.269-53.418-34.468zm2.192.866l27.721 12.962-28.592 7zm73.839 6.45l.861 28.429-40.29-21.083zm63.68-17L299.811 493l-43.217-22.48zm2.561-.334l49.7 13.792L302.4 492.6zm57.5-25.78l21.056 18.409-23.957 18.589zm57.137-39.422l24.274-4.636-53.2 55.294zm28.585-10.729l-.166-27.368 22.396-13.683zm1.969-31.278l27.18-45.683-5 32.129zm34.661-98.654l3.169 33.588-7.182 9.924zm-16.507-84.146l6.215 5.827 6.212 44.993zM450.58 112.86l5.845-2.933 16.9 38.293zm-40.886-26.806l10.258-14.688 25.11 37.241zm-1.594-1.606l-26.741-36.882 37.015 22.175zM347.871 45.83l-.165-16.03 25.76 13.31zm-2.233-.432l-58.876-24.193 58.708 7.73zM229.174 18.369l9.375-8.044 31.082 7.641zm-51.19 19.2l18.227-19.636 25.2 2.266zm-4.708 1.8l-27.6 2.517 45.318-21.6zM97.374 71.1l3.053-6.83 25.33-12.59zm-33.248 53.544l-1.842-17.867 27.552-26.308zm-1.915 3.144l-22.847 25.905 21.05-43.34zm-34.038 80.97l-14.585 2.714 19.265-43.749zm-.484 2.351l-13.953 56.22-.886-53.459zM40.026 351.07l-16.582-13.648-7.944-51.167zm23.251 47.29l-10.591-3.487-7.086-31.724zm45.268 43.652l-35.189-19.158-5.648-18.991zm6.418 6.026l15.237 19.426-46.573-36.487zm5.7 3.661l48.444 31.258-31.7-9.911zm88.875 27.842l37.649 19.7-65.449-12.9zm45.18-7.489l42.145 21.922-41.283 6.547zm111.868-1.022l-17.11 14.763-38.5 5.978zm31.623-22.13l1.425 9.21-22.117 6.841zm57.391-59.231l-22.749 40.414L403.9 443.4zm6.342-6.736l15.23-28.133-16.282 38.6zm32.195-86.717l5.751-7.946-9.245 30.4zm5.534-59.966v-.052-.014l-.081-.59.572-7.532.584 19.5zm-1.529-11.091l-5.756-41.687 7.127 23.652zm-17.123-65.009l-10.5-23.8 14.7 27.736zm-31.667-49.161l-20.975-31.108 26.757 28.207zm-70.067-67.257l1.4-1.013 16.124 11.513zm-2.116-1.215l-10.9-5.633 12.117 4.756zm-92.035-23.768l20.431-4.2 30.744 10.938zm-6.665-.9l-27.82-6.839 46.651 2.971zm-52.7.51l-21.7-1.95 30.362-5.481zM149.192 37.75l12.416-9.306 20.015-6.154zM139 42.61l-10.768 5.352 16.556-9.69zM93.82 73.589l-12.774 12.2 14.607-16.3zm-59.836 86.085l-5.679 2.1 22.067-35.845zm-7.4 5.111l6.13-2.271-15.5 35.2zm-15.262 91.331l.324 19.59-1.136 3.562zm1.065 24.6l5.59 36.009-7.7-29.38zM41.543 355.2l7.177 32.138-22.907-45.085zm23.028 45.926l4.983 16.754-14.836-20zM175.859 487.4l2.079 3.315-21.776-9.473zm5.591 4.726l-2.556-4.075 47.37 9.336zm116.034 4l-4.98 5.638-26-.724zm3.452-.547l31-4.813-35.6 10.029zm71.622-26.764l18.179-5.623-32.055 17.6zm29.119-12.064l-1.427-9.226 26.562-12.219zm57.536-68.969l-1.243 12.4-17.47 20.844zm28.762-52.863l4.489-2.163-20.546 40.224zm5.978-5.348L488.914 332l10.129-33.309z" fill="url(#b)"/></g></svg>