/* XPM */
static char *mozilla.xpm[] = {
/* columns rows colors chars-per-pixel */
"48 48 34 1",
"  c opaque",
". c #100101",
"X c #1f0202",
"o c #1f0d02",
"O c #2f0302",
"+ c #2f1303",
"@ c #3f0403",
"# c #3e1a04",
"$ c #4e0504",
"% c #5e0605",
"& c #4e2005",
"* c #5d2606",
"= c #6e0705",
"- c #7e0806",
"; c #6d2d07",
": c #7d3309",
"> c #8d0807",
", c #9d0908",
"< c #8c390a",
"1 c #ad0a08",
"2 c #bc0b09",
"3 c #9c400b",
"4 c #ab460c",
"5 c #bb4d0d",
"6 c #cc0c0a",
"7 c #dc0d0b",
"8 c #eb0e0b",
"9 c #fb0f0c",
"0 c #ca530e",
"q c #da590f",
"w c #e96010",
"e c #f96611",
"r c white",
"t c None",
/* pixels */
"tttttttttttttttttttttttttttttttttttttttttttttttt",
"tttttttttttttttttttttttttttttttttttttttttttttttt",
"tttttttttttttttttttttttttttttttttttttttttttttttt",
"ttttttttttttttttttttt     tttttttttttttttttttttt",
"tttttttttttttttttttttt   .  tttttttttttttttttttt",
"ttttttttttttttttttttttt  *:  ttttttttttttttttttt",
"tttttttttttttttttttttttt  50+  ttttttttttttttttt",
"ttttttttttttttttttttttttt oew*  tttttttttttttttt",
"ttttttttttttttttttt   tttt 0ee*  ttttttttttttttt",
"ttttttttttttttttt    ttttt :eee& ttttttttttttttt",
"ttttt  ttttttttt     ttttt *eeewo tttttt  tttttt",
"ttttt  tttttttt  %$ tttttt #eeee5  ttttt   ttttt",
"tttt  . ttttttt O8  tttttt :eeeee# ttttt .  tttt",
"tttt %$ tttttt .82 tt   tt 3eeeee5  tttt -% tttt",
"tttt 6, ttttt  19, tt   t  qeeeeee# tttt 67  ttt",
"ttt X99. tttt @991 ttt    &eeeeeee3 ttt O99$ ttt",
"ttt =99- tttt 2992 ttt =  5eeeeeeew  t  1991 ttt",
"ttt 2998X tt X9999. tt 2@#eeeeeeeee& t @9999. tt",
"tt  99992  t =9999- t  92oeeeeeeeee:  .79999@ tt",
"tt O99999,   199998.  %99X4eeeeeeee5 .699999- tt",
"tt @999999,  7999992 O899=:eeeeeeeeq 6999999> tt",
"tt @99999991 9999999,.6991#eeeeeeeee 99999992 tt",
"tt @99999992O99999999,.292#eeeeeeeee 9999999- tt",
"tt O99999992@999999999,.,,&eeeeeeeee 9999999% tt",
"  t 89999992@99999999996..<eeeeeeeeq.9999998.   ",
"    -9999892@999999999998@+0eeeeeee5@999999-    ",
" O%  ,999$-6X9999999999999=.4eeeeee:=99999,  %O ",
"  27=-999@.7 999999999999991.<eeeee+199999-=72  ",
"t @999999@+@O2669999999999996X*eeeq.899999999@ t",
"t  299999@4+ --O99999999999998O*ee*%999999992  t",
"tt X89999@4w#.X 799999999999998X<q.799999998X tt",
"tt  %9999=:ee3oX$999999999999996 #%99999999%  tt",
"t    >999>*eee#1.,99999999999999-.89999999>    t",
"tt @O.9996oeee#26.%29999999999999799999999.O@ tt",
"tt X999999X5ee#197=@799999999999999999999999X tt",
"ttt >99999-#ee;-999999999999999999999999999> ttt",
"ttt .699998.4e3@999999999999999999999999996. ttt",
"tttt O899991.5w 79999999999999999999999998O tttt",
"ttttt O89999, :*$999999999999999999999998O ttttt",
"tttttt O699996O. >9999999999999999999996O tttttt",
"ttttttt .>99999,O ,9999999999999999999>. ttttttt",
"tttttttt  X,899999999999999999999998,X  tttttttt",
"tttttttttt  .$>299999962269999992>$.  tttttttttt",
"tttttttttttt                        tttttttttttt",
"tttttttttttttttttttttttttttttttttttttttttttttttt",
"tttttttttttttttttttttttttttttttttttttttttttttttt",
"tttttttttttttttttttttttttttttttttttttttttttttttt",
"tttttttttttttttttttttttttttttttttttttttttttttttt"
};
