/* XPM */
static char *mozilla.xpm[] = {
/* columns rows colors chars-per-pixel */
"16 16 44 1",
"  c opaque",
". c #2a0302",
"X c #2d1303",
"o c #3d0303",
"O c #321403",
"+ c #3e1a04",
"@ c #490403",
"# c #4d1c05",
"$ c #540504",
"% c #5b0504",
"& c #5e0b05",
"* c #640605",
"= c #6e1106",
"- c #740706",
"; c #7e0806",
": c #7d1207",
"> c #642907",
", c #870806",
"< c #8d0807",
"1 c #8d1908",
"2 c #920907",
"3 c #9d0908",
"4 c #9c1f09",
"5 c #a40a08",
"6 c #ad0a08",
"7 c #bc0b09",
"8 c #bc1109",
"9 c #ac260a",
"0 c #ac300a",
"q c #ab3b0b",
"w c #bc210a",
"e c #a6440b",
"r c #ab460c",
"t c #b74b0c",
"y c #bb4d0d",
"u c #cc0c0a",
"i c #eb0e0b",
"p c #fb0f0c",
"a c #ca530e",
"s c #da590f",
"d c #e96010",
"f c #f96611",
"g c white",
"h c None",
/* pixels */
"hhhhhhhhhhhhhhhh",
"hhhhhhh X hhhhhh",
"hhhhhh h+tOhhhhh",
"h  hh  h ae h  h",
"h@@h 5   sf>h%@h",
"h,<h$p o#ffe <5h",
"h7i@5p%-9ffdopu ",
"h7pi7pi<wfff7pi ",
" <pi7ppi=dff7p< ",
"*6p:6ippp1drip6*",
" 5pq#3pppp14pp5 ",
" ;p0y67pppiipp; ",
"h%p8y6pppppppp%h",
"h -i8*ppppppi- h",
"hhh.<676676<.hhh",
"hhhhhhhhhhhhhhhh"
};
