<!-- This Source Code Form is subject to the terms of the Mozilla Public
   - License, v. 2.0. If a copy of the MPL was not distributed with this
   - file, You can obtain one at http://mozilla.org/MPL/2.0/. -->
<svg xmlns="http://www.w3.org/2000/svg" viewBox="0 0 16 16">
  <path fill="context-fill" fill-opacity="context-fill-opacity" d="M4 8a3 3 0 1 1 3-3 3 3 0 0 1-3 3zm0-4a1 1 0 1 0 1 1 1 1 0 0 0-1-1zM12 14a3 3 0 1 1 3-3 3 3 0 0 1-3 3zm0-4a1 1 0 1 0 1 1 1 1 0 0 0-1-1zM14 4H7.86A4.09 4.09 0 0 1 8 5a4.09 4.09 0 0 1-.14 1H14a1 1 0 0 0 0-2zM8 11a4.09 4.09 0 0 1 .14-1H2a1 1 0 0 0 0 2h6.14A4.09 4.09 0 0 1 8 11z"/>
</svg>
