<svg xmlns="http://www.w3.org/2000/svg" width="16" height="16" viewBox="0 0 16 16" fill="context-fill" fill-opacity="context-fill-opacity"><path d="M5 5a3 3 0 0 1 6 0v7a3 3 0 1 1-6 0V5Z"/><path fill-rule="evenodd" d="M6.369 0c.345 0 .625.28.625.625v1.371a1.006 1.006 0 0 0 2.012 0V.626a.625.625 0 1 1 1.25 0v1.37a2.256 2.256 0 1 1-4.512 0V.626c0-.346.28-.626.625-.626ZM2.627 1c.345 0 .625.28.625.626v1.871c0 .76.616 1.376 1.376 1.376h6.745c.76 0 1.376-.616 1.376-1.376V1.626a.625.625 0 0 1 1.25 0v1.871a2.627 2.627 0 0 1-2.626 2.627H4.628A2.627 2.627 0 0 1 2 3.497V1.626c0-.345.28-.625.626-.625ZM0 8.63c0-.345.28-.625.625-.625h14.75a.625.625 0 1 1 0 1.25H.625A.625.625 0 0 1 0 8.63Zm4.628 3.498c-.76 0-1.376.616-1.376 1.375v1.872a.625.625 0 1 1-1.25 0v-1.872a2.627 2.627 0 0 1 2.626-2.626h6.745a2.627 2.627 0 0 1 2.626 2.626v1.872a.625.625 0 1 1-1.25 0v-1.872c0-.76-.616-1.375-1.376-1.375H4.628Z" clip-rule="evenodd"/></svg>
