<svg xmlns="http://www.w3.org/2000/svg" width="16" height="16" viewBox="0 0 16 16" fill="context-fill" fill-opacity="context-fill-opacity"><path fill-rule="evenodd" d="M13 2.25H3a.75.75 0 0 0-.75.75v10c0 .414.336.75.75.75h10a.75.75 0 0 0 .75-.75V3a.75.75 0 0 0-.75-.75ZM3 1a2 2 0 0 0-2 2v10a2 2 0 0 0 2 2h10a2 2 0 0 0 2-2V3a2 2 0 0 0-2-2H3Z" clip-rule="evenodd"/><path d="M4 4.625C4 4.28 4.28 4 4.625 4h6.75a.625.625 0 1 1 0 1.25h-6.75A.625.625 0 0 1 4 4.625ZM4 7.995c0-.345.28-.625.625-.625h6.75a.625.625 0 1 1 0 1.25h-6.75A.625.625 0 0 1 4 7.995ZM4 11.375c0-.345.28-.625.625-.625h6.75a.625.625 0 1 1 0 1.25h-6.75A.625.625 0 0 1 4 11.375Z"/></svg>
