<svg xmlns="http://www.w3.org/2000/svg" width="16" height="16" viewBox="0 0 16 16" fill="context-fill" fill-opacity="context-fill-opacity"><path fill-rule="evenodd" d="M13 2.25H3a.75.75 0 0 0-.75.75v10c0 .414.336.75.75.75h10a.75.75 0 0 0 .75-.75V3a.75.75 0 0 0-.75-.75ZM3 1a2 2 0 0 0-2 2v10a2 2 0 0 0 2 2h10a2 2 0 0 0 2-2V3a2 2 0 0 0-2-2H3Z" clip-rule="evenodd"/><path d="M9.829 5c.453 0 .841.11 1.164.327.327.219.578.523.752.914.173.391.258.844.255 1.358v.554H8.378c.014.711.162 1.24.444 1.585.283.341.69.512 1.221.512.34 0 .642-.034.905-.1a4.5 4.5 0 0 0 .807-.296v.771c-.28.13-.554.225-.823.285-.265.06-.57.09-.914.09-.327 0-.627-.047-.9-.143a2.184 2.184 0 0 1-.714-.427 2.394 2.394 0 0 1-.511-.698 3.4 3.4 0 0 1-.516.671c-.188.19-.41.338-.67.444-.258.102-.57.153-.934.153-.34 0-.646-.062-.915-.185a1.425 1.425 0 0 1-.628-.56c-.153-.25-.23-.567-.23-.95 0-.384.094-.708.281-.972.19-.268.475-.474.853-.618.382-.148.857-.23 1.425-.248l.95-.043V7.05c0-.49-.107-.832-.321-1.03-.215-.2-.506-.3-.874-.3-.276 0-.548.043-.817.131a4.834 4.834 0 0 0-.756.312l-.266-.666a4.08 4.08 0 0 1 .884-.343c.34-.095.681-.142 1.022-.142.439 0 .798.079 1.077.237.283.159.49.416.624.771.18-.32.419-.57.715-.75.296-.18.64-.269 1.032-.269Zm-2.34 3.042-.802.037c-.657.028-1.122.146-1.395.354-.272.208-.408.502-.408.882 0 .331.092.576.276.734.187.159.436.238.745.238.307 0 .58-.063.818-.19s.426-.317.562-.57c.136-.254.204-.571.204-.951v-.534Zm2.33-2.324c-.413 0-.743.15-.991.45-.25.295-.392.726-.43 1.293h2.703a2.667 2.667 0 0 0-.133-.913 1.265 1.265 0 0 0-.424-.613c-.19-.145-.433-.217-.725-.217Z"/></svg>