<svg xmlns="http://www.w3.org/2000/svg" width="16" height="16" viewBox="0 0 16 16" fill="context-fill" fill-opacity="context-fill-opacity"><path fill-rule="evenodd" d="M5 5.25H2a.75.75 0 0 0-.75.75v8c0 .414.336.75.75.75h3a.75.75 0 0 0 .75-.75V6A.75.75 0 0 0 5 5.25ZM2 4a2 2 0 0 0-2 2v8a2 2 0 0 0 2 2h3a2 2 0 0 0 2-2V6a2 2 0 0 0-2-2H2Z" clip-rule="evenodd"/><path fill-rule="evenodd" d="M5 1.25h8a.75.75 0 0 1 .75.75v12a.75.75 0 0 1-.75.75H8V16h5a2 2 0 0 0 2-2V2a2 2 0 0 0-2-2H5a2 2 0 0 0-2 2v1h1.25V2A.75.75 0 0 1 5 1.25Z" clip-rule="evenodd"/></svg>