<svg xmlns="http://www.w3.org/2000/svg" width="16" height="16" viewBox="0 0 16 16" fill="context-fill" fill-opacity="context-fill-opacity"><path fill-rule="evenodd" d="M16 12a4 4 0 1 1-7-2.646V11.5h2.5l-.914-.914a2 2 0 1 1-.518 1.932.5.5 0 1 0-.966.258A3 3 0 1 0 9.88 9.88l-.707-.707A4 4 0 0 1 16 12Z" clip-rule="evenodd"/><path fill-rule="evenodd" d="M4 1.25h8a.75.75 0 0 1 .75.75v5.005h-.524A4.975 4.975 0 0 1 14 7.416V2a2 2 0 0 0-2-2H4a2 2 0 0 0-2 2v12a2 2 0 0 0 2 2h5a5.028 5.028 0 0 1-1.176-1.25H4a.75.75 0 0 1-.75-.75V8.255h5.437a4.98 4.98 0 0 1 3.087-1.25H3.25V2A.75.75 0 0 1 4 1.25Zm3.534 8.5h-.909a.625.625 0 1 0 0 1.25H7.1c.09-.44.237-.86.434-1.25Zm-.909-7a.625.625 0 1 0 0 1.25h2.75a.625.625 0 1 0 0-1.25h-2.75Z" clip-rule="evenodd"/></svg>
