<svg xmlns="http://www.w3.org/2000/svg" width="16" height="16" viewBox="0 0 16 16" fill="context-fill" fill-opacity="context-fill-opacity"><path d="M2 3a2 2 0 0 1 2-2h4.172a2 2 0 0 1 1.414.586l3.828 3.828A2 2 0 0 1 14 6.828V13a2 2 0 0 1-2 2h-1.382a1.78 1.78 0 0 0-.366-1.25H12a.75.75 0 0 0 .75-.75V7H9a1 1 0 0 1-1-1V2.25H4a.75.75 0 0 0-.75.75v2.474c-.441.09-.861.241-1.25.443V3Z"/><path fill-rule="evenodd" d="M4.2 12.15a1.95 1.95 0 1 0 0-3.9 1.95 1.95 0 0 0 0 3.9Zm0 1.25a3.2 3.2 0 1 0 0-6.4 3.2 3.2 0 0 0 0 6.4Z" clip-rule="evenodd"/><path fill-rule="evenodd" d="m8.558 15.442-3.2-3.2.884-.884 3.2 3.2a.625.625 0 0 1-.884.884Z" clip-rule="evenodd"/></svg>
