<svg xmlns="http://www.w3.org/2000/svg" width="16" height="16" viewBox="0 0 16 16" fill="context-fill" fill-opacity="context-fill-opacity"><path fill-rule="evenodd" d="M13 7.25H3a.75.75 0 0 0-.75.75v5c0 .414.336.75.75.75h10a.75.75 0 0 0 .75-.75V8a.75.75 0 0 0-.75-.75ZM3 6a2 2 0 0 0-2 2v5a2 2 0 0 0 2 2h10a2 2 0 0 0 2-2V8a2 2 0 0 0-2-2H3ZM1.421 4.46c-.118.119-.234.237-.35.352a.625.625 0 1 1-.883-.884c.113-.113.23-.231.35-.354C1.99 2.092 4.034.005 8 .005c2.186 0 4.155 1.016 5.542 1.982.463.322.868.644 1.203.93V.63a.625.625 0 1 1 1.25 0v4.365H11.63a.625.625 0 1 1 0-1.25h2.157c-.277-.231-.6-.482-.96-.732C11.53 2.109 9.815 1.255 8 1.255c-3.427 0-5.137 1.738-6.579 3.204Z" clip-rule="evenodd"/></svg>
