<svg xmlns="http://www.w3.org/2000/svg" width="16" height="16" viewBox="0 0 16 16" fill="context-fill" fill-opacity="context-fill-opacity"><path d="m6.167 8-.371-1.719H4.209L3.838 8h-1.47L4.097.861h1.772L7.627 8h-1.46Zm-.581-2.91L5.2 3.2a66.74 66.74 0 0 0-.078-.459c-.023-.15-.045-.293-.068-.43L5 1.922c-.01.114-.024.24-.044.376a14.391 14.391 0 0 1-.156.884L4.419 5.09h1.167ZM6.929 16H3.086v-.981l2.31-4.98H3.125V8.86h3.74v.977l-2.31 4.97H6.93V16Z"/><path fill-rule="evenodd" d="M14.813 11.189a.625.625 0 0 1-.002.884l-2.75 2.74a.625.625 0 0 1-.863.018l-2.99-2.74a.625.625 0 0 1 .844-.922l1.943 1.78V1.63a.625.625 0 1 1 1.25 0v11.235l1.684-1.678a.625.625 0 0 1 .884.002Z" clip-rule="evenodd"/></svg>
