<svg xmlns="http://www.w3.org/2000/svg" width="16" height="16" viewBox="0 0 16 16" fill="context-fill" fill-opacity="context-fill-opacity"><path fill-rule="evenodd" d="M5.125 0a.625.625 0 1 0 0 1.25h3.75a.625.625 0 1 0 0-1.25h-3.75ZM1.25 9a5.75 5.75 0 0 1 11.265-1.63 2.662 2.662 0 0 1 1.197-.363 7 7 0 1 0-5.844 8.94v-1.262A5.75 5.75 0 0 1 1.25 9Zm6.375-.853-.865.93a.625.625 0 0 1-.385-.577V4.75a.625.625 0 1 1 1.25 0v3.397Zm4.817-5.705a.625.625 0 0 1 .884 0l.53.53a.625.625 0 0 1-.884.884l-.53-.53a.625.625 0 0 1 0-.884Z" clip-rule="evenodd"/><path d="M10.278 15.893h-1.41v-5.025l.01-.468.02-.457a6.091 6.091 0 0 1-.401.511l-.653.697L7 10.289l2.022-2.177h1.256v7.781ZM16 12.003c0 .589-.034 1.128-.103 1.618a4.693 4.693 0 0 1-.334 1.267c-.158.354-.37.63-.639.825-.267.191-.601.287-1.003.287-.453 0-.833-.137-1.142-.41-.306-.273-.537-.702-.695-1.288-.158-.589-.237-1.355-.237-2.3 0-.911.076-1.662.227-2.25.15-.593.379-1.033.684-1.32.309-.288.697-.432 1.163-.432.463 0 .847.149 1.153.447.309.298.54.744.694 1.336.155.593.232 1.333.232 2.22Zm-2.732 0c0 .617.018 1.126.056 1.527.041.398.108.694.2.89.097.19.229.287.397.287.172 0 .304-.096.396-.288.096-.195.163-.491.201-.889.038-.4.057-.91.057-1.527 0-.6-.02-1.1-.057-1.501-.038-.401-.105-.701-.2-.9-.093-.202-.225-.303-.397-.303-.165 0-.295.1-.391.298-.096.199-.165.498-.206.9-.038.4-.056.902-.056 1.506Z"/></svg>
