/* XPM */
static char *pixmap[] = {
/* width height ncols cpp */
"16 16 166 2",
  /* Colors */
  "00 c #000000",
  "01 c #90C0ED",
  "02 c #6F9FCB",
  "03 c #6C9BC8",
  "04 c #6EA0CA",
  "05 c #507699",
  "06 c #6188B2",
  "07 c #537A9E",
  "08 c #557EA2",
  "09 c #365270",
  "0A c #6181A1",
  "0B c #8EBCEA",
  "0C c #6197C9",
  "0D c #FFFFFF",
  "0E c #80764D",
  "0F c #8C835A",
  "10 c #7E7140",
  "11 c #0B2845",
  "12 c #475E76",
  "13 c #6B9BC5",
  "14 c #BED4EA",
  "15 c #77AEE2",
  "16 c #7FBDFF",
  "17 c #535A3B",
  "18 c #F8D500",
  "19 c #FBE052",
  "1A c #FFFBA0",
  "1B c #484912",
  "1C c #5C90CD",
  "1D c #5D87B2",
  "1E c #5C85AD",
  "1F c #3A6E9F",
  "20 c #314F69",
  "21 c #6995C2",
  "22 c #77ACE0",
  "23 c #8DC2F7",
  "24 c #6E6C3F",
  "25 c #FFDA00",
  "26 c #EAC700",
  "27 c #F0D964",
  "28 c #EED445",
  "29 c #FFFD9D",
  "2A c #6B641C",
  "2B c #6C92BB",
  "2C c #4D78A1",
  "2D c #6397C9",
  "2E c #50779A",
  "2F c #7BAFDF",
  "30 c #86B9F7",
  "31 c #987B00",
  "32 c #F3D100",
  "33 c #EAC900",
  "34 c #E8C500",
  "35 c #F9DE54",
  "36 c #9F8000",
  "37 c #3D6DA7",
  "38 c #3D6387",
  "39 c #78AADC",
  "3A c #7FB1EE",
  "3B c #9B7E00",
  "3C c #F5D300",
  "3D c #F9E164",
  "3E c #8F7500",
  "3F c #3B5F81",
  "40 c #BE0000",
  "41 c #74A4D4",
  "42 c #79AAE2",
  "43 c #9C7F00",
  "44 c #D8B803",
  "45 c #ECCB00",
  "46 c #E9C700",
  "47 c #FAE26D",
  "48 c #A18500",
  "49 c #3F689C",
  "4A c #FFF900",
  "4B c #8F0000",
  "4C c #6D9DC9",
  "4D c #73A1D8",
  "4E c #927B00",
  "4F c #DCBB00",
  "50 c #EECD00",
  "51 c #F2CF00",
  "52 c #A89104",
  "53 c #FFEF00",
  "54 c #FFB200",
  "55 c #6795C2",
  "56 c #719DCB",
  "57 c #706827",
  "58 c #D1B303",
  "59 c #FEDB00",
  "5A c #645D00",
  "5B c #FFE300",
  "5C c #FFA500",
  "5D c #FF8900",
  "5E c #5F8FB8",
  "5F c #768FAD",
  "60 c #688CCF",
  "61 c #A16F00",
  "62 c #E5C502",
  "63 c #D8B903",
  "64 c #FFDD00",
  "65 c #856300",
  "66 c #FFD400",
  "67 c #FFA200",
  "68 c #FF8100",
  "69 c #FF5D00",
  "6A c #527A9E",
  "6B c #717C8F",
  "6C c #7F90C2",
  "6D c #007A5E",
  "6E c #00C4BB",
  "6F c #AE5E00",
  "70 c #A67400",
  "71 c #A65900",
  "72 c #69FFFE",
  "73 c #00717E",
  "74 c #FF7900",
  "75 c #F75500",
  "76 c #FF3800",
  "77 c #54799B",
  "78 c #6F80B7",
  "79 c #007F5A",
  "7A c #03C1A0",
  "7B c #04B094",
  "7C c #00B6A5",
  "7D c #00B9A6",
  "7E c #00D9BD",
  "7F c #00C7A8",
  "80 c #8DF6E1",
  "81 c #008579",
  "82 c #FF1C00",
  "83 c #007753",
  "84 c #03D4B1",
  "85 c #02C9A7",
  "86 c #04B89C",
  "87 c #00CDAB",
  "88 c #00CDA9",
  "89 c #00CDA8",
  "8A c #00C8A1",
  "8B c #8CF6E1",
  "8C c #00927B",
  "8D c #FF0000",
  "8E c #365471",
  "8F c #00775B",
  "90 c #03D2AF",
  "91 c #03CAA9",
  "92 c #00D2AD",
  "93 c #00D1AC",
  "94 c #00D3AE",
  "95 c #00D3AD",
  "96 c #00D8B0",
  "97 c #00967B",
  "98 c #A10300",
  "99 c #597692",
  "9A c #26304B",
  "9B c #009975",
  "9C c #00AF91",
  "9D c #00AD8F",
  "9E c #00AC8F",
  "9F c #00AC8E",
  "A0 c #00AE91",
  "A1 c #00AB8B",
  "A2 c #B00000",
  "A3 c #435A6F",
  "A4 c #4A526D",
  ".. s None c None",
  "..010203040506060607070708090A..",
  "0B0C0D0D0D0D0E0F100D0D0D0D0D1112",
  "130D1415161718191A1B1C1D1E1F0D20",
  "210D22232425262728292A2B2C0D2D00",
  "2E0D2F3031323334273536370D3800..",
  "070D393A3B3C3333343D3E0D3F0040..",
  "070D41424344453346474849004A4B..",
  "070D4C4D4E4F50333351520053544B..",
  "070D55565734585033595A5B5C5D4B..",
  "070D5E5F606162636465666768694B..",
  "6A0D6B6C6D6E6F707172737475764B..",
  "770D78797A7B7C7D7E7F808182824B..",
  "080D83848586868788898A8B8C8D4B..",
  "8E0D8F909192939495959596978D98..",
  "999A9B9C9D9E9E9F9F9F9FA0A1A2....",
  "..A3A400........................",
};
