/* XPM */
static char *pixmap[] = {
/* width height ncols cpp */
"32 32 253 2",
  /* Colors */
  "00 c #01CAA3",
  "01 c #53C5A1",
  "02 c #009479",
  "03 c #FDDA4A",
  "04 c #8C7E3A",
  "05 c #A9CAE7",
  "06 c #752517",
  "07 c #455A6A",
  "08 c #D3AA02",
  "09 c #FCEA75",
  "0A c #7B3618",
  "0B c #FFC945",
  "0C c #F5DB5A",
  "0D c #9CB5CB",
  "0E c #DEE7EF",
  "0F c #03AD8D",
  "10 c #FFC143",
  "11 c #B17100",
  "12 c #EBCB2B",
  "13 c #87ADD6",
  "14 c #E4BE00",
  "15 c #FFA53A",
  "16 c #6B94BD",
  "17 c #F2D54A",
  "18 c #0A8876",
  "19 c #425A73",
  "1A c #54782F",
  "1B c #00A585",
  "1C c #FFBD42",
  "1D c #53728B",
  "1E c #738CA8",
  "1F c #FFD247",
  "20 c #F3CB00",
  "21 c #FFAA3C",
  "22 c #EDC600",
  "23 c #E8692A",
  "24 c #4A637B",
  "25 c #E9C200",
  "26 c #253546",
  "27 c #00C69E",
  "28 c #877914",
  "29 c #36475A",
  "2A c #395269",
  "2B c #B69800",
  "2C c #2F6F4D",
  "2D c #63849C",
  "2E c #F5D216",
  "2F c #20282E",
  "30 c #182129",
  "31 c #A88A01",
  "32 c #E45923",
  "33 c #F4D047",
  "34 c #FF9937",
  "35 c #FE752C",
  "36 c #A9361B",
  "37 c #03C6A1",
  "38 c #03BE9A",
  "39 c #E6C000",
  "3A c #D5B201",
  "3B c #00C39C",
  "3C c #525B5F",
  "3D c #E5C20E",
  "3E c #01AA90",
  "3F c #4A6384",
  "40 c #09CEA5",
  "41 c #354A63",
  "42 c #02BA96",
  "43 c #516B7C",
  "44 c #B38F00",
  "45 c #E88B35",
  "46 c #03A789",
  "47 c #04836D",
  "48 c #EFD243",
  "49 c #FE8431",
  "4A c #596B7C",
  "4B c #01C09A",
  "4C c #030301",
  "4D c #FF8C34",
  "4E c #FFB640",
  "4F c #FFB43E",
  "50 c #FE7D2F",
  "51 c #B1971D",
  "52 c #E2BD01",
  "53 c #597384",
  "54 c #01745E",
  "55 c #FFFEFD",
  "56 c #101821",
  "57 c #FF6C2A",
  "58 c #E8812F",
  "59 c #00C99F",
  "5A c #B09A24",
  "5B c #84A5CE",
  "5C c #5A6B84",
  "5D c #52637A",
  "5E c #84B5D6",
  "5F c #739CC6",
  "60 c #73A5CE",
  "61 c #638CB5",
  "62 c #526B8C",
  "63 c #4A6B8C",
  "64 c #6384A5",
  "65 c #6B8CB5",
  "66 c #739CBD",
  "67 c #6384AD",
  "68 c #D6DEE7",
  "69 c #E7EFEF",
  "6A c #4A6B84",
  "6B c #A5B5C6",
  "6C c #7BA5CC",
  "6D c #7295B3",
  "6E c #638CAD",
  "6F c #FFE24B",
  "70 c #7B4221",
  "71 c #F1AE3D",
  "72 c #F1C243",
  "73 c #ADBDCE",
  "74 c #94B5D6",
  "75 c #7BADD6",
  "76 c #F4CC46",
  "77 c #8CBDD6",
  "78 c #8CB5D6",
  "79 c #C6CEDE",
  "7A c #63738C",
  "7B c #94C6D6",
  "7C c #5A84A5",
  "7D c #081018",
  "7E c #5A7394",
  "7F c #B5C6CE",
  "80 c #EBC400",
  "81 c #DE8734",
  "82 c #4A6373",
  "83 c #7394BD",
  "84 c #849CB5",
  "85 c #B5C6D6",
  "86 c #8CA5C6",
  "87 c #8494B5",
  "88 c #ECC609",
  "89 c #849CBD",
  "8A c #8C9CB5",
  "8B c #A69B62",
  "8C c #94ADBD",
  "8D c #759250",
  "8E c #807629",
  "8F c #586A66",
  "90 c #5691A8",
  "91 c #FE9134",
  "92 c #FF6227",
  "93 c #00C499",
  "94 c #7B9CC6",
  "95 c #FAF9F7",
  "96 c #CFBF62",
  "97 c #02B693",
  "98 c #36DABC",
  "99 c #706F41",
  "9A c #2BD3B0",
  "9B c #2DC6B3",
  "9C c #CED6E7",
  "9D c #7A7F4E",
  "9E c #49554C",
  "9F c #C19903",
  "A0 c #A99632",
  "A1 c #648459",
  "A2 c #000818",
  "A3 c #3DE2C0",
  "A4 c #745249",
  "A5 c #000000",
  "A6 c #637B9C",
  "A7 c #6B8CAD",
  "A8 c #009E8A",
  "A9 c #ECC712",
  "AA c #01A17F",
  "AB c #738494",
  "AC c #35844B",
  "AD c #D9B801",
  "AE c #DAB501",
  "AF c #5B7B9B",
  "B0 c #5A7B94",
  "B1 c #9E9248",
  "B2 c #527B94",
  "B3 c #EBC91E",
  "B4 c #E77C2F",
  "B5 c #E88733",
  "B6 c #E78131",
  "B7 c #08A78A",
  "B8 c #CEAF0F",
  "B9 c #9CADC6",
  "BA c #C5A505",
  "BB c #FDFCFB",
  "BC c #CC9900",
  "BD c #AE9410",
  "BE c #CDA500",
  "BF c #94873A",
  "C0 c #00A785",
  "C1 c #366172",
  "C2 c #FAE15A",
  "C3 c #6B8CA5",
  "C4 c #6B849E",
  "C5 c #F24C21",
  "C6 c #16B59E",
  "C7 c #D6EFFF",
  "C8 c #188B70",
  "C9 c #EED03E",
  "CA c #DA3919",
  "CB c #E4461F",
  "CC c #2D9C85",
  "CD c #FF6328",
  "CE c #6B632B",
  "CF c #9F8706",
  "D0 c #C29001",
  "D1 c #00A783",
  "D2 c #928218",
  "D3 c #424A52",
  "D4 c #00B59A",
  "D5 c #133335",
  "D6 c #A28D23",
  "D7 c #CCB95B",
  "D8 c #E6C007",
  "D9 c #EEF6F6",
  "DA c #EDC814",
  "DB c #F4D848",
  "DC c #BDCEDE",
  "DD c #28947D",
  "DE c #3A9E7F",
  "DF c #057A67",
  "E0 c #289761",
  "E1 c #577385",
  "E2 c #FE5A26",
  "E3 c #EFCB01",
  "E4 c #E84F21",
  "E5 c #9CC6F7",
  "E6 c #EFEFF7",
  "E7 c #EDBF00",
  "E8 c #BDE7E7",
  "E9 c #E2B600",
  "EA c #8494A5",
  "EB c #11CCA5",
  "EC c #E9CA38",
  "ED c #00BFA1",
  "EE c #AC8F01",
  "EF c #FF9B37",
  "F0 c #469E60",
  "F1 c #B0B19E",
  "F2 c #84A5C6",
  "F3 c #465978",
  "F4 c #A5BDD6",
  "F5 c #A5C6D6",
  "F6 c #EFF7F7",
  "F7 c #5A7B9C",
  "F8 c #6B94B5",
  "F9 c #101010",
  "FA c #527394",
  "FB c #FFFFFF",
  ".. s None c None",
  "..F464FA626262FAFAFAFAFAFAFAFAFAFAFAFAFAFAFAFAFA7EF7F7F77E244A..",
  "05E8A72482825D435C5C5C5C5C5C5C5C5C5C5C5C5C5C5C5C7AC487861E2426D3",
  "13056BFBFBFBFBFBFBFBFBFBFBFBFBFBFBFBFBFBFBFBFBFBFBFBFBFBFBAB2629",
  "66B0FBC77713605F5F5F5F5F5F5F5F5F5F5F666666666683F867F76AFB743F2F",
  "F853FBF57B755F16F8F8F8F8F8F8F8F8F8F8F8F8F8F8656164B26A19FB7C2A56",
  "6D43FB7B78680EF60D68F6DC0D69F6736767676764647CF7FA3F19FB65FA264C",
  "835DFB777568F6F66B68F6F67F68F6F6F7F7F7F7F7FA1D6A2419FB1664417D..",
  "945DFB786CF2F6F62DC3F6E6F7F7F669F7FAFAFA1D633F1907FB16F819564C..",
  "6C5DFB5E6C0DF685FA8AF679FAB9F673FAFAFA62633F1907FB16F819304C....",
  "5B5DFB5E6C85F684FA6BF66BFA7FF68CFAFA62633F1907FB16F819304CF9....",
  "5B5DFB5E609CF61EFA79F6841DF1B1288E04993C1907FB16F819304C70F9....",
  "5B5DFB5E6069F6A6FA69D9C48FBFB82E170996CE9EFB16F819304C8170F9....",
  "5B5DFB5E6061F7FAFAFA1DFA8EBA252E03C20CD78B166D19304C718170F9....",
  "5B5DFB5E6061F7FAFAFA1DFAEE20223D12EC0C09A01619304C7271450AF9....",
  "5B5DFB5E6061F7FAFAFAE1FA2B802214D81217175119302F76721C450AF9....",
  "5B5DFB5E6061F7FAFAFA53FA2B808014143D12C951302F6F761F1C450AF9....",
  "5B5DFB5E6061F7FAFAFA53622B1425393914A9485A2F6F331F0B4E450AF9....",
  "5B5DFB5E6061F7FAFAFA4A63EE3A14253914DA485A6F171F1F1021B50AF9....",
  "5B5DFB5E6061F7FAFA62433F31081425391488B3BDDB031F0B4E15580AF9....",
  "5B5DFB5E6061F7FA62635D19313A52393939228044031F0B1C21EF580AF9....",
  "5B5DFB5E6061F71D633F072ACF3A3AAE25392222441F0B104F1534B606F9....",
  "5B5DFB5E6061F7623F1907FBA1D008AD52E3E7BC1F0B1C4F153491B40AF9....",
  "5B5DFB5E5F6EFA3F1907BB1665289F08BEE908D20B104F15344D492306F9....",
  "5B4AFB5E5F6463F33CFB16F847E028111111D601DE8D21344D49502306F9....",
  "5B5CFB1316AF3F199516F847A83EAC1A1A1AF0989BDD344D4950353206F9....",
  "5B7AFB6C6E1D195516F8471B0F4646B70F3837379801C89D5035573206F9....",
  "5B1EFB16F724FB16F8180F42970F3ED4ED00003BEB9A01CC355792E406F9....",
  "6D89FB646AFB1690DFAA00273842424B595959599340A3C62CCDE2CB06F9....",
  "6D74FBFBFB1665C154AA3B4B4B3B3B3B272727272700403E2C32C5CA06F9....",
  "6EE5EA6565FA2AD554021B1B1B1BC0C0C01B1B1B1BC0D1022C363606A4F9....",
  "2962413F2A26564CF9F9F9F9F9F9F9F9F9F9F9F9F9F9F9F9F9F9F9F9F9......",
  "..2956A2307D....................................................",
};
