/* XPM */
static char *pixmap[] = {
/* width height ncols cpp */
"16 16 36 2",
  /* Colors */
  "00 c #000000",
  "01 c #FFFFFF",
  "02 c #34495F",
  "03 c #32465B",
  "04 c #2E4154",
  "05 c #7DB0E2",
  "06 c #709DCA",
  "07 c #6E9BC7",
  "08 c #5F86AC",
  "09 c #577A9D",
  "0A c #45617D",
  "0B c #415B76",
  "0C c #3E5770",
  "0D c #7DAEE0",
  "0E c #72A0CD",
  "0F c #6D99C4",
  "10 c #6992BD",
  "11 c #557799",
  "12 c #3F5871",
  "13 c #B7D0E9",
  "14 c #D4DCE4",
  "15 c #2E4255",
  "16 c #344A5F",
  "17 c #709ECA",
  "18 c #6D9AC5",
  "19 c #00A9FF",
  "1A c #005580",
  "1B c #FF1200",
  "1C c #FF1300",
  "1D c #FF0700",
  "1E c #FF0100",
  "1F c #FF0500",
  "20 c #800000",
  "21 c #C0C0C0",
  "22 c #808080",
  ".. s None c None",
  "..0E17071809001900090909090B0A..",
  "060E0101010019191919000101010203",
  "0F011305001919191919191900080116",
  "10010D00191919191919191919190000",
  "090100191919191919191919191919..",
  "090019191919191919191919191922..",
  "001919191919191919191919192200..",
  "1A0019191919191919191919220021..",
  "1A2100001919191919191922002121..",
  "1A210101000019191919222121211A..",
  "1A2101010121000019222100211A20..",
  "0019000101010121222100211A1C20..",
  "09010019000101012100211A1B1D20..",
  "0B0111140019000121211A1B1F1E20..",
  "1215010C00200019001A20202020....",
  "..040400........00..............",
};
