/* XPM */
static char *pixmap[] = {
/* width height ncols cpp */
"32 32 255 2",
  /* Colors */
  "00 c #000000",
  "01 c #FFFFFF",
  "02 c #EFF7F7",
  "03 c #E7EFF3",
  "04 c #5A7B9C",
  "05 c #527394",
  "06 c #101010",
  "07 c #00A9FF",
  "08 c #EFEFF7",
  "09 c #FDFDFE",
  "0A c #101829",
  "0B c #CED6E7",
  "0C c #000818",
  "0D c #8494B5",
  "0E c #C6CEDE",
  "0F c #87888A",
  "10 c #63738C",
  "11 c #8C9CB5",
  "12 c #5A6B84",
  "13 c #9CADC6",
  "14 c #E0E4EA",
  "15 c #31425A",
  "16 c #4A6384",
  "17 c #212B39",
  "18 c #526B8C",
  "19 c #5A7394",
  "1A c #6B84A5",
  "1B c #52637B",
  "1C c #849CBD",
  "1D c #8CA5C6",
  "1E c #90A0B5",
  "1F c #A3B0C2",
  "20 c #EAEDF1",
  "21 c #2B3A4D",
  "22 c #6384AD",
  "23 c #394C63",
  "24 c #6B8CB5",
  "25 c #7394BD",
  "26 c #7B9CC6",
  "27 c #84A5CE",
  "28 c #B0BDCD",
  "29 c #B8C3D0",
  "2A c #101821",
  "2B c #87ADD6",
  "2C c #738CA8",
  "2D c #6D849E",
  "2E c #D6DEE7",
  "2F c #081018",
  "30 c #213142",
  "31 c #4A6B8C",
  "32 c #344B62",
  "33 c #39526B",
  "34 c #638CB5",
  "35 c #29394A",
  "36 c #050709",
  "37 c #6B94BD",
  "38 c #243240",
  "39 c #425A73",
  "3A c #739CC6",
  "3B c #4D6985",
  "3C c #7BA5CE",
  "3D c #6384A5",
  "3E c #151C23",
  "3F c #6B8CAD",
  "40 c #7394B5",
  "41 c #84A5C6",
  "42 c #94B5D6",
  "43 c #849CB5",
  "44 c #9CB5CE",
  "45 c #A5BDD6",
  "46 c #8494A5",
  "47 c #424A52",
  "48 c #A5B5C6",
  "49 c #ADBDCE",
  "4A c #CED6DE",
  "4B c #A8A9AA",
  "4C c #FAFBFC",
  "4D c #E1E2E3",
  "4E c #D5D6D7",
  "4F c #182129",
  "50 c #4A637B",
  "51 c #394A5A",
  "52 c #526373",
  "53 c #5A6B7B",
  "54 c #738494",
  "55 c #B5C6D6",
  "56 c #BDCEDE",
  "57 c #B5C3D0",
  "58 c #73A5CE",
  "59 c #638CAD",
  "5A c #7BADD6",
  "5B c #6B94B5",
  "5C c #739CBD",
  "5D c #8CB5D6",
  "5E c #A9CAE7",
  "5F c #5A84A5",
  "60 c #4A6B84",
  "61 c #52738C",
  "62 c #92CCF7",
  "63 c #1B252D",
  "64 c #5A7B95",
  "65 c #7BA5C6",
  "66 c #6B8CA5",
  "67 c #84B5D6",
  "68 c #63849C",
  "69 c #5A7384",
  "6A c #7693A8",
  "6B c #9CB5C6",
  "6C c #818486",
  "6D c #999C9E",
  "6E c #F5F8FA",
  "6F c #527B94",
  "70 c #4A6373",
  "71 c #526B7B",
  "72 c #94ADBD",
  "73 c #D6EFFF",
  "74 c #DEE8EE",
  "75 c #E3ECF1",
  "76 c #EFF4F7",
  "77 c #EDF2F5",
  "78 c #008CD3",
  "79 c #085A84",
  "7A c #139DE4",
  "7B c #2AA2DE",
  "7C c #235D7B",
  "7D c #2D7396",
  "7E c #4CBEF7",
  "7F c #44ABDF",
  "80 c #56C4FC",
  "81 c #3B7C9D",
  "82 c #66C6F6",
  "83 c #4483A2",
  "84 c #3A6E88",
  "85 c #548DAA",
  "86 c #79A6BC",
  "87 c #8CBDD6",
  "88 c #81ABC1",
  "89 c #82ACC1",
  "8A c #86AEC2",
  "8B c #95B8CA",
  "8C c #9ABBCC",
  "8D c #BFD4DF",
  "8E c #CBDCE5",
  "8F c #D1E0E8",
  "90 c #D4E2E9",
  "91 c #D6E4EB",
  "92 c #D5E3EA",
  "93 c #E5EDF1",
  "94 c #F3F7F9",
  "95 c #F1F5F7",
  "96 c #F9FBFC",
  "97 c #F8FAFB",
  "98 c #F6F8F9",
  "99 c #6599B2",
  "9A c #678C9E",
  "9B c #8BB2C5",
  "9C c #A5C6D6",
  "9D c #A3C2D1",
  "9E c #AEC9D6",
  "9F c #C2D7E1",
  "A0 c #B5C6CE",
  "A1 c #CEDFE7",
  "A2 c #CDDEE6",
  "A3 c #DAE7ED",
  "A4 c #E5EEF2",
  "A5 c #D8E6EC",
  "A6 c #666B6D",
  "A7 c #E9F1F4",
  "A8 c #94C6D6",
  "A9 c #6A6D6E",
  "AA c #F7FAFB",
  "AB c #F6F9FA",
  "AC c #F5F8F9",
  "AD c #7E8D8E",
  "AE c #101818",
  "AF c #BDE7E7",
  "B0 c #E7EFEF",
  "B1 c #6C6D6D",
  "B2 c #FCFDFD",
  "B3 c #C8C9C9",
  "B4 c #BDBEBE",
  "B5 c #939494",
  "B6 c #868F86",
  "B7 c #0F0903",
  "B8 c #241608",
  "B9 c #3A240D",
  "BA c #040302",
  "BB c #1B1006",
  "BC c #281809",
  "BD c #B16323",
  "BE c #211307",
  "BF c #5B3112",
  "C0 c #2A1709",
  "C1 c #361E0C",
  "C2 c #522B10",
  "C3 c #391E0B",
  "C4 c #1E1006",
  "C5 c #79421C",
  "C6 c #783C16",
  "C7 c #6A3514",
  "C8 c #623213",
  "C9 c #5D2F12",
  "CA c #46240E",
  "CB c #9E4D1D",
  "CC c #96471B",
  "CD c #703715",
  "CE c #692F12",
  "CF c #E86828",
  "D0 c #D05D24",
  "D1 c #FF6B29",
  "D2 c #F66929",
  "D3 c #39190A",
  "D4 c #F66327",
  "D5 c #0C0502",
  "D6 c #E85923",
  "D7 c #FF6227",
  "D8 c #FF6328",
  "D9 c #BC4921",
  "DA c #9D3E1B",
  "DB c #57220F",
  "DC c #3D180B",
  "DD c #220E07",
  "DE c #BD4218",
  "DF c #F85B25",
  "E0 c #512010",
  "E1 c #E84F21",
  "E2 c #B53918",
  "E3 c #F24C21",
  "E4 c #E4461F",
  "E5 c #73524A",
  "E6 c #AD3118",
  "E7 c #7B2918",
  "E8 c #30110A",
  "E9 c #DA391A",
  "EA c #B53118",
  "EB c #521810",
  "EC c #732118",
  "ED c #7B2118",
  "EE c #FEFEFE",
  "EF c #F7F7F7",
  "F0 c #C4C4C4",
  "F1 c #ABABAB",
  "F2 c #888888",
  "F3 c #777777",
  "F4 c #737373",
  "F5 c #717171",
  "F6 c #4C4C4C",
  "F7 c #3C3C3C",
  "F8 c #0F0F0F",
  "F9 c #0D0D0D",
  "FA c #090909",
  "FB c #070707",
  "FC c #050505",
  "FD c #020202",
  ".. s None c None",
  "..453D05181818050505050505050505050505050505050519040404195053..",
  "5EAF3F507070527112121212121212121212121212121212102D0D1D2C503547",
  "2B5E480101010101010101010101010101010101010101010101010101543015",
  "5C640173872B583A3A3A3A3A3A3A3A3A3A3A5C5C5C5C5C255B22046001421617",
  "5B69019CA85A3A375B5B5B5B5B5B5B5B5B5B5B5B5B5B24343D6F6039015F33AE",
  "407101A85D2E7402442E02566BB00249222222223D3D5F040516390124053000",
  "251B01875A2E0202482E0202A02E02020404040404059696503901373D232F..",
  "261B015D3C41020268660208040402B004050505610101968001375B392A00..",
  "651B01673C4402550511020E051302490505052D0101F69696805B394F00....",
  "271B01673C5502430548024805A0027205051F0101F6B5B29696074F0006....",
  "271B0167580B022C050E0243054A026A052001010101010101969607C506....",
  "271B016758B0020405B0021A05B00228094DF301010101B4F60196960706....",
  "271B01675834040505050505050505094E6DABEEF00101F6010101969607....",
  "271B01675834040505050505050518A7A30377F0F501010101F6F601969607..",
  "271B01675834040505050505B601038A8D90A4A9ABEE010101B501014E94767E",
  "271B016758340405050505AD14AB95758992A17576AB0001010101F4018F62..",
  "271B0167583404050505052901964E959388A39F03006E4C0101F101867FFD..",
  "271B01675834040505051E014B00ACABA77689A29003760F4BAA92857EFD00..",
  "271B01675834040505180101004C97B4A70376898E926CA68F9F837AD5FB00..",
  "271B0167583404051857010303B2B4F4ACACA4768990A2A28B7D78B7DDFB....",
  "271B016758340461310101030303B54C974DAC93769BA58C7907BBC1E8FA....",
  "271B0167583404180101F601030303B24DB19798A474899A07BEC1BFE006....",
  "271B01673A59050101F6010194030303F69797B1AC9E6A7C07B9C6CCE706....",
  "275301673A3D079D01010101F594030303B2B1979F85847BBCCACBCFE706....",
  "2712012B373B21079D0101F5F001940303034B74790778C4CAC9CFD6E706....",
  "2710013C596117F7079D01010101F3940303918107B8C4C2CDCCD1D6E706....",
  "272C01370450EF2363079D01016D0101F2758507BCC2C7C6D0D1D7E1E706....",
  "401C013D600137643836079D0101010003867FBBC8C8D0D2D1D8DFE4EC06....",
  "40420101013724323EBAB9079D01B395867AC3C9CED9D4D4DFDFE3E9EB06....",
  "596246242405334F00BDC5C0079D019982D3DCDBDAD9DEE2E2EAE6EDE506....",
  "5118321633352A0006F9F9FABA078C7EFCFBFBF8060606060606060606......",
  "..510A0C4F2F............0000070000..............................",
};
