/* XPM */
static char *pixmap[] = {
/* width height ncols cpp */
"32 32 256 2",
  /* Colors */
  "00 c #F76D2B",
  "01 c #F79335",
  "02 c #F4D247",
  "03 c #79838E",
  "04 c #FFA239",
  "05 c #FFD047",
  "06 c #000000",
  "07 c #E1E4E7",
  "08 c #F2F2F4",
  "09 c #959DA6",
  "0A c #354A63",
  "0B c #FF6B29",
  "0C c #FFAD3D",
  "0D c #FFBC42",
  "0E c #728CA6",
  "0F c #FFCD46",
  "10 c #FF9937",
  "11 c #FFB13E",
  "12 c #CDD3D8",
  "13 c #FFB540",
  "14 c #556373",
  "15 c #E88B35",
  "16 c #9199A3",
  "17 c #C9CFD4",
  "18 c #C2CAD1",
  "19 c #F5D648",
  "1A c #AAB3B9",
  "1B c #FFA63B",
  "1C c #FFC043",
  "1D c #FFAA3D",
  "1E c #B9C1C9",
  "1F c #D1D5DB",
  "20 c #B1BAC3",
  "21 c #67727F",
  "22 c #ACB5BE",
  "23 c #101824",
  "24 c #A0A5AD",
  "25 c #21292F",
  "26 c #9BA2AB",
  "27 c #DDE0E4",
  "28 c #D5DBDF",
  "29 c #FFD949",
  "2A c #C4CBD2",
  "2B c #FFD648",
  "2C c #838C96",
  "2D c #FFC745",
  "2E c #B5BEC7",
  "2F c #B4BDC5",
  "30 c #FF9D37",
  "31 c #FF8531",
  "32 c #E8812F",
  "33 c #FF7D2F",
  "34 c #182129",
  "35 c #84A5CE",
  "36 c #5A6B84",
  "37 c #52637B",
  "38 c #84B5D6",
  "39 c #4A6384",
  "3A c #739CC6",
  "3B c #4E5B6A",
  "3C c #73A5CE",
  "3D c #526B8C",
  "3E c #4A6B8C",
  "3F c #638CB5",
  "40 c #425A6B",
  "41 c #FFE24B",
  "42 c #6384A5",
  "43 c #739CBD",
  "44 c #6B8CB4",
  "45 c #4A637B",
  "46 c #7B2918",
  "47 c #6384AD",
  "48 c #D6DEE7",
  "49 c #7B3918",
  "4A c #E7EFEF",
  "4B c #4A6B84",
  "4C c #7BA5CE",
  "4D c #52738C",
  "4E c #A5B5C6",
  "4F c #7B4221",
  "50 c #BD4A21",
  "51 c #BD5221",
  "52 c #7B3118",
  "53 c #638CAD",
  "54 c #BD6329",
  "55 c #E0E3E7",
  "56 c #7394B5",
  "57 c #39526B",
  "58 c #637B9C",
  "59 c #B53918",
  "5A c #AEB7C1",
  "5B c #394A5A",
  "5C c #DADEE2",
  "5D c #ADBDCE",
  "5E c #F3CE46",
  "5F c #F4CC47",
  "60 c #B5C6CE",
  "61 c #5A84A5",
  "62 c #646F7C",
  "63 c #29394A",
  "64 c #DE8734",
  "65 c #7394BD",
  "66 c #213142",
  "67 c #CE7329",
  "68 c #F3C643",
  "69 c #395263",
  "6A c #8CBDD6",
  "6B c #526B7B",
  "6C c #E9A53B",
  "6D c #84ADD6",
  "6E c #849CB5",
  "6F c #B5C6D6",
  "70 c #8CB5D6",
  "71 c #7BADD6",
  "72 c #94C6D6",
  "73 c #AAB2BC",
  "74 c #5A6B7B",
  "75 c #081018",
  "76 c #5A7394",
  "77 c #63738C",
  "78 c #858E98",
  "79 c #F1C243",
  "7A c #4A6373",
  "7B c #94B5D6",
  "7C c #C6CEDE",
  "7D c #9CB5CE",
  "7E c #F1AE3D",
  "7F c #CED4D9",
  "80 c #527B94",
  "81 c #B3B6B5",
  "82 c #B5BAB8",
  "83 c #B2BABF",
  "84 c #9CA3AA",
  "85 c #94ADBD",
  "86 c #C7CDD3",
  "87 c #9CB5C6",
  "88 c #6C7785",
  "89 c #BD4218",
  "8A c #D6EFFF",
  "8B c #F7A638",
  "8C c #F78A31",
  "8D c #7D8087",
  "8E c #BFC6CD",
  "8F c #B9C2CA",
  "90 c #CED6E7",
  "91 c #5A7384",
  "92 c #732118",
  "93 c #6B849C",
  "94 c #A5C6E7",
  "95 c #732918",
  "96 c #425A7B",
  "97 c #DCDFE3",
  "98 c #84A5C6",
  "99 c #FFB940",
  "9A c #F55D27",
  "9B c #F55923",
  "9C c #FF722C",
  "9D c #BCC4CC",
  "9E c #FFD348",
  "9F c #FFC845",
  "A0 c #D1D7DC",
  "A1 c #687380",
  "A2 c #797E87",
  "A3 c #D6DADF",
  "A4 c #D4D9DE",
  "A5 c #B53118",
  "A6 c #B1B9C0",
  "A7 c #F78030",
  "A8 c #63849C",
  "A9 c #D8DCE0",
  "AA c #31425A",
  "AB c #E86429",
  "AC c #BD4221",
  "AD c #FF6328",
  "AE c #7BA5C6",
  "AF c #20272A",
  "B0 c #BDE7E7",
  "B1 c #EEEFF1",
  "B2 c #ADCEE7",
  "B3 c #BBC3CC",
  "B4 c #DA391A",
  "B5 c #8E96A0",
  "B6 c #8494A5",
  "B7 c #738CAD",
  "B8 c #FFBB41",
  "B9 c #FEBA42",
  "BA c #6B92BB",
  "BB c #DCDFE4",
  "BC c #515E6C",
  "BD c #F7F8F9",
  "BE c #C0C8CF",
  "BF c #9CC6F7",
  "C0 c #FE9134",
  "C1 c #BDCEDE",
  "C2 c #F6F7F8",
  "C3 c #E4461F",
  "C4 c #F8F9FA",
  "C5 c #BAC1BF",
  "C6 c #E85522",
  "C7 c #5A7B94",
  "C8 c #B2BBC4",
  "C9 c #B3BCC4",
  "CA c #7B94AD",
  "CB c #A5C2D6",
  "CC c #FE5A26",
  "CD c #849CBD",
  "CE c #717C88",
  "CF c #73524A",
  "D0 c #FE772D",
  "D1 c #7B2118",
  "D2 c #9CADC6",
  "D3 c #8CADD6",
  "D4 c #BD5A29",
  "D5 c #B6BEC7",
  "D6 c #F24C21",
  "D7 c #E84F21",
  "D8 c #AD3118",
  "D9 c #EFEFF7",
  "DA c #E76E2B",
  "DB c #B6BCBA",
  "DC c #FFCB46",
  "DD c #AAADB2",
  "DE c #6B8CA5",
  "DF c #B7C0C8",
  "E0 c #8494B5",
  "E1 c #738494",
  "E2 c #FF8F34",
  "E3 c #8C9CB5",
  "E4 c #521810",
  "E5 c #8CA5C6",
  "E6 c #000818",
  "E7 c #E3E5E8",
  "E8 c #151812",
  "E9 c #F77C2F",
  "EA c #F7A93A",
  "EB c #E78131",
  "EC c #E88733",
  "ED c #CBD2D8",
  "EE c #CED6DE",
  "EF c #B4BBC2",
  "F0 c #AEB6BA",
  "F1 c #F66427",
  "F2 c #424A52",
  "F3 c #FF6227",
  "F4 c #E77C2F",
  "F5 c #7B9CC6",
  "F6 c #DEE7EF",
  "F7 c #EFF7F7",
  "F8 c #6B94BD",
  "F9 c #5A7B9C",
  "FA c #6B94B5",
  "FB c #425A73",
  "FC c #101010",
  "FD c #527394",
  "FE c #FFFFFF",
  ".. s None c None",
  "..CB42FD3D3D3DFDFDFDFDFDFDFDFDFDFDFDFDFDFDFDFDFD76F9F9F9764574..",
  "B2B044457A7A146B363636363636363636363636363636367793E0E5B74563F2",
  "D3944EFEFEFEFEFEFEFEFEFEFEFEFEFEFEFEFEFEFEFEFEFEFEFEFEFEFEE166AA",
  "43C7FE8A6A6D3C3A3A3A3A3A3A3A3A3A3A3A434343434365FA47F94BFE7B3925",
  "FA91FECB72713AF8FAFAFAFAFAFAFAFAFAFAFAFAFAFA443F42804BFBFE6157E8",
  "566BFE727048F6F77D48F7C1874AF75D47474747424261F9FD39FBFE44FD6606",
  "6537FE6A7148F7F74E48F7F76048F7F7F9F9F9F9F9FD4D4B45FBFEF8420A75..",
  "F537FE704C98F7F7A8DEF7D9F9F9F74AF9FDFDFD4D3E39FB40FEF8FAFB2306..",
  "AE37FE384C7DF76FFDE3F77CFDD2F75DFDFDFD3D3E39FB40FEF8FAFB3406....",
  "3537FE384C6FF76EFD4EF74EFD60F785FDFD3D3E39FB40FEF8FAFB3406FC....",
  "3537FE383C90F70EFD7CF76EFDEEF7CAFD3D3E39FB40FEF8FAFB34064FFC....",
  "3537FE383C4AF758FD4AF784242616583D3E39FB40FEF8FAFB3406644FFC....",
  "3537FE383C3FF9FDFDFD26BD08B108093E39FB40FEF8FAFB34067E644FFC....",
  "3537FE383C3FF9FDFD0E09C2E7E7072809FB40FEF8BAFB3406797E1549FC....",
  "3537FE383C3FF9FDFDFDB5C4070307277F16FEF8F8FB34AF5F79B91549FC....",
  "3537FE383C3FF9FDFDFD2C0855555527A91F78F8FB34AF415F050D1549FC....",
  "3537FE383C3FF9FDFDFDFD785C97BB5CA31F180334AF41029EDC131549FC....",
  "3537FE383C3FF9FDFDFD3D3E2C12A3A4A0ED86EF8841192B0F1C1DEC49FC....",
  "3537FE383C3FF9FDFD3D3E39FB031712ED172A8EC5A129052D13043252FC....",
  "3537FE383C3FF9FD3D3E39FB69FECEB32A18BEB31EDB62DC1C0C303252FC....",
  "3537FE383C3FF94D3E39FB69FEF8F862A69D8FDFD52F8221131B10EB95FC....",
  "3537FE383C3FF93D39FB40FEF8F8FB341483DF2E2EC920812110C0F452FC....",
  "3537FE383A53FD39FB40FEF844FB342541BC1A2FC8205A22243B31DA46FC....",
  "3574FE383A423E9640FEF8FAFB34064119293B1A205A22731ACE3BAB46FC....",
  "3536FE6DF8F939FBFEF8FAFB340641022B0F1C3BF02273DD8D3B3B3B46FC....",
  "3577FE4C534DFBFEF8FAFB340641419E2DB8110C3B841AA233D00BC646FC....",
  "350EFEF8F945FEF8FAFB34065E5E0F1C131D1B04103B263B9C0BF3D746FC....",
  "56CDFE424BFEF8FAFB34E868689F990C043010E231333B3B0BADCCC392FC....",
  "567BFEFEFEF844FB34066C6CEA8B01018C8CA7E90000F13B9A9BD6B4E4FC....",
  "53BFB64444FD5734066767545454D4515151505050AC895959A5D8D1CFFC....",
  "5B3D0A3957632306FCFCFCFCFCFCFCFCFCFCFCFCFCFCFCFCFCFCFCFCFC......",
  "..5B23E63475....................................................",
};
