/* XPM */
static char *pixmap[] = {
/* width height ncols cpp */
"32 32 256 2",
  /* Colors */
  "00 c #F4CC53",
  "01 c #5A7B9C",
  "02 c #C99165",
  "03 c #87ADD6",
  "04 c #90542C",
  "05 c #8498B9",
  "06 c #FFF9EF",
  "07 c #EAEAEA",
  "08 c #E88E37",
  "09 c #B7C8CF",
  "0A c #111111",
  "0B c #253546",
  "0C c #FFDB6C",
  "0D c #87744E",
  "0E c #4D5267",
  "0F c #6C94BD",
  "10 c #435A73",
  "11 c #CFD6E4",
  "12 c #D5CBBF",
  "13 c #52637B",
  "14 c #B2734B",
  "15 c #4E4A43",
  "16 c #272219",
  "17 c #36475A",
  "18 c #FEEE90",
  "19 c #82A3C4",
  "1A c #B7B7B7",
  "1B c #7A9CC3",
  "1C c #7E93A6",
  "1D c #53738D",
  "1E c #4C4C4C",
  "1F c #63738C",
  "20 c #9DB4C4",
  "21 c #5B6C7C",
  "22 c #B2BDCC",
  "23 c #6C859D",
  "24 c #FFC667",
  "25 c #FFFEFD",
  "26 c #7295BD",
  "27 c #8E9AA5",
  "28 c #71889E",
  "29 c #FFFDFA",
  "2A c #FFFCF6",
  "2B c #F3F9F8",
  "2C c #353838",
  "2D c #536A7B",
  "2E c #728EA6",
  "2F c #19222A",
  "30 c #597A96",
  "31 c #5A6B84",
  "32 c #D6DEE7",
  "33 c #8696A5",
  "34 c #577594",
  "35 c #354A63",
  "36 c #E2BD79",
  "37 c #FFC658",
  "38 c #C3A172",
  "39 c #66697B",
  "3A c #7D3B19",
  "3B c #897562",
  "3C c #B7B1AC",
  "3D c #7C848A",
  "3E c #62819F",
  "3F c #252C35",
  "40 c #FFEB8F",
  "41 c #B6C7D7",
  "42 c #6985A1",
  "43 c #4B6B84",
  "44 c #7097B7",
  "45 c #526987",
  "46 c #F8AC3F",
  "47 c #535668",
  "48 c #637E9A",
  "49 c #8F866B",
  "4A c #4A637B",
  "4B c #101824",
  "4C c #97A1AB",
  "4D c #526473",
  "4E c #46423D",
  "4F c #F2B142",
  "50 c #BD6329",
  "51 c #8E9CA8",
  "52 c #8CA5C6",
  "53 c #827361",
  "54 c #84A5CE",
  "55 c #6B94B5",
  "56 c #84B5D6",
  "57 c #739CC6",
  "58 c #73A5CE",
  "59 c #EFF7F7",
  "5A c #638CB5",
  "5B c #707070",
  "5C c #6384A5",
  "5D c #64819F",
  "5E c #749CBC",
  "5F c #6384AD",
  "60 c #6B8CB5",
  "61 c #526B8C",
  "62 c #607F9E",
  "63 c #786747",
  "64 c #8F7B54",
  "65 c #B0B0B0",
  "66 c #62553C",
  "67 c #352F22",
  "68 c #FFF5E2",
  "69 c #FFF3DD",
  "6A c #7BA5CE",
  "6B c #F0F7F7",
  "6C c #FFF7E8",
  "6D c #FFF2DA",
  "6E c #4E4330",
  "6F c #39526B",
  "70 c #7394B5",
  "71 c #4A6384",
  "72 c #638CAD",
  "73 c #7E4321",
  "74 c #909DA8",
  "75 c #778CA0",
  "76 c #CE7329",
  "77 c #56575E",
  "78 c #94C6D6",
  "79 c #485E76",
  "7A c #5A7394",
  "7B c #8CBDD6",
  "7C c #4A4F64",
  "7D c #DE8734",
  "7E c #F5FAF9",
  "7F c #081018",
  "80 c #B9B9B6",
  "81 c #48463F",
  "82 c #A5B5C6",
  "83 c #E7EFEF",
  "84 c #94B5D6",
  "85 c #8CB5D6",
  "86 c #88909B",
  "87 c #9CB5CE",
  "88 c #5A84A5",
  "89 c #161514",
  "8A c #FFFAF2",
  "8B c #FFF28B",
  "8C c #7BADD6",
  "8D c #4A6373",
  "8E c #CBC7C4",
  "8F c #B9B5B0",
  "90 c #C6C6C6",
  "91 c #C86934",
  "92 c #FFFBF4",
  "93 c #6C849C",
  "94 c #8E7F63",
  "95 c #7BA5C6",
  "96 c #F9DF73",
  "97 c #100C08",
  "98 c #EAA840",
  "99 c #000818",
  "9A c #3E3E40",
  "9B c #80745C",
  "9C c #101818",
  "9D c #D6EFFF",
  "9E c #959794",
  "9F c #493E27",
  "A0 c #617D91",
  "A1 c #F2AD5D",
  "A2 c #FFC25F",
  "A3 c #A5C6E7",
  "A4 c #A0B4C9",
  "A5 c #93ACC7",
  "A6 c #F9A850",
  "A7 c #BD8A68",
  "A8 c #B18962",
  "A9 c #B18562",
  "AA c #A5A294",
  "AB c #AEA99E",
  "AC c #67788F",
  "AD c #FFC34F",
  "AE c #EB9743",
  "AF c #B3B5B4",
  "B0 c #BFC8CD",
  "B1 c #95A3B8",
  "B2 c #758BA0",
  "B3 c #FFF084",
  "B4 c #5A7384",
  "B5 c #9EA6AD",
  "B6 c #F0F0F7",
  "B7 c #EAA83F",
  "B8 c #979CA4",
  "B9 c #B7B6B1",
  "BA c #FFDC77",
  "BB c #EEA04E",
  "BC c #9097A2",
  "BD c #89A0B7",
  "BE c #69839C",
  "BF c #81A1BB",
  "C0 c #A5C6D6",
  "C1 c #D88952",
  "C2 c #EFF3F2",
  "C3 c #E9F0F0",
  "C4 c #CF7A42",
  "C5 c #A5BDD6",
  "C6 c #BDE7E7",
  "C7 c #FBB360",
  "C8 c #FFDD7A",
  "C9 c #424A52",
  "CA c #9CC6F7",
  "CB c #FFDD82",
  "CC c #C0BDB8",
  "CD c #6F8096",
  "CE c #FFE87F",
  "CF c #ADCEE7",
  "D0 c #D1D8D8",
  "D1 c #F1F8F8",
  "D2 c #F8A147",
  "D3 c #E2E2E2",
  "D4 c #F89E40",
  "D5 c #FFDF70",
  "D6 c #8EA9BE",
  "D7 c #D2C4B5",
  "D8 c #D4D8E3",
  "D9 c #FFD057",
  "DA c #DEE7EF",
  "DB c #ADBDCE",
  "DC c #718897",
  "DD c #9A7A65",
  "DE c #9A6845",
  "DF c #6D8398",
  "E0 c #555247",
  "E1 c #BDCEDE",
  "E2 c #BFC9D4",
  "E3 c #66869D",
  "E4 c #6C7981",
  "E5 c #5A5E70",
  "E6 c #858B8E",
  "E7 c #8B97A2",
  "E8 c #757F80",
  "E9 c #758498",
  "EA c #738494",
  "EB c #C25D2A",
  "EC c #FFDA61",
  "ED c #F8DD6B",
  "EE c #F7DB65",
  "EF c #FEBE4A",
  "F0 c #7386A1",
  "F1 c #BF5E2C",
  "F2 c #A3916D",
  "F3 c #A0613A",
  "F4 c #738CAD",
  "F5 c #AAAFB1",
  "F6 c #FBFCFA",
  "F7 c #465D6D",
  "F8 c #D0C1A6",
  "F9 c #6B8CAD",
  "FA c #527394",
  "FB c #A6CCFF",
  "FC c #484C61",
  "FD c #000000",
  "FE c #FFFFFF",
  ".. s None c None",
  "..C55CFA616161FAFAFAFAFAFAFAFAFAFAFAFAFAFAFAFAFA7A0101017A4A21..",
  "CFC6F94A8D8D4D2D313131313131313131313131313131311F930552F44A0BC9",
  "03A382FEFEFEFEFEFEFEFEFEFEFEFEFEFEFEFEFEFEFEFEFEFEFEFEFEFEEA0B17",
  "5E30FE9D7B035857575757575757575757575E5E5E5E5E26555F0143FE84713F",
  "55B4FEC0788C570F5555555555555555555555555555605A5C304310FE886F9C",
  "702DFE788532DA59873259E1208359DB5F5F5F5F5C5C8801FA7110FE60FA0BFD",
  "2613FE7B8C3259598232595909326B6B6262626262341D434A10FE0F5C357F..",
  "1B13FE856A195959E32E6BB64242D1C342484848A0344579F7FE0F55104BFD..",
  "9513FE566A87594130B1D11128222BE2757575E9DFAC214DFE0F55102FFD....",
  "5413FE566A4159BD48222BB051D07EB04C4CB827863DE4FE1B44102FFD0A....",
  "5413FE565811591C93D87EFCFC07FCFCCC39393CFCFCFEA5BF132FFD730A....",
  "5413FE5658836BF0B2C2FC8E12FCF6124712D7FCF8FEFC20E42C977D730A....",
  "5413FE56585A62BE1CB5FDFDFDFDFDFDFDFDFDFDFDFDFD9EE0164F7D730A....",
  "5413FE56585A3E2333F5FDFBFBFBFBFBFBFBFBFBFBFBFD946E004F083A0A....",
  "5413FE56585A3E2827AFFDFBFBFBFBFBFBFBFBFBFBFBFDF2ED00EF083A0A....",
  "5413FE56585A5D28511AFD0E0E0E7C7C7C0E0E0E0E0EFD8B96ECAD083A89....",
  "5413FE56585A5D287480FDFEFEFCFEFEFCFEFEE5FEFEFD18CE0C37AE738925..",
  "5413FE56585A5D287480FDFEFEFCFEFEFCFEFE7CFEFEFD1840C824BB04162925",
  "5413FE56585A5D28748FFDFCFCFCFCFCFCFCFC47772C0A89814936A1F3672A25",
  "5413FE56585A5D28BCB9FDFEFEFCFEFEFCFE909A5B1A07071A5B1538146E0629",
  "5413FE56585A5DDCE73CFDFEFEFCFEFEFCD31E65FEFEFEFEFEFE6515A8666C2A",
  "5413FE56585A3ECD86ABFDFCFCFCFCFCFC775BFEFEFEFEFEFEFEFE5B5363688A",
  "5413FE56577230AC3DAAFDFEFEFCFEFEFC1E1AFEFEFDFEFEFEFEFE1A4E0D6906",
  "5421FE56575C1D31E8FEFDFEFEFCFEFEFC8907FEFEFEFDFEFEFEFE0789646D06",
  "5431FE030F01452DFEA4FDFDFDFDFDFDFD0A07FEFEFEFEFDFEFEFE0789646D06",
  "541FFE6A721D79FE19D6E69B0DB38B1840811AFEFEFEFEFDFEFEFE1A4E0D6906",
  "542EFE0F014AFE265E21159FEEEDD5BACB495BFEFEFEFEFDFEFEFE5B5363688A",
  "7005FE5C43FE0F44793F670000D937A224361565FEFEFEFDFEFE6515A9666C2A",
  "7084FEFEFE0F60102F97B7984646D4D2A6C738155B1A07071A5B15A7DE6E0629",
  "72CA336060FA6F2FFD7676505050F1EB91C4C1023B4E89894E3B0214DD672A25",
  "176135716F0B4BFD0A0A0A0A0A0A898916676E66630D64640D63666E67922925",
  "..174B992F7F..................25292A066C68696D6D69686C062A2925..",
};
