/* XPM */
static char *pixmap[] = {
/* width height ncols cpp */
"16 16 54 2",
  /* Colors */
  "00 c #000000",
  "01 c #FFFFFF",
  "02 c #34495F",
  "03 c #32465B",
  "04 c #2E4154",
  "05 c #7DB0E2",
  "06 c #7CAEE0",
  "07 c #709DCA",
  "08 c #6E9BC7",
  "09 c #6087AE",
  "0A c #5F86AC",
  "0B c #5C81A6",
  "0C c #577A9D",
  "0D c #45617D",
  "0E c #415B76",
  "0F c #3E5770",
  "10 c #7DAEE0",
  "11 c #7BACDD",
  "12 c #72A0CD",
  "13 c #6D99C4",
  "14 c #6992BD",
  "15 c #5F85AB",
  "16 c #5C80A5",
  "17 c #587B9E",
  "18 c #557799",
  "19 c #3F5871",
  "1A c #B7D0E9",
  "1B c #D4DCE4",
  "1C c #2E4255",
  "1D c #344A5F",
  "1E c #709ECA",
  "1F c #6D9AC5",
  "20 c #405A73",
  "21 c #A0BDC4",
  "22 c #A0BCC3",
  "23 c #A1BEC4",
  "24 c #B1AC1D",
  "25 c #FFF200",
  "26 c #898306",
  "27 c #B5AC10",
  "28 c #AFA919",
  "29 c #D3CA1F",
  "2A c #B7AF1D",
  "2B c #E0D23A",
  "2C c #F7F0A8",
  "2D c #BAA40F",
  "2E c #D9B91B",
  "2F c #D9BA1B",
  "30 c #FF1200",
  "31 c #FF1300",
  "32 c #FF0700",
  "33 c #FF0100",
  "34 c #FF0500",
  "35 c #800000",
  "01121E081F0C0C0C0C0C0C0C0C0E0D01",
  "07120101010100000000010101010203",
  "13011A050600232C2C250009150A011D",
  "1401100024212C2C252C2528001B0B00",
  "0C0111242C2600252C252C252A200001",
  "0C010022252B2B272500262B25003501",
  "0C00222B26000025250000252B250001",
  "0C00252C252C27252527252B252B0001",
  "0C002C252C25252525252B252B250001",
  "0C00252B2627252525252529252F0001",
  "0C010025270000262727002B2F003501",
  "0C011628252C2600000027292D313501",
  "0C0117002A252B252B252E2D00323501",
  "0E01181B0F002529252E003034333501",
  "191C010F003500000000353535350101",
  "01040400010101010101010101010101",
};
