/* XPM */
static char *pixmap[] = {
/* width height ncols cpp */
"32 32 194 2",
  /* Colors */
  "00 c #FFFFFF",
  "01 c #EFF2F4",
  "02 c #EAEDF1",
  "03 c #E4E9EE",
  "04 c #DCE2E9",
  "05 c #D3DCE4",
  "06 c #C9D6E1",
  "07 c #CDD7DF",
  "08 c #C3CED9",
  "09 c #C0C0C0",
  "0A c #BEE0E0",
  "0B c #ACCAE0",
  "0C c #A4C6E0",
  "0D c #99C4F1",
  "0E c #BAC9D8",
  "0F c #B4C5D4",
  "10 c #A6C5D4",
  "11 c #B2C1CF",
  "12 c #95C2D4",
  "13 c #A4BED0",
  "14 c #ABBDCD",
  "15 c #A3B5C6",
  "16 c #92B1D0",
  "17 c #8CB8D4",
  "18 c #8BB3D4",
  "19 c #84B1D4",
  "1A c #8AAED4",
  "1B c #83ABD2",
  "1C c #9AB2C9",
  "1D c #9BADC0",
  "1E c #83A6CA",
  "1F c #8CA7C1",
  "20 c #83A2C1",
  "21 c #A5A7A8",
  "22 c #96A9BC",
  "23 c #859FBA",
  "24 c #889EB4",
  "25 c #839BB2",
  "26 c #8097B0",
  "27 c #8394A7",
  "28 c #898584",
  "29 c #7FAAD2",
  "2A c #79A4CB",
  "2B c #7EA1C5",
  "2C c #7A9DC1",
  "2D c #729BC1",
  "2E c #729ABF",
  "2F c #7297BB",
  "30 c #7092B6",
  "31 c #6C93BB",
  "32 c #6C91B6",
  "33 c #6B8EB3",
  "34 c #678EB2",
  "35 c #7D94AC",
  "36 c #718EAD",
  "37 c #718AA3",
  "38 c #6B8AAB",
  "39 c #6589AD",
  "3A c #6186A9",
  "3B c #6E8BA5",
  "3C c #6984A1",
  "3D c #6184A6",
  "3E c #5E82A4",
  "3F c #778696",
  "40 c #6D839B",
  "41 c #62819E",
  "42 c #627F9B",
  "43 c #62758B",
  "44 c #5B7C9C",
  "45 c #5F7A95",
  "46 c #577897",
  "47 c #597796",
  "48 c #567493",
  "49 c #53718F",
  "4A c #5B7086",
  "4B c #516E8B",
  "4C c #596C81",
  "4D c #4F6C88",
  "4E c #4E6B87",
  "4F c #4B6581",
  "50 c #FFE14F",
  "51 c #FADC4D",
  "52 c #FFD34A",
  "53 c #FFCD48",
  "54 c #FFC346",
  "55 c #EDCB48",
  "56 c #FFBD43",
  "57 c #F0BC42",
  "58 c #FFB541",
  "59 c #EDBA41",
  "5A c #FFFF00",
  "5B c #FEAC3E",
  "5C c #F0AF3E",
  "5D c #FEA33B",
  "5E c #F0A239",
  "5F c #ECA93C",
  "60 c #DFA93B",
  "61 c #FF9B3A",
  "62 c #FF9539",
  "63 c #FF9236",
  "64 c #F09737",
  "65 c #FF8C35",
  "66 c #FF8433",
  "67 c #EF8F34",
  "68 c #ED8232",
  "69 c #DE9C37",
  "6A c #DC9335",
  "6B c #CE842F",
  "6C c #B09935",
  "6D c #B39133",
  "6E c #B2852E",
  "6F c #808000",
  "70 c #FF7C31",
  "71 c #FF7731",
  "72 c #FF7B2F",
  "73 c #FF732D",
  "74 c #ED7A2E",
  "75 c #FF6C2B",
  "76 c #FE662A",
  "77 c #ED6528",
  "78 c #CA702D",
  "79 c #ED5925",
  "7A c #B27D2C",
  "7B c #AF7D2D",
  "7C c #BD632B",
  "7D c #B26B27",
  "7E c #B16525",
  "7F c #9F7629",
  "80 c #9F7027",
  "81 c #806423",
  "82 c #BC5D28",
  "83 c #B05C23",
  "84 c #BA5525",
  "85 c #B05722",
  "86 c #B94B23",
  "87 c #B84421",
  "88 c #815D21",
  "89 c #B3481D",
  "8A c #B03F1A",
  "8B c #AB391B",
  "8C c #A02E19",
  "8D c #9E3219",
  "8E c #8B2815",
  "8F c #852E13",
  "90 c #5A6B7F",
  "91 c #56687D",
  "92 c #55677B",
  "93 c #516376",
  "94 c #4A647E",
  "95 c #4E6073",
  "96 c #475F78",
  "97 c #445C76",
  "98 c #41586F",
  "99 c #40566F",
  "9A c #6A4E4A",
  "9B c #3D546B",
  "9C c #3C5267",
  "9D c #384C61",
  "9E c #354B63",
  "9F c #334558",
  "A0 c #314254",
  "A1 c #2B3C4D",
  "A2 c #243342",
  "A3 c #7C4221",
  "A4 c #7B3B1E",
  "A5 c #7B341C",
  "A6 c #792E1A",
  "A7 c #7D2E14",
  "A8 c #632114",
  "A9 c #513E16",
  "AA c #4E3A14",
  "AB c #5F200D",
  "AC c #651E14",
  "AD c #661A0D",
  "AE c #5D1F12",
  "AF c #561C12",
  "B0 c #451912",
  "B1 c #5F1D0C",
  "B2 c #411409",
  "B3 c #222F3C",
  "B4 c #1B252E",
  "B5 c #121F2B",
  "B6 c #141C23",
  "B7 c #2F240D",
  "B8 c #251D0B",
  "B9 c #221006",
  "BA c #12181F",
  "BB c #151515",
  "BC c #0E141A",
  "BD c #060F19",
  "BE c #141006",
  "BF c #120E05",
  "C0 c #000000",
  ".. s None c None",
  "..133D484B4B4B484848484848484848484848484848484847444444479490..",
  "0B0A3894959593914C4C4C4C4C4C4C4C4C4C4C4C4C4C4C4C4340261F3694A19F",
  "1A0C15....................................................3FA29F",
  "2E45....171B2A2D2D2D2D2D2D2D2D2D2D2D2E2E2E2E2E2F323A444E..164FB3",
  "324A..1012292D31323232323232323232323232323233343D464E97..3E9BBA",
  "3091..12180504011C05010E1C0301143A3A3A3A3D3D3E44484F97..3348A2C0",
  "2F92..17290501011505010111050101444444444448494E9497..313D9DBC..",
  "2C92..182A200101413B01024444010344484848494D4F9798..313297B6C0..",
  "2B92..192A1C010F48240108481D01144848484B4D4F9798..313297B4C0....",
  "1E92..192A0F0125481501154811012248484B4D4F9798..313297B4C0BB....",
  "1E92..192A0601374808012548070135480097969798..313297B4C0A3BB....",
  "1E92..192A0301424803013C48030142000051A09C..313297B4C061A3BB....",
  "1E92..192A34444848484848484848000028515121393397B4C05462A3BB....",
  "1E92..192A344448484848484848000028000000519499B4C0535663A4BB....",
  "1E92..192A34444848484848485A0028000028000051B6C053535865A4BB....",
  "1E92..192A3444484848484800005A5A092800002800006D59545B66A4BB....",
  "1E92..192A3444484848480000285A00C06F0028000051006E5C5D66A4BB....",
  "1E92..192A3444484848000028006F0928C0C000000051B888695D70A4BB....",
  "1E92..192A34444848510028002800002800C0C05151BFA97A5E5D71A5BB....",
  "1E92..192A3444484B97510028000028002800C0C0BFAA7B5F5D6173A5BB....",
  "1E92..192A3444494D96A0515100280000002800C0C0886A5D5D6375A5BB....",
  "1E92..192A34444B4F979C21510000002800512809C0C0286B676575A5BB....",
  "1E92..192D39484F9798..39945100280051BFB728C0C0C0287E7476A6BB....",
  "1E90..192D3D4D9698..313399B6510051BEA97F802809C0C0288579A6BB....",
  "1E4C..1B31444F97..313297B4C06C51B8A96E5FC06F2800C0C0288AA6BB....",
  "1E43..2A394997..313297B4C050556D816E5F5B6AC06F2800C0C0ABA8BB....",
  "1E37..314494..313297B4C050515257605C5B5B647DC06F2800C0B2AEBB....",
  "1E23..3D4E..313297B4C05152535456585B5D61626883C0B92828B2AFBB....",
  "2C16......313397B4C054585B5B5D616365666672737789A78FB1ADB0BB....",
  "390D274F33489BB4C062787C7C7C8284848486868687898B8D8C8EAC9ABB....",
  "9F4B9E4F9BA1B6C0BBBBBBBBBBBBBBBBBBBBBBBBBBBBBBBBBBBBBBBBBB......",
  "..9FB5BDB4BC....................................................",
};
