/* XPM */
static char *pixmap[] = {
/* width height ncols cpp */
"16 16 55 2",
  /* Colors */
  "00 c #FFFFFF",
  "01 c #C0C0C0",
  "02 c #BDCBDA",
  "03 c #808080",
  "04 c #77BEFF",
  "05 c #65AFFC",
  "06 c #57A1EE",
  "07 c #70A7DC",
  "08 c #7BA2C7",
  "09 c #679CD1",
  "0A c #6093CA",
  "0B c #5A8DC2",
  "0C c #3B80CB",
  "0D c #5488BD",
  "0E c #4E81B5",
  "0F c #3376C0",
  "10 c #4B7DB0",
  "11 c #497AAC",
  "12 c #4777AA",
  "13 c #4271A3",
  "14 c #406E9E",
  "15 c #2869AF",
  "16 c #2569AF",
  "17 c #2365A9",
  "18 c #2061A5",
  "19 c #1E60A4",
  "1A c #3E6C9C",
  "1B c #3A6595",
  "1C c #33608B",
  "1D c #335E8B",
  "1E c #21578F",
  "1F c #2F5A87",
  "20 c #2B5681",
  "21 c #1B5B9E",
  "22 c #175799",
  "23 c #135395",
  "24 c #104F90",
  "25 c #0C4787",
  "26 c #F9DC4D",
  "27 c #FFFF00",
  "28 c #FF8333",
  "29 c #808000",
  "2A c #D53F11",
  "2B c #284F7A",
  "2C c #274E79",
  "2D c #214973",
  "2E c #0D4070",
  "2F c #1B4169",
  "30 c #193E64",
  "31 c #083767",
  "32 c #002F69",
  "33 c #712511",
  "34 c #000024",
  "35 c #000000",
  ".. s None c None",
  "..060F17222323222119181721251E..",
  "0504........................3131",
  "0C..02090B0E111112131A1C2B1F..1F",
  "16..07270B11131426261D2C30081F34",
  "19..0A35272701000000262D..1F35..",
  "21..0D3527003529030000001F3433..",
  "21..0E352901033535030003002A33..",
  "21..10130000030035350300002633..",
  "19..10260003000300353500263533..",
  "17..12260000030003013535032833..",
  "15..13352600000300030135350333..",
  "17..1B1F3526000000260300353503..",
  "17..202F..3526002635290300353503",
  "24..1F081F3435263528352903003535",
  "322E..1F343333353333333529030035",
  "..343434................35290303",
};
