/* XPM */
static char *pixmap[] = {
/* width height ncols cpp */
"16 16 105 2",
  /* Colors */
  "00 c #C6CCD6",
  "01 c #030E1F",
  "02 c #557799",
  "03 c #597DA1",
  "04 c #6E9BC7",
  "05 c #FF2700",
  "06 c #587B9E",
  "07 c #BFC7CD",
  "08 c #BCC3CB",
  "09 c #3D5770",
  "0A c #415B76",
  "0B c #2E4154",
  "0C c #D2D7E0",
  "0D c #E2E9EB",
  "0E c #FF9600",
  "0F c #FF1200",
  "10 c #3D566F",
  "11 c #72A0CD",
  "12 c #3E5770",
  "13 c #FF7000",
  "14 c #6993BE",
  "15 c #2E4255",
  "16 c #344A5F",
  "17 c #3D4750",
  "18 c #34495F",
  "19 c #527496",
  "1A c #FF0700",
  "1B c #6189B0",
  "1C c #FF4600",
  "1D c #3F5871",
  "1E c #FF4100",
  "1F c #FFB400",
  "20 c #5C80A5",
  "21 c #D3DCE4",
  "22 c #FF0100",
  "23 c #FF9400",
  "24 c #5B81A6",
  "25 c #5F85AC",
  "26 c #57799C",
  "27 c #FF6100",
  "28 c #707A83",
  "29 c #6086AC",
  "2A c #648DB4",
  "2B c #FF4900",
  "2C c #57799B",
  "2D c #45617D",
  "2E c #709DCA",
  "2F c #5F85AB",
  "30 c #667179",
  "31 c #6994BF",
  "32 c #6087AE",
  "33 c #ABB4BE",
  "34 c #29313D",
  "35 c #658EB6",
  "36 c #537596",
  "37 c #405A73",
  "38 c #5B80A4",
  "39 c #616C75",
  "3A c #121D28",
  "3B c #547698",
  "3C c #628AB2",
  "3D c #74A2D0",
  "3E c #CBD4DB",
  "3F c #557899",
  "40 c #FF0500",
  "41 c #FFAD00",
  "42 c #5B7FA4",
  "43 c #B7D0E9",
  "44 c #648CB3",
  "45 c #4C5660",
  "46 c #5C81A6",
  "47 c #32465B",
  "48 c #FF1300",
  "49 c #527495",
  "4A c #5C82A6",
  "4B c #5F86AC",
  "4C c #6892BC",
  "4D c #6992BD",
  "4E c #56789B",
  "4F c #DDE3EA",
  "50 c #5B80A5",
  "51 c #FF8200",
  "52 c #709ECA",
  "53 c #5E84AA",
  "54 c #A6AEB7",
  "55 c #FF9000",
  "56 c #D5DDE4",
  "57 c #75A4D3",
  "58 c #B3BCC7",
  "59 c #AFBAC0",
  "5A c #6F9CC9",
  "5B c #6891BB",
  "5C c #6D9AC5",
  "5D c #6D99C4",
  "5E c #FFAB00",
  "5F c #556069",
  "60 c #9DA9B3",
  "61 c #D4DCE4",
  "62 c #EBEBEB",
  "63 c #525E66",
  "64 c #577A9D",
  "65 c #800000",
  "66 c #000000",
  "67 c #FFFFFF",
  ".. s None c None",
  "..1152045C64646464646464640A2D..",
  "2E116767676767676767676767671847",
  "5D6743636363575A31351B322F4B6716",
  "4D6763626262635B3C534A5038614666",
  "646763620100626303263F02613766..",
  "6467630D0D0C076263194921096665..",
  "64673D63604F000862636110664165..",
  "6467044C39605600586263661F2365..",
  "646714444245600C075962630E1365..",
  "64672A25063B17603E083362632B65..",
  "646729242C36613460005430636365..",
  "64672003026110663A60281C054865..",
  "6467064E6109665E55015F050F1A65..",
  "0A67026112660E51271E010F402265..",
  "1D15671266656565656565656565....",
  "..0B0B66........................",
};
