/* XPM */
static char *pixmap[] = {
/* width height ncols cpp */
"32 32 254 2",
  /* Colors */
  "00 c #000000",
  "01 c #FFFFFF",
  "02 c #EFEFF7",
  "03 c #101829",
  "04 c #CED6E7",
  "05 c #000818",
  "06 c #212939",
  "07 c #8494B5",
  "08 c #C6CEDE",
  "09 c #63738C",
  "0A c #8C9CB5",
  "0B c #394A63",
  "0C c #5A6B84",
  "0D c #9CADC6",
  "0E c #31425A",
  "0F c #11171F",
  "10 c #4A6384",
  "11 c #131921",
  "12 c #526B8C",
  "13 c #151B23",
  "14 c #5A7394",
  "15 c #637B9C",
  "16 c #6B84A5",
  "17 c #738CAD",
  "18 c #52637B",
  "19 c #849CBD",
  "1A c #8CA5C6",
  "1B c #6384AD",
  "1C c #6B8CB5",
  "1D c #7394BD",
  "1E c #7B9CC6",
  "1F c #84A5CE",
  "20 c #8CADD6",
  "21 c #101821",
  "22 c #1F2934",
  "23 c #212B36",
  "24 c #9CC6F7",
  "25 c #D6DEE7",
  "26 c #081018",
  "27 c #314A63",
  "28 c #213142",
  "29 c #4A6B8C",
  "2A c #39526B",
  "2B c #131B23",
  "2C c #638CB5",
  "2D c #527394",
  "2E c #29394A",
  "2F c #19232D",
  "30 c #6B94BD",
  "31 c #151D25",
  "32 c #6B92BB",
  "33 c #425A73",
  "34 c #5A7B9C",
  "35 c #1B252F",
  "36 c #739CC6",
  "37 c #1C2630",
  "38 c #171F27",
  "39 c #11171D",
  "3A c #7BA5CE",
  "3B c #6384A5",
  "3C c #06080A",
  "3D c #84ADD6",
  "3E c #6B8CAD",
  "3F c #7394B5",
  "40 c #07090B",
  "41 c #84A5C6",
  "42 c #94B5D6",
  "43 c #738CA5",
  "44 c #A5C6E7",
  "45 c #7B94AD",
  "46 c #849CB5",
  "47 c #9CB5CE",
  "48 c #A5BDD6",
  "49 c #8494A5",
  "4A c #424A52",
  "4B c #A5B5C6",
  "4C c #ADBDCE",
  "4D c #CED6DE",
  "4E c #1D2934",
  "4F c #182129",
  "50 c #4A637B",
  "51 c #394A5A",
  "52 c #6B849C",
  "53 c #526373",
  "54 c #5A6B7B",
  "55 c #738494",
  "56 c #B5C6D6",
  "57 c #BDCEDE",
  "58 c #DEE7EF",
  "59 c #73A5CE",
  "5A c #638CAD",
  "5B c #7BADD6",
  "5C c #6B94B5",
  "5D c #739CBD",
  "5E c #8CB5D6",
  "5F c #212930",
  "60 c #5A84A5",
  "61 c #4A6B84",
  "62 c #19232B",
  "63 c #52738C",
  "64 c #1B252D",
  "65 c #151D23",
  "66 c #5A7B94",
  "67 c #212D36",
  "68 c #7BA5C6",
  "69 c #6B8CA5",
  "6A c #ADCEE7",
  "6B c #84B5D6",
  "6C c #425A6B",
  "6D c #11171B",
  "6E c #63849C",
  "6F c #5A7384",
  "70 c #9CB5C6",
  "71 c #527B94",
  "72 c #4A6373",
  "73 c #526B7B",
  "74 c #94ADBD",
  "75 c #D6EFFF",
  "76 c #0E1519",
  "77 c #8CBDD6",
  "78 c #080A0B",
  "79 c #A5C6D6",
  "7A c #B5C6CE",
  "7B c #1F272A",
  "7C c #070A0B",
  "7D c #94C6D6",
  "7E c #101818",
  "7F c #BDE7E7",
  "80 c #090B0B",
  "81 c #EFF7F7",
  "82 c #E7EFEF",
  "83 c #060603",
  "84 c #020201",
  "85 c #403913",
  "86 c #3D3612",
  "87 c #403712",
  "88 c #3D3512",
  "89 c #1A170B",
  "8A c #090804",
  "8B c #403612",
  "8C c #F3CE46",
  "8D c #403512",
  "8E c #F4CC47",
  "8F c #3D3312",
  "90 c #FFCD46",
  "91 c #F3C643",
  "92 c #F1C243",
  "93 c #403412",
  "94 c #403311",
  "95 c #FFC845",
  "96 c #403312",
  "97 c #403111",
  "98 c #403211",
  "99 c #FFC143",
  "9A c #403011",
  "9B c #FFB940",
  "9C c #402F10",
  "9D c #FEBA42",
  "9E c #402F11",
  "9F c #FFB540",
  "A0 c #F1AE3D",
  "A1 c #402E10",
  "A2 c #F7A93A",
  "A3 c #402C0F",
  "A4 c #E9A53B",
  "A5 c #402D10",
  "A6 c #090704",
  "A7 c #F7A638",
  "A8 c #FFAB3D",
  "A9 c #FFAC3D",
  "AA c #402C10",
  "AB c #FFA73B",
  "AC c #402A0F",
  "AD c #40280E",
  "AE c #FFA239",
  "AF c #FFA339",
  "B0 c #40290F",
  "B1 c #F79535",
  "B2 c #FF9D37",
  "B3 c #40270E",
  "B4 c #070503",
  "B5 c #F79134",
  "B6 c #FF9836",
  "B7 c #FF9937",
  "B8 c #3A230D",
  "B9 c #E88B35",
  "BA c #E88C35",
  "BB c #DE8734",
  "BC c #F78D31",
  "BD c #CE7329",
  "BE c #FF8F34",
  "BF c #3A220D",
  "C0 c #F78730",
  "C1 c #FF8C33",
  "C2 c #40230D",
  "C3 c #3A200C",
  "C4 c #40210C",
  "C5 c #FF8531",
  "C6 c #F78030",
  "C7 c #3A1F0C",
  "C8 c #FF8030",
  "C9 c #F77C2F",
  "CA c #BD6329",
  "CB c #401E0B",
  "CC c #FF772D",
  "CD c #FF7D2F",
  "CE c #401F0C",
  "CF c #3A1C0B",
  "D0 c #7B4221",
  "D1 c #FF722C",
  "D2 c #FF732C",
  "D3 c #F76F2B",
  "D4 c #401D0B",
  "D5 c #7B3918",
  "D6 c #BD5A29",
  "D7 c #401B0A",
  "D8 c #FF6D2A",
  "D9 c #FE6C2A",
  "DA c #F76A2A",
  "DB c #BD5221",
  "DC c #3A190A",
  "DD c #3A1709",
  "DE c #F66427",
  "DF c #FF6929",
  "E0 c #FF6227",
  "E1 c #FF6328",
  "E2 c #F66127",
  "E3 c #F55D27",
  "E4 c #BD4A21",
  "E5 c #BD4218",
  "E6 c #F55923",
  "E7 c #FE5A26",
  "E8 c #3A1509",
  "E9 c #7B3118",
  "EA c #E84F21",
  "EB c #BD4221",
  "EC c #B53918",
  "ED c #F24C21",
  "EE c #E4461F",
  "EF c #73524A",
  "F0 c #AD3118",
  "F1 c #7B2918",
  "F2 c #732918",
  "F3 c #DA391A",
  "F4 c #B53118",
  "F5 c #521810",
  "F6 c #732118",
  "F7 c #7B2118",
  "F8 c #020101",
  "F9 c #E1E1E1",
  "FA c #404040",
  "FB c #101010",
  "FC c #000000",
  ".. s None c None",
  "..483B2D1212122D2D2D2D2D2D2D2D2D2D2D2D2D2D2D2D2D14343434145054..",
  "6A7F3E50727253730C0C0C0C0C0C0C0C0C0C0C0C0C0C0C0C0952071A17502E4A",
  "20444B010101010101010101010101010101010101010101010101010155280E",
  "5D660175773D5936363636363636363636365D5D5D5D5D1D5C1B346101421006",
  "5C6F01797D5B36305C5C5C5C5C5C5C5C5C5C5C5C5C5C1C2C3B71613301602A7E",
  "3F73017D5E255881472581577082814C1B1B1B1B3B3B60342D1033011C2D2800",
  "1D1801775B2581814B2581817A25818134343434342D6361503301303B0B26..",
  "1E18015E3A4181816E69810234348182342D2D2D632910336C01305C332100..",
  "6818016B3A4781562D0A81082D0D814C2D2D2D122910336C01305C334F00....",
  "1F18016B3A5681462D4B814B2D7A81742D2D122910336C01305C334F00FB....",
  "1F18016B590481432D0881462D4D81452D122910336C01305C334FF8D0FB....",
  "1F18016B598281152D8281162D828115122910336C01305C334FA6BBD0FB....",
  "1F18016B592C342D2D2D2D2D2D2D2D122910336C01305C334FA6A0BBD0FB....",
  "1F18016B592C342D2D2D2D2D2D2D122910336C013032334F8A92A0BAD5FB....",
  "1F18016B592C342D2D2D2D2D2D2D2910336C013030334F7B8E929DB9D5FB....",
  "1F1801674E2F383131313131132B11396DFA3535393C78858F939EB8D5FB....",
  "1F1801674E2F38F9F9F9F91313F9F9F9F93535393C78F9F98D96A5B8D5FB....",
  "1F1801674E2F3831F9F9132BF9F96DFAF9F9393C788588F9F99AACBFD5FB....",
  "1F1801674E2F3831F9F92B11F9F9FA37F9F93C7885868B93F9F9ADC3E9FB....",
  "1F1801674E2F3831F9F91139F9F95F35393C408586878D949AF9F9C3E9FB....",
  "1F1801674E2F3865F9F93976FAF9F9F93C7C8586878D989AA5B0F9F9F2FB....",
  "1F180167F9F93813F9F96DFA353539F9F98585878D949AA5ACF9F9C7E9FB....",
  "1F180167F9F93111F9F9FA35F9F93C80F9F98793989AA5ACF9F9C4CFF1FB....",
  "1F540167F9F92B0FF9F93564F9F98485F9F993979AA5ACF9F9C4CEDCF1FB....",
  "1F0C012335F9F9F9F93564393CF9F9F9F9969AA1A5ACF9F9C4CED4DDF1FB....",
  "1F090122626539FA3564393C8485858D989CAAA3ACB3C2C4CECBD7E8F1FB....",
  "1F430130345001305C334F838C8C90999FA8ABAEB7C1C8CCD1D9E0EAF1FB....",
  "3F19013B6101305C334F899191959BA9AFB2B6BEC5CDD2D8DFE1E7EEF6FB....",
  "3F42010101301C334FB4A4A4A2A7B1B5BCC0C6C9D3DADEE2E3E6EDF3F5FB....",
  "5A24491C1C2D2A4F00BDBDCACACAD6DBDBDBE4E4E4EBE5ECECF4F0F7EFFB....",
  "511227102A2E2100FBFBFBFBFBFBFBFBFBFBFBFBFBFBFBFBFBFBFBFBFB......",
  "..5103054F26....................................................",
};
