/* XPM */
static char *pixmap[] = {
/* width height ncols cpp */
"16 16 162 2",
  /* Colors */
  "00 c #000000",
  "01 c #FFFFFF",
  "02 c #959AA0",
  "03 c #A8AEB5",
  "04 c #33485E",
  "05 c #3B536C",
  "06 c #2C3E51",
  "07 c #628AB2",
  "08 c #5D83A9",
  "09 c #527495",
  "0A c #4E6E8E",
  "0B c #4D6C8C",
  "0C c #405A75",
  "0D c #3F5973",
  "0E c #32465B",
  "0F c #2E4154",
  "10 c #2D3F52",
  "11 c #719FCD",
  "12 c #6E9BC7",
  "13 c #6C98C4",
  "14 c #6C98C3",
  "15 c #6791BA",
  "16 c #6289B1",
  "17 c #628AB1",
  "18 c #5D83A8",
  "19 c #5C81A6",
  "1A c #597DA1",
  "1B c #55789A",
  "1C c #547698",
  "1D c #537496",
  "1E c #527394",
  "1F c #517293",
  "20 c #507191",
  "21 c #4F6F8F",
  "22 c #46627F",
  "23 c #45617D",
  "24 c #435E79",
  "25 c #405A74",
  "26 c #3F5872",
  "27 c #3A5169",
  "28 c #395067",
  "29 c #364C62",
  "2A c #729FCD",
  "2B c #719ECB",
  "2C c #709DC9",
  "2D c #6B96C0",
  "2E c #6A95BF",
  "2F c #678FB9",
  "30 c #648CB4",
  "31 c #5A7EA2",
  "32 c #597CA0",
  "33 c #57799C",
  "34 c #56789A",
  "35 c #557799",
  "36 c #547597",
  "37 c #547697",
  "38 c #537395",
  "39 c #537495",
  "3A c #517192",
  "3B c #4C6A89",
  "3C c #4A6785",
  "3D c #496683",
  "3E c #486481",
  "3F c #476380",
  "40 c #46627E",
  "41 c #3E566F",
  "42 c #3A5168",
  "43 c #374D63",
  "44 c #75A2D1",
  "45 c #6891BA",
  "46 c #658CB4",
  "47 c #557798",
  "48 c #517191",
  "49 c #47637F",
  "4A c #47627E",
  "4B c #AEC5DD",
  "4C c #B5BCC3",
  "4D c #9CA2A8",
  "4E c #C1C8CF",
  "4F c #A5ABB1",
  "50 c #2C4052",
  "51 c #33495E",
  "52 c #3B546C",
  "53 c #587DA0",
  "54 c #3C556D",
  "55 c #74A4D2",
  "56 c #6893BC",
  "57 c #507291",
  "58 c #425D77",
  "59 c #3D566E",
  "5A c #3B546B",
  "5B c #6F9CC7",
  "5C c #6D9AC4",
  "5D c #597EA0",
  "5E c #4A6885",
  "5F c #476480",
  "60 c #5E84A8",
  "61 c #415B74",
  "62 c #BEC6CD",
  "63 c #C9D1D8",
  "64 c #93999E",
  "65 c #B1B9BF",
  "66 c #D89800",
  "67 c #CA8E00",
  "68 c #C18700",
  "69 c #BF8500",
  "6A c #BC8200",
  "6B c #E59B00",
  "6C c #C98700",
  "6D c #D77E00",
  "6E c #D67E00",
  "6F c #E38400",
  "70 c #CC7600",
  "71 c #CA7200",
  "72 c #C67100",
  "73 c #C47000",
  "74 c #D56D00",
  "75 c #E26300",
  "76 c #D85F00",
  "77 c #D05900",
  "78 c #CE5500",
  "79 c #CC5600",
  "7A c #D65100",
  "7B c #E34100",
  "7C c #DB3D00",
  "7D c #D63B00",
  "7E c #DA3800",
  "7F c #D53600",
  "80 c #E52500",
  "81 c #E02200",
  "82 c #DF2100",
  "83 c #DD2200",
  "84 c #E91100",
  "85 c #E51000",
  "86 c #ED0700",
  "87 c #F20100",
  "88 c #EB0500",
  "89 c #7C0000",
  "8A c #7B0000",
  "8B c #7A0000",
  "8C c #790000",
  "8D c #780000",
  "8E c #770000",
  "8F c #760000",
  "90 c #740000",
  "91 c #720000",
  "92 c #710000",
  "93 c #700000",
  "94 c #FAFAFA",
  "95 c #F6F6F6",
  "96 c #F5F5F5",
  "97 c #F4F4F4",
  "98 c #F3F3F3",
  "99 c #F2F2F2",
  "9A c #F0F0F0",
  "9B c #EFEFEF",
  "9C c #EEEEEE",
  "9D c #ECECEC",
  "9E c #EBEBEB",
  "9F c #EAEAEA",
  "A0 c #E9E9E9",
  ".. s None c None",
  "..2C5C2E561E1E1E391D36351B0C23..",
  "125B96999C9EA0A09F9D9A989594040E",
  "2D954B55111315160831531A31199451",
  "2F97442A143018330920571E37631A00",
  "35992B2D0701015E3F405F3C625A00..",
  "1C9B13461A0A0101260D586529008C..",
  "379C45601F3E250101544F0E006B8D..",
  "379C17323B24592701010F00666F8E..",
  "379C08473D615228640101676E758F..",
  "379C5D3A4925050201016870767B8E..",
  "379C340A4A254D01016A72777C808D..",
  "1C9B380B220301016973797D81848C..",
  "3599483B4C01016C71787F8385868B..",
  "0D97214E43006D747A7E8285888789..",
  "41509942009192939291908F8C8A....",
  "..100600........................",
};
