/* XPM */
static char *main-window.xpm[] = {
/* columns rows colors chars-per-pixel */
"32 32 205 2",
"   c #000000",
".  c #080602",
"X  c #0c0903",
"o  c #060f19",
"O  c #0c1015",
"+  c #0e1319",
"@  c #100d05",
"#  c #180f05",
"$  c #1c1206",
"%  c #1c1608",
"&  c #151515",
"*  c #12181f",
"=  c #151d25",
"-  c #121f2b",
";  c #181f27",
":  c #1a242e",
">  c #211307",
",  c #201809",
"<  c #371d0b",
"1  c #3b1e0b",
"2  c #2f250d",
"3  c #35230c",
"4  c #35290e",
"5  c #3b240d",
"6  c #372e10",
"7  c #222f3c",
"8  c #233242",
"9  c #2a3b4d",
"0  c #333366",
"q  c #334558",
"w  c #3e4a58",
"e  c #354b63",
"r  c #384c61",
"t  c #3b5065",
"y  c #3d536a",
"u  c #541f16",
"i  c #4e3613",
"p  c #4f3e16",
"a  c #52250e",
"s  c #702418",
"d  c #702e19",
"f  c #7b2418",
"g  c #792b19",
"h  c #79331c",
"j  c #7b3b1e",
"k  c #4e4318",
"l  c #7c4221",
"z  c #4d4e4e",
"x  c #414951",
"c  c #41586f",
"v  c #445c75",
"b  c #465f78",
"n  c #4e6073",
"m  c #49647d",
"M  c #516376",
"N  c #54667a",
"B  c #56687d",
"V  c #596b7e",
"C  c #70534e",
"Z  c #4a6580",
"A  c #4e6a86",
"S  c #4f6b88",
"D  c #516e8c",
"F  c #596c81",
"G  c #52708e",
"H  c #5b7086",
"J  c #557493",
"K  c #577897",
"L  c #597796",
"P  c #5f7a95",
"I  c #5a7c9c",
"U  c #61758b",
"Y  c #617e9b",
"T  c #5e81a3",
"R  c #62819e",
"E  c #6d8299",
"W  c #778696",
"Q  c #6084a5",
"!  c #6186a9",
"~  c #6589ac",
"^  c #6984a1",
"/  c #6e8ba5",
"(  c #6b8aab",
")  c #668eb1",
"_  c #698db2",
"`  c #6b90b5",
"'  c #6c92ba",
"]  c #7189a2",
"[  c #718ead",
"{  c #7d94ac",
"}  c #7092b6",
"|  c #7296bb",
" . c #7199be",
".. c #729ac0",
"X. c #7a9cc0",
"o. c #77a1c8",
"O. c #7ea1c5",
"+. c #79a3cb",
"@. c #7fa9d2",
"#. c #aa311a",
"$. c #b5341c",
"%. c #b63b1d",
"&. c #b8411f",
"*. c #b84421",
"=. c #b84a23",
"-. c #ba5525",
";. c #bc5d28",
":. c #b26324",
">. c #bc632a",
",. c #eb3b1d",
"<. c #ce5523",
"1. c #ce6726",
"2. c #ca6827",
"3. c #c6742a",
"4. c #ca702d",
"5. c #e45e26",
"6. c #ff4c21",
"7. c #ff5423",
"8. c #fe5b25",
"9. c #ff5e28",
"0. c #e46426",
"q. c #e56b29",
"w. c #e96527",
"e. c #e5742d",
"r. c #e1792d",
"t. c #e87b2f",
"y. c #e47d30",
"u. c #fe6429",
"i. c #ff6d2b",
"p. c #fc732c",
"a. c #ff7c2f",
"s. c #ff7731",
"d. c #ff7d31",
"f. c #af8930",
"g. c #ce8731",
"h. c #ca8a32",
"j. c #ce9234",
"k. c #ce9c37",
"l. c #cea73b",
"z. c #ccac3c",
"x. c #ceb33e",
"c. c #e28331",
"v. c #e29334",
"b. c #fb8331",
"n. c #fd8c34",
"m. c #ff9236",
"M. c #ff9539",
"N. c #fe9c39",
"B. c #e9ac3c",
"V. c #ffa03a",
"C. c #ffac3d",
"Z. c #e1b740",
"A. c #e9ba42",
"S. c #fbb440",
"D. c #fcbb43",
"F. c #fcc909",
"G. c #e8cd48",
"H. c #fec345",
"J. c #ffcd48",
"K. c #fdd54b",
"L. c #ffdd4d",
"P. c #f8da70",
"I. c #ffe14f",
"U. c #808080",
"Y. c #8394a7",
"T. c #8097b0",
"R. c #839bb1",
"E. c #859fba",
"W. c #889eb4",
"Q. c #96a9bc",
"!. c #83a2c1",
"~. c #83a6ca",
"^. c #8ca7c1",
"/. c #80abd3",
"(. c #88add5",
"). c #84b1d3",
"_. c #8ab5d4",
"`. c #8bb8d4",
"'. c #9badc0",
"]. c #98b0c6",
"[. c #9ab2c9",
"{. c #92b1d0",
"}. c #a2b4c5",
"|. c #abbccd",
" X c #a4bed0",
".X c #95c1d4",
"XX c #99c4f1",
"oX c #a6c5d4",
"OX c #b1c0cf",
"+X c #b3c4d3",
"@X c #bac9d8",
"#X c #a4c6e0",
"$X c #accae0",
"%X c #bee0e0",
"&X c #c0c0c0",
"*X c #c2ced8",
"=X c #cdd7df",
"-X c #c9d6e1",
";X c #d2dce5",
":X c #d8e1e9",
">X c #d7efff",
",X c #e3e8ed",
"<X c #eaeef1",
"1X c #eef1f3",
"2X c None",
/* pixels */
"2X X! J D F D J K J J J J J J J J J J L J J J J L I I Y L Z B 2X",
"oX%X( m b n M B F F F F F V F F V F F V F F F F U E T.^.[ m 9 x ",
"(.#X}.2X2X2X2X2X2X2X2X2X2X2X2X2X2X2X2X2X2X2X2X2X2X2X2X2X2XW 8 q ",
"X.P 2X>X`./.o... . . . ... ......... . . .....' ` ! I A 2X{.A 7 ",
"` F 2XoX.X/...' ` ` ' ` ' ` ' _ ` ` ' ` ` ` ) ) T K Z v 2XT t = ",
"} B 2X.X`.;X:X1X[.;X1X@X'.,X<X|.! ! ~ T T T T I J Z v 2X_ J 8   ",
"| B 2X`.@.;X1X1X}.;X1X1X|.;X1X1XI I I J I K G A m y 2X' T r O 2X",
" .N 2X_.+.!.1X1XQ ] 1X<XI Y 1X<XP J K J G S Z b v 2X' _ v =   2X",
"!.B 2X_.+.{.1X+XL W.1X*XL '.1X|.J J J D S m b c 2X' _ b :   2X2X",
"~.B 2X).+.+X1XR.K }.1X}.L |.1XQ.J J D S Z b c 2X' ` b :   & 2X2X",
"~.N 2X).o.-X1X/ K *X1XR.J -X<X{ D D S Z b c 2X' _ b :   l & 2X2X",
"~.N 2X).o.,X1XR K ,X1XE L ,X1XY D F.m b c 2X' ' b :   N.l & 2X2X",
"~.N 2X).o._ I K J J J J J J J D S F.  r 2X' _ F.:   H.N.l & 2X2X",
"~.N 2X).o.) I K J J J F.F.0 D D Z P.0 z L _ F.&X  A.D.m.j & 2X2X",
"~.N 2X).o.) I K K J J J P.F.0 F.F.P.F.&XU.y F.  l.p j.n.j & 2X2X",
"~.N 2X).o.) I K J J J J Z - P.P.0 F.0 F.&XF.  Z.6 X i t.j & 2X2X",
"~.B 2X).o.) I K J J G G B c F.U.0 &X  U.&XP.6 f., 4 g.b.j & 2X2X",
"~.B 2X).o.) I K J J G S m F.&X0 O F.  0 0 P.  % 4 j.V.d.h & 2X2X",
"~.B 2X).o.) I G G G F.F.P.&XF.&XF.&XF.&XP.P.F.P.F.  N.s.h & 2X2X",
"~.B 2X).o.) I J D S m 0   F.&X0   F.  0 0 F.      v.c.q.h & 2X2X",
"~.N 2X).o.) I J S m b t z & F.U 0 &X0 @ 4 F.0 . $ $ > a d & 2X2X",
"~.N 2X).o.~ K S m b c 2XL ; &XF.0 F.0 &XF.U.    . $ 3 <.h & 2X2X",
"~.N 2X).o.~ J Z b c 2X' _ F.&XOX&X&X&XF.U.F.0 # # 3.e.u.g & 2X2X",
"~.V 2X/...T S b c 2X' ` F.&X  z.0 F.  0   $ F.  > r.d.u.g & 2X2X",
"~.H 2X/.' I Z v 2X' ` b :   x.6 . F.0       .   > 2.p.8.g & 2X2X",
"~.U 2Xo.~ G v 2X' _ b :   G.k X 4 F.  .   $ 3 :.< 1 0.7.g & 2X2X",
"~.E 2X .I m 2X' ` b :   I.K.l.p k.C.h.% $ 3.c.b.1.a 5.6.g & 2X2X",
"} E.2XT S 2X' ` b :   L.K.J.H.B.S.C.v.5 5 y.b.s.p.w.8.6.s & 2X2X",
"` {.2X2X2X' _ b :   H.D.S.C.V.N.M.m.b.r.q.p.i.i.8.8.6.,.u & 2X2X",
"( XXY._ ) K t :   M.4.>.;.;.;.-.-.-.=.=.=.*.%.%.%.$.#.f C & 2X2X",
"w D e Z c 9 =   y.& & & & & & & & & & & & & & & & & & & & 2X2X2X",
"2Xw - o : + 2X2X2X2X2X2X2X2X2X2X2X2X2X2X2X2X2X2X2X2X2X2X2X2X2X2X"
};
