/* XPM */
static char *main-window.xpm[] = {
/* columns rows colors chars-per-pixel */
"16 16 50 1",
"  c black",
". c #000024",
"X c #002f69",
"o c #083767",
"O c #0d4070",
"+ c #274e79",
"@ c #284f7a",
"# c #712511",
"$ c #0c4787",
"% c #104f90",
"& c #135395",
"* c #175799",
"= c #1a5a9d",
"- c #1e60a4",
"; c #21578f",
": c #2c5682",
"> c #2e5a86",
", c #335e8b",
"< c #33608d",
"1 c #376493",
"2 c #396695",
"3 c #3d6b9b",
"4 c #2061a5",
"5 c #2264a9",
"6 c #2569af",
"7 c #2869af",
"8 c #3376c0",
"9 c #406e9e",
"0 c #416fa0",
"q c #4171a2",
"w c #4777aa",
"e c #497aad",
"r c #4b7cb0",
"t c #3b80cb",
"y c #4e81b5",
"u c #5488bd",
"i c #5a8ec2",
"p c #57a1ee",
"a c #6093ca",
"s c #6599ce",
"d c #679cd1",
"f c #7ba2c7",
"g c #70a7dc",
"h c #65affc",
"j c #77beff",
"k c #d53f11",
"l c #d2a406",
"z c #f8da70",
"x c #bdcbda",
"c c None",
/* pixels */
"cp85*&&*=--5=$;c",
"hjccccccccccccoo",
"8cxdiyeewq3<@>c>",
"7cgsleq3z2<@lf>.",
"5caizl32z<>lz> c",
"=curqzzzzzzz .#c",
"=cye<zz z zz.k#c",
"=cy31z  z  zll#c",
"-crzzzzzzzzzzz#c",
"5cw  z  z  z  #c",
"7c92>zz z zzkk#c",
"6c2>lzzzzzzz k#c",
"5c:lz .kz kkz #c",
"%c>f .kkz kkkk#c",
"Xoc>.#### ####cc",
"c...cccccccccccc"
};
