/* XPM */
static char *pixmap[] = {
/* width height ncols cpp */
"16 16 55 2",
  /* Colors */
  "00 c #FFFFFF",
  "01 c #BDCBDA",
  "02 c #808080",
  "03 c #77BEFF",
  "04 c #65AFFC",
  "05 c #57A1EE",
  "06 c #70A7DC",
  "07 c #7BA2C7",
  "08 c #679CD1",
  "09 c #6599CE",
  "0A c #6093CA",
  "0B c #5A8DC1",
  "0C c #3B80CB",
  "0D c #5488BD",
  "0E c #4E81B5",
  "0F c #3376C0",
  "10 c #0000FF",
  "11 c #4C7DB0",
  "12 c #4A7BAE",
  "13 c #4777AA",
  "14 c #4271A3",
  "15 c #2869AF",
  "16 c #2569AF",
  "17 c #2365A9",
  "18 c #2061A5",
  "19 c #1E60A4",
  "1A c #3E6C9C",
  "1B c #3A6595",
  "1C c #33608B",
  "1D c #335E8B",
  "1E c #21578F",
  "1F c #2F5A87",
  "20 c #2B5681",
  "21 c #1B5B9E",
  "22 c #175799",
  "23 c #135395",
  "24 c #104F90",
  "25 c #0C4787",
  "26 c #000080",
  "27 c #F9DC4D",
  "28 c #008000",
  "29 c #D53F11",
  "2A c #FF0000",
  "2B c #284F7A",
  "2C c #274E79",
  "2D c #214973",
  "2E c #0D4070",
  "2F c #1B4169",
  "30 c #193E64",
  "31 c #083767",
  "32 c #002F69",
  "33 c #712511",
  "34 c #000024",
  "35 c #000000",
  ".. s None c None",
  "..050F17222323222119181721251E..",
  "0403........................3131",
  "0C..01080B0E121035141A1C2B1F..1F",
  "16..06090B12272700351D2C30071F34",
  "19..0A0B112A00000027352D..1F35..",
  "21..0D122700000000002A261F3433..",
  "21..0E102700000200000027352933..",
  "21..35270000000002000000103533..",
  "19..35272700020000020000002726..",
  "17..1335102700020000002828002A26",
  "15..141B352727000200002828000035",
  "17..1B1F1F262A2700000000002A35..",
  "17..202F..1F352727000000003533..",
  "24..1F071F34293510270010352933..",
  "322E..1F34333333352A27353333....",
  "..343434..........3526..........",
};
