/* XPM */
static char *pixmap[] = {
/* width height ncols cpp */
"32 32 255 2",
  /* Colors */
  "00 c #000000",
  "01 c #FFFFFF",
  "02 c #EEE000",
  "03 c #6B94B5",
  "04 c #5A7B9C",
  "05 c #527394",
  "06 c #425A73",
  "07 c #101010",
  "08 c #353561",
  "09 c #EFEFF7",
  "0A c #CED6E7",
  "0B c #000818",
  "0C c #212939",
  "0D c #C6CEDE",
  "0E c #63738C",
  "0F c #101824",
  "10 c #5A6B84",
  "11 c #425A7B",
  "12 c #4A6384",
  "13 c #526B8C",
  "14 c #5A7394",
  "15 c #52637B",
  "16 c #8CA5C6",
  "17 c #8498B3",
  "18 c #354A63",
  "19 c #6384AD",
  "1A c #6B8CB5",
  "1B c #7394BD",
  "1C c #7B9CC6",
  "1D c #84A5CE",
  "1E c #36475A",
  "1F c #9CC6F7",
  "20 c #87ADD6",
  "21 c #617C99",
  "22 c #738CA8",
  "23 c #D6DEE7",
  "24 c #081018",
  "25 c #213142",
  "26 c #4A6B8C",
  "27 c #39526B",
  "28 c #638CB5",
  "29 c #29394A",
  "2A c #6B94BD",
  "2B c #739CC6",
  "2C c #7BA5CE",
  "2D c #6384A5",
  "2E c #6B8CAD",
  "2F c #7294B5",
  "30 c #84A5C6",
  "31 c #94B5D6",
  "32 c #A5BDD6",
  "33 c #424A52",
  "34 c #A9B9CA",
  "35 c #182129",
  "36 c #4A637B",
  "37 c #526373",
  "38 c #5A6B7B",
  "39 c #B5C6D6",
  "3A c #BDCEDE",
  "3B c #73A5CE",
  "3C c #638CAD",
  "3D c #7BADD6",
  "3E c #739CBD",
  "3F c #8CB5D6",
  "40 c #6B8499",
  "41 c #A9CAE7",
  "42 c #9CB5CB",
  "43 c #5A84A5",
  "44 c #4A6B84",
  "45 c #52738C",
  "46 c #5A7B94",
  "47 c #58778F",
  "48 c #7BA5C6",
  "49 c #6B8CA5",
  "4A c #84B5D6",
  "4B c #425A6B",
  "4C c #495F6F",
  "4D c #5A7384",
  "4E c #DAEBF7",
  "4F c #527B94",
  "50 c #4A6373",
  "51 c #526B7B",
  "52 c #8CBDD6",
  "53 c #A5C6D6",
  "54 c #B5C6CE",
  "55 c #495E67",
  "56 c #1F272A",
  "57 c #94C6D6",
  "58 c #D7DDDF",
  "59 c #98AFB6",
  "5A c #232A2B",
  "5B c #101818",
  "5C c #BDE7E7",
  "5D c #EFF7F7",
  "5E c #E7EFEF",
  "5F c #282E29",
  "60 c #F0F5EE",
  "61 c #7B8A71",
  "62 c #68744C",
  "63 c #B2C263",
  "64 c #919255",
  "65 c #FEFB07",
  "66 c #FEFD15",
  "67 c #FFFD29",
  "68 c #FFFF3A",
  "69 c #FFFF44",
  "6A c #FFFF58",
  "6B c #FFFE62",
  "6C c #A5A44E",
  "6D c #060603",
  "6E c #FFFFF9",
  "6F c #FFFFFC",
  "70 c #FFFD8A",
  "71 c #FFFD9B",
  "72 c #FEFCC7",
  "73 c #BBBA97",
  "74 c #D5C900",
  "75 c #B9AF00",
  "76 c #8B8300",
  "77 c #7F7800",
  "78 c #393600",
  "79 c #BCB40A",
  "7A c #E3D715",
  "7B c #F0E639",
  "7C c #F1E850",
  "7D c #BDB641",
  "7E c #F1E958",
  "7F c #F3ED7C",
  "80 c #F7F3A5",
  "81 c #FFFDD9",
  "82 c #FEEC02",
  "83 c #FCEC07",
  "84 c #FFED0C",
  "85 c #F8EB50",
  "86 c #FBF6B8",
  "87 c #FCFAE2",
  "88 c #FFFEEF",
  "89 c #FFE801",
  "8A c #FFE905",
  "8B c #FFFEF6",
  "8C c #FFDD02",
  "8D c #FFD202",
  "8E c #CCAA0A",
  "8F c #E6C415",
  "90 c #0F0D03",
  "91 c #C0A827",
  "92 c #FFE24B",
  "93 c #F5D648",
  "94 c #DEBD2A",
  "95 c #F4D247",
  "96 c #1A170B",
  "97 c #FFC601",
  "98 c #E4B818",
  "99 c #C2A023",
  "9A c #FFD949",
  "9B c #F4CD47",
  "9C c #917214",
  "9D c #FFD548",
  "9E c #DCC887",
  "9F c #FCBA03",
  "A0 c #E4AD18",
  "A1 c #FFCD46",
  "A2 c #F2C443",
  "A3 c #FFD147",
  "A4 c #FFC329",
  "A5 c #FFCA46",
  "A6 c #B18D36",
  "A7 c #B1934B",
  "A8 c #F9D576",
  "A9 c #FFAE01",
  "AA c #D89F21",
  "AB c #FFC745",
  "AC c #F2AA1A",
  "AD c #FDB621",
  "AE c #FFC143",
  "AF c #C0953C",
  "B0 c #CBA24B",
  "B1 c #FBA50B",
  "B2 c #E49A18",
  "B3 c #FFBA41",
  "B4 c #FFBE42",
  "B5 c #EAA42F",
  "B6 c #FFB640",
  "B7 c #F1AE3D",
  "B8 c #FFB33E",
  "B9 c #E9A53B",
  "BA c #090704",
  "BB c #F7A839",
  "BC c #FFAD3D",
  "BD c #FFA63B",
  "BE c #FFAA3D",
  "BF c #FFA239",
  "C0 c #FF9D37",
  "C1 c #F79335",
  "C2 c #FF9937",
  "C3 c #E88B35",
  "C4 c #DE8734",
  "C5 c #F78D31",
  "C6 c #CE7329",
  "C7 c #E88733",
  "C8 c #FE9B46",
  "C9 c #F78430",
  "CA c #E8812F",
  "CB c #FF8E34",
  "CC c #E78131",
  "CD c #FF8531",
  "CE c #E77C2F",
  "CF c #FFC8A1",
  "D0 c #733A16",
  "D1 c #BD6329",
  "D2 c #FC792E",
  "D3 c #E76E2B",
  "D4 c #7B4221",
  "D5 c #7B3918",
  "D6 c #433F3D",
  "D7 c #282625",
  "D8 c #F76829",
  "D9 c #733113",
  "DA c #BD5423",
  "DB c #EA723C",
  "DC c #6E2A12",
  "DD c #BD4218",
  "DE c #BD4821",
  "DF c #7B3118",
  "E0 c #B53918",
  "E1 c #2E2A29",
  "E2 c #353130",
  "E3 c #464241",
  "E4 c #4E4A49",
  "E5 c #4C4847",
  "E6 c #504C4B",
  "E7 c #575352",
  "E8 c #782918",
  "E9 c #8D4638",
  "EA c #322D2C",
  "EB c #413C3B",
  "EC c #484342",
  "ED c #4B4645",
  "EE c #52160B",
  "EF c #332C2B",
  "F0 c #020101",
  "F1 c #1E1D1D",
  "F2 c #F3F3F3",
  "F3 c #DBDBDB",
  "F4 c #D1D1D1",
  "F5 c #BEBEBE",
  "F6 c #A6A6A6",
  "F7 c #979797",
  "F8 c #888888",
  "F9 c #767676",
  "FA c #6A6A6A",
  "FB c #656565",
  "FC c #474747",
  "FD c #363636",
  ".. s None c None",
  "..322D05131313050505050505050505050505050505050514040404143638..",
  "415C2E3650503751101010101010101010101010101010100E40171622362933",
  "204134010101010101010101010101010101010101010101010101010140251E",
  "3E46014E52203B2B2B2B2B2B2B2B2B2B2B2B3E3E3E3E3E1B031904440131120C",
  "034D0153573D2B2A03030303030303030303030303031A282D4F44060143275B",
  "2F5101573F234E5D42235D3A425E5D34191919192D2D4304051206011A052500",
  "1B1501523D235D5D34235D5D5458605D04040404040545443606012A2D1824..",
  "1C15013F2C305D5D21495D0904A7A85E04050505452612064B012A03060F00..",
  "4815014A2C425D3905B0600D05ACAD340547A6132612064B012A03063500....",
  "1D15014A2C395D1705B5B173479F975961B1AA2612064B012A0306350007....",
  "1D15014A3B0A5D22059EA9978C8A8A898C976412064B012A030635F0D407....",
  "1D15014A3B5E5D21055E8D84676A6B68668212064B012A030635BAC4D407....",
  "1D15014A3B28AFB2A08F8369726E6F8870667A8FA4B0030635BAB7C4D407....",
  "1D15014A3B2821AAA98C67726F0101016E6B658C94030635BAA2B7C3D507....",
  "1D15014A3B2804056C8A698B0101027F728665632A0635569BA2B3C3D507....",
  "1D15014A3B2804056C846A6F0102770202806663063556929BA1B4C3D507....",
  "1D15014A3B2821AA9F89688801790277027C7C858E5F92959DA5B6C3D507....",
  "1D15014A3B28AFB2987A65716F017502770202028086959DA1AEBEC7D507....",
  "1D15014A3B2804050513826770817D75027702027F8687A3ABB6BFCADF07....",
  "1D15014A3B28040513648D82656667797402777702027FA8B4BCC0CADF07....",
  "1D15014A3B28044526AA9F628B89824C7575027876027F7FB8BDC2CCE807....",
  "1D15014A3B28041312A655012A8F8F350874740202027E7CF4F2C8CEDF07....",
  "1D15014A2B3C0512064B012A1AA69C5A9291757474027BE3D6F5CFD3E807....",
  "1D38014A2B2D26114B012A0306569092939A91997575D7FBFBF8F3DBE807....",
  "1D1001202A041206012A0306356D92959DA1AEB6B800EAEDE7FAF8F3E907....",
  "1D0E012C3C4506012A0306356D9292A3ABB3B8BCBEF1FDEAEDE6FAF8F3F1....",
  "1D22012A0436012A0306356D9B9BA1AEB6BEBDBFC2CBD0E1E2E4ECE6F7F6....",
  "2F17012D44012A03063596A2A2ABB3BCBFC0C2CBCDD2D2D9E1E2D6EDE6F9....",
  "2F310101012A1A06356DB9B9BBBBC1C1C5C9C9D2D8D8D8D8DCE1EAEBEDE5....",
  "3C1F171A1A05273500C6C6D1D1D1DADADADADEDEDEDEDDE0E0EEEFE2D6E3....",
  "1E13181227290F0007070707070707070707070707070707070707F1FCFC....",
  "..1E0F0B3524....................................................",
};
