/* XPM */
static char *pixmap[] = {
/* width height ncols cpp */
"16 16 124 2",
  /* Colors */
  "00 c #000000",
  "01 c #FFFFFF",
  "02 c #6994BF",
  "03 c #628AB2",
  "04 c #5B81A6",
  "05 c #527495",
  "06 c #3D566F",
  "07 c #34495F",
  "08 c #32465B",
  "09 c #2E4154",
  "0A c #7DB0E2",
  "0B c #7CAEE0",
  "0C c #79AADB",
  "0D c #78A8D9",
  "0E c #75A4D3",
  "0F c #709DCA",
  "10 c #6F9CC9",
  "11 c #6E9BC7",
  "12 c #6993BE",
  "13 c #6892BC",
  "14 c #6189B0",
  "15 c #6087AE",
  "16 c #5F85AC",
  "17 c #5F86AC",
  "18 c #5E84AA",
  "19 c #5C81A6",
  "1A c #5B80A5",
  "1B c #597DA1",
  "1C c #577A9D",
  "1D c #547698",
  "1E c #537596",
  "1F c #45617D",
  "20 c #415B76",
  "21 c #3E5770",
  "22 c #7DAFE1",
  "23 c #7DAEE0",
  "24 c #7BACDD",
  "25 c #74A2D0",
  "26 c #72A0CD",
  "27 c #6E9AC5",
  "28 c #6D99C4",
  "29 c #6992BD",
  "2A c #6891BB",
  "2B c #658EB6",
  "2C c #6086AC",
  "2D c #5F85AB",
  "2E c #5C80A5",
  "2F c #5B7FA4",
  "30 c #5B80A4",
  "31 c #587B9E",
  "32 c #57799C",
  "33 c #56789B",
  "34 c #557799",
  "35 c #3F5871",
  "36 c #648CB3",
  "37 c #57799B",
  "38 c #B7D0E9",
  "39 c #D4DCE4",
  "3A c #2E4255",
  "3B c #3D5770",
  "3C c #344A5F",
  "3D c #709ECA",
  "3E c #6D9AC5",
  "3F c #5C82A6",
  "40 c #648DB4",
  "41 c #557899",
  "42 c #405A73",
  "43 c #D3DCE4",
  "44 c #89AA9D",
  "45 c #B0BB8E",
  "46 c #D3D8A0",
  "47 c #919530",
  "48 c #D7DB7C",
  "49 c #8E912B",
  "4A c #E8E8C3",
  "4B c #EEE000",
  "4C c #D5C900",
  "4D c #B9AF00",
  "4E c #8B8300",
  "4F c #837B00",
  "50 c #7E7700",
  "51 c #3B3800",
  "52 c #393600",
  "53 c #B4AD09",
  "54 c #F0E639",
  "55 c #F1E850",
  "56 c #F1E958",
  "57 c #F6EF78",
  "58 c #F2EC7A",
  "59 c #F8F3A2",
  "5A c #F8F5B9",
  "5B c #FCF9E1",
  "5C c #C28400",
  "5D c #FFAB00",
  "5E c #FFAD00",
  "5F c #FF9600",
  "60 c #FF9400",
  "61 c #C27000",
  "62 c #FAAC50",
  "63 c #FF8200",
  "64 c #FF6100",
  "65 c #282625",
  "66 c #413F3E",
  "67 c #FF4100",
  "68 c #444140",
  "69 c #2E2A29",
  "6A c #4E4A49",
  "6B c #504C4B",
  "6C c #575352",
  "6D c #312C2B",
  "6E c #322D2C",
  "6F c #35302F",
  "70 c #4B4645",
  "71 c #FF2600",
  "72 c #800000",
  "73 c #D1D1D1",
  "74 c #BEBEBE",
  "75 c #868686",
  "76 c #6B6B6B",
  "77 c #676767",
  "78 c #636363",
  "79 c #363636",
  "7A c #1C1C1C",
  ".. s None c None",
  "..263D113E1C1C1C1C1C1C1C1C201F..",
  "0F260101010101010101010101010708",
  "2801380A0B0C0E10022B14152D17013C",
  "290123224B48442A03183F1A30391900",
  "1C01244B504B4B461B324134394200..",
  "1C010D534B504B55554505433B0072..",
  "1C0125274D4B504B4B4B594A005E72..",
  "1C011113474D4B504B4B575A5B6072..",
  "1C0112362F494C4B504F4B4B586272..",
  "1C014016311D4D4D4B524E4B585872..",
  "1C012C04371E394C4C4B4B4B565573..",
  "1C012E1B343906514D4C4C4B54686674",
  "1C013133393B005D5C614D4D65787775",
  "2001343921005F63646771006E706C76",
  "353A0121007272727272727A796D706B",
  "..090900................00696F6A",
};
