/* XPM */
static char *pixmap[] = {
/* width height ncols cpp */
"32 32 253 2",
  /* Colors */
  "00 c #FCD76C",
  "01 c #D6DEE6",
  "02 c #849AB8",
  "03 c #D6EFFF",
  "04 c #58543E",
  "05 c #739CC6",
  "06 c #151615",
  "07 c #56728B",
  "08 c #95593B",
  "09 c #7891A6",
  "0A c #FFF9E2",
  "0B c #CB7747",
  "0C c #FFFEF6",
  "0D c #D05231",
  "0E c #019477",
  "0F c #EFF1E9",
  "10 c #FFF0AB",
  "11 c #F2F6F5",
  "12 c #63738C",
  "13 c #3E3D35",
  "14 c #FDDB95",
  "15 c #282821",
  "16 c #F5CF58",
  "17 c #14B793",
  "18 c #F6F9F8",
  "19 c #00CBA5",
  "1A c #6C8AA4",
  "1B c #39526B",
  "1C c #34342E",
  "1D c #FBD576",
  "1E c #EFEFF7",
  "1F c #A9CAE7",
  "20 c #15FFD3",
  "21 c #AEBECF",
  "22 c #A8B3AA",
  "23 c #52637B",
  "24 c #6384A5",
  "25 c #FFE68A",
  "26 c #F49D65",
  "27 c #F9CD61",
  "28 c #435B73",
  "29 c #0F8166",
  "2A c #D38658",
  "2B c #EBECDF",
  "2C c #5C261A",
  "2D c #EB9845",
  "2E c #87ADD6",
  "2F c #CDD4E4",
  "30 c #EF6D41",
  "31 c #FDF6D7",
  "32 c #02E2B7",
  "33 c #FFE393",
  "34 c #FCE5CA",
  "35 c #74A5CE",
  "36 c #F6B854",
  "37 c #F2A268",
  "38 c #F5B44A",
  "39 c #FEE9D4",
  "3A c #FB8D57",
  "3B c #EDA454",
  "3C c #FFFCE2",
  "3D c #738DA2",
  "3E c #EBEEEC",
  "3F c #EAECE6",
  "40 c #454B4A",
  "41 c #64839F",
  "42 c #C4743A",
  "43 c #739BBE",
  "44 c #0AFFD2",
  "45 c #4B6384",
  "46 c #6B86A1",
  "47 c #658DB6",
  "48 c #FFF4DF",
  "49 c #647A93",
  "4A c #B4C6D5",
  "4B c #9BB4C3",
  "4C c #21FFD6",
  "4D c #253546",
  "4E c #FDAD74",
  "4F c #FBBB74",
  "50 c #4C6C8D",
  "51 c #547595",
  "52 c #36485E",
  "53 c #FFF0D3",
  "54 c #DFE0D4",
  "55 c #03C59F",
  "56 c #4B6372",
  "57 c #874B28",
  "58 c #EFF2EF",
  "59 c #839394",
  "5A c #D2D9CA",
  "5B c #9BB5CD",
  "5C c #E1E5E4",
  "5D c #037A63",
  "5E c #22221C",
  "5F c #8FCE9C",
  "60 c #915437",
  "61 c #823326",
  "62 c #526B8C",
  "63 c #5A7A95",
  "64 c #536A7C",
  "65 c #68849E",
  "66 c #EFA961",
  "67 c #FFF1DD",
  "68 c #8A9EAE",
  "69 c #686D69",
  "6A c #232B34",
  "6B c #D9E1E4",
  "6C c #9CAFB6",
  "6D c #8394A4",
  "6E c #83A5C5",
  "6F c #777C6A",
  "70 c #8C9CA6",
  "71 c #CF742A",
  "72 c #435B6B",
  "73 c #8DA0B5",
  "74 c #FFF5E0",
  "75 c #FFEDD7",
  "76 c #DFE5E7",
  "77 c #DF8A37",
  "78 c #DCE2E4",
  "79 c #182129",
  "7A c #6A91B8",
  "7B c #7FA3BD",
  "7C c #101824",
  "7D c #23C29B",
  "7E c #7D4221",
  "7F c #000000",
  "80 c #638CAD",
  "81 c #91A6B1",
  "82 c #6D706A",
  "83 c #EFF7F7",
  "84 c #84A5CE",
  "85 c #5A6B84",
  "86 c #84B5D6",
  "87 c #5A7B9C",
  "88 c #6B94BD",
  "89 c #6384AD",
  "8A c #00AB8B",
  "8B c #6B8CB5",
  "8C c #4A637B",
  "8D c #4A6B84",
  "8E c #7BA5CC",
  "8F c #7394B5",
  "90 c #FFFDE4",
  "91 c #00F2C4",
  "92 c #E7EFF0",
  "93 c #7394BD",
  "94 c #008C73",
  "95 c #5A6B7B",
  "96 c #5D7C99",
  "97 c #6C94BD",
  "98 c #7BADD6",
  "99 c #8CBDD6",
  "9A c #8CB5D6",
  "9B c #A5B5C6",
  "9C c #081018",
  "9D c #94B5D6",
  "9E c #5A7394",
  "9F c #94C6D6",
  "A0 c #5A84A5",
  "A1 c #5E5845",
  "A2 c #93A8BC",
  "A3 c #6E8296",
  "A4 c #1EA07E",
  "A5 c #FAF3DE",
  "A6 c #658295",
  "A7 c #F1D5C7",
  "A8 c #95B3C5",
  "A9 c #B54529",
  "AA c #424A52",
  "AB c #6B8CAD",
  "AC c #545756",
  "AD c #C0692F",
  "AE c #BACAD0",
  "AF c #ACBBBD",
  "B0 c #F1F8F8",
  "B1 c #D5D6D2",
  "B2 c #C9D1C7",
  "B3 c #F9B67C",
  "B4 c #A5C6D6",
  "B5 c #F8E17A",
  "B6 c #7B8EA0",
  "B7 c #DAE1E3",
  "B8 c #D8DFE3",
  "B9 c #312F2A",
  "BA c #B5C6CE",
  "BB c #B2C1C0",
  "BC c #738CAD",
  "BD c #FBBE7C",
  "BE c #5F7F9E",
  "BF c #8CABC8",
  "C0 c #5B7A98",
  "C1 c #7B9CC6",
  "C2 c #C7CFDE",
  "C3 c #E9A73E",
  "C4 c #E6EAE8",
  "C5 c #E3E9E9",
  "C6 c #FFF1D8",
  "C7 c #527B94",
  "C8 c #A08D6C",
  "C9 c #9EAEC7",
  "CA c #9D8055",
  "CB c #DEE7EF",
  "CC c #BDE7E7",
  "CD c #A5BDD6",
  "CE c #516573",
  "CF c #D07F4F",
  "D0 c #FFCA7E",
  "D1 c #E8ECEB",
  "D2 c #8F4931",
  "D3 c #FFF08C",
  "D4 c #6F818C",
  "D5 c #9CC6F7",
  "D6 c #EE8150",
  "D7 c #93A19A",
  "D8 c #748591",
  "D9 c #1C1B16",
  "DA c #77574E",
  "DB c #EBAB45",
  "DC c #8CA5C6",
  "DD c #07DCB2",
  "DE c #1CD4B1",
  "DF c #F0915C",
  "E0 c #28927B",
  "E1 c #9BA8A4",
  "E2 c #A9B9C8",
  "E3 c #8DA3AF",
  "E4 c #7F98A9",
  "E5 c #1BFCCF",
  "E6 c #BDC9C5",
  "E7 c #FFF8DD",
  "E8 c #000818",
  "E9 c #0AEDC1",
  "EA c #3AA089",
  "EB c #319984",
  "EC c #A1BBC9",
  "ED c #FAB96C",
  "EE c #C66840",
  "EF c #475F7E",
  "F0 c #BDCEDE",
  "F1 c #657982",
  "F2 c #CAD6D8",
  "F3 c #111010",
  "F4 c #9D926D",
  "F5 c #FFCA82",
  "F6 c #6F98B7",
  "F7 c #E5E6DA",
  "F8 c #6B94B5",
  "F9 c #527394",
  "FA c #262626",
  "FB c #FFFFFF",
  ".. s None c None",
  "..CD24F9626262F9F9F9F9F9F9F9F9F9F9F9F9F9F9F9F9F99E8787879E8C95..",
  "1FCCAB8C5656CE6485858585858585858585858585858585126502DCBC8C4DAA",
  "2E1F9BFBFBFBFBFBFBFBFBFBFBFBFBFBFBFBFBFBFBFBFBFBFBFBFBFBFBD84D52",
  "4363FB03992E350505050505050505050505434343434393F889878DFB9D456A",
  "F807FBB49F980588F8F8F8F8F8F8F8F8F8F8F8F8F8F88B4724C78D28FBA01B06",
  "8F64FB9F9A01CB835B0183F04B928321898989892424A087F94528FB8BF94D7F",
  "9323FB99980183839B018383BA0183838787878787F9078D8C28FB8824529C..",
  "C123FB9A8E6E8383411A831E8787839287F9F9F90750452872FB88F8287C7F..",
  "8E23FB868E5B834AF97383C251C983215151F96250452872FB88F828797F....",
  "8423FB868E4A830251E283E296AEB04BC0630750452872FB97F828797FF3....",
  "8423FB86352F8309962FB0A24601B0736549630723CEFB43F628797F7EF3....",
  "8423FB86359283466558B073E458B068B63DA3F1F1FB6E7B646AF3777EF3....",
  "8423FB86354741653DE4B8786C6C6C78B7705959FB5BA8D4405E38777EF3....",
  "8423FB86357A461AE4817640D1E6D1FAC42222FB9218E16F0427362D7EF3....",
  "8423FB86357A1A3DB876BB3E82585A58FA0FFB11AC13F754311D272D5706....",
  "8423FB86357A1A096B403E5882EADE3FFAFB11FAB15413FAE725003B57D9....",
  "8423FB86357A1A0981C5698229E944E0FA11FA0F2B2B0C0C3C331D66605E....",
  "8423FB86357A1A3DE3AFB2581C32200EEB0EFA182B90FAFAFAE753340815....",
  "8423FB86357A463D685C3E5A0F5D0E0E4C4C5D1CFAFA3C3C0AFA04B90815....",
  "8423FB86354741466D78FA0F0FFB110EE5E50E177D3C10101033CA660815....",
  "8423FB86354741A63D705CFAFAFA1C5DDD170E4C4C20170A1014D0666015....",
  "8423FB863547BE4949D8D7FB11110FB90E0E0E1932444C8A5F74F5660815....",
  "8423FB860580516264F1FB4AF23FFA2B90B9A419199144448A5F75376015....",
  "8495FB86052450EF56FBBFEC222BFA903CFA3C55191991444C8A75260815....",
  "8485FB2E88874528FB437BD86F54FA3C3CFA0A7D55191991448A75260815....",
  "8412FB8E800728FB97F6644004D33CFA0A0AFA0A17191919329439DF605E....",
  "843DFB88878CFB88F8286A1500B525A1F40AA5FA74748A94FA7537D6D25E....",
  "8F02FB248DFB88F82879D9161600531CC614144813C84867754E3A3061D9....",
  "8F9DFBFBFB888B28797FC3DB38363434ED4F4FBDB939B34E263A300D2C06....",
  "80D56D8B8BF91B797F7171AD42420B0B0BCFCF2A2AA7CF0BEE0DA961DAF3....",
  "526252451B4D7C7FF3F3F306D95E1515B9B91C1C1313131C155ED906F3......",
  "..527CE8799C....................................................",
};
