/* XPM */
static char *pixmap[] = {
/* width height ncols cpp */
"16 16 146 2",
  /* Colors */
  "00 c #00CCA6",
  "01 c #009376",
  "02 c #09FFD2",
  "03 c #F4E9D8",
  "04 c #E9E9D8",
  "05 c #FBFCFB",
  "06 c #577A9D",
  "07 c #21FFD6",
  "08 c #F0F3F0",
  "09 c #00AB8B",
  "0A c #F3F7F9",
  "0B c #F1F4F2",
  "0C c #00F2C4",
  "0D c #EEF1E9",
  "0E c #21FED5",
  "0F c #ECF0EE",
  "10 c #90A7B6",
  "11 c #6182A1",
  "12 c #F3F6F6",
  "13 c #00C9A3",
  "14 c #2E4154",
  "15 c #E7ECEC",
  "16 c #F1F4F0",
  "17 c #FFF8D8",
  "18 c #07DDB4",
  "19 c #23BE97",
  "1A c #30302F",
  "1B c #65757C",
  "1C c #5C80A5",
  "1D c #0AEEC3",
  "1E c #9BBAD4",
  "1F c #717678",
  "20 c #009276",
  "21 c #FAFBF9",
  "22 c #FFF2D8",
  "23 c #3F5871",
  "24 c #E3E5E3",
  "25 c #7490A8",
  "26 c #B97355",
  "27 c #F0F4F5",
  "28 c #FFE289",
  "29 c #2D2D2B",
  "2A c #313131",
  "2B c #05977A",
  "2C c #309781",
  "2D c #008C73",
  "2E c #576771",
  "2F c #00E1B8",
  "30 c #F1F5F3",
  "31 c #108268",
  "32 c #7FA6CA",
  "33 c #037865",
  "34 c #14B792",
  "35 c #067D65",
  "36 c #343435",
  "37 c #564E41",
  "38 c #343431",
  "39 c #D6D8D6",
  "3A c #94AAB7",
  "3B c #00C39E",
  "3C c #0DB494",
  "3D c #E9EEED",
  "3E c #EEF1ED",
  "3F c #D7DEE5",
  "40 c #EDF2F3",
  "41 c #1F1F17",
  "42 c #007862",
  "43 c #829DB2",
  "44 c #F7F7F2",
  "45 c #587B9E",
  "46 c #404241",
  "47 c #FFF6D8",
  "48 c #D8E2DD",
  "49 c #A0A084",
  "4A c #A5C1D8",
  "4B c #F0F3EF",
  "4C c #EDF3F5",
  "4D c #00E1B7",
  "4E c #16FFD4",
  "4F c #DAE6EA",
  "50 c #ECEFEF",
  "51 c #16B697",
  "52 c #019577",
  "53 c #C8906B",
  "54 c #545655",
  "55 c #F4F8FA",
  "56 c #F9FAF8",
  "57 c #2A9481",
  "58 c #1E9E7B",
  "59 c #19BB96",
  "5A c #7F7F7F",
  "5B c #51697E",
  "5C c #DDEAEF",
  "5D c #353535",
  "5E c #72777A",
  "5F c #EAF1F5",
  "60 c #7995AC",
  "61 c #557799",
  "62 c #18B793",
  "63 c #0CFED2",
  "64 c #F1F4F1",
  "65 c #07E3B8",
  "66 c #5E5E5E",
  "67 c #00CBA4",
  "68 c #F0F4F3",
  "69 c #FFF1D8",
  "6A c #06C69F",
  "6B c #3E5770",
  "6C c #E2E5E0",
  "6D c #1CFDD1",
  "6E c #F4E8D7",
  "6F c #000000",
  "70 c #FFF9D8",
  "71 c #545757",
  "72 c #45617D",
  "73 c #7D9CB7",
  "74 c #02957A",
  "75 c #F9FBFC",
  "76 c #7592AA",
  "77 c #1AFDD1",
  "78 c #06967A",
  "79 c #2E4255",
  "7A c #F1F5F2",
  "7B c #3EA493",
  "7C c #8C7A5F",
  "7D c #414241",
  "7E c #FFF4D8",
  "7F c #EFE5D6",
  "80 c #7F9094",
  "81 c #8FDDB3",
  "82 c #F2F6F5",
  "83 c #1DD6B6",
  "84 c #A2B7C2",
  "85 c #717679",
  "86 c #FFEDD8",
  "87 c #13FED2",
  "88 c #01CCA6",
  "89 c #7D98AD",
  "8A c #45453E",
  "8B c #F0F5F7",
  "8C c #415B76",
  "8D c #ACC2CF",
  "8E c #00CCA7",
  "8F c #262626",
  "90 c #FFFFFF",
  ".. s None c None",
  "..5F4C1E32100F1576061160895B72..",
  "4A8B669090908F909090909090901B2E",
  "27907585555C0A8F408D3054467A906C",
  "71900A5E7B83508F480B8F39247D8F..",
  "3D5A1F311D63578F648F0808055644..",
  "3A900A366587012C018F21050D8F8F8F",
  "15904F123552010E0E425D8F8F1703..",
  "0F8F12820B16786D772B3C59702826..",
  "10908F8F8F2A3318517407074E346E..",
  "1190680B164B1A010120672F02070981",
  "069073843E8F050D295813000C020209",
  "06901C43088F0D048F476A00000C0207",
  "06904525058F04178F22193B00000C02",
  "8C90613F80048F7E698F866213888E4D",
  "2379906B4153377C037F8F0303092D8F",
  "..14146F....38........8A49......",
};
