/* XPM */
static char *pixmap[] = {
/* width height ncols cpp */
"32 32 256 2",
  /* Colors */
  "00 c #000000",
  "01 c #FFFFFF",
  "02 c #EFF7F7",
  "03 c #6B94B5",
  "04 c #5A7B9C",
  "05 c #527394",
  "06 c #425A73",
  "07 c #101010",
  "08 c #EFEFF7",
  "09 c #101829",
  "0A c #CED6E7",
  "0B c #000818",
  "0C c #212939",
  "0D c #8494B5",
  "0E c #C6CEDE",
  "0F c #8C9CB5",
  "10 c #5A6B84",
  "11 c #9CADC6",
  "12 c #425A7B",
  "13 c #31425A",
  "14 c #4A6384",
  "15 c #526B8C",
  "16 c #637B9C",
  "17 c #6B84A5",
  "18 c #52637B",
  "19 c #849CBD",
  "1A c #8CA5C6",
  "1B c #354A63",
  "1C c #6384AD",
  "1D c #6B8CB5",
  "1E c #597394",
  "1F c #577090",
  "20 c #7394BD",
  "21 c #7B9CC6",
  "22 c #84A5CE",
  "23 c #63758C",
  "24 c #737D89",
  "25 c #9CC6F7",
  "26 c #87ADD6",
  "27 c #738CA8",
  "28 c #7A838D",
  "29 c #D6DEE7",
  "2A c #081018",
  "2B c #213142",
  "2C c #111921",
  "2D c #4A6B8C",
  "2E c #4B6C8D",
  "2F c #39526B",
  "30 c #638CB5",
  "31 c #29394A",
  "32 c #6B94BD",
  "33 c #567697",
  "34 c #364A5E",
  "35 c #739CC6",
  "36 c #7BA5CE",
  "37 c #6384A5",
  "38 c #6B8CAD",
  "39 c #7394B5",
  "3A c #86A7C9",
  "3B c #84A5C6",
  "3C c #536679",
  "3D c #94B5D6",
  "3E c #7B94AD",
  "3F c #849CB5",
  "40 c #A5BDD6",
  "41 c #8292A3",
  "42 c #A5B5C6",
  "43 c #ADBDCE",
  "44 c #C8CBCE",
  "45 c #C1C2C3",
  "46 c #182129",
  "47 c #4A637B",
  "48 c #394A5A",
  "49 c #526373",
  "4A c #5A6B7B",
  "4B c #738494",
  "4C c #B5C6D6",
  "4D c #BDCEDE",
  "4E c #DEE7EF",
  "4F c #73A5CE",
  "50 c #638CAD",
  "51 c #7BADD6",
  "52 c #739CBD",
  "53 c #8CB5D6",
  "54 c #67849C",
  "55 c #A9CAE7",
  "56 c #9CB5CB",
  "57 c #5A84A5",
  "58 c #4A6B84",
  "59 c #52738C",
  "5A c #5A7B94",
  "5B c #7BA5C6",
  "5C c #6B8CA5",
  "5D c #536A7B",
  "5E c #94A9B9",
  "5F c #395263",
  "60 c #84B5D6",
  "61 c #425A6B",
  "62 c #5A7384",
  "63 c #454C51",
  "64 c #CED4D8",
  "65 c #527B94",
  "66 c #4A6373",
  "67 c #D6EFFF",
  "68 c #8CBDD6",
  "69 c #A8B0B4",
  "6A c #BABCBD",
  "6B c #A5C6D6",
  "6C c #B5C6CE",
  "6D c #94C6D6",
  "6E c #A3AAAB",
  "6F c #101818",
  "70 c #BDE7E7",
  "71 c #E7EFEF",
  "72 c #ABACAC",
  "73 c #9BB2B0",
  "74 c #CBFFF9",
  "75 c #9EB0AE",
  "76 c #9AACAA",
  "77 c #A6FFF3",
  "78 c #A4FCF0",
  "79 c #9EF2E7",
  "7A c #A7FDF1",
  "7B c #95E3D9",
  "7C c #8ED7CD",
  "7D c #85C9C0",
  "7E c #84C5BC",
  "7F c #7EBBB3",
  "80 c #7AB5AD",
  "81 c #699B94",
  "82 c #B7FFF5",
  "83 c #AFEFE7",
  "84 c #BEFFF6",
  "85 c #B5F2EA",
  "86 c #BCFAF2",
  "87 c #A7DAD4",
  "88 c #C6FDF6",
  "89 c #C4F7F1",
  "8A c #B5E4DE",
  "8B c #94ACA9",
  "8C c #8F9F9D",
  "8D c #939B9A",
  "8E c #91DDD2",
  "8F c #63928B",
  "90 c #74A9A1",
  "91 c #A1E8DE",
  "92 c #B1FEF3",
  "93 c #678883",
  "94 c #81A8A2",
  "95 c #67827E",
  "96 c #D6FFF9",
  "97 c #DCFFFA",
  "98 c #92A5A2",
  "99 c #E5FFFB",
  "9A c #ECFFFC",
  "9B c #8D9493",
  "9C c #F8FFFE",
  "9D c #879996",
  "9E c #F3FFFD",
  "9F c #98A09D",
  "A0 c #848B88",
  "A1 c #A2A9A2",
  "A2 c #050502",
  "A3 c #060603",
  "A4 c #DAC760",
  "A5 c #A4995B",
  "A6 c #676453",
  "A7 c #D1B93D",
  "A8 c #FFE24B",
  "A9 c #C8AB39",
  "AA c #1A170B",
  "AB c #090804",
  "AC c #7E7A68",
  "AD c #F4CD47",
  "AE c #B4A675",
  "AF c #FFD247",
  "B0 c #96854E",
  "B1 c #87794B",
  "B2 c #F3C643",
  "B3 c #F1C243",
  "B4 c #494435",
  "B5 c #FFC845",
  "B6 c #FFCC46",
  "B7 c #C9A137",
  "B8 c #EFC557",
  "B9 c #D1A339",
  "BA c #FFC143",
  "BB c #D19A35",
  "BC c #FFBA41",
  "BD c #FFBE42",
  "BE c #FFB43E",
  "BF c #FFB640",
  "C0 c #F1AE3D",
  "C1 c #D19033",
  "C2 c #AB782A",
  "C3 c #E9A53B",
  "C4 c #090704",
  "C5 c #F7A839",
  "C6 c #FFAD3D",
  "C7 c #FFA63A",
  "C8 c #BA7B2C",
  "C9 c #8C5D21",
  "CA c #FFAA3D",
  "CB c #FFD29B",
  "CC c #FFA239",
  "CD c #FF9D37",
  "CE c #B26C27",
  "CF c #070503",
  "D0 c #F79335",
  "D1 c #FF9937",
  "D2 c #E88C35",
  "D3 c #E88B35",
  "D4 c #DE8734",
  "D5 c #F78D31",
  "D6 c #CF7329",
  "D7 c #FE9134",
  "D8 c #E88733",
  "D9 c #F78430",
  "DA c #E8812F",
  "DB c #FF8E34",
  "DC c #E78131",
  "DD c #FF8531",
  "DE c #E77C2F",
  "DF c #FC7D2F",
  "E0 c #BA5D23",
  "E1 c #8C471B",
  "E2 c #BD6329",
  "E3 c #FFDFCA",
  "E4 c #7B4221",
  "E5 c #F76F2B",
  "E6 c #E8692A",
  "E7 c #7B3918",
  "E8 c #BD5A29",
  "E9 c #AB491C",
  "EA c #D55A23",
  "EB c #BD5221",
  "EC c #F9B191",
  "ED c #E85D24",
  "EE c #F76729",
  "EF c #8C3A17",
  "F0 c #BD4A21",
  "F1 c #BD4218",
  "F2 c #6E2810",
  "F3 c #7B3118",
  "F4 c #AC3918",
  "F5 c #BD4221",
  "F6 c #73524A",
  "F7 c #7B2918",
  "F8 c #732918",
  "F9 c #BC9289",
  "FA c #721F0F",
  "FB c #521810",
  "FC c #7B2118",
  "FD c #020101",
  "FE c #7D7D7D",
  ".. s None c None",
  "..40370515151505050505050505050505050505050505051E0404041E474A..",
  "557038476666495D1010101010101010101010101010101023540D1A27473163",
  "26554201010101010101010101010101010101010101010101010101014B2B13",
  "525A016768264F3535353535353535353535525252525220031C0458013D140C",
  "0362016B6D51353203030303030303030303030303031D303765580601572F6F",
  "395D016D53294E025629024D567102431C1C1C1C37375704051406011D052B00",
  "2018016851290202422902026C290202040404040405595847060132371B2A..",
  "21180153363B0202545C02080404027104050505592D140661013203062C00..",
  "5B1801603656024C050F020E05110243050505152D140661013203064600....",
  "22180160364C023F05420242056C025E0505152D14066101320306460007....",
  "221801604F0A0227050E023F0564023E331F2E1406610132030646FDE407....",
  "221801604F7102160571021705710216696A4441610132030646C4D4E407....",
  "221801604F30040505050505055E44646975756A6A3A030646C4C0D4E407....",
  "221801604F30040505050505056A8D738988898798452346ABB3C0D2E707....",
  "221801604F300405050505056E768396999A979685987263ADB3BCD3E707....",
  "221801604F300405050505056E8784979E9E9E99968A9BA4ADAFBDD2E707....",
  "221801604F300405050505158C91928474969A9C968698AEAFB5BED3E707....",
  "221801604F300405050515289D9182848282847488928BAEB6BACAD8E707....",
  "221801604F30040505152D249D7B77777777777A928576AEB5BFCCDAF307....",
  "221801604F300405152D143C9B7E8E7B797877797B909FB8BDC6CDDAF307....",
  "221801604F3004592D14065F9B95907F7D7C8E7C8093ACBABEC7D1DCF807....",
  "221801604F3004151406610132A0938F818F8F949BA6B4CBC7D1D7DEF307....",
  "2218016035500514066101321E3CA09F9F76A1A0A60000FECBDBDDE6F707....",
  "224A016035372D1261013203342CA2A5B0A6B1B0B4000000FEE3DFE6F707....",
  "22100126320414060132030646A3A7A9A9B7BBBBC2C9000000FEECEDF707....",
  "222301365059060132030646A3A8A8AFB9BBC1C1C8CEE1000000FEECF707....",
  "2227013204470132030646A3ADADB6BABFCAC7CCD1D6E0E1000000FEF907....",
  "39190137580132030646AAB2B2B5BCC6CCCDD1DBDDDFEAE9EF000000FE07....",
  "393D010101321D0646CFC3C3C5C5D0D0D5D9D9DFE5EEEEEAF4F20000FB07....",
  "5025411D1D052F4600D6D6E2E2E2E8EBEBEBF0F0F0F5F1F4F4FA00FCF607....",
  "48151B142F312C00070707070707070707070707070707070707070707......",
  "..48090B462A....................................................",
};
