<?xml version="1.0" encoding="UTF-8" standalone="no"?>
<!-- This Source Code Form is subject to the terms of the Mozilla Public
   - License, v. 2.0. If a copy of the MPL was not distributed with this
   - file, You can obtain one at http://mozilla.org/MPL/2.0/. -->
<svg
   xmlns:dc="http://purl.org/dc/elements/1.1/"
   xmlns:cc="http://creativecommons.org/ns#"
   xmlns:rdf="http://www.w3.org/1999/02/22-rdf-syntax-ns#"
   xmlns:svg="http://www.w3.org/2000/svg"
   xmlns="http://www.w3.org/2000/svg"
   xmlns:xlink="http://www.w3.org/1999/xlink"
   version="1.1"
   width="16"
   height="16"
   id="svg2">
  <defs
     id="defs4">
    <linearGradient
       id="linearGradient3841">
      <stop
         id="stop3843"
         style="stop-color:#427dc2;stop-opacity:1"
         offset="0" />
      <stop
         id="stop3845"
         style="stop-color:#5e9fce;stop-opacity:1"
         offset="1" />
    </linearGradient>
    <linearGradient
       id="linearGradient3795">
      <stop
         id="stop3797"
         style="stop-color:#2f5d93;stop-opacity:1"
         offset="0" />
      <stop
         id="stop3799"
         style="stop-color:#3a87bd;stop-opacity:0.99215686"
         offset="1" />
    </linearGradient>
    <filter
       x="-0.1195599"
       y="-0.12044335"
       width="1.2391198"
       height="1.2408867"
       color-interpolation-filters="sRGB"
       id="filter2984">
      <feGaussianBlur
         id="feGaussianBlur2986"
         stdDeviation="0.63671875" />
    </filter>
    <linearGradient
       x1="4.0935063"
       y1="13.423457"
       x2="4.0935063"
       y2="2.742672"
       id="linearGradient3800"
       xlink:href="#linearGradient3841"
       gradientUnits="userSpaceOnUse" />
    <linearGradient
       x1="8.7112017"
       y1="13.579539"
       x2="8.7112017"
       y2="2.5663419"
       id="linearGradient3808"
       xlink:href="#linearGradient3795"
       gradientUnits="userSpaceOnUse" />
  </defs>
  <metadata
     id="metadata7">
    <rdf:RDF>
      <cc:Work
         rdf:about="">
        <dc:format>image/svg+xml</dc:format>
        <dc:type
           rdf:resource="http://purl.org/dc/dcmitype/StillImage" />
        <dc:title></dc:title>
      </cc:Work>
    </rdf:RDF>
  </metadata>
  <path
     d="m 10.140619,1.656256 c -2.3511382,0 -4.2500001,1.898862 -4.2500001,4.2500004 0,0.751994 0.189088,1.449383 0.53125,2.0625 l -4.8125,4.8124996 1.5625001,1.5625 4.7812499,-4.7812496 c 0.6402543,0.38528 1.3858221,0.5937496 2.1875001,0.5937496 2.351138,0 4.25,-1.8988616 4.25,-4.2499996 0,-2.3511384 -1.898862,-4.2500004 -4.25,-4.2500004 z m 0,1.53125 c 1.503797,0 2.71875,1.214953 2.71875,2.7187504 0,1.503798 -1.214953,2.71875 -2.71875,2.71875 -1.5037975,0 -2.7187501,-1.214952 -2.7187501,-2.71875 0,-1.5037974 1.2149526,-2.7187504 2.7187501,-2.7187504 z"
     id="path3014-7"
     style="fill:#ffffff;fill-opacity:1;stroke:#ffffff;stroke-width:1.5;stroke-linejoin:round;stroke-miterlimit:4;stroke-opacity:1;stroke-dasharray:none;filter:url(#filter2984)" />
  <path
     d="M 10,2 C 7.7908609,2 6,3.7908609 6,6 6,6.8284272 6.2562027,7.6115959 6.6875,8.25 L 1.8125,13.125 2.875,14.1875 7.75,9.3125 C 8.3884041,9.7437973 9.1715728,10 10,10 12.209139,10 14,8.2091391 14,6 14,3.7908609 12.209139,2 10,2 z m 0,1 c 1.656854,0 3,1.3431458 3,3 0,1.6568542 -1.343146,3 -3,3 C 8.3431458,9 7,7.6568542 7,6 7,4.3431458 8.3431458,3 10,3 z"
     id="path2994"
     style="fill:url(#linearGradient3800);fill-opacity:1;stroke:url(#linearGradient3808);stroke-width:0.60000002;stroke-linejoin:round;stroke-miterlimit:4;stroke-dasharray:none" />
</svg>
