<!-- This Source Code Form is subject to the terms of the Mozilla Public
   - License, v. 2.0. If a copy of the MPL was not distributed with this
   - file, You can obtain one at http://mozilla.org/MPL/2.0/. -->
<svg width="268" height="208" viewBox="0 0 268 208" fill="none" xmlns="http://www.w3.org/2000/svg">
<rect x="52" y="4" width="164" height="198" fill="#F0F0F4"/>
<mask id="mask0" mask-type="alpha" maskUnits="userSpaceOnUse" x="52" y="4" width="164" height="198">
<rect x="52" y="4" width="164" height="198" fill="#F0F0F4"/>
</mask>
<g mask="url(#mask0)">
<line x1="60" y1="169.25" x2="204" y2="169.25" stroke="#E0E0E6" stroke-width="0.5"/>
<circle cx="79" cy="194.5" r="14" fill="#E0E0E6"/>
<rect x="60" y="127.5" width="147" height="39" fill="#BFBFC9"/>
<g clip-path="url(#clip0)" filter="url(#filter0_d)">
<path d="M91.47 141.874C90.8814 140.458 89.6894 138.93 88.7533 138.447C89.5152 139.94 89.9561 141.438 90.1246 142.556C90.1246 142.559 90.1254 142.564 90.1272 142.579C88.5959 138.762 85.9995 137.223 83.8792 133.872C83.7722 133.703 83.6648 133.533 83.5602 133.354C83.507 133.262 83.4572 133.169 83.4111 133.074C83.323 132.904 83.2551 132.724 83.2087 132.538C83.209 132.529 83.206 132.521 83.2003 132.514C83.1946 132.507 83.1866 132.503 83.1779 132.502C83.1696 132.499 83.1608 132.499 83.1525 132.502C83.1506 132.502 83.1478 132.505 83.1457 132.505C83.1427 132.507 83.139 132.509 83.1358 132.511C83.1373 132.509 83.1405 132.504 83.1415 132.503C79.7397 134.496 78.5857 138.181 78.4796 140.025C77.1212 140.118 75.8224 140.619 74.7526 141.461C74.6406 141.367 74.5235 141.278 74.4018 141.196C74.0932 140.117 74.0801 138.974 74.3639 137.887C72.9727 138.52 71.8907 139.522 71.1041 140.406H71.0978C70.561 139.726 70.5989 137.483 70.6295 137.014C70.6231 136.985 70.229 137.219 70.1774 137.254C69.7037 137.592 69.2608 137.972 68.854 138.388C68.391 138.857 67.9681 139.365 67.5894 139.904C67.5894 139.905 67.589 139.906 67.5888 139.907C67.5888 139.906 67.5892 139.905 67.5894 139.904C66.7186 141.138 66.101 142.533 65.7723 144.007C65.7659 144.036 65.7604 144.067 65.7541 144.096C65.7286 144.216 65.6369 144.812 65.6208 144.942C65.6196 144.951 65.619 144.961 65.6178 144.971C65.4992 145.588 65.4258 146.212 65.3981 146.839C65.3981 146.862 65.3967 146.885 65.3967 146.909C65.3969 154.387 71.46 160.449 78.9388 160.449C85.6367 160.449 91.198 155.587 92.2868 149.2C92.3097 149.027 92.3281 148.852 92.3483 148.678C92.6175 146.355 92.3184 143.915 91.47 141.874ZM75.8617 152.473C75.9251 152.503 75.9846 152.536 76.0496 152.565C76.0523 152.567 76.056 152.569 76.0588 152.57C75.9926 152.539 75.9269 152.506 75.8617 152.473ZM90.1283 142.582L90.1265 142.569C90.1272 142.574 90.128 142.579 90.1287 142.584L90.1283 142.582Z" fill="url(#paint0_linear)"/>
<path d="M91.47 141.874C90.8814 140.458 89.6894 138.93 88.7533 138.447C89.5152 139.94 89.9561 141.438 90.1246 142.556C90.1246 142.553 90.1252 142.559 90.1266 142.569C90.1273 142.574 90.1281 142.579 90.1289 142.584C91.4066 146.047 90.7105 149.57 89.7074 151.722C88.1556 155.052 84.3985 158.465 78.5179 158.299C72.1644 158.119 66.567 153.405 65.5222 147.23C65.3318 146.256 65.5222 145.762 65.618 144.971C65.5013 145.581 65.4568 145.757 65.3982 146.84C65.3982 146.863 65.3968 146.886 65.3968 146.909C65.3969 154.387 71.46 160.449 78.9388 160.449C85.6367 160.449 91.198 155.587 92.2868 149.2C92.3097 149.027 92.3281 148.852 92.3483 148.678C92.6175 146.355 92.3184 143.915 91.47 141.874Z" fill="url(#paint1_radial)"/>
<path d="M91.47 141.874C90.8814 140.458 89.6894 138.93 88.7533 138.447C89.5152 139.94 89.9561 141.438 90.1246 142.556C90.1246 142.553 90.1252 142.559 90.1266 142.569C90.1273 142.574 90.1281 142.579 90.1289 142.584C91.4066 146.047 90.7105 149.57 89.7074 151.722C88.1556 155.052 84.3985 158.465 78.5179 158.299C72.1644 158.119 66.567 153.405 65.5222 147.23C65.3318 146.256 65.5222 145.762 65.618 144.971C65.5013 145.581 65.4568 145.757 65.3982 146.84C65.3982 146.863 65.3968 146.886 65.3968 146.909C65.3969 154.387 71.46 160.449 78.9388 160.449C85.6367 160.449 91.198 155.587 92.2868 149.2C92.3097 149.027 92.3281 148.852 92.3483 148.678C92.6175 146.355 92.3184 143.915 91.47 141.874Z" fill="url(#paint2_radial)"/>
<path d="M84.8891 143.465C84.9186 143.486 84.9455 143.507 84.9732 143.527C84.6334 142.924 84.2102 142.372 83.7161 141.887C79.5066 137.678 82.6123 132.761 83.1361 132.511C83.1376 132.509 83.1407 132.504 83.1417 132.503C79.7399 134.496 78.5859 138.181 78.4799 140.025C78.6376 140.014 78.795 140.001 78.9556 140.001C81.4941 140.001 83.7051 141.397 84.8891 143.465Z" fill="url(#paint3_radial)"/>
<path d="M78.964 144.306C78.9419 144.643 77.7517 145.804 77.3356 145.804C73.4848 145.804 72.8597 148.134 72.8597 148.134C73.0302 150.095 74.3958 151.71 76.0496 152.565C76.1251 152.604 76.2014 152.639 76.2778 152.674C76.4088 152.732 76.5415 152.786 76.6756 152.837C77.2427 153.037 77.8366 153.152 78.4377 153.176C85.1871 153.493 86.4947 145.108 81.6239 142.673C82.8713 142.456 84.1661 142.957 84.8891 143.465C83.7051 141.396 81.4941 140.001 78.9556 140.001C78.795 140.001 78.6378 140.014 78.4799 140.025C77.1215 140.118 75.8227 140.619 74.7529 141.461C74.9594 141.636 75.1925 141.869 75.6835 142.353C76.6021 143.258 78.959 144.196 78.964 144.306Z" fill="url(#paint4_radial)"/>
<path d="M78.964 144.306C78.9419 144.643 77.7517 145.804 77.3356 145.804C73.4848 145.804 72.8597 148.134 72.8597 148.134C73.0302 150.095 74.3958 151.71 76.0496 152.565C76.1251 152.604 76.2014 152.639 76.2778 152.674C76.4088 152.732 76.5415 152.786 76.6756 152.837C77.2427 153.037 77.8366 153.152 78.4377 153.176C85.1871 153.493 86.4947 145.108 81.6239 142.673C82.8713 142.456 84.1661 142.957 84.8891 143.465C83.7051 141.396 81.4941 140.001 78.9556 140.001C78.795 140.001 78.6378 140.014 78.4799 140.025C77.1215 140.118 75.8227 140.619 74.7529 141.461C74.9594 141.636 75.1925 141.869 75.6835 142.353C76.6021 143.258 78.959 144.196 78.964 144.306Z" fill="url(#paint5_radial)"/>
<path d="M74.1213 141.011C74.2156 141.071 74.3091 141.133 74.4019 141.197C74.0933 140.117 74.0802 138.974 74.364 137.887C72.9728 138.521 71.8908 139.522 71.1042 140.406C71.1693 140.404 73.1335 140.369 74.1213 141.011Z" fill="url(#paint6_radial)"/>
<path d="M65.5222 147.23C66.5671 153.405 72.1644 158.119 78.518 158.299C84.3986 158.465 88.1557 155.052 89.7074 151.722C90.7104 149.57 91.4066 146.048 90.1289 142.584L90.1284 142.582L90.1266 142.569C90.1252 142.559 90.1244 142.553 90.1246 142.556C90.1246 142.559 90.1254 142.564 90.1272 142.579C90.6076 145.715 89.0121 148.754 86.5181 150.808L86.5106 150.826C81.6508 154.783 77.0004 153.213 76.0588 152.571C75.9926 152.539 75.9269 152.506 75.8616 152.473C73.0283 151.119 71.8578 148.537 72.1088 146.324C69.7164 146.324 68.9006 144.306 68.9006 144.306C68.9006 144.306 71.0486 142.774 73.8795 144.106C76.5014 145.34 78.9637 144.306 78.964 144.306C78.959 144.196 76.602 143.258 75.6832 142.353C75.1922 141.869 74.9591 141.636 74.7526 141.461C74.6406 141.367 74.5235 141.278 74.4019 141.196C74.309 141.133 74.2154 141.071 74.1212 141.01C73.1335 140.368 71.1692 140.404 71.1041 140.405H71.0979C70.561 139.726 70.5989 137.483 70.6295 137.014C70.6231 136.985 70.229 137.219 70.1774 137.254C69.7037 137.592 69.2608 137.971 68.854 138.388C68.3911 138.857 67.9681 139.365 67.5894 139.905C67.5894 139.905 67.5891 139.906 67.5888 139.907C67.5888 139.906 67.5892 139.905 67.5894 139.905C66.7187 141.139 66.1011 142.533 65.7724 144.007C65.7659 144.036 65.285 146.139 65.5222 147.23Z" fill="url(#paint7_radial)"/>
<path d="M83.7161 141.887C84.2101 142.372 84.6334 142.924 84.9732 143.527C85.0478 143.583 85.1174 143.639 85.1765 143.694C88.2465 146.522 86.638 150.523 86.518 150.808C89.0121 148.754 90.6075 145.715 90.1272 142.579C88.5959 138.762 85.9994 137.223 83.8792 133.872C83.7721 133.703 83.6648 133.533 83.5602 133.354C83.507 133.262 83.4572 133.169 83.4111 133.074C83.323 132.904 83.2551 132.724 83.2087 132.538C83.209 132.529 83.206 132.521 83.2003 132.514C83.1946 132.507 83.1866 132.503 83.1779 132.502C83.1696 132.499 83.1608 132.499 83.1525 132.502C83.1506 132.502 83.1477 132.505 83.1457 132.505C83.1427 132.507 83.139 132.509 83.1358 132.511C82.6123 132.761 79.5065 137.678 83.7161 141.887Z" fill="url(#paint8_radial)"/>
<path d="M85.1766 143.694C85.1175 143.639 85.0478 143.583 84.9733 143.527C84.9457 143.507 84.9187 143.486 84.8892 143.465C84.1661 142.957 82.8713 142.456 81.6239 142.673C86.4948 145.108 85.1871 153.493 78.4377 153.177C77.8366 153.152 77.2427 153.037 76.6756 152.837C76.5415 152.786 76.4089 152.732 76.2778 152.674C76.2014 152.639 76.1251 152.604 76.0496 152.565C76.0523 152.567 76.056 152.569 76.0588 152.571C77.0004 153.213 81.6508 154.783 86.5106 150.826L86.5181 150.808C86.6381 150.523 88.2466 146.522 85.1766 143.694Z" fill="url(#paint9_radial)"/>
<path d="M72.8596 148.134C72.8596 148.134 73.4847 145.804 77.3355 145.804C77.7518 145.804 78.942 144.643 78.964 144.306C78.986 143.969 76.5016 145.34 73.8795 144.106C71.0486 142.774 68.9006 144.306 68.9006 144.306C68.9006 144.306 69.7164 146.324 72.1088 146.324C71.8579 148.537 73.0283 151.119 75.8616 152.473C75.925 152.503 75.9845 152.536 76.0495 152.565C74.3958 151.71 73.0302 150.095 72.8596 148.134Z" fill="url(#paint10_radial)"/>
<path d="M91.47 141.874C90.8814 140.458 89.6893 138.93 88.7533 138.447C89.5151 139.94 89.956 141.438 90.1245 142.556C90.1245 142.559 90.1254 142.564 90.1272 142.579C88.5959 138.762 85.9994 137.223 83.8792 133.872C83.7721 133.703 83.6648 133.533 83.5602 133.354C83.5069 133.262 83.4572 133.169 83.4111 133.074C83.323 132.904 83.2551 132.724 83.2086 132.538C83.209 132.529 83.206 132.521 83.2003 132.514C83.1946 132.507 83.1866 132.503 83.1779 132.502C83.1696 132.499 83.1608 132.499 83.1525 132.502C83.1505 132.502 83.1477 132.505 83.1457 132.505C83.1427 132.507 83.1389 132.509 83.1358 132.511C83.1373 132.509 83.1405 132.504 83.1414 132.503C79.7396 134.496 78.5856 138.181 78.4796 140.025C78.6374 140.014 78.7947 140.001 78.9553 140.001C81.4939 140.001 83.705 141.397 84.8888 143.465C84.1657 142.957 82.8709 142.456 81.6235 142.673C86.4944 145.108 85.1868 153.493 78.4373 153.177C77.8363 153.152 77.2423 153.037 76.6752 152.837C76.5411 152.786 76.4085 152.732 76.2775 152.674C76.2011 152.639 76.1247 152.604 76.0493 152.565C76.052 152.567 76.0557 152.569 76.0585 152.571C75.9923 152.539 75.9265 152.506 75.8612 152.473C75.9246 152.503 75.9841 152.536 76.0491 152.565C74.3953 151.71 73.0297 150.095 72.8591 148.133C72.8591 148.133 73.4842 145.804 77.335 145.804C77.7513 145.804 78.9415 144.643 78.9635 144.306C78.9585 144.196 76.6015 143.258 75.6827 142.353C75.1918 141.869 74.9586 141.636 74.7522 141.461C74.6402 141.366 74.5231 141.278 74.4014 141.196C74.0927 140.116 74.0796 138.973 74.3634 137.887C72.9723 138.52 71.8903 139.521 71.1037 140.406H71.0974C70.5606 139.726 70.5984 137.483 70.629 137.014C70.6226 136.985 70.2286 137.219 70.177 137.254C69.7032 137.592 69.2604 137.972 68.8536 138.388C68.3907 138.857 67.9679 139.365 67.5894 139.904C67.5894 139.905 67.589 139.906 67.5888 139.907C67.5888 139.906 67.5891 139.905 67.5894 139.904C66.7186 141.138 66.101 142.533 65.7723 144.007C65.7658 144.036 65.7604 144.067 65.754 144.096C65.7286 144.216 65.614 144.821 65.598 144.95C65.5967 144.96 65.5991 144.94 65.598 144.95C65.4934 145.576 65.4268 146.206 65.3983 146.84C65.3983 146.863 65.3969 146.886 65.3969 146.909C65.3969 154.387 71.46 160.449 78.9388 160.449C85.6366 160.449 91.198 155.587 92.2867 149.2C92.3097 149.027 92.328 148.852 92.3483 148.678C92.6174 146.355 92.3184 143.915 91.47 141.874ZM90.1265 142.569C90.1272 142.574 90.1281 142.579 90.1288 142.584L90.1284 142.582L90.1265 142.569Z" fill="url(#paint11_linear)"/>
</g>
<line x1="60" y1="124.25" x2="204" y2="124.25" stroke="#E0E0E6" stroke-width="0.5"/>
<line x1="60" y1="75.25" x2="204" y2="75.25" stroke="#E0E0E6" stroke-width="0.5"/>
<circle cx="79" cy="100.5" r="14" fill="#E0E0E6"/>
<line x1="60" y1="28.25" x2="204" y2="28.25" stroke="#E0E0E6" stroke-width="0.5"/>
<circle cx="79" cy="53.5" r="14" fill="#E0E0E6"/>
<circle cx="79" cy="6.5" r="14" fill="#E0E0E6"/>
</g>
<rect x="52" y="4" width="164" height="38" fill="#9F9FAD"/>
<path fill-rule="evenodd" clip-rule="evenodd" d="M70 16C70 15.4477 70.4477 15 71 15C71.5523 15 72 15.4477 72 16C72 17.6922 74.046 18.5398 75.2426 17.3431C75.6331 16.9526 76.2663 16.9526 76.6568 17.3431C77.0473 17.7337 77.0473 18.3668 76.6568 18.7574C75.4601 19.954 76.3078 22 78 22C78.5523 22 79 22.4477 79 23C79 23.5523 78.5523 24 78 24C76.3077 24 75.4603 26.0461 76.6569 27.2426C77.0474 27.6332 77.0474 28.2663 76.6569 28.6568C76.2664 29.0474 75.6332 29.0474 75.2427 28.6568C74.046 27.4602 72 28.3077 72 30C72 30.5523 71.5523 31 71 31C70.4477 31 70 30.5523 70 30C70 28.3077 67.9539 27.4603 66.7573 28.6569C66.3668 29.0474 65.7336 29.0474 65.3431 28.6569C64.9526 28.2663 64.9526 27.6332 65.3431 27.2426C66.5396 26.0461 65.6924 24 64 24C63.4477 24 63 23.5523 63 23C63 22.4477 63.4477 22 64 22C65.6922 22 66.5398 19.954 65.3432 18.7573C64.9527 18.3668 64.9527 17.7337 65.3432 17.3431C65.7337 16.9526 66.3669 16.9526 66.7574 17.3431C67.954 18.5397 70 17.6923 70 16ZM69.5858 21.5858C69.9609 21.2107 70.4696 21 71 21C71.5304 21 72.0391 21.2107 72.4142 21.5858C72.7893 21.9609 73 22.4696 73 23C73 23.5304 72.7893 24.0391 72.4142 24.4142C72.0391 24.7893 71.5304 25 71 25C70.4696 25 69.9609 24.7893 69.5858 24.4142C69.2107 24.0391 69 23.5304 69 23C69 22.4696 69.2107 21.9609 69.5858 21.5858ZM71 19C69.9391 19 68.9217 19.4214 68.1716 20.1716C67.4214 20.9217 67 21.9391 67 23C67 24.0609 67.4214 25.0783 68.1716 25.8284C68.9217 26.5786 69.9391 27 71 27C72.0609 27 73.0783 26.5786 73.8284 25.8284C74.5786 25.0783 75 24.0609 75 23C75 21.9391 74.5786 20.9217 73.8284 20.1716C73.0783 19.4214 72.0609 19 71 19Z" fill="#80808F"/>
<rect x="158.25" y="15.25" width="6.5" height="0.5" fill="#0A204D" stroke="#80808F" stroke-width="0.5"/>
<rect x="200.182" y="18.1924" width="8.5" height="0.5" transform="rotate(-45 200.182 18.1924)" fill="#0A204D" stroke="#80808F" stroke-width="0.5"/>
<rect x="200.536" y="12.182" width="8.5" height="0.5" transform="rotate(45 200.536 12.182)" fill="#0A204D" stroke="#80808F" stroke-width="0.5"/>
<rect x="178.5" y="11.5" width="10" height="7" stroke="#80808F"/>
<g filter="url(#filter1_d)">
<path fill-rule="evenodd" clip-rule="evenodd" d="M185.837 154.524L190.483 152.872L177.997 146.005L181.637 159.786L184.363 155.676L187.627 159.855L189.101 158.703L185.837 154.524Z" fill="#363B3E"/>
<path d="M186.658 154.763L190.651 153.343L191.699 152.97L190.724 152.434L178.238 145.567L177.215 145.005L177.513 146.133L181.154 159.914L181.438 160.991L182.054 160.062L184.396 156.531L187.233 160.163L187.541 160.557L187.935 160.249L189.409 159.097L189.803 158.789L189.495 158.395L186.658 154.763Z" stroke="white" stroke-opacity="0.8"/>
</g>
<defs>
<filter id="filter0_d" x="-15.5047" y="52.5" width="188.85" height="188.85" filterUnits="userSpaceOnUse" color-interpolation-filters="sRGB">
<feFlood flood-opacity="0" result="BackgroundImageFix"/>
<feColorMatrix in="SourceAlpha" type="matrix" values="0 0 0 0 0 0 0 0 0 0 0 0 0 0 0 0 0 0 127 0"/>
<feOffset/>
<feGaussianBlur stdDeviation="40"/>
<feColorMatrix type="matrix" values="0 0 0 0 1 0 0 0 0 1 0 0 0 0 1 0 0 0 1 0"/>
<feBlend mode="normal" in2="BackgroundImageFix" result="effect1_dropShadow"/>
<feBlend mode="normal" in="SourceGraphic" in2="effect1_dropShadow" result="shape"/>
</filter>
<filter id="filter1_d" x="173.434" y="142.004" width="22.4818" height="24.1908" filterUnits="userSpaceOnUse" color-interpolation-filters="sRGB">
<feFlood flood-opacity="0" result="BackgroundImageFix"/>
<feColorMatrix in="SourceAlpha" type="matrix" values="0 0 0 0 0 0 0 0 0 0 0 0 0 0 0 0 0 0 127 0"/>
<feOffset dy="1"/>
<feGaussianBlur stdDeviation="1.5"/>
<feColorMatrix type="matrix" values="0 0 0 0 0 0 0 0 0 0 0 0 0 0 0 0 0 0 0.25 0"/>
<feBlend mode="normal" in2="BackgroundImageFix" result="effect1_dropShadow"/>
<feBlend mode="normal" in="SourceGraphic" in2="effect1_dropShadow" result="shape"/>
</filter>
<linearGradient id="paint0_linear" x1="88.9956" y1="136.832" x2="67.2515" y2="157.807" gradientUnits="userSpaceOnUse">
<stop offset="0.05" stop-color="#FFF44F"/>
<stop offset="0.37" stop-color="#FF980E"/>
<stop offset="0.53" stop-color="#FF3647"/>
<stop offset="0.7" stop-color="#E31587"/>
</linearGradient>
<radialGradient id="paint1_radial" cx="0" cy="0" r="1" gradientUnits="userSpaceOnUse" gradientTransform="translate(84.1381 135.616) scale(27.6965 28.163)">
<stop offset="0.13" stop-color="#FFBD4F"/>
<stop offset="0.28" stop-color="#FF980E"/>
<stop offset="0.47" stop-color="#FF3750"/>
<stop offset="0.78" stop-color="#EB0878"/>
<stop offset="0.86" stop-color="#E50080"/>
</radialGradient>
<radialGradient id="paint2_radial" cx="0" cy="0" r="1" gradientUnits="userSpaceOnUse" gradientTransform="translate(76.1071 147.247) scale(28.389 28.163)">
<stop offset="0.3" stop-color="#960E18"/>
<stop offset="0.35" stop-color="#B11927" stop-opacity="0.74"/>
<stop offset="0.43" stop-color="#DB293D" stop-opacity="0.34"/>
<stop offset="0.5" stop-color="#F5334B" stop-opacity="0.09"/>
<stop offset="0.53" stop-color="#FF3750" stop-opacity="0"/>
</radialGradient>
<radialGradient id="paint3_radial" cx="0" cy="0" r="1" gradientUnits="userSpaceOnUse" gradientTransform="translate(81.5967 131.18) scale(9.09074 15.4338)">
<stop offset="0.13" stop-color="#FFF44F"/>
<stop offset="0.53" stop-color="#FF980E"/>
</radialGradient>
<radialGradient id="paint4_radial" cx="0" cy="0" r="1" gradientUnits="userSpaceOnUse" gradientTransform="translate(75.5976 154.518) scale(12.0295 13.1844)">
<stop offset="0.35" stop-color="#3A8EE6"/>
<stop offset="0.67" stop-color="#9059FF"/>
<stop offset="1" stop-color="#C139E6"/>
</radialGradient>
<radialGradient id="paint5_radial" cx="0" cy="0" r="1" gradientUnits="userSpaceOnUse" gradientTransform="translate(77.653 144.352) scale(6.38764 7.7788)">
<stop offset="0.21" stop-color="#9059FF" stop-opacity="0"/>
<stop offset="0.97" stop-color="#6E008B" stop-opacity="0.6"/>
</radialGradient>
<radialGradient id="paint6_radial" cx="0" cy="0" r="1" gradientUnits="userSpaceOnUse" gradientTransform="translate(78.0295 134.578) scale(9.56349 9.59749)">
<stop offset="0.1" stop-color="#FFE226"/>
<stop offset="0.79" stop-color="#FF7139"/>
</radialGradient>
<radialGradient id="paint7_radial" cx="0" cy="0" r="1" gradientUnits="userSpaceOnUse" gradientTransform="translate(86.7636 128.282) scale(45.658 38.3273)">
<stop offset="0.11" stop-color="#FFF44F"/>
<stop offset="0.46" stop-color="#FF980E"/>
<stop offset="0.72" stop-color="#FF3647"/>
<stop offset="0.9" stop-color="#E31587"/>
</radialGradient>
<radialGradient id="paint8_radial" cx="0" cy="0" r="1" gradientUnits="userSpaceOnUse" gradientTransform="translate(69.807 140.939) rotate(77.3945) scale(14.4857 62.6632)">
<stop stop-color="#FFF44F"/>
<stop offset="0.3" stop-color="#FF980E"/>
<stop offset="0.57" stop-color="#FF3647"/>
<stop offset="0.74" stop-color="#E31587"/>
</radialGradient>
<radialGradient id="paint9_radial" cx="0" cy="0" r="1" gradientUnits="userSpaceOnUse" gradientTransform="translate(78.1279 138.03) scale(26.2144 25.7538)">
<stop offset="0.14" stop-color="#FFF44F"/>
<stop offset="0.48" stop-color="#FF980E"/>
<stop offset="0.66" stop-color="#FF3647"/>
<stop offset="0.9" stop-color="#E31587"/>
</radialGradient>
<radialGradient id="paint10_radial" cx="0" cy="0" r="1" gradientUnits="userSpaceOnUse" gradientTransform="translate(84.9318 139.536) scale(31.5089 28.1884)">
<stop offset="0.09" stop-color="#FFF44F"/>
<stop offset="0.63" stop-color="#FF980E"/>
</radialGradient>
<linearGradient id="paint11_linear" x1="87.0347" y1="136.413" x2="69.6469" y2="155.411" gradientUnits="userSpaceOnUse">
<stop offset="0.17" stop-color="#FFF44F" stop-opacity="0.8"/>
<stop offset="0.6" stop-color="#FFF44F" stop-opacity="0"/>
</linearGradient>
<clipPath id="clip0">
<rect width="28.8505" height="28.8505" fill="white" transform="translate(64.4953 132.5)"/>
</clipPath>
</defs>
</svg>
