<!-- This Source Code Form is subject to the terms of the Mozilla Public
   - License, v. 2.0. If a copy of the MPL was not distributed with this
   - file, You can obtain one at http://mozilla.org/MPL/2.0/. -->
<svg width="268" height="208" viewBox="0 0 268 208" fill="none" xmlns="http://www.w3.org/2000/svg">
<rect width="164" height="198" transform="matrix(-1 0 0 1 216 4)" fill="#F0F0F4"/>
<mask id="mask0" mask-type="alpha" maskUnits="userSpaceOnUse" x="52" y="4" width="164" height="198">
<rect width="164" height="198" transform="matrix(-1 0 0 1 216 4)" fill="#F0F0F4"/>
</mask>
<g mask="url(#mask0)">
<line y1="-0.25" x2="144" y2="-0.25" transform="matrix(-1 0 0 1 208 169.5)" stroke="#E0E0E6" stroke-width="0.5"/>
<circle r="14" transform="matrix(-1 0 0 1 189 194.5)" fill="#E0E0E6"/>
<rect width="147" height="39" transform="matrix(-1 0 0 1 208 127.5)" fill="#BFBFC9"/>
<g clip-path="url(#clip0)" filter="url(#filter0_d)">
<path d="M201.629 141.874C201.04 140.458 199.848 138.93 198.912 138.447C199.674 139.94 200.115 141.438 200.283 142.556C200.283 142.559 200.284 142.564 200.286 142.579C198.755 138.762 196.158 137.223 194.038 133.872C193.931 133.703 193.824 133.533 193.719 133.354C193.666 133.262 193.616 133.169 193.57 133.074C193.482 132.904 193.414 132.724 193.368 132.538C193.368 132.529 193.365 132.521 193.359 132.514C193.354 132.507 193.346 132.503 193.337 132.502C193.329 132.499 193.32 132.499 193.311 132.502C193.309 132.502 193.307 132.505 193.305 132.505C193.302 132.507 193.298 132.509 193.295 132.511C193.296 132.509 193.299 132.504 193.3 132.503C189.899 134.496 188.745 138.181 188.639 140.025C187.28 140.118 185.981 140.619 184.912 141.461C184.8 141.367 184.682 141.278 184.561 141.196C184.252 140.117 184.239 138.974 184.523 137.887C183.132 138.52 182.05 139.522 181.263 140.406H181.257C180.72 139.726 180.758 137.483 180.788 137.014C180.782 136.985 180.388 137.219 180.336 137.254C179.863 137.592 179.42 137.972 179.013 138.388C178.55 138.857 178.127 139.365 177.748 139.904C177.748 139.905 177.748 139.906 177.748 139.907C177.748 139.906 177.748 139.905 177.748 139.904C176.878 141.138 176.26 142.533 175.931 144.007C175.925 144.036 175.919 144.067 175.913 144.096C175.888 144.216 175.796 144.812 175.78 144.942C175.778 144.951 175.778 144.961 175.777 144.971C175.658 145.588 175.585 146.212 175.557 146.839C175.557 146.862 175.556 146.885 175.556 146.909C175.556 154.387 181.619 160.449 189.098 160.449C195.796 160.449 201.357 155.587 202.446 149.2C202.469 149.027 202.487 148.852 202.507 148.678C202.776 146.355 202.477 143.915 201.629 141.874ZM186.021 152.473C186.084 152.503 186.143 152.536 186.208 152.565C186.211 152.567 186.215 152.569 186.218 152.57C186.151 152.539 186.086 152.506 186.021 152.473V152.473ZM200.287 142.582L200.285 142.569C200.286 142.574 200.287 142.579 200.288 142.584L200.287 142.582Z" fill="url(#paint0_linear)"/>
<path d="M201.629 141.874C201.04 140.458 199.848 138.93 198.912 138.447C199.674 139.94 200.115 141.438 200.284 142.556C200.284 142.553 200.284 142.559 200.286 142.569C200.286 142.574 200.287 142.579 200.288 142.584C201.566 146.047 200.869 149.57 199.866 151.722C198.315 155.052 194.558 158.465 188.677 158.299C182.323 158.119 176.726 153.405 175.681 147.23C175.491 146.256 175.681 145.762 175.777 144.971C175.66 145.581 175.616 145.757 175.557 146.84C175.557 146.863 175.556 146.886 175.556 146.909C175.556 154.387 181.619 160.449 189.098 160.449C195.796 160.449 201.357 155.587 202.446 149.2C202.469 149.027 202.487 148.852 202.507 148.678C202.776 146.355 202.477 143.915 201.629 141.874Z" fill="url(#paint1_radial)"/>
<path d="M201.629 141.874C201.04 140.458 199.848 138.93 198.912 138.447C199.674 139.94 200.115 141.438 200.284 142.556C200.284 142.553 200.284 142.559 200.286 142.569C200.286 142.574 200.287 142.579 200.288 142.584C201.566 146.047 200.869 149.57 199.866 151.722C198.315 155.052 194.558 158.465 188.677 158.299C182.323 158.119 176.726 153.405 175.681 147.23C175.491 146.256 175.681 145.762 175.777 144.971C175.66 145.581 175.616 145.757 175.557 146.84C175.557 146.863 175.556 146.886 175.556 146.909C175.556 154.387 181.619 160.449 189.098 160.449C195.796 160.449 201.357 155.587 202.446 149.2C202.469 149.027 202.487 148.852 202.507 148.678C202.776 146.355 202.477 143.915 201.629 141.874Z" fill="url(#paint2_radial)"/>
<path d="M195.048 143.465C195.078 143.486 195.104 143.507 195.132 143.527C194.792 142.924 194.369 142.372 193.875 141.887C189.665 137.678 192.771 132.761 193.295 132.511C193.296 132.509 193.3 132.504 193.301 132.503C189.899 134.496 188.745 138.181 188.639 140.025C188.797 140.014 188.954 140.001 189.114 140.001C191.653 140.001 193.864 141.397 195.048 143.465V143.465Z" fill="url(#paint3_radial)"/>
<path d="M189.123 144.306C189.101 144.643 187.911 145.804 187.494 145.804C183.644 145.804 183.019 148.134 183.019 148.134C183.189 150.095 184.555 151.71 186.209 152.565C186.284 152.604 186.36 152.639 186.437 152.674C186.568 152.732 186.7 152.786 186.835 152.837C187.402 153.037 187.996 153.152 188.597 153.176C195.346 153.493 196.654 145.108 191.783 142.673C193.03 142.456 194.325 142.957 195.048 143.465C193.864 141.396 191.653 140.001 189.115 140.001C188.954 140.001 188.797 140.014 188.639 140.025C187.28 140.118 185.982 140.619 184.912 141.461C185.118 141.636 185.351 141.869 185.842 142.353C186.761 143.258 189.118 144.196 189.123 144.306V144.306Z" fill="url(#paint4_radial)"/>
<path d="M189.123 144.306C189.101 144.643 187.911 145.804 187.494 145.804C183.644 145.804 183.019 148.134 183.019 148.134C183.189 150.095 184.555 151.71 186.209 152.565C186.284 152.604 186.36 152.639 186.437 152.674C186.568 152.732 186.7 152.786 186.835 152.837C187.402 153.037 187.996 153.152 188.597 153.176C195.346 153.493 196.654 145.108 191.783 142.673C193.03 142.456 194.325 142.957 195.048 143.465C193.864 141.396 191.653 140.001 189.115 140.001C188.954 140.001 188.797 140.014 188.639 140.025C187.28 140.118 185.982 140.619 184.912 141.461C185.118 141.636 185.351 141.869 185.842 142.353C186.761 143.258 189.118 144.196 189.123 144.306V144.306Z" fill="url(#paint5_radial)"/>
<path d="M184.28 141.011C184.375 141.071 184.468 141.133 184.561 141.197C184.252 140.117 184.239 138.974 184.523 137.887C183.132 138.521 182.05 139.522 181.263 140.406C181.328 140.404 183.292 140.369 184.28 141.011V141.011Z" fill="url(#paint6_radial)"/>
<path d="M175.681 147.23C176.726 153.405 182.323 158.119 188.677 158.299C194.557 158.465 198.315 155.052 199.866 151.722C200.869 149.57 201.566 146.048 200.288 142.584L200.287 142.582L200.286 142.569C200.284 142.559 200.283 142.553 200.284 142.556C200.284 142.559 200.284 142.564 200.286 142.579C200.766 145.715 199.171 148.754 196.677 150.808L196.669 150.826C191.81 154.783 187.159 153.213 186.218 152.571C186.152 152.539 186.086 152.506 186.021 152.473C183.187 151.119 182.017 148.537 182.268 146.324C179.875 146.324 179.06 144.306 179.06 144.306C179.06 144.306 181.208 142.774 184.038 144.106C186.66 145.34 189.123 144.306 189.123 144.306C189.118 144.196 186.761 143.258 185.842 142.353C185.351 141.869 185.118 141.636 184.912 141.461C184.8 141.367 184.682 141.278 184.561 141.196C184.468 141.133 184.374 141.071 184.28 141.01C183.292 140.368 181.328 140.404 181.263 140.405H181.257C180.72 139.726 180.758 137.483 180.788 137.014C180.782 136.985 180.388 137.219 180.336 137.254C179.863 137.592 179.42 137.971 179.013 138.388C178.55 138.857 178.127 139.365 177.748 139.905C177.748 139.905 177.748 139.906 177.748 139.907C177.748 139.906 177.748 139.905 177.748 139.905C176.878 141.139 176.26 142.533 175.931 144.007C175.925 144.036 175.444 146.139 175.681 147.23V147.23Z" fill="url(#paint7_radial)"/>
<path d="M193.875 141.887C194.369 142.372 194.792 142.924 195.132 143.527C195.207 143.583 195.276 143.639 195.335 143.694C198.405 146.522 196.797 150.523 196.677 150.808C199.171 148.754 200.766 145.715 200.286 142.579C198.755 138.762 196.158 137.223 194.038 133.872C193.931 133.703 193.824 133.533 193.719 133.354C193.666 133.262 193.616 133.169 193.57 133.074C193.482 132.904 193.414 132.724 193.368 132.538C193.368 132.529 193.365 132.521 193.359 132.514C193.354 132.507 193.346 132.503 193.337 132.502C193.328 132.499 193.32 132.499 193.311 132.502C193.309 132.502 193.307 132.505 193.305 132.505C193.302 132.507 193.298 132.509 193.295 132.511C192.771 132.761 189.665 137.678 193.875 141.887V141.887Z" fill="url(#paint8_radial)"/>
<path d="M195.336 143.694C195.276 143.639 195.207 143.583 195.132 143.527C195.105 143.507 195.078 143.486 195.048 143.465C194.325 142.957 193.03 142.456 191.783 142.673C196.654 145.108 195.346 153.493 188.597 153.177C187.996 153.152 187.402 153.037 186.835 152.837C186.7 152.786 186.568 152.732 186.437 152.674C186.36 152.639 186.284 152.604 186.209 152.565C186.211 152.567 186.215 152.569 186.218 152.571C187.159 153.213 191.81 154.783 196.67 150.826L196.677 150.808C196.797 150.523 198.406 146.522 195.336 143.694V143.694Z" fill="url(#paint9_radial)"/>
<path d="M183.019 148.134C183.019 148.134 183.644 145.804 187.494 145.804C187.911 145.804 189.101 144.643 189.123 144.306C189.145 143.969 186.661 145.34 184.038 144.106C181.208 142.774 179.06 144.306 179.06 144.306C179.06 144.306 179.875 146.324 182.268 146.324C182.017 148.537 183.187 151.119 186.021 152.473C186.084 152.503 186.143 152.536 186.208 152.565C184.555 151.71 183.189 150.095 183.019 148.134V148.134Z" fill="url(#paint10_radial)"/>
<path d="M201.629 141.874C201.04 140.458 199.848 138.93 198.912 138.447C199.674 139.94 200.115 141.438 200.283 142.556C200.283 142.559 200.284 142.564 200.286 142.579C198.755 138.762 196.158 137.223 194.038 133.872C193.931 133.703 193.824 133.533 193.719 133.354C193.666 133.262 193.616 133.169 193.57 133.074C193.482 132.904 193.414 132.724 193.368 132.538C193.368 132.529 193.365 132.521 193.359 132.514C193.354 132.507 193.346 132.503 193.337 132.502C193.329 132.499 193.32 132.499 193.311 132.502C193.31 132.502 193.307 132.505 193.305 132.505C193.302 132.507 193.298 132.509 193.295 132.511C193.296 132.509 193.299 132.504 193.3 132.503C189.899 134.496 188.745 138.181 188.639 140.025C188.796 140.014 188.954 140.001 189.114 140.001C191.653 140.001 193.864 141.397 195.048 143.465C194.325 142.957 193.03 142.456 191.783 142.673C196.653 145.108 195.346 153.493 188.596 153.177C187.995 153.152 187.401 153.037 186.834 152.837C186.7 152.786 186.567 152.732 186.436 152.674C186.36 152.639 186.284 152.604 186.208 152.565C186.211 152.567 186.215 152.569 186.217 152.571C186.151 152.539 186.085 152.506 186.02 152.473C186.084 152.503 186.143 152.536 186.208 152.565C184.554 151.71 183.189 150.095 183.018 148.133C183.018 148.133 183.643 145.804 187.494 145.804C187.91 145.804 189.1 144.643 189.122 144.306C189.117 144.196 186.761 143.258 185.842 142.353C185.351 141.869 185.118 141.636 184.911 141.461C184.799 141.366 184.682 141.278 184.56 141.196C184.252 140.116 184.239 138.973 184.522 137.887C183.131 138.52 182.049 139.521 181.263 140.406H181.256C180.72 139.726 180.757 137.483 180.788 137.014C180.782 136.985 180.388 137.219 180.336 137.254C179.862 137.592 179.419 137.972 179.013 138.388C178.55 138.857 178.127 139.365 177.748 139.904C177.748 139.905 177.748 139.906 177.748 139.907C177.748 139.906 177.748 139.905 177.748 139.904C176.878 141.138 176.26 142.533 175.931 144.007C175.925 144.036 175.919 144.067 175.913 144.096C175.888 144.216 175.773 144.821 175.757 144.95C175.756 144.96 175.758 144.94 175.757 144.95C175.652 145.576 175.586 146.206 175.557 146.84C175.557 146.863 175.556 146.886 175.556 146.909C175.556 154.387 181.619 160.449 189.098 160.449C195.796 160.449 201.357 155.587 202.446 149.2C202.469 149.027 202.487 148.852 202.507 148.678C202.776 146.355 202.477 143.915 201.629 141.874ZM200.286 142.569C200.286 142.574 200.287 142.579 200.288 142.584L200.287 142.582L200.286 142.569V142.569Z" fill="url(#paint11_linear)"/>
</g>
<line y1="-0.25" x2="144" y2="-0.25" transform="matrix(-1 0 0 1 208 124.5)" stroke="#E0E0E6" stroke-width="0.5"/>
<line y1="-0.25" x2="144" y2="-0.25" transform="matrix(-1 0 0 1 208 75.5)" stroke="#E0E0E6" stroke-width="0.5"/>
<circle r="14" transform="matrix(-1 0 0 1 189 100.5)" fill="#E0E0E6"/>
<line y1="-0.25" x2="144" y2="-0.25" transform="matrix(-1 0 0 1 208 28.5)" stroke="#E0E0E6" stroke-width="0.5"/>
<circle r="14" transform="matrix(-1 0 0 1 189 53.5)" fill="#E0E0E6"/>
<circle r="14" transform="matrix(-1 0 0 1 189 6.5)" fill="#E0E0E6"/>
</g>
<rect width="164" height="38" transform="matrix(-1 0 0 1 216 4)" fill="#9F9FAD"/>
<path fill-rule="evenodd" clip-rule="evenodd" d="M198 16C198 15.4477 197.552 15 197 15C196.448 15 196 15.4477 196 16C196 17.6922 193.954 18.5398 192.757 17.3431C192.367 16.9526 191.734 16.9526 191.343 17.3431C190.953 17.7337 190.953 18.3668 191.343 18.7574C192.54 19.954 191.692 22 190 22C189.448 22 189 22.4477 189 23C189 23.5523 189.448 24 190 24C191.692 24 192.54 26.0461 191.343 27.2426C190.953 27.6332 190.953 28.2663 191.343 28.6568C191.734 29.0474 192.367 29.0474 192.757 28.6568C193.954 27.4602 196 28.3077 196 30C196 30.5523 196.448 31 197 31C197.552 31 198 30.5523 198 30C198 28.3077 200.046 27.4603 201.243 28.6569C201.633 29.0474 202.266 29.0474 202.657 28.6569C203.047 28.2663 203.047 27.6332 202.657 27.2426C201.46 26.0461 202.308 24 204 24C204.552 24 205 23.5523 205 23C205 22.4477 204.552 22 204 22C202.308 22 201.46 19.954 202.657 18.7573C203.047 18.3668 203.047 17.7337 202.657 17.3431C202.266 16.9526 201.633 16.9526 201.243 17.3431C200.046 18.5397 198 17.6923 198 16ZM198.414 21.5858C198.039 21.2107 197.53 21 197 21C196.47 21 195.961 21.2107 195.586 21.5858C195.211 21.9609 195 22.4696 195 23C195 23.5304 195.211 24.0391 195.586 24.4142C195.961 24.7893 196.47 25 197 25C197.53 25 198.039 24.7893 198.414 24.4142C198.789 24.0391 199 23.5304 199 23C199 22.4696 198.789 21.9609 198.414 21.5858ZM197 19C198.061 19 199.078 19.4214 199.828 20.1716C200.579 20.9217 201 21.9391 201 23C201 24.0609 200.579 25.0783 199.828 25.8284C199.078 26.5786 198.061 27 197 27C195.939 27 194.922 26.5786 194.172 25.8284C193.421 25.0783 193 24.0609 193 23C193 21.9391 193.421 20.9217 194.172 20.1716C194.922 19.4214 195.939 19 197 19Z" fill="#80808F"/>
<rect x="-0.25" y="0.25" width="6.5" height="0.5" transform="matrix(-1 0 0 1 109.5 15)" fill="#0A204D" stroke="#80808F" stroke-width="0.5"/>
<rect x="-0.353553" width="8.5" height="0.5" transform="matrix(-0.707107 -0.707107 -0.707107 0.707107 67.568 17.9424)" fill="#0A204D" stroke="#80808F" stroke-width="0.5"/>
<rect x="2.98023e-08" y="0.353553" width="8.5" height="0.5" transform="matrix(-0.707107 0.707107 0.707107 0.707107 67.2145 11.932)" fill="#0A204D" stroke="#80808F" stroke-width="0.5"/>
<rect x="-0.5" y="0.5" width="10" height="7" transform="matrix(-1 0 0 1 89 11)" stroke="#80808F"/>
<g filter="url(#filter1_d)">
<path fill-rule="evenodd" clip-rule="evenodd" d="M162.841 154.524L167.487 152.872L155 146.005L158.64 159.786L161.366 155.676L164.63 159.855L166.104 158.703L162.841 154.524V154.524Z" fill="#363B3E"/>
<path d="M167.654 153.343L168.703 152.97L167.727 152.434L155.241 145.567L154.219 145.005L154.517 146.133L158.157 159.914L158.441 160.991L159.057 160.062L161.399 156.531L164.236 160.163L164.544 160.557L164.938 160.249L166.412 159.097L166.806 158.789L166.498 158.395L163.662 154.763L167.654 153.343Z" stroke="white" stroke-opacity="0.8"/>
</g>
<defs>
<filter id="filter0_d" x="94.6542" y="52.5" width="188.85" height="188.85" filterUnits="userSpaceOnUse" color-interpolation-filters="sRGB">
<feFlood flood-opacity="0" result="BackgroundImageFix"/>
<feColorMatrix in="SourceAlpha" type="matrix" values="0 0 0 0 0 0 0 0 0 0 0 0 0 0 0 0 0 0 127 0"/>
<feOffset/>
<feGaussianBlur stdDeviation="40"/>
<feColorMatrix type="matrix" values="0 0 0 0 1 0 0 0 0 1 0 0 0 0 1 0 0 0 1 0"/>
<feBlend mode="normal" in2="BackgroundImageFix" result="effect1_dropShadow"/>
<feBlend mode="normal" in="SourceGraphic" in2="effect1_dropShadow" result="shape"/>
</filter>
<filter id="filter1_d" x="150.437" y="142.004" width="22.4818" height="24.1908" filterUnits="userSpaceOnUse" color-interpolation-filters="sRGB">
<feFlood flood-opacity="0" result="BackgroundImageFix"/>
<feColorMatrix in="SourceAlpha" type="matrix" values="0 0 0 0 0 0 0 0 0 0 0 0 0 0 0 0 0 0 127 0"/>
<feOffset dy="1"/>
<feGaussianBlur stdDeviation="1.5"/>
<feColorMatrix type="matrix" values="0 0 0 0 0 0 0 0 0 0 0 0 0 0 0 0 0 0 0.25 0"/>
<feBlend mode="normal" in2="BackgroundImageFix" result="effect1_dropShadow"/>
<feBlend mode="normal" in="SourceGraphic" in2="effect1_dropShadow" result="shape"/>
</filter>
<linearGradient id="paint0_linear" x1="199.155" y1="136.832" x2="177.41" y2="157.807" gradientUnits="userSpaceOnUse">
<stop offset="0.05" stop-color="#FFF44F"/>
<stop offset="0.37" stop-color="#FF980E"/>
<stop offset="0.53" stop-color="#FF3647"/>
<stop offset="0.7" stop-color="#E31587"/>
</linearGradient>
<radialGradient id="paint1_radial" cx="0" cy="0" r="1" gradientUnits="userSpaceOnUse" gradientTransform="translate(194.297 135.616) scale(27.6965 28.163)">
<stop offset="0.13" stop-color="#FFBD4F"/>
<stop offset="0.28" stop-color="#FF980E"/>
<stop offset="0.47" stop-color="#FF3750"/>
<stop offset="0.78" stop-color="#EB0878"/>
<stop offset="0.86" stop-color="#E50080"/>
</radialGradient>
<radialGradient id="paint2_radial" cx="0" cy="0" r="1" gradientUnits="userSpaceOnUse" gradientTransform="translate(186.266 147.247) scale(28.389 28.163)">
<stop offset="0.3" stop-color="#960E18"/>
<stop offset="0.35" stop-color="#B11927" stop-opacity="0.74"/>
<stop offset="0.43" stop-color="#DB293D" stop-opacity="0.34"/>
<stop offset="0.5" stop-color="#F5334B" stop-opacity="0.09"/>
<stop offset="0.53" stop-color="#FF3750" stop-opacity="0"/>
</radialGradient>
<radialGradient id="paint3_radial" cx="0" cy="0" r="1" gradientUnits="userSpaceOnUse" gradientTransform="translate(191.756 131.18) scale(9.09074 15.4338)">
<stop offset="0.13" stop-color="#FFF44F"/>
<stop offset="0.53" stop-color="#FF980E"/>
</radialGradient>
<radialGradient id="paint4_radial" cx="0" cy="0" r="1" gradientUnits="userSpaceOnUse" gradientTransform="translate(185.756 154.518) scale(12.0295 13.1844)">
<stop offset="0.35" stop-color="#3A8EE6"/>
<stop offset="0.67" stop-color="#9059FF"/>
<stop offset="1" stop-color="#C139E6"/>
</radialGradient>
<radialGradient id="paint5_radial" cx="0" cy="0" r="1" gradientUnits="userSpaceOnUse" gradientTransform="translate(187.812 144.352) scale(6.38764 7.7788)">
<stop offset="0.21" stop-color="#9059FF" stop-opacity="0"/>
<stop offset="0.97" stop-color="#6E008B" stop-opacity="0.6"/>
</radialGradient>
<radialGradient id="paint6_radial" cx="0" cy="0" r="1" gradientUnits="userSpaceOnUse" gradientTransform="translate(188.188 134.578) scale(9.56349 9.59749)">
<stop offset="0.1" stop-color="#FFE226"/>
<stop offset="0.79" stop-color="#FF7139"/>
</radialGradient>
<radialGradient id="paint7_radial" cx="0" cy="0" r="1" gradientUnits="userSpaceOnUse" gradientTransform="translate(196.922 128.282) scale(45.658 38.3273)">
<stop offset="0.11" stop-color="#FFF44F"/>
<stop offset="0.46" stop-color="#FF980E"/>
<stop offset="0.72" stop-color="#FF3647"/>
<stop offset="0.9" stop-color="#E31587"/>
</radialGradient>
<radialGradient id="paint8_radial" cx="0" cy="0" r="1" gradientUnits="userSpaceOnUse" gradientTransform="translate(179.966 140.939) rotate(77.3945) scale(14.4857 62.6632)">
<stop stop-color="#FFF44F"/>
<stop offset="0.3" stop-color="#FF980E"/>
<stop offset="0.57" stop-color="#FF3647"/>
<stop offset="0.74" stop-color="#E31587"/>
</radialGradient>
<radialGradient id="paint9_radial" cx="0" cy="0" r="1" gradientUnits="userSpaceOnUse" gradientTransform="translate(188.287 138.03) scale(26.2144 25.7538)">
<stop offset="0.14" stop-color="#FFF44F"/>
<stop offset="0.48" stop-color="#FF980E"/>
<stop offset="0.66" stop-color="#FF3647"/>
<stop offset="0.9" stop-color="#E31587"/>
</radialGradient>
<radialGradient id="paint10_radial" cx="0" cy="0" r="1" gradientUnits="userSpaceOnUse" gradientTransform="translate(195.091 139.536) scale(31.5089 28.1884)">
<stop offset="0.09" stop-color="#FFF44F"/>
<stop offset="0.63" stop-color="#FF980E"/>
</radialGradient>
<linearGradient id="paint11_linear" x1="197.194" y1="136.413" x2="179.806" y2="155.411" gradientUnits="userSpaceOnUse">
<stop offset="0.17" stop-color="#FFF44F" stop-opacity="0.8"/>
<stop offset="0.6" stop-color="#FFF44F" stop-opacity="0"/>
</linearGradient>
<clipPath id="clip0">
<rect width="28.8505" height="28.8505" fill="white" transform="translate(174.654 132.5)"/>
</clipPath>
</defs>
</svg>
