<!-- This Source Code Form is subject to the terms of the Mozilla Public
   - License, v. 2.0. If a copy of the MPL was not distributed with this
   - file, You can obtain one at http://mozilla.org/MPL/2.0/. -->
<svg width="516" height="160" viewBox="0 0 516 160" fill="none" xmlns="http://www.w3.org/2000/svg">
<g clip-path="url(#clip0)">
<rect width="516.129" height="64.1475" transform="matrix(-1 0 0 1 516.129 95.8525)" fill="#F0F0F4"/>
<path fill-rule="evenodd" clip-rule="evenodd" d="M130.507 0H369.401V95.8525H130.507V0ZM218.249 160V95.8526H282.396V160H218.249Z" fill="#9F9FAD"/>
<g clip-path="url(#clip1)" filter="url(#filter0_d)">
<path d="M265.349 122.098C264.627 120.361 263.164 118.486 262.016 117.894C262.95 119.726 263.491 121.564 263.698 122.936C263.698 122.938 263.699 122.945 263.701 122.963C261.823 118.281 258.638 116.393 256.037 112.283C255.905 112.075 255.774 111.866 255.645 111.647C255.58 111.534 255.519 111.42 255.463 111.303C255.354 111.094 255.271 110.874 255.214 110.646C255.215 110.635 255.211 110.624 255.204 110.616C255.197 110.608 255.187 110.603 255.176 110.601C255.166 110.598 255.155 110.598 255.145 110.601C255.143 110.602 255.139 110.605 255.137 110.606C255.133 110.607 255.129 110.611 255.125 110.613C255.127 110.61 255.131 110.605 255.132 110.603C250.959 113.047 249.543 117.568 249.413 119.83C247.746 119.945 246.153 120.559 244.841 121.592C244.703 121.476 244.56 121.368 244.411 121.267C244.032 119.943 244.016 118.541 244.364 117.207C242.657 117.984 241.33 119.213 240.365 120.297H240.357C239.699 119.463 239.745 116.712 239.783 116.137C239.775 116.102 239.292 116.388 239.228 116.431C238.647 116.846 238.104 117.311 237.605 117.822C237.037 118.398 236.518 119.02 236.054 119.682C236.054 119.683 236.053 119.684 236.053 119.685C236.053 119.684 236.053 119.683 236.054 119.682C234.985 121.196 234.228 122.907 233.824 124.715C233.817 124.751 233.81 124.788 233.802 124.825C233.771 124.971 233.658 125.703 233.639 125.861C233.637 125.874 233.636 125.885 233.635 125.898C233.489 126.654 233.399 127.42 233.365 128.19C233.365 128.218 233.364 128.246 233.364 128.274C233.364 137.448 240.802 144.885 249.976 144.885C258.193 144.885 265.015 138.92 266.351 131.085C266.379 130.873 266.401 130.659 266.426 130.445C266.756 127.596 266.389 124.602 265.349 122.098ZM246.201 135.1C246.279 135.137 246.352 135.178 246.432 135.213C246.435 135.216 246.44 135.218 246.443 135.22C246.362 135.181 246.281 135.141 246.201 135.1V135.1ZM263.703 122.967L263.7 122.951C263.701 122.957 263.702 122.963 263.703 122.969L263.703 122.967Z" fill="url(#paint0_linear)"/>
<path d="M265.349 122.098C264.627 120.362 263.164 118.487 262.016 117.894C262.951 119.726 263.491 121.564 263.698 122.936C263.698 122.932 263.699 122.939 263.701 122.951C263.701 122.957 263.703 122.963 263.703 122.969C265.271 127.218 264.417 131.539 263.186 134.18C261.283 138.265 256.674 142.452 249.46 142.247C241.666 142.027 234.799 136.244 233.518 128.669C233.284 127.475 233.518 126.868 233.635 125.898C233.492 126.646 233.438 126.862 233.366 128.19C233.366 128.219 233.364 128.247 233.364 128.275C233.364 137.448 240.802 144.885 249.976 144.885C258.193 144.885 265.015 138.92 266.351 131.086C266.379 130.873 266.401 130.659 266.426 130.445C266.756 127.596 266.389 124.602 265.349 122.098Z" fill="url(#paint1_radial)"/>
<path d="M265.349 122.098C264.627 120.362 263.164 118.487 262.016 117.894C262.951 119.726 263.491 121.564 263.698 122.936C263.698 122.932 263.699 122.939 263.701 122.951C263.701 122.957 263.703 122.963 263.703 122.969C265.271 127.218 264.417 131.539 263.186 134.18C261.283 138.265 256.674 142.452 249.46 142.247C241.666 142.027 234.799 136.244 233.518 128.669C233.284 127.475 233.518 126.868 233.635 125.898C233.492 126.646 233.438 126.862 233.366 128.19C233.366 128.219 233.364 128.247 233.364 128.275C233.364 137.448 240.802 144.885 249.976 144.885C258.193 144.885 265.015 138.92 266.351 131.086C266.379 130.873 266.401 130.659 266.426 130.445C266.756 127.596 266.389 124.602 265.349 122.098Z" fill="url(#paint2_radial)"/>
<path d="M257.276 124.051C257.312 124.076 257.345 124.101 257.379 124.127C256.962 123.387 256.443 122.709 255.837 122.114C250.673 116.951 254.483 110.919 255.125 110.612C255.127 110.61 255.131 110.604 255.132 110.603C250.959 113.047 249.543 117.568 249.413 119.83C249.607 119.817 249.8 119.8 249.997 119.8C253.111 119.8 255.823 121.513 257.276 124.051V124.051Z" fill="url(#paint3_radial)"/>
<path d="M250.007 125.082C249.98 125.495 248.52 126.92 248.009 126.92C243.286 126.92 242.519 129.777 242.519 129.777C242.728 132.183 244.403 134.165 246.432 135.213C246.525 135.261 246.618 135.304 246.712 135.347C246.873 135.418 247.035 135.485 247.2 135.547C247.896 135.793 248.624 135.933 249.361 135.964C257.641 136.352 259.245 126.065 253.27 123.078C254.8 122.812 256.389 123.427 257.276 124.051C255.823 121.513 253.111 119.801 249.997 119.801C249.8 119.801 249.607 119.817 249.413 119.83C247.747 119.945 246.154 120.559 244.841 121.592C245.095 121.806 245.38 122.093 245.983 122.686C247.11 123.797 250.001 124.947 250.007 125.082V125.082Z" fill="url(#paint4_radial)"/>
<path d="M250.007 125.082C249.98 125.495 248.52 126.92 248.009 126.92C243.286 126.92 242.519 129.777 242.519 129.777C242.728 132.183 244.403 134.165 246.432 135.213C246.525 135.261 246.618 135.304 246.712 135.347C246.873 135.418 247.035 135.485 247.2 135.547C247.896 135.793 248.624 135.933 249.361 135.964C257.641 136.352 259.245 126.065 253.27 123.078C254.8 122.812 256.389 123.427 257.276 124.051C255.823 121.513 253.111 119.801 249.997 119.801C249.8 119.801 249.607 119.817 249.413 119.83C247.747 119.945 246.154 120.559 244.841 121.592C245.095 121.806 245.38 122.093 245.983 122.686C247.11 123.797 250.001 124.947 250.007 125.082V125.082Z" fill="url(#paint5_radial)"/>
<path d="M244.066 121.039C244.182 121.114 244.297 121.19 244.411 121.268C244.032 119.943 244.016 118.541 244.364 117.208C242.658 117.985 241.33 119.213 240.365 120.298C240.445 120.295 242.855 120.252 244.066 121.039V121.039Z" fill="url(#paint6_radial)"/>
<path d="M233.518 128.669C234.799 136.243 241.666 142.027 249.46 142.247C256.674 142.452 261.283 138.264 263.186 134.179C264.417 131.539 265.271 127.219 263.703 122.969L263.703 122.967L263.701 122.951C263.699 122.939 263.698 122.932 263.698 122.936C263.698 122.938 263.699 122.945 263.701 122.963C264.291 126.811 262.333 130.538 259.274 133.058L259.265 133.08C253.303 137.934 247.598 136.009 246.443 135.221C246.362 135.182 246.281 135.141 246.201 135.1C242.726 133.439 241.29 130.273 241.598 127.557C238.663 127.557 237.662 125.082 237.662 125.082C237.662 125.082 240.297 123.203 243.77 124.837C246.986 126.35 250.007 125.082 250.007 125.082C250.001 124.947 247.11 123.797 245.982 122.686C245.38 122.093 245.094 121.807 244.841 121.592C244.703 121.476 244.56 121.368 244.411 121.267C244.297 121.19 244.182 121.114 244.066 121.039C242.855 120.252 240.445 120.295 240.365 120.297H240.357C239.699 119.463 239.745 116.711 239.783 116.137C239.775 116.101 239.292 116.388 239.228 116.431C238.647 116.846 238.104 117.311 237.605 117.822C237.037 118.398 236.518 119.02 236.054 119.683C236.054 119.683 236.053 119.684 236.053 119.685C236.053 119.684 236.053 119.683 236.054 119.683C234.985 121.196 234.228 122.907 233.825 124.715C233.817 124.751 233.227 127.331 233.518 128.669V128.669Z" fill="url(#paint7_radial)"/>
<path d="M255.837 122.114C256.443 122.709 256.962 123.387 257.379 124.127C257.47 124.195 257.556 124.264 257.628 124.331C261.394 127.801 259.421 132.709 259.274 133.058C262.333 130.538 264.291 126.811 263.701 122.963C261.823 118.281 258.638 116.393 256.037 112.283C255.905 112.075 255.774 111.866 255.645 111.647C255.58 111.534 255.519 111.42 255.463 111.303C255.354 111.094 255.271 110.874 255.214 110.646C255.215 110.635 255.211 110.624 255.204 110.616C255.197 110.608 255.187 110.603 255.176 110.601C255.166 110.598 255.155 110.598 255.145 110.601C255.143 110.602 255.139 110.605 255.137 110.606C255.133 110.607 255.129 110.611 255.125 110.613C254.483 110.919 250.673 116.951 255.837 122.114V122.114Z" fill="url(#paint8_radial)"/>
<path d="M257.628 124.331C257.556 124.264 257.47 124.195 257.379 124.127C257.345 124.101 257.312 124.076 257.276 124.051C256.389 123.428 254.8 122.812 253.27 123.078C259.245 126.065 257.641 136.352 249.361 135.964C248.624 135.934 247.895 135.793 247.2 135.547C247.035 135.485 246.873 135.418 246.712 135.347C246.618 135.305 246.524 135.261 246.432 135.213C246.435 135.216 246.44 135.218 246.443 135.22C247.598 136.008 253.303 137.934 259.265 133.08L259.274 133.058C259.421 132.709 261.394 127.801 257.628 124.331V124.331Z" fill="url(#paint9_radial)"/>
<path d="M242.519 129.777C242.519 129.777 243.286 126.92 248.009 126.92C248.52 126.92 249.98 125.495 250.007 125.082C250.034 124.668 246.986 126.35 243.77 124.837C240.297 123.203 237.662 125.082 237.662 125.082C237.662 125.082 238.663 127.557 241.598 127.557C241.29 130.273 242.726 133.439 246.201 135.1C246.279 135.137 246.352 135.178 246.432 135.213C244.403 134.165 242.728 132.183 242.519 129.777V129.777Z" fill="url(#paint10_radial)"/>
<path d="M265.349 122.098C264.627 120.361 263.164 118.486 262.016 117.894C262.95 119.726 263.491 121.564 263.698 122.936C263.698 122.938 263.699 122.945 263.701 122.963C261.823 118.281 258.638 116.393 256.037 112.283C255.905 112.075 255.774 111.866 255.645 111.647C255.58 111.534 255.519 111.42 255.462 111.303C255.354 111.094 255.271 110.874 255.214 110.646C255.215 110.635 255.211 110.624 255.204 110.616C255.197 110.608 255.187 110.603 255.176 110.601C255.166 110.598 255.155 110.598 255.145 110.601C255.143 110.602 255.139 110.605 255.137 110.606C255.133 110.607 255.129 110.611 255.125 110.613C255.127 110.61 255.13 110.605 255.132 110.603C250.959 113.047 249.543 117.568 249.413 119.83C249.606 119.817 249.799 119.801 249.996 119.801C253.111 119.801 255.823 121.513 257.275 124.051C256.388 123.428 254.8 122.812 253.27 123.078C259.245 126.065 257.641 136.352 249.361 135.964C248.624 135.934 247.895 135.793 247.199 135.547C247.035 135.485 246.872 135.418 246.711 135.347C246.618 135.305 246.524 135.261 246.432 135.214C246.435 135.216 246.439 135.218 246.443 135.22C246.362 135.181 246.281 135.141 246.201 135.1C246.279 135.137 246.352 135.178 246.431 135.213C244.403 134.165 242.727 132.183 242.518 129.777C242.518 129.777 243.285 126.92 248.009 126.92C248.519 126.92 249.979 125.495 250.006 125.082C250 124.947 247.109 123.797 245.982 122.686C245.38 122.093 245.094 121.807 244.84 121.592C244.703 121.476 244.559 121.367 244.41 121.267C244.031 119.942 244.015 118.54 244.363 117.207C242.657 117.984 241.33 119.213 240.365 120.297H240.357C239.698 119.463 239.745 116.711 239.782 116.137C239.774 116.101 239.291 116.388 239.228 116.431C238.647 116.846 238.103 117.311 237.604 117.822C237.037 118.398 236.518 119.02 236.054 119.682C236.054 119.683 236.053 119.684 236.053 119.685C236.053 119.684 236.053 119.683 236.054 119.682C234.985 121.196 234.228 122.907 233.824 124.715C233.817 124.751 233.81 124.788 233.802 124.825C233.771 124.971 233.63 125.713 233.611 125.872C233.609 125.885 233.612 125.86 233.611 125.872C233.482 126.639 233.401 127.413 233.366 128.19C233.366 128.218 233.364 128.246 233.364 128.275C233.364 137.448 240.802 144.885 249.976 144.885C258.193 144.885 265.015 138.92 266.35 131.085C266.379 130.873 266.401 130.659 266.426 130.445C266.756 127.596 266.389 124.602 265.349 122.098ZM263.701 122.951C263.701 122.957 263.702 122.963 263.703 122.969L263.703 122.967L263.701 122.951V122.951Z" fill="url(#paint11_linear)"/>
</g>
<circle r="16.9585" transform="matrix(-1 0 0 1 321.475 128.295)" fill="#E0E0E6"/>
<circle r="16.9585" transform="matrix(-1 0 0 1 392.258 128.295)" fill="#E0E0E6"/>
<circle r="16.9585" transform="matrix(-1 0 0 1 463.041 128.295)" fill="#E0E0E6"/>
<circle r="16.9585" transform="matrix(-1 0 0 1 178.433 128.295)" fill="#E0E0E6"/>
<line x1="2" y1="-2" x2="19.2132" y2="-2" transform="matrix(-0.707107 -0.707107 -0.707107 0.707107 346.266 77.3762)" stroke="#80808F" stroke-width="4" stroke-linecap="round" stroke-linejoin="round"/>
<line x1="2" y1="-2" x2="19.2132" y2="-2" transform="matrix(0.707107 -0.707107 -0.707107 -0.707107 331.266 74.6494)" stroke="#80808F" stroke-width="4" stroke-linecap="round" stroke-linejoin="round"/>
<rect width="68.5714" height="16.2212" transform="matrix(-1 0 0 1 319.69 60.4609)" fill="#AFAFBA"/>
<rect width="49.4009" height="16.2212" transform="matrix(-1 0 0 1 245.22 60.4609)" fill="#AFAFBA"/>
<path d="M328.719 31.2646L334.836 31.2646L334.836 35.5245C334.837 35.8728 334.975 36.2069 335.221 36.4532C335.468 36.6995 335.802 36.8379 336.15 36.8379C336.912 36.8401 337.666 36.6912 338.37 36.3997C339.074 36.1083 339.713 35.6801 340.25 35.1399L340.41 34.9802C341.005 34.3858 341.811 34.0519 342.652 34.0519C343.493 34.0519 344.3 34.3858 344.894 34.9802L345.439 35.5245C345.623 35.7081 345.857 35.8332 346.111 35.8838C346.366 35.9345 346.63 35.9085 346.87 35.809C347.11 35.7096 347.315 35.5413 347.46 35.3253C347.604 35.1093 347.681 34.8554 347.681 34.5956L347.681 25.3067C347.681 25.047 347.604 24.793 347.46 24.577C347.315 24.3611 347.11 24.1927 346.87 24.0933C346.63 23.9939 346.366 23.9678 346.111 24.0185C345.857 24.0691 345.623 24.1942 345.439 24.3778L344.894 24.9222C344.3 25.5166 343.493 25.8504 342.652 25.8504C341.811 25.8504 341.005 25.5166 340.41 24.9222L340.253 24.7652C339.724 24.1916 339.074 23.7419 338.351 23.4483C337.628 23.1546 336.849 23.0241 336.07 23.0663C335.736 23.0867 335.422 23.2337 335.193 23.4775C334.964 23.7212 334.836 24.0432 334.836 24.3778L334.836 28.6377L328.719 28.6377C328.374 28.6437 328.046 28.7847 327.805 29.0304C327.563 29.2761 327.428 29.6067 327.428 29.9512C327.428 30.2956 327.563 30.6263 327.805 30.8719C328.046 31.1176 328.374 31.2586 328.719 31.2646ZM337.464 25.9319C337.811 26.1093 338.125 26.3428 338.395 26.623L338.552 26.7799C339.089 27.32 339.728 27.7482 340.432 28.0399C341.135 28.3315 341.89 28.4807 342.651 28.4789C343.48 28.4801 344.299 28.3037 345.054 27.9615L345.053 31.9418C344.3 31.5991 343.481 31.4223 342.653 31.4235C341.891 31.4213 341.136 31.5703 340.432 31.8619C339.728 32.1536 339.089 32.582 338.552 33.1224L338.392 33.2822C338.124 33.5519 337.809 33.771 337.463 33.9287L337.464 25.9319Z" fill="#321C64"/>
<rect width="68.5714" height="16.2212" transform="matrix(-1 0 0 1 319.69 22.1199)" fill="#CFCFD8"/>
<rect width="19.9078" height="16.2212" transform="matrix(-1 0 0 1 246.695 22.1199)" fill="#CFCFD8"/>
<rect width="44.2396" height="16.2212" transform="matrix(-1 0 0 1 222.363 22.1199)" fill="#CFCFD8"/>
</g>
<defs>
<filter id="filter0_d" x="152.258" y="30.5991" width="195.392" height="195.392" filterUnits="userSpaceOnUse" color-interpolation-filters="sRGB">
<feFlood flood-opacity="0" result="BackgroundImageFix"/>
<feColorMatrix in="SourceAlpha" type="matrix" values="0 0 0 0 0 0 0 0 0 0 0 0 0 0 0 0 0 0 127 0"/>
<feOffset/>
<feGaussianBlur stdDeviation="40"/>
<feColorMatrix type="matrix" values="0 0 0 0 1 0 0 0 0 1 0 0 0 0 1 0 0 0 1 0"/>
<feBlend mode="normal" in2="BackgroundImageFix" result="effect1_dropShadow"/>
<feBlend mode="normal" in="SourceGraphic" in2="effect1_dropShadow" result="shape"/>
</filter>
<linearGradient id="paint0_linear" x1="262.313" y1="115.913" x2="235.639" y2="141.645" gradientUnits="userSpaceOnUse">
<stop offset="0.05" stop-color="#FFF44F"/>
<stop offset="0.37" stop-color="#FF980E"/>
<stop offset="0.53" stop-color="#FF3647"/>
<stop offset="0.7" stop-color="#E31587"/>
</linearGradient>
<radialGradient id="paint1_radial" cx="0" cy="0" r="1" gradientUnits="userSpaceOnUse" gradientTransform="translate(256.354 114.421) scale(33.9762 34.5484)">
<stop offset="0.13" stop-color="#FFBD4F"/>
<stop offset="0.28" stop-color="#FF980E"/>
<stop offset="0.47" stop-color="#FF3750"/>
<stop offset="0.78" stop-color="#EB0878"/>
<stop offset="0.86" stop-color="#E50080"/>
</radialGradient>
<radialGradient id="paint2_radial" cx="0" cy="0" r="1" gradientUnits="userSpaceOnUse" gradientTransform="translate(246.503 128.69) scale(34.8256 34.5484)">
<stop offset="0.3" stop-color="#960E18"/>
<stop offset="0.35" stop-color="#B11927" stop-opacity="0.74"/>
<stop offset="0.43" stop-color="#DB293D" stop-opacity="0.34"/>
<stop offset="0.5" stop-color="#F5334B" stop-opacity="0.09"/>
<stop offset="0.53" stop-color="#FF3750" stop-opacity="0"/>
</radialGradient>
<radialGradient id="paint3_radial" cx="0" cy="0" r="1" gradientUnits="userSpaceOnUse" gradientTransform="translate(253.237 108.98) scale(11.1519 18.9331)">
<stop offset="0.13" stop-color="#FFF44F"/>
<stop offset="0.53" stop-color="#FF980E"/>
</radialGradient>
<radialGradient id="paint4_radial" cx="0" cy="0" r="1" gradientUnits="userSpaceOnUse" gradientTransform="translate(245.877 137.609) scale(14.7569 16.1737)">
<stop offset="0.35" stop-color="#3A8EE6"/>
<stop offset="0.67" stop-color="#9059FF"/>
<stop offset="1" stop-color="#C139E6"/>
</radialGradient>
<radialGradient id="paint5_radial" cx="0" cy="0" r="1" gradientUnits="userSpaceOnUse" gradientTransform="translate(248.399 125.138) scale(7.83591 9.54248)">
<stop offset="0.21" stop-color="#9059FF" stop-opacity="0"/>
<stop offset="0.97" stop-color="#6E008B" stop-opacity="0.6"/>
</radialGradient>
<radialGradient id="paint6_radial" cx="0" cy="0" r="1" gradientUnits="userSpaceOnUse" gradientTransform="translate(248.861 113.148) scale(11.7318 11.7735)">
<stop offset="0.1" stop-color="#FFE226"/>
<stop offset="0.79" stop-color="#FF7139"/>
</radialGradient>
<radialGradient id="paint7_radial" cx="0" cy="0" r="1" gradientUnits="userSpaceOnUse" gradientTransform="translate(259.575 105.424) scale(56.01 47.0173)">
<stop offset="0.11" stop-color="#FFF44F"/>
<stop offset="0.46" stop-color="#FF980E"/>
<stop offset="0.72" stop-color="#FF3647"/>
<stop offset="0.9" stop-color="#E31587"/>
</radialGradient>
<radialGradient id="paint8_radial" cx="0" cy="0" r="1" gradientUnits="userSpaceOnUse" gradientTransform="translate(238.774 120.951) rotate(77.3945) scale(17.77 76.8708)">
<stop stop-color="#FFF44F"/>
<stop offset="0.3" stop-color="#FF980E"/>
<stop offset="0.57" stop-color="#FF3647"/>
<stop offset="0.74" stop-color="#E31587"/>
</radialGradient>
<radialGradient id="paint9_radial" cx="0" cy="0" r="1" gradientUnits="userSpaceOnUse" gradientTransform="translate(248.981 117.383) scale(32.158 31.5929)">
<stop offset="0.14" stop-color="#FFF44F"/>
<stop offset="0.48" stop-color="#FF980E"/>
<stop offset="0.66" stop-color="#FF3647"/>
<stop offset="0.9" stop-color="#E31587"/>
</radialGradient>
<radialGradient id="paint10_radial" cx="0" cy="0" r="1" gradientUnits="userSpaceOnUse" gradientTransform="translate(257.328 119.23) scale(38.6529 34.5795)">
<stop offset="0.09" stop-color="#FFF44F"/>
<stop offset="0.63" stop-color="#FF980E"/>
</radialGradient>
<linearGradient id="paint11_linear" x1="259.908" y1="115.399" x2="238.578" y2="138.705" gradientUnits="userSpaceOnUse">
<stop offset="0.17" stop-color="#FFF44F" stop-opacity="0.8"/>
<stop offset="0.6" stop-color="#FFF44F" stop-opacity="0"/>
</linearGradient>
<clipPath id="clip0">
<rect width="516" height="160" fill="white"/>
</clipPath>
<clipPath id="clip1">
<rect width="35.3917" height="35.3917" fill="white" transform="translate(232.258 110.599)"/>
</clipPath>
</defs>
</svg>
