<!-- This Source Code Form is subject to the terms of the Mozilla Public
   - License, v. 2.0. If a copy of the MPL was not distributed with this
   - file, You can obtain one at http://mozilla.org/MPL/2.0/. -->
<svg width="516" height="160" viewBox="0 0 516 160" fill="none" xmlns="http://www.w3.org/2000/svg">
<g clip-path="url(#clip0)">
<rect y="95.8525" width="516.129" height="64.1475" fill="#F0F0F4"/>
<path fill-rule="evenodd" clip-rule="evenodd" d="M385.622 0H146.728V95.8525H385.622V0ZM297.88 160V95.8526H233.733V160H297.88Z" fill="#9F9FAD"/>
<g clip-path="url(#clip1)" filter="url(#filter0_d)">
<path d="M281.57 122.098C280.848 120.361 279.386 118.486 278.237 117.894C279.172 119.726 279.713 121.564 279.92 122.936C279.92 122.938 279.921 122.945 279.923 122.963C278.044 118.281 274.859 116.393 272.258 112.283C272.127 112.075 271.995 111.866 271.867 111.647C271.802 111.534 271.741 111.42 271.684 111.303C271.576 111.094 271.493 110.874 271.436 110.646C271.436 110.635 271.432 110.624 271.425 110.616C271.418 110.608 271.409 110.603 271.398 110.601C271.388 110.598 271.377 110.598 271.367 110.601C271.364 110.602 271.361 110.605 271.358 110.606C271.355 110.607 271.35 110.611 271.346 110.613C271.348 110.61 271.352 110.605 271.353 110.603C267.18 113.047 265.764 117.568 265.634 119.83C263.968 119.945 262.375 120.559 261.062 121.592C260.925 121.476 260.781 121.368 260.632 121.267C260.253 119.943 260.237 118.541 260.585 117.207C258.879 117.984 257.552 119.213 256.587 120.297H256.579C255.92 119.463 255.967 116.712 256.004 116.137C255.996 116.102 255.513 116.388 255.45 116.431C254.869 116.846 254.325 117.311 253.826 117.822C253.258 118.398 252.739 119.02 252.275 119.682C252.275 119.683 252.275 119.684 252.274 119.685C252.274 119.684 252.275 119.683 252.275 119.682C251.207 121.196 250.449 122.907 250.046 124.715C250.038 124.751 250.031 124.788 250.024 124.825C249.992 124.971 249.88 125.703 249.86 125.861C249.859 125.874 249.858 125.885 249.856 125.898C249.711 126.654 249.621 127.42 249.587 128.19C249.587 128.218 249.585 128.246 249.585 128.274C249.585 137.448 257.023 144.885 266.198 144.885C274.414 144.885 281.236 138.92 282.572 131.085C282.6 130.873 282.623 130.659 282.647 130.445C282.978 127.596 282.611 124.602 281.57 122.098ZM262.423 135.1C262.501 135.137 262.574 135.178 262.653 135.213C262.657 135.216 262.661 135.218 262.665 135.22C262.583 135.181 262.503 135.141 262.423 135.1ZM279.924 122.967L279.922 122.951C279.923 122.957 279.924 122.963 279.925 122.969L279.924 122.967Z" fill="url(#paint0_linear)"/>
<path d="M281.57 122.098C280.848 120.362 279.386 118.487 278.237 117.894C279.172 119.726 279.713 121.564 279.92 122.936C279.92 122.932 279.92 122.939 279.922 122.951C279.923 122.957 279.924 122.963 279.925 122.969C281.492 127.218 280.638 131.539 279.408 134.18C277.504 138.265 272.895 142.452 265.681 142.247C257.887 142.027 251.021 136.244 249.739 128.669C249.505 127.475 249.739 126.868 249.857 125.898C249.713 126.646 249.659 126.862 249.587 128.19C249.587 128.219 249.585 128.247 249.585 128.275C249.585 137.448 257.023 144.885 266.198 144.885C274.414 144.885 281.236 138.92 282.572 131.086C282.6 130.873 282.623 130.659 282.647 130.445C282.978 127.596 282.611 124.602 281.57 122.098Z" fill="url(#paint1_radial)"/>
<path d="M281.57 122.098C280.848 120.362 279.386 118.487 278.237 117.894C279.172 119.726 279.713 121.564 279.92 122.936C279.92 122.932 279.92 122.939 279.922 122.951C279.923 122.957 279.924 122.963 279.925 122.969C281.492 127.218 280.638 131.539 279.408 134.18C277.504 138.265 272.895 142.452 265.681 142.247C257.887 142.027 251.021 136.244 249.739 128.669C249.505 127.475 249.739 126.868 249.857 125.898C249.713 126.646 249.659 126.862 249.587 128.19C249.587 128.219 249.585 128.247 249.585 128.275C249.585 137.448 257.023 144.885 266.198 144.885C274.414 144.885 281.236 138.92 282.572 131.086C282.6 130.873 282.623 130.659 282.647 130.445C282.978 127.596 282.611 124.602 281.57 122.098Z" fill="url(#paint2_radial)"/>
<path d="M273.497 124.051C273.533 124.076 273.566 124.101 273.6 124.127C273.183 123.387 272.664 122.709 272.058 122.114C266.894 116.951 270.704 110.919 271.346 110.612C271.348 110.61 271.352 110.604 271.353 110.603C267.18 113.047 265.765 117.568 265.635 119.83C265.828 119.817 266.021 119.8 266.218 119.8C269.332 119.8 272.045 121.513 273.497 124.051Z" fill="url(#paint3_radial)"/>
<path d="M266.229 125.082C266.201 125.495 264.741 126.92 264.231 126.92C259.507 126.92 258.74 129.777 258.74 129.777C258.949 132.183 260.625 134.165 262.653 135.213C262.746 135.261 262.84 135.304 262.933 135.347C263.094 135.418 263.257 135.485 263.421 135.547C264.117 135.793 264.846 135.933 265.583 135.964C273.863 136.352 275.467 126.065 269.492 123.078C271.022 122.812 272.61 123.427 273.497 124.051C272.045 121.513 269.332 119.801 266.218 119.801C266.021 119.801 265.828 119.817 265.635 119.83C263.968 119.945 262.375 120.559 261.063 121.592C261.316 121.806 261.602 122.093 262.204 122.686C263.331 123.797 266.222 124.947 266.229 125.082Z" fill="url(#paint4_radial)"/>
<path d="M266.229 125.082C266.201 125.495 264.741 126.92 264.231 126.92C259.507 126.92 258.74 129.777 258.74 129.777C258.949 132.183 260.625 134.165 262.653 135.213C262.746 135.261 262.84 135.304 262.933 135.347C263.094 135.418 263.257 135.485 263.421 135.547C264.117 135.793 264.846 135.933 265.583 135.964C273.863 136.352 275.467 126.065 269.492 123.078C271.022 122.812 272.61 123.427 273.497 124.051C272.045 121.513 269.332 119.801 266.218 119.801C266.021 119.801 265.828 119.817 265.635 119.83C263.968 119.945 262.375 120.559 261.063 121.592C261.316 121.806 261.602 122.093 262.204 122.686C263.331 123.797 266.222 124.947 266.229 125.082Z" fill="url(#paint5_radial)"/>
<path d="M260.288 121.039C260.404 121.114 260.518 121.19 260.632 121.268C260.253 119.943 260.237 118.541 260.586 117.208C258.879 117.985 257.552 119.213 256.587 120.298C256.667 120.295 259.076 120.252 260.288 121.039Z" fill="url(#paint6_radial)"/>
<path d="M249.739 128.669C251.021 136.243 257.887 142.027 265.681 142.247C272.895 142.452 277.504 138.264 279.408 134.179C280.638 131.539 281.492 127.219 279.925 122.969L279.924 122.967L279.922 122.951C279.92 122.939 279.919 122.932 279.92 122.936C279.92 122.938 279.921 122.945 279.923 122.963C280.512 126.811 278.555 130.538 275.495 133.058L275.486 133.08C269.524 137.934 263.82 136.009 262.665 135.221C262.583 135.182 262.503 135.141 262.423 135.1C258.947 133.439 257.511 130.273 257.819 127.557C254.884 127.557 253.883 125.082 253.883 125.082C253.883 125.082 256.518 123.203 259.991 124.837C263.208 126.35 266.228 125.082 266.228 125.082C266.222 124.947 263.331 123.797 262.204 122.686C261.602 122.093 261.316 121.807 261.062 121.592C260.925 121.476 260.781 121.368 260.632 121.267C260.518 121.19 260.403 121.114 260.288 121.039C259.076 120.252 256.666 120.295 256.587 120.297H256.579C255.92 119.463 255.967 116.711 256.004 116.137C255.996 116.101 255.513 116.388 255.45 116.431C254.869 116.846 254.325 117.311 253.826 117.822C253.258 118.398 252.739 119.02 252.275 119.683C252.275 119.683 252.275 119.684 252.274 119.685C252.274 119.684 252.275 119.683 252.275 119.683C251.207 121.196 250.449 122.907 250.046 124.715C250.038 124.751 249.448 127.331 249.739 128.669Z" fill="url(#paint7_radial)"/>
<path d="M272.058 122.114C272.664 122.709 273.183 123.387 273.6 124.127C273.692 124.195 273.777 124.264 273.85 124.331C277.616 127.801 275.642 132.709 275.495 133.058C278.555 130.538 280.512 126.811 279.923 122.963C278.044 118.281 274.859 116.393 272.258 112.283C272.127 112.075 271.995 111.866 271.867 111.647C271.802 111.534 271.741 111.42 271.684 111.303C271.576 111.094 271.493 110.874 271.436 110.646C271.436 110.635 271.432 110.624 271.425 110.616C271.418 110.608 271.409 110.603 271.398 110.601C271.388 110.598 271.377 110.598 271.367 110.601C271.364 110.602 271.361 110.605 271.358 110.606C271.355 110.607 271.35 110.611 271.346 110.613C270.704 110.919 266.894 116.951 272.058 122.114Z" fill="url(#paint8_radial)"/>
<path d="M273.85 124.331C273.777 124.264 273.692 124.195 273.6 124.127C273.566 124.101 273.533 124.076 273.497 124.051C272.61 123.428 271.022 122.812 269.492 123.078C275.467 126.065 273.863 136.352 265.583 135.964C264.846 135.934 264.117 135.793 263.421 135.547C263.257 135.485 263.094 135.418 262.933 135.347C262.84 135.305 262.746 135.261 262.653 135.213C262.657 135.216 262.661 135.218 262.665 135.22C263.82 136.008 269.525 137.934 275.486 133.08L275.495 133.058C275.643 132.709 277.616 127.801 273.85 124.331Z" fill="url(#paint9_radial)"/>
<path d="M258.74 129.777C258.74 129.777 259.507 126.92 264.231 126.92C264.742 126.92 266.202 125.495 266.229 125.082C266.256 124.668 263.208 126.35 259.991 124.837C256.519 123.203 253.884 125.082 253.884 125.082C253.884 125.082 254.884 127.557 257.819 127.557C257.511 130.273 258.947 133.439 262.423 135.1C262.5 135.137 262.573 135.178 262.653 135.213C260.625 134.165 258.949 132.183 258.74 129.777Z" fill="url(#paint10_radial)"/>
<path d="M281.57 122.098C280.848 120.361 279.386 118.486 278.237 117.894C279.172 119.726 279.713 121.564 279.92 122.936C279.92 122.938 279.921 122.945 279.923 122.963C278.044 118.281 274.859 116.393 272.258 112.283C272.127 112.075 271.995 111.866 271.867 111.647C271.802 111.534 271.741 111.42 271.684 111.303C271.576 111.094 271.493 110.874 271.436 110.646C271.436 110.635 271.432 110.624 271.425 110.616C271.418 110.608 271.409 110.603 271.398 110.601C271.388 110.598 271.377 110.598 271.367 110.601C271.364 110.602 271.361 110.605 271.358 110.606C271.355 110.607 271.35 110.611 271.346 110.613C271.348 110.61 271.352 110.605 271.353 110.603C267.18 113.047 265.764 117.568 265.634 119.83C265.828 119.817 266.021 119.801 266.218 119.801C269.332 119.801 272.044 121.513 273.497 124.051C272.61 123.428 271.021 122.812 269.491 123.078C275.466 126.065 273.862 136.352 265.583 135.964C264.845 135.934 264.117 135.793 263.421 135.547C263.256 135.485 263.094 135.418 262.933 135.347C262.839 135.305 262.746 135.261 262.653 135.214C262.656 135.216 262.661 135.218 262.664 135.22C262.583 135.181 262.502 135.141 262.422 135.1C262.5 135.137 262.573 135.178 262.653 135.213C260.624 134.165 258.949 132.183 258.74 129.777C258.74 129.777 259.506 126.92 264.23 126.92C264.741 126.92 266.201 125.495 266.228 125.082C266.222 124.947 263.331 123.797 262.203 122.686C261.601 122.093 261.315 121.807 261.062 121.592C260.924 121.476 260.781 121.367 260.632 121.267C260.253 119.942 260.237 118.54 260.585 117.207C258.878 117.984 257.551 119.213 256.586 120.297H256.578C255.92 119.463 255.966 116.711 256.004 116.137C255.996 116.101 255.513 116.388 255.449 116.431C254.868 116.846 254.325 117.311 253.826 117.822C253.258 118.398 252.739 119.02 252.275 119.682C252.275 119.683 252.275 119.684 252.274 119.685C252.274 119.684 252.275 119.683 252.275 119.682C251.207 121.196 250.449 122.907 250.046 124.715C250.038 124.751 250.031 124.788 250.024 124.825C249.992 124.971 249.852 125.713 249.832 125.872C249.831 125.885 249.834 125.86 249.832 125.872C249.704 126.639 249.622 127.413 249.587 128.19C249.587 128.218 249.585 128.246 249.585 128.275C249.585 137.448 257.023 144.885 266.198 144.885C274.414 144.885 281.236 138.92 282.572 131.085C282.6 130.873 282.623 130.659 282.647 130.445C282.978 127.596 282.611 124.602 281.57 122.098ZM279.922 122.951C279.923 122.957 279.924 122.963 279.925 122.969L279.924 122.967L279.922 122.951Z" fill="url(#paint11_linear)"/>
</g>
<circle cx="194.654" cy="128.295" r="16.9585" fill="#E0E0E6"/>
<circle cx="123.871" cy="128.295" r="16.9585" fill="#E0E0E6"/>
<circle cx="53.0876" cy="128.295" r="16.9585" fill="#E0E0E6"/>
<circle cx="337.696" cy="128.295" r="16.9585" fill="#E0E0E6"/>
<line x1="169.864" y1="74.5478" x2="182.035" y2="62.3762" stroke="#80808F" stroke-width="4" stroke-linecap="round" stroke-linejoin="round"/>
<line x1="182.034" y1="74.6494" x2="169.863" y2="62.4778" stroke="#80808F" stroke-width="4" stroke-linecap="round" stroke-linejoin="round"/>
<rect x="196.439" y="60.4609" width="68.5714" height="16.2212" fill="#AFAFBA"/>
<rect x="270.909" y="60.4609" width="49.4009" height="16.2212" fill="#AFAFBA"/>
<path d="M165.094 31.2646L171.212 31.2646L171.212 35.5245C171.212 35.8728 171.351 36.2069 171.597 36.4532C171.843 36.6995 172.177 36.8379 172.526 36.8379C173.287 36.8401 174.042 36.6912 174.746 36.3997C175.45 36.1083 176.088 35.6801 176.626 35.1399L176.785 34.9802C177.38 34.3858 178.187 34.0519 179.028 34.0519C179.869 34.0519 180.675 34.3858 181.27 34.9802L181.814 35.5245C181.998 35.7081 182.232 35.8332 182.487 35.8838C182.742 35.9345 183.006 35.9085 183.246 35.809C183.486 35.7096 183.691 35.5413 183.835 35.3253C183.98 35.1093 184.057 34.8554 184.057 34.5956L184.057 25.3067C184.057 25.047 183.98 24.793 183.835 24.577C183.691 24.3611 183.486 24.1927 183.246 24.0933C183.006 23.9939 182.742 23.9678 182.487 24.0185C182.232 24.0691 181.998 24.1942 181.814 24.3778L181.27 24.9222C180.675 25.5166 179.869 25.8504 179.028 25.8504C178.187 25.8504 177.38 25.5166 176.785 24.9222L176.628 24.7652C176.099 24.1916 175.45 23.7419 174.727 23.4483C174.004 23.1546 173.225 23.0241 172.446 23.0663C172.112 23.0867 171.798 23.2337 171.569 23.4775C171.34 23.7212 171.212 24.0432 171.212 24.3778L171.212 28.6377L165.094 28.6377C164.75 28.6437 164.422 28.7847 164.18 29.0304C163.939 29.2761 163.804 29.6067 163.804 29.9512C163.804 30.2956 163.939 30.6263 164.18 30.8719C164.422 31.1176 164.75 31.2586 165.094 31.2646ZM173.84 25.9319C174.186 26.1093 174.501 26.3428 174.771 26.623L174.928 26.7799C175.465 27.32 176.104 27.7482 176.807 28.0399C177.511 28.3315 178.265 28.4807 179.027 28.4789C179.856 28.4801 180.675 28.3037 181.43 27.9615L181.429 31.9418C180.675 31.5991 179.857 31.4223 179.029 31.4235C178.267 31.4213 177.512 31.5703 176.808 31.8619C176.104 32.1536 175.465 32.582 174.928 33.1224L174.768 33.2822C174.5 33.5519 174.185 33.771 173.839 33.9287L173.84 25.9319Z" fill="#321C64"/>
<rect x="196.439" y="22.1199" width="68.5714" height="16.2212" fill="#CFCFD8"/>
<rect x="269.434" y="22.1199" width="19.9078" height="16.2212" fill="#CFCFD8"/>
<rect x="293.766" y="22.1199" width="44.2396" height="16.2212" fill="#CFCFD8"/>
</g>
<defs>
<filter id="filter0_d" x="168.479" y="30.5991" width="195.392" height="195.392" filterUnits="userSpaceOnUse" color-interpolation-filters="sRGB">
<feFlood flood-opacity="0" result="BackgroundImageFix"/>
<feColorMatrix in="SourceAlpha" type="matrix" values="0 0 0 0 0 0 0 0 0 0 0 0 0 0 0 0 0 0 127 0"/>
<feOffset/>
<feGaussianBlur stdDeviation="40"/>
<feColorMatrix type="matrix" values="0 0 0 0 1 0 0 0 0 1 0 0 0 0 1 0 0 0 1 0"/>
<feBlend mode="normal" in2="BackgroundImageFix" result="effect1_dropShadow"/>
<feBlend mode="normal" in="SourceGraphic" in2="effect1_dropShadow" result="shape"/>
</filter>
<linearGradient id="paint0_linear" x1="278.535" y1="115.913" x2="251.86" y2="141.645" gradientUnits="userSpaceOnUse">
<stop offset="0.05" stop-color="#FFF44F"/>
<stop offset="0.37" stop-color="#FF980E"/>
<stop offset="0.53" stop-color="#FF3647"/>
<stop offset="0.7" stop-color="#E31587"/>
</linearGradient>
<radialGradient id="paint1_radial" cx="0" cy="0" r="1" gradientUnits="userSpaceOnUse" gradientTransform="translate(272.576 114.421) scale(33.9762 34.5484)">
<stop offset="0.13" stop-color="#FFBD4F"/>
<stop offset="0.28" stop-color="#FF980E"/>
<stop offset="0.47" stop-color="#FF3750"/>
<stop offset="0.78" stop-color="#EB0878"/>
<stop offset="0.86" stop-color="#E50080"/>
</radialGradient>
<radialGradient id="paint2_radial" cx="0" cy="0" r="1" gradientUnits="userSpaceOnUse" gradientTransform="translate(262.724 128.69) scale(34.8256 34.5484)">
<stop offset="0.3" stop-color="#960E18"/>
<stop offset="0.35" stop-color="#B11927" stop-opacity="0.74"/>
<stop offset="0.43" stop-color="#DB293D" stop-opacity="0.34"/>
<stop offset="0.5" stop-color="#F5334B" stop-opacity="0.09"/>
<stop offset="0.53" stop-color="#FF3750" stop-opacity="0"/>
</radialGradient>
<radialGradient id="paint3_radial" cx="0" cy="0" r="1" gradientUnits="userSpaceOnUse" gradientTransform="translate(269.458 108.98) scale(11.1519 18.9331)">
<stop offset="0.13" stop-color="#FFF44F"/>
<stop offset="0.53" stop-color="#FF980E"/>
</radialGradient>
<radialGradient id="paint4_radial" cx="0" cy="0" r="1" gradientUnits="userSpaceOnUse" gradientTransform="translate(262.099 137.609) scale(14.7569 16.1737)">
<stop offset="0.35" stop-color="#3A8EE6"/>
<stop offset="0.67" stop-color="#9059FF"/>
<stop offset="1" stop-color="#C139E6"/>
</radialGradient>
<radialGradient id="paint5_radial" cx="0" cy="0" r="1" gradientUnits="userSpaceOnUse" gradientTransform="translate(264.62 125.138) scale(7.83591 9.54248)">
<stop offset="0.21" stop-color="#9059FF" stop-opacity="0"/>
<stop offset="0.97" stop-color="#6E008B" stop-opacity="0.6"/>
</radialGradient>
<radialGradient id="paint6_radial" cx="0" cy="0" r="1" gradientUnits="userSpaceOnUse" gradientTransform="translate(265.082 113.148) scale(11.7318 11.7735)">
<stop offset="0.1" stop-color="#FFE226"/>
<stop offset="0.79" stop-color="#FF7139"/>
</radialGradient>
<radialGradient id="paint7_radial" cx="0" cy="0" r="1" gradientUnits="userSpaceOnUse" gradientTransform="translate(275.796 105.424) scale(56.01 47.0173)">
<stop offset="0.11" stop-color="#FFF44F"/>
<stop offset="0.46" stop-color="#FF980E"/>
<stop offset="0.72" stop-color="#FF3647"/>
<stop offset="0.9" stop-color="#E31587"/>
</radialGradient>
<radialGradient id="paint8_radial" cx="0" cy="0" r="1" gradientUnits="userSpaceOnUse" gradientTransform="translate(254.995 120.951) rotate(77.3945) scale(17.77 76.8708)">
<stop stop-color="#FFF44F"/>
<stop offset="0.3" stop-color="#FF980E"/>
<stop offset="0.57" stop-color="#FF3647"/>
<stop offset="0.74" stop-color="#E31587"/>
</radialGradient>
<radialGradient id="paint9_radial" cx="0" cy="0" r="1" gradientUnits="userSpaceOnUse" gradientTransform="translate(265.203 117.383) scale(32.158 31.5929)">
<stop offset="0.14" stop-color="#FFF44F"/>
<stop offset="0.48" stop-color="#FF980E"/>
<stop offset="0.66" stop-color="#FF3647"/>
<stop offset="0.9" stop-color="#E31587"/>
</radialGradient>
<radialGradient id="paint10_radial" cx="0" cy="0" r="1" gradientUnits="userSpaceOnUse" gradientTransform="translate(273.549 119.23) scale(38.6529 34.5795)">
<stop offset="0.09" stop-color="#FFF44F"/>
<stop offset="0.63" stop-color="#FF980E"/>
</radialGradient>
<linearGradient id="paint11_linear" x1="276.129" y1="115.399" x2="254.799" y2="138.705" gradientUnits="userSpaceOnUse">
<stop offset="0.17" stop-color="#FFF44F" stop-opacity="0.8"/>
<stop offset="0.6" stop-color="#FFF44F" stop-opacity="0"/>
</linearGradient>
<clipPath id="clip0">
<rect width="516" height="160" fill="white"/>
</clipPath>
<clipPath id="clip1">
<rect width="35.3917" height="35.3917" fill="white" transform="translate(248.479 110.599)"/>
</clipPath>
</defs>
</svg>
