<!-- This Source Code Form is subject to the terms of the Mozilla Public
   - License, v. 2.0. If a copy of the MPL was not distributed with this
   - file, You can obtain one at http://mozilla.org/MPL/2.0/. -->
<svg viewBox="0 0 220 120" fill="none" xmlns="http://www.w3.org/2000/svg">
  <path d="M156.54 32.33v57.72c0 4.05-3.45 7.34-7.7 7.34H57.16c-4.26 0-7.7-3.29-7.7-7.34V32.33" stroke="#0080FF" stroke-width="5"/>
  <path fill-rule="evenodd" d="M154.44 18.45H51.55a2.1 2.1 0 00-2.1 2.1v10.33h107.09V20.56a2.1 2.1 0 00-2.1-2.1z" fill="#0080FF"/>
  <path d="M154.44 18.45H51.55a2.1 2.1 0 00-2.1 2.1v10.33h107.09V20.56a2.1 2.1 0 00-2.1-2.1z" stroke="#0080FF" stroke-width="5"/>
  <path fill-rule="evenodd" d="M57.32 25.44a2.8 2.8 0 01-2.75 2.84 2.8 2.8 0 01-2.75-2.84 2.8 2.8 0 012.75-2.84 2.8 2.8 0 012.75 2.84zm9.17 0a2.8 2.8 0 01-2.75 2.84A2.8 2.8 0 0161 25.44a2.8 2.8 0 012.75-2.84 2.8 2.8 0 012.75 2.84zm8.96 0a2.8 2.8 0 01-2.75 2.84 2.8 2.8 0 01-2.75-2.84 2.8 2.8 0 012.75-2.84 2.8 2.8 0 012.75 2.84zM128.79 103.63h49.97a34.28 34.28 0 002.85-13.73A34.54 34.54 0 00147 55.4h-.17a34.54 34.54 0 00-34.6 34.49c0 4.88 1.02 9.52 2.85 13.73h13.7z" fill="#fff"/>
  <path d="M128.79 103.63h49.97a34.28 34.28 0 002.85-13.73A34.54 34.54 0 00147 55.4h-.17a34.54 34.54 0 00-34.6 34.49c0 4.88 1.02 9.52 2.85 13.73h13.7v0z" stroke="#00C7D8" stroke-width="5" stroke-linecap="round"/>
  <path d="M124.08 91.3h6.04m16.42-25.26v6.5-6.5zm-17.5 8.33l4.27 4.25-4.27-4.25z" stroke="#0080FF" stroke-width="3" stroke-linecap="round"/>
  <path fill-rule="evenodd" d="M155.2 87.76c0 4.56-3.7 8.24-8.28 8.24a8.26 8.26 0 01-8.26-8.24 8.25 8.25 0 0116.54 0z" fill="#0022A9"/>
  <path fill-rule="evenodd" d="M146.92 87.76l17.37-17.3z" fill="#005482"/>
  <path d="M146.92 87.76l17.37-17.3" stroke="#137EFF" stroke-width="3" stroke-linecap="round"/>
</svg>
