<!-- This Source Code Form is subject to the terms of the Mozilla Public
   - License, v. 2.0. If a copy of the MPL was not distributed with this
   - file, You can obtain one at http://mozilla.org/MPL/2.0/. -->
<svg viewBox="0 0 220 120" fill="none" xmlns="http://www.w3.org/2000/svg">
  <path fill-rule="evenodd" d="M159.832 106.154c6.121 0 11.427-4.63 11.427-10.749v-72a4.896 4.896 0 00-3.024-4.532 4.904 4.904 0 00-1.876-.373H54.399a4.899 4.899 0 00-4.9 4.903v.001l.001 72c0 6.12 5.306 10.75 11.427 10.75h98.905zM54.5 95.404c0 2.994 2.688 5.75 6.427 5.75h98.905c3.739 0 6.427-2.756 6.427-5.749V37.462H54.5v57.942z" fill="#0080FF"/>
  <path fill-rule="evenodd" d="M61.117 28.88a3.19 3.19 0 01-3.187 3.191 3.19 3.19 0 010-6.381 3.19 3.19 0 013.187 3.19zm10.628 0a3.188 3.188 0 11-5.442-2.254 3.19 3.19 0 013.474-.693 3.188 3.188 0 011.968 2.947zm10.385 0a3.19 3.19 0 01-3.187 3.191 3.19 3.19 0 010-6.381 3.19 3.19 0 013.187 3.19" fill="#fff"/>
  <path d="M77.575 88h12.586M65.863 74.33l6.123 6.127-6.123 6.13V74.33z" stroke="#00C7D8" stroke-width="3" stroke-linecap="round"/>
  <path d="M156.5 47h-43a1.5 1.5 0 000 3h43a1.5 1.5 0 000-3zM102.5 47h-37a1.5 1.5 0 000 3h37a1.5 1.5 0 000-3zM144.5 59h-23a1.5 1.5 0 000 3h23a1.5 1.5 0 000-3zM112.5 59h-47a1.5 1.5 0 000 3h47a1.5 1.5 0 000-3z" fill="#1C2142"/>
</svg>
