<!-- This Source Code Form is subject to the terms of the Mozilla Public
   - License, v. 2.0. If a copy of the MPL was not distributed with this
   - file, You can obtain one at http://mozilla.org/MPL/2.0/. -->
<svg width="16" xmlns="http://www.w3.org/2000/svg" height="16" viewBox="0 0 16 16" fill="#0A0805">
  <path d="m1.3,12.5v-2.4c0,0 0,2.5 6.7,2.5 6.7,0 6.7-2.5 6.7-2.5v2.4c0,0 0,2.7-6.8,2.7-6.6,0-6.6-2.7-6.6-2.7z"/>
  <path d="m14.7,3.4c0-1.4-3-2.5-6.7-2.5s-6.7,1.1-6.7,2.5c0,.2 0,.3 .1,.5-.1-.3-.1-.4-.1-.4v1.5c0,0 0,2.7 6.7,2.7 6.7,0 6.8-2.7 6.8-2.7v-1.6c0,.1 0,.2-.1,.5-0-.2-0-.3-0-.5z"/>
  <path d="m1.3,8.7v-2.4c0,0 0,2.5 6.7,2.5 6.7,0 6.7-2.5 6.7-2.5v2.4c0,0 0,2.7-6.8,2.7-6.6-0-6.6-2.7-6.6-2.7z"/>
</svg>
