<!-- This Source Code Form is subject to the terms of the Mozilla Public
   - License, v. 2.0. If a copy of the MPL was not distributed with this
   - file, You can obtain one at http://mozilla.org/MPL/2.0/. -->
<svg xmlns="http://www.w3.org/2000/svg" width="16" height="16" fill="context-fill" fill-opacity="context-fill-opacity">
  <path d="M3 3h3a1 1 0 0 0 0-2H3a1 1 0 0 0 0 2zm11.707 1.293L5 14h9a1 1 0 0 0 1-1V5a1 1 0 0 0-.293-.707z"/>
  <path d="M14.707 1.293a.986.986 0 0 0-1.207-.139A.973.973 0 0 0 13 1h-3a1 1 0 0 0 0 2h1.586l-1 1H2a1 1 0 0 0-1 1v8a.971.971 0 0 0 .154.5.986.986 0 0 0 .139 1.205 1 1 0 0 0 1.414 0l12-12a1 1 0 0 0 0-1.412z"/>
</svg>
