/* XPM */
/* Copyright © 2001, The Mozilla Organization. */
/* http://mozilla.org/ <endico@mozilla.org> */
static char * mozicon50_xpm[] = {
"50 50 30 1",
" 	c None",
".	c #FFFFFF",
"+	c #E23621",
"@	c #D4331F",
"#	c #C62F1D",
"$	c #C2C2C2",
"%	c #BABABA",
"&	c #B82C1B",
"*	c #AA2919",
"=	c #9B2517",
"-	c #8F8F8F",
";	c #8D2215",
">	c #848484",
",	c #808080",
"'	c #7F1E13",
")	c #711B11",
"!	c #707070",
"~	c #63180E",
"{	c #606060",
"]	c #55140C",
"^	c #505050",
"/	c #47110A",
"(	c #390E08",
"_	c #303030",
":	c #2A0A06",
"<	c #202020",
"[	c #1C0704",
"}	c #101010",
"|	c #0E0302",
"1	c #000000",
"                                                  ",
"                                                  ",
"                                                  ",
"                                                  ",
"                                                  ",
"                                                  ",
"                                                  ",
"               %!_|1111_!%                        ",
"             %^}1111111111<{{__1_^%               ",
"            >|111~*#++*;(111|11[:1<%              ",
"          %_111(#++++++++&1:~*+@@)1<              ",
"         -|111;+++*~((/++;#+#)[11/|1%             ",
"        {111|&+++;111]@++&;/1|~)1111-             ",
"      %_1111;+++#111~+++'(:|(@;|1111{             ",
"     %<1111|#*@+])/1=++/)@+))+_!1[]11_%           ",
"    -11111111=++@+*1*+*'1:&@]@;}}{;'|1|^%         ",
"   !}1111111]++++++=#;|11/;+@&/='(:;@]111_>       ",
"  !11}^|1111&+++++++;/111'+&@+)1[]*+++@)[11|^%    ",
" -_!%%_11111++++++#](((((|+@(;++#*+++++++&]|11<%  ",
"    -11111[|+++++;~+++++++++&|~+++++++++++++;:1|- ",
"   !}1111[)[+++++|&++++++++&+;1:#+++++++++++++|1{ ",
"  !11|}11)@=++++*1@++++++++~+*11|'+++++++++++)11^ ",
" !1}!!111~++++++*1;++++++++(*]1111(#+++++++++1[1< ",
" ^- ^1111(++++++*1[@+++++++(|111111|'++++++++/+|_ ",
"   _1|_111@+++++;11]+++++++;111|111}<[;++++++@+(1 ",
"  ^}!-}111)+++++]111;+++++++:1[;111_{<}['&+++++:1 ",
"  {%%}1111|@++++)1;'(#++++++@/1;&(111{_-111(()=1_ ",
"    <11<111/+++++]:++#]+++++++&'@+*]|11_-}><^<}1! ",
"   {1_-_1111;+++++]]++)/@+++++++++@++=~:11_<}!}}  ",
"   _- {11111|++++++=+++(|)@++@*)][1]#+++@;|1111^  ",
"     -1_1111/++++++++++@[11:[11111111:'&#;|1<_^%  ",
"     <!_1111#+++++++++++@)|1111|^>!^<11111|{      ",
"     --}_|11++++++++++++@)1111^%     %>{{{%       ",
"      --}111));++++++++@:1|1|-                    ",
"       -_111[;+++++++++';@|1-                     ",
"       ^11(;+#+++++++]=++)1^                      ",
"        _1:/'@+++++++*1(*]1>                      ",
"        %<1|=+++++++++'11|1                       ",
"          ^11]@+++++*;+~11_                       ",
"           >|1|)#++++((#[1^                       ",
"            %^111/;#+&1111>                       ",
"              %^|1111(|111%                       ",
"                 >^_|11111-                       ",
"                                                  ",
"                                                  ",
"                                                  ",
"                                                  ",
"                                                  ",
"                                                  ",
"                                                  "};
