/* XPM */
/* Copyright © 2001, The Mozilla Organization. */
/* http://mozilla.org/ <endico@mozilla.org> */
static char * mozicon16_xpm[] = {
"16 16 30 1",
" 	c None",
".	c #FFFFFF",
"+	c #E23621",
"@	c #D4331F",
"#	c #C62F1D",
"$	c #C2C2C2",
"%	c #BABABA",
"&	c #B82C1B",
"*	c #AA2919",
"=	c #9B2517",
"-	c #8F8F8F",
";	c #8D2215",
">	c #848484",
",	c #808080",
"'	c #7F1E13",
")	c #711B11",
"!	c #707070",
"~	c #63180E",
"{	c #606060",
"]	c #55140C",
"^	c #505050",
"/	c #47110A",
"(	c #390E08",
"_	c #303030",
":	c #2A0A06",
"<	c #202020",
"[	c #1C0704",
"}	c #101010",
"|	c #0E0302",
"1	c #000000",
"                ",
"                ",
"     _1_        ",
"   %1+++1*@<    ",
"  11@)=/++11    ",
" 1|1++;1++[+)1% ",
" }1)+|+++;#++++{",
"^^1++1+++11|++/_",
" %1|+1(++/&1-1)_",
" -11+++(@@]]+|1 ",
"  }1++++11  {%  ",
"  ^(++++1       ",
"    |++#^       ",
"     >|1-       ",
"                ",
"                "};
