<!-- This Source Code Form is subject to the terms of the Mozilla Public
   - License, v. 2.0. If a copy of the MPL was not distributed with this
   - file, You can obtain one at http://mozilla.org/MPL/2.0/. -->
<svg height="16" viewBox="0 0 16 16" width="16" xmlns="http://www.w3.org/2000/svg">
    <path fill="context-fill" fill-opacity="context-fill-opacity" d="m11 7.00250628c-.5522847 0-1-.44771525-1-1v-1h-7v8.00000002c0 .5522847.44771525 1 1 1h2c.55228475 0 1 .4477152 1 1 0 .5522847-.44771525 1-1 1h-3c-1.1045695 0-2-.8954305-2-2v-10.00000002c0-1.1045695.8954305-2 2-2h1.05c.23659623-1.16516199 1.26105919-2.00250628 2.45-2.00250628s2.21340377.83734429 2.45 2.00250628h1.05c1.1045695 0 2 .8954305 2 2v2c0 .55228475-.4477153 1-1 1zm-1-3v-1h-1.051c-.47526862.000097-.88494628-.33433374-.98-.8-.14293517-.69793844-.7570756-1.19905191-1.4695-1.19905191s-1.32656483.50111347-1.4695 1.19905191c-.09505372.46566626-.50473138.800097-.98.8h-1.05v1zm-3.5-2c.27614237 0 .5.22385763.5.5 0 .27614238-.22385763.5-.5.5s-.5-.22385762-.5-.5c0-.27614237.22385763-.5.5-.5zm-2 5c-.27614237 0-.5-.22385762-.5-.5 0-.27614237.22385763-.5.5-.5h4c.27614237 0 .5.22385763.5.5 0 .27614238-.22385763.5-.5.5zm0 2c-.27614237 0-.5-.22385762-.5-.5 0-.27614237.22385763-.5.5-.5h2c.27614237 0 .5.22385763.5.5 0 .27614238-.22385763.5-.5.5zm0 2.00000002c-.27614237 0-.5-.2238576-.5-.5s.22385763-.5.5-.5h1c.27614237 0 .5.2238576.5.5s-.22385763.5-.5.5zm6.5 4.9974937c-2.2092 0-4-1.7908-4-4s1.7908-4 4-4 4 1.7908 4 4-1.7908 4-4 4zm.46-2c0-.254051-.205949-.46-.46-.46s-.46.205949-.46.46.205949.46.46.46.46-.205949.46-.46zm-1.06-3c0-.3056.2464-.6.6-.6s.6.2944.6.6c0 .1244-.0576.254-.1632.3896-.0796.1016-.1544.172-.228.24-.0308.0288-.0612.0572-.092.0876-.0062816.0061251-.0126828.0121262-.0192.018-.052.0468-.1864.168-.2792.3028-.1304.1896-.2184.434-.2184.762 0 .2209139.1790861.4.4.4s.4-.1790861.4-.4c0-.1724.0424-.258.0776-.3088.0204-.0296.0456-.0576.0788-.09.016-.0156.032-.03.0516-.048l.0012-.0008.0036-.0032c.02-.018.0456-.0416.07-.0664l.0344-.032c.1262825-.1138504.2434416-.2374293.3504-.3696.16-.2048.3324-.5056.3324-.8812 0-.6944-.5536-1.4-1.4-1.4s-1.4.7056-1.4 1.4c0 .2209139.1790861.4.4.4s.4-.1790861.4-.4z"/>
</svg>
