<svg xmlns="http://www.w3.org/2000/svg" width="16" height="16" viewBox="0 0 16 16" fill="context-fill" fill-opacity="context-fill-opacity"><path fill-rule="evenodd" d="M14 13V4a1.99 1.99 0 0 0-1.031-1.75A1.991 1.991 0 0 0 12 2H3a2 2 0 0 0-2 2v9h13ZM3.439.75c-.063.079-.12.162-.171.25H14a1 1 0 0 1 1 1v8.733A1.997 1.997 0 0 0 16 9V2a2 2 0 0 0-2-2H5c-.632 0-1.195.293-1.561.75ZM12 3.25H3a.75.75 0 0 0-.75.75v7.75h10.5V4a.75.75 0 0 0-.75-.75Z" clip-rule="evenodd"/><path d="M1 11.75c-.5 0-1-.01-1 .62S.5 13 1 13v-1.25ZM14 13c.5 0 1 0 1-.63 0-.62-.485-.62-.977-.62H14V13Z"/></svg>