<?xml version="1.0" encoding="UTF-8"?>
<!-- This Source Code Form is subject to the terms of the Mozilla Public
   - License, v. 2.0. If a copy of the MPL was not distributed with this
   - file, You can obtain one at http://mozilla.org/MPL/2.0/. -->
<svg xmlns="http://www.w3.org/2000/svg" viewBox="0 0 124.3 100.9" xml:space="preserve">
  <path class="st0" d="M119 90.7C119 94 82.8 99 55.6 99S13.1 89 13.1 85.6s18.8-5.6 46-5.6 60 7.2 60 10.7z" fill="#FCB643"></path>
  <path class="st1" d="m73 14.5-51 11c-.2 0-.3.2-.2.4l13.8 67c0 .2.2.3.3.3l50.3-9.9c.1 0 .3-.2.2-.4l-13-68.1c0-.2-.2-.3-.4-.3z" fill="#fff"></path>
  <path d="M74.3 14.6a1.3 1.3 0 0 0-1.5-1l-51 11c-.7 0-1.2.8-1 1.5l13.8 67c.1.7.7 1.1 1.3 1.1h.3l50.2-10c.7 0 1.1-.7 1-1.5l-13-68.1zm11.9 68.7L36 93.2h-.1c-.1 0-.3-.1-.3-.3L21.8 26c0-.2 0-.4.2-.4l51-11c.2 0 .3 0 .4.3l13 68.1c0 .2 0 .4-.2.4z"></path>
  <path class="st1" d="m93.3 19.2-52-2.6c-.2 0-.4.1-.4.3l-4 68.3c0 .2 0 .4.3.4l51 3.5c.2 0 .3-.2.4-.3l5-69.3v-.2l-.3-.1z" fill="#fff"></path>
  <path d="m93.4 18.2-52.1-2.6c-.8 0-1.3.5-1.4 1.2l-4 68.4c0 .7.5 1.3 1.2 1.4L88 90h.1c.7 0 1.3-.5 1.4-1.2l5-69.3c0-.7-.5-1.4-1.2-1.4zm-5.2 70.9-51-3.5a.3.3 0 0 1-.3-.4l4-68.3c0-.2.2-.3.3-.3l52.1 2.6.3.1v.3l-5 69.2c0 .2-.2.3-.4.3z"></path>
  <path class="st1" d="M109 26.6 58 15.1c-.1 0-.3.1-.3.3L42 82c0 .2.1.4.3.4L92 94.6c.2 0 .3 0 .4-.3L109.2 27v-.3h-.3z" fill="#fff"></path>
  <path d="M91.8 95.6h.3c.6 0 1.1-.4 1.3-1l16.8-67.3c.1-.8-.3-1.5-1-1.7L58.3 14.2H58c-.6 0-1.1.4-1.3 1L41.1 81.8c-.2.7.2 1.4 1 1.6l49.7 12.2zm.3-1H92L42.3 82.4a.3.3 0 0 1-.3-.4l15.7-66.6c0-.2.2-.3.3-.3l51 11.5.1.2s.1.1 0 .2L92.5 94.4l-.3.2z"></path>
  <path class="st2" d="M101.7 31.5 62 22.7c-1-.2-2 .4-2.2 1.4l-3 12c-.2 1 .4 1.9 1.4 2.1L98 47.8c1 .2 2-.4 2.1-1.4l3-12.7c.2-1-.4-2-1.4-2.2zm-9.5 40.9-11.9-2.6a1 1 0 0 0-1.1.7L76 82c-.1.5.2 1 .7 1.1l12.2 3.3c.5.1 1-.2 1.2-.7l2.9-12a1 1 0 0 0-.8-1.2z" fill="#EF4056"></path>
  <path d="M97.3 52.3c-1.8-.4-3 .6-4 1.4-.8.7-1.3 1.1-2 1-.9-.3-1.2-.8-1.6-1.9-.5-1.1-1-2.5-2.9-3-1.8-.3-3 .6-3.9 1.4-.8.7-1.4 1.1-2.1 1-.8-.2-1.1-.8-1.5-1.8-.5-1.2-1.1-2.6-3-3s-2.9.6-3.8 1.4c-.9.7-1.4 1-2.2 1-.7-.3-1-.9-1.5-1.9-.5-1.1-1-2.5-2.9-3-1.7-.4-3 .6-3.9 1.4-.8.7-1.3 1.1-2.1 1-.8-.2-1-.8-1.5-1.9-.5-1-1-2.5-2.9-3a1 1 0 0 0-1.2.8c-.1.6.2 1.1.8 1.2.7.2 1 .8 1.5 1.8.4 1.2 1 2.6 2.8 3 1.8.4 3-.6 4-1.4.8-.7 1.3-1 2.1-.9s1 .8 1.5 1.8c.5 1.1 1 2.5 2.9 3 1.8.4 3-.6 3.9-1.4.8-.7 1.4-1.1 2.1-1s1 .8 1.5 1.9c.5 1 1.1 2.5 3 3 1.7.3 2.9-.7 3.8-1.4.9-.8 1.4-1.2 2.2-1 .7.2 1 .8 1.5 1.8.5 1.1 1 2.5 2.9 3h.8c1.3 0 2.3-.7 3-1.4 1-.7 1.4-1.1 2.2-1a1 1 0 1 0 .5-1.9zM95 61.7c-1.7-.4-3 .6-3.9 1.4-.8.7-1.3 1.1-2.1 1s-1-.8-1.5-1.9c-.5-1-1.1-2.5-2.9-3-1.8-.3-3 .7-3.9 1.4-.9.8-1.4 1.2-2.2 1-.7-.2-1-.8-1.5-1.8-.4-1.1-1-2.5-2.8-3-1.8-.4-3 .6-4 1.4-.8.7-1.3 1.1-2 1-.9-.3-1.1-.8-1.6-1.9-.5-1.1-1-2.5-2.9-3-1.8-.4-3 .6-3.9 1.4-.8.7-1.3 1.1-2.1 1s-1-.8-1.5-1.8c-.5-1.2-1.1-2.6-2.9-3a1 1 0 1 0-.4 2c.7.1 1 .7 1.5 1.8.4 1 1 2.5 2.8 3 1.8.3 3-.7 4-1.4.8-.8 1.3-1.2 2-1 .9.2 1.1.8 1.6 1.8.5 1.1 1 2.5 2.9 3 1.8.4 3-.6 3.9-1.4.8-.7 1.3-1.1 2.1-1 .8.3 1 .8 1.5 1.9.5 1.1 1.1 2.5 2.9 3 1.8.4 3-.6 3.9-1.4.8-.7 1.4-1.1 2.1-1s1.1.8 1.6 1.8c.4 1.2 1 2.6 2.8 3h.9c1.3 0 2.3-.7 3-1.4.9-.7 1.4-1.1 2.2-1 .5.2 1-.1 1.2-.7s-.2-1-.8-1.2zM76.3 71c-.7-.2-1-.8-1.5-1.8-.4-1.1-1-2.5-2.8-3-1.8-.4-3 .6-4 1.4-.8.7-1.3 1.1-2 1-.9-.2-1.1-.8-1.6-1.9-.5-1.1-1-2.5-2.9-3-1.8-.3-3 .6-3.9 1.4-.8.8-1.3 1.2-2.1 1-.8-.2-1-.8-1.5-1.8-.5-1.2-1.1-2.6-2.9-3a1 1 0 1 0-.4 2c.7.1 1 .7 1.5 1.8.4 1 1 2.5 2.8 3 1.8.3 3-.6 4-1.4.8-.8 1.3-1.2 2-1s1.1.8 1.6 1.8c.5 1.2 1 2.6 2.9 3 1.8.4 3-.6 3.9-1.4.8-.7 1.3-1.1 2.1-1s1 .9 1.5 1.9c.5 1.1 1.1 2.5 2.9 3h.2a1 1 0 0 0 .3-2zm-2.2 9.4c-.7-.2-1-.8-1.5-1.8-.4-1.1-1-2.5-2.8-3-1.8-.4-3 .6-4 1.4-.8.7-1.3 1.1-2 1-.9-.2-1.1-.8-1.6-1.9-.5-1.1-1-2.5-2.9-3-1.8-.3-3 .6-3.9 1.4-.8.8-1.3 1.2-2.1 1-.8-.2-1-.8-1.5-1.8-.5-1.2-1.1-2.6-2.9-3a1 1 0 0 0-1.2.8c-.1.5.2 1 .7 1.2.8.1 1.1.7 1.5 1.8.5 1 1.1 2.5 3 3 1.7.3 2.9-.6 3.8-1.4.9-.8 1.4-1.2 2.2-1s1 .8 1.5 1.8c.5 1.2 1 2.6 2.9 3 1.8.4 3-.6 3.9-1.4.8-.7 1.3-1.1 2.1-1 .8.3 1 .9 1.5 1.9.5 1.1 1.1 2.5 2.9 3h.2a1 1 0 0 0 .2-2z"></path>
  <path class="st3" fill="#1CB0A8" d="M176.8 13.9h5.8v5.8h-5.8zM1 28.4 3 23l5.4 2-2 5.4zM34.3 4.2l6.7-3 3 6.5-6.6 3.3z"></path>
  <path class="st2" d="M19.6 8a3 3 0 1 0 0 6.2 3 3 0 0 0 0-6.2zm47.5-4.6a3.3 3.3 0 1 0 0 6.6 3.3 3.3 0 0 0 0-6.6z" fill="#EF4056"></path>
  <circle class="st2" cx="120.1" cy="31.3" r="2.2" fill="#EF4056"></circle>
  <path class="st0" fill="#FCB643" d="m14.3 51.3 1.6 3.8 1.7 3.8 2.5-3.4 2.4-3.3-4.1-.5zm98.1-41.8-3.5 1.5 3.1 2.3 3.1 2.3.4-3.9.4-3.8zm-7.5 64.2 4.3 3.2 4.4 3.2.6-5.4.6-5.4-5 2.2z"></path>
  <path class="st3" d="M46 22.7a2 2 0 0 0-2 1.7l-1 11.7c-.1.4 0 1 .3 1.3.4.4.8.6 1.4.7l6.5.6L54.9 23l-8.9-.3zm-1.3 21.8a2 2 0 0 0-2 1.7l-1 11.7c-.1.5 0 1 .3 1.3.4.4.8.6 1.4.7l2.8.3 3.6-15.5-5-.2zM44.5 67h-1.1a2 2 0 0 0-2 1.7l-1 11.6a1.8 1.8 0 0 0 .7 1.6v-.1L44.5 67z" fill="#1CB0A8"></path>
  <path d="M37.8 30.6c-1.8.4-2.4 1.8-3 2.9-.4 1-.7 1.6-1.5 1.8s-1.3-.3-2-1c-1-.9-2.1-1.9-4-1.5a1 1 0 0 0 .5 2c.7-.2 1.2.2 2 1 .9.7 1.8 1.5 3.2 1.5h.7c1.8-.4 2.5-1.8 3-3 .5-1 .8-1.6 1.5-1.7h.8l.1-2h-1.3zm-1 12.3c-.4 1-.7 1.6-1.5 1.8-.8.1-1.3-.3-2.1-1-1-.9-2.1-1.9-4-1.5a1 1 0 0 0 .5 2c.8-.2 1.3.2 2.1 1 .8.6 1.7 1.5 3.1 1.5h.8a4 4 0 0 0 2.6-2.3l.2-3.8c-.9.6-1.3 1.5-1.7 2.3z"></path>
  <path class="st0" d="M32.8 54c-.8.2-1.3 1-1.1 1.7l4.6 23 1.5-26-5 1.3zm6.6 33 1.6-.2-2.8-.2c.3.3.7.5 1.2.5z" fill="#FCB643"></path>
</svg>
