<!-- This Source Code Form is subject to the terms of the Mozilla Public
   - License, v. 2.0. If a copy of the MPL was not distributed with this
   - file, You can obtain one at http://mozilla.org/MPL/2.0/. -->
<svg height="313" width="699" xmlns="http://www.w3.org/2000/svg"><filter id="e" height="137.5%" width="137.5%" x="-18.8%" y="-15.6%"><feMorphology in="SourceAlpha" operator="dilate" radius="1" result="shadowSpreadOuter1"/><feOffset dy="1" in="shadowSpreadOuter1" result="shadowOffsetOuter1"/><feGaussianBlur in="shadowOffsetOuter1" result="shadowBlurOuter1" stdDeviation="1.5"/><feComposite in="shadowBlurOuter1" in2="SourceAlpha" operator="out" result="shadowBlurOuter1"/><feColorMatrix in="shadowBlurOuter1" values="0 0 0 0 0 0 0 0 0 0 0 0 0 0 0 0 0 0 0.05 0"/></filter><linearGradient id="g" x1="13.265%" x2="86.735%" y1="0%" y2="100%"><stop offset="0" stop-color="#9059ff"/><stop offset="1" stop-color="#0250bb"/></linearGradient><mask id="a" fill="#fff"><path d="M0 0h697v311H0z" fill-rule="evenodd"/></mask><mask id="b" fill="#fff"><path d="M15.7 7.3l-7-7c-.4-.4-1-.4-1.4 0l-7 7c-.4.4-.4 1 0 1.4s1 .4 1.4 0l.3-.3V13c0 1.7 1.3 3 3 3h6c1.7 0 3-1.3 3-3V8.4l.3.3c.2.2.4.3.7.3s.5-.1.7-.3c.4-.4.4-1 0-1.4zM8 11.5c0-.3.2-.5.5-.5s.5.2.5.5-.2.5-.5.5-.5-.2-.5-.5zm4 1.5c0 .6-.4 1-1 1h-1V9c0-.6-.4-1-1-1H7c-.6 0-1 .4-1 1v5H5c-.6 0-1-.4-1-1V6.4l4-4 4 4z" fill-rule="evenodd"/></mask><mask id="c" fill="#fff"><path d="M14.501 1a1 1 0 00-1 1v2.418a6.995 6.995 0 10-6 10.582 6.954 6.954 0 004.95-2.05 1 1 0 00-1.414-1.414A5.019 5.019 0 1112.05 6H9.501a1 1 0 100 2h5a1 1 0 001-1V2a1 1 0 00-1-1z" fill-rule="evenodd"/></mask><mask id="d" fill="#fff"><path d="M15.707 7.293l-6-6a1 1 0 00-1.414 1.414L12.586 7H1a1 1 0 100 2h11.586l-4.293 4.293a1 1 0 101.414 1.414l6-6a1 1 0 000-1.414z" fill-rule="evenodd"/></mask><mask id="f" fill="#fff"><path d="M15 7H3.414l4.293-4.293a1 1 0 00-1.414-1.414l-6 6a1 1 0 000 1.414l6 6a1 1 0 001.414-1.414L3.414 9H15a1 1 0 000-2z" fill-rule="evenodd"/></mask><g fill="none" fill-rule="evenodd"><path d="M698.5.5H.5v312h698z" stroke="#e8e8e8"/><g mask="url(#a)" transform="translate(1 1)"><path d="M697.5-.5H-.5v312h698z" fill="#cdcdcd" stroke="#e8e8e8"/><path d="M21 0h213.842v33H697v41H0V33h21z" fill="#f2f2f2"/><path d="M460 9h16v16h-16z" fill="#f2f2f2"/><path d="M484 14h121v8H484z" fill="#fff" fill-opacity=".4"/><path d="M676 9h16v16h-16z" fill="#f2f2f2"/><path d="M650.061 17l3.47-3.47a.75.75 0 00-1.061-1.06L649 15.939l-3.47-3.469a.75.75 0 10-1.06 1.06l3.469 3.47-3.469 3.47a.75.75 0 101.06 1.06l3.47-3.469 3.47 3.47a.75.75 0 001.06-1.061z" fill="#f9f9fa" fill-opacity=".8" opacity=".6"/><path d="M665 0v33" opacity=".2" stroke="#000" stroke-opacity=".5"/><path d="M245 9h16v16h-16z" fill="#f2f2f2"/><path d="M268 14h121v8H268z" fill="#fff" fill-opacity=".4"/><path d="M434.061 17l3.47-3.47a.75.75 0 00-1.061-1.06L433 15.939l-3.47-3.469a.75.75 0 10-1.06 1.06l3.469 3.47-3.469 3.47a.75.75 0 101.06 1.06l3.47-3.469 3.47 3.47a.75.75 0 001.06-1.061z" fill="#f9f9fa" fill-opacity=".8" opacity=".6"/><path d="M449 0v33" opacity=".2" stroke="#000" stroke-opacity=".5"/><path d="M31 9h16v16H31z" fill="#d8d8d8"/><path d="M54 14h121v8H54z" fill="#a6a6a6" fill-opacity=".4"/><path d="M21 0h214v3H21z" fill="#fff" fill-opacity=".8"/><path d="M220.061 17l3.47-3.47a.75.75 0 00-1.061-1.06L219 15.939l-3.47-3.469a.75.75 0 10-1.06 1.06l3.469 3.47-3.469 3.47a.75.75 0 101.06 1.06l3.47-3.469 3.47 3.47a.75.75 0 001.06-1.061z" fill="#0c0c0d" fill-opacity=".8" opacity=".4"/><g opacity=".908"><path d="M0 74h697v297H0z" fill="#fff"/><path d="M39 102h150v45H39zm173 70h150v105H212zm170 0h150v105H382zm165 0h150v105H547z" fill="#d8d8d8" fill-opacity=".5"/><path d="M212.5 141.5h485" stroke="#d8d8d8" stroke-linecap="square" stroke-opacity=".5" stroke-width="3"/><path d="M39 172h150v10H39zm173-70h80v14h-80zm100 0h80v14h-80zm100 0h80v14h-80zm100 0h80v14h-80zm100 0h80v14h-80zM39 190h150v10H39zm0 103h150v10H39zm0-85h150v10H39zm0 18h150v10H39z" fill="#d8d8d8" fill-opacity=".5"/></g><g opacity=".25"><path d="M110 45h16v16h-16z"/><g fill="#0c0c0d" fill-opacity=".8" mask="url(#b)" transform="translate(110 45)"><path d="M0 0h16v16H0z"/></g><path d="M78 45h16v16H78z"/><g fill="#0c0c0d" fill-opacity=".8" mask="url(#c)" transform="translate(78 45)"><path d="M0 0h16v16H0z"/></g><path d="M46 45h16v16H46z"/><g fill="#0c0c0d" fill-opacity=".8" mask="url(#d)" transform="translate(46 45)"><path d="M0 0h16v16H0z"/></g><g transform="translate(4 37)"><circle cx="16" cy="16" fill="#000" filter="url(#e)" r="16"/><circle cx="16" cy="16" fill="#fff" r="16.5" stroke="#09060d" stroke-opacity=".15"/><path d="M8 8h16v16H8z"/><g fill="#0c0c0d" fill-opacity=".8" mask="url(#f)" transform="translate(8 8)"><path d="M0 0h16v16H0z"/></g></g></g><path d="M932 38.5H175a1.502 1.502 0 00-1.5 1.5v25a1.502 1.502 0 001.5 1.5h757c.414 0 .79-.168 1.06-.44.272-.27.44-.646.44-1.06V40c0-.414-.168-.79-.44-1.06a1.495 1.495 0 00-1.06-.44z" fill="#fff" opacity=".587" stroke="#cdcdcd"/><path d="M231 49h466v8H231z" fill="#a6a6a6" fill-opacity=".2"/><path d="M202.5 44.5v16" opacity=".4" stroke="#979797" stroke-linecap="square"/><path d="M220.5 51.484h-.5V49.5a4 4 0 10-8 0v1.984h-.5a1.5 1.5 0 00-1.5 1.5V58a1.5 1.5 0 001.5 1.5h9A1.5 1.5 0 00222 58v-5.016a1.5 1.5 0 00-1.5-1.5zM214 49.5a2 2 0 114 0v1.984h-4z" fill="#0c0c0d" fill-opacity=".8" opacity=".2"/><path d="M.5 73.5H697" opacity=".247" stroke="#979797" stroke-linecap="square"/></g><path d="M189 46l4.642.78A1.63 1.63 0 01195 48.392c0 1.06 0 2.97-.088 3.838-.227 2.47-.69 3.822-1.83 5.362a6.235 6.235 0 01-4 2.408H189l-.087-.005a6.235 6.235 0 01-4-2.408c-1.14-1.54-1.603-2.892-1.83-5.362-.07-.728-.081-2.207-.083-3.289v-.544a1.63 1.63 0 011.358-1.612zm0 1.5l-.031.004v10.988l.031.008a4.813 4.813 0 002.726-1.612l.156-.196c.978-1.317 1.338-2.392 1.54-4.605.055-.587.078-1.93.078-3.7a.138.138 0 00-.108-.137z" fill="url(#g)"/></g></svg>