<!-- This Source Code Form is subject to the terms of the Mozilla Public
   - License, v. 2.0. If a copy of the MPL was not distributed with this
   - file, You can obtain one at http://mozilla.org/MPL/2.0/. -->
<svg width="1300" height="715" fill="none" xmlns="http://www.w3.org/2000/svg">
  <g clip-path="url(#a)">
    <g opacity=".7" filter="url(#b)">
      <path d="M125.07-5.46c-12.908-54.724 20.496-109.862 74.418-122.822 53.366-12.826 106.727 20.527 119.502 74.687l69.818 295.987c13.036 55.266-21.156 110.827-75.779 123.138L20.483 431.467c-53.53 12.065-106.427-22.041-118.457-76.384-12.155-54.91 22.008-109.567 76.095-121.757l193.012-43.503L125.07-5.461Z" fill="#E31587"/>
    </g>
    <path d="M64.835 670.269c-5.48-8.343-3.342-19.587 4.826-25.391l.489-.341c7.823-5.561 9.81-16.386 4.412-24.321-5.398-7.936-16.157-10.007-24.154-4.702l-.496.335c-8.434 5.593-19.779 3.41-25.47-4.957-5.748-8.451-3.552-20.011 4.907-25.82 24.937-17.127 58.894-10.81 75.844 14.108 16.949 24.918 10.474 59.002-14.464 76.128-8.374 5.751-19.746 3.709-25.55-4.532l-.174-.252-.17-.255Z" fill="#952BB9"/>
    <path d="M764.826 415.888c23.537-8.214 36.193-33.844 28.189-57.094-7.922-23.01-33.109-35.013-56.403-26.884l-127.308 44.43c-23.771 8.296-36.397 34.321-27.984 57.679l45.061 125.096c8.245 22.89 33.603 34.541 56.789 26.089 23.428-8.541 35.723-34.339 27.392-57.467l-29.73-82.535 83.994-29.314Z" fill="url(#c)"/>
    <path d="M939.5 153c13.531 0 24.5 11.034 24.5 24.646 0 13.611-10.969 24.646-24.5 24.646S915 191.257 915 177.646C915 164.034 925.969 153 939.5 153Z" fill="#E31587"/>
    <path d="M121.156 558.957c-7.194 2.163-14.846-2.136-17.091-9.603-2.246-7.467 1.766-15.274 8.96-17.437 7.194-2.163 14.846 2.136 17.091 9.603 2.245 7.467-1.766 15.274-8.96 17.437Z" fill="#FFBD4F"/>
    <path fill-rule="evenodd" clip-rule="evenodd" d="M724.773 71.552c10.252-6.893 24.438-4.396 31.757 5.662l43.934 60.551c7.416 10.213 5.031 24.276-5.295 31.48-10.325 7.203-24.652 4.738-32.068-5.474l-43.934-60.551c-7.304-10.12-5.09-24.028 4.982-31.29l.312-.19.312-.188Z" fill="#00B3F4"/>
    <path fill="url(#d)" d="M0-2h1300v717H0z"/>
  </g>
  <defs>
    <linearGradient id="c" x1="640.325" y1="564.576" x2="659.689" y2="229.176" gradientUnits="userSpaceOnUse">
      <stop stop-color="#FF8A16"/>
      <stop offset="1" stop-color="#FFE747"/>
    </linearGradient>
    <linearGradient id="d" x1="613.039" y1="325.083" x2="2023.59" y2="1251.63" gradientUnits="userSpaceOnUse">
      <stop stop-color="#fff" stop-opacity="0"/>
      <stop offset="1" stop-color="#E50080"/>
    </linearGradient>
    <clipPath id="a">
      <path fill="#fff" d="M0 0h1300v715H0z"/>
    </clipPath>
    <filter id="b" x="-192.43" y="-223.025" width="676.011" height="748.918" filterUnits="userSpaceOnUse" color-interpolation-filters="sRGB">
      <feFlood flood-opacity="0" result="BackgroundImageFix"/>
      <feBlend in="SourceGraphic" in2="BackgroundImageFix" result="shape"/>
      <feGaussianBlur stdDeviation="46" result="effect1_foregroundBlur_1959_49340"/>
    </filter>
  </defs>
</svg>
