<!-- This Source Code Form is subject to the terms of the Mozilla Public
   - License, v. 2.0. If a copy of the MPL was not distributed with this
   - file, You can obtain one at http://mozilla.org/MPL/2.0/. -->
<svg xmlns="http://www.w3.org/2000/svg" viewBox="0 0 16 16" width="16" height="16" fill="context-fill" fill-opacity="context-fill-opacity">
  <path d="m9.108 7.776 4.709-4.709a.626.626 0 0 0-.884-.885L8.244 6.871l-.488 0-4.689-4.688a.625.625 0 1 0-.884.885L6.87 7.754l0 .491-4.687 4.687a.626.626 0 0 0 .884.885L7.754 9.13l.491 0 4.687 4.687a.627.627 0 0 0 .885 0 .626.626 0 0 0 0-.885L9.108 8.223l0-.447z"/>
</svg>
