<!-- This Source Code Form is subject to the terms of the Mozilla Public
   - License, v. 2.0. If a copy of the MPL was not distributed with this
   - file, You can obtain one at http://mozilla.org/MPL/2.0/. -->
<svg width="19" height="22" viewBox="0 0 19 22" fill="none" xmlns="http://www.w3.org/2000/svg">
<path d="M2.333 1.7651L2.33302 1.76511L17.333 10.4251C17.4343 10.4836 17.5184 10.5678 17.577 10.6691C17.6355 10.7704 17.6663 10.8854 17.6663 11.0024C17.6663 11.1194 17.6355 11.2344 17.577 11.3357L18.443 11.8357L17.577 11.3357C17.5184 11.4371 17.4343 11.5212 17.333 11.5797L17.3327 11.5799L2.33301 20.2464C2.33292 20.2464 2.33282 20.2465 2.33273 20.2465C2.23145 20.305 2.1166 20.3357 1.99968 20.3357C1.88266 20.3357 1.76769 20.3049 1.66635 20.2464C1.565 20.1879 1.48084 20.1037 1.42233 20.0024C1.36382 19.901 1.33301 19.7861 1.33301 19.6691V2.33821C1.33375 2.22195 1.36488 2.1079 1.42332 2.00737C1.48202 1.9064 1.56622 1.82262 1.66749 1.76443C1.76876 1.70623 1.88354 1.67566 2.00034 1.67578C2.11713 1.6759 2.23185 1.7067 2.333 1.7651Z" stroke="white" stroke-width="2"/>
</svg>
