<!-- This Source Code Form is subject to the terms of the Mozilla Public
   - License, v. 2.0. If a copy of the MPL was not distributed with this
   - file, You can obtain one at http://mozilla.org/MPL/2.0/. -->
<svg width="16" height="17" viewBox="0 0 16 17" fill="context-fill" xmlns="http://www.w3.org/2000/svg">
<path d="M13.25 6.551V1.5C13.25 1.23478 13.1446 0.98043 12.9571 0.792893C12.7696 0.605357 12.5152 0.5 12.25 0.5H3.75C3.48478 0.5 3.23043 0.605357 3.04289 0.792893C2.85536 0.98043 2.75 1.23478 2.75 1.5V6.551C2.53726 6.60326 2.34801 6.72495 2.21217 6.89682C2.07634 7.06869 2.00168 7.28094 2 7.5V9.5C2 10.0304 2.21071 10.5391 2.58579 10.9142C2.96086 11.2893 3.46957 11.5 4 11.5H6.5V15C6.5 15.3978 6.65804 15.7794 6.93934 16.0607C7.22064 16.342 7.60218 16.5 8 16.5C8.39782 16.5 8.77936 16.342 9.06066 16.0607C9.34196 15.7794 9.5 15.3978 9.5 15V11.5H12C12.5304 11.5 13.0391 11.2893 13.4142 10.9142C13.7893 10.5391 14 10.0304 14 9.5V7.5C13.9983 7.28094 13.9237 7.06869 13.7878 6.89682C13.652 6.72495 13.4627 6.60326 13.25 6.551ZM4 6.5V2.6L4.6 2H5.368L6.139 2.856C6.28834 3.02247 6.4964 3.12454 6.71945 3.14077C6.9425 3.15699 7.16314 3.0861 7.335 2.943L7.867 2.5H8.532L9.256 3.224C9.43947 3.40736 9.687 3.51225 9.94635 3.51654C10.2057 3.52084 10.4566 3.42419 10.646 3.247L11.444 2.5H12V6.5H4Z" fill="#5B5B66"/>
</svg>
