<svg xmlns="http://www.w3.org/2000/svg" width="16" height="16" viewBox="0 0 16 16"><path fill="context-fill" d="M15.845 6.063A1.1 1.1 0 0 0 15 5.331l-1.125-.2-1.729 1.723.872.156-2.45 2.635.5 3.572L8 11.618l-1.291.673-3.468 3.468a1.057 1.057 0 0 0 1.066.038L8 13.874l3.688 1.921a1.1 1.1 0 0 0 1.6-1.126l-.609-4.358 2.926-3.147a1.1 1.1 0 0 0 .24-1.101zm-1.138-4.77a1 1 0 0 0-1.414 0L10.6 3.983 8.984.733A1.093 1.093 0 0 0 8 .124a1.1 1.1 0 0 0-.985.609L5.089 4.6l-4.082.729a1.1 1.1 0 0 0-.614 1.833L3.32 10.31l-.155 1.111-1.872 1.872a1 1 0 1 0 1.414 1.414l12-12a1 1 0 0 0 0-1.414zM2.981 7.01l3.449-.617L8 3.243l1.111 2.232L5.2 9.391z"></path></svg>