<!-- This Source Code Form is subject to the terms of the Mozilla Public
- License, v. 2.0. If a copy of the MPL was not distributed with this
- file, You can obtain one at http://mozilla.org/MPL/2.0/. -->
<svg width="150" height="150" viewBox="0 0 150 150" fill="none" xmlns="http://www.w3.org/2000/svg">
<rect x="1" y="1" width="148" height="148" rx="13" fill="white" stroke="#DCDCDC" stroke-width="2"/>
<path d="M16 16H20.069V20.069H16V16ZM20.069 16H24.1379V20.069H20.069V16ZM24.1379 16H28.2069V20.069H24.1379V16ZM28.2069 16H32.2759V20.069H28.2069V16ZM32.2759 16H36.3448V20.069H32.2759V16ZM36.3448 16H40.4138V20.069H36.3448V16ZM40.4138 16H44.4828V20.069H40.4138V16ZM64.8276 16H68.8966V20.069H64.8276V16ZM68.8966 16H72.9655V20.069H68.8966V16ZM77.0345 16H81.1034V20.069H77.0345V16ZM81.1034 16H85.1724V20.069H81.1034V16ZM85.1724 16H89.2414V20.069H85.1724V16ZM89.2414 16H93.3103V20.069H89.2414V16ZM93.3103 16H97.3793V20.069H93.3103V16ZM105.517 16H109.586V20.069H105.517V16ZM109.586 16H113.655V20.069H109.586V16ZM113.655 16H117.724V20.069H113.655V16ZM117.724 16H121.793V20.069H117.724V16ZM121.793 16H125.862V20.069H121.793V16ZM125.862 16H129.931V20.069H125.862V16ZM129.931 16H134V20.069H129.931V16ZM16 20.069H20.069V24.1379H16V20.069ZM40.4138 20.069H44.4828V24.1379H40.4138V20.069ZM48.5517 20.069H52.6207V24.1379H48.5517V20.069ZM56.6897 20.069H60.7586V24.1379H56.6897V20.069ZM68.8966 20.069H72.9655V24.1379H68.8966V20.069ZM72.9655 20.069H77.0345V24.1379H72.9655V20.069ZM77.0345 20.069H81.1034V24.1379H77.0345V20.069ZM81.1034 20.069H85.1724V24.1379H81.1034V20.069ZM97.3793 20.069H101.448V24.1379H97.3793V20.069ZM105.517 20.069H109.586V24.1379H105.517V20.069ZM129.931 20.069H134V24.1379H129.931V20.069ZM16 24.1379H20.069V28.2069H16V24.1379ZM24.1379 24.1379H28.2069V28.2069H24.1379V24.1379ZM28.2069 24.1379H32.2759V28.2069H28.2069V24.1379ZM32.2759 24.1379H36.3448V28.2069H32.2759V24.1379ZM40.4138 24.1379H44.4828V28.2069H40.4138V24.1379ZM52.6207 24.1379H56.6897V28.2069H52.6207V24.1379ZM56.6897 24.1379H60.7586V28.2069H56.6897V24.1379ZM60.7586 24.1379H64.8276V28.2069H60.7586V24.1379ZM81.1034 24.1379H85.1724V28.2069H81.1034V24.1379ZM85.1724 24.1379H89.2414V28.2069H85.1724V24.1379ZM93.3103 24.1379H97.3793V28.2069H93.3103V24.1379ZM97.3793 24.1379H101.448V28.2069H97.3793V24.1379ZM105.517 24.1379H109.586V28.2069H105.517V24.1379ZM113.655 24.1379H117.724V28.2069H113.655V24.1379ZM117.724 24.1379H121.793V28.2069H117.724V24.1379ZM121.793 24.1379H125.862V28.2069H121.793V24.1379ZM129.931 24.1379H134V28.2069H129.931V24.1379ZM16 28.2069H20.069V32.2759H16V28.2069ZM24.1379 28.2069H28.2069V32.2759H24.1379V28.2069ZM28.2069 28.2069H32.2759V32.2759H28.2069V28.2069ZM32.2759 28.2069H36.3448V32.2759H32.2759V28.2069ZM40.4138 28.2069H44.4828V32.2759H40.4138V28.2069ZM56.6897 28.2069H60.7586V32.2759H56.6897V28.2069ZM60.7586 28.2069H64.8276V32.2759H60.7586V28.2069ZM68.8966 28.2069H72.9655V32.2759H68.8966V28.2069ZM72.9655 28.2069H77.0345V32.2759H72.9655V28.2069ZM77.0345 28.2069H81.1034V32.2759H77.0345V28.2069ZM93.3103 28.2069H97.3793V32.2759H93.3103V28.2069ZM105.517 28.2069H109.586V32.2759H105.517V28.2069ZM113.655 28.2069H117.724V32.2759H113.655V28.2069ZM117.724 28.2069H121.793V32.2759H117.724V28.2069ZM121.793 28.2069H125.862V32.2759H121.793V28.2069ZM129.931 28.2069H134V32.2759H129.931V28.2069ZM16 32.2759H20.069V36.3448H16V32.2759ZM24.1379 32.2759H28.2069V36.3448H24.1379V32.2759ZM28.2069 32.2759H32.2759V36.3448H28.2069V32.2759ZM32.2759 32.2759H36.3448V36.3448H32.2759V32.2759ZM40.4138 32.2759H44.4828V36.3448H40.4138V32.2759ZM60.7586 32.2759H64.8276V36.3448H60.7586V32.2759ZM64.8276 32.2759H68.8966V36.3448H64.8276V32.2759ZM68.8966 32.2759H72.9655V36.3448H68.8966V32.2759ZM72.9655 32.2759H77.0345V36.3448H72.9655V32.2759ZM77.0345 32.2759H81.1034V36.3448H77.0345V32.2759ZM81.1034 32.2759H85.1724V36.3448H81.1034V32.2759ZM89.2414 32.2759H93.3103V36.3448H89.2414V32.2759ZM105.517 32.2759H109.586V36.3448H105.517V32.2759ZM113.655 32.2759H117.724V36.3448H113.655V32.2759ZM117.724 32.2759H121.793V36.3448H117.724V32.2759ZM121.793 32.2759H125.862V36.3448H121.793V32.2759ZM129.931 32.2759H134V36.3448H129.931V32.2759ZM16 36.3448H20.069V40.4138H16V36.3448ZM40.4138 36.3448H44.4828V40.4138H40.4138V36.3448ZM48.5517 36.3448H52.6207V40.4138H48.5517V36.3448ZM52.6207 36.3448H56.6897V40.4138H52.6207V36.3448ZM56.6897 36.3448H60.7586V40.4138H56.6897V36.3448ZM60.7586 36.3448H64.8276V40.4138H60.7586V36.3448ZM68.8966 36.3448H72.9655V40.4138H68.8966V36.3448ZM77.0345 36.3448H81.1034V40.4138H77.0345V36.3448ZM89.2414 36.3448H93.3103V40.4138H89.2414V36.3448ZM93.3103 36.3448H97.3793V40.4138H93.3103V36.3448ZM97.3793 36.3448H101.448V40.4138H97.3793V36.3448ZM105.517 36.3448H109.586V40.4138H105.517V36.3448ZM129.931 36.3448H134V40.4138H129.931V36.3448ZM16 40.4138H20.069V44.4828H16V40.4138ZM20.069 40.4138H24.1379V44.4828H20.069V40.4138ZM24.1379 40.4138H28.2069V44.4828H24.1379V40.4138ZM28.2069 40.4138H32.2759V44.4828H28.2069V40.4138ZM32.2759 40.4138H36.3448V44.4828H32.2759V40.4138ZM36.3448 40.4138H40.4138V44.4828H36.3448V40.4138ZM40.4138 40.4138H44.4828V44.4828H40.4138V40.4138ZM48.5517 40.4138H52.6207V44.4828H48.5517V40.4138ZM56.6897 40.4138H60.7586V44.4828H56.6897V40.4138ZM64.8276 40.4138H68.8966V44.4828H64.8276V40.4138ZM72.9655 40.4138H77.0345V44.4828H72.9655V40.4138ZM81.1034 40.4138H85.1724V44.4828H81.1034V40.4138ZM89.2414 40.4138H93.3103V44.4828H89.2414V40.4138ZM97.3793 40.4138H101.448V44.4828H97.3793V40.4138ZM105.517 40.4138H109.586V44.4828H105.517V40.4138ZM109.586 40.4138H113.655V44.4828H109.586V40.4138ZM113.655 40.4138H117.724V44.4828H113.655V40.4138ZM117.724 40.4138H121.793V44.4828H117.724V40.4138ZM121.793 40.4138H125.862V44.4828H121.793V40.4138ZM125.862 40.4138H129.931V44.4828H125.862V40.4138ZM129.931 40.4138H134V44.4828H129.931V40.4138ZM48.5517 44.4828H52.6207V48.5517H48.5517V44.4828ZM52.6207 44.4828H56.6897V48.5517H52.6207V44.4828ZM56.6897 44.4828H60.7586V48.5517H56.6897V44.4828ZM72.9655 44.4828H77.0345V48.5517H72.9655V44.4828ZM77.0345 44.4828H81.1034V48.5517H77.0345V44.4828ZM85.1724 44.4828H89.2414V48.5517H85.1724V44.4828ZM89.2414 44.4828H93.3103V48.5517H89.2414V44.4828ZM93.3103 44.4828H97.3793V48.5517H93.3103V44.4828ZM32.2759 48.5517H36.3448V52.6207H32.2759V48.5517ZM36.3448 48.5517H40.4138V52.6207H36.3448V48.5517ZM40.4138 48.5517H44.4828V52.6207H40.4138V48.5517ZM44.4828 48.5517H48.5517V52.6207H44.4828V48.5517ZM52.6207 48.5517H56.6897V52.6207H52.6207V48.5517ZM60.7586 48.5517H64.8276V52.6207H60.7586V48.5517ZM64.8276 48.5517H68.8966V52.6207H64.8276V48.5517ZM68.8966 48.5517H72.9655V52.6207H68.8966V48.5517ZM77.0345 48.5517H81.1034V52.6207H77.0345V48.5517ZM81.1034 48.5517H85.1724V52.6207H81.1034V48.5517ZM89.2414 48.5517H93.3103V52.6207H89.2414V48.5517ZM97.3793 48.5517H101.448V52.6207H97.3793V48.5517ZM105.517 48.5517H109.586V52.6207H105.517V48.5517ZM109.586 48.5517H113.655V52.6207H109.586V48.5517ZM125.862 48.5517H129.931V52.6207H125.862V48.5517ZM16 52.6207H20.069V56.6897H16V52.6207ZM20.069 52.6207H24.1379V56.6897H20.069V52.6207ZM28.2069 52.6207H32.2759V56.6897H28.2069V52.6207ZM36.3448 52.6207H40.4138V56.6897H36.3448V52.6207ZM44.4828 52.6207H48.5517V56.6897H44.4828V52.6207ZM48.5517 52.6207H52.6207V56.6897H48.5517V52.6207ZM56.6897 52.6207H60.7586V56.6897H56.6897V52.6207ZM60.7586 52.6207H64.8276V56.6897H60.7586V52.6207ZM68.8966 52.6207H72.9655V56.6897H68.8966V52.6207ZM93.3103 52.6207H97.3793V56.6897H93.3103V52.6207ZM97.3793 52.6207H101.448V56.6897H97.3793V52.6207ZM109.586 52.6207H113.655V56.6897H109.586V52.6207ZM113.655 52.6207H117.724V56.6897H113.655V52.6207ZM117.724 52.6207H121.793V56.6897H117.724V52.6207ZM121.793 52.6207H125.862V56.6897H121.793V52.6207ZM125.862 52.6207H129.931V56.6897H125.862V52.6207ZM129.931 52.6207H134V56.6897H129.931V52.6207ZM16 56.6897H20.069V60.7586H16V56.6897ZM20.069 56.6897H24.1379V60.7586H20.069V56.6897ZM24.1379 56.6897H28.2069V60.7586H24.1379V56.6897ZM28.2069 56.6897H32.2759V60.7586H28.2069V56.6897ZM32.2759 56.6897H36.3448V60.7586H32.2759V56.6897ZM40.4138 56.6897H44.4828V60.7586H40.4138V56.6897ZM44.4828 56.6897H48.5517V60.7586H44.4828V56.6897ZM52.6207 56.6897H56.6897V60.7586H52.6207V56.6897ZM60.7586 56.6897H64.8276V60.7586H60.7586V56.6897ZM64.8276 56.6897H68.8966V60.7586H64.8276V56.6897ZM68.8966 56.6897H72.9655V60.7586H68.8966V56.6897ZM72.9655 56.6897H77.0345V60.7586H72.9655V56.6897ZM77.0345 56.6897H81.1034V60.7586H77.0345V56.6897ZM81.1034 56.6897H85.1724V60.7586H81.1034V56.6897ZM85.1724 56.6897H89.2414V60.7586H85.1724V56.6897ZM89.2414 56.6897H93.3103V60.7586H89.2414V56.6897ZM101.448 56.6897H105.517V60.7586H101.448V56.6897ZM113.655 56.6897H117.724V60.7586H113.655V56.6897ZM117.724 56.6897H121.793V60.7586H117.724V56.6897ZM129.931 56.6897H134V60.7586H129.931V56.6897ZM16 60.7586H20.069V64.8276H16V60.7586ZM24.1379 60.7586H28.2069V64.8276H24.1379V60.7586ZM28.2069 60.7586H32.2759V64.8276H28.2069V60.7586ZM32.2759 60.7586H36.3448V64.8276H32.2759V60.7586ZM48.5517 60.7586H52.6207V64.8276H48.5517V60.7586ZM56.6897 60.7586H60.7586V64.8276H56.6897V60.7586ZM64.8276 60.7586H68.8966V64.8276H64.8276V60.7586ZM72.9655 60.7586H77.0345V64.8276H72.9655V60.7586ZM85.1724 60.7586H89.2414V64.8276H85.1724V60.7586ZM89.2414 60.7586H93.3103V64.8276H89.2414V60.7586ZM101.448 60.7586H105.517V64.8276H101.448V60.7586ZM125.862 60.7586H129.931V64.8276H125.862V60.7586ZM129.931 60.7586H134V64.8276H129.931V60.7586ZM20.069 64.8276H24.1379V68.8966H20.069V64.8276ZM24.1379 64.8276H28.2069V68.8966H24.1379V64.8276ZM32.2759 64.8276H36.3448V68.8966H32.2759V64.8276ZM36.3448 64.8276H40.4138V68.8966H36.3448V64.8276ZM40.4138 64.8276H44.4828V68.8966H40.4138V64.8276ZM48.5517 64.8276H52.6207V68.8966H48.5517V64.8276ZM64.8276 64.8276H68.8966V68.8966H64.8276V64.8276ZM68.8966 64.8276H72.9655V68.8966H68.8966V64.8276ZM72.9655 64.8276H77.0345V68.8966H72.9655V64.8276ZM85.1724 64.8276H89.2414V68.8966H85.1724V64.8276ZM93.3103 64.8276H97.3793V68.8966H93.3103V64.8276ZM109.586 64.8276H113.655V68.8966H109.586V64.8276ZM117.724 64.8276H121.793V68.8966H117.724V64.8276ZM129.931 64.8276H134V68.8966H129.931V64.8276ZM20.069 68.8966H24.1379V72.9655H20.069V68.8966ZM24.1379 68.8966H28.2069V72.9655H24.1379V68.8966ZM28.2069 68.8966H32.2759V72.9655H28.2069V68.8966ZM36.3448 68.8966H40.4138V72.9655H36.3448V68.8966ZM44.4828 68.8966H48.5517V72.9655H44.4828V68.8966ZM48.5517 68.8966H52.6207V72.9655H48.5517V68.8966ZM52.6207 68.8966H56.6897V72.9655H52.6207V68.8966ZM68.8966 68.8966H72.9655V72.9655H68.8966V68.8966ZM77.0345 68.8966H81.1034V72.9655H77.0345V68.8966ZM85.1724 68.8966H89.2414V72.9655H85.1724V68.8966ZM89.2414 68.8966H93.3103V72.9655H89.2414V68.8966ZM105.517 68.8966H109.586V72.9655H105.517V68.8966ZM113.655 68.8966H117.724V72.9655H113.655V68.8966ZM121.793 68.8966H125.862V72.9655H121.793V68.8966ZM129.931 68.8966H134V72.9655H129.931V68.8966ZM16 72.9655H20.069V77.0345H16V72.9655ZM28.2069 72.9655H32.2759V77.0345H28.2069V72.9655ZM40.4138 72.9655H44.4828V77.0345H40.4138V72.9655ZM44.4828 72.9655H48.5517V77.0345H44.4828V72.9655ZM48.5517 72.9655H52.6207V77.0345H48.5517V72.9655ZM52.6207 72.9655H56.6897V77.0345H52.6207V72.9655ZM64.8276 72.9655H68.8966V77.0345H64.8276V72.9655ZM68.8966 72.9655H72.9655V77.0345H68.8966V72.9655ZM72.9655 72.9655H77.0345V77.0345H72.9655V72.9655ZM77.0345 72.9655H81.1034V77.0345H77.0345V72.9655ZM81.1034 72.9655H85.1724V77.0345H81.1034V72.9655ZM97.3793 72.9655H101.448V77.0345H97.3793V72.9655ZM113.655 72.9655H117.724V77.0345H113.655V72.9655ZM129.931 72.9655H134V77.0345H129.931V72.9655ZM16 77.0345H20.069V81.1034H16V77.0345ZM20.069 77.0345H24.1379V81.1034H20.069V77.0345ZM24.1379 77.0345H28.2069V81.1034H24.1379V77.0345ZM28.2069 77.0345H32.2759V81.1034H28.2069V77.0345ZM44.4828 77.0345H48.5517V81.1034H44.4828V77.0345ZM48.5517 77.0345H52.6207V81.1034H48.5517V77.0345ZM52.6207 77.0345H56.6897V81.1034H52.6207V77.0345ZM56.6897 77.0345H60.7586V81.1034H56.6897V77.0345ZM72.9655 77.0345H77.0345V81.1034H72.9655V77.0345ZM77.0345 77.0345H81.1034V81.1034H77.0345V77.0345ZM85.1724 77.0345H89.2414V81.1034H85.1724V77.0345ZM97.3793 77.0345H101.448V81.1034H97.3793V77.0345ZM101.448 77.0345H105.517V81.1034H101.448V77.0345ZM109.586 77.0345H113.655V81.1034H109.586V77.0345ZM117.724 77.0345H121.793V81.1034H117.724V77.0345ZM125.862 77.0345H129.931V81.1034H125.862V77.0345ZM129.931 77.0345H134V81.1034H129.931V77.0345ZM24.1379 81.1034H28.2069V85.1724H24.1379V81.1034ZM28.2069 81.1034H32.2759V85.1724H28.2069V81.1034ZM36.3448 81.1034H40.4138V85.1724H36.3448V81.1034ZM40.4138 81.1034H44.4828V85.1724H40.4138V81.1034ZM48.5517 81.1034H52.6207V85.1724H48.5517V81.1034ZM64.8276 81.1034H68.8966V85.1724H64.8276V81.1034ZM68.8966 81.1034H72.9655V85.1724H68.8966V81.1034ZM81.1034 81.1034H85.1724V85.1724H81.1034V81.1034ZM89.2414 81.1034H93.3103V85.1724H89.2414V81.1034ZM109.586 81.1034H113.655V85.1724H109.586V81.1034ZM113.655 81.1034H117.724V85.1724H113.655V81.1034ZM125.862 81.1034H129.931V85.1724H125.862V81.1034ZM129.931 81.1034H134V85.1724H129.931V81.1034ZM16 85.1724H20.069V89.2414H16V85.1724ZM24.1379 85.1724H28.2069V89.2414H24.1379V85.1724ZM44.4828 85.1724H48.5517V89.2414H44.4828V85.1724ZM48.5517 85.1724H52.6207V89.2414H48.5517V85.1724ZM52.6207 85.1724H56.6897V89.2414H52.6207V85.1724ZM64.8276 85.1724H68.8966V89.2414H64.8276V85.1724ZM68.8966 85.1724H72.9655V89.2414H68.8966V85.1724ZM72.9655 85.1724H77.0345V89.2414H72.9655V85.1724ZM77.0345 85.1724H81.1034V89.2414H77.0345V85.1724ZM93.3103 85.1724H97.3793V89.2414H93.3103V85.1724ZM101.448 85.1724H105.517V89.2414H101.448V85.1724ZM105.517 85.1724H109.586V89.2414H105.517V85.1724ZM109.586 85.1724H113.655V89.2414H109.586V85.1724ZM113.655 85.1724H117.724V89.2414H113.655V85.1724ZM129.931 85.1724H134V89.2414H129.931V85.1724ZM24.1379 89.2414H28.2069V93.3103H24.1379V89.2414ZM28.2069 89.2414H32.2759V93.3103H28.2069V89.2414ZM32.2759 89.2414H36.3448V93.3103H32.2759V89.2414ZM40.4138 89.2414H44.4828V93.3103H40.4138V89.2414ZM44.4828 89.2414H48.5517V93.3103H44.4828V89.2414ZM64.8276 89.2414H68.8966V93.3103H64.8276V89.2414ZM81.1034 89.2414H85.1724V93.3103H81.1034V89.2414ZM85.1724 89.2414H89.2414V93.3103H85.1724V89.2414ZM97.3793 89.2414H101.448V93.3103H97.3793V89.2414ZM109.586 89.2414H113.655V93.3103H109.586V89.2414ZM113.655 89.2414H117.724V93.3103H113.655V89.2414ZM117.724 89.2414H121.793V93.3103H117.724V89.2414ZM121.793 89.2414H125.862V93.3103H121.793V89.2414ZM129.931 89.2414H134V93.3103H129.931V89.2414ZM32.2759 93.3103H36.3448V97.3793H32.2759V93.3103ZM44.4828 93.3103H48.5517V97.3793H44.4828V93.3103ZM48.5517 93.3103H52.6207V97.3793H48.5517V93.3103ZM52.6207 93.3103H56.6897V97.3793H52.6207V93.3103ZM56.6897 93.3103H60.7586V97.3793H56.6897V93.3103ZM68.8966 93.3103H72.9655V97.3793H68.8966V93.3103ZM77.0345 93.3103H81.1034V97.3793H77.0345V93.3103ZM81.1034 93.3103H85.1724V97.3793H81.1034V93.3103ZM85.1724 93.3103H89.2414V97.3793H85.1724V93.3103ZM93.3103 93.3103H97.3793V97.3793H93.3103V93.3103ZM109.586 93.3103H113.655V97.3793H109.586V93.3103ZM125.862 93.3103H129.931V97.3793H125.862V93.3103ZM16 97.3793H20.069V101.448H16V97.3793ZM20.069 97.3793H24.1379V101.448H20.069V97.3793ZM24.1379 97.3793H28.2069V101.448H24.1379V97.3793ZM32.2759 97.3793H36.3448V101.448H32.2759V97.3793ZM36.3448 97.3793H40.4138V101.448H36.3448V97.3793ZM40.4138 97.3793H44.4828V101.448H40.4138V97.3793ZM44.4828 97.3793H48.5517V101.448H44.4828V97.3793ZM52.6207 97.3793H56.6897V101.448H52.6207V97.3793ZM60.7586 97.3793H64.8276V101.448H60.7586V97.3793ZM68.8966 97.3793H72.9655V101.448H68.8966V97.3793ZM72.9655 97.3793H77.0345V101.448H72.9655V97.3793ZM77.0345 97.3793H81.1034V101.448H77.0345V97.3793ZM85.1724 97.3793H89.2414V101.448H85.1724V97.3793ZM89.2414 97.3793H93.3103V101.448H89.2414V97.3793ZM97.3793 97.3793H101.448V101.448H97.3793V97.3793ZM101.448 97.3793H105.517V101.448H101.448V97.3793ZM105.517 97.3793H109.586V101.448H105.517V97.3793ZM109.586 97.3793H113.655V101.448H109.586V97.3793ZM113.655 97.3793H117.724V101.448H113.655V97.3793ZM125.862 97.3793H129.931V101.448H125.862V97.3793ZM48.5517 101.448H52.6207V105.517H48.5517V101.448ZM56.6897 101.448H60.7586V105.517H56.6897V101.448ZM72.9655 101.448H77.0345V105.517H72.9655V101.448ZM77.0345 101.448H81.1034V105.517H77.0345V101.448ZM81.1034 101.448H85.1724V105.517H81.1034V101.448ZM85.1724 101.448H89.2414V105.517H85.1724V101.448ZM89.2414 101.448H93.3103V105.517H89.2414V101.448ZM93.3103 101.448H97.3793V105.517H93.3103V101.448ZM97.3793 101.448H101.448V105.517H97.3793V101.448ZM113.655 101.448H117.724V105.517H113.655V101.448ZM121.793 101.448H125.862V105.517H121.793V101.448ZM129.931 101.448H134V105.517H129.931V101.448ZM16 105.517H20.069V109.586H16V105.517ZM20.069 105.517H24.1379V109.586H20.069V105.517ZM24.1379 105.517H28.2069V109.586H24.1379V105.517ZM28.2069 105.517H32.2759V109.586H28.2069V105.517ZM32.2759 105.517H36.3448V109.586H32.2759V105.517ZM36.3448 105.517H40.4138V109.586H36.3448V105.517ZM40.4138 105.517H44.4828V109.586H40.4138V105.517ZM48.5517 105.517H52.6207V109.586H48.5517V105.517ZM64.8276 105.517H68.8966V109.586H64.8276V105.517ZM68.8966 105.517H72.9655V109.586H68.8966V105.517ZM89.2414 105.517H93.3103V109.586H89.2414V105.517ZM93.3103 105.517H97.3793V109.586H93.3103V105.517ZM97.3793 105.517H101.448V109.586H97.3793V105.517ZM105.517 105.517H109.586V109.586H105.517V105.517ZM113.655 105.517H117.724V109.586H113.655V105.517ZM129.931 105.517H134V109.586H129.931V105.517ZM16 109.586H20.069V113.655H16V109.586ZM40.4138 109.586H44.4828V113.655H40.4138V109.586ZM48.5517 109.586H52.6207V113.655H48.5517V109.586ZM52.6207 109.586H56.6897V113.655H52.6207V109.586ZM72.9655 109.586H77.0345V113.655H72.9655V109.586ZM85.1724 109.586H89.2414V113.655H85.1724V109.586ZM89.2414 109.586H93.3103V113.655H89.2414V109.586ZM93.3103 109.586H97.3793V113.655H93.3103V109.586ZM97.3793 109.586H101.448V113.655H97.3793V109.586ZM113.655 109.586H117.724V113.655H113.655V109.586ZM117.724 109.586H121.793V113.655H117.724V109.586ZM125.862 109.586H129.931V113.655H125.862V109.586ZM16 113.655H20.069V117.724H16V113.655ZM24.1379 113.655H28.2069V117.724H24.1379V113.655ZM28.2069 113.655H32.2759V117.724H28.2069V113.655ZM32.2759 113.655H36.3448V117.724H32.2759V113.655ZM40.4138 113.655H44.4828V117.724H40.4138V113.655ZM48.5517 113.655H52.6207V117.724H48.5517V113.655ZM52.6207 113.655H56.6897V117.724H52.6207V113.655ZM68.8966 113.655H72.9655V117.724H68.8966V113.655ZM72.9655 113.655H77.0345V117.724H72.9655V113.655ZM77.0345 113.655H81.1034V117.724H77.0345V113.655ZM85.1724 113.655H89.2414V117.724H85.1724V113.655ZM93.3103 113.655H97.3793V117.724H93.3103V113.655ZM97.3793 113.655H101.448V117.724H97.3793V113.655ZM101.448 113.655H105.517V117.724H101.448V113.655ZM105.517 113.655H109.586V117.724H105.517V113.655ZM109.586 113.655H113.655V117.724H109.586V113.655ZM113.655 113.655H117.724V117.724H113.655V113.655ZM125.862 113.655H129.931V117.724H125.862V113.655ZM129.931 113.655H134V117.724H129.931V113.655ZM16 117.724H20.069V121.793H16V117.724ZM24.1379 117.724H28.2069V121.793H24.1379V117.724ZM28.2069 117.724H32.2759V121.793H28.2069V117.724ZM32.2759 117.724H36.3448V121.793H32.2759V117.724ZM40.4138 117.724H44.4828V121.793H40.4138V117.724ZM56.6897 117.724H60.7586V121.793H56.6897V117.724ZM60.7586 117.724H64.8276V121.793H60.7586V117.724ZM81.1034 117.724H85.1724V121.793H81.1034V117.724ZM85.1724 117.724H89.2414V121.793H85.1724V117.724ZM89.2414 117.724H93.3103V121.793H89.2414V117.724ZM109.586 117.724H113.655V121.793H109.586V117.724ZM117.724 117.724H121.793V121.793H117.724V117.724ZM121.793 117.724H125.862V121.793H121.793V117.724ZM125.862 117.724H129.931V121.793H125.862V117.724ZM16 121.793H20.069V125.862H16V121.793ZM24.1379 121.793H28.2069V125.862H24.1379V121.793ZM28.2069 121.793H32.2759V125.862H28.2069V121.793ZM32.2759 121.793H36.3448V125.862H32.2759V121.793ZM40.4138 121.793H44.4828V125.862H40.4138V121.793ZM56.6897 121.793H60.7586V125.862H56.6897V121.793ZM64.8276 121.793H68.8966V125.862H64.8276V121.793ZM72.9655 121.793H77.0345V125.862H72.9655V121.793ZM81.1034 121.793H85.1724V125.862H81.1034V121.793ZM85.1724 121.793H89.2414V125.862H85.1724V121.793ZM89.2414 121.793H93.3103V125.862H89.2414V121.793ZM93.3103 121.793H97.3793V125.862H93.3103V121.793ZM97.3793 121.793H101.448V125.862H97.3793V121.793ZM101.448 121.793H105.517V125.862H101.448V121.793ZM117.724 121.793H121.793V125.862H117.724V121.793ZM121.793 121.793H125.862V125.862H121.793V121.793ZM125.862 121.793H129.931V125.862H125.862V121.793ZM129.931 121.793H134V125.862H129.931V121.793ZM16 125.862H20.069V129.931H16V125.862ZM40.4138 125.862H44.4828V129.931H40.4138V125.862ZM52.6207 125.862H56.6897V129.931H52.6207V125.862ZM60.7586 125.862H64.8276V129.931H60.7586V125.862ZM64.8276 125.862H68.8966V129.931H64.8276V125.862ZM72.9655 125.862H77.0345V129.931H72.9655V125.862ZM77.0345 125.862H81.1034V129.931H77.0345V125.862ZM89.2414 125.862H93.3103V129.931H89.2414V125.862ZM101.448 125.862H105.517V129.931H101.448V125.862ZM105.517 125.862H109.586V129.931H105.517V125.862ZM109.586 125.862H113.655V129.931H109.586V125.862ZM117.724 125.862H121.793V129.931H117.724V125.862ZM125.862 125.862H129.931V129.931H125.862V125.862ZM129.931 125.862H134V129.931H129.931V125.862ZM16 129.931H20.069V134H16V129.931ZM20.069 129.931H24.1379V134H20.069V129.931ZM24.1379 129.931H28.2069V134H24.1379V129.931ZM28.2069 129.931H32.2759V134H28.2069V129.931ZM32.2759 129.931H36.3448V134H32.2759V129.931ZM36.3448 129.931H40.4138V134H36.3448V129.931ZM40.4138 129.931H44.4828V134H40.4138V129.931ZM52.6207 129.931H56.6897V134H52.6207V129.931ZM56.6897 129.931H60.7586V134H56.6897V129.931ZM64.8276 129.931H68.8966V134H64.8276V129.931ZM72.9655 129.931H77.0345V134H72.9655V129.931ZM81.1034 129.931H85.1724V134H81.1034V129.931ZM89.2414 129.931H93.3103V134H89.2414V129.931ZM97.3793 129.931H101.448V134H97.3793V129.931ZM113.655 129.931H117.724V134H113.655V129.931ZM121.793 129.931H125.862V134H121.793V129.931ZM125.862 129.931H129.931V134H125.862V129.931Z" fill="black"/>
</svg>
