
<!-- This Source Code Form is subject to the terms of the Mozilla Public
- License, v. 2.0. If a copy of the MPL was not distributed with this
- file, You can obtain one at http://mozilla.org/MPL/2.0/. -->
<svg width="150" height="150" viewBox="0 0 150 150" fill="none" xmlns="http://www.w3.org/2000/svg"><g clip-path="url(#a)"><path d="M136 1H14C6.82 1 1 6.82 1 14v122c0 7.18 5.82 13 13 13h122c7.18 0 13-5.82 13-13V14c0-7.18-5.82-13-13-13Z" fill="#fff" stroke="#DCDCDC" stroke-width="2"/><path d="M16 16h3.576v3.576H16V16Zm3.576 0h3.575v3.576h-3.575V16Zm3.575 0h3.576v3.576h-3.576V16Zm3.576 0h3.576v3.576h-3.576V16Zm3.576 0h3.576v3.576h-3.576V16Zm3.576 0h3.576v3.576h-3.576V16Zm3.576 0h3.575v3.576h-3.575V16Zm17.878 0h3.576v3.576h-3.576V16Zm17.88 0h3.575v3.576h-3.576V16Zm10.726 0h3.576v3.576H83.94V16Zm3.576 0h3.576v3.576h-3.576V16Zm3.576 0h3.576v3.576H91.09V16Zm3.576 0h3.575v3.576h-3.575V16Zm7.151 0h3.576v3.576h-3.576V16Zm7.152 0h3.575v3.576h-3.575V16Zm3.575 0h3.576v3.576h-3.576V16Zm3.576 0h3.576v3.576h-3.576V16Zm3.576 0h3.576v3.576h-3.576V16Zm3.576 0h3.575v3.576h-3.575V16Zm3.575 0h3.576v3.576h-3.576V16Zm3.576 0H134v3.576h-3.576V16ZM16 19.576h3.576v3.575H16v-3.575Zm21.455 0h3.575v3.575h-3.575v-3.575Zm7.151 0h3.576v3.575h-3.576v-3.575Zm3.576 0h3.576v3.575h-3.576v-3.575Zm7.151 0h3.576v3.575h-3.576v-3.575Zm3.576 0h3.576v3.575h-3.576v-3.575Zm7.152 0h3.575v3.575h-3.575v-3.575Zm3.575 0h3.576v3.575h-3.576v-3.575Zm3.576 0h3.576v3.575h-3.576v-3.575Zm10.727 0h3.576v3.575H83.94v-3.575Zm25.031 0h3.575v3.575h-3.575v-3.575Zm21.454 0H134v3.575h-3.576v-3.575ZM16 23.15h3.576v3.576H16v-3.576Zm7.151 0h3.576v3.576h-3.576v-3.576Zm3.576 0h3.576v3.576h-3.576v-3.576Zm3.576 0h3.576v3.576h-3.576v-3.576Zm7.152 0h3.575v3.576h-3.575v-3.576Zm7.151 0h3.576v3.576h-3.576v-3.576Zm14.303 0h3.576v3.576h-3.576v-3.576Zm3.576 0h3.576v3.576h-3.576v-3.576Zm7.151 0h3.576v3.576h-3.576v-3.576Zm10.728 0h3.575v3.576h-3.575v-3.576Zm3.575 0h3.576v3.576H83.94v-3.576Zm3.576 0h3.576v3.576h-3.576v-3.576Zm3.576 0h3.576v3.576H91.09v-3.576Zm10.727 0h3.576v3.576h-3.576v-3.576Zm7.152 0h3.575v3.576h-3.575v-3.576Zm7.151 0h3.576v3.576h-3.576v-3.576Zm3.576 0h3.576v3.576h-3.576v-3.576Zm3.576 0h3.575v3.576h-3.575v-3.576Zm7.151 0H134v3.576h-3.576v-3.576ZM16 26.727h3.576v3.576H16v-3.576Zm7.151 0h3.576v3.576h-3.576v-3.576Zm3.576 0h3.576v3.576h-3.576v-3.576Zm3.576 0h3.576v3.576h-3.576v-3.576Zm7.152 0h3.575v3.576h-3.575v-3.576Zm7.151 0h3.576v3.576h-3.576v-3.576Zm7.152 0h3.575v3.576h-3.575v-3.576Zm17.878 0h3.576v3.576h-3.576v-3.576Zm3.576 0h3.576v3.576h-3.576v-3.576Zm7.152 0h3.575v3.576h-3.575v-3.576Zm10.727 0h3.576v3.576H91.09v-3.576Zm7.151 0h3.576v3.576h-3.576v-3.576Zm10.728 0h3.575v3.576h-3.575v-3.576Zm7.151 0h3.576v3.576h-3.576v-3.576Zm3.576 0h3.576v3.576h-3.576v-3.576Zm3.576 0h3.575v3.576h-3.575v-3.576Zm7.151 0H134v3.576h-3.576v-3.576ZM16 30.303h3.576v3.576H16v-3.576Zm7.151 0h3.576v3.576h-3.576v-3.576Zm3.576 0h3.576v3.576h-3.576v-3.576Zm3.576 0h3.576v3.576h-3.576v-3.576Zm7.152 0h3.575v3.576h-3.575v-3.576Zm7.151 0h3.576v3.576h-3.576v-3.576Zm7.152 0h3.575v3.576h-3.575v-3.576Zm7.151 0h3.576v3.576h-3.576v-3.576Zm7.152 0h3.575v3.576h-3.575v-3.576Zm3.575 0h3.576v3.576h-3.576v-3.576Zm7.152 0h3.576v3.576h-3.576v-3.576Zm3.576 0h3.575v3.576h-3.575v-3.576Zm7.151 0h3.576v3.576h-3.576v-3.576Zm3.576 0h3.576v3.576H91.09v-3.576Zm3.576 0h3.575v3.576h-3.575v-3.576Zm3.575 0h3.576v3.576h-3.576v-3.576Zm10.728 0h3.575v3.576h-3.575v-3.576Zm7.151 0h3.576v3.576h-3.576v-3.576Zm3.576 0h3.576v3.576h-3.576v-3.576Zm3.576 0h3.575v3.576h-3.575v-3.576Zm7.151 0H134v3.576h-3.576v-3.576ZM16 33.879h3.576v3.576H16v-3.576Zm21.455 0h3.575v3.576h-3.575v-3.576Zm7.151 0h3.576v3.576h-3.576v-3.576Zm7.152 0h3.575v3.576h-3.575v-3.576Zm7.151 0h3.576v3.576h-3.576v-3.576Zm10.727 0h3.576v3.576h-3.576v-3.576Zm17.88 0h3.575v3.576h-3.576v-3.576Zm3.575 0h3.576v3.576H91.09v-3.576Zm7.151 0h3.576v3.576h-3.576v-3.576Zm10.728 0h3.575v3.576h-3.575v-3.576Zm21.454 0H134v3.576h-3.576v-3.576ZM16 37.455h3.576v3.575H16v-3.575Zm3.576 0h3.575v3.575h-3.575v-3.575Zm3.575 0h3.576v3.575h-3.576v-3.575Zm3.576 0h3.576v3.575h-3.576v-3.575Zm3.576 0h3.576v3.575h-3.576v-3.575Zm3.576 0h3.576v3.575h-3.576v-3.575Zm3.576 0h3.575v3.575h-3.575v-3.575Zm7.151 0h3.576v3.575h-3.576v-3.575Zm7.152 0h3.575v3.575h-3.575v-3.575Zm7.151 0h3.576v3.575h-3.576v-3.575Zm7.152 0h3.575v3.575h-3.575v-3.575Zm7.151 0h3.576v3.575h-3.576v-3.575Zm7.152 0h3.575v3.575h-3.575v-3.575Zm7.151 0h3.576v3.575h-3.576v-3.575Zm7.152 0h3.575v3.575h-3.575v-3.575Zm7.151 0h3.576v3.575h-3.576v-3.575Zm7.152 0h3.575v3.575h-3.575v-3.575Zm3.575 0h3.576v3.575h-3.576v-3.575Zm3.576 0h3.576v3.575h-3.576v-3.575Zm3.576 0h3.576v3.575h-3.576v-3.575Zm3.576 0h3.575v3.575h-3.575v-3.575Zm3.575 0h3.576v3.575h-3.576v-3.575Zm3.576 0H134v3.575h-3.576v-3.575ZM51.758 41.03h3.575v3.576h-3.575V41.03Zm3.575 0h3.576v3.576h-3.576V41.03Zm10.728 0h3.575v3.576h-3.575V41.03Zm3.575 0h3.576v3.576h-3.576V41.03Zm14.303 0h3.576v3.576H83.94V41.03Zm14.303 0h3.576v3.576h-3.576V41.03Zm3.576 0h3.576v3.576h-3.576V41.03Zm-78.666 3.576h3.575v3.576h-3.576v-3.576Zm10.727 0h3.576v3.576h-3.576v-3.576Zm3.576 0h3.575v3.576h-3.575v-3.576Zm3.575 0h3.576v3.576H41.03v-3.576Zm3.576 0h3.576v3.576h-3.576v-3.576Zm28.606 0h3.576v3.576h-3.576v-3.576Zm7.152 0h3.575v3.576h-3.575v-3.576Zm3.575 0h3.576v3.576H83.94v-3.576Zm10.728 0h3.575v3.576h-3.575v-3.576Zm10.727 0h3.576v3.576h-3.576v-3.576Zm7.151 0h3.576v3.576h-3.576v-3.576Zm3.576 0h3.576v3.576h-3.576v-3.576Zm3.576 0h3.576v3.576h-3.576v-3.576Zm3.576 0h3.575v3.576h-3.575v-3.576Zm3.575 0h3.576v3.576h-3.576v-3.576ZM16 48.182h3.576v3.576H16v-3.576Zm3.576 0h3.575v3.576h-3.575v-3.576Zm3.575 0h3.576v3.576h-3.576v-3.576Zm3.576 0h3.576v3.576h-3.576v-3.576Zm7.152 0h3.576v3.576h-3.576v-3.576Zm17.879 0h3.575v3.576h-3.575v-3.576Zm10.727 0h3.576v3.576h-3.576v-3.576Zm7.151 0h3.576v3.576h-3.576v-3.576Zm3.576 0h3.576v3.576h-3.576v-3.576Zm3.576 0h3.576v3.576h-3.576v-3.576Zm3.576 0h3.575v3.576h-3.575v-3.576Zm14.303 0h3.575v3.576h-3.575v-3.576Zm3.575 0h3.576v3.576h-3.576v-3.576Zm7.152 0h3.576v3.576h-3.576v-3.576Zm3.576 0h3.575v3.576h-3.575v-3.576Zm3.575 0h3.576v3.576h-3.576v-3.576Zm7.152 0h3.576v3.576h-3.576v-3.576Zm3.576 0h3.575v3.576h-3.575v-3.576Zm7.151 0H134v3.576h-3.576v-3.576ZM16 51.758h3.576v3.575H16v-3.575Zm3.576 0h3.575v3.575h-3.575v-3.575Zm7.151 0h3.576v3.575h-3.576v-3.575Zm3.576 0h3.576v3.575h-3.576v-3.575Zm3.576 0h3.576v3.575h-3.576v-3.575Zm3.576 0h3.575v3.575h-3.575v-3.575Zm3.575 0h3.576v3.575H41.03v-3.575Zm3.576 0h3.576v3.575h-3.576v-3.575Zm10.727 0h3.576v3.575h-3.576v-3.575Zm7.152 0h3.576v3.575h-3.576v-3.575Zm3.576 0h3.575v3.575h-3.575v-3.575Zm3.575 0h3.576v3.575h-3.576v-3.575Zm3.576 0h3.576v3.575h-3.576v-3.575Zm7.152 0h3.575v3.575h-3.575v-3.575Zm3.575 0h3.576v3.575H83.94v-3.575Zm3.576 0h3.576v3.575h-3.576v-3.575Zm3.576 0h3.576v3.575H91.09v-3.575Zm3.576 0h3.575v3.575h-3.575v-3.575Zm3.575 0h3.576v3.575h-3.576v-3.575Zm3.576 0h3.576v3.575h-3.576v-3.575Zm3.576 0h3.576v3.575h-3.576v-3.575Zm7.151 0h3.576v3.575h-3.576v-3.575Zm3.576 0h3.576v3.575h-3.576v-3.575Zm3.576 0h3.576v3.575h-3.576v-3.575Zm10.727 0H134v3.575h-3.576v-3.575ZM16 55.333h3.576v3.576H16v-3.576Zm7.151 0h3.576v3.576h-3.576v-3.576Zm3.576 0h3.576v3.576h-3.576v-3.576Zm3.576 0h3.576v3.576h-3.576v-3.576Zm21.455 0h3.575v3.576h-3.575v-3.576Zm7.151 0h3.576v3.576h-3.576v-3.576Zm3.576 0h3.576v3.576h-3.576v-3.576Zm3.576 0h3.575v3.576h-3.575v-3.576Zm7.151 0h3.576v3.576h-3.576v-3.576Zm7.152 0h3.575v3.576h-3.575v-3.576Zm14.303 0h3.575v3.576h-3.575v-3.576Zm10.727 0h3.576v3.576h-3.576v-3.576Zm7.151 0h3.576v3.576h-3.576v-3.576Zm14.303 0h3.576v3.576h-3.576v-3.576ZM16 58.91h3.576v3.576H16v-3.576Zm21.455 0h3.575v3.576h-3.575v-3.576Zm10.727 0h3.576v3.576h-3.576v-3.576Zm7.151 0h3.576v3.576h-3.576v-3.576Zm10.728 0h3.575v3.576h-3.575v-3.576Zm3.575 0h3.576v3.576h-3.576v-3.576Zm3.576 0h3.576v3.576h-3.576v-3.576Zm3.576 0h3.576v3.576h-3.576v-3.576Zm3.576 0h3.575v3.576h-3.575v-3.576Zm10.727 0h3.576v3.576H91.09v-3.576Zm3.576 0h3.575v3.576h-3.575v-3.576Zm3.575 0h3.576v3.576h-3.576v-3.576Zm3.576 0h3.576v3.576h-3.576v-3.576Zm7.152 0h3.575v3.576h-3.575v-3.576Zm7.151 0h3.576v3.576h-3.576v-3.576Zm3.576 0h3.576v3.576h-3.576v-3.576ZM16 62.485h3.576v3.576H16v-3.576Zm14.303 0h3.576v3.576h-3.576v-3.576Zm17.879 0h3.576v3.576h-3.576v-3.576Zm3.576 0h3.575v3.576h-3.575v-3.576Zm3.575 0h3.576v3.576h-3.576v-3.576Zm3.576 0h3.576v3.576h-3.576v-3.576Zm7.152 0h3.575v3.576h-3.575v-3.576Zm3.575 0h3.576v3.576h-3.576v-3.576Zm10.728 0h3.575v3.576h-3.575v-3.576Zm10.727 0h3.576v3.576H91.09v-3.576Zm3.576 0h3.575v3.576h-3.575v-3.576Zm3.575 0h3.576v3.576h-3.576v-3.576Zm3.576 0h3.576v3.576h-3.576v-3.576Zm7.152 0h3.575v3.576h-3.575v-3.576Zm21.454 0H134v3.576h-3.576v-3.576ZM16 66.06h3.576v3.575H16v-3.575Zm7.151 0h3.576v3.575h-3.576v-3.575Zm3.576 0h3.576v3.575h-3.576v-3.575Zm10.728 0h3.575v3.575h-3.575v-3.575Zm7.151 0h3.576v3.575h-3.576v-3.575Zm7.152 0h3.575v3.575h-3.575v-3.575Zm10.727 0h3.576v3.575h-3.576v-3.575Zm10.727 0h3.576v3.575h-3.576v-3.575Zm3.576 0h3.576v3.575h-3.576v-3.575Zm3.576 0h3.575v3.575h-3.575v-3.575Zm7.151 0h3.576v3.575h-3.576v-3.575Zm10.727 0h3.576v3.575h-3.576v-3.575Zm3.576 0h3.576v3.575h-3.576v-3.575Zm3.576 0h3.576v3.575h-3.576v-3.575Zm3.576 0h3.575v3.575h-3.575v-3.575Zm7.151 0h3.576v3.575h-3.576v-3.575Zm7.152 0h3.575v3.575h-3.575v-3.575Zm7.151 0H134v3.575h-3.576v-3.575ZM16 69.636h3.576v3.576H16v-3.576Zm3.576 0h3.575v3.576h-3.575v-3.576Zm3.575 0h3.576v3.576h-3.576v-3.576Zm7.152 0h3.576v3.576h-3.576v-3.576Zm3.576 0h3.576v3.576h-3.576v-3.576Zm7.151 0h3.576v3.576H41.03v-3.576Zm7.152 0h3.576v3.576h-3.576v-3.576Zm3.576 0h3.575v3.576h-3.575v-3.576Zm3.575 0h3.576v3.576h-3.576v-3.576Zm10.728 0h3.575v3.576h-3.575v-3.576Zm3.575 0h3.576v3.576h-3.576v-3.576Zm3.576 0h3.576v3.576h-3.576v-3.576Zm3.576 0h3.576v3.576h-3.576v-3.576Zm7.151 0h3.576v3.576H83.94v-3.576Zm3.576 0h3.576v3.576h-3.576v-3.576Zm7.152 0h3.575v3.576h-3.575v-3.576Zm7.151 0h3.576v3.576h-3.576v-3.576Zm7.152 0h3.575v3.576h-3.575v-3.576Zm17.878 0h3.576v3.576h-3.576v-3.576Zm3.576 0H134v3.576h-3.576v-3.576ZM19.576 73.212h3.575v3.576h-3.575v-3.576Zm7.151 0h3.576v3.576h-3.576v-3.576Zm10.728 0h3.575v3.576h-3.575v-3.576Zm7.151 0h3.576v3.576h-3.576v-3.576Zm3.576 0h3.576v3.576h-3.576v-3.576Zm7.151 0h3.576v3.576h-3.576v-3.576Zm3.576 0h3.576v3.576h-3.576v-3.576Zm3.576 0h3.576v3.576h-3.576v-3.576Zm7.151 0h3.576v3.576h-3.576v-3.576Zm3.576 0h3.576v3.576h-3.576v-3.576Zm21.455 0h3.575v3.576h-3.575v-3.576Zm10.727 0h3.576v3.576h-3.576v-3.576Zm3.576 0h3.575v3.576h-3.575v-3.576Zm10.727 0h3.576v3.576h-3.576v-3.576Zm3.576 0h3.575v3.576h-3.575v-3.576Zm3.575 0h3.576v3.576h-3.576v-3.576ZM16 76.788h3.576v3.576H16v-3.576Zm3.576 0h3.575v3.576h-3.575v-3.576Zm7.151 0h3.576v3.576h-3.576v-3.576Zm3.576 0h3.576v3.576h-3.576v-3.576Zm3.576 0h3.576v3.576h-3.576v-3.576Zm7.151 0h3.576v3.576H41.03v-3.576Zm3.576 0h3.576v3.576h-3.576v-3.576Zm10.727 0h3.576v3.576h-3.576v-3.576Zm10.728 0h3.575v3.576h-3.575v-3.576Zm10.727 0h3.576v3.576h-3.576v-3.576Zm10.727 0h3.576v3.576h-3.576v-3.576Zm3.576 0h3.576v3.576H91.09v-3.576Zm7.151 0h3.576v3.576h-3.576v-3.576Zm7.152 0h3.576v3.576h-3.576v-3.576Zm3.576 0h3.575v3.576h-3.575v-3.576Zm3.575 0h3.576v3.576h-3.576v-3.576Zm10.728 0h3.575v3.576h-3.575v-3.576Zm3.575 0h3.576v3.576h-3.576v-3.576Zm3.576 0H134v3.576h-3.576v-3.576ZM16 80.364h3.576v3.575H16v-3.575Zm17.879 0h3.576v3.575h-3.576v-3.575Zm3.576 0h3.575v3.575h-3.575v-3.575Zm14.303 0h3.575v3.575h-3.575v-3.575Zm14.303 0h3.575v3.575h-3.575v-3.575Zm3.575 0h3.576v3.575h-3.576v-3.575Zm7.152 0h3.576v3.575h-3.576v-3.575Zm21.454 0h3.576v3.575h-3.576v-3.575Zm17.879 0h3.576v3.575h-3.576v-3.575Zm3.576 0h3.576v3.575h-3.576v-3.575Zm3.576 0h3.575v3.575h-3.575v-3.575Zm3.575 0h3.576v3.575h-3.576v-3.575Zm3.576 0H134v3.575h-3.576v-3.575ZM19.576 83.939h3.575v3.576h-3.575V83.94Zm3.575 0h3.576v3.576h-3.576V83.94Zm3.576 0h3.576v3.576h-3.576V83.94Zm21.455 0h3.576v3.576h-3.576V83.94Zm14.303 0h3.576v3.576h-3.576V83.94Zm3.576 0h3.575v3.576h-3.575V83.94Zm7.151 0h3.576v3.576h-3.576V83.94Zm7.152 0h3.575v3.576h-3.575V83.94Zm17.878 0h3.576v3.576h-3.576V83.94Zm10.728 0h3.575v3.576h-3.575V83.94Zm3.575 0h3.576v3.576h-3.576V83.94Zm3.576 0h3.576v3.576h-3.576V83.94Zm3.576 0h3.576v3.576h-3.576V83.94Zm7.151 0h3.576v3.576h-3.576V83.94ZM16 87.515h3.576v3.576H16v-3.576Zm21.455 0h3.575v3.576h-3.575v-3.576Zm3.575 0h3.576v3.576H41.03v-3.576Zm3.576 0h3.576v3.576h-3.576v-3.576Zm10.727 0h3.576v3.576h-3.576v-3.576Zm7.152 0h3.576v3.576h-3.576v-3.576Zm3.576 0h3.575v3.576h-3.575v-3.576Zm3.575 0h3.576v3.576h-3.576v-3.576Zm3.576 0h3.576v3.576h-3.576v-3.576Zm7.152 0h3.575v3.576h-3.575v-3.576Zm7.151 0h3.576v3.576h-3.576v-3.576Zm10.727 0h3.576v3.576h-3.576v-3.576Zm14.303 0h3.576v3.576h-3.576v-3.576Zm-92.97 3.576h3.576v3.576h-3.575V91.09Zm7.152 0h3.576v3.576h-3.576V91.09Zm3.576 0h3.576v3.576h-3.576V91.09Zm21.455 0h3.575v3.576h-3.575V91.09Zm7.151 0h3.576v3.576h-3.576V91.09Zm3.576 0h3.576v3.576h-3.576V91.09Zm3.576 0h3.575v3.576h-3.575V91.09Zm3.575 0h3.576v3.576h-3.576V91.09Zm7.152 0h3.576v3.576h-3.576V91.09Zm35.757 0h3.576v3.576h-3.576V91.09Zm7.152 0h3.576v3.576h-3.576V91.09Zm3.576 0h3.575v3.576h-3.575V91.09Zm7.151 0H134v3.576h-3.576V91.09ZM16 94.667h3.576v3.575H16v-3.575Zm3.576 0h3.575v3.575h-3.575v-3.575Zm3.575 0h3.576v3.575h-3.576v-3.575Zm7.152 0h3.576v3.575h-3.576v-3.575Zm3.576 0h3.576v3.575h-3.576v-3.575Zm3.576 0h3.575v3.575h-3.575v-3.575Zm3.575 0h3.576v3.575H41.03v-3.575Zm7.152 0h3.576v3.575h-3.576v-3.575Zm3.576 0h3.575v3.575h-3.575v-3.575Zm7.151 0h3.576v3.575h-3.576v-3.575Zm17.879 0h3.576v3.575h-3.576v-3.575Zm7.151 0h3.576v3.575H83.94v-3.575Zm3.576 0h3.576v3.575h-3.576v-3.575Zm7.152 0h3.575v3.575h-3.575v-3.575Zm3.575 0h3.576v3.575h-3.576v-3.575Zm7.152 0h3.576v3.575h-3.576v-3.575Zm3.576 0h3.575v3.575h-3.575v-3.575Zm3.575 0h3.576v3.575h-3.576v-3.575Zm17.879 0H134v3.575h-3.576v-3.575ZM26.727 98.242h3.576v3.576h-3.576v-3.576Zm7.152 0h3.576v3.576h-3.576v-3.576Zm14.303 0h3.576v3.576h-3.576v-3.576Zm7.151 0h3.576v3.576h-3.576v-3.576Zm3.576 0h3.576v3.576h-3.576v-3.576Zm7.152 0h3.575v3.576h-3.575v-3.576Zm3.575 0h3.576v3.576h-3.576v-3.576Zm17.88 0h3.575v3.576h-3.576v-3.576Zm28.605 0h3.576v3.576h-3.576v-3.576Zm3.576 0h3.576v3.576h-3.576v-3.576Zm7.151 0h3.576v3.576h-3.576v-3.576Zm3.576 0H134v3.576h-3.576v-3.576ZM16 101.818h3.576v3.576H16v-3.576Zm3.576 0h3.575v3.576h-3.575v-3.576Zm14.303 0h3.576v3.576h-3.576v-3.576Zm3.576 0h3.575v3.576h-3.575v-3.576Zm7.151 0h3.576v3.576h-3.576v-3.576Zm3.576 0h3.576v3.576h-3.576v-3.576Zm3.576 0h3.575v3.576h-3.575v-3.576Zm3.575 0h3.576v3.576h-3.576v-3.576Zm7.152 0h3.576v3.576h-3.576v-3.576Zm3.576 0h3.575v3.576h-3.575v-3.576Zm10.727 0h3.576v3.576h-3.576v-3.576Zm10.727 0h3.576v3.576h-3.576v-3.576Zm7.152 0h3.575v3.576h-3.575v-3.576Zm3.575 0h3.576v3.576h-3.576v-3.576Zm3.576 0h3.576v3.576h-3.576v-3.576Zm3.576 0h3.576v3.576h-3.576v-3.576Zm3.576 0h3.575v3.576h-3.575v-3.576Zm3.575 0h3.576v3.576h-3.576v-3.576Zm3.576 0h3.576v3.576h-3.576v-3.576Zm10.727 0h3.576v3.576h-3.576v-3.576Zm3.576 0H134v3.576h-3.576v-3.576Zm-85.818 3.576h3.576v3.576h-3.576v-3.576Zm7.152 0h3.575v3.576h-3.575v-3.576Zm3.575 0h3.576v3.576h-3.576v-3.576Zm17.88 0h3.575v3.576h-3.576v-3.576Zm3.575 0h3.576v3.576h-3.576v-3.576Zm7.151 0h3.576v3.576H83.94v-3.576Zm3.576 0h3.576v3.576h-3.576v-3.576Zm3.576 0h3.576v3.576H91.09v-3.576Zm7.151 0h3.576v3.576h-3.576v-3.576Zm3.576 0h3.576v3.576h-3.576v-3.576Zm14.303 0h3.576v3.576h-3.576v-3.576Zm3.576 0h3.576v3.576h-3.576v-3.576Zm3.576 0h3.575v3.576h-3.575v-3.576Zm7.151 0H134v3.576h-3.576v-3.576ZM16 108.97h3.576v3.575H16v-3.575Zm3.576 0h3.575v3.575h-3.575v-3.575Zm3.575 0h3.576v3.575h-3.576v-3.575Zm3.576 0h3.576v3.575h-3.576v-3.575Zm3.576 0h3.576v3.575h-3.576v-3.575Zm3.576 0h3.576v3.575h-3.576v-3.575Zm3.576 0h3.575v3.575h-3.575v-3.575Zm7.151 0h3.576v3.575h-3.576v-3.575Zm7.152 0h3.575v3.575h-3.575v-3.575Zm10.727 0h3.576v3.575h-3.576v-3.575Zm7.151 0h3.576v3.575h-3.576v-3.575Zm3.576 0h3.576v3.575h-3.576v-3.575Zm7.152 0h3.575v3.575h-3.575v-3.575Zm3.575 0h3.576v3.575H83.94v-3.575Zm3.576 0h3.576v3.575h-3.576v-3.575Zm14.303 0h3.576v3.575h-3.576v-3.575Zm7.152 0h3.575v3.575h-3.575v-3.575Zm7.151 0h3.576v3.575h-3.576v-3.575Zm14.303 0H134v3.575h-3.576v-3.575ZM16 112.545h3.576v3.576H16v-3.576Zm21.455 0h3.575v3.576h-3.575v-3.576Zm7.151 0h3.576v3.576h-3.576v-3.576Zm7.152 0h3.575v3.576h-3.575v-3.576Zm7.151 0h3.576v3.576h-3.576v-3.576Zm7.152 0h3.575v3.576h-3.575v-3.576Zm7.151 0h3.576v3.576h-3.576v-3.576Zm3.576 0h3.576v3.576h-3.576v-3.576Zm10.727 0h3.576v3.576h-3.576v-3.576Zm3.576 0h3.576v3.576H91.09v-3.576Zm10.727 0h3.576v3.576h-3.576v-3.576Zm14.303 0h3.576v3.576h-3.576v-3.576Zm3.576 0h3.576v3.576h-3.576v-3.576Zm7.151 0h3.576v3.576h-3.576v-3.576Zm3.576 0H134v3.576h-3.576v-3.576ZM16 116.121h3.576v3.576H16v-3.576Zm7.151 0h3.576v3.576h-3.576v-3.576Zm3.576 0h3.576v3.576h-3.576v-3.576Zm3.576 0h3.576v3.576h-3.576v-3.576Zm7.152 0h3.575v3.576h-3.575v-3.576Zm14.303 0h3.575v3.576h-3.575v-3.576Zm3.575 0h3.576v3.576h-3.576v-3.576Zm7.152 0h3.576v3.576h-3.576v-3.576Zm10.727 0h3.576v3.576h-3.576v-3.576Zm7.152 0h3.575v3.576h-3.575v-3.576Zm3.575 0h3.576v3.576H83.94v-3.576Zm7.152 0h3.576v3.576H91.09v-3.576Zm7.151 0h3.576v3.576h-3.576v-3.576Zm3.576 0h3.576v3.576h-3.576v-3.576Zm3.576 0h3.576v3.576h-3.576v-3.576Zm3.576 0h3.575v3.576h-3.575v-3.576Zm3.575 0h3.576v3.576h-3.576v-3.576Zm3.576 0h3.576v3.576h-3.576v-3.576Zm3.576 0h3.576v3.576h-3.576v-3.576ZM16 119.697h3.576v3.576H16v-3.576Zm7.151 0h3.576v3.576h-3.576v-3.576Zm3.576 0h3.576v3.576h-3.576v-3.576Zm3.576 0h3.576v3.576h-3.576v-3.576Zm7.152 0h3.575v3.576h-3.575v-3.576Zm10.727 0h3.576v3.576h-3.576v-3.576Zm17.879 0h3.575v3.576h-3.575v-3.576Zm7.151 0h3.576v3.576h-3.576v-3.576Zm7.152 0h3.575v3.576h-3.575v-3.576Zm10.727 0h3.576v3.576H91.09v-3.576Zm10.727 0h3.576v3.576h-3.576v-3.576Zm3.576 0h3.576v3.576h-3.576v-3.576Zm7.151 0h3.576v3.576h-3.576v-3.576Zm3.576 0h3.576v3.576h-3.576v-3.576Zm3.576 0h3.576v3.576h-3.576v-3.576Zm3.576 0h3.575v3.576h-3.575v-3.576Zm3.575 0h3.576v3.576h-3.576v-3.576ZM16 123.273h3.576v3.575H16v-3.575Zm7.151 0h3.576v3.575h-3.576v-3.575Zm3.576 0h3.576v3.575h-3.576v-3.575Zm3.576 0h3.576v3.575h-3.576v-3.575Zm7.152 0h3.575v3.575h-3.575v-3.575Zm7.151 0h3.576v3.575h-3.576v-3.575Zm7.152 0h3.575v3.575h-3.575v-3.575Zm3.575 0h3.576v3.575h-3.576v-3.575Zm10.728 0h3.575v3.575h-3.575v-3.575Zm3.575 0h3.576v3.575h-3.576v-3.575Zm3.576 0h3.576v3.575h-3.576v-3.575Zm3.576 0h3.576v3.575h-3.576v-3.575Zm21.454 0h3.576v3.575h-3.576v-3.575Zm3.576 0h3.576v3.575h-3.576v-3.575Zm14.303 0h3.576v3.575h-3.576v-3.575Zm3.576 0h3.576v3.575h-3.576v-3.575Zm7.151 0h3.576v3.575h-3.576v-3.575Zm3.576 0H134v3.575h-3.576v-3.575ZM16 126.848h3.576v3.576H16v-3.576Zm21.455 0h3.575v3.576h-3.575v-3.576Zm10.727 0h3.576v3.576h-3.576v-3.576Zm7.151 0h3.576v3.576h-3.576v-3.576Zm3.576 0h3.576v3.576h-3.576v-3.576Zm10.727 0h3.576v3.576h-3.576v-3.576Zm3.576 0h3.576v3.576h-3.576v-3.576Zm3.576 0h3.576v3.576h-3.576v-3.576Zm10.727 0h3.576v3.576h-3.576v-3.576Zm7.152 0h3.575v3.576h-3.575v-3.576Zm7.151 0h3.576v3.576h-3.576v-3.576Zm3.576 0h3.576v3.576h-3.576v-3.576Zm3.576 0h3.575v3.576h-3.575v-3.576Zm10.727 0h3.576v3.576h-3.576v-3.576Zm3.576 0h3.575v3.576h-3.575v-3.576ZM16 130.424h3.576V134H16v-3.576Zm3.576 0h3.575V134h-3.575v-3.576Zm3.575 0h3.576V134h-3.576v-3.576Zm3.576 0h3.576V134h-3.576v-3.576Zm3.576 0h3.576V134h-3.576v-3.576Zm3.576 0h3.576V134h-3.576v-3.576Zm3.576 0h3.575V134h-3.575v-3.576Zm10.727 0h3.576V134h-3.576v-3.576Zm3.576 0h3.575V134h-3.575v-3.576Zm3.575 0h3.576V134h-3.576v-3.576Zm3.576 0h3.576V134h-3.576v-3.576Zm3.576 0h3.576V134h-3.576v-3.576Zm14.303 0h3.576V134h-3.576v-3.576Zm25.03 0h3.576V134h-3.576v-3.576Zm3.576 0h3.576V134h-3.576v-3.576Zm3.576 0h3.575V134h-3.575v-3.576Zm7.151 0h3.576V134h-3.576v-3.576Zm3.576 0h3.576V134h-3.576v-3.576Zm3.576 0h3.575V134h-3.575v-3.576Zm7.151 0H134V134h-3.576v-3.576Z" fill="#000"/></g><defs><clipPath id="a"><path fill="#fff" d="M0 0h150v150H0z"/></clipPath></defs></svg>