<!-- This Source Code Form is subject to the terms of the Mozilla Public
   - License, v. 2.0. If a copy of the MPL was not distributed with this
   - file, You can obtain one at http://mozilla.org/MPL/2.0/. -->
<svg width="98" height="98" viewBox="0 0 98 98" fill="none" xmlns="http://www.w3.org/2000/svg">
<rect width="98" height="98" rx="8" fill="white"/>
<path d="M10.5945 10.5947H13.2431V13.2434H10.5945V10.5947ZM13.2431 10.5947H15.8918V13.2434H13.2431V10.5947ZM15.8918 10.5947H18.5404V13.2434H15.8918V10.5947ZM18.5404 10.5947H21.1891V13.2434H18.5404V10.5947ZM21.1891 10.5947H23.8377V13.2434H21.1891V10.5947ZM23.8377 10.5947H26.4864V13.2434H23.8377V10.5947ZM26.4864 10.5947H29.135V13.2434H26.4864V10.5947ZM34.4323 10.5947H37.081V13.2434H34.4323V10.5947ZM42.3783 10.5947H45.0269V13.2434H42.3783V10.5947ZM45.0269 10.5947H47.6756V13.2434H45.0269V10.5947ZM50.3242 10.5947H52.9729V13.2434H50.3242V10.5947ZM52.9729 10.5947H55.6215V13.2434H52.9729V10.5947ZM58.2702 10.5947H60.9188V13.2434H58.2702V10.5947ZM60.9188 10.5947H63.5675V13.2434H60.9188V10.5947ZM68.8648 10.5947H71.5134V13.2434H68.8648V10.5947ZM71.5134 10.5947H74.1621V13.2434H71.5134V10.5947ZM74.1621 10.5947H76.8107V13.2434H74.1621V10.5947ZM76.8107 10.5947H79.4593V13.2434H76.8107V10.5947ZM79.4593 10.5947H82.108V13.2434H79.4593V10.5947ZM82.108 10.5947H84.7566V13.2434H82.108V10.5947ZM84.7566 10.5947H87.4053V13.2434H84.7566V10.5947ZM10.5945 13.2434H13.2431V15.892H10.5945V13.2434ZM26.4864 13.2434H29.135V15.892H26.4864V13.2434ZM37.081 13.2434H39.7296V15.892H37.081V13.2434ZM39.7296 13.2434H42.3783V15.892H39.7296V13.2434ZM45.0269 13.2434H47.6756V15.892H45.0269V13.2434ZM47.6756 13.2434H50.3242V15.892H47.6756V13.2434ZM50.3242 13.2434H52.9729V15.892H50.3242V13.2434ZM63.5675 13.2434H66.2161V15.892H63.5675V13.2434ZM68.8648 13.2434H71.5134V15.892H68.8648V13.2434ZM84.7566 13.2434H87.4053V15.892H84.7566V13.2434ZM10.5945 15.892H13.2431V18.5407H10.5945V15.892ZM15.8918 15.892H18.5404V18.5407H15.8918V15.892ZM18.5404 15.892H21.1891V18.5407H18.5404V15.892ZM21.1891 15.892H23.8377V18.5407H21.1891V15.892ZM26.4864 15.892H29.135V18.5407H26.4864V15.892ZM31.7837 15.892H34.4323V18.5407H31.7837V15.892ZM34.4323 15.892H37.081V18.5407H34.4323V15.892ZM37.081 15.892H39.7296V18.5407H37.081V15.892ZM45.0269 15.892H47.6756V18.5407H45.0269V15.892ZM50.3242 15.892H52.9729V18.5407H50.3242V15.892ZM58.2702 15.892H60.9188V18.5407H58.2702V15.892ZM63.5675 15.892H66.2161V18.5407H63.5675V15.892ZM68.8648 15.892H71.5134V18.5407H68.8648V15.892ZM74.1621 15.892H76.8107V18.5407H74.1621V15.892ZM76.8107 15.892H79.4593V18.5407H76.8107V15.892ZM79.4593 15.892H82.108V18.5407H79.4593V15.892ZM84.7566 15.892H87.4053V18.5407H84.7566V15.892ZM10.5945 18.5407H13.2431V21.1893H10.5945V18.5407ZM15.8918 18.5407H18.5404V21.1893H15.8918V18.5407ZM18.5404 18.5407H21.1891V21.1893H18.5404V18.5407ZM21.1891 18.5407H23.8377V21.1893H21.1891V18.5407ZM26.4864 18.5407H29.135V21.1893H26.4864V18.5407ZM31.7837 18.5407H34.4323V21.1893H31.7837V18.5407ZM34.4323 18.5407H37.081V21.1893H34.4323V18.5407ZM37.081 18.5407H39.7296V21.1893H37.081V18.5407ZM42.3783 18.5407H45.0269V21.1893H42.3783V18.5407ZM45.0269 18.5407H47.6756V21.1893H45.0269V18.5407ZM50.3242 18.5407H52.9729V21.1893H50.3242V18.5407ZM55.6215 18.5407H58.2702V21.1893H55.6215V18.5407ZM58.2702 18.5407H60.9188V21.1893H58.2702V18.5407ZM60.9188 18.5407H63.5675V21.1893H60.9188V18.5407ZM63.5675 18.5407H66.2161V21.1893H63.5675V18.5407ZM68.8648 18.5407H71.5134V21.1893H68.8648V18.5407ZM74.1621 18.5407H76.8107V21.1893H74.1621V18.5407ZM76.8107 18.5407H79.4593V21.1893H76.8107V18.5407ZM79.4593 18.5407H82.108V21.1893H79.4593V18.5407ZM84.7566 18.5407H87.4053V21.1893H84.7566V18.5407ZM10.5945 21.1893H13.2431V23.838H10.5945V21.1893ZM15.8918 21.1893H18.5404V23.838H15.8918V21.1893ZM18.5404 21.1893H21.1891V23.838H18.5404V21.1893ZM21.1891 21.1893H23.8377V23.838H21.1891V21.1893ZM26.4864 21.1893H29.135V23.838H26.4864V21.1893ZM42.3783 21.1893H45.0269V23.838H42.3783V21.1893ZM45.0269 21.1893H47.6756V23.838H45.0269V21.1893ZM47.6756 21.1893H50.3242V23.838H47.6756V21.1893ZM52.9729 21.1893H55.6215V23.838H52.9729V21.1893ZM55.6215 21.1893H58.2702V23.838H55.6215V21.1893ZM58.2702 21.1893H60.9188V23.838H58.2702V21.1893ZM60.9188 21.1893H63.5675V23.838H60.9188V21.1893ZM68.8648 21.1893H71.5134V23.838H68.8648V21.1893ZM74.1621 21.1893H76.8107V23.838H74.1621V21.1893ZM76.8107 21.1893H79.4593V23.838H76.8107V21.1893ZM79.4593 21.1893H82.108V23.838H79.4593V21.1893ZM84.7566 21.1893H87.4053V23.838H84.7566V21.1893ZM10.5945 23.838H13.2431V26.4866H10.5945V23.838ZM26.4864 23.838H29.135V26.4866H26.4864V23.838ZM50.3242 23.838H52.9729V26.4866H50.3242V23.838ZM52.9729 23.838H55.6215V26.4866H52.9729V23.838ZM55.6215 23.838H58.2702V26.4866H55.6215V23.838ZM58.2702 23.838H60.9188V26.4866H58.2702V23.838ZM68.8648 23.838H71.5134V26.4866H68.8648V23.838ZM84.7566 23.838H87.4053V26.4866H84.7566V23.838ZM10.5945 26.4866H13.2431V29.1353H10.5945V26.4866ZM13.2431 26.4866H15.8918V29.1353H13.2431V26.4866ZM15.8918 26.4866H18.5404V29.1353H15.8918V26.4866ZM18.5404 26.4866H21.1891V29.1353H18.5404V26.4866ZM21.1891 26.4866H23.8377V29.1353H21.1891V26.4866ZM23.8377 26.4866H26.4864V29.1353H23.8377V26.4866ZM26.4864 26.4866H29.135V29.1353H26.4864V26.4866ZM31.7837 26.4866H34.4323V29.1353H31.7837V26.4866ZM37.081 26.4866H39.7296V29.1353H37.081V26.4866ZM42.3783 26.4866H45.0269V29.1353H42.3783V26.4866ZM47.6756 26.4866H50.3242V29.1353H47.6756V26.4866ZM52.9729 26.4866H55.6215V29.1353H52.9729V26.4866ZM58.2702 26.4866H60.9188V29.1353H58.2702V26.4866ZM63.5675 26.4866H66.2161V29.1353H63.5675V26.4866ZM68.8648 26.4866H71.5134V29.1353H68.8648V26.4866ZM71.5134 26.4866H74.1621V29.1353H71.5134V26.4866ZM74.1621 26.4866H76.8107V29.1353H74.1621V26.4866ZM76.8107 26.4866H79.4593V29.1353H76.8107V26.4866ZM79.4593 26.4866H82.108V29.1353H79.4593V26.4866ZM82.108 26.4866H84.7566V29.1353H82.108V26.4866ZM84.7566 26.4866H87.4053V29.1353H84.7566V26.4866ZM37.081 29.1353H39.7296V31.7839H37.081V29.1353ZM39.7296 29.1353H42.3783V31.7839H39.7296V29.1353ZM42.3783 29.1353H45.0269V31.7839H42.3783V29.1353ZM52.9729 29.1353H55.6215V31.7839H52.9729V29.1353ZM63.5675 29.1353H66.2161V31.7839H63.5675V29.1353ZM18.5404 31.7839H21.1891V34.4326H18.5404V31.7839ZM21.1891 31.7839H23.8377V34.4326H21.1891V31.7839ZM26.4864 31.7839H29.135V34.4326H26.4864V31.7839ZM29.135 31.7839H31.7837V34.4326H29.135V31.7839ZM34.4323 31.7839H37.081V34.4326H34.4323V31.7839ZM37.081 31.7839H39.7296V34.4326H37.081V31.7839ZM39.7296 31.7839H42.3783V34.4326H39.7296V31.7839ZM58.2702 31.7839H60.9188V34.4326H58.2702V31.7839ZM76.8107 31.7839H79.4593V34.4326H76.8107V31.7839ZM79.4593 31.7839H82.108V34.4326H79.4593V31.7839ZM10.5945 34.4326H13.2431V37.0812H10.5945V34.4326ZM13.2431 34.4326H15.8918V37.0812H13.2431V34.4326ZM21.1891 34.4326H23.8377V37.0812H21.1891V34.4326ZM23.8377 34.4326H26.4864V37.0812H23.8377V34.4326ZM37.081 34.4326H39.7296V37.0812H37.081V34.4326ZM39.7296 34.4326H42.3783V37.0812H39.7296V34.4326ZM47.6756 34.4326H50.3242V37.0812H47.6756V34.4326ZM63.5675 34.4326H66.2161V37.0812H63.5675V34.4326ZM71.5134 34.4326H74.1621V37.0812H71.5134V34.4326ZM74.1621 34.4326H76.8107V37.0812H74.1621V34.4326ZM79.4593 34.4326H82.108V37.0812H79.4593V34.4326ZM82.108 34.4326H84.7566V37.0812H82.108V34.4326ZM13.2431 37.0812H15.8918V39.7299H13.2431V37.0812ZM15.8918 37.0812H18.5404V39.7299H15.8918V37.0812ZM18.5404 37.0812H21.1891V39.7299H18.5404V37.0812ZM26.4864 37.0812H29.135V39.7299H26.4864V37.0812ZM29.135 37.0812H31.7837V39.7299H29.135V37.0812ZM31.7837 37.0812H34.4323V39.7299H31.7837V37.0812ZM34.4323 37.0812H37.081V39.7299H34.4323V37.0812ZM37.081 37.0812H39.7296V39.7299H37.081V37.0812ZM39.7296 37.0812H42.3783V39.7299H39.7296V37.0812ZM45.0269 37.0812H47.6756V39.7299H45.0269V37.0812ZM50.3242 37.0812H52.9729V39.7299H50.3242V37.0812ZM55.6215 37.0812H58.2702V39.7299H55.6215V37.0812ZM66.2161 37.0812H68.8648V39.7299H66.2161V37.0812ZM68.8648 37.0812H71.5134V39.7299H68.8648V37.0812ZM74.1621 37.0812H76.8107V39.7299H74.1621V37.0812ZM76.8107 37.0812H79.4593V39.7299H76.8107V37.0812ZM79.4593 37.0812H82.108V39.7299H79.4593V37.0812ZM15.8918 39.7299H18.5404V42.3785H15.8918V39.7299ZM21.1891 39.7299H23.8377V42.3785H21.1891V39.7299ZM31.7837 39.7299H34.4323V42.3785H31.7837V39.7299ZM34.4323 39.7299H37.081V42.3785H34.4323V39.7299ZM37.081 39.7299H39.7296V42.3785H37.081V39.7299ZM39.7296 39.7299H42.3783V42.3785H39.7296V39.7299ZM42.3783 39.7299H45.0269V42.3785H42.3783V39.7299ZM47.6756 39.7299H50.3242V42.3785H47.6756V39.7299ZM55.6215 39.7299H58.2702V42.3785H55.6215V39.7299ZM60.9188 39.7299H63.5675V42.3785H60.9188V39.7299ZM63.5675 39.7299H66.2161V42.3785H63.5675V39.7299ZM71.5134 39.7299H74.1621V42.3785H71.5134V39.7299ZM74.1621 39.7299H76.8107V42.3785H74.1621V39.7299ZM84.7566 39.7299H87.4053V42.3785H84.7566V39.7299ZM13.2431 42.3785H15.8918V45.0272H13.2431V42.3785ZM15.8918 42.3785H18.5404V45.0272H15.8918V42.3785ZM18.5404 42.3785H21.1891V45.0272H18.5404V42.3785ZM26.4864 42.3785H29.135V45.0272H26.4864V42.3785ZM29.135 42.3785H31.7837V45.0272H29.135V42.3785ZM31.7837 42.3785H34.4323V45.0272H31.7837V42.3785ZM34.4323 42.3785H37.081V45.0272H34.4323V42.3785ZM37.081 42.3785H39.7296V45.0272H37.081V42.3785ZM42.3783 42.3785H45.0269V45.0272H42.3783V42.3785ZM45.0269 42.3785H47.6756V45.0272H45.0269V42.3785ZM47.6756 42.3785H50.3242V45.0272H47.6756V42.3785ZM52.9729 42.3785H55.6215V45.0272H52.9729V42.3785ZM66.2161 42.3785H68.8648V45.0272H66.2161V42.3785ZM68.8648 42.3785H71.5134V45.0272H68.8648V42.3785ZM76.8107 42.3785H79.4593V45.0272H76.8107V42.3785ZM82.108 42.3785H84.7566V45.0272H82.108V42.3785ZM13.2431 45.0272H15.8918V47.6758H13.2431V45.0272ZM15.8918 45.0272H18.5404V47.6758H15.8918V45.0272ZM18.5404 45.0272H21.1891V47.6758H18.5404V45.0272ZM23.8377 45.0272H26.4864V47.6758H23.8377V45.0272ZM29.135 45.0272H31.7837V47.6758H29.135V45.0272ZM31.7837 45.0272H34.4323V47.6758H31.7837V45.0272ZM34.4323 45.0272H37.081V47.6758H34.4323V45.0272ZM50.3242 45.0272H52.9729V47.6758H50.3242V45.0272ZM55.6215 45.0272H58.2702V47.6758H55.6215V45.0272ZM58.2702 45.0272H60.9188V47.6758H58.2702V45.0272ZM68.8648 45.0272H71.5134V47.6758H68.8648V45.0272ZM74.1621 45.0272H76.8107V47.6758H74.1621V45.0272ZM79.4593 45.0272H82.108V47.6758H79.4593V45.0272ZM84.7566 45.0272H87.4053V47.6758H84.7566V45.0272ZM10.5945 47.6758H13.2431V50.3245H10.5945V47.6758ZM13.2431 47.6758H15.8918V50.3245H13.2431V47.6758ZM18.5404 47.6758H21.1891V50.3245H18.5404V47.6758ZM21.1891 47.6758H23.8377V50.3245H21.1891V47.6758ZM26.4864 47.6758H29.135V50.3245H26.4864V47.6758ZM31.7837 47.6758H34.4323V50.3245H31.7837V47.6758ZM37.081 47.6758H39.7296V50.3245H37.081V47.6758ZM39.7296 47.6758H42.3783V50.3245H39.7296V47.6758ZM50.3242 47.6758H52.9729V50.3245H50.3242V47.6758ZM52.9729 47.6758H55.6215V50.3245H52.9729V47.6758ZM55.6215 47.6758H58.2702V50.3245H55.6215V47.6758ZM60.9188 47.6758H63.5675V50.3245H60.9188V47.6758ZM63.5675 47.6758H66.2161V50.3245H63.5675V47.6758ZM71.5134 47.6758H74.1621V50.3245H71.5134V47.6758ZM76.8107 47.6758H79.4593V50.3245H76.8107V47.6758ZM84.7566 47.6758H87.4053V50.3245H84.7566V47.6758ZM13.2431 50.3245H15.8918V52.9731H13.2431V50.3245ZM21.1891 50.3245H23.8377V52.9731H21.1891V50.3245ZM23.8377 50.3245H26.4864V52.9731H23.8377V50.3245ZM29.135 50.3245H31.7837V52.9731H29.135V50.3245ZM34.4323 50.3245H37.081V52.9731H34.4323V50.3245ZM39.7296 50.3245H42.3783V52.9731H39.7296V50.3245ZM42.3783 50.3245H45.0269V52.9731H42.3783V50.3245ZM47.6756 50.3245H50.3242V52.9731H47.6756V50.3245ZM58.2702 50.3245H60.9188V52.9731H58.2702V50.3245ZM66.2161 50.3245H68.8648V52.9731H66.2161V50.3245ZM68.8648 50.3245H71.5134V52.9731H68.8648V50.3245ZM74.1621 50.3245H76.8107V52.9731H74.1621V50.3245ZM76.8107 50.3245H79.4593V52.9731H76.8107V50.3245ZM79.4593 50.3245H82.108V52.9731H79.4593V50.3245ZM84.7566 50.3245H87.4053V52.9731H84.7566V50.3245ZM13.2431 52.9731H15.8918V55.6218H13.2431V52.9731ZM15.8918 52.9731H18.5404V55.6218H15.8918V52.9731ZM18.5404 52.9731H21.1891V55.6218H18.5404V52.9731ZM21.1891 52.9731H23.8377V55.6218H21.1891V52.9731ZM23.8377 52.9731H26.4864V55.6218H23.8377V52.9731ZM26.4864 52.9731H29.135V55.6218H26.4864V52.9731ZM29.135 52.9731H31.7837V55.6218H29.135V52.9731ZM34.4323 52.9731H37.081V55.6218H34.4323V52.9731ZM39.7296 52.9731H42.3783V55.6218H39.7296V52.9731ZM42.3783 52.9731H45.0269V55.6218H42.3783V52.9731ZM50.3242 52.9731H52.9729V55.6218H50.3242V52.9731ZM55.6215 52.9731H58.2702V55.6218H55.6215V52.9731ZM60.9188 52.9731H63.5675V55.6218H60.9188V52.9731ZM63.5675 52.9731H66.2161V55.6218H63.5675V52.9731ZM76.8107 52.9731H79.4593V55.6218H76.8107V52.9731ZM84.7566 52.9731H87.4053V55.6218H84.7566V52.9731ZM10.5945 55.6218H13.2431V58.2704H10.5945V55.6218ZM18.5404 55.6218H21.1891V58.2704H18.5404V55.6218ZM21.1891 55.6218H23.8377V58.2704H21.1891V55.6218ZM31.7837 55.6218H34.4323V58.2704H31.7837V55.6218ZM34.4323 55.6218H37.081V58.2704H34.4323V55.6218ZM39.7296 55.6218H42.3783V58.2704H39.7296V55.6218ZM47.6756 55.6218H50.3242V58.2704H47.6756V55.6218ZM50.3242 55.6218H52.9729V58.2704H50.3242V55.6218ZM52.9729 55.6218H55.6215V58.2704H52.9729V55.6218ZM55.6215 55.6218H58.2702V58.2704H55.6215V55.6218ZM63.5675 55.6218H66.2161V58.2704H63.5675V55.6218ZM68.8648 55.6218H71.5134V58.2704H68.8648V55.6218ZM74.1621 55.6218H76.8107V58.2704H74.1621V55.6218ZM76.8107 55.6218H79.4593V58.2704H76.8107V55.6218ZM79.4593 55.6218H82.108V58.2704H79.4593V55.6218ZM10.5945 58.2704H13.2431V60.9191H10.5945V58.2704ZM13.2431 58.2704H15.8918V60.9191H13.2431V58.2704ZM21.1891 58.2704H23.8377V60.9191H21.1891V58.2704ZM26.4864 58.2704H29.135V60.9191H26.4864V58.2704ZM29.135 58.2704H31.7837V60.9191H29.135V58.2704ZM42.3783 58.2704H45.0269V60.9191H42.3783V58.2704ZM45.0269 58.2704H47.6756V60.9191H45.0269V58.2704ZM47.6756 58.2704H50.3242V60.9191H47.6756V58.2704ZM52.9729 58.2704H55.6215V60.9191H52.9729V58.2704ZM55.6215 58.2704H58.2702V60.9191H55.6215V58.2704ZM58.2702 58.2704H60.9188V60.9191H58.2702V58.2704ZM60.9188 58.2704H63.5675V60.9191H60.9188V58.2704ZM71.5134 58.2704H74.1621V60.9191H71.5134V58.2704ZM84.7566 58.2704H87.4053V60.9191H84.7566V58.2704ZM10.5945 60.9191H13.2431V63.5677H10.5945V60.9191ZM13.2431 60.9191H15.8918V63.5677H13.2431V60.9191ZM23.8377 60.9191H26.4864V63.5677H23.8377V60.9191ZM31.7837 60.9191H34.4323V63.5677H31.7837V60.9191ZM42.3783 60.9191H45.0269V63.5677H42.3783V60.9191ZM47.6756 60.9191H50.3242V63.5677H47.6756V60.9191ZM52.9729 60.9191H55.6215V63.5677H52.9729V60.9191ZM58.2702 60.9191H60.9188V63.5677H58.2702V60.9191ZM60.9188 60.9191H63.5675V63.5677H60.9188V60.9191ZM63.5675 60.9191H66.2161V63.5677H63.5675V60.9191ZM66.2161 60.9191H68.8648V63.5677H66.2161V60.9191ZM68.8648 60.9191H71.5134V63.5677H68.8648V60.9191ZM76.8107 60.9191H79.4593V63.5677H76.8107V60.9191ZM79.4593 60.9191H82.108V63.5677H79.4593V60.9191ZM84.7566 60.9191H87.4053V63.5677H84.7566V60.9191ZM10.5945 63.5677H13.2431V66.2164H10.5945V63.5677ZM13.2431 63.5677H15.8918V66.2164H13.2431V63.5677ZM15.8918 63.5677H18.5404V66.2164H15.8918V63.5677ZM18.5404 63.5677H21.1891V66.2164H18.5404V63.5677ZM23.8377 63.5677H26.4864V66.2164H23.8377V63.5677ZM26.4864 63.5677H29.135V66.2164H26.4864V63.5677ZM29.135 63.5677H31.7837V66.2164H29.135V63.5677ZM31.7837 63.5677H34.4323V66.2164H31.7837V63.5677ZM37.081 63.5677H39.7296V66.2164H37.081V63.5677ZM45.0269 63.5677H47.6756V66.2164H45.0269V63.5677ZM50.3242 63.5677H52.9729V66.2164H50.3242V63.5677ZM52.9729 63.5677H55.6215V66.2164H52.9729V63.5677ZM55.6215 63.5677H58.2702V66.2164H55.6215V63.5677ZM58.2702 63.5677H60.9188V66.2164H58.2702V63.5677ZM60.9188 63.5677H63.5675V66.2164H60.9188V63.5677ZM63.5675 63.5677H66.2161V66.2164H63.5675V63.5677ZM66.2161 63.5677H68.8648V66.2164H66.2161V63.5677ZM68.8648 63.5677H71.5134V66.2164H68.8648V63.5677ZM71.5134 63.5677H74.1621V66.2164H71.5134V63.5677ZM74.1621 63.5677H76.8107V66.2164H74.1621V63.5677ZM79.4593 63.5677H82.108V66.2164H79.4593V63.5677ZM84.7566 63.5677H87.4053V66.2164H84.7566V63.5677ZM31.7837 66.2164H34.4323V68.865H31.7837V66.2164ZM47.6756 66.2164H50.3242V68.865H47.6756V66.2164ZM50.3242 66.2164H52.9729V68.865H50.3242V66.2164ZM58.2702 66.2164H60.9188V68.865H58.2702V66.2164ZM63.5675 66.2164H66.2161V68.865H63.5675V66.2164ZM74.1621 66.2164H76.8107V68.865H74.1621V66.2164ZM76.8107 66.2164H79.4593V68.865H76.8107V66.2164ZM79.4593 66.2164H82.108V68.865H79.4593V66.2164ZM10.5945 68.865H13.2431V71.5136H10.5945V68.865ZM13.2431 68.865H15.8918V71.5136H13.2431V68.865ZM15.8918 68.865H18.5404V71.5136H15.8918V68.865ZM18.5404 68.865H21.1891V71.5136H18.5404V68.865ZM21.1891 68.865H23.8377V71.5136H21.1891V68.865ZM23.8377 68.865H26.4864V71.5136H23.8377V68.865ZM26.4864 68.865H29.135V71.5136H26.4864V68.865ZM31.7837 68.865H34.4323V71.5136H31.7837V68.865ZM34.4323 68.865H37.081V71.5136H34.4323V68.865ZM37.081 68.865H39.7296V71.5136H37.081V68.865ZM47.6756 68.865H50.3242V71.5136H47.6756V68.865ZM52.9729 68.865H55.6215V71.5136H52.9729V68.865ZM60.9188 68.865H63.5675V71.5136H60.9188V68.865ZM63.5675 68.865H66.2161V71.5136H63.5675V68.865ZM68.8648 68.865H71.5134V71.5136H68.8648V68.865ZM74.1621 68.865H76.8107V71.5136H74.1621V68.865ZM79.4593 68.865H82.108V71.5136H79.4593V68.865ZM10.5945 71.5136H13.2431V74.1623H10.5945V71.5136ZM26.4864 71.5136H29.135V74.1623H26.4864V71.5136ZM42.3783 71.5136H45.0269V74.1623H42.3783V71.5136ZM50.3242 71.5136H52.9729V74.1623H50.3242V71.5136ZM58.2702 71.5136H60.9188V74.1623H58.2702V71.5136ZM60.9188 71.5136H63.5675V74.1623H60.9188V71.5136ZM63.5675 71.5136H66.2161V74.1623H63.5675V71.5136ZM74.1621 71.5136H76.8107V74.1623H74.1621V71.5136ZM76.8107 71.5136H79.4593V74.1623H76.8107V71.5136ZM10.5945 74.1623H13.2431V76.8109H10.5945V74.1623ZM15.8918 74.1623H18.5404V76.8109H15.8918V74.1623ZM18.5404 74.1623H21.1891V76.8109H18.5404V74.1623ZM21.1891 74.1623H23.8377V76.8109H21.1891V74.1623ZM26.4864 74.1623H29.135V76.8109H26.4864V74.1623ZM31.7837 74.1623H34.4323V76.8109H31.7837V74.1623ZM34.4323 74.1623H37.081V76.8109H34.4323V74.1623ZM37.081 74.1623H39.7296V76.8109H37.081V74.1623ZM39.7296 74.1623H42.3783V76.8109H39.7296V74.1623ZM52.9729 74.1623H55.6215V76.8109H52.9729V74.1623ZM55.6215 74.1623H58.2702V76.8109H55.6215V74.1623ZM60.9188 74.1623H63.5675V76.8109H60.9188V74.1623ZM63.5675 74.1623H66.2161V76.8109H63.5675V74.1623ZM66.2161 74.1623H68.8648V76.8109H66.2161V74.1623ZM68.8648 74.1623H71.5134V76.8109H68.8648V74.1623ZM71.5134 74.1623H74.1621V76.8109H71.5134V74.1623ZM74.1621 74.1623H76.8107V76.8109H74.1621V74.1623ZM10.5945 76.8109H13.2431V79.4596H10.5945V76.8109ZM15.8918 76.8109H18.5404V79.4596H15.8918V76.8109ZM18.5404 76.8109H21.1891V79.4596H18.5404V76.8109ZM21.1891 76.8109H23.8377V79.4596H21.1891V76.8109ZM26.4864 76.8109H29.135V79.4596H26.4864V76.8109ZM31.7837 76.8109H34.4323V79.4596H31.7837V76.8109ZM39.7296 76.8109H42.3783V79.4596H39.7296V76.8109ZM52.9729 76.8109H55.6215V79.4596H52.9729V76.8109ZM55.6215 76.8109H58.2702V79.4596H55.6215V76.8109ZM71.5134 76.8109H74.1621V79.4596H71.5134V76.8109ZM76.8107 76.8109H79.4593V79.4596H76.8107V76.8109ZM79.4593 76.8109H82.108V79.4596H79.4593V76.8109ZM82.108 76.8109H84.7566V79.4596H82.108V76.8109ZM10.5945 79.4596H13.2431V82.1082H10.5945V79.4596ZM15.8918 79.4596H18.5404V82.1082H15.8918V79.4596ZM18.5404 79.4596H21.1891V82.1082H18.5404V79.4596ZM21.1891 79.4596H23.8377V82.1082H21.1891V79.4596ZM26.4864 79.4596H29.135V82.1082H26.4864V79.4596ZM37.081 79.4596H39.7296V82.1082H37.081V79.4596ZM45.0269 79.4596H47.6756V82.1082H45.0269V79.4596ZM47.6756 79.4596H50.3242V82.1082H47.6756V79.4596ZM52.9729 79.4596H55.6215V82.1082H52.9729V79.4596ZM63.5675 79.4596H66.2161V82.1082H63.5675V79.4596ZM66.2161 79.4596H68.8648V82.1082H66.2161V79.4596ZM71.5134 79.4596H74.1621V82.1082H71.5134V79.4596ZM74.1621 79.4596H76.8107V82.1082H74.1621V79.4596ZM79.4593 79.4596H82.108V82.1082H79.4593V79.4596ZM82.108 79.4596H84.7566V82.1082H82.108V79.4596ZM84.7566 79.4596H87.4053V82.1082H84.7566V79.4596ZM10.5945 82.1082H13.2431V84.7569H10.5945V82.1082ZM26.4864 82.1082H29.135V84.7569H26.4864V82.1082ZM39.7296 82.1082H42.3783V84.7569H39.7296V82.1082ZM42.3783 82.1082H45.0269V84.7569H42.3783V82.1082ZM50.3242 82.1082H52.9729V84.7569H50.3242V82.1082ZM52.9729 82.1082H55.6215V84.7569H52.9729V82.1082ZM55.6215 82.1082H58.2702V84.7569H55.6215V82.1082ZM63.5675 82.1082H66.2161V84.7569H63.5675V82.1082ZM66.2161 82.1082H68.8648V84.7569H66.2161V82.1082ZM74.1621 82.1082H76.8107V84.7569H74.1621V82.1082ZM76.8107 82.1082H79.4593V84.7569H76.8107V82.1082ZM79.4593 82.1082H82.108V84.7569H79.4593V82.1082ZM84.7566 82.1082H87.4053V84.7569H84.7566V82.1082ZM10.5945 84.7569H13.2431V87.4055H10.5945V84.7569ZM13.2431 84.7569H15.8918V87.4055H13.2431V84.7569ZM15.8918 84.7569H18.5404V87.4055H15.8918V84.7569ZM18.5404 84.7569H21.1891V87.4055H18.5404V84.7569ZM21.1891 84.7569H23.8377V87.4055H21.1891V84.7569ZM23.8377 84.7569H26.4864V87.4055H23.8377V84.7569ZM26.4864 84.7569H29.135V87.4055H26.4864V84.7569ZM37.081 84.7569H39.7296V87.4055H37.081V84.7569ZM42.3783 84.7569H45.0269V87.4055H42.3783V84.7569ZM45.0269 84.7569H47.6756V87.4055H45.0269V84.7569ZM47.6756 84.7569H50.3242V87.4055H47.6756V84.7569ZM52.9729 84.7569H55.6215V87.4055H52.9729V84.7569ZM55.6215 84.7569H58.2702V87.4055H55.6215V84.7569ZM58.2702 84.7569H60.9188V87.4055H58.2702V84.7569ZM60.9188 84.7569H63.5675V87.4055H60.9188V84.7569ZM63.5675 84.7569H66.2161V87.4055H63.5675V84.7569ZM68.8648 84.7569H71.5134V87.4055H68.8648V84.7569ZM71.5134 84.7569H74.1621V87.4055H71.5134V84.7569ZM74.1621 84.7569H76.8107V87.4055H74.1621V84.7569ZM76.8107 84.7569H79.4593V87.4055H76.8107V84.7569Z" fill="black"/>
</svg>
