<!-- This Source Code Form is subject to the terms of the Mozilla Public
   - License, v. 2.0. If a copy of the MPL was not distributed with this
   - file, You can obtain one at http://mozilla.org/MPL/2.0/. -->
<svg width="341" height="400" fill="none" xmlns="http://www.w3.org/2000/svg"><g clip-path="url(#a)"><path d="M311.144 181.613c1.216.332 2.576.708 4.036 1.083 5.306 1.371 11.785 2.831 16.395 3.162l1.659-2.211-6.634-4.975c-4.986-1.691-15.478-5.141-20.453-6.633a71.35 71.35 0 0 1 1.072-1.648l.034-.066c2.476-3.748 5.616-8.015 7.894-12.195.011-.011.022-.022.022-.033.884-1.603 1.636-3.206 2.155-4.743l1.537-3.98v-3.869c-1.227.276-3.781.829-4.975 1.105l-7.739 8.292c-.31.564-.719 1.338-1.194 2.211-.011.011-.022.022-.022.033-1.371 2.521-3.239 5.926-4.533 8.292-.343.631-.641 1.183-.884 1.626.066-2.19.199-6.258.32-10.083v-.122c.089-2.996.177-5.826.232-7.485l-.154-.464-.045-.122-4.223-12.128h-2.211c-.044.287-.122.818-.232 1.515-.465 3.007-1.393 9.076-1.825 11.763.012.011.012.022 0 .033-.066.476-.121.84-.154 1.062.11 3.582.431 13.93.552 17.689-4.3-7.319-10.945-25.097-18.794-29.298l-1.106 2.764c1.703 5.749 6.866 21.183 8.845 27.087-7.109-5.672-6.866-6.225-16.031-8.292l-.553 3.317 6.081 8.844 10.867 8.292.299.221.442.332c-.685.243-1.769.619-3.095 1.083-5.285 1.869-14.428 5.075-17.347 6.103l-4.986 5.528 3.869 3.87s.642-.277 1.603-.697c3.096-1.327 9.586-4.102 10.006-4.278 1.083-.719 2.587-1.725 4.102-2.731.011-.011.022-.022.044-.033.265-.177.531-.354.785-.52 1.26-.851 2.465-1.647 3.361-2.244-.022 3.537-.199 7.374-.409 11.299-.332 6.611-.719 13.51-.454 19.768.056 1.249.133 2.454.244 3.626l.066.685c.011-.022.232-.376.586-.928 1.493-2.3 5.252-8.082 5.495-8.469 1.094-3.416 3.14-9.751 4.522-14.505.066-.233.132-.465.188-.686.331-1.161.608-2.2.818-3.051 2.775 6.887 9.353 21.426 13.267 27.639h3.316v-9.95c-.066-.188-.176-.509-.32-.918 0 0 0-.011-.011-.022-.807-2.266-2.576-7.297-2.985-8.457-.045-.454-.122-1.272-.221-2.267l-.034-.365c-.022-.21-.044-.42-.055-.641l-.066-.674-.199-2.101-.266-2.764-.077-.774-.066-.707-.056-.608-.066-.708 12.714 13.82 10.172 6.423.331.21v-6.633c-4.013-8.392-12.261-18.419-18.242-25.429l2.753.719s.022.011.033.011Zm-17.18-1.78c-.155 5.683-8.923.453-4.732-3.162 1.945-2.211 4.997 1.227 4.709 3.162h.023Z" fill="url(#b)"/><path d="m89 4.422 2.21 37.037-7.186-1.659-8.292-4.975-6.08-1.105v3.317l7.739 5.528 10.503 4.422c-4.589 2.94-14.14 8.9-18.795 11.608l.552 2.764c5.628-2.023 17.28-4.732 23.218-5.528l2.211 11.056v12.715l4.422 9.397 3.87-11.609 1.658-9.397v-9.95c4.699 3.36 13.61 14.67 17.137 19.347l7.186 4.423-1.658-8.845c-3.041-4.666-8.867-14.461-11.609-19.348 5.849 3.417 17.789 10.072 23.77 13.267l1.106-2.764-11.609-10.503-12.161-8.291 18.795-11.056h-5.528l-17.69 5.527 6.634-22.664-2.211-4.422L102.266 39.8 88.999 4.42Z" fill="url(#c)"/><path d="m30.956 75.732 3.317-7.74 6.633 9.398-3.87 12.715-6.08-14.373Z" fill="url(#d)"/><path d="m40.906 24.875 3.87-7.186 4.422 7.186-4.422 9.95-3.87-9.95Z" fill="url(#e)"/><path d="m78.496 174.129 4.422-7.186 5.528 8.291-5.528 11.056-4.422-12.161Z" fill="url(#f)"/><path d="m25.285 293.607.143.465h-4.422l-2.764-1.659v7.187L6.633 285.78c.531-.277 2.698-1.349 3.273-1.636.077-.011 3.847-3.859 3.914-3.892v-7.186c3.261 1.603 12.692 5.97 14.925 8.844v2.211h-2.211l2.764 6.634-5.528-2.211 1.515 5.063Z" fill="url(#g)"/><path d="M67.993 279.699c-.132.243-3.195 6.401-3.317 6.634l-2.764-4.423-1.658 6.081-1.658 1.106-2.211-8.292-5.528 8.844-1.659-1.658.553-10.503-7.872 5.771-.42.31v-8.292c2.742-5.937 7.53-14.472 11.056-19.901l4.975 4.423h7.186c1.482 4.986 3.03 14.704 3.317 19.9Z" fill="url(#h)"/><path d="M184.632 42.566c.177-.232 4.721-8.546 4.975-8.292l7.187 7.186-6.634 17.69-5.528-16.584Z" fill="url(#i)"/><path d="m253.731 61.912 4.975-5.528 5.528 6.634-5.528 10.503-4.975-11.609Z" fill="url(#j)"/><path d="M145.484 385.483c-2.057.409-14.251 2.852-16.584 3.316-.221-.044-7.197-1.094-7.186-1.105-8.403-6.877-9.409-9.563-13.267-19.348a390.56 390.56 0 0 1 2.764-3.869l34.273 21.006ZM234.483 370.559a5164.892 5164.892 0 0 1-5.528 13.82c-2.366 2.532-5.362 5.749-7.739 8.292-8.148.298-24.654-.21-32.615-1.659l-11.056-2.211c-1.47-.741-4.046-2.012-5.527-2.764 2.454-3.914 6.887-11.697 8.291-16.031 1.537.332 9.873 1.858 11.609 2.211l11.056-1.658 13.82-4.422c10.503-.255 8.502-.144 17.689 4.422ZM197.391 220.499c-7.883 9.309-24.522 9.099-33.555 1.658-4.234-2.509 4.135-3.626 3.815-12.88 10.912 7.242 26.368-2.432 25.992 2.565-.431 3.704 4.665 5.716 3.748 8.646v.011Z" fill="#845B25"/><path d="M176.926 184.289c3.815-.033 7.319-1.979 9.917-4.676 3.184-1.924 8.126 4.92 15.611 1.747.542-.122 1.006-.487 1.283.42 1.039 5.881 7.761 5.362 7.816 8.104-7.319 22.753-41.061 30.425-54.704 8.811-6.158-11.973-6.324-7.076 1.614-11.852 6.335-1.437 1.095-5.55 11.465-2.543 4.411 1.327.31 2.223 6.589-.895" fill="#845B25"/><path d="M26.634 282.343c9.96-.443-4.633-9.232-7.33-10.857-2.875-1.249-5.385-2.808-7.817-4.776-7.485-3.35-14.218 4.754-10.381 11.708 2.554 5.13 22.244 34.284 16.694 12.438 1.868 1.647 6.28 3.681 7.584.973l-1.514-5.064 5.528 2.211-2.764-6.633ZM3.36 275.798c.32-2.831.774-6.921 4.522-6.081l-.022-.022c6.058-.542 3.759 8.8-.21 9.541-2.709.564-4.566-.044-4.29-3.438Zm20.044 5.716c.675 1.006 1.393 2.012 1.68 3.36-2.188-.608-3.637-2.133-5.538-3.128-4.82.508 3.25 6.456 3.494 8.844-3.14 1.46-7.375-7.219-8.392-2.885-.055 2.377 1.88 3.681 1.36 6.191-3.03-3.693-5.893-7.164-8.834-10.746 1.957-.465 4.246-.664 4.942-3.007 1.216-2.123 3.417-4.367 2.93-7.165-.243-2.476 12.051 5.694 11.974 7.308-1.581-1.514-6.103-1.735-3.616 1.228Zm44.721-10.515c.376-6.467-4.334-12.515-.619-18.441 2.963-8.402-9.066-14.56-14.925-8.513-1.803 1.946-.94 4.732-2.123 6.932a47.588 47.588 0 0 0-3.516 5.407c-4.92 8.877-18.297 37.191 2.908 19.325l-.553 10.503 1.658 1.659 5.528-8.845 2.212 8.292 1.658-1.106 1.658-6.08 2.764 4.422c2.786-4.776 3.87-7.971 3.35-13.555Zm-14.384-20.928c.266-1.902.012-4.434 2.698-4.069 3.04-.343 7.618-.707 8.458 3.228 2.023 8.834-10.68 7.485-11.133.863l-.023-.022Zm10.105 30.425c-1.282-3.095-1.227-5.837-1.392-8.966-.078-2.001-2.798-1.249-2.566.52.166 3.515-.884 6.832-1.625 10.613-1.68-3.615.144-6.887-1.028-10.359-2.919-4.069-4.964 10.216-7.22 11.885.166-4.677 1.051-9.209 2.5-13.632.762-1.271-.708-2.808-1.681-1.426-3.571 2.941-5.362 7.065-9.597 9.574 2.035-8.712 6.048-16.307 10.105-24.046v.022c4.235 7.242 11.045 3.306 11.686 5.329.962 6.921 2.61 13.466.818 20.486Zm47.364 83.98-1.625 2.267c.585.73.176.862-.266 1.017a7.716 7.716 0 0 0-.763.851c3.77 9.663 4.942 12.35 13.157 19.083l.619.099v-.022c1.802-1.238 5.406.221 5.793-1.879-.11-.94-.365-2.057-1.813-1.891-2.875-.022-5.495 2.311-7.916-.188 1.725-1.625 5.495-.133 6.291-2.023.066-1.117-.984-1.67-1.913-1.703-1.658-.088-3.405-.409-4.986.564-1.205.741-2.134.022-3.25-.674 1.37-1.559 8.833.365 7.263-2.399-.608-.42-1.094-1.371-1.99-.885-.696.354-.906-.442-1.537-.354-1.293.188-2.62.078-3.924.078-.398 0-1.007.376-1.117-.299.497-1.625 8.292-.155 4.599-3.239-2.211-2.045-6.092 1.437-7.33-1.349-.033-6.866 28.159 12.714 31.708 14.605l3.273-.652-34.273-21.007Zm114.516 22.853c-1.404.531-6.169 0-6.235 1.603.431 1.736 2.719 1.05 4.057 1.238l2.698-2.885c-.166.022-.343.033-.52.044Zm-1.26-3.649c-1.25-.287-2.001.487-2.93.885-.464.21-.044.619 0 .929.088.608.564.608 1.028.608h4.776c.354-.398 1.858-1.825 1.88-2.388-1.626.442-3.173.342-4.754-.034Zm2.145-3.891c-1.394-.022-4.677-.487-4.821 1.448 1.592 2.045 5.716.033 8.193.564l.95-2.355c-1.448.177-2.852.464-4.322.343Zm4.72-4.588c-2.741.486-8.358-2.532-9.054 1.47 1.757 1.835 6.777-.332 9.342 1.05.221-.552.774-1.934.984-2.465-.409.011-.863-.044-1.272-.055Zm.697-5.871-4.909-2.454c-17.678-1.051-28.303 11.741-46.81 3.128-2.156 5.617-3.859 11.565-7.75 16.308l2.819 1.404c4.068-4.024 5.395-9.165 6.512-14.539 17.114 10.072 35.279-11.464 51.675-.32l.884-2.222c-.752.044-1.592-.708-2.421-1.305Zm102.919-188.436c-6.512-7.12-16.96-10.392-26.424-11.31 4.146-7.805 13.864-17.656 12.549-26.766-8.359-4.478-15.843 10.282-19.89 16.197-.265-7.883.896-16.717-1.725-24.301-8.258-12.327-11.619 19.912-9.43 24.024-.863.144-.829-.42-1.039-.773-3.748-7.364-6.921-15.191-12.67-21.316-12.339-6.368.32 21.26.674 25.771-4.212-2.83-16.108-8.69-13.919 1.415 3.56 6.534 9.497 11.023 14.903 15.943-36.363 10.182-22.101 27.827.133 9.618-.255 10.36-2.256 21.659.044 31.885 6.567 4.821 11.232-15.08 12.504-19.535.431-1.172 1.293-2.377.652-3.627 0-.044.177-.188.277-.232 1.979 2.488 2.542 6.965 3.781 10.149 10.536 30.271 19.458 14.815 9.961-7.617.077.088.144.177.221.265l-.862-8.999 12.714 13.82 10.171 6.423c6.037-6.799-10.237-25.793-15.235-31.244 4.257.63 26.192 10.57 22.61.21Zm-24.356-3.958c-10.824-2.808-1.316 4.788 1.47 7.894 5.417 6.877 13.389 15.434 13.289 24.279-4.29.21-28.325-31.045-27.429-21.858 4.245 10.57 8.988 21.758 8.037 33.378-6.081-9.674-9.74-20.553-13.344-31.31-.011-2.145-2.875-3.582-3.206-.829-.841 10.414-3.295 21.161-8.646 30.204-1.227-2.111.951-9.066-1.791-8.778 2.399-1.349 1.47-3.328 1.603-4.975-.73-4.622 6.435-32.128-3.693-18.364-4.588 4.113-11.863 8.878-17.954 6.777 1.669-3.261 7.109-4.632 10.337-6.501 4.279-2.62 11.1-3.361 14.019-7.197-.056-.785-.31-1.437-1.283-1.813-7.02-2.852-12.836-8.469-16.042-15.334.055-3.616 16.075 6.611 15.733 9.795.652.984 1.282 1.327 2.189.542.453-.376.674-.078 1.028.066 1.05.332 1.935-.586.984-1.437-2.477-2.466-4.898-4.467-5.285-8.104-2.233-7.396-4.444-14.826-6.103-22.366 4.146 1.216 19.481 38.961 19.37 25.804-1.172-10.005-2.344-20.331.84-30.116 1.791 8.933 2.632 17.767 2.952 26.844-.232 1.957.841 6.777 3.052 3.372 3.383-8.281 8.413-16.252 15.92-21.349 3.007-1.072-3.184 9.044-3.726 10.271-18.419 27.993-4.544 9.342 18.486 25.649-7.032 1.117-13.909-3.184-20.807-4.544Z" fill="#010101"/><path d="M333.124 241.016c-8.558 1.847-12.781 10.581-17.038 17.347-6.6 11.443-19.347 16.374-27.153 26.744 4.898-12.305 15.445-21.968 21.935-33.643 11.819-17.103 6.567-38.585-3.892-54.395 5.44 3.538 13.61 18.276 20.598 14.859l-10.172-6.423-12.714-13.82.862 9c18.895 27.219 6.136 48.734-13.068 70.193 1.482-8.988 1.139-19.569-2.377-28.369-2.399-7.662-11.542-20.365-19.745-11.476-9.486 15.003 17.435 32.482 16.318 45.196.409 10.558-8.535 19.392-7.64 30.448.21 10.414.995 20.785 5.827 30.237.696 2.731 7.65 14.373 5.03 15.158-12.393 2.366-25.074 4.876-37.744 4.19l-.067-.232c8.425-5.904 13.455-13.764 16.109-23.648 4.046-10.227-3.671-24.224-15.523-21.416-.641.133-.807-.508-.265-.707 3.339-2.808 4.124-7.496 5.13-11.498-.299-16.694-12.88-31.432-20.1-46.059-3.902-6.943-1.47-18.297-10.083-21.669-1.879.144-3.77.044-5.251-1.161-8.524-5.981-21.404-5.362-26.623-15.368-3.206-3.261 9.862-5.948 11.642-10.89 1.283-1.492 5.34 3.383 11.156 1.67 4.521-.763 8.501-2.62 10.901-6.866.276-.508.552-.597 1.16-.597 12.405.929 16.44-14.66 14.782-24.533-.088-.674.044-.962.586-1.26 7.971-4.555 7.518-17.69 1.603-23.859-.332-3.051 1.846-6.589.586-10.282-2.863-13.355-18.275-11.398-17.601-14.693 2.51-6.136-2.178-12.869-5.771-17.711-6.346-7.761-16.783-14.572-26.965-12.15.122 1.392-.144 1.238-.818.276-3.394-.453-4.876 4.864-8.17 5.196-3.24 1.017-3.837 1.371-5.727-1.382-4.854-6.667-15.821-15.976-24.257-14.384-12.272 4.379-20.122 15.246-25.384 26.656-2.941 2.443-7.783.564-11.454 1.88-7.474 1.293-13.919 6.113-17.081 13.045-6.015 15.998 7.219 29.553 12.006 43.892.398.929.288 1.47-.254 2.278-3.306 4.82-3.936 10.171-2.565 15.71 2.587 9.375 9.906 19.602 20.465 19.834 3.372 1.382 8.8-1.802 10.359-.133.962 1.416 2.311 2.366 3.969 2.72 4.157.652 9.143.896 12.338-2.355.697-.741 1.073-.11 1.46.288 1.359 1.901 3.504 3.405 4.897 5.019-.442 2.255-1.05 4.356-3.106 5.804-.575.409-1.161-.287-1.559.365-7.43 6.446-19.182 5.119-28.148 8.922-2.93.929-5.915 1.813-8.403 3.958-1.514 1.316-2.697 3.251-5.052 3.483-.807.077-1.537.674-2.278 1.139-8.402 4.278-6.047 10.06-9.11 17.479-.387 2.996-3.991 5.904-3.438 8.988 0 .044-.144.166-.166.166-1.238-.564-1.238.719-1.448 1.183-4.235 11.885-14.926 25.627-7.607 38.109-16.042-3.007-24.113 4.091-23.914 20.155 2.311 10.371 8.536 19.149 15.412 27.12-10.746-1.105-21.912-.564-32.294 1.039-1.88-1.072-4.323.222-6.556.421-4.102 2.41-1.758-16.739-2.211-19.459 1.16-39.159 5.638-6.5 22.554-42.156.53-7.307-18.298 10.216-19.514 12.969 1.15-5.771 1.449-11.432 4.356-16.529 1.825 3.914 5.937 3.361 6.501-.84 5.406 4.754 6.313-1.636 6.645-6.103l-3.229 6.468-2.764-4.422-1.658 6.08-1.658 1.106-2.212-8.292-5.527 8.845-1.659-1.659.553-10.503-7.872 5.772c2.023-.553 3.394-2.035 5.064-3.428.276 2.433-1.117 11.034 2.233 11.631 1.537-.299 1.04.398.884 1.194-1.448 7.673-2.542 15.379-3.56 23.129-3.172-10.127-8.225-20.122-17.302-26.18-.398-.266-1.105-5.186-.619-5.484h-2.045l2.764 6.633-5.528-2.211 1.514 5.064c.465-.586-.298-1.758.1-2.466 5.815 3.793 11.288 8.535 13.853 15.103 2.82 6.545 7.451 14.074 5.472 21.227-1.846-11.277-13.664-20.918-24.731-22.09-1.128 0-2.167 1.581-.863 2.035 1.415.74.277 1.348.675 2.421 1.79 3.106 2.41 7.164 5.218 9.497 2.786 7.584 10.591 16.738 19.558 13.886.01 6.368-.177 12.493.785 18.695.21.785-.177.995-.929 1.095-5.174.243-9.994 3.35-15.102 1.625-.653-.155-1.26-.066-1.382.486 6.534 10.194 25.041-1.625 35.157-.641 10.526-.331 21.913-2.465 31.708 2.234 4.434 4.289 9.276 9.22 14.683 11.807l1.625-2.266 34.273 21.006-3.273.652c.332.21.719.42.752.829-6.744 1.968-14.66 3.77-21.249.73-8.226-6.733-9.387-9.442-13.157-19.082-2.951 3.427 1.957 6.202 3.107 9.264.232.31.586.52.498.984-.376 2.256 1.039 3.262 2.808 4.047 1.459-.067-.675 2.609 3.107 3.703.972.376 1.835.631 1.835 1.935 1.736 3.781 7.009 3.173 10.403 3.582 4.898-.331 9.707-2.012 14.506-3.117.984-.443 1.68-.21 2.465.398 17.413 11.652 11.73 15.92 25.727 1.138 1.006-.564 1.537.763 2.399 1.017 13.953 4.567 29.033 5.528 43.637 4.71 6.767-.011 12.803-9.077 14.871-14.693-.653-.763-.067-1.205.022-1.813.088-2.023 1.249-3.306 2.399-4.754-.232-2.09 1.382-3.251 2.476-4.555 2.51-1.935 9.707-13.698 12.383-10.658 2.211 0 11.354 1.902 11.542-.774.089-.895 1.703-1.437 1.471.044 1.547 3.173 12.968-.696 16.55-.829 7.64-1.979 15.478-2.41 23.052-4.146 5.052-4.997-5.407-3.427-7.872-2.731-8.756-13.421-16.274-32.172-12.571-48.612 4.721-9.21 15.423-12.548 23.87-17.391 9.43-5.539 19.889-10.459 25.882-19.978 4.488-5.881 13.123-24.654 0-24.367Zm-115.313-72.714c3.439-1.559 5.196-6.755 2.753-9.729-.851-.608.21-2.344 1.117-1.415 1.514.995 2.675 3.648 2.233 5.793-.752 7.242-10.205 9.674-6.103 5.351Zm-105.417-40.641c-1.006-.011-1.194-1.382-.166-1.581.774.155 1.36 1.658.166 1.581Zm-46.678 163.98c-1.05 5.915-9.972 15.058-14.56 15.014 3.261-6.556 9.176-10.338 14.56-15.014Zm-24.588 38.054c-8.889-3.527-13.787-13.61-17.645-21.714l.022-.022c5.583 2.189 10.337 5.396 14.174 9.851 1.558 1.99 9.32 12.073 3.449 11.885Zm187.717-17.988c1.802-4.09 1.028-21.116 4.588-20.785 6.678-1.415 5.97-5.406-.884-2.532-.509-7.009 2.631-13.853 1.868-20.608-.984-1.094.763-.995.641-1.879-.177-2.355.619-4.577.454-7.153 6.777 14.649 30.635 46.103 4.831 53.753-2.112.343-3.759 1.935-6.092.741-1.139-1.205-5.152.254-5.406-1.537Zm-.166 6.125c.409.066.829-.276 1.36.055-.398.752-1.305 1.117-2.012 1.084-.343-.487-.067-1.404.652-1.139Zm-17.225-212.791c.586-.31.21-1.305 1.006-1.416.409-.033.829.432.697.487-.63.387 0 1.503-.929 1.581-.42.044-.862-.608-.774-.652Zm-30.503 33.609c3.494-7.639 16.042-3.527 15.556 4.511-.299.697-.166.398-.841.188-1.647-.509-1.481-2.112-2.167-3.14-1.459-2.145-3.736-3.538-6.257-3.538v-.022c-3.394-.508-4.666 4.82-6.468 3.98-.707-.486-.309-1.138.177-1.979Zm-3.925 26.048c-.276 1.769-2.664.774-3.891.995-5.716.94.309 7.076-2.355 8.126-1.99.11-2.079-5.218-2.145-6.799 0-2.875 2.83-3.538 5.318-3.328v-.022l.022-.022c1.05.066 2.885-.443 3.051 1.05Zm-15.577-48.027c1.05-3.084 4.057-3.67 6.843-4.157l-.022-.022c1.703.619 8.126 2.488 6.954 5.064-.641.497-1.094.541-1.503 0-6.711-7.164-12.991 3.184-12.272-.885Zm-22.377 75.136c-2.886 1.946-7.872-3.405-8.126-6.324-1.371-1.968-3.063-8.259.53-8.613.708.255.542.929.398 1.261-1.415 3.46.818 6.169 1.979 8.999.442 2.698 5.506 2.432 5.219 4.677Zm14.825-49.32c-5.992-7.806-16.815-2.853-15.522 6.589-.321 1.183 1.139 4.433-.442 5.141-.84.166-1.028-.575-1.194-1.349-.796-5.207-1.15-11.951 4.289-14.66 1.04-.332-.342.84.465.862.398.067.398-.519.398-.818 2.919-3.117 8.137-2.388 11.807 1.028.808.852 2.941 1.803 1.791 3.207-.563.586-1.116.398-1.592 0Zm6.225 57.103c-5.174-11.067-6.91-6.324.906-10.591.885-.642 2.764-.885 3.516-1.869.564-3.781 10.957.31 12.637 1.824 4.5 3.958-2.874 15.379 5.937 15.633l.044.056c2.775.033 8.06-4.312 5.76-6.899-1.116-.443-2.443.077-2.686 1.138-.409 1.637-1.603 2.189-3.041 2.521-3.117-.718-.232-8.424-1.592-11.222.277-1.37-2.719-3.626-1.017-4.068 2.698-.376 4.588-2.145 6.49-3.847 3.085-1.648 7.275 4.477 14.041 1.592 1.78-.752 1.647 5.085 7.363 6.323 2.775 1.803-1.647 7.253-3.195 8.967-11.211 14.892-34.373 16.805-45.163.442Zm7.872 19.901c1.536-2.057 2.531-5.329 2.023-7.076l.022-.044c6.457 2.808 13.577 3.88 20.298 1.37 1.029-.398 1.405-.055 1.515.885.232 2.366 1.603 4.19 2.676 6.235-4.777 4.644-11.565 6.258-17.922 4.356-1.99-.785-11.575-2.896-8.612-5.726Zm-37.657 13.797h.056c9.939-5.904 22.321-4.411 32.172-10.337.553-.42.84-.232 1.261.122 9.043 8.336 25.074 8.911 33.631-.188.244-.42.454-.299.664-.089 2.134 2.3 5.163 2.842 7.883 3.98 3.427 1.725 8.579 2.609 11.409 4.213-7.706 1.05-16.573 1.293-24.511 1.647-.375-.21-.674.077-.928.287-.288.255.53.929-.288 1.04-.575.055-.508-.807-.951-.841-1.26-.132-2.564-.387-3.792-.177-1.581.255-3.327-.497-4.732.719-11.31-1.216-23.106 1.039-34.549-.298-.42.11-1.072-.266-1.238.508-.045.133-.111.299-.277.133-4.853-2.444-10.204.066-15.754-.719l-.1.067.044-.067Zm36.142 97.413c16.551-1.338 33.532.21 49.652-3.306-13.82 11.089-28.049 21.194-44.467 27.751-1.116.431-1.979.254-2.908-.885-7.042-8.214-14.107-16.495-21.746-24.19 6.456.21 12.968.42 19.469.63Zm-5.34-49.95c.166.652 1.282 1.072.464 1.979-.32.343-.32.11-.508-.022-1.028-.653-.022-1.283.044-1.957Zm8.568-10.636c.553-1.249 1.139-4.864 2.985-4.079.144.099.509 0 .719-.111 9.829-5.229 11.045 27.706-.299 20.044-4.101-3.593-4.378-10.746-3.405-15.854Zm18.773-35.522c1.017-.232 1.67.121 1.835 1.448-.818-.254-1.746.785-2.332-.398-.255-.508 0-.929.497-1.05Zm-89.453 55.843c2.267-7.275 6.789-14.174 8.546-21.393-.497-1.095 1.338-.089 1.349-1.449.299-1.083.321-2.189 1.183-3.073.232-.254.863-.973.078-1.526-.056-.033-.078-.376-.045-.376 1.316-.608 1.316-2.1 2.068-3.073 1.758-2.499 1.061 4.776 1.879 5.605.631 1.703.233 3.472.819 5.13.541 1.581-.343 3.604 1.448 4.831-1.415 2.466-.254 4.942-.542 7.64l-.044.044c-1.404-1.526-4.82-2.465-3.45.42.697 1.239 2.234 1.791 2.897 2.985 2.466 6.38 2.278 13.875 3.671 20.686-.94 1.868-5.429-.885-7.12-1.327-6.711-2.056-13.466-7.44-12.737-15.124Zm143.538 68.712c-4.986 2.708-9.906 6.379-15.445 7.728l4.909 2.454c-.409-.287-.608-.398-1.083-.685 3.405-1.913 7.064-3.107 10.525-4.821-2.355 1.99-4.478 5.418-7.021 6.811l-.884 2.222c.984.741.309 2.565-.962 2.399-.21.52-.763 1.924-.984 2.466 1.106.309.232 1.824-.686 1.724l-.95 2.355c1.802.033.63 1.924-.763 1.913-.022.564-1.537 1.99-1.88 2.388h.885l.022-.022v.022h-.022c-.641.774-1.25 1.072-1.979 1.183l-2.698 2.885c.586.023 1.183.056 1.78.122-8.469 7.651-20.564 1.946-30.636 2.112-5.494-.509-15.677-.951-19.314-4.688l-2.819-1.404c-2.2 2.421-7.861 10.813-11.233 9.143-9.563-7.374-19.867-13.665-29.818-20.508-14.007-9.508-31.542-14.638-41.326-29.376-5.55-8.236-13.986-16.219-13.787-26.832.221-8.723 6.247-15.998 15.456-15.158l-.022.022c10.448 1.261 19.27 7.662 29.552 9.763 10.68 7.993 21.15 16.517 30.304 26.39 8.104 9.939 16.584 19.657 24.843 29.419 1.979 1.736 2.145 3.549 1.846 5.473l1.935-4.643 2.532.486c-1.537-1.017-12.184-11.808-8.757-12.117 15.158-6.446 29.132-15.445 41.637-26.092 10.458-9.497 32.028-21.924 46.18-16.241 13.919 15.721-5.628 35.191-19.337 43.107Zm41.294-97.944c-34.107-44.864 12.349-36.385 6.246 10.492l-.022.022s0-.033.011-.055c-1.614-3.881-3.869-7.197-6.235-10.459Zm51.94-10.182c-6.954 20.973-29.364 31.277-47.805 40.431 0 .011-.011.011-.011.022h-.023c4.29-10.282 16.131-13.798 23.074-21.78 5.307-4.975 9.795-10.68 12.803-17.347 3.239-6.191 15.997-15.4 11.962-1.326Z" fill="#000"/><path d="M284.643 87.01c.619-35.545 45.517-37.049 53.787-4.523 9.63 46.026-52.648 49.199-53.776 4.511l-.022.022.011-.01Zm41.205 1.116c7.419-4.621 11.034-10.26 4.025-17.159-1.205-1.47-7.452-8.214-8.734-6.102-.233 2.852-2.786 5.306-3.162 7.75 3.372 4.72 5.881 10.05 7.849 15.544l.022-.022v-.011Zm-27.562-3.427c.52 3.36-.11 9.84 2.488 12.062 2.808-.553 11.255-.597 12.15-3.14-1.448-4.81-2.211-10.88-4.754-14.826-8.612 2.83-9.917-2.123-9.851 5.893h-.022l-.011.01Zm-8.922-9.873c-2.078 5.782-3.991 13.035-1.371 18.695 3.007 1.515 6.147 2.654 9.663 2.952-1.349-5.384-1.902-10.69-1.47-16.175.044-.762-.133-1.094-.951-1.348-2.322-.719-4.334-1.957-5.849-4.146l-.022.022Zm45.185 28.601c3.472-6.445 3.56-16.174.984-21.813-2.576 2.94-4.621 6.17-8.104 8.082-.74.486-1.116.696-.63 1.769 1.99 1.702.708 9.11 2.753 9.309 2.145 0 3.538 1.415 5.008 2.631l-.022.022h.011ZM316.34 73.941c-9.342 7.209-4.3 2.322-1.326 18.453.442 2.653 6.423-2.4 8.214-2.72 1.161-3.107-4.931-12.272-6.865-15.733h-.023Zm-28.059 22.322c2.52 8.159 8.026 14.152 14.969 18.574.255.21 1.239-.21 1.161-.487-.376-1.138.465-1.769.774-2.631-.531-3.129-4.102-5.76-5.008-9.032-1.758-5.307-7.573-4.025-11.896-6.424Zm26.865 6.025c-.652-1.514-.265-5.693-2.399-5.373-3.637 1.073-7.33 1.913-11.155 1.836-.442 0-.885.088-.63.652 1.127 1.703 4.256 9.851 6.08 8.955 1.814-3.239 6.114-3.648 8.127-6.047l-.023-.023Zm11.322-2.564c-.686-1.57-.973-8.115-3.052-7.684-2.255 1.536-6.335 2.288-7.684 4.466 1.493 1.415.509 4.577 2.001 5.451 1.747-.763 3.704-.564 5.407-1.448 1.061-.609 2.178-.642 3.095.022.354-.144.166-.531.233-.796v-.011ZM302.51 64.09c-1.791 4.002-2.532 8.17-3.372 12.316.077 3.118 5.704.84 7.683.553 2.167-.564-3.549-11.145-4.311-12.87Zm19.834 39.148c-.641-.398-4.588.675-4.467 1.471.487 3.471.885 6.976 1.327 10.47.066.541.276.11.442.022 3.483-3.007 6.158-7.983 6.424-12.405-.255-.144-.841-.166-.995 0-.763.829-1.681.442-2.731.442Zm-6.048-32.47c.918-2.477 4.655-6.91 1.703-8.359-3.947-1.194-9.276-2.388-12.991-.32 5.031 1.205 8.248 4.676 11.266 8.678h.022Zm-16.163-6.889c-4.014.697-6.966 5.108-9.365 8.26-1.293 1.735 3.593 4.112 5.009 4.842 1.968.287 2.31-10.625 4.333-13.102h.023Zm15.898 46.247h.022c.652-8.358-3.483-3.67-7.308-.586-1.89 2.377 5.053 4.942 6.799 6.003 2.101.73.233-4.179.509-5.439l-.022.022Zm-10.78-45.528c2.024 1.57 3.295 11.918 5.495 10.757.995-1.05 4.577-2.09 3.582-3.747-2.675-2.72-4.82-6.722-9.077-7.01Zm18.021 50.459c3.881-1.957 15.656-9.63 6.236-11.896-1.681-.862-2.985 9.674-6.213 11.918l-.023-.022Zm-10.038 2.123c-2.377-.896-4.279-3.262-6.258-4.301-3.084 4.234 3.527 4.002 6.258 4.301ZM190.636 29.906c-.254 3.438 1.404 7.495 5.329 7.396 1.282.32 1.725 1.072.951 2.322-2.167 4.521-3.074 9.43-5.683 13.775-1.183 2.19-2.211 4.511-2.72 6.987-.11.564-.11 1.14-.84 1.206-.763.066-1.028-.42-1.205-1.073-1.437-6.865-1.99-14.162-6.313-19.989-1.349-.984-1.095-3.427.696-3.073 4.81 2.708 5.473-10.537 5.727-13.522.1-1.625-.53-4.654 1.681-4.93 2.189-.056 1.714 3.747 1.979 5.24.033 3.438.619 3.383.387 6.324v-.652l.011-.011Zm-2.554 4.842c-.63 2.19-1.305 3.914-2.841 5.163-.487.398-.166.774.044 1.006 2.487 3.24 2.333 7.242 3.051 11.167 5.329-15.965 4.887-6.546-.276-17.336h.022ZM157.568 12.438c-.1 1.493.575 3.295 2.277 3.262 1.67.066-3.106 9.33-3.548 10.713-1.692-2.41-.918-6.755-3.218-9.287-.564-.431-.486-1.504.299-1.36 3.04 1.437 1.57-7.85 3.173-8.137 1.161-.155.873 4.345 1.017 5.097v-.288Zm-1.095 2.134c-.265.962-.563 1.725-1.216 2.277.542 1.593 1.261 3.428 1.327 5.374.464-1.736 1.493-3.483 1.625-5.097-.851-.586-1.426-1.393-1.736-2.543v-.011Z" fill="#010101"/><path d="M157.568 12.438c-.1 1.493.575 3.295 2.277 3.262 1.67.066-3.106 9.33-3.548 10.713-1.692-2.41-.918-6.755-3.218-9.287-.564-.431-.486-1.504.299-1.36 3.04 1.437 1.57-7.85 3.173-8.137 1.161-.155.873 4.345 1.017 5.097v-.288Zm-1.095 2.134c-.265.962-.563 1.725-1.216 2.277.542 1.593 1.261 3.428 1.327 5.374.464-1.736 1.493-3.483 1.625-5.097-.851-.586-1.426-1.393-1.736-2.543v-.011Z" fill="#000"/><path d="M41.691 75.025c-1.88 4.666-5.174 9.21-5.14 14.66-.144 1.98-.763 3.914-.51 5.96.145 1.205-1.26 1.094-1.68 1.857-3.482-2.853-.265-21.139-7.893-21.88-1.007-.11-1.239-1.138-.277-1.702 1.869-1.14 2.753-3.074 3.14-4.843 1.67-2.952 1.028-13.19 3.372-13.565 4.6 3.87 0 16.307 7.606 17.778 1.095.044 1.371.63 1.371 1.79l.022-.044-.01-.01Zm-8.822-5.727c-.608 1.603-.84 2.908-1.493 4.069-.232.398-.608.763-.143 1.327 2.167 2.564 2.51 5.837 3.394 9.076 3.67-10.757.475-4.82-1.747-14.472h-.011ZM259.072 43.284c-.41 2.94-1.57 16.274 3.935 14.405 1.482-1.647 3.793.498 2.212 2.256-3.45 4.93-6.678 9.983-7.33 16.219.342 3.195-3.815 2.067-3.306-.675.685-4.555-.719-9.961-4.445-12.847-1.116-.763-.508-2.09-1.282-2.885 2.233-2.687 4.057-.818 5.097-5.141 2.2-3.273 1.216-13.92 3.77-14.616 1.459.232 1.194 1.902 1.282 3.284h.067Zm-1.858 24.953c4.5-8.989 1.57-4.49-.508-12.383-4.898 9.32-2.245 2.366.486 12.405l.022-.022ZM83.284 154.948c-.41 2.94-1.57 16.274 3.935 14.405 1.482-1.647 3.793.509 2.212 2.256-3.45 4.931-6.678 9.983-7.33 16.219.342 3.195-3.815 2.067-3.306-.675.685-4.555-.708-9.961-4.445-12.847-1.116-.762-.508-2.089-1.282-2.885 2.233-2.687 4.057-.807 5.097-5.141 2.2-3.273 1.216-13.908 3.77-14.616 1.459.232 1.194 1.902 1.282 3.284h.067Zm-1.858 24.953c4.5-9 1.57-4.489-.508-12.383-4.887 9.32-2.245 2.366.486 12.405l.022-.022ZM39.646 37.845c.918-3.46.74-12.382-3.35-13.5-.973-.275-.796-1.912-1.913-2.089-.331-.044-.53-.586-.398-1.006.122-.42.321-.718.84-.906 5.54-1.128 6.06-7.419 6.922-12.029 4.179-6.014.475 14.671 6.28 11.1.961-.63 2.144.453 1.813 1.47-2.521 5.396-6.855 10.702-7.054 17.015.785 2.952-2.83 2.035-3.162-.066h.022v.011Zm2.908-8.259c4.311-8.137 1.536-3.725-.089-11.221-3.493 3.726-.575 6.854.089 11.221ZM62.797 116.506c1.581-2.156 1.935-7.208 5.075-6.655.552.398.53.95.298 1.492-.785 2.255-1.957 4.168-2.543 6.512 2.2-.586 4.788-3.792 6.778-2.399.53.63.165 1.415-.531 1.913-1.183 1.547-6.623 3.04-5.307 5.096.807 1.161 4.124 4.367 1.139 4.721-.929 0-2.023.542-2.698-.995-.143 1.415 1.073 2.952-.74 3.416-1.26.332-1.095-1.116-1.537-1.89-.509.542-.719 1.304-1.625 1.492-3.162.564-1.018-3.261-.741-4.864-1.028-.255-2.654 1.006-3.306-.166-.873-1.736 3.814-2.267 1.537-4.047-2.31-1.746-3.129-4.201.509-4.566.884.089.762-.21.718-.718.055-.73-.564-1.935.675-2.09 2 .089 1.293 2.477 2.3 3.748ZM226.059 14.062c-1.482 1.482-1.416 6.545-4.058 5.628-.553-.21-1.161-.675-.763-1.67.321-1.824 3.66-7.606-.398-5.163-.53.21-1.205.995-1.581 0-.298-.774-.608-1.88.84-2.1.863-.122 1.537-.719 2.333-1.05-1.039-1.66-4.566-6.468-.11-4.865 2.377-.741 1.006 1.503 2.277 2.885.973-1.028.608-2.355.863-3.493.254-1.095.696-1.68 1.835-1.814 3.206-.32 1.526 3.693.674 5.396 2.72-.221 5.042-4.334 7.408-2.256.508.564.884 1.305-.144 1.725-2.421 1.139-5.605 2.167-7.496 3.704.044.84.885 1.304 1.537 1.647.785.398 2.299 2.488 2.045 3.24-.464 1.47-1.901.53-2.609-.255-.94.74.984 2.61-1.028 2.886-2.278 0-1.095-2.985-1.625-4.467v.022ZM31.476 172.161c-1.481 1.481-1.415 6.545-4.057 5.627-3.118-.862 4.278-9.696-1.161-6.821-.531.21-1.205.995-1.581 0-.299-.774-.608-1.88.84-2.101.862-.122 1.537-.719 2.333-1.05-1.04-1.659-4.566-6.468-.11-4.865 2.376-.741 1.005 1.504 2.277 2.886.973-1.029.608-2.355.862-3.494.254-1.095.697-1.68 1.835-1.813 3.206-.321 1.526 3.693.675 5.395 2.72-.221 5.041-4.345 7.407-2.255.509.564.885 1.304-.144 1.724-2.42 1.139-5.605 2.167-7.495 3.704.044.84.884 1.305 1.536 1.647.774.398 2.3 2.488 2.046 3.24-.465 1.481-1.902.53-2.61-.254-.94.729.984 2.609-1.028 2.885-2.277 0-1.094-2.985-1.625-4.466v.022-.011ZM50.05 208.778c-.973.951-.951 4.157-2.665 3.56-.354-.133-.763-.431-.497-1.05.232-1.195 2.377-4.799-.266-3.262-.343.133-.785.63-1.039 0-.807-1.36 1.26-1.404 2.078-2.001-.707-1.084-2.974-4.091-.066-3.074 1.559-.464.652.94 1.493 1.825.63-.653.398-1.493.563-2.212.166-.696.454-1.061 1.194-1.149 2.09-.21 1.007 2.321.443 3.405 1.78-.133 3.306-2.742 4.853-1.426.332.365.575.829-.1 1.094-1.591.719-3.67 1.36-4.908 2.344.31 1.061 2.565 1.725 2.344 3.096-.31.928-1.238.342-1.714-.166-.586.497.586 1.713-.674 1.824-1.482 0-.719-1.868-1.062-2.819l.023.011ZM286.412 178.154c-1.183-7.872 12.947-7.452 12.427-.1 1.172 8.801-13.145 8.436-12.427.089v.022-.011Zm8.845.884c.287-1.934-2.764-5.373-4.721-3.162-4.19 3.616 4.577 8.834 4.732 3.162h-.022.011ZM193.765 203.692c-.487 2.709-5.318 7.12-7.496 4.467-.431-2.2 4.245-2.465 4.732-5.163.674-2.443 2.576-1.371 2.775.696h-.022.011ZM168.413 196.428c-6.456.353-5.373-5.219-2.332-3.472 2.432 2.532 4.245-1.791 6.124-.343 1.206 1.758-2.565 3.947-3.792 3.793v.022ZM192.748 194.474c-1.471-.166-4.257-1.78-2.985-3.516.42-.398.862-.796 1.68-.254.984 1.182 2.863 1.592 3.914-.089 3.339-2.72 3.129 4.091-2.609 3.859ZM100.707 35.809c4.655-8.469 8.281-17.756 14.229-25.296 8.602-3.66-.21 20.365-1.492 23.626 29.64-7.374 37.037-2.045 3.936 9.01 7.308 5.462 14.892 10.791 21.448 17.226 7.905 15.301-15.932-.144-19.812-3.56 3.869 7.031 9.231 14.383 10.005 22.72-.995 3.748-6.335 2.454-8.358-.21-5.782-6.092-10.702-12.803-15.323-19.79-.398-.487-.675-.653-1.238-.487 1.459 4.644-1.714 31.51-8.945 29.652-4.3-4.157-4.477-25.992-5.45-33.19-7.308 2.233-14.395 4.787-21.813 6.468-12.25-.708 9.33-14.693 12.802-15.965-4.123-4.322-17.214-6.998-15.268-14.34 3.615-3.846 8.359.786 12.46 1.405 2.698 1.16 5.605 1.857 8.104 3.471.674.653 1.283.1.84-.674-4.3-53.41 1.404-41.935 14.019-.11l-.144.022v.022Zm36.131 26.788c-12.405-17.336-40.442-17.446-9.475-28.325-29.453 7.86-16.34 6.434-11.852-19.525h-.276c-20.675 35.357-13.488 31.72-26.678-4.311.53 37.18 10.536 35.124-17.877 24.3l-.255.321c22.83 15.644 21.195 7.44-1.348 22.443 33.753-5.804 18.728-15.268 27.352 26.236 10.348-24.29-5.285-47.253 23.77-12.128 6.755 8.723 4.068 2.84 1.581-2.908-2.919-6.29-7.087-11.863-10.968-17.568-3.383-9.862 21.979 12.372 26.026 11.388v.077Z" fill="#010101"/></g><defs><linearGradient id="b" x1="6.633" y1="4.422" x2="333.234" y2="4.422" gradientUnits="userSpaceOnUse"><stop stop-color="#9059FF"/><stop offset=".521" stop-color="#FF4AA2"/><stop offset="1" stop-color="#FFBD4F"/></linearGradient><linearGradient id="c" x1="6.633" y1="4.422" x2="333.234" y2="4.422" gradientUnits="userSpaceOnUse"><stop stop-color="#9059FF"/><stop offset=".521" stop-color="#FF4AA2"/><stop offset="1" stop-color="#FFBD4F"/></linearGradient><linearGradient id="d" x1="6.633" y1="4.422" x2="333.234" y2="4.422" gradientUnits="userSpaceOnUse"><stop stop-color="#9059FF"/><stop offset=".521" stop-color="#FF4AA2"/><stop offset="1" stop-color="#FFBD4F"/></linearGradient><linearGradient id="e" x1="6.633" y1="4.422" x2="333.234" y2="4.422" gradientUnits="userSpaceOnUse"><stop stop-color="#9059FF"/><stop offset=".521" stop-color="#FF4AA2"/><stop offset="1" stop-color="#FFBD4F"/></linearGradient><linearGradient id="f" x1="6.633" y1="4.422" x2="333.234" y2="4.422" gradientUnits="userSpaceOnUse"><stop stop-color="#9059FF"/><stop offset=".521" stop-color="#FF4AA2"/><stop offset="1" stop-color="#FFBD4F"/></linearGradient><linearGradient id="g" x1="6.633" y1="4.422" x2="333.234" y2="4.422" gradientUnits="userSpaceOnUse"><stop stop-color="#9059FF"/><stop offset=".521" stop-color="#FF4AA2"/><stop offset="1" stop-color="#FFBD4F"/></linearGradient><linearGradient id="h" x1="6.633" y1="4.422" x2="333.234" y2="4.422" gradientUnits="userSpaceOnUse"><stop stop-color="#9059FF"/><stop offset=".521" stop-color="#FF4AA2"/><stop offset="1" stop-color="#FFBD4F"/></linearGradient><linearGradient id="i" x1="6.633" y1="4.422" x2="333.234" y2="4.422" gradientUnits="userSpaceOnUse"><stop stop-color="#9059FF"/><stop offset=".521" stop-color="#FF4AA2"/><stop offset="1" stop-color="#FFBD4F"/></linearGradient><linearGradient id="j" x1="6.633" y1="4.422" x2="333.234" y2="4.422" gradientUnits="userSpaceOnUse"><stop stop-color="#9059FF"/><stop offset=".521" stop-color="#FF4AA2"/><stop offset="1" stop-color="#FFBD4F"/></linearGradient><clipPath id="a"><path fill="#fff" d="M0 0h340.088v400H0z"/></clipPath></defs></svg>