<!-- This Source Code Form is subject to the terms of the Mozilla Public
   - License, v. 2.0. If a copy of the MPL was not distributed with this
   - file, You can obtain one at http://mozilla.org/MPL/2.0/. -->
<svg xmlns="http://www.w3.org/2000/svg" width="400" height="550" fill="none"><g clip-path="url(#a)"><path fill="#fff" d="M0 0h400v550H0z"/><path fill="url(#b)" d="M0 0h400v550H0z"/><path fill="url(#c)" fill-rule="evenodd" d="M272.671 215.932a56.175 56.175 0 0 1 20.086 25.394 102.923 102.923 0 0 1 6.497 50.298c-.062.517-.12 1.034-.178 1.551-.087.775-.174 1.549-.274 2.324-8.841 51.21-55.389 87.146-107.17 82.735-51.78-4.41-91.58-47.701-91.632-99.669v-.516a95.098 95.098 0 0 1 1.64-13.809v-.219c.117-.969.801-5.373.995-6.252l.129-.671a84.495 84.495 0 0 1 13.485-30.329 88.718 88.718 0 0 1 9.352-11.212 72.249 72.249 0 0 1 9.791-8.383 18.712 18.712 0 0 1 3.332-1.782 54.875 54.875 0 0 0 3.462 25.084 74.104 74.104 0 0 1 24.103-18.626 46.31 46.31 0 0 0 .284 24.464 30.49 30.49 0 0 1 2.583 1.964 50.087 50.087 0 0 1 27.565-10.618 73.028 73.028 0 0 1 34.462-55.645h.077a.321.321 0 0 1 .194 0 .283.283 0 0 1 .232.284c.334 1.373.833 2.7 1.486 3.953.31.632.658 1.317 1.111 2.04.571.969 1.165 1.938 1.758 2.907l.592.968c6.306 9.941 13.179 17.733 19.878 25.328 9.963 11.294 19.542 22.154 26.3 38.998v-.168a103.795 103.795 0 0 0-10.14-30.393Zm-95.314 103.765c.135.064.267.129.399.196l-.399-.196Zm.399.196.19.096c.262.133.526.267.806.393l-.996-.489Z" clip-rule="evenodd"/><path fill="url(#d)" d="M292.757 241.316a56.175 56.175 0 0 0-20.086-25.394 103.795 103.795 0 0 1 10.14 30.393v.207a90.665 90.665 0 0 1-3.087 67.567c-15.135 31.483-47.797 50.697-82.668 48.632-47.269-1.323-87.258-35.343-96.139-81.789a43.096 43.096 0 0 1 .711-16.701A73.633 73.633 0 0 0 100 278.039v.516c.052 51.968 39.852 95.259 91.632 99.67 51.781 4.41 98.329-31.525 107.17-82.736.168-1.291.297-2.583.452-3.875a102.923 102.923 0 0 0-6.497-50.298Z"/><path fill="url(#e)" d="M292.757 241.316a56.175 56.175 0 0 0-20.086-25.394 103.795 103.795 0 0 1 10.14 30.393v.207a90.665 90.665 0 0 1-3.087 67.567c-15.135 31.483-47.797 50.697-82.668 48.632-47.269-1.323-87.258-35.343-96.139-81.789a43.096 43.096 0 0 1 .711-16.701A73.633 73.633 0 0 0 100 278.039v.516c.052 51.968 39.852 95.259 91.632 99.67 51.781 4.41 98.329-31.525 107.17-82.736.168-1.291.297-2.583.452-3.875a102.923 102.923 0 0 0-6.497-50.298Z"/><path fill="url(#f)" d="m244.104 253.103.632.465a54.394 54.394 0 0 0-9.3-12.129c-19.584-18.321-21.465-48.742-4.288-69.337a73.03 73.03 0 0 0-34.423 55.568c1.162-.078 2.325-.181 3.513-.181a50.518 50.518 0 0 1 43.866 25.614Z"/><path fill="url(#g)" d="M200.305 259.317a24.205 24.205 0 0 1-12.038 11.07c-28.417 0-33.093 17.231-33.093 17.231a42.266 42.266 0 0 0 23.586 32.77c.556.284 1.124.542 1.679.801.982.439 1.964.839 2.946 1.201a44.374 44.374 0 0 0 13.033 2.583c19.638 1.884 37.881-10.344 43.6-29.225 5.72-18.882-2.67-39.177-20.053-48.508a34.569 34.569 0 0 1 24.141 5.851 50.517 50.517 0 0 0-43.917-25.614c-1.188 0-2.351.104-3.513.181a50.084 50.084 0 0 0-27.564 10.618c1.537 1.292 3.255 3.022 6.884 6.6a157.767 157.767 0 0 0 24.309 14.441Z"/><path fill="url(#h)" d="M200.305 259.317a24.205 24.205 0 0 1-12.038 11.07c-28.417 0-33.093 17.231-33.093 17.231a42.266 42.266 0 0 0 23.586 32.77c.556.284 1.124.542 1.679.801.982.439 1.964.839 2.946 1.201a44.374 44.374 0 0 0 13.033 2.583c19.638 1.884 37.881-10.344 43.6-29.225 5.72-18.882-2.67-39.177-20.053-48.508a34.569 34.569 0 0 1 24.141 5.851 50.517 50.517 0 0 0-43.917-25.614c-1.188 0-2.351.104-3.513.181a50.084 50.084 0 0 0-27.564 10.618c1.537 1.292 3.255 3.022 6.884 6.6a157.767 157.767 0 0 0 24.309 14.441Z"/><path fill="url(#i)" d="m164.489 234.956 2.08 1.37a46.324 46.324 0 0 1-.285-24.465 74.1 74.1 0 0 0-24.102 18.626 49.388 49.388 0 0 1 22.307 4.469Z"/><path fill="url(#j)" d="M100.913 280.951c8.855 46.449 48.821 80.489 96.087 81.841 34.902 2.078 67.592-17.162 82.719-48.683a90.665 90.665 0 0 0 3.126-67.568v-.155.168a67.399 67.399 0 0 1-26.686 60.851l-.065.129c-35.921 29.257-70.305 17.657-77.268 12.917l-1.459-.723c-18.094-7.588-29.287-25.919-27.771-45.48a25.718 25.718 0 0 1-23.702-14.919 37.767 37.767 0 0 1 36.812-1.486 49.82 49.82 0 0 0 37.588 1.486 157.966 157.966 0 0 1-24.258-14.441c-3.629-3.578-5.347-5.309-6.884-6.601a30.882 30.882 0 0 0-2.584-1.963l-2.079-1.369a49.374 49.374 0 0 0-22.307-4.469 54.866 54.866 0 0 1-3.462-25.085 18.79 18.79 0 0 0-3.333 1.783 72.17 72.17 0 0 0-9.79 8.383 88.41 88.41 0 0 0-9.352 11.212 84.473 84.473 0 0 0-13.485 30.328 75.022 75.022 0 0 0-1.847 23.844Z"/><path fill="url(#k)" d="M235.433 241.43a54.418 54.418 0 0 1 9.3 12.128c.542.414 1.059.827 1.498 1.292a48.037 48.037 0 0 1 9.92 52.61 67.4 67.4 0 0 0 26.686-60.915c-11.328-28.224-30.523-39.655-46.204-64.378-.787-1.291-1.588-2.583-2.35-3.875a21.884 21.884 0 0 1-1.111-2.04 17.506 17.506 0 0 1-1.486-3.953.283.283 0 0 0-.232-.284.321.321 0 0 0-.194 0h-.077c-17.237 20.597-15.371 51.074 4.25 69.415Z"/><path fill="url(#l)" d="M246.226 254.776c-.439-.4-.956-.814-1.498-1.291l-.633-.465a34.567 34.567 0 0 0-24.142-5.852c17.295 9.372 25.613 29.614 19.906 48.439-5.707 18.824-23.866 31.039-43.453 29.23a44.35 44.35 0 0 1-13.033-2.584 46.696 46.696 0 0 1-2.945-1.201c-.555-.258-1.124-.517-1.679-.801 6.962 4.754 41.333 16.353 77.268-12.917l.064-.129a48.037 48.037 0 0 0-9.855-52.429Z"/><path fill="url(#m)" d="M155.166 287.63s4.624-17.231 33.092-17.231a24.205 24.205 0 0 0 12.039-11.069 49.82 49.82 0 0 1-37.588-1.486 37.769 37.769 0 0 0-36.813 1.486 25.719 25.719 0 0 0 23.703 14.919c-1.514 19.55 9.666 37.872 27.745 45.467.465.219.904.465 1.395.684a42.262 42.262 0 0 1-23.573-32.77Z"/><path fill="url(#n)" d="M292.757 241.326a56.175 56.175 0 0 0-20.086-25.394 103.795 103.795 0 0 1 10.14 30.393v.168c-11.302-28.172-30.497-39.603-46.178-64.326-.787-1.291-1.588-2.583-2.35-3.875a21.884 21.884 0 0 1-1.111-2.04 17.506 17.506 0 0 1-1.486-3.953.283.283 0 0 0-.232-.284.321.321 0 0 0-.194 0h-.077a73.028 73.028 0 0 0-34.462 55.645c1.162-.077 2.325-.181 3.513-.181a50.517 50.517 0 0 1 43.917 25.614 34.569 34.569 0 0 0-24.141-5.851c17.294 9.372 25.612 29.614 19.905 48.439-5.707 18.824-23.866 31.039-43.453 29.229a44.348 44.348 0 0 1-13.033-2.583 47.554 47.554 0 0 1-2.945-1.201c-.555-.258-1.123-.517-1.679-.801l-1.459-.723c.465.219.904.465 1.395.684a42.264 42.264 0 0 1-23.574-32.666s4.625-17.231 33.093-17.231a24.207 24.207 0 0 0 12.039-11.07 157.758 157.758 0 0 1-24.258-14.441c-3.63-3.578-5.348-5.309-6.885-6.6a30.49 30.49 0 0 0-2.583-1.964 46.31 46.31 0 0 1-.284-24.464 74.104 74.104 0 0 0-24.103 18.626 54.875 54.875 0 0 1-3.462-25.084 18.712 18.712 0 0 0-3.332 1.782 72.249 72.249 0 0 0-9.791 8.383 88.718 88.718 0 0 0-9.352 11.212 84.495 84.495 0 0 0-13.485 30.329l-.129.671c-.194.879-1.046 5.348-1.162 6.316A118.3 118.3 0 0 0 100 278.049v.516c.052 51.968 39.852 95.259 91.632 99.669 51.781 4.411 98.329-31.525 107.17-82.735.168-1.292.297-2.583.452-3.875a102.923 102.923 0 0 0-6.497-50.298Z"/></g><defs><radialGradient id="d" cx="0" cy="0" r="1" gradientTransform="matrix(208.722 0 0 215.61 271.832 145.358)" gradientUnits="userSpaceOnUse"><stop offset=".129" stop-color="#FFBD4F"/><stop offset=".186" stop-color="#FFAC31"/><stop offset=".247" stop-color="#FF9D17"/><stop offset=".283" stop-color="#FF980E"/><stop offset=".403" stop-color="#FF563B"/><stop offset=".467" stop-color="#FF3750"/><stop offset=".71" stop-color="#F5156C"/><stop offset=".782" stop-color="#EB0878"/><stop offset=".86" stop-color="#E50080"/></radialGradient><radialGradient id="e" cx="0" cy="0" r="1" gradientTransform="matrix(208.722 0 0 215.61 195.558 253.731)" gradientUnits="userSpaceOnUse"><stop offset=".3" stop-color="#960E18"/><stop offset=".351" stop-color="#B11927" stop-opacity=".74"/><stop offset=".435" stop-color="#DB293D" stop-opacity=".343"/><stop offset=".497" stop-color="#F5334B" stop-opacity=".094"/><stop offset=".53" stop-color="#FF3750" stop-opacity=".01"/></radialGradient><radialGradient id="f" cx="0" cy="0" r="1" gradientTransform="matrix(629.917 0 0 650.704 199.973 109.859)" gradientUnits="userSpaceOnUse"><stop offset=".132" stop-color="#FFF44F"/><stop offset=".252" stop-color="#FFDC3E"/><stop offset=".506" stop-color="#FF9D12"/><stop offset=".526" stop-color="#FF980E"/></radialGradient><radialGradient id="g" cx="0" cy="0" r="1" gradientTransform="matrix(223.5 0 0 230.876 138.896 398.985)" gradientUnits="userSpaceOnUse"><stop offset=".353" stop-color="#3A8EE6"/><stop offset=".472" stop-color="#5C79F0"/><stop offset=".669" stop-color="#9059FF"/><stop offset="1" stop-color="#C139E6"/></radialGradient><radialGradient id="h" cx="0" cy="0" r="1" gradientTransform="rotate(-12.809 1131.776 -761.948) scale(118.111 121.632)" gradientUnits="userSpaceOnUse"><stop offset=".206" stop-color="#9059FF" stop-opacity=".01"/><stop offset=".278" stop-color="#8C4FF3" stop-opacity=".064"/><stop offset=".747" stop-color="#7716A8" stop-opacity=".45"/><stop offset=".975" stop-color="#6E008B" stop-opacity=".6"/></radialGradient><radialGradient id="i" cx="0" cy="0" r="1" gradientTransform="matrix(586.335 0 0 605.684 516.102 -42.781)" gradientUnits="userSpaceOnUse"><stop stop-color="#FFE226"/><stop offset=".121" stop-color="#FFDB27"/><stop offset=".295" stop-color="#FFC82A"/><stop offset=".502" stop-color="#FFA930"/><stop offset=".732" stop-color="#FF7E37"/><stop offset=".792" stop-color="#FF7139"/></radialGradient><radialGradient id="j" cx="0" cy="0" r="1" gradientTransform="matrix(325.795 0 0 336.546 258.564 87.645)" gradientUnits="userSpaceOnUse"><stop offset=".113" stop-color="#FFF44F"/><stop offset=".456" stop-color="#FF980E"/><stop offset=".622" stop-color="#FF5634"/><stop offset=".716" stop-color="#FF3647"/><stop offset=".904" stop-color="#E31587"/></radialGradient><radialGradient id="k" cx="0" cy="0" r="1" gradientTransform="rotate(77.763 -58.163 151.983) scale(346.995 336.922)" gradientUnits="userSpaceOnUse"><stop stop-color="#FFF44F"/><stop offset=".06" stop-color="#FFE847"/><stop offset=".168" stop-color="#FFC830"/><stop offset=".304" stop-color="#FF980E"/><stop offset=".356" stop-color="#FF8B16"/><stop offset=".455" stop-color="#FF672A"/><stop offset=".57" stop-color="#FF3647"/><stop offset=".737" stop-color="#E31587"/></radialGradient><radialGradient id="l" cx="0" cy="0" r="1" gradientTransform="matrix(469.191 0 0 484.675 130.741 83.866)" gradientUnits="userSpaceOnUse"><stop offset=".137" stop-color="#FFF44F"/><stop offset=".48" stop-color="#FF980E"/><stop offset=".592" stop-color="#FF5634"/><stop offset=".655" stop-color="#FF3647"/><stop offset=".904" stop-color="#E31587"/></radialGradient><radialGradient id="m" cx="0" cy="0" r="1" gradientTransform="matrix(560.313 0 0 578.803 410.764 79.89)" gradientUnits="userSpaceOnUse"><stop offset=".094" stop-color="#FFF44F"/><stop offset=".231" stop-color="#FFE141"/><stop offset=".509" stop-color="#FFAF1E"/><stop offset=".626" stop-color="#FF980E"/></radialGradient><linearGradient id="b" x1="0" x2="368.013" y1="550" y2="282.354" gradientUnits="userSpaceOnUse"><stop stop-color="#0290EE"/><stop offset="1" stop-color="#9059FF"/></linearGradient><linearGradient id="c" x1="201.885" x2="30.656" y1="118.187" y2="273.001" gradientUnits="userSpaceOnUse"><stop offset=".048" stop-color="#FFF44F"/><stop offset=".111" stop-color="#FFE847"/><stop offset=".225" stop-color="#FFC830"/><stop offset=".368" stop-color="#FF980E"/><stop offset=".401" stop-color="#FF8B16"/><stop offset=".462" stop-color="#FF672A"/><stop offset=".534" stop-color="#FF3647"/><stop offset=".705" stop-color="#E31587"/></linearGradient><linearGradient id="n" x1="209.061" x2="63.186" y1="130.117" y2="266.808" gradientUnits="userSpaceOnUse"><stop offset=".167" stop-color="#FFF44F" stop-opacity=".8"/><stop offset=".266" stop-color="#FFF44F" stop-opacity=".634"/><stop offset=".489" stop-color="#FFF44F" stop-opacity=".217"/><stop offset=".6" stop-color="#FFF44F" stop-opacity=".01"/></linearGradient><clipPath id="a"><path fill="#fff" d="M0 0h400v550H0z"/></clipPath></defs></svg>