<!-- This Source Code Form is subject to the terms of the Mozilla Public
   - License, v. 2.0. If a copy of the MPL was not distributed with this
   - file, You can obtain one at http://mozilla.org/MPL/2.0/. -->
<svg id="Layer_1" xmlns="http://www.w3.org/2000/svg" viewBox="0 0 214.05 203.84"><path fill="context-stroke" d="M169.94,100.39c-2.09,.23-3.85,.42-5.61,.62-.99,.11-1.98,.29-2.97,.31-.79,.01-1.06,.39-1.11,1.07-.04,.55,.03,1.13-.1,1.66-.09,.34-.45,.61-.69,.92-.21-.37-.57-.72-.6-1.1-.05-.7,.09-1.41,.16-2.15-.96,.18-1.67,.39-2.38,.42-.44,.02-1.13-.12-1.28-.41-.41-.8-.93-.61-1.56-.46-5.35,1.26-10.1,3.81-14.48,7.03-1.93,1.42-3.58,3.2-5.36,4.81-.58,.53-.72,1.09-.33,1.84,.84,1.67,1.65,3.35,2.38,5.07,1.15,2.69,2.8,5.19,3.13,8.22,.15,1.41-.14,2.25-1.33,3.09-1.11,.78-2.1,1.74-3.26,2.44-1.05,.64-2.27,1-3.38,1.54-.92,.45-1.74,1.11-2.69,1.46-1.69,.63-3.41,1.19-5.16,1.6-3.44,.81-6.91,1.47-10.36,2.24-.54,.12-1.18,.37-1.5,.78-2.66,3.32-5.13,6.81-7.91,10.03-4.82,5.57-9.79,11.01-14.77,16.44-1.12,1.21-2.43,2.38-3.88,3.11-1.38,.69-2.37,1.95-3.89,2.34-1.54,.39-3.05,.98-4.61,1.15-3.78,.4-6.2-1.63-7.07-5.33-1.02-4.35-.8-8.62,.44-12.83,.69-2.32,1.73-4.55,2.71-6.78,.89-2.02,1.92-3.99,2.92-6.04-.05-.03-.16-.14-.28-.15-2.24-.12-4.49-.21-6.73-.33-.25-.01-.54-.07-.72-.21-.86-.67-1.69-1.38-2.55-2.05-.18-.14-.45-.26-.68-.26-5.55-.04-10.98-1.09-16.41-2.08-1.85-.34-3.71-.6-5.74-.93,.31,2.23,.5,4.41,.92,6.53,.48,2.41,.05,4.72-.38,7.05-.12,.65-.29,1.29-.42,1.94-.31,1.56,1.69,3.57,3.27,3.24,.36-.08,.79-.37,.95-.68,.8-1.58,1.67-3.14,2.23-4.81,1.12-3.28,1.76-6.68,1.85-10.17,0-.34,.48-.67,.74-1.01,.18,.35,.52,.71,.5,1.06-.23,5.16-1.27,10.13-3.63,14.76-1.26,2.48-3.65,2.8-5.66,.87-.53-.51-.89-1.29-1.85-1.24-.12,0-.36-.58-.4-.91-.26-2.56-.47-5.13-.7-7.69-.19-2.17-.42-4.35-.53-6.52-.02-.38,.45-.79,.69-1.19,.19,.41,.55,.81,.56,1.22,.05,3.54,.33,7.04,1,10.51,.14,0,.28,.01,.42,.02,.09-1.7,.33-3.4,.23-5.09-.13-2.17-.55-4.32-.8-6.49-.29-2.53-.45-5.08-.82-7.6-.28-1.86-.91-3.66-1.2-5.51-.5-3.18-.7-6.41-1.3-9.56-.78-4.08,.16-7.75,2.03-11.32,.47-.91,.71-1.94,1.12-2.89,.12-.29,.43-.51,.66-.76,.16,.29,.5,.63,.44,.87-.28,1.17-.61,2.33-1.03,3.46-.4,1.07-1,2.07-1.42,3.14-.85,2.16-.9,4.39-.57,6.67,.41,2.78,.63,5.6,1.04,8.38,.28,1.9,.79,3.76,1.13,5.66,.33,1.89,.62,3.79,.84,5.7,.07,.64,.21,1.03,.9,1.15,.69,.12,1.36,.37,2.05,.49,4.66,.8,9.31,1.74,14,2.29,2.53,.3,5.14-.03,7.71-.16,.59-.03,.94,.11,.83,.66-.27,1.41,.82,1.78,1.7,1.95,1.63,.31,3.31,.34,4.97,.47,.22,.02,.48-.08,.66,0,2.87,1.32,5.69-.69,8.55-.11,.56,.11,1.2,.04,1.77-.08,.42-.09,.81-.39,1.2-.62,.44-.27,.85-.57,1.28-.86,.09,.1,.17,.2,.26,.3-.14,.34-.28,.68-.52,1.27,1.56,0,2.98,.03,4.4-.01,1.14-.03,2.28-.2,3.43-.23,.97-.03,1.65-.43,2.24-1.2,2.81-3.66,5.63-7.31,8.48-10.94,1.75-2.23,3.62-4.38,5.34-6.64,1.84-2.41,3.59-4.89,5.32-7.38,.42-.61,.57-1.4,.93-2.05,.49-.9,1-1.8,1.62-2.62,1.89-2.5,3.84-4.96,5.77-7.43,1.47-1.88,2.74-3.95,4.86-5.23,.28-.17,.67-.48,.88-.4,1.15,.47,1.74-.39,2.53-.89,4.85-3.05,10.12-4.82,15.84-5.26,1.62-.12,3.24-.3,4.84-.52,.32-.04,.72-.34,.87-.62,.57-1.07,1.6-1.16,2.42-.25,.21,.24,.8,.22,1.2,.18,.46-.05,.9-.25,1.5-.43,.02-.25-.07-.66,.09-.94,.19-.32,.58-.53,.89-.78,.13,.31,.41,.66,.35,.93-.17,.82,.1,1.06,.91,1.05,2.06-.04,4.11-.01,6.24-.01-1.08-1.6-2.19-3.11-3.15-4.71-1.03-1.71-1.94-3.5-2.83-5.29-.22-.44-.1-1.04-.14-1.56,.56-.01,1.17-.16,1.68-.01,1.31,.39,2.56,.95,3.86,1.38,.29,.1,.66-.06,.99-.11,.37-.05,.85-.29,1.09-.14,1.87,1.22,4.02,1.54,6.13,1.84,3.85,.56,7.42,2,11.07,3.21,2,.66,4.04,1.21,6.04,1.89,1.2,.41,2.38,.9,3.5,1.5,.22,.12,.23,.99,.05,1.38-.18,.39-.71,.63-1.1,.9-.61,.41-1,.86-1.04,1.69-.02,.5-.43,1.08-.84,1.44-1.24,1.09-2.68,1.98-3.84,3.15-3.37,3.38-6.64,6.85-9.94,10.3-1.7,1.78-3.31,3.66-5.06,5.4-1.3,1.3-2.68,2.53-4.64,2.84-.55,.09-1.02,.64-1.57,.77-.56,.14-1.44,.25-1.7-.05-.33-.39-.36-1.23-.23-1.81,.72-3.01,1.58-5.98,2.31-8.98,.36-1.5,.55-3.04,.86-4.8Zm10.51-15.2h-1.55c.29,2.09,.54,4.07,.86,6.03,.1,.61,.35,1.23,.67,1.76,.63,1.03,1.18,.95,1.71-.17-1.51-.56-2.13-1.7-1.72-3.35,.17-.69,.25-1.54,1.22-1.66,.96-.11,1.52,.49,1.93,1.23,.87,1.58,.6,3.14-.24,4.64-.45,.8-1.01,1.55-2.05,1.45-1.08-.11-1.84-.78-2.24-1.77-.29-.71-.56-1.46-.69-2.21-.35-2.13-.93-4.25-.33-6.38-4.15-2.75-9.21-2.62-13.84-4.5,.23,.56,.35,.95,.55,1.29,1.73,3.11,3.51,6.18,6,8.77,.29,.3,.37,.8,.54,1.21-.46,.12-.92,.35-1.38,.34-2.52-.05-5.03-.14-7.55-.24-.78-.03-1.13,.28-1.18,1.08-.14,1.85-.35,3.69-.52,5.53-.01,.13,.08,.27,.14,.47,1.68-.15,3.34-.42,4.99-.41,1.45,0,2.97,.13,4.34,.57,.97,.31,1.65,.36,2.39-.29,.56-.5,1.09-.44,1.21,.33,.12,.74,.19,1.57-.03,2.26-.73,2.33-1.61,4.61-2.42,6.91-.5,1.41-.98,2.83-1.47,4.24,.11,.09,.22,.18,.33,.26,.49-.18,1.09-.24,1.45-.56,2.81-2.52,5.58-5.08,8.33-7.66,.17-.16,.24-.64,.13-.83-.87-1.38-1.74-2.77-2.73-4.07-.39-.51-.37-.89-.01-1.25,.28-.28,.81-.65,1.07-.55,.37,.14,.67,.63,.86,1.04,.25,.56,.32,1.19,.55,1.76,.71,1.74,1.91,2.01,3.22,.74,2.31-2.24,4.62-4.49,6.9-6.77,.77-.77,1.48-1.61,2.29-2.5-1.17-.71-2.18-1.32-3.22-1.95-.16,.32-.24,.44-.29,.58-.31,.79-.74,1.47-1.7,1.54-.98,.08-1.65-.49-2.07-1.25-.46-.84-.85-1.74-1.06-2.67-.21-.93-.71-1.34-1.53-1.69-.69-.29-1.26-.87-1.89-1.32,1-.73,1.9,.2,2.85,.27,.04-.12,.09-.25,.13-.37-.96-.37-1.92-.73-2.89-1.11-.02,.5-.04,.86-.06,1.23Zm-73.64,54.68c.04,.1,.09,.2,.13,.3,1.16-.19,2.33-.33,3.47-.6,.5-.12,1.06-.4,1.38-.79,1.83-2.27,3.6-4.6,5.38-6.91,2.84-3.69,5.68-7.38,8.51-11.07,1.99-2.59,3.98-5.18,5.98-7.77,.11-.15,.25-.27,.4-.39,1.08-.87,2.14-1.76,3.24-2.6,2.55-1.95,5.01-4.04,7.71-5.76,3.57-2.28,7.53-3.72,11.7-4.57,.33-.07,.82-.5,.84-.78,.11-1.96,.15-3.92,.12-5.88,0-.27-.52-.75-.8-.75-1.36-.03-2.73-.03-4.07,.14-2.17,.28-4.35,.55-6.46,1.09-2.35,.59-4.7,1.32-6.93,2.26-3.76,1.59-6.76,4.33-9.7,7.06-1.96,1.83-3.55,4.05-5.3,6.1,.3,.17,.45,.13,.61,.11,.36-.05,.72-.08,1.08-.12-.12,.38-.14,.84-.38,1.11-.25,.28-.81,.3-1.07,.58-.72,.79-1.37,1.66-2.04,2.51-3.29,4.14-6.56,8.29-9.87,12.41-2.42,3.02-4.92,5.98-7.33,9.01-1.64,2.06-3.18,4.2-4.77,6.31,.04,.11,.08,.22,.12,.32,1.96-.24,3.93-.48,5.89-.75,.23-.03,.47-.24,.63-.43,1.65-2.03,3.32-4.04,4.92-6.11,1.73-2.24,3.36-4.55,5.09-6.79,1.58-2.04,3.18-4.07,4.84-6.04,2.14-2.52,4.35-4.99,6.57-7.45,.3-.34,.82-.47,1.25-.71,.11,.13,.23,.26,.34,.39-8.03,8.17-14.35,17.69-21.48,26.58Zm-21.71,3.46c-2.33,0-4.63,.03-6.92-.02-.73-.01-1.18,.2-1.49,.86-1.56,3.26-3.28,6.46-4.7,9.78-1.7,3.97-2.39,8.16-1.78,12.47,.23,1.59,.68,3.19,1.28,4.69,.66,1.66,3.03,2.38,5.56,1.96,4.04-.67,7.3-2.79,10.09-5.63,3.58-3.64,7.1-7.33,10.51-11.13,2.84-3.16,5.48-6.5,8.18-9.79,1.3-1.58,2.5-3.24,3.75-4.87-2.22,.2-4.47-.23-6.05,2.04-1.52,2.19-3.43,4.12-5.19,6.14-.24,.27-.56,.53-.89,.64-.26,.09-.59-.05-.89-.09,.06-.33,.08-.68,.21-.98,.08-.17,.38-.23,.53-.39,1.97-2.12,3.94-4.26,5.9-6.39l-.24-.35c-.97,.12-1.96,.38-2.92,.32-2.08-.13-3.42,.76-4.77,2.32-2.7,3.11-5.65,6.01-8.57,8.94-.95,.96-2.05,1.82-3.21,2.51-.9,.54-1.69,.05-1.89-.98-.1-.49-.17-1.06-.04-1.52,.73-2.47,1.5-4.94,2.34-7.37,.3-.87,.85-1.65,1.38-2.63,0-.02-.1-.3-.18-.54Zm28.27-4.48c.07,.1,.14,.2,.22,.3,.89-.26,1.76-.58,2.67-.77,2.85-.61,5.78-.95,8.55-1.81,2.68-.83,5.25-2.09,7.79-3.33,1.27-.62,2.41-1.55,3.5-2.46,.61-.51,1.38-1.27,1.41-1.94,.05-1.18-.26-2.44-.71-3.55-1.09-2.65-2.35-5.22-3.54-7.82-.33-.72-.66-1.45-.99-2.17-.14,0-.28,0-.42,0-6.16,7.86-12.32,15.71-18.48,23.57Zm-18.17,4.35c-2.12,0-4.15,.09-6.17-.03-1.56-.09-2.73,.24-3.25,1.84-.01,.03-.07,.06-.07,.08,0,.53,0,1.06-.02,1.59,0,.26,.06,.65-.08,.77-1.26,1.11-1.29,2.67-1.55,4.14-.06,.35,.1,.74,.21,1.44,3.74-3.46,8.1-5.75,10.93-9.84Zm61.74-44.03c.48-.04,.95-.11,1.42-.11,.77,0,1.09-.32,1.13-1.12,.09-1.7,.3-3.39,.39-5.09,.01-.31-.35-.9-.57-.91-.79-.04-1.58,.11-2.37,.18v7.04Zm28.07-13.5c-.09,.09-.17,.19-.26,.28,.29,.25,.54,.59,.87,.74,.86,.39,1.83,.58,2.63,1.06,1.48,.88,2.86,1.93,4.32,2.84,.22,.14,.77,.02,1-.17,.56-.45,1.02-1.02,1.59-1.63-3.46-1.07-6.81-2.1-10.16-3.13Zm-14.55,20.16l.3,.09c.61-1.84,1.22-3.67,1.84-5.54-1.33-.26-1.36-.23-1.37,.73,0,.4,0,.82-.08,1.21-.21,1.17-.46,2.34-.69,3.51Zm-87.65,49.78c.8-.65,1.38-1.12,1.96-1.6-.7-.32-1.27-.59-1.96-.9v2.5Z"/><path fill="context-stroke" d="M73.83,72.08c.79-1.22,1.54-2.47,2.41-3.63,.26-.34,1.12-.68,1.31-.53,.54,.43,.1,.87-.24,1.37-.79,1.14-1.42,2.39-2.1,3.6-.16,.29-.21,.67-.43,.89-.74,.74-.7,1.49-.21,2.15-.23,.67-.43,1.24-.63,1.82,1.34-.55,1.13-2.67,3.16-2.23-.31,.61-.67,1.2-.91,1.83-.41,1.1-.82,2.21-1.1,3.35-.35,1.42,.22,2.18,1.68,2.5,.9-2.68,1.67-5.41,2.76-8.01,.65-1.56,1.79-2.93,2.74-4.36,.15-.22,.45-.42,.71-.48,.28-.06,.6,.07,.9,.12-.07,.26-.07,.56-.21,.76-.77,1.06-1.79,1.99-2.32,3.15-1.03,2.27-1.79,4.65-2.63,7-.16,.44-.2,.93-.24,1.41-.14,1.81,.06,1.96,1.76,1.52,.26-.07,.7-.09,.83,.06,.91,1.02,2.1,.8,3.21,.76,1.49-.05,2.98-.23,4.47-.36,.01-.16,.03-.32,.04-.48-.53-.12-1.05-.35-1.58-.34-.88,.01-1.76,.17-2.64,.28-.9,.11-1.43-.52-1.1-1.37,.48-1.24,.99-2.47,1.5-3.69,.31-.74,1.19-1.05,1.97-.61,1.16,.65,2.26,1.4,3.4,2.08,.53,.32,1.12,.55,1.62,.9,.21,.15,.26,.52,.38,.78-.29,.03-.63,.17-.85,.06-1.67-.78-3.31-1.61-5.08-2.48-.35,.75-.76,1.61-1.21,2.57,1.11,0,2.18-.07,3.22,.02,1.1,.1,1.75,.87,1.83,1.9,.08,1.08-.73,1.38-1.48,1.68-2.13,.85-4.37,.62-6.58,.59-.37,0-.74-.28-1.1-.45-.3-.14-.63-.49-.87-.43-1.81,.46-2.98-1.07-4.54-1.4-1.37-.29-1.98-1.52-1.98-2.87,0-1.12-.05-2.09-.69-3.12-.47-.75-.38-1.85-.55-2.79-.59-3.18-.16-6.26,1.6-8.94,1.08-1.64,2.82-2.74,4.87-3.11,1.04-.19,2.09-.59,3.11-.52,1.49,.11,3,.41,4.4,.9,1.97,.68,3.85,1.6,5.76,2.42,1.77,.76,3.51,1.59,5.3,2.28,.72,.28,1.76,.01,2.29,.44,.57,.47,1,1.06,1.73,1.46,.96,.52,1.74,1.41,2.51,2.22,1.27,1.35,2.48,2.77,3.69,4.18,.41,.47,.71,1.04,1.08,1.54,1.03,1.39,2.09,2.77,3.11,4.17,1.31,1.78,2.58,3.59,3.9,5.36,.69,.93,1.44,1.82,2.28,2.88,.98-1.11,2.02-2.15,2.9-3.3,2.02-2.64,4.1-5.25,5.9-8.04,2.93-4.56,4.87-9.54,5.46-14.99,.21-1.93-.57-3.39-1.97-4.59-3.36-2.88-7.28-3.8-11.6-3.14-2.33,.36-4.71,.59-6.97,1.22-2.37,.67-4.67,1.65-6.9,2.7-1.63,.76-3.13,1.82-4.65,2.81-.51,.33-.88,.88-1.35,1.27-.25,.21-.6,.29-.91,.43-.08-.33-.29-.71-.19-.98,.16-.43,.45-.89,.82-1.14,1.25-.84,2.55-1.61,3.85-2.37,1.26-.73,2.53-1.45,3.83-2.11,4.49-2.29,9.4-2.9,14.32-3.23,4.37-.3,8.23,1.13,11.38,4.27,1.42,1.42,1.86,3.19,1.64,5.11-.14,1.24-.51,2.45-.76,3.68-.12,.61-.14,1.25-.31,1.85-1.49,5.51-4.49,10.22-7.85,14.72-1.59,2.13-3.37,4.12-5.12,6.12-.57,.65-.69,1.13-.06,1.79,.45,.47,.78,1.04,1.28,1.71,1.48-2.29,2.87-4.37,4.2-6.5,1.28-2.06,1.95-4.48,3.5-6.37,.15,.05,.3,.11,.45,.16-.09,.54-.03,1.17-.29,1.62-2.13,3.76-4.28,7.51-6.53,11.2-.47,.78-.53,1.22,.02,1.93,1.22,1.56,2.34,3.18,3.53,4.81-.3,.28-.54,.51-1,.95-.64-.91-1.24-1.78-1.85-2.62-1.49-2.05-2.96-4.11-4.5-6.11-.27-.35-1.07-.34-1.29-.7-.24-.39,.12-1.15-.12-1.51-1.1-1.6-2.3-3.12-3.52-4.63-.13-.16-.61-.01-.93-.04-.36-.04-.89,.02-1.05-.19-1.45-1.88-2.86-3.79-4.23-5.72-.66-.93-1.09-2.03-1.82-2.88-2.13-2.49-3.66-5.59-6.68-7.19-2.36-1.25-4.86-2.23-7.31-3.31-1.48-.66-2.92-1.41-4.45-1.9-3.15-1.02-6.38-1.25-9.54-.07-.78,.29-1.41,1.08-2.01,1.73-1.09,1.2-1.7,2.64-1.83,4.27-.01,.14,.01,.29,.02,.43,.08,.02,.15,.04,.23,.06Z"/><path fill="context-stroke" d="M44.48,92.01c.2,.65,.77,.86,1.62,.5,.27-.11,.57-.16,.86-.19,2.03-.2,3.16,1.12,2.5,3.05-.41,1.21-1.08,2.34-1.64,3.5-.09,.19-.21,.36-.43,.76,.77-.17,1.33-.3,1.89-.42,.4-.09,.79-.21,1.19-.25,2.26-.2,3.21,1.11,2.33,3.17-.13,.3-.28,.6-.48,.99,.29,0,.49,0,.7,0,1.35-.02,2.08,.77,1.58,2.08-.51,1.32-1.38,2.51-2.11,3.75-.18,.31-.46,.57-.87,1.06,.59-.04,.97-.05,1.34-.08,1.61-.14,2.45,.71,2.06,2.28-.51,2.05-1.63,3.79-3.1,5.3-.09,.1-.28,.11-.42,.16,.05,.08,.1,.17,.15,.25,.19,.07,.38,.21,.57,.21,1.25,0,1.98,.65,2.38,1.79,.1,.29,.3,.57,.52,.8,.82,.87,.81,1.59-.13,2.35-.71,.57-1.41,1.38-2.22,1.53-1.32,.26-2.75,.22-4.09,.01-.83-.13-1.12-1.35-.54-2,1.14-1.29,2.1-3.02,4.34-2.29,.21,.07,.5-.11,.76-.18,0-.14,.01-.27,.02-.41-.53-.09-1.06-.22-1.59-.25-.28-.02-.58,.21-.86,.19-.41-.03-.9-.09-1.17-.34-.14-.13,.05-.76,.25-1.06,.92-1.34,1.92-2.62,2.84-3.96,.33-.47,.56-1.02,.74-1.57,.14-.43,.13-.91,.19-1.37-.46-.01-.94-.12-1.38-.03-2.97,.59-5.93,1.26-8.91,1.81-.74,.14-1.56,.06-2.29-.13-.28-.07-.42-.72-.62-1.1,.36-.02,.71-.07,1.07-.05,.32,.01,.65,.19,.94,.13,2.23-.49,4.45-1.01,6.66-1.56,.33-.08,.69-.33,.9-.61,.99-1.25,1.95-2.52,2.86-3.82,.3-.43,.41-.98,.6-1.48-.1-.12-.2-.23-.3-.35-.96,.47-1.93,.91-2.86,1.43-.48,.27-.83,.78-1.32,1.01-.36,.17-.84,.07-1.27,.09,.12-.41,.13-.92,.38-1.2,1.02-1.15,2.13-2.23,3.18-3.36,.19-.21,.31-.51,.39-.79,.29-1-.12-1.46-1.12-1.19-1.25,.33-2.46,.81-3.72,1.13-.58,.15-1.22,.06-1.83,.08,.22-.54,.37-1.13,.68-1.61,.98-1.51,2.17-2.89,2.56-4.73,.28-1.28-.14-1.77-1.45-1.5-1.98,.41-3.63,1.4-4.97,2.93-.26,.29-.71,.41-1.08,.62,.09-.51,0-1.17,.29-1.49,.77-.83,1.7-1.52,2.6-2.3-.3-.79-.75-.53-1.34-.24-3.13,1.51-6.25,3.05-9.43,4.43-1.51,.65-2,.26-2.37-1.43-.96,.07-1.95,.16-2.94,.21-.44,.02-.91,.03-1.33-.09-.72-.21-1.19-.72-.89-1.5,.13-.34,.59-.55,.89-.82,.18,.3,.36,.6,.64,1.07h4.98c.08-1.69,.18-3.28,.21-4.88,0-.2-.36-.47-.6-.61-.86-.48-1.82-.83-2.6-1.41-.72-.53-.66-1.19-.04-1.45,1.12,.64,2.04,1.17,2.96,1.7,.54,.31,.88,.17,1.1-.43,.19-.52,.45-1.01,.71-1.5,.52-.96,.73-1.86,.04-2.9-.34-.5-.36-1.26-.39-1.91-.01-.21,.39-.44,.6-.66,.17,.21,.41,.38,.5,.62,.28,.73,.51,1.48,.8,2.35,1.13-1.02,2.05-1.85,2.77-2.51-.16-1.28-.37-2.42-.4-3.56-.01-.37,.45-.75,.7-1.12,.18,.4,.41,.78,.53,1.19,.08,.27-.01,.59,0,.88,.09,1.28,.61,1.59,1.81,1.2,1.69-.54,3.39-1.13,5.22-.62,1.34,.38,1.77,.82,1.7,2.21-.12,2.13-.14,4.31-.66,6.36-.35,1.39-1.48,2.58-2.4,4.08Zm-.01-2.49c.43-.63,.92-1.03,1-1.5,.28-1.74,.49-3.49,.58-5.24,.12-2.13-.42-2.55-2.53-2.23-.25,.04-.52,.06-.76,.13-1.79,.54-3.54,1.14-4.97,2.7,3.38,.8,5.49,2.83,6.69,6.13Zm-4.96,3.52c-2.32-1.33-4.21-2.73-5.09-5.24-1.36,2.62-1.56,5.11-.41,7.82,1.61-.76,3.44-1.61,5.5-2.58Zm-1.64-6.81c-.62-.49-1.3-.79-1.94-.16-.52,.51-.05,1.63,.76,2.12,.37-.62,.74-1.23,1.18-1.96Zm12.98,35.81c0,.16-.01,.31-.02,.47,.56,.08,1.13,.26,1.67,.19,.27-.04,.49-.53,.73-.81l-.23-.3c-.72,.15-1.43,.31-2.15,.46Zm-11.28-32.22c-.03,.07-.06,.13-.09,.2,.88,.07,1.75,.14,2.91,.24-.32-.63-.46-.9-.55-1.08-.83,.23-1.55,.44-2.27,.64Z"/><path fill="context-stroke" d="M75.29,91.58c.39-.37,.66-.62,.92-.87,2.95-2.94,6.02-2.14,8.36,.44,1.01,1.11,1.81,2.42,2.58,3.72,.52,.88,.23,1.45-.79,1.55-1.36,.14-2.74,.16-4.1,.09-1.07-.05-1.07-.15-1.26,1.15,.33,.04,.65,.07,.98,.11,1.24,.17,1.81,1.21,1.07,2.22-.76,1.03-1.72,1.92-2.6,2.86-.18,.19-.39,.36-.82,.75,.78-.04,1.25-.15,1.67-.05,.54,.13,1.27,.29,1.49,.68,.22,.38,.06,1.17-.21,1.6-.61,.96-1.39,1.81-2.08,2.67,.68,.77,1.35,1.52,2.11,2.38,2.61-1.22,5.5-2.31,8.66-2.35,3.18-.04,6.07,.96,8.74,2.54,1.37-1.05,1.64-2.28,1.47-3.99-.38-3.83-.47-7.69-.47-11.54,0-1.63-.81-2.79-1.53-4.06-.56-.98-1.17-1.93-1.77-2.89-.77-1.24-1.56-2.47-2.32-3.71-.85-1.37-1.71-2.72-2.49-4.13-.18-.32,0-.84,.02-1.27,.45,.21,1.11,.3,1.32,.66,1.61,2.72,3.12,5.5,4.7,8.23,.44,.75,1.02,1.42,1.76,2.07-.04-.4-.14-.8-.1-1.2,.02-.25,.25-.47,.38-.71,.26,.15,.61,.25,.75,.47,.18,.3,.26,.7,.29,1.06,.2,3.23,.41,6.46,.55,9.69,.09,2.13-.13,4.3,.18,6.39,.45,3.07,1.24,6.09,1.94,9.38,.5-.4,.79-.62,1.12-.88,.22,.17,.44,.34,.66,.51-.05,.12-.05,.21-.1,.24-.91,.67-1.05,1.5-.68,2.54,.43,1.22,.81,2.45,1.14,3.7,.07,.27-.16,.63-.25,.95-.35-.17-.89-.26-1.01-.53-.5-1.1-.87-2.25-1.4-3.7-.71,.88-1.33,1.64-2.06,2.54-.37-1.6,.46-2.51,1.56-3.54-1.03-1.4-2.08-2.82-3.15-4.27-.94,.47-1.36,2.08-2.71,.87,.39-.52,.79-1.05,1.21-1.61-2.88-2.05-5.96-2.72-9.33-2.38-2.57,.26-4.66,1.72-7,2.57-.53,.19-.79,1.16-1.16,1.78-.47,.76-.78,1.38-.07,2.34,1.19,1.6-.84,4.71-2.85,5.15-.21,.05-.49-.22-.73-.34,.13-.26,.22-.57,.41-.79,.65-.72,1.43-1.35,1.99-2.14,.46-.64,.27-1.44-.4-1.87-.93-.59-.74-1.1-.14-1.77,.25-.28,.37-.67,.4-1.16-.28,.17-.55,.33-.93,.56-.26-.99-.26-1.71,.82-2.09,.4-.14,1.04-.58,1-.79-.09-.49-.41-1.05-.82-1.34-1.56-1.14-1.63-1.53-.3-3.01,.59-.65,1.16-1.32,2-2.29-.99,0-1.66,.05-2.31-.02-.44-.04-.86-.25-1.29-.39,.16-.47,.2-1.03,.5-1.39,.93-1.14,1.96-2.2,2.94-3.29,.11-.13,.16-.31,.4-.77-1.25,.08-2.29,.17-3.32,.2-.39,0-.79-.13-1.18-.2,.33-.33,.63-.89,1-.94,.93-.13,1.31-.54,1.19-1.37-1.57-.35-3.13-.62-4.63-1.06-1.23-.36-1.37-.93-.81-2.06,.12-.23,.09-.65-.04-.88-.37-.64-.91-1.19-1.21-1.85-.15-.34,.06-.84,.11-1.27,.31,.18,.68,.3,.91,.55,.4,.43,.71,.94,1.14,1.53Zm6.4,3.53h3.16c.16-1.35-.65-3.04-1.75-3.57-.22-.11-.87,.13-.91,.3-.23,1.06-.35,2.15-.51,3.27Zm-2.47-.07c.1-1.11,.18-2.01,.24-2.74-.63-.38-1.24-.75-1.67-1-.35,.23-.74,.48-1.12,.73,.39,.14,.66,.04,.89,.1,.35,.1,.67,.31,1.01,.47-.27,.29-.49,.64-.81,.84-.49,.31-1.04,.52-1.56,.78,.02,.09,.03,.17,.05,.26,.97,.18,1.93,.36,2.98,.56Zm21.96,17.02c.54,.41,1.03,.78,1.52,1.14,.08-.07,.17-.14,.25-.21-.3-.62-.6-1.25-.99-2.07-.37,.53-.54,.79-.78,1.14Zm-22.2-21.73c.59,.43,.89,.65,1.2,.88,.34-.32,.61-.58,1.14-1.08-.88,.08-1.45,.13-2.34,.21Z"/><path fill="context-stroke" d="M54.87,65.75c1.01,.47,.82,.81,.26,1.5-2.39,2.91-4.65,5.91-6.98,8.86-.19,.24-.54,.35-.82,.52,0-.34-.16-.78,0-.99,1.59-2.08,3.24-4.1,4.84-6.17,.6-.77,1.1-1.62,1.46-2.6-.32,.34-.62,.7-.95,1.03-1.31,1.29-2.61,2.59-3.95,3.83-.21,.19-.64,.13-.97,.19,0-.34-.16-.78,0-.99,.45-.58,1.02-1.07,1.57-1.57,3.13-2.85,6.13-5.87,9.44-8.48,6.27-4.94,13.01-9.15,20.5-12.03,2.75-1.05,5.59-1.86,8.32-2.94,6.19-2.43,12.65-3.52,19.23-4.01,5.4-.4,10.8-.46,16.11,.78,3.62,.85,6.97,2.37,9.78,4.82,2.22,1.94,4.36,4.01,6.37,6.17,3.31,3.56,4.38,7.8,2.95,12.46-1.12,3.67-2.36,7.32-3.87,10.84-1.41,3.29-3.22,6.42-4.92,9.59-.89,1.66-1.9,3.27-2.93,4.85-.46,.7-1.11,1.26-1.68,1.88-.18-.11-.35-.23-.53-.34,.29-.65,.51-1.34,.88-1.95,1.3-2.2,2.69-4.35,3.97-6.55,3.43-5.88,6.04-12.13,7.87-18.68,.95-3.4,.7-6.78-1.43-9.66-2.41-3.24-5.22-6.14-8.56-8.49-3.58-2.52-7.57-3.84-11.86-4.3-8.37-.9-16.61-.06-24.79,1.87-5.06,1.19-9.95,2.84-14.7,4.85-3.66,1.55-7.16,3.49-10.63,5.44-5.01,2.81-9.51,6.35-13.96,10.27Z"/><path fill="context-stroke" d="M54.54,87.29c.66,1.49,1.29,2.91,1.86,4.21,.94-1.07,1.65-2.08,2.57-2.84,.6-.5,.84-.94,.77-1.67-.06-.66-.13-1.35,.03-1.97,.08-.33,.62-.55,.95-.81,.1,.36,.25,.71,.28,1.08,.05,.61,.01,1.22,.01,1.79h2.94c.35-.44,.71-.9,1.07-1.36,.15,.07,.3,.14,.45,.2-.08,.58-.16,1.15-.2,1.44,2.33,2.46,4.56,4.86,6.85,7.21,.93,.96,.86,1.66-.39,2.16-.79,.32-1.6,.58-2.4,.86q.07,1.62-2.32,4.75c.61,.05,1.18,.08,1.74,.15,.92,.13,1.43,.88,.97,1.65-.57,.96-1.38,1.77-2.1,2.64-.26,.31-.55,.6-.92,.99,.33,.06,.62,.1,.91,.17,.94,.21,1.8,.47,1.81,1.72,0,.28,.35,.64,.63,.81,.8,.49,1.63,.93,2.48,1.33,.74,.35,1.02,.81,.53,1.69-.74-.37-1.49-.71-2.21-1.11-1.77-.98-2.25-.96-3.66,.4-.55,.53-.99,1.19-1.52,1.86-.09-.17-.08-.08-.03-.06,3.02,1.23,3.37,3.51,1.08,6.46-.35,.45-.37,1.16-.57,1.73-.17,.5-.39,.98-.59,1.5,.07,0,.26-.06,.42-.01,.22,.06,.56,.17,.58,.31,.04,.24-.03,.65-.21,.76-.43,.27-.93,.45-1.42,.59-.85,.23-1.71,.45-2.58,.58-.25,.04-.67-.17-.79-.39-1.06-1.9-.93-2.61,1.2-3.33,2.08-.7,2.88-2.34,3.68-4.01,.92-1.92,.31-2.82-1.8-3.07-1.08-.13-1.12-.16-1.41-1.37-.57,.4-1.09,.77-1.62,1.15,.27-1.66,.29-1.52,1.81-1.78,.87-.15,1.71-.77,2.44-1.35,.93-.74,1.95-1.51,2.04-3.07-.86,0-1.72,.04-2.57-.02-.49-.03-.97-.23-1.45-.36,.27-.43,.47-.94,.83-1.28,1.05-.98,2.19-1.87,3.26-2.84,.3-.27,.49-.68,.72-1.02-.05-.09-.11-.18-.16-.27-1.03,.17-2.06,.38-3.11,.49-.38,.04-.79-.16-1.19-.25,.14-.43,.16-.97,.44-1.26,.99-1.04,2.13-1.94,3.11-2.99,.72-.77,.51-1.26-.54-1.29-.76-.02-1.55,.14-2.29,.34-.24,.07-.45,.5-.53,.8-.09,.34-.02,.73-.02,1.2-.34,.04-.69,.08-1.11,.13-.09-.41-.16-.76-.2-.98-.47-.2-.87-.37-1.27-.54,.27-.33,.54-.67,.94-1.16-.82-.26-1.64-.49-2.43-.79-1.37-.53-2.74-1.06-4.07-1.69-.97-.46-1.05-1.42-1.01-2.39,.02-.46,.01-.96-.14-1.38-.39-1.04-.92-2.02-1.29-3.06-.26-.73-.12-.88,.72-1.39Zm16.48,8.18c-1.99-2.11-3.86-4.09-5.93-6.28,.22,2.7,.35,5.09-1.26,7.32,2.52,.22,4.76-.32,7.19-1.04Zm-10.36,.48c-.09-3.04,.59-5.47,2.38-7.61-.26-.07-.51-.24-.64-.17-1.04,.52-2.13,.98-3.05,1.68-.6,.45-1.25,1.26-1.27,1.92-.01,.65-.11,.91-.57,1.31-.37,.33-1.1,1-.16,1.49,.99,.52,2.07,.87,3.31,1.37Z"/><path fill="context-stroke" d="M136.92,58.86c-.23-.41-.52-.84-.72-1.31-.84-2-2.18-3.66-3.91-4.88-3.51-2.49-7.3-4.4-11.6-5.17-1.33-.24-2.61-.73-3.94-.97-.57-.11-1.2,.17-1.81,.18-4.24,0-8.38,.6-12.45,1.79-3.34,.98-6.74,1.76-10.01,2.92-4.15,1.46-8.25,3.08-12.27,4.88-3.28,1.47-6.43,3.24-9.57,5.01-1.47,.83-2.72,2.01-4.13,2.95-2.97,1.97-5.83,4.1-8.43,6.52-2.28,2.11-4.36,4.45-6.56,6.65-.27,.27-.72,.35-1.08,.52,.08-.38,.02-.88,.25-1.13,2.16-2.33,4.16-4.87,6.6-6.86,4-3.27,8.17-6.38,12.51-9.19,3.55-2.3,7.36-4.26,11.21-6.01,3.88-1.76,7.94-3.16,11.97-4.58,2.81-.99,5.68-1.86,8.58-2.53,3.21-.74,6.48-1.21,9.73-1.76,4.73-.8,9.29,.21,13.71,1.71,3.07,1.04,5.88,2.68,8.38,4.9,1.61,1.44,3.18,2.84,3.83,4.91,.73,2.35,.88,4.81,.28,7.22-.59,2.35-1.33,4.66-1.99,6.99-.28,.99-.48,1.99-.8,2.97-.1,.31-.46,.53-.7,.79-.07-.32-.27-.68-.19-.96,.66-2.32,1.55-4.6,2-6.96,.48-2.47,.55-5.03,.83-7.54,.04-.36,.2-.71,.3-1.02Z"/><path fill="context-stroke" d="M27.79,114.78c-.3,1.19-.63,2.4-.9,3.62-.78,3.45-1.97,6.8-2.58,10.29-.24,1.35-.42,2.71-.72,4.05-.6,2.68-.42,5.39-.32,8.08,.1,2.73,.36,5.46,.65,8.18,.56,5.27,1.4,10.51,3.24,15.5,1.33,3.61,4.4,7.06,9.84,4.83,2.54-1.04,4.67-2.6,6.62-4.51,2.83-2.76,4.87-6.08,7.1-9.3,1.06-1.54,1.42-3.26,2.25-4.84,.86-1.65,1.33-3.51,1.91-5.3,.22-.66,.21-1.4,.42-2.06,.1-.31,.46-.55,.71-.82,.15,.34,.48,.72,.42,1.02-.27,1.37-.57,2.76-1.02,4.08-2.29,6.79-5.81,12.86-10.87,17.97-1.96,1.98-4.18,3.69-6.78,4.74-5.18,2.1-9.49-.01-11.56-5.19-1.7-4.26-2.45-8.75-3.1-13.24-.52-3.64-.91-7.32-1.08-10.99-.2-4.03,.11-8.07,1.01-12.02,.95-4.19,1.96-8.36,2.94-12.54,.22-.94,.42-1.89,1.85-1.57Z"/><path fill="context-stroke" d="M105.74,49.7c2.67,.2,5.38,.2,8.01,.65,2.44,.42,4.78,1.36,7.18,1.99,1.7,.44,3.43,.77,5.15,1.11,.87,.17,1.76,.25,2.62,.44,.21,.05,.36,.4,.53,.61-.23,.15-.48,.47-.68,.43-2.46-.42-5.06-.52-7.33-1.43-6.33-2.55-12.78-2.88-19.42-2-3.79,.5-7.32,1.71-10.66,3.52-3.55,1.92-7.13,3.77-10.63,5.77-2.37,1.36-4.62,2.95-6.92,4.43-.09,.06-.17,.16-.27,.19-.39,.09-.79,.16-1.19,.24,.15-.37,.21-.85,.48-1.09,.71-.63,1.48-1.22,2.29-1.71,2.35-1.41,4.72-2.78,7.09-4.13,2.4-1.37,4.82-2.73,7.24-4.08,4.55-2.54,9.34-4.27,14.59-4.55,.63-.03,1.25-.12,1.88-.17,0-.07,.02-.15,.02-.22Z"/><path fill="context-stroke" d="M32.07,149.16c-.66,.08-.94-.38-.95-1.07,0-1.79,.06-3.58,.01-5.36-.03-1.17-.38-2.34-.33-3.5,.25-5.09,.55-10.19,.92-15.27,.28-3.8,.93-7.54,2.14-11.16,.1-.31,.24-.67,.48-.85,.21-.15,.66-.19,.87-.07,.17,.1,.29,.62,.18,.8-1.76,2.92-1.9,6.24-2.31,9.47-.48,3.8-.89,7.61-1.07,11.43-.16,3.44,.02,6.89,.04,10.34,.01,1.71,0,3.42,0,5.24Z"/><path fill="context-stroke" d="M49.24,90.42c.25-.46,.46-1.04,.83-1.48,2.66-3.2,5.56-6.15,9.37-8.01,.45-.22,.98-.37,1.47-.38,.27,0,.55,.35,.82,.55-.25,.22-.46,.54-.74,.62-.59,.17-1.28,.08-1.83,.32-.61,.27-1.16,.75-1.65,1.23-2.21,2.16-4.4,4.34-6.56,6.54-.26,.26-.33,.72-.49,1.08-.13,.31-.27,.61-.4,.92-.21-.29-.43-.57-.62-.87-.08-.12-.11-.27-.2-.52Z"/><path fill="context-stroke" d="M34.56,98.11c-2.05,4.8-4.11,9.61-6.18,14.46-.66-.59-.71-1.13-.35-1.95,1.04-2.36,1.89-4.8,2.91-7.17,.65-1.52,1.46-2.97,2.25-4.43,.23-.43,.62-.77,.93-1.15,.15,.08,.3,.16,.44,.24Z"/><path fill="context-stroke" d="M28.54,70.93c-.11,.14-.21,.41-.37,.44-.26,.05-.61,.03-.8-.12-.24-.2-.39-.53-.52-.83-.91-2.18-1.78-4.37-2.7-6.54-.24-.57-.65-1.08-.83-1.67-.08-.28,.19-.68,.31-1.02,.3,.14,.77,.21,.88,.45,1.33,2.96,2.61,5.94,3.89,8.91,.04,.1,.07,.21,.13,.38Z"/><path fill="context-stroke" d="M32.38,149.51c.55,4.17,.85,8.3,4.62,11.05-1.02,.28-1.79,.12-2.4-.81-.87-1.34-1.73-2.75-2.22-4.26-.61-1.87-.84-3.86-1.26-5.9,.54-.03,.86-.05,1.26-.08Z"/><path fill="context-stroke" d="M20.83,79c-.32,.69-.75,.85-1.43,.56-2.06-.88-4.15-1.7-6.2-2.6-.28-.12-.41-.57-.61-.87,.28-.15,.64-.49,.83-.42,2.36,.94,4.7,1.94,7.04,2.94,.15,.06,.24,.25,.37,.39Z"/><path fill="context-stroke" d="M81.68,68.28c-.36,.86-.57,1.68-1.02,2.33-.88,1.28-1.89,2.48-2.89,3.68-.13,.16-.52,.11-.79,.16-.02-.32-.19-.77-.04-.94,1.45-1.63,2.57-3.42,3.19-5.53,.07-.25,.63-.49,.95-.47,.21,.01,.39,.49,.59,.76Z"/><path fill="context-stroke" d="M16.07,92.93c-.61-.07-1.36-.09-2.07-.29-.35-.1-.62-.53-.92-.81,.37-.16,.73-.44,1.1-.45,1.33-.03,2.65,.06,3.98,.04,.38,0,.75-.31,1.13-.34,.37-.03,.75,.12,1.12,.19-.13,.38-.18,.99-.41,1.08-.71,.26-1.5,.33-2.26,.43-.51,.07-1.03,.09-1.67,.14Z"/><path fill="context-stroke" d="M56.97,108.97c4.2-.79,6.27-.52,6.63,.95-1.85,0-3.66,.04-5.47-.04-.33-.01-.63-.49-1.16-.92Z"/><path fill="context-stroke" d="M79.41,122.74c.13,.1,.49,.32,.79,.59,.16,.14,.21,.39,.34,.57,.24,.33,.51,.65,.76,.97-.45,.2-.89,.42-1.35,.6-1.1,.44-1.72,.04-2.06-1.07-.32-1.03,.09-1.66,1.51-1.66Z"/><path fill="context-stroke" d="M38.3,63.29c.12,.32,.39,.68,.32,.94-.38,1.38-.27,2.67,.4,3.94,.11,.2-.1,.57-.16,.86-.32-.1-.87-.11-.94-.3-.35-.95-.64-1.93-.81-2.92-.09-.52,.05-1.11,.2-1.63,.1-.33,.41-.6,.63-.9,.12,0,.25,.01,.37,.02Z"/><path fill="context-stroke" d="M148.7,94.92c.73,.1,1.47,.15,2.18,.32,.23,.06,.39,.42,.58,.65-.23,.14-.46,.29-.71,.4-.09,.04-.22,.03-.33,0-3.71-.65-6.68,1.28-9.76,2.82-3.28,1.63-6.32,3.65-9.41,5.59-.28,.18-.73,.09-1.1,.12,.16-.37,.23-.9,.51-1.08,2.35-1.45,4.74-2.83,7.12-4.22,1.24-.72,2.45-1.52,3.76-2.09,2.02-.88,4.11-1.59,6.17-2.35,.31-.11,.65-.11,.98-.16Z"/><path fill="context-stroke" d="M87.05,156.98c-.61,.67-1.15,1.42-1.83,2.01-1.94,1.69-3.88,3.4-5.94,4.94-.75,.56-1.83,.93-2.76,.94-.95,0-1.37-.97-1.32-1.87,.1-2.07,.16-4.15,.49-6.19,.39-2.46,.87-4.94,1.62-7.31,.48-1.49,1.5-2.82,2.36-4.17,.15-.24,.68-.25,1.04-.37-.06,.35,.01,.81-.19,1.03-1.78,1.94-2.59,4.29-3.05,6.82-.28,1.56-.81,3.08-.99,4.64-.21,1.9-.22,3.84-.22,5.76,0,.75,.77,1.03,1.38,.55,1.92-1.5,3.83-3.01,5.73-4.54,.83-.67,1.58-1.44,2.41-2.11,.28-.23,.69-.31,1.04-.46,.08,.11,.16,.23,.24,.34Z"/><path fill="context-stroke" d="M168.35,82.23c.18,.44,.23,1.07,.56,1.3,1.68,1.2,2.54,3.01,3.59,4.67,.47,.74,.83,1.56,1.19,2.37,.1,.24,0,.57,0,.86-.3-.13-.73-.17-.89-.4-.53-.8-.95-1.67-1.43-2.5-.96-1.66-1.98-3.27-3.55-4.46-.5-.38-1.29-.82-.85-1.57,.23-.4,.97-.51,1.48-.74-.03,.16-.05,.32-.08,.48Z"/></svg>