<!-- This Source Code Form is subject to the terms of the Mozilla Public
   - License, v. 2.0. If a copy of the MPL was not distributed with this
   - file, You can obtain one at http://mozilla.org/MPL/2.0/. -->
<svg width="915" height="718" viewBox="0 0 915 718" fill="none" xmlns="http://www.w3.org/2000/svg">
<path opacity="0.9" d="M799.853 399.917C742.413 440.039 663.081 427.307 620.71 371.157L618.218 367.8C577.626 314.025 501.27 302.258 446.674 341.731C392.077 381.204 379.712 457.116 418.541 512.166L420.991 515.58C461.938 573.632 448.9 653.676 391.337 695.294C333.193 737.331 251.634 724.247 209.17 666.063C83.9763 494.522 121.467 254.982 292.903 131.034C464.34 7.08669 704.807 45.6649 830.001 217.206C872.04 274.808 859.997 355.012 803.335 397.4L801.604 398.672L799.853 399.917Z" fill="#592ACB"/>
</svg>
