<svg xmlns="http://www.w3.org/2000/svg" id="Layer_1" viewBox="0 0 234.4 93.4"><style>.st0{fill:#592acb}.st4{fill:#f9f9fa}</style><g id="right-inner"><path d="M167 78.3c-5.5 0-10.9-1.4-15.6-4.2-1-.4-1.5-1.6-1.1-2.6.4-1 1.6-1.5 2.6-1.1.1.1.3.1.4.2 4.1 2.4 8.8 3.6 13.6 3.6 1.1 0 2 .9 2 2 .1 1.2-.8 2.1-1.9 2.1zm7.6-1c-1.1 0-2-.9-2-2 0-.9.6-1.7 1.5-1.9 4.6-1.2 8.8-3.7 12.2-7.1.8-.8 2.1-.8 2.9 0s.8 2.1 0 2.9c-3.9 3.9-8.7 6.7-14 8.1h-.6zm-28.3-7.6c-.5 0-1-.2-1.4-.6-3.9-3.9-6.7-8.7-8.1-14-.4-1 .2-2.2 1.2-2.6 1-.4 2.2.2 2.6 1.2 0 .1.1.2.1.3 1.3 4.6 3.7 8.8 7.1 12.2.8.8.8 2 0 2.8-.4.5-.9.7-1.5.7zm46-6c-1.1 0-2-.9-2-2 0-.4.1-.7.3-1 2.4-4.1 3.6-8.8 3.6-13.6V47c.1-1.1 1-1.9 2.1-1.9 1 .1 1.8.9 1.9 1.9 0 5.5-1.4 10.9-4.2 15.7-.3.6-1 1-1.7 1zM137.7 49c-1.1 0-2-.9-2-2 0-5.5 1.4-10.8 4.2-15.6.5-1 1.7-1.4 2.7-.9 1 .5 1.4 1.7.9 2.7 0 .1-.1.1-.1.2-2.4 4.1-3.6 8.8-3.6 13.6 0 1.1-.9 2-2.1 2 .1 0 0 0 0 0zm57.5-7.7c-.9 0-1.7-.6-1.9-1.5-1.3-4.6-3.7-8.8-7.1-12.2-.8-.8-.8-2.1 0-2.9.8-.8 2.1-.8 2.9 0 3.9 3.9 6.7 8.7 8.1 14 .3 1.1-.3 2.2-1.4 2.5-.2.1-.4.1-.6.1zm-48.9-12.9c-.5 0-1-.2-1.4-.6-.8-.8-.8-2.1 0-2.8 3.9-3.9 8.7-6.7 14-8.1 1.1-.2 2.1.6 2.3 1.7.1.9-.4 1.8-1.2 2.1-4.6 1.2-8.8 3.7-12.2 7.1-.5.3-1 .6-1.5.6zm35.2-4.8c-.3 0-.7-.1-1-.3-4.1-2.4-8.8-3.6-13.5-3.6h-.2c-1.1.1-2.1-.8-2.1-1.9-.1-1.1.8-2.1 1.9-2.1h.3c5.5 0 10.8 1.4 15.6 4.1 1 .5 1.3 1.8.8 2.7-.4.7-1.1 1.1-1.8 1.1z" class="st0"/><animateTransform attributeName="transform" attributeType="XML" dur="10s" from="360 167 47" repeatCount="indefinite" to="0 167 47" type="rotate"/></g><g id="right-outer"><path d="M167 92c-7.9 0-15.6-2.1-22.4-6-1.4-.8-1.9-2.6-1.1-3.9.8-1.4 2.6-1.9 3.9-1.1 5.9 3.4 12.7 5.2 19.6 5.2 1.6 0 2.9 1.3 2.9 2.9 0 1.6-1.3 2.9-2.9 2.9zm10.9-1.4c-1.6 0-2.9-1.3-2.9-2.9 0-1.3.9-2.5 2.1-2.8 6.6-1.8 12.7-5.3 17.6-10.2 1.1-1.2 2.9-1.2 4.1-.1 1.2 1.1 1.2 2.9.1 4.1l-.1.1c-5.6 5.6-12.5 9.6-20.1 11.7-.3 0-.5.1-.8.1zm-40.6-10.9c-.8 0-1.5-.3-2-.8-5.6-5.6-9.6-12.5-11.7-20.1-.4-1.6.6-3.1 2.2-3.5 1.5-.3 3 .5 3.4 2 1.8 6.6 5.3 12.7 10.2 17.6 1.1 1.1 1.1 3 0 4.1-.6.4-1.4.7-2.1.7zm66.2-8.8c-1.6 0-2.9-1.3-2.9-2.9 0-.5.1-1 .4-1.4 3.4-6 5.2-12.7 5.2-19.6v-.2c0-1.6 1.3-2.9 2.9-2.9s2.9 1.3 2.9 2.9v.2c0 7.9-2.1 15.7-6 22.5-.5.9-1.5 1.4-2.5 1.4zm-78.6-21c-1.6 0-2.9-1.3-2.9-2.9 0-7.9 2.1-15.6 6-22.4.8-1.4 2.6-1.9 4-1.1 1.4.8 1.9 2.6 1.1 4-3.4 5.9-5.2 12.7-5.2 19.5-.1 1.5-1.3 2.9-3 2.9zm82.7-11.1c-1.3 0-2.5-.9-2.8-2.1-1.8-6.6-5.3-12.7-10.2-17.5-1.2-1-1.4-2.8-.4-4.1s2.8-1.4 4.1-.4c.1.1.3.2.4.4 5.6 5.6 9.7 12.5 11.7 20.1.4 1.5-.5 3.1-2 3.5-.3.1-.5.1-.8.1zm-70.5-18.6c-.8 0-1.5-.3-2.1-.8-1.1-1.1-1.1-3 0-4.1 5.6-5.6 12.5-9.6 20.1-11.7 1.5-.4 3.1.5 3.5 2.1.4 1.5-.5 3-2 3.5-6.6 1.8-12.7 5.3-17.5 10.2-.4.5-1.2.8-2 .8zm50.8-6.9c-.5 0-1-.1-1.4-.4-5.9-3.4-12.7-5.2-19.5-5.2h-.1c-1.6 0-2.9-1.3-2.9-2.9s1.3-2.9 2.9-2.9h.1c7.9 0 15.6 2 22.4 6 1.4.8 1.9 2.6 1.1 3.9-.6 1-1.5 1.5-2.6 1.5z" class="st0"/><animateTransform attributeName="transform" attributeType="XML" dur="10s" from="0 167 47" repeatCount="indefinite" to="360 167 47" type="rotate"/></g><g id="left-inner"><path d="M79 78.3c-5.5 0-10.9-1.4-15.6-4.2-1-.4-1.5-1.6-1.1-2.6.4-1 1.6-1.5 2.6-1.1.1.1.3.1.4.2 4.1 2.4 8.8 3.6 13.6 3.6 1.1 0 2 .9 2 2 .1 1.2-.8 2.1-1.9 2.1zm7.6-1c-1.1 0-2-.9-2-2 0-.9.6-1.7 1.5-1.9 4.6-1.2 8.8-3.7 12.2-7.1.8-.8 2.1-.8 2.9 0 .8.8.8 2.1 0 2.9-3.9 3.9-8.7 6.7-14 8.1h-.6zm-28.3-7.6c-.5 0-1-.2-1.4-.6-3.9-3.9-6.7-8.7-8.1-14-.4-1 .2-2.2 1.2-2.6 1-.4 2.2.2 2.6 1.2 0 .1.1.2.1.3 1.3 4.6 3.7 8.8 7.1 12.2.8.8.8 2 0 2.8-.4.5-.9.7-1.5.7zm46-6c-1.1 0-2-.9-2-2 0-.4.1-.7.3-1 2.4-4.1 3.6-8.8 3.6-13.6V47c.1-1.1 1-1.9 2.1-1.9 1 .1 1.8.9 1.9 1.9 0 5.5-1.4 10.9-4.2 15.7-.3.6-1 1-1.7 1zM49.7 49c-1.1 0-2-.9-2-2 0-5.5 1.4-10.8 4.2-15.6.5-1 1.7-1.4 2.7-.9s1.4 1.7.9 2.7c0 .1-.1.1-.1.2-2.4 4.1-3.6 8.8-3.6 13.6 0 1.1-.9 2-2.1 2 .1 0 0 0 0 0zm57.5-7.7c-.9 0-1.7-.6-1.9-1.5-1.3-4.6-3.7-8.8-7.1-12.2-.8-.8-.8-2.1 0-2.9.8-.8 2.1-.8 2.9 0 3.9 3.9 6.7 8.7 8.1 14 .3 1.1-.3 2.2-1.4 2.5-.2.1-.4.1-.6.1zM58.3 28.4c-.5 0-1-.2-1.4-.6-.8-.8-.8-2.1 0-2.8 3.9-3.9 8.7-6.7 14-8.1 1.1-.2 2.1.6 2.3 1.7.1.9-.4 1.8-1.2 2.1-4.6 1.2-8.8 3.7-12.2 7.1-.5.3-1 .6-1.5.6zm35.2-4.8c-.3 0-.7-.1-1-.3-4.1-2.4-8.8-3.6-13.5-3.6h-.2c-1.1.1-2.1-.8-2.1-1.9-.1-1.1.8-2.1 1.9-2.1h.3c5.5 0 10.8 1.4 15.6 4.1 1 .5 1.3 1.8.8 2.7-.4.7-1.1 1.1-1.8 1.1z" class="st0"/><animateTransform attributeName="transform" attributeType="XML" dur="10s" from="360 79 47" repeatCount="indefinite" to="0 79 47" type="rotate"/></g><g id="left-outer"><path d="M79 92c-7.9 0-15.6-2.1-22.4-6-1.4-.8-1.9-2.6-1.1-3.9.8-1.4 2.6-1.9 3.9-1.1 5.9 3.4 12.7 5.2 19.6 5.2 1.6 0 2.9 1.3 2.9 2.9 0 1.6-1.3 2.9-2.9 2.9zm10.9-1.4c-1.6 0-2.9-1.3-2.9-2.9 0-1.3.9-2.5 2.1-2.8 6.6-1.8 12.7-5.3 17.6-10.2 1.1-1.2 2.9-1.2 4.1-.1 1.2 1.1 1.2 2.9.1 4.1l-.1.1c-5.6 5.6-12.5 9.6-20.1 11.7-.3 0-.5.1-.8.1zM49.3 79.7c-.8 0-1.5-.3-2-.8-5.6-5.6-9.6-12.5-11.7-20.1-.4-1.6.6-3.1 2.2-3.5 1.5-.3 3 .5 3.4 2C43 63.9 46.5 70 51.4 74.9c1.1 1.1 1.1 3 0 4.1-.6.4-1.4.7-2.1.7zm66.2-8.8c-1.6 0-2.9-1.3-2.9-2.9 0-.5.1-1 .4-1.4 3.4-6 5.2-12.7 5.2-19.6v-.2c0-1.6 1.3-2.9 2.9-2.9 1.6 0 2.9 1.3 2.9 2.9v.2c0 7.9-2.1 15.7-6 22.5-.5.9-1.5 1.4-2.5 1.4zm-78.6-21c-1.6 0-2.9-1.3-2.9-2.9 0-7.9 2.1-15.6 6-22.4.8-1.4 2.6-1.9 4-1.1 1.4.8 1.9 2.6 1.1 4-3.4 5.9-5.2 12.7-5.2 19.5-.1 1.5-1.3 2.9-3 2.9zm82.7-11.1c-1.3 0-2.5-.9-2.8-2.1-1.8-6.6-5.3-12.7-10.2-17.5-1.2-1-1.4-2.8-.4-4.1 1-1.2 2.8-1.4 4.1-.4.1.1.3.2.4.4 5.6 5.6 9.7 12.5 11.7 20.1.4 1.5-.5 3.1-2 3.5-.3.1-.5.1-.8.1zM49.1 20.2c-.8 0-1.5-.3-2.1-.8-1.1-1.1-1.1-3 0-4.1 5.6-5.6 12.5-9.6 20.1-11.7 1.5-.4 3.1.5 3.5 2.1.4 1.5-.5 3-2 3.5C62 11 55.9 14.5 51.1 19.4c-.4.5-1.2.8-2 .8zm50.8-6.9c-.5 0-1-.1-1.4-.4C92.6 9.6 85.8 7.8 79 7.8h-.1c-1.6 0-2.9-1.3-2.9-2.9S77.3 2 78.9 2h.1c7.9 0 15.6 2 22.4 6 1.4.8 1.9 2.6 1.1 3.9-.6.9-1.5 1.4-2.6 1.4z" class="st0"/><animateTransform attributeName="transform" attributeType="XML" dur="10s" from="0 79 47" repeatCount="indefinite" to="360 79 47" type="rotate"/></g><path fill="#ff848b" d="M27.1 68.3h26.5V76H27.1z"/><linearGradient id="SVGID_1_" x1="-13.76" x2="75.674" y1="104.809" y2="15.375" gradientTransform="translate(.932 -.95)" gradientUnits="userSpaceOnUse"><stop offset=".165" stop-color="#b833e1"/><stop offset=".958" stop-color="#ff4f5e"/></linearGradient><path fill="url(#SVGID_1_)" d="M78.9 70.6h-1.7V23c0-1.9-1.5-3.4-3.4-3.4H6.9c-1.9 0-3.4 1.5-3.4 3.4v47.6H1.7c-.9 0-1.7.8-1.7 1.7v3.5c0 .9.8 1.7 1.7 1.7h77.2c.9 0 1.7-.8 1.7-1.7v-3.5c0-.9-.8-1.7-1.7-1.7zM47.2 74H33.4v-3.4h13.7V74z"/><path fill="#bc24bc" d="M72 24.4H8.6v41.9H72V24.4z" opacity=".5"/><path d="M57 41.9c-.4 0-.7.3-.7.7v.8c-1.8-1.8-4.7-1.9-6.5-.1-.6.6-1.1 1.4-1.3 2.2-.1.4.1.7.5.8h.2c.3 0 .6-.2.6-.5.4-1.5 1.7-2.5 3.2-2.5 1 0 2 .5 2.6 1.3h-1.3c-.4 0-.7.3-.7.6 0 .4.3.7.6.7H57c.4 0 .7-.3.7-.7v-2.7c0-.3-.3-.6-.7-.6zm.1 5c-.4-.1-.7.1-.8.5-.4 1.5-1.7 2.5-3.2 2.5-1 0-2-.5-2.6-1.3h1.3c.4 0 .6-.3.6-.7 0-.3-.3-.6-.6-.6h-2.7c-.4 0-.7.3-.7.7v2.7c0 .4.3.7.6.7.4 0 .7-.3.7-.6v-.9c1.8 1.8 4.7 1.9 6.5.1.6-.6 1.1-1.4 1.3-2.2.1-.5-.1-.8-.4-.9zM28 41.5c-2.8 0-5.1 2.3-5.1 5.1s2.3 5.1 5.1 5.1 5.1-2.3 5.1-5.1-2.3-5.1-5.1-5.1zm0 8.9c-2.1 0-3.8-1.7-3.8-3.8s1.7-3.8 3.8-3.8 3.8 1.7 3.8 3.8c0 2.1-1.7 3.8-3.8 3.8zm2.2-3.8H28v-2.2c0-.2-.1-.3-.3-.3-.2 0-.3.1-.3.3v2.5c0 .2.1.3.3.3h2.5c.2 0 .3-.1.3-.3s-.1-.3-.3-.3zm7.7 4.9c-.4 0-.7-.3-.7-.7v-.1l.4-2.7-1.8-2c-.3-.3-.2-.7 0-1 .1-.1.2-.1.3-.2l2.5-.5 1.2-2.4c.2-.3.6-.5.9-.3l.3.3 1.2 2.4 2.5.5c.4.1.6.4.6.8 0 .1-.1.2-.2.3L43.4 48l.4 2.7c.1.4-.2.7-.6.8-.1 0-.3 0-.4-.1l-2.3-1.2-2.3 1.2c-.1 0-.2.1-.3.1zm-.5-5.5l1.5 1.6-.3 2.2 1.9-1 1.9 1-.3-2.2 1.5-1.6-2.1-.4-1-1.9-1 1.9-2.1.4z" class="st4"/><linearGradient id="SVGID_2_" x1="157.53" x2="261.245" y1="152.614" y2="48.899" gradientTransform="translate(-89.178 -48.95)" gradientUnits="userSpaceOnUse"><stop offset=".28" stop-color="#7542e5"/><stop offset=".417" stop-color="#824deb"/><stop offset=".789" stop-color="#a067fa"/><stop offset="1" stop-color="#ab71ff"/></linearGradient><path fill="url(#SVGID_2_)" d="M135.8 20.7h-24.6c-3.4 0-6.1 2.8-6.1 6.1v43.3c0 3.4 2.8 6.1 6.1 6.1h24.6c3.4 0 6.1-2.8 6.1-6.1V26.8c0-3.3-2.7-6.1-6.1-6.1z"/><path fill="#ab71ff" d="M120 67.2h6.9v3.4H120z"/><path d="M127.5 51.5c-.4 0-.7.3-.7.7v.8c-1.8-1.8-4.7-1.9-6.5-.1-.6.6-1.1 1.4-1.3 2.2-.1.4.1.7.5.8h.2c.3 0 .6-.2.6-.5.4-1.5 1.7-2.5 3.2-2.5 1 0 2 .5 2.6 1.3h-1.3c-.4 0-.7.3-.7.6 0 .4.3.7.6.7h2.8c.4 0 .7-.3.7-.7v-2.7c0-.3-.3-.6-.7-.6zm0 5c-.4-.1-.7.1-.8.5-.4 1.5-1.7 2.5-3.2 2.5-1 0-2-.5-2.6-1.3h1.3c.4 0 .6-.3.6-.7 0-.3-.3-.6-.6-.6h-2.7c-.4 0-.7.3-.7.7v2.7c0 .4.3.7.6.7.4 0 .7-.3.7-.6v-.9c1.8 1.8 4.7 1.9 6.5.1.6-.6 1.1-1.4 1.3-2.2.2-.5 0-.8-.4-.9zm-4-29.4c-2.8 0-5.1 2.3-5.1 5.1s2.3 5.1 5.1 5.1 5.1-2.3 5.1-5.1-2.3-5.1-5.1-5.1zm0 8.9c-2.1 0-3.8-1.7-3.8-3.8 0-2.1 1.7-3.8 3.8-3.8 2.1 0 3.8 1.7 3.8 3.8 0 2.1-1.7 3.8-3.8 3.8zm2.2-3.8h-2.2V30c0-.2-.1-.3-.3-.3-.2 0-.3.1-.3.3v2.5c0 .2.1.3.3.3h2.5c.2 0 .3-.1.3-.3s-.1-.3-.3-.3zm-4.8 16.9c-.4 0-.7-.3-.7-.7v-.1l.4-2.7-1.8-1.9c-.3-.3-.2-.7 0-1 .1-.1.2-.1.3-.2l2.5-.5 1.2-2.4c.2-.3.6-.5.9-.3l.3.3 1.2 2.4 2.5.5c.4.1.6.4.6.8 0 .1-.1.2-.2.3l-1.8 1.9.4 2.7c.1.4-.2.7-.6.8-.1 0-.3 0-.4-.1l-2.3-1.2-2.3 1.2c0 .2-.1.2-.2.2zm-.5-5.5l1.5 1.6-.3 2.2 1.9-1 1.9 1-.3-2.2 1.5-1.6-2.1-.4-1-1.9-1 1.9-2.1.4z" class="st4"/><path fill="#7542e5" d="M135.5 23.7h-24c-1.9 0-3.4 1.5-3.4 3.4v37.1H139V27.1c-.1-1.9-1.6-3.4-3.5-3.4z" opacity=".5"/><linearGradient id="SVGID_3_" x1="258.012" x2="323.576" y1="130.654" y2="65.09" gradientTransform="translate(-89.178 -48.95)" gradientUnits="userSpaceOnUse"><stop offset=".432" stop-color="#00b3f4"/><stop offset=".609" stop-color="#00bbf6"/><stop offset=".891" stop-color="#00d2fc"/><stop offset="1" stop-color="#0df"/></linearGradient><path fill="url(#SVGID_3_)" d="M229.8 22.2h-55.6c-2.5 0-4.6 2.1-4.6 4.6v43.3c0 2.5 2.1 4.6 4.6 4.6h55.6c2.5 0 4.6-2.1 4.6-4.6V26.9c0-2.6-2-4.7-4.6-4.7z"/><path fill="#0df" d="M227.3 44.2h4.3v8.5h-4.3z"/><path fill="#0090ed" d="M225.4 25.2h-51.1c-.9 0-1.7.7-1.7 1.7V70c0 .9.7 1.7 1.7 1.7h51.1V25.2z" opacity=".5"/><path d="M127.5 51.5c-.4 0-.7.3-.7.7v.8c-1.8-1.8-4.7-1.9-6.5-.1-.6.6-1.1 1.4-1.3 2.2-.1.4.1.7.5.8h.2c.3 0 .6-.2.6-.5.4-1.5 1.7-2.5 3.2-2.5 1 0 2 .5 2.6 1.3h-1.3c-.4 0-.7.3-.7.6 0 .4.3.7.6.7h2.8c.4 0 .7-.3.7-.7v-2.7c0-.3-.3-.6-.7-.6zm0 5c-.4-.1-.7.1-.8.5-.4 1.5-1.7 2.5-3.2 2.5-1 0-2-.5-2.6-1.3h1.3c.4 0 .6-.3.6-.7 0-.3-.3-.6-.6-.6h-2.7c-.4 0-.7.3-.7.7v2.7c0 .4.3.7.6.7.4 0 .7-.3.7-.6v-.9c1.8 1.8 4.7 1.9 6.5.1.6-.6 1.1-1.4 1.3-2.2.2-.5 0-.8-.4-.9zm-4-29.4c-2.8 0-5.1 2.3-5.1 5.1s2.3 5.1 5.1 5.1 5.1-2.3 5.1-5.1-2.3-5.1-5.1-5.1zm0 8.9c-2.1 0-3.8-1.7-3.8-3.8 0-2.1 1.7-3.8 3.8-3.8 2.1 0 3.8 1.7 3.8 3.8 0 2.1-1.7 3.8-3.8 3.8zm2.2-3.8h-2.2V30c0-.2-.1-.3-.3-.3-.2 0-.3.1-.3.3v2.5c0 .2.1.3.3.3h2.5c.2 0 .3-.1.3-.3s-.1-.3-.3-.3zm-4.8 16.9c-.4 0-.7-.3-.7-.7v-.1l.4-2.7-1.8-1.9c-.3-.3-.2-.7 0-1 .1-.1.2-.1.3-.2l2.5-.5 1.2-2.4c.2-.3.6-.5.9-.3l.3.3 1.2 2.4 2.5.5c.4.1.6.4.6.8 0 .1-.1.2-.2.3l-1.8 1.9.4 2.7c.1.4-.2.7-.6.8-.1 0-.3 0-.4-.1l-2.3-1.2-2.3 1.2c0 .2-.1.2-.2.2zm-.5-5.5l1.5 1.6-.3 2.2 1.9-1 1.9 1-.3-2.2 1.5-1.6-2.1-.4-1-1.9-1 1.9-2.1.4zm94 .2c-.4 0-.7.3-.7.7v.8c-1.8-1.8-4.7-1.9-6.5-.1-.6.6-1.1 1.4-1.3 2.2-.1.4.1.7.5.8h.2c.3 0 .6-.2.6-.5.4-1.5 1.7-2.5 3.2-2.5 1 0 2 .5 2.6 1.3h-1.3c-.4 0-.7.3-.7.6 0 .4.3.7.6.7h2.8c.4 0 .7-.3.7-.7v-2.7c0-.3-.3-.6-.7-.6zm.1 5c-.4-.1-.7.1-.8.5-.4 1.5-1.7 2.5-3.2 2.5-1 0-2-.5-2.6-1.3h1.3c.4 0 .6-.3.6-.7 0-.3-.3-.6-.6-.6h-2.7c-.4 0-.7.3-.7.7v2.7c0 .4.3.7.6.7.4 0 .7-.3.7-.6v-.9c1.8 1.8 4.7 1.9 6.5.1.6-.6 1.1-1.4 1.3-2.2.1-.5-.1-.8-.4-.9zm-29.1-5.4c-2.8 0-5.1 2.3-5.1 5.1s2.3 5.1 5.1 5.1 5.1-2.3 5.1-5.1-2.3-5.1-5.1-5.1zm0 8.9c-2.1 0-3.8-1.7-3.8-3.8 0-2.1 1.7-3.8 3.8-3.8 2.1 0 3.8 1.7 3.8 3.8 0 2.1-1.7 3.8-3.8 3.8zm2.2-3.8h-2.2v-2.2c0-.2-.1-.3-.3-.3-.2 0-.3.1-.3.3v2.5c0 .2.1.3.3.3h2.5c.2 0 .3-.1.3-.3s-.1-.3-.3-.3zm7.7 4.9c-.4 0-.7-.3-.7-.7v-.1l.4-2.7-1.8-1.9c-.3-.3-.2-.7 0-1 .1-.1.2-.1.3-.2l2.5-.5 1.2-2.4c.2-.3.6-.5.9-.3l.3.3 1.2 2.4 2.5.5c.4.1.6.4.6.8 0 .1-.1.2-.2.3l-1.8 1.9.4 2.7c.1.4-.2.7-.6.8-.1 0-.3 0-.4-.1l-2.3-1.2-2.3 1.2c0 .2-.1.2-.2.2zm-.5-5.5l1.5 1.6-.3 2.2 1.9-1 1.9 1-.3-2.2 1.5-1.6-2.1-.4-1-1.9-1 1.9-2.1.4z" class="st4"/></svg>