/* XPM */
static char *default.xpm[] = {
/* columns rows colors chars-per-pixel */
"48 48 257 2",
"   c opaque",
".  c #080704",
"X  c #0b0a03",
"o  c #010912",
"O  c #15130d",
"+  c #1e1810",
"@  c #021326",
"#  c #021a33",
"$  c #282117",
"%  c #2b241b",
"&  c #342b1c",
"*  c #3e311d",
"=  c #38381c",
"-  c #3a3628",
";  c #3a3122",
":  c #3d3e3b",
">  c #06175e",
",  c #04284e",
"<  c #04264b",
"1  c #05255e",
"2  c #08227d",
"3  c #053464",
"4  c #0f3c75",
"5  c #1a257a",
"6  c #323641",
"7  c #313940",
"8  c #393848",
"9  c #26394a",
"0  c #273b62",
"q  c #06407f",
"w  c #16406c",
"e  c #1a4571",
"r  c #3c4449",
"t  c #24476c",
"y  c #40321e",
"u  c #423624",
"i  c #473925",
"p  c #403d2e",
"a  c #4b3d29",
"s  c #4e412d",
"d  c #4b4538",
"f  c #50422c",
"g  c #524632",
"h  c #564932",
"j  c #5c4e39",
"k  c #564b37",
"l  c #5d503b",
"z  c #62543d",
"x  c #7f7f3f",
"c  c #404a4d",
"v  c #4a4647",
"b  c #4a4d4d",
"n  c #484754",
"m  c #424e59",
"M  c #5b5548",
"N  c #4d546e",
"B  c #5a6368",
"V  c #665842",
"C  c #6c5f49",
"Z  c #685b45",
"A  c #6c614e",
"S  c #72644c",
"D  c #756953",
"F  c #7a6c54",
"G  c #7b6e58",
"H  c #746c5e",
"J  c #7e725a",
"K  c #63646b",
"L  c #6c6f7d",
"P  c #7f7766",
"I  c #787974",
"U  c #787d7f",
"Y  c #092a8c",
"T  c #0e219e",
"R  c #0a289c",
"E  c #093c9c",
"W  c #0c21ab",
"Q  c #0b2aab",
"!  c #0d23bb",
"~  c #1022a0",
"^  c #253293",
"/  c #0f2ada",
"(  c #102ce9",
")  c #1130f9",
"_  c #08469d",
"`  c #0f5096",
"'  c #08519d",
"]  c #195594",
"[  c #0948ac",
"{  c #0851a0",
"}  c #0958ad",
"|  c #0e5db1",
" . c #1158a4",
".. c #165eaa",
"X. c #0960bc",
"o. c #2b5d91",
"O. c #33409e",
"+. c #0a68cc",
"@. c #0b71dc",
"#. c #0b77eb",
"$. c #424d85",
"%. c #44578d",
"&. c #4f5c84",
"*. c #616d91",
"=. c #68708b",
"-. c #6f7996",
";. c #7e7d81",
":. c #6d7caa",
">. c #717ea7",
",. c #0c80fb",
"<. c #7e898f",
"1. c #7d8497",
"2. c #7481a7",
"3. c #7280ab",
"4. c #7a87ac",
"5. c #7685b1",
"6. c #82745b",
"7. c #897a5e",
"8. c #877860",
"9. c #8c7e66",
"0. c #857a69",
"q. c #8f8064",
"w. c #8e836f",
"e. c #8c8271",
"r. c #94856a",
"t. c #96886e",
"y. c #9b8c6f",
"u. c #918165",
"i. c #918672",
"p. c #918978",
"a. c #9b8d73",
"s. c #998e7a",
"d. c #9e9175",
"f. c #9d917b",
"g. c #a19274",
"h. c #a4957a",
"j. c #a7997e",
"k. c #ab9b7c",
"l. c #838389",
"z. c #868886",
"x. c #898787",
"c. c #878992",
"v. c #848999",
"b. c #859097",
"n. c #8e9098",
"m. c #908a83",
"M. c #94918e",
"N. c #999387",
"B. c #969290",
"V. c #9a9691",
"C. c #9f9b93",
"Z. c #9d9b9b",
"A. c #858da5",
"S. c #808db4",
"D. c #8190bd",
"F. c #8e98b1",
"G. c #9195a3",
"H. c #9c9ea6",
"J. c #a49981",
"K. c #a39c8d",
"L. c #a99c84",
"P. c #a19682",
"I. c #a39d93",
"U. c #aea083",
"Y. c #ada189",
"T. c #a6a196",
"R. c #a7a299",
"E. c #aca79c",
"W. c #aca495",
"Q. c #b3a484",
"!. c #b1a68b",
"~. c #b6aa8f",
"^. c #b1aa9c",
"/. c #b8ac92",
"(. c #bdb090",
"). c #bbb099",
"_. c #a4a4aa",
"`. c #b6afa0",
"'. c #b6b0a5",
"]. c #bab3a5",
"[. c #bcb6a9",
"{. c #beb8aa",
"}. c #8796c1",
"|. c #8d9cca",
" X c #9fa8c4",
".X c #9da8c6",
"XX c #97a6d1",
"oX c #98a9da",
"OX c #a3adcb",
"+X c #adb3c3",
"@X c #abb6d3",
"#X c #b0b6c1",
"$X c #b1bcdb",
"%X c #a8b8e1",
"&X c #b5c0de",
"*X c #b8c2d8",
"=X c #bac5e4",
"-X c #bbc7e8",
";X c #c0af87",
":X c #c4b38d",
">X c #c3b493",
",X c #c6b89d",
"<X c #c9b994",
"1X c #ccbd9a",
"2X c #c1b69b",
"3X c #c3b8a0",
"4X c #c2bbad",
"5X c #c4beb1",
"6X c #cec2a3",
"7X c #c6c0b2",
"8X c #c9c2b5",
"9X c #ccc6b9",
"0X c #d1c4a4",
"qX c #d2c5a8",
"wX c #d5c9ab",
"eX c #d8cbae",
"rX c #d5c9b0",
"tX c #d9ceb2",
"yX c #dbd0b5",
"uX c #ddd3ba",
"iX c #e0d6bd",
"pX c #c0c7db",
"aX c #c0c9da",
"sX c #d2cec4",
"dX c #c3cdea",
"fX c #c8d4ee",
"gX c #cad3e6",
"hX c #c7d3f5",
"jX c #cad6f8",
"kX c #cddaf4",
"lX c #d2dbed",
"zX c #d8deee",
"xX c #d1dbf2",
"cX c #d0dbfb",
"vX c #dbe1ed",
"bX c #d6e1fc",
"nX c #dfe4f0",
"mX c #dae5fd",
"MX c #dee9fe",
"NX c #e3d9c3",
"BX c #e6ddc8",
"VX c #e8dfca",
"CX c #e8e0cc",
"ZX c #ebe4d2",
"AX c #eee8d6",
"SX c #f1ebdb",
"DX c #e2e9f7",
"FX c #e3ecfd",
"GX c #e9effc",
"HX c #e7f0fe",
"JX c #ebf2fd",
"KX c #f5f0e1",
"LX c #f9f5e9",
"PX c #f1f6fd",
"IX c #f5f9fe",
"UX c #fefefe",
"YX c None",
/* pixels */
"YXYXYXYXYXYXYXYXYXYXYXYXYXYXYXYXYXYXYXYXYXYXYXYXYXYXYXYXYXYXYXYXYXYXYXYXYXYXYXYXYXYXYXYXYXYXYXYX",
"YXYXYXYXYXYXYXYXYXYXYXYXYXYXYXYXYXYXYXYXYXYXYXYXYXYXYXYXYXYXYXYXYXYXYXYXYXYXYXYXYXYXYXYXYXYXYXYX",
"YXYXYXYXYXYXYXYXYXYXYXYXYXYXYXYXYXYXYXYXYXYXYXYXYXYXYXYXYXYXYXYXYXYXYXYXYXYXYXYXYXYXYXYXYXYXYXYX",
"YXYXYXYXYXYXYXYXYXYXYXYXYXYXYXYXYXYXYXYXYXYXYXYXYXYXYXYXYXYXYXYXYXYXYXYXYXYXYXYXYXYXYXYXYXYXYXYX",
"YXYXYXYXYXYXYXYXYXYXYXYXYXYXYXYXYXYXYXYXYXYXYXYXYXYXYXYXYXYXYXYXYXYXYXYXYXYXYXYXYXYXYXYXYXYXYXYX",
"YXYXYXYXYXYXYXYXYXYXYXYXYXYXYXYXYXYXYXYXYXYXYXYXYXYXYXYXYXYXYXYXYXYXYXYXYXYXYXYXYXYXYXYXYXYXYXYX",
"YXYXYXYXYXYXYXYXYXYXYXYXYXYXYXYXYXYXYXYXYXYXYXYXYXYXYXYXYXYXYXYXYXYXYXYXYXYXYXYXYXYXYXYXYXYXYXYX",
"YXYXYXYXYXYXYXYXYXYXYXYXYXYXYXYXYXYXYXYXYXYXYXYXYXYXYXYXYXYXYXYXYXYXYXYXYXYXYXYXYXYXYXYXYXYXYXYX",
"YXYXYXYXYXYXYXYXYXYXYXYXYXYXYXYXYXYXYXYXYXYXy * * y &     YXYXYXYXYXYXYXYXYXYXYXYXYXYXYXYXYXYXYX",
"YXYXYXYXYXYXYXYXYXYXYXYXYXYXYXYXYXYXYXYX= i j N.W.e.s *     YXYXYXYXYXYXYXYXYXYXYXYXYXYXYXYXYXYX",
"YXYXYXYXYXYXYXYXYXYXYXYXYXYXYXYXYXYXYXa f D `.].].].K.l u     YXYXYXYXYXYXYXYXYXYXYXYXYXYXYXYXYX",
"YXYXYXYXYXYXYXYXYXYXYXYXYXYXYXYXYXYXh k i.[.[.{.{.{.4X^.C s     YXYXYXYXYXYXYXYXYXYXYXYXYXYXYXYX",
"YXYXYXYXYXYXYXYXYXYXYXYXYXYXYX%.0 h z K.{.4X5X4X4X4X5X5X].G j X   YXYXYXYXYXYXYXYXYXYXYXYXYXYXYX",
"YXYXYXYXYXYXYXYXYXYXYXYXYXYX$.:.3.N ;.K.^.].{.5X8X7X7X7X8X4X9.V +   YXYXYXYXYXYXYXYXYXYXYXYXYXYX",
"YXYXYXYXYXYXYXYXYXYXYXYXYXYX%.pXUXvXOX:.-.c.C.E.'.4X5X8X9X9X8Xs.S %   YXYXYXYXYXYXYXYXYXYXYXYXYX",
"YXYXYXYXYXYXYXYXYXYXYXYXYXg &.PXIXIXIXUXnX$X}.>.1.n.Z.E.`.{.5X7XP.F -   YXYXYXYXYXYXYXYXYXYXYXYX",
"YXYXYXYXYXYXYXYXYXYXYXYXS M 4.UXUXIXIXIXIXIXIXIXzX$XXX5.4.A.G.Z.T.p.D p     YXYXYXYXYXYXYXYXYXYX",
"YXYXYXYXYXYXYXYXYXYXx 7.6.=.*XUXUXIXIXIXPXUXIXUXUXUXUXIXJXxX-X%XoX|.2.=.d     YXYXYXYXYXYXYXYXYX",
"YXYXYXYXYXYXYXYXYXF 6.f.T.*.DXIXUXIXGXIXJXJXJXJXJXPXIXPXJXIXJXJXJXvX#Xl.Q.    YXYXYXYXYXYXYXYXYX",
"YXYXYXYXYXYXYXYXYXk.t.w.H 4.JXGXPXGXGXJXJXJXGXFXJXJXPXJXJXJXJXJXnX+XV.k.k.    YXYXYXYXYXYXYXYXYX",
"YXYXYXYXYXYXYXYXYXk.Q.a.B .XMXFXFXHXFXHXJXFXFXFXFXFXFXGXHXHXJXlX+XV.k.;Xk.    YXYXYXYXYXYXYXYXYX",
"YXYXYXYXYXYXYXYXYXg.qX>Xd._.gXMXFXFXFXFXHXMXmXmXmXFXFXFXFXFXvX+XM.k.:X:Xg.    YXYXYXYXYXYXYXYXYX",
"YXYXYXYXYXYXYXYXYXy.wXeX6Xh.T.*XkXbXMXFXMXMXmXbXmXMXbXbXmXkX+XM.g.:X<X:Xt.    YXYXYXYXYXYXYXYXYX",
"YXYXYXYXYXYXYXYXYXr.wXtXuXuXQ.s.+XdXcXMXMXMXbXcXbXmXcXcXfX<.7 A (.1X<X:Xr.    YXYXYXYXYXYXYXYXYX",
"YXYXYXYXYXYXYXYXYXq.eXeXuXiXNX,Xr.H.=XjXcXkX-X=X-XfXhX-X Xl.Z W n !.<X>Xq.    YXYXYXYXYXYXYXYXYX",
"YXYXYXYXYXYXYXYXYX7.eXyXiXuXNXCXuXy.m.@X$X.XG.z.B.H.OXF.7 J ~.^ ( v k.:XJ     YXYXYXYXYXYXYXYXYX",
"YXYXYXYXYXYXYXYXYX6.eXyXiXiXCXCXZXCXY.0.v.m.j.b K.Y.t.t r K.).O.) ~ 6.Q.:       YXYXYXYXYXYXYXYX",
"YXYXYXYXYXYXYXYXYXF eXyXuXiXNXCXZXAXSX4Xq.).LX..U sXz.#.k M P W ) ) 8 d.` ,     YXYXYXYXYXYXYXYX",
"YXYXYXYXYXYXYXYXYXS eXyXuXNXNXVXCXZXZXK.~.LX[.#.` N.o.,.9 : 4 ) ) ) 5 c #.{     YXYXYXYXYXYXYXYX",
"YXYXYXYXYXYXYXYXYXS eXeXuXuXNXBXCXZXK.!.KXKXb.,.,.e X.,.X.w +./ ) ) T +.,.X.    YXYXYXYXYXYXYXYX",
"YXYXYXYXYXYXYXYXYXZ wXyXyXuXNXBXBXL.L.SXSXSX<.,.,.,.X.,.,.} X.! ) ) ! ,.,.X.    YXYXYXYXYXYXYXYX",
"YXYXYXYXYXYXYXYXYXz qXwXyXuXuXuXL.h.AXAXAXK.m X.,.+.X.,.,.,.X.Q ) ) Q ,.,., o   YXYXYXYXYXYXYXYX",
"YXYXYXYXYXYXYXYXYXj qXwXeXyXuXj.a.VXZXVXVXNX] @.#.1 { @.,.,.,.#.Y ) E #.,.+.@   YXYXYXYXYXYXYXYX",
"YXYXYXYXYXYXYXYXYXh 0XqXeXeXj.r.BXVXBXBXBXiXI +.,.W > { ,.,.,.,.#.2 +.,.,.q     YXYXYXYXYXYXYXYX",
"YXYXYXYXYXYXYXYXYXf 6X0XqXh.q.uXNXiXiXiXiXuXK } ,.R ! +.X.,.,.,.,.#.,.,.#.,     YXYXYXYXYXYXYXYX",
"YXYXYXYXYXYXYXYXYXa 1X0Xh.8.uXuXiXuXiXyXtXtXQ. .,.[ / X.,.,.,.,.,.,.,.,.,.#     YXYXYXYXYXYXYXYX",
"YXYXYXYXYXYXYXYXYXi 1Xg.J rXuXyXyXtXtXwX0X/.g.d | #.{ 1 #.#.,.,.,.,.,.#.3       YXYXYXYXYXYXYXYX",
"YXYXYXYXYXYXYXYXYXy y.F 6XtXtX,XL.a.6.C k a u % X 4 } #.#.#.#.,.#.#.{ @         YXYXYXYXYXYXYXYX",
"YXYXYXYXYXYXYXYXYXa V t.9.D l h a ; $ O                 o                       YXYXYXYXYXYXYXYX",
"YXYXYXYXYXYXYXYXYXh f u & + .                                               YXYXYXYXYXYXYXYXYXYX",
"YXYXYXYXYXYXYXYXYXYXYXYXYXYXYXYXYXYXYXYXYXYXYXYXYXYXYXYXYXYXYXYXYXYXYXYXYXYXYXYXYXYXYXYXYXYXYXYX",
"YXYXYXYXYXYXYXYXYXYXYXYXYXYXYXYXYXYXYXYXYXYXYXYXYXYXYXYXYXYXYXYXYXYXYXYXYXYXYXYXYXYXYXYXYXYXYXYX",
"YXYXYXYXYXYXYXYXYXYXYXYXYXYXYXYXYXYXYXYXYXYXYXYXYXYXYXYXYXYXYXYXYXYXYXYXYXYXYXYXYXYXYXYXYXYXYXYX",
"YXYXYXYXYXYXYXYXYXYXYXYXYXYXYXYXYXYXYXYXYXYXYXYXYXYXYXYXYXYXYXYXYXYXYXYXYXYXYXYXYXYXYXYXYXYXYXYX",
"YXYXYXYXYXYXYXYXYXYXYXYXYXYXYXYXYXYXYXYXYXYXYXYXYXYXYXYXYXYXYXYXYXYXYXYXYXYXYXYXYXYXYXYXYXYXYXYX",
"YXYXYXYXYXYXYXYXYXYXYXYXYXYXYXYXYXYXYXYXYXYXYXYXYXYXYXYXYXYXYXYXYXYXYXYXYXYXYXYXYXYXYXYXYXYXYXYX",
"YXYXYXYXYXYXYXYXYXYXYXYXYXYXYXYXYXYXYXYXYXYXYXYXYXYXYXYXYXYXYXYXYXYXYXYXYXYXYXYXYXYXYXYXYXYXYXYX",
"YXYXYXYXYXYXYXYXYXYXYXYXYXYXYXYXYXYXYXYXYXYXYXYXYXYXYXYXYXYXYXYXYXYXYXYXYXYXYXYXYXYXYXYXYXYXYXYX"
};
