<!-- This Source Code Form is subject to the terms of the Mozilla Public
   - License, v. 2.0. If a copy of the MPL was not distributed with this
   - file, You can obtain one at http://mozilla.org/MPL/2.0/. -->
<svg xmlns="http://www.w3.org/2000/svg" width="336" height="64" viewBox="0 0 336 64">
  <defs>
    <linearGradient id="a" x1="-10%" y1="45%" x2="110%" y2="55%">
      <stop offset="0" stop-color="#54ffbd"/>
      <stop offset=".45" stop-color="#0df"/>
      <stop offset=".7" stop-color="#58c2ff"/>
      <stop offset=".9" stop-color="#aba8ff"/>
      <stop offset="1" stop-color="#cb9eff"/>
    </linearGradient>
  </defs>
  <path d="M11.341 54.816l-7.026-10.6H1v15.57h3.008V48.843l7.245 10.943h3.074V44.213h-2.986zm6.518 4.97H21V44.213h-3.14zm14.007-6.058h5.094a4.376 4.376 0 0 1-4.567 3.37A5.011 5.011 0 0 1 27.167 52a5.086 5.086 0 0 1 5.182-5.142 4.882 4.882 0 0 1 4.237 2.155l2.614-1.771A8.279 8.279 0 0 0 32.349 44a8.006 8.006 0 1 0 .088 16 7.621 7.621 0 0 0 7.86-7.787v-1.3h-8.431zm20.965-3.243h-6.478v-6.272h-3.117v15.573h3.117v-6.357h6.478v6.357h3.095V44.213h-3.095zm6.035-3.5h4.458v12.8h3.052v-12.8h4.412v-2.772H58.866zm17.979-2.773h-3.117v15.574h10.516v-2.922h-7.4zm16.774 0L90 50.4l-3.623-6.187h-3.4l5.445 9v6.57h3.117V53.28L97 44.213z" fill="url(#a)"/>
  <path d="M1 3.879h21.427v5.8H7.147v7.859h15.28v5.752H7.147v12.642H1zM29.716 1.64a3.447 3.447 0 0 1 3.557 3.6 3.434 3.434 0 0 1-3.6 3.6 3.4 3.4 0 0 1-3.556-3.513 3.555 3.555 0 0 1 3.599-3.687zm-3.03 10.582h6.06v23.71h-6.06zm23.623 6.586a4.894 4.894 0 0 0-2.942-1.054c-2.459 0-3.864 1.581-3.864 5.049v13.129h-6.015v-23.71h5.752v3.424A5.649 5.649 0 0 1 48.9 12a7.191 7.191 0 0 1 4.04 1.229zm2.5 5.4a12.129 12.129 0 0 1 12.209-12.469c7.113 0 12.163 5.049 12.163 12.074v2.5H58.739c.659 2.986 2.986 4.962 6.543 4.962a6.355 6.355 0 0 0 5.883-3.513l5.05 3.03c-2.5 3.688-6.059 5.62-11.109 5.62-7.684.003-12.294-5.134-12.294-12.204zm6.015-2.678H71.3c-.658-3.03-3.117-4.7-6.323-4.7a6.091 6.091 0 0 0-6.15 4.7zm19.847-9.308h4.259v-1.186c0-6.455 2.722-9.133 8.694-9.133h2.107v5.225h-1.709c-2.81 0-3.425.966-3.425 3.908v1.186h5.137v5.444h-5v18.266h-5.8V17.666h-4.26zm16.2 11.855a12.139 12.139 0 0 1 12.382-12.338 12.338 12.338 0 1 1 0 24.676 11.959 11.959 0 0 1-12.377-12.338zm18.88 0a6.5 6.5 0 1 0-13 0 6.5 6.5 0 1 0 13 0zm14.051-.264l-8.562-11.591h7.113l5.05 7.288 5.181-7.288h6.981l-8.694 11.547 9.133 12.163h-7.064l-5.664-7.732-5.489 7.728h-7.069z" fill="#fff"/>
  <path d="M179.043 19.377a7.41 7.41 0 0 0 4.266-6.948c0-5.189-3.958-8.532-9.939-8.532h-13.721V36h14.161c6.068 0 10.158-3.43 10.158-9.059a7.711 7.711 0 0 0-4.925-7.564zM163.3 7.24h10.027c3.913 0 6.332 2.111 6.332 5.189s-2.11 5.365-6.024 5.365H163.3zm10.467 25.374H163.3V21.18h10.29c4.4 0 6.685 2.331 6.685 5.717 0 3.342-2.551 5.717-6.509 5.717zM191.8 16.738v-4.485h-3.475V36h3.563V22.983c0-5.233 2.286-7.52 6.244-7.52a5.2 5.2 0 0 1 2.9.748l1.495-3.43a7.752 7.752 0 0 0-3.957-.88 6.576 6.576 0 0 0-6.77 4.837zm23.22-4.968a12.192 12.192 0 0 0-12.313 12.357 12.335 12.335 0 1 0 24.67 0 12.2 12.2 0 0 0-12.359-12.357zm0 21.284a8.606 8.606 0 0 1-8.663-8.927 8.69 8.69 0 1 1 17.371 0 8.642 8.642 0 0 1-8.71 8.927zm41.3-2.112l-7.081-18.689h-3.342l-7.256 18.821-5.981-18.821h-3.782L236.657 36h3.518l7.3-18.821 7.3 18.821h3.254l8.224-23.747h-3.738zm22.649-8.663c-3.694-.747-6.553-1.231-6.553-3.693 0-2.2 1.5-3.782 5.146-3.782a7.666 7.666 0 0 1 6.509 3.166l2.99-2.023a11.483 11.483 0 0 0-9.5-4.221c-5.629-.044-8.839 3.21-8.839 6.9 0 4.749 4.353 5.849 8.443 6.64 3.474.7 6.728 1.231 6.728 3.87 0 2.375-1.935 4.133-5.629 4.133a8.77 8.77 0 0 1-7.651-3.87l-3.123 2.112c2.111 3.034 5.5 4.968 10.686 4.968 6.2.044 9.367-3.649 9.367-7.387-.004-4.877-4.489-6.021-8.579-6.813zm23.92-10.509a12.179 12.179 0 0 0-12.4 12.445c0 6.948 4.925 12.268 12.533 12.268a12.2 12.2 0 0 0 11.038-6.024l-3.078-1.8a8.489 8.489 0 0 1-7.96 4.573c-5.013 0-8.488-3.209-9.015-7.739h20.977v-1.631a11.714 11.714 0 0 0-12.095-12.092zm-8.8 10.553a8.821 8.821 0 0 1 8.8-7.344 8 8 0 0 1 8.4 7.344zM329.541 11.9a6.575 6.575 0 0 0-6.772 4.837v-4.484h-3.475V36h3.563V22.983c0-5.233 2.286-7.52 6.244-7.52a5.2 5.2 0 0 1 2.9.748l1.5-3.43a7.754 7.754 0 0 0-3.96-.881z" fill="#fff"/>
</svg>
