<svg xmlns="http://www.w3.org/2000/svg" width="512" height="512"><defs><radialGradient id="h" cx="-9235.977" cy="-9835.981" r="118.081" gradientTransform="matrix(6.201 0 0 6.2 57644.994 60908.8)" gradientUnits="userSpaceOnUse"><stop offset=".126" stop-color="#3fe1b0"/><stop offset=".429" stop-color="#0df"/><stop offset=".479" stop-color="#1ec1ff"/><stop offset=".624" stop-color="#7077ff"/><stop offset=".69" stop-color="#9059ff"/><stop offset=".904" stop-color="#b833e1"/></radialGradient><radialGradient id="b" cx="-9227.187" cy="-9815.121" r="80.797" gradientTransform="matrix(6.201 0 0 6.2 57644.994 60908.8)" gradientUnits="userSpaceOnUse"><stop offset=".108" stop-color="#3fe1b0"/><stop offset=".122" stop-color="#3bdcb3"/><stop offset=".254" stop-color="#1bb3d3"/><stop offset=".358" stop-color="#0799e6"/><stop offset=".42" stop-color="#0090ed"/><stop offset=".487" stop-color="#2482f1"/><stop offset=".64" stop-color="#7165fb"/><stop offset=".71" stop-color="#9059ff"/><stop offset=".795" stop-color="#7d49ed"/><stop offset=".86" stop-color="#7542e5"/></radialGradient><radialGradient id="d" cx="-9246.97" cy="-9833.457" r="58.534" gradientTransform="matrix(6.201 0 0 6.2 57644.994 60908.8)" gradientUnits="userSpaceOnUse"><stop offset=".132" stop-color="#3fe1b0"/><stop offset=".289" stop-color="#28d0c8"/><stop offset=".526" stop-color="#00b3f4"/></radialGradient><radialGradient id="e" cx="-9265.648" cy="-9760.984" r="38.471" gradientTransform="matrix(6.201 0 0 6.2 57644.994 60908.8)" gradientUnits="userSpaceOnUse"><stop offset=".287" stop-color="#0060df"/><stop offset=".417" stop-color="#2357e1"/><stop offset=".604" stop-color="#4f4ce3"/><stop offset=".748" stop-color="#6b45e4"/><stop offset=".833" stop-color="#7542e5"/></radialGradient><radialGradient id="f" cx="-9255.62" cy="-9791.546" r="20.397" gradientTransform="matrix(6.027 -1.458 1.708 7.059 72758.651 55821.181)" gradientUnits="userSpaceOnUse"><stop offset=".206" stop-color="#45278d" stop-opacity="0"/><stop offset=".251" stop-color="#44268a" stop-opacity=".055"/><stop offset=".725" stop-color="#371f6f" stop-opacity=".591"/><stop offset=".956" stop-color="#321c64" stop-opacity=".8"/></radialGradient><radialGradient id="g" cx="-9257.731" cy="-9818.427" r="27.676" gradientTransform="matrix(6.201 0 0 6.2 57644.994 60908.8)" gradientUnits="userSpaceOnUse"><stop offset="0" stop-color="#0df"/><stop offset=".235" stop-color="#00d6fd"/><stop offset=".572" stop-color="#00c3f8"/><stop offset=".792" stop-color="#00b3f4"/></radialGradient><radialGradient id="c" cx="-9256.711" cy="-9782.089" r="80.797" gradientTransform="matrix(6.201 0 0 6.2 57644.994 60908.8)" gradientUnits="userSpaceOnUse"><stop offset=".3" stop-color="#45278d"/><stop offset=".341" stop-color="#562896" stop-opacity=".787"/><stop offset=".43" stop-color="#782aa9" stop-opacity=".364"/><stop offset=".495" stop-color="#8d2bb5" stop-opacity=".1"/><stop offset=".53" stop-color="#952bb9" stop-opacity="0"/></radialGradient><radialGradient id="i" cx="-9247.165" cy="-9822.859" r="86.499" gradientTransform="matrix(.649 6.166 -4.046 .426 -33440.427 61207.861)" gradientUnits="userSpaceOnUse"><stop offset="0" stop-color="#54ffbd"/><stop offset=".095" stop-color="#4cf3b8"/><stop offset=".197" stop-color="#3fe1b0"/><stop offset=".257" stop-color="#33d8bd"/><stop offset=".369" stop-color="#12c0e1"/><stop offset=".423" stop-color="#00b3f4"/><stop offset=".737" stop-color="#0060df"/></radialGradient><radialGradient id="j" cx="-9258.383" cy="-9808.176" r="73.72" gradientTransform="matrix(6.201 0 0 6.2 57644.994 60908.8)" gradientUnits="userSpaceOnUse"><stop offset=".137" stop-color="#3fe1b0"/><stop offset=".435" stop-color="#0df"/><stop offset=".484" stop-color="#1ec1ff"/><stop offset=".622" stop-color="#7077ff"/><stop offset=".685" stop-color="#9059ff"/></radialGradient><radialGradient id="k" cx="-9238.923" cy="-9803.861" r="80.686" gradientTransform="matrix(6.201 0 0 6.2 57644.994 60908.8)" gradientUnits="userSpaceOnUse"><stop offset=".094" stop-color="#54ffbd"/><stop offset=".242" stop-color="#41f7cc"/><stop offset=".543" stop-color="#0fe3f3"/><stop offset=".626" stop-color="#0df"/></radialGradient><linearGradient id="a" x1="471.8" y1="127.352" x2="55.983" y2="389.284" gradientUnits="userSpaceOnUse"><stop offset="0" stop-color="#3fe1b0"/><stop offset=".406" stop-color="#00b3f4"/><stop offset=".421" stop-color="#03b0f4"/><stop offset=".818" stop-color="#5561e9"/><stop offset="1" stop-color="#7542e5"/></linearGradient><linearGradient id="l" x1="442.084" y1="74.772" x2="102.645" y2="414.21" gradientUnits="userSpaceOnUse"><stop offset=".167" stop-color="#54ffbd" stop-opacity=".8"/><stop offset=".236" stop-color="#43f8ca" stop-opacity=".639"/><stop offset=".361" stop-color="#27ede1" stop-opacity=".368"/><stop offset=".466" stop-color="#12e4f1" stop-opacity=".169"/><stop offset=".545" stop-color="#05dffb" stop-opacity=".046"/><stop offset=".589" stop-color="#0df" stop-opacity="0"/></linearGradient></defs><path d="M478.711 166.353c-10.445-25.124-31.6-52.248-48.212-60.821 13.52 26.505 21.345 53.093 24.335 72.936 0 .039.015.136.047.4C427.706 111.135 381.627 83.823 344 24.355c-1.9-3.007-3.805-6.022-5.661-9.2a73.716 73.716 0 01-2.646-4.972A43.7 43.7 0 01332.1.677a.626.626 0 00-.546-.644.818.818 0 00-.451 0c-.034.012-.084.051-.12.065-.053.021-.12.069-.176.1.027-.036.083-.117.1-.136-60.37 35.356-80.85 100.761-82.732 133.484a120.249 120.249 0 00-66.142 25.488 71.355 71.355 0 00-6.225-4.7 111.338 111.338 0 01-.674-58.732c-24.688 11.241-43.89 29.01-57.85 44.7h-.111c-9.527-12.067-8.855-51.873-8.312-60.184-.114-.515-7.107 3.63-8.023 4.255a175.073 175.073 0 00-23.486 20.12 210.478 210.478 0 00-22.442 26.913c0 .012-.007.026-.011.038 0-.013.007-.026.011-.038a202.838 202.838 0 00-32.247 72.805c-.115.521-.212 1.061-.324 1.586-.452 2.116-2.08 12.7-2.365 15-.022.177-.032.347-.053.524a229.066 229.066 0 00-3.9 33.157c0 .41-.025.816-.025 1.227C16 388.418 123.6 496 256.324 496c118.865 0 217.56-86.288 236.882-199.63.407-3.076.733-6.168 1.092-9.271 4.777-41.21-.53-84.525-15.587-120.746zM201.716 354.447c1.124.537 2.18 1.124 3.334 1.639.048.033.114.07.163.1a126.191 126.191 0 01-3.497-1.739zm55.053-144.93zm198.131-30.59l-.032-.233c.012.085.027.174.04.259z" fill="url(#a)"/><path d="M478.711 166.353c-10.445-25.124-31.6-52.248-48.212-60.821 13.52 26.505 21.345 53.093 24.335 72.936 0-.058.011.048.036.226.012.085.027.174.04.259 22.675 61.47 10.322 123.978-7.479 162.175-27.539 59.1-94.215 119.67-198.576 116.716C136.1 454.651 36.766 370.988 18.223 261.41c-3.379-17.28 0-26.054 1.7-40.084-2.071 10.816-2.86 13.94-3.9 33.157 0 .41-.025.816-.025 1.227C16 388.418 123.6 496 256.324 496c118.865 0 217.56-86.288 236.882-199.63.407-3.076.733-6.168 1.092-9.271 4.777-41.21-.53-84.525-15.587-120.746z" fill="url(#b)"/><path d="M478.711 166.353c-10.445-25.124-31.6-52.248-48.212-60.821 13.52 26.505 21.345 53.093 24.335 72.936 0-.058.011.048.036.226.012.085.027.174.04.259 22.675 61.47 10.322 123.978-7.479 162.175-27.539 59.1-94.215 119.67-198.576 116.716C136.1 454.651 36.766 370.988 18.223 261.41c-3.379-17.28 0-26.054 1.7-40.084-2.071 10.816-2.86 13.94-3.9 33.157 0 .41-.025.816-.025 1.227C16 388.418 123.6 496 256.324 496c118.865 0 217.56-86.288 236.882-199.63.407-3.076.733-6.168 1.092-9.271 4.777-41.21-.53-84.525-15.587-120.746z" fill="url(#c)"/><path d="M361.922 194.6c.524.368 1 .734 1.493 1.1a130.706 130.706 0 00-22.31-29.112C266.4 91.892 321.516 4.626 330.811.194c.027-.036.083-.117.1-.136-60.37 35.356-80.85 100.761-82.732 133.484 2.8-.194 5.592-.429 8.442-.429 45.051 0 84.289 24.77 105.301 61.487z" fill="url(#d)"/><path d="M256.772 209.514c-.393 5.978-21.514 26.593-28.9 26.593-68.339 0-79.432 41.335-79.432 41.335 3.027 34.81 27.261 63.475 56.611 78.643 1.339.692 2.694 1.317 4.05 1.935a132.768 132.768 0 007.059 2.886 106.743 106.743 0 0031.271 6.031c119.78 5.618 142.986-143.194 56.545-186.408 22.137-3.85 45.115 5.053 57.947 14.067-21.012-36.714-60.25-61.484-105.3-61.484-2.85 0-5.641.235-8.442.429a120.249 120.249 0 00-66.142 25.488c3.664 3.1 7.8 7.244 16.514 15.828 16.302 16.067 58.13 32.705 58.219 34.657z" fill="url(#e)"/><path d="M256.772 209.514c-.393 5.978-21.514 26.593-28.9 26.593-68.339 0-79.432 41.335-79.432 41.335 3.027 34.81 27.261 63.475 56.611 78.643 1.339.692 2.694 1.317 4.05 1.935a132.768 132.768 0 007.059 2.886 106.743 106.743 0 0031.271 6.031c119.78 5.618 142.986-143.194 56.545-186.408 22.137-3.85 45.115 5.053 57.947 14.067-21.012-36.714-60.25-61.484-105.3-61.484-2.85 0-5.641.235-8.442.429a120.249 120.249 0 00-66.142 25.488c3.664 3.1 7.8 7.244 16.514 15.828 16.302 16.067 58.13 32.705 58.219 34.657z" fill="url(#f)"/><path d="M170.829 151.036a244.042 244.042 0 014.981 3.3 111.338 111.338 0 01-.674-58.732c-24.688 11.241-43.89 29.01-57.85 44.7 1.155-.033 36.014-.66 53.543 10.732z" fill="url(#g)"/><path d="M18.223 261.41C36.766 370.988 136.1 454.651 248.855 457.844c104.361 2.954 171.037-57.62 198.576-116.716 17.8-38.2 30.154-100.7 7.479-162.175l-.008-.026-.032-.233c-.025-.178-.04-.284-.036-.226 0 .039.015.136.047.4 8.524 55.661-19.79 109.584-64.051 146.044l-.133.313c-86.245 70.223-168.774 42.368-185.484 30.966a144.108 144.108 0 01-3.5-1.743c-50.282-24.029-71.054-69.838-66.6-109.124-42.457 0-56.934-35.809-56.934-35.809s38.119-27.179 88.358-3.541c46.53 21.893 90.228 3.543 90.233 3.541-.089-1.952-41.917-18.59-58.223-34.656-8.713-8.584-12.85-12.723-16.514-15.828a71.355 71.355 0 00-6.225-4.7 282.929 282.929 0 00-4.981-3.3c-17.528-11.392-52.388-10.765-53.543-10.735h-.111c-9.527-12.067-8.855-51.873-8.312-60.184-.114-.515-7.107 3.63-8.023 4.255a175.073 175.073 0 00-23.486 20.12 210.478 210.478 0 00-22.442 26.919c0 .012-.007.026-.011.038 0-.013.007-.026.011-.038a202.838 202.838 0 00-32.247 72.805c-.115.521-8.65 37.842-4.44 57.199z" fill="url(#h)"/><path d="M341.105 166.587a130.706 130.706 0 0122.31 29.112c1.323.994 2.559 1.985 3.608 2.952 54.482 50.2 25.936 121.2 23.807 126.26 44.261-36.46 72.575-90.383 64.051-146.044C427.706 111.135 381.627 83.823 344 24.355c-1.9-3.007-3.805-6.022-5.661-9.2a73.716 73.716 0 01-2.646-4.972A43.7 43.7 0 01332.1.677a.626.626 0 00-.546-.644.818.818 0 00-.451 0c-.034.012-.084.051-.12.065-.053.021-.12.069-.176.1-9.291 4.428-64.407 91.694 10.298 166.389z" fill="url(#i)"/><path d="M367.023 198.651c-1.049-.967-2.285-1.958-3.608-2.952-.489-.368-.969-.734-1.493-1.1-12.832-9.014-35.81-17.917-57.947-14.067 86.441 43.214 63.235 192.026-56.545 186.408a106.743 106.743 0 01-31.271-6.031 134.51 134.51 0 01-7.059-2.886c-1.356-.618-2.711-1.243-4.05-1.935.048.033.114.07.163.1 16.71 11.4 99.239 39.257 185.484-30.966l.133-.313c2.129-5.054 30.675-76.057-23.807-126.258z" fill="url(#j)"/><path d="M148.439 277.443s11.093-41.335 79.432-41.335c7.388 0 28.509-20.615 28.9-26.593s-43.7 18.352-90.233-3.541c-50.239-23.638-88.358 3.541-88.358 3.541s14.477 35.809 56.934 35.809c-4.453 39.286 16.319 85.1 66.6 109.124 1.124.537 2.18 1.124 3.334 1.639-29.348-15.169-53.582-43.834-56.609-78.644z" fill="url(#k)"/><path d="M478.711 166.353c-10.445-25.124-31.6-52.248-48.212-60.821 13.52 26.505 21.345 53.093 24.335 72.936 0 .039.015.136.047.4C427.706 111.135 381.627 83.823 344 24.355c-1.9-3.007-3.805-6.022-5.661-9.2a73.716 73.716 0 01-2.646-4.972A43.7 43.7 0 01332.1.677a.626.626 0 00-.546-.644.818.818 0 00-.451 0c-.034.012-.084.051-.12.065-.053.021-.12.069-.176.1.027-.036.083-.117.1-.136-60.37 35.356-80.85 100.761-82.732 133.484 2.8-.194 5.592-.429 8.442-.429 45.053 0 84.291 24.77 105.3 61.484-12.832-9.014-35.81-17.917-57.947-14.067 86.441 43.214 63.235 192.026-56.545 186.408a106.743 106.743 0 01-31.271-6.031 134.51 134.51 0 01-7.059-2.886c-1.356-.618-2.711-1.243-4.05-1.935.048.033.114.07.163.1a144.108 144.108 0 01-3.5-1.743c1.124.537 2.18 1.124 3.334 1.639-29.35-15.168-53.584-43.833-56.611-78.643 0 0 11.093-41.335 79.432-41.335 7.388 0 28.509-20.615 28.9-26.593-.089-1.952-41.917-18.59-58.223-34.656-8.713-8.584-12.85-12.723-16.514-15.828a71.355 71.355 0 00-6.225-4.7 111.338 111.338 0 01-.674-58.732c-24.688 11.241-43.89 29.01-57.85 44.7h-.111c-9.527-12.067-8.855-51.873-8.312-60.184-.114-.515-7.107 3.63-8.023 4.255a175.073 175.073 0 00-23.486 20.12 210.478 210.478 0 00-22.435 26.916c0 .012-.007.026-.011.038 0-.013.007-.026.011-.038a202.838 202.838 0 00-32.247 72.805c-.115.521-.212 1.061-.324 1.586-.452 2.116-2.486 12.853-2.77 15.156-.022.177.021-.176 0 0a279.565 279.565 0 00-3.544 33.53c0 .41-.025.816-.025 1.227C16 388.418 123.6 496 256.324 496c118.865 0 217.56-86.288 236.882-199.63.407-3.076.733-6.168 1.092-9.271 4.777-41.21-.53-84.525-15.587-120.746zm-23.841 12.341c.012.085.027.174.04.259l-.008-.026-.032-.233z" fill="url(#l)"/></svg>