<!-- This Source Code Form is subject to the terms of the Mozilla Public
   - License, v. 2.0. If a copy of the MPL was not distributed with this
   - file, You can obtain one at http://mozilla.org/MPL/2.0/. -->
<!-- IMPORTANT - The text part needs 'context-fill' for dark mode support on some pages -->
<svg xmlns="http://www.w3.org/2000/svg" viewBox="0 0 434 80">
  <defs>
    <linearGradient id="a" x1="74.803" y1="20.543" x2="7.742" y2="62.786" gradientUnits="userSpaceOnUse">
      <stop offset="0" stop-color="#3fe1b0"/>
      <stop offset=".406" stop-color="#00b3f4"/>
      <stop offset=".421" stop-color="#03b0f4"/>
      <stop offset=".818" stop-color="#5561e9"/>
      <stop offset="1" stop-color="#7542e5"/>
    </linearGradient>
    <radialGradient id="b" cx="-7907.187" cy="-8515.121" r="80.797" gradientTransform="translate(7975 8524)" gradientUnits="userSpaceOnUse">
      <stop offset=".108" stop-color="#3fe1b0"/>
      <stop offset=".122" stop-color="#3bdcb3"/>
      <stop offset=".254" stop-color="#1bb3d3"/>
      <stop offset=".358" stop-color="#0799e6"/>
      <stop offset=".42" stop-color="#0090ed"/>
      <stop offset=".487" stop-color="#2482f1"/>
      <stop offset=".64" stop-color="#7165fb"/>
      <stop offset=".71" stop-color="#9059ff"/>
      <stop offset=".795" stop-color="#7d49ed"/>
      <stop offset=".86" stop-color="#7542e5"/>
    </radialGradient>
    <radialGradient id="c" cx="-7936.711" cy="-8482.089" r="80.797" gradientTransform="translate(7975 8524)" gradientUnits="userSpaceOnUse">
      <stop offset=".3" stop-color="#45278d"/>
      <stop offset=".341" stop-color="#562896" stop-opacity=".787"/>
      <stop offset=".43" stop-color="#782aa9" stop-opacity=".364"/>
      <stop offset=".495" stop-color="#8d2bb5" stop-opacity=".1"/>
      <stop offset=".53" stop-color="#952bb9" stop-opacity="0"/>
    </radialGradient>
    <radialGradient id="d" cx="-7926.97" cy="-8533.457" r="58.534" gradientTransform="translate(7975 8524)" gradientUnits="userSpaceOnUse">
      <stop offset=".132" stop-color="#3fe1b0"/>
      <stop offset=".289" stop-color="#28d0c8"/>
      <stop offset=".526" stop-color="#00b3f4"/>
    </radialGradient>
    <radialGradient id="e" cx="-7945.648" cy="-8460.984" r="38.471" gradientTransform="translate(7975 8524)" gradientUnits="userSpaceOnUse">
      <stop offset=".287" stop-color="#0060df"/>
      <stop offset=".417" stop-color="#2357e1"/>
      <stop offset=".604" stop-color="#4f4ce3"/>
      <stop offset=".748" stop-color="#6b45e4"/>
      <stop offset=".833" stop-color="#7542e5"/>
    </radialGradient>
    <radialGradient id="f" cx="-7935.62" cy="-8491.546" r="20.397" gradientTransform="matrix(.972 -.235 .275 1.138 10091.302 7833.798)" gradientUnits="userSpaceOnUse">
      <stop offset=".206" stop-color="#45278d" stop-opacity="0"/>
      <stop offset=".251" stop-color="#44268a" stop-opacity=".055"/>
      <stop offset=".725" stop-color="#371f6f" stop-opacity=".591"/>
      <stop offset=".956" stop-color="#321c64" stop-opacity=".8"/>
    </radialGradient>
    <radialGradient id="g" cx="-7943.645" cy="-8466.522" r=".626" gradientTransform="translate(7975 8524)" gradientUnits="userSpaceOnUse">
      <stop offset=".353" stop-color="#3a8ee6"/>
      <stop offset=".472" stop-color="#5c79f0"/>
      <stop offset=".669" stop-color="#9059ff"/>
      <stop offset="1" stop-color="#c139e6"/>
    </radialGradient>
    <radialGradient id="h" cx="-7943.48" cy="-8466.749" r=".224" gradientTransform="matrix(.972 -.235 .275 1.138 10084.252 7828.516)" gradientUnits="userSpaceOnUse">
      <stop offset=".206" stop-color="#9059ff" stop-opacity="0"/>
      <stop offset=".278" stop-color="#8c4ff3" stop-opacity=".064"/>
      <stop offset=".747" stop-color="#7716a8" stop-opacity=".45"/>
      <stop offset=".975" stop-color="#6e008b" stop-opacity=".6"/>
    </radialGradient>
    <radialGradient id="i" cx="-7937.731" cy="-8518.427" r="27.676" gradientTransform="translate(7975 8524)" gradientUnits="userSpaceOnUse">
      <stop offset="0" stop-color="#0df"/>
      <stop offset=".235" stop-color="#00d6fd"/>
      <stop offset=".572" stop-color="#00c3f8"/>
      <stop offset=".792" stop-color="#00b3f4"/>
    </radialGradient>
    <radialGradient id="j" cx="-7915.977" cy="-8535.981" r="118.081" gradientTransform="translate(7975 8524)" gradientUnits="userSpaceOnUse">
      <stop offset=".126" stop-color="#3fe1b0"/>
      <stop offset=".429" stop-color="#0df"/>
      <stop offset=".479" stop-color="#1ec1ff"/>
      <stop offset=".624" stop-color="#7077ff"/>
      <stop offset=".69" stop-color="#9059ff"/>
      <stop offset=".904" stop-color="#b833e1"/>
    </radialGradient>
    <radialGradient id="k" cx="-7927.165" cy="-8522.859" r="86.499" gradientTransform="matrix(.105 .995 -.653 .069 -4684.004 8470.191)" gradientUnits="userSpaceOnUse">
      <stop offset="0" stop-color="#54ffbd"/>
      <stop offset=".095" stop-color="#4cf3b8"/>
      <stop offset=".197" stop-color="#3fe1b0"/>
      <stop offset=".257" stop-color="#33d8bd"/>
      <stop offset=".369" stop-color="#12c0e1"/>
      <stop offset=".423" stop-color="#00b3f4"/>
      <stop offset=".737" stop-color="#0060df"/>
    </radialGradient>
    <radialGradient id="l" cx="-7938.383" cy="-8508.176" r="73.72" gradientTransform="translate(7975 8524)" gradientUnits="userSpaceOnUse">
      <stop offset=".137" stop-color="#3fe1b0"/>
      <stop offset=".435" stop-color="#0df"/>
      <stop offset=".484" stop-color="#1ec1ff"/>
      <stop offset=".622" stop-color="#7077ff"/>
      <stop offset=".685" stop-color="#9059ff"/>
    </radialGradient>
    <radialGradient id="m" cx="-7918.923" cy="-8503.861" r="80.686" gradientTransform="translate(7975 8524)" gradientUnits="userSpaceOnUse">
      <stop offset=".094" stop-color="#54ffbd"/>
      <stop offset=".242" stop-color="#41f7cc"/>
      <stop offset=".543" stop-color="#0fe3f3"/>
      <stop offset=".626" stop-color="#0df"/>
    </radialGradient>
    <linearGradient id="n" x1="70.013" y1="12.061" x2="15.267" y2="66.806" gradientUnits="userSpaceOnUse">
      <stop offset=".167" stop-color="#54ffbd" stop-opacity=".8"/>
      <stop offset=".236" stop-color="#43f8ca" stop-opacity=".639"/>
      <stop offset=".361" stop-color="#27ede1" stop-opacity=".368"/>
      <stop offset=".466" stop-color="#12e4f1" stop-opacity=".169"/>
      <stop offset=".545" stop-color="#05dffb" stop-opacity=".046"/>
      <stop offset=".589" stop-color="#0df" stop-opacity="0"/>
    </linearGradient>
    <linearGradient id="o" x1="75.658" y1="72" x2="203.22" y2="72" gradientUnits="userSpaceOnUse">
      <stop offset=".002" stop-color="#005e5e"/>
      <stop offset=".478" stop-color="#0250bb"/>
      <stop offset=".735" stop-color="#253ba3"/>
      <stop offset="1" stop-color="#45278d"/>
    </linearGradient>
    <linearGradient id="p" x1="75.658" y1="72" x2="203.22" y2="72" gradientUnits="userSpaceOnUse">
      <stop offset="0" stop-color="#54ffbd"/>
      <stop offset=".45" stop-color="#0df"/>
      <stop offset=".7" stop-color="#58c2ff"/>
      <stop offset=".9" stop-color="#aba8ff"/>
      <stop offset="1" stop-color="#cb9eff"/>
    </linearGradient>
  </defs>
  <style>
    .channel-name {
      fill: url(#o);
    }

    @media (prefers-color-scheme: dark) {
      .channel-name {
        fill: url(#p);
      }
    }
  </style>
  <path d="M75.916 26.831c-1.684-4.052-5.1-8.427-7.775-9.81a40.266 40.266 0 0 1 3.925 11.764l.007.065C67.691 17.925 60.26 13.52 54.191 3.928c-.307-.485-.614-.971-.913-1.484-.171-.293-.308-.557-.427-.8a7.053 7.053 0 0 1-.578-1.535.1.1 0 0 0-.088-.1.138.138 0 0 0-.073 0c-.005 0-.013.009-.019.011s-.019.011-.028.015l.015-.026c-9.735 5.7-13.038 16.252-13.342 21.53a19.387 19.387 0 0 0-10.666 4.111 11.587 11.587 0 0 0-1-.758 17.968 17.968 0 0 1-.109-9.473 28.705 28.705 0 0 0-9.329 7.21h-.018c-1.536-1.947-1.428-8.367-1.34-9.708a6.928 6.928 0 0 0-1.294.687 28.225 28.225 0 0 0-3.788 3.245A33.845 33.845 0 0 0 7.571 21.2v.006-.007a32.733 32.733 0 0 0-5.2 11.743l-.052.256c-.073.341-.336 2.049-.381 2.42 0 .029-.006.056-.009.085a36.937 36.937 0 0 0-.629 5.343v.2A38.759 38.759 0 0 0 78.254 47.8c.065-.5.118-.995.176-1.5a39.857 39.857 0 0 0-2.514-19.469zm-44.67 30.338c.181.087.351.181.537.264l.027.017q-.282-.135-.564-.281zm8.878-23.376zm31.952-4.934v-.037l.007.041z" fill="url(#a)"/>
  <path d="M72.078 28.863l-.007-.041v.037z" fill="none"/>
  <path d="M75.916 26.831c-1.684-4.052-5.1-8.427-7.775-9.81a40.266 40.266 0 0 1 3.925 11.764v.037l.007.041a35.1 35.1 0 0 1-1.206 26.158c-4.442 9.531-15.194 19.3-32.024 18.825-18.185-.515-34.2-14.009-37.194-31.683-.545-2.787 0-4.2.274-6.465a28.876 28.876 0 0 0-.623 5.348v.2A38.759 38.759 0 0 0 78.254 47.8c.065-.5.118-.995.176-1.5a39.857 39.857 0 0 0-2.514-19.469z" fill="url(#b)"/>
  <path d="M75.916 26.831c-1.684-4.052-5.1-8.427-7.775-9.81a40.266 40.266 0 0 1 3.925 11.764v.037l.007.041a35.1 35.1 0 0 1-1.206 26.158c-4.442 9.531-15.194 19.3-32.024 18.825-18.185-.515-34.2-14.009-37.194-31.683-.545-2.787 0-4.2.274-6.465a28.876 28.876 0 0 0-.623 5.348v.2A38.759 38.759 0 0 0 78.254 47.8c.065-.5.118-.995.176-1.5a39.857 39.857 0 0 0-2.514-19.469z" fill="url(#c)"/>
  <path d="M57.082 31.387c.084.059.162.118.241.177a21.1 21.1 0 0 0-3.6-4.695C41.677 14.821 50.566.746 52.065.031l.015-.022c-9.735 5.7-13.038 16.252-13.342 21.53.452-.031.9-.069 1.362-.069a19.56 19.56 0 0 1 16.982 9.917z" fill="url(#d)"/>
  <path d="M40.125 33.793c-.064.964-3.47 4.289-4.661 4.289-11.021 0-12.81 6.667-12.81 6.667.488 5.614 4.4 10.238 9.129 12.684.216.112.435.213.654.312q.569.252 1.138.466a17.235 17.235 0 0 0 5.043.973c19.317.906 23.059-23.1 9.119-30.066a13.38 13.38 0 0 1 9.345 2.269A19.56 19.56 0 0 0 40.1 21.47c-.46 0-.91.038-1.362.069a19.387 19.387 0 0 0-10.666 4.111c.591.5 1.258 1.168 2.663 2.553 2.63 2.591 9.375 5.275 9.39 5.59z" fill="url(#e)"/>
  <path d="M40.125 33.793c-.064.964-3.47 4.289-4.661 4.289-11.021 0-12.81 6.667-12.81 6.667.488 5.614 4.4 10.238 9.129 12.684.216.112.435.213.654.312q.569.252 1.138.466a17.235 17.235 0 0 0 5.043.973c19.317.906 23.059-23.1 9.119-30.066a13.38 13.38 0 0 1 9.345 2.269A19.56 19.56 0 0 0 40.1 21.47c-.46 0-.91.038-1.362.069a19.387 19.387 0 0 0-10.666 4.111c.591.5 1.258 1.168 2.663 2.553 2.63 2.591 9.375 5.275 9.39 5.59z" fill="url(#f)"/>
  <path d="M31.246 57.169q.282.145.564.281l-.027-.017c-.183-.083-.356-.177-.537-.264z" fill="url(#g)"/>
  <path d="M31.246 57.169q.282.145.564.281l-.027-.017c-.183-.083-.356-.177-.537-.264z" fill="url(#h)"/>
  <path d="M26.265 24.361c.314.2.573.374.8.531a17.968 17.968 0 0 1-.109-9.473 28.705 28.705 0 0 0-9.329 7.21c.189-.005 5.811-.106 8.638 1.732z" fill="url(#i)"/>
  <path d="M1.654 42.163c2.991 17.674 19.009 31.168 37.194 31.683 16.83.476 27.582-9.294 32.024-18.825a35.1 35.1 0 0 0 1.206-26.158v-.037c0-.029-.006-.046 0-.037l.007.065c1.375 8.977-3.191 17.674-10.329 23.555l-.022.05c-13.908 11.327-27.218 6.834-29.912 5q-.282-.135-.564-.281c-8.109-3.876-11.459-11.264-10.741-17.6a9.953 9.953 0 0 1-9.181-5.775 14.618 14.618 0 0 1 14.249-.572 19.3 19.3 0 0 0 14.552.572c-.015-.315-6.76-3-9.39-5.59-1.405-1.385-2.072-2.052-2.663-2.553a11.587 11.587 0 0 0-1-.758c-.23-.157-.489-.327-.8-.531-2.827-1.838-8.449-1.737-8.635-1.732h-.018c-1.536-1.947-1.428-8.367-1.34-9.708a6.928 6.928 0 0 0-1.294.687 28.225 28.225 0 0 0-3.788 3.245A33.845 33.845 0 0 0 7.571 21.2v.006-.007a32.733 32.733 0 0 0-5.2 11.743c-.019.079-1.396 6.099-.717 9.221z" fill="url(#j)"/>
  <path fill="#ff4aa2" d="M40.125 33.793h-.001.001z"/>
  <path d="M53.725 26.869a21.1 21.1 0 0 1 3.6 4.7c.213.161.412.321.581.476 8.787 8.1 4.183 19.55 3.84 20.365 7.138-5.881 11.7-14.578 10.329-23.555C67.691 17.925 60.26 13.52 54.191 3.928c-.307-.485-.614-.971-.913-1.484-.171-.293-.308-.557-.427-.8a7.053 7.053 0 0 1-.578-1.535.1.1 0 0 0-.088-.1.138.138 0 0 0-.073 0c-.005 0-.013.009-.019.011s-.019.011-.028.015c-1.499.711-10.388 14.786 1.66 26.834z" fill="url(#k)"/>
  <path d="M57.9 32.04c-.169-.155-.368-.315-.581-.476-.079-.059-.157-.118-.241-.177a13.38 13.38 0 0 0-9.345-2.269c13.94 6.97 10.2 30.972-9.119 30.066a17.235 17.235 0 0 1-5.043-.973q-.569-.213-1.138-.466c-.219-.1-.438-.2-.654-.312l.027.017c2.694 1.839 16 6.332 29.912-5l.022-.05c.347-.81 4.951-12.263-3.84-20.36z" fill="url(#l)"/>
  <path d="M22.654 44.749s1.789-6.667 12.81-6.667c1.191 0 4.6-3.325 4.661-4.289a19.3 19.3 0 0 1-14.552-.572 14.618 14.618 0 0 0-14.249.572 9.953 9.953 0 0 0 9.181 5.775c-.718 6.337 2.632 13.725 10.741 17.6.181.087.351.181.537.264-4.733-2.445-8.641-7.069-9.129-12.683z" fill="url(#m)"/>
  <path fill="#ff4aa2" d="M49.458 38.459l-.001.001.001-.001z"/>
  <path d="M75.916 26.831c-1.684-4.052-5.1-8.427-7.775-9.81a40.266 40.266 0 0 1 3.925 11.764l.007.065C67.691 17.925 60.26 13.52 54.191 3.928c-.307-.485-.614-.971-.913-1.484-.171-.293-.308-.557-.427-.8a7.053 7.053 0 0 1-.578-1.535.1.1 0 0 0-.088-.1.138.138 0 0 0-.073 0c-.005 0-.013.009-.019.011s-.019.011-.028.015l.015-.026c-9.735 5.7-13.038 16.252-13.342 21.53.452-.031.9-.069 1.362-.069a19.56 19.56 0 0 1 16.982 9.917 13.38 13.38 0 0 0-9.345-2.269c13.94 6.97 10.2 30.972-9.119 30.066a17.235 17.235 0 0 1-5.043-.973q-.569-.213-1.138-.466c-.219-.1-.438-.2-.654-.312l.027.017q-.282-.135-.564-.281c.181.087.351.181.537.264-4.733-2.446-8.641-7.07-9.129-12.684 0 0 1.789-6.667 12.81-6.667 1.191 0 4.6-3.325 4.661-4.289-.015-.315-6.76-3-9.39-5.59-1.405-1.385-2.072-2.052-2.663-2.553a11.587 11.587 0 0 0-1-.758 17.968 17.968 0 0 1-.109-9.473 28.705 28.705 0 0 0-9.329 7.21h-.018c-1.536-1.947-1.428-8.367-1.34-9.708a6.928 6.928 0 0 0-1.294.687 28.225 28.225 0 0 0-3.788 3.245A33.845 33.845 0 0 0 7.571 21.2v.006-.007a32.733 32.733 0 0 0-5.2 11.743l-.052.256c-.073.341-.4 2.073-.447 2.445 0 .028 0-.029 0 0a45.094 45.094 0 0 0-.572 5.403v.2A38.759 38.759 0 0 0 78.254 47.8c.065-.5.118-.995.176-1.5a39.857 39.857 0 0 0-2.514-19.469zm-3.845 1.991l.007.041z" fill="url(#n)"/>
  <path d="M96.972 23.986H118.4v5.8h-15.28v7.859h15.28v5.752h-15.28v12.642h-6.148zm28.716-2.239a3.447 3.447 0 0 1 3.557 3.6 3.579 3.579 0 0 1-7.157.088 3.555 3.555 0 0 1 3.6-3.688zm-3.03 10.581h6.06v23.711h-6.06zm23.623 6.587a4.894 4.894 0 0 0-2.942-1.054c-2.459 0-3.864 1.581-3.864 5.049v13.129h-6.015V32.328h5.752v3.425a5.649 5.649 0 0 1 5.664-3.644 7.191 7.191 0 0 1 4.04 1.229zm2.5 5.4a12.13 12.13 0 0 1 12.206-12.47c7.113 0 12.163 5.05 12.163 12.075v2.5h-18.439c.659 2.986 2.986 4.962 6.543 4.962a6.357 6.357 0 0 0 5.884-3.513l5.049 3.03c-2.5 3.688-6.059 5.62-11.109 5.62-7.684.003-12.294-5.134-12.294-12.204zm6.015-2.678h12.47c-.658-3.03-3.117-4.7-6.323-4.7a6.09 6.09 0 0 0-6.143 4.7zm19.847-9.309h4.259v-1.185c0-6.455 2.722-9.133 8.694-9.133h2.107v5.225h-1.712c-2.81 0-3.425.966-3.425 3.908v1.185h5.137v5.445h-5v18.266h-5.8V37.773h-4.259zm16.2 11.856a12.14 12.14 0 0 1 12.387-12.339 12.339 12.339 0 1 1 0 24.677 11.96 11.96 0 0 1-12.382-12.338zm18.88 0a6.5 6.5 0 1 0-13 0 6.5 6.5 0 1 0 13 0zm14.051-.264l-8.562-11.592h7.113l5.05 7.289 5.181-7.289h6.981l-8.694 11.548 9.133 12.163h-7.069l-5.664-7.728-5.489 7.728h-7.064z" fill="context-fill #20123a"/>
  <path d="M275.015 39.484a7.41 7.41 0 0 0 4.266-6.948c0-5.189-3.958-8.532-9.939-8.532h-13.721v32.1h14.161c6.068 0 10.158-3.43 10.158-9.059a7.711 7.711 0 0 0-4.925-7.561zm-15.744-12.137H269.3c3.913 0 6.332 2.111 6.332 5.189s-2.11 5.365-6.024 5.365h-10.337zm10.467 25.374h-10.467V41.287h10.291c4.4 0 6.685 2.331 6.685 5.717 0 3.342-2.547 5.717-6.509 5.717zm18.032-15.876V32.36h-3.47v23.747h3.563V43.09c0-5.233 2.286-7.52 6.244-7.52a5.2 5.2 0 0 1 2.9.748l1.5-3.43a7.758 7.758 0 0 0-3.958-.88 6.576 6.576 0 0 0-6.779 4.837zm23.22-4.969a12.357 12.357 0 1 0 12.357 12.358 12.193 12.193 0 0 0-12.357-12.358zm0 21.285a8.607 8.607 0 0 1-8.663-8.927 8.69 8.69 0 1 1 17.371 0 8.642 8.642 0 0 1-8.708 8.927zm41.3-2.112l-7.084-18.689h-3.342l-7.256 18.821-5.981-18.821h-3.782l7.784 23.747h3.518l7.3-18.821 7.3 18.821H354l8.224-23.747h-3.738zm22.649-8.663c-3.694-.747-6.553-1.231-6.553-3.693 0-2.2 1.5-3.782 5.146-3.782a7.666 7.666 0 0 1 6.509 3.166l2.99-2.023a11.479 11.479 0 0 0-9.5-4.221c-5.629-.044-8.839 3.209-8.839 6.9 0 4.749 4.353 5.848 8.443 6.639 3.474.705 6.728 1.232 6.728 3.871 0 2.375-1.935 4.133-5.629 4.133a8.771 8.771 0 0 1-7.651-3.87l-3.123 2.112c2.111 3.034 5.5 4.968 10.686 4.968 6.2.044 9.367-3.649 9.367-7.387-.002-4.877-4.487-6.021-8.577-6.813zm23.925-10.51a12.18 12.18 0 0 0-12.4 12.446c0 6.948 4.925 12.268 12.533 12.268a12.2 12.2 0 0 0 11.038-6.024l-3.078-1.8a8.489 8.489 0 0 1-7.96 4.573c-5.013 0-8.488-3.21-9.015-7.739h20.977v-1.631a11.714 11.714 0 0 0-12.098-12.093zm-8.8 10.554a8.821 8.821 0 0 1 8.8-7.344 8 8 0 0 1 8.4 7.344zm35.447-10.422a6.575 6.575 0 0 0-6.772 4.837V32.36h-3.475v23.747h3.563V43.09c0-5.233 2.286-7.52 6.244-7.52a5.2 5.2 0 0 1 2.9.748l1.5-3.43a7.754 7.754 0 0 0-3.958-.88z" fill="context-fill #20123a"/>
  <path d="M107.313 74.816l-7.026-10.6h-3.315v15.57h3.008V68.843l7.245 10.943h3.075V64.213h-2.986zm6.518 4.97h3.14V64.213h-3.14zm14.007-6.058h5.094a4.376 4.376 0 0 1-4.567 3.37 5.011 5.011 0 0 1-5.226-5.1 5.086 5.086 0 0 1 5.182-5.142 4.882 4.882 0 0 1 4.237 2.155l2.613-1.771a8.279 8.279 0 0 0-6.85-3.24 8.006 8.006 0 1 0 .088 16 7.621 7.621 0 0 0 7.86-7.787v-1.3h-8.431zm20.962-3.243h-6.478v-6.272h-3.117v15.573h3.117v-6.357h6.478v6.357h3.1V64.213h-3.1zm6.035-3.5h4.465v12.8h3.052v-12.8h4.412v-2.772h-11.926zm17.979-2.773H169.7v15.574h10.516v-2.922h-7.4zm16.774 0l-3.62 6.188-3.623-6.187h-3.4l5.445 9v6.57h3.11V73.28l5.468-9.067z" class="channel-name" />
</svg>
