<?xml version="1.0" encoding="utf-8"?>
<!-- Generator: Adobe Illustrator 19.2.1, SVG Export Plug-In . SVG Version: 6.00 Build 0)  -->
<svg version="1.1" id="Layer_1" xmlns="http://www.w3.org/2000/svg" xmlns:xlink="http://www.w3.org/1999/xlink" x="0px" y="0px"
	 width="16px" height="16px" viewBox="0 0 16 16" style="enable-background:new 0 0 16 16;" xml:space="preserve">
<style type="text/css">
	.st0{fill:#F5F5F5;}
</style>
<path class="st0" d="M9.1,9.2l4.6-4.6c0.3-0.3,0.3-0.6,0-0.9c-0.3-0.3-0.6-0.3-0.9,0L8.2,8.3L3.6,3.7C3.4,3.5,3,3.5,2.7,3.7
	s-0.3,0.6,0,0.9l4.6,4.6l-4.6,4.6c-0.3,0.3-0.3,0.6,0,0.9s0.6,0.3,0.9,0l4.6-4.6l4.6,4.6c0.3,0.3,0.6,0.3,0.9,0
	c0.3-0.3,0.3-0.6,0-0.9L9.1,9.2z"/>
</svg>
