<?xml version="1.0" encoding="utf-8"?>
<!-- Generator: Adobe Illustrator 19.2.1, SVG Export Plug-In . SVG Version: 6.00 Build 0)  -->
<svg version="1.1" id="Layer_1" xmlns="http://www.w3.org/2000/svg" xmlns:xlink="http://www.w3.org/1999/xlink" x="0px" y="0px"
	 width="16px" height="16px" viewBox="0 0 16 16" style="enable-background:new 0 0 16 16;" xml:space="preserve">
<style type="text/css">
	.st0{fill:#BABEC3;}
</style>
<path class="st0" d="M3.8,13.4c-1.2,0-3.4-0.6-3.7-2.8s1.3-3.3,2.1-3.5C2.4,7,2.6,7.2,2.7,7.4c0.1,0.2-0.1,0.4-0.3,0.5
	c-0.1,0-1.8,0.6-1.6,2.7c0.2,1.5,1.6,1.9,2.4,2l-0.7-2.4c0-0.2,0.2-0.5,0.4-0.5c0.2-0.1,0.4,0,0.5,0.2l0.9,3c0,0.1,0,0.3-0.1,0.4
	C4.1,13.4,4,13.4,3.8,13.4z"/>
<path class="st0" d="M12.3,1.7c1.2,0,3.4,0.6,3.7,2.8c0.3,2.2-1.3,3.3-2.1,3.5c-0.2,0.1-0.4-0.1-0.5-0.3s0.1-0.4,0.3-0.5
	c0.1,0,1.8-0.6,1.6-2.7c-0.2-1.5-1.6-1.9-2.4-2l0.7,2.4c0.1,0.2-0.1,0.4-0.3,0.5s-0.4-0.1-0.5-0.3l-0.9-3c0-0.1,0-0.3,0.1-0.4
	C12,1.7,12.3,1.7,12.3,1.7z"/>
<path class="st0" d="M9.6,2.5L4.3,4.1C4.1,4.2,3.9,4.5,4,4.9l2.5,8c0.1,0.3,0.4,0.6,0.8,0.5l5.2-1.6c0.3-0.1,0.6-0.5,0.4-0.8l-2.5-8
	C10.4,2.9,9.7,2.4,9.6,2.5z M12.1,11.1l-5,1.5l-0.6-1.9l5-1.5L12.1,11.1z M11.3,8.5l-5,1.5L4.7,4.7l5-1.5L11.3,8.5z"/>
</svg>
