<!-- This Source Code Form is subject to the terms of the Mozilla Public
   - License, v. 2.0. If a copy of the MPL was not distributed with this
   - file, You can obtain one at http://mozilla.org/MPL/2.0/. -->
<svg xmlns="http://www.w3.org/2000/svg" width="16" height="16" viewBox="0 0 16 16" fill="#0b0b0b">
  <path d="M14.4,4.1h-3l0-1.3c0-0.9-1.2-1.6-2.1-1.6H6.6c-0.9,0-1.9,0.7-1.9,1.6l0,1.3h-3c-0.9,0-1.6,0.7-1.6,1.6v7.4c0,0.9,0.7,1.3,1.6,1.3h12.7c0.9,0,1.6-0.3,1.6-1.3V5.7C16,4.8,15.3,4.1,14.4,4.1z M14.8,13.2H1.2v-8h4.5l0-3h4.5l0,3h4.4L14.8,13.2z"/>
  <path d="M8,6.7c-1.3,0-2.4,1.1-2.4,2.4s1.1,2.4,2.4,2.4s2.4-1.1,2.4-2.4S9.3,6.7,8,6.7z M8,10.2c-0.7,0-1.2-0.5-1.2-1.1S7.3,8,8,8s1.2,0.5,1.2,1.1S8.7,10.2,8,10.2z"/>
</svg>
