<?xml version="1.0" encoding="utf-8"?>
<!-- Generator: Adobe Illustrator 19.2.1, SVG Export Plug-In . SVG Version: 6.00 Build 0)  -->
<svg version="1.1" id="Layer_1" xmlns="http://www.w3.org/2000/svg" xmlns:xlink="http://www.w3.org/1999/xlink" x="0px" y="0px"
	 width="16px" height="16px" viewBox="0 0 16 16" style="enable-background:new 0 0 16 16;" xml:space="preserve">
<style type="text/css">
	.st0{fill:#F5F5F5;}
</style>
<path class="st0" d="M14.4,4.1h-3l0-1.3c0-0.9-1.2-1.6-2.1-1.6H6.6c-0.9,0-1.9,0.7-1.9,1.6l0,1.3h-3c-0.9,0-1.6,0.7-1.6,1.6v7.4
	c0,0.9,0.7,1.3,1.6,1.3h12.7c0.9,0,1.6-0.3,1.6-1.3V5.7C16,4.8,15.3,4.1,14.4,4.1z M14.8,13.2H1.2v-8h4.5l0-3h4.5l0,3h4.4L14.8,13.2
	z"/>
<path class="st0" d="M8,6.7c-1.3,0-2.4,1.1-2.4,2.4s1.1,2.4,2.4,2.4s2.4-1.1,2.4-2.4S9.3,6.7,8,6.7z M8,10.2c-0.7,0-1.2-0.5-1.2-1.1
	S7.3,8,8,8s1.2,0.5,1.2,1.1S8.7,10.2,8,10.2z"/>
</svg>
