<!-- This Source Code Form is subject to the terms of the Mozilla Public
   - License, v. 2.0. If a copy of the MPL was not distributed with this
   - file, You can obtain one at http://mozilla.org/MPL/2.0/. -->
<svg xmlns="http://www.w3.org/2000/svg" width="16" height="16" viewBox="0 0 16 16">
  <path fill="context-fill" d="M3.174 6.222A3.99 3.99 0 0 1 2.5 4a4 4 0 1 1 7.326 2.222l-.83-.556A2.99 2.99 0 0 0 9.5 4a3 3 0 1 0-5.495 1.666l-.831.556zM5 9.4V3.5a1.5 1.5 0 1 1 3 0v3.085a1.499 1.499 0 0 1 1.764.607 1.499 1.499 0 0 1 2 .5A1.5 1.5 0 0 1 14 9h-.004c0 .155-.023.313-.074.468l-1.791 5.494A1.5 1.5 0 0 1 10.739 16V16H6.695a2.5 2.5 0 0 1-2.202-1.315L1.975 10.01a1.5 1.5 0 0 1 .443-1.927l.04-.029c.04-.029.04-.029.083-.056a1.36 1.36 0 0 1 1.87.446L5 9.4zm6.18 5.253L12.97 9.16a.5.5 0 0 0-.847-.488A.498.498 0 0 0 12 9a.5.5 0 1 1-1 0v-.5a.5.5 0 1 0-1 0 .5.5 0 1 1-1 0V8a.5.5 0 1 0-1 0 .5.5 0 0 1-1 0V3.5a.5.5 0 0 0-1 0v7.667c0 .504-.662.691-.926.262L3.56 8.967a.36.36 0 0 0-.494-.118l-.007.004-.008.006-.007.005-.04.028a.5.5 0 0 0-.147.643l2.518 4.676a1.5 1.5 0 0 0 1.32.789h4.013v-.001a.5.5 0 0 0 .473-.346z"/>
</svg>
