<!-- This Source Code Form is subject to the terms of the Mozilla Public
   - License, v. 2.0. If a copy of the MPL was not distributed with this
   - file, You can obtain one at http://mozilla.org/MPL/2.0/. -->
<svg xmlns="http://www.w3.org/2000/svg" viewBox="0 0 16 16">
  <style type="text/css">
    .st0{fill:#F5F5F5;}
  </style>
  <path class="st0" d="M12.5 5.3c-.2 0-.4 0-.6.1-.2-.6-.8-1-1.4-1-.3 0-.5.1-.8.2C9.4 4.2 9 4 8.6 4h-.4V1.5C8.2.7 7.5 0 6.7 0S5.2.7 5.2 1.5v6.6l-.7-.6c-.6-.6-1.6-.6-2.2 0-.5.6-.5 1.4-.1 2.1.3.4.6 1.1 1 1.8C4.2 13.6 5.3 16 7 16h3.9s3.1-1 3.1-4V6.7c.1-.8-.7-1.4-1.5-1.4zm.6 6.7c0 2-2.1 3-2.4 3H7c-1 0-2.1-2.4-2.9-4-.3-.8-.7-1.6-1-2-.2-.3-.2-.5-.1-.7.1-.1.2-.1.3-.1.1 0 .2 0 .3.1l1.5 1.5c.3.2.6.2.7.1.1 0 .4-.2.4-.5V1.5c0-.2.2-.4.5-.4s.5.2.5.4v5.3c0 .3.2.5.5.5s.5-.2.5-.5V5.5c0-.4.2-.5.5-.5.2 0 .5.2.5.4v2c-.1.3.2.6.4.6.3 0 .5-.2.5-.5V5.8c0-.2.2-.4.5-.4s.5.2.5.4v2.3c0 .3.2.5.5.5s.5-.2.5-.5V6.7c0-.2.2-.4.5-.4s.5.2.5.4V12z"/>
</svg>
