<!-- This Source Code Form is subject to the terms of the Mozilla Public
   - License, v. 2.0. If a copy of the MPL was not distributed with this
   - file, You can obtain one at http://mozilla.org/MPL/2.0/. -->
<svg xmlns="http://www.w3.org/2000/svg" width="32" height="32" viewBox="0 0 32 32">
<style>
  g:not(:target) {
    display: none;
  }
</style>
<symbol id="icon">
  <path  d="M30.3,8.1h-4.5V8c0.7-0.7,1.3-1.9,1.3-3.2c0-2.6-2.1-4.7-4.9-4.7c-1.5,0-4.5,1.5-6.4,3.4C14,1.6,11,0.1,9.5,0.1  c-2.6,0-4.9,2.1-4.9,4.7C4.7,6.1,5.2,7.2,6,8H1.7C0.6,8,0,8.7,0,9.6v4.5c0,0.2,0.2,0.4,0.4,0.4h13.8V9.6h3.2v4.9h14.2  c0.2,0,0.4-0.2,0.4-0.4V9.6C32,8.7,31.4,8.1,30.3,8.1z M9.5,6.5C8.6,6.5,8,5.9,8,4.8s0.6-1.5,1.5-1.5s3.7,1.9,4.7,2.8  C13.7,6.3,9.5,6.5,9.5,6.5z M22.3,6.5c0,0-4.1-0.2-4.7-0.4c0.9-1.1,3.7-2.8,4.7-2.8S24,3.8,24,4.8S23.2,6.5,22.3,6.5z M1.7,17.7  h12.7v14.2H1.7V17.7z M17.6,17.7h12.7v14.2H17.6V17.7z"/>
</symbol>
<g id="blue" fill="#37adff"><use href="#icon"/></g><g id="turquoise" fill="#00c79a"><use href="#icon"/></g><g id="green" fill="#51cd00"><use href="#icon"/></g><g id="yellow" fill="#ffcb00"><use href="#icon"/></g><g id="orange" fill="#ff9f00"><use href="#icon"/></g><g id="red" fill="#ff613d"><use href="#icon"/></g><g id="pink" fill="#ff4bda"><use href="#icon"/></g><g id="purple" fill="#af51f5"><use href="#icon"/></g><g id="toolbar-dark" fill="#F9F9FA"><use href="#icon"/></g><g id="toolbar-light" fill="#0C0C0D"><use href="#icon"/></g>
</svg>
