<?xml version="1.0" encoding="UTF-8" standalone="no"?>
<!DOCTYPE svg PUBLIC "-//W3C//DTD SVG 1.1//EN" "http://www.w3.org/Graphics/SVG/1.1/DTD/svg11.dtd">
<!-- Created with Vectornator (http://vectornator.io/) -->
<svg height="100%" stroke-miterlimit="10" style="fill-rule:nonzero;clip-rule:evenodd;stroke-linecap:round;stroke-linejoin:round;" version="1.1" viewBox="0 0 3250 490" width="100%" xml:space="preserve" xmlns="http://www.w3.org/2000/svg" xmlns:xlink="http://www.w3.org/1999/xlink">
<defs/>
<g id="黒文字">
<g opacity="1">
<path d="M11.63 71.8808L11.63 418.118L72.9896 418.118L72.9896 71.8808L11.63 71.8808Z" fill="#000000" fill-rule="nonzero" opacity="1" stroke="none"/>
<path d="M300.66 71.8808L300.66 418.115L362.019 418.115L362.019 71.8808L300.66 71.8808Z" fill="#000000" fill-rule="nonzero" opacity="1" stroke="none"/>
<path d="M1113.76 163.458L1113.76 478.961L1175.12 478.961L1175.12 163.458L1113.76 163.458Z" fill="#000000" fill-rule="nonzero" opacity="1" stroke="none"/>
<path d="M911.773 163.458L911.773 418.115L973.133 418.115L973.133 163.458L911.773 163.458Z" fill="#000000" fill-rule="nonzero" opacity="1" stroke="none"/>
<path d="M11.63 71.8808L11.63 133.24L258.751 133.24L258.751 71.8808L11.63 71.8808Z" fill="#000000" fill-rule="nonzero" opacity="1" stroke="none"/>
<path d="M16.7433 224.427L16.7433 275.56L238.639 275.56L238.639 224.427L16.7433 224.427Z" fill="#000000" fill-rule="nonzero" opacity="1" stroke="none"/>
<path d="M756.68 163.387C713.971 161.646 677.849 182.601 636.624 243.389C594.274 181.406 554.562 159.136 511.561 164.346C434.392 173.696 387.402 252.79 408.656 327.545C416.757 356.036 432.805 380.003 457.552 397.427C474.285 409.207 496.638 417.481 512.946 418.199C556.536 420.119 595.775 397.319 636.518 338.943C678.62 399.213 719.009 422.198 761.474 417.986C796.628 414.5 823.032 396.345 844.139 369.623C861.774 347.297 870.531 315.56 869.918 286.852C869.714 277.283 868.391 268.021 866.084 259.581C859.966 237.201 854.012 224.084 839.345 206.211C818.475 180.779 788.649 164.691 756.68 163.387ZM754.656 214.414C771.398 215.096 787.844 223.998 799.824 238.595C809.297 250.139 812.384 257.093 816.761 273.11C821.873 291.809 816.978 321.42 803.978 337.878C790.672 354.724 775.422 365.176 756.361 367.067C745.438 368.15 735.176 365.678 722.272 356.84C705.44 345.312 686.812 323.653 666.665 291.326C687.389 257.433 705.746 235.444 721.846 224.214C733.551 216.049 742.273 213.909 754.656 214.414ZM517.74 215.159C528.75 213.825 538.253 215.854 550.55 224.214C567.183 235.522 585.896 257.693 606.477 291.433C586.96 322.889 568.817 344.022 552.148 355.562C538.944 364.703 527.9 367.626 515.183 367.067C509.127 366.8 496.032 362.059 486.954 355.668C472.221 345.296 462.896 331.26 457.872 313.59C444.892 267.939 473.033 220.576 517.74 215.159Z" fill="#000000" fill-rule="nonzero" opacity="1" stroke="none"/>
<path d="M1073.92 156.996L1055.43 157.593C997.532 159.33 941.719 233.476 939.469 261.395C939.469 261.395 912.997 289.765 912.423 294.735C912.052 297.94 911.844 300.501 911.784 302.192L973.143 304.322C973.133 296.347 972.01 255.715 999.609 236.189C1031.88 213.355 1074.34 218.355 1074.34 218.355L1073.92 156.996Z" fill="#000000" fill-rule="nonzero" opacity="1" stroke="none"/>
<path d="M1259.59 158.274C1182.71 160.266 1140.75 232.854 1141.14 289.195C1141.5 341.786 1184.81 421.692 1259.59 420.117C1324.34 418.753 1378.37 362.212 1378.37 289.195C1378.37 216.179 1324.33 156.597 1259.59 158.274ZM1249.9 212.177C1290.75 212.177 1324.79 246.063 1324.79 288.876C1324.79 331.688 1290.75 365.682 1249.9 365.682C1209.05 365.682 1175.12 331.689 1175.12 288.876C1175.12 246.063 1209.05 212.176 1249.9 212.177Z" fill="#000000" fill-rule="nonzero" opacity="1" stroke="none"/>
</g>
<g opacity="1">
<path d="M1694.45 246.296C1706.44 248.189 1717.4 253.078 1727.34 260.965C1737.27 268.851 1745.16 278.63 1751 290.302C1756.83 301.974 1759.75 314.435 1759.75 327.684C1759.75 344.403 1755.49 359.466 1746.97 372.873C1738.46 386.28 1726.08 396.847 1709.83 404.576C1693.58 412.305 1674.42 416.169 1652.34 416.169L1529.31 416.169L1529.31 86.36L1647.61 86.36C1670 86.36 1689.09 90.0666 1704.86 97.4798C1720.63 104.893 1732.46 114.909 1740.35 127.527C1748.24 140.145 1752.18 154.341 1752.18 170.114C1752.18 189.672 1746.9 205.839 1736.33 218.615C1725.76 231.391 1711.8 240.618 1694.45 246.296ZM1572.37 228.788L1644.77 228.788C1664.96 228.788 1680.57 224.056 1691.61 214.593C1702.65 205.129 1708.17 192.038 1708.17 175.319C1708.17 158.599 1702.65 145.508 1691.61 136.044C1680.57 126.581 1664.64 121.849 1643.82 121.849L1572.37 121.849L1572.37 228.788ZM1648.55 380.68C1670 380.68 1686.72 375.633 1698.71 365.538C1710.7 355.444 1716.69 341.406 1716.69 323.425C1716.69 305.129 1710.38 290.697 1697.76 280.129C1685.15 269.561 1668.27 264.277 1647.13 264.277L1572.37 264.277L1572.37 380.68L1648.55 380.68Z" fill="#000000" fill-rule="nonzero" opacity="1" stroke="none"/>
<path d="M1842.72 198.978C1850.29 184.151 1861.09 172.637 1875.13 164.435C1889.17 156.233 1906.28 152.133 1926.47 152.133L1926.47 196.612L1915.11 196.612C1866.85 196.612 1842.72 222.795 1842.72 275.16L1842.72 416.169L1799.66 416.169L1799.66 156.864L1842.72 156.864L1842.72 198.978Z" fill="#000000" fill-rule="nonzero" opacity="1" stroke="none"/>
<path d="M2069.53 420.428C2045.24 420.428 2023.23 414.907 2003.52 403.866C1983.8 392.825 1968.35 377.131 1957.15 356.785C1945.95 336.438 1940.35 312.857 1940.35 286.044C1940.35 259.545 1946.11 236.123 1957.62 215.776C1969.13 195.429 1984.83 179.814 2004.7 168.931C2024.58 158.047 2046.82 152.606 2071.42 152.606C2096.03 152.606 2118.27 158.047 2138.14 168.931C2158.01 179.814 2173.71 195.35 2185.22 215.539C2196.74 235.728 2202.49 259.23 2202.49 286.044C2202.49 312.857 2196.58 336.438 2184.75 356.785C2172.92 377.131 2156.91 392.825 2136.72 403.866C2116.53 414.907 2094.13 420.428 2069.53 420.428ZM2069.53 382.573C2084.99 382.573 2099.5 378.945 2113.06 371.69C2126.63 364.434 2137.59 353.551 2145.95 339.04C2154.31 324.529 2158.49 306.864 2158.49 286.044C2158.49 265.223 2154.39 247.558 2146.18 233.047C2137.98 218.536 2127.26 207.732 2114.01 200.634C2100.76 193.536 2086.41 189.987 2070.95 189.987C2055.17 189.987 2040.74 193.536 2027.65 200.634C2014.56 207.732 2004.07 218.536 1996.18 233.047C1988.3 247.558 1984.36 265.223 1984.36 286.044C1984.36 307.179 1988.22 325.002 1995.95 339.513C2003.68 354.024 2014.01 364.829 2026.94 371.926C2039.88 379.024 2054.07 382.573 2069.53 382.573Z" fill="#000000" fill-rule="nonzero" opacity="1" stroke="none"/>
<path d="M2584.98 156.864L2504.07 416.169L2459.59 416.169L2397.13 210.334L2334.67 416.169L2290.19 416.169L2208.8 156.864L2252.81 156.864L2312.43 374.529L2376.78 156.864L2420.79 156.864L2483.72 375.002L2542.4 156.864L2584.98 156.864Z" fill="#000000" fill-rule="nonzero" opacity="1" stroke="none"/>
<path d="M2699.65 420.428C2679.78 420.428 2661.95 417.037 2646.18 410.254C2630.41 403.472 2617.95 394.008 2608.8 381.863C2599.65 369.718 2594.6 355.759 2593.66 339.987L2638.14 339.987C2639.4 352.92 2645.47 363.488 2656.36 371.69C2667.24 379.892 2681.51 383.993 2699.18 383.993C2715.58 383.993 2728.52 380.365 2737.98 373.109C2747.44 365.854 2752.17 356.706 2752.17 345.665C2752.17 334.308 2747.13 325.87 2737.03 320.349C2726.94 314.829 2711.32 309.387 2690.19 304.025C2670.94 298.977 2655.25 293.851 2643.11 288.646C2630.96 283.441 2620.55 275.712 2611.88 265.46C2603.2 255.208 2598.86 241.722 2598.86 225.003C2598.86 211.754 2602.81 199.609 2610.69 188.568C2618.58 177.527 2629.78 168.773 2644.29 162.306C2658.8 155.839 2675.36 152.606 2693.97 152.606C2722.68 152.606 2745.87 159.861 2763.53 174.372C2781.2 188.883 2790.66 208.757 2791.92 233.993L2748.86 233.993C2747.92 220.429 2742.47 209.546 2732.54 201.344C2722.6 193.142 2709.27 189.041 2692.55 189.041C2677.1 189.041 2664.79 192.353 2655.65 198.978C2646.5 205.602 2641.92 214.277 2641.92 225.003C2641.92 233.52 2644.68 240.539 2650.2 246.06C2655.72 251.58 2662.66 255.996 2671.02 259.309C2679.38 262.621 2690.98 266.328 2705.8 270.429C2724.41 275.476 2739.56 280.444 2751.23 285.334C2762.9 290.223 2772.92 297.558 2781.28 307.337C2789.64 317.116 2793.97 329.892 2794.29 345.665C2794.29 359.86 2790.35 372.636 2782.46 383.993C2774.57 395.349 2763.45 404.261 2749.1 410.728C2734.75 417.194 2718.26 420.428 2699.65 420.428Z" fill="#000000" fill-rule="nonzero" opacity="1" stroke="none"/>
<path d="M3071.73 276.58C3071.73 284.782 3071.26 293.457 3070.31 302.605L2863.06 302.605C2864.63 328.157 2873.39 348.11 2889.32 362.463C2905.25 376.816 2924.57 383.993 2947.28 383.993C2965.9 383.993 2981.43 379.655 2993.89 370.98C3006.35 362.305 3015.11 350.712 3020.15 336.201L3066.53 336.201C3059.59 361.122 3045.71 381.39 3024.89 397.005C3004.07 412.62 2978.2 420.428 2947.28 420.428C2922.68 420.428 2900.68 414.907 2881.28 403.866C2861.87 392.825 2846.65 377.131 2835.61 356.785C2824.57 336.438 2819.05 312.857 2819.05 286.044C2819.05 259.23 2824.41 235.728 2835.14 215.539C2845.87 195.35 2860.93 179.814 2880.33 168.931C2899.73 158.047 2922.05 152.606 2947.28 152.606C2971.89 152.606 2993.66 157.968 3012.58 168.694C3031.51 179.419 3046.1 194.167 3056.35 212.937C3066.61 231.706 3071.73 252.921 3071.73 276.58ZM3027.25 267.589C3027.25 251.186 3023.62 237.069 3016.37 225.239C3009.11 213.41 2999.26 204.419 2986.8 198.268C2974.33 192.117 2960.53 189.041 2945.39 189.041C2923.63 189.041 2905.09 195.981 2889.79 209.861C2874.49 223.741 2865.74 242.984 2863.53 267.589L3027.25 267.589Z" fill="#000000" fill-rule="nonzero" opacity="1" stroke="none"/>
<path d="M3151.86 198.978C3159.43 184.151 3170.23 172.637 3184.27 164.435C3198.31 156.233 3215.42 152.133 3235.61 152.133L3235.61 196.612L3224.25 196.612C3175.99 196.612 3151.86 222.795 3151.86 275.16L3151.86 416.169L3108.8 416.169L3108.8 156.864L3151.86 156.864L3151.86 198.978Z" fill="#000000" fill-rule="nonzero" opacity="1" stroke="none"/>
</g>
</g>
</svg>
