<?xml version="1.0" encoding="UTF-8" standalone="no"?>
<!DOCTYPE svg PUBLIC "-//W3C//DTD SVG 1.1//EN" "http://www.w3.org/Graphics/SVG/1.1/DTD/svg11.dtd">
<!-- Created with Vectornator (http://vectornator.io/) -->
<svg height="100%" stroke-miterlimit="10" style="fill-rule:nonzero;clip-rule:evenodd;stroke-linecap:round;stroke-linejoin:round;" version="1.1" viewBox="0 0 1390 490" width="100%" xml:space="preserve" xmlns="http://www.w3.org/2000/svg" xmlns:xlink="http://www.w3.org/1999/xlink">
<defs/>
<g id="レイヤー-1">
<path d="M11.625 71.875L11.625 418.125L73 418.125L73 275.562L238.625 275.562L238.625 224.438L73 224.438L73 133.25L258.75 133.25L258.75 71.875L11.625 71.875ZM300.656 71.875L300.656 418.125L362.031 418.125L362.031 71.875L300.656 71.875ZM1073.91 157L1055.44 157.594C1024.86 158.511 994.956 179.667 973.125 203.5L973.125 163.469L911.781 163.469L911.781 418.125L973.125 418.125L973.125 304.312L973.156 304.312C973.145 296.336 971.995 255.713 999.594 236.188C1031.87 213.353 1074.34 218.344 1074.34 218.344L1073.91 157ZM1259.59 158.281C1223.41 159.219 1195.06 175.873 1175.12 199.031L1175.12 163.469L1113.75 163.469L1113.75 478.969L1175.12 478.969L1175.12 378.156C1195.24 402.842 1223.77 420.88 1259.59 420.125C1324.34 418.761 1378.38 362.204 1378.38 289.188C1378.38 216.17 1324.33 156.604 1259.59 158.281ZM748.75 163.344C709.439 164.433 675.274 186.386 636.625 243.375C594.275 181.392 554.563 159.134 511.562 164.344C434.392 173.694 387.401 252.775 408.656 327.531C416.756 356.022 432.814 380.015 457.562 397.438C474.295 409.218 496.628 417.47 512.938 418.188C556.527 420.108 595.788 397.314 636.531 338.938C678.633 399.208 719.004 422.212 761.469 418C796.623 414.513 823.018 396.347 844.125 369.625C861.759 347.299 870.518 315.552 869.906 286.844C869.702 277.275 868.401 268.035 866.094 259.594C859.977 237.214 854.011 224.092 839.344 206.219C818.473 180.787 788.656 164.678 756.688 163.375C754.018 163.266 751.371 163.271 748.75 163.344ZM1249.91 212.188C1290.76 212.188 1324.78 246.063 1324.78 288.875C1324.78 331.688 1290.76 365.688 1249.91 365.688C1209.06 365.688 1175.13 331.688 1175.12 288.875C1175.12 246.063 1209.06 212.188 1249.91 212.188ZM754.656 214.406C771.397 215.089 787.834 223.996 799.812 238.594C809.287 250.137 812.372 257.109 816.75 273.125C821.861 291.825 816.968 321.417 803.969 337.875C790.663 354.721 775.406 365.172 756.344 367.062C745.422 368.147 735.185 365.682 722.281 356.844C705.449 345.316 686.803 323.64 666.656 291.312C687.38 257.419 705.744 235.45 721.844 224.219C733.549 216.054 742.273 213.901 754.656 214.406ZM525.781 214.844C533.675 215.243 541.339 217.949 550.562 224.219C567.195 235.527 585.888 257.699 606.469 291.438C586.952 322.893 568.825 344.022 552.156 355.562C538.952 364.705 527.903 367.623 515.188 367.062C509.13 366.796 496.015 362.047 486.938 355.656C472.205 345.284 462.899 331.264 457.875 313.594C444.895 267.942 473.043 220.573 517.75 215.156C520.502 214.823 523.15 214.711 525.781 214.844Z" fill="#ffffff" fill-rule="nonzero" opacity="1" stroke="none"/>
</g>
</svg>
