<svg width="24" height="24" viewBox="0 0 24 24" fill="context-fill" fill-opacity="context-fill-opacity" xmlns="http://www.w3.org/2000/svg">
<path d="M4.872.843h14.256a4.029 4.029 0 014.022 3.801l.007.228v14.256a4.029 4.029 0 01-3.801 4.022l-.228.007H4.872A4.029 4.029 0 01.85 19.356l-.007-.228V4.872A4.029 4.029 0 014.644.85l.228-.007h14.256H4.872zM2.703 15.099v4.029c0 1.138.876 2.072 1.991 2.162l.178.007h14.256a2.169 2.169 0 002.162-1.991l.007-.178v-4.029h-4.741a4.65 4.65 0 01-4.308 3.712l-.248.007a4.651 4.651 0 01-4.502-3.485l-.054-.234H2.703v4.029-4.029zM19.128 2.703H4.872A2.169 2.169 0 002.71 4.694l-.007.178v8.368h5.578c.471 0 .86.349.921.803l.009.126a2.79 2.79 0 005.572.191l.006-.191c0-.47.35-.859.804-.921l.126-.008h5.578V4.872a2.169 2.169 0 00-1.991-2.162l-.178-.007z"/>
</svg>