<!-- This Source Code Form is subject to the terms of the Mozilla Public
   - License, v. 2.0. If a copy of the MPL was not distributed with this
   - file, You can obtain one at http://mozilla.org/MPL/2.0/. -->
<svg xmlns="http://www.w3.org/2000/svg" viewBox="0 0 16 16" width="16" height="16" fill="context-fill" fill-opacity="context-fill-opacity">
  <path d="m8.628 16-1.25 0a1.632 1.632 0 0 1-1.562-1.177l-.406-1.414a5.939 5.939 0 0 1-.78-.466l-1.448.36a1.632 1.632 0 0 1-1.799-.765l-.625-1.082a1.633 1.633 0 0 1 .229-1.931l1.045-1.101A3.279 3.279 0 0 1 2 8c0-.153.014-.302.032-.45L.999 6.479a1.63 1.63 0 0 1-.238-1.94l.625-1.083a1.636 1.636 0 0 1 1.787-.768l1.477.355c.258-.179.51-.329.761-.452l.406-1.414A1.63 1.63 0 0 1 7.378 0l1.25 0c.714 0 1.354.478 1.559 1.163l.425 1.436c.242.121.484.266.739.444l1.478-.355a1.635 1.635 0 0 1 1.786.768l.625 1.083c.36.625.263 1.422-.237 1.941l-1.035 1.07c.018.148.032.297.032.45 0 .145-.014.285-.031.424l1.045 1.101c.492.519.586 1.312.229 1.931l-.625 1.083a1.63 1.63 0 0 1-1.8.764l-1.447-.36c-.259.182-.51.333-.759.458l-.425 1.437A1.638 1.638 0 0 1 8.628 16zm-4.016-4.341.528.109a4.72 4.72 0 0 0 1.032.615l.359.404.485 1.691c.046.16.194.271.36.271l1.25 0a.37.37 0 0 0 .359-.269l.506-1.707.355-.398c.324-.137.645-.33 1.01-.608l.529-.109 1.731.431a.378.378 0 0 0 .416-.176l.625-1.083a.378.378 0 0 0-.053-.446l-1.25-1.317-.167-.505.022-.174c.021-.127.041-.255.041-.388 0-.149-.021-.293-.042-.437l-.021-.15.171-.513 1.244-1.289a.378.378 0 0 0 .055-.448l-.625-1.082a.38.38 0 0 0-.412-.177l-1.758.422-.521-.108a4.7 4.7 0 0 0-.991-.594l-.356-.398-.506-1.707a.373.373 0 0 0-.36-.269l-1.25 0a.377.377 0 0 0-.36.271l-.486 1.691-.36.405a4.71 4.71 0 0 0-1.013.6l-.521.109-1.757-.422a.383.383 0 0 0-.413.177l-.625 1.083a.375.375 0 0 0 .055.447L3.142 6.9l.171.514-.021.15A2.981 2.981 0 0 0 3.25 8c0 .133.02.261.037.389l.022.174-.167.505-1.25 1.317a.38.38 0 0 0-.053.446l.625 1.083a.38.38 0 0 0 .415.176l1.733-.431z"/>
  <path d="M8 6.25c.965 0 1.75.785 1.75 1.75S8.965 9.75 8 9.75 6.25 8.965 6.25 8 7.035 6.25 8 6.25M8 5a3 3 0 1 0 0 6 3 3 0 0 0 0-6z"/>
</svg>
