<svg
   xmlns:dc="http://purl.org/dc/elements/1.1/"
   xmlns:rdf="http://www.w3.org/1999/02/22-rdf-syntax-ns#"
   xmlns:svg="http://www.w3.org/2000/svg"
   xmlns="http://www.w3.org/2000/svg"
   xmlns:xlink="http://www.w3.org/1999/xlink"
   version="1.1"
   id="videoPlayButtonOverlay"
   preserveAspectRatio="xMinYMin meet"
   viewBox="0 0 64 64">
  <defs>
    <linearGradient id="whiteGradientStops">
      <stop id="whiteGradientStop01" style="stop-color:#ffffff;stop-opacity:.95" offset="0" />
      <stop id="whiteGradientStop02" style="stop-color:#ffffff;stop-opacity:.75" offset=".45" />
      <stop id="whiteGradientStop03" style="stop-color:#ffffff;stop-opacity:.72" offset=".55" />
      <stop id="whiteGradientStop04" style="stop-color:#ffffff;stop-opacity:.65" offset="1" />
    </linearGradient>
    <linearGradient
       x1="32"
       y1="0"
       x2="32"
       y2="62"
       id="whiteGradient"
       xlink:href="#whiteGradientStops"
       gradientUnits="userSpaceOnUse" />
    <linearGradient id="arrowGradientStops">
      <stop id="arrowGradientStop01" style="stop-color:#333333;stop-opacity:.5" offset="0" />
      <stop id="arrowGradientStop02" style="stop-color:#666666;stop-opacity:.5" offset="1" />
    </linearGradient>
    <linearGradient
       x1="32"
       y1="16"
       x2="32"
       y2="48"
       id="arrowGradient"
       xlink:href="#arrowGradientStops"
       gradientUnits="userSpaceOnUse" />
    <filter
       x="-0.15"
       y="-0.15"
       width="1.25"
       height="1.25"
       color-interpolation-filters="sRGB"
       id="dropShadow">
      <feGaussianBlur
         result="blur"
         stdDeviation="2"
         in="SourceAlpha"
         id="dropShadowBlur" />
      <feColorMatrix
         values="1 0 0 0  0
                 0 1 0 0  0
                 0 0 1 0  0
                 0 0 0 .5 0"
         type="matrix"
         result="bluralpha"
         id="dropShadowColor" />
      <feOffset
         result="offsetBlur"
         dy="1"
         dx="0"
         in="bluralpha"
         id="dropShadowOffset" />
      <feMerge>
        <feMergeNode
           in="offsetBlur" />
        <feMergeNode
           in="SourceGraphic" />
      </feMerge>
    </filter>
    <mask id="dropShadowMask">
      <path
         d="M47.285,29.991L23.75,16.24c-0.357-0.208-0.692-0.278-0.969-0.221 C22.32,16.114,22,16.555,22,17.251v27.5c0,1.112,0.797,1.568,1.75,1.011l23.535-13.749C48.238,31.458,48.238,30.546,47.285,29.991z M0,0v64h64V0H0z M32,59C16.536,59,4,46.464,4,31S16.536,3,32,3s28,12.536,28,28S47.464,59,32,59z"
         id="dropShadowMaskPath"
         style="fill:#ffffff;fill-opacity:1;stroke:none" />
    </mask>       
  </defs>
  <path 
     d="M32,3C16.536,3,4,15.536,4,31s12.536,28,28,28s28-12.536,28-28S47.464,3,32,3z M47.285,32.013L23.75,45.762C22.797,46.319,22,45.863,22,44.751v-27.5c0-0.697,0.32-1.137,0.781-1.232 c0.277-0.058,0.612,0.012,0.969,0.221l23.535,13.751C48.238,30.546,48.238,31.458,47.285,32.013z"
     mask="url(#dropShadowMask)"
     id="playButtonShadow"
     style="fill:black;fill-opacity:1;stroke:none;filter:url(#dropShadow)" />
  <path
     d="M22.781,16.019C22.32,16.114,22,16.555,22,17.251v27.5c0,1.112,0.797,1.568,1.75,1.011 l23.535-13.749c0.953-0.556,0.953-1.467,0-2.022L23.75,16.24C23.393,16.031,23.058,15.961,22.781,16.019z"
     id="playButtonArrow"
     style="fill:url(#arrowGradient);fill-opacity:1;stroke:none" />
  <path 
     d="M32,3C16.536,3,4,15.536,4,31s12.536,28,28,28s28-12.536,28-28S47.464,3,32,3z M47.285,32.013L23.75,45.762C22.797,46.319,22,45.863,22,44.751v-27.5c0-0.697,0.32-1.137,0.781-1.232 c0.277-0.058,0.612,0.012,0.969,0.221l23.535,13.751C48.238,30.546,48.238,31.458,47.285,32.013z"
     id="playButton"
     style="fill:url(#whiteGradient);fill-opacity:1;stroke:none" />
  <path
     d="M32,3C16.536,3,4,15.536,4,31s12.536,28,28,28s28-12.536,28-28S47.464,3,32,3 z M32,58C17.112,58,5,45.888,5,31S17.112,4,32,4s27,12.112,27,27S46.888,58,32,58z M47.789,29.127l-23.534-13.75 C23.826,15.126,23.396,15,22.976,15c-0.135,0-0.27,0.014-0.398,0.041C21.62,15.238,21,16.106,21,17.251v27.5 C21,46.075,21.812,47,22.977,47c0.423,0,0.854-0.126,1.279-0.375L47.79,32.876c0.769-0.448,1.21-1.131,1.21-1.875 S48.559,29.576,47.789,29.127z M47.285,32.013L23.75,45.762C23.474,45.924,23.211,46,22.977,46C22.402,46,22,45.541,22,44.751v-27.5 c0-0.697,0.32-1.137,0.781-1.232L22.976,16c0.233,0,0.498,0.079,0.775,0.24l23.535,13.751 C48.238,30.546,48.238,31.458,47.285,32.013z"
     id="playButtonEdgeHighlights"
     style="fill:white;fill-opacity:.3;stroke:none" />
  <path
     d="M32,3C16.536,3,4,15.536,4,31c0,0.167,0.01,0.333,0.013,0.5C4.28,16.268,16.704,4,32,4 c15.296,0,27.72,12.268,27.987,27.5C59.99,31.333,60,31.167,60,31C60,15.536,47.464,3,32,3z M47.285,32.013L23.75,45.762 C22.797,46.319,22,45.863,22,44.751v1c0,1.112,0.797,1.568,1.75,1.011l23.535-13.748c0.697-0.407,0.879-1.003,0.556-1.512 C47.723,31.688,47.541,31.864,47.285,32.013z"
     id="playButtonTopEdgeHighlights"
     style="fill:white;fill-opacity:.8;stroke:none" />
</svg>
