<!-- may be protected as a trademark in some jurisdictions -->
<svg xmlns="http://www.w3.org/2000/svg" width="135" height="40" xml:space="preserve"><path fill="#A6A6A6" d="M130.197 40H4.729A4.74 4.74 0 0 1 0 35.267V4.726A4.733 4.733 0 0 1 4.729 0h125.468C132.803 0 135 2.12 135 4.726v30.541c0 2.605-2.197 4.733-4.803 4.733z"/><path d="M134.032 35.268a3.83 3.83 0 0 1-3.834 3.83H4.729a3.835 3.835 0 0 1-3.839-3.83V4.725A3.84 3.84 0 0 1 4.729.89h125.468a3.834 3.834 0 0 1 3.834 3.835l.001 30.543z"/><g fill="#FFF"><path d="M30.128 19.784c-.029-3.223 2.639-4.791 2.761-4.864-1.511-2.203-3.853-2.504-4.676-2.528-1.967-.207-3.875 1.177-4.877 1.177-1.022 0-2.565-1.157-4.228-1.123-2.14.033-4.142 1.272-5.24 3.196-2.266 3.923-.576 9.688 1.595 12.859 1.086 1.553 2.355 3.287 4.016 3.226 1.625-.067 2.232-1.036 4.193-1.036 1.943 0 2.513 1.036 4.207.997 1.744-.028 2.842-1.56 3.89-3.127 1.255-1.78 1.759-3.533 1.779-3.623-.041-.014-3.387-1.291-3.42-5.154zM26.928 10.306c.874-1.093 1.472-2.58 1.306-4.089-1.265.056-2.847.875-3.758 1.944-.806.942-1.526 2.486-1.34 3.938 1.421.106 2.88-.717 3.792-1.793z"/></g><g fill="#FFF"><path d="M53.645 31.504h-2.271l-1.244-3.909h-4.324l-1.185 3.909H42.41l4.284-13.308h2.646l4.305 13.308zm-3.89-5.549L48.63 22.48c-.119-.355-.342-1.191-.671-2.507h-.04a96.75 96.75 0 0 1-.632 2.507l-1.105 3.475h3.573zM64.662 26.588c0 1.632-.441 2.922-1.323 3.869-.79.843-1.771 1.264-2.942 1.264-1.264 0-2.172-.454-2.725-1.362h-.04v5.055H55.5V25.067c0-1.026-.027-2.079-.079-3.159h1.875l.119 1.521h.04c.711-1.146 1.79-1.718 3.238-1.718 1.132 0 2.077.447 2.833 1.342.758.896 1.136 2.074 1.136 3.535zm-2.172.078c0-.934-.21-1.704-.632-2.31-.461-.632-1.08-.948-1.856-.948-.526 0-1.004.176-1.431.523-.428.35-.708.807-.839 1.373-.066.264-.099.48-.099.65v1.6c0 .698.214 1.287.642 1.768s.984.721 1.668.721c.803 0 1.428-.31 1.875-.928.448-.619.672-1.435.672-2.449zM75.699 26.588c0 1.632-.441 2.922-1.324 3.869-.789.843-1.77 1.264-2.941 1.264-1.264 0-2.172-.454-2.724-1.362h-.04v5.055h-2.132V25.067c0-1.026-.027-2.079-.079-3.159h1.875l.119 1.521h.04c.71-1.146 1.789-1.718 3.238-1.718 1.131 0 2.076.447 2.834 1.342.755.896 1.134 2.074 1.134 3.535zm-2.172.078c0-.934-.211-1.704-.633-2.31-.461-.632-1.078-.948-1.855-.948a2.22 2.22 0 0 0-1.432.523c-.428.35-.707.807-.838 1.373-.065.264-.099.48-.099.65v1.6c0 .698.214 1.287.64 1.768.428.48.984.721 1.67.721.803 0 1.428-.31 1.875-.928.448-.619.672-1.435.672-2.449zM88.039 27.772c0 1.132-.393 2.053-1.182 2.764-.867.777-2.074 1.165-3.625 1.165-1.432 0-2.58-.276-3.449-.829l.494-1.777c.936.566 1.963.85 3.082.85.803 0 1.428-.182 1.877-.544.447-.362.67-.848.67-1.454 0-.54-.184-.995-.553-1.364-.367-.369-.98-.712-1.836-1.029-2.33-.869-3.494-2.142-3.494-3.816 0-1.094.408-1.991 1.225-2.689.814-.699 1.9-1.048 3.258-1.048 1.211 0 2.217.211 3.02.632l-.533 1.738c-.75-.408-1.598-.612-2.547-.612-.75 0-1.336.185-1.756.553a1.58 1.58 0 0 0-.533 1.205c0 .526.203.961.611 1.303.355.316 1 .658 1.936 1.027 1.145.461 1.986 1 2.527 1.618.539.616.808 1.387.808 2.307zM95.088 23.508h-2.35v4.659c0 1.185.414 1.777 1.244 1.777.381 0 .697-.033.947-.099l.059 1.619c-.42.157-.973.236-1.658.236-.842 0-1.5-.257-1.975-.77-.473-.514-.711-1.376-.711-2.587v-4.837h-1.4v-1.6h1.4v-1.757l2.094-.632v2.389h2.35v1.602zM105.691 26.627c0 1.475-.422 2.686-1.264 3.633-.883.975-2.055 1.461-3.516 1.461-1.408 0-2.529-.467-3.365-1.401s-1.254-2.113-1.254-3.534c0-1.487.43-2.705 1.293-3.652.861-.948 2.023-1.422 3.484-1.422 1.408 0 2.541.467 3.396 1.402.818.907 1.226 2.078 1.226 3.513zm-2.212.069c0-.885-.189-1.644-.572-2.277-.447-.766-1.086-1.148-1.914-1.148-.857 0-1.508.383-1.955 1.148-.383.634-.572 1.405-.572 2.317 0 .885.189 1.644.572 2.276.461.766 1.105 1.148 1.936 1.148.814 0 1.453-.39 1.914-1.168.393-.645.591-1.412.591-2.296zM112.621 23.783a3.702 3.702 0 0 0-.672-.059c-.75 0-1.33.283-1.738.85-.355.5-.533 1.132-.533 1.895v5.035h-2.131l.02-6.574c0-1.106-.027-2.113-.08-3.021h1.857l.078 1.836h.059c.225-.631.58-1.139 1.066-1.52a2.578 2.578 0 0 1 1.541-.514c.197 0 .375.014.533.039v2.033zM122.156 26.252a5 5 0 0 1-.078.967h-6.396c.025.948.334 1.673.928 2.173.539.447 1.236.671 2.092.671.947 0 1.811-.151 2.588-.454l.334 1.48c-.908.396-1.98.593-3.217.593-1.488 0-2.656-.438-3.506-1.313-.848-.875-1.273-2.05-1.273-3.524 0-1.447.395-2.652 1.186-3.613.828-1.026 1.947-1.539 3.355-1.539 1.383 0 2.43.513 3.141 1.539.563.815.846 1.823.846 3.02zm-2.033-.553c.014-.632-.125-1.178-.414-1.639-.369-.593-.936-.889-1.699-.889-.697 0-1.264.289-1.697.869-.355.461-.566 1.014-.631 1.658h4.441z"/></g><g fill="#FFF"><path d="M47.809 7.778h-1.872v5.655h-1.048V7.778h-1.862v-.882h4.782v.882zM51.073 13.433l-.077-.543h-.029c-.316.433-.775.65-1.377.65-.214 0-.407-.036-.582-.107s-.327-.168-.456-.291a1.285 1.285 0 0 1-.301-.437 1.408 1.408 0 0 1-.106-.553c0-.588.239-1.03.718-1.324.479-.294 1.157-.441 2.037-.441V10.3c0-.621-.326-.931-.978-.931-.465 0-.875.117-1.229.349l-.213-.688c.433-.271.972-.407 1.617-.407 1.233 0 1.85.65 1.85 1.95v1.736c0 .485.023.86.068 1.125h-.942zm-.146-2.347c-.585 0-1.021.074-1.307.223-.286.149-.429.392-.429.728 0 .246.067.43.202.553a.731.731 0 0 0 .512.184 1.05 1.05 0 0 0 .708-.272.988.988 0 0 0 .228-.306.866.866 0 0 0 .086-.383v-.727zm-1.095-2.91c.025-.11.069-.204.131-.281s.123-.15.185-.218.114-.134.16-.199a.4.4 0 0 0 .067-.233c0-.097-.03-.175-.092-.233s-.138-.087-.228-.087c-.104 0-.193.034-.268.102s-.137.144-.188.228l-.369-.224a1.43 1.43 0 0 1 .384-.485c.164-.136.376-.204.635-.204a.91.91 0 0 1 .616.213.697.697 0 0 1 .247.553.718.718 0 0 1-.087.364c-.059.1-.126.192-.204.276a8.06 8.06 0 0 1-.242.252 1.175 1.175 0 0 0-.214.301l-.533-.125zM54.649 7.312a.603.603 0 0 1-.184.456.661.661 0 0 1-.476.175.611.611 0 0 1-.621-.63c0-.181.062-.33.185-.446s.274-.175.456-.175a.64.64 0 0 1 .456.175.586.586 0 0 1 .184.445zm-.116 6.121h-1.048V8.719h1.048v4.714zM62.612 8.719l-1.785 4.714h-1.019l-1.727-4.714h1.125l.806 2.493c.136.414.249.812.339 1.193h.029c.078-.343.191-.74.34-1.193l.795-2.493h1.097zM67.399 10.853c0 .09-.004.176-.01.257a2.234 2.234 0 0 1-.029.218h-3.143c.013.446.153.791.422 1.033.268.242.622.364 1.062.364.459 0 .883-.074 1.271-.223l.164.728c-.446.194-.973.291-1.581.291-.368 0-.698-.057-.989-.17-.291-.113-.537-.273-.737-.48s-.354-.456-.461-.747c-.106-.291-.159-.617-.159-.979s.053-.697.159-1.004c.107-.307.258-.574.451-.8.194-.227.429-.404.703-.534.275-.129.581-.194.917-.194.298 0 .567.053.811.16.242.106.449.258.62.456.172.197.303.434.393.708.09.274.136.58.136.916zm-1.61-4.123.844 1.416h-.737l-.476-.892h-.02l-.475.892h-.718l.824-1.416h.758zm.61 3.852c0-.369-.089-.668-.267-.897s-.434-.345-.77-.345c-.305 0-.562.116-.776.349-.213.233-.336.53-.368.893h2.181zm.282-4.695.63 1.338h-.572l-.94-1.338h.882zM73.529 9.504h-1.154v2.29c0 .582.203.873.611.873.188 0 .342-.016.465-.049l.029.795c-.207.078-.479.117-.814.117-.414 0-.738-.126-.971-.378-.232-.252-.35-.676-.35-1.271V9.504h-.688v-.785h.688v-.864l1.029-.31v1.173h1.154v.786zM77.225 9.641a1.74 1.74 0 0 0-.33-.029c-.369 0-.652.139-.854.417-.174.246-.262.556-.262.931v2.474H74.73l.01-3.23c0-.543-.012-1.038-.037-1.484h.91l.039.902h.029a1.6 1.6 0 0 1 .523-.747c.234-.168.486-.252.758-.252.096 0 .184.006.262.019v.999zM82.174 10.853c0 .09-.004.176-.01.257a1.753 1.753 0 0 1-.029.218h-3.143c.014.446.154.791.422 1.033.268.242.623.364 1.062.364.459 0 .883-.074 1.271-.223l.164.728c-.447.194-.973.291-1.582.291-.367 0-.697-.057-.988-.17a2.044 2.044 0 0 1-.738-.48 2.12 2.12 0 0 1-.461-.747c-.105-.291-.158-.617-.158-.979s.053-.697.158-1.004c.107-.307.258-.574.451-.8.195-.227.43-.404.703-.534.275-.129.582-.194.918-.194a2 2 0 0 1 .811.16c.242.106.449.258.619.456.172.197.303.434.393.708.092.274.137.58.137.916zm-.727-2.707h-.729l-.533-.873h-.02l-.523.873h-.719l.922-1.406h.67l.932 1.406zm-.273 2.436c0-.369-.088-.668-.266-.897s-.435-.345-.771-.345c-.305 0-.562.116-.775.349s-.336.53-.369.893h2.181zM87.498 13.433h-1.047v-2.7c0-.832-.316-1.248-.951-1.248-.311 0-.562.114-.756.343s-.291.499-.291.808v2.796h-1.049v-3.366c0-.414-.012-.863-.037-1.349h.92l.049.737h.029a1.53 1.53 0 0 1 .543-.569c.285-.176.602-.265.951-.265.439 0 .805.142 1.096.427.363.349.543.87.543 1.562v2.824z"/></g></svg>
