<!-- may be protected as a trademark in some jurisdictions -->
<svg xmlns="http://www.w3.org/2000/svg" width="135" height="40" xml:space="preserve"><path fill="#A6A6A6" d="M130.229 40H4.76C2.153 40 0 37.872 0 35.267V4.726C0 2.12 2.153 0 4.76 0h125.468C132.834 0 135 2.12 135 4.726v30.541c0 2.605-2.166 4.733-4.771 4.733z"/><path d="M134.032 35.268a3.83 3.83 0 0 1-3.834 3.83H4.729a3.835 3.835 0 0 1-3.839-3.83V4.725A3.84 3.84 0 0 1 4.729.89h125.468a3.834 3.834 0 0 1 3.834 3.835l.001 30.543z"/><g fill="#FFF"><path d="M30.159 19.784c-.029-3.223 2.639-4.791 2.761-4.864-1.511-2.203-3.853-2.504-4.676-2.528-1.967-.207-3.875 1.177-4.877 1.177-1.022 0-2.565-1.157-4.228-1.123-2.14.033-4.142 1.272-5.24 3.196-2.266 3.923-.576 9.688 1.595 12.859 1.086 1.553 2.355 3.287 4.016 3.226 1.625-.067 2.232-1.036 4.193-1.036 1.943 0 2.513 1.036 4.207.997 1.744-.028 2.842-1.56 3.89-3.127 1.255-1.78 1.759-3.533 1.779-3.623-.04-.014-3.387-1.291-3.42-5.154zM26.959 10.306c.874-1.093 1.472-2.58 1.306-4.089-1.265.056-2.848.874-3.758 1.944-.806.942-1.526 2.486-1.34 3.938 1.421.106 2.88-.717 3.792-1.793z"/></g><g fill="#FFF"><path d="M45.175 31.504h-1.944V18.742h1.944v12.762zM50.251 19.048c-.516 1.812-1.128 3.3-1.836 4.464l-1.206.126a22.68 22.68 0 0 0 1.134-4.41l1.908-.18zM59.773 31.504h-2.07l-1.134-3.563h-3.942l-1.08 3.563h-2.016l3.906-12.132h2.412l3.924 12.132zm-3.546-5.059-1.026-3.168c-.108-.323-.312-1.086-.612-2.286h-.036c-.12.516-.312 1.278-.576 2.286l-1.008 3.168h3.258zM69.816 27.021c0 1.488-.402 2.664-1.207 3.528-.72.769-1.614 1.152-2.682 1.152-1.152 0-1.98-.414-2.484-1.242h-.036v4.608h-1.944v-9.433a59.1 59.1 0 0 0-.072-2.88h1.71l.108 1.387h.036c.648-1.045 1.632-1.566 2.952-1.566 1.032 0 1.893.408 2.583 1.224.691.817 1.036 1.89 1.036 3.222zm-1.98.073c0-.852-.192-1.554-.576-2.105-.42-.576-.984-.864-1.692-.864-.48 0-.916.159-1.305.478-.39.317-.645.734-.765 1.25-.06.24-.09.438-.09.594v1.458c0 .637.195 1.174.585 1.611.39.438.897.657 1.521.657.732 0 1.302-.282 1.71-.846.408-.565.612-1.308.612-2.233zM79.879 27.021c0 1.488-.402 2.664-1.207 3.528-.719.769-1.613 1.152-2.682 1.152-1.152 0-1.98-.414-2.484-1.242h-.035v4.608h-1.945v-9.433c0-.937-.023-1.896-.07-2.88h1.709l.107 1.387h.037c.648-1.045 1.631-1.566 2.951-1.566 1.033 0 1.893.408 2.584 1.224.689.817 1.035 1.89 1.035 3.222zm-1.981.073c0-.852-.191-1.554-.576-2.105-.42-.576-.984-.864-1.691-.864-.48 0-.916.159-1.305.478a2.2 2.2 0 0 0-.766 1.25c-.061.24-.09.438-.09.594v1.458c0 .637.195 1.174.584 1.611.391.438.898.657 1.521.657.732 0 1.303-.282 1.711-.846.407-.565.612-1.308.612-2.233zM91.127 28.103c0 1.031-.359 1.871-1.076 2.52-.791.708-1.893 1.062-3.305 1.062-1.307 0-2.354-.252-3.145-.756l.449-1.62a5.313 5.313 0 0 0 2.809.774c.732 0 1.303-.165 1.711-.496.408-.33.613-.772.613-1.325 0-.493-.168-.907-.504-1.244-.336-.336-.895-.649-1.674-.938-2.125-.793-3.188-1.953-3.188-3.479 0-.998.373-1.815 1.117-2.452s1.734-.956 2.971-.956c1.104 0 2.021.192 2.754.576l-.486 1.583c-.684-.372-1.459-.558-2.322-.558-.684 0-1.219.168-1.602.504a1.44 1.44 0 0 0-.486 1.099c0 .479.186.875.559 1.188.322.288.91.6 1.764.936 1.043.42 1.811.912 2.303 1.477s.738 1.264.738 2.105zM97.553 24.214h-2.141v4.248c0 1.08.377 1.62 1.133 1.62.348 0 .637-.03.865-.09l.053 1.476c-.383.145-.887.216-1.512.216-.768 0-1.367-.233-1.799-.702-.434-.468-.648-1.253-.648-2.357v-4.41h-1.279v-1.458h1.279v-1.602l1.908-.576v2.178h2.141v1.457zM107.219 27.059c0 1.343-.385 2.447-1.152 3.312-.805.888-1.871 1.332-3.203 1.332-1.285 0-2.309-.426-3.07-1.278-.762-.852-1.143-1.926-1.143-3.222 0-1.356.393-2.466 1.18-3.33.785-.864 1.844-1.296 3.176-1.296 1.285 0 2.316.426 3.096 1.277.743.828 1.116 1.896 1.116 3.205zm-2.016.062c0-.807-.174-1.498-.523-2.076-.408-.697-.988-1.047-1.746-1.047-.779 0-1.373.35-1.781 1.047-.348.578-.521 1.281-.521 2.111 0 .808.174 1.499.521 2.076.42.698 1.008 1.048 1.764 1.048.744 0 1.326-.355 1.746-1.065.358-.59.54-1.288.54-2.094zM113.535 24.466a3.3 3.3 0 0 0-.611-.054c-.684 0-1.213.258-1.584.773-.324.457-.486 1.033-.486 1.729v4.59h-1.943l.018-5.994c0-1.008-.023-1.926-.072-2.754h1.693l.07 1.674h.055c.205-.576.527-1.037.973-1.386a2.35 2.35 0 0 1 1.404-.468c.18 0 .342.012.484.035v1.855zM122.23 26.716c0 .349-.025.642-.072.882h-5.832c.023.864.307 1.524.846 1.98.492.408 1.129.611 1.908.611.863 0 1.65-.138 2.357-.413l.307 1.35c-.828.36-1.807.54-2.934.54-1.357 0-2.422-.398-3.195-1.197-.773-.798-1.16-1.869-1.16-3.213 0-1.32.359-2.418 1.078-3.294.758-.937 1.777-1.403 3.061-1.403 1.26 0 2.215.467 2.863 1.403.516.744.773 1.662.773 2.754zm-1.853-.504c.012-.576-.115-1.073-.379-1.494-.336-.54-.852-.81-1.549-.81-.635 0-1.15.264-1.547.791-.324.421-.516.925-.576 1.513h4.051z"/></g><g fill="#FFF"><path d="M47.84 7.778h-1.872v5.655H44.92V7.778h-1.862v-.882h4.782v.882zM52.981 10.853c0 .188-.014.346-.039.475h-3.143c.013.466.164.821.455 1.067.266.22.608.33 1.028.33.466 0 .89-.074 1.271-.223l.164.728c-.446.194-.973.291-1.581.291-.73 0-1.305-.215-1.722-.645s-.625-1.007-.625-1.731c0-.711.193-1.303.582-1.775.407-.504.956-.756 1.648-.756.679 0 1.193.252 1.542.756.28.4.42.895.42 1.483zm-1-.271a1.427 1.427 0 0 0-.203-.805c-.182-.291-.459-.437-.834-.437a.997.997 0 0 0-.835.427 1.577 1.577 0 0 0-.31.815h2.182zm.428-3.842-1.174 1.406h-.728l.844-1.406h1.058zM55.55 13.433h-1.048V6.556h1.048v6.877zM61.293 10.853c0 .188-.014.346-.039.475h-3.143c.013.466.164.821.455 1.067.266.22.608.33 1.028.33.466 0 .89-.074 1.271-.223l.164.728c-.446.194-.973.291-1.581.291-.73 0-1.305-.215-1.722-.645s-.625-1.007-.625-1.731c0-.711.193-1.303.582-1.775.407-.504.956-.756 1.648-.756.679 0 1.193.252 1.542.756.281.4.42.895.42 1.483zm-1-.271a1.427 1.427 0 0 0-.203-.805c-.182-.291-.459-.437-.834-.437a.997.997 0 0 0-.835.427 1.577 1.577 0 0 0-.31.815h2.182zm.428-3.842-1.174 1.406h-.727l.844-1.406h1.057zM66.181 8.845l-.203.795a2.062 2.062 0 0 0-.912-.194c-.459 0-.823.154-1.092.461-.268.307-.402.697-.402 1.169 0 .498.141.892.422 1.183s.639.437 1.072.437c.323 0 .64-.064.95-.194l.146.786c-.343.162-.775.243-1.3.243-.718 0-1.29-.218-1.717-.655s-.64-1.02-.64-1.751c0-.73.229-1.331.688-1.799s1.076-.703 1.853-.703c.44-.001.819.073 1.135.222zM71.709 13.433h-1.047v-2.68c0-.845-.316-1.268-.951-1.268-.484 0-.818.245-.999.735a1.283 1.283 0 0 0-.049.377v2.835h-1.048V6.556h1.048v2.841h.02c.331-.517.801-.775 1.417-.775.434 0 .791.142 1.076.427.355.355.533.883.533 1.581v2.803zM77.084 13.433h-.941l-.078-.543h-.029c-.322.433-.781.65-1.377.65-.445 0-.805-.143-1.076-.427a1.339 1.339 0 0 1-.369-.96c0-.576.24-1.015.723-1.319.482-.304 1.16-.453 2.033-.446V10.3c0-.621-.326-.931-.979-.931-.465 0-.875.117-1.229.349l-.213-.688c.438-.271.979-.407 1.617-.407 1.232 0 1.85.65 1.85 1.95v1.736c0 .471.023.846.068 1.124zm-1.088-1.62v-.727c-1.156-.02-1.734.297-1.734.95 0 .246.066.43.201.553a.733.733 0 0 0 .512.184c.23 0 .445-.073.641-.218a.893.893 0 0 0 .38-.742zM81.342 9.641a1.74 1.74 0 0 0-.33-.029c-.367 0-.652.139-.854.417-.174.246-.262.556-.262.931v2.474H78.85l.01-3.23c0-.543-.014-1.038-.039-1.484h.912l.039.902h.029c.109-.311.283-.56.523-.747.232-.168.484-.252.756-.252.098 0 .186.006.262.019v.999zM86.812 8.719c-.025.382-.039.828-.039 1.339v2.696c0 1.015-.227 1.727-.678 2.134-.414.375-.996.562-1.746.562-.654 0-1.182-.123-1.582-.369l.242-.805c.395.239.842.359 1.34.359.924 0 1.387-.498 1.387-1.494v-.456h-.02c-.291.479-.754.718-1.387.718a1.76 1.76 0 0 1-1.406-.65c-.369-.433-.553-.983-.553-1.649 0-.756.213-1.368.639-1.833.395-.433.877-.65 1.445-.65.641 0 1.1.249 1.379.747h.018l.039-.65h.922zm-1.085 2.697v-.834c0-.317-.1-.588-.297-.815-.199-.227-.459-.339-.785-.339-.357 0-.65.148-.881.446-.23.298-.346.695-.346 1.193 0 .453.107.818.322 1.096.219.304.521.456.904.456.234 0 .443-.069.629-.208.186-.139.316-.328.395-.567.039-.118.059-.261.059-.428zM92.516 10.853c0 .188-.014.346-.039.475h-3.143c.014.466.164.821.455 1.067.266.22.609.33 1.029.33.465 0 .889-.074 1.271-.223l.164.728c-.447.194-.973.291-1.582.291-.73 0-1.305-.215-1.721-.645-.418-.43-.625-1.007-.625-1.731 0-.711.193-1.303.582-1.775.406-.504.955-.756 1.648-.756.678 0 1.193.252 1.541.756.281.4.42.895.42 1.483zm-1-.271a1.411 1.411 0 0 0-.203-.805c-.182-.291-.459-.437-.834-.437a.995.995 0 0 0-.834.427 1.586 1.586 0 0 0-.311.815h2.182zM96.531 9.641a1.74 1.74 0 0 0-.33-.029c-.369 0-.652.139-.854.417-.174.246-.262.556-.262.931v2.474h-1.049l.01-3.23c0-.543-.012-1.038-.037-1.484h.91l.039.902h.029a1.6 1.6 0 0 1 .523-.747c.234-.168.486-.252.758-.252.096 0 .184.006.262.019v.999zM104.893 13.433h-.932l-.049-.757h-.029c-.297.576-.801.864-1.512.864-.57 0-1.041-.223-1.416-.669s-.562-1.025-.562-1.736c0-.763.203-1.381.609-1.853.395-.44.881-.66 1.455-.66.635 0 1.078.213 1.33.64h.02V6.556h1.047v5.607c0 .459.013.882.039 1.27zm-1.086-1.988v-.786a1.184 1.184 0 0 0-.41-.965 1.027 1.027 0 0 0-.701-.257c-.389 0-.695.155-.92.466s-.336.708-.336 1.193c0 .466.107.844.322 1.135.227.31.531.465.914.465.344 0 .621-.129.828-.388.201-.239.303-.527.303-.863zM110.246 13.433h-.941l-.076-.543h-.029c-.324.433-.783.65-1.377.65-.447 0-.807-.143-1.078-.427a1.337 1.337 0 0 1-.367-.96c0-.576.24-1.015.723-1.319.48-.304 1.158-.453 2.031-.446V10.3c0-.621-.326-.931-.977-.931-.465 0-.875.117-1.23.349l-.213-.688c.439-.271.979-.407 1.617-.407 1.234 0 1.85.65 1.85 1.95v1.736c-.001.471.022.846.067 1.124zm-1.086-1.62v-.727c-1.158-.02-1.736.297-1.736.95 0 .246.068.43.203.553a.728.728 0 0 0 .51.184c.232 0 .445-.073.643-.218a.898.898 0 0 0 .38-.742zM116.105 13.433h-1.049v-2.7c0-.832-.316-1.248-.949-1.248a.95.95 0 0 0-.758.343 1.217 1.217 0 0 0-.291.808v2.796h-1.047v-3.366c0-.414-.014-.863-.039-1.349h.922l.049.737h.029c.121-.229.303-.418.543-.569.283-.176.602-.265.949-.265.441 0 .807.142 1.098.427.361.349.543.87.543 1.562v2.824zM120.83 12.079c0 .438-.162.79-.484 1.055-.324.265-.77.397-1.34.397-.537 0-.992-.107-1.367-.32l.223-.776c.363.22.748.33 1.154.33.537 0 .805-.197.805-.592a.577.577 0 0 0-.174-.432c-.117-.113-.324-.225-.621-.334-.84-.311-1.26-.763-1.26-1.358 0-.407.154-.747.465-1.019s.721-.407 1.232-.407c.465 0 .863.095 1.193.285l-.225.753a1.841 1.841 0 0 0-.959-.271c-.221 0-.393.052-.516.155a.5.5 0 0 0-.184.397c0 .161.064.293.193.396.111.097.324.203.641.319.816.309 1.224.783 1.224 1.422z"/></g></svg>
