<!-- This Source Code Form is subject to the terms of the Mozilla Public
   - License, v. 2.0. If a copy of the MPL was not distributed with this
   - file, You can obtain one at http://mozilla.org/MPL/2.0/. -->
<svg xmlns="http://www.w3.org/2000/svg"
     width="18px" height="18px" viewBox="0 0 18 18">
  <path fill="context-fill"
        d="M3.52,5.367c-1.332,0-2.422,1.09-2.422,2.422v2.422c0,1.332,1.09,2.422,2.422,2.422h1.516l4.102,3.633
           V1.735L5.035,5.367H3.52z M12.059,9c0-0.727-0.484-1.211-1.211-1.211v2.422C11.574,10.211,12.059,9.727,12.059,9z M14.48,9
           c0-1.695-1.211-3.148-2.785-3.512l-0.363,1.09C12.422,6.82,13.27,7.789,13.27,9c0,1.211-0.848,2.18-1.938,2.422l0.484,1.09
           C13.27,12.148,14.48,10.695,14.48,9z M12.543,3.188l-0.484,1.09C14.238,4.883,15.691,6.82,15.691,9c0,2.18-1.453,4.117-3.512,4.601
           l0.484,1.09c2.422-0.605,4.238-2.906,4.238-5.691C16.902,6.215,15.086,3.914,12.543,3.188z"/>
</svg>

