<!-- This Source Code Form is subject to the terms of the Mozilla Public
   - License, v. 2.0. If a copy of the MPL was not distributed with this
   - file, You can obtain one at http://mozilla.org/MPL/2.0/. -->
<svg xmlns="http://www.w3.org/2000/svg"
     width="18px" height="18px" viewBox="0 0 18 18">
  <path fill="context-fill"
        d="M16.531,1.984H1.5c-0.8,0-1.5,0.7-1.5,1.5v11.031c0,0.8,0.7,1.5,1.5,1.5h15.031
           c0.8,0,1.469-0.7,1.469-1.5V3.484C18,2.684,17.331,1.984,16.531,1.984z
           M16,13.016c0,0.6-0.4,1-1,1H3c-0.6,0-1-0.4-1-1v-8c0-0.6,0.4-1,1-1h12c0.6,0,1,0.4,1,1V13.016z
           M6.426,10.807c-0.811,0-0.96-0.789-0.96-1.628c0-1.155,0.338-1.745,0.899-1.745c0.5,0,0.818,0.357,0.866,0.98
           h1.484C8.585,6.877,7.785,5.972,6.297,5.972c-1.359,0-2.428,1.205-2.428,3.14c0,1.944,0.974,3.157,2.583,3.157
           c1.285,0,2.153-0.93,2.295-2.476H7.244C7.183,10.367,6.94,10.807,6.426,10.807z
           M11.759,10.807c-0.811,0-0.96-0.789-0.96-1.628c0-1.155,0.338-1.745,0.899-1.745c0.5,0,0.756,0.357,0.803,0.98h1.515
           c-0.129-1.537-0.898-2.443-2.385-2.443c-1.359,0-2.396,1.205-2.396,3.14c0,1.944,0.943,3.157,2.552,3.157
           c1.285,0,2.122-0.93,2.264-2.476h-1.535C12.454,10.367,12.273,10.807,11.759,10.807z"/>
</svg>

