<!-- This Source Code Form is subject to the terms of the Mozilla Public
   - License, v. 2.0. If a copy of the MPL was not distributed with this
   - file, You can obtain one at http://mozilla.org/MPL/2.0/. -->
<svg xmlns="http://www.w3.org/2000/svg" viewBox="0 0 16 16" width="16" height="16" fill="context-fill" fill-opacity="context-fill-opacity">
  <path d="m4.5 14-1 0A1.5 1.5 0 0 1 2 12.5l0-9A1.5 1.5 0 0 1 3.5 2l1 0A1.5 1.5 0 0 1 6 3.5l0 9A1.5 1.5 0 0 1 4.5 14z"/>
  <path d="m11.5 14-1 0A1.5 1.5 0 0 1 9 12.5l0-9A1.5 1.5 0 0 1 10.5 2l1 0A1.5 1.5 0 0 1 13 3.5l0 9a1.5 1.5 0 0 1-1.5 1.5z"/>
</svg>
