<svg width="1938" height="1582" viewBox="0 0 1938 1582" fill="none" xmlns="http://www.w3.org/2000/svg">
<path d="M1461.32 1426.8C1454.1 1422.3 1146.65 1471.97 1074.52 1436.32C1015.76 1407.28 1200.23 1296.48 1119.97 1258.75C940.505 1174.37 731.498 1081.71 601.243 1040.93C216.007 920.323 165.122 735.534 192.019 595.482C218.917 455.43 303.451 546.425 410.72 449.639C517.99 352.852 859.97 149.024 1160.64 159.921C1461.32 170.817 1608.61 177.547 1621.74 291.319C1634.87 405.091 1555.14 473.675 1383.51 441.627C1211.88 409.578 996.699 379.773 1029.36 339.713C1062.02 299.332 1068.35 285.871 1125.02 291.319C1149.54 293.676 1092.9 317.3 1130.37 303.839C1167.83 290.379 1106.54 268.848 1074.52 265.964C1042.5 263.4 1130.37 281.915 962.451 339.713C786.017 428.166 678.413 454.446 654.398 562.129C630.382 669.811 791.126 879.408 1008.87 991.257C1226.61 1103.11 1542.01 1265.91 1528.24 1293.15C1514.79 1320.39 1461.32 1426.8 1461.32 1426.8Z" fill="#F9BFD1"/>
<path d="M1514.79 1320.39C1516.08 1318.15 772.876 1018.5 525.997 935.492C279.118 852.487 179.808 685.256 217.272 551.294C254.736 417.331 345.401 340.674 632.626 231.709C919.851 122.744 1420.33 80.7608 1527.92 172.74C1635.51 264.719 1752.71 401.566 1621.74 455.087C1621.74 455.087 1176.02 450.279 1117.74 415.026C1059.46 380.093 977.475 337.976 1010.14 313.939C1042.8 289.903 1227.57 345.16 1352.45 353.173C1477.33 361.185 1574.03 319.201 1421.29 274.333C1268.56 229.466 1097.25 232.029 959.557 274.333C856.45 306.061 767.113 363.748 670.731 425.602C574.348 487.455 480.528 556.68 496.538 672.054C512.548 787.429 798.493 787.749 978.449 855.051C1158.4 922.353 1563.47 1223.61 1563.47 1223.61L1514.79 1320.39Z" fill="#EF4056"/>
<path d="M1531.44 1257.58C1517.99 1239.95 1118.7 1010.81 719.079 900.56C319.461 790.634 170.866 677.503 237.469 476.559C287.101 326.893 249.656 465.983 364.93 377.53C480.204 289.076 719.719 71.1465 1111.33 87.8117C1502.94 104.477 1659.52 133.32 1707.88 211.198C1756.23 289.076 1817.71 401.566 1707.88 423.038C1598.05 444.511 1366.54 461.176 1236.85 433.614C1086.68 401.886 920.219 326.098 939.432 315.202C939.432 315.202 1220.73 368.923 1275.92 377.413C1331.11 385.903 1538.81 412.142 1573.71 358.621C1608.61 305.1 1517.35 227.222 1364.61 211.198C1211.88 195.174 1029.68 167.612 802.332 264.078C656.318 325.611 547.448 412.142 453.627 476.559C338.033 556.039 348.92 676.862 496.535 672.055C644.15 667.247 1122.86 884.536 1237.17 919.469C1351.49 954.401 1593.88 1143.17 1593.88 1143.17L1531.44 1257.58Z" fill="#FCB643"/>
<path d="M1561.54 1161.11C1561.54 1161.11 1209.64 916.584 949.63 863.063C689.622 809.542 308.897 774.93 252.861 602.189C192.982 417.59 319.784 530.08 319.784 530.08C339.316 519.504 319.784 455.728 464.837 339.071C616.295 217.287 793.369 143.576 1062.34 138.448C1331.32 133.32 1542.33 149.024 1626.23 218.89C1690.91 272.731 1744.06 417.59 1540.41 425.602C1336.76 433.614 1046.14 358.973 978.573 324.04C910.689 289.107 888.933 356.865 1189.14 463.099C1342.2 500.595 1680.34 546.425 1755.27 455.087C1830.2 363.749 1910.57 167.933 1594.21 100.951C1277.84 33.9703 876.303 15.0617 633.586 100.951C390.87 186.841 298.01 337.148 287.443 447.075C276.876 557.001 363.332 664.042 454.271 681.349C545.529 698.655 965.961 701.86 1084.12 736.792C1202.27 771.725 1469.65 977.476 1509.35 1029.72C1549.06 1081.95 1593.89 1143.17 1593.89 1143.17L1561.54 1161.11Z" fill="#1CB0A8"/>
<path d="M1491.76 970.721C1409.14 887.075 1254.16 686.451 976.225 609.856C703.409 534.862 516.408 553.771 437.958 550.886C107.825 538.067 198.764 354.43 242.312 293.217C285.86 232.005 467.737 59.584 1011.77 30.4199C1558.68 0.935356 1949.97 124.322 1933.96 324.945C1917.95 525.568 1553.24 593.831 1322.69 542.874C976.225 466.297 859.662 340.103 874.072 321.515C888.161 302.606 963.711 342.977 1074.81 397.266C1185.91 451.554 1759.77 572.359 1797.23 357.634C1834.7 142.91 1464.86 89.389 1135.37 83.9408C831.812 79.1335 534.66 201.879 384.483 312.126C318.521 360.519 127.037 643.827 534.66 714.654C942.283 785.481 1068.44 728.114 1274.34 864.961C1480.23 1001.81 1576.15 1134.07 1584.3 1123.59C1592.45 1113.12 1574.37 1054.37 1491.76 970.721Z" fill="#95D2FF"/>
<path d="M420.905 288.277C420.905 288.277 80.9147 480.592 697.039 565.48C820.319 619.001 477.902 698.099 410.338 679.511C346.297 661.884 182.991 540.499 198.041 426.727C221.736 244.371 420.905 288.277 420.905 288.277Z" fill="#A5CFEE"/>
<path d="M1071.99 317.727C987.153 322.777 848.949 386.324 790.452 417.466C790.452 403.579 798.532 369.238 830.853 342.977C871.254 310.152 957.105 255.863 1071.99 258.389C1186.88 260.914 1178.05 311.414 1071.99 317.727Z" fill="#FFC0D1"/>
<path d="M661.199 1326.31C661.199 1326.31 593.272 1229.47 417.811 1292.06C417.811 1292.06 321.114 1287.8 276.352 1313.71C276.352 1313.71 317.078 1254.55 336.682 1214.55C356.285 1174.54 384.234 1125.5 384.234 1125.5L288.856 1051.34L276.352 1059.83L250.222 1026.26L238.066 1044.99L186.828 1157.4C186.828 1157.4 84.8746 1291.86 40.1127 1345.1C-4.64912 1398.33 -21.4379 1454.27 40.1127 1490.66C101.663 1527.03 192.283 1533.46 299.443 1529.75C680.778 1516.6 680.778 1516.6 680.778 1516.6L661.199 1326.31Z" fill="#95D2FF"/>
<path d="M1438.72 1379.35L1395 1291.04L1515.09 1023.52L1582.96 1106.17L1438.72 1379.35ZM1286.25 1409.98L1294.74 1314.46L1373.68 1309.57L1405.31 1391.7L1286.25 1409.98ZM1265.15 1395.04L1237.13 1402.76L1251.27 1322.43H1274.41L1265.15 1395.04ZM1515.34 981.022L1374.7 1287.41H1237.15L1211.69 1449.09L1456.23 1428.49L1620 1102.78L1515.34 981.022Z" fill="white"/>
<path d="M1399.38 1291.02L1438.99 1370.83L1578.36 1106.66L1516.13 1030.72L1399.38 1291.02ZM1438.72 1383.21C1437.17 1383.21 1435.88 1382.43 1435.38 1381.14L1391.66 1292.83C1391.14 1291.81 1391.14 1290.52 1391.66 1289.5L1511.75 1021.97C1512.27 1020.68 1513.54 1019.9 1514.84 1019.66C1516.13 1019.41 1517.4 1019.9 1518.45 1020.95L1586.33 1103.6C1587.35 1104.89 1587.35 1106.44 1586.85 1107.98L1442.6 1381.16C1441.53 1382.43 1440.26 1383.21 1438.72 1383.21ZM1254.36 1326.31L1242.03 1397.38L1261.83 1391.97L1270.05 1326.31H1254.36ZM1236.88 1406.62C1235.85 1406.62 1235.08 1406.37 1234.31 1405.6C1233.29 1404.83 1232.77 1403.28 1233.01 1401.99L1247.16 1321.65C1247.41 1319.86 1248.96 1318.57 1251.02 1318.57H1274.16C1275.19 1318.57 1276.23 1319.09 1277 1319.86C1277.78 1320.63 1278.03 1321.93 1278.03 1322.95L1268.76 1395.56C1268.51 1397.1 1267.46 1398.4 1265.92 1398.9L1237.9 1406.62C1237.65 1406.62 1237.37 1406.62 1236.88 1406.62ZM1298.33 1318.32L1290.61 1405.6L1400.13 1388.86L1371.09 1313.68L1298.33 1318.32ZM1286.25 1413.84C1285.22 1413.84 1284.45 1413.59 1283.68 1412.82C1282.91 1412.05 1282.39 1410.76 1282.39 1409.73L1290.88 1314.21C1291.13 1312.41 1292.67 1310.87 1294.49 1310.6L1373.43 1305.71C1374.97 1305.71 1376.77 1306.48 1377.29 1308.28L1408.92 1390.4C1409.45 1391.43 1409.17 1392.72 1408.67 1393.74C1408.18 1394.76 1407.13 1395.54 1405.84 1395.54L1286.79 1413.82C1286.5 1413.84 1286.5 1413.84 1286.25 1413.84ZM1240.21 1291.29L1216.05 1445.01L1453.64 1424.93L1615.1 1103.35L1516.36 987.996L1378.04 1288.97C1377.51 1290.27 1375.97 1291.29 1374.42 1291.29H1240.21ZM1211.67 1452.98C1210.65 1452.98 1209.6 1452.45 1208.83 1451.68C1208.06 1450.91 1207.53 1449.61 1207.81 1448.34L1233.26 1286.66C1233.51 1284.86 1235.06 1283.32 1237.12 1283.32H1372.38L1512.25 978.979C1512.77 977.683 1513.79 976.911 1515.34 976.662C1516.63 976.413 1517.9 976.911 1518.67 977.957L1623.07 1099.74C1624.09 1101.03 1624.36 1102.58 1623.59 1104.12L1459.81 1429.84C1459.29 1431.13 1458.02 1431.9 1456.72 1431.9L1212.19 1452.5C1211.67 1452.98 1211.67 1452.98 1211.67 1452.98Z" fill="white"/>
<path d="M1296.78 1345.1C1294.72 1345.1 1293.17 1343.55 1292.92 1341.48C1292.67 1339.42 1294.22 1337.62 1296.53 1337.37L1380.35 1330.42C1382.42 1330.17 1384.21 1331.72 1384.46 1334.04C1384.71 1336.1 1383.17 1337.9 1380.85 1338.15L1297.03 1345.1H1296.78Z" fill="white"/>
<path d="M1326.87 1403.03C1324.81 1403.03 1323.26 1401.49 1323.01 1399.7L1314.79 1319.89C1314.54 1317.82 1316.09 1315.78 1318.13 1315.78C1320.2 1315.53 1322.24 1317.07 1322.24 1319.12L1330.46 1398.92C1330.71 1400.99 1329.16 1403.03 1327.12 1403.03C1327.37 1403.03 1327.12 1403.03 1326.87 1403.03Z" fill="white"/>
<path d="M1361.57 1401.99C1359.78 1401.99 1358.23 1400.69 1357.71 1398.9L1340.22 1316.5C1339.7 1314.43 1341 1312.39 1343.31 1311.87C1345.38 1311.34 1347.42 1312.64 1347.95 1314.95L1365.43 1397.35C1365.96 1399.42 1364.66 1401.46 1362.34 1401.99C1362.09 1401.99 1361.85 1401.99 1361.57 1401.99Z" fill="white"/>
<path d="M1293.94 1383.21C1291.88 1383.21 1290.33 1381.66 1290.08 1379.87C1289.83 1377.8 1291.38 1375.76 1293.42 1375.76L1388.82 1365.72C1390.89 1365.47 1392.93 1367.02 1392.93 1369.06C1393.18 1371.13 1391.64 1373.17 1389.59 1373.17L1294.19 1383.21C1294.22 1383.21 1294.22 1383.21 1293.94 1383.21Z" fill="white"/>
<path d="M1211.67 1125.47C1211.67 1125.47 1205.24 1153.54 1231.47 1171.83C1245.62 1181.62 1236.6 1195.27 1219.14 1188.04C1188.8 1175.69 1194.46 1151.48 1194.46 1151.48" fill="white"/>
<path d="M1228.13 1193.97C1225.04 1193.97 1221.46 1193.2 1217.6 1191.66C1184.69 1178.28 1190.35 1150.98 1190.59 1150.73L1198.04 1152.52C1197.79 1153.29 1193.68 1173.65 1220.41 1184.71C1227.61 1187.55 1232.74 1186.5 1234.04 1183.93C1235.06 1181.87 1234.04 1178.53 1229.15 1175.19C1200.88 1155.61 1207.56 1124.97 1207.81 1124.72L1215.25 1126.52L1211.39 1125.75L1215.25 1126.52C1215.01 1127.54 1209.85 1152.27 1233.51 1169.01C1243.03 1175.44 1243.28 1183.19 1240.71 1187.82C1238.92 1191.13 1234.56 1193.97 1228.13 1193.97Z" fill="white"/>
<path d="M1141.75 965.578C1090.83 951.928 1057.93 981.022 1025.27 1052.09C1009.58 1085.81 1007.79 1122.63 1021.16 1148.14C1035.81 1176.21 1071.06 1198.85 1085.45 1208.64C1112.95 1226.93 1185.46 1201.69 1205.54 1145.3C1225.57 1088.41 1236.35 991.06 1141.75 965.578Z" fill="white"/>
<path d="M1118.86 966.1C1083.63 966.1 1056.63 993.127 1028.86 1053.63C1013.44 1086.59 1011.9 1122.13 1024.5 1146.32C1037.88 1171.8 1069.24 1192.92 1084.41 1203.21L1087.5 1205.28C1097.53 1211.98 1116.04 1212.23 1135.32 1205.8C1159.76 1197.56 1190.1 1177.23 1201.65 1143.75C1208.08 1125.47 1227.36 1062.13 1202.95 1015.52C1190.87 992.604 1170.04 976.911 1140.73 968.915C1133.25 967.371 1125.81 966.1 1118.86 966.1ZM1108.57 1218.41C1098.53 1218.41 1089.54 1216.09 1083.11 1211.98L1080.02 1209.91C1064.33 1199.35 1031.67 1177.21 1017.55 1150.18C1003.68 1123.92 1005.47 1085.81 1021.66 1050.79C1056.88 974.071 1091.85 948.315 1142.5 961.965C1173.86 970.459 1196.5 987.447 1209.6 1012.43C1234.81 1060.58 1217.32 1122.38 1208.58 1146.84C1195.98 1182.64 1163.59 1204.78 1137.36 1213.52C1127.6 1216.86 1117.56 1218.41 1108.57 1218.41Z" fill="white"/>
<path d="M1108.82 895.036C1137.86 887.837 1176.17 891.424 1189.05 913.32C1201.65 935.215 1181.85 978.98 1132.73 991.858C1083.61 1004.74 1059.45 977.187 1059.97 941.915C1060.22 915.885 1108.82 895.036 1108.82 895.036Z" fill="#010101"/>
<path d="M1188.53 1139.12C1191.37 1139.12 1193.41 1136.8 1193.41 1134.24C1193.41 1131.4 1191.09 1129.36 1188.53 1129.36C1185.69 1129.36 1183.65 1131.67 1183.65 1134.24C1183.65 1136.8 1185.71 1139.12 1188.53 1139.12Z" fill="#010101"/>
<path d="M1141.75 965.578C1078.23 957.856 1057.93 981.022 1025.27 1052.09C1009.58 1085.81 1007.79 1122.63 1021.16 1148.11C1026.29 1158.15 1034.54 1167.69 1043.01 1175.91C1059.2 1174.89 1074.64 1166.64 1079.77 1163.81C1089.54 1158.15 1089.04 1147.59 1088.27 1134.19C1087.5 1120.81 1091.88 1110.25 1099.08 1100.98C1106.28 1091.47 1120.92 1087.61 1137.91 1098.67C1154.88 1109.48 1171.86 1116.95 1196.27 1110C1203.72 1107.93 1210.67 1103.57 1217.1 1098.17C1224.52 1045.39 1215.28 974.346 1141.75 965.578Z" fill="#010101"/>
<path d="M1119.63 967.896C1075.41 967.896 1057.41 991.061 1028.86 1053.63C1013.44 1086.59 1011.9 1122.11 1024.5 1146.32C1028.61 1154.57 1035.31 1163.06 1044.3 1171.8C1057.93 1170.51 1071.06 1164.08 1077.73 1160.22C1084.93 1156.11 1084.93 1148.11 1084.16 1134.46V1133.94C1083.39 1120.81 1087.25 1109.23 1095.74 1098.15C1103.71 1087.58 1120.43 1082.43 1139.71 1095.06C1157.44 1106.39 1172.88 1112.05 1194.98 1106.12C1201.93 1104.32 1208.36 1099.94 1213.24 1096.08C1220.69 1040.98 1205.27 1011.11 1195.23 997.986C1182.9 981.77 1164.64 971.981 1140.98 969.141C1133.5 968.419 1126.3 967.896 1119.63 967.896ZM1041.46 1180.05L1040.17 1178.75C1029.88 1168.96 1022.43 1159.17 1017.55 1149.91C1003.93 1123.65 1005.47 1085.54 1021.66 1050.52C1055.34 976.888 1077.46 953.697 1142 961.693C1167.7 964.782 1187.51 975.344 1201.38 993.353C1226.59 1026.06 1224.27 1073.44 1220.66 1098.67L1220.41 1100.21L1219.12 1101.23C1213.46 1105.87 1205.74 1111.52 1196.75 1113.59C1169.5 1121.31 1150.72 1111.52 1135.3 1101.76C1119.11 1091.2 1107.02 1095.83 1101.62 1103.05C1094.17 1112.84 1091.08 1122.63 1091.58 1133.94V1134.46C1092.35 1147.84 1092.88 1160.72 1081.04 1167.17C1073.32 1171.55 1058.43 1178.75 1042.48 1179.77L1041.46 1180.05Z" fill="black"/>
<path d="M1147.65 1208.89C1146.36 1208.89 1145.33 1208.37 1144.56 1207.35C1125.78 1181.87 1137.89 1139.64 1138.39 1137.83C1138.91 1135.76 1141.22 1134.74 1143.27 1135.26C1145.34 1135.78 1146.36 1138.1 1145.83 1140.14C1145.83 1140.67 1134.25 1180.3 1150.72 1202.71C1152.01 1204.51 1151.74 1206.82 1149.94 1208.12C1149.2 1208.64 1148.42 1208.89 1147.65 1208.89Z" fill="#010101"/>
<path d="M1219.14 1251.89L1215.03 1252.13C1214.26 1246.98 1213.49 1241.57 1211.69 1236.69C1206.56 1221.25 1194.73 1231.81 1194.73 1231.81C1193.18 1225.38 1191.12 1217.64 1188.55 1208.89C1181.6 1184.43 1171.31 1184.68 1169.02 1203.24C1168.25 1209.66 1169.02 1220.5 1170.32 1232.08C1168.25 1231.31 1166.98 1231.31 1166.98 1231.31C1166.98 1231.31 1152.33 1233.38 1150.02 1258.09C1147.7 1283.32 1160.83 1301.85 1160.83 1301.85L1167.01 1393.25L1218.94 1387.59C1235.9 1359.79 1236.95 1325.29 1236.95 1301.33C1236.63 1277.89 1219.14 1251.89 1219.14 1251.89Z" fill="white"/>
<path d="M1167.21 1235.42C1165.41 1235.94 1155.62 1239.28 1153.83 1258.59C1151.76 1282.03 1163.87 1299.51 1163.87 1299.79L1164.39 1300.56V1301.58L1170.29 1389.11L1216.33 1384.23C1230.72 1359.52 1232.79 1329.9 1232.79 1301.58C1232.79 1282.77 1220.96 1261.92 1217.1 1255.5L1211.44 1256.02L1210.92 1252.41C1210.15 1246.75 1209.13 1241.85 1207.83 1237.74C1207.06 1235.42 1205.76 1232.58 1203.72 1232.08C1201.41 1231.56 1198.07 1233.63 1197.05 1234.4L1192.41 1238.51L1190.87 1232.33C1189.57 1226.68 1187.53 1218.96 1184.69 1209.66C1181.08 1196.54 1176.97 1193.45 1176.2 1193.45C1175.67 1193.7 1173.63 1195.77 1172.59 1203.49C1172.06 1209.14 1172.59 1218.93 1173.88 1231.29L1174.65 1237.21L1169 1235.42C1168.23 1235.67 1167.45 1235.42 1167.21 1235.42ZM1163.34 1397.88L1156.92 1303.4C1154.08 1299.29 1144.06 1281.25 1146.11 1258.09C1148.42 1233.1 1162.82 1228.47 1165.91 1227.97C1165.14 1219.73 1164.37 1209.94 1165.14 1203.26C1166.93 1189.09 1172.59 1186.52 1175.67 1186.27C1180.31 1186.03 1186.98 1189.36 1192.14 1208.17C1194.21 1215.12 1195.75 1221.05 1197.02 1225.93C1199.34 1224.91 1202.43 1224.14 1205.76 1224.91C1210.12 1225.93 1213.21 1229.54 1215.28 1235.47C1216.58 1239.08 1217.6 1243.19 1218.12 1247.83L1220.96 1247.58L1222.25 1249.37C1223.03 1250.39 1240.51 1276.67 1240.51 1301.63C1240.51 1331.74 1238.2 1363.16 1222.01 1389.93L1220.98 1391.48L1163.34 1397.88Z" fill="white"/>
<path d="M1161.03 1307.76C1159.73 1307.76 1158.71 1307.23 1157.94 1306.21C1157.42 1305.44 1144.06 1286.14 1146.36 1259.86C1148.92 1231.78 1165.89 1229.74 1166.66 1229.47C1168.73 1229.22 1170.77 1230.76 1171.02 1232.8C1171.27 1234.87 1169.72 1236.91 1167.68 1237.19C1167.16 1237.19 1156.1 1239.26 1154.05 1260.63C1151.99 1284.07 1164.09 1301.55 1164.09 1301.83C1165.39 1303.62 1164.86 1305.94 1163.07 1307.23C1162.57 1307.51 1161.8 1307.76 1161.03 1307.76Z" fill="white"/>
<path d="M1177.74 1281.25C1175.95 1281.25 1174.4 1279.96 1173.88 1278.16C1173.36 1275.85 1163.07 1222.54 1165.14 1203.24C1166.68 1190.88 1171.04 1187.27 1174.4 1186.5C1176.47 1185.97 1180.58 1185.97 1184.94 1191.65C1187.51 1194.99 1190.07 1200.92 1192.14 1208.39C1194.98 1217.66 1197.02 1225.65 1198.32 1231.31C1201.16 1242.89 1203.2 1252.43 1204.49 1263.74C1204.74 1265.81 1203.2 1267.85 1201.16 1268.12C1199.09 1268.37 1197.05 1266.83 1196.8 1264.79C1195.5 1253.73 1193.46 1244.44 1190.62 1233.38C1189.08 1227.72 1187.28 1220 1184.44 1210.71C1182.13 1201.97 1179.81 1198.1 1178.54 1196.54C1177.24 1194.74 1176.22 1194.22 1175.97 1194.22C1175.45 1194.47 1173.41 1196.78 1172.64 1204.51C1170.84 1222.54 1181.38 1276.59 1181.38 1277.12C1181.9 1279.18 1180.36 1281.23 1178.29 1281.75C1178.24 1281.25 1177.99 1281.25 1177.74 1281.25Z" fill="#010101"/>
<path d="M1219.14 1394.02C1218.37 1394.02 1217.85 1393.77 1217.07 1393.49C1215.28 1392.47 1214.76 1389.88 1215.78 1388.09C1230.95 1363.1 1233.26 1332.74 1233.26 1303.9C1233.26 1281.23 1216.03 1252.13 1215.78 1251.88C1214.76 1250.09 1215.25 1247.77 1217.07 1246.48C1218.87 1245.46 1221.18 1245.96 1222.48 1247.77C1223.25 1249.07 1240.99 1278.94 1240.99 1303.65C1240.99 1333.76 1238.67 1365.17 1222.48 1391.95C1221.71 1393.24 1220.41 1394.02 1219.14 1394.02Z" fill="#010101"/>
<path d="M1211.67 1452.73C1209.6 1452.73 1208.06 1451.18 1207.81 1449.12C1207.56 1447.05 1209.1 1445.01 1211.42 1445.01L1453.89 1424.66L1615.35 1103.08L1512.5 983.364C1511.2 981.82 1511.2 979.254 1513.02 977.959C1514.56 976.663 1517.13 976.664 1518.43 978.482L1622.82 1100.01C1623.84 1101.31 1624.11 1102.85 1623.34 1104.4L1459.56 1430.11C1459.04 1431.41 1457.77 1432.18 1456.48 1432.18L1211.94 1452.78C1211.67 1452.73 1211.67 1452.73 1211.67 1452.73Z" fill="black"/>
<path d="M631.607 1309.05C631.607 1309.05 872.778 1175.16 944.516 1162.04C1016.25 1148.91 1030.4 1166.15 1064.08 1192.67C1150.47 1260.38 1135.57 1293.86 1139.41 1383.45L1161.25 1314.46C1162.27 1311.62 1165.88 1309.82 1168.45 1311.62C1182.08 1318.81 1239.17 1341.73 1244.3 1360.01C1244.3 1360.01 1350.24 1597.67 1110.59 1580.16C1024.52 1573.89 981.407 1512.58 981.407 1512.58C981.407 1512.58 832.375 1567.04 708.452 1557.25C514.509 1522.9 631.607 1309.05 631.607 1309.05Z" fill="#00CB77"/>
<path d="M1117.31 1432.13C1115 1432.13 1113.45 1430.06 1113.45 1428.02C1119.36 1312.66 1079.77 1258.61 1079.25 1258.09C1077.96 1256.29 1078.23 1253.98 1080.02 1252.68C1081.82 1251.39 1084.13 1251.66 1085.43 1253.45C1087.22 1255.77 1127.35 1310.1 1121.17 1428.54C1121.17 1430.58 1119.38 1432.13 1117.31 1432.13Z" fill="#010101"/>
<path d="M1106.5 1475.89C1106.25 1475.89 1106.25 1475.89 1105.98 1475.89C1103.91 1475.64 1102.37 1473.58 1102.64 1471.51C1108.54 1424.13 1155.35 1317.54 1157.42 1312.91C1158.19 1310.84 1160.5 1310.07 1162.55 1310.84C1164.61 1311.62 1165.39 1313.93 1164.61 1316C1164.09 1317.02 1116.27 1426.2 1110.36 1472.55C1110.11 1474.6 1108.57 1475.89 1106.5 1475.89Z" fill="#010101"/>
<path d="M987.211 1516.57C985.916 1516.57 984.894 1516.05 984.122 1515.03C958.416 1481.3 942.972 1425.68 938.862 1349.73C935.774 1293.33 939.884 1246.23 940.158 1245.71C940.407 1243.64 942.225 1242.1 944.268 1242.1C946.335 1242.35 947.879 1244.16 947.879 1246.21C947.63 1248 931.165 1432.63 990.574 1510.12C991.869 1511.91 991.595 1514.23 989.802 1515.52C989.004 1516.32 987.983 1516.57 987.211 1516.57Z" fill="#010101"/>
<path d="M1216.05 1275.33C1213.74 1275.33 1212.19 1273.53 1212.19 1271.22C1212.19 1270.97 1212.96 1251.39 1207.83 1236.96C1203.47 1224.61 1194.73 1224.61 1194.21 1224.61C1192.14 1224.61 1190.35 1222.82 1190.35 1220.75C1190.35 1218.68 1191.89 1216.89 1193.96 1216.89C1194.48 1216.89 1208.6 1216.64 1215.03 1234.4C1220.69 1250.37 1219.91 1270.69 1219.91 1271.46C1219.91 1273.78 1218.09 1275.33 1216.05 1275.33Z" fill="#010101"/>
<path d="M1067.17 987.972C1054.84 987.972 1042.24 982.318 1029.88 971.233C1017.03 959.401 1009.31 945.751 1008.81 945.228C1007.79 943.435 1008.29 941.118 1010.35 940.072C1012.15 939.051 1014.46 939.549 1015.48 941.616C1015.73 942.139 1044.8 992.605 1080.8 977.66C1082.86 976.888 1084.91 977.66 1085.93 979.727C1086.7 981.795 1085.93 983.837 1083.86 984.884C1078.48 986.951 1072.82 987.972 1067.17 987.972Z" fill="#010101"/>
<path d="M1118.08 1021.97C1117.84 1021.97 1117.84 1021.97 1118.08 1021.97C1079.25 1020.68 1041.21 943.709 1039.67 940.346C1038.65 938.552 1039.42 936.236 1041.46 935.19C1043.26 934.168 1045.57 934.94 1046.6 936.983C1046.6 937.232 1056.11 956.562 1069.98 975.592C1087.72 1000.3 1104.43 1013.7 1118.33 1014.2C1120.4 1014.2 1122.19 1016 1121.95 1018.31C1121.67 1020.43 1120.15 1021.97 1118.08 1021.97Z" fill="#010101"/>
<path d="M1215.78 1035.62C1194.7 1026.11 1184.42 1111.84 1184.42 1111.84C1184.42 1111.84 1251 1117 1251.52 1111.84C1254.86 1091.74 1252.29 1051.56 1215.78 1035.62Z" fill="#010101"/>
<path d="M1188.8 1108.21C1214.26 1110 1241.51 1111.05 1248.18 1109.5C1248.96 1103.33 1249.98 1088.65 1245.1 1073.46C1239.69 1057.24 1229.4 1045.91 1214.23 1039.21C1212.94 1038.69 1211.92 1038.69 1210.62 1039.46C1200.61 1044.89 1192.14 1083 1188.8 1108.21ZM1231.99 1118C1221.46 1118 1206.29 1117.22 1184.17 1115.68C1183.15 1115.68 1182.1 1115.16 1181.6 1114.39C1181.1 1113.61 1180.58 1112.59 1180.83 1111.55C1181.6 1104.6 1189.32 1042.8 1207.06 1032.76C1210.4 1030.96 1214.01 1030.69 1217.6 1032.23C1255.38 1048.72 1259.24 1090.42 1255.66 1112.57C1255.13 1114.66 1254.86 1118 1231.99 1118Z" fill="black"/>
<path d="M593.272 1420.37C596.709 1467.18 625.031 1513.86 638.731 1531.42L644.959 1526.56C631.682 1509.57 604.406 1464.36 601.143 1419.8L593.272 1420.37ZM630.187 1299.71C623.288 1310.15 613.224 1328.56 605.328 1350.13C597.432 1371.67 591.553 1396.73 593.272 1420.37L601.143 1419.8C599.524 1397.73 605.029 1373.89 612.726 1352.84C620.423 1331.84 630.187 1313.98 636.763 1304.07L630.187 1299.71ZM638.731 1531.42C640.076 1533.14 642.542 1533.43 644.261 1532.09C645.98 1530.74 646.279 1528.28 644.934 1526.56L638.731 1531.42ZM636.763 1304.07C637.959 1302.25 637.461 1299.81 635.642 1298.59C633.824 1297.4 631.383 1297.89 630.162 1299.71L636.763 1304.07Z" fill="black"/>
<path d="M281.259 952.476C281.259 952.476 280.313 956.536 285.867 962.315C291.397 968.069 306.617 966.5 311.873 972.03C317.128 977.56 318.598 991.434 324.203 999.729C329.807 1008.05 337.081 1011.21 337.081 1011.21L394.148 955.117L321.886 821.628C321.886 821.628 285.593 753.476 281.209 750.786C276.825 748.096 269.901 763.963 270.847 781.649C271.819 799.359 281.06 879.168 281.259 904.127C281.459 929.111 281.259 952.476 281.259 952.476Z" fill="#EF4056"/>
<path d="M273.861 750.015C273.861 750.015 294.536 763.565 319.196 828.255C343.756 892.62 394.521 970.735 389.639 962.316C384.558 953.573 395.393 969.988 394.148 955.117C392.902 940.246 318.175 780.753 296.304 757.014C288.832 748.894 280.387 737.759 280.387 744.46C280.387 751.185 273.861 750.015 273.861 750.015Z" fill="#FCB643"/>
<path d="M356.411 988.17C356.411 988.17 372.901 1000.9 386.551 1024.06C400.201 1047.23 414.325 1064.34 414.325 1064.34L472.537 1000.52L387.124 813.307C387.124 813.307 376.612 803.095 375.043 813.307C374.246 818.414 372.901 849.974 368.467 892.319C367.445 902.034 395.194 933.519 394.248 942.636C391.034 973.449 356.411 988.17 356.411 988.17Z" fill="#EF4056"/>
<path d="M376.213 819.337C376.213 819.337 397.834 863.152 409.691 891.648C421.548 920.144 426.031 938.154 436.867 959.476C447.678 980.798 459.908 1010.51 461.353 1014.05C462.797 1017.59 472.138 1012.26 472.537 1002.97C472.936 993.676 445.71 926.147 436.867 907.341C428.024 888.534 406.378 833.037 399.03 819.312C391.682 805.612 387.123 788.873 380.298 793.63C373.473 798.413 371.804 807.579 376.213 819.337Z" fill="#FCB643"/>
<path d="M314.114 926.221C319.395 913.742 334.889 919.097 336.682 929.186C338.451 939.274 334.316 946.398 325.398 946.398C316.481 946.398 307.588 941.64 314.114 926.221Z" fill="#95D2FF"/>
<path d="M571.825 1310.02C571.825 1310.02 530.326 1307.76 509.751 1316.08C487.432 1325.12 552.321 1355.71 566.843 1361.83" stroke="black" stroke-width="7.47276" stroke-miterlimit="10" stroke-linecap="round" stroke-linejoin="round"/>
<path d="M333.992 990.661C333.992 990.661 372.128 978.555 389.639 962.314C407.15 946.074 376.014 914.339 358.503 877.349C340.991 840.384 323.48 788.149 299.443 757.013C275.405 725.876 268.431 745.853 271.37 792.832C274.309 839.811 280.661 883.203 281.458 929.11C281.458 929.11 270.772 993.202 244.045 1038.71" stroke="black" stroke-width="7.47276" stroke-miterlimit="10" stroke-linecap="round" stroke-linejoin="round"/>
<path d="M194.301 1157.4C194.301 1157.4 256.848 1077.37 306.616 1035.27C356.385 993.178 389.639 962.315 389.639 962.315" stroke="black" stroke-width="7.47276" stroke-miterlimit="10" stroke-linecap="round" stroke-linejoin="round"/>
<path d="M367.47 1113.91C367.47 1113.91 401.695 1075.4 431.238 1045.24C446.507 1029.64 464.168 1016.27 467.506 1011.61C477.245 997.985 475.277 996.79 459.734 958.479C444.166 920.169 416.143 861.757 409.417 846.811C389.216 801.875 381.893 764.486 373.947 822.873C365.228 886.965 368.516 894.786 368.516 894.786" stroke="black" stroke-width="7.47276" stroke-miterlimit="10" stroke-linecap="round" stroke-linejoin="round"/>
<path d="M288.857 1051.31L384.234 1125.47" stroke="black" stroke-width="7.47276" stroke-miterlimit="10" stroke-linecap="round" stroke-linejoin="round"/>
<path d="M274.384 921.987C274.384 921.987 251.069 889.032 241.553 850.124C232.038 811.216 265.616 852.964 281.259 923.332" stroke="black" stroke-width="7.47276" stroke-miterlimit="10" stroke-linecap="round" stroke-linejoin="round"/>
<path d="M281.259 923.308C281.259 923.308 256.151 917.056 222.972 908.96C189.792 900.865 191.412 878.82 214.079 886.592C236.721 894.413 281.259 923.308 281.259 923.308Z" stroke="black" stroke-width="7.47276" stroke-miterlimit="10" stroke-linecap="round" stroke-linejoin="round"/>
</svg>