/* XPM */
static char * mozicon16_xpm[] = {
"16 16 137 2",
"  	c None",
". 	c #388BBF",
"+ 	c #59ADD6",
"@ 	c #68CEEF",
"# 	c #62CCEE",
"$ 	c #45AAD7",
"% 	c #3578AF",
"& 	c #4A93C3",
"* 	c #5EA9D2",
"= 	c #72D1EF",
"- 	c #6DCCEC",
"; 	c #4B9FCE",
"> 	c #3483BA",
", 	c #1E67A5",
"' 	c #1B6BA5",
") 	c #2F7AB0",
"! 	c #48B9E0",
"~ 	c #5CC2E5",
"{ 	c #6ED0EE",
"] 	c #6FC9E9",
"^ 	c #4994C5",
"/ 	c #3783B9",
"( 	c #1E5D9D",
"_ 	c #1463A1",
": 	c #028DC4",
"< 	c #128DC3",
"[ 	c #27ABD7",
"} 	c #3CB8E0",
"| 	c #4EC0E5",
"1 	c #5BC3E6",
"2 	c #50A2CE",
"3 	c #3B7EB5",
"4 	c #3C93C4",
"5 	c #2164A1",
"6 	c #145A9A",
"7 	c #0E8FC4",
"8 	c #007EBA",
"9 	c #0694C8",
"0 	c #1896C7",
"a 	c #2B99C9",
"b 	c #3CB7DE",
"c 	c #48B9DF",
"d 	c #3E95C5",
"e 	c #2E71AB",
"f 	c #399DCA",
"g 	c #34A9D4",
"h 	c #2387BE",
"i 	c #1388C0",
"j 	c #0059A1",
"k 	c #005C9E",
"l 	c #00498B",
"m 	c #095897",
"n 	c #1869A3",
"o 	c #289CCA",
"p 	c #34B1DA",
"q 	c #3BB3DB",
"r 	c #3BB3DA",
"s 	c #35AFD7",
"t 	c #2BA2CF",
"u 	c #1E6AA2",
"v 	c #106AA7",
"w 	c #0258A0",
"x 	c #00357F",
"y 	c #002D71",
"z 	c #003175",
"A 	c #013A7E",
"B 	c #084889",
"C 	c #1577AF",
"D 	c #1FA1CF",
"E 	c #26A3D1",
"F 	c #28A2CF",
"G 	c #269ACA",
"H 	c #2088BE",
"I 	c #174784",
"J 	c #0B1F5F",
"K 	c #012568",
"L 	c #00206A",
"M 	c #00185A",
"N 	c #001F62",
"O 	c #002569",
"P 	c #002C70",
"Q 	c #0567A7",
"R 	c #0D81BB",
"S 	c #1485BD",
"T 	c #1883BC",
"U 	c #177DB7",
"V 	c #144A88",
"W 	c #0C1D5C",
"X 	c #030B47",
"Y 	c #00023B",
"Z 	c #00207A",
"` 	c #002072",
" .	c #00236B",
"..	c #001556",
"+.	c #001B5E",
"@.	c #003D81",
"#.	c #01599E",
"$.	c #04559E",
"%.	c #0761A6",
"&.	c #085499",
"*.	c #061958",
"=.	c #020843",
"-.	c #000137",
";.	c #001C79",
">.	c #00155D",
",.	c #000945",
"'.	c #000B49",
").	c #000E4C",
"!.	c #002367",
"~.	c #002A6F",
"{.	c #003E8B",
"].	c #003787",
"^.	c #00175C",
"/.	c #000035",
"(.	c #000030",
"_.	c #000E67",
":.	c #00043B",
"<.	c #000339",
"[.	c #00043C",
"}.	c #00053E",
"|.	c #00063F",
"1.	c #000E4F",
"2.	c #00247E",
"3.	c #00166A",
"4.	c #00002E",
"5.	c #00014F",
"6.	c #000029",
"7.	c #00012F",
"8.	c #000953",
"9.	c #000E6E",
"0.	c #000A6C",
"a.	c #000563",
"b.	c #00002F",
"c.	c #00001D",
"d.	c #000025",
"e.	c #000040",
"f.	c #000033",
"                                ",
"          . + @ # $             ",
"        % & * = - ; > ,         ",
"      ' ) ! ~ { ] ^ / ( _       ",
"    : < [ } | 1 2 3 4 5 6 7     ",
"    8 9 0 a b c d e f g h i     ",
"  j k l m n o p q r s t u v w   ",
"  x y z A B C D E F G H I J K   ",
"  L M N O P Q R S T U V W X Y   ",
"  Z `  ...+.@.#.$.%.&.*.=.-.    ",
"    ;.>.,.'.).!.~.{.].^./.(.    ",
"      _.:.<.[.}.|.1.2.3.4.      ",
"      5.6.(.4.7.8.9.0.a.        ",
"          b.b.c.d.e.f.          ",
"                                ",
"                                "};
