/* XPM */
static char *pixmap[] = {
/* width height ncols cpp */
"32 32 256 2",
  /* Colors */
  "00 c #000000",
  "01 c #FFFFFF",
  "02 c #EFF7F7",
  "03 c #6B94B5",
  "04 c #5A7B9C",
  "05 c #527394",
  "06 c #425A73",
  "07 c #101010",
  "08 c #EFEFF7",
  "09 c #101829",
  "0A c #CED6E7",
  "0B c #000818",
  "0C c #8494B5",
  "0D c #C6CEDE",
  "0E c #63738C",
  "0F c #8C9CB5",
  "10 c #5A6B84",
  "11 c #9CADC6",
  "12 c #31425A",
  "13 c #4A6384",
  "14 c #455C7A",
  "15 c #394B64",
  "16 c #3D5069",
  "17 c #526B8C",
  "18 c #516A8B",
  "19 c #4E6686",
  "1A c #5A7394",
  "1B c #637B9C",
  "1C c #6B84A5",
  "1D c #738CAD",
  "1E c #52637B",
  "1F c #849CBD",
  "20 c #8CA5C6",
  "21 c #6384AD",
  "22 c #6B8CB5",
  "23 c #7394BD",
  "24 c #7B9CC6",
  "25 c #84A5CE",
  "26 c #8CADD6",
  "27 c #101821",
  "28 c #3D4F64",
  "29 c #9CC6F7",
  "2A c #D6DEE7",
  "2B c #081018",
  "2C c #213142",
  "2D c #344C65",
  "2E c #38516B",
  "2F c #4A6B8C",
  "30 c #39526B",
  "31 c #638CB5",
  "32 c #29394A",
  "33 c #527393",
  "34 c #6B94BD",
  "35 c #4B6885",
  "36 c #324457",
  "37 c #739CC6",
  "38 c #7BA5CE",
  "39 c #6384A5",
  "3A c #84ADD6",
  "3B c #6B8CAD",
  "3C c #7394B5",
  "3D c #232D37",
  "3E c #84A5C6",
  "3F c #94B5D6",
  "40 c #738CA5",
  "41 c #7B94AD",
  "42 c #849CB5",
  "43 c #9CB5CE",
  "44 c #A5BDD6",
  "45 c #8494A5",
  "46 c #424A52",
  "47 c #A5B5C6",
  "48 c #ADBDCE",
  "49 c #CED6DE",
  "4A c #182129",
  "4B c #4A637B",
  "4C c #394A5A",
  "4D c #526373",
  "4E c #5A6B7B",
  "4F c #738494",
  "50 c #B5C6D6",
  "51 c #BDCEDE",
  "52 c #4A6A86",
  "53 c #73A5CE",
  "54 c #638CAD",
  "55 c #7BADD6",
  "56 c #516F88",
  "57 c #739CBD",
  "58 c #526F87",
  "59 c #8CB5D6",
  "5A c #67849C",
  "5B c #A9CAE7",
  "5C c #5A84A5",
  "5D c #4A6B84",
  "5E c #52738C",
  "5F c #5A7B94",
  "60 c #7BA5C6",
  "61 c #6B8CA5",
  "62 c #84B5D6",
  "63 c #425A6B",
  "64 c #324451",
  "65 c #5A7384",
  "66 c #9CB5C6",
  "67 c #DAEBF7",
  "68 c #527B94",
  "69 c #4A6373",
  "6A c #526B7B",
  "6B c #94ADBD",
  "6C c #8CBDD6",
  "6D c #475A63",
  "6E c #A5C6D6",
  "6F c #B5C6CE",
  "70 c #11181B",
  "71 c #94C6D6",
  "72 c #BDE7E7",
  "73 c #E7EFEF",
  "74 c #484915",
  "75 c #FFFC00",
  "76 c #FFFF00",
  "77 c #FAF900",
  "78 c #0C0C00",
  "79 c #FFFA00",
  "7A c #FFF800",
  "7B c #FFF700",
  "7C c #F7F200",
  "7D c #F7EF00",
  "7E c #F3EC00",
  "7F c #EFEA00",
  "80 c #EDE600",
  "81 c #E8E000",
  "82 c #E5DD00",
  "83 c #E2DA00",
  "84 c #DAD200",
  "85 c #514E00",
  "86 c #FFF200",
  "87 c #F9EC00",
  "88 c #F3E800",
  "89 c #F1E400",
  "8A c #EDE000",
  "8B c #E9DD00",
  "8C c #E4D900",
  "8D c #E3D700",
  "8E c #DFD600",
  "8F c #DED300",
  "90 c #DDD100",
  "91 c #DACF00",
  "92 c #D9CE00",
  "93 c #D4C900",
  "94 c #CFC500",
  "95 c #C5BA00",
  "96 c #B4AC00",
  "97 c #B0A700",
  "98 c #9A9300",
  "99 c #958D00",
  "9A c #8E8700",
  "9B c #736E00",
  "9C c #635E00",
  "9D c #5C5700",
  "9E c #4D4900",
  "9F c #434000",
  "A0 c #EBDF01",
  "A1 c #E9DF01",
  "A2 c #D1C701",
  "A3 c #AEA501",
  "A4 c #DDD203",
  "A5 c #272501",
  "A6 c #BDB507",
  "A7 c #E7CC00",
  "A8 c #171506",
  "A9 c #FDD900",
  "AA c #FCD400",
  "AB c #CEB335",
  "AC c #8F7928",
  "AD c #B99D35",
  "AE c #ECC645",
  "AF c #F3C643",
  "B0 c #FBCD46",
  "B1 c #F1C243",
  "B2 c #EEBE3F",
  "B3 c #C29834",
  "B4 c #906D26",
  "B5 c #060503",
  "B6 c #C28D31",
  "B7 c #FFBB42",
  "B8 c #FDB43F",
  "B9 c #F1AE3D",
  "BA c #F7A93A",
  "BB c #E9A53B",
  "BC c #090704",
  "BD c #F7A53A",
  "BE c #C1822E",
  "BF c #915D20",
  "C0 c #FC9E38",
  "C1 c #5C2E00",
  "C2 c #FD9A36",
  "C3 c #F79535",
  "C4 c #8B551E",
  "C5 c #BC6E28",
  "C6 c #E88C35",
  "C7 c #E88B35",
  "C8 c #DE8734",
  "C9 c #934400",
  "CA c #E9822E",
  "CB c #CE7329",
  "CC c #BC6B25",
  "CD c #FC9034",
  "CE c #E88733",
  "CF c #92511E",
  "D0 c #E78131",
  "D1 c #FC8331",
  "D2 c #87461A",
  "D3 c #EA7C2E",
  "D4 c #BC6425",
  "D5 c #FC7C2F",
  "D6 c #C15F24",
  "D7 c #934B1C",
  "D8 c #BC5E24",
  "D9 c #BD6329",
  "DA c #FE772D",
  "DB c #7B4221",
  "DC c #792A00",
  "DD c #FE752B",
  "DE c #FF732C",
  "DF c #E8692A",
  "E0 c #7B3918",
  "E1 c #BD5A29",
  "E2 c #FF6D2A",
  "E3 c #F76D2B",
  "E4 c #BD5221",
  "E5 c #F66327",
  "E6 c #FF6A29",
  "E7 c #F55B25",
  "E8 c #E85923",
  "E9 c #FF6227",
  "EA c #FF6328",
  "EB c #BD4A21",
  "EC c #BD4218",
  "ED c #FE5A26",
  "EE c #7B3118",
  "EF c #E84F21",
  "F0 c #BD4221",
  "F1 c #B53918",
  "F2 c #F24C21",
  "F3 c #E4461F",
  "F4 c #73524A",
  "F5 c #AD3118",
  "F6 c #7B2918",
  "F7 c #732918",
  "F8 c #DA391A",
  "F9 c #B53118",
  "FA c #521810",
  "FB c #732118",
  "FC c #7B2118",
  "FD c #020101",
  "FE c #C2C2C2",
  ".. s None c None",
  "..44390517171705050505050505050505050505050505051A0404041A4B4E..",
  "5B723B4B69694D6A101010101010101010101010101010100E5A0C201D4B3246",
  "265B4701010101010101010101010101010101010101010101010101014F2C12",
  "575F01676C3A5337373737373737373737375757575757230321045D013F133D",
  "0365016E715537340303030303030303030303030303223139685D06015C3070",
  "3C6A0171592A6702432A0251667302482121212139395C040513060122052C00",
  "231E016C552A0202472A02026F2A02020404040404055E5D4B06013439152B..",
  "241E0159383E02025A61020804040273040505055E2F130663013403062700..",
  "601E016238430250050F020D05110248050505172F130663013403064A00....",
  "251E01623850024205470247056F026B0505172F130663013403064A0007....",
  "251E0162530A0240050D02420549024105172F130663013403064AFDDB07....",
  "251E01625373021B0573021C0573021B172F130663013403064ABCC8DB07....",
  "251E016253310405050505050505051852140000003403064ABCB9C8DB07....",
  "251E0162533104050505050505051900009492A4A6006D4ABCB1B9C6E007....",
  "251E01625331040505050505335800A38A8C7E7E8D8C0074AEB1B7C7E007....",
  "251E016253310405050505052800879A9E9E75767B8B8FFDABB0B7C6E007....",
  "251E0162533104050505051600A1938686869A8699988790FDB2B8C7E007....",
  "251E0162533104050505172D008D978585967B7BA8857C818200BDCEE007....",
  "251E01625331040505172E00A27F7780969B75799CA57C7F9100C0CAEE07....",
  "251E016253310405172F150084777676757776757B7975888300C2CAEE07....",
  "251E01625331045E2F133600A0A67D75767576767676767D8300C2D0F707....",
  "251E016253310417130664FE00869F96847A7A7A79797B828E00CDD3EE07....",
  "251E0162375405130663FE3500978C009BA7A9A9AA9D989000CAD1DFF607....",
  "254E016237392F14630134563D00918AFDDCC9C9C10089A200D1D5DFF607....",
  "2510013A340413060134033670A500918C00000000869400D3D5DDE8F607....",
  "250E0138545E06013403064AB5ACAB00918A89888B9578D2D5DAE6E8F607....",
  "25400134044B013403064AB5ADADACB40000000000CFD7DADEE2E9EFF607....",
  "3C1F01395D013403064AA8AFAFB3B6BEBFC4C4CFD7D6DEE2E6EAEDF3FB07....",
  "3C3F0101013422064AB5BBBBBABDC3C5CCD4D4D8E3E3E5E5E7E7F2F8FA07....",
  "542945222205304A00CBCBD9D9D9E1E4E4E4EBEBEBF0ECF1F1F9F5FCF407....",
  "4C172D1330322700070707070707070707070707070707070707070707......",
  "..4C090B4A2B....................................................",
};
