/* XPM */
static char * default_xpm[] = {
"32 32 256 2",
"  	c None",
". 	c #00008B",
"+ 	c #00068D",
"@ 	c #00088E",
"# 	c #000990",
"$ 	c #0302B3",
"% 	c #000A91",
"& 	c #140099",
"* 	c #000C93",
"= 	c #0C00BC",
"- 	c #0000E0",
"; 	c #1700A9",
"> 	c #0000E9",
", 	c #1000C5",
"' 	c #16088C",
") 	c #0E08AD",
"! 	c #0013A6",
"~ 	c #0804E3",
"{ 	c #0011B7",
"] 	c #1B0B8F",
"^ 	c #0F1290",
"/ 	c #110DA7",
"( 	c #110F9F",
"_ 	c #000AE9",
": 	c #0F06E4",
"< 	c #131492",
"[ 	c #161593",
"} 	c #1408E5",
"| 	c #181694",
"1 	c #0D1D97",
"2 	c #1C1896",
"3 	c #101E98",
"4 	c #131E99",
"5 	c #1E1997",
"6 	c #0119EA",
"7 	c #161F9A",
"8 	c #2415AF",
"9 	c #181AC0",
"0 	c #1B19C9",
"a 	c #282097",
"b 	c #201EBB",
"c 	c #212599",
"d 	c #2A2198",
"e 	c #241AD4",
"f 	c #22269A",
"g 	c #231EC4",
"h 	c #1521DE",
"i 	c #24279B",
"j 	c #26289C",
"k 	c #1B21E8",
"l 	c #2C19E7",
"m 	c #1C24D8",
"n 	c #28299E",
"o 	c #2A2AA0",
"p 	c #2022E9",
"q 	c #0E2BEC",
"r 	c #2127D3",
"s 	c #2D23CA",
"t 	c #2E21D2",
"u 	c #2D2D9B",
"v 	c #2D2BA8",
"w 	c #2E2E9C",
"x 	c #2624EC",
"y 	c #2629D5",
"z 	c #302F9E",
"A 	c #31309F",
"B 	c #292CCF",
"C 	c #2B26EE",
"D 	c #3231A0",
"E 	c #3432A1",
"F 	c #3533A2",
"G 	c #2E2AE8",
"H 	c #3633A3",
"I 	c #2E37A4",
"J 	c #3038A5",
"K 	c #312BE9",
"L 	c #2532EB",
"M 	c #3139A6",
"N 	c #3233C7",
"O 	c #332CEA",
"P 	c #2732ED",
"Q 	c #3A36A6",
"R 	c #2A33EE",
"S 	c #3C39A2",
"T 	c #2B35E7",
"U 	c #363AB0",
"V 	c #3733D7",
"W 	c #3D3AA3",
"X 	c #3F3BA4",
"Y 	c #393FA6",
"Z 	c #3D33E9",
"` 	c #3B41A8",
" .	c #3339EB",
"..	c #343BE5",
"+.	c #3F36E4",
"@.	c #363AED",
"#.	c #383BEE",
"$.	c #413FC4",
"%.	c #4142B8",
"&.	c #4844A7",
"*.	c #3C3EE9",
"=.	c #473BE9",
"-.	c #4349AA",
";.	c #4548B1",
">.	c #4341F5",
",.	c #4746EB",
"'.	c #4850C7",
").	c #4D53AF",
"!.	c #5453E2",
"~.	c #4E56F1",
"{.	c #5056F9",
"].	c #5855EC",
"^.	c #605CB5",
"/.	c #5954F3",
"(.	c #5F5CEC",
"_.	c #6163C2",
":.	c #5C62F0",
"<.	c #6665CB",
"[.	c #6965D3",
"}.	c #6566E0",
"|.	c #676BC4",
"1.	c #6567FE",
"2.	c #6C70C9",
"3.	c #7071BD",
"4.	c #6A71F3",
"5.	c #6C6EFF",
"6.	c #7472EF",
"7.	c #7672F6",
"8.	c #7779D4",
"9.	c #7078F3",
"0.	c #7B78E1",
"a.	c #7A7AF0",
"b.	c #7F7EE0",
"c.	c #817FE2",
"d.	c #8583C5",
"e.	c #827FFD",
"f.	c #41A0FF",
"g.	c #8586E2",
"h.	c #8785E8",
"i.	c #8A8AC6",
"j.	c #46A5FF",
"k.	c #8886FE",
"l.	c #8E8ECA",
"m.	c #4CACFF",
"n.	c #8C8CFD",
"o.	c #55A9F8",
"p.	c #56A8FE",
"q.	c #908DF1",
"r.	c #58ABFB",
"s.	c #8F8FFF",
"t.	c #5AAAFF",
"u.	c #5BAEFD",
"v.	c #9394F1",
"w.	c #8F95F8",
"x.	c #5DAFFF",
"y.	c #65AEF8",
"z.	c #989CD1",
"A.	c #9396FF",
"B.	c #5FB1FF",
"C.	c #67AFF9",
"D.	c #60B2FF",
"E.	c #9B98FD",
"F.	c #6AB2FC",
"G.	c #69B5F8",
"H.	c #6BB3FE",
"I.	c #979DFF",
"J.	c #73B3F8",
"K.	c #6DB5FF",
"L.	c #A3A2D2",
"M.	c #6EB6FF",
"N.	c #9F9EFD",
"O.	c #6DB8FB",
"P.	c #6FB7FF",
"Q.	c #6FBAFD",
"R.	c #77B7FC",
"S.	c #A2A1FF",
"T.	c #71BBFF",
"U.	c #77BAF8",
"V.	c #79B8FE",
"W.	c #A8A8D8",
"X.	c #73BDFF",
"Y.	c #AAA9DA",
"Z.	c #79BCFA",
"`.	c #74BEFF",
" +	c #7BBDFB",
".+	c #83BEF7",
"++	c #7EC0FE",
"@+	c #ADB0DA",
"#+	c #7FC1FF",
"$+	c #80C2FF",
"%+	c #ADADF8",
"&+	c #86C1FA",
"*+	c #88C3FC",
"=+	c #8AC5FE",
"-+	c #8FC4F7",
";+	c #8BC6FF",
">+	c #91C6FA",
",+	c #92C7FB",
"'+	c #BABADE",
")+	c #B8B7F5",
"!+	c #94C9FC",
"~+	c #96CAFE",
"{+	c #BAB9F8",
"]+	c #9CCBF9",
"^+	c #99CEFF",
"/+	c #A5CEF7",
"(+	c #A1CFFE",
"_+	c #A4D3FF",
":+	c #A8D2FA",
"<+	c #C7C6F8",
"[+	c #ACD6FF",
"}+	c #CCCCE3",
"|+	c #B1D6F9",
"1+	c #B3D8FB",
"2+	c #B5D9FD",
"3+	c #B9DAF7",
"4+	c #B7DBFF",
"5+	c #D2D2E9",
"6+	c #BCDCF9",
"7+	c #B9DEFF",
"8+	c #BDDEFB",
"9+	c #BFE0FD",
"0+	c #D6D5FA",
"a+	c #D7D7EF",
"b+	c #C4E0F8",
"c+	c #D8D7FC",
"d+	c #C2E2FF",
"e+	c #C7E3FB",
"f+	c #DAD9FE",
"g+	c #DFDBED",
"h+	c #DFDAF9",
"i+	c #C9E5FD",
"j+	c #D0E4FE",
"k+	c #DDE1F2",
"l+	c #DDE0FE",
"m+	c #D3E7FF",
"n+	c #CEEAFF",
"o+	c #D2EAFC",
"p+	c #E1E5F5",
"q+	c #E4E3FB",
"r+	c #DDECFF",
"s+	c #DCF0FD",
"t+	c #ECE9FB",
"u+	c #ECECF7",
"v+	c #ECF0FF",
"w+	c #E7F3FF",
"x+	c #EAF3FB",
"y+	c #F0F0FB",
"z+	c #F3F1F5",
"A+	c #F2F3FD",
"B+	c #EFF7FF",
"C+	c #F6F6FF",
"D+	c #F4F9FC",
"E+	c #F6FBFE",
"F+	c #FCFAFE",
"G+	c #FEFFFC",
"                                                                ",
"                                                                ",
"                      1 j F ` Y X X W M n 3 ^                   ",
"                  1 S &.` Y X X W M I S I D z a '               ",
"                S X X &.Y S W J S A A u i.t+E+E+G+z.            ",
"            [ W X Y W J S I F I w D n g+G+U.T.M.e+G+).          ",
"            I Y S M S E I I u z u w @+F+M.4+o+m+x.G+l.^         ",
"          w S I I S A D w u u z n ^.F+*+M.7+4+[+X.G+&.| '       ",
"        4 I S A A D w u n j f i f '+B+M.4+4+[+;+!+y+d.^ ^ @     ",
"      ' S D A A z u z n n f c c w G+4+M.2+*+=+.+V.e+5+^ @ '     ",
"      5 A z u n n f i f d 7 7 7 3.G+B.(+^+~+H.!+:+(+F+-.@ @ +   ",
"    @ u u n i z i c d a 7 a a a W.B+M.~+;+++C.-+(+&+D+L.+ ' '   ",
"    ^ n n i d c a a a a 1 [ < < k+7+x.$+V.V.o..+2+$+4+k++ + @ . ",
"    < i j c c a 4 1 1 1 ^ 1 ^ &.G+M.M.M.M.p.++~+3+6+$+u+@ ^ ^ ' ",
"    M <.h.v.g.8.2.|.|.^.;.Q | W.B+x.M.x.x.x.J.V.2+j+ +z+%.[.0.v ",
"    0.S.N.I.I.N.I.q.g.c.c.b.v.G+4+M.t.x.x.C..+~+3+j+;+D+E.I.I.'.",
"    }.n.k.k.k.s.A.A.I.w.A.A.c+G+B.B.x.x.p..+U.-+j+3+$+A+n.e.e.$.",
"    !.5.5.5.5./.>./.7.s.A.S.E+!+x.B.B.C.t.Z.-+/+3+U.j+%+>.{.1.$.",
"    0 G q k } } } _ - } #.f+B+x.x.M.P.J.J.J.]+6+/+++q+].k k q 0 ",
"    = - - } } } - - > } 6.G+B.B.V.M.H.G.o.~+/+(+V.F+6.k k k G / ",
"    $ } } - } _ > - > L C+m+t.X.M.X.U.V..+2+-+V.B+<+h G K G q   ",
"      - - } - - ~ ~ k h+w+m.V.x.C.J. +]+/+V. +E+0+ .C G K K g   ",
"      , > > > > > Z v+E+t.T.H.U..+/+3+.+C.2+G+{+k G G L L Z /   ",
"        - ~ ~ - Z u+D+u.++.+3+j+-+H.V.(+G+q+(.G O L L Z Z g     ",
"        ; > ~ +.l+B+f.t.U.J.T. +3+G+G+0+6.Z G L G Z Z +.+.&     ",
"          = ,.t+x+p.d+o+F+G+G+t+0+%+a.q O L L Z Z Z +.@.!       ",
"          Y.G+r+j.r+F+)+q.~.=.k k x G K G K Z T +.@.+.8         ",
"        G+E+;+B.x+v+:.l k k k C G G K Z L T T +.#...(           ",
"  G+G+G+e+ +m+G+}+t k k G G G G L L L Z  .=.@.*.B (             ",
"  G+(+!+9+F+G+      { e k G G G Z Z +. .=.#.V !                 ",
"  G+F+G+G+              / 9 s t s r B B 8 (                     ",
"                                                                "};
