/* XPM */
static char *icon32[] = {
/* columns rows colors chars-per-pixel */
"32 32 7 1",
"  c black",
". c #555500",
"X c #636D61",
"o c red",
"O c #FF8080",
"+ c gray100",
"@ c None",
/* pixels */
"@    @@  @@@  @@@@@@@@@@@@@@@@@@",
"      @   @   @@@@@@@@@@@@@@@@@@",
"  @@  @       @@@@oo@@@@@@@@@@@@",
"   @@@@  @ @  @@@oooo@@@@@@@@@@@",
"@   @@@  @@@  @@oooooo@@@@@@@@@@",
"@@   @@  @@@  @ooooooo@@@@@@@@@@",
"@@@   @  @@@  ooooooooo@@@@@@@@@",
"  @@  @  @@@  ooooooooo@@@@@@@@@",
"      @  @@@  oooooooooo@@@@@@@@",
"@    @@  @@o  oooooooooo@@@@@@@@",
"@@@@@@@@@@ooooooooooooooo@@@@@@@",
"@@@@@@@@@oooooooooooooooo@@@@@@@",
"@@@@@@@@oooooooooooooooooo@@@@@@",
"@@@@@@@ooooooooooooooooooo@@@@@@",
"@@@@@@ooooooooooooooooooooo@@@@@",
"@@@@@oooooooooooooooooooooo@@@@@",
"@@@@oooooooooooooo++oooooo++@@@@",
"@@@ooooooooooooooo++oooooo++o@@@",
"@@oooooooooooooooooO++++++Oooo@@",
"@oooooooooooooooooo++++++++oooo@",
"ooooooooooooooooooo+  ++  +ooooo",
"ooooooooooooooooooO++++++++Ooooo",
"@@@@@@@@@@@@@@  @@++++  ++++@@@@",
"@@@@@@@@@@@@@@  @++++++++++++@@@",
"@@@@@@@@@@@@@@  @+++ ++++ +++@@@",
"@@@@@@@@@@@@@@  @++++    ++++@@@",
"...............................@",
"@@............................@@",
"@@@@.........................@@@",
"@@@@@@......................@@@@",
"@@@@@@@@...................@@@@@",
"@@@@@@@@@@................@@@@@@"
};
