/* XPM */
static char * ico_16x16_xpm[] = {
"16 16 181 2",
"  	c None",
". 	c #1D1D96",
"+ 	c #2B2B9C",
"@ 	c #29299C",
"# 	c #27279B",
"$ 	c #1F1F96",
"% 	c #101091",
"& 	c #30309E",
"* 	c #4040A6",
"= 	c #3E3EA5",
"- 	c #3A3AA3",
"; 	c #3737A2",
"> 	c #3434A1",
", 	c #30309F",
"' 	c #2A2A9B",
") 	c #161693",
"! 	c #3C3CA4",
"~ 	c #3939A3",
"{ 	c #3636A2",
"] 	c #3333A0",
"^ 	c #2F2F9E",
"/ 	c #6B73C1",
"( 	c #DCEBFD",
"_ 	c #DEEFFF",
": 	c #DDE6F7",
"< 	c #111190",
"[ 	c #3838A3",
"} 	c #3535A1",
"| 	c #31319F",
"1 	c #2E2E9E",
"2 	c #4242A7",
"3 	c #E6F3FF",
"4 	c #BADCFF",
"5 	c #82C0FE",
"6 	c #B7B7DD",
"7 	c #171793",
"8 	c #08088C",
"9 	c #212198",
"0 	c #2D2D9D",
"a 	c #2A2A9C",
"b 	c #26269A",
"c 	c #232399",
"d 	c #8C9BD7",
"e 	c #DEEEFF",
"f 	c #91C7FE",
"g 	c #91C6FB",
"h 	c #F3F8FD",
"i 	c #0B0B8D",
"j 	c #29299B",
"k 	c #2C2C9D",
"l 	c #25259A",
"m 	c #222298",
"n 	c #1F1F97",
"o 	c #1B1B95",
"p 	c #9BCDFF",
"q 	c #66B2FE",
"r 	c #88C0F9",
"s 	c #CCE3FB",
"t 	c #7373BE",
"u 	c #05058A",
"v 	c #03038A",
"w 	c #3737A4",
"x 	c #242499",
"y 	c #1E1E96",
"z 	c #1A1A95",
"A 	c #8080C4",
"B 	c #D5EAFF",
"C 	c #7BBDFF",
"D 	c #59ABFE",
"E 	c #85BFFA",
"F 	c #C1DEF9",
"G 	c #8282C5",
"H 	c #121294",
"I 	c #2626A3",
"J 	c #5050C3",
"K 	c #9FA0FE",
"L 	c #9E9EFE",
"M 	c #9C9DFE",
"N 	c #9B9CFE",
"O 	c #9A9BFE",
"P 	c #9899FE",
"Q 	c #C7D1F9",
"R 	c #6BB5FE",
"S 	c #63B1FF",
"T 	c #6BB3FD",
"U 	c #88C0FA",
"V 	c #A6CFF8",
"W 	c #C2C2F7",
"X 	c #999AFE",
"Y 	c #7475E0",
"Z 	c #2222BD",
"` 	c #4444F1",
" .	c #4747F1",
"..	c #494AF1",
"+.	c #4747EF",
"@.	c #5959F3",
"#.	c #9292FC",
"$.	c #A1CEFF",
"%.	c #65B2FF",
"&.	c #73B9FE",
"*.	c #61ADF9",
"=.	c #A4CEFA",
"-.	c #C3DEFB",
";.	c #7979F5",
">.	c #4B4BF6",
",.	c #3E3EDC",
"'.	c #1010E5",
").	c #0D0DE5",
"!.	c #0A0AE5",
"~.	c #0606E4",
"{.	c #0303E4",
"].	c #B4C3FA",
"^.	c #76BAFF",
"/.	c #60AFFE",
"(.	c #A4CFFB",
"_.	c #97C8FA",
":.	c #B3D6F9",
"<.	c #CACEF9",
"[.	c #1E1EE7",
"}.	c #2323E7",
"|.	c #1B1BCA",
"1.	c #0707D2",
"2.	c #0505E4",
"3.	c #0202E4",
"4.	c #0101E4",
"5.	c #9397F5",
"6.	c #63B0FE",
"7.	c #6FB6FC",
"8.	c #6AB1F9",
"9.	c #B1D5FB",
"0.	c #CBE3FA",
"a.	c #C5CCF9",
"b.	c #2E2EE8",
"c.	c #2626E8",
"d.	c #2B2BE8",
"e.	c #1818B2",
"f.	c #0000B7",
"g.	c #5BACFD",
"h.	c #B1D5F9",
"i.	c #B2D5F9",
"j.	c #94C7FA",
"k.	c #CBDCFB",
"l.	c #999AF4",
"m.	c #3232E9",
"n.	c #2A2AE8",
"o.	c #2E2EE9",
"p.	c #2C2CD3",
"q.	c #0101C5",
"r.	c #737BF1",
"s.	c #6EB6FE",
"t.	c #C5D1FA",
"u.	c #C3CBF9",
"v.	c #A9A9F6",
"w.	c #8181F1",
"x.	c #3131E8",
"y.	c #2828E8",
"z.	c #2D2DE8",
"A.	c #3333E3",
"B.	c #1616A5",
"C.	c #AFCCF4",
"D.	c #A7D3FE",
"E.	c #B1C1F8",
"F.	c #1919E6",
"G.	c #2727E8",
"H.	c #2C2CE8",
"I.	c #3131E9",
"J.	c #3535E9",
"K.	c #2F2FD7",
"L.	c #0E0EA1",
"M.	c #FFFFFF",
"N.	c #C3E1FE",
"O.	c #D8ECFF",
"P.	c #0C0CB3",
"Q.	c #1C1CDB",
"R.	c #3030E9",
"S.	c #3434E9",
"T.	c #3535E3",
"U.	c #2727C7",
"V.	c #1818B9",
"W.	c #1C1CB9",
"X.	c #1E1EB9",
"          . + + @ # $           ",
"      % & * = - ; > , ' )       ",
"      ! ! ~ { ] ^ / ( _ : <     ",
"    ^ [ } | 1 + 2 3 4 5 6 7 8   ",
"  9 > , 0 a b c d e f g h 0 i   ",
"  j k @ l m n o ( p q r s t u v ",
"  w x 9 y z 7 A B C D E F G H I ",
"J K L M N O P Q R S T U V W X Y ",
"Z `  ...+.@.#.$.%.&.*.=.-.;.>.,.",
"  '.).!.~.{.].^./.(._.:.<.[.}.|.",
"  1.2.3.4.5.6.7.8.9.0.a.b.c.d.e.",
"  f.4.4.5.g.h.i.j.k.l.m.n.o.p.  ",
"    q.r.s.t.u.v.w.x.y.z.m.A.B.  ",
"    C.D.E.F.[.}.G.H.I.J.K.L.    ",
"M.N.O.  P.Q.c.d.R.S.T.U.        ",
"              V.W.X.            "};
