/* XPM */
static char *pixmap[] = {
/* width height ncols cpp */
"16 16 65 2",
  /* Colors */
  "00 c #D4DCE4",
  "01 c #72A0CD",
  "02 c #FF1200",
  "03 c #74A2D0",
  "04 c #3E5770",
  "05 c #2E4154",
  "06 c #6E9BC7",
  "07 c #415B76",
  "08 c #5F85AB",
  "09 c #6086AC",
  "0A c #45617D",
  "0B c #7DAEE0",
  "0C c #3D5770",
  "0D c #7CAEE0",
  "0E c #7BACDD",
  "0F c #557799",
  "10 c #6993BE",
  "11 c #7AABDC",
  "12 c #32465B",
  "13 c #5C80A5",
  "14 c #6D9AC5",
  "15 c #5C81A6",
  "16 c #709DCA",
  "17 c #5B7FA4",
  "18 c #6C97C2",
  "19 c #587B9E",
  "1A c #648CB3",
  "1B c #78A8D9",
  "1C c #5F84AB",
  "1D c #73A1D0",
  "1E c #34495F",
  "1F c #6992BD",
  "20 c #597DA1",
  "21 c #FF0500",
  "22 c #648CB5",
  "23 c #79A9D9",
  "24 c #3F5871",
  "25 c #FFB400",
  "26 c #2E4255",
  "27 c #FF9400",
  "28 c #FF9600",
  "29 c #344A5F",
  "2A c #5B80A4",
  "2B c #5F86AC",
  "2C c #405A73",
  "2D c #648DB4",
  "2E c #709ECA",
  "2F c #B7D0E9",
  "30 c #6892BC",
  "31 c #7DB0E2",
  "32 c #FF0100",
  "33 c #FF7000",
  "34 c #EE220A",
  "35 c #6E9AC5",
  "36 c #7DAFE1",
  "37 c #6D99C4",
  "38 c #FF0700",
  "39 c #56789B",
  "3A c #FFAD00",
  "3B c #800000",
  "3C c #577A9D",
  "3D c #00CC66",
  "3E c #000000",
  "3F c #FFFFFF",
  ".. s None c None",
  "..012E06143C3C3C3C3C3C3C3C070A..",
  "16013F3F3F3E3E3E3E3E3E3E3F3F1E12",
  "373F2F310D3E3F3F3F3F3F3E082B3F29",
  "1F3F0B36113E3F3D3D3D3F3E2A00153E",
  "3C3F0E231D3E3F3D3D3D3F3E002C3E..",
  "3C3F1B03183E3F3D3D3D3F3E0C3E3B..",
  "3C3F0335223E3F3D3D3D3F3E3E3A3B..",
  "3C3F06301C3E3F3D3D3D3F3E25273B..",
  "3C3F101A173E3F3D3D3D3F3E28333B..",
  "3C3F2D3E3E3E3F3D3D3D3F3E3E3E3B..",
  "3C3F093E3F3D3D3D3D3D3D3D3F3E3B..",
  "3C3F13203E3F3D3D3D3D3D3F3E343B..",
  "3C3F1939003E3F3D3D3D3F3E02383B..",
  "073F0F00043E3E3F3D3F3E0221323B..",
  "24263F043E3B3B3E3F3E3B3B3B3B....",
  "..05053E........3E..............",
};
