/* XPM */
static char *pixmap[] = {
/* width height ncols cpp */
"32 32 153 2",
  /* Colors */
  "00 c #84A5CE",
  "01 c #6B94BD",
  "02 c #5A6B84",
  "03 c #52637B",
  "04 c #84B5D6",
  "05 c #4A6384",
  "06 c #739CC6",
  "07 c #526B8C",
  "08 c #73A5CE",
  "09 c #638CB5",
  "0A c #4A6B8C",
  "0B c #182129",
  "0C c #425A6B",
  "0D c #6384A5",
  "0E c #739CBD",
  "0F c #6B8CB5",
  "10 c #E7EFEF",
  "11 c #D6DEE7",
  "12 c #4A637B",
  "13 c #6384AD",
  "14 c #7B3918",
  "15 c #52738C",
  "16 c #7BA5CE",
  "17 c #4A6B84",
  "18 c #A5B5C6",
  "19 c #BD5221",
  "1A c #7B4221",
  "1B c #BD6329",
  "1C c #638CAD",
  "1D c #060603",
  "1E c #39526B",
  "1F c #7394B5",
  "20 c #FFE24B",
  "21 c #526B7B",
  "22 c #081018",
  "23 c #5A6B7B",
  "24 c #5A7394",
  "25 c #E9A53B",
  "26 c #63738C",
  "27 c #C6CEDE",
  "28 c #F3C643",
  "29 c #CE7329",
  "2A c #8CB5D6",
  "2B c #29394A",
  "2C c #5A84A5",
  "2D c #849CB5",
  "2E c #395263",
  "2F c #7B3118",
  "30 c #738CA5",
  "31 c #9CB5CE",
  "32 c #84ADD6",
  "33 c #394A5A",
  "34 c #8CBDD6",
  "35 c #94B5D6",
  "36 c #7BADD6",
  "37 c #B5C6CE",
  "38 c #101821",
  "39 c #BD4A21",
  "3A c #7394BD",
  "3B c #B5C6D6",
  "3C c #637B9C",
  "3D c #213142",
  "3E c #F3CE46",
  "3F c #94C6D6",
  "40 c #4A6373",
  "41 c #ADBDCE",
  "42 c #6B8CA5",
  "43 c #FFB940",
  "44 c #1A170B",
  "45 c #425A7B",
  "46 c #101829",
  "47 c #6B84A5",
  "48 c #FFC845",
  "49 c #732118",
  "4A c #000818",
  "4B c #DEE7EF",
  "4C c #6B849C",
  "4D c #A5C6D6",
  "4E c #070503",
  "4F c #84A5C6",
  "50 c #FFAC3D",
  "51 c #73524A",
  "52 c #31425A",
  "53 c #F7A638",
  "54 c #314A63",
  "55 c #9CADC6",
  "56 c #FFB540",
  "57 c #BD5A29",
  "58 c #AD3118",
  "59 c #FFA339",
  "5A c #D6EFFF",
  "5B c #424A52",
  "5C c #7BA5C6",
  "5D c #8C9CB5",
  "5E c #F79535",
  "5F c #8494A5",
  "60 c #F78030",
  "61 c #A5C6E7",
  "62 c #5A7384",
  "63 c #394A63",
  "64 c #FFCD46",
  "65 c #8494B5",
  "66 c #E4461F",
  "67 c #F79134",
  "68 c #527B94",
  "69 c #7B94AD",
  "6A c #BDE7E7",
  "6B c #526373",
  "6C c #738CAD",
  "6D c #8CA5C6",
  "6E c #A5BDD6",
  "6F c #CED6DE",
  "70 c #FFD247",
  "71 c #B53118",
  "72 c #7B9CC6",
  "73 c #63849C",
  "74 c #94ADBD",
  "75 c #7B2118",
  "76 c #F7A93A",
  "77 c #212939",
  "78 c #9CB5C6",
  "79 c #FFC143",
  "7A c #BDCEDE",
  "7B c #849CBD",
  "7C c #85A2C0",
  "7D c #7197BE",
  "7E c #F78730",
  "7F c #F24C21",
  "80 c #6B8CAD",
  "81 c #101818",
  "82 c #ADCEE7",
  "83 c #CED6E7",
  "84 c #8CADD6",
  "85 c #5A7B94",
  "86 c #DA391A",
  "87 c #521810",
  "88 c #7B2918",
  "89 c #FF9D37",
  "8A c #9CC6F7",
  "8B c #F78D31",
  "8C c #EFEFF7",
  "8D c #738494",
  "8E c #6B94B5",
  "8F c #425A73",
  "90 c #EFF7F7",
  "91 c #5A7B9C",
  "92 c #101010",
  "93 c #527394",
  "94 c #000000",
  "95 c #FFFFFF",
  "96 c #00CC66",
  "97 c #000000",
  ".. s None c None",
  "..6E0D93070707939393939393939393939393939393939324919191241223..",
  "826A801240406B2102020202020202020202020202020202264C656D6C122B5B",
  "84611895959595959595959595959595959595959595959595959595958D3D52",
  "0E85955A34320806060606060606060606060E0E0E0E0E3A8E13911795350577",
  "8E62954D3F3606018E8E8E8E8E8E8E8E8E8E8E8E8E8E0F090D68178F952C1E81",
  "1F21953F2A114B903111907A78109041131313130D0D2C9193058F950F933D94",
  "3A0395343611909018119090371190909191919191931517128F95010D6322..",
  "7203952A164F90907342908C9191901091939393150A058F0C95018E8F3894..",
  "5C0395041631903B935D9027935590419394949494949494949494940B94....",
  "00039504163B902D93189018933790749394959595959595959595949492....",
  "00039504088390309327902D936F90699394959696969696969695941A92....",
  "000395040810903C931090479310903C0794959696969696969695941A92....",
  "000395040809919393939393939393070A94959696969696969695941A92....",
  "0003950408099193939393939393070A0594959696969696969695941492....",
  "00039504080991939393939393930A058F94959696969696969695941492....",
  "000395040809919393939393070A058F0C94959696969696969695941492....",
  "00039504080991939393930707058F0C9594959696969696969695941492....",
  "00039504080991939393070A058F0C950194959696969696969695941492....",
  "000395040809919393070A058F0C957D0194959696969696969695942F92....",
  "0003950408099193070A058F2E957C018F94959696969696969695942F92....",
  "00039504080991150A058F2E95019494949495969696969696969594949494..",
  "0003950408099107058F0C9501019595959595969696969696969595959595..",
  "00039504061C93058F0C95010F94959696969696969696969696969696969594",
  "00239504060D0A450C95018E8F0B9495969696969696969696969696969594..",
  "000295320191058F95018E8F0B1D20949596969696969696969696969594....",
  "002695161C158F95018E8F0B1D2020709495969696969696969696959492....",
  "00309501911295018E8F0B1D3E3E64795694959696969696969695948892....",
  "1F7B950D1795018E8F0B4428284843505989949596969696969594664992....",
  "1F35959595010F8F0B4E252576535E678B7E60949596969695947F868792....",
  "1C8A5F0F0F931E0B9429291B1B1B57191919393994959695947158755192....",
  "330754051E2B3894929292929292929292929292929495949292929292......",
  "..33464A0B22................................94..................",
};
