/* XPM */
static char *pixmap[] = {
/* width height ncols cpp */
"16 16 93 2",
  /* Colors */
  "00 c #D4DCE4",
  "01 c #557799",
  "02 c #6E9BC7",
  "03 c #74A2D0",
  "04 c #FF4100",
  "05 c #FF1200",
  "06 c #72A0CD",
  "07 c #415B76",
  "08 c #3E5770",
  "09 c #597DA1",
  "0A c #2E4154",
  "0B c #75A4D3",
  "0C c #FF947F",
  "0D c #FF0700",
  "0E c #B7D0E9",
  "0F c #FF0100",
  "10 c #FF6100",
  "11 c #587B9E",
  "12 c #32465B",
  "13 c #7CAEE0",
  "14 c #57799C",
  "15 c #74A3D2",
  "16 c #34495F",
  "17 c #7AABDC",
  "18 c #658EB6",
  "19 c #5C82A6",
  "1A c #344A5F",
  "1B c #7F7F7F",
  "1C c #5F85AB",
  "1D c #709DCA",
  "1E c #FFAB00",
  "1F c #6891BB",
  "20 c #6D9AC5",
  "21 c #79AADB",
  "22 c #6994BF",
  "23 c #45617D",
  "24 c #FFB57F",
  "25 c #73A1D0",
  "26 c #FF0500",
  "27 c #5B80A4",
  "28 c #FF8200",
  "29 c #6E9AC5",
  "2A c #FF937F",
  "2B c #FFC87F",
  "2C c #5C81A6",
  "2D c #6C97C2",
  "2E c #FF2600",
  "2F c #FF2700",
  "30 c #2E4255",
  "31 c #FFA27F",
  "32 c #FFD87F",
  "33 c #FFD67F",
  "34 c #FFC97F",
  "35 c #FF9000",
  "36 c #405A73",
  "37 c #FFA47F",
  "38 c #F9C905",
  "39 c #5C80A5",
  "3A c #5B81A6",
  "3B c #3F5871",
  "3C c #7BACDD",
  "3D c #6189B0",
  "3E c #6086AC",
  "3F c #6087AE",
  "40 c #78A8D9",
  "41 c #56789B",
  "42 c #79A9D9",
  "43 c #5E84AA",
  "44 c #648DB4",
  "45 c #6C97C3",
  "46 c #5B80A5",
  "47 c #FFB77F",
  "48 c #7DB0E2",
  "49 c #EDC311",
  "4A c #6D99C4",
  "4B c #6F9CC9",
  "4C c #5F86AC",
  "4D c #628AB2",
  "4E c #709ECA",
  "4F c #6992BD",
  "50 c #7DAFE1",
  "51 c #FF9600",
  "52 c #7DAEE0",
  "53 c #3D5770",
  "54 c #FF6900",
  "55 c #FF897F",
  "56 c #557899",
  "57 c #577A9D",
  "58 c #800000",
  "59 c #FFCC00",
  "5A c #000000",
  "5B c #FFFFFF",
  ".. s None c None",
  "..064E022057575757575757570723..",
  "1D065B5B5B5B5B5B5B5B5B5B5B5B1612",
  "4A5B0E4813210B4B22183D3F1C4C5B1A",
  "4F5B52501715021F4D43194627002C5A",
  "575B3C4225455B5B0914560100365A..",
  "575B40032D5B5A5B5B5B5B5B5B1B58..",
  "575B03295B5A595A5A5A5A5A5A3358..",
  "575B025B5A495959595959595A3458..",
  "575B5B5A59595959595959595A4758..",
  "575B445B5A385959595959595A3758..",
  "575B3E3A5B5A595A5A5A5A5A5A0C58..",
  "575B3909015B5A5B322B24312A5558..",
  "575B114100535B1E3554042F050D58..",
  "075B0100085A512810042E05260F58..",
  "3B305B085A585858585858585858....",
  "..0A0A5A........................",
};
