/* XPM */
static char *pixmap[] = {
/* width height ncols cpp */
"32 32 255 2",
  /* Colors */
  "00 c #FF772D",
  "01 c #313233",
  "02 c #FF732C",
  "03 c #555B61",
  "04 c #0E0F0E",
  "05 c #38352F",
  "06 c #84A5CE",
  "07 c #6B94B5",
  "08 c #52637B",
  "09 c #5A6B84",
  "0A c #84B5D6",
  "0B c #739CC6",
  "0C c #73A5CE",
  "0D c #638CB5",
  "0E c #425A73",
  "0F c #6B94BD",
  "10 c #6384A5",
  "11 c #526B8C",
  "12 c #739CBD",
  "13 c #C7C7C7",
  "14 c #8D8D8D",
  "15 c #6384AD",
  "16 c #4A637B",
  "17 c #4A6384",
  "18 c #E7EFEF",
  "19 c #8AA2C2",
  "1A c #F0F0F0",
  "1B c #7B2918",
  "1C c #6B8CB4",
  "1D c #D6DEE7",
  "1E c #F3F3F3",
  "1F c #7BA5CE",
  "20 c #8AA2C1",
  "21 c #8C8C8C",
  "22 c #182129",
  "23 c #4A6B84",
  "24 c #A5B5C6",
  "25 c #828C8C",
  "26 c #39526B",
  "27 c #BD6329",
  "28 c #7394B5",
  "29 c #828D8D",
  "2A c #BD5221",
  "2B c #454545",
  "2C c #BD4A21",
  "2D c #8CA4C3",
  "2E c #F9E6A2",
  "2F c #5A7394",
  "30 c #7394BD",
  "31 c #638CAD",
  "32 c #081018",
  "33 c #5A84A5",
  "34 c #8CBDD6",
  "35 c #9CB5CE",
  "36 c #52738C",
  "37 c #F4D29D",
  "38 c #CE7329",
  "39 c #29394A",
  "3A c #394A5A",
  "3B c #94B5D6",
  "3C c #5A6B7B",
  "3D c #8FA6C5",
  "3E c #B5C6CE",
  "3F c #C6CEDE",
  "40 c #94C6D6",
  "41 c #FF7D2F",
  "42 c #FF9937",
  "43 c #879FBE",
  "44 c #3B3B3B",
  "45 c #7BADD6",
  "46 c #424242",
  "47 c #2D2D2D",
  "48 c #B5C6D6",
  "49 c #526B7B",
  "4A c #84ADD6",
  "4B c #212E3F",
  "4C c #8CB5D6",
  "4D c #63738C",
  "4E c #B53918",
  "4F c #4A6373",
  "50 c #ADBDCE",
  "51 c #FE7D2F",
  "52 c #101821",
  "53 c #FCA93B",
  "54 c #738CA5",
  "55 c #849CB5",
  "56 c #BFBFBD",
  "57 c #6B849C",
  "58 c #647486",
  "59 c #8CA5C6",
  "5A c #A2A9AD",
  "5B c #743B2E",
  "5C c #F66427",
  "5D c #594C42",
  "5E c #8EA5C4",
  "5F c #E8EDF3",
  "60 c #E85D24",
  "61 c #6B8CA5",
  "62 c #424A52",
  "63 c #6B84A5",
  "64 c #FFB940",
  "65 c #9CB5C6",
  "66 c #FF8431",
  "67 c #9CADC6",
  "68 c #E76E2B",
  "69 c #CD7B40",
  "6A c #D5B42C",
  "6B c #FF9D37",
  "6C c #D9B526",
  "6D c #BD4221",
  "6E c #878C8C",
  "6F c #394A63",
  "70 c #8C9EB1",
  "71 c #31425A",
  "72 c #73524A",
  "73 c #849CBD",
  "74 c #B9B9B9",
  "75 c #732118",
  "76 c #84A5C6",
  "77 c #8CADD6",
  "78 c #52575D",
  "79 c #AD3118",
  "7A c #454444",
  "7B c #FFAC3D",
  "7C c #8B9094",
  "7D c #869EBE",
  "7E c #FF6227",
  "7F c #FF8531",
  "80 c #BDCEDE",
  "81 c #FF6B29",
  "82 c #FCA63A",
  "83 c #444545",
  "84 c #5A7384",
  "85 c #735C49",
  "86 c #FFE0A1",
  "87 c #FF9A38",
  "88 c #A5C2D6",
  "89 c #FFDA9F",
  "8A c #FFD69E",
  "8B c #FF6D2A",
  "8C c #FFB43F",
  "8D c #494D51",
  "8E c #FF9B38",
  "8F c #8DA4C2",
  "90 c #FF8C34",
  "91 c #CCD7E4",
  "92 c #CED6E7",
  "93 c #5F7891",
  "94 c #FFE1A1",
  "95 c #F55923",
  "96 c #FFE6A2",
  "97 c #F76A2A",
  "98 c #FFD39D",
  "99 c #FFD09C",
  "9A c #FFC845",
  "9B c #8DA4C3",
  "9C c #FF8030",
  "9D c #FFD59E",
  "9E c #314A63",
  "9F c #DEE5EE",
  "A0 c #DAEBF7",
  "A1 c #5A7B94",
  "A2 c #584C46",
  "A3 c #D9DEE1",
  "A4 c #595E64",
  "A5 c #070503",
  "A6 c #464544",
  "A7 c #101818",
  "A8 c #FF6328",
  "A9 c #7B2118",
  "AA c #63849C",
  "AB c #4C5155",
  "AC c #526373",
  "AD c #E84F21",
  "AE c #FF8B33",
  "AF c #FF8F34",
  "B0 c #F78030",
  "B1 c #FF9836",
  "B2 c #E85522",
  "B3 c #521810",
  "B4 c #454443",
  "B5 c #8494B5",
  "B6 c #F76F2B",
  "B7 c #8CA4C2",
  "B8 c #F79134",
  "B9 c #584944",
  "BA c #D9DEE3",
  "BB c #FF6929",
  "BC c #FE8531",
  "BD c #101829",
  "BE c #555D64",
  "BF c #F55D27",
  "C0 c #F24C21",
  "C1 c #637B9C",
  "C2 c #313334",
  "C3 c #F78730",
  "C4 c #F66127",
  "C5 c #FFB33F",
  "C6 c #FE8331",
  "C7 c #A9ACB1",
  "C8 c #DA391A",
  "C9 c #ADCEE7",
  "CA c #BDE7E7",
  "CB c #EFEFF7",
  "CC c #738494",
  "CD c #1C1C1C",
  "CE c #4E6174",
  "CF c #FFBE42",
  "D0 c #4A6B8C",
  "D1 c #B53118",
  "D2 c #F79535",
  "D3 c #B97D4E",
  "D4 c #D5DEE9",
  "D5 c #7BA5C6",
  "D6 c #CED6DE",
  "D7 c #FE5A26",
  "D8 c #E4461F",
  "D9 c #7B9CC6",
  "DA c #545248",
  "DB c #527B94",
  "DC c #736B4F",
  "DD c #FF8C33",
  "DE c #C1CAD6",
  "DF c #9CC6F7",
  "E0 c #3E3F41",
  "E1 c #7B3118",
  "E2 c #8494A5",
  "E3 c #BD5A29",
  "E4 c #F3C643",
  "E5 c #98ADC9",
  "E6 c #000818",
  "E7 c #A5C6E7",
  "E8 c #FE752B",
  "E9 c #F78D31",
  "EA c #725E4A",
  "EB c #FFDB9F",
  "EC c #FE6C2A",
  "ED c #4B4E51",
  "EE c #FE8C34",
  "EF c #FE8231",
  "F0 c #738CAD",
  "F1 c #F77C2F",
  "F2 c #9B7F2B",
  "F3 c #E86429",
  "F4 c #BD4218",
  "F5 c #8B8F93",
  "F6 c #5A7B9C",
  "F7 c #EFF7F7",
  "F8 c #101010",
  "F9 c #8BA3C2",
  "FA c #527394",
  "FB c #000000",
  "FC c #FFCC00",
  "FD c #FFFFFF",
  ".. s None c None",
  "..8810FA111111FAFAFAFAFAFAFAFAFAFAFAFAFAFAFAFAFA2FF6F6F62F163C..",
  "C9CA1C164F4FAC49090909090909090909090909090909094D57B559F0163962",
  "77E724FDFDFDFDFDFDFDFDFDFDFDFDFDFDFDFDFDFDFDFDFDFDFDFDFDFDCC4B71",
  "12A1FDA0344A0C0B0B0B0B0B0B0B0B0B0B0B1212121212300715F623FD3B174B",
  "0784FD8840450B0F07070707070707070707070707071C0D10DB230EFD3326A7",
  "2849FD404C1D9FF7351DF7806518F75015151515101033F6FA170EFD1CFA4BFB",
  "3008FD34451DF7F7241DF7F73E1DF7F7F6F6F6F6F6FA3623160EFD0F106F32..",
  "D908FD4C1F76F7F7AA61F7CBF6F6F718F6FA580301040401AB740F070E52FB..",
  "D508FD0A1F35F748FA70F73FFA67F75093032B29438F1A131483BECE22FB....",
  "0608FD0A1F48F755FA24F724FA3EF7708D2520F9F9F9FDFDFD1E21E0CDF8....",
  "0608FD0A0C92F754FA3FF755FAD6F7A42519F9F9F9F9FDFDFDFDFD21A2F8....",
  "0608FD0A0C18F7C1FA18F763FA185A2B2019F9F9F9F9FDFDFDFDFD1E7A44....",
  "0608FD0A0C0DF6FAFAFAFAFAFAFA032919F9F9F9F9F9FDFDFDFDFDFD1446....",
  "0608FD0A0C0DF6FAFAFAFAFAFAFAC27DF9F9F9F9F9F9FDFDFDFDFDFD1347....",
  "0608FD0A0C0DF6FAFAFAFAFAFAFA0420F9F9F9F919F9FDFDFDFDFDFD1A04....",
  "0608FD0A0C0DF6FAFAFAFAFA11D0042019F9F9F9F9E5FDFDFDFDFDFD1A04....",
  "0608FD0A0C0DF6FAFAFAFDDE11170143F9F9F9F93D5FFDFDFDFDFDFD1347....",
  "0608FD0A0C0DF6FAFAFDFB7C170E78292D2DF95E9FFDFDFDFDFDFDFD1446....",
  "0608FD0A0C0DF6FAFDFBFCF5BAA3C72BB79B2DD4FDFDFDFDFDFDFD1EB444....",
  "0608FD0A0C0DF6FDFBFCFCFBFBFBFBED253D91FDFDFDFDFDFDFDFD21B9F8....",
  "0608FD0A0C0DFDFBFCFCFCFCFCFCFC6ADA6E1EFDFDFDFDFDFD1E215D5BF8....",
  "0608FD0A0CFDFBFCFCFCFCFCFCFCFCFC6CDC4614131A1A1314A68569E1F8....",
  "0608FD0AFDFBFCFCFCFCFCFCFCFCFCFCFCFCC2DC05040405EAD3BC681BF8....",
  "063CFD0A0BFDFBFCFCFCFCFCFCFCFCFCFCFCFB94CF8C5387906641F31BF8....",
  "0609FD4A0FF6FDFBFCFCFCFCFCFCFCFCFCFCFBEBC55342EEC651E8601BF8....",
  "064DFD1F31360EFDFBFCFCFBFBFBFBFBFBFBFB8A538EAEEF510081B21BF8....",
  "0654FD0FF616FD0FFDFBFC562E2E9686899D989942DD9C0002EC7EAD1BF8....",
  "2873FD1023FD0F070EFDFBF2E49A647B826BB1AF7F41028BBBA8D7D875F8....",
  "283BFDFDFD0F1C0E22A537375382D2B8E9C3B0F1B6975CC4BF95C0C8B3F8....",
  "31DFE21C1CFA2622FB3838272727E32A2A2A2C2C2C6DF44E4ED179A972F8....",
  "3A119E17263952FBF8F8F8F8F8F8F8F8F8F8F8F8F8F8F8F8F8F8F8F8F8......",
  "..3ABDE62232....................................................",
};
