/* XPM */
static char *pixmap[] = {
/* width height ncols cpp */
"16 16 173 2",
  /* Colors */
  "00 c #000000",
  "01 c #FFFFFF",
  "02 c #AEB4BB",
  "03 c #34495F",
  "04 c #32465B",
  "05 c #2E4154",
  "06 c #709DCA",
  "07 c #6E9BC7",
  "08 c #5F86AC",
  "09 c #5C81A6",
  "0A c #577A9D",
  "0B c #46627F",
  "0C c #45617D",
  "0D c #415B76",
  "0E c #3E5770",
  "0F c #33475C",
  "10 c #72A0CD",
  "11 c #6D99C4",
  "12 c #6992BD",
  "13 c #5F85AB",
  "14 c #557799",
  "15 c #3F5871",
  "16 c #67839F",
  "17 c #7D9DBD",
  "18 c #667F99",
  "19 c #6E7882",
  "1A c #7E8892",
  "1B c #ABB4BD",
  "1C c #D4DCE4",
  "1D c #CACFD4",
  "1E c #C1C2C3",
  "1F c #BFC0C1",
  "20 c #2E4255",
  "21 c #344A5F",
  "22 c #709ECA",
  "23 c #6D9AC5",
  "24 c #486581",
  "25 c #405A73",
  "26 c #7997B4",
  "27 c #8EA6BD",
  "28 c #788693",
  "29 c #BDC3C8",
  "2A c #B7BDC2",
  "2B c #AFB2B4",
  "2C c #8B9293",
  "2D c #828B8C",
  "2E c #A5B0B0",
  "2F c #969D9D",
  "30 c #BABDBD",
  "31 c #CED1D1",
  "32 c #929494",
  "33 c #B3B4B4",
  "34 c #9BB2B0",
  "35 c #899594",
  "36 c #A3AEAD",
  "37 c #62918C",
  "38 c #648783",
  "39 c #99ACAA",
  "3A c #9EB0AE",
  "3B c #889291",
  "3C c #F5FFFE",
  "3D c #A6FFF3",
  "3E c #A4FCF0",
  "3F c #A6FEF2",
  "40 c #9DF0E5",
  "41 c #96E5DA",
  "42 c #95E4D9",
  "43 c #A7FDF1",
  "44 c #94E1D7",
  "45 c #8ED7CD",
  "46 c #85C9C0",
  "47 c #84C5BC",
  "48 c #7EBBB3",
  "49 c #7AB5AD",
  "4A c #9DE8DE",
  "4B c #699B94",
  "4C c #74A9A2",
  "4D c #B0FCF2",
  "4E c #B3FEF4",
  "4F c #A4E7DE",
  "50 c #B6FFF5",
  "51 c #AFEFE7",
  "52 c #BCFFF6",
  "53 c #B4F4EC",
  "54 c #BCFAF2",
  "55 c #A5DBD4",
  "56 c #B5F0E8",
  "57 c #C5FFF7",
  "58 c #C0F7F0",
  "59 c #A9D9D3",
  "5A c #C9FFF8",
  "5B c #C6FBF4",
  "5C c #B5E4DE",
  "5D c #CDFFF9",
  "5E c #C7F7F1",
  "5F c #D6FFFA",
  "60 c #D7FFFA",
  "61 c #DBFFFA",
  "62 c #94ACA9",
  "63 c #92A2A0",
  "64 c #8F9F9D",
  "65 c #EFFFFD",
  "66 c #939B9A",
  "67 c #9FF4E8",
  "68 c #91DDD2",
  "69 c #90DCD1",
  "6A c #8DD7CC",
  "6B c #64958E",
  "6C c #73A8A0",
  "6D c #B1FFF4",
  "6E c #638F88",
  "6F c #B8FFF5",
  "70 c #BFFFF6",
  "71 c #81A8A2",
  "72 c #67827E",
  "73 c #D3FFF8",
  "74 c #D6FFF9",
  "75 c #D8FFF9",
  "76 c #DDFFFA",
  "77 c #869996",
  "78 c #93A7A4",
  "79 c #92A6A3",
  "7A c #9AADAA",
  "7B c #E5FFFB",
  "7C c #F1FFFD",
  "7D c #F2FFFD",
  "7E c #F8FFFE",
  "7F c #6A8883",
  "80 c #879996",
  "81 c #9AACA9",
  "82 c #E9FFFB",
  "83 c #8F9594",
  "84 c #A3A9A8",
  "85 c #444746",
  "86 c #97A19D",
  "87 c #575E5B",
  "88 c #9CA29E",
  "89 c #A2A9A2",
  "8A c #828A80",
  "8B c #959790",
  "8C c #686453",
  "8D c #686454",
  "8E c #494435",
  "8F c #7E7764",
  "90 c #877038",
  "91 c #BA9E5A",
  "92 c #FFAD00",
  "93 c #C97600",
  "94 c #EF991E",
  "95 c #FF9400",
  "96 c #9F7130",
  "97 c #D16B00",
  "98 c #FF7000",
  "99 c #D15000",
  "9A c #FF4900",
  "9B c #FFA17D",
  "9C c #AB2C00",
  "9D c #FF2900",
  "9E c #8C1500",
  "9F c #FF877D",
  "A0 c #800000",
  "A1 c #690000",
  "A2 c #5D0000",
  "A3 c #590000",
  "A4 c #460000",
  "A5 c #DEBDBD",
  "A6 c #EBEBEB",
  "A7 c #D1D1D1",
  "A8 c #D0D0D0",
  "A9 c #BABABA",
  "AA c #7D7D7D",
  "AB c #656565",
  ".. s None c None",
  "..102207231B2A1D270A0A0A0A0D0C..",
  "0610A6A8312E3A3630A9010101010304",
  "11011F66345E5B5855791E1713080121",
  "12337A515F7B82766056782B261C0900",
  "0A845970617D3C7C7B755C83292500..",
  "0A644F6D705A73657E7454631900A0..",
  "1A804A6F526F50525D574E62AB92A0..",
  "2877443D3D3D3D3D434D53819195A0..",
  "1835476941673E3F40426C2F9498A0..",
  "0A32724C48466A6845497F8F989AA0..",
  "0A012D386E4B376B713B8D8E9B9DA0..",
  "0AA7162C888639898A8C0000AA9FA0..",
  "0AA7240B8B878590968E000000AAA5..",
  "0D0114020F009397999C9E000000AA..",
  "1520010E00A1A1A1A1A2A3A4000000AA",
  "..050500..................000000",
};
