<?xml version="1.0" encoding="UTF-8"?><svg xmlns="http://www.w3.org/2000/svg" xmlns:xlink="http://www.w3.org/1999/xlink" width="96" zoomAndPan="magnify" viewBox="0 0 96 95.999999" height="95.999999" preserveAspectRatio="xMidYMid meet" version="1.0"><path fill="rgb(50.979614%, 50.979614%, 50.979614%)" d="M 3.199219 36.265625 C 3.621094 36.265625 4.03125 36.183594 4.421875 36.023438 C 4.8125 35.859375 5.160156 35.628906 5.460938 35.328125 C 5.757812 35.03125 5.992188 34.683594 6.152344 34.292969 C 6.316406 33.902344 6.398438 33.492188 6.398438 33.070312 L 6.398438 25.601562 C 6.398438 24.972656 6.429688 24.34375 6.488281 23.71875 C 6.550781 23.09375 6.644531 22.472656 6.765625 21.855469 C 6.890625 21.238281 7.042969 20.628906 7.222656 20.027344 C 7.40625 19.425781 7.617188 18.835938 7.859375 18.253906 C 8.101562 17.671875 8.367188 17.105469 8.664062 16.550781 C 8.960938 15.996094 9.285156 15.457031 9.632812 14.933594 C 9.984375 14.410156 10.355469 13.90625 10.757812 13.421875 C 11.15625 12.933594 11.578125 12.46875 12.019531 12.023438 C 12.464844 11.578125 12.929688 11.160156 13.417969 10.757812 C 13.902344 10.359375 14.40625 9.984375 14.929688 9.636719 C 15.453125 9.289062 15.992188 8.964844 16.546875 8.667969 C 17.101562 8.371094 17.667969 8.101562 18.25 7.863281 C 18.832031 7.621094 19.421875 7.410156 20.023438 7.226562 C 20.625 7.046875 21.234375 6.894531 21.851562 6.769531 C 22.46875 6.648438 23.089844 6.554688 23.714844 6.492188 C 24.339844 6.433594 24.96875 6.402344 25.597656 6.402344 L 33.066406 6.402344 C 33.488281 6.402344 33.898438 6.320312 34.289062 6.15625 C 34.683594 5.996094 35.027344 5.765625 35.328125 5.464844 C 35.628906 5.164062 35.859375 4.816406 36.023438 4.425781 C 36.1875 4.035156 36.265625 3.625 36.265625 3.199219 C 36.265625 2.777344 36.1875 2.367188 36.023438 1.976562 C 35.859375 1.582031 35.628906 1.238281 35.328125 0.9375 C 35.027344 0.636719 34.683594 0.40625 34.289062 0.242188 C 33.898438 0.0820312 33.488281 0 33.066406 0 L 25.601562 0 C 24.761719 0 23.925781 0.0429688 23.09375 0.125 C 22.257812 0.207031 21.429688 0.328125 20.605469 0.492188 C 19.785156 0.65625 18.972656 0.859375 18.171875 1.105469 C 17.367188 1.347656 16.582031 1.628906 15.804688 1.953125 C 15.03125 2.273438 14.273438 2.628906 13.535156 3.027344 C 12.796875 3.421875 12.078125 3.851562 11.378906 4.316406 C 10.683594 4.785156 10.011719 5.28125 9.363281 5.8125 C 8.714844 6.347656 8.09375 6.910156 7.5 7.5 C 6.910156 8.09375 6.347656 8.714844 5.8125 9.363281 C 5.28125 10.011719 4.785156 10.683594 4.316406 11.378906 C 3.851562 12.078125 3.421875 12.796875 3.027344 13.535156 C 2.628906 14.273438 2.273438 15.03125 1.953125 15.804688 C 1.628906 16.582031 1.347656 17.367188 1.105469 18.171875 C 0.859375 18.972656 0.65625 19.785156 0.492188 20.605469 C 0.328125 21.429688 0.207031 22.257812 0.125 23.09375 C 0.0429688 23.925781 0 24.761719 0 25.601562 L 0 33.070312 C 0 33.492188 0.0820312 33.902344 0.246094 34.292969 C 0.40625 34.683594 0.636719 35.03125 0.9375 35.328125 C 1.238281 35.628906 1.582031 35.859375 1.976562 36.023438 C 2.367188 36.183594 2.773438 36.265625 3.199219 36.265625 Z M 3.199219 36.265625 " fill-opacity="1" fill-rule="evenodd"/><path fill="rgb(50.979614%, 50.979614%, 50.979614%)" d="M 33.070312 89.597656 L 25.601562 89.597656 C 24.972656 89.597656 24.34375 89.566406 23.71875 89.507812 C 23.09375 89.445312 22.472656 89.351562 21.855469 89.230469 C 21.238281 89.105469 20.628906 88.953125 20.027344 88.773438 C 19.425781 88.589844 18.835938 88.378906 18.253906 88.136719 C 17.671875 87.898438 17.105469 87.628906 16.550781 87.332031 C 15.996094 87.035156 15.457031 86.710938 14.933594 86.363281 C 14.410156 86.015625 13.90625 85.640625 13.421875 85.242188 C 12.933594 84.839844 12.46875 84.421875 12.023438 83.976562 C 11.578125 83.53125 11.160156 83.066406 10.757812 82.578125 C 10.359375 82.09375 9.984375 81.589844 9.636719 81.066406 C 9.289062 80.542969 8.964844 80.003906 8.667969 79.449219 C 8.371094 78.894531 8.101562 78.328125 7.863281 77.746094 C 7.621094 77.164062 7.410156 76.574219 7.226562 75.972656 C 7.046875 75.371094 6.894531 74.761719 6.769531 74.144531 C 6.648438 73.527344 6.554688 72.90625 6.492188 72.28125 C 6.433594 71.65625 6.402344 71.027344 6.402344 70.398438 L 6.402344 62.933594 C 6.402344 62.511719 6.320312 62.101562 6.15625 61.710938 C 5.996094 61.316406 5.765625 60.972656 5.464844 60.671875 C 5.164062 60.371094 4.816406 60.140625 4.425781 59.976562 C 4.035156 59.8125 3.625 59.734375 3.199219 59.734375 C 2.777344 59.734375 2.367188 59.8125 1.976562 59.976562 C 1.582031 60.140625 1.238281 60.371094 0.9375 60.671875 C 0.636719 60.972656 0.40625 61.316406 0.242188 61.710938 C 0.0820312 62.101562 0 62.511719 0 62.933594 L 0 70.402344 C 0 71.242188 0.0429688 72.078125 0.125 72.910156 C 0.207031 73.746094 0.332031 74.574219 0.496094 75.394531 C 0.65625 76.21875 0.863281 77.03125 1.105469 77.832031 C 1.347656 78.632812 1.632812 79.421875 1.953125 80.195312 C 2.273438 80.972656 2.632812 81.726562 3.027344 82.46875 C 3.421875 83.207031 3.851562 83.925781 4.320312 84.621094 C 4.785156 85.320312 5.285156 85.992188 5.816406 86.640625 C 6.347656 87.285156 6.910156 87.90625 7.503906 88.5 C 8.09375 89.09375 8.714844 89.65625 9.363281 90.1875 C 10.011719 90.71875 10.683594 91.21875 11.382812 91.683594 C 12.078125 92.148438 12.796875 92.578125 13.535156 92.972656 C 14.273438 93.371094 15.03125 93.726562 15.804688 94.046875 C 16.582031 94.371094 17.367188 94.652344 18.171875 94.894531 C 18.972656 95.140625 19.785156 95.34375 20.609375 95.507812 C 21.429688 95.671875 22.257812 95.792969 23.09375 95.875 C 23.925781 95.957031 24.761719 96 25.601562 96 L 33.070312 96 C 33.492188 96 33.902344 95.917969 34.292969 95.757812 C 34.6875 95.59375 35.035156 95.363281 35.335938 95.0625 C 35.636719 94.765625 35.867188 94.417969 36.03125 94.023438 C 36.191406 93.632812 36.273438 93.222656 36.273438 92.800781 C 36.273438 92.375 36.191406 91.964844 36.03125 91.574219 C 35.867188 91.179688 35.636719 90.835938 35.335938 90.535156 C 35.035156 90.234375 34.6875 90.003906 34.292969 89.839844 C 33.902344 89.679688 33.492188 89.597656 33.070312 89.597656 Z M 33.070312 89.597656 " fill-opacity="1" fill-rule="evenodd"/><path fill="rgb(50.979614%, 50.979614%, 50.979614%)" d="M 92.800781 59.734375 C 92.378906 59.734375 91.96875 59.816406 91.578125 59.976562 C 91.1875 60.140625 90.839844 60.371094 90.539062 60.671875 C 90.242188 60.96875 90.007812 61.316406 89.847656 61.707031 C 89.683594 62.097656 89.601562 62.507812 89.601562 62.929688 L 89.601562 70.398438 C 89.601562 71.027344 89.570312 71.65625 89.511719 72.28125 C 89.449219 72.90625 89.355469 73.527344 89.234375 74.144531 C 89.109375 74.761719 88.957031 75.371094 88.777344 75.972656 C 88.59375 76.574219 88.382812 77.164062 88.140625 77.746094 C 87.898438 78.328125 87.632812 78.894531 87.335938 79.449219 C 87.039062 80.003906 86.714844 80.542969 86.367188 81.066406 C 86.015625 81.589844 85.644531 82.09375 85.242188 82.578125 C 84.84375 83.066406 84.421875 83.53125 83.980469 83.976562 C 83.535156 84.421875 83.070312 84.839844 82.582031 85.242188 C 82.097656 85.640625 81.59375 86.015625 81.070312 86.363281 C 80.546875 86.710938 80.007812 87.035156 79.453125 87.332031 C 78.898438 87.628906 78.332031 87.898438 77.75 88.136719 C 77.167969 88.378906 76.578125 88.589844 75.976562 88.773438 C 75.375 88.953125 74.765625 89.105469 74.148438 89.230469 C 73.53125 89.351562 72.910156 89.445312 72.285156 89.507812 C 71.660156 89.566406 71.03125 89.597656 70.402344 89.597656 L 62.929688 89.597656 C 62.507812 89.597656 62.097656 89.679688 61.707031 89.84375 C 61.316406 90.003906 60.96875 90.234375 60.667969 90.535156 C 60.367188 90.835938 60.136719 91.183594 59.972656 91.574219 C 59.8125 91.964844 59.730469 92.375 59.730469 92.800781 C 59.730469 93.222656 59.8125 93.632812 59.972656 94.023438 C 60.136719 94.417969 60.367188 94.761719 60.667969 95.0625 C 60.96875 95.363281 61.316406 95.59375 61.707031 95.757812 C 62.097656 95.917969 62.507812 96 62.929688 96 L 70.398438 96 C 71.238281 96 72.074219 95.957031 72.90625 95.875 C 73.742188 95.792969 74.570312 95.671875 75.394531 95.507812 C 76.214844 95.34375 77.027344 95.140625 77.828125 94.894531 C 78.632812 94.652344 79.417969 94.371094 80.195312 94.046875 C 80.96875 93.726562 81.726562 93.371094 82.464844 92.972656 C 83.203125 92.578125 83.921875 92.148438 84.621094 91.683594 C 85.316406 91.214844 85.988281 90.71875 86.636719 90.1875 C 87.285156 89.652344 87.90625 89.089844 88.5 88.5 C 89.089844 87.90625 89.652344 87.285156 90.1875 86.636719 C 90.71875 85.988281 91.214844 85.316406 91.683594 84.621094 C 92.148438 83.921875 92.578125 83.203125 92.972656 82.464844 C 93.371094 81.726562 93.726562 80.96875 94.046875 80.195312 C 94.371094 79.417969 94.652344 78.632812 94.894531 77.828125 C 95.140625 77.027344 95.34375 76.214844 95.507812 75.394531 C 95.671875 74.570312 95.792969 73.742188 95.875 72.90625 C 95.957031 72.074219 96 71.238281 96 70.398438 L 96 62.933594 C 96 62.511719 95.917969 62.101562 95.757812 61.710938 C 95.59375 61.316406 95.363281 60.972656 95.0625 60.671875 C 94.761719 60.371094 94.417969 60.140625 94.027344 59.976562 C 93.632812 59.816406 93.226562 59.734375 92.800781 59.734375 Z M 92.800781 59.734375 " fill-opacity="1" fill-rule="evenodd"/><path fill="rgb(50.979614%, 50.979614%, 50.979614%)" d="M 70.398438 0 L 62.929688 0 C 62.507812 0 62.097656 0.0820312 61.707031 0.242188 C 61.3125 0.40625 60.96875 0.636719 60.667969 0.9375 C 60.367188 1.238281 60.136719 1.582031 59.972656 1.976562 C 59.8125 2.367188 59.730469 2.777344 59.730469 3.199219 C 59.730469 3.625 59.8125 4.035156 59.972656 4.425781 C 60.136719 4.816406 60.367188 5.164062 60.667969 5.464844 C 60.96875 5.765625 61.3125 5.996094 61.707031 6.15625 C 62.097656 6.320312 62.507812 6.402344 62.929688 6.402344 L 70.398438 6.402344 C 71.027344 6.402344 71.65625 6.433594 72.28125 6.492188 C 72.90625 6.554688 73.527344 6.648438 74.144531 6.769531 C 74.761719 6.894531 75.371094 7.046875 75.972656 7.226562 C 76.574219 7.410156 77.164062 7.621094 77.746094 7.863281 C 78.328125 8.101562 78.894531 8.371094 79.449219 8.667969 C 80.003906 8.964844 80.542969 9.289062 81.066406 9.636719 C 81.589844 9.984375 82.09375 10.359375 82.578125 10.757812 C 83.066406 11.160156 83.53125 11.578125 83.976562 12.023438 C 84.421875 12.46875 84.839844 12.933594 85.242188 13.421875 C 85.640625 13.90625 86.015625 14.410156 86.363281 14.933594 C 86.710938 15.457031 87.035156 15.996094 87.332031 16.550781 C 87.628906 17.105469 87.898438 17.671875 88.136719 18.253906 C 88.378906 18.835938 88.589844 19.425781 88.773438 20.027344 C 88.953125 20.628906 89.105469 21.238281 89.230469 21.855469 C 89.351562 22.472656 89.445312 23.09375 89.507812 23.71875 C 89.566406 24.34375 89.597656 24.972656 89.597656 25.601562 L 89.597656 33.070312 C 89.597656 33.492188 89.679688 33.902344 89.839844 34.292969 C 90.003906 34.6875 90.234375 35.035156 90.535156 35.335938 C 90.835938 35.636719 91.179688 35.867188 91.574219 36.03125 C 91.964844 36.191406 92.375 36.273438 92.800781 36.273438 C 93.222656 36.273438 93.632812 36.191406 94.023438 36.03125 C 94.417969 35.867188 94.765625 35.636719 95.0625 35.335938 C 95.363281 35.035156 95.59375 34.6875 95.757812 34.292969 C 95.917969 33.902344 96 33.492188 96 33.070312 L 96 25.601562 C 96 24.761719 95.957031 23.925781 95.875 23.09375 C 95.792969 22.257812 95.671875 21.429688 95.507812 20.605469 C 95.34375 19.785156 95.140625 18.972656 94.894531 18.171875 C 94.652344 17.367188 94.371094 16.582031 94.046875 15.804688 C 93.726562 15.03125 93.371094 14.273438 92.972656 13.535156 C 92.578125 12.796875 92.148438 12.078125 91.683594 11.378906 C 91.214844 10.683594 90.71875 10.011719 90.1875 9.363281 C 89.652344 8.714844 89.089844 8.09375 88.5 7.5 C 87.90625 6.910156 87.285156 6.347656 86.636719 5.8125 C 85.988281 5.28125 85.316406 4.785156 84.621094 4.316406 C 83.921875 3.851562 83.203125 3.421875 82.464844 3.027344 C 81.726562 2.628906 80.96875 2.273438 80.195312 1.953125 C 79.417969 1.628906 78.632812 1.347656 77.828125 1.105469 C 77.027344 0.859375 76.214844 0.65625 75.394531 0.492188 C 74.570312 0.328125 73.742188 0.207031 72.90625 0.125 C 72.074219 0.0429688 71.238281 0 70.398438 0 Z M 70.398438 0 " fill-opacity="1" fill-rule="evenodd"/><path fill="rgb(50.979614%, 50.979614%, 50.979614%)" d="M 33.917969 19.199219 L 26.238281 19.199219 C 25.777344 19.199219 25.320312 19.246094 24.867188 19.335938 C 24.414062 19.425781 23.972656 19.558594 23.546875 19.738281 C 23.117188 19.914062 22.714844 20.128906 22.328125 20.386719 C 21.945312 20.644531 21.589844 20.9375 21.261719 21.261719 C 20.9375 21.589844 20.644531 21.945312 20.386719 22.328125 C 20.128906 22.714844 19.914062 23.117188 19.738281 23.546875 C 19.558594 23.972656 19.425781 24.414062 19.335938 24.867188 C 19.246094 25.320312 19.199219 25.777344 19.199219 26.238281 L 19.199219 33.917969 C 19.199219 34.382812 19.246094 34.839844 19.335938 35.292969 C 19.425781 35.746094 19.558594 36.183594 19.738281 36.613281 C 19.914062 37.039062 20.128906 37.445312 20.386719 37.828125 C 20.644531 38.210938 20.9375 38.566406 21.261719 38.894531 C 21.589844 39.222656 21.945312 39.511719 22.328125 39.769531 C 22.714844 40.027344 23.117188 40.242188 23.546875 40.421875 C 23.972656 40.597656 24.414062 40.730469 24.867188 40.820312 C 25.320312 40.914062 25.777344 40.957031 26.238281 40.957031 L 33.917969 40.957031 C 34.382812 40.957031 34.839844 40.914062 35.292969 40.820312 C 35.746094 40.730469 36.183594 40.597656 36.613281 40.421875 C 37.039062 40.242188 37.445312 40.027344 37.828125 39.769531 C 38.210938 39.511719 38.566406 39.222656 38.894531 38.894531 C 39.222656 38.566406 39.511719 38.210938 39.769531 37.828125 C 40.027344 37.445312 40.242188 37.039062 40.421875 36.613281 C 40.597656 36.183594 40.730469 35.746094 40.820312 35.292969 C 40.914062 34.839844 40.957031 34.382812 40.957031 33.917969 L 40.957031 26.238281 C 40.957031 25.777344 40.914062 25.320312 40.820312 24.867188 C 40.730469 24.414062 40.597656 23.972656 40.421875 23.546875 C 40.242188 23.117188 40.027344 22.714844 39.769531 22.328125 C 39.511719 21.945312 39.222656 21.589844 38.894531 21.261719 C 38.566406 20.9375 38.210938 20.644531 37.828125 20.386719 C 37.445312 20.128906 37.039062 19.914062 36.613281 19.738281 C 36.183594 19.558594 35.746094 19.425781 35.292969 19.335938 C 34.839844 19.246094 34.382812 19.199219 33.917969 19.199219 Z M 34.558594 33.917969 C 34.558594 34.097656 34.496094 34.246094 34.371094 34.371094 C 34.246094 34.496094 34.097656 34.558594 33.917969 34.558594 L 26.238281 34.558594 C 26.0625 34.558594 25.910156 34.496094 25.785156 34.371094 C 25.660156 34.246094 25.597656 34.097656 25.597656 33.917969 L 25.597656 26.238281 C 25.597656 26.0625 25.660156 25.910156 25.785156 25.785156 C 25.910156 25.660156 26.0625 25.597656 26.238281 25.597656 L 33.917969 25.597656 C 34.097656 25.597656 34.246094 25.660156 34.371094 25.785156 C 34.496094 25.910156 34.558594 26.0625 34.558594 26.238281 Z M 34.558594 33.917969 " fill-opacity="1" fill-rule="evenodd"/><path fill="rgb(50.979614%, 50.979614%, 50.979614%)" d="M 33.917969 55.039062 L 26.238281 55.039062 C 25.777344 55.039062 25.320312 55.085938 24.867188 55.175781 C 24.414062 55.265625 23.972656 55.398438 23.546875 55.578125 C 23.117188 55.753906 22.714844 55.972656 22.328125 56.226562 C 21.945312 56.484375 21.589844 56.777344 21.261719 57.105469 C 20.9375 57.429688 20.644531 57.785156 20.386719 58.171875 C 20.128906 58.554688 19.914062 58.960938 19.738281 59.386719 C 19.558594 59.816406 19.425781 60.253906 19.335938 60.707031 C 19.246094 61.160156 19.199219 61.617188 19.199219 62.082031 L 19.199219 69.761719 C 19.199219 70.222656 19.246094 70.679688 19.335938 71.132812 C 19.425781 71.585938 19.5625 72.027344 19.738281 72.453125 C 19.914062 72.878906 20.132812 73.285156 20.386719 73.671875 C 20.644531 74.054688 20.9375 74.410156 21.261719 74.738281 C 21.589844 75.0625 21.945312 75.355469 22.328125 75.613281 C 22.714844 75.867188 23.121094 76.085938 23.546875 76.261719 C 23.972656 76.4375 24.414062 76.574219 24.867188 76.664062 C 25.320312 76.753906 25.777344 76.800781 26.238281 76.800781 L 33.917969 76.800781 C 34.382812 76.800781 34.839844 76.753906 35.292969 76.664062 C 35.746094 76.574219 36.183594 76.441406 36.613281 76.261719 C 37.039062 76.085938 37.445312 75.871094 37.828125 75.613281 C 38.210938 75.355469 38.566406 75.0625 38.894531 74.738281 C 39.222656 74.410156 39.511719 74.054688 39.769531 73.671875 C 40.027344 73.285156 40.242188 72.882812 40.421875 72.453125 C 40.597656 72.027344 40.730469 71.585938 40.820312 71.132812 C 40.914062 70.679688 40.957031 70.222656 40.957031 69.761719 L 40.957031 62.082031 C 40.957031 61.617188 40.914062 61.160156 40.824219 60.707031 C 40.730469 60.253906 40.597656 59.8125 40.421875 59.386719 C 40.246094 58.960938 40.027344 58.554688 39.773438 58.167969 C 39.515625 57.785156 39.222656 57.429688 38.894531 57.101562 C 38.570312 56.777344 38.214844 56.484375 37.828125 56.226562 C 37.445312 55.96875 37.039062 55.753906 36.613281 55.574219 C 36.1875 55.398438 35.746094 55.265625 35.292969 55.175781 C 34.839844 55.085938 34.382812 55.039062 33.917969 55.039062 Z M 34.558594 69.757812 C 34.558594 69.933594 34.496094 70.085938 34.371094 70.210938 C 34.246094 70.335938 34.097656 70.398438 33.917969 70.398438 L 26.238281 70.398438 C 26.0625 70.398438 25.910156 70.335938 25.785156 70.210938 C 25.660156 70.085938 25.597656 69.933594 25.597656 69.757812 L 25.597656 62.078125 C 25.597656 61.902344 25.660156 61.75 25.785156 61.625 C 25.910156 61.5 26.0625 61.4375 26.238281 61.4375 L 33.917969 61.4375 C 34.097656 61.4375 34.246094 61.5 34.371094 61.625 C 34.496094 61.75 34.558594 61.902344 34.558594 62.078125 Z M 34.558594 69.757812 " fill-opacity="1" fill-rule="evenodd"/><path fill="rgb(50.979614%, 50.979614%, 50.979614%)" d="M 62.082031 40.960938 L 69.761719 40.960938 C 70.222656 40.960938 70.679688 40.914062 71.132812 40.824219 C 71.585938 40.734375 72.027344 40.601562 72.453125 40.425781 C 72.882812 40.246094 73.289062 40.03125 73.671875 39.773438 C 74.054688 39.515625 74.410156 39.222656 74.738281 38.898438 C 75.066406 38.570312 75.355469 38.214844 75.613281 37.832031 C 75.871094 37.445312 76.085938 37.039062 76.265625 36.613281 C 76.441406 36.1875 76.574219 35.746094 76.664062 35.292969 C 76.753906 34.839844 76.800781 34.382812 76.800781 33.917969 L 76.800781 26.238281 C 76.800781 25.777344 76.753906 25.320312 76.664062 24.867188 C 76.574219 24.414062 76.441406 23.972656 76.261719 23.546875 C 76.085938 23.117188 75.871094 22.714844 75.613281 22.328125 C 75.355469 21.945312 75.0625 21.589844 74.738281 21.261719 C 74.410156 20.9375 74.054688 20.644531 73.671875 20.386719 C 73.285156 20.128906 72.882812 19.914062 72.453125 19.738281 C 72.027344 19.558594 71.585938 19.425781 71.132812 19.335938 C 70.679688 19.246094 70.222656 19.199219 69.761719 19.199219 L 62.082031 19.199219 C 61.617188 19.199219 61.160156 19.246094 60.707031 19.335938 C 60.253906 19.425781 59.816406 19.558594 59.386719 19.738281 C 58.960938 19.914062 58.554688 20.128906 58.171875 20.386719 C 57.789062 20.644531 57.433594 20.9375 57.105469 21.261719 C 56.777344 21.589844 56.488281 21.945312 56.230469 22.328125 C 55.972656 22.714844 55.757812 23.117188 55.578125 23.546875 C 55.402344 23.972656 55.269531 24.414062 55.179688 24.867188 C 55.085938 25.320312 55.042969 25.777344 55.042969 26.238281 L 55.042969 33.917969 C 55.042969 34.382812 55.085938 34.839844 55.175781 35.292969 C 55.269531 35.746094 55.402344 36.1875 55.578125 36.613281 C 55.753906 37.039062 55.972656 37.445312 56.226562 37.832031 C 56.484375 38.214844 56.777344 38.570312 57.105469 38.898438 C 57.429688 39.222656 57.785156 39.515625 58.171875 39.773438 C 58.554688 40.03125 58.960938 40.246094 59.386719 40.425781 C 59.8125 40.601562 60.253906 40.734375 60.707031 40.824219 C 61.160156 40.914062 61.617188 40.960938 62.082031 40.960938 Z M 61.441406 26.238281 C 61.441406 26.0625 61.503906 25.910156 61.628906 25.785156 C 61.753906 25.660156 61.902344 25.597656 62.082031 25.597656 L 69.761719 25.597656 C 69.9375 25.597656 70.089844 25.660156 70.214844 25.785156 C 70.339844 25.910156 70.402344 26.0625 70.402344 26.238281 L 70.402344 33.917969 C 70.402344 34.097656 70.339844 34.246094 70.214844 34.371094 C 70.089844 34.496094 69.9375 34.558594 69.761719 34.558594 L 62.082031 34.558594 C 61.902344 34.558594 61.753906 34.496094 61.628906 34.371094 C 61.503906 34.246094 61.441406 34.097656 61.441406 33.917969 Z M 61.441406 26.238281 " fill-opacity="1" fill-rule="evenodd"/><path fill="rgb(50.979614%, 50.979614%, 50.979614%)" d="M 69.761719 76.800781 C 70.222656 76.800781 70.679688 76.753906 71.132812 76.664062 C 71.585938 76.574219 72.027344 76.441406 72.453125 76.261719 C 72.882812 76.085938 73.285156 75.871094 73.671875 75.613281 C 74.054688 75.355469 74.410156 75.0625 74.738281 74.738281 C 75.0625 74.410156 75.355469 74.054688 75.613281 73.671875 C 75.871094 73.285156 76.085938 72.882812 76.261719 72.453125 C 76.441406 72.027344 76.574219 71.585938 76.664062 71.132812 C 76.753906 70.679688 76.800781 70.222656 76.800781 69.761719 L 76.800781 62.082031 C 76.800781 61.617188 76.753906 61.160156 76.664062 60.707031 C 76.574219 60.253906 76.441406 59.816406 76.261719 59.386719 C 76.085938 58.960938 75.871094 58.554688 75.613281 58.171875 C 75.355469 57.789062 75.0625 57.433594 74.738281 57.105469 C 74.410156 56.777344 74.054688 56.488281 73.671875 56.230469 C 73.285156 55.972656 72.882812 55.757812 72.453125 55.578125 C 72.027344 55.402344 71.585938 55.269531 71.132812 55.179688 C 70.679688 55.085938 70.222656 55.042969 69.761719 55.042969 L 62.082031 55.042969 C 61.617188 55.042969 61.160156 55.085938 60.707031 55.179688 C 60.253906 55.269531 59.816406 55.402344 59.386719 55.578125 C 58.960938 55.757812 58.554688 55.972656 58.171875 56.230469 C 57.789062 56.488281 57.433594 56.777344 57.105469 57.105469 C 56.777344 57.433594 56.488281 57.789062 56.230469 58.171875 C 55.972656 58.554688 55.757812 58.960938 55.578125 59.386719 C 55.402344 59.816406 55.269531 60.253906 55.179688 60.707031 C 55.085938 61.160156 55.042969 61.617188 55.042969 62.082031 L 55.042969 69.761719 C 55.042969 70.222656 55.085938 70.679688 55.179688 71.132812 C 55.269531 71.585938 55.402344 72.027344 55.578125 72.453125 C 55.757812 72.882812 55.972656 73.285156 56.230469 73.671875 C 56.488281 74.054688 56.777344 74.410156 57.105469 74.738281 C 57.433594 75.0625 57.789062 75.355469 58.171875 75.613281 C 58.554688 75.871094 58.960938 76.085938 59.386719 76.261719 C 59.816406 76.441406 60.253906 76.574219 60.707031 76.664062 C 61.160156 76.753906 61.617188 76.800781 62.082031 76.800781 Z M 61.441406 69.761719 L 61.441406 62.082031 C 61.441406 61.902344 61.503906 61.753906 61.628906 61.628906 C 61.753906 61.503906 61.902344 61.441406 62.082031 61.441406 L 69.761719 61.441406 C 69.9375 61.441406 70.089844 61.503906 70.214844 61.628906 C 70.339844 61.753906 70.402344 61.902344 70.402344 62.082031 L 70.402344 69.761719 C 70.402344 69.9375 70.339844 70.089844 70.214844 70.214844 C 70.089844 70.339844 69.9375 70.402344 69.761719 70.402344 L 62.082031 70.402344 C 61.902344 70.402344 61.753906 70.339844 61.628906 70.214844 C 61.503906 70.089844 61.441406 69.9375 61.441406 69.761719 Z M 61.441406 69.761719 " fill-opacity="1" fill-rule="evenodd"/><path fill="rgb(50.979614%, 50.979614%, 50.979614%)" d="M 42.824219 77.808594 L 18.683594 77.808594 C 17.6875 77.808594 16.878906 76.996094 16.878906 76.003906 L 16.878906 51.863281 C 16.878906 50.867188 17.6875 50.058594 18.683594 50.058594 L 42.824219 50.058594 C 43.820312 50.058594 44.628906 50.867188 44.628906 51.863281 L 44.628906 76.003906 C 44.628906 76.996094 43.820312 77.808594 42.824219 77.808594 Z M 42.824219 77.808594 " fill-opacity="1" fill-rule="nonzero"/><path fill="rgb(50.979614%, 50.979614%, 50.979614%)" d="M 77.097656 77.808594 L 52.957031 77.808594 C 51.960938 77.808594 51.152344 76.996094 51.152344 76.003906 L 51.152344 51.863281 C 51.152344 50.867188 51.960938 50.058594 52.957031 50.058594 L 77.097656 50.058594 C 78.089844 50.058594 78.902344 50.867188 78.902344 51.863281 L 78.902344 76.003906 C 78.902344 76.996094 78.089844 77.808594 77.097656 77.808594 Z M 77.097656 77.808594 " fill-opacity="1" fill-rule="nonzero"/><path fill="rgb(50.979614%, 50.979614%, 50.979614%)" d="M 77.097656 44.628906 L 52.957031 44.628906 C 51.960938 44.628906 51.152344 43.820312 51.152344 42.824219 L 51.152344 18.683594 C 51.152344 17.6875 51.960938 16.878906 52.957031 16.878906 L 77.097656 16.878906 C 78.089844 16.878906 78.902344 17.6875 78.902344 18.683594 L 78.902344 42.824219 C 78.902344 43.820312 78.089844 44.628906 77.097656 44.628906 Z M 77.097656 44.628906 " fill-opacity="1" fill-rule="nonzero"/><path fill="rgb(50.979614%, 50.979614%, 50.979614%)" d="M 42.824219 44.628906 L 18.683594 44.628906 C 17.6875 44.628906 16.878906 43.820312 16.878906 42.824219 L 16.878906 18.683594 C 16.878906 17.6875 17.6875 16.878906 18.683594 16.878906 L 42.824219 16.878906 C 43.820312 16.878906 44.628906 17.6875 44.628906 18.683594 L 44.628906 42.824219 C 44.628906 43.820312 43.820312 44.628906 42.824219 44.628906 Z M 42.824219 44.628906 " fill-opacity="1" fill-rule="nonzero"/></svg>