<!-- This Source Code Form is subject to the terms of the Mozilla Public
   - License, v. 2.0. If a copy of the MPL was not distributed with this
   - file, You can obtain one at http://mozilla.org/MPL/2.0/. -->
<svg xmlns="http://www.w3.org/2000/svg" width="320" height="16" fill="context-fill">
  <svg>
    <path d="M2.062 6a2 2 0 0 1 0 4 2.001 2.001 0 0 1 -2 -2 2 2 0 0 1 2 -2z"/>
  </svg>
  <svg x="16">
    <path d="M5.058 6a2 2 0 0 1 0 4 2.001 2.001 0 0 1 -2 -2 2 2 0 0 1 2 -2z"/>
  </svg>
  <svg x="32">
    <path d="M8.338 6.171c1.435 0 2.6 0.82 2.6 1.829 0 1.01 -1.165 1.829 -2.6 1.829s-2.6 -0.82 -2.6 -1.829c0 -1.01 1.165 -1.829 2.6 -1.829z"/>
  </svg>
  <svg x="48">
    <path d="M10.33 6.343c1.767 0 3.201 0.742 3.201 1.657s-1.434 1.657 -3.2 1.657c-1.766 0 -3.2 -0.742 -3.2 -1.657s1.434 -1.657 3.2 -1.657z"/>
  </svg>
  <svg x="64">
    <path d="M11.648 6.3c1.683 0 3.05 0.762 3.05 1.7s-1.367 1.7 -3.05 1.7c-1.683 0 -3.05 -0.762 -3.05 -1.7s1.367 -1.7 3.05 -1.7z"/>
  </svg>
  <svg x="80">
    <path d="M12.551 6.15c1.394 0 2.525 0.829 2.525 1.85 0 1.021 -1.131 1.85 -2.525 1.85 -1.393 0 -2.525 -0.829 -2.525 -1.85 0 -1.021 1.132 -1.85 2.525 -1.85z"/>
  </svg>
  <svg x="96">
    <path d="M13.17 6a2 2 0 0 1 0 4 2.001 2.001 0 0 1 -2 -2 2 2 0 0 1 2 -2z"/>
  </svg>
  <svg x="112">
    <path d="M13.578 6a2 2 0 0 1 0 4 2.001 2.001 0 0 1 -2 -2c0 -1.104 0.897 -2 2 -2z"/>
  </svg>
  <svg x="128">
    <path d="M13.823 6a2 2 0 0 1 0 4 2.001 2.001 0 0 1 -2 -2 2 2 0 0 1 2 -2z"/>
  </svg>
  <svg x="144">
    <path d="M13.935 6a2 2 0 0 1 0 4 2.001 2.001 0 0 1 -2 -2 2 2 0 0 1 2 -2z"/>
  </svg>
  <svg x="160">
    <path d="M13.937 6a2 2 0 0 1 0 4 2.001 2.001 0 0 1 -2 -2 2 2 0 0 1 2 -2z"/>
  </svg>
  <svg x="176">
    <path d="M12.219 6a2 2 0 0 1 0 4 2.001 2.001 0 0 1 -2 -2 2 2 0 0 1 2 -2z"/>
  </svg>
  <svg x="192">
    <path d="M7.913 6.171c1.34 0 2.429 0.82 2.429 1.829 0 1.01 -1.088 1.829 -2.429 1.829 -1.34 0 -2.428 -0.82 -2.428 -1.829 0 -1.01 1.088 -1.829 2.428 -1.829z"/>
  </svg>
  <svg x="208">
    <path d="M5.545 6.343c1.577 0 2.857 0.742 2.857 1.657s-1.28 1.657 -2.857 1.657c-1.577 0 -2.858 -0.742 -2.858 -1.657s1.28 -1.657 2.858 -1.657z"/>
  </svg>
  <svg x="224">
    <path d="M4.168 6.3c1.517 0 2.75 0.762 2.75 1.7s-1.233 1.7 -2.75 1.7c-1.518 0 -2.75 -0.762 -2.75 -1.7s1.232 -1.7 2.75 -1.7z"/>
  </svg>
  <svg x="240">
    <path d="M3.288 6.15c1.311 0 2.375 0.829 2.375 1.85 0 1.021 -1.064 1.85 -2.375 1.85 -1.31 0 -2.375 -0.829 -2.375 -1.85 0 -1.021 1.065 -1.85 2.375 -1.85z"/>
  </svg>
  <svg x="256">
    <path d="M2.714 6a2 2 0 0 1 0 4 2.001 2.001 0 0 1 -2 -2c0 -1.104 0.897 -2 2 -2z"/>
  </svg>
  <svg x="272">
    <path d="M2.35 6a2 2 0 0 1 0 4 2.001 2.001 0 0 1 -2 -2c0 -1.104 0.897 -2 2 -2z"/>
  </svg>
  <svg x="288">
    <path d="M2.142 6a2 2 0 0 1 0 4 2.001 2.001 0 0 1 -2 -2 2 2 0 0 1 2 -2z"/>
  </svg>
  <svg x="304">
    <path d="M2.053 6a2 2 0 0 1 0 4 2.001 2.001 0 0 1 -2 -2c0 -1.104 0.897 -2 2 -2z"/>
  </svg>
  <svg x="320">
    <path d="M2.062 6a2 2 0 0 1 0 4 2.001 2.001 0 0 1 -2 -2 2 2 0 0 1 2 -2z"/>
  </svg>
</svg>
