<!-- This Source Code Form is subject to the terms of the Mozilla Public
   - License, v. 2.0. If a copy of the MPL was not distributed with this
   - file, You can obtain one at http://mozilla.org/MPL/2.0/. -->
<svg width="24" height="24" fill="context-fill" xmlns="http://www.w3.org/2000/svg">
  <path d="M10.3 4.2c.3-.2.8-.3 1 0 .5.1.7.4.6.8v14c0 .3-.3.6-.6.8l-.4.1-.6-.2-4.7-3.8H2c-.6 0-1-.4-1-1V9c0-.5.4-1 1-1h3.6l4.7-3.7zm-3.7 10l3.4 2.6V7.1L6.6 9.8 6 10H3v4h3l.6.1zm9.6-6.4a6 6 0 010 8.4 1 1 0 01-.7.3 1 1 0 01-.7-.3 1 1 0 010-1.4 4 4 0 000-5.6 1 1 0 010-1.4c.4-.4 1-.4 1.4 0zM19 20c.2 0 .5-.1.7-.3a10.8 10.8 0 000-15.4 1 1 0 00-1.4 0 1 1 0 000 1.4 8.9 8.9 0 010 12.6 1 1 0 000 1.4c.2.2.5.3.7.3z"/>
</svg>
