<?xml version="1.0" encoding="utf-8"?>
<!-- This Source Code Form is subject to the terms of the Mozilla Public
   - License, v. 2.0. If a copy of the MPL was not distributed with this
   - file, You can obtain one at http://mozilla.org/MPL/2.0/. -->
<svg xmlns="http://www.w3.org/2000/svg" xmlns:xlink="http://www.w3.org/1999/xlink" width="16" height="16" viewBox="0 0 16 16">
  <style>
    .icon:not(:target) {
      display: none;
    }

    .icon {
      fill: #333;
      opacity: .75;
    }
    .icon.hover {
      fill: #1a1a1a;
      opacity: .85;
    }
    .icon.pressed {
      fill: #0d0d0d;
      opacity: .95;
    }

    .icon.white {
      fill: #fff;
    }
    .icon.white.hover {
      opacity: .9;
    }
    .icon.white.pressed {
      opacity: 1;
    }
    .icon.white > .outline {
      fill: #000;
      fill-opacity: .5;
    }

    .icon.menu {
      fill: MenuText;
    }
    .icon.menu.hover {
#ifdef XP_MACOSX
      fill: -moz-mac-menutextselect;
#else
      fill: -moz-menuhovertext;
#endif
    }

    .icon.backgroundTab,
    .icon.backgroundTab.hover,
    .icon.backgroundTab.pressed {
      fill: -moz-MenuBarText;
    }
  </style>

  <path id="tab-audio" class="icon" d="M4,5C2.9,5,2,5.9,2,7v2c0,1.1,0.9,2,2,2h1.2L9,14V2L5.2,5H4z M11,8c0-0.6-0.4-1-1-1v2C10.6,9,11,8.6,11,8z M13,8 c0-1.4-1-2.6-2.3-2.9L10.4,6C11.3,6.2,12,7,12,8s-0.7,1.8-1.6,2l0.4,0.9C12,10.6,13,9.4,13,8z M11.4,3.2l-0.4,0.9 C12.8,4.6,14,6.2,14,8s-1.2,3.4-2.9,3.8l0.4,0.9C13.5,12.2,15,10.3,15,8S13.5,3.8,11.4,3.2z"/>
  <path id="tab-audio-hover" class="icon hover" d="M4,5C2.9,5,2,5.9,2,7v2c0,1.1,0.9,2,2,2h1.2L9,14V2L5.2,5H4z M11,8c0-0.6-0.4-1-1-1v2C10.6,9,11,8.6,11,8z M13,8 c0-1.4-1-2.6-2.3-2.9L10.4,6C11.3,6.2,12,7,12,8s-0.7,1.8-1.6,2l0.4,0.9C12,10.6,13,9.4,13,8z M11.4,3.2l-0.4,0.9 C12.8,4.6,14,6.2,14,8s-1.2,3.4-2.9,3.8l0.4,0.9C13.5,12.2,15,10.3,15,8S13.5,3.8,11.4,3.2z"/>
  <path id="tab-audio-pressed" class="icon pressed" d="M4,5C2.9,5,2,5.9,2,7v2c0,1.1,0.9,2,2,2h1.2L9,14V2L5.2,5H4z M11,8c0-0.6-0.4-1-1-1v2C10.6,9,11,8.6,11,8z M13,8 c0-1.4-1-2.6-2.3-2.9L10.4,6C11.3,6.2,12,7,12,8s-0.7,1.8-1.6,2l0.4,0.9C12,10.6,13,9.4,13,8z M11.4,3.2l-0.4,0.9 C12.8,4.6,14,6.2,14,8s-1.2,3.4-2.9,3.8l0.4,0.9C13.5,12.2,15,10.3,15,8S13.5,3.8,11.4,3.2z"/>

  <path id="tab-audio-muted" class="icon" d="M12.5,3.4L9,6.3V2L5.2,5H4C2.9,5,2,5.9,2,7v2c0,0.9,0.6,1.6,1.4,1.9l-1.9,1.5l1,1.2l11-9L12.5,3.4z M9,14v-4l-2.5,2L9,14z"/>
  <path id="tab-audio-muted-hover" class="icon hover" d="M12.5,3.4L9,6.3V2L5.2,5H4C2.9,5,2,5.9,2,7v2c0,0.9,0.6,1.6,1.4,1.9l-1.9,1.5l1,1.2l11-9L12.5,3.4z M9,14v-4l-2.5,2L9,14z"/>
  <path id="tab-audio-muted-pressed" class="icon pressed" d="M12.5,3.4L9,6.3V2L5.2,5H4C2.9,5,2,5.9,2,7v2c0,0.9,0.6,1.6,1.4,1.9l-1.9,1.5l1,1.2l11-9L12.5,3.4z M9,14v-4l-2.5,2L9,14z"/>

  <path id="tab-audio-backgroundTab" class="icon backgroundTab" d="M4,5C2.9,5,2,5.9,2,7v2c0,1.1,0.9,2,2,2h1.2L9,14V2L5.2,5H4z M11,8c0-0.6-0.4-1-1-1v2C10.6,9,11,8.6,11,8z M13,8 c0-1.4-1-2.6-2.3-2.9L10.4,6C11.3,6.2,12,7,12,8s-0.7,1.8-1.6,2l0.4,0.9C12,10.6,13,9.4,13,8z M11.4,3.2l-0.4,0.9 C12.8,4.6,14,6.2,14,8s-1.2,3.4-2.9,3.8l0.4,0.9C13.5,12.2,15,10.3,15,8S13.5,3.8,11.4,3.2z"/>
  <path id="tab-audio-backgroundTab-hover" class="icon backgroundTab hover" d="M4,5C2.9,5,2,5.9,2,7v2c0,1.1,0.9,2,2,2h1.2L9,14V2L5.2,5H4z M11,8c0-0.6-0.4-1-1-1v2C10.6,9,11,8.6,11,8z M13,8 c0-1.4-1-2.6-2.3-2.9L10.4,6C11.3,6.2,12,7,12,8s-0.7,1.8-1.6,2l0.4,0.9C12,10.6,13,9.4,13,8z M11.4,3.2l-0.4,0.9 C12.8,4.6,14,6.2,14,8s-1.2,3.4-2.9,3.8l0.4,0.9C13.5,12.2,15,10.3,15,8S13.5,3.8,11.4,3.2z"/>
  <path id="tab-audio-backgroundTab-pressed" class="icon backgroundTab pressed" d="M4,5C2.9,5,2,5.9,2,7v2c0,1.1,0.9,2,2,2h1.2L9,14V2L5.2,5H4z M11,8c0-0.6-0.4-1-1-1v2C10.6,9,11,8.6,11,8z M13,8 c0-1.4-1-2.6-2.3-2.9L10.4,6C11.3,6.2,12,7,12,8s-0.7,1.8-1.6,2l0.4,0.9C12,10.6,13,9.4,13,8z M11.4,3.2l-0.4,0.9 C12.8,4.6,14,6.2,14,8s-1.2,3.4-2.9,3.8l0.4,0.9C13.5,12.2,15,10.3,15,8S13.5,3.8,11.4,3.2z"/>

  <path id="tab-audio-backgroundTab-muted" class="icon backgroundTab" d="M12.5,3.4L9,6.3V2L5.2,5H4C2.9,5,2,5.9,2,7v2c0,0.9,0.6,1.6,1.4,1.9l-1.9,1.5l1,1.2l11-9L12.5,3.4z M9,14v-4l-2.5,2L9,14z"/>
  <path id="tab-audio-backgroundTab-muted-hover" class="icon backgroundTab hover" d="M12.5,3.4L9,6.3V2L5.2,5H4C2.9,5,2,5.9,2,7v2c0,0.9,0.6,1.6,1.4,1.9l-1.9,1.5l1,1.2l11-9L12.5,3.4z M9,14v-4l-2.5,2L9,14z"/>
  <path id="tab-audio-backgroundTab-muted-pressed" class="icon backgroundTab pressed" d="M12.5,3.4L9,6.3V2L5.2,5H4C2.9,5,2,5.9,2,7v2c0,0.9,0.6,1.6,1.4,1.9l-1.9,1.5l1,1.2l11-9L12.5,3.4z M9,14v-4l-2.5,2L9,14z"/>

  <g id="tab-audio-white" class="icon white">
    <path class="outline" d="M9,2v12l-3.8-3H4c-1.1,0-2-0.9-2-2V7c0-1.1,0.9-2,2-2h1.2L9,2 M11.4,3.2C13.5,3.8,15,5.7,15,8 s-1.5,4.2-3.5,4.7l-0.4-0.9c1.7-0.4,2.9-2,2.9-3.8s-1.2-3.4-3-3.9L11.4,3.2 M10.7,5.1C12,5.4,13,6.6,13,8s-1,2.6-2.2,2.9L10.4,10 C11.3,9.8,12,9,12,8s-0.7-1.8-1.6-2L10.7,5.1 M10,7c0.6,0,1,0.4,1,1s-0.4,1-1,1V7 M10-0.1L8.4,1.2L4.9,4H4C2.3,4,1,5.3,1,7v2 c0,1.7,1.3,3,3,3h0.9l3.5,2.8l1.6,1.3V14v-2.2l0.2,0.4l0.4,0.9l0.3,0.8l0.8-0.2C14.2,13,16,10.7,16,8c0-2.7-1.7-5-4.3-5.8L10.8,2 l-0.4,0.8l-0.4,0.9L10,3.9V2V-0.1L10-0.1z"/>
    <path d="M4,5C2.9,5,2,5.9,2,7v2c0,1.1,0.9,2,2,2h1.2L9,14V2L5.2,5H4z M11,8c0-0.6-0.4-1-1-1v2C10.6,9,11,8.6,11,8z M13,8 c0-1.4-1-2.6-2.3-2.9L10.4,6C11.3,6.2,12,7,12,8s-0.7,1.8-1.6,2l0.4,0.9C12,10.6,13,9.4,13,8z M11.4,3.2l-0.4,0.9 C12.8,4.6,14,6.2,14,8s-1.2,3.4-2.9,3.8l0.4,0.9C13.5,12.2,15,10.3,15,8S13.5,3.8,11.4,3.2z"/>
  </g>
  <g id="tab-audio-white-hover" class="icon white hover">
    <path class="outline" d="M9,2v12l-3.8-3H4c-1.1,0-2-0.9-2-2V7c0-1.1,0.9-2,2-2h1.2L9,2 M11.4,3.2C13.5,3.8,15,5.7,15,8 s-1.5,4.2-3.5,4.7l-0.4-0.9c1.7-0.4,2.9-2,2.9-3.8s-1.2-3.4-3-3.9L11.4,3.2 M10.7,5.1C12,5.4,13,6.6,13,8s-1,2.6-2.2,2.9L10.4,10 C11.3,9.8,12,9,12,8s-0.7-1.8-1.6-2L10.7,5.1 M10,7c0.6,0,1,0.4,1,1s-0.4,1-1,1V7 M10-0.1L8.4,1.2L4.9,4H4C2.3,4,1,5.3,1,7v2 c0,1.7,1.3,3,3,3h0.9l3.5,2.8l1.6,1.3V14v-2.2l0.2,0.4l0.4,0.9l0.3,0.8l0.8-0.2C14.2,13,16,10.7,16,8c0-2.7-1.7-5-4.3-5.8L10.8,2 l-0.4,0.8l-0.4,0.9L10,3.9V2V-0.1L10-0.1z"/>
    <path d="M4,5C2.9,5,2,5.9,2,7v2c0,1.1,0.9,2,2,2h1.2L9,14V2L5.2,5H4z M11,8c0-0.6-0.4-1-1-1v2C10.6,9,11,8.6,11,8z M13,8 c0-1.4-1-2.6-2.3-2.9L10.4,6C11.3,6.2,12,7,12,8s-0.7,1.8-1.6,2l0.4,0.9C12,10.6,13,9.4,13,8z M11.4,3.2l-0.4,0.9 C12.8,4.6,14,6.2,14,8s-1.2,3.4-2.9,3.8l0.4,0.9C13.5,12.2,15,10.3,15,8S13.5,3.8,11.4,3.2z"/>
  </g>
  <g id="tab-audio-white-pressed" class="icon white pressed">
    <path class="outline" d="M9,2v12l-3.8-3H4c-1.1,0-2-0.9-2-2V7c0-1.1,0.9-2,2-2h1.2L9,2 M11.4,3.2C13.5,3.8,15,5.7,15,8 s-1.5,4.2-3.5,4.7l-0.4-0.9c1.7-0.4,2.9-2,2.9-3.8s-1.2-3.4-3-3.9L11.4,3.2 M10.7,5.1C12,5.4,13,6.6,13,8s-1,2.6-2.2,2.9L10.4,10 C11.3,9.8,12,9,12,8s-0.7-1.8-1.6-2L10.7,5.1 M10,7c0.6,0,1,0.4,1,1s-0.4,1-1,1V7 M10-0.1L8.4,1.2L4.9,4H4C2.3,4,1,5.3,1,7v2 c0,1.7,1.3,3,3,3h0.9l3.5,2.8l1.6,1.3V14v-2.2l0.2,0.4l0.4,0.9l0.3,0.8l0.8-0.2C14.2,13,16,10.7,16,8c0-2.7-1.7-5-4.3-5.8L10.8,2 l-0.4,0.8l-0.4,0.9L10,3.9V2V-0.1L10-0.1z"/>
    <path d="M4,5C2.9,5,2,5.9,2,7v2c0,1.1,0.9,2,2,2h1.2L9,14V2L5.2,5H4z M11,8c0-0.6-0.4-1-1-1v2C10.6,9,11,8.6,11,8z M13,8 c0-1.4-1-2.6-2.3-2.9L10.4,6C11.3,6.2,12,7,12,8s-0.7,1.8-1.6,2l0.4,0.9C12,10.6,13,9.4,13,8z M11.4,3.2l-0.4,0.9 C12.8,4.6,14,6.2,14,8s-1.2,3.4-2.9,3.8l0.4,0.9C13.5,12.2,15,10.3,15,8S13.5,3.8,11.4,3.2z"/>
  </g>

  <g id="tab-audio-muted-white" class="icon muted white">
    <path class="outline" d="M9,2v4.3l3.5-2.9l0.9,1.2l-11,9l-1-1.2l1.9-1.5C2.6,10.6,2,9.9,2,9V7c0-1.1,0.9-2,2-2h1.2L9,2 M9,10v4l-2.5-2L9,10 M10-0.1 L8.4,1.2L4.9,4H4C2.3,4,1,5.3,1,7v2c0,0.7,0.3,1.4,0.7,2l-0.8,0.7l-0.8,0.6l0.6,0.8l1,1.2L2.3,15l0.8-0.6l2.3-1.9l0.4,0.3l2.5,2 l1.6,1.3V14v-4V8.7l4.1-3.4l0.8-0.6l-0.6-0.8l-0.9-1.2L12.7,2l-0.8,0.6L10,4.2V2V-0.1L10-0.1z"/>
    <path d="M12.5,3.4L9,6.3V2L5.2,5H4C2.9,5,2,5.9,2,7v2c0,0.9,0.6,1.6,1.4,1.9l-1.9,1.5l1,1.2l11-9L12.5,3.4z M9,14v-4l-2.5,2L9,14z"/>
  </g>
  <g id="tab-audio-muted-white-hover" class="icon muted white hover">
    <path class="outline" d="M9,2v4.3l3.5-2.9l0.9,1.2l-11,9l-1-1.2l1.9-1.5C2.6,10.6,2,9.9,2,9V7c0-1.1,0.9-2,2-2h1.2L9,2 M9,10v4l-2.5-2L9,10 M10-0.1 L8.4,1.2L4.9,4H4C2.3,4,1,5.3,1,7v2c0,0.7,0.3,1.4,0.7,2l-0.8,0.7l-0.8,0.6l0.6,0.8l1,1.2L2.3,15l0.8-0.6l2.3-1.9l0.4,0.3l2.5,2 l1.6,1.3V14v-4V8.7l4.1-3.4l0.8-0.6l-0.6-0.8l-0.9-1.2L12.7,2l-0.8,0.6L10,4.2V2V-0.1L10-0.1z"/>
    <path d="M12.5,3.4L9,6.3V2L5.2,5H4C2.9,5,2,5.9,2,7v2c0,0.9,0.6,1.6,1.4,1.9l-1.9,1.5l1,1.2l11-9L12.5,3.4z M9,14v-4l-2.5,2L9,14z"/>
  </g>
  <g id="tab-audio-muted-white-pressed" class="icon muted white pressed">
    <path class="outline" d="M9,2v4.3l3.5-2.9l0.9,1.2l-11,9l-1-1.2l1.9-1.5C2.6,10.6,2,9.9,2,9V7c0-1.1,0.9-2,2-2h1.2L9,2 M9,10v4l-2.5-2L9,10 M10-0.1 L8.4,1.2L4.9,4H4C2.3,4,1,5.3,1,7v2c0,0.7,0.3,1.4,0.7,2l-0.8,0.7l-0.8,0.6l0.6,0.8l1,1.2L2.3,15l0.8-0.6l2.3-1.9l0.4,0.3l2.5,2 l1.6,1.3V14v-4V8.7l4.1-3.4l0.8-0.6l-0.6-0.8l-0.9-1.2L12.7,2l-0.8,0.6L10,4.2V2V-0.1L10-0.1z"/>
    <path d="M12.5,3.4L9,6.3V2L5.2,5H4C2.9,5,2,5.9,2,7v2c0,0.9,0.6,1.6,1.4,1.9l-1.9,1.5l1,1.2l11-9L12.5,3.4z M9,14v-4l-2.5,2L9,14z"/>
  </g>

  <path id="tab-audio-menu" class="icon menu" d="M4,5C2.9,5,2,5.9,2,7v2c0,1.1,0.9,2,2,2h1.2L9,14V2L5.2,5H4z M11,8c0-0.6-0.4-1-1-1v2C10.6,9,11,8.6,11,8z M13,8 c0-1.4-1-2.6-2.3-2.9L10.4,6C11.3,6.2,12,7,12,8s-0.7,1.8-1.6,2l0.4,0.9C12,10.6,13,9.4,13,8z M11.4,3.2l-0.4,0.9 C12.8,4.6,14,6.2,14,8s-1.2,3.4-2.9,3.8l0.4,0.9C13.5,12.2,15,10.3,15,8S13.5,3.8,11.4,3.2z"/>
  <path id="tab-audio-menu-muted" class="icon menu" d="M12.5,3.4L9,6.3V2L5.2,5H4C2.9,5,2,5.9,2,7v2c0,0.9,0.6,1.6,1.4,1.9l-1.9,1.5l1,1.2l11-9L12.5,3.4z M9,14v-4l-2.5,2L9,14z"/>
  <path id="tab-audio-menu-hover" class="icon menu hover" d="M4,5C2.9,5,2,5.9,2,7v2c0,1.1,0.9,2,2,2h1.2L9,14V2L5.2,5H4z M11,8c0-0.6-0.4-1-1-1v2C10.6,9,11,8.6,11,8z M13,8 c0-1.4-1-2.6-2.3-2.9L10.4,6C11.3,6.2,12,7,12,8s-0.7,1.8-1.6,2l0.4,0.9C12,10.6,13,9.4,13,8z M11.4,3.2l-0.4,0.9 C12.8,4.6,14,6.2,14,8s-1.2,3.4-2.9,3.8l0.4,0.9C13.5,12.2,15,10.3,15,8S13.5,3.8,11.4,3.2z"/>
  <path id="tab-audio-menu-muted-hover" class="icon menu hover" d="M12.5,3.4L9,6.3V2L5.2,5H4C2.9,5,2,5.9,2,7v2c0,0.9,0.6,1.6,1.4,1.9l-1.9,1.5l1,1.2l11-9L12.5,3.4z M9,14v-4l-2.5,2L9,14z"/>

</svg>
