<!-- This Source Code Form is subject to the terms of the Mozilla Public
   - License, v. 2.0. If a copy of the MPL was not distributed with this
   - file, You can obtain one at http://mozilla.org/MPL/2.0/. -->
<svg xmlns="http://www.w3.org/2000/svg" width="16" height="16" fill="context-fill">
  <path filter="invert(1)" d="M8 2c3.3 0 6 2.7 6 6s-2.7 6-6 6-6-2.7-6-6 2.7-6 6-6m0 10.5c2.4 0 4.5-2 4.5-4.5S10.4 3.5 8 3.5 3.5 5.5 3.5 8s2.1 4.5 4.5 4.5M6 5l5 3-5 3V5m2-4C4.1 1 1 4.1 1 8s3.1 7 7 7 7-3.1 7-7-3.1-7-7-7zm-.7 3.6c.2-.1.4-.1.7-.1 1.5 0 2.9 1.1 3.4 2.5L7.3 4.6zM5 9.7c-.3-.5-.5-1.1-.5-1.7s.2-1.2.5-1.7v3.4zm2.3 1.7L11.4 9c-.4 1.4-1.8 2.5-3.4 2.5-.3 0-.5 0-.7-.1z"/>
  <path d="M8 2C4.7 2 2 4.7 2 8s2.7 6 6 6 6-2.7 6-6-2.7-6-6-6zm0 10.5c-2.4 0-4.5-2-4.5-4.5S5.6 3.5 8 3.5s4.5 2 4.5 4.5-2.1 4.5-4.5 4.5zM6 5v6l5-3-5-3z"/>
</svg>
