<!-- This Source Code Form is subject to the terms of the Mozilla Public
   - License, v. 2.0. If a copy of the MPL was not distributed with this
   - file, You can obtain one at http://mozilla.org/MPL/2.0/. -->
<svg xmlns="http://www.w3.org/2000/svg" viewBox="0 0 12 12" width="12" height="12" fill="context-fill" fill-opacity="context-fill-opacity">
  <path d="M6 1.5c2.481 0 4.5 2.019 4.5 4.5S8.481 10.5 6 10.5 1.5 8.481 1.5 6 3.519 1.5 6 1.5m0-1a5.5 5.5 0 1 0 0 11 5.5 5.5 0 1 0 0-11z"/>
  <path d="m4.25 7.999 0-3.998a.5.5 0 0 1 .748-.434l3.5 1.999a.5.5 0 0 1 0 .868l-3.5 1.999a.5.5 0 0 1-.748-.434z"/>
</svg>
