<!-- This Source Code Form is subject to the terms of the Mozilla Public
   - License, v. 2.0. If a copy of the MPL was not distributed with this
   - file, You can obtain one at http://mozilla.org/MPL/2.0/. -->
<svg xmlns="http://www.w3.org/2000/svg" viewBox="0 0 12 12" width="12" height="12" fill-opacity="context-fill-opacity">
  <circle fill="context-stroke" cx="6" cy="6" r="6"/>
  <path fill="context-fill" d="M6.8 5.5 4.5 3.3l.9-1.1c.4-.5 1.3-.2 1.3.5v2.8zm2 .5c0-1-.5-1.9-1.3-2.4v2.7l1 1c.2-.4.3-.9.3-1.3zM7.7 2.6c1.3.7 2 2 2 3.4 0 .7-.2 1.4-.5 2l.5.5c.5-.8.8-1.6.8-2.5 0-1.7-.9-3.3-2.4-4.1-.2-.1-.4 0-.5.2-.1.2-.1.4.1.5zm-5.1-.1c-.1-.1-.4-.1-.5 0-.1.1-.1.4 0 .5l1.1 1.1h-1c-.4 0-.8.3-.8.8v2.2c0 .4.3.8.8.8h1.5l1.7 2c.4.5 1.3.2 1.3-.5V7.7l1.4 1.4c-.1.1-.2.2-.4.3-.2.1-.2.3-.1.5.1.2.3.2.5.2.2-.1.4-.3.6-.5l.4.4c.1.1.4.1.5 0 .1-.1.1-.4 0-.5l-7-7z"/>
</svg>
