<!-- This Source Code Form is subject to the terms of the Mozilla Public
   - License, v. 2.0. If a copy of the MPL was not distributed with this
   - file, You can obtain one at http://mozilla.org/MPL/2.0/. -->
<svg xmlns="http://www.w3.org/2000/svg" viewBox="0 0 12 12" width="12" height="12" fill="context-fill" fill-opacity="context-fill-opacity">
  <path d="m7 5.887 0-3.92C7 1.06 5.821.654 5.226 1.356L3.961 2.848 7 5.887z"/>
  <path d="M9.326 8.213A3.696 3.696 0 0 0 9.75 6.5 3.738 3.738 0 0 0 8 3.338l0 3.549 1.326 1.326z"/>
  <path d="m8 8.301 0 1.361c.274-.174.522-.383.743-.619L8 8.301z"/>
  <path d="M8.276 1.943C9.956 2.823 11 4.568 11 6.498c0 .961-.26 1.876-.727 2.661l.719.719A6.175 6.175 0 0 0 12 6.498c0-2.303-1.249-4.388-3.26-5.441a.505.505 0 0 0-.676.211.502.502 0 0 0 .212.675z"/>
  <path d="m10.854 11.146-10-10a.5.5 0 0 0-.707.707L2.293 4 1 4a1 1 0 0 0-1 1l0 3a1 1 0 0 0 1 1l1.984 0 2.242 2.644c.595.702 1.774.296 1.774-.611l0-2.326 1.924 1.924a4.81 4.81 0 0 1-.655.426.5.5 0 0 0 .462.886c.326-.17.627-.372.909-.596l.506.506a.5.5 0 1 0 .708-.707z"/>
</svg>
