/* XPM */
static char * logo_xpm[] = {
"50 50 5 1",
" 	c None",
".	c #000000",
"+	c #FFFFFF",
"@	c #FF1900",
"#	c #F39100",
"..................................................",
"..................................................",
".........................#........................",
"........................##........................",
"........................##........................",
"........................##........................",
".......................#..#.......................",
".......................#..#.......................",
".......................#..#.......................",
"......................#...##......................",
"......................#.@..#......................",
"......................#.@@.#......................",
".....................##.@@.#......................",
".....................#.@@@.##.....................",
".....................#.@@@@.#.....................",
".....................#.@@@@.#.....................",
"....................#.@@@@@.#.....................",
"....................#.@@@@@..#....................",
"....................#.@@..@..#....................",
"...................#..@.@@...#....................",
"..##################.@@....@.###################..",
"...##................@.....@.................##...",
".....#..@@@@@@@@@@@@..@.@.@@.@@@@@....@@@@..#.....",
"......##..@@@@@@@@..@@@@@@.@.@.@@@...@@@..##......",
".......##..@@@@@@.@@@@@@@.@@@@@.@@....@..##.......",
"........##..@@@@@..@@@@....@@@@.@@@..@..##........",
"..........##.@@@@.@@@@.....@@@@.@@@....#..........",
"...........##..@@.......@.@@@@@.@@@..##...........",
"............##..@....@@.@@@@.@@@@@..##............",
"..............#..@@.........@@@@@..#..............",
"...............##.@@@@@@@@..@@@@..#...............",
"...............#..@@@@@@@@@.@@@@@.#...............",
"...............#.@#@@#@@##@..@@@@.#...............",
"...............#.@#@@#@@#@@..@@@@.#...............",
"..............#..@@@@@@@@@@@.@@@@..#..............",
"..............#.@@@@@@@@.@@...@@@@.#..............",
"..............#.@@@@@@@.......@@@@.#..............",
"..............#.@@@@@@..##.....@@@.#..............",
".............#..@@@@@..#..#...@@@@..#.............",
".............#.@@@@..##....##..@@@@.#.............",
".............#.@@@..##......##..@@..#.............",
"............##.@@..#..........#..@..##............",
"............#.@..##............##....#............",
"............#...##..............##...#............",
"............#..##................##..#............",
"...........#..#....................#.##...........",
"...........###......................###...........",
"...........##........................##...........",
"..........#.......................................",
".................................................."};
