<!-- This Source Code Form is subject to the terms of the Mozilla Public
   - License, v. 2.0. If a copy of the MPL was not distributed with this
   - file, You can obtain one at http://mozilla.org/MPL/2.0/. -->
<svg xmlns="http://www.w3.org/2000/svg" width="16" height="16" viewBox="0 0 16 16" fill="context-fill" fill-opacity="context-fill-opacity">
  <path d="M10.98.574a1 1 0 0 0-.746 1.856A6.034 6.034 0 1 1 3 4.721V6a.5.5 0 0 0 1 0V2.5a.5.5 0 0 0-.5-.5h-3a.5.5 0 0 0 0 1h1.262A8 8 0 1 0 10.98.574z"/>
  <path d="M6.494 12.137l5.672-3.274a1 1 0 0 0 0-1.726L6.494 3.863A1 1 0 0 0 5 4.726v6.548a1 1 0 0 0 1.494.863z"/>
</svg>
