<!-- This Source Code Form is subject to the terms of the Mozilla Public
   - License, v. 2.0. If a copy of the MPL was not distributed with this
   - file, You can obtain one at http://mozilla.org/MPL/2.0/. -->
<svg xmlns="http://www.w3.org/2000/svg" viewBox="0 0 16 16" width="16" height="16" fill="context-fill" fill-opacity="context-fill-opacity">
  <path d="M11 6a1 1 0 0 0 1-1l0-2a1 1 0 0 0-1-1L8.25 2l0-.875a.625.625 0 0 0-1.25 0L7 2 4.674 2l4 4L11 6z"/>
  <path d="m8.25 9.134 5.683 5.683a.623.623 0 0 0 .884 0 .626.626 0 0 0 0-.885L6.884 6 2.067 1.183a.625.625 0 1 0-.884.885l1.375 1.375-.265.264A1 1 0 0 0 2 4.414L2 5a1 1 0 0 0 1 1l2.116 0L7 7.884l0 6.991a.625.625 0 0 0 1.25 0l0-5.741z"/>
</svg>
