<!-- This Source Code Form is subject to the terms of the Mozilla Public
   - License, v. 2.0. If a copy of the MPL was not distributed with this
   - file, You can obtain one at http://mozilla.org/MPL/2.0/. -->
<svg width="16" height="16" xmlns="http://www.w3.org/2000/svg" xmlns:xlink="http://www.w3.org/1999/xlink"><defs><path d="M.5.5h16v16H.5V.5zm12 8a4 4 0 1 0 0-8 4 4 0 0 0 0 8z" id="a"/><linearGradient x1="62.533%" y1=".107%" x2="0%" y2="109.9%" id="b"><stop stop-color="#AB71FF" offset="0%"/><stop stop-color="#00B3F4" offset="100%"/></linearGradient></defs><g fill="none" fill-rule="evenodd"><g transform="translate(-.5 -.5)"><mask id="c" fill="#fff"><use xlink:href="#a"/></mask><path d="M6.14 5.02c.405.908.884 2.668-.016 2.455-.327-.078-.57-.13-.648-.153l-.005-.002a.016.016 0 0 0 .005.002c-1.145-.343-2.852-.487-3.696.088-.843.574-.44 1.091-.337 1.755-.68.748-.506 1.559.036 2.345-.44.896-.085 1.646.57 2.29-.212 1.308.59 1.772 1.904 2.121.16.043.49.055.862.055h.014c.52 0 1.117-.024 1.453-.025 1.43-.005 2.735-.178 4.175-.234 1.44-.055 3.037.243 4.506.256.013-1.989.015-4.004.028-6.003a79.917 79.917 0 0 0-1.385.001c-.534.003-1.068.006-1.608-.003-.226-.088-.74-.547-.826-.66-.085-.111-.1-.231-.1-.231s-.313-.663-.589-.938C9.347 7.003 8.49 5.021 8.023 3.386c-.313-.498.658-1.226-.583-1.379A.969.969 0 0 0 7.32 2C6.17 2 5.75 4.14 6.14 5.02" fill="url(#b)" fill-rule="nonzero" mask="url(#c)"/></g><path d="M12 6.188c-.364 0-.702-.098-1.005-.256l2.937-2.937c.158.303.255.64.255 1.005 0 1.208-.979 2.188-2.187 2.188m0-4.375c.364 0 .702.097 1.005.255l-2.937 2.937A2.163 2.163 0 0 1 9.813 4c0-1.208.979-2.188 2.187-2.188M12 .5a3.5 3.5 0 1 0 0 7 3.5 3.5 0 0 0 0-7" fill="#ED1C24"/></g></svg>
