<!-- This Source Code Form is subject to the terms of the Mozilla Public
   - License, v. 2.0. If a copy of the MPL was not distributed with this
   - file, You can obtain one at http://mozilla.org/MPL/2.0/. -->
<svg xmlns="http://www.w3.org/2000/svg" width="16" height="16" fill="context-fill" fill-opacity="context-fill-opacity">
  <path d="M9.7 13a1.345 1.345 0 0 0 1.3-1.389V9.552l3.037 2.648a1.007 1.007 0 0 0 .963.285V4l-9 9zm5.007-11.707a1 1 0 0 0-1.414 0l-2.452 2.452A1.284 1.284 0 0 0 9.7 3H2.3A1.345 1.345 0 0 0 1 4.389v7.222a1.4 1.4 0 0 0 .731 1.244l-.438.438a1 1 0 1 0 1.414 1.414l12-12a1 1 0 0 0 0-1.414z"/>
</svg>
