<!-- This Source Code Form is subject to the terms of the Mozilla Public
   - License, v. 2.0. If a copy of the MPL was not distributed with this
   - file, You can obtain one at http://mozilla.org/MPL/2.0/. -->
<svg xmlns="http://www.w3.org/2000/svg" viewBox="0 0 16 16" width="16" height="16" fill="context-fill" fill-opacity="context-fill-opacity">
  <path d="M1.067 2.933a.626.626 0 0 0-.885.885L1 4.635 1 12a2 2 0 0 0 2 2l7.333 0 .85.817a.621.621 0 0 0 .884 0 .628.628 0 0 0 0-.885l-11-10.999zM2.85 12.75l-.6-.6 0-6.265 6.865 6.865-6.265 0z"/>
  <path d="M13.986 2.824c-.491 0-.992.182-1.4.59L12 4a2 2 0 0 0-2-2L3 2c-.32 0-.613.093-.88.228L3.142 3.25l7.008 0 .6.6 0 2.65.518 0 2.202-2.202a.713.713 0 0 1 .516-.224c.317 0 .764.234.764.754l0 6.343c0 .52-.447.754-.764.754a.71.71 0 0 1-.516-.224L11.268 9.5l-.518 0 0 1.266 1.836 1.819c.407.407.908.59 1.4.59 1.028 0 2.014-.798 2.014-2.004l0-6.343c0-1.205-.986-2.004-2.014-2.004z"/>
</svg>
