<!-- This Source Code Form is subject to the terms of the Mozilla Public
   - License, v. 2.0. If a copy of the MPL was not distributed with this
   - file, You can obtain one at http://mozilla.org/MPL/2.0/. -->
<svg xmlns="http://www.w3.org/2000/svg" viewBox="0 0 16 16" width="16" height="16" fill="context-fill" fill-opacity="context-fill-opacity">
  <path d="M15.817 14.933 1.067.183a.626.626 0 0 0-.885.885l5.861 5.861a2.494 2.494 0 0 0 2.029 2.029l1.176 1.176a3.181 3.181 0 0 1-.748.099 3.24 3.24 0 0 1-3.206-2.71.63.63 0 0 0-.72-.513.625.625 0 0 0-.513.72 4.468 4.468 0 0 0 3.525 3.648l.289.24 0 2.133-1.75 0a.625.625 0 0 0 0 1.249l4.75 0a.625.625 0 0 0 0-1.25l-1.75 0 0-2.133.272-.237c.29-.058.567-.152.833-.264l4.702 4.702a.63.63 0 0 0 .885-.001.625.625 0 0 0 0-.884z"/>
  <path d="M7.25 3.5c0-.689.561-1.25 1.25-1.25.689 0 1.25.561 1.25 1.25l0 3c0 .177-.039.344-.106.497l.916.916A2.48 2.48 0 0 0 11 6.5l0-3A2.5 2.5 0 0 0 8.5 1a2.493 2.493 0 0 0-2.486 2.366L7.25 4.602l0-1.102z"/>
  <path d="M12.938 7.729a.625.625 0 0 0-.513-.72.62.62 0 0 0-.72.513 3.25 3.25 0 0 1-.413 1.123l.902.902a4.442 4.442 0 0 0 .744-1.818z"/>
</svg>
