<!-- This Source Code Form is subject to the terms of the Mozilla Public
   - License, v. 2.0. If a copy of the MPL was not distributed with this
   - file, You can obtain one at http://mozilla.org/MPL/2.0/. -->
<svg xmlns="http://www.w3.org/2000/svg" viewBox="0 0 16 16" fill="context-fill" fill-opacity="context-fill-opacity">
  <path d="M14 1H5c-.6 0-1 .4-1 1v9.3c-.3-.2-.6-.3-1-.3-1.1 0-2 .9-2 2s.9 2 2 2 2-.9 2-2V5h9v6.3c-1-.6-2.2-.2-2.7.7-.6 1-.2 2.2.7 2.7s2.2.2 2.7-.7c.2-.3.3-.7.3-1V2c0-.6-.4-1-1-1z"/>
</svg>
