<!-- This Source Code Form is subject to the terms of the Mozilla Public
   - License, v. 2.0. If a copy of the MPL was not distributed with this
   - file, You can obtain one at http://mozilla.org/MPL/2.0/. -->
<svg xmlns="http://www.w3.org/2000/svg" viewBox="0 0 16 16" width="16" height="16" fill="context-fill" fill-opacity="context-fill-opacity">
  <path d="M2 3a2 2 0 0 0-2 2l0 5a2 2 0 0 0 2 2l12 0a2 2 0 0 0 2-2l0-5a2 2 0 0 0-2-2L2 3zm12.75 7.15-.6.6-12.3 0-.6-.6 0-5.3.6-.6 12.3 0 .6.6 0 5.3z"/>
  <path d="m4 7-.75 0-.25.25L3 8l.25.25.75 0L4.25 8l0-.75z"/>
</svg>
