<!-- This Source Code Form is subject to the terms of the Mozilla Public
   - License, v. 2.0. If a copy of the MPL was not distributed with this
   - file, You can obtain one at http://mozilla.org/MPL/2.0/. -->
<svg xmlns="http://www.w3.org/2000/svg" viewBox="0 0 16 16" width="16" height="16" fill="context-fill" fill-opacity="context-fill-opacity">
  <path d="m4 7-.75 0-.25.25L3 8l.25.25.75 0L4.25 8l0-.75z"/>
  <path d="M1.567.183a.626.626 0 0 0-.885.885L2.615 3 2 3a2 2 0 0 0-2 2l0 5a2 2 0 0 0 2 2l9.615 0 2.818 2.818a.623.623 0 0 0 .884-.001.628.628 0 0 0 0-.885L1.567.183zM1.85 10.75l-.6-.6 0-5.3.6-.6 2.015 0 6.5 6.5-8.515 0z"/>
  <path d="M14 3 6.157 3l1.25 1.25 6.743 0 .6.6 0 5.3-.6.6-.243 0 1.015 1.015A1.992 1.992 0 0 0 16 10l0-5a2 2 0 0 0-2-2z"/>
</svg>
