<!-- This Source Code Form is subject to the terms of the Mozilla Public
   - License, v. 2.0. If a copy of the MPL was not distributed with this
   - file, You can obtain one at http://mozilla.org/MPL/2.0/. -->
<svg width="32" height="32" fill="context-fill" fill-opacity="context-fill-opacity" xmlns="http://www.w3.org/2000/svg">
  <path d="M4 24.172V23.1c0-1.1.9-2 2-2h1.072l2.1-2.1H6c-.7 0-1.4.2-2 .5V6.2C4 4.4 5.3 3 7 3h18c.056 0 .112.002.167.005l1.42-1.42c.78-.78 2.046-.78 2.827 0 .78.782.78 2.048 0 2.83l-24 24c-.78.78-2.047.78-2.828 0-.78-.782-.78-2.048 0-2.83L4 24.173zM7.828 29l7.9-7.9H26c1.1 0 2 .9 2 2V27c0 1.1-.9 2-2 2H7.828zM28 8.828V19.5c-.6-.3-1.3-.5-2-.5h-8.172L28 8.828zM24.1 27c1.1 0 2-.9 2-2s-.9-2-2-2-2 .9-2 2 .9 2 2 2z" fill-rule="nonzero"/>
</svg>
