<!-- This Source Code Form is subject to the terms of the Mozilla Public
   - License, v. 2.0. If a copy of the MPL was not distributed with this
   - file, You can obtain one at http://mozilla.org/MPL/2.0/. -->
<svg xmlns="http://www.w3.org/2000/svg" width="16" height="16" fill="context-fill" fill-opacity="context-fill-opacity">
  <path d="M12 8a4 4 0 1 0 4 4 4 4 0 0 0-4-4zm0 1a2.975 2.975 0 0 1 1.733.56L9.56 13.733A2.991 2.991 0 0 1 12 9zm0 6a2.975 2.975 0 0 1-1.733-.56l4.173-4.173A2.991 2.991 0 0 1 12 15z"/>
  <path d="M13 1H3a3 3 0 0 0-3 3v8a3 3 0 0 0 3 3h3a1 1 0 0 0 0-2H3a1 1 0 0 1-1-1V6h12a1 1 0 0 0 2 0V4a3 3 0 0 0-3-3zM2 5V4a1 1 0 0 1 1-1h10a1 1 0 0 1 1 1v1z"/>
</svg>
