<!-- This Source Code Form is subject to the terms of the Mozilla Public
   - License, v. 2.0. If a copy of the MPL was not distributed with this
   - file, You can obtain one at http://mozilla.org/MPL/2.0/. -->
<svg xmlns="http://www.w3.org/2000/svg" width="16" height="16" fill="context-fill" fill-opacity="context-fill-opacity">
  <path d="M4 10a1 1 0 0 0 0-2H2V3h6v1a1 1 0 0 0 2 0V2a1 1 0 0 0-1-1H1a1 1 0 0 0-1 1v7a1 1 0 0 0 1 1zm11-4h-2l-2 2h3v5H8v-2l-2 2v1a1 1 0 0 0 1 1h8a1 1 0 0 0 1-1V7a1 1 0 0 0-1-1z"/>
  <path d="M14.707 1.293a1 1 0 0 0-1.414 0L8.586 6H7a1 1 0 0 0-1 1v1.586l-4.707 4.707a1 1 0 1 0 1.414 1.414l12-12a1 1 0 0 0 0-1.414z"/>
</svg>
