<!-- This Source Code Form is subject to the terms of the Mozilla Public
   - License, v. 2.0. If a copy of the MPL was not distributed with this
   - file, You can obtain one at http://mozilla.org/MPL/2.0/. -->
<svg xmlns="http://www.w3.org/2000/svg" viewBox="0 0 16 16" width="16" height="16" fill="context-fill" fill-opacity="context-fill-opacity">
  <path d="m7.658 7 4.717 0a.625.625 0 0 0 0-1.25l-5.967 0L7.658 7z"/>
  <path d="m11.885 13 .004 0L.567 1.683a.626.626 0 0 0-.885.885l.97.97A1.973 1.973 0 0 0 0 5l0 6a2 2 0 0 0 2 2l2.93 0c.669 0 1.293-.334 1.664-.891l.574-.861a.976.976 0 0 1 .766-.429l3.499 3.499a.623.623 0 0 0 .884 0 .628.628 0 0 0 0-.885L11.885 13zm-5.757-2.445-.574.861a.75.75 0 0 1-.624.334l-3.08 0-.6-.6 0-6.3.289-.427L6.936 9.82c-.321.172-.6.422-.808.735z"/>
  <path d="M14 3 3.658 3l1.25 1.25 9.242 0 .6.6 0 6.3-.6.6-1.742 0 1.25 1.25.342 0a2 2 0 0 0 2-2l0-6a2 2 0 0 0-2-2z"/>
</svg>
