<!-- This Source Code Form is subject to the terms of the Mozilla Public
   - License, v. 2.0. If a copy of the MPL was not distributed with this
   - file, You can obtain one at http://mozilla.org/MPL/2.0/. -->
<svg xmlns="http://www.w3.org/2000/svg" viewBox="0 0 16 16" width="16" height="16">
  <path fill-rule="evenodd" d="M2.33 8.67H7.9v-.11c.02-.47-.03-.92-.14-1.36a3.4 3.4 0 0 0-.53-1.16A2.76 2.76 0 0 0 4.87 4.9a2.8 2.8 0 0 0-2.1.95c-.29.31-.51.7-.68 1.13a5.53 5.53 0 0 0-.08 2.93c.12.44.3.83.54 1.16.24.33.56.58.94.77.39.18.85.26 1.38.25.78 0 1.45-.22 2-.67.54-.45.86-1.08.95-1.88l.02-.13h-.5v.1c-.12.71-.4 1.23-.83 1.58-.43.35-.99.52-1.67.52-.46 0-.84-.08-1.15-.23a2.07 2.07 0 0 1-.76-.64c-.2-.27-.35-.6-.44-.96a5.2 5.2 0 0 1-.16-1.1zm5.08-.5a3.8 3.8 0 0 0-.16-1c-.11-.35-.27-.66-.48-.93-.21-.26-.47-.47-.78-.62a2.46 2.46 0 0 0-1.1-.23 2.3 2.3 0 0 0-1.76.77 3 3 0 0 0-.55.92c-.13.33-.2.7-.24 1.1H7.4z"/>
  <path d="M13.32 5.06h.6L11.4 8.39l2.76 3.56h-.62L11.1 8.77l-2.45 3.18h-.6l2.74-3.56-2.5-3.33h.62L11.1 8l2.23-2.94z"/>
</svg>
