<!-- This Source Code Form is subject to the terms of the Mozilla Public
   - License, v. 2.0. If a copy of the MPL was not distributed with this
   - file, You can obtain one at http://mozilla.org/MPL/2.0/. -->
<svg xmlns="http://www.w3.org/2000/svg" viewBox="0 0 16 16" width="16" height="16">
  <path fill="#83CD29" d="M14.42 3.6L8.65.27c-.36-.2-.85-.2-1.2 0L1.62 3.6c-.37.22-.63.62-.63 1.06v6.69c0 .43.26.84.64 1.06l1.53.87c.75.35.94.35 1.28.35 1.09 0 1.65-.66 1.65-1.8v-6.6c0-.1.07-.24-.04-.24h-.73c-.09 0-.28.14-.28.23v6.6c0 .51-.47 1-1.33.59l-1.58-.92a.18.18 0 0 1-.1-.16V4.66c0-.07.07-.13.12-.16l5.8-3.33a.22.22 0 0 1 .19 0l5.74 3.33c.05.04.05.1.05.16v6.68c0 .07.01.13-.04.16l-5.77 3.33a.19.19 0 0 1-.16 0l-1.49-.88c-.03-.02-.1-.04-.14-.01-.4.23-.48.27-.87.4-.08.03-.23.08.06.25l1.93 1.14c.18.1.4.16.61.16.22 0 .42-.05.61-.16l5.76-3.34c.37-.22.56-.62.56-1.06V4.66c-.01-.44-.2-.83-.58-1.05zm-4.57 6.68c-1.54 0-1.87-.42-1.98-1.19-.02-.07-.08-.18-.17-.18h-.75c-.1 0-.17.12-.17.2 0 .98.54 2.17 3.07 2.17 1.83 0 2.89-.72 2.89-1.97s-.85-1.58-2.62-1.82c-1.8-.24-1.99-.35-1.99-.77 0-.35.16-.81 1.49-.81 1.19 0 1.62.26 1.8 1.06.01.08.09.13.17.13h.75c.05 0 .09-.01.13-.05.02-.04.05-.08.04-.13-.12-1.38-1.04-2.02-2.9-2.02-1.64 0-2.63.7-2.63 1.87 0 1.26.99 1.62 2.57 1.77 1.9.2 2.05.46 2.05.83-.01.64-.53.91-1.75.91z"/>
</svg>
