<!-- This Source Code Form is subject to the terms of the Mozilla Public
   - License, v. 2.0. If a copy of the MPL was not distributed with this
   - file, You can obtain one at http://mozilla.org/MPL/2.0/. -->
<svg xmlns="http://www.w3.org/2000/svg" viewBox="0 0 16 16" width="16" height="16">
  <path d="M8 9.2a1.2 1.2 0 1 0 0-2.4 1.2 1.2 0 0 0 0 2.4zM.68 8C.68 8.93 2 9.49 2.7 9.76c1.34.5 3.2.83 5.29.83 2.08 0 3.95-.32 5.3-.83.7-.27 2.02-.83 2.02-1.76S14 6.51 13.3 6.24A15.4 15.4 0 0 0 8 5.41c-2.08 0-3.95.32-5.3.83C2 6.51.69 7.07.69 8zm1.8-2.37C3.9 5.08 5.85 4.75 8 4.75c2.14 0 4.1.33 5.53.88 1 .38 2.45 1.1 2.45 2.37 0 1.26-1.45 2-2.45 2.37-1.43.55-3.39.88-5.53.88s-4.1-.33-5.53-.88C1.47 10 .02 9.27.02 8c0-1.26 1.45-2 2.45-2.37zM4.34 1.66c-.81.47-.63 1.9-.5 2.63.22 1.42.87 3.2 1.92 5a15.4 15.4 0 0 0 3.36 4.17c.59.48 1.73 1.35 2.54.88.81-.47.63-1.89.5-2.63a15.4 15.4 0 0 0-1.92-5 15.4 15.4 0 0 0-3.36-4.17c-.59-.48-1.73-1.35-2.54-.88zm2.95.36c1.2.97 2.45 2.5 3.53 4.35a16.05 16.05 0 0 1 2 5.23c.17 1.06.26 2.68-.83 3.31-1.1.63-2.45-.26-3.28-.93a16.05 16.05 0 0 1-3.53-4.35 16.05 16.05 0 0 1-2-5.23c-.17-1.06-.26-2.68.83-3.31 1.1-.63 2.45.26 3.28.93zM11.66 1.66c-.8-.47-1.95.4-2.54.88A15.4 15.4 0 0 0 5.76 6.7a15.4 15.4 0 0 0-1.93 5c-.12.75-.3 2.17.5 2.64.82.47 1.96-.4 2.55-.88a15.4 15.4 0 0 0 3.36-4.16 15.4 15.4 0 0 0 1.93-5c.12-.75.3-2.17-.5-2.64zm1.16 2.74a16.05 16.05 0 0 1-2 5.23 16.05 16.05 0 0 1-3.53 4.35c-.83.67-2.19 1.56-3.28.93-1.1-.63-1-2.25-.83-3.3.24-1.52.93-3.38 2-5.24a16.05 16.05 0 0 1 3.53-4.35c.83-.67 2.19-1.56 3.28-.93 1.1.63 1 2.25.83 3.3z"/>
</svg>
