<!-- This Source Code Form is subject to the terms of the Mozilla Public
   - License, v. 2.0. If a copy of the MPL was not distributed with this
   - file, You can obtain one at http://mozilla.org/MPL/2.0/. -->
<svg xmlns="http://www.w3.org/2000/svg" viewBox="0 0 20 20">
  <path fill="#00D3E7" d="M9.94.8a9.01 9.01 0 0 0-9 9.42 1.07 1.07 0 0 0 .13 2.12h.21A9.01 9.01 0 1 0 9.94.8"/>
  <path fill="#00A1C1" d="M18.93 10.21v-.4c0-2.4-.93-4.6-2.47-6.2A9.26 9.26 0 0 1 3.72 16.34a9 9 0 0 0 14.85-4l.21-.01c.6 0 1.07-.48 1.07-1.07.01-.54-.4-.99-.92-1.06"/>
  <path fill="#323B59" d="M5.47 6.55a.99.99 0 0 0-.99.99v2.22a.99.99 0 1 0 1.98 0V7.54a.99.99 0 0 0-1-.99m8.98 0a.99.99 0 0 0-1 .99v2.22a.99.99 0 1 0 1.98 0V7.54a.99.99 0 0 0-.98-.99m-4.5 5.47a2.27 2.27 0 0 0-2.34 2.13c-.02.23.09.45.27.58.19.14.43.17.64.09 0 0 .47-.17 1.34-.17.91 0 1.55.19 1.56.19a.69.69 0 0 0 .61-.11.67.67 0 0 0 .26-.58 2.27 2.27 0 0 0-2.34-2.13"/>
  <path fill="#00A1C1" d="M4.59 7.02c-.36 0-.72-.11-1.03-.32a.318.318 0 1 1 .35-.53 1.25 1.25 0 0 0 1.8-.47.313.313 0 1 1 .56.28 1.88 1.88 0 0 1-1.68 1.04m10.47 0a1.88 1.88 0 0 1-1.68-1.04.313.313 0 1 1 .56-.28 1.24 1.24 0 0 0 1.8.48.32.32 0 0 1 .35.53c-.3.2-.66.3-1.03.3"/>
</svg>
