<?xml version="1.0" encoding="utf-8"?>
<!-- This Source Code Form is subject to the terms of the Mozilla Public
   - License, v. 2.0. If a copy of the MPL was not distributed with this
   - file, You can obtain one at http://mozilla.org/MPL/2.0/. -->
<svg xmlns="http://www.w3.org/2000/svg" xmlns:xlink="http://www.w3.org/1999/xlink" viewBox="0 0 24 24">
  <style>
    use:not(:target) {
      display: none;
    }
    use {
      fill: #fbfbfb;
      stroke: rgba(0,0,0,0.4);
      stroke-width: .5px;
    }
    use[id$="-native"] {
      fill: ThreeDHighlight;
    }
  </style>
  <defs>
    <g id="general-shape">
      <path d="M18.97,3H5.03C3.914,3,3,3.914,3,5.03v13.94C3,20.086,3.914,21,5.03,21H18.97c1.117,0,2.03-0.914,2.03-2.03 V5.03C21,3.914,20.086,3,18.97,3z M5.35,19.326c-0.404,0-0.731-0.327-0.731-0.731c0-0.404,0.327-0.731,0.731-0.731 c0.404,0,0.731,0.327,0.731,0.731C6.081,19,5.754,19.326,5.35,19.326z M5.35,6.168c-0.403,0-0.731-0.328-0.731-0.731 c0-0.404,0.328-0.731,0.731-0.731c0.403,0,0.731,0.327,0.731,0.731C6.081,5.84,5.753,6.168,5.35,6.168z M15.243,14.035 c0,0.229-0.186,0.416-0.414,0.416c-0.229,0-0.415,0.186-0.415,0.414v3.347c0,0.228-0.185,0.384-0.414,0.384l-4.141,0.03 c-0.227,0-0.414-0.186-0.414-0.414v-3.347c0-0.228-0.185-0.414-0.414-0.414c-0.227,0-0.414-0.187-0.414-0.416V6.582 c0-0.229,0.187-0.414,0.414-0.414h5.798c0.228,0,0.414,0.185,0.414,0.414V14.035z M18.509,19.326c-0.404,0-0.731-0.327-0.731-0.731 c0-0.404,0.327-0.731,0.731-0.731c0.404,0,0.731,0.327,0.731,0.731C19.24,19,18.913,19.326,18.509,19.326z M18.509,6.168 c-0.404,0-0.731-0.328-0.731-0.731c0-0.404,0.327-0.731,0.731-0.731c0.404,0,0.731,0.327,0.731,0.731 C19.24,5.84,18.913,6.168,18.509,6.168z"/>
      <path d="M12.757,7.824h-1.657c-0.456,0-0.828,0.373-0.828,0.828v8.282c0,0.456,0.373,0.828,0.828,0.828h1.657 c0.456,0,0.828-0.373,0.828-0.828V8.652C13.586,8.196,13.213,7.824,12.757,7.824z"/>
    </g>
    <g id="search-shape">
      <path d="M2,10.018c0,4.43,3.585,8.019,8.009,8.019 c1.603,0,3.095-0.473,4.348-1.285l4.806,4.81c0.58,0.583,1.523,0.583,2.105,0l0.296-0.297c0.582-0.583,0.582-1.527,0-2.11 l-4.808-4.814c0.8-1.247,1.265-2.73,1.265-4.323c0-4.43-3.587-8.018-8.012-8.018C5.585,2,2,5.589,2,10.018z M5.104,10.021 c0-2.716,2.196-4.915,4.906-4.915c2.71,0,4.908,2.199,4.908,4.915c0,2.712-2.198,4.911-4.908,4.911 C7.3,14.931,5.104,12.732,5.104,10.021z"/>
    </g>
    <g id="content-shape">
      <path d="M16.286,2H5.571C4.388,2,3.429,2.96,3.429,4.143v15.714 C3.429,21.04,4.388,22,5.571,22h12.857c1.185,0,2.143-0.96,2.143-2.143V6.286L16.286,2z M18.945,19.223c0,0.22-0.18,0.4-0.4,0.4 h-13.2c-0.22,0-0.4-0.18-0.4-0.4v-0.846c0-0.22,0.18-0.4,0.4-0.4h13.2c0.22,0,0.4,0.18,0.4,0.4V19.223z M18.945,15.223 c0,0.22-0.18,0.4-0.4,0.4h-13.2c-0.22,0-0.4-0.18-0.4-0.4v-0.846c0-0.22,0.18-0.4,0.4-0.4h13.2c0.22,0,0.4,0.18,0.4,0.4V15.223z M18.945,11.229c0,0.22-0.18,0.4-0.4,0.4h-13.2c-0.22,0-0.4-0.18-0.4-0.4v-0.846c0-0.22,0.18-0.4,0.4-0.4h13.2 c0.22,0,0.4,0.18,0.4,0.4V11.229z M14.833,7.707v-4.65l4.65,4.65H14.833z"/>
    </g>
    <g id="applications-shape">
      <path d="M16.673,8.914C16.089,4.122,13.248,1,12,1c-1.25,0-3.986,3.122-4.767,7.914l-3.122,3.131v7.889h2.268 l2.978-3.436c0.28,0.29,0.737,1.666,1.065,1.858h3.155c0.331-0.193,0.789-1.569,1.068-1.858l3.123,3.436h2.12v-7.84L16.673,8.914z M12.042,8.735c-0.604,0-1.279,0.06-1.818,0.165c0.478-1.453,1.345-3.117,1.781-3.117c0.435,0,1.301,1.655,1.775,3.1 C13.265,8.789,12.615,8.735,12.042,8.735z M12.524,19.145c0.076,0.196,0.119,0.602,0.119,0.86c0,0.66-0.524,1.074-0.687,1.074 c-0.163,0-0.615-0.414-0.615-1.074c0-0.257,0.045-0.664,0.119-0.86h-0.754c-0.089,0.345-0.39,1.005-0.39,1.408 c0,1.458,1.328,2.447,1.686,2.447c0.359,0,1.686-0.951,1.686-2.407c0-0.404-0.301-1.103-0.388-1.449H12.524z"/>
    </g>
    <g id="privacy-shape">
      <path d="M21.632,9.541c-0.083,1.403,0.246,3.079-1.597,5.498 c-1.965,2.578-3.914,2.594-4.284,2.575c-2.249-0.117-2.502-1.875-3.792-1.875c-1.13,0-2.012,1.745-3.711,1.836 c-0.37,0.02-2.319,0.042-4.284-2.536c-1.841-2.419-1.514-4.095-1.597-5.498C2.287,8.138,2,6.618,2,6.618s0.887,0.895,2.033,0.973 C5.179,7.67,5.394,7.191,7.811,6.501C10.424,5.752,12,8.814,12,8.814s1.776-3.016,4.189-2.313c2.414,0.7,2.515,1.169,3.661,1.091 C20.996,7.513,22,6.618,22,6.618S21.713,8.138,21.632,9.541z M8.117,10.129c-1.429-0.314-2.028,0.223-2.642,0.451 c-0.534,0.202-1.02,0.264-1.02,0.264s0.083,0.819,1.515,1.521c1.432,0.703,4.37,0.338,4.37,0.338S10.651,10.687,8.117,10.129z M18.525,10.58c-0.612-0.228-1.212-0.765-2.642-0.451c-2.534,0.558-2.223,2.573-2.223,2.573s2.938,0.365,4.37-0.338 c1.432-0.702,1.515-1.521,1.515-1.521S19.059,10.782,18.525,10.58z"/>
    </g>
    <g id="security-shape">
      <path d="M18.909,9.783h-0.863V8.086C18.046,4.725,15.339,2,12,2 C8.661,2,5.954,4.725,5.954,8.086v1.697H5.091c-0.955,0-1.728,0.779-1.728,1.739v8.738c0,0.961,0.773,1.74,1.728,1.74h13.818 c0.954,0,1.728-0.779,1.728-1.74v-8.738C20.637,10.562,19.863,9.783,18.909,9.783z M8.545,8.086c0-1.92,1.547-3.478,3.455-3.478 c1.908,0,3.455,1.557,3.455,3.478v1.697h-6.91V8.086z M5.181,16.092l-0.909-1.2v-2.284l2.728,3.483H5.181z M8.818,16.092 l-2.773-3.657h1.727l2.864,3.657H8.818z M12,16.092l-2.773-3.657h1.727l2.864,3.657H12z M15.637,16.092l-2.773-3.657h1.727 l2.864,3.657H15.637z M19.728,16.092h-0.455l-2.773-3.657h1.727l1.501,1.916V16.092z"/>
    </g>
    <g id="sync-shape">
      <path style="fill:#F1F1F1;" d="M0.9,19.9h3.3H15h3.3c0.5,0,0.9-0.4,0.9-0.9v-1.1c0-1-0.5-1.9-1.2-2.5c-2.3-1.8-4.6-2.9-5.1-3.1
      c-0.1,0-0.1-0.1-0.1-0.2v-1.6c0.3-0.5,0.4-1,0.5-1.5c0.2,0.1,0.6,0.1,1-1.3c0.3-1.1,0.1-1.5-0.2-1.6C15,1.7,13,1.6,13,1.6
      S12.7,1,11.8,0.5C11.3,0.2,10.5-0.1,9.5,0C9.1,0,8.8,0.1,8.5,0.2c-0.4,0.1-0.7,0.3-1,0.5C7.1,1,6.8,1.2,6.4,1.6
      c-0.5,0.5-1,1.2-1.1,2C5.1,4.3,5.1,5,5.4,5.8C5,5.7,4.6,5.9,5,7.4c0.3,1.1,0.6,1.4,0.8,1.4c0.1,0.6,0.3,1.3,0.7,1.9v1.4
      c0,0.1,0,0.1-0.1,0.2c-0.5,0.2-2.8,1.4-5.1,3.1C0.5,16,0,16.9,0,17.9V19C0,19.5,0.4,19.9,0.9,19.9"/>
    </g>
    <g id="advanced-shape">
      <path style="fill:#F1F1F1;" d="M19.3,13.4C19.3,13.4,19.3,13.4,19.3,13.4L19.3,13.4C19.3,13.4,19.3,13.4,19.3,13.4L19.3,13.4z
      M19.3,13.4c-0.1,1-0.5,1.8-1.2,2.4c-0.5,0.5-1.1,0.9-1.7,1.2c-0.2,0.4-0.4,0.7-0.8,1c-0.5,0.4-1.3,0.8-2.1,1
      c-0.9,0.2-1.6,0.3-2.3,0.3h-0.9c0.1,0.2,0.2,0.2,0.4,0.2c-1.1-0.1-2.1-0.3-2.9-0.5c0.2,0.2,0.5,0.4,0.8,0.4c-1.5-0.3-2.9-1-4.1-1.9
      c-0.3-0.2-0.4-0.3-0.5-0.4c-1-0.8-1.7-1.6-2.3-2.6c-0.7-1.1-1.1-2.5-1.3-4.1c-0.1,0.5-0.1,0.9-0.1,1.1C0.1,10.2,0.1,9,0.4,7.9
      C0.3,8.2,0.1,8.6,0,9c0.1-0.8,0.4-1.8,0.9-2.8C1,5.8,1.2,5.5,1.3,5.4V4.3c0-0.1,0-0.3,0.1-0.6c0-0.2,0.1-0.4,0.2-0.6v0.1
      c0,0,0-0.1,0-0.1c0-0.1,0-0.1,0-0.1c0-0.1,0-0.2,0.1-0.2v0.1c0,0,0-0.1,0-0.1c0,0,0-0.1,0-0.1s0-0.1,0-0.2C2,2.2,2,2.1,2,2.1
      C2.2,2,2.2,1.9,2.3,1.9V2c0,0.2,0.1,0.5,0.3,1l0-0.1C2.8,3.1,3,3.4,3.4,3.7c0.8-0.2,1.5-0.3,2.4-0.1C5.9,3.5,5.9,3.4,6,3.3v0.1
      C6.1,3.2,6.3,3.1,6.6,3v0c0.2-0.1,0.5-0.3,1-0.4L7.5,2.6c0.1-0.1,0.2-0.1,0.3-0.1c0.1,0,0.2,0,0.3,0c0.1,0,0.3,0,0.4,0
      c-0.1,0-0.1,0.1-0.1,0.1c0,0-0.1,0.1-0.1,0.1s-0.1,0-0.1,0h0.1C7.8,3.2,7.4,3.7,7.2,4.4c-0.1,0-0.1,0.1-0.1,0.2l0.1,0.1
      c0.2,0.3,0.5,0.5,0.9,0.5h1.4c0.2,0.1,0.3,0.2,0.3,0.2c0,0.2-0.1,0.4-0.3,0.6c0,0.1-0.1,0.2-0.3,0.4C8.5,7,8,7.3,7.7,7.6v0.1
      c0,0,0,0,0,0.1c0,0,0,0,0,0.1c-0.1,0-0.1,0-0.1,0.1C7.7,7.9,7.8,8,7.8,8.2c0,0.2,0,0.4-0.1,0.6c0,0-0.1-0.1-0.1-0.1
      c-0.1,0-0.1,0-0.1,0c0.1,0.1,0.2,0.1,0.2,0.2V9c0,0-0.1,0-0.1,0c0,0-0.1-0.1-0.1-0.1l-0.1,0c-0.1,0-0.1,0-0.2-0.1
      c-0.1,0-0.1,0-0.1,0L7,8.7c-0.1,0-0.1,0-0.1,0L7,8.7c-0.1,0-0.1,0-0.2,0l-0.1,0C6.5,8.8,6.4,9,6.4,9.3c0,0.6,0.4,1.1,1.1,1.5
      C7.7,11,8,11.1,8.3,11.2c0.3,0,0.5,0,0.7,0c0.2-0.1,0.4-0.1,0.6-0.2s0.4-0.2,0.5-0.2c0.7-0.2,1.4,0,1.9,0.5c0.2,0.1,0.2,0.2,0.1,0.4
      c-0.1,0.2-0.2,0.3-0.4,0.2c-0.1,0-0.2,0-0.2,0c-0.1,0-0.1,0-0.3,0.1S11.1,12,11,12s-0.2,0.1-0.3,0.2c-0.1,0.1-0.3,0.2-0.4,0.3
      c-0.9,0.5-1.9,0.6-3,0.4c0.4,0.4,0.7,0.7,1.1,0.9c0.1,0,0.2,0.1,0.6,0.1c0.3,0,0.5,0.1,0.6,0.2C9.4,14,9.1,14,8.9,14.1
      c0.8,0.5,1.7,0.7,2.8,0.5c0.4-0.1,0.7-0.2,1-0.4c-0.1,0.1-0.1,0.3-0.2,0.4c0.1,0.1,0.4-0.1,0.6-0.5c0.1-0.1,0.3-0.3,0.6-0.4
      c0,0,0,0.1,0,0.2c0,0.1,0,0.1,0,0.2s0,0.1,0.1,0.1c0.4,0,0.7-0.4,1.1-1.3c0.3-0.6,0.5-1.3,0.6-2.2c0.1,0.2,0.2,0.5,0.2,0.8
      c0.2-0.5,0.3-1,0.3-1.3c0-0.3,0-1.3-0.1-2.9c0.3,0.4,0.5,0.7,0.7,1.1c0.1-1.2-0.1-2.2-0.5-3.1c-0.4-0.8-0.9-1.5-1.4-1.9
      c0.5,0.1,1,0.3,1.4,0.6l-0.3-0.2c-1.4-1.4-3.1-2.2-5.1-2.4c-2-0.2-3.8,0.3-5.4,1.4c-0.6,0-1.1,0-1.5,0.1C3.6,2.7,3.5,2.6,3.5,2.5
      C5.3,0.8,7.4,0,9.9,0s4.6,0.8,6.5,2.4L16.2,2c0.6,0.3,1,0.7,1.4,1.2l-0.1-0.3l0,0.1l0-0.1c0.9,0.7,1.4,1.6,1.7,2.7
      c0.2,0.9,0.2,1.6,0.1,2.3c0.1,0.1,0.1,0.1,0.1,0.3l0.3-1.1c0.1,0.3,0.2,0.7,0.2,1C20,8.5,20,8.9,20,9.2c0,0.4-0.1,0.7-0.1,1
      c-0.1,0.3-0.1,0.7-0.2,1s-0.2,0.6-0.3,0.8c-0.1,0.2-0.2,0.5-0.3,0.7C19.1,12.8,19.2,13,19.3,13.4L19.3,13.4z"/>
    </g>
    <g id="searchResults-shape">
      <path d="M8,16.3c1.5,0,3-0.4,4.3-1.3l4.6,4.6c0.3,0.3,0.8,0.4,1.2,0.3s0.8-0.5,0.9-0.9s0-0.9-0.3-1.2l-4.5-4.5
			c2.4-2.9,2.5-7.2,0.2-10.2S8-0.8,4.6,0.8s-5.2,5.4-4.4,9.1S4.2,16.3,8,16.3z M8,1.9c3.4,0,6.1,2.8,6.1,6.2s-2.7,6.2-6.1,6.2
			S1.9,11.5,1.9,8C1.9,4.6,4.6,1.9,8,1.9L8,1.9z"/>
			<path d="M8,12.9c2.6,0,4.7-2.1,4.7-4.8S10.6,3.4,8,3.4c-2.6,0-4.7,2.1-4.7,4.7c0,1.3,0.5,2.5,1.4,3.4
			C5.6,12.4,6.7,12.9,8,12.9L8,12.9z M7.8,4.5c0.4,0,0.8,0.4,0.8,0.8S8.3,6.1,7.8,6.1C6.8,6.1,6,6.9,6,7.9c0,0.4-0.4,0.8-0.8,0.8
			S4.5,8.3,4.5,7.9C4.5,6,6,4.5,7.8,4.5L7.8,4.5z"/>
    </g>
  </defs>
  <use id="general" xlink:href="#general-shape"/>
  <use id="general-native" xlink:href="#general-shape"/>
  <use id="search" xlink:href="#search-shape"/>
  <use id="search-native" xlink:href="#search-shape"/>
  <use id="content" xlink:href="#content-shape"/>
  <use id="content-native" xlink:href="#content-shape"/>
  <use id="applications" xlink:href="#applications-shape"/>
  <use id="applications-native" xlink:href="#applications-shape"/>
  <use id="privacy" xlink:href="#privacy-shape"/>
  <use id="privacy-native" xlink:href="#privacy-shape"/>
  <use id="security" xlink:href="#security-shape"/>
  <use id="security-native" xlink:href="#security-shape"/>
  <use id="sync" xlink:href="#sync-shape"/>
  <use id="sync-native" xlink:href="#sync-shape"/>
  <use id="advanced" xlink:href="#advanced-shape"/>
  <use id="advanced-native" xlink:href="#advanced-shape"/>
  <use id="searchResults" xlink:href="#searchResults-shape"/>
  <use id="searchResults-native" xlink:href="#searchResults-shape"/>
</svg>
