<?xml version="1.0" encoding="utf-8"?>
<!-- This Source Code Form is subject to the terms of the Mozilla Public
   - License, v. 2.0. If a copy of the MPL was not distributed with this
   - file, You can obtain one at http://mozilla.org/MPL/2.0/. -->
<svg xmlns="http://www.w3.org/2000/svg" viewBox="0 0 24 24">
  <style>
    use:not(:target) {
      display: none;
    }
    use {
      fill: #fbfbfb;
      stroke: rgba(0,0,0,0.4);
      stroke-width: .5px;
    }
    use[id$="-native"] {
      fill: ThreeDHighlight;
    }
  </style>
  <defs>
    <g id="general-shape">
      <path d="M18.97,3H5.03C3.914,3,3,3.914,3,5.03v13.94C3,20.086,3.914,21,5.03,21H18.97c1.117,0,2.03-0.914,2.03-2.03 V5.03C21,3.914,20.086,3,18.97,3z M5.35,19.326c-0.404,0-0.731-0.327-0.731-0.731c0-0.404,0.327-0.731,0.731-0.731 c0.404,0,0.731,0.327,0.731,0.731C6.081,19,5.754,19.326,5.35,19.326z M5.35,6.168c-0.403,0-0.731-0.328-0.731-0.731 c0-0.404,0.328-0.731,0.731-0.731c0.403,0,0.731,0.327,0.731,0.731C6.081,5.84,5.753,6.168,5.35,6.168z M15.243,14.035 c0,0.229-0.186,0.416-0.414,0.416c-0.229,0-0.415,0.186-0.415,0.414v3.347c0,0.228-0.185,0.384-0.414,0.384l-4.141,0.03 c-0.227,0-0.414-0.186-0.414-0.414v-3.347c0-0.228-0.185-0.414-0.414-0.414c-0.227,0-0.414-0.187-0.414-0.416V6.582 c0-0.229,0.187-0.414,0.414-0.414h5.798c0.228,0,0.414,0.185,0.414,0.414V14.035z M18.509,19.326c-0.404,0-0.731-0.327-0.731-0.731 c0-0.404,0.327-0.731,0.731-0.731c0.404,0,0.731,0.327,0.731,0.731C19.24,19,18.913,19.326,18.509,19.326z M18.509,6.168 c-0.404,0-0.731-0.328-0.731-0.731c0-0.404,0.327-0.731,0.731-0.731c0.404,0,0.731,0.327,0.731,0.731 C19.24,5.84,18.913,6.168,18.509,6.168z"/>
      <path d="M12.757,7.824h-1.657c-0.456,0-0.828,0.373-0.828,0.828v8.282c0,0.456,0.373,0.828,0.828,0.828h1.657 c0.456,0,0.828-0.373,0.828-0.828V8.652C13.586,8.196,13.213,7.824,12.757,7.824z"/>
    </g>
    <g id="content-shape">
      <path d="M16.286,2H5.571C4.388,2,3.429,2.96,3.429,4.143v15.714 C3.429,21.04,4.388,22,5.571,22h12.857c1.185,0,2.143-0.96,2.143-2.143V6.286L16.286,2z M18.945,19.223c0,0.22-0.18,0.4-0.4,0.4 h-13.2c-0.22,0-0.4-0.18-0.4-0.4v-0.846c0-0.22,0.18-0.4,0.4-0.4h13.2c0.22,0,0.4,0.18,0.4,0.4V19.223z M18.945,15.223 c0,0.22-0.18,0.4-0.4,0.4h-13.2c-0.22,0-0.4-0.18-0.4-0.4v-0.846c0-0.22,0.18-0.4,0.4-0.4h13.2c0.22,0,0.4,0.18,0.4,0.4V15.223z M18.945,11.229c0,0.22-0.18,0.4-0.4,0.4h-13.2c-0.22,0-0.4-0.18-0.4-0.4v-0.846c0-0.22,0.18-0.4,0.4-0.4h13.2 c0.22,0,0.4,0.18,0.4,0.4V11.229z M14.833,7.707v-4.65l4.65,4.65H14.833z"/>
    </g>
    <g id="security-shape">
      <path d="M18.909,9.783h-0.863V8.086C18.046,4.725,15.339,2,12,2 C8.661,2,5.954,4.725,5.954,8.086v1.697H5.091c-0.955,0-1.728,0.779-1.728,1.739v8.738c0,0.961,0.773,1.74,1.728,1.74h13.818 c0.954,0,1.728-0.779,1.728-1.74v-8.738C20.637,10.562,19.863,9.783,18.909,9.783z M8.545,8.086c0-1.92,1.547-3.478,3.455-3.478 c1.908,0,3.455,1.557,3.455,3.478v1.697h-6.91V8.086z M5.181,16.092l-0.909-1.2v-2.284l2.728,3.483H5.181z M8.818,16.092 l-2.773-3.657h1.727l2.864,3.657H8.818z M12,16.092l-2.773-3.657h1.727l2.864,3.657H12z M15.637,16.092l-2.773-3.657h1.727 l2.864,3.657H15.637z M19.728,16.092h-0.455l-2.773-3.657h1.727l1.501,1.916V16.092z"/>
    </g>
    <g id="sync-shape">
      <path style="fill:#F1F1F1;" d="M3.2,22h3.3h10.8h3.3c0.5,0,0.9-0.4,0.9-0.9V20c0-1-0.5-1.9-1.2-2.5c-2.3-1.8-4.6-2.9-5.1-3.1
        c-0.1,0-0.1-0.1-0.1-0.2v-1.6c0.3-0.5,0.4-1,0.5-1.5c0.2,0.1,0.6,0.1,1-1.3c0.3-1.1,0.1-1.5-0.2-1.6c0.9-4.4-1.1-4.5-1.1-4.5
        S15,3.1,14.1,2.6c-0.5-0.3-1.3-0.6-2.3-0.5c-0.4,0-0.7,0.1-1,0.2c-0.4,0.1-0.7,0.3-1,0.5C9.4,3.1,9.1,3.3,8.7,3.7
        c-0.5,0.5-1,1.2-1.1,2C7.4,6.4,7.4,7.1,7.7,7.9C7.3,7.8,6.9,8,7.3,9.5c0.3,1.1,0.6,1.4,0.8,1.4c0.1,0.6,0.3,1.3,0.7,1.9v1.4
        c0,0.1,0,0.1-0.1,0.2c-0.5,0.2-2.8,1.4-5.1,3.1C2.8,18.1,2.3,19,2.3,20v1.1C2.3,21.6,2.7,22,3.2,22"/>
    </g>
    <g id="advanced-shape">
      <path style="fill:#F1F1F1;" d="M21.3,15.6L21.3,15.6L21.3,15.6L21.3,15.6L21.3,15.6z M21.3,15.6c-0.1,1-0.5,1.8-1.2,2.4
        c-0.5,0.5-1.1,0.9-1.7,1.2c-0.2,0.4-0.4,0.7-0.8,1c-0.5,0.4-1.3,0.8-2.1,1c-0.9,0.2-1.6,0.3-2.3,0.3h-0.9c0.1,0.2,0.2,0.2,0.4,0.2
        c-1.1-0.1-2.1-0.3-2.9-0.5c0.2,0.2,0.5,0.4,0.8,0.4c-1.5-0.3-2.9-1-4.1-1.9c-0.3-0.2-0.4-0.3-0.5-0.4c-1-0.8-1.7-1.6-2.3-2.6
        c-0.7-1.1-1.1-2.5-1.3-4.1c-0.1,0.5-0.1,0.9-0.1,1.1c-0.2-1.3-0.2-2.5,0.1-3.6c-0.1,0.3-0.3,0.7-0.4,1.1c0.1-0.8,0.4-1.8,0.9-2.8
        C3,8.1,3.2,7.8,3.3,7.7V6.6c0-0.1,0-0.3,0.1-0.6c0-0.2,0.1-0.4,0.2-0.6v0.1V5.4c0-0.1,0-0.1,0-0.1c0-0.1,0-0.2,0.1-0.2v0.1V5.1V5
        c0,0,0-0.1,0-0.2C4,4.4,4,4.3,4,4.3c0.2-0.1,0.2-0.2,0.3-0.2v0.1c0,0.2,0.1,0.5,0.3,1l0,0C4.8,5.3,5,5.7,5.4,5.9
        c0.8-0.2,1.5-0.3,2.4-0.1c0.1,0,0.1-0.1,0.2-0.2v0.1c0.1-0.2,0.3-0.3,0.6-0.4l0,0c0.2-0.1,0.5-0.3,1-0.4H9.5
        c0.1-0.1,0.2-0.1,0.3-0.1s0.2,0,0.3,0s0.3,0,0.4,0c-0.1,0-0.1,0.1-0.1,0.1L10.3,5h-0.1h0.1C9.8,5.5,9.4,6,9.2,6.7
        c-0.1,0-0.1,0.1-0.1,0.2L9.2,7c0.2,0.3,0.5,0.5,0.9,0.5h1.4c0.2,0.1,0.3,0.2,0.3,0.2c0,0.2-0.1,0.4-0.3,0.6c0,0.1-0.1,0.2-0.3,0.4
        C10.5,9.2,10,9.6,9.7,9.9V10c0,0,0,0,0,0.1c0,0,0,0,0,0.1c-0.1,0-0.1,0-0.1,0.1c0.1-0.1,0.2,0,0.2,0.2s0,0.4-0.1,0.6L9.6,11
        c-0.1,0-0.1,0-0.1,0c0.1,0.1,0.2,0.1,0.2,0.2v0.1H9.6l-0.1-0.1H9.4c-0.1,0-0.1,0-0.2-0.1c-0.1,0-0.1,0-0.1,0L9,10.9
        c-0.1,0-0.1,0-0.1,0H9c-0.1,0-0.1,0-0.2,0H8.7c-0.2,0.1-0.3,0.3-0.3,0.6c0,0.6,0.4,1.1,1.1,1.5c0.2,0.2,0.5,0.3,0.8,0.4
        c0.3,0,0.5,0,0.7,0c0.2-0.1,0.4-0.1,0.6-0.2S12,13,12.1,13c0.7-0.2,1.4,0,1.9,0.5c0.2,0.1,0.2,0.2,0.1,0.4
        c-0.1,0.2-0.2,0.3-0.4,0.2c-0.1,0-0.2,0-0.2,0c-0.1,0-0.1,0-0.3,0.1s-0.1,0-0.2,0s-0.2,0.1-0.3,0.2c-0.1,0.1-0.3,0.2-0.4,0.3
        c-0.9,0.5-1.9,0.6-3,0.4c0.4,0.4,0.7,0.7,1.1,0.9c0.1,0,0.2,0.1,0.6,0.1c0.3,0,0.5,0.1,0.6,0.2c-0.2-0.1-0.5-0.1-0.7,0
        c0.8,0.5,1.7,0.7,2.8,0.5c0.4-0.1,0.7-0.2,1-0.4c-0.1,0.1-0.1,0.3-0.2,0.4c0.1,0.1,0.4-0.1,0.6-0.5c0.1-0.1,0.3-0.3,0.6-0.4
        c0,0,0,0.1,0,0.2s0,0.1,0,0.2s0,0.1,0.1,0.1c0.4,0,0.7-0.4,1.1-1.3c0.3-0.6,0.5-1.3,0.6-2.2c0.1,0.2,0.2,0.5,0.2,0.8
        c0.2-0.5,0.3-1,0.3-1.3s0-1.3-0.1-2.9c0.3,0.4,0.5,0.7,0.7,1.1c0.1-1.2-0.1-2.2-0.5-3.1c-0.4-0.8-0.9-1.5-1.4-1.9
        c0.5,0.1,1,0.3,1.4,0.6L17.8,6c-1.4-1.4-3.1-2.2-5.1-2.4S8.9,4,7.3,5.1c-0.6,0-1.1,0-1.5,0.1C5.6,4.9,5.5,4.8,5.5,4.8
        C7.3,3,9.4,2.2,11.9,2.2s4.6,0.8,6.5,2.4l-0.2-0.4c0.6,0.3,1,0.7,1.4,1.2l-0.1-0.3v0.1l0,0c0.9,0.7,1.4,1.6,1.7,2.7
        c0.2,0.9,0.2,1.6,0.1,2.3c0.1,0.1,0.1,0.1,0.1,0.3l0.3-1.1c0.1,0.3,0.2,0.7,0.2,1c0.1,0.4,0.1,0.8,0.1,1.1c0,0.4-0.1,0.7-0.1,1
        c-0.1,0.3-0.1,0.7-0.2,1s-0.2,0.6-0.3,0.8c-0.1,0.2-0.2,0.5-0.3,0.7C21.1,15.1,21.2,15.2,21.3,15.6L21.3,15.6z"/>
    </g>
    <g id="searchResults-shape">
      <path d="M20.6,19.6l-4.4-4.5c2.4-2.9,2.4-7.1,0.2-10c-2.3-3-6.3-3.9-9.6-2.3c-3.3,1.6-5.1,5.3-4.3,9 c0.8,3.7,4,6.3,7.7,6.3c1.5,0,3-0.4,4.3-1.3l4.5,4.6c0.3,0.3,0.8,0.4,1.2,0.3c0.4-0.1,0.7-0.4,0.9-0.9S20.9,19.9,20.6,19.6z M10.1,16c-3.3,0-6-2.7-6-6.1c0-3.4,2.7-6.1,6-6.1c3.3,0,6,2.7,6,6.1C16.1,13.3,13.4,16,10.1,16z"/>
      <path d="M10.1,5.3c-2.5,0-4.6,2.1-4.6,4.7c0,1.2,0.5,2.4,1.4,3.3c0.9,0.9,2,1.4,3.3,1.4c2.5,0,4.6-2.1,4.6-4.7 C14.7,7.4,12.7,5.3,10.1,5.3z M10,7.9c-1,0-1.8,0.8-1.8,1.8c0,0.4-0.3,0.8-0.8,0.8s-0.8-0.4-0.8-0.8c0-1.9,1.5-3.4,3.3-3.4h0 c0.4,0,0.8,0.4,0.8,0.8S10.4,7.9,10,7.9z"/>
    </g>
  </defs>
  <use id="general" href="#general-shape"/>
  <use id="general-native" href="#general-shape"/>
  <use id="content" href="#content-shape"/>
  <use id="content-native" href="#content-shape"/>
  <use id="security" href="#security-shape"/>
  <use id="security-native" href="#security-shape"/>
  <use id="sync" href="#sync-shape"/>
  <use id="sync-native" href="#sync-shape"/>
  <use id="advanced" href="#advanced-shape"/>
  <use id="advanced-native" href="#advanced-shape"/>
  <use id="searchResults" href="#searchResults-shape"/>
  <use id="searchResults-native" href="#searchResults-shape"/>
</svg>
