<!-- This Source Code Form is subject to the terms of the Mozilla Public
   - License, v. 2.0. If a copy of the MPL was not distributed with this
   - file, You can obtain one at http://mozilla.org/MPL/2.0/. -->
<svg xmlns="http://www.w3.org/2000/svg" viewBox="0 0 20 20">
  <path fill="context-fill" d="M16.84 15.03c-.27.63-.59 1.2-.96 1.74-.51.72-.93 1.23-1.25 1.5-.5.46-1.03.7-1.6.71-.41 0-.9-.12-1.48-.35a4.25 4.25 0 0 0-1.6-.36c-.5 0-1.05.12-1.63.36A4.4 4.4 0 0 1 6.9 19c-.55.02-1.1-.22-1.64-.73-.35-.3-.78-.82-1.3-1.56-.56-.78-1.02-1.7-1.38-2.73A10.03 10.03 0 0 1 2 10.7c0-1.2.26-2.25.78-3.12a4.6 4.6 0 0 1 3.86-2.28c.43 0 1 .13 1.71.4.71.26 1.16.4 1.36.4.15 0 .66-.16 1.51-.47.8-.3 1.5-.41 2.05-.37 1.51.13 2.65.72 3.4 1.8a3.8 3.8 0 0 0-2 3.44 4.1 4.1 0 0 0 2.5 3.68c-.1.3-.21.57-.33.84zM13.37 1.36c0 .9-.33 1.74-.98 2.52-.8.92-1.75 1.46-2.79 1.37a3.95 3.95 0 0 1 1.02-2.89c.34-.38.76-.7 1.28-.95.51-.25 1-.39 1.45-.41.02.12.02.24.02.36z"/>
</svg>
