<!-- This Source Code Form is subject to the terms of the Mozilla Public
   - License, v. 2.0. If a copy of the MPL was not distributed with this
   - file, You can obtain one at http://mozilla.org/MPL/2.0/. -->
<svg xmlns="http://www.w3.org/2000/svg" viewBox="0 0 380 293">
  <path fill="#FFFFFF" d="M2.72 39.24h40.9s-12.8-28.6 14.37-32.3c24.22-3.3 33.8 21.6 33.8 21.6s2.87-14.36 17.29-11.61c14.2 2.7 24.7 25.56 24.7 25.56h35.6"/>
  <path fill="#E1E1E6" d="M170.09 35.84h-35.62c-.4 0-.75-.22-.93-.57-.1-.2-10.43-20.33-23.96-22.9-13.2-2.53-15.95 10.24-16.06 10.79-.1.45-.48.8-.94.83-.47.05-.9-.23-1.07-.66a41.04 41.04 0 0 0-7.65-11.75c-6.94-7.41-15.36-10.5-25.04-9.2-7.04.97-11.89 3.74-14.4 8.26-5.06 9.1.8 22.45.85 22.58a1.06 1.06 0 0 1-.96 1.48H3.41a1.05 1.05 0 0 1 0-2.1h39.35C41.3 28.68 38 17.86 42.58 9.63 45.43 4.5 50.8 1.36 58.54.3c20.08-2.73 30.5 13.43 33.77 19.78 1.72-4.25 6.43-11.93 17.66-9.79 13.37 2.55 23.28 19.96 25.14 23.44h34.98a1.05 1.05 0 0 1 0 2.1"/>
  <path fill="#FFFFFF" d="M171.26 43.2H2.71a2.1 2.1 0 1 1 0-4.2h168.55a2.1 2.1 0 0 1 0 4.2"/>
  <path fill="#E1E1E6" d="M338.53 124.92H211.12a2.1 2.1 0 1 1 0-4.2h127.41a2.1 2.1 0 0 1 0 4.2M121.81 99.33H55.02a2.1 2.1 0 1 1 0-4.2h66.8a2.1 2.1 0 0 1 0 4.2m-32.54-9.76H70.34a1.05 1.05 0 0 1 0-2.1h18.94a1.05 1.05 0 0 1 0 2.1m47.26 95.55H2.1a2.1 2.1 0 1 1 0-4.2h134.44a2.1 2.1 0 0 1 0 4.2m-21.96-9.57H50.03a1.05 1.05 0 0 1 0-2.1h64.55a1.05 1.05 0 0 1 0 2.1m206.66-61.59h-56.42a1.05 1.05 0 0 1 0-2.1h56.42a1.05 1.05 0 0 1 0 2.1m50.17 19.83H179.66a1.05 1.05 0 0 1 0-2.1H371.4a1.05 1.05 0 0 1 0 2.1"/>
  <path fill="#FFFFFF" d="M283.11 65.18h22.75s-7.12-15.9 7.99-17.96c13.48-1.84 18.8 12.01 18.8 12.01s1.6-7.99 9.61-6.46c7.9 1.5 13.74 14.21 13.74 14.21h19.8"/>
  <path fill="#E1E1E6" d="M306.56 62.73h-22.74a1.05 1.05 0 1 1 0-2.1h21.21c-.88-2.61-2.26-8.18.16-12.53 1.66-2.99 4.76-4.81 9.22-5.42 10.6-1.44 16.48 6.34 18.78 10.37 1.42-2.86 4.5-5.84 9.97-4.8 7.32 1.39 12.8 9.82 14.14 12.09h19.2a1.05 1.05 0 0 1 0 2.1h-19.8c-.39 0-.74-.2-.92-.55-.06-.1-5.7-10.19-13.01-11.58-6.93-1.33-8.33 5.35-8.4 5.63a1.05 1.05 0 0 1-2 .17c-.2-.53-5.2-13.06-17.68-11.35-3.77.52-6.35 1.98-7.67 4.36-2.7 4.86.46 12.06.5 12.14.14.32.11.7-.08 1-.2.3-.53.47-.88.47"/>
  <path fill="#FFFFFF" d="M377.27 69.19h-93.74a2.1 2.1 0 1 1 0-4.2h93.74a2.1 2.1 0 1 1 0 4.2"/>
  <path fill="#E1E1E6" d="M117.87 251.41H9.4a2.1 2.1 0 1 1 0-4.2h108.47a2.1 2.1 0 0 1 0 4.2m242.44 0H241.8a2.1 2.1 0 1 1 0-4.2h118.5a2.1 2.1 0 0 1 0 4.2m-232.88-32.15a4.2 4.2 0 0 1-4.16-3.62l-4.55-32.19a4.2 4.2 0 0 1 8.32-1.17l4.55 32.19a4.2 4.2 0 0 1-4.16 4.79"/>
  <path fill="#E1E1E6" d="M125.24 205.61c-.47-.94-10.5-16.8-13.65-16.8-3.15 0-11.55 7-11.55 8.05 0 1.05 2.45 5.25 8.05 3.85l5.6-1.4s8.05 15.05 9.8 17.15c1.75 2.1 8.4 2.45 1.75-10.85"/>
  <path fill="#0A84FF" d="M105.66 197.3c-.4 0-.8-.11-1.17-.35l-5.24-3.5a2.1 2.1 0 0 1 2.33-3.5l5.25 3.5a2.1 2.1 0 0 1-1.17 3.85"/>
  <path fill="#5CE6E6" d="M122.9 182l5.64 1.3"/>
  <path fill="#E1E1E6" d="M128.54 187.5c-.32 0-.64-.03-.96-.1l-5.64-1.32a4.2 4.2 0 0 1 1.9-8.18l5.65 1.31a4.2 4.2 0 0 1-.95 8.3m106.4 31.75a4.2 4.2 0 0 1-4.17-4.7l3.7-30.92a4.2 4.2 0 1 1 8.33 1l-3.7 30.91a4.2 4.2 0 0 1-4.16 3.7"/>
  <path fill="#E1E1E6" d="M236.5 205.61c.48-.94 10.5-16.8 13.65-16.8 3.15 0 11.55 7 11.55 8.05 0 1.05-2.45 5.25-8.05 3.85l-5.6-1.4s-8.04 15.05-9.8 17.15c-1.74 2.1-8.4 2.45-1.74-10.85"/>
  <path fill="#E1E1E6" d="M257.07 198.18a2.1 2.1 0 0 1-.35-4.17l6.12-1.05a2.1 2.1 0 1 1 .7 4.14l-6.11 1.04c-.12.03-.24.04-.36.04"/>
  <path fill="#E1E1E6" d="M253.75 196.08a2.1 2.1 0 0 1-.73-4.07l6.65-2.45a2.1 2.1 0 0 1 1.45 3.94l-6.64 2.45a2.1 2.1 0 0 1-.73.13m-21.1-6.57a4.2 4.2 0 0 1-.96-8.29l5.64-1.31a4.2 4.2 0 0 1 1.9 8.18l-5.63 1.31c-.32.07-.64.1-.96.1m-82.18-33.66c-3.22 0-6.44-1.23-8.9-3.7l-19.6-19.58a12.6 12.6 0 1 1 17.82-17.82l19.6 19.6a12.6 12.6 0 0 1-8.92 21.5m59.48.7a12.6 12.6 0 0 1-8.9-21.5l19.58-19.6a12.6 12.6 0 0 1 17.82 17.81l-19.6 19.6a12.56 12.56 0 0 1-8.9 3.69"/>
  <path fill="#EDEDF2" d="M121.36 283.07c0-5.1 27.22-9.24 60.8-9.24s60.8 4.13 60.8 9.24c0 5.1-27.22 9.23-60.8 9.23s-60.8-4.13-60.8-9.23"/>
  <path fill="#E1E1E6" d="M130.06 129.95c-6.4 4.08-4.99 121.7 8.65 130.86 9.37 6.3 75.64 8.4 85.73-1.4 2.97-2.88 17.29-74.88 10.08-125.96-1.88-13.34-81.4-18.2-104.46-3.5"/>
  <path fill="#E1E1E6" d="M132.23 229.32s2.1 25.64 6.3 37.6c4.2 11.96 9.1 17.95 11.2 16.24 2.1-1.71 0-39.31 0-39.31l-17.5-14.53zm97.51 0s-2.1 25.64-6.3 37.6c-4.2 11.96-9.1 17.95-11.2 16.24-2.1-1.71 0-39.31 0-39.31l17.5-14.53zM138.71 120.5s26.24-7.87 33.59-8.92c7.35-1.05 23.1-8.92 23.1-8.92l-3.68 8.4 8.92-2.63v4.72l21.52 5.78-4.72 6.3h-69.81l-8.92-4.73z"/>
  <path fill="#F5F5F7" d="M142.82 129.42c-15.06 9.98-5.7 104.71 3.93 116.52 15.84 19.42 63.87 17.85 73.07-3.67 1.52-3.57 15.91-71.38 5-108.65-3.58-12.28-45.7-28.25-82-4.2"/>
  <path fill="#7A7B7E" d="M149.28 141.48a2.27 2.27 0 0 1 2.27 2.27v5.1a2.27 2.27 0 0 1-4.55 0v-5.1a2.26 2.26 0 0 1 2.28-2.27m56.4 0a2.27 2.27 0 0 1 2.26 2.27v5.1a2.27 2.27 0 0 1-4.54 0v-5.1a2.27 2.27 0 0 1 2.27-2.27"/>
  <path fill="#C8C8CC" d="M149.27 161.44a9.75 9.75 0 0 1-7.88-4.1 2.1 2.1 0 0 1 3.51-2.3 5.5 5.5 0 0 0 4.37 2.2 5.52 5.52 0 0 0 4.37-2.2 2.1 2.1 0 0 1 3.52 2.28c-.1.18-2.72 4.12-7.89 4.12m56.4 0a9.75 9.75 0 0 1-7.88-4.1 2.1 2.1 0 0 1 3.51-2.3 5.5 5.5 0 0 0 4.37 2.2 5.52 5.52 0 0 0 4.37-2.2 2.1 2.1 0 0 1 3.52 2.28c-.11.18-2.72 4.12-7.89 4.12m-26 10.75a2.1 2.1 0 0 1-.6-4.11c.18-.05 3.7-1.18 4.6-4.8.7-2.76-.1-6.02-.11-6.05a2.1 2.1 0 0 1 3.95-1.37c.75 1.66 2.3 4.32 3.41 5.03 2 1.28 3.68.7 3.76.68a2.12 2.12 0 0 1 2.69 1.23c.4 1.07-.1 2.26-1.17 2.68a8.71 8.71 0 0 1-8.34-1.66l-.11.48c-1.5 6-7.24 7.74-7.49 7.8-.2.07-.39.1-.58.1"/>
  <path fill="#7A7B7E" d="M175.69 155.33c-1.31 1.4 8.6 3.75 9.86 3.48 1.9-.4 10-6.46 8.92-9.38-.58-1.57-13.61.37-18.78 5.9"/>
  <path fill="#7A7B7E" d="M178.95 155.28a31 31 0 0 0 6.23 1.45c1.54-.54 5.53-3.76 6.85-5.73-2.86.13-9.1 1.46-13.08 4.28m6.54 5.62c-2.45 0-10.34-1.68-11.69-4.05a2.47 2.47 0 0 1 .35-2.95c4.91-5.25 16.2-7.72 19.97-6.95 1.5.3 2.08 1.12 2.32 1.76.43 1.18.25 2.5-.54 3.93-1.9 3.43-7.72 7.75-9.9 8.22-.13.03-.3.04-.51.04"/>
  <path fill="#E1E1E6" d="M231.08 178.78s-1.05 8.4-6.3 13.12c-5.24 4.72 6.83 11.54 6.3 22.04-.52 10.5 0-35.16 0-35.16m-98.93-4.73s1.05 8.4 6.3 13.12c5.25 4.73-6.82 11.55-6.3 22.05.52 10.5 0-35.17 0-35.17"/>
  <path fill="#C8C8CC" d="M195.5 105.2h.01-.01zm0-4.2c-.32 0-.64.07-.94.21-.15.08-15.5 7.73-22.42 8.72-5.1.73-18.85 4.6-27.37 7.07l-3.32-3.32a14.57 14.57 0 0 0-10.37-4.3 14.7 14.7 0 0 0-10.38 25.05l5.08 5.09c-.96 8.47-1.4 21.64-1.24 36.66a6.26 6.26 0 0 0-7.69 6.47c-.05.51-.04.97.02 1.42l1.05 7.45c-3.8-4.5-5.22-4.5-6.1-4.5-1.59 0-3.83 1-6.66 2.94l-2.17-1.44a4.2 4.2 0 0 0-6.49 2.96 4.19 4.19 0 0 0-.9 8.26l4.46 1.14a8.3 8.3 0 0 0 6.1 2.5c.86 0 1.77-.1 2.68-.34l4-1c2.04 3.78 7.16 13.17 8.98 15.68a6.29 6.29 0 0 0 5.02 3.85c1.27 12.93 3.54 29.01 7.42 36.75a75.23 75.23 0 0 0 2.49 9.5c1.47 4.2 6.72 17.9 12.35 17.9.78 0 1.52-.26 2.13-.76.97-.79 1.97-1.6 1.65-18.26 8.4 1.12 19.07 1.75 29.79 1.75 7.3 0 17.6-.3 26.69-1.65-.32 16.56.68 17.37 1.64 18.16.61.5 1.35.76 2.13.76 5.64 0 10.88-13.7 12.36-17.9 1.3-3.72 2.53-9.04 3.65-15.82 1.89-7.91 3.84-18.87 5.43-30.39l.42.01a6.29 6.29 0 0 0 6.23-5.46 355.82 355.82 0 0 0 7.94-14.12l4 1c.92.23 1.82.35 2.68.35a8.38 8.38 0 0 0 7.1-3.76l.97-.17a4.17 4.17 0 0 0 3.43-4.84 4.18 4.18 0 0 0-2.76-3.26 4.21 4.21 0 0 0-5.62-3.46l-3.38 1.24c-3.38-2.11-4.88-2.11-5.4-2.11-.86 0-2.27 0-6 4.37l.74-6.2a6.3 6.3 0 0 0-4.2-6.69c-.74-.3-1.5-.46-2.28-.48.53-14.85.12-28.34-1.25-40.13l2.77-2.77a14.58 14.58 0 0 0 4.3-10.38c0-3.92-1.52-7.6-4.3-10.38a14.58 14.58 0 0 0-10.37-4.3c-3.92 0-7.61 1.53-10.38 4.3l-1.56 1.57-14.81-3.97v-3.11a2.1 2.1 0 0 0-2.7-2.02l-4.58 1.35 1.86-4.26a2.1 2.1 0 0 0-1.92-2.94zm0 2.1l-3.67 8.38 8.91-2.62v4.71l17.53 4.7 2.42-2.41a12.54 12.54 0 0 1 17.79 0 12.58 12.58 0 0 1 0 17.79l-3.49 3.49c1.66 13.68 1.88 28.68 1.25 43.36l1.14-.27a4.12 4.12 0 0 1 2.6.25 4.2 4.2 0 0 1 2.86 4.48l-1.66 13.86c3.2-4.58 7.21-9.7 9-9.7 1.2 0 3.17 1.03 5.15 2.35l4.35-1.6a2.1 2.1 0 0 1 2.7 1.24c.32.88 0 1.8-.7 2.35l1.17-.2.36-.03a2.1 2.1 0 0 1 .35 4.16l-2 .35a6.07 6.07 0 0 1-5.72 3.55 9 9 0 0 1-2.17-.28l-5.59-1.4s-6.2 11.6-8.9 15.83l-.04.39a4.2 4.2 0 0 1-6.32 3.08c-1.83 13.82-4 25.42-5.74 32.68-.94 5.73-2.13 11.43-3.57 15.53-3.72 10.6-8 16.5-10.38 16.5-.3 0-.57-.1-.8-.29-1-.81-1.05-9.82-.82-19-7.97 1.4-18.37 2.02-28.84 2.02-11.66 0-23.4-.77-31.95-2.08.23 9.2.2 18.24-.81 19.06-.24.2-.51.29-.81.29-2.38 0-6.65-5.9-10.37-16.5a74.98 74.98 0 0 1-2.47-9.5c-3.48-6.7-5.95-21.27-7.52-38.26-.17.04-.33.1-.5.12a4.2 4.2 0 0 1-4.55-2.79c-1.8-2.19-9.77-17.08-9.77-17.08l-5.59 1.4c-.78.2-1.5.28-2.17.28a6.24 6.24 0 0 1-4.96-2.29l-5.07-1.3a2.1 2.1 0 1 1 1.04-4.05l3.52.9-1.19-.8a2.1 2.1 0 0 1 2.33-3.49l3.37 2.26c2.42-1.79 5.12-3.4 6.63-3.4 1.84 0 6.05 5.46 9.31 10.16l-2.2-15.5a4.08 4.08 0 0 1 .02-1.09c-.05-.43-.04-.88.07-1.33a4.2 4.2 0 0 1 5.03-3.13l2.6.6c-.24-16.38.23-31.22 1.32-40.08l-5.8-5.8a12.58 12.58 0 0 1 17.79-17.79l4.2 4.2c8.04-2.35 23-6.6 28.27-7.36 7.34-1.05 23.06-8.9 23.06-8.9zM52.65 141.37a25.41 25.41 0 0 1 38.25 33.29l3.91 3.91-4.96 4.96-3.91-3.9a25.42 25.42 0 0 1-33.29-38.26"/>
  <path fill="#F5F5F7" d="M70.62 138.63a20.72 20.72 0 1 1 0 41.45 20.72 20.72 0 0 1 0-41.45"/>
  <path fill="#C8C8CC" d="M71.95 141.08a20.72 20.72 0 0 0-18.74 29.58 20.72 20.72 0 0 1 36.2-20.02 20.7 20.7 0 0 0-17.46-9.56"/>
  <path fill="#7A7B7E" d="M115.81 204.54c2.38-2.38 3.3-5.36 2.03-6.63L95.7 177.6c-1.27-1.27-3.34-1.26-5.72 1.12s-2.39 4.46-1.12 5.72l20.31 22.13c1.27 1.26 4.25.35 6.63-2.03"/>
  <polygon fill="#626366" points="113.396 193.835 105.106 202.128 95.104 191.234 102.502 183.834"/>
  <path fill="#E1E1E6" d="M101.75 189.01s-9.1 2.1-8.75 4.9c.35 2.8 5.39 11.38 8.75 9.8 3.36-1.58 8.75-13.3 0-14.7"/>
  <path fill="#C8C8CC" d="M134.37 128.24c-.1 0-.2-.02-.3-.05a1.04 1.04 0 0 1-.71-1.29c.08-.29 2.1-7.15 11.74-9.9.55-.16 1.14.16 1.3.71.16.56-.17 1.14-.73 1.3-8.45 2.42-10.22 8.22-10.3 8.47-.13.45-.55.76-1 .76m95.52-.26c-.37 0-.73-.2-.92-.55-4.4-8.07-11.78-9.43-11.85-9.44a1.05 1.05 0 0 1 .35-2.07c.34.05 8.43 1.5 13.34 10.5a1.04 1.04 0 0 1-.92 1.56m-76.1 139.08h-.1c-5.5-.55-11.09-5.03-11.32-5.22a1.05 1.05 0 1 1 1.32-1.63c.05.04 5.33 4.27 10.2 4.76a1.05 1.05 0 0 1-.1 2.1m56.42-.27a1.05 1.05 0 0 1-.22-2.07c3.53-.76 9.45-3.33 9.5-3.35a1.05 1.05 0 0 1 .85 1.92c-.25.11-6.18 2.68-9.91 3.48a.99.99 0 0 1-.22.02m23.35-45.4c-.85 0-1.58-.37-2.12-1.07-2.52-3.29-.2-14.94 1.29-21.2l-1.08 1a1.05 1.05 0 0 1-1.42-1.54l3.67-3.41a1.05 1.05 0 0 1 1.73 1.04c-2.01 7.48-4.47 20.29-2.53 22.83.16.2.3.25.46.25a1.05 1.05 0 0 1 0 2.1m-105.5.26a1.05 1.05 0 0 1-.04-2.1c.16 0 .36-.05.6-.36 2.4-3.08.3-18.67-1.58-27.76a1.05 1.05 0 0 1 1.77-.96l2.89 2.88c.4.42.4 1.08 0 1.5-.41.4-1.08.4-1.49 0l-.46-.47c1.27 7.02 3.58 22.18.52 26.1a2.84 2.84 0 0 1-2.16 1.17h-.04M100.6 205.1c-.79 0-1.73-.23-2.77-.92-3.5-2.34-6.98-6.52-6.35-10.18.26-1.48 1.3-3.43 4.84-4.31a1.05 1.05 0 0 1 .5 2.03c-1.95.5-3.05 1.38-3.27 2.64-.4 2.27 1.95 5.74 5.44 8.07.86.57 1.62.7 2.34.43 2.25-.88 3.8-5.46 4.2-7.15.13-.56.7-.9 1.26-.78.57.14.91.7.78 1.27-.17.73-1.8 7.17-5.48 8.61-.4.16-.9.29-1.49.29"/>
</svg>
