<!-- This Source Code Form is subject to the terms of the Mozilla Public
   - License, v. 2.0. If a copy of the MPL was not distributed with this
   - file, You can obtain one at http://mozilla.org/MPL/2.0/. -->
<svg xmlns="http://www.w3.org/2000/svg" width="16" height="16" viewBox="0 0 16 16"><path fill="context-fill" d="M15 7h-2.1a4.967 4.967 0 0 0-.732-1.753l1.49-1.49a1 1 0 0 0-1.414-1.414l-1.49 1.49A4.968 4.968 0 0 0 9 3.1V1a1 1 0 0 0-2 0v2.1a4.968 4.968 0 0 0-1.753.732l-1.49-1.49a1 1 0 0 0-1.414 1.415l1.49 1.49A4.967 4.967 0 0 0 3.1 7H1a1 1 0 0 0 0 2h2.1a4.968 4.968 0 0 0 .737 1.763c-.014.013-.032.017-.045.03l-1.45 1.45a1 1 0 1 0 1.414 1.414l1.45-1.45c.013-.013.018-.031.03-.045A4.968 4.968 0 0 0 7 12.9V15a1 1 0 0 0 2 0v-2.1a4.968 4.968 0 0 0 1.753-.732l1.49 1.49a1 1 0 0 0 1.414-1.414l-1.49-1.49A4.967 4.967 0 0 0 12.9 9H15a1 1 0 0 0 0-2zM5 8a3 3 0 1 1 3 3 3 3 0 0 1-3-3z"></path></svg>