<!-- This Source Code Form is subject to the terms of the Mozilla Public
   - License, v. 2.0. If a copy of the MPL was not distributed with this
   - file, You can obtain one at http://mozilla.org/MPL/2.0/. -->
<svg xmlns="http://www.w3.org/2000/svg" width="631" height="36" viewBox="0 0 631 36"><style>.addressBarOutline{stroke:#b1b1b3;stroke-linejoin:round;stroke-width:1px}.addressBarIcons{fill:#b1b1b3}.addressBarIcons,.searchBarIcons{fill-rule:evenodd}.searchBarFill{fill:#0a84ff}.searchBarOutline{fill-opacity:.2;stroke:#0a84ff}</style><rect class="addressBarOutline" fill="#fff" x=".5" y=".5" width="630" height="35" rx="4" ry="4"/><rect class="addressBarOutline" fill="none" x="110.5" y="6.5" width="314" height="23" rx="4" ry="4"/><path class="addressBarIcons" d="M604 .5h.5v34h-.5V.5zM126.41 22l-3.09-3.085a3.881 3.881 0 0 0-.64-5.2 3.855 3.855 0 0 0-5.4 5.462 3.958 3.958 0 0 0 5.21.643l3.08 3.085a.622.622 0 0 0 .9 0 .677.677 0 0 0-.06-.9zm-6.23-2.764a2.571 2.571 0 1 1 2.57-2.57 2.652 2.652 0 0 1-2.57 2.574z"/><rect class="addressBarOutline searchBarFill searchBarOutline" x="429.5" y="6.5" width="115" height="23" rx="4" ry="4"/><path class="searchBarFill searchBarIcons" d="M445.41 22l-3.09-3.085a3.881 3.881 0 0 0-.64-5.2 3.855 3.855 0 0 0-5.4 5.462 3.958 3.958 0 0 0 5.21.643l3.08 3.085a.622.622 0 0 0 .9 0 .677.677 0 0 0-.06-.9zm-6.23-2.764a2.571 2.571 0 1 1 2.57-2.57 2.652 2.652 0 0 1-2.57 2.574z"/><path class="addressBarIcons" d="M620.75 17.25h-7.5a.75.75 0 0 0 0 1.5h7.5a.75.75 0 0 0 0-1.5m0 3.75h-7.5a.75.75 0 0 0 0 1.5h7.5a.75.75 0 0 0 0-1.5m0-7.5h-7.5a.75.75 0 0 0 0 1.5h7.5a.75.75 0 0 0 0-1.5M585.77 13.5a.75.75 0 0 0-.52 1.28l3.18 3.22-3.18 3.22a.746.746 0 1 0 1.05 1.06l3.7-3.75a.774.774 0 0 0 0-1.06l-3.7-3.75a.754.754 0 0 0-.53-.22m4.44 0a.715.715 0 0 0-.52.22.754.754 0 0 0 0 1.06l3.17 3.22-3.17 3.22a.754.754 0 0 0 0 1.06.715.715 0 0 0 .52.22.754.754 0 0 0 .53-.22l3.69-3.75a.754.754 0 0 0 0-1.06l-3.69-3.75a.754.754 0 0 0-.53-.22M567.37 15.75h1.5a.375.375 0 1 0 0-.75h-1.5a.375.375 0 0 0 0 .75zm2.63-3h-9a1.5 1.5 0 0 0-1.5 1.5v7.5a1.5 1.5 0 0 0 1.5 1.5h9a1.5 1.5 0 0 0 1.5-1.5v-7.5a1.5 1.5 0 0 0-1.5-1.5zm-4.5 9H561v-7.5h4.5v7.5zm4.5 0h-3.75v-7.5H570v7.5zm-2.63-4.5h1.5a.375.375 0 1 0 0-.75h-1.5a.375.375 0 0 0 0 .75zm0 1.5h.75a.375.375 0 1 0 0-.75h-.75a.375.375 0 0 0 0 .75zM89.83 21.25a.375.375 0 1 1 .37-.375.356.356 0 0 1-.37.375m-2.6 1.5a.7.7 0 0 1-.742-.75v-4.95l2.961-3 2.97 3V22a.706.706 0 0 1-.74.75h-.74V19a.706.706 0 0 0-.74-.75h-1.49a.706.706 0 0 0-.74.75v3.75h-.739m2.219-10.5a.7.7 0 0 0-.51.225l-5.193 5.25a.738.738 0 1 0 1.037 1.05l.223-.225v4.2a1.5 1.5 0 0 0 1.482 1.5h5.931a1.491 1.491 0 0 0 1.48-1.5v-4.2l.22.225a.678.678 0 0 0 .52.225.663.663 0 0 0 .52-.225.725.725 0 0 0 0-1.05l-5.19-5.25a.709.709 0 0 0-.52-.225M70.375 13a.749.749 0 0 0-.75.75v1.808a5.245 5.245 0 1 0-.788 6.4.75.75 0 0 0-1.061-1.061 3.755 3.755 0 1 1 .776-4.151h-1.927a.75.75 0 0 0 0 1.5h3.75a.749.749 0 0 0 .75-.75v-3.75a.749.749 0 0 0-.75-.75M36.217 17.292h8.649l-3.206-3.2a.738.738 0 0 1 1.044-1.043l4.474 4.47a.72.72 0 0 1 0 1.043l-4.474 4.47a.72.72 0 0 1-1.044 0 .72.72 0 0 1 0-1.043l3.206-3.2h-8.649a.749.749 0 1 1 0-1.497z"/><circle class="addressBarOutline" fill="#f9f9fa" cx="18.5" cy="18" r="12"/><path class="addressBarIcons" d="M23.783 17.292h-8.649l3.206-3.2a.738.738 0 0 0-1.044-1.043l-4.474 4.47a.72.72 0 0 0 0 1.043l4.474 4.47a.72.72 0 0 0 1.044 0 .72.72 0 0 0 0-1.043l-3.206-3.2h8.649a.749.749 0 1 0 0-1.497z"/></svg>
