<!-- may be protected as a trademark in some jurisdictions -->
<svg xmlns="http://www.w3.org/2000/svg" width="135" height="40" xml:space="preserve"><path fill="#A6A6A6" d="M130.197 40H4.729A4.74 4.74 0 0 1 0 35.267V4.726A4.733 4.733 0 0 1 4.729 0h125.468C132.803 0 135 2.12 135 4.726v30.541c0 2.605-2.197 4.733-4.803 4.733z"/><path d="M134.032 35.268a3.83 3.83 0 0 1-3.834 3.83H4.729a3.835 3.835 0 0 1-3.839-3.83V4.725A3.84 3.84 0 0 1 4.729.89h125.468a3.834 3.834 0 0 1 3.834 3.835l.001 30.543z"/><g fill="#FFF"><path d="M30.128 19.784c-.029-3.223 2.639-4.791 2.761-4.864-1.511-2.203-3.853-2.504-4.676-2.528-1.967-.207-3.875 1.177-4.877 1.177-1.022 0-2.565-1.157-4.228-1.123-2.14.033-4.142 1.272-5.24 3.196-2.266 3.923-.576 9.688 1.595 12.859 1.086 1.553 2.355 3.287 4.016 3.226 1.625-.067 2.232-1.036 4.193-1.036 1.943 0 2.513 1.036 4.207.997 1.744-.028 2.842-1.56 3.89-3.127 1.255-1.78 1.759-3.533 1.779-3.623-.041-.014-3.387-1.291-3.42-5.154zM26.928 10.306c.874-1.093 1.472-2.58 1.306-4.089-1.265.056-2.847.875-3.758 1.944-.806.942-1.526 2.486-1.34 3.938 1.421.106 2.88-.717 3.792-1.793z"/></g><g fill="#FFF"><path d="M54.006 17.03H52l-1.1-3.455h-3.821l-1.047 3.455h-1.955l3.787-11.761h2.338l3.804 11.761zm-3.438-4.903-.995-3.071c-.104-.314-.302-1.053-.593-2.216h-.035c-.117.5-.303 1.239-.559 2.216l-.977 3.071h3.159zM63.742 12.685c0 1.443-.389 2.583-1.168 3.42-.699.745-1.564 1.117-2.602 1.117-1.115 0-1.918-.401-2.406-1.204h-.035v4.467h-1.885v-9.144c0-.908-.023-1.838-.07-2.792h1.658l.105 1.344h.034c.629-1.012 1.582-1.519 2.861-1.519 1.002 0 1.836.396 2.506 1.187.668.792 1.002 1.833 1.002 3.124zm-1.918.07c0-.826-.188-1.506-.559-2.042-.408-.558-.955-.837-1.641-.837-.465 0-.887.154-1.266.462s-.625.712-.742 1.213a2.414 2.414 0 0 0-.086.576v1.414c0 .617.188 1.137.566 1.562.379.425.869.637 1.475.637.709 0 1.262-.273 1.658-.82.396-.548.595-1.269.595-2.165zM73.497 12.685c0 1.443-.39 2.583-1.169 3.42-.698.745-1.564 1.117-2.601 1.117-1.116 0-1.919-.401-2.407-1.204h-.035v4.467H65.4v-9.144c0-.908-.023-1.838-.069-2.792h1.657l.104 1.344h.035c.628-1.012 1.582-1.519 2.861-1.519 1.001 0 1.835.396 2.505 1.187.669.792 1.004 1.833 1.004 3.124zm-1.919.07c0-.826-.187-1.506-.559-2.042-.407-.558-.954-.837-1.641-.837-.465 0-.887.154-1.265.462a2.134 2.134 0 0 0-.742 1.213 2.423 2.423 0 0 0-.087.576v1.414c0 .617.188 1.137.567 1.562.378.425.869.637 1.474.637.71 0 1.263-.273 1.658-.82s.595-1.269.595-2.165zM86.759 13.732c0 1-.349 1.814-1.045 2.443-.766.687-1.834 1.029-3.203 1.029-1.266 0-2.281-.244-3.048-.733l.436-1.57c.826.5 1.734.75 2.724.75.71 0 1.263-.16 1.658-.481.396-.32.594-.749.594-1.285 0-.478-.163-.879-.488-1.206-.326-.326-.867-.629-1.623-.909-2.06-.769-3.089-1.894-3.089-3.374 0-.967.36-1.759 1.082-2.377.721-.618 1.681-.926 2.879-.926 1.07 0 1.96.186 2.67.558l-.471 1.536c-.663-.36-1.414-.541-2.251-.541-.663 0-1.181.163-1.554.489a1.4 1.4 0 0 0-.471 1.064c0 .465.181.849.541 1.152.314.279.884.582 1.71.907 1.012.407 1.757.884 2.233 1.431.477.549.716 1.229.716 2.043zM92.988 9.963h-2.077v4.118c0 1.047.367 1.571 1.1 1.571.338 0 .616-.029.838-.087l.053 1.431c-.373.139-.861.209-1.466.209-.745 0-1.326-.227-1.745-.68-.419-.454-.629-1.216-.629-2.286V9.963h-1.238V8.55h1.238V6.997l1.85-.558V8.55h2.077v1.413zM102.358 12.72c0 1.303-.373 2.373-1.117 3.211-.779.861-1.814 1.291-3.105 1.291-1.245 0-2.237-.413-2.976-1.239-.739-.826-1.108-1.867-1.108-3.124 0-1.314.381-2.391 1.144-3.229.762-.837 1.788-1.256 3.079-1.256 1.245 0 2.245.413 3.002 1.239.72.804 1.081 1.839 1.081 3.107zm-1.955.061c0-.782-.168-1.453-.506-2.012-.396-.677-.96-1.015-1.692-1.015-.757 0-1.332.338-1.728 1.015-.338.56-.506 1.242-.506 2.047 0 .782.168 1.453.506 2.013.407.677.978 1.015 1.71 1.015.722 0 1.285-.344 1.692-1.033.35-.571.524-1.248.524-2.03zM108.482 10.208a3.208 3.208 0 0 0-.593-.052c-.663 0-1.176.25-1.536.75-.313.442-.471 1.001-.471 1.675v4.45h-1.885l.018-5.811c0-.978-.023-1.867-.07-2.67h1.641l.07 1.623h.052a2.89 2.89 0 0 1 .942-1.343 2.276 2.276 0 0 1 1.361-.454c.175 0 .331.012.471.035v1.797zM116.91 12.389c0 .337-.023.623-.069.855h-5.653c.022.837.296 1.478.819 1.919.478.396 1.094.593 1.85.593.838 0 1.6-.133 2.286-.401l.297 1.309c-.803.349-1.751.523-2.845.523-1.314 0-2.347-.387-3.097-1.161-.751-.773-1.126-1.812-1.126-3.115 0-1.279.35-2.344 1.047-3.193.733-.907 1.722-1.361 2.967-1.361 1.222 0 2.146.454 2.774 1.361.5.722.75 1.612.75 2.671zm-1.797-.489c.012-.558-.11-1.041-.366-1.448-.326-.523-.826-.785-1.501-.785-.616 0-1.117.256-1.501.768-.313.408-.5.896-.558 1.466h3.926z"/></g><g fill="#FFF"><path d="M49.143 35.291V24.205h-4.979v-1.096l12.345.015-.015 1.081H50.3l-.015 11.086h-1.142zm5.454-3.689a8.46 8.46 0 0 0-.912-1.068c-.32-.315-.642-.6-.963-.852s-.635-.472-.941-.66a38.356 38.356 0 0 0-.845-.504l.504-.844c.475.178.906.391 1.297.637.391.248.769.523 1.134.83.267.228.528.475.785.741s.514.548.771.845l-.83.875zM68.394 21.927a17.43 17.43 0 0 0 .029 1.038l.667-.639c.494.179.928.431 1.297.756.371.326.715.697 1.031 1.112a1.61 1.61 0 0 1-.283.341c-.107.099-.217.203-.326.311h1.008v1.053h-3.274c.078.85.165 1.65.259 2.4.094.752.186 1.492.275 2.224.346-.622.592-1.237.74-1.845s.252-1.297.311-2.068l1.053.312a10.829 10.829 0 0 1-.533 2.749 9.665 9.665 0 0 1-1.17 2.35c.127.355.293.711.496 1.066.201.355.457.662.764.919.049.03.094.015.133-.044.049-.148.088-.314.119-.497.029-.183.045-.362.051-.54.006-.179.008-.352.008-.52s-.006-.311-.016-.43l1.082.385c-.029.455-.076.9-.141 1.334a2.844 2.844 0 0 1-.438 1.172c-.188.217-.439.335-.756.355-.178-.01-.346-.055-.504-.134s-.303-.178-.438-.296a2.69 2.69 0 0 1-.361-.393 10.404 10.404 0 0 1-.297-.408 4.55 4.55 0 0 1-.259-.459 9.806 9.806 0 0 0-.245-.46 3.902 3.902 0 0 1-.459.474c-.188.169-.388.344-.601.527-.213.183-.438.362-.674.541-.237.178-.47.346-.697.504l-.874-.846c.306-.178.568-.338.785-.481.218-.144.371-.255.46-.333h-2.683v1.793h-1.171v-1.793h-3.883v-1.008h3.897l.015-.563h-2.756v-3.823h2.756v-.489h-3.363v-.964l3.363-.014v-.683H59.16v-1.067h3.572l-.015-.711h-2.994v-.992h2.994l.015-1.201h1.126v1.201h3.053l.015.992h-3.053l-.015.711h3.468l-.059-2.919h1.127zm-5.602 7.053-1.689-.014v.474h1.675l.014-.46zm-.015 1.35h-1.675v.637h1.675v-.637zm4.772 2.312c.06-.05.158-.15.296-.304a6.32 6.32 0 0 0 .386-.467c-.129-.405-.237-.85-.326-1.334s-.165-.985-.229-1.504a40.138 40.138 0 0 1-.163-1.571c-.045-.528-.087-1.04-.126-1.534h-3.482v.668h3.319l.015.963h-3.334v.504l2.756-.016v3.839h-2.756v.563h3.631l.013.193zm-1.956-3.675h-1.689v.474h1.689v-.474zm0 1.347-1.689.016v.637h1.689v-.653zm4.966-5.468a4.904 4.904 0 0 0-.928-1.052 4.788 4.788 0 0 0-1.222-.741c.02.346.032.67.037.971.005.302.018.576.037.822h2.076z"/></g></svg>
