/* XPM */
static char * check_on_xpm[] = {
"15 15 5 1",
" 	c None",
".	c #000000",
"+	c #FFFFFF",
"@	c #FEFEFE",
"#	c #FDFDFD",
"...............",
"...............",
"..+@+++++++++..",
"..+.+++++++.+..",
"..++.+++++.@+..",
"..+++.+++.@++..",
"..++++.+.++++..",
"..+++++.+++++..",
"..++++.@.++++..",
"..+++.+++.+++..",
"..+#.++++@.++..",
"..+.@++++++.+..",
"..+++++++++++..",
"...............",
"..............."};
