<?xml version="1.0" encoding="iso-8859-1"?>
<!-- Generator: Adobe Illustrator 16.0.0, SVG Export Plug-In . SVG Version: 6.00 Build 0)  -->
<!DOCTYPE svg PUBLIC "-//W3C//DTD SVG 1.1//EN" "http://www.w3.org/Graphics/SVG/1.1/DTD/svg11.dtd">
<svg version="1.1" id="Layer_1" xmlns="http://www.w3.org/2000/svg" xmlns:xlink="http://www.w3.org/1999/xlink" x="0px" y="0px"
     width="29px" height="31px" viewBox="0 0 29 31" style="enable-background:new 0 0 29 31;" xml:space="preserve">
  <!-- TODO: Enable shadow after bug 1015575 is resolved.
  <defs>
    <filter id="caretFilter">
      <feOffset result="offsetOut" in="SourceAlpha" dx="1" dy="1" />
      <feGaussianBlur result="blurOut" in="offsetOut" stdDeviation="0.5" />
      <feBlend in="SourceGraphic" in2="blurOut" mode="normal" />
    </filter>
  </defs>
  <g fill="#2da9e3" filter="url(#caretFilter)">
  -->
  <g fill="#2da9e3">
    <path fill="#2da9e3" d="M27.296,2.674c-0.049,0.104-0.09,0.209-0.134,0.314C27.231,2.893,27.274,2.786,27.296,2.674z"/>
    <path fill="#2da9e3" d="M26.197,1.734C26.2,1.733,26.205,1.73,26.21,1.729C26.205,1.73,26.2,1.733,26.197,1.734z"/>
    <path fill="#2da9e3" d="M4.299,8.574C4.632,6.7,4.404,4.755,3.647,2.989c-0.044-0.105-0.085-0.21-0.134-0.314C3.461,2.42,3.529,2.146,3.718,1.944
                            C3.95,1.696,4.299,1.623,4.6,1.729c0.005,0.001,0.01,0.003,0.013,0.004c1.915,0.71,4.001,0.798,5.954,0.277
                            c3.301-1.113,7.094-0.423,9.815,2.123c3.947,3.691,4.156,9.882,0.465,13.828c-3.691,3.947-9.881,4.154-13.828,0.462
                            C4.242,15.828,3.319,11.994,4.299,8.574z"/>
  </g>
</svg>
