<!-- This Source Code Form is subject to the terms of the Mozilla Public
   - License, v. 2.0. If a copy of the MPL was not distributed with this
   - file, You can obtain one at http://mozilla.org/MPL/2.0/. -->
<svg width="16" height="16" viewBox="0 0 16 16" xmlns="http://www.w3.org/2000/svg">
<path fill="context-fill" fill-opacity="context-fill-opacity" d="m14.25 13.097c0.1213-0.1606 0.3966-0.078 0.3966 0.1232v2.6548c0 0.3453 0.2799 0.6251 0.6251 0.6251s0.6251-0.2798 0.6251-0.6251v-4.3749c0-0.5523-0.4478-1-1-1h-4.375c-0.3452 0-0.62505 0.2798-0.62505 0.625s0.27985 0.625 0.62505 0.625h2.2513c0.3875 0 0.6211 0.419 0.3797 0.7222-1.0044 1.2611-2.484 2.1434-4.2094 2.3553-3.4946 0.4291-6.6753-2.056-7.1044-5.5506-0.04207-0.34261-0.35391-0.58624-0.69651-0.54418-0.34261 0.04207-0.58624 0.35391-0.54418 0.69651 0.51322 4.1798 4.3176 7.1522 8.4974 6.639 2.1342-0.2621 3.9533-1.3825 5.1542-2.9713z" />
<path fill="context-fill" fill-opacity="context-fill-opacity" d="m15.191 8.2672c-0.3426 0.04207-0.6544-0.20156-0.6965-0.54417-0.4291-3.4946-3.6098-5.9796-7.1044-5.5506-1.7253 0.21184-3.2051 1.0943-4.2094 2.3553-0.24146 0.30317-0.00787 0.7222 0.37971 0.7222h2.2518c0.34518 0 0.625 0.27982 0.625 0.625s-0.27982 0.625-0.625 0.625h-4.375c-0.55229 0-1-0.44771-1-1v-4.3749c0-0.34521 0.27985-0.62506 0.62506-0.62506 0.34521 0 0.62506 0.27985 0.62506 0.62506v2.6544c0 0.20123 0.27525 0.28377 0.39659 0.12325 1.201-1.5887 3.0198-2.7088 5.1539-2.9709 4.1797-0.51321 7.9842 2.4591 8.4974 6.6389 0.0421 0.34261-0.2016 0.65445-0.5442 0.69651z" />
</svg>
