<!-- This Source Code Form is subject to the terms of the Mozilla Public
   - License, v. 2.0. If a copy of the MPL was not distributed with this
   - file, You can obtain one at http://mozilla.org/MPL/2.0/. -->
<svg width="16" height="16" viewBox="0 0 16 16" fill="context-fill" fill-opacity="context-fill-opacity" xmlns="http://www.w3.org/2000/svg">
  <path fill-rule="evenodd" clip-rule="evenodd" d="M5.59978 2.99995H4.39978L4.03378 3.36595L3.04678 2.37895C4.06753 1.47739 5.31505 0.871608 6.65478 0.626953L7.03178 0.910953C7.01178 1.10495 6.99978 1.30095 6.99978 1.49995C7.00068 2.96218 7.49473 4.38137 8.40205 5.52805C9.30938 6.67472 10.5769 7.48186 11.9998 7.81895V8.59995L12.3998 8.99995H13.5998L13.9998 8.59995V7.96095C14.4328 7.92695 14.8568 7.86395 15.2628 7.75395L15.4998 7.99995C15.5004 9.82521 14.8319 11.5874 13.6208 12.953L8.99978 8.33195V7.39995L8.59978 6.99995H7.66778L5.63378 4.96595L5.99978 4.59995V3.39995L5.59978 2.99995ZM0.627649 2.01098C0.790849 2.00886 0.948424 2.07057 1.06679 2.18295L13.8168 14.9319C13.9336 15.0496 13.9992 15.2087 13.9992 15.3744C13.9992 15.5402 13.9336 15.6993 13.8168 15.8169C13.6993 15.934 13.5402 15.9997 13.3743 15.9997C13.2084 15.9997 13.0493 15.934 12.9318 15.8169L11.6588 14.5439C10.5768 15.1519 9.32979 15.4999 7.99979 15.4999C6.01066 15.4999 4.10301 14.7098 2.69649 13.3032C1.28996 11.8967 0.499788 9.98907 0.499787 7.99995C0.498852 6.71891 0.828477 5.45931 1.45679 4.34295L0.181787 3.06795C0.0694089 2.94958 0.00770211 2.79201 0.00981831 2.62881C0.0119345 2.46561 0.0777068 2.30969 0.193117 2.19428C0.308527 2.07887 0.464448 2.01309 0.627649 2.01098ZM1.99979 8.59995L2.39979 8.99995H3.59979L3.99979 8.59995V7.39995L3.59979 6.99995H2.39979L1.99979 7.39995V8.59995ZM5.59979 12.9999L5.99979 12.5999V11.3999L5.59979 10.9999H4.39979L3.99979 11.3999V12.5999L4.39979 12.9999H5.59979Z"/>
</svg>
