<!-- This Source Code Form is subject to the terms of the Mozilla Public
   - License, v. 2.0. If a copy of the MPL was not distributed with this
   - file, You can obtain one at http://mozilla.org/MPL/2.0/. -->
<svg xmlns="http://www.w3.org/2000/svg" width="16" height="16" viewBox="0 0 16 16" fill="context-fill" fill-opacity="context-fill-opacity">
  <path d="M14.71 1.29a1 1 0 0 0-1.42 0l-.56.57A7 7 0 0 0 1 7a1 1 0 0 0 2 0 5 5 0 0 1 5-5 5 5 0 0 1 3.31 1.28l-.7.7A4 4 0 0 0 8 3a4 4 0 0 0-4 4 2 2 0 0 1-2 2 1 1 0 0 0 0 2 3.86 3.86 0 0 0 2.33-.75l-3 3a.91.91 0 0 0-.08.13.82.82 0 0 0-.11.17 1.17 1.17 0 0 0-.06.2A.86.86 0 0 0 1 14a.61.61 0 0 0 0 .23.62.62 0 0 0 0 .13v.08a.76.76 0 0 0 .12.19s0 .06.06.09a1 1 0 0 0 1.42 0l12-12a1 1 0 0 0 .11-1.43zM6 7a2 2 0 0 1 2-2 1.94 1.94 0 0 1 1.18.41l-.72.72A.91.91 0 0 0 8 6a1 1 0 0 0-1 1 4.76 4.76 0 0 1-.06.65L5.12 9.47A4.1 4.1 0 0 0 6 7z"/>
  <path d="M9.68 9.32a8.06 8.06 0 0 1-1.42 2.48 11 11 0 0 0-1.15 1.75 1 1 0 0 0 .44 1.34A.93.93 0 0 0 8 15a1 1 0 0 0 .89-.55 9.74 9.74 0 0 1 1-1.44A8.84 8.84 0 0 0 12 7z"/>
  <path d="M12.91 6.09A5.5 5.5 0 0 1 13 7a8.24 8.24 0 0 1-1.14 4.28A5.75 5.75 0 0 0 11 14a1 1 0 0 0 2 0 3.91 3.91 0 0 1 .63-1.79A10.18 10.18 0 0 0 15 7a6.81 6.81 0 0 0-.48-2.52z"/>
</svg>
