<!-- This Source Code Form is subject to the terms of the Mozilla Public
   - License, v. 2.0. If a copy of the MPL was not distributed with this
   - file, You can obtain one at http://mozilla.org/MPL/2.0/. -->
<svg xmlns="http://www.w3.org/2000/svg" viewBox="0 0 16 16" width="16" height="16"><path fill="context-fill" fill-opacity="context-fill-opacity" d="M14.51 6.46a1.68 1.68 0 0 0-.16-1.81L7 12a14.73 14.73 0 0 1 1 2.56c.32.5-.65 1.23.59 1.38s1.7-2.1 1.3-3-.89-2.67 0-2.46l.65.15c1.15.35 2.85.49 3.7-.08s.44-1.09.33-1.76a1.73 1.73 0 0 0-.06-2.33zM14.71 1.29a1 1 0 0 0-1.42 0l-.87.88c-.13 0-.25-.09-.39-.12A14.6 14.6 0 0 0 9.71 2c-1.43 0-2.71.19-4.18.25S2.49 2 1 2v6h3a3.65 3.65 0 0 1 .83.66.61.61 0 0 1 .1.23 4.74 4.74 0 0 0 .27.51l-3.9 3.89a1 1 0 0 0 0 1.42 1 1 0 0 0 1.42 0l12-12a1 1 0 0 0-.01-1.42z"/></svg>
