<!-- This Source Code Form is subject to the terms of the Mozilla Public
   - License, v. 2.0. If a copy of the MPL was not distributed with this
   - file, You can obtain one at http://mozilla.org/MPL/2.0/. -->
<svg xmlns="http://www.w3.org/2000/svg" viewBox="0 0 16 16"><path fill="context-fill" fill-opacity="context-fill-opacity" d="M14.51 6.46a1.87 1.87 0 0 0-.57-2.29c.21-1.31-.59-1.78-1.91-2.12A14.6 14.6 0 0 0 9.71 2c-1.43 0-2.71.19-4.18.25S2.49 2 1 2v6h3a3.65 3.65 0 0 1 .83.66.61.61 0 0 1 .1.23 4.6 4.6 0 0 0 .58.94A11.59 11.59 0 0 1 8 14.58c.32.5-.65 1.23.59 1.38s1.7-2.1 1.3-3-.89-2.67 0-2.46l.65.15c1.15.35 2.85.49 3.7-.08s.44-1.09.33-1.76a1.73 1.73 0 0 0-.06-2.35z"/></svg>
