/* XPM */ 
static char * thunderbird3_xpm[] = {
"48 48 227 2",
"  	c None",
"! 	c black",
"# 	c #7693BC",
"$ 	c #C4DAE4",
"% 	c #7186B1",
"& 	c #90C7D9",
"' 	c #D1E7EE",
"( 	c #7396C1",
") 	c #9ED5E1",
"* 	c #B3D6E3",
"+ 	c #98BAD3",
", 	c #6381AA",
"- 	c #9DAED1",
". 	c #6FABCA",
"0 	c #5695BD",
"1 	c #4E91BB",
"2 	c #3C82B2",
"3 	c #2B73AA",
"4 	c #1A65A2",
"5 	c #0E5196",
"6 	c #3277AC",
"7 	c #6A71A6",
"8 	c #85BAD1",
"9 	c #256AA5",
": 	c #15609F",
"; 	c #282E7C",
"< 	c #0D1368",
"= 	c #5B9CC1",
"> 	c #4387B5",
"? 	c #44609C",
"@ 	c #27438B",
"A 	c #566BA3",
"B 	c #5886B7",
"C 	c #0B3F90",
"D 	c #314D92",
"E 	c #233B86",
"F 	c #45498D",
"G 	c #6889B9",
"H 	c #387CB0",
"I 	c #305DA0",
"J 	c #254995",
"K 	c #535997",
"L 	c #E1F1F5",
"M 	c #6592BD",
"N 	c #1C5FA0",
"O 	c #EAEEEF",
"P 	c #547CB2",
"Q 	c #4871AC",
"R 	c #497AB0",
"S 	c #0D2478",
"T 	c #889AC3",
"U 	c #436CA9",
"V 	c #3965A4",
"W 	c #27599C",
"X 	c #10093A",
"Y 	c #AFCBDC",
"Z 	c #093479",
"[ 	c #09316E",
"] 	c #15417B",
"^ 	c #537AAE",
"_ 	c #0C3589",
"` 	c #231939",
"a 	c #090136",
"b 	c #172779",
"c 	c #0A1457",
"d 	c #0D2981",
"e 	c #191446",
"f 	c #8A5A1C",
"g 	c #8B601D",
"h 	c #B8C0B9",
"i 	c #755657",
"j 	c #7C4C22",
"k 	c #8EA1C9",
"l 	c #5D3A23",
"m 	c #A5A797",
"n 	c #2D2364",
"o 	c #583A31",
"p 	c #987559",
"q 	c #0B0A47",
"r 	c #2B5385",
"s 	c #131C72",
"t 	c #352C44",
"u 	c #9A7E49",
"v 	c #7D4A1C",
"w 	c #916A2B",
"x 	c #989387",
"y 	c #9895AC",
"z 	c #2F334D",
"{ 	c #684627",
"| 	c #5C4A43",
"} 	c #4A3350",
"~ 	c #0C124D",
" !	c #130C40",
"!!	c #0A2569",
"#!	c #715D44",
"$!	c #AC9150",
"%!	c #865D44",
"&!	c #8E7643",
"'!	c #D8C7A8",
"(!	c #79A2BD",
")!	c #273559",
"*!	c #A66419",
"+!	c #AE732E",
",!	c #C78D46",
"-!	c #D8A866",
".!	c #C6A35A",
"0!	c #A9823E",
"1!	c #76582C",
"2!	c #644836",
"3!	c #473638",
"4!	c #373035",
"5!	c #0D2055",
"6!	c #32589C",
"7!	c #0E1B73",
"8!	c #143589",
"9!	c #BA9B57",
":!	c #74563B",
";!	c #F6F7F9",
"<!	c #585454",
"=!	c #1A396A",
">!	c #F3BD7B",
"?!	c #F5C27F",
"@!	c #F8C685",
"A!	c #795A16",
"B!	c #33232B",
"C!	c #193E90",
"D!	c #1D1438",
"E!	c #B68E62",
"F!	c #D7C398",
"G!	c #E6D1A8",
"H!	c #C7B07F",
"I!	c #454151",
"J!	c #928278",
"K!	c #BA874B",
"L!	c #AA7D43",
"M!	c #F9CD92",
"N!	c #B4964B",
"O!	c #5C421C",
"P!	c #162D81",
"Q!	c #32233B",
"R!	c #C9A867",
"S!	c #FBF6D8",
"T!	c #FEFDE5",
"U!	c #93999A",
"V!	c #7B787B",
"W!	c #EBE2C5",
"X!	c #E6D8B7",
"Y!	c #C39966",
"Z!	c #BA8C57",
"[!	c #DDB978",
"]!	c #FBE2B6",
"^!	c #F9D9A6",
"_!	c #F9D39A",
"`!	c #211B4C",
"a!	c #0E0E5A",
"b!	c #95A6CA",
"c!	c #8E7768",
"d!	c #F9EBC6",
"e!	c #D0A376",
"f!	c #C69E76",
"g!	c #111A59",
"h!	c #A88758",
"i!	c #BEBDAF",
"j!	c #CDB48D",
"k!	c #FCF0CC",
"l!	c #4E3621",
"m!	c #F2E6D6",
"n!	c #E7C998",
"o!	c #936847",
"p!	c #8B6347",
"q!	c #9D8450",
"r!	c #42548A",
"s!	c #92A7AE",
"t!	c #AB968A",
"u!	c #E9D9C5",
"v!	c #B8997B",
"w!	c #C7A778",
"x!	c #152467",
"y!	c #4A4F91",
"z!	c #868799",
"{!	c #B3966C",
"|!	c #223479",
"}!	c #193077",
"~!	c #686485",
" #	c #F1DCB1",
"!#	c #A7866B",
"##	c #B8A792",
"$#	c #A4A6A4",
"%#	c #455B92",
"&#	c #4C4A76",
"'#	c #8F6A54",
"(#	c #5E84AB",
")#	c #27224B",
"*#	c #4D5F7C",
"+#	c #553D1E",
",#	c #5B4F6C",
"-#	c #E8C387",
".#	c #161969",
"0#	c #D3B069",
"1#	c #E0AF6C",
"2#	c #848DB3",
"3#	c #292452",
"4#	c #675441",
"5#	c #55453D",
"6#	c #352C57",
"7#	c #E5B978",
"8#	c #373058",
"9#	c #645654",
":#	c #7B6644",
";#	c #EAC27E",
"<#	c #7D6568",
"=#	c #3C3663",
">#	c #7B7895",
"?#	c #AC904D",
"@#	c #595579",
"A#	c #625E80",
"B#	c #76728E",
"C#	c #695B61",
"D#	c #544758",
"E#	c #6B6378",
"F#	c #454169",
"G#	c #403B65",
"H#	c #A7A8BC",
"I#	c #716D8D",
"J#	c #B6B4C4",
"K#	c #827E9A",
"L#	c #C4CAD4",
"                                                                                                ",
"                                      # $                                                       ",
"                                  % & '                                                         ",
"                                ( ) '       * * ) + & &                                         ",
"                              , ) & - ) & . . 0 1 2 3 4 4 5 5 6 (                               ",
"                            7 ) ) 8 8 ) & & . 1 2 6 9 : 5 : 4 4 3 9 9                           ",
"                        ; < 8 ) ) ) ) 8 . = 1 2 6 4 4 6 2 2 2 > > 1 1 2 1                       ",
"                    ? @ ; A ) ) & & . . = 1 2 6 3 6 2 2 2 1 1 > > 1 = 2 2 = 8                   ",
"                B C D E F & ) & & . . = G B 3 3 6 H 2 2 1 2 2 1 1 = . 8 = = . 3                 ",
"              9 I J E K L ' & & . M B G B 6 3 3 6 H 2 2 1 > 2 2 = . 2 H 3 . 4 : 3               ",
"            > N I E E ' O $ 8 = P Q G G 6 9 3 3 6 > 0 > 2 1 = 2 . 1 3 8 . & . H 1 H             ",
"          = 1 R Q S T L L 8 P U U G # 6 4 : 5 : : 9 6 2 1 9 = . ) 8 & ) = 4 : 4 3 9 V           ",
"        . . 1 W S X $ L Y V I V P T 2 4 : 5 5 C Z [ ] 3 6 9 4 1 2 3 6 H 3 3 6 > 1 : 5 P         ",
"      * 0 3 ^ _ ` a $ L B J b ; T M 4 : 5 5 5 5 C C S c ] 2 . 8 = 1 1 0 1 1 > : 6 : d V         ",
"      8 . . 5 e f g h * V F i j k 9 : 5 5 5 5 C C C _ _ c Z 9 9 9 : 3 2 : 9 > N 5 5 d D J       ",
"    * 8 . 9 < l g g m + I n o p B : 5 5 5 C C C C _ _ d [ q r > 1 9 : 5 : 5 : V N 5 S E s       ",
"    . > 3 C t u v w x = I A y - N _ z l v j { | } t ~  !a a a 6 . B 5 5 5 5 5 V N 5 < s < 7     ",
"    . > 6 !!#!$!%!&!'!1 Q (!B : )!j *!*!*!*!+!,!-!.!0!1!2!3!4!5!3 B : N 6!N V V D 7!< < 7!8!    ",
"  * 0 2 W ~ $!9!9!:!;!$ <!r =!2!+!+!+!+!+!,!>!?!@!@!>!-!+!A!A!B!5 9 N 5 N 5 U Q E 7!< < d C!    ",
"  8 2 9 C D!E!F!G!H!L <!I!J!K!K!K!K!L!K!-!M!M!M!@!@!@!@!>!N!f O![ 5 N 5 N b Q U S < d 7!d 8!    ",
"  = P!5 _ Q!R!S!T!F!U!V!W!X!Y!Y!Z!Z!Z![!]!^!^!_!M!M!M!@!@!@!K!A!`!: 9 I @ a!9 C!d d _ d P!J b!  ",
"  H _ S _ t F!T!T!S!c!p T!d!e!f!Y!f!e!]!]!]!]!]!]!_!_!_!M!M!?!0!4!Q Q U 7!q C!_ 8!s 8!C!b 6!-   ",
"  9 C s 8!g!'!T!T!T!d!h!i!S!'!H!j!e!X!k!d!d!]!]!]!]!]!^!^!_!_!Z!l!I Q 6!d a C!C!C!P!C!8!b U P   ",
"  5 C S C!@ j!T!T!T!T!X!&!S!W!F!F!F!m!T!T!S!k!k!d!]!]!]!n!o!p!q!:!6!6!C!8!c 6!C!J E J s P!Q Q   ",
"  @ C s r!V s!T!T!T!T!T!F!t!S!X!'!u!T!T!T!T!T!S!S!W!v!p!o!w!H!n!9!I 6!6!C!x!6!6!@ J C!d E R Q   ",
"  y!d d J!z!M S!T!T!T!T!S!v!'!m!u!W!T!T!T!T!T!X!p p!{!F!n!^!^!_!j!U U V @ |!V V P!s _ 8!J D (   ",
"  7 < < J!F!H!X!T!T!T!T!T!d!p S!T!T!T!T!W!t!p!p F!n!^!]!^!^!^!^!F!B R ^ }!6!U V d P!8!C!6!< T   ",
"    < < ~!m!X!'!T!T!T!T!T!T! #!#T!S!##p!p j! # #]!]!]!^!^!^!_!_!$#( M %#!!B Q J C!8!J J < < T   ",
"    s d &#X!T!T!T!T!T!T!T!S!S!F!'#p!H!W!]!]!]!]!]!^!^!^!^!_!_!_!(!. (#)#@ P I 6!J C!6!8!< <     ",
"    E C!E '!S!T!T!T!T!T!S!S!S!k!]!d!d!]!]!]!]!]!]!^!^!^!_!_!_!i!(!*#+#l!C 8!U V @ 6!6!S S S     ",
"    % b @ ##u!T!T!T!T!S!S!S!k!k!d!d!]!d!]!]!]!^!^!^!^!_!_!M!M!M!?!w A!B!_ J P Q 8!I P!d d S     ",
"      < < ,#-#X!T!T!S!S!S!k!k!d!d!d!]!]!]!]!]!^!^!^!_!_!_!M!M!@!>!g f a d P B E _ d d _ 8!%#    ",
"      F < .#$!.!0#-# #k!k!k!d!d!d!]!]!]!]!^!^!^!^!_!_!M!M!M!@!@!1#w h!X S I c C!8!x!C!C!S 2#    ",
"        < < 3#4#u N!.!0#[!^!]!d!]!]!]!]!^!^!^!^!_!_!_!M!M!@!@!@!1#1#p q a!d g!J C!g!J @ ~       ",
"        7 7!7!a a `!5#&!9!.!0#[!M!^!]!]!^!^!^!_!_!M!M!M!@!@!@!@!?!?!6#q q < ] J < ] J ~ `!      ",
"          b 8!a!a a a a e 3!&!9!.!0#7#-#_!^!_!_!_!M!M!@!@!@!?!?!?!e!3#X a a 8!S a S < a         ",
"            b @ X a a e a a a 8#9#:#N!.!0#7#;#M!M!M!@!@!@!@!@!@!?!<#3#X a a 7!q q < a e         ",
"              s < a a a   =#a  !    >#9#:#?#.!0#7#;#@!@!?!?!?!?![!=#e a a X a a a a a           ",
"                7!s X a >#    @#A#        B#<!#!?#.!0#7#;#@!@!?!c!=#a a a e X a a a 8#          ",
"                  P!P!e 3#                        C#4#q!.!0#7#H!&#3#a a a 3#a a a e             ",
"                    7 E a                               D#4#q!E#F#a a a `!3#a a a               ",
"                        7 =#                                >#@# !a a X G# !a a                 ",
"                                                          H#I#e a a a &#`!a a                   ",
"                                                        J#>#e a a a F#G#a K#                    ",
"                                                      H#I# !a a X @#8#a                         ",
"                                                  L#K#3#a a 3#6#A#`!A#                          ",
"                                                y @#F#B#  z!B#>#                                ",
"                                                                                                "};