/* XPM */
static char * messengerWindow16_xpm[] = {
"16 16 167 2",
"  	c None",
". 	c #8CBDD3",
"+ 	c #9ECADC",
"@ 	c #7DB3CF",
"# 	c #5795BD",
"$ 	c #266CA6",
"% 	c #2E6FA8",
"& 	c #284890",
"* 	c #5D7AAA",
"= 	c #93CADB",
"- 	c #71AAC9",
"; 	c #4284B4",
"> 	c #2F76AB",
", 	c #3F84B3",
"' 	c #4589B6",
") 	c #5798BE",
"! 	c #5E9DC2",
"~ 	c #3871AA",
"{ 	c #5A6FA7",
"] 	c #B0CFDF",
"^ 	c #5D8CBA",
"/ 	c #5181B3",
"( 	c #236AA5",
"_ 	c #357AAE",
": 	c #4185B4",
"< 	c #5D9DC2",
"[ 	c #66A3C5",
"} 	c #4C8EB9",
"| 	c #2D74AB",
"1 	c #6FA8C8",
"2 	c #314978",
"3 	c #989FA7",
"4 	c #4B649A",
"5 	c #5F77A1",
"6 	c #18609F",
"7 	c #0D4D95",
"8 	c #0C3884",
"9 	c #1C4C8A",
"0 	c #4486B5",
"a 	c #397EB0",
"b 	c #367BAF",
"c 	c #2369A4",
"d 	c #264D95",
"e 	c #3B77AA",
"f 	c #6F533D",
"g 	c #8E9384",
"h 	c #536996",
"i 	c #476387",
"j 	c #59514A",
"k 	c #63554F",
"l 	c #545364",
"m 	c #282447",
"n 	c #345E89",
"o 	c #2464A2",
"p 	c #1A599B",
"q 	c #235499",
"r 	c #111C71",
"s 	c #5F93BB",
"t 	c #1D427D",
"u 	c #D1B988",
"v 	c #ADA99E",
"w 	c #878078",
"x 	c #AF7F48",
"y 	c #C39356",
"z 	c #F2C68A",
"A 	c #F8C788",
"B 	c #D6A764",
"C 	c #554A3E",
"D 	c #1B5D9E",
"E 	c #245093",
"F 	c #1D3887",
"G 	c #0E247B",
"H 	c #185299",
"I 	c #172D77",
"J 	c #F0E8CC",
"K 	c #D9CBAE",
"L 	c #DED0B0",
"M 	c #CDAF83",
"N 	c #F3E3C1",
"O 	c #FBE8C0",
"P 	c #FAE0B2",
"Q 	c #ECC895",
"R 	c #9B7A51",
"S 	c #3860A2",
"T 	c #142873",
"U 	c #183789",
"V 	c #183285",
"W 	c #5478B0",
"X 	c #2B408A",
"Y 	c #5A6085",
"Z 	c #D8DAC9",
"` 	c #FEFDE5",
" .	c #D8C7AA",
"..	c #EFE5CB",
"+.	c #FCFAE1",
"@.	c #DACCB3",
"#.	c #CCB28E",
"$.	c #D6B78A",
"%.	c #E2C592",
"&.	c #416BA7",
"*.	c #29488D",
"=.	c #23418D",
"-.	c #1A3C8D",
";.	c #4C6AA4",
">.	c #6A6F93",
",.	c #F7F2D8",
"'.	c #FBF5D8",
").	c #D5C1A0",
"!.	c #D4BD99",
"~.	c #F4DCB0",
"{.	c #FADEAF",
"].	c #F9D7A2",
"^.	c #CDC1A5",
"/.	c #556881",
"(.	c #31589A",
"_.	c #264A95",
":.	c #1B3685",
"<.	c #343877",
"[.	c #E2D0A4",
"}.	c #F9EFCE",
"|.	c #FBF1CF",
"1.	c #FAEBC5",
"2.	c #FBE3B8",
"3.	c #FADDAD",
"4.	c #F9D096",
"5.	c #F5C485",
"6.	c #684A2D",
"7.	c #2B4E93",
"8.	c #1E3F8B",
"9.	c #113085",
"0.	c #222B7A",
"a.	c #292650",
"b.	c #614E47",
"c.	c #AD9269",
"d.	c #E5C78E",
"e.	c #F6D6A3",
"f.	c #F8C889",
"g.	c #F4C280",
"h.	c #6B545A",
"i.	c #0E1A5F",
"j.	c #152B75",
"k.	c #182567",
"l.	c #151F6C",
"m.	c #0D073F",
"n.	c #241E4D",
"o.	c #51475C",
"p.	c #9C855F",
"q.	c #B3976A",
"r.	c #E2B978",
"s.	c #F4C381",
"t.	c #E8BA7E",
"u.	c #271F4B",
"v.	c #0D083F",
"w.	c #0A053F",
"x.	c #2A387E",
"y.	c #977D56",
"z.	c #776970",
"A.	c #0D063A",
"B.	c #1A1345",
"C.	c #0C0439",
"D.	c #807E9A",
"E.	c #191244",
"F.	c #2B2553",
"G.	c #261F4E",
"H.	c #7F7D99",
"I.	c #3E3961",
"J.	c #575276",
"                                ",
"          . + @ # $ %           ",
"      & * = - ; > , ' ) !       ",
"    ~ { ] ^ / ( _ : < [ } |     ",
"  1 2 3 4 5 6 7 8 9 0 a b c d   ",
"  e f g h i j k l m n o p q r   ",
"s t u v w x y z A B C D E F G   ",
"H I J K L M N O P Q R S T U V W ",
"X Y Z `  ...+.@.#.$.%.&.*.=.-.;.",
"  >.,.` '.).!.~.{.].^./.(._.:.  ",
"  <.[.}.|.1.2.3.].4.5.6.7.8.9.  ",
"  0.a.b.c.d.e.].4.f.g.h.i.j.k.  ",
"    l.m.n.o.p.q.r.s.t.u.v.w.    ",
"      x.          y.z.A.B.C.    ",
"                  D.E.F.G.      ",
"                H.I.J.          "};
