/* XPM */
static char *mozicon16[] = {
/* width height num_colors chars_per_pixel */
"    16    16      128            2",
/* colors */
"`` c #000000",
"`. c #0c0338",
"`# c #fcfde2",
"`a c #3475ac",
"`b c #4488b4",
"`c c #040330",
"`d c #2c5397",
"`e c #9cd5e4",
"`f c #fcc684",
"`g c #140b39",
"`h c #6c5d67",
"`i c #fce2b4",
"`j c #fcd399",
"`k c #3c69a4",
"`l c #1c3789",
"`m c #fcebc1",
"`n c #fcdaa9",
"`o c #1c1a38",
"`p c #fccc90",
"`q c #5c9ac0",
"`r c #040218",
"`s c #2c64a0",
"`t c #5494bc",
"`u c #347cb0",
"`v c #84bed4",
"`w c #dcd4bc",
"`x c #c49c74",
"`y c #0c0a38",
"`z c #141e74",
"`A c #4c8ebc",
"`B c #1c2668",
"`C c #dcbc78",
"`D c #6482b0",
"`E c #244490",
"`F c #2c2654",
"`G c #0c2e80",
"`H c #0c1264",
"`I c #849cbc",
"`J c #6c5644",
"`K c #3c7eac",
"`L c #d4d2cc",
"`M c #242254",
"`N c #24366c",
"`O c #accedc",
"`P c #74b2cc",
"`Q c #344674",
"`R c #bc8a64",
"`S c #0c327c",
"`T c #0c1e74",
"`U c #f4ce94",
"`V c #fcf2d4",
"`W c #345284",
"`X c #c4b69c",
"`Y c #6492bc",
"`Z c #f4d6ac",
"`0 c #2c76ac",
"`1 c #0c529c",
"`2 c #2c1e44",
"`3 c #845644",
"`4 c #142a7c",
"`5 c #2c3684",
"`6 c #8c6a54",
"`7 c #bca684",
"`8 c #a48a5c",
".` c #647684",
".. c #0c2674",
".# c #54526c",
".a c #ac8e5c",
".b c #a4a6bc",
".c c #6c8ebc",
".d c #c4c2c4",
".e c #e4ca94",
".f c #3c3a64",
".g c #94766c",
".h c #84b6d4",
".i c #74728c",
".j c #e4d2ac",
".k c #64a2c4",
".l c #4c76ac",
".m c #1c4294",
".n c #744a3c",
".o c #143e74",
".p c #8cc2d4",
".q c #9c867c",
".r c #444264",
".s c #4c6a94",
".t c #6c7aa4",
".u c #8c8e94",
".v c #548ab4",
".w c #345a9c",
".x c #bca284",
".y c #5c8abc",
".z c #ccc2b4",
".A c #f4d294",
".B c #94cadc",
".C c #6caacc",
".D c #2c4a94",
".E c #2c2a5c",
".F c #8c5e44",
".G c #f4c284",
".H c #0c0a4c",
".I c #1c3e8c",
".J c #2c5a9c",
".K c #4c7eb4",
".L c #1c4a8c",
".M c #2c224c",
".N c #f4e2b4",
".O c #2c4694",
".P c #447aa4",
".Q c #7ca6c4",
".R c #34629c",
".S c #9c7a64",
".T c #a48a74",
".U c #0c267c",
".V c #0c0e5c",
".W c #645244",
".X c #0c4694",
".Y c #ac8a6c",
".Z c #443e64",
".0 c #241a34",
".1 c #142e84",
".2 c #84a6bc",
".3 c #84867c",
".4 c #1c66a4",
".5 c #c4a284",
".6 c #8cbed4",
".7 c #0c2a6c",
".8 c #5c5274",
/* pixels */
"```````````e````````````````````",
"`````````e.6.p`t`0.4`a`a````````",
"`````s.Q`e.h`Y`u`b`b`q.C`A``````",
"``.k.l`O.y`D`a`s`b`q`v`v`u`a````",
".B.v.u.c.t.K`1.X`S.P`t`b`K.L`l``",
"`P`N.5`I.s.``7.x.q`h`A.J`k`4`z``",
".R`I.g.3`w`i`n`j`p`f`W.D`d.U.1``",
"`G`5.z.S`#`#`V`m`i`R.r`l.I`E.O.o",
"`G.b.d.T`X`#`w`6.F`x`D`d`k`l`E.7",
"`T`L`#`#.n`3.Y`Z`n.j.2`Q`k`d`z``",
"`H.8.e.N`m`m`i`n`j`U`f.E.w.m..``",
"```H`2`J`8`C.A`j`p`f`x`g`B`B`y``",
"```y.V`.`c.0.W.a`C.G`h`g`.`.````",
"`````c.H`c`.`.`c`g`h`M`F`.`r````",
"```````````````F.i.f.Z.M`r``````",
"`````````````````o.#`o``````````"
};
