/* XPM */
static char *pixmap[] = {
/* width height ncols cpp */
"16 16 81 2",
  /* Colors */
  "00 c #FFFFFF",
  "01 c #72A0CD",
  "02 c #709ECA",
  "03 c #6E9BC7",
  "04 c #6E9AC5",
  "05 c #587B9E",
  "06 c #577A9D",
  "07 c #6081A2",
  "08 c #6D8BA9",
  "09 c #415B76",
  "0A c #45617D",
  "0B c #709DCA",
  "0C c #F3F3F4",
  "0D c #FEFCFC",
  "0E c #FFFEFE",
  "0F c #FEFEFE",
  "10 c #FCFBFB",
  "11 c #FFFFFE",
  "12 c #34495F",
  "13 c #32465B",
  "14 c #6D99C4",
  "15 c #8FA1B8",
  "16 c #000000",
  "17 c #BBBCC5",
  "18 c #8F92A1",
  "19 c #B1B5BF",
  "1A c #D8D7DE",
  "1B c #888A99",
  "1C c #BFCDDC",
  "1D c #5F86AC",
  "1E c #344A5F",
  "1F c #6992BD",
  "20 c #F9FAFA",
  "21 c #D4DCE4",
  "22 c #5C81A6",
  "23 c #DBDBDB",
  "24 c #C8F8FF",
  "25 c #B8E3FF",
  "26 c #B8E2FF",
  "27 c #BDEAFF",
  "28 c #94B7E5",
  "29 c #405A73",
  "2A c #DADADA",
  "2B c #010101",
  "2C c #3B3B3B",
  "2D c #383838",
  "2E c #171717",
  "2F c #800000",
  "30 c #404040",
  "31 c #5C5C5C",
  "32 c #ABABAB",
  "33 c #E6E6E6",
  "34 c #FEAD01",
  "35 c #EBEBEB",
  "36 c #A3A3A3",
  "37 c #A3783B",
  "38 c #EDEDEC",
  "39 c #544438",
  "3A c #E3E2E1",
  "3B c #191919",
  "3C c #191717",
  "3D c #FBFBFB",
  "3E c #DFDFDF",
  "3F c #543A38",
  "40 c #56789B",
  "41 c #929598",
  "42 c #7F7F7F",
  "43 c #A33E3B",
  "44 c #557799",
  "45 c #3F5770",
  "46 c #7F4140",
  "47 c #FE0201",
  "48 c #3F5871",
  "49 c #2E4255",
  "4A c #3E5770",
  "4B c #800101",
  "4C c #6F3B3B",
  "4D c #463838",
  "4E c #181717",
  "4F c #2E4154",
  ".. s None c None",
  "..010203040506060606060708090A..",
  "0B01000C000D0E000F000E1011001213",
  "1400151617161819161A161B1C1D001E",
  "1F201616161616161616161616212216",
  "062316242525252526252728162916..",
  "062A1616162B2C2D2E2E2D2C2B162F..",
  "062A16000F3031323333323130342F..",
  "06351600363132000000000031372F..",
  "063816162D3200160000000032392F..",
  "063A16003B33000016000000333C2F..",
  "063D16003B33000000160000333C2F..",
  "063E16162D32000000160000323F2F..",
  "06000540413100000042000031432F..",
  "09004421453031323333323146472F..",
  "4849004A164B4C4D4E4E4D4C4B2F....",
  "..4F4F16........................",
};
