<svg xmlns="http://www.w3.org/2000/svg" height="48" viewBox="0 -960 960 960" width="48" fill="context-fill" fill-opacity="context-fill-opacity"><path d="M480.527-132Q456-132 439.5-148.809 423-165.617 423-189.221q0-23.079 16.38-40.929Q455.759-248 479.473-248 504-248 520.5-230.199t16.5 41Q537-166 520.67-149q-16.329 17-40.143 17Zm0-291Q456-423 439.5-439.38 423-455.759 423-479.473 423-504 439.38-520.5q16.379-16.5 40.093-16.5Q504-537 520.5-520.67q16.5 16.329 16.5 40.143Q537-456 520.67-439.5 504.341-423 480.527-423Zm0-289Q456-712 439.5-729.261t-16.5-41.5Q423-795 439.38-812q16.379-17 40.093-17Q504-829 520.5-811.922q16.5 17.077 16.5 41.108 0 24.443-16.33 41.629Q504.341-712 480.527-712Z"/></svg>