<svg xmlns="http://www.w3.org/2000/svg" viewBox="0 0 16 16"><g fill="#1BAADA"><path opacity=".15" d="M4.9 11.8c.2-.4.7-.5 1.1-.3.4.2.5.7.3 1.1l-1.2 2.1c-.2.3-.7.5-1.1.2-.4-.2-.5-.7-.3-1.1l1.2-2z"><animate attributeType="CSS" attributeName="opacity" from="1" to=".15" dur="0.96s" repeatCount="indefinite"/></path><path opacity=".2" d="M3.4 9.7c.4-.2.9-.1 1.1.3.2.4.1.9-.3 1.1l-2.1 1.2c-.4.2-.9.1-1.1-.3-.2-.4-.1-.9.3-1.1l2.1-1.2z"><animate attributeType="CSS" attributeName="opacity" from="1" to=".15" dur="0.96s" repeatCount="indefinite" begin="0.08s"/></path><path opacity=".25" d="M3.2 7.2c.4 0 .8.4.8.8s-.4.8-.8.8H.8C.4 8.8 0 8.4 0 8s.4-.8.8-.8h2.4z"><animate attributeType="CSS" attributeName="opacity" from="1" to=".15" dur="0.96s" repeatCount="indefinite" begin="0.16s"/></path><path opacity=".35" d="M1.4 5.1C1 4.9.8 4.4 1.1 4c.2-.4.7-.5 1.1-.3l2.1 1.2c.3.2.5.7.2 1.1-.2.4-.7.5-1.1.3l-2-1.2z"><animate attributeType="CSS" attributeName="opacity" from="1" to=".15" dur="0.96s" repeatCount="indefinite" begin="0.24s"/></path><path opacity=".45" d="M3.7 2.2c-.2-.4-.1-.9.3-1.1.4-.2.9-.1 1.1.3l1.2 2.1c.2.3.1.8-.3 1-.4.3-.9.1-1.1-.3l-1.2-2z"><animate attributeType="CSS" attributeName="opacity" from="1" to=".15" dur="0.96s" repeatCount="indefinite" begin="0.32s"/></path><path opacity=".5" d="M8.8 3.2c0 .4-.4.8-.8.8s-.8-.4-.8-.8V.8c0-.4.4-.8.8-.8s.8.4.8.8v2.4z"><animate attributeType="CSS" attributeName="opacity" from="1" to=".15" dur="0.96s" repeatCount="indefinite" begin="0.40s"/></path><path opacity=".55" d="M10.9 1.4c.2-.4.7-.6 1.1-.3.4.2.5.7.3 1.1l-1.2 2.1c-.2.4-.7.5-1.1.3-.4-.3-.5-.8-.3-1.2l1.2-2z"><animate attributeType="CSS" attributeName="opacity" from="1" to=".15" dur="0.96s" repeatCount="indefinite" begin="0.48s"/></path><path opacity=".6" d="M13.8 3.7c.4-.2.9-.1 1.1.3.2.4.1.9-.3 1.1l-2.1 1.2c-.4.2-.9.1-1.1-.3-.2-.4-.1-.9.3-1.1l2.1-1.2z"><animate attributeType="CSS" attributeName="opacity" from="1" to=".15" dur="0.96s" repeatCount="indefinite" begin="0.56s"/></path><path opacity=".65" d="M15.2 7.2c.4 0 .8.4.8.8s-.4.8-.8.8h-2.4c-.4 0-.8-.4-.8-.8s.4-.8.8-.8h2.4z"><animate attributeType="CSS" attributeName="opacity" from="1" to=".15" dur="0.96s" repeatCount="indefinite" begin="0.64s"/></path><path opacity=".7" d="M11.8 11.1c-.4-.2-.5-.7-.3-1.1.2-.4.7-.5 1.1-.3l2.1 1.2c.4.2.5.7.3 1.1-.2.4-.7.5-1.1.3l-2.1-1.2z"><animate attributeType="CSS" attributeName="opacity" from="1" to=".15" dur="0.96s" repeatCount="indefinite" begin="0.70s"/></path><path opacity=".8" d="M9.7 12.6c-.2-.4-.1-.9.3-1.1.4-.2.9-.1 1.1.3l1.2 2.1c.2.4.1.9-.3 1.1-.4.2-.9.1-1.1-.3l-1.2-2.1z"><animate attributeType="CSS" attributeName="opacity" from="1" to=".15" dur="0.96s" repeatCount="indefinite" begin="0.78s"/></path><path d="M8.8 15.2c0 .4-.4.8-.8.8s-.8-.4-.8-.8v-2.4c0-.4.4-.8.8-.8s.8.4.8.8v2.4z"><animate attributeType="CSS" attributeName="opacity" from="1" to=".15" dur="0.96s" repeatCount="indefinite" begin="0.86s"/></path></g><path fill-rule="evenodd" clip-rule="evenodd" fill="#1BAADA" d="M8 8.7c-1.5 0-2.6-.5-2.6-.5S5.9 10 8 10s2.6-1.9 2.6-1.9-1.1.6-2.6.6zM9.3 6c.4 0 .7.3.7.7s-.3.7-.7.7-.7-.3-.7-.7.3-.7.7-.7zM6.7 6c.4 0 .7.3.7.7s-.3.7-.7.7-.7-.3-.7-.7.3-.7.7-.7z"/></svg>
