<?xml version="1.0"?>
<!-- This Source Code Form is subject to the terms of the Mozilla Public
   - License, v. 2.0. If a copy of the MPL was not distributed with this
   - file, You can obtain one at http://mozilla.org/MPL/2.0/. -->
<svg xmlns="http://www.w3.org/2000/svg" xmlns:xlink="http://www.w3.org/1999/xlink" viewBox="0 0 16 16">
  <style>
    use:not(:target) {
      display: none;
    }
    use {
      fill: #ccc;
    }
    use[id$="-hover"] {
      fill: #444;
    }
    use[id$="-active"] {
      fill: #5cccee;
    }
    use[id$="-red"] {
      fill: #d74345
    }
    use[id$="-white"] {
      fill: #fff;
    }
    use[id$="-darkgrey"] {
      fill: #666;
    }
    use[id$="-disabled"] {
      fill: rgba(255,255,255,.6);
    }
    use[id$="-still"] {
      fill: #00a9dc;
    }
  </style>
  <defs>
    <polygon id="add-shape" points="16,6.4 9.6,6.4 9.6,0 6.4,0 6.4,6.4 0,6.4 0,9.6 6.4,9.6 6.4,16 9.6,16 9.6,9.6 16,9.6"/>
    <path id="audio-shape" fill-rule="evenodd" d="M11.429,6.857v2.286c0,1.894-1.535,3.429-3.429,3.429 c-1.894,0-3.429-1.535-3.429-3.429V6.857H3.429v2.286c0,2.129,1.458,3.913,3.429,4.422v1.293H6.286 c-0.746,0-1.379,0.477-1.615,1.143h6.658c-0.236-0.665-0.869-1.143-1.615-1.143H9.143v-1.293c1.971-0.508,3.429-2.292,3.429-4.422 V6.857H11.429z M8,12c1.578,0,2.857-1.279,2.857-2.857V2.857C10.857,1.279,9.578,0,8,0C6.422,0,5.143,1.279,5.143,2.857v6.286 C5.143,10.721,6.422,12,8,12z"/>
    <path id="block-shape" fill-rule="evenodd" d="M8,0C3.582,0,0,3.582,0,8c0,4.418,3.582,8,8,8 c4.418,0,8-3.582,8-8C16,3.582,12.418,0,8,0z M8,2.442c1.073,0,2.075,0.301,2.926,0.821l-7.673,7.673 C2.718,10.085,2.408,9.079,2.408,8C2.408,4.931,4.911,2.442,8,2.442z M8,13.557c-1.073,0-2.075-0.301-2.926-0.821l7.673-7.673 C13.282,5.915,13.592,6.921,13.592,8C13.592,11.069,11.089,13.557,8,13.557z"/>
    <path id="contacts-shape" fill-rule="evenodd" d="M8,6.526c1.802,0,3.263-1.461,3.263-3.263 C11.263,1.461,9.802,0,8,0C6.198,0,4.737,1.461,4.737,3.263C4.737,5.066,6.198,6.526,8,6.526z M14.067,11.421c0,0,0-0.001,0-0.001 c0-1.676-1.397-3.119-3.419-3.807L8.001,10.26L5.354,7.613C3.331,8.3,1.933,9.744,1.933,11.42v0.001H1.93 c0,1.679,0.328,3.246,0.896,4.579h10.348c0.568-1.333,0.896-2.9,0.896-4.579H14.067z"/>
    <g id="google-shape">
      <path fill-rule="evenodd" d="M8.001,9.278c-0.9,0.03-1.989,0.454-2.144,1.274 c-0.292,1.54,1.284,2.004,2.455,1.932c1.097-0.067,1.737-0.593,1.813-1.26c0.063-0.554-0.184-1.153-0.959-1.644 c-0.142-0.09-0.28-0.185-0.413-0.282C8.504,9.291,8.25,9.27,8.001,9.278z"/>
      <path fill-rule="evenodd" d="M7.381,3.409C6.638,3.64,6.32,4.405,6.627,5.61 C6.908,6.708,7.78,7.322,8.569,7.104c0.77-0.213,0.987-1.021,0.847-1.873C9.201,3.929,8.261,3.136,7.381,3.409z"/>
      <path fill-rule="evenodd" d="M8,0C3.582,0,0,3.582,0,8s3.582,8,8,8c4.418,0,8-3.582,8-8 S12.418,0,8,0z M10.544,4.471c0.17,0.453,0.194,0.954,0.021,1.416c-0.163,0.436-0.495,0.811-0.982,1.096 C9.307,7.146,9.167,7.351,9.151,7.548c-0.045,0.575,0.658,0.993,1.064,1.297c0.889,0.666,1.236,1.758,0.648,2.813 c-0.562,1.007-1.901,1.457-3.322,1.462c-1.766-0.008-2.88-0.817-2.938-1.918C4.527,9.779,5.987,9.101,7.307,8.947 c0.369-0.043,0.7-0.036,1.01-0.014C7.85,8.625,7.675,7.998,7.914,7.58c0.062-0.109,0.023-0.072-0.095-0.054 C6.739,7.689,5.628,6.985,5.367,5.92c-0.132-0.54-0.05-1.105,0.156-1.547C5.97,3.413,6.964,2.88,8.067,2.88 c1.147,0,2.209,0,3.334,0.009L10.612,3.4H9.714C10.093,3.665,10.384,4.046,10.544,4.471z"/>
    </g>
    <path id="history-shape" fill-rule="evenodd" d="M8,16c-4.418,0-8-3.582-8-8c0-4.418,3.582-8,8-8 c4.418,0,8,3.582,8,8C16,12.418,12.418,16,8,16z M8,2.442C4.911,2.442,2.408,4.931,2.408,8c0,3.069,2.504,5.557,5.592,5.557 S13.592,11.069,13.592,8C13.592,4.931,11.089,2.442,8,2.442z M7.649,9.048C7.206,8.899,6.882,8.493,6.882,8V4.645 c0-0.618,0.501-1.119,1.118-1.119c0.618,0,1.119,0.501,1.119,1.119v3.078c1.176,1.22,2.237,3.633,2.237,3.633 S8.844,10.252,7.649,9.048z"/>
    <path id="settings-shape" fill-rule="evenodd" d="M14.77,8c0,0.804,0.262,1.548,0.634,1.678L16,9.887 c-0.205,0.874-0.553,1.692-1.011,2.434l-0.567-0.272c-0.355-0.171-1.066,0.17-1.635,0.738c-0.569,0.569-0.909,1.279-0.738,1.635 l0.273,0.568c-0.741,0.46-1.566,0.79-2.438,0.998l-0.205-0.584c-0.13-0.372-0.874-0.634-1.678-0.634s-1.548,0.262-1.678,0.634 l-0.209,0.596c-0.874-0.205-1.692-0.553-2.434-1.011l0.272-0.567c0.171-0.355-0.17-1.066-0.739-1.635 c-0.568-0.568-1.279-0.909-1.635-0.738l-0.568,0.273c-0.46-0.741-0.79-1.566-0.998-2.439l0.584-0.205 C0.969,9.547,1.231,8.804,1.231,8c0-0.804-0.262-1.548-0.634-1.678L0,6.112c0.206-0.874,0.565-1.685,1.025-2.427l0.554,0.266 c0.355,0.171,1.066-0.17,1.635-0.738c0.569-0.568,0.909-1.28,0.739-1.635L3.686,1.025c0.742-0.46,1.553-0.818,2.427-1.024 l0.209,0.596C6.453,0.969,7.197,1.23,8.001,1.23s1.548-0.262,1.678-0.634l0.209-0.596c0.874,0.205,1.692,0.553,2.434,1.011 l-0.272,0.567c-0.171,0.355,0.17,1.066,0.738,1.635c0.569,0.568,1.279,0.909,1.635,0.738l0.568-0.273 c0.46,0.741,0.79,1.566,0.998,2.438l-0.584,0.205C15.032,6.452,14.77,7.196,14.77,8z M8.001,3.661C5.604,3.661,3.661,5.603,3.661,8 c0,2.397,1.943,4.34,4.339,4.34c2.397,0,4.339-1.943,4.339-4.34C12.34,5.603,10.397,3.661,8.001,3.661z"/>
    <g id="share-shape">
      <path fill-rule="evenodd" d="M8.999,10.654L8.69,10.6L8.999,16l2.56-3.754L8.999,10.654z M8.658,10.041l0.341-0.043l6,2.898V0L1,10.998l4.55-0.569L8.999,16l-1.892-5.68l-0.283-0.05l0.256-0.032L7,9.998l6.999-8.003 L8.656,9.998L8.658,10.041z"/>
    </g>
    <path id="tag-shape" fill-rule="evenodd" d="M15.578,7.317L9.659,1.398 C9.374,1.033,8.955,0.777,8.471,0.761L2.556,0C1.72-0.027-0.027,1.72,0,2.556l0.761,5.916c0.016,0.484,0.272,0.902,0.637,1.188 l5.919,5.919c0.591,0.591,1.584,0.557,2.218-0.076l5.966-5.966C16.135,8.902,16.169,7.909,15.578,7.317z M4.222,4.163 c-0.511,0.511-1.339,0.511-1.85,0c-0.511-0.511-0.511-1.339,0-1.85c0.511-0.511,1.339-0.511,1.85,0 C4.733,2.823,4.733,3.652,4.222,4.163z"/>
    <path id="unblock-shape" fill-rule="evenodd" d="M8,16c-4.418,0-8-3.582-8-8c0-4.418,3.582-8,8-8 c4.418,0,8,3.582,8,8C16,12.418,12.418,16,8,16z M8,2.442C4.911,2.442,2.408,4.931,2.408,8c0,3.069,2.504,5.557,5.592,5.557 S13.592,11.069,13.592,8C13.592,4.931,11.089,2.442,8,2.442z"/>
    <path id="video-shape" fill-rule="evenodd" d="M14.9,3.129l-3.476,3.073V3.873c0-0.877-0.663-1.587-1.482-1.587 H1.482C0.663,2.286,0,2.996,0,3.873v8.254c0,0.877,0.663,1.587,1.482,1.587h8.461c0.818,0,1.482-0.711,1.482-1.587V9.762 l3.476,3.073c0.3,0.321,0.714,0.416,1.1,0.331V2.798C15.614,2.713,15.2,2.808,14.9,3.129z"/>
    <g id="copy-shape">
      <circle fill="#0096dd" cx="8" cy="8" r="8"/>
      <path fill-rule="evenodd" fill="none" stroke="#fff" stroke-width="0.75" stroke-miterlimit="10" d="M10.815,6.286H7.556c-0.164,0-0.296,0.128-0.296,0.286v5.143C7.259,11.872,7.392,12,7.556,12h4.148 C11.867,12,12,11.872,12,11.714V7.429L10.815,6.286z M8.741,6.275V5.143L7.556,4H7.528C6.509,4,4.593,4,4.593,4H4.296 C4.133,4,4,4.128,4,4.286v5.143c0,0.158,0.133,0.286,0.296,0.286H7.25V6.561c0-0.158,0.133-0.286,0.296-0.286H8.741z"/>
      <polygon fill="#fff" points="10.222,8 10.222,6.857 11.407,8"/>
      <polygon fill="#fff" points="6.963,5.714 6.963,4.571 8.148,5.714"/>
    </g>
    <g id="checkmark-shape">
      <circle fill="#0096dd" cx="8" cy="8" r="8"/>
      <path fill-rule="evenodd" fill="#fff" d="M7.236,12L12,5.007L10.956,4L7.224,9.465l-2.14-2.326L4,8.146L7.236,12z"/>
    </g>
    <g id="trash-shape">
      <circle fill="#d74345" cx="8" cy="8" r="8"/>
      <path fill="#fff" d="M12,5.79c0-0.742-0.537-1.344-1.2-1.344h-0.583V4.121c0-0.713-0.516-1.29-1.152-1.29h-2.13 c-0.636,0-1.152,0.578-1.152,1.29v0.324H5.2C4.537,4.446,4,5.048,4,5.79v0.898h0.687l0.508,5.438 c0.054,0.585,0.543,1.044,1.114,1.044h3.38c0.57,0,1.06-0.458,1.114-1.043l0.509-5.439H12V5.79z M6.407,4.264V4.165 c0-0.375,0.271-0.678,0.606-0.678h1.974c0.334,0,0.606,0.304,0.606,0.678v0.099c0,0.063-0.01,0.123-0.025,0.181H6.432 C6.417,4.387,6.407,4.328,6.407,4.264z M10.057,12.056c-0.019,0.197-0.188,0.363-0.368,0.363h-3.38 c-0.182,0-0.35-0.166-0.368-0.363L5.44,6.687h5.12L10.057,12.056z"/>
      <rect x="7.75" y="7.542" fill="#fff" width="0.5" height="4"/>
      <polyline fill="#fff" points="9.25,7.542 8.75,7.542 8.75,11.542 9.25,11.542  "/>
      <rect x="6.75" y="7.542" fill="#fff" width="0.5" height="4"/>
    </g>
    <g id="leave-shape">
      <polygon fill="#fff" points="2.08,11.52 2.08,4 8,4 8,2.24 0.32,2.24 0.32,13.28 8,13.28 8,11.52"/>
      <polygon fill="#fff" points="15.66816,7.77344 9.6,2.27456 9.6,5.6 3.68,5.6 3.68,9.92 9.6,9.92 9.6,13.27232"/>
    </g>
    <g id="delete-shape">
      <path fill="#ccc" d="M14.191,4.579c0-1.149-0.832-2.08-1.857-2.08h-0.902V1.997C11.432,0.894,10.633,0,9.648,0H6.352 C5.367,0,4.568,0.894,4.568,1.997v0.502H3.666c-1.026,0-1.857,0.932-1.857,2.08v1.389h1.064l0.785,8.416 C3.742,15.29,4.499,16,5.383,16h5.231c0.883,0,1.64-0.709,1.724-1.614l0.788-8.417h1.064V4.579z M5.535,2.218V2.065 c0-0.58,0.42-1.05,0.938-1.05h3.055c0.518,0,0.937,0.47,0.937,1.05v0.153c0,0.098-0.016,0.191-0.038,0.281H5.573 C5.55,2.409,5.535,2.316,5.535,2.218z M11.184,14.277c-0.029,0.305-0.29,0.562-0.57,0.562H5.383c-0.281,0-0.541-0.257-0.57-0.562 L4.038,5.969h7.924L11.184,14.277z"/>
      <rect x="7.612" y="7.291" fill="#ccc" width="0.774" height="6.191"/>
      <polyline fill="#ccc" points="9.934,7.291 9.16,7.291 9.16,13.482 9.934,13.482  "/>
      <rect x="6.065" y="7.291" fill="#ccc" width="0.774" height="6.191"/>
    </g>
    <g id="globe-shape" transform="translate(-40.000000, -40.000000)" fill-rule="evenodd">
      <path d="M48,56 C52.418278,56 56,52.418278 56,48 C56,43.581722 52.418278,40 48,40 C43.581722,40 40,43.581722 40,48 C40,52.418278 43.581722,56 48,56 Z M42.630492,47.0453156 C42.5321586,46.9747601 42.3116031,46.9575379 42.3388253,46.7925379 C42.3560475,46.6919823 42.4593808,46.613649 42.5438253,46.5642045 C42.6538253,46.5003156 42.7766031,46.4980934 42.9010475,46.5092045 C42.9310475,46.5119823 42.9866031,46.5069823 43.0021586,46.5297601 C43.010492,46.5425379 43.0277142,46.5492045 43.0416031,46.553649 C43.0743808,46.563649 43.1088253,46.5642045 43.1427142,46.5703156 C43.1932697,46.5803156 43.2288253,46.6247601 43.280492,46.588649 C43.3388253,46.5469823 43.3482697,46.5392045 43.4188253,46.5475379 C43.4827142,46.5553156 43.520492,46.5064268 43.5743808,46.5108712 C43.5910475,46.5125379 43.605492,46.5158712 43.6182697,46.5208712 C43.6238253,46.5030934 43.6316031,46.4869823 43.6427142,46.483649 C43.6693808,46.4753156 43.7282697,46.5403156 43.755492,46.5458712 C43.825492,46.5597601 43.8210475,46.5114268 43.8266031,46.4608712 C43.8616031,46.4542045 43.8782697,46.5030934 43.910492,46.4725379 C43.9093808,46.4825379 43.915492,46.4964268 43.9149364,46.5069823 C43.9221586,46.5114268 43.9288253,46.5114268 43.9360475,46.5064268 C43.9388253,46.5003156 43.9393808,46.4947601 43.9377142,46.488649 C43.9543808,46.4942045 43.9632697,46.4819823 43.965492,46.4614268 C43.9777142,46.4630934 43.9982697,46.4553156 44.0110475,46.4575379 C44.0199364,46.4208712 44.0416031,46.3730934 44.0149364,46.3397601 C44.0221586,46.3380934 44.0288253,46.3369823 44.0360475,46.3347601 C44.0366031,46.2997601 44.060492,46.2830934 44.0616031,46.253649 C44.0232697,46.248649 43.9816031,46.2508712 43.9421586,46.2519823 C43.965492,46.2303156 44.0216031,46.1830934 44.0271586,46.1542045 C44.0371586,46.103649 43.9699364,46.0719823 43.975492,46.0114268 C43.9816031,46.043649 44.0182697,46.1169823 44.0521586,46.1280934 C44.1282697,46.153649 44.1066031,46.0775379 44.1121586,46.0380934 C44.130492,45.9130934 44.2432697,46.0164268 44.2449364,46.0819823 C44.2782697,46.0064268 44.3599364,46.0897601 44.3232697,46.1542045 C44.3049364,46.1858712 44.2799364,46.173649 44.3021586,46.2147601 C44.3182697,46.243649 44.3416031,46.2447601 44.3749364,46.2369823 C44.3843808,46.2197601 44.3921586,46.2003156 44.3916031,46.1803156 C44.4499364,46.1619823 44.4877142,46.2314268 44.4538253,46.273649 C44.4971586,46.2497601 44.5421586,46.2269823 44.5888253,46.2153156 C44.560492,46.1197601 44.5327142,46.0253156 44.5510475,45.9219823 C44.5549364,45.8997601 44.5582697,45.873649 44.5749364,45.8564268 C44.5966031,45.8342045 44.5693808,45.8430934 44.5671586,45.8280934 C44.5616031,45.7825379 44.6093808,45.7369823 44.6271586,45.6969823 C44.5766031,45.6853156 44.6232697,45.5869823 44.6560475,45.5703156 C44.6916031,45.5519823 44.7982697,45.5814268 44.8049364,45.5530934 C44.8260475,45.5653156 44.8460475,45.5819823 44.8721586,45.5825379 C44.9299364,45.5830934 44.9693808,45.5842045 45.0093808,45.6314268 C45.030492,45.6553156 45.0593808,45.7103156 45.0960475,45.7142045 C45.0949364,45.7547601 45.1416031,45.7853156 45.0927142,45.8197601 C45.0543808,45.8464268 45.0010475,45.8397601 44.9849364,45.8914268 C44.9749364,45.923649 44.9443808,45.9380934 44.990492,45.9608712 C45.0116031,45.9708712 45.0360475,45.973649 45.0588253,45.9730934 C45.0638253,46.0053156 45.0793808,46.0458712 45.1199364,46.0408712 C45.1988253,46.0314268 45.2149364,45.9330934 45.2782697,45.8997601 C45.3793808,45.8464268 45.3632697,46.0780934 45.4521586,46.0192045 C45.4732697,46.0058712 45.4732697,45.9469823 45.4832697,45.9247601 C45.5043808,45.8769823 45.5299364,45.8297601 45.560492,45.7869823 C45.5988253,45.7342045 45.6477142,45.678649 45.6310475,45.608649 C45.6221586,45.5703156 45.5477142,45.5542045 45.5138253,45.5269823 C45.4727142,45.4942045 45.4343808,45.458649 45.4093808,45.4125379 C45.3949364,45.3853156 45.3860475,45.3747601 45.4099364,45.3619823 C45.4238253,45.3542045 45.4188253,45.338649 45.4138253,45.3280934 C45.3888253,45.2742045 45.3193808,45.1792045 45.4160475,45.1464268 C45.4371586,45.1392045 45.4821586,45.0703156 45.4849364,45.0430934 C45.4899364,44.9980934 45.4221586,44.9580934 45.4527142,44.9130934 C45.475492,44.8792045 45.5310475,44.858649 45.560492,44.8247601 C45.5738253,44.8092045 45.5899364,44.7953156 45.6110475,44.7908712 C45.6127142,44.7725379 45.6166031,44.7525379 45.6321586,44.7403156 C45.6582697,44.7214268 45.6982697,44.7303156 45.7277142,44.7214268 C45.7760475,44.7064268 45.7977142,44.6558712 45.8360475,44.6275379 C45.8671586,44.6042045 45.9038253,44.6125379 45.9371586,44.5964268 C45.955492,44.5875379 45.9632697,44.5680934 45.9810475,44.5597601 C46.025492,44.5380934 46.0760475,44.5725379 46.0960475,44.6103156 C46.1443808,44.7003156 46.2038253,44.838649 46.3399364,44.8025379 C46.3943808,44.7875379 46.435492,44.7425379 46.4527142,44.6908712 C46.4693808,44.6419823 46.4499364,44.6014268 46.4527142,44.5525379 C46.4571586,44.4680934 46.5416031,44.413649 46.5499364,44.328649 C46.4866031,44.3297601 46.5193808,44.2897601 46.4988253,44.2542045 C46.475492,44.2130934 46.4221586,44.2430934 46.3866031,44.2364268 C46.4227142,44.1503156 46.4227142,44.1192045 46.3377142,44.0780934 C46.3010475,44.0597601 46.2393808,43.973649 46.2116031,43.9769823 C46.2349364,43.9447601 46.2899364,43.998649 46.3066031,44.0142045 C46.3432697,44.0492045 46.3760475,44.0653156 46.4282697,44.0692045 C46.4138253,44.0464268 46.4060475,44.0058712 46.4160475,43.9803156 C46.425492,43.9564268 46.4016031,43.9319823 46.4038253,43.9019823 C46.4632697,43.9780934 46.4532697,44.0653156 46.4877142,44.148649 C46.5021586,44.1842045 46.5360475,44.2075379 46.5510475,44.243649 C46.570492,44.2892045 46.5582697,44.2892045 46.5988253,44.3169823 C46.6227142,44.3330934 46.6310475,44.363649 46.635492,44.3903156 C46.6427142,44.4375379 46.6599364,44.4169823 46.6849364,44.443649 C46.6999364,44.4597601 46.7382697,44.4625379 46.730492,44.4953156 C46.725492,44.518649 46.7099364,44.538649 46.7066031,44.5619823 C46.6966031,44.633649 46.8360475,44.5375379 46.8493808,44.5275379 C46.8788253,44.5053156 46.9277142,44.5003156 46.9516031,44.473649 C46.975492,44.4458712 46.9699364,44.4058712 46.9960475,44.3792045 C47.0277142,44.3469823 47.0582697,44.3692045 47.0971586,44.3625379 C47.1410475,44.3558712 47.1793808,44.3208712 47.2121586,44.293649 C47.2821586,44.2353156 47.3260475,44.1708712 47.3849364,44.103649 C47.3599364,44.1097601 47.2721586,44.1730934 47.2677142,44.1147601 C47.2338253,44.113649 47.1582697,44.108649 47.1460475,44.0719823 C47.1371586,44.0453156 47.140492,44.0164268 47.1399364,43.988649 C47.1393808,43.9603156 47.1043808,43.9697601 47.0810475,43.9547601 C47.0343808,43.9242045 47.0110475,43.8697601 46.9610475,43.8430934 C46.8816031,43.8014268 46.8332697,43.7347601 46.7860475,43.6630934 C46.7582697,43.6208712 46.6610475,43.5358712 46.6677142,43.4853156 C46.6727142,43.4525379 46.6999364,43.4169823 46.6982697,43.383649 C46.6966031,43.3547601 46.6732697,43.338649 46.6760475,43.3053156 C46.6799364,43.2664268 46.5860475,43.1992045 46.6677142,43.1914268 C46.6943808,43.1892045 46.6977142,43.158649 46.7260475,43.1414268 C46.7582697,43.1219823 46.7510475,43.1053156 46.7860475,43.1147601 C46.8421586,43.1308712 46.8816031,43.0697601 46.9199364,43.0364268 C46.985492,42.978649 46.880492,42.9769823 46.8749364,42.9342045 C46.8693808,42.8897601 46.8438253,42.8575379 46.8371586,42.8064268 C46.8327142,42.7692045 46.7977142,42.783649 46.7777142,42.7930934 C46.7499364,42.8058712 46.7227142,42.7869823 46.6960475,42.7814268 C46.6710475,42.7764268 46.6510475,42.7358712 46.6221586,42.748649 C46.5999364,42.758649 46.600492,42.7864268 46.5688253,42.7830934 C46.5449364,42.7803156 46.530492,42.7575379 46.5066031,42.7542045 C46.4710475,42.7492045 46.5027142,42.7830934 46.4627142,42.7869823 C46.4338253,42.788649 46.3421586,42.7497601 46.3399364,42.7869823 C46.310492,42.7375379 46.2993808,42.8208712 46.2682697,42.8297601 C46.2349364,42.8397601 46.1982697,42.8303156 46.1649364,42.843649 C46.0910475,42.873649 46.1143808,42.9475379 46.1860475,42.958649 C46.2432697,42.9680934 46.1688253,43.0069823 46.1877142,43.0458712 C46.2043808,43.0803156 46.2099364,43.103649 46.2471586,43.1175379 C46.3093808,43.1403156 46.3749364,43.158649 46.3532697,43.2380934 C46.325492,43.3364268 46.2566031,43.4292045 46.1599364,43.4742045 C46.0677142,43.5169823 46.0427142,43.3997601 45.9727142,43.3703156 C45.9293808,43.3525379 45.8799364,43.358649 45.8349364,43.3642045 C45.8266031,43.3758712 45.8988253,43.3975379 45.9099364,43.418649 C45.9316031,43.4603156 45.8732697,43.4553156 45.8688253,43.4864268 C45.8643808,43.513649 45.8293808,43.5330934 45.8482697,43.5603156 C45.8282697,43.5347601 45.7888253,43.568649 45.775492,43.5830934 C45.755492,43.6053156 45.7593808,43.618649 45.7677142,43.6453156 C45.7849364,43.7003156 45.7027142,43.7569823 45.6532697,43.7497601 C45.6121586,43.7442045 45.5727142,43.7469823 45.5338253,43.7280934 C45.4866031,43.7053156 45.5032697,43.7192045 45.4932697,43.6664268 C45.4838253,43.6175379 45.4160475,43.5964268 45.4560475,43.5353156 C45.4843808,43.4897601 45.4710475,43.4947601 45.465492,43.4514268 C45.4593808,43.4064268 45.4799364,43.4008712 45.515492,43.393649 C45.5543808,43.3858712 45.5716031,43.3175379 45.595492,43.283649 C45.6010475,43.2758712 45.6243808,43.2142045 45.5871586,43.2303156 C45.5649364,43.2392045 45.5816031,43.2658712 45.5488253,43.2714268 C45.5243808,43.2747601 45.5016031,43.2592045 45.4777142,43.2592045 C45.4499364,43.2592045 45.420492,43.2730934 45.395492,43.2553156 C45.4077142,43.2403156 45.4999364,43.1664268 45.4271586,43.1503156 C45.3982697,43.1442045 45.4227142,43.1914268 45.3843808,43.1853156 C45.3760475,43.2230934 45.3310475,43.218649 45.3088253,43.2430934 C45.3177142,43.2030934 45.4027142,43.173649 45.3749364,43.1414268 C45.4349364,43.0880934 45.4471586,43.0792045 45.365492,43.0503156 C45.2371586,43.0053156 45.2471586,42.8742045 45.335492,42.7942045 C45.4160475,42.7214268 45.5488253,42.6292045 45.6266031,42.7503156 C45.710492,42.8797601 45.7638253,42.7858712 45.8327142,42.7025379 C45.8093808,42.6925379 45.830492,42.6864268 45.8227142,42.6580934 C45.7466031,42.688649 45.6788253,42.5903156 45.7310475,42.5308712 C45.7621586,42.4958712 45.8116031,42.5058712 45.8532697,42.4953156 C45.8916031,42.4853156 45.9249364,42.4480934 45.940492,42.4147601 C45.9088253,42.4230934 45.9127142,42.403649 45.9249364,42.3892045 C45.905492,42.3875379 45.8849364,42.3792045 45.8688253,42.373649 C45.8232697,42.3580934 45.8260475,42.3225379 45.7782697,42.3158712 C45.6621586,42.298649 45.8982697,42.1664268 45.7827142,42.1658712 C45.7460475,42.1653156 45.7121586,42.108649 45.6849364,42.1197601 C45.665492,42.1275379 45.6616031,42.1425379 45.6377142,42.1325379 C45.6216031,42.1258712 45.6021586,42.1119823 45.5838253,42.1230934 C45.5416031,42.1492045 45.5338253,42.1175379 45.4932697,42.1303156 C45.4610475,42.1403156 45.4421586,42.1719823 45.4043808,42.163649 C45.4421586,42.1125379 45.4888253,42.0703156 45.5227142,42.0158712 C45.545492,41.9797601 45.5721586,41.9469823 45.6099364,41.9247601 C45.6299364,41.9119823 45.6871586,41.9008712 45.690492,41.8725379 C45.695492,41.8269823 45.6666031,41.8303156 45.6349364,41.8492045 C45.5527142,41.898649 45.4671586,41.9514268 45.3860475,42.003649 C45.3377142,42.0347601 45.2988253,42.0614268 45.2382697,42.0525379 C45.1921586,42.0453156 45.1732697,42.0969823 45.1360475,42.0919823 C45.1182697,42.0208712 44.7199364,42.2808712 44.6716031,42.3025379 C44.5943808,42.3375379 44.5066031,42.3964268 44.4243808,42.4164268 C44.3899364,42.4247601 44.3193808,42.5047601 44.3232697,42.4164268 C44.2816031,42.4114268 44.2499364,42.453649 44.2210475,42.4758712 C44.1810475,42.5069823 44.1327142,42.5253156 44.0899364,42.5525379 C43.9960475,42.6125379 43.9082697,42.683649 43.8210475,42.7514268 C43.7382697,42.8158712 43.655492,42.8908712 43.5688253,42.948649 C43.5388253,42.968649 43.4293808,43.0247601 43.4332697,43.0664268 C43.5110475,43.0808712 43.7743808,42.7508712 43.8482697,42.8403156 C43.8671586,42.8630934 43.7366031,42.9292045 43.7143808,42.9419823 C43.6966031,42.9519823 43.675492,42.9514268 43.6582697,42.9608712 C43.6338253,42.973649 43.6193808,42.9975379 43.5966031,43.0125379 C43.5382697,43.0503156 43.4882697,43.098649 43.4449364,43.1525379 C43.4132697,43.1919823 43.3910475,43.2425379 43.3577142,43.2792045 C43.3632697,43.2408712 43.355492,43.2130934 43.3566031,43.1758712 C43.3127142,43.2030934 43.2949364,43.2508712 43.2343808,43.2369823 C43.1799364,43.2247601 43.1360475,43.2803156 43.0966031,43.3103156 C43.005492,43.3797601 42.9443808,43.4569823 42.8677142,43.538649 C42.825492,43.5842045 42.7799364,43.6164268 42.7532697,43.673649 C42.7249364,43.7342045 42.6843808,43.7892045 42.6466031,43.8453156 C42.5766031,43.9492045 42.4949364,44.0447601 42.4243808,44.148649 C42.2816031,44.3614268 42.1871586,44.6058712 42.0699364,44.8319823 C42.0082697,44.9497601 41.9499364,45.0664268 41.9260475,45.1969823 C41.9043808,45.3108712 41.9032697,45.4269823 41.9066031,45.5419823 C41.970492,45.4914268 41.9671586,45.5975379 41.9510475,45.6280934 C41.9260475,45.6764268 41.9171586,45.7308712 41.9088253,45.783649 C41.8982697,45.853649 41.8860475,45.923649 41.8860475,45.9942045 C41.8866031,46.053649 41.8671586,46.1097601 41.865492,46.1675379 C41.8427142,46.1508712 41.8916031,46.0780934 41.8488253,46.0880934 C41.8277142,46.0930934 41.8266031,46.1247601 41.8216031,46.1403156 C41.8043808,46.1958712 41.7288253,46.1908712 41.7177142,46.253649 C41.710492,46.2930934 41.7066031,46.3147601 41.680492,46.3464268 C41.6616031,46.3697601 41.6799364,46.3803156 41.6838253,46.403649 C41.6938253,46.4603156 41.6216031,46.5369823 41.6410475,46.5819823 C41.6593808,46.6253156 41.6460475,46.6747601 41.6660475,46.7164268 C41.6766031,46.7380934 41.7010475,46.7658712 41.6910475,46.7925379 C41.6466031,46.8014268 41.7043808,46.9058712 41.7082697,46.9380934 C41.7149364,46.9908712 41.7610475,47.1553156 41.8127142,47.178649 C41.8760475,47.2769823 41.9627142,47.4125379 42.0749364,47.4614268 C42.1549364,47.4958712 42.1838253,47.393649 42.2282697,47.3503156 C42.2849364,47.2947601 42.3571586,47.2597601 42.4321586,47.233649 C42.4949364,47.2114268 42.7560475,47.1353156 42.630492,47.0453156 Z M48.0699364,48.1330934 C48.0499364,48.1330934 48.0143808,48.1469823 47.9982697,48.1608712 C47.9660475,48.1880934 48.0343808,48.2047601 48.0610475,48.2125379 C48.090492,48.2292045 48.1321586,48.2380934 48.1616031,48.2547601 C48.1860475,48.2725379 48.2027142,48.2975379 48.230492,48.3097601 C48.2643808,48.3253156 48.310492,48.3330934 48.3477142,48.3430934 C48.3643808,48.348649 48.3882697,48.3469823 48.4093808,48.3514268 C48.4327142,48.3647601 48.4432697,48.3864268 48.4621586,48.4008712 C48.4949364,48.4314268 48.5416031,48.438649 48.585492,48.4375379 C48.6266031,48.4414268 48.6577142,48.4480934 48.6949364,48.438649 C48.7366031,48.4280934 48.7671586,48.4497601 48.8066031,48.4492045 C48.8216031,48.4503156 48.8377142,48.4364268 48.8527142,48.4375379 C48.8727142,48.4375379 48.8749364,48.4464268 48.8843808,48.4630934 C48.9010475,48.4880934 48.945492,48.5253156 48.975492,48.5275379 C48.9949364,48.5269823 49.0093808,48.523649 49.025492,48.5292045 C49.0427142,48.5392045 49.050492,48.5397601 49.0632697,48.5508712 C49.085492,48.5597601 49.1043808,48.5669823 49.1143808,48.583649 C49.1316031,48.6130934 49.1310475,48.6469823 49.1566031,48.6697601 C49.175492,48.6842045 49.1938253,48.6992045 49.2127142,48.713649 C49.225492,48.7247601 49.2149364,48.7225379 49.2343808,48.7225379 C49.245492,48.7247601 49.2649364,48.7242045 49.2788253,48.7208712 C49.3321586,48.7169823 49.3027142,48.6425379 49.2866031,48.6175379 C49.275492,48.5958712 49.2660475,48.5792045 49.2710475,48.558649 C49.2738253,48.533649 49.2849364,48.5169823 49.2693808,48.4964268 C49.2610475,48.4842045 49.2493808,48.4775379 49.2377142,48.4708712 C49.2310475,48.4630934 49.2282697,48.453649 49.220492,48.4414268 C49.2049364,48.4208712 49.1738253,48.4147601 49.1538253,48.3953156 C49.1193808,48.3603156 49.1021586,48.3119823 49.0588253,48.2792045 C49.035492,48.2658712 49.0132697,48.2764268 48.985492,48.2642045 C48.9738253,48.2575379 48.9671586,48.2497601 48.950492,48.2442045 C48.9343808,48.238649 48.9199364,48.2419823 48.905492,48.2408712 C48.8749364,48.238649 48.8482697,48.2119823 48.8188253,48.2147601 C48.785492,48.2180934 48.7799364,48.2530934 48.7599364,48.2725379 C48.7438253,48.2864268 48.7238253,48.2864268 48.7182697,48.2642045 C48.715492,48.2358712 48.7260475,48.218649 48.7410475,48.2003156 C48.7643808,48.1753156 48.7410475,48.1619823 48.710492,48.1597601 C48.6710475,48.1603156 48.6643808,48.1908712 48.6482697,48.223649 C48.6227142,48.2592045 48.6060475,48.2342045 48.570492,48.228649 C48.5460475,48.2303156 48.5288253,48.2397601 48.5066031,48.2303156 C48.4899364,48.2253156 48.4866031,48.2114268 48.4749364,48.2047601 C48.4577142,48.1947601 48.4432697,48.1980934 48.430492,48.2064268 C48.4121586,48.2108712 48.4121586,48.2108712 48.3943808,48.2008712 C48.3782697,48.1953156 48.3749364,48.1814268 48.3538253,48.1775379 C48.3227142,48.1708712 48.2899364,48.1980934 48.2632697,48.1903156 C48.2516031,48.183649 48.2421586,48.1669823 48.2260475,48.1614268 C48.2082697,48.1514268 48.2110475,48.1603156 48.1993808,48.1730934 C48.1799364,48.1925379 48.1516031,48.1992045 48.1327142,48.1847601 C48.1088253,48.1669823 48.1060475,48.138649 48.0699364,48.1330934 Z M48.8121586,48.8430934 C48.805492,48.8297601 48.8127142,48.8164268 48.8127142,48.803649 C48.8093808,48.7803156 48.8027142,48.773649 48.8066031,48.7508712 C48.8132697,48.7375379 48.8132697,48.7175379 48.8099364,48.7008712 C48.8038253,48.6875379 48.7938253,48.6780934 48.7832697,48.6680934 C48.7838253,48.6614268 48.780492,48.6514268 48.7738253,48.6447601 C48.7599364,48.6314268 48.7466031,48.6508712 48.7327142,48.6575379 C48.7227142,48.6675379 48.7021586,48.673649 48.6982697,48.683649 C48.6882697,48.7003156 48.6949364,48.713649 48.6949364,48.7269823 L48.6977142,48.7430934 C48.6738253,48.7664268 48.6971586,48.8292045 48.6932697,48.8525379 C48.6932697,48.878649 48.655492,48.9542045 48.7066031,48.9314268 C48.7199364,48.9247601 48.730492,48.9153156 48.7438253,48.908649 C48.7610475,48.898649 48.7810475,48.8992045 48.8016031,48.8925379 C48.8082697,48.8925379 48.845492,48.8897601 48.845492,48.8830934 C48.8460475,48.8697601 48.815492,48.8597601 48.8121586,48.8430934 Z M49.2532697,49.4003156 C49.2616031,49.3942045 49.2743808,49.4003156 49.2810475,49.3980934 C49.2982697,49.3953156 49.3066031,49.378649 49.3216031,49.3808712 C49.3388253,49.3780934 49.3299364,49.3947601 49.3410475,49.4053156 C49.3521586,49.4153156 49.3627142,49.4153156 49.3732697,49.4153156 C49.3927142,49.4192045 49.4293808,49.4203156 49.4371586,49.403649 C49.445492,49.3764268 49.400492,49.3708712 49.3899364,49.3497601 C49.3782697,49.3192045 49.4032697,49.2892045 49.4116031,49.2619823 C49.4238253,49.2258712 49.3788253,49.2103156 49.3827142,49.1808712 C49.3816031,49.1492045 49.4032697,49.138649 49.3960475,49.1097601 C49.3916031,49.0869823 49.3716031,49.0619823 49.3588253,49.0453156 C49.345492,49.0292045 49.3216031,49.0125379 49.3232697,48.9875379 C49.3249364,48.9625379 49.3721586,48.963649 49.350492,48.9325379 C49.3371586,48.9058712 49.3027142,48.9108712 49.2727142,48.9069823 C49.2621586,48.9069823 49.2516031,48.9075379 49.240492,48.8969823 C49.2316031,48.8825379 49.235492,48.8742045 49.235492,48.863649 C49.2288253,48.8347601 49.2071586,48.8247601 49.1810475,48.8125379 C49.1721586,48.808649 49.1599364,48.8025379 49.1549364,48.7903156 C49.150492,48.7775379 49.1632697,48.7730934 49.1588253,48.7608712 C49.145492,48.733649 49.0949364,48.7725379 49.0732697,48.7619823 C49.0582697,48.7603156 49.0599364,48.7458712 49.0510475,48.7308712 L49.025492,48.7192045 C48.990492,48.7030934 48.9760475,48.7325379 48.9832697,48.7614268 C48.9993808,48.8258712 49.0471586,48.8692045 49.0416031,48.9342045 C49.0443808,48.9614268 49.0488253,48.973649 49.0577142,48.998649 C49.0671586,49.0342045 49.0766031,49.0514268 49.060492,49.0853156 C49.0349364,49.1042045 49.0577142,49.1280934 49.0671586,49.1530934 C49.0716031,49.1864268 49.080492,49.2114268 49.0788253,49.2469823 C49.0738253,49.3119823 49.0532697,49.3747601 49.0588253,49.4397601 C49.0616031,49.4664268 49.0593808,49.4919823 49.0688253,49.5169823 C49.0738253,49.5497601 49.0993808,49.5619823 49.1277142,49.5803156 C49.1538253,49.6030934 49.2771586,49.6758712 49.2410475,49.5869823 C49.2299364,49.5658712 49.2127142,49.5369823 49.2077142,49.5142045 C49.1988253,49.4892045 49.2288253,49.4719823 49.230492,49.4469823 C49.2338253,49.4175379 49.2127142,49.4075379 49.2532697,49.4003156 Z M48.2932697,41.9630934 C48.3249364,41.9964268 48.3632697,42.0064268 48.3560475,42.0603156 C48.3971586,42.0653156 48.4227142,42.0808712 48.4460475,42.0464268 C48.4599364,42.0247601 48.4827142,42.0080934 48.5066031,41.9992045 C48.5366031,41.9875379 48.6588253,41.988649 48.6532697,42.0380934 C48.650492,42.0630934 48.6349364,42.0853156 48.6310475,42.1092045 C48.6260475,42.1430934 48.6621586,42.118649 48.6793808,42.1275379 C48.660492,42.1397601 48.6382697,42.1480934 48.6160475,42.153649 C48.6260475,42.1592045 48.6316031,42.1680934 48.6332697,42.1792045 C48.605492,42.1858712 48.5916031,42.2625379 48.5432697,42.2775379 C48.5132697,42.2869823 48.470492,42.2669823 48.440492,42.2630934 C48.405492,42.258649 48.3788253,42.248649 48.3438253,42.2464268 C48.3093808,42.2442045 48.3371586,42.1997601 48.2949364,42.2080934 C48.2871586,42.2375379 48.3027142,42.3142045 48.3071586,42.343649 C48.3132697,42.3814268 48.3443808,42.4030934 48.3816031,42.4092045 C48.4332697,42.4175379 48.4582697,42.4347601 48.5027142,42.4597601 C48.5377142,42.4797601 48.5771586,42.4680934 48.615492,42.4714268 C48.6399364,42.473649 48.6616031,42.483649 48.680492,42.498649 C48.6766031,42.5108712 48.6677142,42.5303156 48.6732697,42.5430934 C48.6810475,42.5597601 48.7349364,42.5403156 48.7482697,42.5392045 C48.7860475,42.5353156 48.8216031,42.493649 48.8577142,42.4992045 C48.8716031,42.5014268 48.935492,42.5208712 48.9327142,42.5364268 C48.8982697,42.5225379 48.8760475,42.5647601 48.8499364,42.5414268 C48.8260475,42.5208712 48.7632697,42.5392045 48.8038253,42.5675379 C48.8077142,42.5703156 48.8182697,42.6508712 48.8171586,42.6592045 C48.8143808,42.6897601 48.760492,42.7214268 48.7643808,42.7408712 C48.7716031,42.7419823 48.820492,42.7458712 48.8316031,42.7547601 C48.8349364,42.7414268 48.8249364,42.7364268 48.8549364,42.7280934 C48.8771586,42.7214268 48.9032697,42.7192045 48.925492,42.7297601 C48.9349364,42.7669823 48.9071586,42.8058712 48.9588253,42.7964268 C49.0077142,42.7869823 49.0288253,42.818649 49.0799364,42.7858712 C49.1110475,42.7664268 49.1460475,42.7703156 49.1732697,42.7969823 C49.2099364,42.8342045 49.1349364,42.8842045 49.1777142,42.9192045 C49.1949364,42.933649 49.2088253,42.9764268 49.225492,42.9842045 C49.2371586,42.9892045 49.3010475,42.9669823 49.3127142,42.9608712 C49.3327142,42.9980934 49.3510475,42.9425379 49.3677142,42.938649 C49.3727142,42.9158712 49.4027142,42.8880934 49.4316031,42.8853156 C49.4743808,42.8814268 49.4749364,42.888649 49.5038253,42.908649 C49.5871586,42.9669823 49.575492,42.8253156 49.6193808,42.7892045 C49.6982697,42.7247601 49.7371586,42.6642045 49.7910475,42.5808712 C49.8338253,42.5153156 49.8927142,42.498649 49.9677142,42.4869823 C50.0277142,42.4775379 50.1182697,42.463649 50.1427142,42.3997601 C50.1716031,42.3247601 50.1032697,42.283649 50.0421586,42.2614268 C49.9743808,42.2375379 49.8977142,42.2119823 49.9277142,42.1264268 C49.9627142,42.0269823 49.9321586,41.9692045 49.8266031,41.9369823 C49.6027142,41.8675379 49.4010475,41.7503156 49.1732697,41.6864268 C48.9716031,41.6303156 48.7682697,41.6092045 48.5610475,41.5980934 C48.4688253,41.5664268 48.2743808,41.5630934 48.2177142,41.6414268 C48.1810475,41.6919823 48.2277142,41.7358712 48.2232697,41.788649 C48.2177142,41.8514268 48.2488253,41.9158712 48.2932697,41.9630934 Z M47.8549364,50.1964268 C47.8977142,50.2175379 47.9710475,50.1764268 48.0121586,50.1630934 C48.0627142,50.1475379 48.1432697,50.0942045 48.195492,50.123649 C48.2166031,50.1353156 48.2266031,50.1597601 48.2499364,50.1697601 C48.2771586,50.1814268 48.3099364,50.1708712 48.3371586,50.1647601 C48.3660475,50.1580934 48.3982697,50.153649 48.4249364,50.1408712 C48.4482697,50.1297601 48.4632697,50.1103156 48.4832697,50.0947601 C48.5360475,50.0558712 48.580492,50.0925379 48.6377142,50.0842045 C48.6699364,50.0797601 48.700492,50.063649 48.7327142,50.0558712 C48.7560475,50.0497601 48.7971586,50.0503156 48.815492,50.0330934 C48.8360475,50.013649 48.8266031,49.9719823 48.8260475,49.9475379 C48.8249364,49.9142045 48.8277142,49.8803156 48.815492,49.848649 C48.7921586,49.7875379 48.7077142,49.7158712 48.7949364,49.6680934 C48.8121586,49.5608712 48.6877142,49.5792045 48.6516031,49.5019823 C48.6282697,49.4514268 48.620492,49.4130934 48.5538253,49.4075379 C48.4966031,49.4025379 48.4638253,49.4319823 48.4143808,49.4514268 C48.3593808,49.4725379 48.3171586,49.4542045 48.2693808,49.4269823 C48.2410475,49.4108712 48.1799364,49.373649 48.1682697,49.4230934 C48.1582697,49.4658712 48.1988253,49.5075379 48.1649364,49.5458712 C48.135492,49.5797601 48.0838253,49.5953156 48.0410475,49.6047601 C47.9488253,49.6242045 47.8766031,49.6942045 47.8099364,49.7553156 L47.8166031,49.7619823 C47.790492,49.7614268 47.750492,49.8314268 47.7493808,49.8530934 C47.7599364,49.8558712 47.770492,49.8592045 47.7816031,49.8625379 C47.7799364,49.8992045 47.8221586,49.8747601 47.8243808,49.848649 C47.8332697,49.8503156 47.8421586,49.8558712 47.850492,49.8575379 C47.8577142,49.8592045 47.8738253,49.858649 47.8810475,49.8614268 C47.8982697,49.8692045 47.9016031,49.8864268 47.9243808,49.888649 C47.9110475,49.9442045 47.9227142,50.0030934 47.895492,50.0547601 C47.8788253,50.0875379 47.7927142,50.1669823 47.8549364,50.1964268 Z M42.7410475,50.5614268 C42.7532697,50.5408712 42.7432697,50.4858712 42.720492,50.4675379 C42.6638253,50.4208712 42.6421586,50.5319823 42.6777142,50.5647601 C42.6916031,50.5997601 42.7249364,50.588649 42.7410475,50.5614268 Z M45.9971586,42.3703156 C45.9777142,42.3692045 45.9566031,42.3708712 45.9388253,42.378649 C45.9343808,42.3803156 45.9288253,42.3847601 45.9249364,42.3892045 C45.9316031,42.3903156 45.9382697,42.3903156 45.9443808,42.388649 C45.9632697,42.3847601 45.9777142,42.3714268 45.9971586,42.3703156 Z M48.0010475,41.6769823 C48.0016031,41.6792045 48.0021586,41.6819823 48.0027142,41.6842045 C48.035492,41.6769823 48.0677142,41.6869823 48.0988253,41.6747601 C48.1149364,41.6680934 48.1660475,41.6497601 48.1632697,41.628649 C48.1577142,41.5892045 47.9893808,41.6147601 47.9621586,41.6264268 C47.9532697,41.6508712 47.9793808,41.6703156 48.0010475,41.6769823 Z M45.9310475,42.053649 C45.9727142,42.0225379 45.995492,41.9653156 46.0621586,41.9769823 C46.0599364,42.0342045 46.1160475,42.0414268 46.1571586,42.0630934 C46.1443808,42.0969823 46.0982697,42.0958712 46.0777142,42.1225379 C46.0521586,42.1553156 46.0982697,42.1847601 46.1216031,42.1992045 C46.1671586,42.2275379 46.1427142,42.258649 46.1332697,42.2992045 C46.120492,42.3547601 46.2410475,42.3397601 46.2671586,42.338649 C46.3132697,42.3358712 46.385492,42.3442045 46.4282697,42.3219823 C46.475492,42.2969823 46.4999364,42.2397601 46.5482697,42.2119823 C46.5882697,42.1892045 46.645492,42.1758712 46.690492,42.1919823 C46.7371586,42.2080934 46.7316031,42.2675379 46.7693808,42.293649 C46.8149364,42.3242045 46.8627142,42.3342045 46.9016031,42.2880934 C46.925492,42.258649 46.980492,42.2225379 46.9827142,42.1919823 C46.9866031,42.1375379 47.0021586,42.0942045 47.0632697,42.0825379 C47.1110475,42.0730934 47.1010475,42.1203156 47.1349364,42.128649 C47.2093808,42.1475379 47.245492,41.918649 47.3277142,41.9864268 C47.3471586,42.0025379 47.3527142,42.0642045 47.3849364,42.0592045 C47.4188253,42.053649 47.4199364,42.003649 47.4566031,42.0030934 C47.4682697,42.0369823 47.3932697,42.0775379 47.3832697,42.1130934 C47.4293808,42.0758712 47.4516031,42.0808712 47.5038253,42.0758712 C47.5177142,42.1114268 47.415492,42.168649 47.3893808,42.1753156 C47.3521586,42.183649 47.3299364,42.1630934 47.3016031,42.1825379 C47.2788253,42.198649 47.2482697,42.1969823 47.2221586,42.1997601 C47.1843808,42.2030934 47.1149364,42.2525379 47.115492,42.293649 C47.115492,42.3097601 47.1282697,42.3458712 47.1149364,42.3592045 C47.1016031,42.3725379 47.0716031,42.3597601 47.0677142,42.3458712 C47.035492,42.3930934 46.9949364,42.3108712 46.9682697,42.3769823 C47.0110475,42.3869823 47.0493808,42.428649 47.0977142,42.4403156 C47.1449364,42.4519823 47.190492,42.4630934 47.2371586,42.4769823 C47.3138253,42.5003156 47.4293808,42.4075379 47.4893808,42.3619823 C47.5449364,42.3203156 47.6160475,42.2258712 47.6310475,42.1580934 C47.6477142,42.0853156 47.7288253,42.0003156 47.7121586,41.9269823 C47.6966031,41.8592045 47.6860475,41.8264268 47.7632697,41.8025379 C47.7966031,41.7919823 47.875492,41.7747601 47.8871586,41.7364268 C47.9043808,41.6808712 47.7299364,41.6958712 47.7032697,41.683649 C47.6149364,41.6442045 47.5771586,41.5997601 47.475492,41.6392045 C47.4221586,41.6597601 47.3699364,41.6769823 47.3149364,41.6919823 C47.2860475,41.6997601 47.2571586,41.7019823 47.2416031,41.7258712 C47.235492,41.7358712 47.2271586,41.743649 47.2166031,41.748649 C47.1710475,41.7664268 47.2271586,41.6803156 47.2321586,41.6747601 C47.2471586,41.6580934 47.2716031,41.6053156 47.2238253,41.6164268 C47.1538253,41.6330934 47.1032697,41.7403156 47.0271586,41.7458712 C46.9699364,41.7497601 46.9882697,41.6992045 47.0038253,41.6703156 C47.0316031,41.6180934 46.9499364,41.6119823 46.9138253,41.6114268 C46.8638253,41.6114268 46.8249364,41.6403156 46.7766031,41.6453156 C46.7310475,41.6503156 46.6782697,41.6592045 46.6327142,41.6575379 C46.540492,41.6542045 46.480492,41.7075379 46.3899364,41.6775379 C46.2949364,41.6464268 46.1916031,41.7258712 46.0999364,41.7369823 C46.0693808,41.7408712 46.0243808,41.7342045 46.0121586,41.7708712 C46.0016031,41.8008712 46.0121586,41.8475379 46.035492,41.8697601 L46.0427142,41.863649 C46.0227142,41.8830934 46.0199364,41.9119823 45.9910475,41.9225379 C45.9621586,41.9330934 45.9332697,41.9703156 45.9182697,41.9953156 C45.9066031,42.0158712 45.8738253,42.0953156 45.9310475,42.053649 Z M46.0216031,43.2903156 C46.045492,43.2597601 45.9877142,43.2325379 45.9543808,43.2358712 C45.9632697,43.1980934 46.010492,43.178649 45.9982697,43.1314268 C45.9860475,43.0825379 45.9271586,43.0919823 45.895492,43.118649 C45.8660475,43.143649 45.8510475,43.1864268 45.8266031,43.2147601 C45.8132697,43.2314268 45.7882697,43.2364268 45.7788253,43.2564268 C45.7699364,43.2747601 45.780492,43.3053156 45.7799364,43.3253156 C45.8188253,43.3303156 45.860492,43.318649 45.8888253,43.2908712 L45.9077142,43.2819823 C45.9038253,43.2858712 45.9010475,43.293649 45.8993808,43.2975379 C45.9182697,43.3214268 46.0032697,43.3147601 46.0216031,43.2903156 Z M43.5977142,52.0842045 C43.6038253,52.0658712 43.575492,52.0453156 43.5560475,52.0469823 C43.5388253,52.0480934 43.5232697,52.0708712 43.5160475,52.083649 C43.4960475,52.1214268 43.5193808,52.1719823 43.5682697,52.1719823 C43.5793808,52.1514268 43.5749364,52.1114268 43.605492,52.108649 C43.6038253,52.0992045 43.5971586,52.0958712 43.5882697,52.0925379 L43.5977142,52.0842045 Z M53.2532697,50.4553156 C53.2510475,50.4464268 53.2488253,50.4369823 53.2471586,50.4275379 C53.2038253,50.4147601 53.175492,50.4603156 53.135492,50.4269823 C53.0582697,50.478649 53.1410475,50.583649 53.0138253,50.5764268 C53.035492,50.6030934 53.0332697,50.633649 53.0232697,50.6642045 C53.0066031,50.7130934 52.9949364,50.708649 52.9616031,50.7142045 C52.8932697,50.7258712 52.8593808,50.6825379 52.8388253,50.6253156 C52.7710475,50.6264268 52.6777142,50.7319823 52.6238253,50.7647601 C52.6110475,50.7730934 52.5860475,50.7953156 52.5710475,50.8042045 C52.5593808,50.8114268 52.5310475,50.8253156 52.5160475,50.8330934 C52.480492,50.8519823 52.4027142,50.8764268 52.3982697,50.9169823 C52.380492,50.9142045 52.3527142,50.9247601 52.335492,50.9225379 C52.3293808,50.9314268 52.3293808,50.9408712 52.335492,50.9497601 C52.4177142,50.9642045 52.4610475,50.9364268 52.530492,50.9058712 C52.6043808,50.873649 52.6832697,50.8803156 52.7516031,50.8547601 C52.7843808,50.8430934 52.785492,50.8064268 52.8393808,50.828649 C52.8627142,50.838649 52.8910475,50.8730934 52.8960475,50.8969823 C52.9066031,50.9503156 52.850492,51.0292045 52.7943808,51.0330934 C52.7810475,50.9997601 52.7999364,50.9658712 52.8060475,50.938649 C52.7327142,50.913649 52.610492,51.018649 52.5899364,51.0808712 C52.6671586,51.0964268 52.6982697,51.208649 52.6577142,51.2692045 C52.6438253,51.2842045 52.6282697,51.303649 52.6010475,51.3119823 C52.5577142,51.3247601 52.5371586,51.2847601 52.4949364,51.3164268 C52.4393808,51.3580934 52.500492,51.4725379 52.4688253,51.5369823 C52.4443808,51.5858712 52.4027142,51.6042045 52.3682697,51.638649 C52.3443808,51.6630934 52.3310475,51.6897601 52.2988253,51.7114268 C52.2571586,51.7392045 52.1566031,51.798649 52.165492,51.8569823 C52.2560475,51.8875379 52.4449364,51.7292045 52.5238253,51.6769823 C52.5738253,51.643649 52.6038253,51.5919823 52.6549364,51.5597601 C52.7121586,51.523649 52.7877142,51.5058712 52.8249364,51.4419823 C52.8460475,51.4064268 52.8293808,51.3742045 52.8421586,51.3380934 C52.8532697,51.3058712 52.8760475,51.2953156 52.8971586,51.2703156 C52.9360475,51.2230934 52.9727142,51.208649 53.0171586,51.1692045 C53.0721586,51.1203156 53.0593808,51.0430934 53.0843808,50.9780934 C53.1066031,50.9208712 53.150492,50.8780934 53.180492,50.8247601 C53.2288253,50.7392045 53.3538253,50.5375379 53.3016031,50.4430934 C53.2882697,50.4530934 53.2643808,50.4508712 53.2532697,50.4553156 Z M51.8121586,51.8869823 L51.810492,51.8853156 C51.8138253,51.8914268 51.8127142,51.9003156 51.8132697,51.9080934 C51.8549364,51.9080934 51.8727142,51.9453156 51.9171586,51.9319823 C51.9632697,51.918649 51.9888253,51.8753156 51.9527142,51.8392045 C51.9216031,51.8075379 51.8938253,51.7814268 51.8466031,51.7897601 C51.7921586,51.8003156 51.8043808,51.8442045 51.8121586,51.8869823 Z M42.780492,47.3764268 C42.7943808,47.3864268 42.8127142,47.3953156 42.8266031,47.4047601 C42.840492,47.4147601 42.8621586,47.4319823 42.8788253,47.4364268 C42.9177142,47.4575379 42.9777142,47.4814268 43.0066031,47.4364268 C43.015492,47.4180934 43.0210475,47.4064268 43.010492,47.3908712 C42.9988253,47.3747601 42.9821586,47.3703156 42.9777142,47.3575379 C42.9727142,47.3442045 42.9843808,47.3347601 42.970492,47.3247601 C42.9549364,47.3108712 42.9432697,47.3197601 42.9421586,47.2903156 C42.9432697,47.2653156 42.9449364,47.2147601 42.9110475,47.2469823 C42.9021586,47.2497601 42.9143808,47.2553156 42.900492,47.2603156 C42.8916031,47.263649 42.8838253,47.2564268 42.8777142,47.2530934 C42.8593808,47.2453156 42.8482697,47.243649 42.835492,47.2630934 C42.8249364,47.2769823 42.825492,47.2914268 42.8088253,47.3025379 L42.7821586,47.3114268 C42.7727142,47.3147601 42.7443808,47.3347601 42.7432697,47.3447601 C42.7388253,47.3614268 42.7638253,47.3725379 42.780492,47.3764268 Z M52.1093808,51.7808712 C52.115492,51.7503156 52.1788253,51.6397601 52.1199364,51.623649 C52.0988253,51.6175379 52.080492,51.6503156 52.0610475,51.6558712 C52.0360475,51.663649 52.0088253,51.6475379 51.9849364,51.6603156 C51.9632697,51.6714268 51.9438253,51.7058712 51.9310475,51.7253156 C51.9149364,51.7492045 51.9210475,51.7580934 51.9466031,51.7714268 C51.9727142,51.7853156 52.005492,51.7919823 52.0199364,51.8197601 C52.0332697,51.8447601 52.0266031,51.8769823 52.0227142,51.9030934 C52.0238253,51.9014268 52.0271586,51.8980934 52.0282697,51.893649 C52.0327142,51.8925379 52.0399364,51.8914268 52.0443808,51.8925379 L52.0388253,51.903649 C52.1071586,51.9130934 52.1016031,51.8253156 52.1093808,51.7808712 Z M54.3488253,48.1230934 C54.3282697,48.0014268 54.3982697,47.8325379 54.335492,47.7158712 C54.3082697,47.6647601 54.3499364,47.5169823 54.3493808,47.4564268 C54.3482697,47.3442045 54.3149364,47.258649 54.2993808,47.153649 C54.2888253,47.0558712 54.2760475,46.7947601 54.3116031,46.7058712 C54.3621586,46.5803156 54.1143808,46.3680934 54.100492,46.2325379 C54.0882697,46.1153156 54.0210475,46.003649 53.9249364,45.9358712 C53.885492,45.9075379 53.800492,45.5192045 53.750492,45.5369823 C53.725492,45.548649 53.7771586,45.6342045 53.7738253,45.6608712 C53.760492,45.7558712 53.7127142,45.6614268 53.6621586,45.6825379 C53.570492,45.7203156 53.4732697,45.8080934 53.4610475,45.8997601 C53.4171586,46.2369823 53.1782697,45.888649 53.1971586,45.8742045 C53.250492,45.8330934 53.2693808,45.8458712 53.3310475,45.8369823 C53.400492,45.8125379 53.2932697,45.763649 53.4021586,45.7530934 C53.3766031,45.6842045 53.4332697,45.6614268 53.405492,45.6064268 C53.3643808,45.5264268 53.3349364,45.5358712 53.3766031,45.4497601 C53.3943808,45.4019823 53.2866031,45.253649 53.2777142,45.1964268 C53.2688253,45.1408712 53.2677142,45.068649 53.260492,45.0064268 C53.2560475,44.9669823 53.3210475,44.928649 53.3099364,44.8980934 C53.3071586,44.7875379 53.3316031,44.6680934 53.2927142,44.5619823 C53.265492,44.488649 53.2338253,44.3930934 53.1871586,44.3308712 C53.170492,44.308649 53.120492,44.1980934 53.1160475,44.1680934 C53.1027142,44.0992045 53.0721586,44.1253156 53.0332697,44.0975379 C53.0121586,44.0714268 52.9166031,43.9825379 52.8888253,43.9697601 C52.8638253,43.9580934 52.6793808,43.7897601 52.6749364,43.7764268 C52.6599364,43.7275379 52.5560475,43.6903156 52.5671586,43.6380934 C52.5843808,43.5580934 52.3071586,43.3525379 52.2299364,43.3397601 C52.1799364,43.3308712 52.3827142,43.5719823 52.3816031,43.5675379 C52.3849364,43.5814268 52.5121586,43.7425379 52.5116031,43.7425379 C52.5410475,43.7525379 52.610492,43.9503156 52.6082697,43.9758712 C52.600492,44.0514268 52.4066031,43.8530934 52.3921586,43.8264268 C52.2971586,43.7092045 52.1232697,43.6153156 52.0143808,43.5369823 C51.9371586,43.4658712 51.975492,43.4247601 51.8432697,43.3642045 C51.7938253,43.3414268 51.6616031,43.2325379 51.620492,43.2308712 C51.570492,43.2275379 51.6271586,43.3330934 51.6288253,43.3447601 C51.6366031,43.4197601 51.7182697,43.4253156 51.7666031,43.4747601 C51.8060475,43.5147601 51.840492,43.5653156 51.8066031,43.6097601 C51.8060475,43.6103156 51.745492,43.7214268 51.7421586,43.7114268 C51.7593808,43.758649 51.8999364,43.8630934 51.9349364,43.9019823 C51.9288253,43.8914268 52.1199364,44.1408712 52.1360475,44.008649 C52.1421586,43.9608712 52.0882697,43.9025379 52.095492,43.8614268 C52.100492,43.8347601 52.3138253,44.103649 52.3249364,44.1275379 C52.3777142,44.2697601 52.3732697,44.1058712 52.4271586,44.1225379 C52.4721586,44.1369823 52.5916031,44.2853156 52.4927142,44.2914268 C52.3399364,44.3019823 52.5199364,44.433649 52.5621586,44.453649 C52.650492,44.4964268 52.7099364,44.5958712 52.8021586,44.6330934 C52.9449364,44.6914268 52.9149364,44.7942045 52.9877142,44.8992045 C53.010492,44.9325379 52.5760475,44.898649 52.5416031,44.918649 C52.4843808,44.9625379 52.7599364,45.2708712 52.7616031,45.3169823 C52.7638253,45.4130934 52.8182697,45.483649 52.8327142,45.5803156 C52.8421586,45.6692045 52.8310475,45.7858712 52.8893808,45.8575379 C52.9371586,45.9014268 52.9816031,45.7847601 53.0566031,45.853649 C53.0843808,45.8664268 53.1238253,45.8975379 53.1327142,45.9214268 C53.1571586,45.9875379 53.3016031,46.393649 53.1288253,46.3630934 C53.0527142,46.3497601 53.0960475,46.6819823 53.1010475,46.7303156 C53.125492,46.8353156 53.1671586,46.8275379 53.1399364,46.9597601 C53.1427142,47.0703156 53.0532697,47.1258712 52.990492,47.2047601 C52.9610475,47.2408712 52.9416031,47.283649 52.9271586,47.3297601 C52.8921586,47.2958712 52.875492,47.2414268 52.8271586,47.2230934 C52.7738253,47.2030934 52.6571586,47.2664268 52.610492,47.2897601 C52.4977142,47.3458712 52.580492,47.448649 52.5366031,47.5375379 C52.5049364,47.6025379 52.4088253,47.6347601 52.3471586,47.6669823 C52.2716031,47.7053156 52.1710475,47.7464268 52.0960475,47.6847601 C52.0327142,47.6325379 52.060492,47.5292045 51.9932697,47.4842045 C51.9177142,47.433649 51.9110475,47.5464268 51.8938253,47.5908712 C51.8610475,47.6758712 51.7627142,47.7047601 51.7877142,47.8108712 C51.7982697,47.8542045 51.820492,47.893649 51.8293808,47.9375379 C51.8399364,47.9925379 51.8127142,48.0419823 51.8088253,48.0964268 C51.8032697,48.1892045 51.8999364,48.2108712 51.9260475,48.2875379 C51.9482697,48.3547601 51.9249364,48.4614268 51.8482697,48.4875379 C51.7666031,48.5158712 51.6766031,48.4419823 51.5960475,48.433649 C51.5149364,48.4253156 51.4127142,48.4480934 51.3971586,48.5397601 C51.3832697,48.6214268 51.4666031,48.6875379 51.4266031,48.7708712 C51.4093808,48.8058712 51.3799364,48.833649 51.3577142,48.8658712 C51.3210475,48.9192045 51.300492,48.9819823 51.265492,49.0364268 C51.3066031,49.0375379 51.3027142,49.0119823 51.3393808,49.0197601 C51.3788253,49.0275379 51.4132697,48.988649 51.4466031,48.9753156 C51.4521586,49.0008712 51.4493808,49.0275379 51.4527142,49.053649 C51.4799364,49.0619823 51.5077142,49.0508712 51.5321586,49.0414268 C51.535492,49.0642045 51.5249364,49.0903156 51.5343808,49.1125379 C51.5421586,49.1319823 51.5638253,49.1380934 51.5766031,49.1530934 C51.6099364,49.1930934 51.5693808,49.2580934 51.5460475,49.2919823 C51.4788253,49.3903156 51.3649364,49.4453156 51.290492,49.5369823 C51.220492,49.6230934 51.2138253,49.7264268 51.1621586,49.8197601 C51.1443808,49.8514268 51.1260475,49.8953156 51.1743808,49.9108712 C51.1838253,49.893649 51.2010475,49.8797601 51.2221586,49.8797601 C51.255492,49.8792045 51.2432697,49.9030934 51.2593808,49.9230934 C51.3288253,50.0103156 51.4021586,49.8653156 51.4310475,49.823649 C51.4616031,49.7797601 51.5843808,49.7119823 51.6188253,49.7869823 C51.6449364,49.843649 51.6143808,49.9242045 51.5877142,49.9753156 C51.6316031,49.9953156 51.6193808,50.0275379 51.6293808,50.0658712 C51.6432697,50.1192045 51.6927142,50.153649 51.6927142,50.2119823 C51.6927142,50.2830934 51.5377142,50.4242045 51.5977142,50.4769823 C51.6732697,50.5430934 51.7627142,50.3597601 51.7916031,50.3203156 C51.8482697,50.2442045 51.9766031,50.233649 52.0077142,50.1397601 C52.0432697,50.0342045 52.0310475,49.9714268 52.1732697,49.9680934 C52.2327142,49.9669823 52.275492,49.928649 52.3316031,49.9175379 C52.3932697,49.9053156 52.420492,49.898649 52.4599364,49.8514268 C52.5166031,49.7847601 52.5666031,49.8647601 52.5693808,49.9180934 C52.5716031,49.9730934 52.5471586,50.0419823 52.580492,50.0903156 C52.6221586,50.1508712 52.6682697,50.0708712 52.7099364,50.0330934 C52.7060475,50.0730934 52.760492,50.0969823 52.7916031,50.1097601 C52.8410475,50.0764268 52.8716031,50.0219823 52.9238253,49.9919823 C52.9482697,49.978649 52.975492,49.9730934 53.0027142,49.9680934 C53.010492,50.0119823 53.0177142,50.0592045 53.0571586,50.0808712 C53.1132697,50.1130934 53.0443808,50.1442045 53.1182697,50.178649 C53.2110475,50.213649 53.2416031,50.3069823 53.2866031,50.3819823 C53.3071586,50.4158712 53.4999364,50.2080934 53.5749364,50.1997601 C53.820492,50.1719823 53.9482697,49.8525379 54.0399364,49.6625379 C54.1716031,49.3919823 54.230492,49.0908712 54.2649364,48.8108712 C54.3488253,48.6392045 54.3827142,48.323649 54.3488253,48.1230934 Z M52.9038253,50.4425379 C52.9049364,50.4747601 52.9399364,50.4703156 52.9643808,50.4625379 C52.9849364,50.4558712 52.9988253,50.4375379 53.0121586,50.4208712 C53.0316031,50.3969823 53.0427142,50.3719823 53.0266031,50.343649 C53.0088253,50.3130934 52.9982697,50.2914268 52.9899364,50.2564268 C52.9760475,50.2642045 52.9593808,50.2764268 52.9449364,50.2819823 C52.9293808,50.2869823 52.9277142,50.2825379 52.9110475,50.2819823 C52.8716031,50.2797601 52.8793808,50.3103156 52.8627142,50.3347601 C52.8488253,50.3558712 52.8182697,50.3647601 52.8299364,50.3925379 C52.8388253,50.413649 52.8738253,50.4325379 52.8932697,50.4414268 L52.8988253,50.4358712 C52.8977142,50.4369823 52.8966031,50.438649 52.895492,50.4403156 C52.8982697,50.4414268 52.9010475,50.4419823 52.9038253,50.4425379 Z M42.7499364,50.8092045 C42.7449364,50.7747601 42.7316031,50.7530934 42.705492,50.7330934 C42.7043808,50.7358712 42.7032697,50.738649 42.7032697,50.7425379 C42.6677142,50.7247601 42.6627142,50.6564268 42.6149364,50.6614268 C42.5743808,50.5975379 42.4716031,50.6258712 42.440492,50.6853156 C42.4193808,50.7247601 42.4443808,50.7419823 42.4682697,50.7714268 C42.4977142,50.8075379 42.4921586,50.8353156 42.5027142,50.8780934 C42.5293808,50.9858712 42.6193808,50.9114268 42.6832697,50.9542045 C42.7071586,50.9692045 42.7177142,51.0158712 42.7527142,51.0075379 C42.7932697,50.998649 42.7910475,50.938649 42.780492,50.9114268 C42.7660475,50.8730934 42.755492,50.8508712 42.7499364,50.8092045 Z M42.6960475,50.7253156 C42.6993808,50.7280934 42.7027142,50.7303156 42.705492,50.7330934 C42.7082697,50.7275379 42.7121586,50.723649 42.7143808,50.7164268 L42.6960475,50.7253156 Z M52.7827142,52.1864268 C52.740492,52.2058712 52.665492,52.1958712 52.6321586,52.2269823 C52.6138253,52.243649 52.6188253,52.263649 52.6110475,52.2842045 C52.6010475,52.308649 52.5638253,52.3175379 52.5438253,52.3308712 C52.5116031,52.3519823 52.5010475,52.3992045 52.4666031,52.4114268 C52.4516031,52.3892045 52.4288253,52.3253156 52.3988253,52.3808712 C52.3799364,52.4153156 52.3927142,52.4503156 52.3632697,52.4830934 C52.335492,52.513649 52.3371586,52.5497601 52.3171586,52.5830934 C52.2860475,52.6353156 52.2560475,52.6664268 52.2038253,52.6975379 C52.1616031,52.7225379 52.1538253,52.7675379 52.1238253,52.8025379 C52.0916031,52.8392045 52.0438253,52.853649 51.9999364,52.8725379 C51.9693808,52.8858712 51.9182697,52.9225379 51.8838253,52.9014268 C51.8360475,52.8725379 51.900492,52.8214268 51.9227142,52.8030934 C51.9432697,52.7858712 52.0438253,52.7253156 52.0210475,52.6908712 C52.005492,52.668649 51.9471586,52.6714268 51.9243808,52.673649 C51.8771586,52.678649 51.840492,52.7264268 51.800492,52.7497601 C51.755492,52.7753156 51.7160475,52.7969823 51.6666031,52.8142045 C51.6088253,52.8342045 51.6038253,52.8875379 51.5588253,52.9203156 C51.5221586,52.9475379 51.4766031,52.9692045 51.4293808,52.9692045 C51.3677142,52.968649 51.3710475,52.9180934 51.3532697,52.8753156 C51.3299364,52.8780934 51.3093808,52.908649 51.2877142,52.9180934 C51.2510475,52.9330934 51.2282697,52.9492045 51.2432697,52.9897601 C51.2588253,53.0297601 51.0943808,53.0680934 51.0660475,53.0880934 C51.0588253,53.0680934 51.0910475,53.0458712 51.1038253,53.0347601 C51.0527142,53.0303156 50.9960475,53.0742045 50.9443808,53.0814268 C50.8943808,53.088649 50.8327142,53.1219823 50.825492,53.1742045 C50.8199364,53.2142045 50.7649364,53.213649 50.7316031,53.2275379 C50.675492,53.2503156 50.6988253,53.2842045 50.6877142,53.3292045 C50.6666031,53.4142045 50.4899364,53.3492045 50.5799364,53.2369823 C50.6116031,53.1975379 50.6593808,53.1719823 50.6882697,53.1308712 C50.7210475,53.0842045 50.7260475,53.0247601 50.7516031,52.9742045 C50.695492,52.9903156 50.6527142,53.0225379 50.6049364,53.053649 C50.5510475,53.0892045 50.505492,53.0808712 50.445492,53.068649 C50.375492,53.053649 50.3271586,53.0892045 50.2621586,53.1047601 C50.220492,53.1147601 50.1282697,53.1114268 50.1232697,53.1714268 C50.1199364,53.2097601 50.1866031,53.2180934 50.2088253,53.2403156 C50.2421586,53.2742045 50.2771586,53.3247601 50.305492,53.3630934 C50.3282697,53.393649 50.410492,53.4353156 50.405492,53.473649 C50.3960475,53.5480934 50.3027142,53.5353156 50.2510475,53.548649 C50.1999364,53.5614268 50.1927142,53.6069823 50.155492,53.6347601 C50.1138253,53.6653156 50.0566031,53.6297601 50.0093808,53.648649 C49.9616031,53.6675379 49.9277142,53.7092045 49.8860475,53.7380934 C49.8160475,53.7853156 49.7710475,53.7330934 49.6988253,53.7303156 C49.6410475,53.7280934 49.5871586,53.7542045 49.5321586,53.7664268 C49.4821586,53.7775379 49.4227142,53.7858712 49.3832697,53.8214268 C49.300492,53.8958712 49.5699364,53.8764268 49.5943808,53.873649 C49.5832697,53.9169823 49.5721586,53.9669823 49.5327142,53.9953156 C49.4838253,54.0303156 49.4149364,54.0219823 49.3588253,54.0347601 C49.3149364,54.0447601 49.2543808,54.093649 49.3182697,54.1269823 C49.3749364,54.1564268 49.4488253,54.1408712 49.505492,54.1208712 C49.5716031,54.0980934 49.6332697,54.0630934 49.7021586,54.048649 C49.7743808,54.0325379 49.8493808,54.0397601 49.9221586,54.0264268 C49.9993808,54.0125379 50.0671586,53.9697601 50.1388253,53.9408712 C50.2077142,53.9130934 50.2793808,53.9030934 50.3538253,53.9003156 C50.3382697,53.9269823 50.2660475,53.9258712 50.2388253,53.9308712 C50.1843808,53.9419823 50.1477142,53.9892045 50.0910475,53.9864268 C50.0277142,53.983649 50.035492,54.0292045 49.9893808,54.0397601 C49.9599364,54.0464268 49.8893808,54.1153156 49.8671586,54.0730934 C49.8499364,54.0397601 49.8177142,54.0464268 49.8066031,54.0864268 C49.7982697,54.1164268 49.815492,54.1275379 49.7743808,54.1280934 C49.7416031,54.1280934 49.7277142,54.1153156 49.6982697,54.1080934 C49.6416031,54.093649 49.6160475,54.1519823 49.575492,54.1669823 C49.5160475,54.1892045 49.4527142,54.1825379 49.3960475,54.2197601 C49.3627142,54.2414268 49.3266031,54.2475379 49.2877142,54.2592045 C49.2160475,54.2808712 49.1493808,54.308649 49.0788253,54.3325379 C49.0232697,54.3508712 48.9682697,54.3742045 48.9088253,54.3753156 C48.8843808,54.3758712 48.7877142,54.3592045 48.7716031,54.3875379 C48.7416031,54.4408712 48.8327142,54.4208712 48.8521586,54.4103156 C48.9060475,54.3814268 48.9710475,54.3980934 49.0316031,54.3980934 C49.1060475,54.3980934 49.1682697,54.3830934 49.2343808,54.348649 C49.2527142,54.3397601 49.3727142,54.313649 49.3782697,54.3280934 C49.3893808,54.3342045 49.4693808,54.3053156 49.4827142,54.3019823 C49.5471586,54.2875379 49.6116031,54.2730934 49.6749364,54.2569823 C49.8710475,54.2064268 50.0643808,54.1303156 50.2560475,54.0653156 C50.6366031,53.9364268 50.9866031,53.7197601 51.3166031,53.4992045 C51.4666031,53.3992045 51.5882697,53.268649 51.750492,53.1875379 C51.9138253,53.1058712 52.0599364,52.9980934 52.2099364,52.8964268 C52.3566031,52.7964268 52.4677142,52.6597601 52.5893808,52.5342045 C52.7121586,52.4075379 52.8166031,52.2869823 52.8710475,52.1180934 C52.8399364,52.1114268 52.8082697,52.1742045 52.7827142,52.1864268 Z M48.9610475,53.198649 C49.0593808,53.0614268 48.9949364,52.8830934 49.075492,52.7403156 C49.1149364,52.6708712 49.1843808,52.6269823 49.2466031,52.578649 C49.3221586,52.5208712 49.3888253,52.453649 49.4488253,52.3803156 C49.4138253,52.3719823 49.4116031,52.3380934 49.3899364,52.3169823 C49.355492,52.283649 49.3038253,52.3058712 49.2960475,52.2553156 C49.2888253,52.2103156 49.2516031,52.2003156 49.215492,52.1819823 C49.1327142,52.1408712 49.0988253,52.0597601 49.0321586,52.0025379 C48.9582697,51.938649 48.8588253,51.9603156 48.770492,51.9425379 C48.6916031,51.9269823 48.6121586,51.8025379 48.5282697,51.8558712 C48.475492,51.888649 48.450492,51.9742045 48.4866031,52.0258712 C48.5149364,52.0669823 48.5643808,52.0869823 48.5838253,52.1353156 C48.5549364,52.1614268 48.5482697,52.1792045 48.5827142,52.203649 C48.6243808,52.2330934 48.7043808,52.2625379 48.6843808,52.3264268 C48.6732697,52.3603156 48.6449364,52.3930934 48.6077142,52.4003156 C48.580492,52.4053156 48.5160475,52.3897601 48.5299364,52.438649 C48.500492,52.358649 48.4166031,52.4825379 48.3716031,52.4180934 C48.3343808,52.3653156 48.3110475,52.318649 48.2527142,52.2830934 C48.1766031,52.2364268 48.2827142,52.1925379 48.2699364,52.1219823 C48.2510475,52.0203156 48.1271586,52.0480934 48.0821586,51.973649 C48.0566031,51.9303156 48.0927142,51.8964268 48.1093808,51.858649 C48.1260475,51.8203156 48.1721586,51.8508712 48.1960475,51.8625379 C48.275492,51.8997601 48.3927142,51.8864268 48.4593808,51.8308712 C48.490492,51.8053156 48.5582697,51.6864268 48.4716031,51.6875379 C48.4121586,51.6875379 48.3666031,51.7397601 48.310492,51.7430934 C48.3021586,51.6753156 48.2710475,51.5603156 48.3432697,51.5158712 C48.4088253,51.4753156 48.5466031,51.4280934 48.4877142,51.3225379 C48.4671586,51.2864268 48.4299364,51.3464268 48.3993808,51.3203156 C48.3860475,51.308649 48.3949364,51.2842045 48.3999364,51.2725379 C48.3793808,51.253649 48.360492,51.2319823 48.3499364,51.2064268 C48.3032697,51.0930934 48.4410475,51.003649 48.3832697,50.8842045 C48.3588253,50.833649 48.3171586,50.803649 48.2716031,50.7719823 C48.2260475,50.7403156 48.2238253,50.7003156 48.2071586,50.6519823 C48.1977142,50.6247601 48.1538253,50.5619823 48.115492,50.5775379 C48.0827142,50.5908712 48.0727142,50.6469823 48.0482697,50.6708712 C47.990492,50.7269823 47.870492,50.7475379 47.7927142,50.7297601 C47.7321586,50.7164268 47.7349364,50.6925379 47.705492,50.6514268 C47.695492,50.6369823 47.6743808,50.6353156 47.6588253,50.6292045 C47.630492,50.618649 47.6282697,50.5942045 47.6216031,50.5692045 C47.5960475,50.4764268 47.4110475,50.5914268 47.3827142,50.4614268 C47.3766031,50.4314268 47.3866031,50.3803156 47.3438253,50.373649 C47.2943808,50.3658712 47.2927142,50.318649 47.2927142,50.2792045 C47.2921586,50.2469823 47.295492,50.2019823 47.2610475,50.183649 C47.2171586,50.1603156 47.2066031,50.1708712 47.1932697,50.1214268 C47.1766031,50.0580934 47.1332697,50.1242045 47.0977142,50.1103156 C47.0216031,50.0814268 47.0349364,50.118649 46.9738253,50.1508712 C46.8688253,50.2058712 46.8577142,49.9480934 46.820492,49.8975379 C46.750492,49.8014268 46.7693808,50.0169823 46.7216031,50.043649 C46.6771586,50.0675379 46.6321586,50.0119823 46.6166031,49.978649 C46.6071586,49.958649 46.6010475,49.9375379 46.5893808,49.9180934 C46.5721586,49.8903156 46.5399364,49.878649 46.5221586,49.8508712 C46.5066031,49.8258712 46.4849364,49.7969823 46.4743808,49.7703156 C46.4649364,49.7469823 46.4666031,49.7169823 46.4488253,49.6975379 C46.4266031,49.673649 46.4532697,49.6325379 46.4699364,49.6014268 C46.4977142,49.5914268 46.5388253,49.6125379 46.5588253,49.6297601 C46.6088253,49.6725379 46.6843808,49.8547601 46.7710475,49.8214268 C46.7532697,49.7975379 46.7643808,49.768649 46.7516031,49.7430934 C46.7388253,49.7164268 46.7116031,49.7003156 46.6921586,49.6780934 C46.6466031,49.6269823 46.5977142,49.5764268 46.5682697,49.5142045 C46.5427142,49.4597601 46.5310475,49.403649 46.4788253,49.3664268 C46.4349364,49.3342045 46.3449364,49.3042045 46.3688253,49.2342045 C46.4049364,49.2408712 46.4299364,49.2692045 46.4560475,49.2919823 C46.4932697,49.323649 46.540492,49.3403156 46.5843808,49.3614268 C46.6643808,49.4003156 46.7560475,49.4275379 46.8243808,49.4858712 C46.8660475,49.5219823 46.8443808,49.5997601 46.8971586,49.6442045 C46.9360475,49.6764268 46.995492,49.7847601 47.0666031,49.7419823 C47.0938253,49.7253156 47.1049364,49.6942045 47.1310475,49.6764268 C47.1599364,49.6564268 47.2082697,49.6375379 47.240492,49.6225379 C47.2610475,49.613649 47.2943808,49.6158712 47.3110475,49.5997601 C47.3360475,49.5758712 47.275492,49.5053156 47.2616031,49.4869823 C47.2077142,49.4175379 47.1582697,49.3419823 47.0860475,49.2892045 C47.0488253,49.2619823 47.0127142,49.2330934 46.9699364,49.2153156 C46.945492,49.2058712 46.9049364,49.2069823 46.8999364,49.1742045 C46.9116031,49.1819823 46.9188253,49.1797601 46.9210475,49.1680934 C46.9199364,49.1464268 46.8888253,49.1458712 46.8738253,49.1414268 C46.8382697,49.1314268 46.8138253,49.1314268 46.7993808,49.1019823 C46.7816031,49.0647601 46.7177142,49.0664268 46.6838253,49.0575379 C46.6327142,49.0447601 46.5927142,49.0064268 46.5443808,48.9875379 C46.4866031,48.9653156 46.4432697,48.988649 46.3877142,49.0008712 C46.3310475,49.0130934 46.1093808,49.553649 46.0532697,49.5675379 C45.9982697,49.5814268 45.9193808,49.5358712 45.9116031,49.4530934 C45.9371586,49.4880934 45.7666031,49.263649 45.7738253,49.2503156 C45.4832697,49.7653156 45.785492,49.4464268 45.7871586,49.4192045 C45.7882697,49.3897601 45.880492,49.2375379 46.0571586,48.8608712 C46.0943808,48.7797601 46.0116031,49.6203156 45.9282697,49.6592045 C45.8593808,49.6914268 45.7871586,49.6364268 45.7066031,49.6203156 C45.6610475,49.6114268 45.6943808,49.2264268 45.6438253,49.2580934 C45.315492,49.4669823 45.6538253,49.7625379 45.5893808,49.7697601 C45.4888253,49.7803156 45.1749364,49.8158712 45.0710475,49.8030934 C45.0243808,49.7975379 45.0349364,49.6919823 44.8871586,49.4608712 C44.8682697,49.4314268 44.7827142,49.1308712 44.765492,49.1625379 C44.7427142,49.2025379 44.6332697,49.5842045 44.6243808,49.5475379 C44.5832697,49.5797601 44.6849364,48.9958712 44.5910475,49.1125379 C44.5688253,49.1403156 44.2343808,49.5142045 44.2010475,49.5169823 C44.1766031,49.5197601 44.4682697,49.1347601 44.4482697,49.1419823 C44.3988253,49.1592045 44.0688253,49.6108712 44.0277142,49.6403156 C43.9721586,49.6803156 44.0288253,49.4903156 43.9616031,49.543649 C43.9016031,49.5919823 44.0810475,49.3692045 44.0249364,49.4214268 C43.9860475,49.4569823 43.9099364,49.4997601 43.9038253,49.5569823 C43.8977142,49.6214268 43.930492,49.6658712 43.8827142,49.7258712 C43.8638253,49.7492045 43.8416031,49.7697601 43.8243808,49.7942045 C43.810492,49.8142045 43.8071586,49.8475379 43.7832697,49.8597601 C43.7182697,49.893649 43.7349364,49.913649 43.7543808,49.9842045 C43.7710475,50.043649 43.7649364,50.1553156 43.7510475,50.2164268 C43.7410475,50.2630934 43.6938253,50.3764268 43.6366031,50.3492045 C43.6066031,50.3353156 43.5749364,50.323649 43.5471586,50.3503156 C43.5349364,50.3625379 43.5266031,50.3769823 43.5227142,50.393649 C43.5032697,50.3942045 43.4843808,50.3964268 43.465492,50.4008712 C43.4299364,50.4080934 43.3910475,50.4169823 43.3566031,50.4019823 C43.3216031,50.3869823 43.275492,50.3580934 43.2360475,50.3708712 C43.2027142,50.3819823 43.1377142,50.4103156 43.1238253,50.4447601 C43.1182697,50.4603156 43.1382697,50.4997601 43.1377142,50.5197601 C43.1371586,50.5564268 43.1660475,50.6108712 43.1543808,50.6447601 C43.1271586,50.6308712 43.0882697,50.6264268 43.0699364,50.6008712 C43.0527142,50.5775379 43.0277142,50.5825379 43.0088253,50.5592045 C43.0043808,50.6003156 42.9893808,50.6564268 42.9416031,50.6675379 C42.8938253,50.678649 42.8482697,50.6408712 42.800492,50.6530934 C42.6760475,50.6858712 42.8760475,50.8419823 42.9027142,50.8725379 C42.9471586,50.9225379 42.9627142,50.988649 42.995492,51.0458712 C43.030492,51.1075379 43.105492,51.128649 43.1488253,51.1830934 C43.1849364,51.228649 43.1927142,51.2914268 43.2438253,51.3253156 C43.3016031,51.3642045 43.3532697,51.4003156 43.3771586,51.4675379 C43.4016031,51.443649 43.4521586,51.5547601 43.5038253,51.4658712 C43.5321586,51.4175379 43.5799364,51.3758712 43.6110475,51.4547601 C43.6371586,51.5214268 43.6116031,51.5653156 43.6688253,51.623649 C43.7143808,51.6692045 43.7116031,51.723649 43.635492,51.7192045 C43.6482697,51.753649 43.6688253,51.7869823 43.6360475,51.8180934 C43.620492,51.8330934 43.5782697,51.8642045 43.6093808,51.8858712 C43.6438253,51.8697601 43.6816031,51.8603156 43.7160475,51.8447601 C43.7538253,51.8280934 43.7916031,51.7892045 43.835492,51.7903156 C43.8388253,51.8042045 43.7771586,51.8458712 43.8149364,51.848649 C43.8466031,51.8514268 43.8916031,51.8180934 43.9177142,51.8458712 C43.9466031,51.8764268 43.910492,51.9219823 43.9271586,51.9558712 C43.9438253,51.9897601 44.0010475,51.9642045 44.0293808,51.9692045 C44.0166031,51.9992045 43.9727142,51.993649 43.9488253,52.0053156 C44.0049364,52.0742045 43.9316031,52.1753156 43.8499364,52.1764268 C43.810492,52.1769823 43.6710475,52.0180934 43.665492,52.1203156 C43.6638253,52.1508712 43.6732697,52.1875379 43.6832697,52.2164268 C43.6960475,52.253649 43.7877142,52.2380934 43.8199364,52.2519823 C43.8671586,52.2714268 43.9232697,52.3169823 43.9416031,52.3647601 C43.960492,52.4142045 44.0016031,52.4464268 44.0177142,52.4942045 C44.0471586,52.5814268 44.1316031,52.5930934 44.2188253,52.618649 C44.3349364,52.6530934 44.2777142,52.8325379 44.2716031,52.9180934 C44.2660475,53.0025379 44.385492,53.0225379 44.4399364,53.0703156 C44.4999364,53.1225379 44.5099364,53.2247601 44.4093808,53.2330934 C44.3582697,53.2375379 44.2738253,53.2142045 44.2549364,53.2792045 C44.2277142,53.3719823 44.3677142,53.3614268 44.4282697,53.3825379 C44.4571586,53.3919823 44.5727142,53.4042045 44.5832697,53.4308712 C44.5993808,53.4719823 44.5860475,53.528649 44.6010475,53.573649 C44.6371586,53.6847601 44.7421586,53.7603156 44.8421586,53.8158712 C45.0582697,53.9364268 45.3149364,54.0130934 45.5527142,54.0808712 C45.6849364,54.118649 45.8199364,54.1480934 45.9560475,54.1669823 C46.0866031,54.1847601 46.2032697,54.173649 46.3149364,54.2469823 C46.3921586,54.2969823 46.4416031,54.2597601 46.5210475,54.2730934 C46.5549364,54.2792045 46.5699364,54.3103156 46.5949364,54.3292045 C46.6238253,54.3508712 46.6566031,54.3225379 46.6877142,54.3342045 C46.6921586,54.3142045 46.6899364,54.2942045 46.6810475,54.2753156 C46.7410475,54.2975379 46.815492,54.3619823 46.8788253,54.3103156 C46.910492,54.2847601 46.9321586,54.2492045 46.9649364,54.2247601 C47.0038253,54.2275379 47.0427142,54.2297601 47.0816031,54.2303156 C47.2466031,54.2308712 47.3760475,54.1553156 47.5071586,54.0675379 C47.6477142,53.973649 47.8177142,53.9714268 47.9810475,53.9558712 C48.1538253,53.9392045 48.3377142,53.9169823 48.4949364,53.8414268 C48.6332697,53.7753156 48.6682697,53.6542045 48.7071586,53.5203156 C48.7493808,53.3747601 48.8771586,53.3158712 48.9610475,53.198649 Z M51.5738253,52.108649 C51.6182697,52.1203156 51.6893808,52.0925379 51.7171586,52.0553156 C51.7549364,52.0042045 51.7232697,51.9369823 51.6577142,51.9753156 C51.6332697,51.9897601 51.6360475,52.0169823 51.6177142,52.0342045 C51.5966031,52.0525379 51.5943808,52.0308712 51.5749364,52.0264268 C51.545492,52.0197601 51.4993808,52.0580934 51.4899364,52.083649 C51.450492,52.0825379 51.415492,52.1264268 51.4338253,52.1614268 C51.485492,52.1419823 51.5171586,52.0930934 51.5738253,52.108649 Z"/>
    </g>
    <g id="status-available-shape" fill="none"><path d="M6.751 1c-3.176 0-5.751 2.267-5.751 5.063 0 1.392.639 2.653 1.671 3.568-.179.633-.534 1.493-1.236 2.332.12.213 2.096-.537 3.489-1.098.575.169 1.189.261 1.828.261 3.177 0 5.752-2.267 5.752-5.063s-2.576-5.063-5.752-5.063z" stroke="#fff" stroke-width="2" stroke-linecap="round" stroke-linejoin="round" fill="#fff"/><path d="M6.751 1c-3.176 0-5.751 2.267-5.751 5.063 0 1.392.639 2.653 1.671 3.568-.179.633-.534 1.493-1.236 2.332.12.213 2.096-.537 3.489-1.098.575.169 1.189.261 1.828.261 3.177 0 5.752-2.267 5.752-5.063s-2.576-5.063-5.752-5.063zm1.721 3.036c.42 0 .76.342.76.762 0 .422-.34.763-.76.763s-.761-.341-.761-.763c0-.42.341-.762.761-.762zm-3.47 0c.42 0 .761.342.761.762 0 .422-.341.763-.761.763s-.761-.341-.761-.763c0-.42.341-.762.761-.762zm1.758 5.551l-.023-.001-.023.001c-1.536 0-3.252-.999-3.647-2.681 1.037.481 2.487.691 3.67.691 1.183 0 2.633-.21 3.67-.691-.394 1.682-2.111 2.681-3.647 2.681z" fill="#6DB23D"/></g>
    <g id="status-unavailable-shape" fill="none"><path d="M6.751 1c-3.176 0-5.751 2.267-5.751 5.063 0 1.392.639 2.653 1.671 3.568-.179.633-.534 1.493-1.236 2.332.12.213 2.096-.537 3.489-1.098.575.169 1.189.261 1.828.261 3.177 0 5.752-2.267 5.752-5.063s-2.576-5.063-5.752-5.063z" stroke="#fff" stroke-width="2" stroke-linecap="round" stroke-linejoin="round" fill="#fff"/><path d="M6.751 1c-3.176 0-5.751 2.267-5.751 5.063 0 1.392.639 2.653 1.671 3.568-.179.633-.534 1.493-1.236 2.332.12.213 2.096-.537 3.489-1.098.575.169 1.189.261 1.828.261 3.177 0 5.752-2.267 5.752-5.063s-2.576-5.063-5.752-5.063z" fill="#DB3F33"/><path fill="#fff" d="M4 5h6v2h-6z"/></g>
  </defs>
  <use id="add" xlink:href="#add-shape"/>
  <use id="add-hover" xlink:href="#add-shape"/>
  <use id="add-active" xlink:href="#add-shape"/>
  <use id="audio" xlink:href="#audio-shape"/>
  <use id="block" xlink:href="#block-shape"/>
  <use id="block-red" xlink:href="#block-shape"/>
  <use id="block-hover" xlink:href="#block-shape"/>
  <use id="block-active" xlink:href="#block-shape"/>
  <use id="contacts" xlink:href="#contacts-shape"/>
  <use id="contacts-hover" xlink:href="#contacts-shape"/>
  <use id="contacts-active" xlink:href="#contacts-shape"/>
  <use id="copy" xlink:href="#copy-shape"/>
  <use id="checkmark" xlink:href="#checkmark-shape"/>
  <use id="globe" xlink:href="#globe-shape"/>
  <use id="google" xlink:href="#google-shape"/>
  <use id="google-hover" xlink:href="#google-shape"/>
  <use id="google-active" xlink:href="#google-shape"/>
  <use id="history" xlink:href="#history-shape"/>
  <use id="history-hover" xlink:href="#history-shape"/>
  <use id="history-active" xlink:href="#history-shape"/>
  <use id="leave" xlink:href="#leave-shape"/>
  <use id="settings" xlink:href="#settings-shape"/>
  <use id="settings-hover" xlink:href="#settings-shape"/>
  <use id="settings-active" xlink:href="#settings-shape"/>
  <use id="share-darkgrey" xlink:href="#share-shape"/>
  <use id="tag" xlink:href="#tag-shape"/>
  <use id="tag-hover" xlink:href="#tag-shape"/>
  <use id="tag-active" xlink:href="#tag-shape"/>
  <use id="trash" xlink:href="#trash-shape"/>
  <use id="unblock" xlink:href="#unblock-shape"/>
  <use id="unblock-hover" xlink:href="#unblock-shape"/>
  <use id="unblock-active" xlink:href="#unblock-shape"/>
  <use id="video" xlink:href="#video-shape"/>
  <use id="delete" xlink:href="#delete-shape"/>
  <use id="status-available" xlink:href="#status-available-shape"/>
  <use id="status-unavailable" xlink:href="#status-unavailable-shape"/>
</svg>
