<?xml version="1.0"?>
<!-- This Source Code Form is subject to the terms of the Mozilla Public
   - License, v. 2.0. If a copy of the MPL was not distributed with this
   - file, You can obtain one at http://mozilla.org/MPL/2.0/. -->
<svg xmlns="http://www.w3.org/2000/svg" xmlns:xlink="http://www.w3.org/1999/xlink" viewBox="0 0 14 14">
  <style>
    use:not(:target) {
      display: none;
    }
    use {
      fill: #ccc;
    }
    use[id$="-hover"] {
      fill: #444;
    }
    use[id$="-active"] {
      fill: #0095dd;
    }
    use[id$="-white"] {
      fill: #fff;
    }
  </style>
  <defs>
    <path id="audio-shape" fill-rule="evenodd" d="M9.571,6.143v1.714c0,1.42-1.151,2.571-2.571,2.571 c-1.42,0-2.571-1.151-2.571-2.571V6.143H3.571v1.714c0,1.597,1.093,2.935,2.571,3.316v0.97H5.714c-0.56,0-1.034,0.358-1.211,0.857 h4.993c-0.177-0.499-0.651-0.857-1.211-0.857H7.857v-0.97c1.478-0.381,2.571-1.719,2.571-3.316V6.143H9.571z M7,10 c1.183,0,2.143-0.959,2.143-2.143V3.143C9.143,1.959,8.183,1,7,1C5.817,1,4.857,1.959,4.857,3.143v4.714C4.857,9.041,5.817,10,7,10 z"/>
    <g id="facemute-shape">
      <path fill-rule="evenodd" d="M12.174,3.551L9.568,5.856V5.847L3.39,11.49h5.066 c0.613,0,1.111-0.533,1.111-1.19V8.526l2.606,2.304C12.4,11.071,12.71,11.142,13,11.078V3.302C12.71,3.239,12.4,3.309,12.174,3.551 z"/>
      <path fill-rule="evenodd" d="M12.395,2.617l-0.001-0.001l-0.809-0.884l-2.102,1.92 C9.316,3.221,8.919,2.918,8.457,2.918H2.111C1.498,2.918,1,3.451,1,4.109v6.191c0,0.318,0.118,0.607,0.306,0.821l-0.288,0.263 l0.809,0.884l0.001,0.001l0.853-0.779l6.887-6.29L12.395,2.617z"/>
    </g>
    <path id="hangup-shape" fill-rule="evenodd" d="M13,11.732c-0.602,0.52-1.254,0.946-1.941,1.267 c-1.825-0.337-4.164-1.695-6.264-3.795C2.696,7.106,1.339,4.769,1,2.945c0.321-0.688,0.748-1.341,1.268-1.944l2.528,2.855 C4.579,4.153,4.377,4.454,4.209,4.759L4.22,4.77C3.924,5.42,4.608,6.833,5.889,8.114c1.281,1.28,2.694,1.965,3.343,1.669 l0.011,0.011c0.305-0.168,0.606-0.37,0.904-0.587L13,11.732z"/>
    <path id="incoming-shape" fill-rule="evenodd" d="M2.745,7.558l0.637,0.669c0.04,0.041,0.085,0.073,0.134,0.1 l3.249,3.313c0.38,0.393,0.915,0.478,1.197,0.186l0.638-0.676c0.281-0.292,0.2-0.848-0.18-1.244L7.097,8.558h3.566 c0.419,0,0.759-0.34,0.759-0.759V6.28c0-0.419-0.34-0.759-0.759-0.759H7.059l1.42-1.443c0.381-0.392,0.461-0.945,0.18-1.234 l-0.637-0.67C7.74,1.883,7.204,1.966,6.824,2.359L3.55,5.688C3.487,5.717,3.43,5.755,3.381,5.806L2.745,6.482 c-0.131,0.137-0.183,0.332-0.162,0.54C2.562,7.229,2.613,7.423,2.745,7.558z"/>
    <path id="link-shape" fill-rule="evenodd" d="M7.359,6.107c0.757-0.757,0.757-1.995,0-2.752 L5.573,1.568c-0.757-0.757-1.995-0.757-2.752,0L1.568,2.82c-0.757,0.757-0.757,1.995,0,2.752l1.787,1.787 c0.757,0.757,1.995,0.757,2.752,0L6.266,7.2L6.8,7.734L6.641,7.893c-0.757,0.757-0.757,1.995,0,2.752l1.787,1.787 c0.757,0.757,1.995,0.757,2.752,0l1.253-1.253c0.757-0.757,0.757-1.995,0-2.752l-1.787-1.787c-0.757-0.757-1.995-0.757-2.752,0 L7.734,6.8L7.2,6.266L7.359,6.107z M9.87,7.868l1.335,1.335c0.294,0.294,0.294,0.774,0,1.068l-0.934,0.934 c-0.294,0.294-0.774,0.294-1.068,0L7.868,9.87c-0.294-0.294-0.294-0.774,0-1.068L8.13,9.064c0.294,0.294,0.744,0.324,1.001,0.067 C9.388,8.874,9.358,8.424,9.064,8.13L8.802,7.868C9.096,7.574,9.577,7.574,9.87,7.868z M4.13,6.132L2.795,4.797 c-0.294-0.294-0.294-0.774,0-1.068l0.934-0.934c0.294-0.294,0.774-0.294,1.068,0L6.132,4.13c0.294,0.294,0.294,0.774,0,1.068 L5.86,4.926C5.567,4.632,5.116,4.602,4.859,4.859C4.602,5.116,4.632,5.567,4.926,5.86l0.272,0.272 C4.904,6.426,4.423,6.426,4.13,6.132z"/>
    <g id="mute-shape">
      <path fill-rule="evenodd" d="M5.186,9.492L5.49,9.188l3.822-3.822l2.354-2.354l-0.848-0.848 L9.312,3.669V3.142C9.312,1.959,8.352,1,7.169,1C5.986,1,5.026,1.959,5.026,3.142v4.715c0,0.032,0.001,0.064,0.002,0.096 L4.643,8.338c-0.03-0.156-0.046-0.317-0.046-0.481V6.142H3.741v1.715c0,0.414,0.073,0.81,0.208,1.176l-1.615,1.615l0.848,0.848 l1.398-1.398v0L5.186,9.492z"/>
      <path fill-rule="evenodd" d="M9.312,7.857V6.045L5.829,9.528C6.196,9.824,6.662,10,7.169,10 C8.352,10,9.312,9.04,9.312,7.857z"/>
      <path fill-rule="evenodd" d="M9.741,7.857c0,1.42-1.151,2.572-2.572,2.572 c-0.625,0-1.199-0.223-1.645-0.595l-0.605,0.605c0.395,0.344,0.87,0.599,1.393,0.734v0.97H5.884c-0.56,0-1.034,0.359-1.212,0.858 h4.994c-0.178-0.499-0.652-0.858-1.212-0.858H8.026v-0.97c1.478-0.38,2.572-1.718,2.572-3.316V6.142H9.741V7.857z"/>
    </g>
    <path id="pause-shape" fill-rule="evenodd" d="M4.75,1h-1.5C2.836,1,2.5,1.336,2.5,1.75v10.5 C2.5,12.664,2.836,13,3.25,13h1.5c0.414,0,0.75-0.336,0.75-0.75V1.75C5.5,1.336,5.164,1,4.75,1z M10.75,1h-1.5 C8.836,1,8.5,1.336,8.5,1.75v10.5C8.5,12.664,8.836,13,9.25,13h1.5c0.414,0,0.75-0.336,0.75-0.75V1.75C11.5,1.336,11.164,1,10.75,1 z"/>
    <path id="video-shape" fill-rule="evenodd" d="M12.175,3.347L9.568,5.651V3.905c0-0.657-0.497-1.19-1.111-1.19 H2.111C1.498,2.714,1,3.247,1,3.905v6.191c0,0.658,0.498,1.19,1.111,1.19h6.345c0.614,0,1.111-0.533,1.111-1.19V8.322l2.607,2.305 C12.4,10.867,12.71,10.938,13,10.874V3.099C12.71,3.035,12.4,3.106,12.175,3.347z"/>
    <g id="volume-shape">
      <path fill-rule="evenodd" d="M3.513,4.404H1.896c-0.417,0-0.756,0.338-0.756,0.755v3.679 c0,0.417,0.338,0.755,0.756,0.755H3.51l2.575,2.575c0.261,0.261,0.596,0.4,0.938,0.422V1.409C6.682,1.431,6.346,1.57,6.085,1.831 L3.513,4.404z M8.555,5.995C8.619,6.32,8.653,6.656,8.653,7c0,0.344-0.034,0.679-0.098,1.004l0.218,0.142 C8.852,7.777,8.895,7.393,8.895,7c0-0.394-0.043-0.777-0.123-1.147L8.555,5.995z M12.224,3.6l-0.475,0.31 c0.359,0.962,0.557,2.003,0.557,3.09c0,1.087-0.198,2.128-0.557,3.09l0.475,0.31c0.41-1.054,0.635-2.201,0.635-3.4 C12.859,5.8,12.634,4.654,12.224,3.6z M10.061,5.012C10.25,5.642,10.353,6.308,10.353,7c0,0.691-0.103,1.358-0.293,1.987 l0.351,0.229C10.634,8.517,10.756,7.772,10.756,7c0-0.773-0.121-1.517-0.345-2.216L10.061,5.012z"/>
      <path d="M7.164,12.74l-0.15-0.009c-0.389-0.024-0.754-0.189-1.028-0.463L3.452,9.735H1.896 C1.402,9.735,1,9.333,1,8.838V5.16c0-0.494,0.402-0.896,0.896-0.896h1.558l2.531-2.531C6.26,1.458,6.625,1.293,7.014,1.269 l0.15-0.009V12.74z M1.896,4.545c-0.339,0-0.615,0.276-0.615,0.615v3.679c0,0.339,0.276,0.615,0.615,0.615h1.672l2.616,2.616 c0.19,0.19,0.434,0.316,0.697,0.363V1.568C6.619,1.615,6.375,1.741,6.185,1.931L3.571,4.545H1.896z M12.292,10.612l-0.714-0.467 l0.039-0.105C11.981,9.067,12.165,8.044,12.165,7c0-1.044-0.184-2.067-0.548-3.041l-0.039-0.105l0.714-0.467l0.063,0.162 C12.783,4.649,13,5.81,13,7s-0.217,2.351-0.645,3.451L12.292,10.612z M11.92,10.033l0.234,0.153 c0.374-1.019,0.564-2.09,0.564-3.186s-0.19-2.167-0.564-3.186L11.92,3.966C12.27,4.94,12.447,5.96,12.447,7 C12.447,8.04,12.27,9.059,11.92,10.033z M10.489,9.435L9.895,9.047l0.031-0.101C10.116,8.315,10.212,7.66,10.212,7 c0-0.661-0.096-1.316-0.287-1.947L9.895,4.952l0.594-0.388l0.056,0.176C10.779,5.471,10.897,6.231,10.897,7 c0,0.769-0.118,1.529-0.351,2.259L10.489,9.435z M10.225,8.926l0.106,0.069C10.52,8.348,10.615,7.677,10.615,7 c0-0.677-0.095-1.348-0.284-1.996l-0.106,0.07C10.403,5.699,10.494,6.347,10.494,7C10.494,7.652,10.403,8.3,10.225,8.926z M8.867,8.376L8.398,8.07l0.018-0.093C8.48,7.654,8.512,7.325,8.512,7S8.48,6.345,8.417,6.022L8.398,5.929l0.469-0.306l0.043,0.2 C8.994,6.211,9.036,6.607,9.036,7c0,0.393-0.042,0.789-0.126,1.176L8.867,8.376z"/>
    </g>
  </defs>
  <use id="audio" xlink:href="#audio-shape"/>
  <use id="audio-active" xlink:href="#audio-shape"/>
  <use id="audio-disabled" xlink:href="#audio-shape"/>
  <use id="facemute" xlink:href="#facemute-shape"/>
  <use id="facemute-active" xlink:href="#facemute-shape"/>
  <use id="facemute-disabled" xlink:href="#facemute-shape"/>
  <use id="hangup" xlink:href="#hangup-shape"/>
  <use id="hangup-active" xlink:href="#hangup-shape"/>
  <use id="hangup-disabled" xlink:href="#hangup-shape"/>
  <use id="incoming" xlink:href="#incoming-shape"/>
  <use id="incoming-active" xlink:href="#incoming-shape"/>
  <use id="incoming-disabled" xlink:href="#incoming-shape"/>
  <use id="link" xlink:href="#link-shape"/>
  <use id="link-active" xlink:href="#link-shape"/>
  <use id="link-disabled" xlink:href="#link-shape"/>
  <use id="mute" xlink:href="#mute-shape"/>
  <use id="mute-active" xlink:href="#mute-shape"/>
  <use id="mute-disabled" xlink:href="#mute-shape"/>
  <use id="pause" xlink:href="#pause-shape"/>
  <use id="pause-active" xlink:href="#pause-shape"/>
  <use id="pause-disabled" xlink:href="#pause-shape"/>
  <use id="video" xlink:href="#video-shape"/>
  <use id="video-white" xlink:href="#video-shape"/>
  <use id="video-active" xlink:href="#video-shape"/>
  <use id="video-disabled" xlink:href="#video-shape"/>
  <use id="volume" xlink:href="#volume-shape"/>
  <use id="volume-active" xlink:href="#volume-shape"/>
  <use id="volume-disabled" xlink:href="#volume-shape"/>
</svg>
