<?xml version="1.0"?>
<!-- This Source Code Form is subject to the terms of the Mozilla Public
   - License, v. 2.0. If a copy of the MPL was not distributed with this
   - file, You can obtain one at http://mozilla.org/MPL/2.0/. -->
<svg xmlns="http://www.w3.org/2000/svg"
     xmlns:xlink="http://www.w3.org/1999/xlink"
     x="0px" y="0px"
     viewBox="0 0 16 16"
     enable-background="new 0 0 16 16"
     xml:space="preserve">
<style>
use:not(:target) {
  display: none;
}

use {
  fill: #ccc;
}

use[id$="-hover"] {
  fill: #444;
}

use[id$="-active"] {
  fill: #0095dd;
}

use[id$="-red"] {
  fill: #d74345
}

use[id$="-white"] {
  fill: #fff;
}

use[id$="-disabled"] {
  fill: rgba(255,255,255,.6);
}
</style>
<defs style="display:none">
  <path id="audio-shape" fill-rule="evenodd" clip-rule="evenodd" d="M11.429,6.857v2.286c0,1.894-1.535,3.429-3.429,3.429
    c-1.894,0-3.429-1.535-3.429-3.429V6.857H3.429v2.286c0,2.129,1.458,3.913,3.429,4.422v1.293H6.286
    c-0.746,0-1.379,0.477-1.615,1.143h6.658c-0.236-0.665-0.869-1.143-1.615-1.143H9.143v-1.293c1.971-0.508,3.429-2.292,3.429-4.422
    V6.857H11.429z M8,12c1.578,0,2.857-1.279,2.857-2.857V2.857C10.857,1.279,9.578,0,8,0C6.422,0,5.143,1.279,5.143,2.857v6.286
    C5.143,10.721,6.422,12,8,12z"/>
  <path id="block-shape" fill-rule="evenodd" clip-rule="evenodd" d="M8,0C3.582,0,0,3.582,0,8c0,4.418,3.582,8,8,8
    c4.418,0,8-3.582,8-8C16,3.582,12.418,0,8,0z M8,2.442c1.073,0,2.075,0.301,2.926,0.821l-7.673,7.673
    C2.718,10.085,2.408,9.079,2.408,8C2.408,4.931,4.911,2.442,8,2.442z M8,13.557c-1.073,0-2.075-0.301-2.926-0.821l7.673-7.673
    C13.282,5.915,13.592,6.921,13.592,8C13.592,11.069,11.089,13.557,8,13.557z"/>
  <path id="contacts-shape" fill-rule="evenodd" clip-rule="evenodd" d="M8,6.526c1.802,0,3.263-1.461,3.263-3.263
    C11.263,1.461,9.802,0,8,0C6.198,0,4.737,1.461,4.737,3.263C4.737,5.066,6.198,6.526,8,6.526z M14.067,11.421c0,0,0-0.001,0-0.001
    c0-1.676-1.397-3.119-3.419-3.807L8.001,10.26L5.354,7.613C3.331,8.3,1.933,9.744,1.933,11.42v0.001H1.93
    c0,1.679,0.328,3.246,0.896,4.579h10.348c0.568-1.333,0.896-2.9,0.896-4.579H14.067z"/>
  <g id="google-shape">
    <path fill-rule="evenodd" clip-rule="evenodd" d="M8.001,9.278c-0.9,0.03-1.989,0.454-2.144,1.274
      c-0.292,1.54,1.284,2.004,2.455,1.932c1.097-0.067,1.737-0.593,1.813-1.26c0.063-0.554-0.184-1.153-0.959-1.644
      c-0.142-0.09-0.28-0.185-0.413-0.282C8.504,9.291,8.25,9.27,8.001,9.278z"/>
    <path fill-rule="evenodd" clip-rule="evenodd" d="M7.381,3.409C6.638,3.64,6.32,4.405,6.627,5.61
      C6.908,6.708,7.78,7.322,8.569,7.104c0.77-0.213,0.987-1.021,0.847-1.873C9.201,3.929,8.261,3.136,7.381,3.409z"/>
    <path fill-rule="evenodd" clip-rule="evenodd" d="M8,0C3.582,0,0,3.582,0,8s3.582,8,8,8c4.418,0,8-3.582,8-8
      S12.418,0,8,0z M10.544,4.471c0.17,0.453,0.194,0.954,0.021,1.416c-0.163,0.436-0.495,0.811-0.982,1.096
      C9.307,7.146,9.167,7.351,9.151,7.548c-0.045,0.575,0.658,0.993,1.064,1.297c0.889,0.666,1.236,1.758,0.648,2.813
      c-0.562,1.007-1.901,1.457-3.322,1.462c-1.766-0.008-2.88-0.817-2.938-1.918C4.527,9.779,5.987,9.101,7.307,8.947
      c0.369-0.043,0.7-0.036,1.01-0.014C7.85,8.625,7.675,7.998,7.914,7.58c0.062-0.109,0.023-0.072-0.095-0.054
      C6.739,7.689,5.628,6.985,5.367,5.92c-0.132-0.54-0.05-1.105,0.156-1.547C5.97,3.413,6.964,2.88,8.067,2.88
      c1.147,0,2.209,0,3.334,0.009L10.612,3.4H9.714C10.093,3.665,10.384,4.046,10.544,4.471z"/>
  </g>
  <path id="history-shape" fill-rule="evenodd" clip-rule="evenodd" d="M8,16c-4.418,0-8-3.582-8-8c0-4.418,3.582-8,8-8
    c4.418,0,8,3.582,8,8C16,12.418,12.418,16,8,16z M8,2.442C4.911,2.442,2.408,4.931,2.408,8c0,3.069,2.504,5.557,5.592,5.557
    S13.592,11.069,13.592,8C13.592,4.931,11.089,2.442,8,2.442z M7.649,9.048C7.206,8.899,6.882,8.493,6.882,8V4.645
    c0-0.618,0.501-1.119,1.118-1.119c0.618,0,1.119,0.501,1.119,1.119v3.078c1.176,1.22,2.237,3.633,2.237,3.633
    S8.844,10.252,7.649,9.048z"/>
  <path id="precall-shape" fill-rule="evenodd" clip-rule="evenodd" d="M8.014,0.003c-4.411,0-7.987,3.576-7.987,7.986
    c0,1.642,0.496,3.168,1.346,4.437L0,15.997l3.568-1.372c1.271,0.853,2.8,1.352,4.446,1.352c4.411,0,7.986-3.576,7.986-7.987
    C16,3.579,12.424,0.003,8.014,0.003z"/>
  <path id="settings-shape" fill-rule="evenodd" clip-rule="evenodd" d="M14.77,8c0,0.804,0.262,1.548,0.634,1.678L16,9.887
    c-0.205,0.874-0.553,1.692-1.011,2.434l-0.567-0.272c-0.355-0.171-1.066,0.17-1.635,0.738c-0.569,0.569-0.909,1.279-0.738,1.635
    l0.273,0.568c-0.741,0.46-1.566,0.79-2.438,0.998l-0.205-0.584c-0.13-0.372-0.874-0.634-1.678-0.634s-1.548,0.262-1.678,0.634
    l-0.209,0.596c-0.874-0.205-1.692-0.553-2.434-1.011l0.272-0.567c0.171-0.355-0.17-1.066-0.739-1.635
    c-0.568-0.568-1.279-0.909-1.635-0.738l-0.568,0.273c-0.46-0.741-0.79-1.566-0.998-2.439l0.584-0.205
    C0.969,9.547,1.231,8.804,1.231,8c0-0.804-0.262-1.548-0.634-1.678L0,6.112c0.206-0.874,0.565-1.685,1.025-2.427l0.554,0.266
    c0.355,0.171,1.066-0.17,1.635-0.738c0.569-0.568,0.909-1.28,0.739-1.635L3.686,1.025c0.742-0.46,1.553-0.818,2.427-1.024
    l0.209,0.596C6.453,0.969,7.197,1.23,8.001,1.23s1.548-0.262,1.678-0.634l0.209-0.596c0.874,0.205,1.692,0.553,2.434,1.011
    l-0.272,0.567c-0.171,0.355,0.17,1.066,0.738,1.635c0.569,0.568,1.279,0.909,1.635,0.738l0.568-0.273
    c0.46,0.741,0.79,1.566,0.998,2.438l-0.584,0.205C15.032,6.452,14.77,7.196,14.77,8z M8.001,3.661C5.604,3.661,3.661,5.603,3.661,8
    c0,2.397,1.943,4.34,4.339,4.34c2.397,0,4.339-1.943,4.339-4.34C12.34,5.603,10.397,3.661,8.001,3.661z"/>
  <path id="tag-shape" fill-rule="evenodd" clip-rule="evenodd" d="M15.578,7.317L9.659,1.398
    C9.374,1.033,8.955,0.777,8.471,0.761L2.556,0C1.72-0.027-0.027,1.72,0,2.556l0.761,5.916c0.016,0.484,0.272,0.902,0.637,1.188
    l5.919,5.919c0.591,0.591,1.584,0.557,2.218-0.076l5.966-5.966C16.135,8.902,16.169,7.909,15.578,7.317z M4.222,4.163
    c-0.511,0.511-1.339,0.511-1.85,0c-0.511-0.511-0.511-1.339,0-1.85c0.511-0.511,1.339-0.511,1.85,0
    C4.733,2.823,4.733,3.652,4.222,4.163z"/>
  <path id="unblock-shape" fill-rule="evenodd" clip-rule="evenodd" d="M8,16c-4.418,0-8-3.582-8-8c0-4.418,3.582-8,8-8
    c4.418,0,8,3.582,8,8C16,12.418,12.418,16,8,16z M8,2.442C4.911,2.442,2.408,4.931,2.408,8c0,3.069,2.504,5.557,5.592,5.557
    S13.592,11.069,13.592,8C13.592,4.931,11.089,2.442,8,2.442z"/>
  <path id="video-shape" fill-rule="evenodd" clip-rule="evenodd" d="M14.9,3.129l-3.476,3.073V3.873c0-0.877-0.663-1.587-1.482-1.587
    H1.482C0.663,2.286,0,2.996,0,3.873v8.254c0,0.877,0.663,1.587,1.482,1.587h8.461c0.818,0,1.482-0.711,1.482-1.587V9.762
    l3.476,3.073c0.3,0.321,0.714,0.416,1.1,0.331V2.798C15.614,2.713,15.2,2.808,14.9,3.129z"/>
  <g id="copy-shape">
    <circle fill-rule="evenodd" clip-rule="evenodd" fill="#0096DD" cx="8" cy="8" r="8"/>
    <path fill-rule="evenodd" clip-rule="evenodd" fill="none"
          stroke="#FFFFFF" stroke-width="0.75" stroke-miterlimit="10"
          d="M10.815,6.286H7.556c-0.164,0-0.296,0.128-0.296,0.286v5.143C7.259,11.872,7.392,12,7.556,12h4.148
             C11.867,12,12,11.872,12,11.714V7.429L10.815,6.286z
             M8.741,6.275V5.143L7.556,4H7.528C6.509,4,4.593,4,4.593,4H4.296
             C4.133,4,4,4.128,4,4.286v5.143c0,0.158,0.133,0.286,0.296,0.286H7.25V6.561c0-0.158,0.133-0.286,0.296-0.286H8.741z"/>
    <polygon fill-rule="evenodd" clip-rule="evenodd"
             fill="#FFFFFF" points="10.222,8 10.222,6.857 11.407,8"/>
    <polygon fill-rule="evenodd" clip-rule="evenodd" fill="#FFFFFF"
             points="6.963,5.714 6.963,4.571 8.148,5.714"/>
  </g>
  <g id="checkmark-shape">
    <circle fill-rule="evenodd" clip-rule="evenodd" fill="#0096DD" cx="8"
            cy="8" r="8"/>
    <path fill-rule="evenodd" clip-rule="evenodd" fill="#FFFFFF"
          d="M7.236,12L12,5.007L10.956,4L7.224,9.465l-2.14-2.326L4,8.146L7.236,12z"/>
  </g>
  <g id="trash-shape">
    <circle fill-rule="evenodd" clip-rule="evenodd" fill="#D74345" cx="8" cy="8" r="8"/>
    <path fill="#FFFFFF" d="M12,5.79c0-0.742-0.537-1.344-1.2-1.344h-0.583V4.121c0-0.713-0.516-1.29-1.152-1.29h-2.13
      c-0.636,0-1.152,0.578-1.152,1.29v0.324H5.2C4.537,4.446,4,5.048,4,5.79v0.898h0.687l0.508,5.438
      c0.054,0.585,0.543,1.044,1.114,1.044h3.38c0.57,0,1.06-0.458,1.114-1.043l0.509-5.439H12V5.79z M6.407,4.264V4.165
      c0-0.375,0.271-0.678,0.606-0.678h1.974c0.334,0,0.606,0.304,0.606,0.678v0.099c0,0.063-0.01,0.123-0.025,0.181H6.432
      C6.417,4.387,6.407,4.328,6.407,4.264z M10.057,12.056c-0.019,0.197-0.188,0.363-0.368,0.363h-3.38
      c-0.182,0-0.35-0.166-0.368-0.363L5.44,6.687h5.12L10.057,12.056z"/>
    <rect x="7.75" y="7.542" fill="#FFFFFF" width="0.5" height="4"/>
    <polyline fill="#FFFFFF" points="9.25,7.542 8.75,7.542 8.75,11.542 9.25,11.542  "/>
    <rect x="6.75" y="7.542" fill="#FFFFFF" width="0.5" height="4"/>
  </g>
  <g id="leave-shape">
    <polygon fill="#FFFFFF" points="2.08,11.52 2.08,4 8,4 8,2.24 0.32,2.24 0.32,13.28 8,13.28 8,11.52"/>
    <polygon fill="#FFFFFF" points="15.66816,7.77344 9.6,2.27456 9.6,5.6 3.68,5.6 3.68,9.92 9.6,9.92 9.6,13.27232"/>
  </g>
  <path id="tour-shape" fill="#5A5A5A" d="M8,0C4.831,0,2.262,2.674,2.262,5.972c0,1.393,1.023,3.398,2.206,5.249l0.571,
    0.866C6.504,14.245,8,16,8,16 s1.496-1.755,2.961-3.912l0.571-0.866c1.182-1.852,2.206-3.856,2.206-5.249C13.738,2.674,
    11.169,0,8,0z M8,7.645 c-0.603,0-1.146-0.262-1.534-0.681C6.098,6.566,5.87,6.025,5.87,5.428c0-1.224,0.954-2.217,
    2.13-2.217s2.13,0.992,2.13,2.217 C10.13,6.653,9.177,7.645,8,7.645z"/>
  <g id="screen-shape">
    <path d="M12.199,3.915v-0.4c0-0.837-0.65-1.515-1.452-1.515H2.452C1.65,2,1,2.678,1,3.515v6.242
      c0,0.837,0.65,1.515,1.452,1.515h0.514V5.431c0-0.837,0.65-1.515,1.452-1.515H12.199z"/>
    <path d="M13.548,4.727H5.253c-0.802,0-1.452,0.678-1.452,1.515v6.242c0,0.837,0.65,1.515,1.452,
      1.515h8.294 C14.35,14,15,13.322,15,12.485V6.242C15,5.406,14.35,4.727,13.548,4.727z"/>
  </g>
  <g id="screenmute-shape">
    <path fill-rule="evenodd" clip-rule="evenodd" d="M13.55,4.73h-0.54l-8.13,8.13L4.2,13.53
      C4.46,13.82,4.84,14,5.25,14h8.3c0.8,0,1.45-0.68,1.45-1.52V6.24C15,5.41,14.35,4.73,13.55,4.73z"/>
    <path fill-rule="evenodd" clip-rule="evenodd" d="M14.21,2.72l-0.99-0.99l-1.15,1.15C11.83,2.36,11.33,2,10.75,2
      h-8.3C1.65,2,1,2.68,1,3.52v6.24c0,0.83,0.65,1.51,1.45,1.51h0.52V5.43c0-0.84,0.65-1.51,1.45-1.51h6.61l-0.81,
      0.81H5.25 c-0.8,0-1.45,0.68-1.45,1.51v4.91l-1.89,1.89l0.99,0.99l1-1l8.3-8.3L14.21,2.72z"/>
  </g>
</defs>
<use id="audio"               xlink:href="#audio-shape"/>
<use id="audio-hover"         xlink:href="#audio-shape"/>
<use id="audio-active"        xlink:href="#audio-shape"/>
<use id="block"               xlink:href="#block-shape"/>
<use id="block-red"           xlink:href="#block-shape"/>
<use id="block-hover"         xlink:href="#block-shape"/>
<use id="block-active"        xlink:href="#block-shape"/>
<use id="contacts"            xlink:href="#contacts-shape"/>
<use id="contacts-hover"      xlink:href="#contacts-shape"/>
<use id="contacts-active"     xlink:href="#contacts-shape"/>
<use id="copy"                xlink:href="#copy-shape"/>
<use id="checkmark"           xlink:href="#checkmark-shape"/>
<use id="google"              xlink:href="#google-shape"/>
<use id="google-hover"        xlink:href="#google-shape"/>
<use id="google-active"       xlink:href="#google-shape"/>
<use id="history"             xlink:href="#history-shape"/>
<use id="history-hover"       xlink:href="#history-shape"/>
<use id="history-active"      xlink:href="#history-shape"/>
<use id="leave"               xlink:href="#leave-shape"/>
<use id="precall"             xlink:href="#precall-shape"/>
<use id="precall-hover"       xlink:href="#precall-shape"/>
<use id="precall-active"      xlink:href="#precall-shape"/>
<use id="settings"            xlink:href="#settings-shape"/>
<use id="settings-hover"      xlink:href="#settings-shape"/>
<use id="settings-active"     xlink:href="#settings-shape"/>
<use id="tag"                 xlink:href="#tag-shape"/>
<use id="tag-hover"           xlink:href="#tag-shape"/>
<use id="tag-active"          xlink:href="#tag-shape"/>
<use id="trash"               xlink:href="#trash-shape"/>
<use id="unblock"             xlink:href="#unblock-shape"/>
<use id="unblock-hover"       xlink:href="#unblock-shape"/>
<use id="unblock-active"      xlink:href="#unblock-shape"/>
<use id="video"               xlink:href="#video-shape"/>
<use id="video-hover"         xlink:href="#video-shape"/>
<use id="video-active"        xlink:href="#video-shape"/>
<use id="tour"                xlink:href="#tour-shape"/>
<use id="screen-white"        xlink:href="#screen-shape"/>
<use id="screen-disabled"     xlink:href="#screen-shape"/>
<use id="screenmute-white"    xlink:href="#screenmute-shape"/>
</svg>
