<svg width="12" height="12" viewBox="0 0 12 12" xmlns="http://www.w3.org/2000/svg" xmlns:sketch="http://www.bohemiancoding.com/sketch/ns"><title>FX_Hello-glyph-pause-12x12</title><desc>Created with Sketch.</desc><path d="M5 .5v11c0 .136-.05.253-.149.351-.099.099-.215.149-.351.149h-4c-.136 0-.253-.05-.352-.149-.099-.098-.148-.216-.148-.351v-11c0-.136.049-.253.148-.352.099-.098.217-.148.352-.148h4c.136 0 .252.05.351.148.099.099.149.217.149.352zm7 0v11c0 .136-.05.253-.149.351-.099.099-.216.149-.351.149h-4c-.136 0-.253-.05-.352-.149-.099-.098-.148-.216-.148-.351v-11c0-.136.049-.253.148-.352.099-.098.216-.148.352-.148h4c.136 0 .252.05.351.148.099.099.149.217.149.352z" sketch:type="MSShapeGroup" fill="#333"/></svg>