/* XPM */
static char * mozicon16_xpm[] = {
"16 16 172 2",
"  	c None",
". 	c #8B93A9",
"+ 	c #5E6882",
"@ 	c #666F89",
"# 	c #818C9B",
"$ 	c #9A9D91",
"% 	c #8D825A",
"& 	c #898179",
"* 	c #D57330",
"= 	c #D29C70",
"- 	c #6A7287",
"; 	c #845033",
"> 	c #D88533",
", 	c #6CB6DD",
"' 	c #6AAED8",
") 	c #4578A2",
"! 	c #65797D",
"~ 	c #F4DA6B",
"{ 	c #FFE26D",
"] 	c #A88459",
"^ 	c #DC7630",
"/ 	c #F0B476",
"( 	c #ED9029",
"_ 	c #E68127",
": 	c #ED9638",
"< 	c #4F89AF",
"[ 	c #69ACD4",
"} 	c #689DBC",
"| 	c #678A9C",
"1 	c #9A8C64",
"2 	c #FFDF68",
"3 	c #B88D49",
"4 	c #EBB47D",
"5 	c #DC742A",
"6 	c #EEAA64",
"7 	c #7C5B3C",
"8 	c #416989",
"9 	c #4D91BA",
"0 	c #7AB8D5",
"a 	c #6093B5",
"b 	c #417098",
"c 	c #8E8C71",
"d 	c #C0612B",
"e 	c #E56A17",
"f 	c #EE871E",
"g 	c #EAA472",
"h 	c #EAA576",
"i 	c #45586D",
"j 	c #3B769E",
"k 	c #57A6D1",
"l 	c #388CBF",
"m 	c #2B6E9B",
"n 	c #E9AC36",
"o 	c #DB9C40",
"p 	c #E36615",
"q 	c #ED8119",
"r 	c #EE8324",
"s 	c #FBA159",
"t 	c #8F6F5B",
"u 	c #1C527D",
"v 	c #256895",
"w 	c #2A9CCE",
"x 	c #3A9FCC",
"y 	c #226690",
"z 	c #226999",
"A 	c #C89638",
"B 	c #FFD85D",
"C 	c #EAA83A",
"D 	c #BC612E",
"E 	c #D16628",
"F 	c #504341",
"G 	c #1F476B",
"H 	c #256F9A",
"I 	c #0688C5",
"J 	c #174E78",
"K 	c #204D72",
"L 	c #B48135",
"M 	c #E9B244",
"N 	c #AB6049",
"O 	c #EC7A19",
"P 	c #D46B2C",
"Q 	c #7E5134",
"R 	c #254C6C",
"S 	c #B15F22",
"T 	c #7C543A",
"U 	c #1D5C89",
"V 	c #066EB1",
"W 	c #124470",
"X 	c #D59235",
"Y 	c #FFDB60",
"Z 	c #D79936",
"` 	c #8B5E64",
" .	c #D14E14",
"..	c #E87715",
"+.	c #EE7E13",
"@.	c #E07D2E",
"#.	c #ED862D",
"$.	c #EFA056",
"%.	c #454958",
"&.	c #0A528F",
"*.	c #0A518A",
"=.	c #474F4F",
"-.	c #E1AD3C",
";.	c #FFD648",
">.	c #CA8734",
",.	c #AA979E",
"'.	c #944531",
").	c #E3660E",
"!.	c #F0821D",
"~.	c #984922",
"{.	c #472F37",
"].	c #0D4577",
"^.	c #176CA1",
"/.	c #164168",
"(.	c #D78933",
"_.	c #FDCF48",
":.	c #615C5E",
"<.	c #A2685F",
"[.	c #C54012",
"}.	c #E36A0F",
"|.	c #4A5762",
"1.	c #804D37",
"2.	c #FEA53D",
"3.	c #FFCD62",
"4.	c #83592C",
"5.	c #C7C3C2",
"6.	c #BA9B9A",
"7.	c #96352B",
"8.	c #C63509",
"9.	c #D95810",
"0.	c #E67115",
"a.	c #F4992D",
"b.	c #F5A22D",
"c.	c #FBBE3C",
"d.	c #C86F2D",
"e.	c #746C71",
"f.	c #986F75",
"g.	c #7E1316",
"h.	c #B91807",
"i.	c #CF3C09",
"j.	c #D5470E",
"k.	c #DE5E14",
"l.	c #E57121",
"m.	c #E37A26",
"n.	c #B36426",
"o.	c #494453",
"p.	c #C9C6C7",
"q.	c #856D7C",
"r.	c #572231",
"s.	c #83080B",
"t.	c #A70C07",
"u.	c #A8100A",
"v.	c #AA180C",
"w.	c #AF2210",
"x.	c #B41C0A",
"y.	c #4B2623",
"z.	c #484D62",
"A.	c #B7B4B6",
"B.	c #A69EA5",
"C.	c #705D70",
"D.	c #41324B",
"E.	c #251A3C",
"F.	c #1E193B",
"G.	c #322846",
"H.	c #43425C",
"I.	c #8E8A96",
"J.	c #B8B8BB",
"K.	c #A4A2A7",
"L.	c #96959D",
"M.	c #9B9CA7",
"N.	c #A0A1AA",
"O.	c #ACAEB6",
"            . + @ # $ % &       ",
"  * =   - ; > , ' ) ! ~ { ]     ",
"  ^ / ( _ : ] < [ } | 1 { 2 3   ",
"4 5 ( ( ( 6 7 8 9 0 a b c { 2   ",
"d e ( ( f g h i j k k l m n 2 o ",
"d p q f r s t u v w x y z A B C ",
"D p q q E F G u H I y J K L B M ",
"N p O O P Q R S T U V W R X Y Z ",
"`  ...+.r r @.#.$.%.&.*.=.-.;.>.",
",.'.).O !.+.~.{.].^./.F (.{ _.:.",
"  <.[.}.r +.O F R |.1.2.B 3.4.5.",
"  6.7.8.9.0...O a.a.a.b.c.d.e.  ",
"    f.g.h.8.i.j.k.l.m._ n.o.p.  ",
"      q.r.s.t.u.v.w.x.y.z.A.    ",
"        B.C.D.E.F.G.H.I.J.      ",
"            K.L.M.N.O.          "};
