/* XPM */
static char * firefox_16_xpm[] = {
"16 16 191 2",
"  	c None",
". 	c #08317B",
"+ 	c #21426B",
"@ 	c #6C5E28",
"# 	c #46392B",
"$ 	c #A37C60",
"% 	c #C7A38A",
"& 	c #153473",
"* 	c #5B627C",
"= 	c #988884",
"- 	c #6F82A1",
"; 	c #5E8DBC",
"> 	c #4878AD",
", 	c #385177",
"' 	c #EFB336",
") 	c #FEBF39",
"! 	c #A27843",
"~ 	c #C4936F",
"{ 	c #F4CCA0",
"] 	c #F6B457",
"^ 	c #F7B65C",
"/ 	c #EFCBAE",
"( 	c #888E9E",
"_ 	c #90B5CE",
": 	c #91C8E6",
"< 	c #8DC6E6",
"[ 	c #82BFE2",
"} 	c #998860",
"| 	c #FEBE37",
"1 	c #FBBE3B",
"2 	c #B88B3E",
"3 	c #C48C59",
"4 	c #FAC173",
"5 	c #F6B753",
"6 	c #F1B982",
"7 	c #EEAA64",
"8 	c #7C5B3C",
"9 	c #53708C",
"0 	c #69B3DB",
"a 	c #70B8DF",
"b 	c #73B9E0",
"c 	c #68B4DD",
"d 	c #8E8C71",
"e 	c #FFC138",
"f 	c #412B2E",
"g 	c #6D4B43",
"h 	c #F6B55D",
"i 	c #F3B150",
"j 	c #F09E34",
"k 	c #ED9946",
"l 	c #EAA472",
"m 	c #EAA576",
"n 	c #42556A",
"o 	c #2490CC",
"p 	c #3198D1",
"q 	c #47A2D5",
"r 	c #50A7D7",
"s 	c #398FC2",
"t 	c #E9AC36",
"u 	c #FFBF37",
"v 	c #A97434",
"w 	c #7E4E36",
"x 	c #F5A33E",
"y 	c #F0A442",
"z 	c #ED9029",
"A 	c #EF8C32",
"B 	c #FBA159",
"C 	c #8F6F5B",
"D 	c #066BAD",
"E 	c #027FC4",
"F 	c #0782C6",
"G 	c #1787C7",
"H 	c #2A91CC",
"I 	c #2184C0",
"J 	c #C89638",
"K 	c #E9A038",
"L 	c #6B4333",
"M 	c #F28F2D",
"N 	c #EE942D",
"O 	c #E98828",
"P 	c #D16628",
"Q 	c #4F4447",
"R 	c #16507A",
"S 	c #0378BD",
"T 	c #027BC0",
"U 	c #027DC2",
"V 	c #067EC3",
"W 	c #1082C4",
"X 	c #0C5D95",
"Y 	c #B48135",
"Z 	c #FFC239",
"` 	c #99713F",
" .	c #602323",
"..	c #EE7A1C",
"+.	c #EC8A23",
"@.	c #DF7D2B",
"#.	c #D46B2C",
"$.	c #7E5134",
"%.	c #1E5C88",
"&.	c #B15F22",
"*.	c #7C5339",
"=.	c #115485",
"-.	c #037CC0",
";.	c #0379BF",
">.	c #19486B",
",.	c #FDA734",
"'.	c #FFCB41",
").	c #A4883C",
"!.	c #400D27",
"~.	c #E15A0F",
"{.	c #EC7C15",
"].	c #EB8932",
"^.	c #E58E48",
"/.	c #EA8639",
"(.	c #E07D2E",
"_.	c #EC700B",
":.	c #434653",
"<.	c #0470B4",
"[.	c #3F474B",
"}.	c #FFC940",
"|.	c #FFD648",
"1.	c #B52F0B",
"2.	c #E9670B",
"3.	c #EF871C",
"4.	c #F18D34",
"5.	c #EB8330",
"6.	c #984922",
"7.	c #472F37",
"8.	c #094578",
"9.	c #0376BB",
"0.	c #056FB2",
"a.	c #4C3E45",
"b.	c #D78832",
"c.	c #FFE26D",
"d.	c #FDCF48",
"e.	c #272430",
"f.	c #480F1C",
"g.	c #D43A06",
"h.	c #E7720E",
"i.	c #F18E2E",
"j.	c #EF7E13",
"k.	c #D77526",
"l.	c #504341",
"m.	c #194870",
"n.	c #234364",
"o.	c #7D4733",
"p.	c #FE8C2C",
"q.	c #FFDA5E",
"r.	c #FFCD62",
"s.	c #80552A",
"t.	c #890708",
"u.	c #D03100",
"v.	c #DD6911",
"w.	c #EE8718",
"x.	c #EE8317",
"y.	c #F47722",
"z.	c #F17121",
"A.	c #EF6D1D",
"B.	c #F1741F",
"C.	c #F4A01C",
"D.	c #FBBE3C",
"E.	c #C86F2D",
"F.	c #0C1337",
"G.	c #111238",
"H.	c #84030A",
"I.	c #C90F00",
"J.	c #D23302",
"K.	c #DE580D",
"L.	c #EB6F18",
"M.	c #EC7518",
"N.	c #F0751E",
"O.	c #F17A1D",
"P.	c #F9981B",
"Q.	c #B36426",
"R.	c #151835",
"S.	c #061741",
"T.	c #360C27",
"U.	c #8C0208",
"V.	c #B50000",
"W.	c #BC0200",
"X.	c #C31801",
"Y.	c #CA3C05",
"Z.	c #B24312",
"`.	c #512826",
" +	c #08183E",
".+	c #061841",
"++	c #0D1841",
"@+	c #17163E",
"#+	c #18163D",
"$+	c #0E1842",
"%+	c #061946",
"              . . +   @ #       ",
"  $ %   & * = - ; > , ' ) !     ",
"  ~ { ] ^ / ( _ : < [ } | 1 2   ",
"  3 4 5 6 7 8 9 0 a b c d | e f ",
"g h i j k l m n o p q r s t u v ",
"w x y z A B C D E F G H I J u K ",
"L M N O P Q R S T U V W X Y Z ` ",
" ...+.@.#.$.%.&.*.=.-.;.>.,.'.).",
"!.~.{.].^./.(._._.:.S <.[.}.|.` ",
"  1.2.3.4.5.6.7.8.9.0.a.b.c.d.e.",
"  f.g.h.i.j.k.l.m.n.o.p.q.r.s.  ",
"    t.u.v.w.x.y.z.A.B.C.D.E.F.  ",
"    G.H.I.J.K.L.M.N.O.P.Q.R.    ",
"      S.T.U.V.W.X.Y.Z.`. +      ",
"          .+++@+#+$+%+          ",
"                                "};
