<!-- This Source Code Form is subject to the terms of the Mozilla Public
   - License, v. 2.0. If a copy of the MPL was not distributed with this
   - file, You can obtain one at http://mozilla.org/MPL/2.0/. -->
<svg xmlns="http://www.w3.org/2000/svg" width="16" height="16" viewBox="0 0 16 16">
  <path fill="context-fill" fill-opacity="context-fill-opacity" d="M11 2H9.95a2.5 2.5 0 0 0-4.9 0H4a2 2 0 0 0-2 2v10a2 2 0 0 0 2 2h7a2 2 0 0 0 2-2V4a2 2 0 0 0-2-2zm0 7a1 1 0 0 1-1 1H5a1 1 0 0 1-1-1V5h7zm0-5H4V3h1.05a1 1 0 0 0 .98-.8 1.5 1.5 0 0 1 2.939 0 1 1 0 0 0 .98.8H11zM7.5 2a.5.5 0 1 0 .5.5.5.5 0 0 0-.5-.5zm-2 5h4a.5.5 0 0 0 0-1h-4a.5.5 0 0 0 0 1zm0 2h2a.5.5 0 0 0 0-1h-2a.5.5 0 0 0 0 1z"/>
</svg>
