<!-- This Source Code Form is subject to the terms of the Mozilla Public
   - License, v. 2.0. If a copy of the MPL was not distributed with this
   - file, You can obtain one at http://mozilla.org/MPL/2.0/. -->
<svg xmlns="http://www.w3.org/2000/svg" viewBox="0 0 16 16" width="16" height="16" fill="context-fill" fill-opacity="context-fill-opacity">
  <path d="M.625 13a.625.625 0 0 1 0-1.25l3.25 0A4.88 4.88 0 0 0 8.75 6.875l0-.25a.625.625 0 0 1 1.25 0l0 .25A6.132 6.132 0 0 1 3.875 13l-3.25 0z"/>
  <path d="M12.096 15.248a.625.625 0 0 1-.491-1.012c4.281-5.446 3.261-8.813 2.271-10.337-1.346-2.07-4.169-3.106-6.71-2.464-2.428.615-3.951 2.583-4.178 5.397-.027.345-.364.585-.673.574a.626.626 0 0 1-.573-.673C2.011 3.4 3.924.967 6.859.224c3.044-.768 6.437.489 8.064 2.995 1.172 1.803 2.426 5.732-2.337 11.791a.622.622 0 0 1-.49.238z"/>
  <path d="M5.734 16a.624.624 0 0 1-.165-1.228c5.912-1.62 6.147-7.768 6.148-7.829a2.113 2.113 0 0 0-.457-1.708 2.713 2.713 0 0 0-1.689-.947c-.683-.109-1.357.021-1.902.371-.521.334-.859.83-.95 1.396l-.217 1.209a3.621 3.621 0 0 1-3.567 2.986l-2.31 0a.625.625 0 0 1 0-1.25l2.31 0a2.373 2.373 0 0 0 2.337-1.957l.215-1.196c.146-.912.683-1.711 1.509-2.24a3.95 3.95 0 0 1 2.774-.553 3.964 3.964 0 0 1 2.461 1.394c.618.762.878 1.688.729 2.611.005 0-.27 7.059-7.061 8.919a.619.619 0 0 1-.165.022z"/>
</svg>
