<!-- This Source Code Form is subject to the terms of the Mozilla Public
   - License, v. 2.0. If a copy of the MPL was not distributed with this
   - file, You can obtain one at http://mozilla.org/MPL/2.0/. -->
<svg xmlns="http://www.w3.org/2000/svg" fill-opacity="context-fill-opacity" viewBox="0 0 20 20">
  <path d="M5.5 2C4.66 2 4 2.66 4 3.5v13c0 .84.66 1.5 1.5 1.5h9c.84 0 1.5-.66 1.5-1.5v-13c0-.84-.66-1.5-1.5-1.5h-1.588c-.208.58-.765 1-1.412 1h-3c-.647 0-1.204-.42-1.412-1Z" fill="context-fill"/>
  <path d="M8.5 0c-.647 0-1.204.42-1.412 1H5.5A2.506 2.506 0 0 0 3 3.5v13C3 17.876 4.124 19 5.5 19h9c1.376 0 2.5-1.124 2.5-2.5v-13C17 2.124 15.876 1 14.5 1h-1.588c-.208-.58-.765-1-1.412-1Zm0 1h3c.286 0 .5.214.5.5 0 .286-.214.5-.5.5h-3a.488.488 0 0 1-.5-.5c0-.286.214-.5.5-.5Zm-3 1h1.588c.208.58.765 1 1.412 1h3c.647 0 1.204-.42 1.412-1H14.5c.84 0 1.5.66 1.5 1.5v13c0 .84-.66 1.5-1.5 1.5h-9c-.84 0-1.5-.66-1.5-1.5v-13C4 2.66 4.66 2 5.5 2Zm7.902 5.01a.5.5 0 0 0-.318.213l-3.662 5.492-2.568-2.569a.5.5 0 0 0-.708 0 .5.5 0 0 0 0 .708l3 3a.5.5 0 0 0 .77-.077l4-6a.5.5 0 0 0-.139-.693.5.5 0 0 0-.375-.074Z" fill="context-stroke"/>
</svg>
