<?xml version="1.0" standalone="no"?>
<!DOCTYPE svg PUBLIC "-//W3C//DTD SVG 1.1//EN" "http://www.w3.org/Graphics/SVG/1.1/DTD/svg11.dtd" >
<svg>
<metadata>
Created by FontForge 20090914 at Tue Jul 23 15:34:56 2013
 By www-data
Digitized data copyright (c) 2012-2013, The Mozilla Corporation and Telefonica S.A.
</metadata>
<defs>
<font id="FiraSansLight" horiz-adv-x="560" >
  <font-face 
    font-family="Fira Sans Light"
    font-weight="300"
    font-stretch="normal"
    units-per-em="1000"
    panose-1="2 11 6 3 5 0 0 2 0 4"
    ascent="785"
    descent="-215"
    x-height="523"
    cap-height="685"
    bbox="-603 -500 1360 1050"
    underline-thickness="50"
    underline-position="-50"
    unicode-range="U+000D-U+1F310"
  />
<missing-glyph horiz-adv-x="666" 
d="M123 1050h420v-1550h-420v1550zM489 -448v1446h-311v-1446h311zM340 173c0 -7.33301 -2.66797 -13.165 -8.00098 -17.498s-11 -6.5 -17 -6.5c-6.66699 0 -12.5 2.16699 -17.5 6.5s-7.5 10.166 -7.5 17.499v84c36 2 60.167 8.66699 72.5 20s18.5 30.333 18.5 57
c0 19.333 -3.83301 35.666 -11.5 48.999s-24.167 20 -49.5 20c-19.333 0 -36.666 -3.66699 -51.999 -11c-5.33301 -2 -9.66602 -3 -12.999 -3c-7.33301 0 -13.166 2.16699 -17.499 6.5s-6.5 9.83301 -6.5 16.5s3 12.5 9 17.5s13.667 9 23 12s19.333 5.33301 30 7
s21 2.5 31 2.5c21.333 0 39.166 -3.16699 53.499 -9.5s25.666 -14.833 33.999 -25.5s14.333 -23 18 -37s5.5 -28.333 5.5 -43c0 -35.333 -7.33301 -62.5 -22 -81.5s-39 -31.167 -73 -36.5v-45zM279.999 85.001c0 10 3.33301 18.333 10 25s15 10 25 10
s18.333 -3.33301 25 -10s10 -15 10 -25c0 -10.667 -3.33301 -19.5 -10 -26.5s-15 -10.5 -25 -10.5s-18.333 3.5 -25 10.5s-10 15.833 -10 26.5z" />
    <glyph glyph-name="f_i" unicode="fi" horiz-adv-x="567" 
d="M25 523l97.0029 0.000976562v89c0 40 12.833 71.833 38.5 95.5s65.5 35.5 119.5 35.5c29.333 0 56.166 -3.83301 80.499 -11.5s45.166 -16.167 62.499 -25.5l-21 -44c-18 8.66699 -37.333 16 -58 22s-41.334 9 -62.001 9c-39.333 0 -66.333 -7.33301 -81 -22
s-22 -35.334 -22 -62.001v-86h283v-523h-57v476h-226v-476h-57v476h-97v47z" />
    <glyph glyph-name="f_l" unicode="fl" horiz-adv-x="572" 
d="M25 523l97.001 0.000976562v89c0 40 13 71.833 39 95.5s66.667 35.5 122 35.5c23.333 0 43.666 -1.66699 60.999 -5s36.333 -8.33301 57 -15l57 10v-645c0 -32.667 13.667 -49 41 -49c7.33301 0 14 0.666992 20 2s11.667 3 17 5l16 -42c-18 -10 -39 -15 -63 -15
c-25.333 0 -46.333 7.16699 -63 21.5s-25 39.5 -25 75.5v587c-22 7.33301 -41.833 12.5 -59.5 15.5s-36.5 4.5 -56.5 4.5c-40.667 0 -68.5 -7.33301 -83.5 -22s-22.5 -35.334 -22.5 -62.001v-86h138l-7 -47h-131v-476h-57v476h-97v47z" />
    <glyph glyph-name=".notdef" horiz-adv-x="666" 
d="M123 1050h420v-1550h-420v1550zM489 -448v1446h-311v-1446h311zM340 173c0 -7.33301 -2.66797 -13.165 -8.00098 -17.498s-11 -6.5 -17 -6.5c-6.66699 0 -12.5 2.16699 -17.5 6.5s-7.5 10.166 -7.5 17.499v84c36 2 60.167 8.66699 72.5 20s18.5 30.333 18.5 57
c0 19.333 -3.83301 35.666 -11.5 48.999s-24.167 20 -49.5 20c-19.333 0 -36.666 -3.66699 -51.999 -11c-5.33301 -2 -9.66602 -3 -12.999 -3c-7.33301 0 -13.166 2.16699 -17.499 6.5s-6.5 9.83301 -6.5 16.5s3 12.5 9 17.5s13.667 9 23 12s19.333 5.33301 30 7
s21 2.5 31 2.5c21.333 0 39.166 -3.16699 53.499 -9.5s25.666 -14.833 33.999 -25.5s14.333 -23 18 -37s5.5 -28.333 5.5 -43c0 -35.333 -7.33301 -62.5 -22 -81.5s-39 -31.167 -73 -36.5v-45zM279.999 85.001c0 10 3.33301 18.333 10 25s15 10 25 10
s18.333 -3.33301 25 -10s10 -15 10 -25c0 -10.667 -3.33301 -19.5 -10 -26.5s-15 -10.5 -25 -10.5s-18.333 3.5 -25 10.5s-10 15.833 -10 26.5z" />
    <glyph glyph-name=".null" horiz-adv-x="0" 
 />
    <glyph glyph-name="nonmarkingreturn" unicode="&#xd;" horiz-adv-x="280" 
 />
    <glyph glyph-name="space" unicode=" " horiz-adv-x="280" 
 />
    <glyph glyph-name="exclam" unicode="!" horiz-adv-x="280" 
d="M107 195v490h57v-490h-57zM92 36c0 13.333 4.33301 24.5 13 33.5s20.334 13.5 35.001 13.5c15.333 0 27.166 -4.5 35.499 -13.5s12.5 -20.167 12.5 -33.5s-4.16699 -24.5 -12.5 -33.5s-20.166 -13.5 -35.499 -13.5c-14.667 0 -26.334 4.5 -35.001 13.5
s-13 20.167 -13 33.5z" />
    <glyph glyph-name="quotedbl" unicode="&#x22;" horiz-adv-x="405" 
d="M266 434l-21 251h60v-251h-39zM121 434l-21 251h60v-251h-39z" />
    <glyph glyph-name="numbersign" unicode="#" horiz-adv-x="500" 
d="M402 447l-29 -219h82v-46h-88l-24 -182h-53l24 182h-168l-24 -182h-53l24 182h-81v46h87l29 219h-83v46h89l23 172h53l-23 -172h168l23 172h53l-23 -172h80v-46h-86zM152 228h168l29 219h-168z" />
    <glyph glyph-name="dollar" unicode="$" horiz-adv-x="500" 
d="M420 569c-23.333 20 -47.833 34.8301 -73.5 44.4971s-55.167 14.5 -88.5 14.5c-40.667 0 -74.5 -9.16699 -101.5 -27.5s-40.5 -46.5 -40.5 -84.5c0 -18 2.66699 -33.5 8 -46.5s14.166 -24.5 26.499 -34.5s28.5 -19.333 48.5 -28s44.667 -17.334 74 -26.001
c29.333 -9.33301 56.333 -19.333 81 -30s45.834 -23.5 63.501 -38.5s31.334 -33 41.001 -54s14.5 -45.833 14.5 -74.5c0 -54 -17.167 -98 -51.5 -132s-81.833 -53.667 -142.5 -59v-143h-49v142c-84.667 3.33301 -152 29 -202 77l34 39c24 -22 51 -39 81 -51
s64.333 -18 103 -18c50 0 90.333 12 121 36s46 59.667 46 107c0 22 -3.33301 40.667 -10 56s-16.667 28.5 -30 39.5s-30.5 20.833 -51.5 29.5s-45.833 17.334 -74.5 26.001c-66.667 20.667 -115 44.834 -145 72.501s-45 63.834 -45 108.501c0 45.333 16.167 82.333 48.5 111
s74.5 45.334 126.5 50.001v151h48v-151c38.667 -2 71.667 -8.83301 99 -20.5s52.666 -27.167 75.999 -46.5z" />
    <glyph glyph-name="percent" unicode="%" horiz-adv-x="850" 
d="M218 -22l-44 26l462 698l44 -26zM239 632c-17.333 0 -32 -3.16699 -44 -9.5s-21.667 -14.833 -29 -25.5s-12.5 -23.334 -15.5 -38.001s-4.5 -30 -4.5 -46c0 -14 1.5 -28 4.5 -42s8.16699 -26.667 15.5 -38s17 -20.5 29 -27.5s26.667 -10.5 44 -10.5s32 3.16699 44 9.5
s21.667 14.833 29 25.5s12.5 23.334 15.5 38.001s4.5 30 4.5 46c0 14 -1.5 28 -4.5 42s-8.16699 26.667 -15.5 38s-17 20.5 -29 27.5s-26.667 10.5 -44 10.5zM239 676c45.333 0 81.5 -14.5 108.5 -43.5s40.5 -68.5 40.5 -118.5s-13.5 -89.667 -40.5 -119
s-63.167 -44 -108.5 -44s-81.5 14.5 -108.5 43.5s-40.5 68.5 -40.5 118.5s13.5 89.667 40.5 119s63.167 44 108.5 44zM611 270c-17.333 0 -32 -3.16699 -44 -9.5s-21.667 -14.833 -29 -25.5s-12.5 -23.334 -15.5 -38.001s-4.5 -30 -4.5 -46c0 -14 1.5 -28 4.5 -42
s8.16699 -26.667 15.5 -38s17 -20.5 29 -27.5s26.667 -10.5 44 -10.5s32 3.16699 44 9.5s21.667 14.833 29 25.5s12.5 23.334 15.5 38.001s4.5 30 4.5 46c0 14 -1.5 28 -4.5 42s-8.16699 26.667 -15.5 38s-17 20.5 -29 27.5s-26.667 10.5 -44 10.5zM611 314
c45.333 0 81.5 -14.5 108.5 -43.5s40.5 -68.5 40.5 -118.5s-13.5 -89.667 -40.5 -119s-63.167 -44 -108.5 -44s-81.5 14.5 -108.5 43.5s-40.5 68.5 -40.5 118.5s13.5 89.667 40.5 119s63.167 44 108.5 44z" />
    <glyph glyph-name="ampersand" unicode="&#x26;" horiz-adv-x="777" 
d="M660 351c-12.667 -45.333 -26.833 -85.0059 -42.5 -119.006s-32.167 -64.667 -49.5 -92l154 -140h-83l-104 96c-32.667 -38 -67.167 -65.333 -103.5 -82s-74.5 -25 -114.5 -25c-30 0 -57.5 4.16699 -82.5 12.5s-46.333 20.333 -64 36s-31.334 34.334 -41.001 56.001
s-14.5 46.167 -14.5 73.5c0 42.667 11 79.334 33 110.001s55.667 60.667 101 90c-17.333 16 -32.666 31.167 -45.999 45.5s-24.5 28.5 -33.5 42.5s-15.833 28.333 -20.5 43s-7 31 -7 49c0 20.667 3.83301 40 11.5 58s18.667 33.833 33 47.5s31.833 24.334 52.5 32.001
s44 11.5 70 11.5c26.667 0 50.5 -4 71.5 -12s38.833 -18.5 53.5 -31.5s25.667 -27.833 33 -44.5s11 -34 11 -52c0 -19.333 -2.66699 -37.166 -8 -53.499s-13.833 -32.166 -25.5 -47.499s-26.667 -30.666 -45 -45.999s-40.5 -31.333 -66.5 -48l193 -184
c15.333 24.667 29.5 53.5 42.5 86.5s24.833 69.167 35.5 108.5zM319.001 38.9941c31.333 0 61.832 7.50293 91.499 22.5029s57.834 38.5 84.501 70.5l-208 200c-21.333 -14 -39.166 -26.833 -53.499 -38.5s-25.833 -23.834 -34.5 -36.501s-14.834 -26.334 -18.501 -41.001
s-5.5 -31.334 -5.5 -50.001c0 -37.333 13 -67.833 39 -91.5s61 -35.5 105 -35.5zM199 546.997c0 -12 1.50098 -23.5029 4.50098 -34.5029s8.16699 -22.167 15.5 -33.5s17.166 -23.666 29.499 -36.999s27.833 -28.666 46.5 -45.999c23.333 14.667 43 28 59 40
s28.833 23.833 38.5 35.5s16.667 23.834 21 36.501s6.5 26.667 6.5 42c0 29.333 -10.5 53.333 -31.5 72s-47.5 28 -79.5 28c-35.333 0 -62.5 -10 -81.5 -30s-28.5 -44.333 -28.5 -73z" />
    <glyph glyph-name="quotesingle" unicode="'" horiz-adv-x="260" 
d="M121 434l-21 251h60v-251h-39z" />
    <glyph glyph-name="parenleft" unicode="(" horiz-adv-x="325" 
d="M55 350c0 54.667 4.33301 104.165 13 148.498s20.5 85.333 35.5 123s32.833 72.834 53.5 105.501s43 65 67 97l36 -24c-22 -31.333 -42 -63.333 -60 -96s-33.333 -67.167 -46 -103.5s-22.5 -75.166 -29.5 -116.499s-10.5 -86 -10.5 -134s3.5 -92.5 10.5 -133.5
s16.833 -79.833 29.5 -116.5s28 -71.334 46 -104.001s38 -64.667 60 -96l-36 -24c-24 32 -46.333 64.333 -67 97s-38.5 67.834 -53.5 105.501s-26.833 78.667 -35.5 123s-13 93.833 -13 148.5z" />
    <glyph glyph-name="parenright" unicode=")" horiz-adv-x="325" 
d="M270 350c0 -54.667 -4.33301 -104.165 -13 -148.498s-20.5 -85.333 -35.5 -123s-32.833 -72.834 -53.5 -105.501s-43 -65 -67 -97l-36 24c22 31.333 42 63.333 60 96s33.333 67.334 46 104.001s22.5 75.5 29.5 116.5s10.5 85.5 10.5 133.5s-3.5 92.667 -10.5 134
s-16.833 80.166 -29.5 116.499s-28 70.833 -46 103.5s-38 64.667 -60 96l36 24c24 -32 46.333 -64.333 67 -97s38.5 -67.834 53.5 -105.501s26.833 -78.667 35.5 -123s13 -93.833 13 -148.5z" />
    <glyph glyph-name="asterisk" unicode="*" horiz-adv-x="440" 
d="M240 579l146 56l17 -53l-151 -41l99 -122l-45 -32l-86 130l-86 -130l-45 32l98 122l-150 41l17 53l146 -56l-8 157h56z" />
    <glyph glyph-name="plus" unicode="+" horiz-adv-x="500" 
d="M278 337h152v-51h-152v-154h-56v154h-152v51h152v154h56v-154z" />
    <glyph glyph-name="comma" unicode="," horiz-adv-x="280" 
d="M91 36c0 13.333 4.50098 24.499 13.501 33.499s20.833 13.5 35.5 13.5c15.333 0 27.166 -4.5 35.499 -13.5s12.5 -20.167 12.5 -33.5c0 -9.33301 -1.16699 -17.333 -3.5 -24s-6.5 -16.667 -12.5 -30l-62 -133h-41l45 146c-15.333 8.66699 -23 22.334 -23 41.001z" />
    <glyph glyph-name="hyphen" unicode="-" horiz-adv-x="390" 
d="M66 286v52h258v-52h-258z" />
    <glyph glyph-name="period" unicode="." horiz-adv-x="280" 
d="M92 36c0 13.333 4.33301 24.5 13 33.5s20.334 13.5 35.001 13.5c15.333 0 27.166 -4.5 35.499 -13.5s12.5 -20.167 12.5 -33.5s-4.16699 -24.5 -12.5 -33.5s-20.166 -13.5 -35.499 -13.5c-14.667 0 -26.334 4.5 -35.001 13.5s-13 20.167 -13 33.5z" />
    <glyph glyph-name="slash" unicode="/" horiz-adv-x="520" 
d="M351 804l49 -12l-231 -899l-49 12z" />
    <glyph glyph-name="zero" unicode="0" horiz-adv-x="546" 
d="M273 39c52.667 0 91.334 23.167 116.001 69.5s37 120.833 37 223.5s-12.333 177.334 -37 224.001s-63.334 70 -116.001 70s-91.334 -23.167 -116.001 -69.5s-37 -120.833 -37 -223.5s12.333 -177.334 37 -224.001s63.334 -70 116.001 -70zM273 -11c-70 0 -123 29 -159 87
s-54 143.667 -54 257s18 198.833 54 256.5s89 86.5 159 86.5s123 -29 159 -87s54 -143.667 54 -257s-18 -198.833 -54 -256.5s-89 -86.5 -159 -86.5z" />
    <glyph glyph-name="one" unicode="1" horiz-adv-x="358" 
d="M197 0v602l-154 -100l-28 42l190 121h48v-665h-56z" />
    <glyph glyph-name="two" unicode="2" horiz-adv-x="465" 
d="M412 0l-381 -0.000976562v50l149.5 157c40.333 44 73 82.833 98 116.5s43 64.334 54 92.001s16.5 56.167 16.5 85.5c0 40 -12 70.833 -36 92.5s-54 32.5 -90 32.5c-33.333 0 -61.833 -7.66699 -85.5 -23s-47.167 -37.666 -70.5 -66.999l-42 30
c29.333 36.667 59.833 64.167 91.5 82.5s68.167 27.5 109.5 27.5c24.667 0 48.167 -3.83301 70.5 -11.5s41.833 -18.834 58.5 -33.501s30 -33 40 -55s15 -47 15 -75c0 -31.333 -6.33301 -62.333 -19 -93s-32 -63.5 -58 -98.5s-58.5 -73.333 -97.5 -115l-137.5 -142.5h322z
" />
    <glyph glyph-name="three" unicode="3" horiz-adv-x="481" 
d="M185 373l24.001 -0.000976562c18.667 0 36.5 2.83301 53.5 8.5s32.167 14 45.5 25s24 24.833 32 41.5s12 36.334 12 59.001c0 36 -11.5 65 -34.5 87s-54.5 33 -94.5 33c-30 0 -56.333 -4.66699 -79 -14s-45.667 -24.666 -69 -45.999l-32 37
c27.333 24.667 55.833 42.834 85.5 54.501s62.5 17.5 98.5 17.5c29.333 0 55.5 -4.5 78.5 -13.5s42.333 -21 58 -36s27.667 -32.5 36 -52.5s12.5 -40.667 12.5 -62c0 -41.333 -11.5 -74.833 -34.5 -100.5s-50.5 -44.5 -82.5 -56.5l4 -2c18.667 -4 36 -10.167 52 -18.5
s30 -19.333 42 -33s21.333 -29.834 28 -48.501s10 -40.334 10 -65.001c0 -28 -5.16699 -54.167 -15.5 -78.5s-24.833 -45.5 -43.5 -63.5s-41.334 -32 -68.001 -42s-56 -15 -88 -15c-76 0 -139.667 28.667 -191 86l40 34c21.333 -24.667 44.5 -42.5 69.5 -53.5
s52.167 -16.5 81.5 -16.5c50 0 88.167 13.833 114.5 41.5s39.5 63.5 39.5 107.5c0 48 -14.167 83 -42.5 105s-66.5 33 -114.5 33h-35z" />
    <glyph glyph-name="four" unicode="4" horiz-adv-x="502" 
d="M331 0v173h-286v46l199 457l48 -20l-187 -432h226l7 194h50v-194h89v-51h-89v-173h-57z" />
    <glyph glyph-name="five" unicode="5" horiz-adv-x="503" 
d="M416 615l-270.997 -0.00195312v-222c17.333 8.66699 35.5 15.5 54.5 20.5s39.167 7.5 60.5 7.5c28 0 53.5 -4.83301 76.5 -14.5s42.667 -23.334 59 -41.001s29.166 -39.167 38.499 -64.5s14 -53.666 14 -84.999c0 -33.333 -5.16699 -63.833 -15.5 -91.5
s-24.833 -51.5 -43.5 -71.5s-41.334 -35.667 -68.001 -47s-56.334 -17 -89.001 -17c-36.667 0 -70.667 6.5 -102 19.5s-59.666 34.5 -84.999 64.5l40 33c21.333 -24 44 -41.333 68 -52s50.333 -16 79 -16c24 0 45.667 4.16699 65 12.5s35.666 20.333 48.999 36
s23.666 34.334 30.999 56.001s11 45.834 11 72.501c0 28 -3.5 52 -10.5 72s-16.833 36.5 -29.5 49.5s-27.667 22.667 -45 29s-36.333 9.5 -57 9.5c-21.333 0 -40.666 -2.5 -57.999 -7.5s-35 -12.167 -53 -21.5h-45v319h334z" />
    <glyph glyph-name="six" unicode="6" horiz-adv-x="519" 
d="M302 627c-28.667 0 -54.0029 -6.99902 -76.0029 -20.999s-40.5 -33.833 -55.5 -59.5s-26.667 -56.5 -35 -92.5s-13.166 -75.667 -14.499 -119c20.667 32 44.334 56.333 71.001 73s57 25 91 25c24.667 0 47.834 -4.16699 69.501 -12.5s40.834 -21.166 57.501 -38.499
s29.834 -39 39.501 -65s14.5 -57 14.5 -93s-5.16699 -68.5 -15.5 -97.5s-24.333 -53.667 -42 -74s-38.5 -36 -62.5 -47s-49.667 -16.5 -77 -16.5c-38.667 0 -71.167 8.16699 -97.5 24.5s-47.666 38.166 -63.999 65.499s-28 59.166 -35 95.499s-10.5 74.166 -10.5 113.499
c0 63.333 5.83301 119.166 17.5 167.499s28.167 88.833 49.5 121.5s46.666 57.334 75.999 74.001s61.666 25 96.999 25c27.333 0 51.166 -3.66699 71.499 -11s40.166 -18.666 59.499 -33.999l-27 -40c-18 14 -34.667 23.5 -50 28.5s-32.666 7.5 -51.999 7.5z
M274.997 385.001c-32 0 -60.832 -10.333 -86.499 -31s-48.834 -47 -69.501 -79c1.33301 -76 13.833 -134.5 37.5 -175.5s60.5 -61.5 110.5 -61.5c44 0 77.833 16.833 101.5 50.5s35.5 78.167 35.5 133.5c0 58 -12 99.667 -36 125s-55 38 -93 38z" />
    <glyph glyph-name="seven" unicode="7" horiz-adv-x="407" 
d="M64 6l260 608h-314v51h372v-47l-264 -629z" />
    <glyph glyph-name="eight" unicode="8" horiz-adv-x="551" 
d="M467 513c0 -35.333 -9.50195 -65.8291 -28.502 -91.4961s-49.5 -49.167 -91.5 -70.5c50 -20 87.333 -43.833 112 -71.5s37 -61.834 37 -102.501c0 -27.333 -5.5 -52.5 -16.5 -75.5s-26.167 -42.833 -45.5 -59.5s-42.666 -29.667 -69.999 -39s-57.333 -14 -90 -14
c-34 0 -64.5 4.5 -91.5 13.5s-50 21.667 -69 38s-33.5 35.833 -43.5 58.5s-15 48 -15 76c0 42.667 12.833 79.167 38.5 109.5s60.834 54.833 105.501 73.5c-36 17.333 -64 38.166 -84 62.499s-30 55.5 -30 93.5c0 27.333 5.66699 51.166 17 71.499s26 37.166 44 50.499
s38.333 23.333 61 30s45.667 10 69 10c22.667 0 45.334 -3 68.001 -9s43.167 -15.5 61.5 -28.5s33.166 -29.833 44.499 -50.5s17 -45.667 17 -75zM434.998 174.004c0 21.333 -3.50098 39.5 -10.501 54.5s-18 28.5 -33 40.5s-34.667 23.333 -59 34s-53.5 22.667 -87.5 36
c-43.333 -17.333 -75.666 -40 -96.999 -68s-32 -60 -32 -96c0 -45.333 14.333 -79.333 43 -102s67.667 -34 117 -34c48 0 86.5 12 115.5 36s43.5 57 43.5 99zM142.997 513.004c0 -18 2.50195 -33.833 7.50195 -47.5s13.667 -26 26 -37s28.666 -21.333 48.999 -31
s46.166 -19.834 77.499 -30.501c37.333 20 64.333 41.333 81 64s25 49.334 25 80.001c0 39.333 -12.5 68.833 -37.5 88.5s-56.833 29.5 -95.5 29.5s-70.5 -9.33301 -95.5 -28s-37.5 -48 -37.5 -88z" />
    <glyph glyph-name="nine" unicode="9" horiz-adv-x="519" 
d="M89 30c46 14 87.667 30.1709 125 48.5039s69.5 40.166 96.5 65.499s48.333 54.666 64 87.999s24.5 71.666 26.5 114.999h-2c-19.333 -32.667 -43 -56.834 -71 -72.501s-59 -23.5 -93 -23.5c-24.667 0 -48 4.5 -70 13.5s-41.167 22.333 -57.5 40
s-29.166 39.5 -38.499 65.5s-14 56 -14 90s5.5 64.333 16.5 91s25.667 49.334 44 68.001s39.666 32.834 63.999 42.501s50.166 14.5 77.499 14.5c34 0 63.5 -6.33301 88.5 -19s46 -30.667 63 -54s29.667 -51.333 38 -84s12.5 -69 12.5 -109c0 -64 -7.5 -118.667 -22.5 -164
s-37.333 -84.333 -67 -117s-66.667 -60.334 -111 -83.001s-96.166 -43.334 -155.499 -62.001zM246 300.004c32 0 60.5 8.66602 85.5 25.999s47.833 43 68.5 77c-1.33301 74.667 -12.833 130.5 -34.5 167.5s-57.5 55.5 -107.5 55.5c-44 0 -79 -14 -105 -42
s-39 -69.667 -39 -125c0 -57.333 12 -98.166 36 -122.499s56 -36.5 96 -36.5z" />
    <glyph glyph-name="colon" unicode=":" horiz-adv-x="280" 
d="M92 426c0 13.333 4.33301 24.5 13 33.5s20.334 13.5 35.001 13.5c15.333 0 27.166 -4.5 35.499 -13.5s12.5 -20.167 12.5 -33.5s-4.16699 -24.5 -12.5 -33.5s-20.166 -13.5 -35.499 -13.5c-14.667 0 -26.334 4.5 -35.001 13.5s-13 20.167 -13 33.5zM92 36
c0 13.333 4.33301 24.5 13 33.5s20.334 13.5 35.001 13.5c15.333 0 27.166 -4.5 35.499 -13.5s12.5 -20.167 12.5 -33.5s-4.16699 -24.5 -12.5 -33.5s-20.166 -13.5 -35.499 -13.5c-14.667 0 -26.334 4.5 -35.001 13.5s-13 20.167 -13 33.5z" />
    <glyph glyph-name="semicolon" unicode=";" horiz-adv-x="280" 
d="M92 426c0 13.333 4.33301 24.5 13 33.5s20.334 13.5 35.001 13.5c15.333 0 27.166 -4.5 35.499 -13.5s12.5 -20.167 12.5 -33.5s-4.16699 -24.5 -12.5 -33.5s-20.166 -13.5 -35.499 -13.5c-14.667 0 -26.334 4.5 -35.001 13.5s-13 20.167 -13 33.5zM91 36
c0 13.333 4.50098 24.499 13.501 33.499s20.833 13.5 35.5 13.5c15.333 0 27.166 -4.5 35.499 -13.5s12.5 -20.167 12.5 -33.5c0 -9.33301 -1 -17.333 -3 -24s-6.33301 -16.667 -13 -30l-62 -133h-41l45 146c-15.333 8.66699 -23 22.334 -23 41.001z" />
    <glyph glyph-name="less" unicode="&#x3c;" horiz-adv-x="500" 
d="M70 308v50l347 165l22 -46l-309 -144l310 -142l-23 -48z" />
    <glyph glyph-name="equal" unicode="=" horiz-adv-x="500" 
d="M70 372v52h360v-52h-360zM70 198v52h360v-52h-360z" />
    <glyph glyph-name="greater" unicode="&#x3e;" horiz-adv-x="500" 
d="M83 143l-23 48l310 142l-309 144l22 46l347 -165v-50z" />
    <glyph glyph-name="question" unicode="?" horiz-adv-x="530" 
d="M247 195l-53.9961 0.00292969v75c0 29.333 4.33301 53.833 13 73.5s19.667 36.667 33 51s27.5 26.666 42.5 36.999s29.167 21.166 42.5 32.499s24.333 24 33 38s13 31.333 13 52c0 28 -10.667 50.5 -32 67.5s-49.333 25.5 -84 25.5c-26.667 0 -52.834 -6 -78.501 -18
s-49.5 -30.667 -71.5 -56l-39 30c52.667 62 117.667 93 195 93c28 0 52.5 -3.83301 73.5 -11.5s38.667 -18 53 -31s25.166 -27.833 32.499 -44.5s11 -34.334 11 -53.001c0 -26 -4.5 -47.833 -13.5 -65.5s-20.333 -33 -34 -46s-28.334 -25 -44.001 -36
s-30.334 -23 -44.001 -36s-25 -28.167 -34 -45.5s-13.5 -39 -13.5 -65v-67zM172.004 36.0029c0 13.333 4.33301 24.5 13 33.5s20.334 13.5 35.001 13.5c15.333 0 27.166 -4.5 35.499 -13.5s12.5 -20.167 12.5 -33.5s-4.16699 -24.5 -12.5 -33.5s-20.166 -13.5 -35.499 -13.5
c-14.667 0 -26.334 4.5 -35.001 13.5s-13 20.167 -13 33.5z" />
    <glyph glyph-name="at" unicode="@" horiz-adv-x="1020" 
d="M746 -168c-16 -6 -31.998 -11.167 -47.998 -15.5s-32.667 -8.16602 -50 -11.499s-35.666 -5.83301 -54.999 -7.5s-40.333 -2.5 -63 -2.5c-65.333 0 -125.333 10.167 -180 30.5s-101.667 49.666 -141 87.999s-69.833 85.166 -91.5 140.499s-32.5 118 -32.5 188
c0 62.667 10.667 121.5 32 176.5s51.666 103 90.999 144s87 73.5 143 97.5s118.667 36 188 36c65.333 0 122.666 -10.5 171.999 -31.5s90.666 -49.333 123.999 -85s58.333 -77 75 -124s25 -96.167 25 -147.5c0 -50 -4.66699 -93.333 -14 -130s-22 -67.167 -38 -91.5
s-34.833 -42.5 -56.5 -54.5s-45.167 -18 -70.5 -18c-18 0 -34.167 2.66699 -48.5 8s-26.5 12.5 -36.5 21.5s-18.167 19.167 -24.5 30.5s-10.5 23 -12.5 35h-4c-9.33301 -22.667 -25.333 -43 -48 -61s-53.667 -27 -93 -27c-24 0 -46.5 4.66699 -67.5 14s-39.333 23 -55 41
s-28 40.167 -37 66.5s-13.5 56.5 -13.5 90.5c0 42.667 6.5 79.167 19.5 109.5s29.833 55.333 50.5 75s43.667 34 69 43s50.666 13.5 75.999 13.5c14.667 0 28 -0.666992 40 -2s23.5 -3.33301 34.5 -6s21.833 -6.16699 32.5 -10.5s21.667 -9.16602 33 -14.499v-270
c0 -40 7.83301 -68.5 23.5 -85.5s35.834 -25.5 60.501 -25.5c16.667 0 32.334 4.16699 47.001 12.5s27.5 22 38.5 41s19.833 44.333 26.5 76s10 70.5 10 116.5c0 48 -7.5 92.833 -22.5 134.5s-37 77.667 -66 108s-64.5 54.333 -106.5 72s-89.667 26.5 -143 26.5
c-61.333 0 -116.5 -10.667 -165.5 -32s-90.5 -50.333 -124.5 -87s-60 -79.5 -78 -128.5s-27 -101.5 -27 -157.5c0 -59.333 9.16699 -113.333 27.5 -162s44.166 -90.5 77.499 -125.5s73.833 -62.167 121.5 -81.5s101.167 -29 160.5 -29c41.333 0 78.333 3.5 111 10.5
s62 15.167 88 24.5zM532.002 428c-21.333 0 -41.668 -4.16895 -61.001 -12.502s-36.166 -20.666 -50.499 -36.999s-25.833 -36.666 -34.5 -60.999s-13 -52.5 -13 -84.5c0 -56 11.667 -97.5 35 -124.5s53.333 -40.5 90 -40.5c18 0 33.667 3.16699 47 9.5s25 14 35 23
s18 18.5 24 28.5s10.333 18.667 13 26v256c-11.333 5.33301 -23.833 9.5 -37.5 12.5s-29.5 4.5 -47.5 4.5z" />
    <glyph glyph-name="A" unicode="A" horiz-adv-x="545" 
d="M414 185h-285l-59 -185h-60l225 685h75l225 -685h-62zM145 235h253l-125 397h-2z" />
    <glyph glyph-name="B" unicode="B" horiz-adv-x="605" 
d="M510 517c0 -22.667 -3 -42.666 -9 -59.999s-14.333 -32 -25 -44s-23.167 -21.833 -37.5 -29.5s-29.833 -13.5 -46.5 -17.5v-2c18.667 -3.33301 36.834 -8.5 54.501 -15.5s33.5 -17.167 47.5 -30.5s25.167 -30.166 33.5 -50.499s12.5 -44.833 12.5 -73.5
c0 -34.667 -6.5 -64.334 -19.5 -89.001s-31 -44.667 -54 -60s-50.333 -26.666 -82 -33.999s-65.834 -11 -102.501 -11h-172v685h160c32 0 62.5 -2.66699 91.5 -8s54.5 -14.333 76.5 -27s39.5 -29.834 52.5 -51.501s19.5 -48.834 19.5 -81.501zM169 337.001
l-0.000976562 -287h127c24 0 47 2.33301 69 7s41.333 12.5 58 23.5s30 25.5 40 43.5s15 40.667 15 68c0 26.667 -4 49.167 -12 67.5s-19.167 33.333 -33.5 45s-31.166 20 -50.499 25s-40.333 7.5 -63 7.5h-150zM168.999 386.001h138.999c46 0 81 11.167 105 33.5
s36 53.833 36 94.5c0 42 -14.167 72.667 -42.5 92s-69.166 29 -122.499 29h-115v-249z" />
    <glyph glyph-name="C" unicode="C" horiz-adv-x="556" 
d="M479 594c-20.667 17.333 -41.8291 30.167 -63.4961 38.5s-46.834 12.5 -75.501 12.5c-28 0 -54.667 -5.5 -80 -16.5s-47.5 -28.667 -66.5 -53s-34 -55.666 -45 -93.999s-16.5 -84.5 -16.5 -138.5c0 -52.667 5.5 -98 16.5 -136s26 -69.333 45 -94
s41.167 -42.834 66.5 -54.501s52.666 -17.5 81.999 -17.5c36 0 65.667 5.33301 89 16s44 23.667 62 39l33 -41c-21.333 -19.333 -47.333 -35.166 -78 -47.499s-67 -18.5 -109 -18.5c-38.667 0 -74.334 7.5 -107.001 22.5s-61 37.5 -85 67.5s-42.833 67 -56.5 111
s-20.5 95 -20.5 153s7 109.167 21 153.5s33.167 81.166 57.5 110.499s52.666 51.5 84.999 66.5s66.5 22.5 102.5 22.5c40.667 0 75 -5.5 103 -16.5s53.333 -25.833 76 -44.5z" />
    <glyph glyph-name="D" unicode="D" horiz-adv-x="637" 
d="M110 685l133.998 -0.00195312c41.333 0 81.333 -4.16699 120 -12.5s73 -24.666 103 -48.999s54.167 -58.5 72.5 -102.5s27.5 -101.667 27.5 -173s-9.66699 -129.666 -29 -174.999s-44.166 -80.833 -74.499 -106.5s-64.166 -43.167 -101.499 -52.5s-74.333 -14 -111 -14
h-141v685zM168.998 49.998h88c30.667 0 60.834 3.83301 90.501 11.5s56.167 22.5 79.5 44.5s42.166 52.333 56.499 91s21.5 89 21.5 151c0 63.333 -7.33301 114 -22 152s-33.834 67 -57.501 87s-50.667 33 -81 39s-61.166 9 -92.499 9h-83v-585z" />
    <glyph glyph-name="E" unicode="E" horiz-adv-x="514" 
d="M110 0v685h346l-7 -50h-280v-255h243v-50h-243v-280h295v-50h-354z" />
    <glyph glyph-name="F" unicode="F" horiz-adv-x="491" 
d="M444 635h-275v-267h238v-50h-238v-318h-59v685h341z" />
    <glyph glyph-name="G" unicode="G" horiz-adv-x="625" 
d="M507 591c-21.333 18.667 -44.165 32.3359 -68.498 41.0029s-52.5 13 -84.5 13c-28.667 0 -56.334 -5.66699 -83.001 -17s-50.334 -29 -71.001 -53s-37.167 -55.167 -49.5 -93.5s-18.5 -84.5 -18.5 -138.5c0 -52 5.16699 -97.167 15.5 -135.5s24.833 -69.833 43.5 -94.5
s41 -43 67 -55s55 -18 87 -18c30.667 0 58.334 3.16699 83.001 9.5s47.667 15.166 69 26.499v245h-140l-7 50h205v-326c-30 -17.333 -62.833 -31 -98.5 -41s-73.834 -15 -114.501 -15c-40 0 -76.667 7.33301 -110 22s-62 36.667 -86 66s-42.667 66.166 -56 110.499
s-20 96.166 -20 155.499c0 58.667 8 110 24 154s37.167 80.667 63.5 110s56.5 51.5 90.5 66.5s69 22.5 105 22.5c44 0 80.333 -5.66699 109 -17s55.667 -28.333 81 -51z" />
    <glyph glyph-name="H" unicode="H" horiz-adv-x="660" 
d="M491 0v336h-322v-336h-59v685h59v-299h322v299h59v-685h-59z" />
    <glyph glyph-name="I" unicode="I" horiz-adv-x="279" 
d="M169 685v-685h-59v685h59z" />
    <glyph glyph-name="J" unicode="J" horiz-adv-x="288" 
d="M5 -89c22 8.66699 40.167 18.1689 54.5 28.502s26 22.166 35 35.499s15.333 28.833 19 46.5s5.5 37.834 5.5 60.501v603h59v-601c0 -33.333 -3 -61.5 -9 -84.5s-15.333 -42.833 -28 -59.5s-29 -30.834 -49 -42.501s-43.667 -22.834 -71 -33.501z" />
    <glyph glyph-name="K" unicode="K" horiz-adv-x="545" 
d="M528 685l-284 -314l301 -371h-75l-297 368l283 317h72zM169 685v-685h-59v685h59z" />
    <glyph glyph-name="L" unicode="L" horiz-adv-x="475" 
d="M169 685v-631h286l-8 -54h-337v685h59z" />
    <glyph glyph-name="M" unicode="M" horiz-adv-x="779" 
d="M652 0l-35 347c-3.33301 30 -6 56.667 -8 80l-5.5 66l-5 61.5c-1.66699 20.333 -3.16699 42.5 -4.5 66.5h-2l-174 -540h-58l-178 540h-2c-2 -24 -3.66699 -46.167 -5 -66.5s-3 -40.833 -5 -61.5s-4 -42.667 -6 -66l-7 -80l-31 -347h-56l65 685h82l171 -531h4l168 531h83
l66 -685h-57z" />
    <glyph glyph-name="N" unicode="N" horiz-adv-x="672" 
d="M506 685h56v-685h-79l-323 619h-2c2.66699 -30.667 4.66699 -63.667 6 -99s2 -74 2 -116v-404h-56v685h78l324 -620h2c-2 30 -3.83301 62.833 -5.5 98.5s-2.5 74.5 -2.5 116.5v405z" />
    <glyph glyph-name="O" unicode="O" horiz-adv-x="683" 
d="M613 342c0 -56 -6.66699 -105.834 -20 -149.501s-31.833 -80.5 -55.5 -110.5s-52.167 -53 -85.5 -69s-70 -24 -110 -24s-76.667 7.66699 -110 23s-62 37.833 -86 67.5s-42.667 66.334 -56 110.001s-20 94.167 -20 151.5c0 56 6.66699 106 20 150s32 81.167 56 111.5
s52.667 53.5 86 69.5s70 24 110 24s76.667 -7.66699 110 -23s61.833 -38 85.5 -68s42.167 -67 55.5 -111s20 -94.667 20 -152zM342 39.999c31.333 0 59.834 6.16504 85.501 18.498s47.667 31 66 56s32.5 56.333 42.5 94s15 82.167 15 133.5
c0 102.667 -19.167 178.834 -57.5 228.501s-88.833 74.5 -151.5 74.5c-31.333 0 -60 -6.16699 -86 -18.5s-48.167 -31.166 -66.5 -56.499s-32.5 -57 -42.5 -95s-15 -82.667 -15 -134s5.16699 -96 15.5 -134s24.666 -69.333 42.999 -94s40.333 -43 66 -55
s54.167 -18 85.5 -18z" />
    <glyph glyph-name="P" unicode="P" horiz-adv-x="569" 
d="M169 267l0.000976562 -266.999h-59v685h156c84.667 0 149.667 -15.833 195 -47.5s68 -83.834 68 -156.501c0 -39.333 -6.33301 -72.5 -19 -99.5s-30.334 -49 -53.001 -66s-50.167 -29.333 -82.5 -37s-67.833 -11.5 -106.5 -11.5h-99zM169.001 317.001h104.001
c28.667 0 55 2.5 79 7.5s44.5 13.667 61.5 26s30.167 29 39.5 50s14 47.5 14 79.5c0 56 -17.333 95.833 -52 119.5s-82.334 35.5 -143.001 35.5h-103v-318z" />
    <glyph glyph-name="Q" unicode="Q" horiz-adv-x="683" 
d="M342 -9c-40 0 -76.668 7.49805 -110.001 22.498s-62 37.167 -86 66.5s-42.667 65.833 -56 109.5s-20 94.167 -20 151.5c0 56 6.66699 106 20 150s32 81.167 56 111.5s52.667 53.5 86 69.5s70 24 110 24s76.667 -7.66699 110 -23s61.833 -38 85.5 -68
s42.167 -67 55.5 -111s20 -94.667 20 -152c0 -84 -13.833 -152.333 -41.5 -205s-67.167 -90.667 -118.5 -114l1 -2c37.333 0 74.333 -5.16699 111 -15.5s67.667 -26.166 93 -47.499l-39 -51c-37.333 32.667 -77.666 54.834 -120.999 66.501s-95.333 17.5 -156 17.5z
M341.999 39.998c31.333 0 59.834 6.16504 85.501 18.498s47.667 31 66 56s32.5 56.333 42.5 94s15 82.167 15 133.5c0 102.667 -19.167 178.834 -57.5 228.501s-88.833 74.5 -151.5 74.5c-31.333 0 -60 -6.16699 -86 -18.5s-48.167 -31.166 -66.5 -56.499
s-32.5 -57 -42.5 -95s-15 -82.667 -15 -134s5.16699 -96 15.5 -134s24.666 -69.333 42.999 -94s40.333 -43 66 -55s54.167 -18 85.5 -18z" />
    <glyph glyph-name="R" unicode="R" horiz-adv-x="585" 
d="M293 308l-124 0.00195312v-308h-59v685h170c82.667 0 144.5 -15.167 185.5 -45.5s61.5 -77.166 61.5 -140.499c0 -29.333 -4.66699 -54.333 -14 -75s-21.833 -38.334 -37.5 -53.001s-34 -26.334 -55 -35.001s-43.167 -15.334 -66.5 -20.001l206 -316h-71zM169 357.002
h118c26 0 49.833 2.5 71.5 7.5s40.5 13 56.5 24s28.333 25.667 37 44s13 40.5 13 66.5c0 48.667 -14.833 83.5 -44.5 104.5s-75.5 31.5 -137.5 31.5h-114v-278z" />
    <glyph glyph-name="S" unicode="S" horiz-adv-x="543" 
d="M439 584c-24 21.333 -48.8291 36.8359 -74.4961 46.5029s-55.834 14.5 -90.501 14.5c-42.667 0 -78 -9.5 -106 -28.5s-42 -46.833 -42 -83.5c0 -18 2.83301 -33.667 8.5 -47s14.834 -25.333 27.501 -36s29.5 -20.5 50.5 -29.5s46.833 -18.167 77.5 -27.5
c30 -9.33301 57.833 -19.5 83.5 -30.5s47.667 -24.167 66 -39.5s32.666 -33.833 42.999 -55.5s15.5 -47.834 15.5 -78.501c0 -30 -5.33301 -57.167 -16 -81.5s-26.167 -45.333 -46.5 -63s-45.166 -31.334 -74.499 -41.001s-62.333 -14.5 -99 -14.5
c-48 0 -90.833 7.16699 -128.5 21.5s-70.5 34.833 -98.5 61.5l35 41c25.333 -22.667 53.666 -40.5 84.999 -53.5s67 -19.5 107 -19.5c52 0 94 12.667 126 38s48 61.666 48 108.999c0 21.333 -3.33301 39.666 -10 54.999s-16.834 28.833 -30.501 40.5
s-31.334 22.167 -53.001 31.5s-47.5 18.666 -77.5 27.999c-34.667 10.667 -64.5 21.834 -89.5 33.501s-45.667 24.834 -62 39.501s-28.5 31.334 -36.5 50.001s-12 40.667 -12 66c0 24.667 5 47.167 15 67.5s24.167 37.666 42.5 51.999s40.166 25.5 65.499 33.5
s53.333 12 84 12c46.667 0 85.667 -6.66699 117 -20s60 -31 86 -53z" />
    <glyph glyph-name="T" unicode="T" horiz-adv-x="499" 
d="M222 0v633h-202v52h464l-7 -52h-196v-633h-59z" />
    <glyph glyph-name="U" unicode="U" horiz-adv-x="652" 
d="M159 685v-464c0 -120.667 55.667 -181 167 -181s167 60.333 167 181v464h59v-467c0 -71.333 -19.333 -127.333 -58 -168s-94.667 -61 -168 -61s-129.333 20 -168 60s-58 96.333 -58 169v467h59z" />
    <glyph glyph-name="V" unicode="V" horiz-adv-x="544" 
d="M529 685l-223 -685h-66l-225 685h64l193 -620h2l193 620h62z" />
    <glyph glyph-name="W" unicode="W" horiz-adv-x="796" 
d="M584 64h2l129 621h56l-149 -685h-74l-150 610h-2l-150 -610h-72l-149 685h59l127 -621h2l152 621h65z" />
    <glyph glyph-name="X" unicode="X" horiz-adv-x="519" 
d="M259 409l161 276h66l-193 -314l221 -371h-70l-186 328h-2l-184 -328h-67l217 368l-190 317h70l155 -276h2z" />
    <glyph glyph-name="Y" unicode="Y" horiz-adv-x="517" 
d="M512 685l-223 -408v-277h-59v276l-225 409h67l187 -354h2l188 354h63z" />
    <glyph glyph-name="Z" unicode="Z" horiz-adv-x="510" 
d="M451 0h-416v49l365 585h-328v51h393v-49l-364 -584h357z" />
    <glyph glyph-name="bracketleft" unicode="[" horiz-adv-x="325" 
d="M90 -101v896h165v-44h-113v-808h113v-44h-165z" />
    <glyph glyph-name="backslash" unicode="\" horiz-adv-x="520" 
d="M400 -95l-49 -12l-231 899l49 12z" />
    <glyph glyph-name="bracketright" unicode="]" horiz-adv-x="325" 
d="M235 795v-896h-165v44h113v808h-113v44h165z" />
    <glyph glyph-name="asciicircum" unicode="^" horiz-adv-x="520" 
d="M284 832l191 -305h-64l-151 249l-151 -249h-64l191 305h48z" />
    <glyph glyph-name="underscore" unicode="_" horiz-adv-x="520" 
d="M40 -117v52h440v-52h-440z" />
    <glyph glyph-name="grave" unicode="`" horiz-adv-x="274" 
d="M224 617l-194 87l32 52l182 -105z" />
    <glyph glyph-name="a" unicode="a" horiz-adv-x="521" 
d="M371 78c-18.667 -31.333 -42.334 -54.002 -71.001 -68.002s-60 -21 -94 -21c-50.667 0 -90.167 14.333 -118.5 43s-42.5 66.667 -42.5 114c0 54.667 20.5 96 61.5 124s96.833 42 167.5 42h90v52c0 41.333 -9.66699 71.833 -29 91.5s-51.333 29.5 -96 29.5
c-19.333 0 -40.5 -2 -63.5 -6s-48.833 -11.667 -77.5 -23l-16 45c32 12.667 61.333 21.334 88 26.001s52.334 7 77.001 7c62 0 106.5 -14.667 133.5 -44s40.5 -70.333 40.5 -123v-253c0 -28.667 4.16699 -48.667 12.5 -60s20.833 -19.666 37.5 -24.999l-13 -40
c-23.333 4 -42.333 12.167 -57 24.5s-24.667 33.5 -30 63.5v1zM364 266.998h-87c-56.667 0 -99.334 -9.66699 -128.001 -29s-43 -49 -43 -89c0 -36 9.83301 -63.5 29.5 -82.5s47.834 -28.5 84.501 -28.5c32.667 0 61.167 8.66699 85.5 26s43.833 40.333 58.5 69v134z" />
    <glyph glyph-name="b" unicode="b" horiz-adv-x="580" 
d="M160 0l-50 -0.00195312v736l57 7v-301c19.333 29.333 42.166 52 68.499 68s56.833 24 91.5 24c32 0 59.833 -6.16699 83.5 -18.5s43.334 -30.166 59.001 -53.499s27.167 -51.666 34.5 -84.999s11 -71 11 -113c0 -41.333 -4.5 -78.833 -13.5 -112.5
s-22.167 -62.5 -39.5 -86.5s-38.5 -42.667 -63.5 -56s-53.5 -20 -85.5 -20s-60 6.5 -84 19.5s-45.667 33.833 -65 62.5zM316 484.998c-33.333 0 -62.168 -10.333 -86.501 -31s-45.166 -45.667 -62.499 -75v-250c16 -26 35.5 -47.5 58.5 -64.5s49.167 -25.5 78.5 -25.5
c48 0 85 18.5 111 55.5s39 93.5 39 169.5c0 147.333 -46 221 -138 221z" />
    <glyph glyph-name="c" unicode="c" horiz-adv-x="479" 
d="M414 441c-19.333 15.333 -39.166 26.501 -59.499 33.501s-42.5 10.5 -66.5 10.5c-48 0 -87 -18.667 -117 -56s-45 -94 -45 -170c0 -75.333 15 -131 45 -167s69 -54 117 -54c24 0 46.167 3.5 66.5 10.5s40.833 18.833 61.5 35.5l28 -40c-22 -18 -46.667 -31.667 -74 -41
s-56 -14 -86 -14c-34 0 -64.5 6.16699 -91.5 18.5s-50 30.166 -69 53.499s-33.5 51.666 -43.5 84.999s-15 71 -15 113c0 41.333 5.16699 78.833 15.5 112.5s25.333 62.5 45 86.5s43.167 42.667 70.5 56s58 20 92 20c30 0 57.667 -4.16699 83 -12.5
s49.666 -22.166 72.999 -41.499z" />
    <glyph glyph-name="d" unicode="d" horiz-adv-x="583" 
d="M416 743l57 -6.99902v-736h-50l-7 79c-22.667 -33.333 -46.667 -56.666 -72 -69.999s-54 -20 -86 -20s-60 6.33301 -84 19s-44.167 30.667 -60.5 54s-28.5 51.666 -36.5 84.999s-12 70.666 -12 111.999s4.83301 78.833 14.5 112.5s23.167 62.5 40.5 86.5
s38.5 42.667 63.5 56s52.833 20 83.5 20c34 0 62.667 -6.16699 86 -18.5s44.333 -30.833 63 -55.5v283zM416 396.001c-16.667 28 -36.333 49.833 -59 65.5s-49 23.5 -79 23.5c-47.333 0 -84.5 -19 -111.5 -57s-40.5 -94.333 -40.5 -169c0 -72.667 12.333 -127.5 37 -164.5
s59.667 -55.5 105 -55.5c33.333 0 62 9.33301 86 28s44.667 43 62 73v256z" />
    <glyph glyph-name="e" unicode="e" horiz-adv-x="538" 
d="M124 239c2 -35.333 7.5 -65.4971 16.5 -90.4971s21 -45.833 36 -62.5s32.333 -28.834 52 -36.501s40.5 -11.5 62.5 -11.5c28 0 53 4 75 12s44 21.667 66 41l27 -39c-46 -42 -102.667 -63 -170 -63c-36 0 -67.833 6.33301 -95.5 19s-51 30.667 -70 54
s-33.5 51.666 -43.5 84.999s-15 70.666 -15 111.999s4.83301 78.833 14.5 112.5s23.667 62.5 42 86.5s40.5 42.667 66.5 56s55.333 20 88 20c65.333 0 115.333 -22.833 150 -68.5s52 -108.5 52 -188.5c0 -6 -0.166992 -12.5 -0.5 -19.5s-0.833008 -13.167 -1.5 -18.5h-352z
M276 485.003c-42 0 -77 -16.001 -105 -48.001s-43.667 -83 -47 -153h297c-1.33301 64.667 -14 114.334 -38 149.001s-59.667 52 -107 52z" />
    <glyph glyph-name="f" unicode="f" horiz-adv-x="328" 
d="M25 523h96.9971v89c0 40 12.167 71.833 36.5 95.5s60.5 35.5 108.5 35.5c22.667 0 43.834 -2.33301 63.501 -7s38.834 -11.667 57.501 -21l-19 -44c-18 8.66699 -35.167 14.667 -51.5 18s-32.166 5 -47.499 5c-33.333 0 -56.833 -7 -70.5 -21s-20.5 -35.333 -20.5 -64
v-86h138l-7 -47h-131v-476h-57v476h-97v47z" />
    <glyph glyph-name="g" unicode="g" horiz-adv-x="508" 
d="M87 -61c0 -34.667 12.3281 -59.6729 36.9951 -75.0059s66 -23 124 -23c54 0 94.833 8.5 122.5 25.5s41.5 42.5 41.5 76.5c0 27.333 -9.5 48.5 -28.5 63.5s-46.167 22.5 -81.5 22.5h-80c-47.333 0 -82.166 10 -104.499 30s-33.5 43.667 -33.5 71
c0 15.333 4.5 30.166 13.5 44.499s22.167 27.166 39.5 38.499c-24 14 -43.333 33 -58 57s-22 53 -22 87c0 25.333 4.33301 48.833 13 70.5s21.167 40.334 37.5 56.001s36.333 28 60 37s50.167 13.5 79.5 13.5c31.333 0 58.666 0.833008 81.999 2.5s43.833 4 61.5 7
s33.334 6.66699 47.001 11s26.5 9.16602 38.5 14.499l17 -54c-19.333 -6.66699 -39.666 -11 -60.999 -13s-47 -3 -77 -3c24.667 -12 44.667 -29.667 60 -53s23 -52.666 23 -87.999c0 -53.333 -17.167 -95.833 -51.5 -127.5s-80.166 -47.5 -137.499 -47.5
c-13.333 0 -26 1.16699 -38 3.5s-23.667 5.5 -35 9.5c-10 -7.33301 -18.667 -16.666 -26 -27.999s-11 -21.666 -11 -30.999c0 -16 5.83301 -29.333 17.5 -40s34.5 -16 68.5 -16h82c28 0 52.333 -3.66699 73 -11s37.834 -17.166 51.501 -29.499
s23.834 -26.666 30.501 -42.999s10 -33.166 10 -50.499c0 -51.333 -20.167 -89.5 -60.5 -114.5s-94.833 -37.5 -163.5 -37.5c-30 0 -58 2 -84 6s-48.5 11.333 -67.5 22s-34 25.334 -45 44.001s-16.5 42.334 -16.5 71.001zM379.995 356.994c0 42 -10.832 74.5 -32.499 97.5
s-54.834 34.5 -99.501 34.5c-42.667 0 -75.5 -12 -98.5 -36s-34.5 -56 -34.5 -96s11.667 -71.5 35 -94.5s56 -34.5 98 -34.5s74.5 11 97.5 33s34.5 54 34.5 96z" />
    <glyph glyph-name="h" unicode="h" horiz-adv-x="581" 
d="M167 0l-57 0.000976562v736l57 7v-303c20.667 30 45.167 53.167 73.5 69.5s60.5 24.5 96.5 24.5c50 0 85.667 -13.667 107 -41s32 -66.666 32 -117.999v-375h-57v359c0 45.333 -7.33301 77.833 -22 97.5s-39.667 29.5 -75 29.5c-16.667 0 -32.5 -3.16699 -47.5 -9.5
s-29 -14.833 -42 -25.5s-25 -22.834 -36 -36.501s-20.833 -27.834 -29.5 -42.501v-372z" />
    <glyph glyph-name="i" unicode="i" horiz-adv-x="267" 
d="M162 523v-523h-57v523h57zM133 641c-13.333 0 -23.833 4 -31.5 12s-11.5 18 -11.5 30s3.83301 22 11.5 30s18.167 12 31.5 12s23.833 -4 31.5 -12s11.5 -18 11.5 -30s-3.83301 -22 -11.5 -30s-18.167 -12 -31.5 -12z" />
    <glyph glyph-name="j" unicode="j" horiz-adv-x="267" 
d="M133 641c-13.333 0 -23.833 4 -31.5 12s-11.5 18 -11.5 30s3.83301 22 11.5 30s18.167 12 31.5 12s23.833 -4 31.5 -12s11.5 -18 11.5 -30s-3.83301 -22 -11.5 -30s-18.167 -12 -31.5 -12zM162 523v-503c0 -36 -3.16699 -65.667 -9.5 -89s-15.5 -43 -27.5 -59
s-27 -29.667 -45 -41s-39 -23 -63 -35l-22 44c18.667 9.33301 35 18.666 49 27.999s25.5 20.333 34.5 33s15.667 28.334 20 47.001s6.5 42 6.5 70v505h57z" />
    <glyph glyph-name="k" unicode="k" horiz-adv-x="483" 
d="M458 523l-219 -235l244 -288h-71l-239 286l215 237h70zM167 743v-743h-57v736z" />
    <glyph glyph-name="l" unicode="l" horiz-adv-x="271" 
d="M157 743v-655c0 -33.333 13.667 -50 41 -50c7.33301 0 14 0.666992 20 2s11.667 3 17 5l16 -41c-18 -10 -39 -15 -63 -15c-25.333 0 -46.333 7.16699 -63 21.5s-25 39.5 -25 75.5v650z" />
    <glyph glyph-name="m" unicode="m" horiz-adv-x="860" 
d="M461 0l-56.9902 -0.000976562v365c0 42.667 -7.33301 73.5 -22 92.5s-37.334 28.5 -68.001 28.5c-15.333 0 -29.833 -3.16699 -43.5 -9.5s-26.834 -14.833 -39.501 -25.5s-24.334 -22.667 -35.001 -36s-20.334 -27 -29.001 -41v-374h-57v523h49l4 -89
c21.333 32 45.666 56.667 72.999 74s58 26 92 26c37.333 0 66.166 -8.66699 86.499 -26s33.833 -42 40.5 -74c45.333 66.667 101 100 167 100c48 0 82.167 -13.667 102.5 -41s30.5 -66.666 30.5 -117.999v-375h-57v365c0 42.667 -7.33301 73.5 -22 92.5
s-37.334 28.5 -68.001 28.5c-15.333 0 -29.833 -3.16699 -43.5 -9.5s-26.834 -14.833 -39.501 -25.5s-24.334 -22.667 -35.001 -36s-20.334 -27 -29.001 -41v-374z" />
    <glyph glyph-name="n" unicode="n" horiz-adv-x="581" 
d="M163 434c21.333 32 46.5 56.666 75.5 73.999s61.833 26 98.5 26c50 0 85.667 -13.667 107 -41s32 -66.666 32 -117.999v-375h-57v365c0 42.667 -7.66699 73.5 -23 92.5s-40 28.5 -74 28.5c-16.667 0 -32.5 -3.16699 -47.5 -9.5s-29 -14.833 -42 -25.5
s-25 -22.667 -36 -36s-20.833 -27 -29.5 -41v-374h-57v523h49z" />
    <glyph glyph-name="o" unicode="o" horiz-adv-x="572" 
d="M65 261c0 42 5.16895 79.832 15.502 113.499s25.166 62.334 44.499 86.001s42.666 41.834 69.999 54.501s58.333 19 93 19c34 0 64.667 -6.16699 92 -18.5s50.333 -30.333 69 -54s33 -52.167 43 -85.5s15 -71 15 -113s-5.16699 -79.833 -15.5 -113.5
s-25 -62.334 -44 -86.001s-42.167 -42 -69.5 -55s-58.333 -19.5 -93 -19.5s-65.5 6.33301 -92.5 19s-50 30.667 -69 54s-33.5 51.833 -43.5 85.5s-15 71.5 -15 113.5zM288.002 485.999c-50.667 0 -90.333 -18.668 -119 -56.001s-43 -93.666 -43 -168.999
c0 -74 14 -129.833 42 -167.5s67 -56.5 117 -56.5c50.667 0 90.167 18.833 118.5 56.5s42.5 94.167 42.5 169.5c0 74 -13.833 129.667 -41.5 167s-66.5 56 -116.5 56z" />
    <glyph glyph-name="p" unicode="p" horiz-adv-x="580" 
d="M163 437c21.333 32 45.667 56.165 73 72.498s58.333 24.5 93 24.5c32 0 59.833 -6.16699 83.5 -18.5s43 -30.166 58 -53.499s26.167 -51.666 33.5 -84.999s11 -71 11 -113c0 -41.333 -4.33301 -78.833 -13 -112.5s-21.5 -62.5 -38.5 -86.5s-37.667 -42.667 -62 -56
s-52.5 -20 -84.5 -20c-30.667 0 -58.5 6 -83.5 18s-47.167 31.667 -66.5 59v-263l-57 -8v728h49zM167.001 128.998c16 -26 36.168 -47.5 60.501 -64.5s51.166 -25.5 80.499 -25.5c97.333 0 146 75 146 225c0 74.667 -11 130.167 -33 166.5s-56.333 54.5 -103 54.5
c-33.333 0 -62.5 -10.333 -87.5 -31s-46.167 -45.667 -63.5 -75v-250z" />
    <glyph glyph-name="q" unicode="q" horiz-adv-x="583" 
d="M423 523l50 0.000976562v-728l-57 8v276c-22.667 -33.333 -46.667 -56.666 -72 -69.999s-54 -20 -86 -20s-60 6.33301 -84 19s-44 30.667 -60 54s-28.167 51.666 -36.5 84.999s-12.5 70.666 -12.5 111.999s4.83301 78.833 14.5 112.5s23.167 62.5 40.5 86.5
s38.5 42.667 63.5 56s52.833 20 83.5 20c34 0 62.667 -6.16699 86 -18.5s44.333 -30.833 63 -55.5zM416 396.001c-16.667 28 -36.333 49.833 -59 65.5s-49 23.5 -79 23.5c-46.667 0 -83.667 -19 -111 -57s-41 -94.333 -41 -169c0 -72.667 12.5 -127.5 37.5 -164.5
s59.833 -55.5 104.5 -55.5c33.333 0 62 9.33301 86 28s44.667 43 62 73v256z" />
    <glyph glyph-name="r" unicode="r" horiz-adv-x="369" 
d="M165 408c15.333 44.667 35.167 76.833 59.5 96.5s54.5 29.5 90.5 29.5c18.667 0 35 -2 49 -6l-11 -57c-14 4 -29.333 6 -46 6c-34 0 -62.333 -14 -85 -42s-41 -65 -55 -111v-324h-57v523h49z" />
    <glyph glyph-name="s" unicode="s" horiz-adv-x="458" 
d="M367 448c-18.667 12 -38.168 21.335 -58.501 28.002s-44.5 10 -72.5 10c-36.667 0 -65.834 -7.5 -87.501 -22.5s-32.5 -35.167 -32.5 -60.5c0 -28.667 9.66699 -50.5 29 -65.5s52.333 -28.5 99 -40.5c26.667 -7.33301 50.5 -15.333 71.5 -24s38.667 -19.167 53 -31.5
s25.333 -26.833 33 -43.5s11.5 -36.334 11.5 -59.001c0 -26 -5.5 -48.333 -16.5 -67s-25.5 -34.167 -43.5 -46.5s-38.833 -21.5 -62.5 -27.5s-48.167 -9 -73.5 -9c-39.333 0 -75 6 -107 18s-58.667 27.333 -80 46l32 39c20.667 -16.667 44 -30 70 -40s54.333 -15 85 -15
c40 0 72.5 8.16699 97.5 24.5s37.5 40.5 37.5 72.5c0 16 -2.16699 29.667 -6.5 41s-11.666 21.5 -21.999 30.5s-24.5 17 -42.5 24s-40.667 14.167 -68 21.5c-50 13.333 -88.5 31.166 -115.5 53.499s-40.5 53.833 -40.5 94.5c0 20 4.33301 38.333 13 55s21 31 37 43
s35 21.167 57 27.5s46.333 9.5 73 9.5c32.667 0 61.834 -4 87.501 -12s48.5 -18.667 68.5 -32z" />
    <glyph glyph-name="t" unicode="t" horiz-adv-x="365" 
d="M25 523l97.001 0.00195312v125l57 7v-132h137l-6 -44h-131v-346c0 -32.667 6.16699 -56.667 18.5 -72s32.5 -23 60.5 -23c13.333 0 26.5 2.16699 39.5 6.5s26.167 10.166 39.5 17.499l23 -40c-15.333 -10.667 -32.333 -18.834 -51 -24.501s-38.334 -8.5 -59.001 -8.5
c-42.667 0 -74.667 12.333 -96 37s-32 59 -32 103v350h-97v44z" />
    <glyph glyph-name="u" unicode="u" horiz-adv-x="575" 
d="M412 89c-21.333 -32 -45.833 -56.667 -73.5 -74s-59.167 -26 -94.5 -26c-48 0 -83.167 13.5 -105.5 40.5s-33.5 66.167 -33.5 117.5v376h57v-369c0 -42 7.66699 -72 23 -90s38.333 -27 69 -27c16 0 31.5 3.16699 46.5 9.5s29 14.833 42 25.5s25 22.667 36 36
s20.833 27 29.5 41v374h57v-523h-49z" />
    <glyph glyph-name="v" unicode="v" horiz-adv-x="468" 
d="M77 523l159 -470h2l155 470h60l-184 -523h-67l-187 523h62z" />
    <glyph glyph-name="w" unicode="w" horiz-adv-x="700" 
d="M675 523l-128 -523h-79l-116 463h-2l-118 -463h-77l-130 523h59l109 -474h2l125 474h65l121 -473h2l110 473h57z" />
    <glyph glyph-name="x" unicode="x" horiz-adv-x="457" 
d="M226 241l-148 -241h-68l184 279l-160 244h69l125 -206h2l127 206h67l-161 -242l184 -281h-69l-149 241h-3z" />
    <glyph glyph-name="y" unicode="y" horiz-adv-x="466" 
d="M78 523l160.999 -477.001h2l149 477h61l-176 -525c-9.33301 -28 -19.666 -53.333 -30.999 -76s-25.333 -42.667 -42 -60s-36.667 -31.666 -60 -42.999s-51.333 -19.333 -84 -24l-8 47c26 4.66699 48.167 11.5 66.5 20.5s34 20 47 33s24 28.167 33 45.5s17.167 37 24.5 59
h-20l-186 523h63z" />
    <glyph glyph-name="z" unicode="z" horiz-adv-x="425" 
d="M381 0h-351v44l293 430h-269v49h336v-44l-292 -430h290z" />
    <glyph glyph-name="braceleft" unicode="{" horiz-adv-x="325" 
d="M173 12c0 -28 6.83301 -46.501 20.5 -55.501s35.834 -13.5 66.501 -13.5v-44c-21.333 0 -40.666 1.66699 -57.999 5s-32 9.33301 -44 18s-21.167 20.167 -27.5 34.5s-9.5 32.5 -9.5 54.5v234c0 28 -6.83301 48.167 -20.5 60.5s-32.167 18.5 -55.5 18.5v51
c26 0 45.167 6.16699 57.5 18.5s18.5 33.5 18.5 63.5v231c0 22 3.16699 40.167 9.5 54.5s15.5 25.833 27.5 34.5s26.667 14.667 44 18s36.666 5 57.999 5v-44c-30.667 0 -52.834 -4.5 -66.501 -13.5s-20.5 -27.5 -20.5 -55.5v-232c0 -25.333 -4.33301 -47 -13 -65
s-27.667 -31 -57 -39v-3c23.333 -5.33301 40.833 -16.166 52.5 -32.499s17.5 -39.5 17.5 -69.5v-234z" />
    <glyph glyph-name="bar" unicode="|" horiz-adv-x="380" 
d="M165 801h50v-902h-50v902z" />
    <glyph glyph-name="braceright" unicode="}" horiz-adv-x="325" 
d="M152 246c0 30 5.83301 53.168 17.5 69.501s29.167 27.166 52.5 32.499v3c-29.333 8 -48.333 21 -57 39s-13 39.667 -13 65v232c0 28 -6.83301 46.5 -20.5 55.5s-35.834 13.5 -66.501 13.5v44c21.333 0 40.666 -1.66699 57.999 -5s32 -9.33301 44 -18
s21.167 -20.167 27.5 -34.5s9.5 -32.5 9.5 -54.5v-231c0 -30 6.16699 -51.167 18.5 -63.5s31.5 -18.5 57.5 -18.5v-51c-23.333 0 -41.833 -6.16699 -55.5 -18.5s-20.5 -32.5 -20.5 -60.5v-234c0 -22 -3.16699 -40.167 -9.5 -54.5s-15.5 -25.833 -27.5 -34.5
s-26.667 -14.667 -44 -18s-36.666 -5 -57.999 -5v44c30.667 0 52.834 4.5 66.501 13.5s20.5 27.5 20.5 55.5v234z" />
    <glyph glyph-name="asciitilde" unicode="~" horiz-adv-x="500" 
d="M326 270c-14 0 -28.0029 2.33301 -42.0029 7s-27.667 9.83398 -41 15.501l-37.5 15.5c-11.667 4.66699 -22.5 7 -32.5 7c-32 0 -57.333 -14.667 -76 -44l-37 23c12.667 23.333 29.334 41.166 50.001 53.499s42.334 18.5 65.001 18.5c14.667 0 28.834 -2.33301 42.501 -7
s27 -9.83398 40 -15.501l36.5 -15.5c11.333 -4.66699 22 -7 32 -7c15.333 0 29.5 3.83301 42.5 11.5s24.167 18.5 33.5 32.5l38 -26c-13.333 -23.333 -29.833 -40.666 -49.5 -51.999s-41.167 -17 -64.5 -17z" />
    <glyph glyph-name="uni008E" horiz-adv-x="510" 
d="M451 0h-416v49l365 585h-328v51h393v-49l-364 -584h357zM265 812l118 75l26 -30l-129 -98h-30l-130 98l27 30z" />
    <glyph glyph-name="uni009E" horiz-adv-x="425" 
d="M381 0h-351v44l293 430h-269v49h336v-44l-292 -430h290zM223 672l118 85l26 -30l-129 -108h-30l-130 108l27 30z" />
    <glyph glyph-name="uni00A0" unicode="&#xa0;" horiz-adv-x="280" 
 />
    <glyph glyph-name="exclamdown" unicode="&#xa1;" horiz-adv-x="280" 
d="M163 267l10 -464h-66l10 464h46zM188 426c0 -13.333 -4.33301 -24.5 -13 -33.5s-20.334 -13.5 -35.001 -13.5c-15.333 0 -27.166 4.5 -35.499 13.5s-12.5 20.167 -12.5 33.5s4.16699 24.5 12.5 33.5s20.166 13.5 35.499 13.5c14.667 0 26.334 -4.5 35.001 -13.5
s13 -20.167 13 -33.5z" />
    <glyph glyph-name="cent" unicode="&#xa2;" horiz-adv-x="500" 
d="M407 441c-19.333 16 -39.001 27.3301 -59.001 33.9971s-42 10 -66 10c-48.667 0 -87.167 -18.667 -115.5 -56s-42.5 -94 -42.5 -170c0 -74 14.833 -129.333 44.5 -166s67.834 -55 114.501 -55c24 0 45.833 3.5 65.5 10.5s39.834 19.167 60.501 36.5l28 -41
c-18.667 -16 -38.834 -28.167 -60.501 -36.5s-44.167 -13.833 -67.5 -16.5v-141h-49v140c-62.667 4.66699 -111.167 30.834 -145.5 78.501s-51.5 111.167 -51.5 190.5c0 38.667 4.33301 74.334 13 107.001s21.5 60.834 38.5 84.501s37.833 42.667 62.5 57
s52.667 22.833 84 25.5v147h48v-147c24 -2.66699 46.667 -8.16699 68 -16.5s41.333 -20.5 60 -36.5z" />
    <glyph glyph-name="sterling" unicode="&#xa3;" horiz-adv-x="500" 
d="M176 379l190.005 0.00195312v-47h-190v-151c0 -18 -1.16699 -33.667 -3.5 -47s-6 -24.666 -11 -33.999s-11 -17.666 -18 -24.999s-15.167 -14 -24.5 -20v-3h306l-7 -52h-369v50c26 15.333 44.167 31.166 54.5 47.499s15.5 39.166 15.5 68.499v166h-65v47h65v132
c0 25.333 4.16699 48.166 12.5 68.499s20.166 37.666 35.499 51.999s33.666 25.333 54.999 33s44.666 11.5 69.999 11.5c32 0 60.667 -6.33301 86 -19s48.666 -30.667 69.999 -54l-39 -31c-16 17.333 -33.333 30.833 -52 40.5s-40.334 14.5 -65.001 14.5
c-32 0 -59.333 -9.33301 -82 -28s-34 -48 -34 -88v-132z" />
    <glyph glyph-name="currency" unicode="&#xa4;" horiz-adv-x="500" 
d="M251 153c-42.667 0 -79.667 11 -111 33l-83 -83l-36 36l83 83c-26 33.333 -39 73 -39 119c0 23.333 3.33301 45 10 65s16 37.667 28 53l-82 83l36 36l83 -83c30.667 22.667 67.667 34 111 34c21.333 0 41 -3 59 -9s34.667 -14.333 50 -25l82 82l37 -35l-81 -82
c26 -33.333 39 -73 39 -119c0 -24 -3.5 -46.167 -10.5 -66.5s-16.833 -38.5 -29.5 -54.5l82 -80l-37 -36l-83 81c-15.333 -10 -32 -17.833 -50 -23.5s-37.333 -8.5 -58 -8.5zM251 200c41.333 0 73.166 12.833 95.499 38.5s33.5 59.834 33.5 102.501
s-11.167 76.834 -33.5 102.501s-54.166 38.5 -95.499 38.5s-73.166 -12.833 -95.499 -38.5s-33.5 -59.834 -33.5 -102.501s11.167 -76.834 33.5 -102.501s54.166 -38.5 95.499 -38.5z" />
    <glyph glyph-name="yen" unicode="&#xa5;" horiz-adv-x="500" 
d="M221 211v88h-131v47h108l-187 319h67l172 -311h3l172 311h64l-188 -319h109v-47h-131v-88h131v-47h-131v-164h-58v164h-131v47h131z" />
    <glyph glyph-name="brokenbar" unicode="&#xa6;" horiz-adv-x="380" 
d="M165 445v356h50v-356h-50zM165 254h50v-355h-50v355z" />
    <glyph glyph-name="section" unicode="&#xa7;" horiz-adv-x="500" 
d="M65 322c0 23.333 6.66895 44.9971 20.002 64.9971s32.666 38 57.999 54c-19.333 14 -32.666 28.333 -39.999 43s-11 31 -11 49c0 21.333 4.5 40.333 13.5 57s21.167 30.5 36.5 41.5s33.166 19.333 53.499 25s42.166 8.5 65.499 8.5c36 0 67.333 -4.5 94 -13.5
s52 -22.167 76 -39.5l-32 -39c-23.333 16.667 -45.833 28.167 -67.5 34.5s-45.167 9.5 -70.5 9.5c-34.667 0 -61.834 -7.16699 -81.501 -21.5s-29.5 -33.166 -29.5 -56.499c0 -14 1.83301 -25.5 5.5 -34.5s10.667 -17.333 21 -25s24.833 -15.5 43.5 -23.5l72 -30
c48 -19.333 84.167 -39.833 108.5 -61.5s36.5 -51.5 36.5 -89.5c0 -23.333 -6.66699 -45.166 -20 -65.499s-32.333 -38.5 -57 -54.5c18.667 -13.333 31.667 -27.166 39 -41.499s11 -31.166 11 -50.499c0 -22 -4.66699 -41.167 -14 -57.5s-22 -30 -38 -41
s-34.5 -19.167 -55.5 -24.5s-42.833 -8 -65.5 -8c-36 0 -68 4.66699 -96 14s-54 22.666 -78 39.999l32 39c23.333 -17.333 46.5 -29.166 69.5 -35.499s47.167 -9.5 72.5 -9.5c34.667 0 62.5 6.66699 83.5 20s31.5 31.666 31.5 54.999c0 13.333 -1.5 24.333 -4.5 33
s-9.66699 17 -20 25s-25.166 16.5 -44.499 25.5s-45.333 20.167 -78 33.5c-25.333 10 -46.833 20 -64.5 30s-32 20.667 -43 32s-19.167 24 -24.5 38s-8 30.667 -8 50zM123.002 329.997c0 -18.667 2.49902 -33.5 7.49902 -44.5s14.833 -21.5 29.5 -31.5
s35.334 -20.5 62.001 -31.5l105 -44.5c19.333 14 32.833 28.833 40.5 44.5s11.5 31.167 11.5 46.5s-2.16699 28.5 -6.5 39.5s-13.666 21.667 -27.999 32s-34.833 21.333 -61.5 33s-62.334 26.5 -107.001 44.5c-19.333 -14 -33 -28.333 -41 -43s-12 -29.667 -12 -45z" />
    <glyph glyph-name="dieresis" unicode="&#xa8;" horiz-adv-x="328" 
d="M30 668c0 11.333 3.66699 20.666 11 27.999s17 11 29 11s21.667 -3.66699 29 -11s11 -16.666 11 -27.999s-3.66699 -20.666 -11 -27.999s-17 -11 -29 -11s-21.667 3.66699 -29 11s-11 16.666 -11 27.999zM218 668c0 11.333 3.66699 20.666 11 27.999s17 11 29 11
s21.667 -3.66699 29 -11s11 -16.666 11 -27.999s-3.66699 -20.666 -11 -27.999s-17 -11 -29 -11s-21.667 3.66699 -29 11s-11 16.666 -11 27.999z" />
    <glyph glyph-name="copyright" unicode="&#xa9;" horiz-adv-x="800" 
d="M475 541c-11.333 9.33301 -22.4971 16.001 -33.4971 20.001s-23.5 6 -37.5 6c-25.333 0 -47 -9.5 -65 -28.5s-27 -51.833 -27 -98.5s9 -79.5 27 -98.5s40.333 -28.5 67 -28.5c15.333 0 29.166 2.5 41.499 7.5s24.166 11.833 35.499 20.5l25 -35
c-13.333 -11.333 -28.5 -20.5 -45.5 -27.5s-36.5 -10.5 -58.5 -10.5c-20.667 0 -39.667 3.66699 -57 11s-32.5 18.333 -45.5 33s-23.167 32.667 -30.5 54s-11 46 -11 74s3.83301 52.667 11.5 74s18 39 31 53s28 24.667 45 32s35.167 11 54.5 11
c22 0 40.667 -2.83301 56 -8.5s29.666 -13.834 42.999 -24.501zM400.003 187.001c34.667 0 67 6.5 97 19.5s56 30.667 78 53s39.167 48.666 51.5 78.999s18.5 63.166 18.5 98.499c0 34.667 -6.16699 67.334 -18.5 98.001s-29.5 57.334 -51.5 80.001s-48 40.5 -78 53.5
s-62.333 19.5 -97 19.5s-67 -6.5 -97 -19.5s-56 -30.833 -78 -53.5s-39.333 -49.334 -52 -80.001s-19 -63.334 -19 -98.001c0 -35.333 6.33301 -68.166 19 -98.499s30 -56.666 52 -78.999s48 -40 78 -53s62.333 -19.5 97 -19.5zM400.003 147.001
c-40 0 -77.667 7.5 -113 22.5s-66.166 35.5 -92.499 61.5s-47 56.667 -62 92s-22.5 73.333 -22.5 114c0 40 7.5 77.667 22.5 113s35.667 66.166 62 92.499s57.166 47 92.499 62s73 22.5 113 22.5c40.667 0 78.667 -7.5 114 -22.5s66 -35.667 92 -62
s46.5 -57.166 61.5 -92.499s22.5 -73 22.5 -113c0 -40.667 -7.5 -78.667 -22.5 -114s-35.5 -66 -61.5 -92s-56.667 -46.5 -92 -61.5s-73.333 -22.5 -114 -22.5z" />
    <glyph glyph-name="ordfeminine" unicode="&#xaa;" horiz-adv-x="600" 
d="M111 435c0 44 17.499 77.165 52.499 99.498s82.833 33.5 143.5 33.5h74v38c0 32.667 -8 56.5 -24 71.5s-42.667 22.5 -80 22.5c-16 0 -33.667 -1.66699 -53 -5s-41.333 -9.66602 -66 -18.999l-16 40c28 10.667 53.5 17.834 76.5 21.501s44.833 5.5 65.5 5.5
c54.667 0 93.167 -11.667 115.5 -35s33.5 -56.333 33.5 -99v-201c0 -22 2.66699 -37.667 8 -47s15 -16 29 -20l-11 -34c-20.667 4 -36.667 10.667 -48 20s-19.333 25.333 -24 48c-16 -23.333 -36 -40.5 -60 -51.5s-50 -16.5 -78 -16.5
c-43.333 0 -77.166 11.833 -101.499 35.5s-36.5 54.5 -36.5 92.5zM260.999 349.998c26 0 49.168 6.66797 69.501 20.001s37.166 31.666 50.499 54.999v103h-71c-94 0 -141 -30 -141 -90c0 -28.667 8 -50.5 24 -65.5s38.667 -22.5 68 -22.5zM124 -0.000976562v52h341v-52
h-341z" />
    <glyph glyph-name="guillemotleft" unicode="&#xab;" horiz-adv-x="520" 
d="M134 292l136 -202l-35 -24l-165 206v41l165 206l35 -24zM314 292l136 -202l-35 -24l-165 206v41l165 206l35 -24z" />
    <glyph glyph-name="logicalnot" unicode="&#xac;" horiz-adv-x="500" 
d="M375 165v121h-305v52h360v-173h-55z" />
    <glyph glyph-name="uni00AD" unicode="&#xad;" horiz-adv-x="390" 
d="M66 286v52h258v-52h-258z" />
    <glyph glyph-name="registered" unicode="&#xae;" horiz-adv-x="641" 
d="M321 253c-34 0 -65.667 6 -95 18s-54.833 28.667 -76.5 50s-38.667 46.5 -51 75.5s-18.5 60.5 -18.5 94.5c0 33.333 6.16699 64.666 18.5 93.999s29.333 54.833 51 76.5s47.167 38.834 76.5 51.501s61 19 95 19s65.667 -6.33301 95 -19s54.666 -29.834 75.999 -51.501
s38.166 -47.167 50.499 -76.5s18.5 -60.666 18.5 -93.999c0 -34 -6.16699 -65.5 -18.5 -94.5s-29.166 -54.167 -50.499 -75.5s-46.666 -38 -75.999 -50s-61 -18 -95 -18zM321 289c28.667 0 55 5.16699 79 15.5s44.667 24.5 62 42.5s31 39.333 41 64s15 51.334 15 80.001
s-5 55.334 -15 80.001s-23.667 46.334 -41 65.001s-38 33.334 -62 44.001s-50.333 16 -79 16c-28 0 -54.333 -5.33301 -79 -16s-46 -25.334 -64 -44.001s-32.167 -40.334 -42.5 -65.001s-15.5 -51.334 -15.5 -80.001s5.16699 -55.334 15.5 -80.001s24.5 -46 42.5 -64
s39.333 -32.167 64 -42.5s51 -15.5 79 -15.5zM302 469h-31v-111h-43v270h76c76 0 114 -26.333 114 -79c0 -21.333 -6.33301 -38 -19 -50s-29 -20.333 -49 -25l92 -116h-56zM271 504l37 -0.000976562c18.667 0 34.334 3.33301 47.001 10s19 18.334 19 35.001
c0 15.333 -5.83301 26.333 -17.5 33s-29.834 10 -54.501 10h-31v-88z" />
    <glyph glyph-name="macron" unicode="&#xaf;" horiz-adv-x="294" 
d="M264 667h-234v47h234v-47z" />
    <glyph glyph-name="degree" unicode="&#xb0;" horiz-adv-x="500" 
d="M217 455c27.333 0 48.833 8.83301 64.5 26.5s23.5 41.5 23.5 71.5c0 30.667 -7.83301 54.834 -23.5 72.501s-37.167 26.5 -64.5 26.5s-49.5 -8.66699 -66.5 -26s-25.5 -41.333 -25.5 -72s8.5 -54.834 25.5 -72.501s39.167 -26.5 66.5 -26.5zM217 411
c-19.333 0 -37.833 3.16699 -55.5 9.5s-33.167 15.5 -46.5 27.5s-24.166 26.833 -32.499 44.5s-12.5 38.167 -12.5 61.5c0 22.667 4.16699 42.834 12.5 60.501s19.166 32.5 32.499 44.5s28.833 21.167 46.5 27.5s36.167 9.5 55.5 9.5c18.667 0 36.667 -3.16699 54 -9.5
s32.666 -15.666 45.999 -27.999s23.833 -27.333 31.5 -45s11.5 -37.834 11.5 -60.501s-3.83301 -42.834 -11.5 -60.501s-18.167 -32.5 -31.5 -44.5s-28.666 -21.167 -45.999 -27.5s-35.333 -9.5 -54 -9.5z" />
    <glyph glyph-name="plusminus" unicode="&#xb1;" horiz-adv-x="500" 
d="M279 337h151v-51h-151v-134h-58v134h-151v51h151v154h58v-154zM70 0v53h360v-53h-360z" />
    <glyph glyph-name="twosuperior" unicode="&#xb2;" horiz-adv-x="400" 
d="M335 319l-272 0.00195312v36l87 85.5c26.667 26.333 49.667 50.666 69 72.999s34.333 43.166 45 62.499s16 37 16 53c0 21.333 -7 38.5 -21 51.5s-33 19.5 -57 19.5c-21.333 0 -40.666 -4.33301 -57.999 -13s-34 -21.667 -50 -39l-35 24c20 22.667 41.5 40.167 64.5 52.5
s49.833 18.5 80.5 18.5c18.667 0 36 -2.66699 52 -8s29.667 -12.833 41 -22.5s20.333 -21.5 27 -35.5s10 -29.333 10 -46c0 -19.333 -4.66699 -38.5 -14 -57.5s-22.833 -39.167 -40.5 -60.5s-39.334 -44.333 -65.001 -69l-88.5 -83h215z" />
    <glyph glyph-name="threesuperior" unicode="&#xb3;" horiz-adv-x="400" 
d="M154 557l21.002 -0.000976562c10.667 0 21.667 1.5 33 4.5s21.5 7.66699 30.5 14s16.333 14.166 22 23.499s8.5 20.666 8.5 33.999c0 20.667 -7 37 -21 49s-34.333 18 -61 18c-20.667 0 -40 -3.66699 -58 -11s-35.333 -17.333 -52 -30l-25 30c41.333 36 87.333 54 138 54
c20.667 0 39.167 -2.83301 55.5 -8.5s30.333 -13.5 42 -23.5s20.5 -21.333 26.5 -34s9 -26 9 -40c0 -22 -7.5 -41.5 -22.5 -58.5s-33.5 -28.167 -55.5 -33.5v-2c23.333 -5.33301 44 -17.166 62 -35.499s27 -41.833 27 -70.5c0 -18 -3.66699 -34.667 -11 -50
s-17.833 -28.5 -31.5 -39.5s-30 -19.667 -49 -26s-39.833 -9.5 -62.5 -9.5c-24 0 -48.667 5.16699 -74 15.5s-47.333 24.5 -66 42.5l31 29c13.333 -13.333 29.166 -24.333 47.499 -33s38.5 -13 60.5 -13c31.333 0 56.166 7.33301 74.499 22s27.5 35.334 27.5 62.001
c0 28.667 -9.5 49.334 -28.5 62.001s-43.833 19 -74.5 19h-32z" />
    <glyph glyph-name="acute" unicode="&#xb4;" horiz-adv-x="274" 
d="M30 651l182 105l32 -52l-194 -87z" />
    <glyph glyph-name="mu" unicode="&#xb5;" horiz-adv-x="580" 
d="M470 523l0.000976562 -348.996c0 -34.667 2.83301 -66.334 8.5 -95.001s12.167 -55 19.5 -79l-49 -9c-7.33301 15.333 -13 31.5 -17 48.5s-7.33301 37.167 -10 60.5c-24.667 -40.667 -51 -69.334 -79 -86.001s-56.667 -25 -86 -25c-22.667 0 -43 4.83301 -61 14.5
s-32 24.5 -42 44.5l-3 -1c3.33301 -17.333 6.16602 -35 8.49902 -53s3.5 -36.667 3.5 -56v-135l-53 -6v726h57v-362c0 -44.667 9 -76.5 27 -95.5s41.333 -28.5 70 -28.5c14.667 0 29 3.16699 43 9.5s27.333 14.666 40 24.999s24.5 22.166 35.5 35.499s21.167 27.333 30.5 42
v374h57z" />
    <glyph glyph-name="paragraph" unicode="&#xb6;" horiz-adv-x="680" 
d="M540 685l0.00195312 -882.999l-53 -7v846h-115v-839l-53 -7v524c-40 0.666992 -74.333 5.66699 -103 15s-52.334 22.166 -71.001 38.499s-32.5 35.5 -41.5 57.5s-13.5 45.667 -13.5 71c0 26 4.83301 50.167 14.5 72.5s24.167 41.833 43.5 58.5s43.166 29.667 71.499 39
s61.5 14 99.5 14h221z" />
    <glyph glyph-name="periodcentered" unicode="&#xb7;" horiz-adv-x="280" 
d="M92 316c0 13.333 4.33301 24.5 13 33.5s20.334 13.5 35.001 13.5c15.333 0 27.166 -4.5 35.499 -13.5s12.5 -20.167 12.5 -33.5s-4.16699 -24.5 -12.5 -33.5s-20.166 -13.5 -35.499 -13.5c-14.667 0 -26.334 4.5 -35.001 13.5s-13 20.167 -13 33.5z" />
    <glyph glyph-name="cedilla" unicode="&#xb8;" horiz-adv-x="253" 
d="M166 -142c0 17.333 -7.16797 28.832 -21.501 34.499s-33.5 8.83398 -57.5 9.50098l8 114h44v-83c30 -3.33301 51.5 -11.5 64.5 -24.5s19.5 -30.167 19.5 -51.5c0 -28 -10.5 -48.833 -31.5 -62.5s-46.5 -20.5 -76.5 -20.5c-18.667 0 -34.667 1.66699 -48 5
s-25.666 8 -36.999 14l11 19.5l11 19.5c7.33301 -4 16.333 -7.33301 27 -10s21 -4 31 -4c16.667 0 30.167 2.83301 40.5 8.5s15.5 16.167 15.5 31.5z" />
    <glyph glyph-name="onesuperior" unicode="&#xb9;" horiz-adv-x="400" 
d="M209 319v362l-109 -61l-23 35l144 81h41v-417h-53z" />
    <glyph glyph-name="ordmasculine" unicode="&#xba;" horiz-adv-x="600" 
d="M111 525c0 67.333 16.9971 120.498 50.9971 159.498s80.667 58.5 140 58.5c58.667 0 104.334 -19.167 137.001 -57.5s49 -91.166 49 -158.499c0 -33.333 -4.33301 -63.666 -13 -90.999s-21.167 -50.5 -37.5 -69.5s-36.166 -33.667 -59.499 -44
s-49.666 -15.5 -78.999 -15.5c-58.667 0 -104.667 19.5 -138 58.5s-50 92.167 -50 159.5zM301.997 699.998c-42.667 0 -75.833 -14.332 -99.5 -42.999s-35.5 -72.667 -35.5 -132c0 -58.667 11.5 -102.5 34.5 -131.5s55.5 -43.5 97.5 -43.5s74.833 14.667 98.5 44
s35.5 73.666 35.5 132.999c0 58 -11.5 101.333 -34.5 130s-55.167 43 -96.5 43zM128.998 -3.00098v52h341v-52h-341z" />
    <glyph glyph-name="guillemotright" unicode="&#xbb;" horiz-adv-x="520" 
d="M105 519l165 -206v-41l-165 -206l-35 24l135 202l-135 203zM285 519l165 -206v-41l-165 -206l-35 24l135 202l-135 203z" />
    <glyph glyph-name="onequarter" unicode="&#xbc;" horiz-adv-x="900" 
d="M209 268v362l-109 -61l-23 35l144 81h41v-417h-53zM280 -78l-44 21l405 800l43 -21zM755 0v102h-194v35l138 290l48 -16l-127 -266h135l5 116h44v-116h55v-43h-55v-102h-49z" />
    <glyph glyph-name="onehalf" unicode="&#xbd;" horiz-adv-x="900" 
d="M209 268v362l-109 -61l-23 35l144 81h41v-417h-53zM874 0l-272 0.00195312v36l87 85.5c26.667 26.333 49.667 50.666 69 72.999s34.333 43.166 45 62.499s16 37 16 53c0 21.333 -7 38.5 -21 51.5s-33 19.5 -57 19.5c-21.333 0 -40.666 -4.33301 -57.999 -13
s-34 -21.667 -50 -39l-35 24c20 22.667 41.5 40.167 64.5 52.5s49.833 18.5 80.5 18.5c18.667 0 36 -2.66699 52 -8s29.667 -12.833 41 -22.5s20.333 -21.5 27 -35.5s10 -29.333 10 -46c0 -19.333 -4.66699 -38.5 -14 -57.5s-22.833 -39.167 -40.5 -60.5
s-39.334 -44.333 -65.001 -69l-88.5 -83h215zM280 -77.998l-44 21l405 800l43 -21z" />
    <glyph glyph-name="threequarters" unicode="&#xbe;" horiz-adv-x="900" 
d="M154 506l21.002 -0.000976562c10.667 0 21.667 1.5 33 4.5s21.5 7.66699 30.5 14s16.333 14.166 22 23.499s8.5 20.666 8.5 33.999c0 20.667 -7 37 -21 49s-34.333 18 -61 18c-20.667 0 -40 -3.66699 -58 -11s-35.333 -17.333 -52 -30l-25 30c41.333 36 87.333 54 138 54
c20.667 0 39.167 -2.83301 55.5 -8.5s30.333 -13.5 42 -23.5s20.5 -21.333 26.5 -34s9 -26 9 -40c0 -22 -7.5 -41.5 -22.5 -58.5s-33.5 -28.167 -55.5 -33.5v-2c23.333 -5.33301 44 -17.166 62 -35.499s27 -41.833 27 -70.5c0 -18 -3.66699 -34.667 -11 -50
s-17.833 -28.5 -31.5 -39.5s-30 -19.667 -49 -26s-39.833 -9.5 -62.5 -9.5c-24 0 -48.667 5.16699 -74 15.5s-47.333 24.5 -66 42.5l31 29c13.333 -13.333 29.166 -24.333 47.499 -33s38.5 -13 60.5 -13c31.333 0 56.166 7.33301 74.499 22s27.5 35.334 27.5 62.001
c0 28.667 -9.5 49.334 -28.5 62.001s-43.833 19 -74.5 19h-32zM288.002 -78.001l-44 21l405 800l43 -21zM751.002 -0.000976562v102h-194v35l138 290l48 -16l-127 -266h135l5 116h44v-116h55v-43h-55v-102h-49z" />
    <glyph glyph-name="questiondown" unicode="&#xbf;" horiz-adv-x="530" 
d="M283 267l53.9971 -0.00292969v-56c0 -26.667 -4.33301 -49.167 -13 -67.5s-19.667 -34.166 -33 -47.499s-27.5 -25.333 -42.5 -36s-29.167 -21.667 -42.5 -33s-24.333 -24 -33 -38s-13 -31.333 -13 -52c0 -28 10.667 -50.5 32 -67.5s49.333 -25.5 84 -25.5
c26.667 0 52.834 6 78.501 18s49.5 30.667 71.5 56l39 -30c-26.667 -31.333 -55.834 -54.666 -87.501 -69.999s-67.5 -23 -107.5 -23c-28 0 -52.5 3.83301 -73.5 11.5s-38.667 18 -53 31s-25.166 27.833 -32.499 44.5s-11 34.334 -11 53.001c0 26 4.5 47.833 13.5 65.5
s20.333 33.167 34 46.5s28.334 25.5 44.001 36.5s30.334 22.667 44.001 35s25 26.333 34 42s13.5 35.167 13.5 58.5v48zM356.997 425.997c0 -13.333 -4.33301 -24.5 -13 -33.5s-20.334 -13.5 -35.001 -13.5c-15.333 0 -27.166 4.5 -35.499 13.5s-12.5 20.167 -12.5 33.5
s4.16699 24.5 12.5 33.5s20.166 13.5 35.499 13.5c14.667 0 26.334 -4.5 35.001 -13.5s13 -20.167 13 -33.5z" />
    <glyph glyph-name="Agrave" unicode="&#xc0;" horiz-adv-x="545" 
d="M414 185h-285l-59 -185h-60l225 685h75l225 -685h-62zM145 235h253l-125 397h-2zM347 757l-189 75l32 52l177 -93z" />
    <glyph glyph-name="Aacute" unicode="&#xc1;" horiz-adv-x="545" 
d="M414 185h-285l-59 -185h-60l225 685h75l225 -685h-62zM145 235h253l-125 397h-2zM178 801l177 93l32 -52l-189 -75z" />
    <glyph glyph-name="Acircumflex" unicode="&#xc2;" horiz-adv-x="545" 
d="M414 185h-285l-59 -185h-60l225 685h75l225 -685h-62zM145 235h253l-125 397h-2zM155 759l-27 30l130 98h30l129 -98l-26 -30l-118 75z" />
    <glyph glyph-name="Atilde" unicode="&#xc3;" horiz-adv-x="545" 
d="M414 185h-285l-59 -185h-60l225 685h75l225 -685h-62zM145 235h253l-125 397h-2zM325 775c-12 0 -22.9971 2.33203 -32.9971 6.99902s-19.5 9.83398 -28.5 15.501l-25 15.5c-7.66699 4.66699 -15.167 7 -22.5 7c-12 0 -22.167 -3.83301 -30.5 -11.5
s-16.5 -18.5 -24.5 -32.5l-35 17c10 23.333 22.5 41.333 37.5 54s33.167 19 54.5 19c14 0 26.167 -2.33301 36.5 -7s19.666 -9.83398 27.999 -15.501l23.5 -15.5c7.33301 -4.66699 14.666 -7 21.999 -7c11.333 0 21.166 3.66699 29.499 11s16.5 18 24.5 32l36 -17
c-10.667 -23.333 -23.5 -41.166 -38.5 -53.499s-33.167 -18.5 -54.5 -18.5z" />
    <glyph glyph-name="Adieresis" unicode="&#xc4;" horiz-adv-x="545" 
d="M414 185h-285l-59 -185h-60l225 685h75l225 -685h-62zM145 235h253l-125 397h-2zM138 798c0 11.333 3.66699 20.666 11 27.999s17 11 29 11s21.667 -3.66699 29 -11s11 -16.666 11 -27.999s-3.66699 -20.666 -11 -27.999s-17 -11 -29 -11s-21.667 3.66699 -29 11
s-11 16.666 -11 27.999zM326 798c0 11.333 3.66699 20.666 11 27.999s17 11 29 11s21.667 -3.66699 29 -11s11 -16.666 11 -27.999s-3.66699 -20.666 -11 -27.999s-17 -11 -29 -11s-21.667 3.66699 -29 11s-11 16.666 -11 27.999z" />
    <glyph glyph-name="Aring" unicode="&#xc5;" horiz-adv-x="545" 
d="M414 185h-285l-59 -185h-60l225 685h75l225 -685h-62zM145 235h253l-125 397h-2zM272 742c-28.667 0 -52 8.33301 -70 25s-27 38.667 -27 66s9 49.333 27 66s41.333 25 70 25s52 -8.33301 70 -25s27 -38.667 27 -66s-9 -49.333 -27 -66s-41.333 -25 -70 -25zM272 776
c17.333 0 30.666 5.16699 39.999 15.5s14 24.166 14 41.499s-4.66699 31.166 -14 41.499s-22.666 15.5 -39.999 15.5s-30.666 -5.16699 -39.999 -15.5s-14 -24.166 -14 -41.499s4.66699 -31.166 14 -41.499s22.666 -15.5 39.999 -15.5z" />
    <glyph glyph-name="AE" unicode="&#xc6;" horiz-adv-x="777" 
d="M130 185l-70 -185h-60l267 685h422l-7 -50h-327l67 -255h248v-50h-235l73 -280h229v-50h-274l-47 185h-286zM149 235h254l-100 398h-2z" />
    <glyph glyph-name="Ccedilla" unicode="&#xc7;" horiz-adv-x="556" 
d="M381 -142c0 17.333 -7.16406 28.832 -21.4971 34.499s-33.5 8.83398 -57.5 9.50098l6 89c-34.667 4 -66.5 14.333 -95.5 31s-54 39.834 -75 69.501s-37.5 65.5 -49.5 107.5s-18 90 -18 144c0 58 7 109.167 21 153.5s33.167 81.166 57.5 110.499s52.666 51.5 84.999 66.5
s66.5 22.5 102.5 22.5c40.667 0 75 -5.5 103 -16.5s53.333 -25.833 76 -44.5l-36 -41c-20.667 17.333 -41.834 30.166 -63.501 38.499s-46.834 12.5 -75.501 12.5c-28 0 -54.667 -5.5 -80 -16.5s-47.5 -28.667 -66.5 -53s-34 -55.666 -45 -93.999s-16.5 -84.5 -16.5 -138.5
c0 -52.667 5.5 -98 16.5 -136s26 -69.333 45 -94s41.167 -42.834 66.5 -54.501s52.666 -17.5 81.999 -17.5c36 0 65.667 5.33301 89 16s44 23.667 62 39l33 -41c-20 -18 -44.167 -33.167 -72.5 -45.5s-61.5 -19.166 -99.5 -20.499v-56c30 -3.33301 51.5 -11.5 64.5 -24.5
s19.5 -30.167 19.5 -51.5c0 -28 -10.5 -48.833 -31.5 -62.5s-46.5 -20.5 -76.5 -20.5c-18.667 0 -34.667 1.66699 -48 5s-25.666 8 -36.999 14l22 39c7.33301 -4 16.333 -7.33301 27 -10s21 -4 31 -4c16.667 0 30.167 2.83301 40.5 8.5s15.5 16.167 15.5 31.5z" />
    <glyph glyph-name="Egrave" unicode="&#xc8;" horiz-adv-x="514" 
d="M110 0v685h346l-7 -50h-280v-255h243v-50h-243v-280h295v-50h-354zM366 757l-189 75l32 52l177 -93z" />
    <glyph glyph-name="Eacute" unicode="&#xc9;" horiz-adv-x="514" 
d="M110 0v685h346l-7 -50h-280v-255h243v-50h-243v-280h295v-50h-354zM187 791l177 93l32 -52l-189 -75z" />
    <glyph glyph-name="Ecircumflex" unicode="&#xca;" horiz-adv-x="514" 
d="M110 0v685h346l-7 -50h-280v-255h243v-50h-243v-280h295v-50h-354zM164 759l-27 30l130 98h30l129 -98l-26 -30l-118 75z" />
    <glyph glyph-name="Edieresis" unicode="&#xcb;" horiz-adv-x="514" 
d="M110 0v685h346l-7 -50h-280v-255h243v-50h-243v-280h295v-50h-354zM148 798c0 11.333 3.66699 20.666 11 27.999s17 11 29 11s21.667 -3.66699 29 -11s11 -16.666 11 -27.999s-3.66699 -20.666 -11 -27.999s-17 -11 -29 -11s-21.667 3.66699 -29 11
s-11 16.666 -11 27.999zM336 798c0 11.333 3.66699 20.666 11 27.999s17 11 29 11s21.667 -3.66699 29 -11s11 -16.666 11 -27.999s-3.66699 -20.666 -11 -27.999s-17 -11 -29 -11s-21.667 3.66699 -29 11s-11 16.666 -11 27.999z" />
    <glyph glyph-name="Igrave" unicode="&#xcc;" horiz-adv-x="279" 
d="M169 685v-685h-59v685h59zM224 757l-189 75l32 52l177 -93z" />
    <glyph glyph-name="Iacute" unicode="&#xcd;" horiz-adv-x="279" 
d="M169 685v-685h-59v685h59zM35 791l177 93l32 -52l-189 -75z" />
    <glyph glyph-name="Icircumflex" unicode="&#xce;" horiz-adv-x="279" 
d="M169 685v-685h-59v685h59zM22 759l-27 30l130 98h30l129 -98l-26 -30l-118 75z" />
    <glyph glyph-name="Idieresis" unicode="&#xcf;" horiz-adv-x="279" 
d="M169 685v-685h-59v685h59zM5 798c0 11.333 3.66699 20.666 11 27.999s17 11 29 11s21.667 -3.66699 29 -11s11 -16.666 11 -27.999s-3.66699 -20.666 -11 -27.999s-17 -11 -29 -11s-21.667 3.66699 -29 11s-11 16.666 -11 27.999zM193 798
c0 11.333 3.66699 20.666 11 27.999s17 11 29 11s21.667 -3.66699 29 -11s11 -16.666 11 -27.999s-3.66699 -20.666 -11 -27.999s-17 -11 -29 -11s-21.667 3.66699 -29 11s-11 16.666 -11 27.999z" />
    <glyph glyph-name="Eth" unicode="&#xd0;" horiz-adv-x="637" 
d="M110 329l-87.002 -0.00195312v48h87v308h134c41.333 0 81.333 -4.16699 120 -12.5s73 -24.666 103 -48.999s54.167 -58.5 72.5 -102.5s27.5 -101.667 27.5 -173s-9.66699 -129.666 -29 -174.999s-44.166 -80.833 -74.499 -106.5s-64.166 -43.167 -101.499 -52.5
s-74.333 -14 -111 -14h-141v329zM168.998 328.998v-279h88c30.667 0 60.834 3.83301 90.501 11.5s56.167 22.5 79.5 44.5s42.166 52.333 56.499 91s21.5 89 21.5 151c0 63.333 -7.33301 114 -22 152s-33.834 67 -57.501 87s-50.667 33 -81 39s-61.166 9 -92.499 9h-83v-258
h182v-48h-182z" />
    <glyph glyph-name="Ntilde" unicode="&#xd1;" horiz-adv-x="672" 
d="M506 685h56v-685h-79l-323 619h-2c2.66699 -30.667 4.66699 -63.667 6 -99s2 -74 2 -116v-404h-56v685h78l324 -620h2c-2 30 -3.83301 62.833 -5.5 98.5s-2.5 74.5 -2.5 116.5v405zM394 775c-12 0 -22.9971 2.33203 -32.9971 6.99902s-19.5 9.83398 -28.5 15.501
l-25 15.5c-7.66699 4.66699 -15.167 7 -22.5 7c-12 0 -22.167 -3.83301 -30.5 -11.5s-16.5 -18.5 -24.5 -32.5l-35 17c10 23.333 22.5 41.333 37.5 54s33.167 19 54.5 19c14 0 26.167 -2.33301 36.5 -7s19.666 -9.83398 27.999 -15.501l23.5 -15.5
c7.33301 -4.66699 14.666 -7 21.999 -7c11.333 0 21.166 3.66699 29.499 11s16.5 18 24.5 32l36 -17c-10.667 -23.333 -23.5 -41.166 -38.5 -53.499s-33.167 -18.5 -54.5 -18.5z" />
    <glyph glyph-name="Ograve" unicode="&#xd2;" horiz-adv-x="683" 
d="M613 342c0 -56 -6.66699 -105.834 -20 -149.501s-31.833 -80.5 -55.5 -110.5s-52.167 -53 -85.5 -69s-70 -24 -110 -24s-76.667 7.66699 -110 23s-62 37.833 -86 67.5s-42.667 66.334 -56 110.001s-20 94.167 -20 151.5c0 56 6.66699 106 20 150s32 81.167 56 111.5
s52.667 53.5 86 69.5s70 24 110 24s76.667 -7.66699 110 -23s61.833 -38 85.5 -68s42.167 -67 55.5 -111s20 -94.667 20 -152zM342 39.999c31.333 0 59.834 6.16504 85.501 18.498s47.667 31 66 56s32.5 56.333 42.5 94s15 82.167 15 133.5
c0 102.667 -19.167 178.834 -57.5 228.501s-88.833 74.5 -151.5 74.5c-31.333 0 -60 -6.16699 -86 -18.5s-48.167 -31.166 -66.5 -56.499s-32.5 -57 -42.5 -95s-15 -82.667 -15 -134s5.16699 -96 15.5 -134s24.666 -69.333 42.999 -94s40.333 -43 66 -55
s54.167 -18 85.5 -18zM416.001 756.997l-189 75l32 52l177 -93z" />
    <glyph glyph-name="Oacute" unicode="&#xd3;" horiz-adv-x="683" 
d="M613 342c0 -56 -6.66699 -105.834 -20 -149.501s-31.833 -80.5 -55.5 -110.5s-52.167 -53 -85.5 -69s-70 -24 -110 -24s-76.667 7.66699 -110 23s-62 37.833 -86 67.5s-42.667 66.334 -56 110.001s-20 94.167 -20 151.5c0 56 6.66699 106 20 150s32 81.167 56 111.5
s52.667 53.5 86 69.5s70 24 110 24s76.667 -7.66699 110 -23s61.833 -38 85.5 -68s42.167 -67 55.5 -111s20 -94.667 20 -152zM342 39.999c31.333 0 59.834 6.16504 85.501 18.498s47.667 31 66 56s32.5 56.333 42.5 94s15 82.167 15 133.5
c0 102.667 -19.167 178.834 -57.5 228.501s-88.833 74.5 -151.5 74.5c-31.333 0 -60 -6.16699 -86 -18.5s-48.167 -31.166 -66.5 -56.499s-32.5 -57 -42.5 -95s-15 -82.667 -15 -134s5.16699 -96 15.5 -134s24.666 -69.333 42.999 -94s40.333 -43 66 -55
s54.167 -18 85.5 -18zM247.001 790.997l177 93l32 -52l-189 -75z" />
    <glyph glyph-name="Ocircumflex" unicode="&#xd4;" horiz-adv-x="683" 
d="M613 342c0 -56 -6.66699 -105.834 -20 -149.501s-31.833 -80.5 -55.5 -110.5s-52.167 -53 -85.5 -69s-70 -24 -110 -24s-76.667 7.66699 -110 23s-62 37.833 -86 67.5s-42.667 66.334 -56 110.001s-20 94.167 -20 151.5c0 56 6.66699 106 20 150s32 81.167 56 111.5
s52.667 53.5 86 69.5s70 24 110 24s76.667 -7.66699 110 -23s61.833 -38 85.5 -68s42.167 -67 55.5 -111s20 -94.667 20 -152zM342 39.999c31.333 0 59.834 6.16504 85.501 18.498s47.667 31 66 56s32.5 56.333 42.5 94s15 82.167 15 133.5
c0 102.667 -19.167 178.834 -57.5 228.501s-88.833 74.5 -151.5 74.5c-31.333 0 -60 -6.16699 -86 -18.5s-48.167 -31.166 -66.5 -56.499s-32.5 -57 -42.5 -95s-15 -82.667 -15 -134s5.16699 -96 15.5 -134s24.666 -69.333 42.999 -94s40.333 -43 66 -55
s54.167 -18 85.5 -18zM224.001 758.997l-27 30l130 98h30l129 -98l-26 -30l-118 75z" />
    <glyph glyph-name="Otilde" unicode="&#xd5;" horiz-adv-x="683" 
d="M613 342c0 -56 -6.66699 -105.834 -20 -149.501s-31.833 -80.5 -55.5 -110.5s-52.167 -53 -85.5 -69s-70 -24 -110 -24s-76.667 7.66699 -110 23s-62 37.833 -86 67.5s-42.667 66.334 -56 110.001s-20 94.167 -20 151.5c0 56 6.66699 106 20 150s32 81.167 56 111.5
s52.667 53.5 86 69.5s70 24 110 24s76.667 -7.66699 110 -23s61.833 -38 85.5 -68s42.167 -67 55.5 -111s20 -94.667 20 -152zM342 39.999c31.333 0 59.834 6.16504 85.501 18.498s47.667 31 66 56s32.5 56.333 42.5 94s15 82.167 15 133.5
c0 102.667 -19.167 178.834 -57.5 228.501s-88.833 74.5 -151.5 74.5c-31.333 0 -60 -6.16699 -86 -18.5s-48.167 -31.166 -66.5 -56.499s-32.5 -57 -42.5 -95s-15 -82.667 -15 -134s5.16699 -96 15.5 -134s24.666 -69.333 42.999 -94s40.333 -43 66 -55
s54.167 -18 85.5 -18zM394.001 774.997c-12 0 -22.9971 2.33203 -32.9971 6.99902s-19.5 9.83398 -28.5 15.501l-25 15.5c-7.66699 4.66699 -15.167 7 -22.5 7c-12 0 -22.167 -3.83301 -30.5 -11.5s-16.5 -18.5 -24.5 -32.5l-35 17c10 23.333 22.5 41.333 37.5 54
s33.167 19 54.5 19c14 0 26.167 -2.33301 36.5 -7s19.666 -9.83398 27.999 -15.501l23.5 -15.5c7.33301 -4.66699 14.666 -7 21.999 -7c11.333 0 21.166 3.66699 29.499 11s16.5 18 24.5 32l36 -17c-10.667 -23.333 -23.5 -41.166 -38.5 -53.499s-33.167 -18.5 -54.5 -18.5z
" />
    <glyph glyph-name="Odieresis" unicode="&#xd6;" horiz-adv-x="683" 
d="M613 342c0 -56 -6.66699 -105.834 -20 -149.501s-31.833 -80.5 -55.5 -110.5s-52.167 -53 -85.5 -69s-70 -24 -110 -24s-76.667 7.66699 -110 23s-62 37.833 -86 67.5s-42.667 66.334 -56 110.001s-20 94.167 -20 151.5c0 56 6.66699 106 20 150s32 81.167 56 111.5
s52.667 53.5 86 69.5s70 24 110 24s76.667 -7.66699 110 -23s61.833 -38 85.5 -68s42.167 -67 55.5 -111s20 -94.667 20 -152zM342 39.999c31.333 0 59.834 6.16504 85.501 18.498s47.667 31 66 56s32.5 56.333 42.5 94s15 82.167 15 133.5
c0 102.667 -19.167 178.834 -57.5 228.501s-88.833 74.5 -151.5 74.5c-31.333 0 -60 -6.16699 -86 -18.5s-48.167 -31.166 -66.5 -56.499s-32.5 -57 -42.5 -95s-15 -82.667 -15 -134s5.16699 -96 15.5 -134s24.666 -69.333 42.999 -94s40.333 -43 66 -55
s54.167 -18 85.5 -18zM207.001 797.997c0 11.333 3.66699 20.666 11 27.999s17 11 29 11s21.667 -3.66699 29 -11s11 -16.666 11 -27.999s-3.66699 -20.666 -11 -27.999s-17 -11 -29 -11s-21.667 3.66699 -29 11s-11 16.666 -11 27.999zM395.001 797.997
c0 11.333 3.66699 20.666 11 27.999s17 11 29 11s21.667 -3.66699 29 -11s11 -16.666 11 -27.999s-3.66699 -20.666 -11 -27.999s-17 -11 -29 -11s-21.667 3.66699 -29 11s-11 16.666 -11 27.999z" />
    <glyph glyph-name="multiply" unicode="&#xd7;" horiz-adv-x="500" 
d="M287 297l128 -128l-37 -38l-129 129l-128 -129l-37 38l128 128l-128 129l37 38l128 -129l129 129l37 -38z" />
    <glyph glyph-name="Oslash" unicode="&#xd8;" horiz-adv-x="683" 
d="M613 342c0 -56 -6.66699 -105.835 -20 -149.502s-31.833 -80.5 -55.5 -110.5s-52.167 -53 -85.5 -69s-70 -24 -110 -24c-27.333 0 -52.333 3.33301 -75 10l-35 -120l-53 14l40 125c-46 24.667 -82.333 63.834 -109 117.501s-40 122.167 -40 205.5
c0 56 6.66699 106 20 150s32 81.167 56 111.5s52.667 53.5 86 69.5s70 24 110 24c12.667 0 25 -0.833008 37 -2.5s23.667 -4.16699 35 -7.5l36 124l53 -14l-41 -129c46.667 -24.667 83.5 -64.167 110.5 -118.5s40.5 -123.166 40.5 -206.499zM342 644.998
c-31.333 0 -59.999 -6.16797 -85.999 -18.501s-48.167 -31.166 -66.5 -56.499s-32.5 -57 -42.5 -95s-15 -82.667 -15 -134c0 -72.667 9.16699 -131.167 27.5 -175.5s44.166 -76.833 77.499 -97.5l165 569c-20 5.33301 -40 8 -60 8zM342.001 39.9971
c31.333 0 59.832 6.16602 85.499 18.499s47.667 31 66 56s32.5 56.333 42.5 94s15 82.167 15 133.5c0 72.667 -9.16699 131.334 -27.5 176.001s-44.166 77.667 -77.499 99l-164 -569c9.33301 -3.33301 18.833 -5.5 28.5 -6.5s20.167 -1.5 31.5 -1.5z" />
    <glyph glyph-name="Ugrave" unicode="&#xd9;" horiz-adv-x="652" 
d="M159 685v-464c0 -120.667 55.667 -181 167 -181s167 60.333 167 181v464h59v-467c0 -71.333 -19.333 -127.333 -58 -168s-94.667 -61 -168 -61s-129.333 20 -168 60s-58 96.333 -58 169v467h59zM400 757l-189 75l32 52l177 -93z" />
    <glyph glyph-name="Uacute" unicode="&#xda;" horiz-adv-x="652" 
d="M159 685v-464c0 -120.667 55.667 -181 167 -181s167 60.333 167 181v464h59v-467c0 -71.333 -19.333 -127.333 -58 -168s-94.667 -61 -168 -61s-129.333 20 -168 60s-58 96.333 -58 169v467h59zM231 791l177 93l32 -52l-189 -75z" />
    <glyph glyph-name="Ucircumflex" unicode="&#xdb;" horiz-adv-x="652" 
d="M159 685v-464c0 -120.667 55.667 -181 167 -181s167 60.333 167 181v464h59v-467c0 -71.333 -19.333 -127.333 -58 -168s-94.667 -61 -168 -61s-129.333 20 -168 60s-58 96.333 -58 169v467h59zM208 759l-27 30l130 98h30l129 -98l-26 -30l-118 75z" />
    <glyph glyph-name="Udieresis" unicode="&#xdc;" horiz-adv-x="652" 
d="M159 685v-464c0 -120.667 55.667 -181 167 -181s167 60.333 167 181v464h59v-467c0 -71.333 -19.333 -127.333 -58 -168s-94.667 -61 -168 -61s-129.333 20 -168 60s-58 96.333 -58 169v467h59zM192 798c0 11.333 3.66699 20.666 11 27.999s17 11 29 11
s21.667 -3.66699 29 -11s11 -16.666 11 -27.999s-3.66699 -20.666 -11 -27.999s-17 -11 -29 -11s-21.667 3.66699 -29 11s-11 16.666 -11 27.999zM380 798c0 11.333 3.66699 20.666 11 27.999s17 11 29 11s21.667 -3.66699 29 -11s11 -16.666 11 -27.999
s-3.66699 -20.666 -11 -27.999s-17 -11 -29 -11s-21.667 3.66699 -29 11s-11 16.666 -11 27.999z" />
    <glyph glyph-name="Yacute" unicode="&#xdd;" horiz-adv-x="517" 
d="M512 685l-223 -408v-277h-59v276l-225 409h67l187 -354h2l188 354h63zM164 791l177 93l32 -52l-189 -75z" />
    <glyph glyph-name="Thorn" unicode="&#xde;" horiz-adv-x="569" 
d="M169 565l97.001 0.000976562c84.667 0 149.667 -16.5 195 -49.5s68 -86.167 68 -159.5c0 -39.333 -6.33301 -72.833 -19 -100.5s-30.334 -50.334 -53.001 -68.001s-50.167 -30.5 -82.5 -38.5s-67.833 -12 -106.5 -12h-99v-137h-59v685h59v-120zM273.001 187.001
c28.667 0 55.001 2.66504 79.001 7.99805s44.5 14.333 61.5 27s30.167 29.834 39.5 51.501s14 48.834 14 81.501c0 57.333 -17.333 98.333 -52 123s-82.334 37 -143.001 37h-103v-328h104z" />
    <glyph glyph-name="germandbls" unicode="&#xdf;" horiz-adv-x="590" 
d="M110 543c0 34 4.49902 63.499 13.499 88.499s21.833 45.833 38.5 62.5s36.334 29 59.001 37s48 12 76 12c24.667 0 47 -3.33301 67 -10s37.167 -15.667 51.5 -27s25.333 -25 33 -41s11.5 -33.333 11.5 -52c0 -24.667 -6 -45 -18 -61s-25.333 -30.5 -40 -43.5
s-28 -25.667 -40 -38s-18 -26.833 -18 -43.5c0 -15.333 5.16699 -28.666 15.5 -39.999s23 -22.333 38 -33s31.5 -21.334 49.5 -32.001s34.5 -23.334 49.5 -38.001s27.667 -31.667 38 -51s15.5 -42.666 15.5 -69.999c0 -26.667 -4.5 -50.667 -13.5 -72
s-21.5 -39.5 -37.5 -54.5s-35 -26.667 -57 -35s-46 -12.5 -72 -12.5c-22.667 0 -44 2.5 -64 7.5s-37.333 12.167 -52 21.5l22 41c26 -14.667 56.333 -22 91 -22c36 0 65.5 11 88.5 33s34.5 53.667 34.5 95c0 22.667 -5 41.834 -15 57.501s-22.5 29.667 -37.5 42
s-31.333 23.5 -49 33.5s-34 21 -49 33s-27.5 25.5 -37.5 40.5s-15 33.5 -15 55.5c0 21.333 6 39 18 53s25.333 27.167 40 39.5s28 25.333 40 39s18 31.5 18 53.5s-9.33301 41.5 -28 58.5s-46 25.5 -82 25.5c-41.333 0 -72.833 -12 -94.5 -36s-32.5 -62 -32.5 -114v-546h-56
v543z" />
    <glyph glyph-name="agrave" unicode="&#xe0;" horiz-adv-x="521" 
d="M371 78c-18.667 -31.333 -42.334 -54.002 -71.001 -68.002s-60 -21 -94 -21c-50.667 0 -90.167 14.333 -118.5 43s-42.5 66.667 -42.5 114c0 54.667 20.5 96 61.5 124s96.833 42 167.5 42h90v52c0 41.333 -9.66699 71.833 -29 91.5s-51.333 29.5 -96 29.5
c-19.333 0 -40.5 -2 -63.5 -6s-48.833 -11.667 -77.5 -23l-16 45c32 12.667 61.333 21.334 88 26.001s52.334 7 77.001 7c62 0 106.5 -14.667 133.5 -44s40.5 -70.333 40.5 -123v-253c0 -28.667 4.16699 -48.667 12.5 -60s20.833 -19.666 37.5 -24.999l-13 -40
c-23.333 4 -42.333 12.167 -57 24.5s-24.667 33.5 -30 63.5v1zM364 266.998h-87c-56.667 0 -99.334 -9.66699 -128.001 -29s-43 -49 -43 -89c0 -36 9.83301 -63.5 29.5 -82.5s47.834 -28.5 84.501 -28.5c32.667 0 61.167 8.66699 85.5 26s43.833 40.333 58.5 69v134z
M340 616.998l-194 87l32 52l182 -105z" />
    <glyph glyph-name="aacute" unicode="&#xe1;" horiz-adv-x="521" 
d="M371 78c-18.667 -31.333 -42.334 -54.002 -71.001 -68.002s-60 -21 -94 -21c-50.667 0 -90.167 14.333 -118.5 43s-42.5 66.667 -42.5 114c0 54.667 20.5 96 61.5 124s96.833 42 167.5 42h90v52c0 41.333 -9.66699 71.833 -29 91.5s-51.333 29.5 -96 29.5
c-19.333 0 -40.5 -2 -63.5 -6s-48.833 -11.667 -77.5 -23l-16 45c32 12.667 61.333 21.334 88 26.001s52.334 7 77.001 7c62 0 106.5 -14.667 133.5 -44s40.5 -70.333 40.5 -123v-253c0 -28.667 4.16699 -48.667 12.5 -60s20.833 -19.666 37.5 -24.999l-13 -40
c-23.333 4 -42.333 12.167 -57 24.5s-24.667 33.5 -30 63.5v1zM364 266.998h-87c-56.667 0 -99.334 -9.66699 -128.001 -29s-43 -49 -43 -89c0 -36 9.83301 -63.5 29.5 -82.5s47.834 -28.5 84.501 -28.5c32.667 0 61.167 8.66699 85.5 26s43.833 40.333 58.5 69v134z
M146 650.998l182 105l32 -52l-194 -87z" />
    <glyph glyph-name="acircumflex" unicode="&#xe2;" horiz-adv-x="521" 
d="M371 78c-18.667 -31.333 -42.334 -54.002 -71.001 -68.002s-60 -21 -94 -21c-50.667 0 -90.167 14.333 -118.5 43s-42.5 66.667 -42.5 114c0 54.667 20.5 96 61.5 124s96.833 42 167.5 42h90v52c0 41.333 -9.66699 71.833 -29 91.5s-51.333 29.5 -96 29.5
c-19.333 0 -40.5 -2 -63.5 -6s-48.833 -11.667 -77.5 -23l-16 45c32 12.667 61.333 21.334 88 26.001s52.334 7 77.001 7c62 0 106.5 -14.667 133.5 -44s40.5 -70.333 40.5 -123v-253c0 -28.667 4.16699 -48.667 12.5 -60s20.833 -19.666 37.5 -24.999l-13 -40
c-23.333 4 -42.333 12.167 -57 24.5s-24.667 33.5 -30 63.5v1zM364 266.998h-87c-56.667 0 -99.334 -9.66699 -128.001 -29s-43 -49 -43 -89c0 -36 9.83301 -63.5 29.5 -82.5s47.834 -28.5 84.501 -28.5c32.667 0 61.167 8.66699 85.5 26s43.833 40.333 58.5 69v134z
M135 618.998l-27 30l130 108h30l129 -108l-26 -30l-118 85z" />
    <glyph glyph-name="atilde" unicode="&#xe3;" horiz-adv-x="521" 
d="M371 78c-18.667 -31.333 -42.334 -54.002 -71.001 -68.002s-60 -21 -94 -21c-50.667 0 -90.167 14.333 -118.5 43s-42.5 66.667 -42.5 114c0 54.667 20.5 96 61.5 124s96.833 42 167.5 42h90v52c0 41.333 -9.66699 71.833 -29 91.5s-51.333 29.5 -96 29.5
c-19.333 0 -40.5 -2 -63.5 -6s-48.833 -11.667 -77.5 -23l-16 45c32 12.667 61.333 21.334 88 26.001s52.334 7 77.001 7c62 0 106.5 -14.667 133.5 -44s40.5 -70.333 40.5 -123v-253c0 -28.667 4.16699 -48.667 12.5 -60s20.833 -19.666 37.5 -24.999l-13 -40
c-23.333 4 -42.333 12.167 -57 24.5s-24.667 33.5 -30 63.5v1zM364 266.998h-87c-56.667 0 -99.334 -9.66699 -128.001 -29s-43 -49 -43 -89c0 -36 9.83301 -63.5 29.5 -82.5s47.834 -28.5 84.501 -28.5c32.667 0 61.167 8.66699 85.5 26s43.833 40.333 58.5 69v134z
M306 644.998c-12 0 -22.9971 2.33203 -32.9971 6.99902s-19.5 9.83398 -28.5 15.501l-25 15.5c-7.66699 4.66699 -15.167 7 -22.5 7c-12 0 -22.167 -3.83301 -30.5 -11.5s-16.5 -18.5 -24.5 -32.5l-35 17c10 23.333 22.5 41.333 37.5 54s33.167 19 54.5 19
c14 0 26.167 -2.33301 36.5 -7s19.666 -9.83398 27.999 -15.501l23.5 -15.5c7.33301 -4.66699 14.666 -7 21.999 -7c11.333 0 21.166 3.66699 29.499 11s16.5 18 24.5 32l36 -17c-10.667 -23.333 -23.5 -41.166 -38.5 -53.499s-33.167 -18.5 -54.5 -18.5z" />
    <glyph glyph-name="adieresis" unicode="&#xe4;" horiz-adv-x="521" 
d="M371 78c-18.667 -31.333 -42.334 -54.002 -71.001 -68.002s-60 -21 -94 -21c-50.667 0 -90.167 14.333 -118.5 43s-42.5 66.667 -42.5 114c0 54.667 20.5 96 61.5 124s96.833 42 167.5 42h90v52c0 41.333 -9.66699 71.833 -29 91.5s-51.333 29.5 -96 29.5
c-19.333 0 -40.5 -2 -63.5 -6s-48.833 -11.667 -77.5 -23l-16 45c32 12.667 61.333 21.334 88 26.001s52.334 7 77.001 7c62 0 106.5 -14.667 133.5 -44s40.5 -70.333 40.5 -123v-253c0 -28.667 4.16699 -48.667 12.5 -60s20.833 -19.666 37.5 -24.999l-13 -40
c-23.333 4 -42.333 12.167 -57 24.5s-24.667 33.5 -30 63.5v1zM364 266.998h-87c-56.667 0 -99.334 -9.66699 -128.001 -29s-43 -49 -43 -89c0 -36 9.83301 -63.5 29.5 -82.5s47.834 -28.5 84.501 -28.5c32.667 0 61.167 8.66699 85.5 26s43.833 40.333 58.5 69v134z
M119 667.998c0 11.333 3.66699 20.666 11 27.999s17 11 29 11s21.667 -3.66699 29 -11s11 -16.666 11 -27.999s-3.66699 -20.666 -11 -27.999s-17 -11 -29 -11s-21.667 3.66699 -29 11s-11 16.666 -11 27.999zM307 667.998c0 11.333 3.66699 20.666 11 27.999s17 11 29 11
s21.667 -3.66699 29 -11s11 -16.666 11 -27.999s-3.66699 -20.666 -11 -27.999s-17 -11 -29 -11s-21.667 3.66699 -29 11s-11 16.666 -11 27.999z" />
    <glyph glyph-name="aring" unicode="&#xe5;" horiz-adv-x="521" 
d="M371 78c-18.667 -31.333 -42.334 -54.002 -71.001 -68.002s-60 -21 -94 -21c-50.667 0 -90.167 14.333 -118.5 43s-42.5 66.667 -42.5 114c0 54.667 20.5 96 61.5 124s96.833 42 167.5 42h90v52c0 41.333 -9.66699 71.833 -29 91.5s-51.333 29.5 -96 29.5
c-19.333 0 -40.5 -2 -63.5 -6s-48.833 -11.667 -77.5 -23l-16 45c32 12.667 61.333 21.334 88 26.001s52.334 7 77.001 7c62 0 106.5 -14.667 133.5 -44s40.5 -70.333 40.5 -123v-253c0 -28.667 4.16699 -48.667 12.5 -60s20.833 -19.666 37.5 -24.999l-13 -40
c-23.333 4 -42.333 12.167 -57 24.5s-24.667 33.5 -30 63.5v1zM364 266.998h-87c-56.667 0 -99.334 -9.66699 -128.001 -29s-43 -49 -43 -89c0 -36 9.83301 -63.5 29.5 -82.5s47.834 -28.5 84.501 -28.5c32.667 0 61.167 8.66699 85.5 26s43.833 40.333 58.5 69v134z
M253 611.998c-28.667 0 -52 8.33301 -70 25s-27 38.667 -27 66s9 49.333 27 66s41.333 25 70 25s52 -8.33301 70 -25s27 -38.667 27 -66s-9 -49.333 -27 -66s-41.333 -25 -70 -25zM253 645.998c17.333 0 30.666 5.16699 39.999 15.5s14 24.166 14 41.499
s-4.66699 31.166 -14 41.499s-22.666 15.5 -39.999 15.5s-30.666 -5.16699 -39.999 -15.5s-14 -24.166 -14 -41.499s4.66699 -31.166 14 -41.499s22.666 -15.5 39.999 -15.5z" />
    <glyph glyph-name="ae" unicode="&#xe6;" horiz-adv-x="832" 
d="M424 239c2 -35.333 7.49805 -65.5029 16.498 -90.5029s20.833 -45.833 35.5 -62.5s31.834 -28.834 51.501 -36.501s40.5 -11.5 62.5 -11.5c28 0 52.833 4 74.5 12s43.5 21.667 65.5 41l27 -39c-46 -42 -102.333 -63 -169 -63c-44 0 -81.833 9.83301 -113.5 29.5
s-56.834 45.834 -75.501 78.501c-27.333 -41.333 -56.666 -69.666 -87.999 -84.999s-66.333 -23 -105 -23c-50.667 0 -90.167 14.5 -118.5 43.5s-42.5 67.167 -42.5 114.5c0 54.667 20.5 95.834 61.5 123.501s96.833 41.5 167.5 41.5h90v52c0 38 -9.66699 67.667 -29 89
s-51.333 32 -96 32c-19.333 0 -40.5 -2 -63.5 -6s-48.833 -11.667 -77.5 -23l-16 45c32 12.667 61.333 21.334 88 26.001s52.334 7 77.001 7c46.667 0 83 -9.16699 109 -27.5s42.667 -44.5 50 -78.5c14.667 34 37.5 60.167 68.5 78.5s64.5 27.5 100.5 27.5
c65.333 0 114.5 -22.333 147.5 -67s49.5 -108 49.5 -190c0 -6 -0.166992 -12.5 -0.5 -19.5s-0.833008 -13.167 -1.5 -18.5h-346zM378.998 144.997c-10 32.667 -14.999 70.667 -14.999 114v8h-87c-56.667 0 -99.334 -9.33301 -128.001 -28s-43 -47.667 -43 -87
c0 -36 10 -64 30 -84s48 -30 84 -30c32.667 0 62.5 8.83301 89.5 26.5s50.167 44.5 69.5 80.5zM574.999 484.997c-42 0 -76.835 -16.001 -104.502 -48.001s-43.167 -83 -46.5 -153h291c-1.33301 64.667 -13.166 114.334 -35.499 149.001s-57.166 52 -104.499 52z" />
    <glyph glyph-name="ccedilla" unicode="&#xe7;" horiz-adv-x="479" 
d="M319 -142c0 17.333 -7.16797 28.8301 -21.501 34.4971s-33.5 8.83398 -57.5 9.50098l6 90c-56.667 8.66699 -101 36.334 -133 83.001s-48 108 -48 184c0 41.333 5.16699 78.833 15.5 112.5s25.333 62.5 45 86.5s43.167 42.667 70.5 56s58 20 92 20
c30 0 57.667 -4.16699 83 -12.5s49.666 -22.166 72.999 -41.499l-30 -39c-19.333 15.333 -39.166 26.5 -59.499 33.5s-42.5 10.5 -66.5 10.5c-48 0 -87 -18.667 -117 -56s-45 -94 -45 -170c0 -75.333 15 -131 45 -167s69 -54 117 -54c24 0 46.167 3.5 66.5 10.5
s40.833 18.833 61.5 35.5l28 -40c-21.333 -17.333 -45 -30.5 -71 -39.5s-53 -14.167 -81 -15.5v-56c30 -3.33301 51.5 -11.5 64.5 -24.5s19.5 -30.167 19.5 -51.5c0 -28 -10.5 -48.833 -31.5 -62.5s-46.5 -20.5 -76.5 -20.5c-18.667 0 -34.667 1.66699 -48 5
s-25.666 8 -36.999 14l22 39c7.33301 -4 16.333 -7.33301 27 -10s21 -4 31 -4c16.667 0 30.167 2.83301 40.5 8.5s15.5 16.167 15.5 31.5z" />
    <glyph glyph-name="egrave" unicode="&#xe8;" horiz-adv-x="538" 
d="M124 239c2 -35.333 7.5 -65.4971 16.5 -90.4971s21 -45.833 36 -62.5s32.333 -28.834 52 -36.501s40.5 -11.5 62.5 -11.5c28 0 53 4 75 12s44 21.667 66 41l27 -39c-46 -42 -102.667 -63 -170 -63c-36 0 -67.833 6.33301 -95.5 19s-51 30.667 -70 54
s-33.5 51.666 -43.5 84.999s-15 70.666 -15 111.999s4.83301 78.833 14.5 112.5s23.667 62.5 42 86.5s40.5 42.667 66.5 56s55.333 20 88 20c65.333 0 115.333 -22.833 150 -68.5s52 -108.5 52 -188.5c0 -6 -0.166992 -12.5 -0.5 -19.5s-0.833008 -13.167 -1.5 -18.5h-352z
M276 485.003c-42 0 -77 -16.001 -105 -48.001s-43.667 -83 -47 -153h297c-1.33301 64.667 -14 114.334 -38 149.001s-59.667 52 -107 52zM366 617.002l-194 87l32 52l182 -105z" />
    <glyph glyph-name="eacute" unicode="&#xe9;" horiz-adv-x="538" 
d="M124 239c2 -35.333 7.5 -65.4971 16.5 -90.4971s21 -45.833 36 -62.5s32.333 -28.834 52 -36.501s40.5 -11.5 62.5 -11.5c28 0 53 4 75 12s44 21.667 66 41l27 -39c-46 -42 -102.667 -63 -170 -63c-36 0 -67.833 6.33301 -95.5 19s-51 30.667 -70 54
s-33.5 51.666 -43.5 84.999s-15 70.666 -15 111.999s4.83301 78.833 14.5 112.5s23.667 62.5 42 86.5s40.5 42.667 66.5 56s55.333 20 88 20c65.333 0 115.333 -22.833 150 -68.5s52 -108.5 52 -188.5c0 -6 -0.166992 -12.5 -0.5 -19.5s-0.833008 -13.167 -1.5 -18.5h-352z
M276 485.003c-42 0 -77 -16.001 -105 -48.001s-43.667 -83 -47 -153h297c-1.33301 64.667 -14 114.334 -38 149.001s-59.667 52 -107 52zM172 651.002l182 105l32 -52l-194 -87z" />
    <glyph glyph-name="ecircumflex" unicode="&#xea;" horiz-adv-x="538" 
d="M124 239c2 -35.333 7.5 -65.4971 16.5 -90.4971s21 -45.833 36 -62.5s32.333 -28.834 52 -36.501s40.5 -11.5 62.5 -11.5c28 0 53 4 75 12s44 21.667 66 41l27 -39c-46 -42 -102.667 -63 -170 -63c-36 0 -67.833 6.33301 -95.5 19s-51 30.667 -70 54
s-33.5 51.666 -43.5 84.999s-15 70.666 -15 111.999s4.83301 78.833 14.5 112.5s23.667 62.5 42 86.5s40.5 42.667 66.5 56s55.333 20 88 20c65.333 0 115.333 -22.833 150 -68.5s52 -108.5 52 -188.5c0 -6 -0.166992 -12.5 -0.5 -19.5s-0.833008 -13.167 -1.5 -18.5h-352z
M276 485.003c-42 0 -77 -16.001 -105 -48.001s-43.667 -83 -47 -153h297c-1.33301 64.667 -14 114.334 -38 149.001s-59.667 52 -107 52zM161 619.002l-27 30l130 108h30l129 -108l-26 -30l-118 85z" />
    <glyph glyph-name="edieresis" unicode="&#xeb;" horiz-adv-x="538" 
d="M124 239c2 -35.333 7.5 -65.4971 16.5 -90.4971s21 -45.833 36 -62.5s32.333 -28.834 52 -36.501s40.5 -11.5 62.5 -11.5c28 0 53 4 75 12s44 21.667 66 41l27 -39c-46 -42 -102.667 -63 -170 -63c-36 0 -67.833 6.33301 -95.5 19s-51 30.667 -70 54
s-33.5 51.666 -43.5 84.999s-15 70.666 -15 111.999s4.83301 78.833 14.5 112.5s23.667 62.5 42 86.5s40.5 42.667 66.5 56s55.333 20 88 20c65.333 0 115.333 -22.833 150 -68.5s52 -108.5 52 -188.5c0 -6 -0.166992 -12.5 -0.5 -19.5s-0.833008 -13.167 -1.5 -18.5h-352z
M276 485.003c-42 0 -77 -16.001 -105 -48.001s-43.667 -83 -47 -153h297c-1.33301 64.667 -14 114.334 -38 149.001s-59.667 52 -107 52zM145 668.002c0 11.333 3.66699 20.666 11 27.999s17 11 29 11s21.667 -3.66699 29 -11s11 -16.666 11 -27.999
s-3.66699 -20.666 -11 -27.999s-17 -11 -29 -11s-21.667 3.66699 -29 11s-11 16.666 -11 27.999zM333 668.002c0 11.333 3.66699 20.666 11 27.999s17 11 29 11s21.667 -3.66699 29 -11s11 -16.666 11 -27.999s-3.66699 -20.666 -11 -27.999s-17 -11 -29 -11
s-21.667 3.66699 -29 11s-11 16.666 -11 27.999z" />
    <glyph glyph-name="igrave" unicode="&#xec;" horiz-adv-x="267" 
d="M162 523v-523h-57v523h57zM210 617l-194 87l32 52l182 -105z" />
    <glyph glyph-name="iacute" unicode="&#xed;" horiz-adv-x="267" 
d="M162 523v-523h-57v523h57zM36 651l182 105l32 -52l-194 -87z" />
    <glyph glyph-name="icircumflex" unicode="&#xee;" horiz-adv-x="267" 
d="M162 523v-523h-57v523h57zM16 619l-27 30l130 108h30l129 -108l-26 -30l-118 85z" />
    <glyph glyph-name="idieresis" unicode="&#xef;" horiz-adv-x="267" 
d="M162 523v-523h-57v523h57zM-1 668c0 11.333 3.66699 20.666 11 27.999s17 11 29 11s21.667 -3.66699 29 -11s11 -16.666 11 -27.999s-3.66699 -20.666 -11 -27.999s-17 -11 -29 -11s-21.667 3.66699 -29 11s-11 16.666 -11 27.999zM187 668
c0 11.333 3.66699 20.666 11 27.999s17 11 29 11s21.667 -3.66699 29 -11s11 -16.666 11 -27.999s-3.66699 -20.666 -11 -27.999s-17 -11 -29 -11s-21.667 3.66699 -29 11s-11 16.666 -11 27.999z" />
    <glyph glyph-name="eth" unicode="&#xf0;" horiz-adv-x="558" 
d="M180 565l78.998 82.998c-38 21.333 -80.333 37 -127 47l7 48c30 -6.66699 58.167 -14.5 84.5 -23.5s50.5 -20.167 72.5 -33.5l69 73l36 -30l-67 -68c52.667 -40 91.5 -91.5 116.5 -154.5s37.5 -140.167 37.5 -231.5c0 -43.333 -4.83301 -82.666 -14.5 -117.999
s-23.667 -65.5 -42 -90.5s-40.833 -44.167 -67.5 -57.5s-57 -20 -91 -20c-31.333 0 -59.666 5.66699 -84.999 17s-47.166 27.166 -65.499 47.499s-32.5 44.833 -42.5 73.5s-15 60.667 -15 96c0 34 5.16699 65.5 15.5 94.5s24.333 53.833 42 74.5
s38.334 36.834 62.001 48.501s48.834 17.5 75.501 17.5c35.333 0 66.166 -6.66699 92.499 -20s50.166 -33 71.499 -59c-6 52 -19.5 98.333 -40.5 139s-50.167 75.334 -87.5 104.001l-74 -76zM428.998 306.998c-21.333 33.333 -45.3301 58.6689 -71.9971 76.002
s-56 26 -88 26c-21.333 0 -40.833 -4.5 -58.5 -13.5s-32.834 -21.833 -45.501 -38.5s-22.334 -36.334 -29.001 -59.001s-10 -47.334 -10 -74.001c0 -27.333 3.5 -52.333 10.5 -75s17 -42.167 30 -58.5s28.5 -29 46.5 -38s38.333 -13.5 61 -13.5
c51.333 0 90.166 22.167 116.499 66.5s39.5 106.833 39.5 187.5z" />
    <glyph glyph-name="ntilde" unicode="&#xf1;" horiz-adv-x="581" 
d="M163 434c21.333 32 46.5 56.666 75.5 73.999s61.833 26 98.5 26c50 0 85.667 -13.667 107 -41s32 -66.666 32 -117.999v-375h-57v365c0 42.667 -7.66699 73.5 -23 92.5s-40 28.5 -74 28.5c-16.667 0 -32.5 -3.16699 -47.5 -9.5s-29 -14.833 -42 -25.5
s-25 -22.667 -36 -36s-20.833 -27 -29.5 -41v-374h-57v523h49zM343 644.999c-12 0 -22.9971 2.33203 -32.9971 6.99902s-19.5 9.83398 -28.5 15.501l-25 15.5c-7.66699 4.66699 -15.167 7 -22.5 7c-12 0 -22.167 -3.83301 -30.5 -11.5s-16.5 -18.5 -24.5 -32.5l-35 17
c10 23.333 22.5 41.333 37.5 54s33.167 19 54.5 19c14 0 26.167 -2.33301 36.5 -7s19.666 -9.83398 27.999 -15.501l23.5 -15.5c7.33301 -4.66699 14.666 -7 21.999 -7c11.333 0 21.166 3.66699 29.499 11s16.5 18 24.5 32l36 -17
c-10.667 -23.333 -23.5 -41.166 -38.5 -53.499s-33.167 -18.5 -54.5 -18.5z" />
    <glyph glyph-name="ograve" unicode="&#xf2;" horiz-adv-x="572" 
d="M65 261c0 42 5.16895 79.832 15.502 113.499s25.166 62.334 44.499 86.001s42.666 41.834 69.999 54.501s58.333 19 93 19c34 0 64.667 -6.16699 92 -18.5s50.333 -30.333 69 -54s33 -52.167 43 -85.5s15 -71 15 -113s-5.16699 -79.833 -15.5 -113.5
s-25 -62.334 -44 -86.001s-42.167 -42 -69.5 -55s-58.333 -19.5 -93 -19.5s-65.5 6.33301 -92.5 19s-50 30.667 -69 54s-33.5 51.833 -43.5 85.5s-15 71.5 -15 113.5zM288.002 485.999c-50.667 0 -90.333 -18.668 -119 -56.001s-43 -93.666 -43 -168.999
c0 -74 14 -129.833 42 -167.5s67 -56.5 117 -56.5c50.667 0 90.167 18.833 118.5 56.5s42.5 94.167 42.5 169.5c0 74 -13.833 129.667 -41.5 167s-66.5 56 -116.5 56zM363.003 616.998l-194 87l32 52l182 -105z" />
    <glyph glyph-name="oacute" unicode="&#xf3;" horiz-adv-x="572" 
d="M65 261c0 42 5.16895 79.832 15.502 113.499s25.166 62.334 44.499 86.001s42.666 41.834 69.999 54.501s58.333 19 93 19c34 0 64.667 -6.16699 92 -18.5s50.333 -30.333 69 -54s33 -52.167 43 -85.5s15 -71 15 -113s-5.16699 -79.833 -15.5 -113.5
s-25 -62.334 -44 -86.001s-42.167 -42 -69.5 -55s-58.333 -19.5 -93 -19.5s-65.5 6.33301 -92.5 19s-50 30.667 -69 54s-33.5 51.833 -43.5 85.5s-15 71.5 -15 113.5zM288.002 485.999c-50.667 0 -90.333 -18.668 -119 -56.001s-43 -93.666 -43 -168.999
c0 -74 14 -129.833 42 -167.5s67 -56.5 117 -56.5c50.667 0 90.167 18.833 118.5 56.5s42.5 94.167 42.5 169.5c0 74 -13.833 129.667 -41.5 167s-66.5 56 -116.5 56zM189.003 650.998l182 105l32 -52l-194 -87z" />
    <glyph glyph-name="ocircumflex" unicode="&#xf4;" horiz-adv-x="572" 
d="M65 261c0 42 5.16895 79.832 15.502 113.499s25.166 62.334 44.499 86.001s42.666 41.834 69.999 54.501s58.333 19 93 19c34 0 64.667 -6.16699 92 -18.5s50.333 -30.333 69 -54s33 -52.167 43 -85.5s15 -71 15 -113s-5.16699 -79.833 -15.5 -113.5
s-25 -62.334 -44 -86.001s-42.167 -42 -69.5 -55s-58.333 -19.5 -93 -19.5s-65.5 6.33301 -92.5 19s-50 30.667 -69 54s-33.5 51.833 -43.5 85.5s-15 71.5 -15 113.5zM288.002 485.999c-50.667 0 -90.333 -18.668 -119 -56.001s-43 -93.666 -43 -168.999
c0 -74 14 -129.833 42 -167.5s67 -56.5 117 -56.5c50.667 0 90.167 18.833 118.5 56.5s42.5 94.167 42.5 169.5c0 74 -13.833 129.667 -41.5 167s-66.5 56 -116.5 56zM168.003 618.998l-27 30l130 108h30l129 -108l-26 -30l-118 85z" />
    <glyph glyph-name="otilde" unicode="&#xf5;" horiz-adv-x="572" 
d="M65 261c0 42 5.16895 79.832 15.502 113.499s25.166 62.334 44.499 86.001s42.666 41.834 69.999 54.501s58.333 19 93 19c34 0 64.667 -6.16699 92 -18.5s50.333 -30.333 69 -54s33 -52.167 43 -85.5s15 -71 15 -113s-5.16699 -79.833 -15.5 -113.5
s-25 -62.334 -44 -86.001s-42.167 -42 -69.5 -55s-58.333 -19.5 -93 -19.5s-65.5 6.33301 -92.5 19s-50 30.667 -69 54s-33.5 51.833 -43.5 85.5s-15 71.5 -15 113.5zM288.002 485.999c-50.667 0 -90.333 -18.668 -119 -56.001s-43 -93.666 -43 -168.999
c0 -74 14 -129.833 42 -167.5s67 -56.5 117 -56.5c50.667 0 90.167 18.833 118.5 56.5s42.5 94.167 42.5 169.5c0 74 -13.833 129.667 -41.5 167s-66.5 56 -116.5 56zM339.003 644.998c-12 0 -22.9971 2.33203 -32.9971 6.99902s-19.5 9.83398 -28.5 15.501l-25 15.5
c-7.66699 4.66699 -15.167 7 -22.5 7c-12 0 -22.167 -3.83301 -30.5 -11.5s-16.5 -18.5 -24.5 -32.5l-35 17c10 23.333 22.5 41.333 37.5 54s33.167 19 54.5 19c14 0 26.167 -2.33301 36.5 -7s19.666 -9.83398 27.999 -15.501l23.5 -15.5
c7.33301 -4.66699 14.666 -7 21.999 -7c11.333 0 21.166 3.66699 29.499 11s16.5 18 24.5 32l36 -17c-10.667 -23.333 -23.5 -41.166 -38.5 -53.499s-33.167 -18.5 -54.5 -18.5z" />
    <glyph glyph-name="odieresis" unicode="&#xf6;" horiz-adv-x="572" 
d="M65 261c0 42 5.16895 79.832 15.502 113.499s25.166 62.334 44.499 86.001s42.666 41.834 69.999 54.501s58.333 19 93 19c34 0 64.667 -6.16699 92 -18.5s50.333 -30.333 69 -54s33 -52.167 43 -85.5s15 -71 15 -113s-5.16699 -79.833 -15.5 -113.5
s-25 -62.334 -44 -86.001s-42.167 -42 -69.5 -55s-58.333 -19.5 -93 -19.5s-65.5 6.33301 -92.5 19s-50 30.667 -69 54s-33.5 51.833 -43.5 85.5s-15 71.5 -15 113.5zM288.002 485.999c-50.667 0 -90.333 -18.668 -119 -56.001s-43 -93.666 -43 -168.999
c0 -74 14 -129.833 42 -167.5s67 -56.5 117 -56.5c50.667 0 90.167 18.833 118.5 56.5s42.5 94.167 42.5 169.5c0 74 -13.833 129.667 -41.5 167s-66.5 56 -116.5 56zM152.003 667.998c0 11.333 3.66699 20.666 11 27.999s17 11 29 11s21.667 -3.66699 29 -11
s11 -16.666 11 -27.999s-3.66699 -20.666 -11 -27.999s-17 -11 -29 -11s-21.667 3.66699 -29 11s-11 16.666 -11 27.999zM340.003 667.998c0 11.333 3.66699 20.666 11 27.999s17 11 29 11s21.667 -3.66699 29 -11s11 -16.666 11 -27.999s-3.66699 -20.666 -11 -27.999
s-17 -11 -29 -11s-21.667 3.66699 -29 11s-11 16.666 -11 27.999z" />
    <glyph glyph-name="divide" unicode="&#xf7;" horiz-adv-x="500" 
d="M70 286v52h360v-52h-360zM202 507c0 13.333 4.33301 24.5 13 33.5s20.334 13.5 35.001 13.5c15.333 0 27.166 -4.5 35.499 -13.5s12.5 -20.167 12.5 -33.5s-4.16699 -24.5 -12.5 -33.5s-20.166 -13.5 -35.499 -13.5c-14.667 0 -26.334 4.5 -35.001 13.5
s-13 20.167 -13 33.5zM202 117c0 13.333 4.33301 24.5 13 33.5s20.334 13.5 35.001 13.5c15.333 0 27.166 -4.5 35.499 -13.5s12.5 -20.167 12.5 -33.5s-4.16699 -24.5 -12.5 -33.5s-20.166 -13.5 -35.499 -13.5c-14.667 0 -26.334 4.5 -35.001 13.5s-13 20.167 -13 33.5z
" />
    <glyph glyph-name="oslash" unicode="&#xf8;" horiz-adv-x="572" 
d="M65 261c0 42 5.16992 79.833 15.5029 113.5s25.166 62.334 44.499 86.001s42.666 41.834 69.999 54.501s58.333 19 93 19c10 0 19.667 -0.666992 29 -2s18.666 -3 27.999 -5l35 112l49 -15l-38 -115c37.333 -20 66 -50.833 86 -92.5s30 -92.834 30 -153.501
c0 -42 -5.16699 -79.833 -15.5 -113.5s-25 -62.334 -44 -86.001s-42.167 -42 -69.5 -55s-58.333 -19.5 -93 -19.5c-19.333 0 -37.333 2 -54 6l-36 -116l-49 15l38 118c-38 19.333 -67.333 50.333 -88 93s-31 94.667 -31 156zM288.003 486
c-50.667 0 -90.333 -18.668 -119 -56.001s-43 -93.666 -43 -168.999c0 -102 25.333 -169.333 76 -202l131 421c-14 4 -29 6 -45 6zM446.004 262.999c0 50 -6.16797 91.332 -18.501 123.999s-30.166 57.334 -53.499 74.001l-130 -420c11.333 -2.66699 25 -4 41 -4
c50.667 0 90.167 18.833 118.5 56.5s42.5 94.167 42.5 169.5z" />
    <glyph glyph-name="ugrave" unicode="&#xf9;" horiz-adv-x="575" 
d="M412 89c-21.333 -32 -45.833 -56.667 -73.5 -74s-59.167 -26 -94.5 -26c-48 0 -83.167 13.5 -105.5 40.5s-33.5 66.167 -33.5 117.5v376h57v-369c0 -42 7.66699 -72 23 -90s38.333 -27 69 -27c16 0 31.5 3.16699 46.5 9.5s29 14.833 42 25.5s25 22.667 36 36
s20.833 27 29.5 41v374h57v-523h-49zM374 617l-194 87l32 52l182 -105z" />
    <glyph glyph-name="uacute" unicode="&#xfa;" horiz-adv-x="575" 
d="M412 89c-21.333 -32 -45.833 -56.667 -73.5 -74s-59.167 -26 -94.5 -26c-48 0 -83.167 13.5 -105.5 40.5s-33.5 66.167 -33.5 117.5v376h57v-369c0 -42 7.66699 -72 23 -90s38.333 -27 69 -27c16 0 31.5 3.16699 46.5 9.5s29 14.833 42 25.5s25 22.667 36 36
s20.833 27 29.5 41v374h57v-523h-49zM190 651l182 105l32 -52l-194 -87z" />
    <glyph glyph-name="ucircumflex" unicode="&#xfb;" horiz-adv-x="575" 
d="M412 89c-21.333 -32 -45.833 -56.667 -73.5 -74s-59.167 -26 -94.5 -26c-48 0 -83.167 13.5 -105.5 40.5s-33.5 66.167 -33.5 117.5v376h57v-369c0 -42 7.66699 -72 23 -90s38.333 -27 69 -27c16 0 31.5 3.16699 46.5 9.5s29 14.833 42 25.5s25 22.667 36 36
s20.833 27 29.5 41v374h57v-523h-49zM170 619l-27 30l130 108h30l129 -108l-26 -30l-118 85z" />
    <glyph glyph-name="udieresis" unicode="&#xfc;" horiz-adv-x="575" 
d="M412 89c-21.333 -32 -45.833 -56.667 -73.5 -74s-59.167 -26 -94.5 -26c-48 0 -83.167 13.5 -105.5 40.5s-33.5 66.167 -33.5 117.5v376h57v-369c0 -42 7.66699 -72 23 -90s38.333 -27 69 -27c16 0 31.5 3.16699 46.5 9.5s29 14.833 42 25.5s25 22.667 36 36
s20.833 27 29.5 41v374h57v-523h-49zM153 668c0 11.333 3.66699 20.666 11 27.999s17 11 29 11s21.667 -3.66699 29 -11s11 -16.666 11 -27.999s-3.66699 -20.666 -11 -27.999s-17 -11 -29 -11s-21.667 3.66699 -29 11s-11 16.666 -11 27.999zM341 668
c0 11.333 3.66699 20.666 11 27.999s17 11 29 11s21.667 -3.66699 29 -11s11 -16.666 11 -27.999s-3.66699 -20.666 -11 -27.999s-17 -11 -29 -11s-21.667 3.66699 -29 11s-11 16.666 -11 27.999z" />
    <glyph glyph-name="yacute" unicode="&#xfd;" horiz-adv-x="466" 
d="M78 523l160.999 -477.001h2l149 477h61l-176 -525c-9.33301 -28 -19.666 -53.333 -30.999 -76s-25.333 -42.667 -42 -60s-36.667 -31.666 -60 -42.999s-51.333 -19.333 -84 -24l-8 47c26 4.66699 48.167 11.5 66.5 20.5s34 20 47 33s24 28.167 33 45.5s17.167 37 24.5 59
h-20l-186 523h63zM135.999 650.999l182 105l32 -52l-194 -87z" />
    <glyph glyph-name="thorn" unicode="&#xfe;" horiz-adv-x="580" 
d="M167 442c19.333 29.333 42.167 51.998 68.5 67.998s56.833 24 91.5 24c32 0 59.833 -6.16699 83.5 -18.5s43.334 -30.166 59.001 -53.499s27.167 -51.666 34.5 -84.999s11 -71 11 -113c0 -41.333 -4.5 -78.833 -13.5 -112.5s-22.167 -62.5 -39.5 -86.5
s-38.5 -42.667 -63.5 -56s-53.5 -20 -85.5 -20c-30.667 0 -57.834 6 -81.501 18s-45.167 31.667 -64.5 59v-263l-57 -8v941l57 7v-301zM316.001 484.998c-33.333 0 -62.168 -10.333 -86.501 -31s-45.166 -45.667 -62.499 -75v-250c16 -26 35.5 -47.5 58.5 -64.5
s49.167 -25.5 78.5 -25.5c48 0 85 18.5 111 55.5s39 93.5 39 169.5c0 147.333 -46 221 -138 221z" />
    <glyph glyph-name="ydieresis" unicode="&#xff;" horiz-adv-x="466" 
d="M78 523l160.999 -477.001h2l149 477h61l-176 -525c-9.33301 -28 -19.666 -53.333 -30.999 -76s-25.333 -42.667 -42 -60s-36.667 -31.666 -60 -42.999s-51.333 -19.333 -84 -24l-8 47c26 4.66699 48.167 11.5 66.5 20.5s34 20 47 33s24 28.167 33 45.5s17.167 37 24.5 59
h-20l-186 523h63zM106.999 667.999c0 11.333 3.66699 20.666 11 27.999s17 11 29 11s21.667 -3.66699 29 -11s11 -16.666 11 -27.999s-3.66699 -20.666 -11 -27.999s-17 -11 -29 -11s-21.667 3.66699 -29 11s-11 16.666 -11 27.999zM294.999 667.999
c0 11.333 3.66699 20.666 11 27.999s17 11 29 11s21.667 -3.66699 29 -11s11 -16.666 11 -27.999s-3.66699 -20.666 -11 -27.999s-17 -11 -29 -11s-21.667 3.66699 -29 11s-11 16.666 -11 27.999z" />
    <glyph glyph-name="Amacron" unicode="&#x100;" horiz-adv-x="545" 
d="M414 185h-285l-59 -185h-60l225 685h75l225 -685h-62zM145 235h253l-125 397h-2zM389 797h-234v47h234v-47z" />
    <glyph glyph-name="amacron" unicode="&#x101;" horiz-adv-x="521" 
d="M371 78c-18.667 -31.333 -42.334 -54.002 -71.001 -68.002s-60 -21 -94 -21c-50.667 0 -90.167 14.333 -118.5 43s-42.5 66.667 -42.5 114c0 54.667 20.5 96 61.5 124s96.833 42 167.5 42h90v52c0 41.333 -9.66699 71.833 -29 91.5s-51.333 29.5 -96 29.5
c-19.333 0 -40.5 -2 -63.5 -6s-48.833 -11.667 -77.5 -23l-16 45c32 12.667 61.333 21.334 88 26.001s52.334 7 77.001 7c62 0 106.5 -14.667 133.5 -44s40.5 -70.333 40.5 -123v-253c0 -28.667 4.16699 -48.667 12.5 -60s20.833 -19.666 37.5 -24.999l-13 -40
c-23.333 4 -42.333 12.167 -57 24.5s-24.667 33.5 -30 63.5v1zM364 266.998h-87c-56.667 0 -99.334 -9.66699 -128.001 -29s-43 -49 -43 -89c0 -36 9.83301 -63.5 29.5 -82.5s47.834 -28.5 84.501 -28.5c32.667 0 61.167 8.66699 85.5 26s43.833 40.333 58.5 69v134z
M370 666.998h-234v47h234v-47z" />
    <glyph glyph-name="Abreve" unicode="&#x102;" horiz-adv-x="545" 
d="M414 185h-285l-59 -185h-60l225 685h75l225 -685h-62zM145 235h253l-125 397h-2zM272 765c-18.667 0 -35.335 2.83301 -50.002 8.5s-27.167 13.167 -37.5 22.5s-18.5 19.833 -24.5 31.5s-10 23.5 -12 35.5l38 10c7.33301 -18 17.833 -32.667 31.5 -44
s31.834 -17 54.501 -17s40.834 5.66699 54.501 17s24.167 26 31.5 44l38 -10c-2 -12 -6 -23.833 -12 -35.5s-14 -22.167 -24 -31.5s-22.333 -16.833 -37 -22.5s-31.667 -8.5 -51 -8.5z" />
    <glyph glyph-name="abreve" unicode="&#x103;" horiz-adv-x="521" 
d="M371 78c-18.667 -31.333 -42.334 -54.002 -71.001 -68.002s-60 -21 -94 -21c-50.667 0 -90.167 14.333 -118.5 43s-42.5 66.667 -42.5 114c0 54.667 20.5 96 61.5 124s96.833 42 167.5 42h90v52c0 41.333 -9.66699 71.833 -29 91.5s-51.333 29.5 -96 29.5
c-19.333 0 -40.5 -2 -63.5 -6s-48.833 -11.667 -77.5 -23l-16 45c32 12.667 61.333 21.334 88 26.001s52.334 7 77.001 7c62 0 106.5 -14.667 133.5 -44s40.5 -70.333 40.5 -123v-253c0 -28.667 4.16699 -48.667 12.5 -60s20.833 -19.666 37.5 -24.999l-13 -40
c-23.333 4 -42.333 12.167 -57 24.5s-24.667 33.5 -30 63.5v1zM364 266.998h-87c-56.667 0 -99.334 -9.66699 -128.001 -29s-43 -49 -43 -89c0 -36 9.83301 -63.5 29.5 -82.5s47.834 -28.5 84.501 -28.5c32.667 0 61.167 8.66699 85.5 26s43.833 40.333 58.5 69v134z
M253 624.998c-18 0 -34.1709 3 -48.5039 9s-26.833 14 -37.5 24s-19.167 21.5 -25.5 34.5s-10.5 26.5 -12.5 40.5l38 10c7.33301 -23.333 17.833 -41 31.5 -53s31.834 -18 54.501 -18s40.834 6 54.501 18s24.167 29.667 31.5 53l38 -10c-2 -14 -6.16699 -27.5 -12.5 -40.5
s-14.666 -24.5 -24.999 -34.5s-22.666 -18 -36.999 -24s-30.833 -9 -49.5 -9z" />
    <glyph glyph-name="Aogonek" unicode="&#x104;" horiz-adv-x="545" 
d="M451 -123c0 -16.667 5 -30.667 15 -42s25.333 -17 46 -17c11.333 0 21.833 1.16699 31.5 3.5s17.167 5.16602 22.5 8.49902l17 -38c-14 -7.33301 -27 -12.166 -39 -14.499s-25 -3.5 -39 -3.5c-37.333 0 -65.166 9 -83.499 27s-27.5 41 -27.5 69c0 25.333 7 49.333 21 72
s33.333 42 58 58l-59 185h-285l-59 -185h-60l225 685h75l225 -685c-32.667 -17.333 -54.834 -37.5 -66.501 -60.5s-17.5 -43.833 -17.5 -62.5zM145 235h253l-125 397h-2z" />
    <glyph glyph-name="aogonek" unicode="&#x105;" horiz-adv-x="521" 
d="M371 78c-18.667 -31.333 -42.3369 -54.0029 -71.0039 -68.0029s-60 -21 -94 -21c-50.667 0 -90.167 14.333 -118.5 43s-42.5 66.667 -42.5 114c0 54.667 20.5 96 61.5 124s96.833 42 167.5 42h90v52c0 41.333 -9.66699 71.833 -29 91.5s-51.333 29.5 -96 29.5
c-19.333 0 -40.5 -2 -63.5 -6s-48.833 -11.667 -77.5 -23l-16 45c32 12.667 61.333 21.334 88 26.001s52.334 7 77.001 7c62 0 106.5 -14.667 133.5 -44s40.5 -70.333 40.5 -123v-253c0 -28.667 4.16699 -48.667 12.5 -60s20.833 -19.666 37.5 -24.999l-13 -40
c-32 -17.333 -54 -35 -66 -53s-18 -37.667 -18 -59c0 -16.667 5 -30.667 15 -42s25.333 -17 46 -17c11.333 0 21.833 1.16699 31.5 3.5s17.167 5.16602 22.5 8.49902l17 -38c-14 -7.33301 -27 -12.166 -39 -14.499s-25 -3.5 -39 -3.5c-37.333 0 -65.166 9 -83.499 27
s-27.5 41 -27.5 69c0 30 8.83301 56.333 26.5 79s41.5 40.667 71.5 54c-11.333 6.66699 -20.666 15.834 -27.999 27.501s-12.666 27.5 -15.999 47.5zM363.997 266.997h-87c-56.667 0 -99.334 -9.66699 -128.001 -29s-43 -49 -43 -89c0 -36 9.83301 -63.5 29.5 -82.5
s47.834 -28.5 84.501 -28.5c32.667 0 61.167 8.66699 85.5 26s43.833 40.333 58.5 69v134z" />
    <glyph glyph-name="Cacute" unicode="&#x106;" horiz-adv-x="556" 
d="M479 594c-20.667 17.333 -41.8291 30.167 -63.4961 38.5s-46.834 12.5 -75.501 12.5c-28 0 -54.667 -5.5 -80 -16.5s-47.5 -28.667 -66.5 -53s-34 -55.666 -45 -93.999s-16.5 -84.5 -16.5 -138.5c0 -52.667 5.5 -98 16.5 -136s26 -69.333 45 -94
s41.167 -42.834 66.5 -54.501s52.666 -17.5 81.999 -17.5c36 0 65.667 5.33301 89 16s44 23.667 62 39l33 -41c-21.333 -19.333 -47.333 -35.166 -78 -47.499s-67 -18.5 -109 -18.5c-38.667 0 -74.334 7.5 -107.001 22.5s-61 37.5 -85 67.5s-42.833 67 -56.5 111
s-20.5 95 -20.5 153s7 109.167 21 153.5s33.167 81.166 57.5 110.499s52.666 51.5 84.999 66.5s66.5 22.5 102.5 22.5c40.667 0 75 -5.5 103 -16.5s53.333 -25.833 76 -44.5zM228.005 791.001l177 93l32 -52l-189 -75z" />
    <glyph glyph-name="cacute" unicode="&#x107;" horiz-adv-x="479" 
d="M414 441c-19.333 15.333 -39.166 26.501 -59.499 33.501s-42.5 10.5 -66.5 10.5c-48 0 -87 -18.667 -117 -56s-45 -94 -45 -170c0 -75.333 15 -131 45 -167s69 -54 117 -54c24 0 46.167 3.5 66.5 10.5s40.833 18.833 61.5 35.5l28 -40c-22 -18 -46.667 -31.667 -74 -41
s-56 -14 -86 -14c-34 0 -64.5 6.16699 -91.5 18.5s-50 30.166 -69 53.499s-33.5 51.666 -43.5 84.999s-15 71 -15 113c0 41.333 5.16699 78.833 15.5 112.5s25.333 62.5 45 86.5s43.167 42.667 70.5 56s58 20 92 20c30 0 57.667 -4.16699 83 -12.5
s49.666 -22.166 72.999 -41.499zM172 651.001l182 105l32 -52l-194 -87z" />
    <glyph glyph-name="Ccircumflex" unicode="&#x108;" horiz-adv-x="556" 
d="M479 594c-20.667 17.333 -41.8291 30.167 -63.4961 38.5s-46.834 12.5 -75.501 12.5c-28 0 -54.667 -5.5 -80 -16.5s-47.5 -28.667 -66.5 -53s-34 -55.666 -45 -93.999s-16.5 -84.5 -16.5 -138.5c0 -52.667 5.5 -98 16.5 -136s26 -69.333 45 -94
s41.167 -42.834 66.5 -54.501s52.666 -17.5 81.999 -17.5c36 0 65.667 5.33301 89 16s44 23.667 62 39l33 -41c-21.333 -19.333 -47.333 -35.166 -78 -47.499s-67 -18.5 -109 -18.5c-38.667 0 -74.334 7.5 -107.001 22.5s-61 37.5 -85 67.5s-42.833 67 -56.5 111
s-20.5 95 -20.5 153s7 109.167 21 153.5s33.167 81.166 57.5 110.499s52.666 51.5 84.999 66.5s66.5 22.5 102.5 22.5c40.667 0 75 -5.5 103 -16.5s53.333 -25.833 76 -44.5zM205.005 759.001l-27 30l130 98h30l129 -98l-26 -30l-118 75z" />
    <glyph glyph-name="ccircumflex" unicode="&#x109;" horiz-adv-x="479" 
d="M414 441c-19.333 15.333 -39.166 26.501 -59.499 33.501s-42.5 10.5 -66.5 10.5c-48 0 -87 -18.667 -117 -56s-45 -94 -45 -170c0 -75.333 15 -131 45 -167s69 -54 117 -54c24 0 46.167 3.5 66.5 10.5s40.833 18.833 61.5 35.5l28 -40c-22 -18 -46.667 -31.667 -74 -41
s-56 -14 -86 -14c-34 0 -64.5 6.16699 -91.5 18.5s-50 30.166 -69 53.499s-33.5 51.666 -43.5 84.999s-15 71 -15 113c0 41.333 5.16699 78.833 15.5 112.5s25.333 62.5 45 86.5s43.167 42.667 70.5 56s58 20 92 20c30 0 57.667 -4.16699 83 -12.5
s49.666 -22.166 72.999 -41.499zM162 619.001l-27 30l130 108h30l129 -108l-26 -30l-118 85z" />
    <glyph glyph-name="Cdotaccent" unicode="&#x10a;" horiz-adv-x="556" 
d="M479 594c-20.667 17.333 -41.8291 30.167 -63.4961 38.5s-46.834 12.5 -75.501 12.5c-28 0 -54.667 -5.5 -80 -16.5s-47.5 -28.667 -66.5 -53s-34 -55.666 -45 -93.999s-16.5 -84.5 -16.5 -138.5c0 -52.667 5.5 -98 16.5 -136s26 -69.333 45 -94
s41.167 -42.834 66.5 -54.501s52.666 -17.5 81.999 -17.5c36 0 65.667 5.33301 89 16s44 23.667 62 39l33 -41c-21.333 -19.333 -47.333 -35.166 -78 -47.499s-67 -18.5 -109 -18.5c-38.667 0 -74.334 7.5 -107.001 22.5s-61 37.5 -85 67.5s-42.833 67 -56.5 111
s-20.5 95 -20.5 153s7 109.167 21 153.5s33.167 81.166 57.5 110.499s52.666 51.5 84.999 66.5s66.5 22.5 102.5 22.5c40.667 0 75 -5.5 103 -16.5s53.333 -25.833 76 -44.5zM281.005 813.001c0 12 3.83301 21.833 11.5 29.5s17.834 11.5 30.501 11.5
c13.333 0 23.666 -3.83301 30.999 -11.5s11 -17.5 11 -29.5s-3.66699 -21.833 -11 -29.5s-17.666 -11.5 -30.999 -11.5c-12.667 0 -22.834 3.83301 -30.501 11.5s-11.5 17.5 -11.5 29.5z" />
    <glyph glyph-name="cdotaccent" unicode="&#x10b;" horiz-adv-x="479" 
d="M414 441c-19.333 15.333 -39.166 26.501 -59.499 33.501s-42.5 10.5 -66.5 10.5c-48 0 -87 -18.667 -117 -56s-45 -94 -45 -170c0 -75.333 15 -131 45 -167s69 -54 117 -54c24 0 46.167 3.5 66.5 10.5s40.833 18.833 61.5 35.5l28 -40c-22 -18 -46.667 -31.667 -74 -41
s-56 -14 -86 -14c-34 0 -64.5 6.16699 -91.5 18.5s-50 30.166 -69 53.499s-33.5 51.666 -43.5 84.999s-15 71 -15 113c0 41.333 5.16699 78.833 15.5 112.5s25.333 62.5 45 86.5s43.167 42.667 70.5 56s58 20 92 20c30 0 57.667 -4.16699 83 -12.5
s49.666 -22.166 72.999 -41.499zM279 641.001c-13.333 0 -23.833 4 -31.5 12s-11.5 18 -11.5 30s3.83301 22 11.5 30s18.167 12 31.5 12s23.833 -4 31.5 -12s11.5 -18 11.5 -30s-3.83301 -22 -11.5 -30s-18.167 -12 -31.5 -12z" />
    <glyph glyph-name="Ccaron" unicode="&#x10c;" horiz-adv-x="556" 
d="M479 594c-20.667 17.333 -41.8291 30.167 -63.4961 38.5s-46.834 12.5 -75.501 12.5c-28 0 -54.667 -5.5 -80 -16.5s-47.5 -28.667 -66.5 -53s-34 -55.666 -45 -93.999s-16.5 -84.5 -16.5 -138.5c0 -52.667 5.5 -98 16.5 -136s26 -69.333 45 -94
s41.167 -42.834 66.5 -54.501s52.666 -17.5 81.999 -17.5c36 0 65.667 5.33301 89 16s44 23.667 62 39l33 -41c-21.333 -19.333 -47.333 -35.166 -78 -47.499s-67 -18.5 -109 -18.5c-38.667 0 -74.334 7.5 -107.001 22.5s-61 37.5 -85 67.5s-42.833 67 -56.5 111
s-20.5 95 -20.5 153s7 109.167 21 153.5s33.167 81.166 57.5 110.499s52.666 51.5 84.999 66.5s66.5 22.5 102.5 22.5c40.667 0 75 -5.5 103 -16.5s53.333 -25.833 76 -44.5zM323.005 812.001l118 75l26 -30l-129 -98h-30l-130 98l27 30z" />
    <glyph glyph-name="ccaron" unicode="&#x10d;" horiz-adv-x="479" 
d="M414 441c-19.333 15.333 -39.166 26.501 -59.499 33.501s-42.5 10.5 -66.5 10.5c-48 0 -87 -18.667 -117 -56s-45 -94 -45 -170c0 -75.333 15 -131 45 -167s69 -54 117 -54c24 0 46.167 3.5 66.5 10.5s40.833 18.833 61.5 35.5l28 -40c-22 -18 -46.667 -31.667 -74 -41
s-56 -14 -86 -14c-34 0 -64.5 6.16699 -91.5 18.5s-50 30.166 -69 53.499s-33.5 51.666 -43.5 84.999s-15 71 -15 113c0 41.333 5.16699 78.833 15.5 112.5s25.333 62.5 45 86.5s43.167 42.667 70.5 56s58 20 92 20c30 0 57.667 -4.16699 83 -12.5
s49.666 -22.166 72.999 -41.499zM280 672.001l118 85l26 -30l-129 -108h-30l-130 108l27 30z" />
    <glyph glyph-name="Dcaron" unicode="&#x10e;" horiz-adv-x="637" 
d="M110 685l133.998 -0.00195312c41.333 0 81.333 -4.16699 120 -12.5s73 -24.666 103 -48.999s54.167 -58.5 72.5 -102.5s27.5 -101.667 27.5 -173s-9.66699 -129.666 -29 -174.999s-44.166 -80.833 -74.499 -106.5s-64.166 -43.167 -101.499 -52.5s-74.333 -14 -111 -14
h-141v685zM168.998 49.998h88c30.667 0 60.834 3.83301 90.501 11.5s56.167 22.5 79.5 44.5s42.166 52.333 56.499 91s21.5 89 21.5 151c0 63.333 -7.33301 114 -22 152s-33.834 67 -57.501 87s-50.667 33 -81 39s-61.166 9 -92.499 9h-83v-585zM313.998 811.998l118 75
l26 -30l-129 -98h-30l-130 98l27 30z" />
    <glyph glyph-name="dcaron" unicode="&#x10f;" horiz-adv-x="613" 
d="M416 743l57 -6.99902v-736h-50l-7 79c-22.667 -33.333 -46.667 -56.666 -72 -69.999s-54 -20 -86 -20s-60 6.33301 -84 19s-44.167 30.667 -60.5 54s-28.5 51.666 -36.5 84.999s-12 70.666 -12 111.999s4.83301 78.833 14.5 112.5s23.167 62.5 40.5 86.5
s38.5 42.667 63.5 56s52.833 20 83.5 20c34 0 62.667 -6.16699 86 -18.5s44.333 -30.833 63 -55.5v283zM416 396.001c-16.667 28 -36.333 49.833 -59 65.5s-49 23.5 -79 23.5c-47.333 0 -84.5 -19 -111.5 -57s-40.5 -94.333 -40.5 -169c0 -72.667 12.333 -127.5 37 -164.5
s59.667 -55.5 105 -55.5c33.333 0 62 9.33301 86 28s44.667 43 62 73v256zM546.001 766.001c0 12 3.99902 22 11.999 30s18.667 12 32 12c14 0 24.667 -4 32 -12s11 -18 11 -30c0 -8 -1.16699 -16 -3.5 -24s-7.16602 -19 -14.499 -33l-40 -81h-35l28 101
c-14.667 8 -22 20.333 -22 37z" />
    <glyph glyph-name="Dcroat" unicode="&#x110;" horiz-adv-x="637" 
d="M110 329l-87.002 -0.00195312v48h87v308h134c41.333 0 81.333 -4.16699 120 -12.5s73 -24.666 103 -48.999s54.167 -58.5 72.5 -102.5s27.5 -101.667 27.5 -173s-9.66699 -129.666 -29 -174.999s-44.166 -80.833 -74.499 -106.5s-64.166 -43.167 -101.499 -52.5
s-74.333 -14 -111 -14h-141v329zM168.998 328.998v-279h88c30.667 0 60.834 3.83301 90.501 11.5s56.167 22.5 79.5 44.5s42.166 52.333 56.499 91s21.5 89 21.5 151c0 63.333 -7.33301 114 -22 152s-33.834 67 -57.501 87s-50.667 33 -81 39s-61.166 9 -92.499 9h-83v-258
h182v-48h-182z" />
    <glyph glyph-name="dcroat" unicode="&#x111;" horiz-adv-x="593" 
d="M416 743l57 -6.99902v-79h77v-48h-77v-609h-50l-7 79c-22.667 -33.333 -46.667 -56.666 -72 -69.999s-54 -20 -86 -20s-60 6.33301 -84 19s-44.167 30.667 -60.5 54s-28.5 51.666 -36.5 84.999s-12 70.666 -12 111.999s4.83301 78.833 14.5 112.5s23.167 62.5 40.5 86.5
s38.5 42.667 63.5 56s52.833 20 83.5 20c34 0 62.667 -6.16699 86 -18.5s44.333 -30.833 63 -55.5v149h-184v48h184v86zM416 396.001c-16.667 28 -36.333 49.833 -59 65.5s-49 23.5 -79 23.5c-47.333 0 -84.5 -19 -111.5 -57s-40.5 -94.333 -40.5 -169
c0 -72.667 12.333 -127.5 37 -164.5s59.667 -55.5 105 -55.5c33.333 0 62 9.33301 86 28s44.667 43 62 73v256z" />
    <glyph glyph-name="Emacron" unicode="&#x112;" horiz-adv-x="514" 
d="M110 0v685h346l-7 -50h-280v-255h243v-50h-243v-280h295v-50h-354zM399 797h-234v47h234v-47z" />
    <glyph glyph-name="emacron" unicode="&#x113;" horiz-adv-x="538" 
d="M124 239c2 -35.333 7.5 -65.4971 16.5 -90.4971s21 -45.833 36 -62.5s32.333 -28.834 52 -36.501s40.5 -11.5 62.5 -11.5c28 0 53 4 75 12s44 21.667 66 41l27 -39c-46 -42 -102.667 -63 -170 -63c-36 0 -67.833 6.33301 -95.5 19s-51 30.667 -70 54
s-33.5 51.666 -43.5 84.999s-15 70.666 -15 111.999s4.83301 78.833 14.5 112.5s23.667 62.5 42 86.5s40.5 42.667 66.5 56s55.333 20 88 20c65.333 0 115.333 -22.833 150 -68.5s52 -108.5 52 -188.5c0 -6 -0.166992 -12.5 -0.5 -19.5s-0.833008 -13.167 -1.5 -18.5h-352z
M276 485.003c-42 0 -77 -16.001 -105 -48.001s-43.667 -83 -47 -153h297c-1.33301 64.667 -14 114.334 -38 149.001s-59.667 52 -107 52zM396 667.002h-234v47h234v-47z" />
    <glyph glyph-name="Ebreve" unicode="&#x114;" horiz-adv-x="514" 
d="M110 0v685h346l-7 -50h-280v-255h243v-50h-243v-280h295v-50h-354zM282 765c-18.667 0 -35.335 2.83301 -50.002 8.5s-27.167 13.167 -37.5 22.5s-18.5 19.833 -24.5 31.5s-10 23.5 -12 35.5l38 10c7.33301 -18 17.833 -32.667 31.5 -44s31.834 -17 54.501 -17
s40.834 5.66699 54.501 17s24.167 26 31.5 44l38 -10c-2 -12 -6 -23.833 -12 -35.5s-14 -22.167 -24 -31.5s-22.333 -16.833 -37 -22.5s-31.667 -8.5 -51 -8.5z" />
    <glyph glyph-name="ebreve" unicode="&#x115;" horiz-adv-x="538" 
d="M124 239c2 -35.333 7.5 -65.4971 16.5 -90.4971s21 -45.833 36 -62.5s32.333 -28.834 52 -36.501s40.5 -11.5 62.5 -11.5c28 0 53 4 75 12s44 21.667 66 41l27 -39c-46 -42 -102.667 -63 -170 -63c-36 0 -67.833 6.33301 -95.5 19s-51 30.667 -70 54
s-33.5 51.666 -43.5 84.999s-15 70.666 -15 111.999s4.83301 78.833 14.5 112.5s23.667 62.5 42 86.5s40.5 42.667 66.5 56s55.333 20 88 20c65.333 0 115.333 -22.833 150 -68.5s52 -108.5 52 -188.5c0 -6 -0.166992 -12.5 -0.5 -19.5s-0.833008 -13.167 -1.5 -18.5h-352z
M276 485.003c-42 0 -77 -16.001 -105 -48.001s-43.667 -83 -47 -153h297c-1.33301 64.667 -14 114.334 -38 149.001s-59.667 52 -107 52zM279 625.002c-18 0 -34.1709 3 -48.5039 9s-26.833 14 -37.5 24s-19.167 21.5 -25.5 34.5s-10.5 26.5 -12.5 40.5l38 10
c7.33301 -23.333 17.833 -41 31.5 -53s31.834 -18 54.501 -18s40.834 6 54.501 18s24.167 29.667 31.5 53l38 -10c-2 -14 -6.16699 -27.5 -12.5 -40.5s-14.666 -24.5 -24.999 -34.5s-22.666 -18 -36.999 -24s-30.833 -9 -49.5 -9z" />
    <glyph glyph-name="Edotaccent" unicode="&#x116;" horiz-adv-x="514" 
d="M110 0v685h346l-7 -50h-280v-255h243v-50h-243v-280h295v-50h-354zM240 813c0 12 3.83301 21.833 11.5 29.5s17.834 11.5 30.501 11.5c13.333 0 23.666 -3.83301 30.999 -11.5s11 -17.5 11 -29.5s-3.66699 -21.833 -11 -29.5s-17.666 -11.5 -30.999 -11.5
c-12.667 0 -22.834 3.83301 -30.501 11.5s-11.5 17.5 -11.5 29.5z" />
    <glyph glyph-name="edotaccent" unicode="&#x117;" horiz-adv-x="538" 
d="M124 239c2 -35.333 7.5 -65.4971 16.5 -90.4971s21 -45.833 36 -62.5s32.333 -28.834 52 -36.501s40.5 -11.5 62.5 -11.5c28 0 53 4 75 12s44 21.667 66 41l27 -39c-46 -42 -102.667 -63 -170 -63c-36 0 -67.833 6.33301 -95.5 19s-51 30.667 -70 54
s-33.5 51.666 -43.5 84.999s-15 70.666 -15 111.999s4.83301 78.833 14.5 112.5s23.667 62.5 42 86.5s40.5 42.667 66.5 56s55.333 20 88 20c65.333 0 115.333 -22.833 150 -68.5s52 -108.5 52 -188.5c0 -6 -0.166992 -12.5 -0.5 -19.5s-0.833008 -13.167 -1.5 -18.5h-352z
M276 485.003c-42 0 -77 -16.001 -105 -48.001s-43.667 -83 -47 -153h297c-1.33301 64.667 -14 114.334 -38 149.001s-59.667 52 -107 52zM279 641.002c-13.333 0 -23.833 4 -31.5 12s-11.5 18 -11.5 30s3.83301 22 11.5 30s18.167 12 31.5 12s23.833 -4 31.5 -12
s11.5 -18 11.5 -30s-3.83301 -22 -11.5 -30s-18.167 -12 -31.5 -12z" />
    <glyph glyph-name="Eogonek" unicode="&#x118;" horiz-adv-x="514" 
d="M464 0c-31.333 -19.333 -53.001 -39.833 -65.001 -61.5s-18 -42.167 -18 -61.5c0 -16.667 5 -30.667 15 -42s25.333 -17 46 -17c11.333 0 21.833 1.16699 31.5 3.5s17.167 5.16602 22.5 8.49902l17 -38c-14 -7.33301 -27 -12.166 -39 -14.499s-25 -3.5 -39 -3.5
c-37.333 0 -65.166 9 -83.499 27s-27.5 41 -27.5 69c0 25.333 7.5 49.333 22.5 72s34.833 42 59.5 58h-296v685h346l-7 -50h-280v-255h243v-50h-243v-280h295v-50z" />
    <glyph glyph-name="eogonek" unicode="&#x119;" horiz-adv-x="538" 
d="M330 -123c0 -16.667 5 -30.665 15 -41.998s25.333 -17 46 -17c11.333 0 21.833 1.16699 31.5 3.5s17.167 5.16602 22.5 8.49902l17 -38c-14 -7.33301 -27 -12.166 -39 -14.499s-25 -3.5 -39 -3.5c-37.333 0 -65.166 9 -83.499 27s-27.5 41 -27.5 69
c0 16.667 2.5 31.5 7.5 44.5s11.333 25 19 36s16.5 21.167 26.5 30.5c9.33301 8.66699 19 16.667 29 24c-14 -5.33301 -26.667 -9.33301 -38 -12c-12 -2.66699 -24.667 -4 -38 -4c-32 0 -61.167 6.33301 -87.5 19s-48.833 30.667 -67.5 54s-33.167 51.666 -43.5 84.999
s-15.5 70.666 -15.5 111.999s4.83301 78.833 14.5 112.5s23.667 62.5 42 86.5s40.5 42.667 66.5 56s55.333 20 88 20c65.333 0 115.333 -22.833 150 -68.5s52 -108.5 52 -188.5c0 -6 -0.166992 -12.5 -0.5 -19.5s-0.833008 -13.167 -1.5 -18.5h-352
c2 -35.333 7.5 -65.5 16.5 -90.5s21 -45.833 36 -62.5s32.333 -28.834 52 -36.501s40.5 -11.5 62.5 -11.5c28 0 53 4 75 12s44 21.667 66 41l26 -37c-26 -20 -47.167 -38.667 -63.5 -56s-29.333 -33.333 -39 -48s-16.334 -28.167 -20.001 -40.5s-5.5 -23.166 -5.5 -32.499z
M276 485.002c-42 0 -77 -16.001 -105 -48.001s-43.667 -83 -47 -153h297c-1.33301 64.667 -14 114.334 -38 149.001s-59.667 52 -107 52z" />
    <glyph glyph-name="Ecaron" unicode="&#x11a;" horiz-adv-x="514" 
d="M110 0v685h346l-7 -50h-280v-255h243v-50h-243v-280h295v-50h-354zM282 812l118 75l26 -30l-129 -98h-30l-130 98l27 30z" />
    <glyph glyph-name="ecaron" unicode="&#x11b;" horiz-adv-x="538" 
d="M124 239c2 -35.333 7.5 -65.4971 16.5 -90.4971s21 -45.833 36 -62.5s32.333 -28.834 52 -36.501s40.5 -11.5 62.5 -11.5c28 0 53 4 75 12s44 21.667 66 41l27 -39c-46 -42 -102.667 -63 -170 -63c-36 0 -67.833 6.33301 -95.5 19s-51 30.667 -70 54
s-33.5 51.666 -43.5 84.999s-15 70.666 -15 111.999s4.83301 78.833 14.5 112.5s23.667 62.5 42 86.5s40.5 42.667 66.5 56s55.333 20 88 20c65.333 0 115.333 -22.833 150 -68.5s52 -108.5 52 -188.5c0 -6 -0.166992 -12.5 -0.5 -19.5s-0.833008 -13.167 -1.5 -18.5h-352z
M276 485.003c-42 0 -77 -16.001 -105 -48.001s-43.667 -83 -47 -153h297c-1.33301 64.667 -14 114.334 -38 149.001s-59.667 52 -107 52zM279 672.002l118 85l26 -30l-129 -108h-30l-130 108l27 30z" />
    <glyph glyph-name="Gcircumflex" unicode="&#x11c;" horiz-adv-x="625" 
d="M507 591c-21.333 18.667 -44.165 32.3359 -68.498 41.0029s-52.5 13 -84.5 13c-28.667 0 -56.334 -5.66699 -83.001 -17s-50.334 -29 -71.001 -53s-37.167 -55.167 -49.5 -93.5s-18.5 -84.5 -18.5 -138.5c0 -52 5.16699 -97.167 15.5 -135.5s24.833 -69.833 43.5 -94.5
s41 -43 67 -55s55 -18 87 -18c30.667 0 58.334 3.16699 83.001 9.5s47.667 15.166 69 26.499v245h-140l-7 50h205v-326c-30 -17.333 -62.833 -31 -98.5 -41s-73.834 -15 -114.501 -15c-40 0 -76.667 7.33301 -110 22s-62 36.667 -86 66s-42.667 66.166 -56 110.499
s-20 96.166 -20 155.499c0 58.667 8 110 24 154s37.167 80.667 63.5 110s56.5 51.5 90.5 66.5s69 22.5 105 22.5c44 0 80.333 -5.66699 109 -17s55.667 -28.333 81 -51zM225.001 759.002l-27 30l130 98h30l129 -98l-26 -30l-118 75z" />
    <glyph glyph-name="gcircumflex" unicode="&#x11d;" horiz-adv-x="508" 
d="M87 -61c0 -34.667 12.3281 -59.6729 36.9951 -75.0059s66 -23 124 -23c54 0 94.833 8.5 122.5 25.5s41.5 42.5 41.5 76.5c0 27.333 -9.5 48.5 -28.5 63.5s-46.167 22.5 -81.5 22.5h-80c-47.333 0 -82.166 10 -104.499 30s-33.5 43.667 -33.5 71
c0 15.333 4.5 30.166 13.5 44.499s22.167 27.166 39.5 38.499c-24 14 -43.333 33 -58 57s-22 53 -22 87c0 25.333 4.33301 48.833 13 70.5s21.167 40.334 37.5 56.001s36.333 28 60 37s50.167 13.5 79.5 13.5c31.333 0 58.666 0.833008 81.999 2.5s43.833 4 61.5 7
s33.334 6.66699 47.001 11s26.5 9.16602 38.5 14.499l17 -54c-19.333 -6.66699 -39.666 -11 -60.999 -13s-47 -3 -77 -3c24.667 -12 44.667 -29.667 60 -53s23 -52.666 23 -87.999c0 -53.333 -17.167 -95.833 -51.5 -127.5s-80.166 -47.5 -137.499 -47.5
c-13.333 0 -26 1.16699 -38 3.5s-23.667 5.5 -35 9.5c-10 -7.33301 -18.667 -16.666 -26 -27.999s-11 -21.666 -11 -30.999c0 -16 5.83301 -29.333 17.5 -40s34.5 -16 68.5 -16h82c28 0 52.333 -3.66699 73 -11s37.834 -17.166 51.501 -29.499
s23.834 -26.666 30.501 -42.999s10 -33.166 10 -50.499c0 -51.333 -20.167 -89.5 -60.5 -114.5s-94.833 -37.5 -163.5 -37.5c-30 0 -58 2 -84 6s-48.5 11.333 -67.5 22s-34 25.334 -45 44.001s-16.5 42.334 -16.5 71.001zM379.995 356.994c0 42 -10.832 74.5 -32.499 97.5
s-54.834 34.5 -99.501 34.5c-42.667 0 -75.5 -12 -98.5 -36s-34.5 -56 -34.5 -96s11.667 -71.5 35 -94.5s56 -34.5 98 -34.5s74.5 11 97.5 33s34.5 54 34.5 96zM136.996 618.994l-27 30l130 108h30l129 -108l-26 -30l-118 85z" />
    <glyph glyph-name="Gbreve" unicode="&#x11e;" horiz-adv-x="625" 
d="M507 591c-21.333 18.667 -44.165 32.3359 -68.498 41.0029s-52.5 13 -84.5 13c-28.667 0 -56.334 -5.66699 -83.001 -17s-50.334 -29 -71.001 -53s-37.167 -55.167 -49.5 -93.5s-18.5 -84.5 -18.5 -138.5c0 -52 5.16699 -97.167 15.5 -135.5s24.833 -69.833 43.5 -94.5
s41 -43 67 -55s55 -18 87 -18c30.667 0 58.334 3.16699 83.001 9.5s47.667 15.166 69 26.499v245h-140l-7 50h205v-326c-30 -17.333 -62.833 -31 -98.5 -41s-73.834 -15 -114.501 -15c-40 0 -76.667 7.33301 -110 22s-62 36.667 -86 66s-42.667 66.166 -56 110.499
s-20 96.166 -20 155.499c0 58.667 8 110 24 154s37.167 80.667 63.5 110s56.5 51.5 90.5 66.5s69 22.5 105 22.5c44 0 80.333 -5.66699 109 -17s55.667 -28.333 81 -51zM342.001 765.002c-18.667 0 -35.335 2.83301 -50.002 8.5s-27.167 13.167 -37.5 22.5
s-18.5 19.833 -24.5 31.5s-10 23.5 -12 35.5l38 10c7.33301 -18 17.833 -32.667 31.5 -44s31.834 -17 54.501 -17s40.834 5.66699 54.501 17s24.167 26 31.5 44l38 -10c-2 -12 -6 -23.833 -12 -35.5s-14 -22.167 -24 -31.5s-22.333 -16.833 -37 -22.5s-31.667 -8.5 -51 -8.5
z" />
    <glyph glyph-name="gbreve" unicode="&#x11f;" horiz-adv-x="508" 
d="M87 -61c0 -34.667 12.3281 -59.6729 36.9951 -75.0059s66 -23 124 -23c54 0 94.833 8.5 122.5 25.5s41.5 42.5 41.5 76.5c0 27.333 -9.5 48.5 -28.5 63.5s-46.167 22.5 -81.5 22.5h-80c-47.333 0 -82.166 10 -104.499 30s-33.5 43.667 -33.5 71
c0 15.333 4.5 30.166 13.5 44.499s22.167 27.166 39.5 38.499c-24 14 -43.333 33 -58 57s-22 53 -22 87c0 25.333 4.33301 48.833 13 70.5s21.167 40.334 37.5 56.001s36.333 28 60 37s50.167 13.5 79.5 13.5c31.333 0 58.666 0.833008 81.999 2.5s43.833 4 61.5 7
s33.334 6.66699 47.001 11s26.5 9.16602 38.5 14.499l17 -54c-19.333 -6.66699 -39.666 -11 -60.999 -13s-47 -3 -77 -3c24.667 -12 44.667 -29.667 60 -53s23 -52.666 23 -87.999c0 -53.333 -17.167 -95.833 -51.5 -127.5s-80.166 -47.5 -137.499 -47.5
c-13.333 0 -26 1.16699 -38 3.5s-23.667 5.5 -35 9.5c-10 -7.33301 -18.667 -16.666 -26 -27.999s-11 -21.666 -11 -30.999c0 -16 5.83301 -29.333 17.5 -40s34.5 -16 68.5 -16h82c28 0 52.333 -3.66699 73 -11s37.834 -17.166 51.501 -29.499
s23.834 -26.666 30.501 -42.999s10 -33.166 10 -50.499c0 -51.333 -20.167 -89.5 -60.5 -114.5s-94.833 -37.5 -163.5 -37.5c-30 0 -58 2 -84 6s-48.5 11.333 -67.5 22s-34 25.334 -45 44.001s-16.5 42.334 -16.5 71.001zM379.995 356.994c0 42 -10.832 74.5 -32.499 97.5
s-54.834 34.5 -99.501 34.5c-42.667 0 -75.5 -12 -98.5 -36s-34.5 -56 -34.5 -96s11.667 -71.5 35 -94.5s56 -34.5 98 -34.5s74.5 11 97.5 33s34.5 54 34.5 96zM255.996 624.994c-18 0 -34.1709 3 -48.5039 9s-26.833 14 -37.5 24s-19.167 21.5 -25.5 34.5
s-10.5 26.5 -12.5 40.5l38 10c7.33301 -23.333 17.833 -41 31.5 -53s31.834 -18 54.501 -18s40.834 6 54.501 18s24.167 29.667 31.5 53l38 -10c-2 -14 -6.16699 -27.5 -12.5 -40.5s-14.666 -24.5 -24.999 -34.5s-22.666 -18 -36.999 -24s-30.833 -9 -49.5 -9z" />
    <glyph glyph-name="Gdotaccent" unicode="&#x120;" horiz-adv-x="625" 
d="M507 591c-21.333 18.667 -44.165 32.3359 -68.498 41.0029s-52.5 13 -84.5 13c-28.667 0 -56.334 -5.66699 -83.001 -17s-50.334 -29 -71.001 -53s-37.167 -55.167 -49.5 -93.5s-18.5 -84.5 -18.5 -138.5c0 -52 5.16699 -97.167 15.5 -135.5s24.833 -69.833 43.5 -94.5
s41 -43 67 -55s55 -18 87 -18c30.667 0 58.334 3.16699 83.001 9.5s47.667 15.166 69 26.499v245h-140l-7 50h205v-326c-30 -17.333 -62.833 -31 -98.5 -41s-73.834 -15 -114.501 -15c-40 0 -76.667 7.33301 -110 22s-62 36.667 -86 66s-42.667 66.166 -56 110.499
s-20 96.166 -20 155.499c0 58.667 8 110 24 154s37.167 80.667 63.5 110s56.5 51.5 90.5 66.5s69 22.5 105 22.5c44 0 80.333 -5.66699 109 -17s55.667 -28.333 81 -51zM300.001 813.002c0 12 3.83301 21.833 11.5 29.5s17.834 11.5 30.501 11.5
c13.333 0 23.666 -3.83301 30.999 -11.5s11 -17.5 11 -29.5s-3.66699 -21.833 -11 -29.5s-17.666 -11.5 -30.999 -11.5c-12.667 0 -22.834 3.83301 -30.501 11.5s-11.5 17.5 -11.5 29.5z" />
    <glyph glyph-name="gdotaccent" unicode="&#x121;" horiz-adv-x="508" 
d="M87 -61c0 -34.667 12.3281 -59.6729 36.9951 -75.0059s66 -23 124 -23c54 0 94.833 8.5 122.5 25.5s41.5 42.5 41.5 76.5c0 27.333 -9.5 48.5 -28.5 63.5s-46.167 22.5 -81.5 22.5h-80c-47.333 0 -82.166 10 -104.499 30s-33.5 43.667 -33.5 71
c0 15.333 4.5 30.166 13.5 44.499s22.167 27.166 39.5 38.499c-24 14 -43.333 33 -58 57s-22 53 -22 87c0 25.333 4.33301 48.833 13 70.5s21.167 40.334 37.5 56.001s36.333 28 60 37s50.167 13.5 79.5 13.5c31.333 0 58.666 0.833008 81.999 2.5s43.833 4 61.5 7
s33.334 6.66699 47.001 11s26.5 9.16602 38.5 14.499l17 -54c-19.333 -6.66699 -39.666 -11 -60.999 -13s-47 -3 -77 -3c24.667 -12 44.667 -29.667 60 -53s23 -52.666 23 -87.999c0 -53.333 -17.167 -95.833 -51.5 -127.5s-80.166 -47.5 -137.499 -47.5
c-13.333 0 -26 1.16699 -38 3.5s-23.667 5.5 -35 9.5c-10 -7.33301 -18.667 -16.666 -26 -27.999s-11 -21.666 -11 -30.999c0 -16 5.83301 -29.333 17.5 -40s34.5 -16 68.5 -16h82c28 0 52.333 -3.66699 73 -11s37.834 -17.166 51.501 -29.499
s23.834 -26.666 30.501 -42.999s10 -33.166 10 -50.499c0 -51.333 -20.167 -89.5 -60.5 -114.5s-94.833 -37.5 -163.5 -37.5c-30 0 -58 2 -84 6s-48.5 11.333 -67.5 22s-34 25.334 -45 44.001s-16.5 42.334 -16.5 71.001zM379.995 356.994c0 42 -10.832 74.5 -32.499 97.5
s-54.834 34.5 -99.501 34.5c-42.667 0 -75.5 -12 -98.5 -36s-34.5 -56 -34.5 -96s11.667 -71.5 35 -94.5s56 -34.5 98 -34.5s74.5 11 97.5 33s34.5 54 34.5 96zM254.996 640.994c-13.333 0 -23.833 4 -31.5 12s-11.5 18 -11.5 30s3.83301 22 11.5 30s18.167 12 31.5 12
s23.833 -4 31.5 -12s11.5 -18 11.5 -30s-3.83301 -22 -11.5 -30s-18.167 -12 -31.5 -12z" />
    <glyph glyph-name="uni0122" unicode="&#x122;" horiz-adv-x="625" 
d="M507 591c-21.333 18.667 -44.165 32.3359 -68.498 41.0029s-52.5 13 -84.5 13c-28.667 0 -56.334 -5.66699 -83.001 -17s-50.334 -29 -71.001 -53s-37.167 -55.167 -49.5 -93.5s-18.5 -84.5 -18.5 -138.5c0 -52 5.16699 -97.167 15.5 -135.5s24.833 -69.833 43.5 -94.5
s41 -43 67 -55s55 -18 87 -18c30.667 0 58.334 3.16699 83.001 9.5s47.667 15.166 69 26.499v245h-140l-7 50h205v-326c-30 -17.333 -62.833 -31 -98.5 -41s-73.834 -15 -114.501 -15c-40 0 -76.667 7.33301 -110 22s-62 36.667 -86 66s-42.667 66.166 -56 110.499
s-20 96.166 -20 155.499c0 58.667 8 110 24 154s37.167 80.667 63.5 110s56.5 51.5 90.5 66.5s69 22.5 105 22.5c44 0 80.333 -5.66699 109 -17s55.667 -28.333 81 -51zM302.001 -129.998c0 12 3.99902 22 11.999 30s18.667 12 32 12c14 0 24.667 -4 32 -12s11 -18 11 -30
c0 -8 -1.16699 -16 -3.5 -24s-7.16602 -19 -14.499 -33l-40 -81h-35l28 101c-14.667 8 -22 20.333 -22 37z" />
    <glyph glyph-name="uni0123" unicode="&#x123;" horiz-adv-x="508" 
d="M87 -61c0 -34.667 12.3281 -59.6729 36.9951 -75.0059s66 -23 124 -23c54 0 94.833 8.5 122.5 25.5s41.5 42.5 41.5 76.5c0 27.333 -9.5 48.5 -28.5 63.5s-46.167 22.5 -81.5 22.5h-80c-47.333 0 -82.166 10 -104.499 30s-33.5 43.667 -33.5 71
c0 15.333 4.5 30.166 13.5 44.499s22.167 27.166 39.5 38.499c-24 14 -43.333 33 -58 57s-22 53 -22 87c0 25.333 4.33301 48.833 13 70.5s21.167 40.334 37.5 56.001s36.333 28 60 37s50.167 13.5 79.5 13.5c31.333 0 58.666 0.833008 81.999 2.5s43.833 4 61.5 7
s33.334 6.66699 47.001 11s26.5 9.16602 38.5 14.499l17 -54c-19.333 -6.66699 -39.666 -11 -60.999 -13s-47 -3 -77 -3c24.667 -12 44.667 -29.667 60 -53s23 -52.666 23 -87.999c0 -53.333 -17.167 -95.833 -51.5 -127.5s-80.166 -47.5 -137.499 -47.5
c-13.333 0 -26 1.16699 -38 3.5s-23.667 5.5 -35 9.5c-10 -7.33301 -18.667 -16.666 -26 -27.999s-11 -21.666 -11 -30.999c0 -16 5.83301 -29.333 17.5 -40s34.5 -16 68.5 -16h82c28 0 52.333 -3.66699 73 -11s37.834 -17.166 51.501 -29.499
s23.834 -26.666 30.501 -42.999s10 -33.166 10 -50.499c0 -51.333 -20.167 -89.5 -60.5 -114.5s-94.833 -37.5 -163.5 -37.5c-30 0 -58 2 -84 6s-48.5 11.333 -67.5 22s-34 25.334 -45 44.001s-16.5 42.334 -16.5 71.001zM379.995 356.994c0 42 -10.832 74.5 -32.499 97.5
s-54.834 34.5 -99.501 34.5c-42.667 0 -75.5 -12 -98.5 -36s-34.5 -56 -34.5 -96s11.667 -71.5 35 -94.5s56 -34.5 98 -34.5s74.5 11 97.5 33s34.5 54 34.5 96zM294.996 678.994c0 -12 -3.99902 -22 -11.999 -30s-18.667 -12 -32 -12c-14 0 -24.667 4 -32 12s-11 18 -11 30
c0 8 1.16699 16 3.5 24s7.16602 19 14.499 33l40 81h35l-28 -101c14.667 -8 22 -20.333 22 -37z" />
    <glyph glyph-name="Hcircumflex" unicode="&#x124;" horiz-adv-x="660" 
d="M491 0v336h-322v-336h-59v685h59v-299h322v299h59v-685h-59zM212 759l-27 30l130 98h30l129 -98l-26 -30l-118 75z" />
    <glyph glyph-name="hcircumflex" unicode="&#x125;" horiz-adv-x="581" 
d="M167 0l-57 0.000976562v736l57 7v-303c20.667 30 45.167 53.167 73.5 69.5s60.5 24.5 96.5 24.5c50 0 85.667 -13.667 107 -41s32 -66.666 32 -117.999v-375h-57v359c0 45.333 -7.33301 77.833 -22 97.5s-39.667 29.5 -75 29.5c-16.667 0 -32.5 -3.16699 -47.5 -9.5
s-29 -14.833 -42 -25.5s-25 -22.834 -36 -36.501s-20.833 -27.834 -29.5 -42.501v-372zM178 779.001l-27 30l130 98h30l129 -98l-26 -30l-118 75z" />
    <glyph glyph-name="Hbar" unicode="&#x126;" horiz-adv-x="660" 
d="M491 0v336h-322v-336h-59v518h-69v44h69v123h59v-123h322v123h59v-123h69v-44h-69v-518h-59zM491 386v132h-322v-132h322z" />
    <glyph glyph-name="hbar" unicode="&#x127;" horiz-adv-x="591" 
d="M177 657l184 0.000976562v-48h-184v-169c20.667 30 45.167 53.167 73.5 69.5s60.5 24.5 96.5 24.5c50 0 85.667 -13.667 107 -41s32 -66.666 32 -117.999v-375h-57v365c0 42.667 -7.66699 73.5 -23 92.5s-40 28.5 -74 28.5c-16.667 0 -32.5 -3.16699 -47.5 -9.5
s-29 -14.833 -42 -25.5s-25 -22.834 -36 -36.501s-20.833 -27.834 -29.5 -42.501v-372h-57v609h-77v48h77v79l57 7v-86z" />
    <glyph glyph-name="Itilde" unicode="&#x128;" horiz-adv-x="279" 
d="M169 685v-685h-59v685h59zM192 775c-12 0 -22.9971 2.33203 -32.9971 6.99902s-19.5 9.83398 -28.5 15.501l-25 15.5c-7.66699 4.66699 -15.167 7 -22.5 7c-12 0 -22.167 -3.83301 -30.5 -11.5s-16.5 -18.5 -24.5 -32.5l-35 17c10 23.333 22.5 41.333 37.5 54
s33.167 19 54.5 19c14 0 26.167 -2.33301 36.5 -7s19.666 -9.83398 27.999 -15.501l23.5 -15.5c7.33301 -4.66699 14.666 -7 21.999 -7c11.333 0 21.166 3.66699 29.499 11s16.5 18 24.5 32l36 -17c-10.667 -23.333 -23.5 -41.166 -38.5 -53.499s-33.167 -18.5 -54.5 -18.5z
" />
    <glyph glyph-name="itilde" unicode="&#x129;" horiz-adv-x="267" 
d="M162 523v-523h-57v523h57zM186 645c-12 0 -22.9971 2.33203 -32.9971 6.99902s-19.5 9.83398 -28.5 15.501l-25 15.5c-7.66699 4.66699 -15.167 7 -22.5 7c-12 0 -22.167 -3.83301 -30.5 -11.5s-16.5 -18.5 -24.5 -32.5l-35 17c10 23.333 22.5 41.333 37.5 54
s33.167 19 54.5 19c14 0 26.167 -2.33301 36.5 -7s19.666 -9.83398 27.999 -15.501l23.5 -15.5c7.33301 -4.66699 14.666 -7 21.999 -7c11.333 0 21.166 3.66699 29.499 11s16.5 18 24.5 32l36 -17c-10.667 -23.333 -23.5 -41.166 -38.5 -53.499s-33.167 -18.5 -54.5 -18.5z
" />
    <glyph glyph-name="Imacron" unicode="&#x12a;" horiz-adv-x="279" 
d="M169 685v-685h-59v685h59zM256 797h-234v47h234v-47z" />
    <glyph glyph-name="imacron" unicode="&#x12b;" horiz-adv-x="267" 
d="M162 523v-523h-57v523h57zM250 667h-234v47h234v-47z" />
    <glyph glyph-name="Ibreve" unicode="&#x12c;" horiz-adv-x="279" 
d="M169 685v-685h-59v685h59zM139 765c-18.667 0 -35.335 2.83301 -50.002 8.5s-27.167 13.167 -37.5 22.5s-18.5 19.833 -24.5 31.5s-10 23.5 -12 35.5l38 10c7.33301 -18 17.833 -32.667 31.5 -44s31.834 -17 54.501 -17s40.834 5.66699 54.501 17s24.167 26 31.5 44
l38 -10c-2 -12 -6 -23.833 -12 -35.5s-14 -22.167 -24 -31.5s-22.333 -16.833 -37 -22.5s-31.667 -8.5 -51 -8.5z" />
    <glyph glyph-name="ibreve" unicode="&#x12d;" horiz-adv-x="267" 
d="M162 523v-523h-57v523h57zM133 625c-18 0 -34.1709 3 -48.5039 9s-26.833 14 -37.5 24s-19.167 21.5 -25.5 34.5s-10.5 26.5 -12.5 40.5l38 10c7.33301 -23.333 17.833 -41 31.5 -53s31.834 -18 54.501 -18s40.834 6 54.501 18s24.167 29.667 31.5 53l38 -10
c-2 -14 -6.16699 -27.5 -12.5 -40.5s-14.666 -24.5 -24.999 -34.5s-22.666 -18 -36.999 -24s-30.833 -9 -49.5 -9z" />
    <glyph glyph-name="Iogonek" unicode="&#x12e;" horiz-adv-x="279" 
d="M169 685l-0.00195312 -685c-31.333 -19.333 -53 -39.833 -65 -61.5s-18 -42.167 -18 -61.5c0 -16.667 5 -30.667 15 -42s25.333 -17 46 -17c11.333 0 21.833 1.16699 31.5 3.5s17.167 5.16602 22.5 8.49902l17 -38c-14 -7.33301 -27 -12.166 -39 -14.499
s-25 -3.5 -39 -3.5c-37.333 0 -65.166 9 -83.499 27s-27.5 41 -27.5 69c0 25.333 7.33301 49.333 22 72s34.334 42 59.001 58v685h59z" />
    <glyph glyph-name="iogonek" unicode="&#x12f;" horiz-adv-x="267" 
d="M162 523l-0.000976562 -523c-31.333 -19.333 -53 -39.833 -65 -61.5s-18 -42.167 -18 -61.5c0 -16.667 5 -30.667 15 -42s25.333 -17 46 -17c11.333 0 21.833 1.16699 31.5 3.5s17.167 5.16602 22.5 8.49902l17 -38c-14 -7.33301 -27 -12.166 -39 -14.499
s-25 -3.5 -39 -3.5c-37.333 0 -65.166 9 -83.499 27s-27.5 41 -27.5 69c0 25.333 7.5 49.5 22.5 72.5s35.167 42.167 60.5 57.5v523h57zM132.999 641c-13.333 0 -23.833 4 -31.5 12s-11.5 18 -11.5 30s3.83301 22 11.5 30s18.167 12 31.5 12s23.833 -4 31.5 -12
s11.5 -18 11.5 -30s-3.83301 -22 -11.5 -30s-18.167 -12 -31.5 -12z" />
    <glyph glyph-name="Idotaccent" unicode="&#x130;" horiz-adv-x="279" 
d="M169 685v-685h-59v685h59zM97 813c0 12 3.83301 21.833 11.5 29.5s17.834 11.5 30.501 11.5c13.333 0 23.666 -3.83301 30.999 -11.5s11 -17.5 11 -29.5s-3.66699 -21.833 -11 -29.5s-17.666 -11.5 -30.999 -11.5c-12.667 0 -22.834 3.83301 -30.501 11.5
s-11.5 17.5 -11.5 29.5z" />
    <glyph glyph-name="dotlessi" unicode="&#x131;" horiz-adv-x="267" 
d="M162 523v-523h-57v523h57z" />
    <glyph glyph-name="IJ" unicode="&#x132;" horiz-adv-x="567" 
d="M169 685v-685h-59v685h59zM284 -89c22 8.66699 40.167 18.1689 54.5 28.502s26 22.166 35 35.499s15.333 28.833 19 46.5s5.5 37.834 5.5 60.501v603h59v-601c0 -33.333 -3 -61.5 -9 -84.5s-15.333 -42.833 -28 -59.5s-29 -30.834 -49 -42.501
s-43.667 -22.834 -71 -33.501z" />
    <glyph glyph-name="ij" unicode="&#x133;" horiz-adv-x="534" 
d="M162 523v-523h-57v523h57zM133 641c-13.333 0 -23.833 4 -31.5 12s-11.5 18 -11.5 30s3.83301 22 11.5 30s18.167 12 31.5 12s23.833 -4 31.5 -12s11.5 -18 11.5 -30s-3.83301 -22 -11.5 -30s-18.167 -12 -31.5 -12zM400 641c-13.333 0 -23.833 4 -31.5 12
s-11.5 18 -11.5 30s3.83301 22 11.5 30s18.167 12 31.5 12s23.833 -4 31.5 -12s11.5 -18 11.5 -30s-3.83301 -22 -11.5 -30s-18.167 -12 -31.5 -12zM429 523v-503c0 -36 -3.16699 -65.667 -9.5 -89s-15.5 -43 -27.5 -59s-27 -29.667 -45 -41s-39 -23 -63 -35l-22 44
c18.667 9.33301 35 18.666 49 27.999s25.5 20.333 34.5 33s15.667 28.334 20 47.001s6.5 42 6.5 70v505h57z" />
    <glyph glyph-name="Jcircumflex" unicode="&#x134;" horiz-adv-x="288" 
d="M5 -89c22 8.66699 40.167 18.1689 54.5 28.502s26 22.166 35 35.499s15.333 28.833 19 46.5s5.5 37.834 5.5 60.501v603h59v-601c0 -33.333 -3 -61.5 -9 -84.5s-15.333 -42.833 -28 -59.5s-29 -30.834 -49 -42.501s-43.667 -22.834 -71 -33.501zM31 759.002l-27 30
l130 98h30l129 -98l-26 -30l-118 75z" />
    <glyph glyph-name="jcircumflex" unicode="&#x135;" horiz-adv-x="267" 
d="M162 523v-503c0 -36 -3.16699 -65.667 -9.5 -89s-15.5 -43 -27.5 -59s-27 -29.667 -45 -41s-39 -23 -63 -35l-22 44c18.667 9.33301 35 18.666 49 27.999s25.5 20.333 34.5 33s15.667 28.334 20 47.001s6.5 42 6.5 70v505h57zM16 619l-27 30l130 108h30l129 -108l-26 -30
l-118 85z" />
    <glyph glyph-name="uni0136" unicode="&#x136;" horiz-adv-x="545" 
d="M528 685l-284 -314l301 -371h-75l-297 368l283 317h72zM169 685v-685h-59v685h59zM247 -123c0 12 3.99902 22 11.999 30s18.667 12 32 12c14 0 24.667 -4 32 -12s11 -18 11 -30c0 -8 -1.16699 -16 -3.5 -24s-7.16602 -19 -14.499 -33l-40 -81h-35l28 101
c-14.667 8 -22 20.333 -22 37z" />
    <glyph glyph-name="uni0137" unicode="&#x137;" horiz-adv-x="483" 
d="M458 523l-219 -235l244 -288h-71l-239 286l215 237h70zM167 743v-743h-57v736zM221 -130c0 12 3.99902 22 11.999 30s18.667 12 32 12c14 0 24.667 -4 32 -12s11 -18 11 -30c0 -8 -1.16699 -16 -3.5 -24s-7.16602 -19 -14.499 -33l-40 -81h-35l28 101
c-14.667 8 -22 20.333 -22 37z" />
    <glyph glyph-name="kgreenlandic" unicode="&#x138;" horiz-adv-x="483" 
d="M167 523v-523h-57v523h57zM458 523l-219 -242l244 -281h-71l-239 279l215 244h70z" />
    <glyph glyph-name="Lacute" unicode="&#x139;" horiz-adv-x="475" 
d="M169 685v-631h286l-8 -54h-337v685h59zM80 791l177 93l32 -52l-189 -75z" />
    <glyph glyph-name="lacute" unicode="&#x13a;" horiz-adv-x="271" 
d="M157 743v-655c0 -33.333 13.667 -50 41 -50c7.33301 0 14 0.666992 20 2s11.667 3 17 5l16 -41c-18 -10 -39 -15 -63 -15c-25.333 0 -46.333 7.16699 -63 21.5s-25 39.5 -25 75.5v650zM27 811l177 93l32 -52l-189 -75z" />
    <glyph glyph-name="uni013B" unicode="&#x13b;" horiz-adv-x="475" 
d="M169 685v-631h286l-8 -54h-337v685h59zM227 -123c0 12 3.99902 22 11.999 30s18.667 12 32 12c14 0 24.667 -4 32 -12s11 -18 11 -30c0 -8 -1.16699 -16 -3.5 -24s-7.16602 -19 -14.499 -33l-40 -81h-35l28 101c-14.667 8 -22 20.333 -22 37z" />
    <glyph glyph-name="uni013C" unicode="&#x13c;" horiz-adv-x="271" 
d="M157 743v-655c0 -33.333 13.667 -50 41 -50c7.33301 0 14 0.666992 20 2s11.667 3 17 5l16 -41c-18 -10 -39 -15 -63 -15c-25.333 0 -46.333 7.16699 -63 21.5s-25 39.5 -25 75.5v650zM125 -130c0 12 3.99902 22 11.999 30s18.667 12 32 12c14 0 24.667 -4 32 -12
s11 -18 11 -30c0 -8 -1.16699 -16 -3.5 -24s-7.16602 -19 -14.499 -33l-40 -81h-35l28 101c-14.667 8 -22 20.333 -22 37z" />
    <glyph glyph-name="Lcaron" unicode="&#x13d;" horiz-adv-x="475" 
d="M169 685v-631h286l-8 -54h-337v685h59zM272 646c0 12 3.99902 22 11.999 30s18.667 12 32 12c14 0 24.667 -4 32 -12s11 -18 11 -30c0 -8 -1.16699 -16 -3.5 -24s-7.16602 -19 -14.499 -33l-40 -81h-35l28 101c-14.667 8 -22 20.333 -22 37z" />
    <glyph glyph-name="lcaron" unicode="&#x13e;" horiz-adv-x="271" 
d="M157 743v-655c0 -33.333 13.667 -50 41 -50c7.33301 0 14 0.666992 20 2s11.667 3 17 5l16 -41c-18 -10 -39 -15 -63 -15c-25.333 0 -46.333 7.16699 -63 21.5s-25 39.5 -25 75.5v650zM230 766c0 12 3.99902 22 11.999 30s18.667 12 32 12c14 0 24.667 -4 32 -12
s11 -18 11 -30c0 -8 -1.16699 -16 -3.5 -24s-7.16602 -19 -14.499 -33l-40 -81h-35l28 101c-14.667 8 -22 20.333 -22 37z" />
    <glyph glyph-name="Ldot" unicode="&#x13f;" horiz-adv-x="475" 
d="M169 685v-631h286l-8 -54h-337v685h59zM352 322c-13.333 0 -23.833 4 -31.5 12s-11.5 18 -11.5 30s3.83301 22 11.5 30s18.167 12 31.5 12s23.833 -4 31.5 -12s11.5 -18 11.5 -30s-3.83301 -22 -11.5 -30s-18.167 -12 -31.5 -12z" />
    <glyph glyph-name="ldot" unicode="&#x140;" horiz-adv-x="271" 
d="M157 743v-655c0 -33.333 13.667 -50 41 -50c7.33301 0 14 0.666992 20 2s11.667 3 17 5l16 -41c-18 -10 -39 -15 -63 -15c-25.333 0 -46.333 7.16699 -63 21.5s-25 39.5 -25 75.5v650zM262 322c-13.333 0 -23.833 4 -31.5 12s-11.5 18 -11.5 30s3.83301 22 11.5 30
s18.167 12 31.5 12s23.833 -4 31.5 -12s11.5 -18 11.5 -30s-3.83301 -22 -11.5 -30s-18.167 -12 -31.5 -12z" />
    <glyph glyph-name="Lslash" unicode="&#x141;" horiz-adv-x="475" 
d="M169 685v-309l182 112l26 -40l-208 -128v-268h286l-8 -52h-337v283l-64 -39l-26 40l90 55v346h59z" />
    <glyph glyph-name="lslash" unicode="&#x142;" horiz-adv-x="291" 
d="M167 743v-336l94 58l25 -39l-119 -74v-264c0 -33.333 13.667 -50 41 -50c7.33301 0 14 0.666992 20 2s11.667 3 17 5l16 -41c-18 -10 -39 -15 -63 -15c-25.333 0 -46.333 7.16699 -63 21.5s-25 39.5 -25 75.5v231l-53 -32l-25 39l78 48v364z" />
    <glyph glyph-name="Nacute" unicode="&#x143;" horiz-adv-x="672" 
d="M506 685h56v-685h-79l-323 619h-2c2.66699 -30.667 4.66699 -63.667 6 -99s2 -74 2 -116v-404h-56v685h78l324 -620h2c-2 30 -3.83301 62.833 -5.5 98.5s-2.5 74.5 -2.5 116.5v405zM241 791l177 93l32 -52l-189 -75z" />
    <glyph glyph-name="nacute" unicode="&#x144;" horiz-adv-x="581" 
d="M163 434c21.333 32 46.5 56.666 75.5 73.999s61.833 26 98.5 26c50 0 85.667 -13.667 107 -41s32 -66.666 32 -117.999v-375h-57v365c0 42.667 -7.66699 73.5 -23 92.5s-40 28.5 -74 28.5c-16.667 0 -32.5 -3.16699 -47.5 -9.5s-29 -14.833 -42 -25.5
s-25 -22.667 -36 -36s-20.833 -27 -29.5 -41v-374h-57v523h49zM183 650.999l182 105l32 -52l-194 -87z" />
    <glyph glyph-name="uni0145" unicode="&#x145;" horiz-adv-x="672" 
d="M506 685h56v-685h-79l-323 619h-2c2.66699 -30.667 4.66699 -63.667 6 -99s2 -74 2 -116v-404h-56v685h78l324 -620h2c-2 30 -3.83301 62.833 -5.5 98.5s-2.5 74.5 -2.5 116.5v405zM295 -123c0 12 3.99902 22 11.999 30s18.667 12 32 12c14 0 24.667 -4 32 -12
s11 -18 11 -30c0 -8 -1.16699 -16 -3.5 -24s-7.16602 -19 -14.499 -33l-40 -81h-35l28 101c-14.667 8 -22 20.333 -22 37z" />
    <glyph glyph-name="uni0146" unicode="&#x146;" horiz-adv-x="581" 
d="M163 434c21.333 32 46.5 56.666 75.5 73.999s61.833 26 98.5 26c50 0 85.667 -13.667 107 -41s32 -66.666 32 -117.999v-375h-57v365c0 42.667 -7.66699 73.5 -23 92.5s-40 28.5 -74 28.5c-16.667 0 -32.5 -3.16699 -47.5 -9.5s-29 -14.833 -42 -25.5
s-25 -22.667 -36 -36s-20.833 -27 -29.5 -41v-374h-57v523h49zM250 -130.001c0 12 3.99902 22 11.999 30s18.667 12 32 12c14 0 24.667 -4 32 -12s11 -18 11 -30c0 -8 -1.16699 -16 -3.5 -24s-7.16602 -19 -14.499 -33l-40 -81h-35l28 101c-14.667 8 -22 20.333 -22 37z" />
    <glyph glyph-name="Ncaron" unicode="&#x147;" horiz-adv-x="672" 
d="M506 685h56v-685h-79l-323 619h-2c2.66699 -30.667 4.66699 -63.667 6 -99s2 -74 2 -116v-404h-56v685h78l324 -620h2c-2 30 -3.83301 62.833 -5.5 98.5s-2.5 74.5 -2.5 116.5v405zM336 812l118 75l26 -30l-129 -98h-30l-130 98l27 30z" />
    <glyph glyph-name="ncaron" unicode="&#x148;" horiz-adv-x="581" 
d="M163 434c21.333 32 46.5 56.666 75.5 73.999s61.833 26 98.5 26c50 0 85.667 -13.667 107 -41s32 -66.666 32 -117.999v-375h-57v365c0 42.667 -7.66699 73.5 -23 92.5s-40 28.5 -74 28.5c-16.667 0 -32.5 -3.16699 -47.5 -9.5s-29 -14.833 -42 -25.5
s-25 -22.667 -36 -36s-20.833 -27 -29.5 -41v-374h-57v523h49zM291 671.999l118 85l26 -30l-129 -108h-30l-130 108l27 30z" />
    <glyph glyph-name="napostrophe" unicode="&#x149;" horiz-adv-x="581" 
d="M163 434c21.333 32 46.5 56.666 75.5 73.999s61.833 26 98.5 26c50 0 85.667 -13.667 107 -41s32 -66.666 32 -117.999v-375h-57v365c0 42.667 -7.66699 73.5 -23 92.5s-40 28.5 -74 28.5c-16.667 0 -32.5 -3.16699 -47.5 -9.5s-29 -14.833 -42 -25.5
s-25 -22.667 -36 -36s-20.833 -27 -29.5 -41v-374h-57v523h49zM70 774.999c0 12 3.99902 22 11.999 30s18.667 12 32 12c14 0 24.667 -4 32 -12s11 -18 11 -30c0 -8 -1.16699 -16 -3.5 -24s-7.16602 -19 -14.499 -33l-40 -81h-35l28 101c-14.667 8 -22 20.333 -22 37z" />
    <glyph glyph-name="Eng" unicode="&#x14a;" horiz-adv-x="672" 
d="M506 685h55.999v-685c0 -30 -3 -55.5 -9 -76.5s-15.333 -39.333 -28 -55s-29 -29.167 -49 -40.5s-43.667 -22.333 -71 -33l-15 44c22.667 10 41.5 19.667 56.5 29s27 20 36 32s15.333 25.833 19 41.5s5.83398 35.167 6.50098 58.5h-25l-323 619h-2
c2.66699 -30.667 4.66699 -63.667 6 -99s2 -74 2 -116v-404h-56v685h78l324 -620h2c-2 30 -3.83301 62.833 -5.5 98.5s-2.5 74.5 -2.5 116.5v405z" />
    <glyph glyph-name="eng" unicode="&#x14b;" horiz-adv-x="581" 
d="M419 359c0 45.333 -7.33301 77.832 -22 97.499s-39.667 29.5 -75 29.5c-16.667 0 -32.5 -3.16699 -47.5 -9.5s-29 -14.833 -42 -25.5s-25 -22.667 -36 -36s-20.833 -27 -29.5 -41v-374h-57v523h49l4 -89c21.333 32 46.5 56.667 75.5 74s61.833 26 98.5 26
c50 0 85.667 -13.667 107 -41s32 -66.666 32 -117.999v-355c0 -36 -3.16699 -65.667 -9.5 -89s-15.5 -43 -27.5 -59s-27 -29.667 -45 -41s-39 -23 -63 -35l-22 44c18.667 9.33301 35 18.666 49 27.999s25.5 20.333 34.5 33s15.667 28.334 20 47.001s6.5 42 6.5 70v341z" />
    <glyph glyph-name="Omacron" unicode="&#x14c;" horiz-adv-x="683" 
d="M613 342c0 -56 -6.66699 -105.834 -20 -149.501s-31.833 -80.5 -55.5 -110.5s-52.167 -53 -85.5 -69s-70 -24 -110 -24s-76.667 7.66699 -110 23s-62 37.833 -86 67.5s-42.667 66.334 -56 110.001s-20 94.167 -20 151.5c0 56 6.66699 106 20 150s32 81.167 56 111.5
s52.667 53.5 86 69.5s70 24 110 24s76.667 -7.66699 110 -23s61.833 -38 85.5 -68s42.167 -67 55.5 -111s20 -94.667 20 -152zM342 39.999c31.333 0 59.834 6.16504 85.501 18.498s47.667 31 66 56s32.5 56.333 42.5 94s15 82.167 15 133.5
c0 102.667 -19.167 178.834 -57.5 228.501s-88.833 74.5 -151.5 74.5c-31.333 0 -60 -6.16699 -86 -18.5s-48.167 -31.166 -66.5 -56.499s-32.5 -57 -42.5 -95s-15 -82.667 -15 -134s5.16699 -96 15.5 -134s24.666 -69.333 42.999 -94s40.333 -43 66 -55
s54.167 -18 85.5 -18zM458.001 796.997h-234v47h234v-47z" />
    <glyph glyph-name="omacron" unicode="&#x14d;" horiz-adv-x="572" 
d="M65 261c0 42 5.16895 79.832 15.502 113.499s25.166 62.334 44.499 86.001s42.666 41.834 69.999 54.501s58.333 19 93 19c34 0 64.667 -6.16699 92 -18.5s50.333 -30.333 69 -54s33 -52.167 43 -85.5s15 -71 15 -113s-5.16699 -79.833 -15.5 -113.5
s-25 -62.334 -44 -86.001s-42.167 -42 -69.5 -55s-58.333 -19.5 -93 -19.5s-65.5 6.33301 -92.5 19s-50 30.667 -69 54s-33.5 51.833 -43.5 85.5s-15 71.5 -15 113.5zM288.002 485.999c-50.667 0 -90.333 -18.668 -119 -56.001s-43 -93.666 -43 -168.999
c0 -74 14 -129.833 42 -167.5s67 -56.5 117 -56.5c50.667 0 90.167 18.833 118.5 56.5s42.5 94.167 42.5 169.5c0 74 -13.833 129.667 -41.5 167s-66.5 56 -116.5 56zM403.003 666.998h-234v47h234v-47z" />
    <glyph glyph-name="Obreve" unicode="&#x14e;" horiz-adv-x="683" 
d="M613 342c0 -56 -6.66699 -105.834 -20 -149.501s-31.833 -80.5 -55.5 -110.5s-52.167 -53 -85.5 -69s-70 -24 -110 -24s-76.667 7.66699 -110 23s-62 37.833 -86 67.5s-42.667 66.334 -56 110.001s-20 94.167 -20 151.5c0 56 6.66699 106 20 150s32 81.167 56 111.5
s52.667 53.5 86 69.5s70 24 110 24s76.667 -7.66699 110 -23s61.833 -38 85.5 -68s42.167 -67 55.5 -111s20 -94.667 20 -152zM342 39.999c31.333 0 59.834 6.16504 85.501 18.498s47.667 31 66 56s32.5 56.333 42.5 94s15 82.167 15 133.5
c0 102.667 -19.167 178.834 -57.5 228.501s-88.833 74.5 -151.5 74.5c-31.333 0 -60 -6.16699 -86 -18.5s-48.167 -31.166 -66.5 -56.499s-32.5 -57 -42.5 -95s-15 -82.667 -15 -134s5.16699 -96 15.5 -134s24.666 -69.333 42.999 -94s40.333 -43 66 -55
s54.167 -18 85.5 -18zM341.001 764.997c-18.667 0 -35.335 2.83301 -50.002 8.5s-27.167 13.167 -37.5 22.5s-18.5 19.833 -24.5 31.5s-10 23.5 -12 35.5l38 10c7.33301 -18 17.833 -32.667 31.5 -44s31.834 -17 54.501 -17s40.834 5.66699 54.501 17s24.167 26 31.5 44
l38 -10c-2 -12 -6 -23.833 -12 -35.5s-14 -22.167 -24 -31.5s-22.333 -16.833 -37 -22.5s-31.667 -8.5 -51 -8.5z" />
    <glyph glyph-name="obreve" unicode="&#x14f;" horiz-adv-x="572" 
d="M65 261c0 42 5.16895 79.832 15.502 113.499s25.166 62.334 44.499 86.001s42.666 41.834 69.999 54.501s58.333 19 93 19c34 0 64.667 -6.16699 92 -18.5s50.333 -30.333 69 -54s33 -52.167 43 -85.5s15 -71 15 -113s-5.16699 -79.833 -15.5 -113.5
s-25 -62.334 -44 -86.001s-42.167 -42 -69.5 -55s-58.333 -19.5 -93 -19.5s-65.5 6.33301 -92.5 19s-50 30.667 -69 54s-33.5 51.833 -43.5 85.5s-15 71.5 -15 113.5zM288.002 485.999c-50.667 0 -90.333 -18.668 -119 -56.001s-43 -93.666 -43 -168.999
c0 -74 14 -129.833 42 -167.5s67 -56.5 117 -56.5c50.667 0 90.167 18.833 118.5 56.5s42.5 94.167 42.5 169.5c0 74 -13.833 129.667 -41.5 167s-66.5 56 -116.5 56zM286.003 624.998c-18 0 -34.1709 3 -48.5039 9s-26.833 14 -37.5 24s-19.167 21.5 -25.5 34.5
s-10.5 26.5 -12.5 40.5l38 10c7.33301 -23.333 17.833 -41 31.5 -53s31.834 -18 54.501 -18s40.834 6 54.501 18s24.167 29.667 31.5 53l38 -10c-2 -14 -6.16699 -27.5 -12.5 -40.5s-14.666 -24.5 -24.999 -34.5s-22.666 -18 -36.999 -24s-30.833 -9 -49.5 -9z" />
    <glyph glyph-name="Ohungarumlaut" unicode="&#x150;" horiz-adv-x="683" 
d="M613 342c0 -56 -6.66699 -105.834 -20 -149.501s-31.833 -80.5 -55.5 -110.5s-52.167 -53 -85.5 -69s-70 -24 -110 -24s-76.667 7.66699 -110 23s-62 37.833 -86 67.5s-42.667 66.334 -56 110.001s-20 94.167 -20 151.5c0 56 6.66699 106 20 150s32 81.167 56 111.5
s52.667 53.5 86 69.5s70 24 110 24s76.667 -7.66699 110 -23s61.833 -38 85.5 -68s42.167 -67 55.5 -111s20 -94.667 20 -152zM342 39.999c31.333 0 59.834 6.16504 85.501 18.498s47.667 31 66 56s32.5 56.333 42.5 94s15 82.167 15 133.5
c0 102.667 -19.167 178.834 -57.5 228.501s-88.833 74.5 -151.5 74.5c-31.333 0 -60 -6.16699 -86 -18.5s-48.167 -31.166 -66.5 -56.499s-32.5 -57 -42.5 -95s-15 -82.667 -15 -134s5.16699 -96 15.5 -134s24.666 -69.333 42.999 -94s40.333 -43 66 -55
s54.167 -18 85.5 -18zM251.001 784.997l71 149l52 -26l-87 -141zM382.001 784.997l80 149l50 -29l-96 -140z" />
    <glyph glyph-name="ohungarumlaut" unicode="&#x151;" horiz-adv-x="572" 
d="M65 261c0 42 5.16895 79.832 15.502 113.499s25.166 62.334 44.499 86.001s42.666 41.834 69.999 54.501s58.333 19 93 19c34 0 64.667 -6.16699 92 -18.5s50.333 -30.333 69 -54s33 -52.167 43 -85.5s15 -71 15 -113s-5.16699 -79.833 -15.5 -113.5
s-25 -62.334 -44 -86.001s-42.167 -42 -69.5 -55s-58.333 -19.5 -93 -19.5s-65.5 6.33301 -92.5 19s-50 30.667 -69 54s-33.5 51.833 -43.5 85.5s-15 71.5 -15 113.5zM288.002 485.999c-50.667 0 -90.333 -18.668 -119 -56.001s-43 -93.666 -43 -168.999
c0 -74 14 -129.833 42 -167.5s67 -56.5 117 -56.5c50.667 0 90.167 18.833 118.5 56.5s42.5 94.167 42.5 169.5c0 74 -13.833 129.667 -41.5 167s-66.5 56 -116.5 56zM193.003 644.998l75 157l53 -26l-92 -149zM324.003 644.998l84 157l51 -29l-101 -148z" />
    <glyph glyph-name="OE" unicode="&#x152;" horiz-adv-x="881" 
d="M778 380l0.000976562 -50.001h-191c-1.33301 -65.333 -9.83301 -120.833 -25.5 -166.5s-39.5 -83.5 -71.5 -113.5h341v-50h-415c-24 -7.33301 -48.667 -11 -74 -11c-40 0 -76.667 7.66699 -110 23s-62 37.833 -86 67.5s-42.667 66.334 -56 110.001s-20 94.167 -20 151.5
c0 56 6.66699 106 20 150s32 81.167 56 111.5s52.667 53.5 86 69.5s70 24 110 24c26 0 51 -3.66699 75 -11h406l-7 -50h-324c57.333 -52 88.666 -137 93.999 -255h192zM342.001 40.999c57.333 0 103.167 24.668 137.5 74.001s51.5 125 51.5 227
c0 102.667 -17.167 178.667 -51.5 228s-80.166 74 -137.499 74c-31.333 0 -60 -6.16699 -86 -18.5s-48.167 -31 -66.5 -56s-32.5 -56.5 -42.5 -94.5s-15 -82.667 -15 -134s5.16699 -95.833 15.5 -133.5s24.666 -68.834 42.999 -93.501s40.333 -43 66 -55
s54.167 -18 85.5 -18z" />
    <glyph glyph-name="oe" unicode="&#x153;" horiz-adv-x="914" 
d="M65 261c0 42 5.16992 79.8301 15.5029 113.497s25.166 62.334 44.499 86.001s42.666 41.834 69.999 54.501s58.333 19 93 19c44 0 82 -10.667 114 -32s57 -53.666 75 -96.999c35.333 86 95.333 129 180 129c65.333 0 114.5 -22.333 147.5 -67s49.5 -108 49.5 -190
c0 -6 -0.166992 -12.5 -0.5 -19.5s-0.833008 -13.167 -1.5 -18.5h-345c2 -35.333 7.5 -65.5 16.5 -90.5s20.833 -45.667 35.5 -62s31.667 -28.333 51 -36s40 -11.5 62 -11.5c28 0 52.833 4 74.5 12s43.5 21.667 65.5 41l27 -40c-46 -42 -102.333 -63 -169 -63
c-48 0 -87.833 11 -119.5 33s-56.834 55.667 -75.501 101c-36.667 -89.333 -100 -134 -190 -134c-34.667 0 -65.5 6.33301 -92.5 19s-50 30.667 -69 54s-33.5 51.833 -43.5 85.5s-15 71.5 -15 113.5zM288.003 483.997c-50.667 0 -90.333 -18.333 -119 -55
s-43 -92.667 -43 -168c0 -74 14 -129.5 42 -166.5s67 -55.5 117 -55.5c50.667 0 90.167 18.5 118.5 55.5s42.5 93.167 42.5 168.5c0 76 -14.167 131.833 -42.5 167.5s-66.833 53.5 -115.5 53.5zM657.004 484.997c-42 0 -76.6699 -16.001 -104.003 -48.001
s-42.666 -83 -45.999 -153h290c-1.33301 64.667 -13.166 114.334 -35.499 149.001s-57.166 52 -104.499 52z" />
    <glyph glyph-name="Racute" unicode="&#x154;" horiz-adv-x="585" 
d="M293 308l-124 0.00195312v-308h-59v685h170c82.667 0 144.5 -15.167 185.5 -45.5s61.5 -77.166 61.5 -140.499c0 -29.333 -4.66699 -54.333 -14 -75s-21.833 -38.334 -37.5 -53.001s-34 -26.334 -55 -35.001s-43.167 -15.334 -66.5 -20.001l206 -316h-71zM169 357.002
h118c26 0 49.833 2.5 71.5 7.5s40.5 13 56.5 24s28.333 25.667 37 44s13 40.5 13 66.5c0 48.667 -14.833 83.5 -44.5 104.5s-75.5 31.5 -137.5 31.5h-114v-278zM203 791.002l177 93l32 -52l-189 -75z" />
    <glyph glyph-name="racute" unicode="&#x155;" horiz-adv-x="369" 
d="M165 408c15.333 44.667 35.167 76.833 59.5 96.5s54.5 29.5 90.5 29.5c18.667 0 35 -2 49 -6l-11 -57c-14 4 -29.333 6 -46 6c-34 0 -62.333 -14 -85 -42s-41 -65 -55 -111v-324h-57v523h49zM107.001 650.999l182 105l32 -52l-194 -87z" />
    <glyph glyph-name="uni0156" unicode="&#x156;" horiz-adv-x="585" 
d="M293 308l-124 0.00195312v-308h-59v685h170c82.667 0 144.5 -15.167 185.5 -45.5s61.5 -77.166 61.5 -140.499c0 -29.333 -4.66699 -54.333 -14 -75s-21.833 -38.334 -37.5 -53.001s-34 -26.334 -55 -35.001s-43.167 -15.334 -66.5 -20.001l206 -316h-71zM169 357.002
h118c26 0 49.833 2.5 71.5 7.5s40.5 13 56.5 24s28.333 25.667 37 44s13 40.5 13 66.5c0 48.667 -14.833 83.5 -44.5 104.5s-75.5 31.5 -137.5 31.5h-114v-278zM267 -122.998c0 12 3.99902 22 11.999 30s18.667 12 32 12c14 0 24.667 -4 32 -12s11 -18 11 -30
c0 -8 -1.16699 -16 -3.5 -24s-7.16602 -19 -14.499 -33l-40 -81h-35l28 101c-14.667 8 -22 20.333 -22 37z" />
    <glyph glyph-name="uni0157" unicode="&#x157;" horiz-adv-x="369" 
d="M165 408c15.333 44.667 35.167 76.833 59.5 96.5s54.5 29.5 90.5 29.5c18.667 0 35 -2 49 -6l-11 -57c-14 4 -29.333 6 -46 6c-34 0 -62.333 -14 -85 -42s-41 -65 -55 -111v-324h-57v523h49zM98.001 -130.001c0 12 3.99902 22 11.999 30s18.667 12 32 12
c14 0 24.667 -4 32 -12s11 -18 11 -30c0 -8 -1.16699 -16 -3.5 -24s-7.16602 -19 -14.499 -33l-40 -81h-35l28 101c-14.667 8 -22 20.333 -22 37z" />
    <glyph glyph-name="Rcaron" unicode="&#x158;" horiz-adv-x="585" 
d="M293 308l-124 0.00195312v-308h-59v685h170c82.667 0 144.5 -15.167 185.5 -45.5s61.5 -77.166 61.5 -140.499c0 -29.333 -4.66699 -54.333 -14 -75s-21.833 -38.334 -37.5 -53.001s-34 -26.334 -55 -35.001s-43.167 -15.334 -66.5 -20.001l206 -316h-71zM169 357.002
h118c26 0 49.833 2.5 71.5 7.5s40.5 13 56.5 24s28.333 25.667 37 44s13 40.5 13 66.5c0 48.667 -14.833 83.5 -44.5 104.5s-75.5 31.5 -137.5 31.5h-114v-278zM308 812.002l118 75l26 -30l-129 -98h-30l-130 98l27 30z" />
    <glyph glyph-name="rcaron" unicode="&#x159;" horiz-adv-x="369" 
d="M165 408c15.333 44.667 35.167 76.833 59.5 96.5s54.5 29.5 90.5 29.5c18.667 0 35 -2 49 -6l-11 -57c-14 4 -29.333 6 -46 6c-34 0 -62.333 -14 -85 -42s-41 -65 -55 -111v-324h-57v523h49zM215.001 671.999l118 85l26 -30l-129 -108h-30l-130 108l27 30z" />
    <glyph glyph-name="Sacute" unicode="&#x15a;" horiz-adv-x="543" 
d="M439 584c-24 21.333 -48.8291 36.8359 -74.4961 46.5029s-55.834 14.5 -90.501 14.5c-42.667 0 -78 -9.5 -106 -28.5s-42 -46.833 -42 -83.5c0 -18 2.83301 -33.667 8.5 -47s14.834 -25.333 27.501 -36s29.5 -20.5 50.5 -29.5s46.833 -18.167 77.5 -27.5
c30 -9.33301 57.833 -19.5 83.5 -30.5s47.667 -24.167 66 -39.5s32.666 -33.833 42.999 -55.5s15.5 -47.834 15.5 -78.501c0 -30 -5.33301 -57.167 -16 -81.5s-26.167 -45.333 -46.5 -63s-45.166 -31.334 -74.499 -41.001s-62.333 -14.5 -99 -14.5
c-48 0 -90.833 7.16699 -128.5 21.5s-70.5 34.833 -98.5 61.5l35 41c25.333 -22.667 53.666 -40.5 84.999 -53.5s67 -19.5 107 -19.5c52 0 94 12.667 126 38s48 61.666 48 108.999c0 21.333 -3.33301 39.666 -10 54.999s-16.834 28.833 -30.501 40.5
s-31.334 22.167 -53.001 31.5s-47.5 18.666 -77.5 27.999c-34.667 10.667 -64.5 21.834 -89.5 33.501s-45.667 24.834 -62 39.501s-28.5 31.334 -36.5 50.001s-12 40.667 -12 66c0 24.667 5 47.167 15 67.5s24.167 37.666 42.5 51.999s40.166 25.5 65.499 33.5
s53.333 12 84 12c46.667 0 85.667 -6.66699 117 -20s60 -31 86 -53zM177.004 791.003l177 93l32 -52l-189 -75z" />
    <glyph glyph-name="sacute" unicode="&#x15b;" horiz-adv-x="458" 
d="M367 448c-18.667 12 -38.168 21.335 -58.501 28.002s-44.5 10 -72.5 10c-36.667 0 -65.834 -7.5 -87.501 -22.5s-32.5 -35.167 -32.5 -60.5c0 -28.667 9.66699 -50.5 29 -65.5s52.333 -28.5 99 -40.5c26.667 -7.33301 50.5 -15.333 71.5 -24s38.667 -19.167 53 -31.5
s25.333 -26.833 33 -43.5s11.5 -36.334 11.5 -59.001c0 -26 -5.5 -48.333 -16.5 -67s-25.5 -34.167 -43.5 -46.5s-38.833 -21.5 -62.5 -27.5s-48.167 -9 -73.5 -9c-39.333 0 -75 6 -107 18s-58.667 27.333 -80 46l32 39c20.667 -16.667 44 -30 70 -40s54.333 -15 85 -15
c40 0 72.5 8.16699 97.5 24.5s37.5 40.5 37.5 72.5c0 16 -2.16699 29.667 -6.5 41s-11.666 21.5 -21.999 30.5s-24.5 17 -42.5 24s-40.667 14.167 -68 21.5c-50 13.333 -88.5 31.166 -115.5 53.499s-40.5 53.833 -40.5 94.5c0 20 4.33301 38.333 13 55s21 31 37 43
s35 21.167 57 27.5s46.333 9.5 73 9.5c32.667 0 61.834 -4 87.501 -12s48.5 -18.667 68.5 -32zM121.999 651.002l182 105l32 -52l-194 -87z" />
    <glyph glyph-name="Scircumflex" unicode="&#x15c;" horiz-adv-x="543" 
d="M439 584c-24 21.333 -48.8291 36.8359 -74.4961 46.5029s-55.834 14.5 -90.501 14.5c-42.667 0 -78 -9.5 -106 -28.5s-42 -46.833 -42 -83.5c0 -18 2.83301 -33.667 8.5 -47s14.834 -25.333 27.501 -36s29.5 -20.5 50.5 -29.5s46.833 -18.167 77.5 -27.5
c30 -9.33301 57.833 -19.5 83.5 -30.5s47.667 -24.167 66 -39.5s32.666 -33.833 42.999 -55.5s15.5 -47.834 15.5 -78.501c0 -30 -5.33301 -57.167 -16 -81.5s-26.167 -45.333 -46.5 -63s-45.166 -31.334 -74.499 -41.001s-62.333 -14.5 -99 -14.5
c-48 0 -90.833 7.16699 -128.5 21.5s-70.5 34.833 -98.5 61.5l35 41c25.333 -22.667 53.666 -40.5 84.999 -53.5s67 -19.5 107 -19.5c52 0 94 12.667 126 38s48 61.666 48 108.999c0 21.333 -3.33301 39.666 -10 54.999s-16.834 28.833 -30.501 40.5
s-31.334 22.167 -53.001 31.5s-47.5 18.666 -77.5 27.999c-34.667 10.667 -64.5 21.834 -89.5 33.501s-45.667 24.834 -62 39.501s-28.5 31.334 -36.5 50.001s-12 40.667 -12 66c0 24.667 5 47.167 15 67.5s24.167 37.666 42.5 51.999s40.166 25.5 65.499 33.5
s53.333 12 84 12c46.667 0 85.667 -6.66699 117 -20s60 -31 86 -53zM164.004 759.003l-27 30l130 98h30l129 -98l-26 -30l-118 75z" />
    <glyph glyph-name="scircumflex" unicode="&#x15d;" horiz-adv-x="458" 
d="M367 448c-18.667 12 -38.168 21.335 -58.501 28.002s-44.5 10 -72.5 10c-36.667 0 -65.834 -7.5 -87.501 -22.5s-32.5 -35.167 -32.5 -60.5c0 -28.667 9.66699 -50.5 29 -65.5s52.333 -28.5 99 -40.5c26.667 -7.33301 50.5 -15.333 71.5 -24s38.667 -19.167 53 -31.5
s25.333 -26.833 33 -43.5s11.5 -36.334 11.5 -59.001c0 -26 -5.5 -48.333 -16.5 -67s-25.5 -34.167 -43.5 -46.5s-38.833 -21.5 -62.5 -27.5s-48.167 -9 -73.5 -9c-39.333 0 -75 6 -107 18s-58.667 27.333 -80 46l32 39c20.667 -16.667 44 -30 70 -40s54.333 -15 85 -15
c40 0 72.5 8.16699 97.5 24.5s37.5 40.5 37.5 72.5c0 16 -2.16699 29.667 -6.5 41s-11.666 21.5 -21.999 30.5s-24.5 17 -42.5 24s-40.667 14.167 -68 21.5c-50 13.333 -88.5 31.166 -115.5 53.499s-40.5 53.833 -40.5 94.5c0 20 4.33301 38.333 13 55s21 31 37 43
s35 21.167 57 27.5s46.333 9.5 73 9.5c32.667 0 61.834 -4 87.501 -12s48.5 -18.667 68.5 -32zM110.999 619.002l-27 30l130 108h30l129 -108l-26 -30l-118 85z" />
    <glyph glyph-name="Scedilla" unicode="&#x15e;" horiz-adv-x="543" 
d="M316 -142c0 17.333 -7.16309 28.833 -21.4961 34.5s-33.5 8.83398 -57.5 9.50098l6 88c-86 4 -155.333 31.333 -208 82l35 41c25.333 -22.667 53.666 -40.5 84.999 -53.5s67 -19.5 107 -19.5c52 0 94 12.667 126 38s48 61.666 48 108.999
c0 21.333 -3.33301 39.666 -10 54.999s-16.834 28.833 -30.501 40.5s-31.334 22.167 -53.001 31.5s-47.5 18.666 -77.5 27.999c-34.667 10.667 -64.5 21.834 -89.5 33.501s-45.667 24.834 -62 39.501s-28.5 31.334 -36.5 50.001s-12 40.667 -12 66
c0 24.667 5 47.167 15 67.5s24.167 37.666 42.5 51.999s40.166 25.5 65.499 33.5s53.333 12 84 12c46.667 0 85.667 -6.66699 117 -20s60 -31 86 -53l-36 -39c-24 21.333 -48.833 36.833 -74.5 46.5s-55.834 14.5 -90.501 14.5c-42.667 0 -78 -9.5 -106 -28.5
s-42 -46.833 -42 -83.5c0 -18 2.83301 -33.667 8.5 -47s14.834 -25.333 27.501 -36s29.5 -20.5 50.5 -29.5s46.833 -18.167 77.5 -27.5c30 -9.33301 57.833 -19.5 83.5 -30.5s47.667 -24.167 66 -39.5s32.666 -33.833 42.999 -55.5s15.5 -47.834 15.5 -78.501
c0 -56.667 -18.333 -102.667 -55 -138s-88 -55.666 -154 -60.999v-57c30 -3.33301 51.5 -11.5 64.5 -24.5s19.5 -30.167 19.5 -51.5c0 -28 -10.5 -48.833 -31.5 -62.5s-46.5 -20.5 -76.5 -20.5c-18.667 0 -34.667 1.66699 -48 5s-25.666 8 -36.999 14l22 39
c7.33301 -4 16.333 -7.33301 27 -10s21 -4 31 -4c16.667 0 30.167 2.83301 40.5 8.5s15.5 16.167 15.5 31.5z" />
    <glyph glyph-name="scedilla" unicode="&#x15f;" horiz-adv-x="458" 
d="M268 -142c0 17.333 -7.16895 28.834 -21.502 34.501s-33.5 8.83398 -57.5 9.50098l6 88c-36 2 -67.667 8.66699 -95 20s-50.666 25.666 -69.999 42.999l32 39c20.667 -16.667 44 -30 70 -40s54.333 -15 85 -15c40 0 72.5 8.16699 97.5 24.5s37.5 40.5 37.5 72.5
c0 15.333 -2.16699 28.666 -6.5 39.999s-11.666 21.5 -21.999 30.5s-24.5 17.167 -42.5 24.5s-40.667 14.666 -68 21.999c-50 13.333 -88.5 31.166 -115.5 53.499s-40.5 53.833 -40.5 94.5c0 20 4.33301 38.333 13 55s21 30.834 37 42.501s35 20.834 57 27.501
s46.667 10 74 10c32.667 0 61.667 -4 87 -12s48 -18.667 68 -32l-26 -42c-18.667 12 -38.167 21.333 -58.5 28s-44.5 10 -72.5 10c-36.667 0 -65.834 -7.5 -87.501 -22.5s-32.5 -35.167 -32.5 -60.5c0 -28 9.83301 -49.5 29.5 -64.5s52.834 -28.5 99.501 -40.5
c26.667 -7.33301 50.5 -15.333 71.5 -24s38.667 -19 53 -31s25.166 -26.5 32.499 -43.5s11 -36.833 11 -59.5c0 -24 -4.66699 -45 -14 -63s-21.833 -33.167 -37.5 -45.5s-34 -21.833 -55 -28.5s-42.833 -11 -65.5 -13v-57c30 -3.33301 51.5 -11.5 64.5 -24.5
s19.5 -30.167 19.5 -51.5c0 -28 -10.5 -48.833 -31.5 -62.5s-46.5 -20.5 -76.5 -20.5c-18.667 0 -34.667 1.66699 -48 5s-25.666 8 -36.999 14l22 39c7.33301 -4 16.333 -7.33301 27 -10s21 -4 31 -4c16.667 0 30.167 2.83301 40.5 8.5s15.5 16.167 15.5 31.5z" />
    <glyph glyph-name="Scaron" unicode="&#x160;" horiz-adv-x="543" 
d="M439 584c-24 21.333 -48.8291 36.8359 -74.4961 46.5029s-55.834 14.5 -90.501 14.5c-42.667 0 -78 -9.5 -106 -28.5s-42 -46.833 -42 -83.5c0 -18 2.83301 -33.667 8.5 -47s14.834 -25.333 27.501 -36s29.5 -20.5 50.5 -29.5s46.833 -18.167 77.5 -27.5
c30 -9.33301 57.833 -19.5 83.5 -30.5s47.667 -24.167 66 -39.5s32.666 -33.833 42.999 -55.5s15.5 -47.834 15.5 -78.501c0 -30 -5.33301 -57.167 -16 -81.5s-26.167 -45.333 -46.5 -63s-45.166 -31.334 -74.499 -41.001s-62.333 -14.5 -99 -14.5
c-48 0 -90.833 7.16699 -128.5 21.5s-70.5 34.833 -98.5 61.5l35 41c25.333 -22.667 53.666 -40.5 84.999 -53.5s67 -19.5 107 -19.5c52 0 94 12.667 126 38s48 61.666 48 108.999c0 21.333 -3.33301 39.666 -10 54.999s-16.834 28.833 -30.501 40.5
s-31.334 22.167 -53.001 31.5s-47.5 18.666 -77.5 27.999c-34.667 10.667 -64.5 21.834 -89.5 33.501s-45.667 24.834 -62 39.501s-28.5 31.334 -36.5 50.001s-12 40.667 -12 66c0 24.667 5 47.167 15 67.5s24.167 37.666 42.5 51.999s40.166 25.5 65.499 33.5
s53.333 12 84 12c46.667 0 85.667 -6.66699 117 -20s60 -31 86 -53zM282.004 812.003l118 75l26 -30l-129 -98h-30l-130 98l27 30z" />
    <glyph glyph-name="scaron" unicode="&#x161;" horiz-adv-x="458" 
d="M367 448c-18.667 12 -38.168 21.335 -58.501 28.002s-44.5 10 -72.5 10c-36.667 0 -65.834 -7.5 -87.501 -22.5s-32.5 -35.167 -32.5 -60.5c0 -28.667 9.66699 -50.5 29 -65.5s52.333 -28.5 99 -40.5c26.667 -7.33301 50.5 -15.333 71.5 -24s38.667 -19.167 53 -31.5
s25.333 -26.833 33 -43.5s11.5 -36.334 11.5 -59.001c0 -26 -5.5 -48.333 -16.5 -67s-25.5 -34.167 -43.5 -46.5s-38.833 -21.5 -62.5 -27.5s-48.167 -9 -73.5 -9c-39.333 0 -75 6 -107 18s-58.667 27.333 -80 46l32 39c20.667 -16.667 44 -30 70 -40s54.333 -15 85 -15
c40 0 72.5 8.16699 97.5 24.5s37.5 40.5 37.5 72.5c0 16 -2.16699 29.667 -6.5 41s-11.666 21.5 -21.999 30.5s-24.5 17 -42.5 24s-40.667 14.167 -68 21.5c-50 13.333 -88.5 31.166 -115.5 53.499s-40.5 53.833 -40.5 94.5c0 20 4.33301 38.333 13 55s21 31 37 43
s35 21.167 57 27.5s46.333 9.5 73 9.5c32.667 0 61.834 -4 87.501 -12s48.5 -18.667 68.5 -32zM228.999 672.002l118 85l26 -30l-129 -108h-30l-130 108l27 30z" />
    <glyph glyph-name="uni0162" unicode="&#x162;" horiz-adv-x="499" 
d="M308 -142c0 17.333 -7.16797 28.832 -21.501 34.499s-33.5 8.83398 -57.5 9.50098l7 98h-14v633h-202v52h464l-7 -52h-196v-700c30 -3.33301 51.5 -11.5 64.5 -24.5s19.5 -30.167 19.5 -51.5c0 -28 -10.5 -48.833 -31.5 -62.5s-46.5 -20.5 -76.5 -20.5
c-18.667 0 -34.667 1.66699 -48 5s-25.666 8 -36.999 14l22 39c7.33301 -4 16.333 -7.33301 27 -10s21 -4 31 -4c16.667 0 30.167 2.83301 40.5 8.5s15.5 16.167 15.5 31.5z" />
    <glyph glyph-name="uni0163" unicode="&#x163;" horiz-adv-x="365" 
d="M288 -142c0 17.333 -7.16895 28.833 -21.502 34.5s-33.5 8.83398 -57.5 9.50098l6 91c-31.333 6 -54.666 20.667 -69.999 44s-23 54 -23 92v350h-97v44h97v125l57 7v-132h137l-6 -44h-131v-346c0 -32.667 6.16699 -56.667 18.5 -72s32.5 -23 60.5 -23
c13.333 0 26.5 2.16699 39.5 6.5s26.167 10.166 39.5 17.499l23 -40c-29.333 -20 -62.333 -31 -99 -33v-56c30 -3.33301 51.5 -11.5 64.5 -24.5s19.5 -30.167 19.5 -51.5c0 -28 -10.5 -48.833 -31.5 -62.5s-46.5 -20.5 -76.5 -20.5c-18.667 0 -34.667 1.66699 -48 5
s-25.666 8 -36.999 14l22 39c7.33301 -4 16.333 -7.33301 27 -10s21 -4 31 -4c16.667 0 30.167 2.83301 40.5 8.5s15.5 16.167 15.5 31.5z" />
    <glyph glyph-name="Tcaron" unicode="&#x164;" horiz-adv-x="499" 
d="M222 0v633h-202v52h464l-7 -52h-196v-633h-59zM250 812l118 75l26 -30l-129 -98h-30l-130 98l27 30z" />
    <glyph glyph-name="tcaron" unicode="&#x165;" horiz-adv-x="365" 
d="M25 523l97.001 0.00195312v125l57 7v-132h137l-6 -44h-131v-346c0 -32.667 6.16699 -56.667 18.5 -72s32.5 -23 60.5 -23c13.333 0 26.5 2.16699 39.5 6.5s26.167 10.166 39.5 17.499l23 -40c-15.333 -10.667 -32.333 -18.834 -51 -24.501s-38.334 -8.5 -59.001 -8.5
c-42.667 0 -74.667 12.333 -96 37s-32 59 -32 103v350h-97v44zM257.001 766.002c0 12 3.99902 22 11.999 30s18.667 12 32 12c14 0 24.667 -4 32 -12s11 -18 11 -30c0 -8 -1.16699 -16 -3.5 -24s-7.16602 -19 -14.499 -33l-40 -81h-35l28 101c-14.667 8 -22 20.333 -22 37z
" />
    <glyph glyph-name="Tbar" unicode="&#x166;" horiz-adv-x="499" 
d="M222 0v374h-124v48h124v211h-202v52h464l-7 -52h-196v-211h124v-48h-124v-374h-59z" />
    <glyph glyph-name="tbar" unicode="&#x167;" horiz-adv-x="365" 
d="M25 523l97.001 0.00195312v125l57 7v-132h137l-6 -44h-131v-135h129v-44h-129v-167c0 -32.667 6.16699 -56.667 18.5 -72s32.5 -23 60.5 -23c13.333 0 26.5 2.16699 39.5 6.5s26.167 10.166 39.5 17.499l23 -40c-15.333 -10.667 -32.333 -18.834 -51 -24.501
s-38.334 -8.5 -59.001 -8.5c-42.667 0 -74.667 12.333 -96 37s-32 59 -32 103v171h-92v44h92v135h-97v44z" />
    <glyph glyph-name="Utilde" unicode="&#x168;" horiz-adv-x="652" 
d="M159 685v-464c0 -120.667 55.667 -181 167 -181s167 60.333 167 181v464h59v-467c0 -71.333 -19.333 -127.333 -58 -168s-94.667 -61 -168 -61s-129.333 20 -168 60s-58 96.333 -58 169v467h59zM379 775c-12 0 -22.9971 2.33203 -32.9971 6.99902
s-19.5 9.83398 -28.5 15.501l-25 15.5c-7.66699 4.66699 -15.167 7 -22.5 7c-12 0 -22.167 -3.83301 -30.5 -11.5s-16.5 -18.5 -24.5 -32.5l-35 17c10 23.333 22.5 41.333 37.5 54s33.167 19 54.5 19c14 0 26.167 -2.33301 36.5 -7s19.666 -9.83398 27.999 -15.501
l23.5 -15.5c7.33301 -4.66699 14.666 -7 21.999 -7c11.333 0 21.166 3.66699 29.499 11s16.5 18 24.5 32l36 -17c-10.667 -23.333 -23.5 -41.166 -38.5 -53.499s-33.167 -18.5 -54.5 -18.5z" />
    <glyph glyph-name="utilde" unicode="&#x169;" horiz-adv-x="575" 
d="M412 89c-21.333 -32 -45.833 -56.667 -73.5 -74s-59.167 -26 -94.5 -26c-48 0 -83.167 13.5 -105.5 40.5s-33.5 66.167 -33.5 117.5v376h57v-369c0 -42 7.66699 -72 23 -90s38.333 -27 69 -27c16 0 31.5 3.16699 46.5 9.5s29 14.833 42 25.5s25 22.667 36 36
s20.833 27 29.5 41v374h57v-523h-49zM340 645c-12 0 -22.9971 2.33203 -32.9971 6.99902s-19.5 9.83398 -28.5 15.501l-25 15.5c-7.66699 4.66699 -15.167 7 -22.5 7c-12 0 -22.167 -3.83301 -30.5 -11.5s-16.5 -18.5 -24.5 -32.5l-35 17c10 23.333 22.5 41.333 37.5 54
s33.167 19 54.5 19c14 0 26.167 -2.33301 36.5 -7s19.666 -9.83398 27.999 -15.501l23.5 -15.5c7.33301 -4.66699 14.666 -7 21.999 -7c11.333 0 21.166 3.66699 29.499 11s16.5 18 24.5 32l36 -17c-10.667 -23.333 -23.5 -41.166 -38.5 -53.499s-33.167 -18.5 -54.5 -18.5z
" />
    <glyph glyph-name="Umacron" unicode="&#x16a;" horiz-adv-x="652" 
d="M159 685v-464c0 -120.667 55.667 -181 167 -181s167 60.333 167 181v464h59v-467c0 -71.333 -19.333 -127.333 -58 -168s-94.667 -61 -168 -61s-129.333 20 -168 60s-58 96.333 -58 169v467h59zM443 797h-234v47h234v-47z" />
    <glyph glyph-name="umacron" unicode="&#x16b;" horiz-adv-x="575" 
d="M412 89c-21.333 -32 -45.833 -56.667 -73.5 -74s-59.167 -26 -94.5 -26c-48 0 -83.167 13.5 -105.5 40.5s-33.5 66.167 -33.5 117.5v376h57v-369c0 -42 7.66699 -72 23 -90s38.333 -27 69 -27c16 0 31.5 3.16699 46.5 9.5s29 14.833 42 25.5s25 22.667 36 36
s20.833 27 29.5 41v374h57v-523h-49zM404 667h-234v47h234v-47z" />
    <glyph glyph-name="Ubreve" unicode="&#x16c;" horiz-adv-x="652" 
d="M159 685v-464c0 -120.667 55.667 -181 167 -181s167 60.333 167 181v464h59v-467c0 -71.333 -19.333 -127.333 -58 -168s-94.667 -61 -168 -61s-129.333 20 -168 60s-58 96.333 -58 169v467h59zM326 765c-18.667 0 -35.335 2.83301 -50.002 8.5
s-27.167 13.167 -37.5 22.5s-18.5 19.833 -24.5 31.5s-10 23.5 -12 35.5l38 10c7.33301 -18 17.833 -32.667 31.5 -44s31.834 -17 54.501 -17s40.834 5.66699 54.501 17s24.167 26 31.5 44l38 -10c-2 -12 -6 -23.833 -12 -35.5s-14 -22.167 -24 -31.5
s-22.333 -16.833 -37 -22.5s-31.667 -8.5 -51 -8.5z" />
    <glyph glyph-name="ubreve" unicode="&#x16d;" horiz-adv-x="575" 
d="M412 89c-21.333 -32 -45.833 -56.667 -73.5 -74s-59.167 -26 -94.5 -26c-48 0 -83.167 13.5 -105.5 40.5s-33.5 66.167 -33.5 117.5v376h57v-369c0 -42 7.66699 -72 23 -90s38.333 -27 69 -27c16 0 31.5 3.16699 46.5 9.5s29 14.833 42 25.5s25 22.667 36 36
s20.833 27 29.5 41v374h57v-523h-49zM287 625c-18 0 -34.1709 3 -48.5039 9s-26.833 14 -37.5 24s-19.167 21.5 -25.5 34.5s-10.5 26.5 -12.5 40.5l38 10c7.33301 -23.333 17.833 -41 31.5 -53s31.834 -18 54.501 -18s40.834 6 54.501 18s24.167 29.667 31.5 53l38 -10
c-2 -14 -6.16699 -27.5 -12.5 -40.5s-14.666 -24.5 -24.999 -34.5s-22.666 -18 -36.999 -24s-30.833 -9 -49.5 -9z" />
    <glyph glyph-name="Uring" unicode="&#x16e;" horiz-adv-x="652" 
d="M159 685v-464c0 -120.667 55.667 -181 167 -181s167 60.333 167 181v464h59v-467c0 -71.333 -19.333 -127.333 -58 -168s-94.667 -61 -168 -61s-129.333 20 -168 60s-58 96.333 -58 169v467h59zM326 742c-28.667 0 -52 8.33301 -70 25s-27 38.667 -27 66s9 49.333 27 66
s41.333 25 70 25s52 -8.33301 70 -25s27 -38.667 27 -66s-9 -49.333 -27 -66s-41.333 -25 -70 -25zM326 776c17.333 0 30.666 5.16699 39.999 15.5s14 24.166 14 41.499s-4.66699 31.166 -14 41.499s-22.666 15.5 -39.999 15.5s-30.666 -5.16699 -39.999 -15.5
s-14 -24.166 -14 -41.499s4.66699 -31.166 14 -41.499s22.666 -15.5 39.999 -15.5z" />
    <glyph glyph-name="uring" unicode="&#x16f;" horiz-adv-x="575" 
d="M412 89c-21.333 -32 -45.833 -56.667 -73.5 -74s-59.167 -26 -94.5 -26c-48 0 -83.167 13.5 -105.5 40.5s-33.5 66.167 -33.5 117.5v376h57v-369c0 -42 7.66699 -72 23 -90s38.333 -27 69 -27c16 0 31.5 3.16699 46.5 9.5s29 14.833 42 25.5s25 22.667 36 36
s20.833 27 29.5 41v374h57v-523h-49zM287 612c-28.667 0 -52 8.33301 -70 25s-27 38.667 -27 66s9 49.333 27 66s41.333 25 70 25s52 -8.33301 70 -25s27 -38.667 27 -66s-9 -49.333 -27 -66s-41.333 -25 -70 -25zM287 646c17.333 0 30.666 5.16699 39.999 15.5
s14 24.166 14 41.499s-4.66699 31.166 -14 41.499s-22.666 15.5 -39.999 15.5s-30.666 -5.16699 -39.999 -15.5s-14 -24.166 -14 -41.499s4.66699 -31.166 14 -41.499s22.666 -15.5 39.999 -15.5z" />
    <glyph glyph-name="Uhungarumlaut" unicode="&#x170;" horiz-adv-x="652" 
d="M159 685v-464c0 -120.667 55.667 -181 167 -181s167 60.333 167 181v464h59v-467c0 -71.333 -19.333 -127.333 -58 -168s-94.667 -61 -168 -61s-129.333 20 -168 60s-58 96.333 -58 169v467h59zM225 785l71 149l52 -26l-87 -141zM356 785l80 149l50 -29l-96 -140z" />
    <glyph glyph-name="uhungarumlaut" unicode="&#x171;" horiz-adv-x="575" 
d="M412 89c-21.333 -32 -45.833 -56.667 -73.5 -74s-59.167 -26 -94.5 -26c-48 0 -83.167 13.5 -105.5 40.5s-33.5 66.167 -33.5 117.5v376h57v-369c0 -42 7.66699 -72 23 -90s38.333 -27 69 -27c16 0 31.5 3.16699 46.5 9.5s29 14.833 42 25.5s25 22.667 36 36
s20.833 27 29.5 41v374h57v-523h-49zM184 645l75 157l53 -26l-92 -149zM315 645l84 157l51 -29l-101 -148z" />
    <glyph glyph-name="Uogonek" unicode="&#x172;" horiz-adv-x="652" 
d="M159 685v-463.997c0 -120.667 55.667 -181 167 -181s167 60.333 167 181v464h59v-467c0 -50 -9.83301 -92.333 -29.5 -127s-47.5 -61.334 -83.5 -80.001c-19.333 -10 -35.5 -20.5 -48.5 -31.5s-23.5 -22.333 -31.5 -34s-13.667 -23.334 -17 -35.001
s-5 -22.834 -5 -33.501c0 -16.667 5 -30.667 15 -42s25.333 -17 46 -17c11.333 0 21.833 1.16699 31.5 3.5s17.167 5.16602 22.5 8.49902l17 -38c-14 -7.33301 -27 -12.166 -39 -14.499s-25 -3.5 -39 -3.5c-37.333 0 -65.166 9 -83.499 27s-27.5 41 -27.5 69
c0 22.667 6.16699 44.5 18.5 65.5s29.166 39.5 50.499 55.5c-3.33301 -0.666992 -7 -1.16699 -11 -1.5s-8 -0.5 -12 -0.5c-73.333 0 -129.333 20 -168 60s-58 96.333 -58 169v467h59z" />
    <glyph glyph-name="uogonek" unicode="&#x173;" horiz-adv-x="575" 
d="M408 523h56.999v-523c-31.333 -19.333 -53 -39.833 -65 -61.5s-18 -42.167 -18 -61.5c0 -16.667 5 -30.667 15 -42s25.333 -17 46 -17c11.333 0 21.833 1.16699 31.5 3.5s17.167 5.16602 22.5 8.49902l17 -38c-14 -7.33301 -27 -12.166 -39 -14.499s-25 -3.5 -39 -3.5
c-37.333 0 -65.166 9 -83.499 27s-27.5 41 -27.5 69c0 26.667 8.33301 52 25 76s38.667 43.667 66 59l-4 84c-21.333 -32 -45.833 -56.667 -73.5 -74s-59.167 -26 -94.5 -26c-48 0 -83.167 13.5 -105.5 40.5s-33.5 66.167 -33.5 117.5v376h57v-362
c0 -44.667 7.5 -76.5 22.5 -95.5s38.167 -28.5 69.5 -28.5c16 0 31.5 3.16699 46.5 9.5s29 14.833 42 25.5s25 22.667 36 36s20.833 27 29.5 41v374z" />
    <glyph glyph-name="Wcircumflex" unicode="&#x174;" horiz-adv-x="796" 
d="M584 64h2l129 621h56l-149 -685h-74l-150 610h-2l-150 -610h-72l-149 685h59l127 -621h2l152 621h65zM280 759l-27 30l130 98h30l129 -98l-26 -30l-118 75z" />
    <glyph glyph-name="wcircumflex" unicode="&#x175;" horiz-adv-x="700" 
d="M675 523l-128 -523h-79l-116 463h-2l-118 -463h-77l-130 523h59l109 -474h2l125 474h65l121 -473h2l110 473h57zM232 619l-27 30l130 108h30l129 -108l-26 -30l-118 85z" />
    <glyph glyph-name="Ycircumflex" unicode="&#x176;" horiz-adv-x="517" 
d="M512 685l-223 -408v-277h-59v276l-225 409h67l187 -354h2l188 354h63zM142 759l-27 30l130 98h30l129 -98l-26 -30l-118 75z" />
    <glyph glyph-name="ycircumflex" unicode="&#x177;" horiz-adv-x="466" 
d="M78 523l160.999 -477.001h2l149 477h61l-176 -525c-9.33301 -28 -19.666 -53.333 -30.999 -76s-25.333 -42.667 -42 -60s-36.667 -31.666 -60 -42.999s-51.333 -19.333 -84 -24l-8 47c26 4.66699 48.167 11.5 66.5 20.5s34 20 47 33s24 28.167 33 45.5s17.167 37 24.5 59
h-20l-186 523h63zM123.999 618.999l-27 30l130 108h30l129 -108l-26 -30l-118 85z" />
    <glyph glyph-name="Ydieresis" unicode="&#x178;" horiz-adv-x="517" 
d="M512 685l-223 -408v-277h-59v276l-225 409h67l187 -354h2l188 354h63zM125 798c0 11.333 3.66699 20.666 11 27.999s17 11 29 11s21.667 -3.66699 29 -11s11 -16.666 11 -27.999s-3.66699 -20.666 -11 -27.999s-17 -11 -29 -11s-21.667 3.66699 -29 11
s-11 16.666 -11 27.999zM313 798c0 11.333 3.66699 20.666 11 27.999s17 11 29 11s21.667 -3.66699 29 -11s11 -16.666 11 -27.999s-3.66699 -20.666 -11 -27.999s-17 -11 -29 -11s-21.667 3.66699 -29 11s-11 16.666 -11 27.999z" />
    <glyph glyph-name="Zacute" unicode="&#x179;" horiz-adv-x="510" 
d="M451 0h-416v49l365 585h-328v51h393v-49l-364 -584h357zM160 791l177 93l32 -52l-189 -75z" />
    <glyph glyph-name="zacute" unicode="&#x17a;" horiz-adv-x="425" 
d="M381 0h-351v44l293 430h-269v49h336v-44l-292 -430h290zM115 651l182 105l32 -52l-194 -87z" />
    <glyph glyph-name="Zdotaccent" unicode="&#x17b;" horiz-adv-x="510" 
d="M451 0h-416v49l365 585h-328v51h393v-49l-364 -584h357zM223 813c0 12 3.83301 21.833 11.5 29.5s17.834 11.5 30.501 11.5c13.333 0 23.666 -3.83301 30.999 -11.5s11 -17.5 11 -29.5s-3.66699 -21.833 -11 -29.5s-17.666 -11.5 -30.999 -11.5
c-12.667 0 -22.834 3.83301 -30.501 11.5s-11.5 17.5 -11.5 29.5z" />
    <glyph glyph-name="zdotaccent" unicode="&#x17c;" horiz-adv-x="425" 
d="M381 0h-351v44l293 430h-269v49h336v-44l-292 -430h290zM222 641c-13.333 0 -23.833 4 -31.5 12s-11.5 18 -11.5 30s3.83301 22 11.5 30s18.167 12 31.5 12s23.833 -4 31.5 -12s11.5 -18 11.5 -30s-3.83301 -22 -11.5 -30s-18.167 -12 -31.5 -12z" />
    <glyph glyph-name="Zcaron" unicode="&#x17d;" horiz-adv-x="510" 
d="M451 0h-416v49l365 585h-328v51h393v-49l-364 -584h357zM265 812l118 75l26 -30l-129 -98h-30l-130 98l27 30z" />
    <glyph glyph-name="zcaron" unicode="&#x17e;" horiz-adv-x="425" 
d="M381 0h-351v44l293 430h-269v49h336v-44l-292 -430h290zM223 672l118 85l26 -30l-129 -108h-30l-130 108l27 30z" />
    <glyph glyph-name="florin" unicode="&#x192;" horiz-adv-x="328" 
d="M121 476l-97.002 -0.000976562v47h97v83c0 40 12.333 72.833 37 98.5s61 38.5 109 38.5c22.667 0 43.834 -2.5 63.501 -7.5s38.834 -12.167 57.501 -21.5l-20 -44c-18 8.66699 -35 14.834 -51 18.501s-31.667 5.5 -47 5.5c-33.333 0 -57 -7.33301 -71 -22
s-21 -37 -21 -67v-82h138l-7 -47h-131v-456c0 -34 -3.16699 -62.667 -9.5 -86s-15.5 -43.166 -27.5 -59.499s-27 -30.5 -45 -42.5s-39 -24 -63 -36l-22 43c18.667 9.33301 35 18.666 49 27.999s25.5 20.5 34.5 33.5s15.667 28.833 20 47.5s6.5 42 6.5 70v458z" />
    <glyph glyph-name="AEacute" unicode="&#x1fc;" horiz-adv-x="777" 
d="M130 185l-70 -185h-60l267 685h422l-7 -50h-327l67 -255h248v-50h-235l73 -280h229v-50h-274l-47 185h-286zM149 235h254l-100 398h-2zM354 791l177 93l32 -52l-189 -75z" />
    <glyph glyph-name="aeacute" unicode="&#x1fd;" horiz-adv-x="832" 
d="M424 239c2 -35.333 7.49805 -65.5029 16.498 -90.5029s20.833 -45.833 35.5 -62.5s31.834 -28.834 51.501 -36.501s40.5 -11.5 62.5 -11.5c28 0 52.833 4 74.5 12s43.5 21.667 65.5 41l27 -39c-46 -42 -102.333 -63 -169 -63c-44 0 -81.833 9.83301 -113.5 29.5
s-56.834 45.834 -75.501 78.501c-27.333 -41.333 -56.666 -69.666 -87.999 -84.999s-66.333 -23 -105 -23c-50.667 0 -90.167 14.5 -118.5 43.5s-42.5 67.167 -42.5 114.5c0 54.667 20.5 95.834 61.5 123.501s96.833 41.5 167.5 41.5h90v52c0 38 -9.66699 67.667 -29 89
s-51.333 32 -96 32c-19.333 0 -40.5 -2 -63.5 -6s-48.833 -11.667 -77.5 -23l-16 45c32 12.667 61.333 21.334 88 26.001s52.334 7 77.001 7c46.667 0 83 -9.16699 109 -27.5s42.667 -44.5 50 -78.5c14.667 34 37.5 60.167 68.5 78.5s64.5 27.5 100.5 27.5
c65.333 0 114.5 -22.333 147.5 -67s49.5 -108 49.5 -190c0 -6 -0.166992 -12.5 -0.5 -19.5s-0.833008 -13.167 -1.5 -18.5h-346zM378.998 144.997c-10 32.667 -14.999 70.667 -14.999 114v8h-87c-56.667 0 -99.334 -9.33301 -128.001 -28s-43 -47.667 -43 -87
c0 -36 10 -64 30 -84s48 -30 84 -30c32.667 0 62.5 8.83301 89.5 26.5s50.167 44.5 69.5 80.5zM574.999 484.997c-42 0 -76.835 -16.001 -104.502 -48.001s-43.167 -83 -46.5 -153h291c-1.33301 64.667 -13.166 114.334 -35.499 149.001s-57.166 52 -104.499 52z
M333.997 650.996l182 105l32 -52l-194 -87z" />
    <glyph glyph-name="Oslashacute" unicode="&#x1fe;" horiz-adv-x="683" 
d="M613 342c0 -56 -6.66699 -105.835 -20 -149.502s-31.833 -80.5 -55.5 -110.5s-52.167 -53 -85.5 -69s-70 -24 -110 -24c-27.333 0 -52.333 3.33301 -75 10l-35 -120l-53 14l40 125c-46 24.667 -82.333 63.834 -109 117.501s-40 122.167 -40 205.5
c0 56 6.66699 106 20 150s32 81.167 56 111.5s52.667 53.5 86 69.5s70 24 110 24c12.667 0 25 -0.833008 37 -2.5s23.667 -4.16699 35 -7.5l36 124l53 -14l-41 -129c46.667 -24.667 83.5 -64.167 110.5 -118.5s40.5 -123.166 40.5 -206.499zM342 644.998
c-31.333 0 -59.999 -6.16797 -85.999 -18.501s-48.167 -31.166 -66.5 -56.499s-32.5 -57 -42.5 -95s-15 -82.667 -15 -134c0 -72.667 9.16699 -131.167 27.5 -175.5s44.166 -76.833 77.499 -97.5l165 569c-20 5.33301 -40 8 -60 8zM342.001 39.9971
c31.333 0 59.832 6.16602 85.499 18.499s47.667 31 66 56s32.5 56.333 42.5 94s15 82.167 15 133.5c0 72.667 -9.16699 131.334 -27.5 176.001s-44.166 77.667 -77.499 99l-164 -569c9.33301 -3.33301 18.833 -5.5 28.5 -6.5s20.167 -1.5 31.5 -1.5zM217 810.996l177 93
l32 -52l-189 -75z" />
    <glyph glyph-name="oslashacute" unicode="&#x1ff;" horiz-adv-x="572" 
d="M65 261c0 42 5.16992 79.833 15.5029 113.5s25.166 62.334 44.499 86.001s42.666 41.834 69.999 54.501s58.333 19 93 19c10 0 19.667 -0.666992 29 -2s18.666 -3 27.999 -5l35 112l49 -15l-38 -115c37.333 -20 66 -50.833 86 -92.5s30 -92.834 30 -153.501
c0 -42 -5.16699 -79.833 -15.5 -113.5s-25 -62.334 -44 -86.001s-42.167 -42 -69.5 -55s-58.333 -19.5 -93 -19.5c-19.333 0 -37.333 2 -54 6l-36 -116l-49 15l38 118c-38 19.333 -67.333 50.333 -88 93s-31 94.667 -31 156zM288.003 486
c-50.667 0 -90.333 -18.668 -119 -56.001s-43 -93.666 -43 -168.999c0 -102 25.333 -169.333 76 -202l131 421c-14 4 -29 6 -45 6zM446.004 262.999c0 50 -6.16797 91.332 -18.501 123.999s-30.166 57.334 -53.499 74.001l-130 -420c11.333 -2.66699 25 -4 41 -4
c50.667 0 90.167 18.833 118.5 56.5s42.5 94.167 42.5 169.5zM172.003 655.998l182 105l32 -52l-194 -87z" />
    <glyph glyph-name="uni0218" unicode="&#x218;" horiz-adv-x="543" 
d="M439 584c-24 21.333 -48.8291 36.8359 -74.4961 46.5029s-55.834 14.5 -90.501 14.5c-42.667 0 -78 -9.5 -106 -28.5s-42 -46.833 -42 -83.5c0 -18 2.83301 -33.667 8.5 -47s14.834 -25.333 27.501 -36s29.5 -20.5 50.5 -29.5s46.833 -18.167 77.5 -27.5
c30 -9.33301 57.833 -19.5 83.5 -30.5s47.667 -24.167 66 -39.5s32.666 -33.833 42.999 -55.5s15.5 -47.834 15.5 -78.501c0 -30 -5.33301 -57.167 -16 -81.5s-26.167 -45.333 -46.5 -63s-45.166 -31.334 -74.499 -41.001s-62.333 -14.5 -99 -14.5
c-48 0 -90.833 7.16699 -128.5 21.5s-70.5 34.833 -98.5 61.5l35 41c25.333 -22.667 53.666 -40.5 84.999 -53.5s67 -19.5 107 -19.5c52 0 94 12.667 126 38s48 61.666 48 108.999c0 21.333 -3.33301 39.666 -10 54.999s-16.834 28.833 -30.501 40.5
s-31.334 22.167 -53.001 31.5s-47.5 18.666 -77.5 27.999c-34.667 10.667 -64.5 21.834 -89.5 33.501s-45.667 24.834 -62 39.501s-28.5 31.334 -36.5 50.001s-12 40.667 -12 66c0 24.667 5 47.167 15 67.5s24.167 37.666 42.5 51.999s40.166 25.5 65.499 33.5
s53.333 12 84 12c46.667 0 85.667 -6.66699 117 -20s60 -31 86 -53zM231.004 -129.997c0 12 3.99902 22 11.999 30s18.667 12 32 12c14 0 24.667 -4 32 -12s11 -18 11 -30c0 -8 -1.16699 -16 -3.5 -24s-7.16602 -19 -14.499 -33l-40 -81h-35l28 101
c-14.667 8 -22 20.333 -22 37z" />
    <glyph glyph-name="uni0219" unicode="&#x219;" horiz-adv-x="458" 
d="M367 448c-18.667 12 -38.168 21.335 -58.501 28.002s-44.5 10 -72.5 10c-36.667 0 -65.834 -7.5 -87.501 -22.5s-32.5 -35.167 -32.5 -60.5c0 -28.667 9.66699 -50.5 29 -65.5s52.333 -28.5 99 -40.5c26.667 -7.33301 50.5 -15.333 71.5 -24s38.667 -19.167 53 -31.5
s25.333 -26.833 33 -43.5s11.5 -36.334 11.5 -59.001c0 -26 -5.5 -48.333 -16.5 -67s-25.5 -34.167 -43.5 -46.5s-38.833 -21.5 -62.5 -27.5s-48.167 -9 -73.5 -9c-39.333 0 -75 6 -107 18s-58.667 27.333 -80 46l32 39c20.667 -16.667 44 -30 70 -40s54.333 -15 85 -15
c40 0 72.5 8.16699 97.5 24.5s37.5 40.5 37.5 72.5c0 16 -2.16699 29.667 -6.5 41s-11.666 21.5 -21.999 30.5s-24.5 17 -42.5 24s-40.667 14.167 -68 21.5c-50 13.333 -88.5 31.166 -115.5 53.499s-40.5 53.833 -40.5 94.5c0 20 4.33301 38.333 13 55s21 31 37 43
s35 21.167 57 27.5s46.333 9.5 73 9.5c32.667 0 61.834 -4 87.501 -12s48.5 -18.667 68.5 -32zM187.999 -129.998c0 12 3.99902 22 11.999 30s18.667 12 32 12c14 0 24.667 -4 32 -12s11 -18 11 -30c0 -8 -1.16699 -16 -3.5 -24s-7.16602 -19 -14.499 -33l-40 -81h-35
l28 101c-14.667 8 -22 20.333 -22 37z" />
    <glyph glyph-name="uni021A" unicode="&#x21a;" horiz-adv-x="499" 
d="M222 0v633h-202v52h464l-7 -52h-196v-633h-59zM209 -123c0 12 3.99902 22 11.999 30s18.667 12 32 12c14 0 24.667 -4 32 -12s11 -18 11 -30c0 -8 -1.16699 -16 -3.5 -24s-7.16602 -19 -14.499 -33l-40 -81h-35l28 101c-14.667 8 -22 20.333 -22 37z" />
    <glyph glyph-name="uni021B" unicode="&#x21b;" horiz-adv-x="365" 
d="M25 523l97.001 0.00195312v125l57 7v-132h137l-6 -44h-131v-346c0 -32.667 6.16699 -56.667 18.5 -72s32.5 -23 60.5 -23c13.333 0 26.5 2.16699 39.5 6.5s26.167 10.166 39.5 17.499l23 -40c-15.333 -10.667 -32.333 -18.834 -51 -24.501s-38.334 -8.5 -59.001 -8.5
c-42.667 0 -74.667 12.333 -96 37s-32 59 -32 103v350h-97v44zM182.001 -129.998c0 12 3.99902 22 11.999 30s18.667 12 32 12c14 0 24.667 -4 32 -12s11 -18 11 -30c0 -8 -1.16699 -16 -3.5 -24s-7.16602 -19 -14.499 -33l-40 -81h-35l28 101c-14.667 8 -22 20.333 -22 37z
" />
    <glyph glyph-name="dotlessj" unicode="&#x237;" horiz-adv-x="267" 
d="M162 523v-503c0 -36 -3.16699 -65.667 -9.5 -89s-15.5 -43 -27.5 -59s-27 -29.667 -45 -41s-39 -23 -63 -35l-22 44c18.667 9.33301 35 18.666 49 27.999s25.5 20.333 34.5 33s15.667 28.334 20 47.001s6.5 42 6.5 70v505h57z" />
    <glyph glyph-name="circumflex" unicode="&#x2c6;" horiz-adv-x="349" 
d="M57 619l-27 30l130 108h30l129 -108l-26 -30l-118 83z" />
    <glyph glyph-name="caron" unicode="&#x2c7;" horiz-adv-x="349" 
d="M292 757l27 -30l-130 -108h-30l-129 108l26 30l118 -83z" />
    <glyph glyph-name="uni02C9" unicode="&#x2c9;" horiz-adv-x="294" 
d="M264 667h-234v47h234v-47z" />
    <glyph glyph-name="breve" unicode="&#x2d8;" horiz-adv-x="308" 
d="M154 625c-18 0 -34.1709 3 -48.5039 9s-26.833 14 -37.5 24s-19.167 21.5 -25.5 34.5s-10.5 26.5 -12.5 40.5l38 10c7.33301 -23.333 17.833 -41 31.5 -53s31.834 -18 54.501 -18s40.834 6 54.501 18s24.167 29.667 31.5 53l38 -10c-2 -14 -6.16699 -27.5 -12.5 -40.5
s-14.666 -24.5 -24.999 -34.5s-22.666 -18 -36.999 -24s-30.833 -9 -49.5 -9z" />
    <glyph glyph-name="dotaccent" unicode="&#x2d9;" horiz-adv-x="144" 
d="M30 683c0 12 3.83301 21.833 11.5 29.5s17.834 11.5 30.501 11.5c13.333 0 23.666 -3.83301 30.999 -11.5s11 -17.5 11 -29.5s-3.66699 -21.833 -11 -29.5s-17.666 -11.5 -30.999 -11.5c-12.667 0 -22.834 3.83301 -30.501 11.5s-11.5 17.5 -11.5 29.5z" />
    <glyph glyph-name="ring" unicode="&#x2da;" horiz-adv-x="254" 
d="M127 612c-28.667 0 -52 8.33301 -70 25s-27 38.667 -27 66s9 49.333 27 66s41.333 25 70 25s52 -8.33301 70 -25s27 -38.667 27 -66s-9 -49.333 -27 -66s-41.333 -25 -70 -25zM127 646c17.333 0 30.666 5.16699 39.999 15.5s14 24.166 14 41.499
s-4.66699 31.166 -14 41.499s-22.666 15.5 -39.999 15.5s-30.666 -5.16699 -39.999 -15.5s-14 -24.166 -14 -41.499s4.66699 -31.166 14 -41.499s22.666 -15.5 39.999 -15.5z" />
    <glyph glyph-name="ogonek" unicode="&#x2db;" horiz-adv-x="249" 
d="M87 -123c0 -16.667 4.99902 -30.6709 14.999 -42.0039s25.333 -17 46 -17c11.333 0 21.833 1.16699 31.5 3.5s17.167 5.16602 22.5 8.49902l17 -38c-14 -7.33301 -27 -12.166 -39 -14.499s-25 -3.5 -39 -3.5c-37.333 0 -65.166 9 -83.499 27s-27.5 41 -27.5 69
c0 16.667 3.33301 32.834 10 48.501s16 30.334 28 44.001s26.167 25.834 42.5 36.501s33.833 19.334 52.5 26.001h55c-25.333 -10.667 -46.333 -22.167 -63 -34.5s-30 -25 -40 -38s-17.167 -25.833 -21.5 -38.5s-6.5 -25 -6.5 -37z" />
    <glyph glyph-name="tilde" unicode="&#x2dc;" horiz-adv-x="352" 
d="M229 645c-12 0 -22.9971 2.33203 -32.9971 6.99902s-19.5 9.83398 -28.5 15.501l-25 15.5c-7.66699 4.66699 -15.167 7 -22.5 7c-12 0 -22.167 -3.83301 -30.5 -11.5s-16.5 -18.5 -24.5 -32.5l-35 17c10 23.333 22.5 41.333 37.5 54s33.167 19 54.5 19
c14 0 26.167 -2.33301 36.5 -7s19.666 -9.83398 27.999 -15.501l23.5 -15.5c7.33301 -4.66699 14.666 -7 21.999 -7c11.333 0 21.166 3.66699 29.499 11s16.5 18 24.5 32l36 -17c-10.667 -23.333 -23.5 -41.166 -38.5 -53.499s-33.167 -18.5 -54.5 -18.5z" />
    <glyph glyph-name="hungarumlaut" unicode="&#x2dd;" horiz-adv-x="326" 
d="M30 645l74 157l54 -26l-90 -149zM161 645l83 157l52 -29l-99 -148z" />
    <glyph glyph-name="gravecomb" unicode="&#x300;" horiz-adv-x="0" 
d="M-193 617l-194 87l32 52l182 -105z" />
    <glyph glyph-name="acutecomb" unicode="&#x301;" horiz-adv-x="0" 
d="M-387 651l182 105l32 -52l-194 -87z" />
    <glyph glyph-name="uni0302" unicode="&#x302;" horiz-adv-x="0" 
d="M-439 619l-27 30l130 108h30l129 -108l-26 -30l-118 85z" />
    <glyph glyph-name="tildecomb" unicode="&#x303;" horiz-adv-x="0" 
d="M-234 645c-12 0 -22.9971 2.33203 -32.9971 6.99902s-19.5 9.83398 -28.5 15.501l-25 15.5c-7.66699 4.66699 -15.167 7 -22.5 7c-12 0 -22.167 -3.83301 -30.5 -11.5s-16.5 -18.5 -24.5 -32.5l-35 17c10 23.333 22.5 41.333 37.5 54s33.167 19 54.5 19
c14 0 26.167 -2.33301 36.5 -7s19.666 -9.83398 27.999 -15.501l23.5 -15.5c7.33301 -4.66699 14.666 -7 21.999 -7c11.333 0 21.166 3.66699 29.499 11s16.5 18 24.5 32l36 -17c-10.667 -23.333 -23.5 -41.166 -38.5 -53.499s-33.167 -18.5 -54.5 -18.5z" />
    <glyph glyph-name="uni0304" unicode="&#x304;" horiz-adv-x="0" 
d="M-166 667h-234v47h234v-47z" />
    <glyph glyph-name="uni0306" unicode="&#x306;" horiz-adv-x="0" 
d="M-286 625c-18 0 -34.1709 3 -48.5039 9s-26.833 14 -37.5 24s-19.167 21.5 -25.5 34.5s-10.5 26.5 -12.5 40.5l38 10c7.33301 -23.333 17.833 -41 31.5 -53s31.834 -18 54.501 -18s40.834 6 54.501 18s24.167 29.667 31.5 53l38 -10c-2 -14 -6.16699 -27.5 -12.5 -40.5
s-14.666 -24.5 -24.999 -34.5s-22.666 -18 -36.999 -24s-30.833 -9 -49.5 -9z" />
    <glyph glyph-name="uni0307" unicode="&#x307;" horiz-adv-x="0" 
d="M-292 641c-13.333 0 -23.833 4 -31.5 12s-11.5 18 -11.5 30s3.83301 22 11.5 30s18.167 12 31.5 12s23.833 -4 31.5 -12s11.5 -18 11.5 -30s-3.83301 -22 -11.5 -30s-18.167 -12 -31.5 -12z" />
    <glyph glyph-name="uni0308" unicode="&#x308;" horiz-adv-x="0" 
d="M-413 668c0 11.333 3.66699 20.666 11 27.999s17 11 29 11s21.667 -3.66699 29 -11s11 -16.666 11 -27.999s-3.66699 -20.666 -11 -27.999s-17 -11 -29 -11s-21.667 3.66699 -29 11s-11 16.666 -11 27.999zM-225 668c0 11.333 3.66699 20.666 11 27.999s17 11 29 11
s21.667 -3.66699 29 -11s11 -16.666 11 -27.999s-3.66699 -20.666 -11 -27.999s-17 -11 -29 -11s-21.667 3.66699 -29 11s-11 16.666 -11 27.999z" />
    <glyph glyph-name="uni030A" unicode="&#x30a;" horiz-adv-x="0" 
d="M-285 612c-28.667 0 -52 8.33301 -70 25s-27 38.667 -27 66s9 49.333 27 66s41.333 25 70 25s52 -8.33301 70 -25s27 -38.667 27 -66s-9 -49.333 -27 -66s-41.333 -25 -70 -25zM-285 646c17.333 0 30.666 5.16699 39.999 15.5s14 24.166 14 41.499
s-4.66699 31.166 -14 41.499s-22.666 15.5 -39.999 15.5s-30.666 -5.16699 -39.999 -15.5s-14 -24.166 -14 -41.499s4.66699 -31.166 14 -41.499s22.666 -15.5 39.999 -15.5z" />
    <glyph glyph-name="uni030B" unicode="&#x30b;" horiz-adv-x="0" 
d="M-385 645l75 157l53 -26l-92 -149zM-254 645l84 157l51 -29l-101 -148z" />
    <glyph glyph-name="uni030C" unicode="&#x30c;" horiz-adv-x="0" 
d="M-287 672l118 85l26 -30l-129 -108h-30l-130 108l27 30z" />
    <glyph glyph-name="uni0312" unicode="&#x312;" horiz-adv-x="0" 
d="M-251 679c0 -12 -3.99902 -22 -11.999 -30s-18.667 -12 -32 -12c-14 0 -24.667 4 -32 12s-11 18 -11 30c0 8 1.16699 16 3.5 24s7.16602 19 14.499 33l40 81h35l-28 -101c14.667 -8 22 -20.333 22 -37z" />
    <glyph glyph-name="uni0313" unicode="&#x313;" horiz-adv-x="0" 
d="M-332 775c0 12 3.99902 22 11.999 30s18.667 12 32 12c14 0 24.667 -4 32 -12s11 -18 11 -30c0 -8 -1.16699 -16 -3.5 -24s-7.16602 -19 -14.499 -33l-40 -81h-35l28 101c-14.667 8 -22 20.333 -22 37z" />
    <glyph glyph-name="uni0326" unicode="&#x326;" horiz-adv-x="0" 
d="M-329 -130c0 12 3.99902 22 11.999 30s18.667 12 32 12c14 0 24.667 -4 32 -12s11 -18 11 -30c0 -8 -1.16699 -16 -3.5 -24s-7.16602 -19 -14.499 -33l-40 -81h-35l28 101c-14.667 8 -22 20.333 -22 37z" />
    <glyph glyph-name="uni0327" unicode="&#x327;" horiz-adv-x="0" 
d="M-253 -142c0 17.333 -7.16797 28.832 -21.501 34.499s-33.5 8.83398 -57.5 9.50098l8 114h44v-83c30 -3.33301 51.5 -11.5 64.5 -24.5s19.5 -30.167 19.5 -51.5c0 -28 -10.5 -48.833 -31.5 -62.5s-46.5 -20.5 -76.5 -20.5c-18.667 0 -34.667 1.66699 -48 5
s-25.666 8 -36.999 14l22 39c7.33301 -4 16.333 -7.33301 27 -10s21 -4 31 -4c16.667 0 30.167 2.83301 40.5 8.5s15.5 16.167 15.5 31.5z" />
    <glyph glyph-name="uni0328" unicode="&#x328;" horiz-adv-x="0" 
d="M-309 -123c0 -16.667 4.99902 -30.6709 14.999 -42.0039s25.333 -17 46 -17c11.333 0 21.833 1.16699 31.5 3.5s17.167 5.16602 22.5 8.49902l17 -38c-14 -7.33301 -27 -12.166 -39 -14.499s-25 -3.5 -39 -3.5c-37.333 0 -65.166 9 -83.499 27s-27.5 41 -27.5 69
c0 16.667 3.33301 32.834 10 48.501s16 30.334 28 44.001s26.167 25.834 42.5 36.501s33.833 19.334 52.5 26.001h55c-25.333 -10.667 -46.333 -22.167 -63 -34.5s-30 -25 -40 -38s-17.167 -25.833 -21.5 -38.5s-6.5 -25 -6.5 -37z" />
    <glyph glyph-name="uni0335" unicode="&#x335;" horiz-adv-x="0" 
d="M-330 288v48h328v-48h-328z" />
    <glyph glyph-name="uni0336" unicode="&#x336;" horiz-adv-x="0" 
d="M-603 288v48h578v-48h-578z" />
    <glyph glyph-name="tonos" unicode="&#x384;" horiz-adv-x="0" 
d="M-93 607l36 163l60 -11l-57 -160z" />
    <glyph glyph-name="dieresistonos" unicode="&#x385;" horiz-adv-x="0" 
d="M-420 648c0 11.333 3.66699 20.666 11 27.999s17 11 29 11s21.667 -3.66699 29 -11s11 -16.666 11 -27.999s-3.66699 -20.666 -11 -27.999s-17 -11 -29 -11s-21.667 3.66699 -29 11s-11 16.666 -11 27.999zM-219 648c0 11.333 3.66699 20.666 11 27.999s17 11 29 11
s21.667 -3.66699 29 -11s11 -16.666 11 -27.999s-3.66699 -20.666 -11 -27.999s-17 -11 -29 -11s-21.667 3.66699 -29 11s-11 16.666 -11 27.999zM-296 703l31 148l60 -11l-52 -145z" />
    <glyph glyph-name="Alphatonos" unicode="&#x386;" horiz-adv-x="545" 
d="M414 185h-285l-59 -185h-60l225 685h75l225 -685h-62zM145 235h253l-125 397h-2zM65 535l40 154l66 -11l-66 -150z" />
    <glyph glyph-name="Epsilontonos" unicode="&#x388;" horiz-adv-x="515" 
d="M111 0v685h346l-7 -50h-280v-255h243v-50h-243v-280h295v-50h-354zM-30 535l40 154l66 -11l-66 -150z" />
    <glyph glyph-name="Etatonos" unicode="&#x389;" horiz-adv-x="661" 
d="M492 0v336h-322v-336h-59v685h59v-299h322v299h59v-685h-59zM-30 535l40 154l66 -11l-66 -150z" />
    <glyph glyph-name="Iotatonos" unicode="&#x38a;" horiz-adv-x="280" 
d="M170 685v-685h-59v685h59zM-30 535l40 154l66 -11l-66 -150z" />
    <glyph glyph-name="Omicrontonos" unicode="&#x38c;" horiz-adv-x="695" 
d="M625 342c0 -56 -6.66699 -105.834 -20 -149.501s-31.833 -80.5 -55.5 -110.5s-52.167 -53 -85.5 -69s-70 -24 -110 -24s-76.667 7.66699 -110 23s-62 37.833 -86 67.5s-42.667 66.334 -56 110.001s-20 94.167 -20 151.5c0 56 6.66699 106 20 150s32 81.167 56 111.5
s52.667 53.5 86 69.5s70 24 110 24s76.667 -7.66699 110 -23s61.833 -38 85.5 -68s42.167 -67 55.5 -111s20 -94.667 20 -152zM354 39.999c31.333 0 59.834 6.16504 85.501 18.498s47.667 31 66 56s32.5 56.333 42.5 94s15 82.167 15 133.5
c0 102.667 -19.167 178.834 -57.5 228.501s-88.833 74.5 -151.5 74.5c-31.333 0 -60 -6.16699 -86 -18.5s-48.167 -31.166 -66.5 -56.499s-32.5 -57 -42.5 -95s-15 -82.667 -15 -134s5.16699 -96 15.5 -134s24.666 -69.333 42.999 -94s40.333 -43 66 -55
s54.167 -18 85.5 -18zM20.001 534.997l40 154l66 -11l-66 -150z" />
    <glyph glyph-name="Upsilontonos" unicode="&#x38e;" horiz-adv-x="587" 
d="M582 685l-223 -408v-277h-59v276l-225 409h67l187 -354h2l188 354h63zM-50 535l40 154l66 -11l-66 -150z" />
    <glyph glyph-name="Omegatonos" unicode="&#x38f;" horiz-adv-x="716" 
d="M364 645c-64.667 0 -115.831 -23.834 -153.498 -71.501s-56.5 -123.167 -56.5 -226.5c0 -42.667 4.33301 -80 13 -112s20 -59.667 34 -83s30.333 -43.166 49 -59.499s38 -30.5 58 -42.5v-50h-201v53h129v3c-20 12.667 -38.833 27.334 -56.5 44.001s-33 36.667 -46 60
s-23.167 50.333 -30.5 81s-11 66 -11 106c0 56 6.66699 105.667 20 149s32 79.833 56 109.5s52.667 52.167 86 67.5s70 23 110 23s76.667 -7.66699 110 -23s62 -37.833 86 -67.5s42.667 -66.167 56 -109.5s20 -93 20 -149c0 -40 -3.83301 -75.333 -11.5 -106
s-18.167 -57.667 -31.5 -81s-28.833 -43.333 -46.5 -60s-36.834 -31.334 -57.501 -44.001v-3h132v-53h-201v50c20 12 39.333 26 58 42s35.167 35.667 49.5 59s25.666 51 33.999 83s12.5 69.667 12.5 113c0 51.333 -5 95.666 -15 132.999s-24.167 68.333 -42.5 93
s-40.5 42.834 -66.5 54.501s-54.667 17.5 -86 17.5zM20.0029 534.999l40 154l66 -11l-66 -150z" />
    <glyph glyph-name="iotadieresistonos" unicode="&#x390;" horiz-adv-x="269" 
d="M162 523l0.00195312 -395.002c0 -13.333 0.833008 -24.666 2.5 -33.999s4.5 -17.166 8.5 -23.499s9 -11.833 15 -16.5s13 -9.33398 21 -14.001l-20 -48c-14.667 6 -27.334 12.667 -38.001 20s-19.334 16 -26.001 26s-11.667 21.833 -15 35.5s-5 29.834 -5 48.501v401h57z
M-5.99805 647.998c0 11.333 3.66699 20.666 11 27.999s17 11 29 11s21.667 -3.66699 29 -11s11 -16.666 11 -27.999s-3.66699 -20.666 -11 -27.999s-17 -11 -29 -11s-21.667 3.66699 -29 11s-11 16.666 -11 27.999zM195.002 647.998c0 11.333 3.66699 20.666 11 27.999
s17 11 29 11s21.667 -3.66699 29 -11s11 -16.666 11 -27.999s-3.66699 -20.666 -11 -27.999s-17 -11 -29 -11s-21.667 3.66699 -29 11s-11 16.666 -11 27.999zM118.002 702.998l31 148l60 -11l-52 -145z" />
    <glyph glyph-name="Alpha" unicode="&#x391;" horiz-adv-x="545" 
d="M414 185h-285l-59 -185h-60l225 685h75l225 -685h-62zM145 235h253l-125 397h-2z" />
    <glyph glyph-name="Beta" unicode="&#x392;" horiz-adv-x="605" 
d="M510 517c0 -22.667 -3 -42.666 -9 -59.999s-14.333 -32 -25 -44s-23.167 -21.833 -37.5 -29.5s-29.833 -13.5 -46.5 -17.5v-2c18.667 -3.33301 36.834 -8.5 54.501 -15.5s33.5 -17.167 47.5 -30.5s25.167 -30.166 33.5 -50.499s12.5 -44.833 12.5 -73.5
c0 -34.667 -6.5 -64.334 -19.5 -89.001s-31 -44.667 -54 -60s-50.333 -26.666 -82 -33.999s-65.834 -11 -102.501 -11h-172v685h160c32 0 62.5 -2.66699 91.5 -8s54.5 -14.333 76.5 -27s39.5 -29.834 52.5 -51.501s19.5 -48.834 19.5 -81.501zM169 337.001
l-0.000976562 -287h127c24 0 47 2.33301 69 7s41.333 12.5 58 23.5s30 25.5 40 43.5s15 40.667 15 68c0 26.667 -4 49.167 -12 67.5s-19.167 33.333 -33.5 45s-31.166 20 -50.499 25s-40.333 7.5 -63 7.5h-150zM168.999 386.001h138.999c46 0 81 11.167 105 33.5
s36 53.833 36 94.5c0 42 -14.167 72.667 -42.5 92s-69.166 29 -122.499 29h-115v-249z" />
    <glyph glyph-name="Gamma" unicode="&#x393;" horiz-adv-x="477" 
d="M110 0v685h352l-7 -53h-286v-632h-59z" />
    <glyph glyph-name="uni0394" unicode="&#x394;" horiz-adv-x="545" 
d="M10 0l225 685h75l225 -685h-525zM86 51h371l-184 582h-2z" />
    <glyph glyph-name="Epsilon" unicode="&#x395;" horiz-adv-x="514" 
d="M110 0v685h346l-7 -50h-280v-255h243v-50h-243v-280h295v-50h-354z" />
    <glyph glyph-name="Zeta" unicode="&#x396;" horiz-adv-x="510" 
d="M451 0h-416v49l365 585h-328v51h393v-49l-364 -584h357z" />
    <glyph glyph-name="Eta" unicode="&#x397;" horiz-adv-x="660" 
d="M491 0v336h-322v-336h-59v685h59v-299h322v299h59v-685h-59z" />
    <glyph glyph-name="Theta" unicode="&#x398;" horiz-adv-x="683" 
d="M205 325v48h273v-48h-273zM613 342c0 -56 -6.66699 -105.834 -20 -149.501s-31.833 -80.5 -55.5 -110.5s-52.167 -53 -85.5 -69s-70 -24 -110 -24s-76.667 7.66699 -110 23s-62 37.833 -86 67.5s-42.667 66.334 -56 110.001s-20 94.167 -20 151.5
c0 56 6.66699 106 20 150s32 81.167 56 111.5s52.667 53.5 86 69.5s70 24 110 24s76.667 -7.66699 110 -23s61.833 -38 85.5 -68s42.167 -67 55.5 -111s20 -94.667 20 -152zM342 39.999c31.333 0 59.834 6.16504 85.501 18.498s47.667 31 66 56s32.5 56.333 42.5 94
s15 82.167 15 133.5c0 102.667 -19.167 178.834 -57.5 228.501s-88.833 74.5 -151.5 74.5c-31.333 0 -60 -6.16699 -86 -18.5s-48.167 -31.166 -66.5 -56.499s-32.5 -57 -42.5 -95s-15 -82.667 -15 -134s5.16699 -96 15.5 -134s24.666 -69.333 42.999 -94s40.333 -43 66 -55
s54.167 -18 85.5 -18z" />
    <glyph glyph-name="Iota" unicode="&#x399;" horiz-adv-x="279" 
d="M169 685v-685h-59v685h59z" />
    <glyph glyph-name="Kappa" unicode="&#x39a;" horiz-adv-x="545" 
d="M528 685l-284 -314l301 -371h-75l-297 368l283 317h72zM169 685v-685h-59v685h59z" />
    <glyph glyph-name="Lambda" unicode="&#x39b;" horiz-adv-x="535" 
d="M70 0h-60l220 685h75l220 -685h-62l-195 632h-2z" />
    <glyph glyph-name="Mu" unicode="&#x39c;" horiz-adv-x="779" 
d="M652 0l-35 347c-3.33301 30 -6 56.667 -8 80l-5.5 66l-5 61.5c-1.66699 20.333 -3.16699 42.5 -4.5 66.5h-2l-174 -540h-58l-178 540h-2c-2 -24 -3.66699 -46.167 -5 -66.5s-3 -40.833 -5 -61.5s-4 -42.667 -6 -66l-7 -80l-31 -347h-56l65 685h82l171 -531h4l168 531h83
l66 -685h-57z" />
    <glyph glyph-name="Nu" unicode="&#x39d;" horiz-adv-x="672" 
d="M506 685h56v-685h-79l-323 619h-2c2.66699 -30.667 4.66699 -63.667 6 -99s2 -74 2 -116v-404h-56v685h78l324 -620h2c-2 30 -3.83301 62.833 -5.5 98.5s-2.5 74.5 -2.5 116.5v405z" />
    <glyph glyph-name="Xi" unicode="&#x39e;" horiz-adv-x="481" 
d="M50 0v56h384v-56h-384zM436 685l-7 -55h-379v55h386zM110 383h263v-55h-263v55z" />
    </font>
</defs>
</svg>
