<!-- may be protected as a trademark in some jurisdictions -->
<svg xmlns="http://www.w3.org/2000/svg" width="135" height="40" xml:space="preserve"><path fill="#A6A6A6" d="M130.197 40H4.729A4.74 4.74 0 0 1 0 35.268V4.726A4.733 4.733 0 0 1 4.729 0h125.468C132.803 0 135 2.12 135 4.726v30.542c0 2.604-2.197 4.732-4.803 4.732z"/><path d="M134.032 35.268a3.83 3.83 0 0 1-3.834 3.83H4.729a3.835 3.835 0 0 1-3.839-3.83V4.725A3.84 3.84 0 0 1 4.729.89h125.468a3.834 3.834 0 0 1 3.834 3.835l.001 30.543z"/><g fill="#FFF"><path d="M30.128 19.784c-.029-3.223 2.639-4.791 2.761-4.864-1.511-2.203-3.853-2.504-4.676-2.528-1.967-.207-3.875 1.177-4.877 1.177-1.022 0-2.565-1.157-4.228-1.123-2.14.033-4.142 1.272-5.24 3.196-2.266 3.923-.576 9.688 1.595 12.859 1.086 1.554 2.355 3.287 4.016 3.226 1.625-.066 2.232-1.035 4.193-1.035 1.943 0 2.513 1.035 4.207.996 1.744-.027 2.842-1.56 3.89-3.127 1.255-1.779 1.759-3.533 1.779-3.623-.041-.014-3.387-1.292-3.42-5.154zM26.928 10.306c.874-1.093 1.472-2.58 1.306-4.089-1.265.056-2.847.875-3.758 1.944-.806.942-1.526 2.486-1.34 3.938 1.421.106 2.88-.717 3.792-1.793z"/></g><g fill="#FFF"><path d="M54.023 17.179h-2.006l-1.1-3.455h-3.821l-1.047 3.455h-1.955l3.787-11.761h2.338l3.804 11.761zm-3.437-4.904-.995-3.071c-.104-.314-.303-1.053-.593-2.216h-.035c-.117.5-.303 1.239-.559 2.216l-.977 3.071h3.159zM63.742 12.833c0 1.443-.391 2.583-1.176 3.42-.701.745-1.572 1.117-2.613 1.117-1.125 0-1.932-.401-2.422-1.204v4.45h-1.885v-9.13a56.6 56.6 0 0 0-.07-2.788h1.658l.105 1.344h.034c.629-1.012 1.582-1.519 2.861-1.519 1.002 0 1.836.396 2.506 1.187.668.791 1.002 1.832 1.002 3.123zm-1.918.07c0-.826-.188-1.506-.559-2.042-.408-.558-.955-.837-1.641-.837-.465 0-.887.154-1.266.462s-.625.712-.742 1.213a2.414 2.414 0 0 0-.086.576v1.414c0 .617.188 1.137.566 1.562.379.425.869.637 1.475.637.709 0 1.262-.273 1.658-.82.396-.547.595-1.269.595-2.165zM73.497 12.833c0 1.443-.392 2.583-1.177 3.42-.701.745-1.572 1.117-2.613 1.117-1.124 0-1.931-.401-2.422-1.204v4.45H65.4v-9.13c0-.906-.023-1.835-.069-2.788h1.657l.104 1.344h.035c.628-1.012 1.582-1.519 2.861-1.519 1 0 1.835.396 2.505 1.187.669.791 1.004 1.832 1.004 3.123zm-1.919.07c0-.826-.188-1.506-.559-2.042-.408-.558-.955-.837-1.642-.837-.465 0-.887.154-1.265.462a2.134 2.134 0 0 0-.742 1.213 2.423 2.423 0 0 0-.087.576v1.414c0 .617.188 1.137.567 1.562.377.425.87.637 1.474.637.71 0 1.263-.273 1.657-.82.397-.547.597-1.269.597-2.165zM86.759 13.881c0 1-.349 1.814-1.045 2.443-.766.687-1.834 1.029-3.202 1.029-1.266 0-2.281-.244-3.047-.733l.436-1.57a5.246 5.246 0 0 0 2.724.733c.709 0 1.263-.16 1.657-.48.396-.32.594-.747.594-1.282 0-.477-.163-.878-.488-1.204-.326-.326-.867-.628-1.623-.908-2.06-.768-3.089-1.89-3.089-3.368 0-.965.363-1.756 1.091-2.373s1.689-.925 2.889-.925c1.07 0 1.959.186 2.67.558l-.476 1.536c-.666-.36-1.418-.541-2.26-.541-.665 0-1.186.163-1.559.489a1.395 1.395 0 0 0-.473 1.064c0 .465.18.849.541 1.152.313.279.883.582 1.709.907 1.012.407 1.758.884 2.233 1.431.479.547.718 1.227.718 2.042zM93.006 10.111H90.93v4.118c0 1.047.366 1.571 1.1 1.571.337 0 .615-.029.838-.087l.052 1.431c-.372.139-.86.209-1.466.209-.744 0-1.326-.227-1.744-.68-.419-.454-.629-1.216-.629-2.286v-4.275h-1.238V8.698h1.238V7.145l1.85-.558v2.111h2.077l-.002 1.413zM102.357 12.869c0 1.303-.373 2.373-1.116 3.211-.779.861-1.814 1.291-3.104 1.291-1.246 0-2.238-.413-2.977-1.239-.739-.826-1.108-1.867-1.108-3.124 0-1.314.382-2.391 1.144-3.229.763-.837 1.789-1.256 3.08-1.256 1.244 0 2.244.413 3.002 1.239.719.803 1.079 1.839 1.079 3.107zm-1.955.043c0-.777-.168-1.444-.506-2.001-.396-.672-.959-1.009-1.691-1.009-.757 0-1.332.336-1.729 1.009-.338.557-.506 1.236-.506 2.036 0 .777.168 1.444.506 2.001.407.673.979 1.009 1.711 1.009.722 0 1.285-.342 1.691-1.026.351-.569.524-1.242.524-2.019zM108.482 10.356a3.227 3.227 0 0 0-.594-.052c-.662 0-1.176.25-1.535.75-.313.442-.472 1.001-.472 1.675v4.45h-1.885v-5.811c0-.978-.019-1.867-.054-2.67h1.642l.069 1.623h.053a2.887 2.887 0 0 1 .941-1.343c.42-.303.873-.454 1.361-.454a2.9 2.9 0 0 1 .471.035v1.797h.003zM116.91 12.537c0 .337-.023.623-.069.855h-5.653c.022.837.297 1.478.819 1.919.478.396 1.095.593 1.851.593.838 0 1.6-.133 2.285-.401l.297 1.309c-.803.349-1.75.523-2.844.523-1.314 0-2.348-.387-3.098-1.161-.751-.773-1.126-1.812-1.126-3.115 0-1.279.351-2.344 1.047-3.193.733-.907 1.722-1.361 2.968-1.361 1.221 0 2.146.454 2.773 1.361.5.723.75 1.613.75 2.671zm-1.797-.489c.012-.558-.11-1.041-.366-1.448-.326-.523-.826-.785-1.501-.785-.616 0-1.117.256-1.501.768-.313.408-.5.896-.558 1.466l3.926-.001z"/></g><g fill="#FFF"><path d="M46.313 26.928c.211-.878.363-1.791.468-2.703l1.007.129c-.117.83-.281 1.674-.479 2.504.304-.022.573-.034.796-.034 1.604 0 2.329.843 2.329 2.598 0 1.791-.316 3.384-.749 4.099-.352.571-.761.782-1.51.782a8.077 8.077 0 0 1-1.697-.198l.07-.947a4.943 4.943 0 0 0 1.428.223c.444 0 .632-.07.843-.387.374-.551.62-1.955.62-3.535 0-1.275-.387-1.708-1.393-1.708-.281 0-.608.012-.96.035-.644 2.364-1.533 4.541-2.563 6.026l-.889-.479c.994-1.346 1.86-3.301 2.445-5.466-.808.093-1.649.222-2.387.362l-.176-.937a42.748 42.748 0 0 1 2.797-.364zm7.678 4.037-1.007.246c-.199-1.533-.878-3.277-2.142-4.564l.819-.525c1.359 1.403 2.119 3.345 2.33 4.843zM56.762 30.24c1.17-.82 2.633-1.381 3.886-1.381 1.813 0 2.914.877 2.914 2.387 0 1.873-1.533 3.055-5.173 3.055-.152 0-.363 0-.551-.012l-.21-.947c.28.012.632.023.854.023 2.927 0 4.05-.832 4.05-2.096 0-1.029-.679-1.568-2.095-1.568-1.206 0-2.587.668-3.909 1.814l-.808-.353c0-2.527.27-3.744 1.159-5.021l.924.314c-.82 1.14-1.041 2.205-1.041 3.785zm-.106-5.103.258-.936c1.626.246 4.084.795 5.243 1.217l-.27.925c-1.053-.409-3.639-1.007-5.231-1.206zM68.264 28.191a26.295 26.295 0 0 1 2.752 1.803 9.62 9.62 0 0 0 1.438-3.418h-3.78c-.854 1.357-1.967 2.691-3.055 3.547l-.784-.668c1.627-1.182 3.229-3.486 3.909-5.242l.982.339c-.141.353-.315.714-.516 1.101h3.77l.748.41c-.818 3.769-3.03 6.929-6.447 8.31l-.714-.865a9.144 9.144 0 0 0 3.826-2.692 19.686 19.686 0 0 0-2.762-1.859l.633-.766zm4.623-4.365c.48.48.854.982 1.229 1.568l-.527.375c-.351-.574-.737-1.102-1.205-1.558l.503-.385zm1.521-.34c.49.492.854.996 1.217 1.592l-.55.363a7.17 7.17 0 0 0-1.183-1.592l.516-.363zM80.434 26.261v-2.024h1.064v2.024h3.064l.891.362c-.292 3.57-1.697 6.344-5.441 7.701l-.645-.912c3.453-1.171 4.693-3.477 4.869-6.18h-6.25v2.69h-1.053V26.26l3.501.001zM91.255 27.35l-.69.854c-.644-.573-2.049-1.593-3.02-2.106l.655-.843c1.007.585 2.329 1.497 3.055 2.095zm4.507.023.678.795c-1.604 2.609-4.893 5.104-8.086 6.051l-.527-1.006c3.123-.797 6.377-3.219 7.935-5.84zM106.924 25.723v7.854h-8.355v-7.854h8.355zm-1.076 6.845v-5.863H99.62v5.863h6.228zM118.857 28.754v1.076h-9.526v-1.076h9.526zM128.288 30.428l-.679.865c-1.252-.912-3.113-1.954-4.646-2.68v5.688h-1.076V24.236h1.076v3.242c1.662.76 3.827 1.942 5.325 2.95zm-2.726-4.951a8.66 8.66 0 0 1 1.158 1.558l-.516.327a7.643 7.643 0 0 0-1.123-1.557l.481-.328zm1.228-.738a9.75 9.75 0 0 1 1.171 1.545l-.516.327a8.072 8.072 0 0 0-1.135-1.533l.48-.339z"/></g></svg>
