<svg xmlns="http://www.w3.org/2000/svg" viewBox="0 0 16 16"><path fill="#FFF" d="M12 9.9c0 .4-.1.7-.4 1l-.7.7c-.3.3-.6.4-1 .4s-.7-.1-1-.4l-1-1c-.3-.3-.4-.6-.4-1s.1-.7.4-1l-.4-.5c-.3.3-.6.4-1 .4s-.7-.1-1-.4l-1-1c-.4-.3-.5-.6-.5-1s.1-.7.4-1l.7-.7c.3-.3.6-.4 1-.4s.7.1 1 .4l1 1c.3.3.4.6.4 1s-.1.7-.4 1l.4.4c.3-.3.6-.4 1-.4s.7.1 1 .4l1 1c.4.4.5.7.5 1.1zM7.6 6.4c0-.1 0-.2-.1-.3l-1-1c-.1-.1-.2-.2-.4-.2-.1 0-.2.1-.3.2l-.7.7c-.1.1-.2.2-.2.3 0 .1 0 .2.1.3l1 1c.1.1.2.1.3.1.1 0 .3-.1.4-.2l-.1-.1v.1s0-.1-.1-.1l-.1-.1V7c0-.1 0-.2.1-.3s.2-.1.3-.1h.1s.1 0 .1.1l.1.1.1.1.1.1c.3-.3.3-.4.3-.6zm3.5 3.5c0-.1 0-.2-.1-.3l-1-1c-.2-.2-.3-.2-.4-.2-.1 0-.3.1-.4.2l.1.1.1.1s0 .1.1.1l.1.1v.1c0 .1 0 .2-.1.3s-.3.2-.4.2H9s-.1 0-.1-.1l-.1-.1-.1-.1c-.1 0-.1-.1-.2-.1-.1.1-.1.2-.1.4 0 .1 0 .2.1.3l1 1c.1.1.2.1.3.1.1 0 .2 0 .3-.1l.7-.7c.2-.1.3-.2.3-.3z"/></svg>