<?xml version="1.0" encoding="utf-8"?>
<!-- Generator: Adobe Illustrator 17.1.0, SVG Export Plug-In . SVG Version: 6.00 Build 0)  -->
<!DOCTYPE svg PUBLIC "-//W3C//DTD SVG 1.1//EN" "http://www.w3.org/Graphics/SVG/1.1/DTD/svg11.dtd">
<svg version="1.1" id="Layer_1" xmlns="http://www.w3.org/2000/svg" xmlns:xlink="http://www.w3.org/1999/xlink" x="0px" y="0px"
	 viewBox="0 0 16 16" enable-background="new 0 0 16 16" xml:space="preserve">
<path fill-rule="evenodd" clip-rule="evenodd" fill="#231F20" d="M14,0H5.558c-0.331,0-0.6,0.269-0.6,0.6v0.8
	c0,0.331,0.269,0.6,0.6,0.6H12.5C13.328,2,14,2.672,14,3.5v9c0,0.828-0.672,1.5-1.5,1.5H5.558c-0.331,0-0.6,0.269-0.6,0.6v0.8
	c0,0.331,0.269,0.6,0.6,0.6H14c1.105,0,2-0.895,2-2V2C16,0.895,15.105,0,14,0z"/>
<g id="Outgoing_14x14_2_">
	<path fill-rule="evenodd" clip-rule="evenodd" fill="#231F20" d="M0.133,7.585c-0.105,0.11-0.146,0.265-0.13,0.432
		c-0.016,0.166,0.025,0.321,0.13,0.429l0.616,0.615l2.6,2.65c0.304,0.315,0.732,0.382,0.958,0.149l0.51-0.541
		c0.225-0.233,0.16-0.679-0.144-0.995L3.615,9.246h5.832c0.335,0,0.608-0.272,0.608-0.607V7.424c0-0.335-0.272-0.607-0.608-0.607
		H3.585L4.72,5.662c0.305-0.313,0.369-0.756,0.144-0.987L4.355,4.139C4.13,3.906,3.701,3.973,3.396,4.287L0.777,6.951L0.133,7.585z"
		/>
</g>
</svg>
