<svg width="28" height="28" viewBox="0 0 28 28" xmlns="http://www.w3.org/2000/svg"><g fill="none"><rect opacity=".95" fill="#fff" x="2" y="2" width="24" height="24" rx="40"/><path d="M2 14c0 6.629 5.373 12 12 12 6.629 0 12-5.373 12-12 0-6.629-5.373-12-12-12-6.629 0-12 5.373-12 12zm-2 0c0-7.732 6.267-14 14-14 7.732 0 14 6.267 14 14 0 7.732-6.267 14-14 14-7.732 0-14-6.267-14-14z" fill-opacity=".2" fill="#000"/><rect fill="#00A9DC" x="11" y="12" width="9" height="7" rx="1"/><path d="M17 11v-.997c0-.565-.447-1.003-.998-1.003h-7.005c-.551 0-.998.449-.998 1.003v4.994c0 .565.447 1.003.998 1.003h1.002v-3.997c0-.554.446-1.003.998-1.003h6.002z" fill="#00A9DC"/></g></svg>
