<?xml version="1.0" encoding="UTF-8" standalone="no"?>
<svg width="28px" height="28px" viewBox="0 0 28 28" version="1.1" xmlns="http://www.w3.org/2000/svg" xmlns:xlink="http://www.w3.org/1999/xlink">
    <defs></defs>
    <g id="Page-1" stroke="none" stroke-width="1" fill="none" fill-rule="evenodd">
        <rect id="Rectangle-1264-Copy" opacity="0.95" fill="#5CCCEE" x="2" y="2" width="24" height="24" rx="40"></rect>
        <path d="M2,14 L2,14 C2,20.6288742 7.372583,26 14,26 L14,26 C20.6288742,26 26,20.627417 26,14 L26,14 C26,7.37112582 20.627417,2 14,2 L14,2 C7.37112582,2 2,7.372583 2,14 L2,14 Z M0,14 L0,14 C0,6.26754774 6.26702203,0 14,0 C21.7324523,0 28,6.26702203 28,14 C28,21.7324523 21.732978,28 14,28 C6.26754774,28 0,21.732978 0,14 L0,14 Z" id="Shape" fill-opacity="0.2" fill="#000000"></path>
        <rect id="Rectangle-170-Copy-4" fill="#FFFFFF" x="11" y="12" width="9" height="7" rx="1"></rect>
        <path d="M17,11 L17,10.0029293 C17,9.43788135 16.553384,9 16.0024554,9 L8.99754465,9 C8.4463114,9 8,9.44902676 8,10.0029293 L8,14.9970707 C8,15.5621186 8.44661595,16 8.99754465,16 L10,16 L10,12.0029293 C10,11.4490268 10.4463114,11 10.9975446,11 L17,11 Z" id="Rectangle-170-Copy" fill="#FFFFFF"></path>
    </g>
</svg>