<svg xmlns="http://www.w3.org/2000/svg" viewBox="0 0 467.5 76"><path fill="#5D5F64" d="M263.4 28.2c-.2.4-.5.8-.8 1.2-.3.3-.7.6-1.2.8-.5.2-.9.3-1.4.3-.5 0-1-.1-1.4-.3-.5-.2-.8-.4-1.2-.8-.3-.3-.6-.7-.8-1.2-.2-.4-.3-.9-.3-1.4 0-.5.1-1 .3-1.4.2-.4.4-.8.8-1.2.3-.3.7-.6 1.2-.8.4-.2.9-.3 1.4-.3.5 0 1 .1 1.4.3.4.2.8.4 1.2.8.3.3.6.7.8 1.2.2.5.3.9.3 1.4 0 .5-.1 1-.3 1.4zm-.7-2.6c-.2-.4-.4-.7-.6-1-.2-.3-.6-.5-.9-.7-.4-.2-.7-.2-1.1-.2-.4 0-.8.1-1.1.2-.4.2-.7.4-.9.7-.3.3-.5.6-.6 1-.2.4-.2.8-.2 1.2 0 .4.1.8.2 1.2.2.4.4.7.6 1 .3.3.6.5.9.7.3.2.7.2 1.1.2.4 0 .8-.1 1.1-.2.4-.2.7-.4.9-.7.3-.3.5-.6.6-1 .1-.4.2-.8.2-1.2.1-.4 0-.8-.2-1.2zm-2.2 2.6c-.1-.3-.3-.5-.4-.6-.1-.1-.2-.3-.3-.4l-.1-.1h-.2v1.8h-.7v-4.1h1.3c.2 0 .4 0 .6.1.2.1.3.1.4.2.1.1.2.2.2.4 0 .1.1.3.1.5 0 .3-.1.6-.3.8-.2.2-.4.3-.8.3l.1.1.2.2c.1.1.1.2.2.2.1.1.1.2.2.3l.6 1h-.8l-.3-.7zm0-2.8c-.1-.1-.3-.2-.6-.2h-.4v1.3h.8c.1 0 .2-.1.2-.1.1-.1.2-.3.2-.5s0-.3-.2-.5zM35.6 13.9h-24v19h19.5v9.4H11.6v32.1H0V4.3h37.1l-1.5 9.6zM41.7 8.2c0-4.1 3.2-7.5 7.4-7.5 3.9 0 7.3 3.2 7.3 7.5 0 4.1-3.3 7.4-7.5 7.4-4.1 0-7.2-3.4-7.2-7.4zm1.6 66.2V24l11.2-2v52.4H43.3zM89.2 32.9c-1.1-.4-1.9-.7-3.1-.7-4.7 0-8.6 3.4-9.6 7.6v34.6H65.3V38.3c0-6.5-.7-10.6-1.8-13.8l10.2-2.6c1.2 2.3 1.9 5.3 1.9 8.1 4-5.6 8.1-8.2 13.1-8.2 1.6 0 2.6.2 3.9.8l-3.4 10.3zM103.3 51.8v.8c0 7.1 2.6 14.6 12.7 14.6 4.8 0 8.9-1.7 12.7-5.1l4.4 6.8c-5.4 4.6-11.5 6.8-18.4 6.8-14.6 0-23.7-10.4-23.7-26.8 0-9 1.9-15 6.4-20 4.2-4.8 9.2-6.9 15.7-6.9 5.1 0 9.7 1.3 14.1 5.3 4.5 4 6.7 10.3 6.7 22.3v2.3h-30.6zm9.8-21.4c-6.3 0-9.7 5-9.7 13.3h18.9c0-8.4-3.6-13.3-9.2-13.3zM165.5 10c-2.5-1.2-4-1.8-6.2-1.8-3.8 0-6.3 2.6-6.3 7.2v7.8h13.4l-2.8 7.7h-10.4v43.5h-11V30.9h-4.8v-7.7h5s-.3-2.8-.3-7.6C142.1 5 148.5 0 157.6 0c4.4 0 8 .9 11.5 2.9l-3.6 7.1zM210.1 49c0 16.5-8.8 26.7-22.7 26.7-13.9 0-22.6-10.4-22.6-26.8S173.6 22 187.2 22c14.6 0 22.9 10.8 22.9 27zm-32.9-.8c0 14.9 3.7 19.2 10.4 19.2 6.6 0 10.2-5.4 10.2-18.2 0-14.5-4-18.8-10.5-18.8-7 0-10.1 5.3-10.1 17.8z"/><path fill="#5D5F64" d="M243.6 74.4c-1.8-2.9-10.1-17.3-11.1-19.1-1.9 3.8-9.2 16.3-11.1 19.1h-14.1l19-27.8-14.8-22 12-2.4c2.3 3.8 6.9 11.8 9.3 16.6 1.4-3.3 6.6-13.6 8.1-15.7h13l-15.1 23.3 18.7 27.9h-13.9z"/><g fill="#5D5F64"><path d="M280.6 4.5h8.2v29.3h29.5V4.5h8.4v70.1h-8.4V40.7h-29.5v33.9h-8.2V4.5zM371.5 64.3l3.1 5.1c-4.5 4.1-10.6 6.3-17.2 6.3-14.1 0-22.6-10.2-22.6-27.1 0-8.6 1.8-14.1 6.1-19.2 4.1-4.8 9.1-7.1 15.2-7.1 5.5 0 10.3 1.9 13.8 5.5 4.4 4.5 5.6 9.3 5.8 21.5v1.1H344v1.2c0 4.8.6 8.5 2.3 11.1 2.9 4.4 7.6 6.2 12.7 6.2 4.9.2 8.9-1.3 12.5-4.6zM344 44.5h23.3c-.1-5.5-.8-8.9-2.3-11.3-1.7-2.8-5.3-4.5-9.2-4.5-7.3-.1-11.4 5.2-11.8 15.8zM393.5 64.4c0 4 .6 5.1 2.9 5.1.3 0 1-.2 1-.2l1.6 5.2c-2 .9-3 1.1-5.1 1.1-2.5 0-4.5-.7-6-2.1-1.6-1.4-2.5-3.6-2.5-7.3v-54c0-6.6-1.2-10.4-1.2-10.4l8-1.5s1.3 4.3 1.3 12.1v52zM413.9 64.4c0 4 .6 5.1 2.9 5.1.3 0 1-.2 1-.2l1.6 5.2c-2 .9-3 1.1-5.1 1.1-2.5 0-4.5-.7-6-2.1-1.6-1.4-2.5-3.6-2.5-7.3v-54c0-6.6-1.2-10.4-1.2-10.4l8-1.5s1.3 4.3 1.3 12.1v52zM445.3 22.2c8.5 0 14 3.9 17.5 8.9 3.2 4.6 4.7 10.6 4.7 18.9 0 17-9.1 26-21.9 26-14 0-22-10.3-22-27.1 0-16.6 8.3-26.7 21.7-26.7zm-.1 6.5c-4.5 0-8.7 2.1-10.4 5.5-1.6 3.2-2.5 7.3-2.5 13.3 0 7.2 1.2 13.5 3.2 16.7 1.8 3.1 5.9 5.1 10.3 5.1 5.3 0 9.3-2.8 11-7.7 1.1-3.2 1.5-6 1.5-11 0-7.2-.7-12-2.4-15.3-2-4.5-6.5-6.6-10.7-6.6z"/></g></svg>