<?xml version="1.0" encoding="UTF-8"?>
<!-- This Source Code Form is subject to the terms of the Mozilla Public
   - License, v. 2.0. If a copy of the MPL was not distributed with this
   - file, You can obtain one at http://mozilla.org/MPL/2.0/. -->
<svg width="32px" height="32px" viewBox="0 0 32 32" version="1.1" xmlns="http://www.w3.org/2000/svg" xmlns:xlink="http://www.w3.org/1999/xlink">
    <!-- Generator: Sketch 52.5 (67469) - http://www.bohemiancoding.com/sketch -->
    <title>Icon / Extensions</title>
    <desc>Created with Sketch.</desc>
    <defs>
        <path d="M15.40625,8.5 C14.3745625,8.5 14.34375,9.5625 13.546875,9.5625 C13.1103334,9.55402108 12.7584789,9.2021666 12.75,8.765625 L12.75,5.3125 C12.75,4.72569745 12.2743025,4.25 11.6875,4.25 L8.234375,4.25 C7.7978334,4.24152108 7.44597892,3.8896666 7.4375,3.453125 C7.4375,2.65625 8.5,2.6254375 8.5,1.59375 C8.5,0.6746875 7.54375,0 6.375,0 C5.20625,0 4.25,0.6746875 4.25,1.59375 C4.25,2.6254375 5.3125,2.65625 5.3125,3.453125 C5.30402108,3.8896666 4.9521666,4.24152108 4.515625,4.25 L1.0625,4.25 C0.475697453,4.25 1.62102901e-16,4.72569745 9.02403152e-17,5.3125 L9.02403152e-17,7.703125 C0.00847891858,8.1396666 0.360333404,8.49152108 0.796875,8.5 C1.59375,8.5 1.6245625,7.4375 2.65625,7.4375 C3.5753125,7.4375 4.25,8.39375 4.25,9.5625 C4.25,10.73125 3.5753125,11.6875 2.65625,11.6875 C1.6245625,11.6875 1.59375,10.625 0.796875,10.625 C0.360333404,10.6334789 0.00847891858,10.9853334 0,11.421875 L0,15.9375 C4.41417049e-17,16.5243025 0.475697453,17 1.0625,17 L4.515625,17 C4.9521666,16.9915211 5.30402108,16.6396666 5.3125,16.203125 C5.3125,15.40625 4.25,15.3754375 4.25,14.34375 C4.25,13.4246875 5.20625,12.75 6.375,12.75 C7.54375,12.75 8.5,13.4246875 8.5,14.34375 C8.5,15.3754375 7.4375,15.40625 7.4375,16.203125 C7.44597892,16.6396666 7.7978334,16.9915211 8.234375,17 L11.6875,17 C12.2743025,17 12.75,16.5243025 12.75,15.9375 L12.75,12.484375 C12.7584789,12.0478334 13.1103334,11.6959789 13.546875,11.6875 C14.34375,11.6875 14.3745625,12.75 15.40625,12.75 C16.3253125,12.75 17,11.79375 17,10.625 C17,9.45625 16.3253125,8.5 15.40625,8.5 Z" id="path-1"/>
    </defs>
    <g id="Yep" stroke="none" stroke-width="1" fill="none" fill-rule="evenodd">
        <g id="4---doorhanger" transform="translate(-846.000000, -103.000000)">
            <g id="Icon-/-Extensions" transform="translate(846.000000, 103.000000)">
                <g id="private-browsing">
                    <circle id="Oval" fill="#8D20AE" cx="16" cy="16" r="16"/>
                    <g id="Icons-/-Extensions-16" transform="translate(8.533333, 6.400000)">
                        <rect id="bouding-box" x="0" y="0" width="17" height="17"/>
                        <mask id="mask-2" fill="white">
                            <use xlink:href="#path-1"/>
                        </mask>
                        <g id="Shape" fill-rule="nonzero"/>
                        <g id="Color-/-Photon-/-Primary---Grey-90-80%" mask="url(#mask-2)" fill="#F9F9FA" fill-rule="evenodd">
                            <rect id="Rectangle" x="0" y="0" width="17" height="17"/>
                        </g>
                    </g>
                </g>
            </g>
        </g>
    </g>
</svg>