<svg width="16" height="16" viewBox="0 0 16 16" fill="context-fill" fill-opacity="context-fill-opacity" xmlns="http://www.w3.org/2000/svg">
  <path d="M1.378 2.75A2.966 2.966 0 0 0 0 5.257V11.2A4.8 4.8 0 0 0 4.8 16h5.943c1.055 0 1.981-.55 2.509-1.378l-.112.005-.111.002H4.8A3.429 3.429 0 0 1 1.371 11.2V2.971c0-.074.003-.148.007-.221ZM5.257 0a2.97 2.97 0 0 0-2.971 2.971v7.772a2.97 2.97 0 0 0 2.971 2.971h7.772A2.97 2.97 0 0 0 16 10.743V2.971A2.97 2.97 0 0 0 13.029 0H5.257Zm4.28 8.354.084.07 3.937 3.829c-.165.058-.344.09-.529.09H5.257c-.186 0-.364-.032-.53-.09l3.938-3.829a.687.687 0 0 1 .872-.07Zm-4.28-6.983h7.772a1.6 1.6 0 0 1 1.6 1.6v7.772c0 .191-.034.374-.095.544l-3.957-3.846a2.057 2.057 0 0 0-2.745-.111l-.123.111-3.957 3.846a1.607 1.607 0 0 1-.095-.544V2.971a1.6 1.6 0 0 1 1.6-1.6Zm1.6 2.059a1.142 1.142 0 1 0 0 2.283 1.142 1.142 0 0 0 0-2.283Z"/>
</svg>