<svg xmlns="http://www.w3.org/2000/svg" width="16" height="16" viewBox="0 0 16 16">
  <path style="fill:context-fill;fill-opacity:context-fill-opacity" d="M2 0a2 2 0 0 0-2 2v12a2 2 0 0 0 2 2h12a2 2 0 0 0 2-2V2a2 2 0 0 0-2-2H2zm0 1h12a1 1 0 0 1 1 1v12a1 1 0 0 1-1 1H2a1 1 0 0 1-1-1V2a1 1 0 0 1 1-1zm1.5 1A1.5 1.5 0 0 0 2 3.5v2a.5.5 0 0 0 1 0v-2a.5.5 0 0 1 .5-.5h2a.5.5 0 0 0 0-1h-2zm7 0a.5.5 0 0 0 0 1h2a.5.5 0 0 1 .5.5v2a.5.5 0 0 0 1 0v-2A1.5 1.5 0 0 0 12.5 2h-2zM6.514 4.926a.5.5 0 0 0-.514.5v5.148a.502.502 0 0 0 .775.418l4-2.648a.501.501 0 0 0-.01-.842l-4-2.5a.5.5 0 0 0-.251-.076zM2.5 10a.5.5 0 0 0-.5.5v2A1.5 1.5 0 0 0 3.5 14h2a.5.5 0 0 0 0-1h-2a.5.5 0 0 1-.5-.5v-2a.5.5 0 0 0-.5-.5zm11 0a.5.5 0 0 0-.5.5v2a.5.5 0 0 1-.5.5h-2a.5.5 0 0 0 0 1h2a1.5 1.5 0 0 0 1.5-1.5v-2a.5.5 0 0 0-.5-.5z"/>
</svg>
