<?xml version="1.0" encoding="utf-8"?>
<!-- Generator: Adobe Illustrator 18.1.0, SVG Export Plug-In . SVG Version: 6.00 Build 0)  -->
<svg version="1.1" xmlns="http://www.w3.org/2000/svg" xmlns:xlink="http://www.w3.org/1999/xlink" fill="gray" x="0px" y="0px" width="32px"
	 height="32px" viewBox="0 0 32 32" enable-background="new 0 0 32 32" xml:space="preserve">
<g id="layer_2">
</g>
<g id="layer_1">
	<g>
		<g>
			<path fill-rule="evenodd" clip-rule="evenodd" d="M16.968,9.895c3.293,0,6.117,1.995,7.338,4.841l1.603-1.216
				c-1.628-3.3-4.994-5.591-8.923-5.591c-3.942,0-7.319,2.305-8.94,5.624l1.594,1.166C10.865,11.883,13.682,9.895,16.968,9.895z
				 M17.135,13.964c1.948,0,3.566,1.397,3.917,3.244l1.779-1.35c-0.849-2.276-3.023-3.904-5.595-3.904
				c-2.669,0-4.904,1.758-5.677,4.171l1.647,1.205C13.509,15.424,15.145,13.964,17.135,13.964z M8.756,16.025H1.833
				c-0.737,0-1.729,0.598-1.729,1.335v11.271c0,0.738,0.596,1.335,1.334,1.335h7.318c0.738,0,1.336-0.597,1.336-1.335V17.36
				C10.092,16.623,9.494,16.025,8.756,16.025z M8.113,27.472c0,0.299-0.243,0.541-0.541,0.541H2.599
				c-0.298,0-0.541-0.242-0.541-0.541v-8.949c0-0.299,0.243-0.541,0.541-0.541h4.973c0.298,0,0.541,0.242,0.541,0.541V27.472z
				 M15.246,17.992c0,1.064,0.862,1.926,1.926,1.926c1.064,0,1.926-0.862,1.926-1.926c0-1.064-0.862-1.926-1.926-1.926
				C16.108,16.066,15.246,16.929,15.246,17.992z M29.962,2.034H4.011c-1.102,0-1.996,0.894-1.996,1.996v10.008h4.042V5.937
				c0-1.102,0.894-1.996,1.996-1.996h17.973c1.103,0,1.996,0.894,1.996,1.996v16.075c0,1.103-0.894,1.996-1.996,1.996H12.089v1.918
				h17.873c1.102,0,1.996-0.894,1.996-1.996V4.03C31.958,2.927,31.064,2.034,29.962,2.034z"/>
		</g>
	</g>
</g>
</svg>
