/* XPM */
static char *simple.xpm[] = {
/* columns rows colors chars-per-pixel */
"16 16 18 1",
"  c black",
". c #040404",
"X c #333366",
"o c #006666",
"O c #336666",
"+ c gray40",
"@ c #666699",
"# c #669999",
"$ c #6699CC",
"% c #800000",
"& c red",
"* c #FF3300",
"= c #FF6600",
"- c #FF9900",
"; c #FFCC00",
": c #A6CAF0",
"> c gray100",
", c None",
/* pixels */
",$$$$@@@@@@@@O+,",
"$$>>>>>>>>>>>>XX",
"$>:$$$$$$$$$#$>X",
"$>$$$$$$$####>#.",
"@>$$$$$#@@@@>O.,",
"@>$$$$#@@@@>O.%,",
"@>$$$#@@@@>O.-%,",
"@>$$#@@@@>O.;-%,",
"@>$$#@@@>O.;-=%,",
"@>$$@@@>O.;-=*%,",
"@>##@@>O.;-=**%,",
"@>#@@>O.;-=**&%,",
"@>@@>O.--=**&&%,",
"O>@>O.--=**&&&%,",
"OXoO.%%%%%%%%%,,",
",XX.,,,,,,,,,,,,"
};
