/* XPM */
static char *simple.xpm[] = {
/* columns rows colors chars-per-pixel */
"32 32 37 1",
"  c black",
". c #040404",
"X c #111111",
"o c gray11",
"O c #222222",
"+ c gray16",
"@ c #333366",
"# c #336666",
"$ c #660000",
"% c #663300",
"& c #663333",
"* c #555555",
"= c gray40",
"- c #336699",
"; c #666699",
": c #669999",
"> c #6699CC",
", c #CC3333",
"< c #CC6633",
"1 c #FF6633",
"2 c #CC9933",
"3 c #FF9933",
"4 c #FFCC33",
"5 c #9999CC",
"6 c #99CCCC",
"7 c #99CCFF",
"8 c #A6CAF0",
"9 c #C0C0C0",
"0 c gray80",
"q c #D7D7D7",
"w c #DDDDDD",
"e c #CCFFFF",
"r c gray89",
"t c #EAEAEA",
"y c #F1F1F1",
"u c gray100",
"i c None",
/* pixels */
"i9:;;;;;;;;;;;;;;;;;;;;;;;;;;=;i",
"88>=====;;;;;;;;;;;;;;;;;:55:=@*",
"589uuuuuuuuuuuuuuuuuuuuuuuuuu:+@",
">;ue65>>>>>>>>>>>>>>>>>>>:;-u6-+",
">;u96>>>>>>>>>>>>>>>>>>>:--#u:#o",
">=u66wry6wy06ty9>:>::::;;-#u>;+.",
">=u6>wyy9wyy9wyy;;;;;;;-=#u>:@Xi",
">=u6>5yy::yy;;yt;;;;;--##u>>#o.i",
">=u6>6y9;5y0;5y9;;;;--##u>>#O.ii",
"5=u6>9y5;9y9;9y5;;;--##u>>#O.Xii",
"5=u6>qy:;0y5;qy:;;--##u>>#O.&Xii",
"5=u6>ty;;ty:;ty;;--##u>>#O.2&Xii",
"5=u6>>;;;;;;;;;;--##u>>#O.32&Xii",
"5=u6>>;;;;;;;;;--##u>>#O.432&Xii",
"5=u6>>;;;;;;;;--##u>>#OO4442&Xii",
"5=u6>>;;;;;;;--##u>>#OO44442&Xii",
"5=u6>>;;;;;;;-##u>>#O+444442&Xii",
"5=u6>>;;;;;--##u>>#OO4444432&Xii",
"5=u6>>;;;;--##u>>#OO44444433%Xii",
"5=u6>>;;;--##u5>#OO444444433%Xii",
"5=u6>>;;--##u>>#OO4444444333%Xii",
"5=u6>>;;-##u>>#O@44444443331%Xii",
"5=u6>>;-##u>>#O+444444433331%Xii",
"5;u6>:-##u>>#O.4444444333311%Xii",
"5;u5>;-#u>>#O.44444443333111%Xii",
"5;u>>;#u>>#O.444444333331111%Xii",
"5:u>;=u>>#O.4444433333111111%Xii",
">5u:-u>>#Oo4444333333111111,%Xii",
">6uuu>>#O.33333333111111111,$Xii",
">7:>>;#O.<<<<<<,,,,,,,,,,,,%*Xii",
"@;@-#@o.XXXXXXXXXXXXXXXXXXXXXiii",
"i@oXOXiiiiiiiiiiiiiiiiiiiiiiiiii"
};
