/* XPM */
static char *tb_forward[] = {
/* columns rows colors chars-per-pixel */
"23 21 11 1",
"  c #00373c",
". c #333366",
"X c #008000",
"o c Green",
"O c #008080",
"+ c #429aa7",
"@ c Magenta",
"# c #808080",
"$ c #c0c0c0",
"% c Gray100",
"& c None",
/* pixels */
"&&&&&&&oO+&&&&&&&&&&&&&",
"&&&&&&&ooX+&&&&&&.....&",
"&&&&&&&+%$X+&&&&&&...&&",
"&&&&&&&+$o$X+&&&&&&.&&&",
"&&&&&&&+%$o$X+&&&&&&&&&",
"&&&&&&&+$o$o$X+&&&&&&&&",
"&&&ooooo%$o$o$XX&&&&&&&",
"&&&+$%$%$o$o$o$OX&&&&&&",
"&&&+%oo$o$o$o$o$OX&&&&&",
"&&&+$o$o$o$o$o$o$OX&&&&",
"&&&+%oo$o$o$o$o$oXO&&&&",
"&&&+$OOOOOOOOOOO  O&&&&",
"&&&+%X+X+XXXXXX  O&&&&&",
"&&&o$+X+XXXXXX  O&&&&&&",
"&&&ooX+X+XXXX  O&&&&&&&",
"&&&X    +XXX  O#######&",
"&&&&&&&X+XX .O#######&&",
"&&&&###X+X .O#####&&&&&",
"&&&&&##XX .O###&&&&&&&&",
"&&&&&&## .O&&&&&&&&&&&&",
"&&&&&&&&&&&&&&&&&&&&&&&"
};

/* -*- Mode: xpm; tab-width: 4; indent-tabs-mode: nil; c-basic-offset: 2 -*-
 *
 * The contents of this file are subject to the Netscape Public License
 * Version 1.0 (the "NPL"); you may not use this file except in
 * compliance with the NPL.  You may obtain a copy of the NPL at
 * http://www.mozilla.org/NPL/
 *
 * Software distributed under the NPL is distributed on an "AS IS" basis,
 * WITHOUT WARRANTY OF ANY KIND, either express or implied. See the NPL
 * for the specific language governing rights and limitations under the
 * NPL.
 *
 * The Initial Developer of this code under the NPL is Netscape
 * Communications Corporation.  Portions created by Netscape are
 * Copyright (C) 1998 Netscape Communications Corporation.  All Rights
 * Reserved.
 */
/*-----------------------------------------*/
