/* XPM */
static char *tb_home_armed[] = {
/* columns rows colors chars-per-pixel */
"23 21 14 1",
"  c #00373c",
". c #222222",
"X c #333366",
"o c #6666cc",
"O c #008000",
"+ c #429aa7",
"@ c #ff6633",
"# c Magenta",
"$ c #ff66cc",
"% c #808000",
"& c #808080",
"* c #9999ff",
"= c #c0c0c0",
"- c None",
/* pixels */
"-----------------------",
"-----------------------",
"---------------&&Xo----",
"----------*****&*Xo----",
"---------*ooooo&*Xo----",
"--------*o=oooo&*Xo----",
"-------*o.X=ooo&*Xo----",
"------*o.X*X=ooo*XX----",
"-----*o.X***X=oooXoX---",
"----*o.X*****X=oooXoo--",
"---*oXX*******X=ooooXo-",
"--*oXX*********X=oooooo",
"--oX.***********X=..XXX",
"----%o***ooX$****o  Xo-",
"-----****ooo&****o.XX--",
"-----****ooo&****oXXo--",
"-----****ooo$****oXoo--",
"-----****ooX$****oXoo--",
"-----****oXX&****oXoo--",
"---++o*o*XXX&****oo&+--",
"&&OO+*+%%&&@@&&o&+&&+&-"
};

/* -*- Mode: xpm; tab-width: 4; indent-tabs-mode: nil; c-basic-offset: 2 -*-
 *
 * The contents of this file are subject to the Netscape Public License
 * Version 1.0 (the "NPL"); you may not use this file except in
 * compliance with the NPL.  You may obtain a copy of the NPL at
 * http://www.mozilla.org/NPL/
 *
 * Software distributed under the NPL is distributed on an "AS IS" basis,
 * WITHOUT WARRANTY OF ANY KIND, either express or implied. See the NPL
 * for the specific language governing rights and limitations under the
 * NPL.
 *
 * The Initial Developer of this code under the NPL is Netscape
 * Communications Corporation.  Portions created by Netscape are
 * Copyright (C) 1998 Netscape Communications Corporation.  All Rights
 * Reserved.
 */
/*-----------------------------------------*/
