/* XPM */
static char *tb_loadimages[] = {
/* columns rows colors chars-per-pixel */
"23 21 13 1",
"  c Black",
". c #222222",
"X c #333366",
"o c #6666cc",
"O c #008000",
"+ c #800000",
"@ c Red",
"# c Magenta",
"$ c #808000",
"% c #808080",
"& c #9999ff",
"* c #c0c0c0",
"= c None",
/* pixels */
"========.o=============",
"======&.==oo===========",
"=====oo=====.&ooo%=====",
"====.=&&&&&%&o**o.%====",
"=&&&&&&*********o.X====",
"=&*****&&*&*XX&*o.X====",
"=&*ooXX $. . X&*o.X====",
"=&*X . $$$. .X&*o.X====",
"=&*.. $$$$$. X&*o.X====",
"=&*. $$$$$$$.X&*o.X====",
"=&* $$$$@+@+$X&*o.X====",
"=&*.  OOO@+@ X&*o.X====",
"=&*. OOOOO@+ X&*o.X====",
"=&*..OOOOO+@ X&*o.X====",
"=&*.. OOO .  X&*o.X%===",
"=&***. . .   X&*o.XX%==",
"=&&*****%%ooXX&*o.X..X%",
"=&ooooo******X&*o.X.X%=",
"====&&&oooooo***o.XX%==",
"=========&&&%oooo.X%===",
"======================="
};

/* -*- Mode: xpm; tab-width: 4; indent-tabs-mode: nil; c-basic-offset: 2 -*-
 *
 * The contents of this file are subject to the Netscape Public License
 * Version 1.0 (the "NPL"); you may not use this file except in
 * compliance with the NPL.  You may obtain a copy of the NPL at
 * http://www.mozilla.org/NPL/
 *
 * Software distributed under the NPL is distributed on an "AS IS" basis,
 * WITHOUT WARRANTY OF ANY KIND, either express or implied. See the NPL
 * for the specific language governing rights and limitations under the
 * NPL.
 *
 * The Initial Developer of this code under the NPL is Netscape
 * Communications Corporation.  Portions created by Netscape are
 * Copyright (C) 1998 Netscape Communications Corporation.  All Rights
 * Reserved.
 */
/*-----------------------------------------*/
