/* XPM */
static char *tb_mixsecurity_raised[] = {
/* columns rows colors chars-per-pixel */
"23 21 14 1",
"  c Black",
". c #222222",
"X c #333366",
"o c #6666cc",
"O c #800000",
"+ c #990066",
"@ c #ff6633",
"# c Magenta",
"$ c #808000",
"% c Yellow",
"& c #9999ff",
"* c #c0c0c0",
"= c Gray100",
"- c None",
/* pixels */
"---%oo   %%-%----------",
"--%o===&& %%-%---------",
"-%%o=X o& %%%----------",
"-%%o= -.& %%-%---------",
"-%%o= %X& %%%----------",
"%oX&oXXoooX %%---------",
"%o&====*&oo %----------",
"%o&=&ooXXXo %%---------",
"%o&===*&&oo %--ooX   --",
"%o&=&ooXXXo %%o*===&o -",
"%o&===*&&oo %%X=* Oo&O-",
"%oXXXXX.oo %%*X=X--.oO-",
"%%%%%%%%ooX   X=Xo-o  -",
"-%%%%%%o= ****ooo -----",
"--%-%-%o==*$@$@&O -----",
"---%-%-o=&+++++Oo -----",
"-------o==*@$@$@O -----",
"-------o=&+++++Oo -----",
"-------o==*@$@$@o -----",
"-------oo......   -----",
"-----------------------"
};

/* -*- Mode: xpm; tab-width: 4; indent-tabs-mode: nil; c-basic-offset: 2 -*-
 *
 * The contents of this file are subject to the Netscape Public License
 * Version 1.0 (the "NPL"); you may not use this file except in
 * compliance with the NPL.  You may obtain a copy of the NPL at
 * http://www.mozilla.org/NPL/
 *
 * Software distributed under the NPL is distributed on an "AS IS" basis,
 * WITHOUT WARRANTY OF ANY KIND, either express or implied. See the NPL
 * for the specific language governing rights and limitations under the
 * NPL.
 *
 * The Initial Developer of this code under the NPL is Netscape
 * Communications Corporation.  Portions created by Netscape are
 * Copyright (C) 1998 Netscape Communications Corporation.  All Rights
 * Reserved.
 */
/*-----------------------------------------*/
