/* XPM */
static char *tb_mixsecurity_armed[] = {
/* columns rows colors chars-per-pixel */
"23 21 13 1",
"  c Black",
". c #222222",
"X c #333366",
"o c #000080",
"O c #6666cc",
"+ c #800000",
"@ c #990066",
"# c Magenta",
"$ c #808000",
"% c #808080",
"& c #9999ff",
"* c #c0c0c0",
"= c None",
/* pixels */
"=======================",
"=====OO   =============",
"====O*&&&& ============",
"====O*X O& ============",
"====O& =.& ============",
"====O& =X& ============",
"==OXOOXXOOXX ==========",
"==O&*&&&&&OX ==========",
"==O&*OOOXXXX ==========",
"==O&*&&&&&OX ===OO.   =",
"==O&*OOXXXXX ==.&&&&&% ",
"==O&*&&&&&OX ==.%% +O&+",
"==OXXXXX... ===.%.==.O+",
"=========OO.   O%.o=O  ",
"========O* $$$$OOO ====",
"========O*&&&&&&&X ====",
"========O*O@O@@@+X ====",
"========O*&$$$$$$X ====",
"========O*O@O@@@+X ====",
"========O*&$$$$$$X ====",
"========OO......   ===="
};

/* -*- Mode: xpm; tab-width: 4; indent-tabs-mode: nil; c-basic-offset: 2 -*-
 *
 * The contents of this file are subject to the Netscape Public License
 * Version 1.0 (the "NPL"); you may not use this file except in
 * compliance with the NPL.  You may obtain a copy of the NPL at
 * http://www.mozilla.org/NPL/
 *
 * Software distributed under the NPL is distributed on an "AS IS" basis,
 * WITHOUT WARRANTY OF ANY KIND, either express or implied. See the NPL
 * for the specific language governing rights and limitations under the
 * NPL.
 *
 * The Initial Developer of this code under the NPL is Netscape
 * Communications Corporation.  Portions created by Netscape are
 * Copyright (C) 1998 Netscape Communications Corporation.  All Rights
 * Reserved.
 */
/*-----------------------------------------*/
