/* XPM */
static char *tb_places_raised[] = {
/* columns rows colors chars-per-pixel */
"23 21 12 1",
"  c Black",
". c #222222",
"X c #333366",
"o c #6666cc",
"O c Green",
"+ c Cyan",
"@ c Magenta",
"# c #808080",
"$ c #9999ff",
"% c #c0c0c0",
"& c Gray100",
"* c None",
/* pixels */
"***********************",
"*******$ooX******Xooo.*",
"*******&&oX*******X+.**",
"********$oX********.***",
"*****$&$Xo ************",
"****$&$XXo ************",
"***$&$oXXo ************",
"**$&$ooXXo ************",
"*$&%$ooX oXXXooooooo***",
"*$&%$ooX $%&&&&&&&&&X**",
"*$&%ooo $oO%O%O%O%O%%X*",
"*$&%$oX$$o%%$%$%$%$%$X*",
"*$ooXXo%$o%$%$%$%$%$$X*",
"******o%$o$$$$$$$$$$X**",
"******o&$  ...XXXXXX***",
"******o&$. ************",
"******o&$X.#X.XXoooo##*",
"******o&$X.X..XoXo###**",
"******o*$XX#o#*********",
"******o*$X##***********",
"***********************"
};

/* -*- Mode: xpm; tab-width: 4; indent-tabs-mode: nil; c-basic-offset: 2 -*-
 *
 * The contents of this file are subject to the Netscape Public License
 * Version 1.0 (the "NPL"); you may not use this file except in
 * compliance with the NPL.  You may obtain a copy of the NPL at
 * http://www.mozilla.org/NPL/
 *
 * Software distributed under the NPL is distributed on an "AS IS" basis,
 * WITHOUT WARRANTY OF ANY KIND, either express or implied. See the NPL
 * for the specific language governing rights and limitations under the
 * NPL.
 *
 * The Initial Developer of this code under the NPL is Netscape
 * Communications Corporation.  Portions created by Netscape are
 * Copyright (C) 1998 Netscape Communications Corporation.  All Rights
 * Reserved.
 */
/*-----------------------------------------*/
