/* XPM */
static char *tb_places_armed[] = {
/* columns rows colors chars-per-pixel */
"23 21 9 1",
"  c Black",
". c #222222",
"X c #333366",
"o c #6666cc",
"O c #429aa7",
"+ c Magenta",
"@ c #9999ff",
"# c #c0c0c0",
"$ c None",
/* pixels */
"$$$$$$$$$$$$$$$$$$$$$$$",
"$$$$$$$$$$$$$$$$$$$$$$$",
"$$$$$$$@oXXX$$$$$$X...X",
"$$$$$$$@#@XX$$$$$$$X.X$",
"$$$$$$$@@XX $$$$$$$$X$$",
"$$$$$$@@XXX $$$$$$$$$$$",
"$$$$$@@XX X $$$$$$$$$$$",
"$$$$@@XoX X $$$$$$$$$$$",
"$$$@@ooXX X $$$$$$$$$$$",
"$$@#@oXoX XXXXXXXXooo$$",
"$$@#@ooXX @@@@@@@@@@@X$",
"$$@#@oXo oXoOoOoOoOoO@X",
"$$@@ooo @oX@o@o@o@o@o@X",
"$$oXX  o@oXo@o@o@o@o@oX",
"$$$$$$$o@oX@o@o@o@o@oX$",
"$$$$$$$o@o        XXX$$",
"$$$$$$$o@o  $$$$$$$$$$$",
"$$$$$$$o@o  $$$$$$$$$$$",
"$$$$$$$o@o X$$$$$$$$$$$",
"$$$$$$$o@o X$$$$$$$$$$$",
"$$$$$$$o@oX$$$$$$$$$$$$"
};

/* -*- Mode: xpm; tab-width: 4; indent-tabs-mode: nil; c-basic-offset: 2 -*-
 *
 * The contents of this file are subject to the Netscape Public License
 * Version 1.0 (the "NPL"); you may not use this file except in
 * compliance with the NPL.  You may obtain a copy of the NPL at
 * http://www.mozilla.org/NPL/
 *
 * Software distributed under the NPL is distributed on an "AS IS" basis,
 * WITHOUT WARRANTY OF ANY KIND, either express or implied. See the NPL
 * for the specific language governing rights and limitations under the
 * NPL.
 *
 * The Initial Developer of this code under the NPL is Netscape
 * Communications Corporation.  Portions created by Netscape are
 * Copyright (C) 1998 Netscape Communications Corporation.  All Rights
 * Reserved.
 */
/*-----------------------------------------*/
