/* XPM */
static char *tb_reload_armed[] = {
/* columns rows colors chars-per-pixel */
"23 21 8 1",
"  c #222222",
". c #333366",
"X c #000080",
"o c #6666cc",
"O c Magenta",
"+ c #9999ff",
"@ c #c0c0c0",
"# c None",
/* pixels */
"#######################",
"#######################",
"########oooooooo.######",
"#######o+o+o+oo.X..####",
"######o+++o+oo.  X..###",
"##o+++@++o+o+ooooo  .##",
"###o+@++++o+o++o.. ..##",
"####o+@+++++++o..XX..##",
"#####o+@+++++o..XXX..##",
"######o+@++@o .XXXX..##",
"#######o+@@o...XXXX..##",
"########o+o..#.XXXX..##",
"#########...##.XXX ..##",
"##############.XXX ..##",
"######ooooooooooX  ..##",
"######+++++++++o X ..##",
"######++o+o+o+oo   ..##",
"######+o+o+o+o+oo .o.##",
"######+oooooooooooo.o##",
"#######+oo.....X...o###",
"#######################"
};

/* -*- Mode: xpm; tab-width: 4; indent-tabs-mode: nil; c-basic-offset: 2 -*-
 *
 * The contents of this file are subject to the Netscape Public License
 * Version 1.0 (the "NPL"); you may not use this file except in
 * compliance with the NPL.  You may obtain a copy of the NPL at
 * http://www.mozilla.org/NPL/
 *
 * Software distributed under the NPL is distributed on an "AS IS" basis,
 * WITHOUT WARRANTY OF ANY KIND, either express or implied. See the NPL
 * for the specific language governing rights and limitations under the
 * NPL.
 *
 * The Initial Developer of this code under the NPL is Netscape
 * Communications Corporation.  Portions created by Netscape are
 * Copyright (C) 1998 Netscape Communications Corporation.  All Rights
 * Reserved.
 */
/*-----------------------------------------*/
