/* XPM */
static char *tb_stop_raised[] = {
/* columns rows colors chars-per-pixel */
"23 21 15 1",
"  c Black",
". c #222222",
"X c #333366",
"o c #6666cc",
"O c #800000",
"+ c Red",
"@ c #ff6633",
"# c Magenta",
"$ c #ff66cc",
"% c Yellow",
"& c #808080",
"* c #9999ff",
"= c #c0c0c0",
"- c Gray100",
"; c None",
/* pixels */
";;;;;oooooooooXo&;;;;;;",
";;;;o*=*******-XX;;;;;;",
";;X;o=-=X X&=*-oXX X;;;",
";;X-o-=O+OO &*-X** X;;;",
";;;Xo-;%@++O *-o* O ;;;",
";;;Xo-;$;@+O *-o=O+;;;;",
";;;;o-;;;++O *-&XOO;;;;",
";;;;o-O;;+OO.*-oooO;;;;",
";;X&o-*OOO..**-XXXXX;;;",
";;X=o-*X   XX*-o** X;;;",
";;;Xo-@&&XX X*-*o XX;;;",
";;;;o-o&ooX.X*-*=XX;;;;",
";;;;o-o&&Xo.o*-oXXX;;;;",
";;X;o-*&XXXo**-oXXX ;;;",
";;X*o-&oX  .&*-X** X;;;",
";;&Xo-o.X . X*-** XX;;;",
";;;Xo-oXXX.  *-&&XX&oo;",
";;;;o-oXXXX. *-&XXXoo&;",
";;;;o***XX X&*-oXXoo&;;",
";;;;;;XX*oooooXoXoo&;;;",
";;;;;;;;;;;;;;;;;;;;;;;"
};

/* -*- Mode: xpm; tab-width: 4; indent-tabs-mode: nil; c-basic-offset: 2 -*-
 *
 * The contents of this file are subject to the Netscape Public License
 * Version 1.0 (the "NPL"); you may not use this file except in
 * compliance with the NPL.  You may obtain a copy of the NPL at
 * http://www.mozilla.org/NPL/
 *
 * Software distributed under the NPL is distributed on an "AS IS" basis,
 * WITHOUT WARRANTY OF ANY KIND, either express or implied. See the NPL
 * for the specific language governing rights and limitations under the
 * NPL.
 *
 * The Initial Developer of this code under the NPL is Netscape
 * Communications Corporation.  Portions created by Netscape are
 * Copyright (C) 1998 Netscape Communications Corporation.  All Rights
 * Reserved.
 */
/*-----------------------------------------*/
