/* XPM */
static char *tb_search[] = {
/* columns rows colors chars-per-pixel */
"23 21 10 1",
"  c #222222",
". c #333366",
"X c #6666cc",
"o c Magenta",
"O c Yellow",
"+ c #808080",
"@ c #9999ff",
"# c #c0c0c0",
"$ c Gray100",
"% c None",
/* pixels */
"%%%%%%%%%%%%%%%%%%%%%%%",
"%%%%%%%%%%%%%%%%%%%%%%%",
"%%%%%%%%%%%%$%$%$%%%%%%",
"%%%%%%%%%%%$%$%$%$%$%%%",
"%%%%%%%%%%$%$$$$$$$#$%%",
"%%%%%%%%%$%$$$$$$$#OO%%",
"%%%%%%%%%%$$$$O$$$OO#$%",
"%%%%%%%%%$####OOO$O#$%%",
"%%%%%%%%%@XXXX@OOO$$#$%",
"%%%%%%%%%X@#XX @O$$$$%%",
"%%%%%%%%X@#@XX. #O$O#$%",
"%%%%%..% XXX..X.#$O$$%%",
"%%%% %XX##....X.#OO%$%%",
"%%%%XX@##@. . .X#$%$%$%",
"%%%X@##@XX.  .X+$%$%$%%",
"%XX##@XXX. X+++%%@+@+@%",
"X@#@XXX. X%%%%%@X+++++%",
"..XXX. X%%%%@XXXXXX++@%",
"X..X.X++%@+XXX++@%%%%%%",
"@ . +++++++@%%%%%%%%%%%",
"%%%%%%%%%%%%%%%%%%%%%%%"
};

/* -*- Mode: xpm; tab-width: 4; indent-tabs-mode: nil; c-basic-offset: 2 -*-
 *
 * The contents of this file are subject to the Netscape Public
 * License Version 1.1 (the "License"); you may not use this file
 * except in compliance with the License. You may obtain a copy of
 * the License at http://www.mozilla.org/NPL/
 *
 * Software distributed under the License is distributed on an "AS
 * IS" basis, WITHOUT WARRANTY OF ANY KIND, either express or
 * implied. See the License for the specific language governing
 * rights and limitations under the License.
 *
 * The Original Code is mozilla.org code.
 *
 * The Initial Developer of the Original Code is Netscape
 * Communications Corporation.  Portions created by Netscape are
 * Copyright (C) 1998 Netscape Communications Corporation. All
 * Rights Reserved.
 *
 * Contributor(s): 
 */
/*-----------------------------------------*/
