/* XPM */
static char *tb_stop_armed[] = {
/* columns rows colors chars-per-pixel */
"23 21 11 1",
"  c Black",
". c #222222",
"X c #333366",
"o c #6666cc",
"O c #800000",
"+ c Red",
"@ c Magenta",
"# c #808080",
"$ c #9999ff",
"% c #c0c0c0",
"& c None",
/* pixels */
"&&&&&&&&&&&&&&&&&&&&&&&",
"&&&&&&ooooooooooo#&&&&&",
"&&&&&$##$#$#$#$#oX&&&&&",
"&&&X$o$$#X X#%#$#   X&&",
"&&&Xoo%#XOOX #$$Xoo X&&",
"&&&&Xo%OOOOXX #$XX O &&",
"&&&&Xo%OO+OOX $$ooOO&&&",
"&&&&&o%O+O+OX #$#XOO&&&",
"&&&&&o%$O+O. .$$oXoO&&&",
"&&&X#o%$$....$#$XXXXX&&",
"&&&Xoo%$    #X$$o#o X&&",
"&&&&Xo%#XXX. X#$#o XX&&",
"&&&&&o% ##XX. $$ooXX&&&",
"&&&&&o% ##XX.X#$XXXX&&&",
"&&&X$o%$#XXXXo#$XXXX &&",
"&&&Xoo%#    .#$$X#o X&&",
"&&&#Xo% .... X#$oo XX&&",
"&&&&Xo% XXX.X $$o#XX&&&",
"&&&&&o%%XX.X. #$oXXX&&&",
"&&&&&o$$$...X#$#o.&&&&&",
"&&&&&&&XXXoooooXo &&&&&"
};

/* -*- Mode: xpm; tab-width: 4; indent-tabs-mode: nil; c-basic-offset: 2 -*-
 *
 * The contents of this file are subject to the Netscape Public License
 * Version 1.0 (the "NPL"); you may not use this file except in
 * compliance with the NPL.  You may obtain a copy of the NPL at
 * http://www.mozilla.org/NPL/
 *
 * Software distributed under the NPL is distributed on an "AS IS" basis,
 * WITHOUT WARRANTY OF ANY KIND, either express or implied. See the NPL
 * for the specific language governing rights and limitations under the
 * NPL.
 *
 * The Initial Developer of this code under the NPL is Netscape
 * Communications Corporation.  Portions created by Netscape are
 * Copyright (C) 1998 Netscape Communications Corporation.  All Rights
 * Reserved.
 */
/*-----------------------------------------*/
