/* XPM */
static char *tb_search_raised[] = {
/* columns rows colors chars-per-pixel */
"23 21 11 1",
"  c #222222",
". c #333366",
"X c #6666cc",
"o c #ff6633",
"O c Magenta",
"+ c Yellow",
"@ c #808080",
"# c #9999ff",
"$ c #c0c0c0",
"% c Gray100",
"& c None",
/* pixels */
"&&&&&&&&&&&&&&&&&&&&&&&",
"&&&&&&&&&&&&&&&&&&&&&&&",
"&&&&&&&&&&&&%&%&%&&&&&&",
"&&&&&&&&&&&+$%+%$%&+&&&",
"&&&&&&&&&&%$+%%%+%%$%&&",
"&&&&&&&&&%$%%+++%+%++&&",
"&&&&&&&&&&%+++o+o+++$%&",
"&&&&&&&&&@$$$$+o+o+%%&&",
"&&&&&&&&&#XXXX#+@+++%+&",
"&&&&&&&&&X#%X. #+o+%+&&",
"&&&&&&&&X#%#XX.X$+++%%&",
"&&&&&..& XXX..X.$++%+&&",
"&&&&X&.X#$X..XX.$++%%&&",
"&&&&.X#%$X. . .X$%$+$+&",
"&&&.#%%#XX.  .X@%$%$%&&",
"&.X%%#XXX. X@@@&#@@#@#&",
"X#%#XXX. X&&&&&&X@@@@@&",
". XXX. X&&&&#X.X.XX@@#&",
"X. X X@&&#XXX.X@#&&&&&&",
"# . @@@@@@@#&&&&&&&&&&&",
"&&&&&&&&&&&&&&&&&&&&&&&"
};

/* -*- Mode: xpm; tab-width: 4; indent-tabs-mode: nil; c-basic-offset: 2 -*-
 *
 * The contents of this file are subject to the Netscape Public License
 * Version 1.0 (the "NPL"); you may not use this file except in
 * compliance with the NPL.  You may obtain a copy of the NPL at
 * http://www.mozilla.org/NPL/
 *
 * Software distributed under the NPL is distributed on an "AS IS" basis,
 * WITHOUT WARRANTY OF ANY KIND, either express or implied. See the NPL
 * for the specific language governing rights and limitations under the
 * NPL.
 *
 * The Initial Developer of this code under the NPL is Netscape
 * Communications Corporation.  Portions created by Netscape are
 * Copyright (C) 1998 Netscape Communications Corporation.  All Rights
 * Reserved.
 */
/*-----------------------------------------*/
