/* XPM */
static char *tb_stop[] = {
/* columns rows colors chars-per-pixel */
"23 21 11 1",
"  c Black",
". c #222222",
"X c #333366",
"o c #6666cc",
"O c #800000",
"+ c Red",
"@ c Magenta",
"# c #808080",
"$ c #9999ff",
"% c #c0c0c0",
"& c None",
/* pixels */
"&&&&&ooooooooooo#&&&&&&",
"&&&&$##$#$#$#$#oX&&&&&&",
"&&X$o$$#X X#%#%#   X&&&",
"&&X%o%#OOOO #$%X#o X&&&",
"&&&Xo%OO+OOX #%#o O &&&",
"&&&Xo%&+++OX $%o%OO&&&&",
"&&&&o%&&++OX #%#XOO&&&&",
"&&&&o%$&+O. .$%oX%O&&&&",
"&&X#o%$$....o#%XXXXX&&&",
"&&X$o%$    oX$%o#o X&&&",
"&&&Xo%#XXooXX#%#o XX&&&",
"&&&&o% ##XXXX$%o%XX&&&&",
"&&&&o% ##XX.##%#XXX&&&&",
"&&X$o%$#XXXX$#%#XXX &&&",
"&&X$o%#    .#$%X#o X&&&",
"&&#Xo% .... X#%oo XX&&&",
"&&&Xo% XXX.X $%o#XX&&&&",
"&&&&o%%XX.X. #%oXXX###&",
"&&&&o$$$...X#$#o.####&&",
"&&&&&&XXXoooooXo ###&&&",
"&&&&&&&&&&&&&&&&&&&&&&&"
};

/* -*- Mode: xpm; tab-width: 4; indent-tabs-mode: nil; c-basic-offset: 2 -*-
 *
 * The contents of this file are subject to the Netscape Public
 * License Version 1.1 (the "License"); you may not use this file
 * except in compliance with the License. You may obtain a copy of
 * the License at http://www.mozilla.org/NPL/
 *
 * Software distributed under the License is distributed on an "AS
 * IS" basis, WITHOUT WARRANTY OF ANY KIND, either express or
 * implied. See the License for the specific language governing
 * rights and limitations under the License.
 *
 * The Original Code is mozilla.org code.
 *
 * The Initial Developer of the Original Code is Netscape
 * Communications Corporation.  Portions created by Netscape are
 * Copyright (C) 1998 Netscape Communications Corporation. All
 * Rights Reserved.
 *
 * Contributor(s): 
 */
/*-----------------------------------------*/
