/* XPM */
static char *tb_secure_raised[] = {
/* columns rows colors chars-per-pixel */
"23 21 13 1",
"  c Black",
". c #222222",
"X c #333366",
"o c #000080",
"O c Blue",
"+ c #6666cc",
"@ c Magenta",
"# c Yellow",
"$ c #808080",
"% c #9999ff",
"& c #c0c0c0",
"* c Gray100",
"= c None",
/* pixels */
"=======================",
"==*=*=########=*==*====",
"=*=#**#+++++O#=#=*=====",
"==#*##+***&&+X#*#===*==",
"=**##+*&ooo&%+X#*#=#===",
"==#*#O*.#==O*+.##*#====",
"=**##O*.#==o&+.###=#===",
"=*###O&.###o&+.####====",
"=*##.O%+$+XX%+.X##=*=#=",
"=*#+%+XX%%%%.X+X ##=#==",
"=##+&&*****&&%+X ###===",
"=*#O&*++++++OOXX ##=#==",
"=##O&*****&&&%+X ###===",
"#=#O&*++++++OOXX ##=#==",
"=##O&****&&&&%+X ###===",
"#=#O&*+++++OOOXX ..$$$=",
"=##O&*****&&&%+X .++$==",
"==#+%%%%%%%%%%+o $#====",
"=*##+oXXXXX.X.  ###====",
"===#############=*=====",
"==*=*#*#*#*##=*=*======"
};

/* -*- Mode: xpm; tab-width: 4; indent-tabs-mode: nil; c-basic-offset: 2 -*-
 *
 * The contents of this file are subject to the Netscape Public
 * License Version 1.1 (the "License"); you may not use this file
 * except in compliance with the License. You may obtain a copy of
 * the License at http://www.mozilla.org/NPL/
 *
 * Software distributed under the License is distributed on an "AS
 * IS" basis, WITHOUT WARRANTY OF ANY KIND, either express or
 * implied. See the License for the specific language governing
 * rights and limitations under the License.
 *
 * The Original Code is mozilla.org code.
 *
 * The Initial Developer of the Original Code is Netscape
 * Communications Corporation.  Portions created by Netscape are
 * Copyright (C) 1998 Netscape Communications Corporation. All
 * Rights Reserved.
 *
 * Contributor(s): 
 */
/*-----------------------------------------*/
