/* XPM */
static char *tb_unsecure[] = {
/* columns rows colors chars-per-pixel */
"23 21 15 1",
"  c Black",
". c #000080",
"X c Blue",
"o c #6666cc",
"O c #800000",
"+ c #990066",
"@ c #ff6633",
"# c Magenta",
"$ c #ff66cc",
"% c #808000",
"& c #808080",
"* c #9999ff",
"= c #c0c0c0",
"- c Gray100",
"; c None",
/* pixels */
";;;;;;;;;;;;;;;;;;;;;;;",
";;;;;;;;;;;;;;;;;;;;;;;",
";;;;;;;;;;;;;;oOooo*;;;",
";;;;;;;;;;;;;o=-=%%oo;;",
";;;;;;;;;;;;o%%Ooo%$o;;",
";;;;;;;;;;;;o% ;;;o% ;;",
";;;;;;;;;;;;o%O;;;@*O;;",
";;;;;;;;;;;;o%.;;;*  ;;",
";;;;oo*oooooO%oO;;;;;;;",
";;;o.* %%%%o* Oo.;;;;;;",
";;;oX===--==%%o. ;;;;;;",
";;;o%=%%%%%%%oo. ;;;;;;",
";;;o+=++++++++o. ;;;;;;",
";;;o%=%%%%%%%%o. ;;;;;;",
";;;o+=+++++++Oo. &&&&&;",
";;;o%=%%%%%%%%o. ooo&&;",
";;;o+=++++++OOO. &o&;;;",
";;;o%%%%%%%%%%o. &&;;;;",
";;;;ooOOOOO     ;;;;;;;",
";;;;;;;;;;;;;;;;;;;;;;;",
";;;;;;;;;;;;;;;;;;;;;;;"
};

/* -*- Mode: xpm; tab-width: 4; indent-tabs-mode: nil; c-basic-offset: 2 -*-
 *
 * The contents of this file are subject to the Netscape Public
 * License Version 1.1 (the "License"); you may not use this file
 * except in compliance with the License. You may obtain a copy of
 * the License at http://www.mozilla.org/NPL/
 *
 * Software distributed under the License is distributed on an "AS
 * IS" basis, WITHOUT WARRANTY OF ANY KIND, either express or
 * implied. See the License for the specific language governing
 * rights and limitations under the License.
 *
 * The Original Code is mozilla.org code.
 *
 * The Initial Developer of the Original Code is Netscape
 * Communications Corporation.  Portions created by Netscape are
 * Copyright (C) 1998 Netscape Communications Corporation. All
 * Rights Reserved.
 *
 * Contributor(s): 
 */
/*-----------------------------------------*/
