<!-- may be protected as a trademark in some jurisdictions -->
<svg xmlns="http://www.w3.org/2000/svg" width="135" height="40" xml:space="preserve"><path fill="#A6A6A6" d="M130.197 40H4.729A4.74 4.74 0 0 1 0 35.267V4.726A4.733 4.733 0 0 1 4.729 0h125.468C132.803 0 135 2.12 135 4.726v30.541c0 2.605-2.197 4.733-4.803 4.733z"/><path d="M134.032 35.268a3.83 3.83 0 0 1-3.834 3.83H4.729a3.835 3.835 0 0 1-3.839-3.83V4.725A3.84 3.84 0 0 1 4.729.89h125.468a3.834 3.834 0 0 1 3.834 3.835l.001 30.543z"/><g fill="#FFF"><path d="M30.128 19.784c-.029-3.223 2.639-4.791 2.761-4.864-1.511-2.203-3.853-2.504-4.676-2.528-1.967-.207-3.875 1.177-4.877 1.177-1.022 0-2.565-1.157-4.228-1.123-2.14.033-4.142 1.272-5.24 3.196-2.266 3.923-.576 9.688 1.595 12.859 1.086 1.553 2.355 3.287 4.016 3.226 1.625-.067 2.232-1.036 4.193-1.036 1.943 0 2.513 1.036 4.207.997 1.744-.028 2.842-1.56 3.89-3.127 1.255-1.78 1.759-3.533 1.779-3.623-.041-.014-3.387-1.291-3.42-5.154zM26.928 10.306c.874-1.093 1.472-2.58 1.306-4.089-1.265.056-2.847.875-3.758 1.944-.806.942-1.526 2.486-1.34 3.938 1.421.106 2.88-.717 3.792-1.793z"/></g><g fill="#FFF"><path d="M53.645 31.504h-2.271l-1.244-3.909h-4.324l-1.185 3.909H42.41l4.284-13.308h2.646l4.305 13.308zm-3.89-5.549L48.63 22.48c-.119-.355-.342-1.191-.671-2.507h-.04a96.75 96.75 0 0 1-.632 2.507l-1.105 3.475h3.573zM64.662 26.588c0 1.632-.441 2.922-1.323 3.869-.79.843-1.771 1.264-2.942 1.264-1.264 0-2.172-.454-2.725-1.362h-.04v5.055H55.5V25.067c0-1.026-.027-2.079-.079-3.159h1.875l.119 1.521h.04c.711-1.146 1.79-1.718 3.238-1.718 1.132 0 2.077.447 2.833 1.342.758.896 1.136 2.074 1.136 3.535zm-2.172.078c0-.934-.21-1.704-.632-2.31-.461-.632-1.08-.948-1.856-.948-.526 0-1.004.176-1.431.523-.428.35-.708.807-.839 1.373-.066.264-.099.48-.099.65v1.6c0 .698.214 1.287.642 1.768s.984.721 1.668.721c.803 0 1.428-.31 1.875-.928.448-.619.672-1.435.672-2.449zM75.699 26.588c0 1.632-.441 2.922-1.324 3.869-.789.843-1.77 1.264-2.941 1.264-1.264 0-2.172-.454-2.724-1.362h-.04v5.055h-2.132V25.067c0-1.026-.027-2.079-.079-3.159h1.875l.119 1.521h.04c.71-1.146 1.789-1.718 3.238-1.718 1.131 0 2.076.447 2.834 1.342.755.896 1.134 2.074 1.134 3.535zm-2.172.078c0-.934-.211-1.704-.633-2.31-.461-.632-1.078-.948-1.855-.948a2.22 2.22 0 0 0-1.432.523c-.428.35-.707.807-.838 1.373-.065.264-.099.48-.099.65v1.6c0 .698.214 1.287.64 1.768.428.48.984.721 1.67.721.803 0 1.428-.31 1.875-.928.448-.619.672-1.435.672-2.449zM88.039 27.772c0 1.132-.393 2.053-1.182 2.764-.867.777-2.074 1.165-3.625 1.165-1.432 0-2.58-.276-3.449-.829l.494-1.777c.936.566 1.963.85 3.082.85.803 0 1.428-.182 1.877-.544.447-.362.67-.848.67-1.454 0-.54-.184-.995-.553-1.364-.367-.369-.98-.712-1.836-1.029-2.33-.869-3.494-2.142-3.494-3.816 0-1.094.408-1.991 1.225-2.689.814-.699 1.9-1.048 3.258-1.048 1.211 0 2.217.211 3.02.632l-.533 1.738c-.75-.408-1.598-.612-2.547-.612-.75 0-1.336.185-1.756.553a1.58 1.58 0 0 0-.533 1.205c0 .526.203.961.611 1.303.355.316 1 .658 1.936 1.027 1.145.461 1.986 1 2.527 1.618.539.616.808 1.387.808 2.307zM95.088 23.508h-2.35v4.659c0 1.185.414 1.777 1.244 1.777.381 0 .697-.033.947-.099l.059 1.619c-.42.157-.973.236-1.658.236-.842 0-1.5-.257-1.975-.77-.473-.514-.711-1.376-.711-2.587v-4.837h-1.4v-1.6h1.4v-1.757l2.094-.632v2.389h2.35v1.602zM105.691 26.627c0 1.475-.422 2.686-1.264 3.633-.883.975-2.055 1.461-3.516 1.461-1.408 0-2.529-.467-3.365-1.401s-1.254-2.113-1.254-3.534c0-1.487.43-2.705 1.293-3.652.861-.948 2.023-1.422 3.484-1.422 1.408 0 2.541.467 3.396 1.402.818.907 1.226 2.078 1.226 3.513zm-2.212.069c0-.885-.189-1.644-.572-2.277-.447-.766-1.086-1.148-1.914-1.148-.857 0-1.508.383-1.955 1.148-.383.634-.572 1.405-.572 2.317 0 .885.189 1.644.572 2.276.461.766 1.105 1.148 1.936 1.148.814 0 1.453-.39 1.914-1.168.393-.645.591-1.412.591-2.296zM112.621 23.783a3.702 3.702 0 0 0-.672-.059c-.75 0-1.33.283-1.738.85-.355.5-.533 1.132-.533 1.895v5.035h-2.131l.02-6.574c0-1.106-.027-2.113-.08-3.021h1.857l.078 1.836h.059c.225-.631.58-1.139 1.066-1.52a2.578 2.578 0 0 1 1.541-.514c.197 0 .375.014.533.039v2.033zM122.156 26.252a5 5 0 0 1-.078.967h-6.396c.025.948.334 1.673.928 2.173.539.447 1.236.671 2.092.671.947 0 1.811-.151 2.588-.454l.334 1.48c-.908.396-1.98.593-3.217.593-1.488 0-2.656-.438-3.506-1.313-.848-.875-1.273-2.05-1.273-3.524 0-1.447.395-2.652 1.186-3.613.828-1.026 1.947-1.539 3.355-1.539 1.383 0 2.43.513 3.141 1.539.563.815.846 1.823.846 3.02zm-2.033-.553c.014-.632-.125-1.178-.414-1.639-.369-.593-.936-.889-1.699-.889-.697 0-1.264.289-1.697.869-.355.461-.566 1.014-.631 1.658h4.441z"/></g><g fill="#FFF"><path d="M48.71 13.433h-1.115l-.611-1.92H44.86l-.582 1.92h-1.086l2.104-6.538h1.3l2.114 6.538zm-1.91-2.725L46.247 9a22.123 22.123 0 0 1-.329-1.232h-.02A48.66 48.66 0 0 1 45.587 9l-.543 1.708H46.8zM52.523 9.504h-1.154v2.29c0 .582.204.873.611.873.188 0 .343-.016.466-.049l.028.795c-.207.078-.479.117-.814.117-.414 0-.737-.126-.97-.378-.233-.252-.35-.676-.35-1.271V9.504h-.688v-.785h.688v-.864l1.028-.31v1.173h1.154v.786zM56.858 12.079c0 .438-.161.79-.484 1.055s-.77.397-1.339.397c-.537 0-.992-.107-1.367-.32l.223-.776c.362.22.747.33 1.154.33.537 0 .805-.197.805-.592a.58.58 0 0 0-.174-.432c-.117-.113-.324-.225-.621-.334-.841-.311-1.261-.763-1.261-1.358a1.3 1.3 0 0 1 .465-1.019c.311-.271.722-.407 1.232-.407.466 0 .863.095 1.193.285l-.224.752a1.848 1.848 0 0 0-.96-.271c-.22 0-.392.052-.515.155a.498.498 0 0 0-.184.397c0 .161.064.293.193.396.11.097.323.203.641.319.816.31 1.223.784 1.223 1.423zM59.584 7.312a.603.603 0 0 1-.184.456.661.661 0 0 1-.476.175.611.611 0 0 1-.621-.63c0-.181.062-.33.185-.446s.274-.175.456-.175a.64.64 0 0 1 .456.175.582.582 0 0 1 .184.445zm-.116 6.121H58.42V8.719h1.048v4.714zM64.21 12.079c0 .438-.161.79-.484 1.055s-.77.397-1.339.397c-.537 0-.992-.107-1.367-.32l.223-.776c.362.22.747.33 1.154.33.537 0 .805-.197.805-.592a.58.58 0 0 0-.174-.432c-.117-.113-.324-.225-.621-.334-.841-.311-1.261-.763-1.261-1.358a1.3 1.3 0 0 1 .465-1.019c.311-.271.722-.407 1.232-.407.466 0 .863.095 1.193.285l-.223.752a1.848 1.848 0 0 0-.96-.271c-.22 0-.392.052-.515.155a.498.498 0 0 0-.184.397c0 .161.064.293.193.396.11.097.323.203.641.319.815.31 1.222.784 1.222 1.423zM66.936 7.312a.603.603 0 0 1-.184.456.661.661 0 0 1-.476.175.611.611 0 0 1-.621-.63c0-.181.062-.33.185-.446s.274-.175.456-.175a.64.64 0 0 1 .456.175.582.582 0 0 1 .184.445zm-.116 6.121h-1.048V8.719h1.048v4.714zM72.756 13.433l-.301-.02c-.033.052-.066.108-.102.17s-.07.131-.102.208a2.359 2.359 0 0 0-.084.228.905.905 0 0 0-.033.247.477.477 0 0 0 .494.524c.092 0 .174-.008.248-.024a.908.908 0 0 0 .189-.063l.154.524a1.073 1.073 0 0 1-.402.185 1.845 1.845 0 0 1-.441.058c-.291 0-.523-.075-.697-.223-.176-.149-.264-.372-.264-.669 0-.116.018-.238.049-.364a2.267 2.267 0 0 1 .242-.592c.047-.081.088-.15.127-.208l-.059-.698h-.02c-.33.55-.828.825-1.494.825-.465 0-.836-.146-1.115-.437-.33-.356-.494-.893-.494-1.61V8.719h1.046v2.6c0 .906.311 1.358.932 1.358.467 0 .789-.226.971-.679.045-.116.068-.249.068-.398V8.719h1.047v3.356c.002.446.015.899.041 1.358zM77.461 12.079c0 .438-.162.79-.484 1.055-.324.265-.77.397-1.34.397-.537 0-.992-.107-1.367-.32l.223-.776c.363.22.748.33 1.154.33.537 0 .805-.197.805-.592a.577.577 0 0 0-.174-.432c-.117-.113-.324-.225-.621-.334-.84-.311-1.26-.763-1.26-1.358 0-.407.154-.747.465-1.019s.721-.407 1.232-.407c.465 0 .863.095 1.193.285l-.225.752a1.841 1.841 0 0 0-.959-.271c-.221 0-.393.052-.516.155a.5.5 0 0 0-.184.397c0 .161.064.293.193.396.111.097.324.203.641.319.816.31 1.224.784 1.224 1.423zM83.174 13.433h-1.279l-1.428-2.153-.396.485v1.668h-1.049V6.556h1.049v4.268h.02c.129-.207.256-.388.377-.543l1.213-1.562h1.252l-1.736 1.94 1.977 2.774zM85.434 7.312a.603.603 0 0 1-.184.456.662.662 0 0 1-.477.175.614.614 0 0 1-.621-.63c0-.181.062-.33.186-.446s.273-.175.455-.175.334.059.457.175a.59.59 0 0 1 .184.445zm-.118 6.121H84.27V8.719h1.047v4.714zM89.555 9.504H88.4v2.29c0 .582.205.873.611.873.188 0 .344-.016.467-.049l.027.795c-.207.078-.479.117-.814.117-.414 0-.736-.126-.969-.378-.234-.252-.35-.676-.35-1.271V9.504h-.689v-.785h.689v-.864l1.027-.31v1.173h1.154v.786zM94.891 10.853c0 .188-.014.346-.039.475h-3.143c.014.466.164.821.455 1.067.266.22.609.33 1.029.33.465 0 .889-.074 1.271-.223l.164.728c-.447.194-.973.291-1.582.291-.73 0-1.305-.215-1.721-.645-.418-.43-.625-1.007-.625-1.731 0-.711.193-1.303.582-1.775.406-.504.955-.756 1.648-.756.678 0 1.193.252 1.541.756.281.4.42.895.42 1.483zm-1-.271a1.411 1.411 0 0 0-.203-.805c-.182-.291-.459-.437-.834-.437a.995.995 0 0 0-.834.427 1.586 1.586 0 0 0-.311.815h2.182zM100.408 7.312a.599.599 0 0 1-.184.456.66.66 0 0 1-.475.175.598.598 0 0 1-.441-.179c-.121-.12-.18-.27-.18-.451s.061-.33.184-.446.275-.175.457-.175c.18 0 .332.059.455.175s.184.264.184.445zm-.115 6.121h-1.049V8.719h1.049v4.714zM105.035 12.079c0 .438-.162.79-.484 1.055-.324.265-.77.397-1.34.397-.537 0-.992-.107-1.367-.32l.223-.776c.363.22.748.33 1.154.33.537 0 .805-.197.805-.592a.577.577 0 0 0-.174-.432c-.117-.113-.324-.225-.621-.334-.84-.311-1.26-.763-1.26-1.358 0-.407.154-.747.465-1.019s.721-.407 1.232-.407c.465 0 .863.095 1.193.285l-.225.753a1.841 1.841 0 0 0-.959-.271c-.221 0-.393.052-.516.155a.5.5 0 0 0-.184.397c0 .161.064.293.193.396.111.097.324.203.641.319.816.309 1.224.783 1.224 1.422zm-1.92-4-.941-1.416h.756l.543.902h.02l.553-.902h.738l-.932 1.416h-.737z"/></g></svg>
