/* XPM */
static char *addressbookWindow.xpm[] = {
/* columns rows colors chars-per-pixel */
"16 16 56 1",
"  c opaque",
". c #161a25",
"X c #202d23",
"o c #333640",
"O c #253f75",
"+ c #494420",
"@ c #40691f",
"# c #7c6e1c",
"$ c #6d6f73",
"% c #777777",
"& c #7b7b75",
"* c #757b83",
"= c #7d818a",
"- c #92c95b",
"; c #d7bf3c",
": c #d3c15e",
"> c #81858d",
", c #828883",
"< c #868990",
"1 c #8a8c92",
"2 c #94aabf",
"3 c #98a7b5",
"4 c #a0a2a4",
"5 c #a7a8ac",
"6 c #aaaaaa",
"7 c #abb2b8",
"8 c #839bcb",
"9 c #879fd0",
"0 c #99aec1",
"q c #9eb2c5",
"w c #a0b4c6",
"e c #a3b6c8",
"r c #a5b8c9",
"t c #adb7c1",
"y c #aabccc",
"u c #b0bcc7",
"i c #afc0cf",
"p c #b2c0cc",
"a c #b3c3d2",
"s c #b8c6d3",
"d c #bbc9d6",
"f c #bdcbd8",
"g c #c1ceda",
"h c #c4d1dc",
"j c #c9d4dd",
"k c #dddddd",
"l c #cbd6e0",
"z c #cdd9e2",
"x c #d2dce4",
"c c #d7e0e8",
"v c #e4eaef",
"b c #e9ebed",
"n c #e7ecf1",
"m c #eceff1",
"M c #fefefe",
"N c None",
/* pixels */
"NNNNNNNNNNNNNNNN",
"NNNNNNNNNNNNNNNN",
"NN..............",
"NN.Mnczxxxzc5...",
"N<.<=*xxxzjhm-@.",
"NN.bnxxxzjhfx-@.",
"N1.<=*xzjggsj,X.",
"NN.bnxzjgfsps9O.",
"N1o<=*lfdsayp8O.",
"NN.Mnlfdsiyey&..",
"N1X1>=ssiyeqt:#.",
"NN.*nhsyyeqq7;#.",
"N1o<>=yyeq024++.",
"NN.Mnsyeq023$...",
"NN.............N",
"NNNNNNNNNNNNNNNN"
};
