/* XPM */
static char *addressbookWindow.xpm[] = {
/* columns rows colors chars-per-pixel */
"32 32 168 2",
"   c #000001",
".  c #050509",
"X  c #07090d",
"o  c #08090e",
"O  c #0a0c12",
"+  c #0e1119",
"@  c #10131b",
"#  c #131721",
"$  c #151a25",
"%  c #181d2a",
"&  c #1b202c",
"*  c #1d2332",
"=  c #222222",
"-  c #21262c",
";  c #23282f",
":  c #222732",
">  c #22293a",
",  c #282d38",
"<  c #31353f",
"1  c #000b50",
"2  c #1c2841",
"3  c #252d41",
"4  c #23314e",
"5  c #293143",
"6  c #2b344a",
"7  c #2f3951",
"8  c #313b53",
"9  c #343f59",
"0  c #2e4038",
"q  c #334c32",
"w  c #37542d",
"e  c #355030",
"r  c #3c414b",
"t  c #36415c",
"y  c #3c455b",
"u  c #394561",
"i  c #3b4865",
"p  c #3d4b69",
"a  c #5f5a2f",
"s  c #605925",
"d  c #776b1f",
"f  c #6c6424",
"g  c #444c5d",
"h  c #494e59",
"j  c #404d6c",
"k  c #435273",
"l  c #465679",
"z  c #495775",
"x  c #4a5877",
"c  c #4a597c",
"v  c #515b6c",
"b  c #4d7249",
"n  c #5a6378",
"m  c #60646d",
"M  c #626772",
"N  c #6b7078",
"B  c #756c6c",
"V  c #707276",
"C  c #2e5b9f",
"Z  c #2f5cb7",
"A  c #305aae",
"S  c #3569d1",
"D  c #3f7efc",
"F  c #4b5c81",
"G  c #606b86",
"H  c #657082",
"J  c #737883",
"K  c #767f92",
"L  c #599b15",
"P  c #5c9d24",
"I  c #5da217",
"U  c #61aa17",
"Y  c #6ab91a",
"T  c #6cae31",
"R  c #70ba25",
"E  c #72b064",
"W  c #4c90b5",
"Q  c #7c828a",
"!  c #7c8a9c",
"~  c #5588ef",
"^  c #578af0",
"/  c #827217",
"(  c #c11730",
")  c #baa010",
"_  c #b3ab7f",
"`  c #8ac053",
"'  c #c4a811",
"]  c #dcbd13",
"[  c #d9bc1a",
"{  c #d7bd2f",
"}  c #d2bc44",
"|  c #c2b467",
" . c #dfc11d",
".. c #e3c314",
"X. c #fff97c",
"o. c #848587",
"O. c #81868d",
"+. c #85888f",
"@. c #858a92",
"#. c #858e98",
"$. c #8a8e95",
"%. c #8f9d81",
"&. c #91959b",
"*. c gray60",
"=. c #8792a0",
"-. c #8797aa",
";. c #839ba0",
":. c #8b94a1",
">. c #8c9daf",
",. c #8d9eb0",
"<. c #9399a2",
"1. c #969fa9",
"2. c #9c9ea1",
"3. c #8da0b4",
"4. c #9ca4ad",
"5. c #96a1b0",
"6. c #92a6b9",
"7. c #94aabf",
"8. c #99adbf",
"9. c #a2a5ae",
"0. c #a6a8ab",
"q. c #aeb2b7",
"w. c #acb3bc",
"e. c #b0aea3",
"r. c #b2b6bc",
"t. c #96abc0",
"y. c #99adc1",
"u. c #9db1c4",
"i. c #a1b4c6",
"p. c #a3b6c8",
"a. c #a5b8c9",
"s. c #a8b8c7",
"d. c #aabccc",
"f. c #b4bac2",
"g. c #b4bec8",
"h. c #b9bec4",
"j. c #a8c58a",
"k. c #b6c5a7",
"l. c #aec0cf",
"z. c #afc1d0",
"x. c #bfc0c2",
"c. c #bdc2c8",
"v. c #b3c3d2",
"b. c #b8c7d5",
"n. c #bac9d6",
"m. c #beccd8",
"M. c #c1b780",
"N. c #c5c8cd",
"B. c #c2cbd4",
"V. c #c0ceda",
"C. c #cfd4ca",
"Z. c #c4d1db",
"A. c #ccd1d6",
"S. c #c8d4de",
"D. c #d2d7dd",
"F. c #d6dadf",
"G. c #dddddd",
"H. c #cad6e0",
"J. c #cdd9e2",
"K. c #d1dce4",
"L. c #dbdde0",
"P. c #dde1e5",
"I. c #dce4ea",
"U. c #e8ebef",
"Y. c #e5eaf0",
"T. c #f7f9fa",
"R. c white",
"E. c None",
/* pixels */
"E.E.E.E.E.E.E.E.E.E.E.E.E.E.E.E.E.E.E.E.E.E.E.E.E.E.E.E.E.E.E.E.",
"E.E.E.E.E.E.E.E.E.E.E.E.E.E.E.E.E.E.E.E.E.E.E.E.E.E.E.E.E.E.E.E.",
"E.E.E.E.E.E.E.E.E.E.E.E.E.E.E.E.E.E.E.E.E.E.E.E.E.E.E.E.E.E.E.E.",
"E.E.E.E.E.E.E.E.E.E.E.E.E.E.E.E.$ $ % % E.E.E.E.E.E.E.E.E.E.E.E.",
"E.E.E.E.E.E.E.E.E.E.E.E.E.E.E.$ $ M & * * E.E.E.E.E.E.E.E.E.E.E.",
"E.E.E.E.E.E.E.E.E.E.E.E.E.@ $ : c.I.w.5 * > E.E.E.E.E.E.E.E.E.E.",
"E.E.E.E.E.E.E.E.E.E.E.E.$ # , Q P.Y.P.g.j , 5 E.E.E.E.E.E.E.E.E.",
"E.E.E.E.E.E.E.E.E.E.$ @ $ h r.Q #.B.J.K.A.v 6 7 E.E.E.E.E.E.E.E.",
"E.E.E.E.E.E.E.E.$ $ $ $ r D.Y.c.Q 4.K.J.H.S.H 7 8 9 E.E.E.E.E.E.",
"E.E.E.E.E.E.E.E.$ $ $ $.@.Q c.K.Z.K.K.H.S.V.n.! 9 t y E.E.E.E.E.",
"E.E.E.E.E.$ $ $ $ % N F.F.@.Q K.K.J.H.S.m.n.v.v.-.j i p E.E.E.E.",
"E.E.E.E.E.$ $ $ r r.o.@.P.m.B.J.J.H.Z.m.n.v.v.d.a.3.z j k E.E.E.",
"E.E.E.@ + @ $ < &.U.N.O.B.K.K.J.H.Z.m.n.v.l.d.a.i.y.6.G k l E.E.",
"E.E.E.O @ $ m h.+.0.I.K.K.K.H.H.Z.n.b.v.l.d.p.u.y.8.f.4.l t E.E.",
"E.E.E.$ $ m $.P.0.:.K.K.J.J.H.Z.n.b.v.d.a.p.u.y.8.5.C.T b o E.E.",
"E.E.E.$ h.G.+.&.K.K.K.K.J.Z.m.n.b.v.z.a.p.u.y.7.6.x.` Y I 7 8 E.",
"E.E.E.% r.T.N.#.Z.K.J.H.S.V.n.v.z.z.a.p.y.y.t.6.q.j.Y Y P 7 * E.",
"E.E.E.* h A.K.K.K.J.H.Z.m.n.v.l.d.a.u.u.t.7.6.4.k.R Y U w % . E.",
"E.E.E.* > J A.K.J.S.Z.m.n.v.v.d.p.u.u.t.t.7.4.h.E Y I e %     E.",
"E.E.E.E., 3 <.S.H.V.m.n.v.z.a.a.u.u.7.7.6.1.h.~ W L q #     E.E.",
"E.E.E.E.E.5 6 w.V.n.n.v.d.d.a.i.u.7.7.6.<.w.^ D C 0 @   . E.E.E.",
"E.E.E.E.E.E.6 y g.n.v.d.a.p.u.y.7.7.,.2.y.^ D S 2 +     E.E.E.E.",
"E.E.E.E.E.E.7 8 n d.d.a.i.u.y.7.6.=.0.M.;.D Z 4 O     E.E.E.E.E.",
"E.E.E.E.E.E.E.9 t K a.p.u.t.7.>.&.e.} ..%.A 4 o   . E.E.E.E.E.E.",
"E.E.E.E.E.E.E.E.i i 5.y.7.3.#.2.|  ...] f 3 X     E.E.E.E.E.E.E.",
"E.E.E.E.E.E.E.E.E.p j :.#.*._ { ....] / - .   E.E.E.E.E.E.E.E.E.",
"E.E.E.E.E.E.E.E.E.p k x o.V [ ....] d : .   E.E.E.E.E.E.E.E.E.E.",
"E.E.E.E.E.E.E.E.E.E.k l c F a ) ' a * .   E.E.E.E.E.E.E.E.E.E.E.",
"E.E.E.E.E.E.E.E.E.E.E.c 8 @ # 6 5 %     E.E.E.E.E.E.E.E.E.E.E.E.",
"E.E.E.E.E.E.E.E.E.E.E.E.E.E.* + o   . E.E.E.E.E.E.E.E.E.E.E.E.E.",
"E.E.E.E.E.E.E.E.E.E.E.E.E.E.E.E.E.E.E.E.E.E.E.E.E.E.E.E.E.E.E.E.",
"E.E.E.E.E.E.E.E.E.E.E.E.E.E.E.E.E.E.E.E.E.E.E.E.E.E.E.E.E.E.E.E."
};
