/* XPM */
static char *messengerWindow.xpm[] = {
/* columns rows colors chars-per-pixel */
"16 16 121 2",
"   c #000000",
".  c #090704",
"X  c #0a0906",
"o  c #19150f",
"O  c #1c1810",
"+  c #2a251b",
"@  c #2f281e",
"#  c #2f2920",
"$  c #332d23",
"%  c #373126",
"&  c #3d3629",
"*  c #41371f",
"=  c #473c26",
"-  c #483e28",
";  c #423c30",
":  c #544837",
">  c #514838",
",  c #61523b",
"<  c #57585e",
"1  c #5f5c5c",
"2  c #515361",
"3  c #655944",
"4  c #645b4a",
"5  c #695f4d",
"6  c #7a6d4f",
"7  c #736856",
"8  c #7e6e53",
"9  c #7a6e58",
"0  c #424e88",
"q  c #52618b",
"w  c #897a5e",
"e  c #817764",
"r  c #817a6f",
"t  c #8c7f67",
"y  c #8e8063",
"u  c #918369",
"i  c #948974",
"p  c #988b71",
"a  c #988e7d",
"s  c #a2947b",
"d  c #af9e7a",
"f  c #858995",
"g  c #958d83",
"h  c #9b9da6",
"j  c #9ea3b2",
"k  c #99a0b8",
"l  c #a09682",
"z  c #aa9c81",
"x  c #a09a90",
"c  c #afa285",
"v  c #afa288",
"b  c #a8a090",
"n  c #b4a586",
"m  c #b3a689",
"M  c #b8aa8c",
"N  c #b8ad96",
"B  c #bcb199",
"V  c #a1a0a2",
"C  c #a8a6a4",
"Z  c #aca9a5",
"A  c #a7aab6",
"S  c #a6a9b8",
"D  c #aab0bd",
"F  c #b6afa1",
"G  c #b5b1aa",
"H  c #bbb4a4",
"J  c #b1b3be",
"K  c #adb6cc",
"L  c #adb7d1",
"P  c #b1b9cd",
"I  c #b7c0d6",
"U  c #b8c4e3",
"Y  c #c4b188",
"T  c #c3b496",
"R  c #c3b69b",
"E  c #cebd96",
"W  c #c9bb99",
"Q  c #c6b9a1",
"!  c #c3bcac",
"~  c #c8bca6",
"^  c #c4bfb2",
"/  c #d2c097",
"(  c #d0c19d",
")  c #cfc2a3",
"_  c #cfc4af",
"`  c #c7c0b2",
"'  c #ccc5b5",
"]  c #d5c7a5",
"[  c #d7c9ad",
"{  c #dbcdae",
"}  c #d7ceba",
"|  c #daceb5",
" . c #ddd0b3",
".. c #dbd1ba",
"X. c #e3d7ba",
"o. c #e3d8be",
"O. c #dfd9c8",
"+. c #cdd4e5",
"@. c #cfd8ec",
"#. c #d3defc",
"$. c #dee2ef",
"%. c #d7e3ff",
"&. c #dfe4f3",
"*. c #dbe7ff",
"=. c #dde8fe",
"-. c #e5dbc4",
";. c #eadec4",
":. c #e8dfc8",
">. c #ece3cd",
",. c #ece4d1",
"<. c #efe8d5",
"1. c #e5eaf5",
"2. c #e3edfe",
"3. c #e7f1fe",
"4. c #eef4fe",
"5. c #f9f3e3",
"6. c #fbf6e8",
"7. c #f1f6ff",
"8. c #f4faff",
"9. c #fefeff",
"0. c None",
/* pixels */
"0.0.0.0.0.0.* > 7 : .     0.0.0.",
"0.0.0.0.0.= 3 x ! B 5 .     0.0.",
"0.0.0.0 q 1 x ! ! ' ' e .     0.",
"0.0.0.2 &.$.P j h C G ` 4       ",
"0.0.6 f 9.9.9.4.1.+.I K S < .   ",
"0.t r K 9.4.4.4.4.9.8.8.@.Z ;   ",
"0.n a P 3.2.3.2.*.2.2.2.Z Y ;   ",
"0.M  .N D %.2.*.%.*.#.D M E &   ",
"0.v X.-.R V U K A P k l ( E $   ",
"0.z X.-.<...g F O.! i ) ] E $   ",
"0.s X.-.,.} ~ 5.6.5.} v W E @   ",
"0.p X...B ' <.>.:.:.:.| m d +   ",
"0.u  .z ~ >.:.o.o.o. .{ T w o   ",
"0.w n Q ;...[ T d t 3 & O X     ",
"0., p s 9 > @ o X               ",
"0.                              "
};
