/* XPM */
static char *msgcomposeWindow.xpm[] = {
/* columns rows colors chars-per-pixel */
"32 32 257 2",
"   c #000101",
".  c #040908",
"X  c #0b0d0d",
"o  c #0b0e11",
"O  c #0d140a",
"+  c #0e1214",
"@  c #0b1b1b",
"#  c #111213",
"$  c #181c1a",
"%  c #151819",
"&  c #0c1920",
"*  c #131926",
"=  c #1b1d35",
"-  c #1c291c",
";  c #0b2927",
":  c #0e2e2d",
">  c #1c2322",
",  c #172126",
"<  c #1d2734",
"1  c #1d383d",
"2  c #271c21",
"3  c #262729",
"4  c #24293c",
"5  c #28293c",
"6  c #223026",
"7  c #2d3d2a",
"8  c #2c3b3c",
"9  c #253538",
"0  c #192f40",
"q  c #1a3841",
"w  c #2a2c42",
"e  c #2b2f52",
"r  c #253a40",
"t  c #2d3b45",
"y  c #302f53",
"u  c #30324a",
"i  c #3d3d40",
"p  c #3b3b55",
"a  c #2b2e62",
"s  c #393868",
"d  c #333073",
"f  c #364837",
"g  c #395035",
"h  c #1e4548",
"j  c #174748",
"k  c #165757",
"l  c #1a5c71",
"z  c #166161",
"x  c #186868",
"c  c #1f6765",
"v  c #1a7877",
"b  c #1a7a79",
"n  c #2e4446",
"m  c #264558",
"M  c #25595a",
"N  c #324345",
"B  c #39484b",
"V  c #374747",
"C  c #3e4d51",
"Z  c #364052",
"A  c #3d5456",
"S  c #385d60",
"D  c #375775",
"F  c #235869",
"G  c #216463",
"H  c #216a69",
"J  c #2a6667",
"K  c #22716f",
"L  c #237371",
"P  c #247876",
"I  c #257a78",
"U  c #297071",
"Y  c #2a7c7c",
"T  c #36686a",
"R  c #336b78",
"E  c #337274",
"W  c #482534",
"Q  c #563347",
"!  c #6e3953",
"~  c #42413f",
"^  c #524930",
"/  c #404041",
"(  c #484a4c",
")  c #444552",
"_  c #434c53",
"`  c #484c50",
"'  c #425155",
"]  c #4a5658",
"[  c #4d5a5c",
"{  c #455757",
"}  c #535a5d",
"|  c #515354",
" . c #465a64",
".. c #475565",
"X. c #4f5878",
"o. c #535d60",
"O. c #45456e",
"+. c #50644e",
"@. c #5a7558",
"#. c #496466",
"$. c #4e6468",
"%. c #446872",
"&. c #437a7c",
"*. c #546266",
"=. c #536469",
"-. c #5e6a6d",
";. c #5a6366",
":. c #5a6d71",
">. c #5c7578",
",. c #62615d",
"<. c #627f5a",
"1. c #606060",
"2. c #616b6e",
"3. c #6b6b69",
"4. c #656d71",
"5. c #6b7275",
"6. c #687679",
"7. c #6b797d",
"8. c #647478",
"9. c #717d7e",
"0. c #7c7d7d",
"q. c gray44",
"w. c #383881",
"e. c #306486",
"r. c #3b7b81",
"t. c #3a78a1",
"y. c #4a4a91",
"u. c #4a5185",
"i. c #535a89",
"p. c #4e4f91",
"a. c #5a5ba6",
"s. c #5f5fb1",
"d. c #5f6c84",
"f. c #5b6293",
"g. c #4a7882",
"h. c #447ca1",
"j. c #615fac",
"k. c #64688b",
"l. c #676e97",
"z. c #6a7a85",
"x. c #7d7f81",
"c. c #717d81",
"v. c #6463ab",
"b. c #6f6fb2",
"n. c #7274aa",
"m. c #7576b6",
"M. c #26817d",
"N. c #29807e",
"B. c #688464",
"V. c #7f817e",
"C. c #799676",
"Z. c #288482",
"A. c #298886",
"S. c #2a8c89",
"D. c #278381",
"F. c #2c908e",
"G. c #2c9391",
"H. c #2e9995",
"J. c #2e9c9a",
"K. c #3b8888",
"L. c #37918f",
"P. c #309e9c",
"I. c #3b9b9b",
"U. c #3d9695",
"Y. c #30a19e",
"T. c #31a3a0",
"R. c #38a9a6",
"E. c #3bb1ae",
"W. c #3cb9b5",
"Q. c #4c8d90",
"!. c #439595",
"~. c #5c868a",
"^. c #518f8f",
"/. c #46a6a5",
"(. c #43bebb",
"). c #41b8b5",
"_. c #698389",
"`. c #6f8491",
"'. c #639d9b",
"]. c #748185",
"[. c #73858a",
"{. c #72898b",
"}. c #7f8180",
"|. c #7d898d",
" X c #788c92",
".X c #7c9191",
"XX c #7e82bc",
"oX c #46c1be",
"OX c #49c2c0",
"+X c #817f81",
"@X c #809c7f",
"#X c #808081",
"$X c #868b8d",
"%X c #868f90",
"&X c #829f81",
"*X c #879698",
"=X c #93999c",
"-X c #9c9c9d",
";X c #949696",
":X c #8083b0",
">X c #8e9da2",
",X c #8592b0",
"<X c #969ea2",
"1X c #8fae98",
"2X c #94b28e",
"3X c #80a5a4",
"4X c #98a6a8",
"5X c #98adb7",
"6X c #a09e9f",
"7X c #a0a0a0",
"8X c #ababab",
"9X c #a9a9a7",
"0X c #a3aeb0",
"qX c #aeacb7",
"wX c #a3b0b3",
"eX c #acbbbb",
"rX c #a6b4b7",
"tX c #b1b1b1",
"yX c #b4bcbd",
"uX c gray75",
"iX c #b8b8b6",
"pX c #959dc7",
"aX c #8989c5",
"sX c #a6abd8",
"dX c #a2b5c1",
"fX c #abb2db",
"gX c #b9bfc0",
"hX c #9ec0c0",
"jX c #a1cbca",
"kX c #bbc2c2",
"lX c #bbc5c7",
"zX c #bdc2e9",
"xX c #c0bebf",
"cX c #c0bec1",
"vX c #c2c2c2",
"bX c #c1c9cb",
"nX c #cccccc",
"mX c gray78",
"MX c #c7cdd0",
"NX c #d0cecf",
"BX c #d4d9d9",
"VX c #dfdfdf",
"CX c #d7d6d7",
"ZX c #c0c9eb",
"AX c #dfdfe1",
"SX c #dee0dd",
"DX c #dbe4e4",
"FX c #e4e4e3",
"GX c #eeeeed",
"HX c #e1eeee",
"JX c #efeff1",
"KX c #f2ecec",
"LX c #f3f4f4",
"PX c #f7f9f9",
"IX c #fefefe",
"UX c #f6f6f8",
"YX c None",
/* pixels */
"YXYXYXYXYXYXYXYXYXYXP P I I P P I I P I I I YXYXYXYXYXYXYXYXYXYX",
"YXYXYXYXYXYXYXYXY Y Y Z.F.Y.Y.Y.J.G.A.Y I I I I YXYXYXYXYXYXYXYX",
"YXYXYXYXYXYXI I Z.L.R.(.(.W.E.R.R.T.Y.J.G.D.I I I I YXYXYXYXYXYX",
"YXYXYXYXYXI Y S.R.oXOXoX(.).E.R.R.Y.Y.Y.J.H.F.D.I I I YXYXYXYXYX",
"YXYXYXYXI I S./.!.K.e.R R r.^./.T.Y.Y.J.J.H.G.F.Z.P P P ; ; YXYX",
"YXYXYXI P S./.g.n 8 3 = 5 t Z g.I.Y.Y.J.J.H.G.F.F.M.P L L ; ; YX",
"YXYXI I S.Y.T - 6 +.8.m.:Xk.p w %.U.P.J.H.H.F.F.A.Z.P L L c ; YX",
"YXYXI Z.I.E 6 f C.&Xz.l.pXZXfXO.4 %.H.J.H.G.F.A.D.I #.U K L ; YX",
"YXP I G.I @ - @.C.@X2X1XdXzXfXn.4 n F.F.F.S.A.Y L S $.#.x L L YX",
"YXP Z.J.!.$ f <.C.C..X`.,XsXpXm.e 1 M.M.M.I I H T 0 D { L L P YX",
"I I F.H./.$ f B.B.C.f.f.b.aXXXm.s * E E E K c J 9 e...T L L P I ",
"I Y G.H.U.% f @.B.<.k.v.m.b.b.v.s % ~ # # $ > 3 m h._ H L P P P ",
"I D.F.G.G.9 t N ' [ i.a.s.v.j.y.s | IXIXIXJXtX_ t.5X3 c L I I I ",
"I A.F.F.S.M t a f. .X.i.a.s.s.d w ( +X$XPXIXtX0 D ;X# c L I P I ",
"I S.F.F.S.H B s w.u...$.i.y.u.O.5 7XCXvXIXPX} % 2 o.  G L Y I I ",
"I A.S.F.S.A.k ) s d t g V e = e ( 7X+X+X+X3.* * 3 nX  c L Y I P ",
"P S.S.S.S.Z.P M Z * < - > $   ) 8XcXNXAXSXq.+ 2 | IX  G K I I I ",
"H Z.A.S.S.Z.Z.I M r * . O $ x.mX7X;X#X+X0.* % 3 8XIX  G K Y P H ",
"k N.S.A.A.A.Z.D.'..X*X{.O 7XIXiXvXCXAXGX9X5 Q q.IXnX  M K I P k ",
"j N.A.L.jXHXPXPXLXDXkX%X  KXFX;X}.+X+X+X( ! qX-XIXuX  %XeXhX'.j ",
": DXIXIXIXIXIXIXDX%X[ 8 9 IXFXSXGXJXSXmXW ! ` 7XIXkX  n ].0XBX@ ",
"  IXIXIXPX8X} ` ' C V > q.IX9X+X+XV.7X8XW i vXIXIXkX  9 1 q j . ",
"  IXBX4.} } } } ] _ V . -XIXUXVXmXiX7X;X^ tXIXIXIX6X  9 h j j   ",
"  -.$X5.;.;.;.*.} ] _   VXIXIXIXIXIXIXIXUXIXIXIXIX0.  h j j j   ",
"  -.$X9.2.2.-.-.;.o.C   IXIXIXIXIXIXIXIXIXIXIXIXIX@X  h j k k   ",
"  :.*X].5.5.8.4.-.*.C   # / V.tXVXIXIXIXIXIXIXIXUX1.  j k k k   ",
"  >.=X|.c.7.7.6.8.:.=.B < X         f 1.0.kXNXIXIXQ   k k z z   ",
"  F 4X*X|.[.[.c.z.7.>.:.=.#.#.A N 9 * # X .     # # + M J x H   ",
"  3 rX0X4X<X>X>X3X=X*X%X{.{.].z.z.7.>.:.=.{ B t t V { 7.z.U T   ",
"  . 5XbXnXbXbXbXlXlXlXlXlXlXyXiXeXeXwX5X4X4X4X4X4X4X0XrX5X&.    ",
"    3 4 `. X X X X{.`._.~.~._.Q.N.Q.N.Y Y I b b v v b l % # X   ",
"YX                                                            YX"
};
