/* XPM */
static char *msgcomposeWindow.xpm[] = {
/* columns rows colors chars-per-pixel */
"16 16 115 2",
"   c #000000",
".  c #0d0a0c",
"X  c #0d1213",
"o  c #1a1715",
"O  c #191c1c",
"+  c #151e25",
"@  c #1f2128",
"#  c #143536",
"$  c #222221",
"%  c gray16",
"&  c #2f3235",
"*  c #2b3d3c",
"=  c #323736",
"-  c #343837",
";  c #343c3a",
":  c #393835",
">  c #3b3d3a",
",  c #24324f",
"<  c #3f3d40",
"1  c #303553",
"2  c #3a3a52",
"3  c #324431",
"4  c #33413c",
"5  c #3d4942",
"6  c #3f4150",
"7  c #385559",
"8  c #41583b",
"9  c #464645",
"0  c #43494e",
"q  c #4b4a4c",
"w  c #464650",
"e  c #414059",
"r  c #434a5c",
"t  c #475052",
"y  c #435358",
"u  c #455c5c",
"i  c #4f5454",
"p  c #535352",
"a  c #595452",
"s  c #5a5d5a",
"d  c #444965",
"f  c #454c7f",
"g  c #4f5b77",
"h  c #555f60",
"j  c #585f61",
"k  c #515372",
"l  c #56705f",
"z  c #536e6f",
"x  c #5b6261",
"c  c #547171",
"v  c #624657",
"b  c #605f5e",
"n  c #616565",
"m  c #61646a",
"M  c #676d6d",
"N  c #6a6866",
"B  c #6b6b6a",
"V  c #656e74",
"C  c #637279",
"Z  c #6f7471",
"A  c #6b737a",
"S  c #75726f",
"D  c #787976",
"F  c #78787b",
"G  c #494787",
"H  c #565a9c",
"J  c #5c5e9a",
"K  c #757284",
"L  c #707f94",
"P  c #6262aa",
"I  c #6a68b8",
"U  c #7a9776",
"Y  c #7d9b78",
"T  c #7d8182",
"R  c #7d81a8",
"E  c #837f72",
"W  c #867888",
"Q  c #828484",
"!  c #838c8e",
"~  c #8a8c8b",
"^  c #859b9b",
"/  c #899096",
"(  c #969697",
")  c #919298",
"_  c #999797",
"`  c #9c9d9c",
"'  c #a29f9e",
"]  c #aba390",
"[  c #a3a3a2",
"{  c #ababab",
"}  c #b2b1ad",
"|  c #b4b2b2",
" . c #bdbdbb",
".. c #878ac5",
"X. c #8c91c3",
"o. c #b1bfcc",
"O. c #b1bcdd",
"+. c #c0bebd",
"@. c #cac6bf",
"#. c #c4c4c3",
"$. c #c8c6c5",
"%. c #cac7c9",
"&. c #cbcccb",
"*. c #ced0ce",
"=. c LightGray",
"-. c #d8d6d4",
";. c #dcdbda",
":. c #d8dbe0",
">. c #e4e4e3",
",. c #e8e7e7",
"<. c #eaeae9",
"1. c #f0efee",
"2. c #f5f4f5",
"3. c #fefefe",
"4. c None",
/* pixels */
"4.4.4.4.4.4.4.4.4.4.4.y m m V 4.",
"4.t ; d k r 4.4.4.4.4.7 Q ! 4.4.",
"4.3 U ^ O.R 2 N 9 q % n :.A 4.4.",
"l 8 T T X...e 2.3.3. ./ o.; 4.4.",
"C 4 l J I P 2 } 1.>.b + w O 4.4.",
"4., f g H G m ` [ B   X S i 4.4.",
"4.4.1 5 4 w { =.%.9   > -.Z 4.4.",
"4.4.- 3.<.[ { { W = @ ( 3.i 4.4.",
"4.4.p 3.$.{ $.#.( K W &.;.= 4.4.",
"4.# ' 3.#. . .[ D v ) >.-.> 4.4.",
"4.. ,.3.{ { {  .E p %.3.&.  4.4.",
"4.o 3.3.<.*.+. .] @.3.3.+.  4.4.",
"4.: 3.3.3.3.3.3.3.3.3.3.|   4.4.",
"4.$ ~ [ &.,.3.3.3.3.3.3.}   4.4.",
"4.4.h j i x M T ~ { $.;.D   4.4.",
"4.4.4.4.4.4.4.4.c z u u * 4.4.4."
};
