<?xml version="1.0" encoding="utf-8"?>
<!-- This Source Code Form is subject to the terms of the Mozilla Public
   - License, v. 2.0. If a copy of the MPL was not distributed with this
   - file, You can obtain one at http://mozilla.org/MPL/2.0/. -->
<svg xmlns="http://www.w3.org/2000/svg" width="142" height="38" viewBox="0 0 142 38">
  <path d="M136.837 10.212H131.5l-5.7 9.9-5.645-9.9h-5.542l8.364 12.778-9.437 14.265h5.337l6.723-11.443 6.62 11.444h5.7l-9.391-14.471zM22.844 37.255h4.721V10.212h-4.721zm15.42-21.339l-.462-5.7h-4.054v27.039h4.721V23.306c0-4.205 3.079-8.878 6.466-8.878a8.485 8.485 0 0 1 2.36.308l.872-4.618A11.5 11.5 0 0 0 45.5 9.81c-3.284 0-5.8 2.053-7.236 6.106zM0 37.255h4.875V21.707h11.546v-3.849H4.875V5.8h13.342l.564-3.9H0zM25.153.163A3.14 3.14 0 0 0 21.869 3.4a3.128 3.128 0 0 0 3.284 3.182A3.143 3.143 0 0 0 28.489 3.4 3.154 3.154 0 0 0 25.153.163zm76.491 9.647c-7.7 0-12.111 5.585-12.111 13.949 0 8.57 4.362 14.112 12.059 14.112 7.646 0 12.059-5.8 12.059-14.163.001-8.57-4.309-13.898-12.007-13.898zm-.051 24.264c-4.516 0-6.979-3.284-6.979-10.315 0-7.082 2.515-10.152 7.03-10.152 4.464 0 6.928 3.07 6.928 10.1 0 7.083-2.463 10.367-6.979 10.367zM82.47 8.339c0-2.617 1.026-4.541 4-4.541a11.567 11.567 0 0 1 4.721 1.026l1.488-3.438A14.913 14.913 0 0 0 86.216 0c-5.491 0-8.467 3.447-8.467 7.963v2.249h-4.824v3.643h4.824v23.4h4.721v-23.4h6.055l.513-3.643H82.47zM59.952 9.81c-6.979 0-11.238 5.79-11.238 14.206 0 8.57 4.413 13.855 11.957 13.855a14.741 14.741 0 0 0 9.442-3.387l-2.053-2.822a11.384 11.384 0 0 1-7.03 2.361c-3.9 0-6.825-2.412-7.287-8.672h17.242c.051-.616.1-1.488.1-2.412.003-8.263-3.846-13.129-11.133-13.129zm6.466 12.051H53.743c.359-6 2.72-8.3 6.312-8.3 4.259 0 6.363 2.711 6.363 8z" fill="#fff"/>
  <path d="M139.854 10.228a2.134 2.134 0 0 0-2.128 2.155 2.093 2.093 0 0 0 2.128 2.12 2.137 2.137 0 1 0 0-4.275zm0 3.954a1.755 1.755 0 0 1-1.772-1.8 1.783 1.783 0 0 1 1.772-1.826 1.761 1.761 0 0 1 1.79 1.808 1.779 1.779 0 0 1-1.79 1.819zm.891-2.333c0-.481-.33-.721-1.015-.721h-.614v2.422h.374v-.988h.321l.579.988h.445l-.659-1.051a.659.659 0 0 0 .568-.65zm-1.256.4v-.81h.294c.374 0 .579.1.579.41 0 .294-.2.4-.525.4z" fill="#fff"/>
</svg>
