<?xml version="1.0" encoding="utf-8"?>
<!DOCTYPE svg PUBLIC "-//W3C//DTD SVG 1.1//EN" "http://www.w3.org/Graphics/SVG/1.1/DTD/svg11.dtd">

<svg version="1.1" id="aboutWordmark" xmlns="http://www.w3.org/2000/svg" xmlns:xlink="http://www.w3.org/1999/xlink" x="0px" y="0px" width="130px" height="38px" viewBox="0 0 130 38" xml:space="preserve">

  <path fill="#55575C" d="M128.4,14.4c0,0-0.1-0.1-0.1-0.1c0,0-0.1-0.1-0.1-0.1c0,0-0.1-0.1-0.1-0.1c0.2,0,0.3-0.1,0.4-0.2
  	c0.1-0.1,0.1-0.3,0.1-0.4c0-0.1,0-0.2,0-0.2c0-0.1-0.1-0.1-0.1-0.2c-0.1-0.1-0.1-0.1-0.2-0.1c-0.1,0-0.2-0.1-0.3-0.1h-0.7v2.2h0.4
  	v-1c0,0,0.1,0,0.1,0c0,0,0,0,0.1,0.1c0.1,0.1,0.1,0.1,0.2,0.2c0.1,0.1,0.1,0.2,0.2,0.3l0.2,0.4h0.4l-0.3-0.5
  	C128.4,14.5,128.4,14.5,128.4,14.4z M127.8,13.9h-0.2v-0.7h0.2c0.2,0,0.3,0,0.4,0.1c0.1,0.1,0.1,0.1,0.1,0.3c0,0.1,0,0.2-0.1,0.3
  	c0,0-0.1,0.1-0.1,0.1C128,13.9,127.9,13.9,127.8,13.9z M0,37h5.7V21.2h9.6v-4.6H5.7V7.2h11.8l0.7-4.7H0V37z M24.2,0.7
  	c-2,0-3.6,1.6-3.6,3.7c0,2,1.5,3.6,3.5,3.6c2,0,3.7-1.6,3.7-3.6C27.8,2.3,26.2,0.7,24.2,0.7z M21.4,37h5.5V11.2l-5.5,1V37z
  	 M43.7,11.1c-2.5,0-4.4,1.3-6.4,4c0-1.4-0.3-2.8-0.9-4l-5,1.3c0.6,1.6,0.9,3.6,0.9,6.8V37h5.5V19.9c0.5-2,2.4-3.7,4.7-3.7
  	c0.6,0,1,0.1,1.6,0.4l1.7-5.1C45,11.2,44.5,11.1,43.7,11.1z M62.7,13.8c-2.1-1.9-4.4-2.6-6.9-2.6c-3.2,0-5.7,1-7.7,3.4
  	c-2.2,2.5-3.1,5.4-3.1,9.9c0,8.1,4.5,13.2,11.6,13.2c3.4,0,6.4-1.1,9.1-3.3L63.4,31c-1.9,1.6-3.9,2.5-6.3,2.5
  	c-4.9,0-6.2-3.7-6.2-7.2v-0.4H66v-1.2C66,18.9,64.9,15.8,62.7,13.8z M51,21.8c0-4.1,1.7-6.5,4.8-6.5c2.8,0,4.5,2.4,4.5,6.5H51z
  	 M75.5,11.8V7.9c0-2.2,1.2-3.5,3.1-3.5c1,0,1.8,0.3,3,0.9l1.8-3.5c-1.7-1-3.5-1.4-5.7-1.4C73.2,0.3,70,2.8,70,8
  	c0,2.3,0.2,3.7,0.2,3.7h-2.5v3.8h2.3V37h5.4V15.6h5.1l1.4-3.8H75.5z M92.3,11.2c-6.7,0-11,5.2-11,13.3c0,8.1,4.3,13.2,11.1,13.2
  	c6.8,0,11.2-5,11.2-13.2C103.6,16.5,99.5,11.2,92.3,11.2z M92.5,33.6c-3.3,0-5.1-2.1-5.1-9.5c0-6.1,1.5-8.8,5-8.8
  	c3.2,0,5.2,2.1,5.2,9.3C97.6,30.9,95.8,33.6,92.5,33.6z M125.2,11.8h-6.4c-0.7,1.1-3.3,6.1-4,7.7c-1.2-2.3-3.4-6.3-4.6-8.2l-5.9,1.2
  	l7.3,10.8L102.2,37h6.9c0.9-1.4,4.5-7.5,5.5-9.4c0.5,0.9,4.6,8,5.5,9.4h6.9l-9.2-13.8L125.2,11.8z M128,12c-1.1,0-2,0.9-2,2
  	s0.9,2,2,2c1.1,0,2-0.9,2-2S129.1,12,128,12z M128,15.5c-0.8,0-1.5-0.7-1.5-1.5s0.7-1.5,1.5-1.5c0.8,0,1.5,0.7,1.5,1.5
  	S128.8,15.5,128,15.5z"/>
	
</svg>
