<!-- This Source Code Form is subject to the terms of the Mozilla Public
   - License, v. 2.0. If a copy of the MPL was not distributed with this
   - file, You can obtain one at http://mozilla.org/MPL/2.0/. -->
<svg xmlns="http://www.w3.org/2000/svg" width="336" height="48" viewBox="0 0 336 48">
  <path d="M.972 7.879H22.4v5.8H7.119v7.859H22.4v5.752H7.119v12.642H.972zM29.688 5.64a3.447 3.447 0 0 1 3.557 3.6 3.434 3.434 0 0 1-3.6 3.6 3.4 3.4 0 0 1-3.556-3.513 3.555 3.555 0 0 1 3.599-3.687zm-3.03 10.582h6.06v23.71h-6.06zm23.623 6.586a4.894 4.894 0 0 0-2.942-1.054c-2.459 0-3.864 1.581-3.864 5.049v13.129H37.46v-23.71h5.752v3.424A5.649 5.649 0 0 1 48.876 16a7.191 7.191 0 0 1 4.04 1.229zm2.5 5.4A12.129 12.129 0 0 1 64.99 15.739c7.113 0 12.163 5.049 12.163 12.074v2.5H58.711c.659 2.986 2.986 4.962 6.543 4.962a6.357 6.357 0 0 0 5.884-3.513l5.049 3.03c-2.5 3.688-6.059 5.62-11.109 5.62-7.684.003-12.294-5.134-12.294-12.204zM58.8 25.53h12.47c-.658-3.03-3.117-4.7-6.323-4.7a6.091 6.091 0 0 0-6.147 4.7zm19.847-9.308h4.259v-1.186c0-6.455 2.722-9.133 8.694-9.133h2.107v5.225h-1.713c-2.81 0-3.425.966-3.425 3.908v1.186h5.137v5.444H88.7v18.266h-5.8V21.666h-4.254zm16.2 11.855a12.139 12.139 0 0 1 12.383-12.338 12.338 12.338 0 1 1 0 24.676 11.96 11.96 0 0 1-12.382-12.338zm18.88 0a6.5 6.5 0 1 0-13 0 6.5 6.5 0 1 0 13 0zm14.051-.264l-8.562-11.591h7.113l5.05 7.288 5.181-7.288h6.981l-8.694 11.547 9.133 12.163h-7.069l-5.663-7.732-5.489 7.728h-7.069z" fill="#fff"/>
  <path d="M180.394 23.377a7.41 7.41 0 0 0 4.266-6.948c0-5.189-3.958-8.532-9.938-8.532H161V40h14.161c6.068 0 10.158-3.43 10.158-9.059a7.71 7.71 0 0 0-4.925-7.564zM164.65 11.24h10.028c3.913 0 6.332 2.111 6.332 5.189s-2.111 5.365-6.025 5.365H164.65zm10.467 25.374H164.65V25.18h10.291c4.4 0 6.685 2.331 6.685 5.717 0 3.342-2.551 5.717-6.509 5.717zm18.032-15.876v-4.485h-3.474V40h3.562V26.983c0-5.233 2.286-7.52 6.244-7.52a5.2 5.2 0 0 1 2.9.748l1.5-3.43a7.754 7.754 0 0 0-3.957-.88 6.576 6.576 0 0 0-6.775 4.837zm23.22-4.968a12.192 12.192 0 0 0-12.312 12.357 12.335 12.335 0 1 0 24.669 0 12.2 12.2 0 0 0-12.357-12.357zm0 21.284a8.606 8.606 0 0 1-8.663-8.927 8.69 8.69 0 1 1 17.371 0 8.642 8.642 0 0 1-8.708 8.927zm41.3-2.112l-7.081-18.689h-3.342l-7.256 18.821-5.98-18.821h-3.782L238.009 40h3.517l7.3-18.821 7.3 18.821h3.255l8.219-23.747h-3.738zm22.649-8.663c-3.694-.747-6.552-1.231-6.552-3.693 0-2.2 1.5-3.782 5.145-3.782a7.664 7.664 0 0 1 6.509 3.166l2.99-2.023a11.481 11.481 0 0 0-9.5-4.221c-5.629-.044-8.839 3.21-8.839 6.9 0 4.749 4.354 5.849 8.444 6.64 3.473.7 6.727 1.231 6.727 3.87 0 2.375-1.934 4.133-5.629 4.133a8.772 8.772 0 0 1-7.651-3.87l-3.122 2.112c2.11 3.034 5.5 4.968 10.685 4.968 6.2.044 9.368-3.649 9.368-7.387-.002-4.877-4.493-6.021-8.578-6.813zM304.24 15.77a12.178 12.178 0 0 0-12.4 12.445c0 6.948 4.925 12.268 12.532 12.268a12.2 12.2 0 0 0 11.038-6.024l-3.078-1.8a8.489 8.489 0 0 1-7.96 4.573c-5.013 0-8.487-3.209-9.015-7.739h20.977v-1.631A11.714 11.714 0 0 0 304.24 15.77zm-8.8 10.553a8.822 8.822 0 0 1 8.8-7.344 8 8 0 0 1 8.4 7.344zM330.893 15.9a6.576 6.576 0 0 0-6.773 4.837v-4.484h-3.475V40h3.563V26.983c0-5.233 2.286-7.52 6.244-7.52a5.2 5.2 0 0 1 2.9.748l1.5-3.43a7.757 7.757 0 0 0-3.959-.881z" fill="#fff"/>
</svg>
