<svg height="16" width="16" xmlns="http://www.w3.org/2000/svg" viewBox="0 0 16 16" xmlns:xlink="http://www.w3.org/1999/xlink" enable-background="new 0 0 16 16">
<g fill="#edf0f1" fill-rule="evenodd">
<path opacity=".3" d="m1.1,6.3c0-.3 .3-.6 .6-.6h4.6c.3,0 .6,.3 .6,.6s-.3,.6-.6,.6h-4.6c-.3,0-.6-.3-.6-.6zm12,1.7h-10.2c-.4,0-.6,.3-.6,.6 0,.3 .3,.6 .6,.6h10.3c.3,0 .6-.3 .6-.6-.1-.3-.3-.6-.7-.6zm-5.7,3.4c.3,0 .6-.3 .6-.6 0-.3-.3-.6-.6-.6h-4.5c-.3,0-.6,.3-.6,.6 0,.3 .3,.6 .6,.6h4.5zm2.3,1.2h-8c-.3,0-.6,.3-.6,.6 0,.3 .3,.6 .6,.6h8c.3,0 .6-.3 .6-.6 0-.4-.3-.6-.6-.6z"/>
<path d="m14.3,2.3h-.6v1.1c0,.6-.5,1.1-1.1,1.1-.6,0-1.1-.5-1.1-1.1v-.5c0,.3 .3,.6 .6,.6 .3,0 .6-.3 .6-.6v-.6-1.7c0-.1 0-.2-.1-.3-.1-.1-.1-.1-.2-.2-.2-.1-.3-.1-.4-.1-.3,0-.6,.3-.6,.6v1.7h-1.1v1.1c0,.6-.5,1.1-1.1,1.1-.7,.1-1.2-.4-1.2-1.1v-.5c0,.3 .3,.6 .6,.6 .3,0 .6-.3 .6-.6v-.6-1.7c0-.1 0-.2-.1-.3-.1-.1-.2-.2-.3-.2-.1-.1-.1-.1-.2-.1-.3,0-.6,.3-.6,.6v1.7h-1.1v1.1c0,.6-.5,1.1-1.1,1.1-.6,0-1.1-.5-1.1-1.1v-.5c0,.3 .3,.6 .6,.6 .3,0 .6-.3 .6-.6v-.6-1.7c0-.1 0-.2-.1-.3-.3-.1-.3-.2-.4-.2-.1-.1-.2-.1-.3-.1-.3,0-.5,.3-.5,.6v1.7h-1.2v1.1c0,.6-.5,1.1-1.1,1.1-.6,0-1.1-.5-1.1-1.1v-.5c0,.3 .3,.6 .6,.6 .3,0 .6-.3 .6-.6v-.6-1.7c0-.1 0-.2-.1-.3-.2-.1-.2-.2-.3-.2-.1-.1-.2-.1-.3-.1-.3,0-.6,.3-.6,.6v1.7h-.5c-.3,0-.6,.2-.6,.6v12.6c0,.2 .3,.5 .6,.5h13.7c.3,0 .6-.3 .6-.6v-12.5c0-.4-.3-.6-.6-.6zm-12.6,3.4h4.6c.3,0 .6,.3 .6,.6s-.3,.6-.6,.6h-4.6c-.3,0-.6-.3-.6-.6s.3-.6 .6-.6zm8,8h-8c-.3,0-.6-.3-.6-.6 0-.3 .3-.6 .6-.6h8c.3,0 .6,.3 .6,.6 0,.4-.3,.6-.6,.6zm-7.4-2.8c0-.3 .3-.6 .6-.6h4.6c.3,0 .6,.3 .6,.6 0,.3-.3,.6-.6,.6h-4.6c-.4-.1-.6-.3-.6-.6zm10.8-1.8h-10.2c-.3,0-.6-.3-.6-.6 0-.2 .2-.5 .6-.5h10.3c.3,0 .6,.3 .6,.6-.1,.3-.3,.5-.7,.5z"/>
</g>
</svg>
