<!-- This Source Code Form is subject to the terms of the Mozilla Public
   - License, v. 2.0. If a copy of the MPL was not distributed with this
   - file, You can obtain one at http://mozilla.org/MPL/2.0/. -->
<svg xmlns="http://www.w3.org/2000/svg" width="16" height="16" viewBox="0 0 16 16">
  <path d="M14.1 7.32c-.81 0-.84.84-1.46.84a.64.64 0 0 1-.63-.63v-2.7a.83.83 0 0 0-.83-.84H8.47a.64.64 0 0 1-.63-.63c0-.62.84-.65.84-1.46C8.68 1.18 7.92.65 7 .65c-.92 0-1.67.53-1.67 1.25 0 .81.83.84.83 1.46a.64.64 0 0 1-.62.63H2.83a.83.83 0 0 0-.83.83V6.7a.64.64 0 0 0 .63.62c.62 0 .65-.83 1.46-.83.72 0 1.25.75 1.25 1.67 0 .92-.53 1.67-1.25 1.67-.81 0-.84-.84-1.46-.84a.64.64 0 0 0-.63.63v3.55a.83.83 0 0 0 .83.83h2.72a.64.64 0 0 0 .62-.63c0-.62-.83-.65-.83-1.46 0-.72.75-1.25 1.67-1.25.91 0 1.67.53 1.67 1.25 0 .81-.84.84-.84 1.46a.64.64 0 0 0 .63.63h2.7a.83.83 0 0 0 .84-.83v-2.72a.64.64 0 0 1 .63-.62c.62 0 .65.83 1.46.83.72 0 1.25-.75 1.25-1.67 0-.91-.53-1.67-1.25-1.67z"/>
</svg>
