<!-- may be protected as a trademark in some jurisdictions -->
<svg xmlns="http://www.w3.org/2000/svg" width="135" height="40" xml:space="preserve"><path fill="#A6A6A6" d="M130.197 40H4.729A4.74 4.74 0 0 1 0 35.267V4.726A4.733 4.733 0 0 1 4.729 0h125.468C132.803 0 135 2.12 135 4.726v30.541c0 2.605-2.197 4.733-4.803 4.733z"/><path d="M134.032 35.268a3.83 3.83 0 0 1-3.834 3.83H4.729a3.835 3.835 0 0 1-3.839-3.83V4.725A3.84 3.84 0 0 1 4.729.89h125.468a3.834 3.834 0 0 1 3.834 3.835l.001 30.543z"/><g fill="#FFF"><path d="M30.128 19.784c-.029-3.223 2.639-4.791 2.761-4.864-1.511-2.203-3.853-2.504-4.676-2.528-1.967-.207-3.875 1.177-4.877 1.177-1.022 0-2.565-1.157-4.228-1.123-2.14.033-4.142 1.272-5.24 3.196-2.266 3.923-.576 9.688 1.595 12.859 1.086 1.553 2.355 3.287 4.016 3.226 1.625-.067 2.232-1.036 4.193-1.036 1.943 0 2.513 1.036 4.207.997 1.744-.028 2.842-1.56 3.89-3.127 1.255-1.78 1.759-3.533 1.779-3.623-.041-.014-3.387-1.291-3.42-5.154zM26.928 10.306c.874-1.093 1.472-2.58 1.306-4.089-1.265.056-2.847.875-3.758 1.944-.806.942-1.526 2.486-1.34 3.938 1.421.106 2.88-.717 3.792-1.793z"/></g><g fill="#FFF"><path d="M53.645 31.504h-2.271l-1.244-3.909h-4.324l-1.185 3.909H42.41l4.284-13.308h2.646l4.305 13.308zm-3.89-5.549L48.63 22.48c-.119-.355-.342-1.191-.671-2.507h-.04a96.75 96.75 0 0 1-.632 2.507l-1.105 3.475h3.573zM64.662 26.588c0 1.632-.441 2.922-1.323 3.869-.79.843-1.771 1.264-2.942 1.264-1.264 0-2.172-.454-2.725-1.362h-.04v5.055H55.5V25.067c0-1.026-.027-2.079-.079-3.159h1.875l.119 1.521h.04c.711-1.146 1.79-1.718 3.238-1.718 1.132 0 2.077.447 2.833 1.342.758.896 1.136 2.074 1.136 3.535zm-2.172.078c0-.934-.21-1.704-.632-2.31-.461-.632-1.08-.948-1.856-.948-.526 0-1.004.176-1.431.523-.428.35-.708.807-.839 1.373-.066.264-.099.48-.099.65v1.6c0 .698.214 1.287.642 1.768s.984.721 1.668.721c.803 0 1.428-.31 1.875-.928.448-.619.672-1.435.672-2.449zM75.699 26.588c0 1.632-.441 2.922-1.324 3.869-.789.843-1.77 1.264-2.941 1.264-1.264 0-2.172-.454-2.724-1.362h-.04v5.055h-2.132V25.067c0-1.026-.027-2.079-.079-3.159h1.875l.119 1.521h.04c.71-1.146 1.789-1.718 3.238-1.718 1.131 0 2.076.447 2.834 1.342.755.896 1.134 2.074 1.134 3.535zm-2.172.078c0-.934-.211-1.704-.633-2.31-.461-.632-1.078-.948-1.855-.948a2.22 2.22 0 0 0-1.432.523c-.428.35-.707.807-.838 1.373-.065.264-.099.48-.099.65v1.6c0 .698.214 1.287.64 1.768.428.48.984.721 1.67.721.803 0 1.428-.31 1.875-.928.448-.619.672-1.435.672-2.449zM88.039 27.772c0 1.132-.393 2.053-1.182 2.764-.867.777-2.074 1.165-3.625 1.165-1.432 0-2.58-.276-3.449-.829l.494-1.777c.936.566 1.963.85 3.082.85.803 0 1.428-.182 1.877-.544.447-.362.67-.848.67-1.454 0-.54-.184-.995-.553-1.364-.367-.369-.98-.712-1.836-1.029-2.33-.869-3.494-2.142-3.494-3.816 0-1.094.408-1.991 1.225-2.689.814-.699 1.9-1.048 3.258-1.048 1.211 0 2.217.211 3.02.632l-.533 1.738c-.75-.408-1.598-.612-2.547-.612-.75 0-1.336.185-1.756.553a1.58 1.58 0 0 0-.533 1.205c0 .526.203.961.611 1.303.355.316 1 .658 1.936 1.027 1.145.461 1.986 1 2.527 1.618.539.616.808 1.387.808 2.307zM95.088 23.508h-2.35v4.659c0 1.185.414 1.777 1.244 1.777.381 0 .697-.033.947-.099l.059 1.619c-.42.157-.973.236-1.658.236-.842 0-1.5-.257-1.975-.77-.473-.514-.711-1.376-.711-2.587v-4.837h-1.4v-1.6h1.4v-1.757l2.094-.632v2.389h2.35v1.602zM105.691 26.627c0 1.475-.422 2.686-1.264 3.633-.883.975-2.055 1.461-3.516 1.461-1.408 0-2.529-.467-3.365-1.401s-1.254-2.113-1.254-3.534c0-1.487.43-2.705 1.293-3.652.861-.948 2.023-1.422 3.484-1.422 1.408 0 2.541.467 3.396 1.402.818.907 1.226 2.078 1.226 3.513zm-2.212.069c0-.885-.189-1.644-.572-2.277-.447-.766-1.086-1.148-1.914-1.148-.857 0-1.508.383-1.955 1.148-.383.634-.572 1.405-.572 2.317 0 .885.189 1.644.572 2.276.461.766 1.105 1.148 1.936 1.148.814 0 1.453-.39 1.914-1.168.393-.645.591-1.412.591-2.296zM112.621 23.783a3.702 3.702 0 0 0-.672-.059c-.75 0-1.33.283-1.738.85-.355.5-.533 1.132-.533 1.895v5.035h-2.131l.02-6.574c0-1.106-.027-2.113-.08-3.021h1.857l.078 1.836h.059c.225-.631.58-1.139 1.066-1.52a2.578 2.578 0 0 1 1.541-.514c.197 0 .375.014.533.039v2.033zM122.156 26.252a5 5 0 0 1-.078.967h-6.396c.025.948.334 1.673.928 2.173.539.447 1.236.671 2.092.671.947 0 1.811-.151 2.588-.454l.334 1.48c-.908.396-1.98.593-3.217.593-1.488 0-2.656-.438-3.506-1.313-.848-.875-1.273-2.05-1.273-3.524 0-1.447.395-2.652 1.186-3.613.828-1.026 1.947-1.539 3.355-1.539 1.383 0 2.43.513 3.141 1.539.563.815.846 1.823.846 3.02zm-2.033-.553c.014-.632-.125-1.178-.414-1.639-.369-.593-.936-.889-1.699-.889-.697 0-1.264.289-1.697.869-.355.461-.566 1.014-.631 1.658h4.441z"/></g><g fill="#FFF"><path d="M43.424 7.273c.227-.136.483-.25.771-.344a3.267 3.267 0 0 1 1.014-.141c.627 0 1.121.149 1.483.446s.543.698.543 1.203c0 .401-.121.737-.363 1.009s-.552.453-.927.543v.029c.207.033.403.089.587.17.185.081.347.189.485.325a1.471 1.471 0 0 1 .451 1.078c0 .362-.073.666-.219.912s-.336.446-.572.602c-.235.155-.499.267-.79.334s-.582.102-.873.102c-.311 0-.618-.033-.922-.097s-.585-.171-.844-.32l.262-.805c.168.084.385.165.65.243.265.078.533.116.805.116.446 0 .791-.1 1.033-.3a.994.994 0 0 0 .364-.805.987.987 0 0 0-.146-.558 1.064 1.064 0 0 0-.379-.345 1.655 1.655 0 0 0-.519-.174 3.43 3.43 0 0 0-.567-.049h-.437V9.65h.437c.2 0 .386-.025.558-.078.171-.051.32-.124.446-.218s.225-.206.296-.335a.903.903 0 0 0 .106-.437c0-.291-.104-.519-.311-.684-.207-.165-.485-.248-.834-.248-.239 0-.479.039-.718.116a5.295 5.295 0 0 0-.641.252l-.229-.745zM51.755 13.433l-.077-.543h-.029c-.316.433-.775.65-1.377.65-.214 0-.407-.036-.582-.107s-.327-.168-.456-.291a1.285 1.285 0 0 1-.301-.437 1.408 1.408 0 0 1-.106-.553c0-.588.239-1.03.718-1.324.479-.294 1.157-.441 2.037-.441V10.3c0-.621-.326-.931-.978-.931-.465 0-.875.117-1.229.349l-.213-.688c.433-.271.972-.407 1.617-.407 1.233 0 1.85.65 1.85 1.95v1.736c0 .485.023.86.068 1.125h-.942zm-.145-2.347c-.585 0-1.021.074-1.307.223-.286.149-.429.392-.429.728 0 .246.067.43.202.553a.731.731 0 0 0 .512.184 1.05 1.05 0 0 0 .708-.272.988.988 0 0 0 .228-.306.866.866 0 0 0 .086-.383v-.727zM57.683 8.719v.863h-1.96v3.851h-1.047V8.719h3.007zM63.677 11.018c0 .375-.052.718-.155 1.028a2.39 2.39 0 0 1-.432.795 1.932 1.932 0 0 1-1.508.699c-.621 0-1.067-.223-1.339-.669h-.02v2.483h-1.048v-5.083a38.698 38.698 0 0 0-.038-1.553h.921l.059.747h.02c.349-.562.879-.844 1.591-.844.277 0 .535.058.771.174.236.117.441.28.616.49.175.21.312.462.412.757.1.295.15.62.15.976zm-1.066.039c0-.233-.028-.448-.083-.645s-.136-.365-.242-.504-.236-.249-.388-.33a1.067 1.067 0 0 0-.51-.121c-.148 0-.294.033-.437.097s-.267.152-.373.262c-.107.11-.192.243-.257.398-.065.155-.098.32-.098.495v.786c0 .174.027.336.083.485.055.149.132.278.232.388s.22.196.359.257c.139.062.292.092.46.092.395 0 .702-.15.922-.451s.332-.705.332-1.209zM69.305 8.719l-1.194 3.269c-.284.776-.561 1.411-.829 1.906-.269.495-.525.855-.771 1.082-.362.323-.747.521-1.155.591l-.252-.882c.271-.071.53-.21.776-.417.245-.207.442-.465.592-.776a.594.594 0 0 0 .077-.213.88.88 0 0 0-.058-.223L64.783 8.72h1.154l.893 2.629c.046.123.091.262.136.417.046.155.094.327.146.514h.02a6.41 6.41 0 0 0 .106-.393c.039-.158.091-.341.155-.548l.796-2.619h1.116zM71.119 10.678h.484c.355 0 .631-.064.824-.194s.291-.288.291-.476a.54.54 0 0 0-.248-.465c-.164-.116-.393-.175-.684-.175-.188 0-.377.031-.566.092a2.98 2.98 0 0 0-.529.228l-.271-.678a2.9 2.9 0 0 1 .811-.305 4.01 4.01 0 0 1 .809-.083c.215 0 .43.021.646.063.215.042.408.113.576.213s.307.231.412.393c.107.162.16.362.16.602 0 .149-.029.28-.088.393a1.017 1.017 0 0 1-.232.3 1.254 1.254 0 0 1-.324.213 1.743 1.743 0 0 1-.363.122v.029c.154.02.305.059.451.117.145.058.275.134.393.228.115.094.209.207.281.339.07.133.105.283.105.451 0 .278-.066.511-.203.698a1.46 1.46 0 0 1-.52.446 2.51 2.51 0 0 1-.693.238 3.938 3.938 0 0 1-1.599-.019 2.71 2.71 0 0 1-.768-.286l.273-.689c.168.091.359.167.576.228s.438.092.664.092c.355 0 .629-.069.82-.208.189-.139.285-.312.285-.519 0-.136-.031-.25-.096-.344s-.156-.17-.271-.228a1.33 1.33 0 0 0-.408-.121 3.444 3.444 0 0 0-.504-.034h-.494v-.661zM76.715 8.719v1.668c0 .382-.006.725-.02 1.028-.014.304-.029.624-.049.96l.02.019.363-.723c.121-.236.242-.477.365-.723l1.164-2.231h1.357v4.714h-.99v-1.668c0-.349.01-.698.025-1.047.016-.35.033-.702.053-1.058h-.049a6.95 6.95 0 0 1-.33.757c-.109.213-.219.433-.328.66-.201.388-.4.776-.598 1.164-.197.388-.406.786-.625 1.193h-1.357V8.719h.999zM85.445 8.719v.863H84.01v3.851h-1.03V9.582h-1.426v-.863h3.891zM90.789 10.853c0 .09-.004.176-.01.257a1.753 1.753 0 0 1-.029.218h-3.143c.014.446.154.791.422 1.033.268.242.623.364 1.062.364.459 0 .883-.074 1.271-.223l.164.728c-.447.194-.973.291-1.582.291-.367 0-.697-.057-.988-.17a2.044 2.044 0 0 1-.738-.48 2.12 2.12 0 0 1-.461-.747c-.105-.291-.158-.617-.158-.979s.053-.697.158-1.004c.107-.307.258-.574.451-.8.195-.227.43-.404.703-.534.275-.129.582-.194.918-.194a2 2 0 0 1 .811.16c.242.106.449.258.619.456.172.197.303.434.393.708.092.274.137.58.137.916zm-1-.271c0-.369-.088-.668-.266-.897s-.435-.345-.771-.345c-.305 0-.562.116-.775.349s-.336.53-.369.893h2.181zM95.01 8.758c.188-.032.426-.058.717-.078s.588-.029.893-.029c.193 0 .412.012.654.034s.475.074.693.155c.221.081.404.202.553.364s.225.381.225.659a.916.916 0 0 1-.287.679 1.155 1.155 0 0 1-.301.208c-.113.055-.23.096-.354.121l.01.029c.342.058.621.181.834.369s.32.446.32.776-.092.592-.271.786c-.182.194-.404.34-.67.437a3.277 3.277 0 0 1-.84.185 9.444 9.444 0 0 1-.789.039c-.26 0-.514-.006-.762-.02-.25-.013-.457-.026-.625-.039V8.758zm1.008 1.882h.533c.162 0 .316-.011.461-.034.146-.022.273-.058.383-.106a.647.647 0 0 0 .258-.194.477.477 0 0 0 .092-.296.5.5 0 0 0-.268-.47c-.178-.1-.457-.15-.838-.15-.109 0-.205.003-.287.01l-.334.029v1.211zm0 2.085c.129.013.238.022.324.029a3.925 3.925 0 0 0 .743-.019 1.45 1.45 0 0 0 .408-.111.75.75 0 0 0 .295-.222.58.58 0 0 0 .113-.371c0-.27-.121-.456-.359-.559-.24-.103-.562-.154-.971-.154h-.553v1.407z"/></g></svg>
