<?xml version="1.0" encoding="UTF-8" standalone="no"?>
<svg width="60px" height="60px" viewBox="0 0 60 60" version="1.1" xmlns="http://www.w3.org/2000/svg" xmlns:xlink="http://www.w3.org/1999/xlink" xmlns:sketch="http://www.bohemiancoding.com/sketch/ns">
    <!-- Generator: Sketch 3.3.2 (12043) - http://www.bohemiancoding.com/sketch -->
    <title>Rectangle 62</title>
    <desc>Created with Sketch.</desc>
    <defs/>
    <g id="Page-1" stroke="none" stroke-width="1" fill="none" fill-rule="evenodd" sketch:type="MSPage">
        <g id="Artboard-16" sketch:type="MSArtboardGroup" transform="translate(-62.000000, -310.000000)" fill="#AFB1B3">
            <g id="Insecure-icon-Copy" sketch:type="MSLayerGroup" transform="translate(60.000000, 308.000000)">
                <path d="M34.6570853,3.89861537 L61.6191658,57.8227763 C62.6631009,60.0994422 61.4905756,62 58.9609325,62 L5.03677158,62 C2.50636943,62 1.33487292,60.0971201 2.37853829,57.8227763 L29.3406187,3.89861537 C30.6694576,1.36596731 33.3285163,1.36828938 34.6570853,3.89861537 Z M28.2013759,23.6360478 C28.2013759,21.5439751 29.9058314,19.8480151 31.998852,19.8480151 C34.0961402,19.8480151 35.7963281,21.5419679 35.7963281,23.6360478 L35.7963281,38.844839 C35.7963281,40.9369118 34.0918726,42.6328718 31.998852,42.6328718 C29.9015639,42.6328718 28.2013759,40.938919 28.2013759,38.844839 L28.2013759,23.6360478 Z M31.998852,54.7847954 C34.0961402,54.7847954 35.7963281,53.0846074 35.7963281,50.9873193 C35.7963281,48.8900311 34.0961402,47.1898431 31.998852,47.1898431 C29.9015639,47.1898431 28.2013759,48.8900311 28.2013759,50.9873193 C28.2013759,53.0846074 29.9015639,54.7847954 31.998852,54.7847954 Z" id="Rectangle-62" sketch:type="MSShapeGroup"/>
            </g>
        </g>
    </g>
</svg>