<?xml version="1.0" encoding="UTF-8" standalone="no"?>
<!-- This Source Code Form is subject to the terms of the Mozilla Public
   - License, v. 2.0. If a copy of the MPL was not distributed with this
   - file, You can obtain one at http://mozilla.org/MPL/2.0/. -->
<svg width="101px" height="62px" viewBox="0 0 101 62" version="1.1" xmlns="http://www.w3.org/2000/svg" xmlns:xlink="http://www.w3.org/1999/xlink" xmlns:sketch="http://www.bohemiancoding.com/sketch/ns">
    <title>Group 16 Copy</title>
    <desc>Created with Sketch.</desc>
    <defs></defs>
    <g id="Page-1" stroke="none" stroke-width="1" fill="none" fill-rule="evenodd" sketch:type="MSPage">
        <g id="Group-16-Copy" sketch:type="MSLayerGroup">
            <rect id="Rectangle-59" stroke="#ABE6F8" fill="#FFFFFF" sketch:type="MSShapeGroup" x="0.5" y="1" width="100" height="60"></rect>
            <path d="M36.4003,3 L39.02,9.66666667 L34.8325,9.66666667 L5.6875,9.66666667 L1.5,9.66666667 L4.1197,3 L36.4003,3 Z" id="Rectangle-50" fill="#AAE5F9" sketch:type="MSShapeGroup"></path>
            <rect id="Rectangle-51" fill="#AAE5F9" sketch:type="MSShapeGroup" x="0.5" y="9" width="100" height="10"></rect>
            <path d="M21.004515,11.3333333 C19.6213095,11.3333333 18.5,12.4429954 18.5,13.8333333 L18.5,13.8333333 C18.5,15.2140452 19.6250227,16.3333333 21.0055946,16.3333333 L40.8816964,16.3333333 L90.002759,16.3333333 C91.3819471,16.3333333 92.5,15.2236713 92.5,13.8333333 L92.5,13.8333333 C92.5,12.4526215 91.3819191,11.3333333 89.995485,11.3333333 L21.004515,11.3333333 Z" id="Rectangle-52" fill="#FFFFFF" sketch:type="MSShapeGroup"></path>
            <rect id="Rectangle-73" stroke="#ABE6F8" sketch:type="MSShapeGroup" x="0" y="0" width="101" height="62"></rect>
            <path d="M97.9285714,14.5714286 L97.9285714,14.8571429 C97.9285714,14.8958335 97.9144347,14.9293153 97.8861607,14.9575893 C97.8578868,14.9858632 97.824405,15 97.7857143,15 L94.6428571,15 C94.6041665,15 94.5706847,14.9858632 94.5424107,14.9575893 C94.5141368,14.9293153 94.5,14.8958335 94.5,14.8571429 L94.5,14.5714286 C94.5,14.5327379 94.5141368,14.4992561 94.5424107,14.4709821 C94.5706847,14.4427082 94.6041665,14.4285714 94.6428571,14.4285714 L97.7857143,14.4285714 C97.824405,14.4285714 97.8578868,14.4427082 97.8861607,14.4709821 C97.9144347,14.4992561 97.9285714,14.5327379 97.9285714,14.5714286 L97.9285714,14.5714286 Z M97.9285714,13.4285714 L97.9285714,13.7142857 C97.9285714,13.7529764 97.9144347,13.7864582 97.8861607,13.8147321 C97.8578868,13.8430061 97.824405,13.8571429 97.7857143,13.8571429 L94.6428571,13.8571429 C94.6041665,13.8571429 94.5706847,13.8430061 94.5424107,13.8147321 C94.5141368,13.7864582 94.5,13.7529764 94.5,13.7142857 L94.5,13.4285714 C94.5,13.3898808 94.5141368,13.356399 94.5424107,13.328125 C94.5706847,13.299851 94.6041665,13.2857143 94.6428571,13.2857143 L97.7857143,13.2857143 C97.824405,13.2857143 97.8578868,13.299851 97.8861607,13.328125 C97.9144347,13.356399 97.9285714,13.3898808 97.9285714,13.4285714 L97.9285714,13.4285714 Z M97.9285714,12.2857143 L97.9285714,12.5714286 C97.9285714,12.6101192 97.9144347,12.643601 97.8861607,12.671875 C97.8578868,12.700149 97.824405,12.7142857 97.7857143,12.7142857 L94.6428571,12.7142857 C94.6041665,12.7142857 94.5706847,12.700149 94.5424107,12.671875 C94.5141368,12.643601 94.5,12.6101192 94.5,12.5714286 L94.5,12.2857143 C94.5,12.2470236 94.5141368,12.2135418 94.5424107,12.1852679 C94.5706847,12.1569939 94.6041665,12.1428571 94.6428571,12.1428571 L97.7857143,12.1428571 C97.824405,12.1428571 97.8578868,12.1569939 97.8861607,12.1852679 C97.9144347,12.2135418 97.9285714,12.2470236 97.9285714,12.2857143 L97.9285714,12.2857143 Z" id="-7" fill="#FFFFFF" sketch:type="MSShapeGroup"></path>
            <path d="M5.92857143,13.5714286 L5.92857143,13.8571429 C5.92857143,13.9360123 5.90439012,14.0033479 5.85602679,14.0591518 C5.80766345,14.1149556 5.74479205,14.1428571 5.66741071,14.1428571 L4.09598214,14.1428571 L4.75,14.7991071 C4.8065479,14.8526788 4.83482143,14.9196425 4.83482143,15 C4.83482143,15.0803575 4.8065479,15.1473212 4.75,15.2008929 L4.58258929,15.3705357 C4.52752949,15.4255955 4.46056587,15.453125 4.38169643,15.453125 C4.30431509,15.453125 4.23660743,15.4255955 4.17857143,15.3705357 L2.72544643,13.9151786 C2.67038663,13.8601188 2.64285714,13.7931552 2.64285714,13.7142857 C2.64285714,13.6369044 2.67038663,13.5691967 2.72544643,13.5111607 L4.17857143,12.0602679 C4.23511933,12.00372 4.30282699,11.9754464 4.38169643,11.9754464 C4.45907777,11.9754464 4.52604138,12.00372 4.58258929,12.0602679 L4.75,12.2254464 C4.8065479,12.2819943 4.83482143,12.349702 4.83482143,12.4285714 C4.83482143,12.5074409 4.8065479,12.5751485 4.75,12.6316964 L4.09598214,13.2857143 L5.66741071,13.2857143 C5.74479205,13.2857143 5.80766345,13.3136158 5.85602679,13.3694196 C5.90439012,13.4252235 5.92857143,13.4925591 5.92857143,13.5714286 L5.92857143,13.5714286 Z" id="Type-something-13" fill="#FFFFFF" sketch:type="MSShapeGroup"></path>
            <path d="M10.9285714,13.5714286 L10.9285714,13.8571429 C10.9285714,13.9360123 10.9043901,14.0033479 10.8560268,14.0591518 C10.8076634,14.1149556 10.7447921,14.1428571 10.6674107,14.1428571 L9.09598214,14.1428571 L9.75,14.7991071 C9.8065479,14.8526788 9.83482143,14.9196425 9.83482143,15 C9.83482143,15.0803575 9.8065479,15.1473212 9.75,15.2008929 L9.58258929,15.3705357 C9.52752949,15.4255955 9.46056587,15.453125 9.38169643,15.453125 C9.30431509,15.453125 9.23660743,15.4255955 9.17857143,15.3705357 L7.72544643,13.9151786 C7.67038663,13.8601188 7.64285714,13.7931552 7.64285714,13.7142857 C7.64285714,13.6369044 7.67038663,13.5691967 7.72544643,13.5111607 L9.17857143,12.0602679 C9.23511933,12.00372 9.30282699,11.9754464 9.38169643,11.9754464 C9.45907777,11.9754464 9.52604138,12.00372 9.58258929,12.0602679 L9.75,12.2254464 C9.8065479,12.2819943 9.83482143,12.349702 9.83482143,12.4285714 C9.83482143,12.5074409 9.8065479,12.5751485 9.75,12.6316964 L9.09598214,13.2857143 L10.6674107,13.2857143 C10.7447921,13.2857143 10.8076634,13.3136158 10.8560268,13.3694196 C10.9043901,13.4252235 10.9285714,13.4925591 10.9285714,13.5714286 L10.9285714,13.5714286 Z" id="Type-something-14" fill="#FFFFFF" sketch:type="MSShapeGroup" transform="translate(9.285714, 13.714286) scale(-1, 1) translate(-9.285714, -13.714286) "></path>
            <path d="M16.9285714,12.1428571 L16.9285714,13.1428571 C16.9285714,13.1815478 16.9144347,13.2150296 16.8861607,13.2433036 C16.8578868,13.2715775 16.824405,13.2857143 16.7857143,13.2857143 L15.7857143,13.2857143 C15.723214,13.2857143 15.6793156,13.2559527 15.6540179,13.1964286 C15.6287201,13.1383926 15.6391367,13.0870538 15.6852679,13.0424107 L15.9933036,12.734375 C15.7730644,12.5305049 15.5133944,12.4285714 15.2142857,12.4285714 C15.059523,12.4285714 14.9118311,12.4587051 14.7712054,12.5189732 C14.6305797,12.5792414 14.5089291,12.6607138 14.40625,12.7633929 C14.3035709,12.8660719 14.2220985,12.9877225 14.1618304,13.1283482 C14.1015622,13.2689739 14.0714286,13.4166659 14.0714286,13.5714286 C14.0714286,13.7261912 14.1015622,13.8738832 14.1618304,14.0145089 C14.2220985,14.1551346 14.3035709,14.2767852 14.40625,14.3794643 C14.5089291,14.4821434 14.6305797,14.5636158 14.7712054,14.6238839 C14.9118311,14.6841521 15.059523,14.7142857 15.2142857,14.7142857 C15.3913699,14.7142857 15.558779,14.6755956 15.7165179,14.5982143 C15.8742567,14.5208329 16.0074399,14.411459 16.1160714,14.2700893 C16.1264881,14.2552083 16.1436011,14.2462798 16.1674107,14.2433036 C16.1882442,14.2433036 16.2068452,14.2499999 16.2232143,14.2633929 L16.5290179,14.5714286 C16.5424108,14.5833334 16.5494792,14.5985862 16.5502232,14.6171875 C16.5509673,14.6357888 16.545387,14.6525297 16.5334821,14.6674107 C16.371279,14.8638403 16.1748523,15.0159965 15.9441964,15.1238839 C15.7135405,15.2317714 15.4702394,15.2857143 15.2142857,15.2857143 C14.9821417,15.2857143 14.7604177,15.2403278 14.5491071,15.1495536 C14.3377966,15.0587793 14.1555067,14.9367567 14.0022321,14.7834821 C13.8489576,14.6302076 13.726935,14.4479177 13.6361607,14.2366071 C13.5453865,14.0252966 13.5,13.8035726 13.5,13.5714286 C13.5,13.3392846 13.5453865,13.1175606 13.6361607,12.90625 C13.726935,12.6949394 13.8489576,12.5126496 14.0022321,12.359375 C14.1555067,12.2061004 14.3377966,12.0840778 14.5491071,11.9933036 C14.7604177,11.9025293 14.9821417,11.8571429 15.2142857,11.8571429 C15.4330368,11.8571429 15.6447162,11.8984371 15.8493304,11.9810268 C16.0539445,12.0636165 16.2358623,12.1800588 16.3950893,12.3303571 L16.6852679,12.0424107 C16.7284228,11.9962795 16.7805056,11.985863 16.8415179,12.0111607 C16.8995539,12.0364585 16.9285714,12.0803568 16.9285714,12.1428571 L16.9285714,12.1428571 Z" id="-5" fill="#FFFFFF" sketch:type="MSShapeGroup"></path>
        </g>
        <path d="M26.1590909,19.5366859 L47.5002927,19.5366859 C48.6101074,19.5366859 49.5,20.4291518 49.5,21.5300642 L49.5,36.8494299 C49.5,37.9375286 48.6047006,38.8428083 47.5002927,38.8428083 L15.4997073,38.8428083 C14.3898926,38.8428083 13.5,37.9503424 13.5,36.8494299 L13.5,21.5300642 C13.5,20.4419656 14.3952994,19.5366859 15.4997073,19.5366859 L18.3409091,19.5366859 L22.25,16.8428083 L26.1590909,19.5366859 Z" id="Rectangle-59-Copy" stroke="#92CB3E" stroke-width="2" fill="#FFFFFF" sketch:type="MSShapeGroup"></path>
        <path d="M37.0096131,31 C35.8997344,31 35,31.8877296 35,33 L35,33 C35,34.1045695 35.8933569,35 36.9971942,35 L36.0360952,35 C37.1426425,35 38.9357226,35 40.0331547,35 L43.0533191,35 C44.1560555,35 45.05,34.1122704 45.05,33 L45.05,33 C45.05,31.8954305 44.1581295,31 43.0403869,31 L37.0096131,31 Z" id="Rectangle-54-Copy" stroke="#92CB3E" fill="#FFFFFF" sketch:type="MSShapeGroup"></path>
        <path d="M26.0096131,31 C24.8997344,31 24,31.8877296 24,33 L24,33 C24,34.1045695 24.8933569,35 25.9971942,35 L25.0360952,35 C26.1426425,35 27.9357226,35 29.0331547,35 L32.0533191,35 C33.1560555,35 34.05,34.1122704 34.05,33 L34.05,33 C34.05,31.8954305 33.1581295,31 32.0403869,31 L26.0096131,31 Z" id="Rectangle-55-Copy" stroke="#92CB3E" fill="#FFFFFF" sketch:type="MSShapeGroup"></path>
        <path d="M22,23.2678571 L22,26.3035714 C22,26.3816968 21.963728,26.4365698 21.891183,26.468192 C21.8670014,26.4774926 21.8437501,26.4821429 21.8214286,26.4821429 C21.7712051,26.4821429 21.7293528,26.4644719 21.6958705,26.4291295 L20.5714286,25.3046875 L20.5714286,25.7678571 C20.5714286,25.9892124 20.4928393,26.1784776 20.3356585,26.3356585 C20.1784776,26.4928393 19.9892124,26.5714286 19.7678571,26.5714286 L17.8035714,26.5714286 C17.5822162,26.5714286 17.3929509,26.4928393 17.2357701,26.3356585 C17.0785892,26.1784776 17,25.9892124 17,25.7678571 L17,23.8035714 C17,23.5822162 17.0785892,23.3929509 17.2357701,23.2357701 C17.3929509,23.0785892 17.5822162,23 17.8035714,23 L19.7678571,23 C19.9892124,23 20.1784776,23.0785892 20.3356585,23.2357701 C20.4928393,23.3929509 20.5714286,23.5822162 20.5714286,23.8035714 L20.5714286,24.2639509 L21.6958705,23.1422991 C21.7293528,23.1069567 21.7712051,23.0892857 21.8214286,23.0892857 C21.8437501,23.0892857 21.8670014,23.093936 21.891183,23.1032366 C21.963728,23.1348588 22,23.1897318 22,23.2678571 L22,23.2678571 Z" id="-copy" fill="#00AF84" sketch:type="MSShapeGroup"></path>
        <path d="M23,12.8606655 L23,14.682094 C23,14.7289693 22.9782368,14.761893 22.9347098,14.7808664 C22.9202008,14.7864467 22.9062501,14.7892369 22.8928571,14.7892369 C22.8627231,14.7892369 22.8376117,14.7786343 22.8175223,14.7574289 L22.1428571,14.0827637 L22.1428571,14.3606655 C22.1428571,14.4934786 22.0957036,14.6070378 22.0013951,14.7013463 C21.9070866,14.7956548 21.7935274,14.8428083 21.6607143,14.8428083 L20.4821429,14.8428083 C20.3493297,14.8428083 20.2357706,14.7956548 20.1414621,14.7013463 C20.0471535,14.6070378 20,14.4934786 20,14.3606655 L20,13.182094 C20,13.0492809 20.0471535,12.9357217 20.1414621,12.8414132 C20.2357706,12.7471047 20.3493297,12.6999512 20.4821429,12.6999512 L21.6607143,12.6999512 C21.7935274,12.6999512 21.9070866,12.7471047 22.0013951,12.8414132 C22.0957036,12.9357217 22.1428571,13.0492809 22.1428571,13.182094 L22.1428571,13.4583217 L22.8175223,12.7853306 C22.8376117,12.7641252 22.8627231,12.7535226 22.8928571,12.7535226 C22.9062501,12.7535226 22.9202008,12.7563128 22.9347098,12.7618931 C22.9782368,12.7808664 23,12.8137902 23,12.8606655 L23,12.8606655 Z" id="Type-something-15-Copy" fill="#00AF84" sketch:type="MSShapeGroup"></path>
    </g>
</svg>
