<svg width="568" height="148" viewBox="0 0 568 148" xmlns="http://www.w3.org/2000/svg" xmlns:xlink="http://www.w3.org/1999/xlink"><title>Fill 1 Copy</title><style>use:not(:target) { display: none; } use { fill: #383838; } use[id$=&quot;-white&quot;] { fill: #fff; }</style><defs><path id="mozilla-logo" d="M23.39 42.294c1.72 2.656 2.478 5.026 3.44 10.024 6.728-6.568 15.025-10.024 24.08-10.024 8.18 0 14.89 2.656 20.085 8.077 1.4 1.36 2.75 3.113 3.913 4.833 9.038-9.257 17.132-12.91 27.976-12.91 7.722 0 15.042 2.31 19.51 6.156 5.583 4.823 7.353 10.622 7.353 24.124v70.244h-25.092V77.606c0-11.82-1.4-14.107-8.13-14.107-4.822 0-11.6 3.29-17.166 8.305v71.013H54.872V78.533c0-12.326-1.787-15.22-8.97-15.22-4.773 0-11.384 2.472-16.95 7.514v71.99H3.694V73.913c0-14.266-.978-20.43-3.693-25.277l23.39-6.34zm152.244 28.92c-1.772 5.228-2.715 12.168-2.715 22.016 0 11.357 1.162 19.89 3.27 24.89 2.327 5.406 8.146 8.104 13.12 8.104 11.197 0 15.986-10.025 15.986-33.372 0-13.324-1.737-22.025-5.193-26.476-2.48-3.255-6.51-5.194-11.164-5.194-6.19 0-11.216 3.844-13.306 10.032zm46.49-14.265c7.893 9.257 11.418 20.057 11.418 36.07 0 16.982-3.895 28.582-12.412 38.212-7.486 8.483-17.352 13.71-32.563 13.71-26.863 0-44.384-20.076-44.384-51.13 0-31.08 17.706-51.738 44.384-51.738 14.08 0 25.077 4.84 33.558 14.875zm94.588-12.935V61.77l-43.64 63.096h45.344l-6.19 17.952h-72.713v-16.012l46.46-64.645H243.39V44.016h73.322zm40.694-2.328v101.13h-25.853V45.75l25.853-4.063zm3.035-24.874c0 8.89-7.066 15.987-16.002 15.987-8.652 0-15.767-7.098-15.767-15.987 0-8.87 7.353-16.03 16.204-16.03 8.67 0 15.567 7.16 15.567 16.03zm44.048 8.89v76.98c0 17.006.203 19.292 1.755 21.99.977 1.753 3.068 2.698 5.227 2.698.927 0 1.483 0 2.883-.354l4.42 15.42c-4.42 1.73-9.832 2.693-15.43 2.693-11.03 0-19.9-5.197-22.97-13.477-1.94-5.024-2.36-8.127-2.36-22.208V35.7c0-12.918-.337-20.81-1.3-29.722L403.157 0c.926 5.397 1.33 11.77 1.33 25.702zm53.625 0v76.98c0 17.006.22 19.292 1.806 21.99.91 1.753 3 2.698 5.16 2.698.977 0 1.567 0 2.933-.354l4.402 15.42c-4.402 1.73-9.816 2.693-15.432 2.693-11.01 0-19.897-5.197-22.983-13.477-1.973-5.024-2.294-8.127-2.294-22.208V35.7c0-12.918-.387-20.81-1.383-29.722L456.73 0c1.064 5.397 1.383 11.77 1.383 25.702zm74.082 73.894c-17.875 0-24.148 3.254-24.148 15.076 0 7.688 4.89 12.9 11.45 12.9 4.806 0 9.664-2.513 13.492-6.746l.42-21.23h-1.215zM498.687 47.69c9.613-4.064 17.878-5.785 26.983-5.785 16.628 0 27.993 6.157 31.888 17.167 1.282 4.05 1.872 7.135 1.755 17.757L558.687 110v1.752c0 10.607 1.755 14.672 9.313 20.255l-13.73 15.85c-6.038-2.53-11.416-6.98-13.93-11.982-1.905 1.948-4.047 3.837-6.003 5.202-4.79 3.476-11.787 5.414-19.883 5.414-22.005 0-33.96-11.215-33.96-30.86 0-23.196 16.053-34.015 47.485-34.015 1.888 0 3.676 0 5.818.22v-4.03c0-11.02-2.142-14.69-11.653-14.69-8.196 0-17.926 4.03-28.517 11.19l-11.012-18.533c5.245-3.29 9.108-5.203 16.07-8.087z"/></defs><use id="logo" xlink:href="#mozilla-logo"/><use id="logo-white" xlink:href="#mozilla-logo"/></svg>