/* XPM */
static char * check_off_xpm[] = {
"15 15 4 1",
" 	c None",
".	c #000000",
"+	c #FFFFFF",
"@	c #FEFEFE",
"...............",
"...............",
"..+@+++++++++..",
"..+++++++++++..",
"..+++++++++++..",
"..+++++++++++..",
"..+++++++++++..",
"..+++++++++++..",
"..+++++++++++..",
"..+++++++++++..",
"..+++++++++++..",
"..+++++++++++..",
"..+++++++++++..",
"...............",
"..............."};
