<!-- may be protected as a trademark in some jurisdictions -->
<svg xmlns="http://www.w3.org/2000/svg" width="135" height="40" xml:space="preserve"><path fill="#A6A6A6" d="M130.197 40H4.729A4.74 4.74 0 0 1 0 35.267V4.726A4.733 4.733 0 0 1 4.729 0h125.468C132.803 0 135 2.12 135 4.726v30.541c0 2.605-2.197 4.733-4.803 4.733z"/><path d="M134.032 35.268a3.83 3.83 0 0 1-3.834 3.83H4.729a3.835 3.835 0 0 1-3.839-3.83V4.725A3.84 3.84 0 0 1 4.729.89h125.468a3.834 3.834 0 0 1 3.834 3.835l.001 30.543z"/><g fill="#FFF"><path d="M30.128 19.795c-.029-3.223 2.639-4.791 2.761-4.864-1.511-2.203-3.853-2.504-4.676-2.528-1.967-.207-3.875 1.177-4.877 1.177-1.022 0-2.565-1.157-4.228-1.123-2.14.033-4.142 1.272-5.24 3.196-2.266 3.923-.576 9.688 1.595 12.858 1.086 1.553 2.355 3.287 4.016 3.226 1.625-.067 2.232-1.036 4.193-1.036 1.943 0 2.513 1.036 4.207.997 1.744-.028 2.842-1.56 3.89-3.127 1.255-1.78 1.759-3.533 1.779-3.623-.04-.013-3.386-1.29-3.42-5.153zM26.928 10.317c.874-1.093 1.472-2.58 1.306-4.089-1.265.056-2.847.875-3.758 1.944-.806.942-1.526 2.486-1.34 3.938 1.421.106 2.88-.716 3.792-1.793z"/></g><g fill="#FFF"><path d="M53.646 31.516h-2.271l-1.244-3.91h-4.324l-1.185 3.91h-2.211l4.284-13.308h2.646l4.305 13.308zm-3.89-5.549-1.125-3.475c-.119-.355-.342-1.191-.671-2.508h-.04a97.65 97.65 0 0 1-.632 2.508l-1.105 3.475h3.573zM64.663 26.599c0 1.632-.441 2.923-1.323 3.87-.79.842-1.771 1.264-2.942 1.264-1.264 0-2.172-.455-2.725-1.363h-.04v5.055h-2.132V25.078c0-1.026-.027-2.079-.079-3.158h1.875l.119 1.52h.04c.711-1.145 1.79-1.717 3.238-1.717 1.132 0 2.077.447 2.833 1.342.757.895 1.136 2.073 1.136 3.534zm-2.172.079c0-.935-.21-1.705-.632-2.311-.461-.631-1.08-.947-1.856-.947-.526 0-1.004.175-1.431.523a2.423 2.423 0 0 0-.839 1.372c-.066.264-.099.48-.099.651v1.6c0 .697.214 1.287.642 1.768s.984.721 1.668.721c.803 0 1.428-.311 1.875-.928.448-.619.672-1.436.672-2.449zM75.7 26.599c0 1.632-.441 2.923-1.324 3.87-.789.842-1.77 1.264-2.941 1.264-1.264 0-2.172-.455-2.725-1.363h-.039v5.055h-2.132V25.078c0-1.026-.027-2.079-.079-3.158h1.875l.119 1.52h.04c.711-1.145 1.789-1.717 3.238-1.717 1.131 0 2.076.447 2.834 1.342.755.895 1.134 2.073 1.134 3.534zm-2.172.079c0-.935-.211-1.705-.633-2.311-.461-.631-1.078-.947-1.855-.947-.527 0-1.004.175-1.432.523s-.707.807-.839 1.372c-.065.264-.099.48-.099.651v1.6c0 .697.214 1.287.641 1.768.428.48.984.721 1.67.721.803 0 1.428-.311 1.875-.928.448-.619.672-1.436.672-2.449zM88.04 27.783c0 1.133-.394 2.053-1.182 2.764-.867.777-2.075 1.166-3.625 1.166-1.432 0-2.581-.277-3.449-.83l.494-1.777c.935.566 1.962.85 3.081.85.804 0 1.429-.182 1.877-.543.447-.363.671-.848.671-1.455 0-.539-.185-.994-.553-1.363s-.98-.713-1.836-1.029c-2.33-.869-3.495-2.143-3.495-3.816 0-1.094.408-1.991 1.225-2.69.815-.699 1.901-1.048 3.258-1.048 1.211 0 2.218.211 3.021.632l-.533 1.738c-.75-.408-1.599-.612-2.547-.612-.75 0-1.336.185-1.757.553a1.58 1.58 0 0 0-.533 1.204c0 .526.204.961.612 1.304.355.315 1 .658 1.935 1.026 1.146.461 1.987 1.001 2.527 1.618.54.617.809 1.387.809 2.308zM95.088 23.519h-2.35v4.659c0 1.186.415 1.777 1.244 1.777.382 0 .697-.033.948-.098l.059 1.619c-.421.156-.974.236-1.658.236-.843 0-1.501-.258-1.975-.77-.474-.514-.711-1.377-.711-2.588v-4.837h-1.401V21.92h1.401v-1.758l2.093-.632v2.39h2.35v1.599zM105.691 26.639c0 1.475-.422 2.686-1.264 3.633-.882.975-2.054 1.461-3.515 1.461-1.409 0-2.53-.467-3.366-1.402-.836-.934-1.254-2.113-1.254-3.533 0-1.488.431-2.705 1.293-3.653s2.024-1.421 3.485-1.421c1.408 0 2.54.467 3.396 1.401.817.907 1.225 2.078 1.225 3.514zm-2.212.068c0-.885-.19-1.643-.572-2.277-.447-.766-1.086-1.148-1.915-1.148-.856 0-1.508.383-1.955 1.148-.382.635-.572 1.406-.572 2.317 0 .885.19 1.644.572 2.276.461.766 1.105 1.148 1.936 1.148.815 0 1.454-.389 1.915-1.168.394-.646.591-1.411.591-2.296zM112.621 23.795a3.69 3.69 0 0 0-.671-.059c-.751 0-1.33.283-1.738.849-.355.501-.533 1.132-.533 1.896v5.035h-2.132l.02-6.575c0-1.106-.026-2.112-.079-3.021h1.856l.079 1.836h.059c.224-.632.579-1.139 1.066-1.521a2.572 2.572 0 0 1 1.54-.513c.197 0 .375.013.533.039v2.034zM122.157 26.264c0 .381-.026.703-.079.967h-6.396c.025.947.335 1.672.928 2.172.539.447 1.237.672 2.093.672.947 0 1.81-.152 2.587-.455l.335 1.48c-.908.396-1.981.594-3.218.594-1.488 0-2.656-.438-3.505-1.314-.849-.875-1.273-2.049-1.273-3.523 0-1.447.395-2.652 1.185-3.613.829-1.027 1.948-1.54 3.356-1.54 1.382 0 2.429.513 3.14 1.54.564.815.847 1.821.847 3.02zm-2.033-.553c.013-.633-.126-1.179-.415-1.64-.368-.593-.935-.888-1.698-.888-.697 0-1.264.289-1.697.868-.355.461-.566 1.014-.632 1.659h4.442z"/></g><g fill="#FFF"><path d="M47.867 8.808c0 .602-.178 1.083-.533 1.445-.459.472-1.129.708-2.008.708a2.9 2.9 0 0 1-.602-.048v2.532h-1.048V6.994a9.703 9.703 0 0 1 1.711-.136c.83 0 1.455.178 1.877.534.402.349.603.821.603 1.416zm-1.048.048c0-.382-.122-.674-.366-.878-.245-.204-.586-.306-1.023-.306-.29 0-.525.02-.705.058v2.348c.147.039.351.058.608.058.463 0 .827-.113 1.091-.339.264-.226.395-.54.395-.941zM53.727 11.048c0 .725-.207 1.319-.621 1.785-.434.479-1.009.718-1.727.718-.692 0-1.243-.229-1.654-.689-.41-.459-.615-1.038-.615-1.736 0-.73.211-1.329.635-1.794s.994-.698 1.712-.698c.692 0 1.248.229 1.669.688.399.446.601 1.022.601 1.726zm-1.087.035c0-.435-.094-.808-.281-1.119-.22-.376-.533-.564-.94-.564-.421 0-.741.188-.961.564-.188.311-.281.69-.281 1.138 0 .435.094.808.281 1.119.227.376.543.564.951.564.4 0 .714-.191.94-.574.194-.318.291-.694.291-1.128zM59.769 11.02c0 .795-.22 1.429-.659 1.901-.388.42-.863.631-1.426.631-.673 0-1.168-.278-1.484-.834h-.02l-.058.728h-.893c.025-.381.038-.805.038-1.271V6.567h1.048v2.852h.02c.311-.524.812-.786 1.504-.786a1.72 1.72 0 0 1 1.392.655c.358.437.538 1.014.538 1.732zm-1.067.038c0-.459-.104-.834-.311-1.125a1.076 1.076 0 0 0-.922-.476c-.259 0-.491.084-.698.252s-.346.391-.417.669a1.43 1.43 0 0 0-.039.33v.824c0 .324.108.602.325.834s.486.349.81.349c.395 0 .702-.148.922-.446.22-.296.33-.7.33-1.211zM62.485 7.324a.603.603 0 0 1-.184.456.661.661 0 0 1-.476.175.611.611 0 0 1-.621-.63c0-.181.062-.33.185-.446s.274-.175.456-.175a.64.64 0 0 1 .456.175.582.582 0 0 1 .184.445zm-.116 6.12h-1.048V8.73h1.048v4.714zM68.111 10.864c0 .188-.014.346-.039.475H64.93c.013.466.164.821.455 1.067.266.22.608.33 1.028.33.466 0 .89-.074 1.271-.223l.164.728c-.446.194-.973.291-1.581.291-.73 0-1.305-.215-1.722-.645s-.625-1.007-.625-1.731c0-.711.193-1.303.582-1.775.407-.504.956-.756 1.648-.756.679 0 1.193.252 1.542.756.28.4.419.895.419 1.483zm-1-.271a1.427 1.427 0 0 0-.203-.805c-.182-.291-.459-.437-.834-.437a.997.997 0 0 0-.835.427 1.577 1.577 0 0 0-.31.815h2.182zM72.126 9.652a1.74 1.74 0 0 0-.33-.029c-.368 0-.652.139-.854.417-.174.246-.262.556-.262.931v2.474h-1.048l.01-3.23c0-.543-.013-1.038-.038-1.484h.911l.039.902h.029c.109-.311.284-.56.523-.747.233-.168.485-.252.757-.252.097 0 .185.006.262.019v.999zM76.83 13.444h-3.841v-.611l1.882-2.473c.116-.155.329-.411.64-.767v-.019h-2.338V8.73h3.608v.65l-1.843 2.435c-.207.265-.42.521-.64.766v.02h2.531v.843zM87.365 8.73l-1.475 4.714h-.96l-.611-2.047a15.32 15.32 0 0 1-.379-1.523h-.019a11.15 11.15 0 0 1-.379 1.523l-.649 2.047h-.971L80.536 8.73h1.077l.533 2.241c.129.53.235 1.035.32 1.513h.019c.078-.394.207-.896.389-1.503l.669-2.25h.854l.641 2.202c.155.537.281 1.054.378 1.552h.029c.071-.485.178-1.002.32-1.552l.572-2.202h1.028z"/></g></svg>
