<?xml version="1.0" encoding="utf-8"?>
<!-- Generator: Adobe Illustrator 12.0.1, SVG Export Plug-In . SVG Version: 6.00 Build 51448)  -->
<!DOCTYPE svg PUBLIC "-//W3C//DTD SVG 1.1//EN" "http://www.w3.org/Graphics/SVG/1.1/DTD/svg11.dtd" [
	<!ENTITY ns_svg "http://www.w3.org/2000/svg">
	<!ENTITY ns_xlink "http://www.w3.org/1999/xlink">
]>
<svg  version="1.1" id="Layer_1" xmlns="&ns_svg;" xmlns:xlink="&ns_xlink;" width="120.878" height="118.694"
	 viewBox="0 0 120.878 118.694" overflow="visible" enable-background="new 0 0 120.878 118.694" xml:space="preserve">
<g opacity="0.5">
	<linearGradient id="XMLID_14_" gradientUnits="userSpaceOnUse" x1="45.3896" y1="42.9922" x2="94.1074" y2="195.9121">
		<stop  offset="0" style="stop-color:#FFFFFF"/>
		<stop  offset="1" style="stop-color:#000000"/>
	</linearGradient>
	<polygon fill="url(#XMLID_14_)" points="86.085,118.694 2.183,118.694 37.645,38.65 114.944,49.994 	"/>
</g>
<g>
	
		<radialGradient id="XMLID_15_" cx="19.9141" cy="61.7109" r="414.905" gradientTransform="matrix(0.9976 -0.0506 -0.0506 1.2164 7.3781 -11.3233)" gradientUnits="userSpaceOnUse">
		<stop  offset="0" style="stop-color:#FFFFFF"/>
		<stop  offset="1" style="stop-color:#000000"/>
	</radialGradient>
	<polygon fill="url(#XMLID_15_)" points="83.346,115.662 0.877,114.395 38.645,32.65 111.579,37.74 	"/>
	<polygon fill="none" stroke="#636363" stroke-width="1.1301" points="83.346,115.662 0.877,114.395 38.645,32.65 111.579,37.74 	
		"/>
</g>
<g>
	<g>
		<g opacity="0.3">
			<linearGradient id="XMLID_16_" gradientUnits="userSpaceOnUse" x1="122.0625" y1="128.1094" x2="37.0625" y2="41.1094">
				<stop  offset="0" style="stop-color:#FFFFFF"/>
				<stop  offset="1" style="stop-color:#000000"/>
			</linearGradient>
			<path fill="url(#XMLID_16_)" d="M105.522,99.075c0,0-1.608,5.984-14.342,7.505c-12.749,1.59-75.236,4.414-75.236,4.414
				l18.283-81.75l66.717-14.25L105.522,99.075z"/>
		</g>
		<linearGradient id="XMLID_17_" gradientUnits="userSpaceOnUse" x1="49.874" y1="54.0225" x2="235.874" y2="236.0225">
			<stop  offset="0" style="stop-color:#FFFFFF"/>
			<stop  offset="1" style="stop-color:#000000"/>
		</linearGradient>
		<path fill="url(#XMLID_17_)" stroke="#636363" d="M97.697,87.354c0,0-1.243,5.703-13.632,8.254
			c-12.389,2.552-71.55,12.492-71.55,12.492l10.606-74.392L94.716,7.268L97.697,87.354z"/>
		<path fill="none" stroke="#636363" d="M97.697,87.354c0,0-1.243,5.703-13.632,8.254c-12.389,2.552-71.55,12.492-71.55,12.492
			l10.606-74.392L94.716,7.268L97.697,87.354z"/>
	</g>
	<g>
		<line fill="none" stroke="#636363" stroke-linecap="round" x1="34.104" y1="44.859" x2="57.044" y2="37.136"/>
	</g>
	<g>
		<line fill="none" stroke="#636363" stroke-linecap="round" x1="33.243" y1="57.063" x2="80.722" y2="43.675"/>
	</g>
	<g>
		<line fill="none" stroke="#636363" stroke-linecap="round" x1="32.292" y1="69.156" x2="81.125" y2="57.506"/>
	</g>
	<g>
		<line fill="none" stroke="#636363" stroke-linecap="round" x1="32.292" y1="80.156" x2="70.11" y2="72.442"/>
	</g>
	<g>
		<linearGradient id="XMLID_18_" gradientUnits="userSpaceOnUse" x1="113.5693" y1="84.1787" x2="-10.5383" y2="110.0345">
			<stop  offset="0" style="stop-color:#FFFFFF"/>
			<stop  offset="1" style="stop-color:#000000"/>
		</linearGradient>
		<path fill="url(#XMLID_18_)" stroke="#636363" d="M12.516,108.101c0,0,69.753-17.101,72.975-23.04
			c5.4,10.745,10.206,8.368,12.278,2.732c0.372,7.261-20.251,7.977-29.477,10.016C55.361,100.657,12.516,108.101,12.516,108.101z"/>
		<path fill="none" stroke="#636363" d="M12.516,108.101c0,0,69.753-17.101,72.975-23.04c5.4,10.745,10.206,8.368,12.278,2.732
			c0.372,7.261-20.251,7.977-29.477,10.016C55.361,100.657,12.516,108.101,12.516,108.101z"/>
	</g>
</g>
<radialGradient id="XMLID_19_" cx="71.7324" cy="58.6123" r="44.8292" gradientTransform="matrix(0.7344 0 0 0.2606 16.9939 56)" gradientUnits="userSpaceOnUse">
	<stop  offset="0" style="stop-color:#000000"/>
	<stop  offset="1" style="stop-color:#FFFFFF"/>
</radialGradient>
<ellipse opacity="0.3" fill="url(#XMLID_19_)" cx="82.458" cy="72.566" rx="18.482" ry="5.668"/>
<g>
	<g>
		<linearGradient id="XMLID_20_" gradientUnits="userSpaceOnUse" x1="82.0547" y1="36.7969" x2="93.4023" y2="45.7803">
			<stop  offset="0" style="stop-color:#FFFFFF"/>
			<stop  offset="0.309" style="stop-color:#FECC99"/>
			<stop  offset="0.7022" style="stop-color:#FFFFFF"/>
			<stop  offset="1" style="stop-color:#FF9900"/>
		</linearGradient>
		<polyline fill="url(#XMLID_20_)" stroke="#636363" points="77.399,68.816 110.597,22.856 98.55,14.152 65.352,60.11 		"/>
		
			<linearGradient id="XMLID_21_" gradientUnits="userSpaceOnUse" x1="86.6074" y1="38.6143" x2="88.8243" y2="39.9175" gradientTransform="matrix(0.9916 0.1296 -0.1296 0.9916 5.0528 -11.7044)">
			<stop  offset="0" style="stop-color:#FFFFFF"/>
			<stop  offset="1" style="stop-color:#000000"/>
		</linearGradient>
		<line fill="url(#XMLID_21_)" stroke="#636363" x1="100.724" y1="17.544" x2="71.443" y2="58.326"/>
		
			<linearGradient id="XMLID_22_" gradientUnits="userSpaceOnUse" x1="93.127" y1="42.5732" x2="95.3427" y2="43.8759" gradientTransform="matrix(0.9916 0.1296 -0.1296 0.9916 5.0528 -11.7044)">
			<stop  offset="0" style="stop-color:#FFFFFF"/>
			<stop  offset="1" style="stop-color:#000000"/>
		</linearGradient>
		<line fill="url(#XMLID_22_)" stroke="#636363" x1="106.675" y1="22.313" x2="77.394" y2="63.096"/>
		<path stroke="#636363" d="M64.883,69.61l-0.434,4.313l3.771-1.382c0.021-1.019-0.315-1.904-1.026-2.418
			C66.444,69.583,65.896,69.202,64.883,69.61z"/>
	</g>
	
		<linearGradient id="XMLID_23_" gradientUnits="userSpaceOnUse" x1="73.6807" y1="68.958" x2="92.3691" y2="69.4252" gradientTransform="matrix(0.9916 0.1296 -0.1296 0.9916 5.0528 -11.7044)">
		<stop  offset="0" style="stop-color:#FFFFFF"/>
		<stop  offset="1" style="stop-color:#000000"/>
	</linearGradient>
	<path fill="url(#XMLID_23_)" stroke="#636363" d="M73.707,61.236c-3.282-2.37-8.356-1.093-8.356-1.093
		c-0.011,0.015-0.468,9.467-0.468,9.467c1.014-0.408,1.562-0.027,2.312,0.514c0.711,0.514,1.048,1.399,1.026,2.418l9.179-3.726
		C77.399,68.816,76.988,63.606,73.707,61.236z"/>
	<linearGradient id="XMLID_24_" gradientUnits="userSpaceOnUse" x1="103" y1="13.6816" x2="111.2344" y2="17.373">
		<stop  offset="0" style="stop-color:#FFFFFF"/>
		<stop  offset="1" style="stop-color:#0033CC"/>
	</linearGradient>
	<path fill="url(#XMLID_24_)" stroke="#636363" d="M112.787,20.245c-0.513,0.707-1.325,0.992-1.821,0.637l-10.657-7.699
		c-0.494-0.355-0.479-1.22,0.032-1.929l0.514-0.71c0.513-0.71,1.327-0.994,1.82-0.638l10.659,7.698
		c0.491,0.359,0.478,1.22-0.033,1.929L112.787,20.245z"/>
	<linearGradient id="XMLID_25_" gradientUnits="userSpaceOnUse" x1="105.2861" y1="8.5811" x2="113.5205" y2="12.2725">
		<stop  offset="0" style="stop-color:#FFFFFF"/>
		<stop  offset="1" style="stop-color:#0033CC"/>
	</linearGradient>
	<path fill="url(#XMLID_25_)" stroke="#636363" d="M116.128,15.619c-0.512,0.708-1.326,0.993-1.819,0.635L103.65,8.558
		c-0.492-0.359-0.479-1.222,0.032-1.929l0.514-0.712c0.512-0.709,1.328-0.993,1.821-0.639l10.657,7.7
		c0.494,0.356,0.479,1.221-0.032,1.928L116.128,15.619z"/>
	<linearGradient id="XMLID_26_" gradientUnits="userSpaceOnUse" x1="107.5723" y1="3.4814" x2="115.8066" y2="7.1729">
		<stop  offset="0" style="stop-color:#FFFFFF"/>
		<stop  offset="1" style="stop-color:#0033CC"/>
	</linearGradient>
	<path fill="url(#XMLID_26_)" stroke="#636363" d="M119.471,10.993c-0.513,0.708-1.327,0.992-1.821,0.636L106.991,3.93
		c-0.492-0.355-0.479-1.219,0.033-1.927l0.514-0.711c0.513-0.707,1.327-0.995,1.82-0.639l10.659,7.699
		c0.492,0.357,0.479,1.221-0.032,1.929L119.471,10.993z"/>
</g>
</svg>
