<?xml version="1.0" encoding="utf-8"?>
<!-- Generator: Adobe Illustrator 12.0.1, SVG Export Plug-In . SVG Version: 6.00 Build 51448)  -->
<!DOCTYPE svg PUBLIC "-//W3C//DTD SVG 1.1//EN" "http://www.w3.org/Graphics/SVG/1.1/DTD/svg11.dtd" [
	<!ENTITY ns_svg "http://www.w3.org/2000/svg">
	<!ENTITY ns_xlink "http://www.w3.org/1999/xlink">
]>
<svg  version="1.1" id="Layer_2" xmlns="&ns_svg;" xmlns:xlink="&ns_xlink;" width="106.794" height="116.758"
	 viewBox="0 0 106.794 116.758" overflow="visible" enable-background="new 0 0 106.794 116.758" xml:space="preserve">
<radialGradient id="XMLID_8_" cx="26.0884" cy="28.7266" r="19.3675" gradientUnits="userSpaceOnUse">
	<stop  offset="0" style="stop-color:#FFFFFF"/>
	<stop  offset="1" style="stop-color:#FF9900"/>
</radialGradient>
<path fill="url(#XMLID_8_)" d="M20.596,17.727h5.493V6.091h-5.493V17.727z M9.419,10.374l2.746,4.756l4.756-2.745l-2.746-4.757
	L9.419,10.374z M9.382,17.662l-4.756-2.745L1.88,19.673l4.756,2.746L9.382,17.662z M5.492,26.002H0v5.492h5.492V26.002z
	 M6.293,35.169l-4.757,2.746l2.746,4.756l4.756-2.745L6.293,35.169z M8.825,47.464l4.756,2.747l2.746-4.757l-4.757-2.747
	L8.825,47.464z M19.91,46.599v5.492h5.493v-5.492H19.91z M29.078,45.797l2.747,4.756l4.756-2.745l-2.747-4.757L29.078,45.797z
	 M36.616,40.521l4.757,2.745l2.746-4.757l-4.756-2.745L36.616,40.521z M40.506,26.688v5.492h5.493v-5.492H40.506z M39.706,23.013
	l4.758-2.746l-2.748-4.756l-4.756,2.745L39.706,23.013z M37.175,10.718l-4.757-2.747l-2.747,4.756l4.757,2.747L37.175,10.718z"/>
<linearGradient id="XMLID_9_" gradientUnits="userSpaceOnUse" x1="68.6387" y1="23.0171" x2="78.6411" y2="56.7764">
	<stop  offset="0" style="stop-color:#FFFFFF"/>
	<stop  offset="1" style="stop-color:#000000"/>
</linearGradient>
<path opacity="0.3" fill="url(#XMLID_9_)" d="M56.399,34.002h-7.422V6.058c0-11.548,41.818,1.825,41.818,13.372v25.42
	c0,11.547-9.361,20.908-20.91,20.908c-5.143,0-9.844-1.865-13.486-4.944V34.002z"/>
<g>
	
		<radialGradient id="XMLID_10_" cx="-424.7793" cy="4.5718" r="62.4927" gradientTransform="matrix(-1 0 0 1 -359.2129 0)" gradientUnits="userSpaceOnUse">
		<stop  offset="0" style="stop-color:#FFFFFF"/>
		<stop  offset="1" style="stop-color:#3399FF"/>
	</radialGradient>
	<path fill="url(#XMLID_10_)" stroke="#212121" d="M51.569,32.03h-7.229V4.814c0-11.247,40.728,1.777,40.728,13.024v24.757
		c0,11.245-9.117,20.362-20.364,20.362c-5.009,0-9.588-1.816-13.135-4.815V32.03z"/>
	<circle cx="55.684" cy="12.884" r="2.595"/>
</g>
<linearGradient id="XMLID_11_" gradientUnits="userSpaceOnUse" x1="83.7554" y1="67.9268" x2="101.5733" y2="94.1836">
	<stop  offset="0" style="stop-color:#FFFFFF"/>
	<stop  offset="1" style="stop-color:#000000"/>
</linearGradient>
<path opacity="0.3" fill="url(#XMLID_11_)" d="M99.373,77.002h7.422V49.058c0-11.548-41.818,1.825-41.818,13.372v25.42
	c0,11.547,9.361,20.908,20.91,20.908c5.143,0,9.844-1.865,13.486-4.944V77.002z"/>
<g>
	<radialGradient id="XMLID_12_" cx="82.6445" cy="37.582" r="62.4933" gradientUnits="userSpaceOnUse">
		<stop  offset="0" style="stop-color:#FFFFFF"/>
		<stop  offset="1" style="stop-color:#CC3300"/>
	</radialGradient>
	<path fill="url(#XMLID_12_)" stroke="#212121" stroke-width="0.8849" d="M96.642,65.041h7.229V37.825
		c0-11.247-40.729,1.777-40.729,13.023v24.757c0,11.247,9.118,20.363,20.364,20.363c5.009,0,9.588-1.815,13.135-4.815V65.041z"/>
	<circle cx="92.527" cy="45.895" r="2.595"/>
</g>
<linearGradient id="XMLID_13_" gradientUnits="userSpaceOnUse" x1="46.8623" y1="79.252" x2="63.4297" y2="102.6953">
	<stop  offset="0" style="stop-color:#FFFFFF"/>
	<stop  offset="1" style="stop-color:#000000"/>
</linearGradient>
<path opacity="0.3" fill="url(#XMLID_13_)" d="M37.399,85.002h-7.422V57.058c0-11.548,41.818,1.825,41.818,13.372v25.42
	c0,11.547-9.361,20.908-20.91,20.908c-5.143,0-9.844-1.865-13.486-4.944V85.002z"/>
<g>
	
		<radialGradient id="XMLID_14_" cx="-404.415" cy="51.6992" r="62.4931" gradientTransform="matrix(-1 0 0 1 -359.2129 0)" gradientUnits="userSpaceOnUse">
		<stop  offset="0" style="stop-color:#FFFFFF"/>
		<stop  offset="1" style="stop-color:#336600"/>
	</radialGradient>
	<path fill="url(#XMLID_14_)" stroke="#212121" stroke-width="0.8849" d="M31.206,79.158h-7.229V51.942
		c0-11.247,40.728,1.777,40.728,13.023v24.757c0,11.246-9.117,20.363-20.364,20.363c-5.009,0-9.588-1.816-13.135-4.815V79.158z"/>
	<circle cx="35.32" cy="60.012" r="2.595"/>
</g>
</svg>
