<?xml version="1.0" encoding="utf-8"?>
<!-- Generator: Adobe Illustrator 12.0.1, SVG Export Plug-In . SVG Version: 6.00 Build 51448)  -->
<!DOCTYPE svg PUBLIC "-//W3C//DTD SVG 1.1//EN" "http://www.w3.org/Graphics/SVG/1.1/DTD/svg11.dtd" [
	<!ENTITY ns_svg "http://www.w3.org/2000/svg">
	<!ENTITY ns_xlink "http://www.w3.org/1999/xlink">
]>
<svg  version="1.1" id="Layer_5" xmlns="&ns_svg;" xmlns:xlink="&ns_xlink;" width="121.378" height="124.988"
	 viewBox="0 0 121.378 124.988" overflow="visible" enable-background="new 0 0 121.378 124.988" xml:space="preserve">
<radialGradient id="XMLID_27_" cx="63.3848" cy="99.8408" r="17.5653" gradientTransform="matrix(3.0249 0 0 1.0238 -126.6039 4.6031)" gradientUnits="userSpaceOnUse">
	<stop  offset="0" style="stop-color:#000000"/>
	<stop  offset="1" style="stop-color:#FFFFFF"/>
</radialGradient>
<path opacity="0.5" fill="url(#XMLID_27_)" d="M120.233,106.628c0,10.14-24.283,18.36-54.247,18.36
	c-29.961,0-54.248-8.221-54.248-18.36c0-10.141,24.287-18.361,54.248-18.361C95.95,88.267,120.233,96.487,120.233,106.628z"/>
<g>
	<g>
		<g>
			<g>
				<defs>
					<path id="XMLID_2_" d="M110.477,67.751c-0.027,1.75-1.558,3.166-3.415,3.166h-92.81c-1.857,0-3.402-1.416-3.448-3.166
						l-0.178-57.005c0.035-1.75,1.573-3.166,3.431-3.166h92.862c1.857,0,3.396,1.416,3.431,3.166L110.477,67.751z"/>
				</defs>
				<clipPath id="XMLID_28_">
					<use xlink:href="#XMLID_2_" />
				</clipPath>
			</g>
		</g>
		<g>
			<g>
				<defs>
					<path id="XMLID_4_" d="M110.477,67.751c-0.027,1.75-1.558,3.166-3.415,3.166h-92.81c-1.857,0-3.402-1.416-3.448-3.166
						l-0.178-57.005c0.035-1.75,1.573-3.166,3.431-3.166h92.862c1.857,0,3.396,1.416,3.431,3.166L110.477,67.751z"/>
				</defs>
				<clipPath id="XMLID_29_">
					<use xlink:href="#XMLID_4_" />
				</clipPath>
			</g>
		</g>
		<g>
			<defs>
				<path id="XMLID_6_" d="M110.477,67.751c-0.027,1.75-1.558,3.166-3.415,3.166h-92.81c-1.857,0-3.402-1.416-3.448-3.166
					l-0.178-57.005c0.035-1.75,1.573-3.166,3.431-3.166h92.862c1.857,0,3.396,1.416,3.431,3.166L110.477,67.751z"/>
			</defs>
			<clipPath id="XMLID_30_">
				<use xlink:href="#XMLID_6_" />
			</clipPath>
		</g>
	</g>
	<g>
		<g>
			<g>
				<defs>
					<path id="XMLID_8_" d="M110.477,67.751c-0.027,1.75-1.558,3.166-3.415,3.166h-92.81c-1.857,0-3.402-1.416-3.448-3.166
						l-0.178-57.005c0.035-1.75,1.573-3.166,3.431-3.166h92.862c1.857,0,3.396,1.416,3.431,3.166L110.477,67.751z"/>
				</defs>
				<clipPath id="XMLID_31_">
					<use xlink:href="#XMLID_8_" />
				</clipPath>
			</g>
		</g>
		<g>
			<linearGradient id="XMLID_32_" gradientUnits="userSpaceOnUse" x1="49.2627" y1="11.3066" x2="78.2168" y2="86.9611">
				<stop  offset="0" style="stop-color:#FFFFFF"/>
				<stop  offset="1" style="stop-color:#666666"/>
			</linearGradient>
			<path fill="url(#XMLID_32_)" d="M2.056,2.128l0.436,79.213l0.021,0.497h0.523h115.767h0.522l0.016-0.497l-0.021-79.213
				l-0.016-0.493h-0.524H2.596H2.07L2.056,2.128z"/>
			
				<radialGradient id="XMLID_33_" cx="35.3164" cy="12.792" r="159.6145" gradientTransform="matrix(1 0 0 0.9982 0 -0.8463)" gradientUnits="userSpaceOnUse">
				<stop  offset="0" style="stop-color:#FFFFFF"/>
				<stop  offset="1" style="stop-color:#000000"/>
			</radialGradient>
			<path fill="url(#XMLID_33_)" d="M0,0.951l0.689,81.424l0.024,0.511l0.022,0.442h0.465h0.536H120.17h0.536h0.465l0.018-0.442
				l0.017-0.511l0.173-81.424l-0.017-0.511L121.349,0h-0.471h-0.539H1.038h-0.54H0.03L0.016,0.44L0,0.951z M0.47,0.884h0.541
				h119.356h0.54l-0.481-0.443l0.015,0.511l-0.165,81.424l-0.019,0.511l0.48-0.442H120.2H1.694H1.158l0.486,0.442l-0.024-0.511
				L0.936,0.951L0.951,0.44L0.47,0.884z"/>
			<linearGradient id="XMLID_34_" gradientUnits="userSpaceOnUse" x1="-8.7896" y1="-22.9727" x2="179.8858" y2="146.2518">
				<stop  offset="0" style="stop-color:#FFFFFF"/>
				<stop  offset="1" style="stop-color:#9999CC"/>
			</linearGradient>
			<path fill="url(#XMLID_34_)" stroke="#FFFFFF" stroke-width="0.9954" d="M112.337,67.751c-0.029,1.75-1.561,3.166-3.418,3.166
				H12.395c-1.857,0-3.403-1.416-3.452-3.166L8.764,10.746c0.038-1.75,1.576-3.166,3.434-3.166h96.578
				c1.859,0,3.397,1.416,3.436,3.166L112.337,67.751z"/>
			<path opacity="0.5" fill="#FFFFFF" d="M112.267,15.196c0.014,0.774-2.12-2.083-17.52-1.05
				c-25.608,4.937-63.684,29.639-86.469,20.3l0.486-23.7c0.038-1.75,1.576-3.166,3.434-3.166h96.578
				c1.859,0,3.397,1.416,3.436,3.166L112.267,15.196z"/>
			<path fill="#666666" d="M108.754,6.573H12.22c-2.444,0-4.476,1.874-4.526,4.173l0.18,57.005c0.065,2.304,2.106,4.172,4.55,4.172
				H108.9c2.442,0,4.465-1.868,4.506-4.172l-0.127-57.005C113.229,8.447,111.198,6.573,108.754,6.573z M108.935,69.912H12.368
				c-1.266,0-2.322-0.97-2.354-2.161L9.835,10.746c0.025-1.19,1.075-2.16,2.341-2.16h96.621c1.269,0,2.317,0.97,2.344,2.16
				l0.125,57.005C111.247,68.942,110.202,69.912,108.935,69.912z"/>
			<linearGradient id="XMLID_35_" gradientUnits="userSpaceOnUse" x1="60.665" y1="41.5537" x2="58.2716" y2="-21.8776">
				<stop  offset="0" style="stop-color:#FFFFFF"/>
				<stop  offset="1" style="stop-color:#000000"/>
			</linearGradient>
			<path opacity="0.59" fill="url(#XMLID_35_)" d="M111.148,11.13l0.117,56.621c-0.019,1.191-1.063,2.161-2.331,2.161H12.368
				c-1.266,0-2.322-0.97-2.354-2.161L9.59,34.436c0.01-0.947-2.146-0.018-2.154,1.254l0.437,32.062
				c0.065,2.304,2.106,4.172,4.55,4.172H108.9c2.442,0,4.465-1.868,4.506-4.172l-0.131-57.199
				C113.296,9.622,111.177,9.907,111.148,11.13z"/>
			
				<radialGradient id="XMLID_36_" cx="100.292" cy="76.0566" r="2.3089" gradientTransform="matrix(0.9441 0 0 1.1651 5.5157 -12.5498)" gradientUnits="userSpaceOnUse">
				<stop  offset="0" style="stop-color:#FFFF99"/>
				<stop  offset="1" style="stop-color:#FF6600"/>
			</radialGradient>
			<path fill="url(#XMLID_36_)" d="M102.753,77.068c-0.049,1.475-1.116,2.673-2.381,2.673c-1.264,0-2.253-1.198-2.209-2.673
				c0.042-1.48,1.107-2.676,2.38-2.676C101.812,74.393,102.804,75.588,102.753,77.068z"/>
			
				<radialGradient id="XMLID_37_" cx="107.834" cy="76.0566" r="2.3096" gradientTransform="matrix(0.9423 0 0 1.1651 5.9758 -12.5498)" gradientUnits="userSpaceOnUse">
				<stop  offset="0" style="stop-color:#FFFF99"/>
				<stop  offset="1" style="stop-color:#009900"/>
			</radialGradient>
			<path fill="url(#XMLID_37_)" d="M110.136,77.068c-0.062,1.475-1.138,2.673-2.396,2.673c-1.263,0-2.24-1.198-2.188-2.673
				c0.056-1.48,1.127-2.676,2.396-2.676C109.214,74.393,110.195,75.588,110.136,77.068z"/>
		</g>
		<g>
			<g>
				<defs>
					<path id="XMLID_16_" d="M110.477,67.751c-0.027,1.75-1.558,3.166-3.415,3.166h-92.81c-1.857,0-3.402-1.416-3.448-3.166
						l-0.178-57.005c0.035-1.75,1.573-3.166,3.431-3.166h92.862c1.857,0,3.396,1.416,3.431,3.166L110.477,67.751z"/>
				</defs>
				<clipPath id="XMLID_38_">
					<use xlink:href="#XMLID_16_" />
				</clipPath>
			</g>
		</g>
		<g>
			<defs>
				<path id="XMLID_18_" d="M110.477,67.751c-0.027,1.75-1.558,3.166-3.415,3.166h-92.81c-1.857,0-3.402-1.416-3.448-3.166
					l-0.178-57.005c0.035-1.75,1.573-3.166,3.431-3.166h92.862c1.857,0,3.396,1.416,3.431,3.166L110.477,67.751z"/>
			</defs>
			<clipPath id="XMLID_39_">
				<use xlink:href="#XMLID_18_" />
			</clipPath>
			<g clip-path="url(#XMLID_39_)">
				<path opacity="0.8" fill="#330066" d="M65.754,79.214c-0.108,0.025,0.469,0.477,0.644,0.585
					c0.099,0.019-0.514-0.002-0.712-0.123c0.049,0.09,0.125,0.184,0.134,0.203c-0.026-0.05-0.384-0.024-0.45,0.078
					c0.028-0.047,0.557,0.126,0.729,0.241c-0.104-0.088-0.3-0.238-0.037-0.179c0.291,0.062,1.561,0.309,1.776,0.029
					C67.756,80.151,65.99,79.148,65.754,79.214z M65.668,79.523c-0.07,0.062-0.047,0.114,0.018,0.152
					C65.655,79.615,65.636,79.555,65.668,79.523z M67.529,13.688c-0.126,0.065-0.259,0.085-0.408,0.064
					c0.101,0.038,0.205,0.077,0.307,0.124c-0.586,0.102-1.063-0.11-1.652,0.107c0.264-0.096,3.403,0.548,3.057-0.117
					c0.072,0.135,0.735-0.1,0.427-0.185c0.081,0.021,0.231,0.033,0.434,0.033c-0.469-0.11-0.937-0.222-1.407-0.315
					c-0.012,0.006-0.024,0.01-0.027,0.015C68.241,13.478,65.987,13.563,67.529,13.688z M60.791,29.621
					c0.035-0.017,0.04-0.071,0.035-0.14C60.711,29.602,60.642,29.698,60.791,29.621z M84.976,43.981
					C84.505,43.962,84.854,44.029,84.976,43.981L84.976,43.981z M57.186,16.286c0.048-0.021,0.298-0.029,0.639-0.031
					c0.04-0.014,0.078-0.03,0.114-0.048C57.75,16.301,57.347,16.202,57.186,16.286z M67.625,25.078
					c-0.12,0.108-0.5-0.125-0.665-0.135c0.049,0.09,0.104,0.183,0.159,0.271C67.322,25.227,67.581,25.116,67.625,25.078z
					 M61.15,29.196c-0.022,0.06-0.061,0.125-0.13,0.206C61.167,29.232,61.186,29.184,61.15,29.196z M71.945,52.639
					c0.499-1.148-2.331-1.687-1.987-0.19c-0.273-0.342-0.018-0.544-0.629-0.446c2.099-1.084-0.294-1.521-0.318,0.19
					c-0.054-0.07-0.114-0.552-0.32-0.385c3.66-3.006-2.484-4.41-2.483-4.068c-0.002-1.053-0.547-1.39-1.573-1.865
					c0.721,0.042-0.832-1.217-0.83-1.196c0.182-0.045,0.364-0.086,0.551-0.113c-0.018-0.042-0.87-0.053-0.929-0.019
					c-0.979,0.548-1.518-0.652-2.566-0.749c-0.111-0.012-0.487,1.12-0.486,1.607c0.004,0.638-0.554-1.822-0.202-1.717
					c-0.77-0.225-2.654,1.992-2.396,2.533c-0.46-0.861-0.985-0.871-1.411-0.466c-1.279,1.517-1.484-3.987-1.75-3.985
					c0.336-0.005-1.51-0.397-1.782-0.162c0.363-0.31,0.365-1.156,0.5-1.558c0.029,0.14,0.042,0.285,0.041,0.428
					c0.265-0.069,0.514-1.966,0.703-1.981c-0.543,0.039-2.63,0.526-2.247,1.462c0.155,0.379-1.597-0.111-1.793-0.183
					c-1.12-0.402,0.104-3.312,0.121-3.826c0.04-0.943,0.988-1.804,1.727-2.196c-0.051,0.083-0.071,0.178-0.082,0.271
					c0.552-0.834,1.557,0.241,2.188,0.079c0.139-0.035-0.372-0.575-0.372-0.575c0.022-0.054,1.608-0.232,1.828-0.155
					c-0.218-0.077,1.531,0.419,1.257,1.02c-0.204,0.448,0.087,1.653,0.229,1.87c0.408,0.606,0.5-0.803,0.521-1.378
					c-0.292-0.262,0.796-2.72,0.816-2.756c0.136-0.249,2.32-1.156,1.879-1.498c0.306,0.235,0.272-0.092,0.332-0.166
					c-0.065,0.08-0.225-0.12-0.212-0.155c0.08,0.14,0.157-1.57,0.574-1.646c-0.264,0.049-0.044,0.561-0.018,0.818
					c0.113-0.121,0.274-0.264,0.324-0.285c0.108-0.255-0.14-0.342-0.122-0.665c0.063,0.123,0.14,0.242,0.218,0.354
					c0.618-0.904,1.295-0.831,2.288-1.43c0.166-0.101,0.265-1.334,1.038-1.104c0.076,0.022,1.703-0.678,1.858-0.862
					c0.223-0.261-0.119,0.246-0.169,0.211c0.254-0.046,0.513-0.058,0.771-0.041c-0.128,0.035-1.977,0.554-1.159,0.899
					c0.334-0.08,1.706-0.709,1.993-0.943c-0.249,0.202-0.529-0.067-0.747-0.401c-0.119-0.005-0.217-0.058-0.234-0.197
					c-0.005-0.06,0.023-0.078,0.075-0.073c-0.133-0.255-0.218-0.483-0.217-0.521c-0.131,0.002-0.259-0.008-0.387-0.041
					c0.242-0.126,0.581-0.115,0.812-0.267c-0.085-0.095-0.075-0.14,0.037-0.13c0.14-0.546-2.746,0.803-2.989,0.904
					c1.328-0.824,3.894-2.506,5.561-1.829c0.2,0.08,1.298-0.878,1.185-0.868c0.587-0.048-1.713-0.364-1.568-0.345
					c0.309-0.115,0.887-0.5,1.188-0.397c-0.777-0.262-0.85-0.747-1.337-0.983c-0.032,0.001,0.681-1.672-0.923-0.547
					c-0.177,0.119-1.157,0.166-1.47,0.186c0.31-0.085,0.826-0.648,0.122-0.3c-0.091-0.322,0.587-0.543,0.717-0.791
					c0.21-0.396-2.394-0.515-2.847-0.192c0.097-0.072-0.855,1.111-0.843,0.847c-0.068,1.508-0.896,0.814-1.571,1.8
					c-0.029,0.043-0.083,1.74-0.223,1.617c-0.227-0.121-0.857-0.439-1.049-0.296c0.426-0.523-0.042-0.753-0.259-1.134
					c0.611,0.124,0.344-0.398,0.557-0.394c-0.845-0.016-2.265-1.306-3.05-0.737c0.32-0.335,0.564-0.862-0.188-0.771
					c0.343-0.195,2.22-1.602,2.223-1.622c0.203,0.015,0.402,0.013,0.602-0.005c0.323-0.238-0.588-0.147-0.489-0.184
					c0.166-0.11,0.098-0.144-0.212-0.111c0.571-0.054,1.958-0.418,2.367-0.39c-0.396-0.028-0.452-0.268-0.812-0.331
					c1.044-0.035,1.955-0.334,1.949-0.334c0.61,0.178,2.179-0.521,1.954-0.677c-0.735-0.518-1.649,0.061-2.272,0.582
					c0.012-0.022,0.096-0.594,0.076-0.613c-0.251-0.034-0.482,0.012-0.705,0.131c0.176-0.203,0.131-0.289-0.142-0.258
					c0.25-0.147,0.101-0.135,0.352-0.264c0.803-0.414-2.246-0.475-1.577,0.273c0.267,0.298,0.635-0.068,0.897,0.061
					c-0.006-0.005-0.402,0.142-0.571,0.231c0.041,0.005,0.084,0.013,0.114,0.035c-0.06,0.016-0.124,0.029-0.189,0.032
					c-0.022-0.011,0.013-0.036,0.075-0.067c-0.325-0.023-0.855,0.344-1.112,0.405c-0.019,0.011,0.256-0.338,0.235-0.34
					c0.015,0.002-0.536-0.109-0.508-0.103c0.063,0.093,0.142,0.166,0.228,0.232c-0.226-0.118-1.922-0.187-2.877-0.185
					c-0.425,0.167-0.99,0.224-1.143,0.797c-0.028-0.852-0.851-0.764-1.907-0.662c0.141-0.121,0.299-0.153,0.469-0.104
					c0.046-0.024-2.264-0.271-2.646-0.265c0.009-0.009,0.21-0.408,0.241-0.405c-0.283-0.036-1.364,0.068-2.107,0.286
					c-0.189,0.07-0.415,0.152-0.532,0.216c0.133-0.083,0.315-0.154,0.532-0.216c0.167-0.061,0.309-0.11,0.305-0.113
					c-0.346-0.241-1.552,0.307-1.968,0.443c-0.246,0.08-1.93-0.026-3.312-0.19c-1.859,0.855-3.627,1.871-5.291,3.016
					c1.019,0.104,3.225,0.663,3.736,0.663c-0.572,0,0.137,3.346,0.4,4.555c0.017,0.005,0.033,0.011,0.046,0.015
					c-0.015-0.004-0.032-0.005-0.046-0.011c0.062,0.299,0.097,0.465,0.083,0.414c-0.308-0.884-1.209,0.161-0.723,0.866
					c-0.787,0.117-3.025,3.606-1.857,3.853c-0.997,0.125,1.983,4.935,1.325,5.515c-0.055,0.045,0.449,2.914,1.074,2.72
					c0.438-0.136-0.216-1.534-0.151-1.818c-0.011,0.098-0.03,0.194-0.06,0.291c0.07-0.017-0.576-3.409-0.557-3.383
					c0.981,0.074,1.597,5.824,2.519,5.858c-0.687-0.025,0.253,1.895,1.103,1.952c1.245,0.086,1.613,1.744,3.009,0.953
					c-0.542,0.306,2.714,1.667,2.877,1.725c-0.29-0.106,0.922,2.007,0.89,2.075c-0.015-0.068-0.051-0.125-0.105-0.172
					c0.075,0.588,2.098,1.623,2.191,1.485c0.213-0.312,1.144-0.845,1.086-0.669c0.078,1.886,0.062,2.841-0.688,4.437
					c-0.11,0.238-0.603,2.078-0.649,2.121c0.333-0.295-0.479,1.433-0.084,1.938c1.081,1.389,1.581,3.59,2.21,4.856
					c1.055,2.136,3.544,2.01,3.559,4.841c0.013,2.558,0.992,5.674,0.363,7.747c-0.26,0.854,2.019,3.642,1.394,4.417
					c0,0.019-0.024,0.044-0.076,0.083c0.034-0.023,0.05-0.055,0.076-0.083c-0.003-0.125-1.025,0.154-0.67,0.308
					c0.141,0.062,0.225-0.044,0.417,0.007c-0.103,0.012,0.38,0.483,0.54,0.606c0.012,0.007,0.024,0.007,0.036,0.01
					c0.027,0.036,0.006,0.027-0.036-0.01c-0.116-0.039-0.226-0.046-0.34-0.016c0.018,0.006,0.422,0.685,0.549,0.859
					c0.023-0.003,0.043,0.006,0.041,0.041c0,0.012-0.018-0.013-0.041-0.041c-0.081,0.006-0.244,0.147-0.258,0.188
					c0.062-0.194,0.679,0.731,0.809,0.738c-0.021-0.076-0.055-0.147-0.091-0.216c-0.126-0.124-0.176-0.188-0.051-0.086
					c0.021,0.029,0.034,0.061,0.051,0.086c0.224,0.226,0.693,0.645,0.909,0.728c0.004-0.002,0.011-0.006,0.015-0.006
					c0.03-0.022,0.058-0.046,0.091-0.067c-0.006-0.048-0.023-0.107-0.066-0.199c0.021,0.039-0.624-0.065-0.51-0.089
					c0.074-0.01,0.512,0.031,0.511,0.031c0.135,0.094,0.136,0.177,0.086,0.238c0.255-0.189,0.592-0.439,0.82-0.331
					c-0.617-0.683-0.139-1.271,0.37-1.982c0.115-0.156-1.633-1.047-0.332-1.291c0.419-0.079,0.073-0.994-0.001-1.111
					c-0.002,0-0.01,0.001-0.009,0.004c-0.005-0.021,0-0.021,0.009-0.004c0.054-0.022,0.464-0.019,0.485-0.269
					c-0.026,0.346-1.212-0.46-0.756-0.67c0.338-0.161,1.003,0.465,0.926-0.346c0-0.001,0.09-0.796-0.013-0.772
					c3.891-0.928,0.179-1.082,0.746-2.896c0.167,1.98,2.396-0.243,2.642-0.406c1.252-0.836,0.417-3.375,1.211-4.222
					c0.784-0.844,1.72-1.351,2.5-2.067c0.695-0.64,0.158-4.409,0.352-4.497c0.951-0.433,1.639-2.284,1.795-3.475
					C76.291,53.941,72.56,51.991,71.945,52.639z M57.369,25.968c0.164-0.242,1.561-0.923,1.78-0.653
					c-0.23-0.282-1.062-0.295-1.505-0.363 M59.764,25.709c-0.102,0.69-0.709,0.935-1.009,1.563c0.055,0.046,0.132,0.064,0.222,0.074
					c0.473-0.146,1.276-0.462,1.905-0.719 M54.287,42.547c0.026,0.001,0.033-0.009,0.025-0.087
					C54.32,42.538,54.313,42.548,54.287,42.547z M54.459,42.243c0.031-0.005,0.079,0.039,0.117,0.062
					C54.538,42.282,54.49,42.239,54.459,42.243z M61.852,50.372c0.043,0.057,0.056,0.119,0.169,0.087
					C61.907,50.491,61.895,50.429,61.852,50.372z M62.607,69.407C62.807,69.171,62.446,69.6,62.607,69.407L62.607,69.407z
					 M63.063,73.071c-0.098-0.153,0.165-0.133,0.059-0.299C63.229,72.938,62.966,72.918,63.063,73.071z M69.55,69.409
					C69.169,68.688,69.975,70.218,69.55,69.409L69.55,69.409z M65.273,79.505c0.074,0.029,0.114,0.011,0.105-0.069
					c-0.024,0.023-0.06,0.045-0.092,0.063C65.283,79.502,65.278,79.503,65.273,79.505z M44.587,24.269
					c0.003,0.005,0.008,0.007,0.014,0.011c0-0.001,0-0.004,0-0.004C44.592,24.273,44.59,24.271,44.587,24.269z M65.379,79.436
					c0.008-0.006,0.014-0.014,0.02-0.022c-0.006,0.006-0.013,0.011-0.021,0.019C65.378,79.432,65.378,79.434,65.379,79.436z
					 M65.048,79.566c-0.001,0.087,0.093,0.037,0.226-0.062c-0.001,0-0.001,0-0.001,0C65.166,79.552,65.047,79.576,65.048,79.566z
					 M57.795,24.752c-0.101,0.047-0.191,0.106-0.28,0.179c0.038,0.007,0.085,0.014,0.13,0.021
					C57.742,24.901,57.805,24.838,57.795,24.752z M57.552,34.908c0.033-0.134,0.003-0.217-0.088-0.247
					c0-0.031-0.003,0.067-0.01,0.223C57.479,34.907,57.507,34.918,57.552,34.908z M43.466,23.435
					c-0.163,0.123,0.766,0.691,1.121,0.834C44.196,24.05,44.457,22.683,43.466,23.435z M63.657,14.617
					c0.277,0.086,0.456,0.032,0.535-0.166c-0.152-0.167-0.346-0.177-0.571-0.022c0.04,0.022,0.078,0.034,0.118,0.041
					c0.062-0.011,0.115-0.018,0.148-0.014c-0.051,0.015-0.101,0.018-0.148,0.014C63.504,14.508,63.16,14.631,63.657,14.617z
					 M58.574,14.56c0.609-0.013,1.319,0.124,1.925-0.097c-0.301,0.11-1.852-0.643-2.498-0.291
					C57.23,14.587,58.357,14.427,58.574,14.56z M58.576,14.56h-0.002c-0.186,0-0.362,0.017-0.523,0.058
					C58.227,14.616,58.401,14.593,58.576,14.56z M68.308,25.017c-0.086,0.033-0.407,0.134-0.406,0.405
					C67.901,25.825,68.745,24.851,68.308,25.017z M62.178,18.018c-0.029,0.04,1.68-0.043,1.745-0.077
					c0.006-0.003,0.346,0.157,0.472,0.077C64.138,18.181,63.2,16.725,62.178,18.018z M58.186,13.882
					c-0.247-0.185-1.252,0.113-1.545,0.24c-0.188,0.081,0.65,0.113,0.657,0.108C57.415,14.203,58.215,13.903,58.186,13.882z
					 M55.25,15.802c-0.072,0.006-0.14,0.012-0.178,0.026C55.132,15.817,55.191,15.813,55.25,15.802z M61.632,14.923
					c-0.281-0.012-0.564-0.012-0.849,0.004c-0.161,0.098,2.581,0.458,1.849-0.254C62.117,14.178,61.631,14.872,61.632,14.923z
					 M60.009,13.92c0.368-0.015,0.739-0.193,1.037-0.204C60.802,13.726,60.302,13.886,60.009,13.92z M59.927,15.626
					c0.062,0.016-0.677-0.602-1.075-0.66c-0.093,0.096-0.172,0.2-0.235,0.315c-0.04-0.265,0.066-0.343,0.235-0.315
					c0.005-0.004,0.007-0.009,0.01-0.01c-0.373-0.352-1.957,0.281-2.823,0.389c0.005,0,0.006,0,0.01,0
					c-0.007,0-0.018,0.004-0.028,0.004c0.007-0.003,0.013-0.004,0.019-0.004c-0.159-0.024-0.316-0.036-0.479-0.036
					c0.072,0.044,0.18,0.055,0.317,0.052c-0.168,0.01-0.333,0.043-0.487,0.111c0.252,0.277,0.556,0.12,0.906,0.239
					c-0.352,0.015-0.698,0.046-1.046,0.091c0.878-0.021,3.871,0.762,4.365,0.287c-0.146-0.051-0.292-0.097-0.442-0.14
					C59.166,15.949,60.156,15.683,59.927,15.626z M56.662,14.808c0.169-1.258-3.318,0.767-2.74,0.807
					C54.154,15.629,56.658,14.834,56.662,14.808z M55.959,38.216C56.121,38.344,55.64,37.963,55.959,38.216L55.959,38.216z
					 M92.191,30.227c-0.436,0.12-0.738,0.199-0.772,0.167c0.357,0.326-2.102-0.093-1.908-0.061c-0.354-0.06-1.438,1.755-1.711,2.052
					c-0.606,0.652,0.042,0.535-0.082,1.029c-0.195,0.801-1.325,0.738-1.588,1.284c-0.662,1.368-2.824,5.242-1.4,6.518
					c-0.048-0.043-0.677,0.979-0.834,1.122c-0.099,0.09,0.571,0.338,0.541,0.319c-0.266,0.043-0.028,0.513,0.063,0.49
					c0.062-0.135,0.184-0.188,0.368-0.162c-0.551,0.113-0.275,0.322-0.474,0.515c0.163-0.161,0.395-0.056,0.593-0.053
					c-0.224,0.016-0.803,0.072-0.611,0.27c0.151,0.158,0.514,0.05,0.619,0.177c0.035,0.045,0.017,0.07-0.02,0.088
					c0.004,0,0.007,0,0.009,0c-0.48,0.248,1.174,2.1,1.142,2.452c-0.158,1.826,3.957,1.416,3.972,1.443
					c-0.397-0.762,0.427,0.526,0.361-0.154C90.47,47.85,93.325,47.538,94,47.69c-0.093-0.021,1.104,1.063,1.85,0.85
					c-0.149,0.041-0.103,1.687,0.118,1.762c-0.238,0.126-0.371,0.498-0.077,0.595c-0.639-0.204-0.197,1.232,0.391,2.347
					c0.351-1.921,0.552-3.895,0.562-5.907C96.863,41.11,95.166,35.273,92.191,30.227z M85.909,41.671
					C85.402,41.427,86.494,41.955,85.909,41.671L85.909,41.671z M86.688,43.663c0.035,0.104,0.055,0.135,0.07,0.134
					C86.742,43.798,86.723,43.767,86.688,43.663z M90.413,45.248c0.146,0.119,0.036,0.141,0.077,0.304
					C90.449,45.389,90.557,45.367,90.413,45.248z M90.039,36.879c0.813,0.679,2.242,1.872,2.41,2.021
					C92.281,38.751,90.853,37.558,90.039,36.879z M39.968,19.401c0.054-0.016,0.12-0.027,0.17-0.04
					c-0.026-0.004-0.044-0.022-0.065-0.038C40.041,19.352,40.002,19.374,39.968,19.401z M40.536,19.256
					c-0.036,0.019-0.192,0.06-0.397,0.105C40.236,19.379,40.365,19.347,40.536,19.256z M61.864,40.089
					c0.161,0.025-0.229-0.612-0.594-0.51c0.112,0.015,0.196-0.021,0.249-0.108c-0.075-0.041-1.669-0.498-1.75-0.25
					c-0.034,0.088,0.328,0.597,0.386,0.675c-0.074,0.009-0.86,0.102-0.865,0.096C59.549,40.733,61.353,40.004,61.864,40.089z
					 M57.499,40.04c-0.06,0.029,0.605,0.505,0.529,0.396C58.259,40.796,58.535,39.572,57.499,40.04z M55.022,38.083
					c0.07,0,0.162-0.035,0.262-0.088C55.128,38.027,55.018,38.062,55.022,38.083z M59.601,39.003
					c-0.362-0.585-1.52-0.46-1.919-1.086c-0.755-1.177-1.806-0.222-2.397,0.078c0.421-0.087,1.197-0.192,1.244-0.192
					c-0.1,0.024-0.203,0.042-0.308,0.055c0.01-0.015,2.53,0.569,1.803,1.352c-0.074,0.079,0.722-0.021,0.788-0.011
					C58.899,39.207,59.697,39.158,59.601,39.003z M62.411,40.337c0.143,0.043,0.784-0.164,0.618-0.223
					C62.791,40.027,62.214,40.28,62.411,40.337z M67.68,16.82c0.181,0.041,0.307,0.044,0.403,0.024
					C67.839,16.82,67.632,16.81,67.68,16.82z M70.854,24.884c0.015-0.198,0.459,0.302,0.517-0.424
					C71.377,24.329,70.887,24.389,70.854,24.884z M67.531,16.115c0.086-0.015,0.141-0.058,0.179-0.114
					C67.641,16.008,67.58,16.042,67.531,16.115z M64.309,14.216c-0.034,0.009-0.071,0.034-0.12,0.085
					C64.222,14.267,64.264,14.236,64.309,14.216z M71.311,23.768c-0.182-0.404-1.123,0.215-0.584-0.363
					c0.061-0.065-0.483,0.132-0.456,0.107c-0.023-0.038,0.63-0.652,0.63-0.745c-0.052-0.001-0.092-0.021-0.124-0.058
					c-0.567,0.112-1.354,1.138-1.71,1.478c0.025,0.021,0.051,0.027,0.077,0.026c0.029-0.023,0.063-0.04,0.104-0.049
					c-0.036,0.033-0.074,0.046-0.104,0.049c-0.154,0.116-0.209,0.357-0.194,0.35c0.486-0.237,1.199,0.086,1.61-0.073
					c-0.046,0.02-0.394,0.327-0.336,0.321c0.367-0.036,0.958-0.481,1.123-0.696C71.27,24.146,71.256,23.649,71.311,23.768z
					 M87.95,29.814c0.354,0.086,3.177,0.674,3.057-0.164c0.115-0.154,0.243-0.415,0.389-0.711c-0.502-0.768-1.026-1.519-1.583-2.244
					c-0.806,0.142-1.617,0.191-1.706,0.159C88.596,27.046,87.513,29.707,87.95,29.814z M71.347,24.114
					c0.009-0.008,0.025-0.023,0.04-0.068C71.382,24.064,71.362,24.089,71.347,24.114z M74.751,15.792
					c0.182,0.216,0.711,0.033,0.828,0.136c0.12,0.107-0.754,0.79-0.406,0.584c-1.005,0.604-1.243,0.382-0.445,1.148
					c-1.337,0.241,1.179,1.562,1.303,1.602c0.522,0.179,1.938-1.273,1.942-1.725c-0.002,0.018,0.339-0.092,0.858-0.259
					c-1.063-0.588-2.16-1.13-3.289-1.615C75.249,15.665,74.702,15.73,74.751,15.792z M64.309,14.216
					c0.196-0.072,0.154,0.451,0.143,0.427c0.036,0.083,0.325,0.117,0.722,0.123c0.215-0.058,0.393-0.067,0.471-0.003
					c0.965-0.021,2.201-0.134,2.456-0.158c-0.677,0.062-2.277-0.448-3.232-0.315C65.189,14.246,64.643,14.045,64.309,14.216z
					 M64.195,13.748c0.338,0.115,0.457,0.044,0.354-0.21C64.567,13.443,63.405,13.987,64.195,13.748z M67.59,15.043
					c0.239-0.068,0.48-0.12,0.727-0.145C68.585,14.791,66.864,14.843,67.59,15.043z M74.739,16.169
					c0.683,0.067,0.024-0.241-0.258-0.271C74.168,15.862,74.651,16.158,74.739,16.169z M75.314,15.564
					c-0.215-0.091-0.425-0.18-0.642-0.265c-0.046,0.071-0.077,0.128-0.074,0.144C74.596,15.425,74.995,15.492,75.314,15.564z
					 M63.972,15.694c0.234,0.215,2.399,0.243,2.429,0.233c-0.016-0.065-0.053-0.126-0.103-0.174
					c-0.021-0.004-0.031-0.01-0.013-0.012c0.007,0.002,0.012,0.009,0.013,0.012c0.14,0.038,0.858,0.076,0.351-0.214
					c0.314,0.169,0.736,0.223,1.085,0.424c-0.004,0.016-0.017,0.021-0.023,0.037c0.358-0.047,0.866,0.733,0.373,0.844
					c0.324,0.026,0.711,0.08,0.62,0.13c-0.158,0.088-0.726,0.086-0.812,0.277c0.184-0.429-0.5-0.566-0.7-0.269
					c0.094,0.09,0.196,0.167,0.299,0.241c-0.522-0.187-1.566,0.32-1.861,0.159c-0.572-0.314,1.156,0.736,0.938,0.419
					c-0.068-0.056-0.11-0.121-0.124-0.2c0.287,0.329,2.264,1.176,2.831,0.852c0.171-0.098-0.595-0.608-0.656-0.622
					c-0.089-0.007,1.042,0.177,1.066,0.134c0.087-0.146-0.57-1.167-0.339-1.02c0.201,0.132,0.553,0.255,0.736,0.049
					c-0.09,0.103,0.233,0.51,0.342,0.475c0.226-0.074,0.922-0.955,1.397-0.827c-0.235-0.061-1.089-0.516-1.393-0.399
					c0.131,0.007,0.219-0.042,0.263-0.144c-0.187-0.025-0.373-0.025-0.562,0c0.174-0.049,0.342-0.116,0.501-0.207
					c-0.15-0.117-0.209-0.334-0.421-0.266c-0.046,0.055-0.105,0.094-0.19,0.105c0.073-0.058,0.138-0.091,0.19-0.105
					c0.022-0.028,0.045-0.049,0.059-0.087c-0.426-0.137-1.479-0.67-1.973-0.508c0.021-0.005,0.053,0.348,0.054,0.351
					c-0.368-0.446-0.53-0.195-0.943-0.062c0.576-0.19-2.379-0.781-2.155,0.258c-0.31-0.229,0.434-0.578,0.447-0.703
					c0.002-0.048-0.021-0.087-0.053-0.112c-0.168,0.004-0.325,0.004-0.471,0.003C64.575,14.933,63.701,15.46,63.972,15.694z
					 M65.513,13.837c0.379,0.083,1.819-0.246,2.011-0.569c-0.198-0.034-0.394-0.069-0.59-0.102
					C66.198,13.319,65.105,13.754,65.513,13.837z M64.227,13.367c-0.062-0.303-1.122,0.447-0.737,0.257
					C63.11,13.807,64.292,13.697,64.227,13.367z M61.842,14.284c0.487,0.414,1.537-0.049,1.892-0.321
					c-0.051,0.037-0.734-0.135-0.997,0.121c0.368-0.357-0.476-0.493-0.476,0.038c0-0.276-0.729-0.183-0.688-0.187
					C61.753,13.917,61.74,14.199,61.842,14.284z M62.862,15.098c0.354,0.285,0.198-0.141,0.364-0.104
					c0.375,0.119,0.707,0.053,0.997-0.199C64.43,14.732,62.458,14.76,62.862,15.098z"/>
				
					<radialGradient id="XMLID_40_" cx="54.0498" cy="29.125" r="24.1327" gradientTransform="matrix(1 0 0 1.0418 0 3.7609)" gradientUnits="userSpaceOnUse">
					<stop  offset="0.2247" style="stop-color:#FFFFFF"/>
					<stop  offset="1" style="stop-color:#000000"/>
				</radialGradient>
				<path opacity="0.25" fill="url(#XMLID_40_)" d="M96.701,47.034c-0.158,19.13-16.11,34.639-35.496,34.639
					c-19.384,0-35.524-15.509-35.861-34.639c-0.132-19.132,15.885-34.64,35.589-34.64C80.636,12.395,96.711,27.902,96.701,47.034z"
					/>
			</g>
		</g>
	</g>
	<g>
		<g>
			<g>
				<defs>
					<path id="XMLID_21_" d="M110.477,67.751c-0.027,1.75-1.558,3.166-3.415,3.166h-92.81c-1.857,0-3.402-1.416-3.448-3.166
						l-0.178-57.005c0.035-1.75,1.573-3.166,3.431-3.166h92.862c1.857,0,3.396,1.416,3.431,3.166L110.477,67.751z"/>
				</defs>
				<clipPath id="XMLID_41_">
					<use xlink:href="#XMLID_21_" />
				</clipPath>
			</g>
		</g>
		<g>
			<g>
				<defs>
					<path id="XMLID_23_" d="M110.477,67.751c-0.027,1.75-1.558,3.166-3.415,3.166h-92.81c-1.857,0-3.402-1.416-3.448-3.166
						l-0.178-57.005c0.035-1.75,1.573-3.166,3.431-3.166h92.862c1.857,0,3.396,1.416,3.431,3.166L110.477,67.751z"/>
				</defs>
				<clipPath id="XMLID_42_">
					<use xlink:href="#XMLID_23_" />
				</clipPath>
			</g>
		</g>
		<g>
			<defs>
				<path id="XMLID_25_" d="M110.477,67.751c-0.027,1.75-1.558,3.166-3.415,3.166h-92.81c-1.857,0-3.402-1.416-3.448-3.166
					l-0.178-57.005c0.035-1.75,1.573-3.166,3.431-3.166h92.862c1.857,0,3.396,1.416,3.431,3.166L110.477,67.751z"/>
			</defs>
			<clipPath id="XMLID_43_">
				<use xlink:href="#XMLID_25_" />
			</clipPath>
		</g>
	</g>
</g>
</svg>
