<?xml version="1.0" encoding="utf-8"?>
<!-- Generator: Adobe Illustrator 12.0.0, SVG Export Plug-In . SVG Version: 6.00 Build 51448)  -->
<!DOCTYPE svg PUBLIC "-//W3C//DTD SVG 1.1//EN" "http://www.w3.org/Graphics/SVG/1.1/DTD/svg11.dtd" [
	<!ENTITY ns_svg "http://www.w3.org/2000/svg">
	<!ENTITY ns_xlink "http://www.w3.org/1999/xlink">
]>
<svg  version="1.1" id="Layer_1" xmlns="&ns_svg;" xmlns:xlink="&ns_xlink;" width="156.694" height="198.577"
	 viewBox="0 0 156.694 198.577" overflow="visible" enable-background="new 0 0 156.694 198.577" xml:space="preserve">
<linearGradient id="XMLID_5_" gradientUnits="userSpaceOnUse" x1="113.9849" y1="86.0234" x2="55.9849" y2="144.0234">
	<stop  offset="0" style="stop-color:#FFFFFF"/>
	<stop  offset="1" style="stop-color:#000000"/>
</linearGradient>
<path opacity="0.5" fill="url(#XMLID_5_)" d="M69.153,196.984c-2.525,2.487-7.033,2.008-10.067-1.067L2.577,116.321
	c-3.036-3.08-3.448-7.596-0.923-10.083L60.502,62.67c2.526-2.49,7.033-2.012,10.068,1.069l83.547,63.258
	c3.033,3.077,3.449,7.594,0.924,10.083L69.153,196.984z"/>
<linearGradient id="XMLID_6_" gradientUnits="userSpaceOnUse" x1="120.9644" y1="31.4468" x2="61.9644" y2="133.4469">
	<stop  offset="0" style="stop-color:#FFFFFF"/>
	<stop  offset="1" style="stop-color:#666799"/>
</linearGradient>
<path fill="url(#XMLID_6_)" d="M71.475,187.479c-3.057,3.055-8.014,3.055-11.07,0L9.086,106.296c-3.057-3.058-3.057-8.016,0-11.07
	l51.319-81.183c3.057-3.058,8.013-3.058,11.07,0l81.183,81.183c3.056,3.055,3.057,8.013,0,11.07L71.475,187.479z"/>
<path opacity="0.3" fill="#010101" d="M153.644,97.046c0,4.971-2.132,9.034-7.103,9.034l-81,5c-4.971,0-9-4.029-9-9l4-85.312
	c0-4.971,7.448-5.334,8.511-4.419S153.644,97.046,153.644,97.046z"/>
<g>
	<g>
		<linearGradient id="XMLID_7_" gradientUnits="userSpaceOnUse" x1="118.478" y1="47.5161" x2="61.4783" y2="104.5158">
			<stop  offset="0" style="stop-color:#FFFFFF"/>
			<stop  offset="1" style="stop-color:#666799"/>
		</linearGradient>
		<path fill="url(#XMLID_7_)" d="M153.644,97.046c1.81,5.882-2.132,9.034-7.103,9.034l-90-4c-4.971,0-9-4.029-9-9l13-76.312
			c0-4.971,7.448-5.334,8.511-4.419S153.644,97.046,153.644,97.046z"/>
		<linearGradient id="XMLID_8_" gradientUnits="userSpaceOnUse" x1="115.4468" y1="46.5078" x2="26.4462" y2="184.5085">
			<stop  offset="0" style="stop-color:#FFFFFF"/>
			<stop  offset="1" style="stop-color:#666799"/>
		</linearGradient>
		<path fill="url(#XMLID_8_)" d="M153.011,94.872L71.829,13.689c-0.703-0.703-1.514-1.256-2.39-1.662
			c-0.021-0.021-0.051-0.05-0.061-0.058c-0.263-0.227-0.757-0.373-1.36-0.449c-0.671-0.173-1.366-0.271-2.078-0.271
			c-2.225,0-4.316,0.866-5.889,2.439l-0.04,0.039l-0.03,0.047L8.683,94.927c-1.54,1.565-2.39,3.631-2.39,5.831
			c0,2.201,0.849,4.269,2.39,5.837l51.299,81.151l0.03,0.047l0.039,0.039c3.247,3.245,8.53,3.245,11.777,0l81.183-81.183
			c1.573-1.573,2.438-3.665,2.438-5.891C155.45,98.534,154.583,96.443,153.011,94.872z M61.035,16.852l0.007-0.042v-0.042
			c0-1.602,0.854-2.806,2.536-3.577c1.455-0.667,3.144-0.799,4.195-0.702c0.375,0.097,0.741,0.219,1.094,0.373
			c3.843,3.718,81.197,81.302,84.329,84.443c0.678,2.29,0.472,4.273-0.61,5.736c-1.191,1.614-3.395,2.539-6.044,2.539
			c0.022,0.001-89.978-3.999-89.978-3.999c-4.697-0.001-8.502-3.796-8.521-8.467 M9.479,95.54l0.03-0.047l50.854-80.449
			c-0.196,0.509-0.308,1.058-0.316,1.649l-9.735,57.148L7.393,99.593c0.241-1.514,0.942-2.91,2.046-4.014L9.479,95.54z
			 M9.508,106.028l-0.029-0.047l-0.04-0.039c-1.385-1.385-2.147-3.226-2.146-5.185c0-0.273,0.019-0.545,0.048-0.813l0.373,0.622
			L50.09,75.142l-3.042,17.854l-0.007,0.042v0.042c0,5.238,4.262,9.5,9.5,9.5c-0.011,0,20.144,0.896,41.378,1.84l-34.617,84.354
			c-0.913-0.351-1.77-0.888-2.509-1.617L9.508,106.028z M152.304,105.942l-81.183,81.183c-1.857,1.856-4.471,2.498-6.858,1.94
			l34.718-84.599c23.312,1.036,47.538,2.113,47.538,2.113c2.993,0,5.489-1.073,6.871-2.944c0.503-0.682,0.845-1.452,1.031-2.292
			C154.285,103.081,153.549,104.696,152.304,105.942z"/>
	</g>
</g>
<path fill="#983620" d="M46.717,6.209h6.209V0h-6.209V6.209z M34.083,4.842l3.104,5.377l5.377-3.104l-3.104-5.377L34.083,4.842z
	 M34.042,13.08l-5.377-3.104l-3.104,5.377l5.377,3.104L34.042,13.08z M29.644,22.508h-6.209v6.209h6.209V22.508z M30.549,32.871
	l-5.377,3.104l3.104,5.377l5.377-3.104L30.549,32.871z M33.411,46.77l5.377,3.105l3.104-5.377l-5.377-3.105L33.411,46.77z
	 M45.942,45.791V52h6.209v-6.209H45.942z M56.305,44.885l3.105,5.377l5.377-3.104l-3.105-5.377L56.305,44.885z M64.828,38.92
	l5.378,3.104l3.104-5.377l-5.377-3.104L64.828,38.92z M69.225,23.283v6.209h6.209v-6.209H69.225z M68.32,19.129l5.378-3.104
	l-3.105-5.376l-5.377,3.104L68.32,19.129z M65.459,5.23l-5.378-3.105l-3.104,5.377l5.377,3.105L65.459,5.23z"/>
</svg>
