<?xml version="1.0" encoding="UTF-8" standalone="no"?>
<!DOCTYPE svg PUBLIC "-//W3C//DTD SVG 1.1//EN" "http://www.w3.org/Graphics/SVG/1.1/DTD/svg11.dtd">
<!-- Created with Vectornator (http://vectornator.io/) -->
<svg height="100%" stroke-miterlimit="10" style="fill-rule:nonzero;clip-rule:evenodd;stroke-linecap:round;stroke-linejoin:round;" version="1.1" viewBox="0 0 1024 1024" width="100%" xml:space="preserve" xmlns="http://www.w3.org/2000/svg" xmlns:xlink="http://www.w3.org/1999/xlink">
<defs>
<linearGradient gradientTransform="matrix(1 0 0 1 0 0)" gradientUnits="userSpaceOnUse" id="LinearGradient" x1="516.781" x2="511.831" y1="77.6948" y2="952.178">
<stop offset="0" stop-color="#ff613d"/>
<stop offset="1" stop-color="#e4005b"/>
</linearGradient>
</defs>
<g id="レイヤー-1">
<path d="M330.888 68.0084L693.112 68.0084C734.659 68.0084 785.179 97.1761 805.952 133.156L987.064 446.852C1007.84 482.832 1007.84 541.168 987.064 577.148L805.952 890.844C785.179 926.824 734.659 955.992 693.112 955.992L330.888 955.992C289.341 955.992 238.821 926.824 218.048 890.844L36.9358 577.148C16.1626 541.168 16.1626 482.832 36.9358 446.852L218.048 133.156C238.821 97.176 289.341 68.0084 330.888 68.0084Z" fill="url(#LinearGradient)" fill-rule="nonzero" opacity="1" stroke="none"/>
<path d="M514.75 281.656C87.6848 281.656 151.488 709.401 264.469 724.688C373.551 739.446 389.612 622.406 514.75 622.406C639.888 622.406 655.949 739.446 765.031 724.688C878.012 709.402 922.661 281.656 514.75 281.656ZM348.406 414.062C364.975 414.063 378.406 427.494 378.406 444.062L378.406 473.812L408.156 473.812C424.725 473.812 438.156 487.244 438.156 503.812C438.156 520.381 424.725 533.812 408.156 533.812L378.406 533.812L378.406 563.562C378.406 580.131 364.975 593.562 348.406 593.562C331.838 593.563 318.406 580.131 318.406 563.562L318.406 533.812L288.656 533.812C272.088 533.812 258.656 520.381 258.656 503.812C258.656 487.244 272.088 473.812 288.656 473.812L318.406 473.812L318.406 444.062C318.406 427.494 331.838 414.062 348.406 414.062ZM713.625 429.812C735.716 429.812 753.625 447.721 753.625 469.812C753.625 491.904 735.716 509.812 713.625 509.812C691.534 509.812 673.625 491.904 673.625 469.812C673.625 447.721 691.534 429.812 713.625 429.812ZM626.75 503.812C648.841 503.812 666.75 521.721 666.75 543.812C666.75 565.904 648.841 583.812 626.75 583.812C604.659 583.812 586.75 565.904 586.75 543.812C586.75 521.721 604.659 503.812 626.75 503.812Z" fill="#ffffff" fill-rule="nonzero" opacity="1" stroke="none"/>
</g>
</svg>
