<?xml version="1.0" encoding="UTF-8" standalone="no"?>
<!DOCTYPE svg PUBLIC "-//W3C//DTD SVG 1.1//EN" "http://www.w3.org/Graphics/SVG/1.1/DTD/svg11.dtd">
<!-- Created with Vectornator (http://vectornator.io/) -->
<svg height="100%" stroke-miterlimit="10" style="fill-rule:nonzero;clip-rule:evenodd;stroke-linecap:round;stroke-linejoin:round;" version="1.1" viewBox="0 0 1024 1024" width="100%" xml:space="preserve" xmlns="http://www.w3.org/2000/svg" xmlns:xlink="http://www.w3.org/1999/xlink">
<defs>
<linearGradient gradientTransform="matrix(1 0 0 1 0 0)" gradientUnits="userSpaceOnUse" id="LinearGradient" x1="504.772" x2="495.611" y1="70.7292" y2="952.748">
<stop offset="0" stop-color="#50cd00"/>
<stop offset="1" stop-color="#00880a"/>
</linearGradient>
</defs>
<g id="レイヤー-1">
<path d="M330.889 68.0137L693.111 68.0137C734.657 68.0137 785.176 97.1811 805.949 133.161L987.06 446.853C1007.83 482.833 1007.83 541.167 987.06 577.147L805.949 890.839C785.176 926.819 734.657 955.986 693.111 955.986L330.889 955.986C289.343 955.986 238.824 926.819 218.051 890.839L36.9397 577.147C16.1668 541.167 16.1668 482.833 36.9397 446.853L218.051 133.161C238.824 97.181 289.343 68.0137 330.889 68.0137Z" fill="url(#LinearGradient)" fill-rule="nonzero" opacity="1" stroke="none"/>
<path d="M379.75 228.125C325.834 228.125 282.125 271.834 282.125 325.75C282.125 379.666 325.834 423.375 379.75 423.375C433.666 423.375 477.375 379.666 477.375 325.75C477.375 271.834 433.666 228.125 379.75 228.125ZM609.25 356.219C607.679 356.219 606.095 356.392 604.531 356.688C603.966 356.794 603.407 356.98 602.844 357.125C601.9 357.369 600.966 357.648 600.031 358C599.309 358.271 598.591 358.571 597.875 358.906C596.974 359.331 596.074 359.817 595.188 360.344C594.621 360.68 594.06 360.997 593.5 361.375C592.28 362.201 591.088 363.131 589.906 364.156C589.647 364.381 589.383 364.547 589.125 364.781C588.923 364.965 588.732 365.217 588.531 365.406C587.175 366.691 585.849 368.132 584.562 369.688C583.989 370.38 583.433 371.098 582.875 371.844C581.635 373.504 580.435 375.292 579.281 377.219C579.08 377.554 578.855 377.813 578.656 378.156L418.875 655L352.312 539.719C348.267 532.711 343.559 527.624 338.594 524C338.582 523.991 338.574 523.977 338.562 523.969C338.237 523.724 337.922 523.418 337.594 523.188C337.163 522.885 336.716 522.68 336.281 522.406C336.205 522.358 336.139 522.297 336.062 522.25C335.312 521.797 334.573 521.286 333.812 520.906C333.805 520.902 333.789 520.91 333.781 520.906C333.749 520.889 333.72 520.86 333.688 520.844C331.727 519.838 329.727 519.105 327.719 518.594C327.697 518.588 327.678 518.568 327.656 518.562C327.636 518.557 327.614 518.568 327.594 518.562C325.614 518.069 323.624 517.789 321.625 517.781C320.284 517.788 318.93 517.903 317.594 518.125C307.952 519.725 298.574 526.924 291.188 539.719L200.656 696.469C183.967 725.376 197.496 748.812 230.875 748.812L792.688 748.812C826.457 748.813 840.135 725.12 823.25 695.875L639.75 378.062C638.355 375.655 636.869 373.509 635.344 371.5C634.939 370.966 634.538 370.444 634.125 369.938C632.569 368.035 630.969 366.255 629.312 364.75C629.109 364.565 628.894 364.429 628.688 364.25C627.633 363.329 626.555 362.449 625.469 361.688C624.183 360.786 622.883 359.991 621.562 359.312C621.55 359.306 621.544 359.288 621.531 359.281C621.398 359.213 621.259 359.191 621.125 359.125C619.533 358.34 617.906 357.744 616.281 357.281C615.72 357.122 615.158 356.996 614.594 356.875C612.813 356.491 611.042 356.219 609.25 356.219Z" fill="#ffffff" fill-rule="nonzero" opacity="1" stroke="none"/>
</g>
</svg>
