/* XPM */
static char * minimozicon_xpm[] = {
"16 16 86 1",
" 	c None",
".	c #9A6803",
"+	c #A26E04",
"@	c #764A04",
"#	c #613D03",
"$	c #7D3104",
"%	c #7F2F04",
"&	c #7E5502",
"*	c #A72604",
"=	c #A82604",
"-	c #855902",
";	c #654403",
">	c #CE2004",
",	c #A91A04",
"'	c #7A5304",
")	c #7B5402",
"!	c #5F4003",
"~	c #402C03",
"{	c #402C04",
"]	c #642F04",
"^	c #540D04",
"/	c #601004",
"(	c #482A04",
"_	c #523803",
":	c #734E02",
"<	c #763A04",
"[	c #DE2304",
"}	c #FE2604",
"|	c #B21B04",
"1	c #AF1A04",
"2	c #C21E04",
"3	c #A31904",
"4	c #A41A04",
"5	c #E22204",
"6	c #230604",
"7	c #881504",
"8	c #703504",
"9	c #6F4504",
"0	c #B41E04",
"a	c #8F1604",
"b	c #A61A04",
"c	c #3B0B06",
"d	c #761304",
"e	c #E52204",
"f	c #AA1A04",
"g	c #560E04",
"h	c #623D04",
"i	c #865A03",
"j	c #781E04",
"k	c #811404",
"l	c #661004",
"m	c #D82104",
"n	c #A31E04",
"o	c #815703",
"p	c #9A3A04",
"q	c #F84F04",
"r	c #FA4604",
"s	c #D32F04",
"t	c #A71A04",
"u	c #BA2304",
"v	c #9C6A03",
"w	c #885C04",
"x	c #D72204",
"y	c #AE1E04",
"z	c #832004",
"A	c #6E1104",
"B	c #E12304",
"C	c #5D3F03",
"D	c #704003",
"E	c #F22604",
"F	c #942404",
"G	c #805503",
"H	c #875C03",
"I	c #3E1B04",
"J	c #E12204",
"K	c #723F04",
"L	c #722C04",
"M	c #7B3504",
"N	c #6E3A04",
"O	c #411A04",
"P	c #A06C03",
"Q	c #604104",
"R	c #624204",
"S	c #996804",
"T	c #9E6B03",
"U	c #875B02",
"                ",
"       .+       ",
"       @#       ",
"       $%       ",
"      &*=-      ",
"      ;>,'      ",
")!~~{~]^/(~~~~_:",
"  <[}|12345678  ",
"   90abcdefgh   ",
"    ijk,lmno    ",
"     pqrstuv    ",
"    wx}yzABC    ",
"    DEFGHIJK    ",
"    LM    NO    ",
"   PQ      RS   ",
"   T        U   "};
