/* XPM */
static char * mozicon50_xpm[] = {
"50 51 9 1",
" 	c None",
".	c #000000",
"+	c #FF0000",
"@	c #808000",
"#	c #800000",
"$	c #FF6633",
"%	c #990066",
"&	c #FF00FF",
"*	c #222222",
"                                                  ",
"                         @                        ",
"                        $@                        ",
"                        @@                        ",
"                        @@$                       ",
"                       $@*@                       ",
"                       @@.@                       ",
"                       @..@                       ",
"                      $@..@@                      ",
"                      $@##*@                      ",
"                      @*#+.@                      ",
"                      @.++.@$                     ",
"                     $@.++.@$                     ",
"                     @*#++#*@                     ",
"                     @.++++.@                     ",
"                    $@.++++.@$                    ",
"                    @*#++++**@                    ",
"                    @.#++++#.@                    ",
"                   $@.++####.@                    ",
"                   @@*+#*##*.@@                   ",
"*@@@@@@@@@@@@@@@@@@@.#+..*##*#@@@@@@@@@@@@@@@@@@@*",
" *@@*................+#..*###.................@@* ",
"  %@@@.#++++++++++++#**#*#++.###++*...#+++#.*@@*  ",
"    *@@.#+++++++++#.##++#+#+*.#+++#..##++#.@@@%   ",
"      $@..+++++++.#++++++##++++#++#...++*.@@$     ",
"       @@*.#+++++.#+++++*.#++++##++#.*...@@       ",
"        $@@.#+++#*++++#....#+++*#+++...*@$        ",
"         *@@..++#*++#**.*.*+++#.#++*..@@$         ",
"           $@*.++******#+++++#+#+++..@@           ",
"            $@@.##..*$#**#+#*#++++..@@            ",
"             $@@.#+#***##...#++++.*@@             ",
"              %@@*++++++++#.#++++.@@              ",
"               @.#+++++++++.##+++.@$              ",
"               @.+$$$$$+$$$#*#+++*@@              ",
"              $@*+$$$$$$$+$#.#+++#.@              ",
"              @*#+++++++++++.#++++.@              ",
"              @.#+++++++#*++.##+++.@$             ",
"             $@.+++++++....#..+#++*@@             ",
"             @@*+++++#.*@@@...*+++#.@             ",
"             @.#++++#.@@@ @@..#++++.@             ",
"             @.++++*.@@$  %@@..+++#.@@            ",
"            $@.+++..@@*     $@*.#+#**@            ",
"            @@#+#.*@$%       $@@.##..@            ",
"            @.##.@@            @@..#.@$           ",
"           $@.*.@@$             @@**.@$           ",
"           $@.*@@               %$@@.*@           ",
"           @.@@$                  *@@.@           ",
"           @@@$                    %@@@$          ",
"          $@@%                      %@@@          ",
"          @@                          $@          ",
"          $                            *          "};
