/* XPM */
static char * mozilla_icon_xpm[] = {
"32 32 257 2",
"  	c None",
". 	c #AA7303",
"+ 	c #A67003",
"@ 	c #B77C03",
"# 	c #8D6003",
"$ 	c #8D6004",
"% 	c #6C4A04",
"& 	c #3A2804",
"* 	c #6B4802",
"= 	c #9B6903",
"- 	c #5A2C04",
"; 	c #411B04",
"> 	c #9D6A03",
", 	c #7A5203",
"' 	c #510D04",
") 	c #6B1104",
"! 	c #7D5503",
"~ 	c #674604",
"{ 	c #C21E04",
"] 	c #C21D04",
"^ 	c #523804",
"/ 	c #513702",
"( 	c #552904",
"_ 	c #DD2204",
": 	c #DF2204",
"< 	c #582904",
"[ 	c #5F3F02",
"} 	c #6B2504",
"| 	c #FE2604",
"1 	c #AB7303",
"2 	c #9B6904",
"3 	c #C31F04",
"4 	c #FE2704",
"5 	c #A81904",
"6 	c #926304",
"7 	c #4D3302",
"8 	c #483104",
"9 	c #C61E04",
"0 	c #B11B04",
"a 	c #891604",
"b 	c #761204",
"c 	c #614304",
"d 	c #775102",
"e 	c #795102",
"f 	c #785102",
"g 	c #C58603",
"h 	c #642404",
"i 	c #B21A04",
"j 	c #1F0604",
"k 	c #550E04",
"l 	c #631004",
"m 	c #402404",
"n 	c #AF7703",
"o 	c #3D2902",
"p 	c #7F5602",
"q 	c #805604",
"r 	c #0C0904",
"s 	c #080604",
"t 	c #080706",
"u 	c #090604",
"v 	c #060404",
"w 	c #620F04",
"x 	c #7A1304",
"y 	c #030204",
"z 	c #570E04",
"A 	c #721204",
"B 	c #270704",
"C 	c #080504",
"D 	c #0A0604",
"E 	c #533804",
"F 	c #A56F02",
"G 	c #B87C03",
"H 	c #3B2804",
"I 	c #A51904",
"J 	c #FC2704",
"K 	c #D62004",
"L 	c #691004",
"M 	c #C01E04",
"N 	c #6D1004",
"O 	c #9C1804",
"P 	c #B31C04",
"Q 	c #150404",
"R 	c #801404",
"S 	c #DD2304",
"T 	c #120404",
"U 	c #130404",
"V 	c #500C04",
"W 	c #CC1E04",
"X 	c #AA1A04",
"Y 	c #100904",
"Z 	c #B47A03",
"` 	c #A77103",
" .	c #513704",
"..	c #891704",
"+.	c #F62604",
"@.	c #BA1D04",
"#.	c #3C0A04",
"$.	c #EB2304",
"%.	c #DE2304",
"&.	c #560E04",
"*.	c #E82304",
"=.	c #FE2804",
"-.	c #BE1D04",
";.	c #F12404",
">.	c #661004",
",.	c #020204",
"'.	c #5E0F04",
").	c #A61A04",
"!.	c #4A3204",
"~.	c #BC7E03",
"{.	c #8E6002",
"].	c #684604",
"^.	c #390D04",
"/.	c #EE2404",
"(.	c #FE2904",
"_.	c #7D1304",
":.	c #8C1504",
"<.	c #200604",
"[.	c #A81A04",
"}.	c #E72204",
"|.	c #DA2004",
"1.	c #070204",
"2.	c #280704",
"3.	c #543904",
"4.	c #9F6C02",
"5.	c #674602",
"6.	c #B47B04",
"7.	c #311004",
"8.	c #B11C04",
"9.	c #AA1B04",
"0.	c #6A1104",
"a.	c #801504",
"b.	c #2B0704",
"c.	c #09090A",
"d.	c #450B04",
"e.	c #360904",
"f.	c #DC2204",
"g.	c #EE2504",
"h.	c #C11D04",
"i.	c #6F1104",
"j.	c #704B04",
"k.	c #9C6902",
"l.	c #A56F03",
"m.	c #5F4004",
"n.	c #8D1604",
"o.	c #440A04",
"p.	c #1A0504",
"q.	c #931604",
"r.	c #621004",
"s.	c #7F1404",
"t.	c #921704",
"u.	c #F82504",
"v.	c #F52504",
"w.	c #981804",
"x.	c #241804",
"y.	c #5B3E04",
"z.	c #D82204",
"A.	c #D02004",
"B.	c #DA2104",
"C.	c #D52104",
"D.	c #2A1A04",
"E.	c #AC7403",
"F.	c #2B1C04",
"G.	c #D04004",
"H.	c #FC3C04",
"I.	c #F94E04",
"J.	c #881504",
"K.	c #FC2604",
"L.	c #792804",
"M.	c #AC7503",
"N.	c #9A6803",
"O.	c #782804",
"P.	c #F66504",
"Q.	c #F94B04",
"R.	c #F46804",
"S.	c #F46604",
"T.	c #F76504",
"U.	c #FB4204",
"V.	c #C13D04",
"W.	c #5D0E04",
"X.	c #DA2204",
"Y.	c #741604",
"Z.	c #8C5E03",
"`.	c #885B03",
" +	c #8B1904",
".+	c #DE2204",
"++	c #D22D04",
"@+	c #C42D04",
"#+	c #580E04",
"$+	c #9F1804",
"%+	c #895D04",
"&+	c #D62204",
"*+	c #371904",
"=+	c #2C1A04",
"-+	c #4A0C04",
";+	c #140404",
">+	c #AB1A04",
",+	c #DA2304",
"'+	c #6A4702",
")+	c #754F02",
"!+	c #821404",
"~+	c #462B04",
"{+	c #B37A03",
"]+	c #B17803",
"^+	c #714C04",
"/+	c #580F04",
"(+	c #E32204",
"_+	c #DD2104",
":+	c #611D04",
"<+	c #BA7F03",
"[+	c #B27803",
"}+	c #6F1D04",
"|+	c #FD2704",
"1+	c #F22504",
"2+	c #634304",
"3+	c #875B03",
"4+	c #734F02",
"5+	c #805704",
"6+	c #1D0504",
"7+	c #DB2204",
"8+	c #EA2404",
"9+	c #2E0804",
"0+	c #815803",
"a+	c #941704",
"b+	c #C11E04",
"c+	c #391B04",
"d+	c #A77104",
"e+	c #B67C04",
"f+	c #371D04",
"g+	c #360A04",
"h+	c #573A04",
"i+	c #372604",
"j+	c #3E2104",
"k+	c #B57A03",
"l+	c #B57B03",
"m+	c #603F04",
"n+	c #430A04",
"o+	c #351904",
"p+	c #A36E03",
"q+	c #BE8103",
"r+	c #1D1404",
"s+	c #483004",
"t+	c #A26E03",
"u+	c #6D4B02",
"v+	c #825804",
"w+	c #0B0804",
"x+	c #976603",
"y+	c #815703",
"z+	c #926404",
"A+	c #895D03",
"B+	c #614202",
"C+	c #9A6804",
"D+	c #C88704",
"E+	c #C18303",
"F+	c #654302",
"G+	c #744F02",
"H+	c #704B02",
"                                                                ",
"                                .                               ",
"                              + @                               ",
"                              # $                               ",
"                              % & *                             ",
"                            = - ; >                             ",
"                            , ' ) !                             ",
"                            ~ { ] ^                             ",
"                          / ( _ : < [                           ",
"                          . } | | } 1                           ",
"                          2 3 | 4 5 6                           ",
"                        7 8 9 0 a b c                           ",
"  d e f f f d d d d d d g h i j k l m n d d d d d d d d d d d o ",
"  p q r s s s s t s s u v w x y z A B C D D D D D s s s s E F   ",
"      G H I J 4 | 4 | K L L M N O P Q R | S T U V W X Y Z       ",
"        `  ...+.| 4 @.#.$.4 | %.&.*.4 =.-.;.>.,.'.).!.~.        ",
"          {.].^./.(.X _.;.| :.T <.[.| }.z | |.1.2.3.4.          ",
"            5.6.7.8.9.0.a.b.c.d.e.f.g.h.&.| i.u j.k.            ",
"                l.m.n.o.p.q._.r.a.s.t.u.v.w.x.Z                 ",
"                  {.y.P z.R A.v.x j B.| C.D.E.                  ",
"                    F.G.H.I.4 | 4 t.J.f.K.L.M.                  ",
"                  N.O.P.Q.R.S.T.U.V.W.X.4 Y.Z.                  ",
"                  `. +4 =.| | .+++@+#+$+| K %+                  ",
"                  %+&+| | | I *+=+-+;+>+,+&+x.'+                ",
"                )+=+X.=.| !+~+{+]+^+,./+(+_+:+<+                ",
"                [+}+|+1+) 2+3+    4+5+6+7+8+9+0+                ",
"                $ a+b+c+d+            e+f+0.g+h+                ",
"                i+A j+k+                l+m+n+o+p+              ",
"              q+r+s+t+                    u+v+w+x+              ",
"              y+z+A+                        B+C+2               ",
"              D+                                E+F+            ",
"            G+                                    H+            "};
