<!-- This Source Code Form is subject to the terms of the Mozilla Public
   - License, v. 2.0. If a copy of the MPL was not distributed with this
   - file, You can obtain one at http://mozilla.org/MPL/2.0/. -->
<svg width="22" height="23" viewBox="0 0 22 23" fill="none" xmlns="http://www.w3.org/2000/svg">
<style>
  .cloud {
    fill: context-fill #5B5B66;
  }
  .snow {
    fill: context-fill #80808F;
  }

  @media (prefers-color-scheme: dark) {
    .cloud {
      fill: context-fill #BFBFC9;
    }
    .snow {
      fill: context-fill #FFFFFF;
    }
  }
</style>
<path class="cloud" d="M2.00113 11.2761C1.97843 10.3047 2.29954 9.35647 2.90782 8.59876C3.49457 7.84442 4.3215 7.31326 5.25152 7.09331C5.50041 5.95661 6.1351 4.94111 7.04779 4.21928C7.95316 3.50541 9.07253 3.11719 10.2255 3.11719C11.3784 3.11719 12.4978 3.50541 13.4032 4.21928C14.303 4.91251 14.9372 5.894 15.1994 6.99922H15.4732C16.0321 6.99358 16.5865 7.09864 17.1046 7.30836C17.6227 7.51808 18.0942 7.82829 18.4918 8.22112C18.8893 8.61395 19.2052 9.0816 19.4212 9.59712C19.6371 10.1126 19.7489 10.6658 19.75 11.2247C19.7462 12.3177 19.3191 13.3667 18.5583 14.1514C17.7975 14.9361 16.7622 15.3955 15.6699 15.4331C15.5587 15.4331 15.4988 15.3818 15.4988 15.2877V14.1586C15.4988 14.056 15.5587 14.0047 15.6699 14.0047C16.022 13.9936 16.3684 13.9122 16.6886 13.7653C17.0089 13.6184 17.2965 13.409 17.5346 13.1493C17.9061 12.7509 18.1532 12.2526 18.2455 11.7158C18.3378 11.1789 18.2713 10.6267 18.0542 10.1271C17.8371 9.62747 17.4788 9.20212 17.0233 8.90327C16.5679 8.60442 16.035 8.44507 15.4903 8.44479H14.0789C13.9763 8.44479 13.9249 8.39347 13.9249 8.29938L13.8565 7.80327C13.7637 6.90481 13.342 6.0724 12.6725 5.46607C12.003 4.85975 11.133 4.52231 10.2298 4.51866C9.31384 4.51339 8.42969 4.85407 7.75411 5.47256C7.07852 6.09105 6.66131 6.94176 6.5859 7.85459L6.53457 8.28227C6.53597 8.30472 6.53243 8.32721 6.5242 8.34814C6.51597 8.36907 6.50325 8.38795 6.48695 8.40344C6.47064 8.41893 6.45114 8.43066 6.42981 8.43781C6.40848 8.44495 6.38585 8.44734 6.3635 8.44479L5.91016 8.50467C5.22262 8.54406 4.57783 8.8511 4.11388 9.36004C3.76039 9.7518 3.5253 10.2358 3.43594 10.7559C3.34657 11.2759 3.4066 11.8106 3.60904 12.2979C3.81148 12.7852 4.14802 13.2051 4.57958 13.5087C5.01113 13.8123 5.51998 13.9873 6.04701 14.0132C6.1411 14.0132 6.19243 14.0646 6.19243 14.1672V15.3048C6.1953 15.3246 6.19351 15.3448 6.18722 15.3637C6.18093 15.3827 6.1703 15.3999 6.15618 15.414C6.14206 15.4281 6.12484 15.4388 6.10589 15.445C6.08693 15.4513 6.06678 15.4531 6.04701 15.4503C5.50533 15.4389 4.97136 15.3196 4.47638 15.0993C3.9814 14.879 3.53537 14.5621 3.16443 14.1672C2.42685 13.3841 2.01148 12.3518 2.00113 11.2761Z"/>
<path class="snow" d="M7.49324 14.4285C7.45796 14.5138 7.44029 14.6053 7.44129 14.6976C7.43845 14.7926 7.45521 14.8872 7.49053 14.9755C7.52585 15.0638 7.57897 15.1439 7.64657 15.2108C7.71075 15.2801 7.78893 15.3351 7.87593 15.3719C7.96294 15.4088 8.05677 15.4267 8.15124 15.4246C8.24586 15.4279 8.34004 15.4104 8.42721 15.3735C8.51438 15.3365 8.59243 15.281 8.65591 15.2108C8.75628 15.1115 8.82476 14.9845 8.8526 14.8461C8.88044 14.7077 8.86637 14.5641 8.8122 14.4337C8.75802 14.3033 8.6662 14.192 8.54846 14.1141C8.43073 14.0362 8.29243 13.9951 8.15124 13.9962C8.05748 13.9935 7.96419 14.0103 7.8773 14.0457C7.79042 14.081 7.71184 14.1341 7.64657 14.2014C7.58068 14.266 7.52852 14.3433 7.49324 14.4285Z"/>
<path class="snow" d="M7.48729 17.5287C7.4534 17.6159 7.43775 17.7091 7.44129 17.8025V17.8196C7.44159 17.9989 7.51223 18.1709 7.63802 18.2987C7.77414 18.4276 7.95524 18.4982 8.14269 18.4954C8.23589 18.4997 8.32896 18.4844 8.41588 18.4505C8.50281 18.4167 8.58167 18.3649 8.64735 18.2987C8.77802 18.1631 8.85103 17.9822 8.85103 17.794C8.85103 17.6057 8.77802 17.4248 8.64735 17.2893C8.51124 17.1604 8.33013 17.0898 8.14269 17.0926C8.04919 17.0902 7.9562 17.107 7.86945 17.1419C7.7827 17.1768 7.70403 17.2292 7.6383 17.2957C7.57257 17.3623 7.52117 17.4416 7.48729 17.5287Z"/>
<path class="snow" d="M10.3837 15.878C10.2455 16.0197 10.1687 16.2103 10.1699 16.4083C10.1681 16.5997 10.2419 16.7841 10.3752 16.9215C10.4377 16.9906 10.5144 17.0455 10.6 17.0824C10.6856 17.1193 10.7781 17.1374 10.8713 17.1354C10.9675 17.1365 11.063 17.1185 11.1522 17.0825C11.2414 17.0465 11.3225 16.9931 11.391 16.9255C11.4594 16.8578 11.5137 16.7773 11.5508 16.6885C11.5878 16.5997 11.6069 16.5045 11.6069 16.4083C11.6005 16.2152 11.521 16.0318 11.3844 15.8952C11.2478 15.7586 11.0644 15.6791 10.8713 15.6727C10.7803 15.6718 10.6902 15.6896 10.6063 15.7249C10.5225 15.7602 10.4467 15.8123 10.3837 15.878Z"/>
<path class="snow" d="M10.1699 13.294C10.171 13.2045 10.1893 13.1159 10.2238 13.0332C10.2606 12.9449 10.315 12.8651 10.3837 12.7986C10.5147 12.6714 10.6888 12.5981 10.8713 12.5934C10.9683 12.591 11.0648 12.6087 11.1546 12.6455C11.2444 12.6823 11.3256 12.7374 11.3931 12.8072C11.4627 12.873 11.5176 12.9527 11.5545 13.0411C11.5913 13.1295 11.6092 13.2247 11.6069 13.3204C11.609 13.4149 11.5911 13.5087 11.5542 13.5957C11.5174 13.6827 11.4624 13.7609 11.3931 13.8251C11.324 13.8921 11.2424 13.9448 11.1528 13.98C11.0632 14.0153 10.9675 14.0324 10.8713 14.0304C10.7789 14.0324 10.6871 14.0152 10.6017 13.9798C10.5163 13.9445 10.4392 13.8918 10.3752 13.8251C10.3039 13.752 10.2487 13.6648 10.2133 13.569C10.178 13.4732 10.1632 13.371 10.1699 13.2691V13.294Z"/>
<path class="snow" d="M10.1699 19.5255C10.1708 19.4332 10.1892 19.3419 10.2242 19.2565C10.2609 19.1669 10.3152 19.0855 10.3837 19.0172C10.4467 18.9515 10.5225 18.8994 10.6063 18.8641C10.6902 18.8288 10.7803 18.811 10.8713 18.8119C10.9675 18.8107 11.063 18.8287 11.1522 18.8647C11.2414 18.9008 11.3225 18.9542 11.391 19.0218C11.4594 19.0894 11.5137 19.1699 11.5508 19.2587C11.5878 19.3475 11.6069 19.4427 11.6069 19.5389C11.609 19.6334 11.5911 19.7272 11.5542 19.8142C11.5174 19.9012 11.4624 19.9794 11.3931 20.0436C11.324 20.1107 11.2424 20.1633 11.1528 20.1986C11.0632 20.2338 10.9675 20.2509 10.8713 20.2489C10.7789 20.2509 10.6871 20.2337 10.6017 20.1984C10.5163 20.163 10.4392 20.1103 10.3752 20.0436C10.3036 19.9725 10.2482 19.8868 10.2128 19.7923C10.1774 19.6978 10.1627 19.5968 10.1699 19.4962V19.5255Z"/>
<path class="snow" d="M12.9794 14.4272C12.9426 14.5126 12.9238 14.6046 12.9242 14.6976C12.9241 14.7917 12.943 14.8849 12.9798 14.9716C13.0165 15.0583 13.0703 15.1368 13.138 15.2022C13.2035 15.2722 13.2831 15.3275 13.3716 15.3644C13.4601 15.4012 13.5554 15.4189 13.6513 15.4161C13.7459 15.4193 13.8401 15.4019 13.9272 15.3649C14.0144 15.328 14.0924 15.2725 14.1559 15.2022C14.2563 15.1029 14.3248 14.9759 14.3526 14.8375C14.3804 14.6991 14.3664 14.5555 14.3122 14.4251C14.258 14.2947 14.1662 14.1835 14.0485 14.1055C13.9307 14.0276 13.7924 13.9865 13.6513 13.9876C13.5556 13.9864 13.4608 14.0047 13.3726 14.0415C13.2843 14.0783 13.2045 14.1327 13.138 14.2014C13.0702 14.265 13.0162 14.3418 12.9794 14.4272Z"/>
<path class="snow" d="M12.9774 17.5254C12.9411 17.6132 12.923 17.7075 12.9242 17.8025V17.8196C12.9258 17.9085 12.9456 17.9961 12.9824 18.077C13.0191 18.158 13.0721 18.2305 13.138 18.2901C13.2049 18.3577 13.285 18.4108 13.3733 18.4461C13.4616 18.4815 13.5562 18.4982 13.6513 18.4954C13.7445 18.4997 13.8375 18.4844 13.9245 18.4505C14.0114 18.4167 14.0902 18.3649 14.1559 18.2987C14.2205 18.2318 14.2712 18.1527 14.305 18.0661C14.3387 17.9794 14.355 17.8869 14.3527 17.794C14.3575 17.7007 14.3425 17.6075 14.3086 17.5205C14.2746 17.4335 14.2226 17.3547 14.1559 17.2893C14.089 17.2247 14.01 17.174 13.9233 17.1403C13.8367 17.1065 13.7442 17.0903 13.6513 17.0926C13.5563 17.0891 13.4616 17.105 13.3729 17.1392C13.2843 17.1734 13.2035 17.2253 13.1355 17.2917C13.0675 17.3581 13.0137 17.4376 12.9774 17.5254Z"/>
</svg>
