  <!-- This Source Code Form is subject to the terms of the Mozilla Public
   - License, v. 2.0. If a copy of the MPL was not distributed with this
   - file, You can obtain one at http://mozilla.org/MPL/2.0/. -->
<svg width="22" height="23" viewBox="0 0 22 23" fill="none" xmlns="http://www.w3.org/2000/svg">
<style>
  .cloud {
    fill: context-fill #5B5B66;
  }
  .fog {
    fill: context-fill #80808F;
  }

  @media (prefers-color-scheme: dark) {
    .cloud {
      fill: context-fill #BFBFC9;
    }
    .fog {
      fill: context-fill #80808F;
    }
  }
</style>
<path class="cloud" d="M3.61133 11.3537C3.61133 11.4233 3.61133 11.4542 3.72648 11.4542H4.86261C4.90867 11.4542 4.96241 11.4156 5.01615 11.3304C5.1944 10.9349 5.47559 10.5953 5.82987 10.3478C6.17858 10.0942 6.59076 9.94414 7.01974 9.9145L7.44195 9.86034C7.52639 9.86034 7.57245 9.81391 7.57245 9.72107L7.62619 9.3342C7.69164 8.52584 8.06928 7.77568 8.67788 7.24511C9.27972 6.70931 10.055 6.41361 10.858 6.41361C11.661 6.41361 12.4364 6.70931 13.0382 7.24511C13.6358 7.77269 14.0072 8.51317 14.0745 9.31098L14.1359 9.75202C14.1359 9.83713 14.1897 9.88355 14.2895 9.88355H15.5101C15.9902 9.87859 16.4608 10.0187 16.8611 10.2859C17.2579 10.5441 17.5724 10.9122 17.767 11.3459C17.8207 11.431 17.8745 11.4697 17.9282 11.4697H19.0259C19.1181 11.4697 19.1564 11.4156 19.1334 11.2918C18.9151 10.5126 18.445 9.82911 17.7977 9.34967C17.1379 8.8386 16.3268 8.56608 15.4947 8.57593H15.2491C15.0123 7.57253 14.4438 6.68023 13.637 6.04581C12.8453 5.39881 11.8541 5.0512 10.835 5.06317C9.79095 5.05282 8.77683 5.41454 7.97164 6.0845C7.16135 6.7486 6.60509 7.67576 6.39793 8.70747C5.75132 8.85712 5.15705 9.18067 4.67838 9.64369C4.19186 10.103 3.8366 10.6855 3.64971 11.3304C3.64971 11.3304 3.61133 11.3227 3.61133 11.3537Z"/>
<path class="fog" d="M1.54645 15.3759C1.51338 15.4572 1.49765 15.5446 1.50028 15.6324C1.49848 15.7167 1.51469 15.8004 1.5478 15.8779C1.58091 15.9553 1.63016 16.0246 1.6922 16.0812C1.82545 16.1998 1.99814 16.2633 2.17582 16.2592H16.508C16.6789 16.2637 16.8446 16.1997 16.9686 16.0812C17.0315 16.0253 17.0813 15.9561 17.1145 15.8785C17.1477 15.8009 17.1634 15.7169 17.1605 15.6324C17.1638 15.5452 17.1491 15.4582 17.1175 15.377C17.0858 15.2957 17.0379 15.2219 16.9766 15.1602C16.9154 15.0984 16.8421 15.0501 16.7615 15.0182C16.6809 14.9863 16.5946 14.9715 16.508 14.9748H2.17582C2.08706 14.9722 1.99865 14.9872 1.91567 15.0191C1.83268 15.0509 1.75674 15.099 1.6922 15.1605C1.62917 15.2212 1.57951 15.2946 1.54645 15.3759Z"/>
<path class="fog" d="M3.56145 12.949C3.52703 13.0291 3.51001 13.1156 3.51155 13.2029C3.51046 13.2894 3.52692 13.3752 3.55992 13.455C3.59293 13.5348 3.64177 13.607 3.70347 13.6671C3.76224 13.7305 3.8337 13.7805 3.91311 13.8138C3.99252 13.8472 4.07807 13.8631 4.16406 13.8606H18.4963C18.5799 13.8624 18.663 13.8461 18.7398 13.8127C18.8166 13.7793 18.8854 13.7297 18.9415 13.6671C19.0584 13.5416 19.1218 13.375 19.1181 13.2029C19.1212 13.119 19.1074 13.0354 19.0774 12.9571C19.0475 12.8788 19.0021 12.8074 18.9439 12.7473C18.8857 12.6872 18.8161 12.6397 18.7391 12.6076C18.6622 12.5756 18.5795 12.5596 18.4963 12.5607H4.16406C4.08058 12.5582 3.99745 12.5727 3.91963 12.6032C3.84182 12.6338 3.77091 12.6799 3.71114 12.7387C3.64692 12.7972 3.59588 12.8689 3.56145 12.949Z"/>
<path class="fog" d="M4.91274 17.7498C4.87828 17.8286 4.86119 17.914 4.86263 18.0001C4.85925 18.085 4.87395 18.1697 4.90573 18.2484C4.9375 18.3272 4.98563 18.3981 5.04687 18.4566C5.10613 18.5198 5.17751 18.5702 5.25669 18.6048C5.33586 18.6394 5.42118 18.6574 5.50747 18.6578H19.8474C19.9337 18.6578 20.0192 18.6405 20.0988 18.607C20.1785 18.5734 20.2508 18.5243 20.3115 18.4624C20.3722 18.4005 20.4201 18.3271 20.4524 18.2464C20.4848 18.1657 20.5009 18.0794 20.4999 17.9923C20.5017 17.908 20.4855 17.8243 20.4523 17.7469C20.4192 17.6695 20.37 17.6001 20.308 17.5436C20.1834 17.4258 20.0181 17.3619 19.8474 17.3656H5.52282C5.43806 17.362 5.35348 17.376 5.27427 17.4066C5.19505 17.4372 5.12289 17.4838 5.06223 17.5436C4.9982 17.6006 4.9472 17.6709 4.91274 17.7498Z"/>
</svg>
