<!-- This Source Code Form is subject to the terms of the Mozilla Public
   - License, v. 2.0. If a copy of the MPL was not distributed with this
   - file, You can obtain one at http://mozilla.org/MPL/2.0/. -->
<svg width="22" height="23" viewBox="0 0 22 23" fill="none" xmlns="http://www.w3.org/2000/svg">
<style>
  .cloud {
    fill: context-fill #5B5B66;
  }
  .rain {
    fill: context-fill #054096;
  }
  .snow {
    fill: context-fill #5B5B66;
  }

  @media (prefers-color-scheme: dark) {
    .cloud {
      fill: context-fill #BFBFC9;
    }
    .rain {
      fill: context-fill #00B3F4;
    }
    .snow {
      fill: context-fill #FFFFFF;
    }
  }
</style>
<path class="cloud" d="M2.63574 11.0535C2.62936 11.5646 2.72612 12.0717 2.92025 12.5446C3.11437 13.0174 3.40187 13.4462 3.76554 13.8054C4.11617 14.1793 4.53823 14.479 5.00674 14.687C5.47526 14.8949 5.98071 15.0067 6.49321 15.0159C6.59005 15.0159 6.63847 14.9675 6.63847 14.8787V13.7731C6.64113 13.7534 6.63921 13.7333 6.63285 13.7145C6.6265 13.6957 6.61587 13.6785 6.60181 13.6645C6.58776 13.6504 6.57064 13.6398 6.5518 13.6334C6.53296 13.6271 6.51291 13.6252 6.49321 13.6278C6.16236 13.6163 5.83712 13.539 5.53645 13.4004C5.23579 13.2619 4.96573 13.0649 4.74202 12.8208C4.27902 12.347 4.0158 11.7135 4.00678 11.0511C3.99777 10.3887 4.24366 9.74816 4.69359 9.26195C5.13234 8.78319 5.74007 8.4938 6.3883 8.45495L6.81601 8.39846C6.83603 8.40088 6.85634 8.39885 6.87549 8.39253C6.89464 8.3862 6.91216 8.37573 6.9268 8.36186C6.94144 8.34798 6.95284 8.33106 6.9602 8.31228C6.96755 8.2935 6.97067 8.27333 6.96934 8.2532L7.02583 7.8497C7.10057 6.99845 7.49187 6.2062 8.1224 5.62945C8.75294 5.05271 9.57685 4.73342 10.4314 4.73468C11.2788 4.74098 12.0946 5.05716 12.7249 5.62356C13.3552 6.18997 13.7565 6.96744 13.8531 7.80935L13.9096 8.27741C13.9096 8.37425 13.958 8.42267 14.0629 8.42267H15.3541C15.8697 8.41705 16.3755 8.56353 16.8082 8.84378C17.241 9.12404 17.5816 9.52564 17.7874 9.99839C17.9932 10.4711 18.0551 10.9941 17.9654 11.5018C17.8756 12.0095 17.6382 12.4796 17.2828 12.8531C16.8242 13.3414 16.1928 13.631 15.5236 13.6601C15.4186 13.6601 15.3622 13.7085 15.3622 13.8054V14.8464C15.3622 14.9352 15.4186 14.9836 15.5236 14.9836C16.5471 14.9503 17.5182 14.5229 18.234 13.7905C18.9499 13.0582 19.355 12.0775 19.3649 11.0535C19.3706 10.3495 19.1837 9.65742 18.8242 9.05213C18.4748 8.44046 17.9715 7.9309 17.3641 7.57412C16.7567 7.21734 16.0665 7.02578 15.3622 7.01849H15.112C14.8615 5.9684 14.2609 5.03488 13.4092 4.37153C12.5693 3.69269 11.5193 3.32746 10.4394 3.33856C9.343 3.33828 8.27893 3.71014 7.42132 4.39329C6.56371 5.07644 5.96336 6.03044 5.71849 7.09919C4.83953 7.31309 4.05795 7.81615 3.49923 8.52758C2.92369 9.24202 2.61799 10.1362 2.63574 11.0535Z" fill="#5B5B66"/>
<path class="rain" d="M7.12265 17.114C7.04026 16.9924 6.99537 16.8493 6.99353 16.7025C6.99353 16.6137 7.0016 16.6137 7.0016 16.6137L7.11458 16.1376C7.13735 16.0484 7.17762 15.9647 7.23304 15.8913C7.28845 15.8179 7.35791 15.7562 7.43738 15.7098C7.51347 15.6619 7.59918 15.6312 7.68843 15.6201C7.77769 15.6089 7.86831 15.6175 7.95386 15.6453C8.12269 15.6927 8.26731 15.8023 8.35863 15.952C8.44996 16.1017 8.48122 16.2805 8.44613 16.4523L8.33315 16.9446C8.31955 17.0392 8.28401 17.1294 8.22936 17.2078C8.17472 17.2863 8.10248 17.3509 8.01842 17.3965C7.93662 17.4307 7.84884 17.4483 7.76018 17.4483C7.67152 17.4483 7.58375 17.4307 7.50194 17.3965C7.34696 17.3484 7.2131 17.2487 7.12265 17.114Z" fill="#054096"/>
<path class="rain" d="M8.2121 12.8934C8.12962 12.7911 8.08922 12.6613 8.09912 12.5303V12.5141C8.10724 12.481 8.11804 12.4486 8.1314 12.4173V12.3204L8.32508 11.578C8.37791 11.4052 8.49681 11.2602 8.65595 11.1745C8.73122 11.128 8.81588 11.0988 8.9038 11.0891C8.99173 11.0793 9.08073 11.0892 9.16436 11.118C9.34418 11.1641 9.49988 11.2765 9.60014 11.4327C9.64747 11.5107 9.67706 11.5981 9.68682 11.6887C9.69659 11.7794 9.68628 11.8711 9.65664 11.9573L9.43067 12.6836C9.40718 12.7714 9.36562 12.8534 9.30865 12.9243C9.25168 12.9951 9.18055 13.0533 9.0998 13.0952C9.02444 13.1376 8.94132 13.1645 8.85537 13.1742C8.76942 13.1839 8.68239 13.1762 8.59946 13.1517C8.44419 13.1134 8.30717 13.022 8.2121 12.8934Z" fill="#054096"/>
<path class="rain" d="M9.16436 19.6238C9.08547 19.504 9.04339 19.3637 9.04331 19.2203V19.2042C9.04416 19.1416 9.05228 19.0793 9.06752 19.0186L9.1805 18.5424C9.23225 18.367 9.35116 18.2191 9.51137 18.1308C9.58664 18.0844 9.6713 18.0552 9.75922 18.0454C9.84715 18.0356 9.93615 18.0455 10.0198 18.0744C10.1072 18.0907 10.19 18.1259 10.2625 18.1775C10.3349 18.229 10.3953 18.2957 10.4394 18.3729C10.5307 18.5408 10.5539 18.7373 10.504 18.9217L10.391 19.3978C10.3671 19.5455 10.2879 19.6785 10.1695 19.77C10.0511 19.8614 9.90238 19.9043 9.75348 19.8901C9.68646 19.898 9.61874 19.898 9.55172 19.8901C9.39306 19.8547 9.25425 19.7593 9.16436 19.6238Z" fill="#054096"/>
<path class="rain" d="M10.2861 15.4113C10.2115 15.2993 10.1747 15.1664 10.1812 15.032C10.1819 14.9591 10.1873 14.8863 10.1973 14.8141L10.3829 14.0878C10.4071 13.9981 10.4487 13.9142 10.5055 13.8408C10.5623 13.7674 10.6331 13.7059 10.7138 13.6601C10.7901 13.6126 10.8758 13.5822 10.965 13.5711C11.0541 13.56 11.1447 13.5683 11.2303 13.5955C11.4099 13.6423 11.5637 13.7584 11.658 13.9183C11.7045 13.9936 11.7337 14.0782 11.7434 14.1662C11.7532 14.2541 11.7433 14.3431 11.7145 14.4267L11.4966 15.153C11.4763 15.2474 11.4364 15.3364 11.3794 15.4143C11.3224 15.4922 11.2496 15.5571 11.1657 15.6049C11.0058 15.6856 10.8214 15.7029 10.6492 15.6534C10.5751 15.6409 10.5043 15.6129 10.4417 15.5712C10.3791 15.5295 10.3261 15.475 10.2861 15.4113Z" fill="#054096"/>
<path class="rain" d="M12.5296 17.1544C12.4532 17.0394 12.4112 16.905 12.4085 16.767H12.4004C12.4047 16.72 12.4155 16.6738 12.4327 16.6298C12.4347 16.5976 12.4347 16.5652 12.4327 16.533L12.5053 16.0569C12.5295 15.966 12.5717 15.8809 12.6293 15.8067C12.687 15.7324 12.759 15.6705 12.841 15.6246C12.923 15.5787 13.0135 15.5497 13.1069 15.5394C13.2003 15.5291 13.2949 15.5377 13.385 15.5646C13.4728 15.5881 13.5548 15.6296 13.6257 15.6866C13.6965 15.7436 13.7547 15.8147 13.7966 15.8955C13.843 15.9707 13.8722 16.0554 13.882 16.1433C13.8918 16.2312 13.8819 16.3202 13.853 16.4039L13.7401 16.8881C13.7257 17.0386 13.654 17.1778 13.5399 17.277C13.4257 17.3761 13.2778 17.4276 13.1267 17.4207H13.0138H12.9008C12.7484 17.3808 12.6162 17.286 12.5296 17.1544Z" fill="#054096"/>
<path class="rain" d="M13.6271 12.8692C13.5427 12.7577 13.4974 12.6216 13.498 12.4818L13.5383 12.3689V12.272L13.7643 11.5376C13.7857 11.4536 13.8238 11.3748 13.8764 11.3059C13.9289 11.2369 13.9948 11.1793 14.0701 11.1364C14.1454 11.0934 14.2286 11.0661 14.3147 11.056C14.4008 11.0459 14.4881 11.0533 14.5713 11.0777C14.658 11.1011 14.7392 11.1418 14.8099 11.1972C14.8806 11.2527 14.9394 11.3218 14.9828 11.4005C15.0291 11.4757 15.0588 11.56 15.07 11.6477C15.0811 11.7354 15.0734 11.8244 15.0474 11.9089L14.8537 12.6352C14.8317 12.7247 14.7908 12.8084 14.7337 12.8808C14.6767 12.9532 14.6048 13.0125 14.5229 13.0548C14.4318 13.0981 14.333 13.1228 14.2323 13.1274H14.1194H14.0225C13.8648 13.0896 13.7251 12.9984 13.6271 12.8692Z" fill="#054096"/>
<path class="snow" d="M7.65982 14.6132C7.62511 14.534 7.60706 14.4486 7.60681 14.3622V14.3461C7.61108 14.1705 7.67676 14.002 7.79242 13.8699C7.91789 13.7488 8.0861 13.6821 8.26048 13.6843C8.34942 13.6821 8.43787 13.6979 8.52057 13.7307C8.60327 13.7635 8.67851 13.8126 8.74179 13.8751C8.80507 13.9377 8.85509 14.0123 8.88886 14.0946C8.92264 14.1769 8.93948 14.2652 8.93836 14.3541C8.94089 14.4426 8.92498 14.5306 8.89164 14.6126C8.85829 14.6945 8.80824 14.7687 8.74468 14.8303C8.68159 14.894 8.60604 14.9442 8.52273 14.9775C8.43943 15.0108 8.35016 15.0266 8.26048 15.0239C8.17503 15.0251 8.09035 15.0077 8.01231 14.9728C7.93427 14.938 7.86475 14.8866 7.80856 14.8222C7.74516 14.7635 7.69453 14.6923 7.65982 14.6132Z" fill="#5B5B66"/>
<path class="snow" d="M9.71673 17.1351C9.68202 17.0546 9.66429 16.9677 9.66466 16.88V16.8639C9.66072 16.7772 9.67523 16.6906 9.70722 16.6099C9.73922 16.5293 9.78798 16.4563 9.85028 16.3958C9.91337 16.3349 9.98796 16.2871 10.0697 16.2552C10.1514 16.2234 10.2387 16.2081 10.3264 16.2102C10.4143 16.2062 10.5021 16.2206 10.5842 16.2525C10.6662 16.2845 10.7406 16.3333 10.8025 16.3958C10.9237 16.5213 10.9904 16.6895 10.9881 16.8639C10.9945 16.9545 10.9813 17.0454 10.9492 17.1304C10.9172 17.2153 10.8672 17.2924 10.8025 17.3562C10.7394 17.4171 10.6649 17.4649 10.5831 17.4968C10.5014 17.5287 10.4141 17.5439 10.3264 17.5418C10.2406 17.5426 10.1555 17.5258 10.0764 17.4925C9.99729 17.4592 9.92583 17.41 9.86642 17.3481C9.8024 17.2882 9.75144 17.2156 9.71673 17.1351Z" fill="#5B5B66"/>
<path class="snow" d="M13.0558 14.5983C13.021 14.5189 13.0039 14.4328 13.0057 14.3461C13.0022 14.2582 13.017 14.1707 13.0491 14.0888C13.0811 14.007 13.1298 13.9327 13.1919 13.8706C13.254 13.8084 13.3284 13.7598 13.4102 13.7278C13.492 13.6957 13.5796 13.6809 13.6674 13.6843C13.7554 13.6797 13.8433 13.6939 13.9254 13.7259C14.0075 13.7579 14.0819 13.807 14.1435 13.8699C14.2045 13.933 14.2523 14.0076 14.2841 14.0893C14.316 14.1711 14.3313 14.2584 14.3291 14.3461C14.3331 14.4328 14.3186 14.5193 14.2866 14.6C14.2546 14.6807 14.2058 14.7537 14.1435 14.8141C14.0804 14.8751 14.0058 14.9229 13.9241 14.9547C13.8424 14.9866 13.7551 15.0019 13.6674 14.9997C13.5814 15.002 13.4958 14.9859 13.4165 14.9525C13.3372 14.9191 13.2659 14.8692 13.2074 14.806C13.1424 14.7486 13.0907 14.6777 13.0558 14.5983Z" fill="#5B5B66"/>
</svg>
