<!-- This Source Code Form is subject to the terms of the Mozilla Public
   - License, v. 2.0. If a copy of the MPL was not distributed with this
   - file, You can obtain one at http://mozilla.org/MPL/2.0/. -->
<svg width="22" height="23" viewBox="0 0 22 23" fill="none" xmlns="http://www.w3.org/2000/svg">
<style>
  .thermometer-stroke {
    stroke: context-stroke #C50043;
  }
  .thermometer-fill {
    fill: context-fill #C50043;
  }
  .sun-stroke {
    stroke: context-stroke #E27F2E;
  }
  .sun-fill {
    fill: context-fill #E27F2E;
  }

  @media (prefers-color-scheme: dark) {
    .thermometer-stroke {
      stroke: context-stroke #FF6A75;
    }
    .thermometer-fill {
      fill: context-fill #FF6A75;
    }
    .sun-stroke {
      stroke: context-stroke #FFFF98;
    }
    .sun-fill {
      fill: context-fill #FFFF98;
    }
  }
</style>
<path class="thermometer-stroke" d="M11.083 13.7962V7.42919C11.083 6.14019 10.038 5.09619 8.75 5.09619C7.461 5.09619 6.417 6.14119 6.417 7.42919V13.7962C5.566 14.5632 5.081 15.7272 5.305 17.0092C5.552 18.4232 6.708 19.5872 8.122 19.8332C10.332 20.2172 12.25 18.5262 12.25 16.3882C12.25 15.3552 11.794 14.4372 11.083 13.7962Z" stroke-width="1.1552" stroke-miterlimit="10" stroke-linecap="round"/>
<path class="thermometer-stroke" d="M8.75 16.3672V7.61719" stroke-width="1.1552" stroke-miterlimit="10" stroke-linecap="round"/>
<path class="thermometer-fill" d="M8.75 18.1172C9.57843 18.1172 10.25 17.4456 10.25 16.6172C10.25 15.7888 9.57843 15.1172 8.75 15.1172C7.92157 15.1172 7.25 15.7888 7.25 16.6172C7.25 17.4456 7.92157 18.1172 8.75 18.1172Z"/>
<path class="sun-fill" d="M15.937 5.62019C15.882 5.67419 15.838 5.73919 15.808 5.81119C15.778 5.88319 15.764 5.96019 15.765 6.03919C15.766 6.11819 15.783 6.19619 15.815 6.26819C15.847 6.34119 15.892 6.40719 15.949 6.46319C16.003 6.51919 16.067 6.56419 16.139 6.59319C16.21 6.62319 16.287 6.63719 16.363 6.63519C16.441 6.63519 16.518 6.62019 16.589 6.58919C16.66 6.55919 16.724 6.51519 16.777 6.45919L17.772 5.46419C17.828 5.41119 17.872 5.34719 17.902 5.27619C17.932 5.20519 17.948 5.12819 17.948 5.05019C17.951 4.97319 17.937 4.89719 17.907 4.82519C17.877 4.75319 17.832 4.68919 17.775 4.63619C17.72 4.57819 17.654 4.53219 17.581 4.50119C17.508 4.47019 17.43 4.45319 17.351 4.45419C17.272 4.45219 17.194 4.46519 17.122 4.49519C17.05 4.52419 16.985 4.56919 16.932 4.62519L15.937 5.62019ZM17.601 9.47819C17.545 9.53119 17.502 9.59519 17.473 9.66619C17.445 9.73719 17.432 9.81519 17.435 9.89219C17.43 9.96819 17.442 10.0442 17.47 10.1162C17.498 10.1882 17.542 10.2532 17.598 10.3062C17.654 10.3622 17.72 10.4072 17.793 10.4372C17.866 10.4672 17.944 10.4812 18.022 10.4792L19.434 10.4992C19.513 10.5082 19.592 10.4982 19.666 10.4712C19.74 10.4442 19.805 10.4002 19.858 10.3432C19.967 10.2312 20.027 10.0792 20.024 9.92019C20.021 9.76119 19.955 9.60819 19.841 9.49419C19.787 9.44019 19.721 9.39819 19.65 9.37219C19.578 9.34619 19.502 9.33519 19.427 9.34119L18.005 9.32019C17.93 9.31719 17.855 9.33019 17.786 9.35619C17.717 9.38519 17.654 9.42619 17.601 9.47819ZM16.058 13.2792C16.002 13.3332 15.96 13.3982 15.932 13.4702C15.904 13.5422 15.893 13.6202 15.898 13.6982C15.897 13.7782 15.912 13.8582 15.944 13.9332C15.975 14.0082 16.022 14.0762 16.081 14.1322L17.076 15.1272C17.131 15.1852 17.197 15.2312 17.27 15.2622C17.343 15.2932 17.421 15.3102 17.5 15.3092C17.579 15.3122 17.658 15.2992 17.731 15.2712C17.804 15.2432 17.87 15.1992 17.925 15.1442C17.98 15.0922 18.022 15.0282 18.05 14.9582C18.078 14.8872 18.09 14.8112 18.086 14.7352C18.079 14.5752 18.01 14.4232 17.894 14.3112L16.899 13.3162C16.837 13.2602 16.766 13.2172 16.688 13.1892C16.61 13.1612 16.528 13.1492 16.446 13.1532C16.3 13.1462 16.159 13.1942 16.051 13.2892L16.058 13.2792ZM12.489 4.70719C12.158 4.70719 11.889 4.43819 11.889 4.10719V2.71719C11.889 2.38619 12.158 2.11719 12.489 2.11719C12.82 2.11719 13.089 2.38619 13.089 2.71719V4.10719C13.089 4.43819 12.821 4.70719 12.489 4.70719Z"/>
<path class="sun-stroke" d="M12.576 6.81921C14.233 6.81921 15.576 8.16221 15.576 9.81921C15.576 11.4762 14.233 12.8192 12.576 12.8192" stroke-width="1.1552" stroke-miterlimit="10"/>
</svg>
