<!-- This Source Code Form is subject to the terms of the Mozilla Public
   - License, v. 2.0. If a copy of the MPL was not distributed with this
   - file, You can obtain one at http://mozilla.org/MPL/2.0/. -->
<svg width="22" height="22" viewBox="0 0 22 22" fill="none" xmlns="http://www.w3.org/2000/svg">
<style>
  .sun {
    fill: context-fill #E27F2E;
  }
  .cloud {
    fill: context-fill #5B5B66;
  }
  .rain {
    fill: context-fill #054096;
  }

  @media (prefers-color-scheme: dark) {
    .sun {
      fill: context-fill #FFFF98;
    }
    .cloud {
      fill: context-fill #BFBFC9;
    }
    .rain {
      fill: context-fill #00B3F4;
    }
  }
</style>
<path class="sun" d="M13.2417 4.36517C13.3131 4.36783 13.3843 4.35573 13.4508 4.32962C13.5174 4.30351 13.5778 4.26395 13.6283 4.21342C13.6788 4.16289 13.7184 4.10247 13.7445 4.03595C13.7706 3.96944 13.7827 3.89824 13.78 3.82683V2.56017C13.7828 2.48782 13.7707 2.41567 13.7445 2.34816C13.7184 2.28064 13.6788 2.21916 13.628 2.1675C13.5228 2.07047 13.3849 2.0166 13.2417 2.0166C13.0986 2.0166 12.9606 2.07047 12.8554 2.1675C12.8047 2.21916 12.765 2.28064 12.7389 2.34816C12.7127 2.41567 12.7007 2.48782 12.7034 2.56017V3.82683C12.7007 3.89824 12.7128 3.96944 12.7389 4.03595C12.765 4.10247 12.8046 4.16289 12.8551 4.21342C12.9057 4.26395 12.9661 4.30351 13.0326 4.32962C13.0991 4.35573 13.1703 4.36783 13.2417 4.36517V4.36517Z"/>
<path class="sun" d="M16.7566 5.83449C16.8959 5.8271 17.0281 5.77107 17.1303 5.67616L18.036 4.75782C18.1353 4.64885 18.1896 4.50626 18.188 4.35882C18.1897 4.28903 18.1773 4.21961 18.1516 4.15471C18.1258 4.0898 18.0873 4.03076 18.0382 3.9811C17.9891 3.93144 17.9306 3.89218 17.866 3.86567C17.8014 3.83916 17.7321 3.82595 17.6623 3.82682C17.5189 3.82649 17.3807 3.88085 17.276 3.97882L16.364 4.88449C16.269 4.99311 16.2171 5.13284 16.2183 5.27716C16.216 5.34797 16.2276 5.41855 16.2526 5.48484C16.2776 5.55114 16.3155 5.61185 16.364 5.66349C16.471 5.76436 16.6099 5.82482 16.7566 5.83449Z"/>
<path class="sun" d="M11.4493 5.9929C11.7848 6.19371 12.0934 6.43632 12.3677 6.7149C12.6444 6.59091 12.9448 6.52825 13.248 6.53123C13.5433 6.53123 13.8356 6.58939 14.1084 6.70237C14.3812 6.81536 14.629 6.98097 14.8378 7.18975C15.0466 7.39853 15.2122 7.64638 15.3252 7.91916C15.4382 8.19194 15.4963 8.48431 15.4963 8.77956C15.5057 8.88914 15.5057 8.99932 15.4963 9.1089C15.6526 9.23438 15.7988 9.37203 15.9333 9.52056C16.0811 9.69386 16.2126 9.88043 16.326 10.0779C16.4946 9.66404 16.5765 9.22 16.5667 8.77323C16.5635 8.33812 16.4753 7.90782 16.307 7.50656C16.1429 7.11051 15.9018 6.75099 15.5977 6.4489C15.2986 6.13643 14.9386 5.88856 14.54 5.72056C14.1397 5.54935 13.7088 5.46102 13.2733 5.4609C12.6252 5.44735 11.9886 5.63304 11.4493 5.9929V5.9929Z"/>
<path class="sun" d="M17.6243 12.3896C17.5777 12.341 17.5216 12.3024 17.4595 12.2763C17.3974 12.2501 17.3307 12.237 17.2633 12.2376C17.1926 12.2367 17.1224 12.2498 17.0568 12.2761C16.9912 12.3024 16.9313 12.3414 16.8808 12.3908C16.8302 12.4402 16.7898 12.4991 16.762 12.5641C16.7342 12.629 16.7195 12.6989 16.7186 12.7696C16.721 12.9186 16.7799 13.0612 16.8833 13.1686L17.276 13.5739C17.3247 13.6315 17.3847 13.6786 17.4521 13.7124C17.5196 13.7461 17.5933 13.7658 17.6686 13.7703C17.8101 13.7477 17.9398 13.6777 18.0364 13.5719C18.1331 13.466 18.191 13.3306 18.2006 13.1876C18.1972 13.0443 18.1382 12.908 18.036 12.8076L17.6243 12.3896Z"/>
<path class="sun" d="M8.88435 5.20126C8.97933 5.29601 9.10802 5.34922 9.24218 5.34922C9.37634 5.34922 9.50503 5.29601 9.60001 5.20126C9.69911 5.09722 9.75366 4.95859 9.75201 4.81492C9.75635 4.73858 9.74512 4.66216 9.71899 4.5903C9.69286 4.51844 9.65238 4.45264 9.60001 4.39692L9.20101 3.97892C9.09932 3.87988 8.96297 3.82446 8.82101 3.82446C8.67906 3.82446 8.54271 3.87988 8.44101 3.97892C8.38918 4.02741 8.34825 4.08637 8.32095 4.15188C8.29366 4.2174 8.28061 4.28798 8.28268 4.35892C8.27961 4.43187 8.29214 4.50464 8.31945 4.57235C8.34675 4.64007 8.3882 4.70117 8.44101 4.75159L8.88435 5.20126Z"/>
<path  class="sun" d="M19.8537 8.36778C19.8016 8.31766 19.7401 8.2784 19.6727 8.2523C19.6053 8.22621 19.5333 8.21379 19.4611 8.21578H18.1944C18.1244 8.21421 18.055 8.22751 17.9905 8.25481C17.9261 8.2821 17.8682 8.32277 17.8207 8.37412C17.7261 8.48049 17.6742 8.6181 17.6751 8.76045C17.6751 8.89818 17.7298 9.03028 17.8272 9.12767C17.9246 9.22507 18.0567 9.27978 18.1944 9.27978H19.4611C19.608 9.28511 19.7511 9.23284 19.8601 9.13412C19.9099 9.08579 19.9492 9.02761 19.9754 8.96328C20.0016 8.89895 20.014 8.82987 20.0121 8.76045C20.0151 8.6875 20.0026 8.61474 19.9753 8.54702C19.948 8.4793 19.9065 8.4182 19.8537 8.36778V8.36778Z"/>
<path class="rain" d="M12.3677 12.2122C12.3028 12.1939 12.2349 12.1885 12.168 12.1964C12.101 12.2043 12.0363 12.2253 11.9775 12.2583C11.9187 12.2912 11.8669 12.3354 11.8252 12.3884C11.7835 12.4413 11.7526 12.502 11.7343 12.5669L11.5 13.2382C11.5 13.2889 11.5 13.3395 11.5 13.3839C11.5021 13.4922 11.5351 13.5976 11.595 13.6879C11.6268 13.7387 11.6684 13.7828 11.7173 13.8176C11.7662 13.8524 11.8215 13.8772 11.88 13.8905H12.0383C12.158 13.8916 12.2743 13.8513 12.3677 13.7765C12.4603 13.7016 12.5232 13.5961 12.545 13.4789L12.716 12.8455C12.7508 12.7129 12.7317 12.5718 12.6629 12.4531C12.5941 12.3345 12.4811 12.2479 12.3487 12.2122H12.3677Z"/>
<path class="rain" d="M11.5 15.2396C11.4354 15.217 11.3666 15.2093 11.2986 15.217C11.2306 15.2247 11.1652 15.2475 11.1073 15.2839C10.9816 15.3531 10.8882 15.4692 10.8476 15.6069L10.6766 16.2402C10.6766 16.2402 10.6766 16.2719 10.6766 16.2909C10.6766 16.3099 10.6766 16.3289 10.6766 16.3416C10.6766 16.3542 10.6766 16.3732 10.6766 16.3859C10.6831 16.5033 10.7245 16.6162 10.7956 16.7099C10.8667 16.8036 10.9642 16.8738 11.0756 16.9116H11.234C11.3416 16.9111 11.4461 16.8755 11.5316 16.8102C11.6346 16.7321 11.7065 16.6198 11.7343 16.4936L11.918 15.8602C11.9375 15.7904 11.9425 15.7172 11.9327 15.6453C11.9229 15.5735 11.8985 15.5043 11.861 15.4422C11.82 15.3834 11.7662 15.3346 11.7037 15.2995C11.6412 15.2644 11.5715 15.2439 11.5 15.2396Z"/>
<path class="rain" d="M9.72669 14.1565C9.65537 14.1342 9.58016 14.1272 9.50596 14.136C9.43175 14.1447 9.36022 14.169 9.29602 14.2072C9.2344 14.2421 9.18138 14.2904 9.14084 14.3485C9.10029 14.4065 9.07325 14.473 9.06169 14.5428L8.88435 15.1762C8.87546 15.2137 8.87546 15.2527 8.88435 15.2902C8.8858 15.4054 8.92103 15.5177 8.98569 15.6132C9.05508 15.7204 9.16074 15.7991 9.28335 15.8348C9.35038 15.8546 9.42081 15.8602 9.49011 15.8511C9.55942 15.842 9.62605 15.8186 9.68572 15.7822C9.74538 15.7458 9.79676 15.6973 9.83655 15.6398C9.87633 15.5823 9.90363 15.5172 9.91669 15.4485L10.0687 14.8152C10.0913 14.7477 10.0995 14.6762 10.093 14.6053C10.0864 14.5345 10.0652 14.4657 10.0307 14.4035C9.96396 14.2859 9.85544 14.1977 9.72669 14.1565V14.1565Z"/>
<path class="rain" d="M7.25665 15.1889C7.11399 15.1501 6.96184 15.1683 6.83232 15.2396C6.77099 15.2749 6.71819 15.3232 6.67769 15.3813C6.63719 15.4393 6.60997 15.5055 6.59799 15.5752L6.42065 16.2086C6.42065 16.2402 6.42065 16.2846 6.42065 16.3416C6.42217 16.4608 6.45729 16.5771 6.52199 16.6772C6.58713 16.7845 6.68807 16.8652 6.80699 16.9052C6.87036 16.9269 6.93763 16.9347 7.00427 16.9281C7.07092 16.9216 7.13538 16.9008 7.19332 16.8672C7.26197 16.8325 7.32236 16.7834 7.37043 16.7233C7.4185 16.6632 7.45313 16.5935 7.47199 16.5189L7.63032 15.8539C7.65286 15.7893 7.66057 15.7205 7.6529 15.6525C7.64522 15.5845 7.62236 15.5192 7.58599 15.4612C7.55171 15.3964 7.50497 15.339 7.44846 15.2923C7.39195 15.2455 7.32677 15.2104 7.25665 15.1889V15.1889Z"/>
<path class="rain" d="M8.89072 17.1965C8.82298 17.1737 8.7511 17.1658 8.68002 17.1735C8.60895 17.1811 8.54038 17.2041 8.47906 17.2409C8.35527 17.3109 8.26419 17.427 8.22572 17.5639L8.04839 18.1972C8.02865 18.2388 8.01786 18.2841 8.01672 18.3302C8.02161 18.4439 8.05898 18.5538 8.12439 18.6469C8.19863 18.7562 8.3082 18.8367 8.43472 18.8749H8.59306C8.67347 18.8774 8.75345 18.8622 8.82739 18.8305C8.89634 18.7938 8.95574 18.7415 9.00083 18.6777C9.04593 18.6139 9.07545 18.5405 9.08706 18.4632L9.25806 17.8299C9.28089 17.7621 9.28876 17.6902 9.2811 17.6192C9.27345 17.5481 9.25046 17.4795 9.21372 17.4182C9.13772 17.3064 9.02241 17.2272 8.89072 17.1965V17.1965Z"/>
<path class="rain" d="M8.33337 13.4789L8.48537 12.8455C8.5079 12.7809 8.51562 12.7121 8.50794 12.6441C8.50027 12.5762 8.4774 12.5108 8.44103 12.4529C8.40872 12.383 8.36127 12.3211 8.30212 12.2719C8.24297 12.2226 8.1736 12.187 8.09903 12.1679C8.02854 12.1473 7.95461 12.1411 7.88169 12.1498C7.80877 12.1585 7.73836 12.1819 7.6747 12.2185C7.6141 12.2531 7.56175 12.3005 7.52129 12.3574C7.48083 12.4143 7.45321 12.4793 7.44037 12.5479L7.25037 13.1812C7.25037 13.2319 7.25037 13.2825 7.25037 13.3332C7.25065 13.4503 7.29102 13.5639 7.36476 13.6549C7.43849 13.7459 7.54117 13.8089 7.6557 13.8335C7.7192 13.863 7.78836 13.8783 7.85837 13.8783C7.92837 13.8783 7.99753 13.863 8.06103 13.8335C8.12998 13.7984 8.19021 13.7484 8.23733 13.687C8.28444 13.6256 8.31726 13.5545 8.33337 13.4789V13.4789Z"/>
<path class="cloud" d="M15.1986 9.88782C15.0636 9.75318 14.9174 9.6303 14.7616 9.52048L14.6096 9.43182C14.5209 9.37482 14.4259 9.33048 14.3373 9.27982L14.0333 9.16582L13.8496 9.11515C13.7416 9.08102 13.6316 9.05353 13.5203 9.03282C13.3485 9.00521 13.1749 8.99039 13.0009 8.98848H12.7666C12.7307 8.83553 12.6841 8.68528 12.6273 8.53882C12.5795 8.40617 12.5223 8.27707 12.4563 8.15248V8.15248C12.3866 8.01878 12.3083 7.88973 12.2219 7.76615V7.76615C11.7905 7.13596 11.1791 6.65041 10.4676 6.37282V6.37282C10.0283 6.20846 9.56232 6.12686 9.09328 6.13215C8.23652 6.11902 7.40169 6.40327 6.73095 6.93648C6.05702 7.46662 5.59258 8.21826 5.41995 9.05815C4.72777 9.20987 4.10855 9.59436 3.66562 10.1475C3.22043 10.697 2.98079 11.3846 2.98795 12.0918C2.98598 12.4966 3.06574 12.8977 3.22244 13.271C3.37915 13.6442 3.60959 13.982 3.89995 14.2641C4.4624 14.8577 5.23602 15.2058 6.05328 15.2331C6.06791 15.2353 6.08284 15.234 6.09687 15.2293C6.1109 15.2246 6.12366 15.2168 6.13411 15.2063C6.14457 15.1959 6.15244 15.1831 6.15709 15.1691C6.16175 15.155 6.16307 15.1401 6.16095 15.1255V14.2768C6.16095 14.2008 6.12295 14.1628 6.05328 14.1628C5.7935 14.1545 5.53803 14.0941 5.30197 13.9853C5.06592 13.8766 4.85407 13.7215 4.67895 13.5295C4.31004 13.1477 4.10737 12.6353 4.11528 12.1045C4.10743 11.5947 4.29822 11.1018 4.64728 10.7301C4.99236 10.3496 5.46619 10.1105 5.97728 10.0588H6.29395C6.37628 10.0588 6.42062 10.0208 6.42062 9.94482L6.43328 9.57115C6.48896 8.90816 6.80008 8.29274 7.30095 7.85482C7.79209 7.40217 8.4381 7.1551 9.10595 7.16448C9.77574 7.15477 10.4239 7.40177 10.9173 7.85482C11.4209 8.29064 11.7326 8.90723 11.7849 9.57115L11.8293 9.93215C11.8272 9.94761 11.8287 9.96335 11.8337 9.97813C11.8387 9.99292 11.847 10.0064 11.858 10.0174C11.8691 10.0284 11.8825 10.0368 11.8973 10.0417C11.9121 10.0467 11.9278 10.0482 11.9433 10.0461H13.0009C13.4011 10.0453 13.7927 10.1621 14.127 10.3822C14.4612 10.6023 14.7233 10.9158 14.8807 11.2838C15.038 11.6518 15.0835 12.0579 15.0117 12.4516C14.9399 12.8453 14.7538 13.2091 14.4766 13.4978C14.1164 13.8733 13.628 14.0994 13.1086 14.1311C13.0389 14.1311 13.0009 14.1691 13.0009 14.2451V15.0938C12.9988 15.1084 13.0001 15.1234 13.0048 15.1374C13.0095 15.1514 13.0173 15.1642 13.0278 15.1746C13.0382 15.1851 13.051 15.193 13.065 15.1976C13.0791 15.2023 13.094 15.2036 13.1086 15.2015C13.6478 15.1934 14.174 15.0355 14.6286 14.7455C15.0826 14.4661 15.4559 14.0732 15.7116 13.6055C15.9751 13.1335 16.1105 12.6007 16.1043 12.0601C16.1027 11.7142 16.0405 11.3713 15.9206 11.0468C15.7718 10.6103 15.5248 10.2138 15.1986 9.88782V9.88782Z"/>
</svg>
