<!-- This Source Code Form is subject to the terms of the Mozilla Public
   - License, v. 2.0. If a copy of the MPL was not distributed with this
   - file, You can obtain one at http://mozilla.org/MPL/2.0/. -->
<svg width="22" height="22" viewBox="0 0 22 22" fill="none" xmlns="http://www.w3.org/2000/svg">
<style>
  .sun-1, .sun-2, .sun-3, .sun-4, .sun-5, .sun-6 {
    fill: context-fill #E27F2E;
  }

  .cloud {
    fill: context-fill #5B5B66;
  }

  @media (prefers-color-scheme: dark) {
    .sun-1, .sun-2, .sun-3, .sun-4, .sun-5, .sun-6 {
      fill: context-fill #FFFF98;
    }

    .cloud {
      fill: context-fill #BFBFC9;
    }
  }
</style>
<path class="sun-1" d="M16.5349 7.52486C16.6804 7.5158 16.8189 7.45946 16.9294 7.36441L17.8854 6.40834C17.9913 6.29125 18.0487 6.13828 18.0459 5.98045C18.0477 5.90677 18.0346 5.83349 18.0075 5.76497C17.9803 5.69646 17.9396 5.63413 17.8878 5.58171C17.836 5.52928 17.7742 5.48784 17.706 5.45986C17.6378 5.43187 17.5647 5.41793 17.491 5.41885C17.4186 5.41599 17.3464 5.42886 17.2795 5.45656C17.2125 5.48426 17.1524 5.52613 17.1032 5.5793L16.1204 6.53537C16.026 6.653 15.9742 6.79908 15.9733 6.94989C15.9655 7.10209 16.0184 7.25119 16.1204 7.36441C16.2362 7.4636 16.3825 7.52022 16.5349 7.52486V7.52486Z"/>
<path class="sun-2" d="M10.8854 7.7589C11.2404 7.96163 11.5664 8.21125 11.8548 8.50102C12.2144 8.33632 12.6096 8.26463 13.0041 8.29253C13.3986 8.32043 13.7798 8.44704 14.1126 8.66071C14.4455 8.87438 14.7193 9.16827 14.9088 9.51537C15.0984 9.86247 15.1978 10.2516 15.1977 10.6472C15.1946 10.7861 15.1812 10.9247 15.1576 11.0617C15.3551 11.2291 15.5384 11.4124 15.7058 11.6099C15.8226 11.7589 15.9298 11.9153 16.0267 12.0779C16.2268 11.6273 16.3315 11.1402 16.3343 10.6472C16.3309 10.1878 16.2378 9.73359 16.0602 9.31C15.7927 8.67484 15.3434 8.1329 14.7689 7.75225C14.1943 7.37161 13.5201 7.16923 12.8309 7.17055C12.1371 7.15998 11.4571 7.3656 10.8854 7.7589V7.7589Z"/>
<path class="sun-3" d="M12.8309 5.98717C12.9067 5.99016 12.9824 5.97811 13.0535 5.95172C13.1247 5.92533 13.1899 5.88511 13.2454 5.8334C13.2984 5.77876 13.3395 5.71369 13.366 5.64233C13.3924 5.57096 13.4038 5.49486 13.3992 5.41888V4.08173C13.4013 4.00844 13.3881 3.93552 13.3605 3.86761C13.3329 3.7997 13.2914 3.73828 13.2387 3.68727C13.1851 3.63478 13.1212 3.59401 13.051 3.56754C12.9808 3.54107 12.9058 3.52947 12.8309 3.53349C12.7583 3.5317 12.686 3.54437 12.6182 3.57076C12.5505 3.59716 12.4887 3.63677 12.4365 3.68727C12.3843 3.73836 12.3437 3.79995 12.3171 3.86796C12.2906 3.93596 12.2789 4.00883 12.2827 4.08173V5.41888C12.2797 5.4947 12.2917 5.57037 12.3181 5.64151C12.3445 5.71265 12.3847 5.77787 12.4365 5.8334C12.4875 5.88553 12.5491 5.9262 12.6171 5.95271C12.6852 5.97922 12.758 5.99097 12.8309 5.98717V5.98717Z"/>
<path class="sun-4" d="M8.2245 6.83622C8.34093 6.94393 8.49378 7.00364 8.65239 7.00336C8.7225 7.0021 8.79154 6.98595 8.85494 6.95598C8.91834 6.92601 8.97464 6.88291 9.02011 6.82953C9.12574 6.71766 9.18334 6.56885 9.18057 6.41501C9.17905 6.33839 9.16021 6.26311 9.12548 6.1948C9.09074 6.12649 9.04101 6.06692 8.97999 6.02055L8.61228 5.56592C8.5017 5.4625 8.35585 5.40511 8.20445 5.40546C8.12759 5.40347 8.05114 5.41727 7.97984 5.44602C7.90854 5.47477 7.8439 5.51786 7.78993 5.57261C7.73521 5.62379 7.69201 5.68603 7.66319 5.75519C7.63437 5.82436 7.6206 5.89886 7.62278 5.97375C7.62105 6.1294 7.67839 6.27992 7.78324 6.39496L8.2245 6.83622Z"/>
<path class="sun-5" d="M19.8176 10.2459C19.7682 10.1926 19.7082 10.1501 19.6414 10.1213C19.5746 10.0925 19.5025 10.078 19.4298 10.0788H18.0927C18.0146 10.075 17.9366 10.088 17.864 10.1168C17.7914 10.1456 17.7257 10.1896 17.6715 10.2459C17.6155 10.2965 17.5711 10.3585 17.5411 10.4277C17.5111 10.4968 17.4963 10.5717 17.4976 10.6471C17.4973 10.7203 17.5127 10.7928 17.5427 10.8597C17.5727 10.9266 17.6166 10.9863 17.6715 11.0348C17.7252 11.0875 17.789 11.1289 17.8591 11.1565C17.9292 11.184 18.004 11.1972 18.0793 11.1953H19.4165C19.5609 11.1971 19.7003 11.1419 19.8042 11.0415C19.8564 10.9904 19.897 10.9288 19.9235 10.8608C19.9501 10.7928 19.9618 10.7199 19.958 10.6471C19.9648 10.5002 19.9145 10.3564 19.8176 10.2459V10.2459Z"/>
<path class="sun-6" d="M17.4575 14.4647C17.4083 14.4133 17.3491 14.3726 17.2835 14.345C17.218 14.3174 17.1475 14.3035 17.0764 14.3042C17.0021 14.302 16.9282 14.3151 16.8591 14.3427C16.7901 14.3703 16.7275 14.4118 16.6753 14.4647C16.6193 14.5152 16.5749 14.5772 16.5449 14.6464C16.5149 14.7156 16.5001 14.7904 16.5014 14.8658C16.5001 14.9436 16.5141 15.0208 16.5428 15.0931C16.5715 15.1654 16.6143 15.2313 16.6686 15.287L17.1032 15.7082C17.1524 15.7614 17.2125 15.8033 17.2794 15.831C17.3464 15.8587 17.4185 15.8715 17.4909 15.8687C17.5658 15.8709 17.6403 15.8571 17.7095 15.8283C17.7787 15.7994 17.8409 15.7562 17.8921 15.7015C17.945 15.6465 17.9864 15.5816 18.014 15.5104C18.0415 15.4392 18.0546 15.3633 18.0525 15.287C18.0533 15.2149 18.0395 15.1434 18.0119 15.0767C17.9843 15.0101 17.9436 14.9497 17.8921 14.8992L17.4575 14.4647Z"/>
<path class="cloud" d="M14.8634 11.8707C14.7306 11.7432 14.5874 11.6269 14.4355 11.523C14.3171 11.4372 14.1919 11.3611 14.0611 11.2957L13.9942 11.2623C13.8585 11.1935 13.7177 11.1354 13.573 11.0885H13.4727C13.3431 11.048 13.2115 11.0145 13.0783 10.9882C12.8992 10.9588 12.7182 10.9431 12.5367 10.9414H12.3228C12.173 10.3488 11.888 9.79899 11.4901 9.33501C11.0922 8.87103 10.5923 8.5055 10.0296 8.26707V8.26707C9.52909 8.03545 8.98307 7.91894 8.43166 7.92609C7.5342 7.92154 6.66167 8.2211 5.95627 8.77595C5.25087 9.3308 4.7542 10.1082 4.54722 10.9815C3.81989 11.1404 3.17151 11.5498 2.71532 12.1381C2.24636 12.7188 1.99351 13.4443 1.99995 14.1907C1.99284 14.6277 2.07289 15.0617 2.23544 15.4674C2.39798 15.8732 2.63975 16.2424 2.94662 16.5537C3.25349 16.8649 3.6193 17.1118 4.02269 17.2801C4.42608 17.4483 4.85896 17.5345 5.29603 17.5335H12.5367C12.977 17.538 13.4137 17.4546 13.8213 17.2882C14.2288 17.1218 14.5991 16.8757 14.9105 16.5644C15.2218 16.2531 15.4678 15.8828 15.6342 15.4752C15.8007 15.0676 15.8841 14.6309 15.8796 14.1907C15.8653 13.3178 15.5102 12.4852 14.8901 11.8707H14.8634ZM14.0678 15.7484C13.8737 15.9592 13.638 16.1274 13.3756 16.2425C13.1133 16.3576 12.8299 16.417 12.5434 16.417H5.29603C5.0104 16.4177 4.7278 16.3586 4.46641 16.2434C4.20503 16.1283 3.97065 15.9597 3.77836 15.7484C3.57416 15.5455 3.41273 15.3037 3.30364 15.0372C3.19454 14.7708 3.13999 14.4852 3.14321 14.1973C3.13493 13.6592 3.33633 13.1389 3.70482 12.7465C4.0691 12.3448 4.5693 12.0923 5.10883 12.0378H5.44312C5.45971 12.0398 5.47653 12.0382 5.4924 12.0329C5.50826 12.0277 5.52278 12.019 5.5349 12.0075C5.54703 11.996 5.55648 11.982 5.56257 11.9664C5.56866 11.9509 5.57125 11.9342 5.57015 11.9175L5.637 11.5297C5.71767 10.8304 6.05329 10.1853 6.5797 9.71788C7.08696 9.23929 7.7611 8.97779 8.4584 8.98913C9.16844 8.98034 9.85494 9.24346 10.3772 9.72456C10.9088 10.1846 11.2379 10.8355 11.2932 11.5364L11.34 11.9242C11.3416 11.9409 11.3466 11.9571 11.3546 11.9719C11.3626 11.9867 11.3734 11.9997 11.3864 12.0103C11.3995 12.0209 11.4145 12.0288 11.4306 12.0335C11.4468 12.0382 11.4637 12.0397 11.4804 12.0378H12.5568C13.128 12.0447 13.674 12.2743 14.0785 12.6776C14.4831 13.0809 14.7143 13.6262 14.723 14.1973C14.7247 14.4868 14.6676 14.7736 14.5549 15.0403C14.4423 15.307 14.2765 15.5479 14.0678 15.7484Z"/>
</svg>
