<!-- This Source Code Form is subject to the terms of the Mozilla Public
   - License, v. 2.0. If a copy of the MPL was not distributed with this
   - file, You can obtain one at http://mozilla.org/MPL/2.0/. -->
<svg width="22" height="23" viewBox="0 0 22 23" fill="none" xmlns="http://www.w3.org/2000/svg">
<style>
  .cloud {
    fill: context-fill #5B5B66;
  }
  .rain {
    fill: context-fill #054096;
  }

  @media (prefers-color-scheme: dark) {
    .cloud {
      fill: context-fill #BFBFC9;
    }
    .rain {
      fill: context-fill #00B3F4;
    }
  }
</style>
<path class="cloud" d="M2.00104 12.1238C1.9927 11.1763 2.30608 10.2557 2.88666 9.52229C3.44737 8.78194 4.23805 8.26415 5.12529 8.05628C5.36668 6.92925 5.97801 5.92324 6.85552 5.20902C7.72347 4.50179 8.79657 4.11719 9.90187 4.11719C11.0072 4.11719 12.0803 4.50179 12.9482 5.20902C13.8109 5.89579 14.4188 6.86814 14.6702 7.96307H14.9327C15.6453 7.96091 16.3463 8.15075 16.9663 8.51388C17.5836 8.8742 18.0972 9.39754 18.4545 10.0303C18.8118 10.6631 19.0001 11.3827 18.9999 12.1153C19.0043 12.8379 18.8276 13.5494 18.4871 14.1805C18.1465 14.8116 17.6537 15.3409 17.0565 15.7168C16.4652 16.0975 15.785 16.3054 15.0885 16.3185C14.9819 16.3185 14.9245 16.2676 14.9245 16.1744V15.0473C14.9245 14.9457 14.9819 14.8948 15.0885 14.8948C15.426 14.8838 15.7581 14.8032 16.0651 14.6577C16.3721 14.5121 16.6478 14.3047 16.8761 14.0474C17.3572 13.5348 17.6225 12.8463 17.6141 12.1323C17.6133 11.7718 17.54 11.4154 17.3988 11.0857C17.2576 10.756 17.0517 10.4602 16.7941 10.2172C16.5508 9.95013 16.2573 9.73724 15.9316 9.59153C15.6058 9.44582 15.2548 9.37035 14.8999 9.36976H13.6042C13.5058 9.36976 13.4566 9.31891 13.4566 9.2257L13.391 8.73421C13.3122 7.84538 12.9037 7.0225 12.2512 6.43775C11.6089 5.84282 10.7767 5.51381 9.91417 5.51381C9.05163 5.51381 8.21943 5.84282 7.57713 6.43775C6.92817 7.02233 6.52762 7.84714 6.46192 8.73421L6.40451 9.18333C6.40585 9.20557 6.40246 9.22784 6.39457 9.24858C6.38668 9.26932 6.37449 9.28802 6.35886 9.30337C6.34322 9.31871 6.32453 9.33033 6.30408 9.33741C6.28363 9.34449 6.26194 9.34685 6.24051 9.34434H5.8059C5.14435 9.42029 4.53219 9.74261 4.08388 10.2511C3.62717 10.7424 3.37667 11.4002 3.38687 12.0814C3.37843 12.7955 3.64375 13.484 4.12488 13.9966C4.35315 14.2538 4.62889 14.4613 4.93589 14.6068C5.24288 14.7523 5.57492 14.833 5.91251 14.844C6.00271 14.844 6.05191 14.8948 6.05191 14.9965V16.1829C6.05466 16.2024 6.05295 16.2224 6.04692 16.2412C6.04089 16.26 6.0307 16.277 6.01716 16.291C6.00362 16.305 5.98711 16.3155 5.96895 16.3218C5.95078 16.328 5.93145 16.3298 5.91251 16.3269C5.38676 16.3117 4.8691 16.1894 4.38923 15.9669C3.90937 15.7444 3.47677 15.4261 3.11626 15.0304C2.7514 14.6479 2.46466 14.1934 2.27308 13.6941C2.0815 13.1948 1.98899 12.6608 2.00104 12.1238Z"/>
<path class="rain" d="M6.39632 17.6234C6.38824 17.6796 6.38824 17.7367 6.39632 17.7929C6.38473 17.9467 6.41908 18.1005 6.49472 18.2335C6.59094 18.3745 6.73394 18.474 6.89653 18.5132H6.97853H7.06873C7.22536 18.5222 7.37984 18.4723 7.5035 18.3725C7.62716 18.2728 7.7116 18.1301 7.74114 17.9708L9.07776 13.1152C9.10643 13.0212 9.11541 12.9219 9.10409 12.8241C9.09278 12.7262 9.06145 12.6319 9.01216 12.5475C8.96609 12.464 8.9023 12.3925 8.82561 12.3381C8.74891 12.2838 8.6613 12.2482 8.56936 12.2339H8.37255C8.23748 12.2372 8.1063 12.2814 7.99535 12.361C7.8689 12.4504 7.7762 12.5821 7.73294 12.7339L6.39632 17.6234Z"/>
<path class="rain" d="M10.5456 12.7424L8.54476 20.1741H8.53656C8.51111 20.2611 8.50307 20.3526 8.51294 20.4429C8.52281 20.5332 8.55037 20.6205 8.59396 20.6995C8.69245 20.8596 8.84405 20.9771 9.02036 21.03C9.08538 21.0577 9.15502 21.0721 9.22537 21.0723C9.37756 21.0725 9.5252 21.0187 9.64357 20.9198C9.76333 20.8325 9.84794 20.7029 9.88138 20.5554L11.874 13.1152C11.8999 13.0254 11.9081 12.9312 11.8983 12.8381C11.8884 12.7449 11.8606 12.6548 11.8166 12.5729C11.7758 12.4918 11.7189 12.4205 11.6497 12.3635C11.5805 12.3066 11.5004 12.2653 11.4148 12.2424C11.3412 12.2341 11.267 12.2341 11.1934 12.2424C11.0504 12.2441 10.911 12.2883 10.7916 12.3695C10.7278 12.4106 10.6729 12.465 10.6306 12.5292C10.5882 12.5934 10.5593 12.666 10.5456 12.7424Z"/>
<path class="rain" d="M11.9314 17.6149C11.9246 17.6797 11.9246 17.7451 11.9314 17.8098H11.9232C11.9229 17.9567 11.9627 18.1006 12.038 18.2251C12.1285 18.359 12.2623 18.4551 12.4152 18.4962L12.612 18.5386C12.7628 18.5386 12.9096 18.4881 13.0302 18.3945C13.1514 18.299 13.2334 18.1599 13.2598 18.0047L14.5965 13.1491V13.0474C14.6035 12.9941 14.6062 12.9402 14.6047 12.8864C14.6032 12.7439 14.5603 12.6052 14.4817 12.4882C14.3913 12.3558 14.2571 12.2623 14.1044 12.2255H13.8912C13.7559 12.2271 13.6243 12.2715 13.514 12.3526C13.3946 12.4456 13.3082 12.5766 13.268 12.7254L11.9314 17.6149Z"/>
</svg>
