<!-- This Source Code Form is subject to the terms of the Mozilla Public
   - License, v. 2.0. If a copy of the MPL was not distributed with this
   - file, You can obtain one at http://mozilla.org/MPL/2.0/. -->
<svg width="22" height="23" viewBox="0 0 22 23" fill="none" xmlns="http://www.w3.org/2000/svg">
<style>
  .cloud {
    fill: context-fill #5B5B66;
  }
  .rain {
    fill: context-fill #054096;
  }

  @media (prefers-color-scheme: dark) {
    .cloud {
      fill: context-fill #BFBFC9;
    }
    .rain {
      fill: context-fill #00B3F4;
    }
  }
</style>
<path class="cloud" d="M2.00089 11.8446C1.98978 12.3636 2.08263 12.8796 2.27397 13.3622C2.46532 13.8448 2.75128 14.2842 3.11504 14.6545C3.47423 15.0362 3.9051 15.3433 4.38302 15.5584C4.86095 15.7734 5.37656 15.8922 5.9004 15.908C5.91933 15.9107 5.93864 15.909 5.95679 15.903C5.97494 15.8969 5.99143 15.8868 6.00496 15.8732C6.01848 15.8597 6.02866 15.8432 6.03469 15.8251C6.04071 15.8069 6.04242 15.7876 6.03967 15.7687V14.6709C6.04242 14.652 6.04071 14.6327 6.03469 14.6145C6.02866 14.5964 6.01848 14.5799 6.00496 14.5664C5.99143 14.5529 5.97494 14.5427 5.95679 14.5366C5.93864 14.5306 5.91933 14.5289 5.9004 14.5317C5.56306 14.5215 5.23119 14.4437 4.92443 14.303C4.61767 14.1623 4.34226 13.9615 4.11449 13.7124C3.63382 13.2169 3.36876 12.5513 3.37719 11.861C3.37002 11.2045 3.61654 10.5706 4.06534 10.0915C4.50883 9.59863 5.11841 9.28654 5.77752 9.21489H6.21171C6.31821 9.21489 6.37556 9.16573 6.37556 9.05923L6.42471 8.62504C6.49673 7.76746 6.89916 6.97141 7.54705 6.40494C8.18873 5.82979 9.02013 5.51173 9.88184 5.51173C10.7436 5.51173 11.575 5.82979 12.2166 6.40494C12.8645 6.9734 13.2717 7.7672 13.3554 8.62504L13.4209 9.10019C13.4209 9.19031 13.47 9.23946 13.5684 9.23946H14.9119C15.2665 9.24004 15.6172 9.313 15.9426 9.45386C16.268 9.59473 16.5612 9.80054 16.8043 10.0587C17.0627 10.2946 17.269 10.5819 17.4101 10.9021C17.5512 11.2223 17.6238 11.5684 17.6235 11.9183C17.6319 12.6086 17.3669 13.2742 16.8862 13.7698C16.6582 14.0185 16.3827 14.219 16.076 14.3597C15.7693 14.5004 15.4376 14.5784 15.1003 14.589C14.9938 14.589 14.9365 14.6382 14.9365 14.7283V15.826C14.9365 15.9162 14.9938 15.9653 15.1003 15.9653C15.7962 15.9527 16.4757 15.7517 17.0664 15.3837C17.6603 15.02 18.1503 14.5091 18.489 13.9006C18.8277 13.2921 19.0037 12.6065 18.9998 11.9101C19.0067 11.198 18.8168 10.4977 18.4509 9.88665C18.0955 9.27706 17.5836 8.77359 16.9681 8.42843C16.3479 8.05027 15.6382 7.84387 14.9119 7.83039H14.6497C14.3876 6.77016 13.7799 5.8274 12.9225 5.15094C12.065 4.47449 11.0067 4.10286 9.91461 4.09473C8.80156 4.09444 7.72136 4.47193 6.85077 5.16543C5.98017 5.85893 5.37072 6.82738 5.12214 7.91232C4.23417 8.10944 3.44304 8.61078 2.88566 9.32958C2.30868 10.0403 1.99599 10.9292 2.00089 11.8446Z"/>
<path class="rain" d="M13.8485 12.1765C13.7683 12.1538 13.6845 12.1472 13.6018 12.157C13.5191 12.1667 13.4391 12.1927 13.3664 12.2334C13.2937 12.2741 13.2298 12.3287 13.1782 12.3942C13.1266 12.4596 13.0885 12.5345 13.0659 12.6147L12.7764 13.4443C12.7764 13.5069 12.7764 13.5695 12.7764 13.6243C12.779 13.7581 12.8197 13.8884 12.8938 13.9999C12.9331 14.0628 12.9844 14.1172 13.0449 14.1602C13.1053 14.2032 13.1736 14.2338 13.2459 14.2503H13.4416C13.5894 14.2517 13.7331 14.2019 13.8485 14.1095C13.963 14.0169 14.0407 13.8864 14.0676 13.7417L14.2789 12.9591C14.322 12.7951 14.2984 12.6208 14.2133 12.4742C14.1283 12.3276 13.9887 12.2205 13.825 12.1765H13.8485Z"/>
<path class="rain" d="M12.7763 15.9172C12.6965 15.8894 12.6114 15.8798 12.5274 15.8893C12.4434 15.8988 12.3627 15.927 12.2911 15.972C12.1357 16.0575 12.0204 16.201 11.9702 16.3711L11.7589 17.1537C11.7589 17.1537 11.7589 17.1928 11.7589 17.2163C11.7589 17.2398 11.7589 17.2632 11.7589 17.2789C11.7589 17.2945 11.7589 17.318 11.7589 17.3337C11.7668 17.4788 11.818 17.6182 11.9059 17.734C11.9938 17.8498 12.1143 17.9366 12.2519 17.9832H12.4476C12.5806 17.9827 12.7097 17.9387 12.8154 17.858C12.9427 17.7614 13.0314 17.6227 13.0658 17.4667L13.2928 16.6841C13.3169 16.5978 13.3231 16.5074 13.3109 16.4186C13.2988 16.3298 13.2687 16.2444 13.2223 16.1676C13.1717 16.0949 13.1053 16.0346 13.028 15.9913C12.9508 15.9479 12.8647 15.9226 12.7763 15.9172Z"/>
<path class="rain" d="M10.5851 14.5791C10.497 14.5516 10.404 14.5429 10.3123 14.5537C10.2207 14.5645 10.1323 14.5945 10.0529 14.6417C9.97679 14.6849 9.91128 14.7445 9.86118 14.8163C9.81107 14.888 9.77766 14.9701 9.76337 15.0565L9.54425 15.839C9.53326 15.8853 9.53326 15.9336 9.54425 15.9799C9.54603 16.1223 9.58957 16.2611 9.66946 16.379C9.75521 16.5115 9.88577 16.6087 10.0373 16.6529C10.1201 16.6774 10.2071 16.6843 10.2928 16.673C10.3784 16.6618 10.4607 16.6328 10.5345 16.5878C10.6082 16.5429 10.6717 16.4829 10.7208 16.4119C10.77 16.3409 10.8037 16.2604 10.8199 16.1755L11.0077 15.393C11.0356 15.3096 11.0458 15.2213 11.0377 15.1337C11.0296 15.0461 11.0034 14.9612 10.9607 14.8843C10.8783 14.739 10.7442 14.63 10.5851 14.5791V14.5791Z"/>
<path class="rain" d="M7.53301 15.8547C7.35673 15.8068 7.16873 15.8293 7.00868 15.9173C6.9329 15.961 6.86766 16.0207 6.81761 16.0924C6.76756 16.1641 6.73394 16.2459 6.71912 16.3321L6.5 17.1147C6.5 17.1538 6.5 17.2086 6.5 17.279C6.50187 17.4263 6.54527 17.5701 6.62521 17.6938C6.70571 17.8263 6.83044 17.9261 6.97738 17.9755C7.05568 18.0023 7.13881 18.0119 7.22116 18.0038C7.3035 17.9957 7.38316 17.9701 7.45475 17.9286C7.53958 17.8856 7.6142 17.825 7.6736 17.7507C7.733 17.6765 7.77579 17.5904 7.79909 17.4982L7.99474 16.6765C8.02258 16.5967 8.03212 16.5116 8.02264 16.4276C8.01315 16.3436 7.9849 16.2628 7.93996 16.1913C7.8976 16.1111 7.83985 16.0402 7.77002 15.9824C7.70019 15.9247 7.61965 15.8813 7.53301 15.8547V15.8547Z"/>
<path class="rain" d="M9.55214 18.3355C9.46843 18.3072 9.3796 18.2975 9.29178 18.307C9.20396 18.3164 9.11923 18.3448 9.04345 18.3902C8.89049 18.4767 8.77796 18.6202 8.73042 18.7894L8.5113 19.5719C8.4869 19.6234 8.47357 19.6794 8.47217 19.7363C8.47821 19.8767 8.52438 20.0125 8.60521 20.1276C8.69695 20.2627 8.83233 20.3621 8.98867 20.4093H9.18432C9.28368 20.4124 9.38251 20.3937 9.47388 20.3545C9.55908 20.3092 9.63248 20.2445 9.6882 20.1657C9.74391 20.0868 9.7804 19.9961 9.79474 19.9006L10.006 19.118C10.0343 19.0343 10.044 18.9455 10.0345 18.8577C10.0251 18.7699 9.99665 18.6851 9.95125 18.6094C9.85734 18.4712 9.71485 18.3734 9.55214 18.3355V18.3355Z"/>
<path class="rain" d="M8.86349 13.7417L9.05131 12.9591C9.07916 12.8793 9.08869 12.7943 9.07921 12.7103C9.06972 12.6263 9.04147 12.5455 8.99653 12.4739C8.9566 12.3875 8.89797 12.3112 8.82488 12.2502C8.75179 12.1893 8.66607 12.1454 8.57393 12.1217C8.48683 12.0963 8.39548 12.0887 8.30537 12.0995C8.21526 12.1102 8.12826 12.1391 8.0496 12.1843C7.97472 12.2271 7.91004 12.2857 7.86004 12.356C7.81004 12.4262 7.77592 12.5065 7.76004 12.5913L7.52527 13.3739C7.52527 13.4365 7.52527 13.4991 7.52527 13.5617C7.52562 13.7064 7.5755 13.8467 7.66661 13.9592C7.75773 14.0717 7.8846 14.1496 8.02612 14.1799C8.10459 14.2164 8.19005 14.2352 8.27655 14.2352C8.36305 14.2352 8.44852 14.2164 8.52698 14.1799C8.61217 14.1366 8.6866 14.0747 8.74482 13.9989C8.80304 13.9231 8.84358 13.8352 8.86349 13.7417V13.7417Z"/>
</svg>
