<!-- This Source Code Form is subject to the terms of the Mozilla Public
   - License, v. 2.0. If a copy of the MPL was not distributed with this
   - file, You can obtain one at http://mozilla.org/MPL/2.0/. -->
<svg width="22" height="22" viewBox="0 0 22 22" fill="none" xmlns="http://www.w3.org/2000/svg">
<style>
  .sunny {
    fill: context-fill #E27F2E;
  }

  @media (prefers-color-scheme: dark) {
    .sunny {
      fill: context-fill #FFFF98;
    }
  }
</style>
<path class="sunny" d="M1.7052 10.9873C1.70259 10.8895 1.72068 10.7922 1.75836 10.7014C1.79603 10.6106 1.85249 10.5283 1.92424 10.4596C2.06546 10.3277 2.25401 10.2544 2.44991 10.2553H4.20217C4.29762 10.2533 4.3924 10.2713 4.48007 10.308C4.56775 10.3447 4.64628 10.3993 4.71032 10.4681C4.83745 10.6129 4.90728 10.797 4.90728 10.9873C4.90728 11.1777 4.83745 11.3617 4.71032 11.5066C4.64703 11.5763 4.56864 11.6315 4.48079 11.6683C4.39293 11.7051 4.29778 11.7225 4.20217 11.7194H2.44991C2.35199 11.7206 2.25484 11.7023 2.16444 11.6657C2.07405 11.6291 1.9923 11.575 1.92424 11.5066C1.85316 11.4391 1.79706 11.3583 1.75938 11.269C1.72171 11.1797 1.70327 11.0838 1.7052 10.9873ZM4.21093 16.8861C4.21141 16.695 4.28298 16.5106 4.41244 16.3668L5.70034 15.1496C5.7673 15.0833 5.84801 15.0315 5.93713 14.9977C6.02625 14.964 6.12174 14.949 6.21726 14.9539C6.4121 14.9498 6.60083 15.0201 6.74294 15.1496C6.81148 15.2113 6.86568 15.2865 6.90194 15.3702C6.9382 15.4539 6.95568 15.5441 6.95321 15.6348C6.95596 15.8356 6.88091 16.0301 6.74294 16.1796L5.49884 17.3883C5.35178 17.5193 5.15953 17.5919 4.96002 17.5919C4.76051 17.5919 4.56825 17.5193 4.4212 17.3883C4.35304 17.3227 4.29926 17.2444 4.26312 17.1581C4.22698 17.0718 4.20923 16.9792 4.21093 16.8861ZM4.21093 5.10561C4.21141 4.91458 4.28298 4.73017 4.41244 4.58639C4.56761 4.45334 4.76625 4.37795 4.97316 4.37359C5.16639 4.37311 5.35205 4.44649 5.49007 4.57787L6.74294 5.82912C6.81238 5.89375 6.86701 5.97188 6.90324 6.05842C6.93947 6.14496 6.9565 6.23795 6.95321 6.33132C6.95561 6.42585 6.93822 6.51988 6.90208 6.60768C6.86595 6.69548 6.81183 6.77524 6.74301 6.8421C6.67418 6.90897 6.59209 6.96155 6.50171 6.99665C6.41134 7.03176 6.31456 7.04866 6.21726 7.04632C6.12115 7.04952 6.02544 7.03298 5.93636 6.99778C5.84729 6.96257 5.76686 6.9095 5.70034 6.84204L4.4212 5.62484C4.35212 5.5564 4.2979 5.47517 4.26178 5.38597C4.22566 5.29677 4.20836 5.20143 4.21093 5.10561ZM6.44505 10.9873C6.43734 10.209 6.64946 9.44357 7.05834 8.77424C7.45966 8.09906 8.03679 7.53836 8.73175 7.14846C9.33893 6.80474 10.0206 6.60413 10.7221 6.56273C11.4235 6.52134 12.1252 6.64033 12.7707 6.91013C13.321 7.14542 13.8182 7.48384 14.2338 7.90602C15.0838 8.73977 15.5622 9.8649 15.5655 11.0384C15.5722 11.8193 15.3602 12.5872 14.9522 13.26C14.5515 13.9305 13.9777 14.4879 13.2876 14.8773C12.5924 15.2672 11.8037 15.4725 11.0009 15.4725C10.1981 15.4725 9.40947 15.2672 8.71422 14.8773C8.02409 14.4879 7.45034 13.9305 7.04958 13.26C6.64558 12.5674 6.43703 11.7834 6.44505 10.9873ZM7.93447 10.9873C7.93332 11.3819 8.01217 11.7729 8.16653 12.1378C8.32089 12.5028 8.54774 12.8347 8.83411 13.1145C9.12048 13.3943 9.46078 13.6165 9.83557 13.7686C10.2104 13.9206 10.6123 13.9994 11.0184 14.0005C11.8403 13.9983 12.6278 13.6801 13.209 13.1155C13.7901 12.5509 14.1176 11.7858 14.1199 10.9873C14.1287 10.5974 14.0555 10.2099 13.9048 9.8484C13.7542 9.48691 13.5293 9.15907 13.2438 8.88489C12.9567 8.60681 12.6146 8.38804 12.2382 8.24176C11.8618 8.09548 11.4588 8.0247 11.0535 8.0337C10.6508 8.02454 10.2504 8.09531 9.87676 8.24167C9.50316 8.38802 9.16423 8.60689 8.88069 8.88489C8.58083 9.15189 8.34175 9.47686 8.1788 9.83893C8.01585 10.201 7.93263 10.5922 7.93447 10.9873ZM10.265 17.6096C10.2621 17.5142 10.2802 17.4194 10.3179 17.3313C10.3557 17.2433 10.4123 17.164 10.484 17.0989C10.6247 16.9662 10.8136 16.8928 11.0097 16.8946C11.1083 16.8921 11.2064 16.9089 11.2983 16.944C11.3901 16.9791 11.4737 17.0317 11.5441 17.0989C11.6134 17.1654 11.6678 17.2451 11.7039 17.333C11.7401 17.4208 11.7573 17.515 11.7544 17.6096V19.312C11.757 19.4098 11.7389 19.5071 11.7012 19.5979C11.6636 19.6887 11.6071 19.771 11.5354 19.8397C11.4673 19.9081 11.3855 19.9623 11.2951 19.9989C11.2047 20.0355 11.1076 20.0537 11.0097 20.0525C10.9116 20.0547 10.8141 20.037 10.7236 20.0003C10.633 19.9636 10.5514 19.9089 10.484 19.8397C10.4123 19.771 10.3558 19.6887 10.3181 19.5979C10.2804 19.5071 10.2624 19.4098 10.265 19.312V17.6096ZM10.265 4.41615V2.71377C10.2637 2.61863 10.2825 2.52425 10.3202 2.43643C10.3578 2.3486 10.4136 2.26918 10.484 2.20306C10.5495 2.12626 10.631 2.0638 10.7231 2.01978C10.8152 1.97577 10.9159 1.9512 11.0184 1.9477C11.1165 1.94545 11.214 1.96323 11.3045 1.99989C11.3951 2.03655 11.4767 2.09126 11.5441 2.1605C11.6145 2.22663 11.6703 2.30604 11.7079 2.39387C11.7456 2.48169 11.7644 2.57607 11.7631 2.67121V4.41615C11.7652 4.50888 11.7467 4.60096 11.7089 4.68614C11.6711 4.77132 11.6149 4.84761 11.5441 4.90984C11.4025 5.0402 11.2134 5.11062 11.0184 5.10561C10.8238 5.10879 10.6354 5.03863 10.4928 4.90984C10.4217 4.84736 10.3647 4.77121 10.3255 4.68623C10.2863 4.60125 10.2657 4.50928 10.265 4.41615ZM15.1012 15.6348C15.1012 15.4565 15.1741 15.2854 15.3039 15.1593C15.4337 15.0332 15.6098 14.9624 15.7933 14.9624C15.9882 14.9583 16.1769 15.0286 16.319 15.1582L17.5982 16.4179C17.7352 16.5577 17.8107 16.744 17.8084 16.9371C17.8101 17.0303 17.7924 17.1228 17.7562 17.2092C17.7201 17.2955 17.6663 17.3738 17.5982 17.4393C17.4545 17.5667 17.267 17.6374 17.0725 17.6374C16.878 17.6374 16.6905 17.5667 16.5468 17.4393L15.3027 16.2307C15.1599 16.0642 15.0879 15.8511 15.1012 15.6348ZM15.1012 6.33983C15.0968 6.24709 15.1124 6.15448 15.1471 6.06797C15.1818 5.98147 15.2348 5.903 15.3027 5.83763L16.5468 4.58639C16.6848 4.455 16.8705 4.38163 17.0637 4.3821C17.1619 4.37932 17.2595 4.39685 17.3501 4.43354C17.4408 4.47023 17.5223 4.52523 17.5894 4.5949C17.6598 4.66103 17.7156 4.74044 17.7532 4.82827C17.7909 4.91609 17.8097 5.01047 17.8084 5.10561C17.8122 5.20285 17.7955 5.29981 17.7593 5.39055C17.7232 5.48129 17.6683 5.56391 17.5982 5.63335L16.319 6.85055C16.1768 6.98095 15.9889 7.05397 15.7933 7.05483C15.7012 7.05712 15.6097 7.04005 15.525 7.0048C15.4404 6.96954 15.3645 6.91692 15.3027 6.85055C15.1693 6.71248 15.097 6.52913 15.1012 6.33983ZM17.0812 10.9873C17.0785 10.7916 17.1539 10.6025 17.2915 10.4596C17.356 10.3943 17.4336 10.3424 17.5195 10.3073C17.6054 10.2722 17.6977 10.2545 17.7909 10.2553H19.5432C19.692 10.2539 19.8379 10.2959 19.9619 10.3759C20.0859 10.4558 20.1825 10.57 20.2391 10.7038C20.2956 10.8375 20.3097 10.9847 20.2793 11.1263C20.249 11.2678 20.1757 11.3973 20.0688 11.498C20.0008 11.5664 19.919 11.6206 19.8286 11.6572C19.7382 11.6938 19.6411 11.7121 19.5432 11.7108H17.7909C17.6953 11.714 17.6001 11.6965 17.5123 11.6598C17.4244 11.623 17.346 11.5677 17.2827 11.498C17.1502 11.3595 17.078 11.1765 17.0812 10.9873Z"/>
</svg>
