<!-- This Source Code Form is subject to the terms of the Mozilla Public
   - License, v. 2.0. If a copy of the MPL was not distributed with this
   - file, You can obtain one at https://mozilla.org/MPL/2.0/. -->
<svg xmlns="http://www.w3.org/2000/svg" viewBox="0 0 200 200" fill="context-fill"><path d="M182.14,25.22a8.43,8.43,0,0,0-9.07-8.38,8.72,8.72,0,0,0-8.38,9.06l1.67,43A78.45,78.45,0,1,0,93.91,177.18a78,78,0,0,0,62.83-31.39,8.73,8.73,0,1,0-14-10.5,61.07,61.07,0,1,1,9.47-54.82c.1.3.32.52.44.8H110.36a8.73,8.73,0,0,0,0,17.46h64.31a8.09,8.09,0,0,0,1.09-.22c.05,0,.09,0,.14,0h.35a8.72,8.72,0,0,0,8.38-9.06Z"/></svg>
