<!-- This Source Code Form is subject to the terms of the Mozilla Public
   - License, v. 2.0. If a copy of the MPL was not distributed with this
   - file, You can obtain one at https://mozilla.org/MPL/2.0/. -->
<svg xmlns="http://www.w3.org/2000/svg" viewBox="0 0 21 20" fill="context-fill"><path d="M11.62,9.51a1.13,1.13,0,1,1-2.25,0V5a1.13,1.13,0,1,1,2.25,0ZM10.5,15.14a1.13,1.13,0,1,1,0-2.25,1.13,1.13,0,0,1,0,2.25ZM10.5.52C4.91.52.38,4.62.38,9.66A8.52,8.52,0,0,0,2,14.6a1.91,1.91,0,0,1,.17.24,1.34,1.34,0,0,1,.16.6c0,.08-.95,3.43-.95,3.43a.5.5,0,0,0,.4.59.32.32,0,0,0,.13,0,1.38,1.38,0,0,0,.2,0l.08,0,2.67-1.3.53-.23A1.63,1.63,0,0,1,6,17.77a1.61,1.61,0,0,1,.54.09,0,0,0,0,1,0,0l.08,0a11.15,11.15,0,0,0,4,.61c5.59,0,10.07-3.8,10.07-8.85S16.09.52,10.5.52Z"/></svg>