<!-- This Source Code Form is subject to the terms of the Mozilla Public
   - License, v. 2.0. If a copy of the MPL was not distributed with this
   - file, You can obtain one at https://mozilla.org/MPL/2.0/. -->
<svg xmlns="http://www.w3.org/2000/svg" viewBox="0 0 200 200" fill="context-fill"><path d="M161.53,192.17H125a8.28,8.28,0,0,1-8.28-8.28v-49H83.63v49a8.28,8.28,0,0,1-8.28,8.28H38.8a8.28,8.28,0,0,1-8.28-8.28V120H18.15a8.29,8.29,0,0,1-6.28-13.69l82-95.21a8.28,8.28,0,0,1,12.55,0l82,95.21A8.29,8.29,0,0,1,182.18,120H169.81v63.94A8.28,8.28,0,0,1,161.53,192.17Zm-28.27-16.56h20V111.67a8.28,8.28,0,0,1,8.28-8.28h2.59l-64-74.25L36.21,103.39H38.8a8.28,8.28,0,0,1,8.28,8.28v63.94h20v-49a8.27,8.27,0,0,1,8.28-8.28H125a8.27,8.27,0,0,1,8.28,8.28Z"/></svg>
