/* XPM */
static char *mozilla.xpm[] = {
/* columns rows colors chars-per-pixel */
"16 16 94 2",
"   c opaque",
".  c #655a47",
"X  c #7e6e53",
"o  c #897a5e",
"O  c #817764",
"+  c #817a6f",
"@  c #897d63",
"#  c #8e8063",
"$  c #918369",
"%  c #948974",
"&  c #988b71",
"*  c #988e7d",
"=  c #a2947b",
"-  c #af9e7a",
";  c #858995",
":  c #958d83",
">  c #9b9da6",
",  c #9ea3b2",
"<  c #99a0b8",
"1  c #a09682",
"2  c #aa9c81",
"3  c #a09a90",
"4  c #afa285",
"5  c #afa288",
"6  c #a8a090",
"7  c #b4a586",
"8  c #b3a689",
"9  c #b8aa8c",
"0  c #b8ad96",
"q  c #bcb199",
"w  c #a1a0a2",
"e  c #a8a6a4",
"r  c #aca9a5",
"t  c #a7aab6",
"y  c #a6a9b8",
"u  c #aab0bd",
"i  c #b6afa1",
"p  c #b5b1aa",
"a  c #bbb4a4",
"s  c #b1b3be",
"d  c #adb6cc",
"f  c #adb7d1",
"g  c #b1b9cd",
"h  c #b7c0d6",
"j  c #b8c4e3",
"k  c #c4b188",
"l  c #c3b496",
"z  c #c3b69b",
"x  c #cebd96",
"c  c #c9bb99",
"v  c #c6b9a1",
"b  c #c3bcac",
"n  c #c8bca6",
"m  c #c4bfb2",
"M  c #d2c097",
"N  c #d0c19d",
"B  c #cfc2a3",
"V  c #cfc4af",
"C  c #c7c0b2",
"Z  c #ccc5b5",
"A  c #d5c7a5",
"S  c #d7c9ad",
"D  c #dbcdae",
"F  c #d7ceba",
"G  c #daceb5",
"H  c #ddd0b3",
"J  c #dbd1ba",
"K  c #e3d7ba",
"L  c #e3d8be",
"P  c #dfd9c8",
"I  c #cdd4e5",
"U  c #cfd8ec",
"Y  c #d3defc",
"T  c #dee2ef",
"R  c #d7e3ff",
"E  c #dfe4f3",
"W  c #dbe7ff",
"Q  c #dde8fe",
"!  c #e5dbc4",
"~  c #eadec4",
"^  c #e8dfc8",
"/  c #ece3cd",
"(  c #ece4d1",
")  c #efe8d5",
"_  c #e5eaf5",
"`  c #e3edfe",
"'  c #e7f1fe",
"]  c #eef4fe",
"[  c #f9f3e3",
"{  c #fbf6e8",
"}  c #f1f6ff",
"|  c #f4faff",
" . c #fbfeff",
".. c None",
/* pixels */
"..............# @ @ ............",
"............@ 3 C a @ ..........",
"........@ @ 3 b b Z Z O ........",
"......@ E T g , > r p m @ ......",
"....@ ;  . . .} _ I g d y @ ....",
"..# + f  .} ] ] ]  . .| U r @ ..",
"..7 * g ' ` ' ` W ` ` ` r k @ ..",
"..9 H 0 s Y ` W R W R u 8 M @ ..",
"..5 L L v w j d t g < 1 N x @ ..",
"..2 L ! ( J : i P b % B A x @ ..",
"..= L ! ( F n [ { [ F 5 c x @ ..",
"..& K J q Z ( / / ! ^ G 8 - @ ..",
"..$ G 2 n / ~ ! L L G D l X @ ..",
"..o 8 c ~ J S l - # . @ @ @ ....",
"..@ & = @ @ @ ..................",
"................................"
};
