/* XPM */
static char *mozilla.xpm[] = {
/* columns rows colors chars-per-pixel */
"48 48 238 2",
"   c opaque",
".  c #3f301d",
"X  c #3d3e3b",
"o  c #06175e",
"O  c #04264b",
"+  c #04294f",
"@  c #05255e",
"#  c #08227d",
"$  c #063567",
"%  c #0f3c75",
"&  c #1a257a",
"*  c #26394a",
"=  c #323641",
"-  c #313940",
";  c #393848",
":  c #06407f",
">  c #16406c",
",  c #1a4571",
"<  c #3c4449",
"1  c #24476c",
"2  c #453722",
"3  c #4b3d28",
"4  c #4f422d",
"5  c #51432d",
"6  c #574933",
"7  c #524c3f",
"8  c #5e4f38",
"9  c #5d503b",
"0  c #64553e",
"q  c #404a4d",
"w  c #4a4647",
"e  c #4a4d4d",
"r  c #424e59",
"t  c #484754",
"y  c #5d584c",
"u  c #5a6368",
"i  c #665840",
"p  c #645b48",
"a  c #6a5b43",
"s  c #6c5f49",
"d  c #6c614e",
"f  c #73644b",
"g  c #766a57",
"h  c #746c5e",
"j  c #7b6c53",
"k  c #7b6e58",
"l  c #7e725a",
"z  c #63646b",
"x  c #6c6f7d",
"c  c #7f7766",
"v  c #787974",
"b  c #787d7f",
"n  c #092a8c",
"m  c #0e219e",
"M  c #0a289c",
"N  c #093c9c",
"B  c #0c21ab",
"V  c #0b2aab",
"C  c #0d23bb",
"Z  c #1022a0",
"A  c #253293",
"S  c #0f2ada",
"D  c #102ce9",
"F  c #1130f9",
"G  c #08469d",
"H  c #0f5096",
"J  c #08519d",
"K  c #155496",
"L  c #1e5692",
"P  c #0948ac",
"I  c #0851a0",
"U  c #0958ad",
"Y  c #0e5db1",
"T  c #1158a4",
"R  c #165eaa",
"E  c #0960bc",
"W  c #2b5d91",
"Q  c #33409e",
"!  c #0a68cc",
"~  c #0b71dc",
"^  c #0b77eb",
"/  c #44578c",
"(  c #4f5c84",
")  c #616d91",
"_  c #68708b",
"`  c #6f7996",
"'  c #7e7d81",
"]  c #6d7caa",
"[  c #717ea7",
"{  c #0c80fb",
"}  c #7e898f",
"|  c #7e8592",
" . c #7c849d",
".. c #7481a7",
"X. c #7280aa",
"o. c #7a87ac",
"O. c #7685b1",
"+. c #817259",
"@. c #897a5e",
"#. c #877860",
"$. c #857a69",
"%. c #8b7e66",
"&. c #8f8064",
"*. c #8c8271",
"=. c #918165",
"-. c #94856a",
";. c #9b8c6f",
":. c #918672",
">. c #918978",
",. c #9b8d73",
"<. c #998e7a",
"1. c #9e9175",
"2. c #a19274",
"3. c #a4957a",
"4. c #a7997e",
"5. c #ab9b7c",
"6. c #838389",
"7. c #868886",
"8. c #898787",
"9. c #878992",
"0. c #848999",
"q. c #859097",
"w. c #8e9098",
"e. c #908a83",
"r. c #94918e",
"t. c #9a9181",
"y. c #99968d",
"u. c #969290",
"i. c #9a9691",
"p. c #9f9b93",
"a. c #9d9b9b",
"s. c #858da5",
"d. c #808db4",
"f. c #8190bd",
"g. c #8e98b1",
"h. c #9195a3",
"j. c #9c9ea6",
"k. c #a19682",
"l. c #a49981",
"z. c #a39c8d",
"x. c #a99c84",
"c. c #a39d93",
"v. c #aea083",
"b. c #ada189",
"n. c #a6a196",
"m. c #a7a299",
"M. c #aca495",
"N. c #aca79c",
"B. c #b3a484",
"V. c #b1a68b",
"C. c #b6aa8f",
"Z. c #b6ab94",
"A. c #b1aa9c",
"S. c #bbad91",
"D. c #bdb090",
"F. c #bbb099",
"G. c #a4a4aa",
"H. c #b6afa0",
"J. c #b6b0a5",
"K. c #bab3a5",
"L. c #bcb6a9",
"P. c #beb8aa",
"I. c #8796c1",
"U. c #8d9cca",
"Y. c #9da7c4",
"T. c #9fa8c4",
"R. c #9da9c9",
"E. c #97a6d1",
"W. c #98a9da",
"Q. c #a3adcb",
"!. c #adb3c3",
"~. c #abb6d3",
"^. c #b0b6c1",
"/. c #b1bcdb",
"(. c #a8b8e1",
"). c #b5c0de",
"_. c #b8c2d8",
"`. c #bac5e4",
"'. c #bbc7e8",
"]. c #c0af87",
"[. c #c4b38d",
"{. c #c3b493",
"}. c #c1b69b",
"|. c #c6b89d",
" X c #c9b994",
".X c #ccbd9a",
"XX c #c3b8a0",
"oX c #c2bbad",
"OX c #c4beb1",
"+X c #cec2a3",
"@X c #c6c0b2",
"#X c #c9c2b5",
"$X c #ccc6b9",
"%X c #d1c4a4",
"&X c #d2c5a8",
"*X c #d5c9ab",
"=X c #d8cbae",
"-X c #d5c9b0",
";X c #d9ceb2",
":X c #dbd0b5",
">X c #ddd3ba",
",X c #e0d6bd",
"<X c #c0c7db",
"1X c #c0c9da",
"2X c #d2cec4",
"3X c #c3cdea",
"4X c #cad3e6",
"5X c #c8d4ee",
"6X c #c7d3f5",
"7X c #cad6f8",
"8X c #cddaf4",
"9X c #d2dbed",
"0X c #d8deee",
"qX c #d1dbf2",
"wX c #d0dbfb",
"eX c #dbe1ed",
"rX c #d6e1fc",
"tX c #dfe4f0",
"yX c #dae5fd",
"uX c #dee9fe",
"iX c #e3d9c3",
"pX c #e6ddc8",
"aX c #e8dfca",
"sX c #e8e0cc",
"dX c #ebe4d2",
"fX c #eee8d6",
"gX c #f1ebdb",
"hX c #e2e9f7",
"jX c #e3ecfd",
"kX c #e9effc",
"lX c #e7f0fe",
"zX c #ebf2fd",
"xX c #f5f0e1",
"cX c #f9f5e9",
"vX c #f1f6fd",
"bX c #f5f9fe",
"nX c #fafcfe",
"mX c None",
/* pixels */
"mXmXmXmXmXmXmXmXmXmXmXmXmXmXmXmXmXmXmXmXmXmXmXmXmXmXmXmXmXmXmXmXmXmXmXmXmXmXmXmXmXmXmXmXmXmXmXmX",
"mXmXmXmXmXmXmXmXmXmXmXmXmXmXmXmXmXmXmXmXmXmXmXmXmXmXmXmXmXmXmXmXmXmXmXmXmXmXmXmXmXmXmXmXmXmXmXmX",
"mXmXmXmXmXmXmXmXmXmXmXmXmXmXmXmXmXmXmXmXmXmXmXmXmXmXmXmXmXmXmXmXmXmXmXmXmXmXmXmXmXmXmXmXmXmXmXmX",
"mXmXmXmXmXmXmXmXmXmXmXmXmXmXmXmXmXmXmXmXmXmXmXmXmXmXmXmXmXmXmXmXmXmXmXmXmXmXmXmXmXmXmXmXmXmXmXmX",
"mXmXmXmXmXmXmXmXmXmXmXmXmXmXmXmXmXmXmXmXmXmXmXmXmXmXmXmXmXmXmXmXmXmXmXmXmXmXmXmXmXmXmXmXmXmXmXmX",
"mXmXmXmXmXmXmXmXmXmXmXmXmXmXmXmXmXmXmXmXmXmXmXmXmXmXmXmXmXmXmXmXmXmXmXmXmXmXmXmXmXmXmXmXmXmXmXmX",
"mXmXmXmXmXmXmXmXmXmXmXmXmXmXmXmXmXmXmXmXmXmXmXmXmXmXmXmXmXmXmXmXmXmXmXmXmXmXmXmXmXmXmXmXmXmXmXmX",
"mXmXmXmXmXmXmXmXmXmXmXmXmXmXmXmXmXmXmXmXmXmXmXmXmXmXmXmXmXmXmXmXmXmXmXmXmXmXmXmXmXmXmXmXmXmXmXmX",
"mXmXmXmXmXmXmXmXmXmXmXmXmXmXmXmXmXmXmXmXmXmXmX&.&.&.mXmXmXmXmXmXmXmXmXmXmXmXmXmXmXmXmXmXmXmXmXmX",
"mXmXmXmXmXmXmXmXmXmXmXmXmXmXmXmXmXmXmXmXmX&.&.t.M.*.5 mXmXmXmXmXmXmXmXmXmXmXmXmXmXmXmXmXmXmXmXmX",
"mXmXmXmXmXmXmXmXmXmXmXmXmXmXmXmXmXmXmXmX&.k A.K.K.K.z.9 mXmXmXmXmXmXmXmXmXmXmXmXmXmXmXmXmXmXmXmX",
"mXmXmXmXmXmXmXmXmXmXmXmXmXmXmXmXmXmXmX%.:.L.L.L.P.P.oXA.s mXmXmXmXmXmXmXmXmXmXmXmXmXmXmXmXmXmXmX",
"mXmXmXmXmXmXmXmXmXmXmXmXmXmXmXmXmXmX&.z.oXoXoXoXoXoXoXoXK.k mXmXmXmXmXmXmXmXmXmXmXmXmXmXmXmXmXmX",
"mXmXmXmXmXmXmXmXmXmXmXmXmXmXmX] X.X.$.c.A.K.oXOX@X#X#X@X#XoX%.mXmXmXmXmXmXmXmXmXmXmXmXmXmXmXmXmX",
"mXmXmXmXmXmXmXmXmXmXmXmXmXmX/ <XnXtXW.X.` 9.p.N.K.oXOX#X$X$X$X,.mXmXmXmXmXmXmXmXmXmXmXmXmXmXmXmX",
"mXmXmXmXmXmXmXmXmXmXmXmXmXmX( vXnXnXnXnXeX/.I.[  .w.c.G.H.P.OX#Xl.mXmXmXmXmXmXmXmXmXmXmXmXmXmXmX",
"mXmXmXmXmXmXmXmXmXmXmXmXmX=.o.nXnXnXbXnXbXnXbXbXeX).E.O.o.s.h.a.m.>.mXmXmXmXmXmXmXmXmXmXmXmXmXmX",
"mXmXmXmXmXmXmXmXmXmXmXmX&.x _.nXnXbXvXvXvXbXbXnXnXnXnXbXzXqX'.(.W.U.X._ mXmXmXmXmXmXmXmXmXmXmXmX",
"mXmXmXmXmXmXmXmXmXmXmX&.m.) hXbXbXvXzXbXvXzXzXzXzXbXbXvXzXnXzXzXkXeX^.6.v.mXmXmXmXmXmXmXmXmXmXmX",
"mXmXmXmXmXmXmXmXmXmX&.&.h o.lXzXvXzXzXzXzXzXzXuXzXzXvXzXzXzXzXzXtX!.y.v.5.mXmXmXmXmXmXmXmXmXmXmX",
"mXmXmXmXmXmXmXmXmXmXB.1.z R.yXlXkXkXkXlXzXjXuXkXyXzXkXzXkXzXzXeX^.i.5.].4.mXmXmXmXmXmXmXmXmXmXmX",
"mXmXmXmXmXmXmXmXmX2.*XF.1.G.4XuXuXuXjXuXlXuXrXyXyXuXuXuXuXuXeX!.y.2.[.[.2.mXmXmXmXmXmXmXmXmXmXmX",
"mXmXmXmXmXmXmXmXmX;.*X*X+X3.m._.qXrXyXuXuXuXyXyXyXuXrXrXyX8X!.r.2. X X[.;.mXmXmXmXmXmXmXmXmXmXmX",
"mXmXmXmXmXmXmXmXmX-.*X=X>X:XV.<.!.5XrXyXuXuXrXwXrXuXwX8X5X| - d D. X X[.-.mXmXmXmXmXmXmXmXmXmXmX",
"mXmXmXmXmXmXmXmXmX&.=X:X>X>X,XXX-.j.`.7XrX8X'.).'.8X6X'.T.8.p B t V. X[.=.mXmXmXmXmXmXmXmXmXmXmX",
"mXmXmXmXmXmXmXmXmX@.=X:X>X,XpXaX:X;.e.~.).T.h.8.r.j.Q.g.- k Z.A D w 5.[.l mXmXmXmXmXmXmXmXmXmXmX",
"mXmXmXmXmXmXmXmXmX+.*X:X>X,XaXaXdXdXb.$. .>.4.e z.b.-.1 < l.}.Q F Z l B.X mXmXmXmXmXmXmXmXmXmXmX",
"mXmXmXmXmXmXmXmXmXj =X:X>XiXsXaXdXdXgXoX-.F.cXR b 2X7.^ 7 y c B F F ; 1.H + mXmXmXmXmXmXmXmXmXmX",
"mXmXmXmXmXmXmXmXmXf ;X:X>X,XiXsXdXdXdXn.Z.cXK.^ H y.W { * X % F F F & q ^ I mXmXmXmXmXmXmXmXmXmX",
"mXmXmXmXmXmXmXmXmXf *X:X>X>XiXaXpXdXb.b.xXxXq.{ { , E { Y > ! S F F m ! { E mXmXmXmXmXmXmXmXmXmX",
"mXmXmXmXmXmXmXmXmXa *X:X>X>X,XpXpXx.l.gXgXgX} { { { E { { U E C F F C { { E mXmXmXmXmXmXmXmXmXmX",
"mXmXmXmXmXmXmXmXmX0 &X*X:X>X>X,Xl.3.fXfXdXp.r E { ! E { { { E V F F V { { + mXmXmXmXmXmXmXmXmXmX",
"mXmXmXmXmXmXmXmXmX9 %X*X=X:X>X4.,.aXdXdXaXiXW ~ ^ @ I ^ { { { ^ n F N ^ { ! mXmXmXmXmXmXmXmXmXmX",
"mXmXmXmXmXmXmXmXmX6 %X*X*X=X4.-.iXaXaXiXiX,Xv ! ^ C o J { { { { ^ # ! { ^ H mXmXmXmXmXmXmXmXmXmX",
"mXmXmXmXmXmXmXmXmX5 %X%X&X3.&.>XiXiXiX,X,X>Xu U ^ M C ! ! ^ { { { ^ { { ^ mXmXmXmXmXmXmXmXmXmXmX",
"mXmXmXmXmXmXmXmXmX3 .X%X2.#.>X,X,X>X:X>X:X;XV.T { P S Y { { { { { { { { { mXmXmXmXmXmXmXmXmXmXmX",
"mXmXmXmXmXmXmXmXmX2 .X2.k -X>X:X;X;X=X=X%XS.2.&.Y { I @ ^ ^ { { { { { ^ mXmXmXmXmXmXmXmXmXmXmXmX",
"mXmXmXmXmXmXmXmXmX. ;.j &X:X=X|.v.,.&.&.%.mXmXmXmX$ U ^ ^ { ^ { ^ ^ I mXmXmXmXmXmXmXmXmXmXmXmXmX",
"mXmXmXmXmXmXmXmXmX3 i &.&.&.&.&.mXmXmXmXmXmXmXmXmXmXmXmXmXmXmXmXmXmXmXmXmXmXmXmXmXmXmXmXmXmXmXmX",
"mXmXmXmXmXmXmXmXmXmXmXmXmXmXmXmXmXmXmXmXmXmXmXmXmXmXmXmXmXmXmXmXmXmXmXmXmXmXmXmXmXmXmXmXmXmXmXmX",
"mXmXmXmXmXmXmXmXmXmXmXmXmXmXmXmXmXmXmXmXmXmXmXmXmXmXmXmXmXmXmXmXmXmXmXmXmXmXmXmXmXmXmXmXmXmXmXmX",
"mXmXmXmXmXmXmXmXmXmXmXmXmXmXmXmXmXmXmXmXmXmXmXmXmXmXmXmXmXmXmXmXmXmXmXmXmXmXmXmXmXmXmXmXmXmXmXmX",
"mXmXmXmXmXmXmXmXmXmXmXmXmXmXmXmXmXmXmXmXmXmXmXmXmXmXmXmXmXmXmXmXmXmXmXmXmXmXmXmXmXmXmXmXmXmXmXmX",
"mXmXmXmXmXmXmXmXmXmXmXmXmXmXmXmXmXmXmXmXmXmXmXmXmXmXmXmXmXmXmXmXmXmXmXmXmXmXmXmXmXmXmXmXmXmXmXmX",
"mXmXmXmXmXmXmXmXmXmXmXmXmXmXmXmXmXmXmXmXmXmXmXmXmXmXmXmXmXmXmXmXmXmXmXmXmXmXmXmXmXmXmXmXmXmXmXmX",
"mXmXmXmXmXmXmXmXmXmXmXmXmXmXmXmXmXmXmXmXmXmXmXmXmXmXmXmXmXmXmXmXmXmXmXmXmXmXmXmXmXmXmXmXmXmXmXmX",
"mXmXmXmXmXmXmXmXmXmXmXmXmXmXmXmXmXmXmXmXmXmXmXmXmXmXmXmXmXmXmXmXmXmXmXmXmXmXmXmXmXmXmXmXmXmXmXmX",
"mXmXmXmXmXmXmXmXmXmXmXmXmXmXmXmXmXmXmXmXmXmXmXmXmXmXmXmXmXmXmXmXmXmXmXmXmXmXmXmXmXmXmXmXmXmXmXmX"
};
