<?xml version="1.0" encoding="UTF-8" standalone="no"?>
<!DOCTYPE svg PUBLIC "-//W3C//DTD SVG 1.1//EN" "http://www.w3.org/Graphics/SVG/1.1/DTD/svg11.dtd">
<!-- Created with Vectornator (http://vectornator.io/) -->
<svg height="100%" stroke-miterlimit="10" style="fill-rule:nonzero;clip-rule:evenodd;stroke-linecap:round;stroke-linejoin:round;" version="1.1" viewBox="0 0 1024 1024" width="100%" xml:space="preserve" xmlns="http://www.w3.org/2000/svg" xmlns:xlink="http://www.w3.org/1999/xlink">
<defs>
<linearGradient gradientTransform="matrix(1 0 0 1 0 0)" gradientUnits="userSpaceOnUse" id="LinearGradient" x1="516.106" x2="516.106" y1="75.7523" y2="940.437">
<stop offset="0" stop-color="#04c79a"/>
<stop offset="1" stop-color="#00716f"/>
</linearGradient>
</defs>
<g id="レイヤー-1">
<path d="M330.888 68.0084L693.112 68.0084C734.659 68.0084 785.179 97.176 805.952 133.156L987.064 446.851C1007.84 482.831 1007.84 541.166 987.064 577.146L805.952 890.841C785.179 926.821 734.659 955.988 693.112 955.988L330.888 955.988C289.341 955.988 238.821 926.821 218.048 890.841L36.9358 577.146C16.1626 541.166 16.1626 482.831 36.9358 446.851L218.048 133.156C238.821 97.1759 289.341 68.0084 330.888 68.0084Z" fill="url(#LinearGradient)" fill-rule="nonzero" opacity="1" stroke="none"/>
<path d="M692.56 185.028C689.81 185.139 687.013 185.568 684.217 186.372L399.842 268.091C384.842 272.401 374.529 286.14 374.529 301.747L374.529 623.684C364.573 625.014 355.716 626.37 347.217 627.997C315.525 634.064 290.761 642.988 271.842 658.059C244.29 680.008 233.943 712.514 244.748 749.747C249.903 767.51 261.041 781.535 276.373 790.716C288.609 798.042 302.77 801.913 318.06 803.028C342.052 804.777 369.25 799.425 388.248 789.997C388.281 789.98 388.277 789.982 388.31 789.966C414.899 776.757 430.71 760.618 438.373 735.809C441.558 725.497 443.161 714.281 443.904 699.966C444.432 689.806 444.529 655.498 444.529 654.559L444.529 399.903L658.873 338.309L658.873 556.591C648.922 557.92 640.052 559.277 631.56 560.903C599.869 566.97 575.136 575.894 556.217 590.966C528.665 612.914 518.287 645.42 529.092 682.653C534.246 700.416 545.416 714.441 560.748 723.622C572.984 730.949 587.114 734.819 602.404 735.934C626.396 737.684 653.625 732.331 672.623 722.903C672.656 722.887 672.652 722.888 672.685 722.872C699.274 709.663 715.085 693.524 722.748 668.716C725.933 658.403 727.536 647.157 728.279 632.841C728.76 623.573 728.873 587.466 728.873 587.466L728.873 219.997C728.873 199.631 711.815 184.253 692.56 185.028Z" fill="#ffffff" fill-rule="nonzero" opacity="1" stroke="none"/>
</g>
</svg>
