<svg xmlns="http://www.w3.org/2000/svg" xml:space="preserve" stroke-miterlimit="10" style="fill-rule:nonzero;clip-rule:evenodd;stroke-linecap:round;stroke-linejoin:round" viewBox="0 0 830 158">
  <path d="M793.4 8a32.9 32.9 0 0 0-19 4.9 31.5 31.5 0 0 0-14.7 25.5c-.8 11.8 3.6 25.4 13.3 40 6 9.2 4.3 19.4-2.7 25a14.3 14.3 0 0 1-15.6 2 55.2 55.2 0 0 1-8.8 12.2 29.7 29.7 0 0 0 34-2.5 33.4 33.4 0 0 0 5.6-44.9c-8-12.1-11.4-22.6-10.8-30.8.4-6.4 3.1-11 7.6-13.8 8.7-5.4 20.8-2.1 26.6 8.2.6 1.1 2 1.6 3.2 1l9.2-4a2.5 2.5 0 0 0 1.2-3.4A35.3 35.3 0 0 0 793.4 8Zm-209.9 2a2.5 2.5 0 0 0-2.5 2.5v110.7c0 1.4 1.1 2.5 2.5 2.5h10c1.4 0 2.5-1 2.5-2.5V91.8l10.4-9.5 36.4 42.5c.5.5 1.2.8 1.9.8h13.1c2.2 0 3.3-2.5 2-4l-42.3-49.4 37-33.5c1.6-1.5.5-4.3-1.8-4.3H638c-.6 0-1.3.2-1.7.7L596 71.5V12.4c0-1.4-1.1-2.5-2.5-2.5h-10ZM51.8 32.5A41.6 41.6 0 0 0 23 44.2v-7.4c0-1.4-1.1-2.5-2.5-2.5h-10A2.5 2.5 0 0 0 8 36.8V123c0 1.4 1.1 2.5 2.5 2.5h10c1.4 0 2.5-1 2.5-2.5V80c0-18.4 12.7-32.5 28.8-32.5C69 47.5 80.6 60.9 80.6 80v43c0 1.4 1.1 2.5 2.5 2.5h10c1.4 0 2.5-1 2.5-2.5V80c0-27-17.8-47.5-43.8-47.5Zm104.3 0a47.5 47.5 0 1 0 0 95 47.5 47.5 0 0 0 0-95Zm153.8 0a47.5 47.5 0 1 0 32.5 82v8.6c0 1.4 1.1 2.5 2.5 2.5h10c1.4 0 2.5-1 2.5-2.5V80A47.5 47.5 0 0 0 310 32.5Zm106.3 0a41.6 41.6 0 0 0-28.8 11.7v-7.4c0-1.4-1.1-2.5-2.5-2.5h-10a2.5 2.5 0 0 0-2.5 2.5V123c0 1.4 1.1 2.5 2.5 2.5h10c1.4 0 2.5-1 2.5-2.5V80c0-18.4 12.7-32.5 28.8-32.5 17.2 0 28.8 13.4 28.8 32.5v43c0 1.4 1.1 2.5 2.5 2.5h10c1.4 0 2.5-1 2.5-2.5V80c0-27-17.8-47.5-43.8-47.5Zm104.3 0a47.5 47.5 0 1 0 0 95c9.2 0 16.5-1.5 23-4.8 5.9-2.9 11-7.4 16.3-13.1 1-1 .8-2.7-.2-3.6l-7.6-6.5c-1-1-2.6-.8-3.5.2a40.5 40.5 0 0 1-11.5 9.5 35.5 35.5 0 0 1-16.5 3.3 32.5 32.5 0 0 1-31.6-25h76.2c1.3 0 2.3-1 2.5-2.2a47.5 47.5 0 0 0-47-52.8Zm185.4 0a47.5 47.5 0 1 0 0 95 47.5 47.5 0 0 0 0-95Zm-448.1 0a42.1 42.1 0 0 0-30.3 15.9 50 50 0 0 0-11 31.6v43c0 1.4 1.2 2.5 2.6 2.5h10c1.4 0 2.5-1 2.5-2.5V80c0-8.6 2.6-16 7.2-21.8 4.8-6 11.6-10 19.3-10.6a2.5 2.5 0 0 0 2.3-2.5V35c0-1.5-1.2-2.6-2.6-2.5ZM156 47.6a32.5 32.5 0 1 1 0 65 32.5 32.5 0 0 1 0-65Zm153.8 0a32.5 32.5 0 1 1 0 65 32.5 32.5 0 0 1 0-65Zm210.6 0a32.5 32.5 0 0 1 31.5 25h-63a32.5 32.5 0 0 1 31.5-25Zm185.4 0a32.5 32.5 0 1 1 0 65 32.5 32.5 0 0 1 0-65Z"/>
</svg>
