<?xml version="1.0" encoding="UTF-8" standalone="no"?>
<!DOCTYPE svg PUBLIC "-//W3C//DTD SVG 1.1//EN" "http://www.w3.org/Graphics/SVG/1.1/DTD/svg11.dtd">
<!-- Created with Vectornator (http://vectornator.io/) -->
<svg height="210.0pt" stroke-miterlimit="10" style="fill-rule:nonzero;clip-rule:evenodd;stroke-linecap:round;stroke-linejoin:round;" version="1.1" viewBox="0 0 570 210" width="570.0pt" xml:space="preserve" xmlns="http://www.w3.org/2000/svg" xmlns:vectornator="http://vectornator.io" xmlns:xlink="http://www.w3.org/1999/xlink">
<defs>
<path d="M49.3659 140C49.3659 128.954 58.3207 120 69.3669 120C80.4132 120 89.368 128.954 89.368 140C89.368 151.046 80.4132 160 69.3669 160C58.3207 160 49.3659 151.046 49.3659 140Z" id="Fill"/>
<path d="M129.37 140C129.37 128.954 138.325 120 149.371 120C160.418 120 169.372 128.954 169.372 140C169.372 151.046 160.418 160 149.371 160C138.325 160 129.37 151.046 129.37 140Z" id="Fill_2"/>
<path d="M230.746 140C230.746 128.954 239.701 120 250.747 120C261.793 120 270.748 128.954 270.748 140C270.748 151.046 261.793 160 250.747 160C239.701 160 230.746 151.046 230.746 140Z" id="Fill_3"/>
</defs>
<path d="M0 0L570 0L570 210L0 210L0 0Z" fill="#ececec" fill-rule="nonzero" opacity="1" stroke="none" vectornator:artboardBackground="true"/>
<g id="レイヤー-1" vectornator:layerName="レイヤー 1">
<path d="M370 2.84217e-14L380 2.84217e-14L380 90L370 90L370 2.84217e-14Z" fill="#d1d1d1" fill-rule="nonzero" opacity="1" stroke="none" vectornator:layerName="長方形 6"/>
<path d="M70 0L70 90L0 90L0 210L70 210L370 210L570 210L570 90L370 90L370 0L70 0Z" fill="#ffffff" fill-rule="nonzero" opacity="1" stroke="none" vectornator:layerName="曲線 3"/>
<path d="M70 2.84217e-14L370 2.84217e-14L370 10L70 10L70 2.84217e-14Z" fill="#0087ff" fill-rule="nonzero" opacity="1" stroke="none" vectornator:layerName="長方形 5"/>
<path d="M120 49.8542C120 47.1733 122.173 45 124.854 45L315.146 45C317.827 45 320 47.1733 320 49.8542L320 50.1458C320 52.8267 317.827 55 315.146 55L124.854 55C122.173 55 120 52.8267 120 50.1458L120 49.8542Z" fill="#262626" fill-rule="nonzero" opacity="1" stroke="none" vectornator:layerName="長方形 9"/>
<path d="M219.375 100C213.852 100 209.375 104.477 209.375 110L209.375 170C209.375 175.523 213.852 180 219.375 180L570 180L570 100L219.375 100Z" fill="#ececec" fill-rule="nonzero" opacity="1" stroke="none" vectornator:layerName="曲線 1"/>
<g opacity="1" vectornator:layerName="楕円形 2">
<mask height="40" id="StrokeMask" maskUnits="userSpaceOnUse" width="40.0022" x="49.3659" y="120">
<rect fill="#000000" height="40" stroke="none" width="40.0022" x="49.3659" y="120"/>
<use fill="#ffffff" fill-rule="evenodd" stroke="none" xlink:href="#Fill"/>
</mask>
<use fill="none" mask="url(#StrokeMask)" stroke="#262626" stroke-linecap="butt" stroke-linejoin="round" stroke-width="10" xlink:href="#Fill"/>
</g>
<g opacity="1" vectornator:layerName="楕円形 4">
<mask height="40" id="StrokeMask_2" maskUnits="userSpaceOnUse" width="40.0022" x="129.37" y="120">
<rect fill="#000000" height="40" stroke="none" width="40.0022" x="129.37" y="120"/>
<use fill="#ffffff" fill-rule="evenodd" stroke="none" xlink:href="#Fill_2"/>
</mask>
<use fill="none" mask="url(#StrokeMask_2)" stroke="#262626" stroke-linecap="butt" stroke-linejoin="round" stroke-width="10" xlink:href="#Fill_2"/>
</g>
<g opacity="1" vectornator:layerName="楕円形 5">
<mask height="40" id="StrokeMask_3" maskUnits="userSpaceOnUse" width="40.0022" x="230.746" y="120">
<rect fill="#000000" height="40" stroke="none" width="40.0022" x="230.746" y="120"/>
<use fill="#ffffff" fill-rule="evenodd" stroke="none" xlink:href="#Fill_3"/>
</mask>
<use fill="none" mask="url(#StrokeMask_3)" stroke="#262626" stroke-linecap="butt" stroke-linejoin="round" stroke-width="10" xlink:href="#Fill_3"/>
</g>
<path d="M297.125 135C294.369 135 292.125 137.244 292.125 140C292.125 142.756 294.369 145 297.125 145L570 145L570 135L297.125 135Z" fill="#262626" fill-rule="nonzero" opacity="1" stroke="none" vectornator:layerName="曲線 2"/>
<path d="M424.844 45C422.163 45 420 47.1628 420 49.8438L420 50.1562C420 52.8372 422.163 55 424.844 55L570 55L570 45L424.844 45Z" fill="#929194" fill-rule="nonzero" opacity="1" stroke="none" vectornator:layerName="曲線 1"/>
</g>
</svg>
