<!-- may be protected as a trademark in some jurisdictions -->
<svg xmlns="http://www.w3.org/2000/svg" width="135" height="40" xml:space="preserve"><path fill="#A6A6A6" d="M130.197 40H4.729A4.74 4.74 0 0 1 0 35.267V4.726A4.733 4.733 0 0 1 4.729 0h125.468C132.803 0 135 2.12 135 4.726v30.541c0 2.605-2.197 4.733-4.803 4.733z"/><path d="M134.032 35.268a3.83 3.83 0 0 1-3.834 3.83H4.729a3.835 3.835 0 0 1-3.839-3.83V4.725A3.84 3.84 0 0 1 4.729.89h125.468a3.834 3.834 0 0 1 3.834 3.835l.001 30.543z"/><g fill="#FFF"><path d="M30.128 19.784c-.029-3.223 2.639-4.791 2.761-4.864-1.511-2.203-3.853-2.504-4.676-2.528-1.967-.207-3.875 1.177-4.877 1.177-1.022 0-2.565-1.157-4.228-1.123-2.14.033-4.142 1.272-5.24 3.196-2.266 3.923-.576 9.688 1.595 12.859 1.086 1.553 2.355 3.287 4.016 3.226 1.625-.067 2.232-1.036 4.193-1.036 1.943 0 2.513 1.036 4.207.997 1.744-.028 2.842-1.56 3.89-3.127 1.255-1.78 1.759-3.533 1.779-3.623-.041-.014-3.387-1.291-3.42-5.154zM26.928 10.306c.874-1.093 1.472-2.58 1.306-4.089-1.265.056-2.847.875-3.758 1.944-.806.942-1.526 2.486-1.34 3.938 1.421.106 2.88-.717 3.792-1.793z"/></g><g fill="#FFF"><path d="M53.645 31.504h-2.271l-1.244-3.909h-4.324l-1.185 3.909H42.41l4.284-13.308h2.646l4.305 13.308zm-3.89-5.549L48.63 22.48c-.119-.355-.342-1.191-.671-2.507h-.04a96.75 96.75 0 0 1-.632 2.507l-1.105 3.475h3.573zM64.662 26.588c0 1.632-.441 2.922-1.323 3.869-.79.843-1.771 1.264-2.942 1.264-1.264 0-2.172-.454-2.725-1.362h-.04v5.055H55.5V25.067c0-1.026-.027-2.079-.079-3.159h1.875l.119 1.521h.04c.711-1.146 1.79-1.718 3.238-1.718 1.132 0 2.077.447 2.833 1.342.758.896 1.136 2.074 1.136 3.535zm-2.172.078c0-.934-.21-1.704-.632-2.31-.461-.632-1.08-.948-1.856-.948-.526 0-1.004.176-1.431.523-.428.35-.708.807-.839 1.373-.066.264-.099.48-.099.65v1.6c0 .698.214 1.287.642 1.768s.984.721 1.668.721c.803 0 1.428-.31 1.875-.928.448-.619.672-1.435.672-2.449zM75.699 26.588c0 1.632-.441 2.922-1.324 3.869-.789.843-1.77 1.264-2.941 1.264-1.264 0-2.172-.454-2.724-1.362h-.04v5.055h-2.132V25.067c0-1.026-.027-2.079-.079-3.159h1.875l.119 1.521h.04c.71-1.146 1.789-1.718 3.238-1.718 1.131 0 2.076.447 2.834 1.342.755.896 1.134 2.074 1.134 3.535zm-2.172.078c0-.934-.211-1.704-.633-2.31-.461-.632-1.078-.948-1.855-.948a2.22 2.22 0 0 0-1.432.523c-.428.35-.707.807-.838 1.373-.065.264-.099.48-.099.65v1.6c0 .698.214 1.287.64 1.768.428.48.984.721 1.67.721.803 0 1.428-.31 1.875-.928.448-.619.672-1.435.672-2.449zM88.039 27.772c0 1.132-.393 2.053-1.182 2.764-.867.777-2.074 1.165-3.625 1.165-1.432 0-2.58-.276-3.449-.829l.494-1.777c.936.566 1.963.85 3.082.85.803 0 1.428-.182 1.877-.544.447-.362.67-.848.67-1.454 0-.54-.184-.995-.553-1.364-.367-.369-.98-.712-1.836-1.029-2.33-.869-3.494-2.142-3.494-3.816 0-1.094.408-1.991 1.225-2.689.814-.699 1.9-1.048 3.258-1.048 1.211 0 2.217.211 3.02.632l-.533 1.738c-.75-.408-1.598-.612-2.547-.612-.75 0-1.336.185-1.756.553a1.58 1.58 0 0 0-.533 1.205c0 .526.203.961.611 1.303.355.316 1 .658 1.936 1.027 1.145.461 1.986 1 2.527 1.618.539.616.808 1.387.808 2.307zM95.088 23.508h-2.35v4.659c0 1.185.414 1.777 1.244 1.777.381 0 .697-.033.947-.099l.059 1.619c-.42.157-.973.236-1.658.236-.842 0-1.5-.257-1.975-.77-.473-.514-.711-1.376-.711-2.587v-4.837h-1.4v-1.6h1.4v-1.757l2.094-.632v2.389h2.35v1.602zM105.691 26.627c0 1.475-.422 2.686-1.264 3.633-.883.975-2.055 1.461-3.516 1.461-1.408 0-2.529-.467-3.365-1.401s-1.254-2.113-1.254-3.534c0-1.487.43-2.705 1.293-3.652.861-.948 2.023-1.422 3.484-1.422 1.408 0 2.541.467 3.396 1.402.818.907 1.226 2.078 1.226 3.513zm-2.212.069c0-.885-.189-1.644-.572-2.277-.447-.766-1.086-1.148-1.914-1.148-.857 0-1.508.383-1.955 1.148-.383.634-.572 1.405-.572 2.317 0 .885.189 1.644.572 2.276.461.766 1.105 1.148 1.936 1.148.814 0 1.453-.39 1.914-1.168.393-.645.591-1.412.591-2.296zM112.621 23.783a3.702 3.702 0 0 0-.672-.059c-.75 0-1.33.283-1.738.85-.355.5-.533 1.132-.533 1.895v5.035h-2.131l.02-6.574c0-1.106-.027-2.113-.08-3.021h1.857l.078 1.836h.059c.225-.631.58-1.139 1.066-1.52a2.578 2.578 0 0 1 1.541-.514c.197 0 .375.014.533.039v2.033zM122.156 26.252a5 5 0 0 1-.078.967h-6.396c.025.948.334 1.673.928 2.173.539.447 1.236.671 2.092.671.947 0 1.811-.151 2.588-.454l.334 1.48c-.908.396-1.98.593-3.217.593-1.488 0-2.656-.438-3.506-1.313-.848-.875-1.273-2.05-1.273-3.524 0-1.447.395-2.652 1.186-3.613.828-1.026 1.947-1.539 3.355-1.539 1.383 0 2.43.513 3.141 1.539.563.815.846 1.823.846 3.02zm-2.033-.553c.014-.632-.125-1.178-.414-1.639-.369-.593-.936-.889-1.699-.889-.697 0-1.264.289-1.697.869-.355.461-.566 1.014-.631 1.658h4.441z"/></g><g fill="#FFF"><path d="M47.549 13.438v-3.03c0-.212-.026-.41-.077-.591a1.28 1.28 0 0 0-.241-.469 1.178 1.178 0 0 0-.414-.31 1.432 1.432 0 0 0-.597-.114c-.54 0-.951.178-1.232.532-.282.355-.424.851-.424 1.488 0 .352.041.647.123.887s.188.432.318.578c.131.146.274.25.433.314.157.063.315.096.473.096a1.8 1.8 0 0 0 .333-.027c.094-.018.189-.045.286-.082l.146.619c-.104.049-.225.088-.364.119s-.285.045-.437.045a2.1 2.1 0 0 1-.792-.155 1.809 1.809 0 0 1-.668-.469c-.191-.209-.345-.473-.46-.792s-.173-.696-.173-1.133c0-.382.05-.737.15-1.065.1-.328.25-.611.45-.851.2-.239.452-.429.755-.568a2.52 2.52 0 0 1 1.065-.209c.369 0 .688.058.955.173s.487.273.66.473.302.431.387.692.127.537.127.828v3.021h-.782zM52.126 13.438v-3.285c0-.819-.361-1.229-1.083-1.229-.291 0-.564.053-.819.159-.255.106-.47.232-.646.378l-.21-.592c.091-.079.202-.156.332-.232a3.065 3.065 0 0 1 .91-.336c.167-.034.335-.05.505-.05.595 0 1.042.168 1.343.505.3.337.45.814.45 1.434v3.249h-.782zM54.101 12.401c.219.134.451.243.696.328.246.085.515.127.806.127.461 0 .829-.158 1.105-.473s.414-.801.414-1.456c0-.691-.132-1.198-.396-1.52s-.639-.482-1.124-.482c-.321 0-.598.041-.828.123-.23.082-.461.199-.691.35L53.9 8.77c.243-.158.518-.283.824-.377.306-.094.62-.141.941-.141.734 0 1.291.229 1.67.687s.569 1.097.569 1.916c0 .874-.202 1.538-.605 1.993-.403.455-.976.682-1.716.682-.346 0-.652-.042-.919-.127a2.938 2.938 0 0 1-.755-.364l.192-.638zM59.924 11.619c0 .431.085.745.255.942.17.197.446.295.828.295.151 0 .302-.027.45-.082a1.76 1.76 0 0 0 .424-.228 1.93 1.93 0 0 0 .609-.729V8.342h.782v5.096h-.736l-.046-.746a2.024 2.024 0 0 1-.655.609c-.261.152-.598.228-1.01.228-.559 0-.979-.162-1.261-.487-.282-.324-.423-.796-.423-1.415V8.342h.782v3.277zM63.182 7.105c-.133 0-.233.028-.3.083-.066.056-.101.151-.101.287v.194h-.864v-.3c0-.291.084-.517.25-.678.167-.161.421-.241.76-.241h.883v.655h-.628zM65.32 13.438v-5.59c0-.279-.044-.521-.132-.728s-.189-.38-.305-.522a1.635 1.635 0 0 0-.582-.468l-.018-.164c.097-.17.22-.32.368-.45s.315-.24.501-.328c.185-.088.385-.153.601-.195.215-.042.438-.063.669-.063.369 0 .667.022.892.067s.428.103.609.175l-.118.686c-.176-.097-.381-.167-.614-.209s-.466-.064-.696-.064a2.99 2.99 0 0 0-.796.1c-.24.067-.414.17-.523.31.304.164.534.42.691.769.158.349.236.732.236 1.151v5.524h-.783zM71.018 13.438l-.674-2.312c-.17-.558-.479-.843-.928-.855l-1.138.938v2.229h-.782V8.342h.782v2.002l2.421-2.002h1.056l-1.784 1.475c.328.048.581.185.76.409.179.225.32.504.424.837l.7 2.375h-.837zM76.067 13.438v-2.457h-1.273c-.432 0-.771.083-1.02.25-.249.167-.373.423-.373.769 0 .297.088.518.264.66s.397.214.664.214c.128 0 .263-.014.405-.041s.269-.065.378-.114l.127.646a3.137 3.137 0 0 1-.992.163c-.23 0-.444-.032-.641-.095-.197-.064-.369-.158-.515-.282s-.261-.282-.346-.473a1.633 1.633 0 0 1-.128-.669c0-.534.188-.951.564-1.251s.943-.45 1.702-.45h1.183v-.118c0-.4-.094-.714-.282-.942-.188-.228-.521-.341-1.001-.341-.346 0-.667.052-.965.155-.297.103-.555.23-.773.382l-.254-.555c.091-.079.207-.156.35-.232.143-.076.304-.144.482-.205s.372-.109.578-.146c.206-.037.422-.055.646-.055.655 0 1.153.174 1.493.523.34.349.51.817.51 1.406v3.258h-.783zM81.855 13.438v-3.03c0-.212-.026-.41-.077-.591a1.28 1.28 0 0 0-.241-.469 1.178 1.178 0 0 0-.414-.31 1.432 1.432 0 0 0-.597-.114c-.54 0-.951.178-1.232.532-.282.355-.424.851-.424 1.488 0 .352.041.647.123.887s.188.432.318.578c.131.146.274.25.433.314.157.063.315.096.473.096a1.8 1.8 0 0 0 .333-.027c.094-.018.189-.045.286-.082l.146.619c-.104.049-.225.088-.364.119s-.285.045-.437.045a2.1 2.1 0 0 1-.792-.155 1.809 1.809 0 0 1-.668-.469c-.191-.209-.345-.473-.46-.792s-.173-.696-.173-1.133c0-.382.05-.737.15-1.065.1-.328.25-.611.45-.851.2-.239.452-.429.755-.568a2.52 2.52 0 0 1 1.065-.209c.369 0 .688.058.955.173s.487.273.66.473.302.431.387.692.127.537.127.828v3.021h-.782zM84.385 13.438v-6.07c0-.37.062-.691.187-.964s.296-.507.515-.701h-2.248v-.655h3.249v.546a1.514 1.514 0 0 0-.679.597c-.16.264-.241.597-.241.998v6.25h-.783zM90.218 13.438v-3.03c0-.212-.026-.41-.077-.591a1.28 1.28 0 0 0-.241-.469 1.178 1.178 0 0 0-.414-.31 1.432 1.432 0 0 0-.597-.114c-.54 0-.951.178-1.232.532-.282.355-.424.851-.424 1.488 0 .352.041.647.123.887s.188.432.318.578c.131.146.274.25.433.314.157.063.315.096.473.096a1.8 1.8 0 0 0 .333-.027c.094-.018.189-.045.286-.082l.146.619c-.104.049-.225.088-.364.119s-.285.045-.437.045a2.1 2.1 0 0 1-.792-.155 1.809 1.809 0 0 1-.668-.469c-.191-.209-.345-.473-.46-.792s-.173-.696-.173-1.133c0-.382.05-.737.15-1.065.1-.328.25-.611.45-.851.2-.239.452-.429.755-.568a2.52 2.52 0 0 1 1.065-.209c.369 0 .688.058.955.173s.487.273.66.473.302.431.387.692.127.537.127.828v3.021h-.782zM89.672 7.651a.39.39 0 0 1-.392-.401v-.254a.283.283 0 0 0-.026-.141c-.019-.027-.064-.041-.137-.041h-.482v-.637h.746c.17 0 .305.036.405.109.1.073.149.188.149.346v.228c0 .048.011.086.032.114.022.026.066.04.133.04h1.229v.637h-1.657zM95.878 10.171c0-.437-.082-.753-.245-.951a.801.801 0 0 0-.646-.296c-.194 0-.378.029-.551.086s-.335.134-.486.228a2.165 2.165 0 0 0-.71.724v3.476h-.782V8.342h.736l.046.747a2.542 2.542 0 0 1 1.228-.765c.176-.048.36-.073.555-.073.268 0 .502.045.705.137.204.091.375.221.515.391s.244.372.313.605c.07.234.105.496.105.787v3.267h-.783v-3.267zM93.103 7.651v-.637h3.166v-.837h.737v1.474h-3.903zM96.614 5.731v-1.22h.737v1.22h-.737z"/></g></svg>
