<!-- This Source Code Form is subject to the terms of the Mozilla Public
   - License, v. 2.0. If a copy of the MPL was not distributed with this
   - file, You can obtain one at http://mozilla.org/MPL/2.0/. -->
<svg width="223" height="190" viewBox="0 0 223 190" fill="none" xmlns="http://www.w3.org/2000/svg">
<g opacity="0.7">
<path d="M68.5967 100.461C92.4106 100.461 98.623 125.09 127.096 125.09C153.499 125.09 173.518 92.1083 168.512 83.2681C121.402 138.565 114.671 50.3314 52.776 64.5812C5.21166 77.1428 30.8049 135.313 54.6191 145.071C35.4643 128.807 42.712 100.461 68.5967 100.461Z" fill="url(#paint0_radial_2440_46367)"/>
<path fill-rule="evenodd" clip-rule="evenodd" d="M40.3116 132.914C30.5066 113.845 29.3939 90.9461 57.6536 83.376C74.9878 79.4944 87.7636 90.6468 100.188 101.493C118.092 117.121 135.266 132.114 164.299 100.567C164.306 100.58 164.312 100.594 164.319 100.607C169.04 93.0728 170.989 85.7731 169.004 82.2681C143.468 112.242 129.796 100.044 112.772 84.8552C98.3892 72.0228 81.6134 57.0554 53.2681 63.5812C16.7912 73.5903 21.6499 112.556 40.3116 132.914Z" fill="url(#paint1_radial_2440_46367)"/>
<path fill-rule="evenodd" clip-rule="evenodd" d="M38.9555 131.946C20.8066 111.345 18.9847 73.4338 52.782 63.5812C81.1272 57.0554 97.9031 72.0228 112.286 84.8552C129.31 100.044 142.982 112.242 168.518 82.2681C169.673 84.3087 169.495 87.6354 168.213 91.5458C142.041 123.78 123.512 108.262 104.065 91.9765C90.3359 80.4786 76.1493 68.598 58.4934 72.8684C23.329 81.3743 26.3323 110.866 38.9555 131.946Z" fill="url(#paint2_radial_2440_46367)"/>
</g>
<path d="M43.8709 37C46.9108 36.9987 49.8963 37.7429 52.5207 39.1563C55.145 40.5697 57.3137 42.6012 58.8038 45.0423C58.8122 45.056 58.8244 45.0675 58.8391 45.0755C58.8539 45.0836 58.8707 45.0879 58.8878 45.088C59.0369 45.088 59.1898 45.088 59.3427 45.088C62.1086 45.0889 64.7874 45.98 66.9159 47.6072C69.0445 49.2345 70.489 51.4957 71 54H13C13.0185 52.4825 13.5141 51.0025 14.4269 49.7392C15.3397 48.4759 16.6304 47.4835 18.1429 46.8821C19.6553 46.2807 21.3245 46.0962 22.9485 46.3508C24.5724 46.6055 26.0814 47.2884 27.2927 48.3169C27.3109 48.3311 27.3338 48.3392 27.3576 48.3398H27.3844C27.3998 48.3357 27.4138 48.328 27.4252 48.3175C27.4365 48.3071 27.4449 48.2941 27.4494 48.2799C28.506 45.0239 30.6746 42.1688 33.6331 40.1388C36.5916 38.1089 40.182 37.0124 43.8709 37.0123" fill="#D9BFFF"/>
<path d="M67.2322 132.282C67.3284 132.282 67.4208 132.244 67.4891 132.176C67.5574 132.108 67.596 132.015 67.5966 131.919V128.618C67.6004 128.568 67.5939 128.517 67.5774 128.47C67.5609 128.422 67.5348 128.379 67.5006 128.342C67.4665 128.305 67.4252 128.275 67.3791 128.255C67.3331 128.235 67.2835 128.225 67.2332 128.225C67.183 128.225 67.1333 128.235 67.0873 128.255C67.0413 128.275 67 128.305 66.9658 128.342C66.9317 128.379 66.9056 128.422 66.8891 128.47C66.8726 128.517 66.866 128.568 66.8699 128.618V131.919C66.8699 132.015 66.9081 132.108 66.976 132.176C67.0439 132.244 67.1361 132.282 67.2322 132.282V132.282Z" fill="white"/>
<path d="M67.2314 132.281V132.065C67.2705 132.065 67.308 132.049 67.3358 132.022C67.3637 131.994 67.3796 131.957 67.3802 131.918V128.617C67.3796 128.577 67.3637 128.54 67.336 128.512C67.3082 128.484 67.2707 128.468 67.2314 128.468C67.2119 128.468 67.1927 128.471 67.1748 128.479C67.1568 128.486 67.1406 128.497 67.1269 128.511C67.1133 128.525 67.1025 128.542 67.0953 128.56C67.088 128.578 67.0845 128.597 67.0847 128.617V131.918C67.0845 131.937 67.088 131.956 67.0953 131.974C67.1026 131.992 67.1134 132.009 67.127 132.022C67.1407 132.036 67.157 132.047 67.1749 132.054C67.1928 132.061 67.212 132.065 67.2314 132.065V132.497C67.0781 132.497 66.9311 132.436 66.8227 132.327C66.7144 132.219 66.6535 132.071 66.6535 131.918V128.617C66.6487 128.537 66.6601 128.458 66.687 128.384C66.7139 128.309 66.7557 128.241 66.81 128.183C66.8642 128.125 66.9297 128.079 67.0023 128.048C67.075 128.016 67.1533 128 67.2325 128C67.3116 128 67.3899 128.016 67.4626 128.048C67.5352 128.079 67.6007 128.125 67.6549 128.183C67.7092 128.241 67.751 128.309 67.7779 128.384C67.8048 128.458 67.8162 128.537 67.8114 128.617V131.918C67.8103 132.071 67.7487 132.218 67.6401 132.327C67.5316 132.435 67.3847 132.496 67.2314 132.497V132.281Z" fill="white"/>
<path d="M65.222 130.27C65.222 130.318 65.2313 130.365 65.2496 130.409C65.2678 130.453 65.2944 130.493 65.3281 130.527C65.3617 130.561 65.4017 130.588 65.4456 130.606C65.4896 130.624 65.5367 130.633 65.5842 130.633H68.8791C68.9291 130.637 68.9795 130.631 69.0269 130.614C69.0743 130.598 69.1178 130.572 69.1547 130.537C69.1915 130.503 69.2209 130.462 69.241 130.416C69.2611 130.37 69.2715 130.32 69.2715 130.269C69.2715 130.219 69.2611 130.169 69.241 130.123C69.2209 130.077 69.1915 130.036 69.1547 130.002C69.1178 129.967 69.0743 129.941 69.0269 129.925C68.9795 129.908 68.9291 129.902 68.8791 129.905H65.5778C65.4826 129.908 65.3921 129.947 65.3256 130.015C65.2592 130.084 65.222 130.175 65.222 130.27Z" fill="white"/>
<path d="M65.2217 130.27H65.4373C65.437 130.289 65.4406 130.309 65.4479 130.327C65.4551 130.344 65.4659 130.361 65.4796 130.374C65.4933 130.388 65.5095 130.399 65.5275 130.406C65.5454 130.414 65.5646 130.417 65.5839 130.417H68.8787C68.8982 130.417 68.9175 130.414 68.9355 130.406C68.9536 130.399 68.97 130.388 68.9838 130.375C68.9977 130.361 69.0087 130.345 69.0162 130.327C69.0237 130.309 69.0275 130.289 69.0275 130.27C69.0275 130.23 69.0119 130.192 68.984 130.165C68.956 130.137 68.9182 130.121 68.8787 130.121H65.5774C65.558 130.121 65.5388 130.125 65.5208 130.132C65.5029 130.14 65.4866 130.151 65.473 130.165C65.4594 130.179 65.4486 130.195 65.4414 130.213C65.4341 130.231 65.4305 130.25 65.4308 130.27H64.9996C64.999 130.194 65.0135 130.118 65.0423 130.047C65.0711 129.976 65.1136 129.912 65.1673 129.858C65.221 129.804 65.2849 129.76 65.3553 129.731C65.4257 129.702 65.5012 129.687 65.5774 129.687H68.8787C68.9577 129.682 69.0369 129.693 69.1113 129.72C69.1858 129.747 69.2539 129.789 69.3116 129.843C69.3692 129.898 69.4151 129.963 69.4465 130.036C69.4779 130.109 69.4941 130.187 69.4941 130.267C69.4941 130.346 69.4779 130.424 69.4465 130.497C69.4151 130.57 69.3692 130.636 69.3116 130.69C69.2539 130.744 69.1858 130.786 69.1113 130.813C69.0369 130.84 68.9577 130.852 68.8787 130.847H65.5774C65.4242 130.847 65.2772 130.786 65.1688 130.677C65.0604 130.569 64.9996 130.421 64.9996 130.268L65.2217 130.27Z" fill="white"/>
<path opacity="0.7" d="M44 150.105C44 146.792 46.6863 144.105 50 144.105H174C177.314 144.105 180 146.792 180 150.105V150.105C180 153.419 177.314 156.105 174 156.105H50C46.6863 156.105 44 153.419 44 150.105V150.105Z" fill="#9059FF"/>
<g filter="url(#filter0_d_2440_46367)">
<path d="M92.9277 149C96.2414 149 98.9277 146.314 98.9277 143C98.9277 139.686 96.2414 137 92.9277 137C89.614 137 86.9277 139.686 86.9277 143C86.9277 146.314 89.614 149 92.9277 149Z" fill="#D9BFFF"/>
</g>
<g filter="url(#filter1_d_2440_46367)">
<path d="M113.776 149.1C117.09 149.1 119.776 146.413 119.776 143.1C119.776 139.786 117.09 137.1 113.776 137.1C110.463 137.1 107.776 139.786 107.776 143.1C107.776 146.413 110.463 149.1 113.776 149.1Z" fill="#9059FF"/>
</g>
<g filter="url(#filter2_d_2440_46367)">
<path d="M134.7 149.1C138.014 149.1 140.7 146.413 140.7 143.1C140.7 139.786 138.014 137.1 134.7 137.1C131.386 137.1 128.7 139.786 128.7 143.1C128.7 146.413 131.386 149.1 134.7 149.1Z" fill="#D9BFFF"/>
</g>
<g filter="url(#filter3_d_2440_46367)">
<path d="M155.625 149.1C158.939 149.1 161.625 146.413 161.625 143.1C161.625 139.786 158.939 137.1 155.625 137.1C152.311 137.1 149.625 139.786 149.625 143.1C149.625 146.413 152.311 149.1 155.625 149.1Z" fill="#9059FF"/>
</g>
<g filter="url(#filter4_d_2440_46367)">
<path d="M76.8934 137.943C76.8934 144.827 71.3125 150.408 64.4281 150.408C57.5438 150.408 51.9629 144.827 51.9629 137.943C51.9629 131.058 57.5438 125.478 64.4281 125.478C71.3125 125.478 76.8934 131.058 76.8934 137.943Z" fill="#592ACB" stroke="white"/>
<path d="M68.7879 142.288C66.2695 142.288 66.2289 140.744 64.7666 140.744C63.3043 140.744 63.02 142.288 60.7453 142.288C58.8768 142.288 57.4957 140.216 57.4551 136.682C57.4551 134.448 58.0238 133.758 60.4203 133.758C62.8169 133.758 63.5886 134.936 64.7666 134.936C65.9446 134.936 66.6757 133.758 69.1129 133.758C71.5501 133.758 72.1187 134.448 72.0781 136.682C72.0375 140.216 70.6564 142.288 68.7879 142.288ZM61.6389 136.479C60.136 136.561 59.5267 137.576 59.5267 137.82C59.5267 138.063 60.5015 138.795 61.4764 138.795C62.0451 138.795 62.695 138.632 63.1012 138.429C63.4261 138.267 63.548 137.901 63.4261 137.576C63.1418 136.804 62.4107 136.357 61.6389 136.479ZM67.8943 136.479C67.1225 136.357 66.3914 136.845 66.0664 137.617C65.9446 137.942 66.0664 138.307 66.3914 138.47C66.7976 138.673 67.4475 138.835 68.0162 138.835C68.991 138.835 69.9659 138.104 69.9659 137.86C70.0065 137.576 69.3972 136.561 67.8943 136.479Z" fill="white"/>
</g>
<g filter="url(#filter5_d_2440_46367)">
<path d="M50 49.8127C50 45.9984 53.0921 42.9062 56.9065 42.9062H163.094C166.908 42.9062 170 45.9984 170 49.8127V54.9926H50V49.8127Z" fill="#A67EFA"/>
<rect x="50.4317" y="36.4317" width="119.137" height="70.7914" rx="6.47482" fill="#25003E" stroke="white" stroke-width="0.863309"/>
<path d="M50 42.9065C50 39.0921 53.0921 36 56.9065 36H163.094C166.908 36 170 39.0921 170 42.9065V48.0863H50V42.9065Z" fill="#6F4AE7"/>
<path d="M56.9065 36.4317H163.094C166.669 36.4317 169.568 39.3305 169.568 42.9065V47.6547H50.4317V42.9065C50.4317 39.3305 53.3305 36.4317 56.9065 36.4317Z" stroke="white" stroke-width="0.863309"/>
<rect opacity="0.4" x="81" y="41" width="57" height="2" rx="1" fill="white"/>
<g opacity="0.5">
<rect x="99" y="72.7852" width="21.7561" height="10.8781" rx="1.81301" fill="#6F4AE7"/>
<rect x="99" y="70.0659" width="21.7561" height="16.3171" rx="1.81301" fill="#6F4AE7"/>
<rect x="103.986" y="62.3598" width="11.7846" height="20.8496" rx="5.89228" stroke="#6F4AE7" stroke-width="2.71951"/>
<path fill-rule="evenodd" clip-rule="evenodd" d="M109.974 82.9467C112.556 82.9467 114.649 80.8533 114.649 78.271C114.649 75.6886 112.556 73.5952 109.974 73.5952C107.391 73.5952 105.298 75.6886 105.298 78.271C105.298 80.8533 107.391 82.9467 109.974 82.9467ZM111.532 77.2313C111.532 77.7487 111.28 78.2073 110.892 78.4908L111.382 80.6809C111.433 80.9101 111.259 81.1277 111.024 81.1277H108.923C108.688 81.1277 108.513 80.9101 108.565 80.6809L109.055 78.4908C108.667 78.2073 108.415 77.7487 108.415 77.2313C108.415 76.3705 109.113 75.6727 109.973 75.6727C110.834 75.6727 111.532 76.3705 111.532 77.2313Z" fill="#D9BFFF"/>
</g>
</g>
<path d="M168.081 90C164.15 89.9981 160.289 91.0488 156.896 93.0442C153.502 95.0396 150.698 97.9076 148.771 101.354C148.76 101.373 148.744 101.389 148.725 101.401C148.706 101.412 148.684 101.418 148.662 101.418C148.47 101.418 148.272 101.418 148.074 101.418C144.497 101.42 141.034 102.678 138.281 104.975C135.529 107.272 133.661 110.464 133 114H208C207.976 111.858 207.335 109.768 206.155 107.985C204.975 106.201 203.305 104.8 201.35 103.951C199.394 103.102 197.236 102.842 195.136 103.201C193.036 103.561 191.084 104.525 189.518 105.977C189.495 105.997 189.465 106.008 189.434 106.009H189.4C189.38 106.003 189.361 105.992 189.347 105.978C189.332 105.963 189.321 105.945 189.315 105.925C187.949 101.328 185.145 97.2971 181.319 94.4313C177.494 91.5655 172.851 90.0175 168.081 90.0174" fill="#D9BFFF"/>
<path d="M36.9974 105C37.2088 105 37.4116 104.925 37.5615 104.791C37.7114 104.657 37.7962 104.475 37.7974 104.284V97.7753C37.8059 97.6764 37.7916 97.5769 37.7553 97.4832C37.7191 97.3896 37.6617 97.3036 37.5868 97.2308C37.5119 97.158 37.4211 97.0999 37.3201 97.0602C37.2191 97.0205 37.11 97 36.9998 97C36.8896 97 36.7805 97.0205 36.6795 97.0602C36.5785 97.0999 36.4877 97.158 36.4128 97.2308C36.3379 97.3036 36.2805 97.3896 36.2443 97.4832C36.208 97.5769 36.1937 97.6764 36.2022 97.7753V104.284C36.2022 104.474 36.286 104.656 36.4351 104.79C36.5842 104.925 36.7865 105 36.9974 105V105Z" fill="#D9BFFF"/>
<path d="M36.9983 104.616V104.231C37.0522 104.231 37.104 104.204 37.1424 104.155C37.1808 104.106 37.2027 104.04 37.2035 103.97V98.0969C37.2028 98.0269 37.1809 97.96 37.1426 97.9105C37.1043 97.861 37.0525 97.8327 36.9983 97.8317C36.9715 97.8317 36.945 97.8386 36.9202 97.852C36.8955 97.8654 36.8731 97.885 36.8543 97.9096C36.8354 97.9343 36.8206 97.9636 36.8106 97.9957C36.8006 98.0279 36.7957 98.0623 36.7961 98.0969V103.97C36.7957 104.004 36.8006 104.039 36.8107 104.071C36.8207 104.102 36.8356 104.132 36.8544 104.156C36.8733 104.18 36.8957 104.199 36.9205 104.212C36.9452 104.225 36.9716 104.232 36.9983 104.231V105C36.7869 105 36.5842 104.891 36.4347 104.698C36.2853 104.505 36.2013 104.243 36.2013 103.97V98.0969C36.1946 97.9561 36.2104 97.815 36.2475 97.6823C36.2846 97.5497 36.3423 97.4282 36.4171 97.3255C36.4919 97.2227 36.5822 97.1408 36.6824 97.0848C36.7826 97.0289 36.8906 97 36.9998 97C37.109 97 37.217 97.0289 37.3172 97.0848C37.4174 97.1408 37.5077 97.2227 37.5825 97.3255C37.6573 97.4282 37.715 97.5497 37.7521 97.6823C37.7893 97.815 37.805 97.9561 37.7983 98.0969V103.97C37.7968 104.243 37.7119 104.505 37.5621 104.697C37.4123 104.89 37.2097 104.999 36.9983 105V104.616Z" fill="#D9BFFF"/>
<path d="M33.3953 101.04C33.3953 101.125 33.412 101.209 33.4444 101.287C33.4768 101.366 33.5242 101.437 33.5841 101.497C33.6439 101.557 33.715 101.604 33.7932 101.637C33.8714 101.669 33.9552 101.686 34.0398 101.686H39.9015C39.9905 101.693 40.0801 101.681 40.1644 101.652C40.2488 101.622 40.3262 101.576 40.3918 101.515C40.4573 101.454 40.5096 101.38 40.5454 101.298C40.5811 101.216 40.5996 101.128 40.5996 101.038C40.5996 100.949 40.5811 100.86 40.5454 100.778C40.5096 100.696 40.4573 100.622 40.3918 100.562C40.3262 100.501 40.2488 100.454 40.1644 100.425C40.0801 100.395 39.9905 100.384 39.9015 100.391H34.0283C33.859 100.395 33.698 100.465 33.5798 100.586C33.4615 100.708 33.3953 100.871 33.3953 101.04Z" fill="#D9BFFF"/>
<path d="M33.3953 101.005H33.7791C33.7786 101.031 33.785 101.058 33.798 101.083C33.8109 101.107 33.8301 101.13 33.8544 101.149C33.8788 101.167 33.9078 101.182 33.9396 101.192C33.9715 101.202 34.0057 101.207 34.0401 101.207H39.9046C39.9392 101.207 39.9736 101.202 40.0057 101.192C40.0378 101.182 40.067 101.168 40.0917 101.149C40.1163 101.13 40.1359 101.107 40.1492 101.083C40.1626 101.058 40.1695 101.031 40.1695 101.005C40.1695 100.95 40.1416 100.898 40.0919 100.86C40.0422 100.821 39.9749 100.799 39.9046 100.799H34.0286C33.994 100.799 33.9598 100.805 33.9278 100.815C33.8959 100.825 33.867 100.841 33.8427 100.86C33.8184 100.879 33.7993 100.901 33.7864 100.926C33.7735 100.951 33.7671 100.978 33.7676 101.005H33C32.999 100.899 33.0249 100.795 33.0761 100.698C33.1273 100.6 33.203 100.512 33.2986 100.437C33.3942 100.363 33.5079 100.303 33.6332 100.263C33.7585 100.222 33.8929 100.202 34.0286 100.202H39.9046C40.0453 100.195 40.1862 100.211 40.3186 100.248C40.4511 100.285 40.5724 100.343 40.675 100.418C40.7776 100.492 40.8594 100.583 40.9153 100.683C40.9712 100.783 41 100.891 41 101C41 101.109 40.9712 101.217 40.9153 101.318C40.8594 101.418 40.7776 101.508 40.675 101.583C40.5724 101.658 40.4511 101.715 40.3186 101.753C40.1862 101.79 40.0453 101.805 39.9046 101.799H34.0286C33.7558 101.799 33.4942 101.715 33.3013 101.565C33.1084 101.416 33 101.213 33 101.002L33.3953 101.005Z" fill="#D9BFFF"/>
<path d="M19.4981 107C19.6831 107 19.8605 106.934 19.9916 106.817C20.1228 106.699 20.197 106.54 20.1981 106.374V100.678C20.2055 100.592 20.193 100.505 20.1613 100.423C20.1296 100.341 20.0794 100.266 20.0138 100.202C19.9483 100.138 19.8689 100.087 19.7805 100.053C19.6921 100.018 19.5967 100 19.5002 100C19.4037 100 19.3083 100.018 19.2199 100.053C19.1315 100.087 19.0521 100.138 18.9865 100.202C18.921 100.266 18.8708 100.341 18.8391 100.423C18.8074 100.505 18.7949 100.592 18.8023 100.678V106.374C18.8023 106.54 18.8756 106.699 19.0061 106.817C19.1366 106.934 19.3136 107 19.4981 107V107Z" fill="#D9BFFF"/>
<path d="M19.4989 106.664V106.327C19.5461 106.327 19.5913 106.303 19.6249 106.261C19.6585 106.218 19.6778 106.16 19.6784 106.099V100.96C19.6778 100.899 19.6586 100.84 19.6251 100.797C19.5916 100.753 19.5463 100.729 19.4989 100.728C19.4754 100.728 19.4522 100.734 19.4306 100.745C19.4089 100.757 19.3893 100.774 19.3728 100.796C19.3564 100.818 19.3434 100.843 19.3347 100.871C19.3259 100.899 19.3216 100.93 19.3219 100.96V106.099C19.3216 106.129 19.3259 106.159 19.3347 106.187C19.3435 106.215 19.3565 106.24 19.373 106.261C19.3895 106.283 19.4091 106.3 19.4308 106.311C19.4524 106.322 19.4756 106.328 19.4989 106.327V107C19.3139 107 19.1365 106.905 19.0058 106.736C18.875 106.567 18.8015 106.338 18.8015 106.099V100.96C18.7957 100.837 18.8094 100.713 18.8419 100.597C18.8744 100.481 18.9249 100.375 18.9904 100.285C19.0558 100.195 19.1348 100.123 19.2225 100.074C19.3102 100.025 19.4047 100 19.5002 100C19.5957 100 19.6902 100.025 19.7779 100.074C19.8656 100.123 19.9446 100.195 20.01 100.285C20.0755 100.375 20.126 100.481 20.1585 100.597C20.191 100.713 20.2047 100.837 20.1989 100.96V106.099C20.1975 106.338 20.1233 106.566 19.9922 106.735C19.8611 106.904 19.6839 106.999 19.4989 107V106.664Z" fill="#D9BFFF"/>
<path d="M16.3466 103.535C16.3466 103.609 16.3612 103.683 16.3896 103.751C16.4179 103.82 16.4594 103.882 16.5118 103.934C16.5642 103.987 16.6263 104.029 16.6948 104.057C16.7632 104.085 16.8365 104.1 16.9106 104.1H22.0395C22.1175 104.106 22.1958 104.096 22.2696 104.07C22.3434 104.044 22.4112 104.003 22.4685 103.95C22.5259 103.897 22.5716 103.833 22.6029 103.761C22.6342 103.689 22.6504 103.612 22.6504 103.533C22.6504 103.455 22.6342 103.377 22.6029 103.306C22.5716 103.234 22.5259 103.169 22.4685 103.116C22.4112 103.063 22.3434 103.022 22.2696 102.996C22.1958 102.971 22.1175 102.961 22.0395 102.967H16.9005C16.7524 102.97 16.6115 103.031 16.508 103.138C16.4045 103.244 16.3466 103.386 16.3466 103.535Z" fill="#D9BFFF"/>
<path d="M16.3459 103.504H16.6818C16.6813 103.527 16.6869 103.55 16.6982 103.572C16.7095 103.593 16.7263 103.613 16.7476 103.63C16.7689 103.646 16.7943 103.659 16.8222 103.668C16.8501 103.677 16.88 103.681 16.9101 103.681H22.0416C22.0718 103.681 22.1019 103.677 22.13 103.668C22.1581 103.659 22.1837 103.646 22.2052 103.63C22.2268 103.613 22.2439 103.594 22.2556 103.572C22.2673 103.55 22.2733 103.527 22.2733 103.504C22.2733 103.456 22.2489 103.41 22.2054 103.377C22.162 103.343 22.103 103.324 22.0416 103.324H16.9C16.8698 103.324 16.8398 103.329 16.8119 103.338C16.7839 103.347 16.7586 103.36 16.7374 103.377C16.7161 103.394 16.6994 103.413 16.6881 103.435C16.6768 103.457 16.6712 103.48 16.6717 103.504H16C15.9991 103.412 16.0218 103.32 16.0666 103.235C16.1114 103.15 16.1776 103.073 16.2612 103.007C16.3449 102.942 16.4444 102.89 16.5541 102.855C16.6637 102.819 16.7813 102.801 16.9 102.801H22.0416C22.1646 102.795 22.2879 102.809 22.4038 102.842C22.5197 102.874 22.6259 102.925 22.7156 102.99C22.8054 103.055 22.877 103.134 22.9259 103.222C22.9748 103.31 23 103.404 23 103.5C23 103.595 22.9748 103.69 22.9259 103.778C22.877 103.865 22.8054 103.944 22.7156 104.01C22.6259 104.075 22.5197 104.126 22.4038 104.158C22.2879 104.191 22.1646 104.204 22.0416 104.199H16.9C16.6613 104.199 16.4324 104.125 16.2636 103.994C16.0948 103.863 16 103.686 16 103.501L16.3459 103.504Z" fill="#D9BFFF"/>
<path d="M29.997 122C30.2612 122 30.5147 121.887 30.7021 121.686C30.8894 121.485 30.9955 121.212 30.997 120.927V111.163C31.0076 111.015 30.9897 110.865 30.9444 110.725C30.8991 110.584 30.8274 110.455 30.7338 110.346C30.6402 110.237 30.5267 110.15 30.4004 110.09C30.2741 110.031 30.1378 110 30 110C29.8622 110 29.7259 110.031 29.5996 110.09C29.4733 110.15 29.3598 110.237 29.2662 110.346C29.1726 110.455 29.1009 110.584 29.0556 110.725C29.0103 110.865 28.9924 111.015 29.003 111.163V120.927C29.003 121.211 29.1077 121.484 29.2941 121.686C29.4805 121.887 29.7334 122 29.997 122V122Z" fill="#D9BFFF"/>
<path d="M29.9981 121.423V120.847C30.0655 120.847 30.1302 120.806 30.1782 120.732C30.2262 120.659 30.2537 120.559 30.2546 120.455V111.645C30.2537 111.54 30.2264 111.44 30.1785 111.366C30.1306 111.291 30.0659 111.249 29.9981 111.248C29.9646 111.248 29.9314 111.258 29.9005 111.278C29.8696 111.298 29.8416 111.327 29.8181 111.364C29.7945 111.401 29.776 111.445 29.7635 111.494C29.751 111.542 29.7449 111.593 29.7454 111.645V120.455C29.7449 120.507 29.751 120.558 29.7636 120.606C29.7761 120.654 29.7947 120.697 29.8183 120.734C29.8418 120.77 29.8699 120.799 29.9008 120.819C29.9317 120.838 29.9648 120.848 29.9981 120.847V122C29.7339 122 29.4805 121.837 29.2937 121.547C29.1068 121.258 29.0019 120.865 29.0019 120.455V111.645C28.9935 111.434 29.0132 111.223 29.0596 111.024C29.106 110.824 29.1782 110.642 29.2717 110.488C29.3652 110.334 29.478 110.211 29.6033 110.127C29.7285 110.043 29.8635 110 30 110C30.1365 110 30.2715 110.043 30.3967 110.127C30.522 110.211 30.6348 110.334 30.7283 110.488C30.8218 110.642 30.894 110.824 30.9404 111.024C30.9868 111.223 31.0065 111.434 30.9981 111.645V120.455C30.9962 120.865 30.8901 121.257 30.7029 121.546C30.5156 121.835 30.2624 121.998 29.9981 122V121.423Z" fill="#D9BFFF"/>
<path d="M25 116.003C25 116.134 25.0231 116.263 25.0681 116.383C25.1131 116.504 25.1789 116.614 25.262 116.706C25.3451 116.798 25.4437 116.871 25.5522 116.921C25.6608 116.971 25.7771 116.997 25.8946 116.997H34.0309C34.1546 117.008 34.2788 116.99 34.396 116.944C34.5131 116.899 34.6205 116.827 34.7115 116.734C34.8025 116.64 34.8751 116.527 34.9247 116.4C34.9744 116.274 35 116.138 35 116C35 115.862 34.9744 115.726 34.9247 115.6C34.8751 115.473 34.8025 115.36 34.7115 115.266C34.6205 115.173 34.5131 115.101 34.396 115.056C34.2788 115.01 34.1546 114.992 34.0309 115.003H25.8786C25.6436 115.009 25.4202 115.117 25.256 115.304C25.0918 115.491 24.9999 115.742 25 116.003Z" fill="#D9BFFF"/>
<path d="M24.593 116.006H25.1687C25.1679 116.039 25.1775 116.072 25.1969 116.103C25.2163 116.134 25.2451 116.162 25.2816 116.185C25.3182 116.209 25.3616 116.228 25.4095 116.24C25.4573 116.253 25.5086 116.259 25.5602 116.258H34.357C34.4089 116.259 34.4604 116.253 34.5086 116.24C34.5567 116.228 34.6006 116.209 34.6375 116.186C34.6745 116.162 34.7038 116.134 34.7239 116.103C34.7439 116.072 34.7542 116.039 34.7542 116.006C34.7542 115.938 34.7124 115.872 34.6379 115.824C34.5634 115.776 34.4623 115.749 34.357 115.749H25.5429C25.491 115.749 25.4396 115.756 25.3918 115.769C25.3439 115.782 25.3005 115.801 25.2641 115.824C25.2276 115.848 25.1989 115.877 25.1796 115.908C25.1602 115.939 25.1507 115.972 25.1515 116.006H24C23.9985 115.874 24.0373 115.744 24.1142 115.622C24.191 115.5 24.3044 115.39 24.4479 115.296C24.5913 115.203 24.7619 115.129 24.9498 115.078C25.1378 115.028 25.3393 115.002 25.5429 115.002H34.357C34.5679 114.994 34.7792 115.013 34.978 115.06C35.1767 115.106 35.3586 115.178 35.5125 115.272C35.6664 115.365 35.7891 115.478 35.8729 115.603C35.9567 115.729 36 115.864 36 116C36 116.136 35.9567 116.271 35.8729 116.397C35.7891 116.522 35.6664 116.635 35.5125 116.728C35.3586 116.822 35.1767 116.894 34.978 116.94C34.7792 116.987 34.5679 117.006 34.357 116.998H25.5429C25.1337 116.998 24.7413 116.893 24.4519 116.706C24.1626 116.519 24 116.266 24 116.002L24.593 116.006Z" fill="#D9BFFF"/>
<defs>
<filter id="filter0_d_2440_46367" x="83.9277" y="137" width="18" height="18" filterUnits="userSpaceOnUse" color-interpolation-filters="sRGB">
<feFlood flood-opacity="0" result="BackgroundImageFix"/>
<feColorMatrix in="SourceAlpha" type="matrix" values="0 0 0 0 0 0 0 0 0 0 0 0 0 0 0 0 0 0 127 0" result="hardAlpha"/>
<feOffset dy="3"/>
<feGaussianBlur stdDeviation="1.5"/>
<feComposite in2="hardAlpha" operator="out"/>
<feColorMatrix type="matrix" values="0 0 0 0 0 0 0 0 0 0 0 0 0 0 0 0 0 0 0.2 0"/>
<feBlend mode="normal" in2="BackgroundImageFix" result="effect1_dropShadow_2440_46367"/>
<feBlend mode="normal" in="SourceGraphic" in2="effect1_dropShadow_2440_46367" result="shape"/>
</filter>
<filter id="filter1_d_2440_46367" x="104.776" y="137.1" width="18" height="18" filterUnits="userSpaceOnUse" color-interpolation-filters="sRGB">
<feFlood flood-opacity="0" result="BackgroundImageFix"/>
<feColorMatrix in="SourceAlpha" type="matrix" values="0 0 0 0 0 0 0 0 0 0 0 0 0 0 0 0 0 0 127 0" result="hardAlpha"/>
<feOffset dy="3"/>
<feGaussianBlur stdDeviation="1.5"/>
<feComposite in2="hardAlpha" operator="out"/>
<feColorMatrix type="matrix" values="0 0 0 0 0 0 0 0 0 0 0 0 0 0 0 0 0 0 0.2 0"/>
<feBlend mode="normal" in2="BackgroundImageFix" result="effect1_dropShadow_2440_46367"/>
<feBlend mode="normal" in="SourceGraphic" in2="effect1_dropShadow_2440_46367" result="shape"/>
</filter>
<filter id="filter2_d_2440_46367" x="125.7" y="137.1" width="18" height="18" filterUnits="userSpaceOnUse" color-interpolation-filters="sRGB">
<feFlood flood-opacity="0" result="BackgroundImageFix"/>
<feColorMatrix in="SourceAlpha" type="matrix" values="0 0 0 0 0 0 0 0 0 0 0 0 0 0 0 0 0 0 127 0" result="hardAlpha"/>
<feOffset dy="3"/>
<feGaussianBlur stdDeviation="1.5"/>
<feComposite in2="hardAlpha" operator="out"/>
<feColorMatrix type="matrix" values="0 0 0 0 0 0 0 0 0 0 0 0 0 0 0 0 0 0 0.2 0"/>
<feBlend mode="normal" in2="BackgroundImageFix" result="effect1_dropShadow_2440_46367"/>
<feBlend mode="normal" in="SourceGraphic" in2="effect1_dropShadow_2440_46367" result="shape"/>
</filter>
<filter id="filter3_d_2440_46367" x="146.625" y="137.1" width="18" height="18" filterUnits="userSpaceOnUse" color-interpolation-filters="sRGB">
<feFlood flood-opacity="0" result="BackgroundImageFix"/>
<feColorMatrix in="SourceAlpha" type="matrix" values="0 0 0 0 0 0 0 0 0 0 0 0 0 0 0 0 0 0 127 0" result="hardAlpha"/>
<feOffset dy="3"/>
<feGaussianBlur stdDeviation="1.5"/>
<feComposite in2="hardAlpha" operator="out"/>
<feColorMatrix type="matrix" values="0 0 0 0 0 0 0 0 0 0 0 0 0 0 0 0 0 0 0.2 0"/>
<feBlend mode="normal" in2="BackgroundImageFix" result="effect1_dropShadow_2440_46367"/>
<feBlend mode="normal" in="SourceGraphic" in2="effect1_dropShadow_2440_46367" result="shape"/>
</filter>
<filter id="filter4_d_2440_46367" x="47.4629" y="122.978" width="33.9307" height="33.9307" filterUnits="userSpaceOnUse" color-interpolation-filters="sRGB">
<feFlood flood-opacity="0" result="BackgroundImageFix"/>
<feColorMatrix in="SourceAlpha" type="matrix" values="0 0 0 0 0 0 0 0 0 0 0 0 0 0 0 0 0 0 127 0" result="hardAlpha"/>
<feOffset dy="2"/>
<feGaussianBlur stdDeviation="2"/>
<feComposite in2="hardAlpha" operator="out"/>
<feColorMatrix type="matrix" values="0 0 0 0 0 0 0 0 0 0 0 0 0 0 0 0 0 0 0.25 0"/>
<feBlend mode="normal" in2="BackgroundImageFix" result="effect1_dropShadow_2440_46367"/>
<feBlend mode="normal" in="SourceGraphic" in2="effect1_dropShadow_2440_46367" result="shape"/>
</filter>
<filter id="filter5_d_2440_46367" x="44" y="36" width="128" height="79.6548" filterUnits="userSpaceOnUse" color-interpolation-filters="sRGB">
<feFlood flood-opacity="0" result="BackgroundImageFix"/>
<feColorMatrix in="SourceAlpha" type="matrix" values="0 0 0 0 0 0 0 0 0 0 0 0 0 0 0 0 0 0 127 0" result="hardAlpha"/>
<feOffset dx="-2" dy="4"/>
<feGaussianBlur stdDeviation="2"/>
<feComposite in2="hardAlpha" operator="out"/>
<feColorMatrix type="matrix" values="0 0 0 0 0 0 0 0 0 0 0 0 0 0 0 0 0 0 0.25 0"/>
<feBlend mode="normal" in2="BackgroundImageFix" result="effect1_dropShadow_2440_46367"/>
<feBlend mode="normal" in="SourceGraphic" in2="effect1_dropShadow_2440_46367" result="shape"/>
</filter>
<radialGradient id="paint0_radial_2440_46367" cx="0" cy="0" r="1" gradientUnits="userSpaceOnUse" gradientTransform="translate(-44 204) rotate(-25.5738) scale(236.127 221.678)">
<stop offset="0.2" stop-color="#E7DFFF"/>
<stop offset="0.29" stop-color="#E7DFFF"/>
<stop offset="0.479167" stop-color="#D9BFFF"/>
<stop offset="0.645833" stop-color="#C689FF"/>
<stop offset="0.786458" stop-color="#AB71FF"/>
<stop offset="0.94" stop-color="#291D4F"/>
</radialGradient>
<radialGradient id="paint1_radial_2440_46367" cx="0" cy="0" r="1" gradientUnits="userSpaceOnUse" gradientTransform="translate(-19 182) rotate(-25.8169) scale(205.512 174.246)">
<stop offset="0.2" stop-color="#E7DFFF"/>
<stop offset="0.29" stop-color="#E7DFFF"/>
<stop offset="0.479167" stop-color="#D9BFFF"/>
<stop offset="0.645833" stop-color="#C689FF"/>
<stop offset="0.786458" stop-color="#AB71FF"/>
<stop offset="0.94" stop-color="#291D4F"/>
</radialGradient>
<radialGradient id="paint2_radial_2440_46367" cx="0" cy="0" r="1" gradientUnits="userSpaceOnUse" gradientTransform="translate(-47.0003 178.82) rotate(-30.8603) scale(227.744 191.15)">
<stop offset="0.2" stop-color="#E7DFFF"/>
<stop offset="0.29" stop-color="#E7DFFF"/>
<stop offset="0.479167" stop-color="#D9BFFF"/>
<stop offset="0.645833" stop-color="#C689FF"/>
<stop offset="0.786458" stop-color="#AB71FF"/>
<stop offset="0.94" stop-color="#291D4F"/>
</radialGradient>
</defs>
</svg>
