/* XPM */
static const char *mozilla_pixmap[] = {
"22 21 368 2",
"  	c None",
". 	c #FDFDFD",
"+ 	c #FF0A0A",
"@ 	c #FF2121",
"# 	c #FF3737",
"$ 	c #FF3939",
"% 	c #FF3434",
"& 	c #FF2E2F",
"* 	c #FE302D",
"= 	c #FB3A2B",
"- 	c #F84628",
"; 	c #F64A26",
"> 	c #F74723",
", 	c #F83E21",
"' 	c #FC2A1E",
") 	c #FF1B1C",
"! 	c #FF171A",
"~ 	c #FF1919",
"{ 	c #FF1818",
"] 	c #FE0303",
"^ 	c #FB0000",
"/ 	c #EEEEEE",
"( 	c #F8F8F8",
"_ 	c #FAFAFA",
": 	c #FF1F1F",
"< 	c #FF8F8F",
"[ 	c #FFC0C0",
"} 	c #FFC1C2",
"| 	c #FFBABE",
"1 	c #FBC3B6",
"2 	c #F7CFAF",
"3 	c #F2D6A3",
"4 	c #EFDA97",
"5 	c #EDD98D",
"6 	c #ECD582",
"7 	c #ECCD7B",
"8 	c #EFBB73",
"9 	c #F49B6D",
"0 	c #FD6A69",
"a 	c #FF626D",
"b 	c #FF4043",
"c 	c #F90404",
"d 	c #E90000",
"e 	c #D9D9D9",
"f 	c #F7F7F7",
"g 	c #FF3535",
"h 	c #FFC2C2",
"i 	c #FFEBEC",
"j 	c #FEEDED",
"k 	c #FBF5E9",
"l 	c #F8F1D6",
"m 	c #F6E6C6",
"n 	c #F8E0B5",
"o 	c #F7DDA5",
"p 	c #F7DA9A",
"q 	c #F7D590",
"r 	c #ECCC89",
"s 	c #EFCB82",
"t 	c #F6D67E",
"u 	c #F1E186",
"v 	c #F57C4A",
"w 	c #FD0B07",
"x 	c #F10000",
"y 	c #CE0000",
"z 	c #C5C5C5",
"A 	c #E4E4E4",
"B 	c #F4F4F4",
"C 	c #FFBFC0",
"D 	c #FFEBEA",
"E 	c #FBF3E9",
"F 	c #F9EED9",
"G 	c #F6E1BF",
"H 	c #FADEAF",
"I 	c #ECD2A0",
"J 	c #B6AA91",
"K 	c #B1AB87",
"L 	c #92917E",
"M 	c #A38277",
"N 	c #9A7B70",
"O 	c #9D8F74",
"P 	c #E9BF69",
"Q 	c #F0A905",
"R 	c #EF5F00",
"S 	c #F40800",
"T 	c #D50000",
"U 	c #B8B8B8",
"V 	c #DDDDDD",
"W 	c #F3F3F3",
"X 	c #FF2F30",
"Y 	c #FEBABB",
"Z 	c #FBF3E5",
"` 	c #FAEDD7",
" .	c #F7E3C1",
"..	c #F8DBA8",
"+.	c #FADA99",
"@.	c #A49C8A",
"#.	c #8F7A7F",
"$.	c #AB7A75",
"%.	c #D27C6D",
"&.	c #D27967",
"*.	c #C07365",
"=.	c #C26A60",
"-.	c #331E19",
";.	c #CA8401",
">.	c #EDB704",
",.	c #F14F01",
"'.	c #E30000",
").	c #B4B4B4",
"!.	c #DADADA",
"~.	c #F2F2F2",
"{.	c #FF2C2D",
"].	c #FBC6B7",
"^.	c #F9F0D6",
"/.	c #FAE5C1",
"(.	c #FBE2AD",
"_.	c #F0D997",
":.	c #B4B088",
"<.	c #8A7F7B",
"[.	c #867D7C",
"}.	c #B37166",
"|.	c #A16A5F",
"1.	c #CE6D5A",
"2.	c #87635C",
"3.	c #F54932",
"4.	c #430500",
"5.	c #140D00",
"6.	c #836402",
"7.	c #EAA904",
"8.	c #E60B00",
"9.	c #B2B2B2",
"0.	c #FC332A",
"a.	c #F4D5AD",
"b.	c #F8E8C1",
"c.	c #EAD7AC",
"d.	c #C2B59A",
"e.	c #AF8984",
"f.	c #D88377",
"g.	c #EF7E68",
"h.	c #CA6F5F",
"i.	c #DB6B56",
"j.	c #AF6050",
"k.	c #92594D",
"l.	c #E25C43",
"m.	c #F72D05",
"n.	c #6D1100",
"o.	c #0A0700",
"p.	c #503901",
"q.	c #C29603",
"r.	c #DD4702",
"s.	c #FA3D27",
"t.	c #F0DDA1",
"u.	c #FAE1B3",
"v.	c #BEBA9F",
"w.	c #B78C8D",
"x.	c #FF8E77",
"y.	c #FF8569",
"z.	c #DF765E",
"A.	c #735A54",
"B.	c #B25D4C",
"C.	c #FC6345",
"D.	c #FF6645",
"E.	c #B9402B",
"F.	c #D21D00",
"G.	c #CA2600",
"H.	c #150100",
"I.	c #442901",
"J.	c #A77803",
"K.	c #DD6203",
"L.	c #F84225",
"M.	c #EEDF95",
"N.	c #F7DAA5",
"O.	c #C7AC92",
"P.	c #D48B81",
"Q.	c #E3836B",
"R.	c #B87467",
"S.	c #575C5E",
"T.	c #2D4549",
"U.	c #4E4341",
"V.	c #FE5C3C",
"W.	c #FC623F",
"X.	c #49170E",
"Y.	c #BB1F00",
"Z.	c #FB3400",
"`.	c #060000",
" +	c #3D2100",
".+	c #AF7703",
"++	c #DE7103",
"@+	c #F84022",
"#+	c #EDDA8B",
"$+	c #F6D799",
"%+	c #C2B088",
"&+	c #7B7782",
"*+	c #697278",
"=+	c #7C6968",
"-+	c #9D5850",
";+	c #CE5640",
">+	c #E65C39",
",+	c #E65635",
"'+	c #D1452C",
")+	c #731305",
"!+	c #E32800",
"~+	c #9A1A00",
"{+	c #100A00",
"]+	c #653C02",
"^+	c #D49804",
"/+	c #DC6E03",
"(+	c #FA3520",
"_+	c #EECD82",
":+	c #F3D391",
"<+	c #EEC87F",
"[+	c #B7A371",
"}+	c #805F5C",
"|+	c #925950",
"1+	c #685C46",
"2+	c #564D3A",
"3+	c #362D32",
"4+	c #603531",
"5+	c #ED3B18",
"6+	c #EF2701",
"7+	c #FC2D00",
"8+	c #490D00",
"9+	c #1E0E01",
"0+	c #B07405",
"a+	c #EFBA07",
"b+	c #DA5A04",
"c+	c #FD241E",
"d+	c #F2B47C",
"e+	c #F0D28B",
"f+	c #F4CB7B",
"g+	c #F9CE6C",
"h+	c #DFB95B",
"i+	c #E0B950",
"j+	c #F9C845",
"k+	c #F1C83B",
"l+	c #877C33",
"m+	c #6F2426",
"n+	c #EC2403",
"o+	c #FD2900",
"p+	c #EB2700",
"q+	c #4A0B00",
"r+	c #382402",
"s+	c #E5AF08",
"t+	c #F1CA09",
"u+	c #DC3302",
"v+	c #FF1A1D",
"w+	c #F98C76",
"x+	c #F0D286",
"y+	c #EFC776",
"z+	c #EFC369",
"A+	c #F1C159",
"B+	c #F1BF4D",
"C+	c #EFBC42",
"D+	c #F5C43C",
"E+	c #F5C830",
"F+	c #2C090B",
"G+	c #B11700",
"H+	c #FD2A00",
"I+	c #FB2A00",
"J+	c #CD2100",
"K+	c #0D0700",
"L+	c #715704",
"M+	c #E8A808",
"N+	c #ED0400",
"O+	c #FF1A1B",
"P+	c #FF6670",
"Q+	c #F4B481",
"R+	c #EECF73",
"S+	c #EEC365",
"T+	c #EEBE57",
"U+	c #EFBD4E",
"V+	c #EFBD46",
"W+	c #EFBA32",
"X+	c #FBC909",
"Y+	c #261600",
"Z+	c #8E1100",
"`+	c #F42900",
" @	c #FF2900",
".@	c #FF2E00",
"+@	c #5A0E00",
"@@	c #000000",
"#@	c #740500",
"$@	c #FF0000",
"%@	c #FF1A1A",
"&@	c #FF696D",
"*@	c #FE7B7E",
"=@	c #F5A870",
"-@	c #EECB66",
";@	c #EEC359",
">@	c #EEBE4F",
",@	c #ECB52D",
"'@	c #EDAF0B",
")@	c #FBCC06",
"!@	c #0D1401",
"~@	c #440900",
"{@	c #E32600",
"]@	c #E92A00",
"^@	c #541000",
"/@	c #250100",
"(@	c #DC0300",
"_@	c #FF6A6A",
":@	c #FF7D80",
"<@	c #FE7378",
"[@	c #F78D67",
"}@	c #EEBA4D",
"|@	c #ECBE24",
"1@	c #F0B403",
"2@	c #D8A604",
"3@	c #D3B608",
"4@	c #110B00",
"5@	c #370800",
"6@	c #AB1D00",
"7@	c #FC2A00",
"8@	c #FF2C00",
"9@	c #AF2100",
"0@	c #350900",
"a@	c #420000",
"b@	c #FF1717",
"c@	c #FE6C6C",
"d@	c #FE3F3F",
"e@	c #FE3639",
"f@	c #FE1A22",
"g@	c #FA2409",
"h@	c #F94700",
"i@	c #B65D01",
"j@	c #4B2201",
"k@	c #692202",
"l@	c #A81500",
"m@	c #4C0B00",
"n@	c #D92400",
"o@	c #E42800",
"p@	c #D12200",
"q@	c #FE2B00",
"r@	c #E12600",
"s@	c #580E00",
"t@	c #3F0A00",
"u@	c #E00000",
"v@	c #CC0000",
"w@	c #CB0000",
"x@	c #D20000",
"y@	c #D70000",
"z@	c #DC0000",
"A@	c #260600",
"B@	c #770400",
"C@	c #0F0000",
"D@	c #320800",
"E@	c #DB2500",
"F@	c #CF2100",
"G@	c #DA2200",
"H@	c #C32200",
"I@	c #6A0E00",
"J@	c #FE0000",
"K@	c #B30000",
"L@	c #B10000",
"M@	c #B40000",
"N@	c #B70000",
"O@	c #A30100",
"P@	c #020100",
"Q@	c #690100",
"R@	c #370000",
"S@	c #4B0C00",
"T@	c #BC1E00",
"U@	c #BB1D00",
"V@	c #771200",
"W@	c #330900",
"X@	c #821400",
"Y@	c #B11500",
"Z@	c #C90C00",
"`@	c #FFFFFF",
". + @ # $ % & * = - ; > , ' ) ! ~ { ] ^ / ( ",
"_ : < [ } | 1 2 3 4 5 6 7 8 9 0 a b c d e / ",
"f g h i j k l m n o p q r s t u v w x y z A ",
"B % C D E F G H I J K L M N O P Q R S T U V ",
"W X Y Z `  ...+.@.#.$.%.&.*.=.-.;.>.,.'.).!.",
"~.{.].^./.(._.:.<.[.}.|.1.2.3.4.5.6.7.8.9.e ",
"~.0.a.b.c.d.e.f.g.h.i.j.k.l.m.n.o.p.q.r.9.e ",
"~.s.t.u.v.w.x.y.z.A.B.C.D.E.F.G.H.I.J.K.9.e ",
"~.L.M.N.O.P.Q.R.S.T.U.V.W.X.Y.Z.`. +.+++9.e ",
"~.@+#+$+%+&+*+=+-+;+>+,+'+)+!+~+{+]+^+/+9.e ",
"~.(+_+:+<+[+}+|+1+2+3+4+5+6+7+8+9+0+a+b+9.e ",
"~.c+d+e+f+g+h+i+j+k+l+m+n+o+p+q+r+s+t+u+9.e ",
"~.v+w+x+y+z+A+B+C+D+E+F+G+H+I+J+K+L+M+N+9.e ",
"~.O+P+Q+R+S+T+U+V+W+X+Y+Z+`+ @.@+@@@#@$@9.e ",
"~.%@&@*@=@-@;@>@,@'@)@!@~@{@ @ @]@^@/@(@9.e ",
"~.{ _@:@<@[@}@|@1@2@3@4@5@6@7@o+8@9@0@a@9.e ",
"W b@c@d@e@f@g@h@i@j@k@l@m@n@o@p@q@r@s@t@).!.",
"B ^ u@v@w@x@y@z@y@A@B@C@D@E@F@D@p@G@H@I@U V ",
"f J@T K@L@M@N@N@O@P@Q@R@S@T@U@V@W@X@Y@Z@z A ",
"_ / e z U ).9.9.9.9.9.9.9.9.9.9.9.).U z e / ",
". ( / A V !.e e e e e e e e e e e !.V A / ( ",
"`@. _ f B W ~.~.~.~.~.~.~.~.~.~.~.W B f _ . "};
