<!-- This Source Code Form is subject to the terms of the Mozilla Public
   - License, v. 2.0. If a copy of the MPL was not distributed with this
   - file, You can obtain one at http://mozilla.org/MPL/2.0/. -->
<svg width="16" height="4" viewBox="0 0 16 4" fill="context-fill" fill-opacity="context-fill-opacity" xmlns="http://www.w3.org/2000/svg">
<path d="M3.30591 1.99365V2.00635C3.30591 2.28988 3.23608 2.54801 3.09644 2.78076C2.96102 3.01351 2.77694 3.19759 2.54419 3.33301C2.31567 3.46842 2.05754 3.53613 1.76978 3.53613H1.75708C1.47355 3.53613 1.21541 3.46842 0.982666 3.33301C0.75415 3.19759 0.570068 3.01351 0.43042 2.78076C0.295003 2.54801 0.227295 2.28988 0.227295 2.00635V1.99365C0.227295 1.71012 0.295003 1.45199 0.43042 1.21924C0.570068 0.986491 0.75415 0.802409 0.982666 0.666992C1.21541 0.531576 1.47355 0.463867 1.75708 0.463867H1.76978C2.05754 0.463867 2.31567 0.531576 2.54419 0.666992C2.77694 0.802409 2.96102 0.986491 3.09644 1.21924C3.23608 1.45199 3.30591 1.71012 3.30591 1.99365Z"/>
<path d="M9.53931 1.99365V2.00635C9.53931 2.28988 9.46948 2.54801 9.32983 2.78076C9.19442 3.01351 9.01033 3.19759 8.77759 3.33301C8.54907 3.46842 8.29093 3.53613 8.00317 3.53613H7.99048C7.70695 3.53613 7.44881 3.46842 7.21606 3.33301C6.98755 3.19759 6.80347 3.01351 6.66382 2.78076C6.5284 2.54801 6.46069 2.28988 6.46069 2.00635V1.99365C6.46069 1.71012 6.5284 1.45199 6.66382 1.21924C6.80347 0.986491 6.98755 0.802409 7.21606 0.666992C7.44881 0.531576 7.70695 0.463867 7.99048 0.463867H8.00317C8.29093 0.463867 8.54907 0.531576 8.77759 0.666992C9.01033 0.802409 9.19442 0.986491 9.32983 1.21924C9.46948 1.45199 9.53931 1.71012 9.53931 1.99365Z"/>
<path d="M15.7727 1.99365V2.00635C15.7727 2.28988 15.7029 2.54801 15.5632 2.78076C15.4278 3.01351 15.2437 3.19759 15.011 3.33301C14.7825 3.46842 14.5243 3.53613 14.2366 3.53613H14.2239C13.9403 3.53613 13.6822 3.46842 13.4495 3.33301C13.2209 3.19759 13.0369 3.01351 12.8972 2.78076C12.7618 2.54801 12.6941 2.28988 12.6941 2.00635V1.99365C12.6941 1.71012 12.7618 1.45199 12.8972 1.21924C13.0369 0.986491 13.2209 0.802409 13.4495 0.666992C13.6822 0.531576 13.9403 0.463867 14.2239 0.463867H14.2366C14.5243 0.463867 14.7825 0.531576 15.011 0.666992C15.2437 0.802409 15.4278 0.986491 15.5632 1.21924C15.7029 1.45199 15.7727 1.71012 15.7727 1.99365Z"/>
</svg>
