<!-- This Source Code Form is subject to the terms of the Mozilla Public
   - License, v. 2.0. If a copy of the MPL was not distributed with this
   - file, You can obtain one at http://mozilla.org/MPL/2.0/. -->
<svg width="16" height="16" viewBox="0 0 16 16" fill="context-fill" fill-opacity="context-fill-opacity" xmlns="http://www.w3.org/2000/svg">
<path d="M13.75 2.85L13.15 2.25H2.85L2.25 2.85V10.15L2.85 10.75H7.087C7.31416 10.7499 7.53459 10.8271 7.712 10.969L10.75 13.399V11.25C10.75 11.1174 10.8027 10.9902 10.8964 10.8964C10.9902 10.8027 11.1174 10.75 11.25 10.75H13.15L13.75 10.15V2.85ZM3 1H13C13.5304 1 14.0391 1.21071 14.4142 1.58579C14.7893 1.96086 15 2.46957 15 3V10C15 10.5304 14.7893 11.0391 14.4142 11.4142C14.0391 11.7893 13.5304 12 13 12H12V15H10.75L7 12H3C2.46957 12 1.96086 11.7893 1.58579 11.4142C1.21071 11.0391 1 10.5304 1 10V3C1 2.46957 1.21071 1.96086 1.58579 1.58579C1.96086 1.21071 2.46957 1 3 1ZM11.125 5.25H4.875C4.70924 5.25 4.55027 5.18415 4.43306 5.06694C4.31585 4.94973 4.25 4.79076 4.25 4.625C4.25 4.45924 4.31585 4.30027 4.43306 4.18306C4.55027 4.06585 4.70924 4 4.875 4H11.125C11.2908 4 11.4497 4.06585 11.5669 4.18306C11.6842 4.30027 11.75 4.45924 11.75 4.625C11.75 4.79076 11.6842 4.94973 11.5669 5.06694C11.4497 5.18415 11.2908 5.25 11.125 5.25ZM9.125 8.25H4.875C4.70924 8.25 4.55027 8.18415 4.43306 8.06694C4.31585 7.94973 4.25 7.79076 4.25 7.625C4.25 7.45924 4.31585 7.30027 4.43306 7.18306C4.55027 7.06585 4.70924 7 4.875 7H9.125C9.29076 7 9.44973 7.06585 9.56694 7.18306C9.68415 7.30027 9.75 7.45924 9.75 7.625C9.75 7.79076 9.68415 7.94973 9.56694 8.06694C9.44973 8.18415 9.29076 8.25 9.125 8.25Z"/>
</svg>
