/* XPM */
static char *proxy_raised[] = {
/* columns rows colors chars-per-pixel */
"16 16 12 1",
"   c #00373c",
".  c #222222",
"X  c #6666cc",
"o  c #008000",
"O  c #008080",
"+  c Magenta",
"@  c Yellow",
"#  c #808080",
"$  c #9999ff",
"%  c #c0c0c0",
"&  c Gray100",
"*  c None",
/* pixels */
"************OO**",
"******$%***OOOOO",
"******$&$&OOOOO.",
"*****X&&&OOOOO.*",
"****&%&&oOOOO.**",
"****$&&oOOOO.&$*",
"***X&&OOOOO.@X**",
"**%&&OOOOO.@%$**",
"**$&...OO.@@$X**",
"*$&&@&@O.@&@.***",
"$%&%&%@.@%@X##**",
"*#$%&@@@&@%X####",
"**.$$%@&@%X.####",
"***#.$$@%$.###**",
"*****# $$.##****",
"*******#.##*****"
};

/* -*- Mode: xpm; tab-width: 4; indent-tabs-mode: nil; c-basic-offset: 2 -*-
 *
 * The contents of this file are subject to the Netscape Public
 * License Version 1.1 (the "License"); you may not use this file
 * except in compliance with the License. You may obtain a copy of
 * the License at http://www.mozilla.org/NPL/
 *
 * Software distributed under the License is distributed on an "AS
 * IS" basis, WITHOUT WARRANTY OF ANY KIND, either express or
 * implied. See the License for the specific language governing
 * rights and limitations under the License.
 *
 * The Original Code is mozilla.org code.
 *
 * The Initial Developer of the Original Code is Netscape
 * Communications Corporation.  Portions created by Netscape are
 * Copyright (C) 1998 Netscape Communications Corporation. All
 * Rights Reserved.
 *
 * Contributor(s): 
 */
/*-----------------------------------------*/
