<!-- This Source Code Form is subject to the terms of the Mozilla Public
   - License, v. 2.0. If a copy of the MPL was not distributed with this
   - file, You can obtain one at http://mozilla.org/MPL/2.0/. -->
<svg width="115" height="89" fill="none" xmlns="http://www.w3.org/2000/svg">
  <path d="M86.676 83.103c15.377 0 27.842-12.465 27.842-27.842 0-15.376-12.465-27.842-27.842-27.842-15.377 0-27.842 12.466-27.842 27.842 0 15.377 12.465 27.842 27.842 27.842z" fill="#FFEA80"/>
  <path d="M84.457 41.839l-25.25 43.159a2.59 2.59 0 002.232 3.898h50.484a2.589 2.589 0 002.591-2.6 2.594 2.594 0 00-.354-1.298L88.914 41.84a2.586 2.586 0 00-4.457 0z" fill="#7542E5"/>
  <path d="M114.16 85.031L95.432 52.967l-4.084 4.084-4.653-4.657-4.656 4.657-4.085-4.085L59.21 85.03a2.591 2.591 0 002.233 3.904h50.48a2.59 2.59 0 002.236-3.904z" fill="#7542E5"/>
  <path d="M86.68 52.394l3.923 3.922a1.037 1.037 0 001.465 0l3.34-3.34-6.493-11.142a2.587 2.587 0 00-4.467 0l-6.509 11.132 3.34 3.34a1.037 1.037 0 001.466 0l3.936-3.912z" fill="#B48EFF"/>
  <path d="M41.036 17.67L.368 85.014a2.586 2.586 0 002.3 3.893h81.346a2.586 2.586 0 002.295-3.893L45.636 17.67a2.706 2.706 0 00-4.6 0z" fill="#AB71FF"/>
  <path d="M56.329 35.373L45.635 17.671a2.706 2.706 0 00-4.594 0L30.347 35.373l-.954 1.58 5.56 7.635a1.032 1.032 0 001.67 0l6.68-9.214 6.704 9.214a1.03 1.03 0 001.67 0l5.583-7.663-.931-1.551z" fill="#D9BFFF"/>
  <path d="M41.086 1.131v14.41a1.13 1.13 0 001.13 1.131h26.507a1.12 1.12 0 001.044-.697 1.14 1.14 0 00-.242-1.236l-6.409-6.403 6.39-6.404c.322-.325.417-.811.243-1.235A1.135 1.135 0 0068.723 0H42.216c-.624 0-1.13.507-1.13 1.131z" fill="#FFA266"/>
</svg>
