<!-- This Source Code Form is subject to the terms of the Mozilla Public
   - License, v. 2.0. If a copy of the MPL was not distributed with this
   - file, You can obtain one at http://mozilla.org/MPL/2.0/. -->
<svg width="608" height="197" viewBox="0 0 608 197" fill="none" xmlns="http://www.w3.org/2000/svg">
<g clip-path="url(#clip0)">
<rect width="607" height="197" transform="translate(0.5)" fill="#F0F0F4"/>
<rect x="96.5" y="146" width="511" height="51" fill="#80808F"/>
<path fill-rule="evenodd" clip-rule="evenodd" d="M503.828 70H314.057V146.143H503.828V70ZM434.128 146.143H383.171V197.1H434.128V146.143Z" fill="#141422"/>
<path d="M421.179 167.097C420.608 165.723 419.451 164.24 418.543 163.771C419.282 165.221 419.71 166.675 419.874 167.76C419.874 167.762 419.875 167.767 419.876 167.782C418.39 164.078 415.87 162.584 413.812 159.332C413.709 159.167 413.604 159.003 413.503 158.829C413.451 158.74 413.403 158.649 413.358 158.557C413.273 158.392 413.207 158.217 413.162 158.037C413.162 158.028 413.159 158.02 413.154 158.014C413.148 158.007 413.14 158.003 413.132 158.002C413.124 157.999 413.115 157.999 413.107 158.002C413.105 158.002 413.103 158.005 413.101 158.005C413.098 158.006 413.094 158.009 413.091 158.011C413.092 158.009 413.096 158.004 413.096 158.003C409.795 159.937 408.675 163.514 408.572 165.303C407.254 165.394 405.993 165.88 404.955 166.697C404.846 166.605 404.733 166.52 404.614 166.44C404.315 165.392 404.302 164.283 404.578 163.228C403.227 163.843 402.177 164.815 401.414 165.673H401.408C400.887 165.013 400.924 162.836 400.953 162.381C400.947 162.353 400.565 162.58 400.515 162.614C400.055 162.942 399.625 163.311 399.23 163.714C398.781 164.17 398.37 164.662 398.003 165.186C398.003 165.187 398.002 165.188 398.002 165.188C398.002 165.188 398.003 165.187 398.003 165.186C397.158 166.384 396.558 167.737 396.239 169.168C396.233 169.196 396.228 169.226 396.222 169.255C396.197 169.37 396.108 169.949 396.092 170.075C396.091 170.085 396.091 170.094 396.089 170.103C395.974 170.702 395.903 171.308 395.876 171.917C395.876 171.939 395.875 171.961 395.875 171.984C395.875 179.242 401.759 185.125 409.018 185.125C415.518 185.125 420.916 180.406 421.972 174.208C421.994 174.04 422.012 173.87 422.032 173.701C422.293 171.447 422.003 169.078 421.179 167.097ZM406.031 177.384C406.093 177.413 406.151 177.445 406.214 177.473C406.216 177.475 406.22 177.477 406.223 177.479C406.158 177.448 406.095 177.416 406.031 177.384ZM419.877 167.785L419.876 167.772C419.876 167.777 419.877 167.782 419.878 167.786L419.877 167.785Z" fill="url(#paint0_linear)"/>
<path d="M421.18 167.097C420.608 165.723 419.451 164.24 418.543 163.771C419.282 165.221 419.71 166.675 419.874 167.76C419.874 167.757 419.874 167.763 419.876 167.772C419.876 167.777 419.877 167.782 419.878 167.786C421.118 171.148 420.442 174.567 419.469 176.655C417.963 179.887 414.317 183.2 408.609 183.038C402.443 182.864 397.011 178.288 395.997 172.296C395.812 171.351 395.997 170.871 396.09 170.104C395.976 170.695 395.933 170.866 395.876 171.917C395.876 171.939 395.875 171.962 395.875 171.984C395.875 179.242 401.759 185.125 409.018 185.125C415.518 185.125 420.916 180.406 421.972 174.208C421.995 174.04 422.012 173.87 422.032 173.701C422.293 171.447 422.003 169.078 421.18 167.097Z" fill="url(#paint1_radial)"/>
<path d="M421.18 167.097C420.608 165.723 419.451 164.24 418.543 163.771C419.282 165.221 419.71 166.675 419.874 167.76C419.874 167.757 419.874 167.763 419.876 167.772C419.876 167.777 419.877 167.782 419.878 167.786C421.118 171.148 420.442 174.567 419.469 176.655C417.963 179.887 414.317 183.2 408.609 183.038C402.443 182.864 397.011 178.288 395.997 172.296C395.812 171.351 395.997 170.871 396.09 170.104C395.976 170.695 395.933 170.866 395.876 171.917C395.876 171.939 395.875 171.962 395.875 171.984C395.875 179.242 401.759 185.125 409.018 185.125C415.518 185.125 420.916 180.406 421.972 174.208C421.995 174.04 422.012 173.87 422.032 173.701C422.293 171.447 422.003 169.078 421.18 167.097Z" fill="url(#paint2_radial)"/>
<path d="M414.793 168.642C414.821 168.662 414.847 168.682 414.874 168.702C414.544 168.117 414.134 167.581 413.654 167.11C409.569 163.025 412.583 158.253 413.091 158.011C413.093 158.009 413.096 158.004 413.097 158.003C409.795 159.937 408.675 163.514 408.572 165.303C408.725 165.292 408.878 165.28 409.034 165.28C411.498 165.28 413.643 166.634 414.793 168.642Z" fill="url(#paint3_radial)"/>
<path d="M409.042 169.458C409.021 169.785 407.866 170.912 407.462 170.912C403.725 170.912 403.118 173.173 403.118 173.173C403.283 175.076 404.609 176.644 406.214 177.473C406.287 177.511 406.361 177.545 406.435 177.579C406.562 177.636 406.691 177.688 406.821 177.737C407.372 177.932 407.948 178.043 408.531 178.067C415.082 178.374 416.351 170.236 411.624 167.873C412.834 167.662 414.091 168.149 414.793 168.642C413.644 166.634 411.498 165.28 409.034 165.28C408.878 165.28 408.726 165.292 408.573 165.303C407.254 165.394 405.994 165.879 404.955 166.697C405.156 166.866 405.382 167.093 405.858 167.563C406.75 168.441 409.037 169.351 409.042 169.458Z" fill="url(#paint4_radial)"/>
<path d="M409.042 169.458C409.021 169.785 407.866 170.912 407.462 170.912C403.725 170.912 403.118 173.173 403.118 173.173C403.283 175.076 404.609 176.644 406.214 177.473C406.287 177.511 406.361 177.545 406.435 177.579C406.562 177.636 406.691 177.688 406.821 177.737C407.372 177.932 407.948 178.043 408.531 178.067C415.082 178.374 416.351 170.236 411.624 167.873C412.834 167.662 414.091 168.149 414.793 168.642C413.644 166.634 411.498 165.28 409.034 165.28C408.878 165.28 408.726 165.292 408.573 165.303C407.254 165.394 405.994 165.879 404.955 166.697C405.156 166.866 405.382 167.093 405.858 167.563C406.75 168.441 409.037 169.351 409.042 169.458Z" fill="url(#paint5_radial)"/>
<path d="M404.342 166.26C404.434 166.319 404.525 166.379 404.615 166.44C404.315 165.392 404.302 164.283 404.578 163.228C403.228 163.843 402.177 164.815 401.414 165.673C401.477 165.671 403.384 165.637 404.342 166.26Z" fill="url(#paint6_radial)"/>
<path d="M395.997 172.296C397.011 178.288 402.443 182.864 408.609 183.038C414.317 183.2 417.963 179.887 419.469 176.655C420.442 174.566 421.118 171.148 419.878 167.787L419.878 167.785L419.876 167.772C419.874 167.763 419.874 167.757 419.874 167.76C419.874 167.762 419.875 167.767 419.876 167.782C420.343 170.826 418.794 173.775 416.374 175.769L416.366 175.786C411.65 179.626 407.136 178.103 406.223 177.479C406.158 177.448 406.095 177.417 406.031 177.384C403.281 176.07 402.145 173.565 402.389 171.416C400.067 171.416 399.275 169.458 399.275 169.458C399.275 169.458 401.36 167.972 404.108 169.264C406.652 170.461 409.042 169.458 409.042 169.458C409.037 169.351 406.75 168.441 405.858 167.563C405.382 167.093 405.155 166.867 404.955 166.697C404.846 166.605 404.733 166.519 404.615 166.44C404.524 166.379 404.434 166.319 404.342 166.26C403.384 165.637 401.477 165.671 401.414 165.672H401.408C400.887 165.013 400.924 162.836 400.953 162.381C400.947 162.353 400.565 162.58 400.515 162.614C400.055 162.942 399.625 163.31 399.23 163.714C398.781 164.17 398.37 164.662 398.003 165.186C398.003 165.187 398.003 165.188 398.002 165.188C398.002 165.188 398.003 165.187 398.003 165.186C397.158 166.384 396.558 167.737 396.239 169.168C396.233 169.196 395.766 171.237 395.997 172.296Z" fill="url(#paint7_radial)"/>
<path d="M413.654 167.11C414.134 167.581 414.544 168.117 414.874 168.702C414.947 168.757 415.014 168.811 415.072 168.864C418.051 171.609 416.49 175.492 416.374 175.769C418.794 173.775 420.342 170.826 419.876 167.782C418.39 164.078 415.87 162.584 413.812 159.332C413.709 159.167 413.604 159.003 413.503 158.829C413.451 158.74 413.403 158.649 413.358 158.557C413.273 158.392 413.207 158.217 413.162 158.037C413.162 158.028 413.159 158.02 413.154 158.014C413.148 158.007 413.14 158.003 413.132 158.002C413.124 157.999 413.115 157.999 413.107 158.002C413.105 158.002 413.103 158.005 413.101 158.005C413.098 158.006 413.094 158.009 413.091 158.011C412.583 158.253 409.569 163.025 413.654 167.11Z" fill="url(#paint8_radial)"/>
<path d="M415.072 168.864C415.014 168.811 414.947 168.757 414.874 168.702C414.847 168.682 414.821 168.662 414.793 168.642C414.091 168.149 412.834 167.662 411.624 167.873C416.351 170.236 415.082 178.374 408.531 178.067C407.948 178.043 407.371 177.932 406.821 177.737C406.691 177.688 406.562 177.636 406.435 177.579C406.361 177.546 406.287 177.511 406.214 177.474C406.216 177.475 406.22 177.477 406.223 177.479C407.136 178.102 411.65 179.626 416.366 175.786L416.373 175.768C416.49 175.492 418.051 171.609 415.072 168.864Z" fill="url(#paint9_radial)"/>
<path d="M403.118 173.173C403.118 173.173 403.724 170.912 407.462 170.912C407.866 170.912 409.021 169.785 409.042 169.458C409.063 169.131 406.652 170.461 404.107 169.264C401.36 167.971 399.275 169.458 399.275 169.458C399.275 169.458 400.067 171.416 402.389 171.416C402.145 173.565 403.281 176.07 406.031 177.384C406.093 177.413 406.15 177.445 406.213 177.474C404.609 176.644 403.283 175.076 403.118 173.173Z" fill="url(#paint10_radial)"/>
<path d="M421.18 167.097C420.608 165.723 419.451 164.24 418.543 163.771C419.282 165.221 419.71 166.675 419.874 167.76C419.874 167.762 419.875 167.767 419.876 167.782C418.39 164.078 415.87 162.584 413.813 159.332C413.709 159.167 413.604 159.003 413.503 158.829C413.451 158.74 413.403 158.649 413.358 158.557C413.273 158.392 413.207 158.217 413.162 158.037C413.162 158.028 413.159 158.02 413.154 158.014C413.148 158.007 413.14 158.003 413.132 158.002C413.124 157.999 413.115 157.999 413.107 158.002C413.105 158.002 413.103 158.005 413.101 158.005C413.098 158.006 413.094 158.009 413.091 158.011C413.092 158.009 413.096 158.004 413.096 158.003C409.795 159.937 408.675 163.514 408.572 165.303C408.725 165.293 408.878 165.28 409.034 165.28C411.498 165.28 413.643 166.634 414.792 168.642C414.091 168.149 412.834 167.662 411.623 167.873C416.351 170.236 415.082 178.374 408.531 178.067C407.948 178.043 407.371 177.932 406.821 177.737C406.691 177.688 406.562 177.636 406.435 177.579C406.361 177.546 406.287 177.512 406.213 177.474C406.216 177.475 406.22 177.477 406.222 177.479C406.158 177.448 406.094 177.416 406.031 177.384C406.092 177.413 406.15 177.445 406.213 177.473C404.608 176.644 403.283 175.076 403.117 173.173C403.117 173.173 403.724 170.912 407.461 170.912C407.865 170.912 409.02 169.785 409.042 169.458C409.037 169.351 406.749 168.441 405.858 167.563C405.381 167.093 405.155 166.867 404.955 166.697C404.846 166.605 404.732 166.519 404.614 166.44C404.315 165.392 404.302 164.283 404.577 163.228C403.227 163.843 402.177 164.815 401.414 165.673H401.408C400.887 165.013 400.923 162.836 400.953 162.381C400.947 162.353 400.564 162.58 400.514 162.614C400.054 162.942 399.625 163.31 399.23 163.714C398.781 164.17 398.37 164.662 398.003 165.186C398.003 165.187 398.003 165.188 398.002 165.188C398.002 165.188 398.003 165.187 398.003 165.186C397.158 166.384 396.558 167.737 396.239 169.168C396.233 169.196 396.228 169.226 396.222 169.255C396.197 169.37 396.086 169.957 396.07 170.083C396.069 170.093 396.071 170.074 396.07 170.083C395.969 170.69 395.904 171.302 395.876 171.917C395.876 171.939 395.875 171.962 395.875 171.984C395.875 179.242 401.759 185.125 409.018 185.125C415.518 185.125 420.916 180.406 421.972 174.208C421.994 174.04 422.012 173.87 422.032 173.701C422.293 171.447 422.003 169.078 421.18 167.097ZM419.876 167.772C419.876 167.777 419.877 167.782 419.878 167.786L419.877 167.785L419.876 167.772Z" fill="url(#paint11_linear)"/>
<circle cx="352.128" cy="171.914" r="13.4714" fill="#9F9FAD"/>
<circle cx="295.9" cy="171.914" r="13.4714" fill="#9F9FAD"/>
<circle cx="239.671" cy="171.914" r="13.4714" fill="#9F9FAD"/>
<circle cx="465.757" cy="171.914" r="13.4714" fill="#9F9FAD"/>
<line x1="331.057" y1="128.637" x2="341.067" y2="118.627" stroke="#5B5B66" stroke-width="4" stroke-linecap="round" stroke-linejoin="round"/>
<line x1="341.066" y1="130.223" x2="331.056" y2="120.213" stroke="#5B5B66" stroke-width="4" stroke-linecap="round" stroke-linejoin="round"/>
<rect x="350.915" y="118.446" width="57.4179" height="12.5602" fill="#5B5B66"/>
<rect x="412.705" y="118.029" width="39.2429" height="12.8857" fill="#5B5B66"/>
<path d="M328.648 94.8357L333.508 94.8357L333.508 98.2196C333.508 98.4963 333.618 98.7617 333.813 98.9573C334.009 99.153 334.274 99.2629 334.551 99.263C335.156 99.2647 335.755 99.1464 336.315 98.9149C336.874 98.6833 337.381 98.3432 337.808 97.9141L337.935 97.7872C338.407 97.315 339.048 97.0498 339.716 97.0498C340.384 97.0498 341.025 97.315 341.497 97.7872L341.93 98.2196C342.076 98.3655 342.262 98.4648 342.464 98.5051C342.666 98.5453 342.876 98.5246 343.067 98.4456C343.257 98.3667 343.42 98.2329 343.535 98.0614C343.65 97.8898 343.711 97.6881 343.711 97.4817L343.711 90.1029C343.711 89.8965 343.65 89.6948 343.535 89.5232C343.42 89.3517 343.257 89.2179 343.067 89.1389C342.876 89.06 342.666 89.0393 342.464 89.0795C342.262 89.1198 342.076 89.2191 341.93 89.365L341.497 89.7974C341.025 90.2695 340.384 90.5348 339.716 90.5348C339.048 90.5348 338.407 90.2695 337.935 89.7974L337.81 89.6727C337.39 89.2171 336.874 88.8598 336.3 88.6266C335.725 88.3933 335.106 88.2896 334.487 88.3231C334.222 88.3393 333.973 88.4561 333.791 88.6497C333.609 88.8434 333.507 89.0992 333.508 89.365L333.508 92.7489L328.648 92.7489C328.374 92.7537 328.113 92.8657 327.922 93.0609C327.73 93.256 327.622 93.5187 327.622 93.7923C327.622 94.0659 327.73 94.3286 327.922 94.5237C328.113 94.7189 328.374 94.8309 328.648 94.8357ZM335.595 90.5995C335.87 90.7404 336.12 90.9259 336.334 91.1485L336.459 91.2732C336.886 91.7022 337.393 92.0423 337.952 92.274C338.511 92.5057 339.11 92.6242 339.715 92.6227C340.374 92.6237 341.025 92.4836 341.624 92.2117L341.624 95.3736C341.025 95.1014 340.375 94.9609 339.717 94.9618C339.112 94.9601 338.512 95.0785 337.953 95.3101C337.393 95.5418 336.886 95.8821 336.459 96.3114L336.332 96.4384C336.119 96.6526 335.869 96.8266 335.594 96.9519L335.595 90.5995Z" fill="white"/>
<rect x="350.913" y="87.9432" width="57.4179" height="12.5602" fill="#9F9FAD"/>
<rect x="411.532" y="87.5717" width="15.8143" height="12.8857" fill="#9F9FAD"/>
<rect x="430.86" y="87.5717" width="35.1429" height="12.8857" fill="#9F9FAD"/>
<rect x="0.5" width="294" height="197" fill="url(#paint12_linear)"/>
<path fill-rule="evenodd" clip-rule="evenodd" d="M120.646 11.4611L341.697 70.597C364.899 76.8038 365.608 109.468 342.697 116.675L124.996 185.167L120.646 11.4611ZM336.247 112.401C346.46 112.704 354.985 104.67 355.288 94.4575C355.591 84.2447 347.557 75.7199 337.345 75.4169C327.132 75.1138 318.607 83.1472 318.304 93.36C318.001 103.573 326.034 112.098 336.247 112.401Z" fill="#BFBFC9"/>
<circle cx="99.5" cy="99" r="90" fill="#15141A"/>
<mask id="mask0" mask-type="alpha" maskUnits="userSpaceOnUse" x="9" y="9" width="181" height="180">
<circle cx="99.5" cy="99" r="90" fill="#141422"/>
</mask>
<g mask="url(#mask0)">
<path d="M59.794 101.009L79.6171 101.009L79.6171 114.812C79.6173 115.941 80.0657 117.023 80.8638 117.821C81.662 118.619 82.7444 119.068 83.8731 119.068C86.3414 119.075 88.7866 118.593 91.0671 117.648C93.3477 116.704 95.4181 115.316 97.1587 113.566L97.6764 113.048C99.604 111.122 102.217 110.04 104.942 110.04C107.667 110.04 110.281 111.122 112.208 113.048L113.972 114.812C114.567 115.407 115.326 115.812 116.151 115.977C116.977 116.141 117.833 116.056 118.61 115.734C119.388 115.412 120.053 114.867 120.52 114.167C120.988 113.467 121.238 112.644 121.238 111.802L121.238 81.7034C121.238 80.8617 120.988 80.0389 120.52 79.339C120.053 78.6391 119.388 78.0937 118.61 77.7715C117.833 77.4494 116.977 77.365 116.151 77.5291C115.326 77.6933 114.567 78.0985 113.972 78.6935L112.208 80.4573C110.281 82.3833 107.667 83.4652 104.942 83.4652C102.217 83.4652 99.604 82.3833 97.6764 80.4573L97.1677 79.9487C95.453 78.0901 93.3491 76.633 91.0062 75.6814C88.6634 74.7298 86.1393 74.3071 83.6142 74.4436C82.532 74.5097 81.5158 74.9863 80.773 75.776C80.0302 76.5658 79.6168 77.6093 79.6171 78.6935L79.6171 92.4969L59.794 92.4969C58.6781 92.5163 57.6144 92.9732 56.8321 93.7692C56.0497 94.5653 55.6114 95.6367 55.6114 96.7528C55.6114 97.8689 56.0497 98.9404 56.8321 99.7364C57.6144 100.532 58.6781 100.989 59.794 101.009ZM88.1321 83.7291C89.254 84.304 90.2731 85.0607 91.148 85.9684L91.6566 86.4771C93.3969 88.2271 95.4668 89.6147 97.7467 90.5596C100.027 91.5045 102.471 91.988 104.939 91.9822C107.625 91.9862 110.28 91.4146 112.726 90.3057L112.723 103.203C110.281 102.093 107.628 101.52 104.945 101.523C102.476 101.516 100.03 101.999 97.7492 102.944C95.4682 103.889 93.3973 105.277 91.6566 107.029L91.1389 107.546C90.2702 108.42 89.2505 109.13 88.1291 109.641L88.1321 83.7291Z" fill="white"/>
<rect x="169.5" y="71.6085" width="221.739" height="52.1739" fill="#9F9FAD"/>
</g>
</g>
<defs>
<linearGradient id="paint0_linear" x1="418.778" y1="162.204" x2="397.675" y2="182.561" gradientUnits="userSpaceOnUse">
<stop offset="0.05" stop-color="#FFF44F"/>
<stop offset="0.37" stop-color="#FF980E"/>
<stop offset="0.53" stop-color="#FF3647"/>
<stop offset="0.7" stop-color="#E31587"/>
</linearGradient>
<radialGradient id="paint1_radial" cx="0" cy="0" r="1" gradientUnits="userSpaceOnUse" gradientTransform="translate(414.064 161.024) scale(26.8801 27.3328)">
<stop offset="0.13" stop-color="#FFBD4F"/>
<stop offset="0.28" stop-color="#FF980E"/>
<stop offset="0.47" stop-color="#FF3750"/>
<stop offset="0.78" stop-color="#EB0878"/>
<stop offset="0.86" stop-color="#E50080"/>
</radialGradient>
<radialGradient id="paint2_radial" cx="0" cy="0" r="1" gradientUnits="userSpaceOnUse" gradientTransform="translate(406.27 172.313) scale(27.5521 27.3328)">
<stop offset="0.3" stop-color="#960E18"/>
<stop offset="0.35" stop-color="#B11927" stop-opacity="0.74"/>
<stop offset="0.43" stop-color="#DB293D" stop-opacity="0.34"/>
<stop offset="0.5" stop-color="#F5334B" stop-opacity="0.09"/>
<stop offset="0.53" stop-color="#FF3750" stop-opacity="0"/>
</radialGradient>
<radialGradient id="paint3_radial" cx="0" cy="0" r="1" gradientUnits="userSpaceOnUse" gradientTransform="translate(411.597 156.719) scale(8.82276 14.9788)">
<stop offset="0.13" stop-color="#FFF44F"/>
<stop offset="0.53" stop-color="#FF980E"/>
</radialGradient>
<radialGradient id="paint4_radial" cx="0" cy="0" r="1" gradientUnits="userSpaceOnUse" gradientTransform="translate(405.775 179.369) scale(11.6748 12.7958)">
<stop offset="0.35" stop-color="#3A8EE6"/>
<stop offset="0.67" stop-color="#9059FF"/>
<stop offset="1" stop-color="#C139E6"/>
</radialGradient>
<radialGradient id="paint5_radial" cx="0" cy="0" r="1" gradientUnits="userSpaceOnUse" gradientTransform="translate(407.77 169.502) scale(6.19934 7.54951)">
<stop offset="0.21" stop-color="#9059FF" stop-opacity="0"/>
<stop offset="0.97" stop-color="#6E008B" stop-opacity="0.6"/>
</radialGradient>
<radialGradient id="paint6_radial" cx="0" cy="0" r="1" gradientUnits="userSpaceOnUse" gradientTransform="translate(408.135 160.016) scale(9.28154 9.31453)">
<stop offset="0.1" stop-color="#FFE226"/>
<stop offset="0.79" stop-color="#FF7139"/>
</radialGradient>
<radialGradient id="paint7_radial" cx="0" cy="0" r="1" gradientUnits="userSpaceOnUse" gradientTransform="translate(416.612 153.906) scale(44.3121 37.1976)">
<stop offset="0.11" stop-color="#FFF44F"/>
<stop offset="0.46" stop-color="#FF980E"/>
<stop offset="0.72" stop-color="#FF3647"/>
<stop offset="0.9" stop-color="#E31587"/>
</radialGradient>
<radialGradient id="paint8_radial" cx="0" cy="0" r="1" gradientUnits="userSpaceOnUse" gradientTransform="translate(400.155 166.19) rotate(77.3946) scale(14.0587 60.8158)">
<stop stop-color="#FFF44F"/>
<stop offset="0.3" stop-color="#FF980E"/>
<stop offset="0.57" stop-color="#FF3647"/>
<stop offset="0.74" stop-color="#E31587"/>
</radialGradient>
<radialGradient id="paint9_radial" cx="0" cy="0" r="1" gradientUnits="userSpaceOnUse" gradientTransform="translate(408.231 163.367) scale(25.4416 24.9947)">
<stop offset="0.14" stop-color="#FFF44F"/>
<stop offset="0.48" stop-color="#FF980E"/>
<stop offset="0.66" stop-color="#FF3647"/>
<stop offset="0.9" stop-color="#E31587"/>
</radialGradient>
<radialGradient id="paint10_radial" cx="0" cy="0" r="1" gradientUnits="userSpaceOnUse" gradientTransform="translate(414.834 164.828) scale(30.58 27.3574)">
<stop offset="0.09" stop-color="#FFF44F"/>
<stop offset="0.63" stop-color="#FF980E"/>
</radialGradient>
<linearGradient id="paint11_linear" x1="416.875" y1="161.798" x2="400" y2="180.236" gradientUnits="userSpaceOnUse">
<stop offset="0.17" stop-color="#FFF44F" stop-opacity="0.8"/>
<stop offset="0.6" stop-color="#FFF44F" stop-opacity="0"/>
</linearGradient>
<linearGradient id="paint12_linear" x1="168.5" y1="0" x2="294.5" y2="0" gradientUnits="userSpaceOnUse">
<stop stop-color="#EDEDF0"/>
<stop offset="1" stop-color="#EDEDF0" stop-opacity="0"/>
</linearGradient>
<clipPath id="clip0">
<rect width="607" height="197" fill="white" transform="translate(0.5)"/>
</clipPath>
</defs>
</svg>
