/* XPM */
static char * default_xpm[] = {
/* columns rows colors chars-per-pixel */
"48 48 257 2",
"   c #000000",
".  c #090407",
"X  c #060312",
"o  c #18050C",
"O  c #180514",
"+  c #1D1C16",
"@  c #1A1717",
"#  c #1B180D",
"$  c #051B26",
"%  c #000D2E",
"&  c #192719",
"*  c #0E322D",
"=  c #220B0C",
"-  c #200A14",
";  c #231917",
":  c #2F0E0E",
">  c #2A281D",
",  c #272525",
"<  c #3A2624",
"1  c #30372D",
"2  c #221922",
"3  c #003944",
"4  c #055737",
"5  c #104935",
"6  c #18713B",
"7  c #31502F",
"8  c #2A793B",
"9  c #317D3D",
"0  c #387937",
"q  c #316E30",
"w  c #015846",
"e  c #185746",
"r  c #075051",
"t  c #02644C",
"y  c #086646",
"u  c #006352",
"i  c #08784B",
"p  c #166A46",
"a  c #187647",
"s  c #177853",
"d  c #067752",
"f  c #335448",
"g  c #2B7C41",
"h  c #267744",
"j  c #297A52",
"k  c #347C44",
"l  c #356E4D",
"z  c #227862",
"x  c #571B0E",
"c  c #443C36",
"v  c #4E2C28",
"b  c #6A170B",
"n  c #702214",
"m  c #602721",
"M  c #474338",
"N  c #514D3E",
"B  c #4C6D0D",
"V  c #4C7530",
"C  c #6D752D",
"Z  c #6E522C",
"A  c #56514D",
"S  c #48795A",
"D  c #4F6A4D",
"F  c #587068",
"G  c #64784A",
"H  c #6E6B58",
"J  c #74726C",
"K  c #655758",
"L  c #6E7C85",
"P  c #33813D",
"I  c #3B853C",
"U  c #3B863B",
"Y  c #2E8835",
"T  c #299139",
"R  c #0F874D",
"E  c #288345",
"W  c #338242",
"Q  c #388744",
"!  c #388955",
"~  c #2C8E4C",
"^  c #249558",
"/  c #448A3B",
"(  c #4A8D3A",
")  c #488936",
"_  c #4D923B",
"`  c #499538",
"'  c #529335",
"]  c #529439",
"[  c #599938",
"{  c #548E2D",
"}  c #5AA437",
"|  c #49A938",
" . c #659C2D",
".. c #639A38",
"X. c #6D8E2B",
"o. c #68A438",
"O. c #75A828",
"+. c #74AD3C",
"@. c #7BB836",
"#. c #6CA92C",
"$. c #65A00A",
"%. c #458847",
"&. c #438958",
"*. c #479441",
"=. c #548B46",
"-. c #549654",
";. c #4D9153",
":. c #52A642",
">. c #699645",
",. c #6B904E",
"<. c #6FAB45",
"1. c #5D906B",
"2. c #70D823",
"3. c #7FC441",
"4. c #7A828D",
"5. c #972513",
"6. c #8B260E",
"7. c #AF380F",
"8. c #954C26",
"9. c #B74018",
"0. c #84786F",
"q. c #9A7353",
"w. c #D23E00",
"e. c #DA5403",
"r. c #D14713",
"t. c #D47029",
"y. c #E54B00",
"u. c #EB5405",
"i. c #E85914",
"p. c #F15901",
"a. c #E86E11",
"s. c #869629",
"d. c #98AB18",
"f. c #99B91C",
"g. c #84AF00",
"h. c #82AA26",
"j. c #88B628",
"k. c #82B93B",
"l. c #96B02C",
"z. c #A2B819",
"x. c #A6BB28",
"c. c #8F9F0F",
"v. c #8A8479",
"b. c #948678",
"n. c #938E6E",
"m. c #89B844",
"M. c #8CAD47",
"N. c #A9A170",
"B. c #989D5B",
"V. c #95C30B",
"C. c #87C539",
"Z. c #96C538",
"A. c #98C72B",
"S. c #A7C31A",
"D. c #B9CC15",
"F. c #B7D311",
"G. c #A7C929",
"H. c #B4D02B",
"J. c #B1E338",
"K. c #9FE124",
"L. c #83C540",
"P. c #B4CD53",
"I. c #A9C673",
"U. c #D9803D",
"Y. c #C7BB31",
"T. c #DD965D",
"R. c #CAD70A",
"E. c #C7D514",
"W. c #D6DD0A",
"Q. c #D6D911",
"!. c #DBE209",
"~. c #CEE009",
"^. c #CEEA31",
"/. c #E6E705",
"(. c #F2EA01",
"). c #FCF500",
"_. c #EEEE13",
"`. c #E3E221",
"'. c #EEEE4B",
"]. c #ECEF61",
"[. c #978D86",
"{. c #989388",
"}. c #8F8F8E",
"|. c #8DAA89",
" X c #A09C92",
".X c #AAA697",
"XX c #B3AA94",
"oX c #B9B398",
"OX c #AAA88B",
"+X c #BAB7A5",
"@X c #AFABA1",
"#X c #BECBAB",
"$X c #BDD38A",
"%X c #C1BBB3",
"&X c #C2BEA1",
"*X c #E9BA89",
"=X c #C7BE9D",
"-X c #D0CF97",
";X c #C9C4A8",
":X c #CBC8B7",
">X c #D3CCB8",
",X c #D5D1AC",
"<X c #D4D2BB",
"1X c #D9D5B7",
"2X c #D9C6AC",
"3X c #E3D9BA",
"4X c #E6CCAA",
"5X c #F5F689",
"6X c #E7E5BA",
"7X c #E4D69F",
"8X c #CDCAC0",
"9X c #DAD6C3",
"0X c #D9D6CB",
"qX c #DCD9C3",
"wX c #DCDACB",
"eX c #D6D3C6",
"rX c #DCDBD1",
"tX c #DED7DE",
"yX c #E1DDC3",
"uX c #E1DECC",
"iX c #E1DED3",
"pX c #E5E1C3",
"aX c #E4E1CB",
"sX c #E9E4C4",
"dX c #E9E5CB",
"fX c #ECE8CB",
"gX c #EEE9C5",
"hX c #E4E2D3",
"jX c #E4E3D9",
"kX c #EDEAD4",
"lX c #ECEADB",
"zX c #E8E7D7",
"xX c #EBF4DD",
"cX c #F2EDCC",
"vX c #F0ECC4",
"bX c #F2EED3",
"nX c #F0EEDD",
"mX c #F8F3CB",
"MX c #F5F1D3",
"NX c #FAF5D3",
"BX c #F9F5DA",
"VX c #FDFADC",
"CX c #F6F3D9",
"ZX c #EDEBE3",
"AX c #E9F6E7",
"SX c #F2EDE2",
"DX c #F3F1E3",
"FX c #F9F6E9",
"GX c #FEFCE3",
"HX c #FDFBEB",
"JX c #F6F5E6",
"KX c #FEFDF3",
"LX c #FEFEFD",
"PX c #F3FAF8",
"IX c #EEFFF8",
"UX c #E5DEE2",
"YX c None",
/* pixels */
"YXYXYXYXYXYXYXYXYXYXYXYXYXYXYXYXYXYXYXYXYXYXYXYXYXYXYXYXYXYXYXYXYXYXYXYXYXYXYXYXYXYXYXYXYXYXYXYX",
"YXYXYXYXYXYXYXYXYXYXYXYXYXYXYXYXYX  U Q [  . . .O.D.F.) h.f. .u YXYXYXYXYXYXYXYXYXYXYXYXYXYXYXYX",
"YXYXYXYXYXYXYXYXYXYXYXYXYXYXYXYXO.P o.D.h.8 t / o.( 8 a P ' o.o.Q _ YXYXYXYXYXYXYXYXYXYXYXYXYXYX",
"YXYXYXYXYXYXYXYXYXYXYXYX2.V.A.S.) E j.#.t y '  .8 w y `  .U U ) ] _ W i u a YXYXYXYXYXYXYXYXYXYX",
"YXYXYXYXYXYXYXYXYXYXYX).O.o.G.h t o.{ t 6 P 8 a a W Q Q a i g Q E E ` j.j. .YXk.YXYXYXYXYXYXYXYX",
"YXYXYXYXYXYXYXYXYXYXF.f.a A.) w P g p ! %.Q ! ;.&.j j e p e 6 y y y a ` k.H...h YXYXYXYXYXYXYXYX",
"YXYXYXYXYXYXYXYXc.q O.t o.' y h h j &.;.;.;.S f 7 < < < < < < < 1 1 5 4 i C.l.q R 2.YXYXYXYXYXYX",
"YXYXYXYXYXYXYX!.@.j.y P U y p j ! ;.,.-.S A v x b n 6.5.5.5.5.5.5.n m v , e <.L.' YXYXYXYXYXYXYX",
"YXYXYXYXYXYX).` [ 8 y 6 t t j &.-.-.&.D v b n 5.7.9.r.r.r.r.r.r.r.r.9.7.5.m K L A YXYXYXYXYXYXYX",
"YXYXYXYXYXYXO.s 8 4 4 w z ! &.-.,.S A x b 6.7.w.y.u.u.i.i.i.i.i.i.i.i.i.r.r.8.F }.c YXYXYXYXYXYX",
"YXYXYXYXYXF.t y w 1.|.#X6X5XI.I.&.f A Z q.T.T.T.U.t.t.e.e.y.u.y.e.e.y.y.p.a.u.8.L }.< YXYXYXYXYX",
"YXYXYXYX).) 3 j $X5X5X].].'.'.'.G.,.J #XxXVXAXAXAXjXaX1X3X4X4X*X*XT.T.T.U.t.a.a.q.}.J YXYXYXYXYX",
"YXYXYXYXd.r h ^.'././././.!.~.F.E.R.I.SXcXfXpXqX<XfXCXxXxXAXAXAXPXLXIXIXPXAXSXNX3X}.}.M YXYXYXYX",
"YXYXYXYX3 a R.(.~./.(.).(./.W.Q.x.s.l.mXFXcXMXMXqXpXMXyX,XpXwX<X1XdXkXqXqXiXlXAXLX+X4.0.= YXYXYX",
"YXYXYX$ u S./.Q.!.(.).).(./.!.E.x.Z Z P.ZXBXMXNXcXfXBXJXaXMXVXJXyXmXVXuX1XsXyX9XFXFX[. Xc YXYXYX",
"YXYXYX* +.!.F.R.!./.(.(./.!.~.R.Y.H.z.g.5XJXkXMXqXqXJXKXlXcXVXKXuXdXBXDXaXmXGXnXiXLX+X}.H YXYXYX",
"YXYXYX7 F.D.F.E.Q.!.!./.!.Q.R.E.E.V.V.x.N.B.3XVXuX;XqXzXeX<XnXSXrXqXFXKXiXcXGXHXzXKXhX}.[.; YXYX",
"YXYX% O.H.z.D.E.E.R.Q./././.!.F.f.P.7XFXUX.XB.XXKXzX6XkXqX1XgXaXeX>XdXJX0X>XhXDXZXFXFX X.XM YXYX",
"YXYX7 S.S.S.S.D.F.E.E.D.z.h.X.X.+XLXtXCXLXJX>XOX[.:XGXGXlXqXNXVXCXpXfXcXaX1X1XaXwXZXLX.X XA YXYX",
"YXYXV A.j.f.S.S.D.D.d.s.D e 5 F :XkX:XqXnX0XaXKX8X[.;XLXDXyXNXGXDXsXMXGXnXfXVXVXhXrXLX:X{.H   YX",
"YX* { j.j.f.f.S.S.z.s.) ( ..7 D .XiXfXNXCXaX1XsXHXeX X>XjXqXbXJXFXzXBXGXDXdXMXVXlXrXLXwX.X0.@ YX",
"YX+ ' #.O.h.j.z.z.' a r g @.-.7 J %XfXVXHXlXmXGXhX1XNXpX0X1XdXhXjXqXaXlXZXdXBXHXDXjXLXrX.X}.; YX",
"YX+ ) o.#.O.h.f./ t t t a ] -.! l v.;XcXSXwX<XhXwXqXBXHXzX3XNXBXkX6X3XaXiXyXpXiXjXjXLXrX.X{.> YX",
"YX+ ) [  . .h.( y h a y p ( -.! a F OX>X+X+X>XwXzXpXkXFXlXvXCXGXlXpXVXGXzXpXcXfX0XrXLXrX@X X; YX",
"YX@ 8 ( (  .' a h 8 h a p k ;.&.a F b.<XlXsXVXVXwX1XaXnXeX1XnXFXrXsXVXHXwXpXBXGXjXZXLX0XoX{.+ YX",
"YX@ 8 U / ) 9 h W 9 g g a k %.&.s l b.8XlXcXGXDX<XmXVXlX1XpXfXzX:XpXzXzXwXcXVXHXZXFXLX+XoXv.# YX",
"YXo 5 E P 9 9 I I W P k h 8 k ! a j b..XeXsXzXhXpXVXGXlX3XVXVXDXpXgXkXrX1XfXaXzXjXHXKX+X+XJ . YX",
"YX: 5 R h 0 g / ( I I Q P h l &.s j [.@XsXbXiXeXqXaXDXeXsXBXHXjX3XVXGXlXqXmXdXwXrXLXDX+X,XK   YX",
"YXYX& d p =.Q P ) _ / I I k h ! a S {..XMXGXDXpXMXkXjX:XpXaXjXwXgXVXHXyXsXCXGXZXZXLXrXXX>XM YXYX",
"YXYX& t h >.*.P P ` ( / %.P p j E S 0..XMXGXzXgXBXGXzXfXNXbXwXeXkXaXjXqXcXVXGXiXZXLX:X;XOX+ YXYX",
"YXYX= 4 ! M.>.( k / ' _ / _ p p R F b.+XzXhX<XaXBXFXaXbXMXFXlXJXHXSXlXhXzXkXiXjXLXZX+XpXv.  YXYX",
"YXYX= * ! M.<.../ U / ' ( _ g s E G 0.%XGXGXkXhXzX>X1XcXGXJXzXHXFXFXKXLXHXFXrXZXLX<X;X1XM   YXYX",
"YXYX@ O D P.k.+.} / W ( ] ( ( a R D K XXyXyXnXGXHXCXlXuXiXwXlXHXKXKXFXHXLXLXPXLXiX;XgXOX  YXYXYX",
"YXYXYXX 7 H.Z.@.+.%.V %.( ] ] P s 7 O M v.oX2X1XyXiXFXKXJXZXlXjXiXDXLXLXzXrX:X>X,X1X3Xc   YXYXYX",
"YXYXYXO * F.H.C.>.>...] ( ) ] ' ~ e o   . ; H |.oX4X3X3XlXFXKXKXFXPXeXOXB.n.OX-X,XNXn.  YXYXYXYX",
"YXYXYXYX$ O.(.C.M.M.k.o.%.P ) ] *.p @ + ; # q q D 1.{.oX4X3XyXfXiX:XN.N.OX=X;X;XvX,X@ o YXYXYXYX",
"YXYXYXYX2 h A.} Y.x.C.+.=.I P / ] Q 1 o , G ,.C ) q 6 Q 1.XX-X6X6X;X,X,X,X6X6XcXmXc   YXYXYXYXYX",
"YXYXYXYXYXf d w d.`.L.m.<...P P U ` U @ M G G ,.=.>.>._ Y | S H XX6XmXbXgX6XgXVXH   YXYXYXYXYXYX",
"YXYXYXYXYXM s r P (.H.M.m.k.>.E P P / P f A D G G ,.,.M.@.V #   . v K 7X6XVXBXA   , YXYXYXYXYXYX",
"YXYXYXYXYXYXF e w } *.h.E.3.k.=.Q h W T P D N A A ,.,.C 7 o @ , -   B #.;.-X'.B & YXYXYXYXYXYXYX",
"YXYXYXYXYXYXK A 7 d u h (.H.@.l.+.:.=.Q h E 8 f 0 M > X O ; > , 6 | K.@.F.2.$.B YXYXYXYXYXYXYXYX",
"YXYXYXYXYXYXYXYX< f d u h.E.R z.D.m.M.>.U 8 R 6 6 4 5 5 * * 5 4 R :.P.j.$.& YXYXYXYXYXYXYXYXYXYX",
"YXYXYXYXYXYXYXYXYXM A 1 4 ~ t U ).A.l.Q.3.<.<.:.] ! ~ | ~ ~ } <.A.h.C + YXYX  YXYXYXYXYXYXYXYXYX",
"YXYXYXYXYXYXYXYXYXYX, , , r y 5 | :.R W.).<.S.`.k.x.^.C.J.^.J.@.V = X O ; @ YXYXYXYXYXYXYXYXYXYX",
"YXYXYXYXYXYXYXYXYXYXYXYX2 < 1 ; $ 4 w 4 @.~ 6 f.:.Y d.U 6 V > @ . O + ; @ YXYXYXYXYXYXYXYXYXYXYX",
"YXYXYXYXYXYXYXYXYXYXYXYXYXYX; ; = = = O $ * $ $ * $ % @ O . o @ + + 2 YXYXYXYXYXYXYXYXYXYXYXYXYX",
"YXYXYXYXYXYXYXYXYXYXYXYXYXYXYXYX+ + ; @ # = ; o = ; + # ; + ; +   YXYXYXYXYXYXYXYXYXYXYXYXYXYXYX",
"YXYXYXYXYXYXYXYXYXYXYXYXYXYXYXYXYXYXYX@ ; + + ; ; + # + ;   YXYXYXYXYXYXYXYXYXYXYXYXYXYXYXYXYXYX"
};
