/* XPM */
static char *mozicon50[] = {
/* width height ncolors chars_per_pixel */
"48 48 248 2",
/* colors */
"AA c #3C3C38382D2D",
"BA c #1D1D54543C3C",
"CA c #292978783E3E",
"DA c #2C2C7A7A3939",
"EA c #080860604040",
"FA c #0E0E69694141",
"GA c #0A0A6B6B4848",
"HA c #070777774A4A",
"IA c #13136D6D4242",
"JA c #12126D6D4949",
"KA c #1B1B65654A4A",
"LA c #1E1E68684B4B",
"MA c #161670704747",
"NA c #141470704B4B",
"OA c #191970704141",
"PA c #1D1D74744545",
"AB c #1D1D75754E4E",
"BB c #19197E7E4545",
"CB c #2A2A62624545",
"DB c #29296E6E5353",
"EB c #212176764343",
"FB c #212174744B4B",
"GB c #252579794242",
"HB c #282879794747",
"IB c #2C2C7C7C4343",
"JB c #2E2E7F7F4040",
"KB c #2B2B7A7A4A4A",
"LB c #24247A7A5050",
"MB c #29297A7A5454",
"NB c #313161614C4C",
"OB c #3A3A6E6E4444",
"PB c #3D3D65655050",
"AC c #353577774242",
"BC c #37377F7F4E4E",
"CC c #32327D7D5555",
"DC c #62622F2F2121",
"EC c #414149493939",
"FC c #55554B4B3F3F",
"GC c #52525C5C5252",
"HC c #454563634343",
"IC c #4F4F6D6D5656",
"JC c #484873734141",
"KC c #464676765555",
"LC c #585867674A4A",
"MC c #5F5F74744B4B",
"NC c #555577775151",
"OC c #59596F6F6060",
"PC c #60605E5E5757",
"AD c #78785A5A4343",
"BD c #676770705757",
"CD c #77776C6C5C5C",
"DD c #6B6B66666262",
"ED c #6B6B78786666",
"FD c #757570706A6A",
"GD c #7D7D78786E6E",
"HD c #353584843535",
"ID c #333382823E3E",
"JD c #3A3A84843E3E",
"KD c #3F3F87873D3D",
"LD c #161682824646",
"MD c #252584844141",
"ND c #2C2C99994242",
"OD c #363681814242",
"PD c #3D3D85855353",
"AE c #4E4E8F8F2F2F",
"BE c #44448B8B3737",
"CE c #414189893B3B",
"DE c #43438A8A3C3C",
"EE c #42428C8C3C3C",
"FE c #47478E8E3E3E",
"GE c #4B4B8D8D3737",
"HE c #48488C8C3939",
"IE c #4C4C8F8F3939",
"JE c #484896963333",
"KE c #4E4E92923A3A",
"LE c #5F5F8E8E3737",
"ME c #555595953131",
"NE c #505092923838",
"OE c #545499993D3D",
"PE c #595999993131",
"AF c #5858A6A63E3E",
"BF c #62629C9C2E2E",
"CF c #6E6E92922F2F",
"DF c #616192923D3D",
"EF c #6969A3A32D2D",
"FF c #6161A0A03939",
"GF c #6B6BAAAA3333",
"HF c #6B6BACAC3C3C",
"IF c #7575A7A72C2C",
"JF c #7676A8A83E3E",
"KF c #7C7CB4B43939",
"LF c #424288884242",
"MF c #4B4B86864444",
"NF c #4E4E8E8E4343",
"OF c #4A4A86865454",
"PF c #585888884242",
"AG c #5D5D97974E4E",
"BG c #5D5D97975B5B",
"CG c #42428A8A6767",
"DG c #595990906767",
"EG c #68688B8B4949",
"FG c #60609B9B4242",
"GG c #70709D9D4545",
"HG c #666681816D6D",
"IG c #7A7A82826666",
"JG c #7979A4A47070",
"KG c #757598988888",
"LG c #A0A031311818",
"MG c #BDBD43431717",
"NG c #8C8C7F7F6969",
"OG c #83837C7C7272",
"PG c #BBBB73734040",
"AH c #CECE5F5F1D1D",
"BH c #D8D848481818",
"CH c #C9C96C6C2E2E",
"DH c #E2E25E5E0E0E",
"EH c #E3E355551414",
"FH c #929297973333",
"GH c #9C9CBABA1F1F",
"HH c #8282AAAA2525",
"IH c #8A8AADAD3B3B",
"JH c #8888B3B32626",
"KH c #8787BCBC3A3A",
"LH c #9E9EADAD2A2A",
"MH c #9393B8B82020",
"NH c #9C9CB8B83C3C",
"OH c #A1A1BEBE1D1D",
"PH c #86868E8E5E5E",
"AI c #888881817979",
"BI c #828297976363",
"CI c #878792927A7A",
"DI c #95958A8A7777",
"EI c #95958D8D7F7F",
"FI c #979791917272",
"GI c #9E9E95957B7B",
"HI c #8B8BACAC4747",
"II c #9F9FB1B15454",
"JI c #8585B2B26262",
"KI c #BDBD86865D5D",
"LI c #AFAFB0B07070",
"MI c #9494C3C32F2F",
"NI c #A8A8C2C21B1B",
"OI c #B2B2C8C81717",
"PI c #BDBDD0D01414",
"AJ c #AAAAC6C62F2F",
"BJ c #BEBEC6C62020",
"CJ c #BFBFCCCC2424",
"DJ c #B0B0C3C33E3E",
"EJ c #B4B4C7C76969",
"FJ c #C1C196967272",
"GJ c #C7C7CBCB0E0E",
"HJ c #CCCCD8D80F0F",
"IJ c #C4C4D3D31212",
"JJ c #D5D5DBDB0C0C",
"KJ c #D0D0DADA1717",
"LJ c #DFDFE3E30A0A",
"MJ c #EFEFECEC0404",
"NJ c #E2E2E7E73B3B",
"OJ c #D0D0DEDE7676",
"PJ c #878788888080",
"AK c #888895958989",
"BK c #90908A8A8484",
"CK c #9B9B95958A8A",
"DK c #9A9A99999292",
"EK c #9090B5B58A8A",
"FK c #A4A49C9C8282",
"GK c #A6A69E9E8D8D",
"HK c #A1A19B9B9292",
"IK c #ABABA5A58A8A",
"JK c #A6A6A4A49999",
"KK c #ADADA9A99D9D",
"LK c #B3B3AEAE8B8B",
"MK c #B4B4ADAD9696",
"NK c #BFBFB4B49494",
"OK c #B1B1ADADA3A3",
"PK c #B4B4B1B1A5A5",
"AL c #B6B6B4B4ACAC",
"BL c #B9B9B4B4A3A3",
"CL c #BBBBB7B7A8A8",
"DL c #BABAB7B7ADAD",
"EL c #BBBBBABAB1B1",
"FL c #C6C6BEBE9D9D",
"GL c #C0C0BBBBA9A9",
"HL c #C1C1BEBEADAD",
"IL c #C1C1BEBEB1B1",
"JL c #CACAD5D59999",
"KL c #C8C8C4C4A1A1",
"LL c #C5C5C2C2B1B1",
"ML c #C7C7C4C4B5B5",
"NL c #C4C4C1C1B8B8",
"OL c #C6C6C4C4BEBE",
"PL c #C9C9C5C5B0B0",
"AM c #CACAC7C7B6B6",
"BM c #C9C9C7C7BCBC",
"CM c #CECECBCBB5B5",
"DM c #CCCCCACABCBC",
"EM c #D3D3CBCBAAAA",
"FM c #D1D1CECEB9B9",
"GM c #DFDFDDDDA8A8",
"HM c #D5D5D0D0B5B5",
"IM c #D4D4D2D2BDBD",
"JM c #DADAD6D6B1B1",
"KM c #D9D9D5D5BCBC",
"LM c #DDDDD9D9BEBE",
"MM c #DCDCE6E69999",
"NM c #E2E2DEDEBEBE",
"OM c #CCCCCACAC2C2",
"PM c #D1D1CFCFC3C3",
"AN c #D5D5D3D3C3C3",
"BN c #D6D6D3D3C9C9",
"CN c #D8D8D5D5C1C1",
"DN c #DFDFDBDBC4C4",
"EN c #DADAD8D8C8C8",
"FN c #DDDDDBDBCDCD",
"GN c #DEDEDDDDD5D5",
"HN c #E2E2DEDEC8C8",
"IN c #E3E3DFDFCECE",
"JN c #E4E4E1E1C6C6",
"KN c #EAEAE6E6C6C6",
"LN c #EAEAE6E6CACA",
"MN c #EDEDE9E9C8C8",
"NN c #EDEDE9E9CECE",
"ON c #E4E4E2E2D5D5",
"PN c #E7E7E6E6D3D3",
"AO c #E6E6E4E4DADA",
"BO c #E8E8E6E6D8D8",
"CO c #ECECEAEAD5D5",
"DO c #EDEDEBEBDBDB",
"EO c #F0F0ECECCBCB",
"FO c #F3F3EEEED3D3",
"GO c #F2F2EFEFD8D8",
"HO c #F4F4F0F0CFCF",
"IO c #F6F6F2F2D2D2",
"JO c #F6F6F2F2D5D5",
"KO c #F5F5F2F2DCDC",
"LO c #F7F7F4F4D8D8",
"MO c #F8F8F4F4D3D3",
"NO c #F9F9F5F5DBDB",
"OO c #FAFAF6F6DEDE",
"PO c #EDEDECECE2E2",
"AP c #F3F3F0F0E4E4",
"BP c #F6F6F4F4E4E4",
"CP c #F6F6F4F4EAEA",
"DP c #F9F9F7F7EBEB",
"EP c #FCFCF9F9E6E6",
"FP c #FCFCFAFAEBEB",
"GP c #FFFFFEFEF4F4",
"HP s bg c None",
/* pixels */
"HPHPHPHPHPHPHPHPHPHPHPHPHPHPHPHPHPHPKGMEEFEFAGAGAGAGAGAGEFEFKGHPHPHPHPHPHPHPHPHPHPHPHPHPHPHPHPHP",
"HPHPHPHPHPHPHPHPHPHPHPHPHPHPHPKGKGMEMEEFDAFAIDEFPEDAIAIDFFBFMEBEEKHPHPHPHPHPHPHPHPHPHPHPHPHPHPHP",
"HPHPHPHPHPHPHPHPHPHPHPHPHPKGHHAEIBOEBFOAFAGBJDCAFAOAIBBEHDOAEBEEKEKGKGHPHPHPHPHPHPHPHPHPHPHPHPHP",
"HPHPHPHPHPHPHPHPHPHPHPHPEFGFAEIAIDIDPAOAGBCAEBHBKBKBHBFBPAEBIBGBPAIDBFIFBGHPHPHPHPHPHPHPHPHPHPHP",
"HPHPHPHPHPHPHPHPHPHPHPBEOEMEIAPAGBHBBCPDPDPDBCBCACCBCBBABABABAFABAFAMAIDGFGFHPHPHPHPHPHPHPHPHPHP",
"HPHPHPHPHPHPHPHPHPKGDAJDBEGBFBKBBCPDOFOFPDKCHCECAAAADCDCDCDCDCAAAAAABAEAMDIFIFHPHPHPHPHPHPHPHPHP",
"HPHPHPHPHPHPHPHPIFDAIAGBPAFBLBPDOFOFOFKCHCDCDCDCLGLGLGLGLGLGLGLGLGLGDCDCAANBMFFGHPHPHPHPHPHPHPHP",
"HPHPHPHPHPHPHPNEJDFAOAMANALBOFBGBGOFICFCDCLGLGMGMGBHBHBHBHBHBHBHBHBHMGMGLGFCGCFDBKHPHPHPHPHPHPHP",
"HPHPHPHPHPHPHDIBFAIAMBCGCGDGBGBGOFPBFCDCLGMGBHEHEHEHEHEHEHEHEHEHEHEHEHEHBHMGADDDFDOKHPHPHPHPHPHP",
"HPHPHPHPHPKGEBJACGEKJLMMOJOJEJJIPBLCADNGKIKIKIPGCHCHAHAHAHAHDHDHDHDHDHDHDHDHAHCDGDFDHPHPHPHPHPHP",
"HPHPHPHPHPEAABJINJNJNJNJLJKJKJOIHHIGKKEMLMJNJNJNDNKMKMHMEMFLNKFJFJFJKIKIPGCHAHPGFDOGOKHPHPHPHPHP",
"HPHPHPHPJGJAJHLJLJMJMJMJLJJJHJPIPINHKLLMIMFMCMGLCLLLLLHLIMDNDNFNPNDOKOGOCOINHNENHKGDGDHPHPHPHPHP",
"HPHPHPHPGAHHJJJJLJMJMJMJMJLJKJCJLHFHEJEOHOHOHOHNCMMNLNGLHMKMFMOKHLLLELPKLLDMANBODOAIOGOKHPHPHPHP",
"HPHPHPKGBFIJHJJJMJMJMJMJLJLJHJAJFHADFHJLJOIOIONNPLHONOPMLMMONOFMLMHONNHLNMJNDNILBPCLGDGDHPHPHPHP",
"HPHPHPIDNIPIHJJJLJMJMJMJLJJJHJPINILHGHDJJMIMDNJNPLNNOOBOCMLOOOONCMIOLOPMLMJONOPMONONAIOGOKHPHPHP",
"HPHPKGHHOIOIIJHJJJJJMJJJMJHJIJPIOIGHNILILILKHMCNPKCLMLBMOKKMFNAOILFOOOONFMLOOOBOOMFPHKOGFDHPHPHP",
"HPHPKGGHNIOIPIIJHJHJJJHJJJHJPINIDJEJGMNNAMFIFKJNANNMNNHNBLHMFMMLJKGLLLBMOKANFNBONLFPMLGDOGHPHPHP",
"HPHPIFGHGHNIOIPIIJIJIJNIMHIFLEBICMOLIMOOAPHLGLBKJKLMJONOMLMNJONOCMNMMNHNPKHMFMMLALAPENAIOGDLHPHP",
"HPKGIFJHMHGHNIOINIOHJHCFJCHCHCBKLLPKGLMLBMPKHNLNCKGKJOEPBMLNJOOOOMNMIOKOLLMNHOLOBMDOAOBKNGDLHPHP",
"HPEFEFHHJHGHGHOHMHHHCFDFDFJCHCIGPLLLKNIOHNBLKMIMALCKKKENELDNKOEPPMJNKOBPMLKNIONOPMAOAPCKAIPKHPHP",
"HPEFEFIFHHJHMHMHHHIEEBNABFFGOBNCCKPKEONOPNCMMOOOMLLMLMCNOKPLMLDMALCMLNPOLLMNKOEPBNAOCPCKEIEIHPHP",
"HPOFPEBFIFIFJHIFIDJAGAJAFEOEPDKBEDOGGLENILCMLNLNELKNJOGOLLEOHOFOHLCMIMDMKKPLANINOLAODPHKEIEIHPHP",
"HPOFGEMEBFEFIFJDPAPALAJAJDMFPDLBDGOGBLLLJKKKCLBMPKJNLODOPLIOJOKOLLEOHOGOHLKNDNDNALAOCPHKEIEIHPHP",
"HPKCCEFENEBFGECAIBGBPAMAODMFPDLBOFOGGKCNLLMNFOANBLCMMLELCLHNGOAPLLIOJODOLLIOJOOODMAPAPCKEIEIHPHP",
"HPKCDAJDBEMEJBIDODIBIBGBODCEPDLBCCIGCKIMCMIOOOIMLMIONOBMPLFMMLDLPKLMCOFNFMMOLOKOOLGPONCKEIPKHPHP",
"HPOCPAGBBEEEIBJDDAODIBIBODACBCLBMBIGAIDKDLLMPNLLMNNOBPLLKNIONOFMCMIMIMPKCLCNINBOOMGPBNCKDIPKHPHP",
"HPHGJAMANEIDIDEEEEJDJDODODIBBCLBMBCICKJKLMCNDLJKMLENFNPLIOMOKOLLMNJOKOMLLMLMCNDLGNGPILCKDIDLHPHP",
"HPAIGAMADFNFODKDHECEKDJDJDIBKBLBCCCIAIMKJOOODMLMJNCNOKPKCMDNENCMJONODOLLHOJOOOBMPOFPKKFKDIILHPHP",
"HPDKLAEBGGGGFEJDHEIEFEEEEEIBABLBCCIGFDPLLOCOPLHONOKOAMKNHNANPKILCNLNBMKMIONODOOLGPONGKGKDIHPHPHP",
"HPHPPBHBHIGGFGCEEEIEKEHEFEODMALBPDOGAIKKAMDLKMJOOOENIMIOLOKOPMBPBOFNELMLCNPNANGNGPMLGKFKFKHPHPHP",
"HPHPEDKBHIHIJFOEKEGEKEKEGEEEMAABOFCDBKKMPNENMLLLDMBLMNJOOOENONFPFPFPFPCPBOFNELDPPOMKGKGIFKHPHPHP",
"HPHPBKOBIINHKFHFOECEHEKEKEKEIBNAPDGCPCDIGLHNGOKOHNBMILAMIMANFPFPEPFPFPEPGPAOAOCPHLMKIKFKOKHPHPHP",
"HPHPHPICNHDJKHKHFGKDEEGENEKEHENABCECFCCDNGDIGKGLHNAPEPAOANBMOMFNDOCPGPBPCOOMBNBLNKMKFKFKHPHPHPHP",
"HPHPHPGDIHCJKHKFGGFGKEIEIEKEKEDACCGCFCGCPCCDNGDIDIGKGLINAPFPBPAOFNANOMIKFIGIIKNKMKNKFKOKHPHPHPHP",
"HPHPHPKGLECJMIIHIHJFHFBFEEHEKEIEBCBDDDOGOGGCOBICEDNGDIDIIKBLHMENDMMKGIFIFIGIIKMKFLFKFKHPHPHPHPHP",
"HPHPHPHPKCIHGFIHNHKFKFGGPFLFGEIEFENCDDBKEILCJCJCOBOBNCIGAIGIDIDIGIGIIKLKKLFLNKKLFKFKOKHPHPHPHPHP",
"HPHPHPHPKGMDLDBFBJKHKHJFJFOEODCEHENFBDFDMCMCMCMCMFJCJDDADENCGDGIFKGKNKFLFLEMKLKLFKOKHPHPHPHPHPHP",
"HPHPHPHPHPCCGACAGJMIKHHIKHKHFEIDCEEEMFHCFCLCLCMCMCEGEGGGOEACECGCPCNGFKFLFLKLEMFKFKHPHPHPHPHPHPHP",
"HPHPHPHPHPHPDBKAEFJHJFDJKHKHOENFIDIDODDAHCGCLCLCMCEGEGPFMCFDOGOGCDPCPFIILIJLPHBDHPHPHPHPHPHPHPHP",
"HPHPHPHPHPHPHPOCPAMDLDBJAJKHJFJFAFOELFCEIDACHCHCLCMCBDFDCIDKKKKKJGAGMIGFMHOHLKHPHPHPHPHPHPHPHPHP",
"HPHPHPHPHPHPHPHPICGAHAJEJJKFMHNIKHKFGGFGCEODCACAACICEDPJDKDKAKCGNDHFMIMIHIPKHPHPHPHPHPHPHPHPHPHP",
"HPHPHPHPHPHPHPHPHPOCCBFAEFJEBEJJAJIHDJKHKFGGFGOEACGBGBIBKBKBIBACJFDJIIJKOKHPHPHPHPHPHPHPHPHPHPHP",
"HPHPHPHPHPHPHPHPHPHPKGGCKAHAHAPEGHOENIPIKHNHAJKHHIJFHFAJAJMIAJAJIIIKOKKKHPHPHPHPHPHPHPHPHPHPHPHP",
"HPHPHPHPHPHPHPHPHPHPHPHPFDPBNBCBBBHAMDMHKFNDOHJHGFOIMIAFHFHFAGHGPJPJCKHPHPHPHPHPHPHPHPHPHPHPHPHP",
"HPHPHPHPHPHPHPHPHPHPHPHPHPHPOGFDGCPBGCNBOBCBPAJBLAJCJCNBICPCDDFDAIHPHPHPHPHPHPHPHPHPHPHPHPHPHPHP",
"HPHPHPHPHPHPHPHPHPHPHPHPHPHPHPHPBKGDFDDDPCPCPCGCPCPCPCDDFDGDBKHPHPHPHPHPHPHPHPHPHPHPHPHPHPHPHPHP",
"HPHPHPHPHPHPHPHPHPHPHPHPHPHPHPHPHPHPHPHKCKGCGCGCGCGCGCHKHKHPHPHPHPHPHPHPHPHPHPHPHPHPHPHPHPHPHPHP",
"HPHPHPHPHPHPHPHPHPHPHPHPHPHPHPHPHPHPHPHPHPHPHPHPHPHPHPHPHPHPHPHPHPHPHPHPHPHPHPHPHPHPHPHPHPHPHPHP"};
