/* XPM */
static char * mozicon16[] = {
/* columns rows colors chars-per-pixel */
"16 16 94 2",
"   c black",
".  c #1E5D00",
"X  c #2E5C38",
"o  c #345D3F",
"O  c #3B513A",
"+  c #3E5339",
"@  c #296C36",
"#  c #217440",
"$  c #247843",
"%  c #2D704A",
"&  c #2C7B4F",
"*  c #2E7B4C",
"=  c #2E7D4C",
"-  c #4A634C",
";  c #4E6D49",
":  c #5B6051",
">  c #5B6150",
",  c #5E6352",
"<  c #5A6E52",
"1  c #5E704E",
"2  c #65624C",
"3  c #62665C",
"4  c #727360",
"5  c #009B32",
"6  c #38833E",
"7  c #00AD6B",
"8  c #368446",
"9  c #3B8346",
"0  c #3C8643",
"q  c #3E884D",
"w  c #3B8453",
"e  c #42853F",
"r  c #458C3C",
"t  c #4C8F36",
"y  c #498E39",
"u  c #488F3E",
"i  c #4D9138",
"p  c #529234",
"a  c #5E9530",
"s  c #5C9832",
"d  c #5A9A3E",
"f  c #618832",
"g  c #70A22B",
"h  c #76A729",
"j  c #76AF31",
"k  c #7EB63F",
"l  c #418543",
"z  c #478640",
"x  c #4D8D4F",
"c  c #428556",
"v  c #478854",
"b  c #529742",
"n  c #5B9C40",
"m  c #5E8160",
"M  c #66884A",
"N  c #659440",
"B  c #62A142",
"V  c #008080",
"C  c #B82400",
"Z  c #874D2F",
"A  c #B34123",
"S  c #877A64",
"D  c #EB4300",
"F  c #FF4614",
"G  c #808000",
"H  c #9BBB1D",
"J  c #89BA3E",
"K  c #93AB22",
"L  c #90A63A",
"P  c #AEBD19",
"I  c #A1B739",
"U  c #909854",
"Y  c #8C816C",
"T  c #8D8071",
"R  c #8F8676",
"E  c #99937E",
"W  c #90B943",
"Q  c #A2917D",
"!  c #B2B676",
"~  c #ABC51B",
"^  c #BFCD13",
"/  c #BFD117",
"(  c #CFDC0F",
")  c #C3D413",
"_  c #E8E906",
"`  c #FDF400",
"'  c #ABA99A",
"]  c #B2ADA6",
"[  c #B3AEA8",
"{  c #C1BFAE",
"}  c #CCCAC0",
"|  c #E1E1E1",
" . c gray100",
".. c None",
/* pixels */
"............x x . . q x ........",
"......... # * % o O + X @ ......",
"....... = c ; Z A F F F F F F C ",
"..... ~ / V 5 G A D D D D D D C ",
"... ( ` _ P 2   ' {  .{  .{  .Q ",
". g ) ^ K L ! ' 2 { { { { { { Q ",
". g H a e m  .{ | '  .{  .{  .Q ",
". p h $ 8 v { { { { { { { { { Q ",
". s t 6 0 w  .}  .{  .{  .{  .Q ",
". s n y r * ' { { { { { { { { E ",
"... W N i 9 > '  .{  .{  .{  .Q ",
"... f I n r < > , 4 R T Y S . ..",
"..... f J b z z z - 3 1 U . 7 ..",
"....... f j k B l B B ... 7 ....",
"........7 . . M M . . 7 ........",
"............[ [ ] ] ............"
};
