<?xml version="1.0"?>
<!-- This Source Code Form is subject to the terms of the Mozilla Public
   - License, v. 2.0. If a copy of the MPL was not distributed with this
   - file, You can obtain one at http://mozilla.org/MPL/2.0/. -->
<svg xmlns="http://www.w3.org/2000/svg" xmlns:xlink="http://www.w3.org/1999/xlink" width="16" height="16" viewBox="0 0 16 16">
  <style>
    path {
      fill-rule: evenodd;
      fill:#4d4d4d;
    }
  </style>
  <path d="M199.008,47.642l0.983,2.01,0.452,0.924,1.015,0.17,2.324,0.389-1.719,1.8-0.676.708,0.145,0.968,0.36,2.4-1.953-1.038-0.938-.5-0.939.5-1.951,1.037,0.36-2.4,0.146-.969-0.676-.709-1.718-1.8,2.349-.39,1.024-.17,0.45-.935,0.962-2M199,44a0.953,0.953,0,0,0-.772.651l-1.984,4.122-4.332.72a0.851,0.851,0,0,0-.53,1.563l3.112,3.262-0.69,4.589c-0.1.69,0.172,1.094,0.658,1.094a1.394,1.394,0,0,0,.634-0.181L199,57.744l3.9,2.075a1.4,1.4,0,0,0,.635.181c0.485,0,.761-0.4.658-1.094l-0.687-4.589,3.108-3.259a0.853,0.853,0,0,0-.53-1.566l-4.3-.72-2.016-4.122A0.953,0.953,0,0,0,199,44h0Z" transform="translate(-191 -44)"/>
</svg>
