<svg xmlns="http://www.w3.org/2000/svg" width="16" height="16" viewBox="0 0 16 16"><g fill="context-fill"><path d="M13.374 1H4.623A2.83 2.83 0 0 0 2 4v4h2V4a.928.928 0 0 1 .833-1h8.333A.928.928 0 0 1 14 4v8a.928.928 0 0 1-.833 1H4.833A.928.928 0 0 1 4 12v-1H2v1a2.833 2.833 0 0 0 2.627 3h9.623A1.888 1.888 0 0 0 16 13V4a2.833 2.833 0 0 0-2.626-3z"/><path d="M7.146 11.146a.5.5 0 1 0 .707.707l2-2a.5.5 0 0 0 0-.707l-2-2a.5.5 0 0 0-.707.707L8.293 9H1.5a.5.5 0 0 1-.5-.5v-2a.5.5 0 0 0-1 0v2A1.5 1.5 0 0 0 1.5 10h6.793z"/></g></svg>