<svg xmlns="http://www.w3.org/2000/svg" width="16" height="16" viewBox="0 0 16 16">
  <style>
    path {
      fill: #4d4d4d;
    }
  </style>
  <g>
    <path d="M11.414,10l2.293-2.293a1,1,0,0,0,0-1.414,4.418,4.418,0,0,0-.8-.622L11.425,7.15l.008,0-4.3,4.3,0-.017-1.48,1.476a3.865,3.865,0,0,0,.692.834,1,1,0,0,0,1.37-.042L10,11.414l3.293,3.293a1,1,0,0,0,1.414-1.414Z"/>
    <path d="M14.707,1.293a1,1,0,0,0-1.414,0L9.7,4.882A2.382,2.382,0,0,1,8,2.586V2a1,1,0,0,0-1.707-.707l-5,5A1,1,0,0,0,2,8h.586a2.382,2.382,0,0,1,2.3,1.7L1.293,13.293a1,1,0,1,0,1.414,1.414l12-12A1,1,0,0,0,14.707,1.293Zm-9,6A4.414,4.414,0,0,0,4.136,6.278L6.279,4.136A4.4,4.4,0,0,0,7.292,5.707a4.191,4.191,0,0,0,.9.684l-1.8,1.8A4.2,4.2,0,0,0,5.708,7.293Z"/>
  </g>
</svg>
