<svg width="16" height="16" viewBox="0 0 16 16" fill="context-fill" fill-opacity="context-fill-opacity" xmlns="http://www.w3.org/2000/svg">
  <path d="M1.5 1a.5.5 0 0 0 0 1h13a.5.5 0 0 0 0-1h-13Zm0 7a.5.5 0 0 0 0 1h13a.5.5 0 0 0 0-1h-13Zm8 6a1.5 1.5 0 0 0 1.5-1.5v-1A1.5 1.5 0 0 0 9.5 10h-3A1.5 1.5 0 0 0 5 11.5v1A1.5 1.5 0 0 0 6.5 14h3Zm.5-1.5a.5.5 0 0 1-.5.5h-3a.5.5 0 0 1-.5-.5v-1a.5.5 0 0 1 .5-.5h3a.5.5 0 0 1 .5.5v1ZM11.5 7A1.5 1.5 0 0 0 13 5.5v-1A1.5 1.5 0 0 0 11.5 3h-7A1.5 1.5 0 0 0 3 4.5v1A1.5 1.5 0 0 0 4.5 7h7Zm.5-1.5a.5.5 0 0 1-.5.5h-7a.5.5 0 0 1-.5-.5v-1a.5.5 0 0 1 .5-.5h7a.5.5 0 0 1 .5.5v1Z"/>
</svg>
