<svg xmlns="http://www.w3.org/2000/svg" viewBox="0 0 16 16" width="16" height="16" fill="context-fill" fill-opacity="context-fill-opacity">
  <path d="M1.5 2A1.5 1.5 0 0 0 0 3.5v2A1.5 1.5 0 0 0 1.5 7h2A1.5 1.5 0 0 0 5 5.5v-2A1.5 1.5 0 0 0 3.5 2ZM1 3.5a.5.5 0 0 1 .5-.5h2a.5.5 0 0 1 .5.5v2a.5.5 0 0 1-.5.5h-2a.5.5 0 0 1-.5-.5ZM7.5 3a.5.5 0 0 0 0 1h8a.5.5 0 0 0 0-1Zm0 2a.5.5 0 0 0 0 1h6a.5.5 0 0 0 0-1Zm-6 4A1.5 1.5 0 0 0 0 10.5v2A1.5 1.5 0 0 0 1.5 14h2A1.5 1.5 0 0 0 5 12.5v-2A1.5 1.5 0 0 0 3.5 9ZM1 10.5a.5.5 0 0 1 .5-.5h2a.5.5 0 0 1 .5.5v2a.5.5 0 0 1-.5.5h-2a.5.5 0 0 1-.5-.5Zm6.5-.5a.5.5 0 0 0 0 1h8a.5.5 0 0 0 0-1Zm0 2a.5.5 0 0 0 0 1h6a.5.5 0 0 0 0-1Z"/>
</svg>
