<svg  width="16" height="16" viewBox="0 0 16 16" fill="context-fill" fill-opacity="context-fill-opacity" xmlns="http://www.w3.org/2000/svg">
  <path fill-rule="evenodd" d="M11.927 7.826a.625.625 0 0 0 .03-.883l-3.5-3.74a.625.625 0 0 0-.913 0l-3.5 3.74a.625.625 0 1 0 .912.854l2.419-2.585v7.158a.625.625 0 0 0 1.25 0V5.213l2.419 2.584a.625.625 0 0 0 .883.03zM3 15.995c.345 0 .625-.28.625-.625 0-.207.168-.375.375-.375h8a.375.375 0 0 1 .375.375.625.625 0 1 0 1.25 0c0-.897-.727-1.625-1.625-1.625H4a1.625 1.625 0 0 0-1.625 1.625c0 .345.28.625.625.625zM13 .005a.625.625 0 0 0-.625.625.375.375 0 0 1-.375.375H4A.375.375 0 0 1 3.625.63a.625.625 0 1 0-1.25 0c0 .897.728 1.625 1.625 1.625h8c.898 0 1.625-.728 1.625-1.625A.625.625 0 0 0 13 .005z" clip-rule="evenodd"/>
</svg>
