 <svg width="16" height="16" viewBox="0 0 16 16" fill="context-fill" fill-opacity="context-fill-opacity" xmlns="http://www.w3.org/2000/svg"><path d="m12.942 12.058-.553-.553L14 9.894v-1.76a.632.632 0 0 0-.062.054L12.75 9.376v.796c0 .198-.08.39-.22.53l-.827.828a.752.752 0 0 1-.531.22h-.796L9.126 13h1.768l.611-.611.45.45c.234-.099.449-.243.631-.425l.356-.356ZM7.712 13H2a2 2 0 0 1-2-2V4a2 2 0 0 1 2-2h10a1.991 1.991 0 0 1 1.75 1.031c.16.287.25.617.25.969v3.05c-.282.067-.55.211-.769.431l-.481.48V4a.75.75 0 0 0-.75-.75H2a.75.75 0 0 0-.75.75v7c0 .414.336.75.75.75h6.962L7.712 13ZM15 10.308v.424A2 2 0 0 0 16 9v-.242c-.03.372-.186.736-.47 1.021l-.53.53Zm1-1.806V2a2 2 0 0 0-2-2H4a1.996 1.996 0 0 0-1.732 1H14a1 1 0 0 1 1 1v5.127a1.621 1.621 0 0 1 1 1.375Zm-1 .049v.158a.625.625 0 0 0 0-.158Z"/><path d="M8.188 8.188a.625.625 0 0 1 .884 0l2.433 2.433 2.433-2.433a.625.625 0 1 1 .884.884l-2.433 2.433 2.433 2.433a.625.625 0 1 1-.884.884l-2.433-2.433-2.433 2.433a.625.625 0 1 1-.884-.884l2.433-2.433-2.433-2.433a.625.625 0 0 1 0-.884Z"/></svg>