<svg width="16" height="16" viewBox="0 0 16 16" fill="context-fill" fill-opacity="context-fill-opacity" xmlns="http://www.w3.org/2000/svg"><path fill-rule="evenodd" d="M4 3.25h8a.75.75 0 0 1 .75.75v3.962l.481-.481c.22-.22.487-.364.769-.431V4a2 2 0 0 0-2-2H4a2 2 0 0 0-2 2v7.75H.625a.625.625 0 1 0 0 1.25h7.087l1.25-1.25H3.25V4A.75.75 0 0 1 4 3.25Zm6.376 8.5L9.126 13h1.768l.611-.611.611.611h1.768l-1.25-1.25h-2.258Zm2.374-.606L14 9.894v-1.76a.632.632 0 0 0-.062.054L12.75 9.376v1.768Zm1.25.164-.197.197.197.197v-.394Zm.048.442 1.25 1.25h.077a.625.625 0 1 0 0-1.25h-1.327Z" clip-rule="evenodd"/><path fill-rule="evenodd" d="M8.188 8.188a.625.625 0 0 1 .884 0l2.433 2.433 2.433-2.433a.625.625 0 1 1 .884.884l-2.433 2.433 2.433 2.433a.625.625 0 1 1-.884.884l-2.433-2.433-2.433 2.433a.625.625 0 1 1-.884-.884l2.433-2.433-2.433-2.433a.625.625 0 0 1 0-.884Z" clip-rule="evenodd"/></svg>