<svg xmlns="http://www.w3.org/2000/svg" width="16" height="16" viewBox="0 0 16 16" fill="context-fill" fill-opacity="context-fill-opacity"><path fill-rule="evenodd" d="M14 1.25H2a.75.75 0 0 0-.75.75v12c0 .414.336.75.75.75h12a.75.75 0 0 0 .75-.75V2a.75.75 0 0 0-.75-.75ZM2 0a2 2 0 0 0-2 2v12a2 2 0 0 0 2 2h12a2 2 0 0 0 2-2V2a2 2 0 0 0-2-2H2Z" clip-rule="evenodd"/><path fill-rule="evenodd" d="M4.25 4.25v3.5h7.5v-3.5h-7.5ZM4 3a1 1 0 0 0-1 1v4a1 1 0 0 0 1 1h8a1 1 0 0 0 1-1V4a1 1 0 0 0-1-1H4ZM10.25 11.25v.5h1.5v-.5h-1.5ZM10 10a1 1 0 0 0-1 1v1a1 1 0 0 0 1 1h2a1 1 0 0 0 1-1v-1a1 1 0 0 0-1-1h-2Z" clip-rule="evenodd"/><path d="M3 10.375c0-.345.28-.625.625-.625h3.75a.625.625 0 1 1 0 1.25h-3.75A.625.625 0 0 1 3 10.375ZM3 12.375c0-.345.28-.625.625-.625h3.75a.625.625 0 1 1 0 1.25h-3.75A.625.625 0 0 1 3 12.375Z"/></svg>
