<svg xmlns="http://www.w3.org/2000/svg" width="16" height="16" viewBox="0 0 16 16" fill="context-fill" fill-opacity="context-fill-opacity"><path fill-rule="evenodd" d="M1.643 6.82c-.3.546-.393.961-.393 1.18 0 .219.094.634.393 1.18.29.53.733 1.109 1.323 1.645A7.409 7.409 0 0 0 8 12.75a7.41 7.41 0 0 0 5.034-1.925 6.486 6.486 0 0 0 1.323-1.644c.3-.547.393-.962.393-1.181 0-.219-.094-.634-.393-1.18a6.487 6.487 0 0 0-1.323-1.645A7.409 7.409 0 0 0 8 3.25c-2.15 0-3.859.856-5.034 1.925a6.484 6.484 0 0 0-1.323 1.644ZM0 8c0-2 3-6 8-6s8 4 8 6-3 6-8 6-8-4-8-6Z" clip-rule="evenodd"/><path fill-rule="evenodd" d="M8 9.75a1.75 1.75 0 1 0 0-3.5 1.75 1.75 0 0 0 0 3.5ZM8 11a3 3 0 1 0 0-6 3 3 0 0 0 0 6Z" clip-rule="evenodd"/></svg>
