<svg xmlns="http://www.w3.org/2000/svg" width="16" height="16" viewBox="0 0 16 16" fill="context-fill" fill-opacity="context-fill-opacity"><g clip-path="url(#a)"><path d="M6 8.625C6 8.28 6.28 8 6.625 8h2.75a.625.625 0 1 1 0 1.25h-2.75A.625.625 0 0 1 6 8.625"/><path fill-rule="evenodd" d="M14 5.25H2a.75.75 0 0 0-.75.75v8c0 .414.336.75.75.75h12a.75.75 0 0 0 .75-.75V6a.75.75 0 0 0-.75-.75M2 4a2 2 0 0 0-2 2v8a2 2 0 0 0 2 2h12a2 2 0 0 0 2-2V6a2 2 0 0 0-2-2zM2.375 2.74c0-1.102.893-1.995 1.995-1.995h7.26c1.102 0 1.995.893 1.995 1.995h-1.25a.745.745 0 0 0-.745-.745H4.37a.745.745 0 0 0-.745.745z" clip-rule="evenodd"/></g><defs><clipPath id="a"><path fill="#fff" d="M0 0h16v16H0z"/></clipPath></defs></svg>