<svg width="16" height="16" viewBox="0 0 16 16" fill="context-fill" fill-opacity="context-fill-opacity" xmlns="http://www.w3.org/2000/svg"><path fill-rule="evenodd" d="M4 2.25h10a.75.75 0 0 1 .75.75v10a.75.75 0 0 1-.75.75H4a.75.75 0 0 1-.75-.75v-2H2v2a2 2 0 0 0 2 2h10a2 2 0 0 0 2-2V3a2 2 0 0 0-2-2H4a2 2 0 0 0-2 2v4.89h1.25V3A.75.75 0 0 1 4 2.25" clip-rule="evenodd"/><path fill-rule="evenodd" d="M.63 5.375c.345 0 .625.28.625.625v2.875h6.736L6.558 7.442a.625.625 0 1 1 .884-.884l2.5 2.5a.625.625 0 0 1 0 .884l-2.5 2.5a.625.625 0 1 1-.884-.884l1.433-1.433H.63A.625.625 0 0 1 .005 9.5V6c0-.345.28-.625.625-.625" clip-rule="evenodd"/></svg>