<svg xmlns="http://www.w3.org/2000/svg" width="32" height="32" viewBox="0 0 32 32" fill="context-fill" fill-opacity="context-fill-opacity"><path fill-rule="evenodd" d="M2.497 12.97a2.5 2.5 0 0 0 2.497 2.503 2.5 2.5 0 0 0 2.497-2.504 2.5 2.5 0 0 0-2.497-2.504 2.5 2.5 0 0 0-2.497 2.505ZM0 12.97a5.001 5.001 0 0 0 4.994 5.007 5.001 5.001 0 0 0 4.994-5.008 5.001 5.001 0 0 0-4.994-5.008A5.001 5.001 0 0 0 0 12.97ZM2.497 26.992a2.5 2.5 0 0 0 2.497 2.504 2.5 2.5 0 0 0 2.497-2.504 2.5 2.5 0 0 0-2.497-2.504 2.5 2.5 0 0 0-2.497 2.504Zm-2.497 0A5.001 5.001 0 0 0 4.994 32a5.001 5.001 0 0 0 4.994-5.008 5.001 5.001 0 0 0-4.994-5.008A5.001 5.001 0 0 0 0 26.992Z" clip-rule="evenodd"/><path fill-rule="evenodd" d="M27.75 12.539c.38.577.223 1.353-.352 1.735L9.678 26.033a1.246 1.246 0 0 1-1.73-.353 1.254 1.254 0 0 1 .353-1.735l17.72-11.76a1.247 1.247 0 0 1 1.73.354Z" clip-rule="evenodd"/><path fill-rule="evenodd" d="M27.398 25.688c.575.381.733 1.158.352 1.735a1.246 1.246 0 0 1-1.73.353l-7.974-5.292 2.262-1.502 7.09 4.706Zm-9.352-6.207-8.367-5.552a1.246 1.246 0 0 0-1.73.353 1.254 1.254 0 0 0 .352 1.735l7.482 4.965 2.263-1.501Z" clip-rule="evenodd"/><path d="M20.018 4.504h-3.994V2h3.994v2.504ZM22.015 4.504h3.994V2h-3.994v2.504ZM29.504 6.006a1.5 1.5 0 0 0-1.498-1.502V2A4 4 0 0 1 32 6.006h-2.496ZM29.504 8.01v4.006H32V8.01h-2.496ZM29.504 18.026v-4.007H32v4.007h-2.496ZM14.027 2v2.504h-3.994V2h3.994ZM8.036 2a3.995 3.995 0 0 0-3.704 2.504h3.704V2ZM29.504 23.745A4.008 4.008 0 0 0 32 20.029h-2.496v3.716Z"/></svg>