<svg xmlns="http://www.w3.org/2000/svg" width="16" height="16" viewBox="0 0 16 16" fill="context-fill" fill-opacity="context-fill-opacity"><path fill-rule="evenodd" d="M3.005 4.63A2.625 2.625 0 0 1 5.63 2.005h3.74a.625.625 0 1 1 0 1.25H5.63c-.76 0-1.375.616-1.375 1.375v6.74c0 .76.616 1.375 1.375 1.375h3.74a.625.625 0 1 1 0 1.25H5.63a2.625 2.625 0 0 1-2.625-2.625V4.63Z" clip-rule="evenodd"/><path fill-rule="evenodd" d="M10.009 5.062a.625.625 0 0 1 .883-.008l2.546 2.5a.625.625 0 0 1 .004.888l-2.5 2.5a.625.625 0 1 1-.884-.884l1.433-1.433H6a.625.625 0 1 1 0-1.25h5.472l-1.455-1.43a.625.625 0 0 1-.008-.883Z" clip-rule="evenodd"/></svg>
