<svg xmlns="http://www.w3.org/2000/svg" width="16" height="16" viewBox="0 0 16 16" fill="context-fill" fill-opacity="context-fill-opacity"><path fill-rule="evenodd" d="M13.75 2.031c.16.287.25.617.25.969v8a1.99 1.99 0 0 1-1.031 1.75A1.99 1.99 0 0 1 12 13H2a2 2 0 0 1-2-2V3a2 2 0 0 1 2-2h10a2 2 0 0 1 1.75 1.031ZM2.439 14.25a2.004 2.004 0 0 1-.171-.25H14a1 1 0 0 0 1-1V3.268A2.002 2.002 0 0 1 16 5v8a2 2 0 0 1-2 2H4a1.996 1.996 0 0 1-1.561-.75ZM12 11.75H2a.75.75 0 0 1-.75-.75V3A.75.75 0 0 1 2 2.25h10a.75.75 0 0 1 .75.75v8a.75.75 0 0 1-.75.75Z" clip-rule="evenodd"/><path d="M2.5 3.625c0-.345.28-.625.625-.625h2.75a.625.625 0 1 1 0 1.25h-2.75a.625.625 0 0 1-.625-.625ZM7.5 3.625c0-.345.28-.625.625-.625h2.75a.625.625 0 1 1 0 1.25h-2.75a.625.625 0 0 1-.625-.625Z"/></svg>