<!-- This Source Code Form is subject to the terms of the Mozilla Public
   - License, v. 2.0. If a copy of the MPL was not distributed with this
   - file, You can obtain one at http://mozilla.org/MPL/2.0/. -->
<svg xmlns="http://www.w3.org/2000/svg" width="260" height="16" fill="context-fill">
  <svg>
    <defs>
      <filter id="a">
        <feColorMatrix color-interpolation-filters="sRGB" values="0 0 0 0 1 0 0 0 0 1 0 0 0 0 1 0 0 0 1 0"/>
      </filter>
    </defs>
    <g>
      <g>
        <path d="M10.016 15.253c-4.525 0 -8.195 -3.669 -8.195 -8.195v-4.097a2.048 2.048 0 0 1 2.05 -2.05h12.292a2.048 2.048 0 0 1 2.049 2.05v4.097c0 4.526 -3.67 8.195 -8.196 8.195z"/>
      </g>
      <g filter="url(#a)" transform="translate(1.749 1.092) scale(1.02438)">
        <g>
          <path d="M11.985 3.968a0.991 0.991 0 0 0 -0.726 0.319l-3.281 3.284 -3.224 -3.235a0.984 0.984 0 0 0 -0.754 -0.368 1.001 1.001 0 0 0 -0.715 1.7l-0.016 0.011 3.294 3.306 0.706 0.707a1 1 0 0 0 1.414 0l0.707 -0.707 3.31 -3.306a1.001 1.001 0 0 0 0.22 -1.097 1 1 0 0 0 -0.935 -0.614z"/>
        </g>
      </g>
    </g>
  </svg>
  <svg x="20">
    <defs>
      <filter id="b">
        <feColorMatrix color-interpolation-filters="sRGB" values="0 0 0 0 1 0 0 0 0 1 0 0 0 0 1 0 0 0 1 0"/>
      </filter>
    </defs>
    <g>
      <g>
        <path d="M10.016 15.253c-4.525 0 -8.195 -3.669 -8.195 -8.195v-4.097a2.048 2.048 0 0 1 2.05 -2.05h12.292a2.048 2.048 0 0 1 2.049 2.05v4.097c0 4.526 -3.67 8.195 -8.196 8.195z"/>
      </g>
      <g filter="url(#b)" transform="translate(1.749 1.092) scale(1.02438)">
        <g>
          <path d="M11.985 3.968a0.991 0.991 0 0 0 -0.726 0.319l-3.281 3.284 -3.224 -3.235a0.984 0.984 0 0 0 -0.754 -0.368 1.001 1.001 0 0 0 -0.715 1.7l-0.016 0.011 3.294 3.306 0.706 0.707a1 1 0 0 0 1.414 0l0.707 -0.707 3.31 -3.306a1.001 1.001 0 0 0 0.22 -1.097 1 1 0 0 0 -0.935 -0.614z"/>
        </g>
      </g>
    </g>
  </svg>
  <svg x="40">
    <defs>
      <filter id="c">
        <feColorMatrix color-interpolation-filters="sRGB" values="0 0 0 0 1 0 0 0 0 1 0 0 0 0 1 0 0 0 1 0"/>
      </filter>
    </defs>
    <g>
      <g>
        <path d="M10.016 15.97c-4.978 0 -9.014 -4.036 -9.014 -9.014v-4.507a2.253 2.253 0 0 1 2.254 -2.254h13.521a2.253 2.253 0 0 1 2.254 2.254v4.507c0 4.978 -4.036 9.014 -9.015 9.014z"/>
      </g>
      <g filter="url(#c)" transform="translate(1.749 1.86) scale(1.02438)">
        <g>
          <path d="M11.985 3.968a0.991 0.991 0 0 0 -0.726 0.319l-3.281 3.284 -3.224 -3.235a0.984 0.984 0 0 0 -0.754 -0.368 1.001 1.001 0 0 0 -0.715 1.7l-0.016 0.011 3.294 3.306 0.706 0.707a1 1 0 0 0 1.414 0l0.707 -0.707 3.31 -3.306a1.001 1.001 0 0 0 0.22 -1.097 1 1 0 0 0 -0.935 -0.614z"/>
        </g>
      </g>
    </g>
  </svg>
  <svg x="60">
    <defs>
      <filter id="d">
        <feColorMatrix color-interpolation-filters="sRGB" values="0 0 0 0 1 0 0 0 0 1 0 0 0 0 1 0 0 0 1 0"/>
      </filter>
    </defs>
    <g>
      <g>
        <path d="M10.016 15.97c-4.978 0 -9.014 -4.036 -9.014 -9.014v-4.507a2.253 2.253 0 0 1 2.254 -2.254h13.521a2.253 2.253 0 0 1 2.254 2.254v4.507c0 4.978 -4.036 9.014 -9.015 9.014z"/>
      </g>
      <g filter="url(#d)" transform="translate(1.752 1.862) scale(1.02438)">
        <g>
          <path d="M11.985 3.968a0.991 0.991 0 0 0 -0.726 0.319l-3.281 3.284 -3.224 -3.235a0.984 0.984 0 0 0 -0.754 -0.368 1.001 1.001 0 0 0 -0.715 1.7l-0.016 0.011 3.294 3.306 0.706 0.707a1 1 0 0 0 1.414 0l0.707 -0.707 3.31 -3.306a1.001 1.001 0 0 0 0.22 -1.097 1 1 0 0 0 -0.935 -0.614z"/>
        </g>
      </g>
    </g>
  </svg>
  <svg x="80">
    <defs>
      <filter id="e">
        <feColorMatrix color-interpolation-filters="sRGB" values="0 0 0 0 1 0 0 0 0 1 0 0 0 0 1 0 0 0 1 0"/>
      </filter>
    </defs>
    <g>
      <g>
        <path d="M10.016 15.97c-4.978 0 -9.014 -4.036 -9.014 -9.014v-4.507a2.253 2.253 0 0 1 2.254 -2.254h13.521a2.253 2.253 0 0 1 2.254 2.254v4.507c0 4.978 -4.036 9.014 -9.015 9.014z"/>
      </g>
      <g filter="url(#e)" transform="translate(1.749 1.86) scale(1.02438)">
        <g>
          <path d="M11.985 3.968a0.991 0.991 0 0 0 -0.726 0.319l-3.281 3.284 -3.224 -3.235a0.984 0.984 0 0 0 -0.754 -0.368 1.001 1.001 0 0 0 -0.715 1.7l-0.016 0.011 3.294 3.306 0.706 0.707a1 1 0 0 0 1.414 0l0.707 -0.707 3.31 -3.306a1.001 1.001 0 0 0 0.22 -1.097 1 1 0 0 0 -0.935 -0.614z"/>
        </g>
      </g>
    </g>
  </svg>
  <svg x="100">
    <defs>
      <filter id="f">
        <feColorMatrix color-interpolation-filters="sRGB" values="0 0 0 0 1 0 0 0 0 1 0 0 0 0 1 0 0 0 1 0"/>
      </filter>
    </defs>
    <g>
      <g>
        <path d="M10.016 15.94c-4.958 0 -8.979 -4.021 -8.979 -8.98v-4.49a2.244 2.244 0 0 1 2.245 -2.244h13.469a2.244 2.244 0 0 1 2.245 2.245v4.49c0 4.958 -4.02 8.979 -8.98 8.979z"/>
      </g>
      <g filter="url(#f)" transform="translate(1.749 1.817) scale(1.02438)">
        <g>
          <path d="M11.985 3.968a0.991 0.991 0 0 0 -0.726 0.319l-3.281 3.284 -3.224 -3.235a0.984 0.984 0 0 0 -0.754 -0.368 1.001 1.001 0 0 0 -0.715 1.7l-0.016 0.011 3.294 3.306 0.706 0.707a1 1 0 0 0 1.414 0l0.707 -0.707 3.31 -3.306a1.001 1.001 0 0 0 0.22 -1.097 1 1 0 0 0 -0.935 -0.614z"/>
        </g>
      </g>
    </g>
  </svg>
  <svg x="120">
    <defs>
      <filter id="g">
        <feColorMatrix color-interpolation-filters="sRGB" values="0 0 0 0 1 0 0 0 0 1 0 0 0 0 1 0 0 0 1 0"/>
      </filter>
    </defs>
    <g>
      <g>
        <path d="M10.016 15.858c-4.907 0 -8.886 -3.979 -8.886 -8.886v-4.443a2.221 2.221 0 0 1 2.222 -2.222h13.33a2.221 2.221 0 0 1 2.22 2.222v4.443c0 4.907 -3.978 8.886 -8.886 8.886z"/>
      </g>
      <g filter="url(#g)" transform="translate(1.749 1.705) scale(1.02438)">
        <g>
          <path d="M11.985 3.968a0.991 0.991 0 0 0 -0.726 0.319l-3.281 3.284 -3.224 -3.235a0.984 0.984 0 0 0 -0.754 -0.368 1.001 1.001 0 0 0 -0.715 1.7l-0.016 0.011 3.294 3.306 0.706 0.707a1 1 0 0 0 1.414 0l0.707 -0.707 3.31 -3.306a1.001 1.001 0 0 0 0.22 -1.097 1 1 0 0 0 -0.935 -0.614z"/>
        </g>
      </g>
    </g>
  </svg>
  <svg x="140">
    <defs>
      <filter id="h">
        <feColorMatrix color-interpolation-filters="sRGB" values="0 0 0 0 1 0 0 0 0 1 0 0 0 0 1 0 0 0 1 0"/>
      </filter>
    </defs>
    <g>
      <g>
        <path d="M10.016 15.743c-4.835 0 -8.755 -3.92 -8.755 -8.755v-4.377a2.188 2.188 0 0 1 2.19 -2.19h13.132c1.21 0 2.189 0.98 2.189 2.19v4.377c0 4.835 -3.92 8.755 -8.756 8.755z"/>
      </g>
      <g filter="url(#h)" transform="translate(1.749 1.552) scale(1.02438)">
        <g>
          <path d="M11.985 3.968a0.991 0.991 0 0 0 -0.726 0.319l-3.281 3.284 -3.224 -3.235a0.984 0.984 0 0 0 -0.754 -0.368 1.001 1.001 0 0 0 -0.715 1.7l-0.016 0.011 3.294 3.306 0.706 0.707a1 1 0 0 0 1.414 0l0.707 -0.707 3.31 -3.306a1.001 1.001 0 0 0 0.22 -1.097 1 1 0 0 0 -0.935 -0.614z"/>
        </g>
      </g>
    </g>
  </svg>
  <svg x="160">
    <defs>
      <filter id="i">
        <feColorMatrix color-interpolation-filters="sRGB" values="0 0 0 0 1 0 0 0 0 1 0 0 0 0 1 0 0 0 1 0"/>
      </filter>
    </defs>
    <g>
      <g>
        <path d="M10.016 15.612c-4.752 0 -8.604 -3.853 -8.604 -8.605v-4.302a2.15 2.15 0 0 1 2.15 -2.152h12.908a2.15 2.15 0 0 1 2.151 2.152v4.302c0 4.752 -3.853 8.605 -8.605 8.605z"/>
      </g>
      <g filter="url(#i)" transform="translate(1.749 1.387) scale(1.02438)">
        <g>
          <path d="M11.985 3.968a0.991 0.991 0 0 0 -0.726 0.319l-3.281 3.284 -3.224 -3.235a0.984 0.984 0 0 0 -0.754 -0.368 1.001 1.001 0 0 0 -0.715 1.7l-0.016 0.011 3.294 3.306 0.706 0.707a1 1 0 0 0 1.414 0l0.707 -0.707 3.31 -3.306a1.001 1.001 0 0 0 0.22 -1.097 1 1 0 0 0 -0.935 -0.614z"/>
        </g>
      </g>
    </g>
  </svg>
  <svg x="180">
    <defs>
      <filter id="j">
        <feColorMatrix color-interpolation-filters="sRGB" values="0 0 0 0 1 0 0 0 0 1 0 0 0 0 1 0 0 0 1 0"/>
      </filter>
    </defs>
    <g>
      <g>
        <path d="M10.016 15.48c-4.668 0 -8.454 -3.785 -8.454 -8.454v-4.227a2.113 2.113 0 0 1 2.114 -2.114h12.681a2.113 2.113 0 0 1 2.114 2.114v4.227c0 4.669 -3.786 8.454 -8.455 8.454z"/>
      </g>
      <g filter="url(#j)" transform="translate(1.749 1.238) scale(1.02438)">
        <g>
          <path d="M11.985 3.968a0.991 0.991 0 0 0 -0.726 0.319l-3.281 3.284 -3.224 -3.235a0.984 0.984 0 0 0 -0.754 -0.368 1.001 1.001 0 0 0 -0.715 1.7l-0.016 0.011 3.294 3.306 0.706 0.707a1 1 0 0 0 1.414 0l0.707 -0.707 3.31 -3.306a1.001 1.001 0 0 0 0.22 -1.097 1 1 0 0 0 -0.935 -0.614z"/>
        </g>
      </g>
    </g>
  </svg>
  <svg x="200">
    <defs>
      <filter id="k">
        <feColorMatrix color-interpolation-filters="sRGB" values="0 0 0 0 1 0 0 0 0 1 0 0 0 0 1 0 0 0 1 0"/>
      </filter>
    </defs>
    <g>
      <g>
        <path d="M10.016 15.365c-4.596 0 -8.323 -3.726 -8.323 -8.323v-4.161a2.08 2.08 0 0 1 2.081 -2.081h12.485a2.08 2.08 0 0 1 2.08 2.08v4.162c0 4.597 -3.726 8.323 -8.323 8.323z"/>
      </g>
      <g filter="url(#k)" transform="translate(1.749 1.132) scale(1.02438)">
        <g>
          <path d="M11.985 3.968a0.991 0.991 0 0 0 -0.726 0.319l-3.281 3.284 -3.224 -3.235a0.984 0.984 0 0 0 -0.754 -0.368 1.001 1.001 0 0 0 -0.715 1.7l-0.016 0.011 3.294 3.306 0.706 0.707a1 1 0 0 0 1.414 0l0.707 -0.707 3.31 -3.306a1.001 1.001 0 0 0 0.22 -1.097 1 1 0 0 0 -0.935 -0.614z"/>
        </g>
      </g>
    </g>
  </svg>
  <svg x="220">
    <defs>
      <filter id="l">
        <feColorMatrix color-interpolation-filters="sRGB" values="0 0 0 0 1 0 0 0 0 1 0 0 0 0 1 0 0 0 1 0"/>
      </filter>
    </defs>
    <g>
      <g>
        <path d="M10.016 15.284c-4.545 0 -8.23 -3.685 -8.23 -8.23v-4.115a2.057 2.057 0 0 1 2.058 -2.058h12.345a2.057 2.057 0 0 1 2.058 2.058v4.115c0 4.545 -3.685 8.23 -8.23 8.23z"/>
      </g>
      <g filter="url(#l)" transform="translate(1.749 1.092) scale(1.02438)">
        <g>
          <path d="M11.985 3.968a0.991 0.991 0 0 0 -0.726 0.319l-3.281 3.284 -3.224 -3.235a0.984 0.984 0 0 0 -0.754 -0.368 1.001 1.001 0 0 0 -0.715 1.7l-0.016 0.011 3.294 3.306 0.706 0.707a1 1 0 0 0 1.414 0l0.707 -0.707 3.31 -3.306a1.001 1.001 0 0 0 0.22 -1.097 1 1 0 0 0 -0.935 -0.614z"/>
        </g>
      </g>
    </g>
  </svg>
  <svg x="240">
    <defs>
      <filter id="m">
        <feColorMatrix color-interpolation-filters="sRGB" values="0 0 0 0 1 0 0 0 0 1 0 0 0 0 1 0 0 0 1 0"/>
      </filter>
    </defs>
    <g>
      <g>
        <path d="M10.016 15.253c-4.525 0 -8.195 -3.669 -8.195 -8.195v-4.097a2.048 2.048 0 0 1 2.05 -2.05h12.292a2.048 2.048 0 0 1 2.049 2.05v4.097c0 4.526 -3.67 8.195 -8.196 8.195z"/>
      </g>
      <g filter="url(#m)" transform="translate(1.749 1.092) scale(1.02438)">
        <g>
          <path d="M11.985 3.968a0.991 0.991 0 0 0 -0.726 0.319l-3.281 3.284 -3.224 -3.235a0.984 0.984 0 0 0 -0.754 -0.368 1.001 1.001 0 0 0 -0.715 1.7l-0.016 0.011 3.294 3.306 0.706 0.707a1 1 0 0 0 1.414 0l0.707 -0.707 3.31 -3.306a1.001 1.001 0 0 0 0.22 -1.097 1 1 0 0 0 -0.935 -0.614z"/>
        </g>
      </g>
    </g>
  </svg>
  <svg x="260">
    <defs>
      <filter id="n">
        <feColorMatrix color-interpolation-filters="sRGB" values="0 0 0 0 1 0 0 0 0 1 0 0 0 0 1 0 0 0 1 0"/>
      </filter>
    </defs>
    <g>
      <g>
        <path d="M10.016 15.253c-4.525 0 -8.195 -3.669 -8.195 -8.195v-4.097a2.048 2.048 0 0 1 2.05 -2.05h12.292a2.048 2.048 0 0 1 2.049 2.05v4.097c0 4.526 -3.67 8.195 -8.196 8.195z"/>
      </g>
      <g filter="url(#n)" transform="translate(1.749 1.092) scale(1.02438)">
        <g>
          <path d="M11.985 3.968a0.991 0.991 0 0 0 -0.726 0.319l-3.281 3.284 -3.224 -3.235a0.984 0.984 0 0 0 -0.754 -0.368 1.001 1.001 0 0 0 -0.715 1.7l-0.016 0.011 3.294 3.306 0.706 0.707a1 1 0 0 0 1.414 0l0.707 -0.707 3.31 -3.306a1.001 1.001 0 0 0 0.22 -1.097 1 1 0 0 0 -0.935 -0.614z"/>
        </g>
      </g>
    </g>
  </svg>
</svg>
