<!-- This Source Code Form is subject to the terms of the Mozilla Public
   - License, v. 2.0. If a copy of the MPL was not distributed with this
   - file, You can obtain one at http://mozilla.org/MPL/2.0/. -->
<svg xmlns="http://www.w3.org/2000/svg" width="18" height="18" viewBox="0 0 18 18">
  <path fill="context-fill" d="M9,15.969a8,8,0,0,1-8-8v-4a2,2,0,0,1,2-2H15a2,2,0,0,1,2,2v4A8,8,0,0,1,9,15.969ZM12.985,5.937a0.99,0.99,0,0,0-.725.319L8.978,9.539,5.755,6.305A0.984,0.984,0,0,0,5,5.937a1,1,0,0,0-.714,1.7L4.27,7.648l3.293,3.306h0l0.707,0.707a1,1,0,0,0,1.414,0l0.707-.707h0L13.7,7.648l0,0A1,1,0,0,0,12.985,5.937Z"/>
</svg>
