<!-- may be protected as a trademark in some jurisdictions -->
<svg xmlns="http://www.w3.org/2000/svg" width="135" height="40" xml:space="preserve"><path fill="#A6A6A6" d="M130.197 39.989H4.729A4.73 4.73 0 0 1 0 35.267V4.726A4.733 4.733 0 0 1 4.729 0h125.468c2.605 0 4.73 2.12 4.73 4.726v30.541c.001 2.605-2.124 4.722-4.73 4.722z"/><path d="M134.032 35.268a3.83 3.83 0 0 1-3.834 3.83H4.729a3.835 3.835 0 0 1-3.839-3.83V4.725A3.84 3.84 0 0 1 4.729.89h125.468a3.834 3.834 0 0 1 3.834 3.835l.001 30.543z"/><g fill="#FFF"><path d="M30.128 19.784c-.029-3.223 2.639-4.791 2.761-4.864-1.511-2.203-3.853-2.504-4.676-2.528-1.967-.207-3.875 1.177-4.877 1.177-1.022 0-2.565-1.157-4.228-1.123-2.14.033-4.142 1.272-5.24 3.196-2.266 3.923-.576 9.688 1.595 12.859 1.086 1.553 2.355 3.287 4.016 3.226 1.625-.067 2.232-1.036 4.193-1.036 1.943 0 2.513 1.036 4.207.997 1.744-.028 2.842-1.56 3.89-3.127 1.255-1.78 1.759-3.533 1.779-3.623-.041-.014-3.387-1.291-3.42-5.154zM26.928 10.306c.874-1.093 1.472-2.58 1.306-4.089-1.265.056-2.847.875-3.758 1.944-.806.942-1.526 2.486-1.34 3.938 1.421.106 2.88-.717 3.792-1.793z"/></g><g fill="#FFF"><path d="M50.729 17.8h-1.553l-.85-2.673h-2.957l-.81 2.673h-1.512l2.93-9.099h1.809l2.943 9.099zm-2.66-3.793-.77-2.376c-.081-.243-.234-.814-.459-1.714h-.027c-.09.387-.234.958-.432 1.714l-.756 2.376h2.444zM58.126 14.439c0 1.116-.302 1.998-.905 2.646-.54.576-1.21.864-2.011.864-.864 0-1.485-.311-1.863-.932h-.027v3.456h-1.458v-7.074c0-.702-.018-1.422-.054-2.16h1.283l.081 1.04h.027c.486-.783 1.224-1.174 2.214-1.174.774 0 1.42.306 1.938.918.517.611.775 1.417.775 2.416zm-1.485.054c0-.639-.144-1.166-.432-1.58a1.492 1.492 0 0 0-1.269-.648c-.36 0-.687.12-.979.358a1.662 1.662 0 0 0-.574.938 1.91 1.91 0 0 0-.067.445V15.1c0 .478.146.88.439 1.208.292.329.672.493 1.141.493.549 0 .977-.211 1.282-.634.306-.423.459-.981.459-1.674zM65.74 14.439c0 1.116-.302 1.998-.905 2.646-.54.576-1.21.864-2.011.864-.864 0-1.485-.311-1.863-.932h-.027v3.456h-1.458v-7.074c0-.702-.018-1.422-.054-2.16h1.283l.081 1.04h.027c.486-.783 1.224-1.174 2.214-1.174.774 0 1.42.306 1.938.918.516.611.775 1.417.775 2.416zm-1.485.054c0-.639-.144-1.166-.432-1.58a1.492 1.492 0 0 0-1.269-.648c-.36 0-.687.12-.979.358a1.662 1.662 0 0 0-.574.938 1.91 1.91 0 0 0-.067.445V15.1c0 .478.146.88.439 1.208.292.329.672.493 1.141.493.549 0 .977-.211 1.282-.634.306-.423.459-.981.459-1.674zM75.595 15.249c0 .774-.269 1.404-.808 1.89-.593.531-1.419.796-2.479.796-.979 0-1.766-.189-2.358-.567l.338-1.215c.64.387 1.341.581 2.106.581.55 0 .978-.124 1.283-.372.307-.248.459-.579.459-.994 0-.37-.126-.681-.378-.933s-.67-.487-1.255-.703c-1.594-.595-2.39-1.465-2.39-2.61 0-.748.278-1.361.837-1.839.559-.478 1.301-.717 2.228-.717.828 0 1.517.144 2.065.432l-.364 1.188c-.514-.279-1.094-.419-1.742-.419-.513 0-.913.126-1.201.378a1.08 1.08 0 0 0-.364.823c0 .36.139.657.418.891.243.216.685.45 1.323.702.783.315 1.359.684 1.729 1.107.368.424.553.951.553 1.581zM80.32 12.333h-1.606v3.186c0 .81.283 1.215.851 1.215.261 0 .477-.022.647-.067l.041 1.107c-.288.108-.666.162-1.134.162-.576 0-1.026-.175-1.351-.526s-.485-.94-.485-1.769v-3.307h-.959V11.24h.959v-1.202l1.431-.432v1.633h1.606v1.094zM87.502 14.466c0 1.008-.288 1.836-.864 2.484-.603.666-1.404.999-2.403.999-.963 0-1.729-.319-2.302-.958-.571-.639-.856-1.444-.856-2.417 0-1.017.294-1.85.884-2.498s1.384-.972 2.383-.972c.963 0 1.737.319 2.322.958.557.622.836 1.423.836 2.404zm-1.512.047c0-.605-.131-1.124-.392-1.557-.307-.523-.743-.785-1.31-.785-.585 0-1.031.262-1.337.785-.261.433-.392.961-.392 1.584 0 .605.131 1.124.392 1.557.315.523.756.785 1.323.785.558 0 .994-.266 1.31-.799.27-.442.406-.965.406-1.57zM92.362 12.522a2.496 2.496 0 0 0-.459-.041c-.514 0-.909.193-1.188.581-.243.342-.364.774-.364 1.296V17.8h-1.458l.014-4.496c0-.756-.019-1.444-.054-2.065h1.269l.054 1.255h.041c.152-.432.396-.778.729-1.04A1.763 1.763 0 0 1 92 11.103c.135 0 .256.009.364.027v1.392zM98.788 14.209c0 .261-.019.481-.055.661h-4.374c.019.648.229 1.143.635 1.485.369.306.846.459 1.431.459.648 0 1.237-.104 1.769-.311l.229 1.012c-.621.27-1.354.405-2.2.405-1.017 0-1.815-.299-2.396-.898-.58-.598-.87-1.401-.87-2.41 0-.99.27-1.813.81-2.471.567-.702 1.332-1.053 2.295-1.053.945 0 1.661.351 2.146 1.053.386.561.58 1.25.58 2.068zm-1.391-.378c.009-.432-.086-.805-.284-1.12-.252-.405-.639-.607-1.16-.607-.478 0-.864.198-1.161.594a2.178 2.178 0 0 0-.433 1.134h3.038zM103 14.695h-3.361v-1.026H103v1.026zM110.397 17.8h-1.296l-.067-1.053h-.041c-.414.801-1.116 1.202-2.105 1.202-.792 0-1.449-.311-1.972-.932-.521-.621-.782-1.426-.782-2.417 0-1.062.283-1.921.851-2.578.549-.612 1.224-.918 2.024-.918.882 0 1.499.297 1.85.891h.027V8.229h1.458v7.803c0 .639.017 1.228.053 1.768zm-1.511-2.767V13.94c0-.189-.014-.342-.041-.459a1.646 1.646 0 0 0-.528-.884 1.432 1.432 0 0 0-.977-.358c-.542 0-.969.216-1.28.648-.312.432-.468.985-.468 1.661 0 .648.148 1.174.447 1.58.316.432.74.648 1.273.648.479 0 .863-.18 1.152-.54a1.81 1.81 0 0 0 .422-1.203zM117.337 17.8h-1.31l-.108-.756h-.04c-.45.603-1.089.904-1.917.904-.621 0-1.12-.198-1.498-.594-.343-.36-.514-.806-.514-1.337 0-.801.335-1.413 1.006-1.836.671-.423 1.613-.63 2.828-.621v-.12c0-.864-.453-1.296-1.36-1.296-.646 0-1.217.162-1.711.486l-.297-.958c.611-.378 1.362-.567 2.252-.567 1.716 0 2.574.904 2.574 2.713v2.417c0 .657.031 1.179.095 1.565zm-1.512-2.254v-1.013c-1.611-.027-2.417.414-2.417 1.323 0 .342.094.599.282.77.188.171.425.256.711.256.322 0 .62-.101.893-.304.273-.203.441-.461.504-.776.017-.072.027-.157.027-.256zM124.978 17.8h-1.458v-3.757c0-1.158-.441-1.737-1.323-1.737-.432 0-.783.16-1.053.479a1.677 1.677 0 0 0-.405 1.124V17.8h-1.458v-4.685c0-.576-.019-1.202-.054-1.876h1.282l.067 1.025h.041c.171-.318.423-.583.756-.792a2.457 2.457 0 0 1 1.323-.369c.611 0 1.12.198 1.525.594.504.486.756 1.21.756 2.173v3.93z"/></g><g fill="#FFF"><path d="m48.598 24.924-1.476 4.043c-.704 1.912-1.364 3.145-1.98 3.697-.456.408-.932.65-1.428.73l-.312-1.092a2.78 2.78 0 0 0 1.692-1.475c.064-.121.096-.209.096-.266a.93.93 0 0 0-.072-.275l-2.112-5.363h1.428l1.104 3.252c.104.295.22.68.348 1.152h.024l.324-1.164.984-3.24h1.38zM54.69 29.004c0 .695.024 1.271.048 1.752h-1.295l-.072-.889h-.024c-.251.42-.827 1.02-1.871 1.02-1.067 0-2.039-.635-2.039-2.543v-3.43h1.475v3.18c0 .971.312 1.594 1.091 1.594.588 0 .972-.42 1.127-.791a1.34 1.34 0 0 0 .084-.455v-3.527h1.475v4.089zm-4.509-5.733c0-.42.324-.744.755-.744.396 0 .708.312.708.744 0 .396-.3.732-.72.732a.729.729 0 0 1-.743-.732zm2.399 0c0-.42.312-.744.732-.744.419 0 .719.312.719.744 0 .396-.3.732-.719.732a.718.718 0 0 1-.732-.732zM61.45 30.756h-1.584l-1.764-2.664-.492.6v2.064h-1.296v-8.508h1.296v5.279h.024c.16-.256.316-.48.468-.672l1.5-1.932h1.548l-2.148 2.4 2.448 3.433zM63.43 30.756h-1.296v-8.508h1.296v8.508zM64.953 25.189c.516-.227 1.211-.406 2.063-.406 1.871 0 2.986 1.174 2.986 2.975 0 1.594-.971 3.117-2.842 3.117-1.907 0-2.531-1.547-2.531-2.83 0-.264.024-.492.048-.611h3.911c-.037-1.068-.768-1.535-1.776-1.535a4.56 4.56 0 0 0-1.643.299l-.216-1.009zm1.068 3.276c-.012.527.252 1.402 1.235 1.402.924 0 1.271-.814 1.332-1.402h-2.567zM76.126 24.924l-1.477 4.043c-.704 1.912-1.364 3.145-1.979 3.697-.457.408-.933.65-1.428.73l-.312-1.092a2.768 2.768 0 0 0 1.691-1.475c.064-.121.097-.209.097-.266a.93.93 0 0 0-.072-.275l-2.112-5.363h1.428l1.104 3.252c.104.295.22.68.348 1.152h.024l.324-1.164.983-3.24h1.381zM78.453 23.184c0 .232-.076.42-.228.564a.825.825 0 0 1-.588.215.747.747 0 0 1-.547-.221c-.147-.148-.222-.334-.222-.559s.076-.408.229-.553c.151-.143.34-.215.563-.215s.412.072.564.215a.729.729 0 0 1 .229.554zm-.143 7.572h-1.296v-5.832h1.296v5.832zM85.005 30.756h-1.296v-3.34c0-1.029-.392-1.545-1.176-1.545-.384 0-.696.143-.937.426a1.498 1.498 0 0 0-.359.998v3.461h-1.296v-4.164c0-.512-.017-1.068-.049-1.668h1.141l.06.912h.036c.152-.283.376-.52.672-.705a2.183 2.183 0 0 1 1.176-.328c.544 0 .996.176 1.356.529.448.432.672 1.076.672 1.932v3.492z"/></g></svg>
