<!-- This Source Code Form is subject to the terms of the Mozilla Public
   - License, v. 2.0. If a copy of the MPL was not distributed with this
   - file, You can obtain one at http://mozilla.org/MPL/2.0/. -->
<svg xmlns="http://www.w3.org/2000/svg" viewBox="0 0 16 16"><g fill="#F9F9FA" fill-opacity=".8"><path d="M8.587 2.354L5.5 5H4.191A2.191 2.191 0 0 0 2 7.191v1.618A2.191 2.191 0 0 0 4.191 11H5.5l3.17 2.717a.2.2 0 0 0 .33-.152V2.544a.25.25 0 0 0-.413-.19zm2.988.921a.5.5 0 0 0-.316.949 3.97 3.97 0 0 1 0 7.551.5.5 0 0 0 .316.949 4.971 4.971 0 0 0 0-9.449z"/><path d="M13 8a3 3 0 0 0-2.056-2.787.5.5 0 1 0-.343.939A2.008 2.008 0 0 1 12 8a2.008 2.008 0 0 1-1.4 1.848.5.5 0 0 0 .343.939A3 3 0 0 0 13 8z"/></g></svg>