<!-- This Source Code Form is subject to the terms of the Mozilla Public
   - License, v. 2.0. If a copy of the MPL was not distributed with this
   - file, You can obtain one at http://mozilla.org/MPL/2.0/. -->
<svg width="16" height="16" viewBox="0 0 16 16" xmlns="http://www.w3.org/2000/svg" fill="#0b0b0b">
  <path d="M8.507 3.508l-1.978.003-.107.107v1.334l.848.891.455.031.107-.107v-.57l.75-.705.032-.877zM11.675 8.811l-1.389-1.348h-1.49l-.52.476-.032 1.023.665.708 1.22.032-.107-.107v1.108l.897.942.29.031.108-.107v-1.066l.39-.345.03-.855-.107.107h.24l.377-.334v-.151l-.116-.114-.531-.031z"/>
  <path d="M7.973 13.145a5.177 5.177 0 0 1-5.171-5.172c0-.034 0-.034.002-.066v-.003-.03l.17-.081.667.54.453.031.458.502-.03.832.291.352h.434l.105.088-.03 1.752.483.512h.097l.023-.31.927-.88.05-.435.489-.427v-.82l-.543-.035-1.032-1.066H4.29l-.142-.084v-.796l.142-.093h1.074v-.251l.11-.105.648.03.455-.408.031-.69-.576-.603h-.668v.26l-.102.064h-.826l-.105-.084.023-.59.442-.397v-.226h-.352c-.094 0-.14-.119-.073-.184a5.154 5.154 0 0 1 7.005-.187.104.104 0 0 1-.069.184l-1.056-.031-.745.74.48.484v.148l-.354.357h-.146l-.162-.163v-.148l.07-.07-.232-.232-.342.334.49.49c.065.066.004.18-.09.179l-.694-.004v.779h.723l.03-.516.147-.133h.148l.574.562v.248l.533.025h.003l.166-.028 1.14 1.143.695-.653h.353l.107.1c0 .018.003.015.003.033v.002c0 .028-.002.028-.001.058a5.179 5.179 0 0 1-5.174 5.172M7.973 2A5.98 5.98 0 0 0 2 7.974a5.98 5.98 0 0 0 5.973 5.973 5.98 5.98 0 0 0 5.974-5.974A5.98 5.98 0 0 0 7.973 2"/>
</svg>
