<!-- This Source Code Form is subject to the terms of the Mozilla Public
   - License, v. 2.0. If a copy of the MPL was not distributed with this
   - file, You can obtain one at http://mozilla.org/MPL/2.0/. -->
<svg width="16" height="16" viewBox="0 0 16 16" xmlns="http://www.w3.org/2000/svg" fill="#0b0b0b">
  <path d="M7.5 7.556c3.006 0 5.5-1.136 5.5-2.778C13 3.136 10.506 2 7.5 2S2 3.136 2 4.778C2 6.42 4.494 7.556 7.5 7.556zm0-1c-2.517 0-4.5-.903-4.5-1.778S4.983 3 7.5 3s4.5.903 4.5 1.778-1.983 1.778-4.5 1.778zM7.5 14.445c3.006 0 5.5-1.137 5.5-2.778 0-.878-.595-1.606-1.657-2.081-.244-.11-.473-.107-.778-.033-.056.014-.565.158-.765.205-.626.148-1.342.231-2.3.231-.973 0-1.683-.082-2.273-.225a18.574 18.574 0 0 1-.673-.193c-.277-.076-.479-.089-.707-.005l-.035.014C2.638 10.064 2 10.756 2 11.667c0 1.641 2.494 2.778 5.5 2.778zm0-1c-2.517 0-4.5-.904-4.5-1.778 0-.432.354-.816 1.194-1.163h-.002c-.012.005.003.006.097.032-.056-.016.474.144.702.2.669.162 1.458.253 2.509.253 1.035 0 1.828-.092 2.53-.257.228-.054.74-.2.77-.207a.756.756 0 0 1 .134-.027c.734.329 1.066.735 1.066 1.169 0 .874-1.983 1.778-4.5 1.778z"/>
  <path d="M7.5 10.945c3.006 0 5.5-1.137 5.5-2.778 0-.873-.62-1.601-1.693-2.082-.244-.109-.472-.106-.773-.032-.051.013-.551.158-.75.206-.615.147-1.326.23-2.284.23-.973 0-1.68-.082-2.265-.225a17.077 17.077 0 0 1-.66-.19c-.27-.076-.467-.092-.692-.015l-.054.02C2.65 6.568 2 7.259 2 8.168c0 1.641 2.494 2.778 5.5 2.778zm0-1C4.983 9.945 3 9.04 3 8.167c0-.426.364-.813 1.21-1.163l-.003.001c-.011.004.005.005.099.032-.079-.022.465.143.69.198.665.163 1.452.254 2.504.254 1.036 0 1.825-.092 2.517-.258.228-.054.733-.2.758-.207a.766.766 0 0 1 .124-.026c.748.335 1.101.75 1.101 1.169 0 .874-1.983 1.778-4.5 1.778z"/>
</svg>
