<svg xmlns="http://www.w3.org/2000/svg" width="16" height="14" viewBox="0 0 16 14">
    <g fill="none" fill-rule="evenodd">
        <path d="M0-1h16v16H0z"/>
        <path fill="context-fill" fill-rule="nonzero" d="M14.929 2.984c-.715-.878-1.685-1.572-2.911-2.08C10.792.393 9.452.14 8 .14S5.208.394 3.982.903c-1.226.51-2.196 1.203-2.91 2.08C.356 3.863 0 4.819 0 5.855c0 .893.27 1.73.808 2.51.539.779 1.275 1.434 2.21 1.964a5.7 5.7 0 0 1-.232.678c-.09.214-.17.39-.241.527a3.624 3.624 0 0 1-.29.455 4.657 4.657 0 0 1-.277.353 142.3 142.3 0 0 0-.657.728l-.062.076-.054.08c-.03.044-.043.073-.04.085a.237.237 0 0 1-.018.089c-.015.048-.013.083.005.107v.009a.455.455 0 0 0 .143.246.358.358 0 0 0 .24.093h.045a6.733 6.733 0 0 0 1.018-.196 9.757 9.757 0 0 0 4.107-2.161c.447.048.878.071 1.295.071 1.452 0 2.792-.254 4.018-.763 1.226-.51 2.196-1.202 2.91-2.08C15.643 7.847 16 6.89 16 5.855c0-1.036-.357-1.993-1.071-2.871zm-1.457 4.948c-.575.645-1.35 1.158-2.326 1.538-.976.38-2.025.57-3.146.57-.335 0-.693-.022-1.072-.065l-.47-.05-.355.312a8.138 8.138 0 0 1-2.268 1.403c.253-.443.446-.913.578-1.41l.222-.788-.717-.41c-.715-.405-1.269-.885-1.662-1.44-.393-.555-.59-1.14-.59-1.752 0-.749.288-1.446.862-2.092.575-.645 1.35-1.158 2.326-1.538A8.591 8.591 0 0 1 8 1.64c1.122 0 2.17.19 3.146.57.976.38 1.75.893 2.326 1.538.574.646.861 1.343.861 2.092 0 .75-.287 1.447-.861 2.092z"/>
    </g>
</svg>
