<svg xmlns="http://www.w3.org/2000/svg" width="16" height="16" viewBox="0 0 16 16" fill="context-fill">
  <path d="M12 7l-4 4a4 4 0 0 0 4-4zm3.955.7a1 1 0 0 1 0 .6A8.325 8.325 0 0 1 8 14a8.478 8.478 0 0 1-2.59-.409l1.66-1.661c.308.046.619.069.93.07a6.331 6.331 0 0 0 5.943-4 5.781 5.781 0 0 0-1.118-1.828l1.41-1.41a7.817 7.817 0 0 1 1.72 2.938zm-1.248-6.407a1 1 0 0 1 0 1.414l-12 12a1 1 0 1 1-1.414-1.414l1.284-1.287A7.874 7.874 0 0 1 .045 8.294a1 1 0 0 1 0-.594A8.355 8.355 0 0 1 11.7 2.882l1.593-1.589a1 1 0 0 1 1.414 0zM8.5 5A1.5 1.5 0 0 0 7 6.5c.003.295.094.581.263.823l2.06-2.06A1.46 1.46 0 0 0 8.5 5zM2.057 8a5.928 5.928 0 0 0 1.936 2.595l.986-.986A3.933 3.933 0 0 1 4.557 5a6.061 6.061 0 0 0-2.5 3z"/>
</svg>
