<!-- This Source Code Form is subject to the terms of the Mozilla Public
   - License, v. 2.0. If a copy of the MPL was not distributed with this
   - file, You can obtain one at http://mozilla.org/MPL/2.0/. -->
<svg xmlns="http://www.w3.org/2000/svg" width="300" height="209" viewBox="0 0 300 209">
  <defs>
    <linearGradient id="lockwise-a" x1="70.127%" x2="70.127%" y1="96.836%" y2="-15.705%">
      <stop offset="0%" stop-color="#CDCDD4" stop-opacity="0"/>
      <stop offset="58%" stop-color="#CDCDD4" stop-opacity=".02"/>
      <stop offset="77%" stop-color="#CDCDD4" stop-opacity=".08"/>
      <stop offset="96%" stop-color="#CDCDD4" stop-opacity=".18"/>
      <stop offset="100%" stop-color="#CDCDD4" stop-opacity=".2"/>
    </linearGradient>
    <radialGradient id="lockwise-b" cx="126.893%" cy="255.606%" r="325.015%" fx="126.893%" fy="255.606%" gradientTransform="matrix(.5786 0 0 1 .535 0)">
      <stop offset="26%" stop-color="#CDCDD4" stop-opacity="0"/>
      <stop offset="40%" stop-color="#CDCDD4" stop-opacity=".02"/>
      <stop offset="55%" stop-color="#CDCDD4" stop-opacity=".08"/>
      <stop offset="69%" stop-color="#CDCDD4" stop-opacity=".18"/>
      <stop offset="72%" stop-color="#CDCDD4" stop-opacity=".2"/>
    </radialGradient>
    <radialGradient id="lockwise-c" cx="-55.742%" cy="260.74%" r="317.936%" fx="-55.742%" fy="260.74%" gradientTransform="matrix(.57221 0 0 1 -.238 0)">
      <stop offset="27%" stop-color="#CDCDD4" stop-opacity="0"/>
      <stop offset="46%" stop-color="#CDCDD4" stop-opacity=".02"/>
      <stop offset="66%" stop-color="#CDCDD4" stop-opacity=".08"/>
      <stop offset="86%" stop-color="#CDCDD4" stop-opacity=".18"/>
      <stop offset="90%" stop-color="#CDCDD4" stop-opacity=".2"/>
    </radialGradient>
    <linearGradient id="lockwise-d" x1="7.536%" x2="68.583%" y1="65.726%" y2="43.12%">
      <stop offset="0%" stop-color="#B833E1"/>
      <stop offset="91%" stop-color="#FF4F5E"/>
    </linearGradient>
    <linearGradient id="lockwise-e" x1="-68.282%" x2="131.387%" y1="139.888%" y2="-11.036%">
      <stop offset="28%" stop-color="#7542E5"/>
      <stop offset="42%" stop-color="#824DEB"/>
      <stop offset="79%" stop-color="#A067FA"/>
      <stop offset="100%" stop-color="#AB71FF"/>
    </linearGradient>
    <linearGradient id="lockwise-f" x1="-43.795%" x2="124.252%" y1="84.765%" y2="22.502%">
      <stop offset="40%" stop-color="#0090ED"/>
      <stop offset="56%" stop-color="#2A88F1"/>
      <stop offset="92%" stop-color="#9275FC"/>
      <stop offset="100%" stop-color="#AB71FF"/>
    </linearGradient>
    <linearGradient id="lockwise-g" x1="-17.372%" x2="109.306%" y1="151.599%" y2="-39.422%">
      <stop offset="43%" stop-color="#00B3F4"/>
      <stop offset="61%" stop-color="#00BBF6"/>
      <stop offset="89%" stop-color="#00D2FC"/>
      <stop offset="100%" stop-color="#0DF"/>
    </linearGradient>
  </defs>
  <circle cx="154.306" cy="109.889" r="107.444" fill="url(#lockwise-a)"/>
  <path fill="url(#lockwise-b)" d="M85.5416667,80.8472222 C85.5416667,89.0277438 78.9304323,95.6701066 70.75,95.7083333 L11.2916667,95.7083333 C5.17541993,95.4943857 0.327726784,90.4741542 0.327726784,84.3541667 C0.327726784,78.2341791 5.17541993,73.2139476 11.2916667,73 C12.2285282,72.99817 13.1618599,73.1148364 14.0694444,73.3472222 C13.8641906,72.4823819 13.7570332,71.5971688 13.75,70.7083333 C13.7942051,66.3953789 16.2033401,62.4551064 20.0221021,60.4499661 C23.840864,58.4448259 28.4522835,58.6987739 32.0277778,61.1111111 C34.528326,51.5379538 43.7475818,45.3095965 53.5622385,46.562831 C63.3768953,47.8160655 70.7352578,56.1612205 70.75,66.0555556 C78.9065601,66.0860192 85.511203,72.6906621 85.5416667,80.8472222 L85.5416667,80.8472222 Z"/>
  <path fill="url(#lockwise-c)" d="M281.944444,40.1527778 C280.56777,40.1478647 279.195927,40.3158455 277.861111,40.6527778 C279.459938,33.5659175 276.55372,26.223224 270.537855,22.1502383 C264.521991,18.0772526 256.625128,18.1058193 250.638889,22.2222222 C246.813608,7.86060669 232.951542,-1.45416361 218.209226,0.430746832 C203.46691,2.31565727 192.394381,14.8184936 192.305556,29.6805556 C184.346472,29.6805554 176.991976,33.9266759 173.012434,40.8194443 C169.032892,47.7122128 169.032892,56.2044538 173.012434,63.0972223 C176.991976,69.9899908 184.346472,74.2361112 192.305556,74.2361111 L281.944444,74.2361111 C288.136326,74.4130762 293.935121,71.2108318 297.083278,65.8760561 C300.231434,60.5412805 300.231434,53.9170528 297.083278,48.5822772 C293.935121,43.2475016 288.136326,40.0452571 281.944444,40.2222222 L281.944444,40.1527778 Z"/>
  <path fill="url(#lockwise-d)" d="M104.458333,73.4861111 L45.9444444,73.4861111 C40.4279303,73.5013713 35.9597046,77.9695969 35.9444444,83.4861111 L35.9444444,92.5694444 C35.9597046,98.0859586 40.4279303,102.554184 45.9444444,102.569444 L104.458333,102.569444 C109.974848,102.554184 114.443073,98.0859586 114.458333,92.5694444 L114.458333,83.4861111 C114.443073,77.9695969 109.974848,73.5013713 104.458333,73.4861111 L104.458333,73.4861111 Z M62.9166667,89.3333333 C63.0662911,89.4003249 63.1817989,89.5258768 63.2361111,89.6805556 C63.3039323,89.8258065 63.3039323,89.9936379 63.2361111,90.1388889 L62,92.2361111 C61.9188249,92.3739635 61.7821642,92.4701321 61.625,92.5 C61.4654217,92.5408987 61.2958989,92.5049393 61.1666667,92.4027778 L58.5138889,90.3472222 L58.9305556,93.75 C58.955548,93.9074535 58.9039566,94.0673867 58.7916667,94.1805556 C58.6993523,94.3464174 58.5231234,94.4478826 58.3333333,94.4445291 L55.9027778,94.4445291 C55.737875,94.4450288 55.5808164,94.3740991 55.4722222,94.25 C55.3686393,94.1321904 55.3228314,93.9744078 55.3472222,93.8194444 L55.7638889,90.3888889 L52.9861111,92.4722222 C52.8568789,92.5743837 52.6873561,92.6103431 52.5277778,92.5694444 C52.3695719,92.5330645 52.2336813,92.4324047 52.1527778,92.2916667 L50.9861111,90.2083333 C50.9163117,90.0635278 50.9163117,89.8948055 50.9861111,89.75 C51.0357662,89.5970999 51.1463206,89.4714698 51.2916667,89.4027778 L54.4583333,88.0833333 L51.2916667,86.6944444 C51.1420422,86.6274529 51.0265345,86.501901 50.9722222,86.3472222 C50.9096885,86.2008434 50.9096885,86.0352677 50.9722222,85.8888889 L52.1805556,83.8333333 C52.2650018,83.6957958 52.399379,83.5962572 52.5555556,83.5555556 C52.7171068,83.5281479 52.8828231,83.5683215 53.0138889,83.6666667 L55.7916667,85.7361111 L55.375,82.3472222 C55.3537717,82.1881879 55.3989845,82.0274311 55.5,81.9027778 C55.6139657,81.7879807 55.7687969,81.7230515 55.9305556,81.7221814 L58.3333333,81.7221814 C58.4916013,81.7203046 58.6431729,81.7859857 58.75,81.9027778 C58.8608604,82.022453 58.9118807,82.1857182 58.8888889,82.3472222 L58.4722222,85.7361111 L61.25,83.6944444 C61.3809719,83.5960482 61.5486937,83.5604708 61.7083333,83.5972222 C61.870593,83.6244458 62.0100075,83.7277158 62.0833333,83.875 L63.2638889,85.9583333 C63.3336883,86.1031388 63.3336883,86.2718612 63.2638889,86.4166667 C63.2095767,86.5713454 63.0940689,86.6968974 62.9444444,86.7638889 L59.7222222,88.0277778 L62.9166667,89.3333333 Z M80.9722222,89.3333333 C81.1218467,89.4003249 81.2373544,89.5258768 81.2916667,89.6805556 C81.3542004,89.8269344 81.3542004,89.9925101 81.2916667,90.1388889 L80.0555556,92.2361111 C79.9713468,92.3772725 79.8289514,92.473898 79.6666667,92.5 C79.5114611,92.5385087 79.3471742,92.5025709 79.2222222,92.4027778 L76.5694444,90.3472222 L76.9861111,93.75 C77.0262601,93.9261394 76.9804471,94.1108808 76.8626515,94.2478525 C76.7448558,94.3848241 76.5690536,94.4577748 76.3888889,94.4444444 L74.0138889,94.4444444 C73.8489861,94.4450288 73.6919275,94.3740991 73.5833333,94.25 C73.4764505,94.133611 73.4257216,93.9763514 73.4444444,93.8194444 L73.875,90.2777778 L71.0972222,92.3611111 C70.96799,92.4632726 70.7984672,92.499232 70.6388889,92.4583333 C70.480683,92.4219533 70.3447924,92.3212936 70.2638889,92.1805556 L69.0833333,90.0972222 C69.0279356,89.9494663 69.0279356,89.7866448 69.0833333,89.6388889 C69.1376456,89.4842101 69.2531533,89.3586582 69.4027778,89.2916667 L72.5694444,87.9722222 L69.4027778,86.5833333 C69.2531533,86.5163418 69.1376456,86.3907899 69.0833333,86.2361111 C69.0207996,86.0897323 69.0207996,85.9241566 69.0833333,85.7777778 L70.2916667,83.7222222 C70.3761129,83.5846847 70.5104901,83.4851461 70.6666667,83.4444444 C70.8239003,83.4158311 70.9858407,83.4563162 71.1111111,83.5555556 L73.8888889,85.625 L73.4583333,82.2361111 C73.4409303,82.0751066 73.4912407,81.9141134 73.5972222,81.7916667 C73.7111879,81.6768696 73.8660191,81.6119404 74.0277778,81.6111111 L76.3888889,81.6111111 C76.5464642,81.6125465 76.6967556,81.6776728 76.8055556,81.7916667 C76.9164159,81.9113419 76.9674363,82.074607 76.9444444,82.2361111 L76.5277778,85.625 L79.3055556,83.5833333 C79.437033,83.4869248 79.6035278,83.4514952 79.7628672,83.4860188 C79.9222066,83.5205423 80.059106,83.6217073 80.1388889,83.7638889 L81.3194444,85.8472222 C81.3748422,85.9949781 81.3748422,86.1577996 81.3194444,86.3055556 C81.2651322,86.4602343 81.1496244,86.5857862 81,86.6527778 L77.8333333,87.9583333 L80.9722222,89.3333333 Z M99.0277778,89.3333333 C99.1738255,89.405199 99.2877552,89.5290357 99.3472222,89.6805556 C99.4097559,89.8269344 99.4097559,89.9925101 99.3472222,90.1388889 L98.0972222,92.2361111 C98.0223028,92.3795857 97.8825665,92.4779186 97.7222222,92.5 C97.5670167,92.5385087 97.4027298,92.5025709 97.2777778,92.4027778 L94.6111111,90.3472222 L95.0416667,93.75 C95.0603895,93.906907 95.0096606,94.0641666 94.9027778,94.1805556 C94.7973939,94.3010555 94.6461569,94.3716327 94.4861111,94.375 L92.1111111,94.375 C91.9510653,94.3716327 91.7998284,94.3010555 91.6944444,94.1805556 C91.5875616,94.0641666 91.5368327,93.906907 91.5555556,93.75 L91.9861111,90.2777778 L89.2083333,92.3611111 C89.0781988,92.4613349 88.9096163,92.4970948 88.75,92.4583333 C88.5917942,92.4219533 88.4559035,92.3212936 88.375,92.1805556 L87.1944444,90.0972222 C87.1319107,89.9508434 87.1319107,89.7852677 87.1944444,89.6388889 C87.2487567,89.4842101 87.3642644,89.3586582 87.5138889,89.2916667 L90.6666667,87.9722222 L87.5,86.5833333 C87.3574937,86.5109248 87.2481469,86.386667 87.1944444,86.2361111 C87.1266233,86.0908601 87.1266233,85.9230288 87.1944444,85.7777778 L88.4027778,83.7222222 C88.4849309,83.5826024 88.6202775,83.4823456 88.7777778,83.4444444 C88.9349481,83.417627 89.0961625,83.4579306 89.2222222,83.5555556 L92,85.625 L91.5694444,82.2361111 C91.5520414,82.0751066 91.6023518,81.9141134 91.7083333,81.7916667 C91.8180306,81.6789665 91.9677551,81.6140859 92.125,81.6111111 L94.5555556,81.6111111 C94.7128004,81.6140859 94.862525,81.6789665 94.9722222,81.7916667 C95.0782038,81.9141134 95.1285142,82.0751066 95.1111111,82.2361111 L94.6805556,85.625 L97.4583333,83.5833333 C97.5898108,83.4869248 97.7563056,83.4514952 97.915645,83.4860188 C98.0749844,83.5205423 98.2118837,83.6217073 98.2916667,83.7638889 L99.4583333,85.8472222 C99.5281327,85.9920277 99.5281327,86.1607501 99.4583333,86.3055556 C99.4086783,86.4584557 99.2981238,86.5840857 99.1527778,86.6527778 L95.9861111,87.9583333 L99.0277778,89.3333333 Z"/>
  <path fill="#AB71FF" d="M214.25,43.875 L93.8888889,43.875 C88.9029849,43.875 84.8611111,47.9168738 84.8611111,52.9027778 L84.8611111,139.472222 C84.8611111,144.458126 88.9029849,148.5 93.8888889,148.5 L217.263889,148.5 C220.585268,148.5 223.277778,145.80749 223.277778,142.486111 L223.277778,52.9027778 C223.277778,47.9168738 219.235904,43.875 214.25,43.875 Z"/>
  <path fill="url(#lockwise-e)" d="M213.777778,43.875 L93.4166667,43.875 C88.4307627,43.875 84.3888889,47.9168738 84.3888889,52.9027778 L84.3888889,139.472222 C84.3888889,141.866538 85.340027,144.162788 87.0330638,145.855825 C88.7261005,147.548862 91.0223511,148.5 93.4166667,148.5 L216.791667,148.5 C220.113046,148.5 222.805556,145.80749 222.805556,142.486111 L222.805556,52.9027778 C222.805556,50.5084622 221.854417,48.2122116 220.161381,46.5191749 C218.468344,44.8261381 216.172093,43.875 213.777778,43.875 Z M216.791667,55.9166667 L90.4027778,55.9166667 L90.4027778,52.9027778 C90.4104235,51.2436794 91.7575507,49.9027778 93.4166667,49.9027778 L213.777778,49.9027778 C215.436894,49.9027778 216.784021,51.2436794 216.791667,52.9027778 L216.791667,55.9166667 Z"/>
  <rect width="69.153" height="23.403" x="64.889" y="143.014" fill="#F9F9FA" rx="5.4"/>
  <path fill="url(#lockwise-f)" d="M129.166667,140.541667 L70.7083333,140.541667 C65.1918192,140.556927 60.7235935,145.025152 60.7083333,150.541667 L60.7083333,159.611111 C60.7235935,165.127625 65.1918192,169.595851 70.7083333,169.611111 L129.166667,169.611111 C134.683181,169.595851 139.151407,165.127625 139.166667,159.611111 L139.166667,150.541667 C139.151407,145.025152 134.683181,140.556927 129.166667,140.541667 L129.166667,140.541667 Z M87.6805556,156.388889 C87.8322323,156.452998 87.948731,156.579627 88,156.736111 C88.0625337,156.88249 88.0625337,157.048066 88,157.194444 L86.75,159.291667 C86.6750806,159.435141 86.5353443,159.533474 86.375,159.555556 C86.2178297,159.582373 86.0566153,159.542069 85.9305556,159.444444 L83.2638889,157.402778 L83.6944444,160.791667 C83.7136028,160.952838 83.6630753,161.114526 83.5555556,161.236111 C83.4501716,161.356611 83.2989347,161.427188 83.1388889,161.430556 L80.6527778,161.430556 C80.492732,161.427188 80.341495,161.356611 80.2361111,161.236111 C80.1285914,161.114526 80.0780639,160.952838 80.0972222,160.791667 L80.5277778,157.375 L77.75,159.444444 C77.6213033,159.547708 77.453364,159.58842 77.2916667,159.555556 C77.1354901,159.514854 77.0011129,159.415315 76.9166667,159.277778 L75.7361111,157.180556 C75.6735774,157.034177 75.6735774,156.868601 75.7361111,156.722222 C75.787538,156.569022 75.9046818,156.446785 76.0555556,156.388889 L79.2083333,155.069444 L76.0416667,153.680556 C75.8971578,153.617797 75.7860909,153.496633 75.7361111,153.347222 C75.6677688,153.197233 75.6677688,153.024989 75.7361111,152.875 L76.9444444,150.819444 C77.022707,150.678939 77.1607659,150.581786 77.3194444,150.555556 C77.4746659,150.524804 77.6356838,150.560026 77.7638889,150.652778 L80.5555556,152.777778 L80.125,149.402778 C80.1058416,149.241606 80.1563692,149.079918 80.2638889,148.958333 C80.3692728,148.837833 80.5205097,148.767256 80.6805556,148.763889 L83.1111111,148.763889 C83.2711569,148.767256 83.4223939,148.837833 83.5277778,148.958333 C83.6352975,149.079918 83.685825,149.241606 83.6666667,149.402778 L83.2083333,152.777778 L85.9861111,150.736111 C86.1164398,150.636214 86.2828376,150.595875 86.4444444,150.625 C86.600621,150.665702 86.7349982,150.76524 86.8194444,150.902778 L87.9861111,153 C88.0559105,153.144805 88.0559105,153.313528 87.9861111,153.458333 C87.939427,153.609659 87.8272587,153.732025 87.6805556,153.791667 L84.5138889,155.180556 L87.6805556,156.388889 Z M105.736111,156.388889 C105.893939,156.443955 106.01381,156.574249 106.055556,156.736111 C106.125355,156.880917 106.125355,157.049639 106.055556,157.194444 L104.805556,159.291667 C104.72438,159.429519 104.58772,159.525688 104.430556,159.555556 C104.273385,159.582373 104.112171,159.542069 103.986111,159.444444 L101.388889,157.402778 L101.819444,160.791667 C101.830706,160.952012 101.781113,161.11071 101.680556,161.236111 C101.571961,161.36021 101.414903,161.43114 101.25,161.430559 L98.7638889,161.430559 C98.60245,161.427825 98.4497595,161.35669 98.3438116,161.23485 C98.2378637,161.11301 98.1886198,160.951921 98.2083333,160.791667 L98.625,157.375 L95.8472222,159.444444 C95.7191348,159.546637 95.552467,159.587072 95.3917905,159.554937 C95.2311139,159.522801 95.0928187,159.421373 95.0138889,159.277778 L93.8333333,157.180556 C93.763534,157.03575 93.763534,156.867028 93.8333333,156.722222 C93.8847603,156.569022 94.001904,156.446785 94.1527778,156.388889 L97.3055556,155.069444 L94.1388889,153.680556 C93.9921857,153.620914 93.8800175,153.498548 93.8333333,153.347222 C93.764991,153.197233 93.764991,153.024989 93.8333333,152.875 L95.0416667,150.819444 C95.1258754,150.678283 95.2682709,150.581658 95.4305556,150.555556 C95.585777,150.524804 95.7467949,150.560026 95.875,150.652778 L98.6111111,152.777778 L98.1944444,149.402778 C98.1747309,149.242524 98.2239748,149.081435 98.3299227,148.959595 C98.4358706,148.837755 98.5885611,148.766619 98.75,148.763885 L101.166667,148.763885 C101.331569,148.763305 101.488628,148.834234 101.597222,148.958333 C101.69778,149.083735 101.747373,149.242433 101.736111,149.402778 L101.388889,152.777778 L104.166667,150.736111 C104.292726,150.638486 104.453941,150.598183 104.611111,150.625 C104.770826,150.658057 104.907946,150.759628 104.986111,150.902778 L106.166667,153 C106.236466,153.144805 106.236466,153.313528 106.166667,153.458333 C106.11524,153.611533 105.998096,153.73377 105.847222,153.791667 L102.694444,155.180556 L105.736111,156.388889 Z M123.791667,156.388889 C123.942901,156.450423 124.05941,156.57537 124.110239,156.73053 C124.161067,156.885691 124.141068,157.055355 124.055556,157.194444 L122.819444,159.291667 C122.738269,159.429519 122.601609,159.525688 122.444444,159.555556 C122.282893,159.582963 122.117177,159.54279 121.986111,159.444444 L119.444444,157.402778 L119.861111,160.791667 C119.885571,160.952818 119.838027,161.116581 119.731072,161.239579 C119.624117,161.362578 119.468542,161.432401 119.305556,161.430591 L116.875,161.430591 C116.713561,161.427825 116.560871,161.35669 116.454923,161.23485 C116.348975,161.11301 116.299731,160.951921 116.319444,160.791667 L116.736111,157.375 L113.958333,159.444444 C113.83482,159.547201 113.671227,159.588099 113.513889,159.555556 C113.354174,159.522498 113.217054,159.420928 113.138889,159.277778 L111.958333,157.180556 C111.888534,157.03575 111.888534,156.867028 111.958333,156.722222 C112.008313,156.572812 112.11938,156.451648 112.263889,156.388889 L115.430556,155.069444 L112.263889,153.680556 C112.113412,153.626463 111.999162,153.501826 111.958333,153.347222 C111.889991,153.197233 111.889991,153.024989 111.958333,152.875 L113.166667,150.819444 C113.247842,150.681592 113.384502,150.585423 113.541667,150.555556 C113.701318,150.522488 113.867522,150.557743 114,150.652778 L116.777778,152.722222 L116.361111,149.347222 C116.336651,149.186071 116.384195,149.022308 116.49115,148.89931 C116.598106,148.776311 116.75368,148.706488 116.916667,148.708298 L119.333333,148.708298 C119.49632,148.706488 119.651894,148.776311 119.75885,148.89931 C119.865805,149.022308 119.913349,149.186071 119.888889,149.347222 L119.444444,152.777778 L122.222222,150.736111 C122.353979,150.63924 122.519065,150.599219 122.680556,150.625 C122.838056,150.662901 122.973402,150.763158 123.055556,150.902778 L124.236111,153 C124.30591,153.144805 124.30591,153.313528 124.236111,153.458333 C124.184684,153.611533 124.06754,153.73377 123.916667,153.791667 L120.763889,155.180556 L123.791667,156.388889 Z"/>
  <path fill="#FFF" d="M51.64,20.7666667 C46.0864858,14.4998219 40.1601781,8.57351416 33.8933333,3.02 C30.082543,-0.123985623 24.577457,-0.123985623 20.7666667,3.02 C14.4996228,8.57566521 8.573311,14.5042033 3.02,20.7733333 C-0.123985623,24.5841237 -0.123985623,30.0892096 3.02,33.9 C8.57566521,40.1670439 14.5042033,46.0933557 20.7733333,51.6466667 C22.6030951,53.1992337 24.9339084,54.0353892 27.3333333,54 C29.7438562,54.0326548 32.0843096,53.1893335 33.92,51.6266667 C37.1866667,48.68 40.1666667,45.8333333 43.04,42.9133333 C44.0581483,41.7108072 43.9586152,39.9221388 42.8133333,38.84 L34,30.62 C36.274261,28.5981416 37.5179816,25.6602189 37.3866667,22.62 C37.1392566,17.3965683 33.0052958,13.1937081 27.7866667,12.86 C24.9872333,12.6967419 22.2453042,13.7008286 20.2133333,15.6333333 C18.1443724,17.5899155 16.9888257,20.3231815 17.026824,23.1705258 C17.0648224,26.01787 18.2928965,28.7193262 20.4133333,30.62 L17.2266667,33.5066667 C16.2045489,34.4642307 16.1359367,36.0633963 17.0722806,37.1049882 C18.0086245,38.1465801 19.6060411,38.2480612 20.6666667,37.3333333 L24.1933333,34.1333333 L24.2866667,34.0466667 C25.2417489,33.0901939 25.7520065,31.7770665 25.6933333,30.4266667 C25.6438002,29.0668006 25.03025,27.7889736 24,26.9 C22.3771375,25.5322057 21.7818989,23.2961006 22.5099768,21.3024992 C23.2380547,19.3088978 25.1342756,17.982692 27.2566667,17.982692 C29.3790578,17.982692 31.2752786,19.3088978 32.0033565,21.3024992 C32.7314345,23.2961006 32.1361959,25.5322057 30.5133333,26.9 C29.4615006,27.7865292 28.8282135,29.0724403 28.7666667,30.4466667 C28.7144664,31.7900781 29.2241686,33.0945293 30.1733333,34.0466667 L30.2333333,34.1066667 L37.6333333,41.04 C35.3666667,43.2866667 33.0066667,45.5133333 30.4933333,47.7933333 C28.6241984,49.1933351 26.0558016,49.1933351 24.1866667,47.7933333 C18.0681361,42.3666642 12.2800024,36.5785306 6.85333333,30.46 C5.45774974,28.5893962 5.45774974,26.0239371 6.85333333,24.1533333 C12.2766966,18.03169 18.0650233,12.2433633 24.1866667,6.82 C26.0544402,5.42332443 28.6188932,5.42332443 30.4866667,6.82 C36.60831,12.2433633 42.3966367,18.03169 47.82,24.1533333 C49.2166756,26.0211068 49.2166756,28.5855598 47.82,30.4533333 C46.9333333,31.4533333 46.0466667,32.4533333 45.1533333,33.3666667 C44.1923579,34.4104848 44.2595152,36.0356912 45.3033333,36.9966667 C46.3471515,37.9576421 47.9723579,37.8904848 48.9333333,36.8466667 C49.8133333,35.8933333 50.72,34.8933333 51.6,33.8666667 C54.7409838,30.0702181 54.7577411,24.5822259 51.64,20.7666667 Z" transform="translate(126.347 68.5)"/>
  <rect width="63.083" height="95.125" x="186.611" y="79.222" fill="url(#lockwise-g)" rx="5.4"/>
  <rect width="11.75" height="5.875" x="212.181" y="158.847" fill="#0DF"/>
  <path fill="#FFF" d="M33.3508333,13.4118056 C29.7641888,9.3644683 25.9367817,5.53706123 21.8894444,1.95041667 C19.428309,-0.0800740485 15.872941,-0.0800740485 13.4118056,1.95041667 C9.36433971,5.53845045 5.53693002,9.36729793 1.95041667,13.4161111 C-0.0800740485,15.8772466 -0.0800740485,19.4326145 1.95041667,21.89375 C5.53845045,25.9412158 9.36729793,29.7686255 13.4161111,33.3551389 C14.5978323,34.3578384 16.1031492,34.8978556 17.6527778,34.875 C19.2095738,34.8960895 20.7211166,34.3514445 21.9066667,33.3422222 C24.0163889,31.4391667 25.9409722,29.6006944 27.7966667,27.7148611 C28.4542208,26.9382297 28.389939,25.783048 27.6502778,25.0841667 L21.9583333,19.7754167 C23.4271269,18.4696331 24.2303631,16.5722247 24.1455556,14.60875 C23.9857699,11.2352837 21.3159202,8.52093647 17.9455556,8.30541667 C16.1375882,8.19997912 14.366759,8.84845178 13.0544444,10.0965278 C11.7182405,11.3601537 10.9719499,13.1253881 10.9964905,14.9642979 C11.0210311,16.8032077 11.8141623,18.5478982 13.1836111,19.7754167 L11.1255556,21.6397222 C10.4654378,22.258149 10.4211258,23.2909435 11.0258479,23.9636382 C11.63057,24.636333 12.6622349,24.7018729 13.3472222,24.1111111 L15.6248611,22.0444444 L15.6851389,21.9884722 C16.3019629,21.3707502 16.6315042,20.5226888 16.5936111,19.6505556 C16.561621,18.7723087 16.1653698,17.9470455 15.5,17.3729167 C14.4519013,16.4895495 14.0674763,15.0453983 14.5376933,13.7578641 C15.0079103,12.4703298 16.232553,11.6138219 17.6032639,11.6138219 C18.9739748,11.6138219 20.1986174,12.4703298 20.6688344,13.7578641 C21.1390514,15.0453983 20.7546265,16.4895495 19.7065278,17.3729167 C19.0272191,17.9454668 18.6182212,18.775951 18.5784722,19.6634722 C18.5447595,20.5310921 18.8739422,21.3735502 19.4869444,21.9884722 L19.5256944,22.0272222 L24.3048611,26.505 C22.8409722,27.9559722 21.3168056,29.3940278 19.6936111,30.8665278 C18.4864615,31.7706956 16.8277052,31.7706956 15.6205556,30.8665278 C11.6690046,27.361804 7.93083491,23.6236343 4.42611111,19.6720833 C3.52479671,18.463985 3.52479671,16.8071261 4.42611111,15.5990278 C7.9286999,11.6454665 11.6669942,7.90717212 15.6205556,4.40458333 C16.8268259,3.5025637 18.4830352,3.5025637 19.6893056,4.40458333 C23.6428669,7.90717212 27.3811612,11.6454665 30.88375,15.5990278 C31.7857696,16.8052982 31.7857696,18.4615074 30.88375,19.6677778 C30.3111111,20.3136111 29.7384722,20.9594444 29.1615278,21.5493056 C28.5408978,22.2234381 28.5842702,23.2730506 29.2584028,23.8936806 C29.9325354,24.5143105 30.9821478,24.4709381 31.6027778,23.7968056 C32.1711111,23.1811111 32.7566667,22.5352778 33.325,21.8722222 C35.3535521,19.4203492 35.3643744,15.8760209 33.3508333,13.4118056 Z" transform="translate(199.472 103.222)"/>
</svg>
