<!-- This Source Code Form is subject to the terms of the Mozilla Public
   - License, v. 2.0. If a copy of the MPL was not distributed with this
   - file, You can obtain one at http://mozilla.org/MPL/2.0/. -->
<svg xmlns="http://www.w3.org/2000/svg" width="16" height="16" fill="context-fill" fill-opacity="context-fill-opacity">
<path fill-rule="evenodd" clip-rule="evenodd" d="M3 1.75A.75.75 0 0 1 3.75 1h8.5a.75.75 0 0 1 .75.75V3h2.25a.75.75 0 0 1 .75.75v2.5a3.75 3.75 0 0 1-3.41 3.735 5.007 5.007 0 0 1-3.84 2.96V14.5H12V16H4v-1.5h3.25v-1.556a5.007 5.007 0 0 1-3.84-2.96A3.75 3.75 0 0 1 0 6.25v-2.5A.75.75 0 0 1 .75 3H3V1.75zm9.986 6.627A2.25 2.25 0 0 0 14.5 6.25V4.5H13V8c0 .127-.005.252-.014.377zM3 8c0 .127.005.252.014.377A2.25 2.25 0 0 1 1.5 6.25V4.5H3V8zm1.5-5.5V8a3.5 3.5 0 0 0 7 0V2.5h-7z"/>
</svg>
