<!-- This Source Code Form is subject to the terms of the Mozilla Public
   - License, v. 2.0. If a copy of the MPL was not distributed with this
   - file, You can obtain one at http://mozilla.org/MPL/2.0/. -->
<svg xmlns="http://www.w3.org/2000/svg" width="16" height="16" fill="context-fill" fill-opacity="context-fill-opacity">
<path fill-rule="evenodd" d="M3 1a2 2 0 0 0-2 2v10a2 2 0 0 0 2 2h10a2 2 0 0 0 2-2V3a2 2 0 0 0-2-2H3Zm-.5 2a.5.5 0 0 1 .5-.5h2v5a.75.75 0 0 0 1.114.656L8 7.108l1.886 1.048A.75.75 0 0 0 11 7.5v-5h2a.5.5 0 0 1 .5.5v10a.5.5 0 0 1-.5.5H3a.5.5 0 0 1-.5-.5V3Zm7-.5h-3v3.725l1.136-.63a.75.75 0 0 1 .728 0l1.136.63V2.5Z"/>
</svg>
