<!-- This Source Code Form is subject to the terms of the Mozilla Public
   - License, v. 2.0. If a copy of the MPL was not distributed with this
   - file, You can obtain one at https://mozilla.org/MPL/2.0/. -->
<svg width="352" height="214" viewBox="0 0 352 214" fill="none" xmlns="http://www.w3.org/2000/svg">
<g clip-path="url(#clip0_860_36488)">
<rect x="-5.65186" y="-7.44189" width="357.558" height="250" fill="hsla(252, 88%, 70%, 22%)"/>
<g filter="url(#filter0_d_860_36488)">
<rect x="-40.5356" y="52.4418" width="340.116" height="207.558" rx="18.6047" fill="#F9F9FB"/>
</g>
<path d="M-23.6753 52.4418H282.139C291.772 52.4418 299.581 60.2508 299.581 69.8836V173.953H-23.6753V52.4418Z" fill="#E0E0E6"/>
<path fill-rule="evenodd" clip-rule="evenodd" d="M273.703 137.919H258.599C258.366 137.919 258.143 137.826 257.978 137.662C257.813 137.497 257.721 137.274 257.721 137.041C257.721 136.808 257.813 136.585 257.978 136.42C258.143 136.255 258.366 136.163 258.599 136.163H273.703C273.936 136.163 274.159 136.255 274.324 136.42C274.489 136.585 274.581 136.808 274.581 137.041C274.581 137.274 274.489 137.497 274.324 137.662C274.159 137.826 273.936 137.919 273.703 137.919ZM273.703 143.539H258.599C258.366 143.539 258.143 143.447 257.978 143.282C257.813 143.118 257.721 142.894 257.721 142.661C257.721 142.428 257.813 142.205 257.978 142.04C258.143 141.876 258.366 141.783 258.599 141.783H273.703C273.936 141.783 274.159 141.876 274.324 142.04C274.489 142.205 274.581 142.428 274.581 142.661C274.581 142.894 274.489 143.118 274.324 143.282C274.159 143.447 273.936 143.539 273.703 143.539ZM258.599 149.159H273.703C273.936 149.159 274.159 149.067 274.324 148.902C274.489 148.737 274.581 148.514 274.581 148.281C274.581 148.048 274.489 147.825 274.324 147.66C274.159 147.495 273.936 147.403 273.703 147.403H258.599C258.366 147.403 258.143 147.495 257.978 147.66C257.813 147.825 257.721 148.048 257.721 148.281C257.721 148.514 257.813 148.737 257.978 148.902C258.143 149.067 258.366 149.159 258.599 149.159Z" fill="#8F8F9D"/>
<path d="M-23.6753 52.4418H282.139C291.772 52.4418 299.581 60.2508 299.581 69.8836V111.163H-23.6753V52.4418Z" fill="#CFCFD8"/>
<path d="M180.51 82.0315V83.363H167.208V82.0315H180.51Z" fill="#8F8F9D"/>
<path d="M226.871 76.7108V90.0127H213.57V76.7108H226.871ZM225.54 78.0423H214.901V88.6812H225.54V78.0423Z" fill="#8F8F9D"/>
<path d="M267.524 83.3619L273.233 89.071L272.291 90.0128L266.582 84.3037L260.873 90.0128L259.931 89.071L265.64 83.3619L259.931 77.6527L260.873 76.7109L266.582 82.4201L272.291 76.7109L273.233 77.6527L267.524 83.3619Z" fill="#8F8F9D"/>
<rect x="-50.75" y="120.134" width="220.43" height="46.0116" rx="4.40116" fill="white" stroke="#5B5B66" stroke-width="0.5"/>
<rect x="84.1739" y="125.988" width="34.8837" height="34.8837" rx="5.52326" stroke="#0060DF" stroke-width="1.74419"/>
<rect x="-19.605" y="173.953" width="319.186" height="76.7442" fill="#F9F9FB"/>
<path d="M103.624 132.093H94.9371V134.13H103.2L110.926 141.88L112.372 140.443L104.346 132.393C104.155 132.201 103.895 132.093 103.624 132.093Z" fill="#15141A"/>
<path d="M98.3554 144.177L100.004 142.53L98.3554 140.883L96.7069 142.53L98.3554 144.177Z" fill="#15141A"/>
<path fill-rule="evenodd" clip-rule="evenodd" d="M92.0229 137.187C92.0229 136.624 92.4796 136.168 93.0429 136.168H101.511C101.782 136.168 102.041 136.275 102.233 136.466L110.083 144.308C111.222 145.445 111.222 147.287 110.083 148.424L104.004 154.496C102.866 155.633 101.022 155.633 99.8833 154.496L92.3217 146.943C92.1304 146.752 92.0229 146.493 92.0229 146.223V137.187ZM94.0628 138.205V145.801L101.326 153.055C101.668 153.397 102.22 153.397 102.562 153.055L108.641 146.983C108.983 146.642 108.983 146.09 108.641 145.749L101.089 138.205H94.0628Z" fill="#15141A"/>
<path d="M138.723 154.174C138.205 154.174 137.676 154.012 137.24 153.698C136.392 153.093 136.016 152.058 136.275 151.058L137.523 146.232L133.638 143.046C132.837 142.384 132.519 141.325 132.849 140.349C133.167 139.372 134.05 138.686 135.097 138.628L140.136 138.302L141.996 133.674C142.385 132.721 143.303 132.093 144.351 132.093C145.398 132.093 146.317 132.709 146.705 133.674L148.565 138.302L153.604 138.628C154.64 138.698 155.523 139.372 155.852 140.349C156.17 141.325 155.864 142.395 155.064 143.046L151.179 146.232L152.427 151.058C152.686 152.058 152.309 153.093 151.461 153.698C150.614 154.302 149.495 154.337 148.612 153.791L144.351 151.128L140.089 153.791C139.677 154.046 139.206 154.186 138.735 154.186L138.723 154.174ZM144.339 134.116C144.221 134.116 143.997 134.151 143.903 134.407L141.796 139.639C141.655 140 141.302 140.256 140.901 140.279L135.215 140.639C134.933 140.663 134.827 140.849 134.791 140.965C134.756 141.058 134.721 141.291 134.944 141.477L139.324 145.07C139.63 145.325 139.759 145.721 139.665 146.105L138.264 151.558C138.194 151.825 138.347 151.988 138.441 152.058C138.535 152.128 138.735 152.221 138.971 152.07L143.786 149.058C144.127 148.849 144.551 148.849 144.88 149.058L149.695 152.07C149.931 152.221 150.131 152.128 150.225 152.058C150.319 151.988 150.472 151.825 150.402 151.558L148.989 146.105C148.895 145.721 149.024 145.325 149.33 145.07L153.71 141.477C153.933 141.291 153.886 141.058 153.863 140.977C153.827 140.86 153.722 140.674 153.439 140.651L147.753 140.291C147.353 140.267 147.011 140.012 146.858 139.651L144.751 134.418C144.645 134.163 144.433 134.128 144.315 134.128L144.339 134.116Z" fill="#8F8F9D"/>
<line x1="299.581" y1="111.413" x2="-19.605" y2="111.413" stroke="#5B5B66" stroke-width="0.5"/>
<line x1="299.581" y1="174.203" x2="-35.3027" y2="174.203" stroke="#5B5B66" stroke-width="0.5"/>
<path d="M-30.6519 52.4418H280.976C291.251 52.4418 299.581 60.7714 299.581 71.0464V242.558" stroke="#5B5B66" stroke-width="0.5"/>
</g>
<defs>
<filter id="filter0_d_860_36488" x="-49.2566" y="40.2325" width="361.046" height="228.488" filterUnits="userSpaceOnUse" color-interpolation-filters="sRGB">
<feFlood flood-opacity="0" result="BackgroundImageFix"/>
<feColorMatrix in="SourceAlpha" type="matrix" values="0 0 0 0 0 0 0 0 0 0 0 0 0 0 0 0 0 0 127 0" result="hardAlpha"/>
<feOffset dx="1.74419" dy="-1.74419"/>
<feGaussianBlur stdDeviation="5.23256"/>
<feColorMatrix type="matrix" values="0 0 0 0 0.227451 0 0 0 0 0.223529 0 0 0 0 0.266667 0 0 0 0.2 0"/>
<feBlend mode="normal" in2="BackgroundImageFix" result="effect1_dropShadow_860_36488"/>
<feBlend mode="normal" in="SourceGraphic" in2="effect1_dropShadow_860_36488" result="shape"/>
</filter>
<clipPath id="clip0_860_36488">
<rect width="352" height="214" fill="white"/>
</clipPath>
</defs>
</svg>
