<!-- This Source Code Form is subject to the terms of the Mozilla Public
   - License, v. 2.0. If a copy of the MPL was not distributed with this
   - file, You can obtain one at http://mozilla.org/MPL/2.0/. -->
<svg xmlns="http://www.w3.org/2000/svg" width="16" height="16" fill="context-fill" fill-opacity="context-fill-opacity">
<path d="M8.035 9.713 11 6.748l-1.061-1.06-2.434 2.434L6.06 6.677 5 7.737l1.975 1.976a.75.75 0 0 0 1.06 0Z"/>
<path d="M10.586 1.723 9.414.552a2 2 0 0 0-2.828 0L5.414 1.723H3.757a2 2 0 0 0-2 2v1.656L.585 6.552a2 2 0 0 0 0 2.828l1.172 1.172v1.657a2 2 0 0 0 2 2h1.657l1.172 1.171a2 2 0 0 0 2.828 0l1.172-1.171h1.657a2 2 0 0 0 2-2v-1.657l1.172-1.172a2 2 0 0 0 0-2.828l-1.172-1.173V3.723a2 2 0 0 0-2-2h-1.657Zm-2.94-.11a.5.5 0 0 1 .708 0l1.392 1.39c.14.141.331.22.53.22h1.967a.5.5 0 0 1 .5.5V5.69c0 .199.079.39.22.53l1.39 1.392a.5.5 0 0 1 0 .708l-1.39 1.39a.75.75 0 0 0-.22.531v1.968a.5.5 0 0 1-.5.5h-1.968a.75.75 0 0 0-.53.22l-1.391 1.39a.5.5 0 0 1-.708 0l-1.39-1.39a.75.75 0 0 0-.531-.22H3.757a.5.5 0 0 1-.5-.5v-1.968a.75.75 0 0 0-.22-.53L1.647 8.32a.5.5 0 0 1 0-.708l1.39-1.392a.75.75 0 0 0 .22-.53V3.723a.5.5 0 0 1 .5-.5h1.968a.75.75 0 0 0 .53-.22l1.391-1.39Z"/>
</svg>
