<!-- This Source Code Form is subject to the terms of the Mozilla Public
   - License, v. 2.0. If a copy of the MPL was not distributed with this
   - file, You can obtain one at https://mozilla.org/MPL/2.0/. -->
<svg width="352" height="214" viewBox="0 0 352 214" fill="none" xmlns="http://www.w3.org/2000/svg">
<g clip-path="url(#clip0_860_36523)">
<rect width="352" height="214" fill="hsla(252, 88%, 70%, 22%)"/>
<g filter="url(#filter0_d_860_36523)">
<path d="M301.2 27.6845C301.2 22.8882 297.312 19 292.515 19H58.6845C53.8882 19 50 22.8882 50 27.6845V75.1155C50 79.9118 53.8882 83.8 58.6845 83.8H292.515C297.312 83.8 301.2 79.9118 301.2 75.1155V27.6845Z" fill="white"/>
</g>
<path d="M66.8272 36.3504L64.3962 34.3317C64.2369 34.2002 64.1209 34.0236 64.0636 33.825C64.0063 33.6265 64.0102 33.4153 64.0749 33.219C64.1379 33.0226 64.2588 32.8497 64.4217 32.723C64.5846 32.5964 64.7819 32.5219 64.9878 32.5093L68.1303 32.3061L68.5561 31.9874L69.7155 29.0744C69.8736 28.68 70.2493 28.425 70.6735 28.425C71.0976 28.425 71.4733 28.68 71.6314 29.0736V29.0744L72.7908 31.9874L73.2167 32.3061L76.3591 32.5093C76.7824 32.5365 77.1411 32.8153 77.272 33.219C77.4038 33.6236 77.2771 34.0605 76.9507 34.3317L74.524 36.347L74.371 36.8502L75.1445 39.889C75.249 40.3012 75.0943 40.7271 74.7509 40.9761C74.5842 41.0974 74.3849 41.1658 74.1788 41.1726C73.9727 41.1795 73.7694 41.1243 73.5949 41.0144L70.937 39.3339H70.4091L67.752 41.0144C67.3899 41.2405 66.936 41.2243 66.5952 40.9761C66.4277 40.8557 66.3006 40.6874 66.2304 40.4934C66.1601 40.2994 66.1501 40.0888 66.2016 39.889L66.9734 36.8579L66.8272 36.3504Z" fill="#FFA436"/>
<path d="M83.8272 36.3504L81.3962 34.3317C81.2369 34.2002 81.1209 34.0236 81.0636 33.825C81.0063 33.6265 81.0102 33.4153 81.0749 33.219C81.1379 33.0226 81.2588 32.8497 81.4217 32.723C81.5846 32.5964 81.7819 32.5219 81.9878 32.5093L85.1303 32.3061L85.5561 31.9874L86.7155 29.0744C86.8736 28.68 87.2493 28.425 87.6735 28.425C88.0976 28.425 88.4733 28.68 88.6314 29.0736V29.0744L89.7908 31.9874L90.2167 32.3061L93.3591 32.5093C93.7824 32.5365 94.1411 32.8153 94.272 33.219C94.4038 33.6236 94.2771 34.0605 93.9507 34.3317L91.524 36.347L91.371 36.8502L92.1445 39.889C92.249 40.3012 92.0943 40.7271 91.7509 40.9761C91.5842 41.0974 91.3849 41.1658 91.1788 41.1726C90.9727 41.1795 90.7694 41.1243 90.5949 41.0144L87.937 39.3339H87.4091L84.752 41.0144C84.3899 41.2405 83.936 41.2243 83.5952 40.9761C83.4277 40.8557 83.3006 40.6874 83.2304 40.4934C83.1601 40.2994 83.1501 40.0888 83.2016 39.889L83.9734 36.8579L83.8272 36.3504Z" fill="#FFA436"/>
<path d="M100.827 36.3504L98.3962 34.3317C98.2369 34.2002 98.1209 34.0236 98.0636 33.825C98.0063 33.6265 98.0102 33.4153 98.0749 33.219C98.1379 33.0226 98.2588 32.8497 98.4217 32.723C98.5846 32.5964 98.7819 32.5219 98.9878 32.5093L102.13 32.3061L102.556 31.9874L103.716 29.0744C103.874 28.68 104.249 28.425 104.673 28.425C105.098 28.425 105.473 28.68 105.631 29.0736V29.0744L106.791 31.9874L107.217 32.3061L110.359 32.5093C110.782 32.5365 111.141 32.8153 111.272 33.219C111.404 33.6236 111.277 34.0605 110.951 34.3317L108.524 36.347L108.371 36.8502L109.144 39.889C109.249 40.3012 109.094 40.7271 108.751 40.9761C108.584 41.0974 108.385 41.1658 108.179 41.1726C107.973 41.1795 107.769 41.1243 107.595 41.0144L104.937 39.3339H104.409L101.752 41.0144C101.39 41.2405 100.936 41.2243 100.595 40.9761C100.428 40.8557 100.301 40.6874 100.23 40.4934C100.16 40.2994 100.15 40.0888 100.202 39.889L100.973 36.8579L100.827 36.3504Z" fill="#FFA436"/>
<path d="M117.827 36.3504L115.396 34.3317C115.237 34.2002 115.121 34.0236 115.064 33.825C115.006 33.6265 115.01 33.4153 115.075 33.219C115.138 33.0226 115.259 32.8497 115.422 32.723C115.585 32.5964 115.782 32.5219 115.988 32.5093L119.13 32.3061L119.556 31.9874L120.716 29.0744C120.874 28.68 121.249 28.425 121.673 28.425C122.098 28.425 122.473 28.68 122.631 29.0736V29.0744L123.791 31.9874L124.217 32.3061L127.359 32.5093C127.782 32.5365 128.141 32.8153 128.272 33.219C128.404 33.6236 128.277 34.0605 127.951 34.3317L125.524 36.347L125.371 36.8502L126.144 39.889C126.249 40.3012 126.094 40.7271 125.751 40.9761C125.584 41.0974 125.385 41.1658 125.179 41.1726C124.973 41.1795 124.769 41.1243 124.595 41.0144L121.937 39.3339H121.409L118.752 41.0144C118.39 41.2405 117.936 41.2243 117.595 40.9761C117.428 40.8557 117.301 40.6874 117.23 40.4934C117.16 40.2994 117.15 40.0888 117.202 39.889L117.973 36.8579L117.827 36.3504Z" fill="#FFA436"/>
<path d="M135.431 41.1742C135.145 41.1742 134.86 41.0858 134.617 40.9081C134.392 40.746 134.222 40.5196 134.127 40.2587C134.033 39.9979 134.02 39.7147 134.089 39.4461L134.82 36.5774L132.542 34.6853C132.329 34.5091 132.173 34.2724 132.096 34.0062C132.019 33.74 132.024 33.4568 132.111 33.1935C132.196 32.9295 132.358 32.6973 132.577 32.5271C132.796 32.3569 133.061 32.2568 133.338 32.2398L136.292 32.0486L137.387 29.2971C137.598 28.7676 138.103 28.425 138.674 28.425C139.244 28.425 139.749 28.7676 139.96 29.2971L141.055 32.0486L144.009 32.2398C144.286 32.2567 144.551 32.3568 144.77 32.527C144.989 32.6971 145.152 32.9295 145.236 33.1935C145.323 33.4571 145.328 33.7407 145.251 34.0072C145.174 34.2737 145.018 34.5106 144.804 34.687L142.526 36.5782L143.257 39.447C143.326 39.7155 143.313 39.9987 143.219 40.2596C143.125 40.5205 142.954 40.7468 142.729 40.909C142.505 41.0731 142.237 41.1657 141.96 41.1747C141.682 41.1836 141.409 41.1085 141.175 40.9591L138.674 39.3773L136.171 40.9591C135.95 41.0994 135.693 41.174 135.431 41.1742ZM138.674 29.4875C138.609 29.4859 138.545 29.5046 138.491 29.541C138.438 29.5775 138.397 29.6298 138.374 29.6907L137.155 32.7532L136.696 33.0873L133.406 33.3006C133.341 33.3033 133.279 33.326 133.228 33.3658C133.177 33.4056 133.139 33.4604 133.12 33.5225C133.099 33.5835 133.097 33.6497 133.115 33.7117C133.134 33.7738 133.171 33.8286 133.222 33.8684L135.758 35.9756L135.933 36.5153L135.119 39.7096C135.101 39.772 135.104 39.8382 135.126 39.8991C135.148 39.9599 135.189 40.0123 135.242 40.0488C135.296 40.0887 135.438 40.1669 135.604 40.0607L138.39 38.3003H138.958L141.745 40.0607C141.799 40.0969 141.863 40.1152 141.928 40.1131C141.993 40.111 142.055 40.0885 142.107 40.0488C142.16 40.0117 142.2 39.9591 142.222 39.8982C142.243 39.8373 142.246 39.7711 142.228 39.7088L141.414 36.5145L141.589 35.9747L144.125 33.8684C144.176 33.8285 144.214 33.7736 144.232 33.7113C144.25 33.6491 144.248 33.5828 144.227 33.5216C144.208 33.4596 144.17 33.4049 144.119 33.3651C144.068 33.3254 144.006 33.3025 143.941 33.2998L140.652 33.0864L140.192 32.7524L138.973 29.6898C138.95 29.6293 138.909 29.5772 138.855 29.541C138.802 29.5047 138.738 29.4861 138.674 29.4875Z" fill="#FFA436"/>
<path d="M151.827 36.3504L149.396 34.3317C149.237 34.2002 149.121 34.0236 149.064 33.825C149.006 33.6265 149.01 33.4153 149.075 33.219C149.138 33.0226 149.259 32.8497 149.422 32.723C149.585 32.5964 149.782 32.5219 149.988 32.5093L153.13 32.3061L153.556 31.9874L154.716 29.0744C154.874 28.68 155.249 28.425 155.673 28.425C156.098 28.425 156.473 28.68 156.631 29.0736V29.0744L157.791 31.9874L158.217 32.3061L161.359 32.5093C161.782 32.5365 162.141 32.8153 162.272 33.219C162.404 33.6236 162.277 34.0605 161.951 34.3317L159.524 36.347L159.371 36.8502L160.144 39.889C160.249 40.3012 160.094 40.7271 159.751 40.9761C159.584 41.0974 159.385 41.1658 159.179 41.1726C158.973 41.1795 158.769 41.1243 158.595 41.0144L155.937 39.3339H155.409L152.752 41.0144C152.39 41.2405 151.936 41.2243 151.595 40.9761C151.428 40.8557 151.301 40.6874 151.23 40.4934C151.16 40.2994 151.15 40.0888 151.202 39.889L151.973 36.8579L151.827 36.3504Z" fill="white"/>
<path d="M169.431 41.1742C169.145 41.1742 168.86 41.0858 168.617 40.9081C168.392 40.746 168.222 40.5196 168.127 40.2587C168.033 39.9979 168.02 39.7147 168.089 39.4461L168.82 36.5774L166.542 34.6853C166.329 34.5091 166.173 34.2724 166.096 34.0062C166.019 33.74 166.024 33.4568 166.111 33.1935C166.196 32.9295 166.358 32.6973 166.577 32.5271C166.796 32.3569 167.061 32.2568 167.338 32.2398L170.292 32.0486L171.387 29.2971C171.598 28.7676 172.103 28.425 172.674 28.425C173.244 28.425 173.749 28.7676 173.96 29.2971L175.055 32.0486L178.009 32.2398C178.286 32.2567 178.551 32.3568 178.77 32.527C178.989 32.6971 179.152 32.9295 179.236 33.1935C179.323 33.4571 179.328 33.7407 179.251 34.0072C179.174 34.2737 179.018 34.5106 178.804 34.687L176.526 36.5782L177.257 39.447C177.326 39.7155 177.313 39.9987 177.219 40.2596C177.125 40.5205 176.954 40.7468 176.729 40.909C176.505 41.0731 176.237 41.1657 175.96 41.1747C175.682 41.1836 175.409 41.1085 175.175 40.9591L172.674 39.3773L170.171 40.9591C169.95 41.0994 169.693 41.174 169.431 41.1742ZM172.674 29.4875C172.609 29.4859 172.545 29.5046 172.491 29.541C172.438 29.5775 172.397 29.6298 172.374 29.6907L171.155 32.7532L170.696 33.0873L167.406 33.3006C167.341 33.3033 167.279 33.326 167.228 33.3658C167.177 33.4056 167.139 33.4604 167.12 33.5225C167.099 33.5835 167.097 33.6497 167.115 33.7117C167.134 33.7738 167.171 33.8286 167.222 33.8684L169.758 35.9756L169.933 36.5153L169.119 39.7096C169.101 39.772 169.104 39.8382 169.126 39.8991C169.148 39.9599 169.189 40.0123 169.242 40.0488C169.296 40.0887 169.438 40.1669 169.604 40.0607L172.39 38.3003H172.958L175.745 40.0607C175.799 40.0969 175.863 40.1152 175.928 40.1131C175.993 40.111 176.055 40.0885 176.107 40.0488C176.16 40.0117 176.2 39.9591 176.222 39.8982C176.243 39.8373 176.246 39.7711 176.228 39.7088L175.414 36.5145L175.589 35.9747L178.125 33.8684C178.176 33.8285 178.214 33.7736 178.232 33.7113C178.25 33.6491 178.248 33.5828 178.227 33.5216C178.208 33.4596 178.17 33.4049 178.119 33.3651C178.068 33.3254 178.006 33.3025 177.941 33.2998L174.652 33.0864L174.192 32.7524L172.973 29.6898C172.95 29.6293 172.909 29.5772 172.855 29.541C172.802 29.5047 172.738 29.4861 172.674 29.4875Z" fill="white"/>
<rect x="64.7253" y="53.4" width="168" height="4.8" rx="2.4" fill="#E0E0E6"/>
<rect x="64.7251" y="67.0001" width="136.8" height="4.8" rx="2.4" fill="#E0E0E6"/>
<g filter="url(#filter1_d_860_36523)">
<path d="M301.2 102.085C301.2 97.2882 297.312 93.4 292.515 93.4H58.6845C53.8882 93.4 50 97.2882 50 102.085V149.515C50 154.312 53.8882 158.2 58.6845 158.2H292.515C297.312 158.2 301.2 154.312 301.2 149.515V102.085Z" fill="white"/>
<path d="M292.515 94.2H58.6845V92.6H292.515V94.2ZM50.8 102.085V149.515H49.2V102.085H50.8ZM58.6845 157.4H292.515V159H58.6845V157.4ZM300.4 149.515V102.085H302V149.515H300.4ZM292.515 157.4C296.87 157.4 300.4 153.87 300.4 149.515H302C302 154.754 297.754 159 292.515 159V157.4ZM50.8 149.515C50.8 153.87 54.33 157.4 58.6845 157.4V159C53.4463 159 49.2 154.754 49.2 149.515H50.8ZM58.6845 94.2C54.33 94.2 50.8 97.7301 50.8 102.085H49.2C49.2 96.8464 53.4463 92.6 58.6845 92.6V94.2ZM292.515 92.6C297.754 92.6 302 96.8464 302 102.085H300.4C300.4 97.73 296.87 94.2 292.515 94.2V92.6Z" fill="#EE0B0B"/>
</g>
<path d="M66.8272 110.75L64.3962 108.732C64.2369 108.6 64.1209 108.423 64.0636 108.225C64.0063 108.026 64.0102 107.815 64.0749 107.619C64.1379 107.422 64.2588 107.25 64.4217 107.123C64.5846 106.996 64.7819 106.922 64.9878 106.909L68.1303 106.706L68.5561 106.387L69.7155 103.474C69.8736 103.08 70.2493 102.825 70.6735 102.825C71.0976 102.825 71.4733 103.08 71.6314 103.474V103.474L72.7908 106.387L73.2167 106.706L76.3591 106.909C76.7824 106.936 77.1411 107.215 77.272 107.619C77.4038 108.024 77.2771 108.46 76.9507 108.732L74.524 110.747L74.371 111.25L75.1445 114.289C75.249 114.701 75.0943 115.127 74.7509 115.376C74.5842 115.497 74.3849 115.566 74.1788 115.573C73.9727 115.579 73.7694 115.524 73.5949 115.414L70.937 113.734H70.4091L67.752 115.414C67.3899 115.64 66.936 115.624 66.5952 115.376C66.4277 115.256 66.3006 115.087 66.2304 114.893C66.1601 114.699 66.1501 114.489 66.2016 114.289L66.9734 111.258L66.8272 110.75Z" fill="#FFA436"/>
<path d="M83.8272 110.75L81.3962 108.732C81.2369 108.6 81.1209 108.423 81.0636 108.225C81.0063 108.026 81.0102 107.815 81.0749 107.619C81.1379 107.422 81.2588 107.25 81.4217 107.123C81.5846 106.996 81.7819 106.922 81.9878 106.909L85.1303 106.706L85.5561 106.387L86.7155 103.474C86.8736 103.08 87.2493 102.825 87.6735 102.825C88.0976 102.825 88.4733 103.08 88.6314 103.474V103.474L89.7908 106.387L90.2167 106.706L93.3591 106.909C93.7824 106.936 94.1411 107.215 94.272 107.619C94.4038 108.024 94.2771 108.46 93.9507 108.732L91.524 110.747L91.371 111.25L92.1445 114.289C92.249 114.701 92.0943 115.127 91.7509 115.376C91.5842 115.497 91.3849 115.566 91.1788 115.573C90.9727 115.579 90.7694 115.524 90.5949 115.414L87.937 113.734H87.4091L84.752 115.414C84.3899 115.64 83.936 115.624 83.5952 115.376C83.4277 115.256 83.3006 115.087 83.2304 114.893C83.1601 114.699 83.1501 114.489 83.2016 114.289L83.9734 111.258L83.8272 110.75Z" fill="#FFA436"/>
<path d="M100.827 110.75L98.3962 108.732C98.2369 108.6 98.1209 108.423 98.0636 108.225C98.0063 108.026 98.0102 107.815 98.0749 107.619C98.1379 107.422 98.2588 107.25 98.4217 107.123C98.5846 106.996 98.7819 106.922 98.9878 106.909L102.13 106.706L102.556 106.387L103.716 103.474C103.874 103.08 104.249 102.825 104.673 102.825C105.098 102.825 105.473 103.08 105.631 103.474V103.474L106.791 106.387L107.217 106.706L110.359 106.909C110.782 106.936 111.141 107.215 111.272 107.619C111.404 108.024 111.277 108.46 110.951 108.732L108.524 110.747L108.371 111.25L109.144 114.289C109.249 114.701 109.094 115.127 108.751 115.376C108.584 115.497 108.385 115.566 108.179 115.573C107.973 115.579 107.769 115.524 107.595 115.414L104.937 113.734H104.409L101.752 115.414C101.39 115.64 100.936 115.624 100.595 115.376C100.428 115.256 100.301 115.087 100.23 114.893C100.16 114.699 100.15 114.489 100.202 114.289L100.973 111.258L100.827 110.75Z" fill="#FFA436"/>
<path d="M117.827 110.75L115.396 108.732C115.237 108.6 115.121 108.423 115.064 108.225C115.006 108.026 115.01 107.815 115.075 107.619C115.138 107.422 115.259 107.25 115.422 107.123C115.585 106.996 115.782 106.922 115.988 106.909L119.13 106.706L119.556 106.387L120.716 103.474C120.874 103.08 121.249 102.825 121.673 102.825C122.098 102.825 122.473 103.08 122.631 103.474V103.474L123.791 106.387L124.217 106.706L127.359 106.909C127.782 106.936 128.141 107.215 128.272 107.619C128.404 108.024 128.277 108.46 127.951 108.732L125.524 110.747L125.371 111.25L126.144 114.289C126.249 114.701 126.094 115.127 125.751 115.376C125.584 115.497 125.385 115.566 125.179 115.573C124.973 115.579 124.769 115.524 124.595 115.414L121.937 113.734H121.409L118.752 115.414C118.39 115.64 117.936 115.624 117.595 115.376C117.428 115.256 117.301 115.087 117.23 114.893C117.16 114.699 117.15 114.489 117.202 114.289L117.973 111.258L117.827 110.75Z" fill="#FFA436"/>
<path d="M134.827 110.75L132.396 108.732C132.237 108.6 132.121 108.423 132.064 108.225C132.006 108.026 132.01 107.815 132.075 107.619C132.138 107.422 132.259 107.25 132.422 107.123C132.585 106.996 132.782 106.922 132.988 106.909L136.13 106.706L136.556 106.387L137.716 103.474C137.874 103.08 138.249 102.825 138.673 102.825C139.098 102.825 139.473 103.08 139.631 103.474V103.474L140.791 106.387L141.217 106.706L144.359 106.909C144.782 106.936 145.141 107.215 145.272 107.619C145.404 108.024 145.277 108.46 144.951 108.732L142.524 110.747L142.371 111.25L143.144 114.289C143.249 114.701 143.094 115.127 142.751 115.376C142.584 115.497 142.385 115.566 142.179 115.573C141.973 115.579 141.769 115.524 141.595 115.414L138.937 113.734H138.409L135.752 115.414C135.39 115.64 134.936 115.624 134.595 115.376C134.428 115.256 134.301 115.087 134.23 114.893C134.16 114.699 134.15 114.489 134.202 114.289L134.973 111.258L134.827 110.75Z" fill="#FFA436"/>
<path d="M151.827 110.75L149.396 108.732C149.237 108.6 149.121 108.423 149.064 108.225C149.006 108.026 149.01 107.815 149.075 107.619C149.138 107.422 149.259 107.25 149.422 107.123C149.585 106.996 149.782 106.922 149.988 106.909L153.13 106.706L153.556 106.387L154.716 103.474C154.874 103.08 155.249 102.825 155.673 102.825C156.098 102.825 156.473 103.08 156.631 103.474V103.474L157.791 106.387L158.217 106.706L161.359 106.909C161.782 106.936 162.141 107.215 162.272 107.619C162.404 108.024 162.277 108.46 161.951 108.732L159.524 110.747L159.371 111.25L160.144 114.289C160.249 114.701 160.094 115.127 159.751 115.376C159.584 115.497 159.385 115.566 159.179 115.573C158.973 115.579 158.769 115.524 158.595 115.414L155.937 113.734H155.409L152.752 115.414C152.39 115.64 151.936 115.624 151.595 115.376C151.428 115.256 151.301 115.087 151.23 114.893C151.16 114.699 151.15 114.489 151.202 114.289L151.973 111.258L151.827 110.75Z" fill="white"/>
<path d="M169.431 115.574C169.145 115.574 168.86 115.486 168.617 115.308C168.392 115.146 168.222 114.92 168.127 114.659C168.033 114.398 168.02 114.115 168.089 113.846L168.82 110.977L166.542 109.085C166.329 108.909 166.173 108.672 166.096 108.406C166.019 108.14 166.024 107.857 166.111 107.593C166.196 107.329 166.358 107.097 166.577 106.927C166.796 106.757 167.061 106.657 167.338 106.64L170.292 106.449L171.387 103.697C171.598 103.168 172.103 102.825 172.674 102.825C173.244 102.825 173.749 103.168 173.96 103.697L175.055 106.449L178.009 106.64C178.286 106.657 178.551 106.757 178.77 106.927C178.989 107.097 179.152 107.329 179.236 107.593C179.323 107.857 179.328 108.141 179.251 108.407C179.174 108.674 179.018 108.911 178.804 109.087L176.526 110.978L177.257 113.847C177.326 114.115 177.313 114.399 177.219 114.66C177.125 114.92 176.954 115.147 176.729 115.309C176.505 115.473 176.237 115.566 175.96 115.575C175.682 115.584 175.409 115.508 175.175 115.359L172.674 113.777L170.171 115.359C169.95 115.499 169.693 115.574 169.431 115.574ZM172.674 103.887C172.609 103.886 172.545 103.904 172.491 103.941C172.438 103.977 172.397 104.03 172.374 104.091L171.155 107.153L170.696 107.487L167.406 107.701C167.341 107.703 167.279 107.726 167.228 107.766C167.177 107.805 167.139 107.86 167.12 107.922C167.099 107.983 167.097 108.05 167.115 108.112C167.134 108.174 167.171 108.228 167.222 108.268L169.758 110.376L169.933 110.915L169.119 114.11C169.101 114.172 169.104 114.238 169.126 114.299C169.148 114.36 169.189 114.412 169.242 114.449C169.296 114.489 169.438 114.567 169.604 114.461L172.39 112.7H172.958L175.745 114.461C175.799 114.497 175.863 114.515 175.928 114.513C175.993 114.511 176.055 114.488 176.107 114.449C176.16 114.412 176.2 114.359 176.222 114.298C176.243 114.237 176.246 114.171 176.228 114.109L175.414 110.914L175.589 110.375L178.125 108.268C178.176 108.228 178.214 108.173 178.232 108.111C178.25 108.049 178.248 107.983 178.227 107.922C178.208 107.859 178.17 107.805 178.119 107.765C178.068 107.725 178.006 107.702 177.941 107.7L174.652 107.486L174.192 107.152L172.973 104.09C172.95 104.029 172.909 103.977 172.855 103.941C172.802 103.905 172.738 103.886 172.674 103.887Z" fill="white"/>
<rect x="64.7253" y="127.8" width="168" height="4.8" rx="2.4" fill="#E0E0E6"/>
<rect x="64.7251" y="141.4" width="136.8" height="4.8" rx="2.4" fill="#E0E0E6"/>
<g filter="url(#filter2_d_860_36523)">
<path d="M301.2 176.485C301.2 171.688 297.312 167.8 292.515 167.8H58.6845C53.8882 167.8 50 171.688 50 176.485V223.916C50 228.712 53.8882 232.6 58.6845 232.6H292.515C297.312 232.6 301.2 228.712 301.2 223.916V176.485Z" fill="white"/>
</g>
<path d="M66.8272 185.15L64.3962 183.132C64.2369 183 64.1209 182.824 64.0636 182.625C64.0063 182.426 64.0102 182.215 64.0749 182.019C64.1379 181.822 64.2588 181.65 64.4217 181.523C64.5846 181.396 64.7819 181.322 64.9878 181.309L68.1303 181.106L68.5561 180.787L69.7155 177.874C69.8736 177.48 70.2493 177.225 70.6735 177.225C71.0976 177.225 71.4733 177.48 71.6314 177.874V177.874L72.7908 180.787L73.2167 181.106L76.3591 181.309C76.7824 181.336 77.1411 181.615 77.272 182.019C77.4038 182.424 77.2771 182.86 76.9507 183.132L74.524 185.147L74.371 185.65L75.1445 188.689C75.249 189.101 75.0943 189.527 74.7509 189.776C74.5842 189.897 74.3849 189.966 74.1788 189.973C73.9727 189.979 73.7694 189.924 73.5949 189.814L70.937 188.134H70.4091L67.752 189.814C67.3899 190.04 66.936 190.024 66.5952 189.776C66.4277 189.656 66.3006 189.487 66.2304 189.293C66.1601 189.099 66.1501 188.889 66.2016 188.689L66.9734 185.658L66.8272 185.15Z" fill="#FFA436"/>
<path d="M83.8272 185.15L81.3962 183.132C81.2369 183 81.1209 182.824 81.0636 182.625C81.0063 182.426 81.0102 182.215 81.0749 182.019C81.1379 181.822 81.2588 181.65 81.4217 181.523C81.5846 181.396 81.7819 181.322 81.9878 181.309L85.1303 181.106L85.5561 180.787L86.7155 177.874C86.8736 177.48 87.2493 177.225 87.6735 177.225C88.0976 177.225 88.4733 177.48 88.6314 177.874V177.874L89.7908 180.787L90.2167 181.106L93.3591 181.309C93.7824 181.336 94.1411 181.615 94.272 182.019C94.4038 182.424 94.2771 182.86 93.9507 183.132L91.524 185.147L91.371 185.65L92.1445 188.689C92.249 189.101 92.0943 189.527 91.7509 189.776C91.5842 189.897 91.3849 189.966 91.1788 189.973C90.9727 189.979 90.7694 189.924 90.5949 189.814L87.937 188.134H87.4091L84.752 189.814C84.3899 190.04 83.936 190.024 83.5952 189.776C83.4277 189.656 83.3006 189.487 83.2304 189.293C83.1601 189.099 83.1501 188.889 83.2016 188.689L83.9734 185.658L83.8272 185.15Z" fill="#FFA436"/>
<path d="M100.827 185.15L98.3962 183.132C98.2369 183 98.1209 182.824 98.0636 182.625C98.0063 182.426 98.0102 182.215 98.0749 182.019C98.1379 181.822 98.2588 181.65 98.4217 181.523C98.5846 181.396 98.7819 181.322 98.9878 181.309L102.13 181.106L102.556 180.787L103.716 177.874C103.874 177.48 104.249 177.225 104.673 177.225C105.098 177.225 105.473 177.48 105.631 177.874V177.874L106.791 180.787L107.217 181.106L110.359 181.309C110.782 181.336 111.141 181.615 111.272 182.019C111.404 182.424 111.277 182.86 110.951 183.132L108.524 185.147L108.371 185.65L109.144 188.689C109.249 189.101 109.094 189.527 108.751 189.776C108.584 189.897 108.385 189.966 108.179 189.973C107.973 189.979 107.769 189.924 107.595 189.814L104.937 188.134H104.409L101.752 189.814C101.39 190.04 100.936 190.024 100.595 189.776C100.428 189.656 100.301 189.487 100.23 189.293C100.16 189.099 100.15 188.889 100.202 188.689L100.973 185.658L100.827 185.15Z" fill="#FFA436"/>
<path d="M118.431 189.974C118.145 189.974 117.86 189.886 117.617 189.708C117.392 189.546 117.222 189.32 117.127 189.059C117.033 188.798 117.02 188.515 117.089 188.246L117.82 185.377L115.542 183.485C115.329 183.309 115.173 183.072 115.096 182.806C115.019 182.54 115.024 182.257 115.111 181.993C115.196 181.729 115.358 181.497 115.577 181.327C115.796 181.157 116.061 181.057 116.338 181.04L119.292 180.849L120.387 178.097C120.598 177.568 121.103 177.225 121.674 177.225C122.244 177.225 122.749 177.568 122.96 178.097L124.055 180.849L127.009 181.04C127.286 181.057 127.551 181.157 127.77 181.327C127.989 181.497 128.152 181.729 128.236 181.993C128.323 182.257 128.328 182.541 128.251 182.807C128.174 183.074 128.018 183.311 127.804 183.487L125.526 185.378L126.257 188.247C126.326 188.515 126.313 188.799 126.219 189.06C126.125 189.32 125.954 189.547 125.729 189.709C125.505 189.873 125.237 189.966 124.96 189.975C124.682 189.984 124.409 189.908 124.175 189.759L121.674 188.177L119.171 189.759C118.95 189.899 118.693 189.974 118.431 189.974ZM121.674 178.287C121.609 178.286 121.545 178.305 121.491 178.341C121.438 178.377 121.397 178.43 121.374 178.491L120.155 181.553L119.696 181.887L116.406 182.101C116.341 182.103 116.279 182.126 116.228 182.166C116.177 182.206 116.139 182.26 116.12 182.322C116.099 182.383 116.097 182.45 116.115 182.512C116.134 182.574 116.171 182.629 116.222 182.668L118.758 184.776L118.933 185.315L118.119 188.51C118.101 188.572 118.104 188.638 118.126 188.699C118.148 188.76 118.189 188.812 118.242 188.849C118.296 188.889 118.438 188.967 118.604 188.861L121.39 187.1H121.958L124.745 188.861C124.799 188.897 124.863 188.915 124.928 188.913C124.993 188.911 125.055 188.888 125.107 188.849C125.16 188.812 125.2 188.759 125.222 188.698C125.243 188.637 125.246 188.571 125.228 188.509L124.414 185.314L124.589 184.775L127.125 182.668C127.176 182.628 127.214 182.573 127.232 182.511C127.25 182.449 127.248 182.383 127.227 182.322C127.208 182.26 127.17 182.205 127.119 182.165C127.068 182.125 127.006 182.102 126.941 182.1L123.652 181.886L123.192 181.552L121.973 178.49C121.95 178.429 121.909 178.377 121.855 178.341C121.802 178.305 121.738 178.286 121.674 178.287Z" fill="#FFA436"/>
<path d="M135.431 189.974C135.145 189.974 134.86 189.886 134.617 189.708C134.392 189.546 134.222 189.32 134.127 189.059C134.033 188.798 134.02 188.515 134.089 188.246L134.82 185.377L132.542 183.485C132.329 183.309 132.173 183.072 132.096 182.806C132.019 182.54 132.024 182.257 132.111 181.993C132.196 181.729 132.358 181.497 132.577 181.327C132.796 181.157 133.061 181.057 133.338 181.04L136.292 180.849L137.387 178.097C137.598 177.568 138.103 177.225 138.674 177.225C139.244 177.225 139.749 177.568 139.96 178.097L141.055 180.849L144.009 181.04C144.286 181.057 144.551 181.157 144.77 181.327C144.989 181.497 145.152 181.729 145.236 181.993C145.323 182.257 145.328 182.541 145.251 182.807C145.174 183.074 145.018 183.311 144.804 183.487L142.526 185.378L143.257 188.247C143.326 188.515 143.313 188.799 143.219 189.06C143.125 189.32 142.954 189.547 142.729 189.709C142.505 189.873 142.237 189.966 141.96 189.975C141.682 189.984 141.409 189.908 141.175 189.759L138.674 188.177L136.171 189.759C135.95 189.899 135.693 189.974 135.431 189.974ZM138.674 178.287C138.609 178.286 138.545 178.305 138.491 178.341C138.438 178.377 138.397 178.43 138.374 178.491L137.155 181.553L136.696 181.887L133.406 182.101C133.341 182.103 133.279 182.126 133.228 182.166C133.177 182.206 133.139 182.26 133.12 182.322C133.099 182.383 133.097 182.45 133.115 182.512C133.134 182.574 133.171 182.629 133.222 182.668L135.758 184.776L135.933 185.315L135.119 188.51C135.101 188.572 135.104 188.638 135.126 188.699C135.148 188.76 135.189 188.812 135.242 188.849C135.296 188.889 135.438 188.967 135.604 188.861L138.39 187.1H138.958L141.745 188.861C141.799 188.897 141.863 188.915 141.928 188.913C141.993 188.911 142.055 188.888 142.107 188.849C142.16 188.812 142.2 188.759 142.222 188.698C142.243 188.637 142.246 188.571 142.228 188.509L141.414 185.314L141.589 184.775L144.125 182.668C144.176 182.628 144.214 182.573 144.232 182.511C144.25 182.449 144.248 182.383 144.227 182.322C144.208 182.26 144.17 182.205 144.119 182.165C144.068 182.125 144.006 182.102 143.941 182.1L140.652 181.886L140.192 181.552L138.973 178.49C138.95 178.429 138.909 178.377 138.855 178.341C138.802 178.305 138.738 178.286 138.674 178.287Z" fill="#FFA436"/>
<path d="M151.827 185.15L149.396 183.132C149.237 183 149.121 182.824 149.064 182.625C149.006 182.426 149.01 182.215 149.075 182.019C149.138 181.822 149.259 181.65 149.422 181.523C149.585 181.396 149.782 181.322 149.988 181.309L153.13 181.106L153.556 180.787L154.716 177.874C154.874 177.48 155.249 177.225 155.673 177.225C156.098 177.225 156.473 177.48 156.631 177.874V177.874L157.791 180.787L158.217 181.106L161.359 181.309C161.782 181.336 162.141 181.615 162.272 182.019C162.404 182.424 162.277 182.86 161.951 183.132L159.524 185.147L159.371 185.65L160.144 188.689C160.249 189.101 160.094 189.527 159.751 189.776C159.584 189.897 159.385 189.966 159.179 189.973C158.973 189.979 158.769 189.924 158.595 189.814L155.937 188.134H155.409L152.752 189.814C152.39 190.04 151.936 190.024 151.595 189.776C151.428 189.656 151.301 189.487 151.23 189.293C151.16 189.099 151.15 188.889 151.202 188.689L151.973 185.658L151.827 185.15Z" fill="white"/>
<path d="M169.431 189.974C169.145 189.974 168.86 189.886 168.617 189.708C168.392 189.546 168.222 189.32 168.127 189.059C168.033 188.798 168.02 188.515 168.089 188.246L168.82 185.377L166.542 183.485C166.329 183.309 166.173 183.072 166.096 182.806C166.019 182.54 166.024 182.257 166.111 181.993C166.196 181.729 166.358 181.497 166.577 181.327C166.796 181.157 167.061 181.057 167.338 181.04L170.292 180.849L171.387 178.097C171.598 177.568 172.103 177.225 172.674 177.225C173.244 177.225 173.749 177.568 173.96 178.097L175.055 180.849L178.009 181.04C178.286 181.057 178.551 181.157 178.77 181.327C178.989 181.497 179.152 181.729 179.236 181.993C179.323 182.257 179.328 182.541 179.251 182.807C179.174 183.074 179.018 183.311 178.804 183.487L176.526 185.378L177.257 188.247C177.326 188.515 177.313 188.799 177.219 189.06C177.125 189.32 176.954 189.547 176.729 189.709C176.505 189.873 176.237 189.966 175.96 189.975C175.682 189.984 175.409 189.908 175.175 189.759L172.674 188.177L170.171 189.759C169.95 189.899 169.693 189.974 169.431 189.974ZM172.674 178.287C172.609 178.286 172.545 178.305 172.491 178.341C172.438 178.377 172.397 178.43 172.374 178.491L171.155 181.553L170.696 181.887L167.406 182.101C167.341 182.103 167.279 182.126 167.228 182.166C167.177 182.206 167.139 182.26 167.12 182.322C167.099 182.383 167.097 182.45 167.115 182.512C167.134 182.574 167.171 182.629 167.222 182.668L169.758 184.776L169.933 185.315L169.119 188.51C169.101 188.572 169.104 188.638 169.126 188.699C169.148 188.76 169.189 188.812 169.242 188.849C169.296 188.889 169.438 188.967 169.604 188.861L172.39 187.1H172.958L175.745 188.861C175.799 188.897 175.863 188.915 175.928 188.913C175.993 188.911 176.055 188.888 176.107 188.849C176.16 188.812 176.2 188.759 176.222 188.698C176.243 188.637 176.246 188.571 176.228 188.509L175.414 185.314L175.589 184.775L178.125 182.668C178.176 182.628 178.214 182.573 178.232 182.511C178.25 182.449 178.248 182.383 178.227 182.322C178.208 182.26 178.17 182.205 178.119 182.165C178.068 182.125 178.006 182.102 177.941 182.1L174.652 181.886L174.192 181.552L172.973 178.49C172.95 178.429 172.909 178.377 172.855 178.341C172.802 178.305 172.738 178.286 172.674 178.287Z" fill="white"/>
<rect x="64.7253" y="202.2" width="168" height="4.8" rx="2.4" fill="#E0E0E6"/>
<path fill-rule="evenodd" clip-rule="evenodd" d="M37.4211 126C37.4211 121.357 33.6432 117.579 29 117.579C24.3568 117.579 20.5789 121.357 20.5789 126C20.5789 130.643 24.3568 134.421 29 134.421C33.6432 134.421 37.4211 130.643 37.4211 126ZM19 126C19 120.477 23.4768 116 29 116C34.5232 116 39 120.477 39 126C39 131.523 34.5232 136 29 136C23.4768 136 19 131.523 19 126ZM29.0001 120.737C28.7907 120.737 28.5899 120.82 28.4419 120.968C28.2938 121.116 28.2106 121.317 28.2106 121.526V127.316C28.2106 127.525 28.2938 127.726 28.4419 127.874C28.5899 128.022 28.7907 128.105 29.0001 128.105C29.2095 128.105 29.4103 128.022 29.5584 127.874C29.7064 127.726 29.7896 127.525 29.7896 127.316V121.526C29.7896 121.317 29.7064 121.116 29.5584 120.968C29.4103 120.82 29.2095 120.737 29.0001 120.737ZM28.5264 131.263L28.2106 130.947V130L28.5264 129.684H29.4738L29.7896 130V130.947L29.4738 131.263H28.5264Z" fill="#EE0B0B"/>
</g>
<defs>
<filter id="filter0_d_860_36523" x="44.8842" y="15.5895" width="261.432" height="75.0316" filterUnits="userSpaceOnUse" color-interpolation-filters="sRGB">
<feFlood flood-opacity="0" result="BackgroundImageFix"/>
<feColorMatrix in="SourceAlpha" type="matrix" values="0 0 0 0 0 0 0 0 0 0 0 0 0 0 0 0 0 0 127 0" result="hardAlpha"/>
<feOffset dy="1.70526"/>
<feGaussianBlur stdDeviation="2.55789"/>
<feColorMatrix type="matrix" values="0 0 0 0 0.227451 0 0 0 0 0.223529 0 0 0 0 0.266667 0 0 0 0.2 0"/>
<feBlend mode="normal" in2="BackgroundImageFix" result="effect1_dropShadow_860_36523"/>
<feBlend mode="normal" in="SourceGraphic" in2="effect1_dropShadow_860_36523" result="shape"/>
</filter>
<filter id="filter1_d_860_36523" x="44.0842" y="89.1894" width="263.032" height="76.6316" filterUnits="userSpaceOnUse" color-interpolation-filters="sRGB">
<feFlood flood-opacity="0" result="BackgroundImageFix"/>
<feColorMatrix in="SourceAlpha" type="matrix" values="0 0 0 0 0 0 0 0 0 0 0 0 0 0 0 0 0 0 127 0" result="hardAlpha"/>
<feOffset dy="1.70526"/>
<feGaussianBlur stdDeviation="2.55789"/>
<feColorMatrix type="matrix" values="0 0 0 0 0.227451 0 0 0 0 0.223529 0 0 0 0 0.266667 0 0 0 0.2 0"/>
<feBlend mode="normal" in2="BackgroundImageFix" result="effect1_dropShadow_860_36523"/>
<feBlend mode="normal" in="SourceGraphic" in2="effect1_dropShadow_860_36523" result="shape"/>
</filter>
<filter id="filter2_d_860_36523" x="44.8842" y="164.39" width="261.432" height="75.0316" filterUnits="userSpaceOnUse" color-interpolation-filters="sRGB">
<feFlood flood-opacity="0" result="BackgroundImageFix"/>
<feColorMatrix in="SourceAlpha" type="matrix" values="0 0 0 0 0 0 0 0 0 0 0 0 0 0 0 0 0 0 127 0" result="hardAlpha"/>
<feOffset dy="1.70526"/>
<feGaussianBlur stdDeviation="2.55789"/>
<feColorMatrix type="matrix" values="0 0 0 0 0.227451 0 0 0 0 0.223529 0 0 0 0 0.266667 0 0 0 0.2 0"/>
<feBlend mode="normal" in2="BackgroundImageFix" result="effect1_dropShadow_860_36523"/>
<feBlend mode="normal" in="SourceGraphic" in2="effect1_dropShadow_860_36523" result="shape"/>
</filter>
<clipPath id="clip0_860_36523">
<rect width="352" height="214" fill="white"/>
</clipPath>
</defs>
</svg>
