<!-- This Source Code Form is subject to the terms of the Mozilla Public
   - License, v. 2.0. If a copy of the MPL was not distributed with this
   - file, You can obtain one at http://mozilla.org/MPL/2.0/. -->
<svg width="288" height="162" viewBox="0 0 288 162" fill="none" xmlns="http://www.w3.org/2000/svg">
<path d="M62.3123 17.74C100.467 28.1186 92.6651 10.8112 124.532 4.83603C156.4 -1.13915 168.757 19.493 189.354 25.8683C209.95 32.2435 223.675 9.25465 257.524 38.5983C291.373 67.942 278.285 120.985 234.222 132.93C185.06 146.258 155.85 108.425 116.961 112.892C79.8281 117.157 90.1401 121.736 64.3108 130.132C41.0235 137.702 20.3349 129.408 14.0148 111.196C3.16747 79.9386 29.3882 76.6273 20.955 51.8807C13.3103 29.4481 33.6086 9.93222 62.3123 17.74Z" fill="#E7DFFF" fill-opacity="0.41"/>
<mask id="path-2-outside-1_5346_5336" maskUnits="userSpaceOnUse" x="31.2671" y="30.7627" width="225" height="105" fill="black">
<rect fill="white" x="31.2671" y="30.7627" width="225" height="105"/>
<path fill-rule="evenodd" clip-rule="evenodd" d="M40.2671 31.7627C35.8488 31.7627 32.2671 35.3444 32.2671 39.7627V103.763C32.2671 108.181 35.8488 111.763 40.2671 111.763H58.6638L73.0593 133.163L87.4548 111.763H247.267C251.685 111.763 255.267 108.181 255.267 103.763V39.7627C255.267 35.3444 251.685 31.7627 247.267 31.7627H40.2671Z"/>
</mask>
<path fill-rule="evenodd" clip-rule="evenodd" d="M40.2671 31.7627C35.8488 31.7627 32.2671 35.3444 32.2671 39.7627V103.763C32.2671 108.181 35.8488 111.763 40.2671 111.763H58.6638L73.0593 133.163L87.4548 111.763H247.267C251.685 111.763 255.267 108.181 255.267 103.763V39.7627C255.267 35.3444 251.685 31.7627 247.267 31.7627H40.2671Z" fill="white"/>
<path d="M58.6638 111.763L59.4935 111.205L59.1963 110.763H58.6638V111.763ZM73.0593 133.163L72.2296 133.721L73.0593 134.955L73.889 133.721L73.0593 133.163ZM87.4548 111.763V110.763H86.9223L86.6251 111.205L87.4548 111.763ZM33.2671 39.7627C33.2671 35.8967 36.4011 32.7627 40.2671 32.7627V30.7627C35.2965 30.7627 31.2671 34.7921 31.2671 39.7627H33.2671ZM33.2671 103.763V39.7627H31.2671V103.763H33.2671ZM40.2671 110.763C36.4011 110.763 33.2671 107.629 33.2671 103.763H31.2671C31.2671 108.733 35.2965 112.763 40.2671 112.763V110.763ZM58.6638 110.763H40.2671V112.763H58.6638V110.763ZM73.889 132.605L59.4935 111.205L57.834 112.321L72.2296 133.721L73.889 132.605ZM86.6251 111.205L72.2296 132.605L73.889 133.721L88.2846 112.321L86.6251 111.205ZM247.267 110.763H87.4548V112.763H247.267V110.763ZM254.267 103.763C254.267 107.629 251.133 110.763 247.267 110.763V112.763C252.238 112.763 256.267 108.733 256.267 103.763H254.267ZM254.267 39.7627V103.763H256.267V39.7627H254.267ZM247.267 32.7627C251.133 32.7627 254.267 35.8967 254.267 39.7627H256.267C256.267 34.7921 252.238 30.7627 247.267 30.7627V32.7627ZM40.2671 32.7627H247.267V30.7627H40.2671V32.7627Z" fill="#5B5B66" mask="url(#path-2-outside-1_5346_5336)"/>
<path d="M90.1495 84.1434C86.2096 90.4221 79.2598 94.6494 71.2739 94.6494C63.2891 94.6494 56.34 90.4232 52.3999 84.1457C53.8954 82.6159 55.9607 81.6494 58.2638 81.6494H84.2833C85.4424 81.6531 86.5874 81.9016 87.6418 82.3783C88.5843 82.8043 89.435 83.4037 90.1495 84.1434Z" fill="#C688FF" stroke="#5B5B66"/>
<path d="M64.2918 60.0873C66.131 58.2481 68.6255 57.2148 71.2265 57.2148C73.8274 57.2148 76.3219 58.2481 78.1611 60.0873C80.0002 61.9264 81.0335 64.4209 81.0335 67.0219C81.0335 69.6228 80.0002 72.1173 78.1611 73.9565C76.3219 75.7956 73.8274 76.8289 71.2265 76.8289C68.6255 76.8289 66.131 75.7956 64.2918 73.9565C62.4527 72.1173 61.4194 69.6228 61.4194 67.0219C61.4194 64.4209 62.4527 61.9264 64.2918 60.0873Z" fill="#C688FF" stroke="#5B5B66"/>
<circle cx="71.2739" cy="71.6494" r="23" stroke="#5B5B66"/>
<path d="M118.774 57.8425L118.773 57.8352L118.771 57.8279L118.114 54.5296L118.111 54.5136L118.107 54.4979C118.081 54.4035 118.116 54.2791 118.239 54.1983L118.251 54.1902L118.263 54.1814L120.937 52.1809C121.927 51.4398 121.509 49.8802 120.281 49.7337L116.965 49.3382L116.965 49.3381L116.954 49.337C116.847 49.3266 116.715 49.2378 116.657 49.0961L115.545 45.9304L115.545 45.9304L115.542 45.9215C115.129 44.8132 113.562 44.668 113.014 45.7749L111.412 48.9088C111.338 49.0311 111.203 49.1167 111.05 49.1236C111.05 49.1236 111.05 49.1236 111.05 49.1236L107.429 49.264C106.229 49.3001 105.577 50.8074 106.539 51.6533L106.54 51.6543L109.048 53.8443C109.154 53.9469 109.194 54.0954 109.153 54.2377L108.077 57.3879L108.073 57.3979L108.07 57.4081C107.732 58.5562 108.944 59.6044 110.041 59.0137L113.247 57.3249C113.247 57.3248 113.248 57.3247 113.248 57.3245C113.384 57.2538 113.544 57.2609 113.67 57.3303L116.664 59.2371L116.664 59.2372L116.668 59.2395C117.648 59.8511 118.977 59.0505 118.774 57.8425Z" fill="#C688FF" stroke="#52525E"/>
<path d="M140.749 57.8425L140.748 57.8352L140.746 57.8279L140.089 54.5296L140.086 54.5136L140.082 54.4979C140.057 54.4035 140.092 54.2791 140.214 54.1983L140.226 54.1902L140.238 54.1814L142.912 52.1809C143.903 51.4398 143.485 49.8802 142.256 49.7337L138.94 49.3382L138.94 49.3381L138.93 49.337C138.822 49.3266 138.69 49.2378 138.632 49.0961L137.52 45.9304L137.52 45.9304L137.517 45.9215C137.104 44.8132 135.538 44.668 134.99 45.7749L133.388 48.9088C133.313 49.0311 133.179 49.1167 133.026 49.1236C133.026 49.1236 133.025 49.1236 133.025 49.1236L129.404 49.264C128.204 49.3001 127.552 50.8074 128.515 51.6533L128.516 51.6543L131.023 53.8443C131.13 53.9469 131.17 54.0954 131.128 54.2377L130.052 57.3879L130.049 57.3979L130.046 57.4081C129.707 58.5562 130.919 59.6044 132.017 59.0137L135.222 57.3249C135.223 57.3248 135.223 57.3247 135.223 57.3245C135.36 57.2538 135.52 57.2609 135.645 57.3303L138.64 59.2371L138.64 59.2372L138.644 59.2395C139.623 59.8511 140.953 59.0505 140.749 57.8425Z" fill="#C688FF" stroke="#52525E"/>
<path d="M162.724 57.8425L162.723 57.8352L162.722 57.8279L162.065 54.5296L162.061 54.5136L162.057 54.4979C162.032 54.4035 162.067 54.2791 162.189 54.1983L162.202 54.1902L162.213 54.1814L164.887 52.1809C165.878 51.4398 165.46 49.8802 164.232 49.7337L160.916 49.3382L160.916 49.3381L160.905 49.337C160.797 49.3266 160.666 49.2378 160.607 49.0961L159.496 45.9304L159.496 45.9304L159.492 45.9215C159.079 44.8132 157.513 44.668 156.965 45.7749L155.363 48.9088C155.289 49.0311 155.154 49.1167 155.001 49.1236C155.001 49.1236 155.001 49.1236 155 49.1236L151.379 49.264C150.179 49.3001 149.527 50.8074 150.49 51.6533L150.491 51.6543L152.998 53.8443C153.105 53.9469 153.145 54.0954 153.104 54.2377L152.027 57.3879L152.024 57.3979L152.021 57.4081C151.682 58.5562 152.894 59.6044 153.992 59.0137L157.198 57.3249C157.198 57.3248 157.198 57.3247 157.199 57.3245C157.335 57.2538 157.495 57.2609 157.621 57.3303L160.615 59.2371L160.615 59.2372L160.619 59.2395C161.599 59.8511 162.928 59.0505 162.724 57.8425Z" fill="#C688FF" stroke="#52525E"/>
<path d="M184.7 57.8425L184.699 57.8352L184.697 57.8279L184.04 54.5296L184.037 54.5136L184.033 54.4979C184.007 54.4035 184.042 54.2791 184.165 54.1983L184.177 54.1902L184.189 54.1814L186.863 52.1809C187.853 51.4398 187.435 49.8802 186.207 49.7337L182.891 49.3382L182.891 49.3381L182.88 49.337C182.773 49.3266 182.641 49.2378 182.583 49.0961L181.471 45.9304L181.471 45.9304L181.468 45.9215C181.055 44.8132 179.488 44.668 178.94 45.7749L177.338 48.9088C177.264 49.0311 177.129 49.1167 176.977 49.1236C176.976 49.1236 176.976 49.1236 176.976 49.1236L173.355 49.264C172.155 49.3001 171.503 50.8074 172.465 51.6533L172.467 51.6543L174.974 53.8443C175.08 53.9469 175.12 54.0954 175.079 54.2377L174.003 57.3879L173.999 57.3979L173.996 57.4081C173.658 58.5562 174.87 59.6044 175.967 59.0137L179.173 57.3249C179.173 57.3248 179.174 57.3247 179.174 57.3245C179.31 57.2538 179.47 57.2609 179.596 57.3303L182.59 59.2371L182.59 59.2372L182.594 59.2395C183.574 59.8511 184.903 59.0505 184.7 57.8425Z" fill="#C688FF" stroke="#52525E"/>
<path d="M206.675 57.8425L206.674 57.8352L206.672 57.8279L206.015 54.5296L206.012 54.5136L206.008 54.4979C205.982 54.4035 206.017 54.2791 206.14 54.1983L206.152 54.1902L206.164 54.1814L208.838 52.1809C209.828 51.4398 209.411 49.8802 208.182 49.7337L204.866 49.3382L204.866 49.3381L204.855 49.337C204.748 49.3266 204.616 49.2378 204.558 49.0961L203.446 45.9304L203.446 45.9304L203.443 45.9215C203.03 44.8132 201.464 44.668 200.916 45.7749L199.314 48.9088C199.239 49.0311 199.105 49.1167 198.952 49.1236C198.951 49.1236 198.951 49.1236 198.951 49.1236L195.33 49.264C194.13 49.3001 193.478 50.8074 194.44 51.6533L194.442 51.6543L196.949 53.8443C197.056 53.9469 197.095 54.0954 197.054 54.2377L195.978 57.3879L195.974 57.3979L195.971 57.4081C195.633 58.5562 196.845 59.6044 197.942 59.0137L201.148 57.3249C201.148 57.3248 201.149 57.3247 201.149 57.3245C201.285 57.2538 201.445 57.2609 201.571 57.3303L204.566 59.2371L204.566 59.2372L204.569 59.2395C205.549 59.8511 206.878 59.0505 206.675 57.8425Z" stroke="#52525E"/>
<line x1="106.374" y1="74.5357" x2="231.174" y2="74.5357" stroke="#5B5B66" stroke-width="1.2" stroke-linecap="round"/>
<line x1="106.374" y1="86.5357" x2="239.174" y2="86.5357" stroke="#5B5B66" stroke-width="1.2" stroke-linecap="round"/>
<line x1="106.374" y1="98.5357" x2="210.174" y2="98.5357" stroke="#5B5B66" stroke-width="1.2" stroke-linecap="round"/>
<mask id="path-15-inside-2_5346_5336" fill="white">
<path fill-rule="evenodd" clip-rule="evenodd" d="M218.766 119.863L225.655 128.314L228.721 125.832L244.937 145.727C247.15 148.443 247.065 152.269 244.922 154.874C244.616 155.246 244.268 155.594 243.879 155.909C240.761 158.43 236.197 157.959 233.664 154.855L218.521 136.277L217.448 134.96L217.448 134.96L218.769 133.889L220.537 132.458L213.652 124.008C200.175 132.706 182.266 129.726 172.351 117.131C162.716 104.852 163.753 87.3412 174.796 76.2798C186.884 64.1985 206.52 64.1369 218.645 76.1857C230.757 88.2251 230.827 107.776 218.766 119.863ZM194.538 119.65C206.492 120.883 217.188 112.223 218.426 100.307C219.663 88.392 210.974 77.7314 199.02 76.4979C187.062 75.2641 176.369 83.9248 175.132 95.8402C173.894 107.756 182.58 118.416 194.538 119.65Z"/>
</mask>
<path fill-rule="evenodd" clip-rule="evenodd" d="M218.766 119.863L225.655 128.314L228.721 125.832L244.937 145.727C247.15 148.443 247.065 152.269 244.922 154.874C244.616 155.246 244.268 155.594 243.879 155.909C240.761 158.43 236.197 157.959 233.664 154.855L218.521 136.277L217.448 134.96L217.448 134.96L218.769 133.889L220.537 132.458L213.652 124.008C200.175 132.706 182.266 129.726 172.351 117.131C162.716 104.852 163.753 87.3412 174.796 76.2798C186.884 64.1985 206.52 64.1369 218.645 76.1857C230.757 88.2251 230.827 107.776 218.766 119.863ZM194.538 119.65C206.492 120.883 217.188 112.223 218.426 100.307C219.663 88.392 210.974 77.7314 199.02 76.4979C187.062 75.2641 176.369 83.9248 175.132 95.8402C173.894 107.756 182.58 118.416 194.538 119.65Z" fill="#C688FF"/>
<path d="M225.655 128.314L224.724 129.073L225.48 129.999L226.41 129.246L225.655 128.314ZM218.766 119.863L217.917 119.015L217.152 119.782L217.836 120.621L218.766 119.863ZM228.721 125.832L229.651 125.073L228.896 124.147L227.966 124.899L228.721 125.832ZM244.937 145.727L245.867 144.969L244.937 145.727ZM244.922 154.874L245.849 155.636L245.849 155.636L244.922 154.874ZM243.879 155.909L244.633 156.842L244.634 156.841L243.879 155.909ZM233.664 154.855L232.733 155.614L232.734 155.614L233.664 154.855ZM218.521 136.277L217.591 137.035L218.521 136.277ZM217.448 134.96L218.378 134.201L218.375 134.197L217.448 134.96ZM217.448 134.96L216.693 134.027L215.752 134.789L216.521 135.722L217.448 134.96ZM218.769 133.889L218.014 132.957L218.769 133.889ZM220.537 132.458L221.292 133.391L222.227 132.633L221.467 131.7L220.537 132.458ZM213.652 124.008L214.583 123.25L213.905 122.417L213.002 123L213.652 124.008ZM172.351 117.131L171.407 117.872L171.408 117.874L172.351 117.131ZM174.796 76.2798L173.948 75.4314L173.947 75.4324L174.796 76.2798ZM218.645 76.1857L219.491 75.3345L219.491 75.3344L218.645 76.1857ZM226.585 127.556L219.697 119.104L217.836 120.621L224.724 129.073L226.585 127.556ZM227.966 124.899L224.9 127.382L226.41 129.246L229.475 126.764L227.966 124.899ZM245.867 144.969L229.651 125.073L227.79 126.59L244.006 146.486L245.867 144.969ZM245.849 155.636C248.348 152.597 248.448 148.136 245.867 144.969L244.006 146.486C245.852 148.751 245.782 151.94 243.996 154.112L245.849 155.636ZM244.634 156.841C245.087 156.474 245.492 156.07 245.849 155.636L243.996 154.112C243.741 154.423 243.45 154.713 243.124 154.977L244.634 156.841ZM232.734 155.614C235.684 159.23 241.002 159.779 244.633 156.842L243.125 154.976C240.521 157.082 236.709 156.689 234.594 154.096L232.734 155.614ZM217.591 137.035L232.733 155.614L234.594 154.097L219.452 135.518L217.591 137.035ZM216.517 135.718L217.591 137.035L219.452 135.518L218.378 134.201L216.517 135.718ZM216.521 135.722L216.521 135.723L218.375 134.197L218.374 134.197L216.521 135.722ZM218.014 132.957L216.693 134.027L218.202 135.892L219.524 134.822L218.014 132.957ZM219.782 131.526L218.014 132.957L219.524 134.822L221.292 133.391L219.782 131.526ZM212.722 124.766L219.606 133.216L221.467 131.7L214.583 123.25L212.722 124.766ZM171.408 117.874C181.706 130.955 200.305 134.05 214.303 125.016L213.002 123C200.044 131.362 182.826 128.497 173.294 116.388L171.408 117.874ZM173.947 75.4324C162.475 86.9237 161.397 105.117 171.407 117.872L173.296 116.39C164.034 104.588 165.032 87.7586 175.645 77.1272L173.947 75.4324ZM219.491 75.3344C206.896 62.8185 186.503 62.8837 173.948 75.4314L175.644 77.1282C187.266 65.5133 206.144 65.4552 217.798 77.037L219.491 75.3344ZM219.616 120.71C232.148 108.151 232.071 87.8394 219.491 75.3345L217.798 77.0369C229.442 88.6108 229.507 107.401 217.917 119.015L219.616 120.71ZM217.232 100.184C216.063 111.437 205.961 119.622 194.662 118.456L194.414 120.843C207.024 122.144 218.313 113.009 219.619 100.431L217.232 100.184ZM198.896 77.6915C210.195 78.8574 218.401 88.9317 217.232 100.184L219.619 100.431C220.926 87.8524 211.754 76.6055 199.144 75.3043L198.896 77.6915ZM176.325 95.9633C177.494 84.7107 187.594 76.5253 198.896 77.6915L199.144 75.3043C186.53 74.0028 175.245 83.1389 173.938 95.717L176.325 95.9633ZM194.662 118.456C183.36 117.29 175.157 107.216 176.325 95.9633L173.938 95.717C172.632 108.295 181.8 119.542 194.414 120.843L194.662 118.456Z" fill="#5B5B66" mask="url(#path-15-inside-2_5346_5336)"/>
</svg>