<?xml version="1.0" encoding="UTF-8" standalone="no"?>
<!-- Created with Inkscape (http://www.inkscape.org/) -->

<svg
   width="67.73333mm"
   height="67.733337mm"
   viewBox="0 0 67.73333 67.733337"
   version="1.1"
   id="svg1"
   xml:space="preserve"
   xmlns:inkscape="http://www.inkscape.org/namespaces/inkscape"
   xmlns:sodipodi="http://sodipodi.sourceforge.net/DTD/sodipodi-0.dtd"
   xmlns="http://www.w3.org/2000/svg"
   xmlns:svg="http://www.w3.org/2000/svg"><sodipodi:namedview
   id="namedview1"
   pagecolor="#505050"
   bordercolor="#eeeeee"
   borderopacity="1"
   inkscape:showpageshadow="0"
   inkscape:pageopacity="0"
   inkscape:pagecheckerboard="0"
   inkscape:deskcolor="#505050"
   inkscape:document-units="mm"><inkscape:page
     x="-7.3482929e-06"
     y="0"
     width="67.73333"
     height="67.733337"
     id="page2"
     margin="0"
     bleed="0"
     inkscape:export-filename="about-logo.svg"
     inkscape:export-xdpi="144"
     inkscape:export-ydpi="144" /></sodipodi:namedview><defs
   id="defs1" />

<g
   id="レイヤー-1"
   transform="matrix(0.21166667,0,0,0.21166667,6.7733349,6.7733333)">
<path
   d="M 128,8 C 61.7258,8 8,61.7258 8,128 8,194.274 61.7258,248 128,248 194.274,248 248,194.274 248,128 248,61.7258 194.274,8 128,8 Z"
   fill="#19b9dc"
   fill-rule="nonzero"
   opacity="1"
   stroke="none"
   id="path1" />
<path
   d="m 128,40.5 c -37.4092,0 -70.6803,21.4474 -85.1875,53.3125 -12.6013,27.6785 -8.5126,62.0745 9.875,84.3435 21.5497,26.099 45.9578,28.826 69.2505,24.625 22.246,-4.012 43.749,-22.217 43.75,-50.375 0,-17.723 -16.79,-36.031 -37.5,-36.031 -20.711,0 -37.5005,18.308 -37.5005,36.031 0,17.724 16.7895,28.156 37.5005,28.156 1.893,0 3.713,-0.171 5.531,-0.343 -3.302,2.295 -7.037,4.221 -11.125,5.562 -18.229,5.98 -40.9279,3.937 -58.344,-17.156 C 49.5664,150.842 46.2124,122.559 56.4688,100.031 68.5429,73.5103 96.4765,55.5 128,55.5 c 29.172,0 57.107,15.3166 70.5,42.3438 7.495,15.1252 9.031,33.2692 4,50.0312 -5.262,17.532 -17.334,32.424 -35.469,42.625 -1.178,0.663 -1.628,2.146 -1,3.344 1.473,2.807 3.157,6.017 4.657,8.875 0.653,1.245 2.209,1.717 3.437,1.031 21.638,-12.091 36.34,-30.208 42.75,-51.562 6.125,-20.407 4.245,-42.5 -4.937,-61.0318 C 195.862,58.7159 162.588,40.5 128,40.5 Z m -18.906,39.7812 c -7.456,0 -13.5002,6.0442 -13.5002,13.5 0,7.4558 6.0442,13.4998 13.5002,13.4998 7.456,0 13.5,-6.044 13.5,-13.4998 0,-7.4558 -6.044,-13.5 -13.5,-13.5 z m 38.156,0 c -7.456,0 -13.5,6.0442 -13.5,13.5 0,7.4558 6.044,13.4998 13.5,13.4998 7.456,0 13.5,-6.044 13.5,-13.4998 0,-7.4558 -6.044,-13.5 -13.5,-13.5 z M 78.9375,102.875 c -7.4558,0 -13.5,6.044 -13.5,13.5 0,7.456 6.0442,13.5 13.5,13.5 7.4558,0 13.5,-6.044 13.5,-13.5 0,-7.456 -6.0442,-13.5 -13.5,-13.5 z m 98.1245,0 c -7.455,0 -13.5,6.044 -13.5,13.5 0,7.456 6.045,13.5 13.5,13.5 7.456,0 13.5,-6.044 13.5,-13.5 0,-7.456 -6.044,-13.5 -13.5,-13.5 z"
   fill="#d7ffff"
   fill-rule="nonzero"
   opacity="1"
   stroke="none"
   id="path2" />
</g>
</svg>
