<svg xmlns="http://www.w3.org/2000/svg" width="16" height="16" viewBox="0 0 16 16" fill="context-fill" fill-opacity="context-fill-opacity"><path d="M1 3a2 2 0 0 1 2-2h2a2 2 0 0 1 2 2v2a2 2 0 0 1-2 2H3a2 2 0 0 1-2-2V3ZM1 11a2 2 0 0 1 2-2h2a2 2 0 0 1 2 2v2a2 2 0 0 1-2 2H3a2 2 0 0 1-2-2v-2ZM9 11a2 2 0 0 1 2-2h2a2 2 0 0 1 2 2v2a2 2 0 0 1-2 2h-2a2 2 0 0 1-2-2v-2Z"/><path fill-rule="evenodd" d="M9.005 1.63c0-.345.28-.625.625-.625h4.74c.345 0 .625.28.625.625v4.74a.625.625 0 1 1-1.25 0V3.139l-3.673 3.673a.625.625 0 1 1-.884-.884l3.673-3.673H9.63a.625.625 0 0 1-.625-.625Z" clip-rule="evenodd"/></svg>
