<svg xmlns="http://www.w3.org/2000/svg" width="16" height="16" viewBox="0 0 16 16" fill="context-fill" fill-opacity="context-fill-opacity"><path fill-rule="evenodd" d="M11.379 9.682a.625.625 0 0 1 .883-.008l2.546 2.5a.625.625 0 0 1 .004.888l-2.5 2.5a.625.625 0 1 1-.884-.884l1.433-1.433H7.37a.625.625 0 1 1 0-1.25h5.472l-1.455-1.43a.625.625 0 0 1-.008-.883Z" clip-rule="evenodd"/><path fill-rule="evenodd" d="M3 3.25h10a.75.75 0 0 1 .75.75v5.733L15 10.961V4a2 2 0 0 0-2-2H3a2 2 0 0 0-2 2v7a2 2 0 0 0 2 2h2.79a1.629 1.629 0 0 1 .207-1.25H3a.75.75 0 0 1-.75-.75V4A.75.75 0 0 1 3 3.25Zm9.592 8.5.25.245H7.37A.625.625 0 0 0 6.874 13H13c.714 0 1.34-.374 1.695-.937l-.955-.938a.75.75 0 0 1-.74.625h-.408Z" clip-rule="evenodd"/></svg>
