<svg xmlns="http://www.w3.org/2000/svg" width="16" height="16" viewBox="0 0 16 16" fill="context-fill" fill-opacity="context-fill-opacity"><path fill-rule="evenodd" d="M2.63 1.255c-.76 0-1.375.616-1.375 1.375v2.685a.625.625 0 0 1-1.25 0V2.63A2.625 2.625 0 0 1 2.63.005h2.685a.625.625 0 1 1 0 1.25H2.63ZM10.06.63c0-.345.28-.625.625-.625h2.685a2.625 2.625 0 0 1 2.625 2.625v2.685a.625.625 0 1 1-1.25 0V2.63c0-.76-.616-1.375-1.375-1.375h-2.685A.625.625 0 0 1 10.06.63Zm5.31 9.43c.345 0 .625.28.625.625v2.685a2.625 2.625 0 0 1-2.625 2.625h-2.685a.625.625 0 1 1 0-1.25h2.685c.76 0 1.375-.616 1.375-1.375v-2.685c0-.345.28-.625.625-.625ZM2.729 7.3c-.79 0-1.43.64-1.43 1.429v4.542c0 .79.64 1.43 1.43 1.43H7.27c.79 0 1.43-.64 1.43-1.43V8.73c0-.79-.64-1.43-1.43-1.43H2.73ZM0 8.728A2.729 2.729 0 0 1 2.729 6H7.27A2.729 2.729 0 0 1 10 8.729v4.542A2.729 2.729 0 0 1 7.271 16H2.73A2.729 2.729 0 0 1 0 13.271V8.73Z" clip-rule="evenodd"/><path d="M6.9 14.005H2.73a.5.5 0 0 1-.372-.835l2.085-2.317a.5.5 0 0 1 .744 0l2.085 2.317a.5.5 0 0 1-.371.835ZM8 9a1 1 0 1 1-2 0 1 1 0 0 1 2 0Z"/></svg>
