<!-- This Source Code Form is subject to the terms of the Mozilla Public
   - License, v. 2.0. If a copy of the MPL was not distributed with this
   - file, You can obtain one at http://mozilla.org/MPL/2.0/. -->
<svg xmlns="http://www.w3.org/2000/svg" width="183" height="159" version="1.1">
  <defs>
    <linearGradient id="a" x1="-58.737%" x2="177.192%" y1="-3.847%" y2="112.985%">
      <stop offset="0%" stop-color="#CCFBFF"/>
      <stop offset="100%" stop-color="#C9E4FF"/>
    </linearGradient>
    <linearGradient id="b" x1="-62.081%" x2="144.194%" y1="-14.656%" y2="104.338%">
      <stop offset="0%" stop-color="#00C8D7"/>
      <stop offset="100%" stop-color="#008EA4"/>
    </linearGradient>
    <linearGradient id="c" x1="-93.784%" x2="130.325%" y1="-512.631%" y2="364.268%">
      <stop offset="0%" stop-color="#00C8D7"/>
      <stop offset="100%" stop-color="#0A84FF"/>
    </linearGradient>
    <linearGradient id="d" x1="-632.1%" x2="878.563%" y1="-1341.641%" y2="1656.303%">
      <stop offset="0%" stop-color="#00C8D7"/>
      <stop offset="100%" stop-color="#0A84FF"/>
    </linearGradient>
    <linearGradient id="e" x1="-145.225%" x2="166.502%" y1="-230.02%" y2="260.392%">
      <stop offset="0%" stop-color="#00C8D7"/>
      <stop offset="100%" stop-color="#0A84FF"/>
    </linearGradient>
    <linearGradient id="f" x1="-16.485%" x2="216.233%" y1="-373.776%" y2="1088.73%">
      <stop offset="0%" stop-color="#00C8D7"/>
      <stop offset="100%" stop-color="#0A84FF"/>
    </linearGradient>
    <linearGradient id="g" x1="-13.212%" x2="220.924%" y1="-398.815%" y2="1263.59%">
      <stop offset="0%" stop-color="#00C8D7"/>
      <stop offset="100%" stop-color="#0A84FF"/>
    </linearGradient>
    <linearGradient id="h" x1="56.524%" x2="154.312%" y1="90.974%" y2="705.12%">
      <stop offset="0%" stop-color="#00C8D7"/>
      <stop offset="100%" stop-color="#008EA4"/>
    </linearGradient>
    <linearGradient id="i" x1="-2629.906%" x2="2946.182%" y1="-2629.905%" y2="2946.183%">
      <stop offset="0%" stop-color="#00C8D7"/>
      <stop offset="100%" stop-color="#0A84FF"/>
    </linearGradient>
    <linearGradient id="j" x1="-2788.189%" x2="2787.9%" y1="-2788.189%" y2="2787.9%">
      <stop offset="0%" stop-color="#00C8D7"/>
      <stop offset="100%" stop-color="#0A84FF"/>
    </linearGradient>
    <linearGradient id="k" x1="-2975.533%" x2="2600.555%" y1="-2975.533%" y2="2600.555%">
      <stop offset="0%" stop-color="#00C8D7"/>
      <stop offset="100%" stop-color="#0A84FF"/>
    </linearGradient>
    <linearGradient id="l" x1="-2968.553%" x2="2607.535%" y1="-2968.552%" y2="2607.537%">
      <stop offset="0%" stop-color="#00C8D7"/>
      <stop offset="100%" stop-color="#0A84FF"/>
    </linearGradient>
    <linearGradient id="m" x1="-47.612%" x2="165.227%" y1="-4.394%" y2="113.507%">
      <stop offset="0%" stop-color="#00C8D7"/>
      <stop offset="100%" stop-color="#0A84FF"/>
    </linearGradient>
  </defs>
  <g fill="none" fill-rule="nonzero" stroke="none" stroke-width="1">
    <path fill="#EAEAEE" d="M41.548 94.855h110.678a1 1 0 1 0 0 -2h-110.678a1 1 0 0 0 0 2zm14.952 -5h27.764a0.5 0.5 0 1 0 0 -1h-27.765a0.5 0.5 0 1 0 0 1zm-35.386 8.869a0.5 0.5 0 0 1 0.5 -0.5h12a0.5 0.5 0 1 1 0 1h-12a0.5 0.5 0 0 1 -0.5 -0.5zm20 0a0.5 0.5 0 0 1 0.5 -0.5h3a0.5 0.5 0 1 1 0 1h-3a0.5 0.5 0 0 1 -0.5 -0.5zm7 0a0.5 0.5 0 0 1 0.5 -0.5h1a0.5 0.5 0 1 1 0 1h-1a0.5 0.5 0 0 1 -0.5 -0.5zm10 0a0.5 0.5 0 0 1 0.5 -0.5h12a0.5 0.5 0 1 1 0 1h-12a0.5 0.5 0 0 1 -0.5 -0.5zm20 0a0.5 0.5 0 0 1 0.5 -0.5h3a0.5 0.5 0 1 1 0 1h-3a0.5 0.5 0 0 1 -0.5 -0.5zm7 0a0.5 0.5 0 0 1 0.5 -0.5h1a0.5 0.5 0 1 1 0 1h-1a0.5 0.5 0 0 1 -0.5 -0.5zm10 0a0.5 0.5 0 0 1 0.5 -0.5h12a0.5 0.5 0 0 1 0 1h-12a0.5 0.5 0 0 1 -0.5 -0.5zm20 0a0.5 0.5 0 0 1 0.5 -0.5h3a0.5 0.5 0 0 1 0 1h-3a0.5 0.5 0 0 1 -0.5 -0.5zm7 0a0.5 0.5 0 0 1 0.5 -0.5h1a0.5 0.5 0 0 1 0 1h-1a0.5 0.5 0 0 1 -0.5 -0.5zm10 0a0.5 0.5 0 0 1 0.5 -0.5h12a0.5 0.5 0 0 1 0 1h-12a0.5 0.5 0 0 1 -0.5 -0.5zm20 0a0.5 0.5 0 0 1 0.5 -0.5h3a0.5 0.5 0 0 1 0 1h-3a0.5 0.5 0 0 1 -0.5 -0.5zm7 0a0.5 0.5 0 0 1 0.5 -0.5h1a0.5 0.5 0 0 1 0 1h-1a0.5 0.5 0 0 1 -0.5 -0.5zm10 0a0.5 0.5 0 0 1 0.5 -0.5h12a0.5 0.5 0 0 1 0 1h-12a0.5 0.5 0 0 1 -0.5 -0.5z"/>
    <path fill="#FFF" d="M1.474 63.811h25.423s-7.955 -17.777 8.932 -20.076c15.062 -2.05 21.014 13.427 21.014 13.427s1.786 -8.93 10.743 -7.221c8.832 1.684 15.353 15.889 15.353 15.889h22.137"/>
    <path fill="#EAEAEE" d="M105.51 61.633h-6.544a0.588 0.588 0 1 1 0 -1.176h6.545a0.588 0.588 0 0 1 0 1.176zm-17.132 0h-1.176a0.588 0.588 0 1 1 0 -1.176h1.176a0.588 0.588 0 1 1 0 1.176zm-61.046 -0.712h-1.893a0.588 0.588 0 0 1 0 -1.176h1.023a24.94 24.94 0 0 1 -0.269 -0.756 0.588 0.588 0 0 1 1.115 -0.377 18.812 18.812 0 0 0 0.56 1.48 0.588 0.588 0 0 1 -0.536 0.829zm-11.305 0h-14.117a0.588 0.588 0 1 1 0 -1.176h14.117a0.588 0.588 0 0 1 0 1.176zm66.928 -0.064a0.588 0.588 0 0 1 -0.514 -0.301 44.273 44.273 0 0 0 -1.828 -2.974 0.588 0.588 0 1 1 0.977 -0.654 45.65 45.65 0 0 1 1.878 3.053 0.588 0.588 0 0 1 -0.513 0.876zm-57.304 -6.042a0.588 0.588 0 0 1 -0.582 -0.507 20.77 20.77 0 0 1 -0.134 -1.205 0.588 0.588 0 0 1 1.173 -0.094 19.39 19.39 0 0 0 0.126 1.136 0.588 0.588 0 0 1 -0.583 0.67zm30.647 -2.594a0.587 0.587 0 0 1 -0.519 -0.31 26.496 26.496 0 0 0 -0.57 -1.001 0.588 0.588 0 1 1 1.01 -0.605 27.467 27.467 0 0 1 0.596 1.048 0.588 0.588 0 0 1 -0.517 0.868zm18.676 -1.503a0.586 0.586 0 0 1 -0.383 -0.143 14.722 14.722 0 0 0 -6.68 -3.535 8.578 8.578 0 0 0 -5.628 0.61 0.588 0.588 0 1 1 -0.54 -1.046 9.747 9.747 0 0 1 6.389 -0.72 15.855 15.855 0 0 1 7.225 3.8 0.588 0.588 0 0 1 -0.383 1.034zm-22.019 -3.335a0.587 0.587 0 0 1 -0.443 -0.202 21.943 21.943 0 0 0 -2.45 -2.41 0.588 0.588 0 0 1 0.755 -0.903 23.254 23.254 0 0 1 2.582 2.54 0.588 0.588 0 0 1 -0.444 0.975zm-24.258 -3.43a0.589 0.589 0 0 1 -0.395 -1.025 14.421 14.421 0 0 1 7.882 -3.255 19.345 19.345 0 0 1 5.96 0.08 0.588 0.588 0 1 1 -0.203 1.158 18.263 18.263 0 0 0 -5.597 -0.073 13.284 13.284 0 0 0 -7.253 2.963 0.59 0.59 0 0 1 -0.394 0.152z"/>
    <path fill="#FFF" d="M106.242 66.149h-104.771a1.176 1.176 0 1 1 0 -2.353h104.771a1.176 1.176 0 0 1 0 2.353zm1.978 -51.759h14.187s-4.44 -9.92 4.985 -11.203c8.404 -1.144 11.726 7.493 11.726 7.493s0.907 -4.089 5.995 -4.03c4.756 0.055 8.38 7.914 8.568 8.867h12.353"/>
    <path fill="#EAEAEE" d="M122.823 12.8h-14.167a0.59 0.59 0 1 1 0 -1.18h14.167a0.59 0.59 0 0 1 0 1.18zm43.647 -0.184h-0.545a0.59 0.59 0 1 1 0 -1.18h0.545a0.59 0.59 0 1 1 0 1.18zm-5.267 0h-3.542a0.59 0.59 0 1 1 0 -1.18h3.542a0.59 0.59 0 1 1 0 1.18zm-21.648 -3.527a0.614 0.614 0 0 1 -0.553 -0.384l-0.088 -0.207a0.59 0.59 0 0 1 0.23 -0.74 5.483 5.483 0 0 1 5.186 -4 7.111 7.111 0 0 1 1.33 0.132 10.622 10.622 0 0 1 5.267 3.045 0.59 0.59 0 0 1 -0.822 0.848 9.484 9.484 0 0 0 -4.666 -2.733 5.935 5.935 0 0 0 -1.109 -0.111c-3.402 0 -4.166 3.527 -4.196 3.678a0.592 0.592 0 0 1 -0.579 0.472zm-16.422 -5.27a0.59 0.59 0 0 1 -0.45 -0.973 6.799 6.799 0 0 1 3.236 -2.026 0.59 0.59 0 1 1 0.351 1.127 5.632 5.632 0 0 0 -2.688 1.665 0.589 0.589 0 0 1 -0.45 0.208zm8.784 -1.987a0.601 0.601 0 0 1 -0.156 -0.02 9.055 9.055 0 0 0 -1.083 -0.225 0.59 0.59 0 0 1 -0.5 -0.668 0.6 0.6 0 0 1 0.668 -0.5 10.36 10.36 0 0 1 1.224 0.253 0.59 0.59 0 0 1 -0.153 1.16z"/>
    <path fill="#FFF" d="M166.948 16.76h-58.468a1.18 1.18 0 0 1 0 -2.36h58.468a1.18 1.18 0 0 1 0 2.36z"/>
    <ellipse cx="99.859" cy="152.41" fill="#EAEAEE" rx="30" ry="5.802"/>
    <path fill="#F9F9FA" d="M116.421 66.559c-4.126 4.126 -9.051 9.488 -9.656 16.465 0.605 6.977 5.53 12.339 9.656 16.465a26.199 26.199 0 0 1 9.126 19.9v11.242h-52.517v-11.242a26.199 26.199 0 0 1 9.126 -19.9c4.126 -4.126 9.051 -9.488 9.656 -16.465 -0.605 -6.977 -5.53 -12.339 -9.656 -16.465a26.199 26.199 0 0 1 -9.126 -19.9v-11.369h52.517v11.369a26.199 26.199 0 0 1 -9.126 19.9z"/>
    <path fill="url(#a)" d="M35.304 21.239c-3.349 4.126 -8.666 10.808 -9.157 17.785 0.491 6.977 5.808 13.659 9.157 17.785a25.765 25.765 0 0 1 7.408 18.58v11.242h-42.627v-11.242a25.765 25.765 0 0 1 7.407 -18.58c3.35 -4.126 8.667 -10.808 9.157 -17.785 -0.49 -6.977 -5.808 -13.659 -9.157 -17.785a25.765 25.765 0 0 1 -7.407 -18.58v-2.13a95.816 95.816 0 0 0 22.369 2.64c12.527 0 20.258 -2.64 20.258 -2.64v2.13a25.765 25.765 0 0 1 -7.408 18.58z" transform="translate(78 44)"/>
    <path fill="url(#b)" d="M55.548 6.222h-52.518a2.932 2.932 0 0 1 0 -5.864h52.518a2.932 2.932 0 0 1 0 5.864zm2.932 92.409a2.932 2.932 0 0 0 -2.932 -2.932h-52.518a2.932 2.932 0 0 0 0 5.863h52.518a2.932 2.932 0 0 0 2.932 -2.931z" transform="translate(70 32)"/>
    <path fill="url(#c)" d="M129.028 130.684c0.334 5 -13.767 7.667 -29.749 7.667 -15.981 0 -28.937 -3.358 -28.937 -7.5 0 -4.143 12.956 -7.5 28.937 -7.5 15.982 0 29.474 3.2 29.75 7.333z"/>
    <path fill="#F9F9FA" d="M125.654 127.755c0 2.185 -11.233 5.596 -25.792 5.596 -14.56 0 -26.932 -3.41 -26.932 -5.596 0 -2.185 11.802 -3.956 26.362 -3.956 14.56 0 26.362 1.771 26.362 3.956z"/>
    <path fill="url(#d)" d="M95.233 76.435s1.978 4.121 4.286 4.286c2.307 0.165 4.43 -4.388 4.43 -4.388l-8.716 0.102z"/>
    <path fill="url(#e)" d="M99.288 102.48c7.502 0 21.137 23.169 21.137 23.169s-1.442 3.702 -20.563 3.702c-19.122 0 -21.71 -3.702 -21.71 -3.702s13.763 -23.17 21.136 -23.17z"/>
    <path fill="url(#f)" d="M127.852 37.313c0 2.185 -12.049 5.038 -27.657 5.038s-28.864 -2.853 -28.864 -5.038 12.653 -3.956 28.26 -3.956c15.609 0 28.261 1.771 28.261 3.956z"/>
    <ellipse cx="99.42" cy="33.357" fill="url(#g)" rx="28.089" ry="3.956"/>
    <ellipse cx="99.603" cy="76.333" fill="url(#h)" rx="4.346" ry="1"/>
    <circle cx="99.393" cy="84.717" r="1.181" fill="url(#i)"/>
    <circle cx="98.996" cy="92.589" r="1.181" fill="url(#j)"/>
    <circle cx="98.145" cy="102.288" r="1.181" fill="url(#k)"/>
    <circle cx="101.388" cy="98.715" r="1.181" fill="url(#l)"/>
    <path fill="#F9F9FA" d="M84.628 53.363a1.833 1.833 0 0 1 -0.264 -0.026l-0.237 -0.08a41.18 41.18 0 0 0 -0.238 -0.118 2.238 2.238 0 0 1 -0.197 -0.172 1.325 1.325 0 0 1 -0.382 -0.922 1.359 1.359 0 0 1 0.105 -0.515 1.297 1.297 0 0 1 0.277 -0.422 1.012 1.012 0 0 1 0.197 -0.158 2.196 2.196 0 0 1 0.238 -0.132 1.55 1.55 0 0 1 0.237 -0.066 1.331 1.331 0 0 1 1.2 0.356 1.297 1.297 0 0 1 0.278 0.422 1.169 1.169 0 0 1 0.105 0.515 1.329 1.329 0 0 1 -1.319 1.318zm-0.221 69.007a1.319 1.319 0 0 1 -1.318 -1.282c-0.227 -8.439 2.93 -13.501 3.064 -13.712a1.319 1.319 0 0 1 2.227 1.413c-0.057 0.092 -2.858 4.684 -2.653 12.227a1.32 1.32 0 0 1 -1.283 1.355h-0.037zm8.793 -54.507a1.319 1.319 0 0 1 -1.002 -0.46 102.116 102.116 0 0 1 -6.712 -9.614 1.319 1.319 0 0 1 2.24 -1.39 101.694 101.694 0 0 0 6.476 9.287 1.32 1.32 0 0 1 -1.002 2.177z"/>
    <path fill="url(#m)" d="M127.377 126.244v-6.856a28.144 28.144 0 0 0 -9.656 -21.217c-4.074 -4.092 -8.47 -8.976 -9.052 -15.1 0.582 -6.218 4.978 -11.103 9.026 -15.17a28.118 28.118 0 0 0 9.682 -21.242v-6.529a3.426 3.426 0 0 0 2.27 -2.456 4.696 4.696 0 0 0 -0.888 -5.862c-3.257 -4.026 -24.92 -4.23 -29.23 -4.23 -10.758 0 -24.656 0.91 -28.356 3.436a4.777 4.777 0 0 0 -2.674 4.272 4.71 4.71 0 0 0 2.19 3.98 4.54 4.54 0 0 0 0.73 0.528v6.86a28.09 28.09 0 0 0 9.657 21.218c4.074 4.093 8.47 8.98 9.051 15.101 -0.582 6.215 -4.977 11.102 -9.025 15.169a28.149 28.149 0 0 0 -9.68 21.317l-0.003 6.78a4.741 4.741 0 0 0 -2.92 4.387 4.455 4.455 0 0 0 0.319 1.685c1.459 6.64 27.596 6.83 30.571 6.83 2.951 0 28.885 -0.189 30.526 -6.661a4.734 4.734 0 0 0 -2.538 -6.24zm0.365 5.42l-0.041 0.132c-0.48 3.01 -15.028 5.032 -28.312 5.032 -16.33 0 -28.03 -2.665 -28.315 -5.058l-0.04 -0.145a2.426 2.426 0 0 1 2.205 -3.426h0.5v-8.81a25.817 25.817 0 0 1 8.946 -19.548c4.404 -4.42 9.154 -9.727 9.763 -16.86 -0.609 -7.047 -5.359 -12.354 -9.79 -16.8a25.792 25.792 0 0 1 -8.92 -19.522v-8.348l-0.318 -0.124a3.457 3.457 0 0 1 -1.232 -0.69l-0.117 -0.091a2.422 2.422 0 0 1 0.19 -4.336l0.094 -0.056c2.392 -1.774 14.074 -3.113 27.175 -3.113 15.231 0 26.482 1.747 27.434 3.379l0.115 0.134a2.396 2.396 0 0 1 0.333 3.42l-0.165 0.2 0.094 0.32c-0.057 0.126 -0.362 0.534 -1.938 1.048l-0.345 0.112v8.145a25.817 25.817 0 0 1 -8.946 19.547c-4.404 4.421 -9.154 9.728 -9.763 16.86 0.609 7.048 5.359 12.354 9.79 16.8a25.813 25.813 0 0 1 8.92 19.564v8.769h0.5a2.42 2.42 0 0 1 2.183 3.464z"/>
  </g>
</svg>
