<svg version="1.1" viewBox="0 0 1668 1000" xmlns="http://www.w3.org/2000/svg"><polygon points="782.56 330.6 782.56 330.66 802.56 319.13 802.5 319.1" fill="none"/><polygon points="872.6 313.29 872.6 313.35 882.59 307.59 882.54 307.56" fill="none"/><polygon points="2.074 502.97 0 501.78 0 501.82 2.074 503.01" fill="none"/><polygon points="852.59 313.29 852.59 313.35 862.58 307.59 862.53 307.56" fill="none"/><polygon points="812.58 324.83 812.58 324.89 842.57 307.59 842.52 307.56" fill="none"/><polygon points="1339.7 751.1 1349.7 745.33 1339.7 751.08" fill="none"/><polygon points="1349.6 733.81 1349.6 733.81 1349.6 745.27 1349.7 745.33 1349.7 733.79 1359.7 728.01 1359.7 728" fill="none"/><polygon points="1449.8 664.58 1459.7 670.31 1449.8 676.05 1449.8 676.07 1459.8 670.3 1449.8 664.53" fill="none"/><polygon points="612.42 474.94 612.42 486.48 602.42 492.25 602.42 515.34 602.47 515.37 602.48 515.36 602.48 492.27 612.49 486.5 612.49 474.96 622.48 469.2 622.42 469.16" fill="none"/><polygon points="22.083 514.46 22.167 514.42 22.083 514.37" fill="none"/><polygon points="122.13 502.92 122.2 502.88 122.13 502.83" fill="none"/><polygon points="834.31 654.94 834.31 654.94 844.26 649.2 844.23 649.19" fill="none"/><polygon points="142.13 491.38 142.16 491.36 142.13 491.35" fill="none"/><polygon points="752.48 347.96 752.48 359.5 742.48 365.27 742.48 376.82 722.47 388.36 722.47 399.9 702.46 411.45 702.46 422.99 682.45 434.53 682.45 446.08 652.44 463.39 652.44 474.94 642.5 480.67 642.5 480.73 652.51 474.96 652.51 463.41 682.52 446.1 682.52 434.56 702.53 423.01 702.53 411.47 722.54 399.92 722.54 388.38 742.54 376.84 742.54 365.3 752.55 359.52 752.55 347.98 762.55 342.21 762.6 330.64 772.54 324.9 772.49 324.87 762.48 330.64 762.48 342.19 732.47 324.87 762.48 342.19" fill="none"/><polygon points="502.37 573.05 492.37 578.82 492.37 578.83 502.38 573.05 502.38 561.52 502.37 561.51" fill="none"/><polygon points="522.38 538.42 522.38 549.97 512.38 555.74 512.38 555.74 522.39 549.97 522.39 538.42 532.39 532.66 532.38 532.65" fill="none"/><polygon points="824.3 683.78 820.26 686.13 824.31 683.8 824.31 672.26 827.54 670.39 824.3 672.24" fill="none"/><polygon points="804.29 706.89 804.3 706.89 804.3 695.43 804.29 695.44" fill="none"/><polygon points="162.14 491.38 162.2 491.34 162.14 491.31" fill="none"/><polygon points="834.31 666.48 804.29 649.22 834.26 666.51" fill="none"/><polygon points="1369.7 733.79 1369.7 733.78 1369.7 733.78" fill="none"/><polygon points="892.66 313.26 892.66 313.32 902.6 307.59 902.54 307.56" fill="none"/><polygon points="679.71 70.764 679.7 70.768 679.7 82.209 679.71 82.205" fill="none"/><polygon points="1171.4 257.99 1141.4 240.68" fill="none"/><polygon points="144.85 824.5 144.85 824.5 154.86 830.28 154.87 830.27 144.33 824.21" fill="none"/><polygon points="1351.5 177.19 1351.5 177.19 1351.5 177.18" fill="none"/><polygon points="452.59 146.99 452.59 146.99" fill="none"/><polygon points="1659.9 531.74 1659.9 531.71 1659.9 531.78" fill="none"/><polygon points="1519.8 601.03 1519.8 601.04 1519.8 589.52 1519.8 589.54" fill="none"/><polygon points="1619.8 577.95 1620 577.88 1619.8 577.81" fill="none"/><polygon points="679.59 82.249 659.7 93.748 679.61 82.26" fill="none"/><rect x="1381.5" y="171.42" width="0" height="0" fill="none"/><polygon points="709.72 41.865 709.71 41.87 709.71 53.351 709.72 53.347" fill="none"/><polygon points="144.85 847.59 144.87 847.58 134.36 841.54" fill="none"/><polygon points="1609.8 572.17 1609.8 583.6 1609.8 583.63 1609.8 572.18 1599.4 566.18" fill="none"/><polygon points="719.72 59.118 719.64 59.169 719.72 59.22" fill="none"/><path d="m1639.9 635.67v0.014l-0.012-7e-3 -0.04 0.023v-0.046l-9.964-5.749-50.062 28.881v-0.036l-9.973-5.754-0.031 0.018v11.543l-50.022 28.858v-11.543l-0.033 0.019-0.014 11.496-9.956-5.744-40.018 23.087v11.543l-10.004 5.772v11.543l-30.013 17.315v-11.543l-0.053 0.031 0.029 0.017-0.014 11.503-9.991-5.764-39.992 23.072v11.543l-30.013 17.315v-11.543l-0.08 0.046-0.014 11.424-9.893-5.708-20.026 11.553v11.543l-60.011 34.604-29.94-17.273-0.059-11.545 20.009-11.543 29.971 17.291 0.028-0.016v-11.506l-0.014 11.503-29.94-17.273-0.059-11.545 30.013 17.315v-0.036l-30.013-17.315 20.009-11.543 0.073 0.042-0.059-11.493-0.109-0.063 20.009-11.543 30.013 17.315-19.976 11.525 0.062 0.036v-0.046l19.996-11.536-0.023-0.013v-9e-3l-29.857-17.225-0.059-11.545 29.952 17.28v-0.038l6e-3 -4e-3 -29.958-17.284 20.009-11.543 29.952 17.28v-0.037l-29.893-17.246-0.058-11.455-0.15-0.087 10.057-5.777-0.059-11.541v-3e-3l3e-3 2e-3 20.006-11.542 10.065 5.807 20.042-11.601v-11.474l-0.094-0.055 20.009-11.543 30.013 17.315-19.948 11.509 0.034 0.02 20.009-11.543v-0.025l-29.952-17.28v-11.543l3e-3 2e-3 29.949-17.327 10.015 5.778v-11.541l0.049 0.028 19.96-11.515 29.952 17.28 0.016-9e-3 -29.978-17.295v-11.543l30.013 17.315v-0.04l0.04-0.023-30.04-17.279 10.027-5.785 29.977 17.286v-0.044l-29.853-17.222v-11.549l0.017 0.01 29.828-17.341-0.015-9e-3v-11.544l0.039 0.022 29.997-17.333 10.119 5.838 0.045-0.026 9.901 5.712 9.901-5.712 9.978 5.756 0.049-0.028 10.096 5.825 9.997-5.768-0.107-0.062v-11.543l0.03 0.017 9.997-5.768 10.032 5.785 0.077-0.045v-11.433l29.931 17.268v-0.045l6e-3 -4e-3 -29.937-17.271 20.009-11.543 29.931 17.268v-0.017l-29.996-17.305-0.017-23.073 0.12 0.069 9.924-5.725 9.894 5.705 0.118-0.068 0.03 0.017-0.017-22.959 28.088 16.21v-0.04l-28.092-16.207 20.009-11.543 8.084 4.664v-478.81h-805.79l-22.438 12.945-10.004-5.772-10.004 5.772-10.004-5.772v11.543l-30.013 17.315-30.013-17.315v-11.543l10.004-5.772v-1.401h-759.74v478.69l12.063 6.959 30.029-17.358 20.133 11.615 9.979-5.757 9.955 5.743 9.955-5.743 9.876 5.698 0.07-0.04v-11.532l30.013 17.315v11.455l0.058 0.033-0.015-11.447 0.057-0.033-10.722-6.186-19.391-11.154 10.027-5.785 10.073 5.809 10.009-5.774 10.02 5.781 19.955-11.542 30.013 17.315v11.543l-70.045 40.427v11.543l-90.039 51.945v11.543l-32.073 18.506v380.43h759.74v-10.27l20.009-11.543v-11.543l20.009-11.543v-11.543l10.004-5.772 30.013 17.315v-11.543l20.009-11.543v-11.545l20.009-11.543v-11.543l10.004-5.772v-11.543l10.004-5.772v-11.543l20.009-11.543v-11.543l30.013-17.315v-11.543l10.004-5.772 30.013 17.315 10.004 5.772 10.004-5.772 10.004 5.772 10.004-5.772 10.004 5.772 20.009-11.543 10.004 5.772 10.004-5.772 30.013 17.315v11.543l-50.022 28.858-10.004-5.772-20.009 11.543v11.543l-50.021 28.858-10.004-5.772-20.009 11.543v11.543l-30.012 17.316v11.543l-57.818 33.357h806.01v-380.55l-28.115 16.22zm-1010.2-559.23l20-11.559 2e-3 1e-3v-11.422l30.02-17.422v-11.543l10.004-5.772 10.014 5.778 9.994-5.778 30.013 17.315v6e-3l9.999 5.769 5e-3 -3e-3v11.543l-30.013 17.315v0.102l-10.003-5.873-10.004 5.772v11.543l-40.017 23.087-30.013-17.315v-11.544zm-314.76 696.13l-10.004 5.772v11.543l-30.013 17.315-10.004-5.772-10.004 5.772v11.543l-30.013 17.315-10.004-5.772-40.017 23.087-10.004-5.772-20.009 11.543-30.013-17.315v-11.51l-0.116-0.067 10.027-5.785 30.107 17.361-30.013-17.315v-11.51l-0.116-0.067 10.027-5.785 30.107 17.361-30.013-17.315v-11.492l-0.206-0.118 20.12-11.523 30.107 17.361-30.013-17.315v-11.492l-0.206-0.118 30.125-17.295 30.107 17.361-30.013-17.315v-11.518l-0.022-0.013 0.022-0.013 10.004-5.772 19.867 11.461 30.061-17.279 29.983 17.29 10.034-5.746 10.094 5.82 5e-3 -3e-3v5e-3l20.009 11.538v11.549zm127.66-596.71l-20.009 11.543v11.543l-40.017 23.087-10.004-5.772-90.039 51.945-10.004-5.772-40.017 23.087-10.004-5.772-30.013 17.315-10.004-5.772-80.035 46.174-30.013-17.315v-11.543l20.009-11.543v-11.543l20.009-11.543 10.004 5.772 10.004-5.772v-11.543l10.004-5.772v-11.543l10.004-5.772v-11.543l20.009-11.543v-11.543l20.009-11.543 30.013 17.315v11.543l10.004 5.772v-23.087l10.004-5.772v-23.087l20.009-11.543v-11.543l10.004-5.772v-11.543l10.004-5.772v-11.543l20.009-11.543 30.013 17.315v11.543l10.004 5.772 10.004-5.772 10.004 5.772 20.009-11.543 10.004 5.772 30.013-17.315 10.004 5.772 30.013-17.315 30.013 17.315 10.004 5.772v11.543l-50.022 28.858-10.004-5.772v11.541zm199.84 339.55v11.481l-9.95-5.74-19.993 11.534v-11.543l-0.07 0.04v11.481l-9.95-5.74-9.989 5.763v-11.526l-0.07-0.04v11.543l-19.996-11.536v11.536l-10.004 5.772v11.543l-10.004 5.772v11.543l-20.009 11.543v-11.543l-0.013 7e-3v11.536l-9.991-5.764v11.536l-20.009 11.543v-11.543l-0.013 7e-3v11.536l-9.998-5.768-9.998 5.768v-11.536l-0.013-7e-3v11.543l-30.013-17.315v-11.543l20.009-11.543v-11.543l20.009-11.543v-11.543l20.009-11.543 10.004 5.772 20.009-11.543 30.013 17.315-30 17.308v8e-3l30.006-17.311-10.011-5.775v-11.543l10.004-5.772v-23.087l10.004-5.772v-11.548l20.009-11.543 20.009 11.543v-11.543l30.013-17.315v-11.543l20.009-11.543v-11.543l20.009-11.543v-11.543l20.009-11.543v-11.543l10.004-5.772v-11.543l10.004-5.772v-11.543l20.009-11.543 10.004 5.772 20.009-11.543 10.004 5.772 30.013-17.315 10.004 5.772 10.004-5.772 10.004 5.772 10.004-5.772 10.004 5.772 10.004-5.772 30.013 17.315 0.054 0.031 0.015-9e-3v0.018l9.934 5.731-9.879 5.7v0.063l9.949-5.74v11.543l-30.013 17.315v11.543l-10.004 5.772v11.543l-10.004 5.772 0.683 11.149-10.687 6.166v11.543l-30.013 17.315v11.543l-60.026 34.63v-11.543l-0.07 0.04v11.481l-9.95-5.74-29.997 17.306v-11.543l-0.07 0.04v11.481l-9.95-5.74-9.989 5.763v11.543l-70.03 40.402v-11.543l-0.068 0.036zm301.93 133.77l-30.013 17.315v11.543l-30.013 17.315v-0.044l-9.966-5.749-20.047 11.566v11.543l-50.022 28.858v-11.543l-0.092 0.053 0.082 0.047v11.543l-10.086-5.819-39.925 23.034v-11.543l-0.09 0.052 0.09 0.052v11.543l-10.094-5.823-19.919 11.492v0.102l-30.013-17.315v-11.592l-0.183-0.106 30.196-17.162v-11.543l30.013 17.315v11.442-11.543l0.013-8e-3 -30.118-17.324 30.196-17.162 9.9 5.711 10.007-5.703 29.892 17.245 0.045-0.026-29.937-17.271v-11.543l20.006-11.652v-11.543l10.007-5.704-4e-3 -11.592 20.019-11.595 10.061 5.804 9.936-5.756 10.034 5.789v-11.569l9.988-5.76 10.005 5.771h1e-3l10.071 5.809 10.072-5.733 9.937 5.733 10.072-5.733 29.878 17.237v11.542zm477.13-512.38l20.009-11.543v-11.543l30.013-17.315v-11.544l20.009-11.543 30.013 17.315 10.004-5.772 30.013 17.315v11.543l-50.022 28.858-10.004-5.772-10.004 5.772v11.543l-10.004 5.772-10.004-5.772-20.009 11.543-30.013-17.315v-11.542zm-210.09 167.38l-30.013 17.315-10.004-5.772-30.013 17.315-30.013-17.315v-11.543l10.004-5.772v-11.543l10.004-5.772v-11.543l20.009-11.543-10.004-5.772v-11.543l10.004-5.772v-23.087l10.004-5.772v-11.543l20.009-11.543v-11.543l20.009-11.543v-11.543l20.009-11.543 10.004 5.772 10.004-5.772 10.004 5.772 10.004-5.772 10.004 5.772 20.009-11.543 30.013 17.315 10.004 5.772 20.009-11.543 20.009 11.543 10.004-5.772 10.004 5.772 10.004-5.772 30.013 17.315v11.543l-10.004 5.772v11.543l-30.013 17.315v11.543l-40.017 23.087-10.004-5.772-60.026 34.63-10.004-5.772-40.017 23.087-10.004-5.772-10.004 5.772v11.542z" fill="none"/><polygon points="849.78 983.96 869.79 972.42 849.78 983.93" fill="none"/><polygon points="1579.8 589.48 1579.8 589.5 1579.9 589.45 1579.9 589.44" fill="none"/><polygon points="1589.8 595.27 1589.9 595.22 1589.8 595.17" fill="none"/><polygon points="492.61 135.44 502.61 129.67" fill="none"/><polygon points="2.074 503.01 0 501.82 0 524.76 2.074 525.95" fill="#A3A3A3"/><polygon points="132.07 497.04 132.07 485.59 102.06 468.28 102.06 479.81 102.12 479.77" fill="#A3A3A3"/><polygon points="2.074 502.92 2.159 502.87 0 501.63 0 501.78 2.074 502.97" fill="#D6D6D6"/><polygon points="0 478.69 0 492.62 12.063 485.65" fill="#D6D6D6"/><polygon points="2.074 526.01 2.074 525.95 0 524.76 0 527.2" fill="#D6D6D6"/><polygon points="122.13 491.38 122.13 502.83 122.2 502.88 132.13 497.15 132.13 497.08 132.07 497.04 102.12 479.77 102.06 479.81 101.99 479.85 122.05 491.42" fill="#D6D6D6"/><polygon points="22.083 491.38 22.083 514.37 22.167 514.42 62.074 491.39 52.194 485.69 62.224 479.91 42.091 468.29 12.063 485.65 0 492.62 0 501.63 2.159 502.87" fill="#D6D6D6"/><polygon points="82.109 491.46 82.109 502.92 92.038 497.19" fill="#D6D6D6"/><polygon points="72.104 497.15 82.033 491.42 72.104 485.69" fill="#D6D6D6"/><polygon points="52.194 485.69 62.074 491.39 72.104 485.61 72.104 485.69 82.158 479.89 72.203 474.15 62.224 479.91" fill="#D6D6D6"/><polygon points="72.104 485.69 82.033 491.42 82.109 491.38 82.109 491.46 92.038 497.19 102.12 491.38 102.12 502.92 122.05 491.42 101.99 479.85 92.113 474.15 82.158 479.89" fill="#D6D6D6"/><polygon points="121.45 479.41 132.17 485.6 132.19 485.59" fill="#D6D6D6"/><polygon points="142.12 479.88 142.13 491.35 142.16 491.36 152.2 485.57 132.23 474.05 142.19 468.29 132.17 462.51 122.16 468.28 142.19 479.84" fill="#D6D6D6"/><polygon points="152.2 485.57 162.14 479.84 162.14 491.31 162.2 491.34 192.16 474.06 162.14 456.75 142.19 468.29 132.23 474.05" fill="#D6D6D6"/><polygon points="142.12 479.86 142.12 479.88 142.19 479.84 122.16 468.28 112.09 462.48 102.06 468.26 121.45 479.41 132.19 485.59" fill="#D6D6D6"/><polygon points="32.072 589.52 122.11 537.58 122.11 526.03 192.16 485.61 192.16 474.06 162.2 491.34 162.14 491.38 162.14 491.31 162.14 479.84 152.2 485.57 142.16 491.36 142.13 491.38 142.13 491.35 142.12 479.88 142.12 479.86 132.19 485.59 132.17 485.6 132.12 485.63 132.13 497.08 132.13 497.15 122.2 502.88 122.13 502.92 122.13 502.83 122.13 491.38 122.05 491.42 102.12 502.92 102.12 491.38 92.038 497.19 82.109 502.92 82.109 491.46 82.109 491.38 82.033 491.42 72.104 497.15 72.104 485.69 72.104 485.61 62.074 491.39 22.167 514.42 22.083 514.46 22.083 514.37 22.083 491.38 2.159 502.87 2.074 502.92 2.074 502.97 2.074 503.01 2.074 525.95 2.074 526.01 0 527.2 0 619.57 32.072 601.07" fill="#fff"/><polygon points="694.25 747.39 724.26 764.7 724.26 764.6 694.25 747.29" fill="#A3A3A3"/><polygon points="754.28 758.93 754.28 747.39 754.19 747.34 744.18 753.11" fill="#A3A3A3"/><polygon points="754.28 735.74 754.28 724.3 724.26 706.99 724.26 718.53 754.19 735.8" fill="#A3A3A3"/><polygon points="804.29 741.62 804.29 730.07 804.21 730.02 794.2 735.8" fill="#A3A3A3"/><polygon points="804.29 695.44 774.28 678.12 774.28 689.66 804.21 706.94 804.29 706.89" fill="#A3A3A3"/><polygon points="824.3 672.24 794.28 654.92 794.28 666.47 824.3 683.78" fill="#A3A3A3"/><polygon points="834.31 654.94 834.31 654.94 834.3 654.94 804.28 637.63 804.29 649.22 834.31 666.48" fill="#A3A3A3"/><polygon points="874.37 689.55 884.33 695.3 884.33 683.8" fill="#A3A3A3"/><polygon points="874.26 643.43 874.27 643.43 874.33 643.4 874.33 643.47 884.27 649.2 884.33 649.17 884.33 637.7 854.33 620.3 854.33 631.87 874.31 643.4" fill="#A3A3A3"/><polygon points="724.26 753.06 694.25 735.8 694.25 735.85 694.25 747.29 724.26 764.6 724.26 753.16" fill="#A3A3A3"/><polygon points="724.26 753.06 754.19 735.8 724.26 718.53 694.07 735.69 694.25 735.8 724.26 753.06" fill="#D6D6D6"/><polygon points="754.28 701.11 764.27 695.42 754.37 689.71 724.17 706.87 754.29 724.19 774.28 712.66" fill="#D6D6D6"/><polygon points="774.28 712.66 784.29 706.89 784.29 718.43 804.17 706.96 774.28 689.72 764.27 695.42 754.28 701.11" fill="#D6D6D6"/><polygon points="804.3 695.43 804.3 695.34 820.26 686.13 824.3 683.78 794.28 666.47 774.28 678.12 804.29 695.44" fill="#D6D6D6"/><polygon points="827.54 670.39 834.26 666.51 804.29 649.22 794.28 654.92 824.3 672.24" fill="#D6D6D6"/><polygon points="854.33 631.93 874.26 643.43 874.31 643.4 854.33 631.87 844.3 626.08 834.36 631.84 844.5 637.68" fill="#D6D6D6"/><polygon points="844.23 649.19 844.26 649.2 854.32 643.4 854.32 654.94 864.32 649.17 854.28 643.37" fill="#D6D6D6"/><polygon points="834.31 654.94 844.23 649.19 854.28 643.37 844.46 637.71 844.5 637.68 834.36 631.84 824.3 626.03 804.28 637.63 834.3 654.94" fill="#D6D6D6"/><polygon points="874.33 654.94 884.27 649.2 874.33 643.47" fill="#D6D6D6"/><polygon points="854.33 631.93 844.5 637.68 844.46 637.71 854.28 643.37 864.32 649.17 874.27 643.43 874.26 643.43" fill="#D6D6D6"/><polygon points="884.33 637.66 864.34 626.07 874.33 620.31 864.32 614.54 854.33 620.3 884.33 637.7" fill="#D6D6D6"/><polygon points="894.34 643.4 894.34 643.4 894.34 643.39" fill="#D6D6D6"/><polygon points="884.33 637.66 884.33 637.62 884.34 637.62 874.34 631.85 884.4 626.12 874.33 620.31 874.33 620.31 864.34 626.07" fill="#D6D6D6"/><polygon points="914.35 643.4 904.34 637.62 904.34 649.17" fill="#D6D6D6"/><polygon points="894.34 643.4 904.34 637.62 894.34 631.85 894.34 643.39" fill="#D6D6D6"/><polygon points="874.34 631.85 884.34 637.62 894.34 631.85 904.41 626.12 894.47 620.39 884.4 626.12" fill="#D6D6D6"/><polygon points="904.41 626.12 894.34 631.85 904.34 637.62 904.34 637.62 904.34 637.62 914.35 643.4 924.35 637.62 924.35 649.17 944.36 637.62 914.48 620.39" fill="#D6D6D6"/><polygon points="924.35 637.62 914.35 643.4 904.34 649.17 904.34 637.62 904.34 637.62 904.34 637.62 894.34 643.4 894.34 643.4 894.34 643.39 894.34 631.85 884.34 637.62 884.33 637.62 884.33 637.66 884.33 637.7 884.33 649.17 884.27 649.2 874.33 654.94 874.33 643.47 874.33 643.4 874.27 643.43 864.32 649.17 854.32 654.94 854.32 643.4 844.26 649.2 834.31 654.94 834.31 666.48 834.26 666.51 827.54 670.39 824.31 672.26 824.31 683.8 820.26 686.13 804.3 695.34 804.3 695.43 804.3 706.89 804.29 706.89 804.21 706.94 804.17 706.96 784.29 718.43 784.29 706.89 774.28 712.66 754.29 724.19 754.28 724.2 754.28 735.74 754.28 735.74 754.19 735.8 724.26 753.06 724.26 753.06 724.26 753.16 724.26 764.6 744.18 753.11 754.19 747.34 754.28 747.29 754.28 758.83 794.2 735.8 804.21 730.02 804.3 729.97 804.3 741.52 854.32 712.66 854.32 701.11 874.37 689.55 884.33 683.8 884.33 695.3 884.33 695.34 914.35 678.03 914.35 666.48 944.36 649.17 944.36 637.62 924.35 649.17" fill="#fff"/><polygon points="779.75 978.19 759.74 989.73 777.54 1e3 801.97 1e3 809.76 995.5" fill="#D6D6D6"/><polygon points="829.77 972.42 822.47 968.2 799.76 955.1 779.75 966.64 809.76 983.96" fill="#D6D6D6"/><polygon points="839.78 955.1 809.76 937.78 799.76 943.56 829.76 960.86" fill="#D6D6D6"/><polygon points="829.77 972.42 829.77 972.42 822.47 968.2" fill="#D6D6D6"/><polygon points="829.77 960.87 839.78 955.1 829.76 960.86" fill="#D6D6D6"/><polygon points="839.78 978.19 849.78 972.42 849.78 983.93 869.79 972.42 839.78 955.1" fill="#D6D6D6"/><polygon points="889.8 949.33 859.78 932.01 839.78 943.56 869.79 960.87" fill="#D6D6D6"/><polygon points="909.81 926.24 879.79 908.93 859.78 920.47 889.8 937.78" fill="#D6D6D6"/><polygon points="919.81 908.93 889.8 891.61 879.79 897.38 909.81 914.7" fill="#D6D6D6"/><polygon points="929.81 891.61 899.8 874.3 889.8 880.07 919.81 897.38" fill="#D6D6D6"/><polygon points="949.82 868.52 919.81 851.21 899.8 862.75 929.81 880.07" fill="#D6D6D6"/><polygon points="979.84 839.67 949.82 822.35 919.81 839.67 949.82 856.98" fill="#D6D6D6"/><polygon points="1009.8 845.44 1009.8 845.44" fill="#D6D6D6"/><polygon points="989.84 822.35 959.83 805.04 949.82 810.81 979.84 828.12" fill="#D6D6D6"/><polygon points="999.84 828.12 989.84 822.35 989.84 833.89" fill="#D6D6D6"/><polygon points="1019.9 851.21 1029.9 845.44 1019.9 839.67" fill="#D6D6D6"/><polygon points="999.84 828.12 999.84 839.67 1009.8 833.89 1019.9 828.12 1009.8 822.35 999.84 828.12 989.84 833.89" fill="#D6D6D6"/><polygon points="1009.8 845.44 1009.8 845.44 1019.9 839.67 1009.8 833.89" fill="#D6D6D6"/><polygon points="1039.9 851.21 1049.9 845.44 1039.9 839.67" fill="#D6D6D6"/><polygon points="1009.8 833.89 1019.9 839.67 1019.9 839.67 1019.9 839.67 1029.9 845.44 1039.9 839.67 1029.9 833.89 1039.9 828.12 1029.9 822.35 1019.9 828.12" fill="#D6D6D6"/><polygon points="1029.9 833.89 1039.9 839.67 1039.9 839.67 1039.9 839.67 1049.9 845.44 1059.9 839.67 1059.9 851.21 1079.9 839.67 1059.9 828.12 1069.9 822.35 1059.9 816.58 1039.9 828.12" fill="#D6D6D6"/><polygon points="1079.9 839.67 1089.9 833.89 1089.9 845.44 1109.9 833.89 1079.9 816.58 1069.9 822.35 1059.9 828.12" fill="#D6D6D6"/><polygon points="759.74 1e3 777.54 1e3 759.74 989.73" fill="#A3A3A3"/><polygon points="809.76 983.96 779.75 966.64 779.75 978.19 809.76 995.5" fill="#A3A3A3"/><polygon points="829.77 972.42 829.77 960.87 829.76 960.86 799.76 943.56 799.76 955.1 822.47 968.2" fill="#A3A3A3"/><polygon points="869.79 960.87 839.78 943.56 839.78 955.1 869.79 972.42" fill="#A3A3A3"/><polygon points="889.8 937.78 859.78 920.47 859.78 932.01 889.8 949.33" fill="#A3A3A3"/><polygon points="909.81 914.7 879.79 897.38 879.79 908.93 909.81 926.24" fill="#A3A3A3"/><polygon points="919.81 897.38 889.8 880.07 889.8 891.61 919.81 908.93" fill="#A3A3A3"/><polygon points="929.81 880.07 899.8 862.75 899.8 874.3 929.81 891.61" fill="#A3A3A3"/><polygon points="949.82 856.98 919.81 839.67 919.81 851.21 949.82 868.52" fill="#A3A3A3"/><polygon points="979.84 828.12 949.82 810.81 949.82 822.35 979.84 839.67" fill="#A3A3A3"/><polygon points="1049.9 868.52 1059.9 874.3 1059.9 862.75" fill="#A3A3A3"/><polygon points="969.83 914.7 979.84 920.47 979.84 908.93" fill="#A3A3A3"/><polygon points="919.81 955.1 949.82 937.78 949.82 926.24 969.83 914.7 979.84 908.93 979.84 920.47 1029.9 891.61 1029.9 880.07 1049.9 868.52 1059.9 862.75 1059.9 874.3 1109.9 845.44 1109.9 833.89 1089.9 845.44 1089.9 833.89 1079.9 839.67 1059.9 851.21 1059.9 839.67 1049.9 845.44 1039.9 851.21 1039.9 839.67 1039.9 839.67 1039.9 839.67 1029.9 845.44 1019.9 851.21 1019.9 839.67 1019.9 839.67 1019.9 839.67 1009.8 845.44 1009.8 845.44 1009.8 845.44 1009.8 833.89 999.84 839.67 999.84 828.12 989.84 833.89 989.84 822.35 979.84 828.12 979.84 839.67 949.82 856.98 949.82 868.52 929.81 880.07 929.81 891.61 919.81 897.38 919.81 908.93 909.81 914.7 909.81 926.24 889.8 937.78 889.8 949.33 869.79 960.87 869.79 972.42 849.78 983.96 849.78 983.93 849.78 972.42 839.78 978.19 839.78 955.1 829.77 960.87 829.77 972.42 829.77 972.42 809.76 983.96 809.76 995.5 801.97 1e3 861.99 1e3 919.81 966.64" fill="#fff"/><polygon points="72.429 308.6 72.429 320.14 102.44 337.45 102.44 325.91" fill="#A3A3A3"/><polygon points="122.45 302.82 92.438 285.51 92.438 297.05 122.45 314.37" fill="#A3A3A3"/><polygon points="162.47 279.74 132.46 262.42 132.46 273.96 162.47 291.28" fill="#A3A3A3"/><polygon points="162.47 268.19 172.47 273.96 172.47 262.42 142.46 245.11 142.46 256.65" fill="#A3A3A3"/><polygon points="182.48 291.28 192.48 297.05 192.48 285.51" fill="#A3A3A3"/><rect transform="matrix(-.8662 -.4997 .4997 -.8662 177.07 589.57)" x="161.7" y="271.08" width="11.55" height="0" fill="#A3A3A3"/><polygon points="222.49 279.74 232.5 285.51 232.5 273.96" fill="#A3A3A3"/><polygon points="182.48 245.11 152.46 227.79 152.46 239.33 182.48 256.65" fill="#A3A3A3"/><polygon points="172.47 204.7 172.47 204.7" fill="#A3A3A3"/><polygon points="202.48 222.02 172.47 204.7 172.47 216.25 202.48 233.56" fill="#A3A3A3"/><polygon points="272.52 262.42 282.52 268.19 282.52 256.65" fill="#A3A3A3"/><polygon points="242.5 233.56 242.5 233.56 262.51 245.11 262.51 222.02 232.5 204.7 232.5 227.79" fill="#A3A3A3"/><polygon points="232.5 204.7 232.5 204.7" fill="#A3A3A3"/><polygon points="272.52 193.16 242.5 175.85 242.5 198.93 272.52 216.25" fill="#A3A3A3"/><polygon points="292.52 170.07 262.51 152.76 262.51 164.3 292.52 181.62" fill="#A3A3A3"/><polygon points="302.53 152.76 272.52 135.44 272.52 146.99 302.53 164.3" fill="#A3A3A3"/><polygon points="312.53 135.44 282.52 118.13 282.52 129.67 312.53 146.99" fill="#A3A3A3"/><polygon points="372.56 216.25 382.56 222.02 382.56 210.48" fill="#A3A3A3"/><polygon points="452.59 158.53 442.59 164.3 452.59 170.07" fill="#A3A3A3"/><polygon points="122.45 314.37 92.438 297.05 72.429 308.6 102.44 325.91" fill="#D6D6D6"/><polygon points="132.46 297.05 112.45 285.51 122.45 279.74 112.45 273.96 92.438 285.51 122.45 302.82" fill="#D6D6D6"/><polygon points="362.55 164.3 372.56 158.53 352.55 146.99 362.55 141.22 352.55 135.44 342.54 141.22 362.55 152.76" fill="#D6D6D6"/><polygon points="372.56 158.53 382.56 152.76 382.56 164.3 402.57 152.76 382.56 141.22 392.57 135.44 382.56 129.67 362.55 141.22 352.55 146.99" fill="#D6D6D6"/><polygon points="402.57 152.76 412.58 146.99 412.58 158.53 442.59 141.22 422.58 129.67 432.58 123.9 422.58 118.13 392.57 135.44 382.56 141.22" fill="#D6D6D6"/><polygon points="502.61 129.67 492.61 123.9 492.61 135.44" fill="#D6D6D6"/><polygon points="442.59 141.22 452.59 135.44 452.59 146.99 452.59 146.99 492.61 123.9 462.6 106.59 432.58 123.9 422.58 129.67" fill="#D6D6D6"/><polygon points="132.46 297.05 142.46 291.28 142.46 302.82 162.47 291.28 132.46 273.96 122.45 279.74 112.45 285.51" fill="#D6D6D6"/><polygon points="172.47 273.96 162.47 268.19 142.46 256.65 132.46 262.42 162.47 279.74" fill="#D6D6D6"/><polygon points="182.48 256.65 152.46 239.33 142.46 245.11 172.47 262.42" fill="#D6D6D6"/><polygon points="202.48 233.56 172.47 216.25 152.46 227.79 182.48 245.11" fill="#D6D6D6"/><polygon points="222.49 210.48 192.48 193.16 172.47 204.7 172.47 204.7 202.48 222.02" fill="#D6D6D6"/><polygon points="232.5 227.79 232.5 239.33 242.5 233.56 232.5 227.79 222.49 222.02 222.49 233.56" fill="#D6D6D6"/><polygon points="242.5 256.65 262.51 245.11 242.5 233.56" fill="#D6D6D6"/><polygon points="272.52 216.25 242.5 198.93 232.5 204.7 232.5 204.7 262.51 222.02" fill="#D6D6D6"/><polygon points="292.52 181.62 262.51 164.3 242.5 175.85 272.52 193.16" fill="#D6D6D6"/><polygon points="302.53 164.3 272.52 146.99 262.51 152.76 292.52 170.07" fill="#D6D6D6"/><polygon points="312.53 146.99 282.52 129.67 272.52 135.44 302.53 152.76" fill="#D6D6D6"/><polygon points="312.53 135.44 302.53 129.67 312.53 123.9 322.54 129.67 332.54 123.9 302.53 106.59 282.52 118.13" fill="#D6D6D6"/><polygon points="302.53 129.67 312.53 135.44 322.54 129.67 312.53 123.9" fill="#D6D6D6"/><polygon points="332.54 146.99 342.54 141.22 342.54 164.3 362.55 152.76 342.54 141.22 332.54 135.44" fill="#D6D6D6"/><polygon points="452.59 170.07 502.61 141.22 502.61 129.67 492.61 135.44 492.61 135.44 492.61 123.9 492.61 123.9 492.61 123.9 452.59 146.99 452.59 146.99 452.59 146.99 452.59 135.44 442.59 141.22 412.58 158.53 412.58 146.99 402.57 152.76 382.56 164.3 382.56 152.76 372.56 158.53 362.55 164.3 362.55 152.76 342.54 164.3 342.54 141.22 332.54 146.99 332.54 135.44 332.54 123.9 322.54 129.67 312.53 135.44 312.53 135.44 312.53 146.99 302.53 152.76 302.53 164.3 292.52 170.07 292.52 181.62 272.52 193.16 272.52 216.25 262.51 222.02 262.51 245.11 242.5 256.65 242.5 233.56 242.5 233.56 242.5 233.56 232.5 239.33 232.5 227.79 222.49 233.56 222.49 222.02 222.49 210.48 202.48 222.02 202.48 233.56 182.48 245.11 182.48 256.65 172.47 262.42 172.47 273.96 172.47 273.96 162.47 279.74 162.47 291.28 142.46 302.82 142.46 291.28 132.46 297.05 122.45 302.82 122.45 314.37 102.44 325.91 102.44 337.45 182.48 291.28 192.48 285.51 192.48 297.05 222.49 279.74 232.5 273.96 232.5 285.51 272.52 262.42 282.52 256.65 282.52 268.19 372.56 216.25 382.56 210.48 382.56 222.02 422.58 198.93 422.58 187.39 442.59 175.85 442.59 164.3 452.59 158.53" fill="#fff"/><polygon points="472.36 578.82 452.35 567.28 452.35 578.82 482.36 596.14 482.36 584.6" fill="#A3A3A3"/><polygon points="502.37 561.51 472.36 544.2 472.36 555.74 502.37 573.05" fill="#A3A3A3"/><polygon points="492.37 578.83 492.37 578.82 482.36 584.6 472.36 578.82 472.36 578.82 482.36 584.6 482.38 584.6 482.38 584.6" fill="#A3A3A3"/><polygon points="502.37 596.14 502.37 584.6 492.37 590.37" fill="#A3A3A3"/><polygon points="522.39 573.06 532.38 578.82 532.38 567.29 522.39 573.05" fill="#A3A3A3"/><polygon points="502.37 561.51 502.38 561.52 502.38 561.51 512.38 555.74 512.38 555.74" fill="#A3A3A3"/><polygon points="522.38 538.42 492.37 521.11 492.37 532.65 522.38 549.97" fill="#A3A3A3"/><polygon points="582.41 515.34 562.4 503.79 562.4 515.34 572.41 521.11 572.42 521.11 572.42 521.12 592.41 532.65 592.41 521.11" fill="#A3A3A3"/><polygon points="582.41 503.79 602.42 515.34 602.42 492.25 572.4 474.94 572.4 498.02" fill="#A3A3A3"/><polygon points="612.42 532.65 612.42 521.17 602.47 526.91" fill="#A3A3A3"/><polygon points="602.47 515.37 602.42 515.34 582.41 503.79 582.41 503.79 602.42 515.34 592.41 521.11 582.41 515.34 582.41 515.34 592.41 521.11 592.48 521.15 592.48 521.13" fill="#A3A3A3"/><polygon points="642.43 526.88 642.43 515.4 632.48 521.14" fill="#A3A3A3"/><polygon points="612.42 474.94 582.41 457.62 582.41 469.16 612.42 486.48" fill="#A3A3A3"/><polygon points="632.43 463.39 632.48 463.42 632.5 463.41 632.5 463.43 642.49 469.2 642.5 469.19 642.5 469.2 652.44 474.94 652.44 463.39 622.42 446.08 622.42 457.62" fill="#A3A3A3"/><polygon points="682.45 434.53 652.44 417.22 652.44 428.76 682.45 446.08" fill="#A3A3A3"/><polygon points="732.47 474.94 732.47 463.45 722.52 469.2" fill="#A3A3A3"/><polygon points="702.46 411.45 672.44 394.13 672.44 405.68 702.46 422.99" fill="#A3A3A3"/><polygon points="722.47 388.36 692.45 371.04 692.45 382.59 722.47 399.9" fill="#A3A3A3"/><polygon points="742.48 365.27 712.46 347.96 712.46 359.5 742.48 376.82" fill="#A3A3A3"/><polygon points="752.48 347.96 722.47 330.64 722.47 342.19 752.48 359.5" fill="#A3A3A3"/><polygon points="762.48 330.64 732.47 313.33 732.47 324.87 762.48 342.19" fill="#A3A3A3"/><polygon points="772.49 463.39 772.49 451.91 762.54 457.65" fill="#A3A3A3"/><polygon points="482.36 584.6 492.37 578.82 502.37 573.05 472.36 555.74 452.35 567.28 472.36 578.82" fill="#D6D6D6"/><polygon points="512.38 555.74 522.38 549.97 492.37 532.65 472.36 544.2 502.37 561.51" fill="#D6D6D6"/><polygon points="532.38 532.65 512.38 521.11 522.38 515.34 512.38 509.56 492.37 521.11 522.38 538.42" fill="#D6D6D6"/><polygon points="532.38 532.65 532.39 532.66 542.4 526.88 542.4 538.42 572.4 521.11 542.39 503.79 522.38 515.34 512.38 521.11" fill="#D6D6D6"/><polygon points="622.42 469.16 612.42 463.39 622.42 457.62 632.43 463.39 632.43 463.39 622.42 457.62 602.42 446.08 582.41 457.62 612.42 474.94" fill="#D6D6D6"/><polygon points="612.42 486.48 582.41 469.16 572.4 474.94 602.42 492.25" fill="#D6D6D6"/><polygon points="592.41 521.11 602.42 515.34 582.41 503.79 572.4 498.02 562.4 503.79 582.41 515.34" fill="#D6D6D6"/><polygon points="632.5 474.96 642.49 469.2 632.5 463.43" fill="#D6D6D6"/><polygon points="642.5 469.2 642.5 480.67 652.44 474.94" fill="#D6D6D6"/><polygon points="622.42 457.62 612.42 463.39 622.42 469.16 622.48 469.2 632.48 463.42 632.43 463.39" fill="#D6D6D6"/><polygon points="682.45 446.08 652.44 428.76 622.42 446.08 652.44 463.39" fill="#D6D6D6"/><polygon points="702.46 422.99 672.44 405.68 652.44 417.22 682.45 434.53" fill="#D6D6D6"/><polygon points="722.47 399.9 692.45 382.59 672.44 394.13 702.46 411.45" fill="#D6D6D6"/><polygon points="742.48 376.82 712.46 359.5 692.45 371.04 722.47 388.36" fill="#D6D6D6"/><polygon points="772.49 324.87 752.48 313.33 762.48 307.56 752.48 301.78 732.47 313.33 762.48 330.64" fill="#D6D6D6"/><polygon points="752.48 359.5 722.47 342.19 712.46 347.96 742.48 365.27" fill="#D6D6D6"/><polygon points="762.48 342.19 732.47 324.87 722.47 330.64 752.48 347.96" fill="#D6D6D6"/><polygon points="772.49 324.87 772.54 324.9 782.56 319.12 782.56 330.6 802.5 319.1 782.49 307.56 792.5 301.78 782.49 296.01 762.48 307.56 752.48 313.33" fill="#D6D6D6"/><polygon points="802.5 319.1 802.56 319.13 812.58 313.35 812.58 324.83 842.52 307.56 822.51 296.01 832.51 290.24 822.51 284.47 792.5 301.78 782.49 307.56" fill="#D6D6D6"/><polygon points="852.59 301.82 852.59 313.29 862.53 307.56" fill="#D6D6D6"/><polygon points="842.52 307.56 842.57 307.59 852.58 301.82 842.52 296.01 852.52 290.24 842.52 284.47 832.51 290.24 822.51 296.01" fill="#D6D6D6"/><polygon points="872.6 301.82 872.6 313.29 882.54 307.56" fill="#D6D6D6"/><polygon points="842.52 296.01 852.58 301.82 852.59 301.81 852.59 301.82 862.53 307.56 862.58 307.59 872.58 301.82 862.53 296.01 872.53 290.24 862.53 284.47 852.52 290.24" fill="#D6D6D6"/><polygon points="892.61 301.82 892.66 313.26 902.54 307.56" fill="#D6D6D6"/><polygon points="862.53 296.01 872.58 301.82 872.6 301.81 872.6 301.82 882.54 307.56 882.59 307.59 892.59 301.82 882.54 296.01 892.54 290.24 912.55 301.78 912.55 301.78 882.54 284.47 872.53 290.24" fill="#D6D6D6"/><polygon points="922.55 307.56 912.62 301.82 912.67 313.26" fill="#D6D6D6"/><polygon points="882.54 296.01 892.59 301.82 892.61 301.81 892.61 301.82 902.54 307.56 902.6 307.59 912.6 301.82 912.55 301.78 892.54 290.24" fill="#D6D6D6"/><polygon points="572.41 521.11 542.4 538.42 542.4 538.42 542.4 526.88 532.39 532.66 522.39 538.42 522.39 549.97 512.38 555.74 502.38 561.51 502.38 561.52 502.38 573.05 492.37 578.83 482.38 584.6 482.38 584.6 482.38 596.14 492.37 590.37 502.37 584.6 502.38 584.6 502.38 596.14 522.39 584.6 522.39 573.06 522.39 573.05 532.38 567.29 532.4 567.28 532.4 578.82 552.41 567.28 552.41 555.74 562.41 549.97 562.41 538.42 572.42 532.65 572.42 521.12 572.42 521.11" fill="#fff"/><polygon points="712.53 486.5 712.53 474.96 722.52 469.2 732.47 463.45 732.54 463.41 732.54 474.96 762.54 457.65 772.49 451.91 772.56 451.87 772.56 463.41 832.58 428.78 832.58 417.24 862.6 399.92 862.6 388.38 873.28 382.22 872.6 371.07 882.6 365.3 882.6 353.75 892.61 347.98 892.61 336.44 922.62 319.12 922.62 307.58 912.67 313.32 912.67 313.26 912.62 301.82 912.62 301.81 912.6 301.82 902.6 307.59 892.66 313.32 892.66 313.26 892.61 301.82 892.61 301.81 892.59 301.82 882.59 307.59 872.6 313.35 872.6 313.29 872.6 301.82 872.6 301.81 872.58 301.82 862.58 307.59 852.59 313.35 852.59 313.29 852.59 301.82 852.59 301.81 852.58 301.82 842.57 307.59 812.58 324.89 812.58 324.83 812.58 313.35 802.56 319.13 782.56 330.66 782.56 330.6 782.56 319.12 772.54 324.9 762.6 330.64 762.55 342.21 752.55 347.98 752.55 359.52 742.54 365.3 742.54 376.84 722.54 388.38 722.54 399.92 702.53 411.47 702.53 423.01 682.52 434.56 682.52 446.1 652.51 463.41 652.51 474.96 642.5 480.73 642.5 480.67 642.5 469.2 642.5 469.19 642.49 469.2 632.5 474.96 632.5 463.43 632.5 463.41 632.48 463.42 622.48 469.2 612.49 474.96 612.49 486.5 602.48 492.27 602.48 515.36 602.47 515.37 592.48 521.13 592.48 521.15 592.48 532.67 602.47 526.91 612.42 521.17 612.49 521.13 612.49 532.67 632.48 521.14 642.43 515.4 642.5 515.36 642.5 526.9" fill="#fff"/><polygon points="134.36 841.54 114.84 830.31 114.84 841.82 144.85 859.14 144.85 847.59" fill="#A3A3A3"/><rect transform="matrix(-.8662 -.4997 .4997 -.8662 -133.81 1619)" x="144.08" y="827.39" width="11.55" height="0" fill="#A3A3A3"/><polygon points="164.86 847.59 174.86 853.36 174.86 841.82" fill="#A3A3A3"/><polygon points="134.85 795.7 134.85 807.19 164.86 824.5 164.86 812.96" fill="#A3A3A3"/><polygon points="214.88 830.28 224.89 836.05 224.89 824.5" fill="#A3A3A3"/><polygon points="154.86 772.61 154.86 784.1 184.87 801.42 184.87 789.88" fill="#A3A3A3"/><polygon points="264.9 801.42 274.91 807.19 274.91 795.65" fill="#A3A3A3"/><polygon points="204.67 755.18 204.71 755.15 184.87 743.73 184.87 755.24 214.88 772.56 214.88 761.05" fill="#A3A3A3"/><polygon points="184.87 743.7 184.87 743.7" fill="#A3A3A3"/><polygon points="154.86 830.28 144.85 824.5 144.33 824.21 124.84 813 124.84 824.5 154.86 841.82" fill="#A3A3A3"/><polygon points="144.87 847.58 154.86 841.82 124.75 824.46 114.72 830.24 114.84 830.31 134.36 841.54" fill="#D6D6D6"/><polygon points="154.87 830.27 164.86 824.5 134.75 807.14 124.73 812.93 124.84 813 144.33 824.21" fill="#D6D6D6"/><polygon points="184.87 801.42 154.76 784.06 134.64 795.58 134.85 795.7 164.86 812.96" fill="#D6D6D6"/><polygon points="214.88 772.56 184.78 755.2 154.65 772.49 154.86 772.61 184.87 789.88" fill="#D6D6D6"/><polygon points="214.74 749.39 194.87 737.93 184.87 743.7 184.87 743.7 184.85 743.71 184.87 743.73 204.71 755.15" fill="#D6D6D6"/><polygon points="204.71 755.15 204.67 755.18 214.88 761.05 214.88 761.02 224.89 755.24 224.89 766.79 234.89 761.02 234.89 772.56 264.86 755.27 264.7 755.18 274.78 749.4 244.8 732.11 214.74 749.39" fill="#D6D6D6"/><polygon points="294.92 749.48 294.92 772.56 314.92 761.02 314.92 761.02 314.92 761.02" fill="#D6D6D6"/><polygon points="264.86 755.27 274.91 749.47 274.91 761.02 294.91 749.48 284.82 743.66 274.78 749.4 264.7 755.18" fill="#D6D6D6"/><polygon points="294.92 772.56 294.92 749.48 294.92 749.47 294.91 749.48 274.91 761.02 274.91 749.47 264.86 755.27 234.89 772.56 234.89 761.02 224.89 766.79 224.89 755.24 214.88 761.02 214.88 761.05 214.88 772.56 184.87 789.88 184.87 801.42 164.86 812.96 164.86 824.5 154.87 830.27 154.86 830.28 154.86 830.28 154.86 841.82 144.87 847.58 144.85 847.59 144.85 859.14 164.86 847.59 174.86 841.82 174.86 853.36 214.88 830.28 224.89 824.5 224.89 836.05 254.9 818.73 254.9 807.19 264.9 801.42 274.91 795.65 274.91 807.19 304.92 789.88 304.92 778.33 314.92 772.56 314.92 761.02 314.92 761.02" fill="#fff"/><polygon points="679.59 82.249 649.69 64.997 649.69 64.876 649.68 64.875 629.68 76.433 659.7 93.748" fill="#D6D6D6"/><polygon points="679.71 70.764 679.71 70.662 709.66 53.382 679.71 36.031 649.69 53.453 679.7 70.768" fill="#D6D6D6"/><polygon points="719.72 24.494 739.73 36.034 739.73 36.031 709.72 18.716 699.72 24.494 709.72 30.263" fill="#D6D6D6"/><polygon points="719.72 47.575 729.68 41.83 719.72 36.061" fill="#D6D6D6"/><polygon points="709.71 41.87 709.72 41.865 709.72 41.803 719.7 36.046 709.72 30.266 709.72 30.263 699.72 24.494 689.71 18.716 679.71 24.488" fill="#D6D6D6"/><polygon points="749.73 41.806 739.73 36.037 739.73 47.575" fill="#D6D6D6"/><polygon points="719.72 36.061 729.68 41.83 739.73 36.034 719.72 24.494 709.72 30.263 709.72 30.266 719.7 36.046 719.72 36.031" fill="#D6D6D6"/><polygon points="789.75 18.716 759.74 1.401 749.74 7.173 779.75 24.488" fill="#D6D6D6"/><polygon points="802.19 0 777.32 0 789.75 7.173" fill="#D6D6D6"/><polygon points="659.7 93.748 629.68 76.433 629.68 87.977 659.7 105.29" fill="#A3A3A3"/><polygon points="679.59 82.249 679.61 82.26 679.7 82.209 679.7 70.768 649.69 53.453 649.69 64.876 649.69 64.997" fill="#A3A3A3"/><polygon points="719.64 59.169 709.72 64.89 709.72 64.89 719.72 70.763 719.72 70.662 719.72 59.22" fill="#A3A3A3"/><polygon points="709.71 53.351 709.71 41.87 679.71 24.488 679.71 36.031 709.66 53.382" fill="#A3A3A3"/><polygon points="749.74 7.173 749.74 18.716 779.75 36.031 779.75 24.488" fill="#A3A3A3"/><polygon points="789.75 18.716 789.75 7.173 777.32 0 759.74 0 759.74 1.401" fill="#A3A3A3"/><polygon points="829.77 7.173 839.78 12.945 839.78 1.401" fill="#A3A3A3"/><polygon points="809.76 7.173 819.77 12.945 819.77 1.401" fill="#A3A3A3"/><polygon points="789.75 18.716 779.75 24.488 779.75 36.031 809.76 18.716 809.76 7.173 819.77 1.401 819.77 12.945 829.77 7.173 839.78 1.401 839.78 12.945 862.21 0 802.19 0 789.75 7.173" fill="#fff"/><polygon points="729.68 41.83 719.72 47.575 719.72 36.061 719.72 36.031 719.7 36.046 709.72 41.803 709.72 41.865 709.72 53.347 709.71 53.351 709.66 53.382 679.71 70.662 679.71 70.764 679.71 82.205 679.7 82.209 679.61 82.26 659.7 93.748 659.7 105.29 699.72 82.205 699.72 70.662 709.72 64.89 719.64 59.169 719.72 59.118 719.72 59.22 719.72 70.662 749.74 53.347 749.74 41.803 749.73 41.806 739.73 47.575 739.73 36.037 739.73 36.031 739.73 36.034" fill="#fff"/><polygon points="1229.7 826.18 1229.7 837.72 1259.7 855 1259.7 843.48" fill="#A3A3A3"/><polygon points="1249.7 814.63 1279.7 831.9 1279.7 820.4 1249.7 803.08" fill="#A3A3A3"/><polygon points="1299.7 797.32 1299.6 797.29 1299.6 797.31 1269.7 780.06 1269.8 791.55 1299.7 808.82" fill="#A3A3A3"/><polygon points="1319.7 774.24 1319.7 774.23 1289.8 756.95 1289.8 768.49 1319.7 785.72 1319.6 774.18" fill="#A3A3A3"/><polygon points="1339.7 751.1 1339.7 751.08 1339.6 751.13 1309.8 733.9 1309.8 745.36 1339.7 762.6 1339.7 751.1" fill="#A3A3A3"/><polygon points="1349.6 745.27 1349.6 733.81 1319.6 716.5 1319.7 728.04 1319.7 728.02" fill="#A3A3A3"/><polygon points="1319.6 716.49 1319.6 716.5 1319.6 716.5" fill="#A3A3A3"/><polygon points="1399.7 704.93 1399.7 704.91 1399.6 704.94 1369.7 687.68 1369.7 699.16 1399.7 716.47" fill="#A3A3A3"/><polygon points="1389.8 664.54 1389.8 664.54 1389.8 664.54" fill="#A3A3A3"/><polygon points="1419.8 681.83 1389.8 664.54 1389.8 676.08 1419.8 693.36 1419.8 681.84" fill="#A3A3A3"/><polygon points="1449.8 664.53 1459.8 670.3 1459.8 670.3 1459.8 658.82 1429.8 641.51 1429.8 652.99 1449.8 664.53" fill="#A3A3A3"/><polygon points="1429.8 641.45 1429.8 641.51 1429.8 641.48" fill="#A3A3A3"/><polygon points="1479.8 635.71 1449.8 618.4 1449.8 629.94 1479.7 647.23 1479.8 647.21" fill="#A3A3A3"/><polygon points="1489.8 618.33 1459.9 601.08 1459.9 612.6 1489.8 629.83 1489.8 618.36" fill="#A3A3A3"/><polygon points="1459.9 601.06 1459.9 601.08 1459.9 601.07" fill="#A3A3A3"/><polygon points="1519.8 601.03 1519.8 589.54 1489.8 572.22 1489.8 583.72 1489.8 583.73 1489.8 583.72" fill="#A3A3A3"/><polygon points="1489.8 572.18 1489.8 572.22 1489.8 572.2" fill="#A3A3A3"/><polygon points="1609.8 583.6 1609.8 572.17 1599.4 566.18 1579.8 554.89 1579.8 566.4 1579.9 566.46 1580 566.41" fill="#A3A3A3"/><polygon points="1579.8 554.86 1579.8 554.89 1579.8 554.88" fill="#A3A3A3"/><polygon points="1629.8 572.06 1629.8 560.68 1599.9 543.42 1599.9 554.85 1600 554.82" fill="#A3A3A3"/><polygon points="1619.9 508.82 1620 508.76 1619.8 508.69 1619.9 531.77 1649.9 549.07 1649.9 526.08" fill="#A3A3A3"/><polygon points="1639.9 508.69 1668 524.88 1668 501.94 1639.9 485.73" fill="#A3A3A3"/><polygon points="1349.6 803 1349.6 791.58 1339.7 797.29" fill="#A3A3A3"/><polygon points="1319.7 785.73 1319.7 774.24 1319.6 774.18 1319.7 785.72 1319.7 785.73 1319.7 785.74" fill="#A3A3A3"/><polygon points="1429.7 756.91 1429.7 745.4 1429.7 745.39 1419.7 751.14" fill="#A3A3A3"/><polygon points="1519.7 693.38 1519.7 681.89 1509.8 687.64" fill="#A3A3A3"/><polygon points="1569.8 652.99 1579.8 658.75 1579.8 647.24" fill="#A3A3A3"/><polygon points="1639.9 635.68 1639.9 635.67 1639.9 635.67" fill="#A3A3A3"/><polygon points="1629.9 629.9 1639.8 635.65 1639.8 624.15" fill="#A3A3A3"/><polygon points="1299.7 808.82 1269.8 791.55 1269.7 791.51 1249.7 803.05 1279.7 820.36" fill="#D6D6D6"/><polygon points="1259.7 843.45 1279.7 831.92 1249.7 814.63 1229.7 826.18 1259.7 843.48" fill="#D6D6D6"/><polygon points="1299.6 797.29 1319.6 785.76 1289.6 768.45 1269.6 779.99 1269.7 780.06 1299.6 797.31" fill="#D6D6D6"/><polygon points="1339.7 762.64 1309.8 745.36 1289.8 756.9 1319.7 774.19 1339.7 762.65" fill="#D6D6D6"/><polygon points="1349.6 733.81 1359.7 728 1339.8 716.5 1349.7 710.76 1339.6 704.95 1319.6 716.5 1319.6 716.5 1319.6 716.5 1319.6 716.5" fill="#D6D6D6"/><polygon points="1339.7 751.08 1349.7 745.33 1349.6 745.27 1319.7 728.02 1319.7 728.04 1309.6 733.82 1309.8 733.9 1339.6 751.13" fill="#D6D6D6"/><polygon points="1359.7 728 1359.7 728.01 1369.7 722.25 1369.7 733.78 1369.7 733.78 1399.7 716.47 1369.7 699.16 1349.7 710.76 1339.8 716.5" fill="#D6D6D6"/><polygon points="1399.7 704.91 1419.7 693.4 1389.6 676.09 1369.6 687.63 1369.7 687.68 1399.6 704.94" fill="#D6D6D6"/><polygon points="1429.7 676.1 1409.7 664.54 1429.7 653 1449.7 664.55 1449.8 664.53 1429.8 652.99 1419.8 647.21 1389.8 664.54 1389.8 664.54 1419.8 681.83" fill="#D6D6D6"/><polygon points="1449.8 664.58 1449.8 676.05 1459.7 670.31" fill="#D6D6D6"/><polygon points="1409.7 664.54 1429.7 676.1 1449.7 664.55 1429.7 653" fill="#D6D6D6"/><polygon points="1459.8 658.76 1479.7 647.24 1449.8 629.96 1429.8 641.48 1429.8 641.51 1459.8 658.82" fill="#D6D6D6"/><polygon points="1519.8 601.04 1519.8 601.03 1489.8 583.72 1489.8 583.73 1459.9 601.07 1459.9 601.08 1489.8 618.33" fill="#D6D6D6"/><polygon points="1519.8 589.52 1519.8 589.5 1529.8 583.7 1510 572.22 1529.9 560.7 1519.8 554.87 1489.8 572.2 1489.8 572.22 1519.8 589.54" fill="#D6D6D6"/><polygon points="1529.8 583.7 1539.7 577.99 1529.8 572.22 1539.9 566.39 1530 560.68 1529.9 560.7 1510 572.22" fill="#D6D6D6"/><polygon points="1529.8 572.22 1539.7 577.99 1539.8 577.96 1539.8 577.95 1559.7 566.44 1549.8 560.68 1539.9 566.39" fill="#D6D6D6"/><polygon points="1579.8 589.4 1579.8 589.48 1579.9 589.44" fill="#D6D6D6"/><polygon points="1539.8 577.95 1539.8 577.96 1549.8 572.18 1549.8 583.72 1559.8 577.95 1559.8 589.5 1569.9 583.68 1560 577.95 1569.9 572.23 1559.8 566.41 1559.7 566.44" fill="#D6D6D6"/><polygon points="1560 577.95 1569.9 583.68 1579.8 577.95 1579.8 589.4 1579.9 589.44 1579.9 589.45 1589.8 583.72 1589.8 595.17 1589.9 595.22 1609.8 583.72 1609.8 583.63 1609.8 583.6 1580 566.41 1579.9 566.46 1569.9 572.23" fill="#D6D6D6"/><polygon points="1649.9 549.09 1619.9 531.82 1599.9 543.36 1629.8 560.64 1649.9 549.1" fill="#D6D6D6"/><polygon points="1639.9 485.69 1668 501.9 1668 501.75 1660 497.13 1668 492.5 1668 478.81 1659.9 474.15" fill="#D6D6D6"/><polygon points="1609.8 572.18 1609.8 572.18 1609.9 572.12 1589.9 560.61 1599.8 554.89 1589.8 549.11 1579.8 554.88 1579.8 554.89 1599.4 566.18" fill="#D6D6D6"/><polygon points="1649.9 526.08 1649.9 526.01 1649.9 525.98 1629.9 514.46 1639.8 508.74 1629.9 503.04 1620 508.76 1619.9 508.82" fill="#D6D6D6"/><polygon points="1639.9 508.67 1639.8 508.74 1629.9 514.46 1649.9 525.98 1659.9 520.24 1659.9 531.71 1659.9 531.74 1668 527.08 1668 524.88 1639.9 508.69" fill="#D6D6D6"/><polygon points="1609.9 572.12 1619.8 566.41 1619.8 577.81 1620 577.88 1629.8 572.18 1629.8 572.06 1600 554.82 1599.9 554.85 1599.8 554.89 1589.9 560.61" fill="#D6D6D6"/><polygon points="1489.8 629.87 1459.8 612.58 1449.8 618.37 1479.8 635.65 1489.8 629.9" fill="#D6D6D6"/><polygon points="1668 501.75 1668 492.5 1660 497.13" fill="#D6D6D6"/><polygon points="1659.9 531.78 1659.9 531.71 1659.9 520.24 1649.9 525.98 1649.9 526.01 1649.9 526.08 1649.9 549.07 1649.9 549.09 1649.9 549.1 1629.8 560.64 1629.8 560.64 1629.8 560.68 1629.8 572.06 1629.8 572.18 1620 577.88 1619.8 577.95 1619.8 577.81 1619.8 566.41 1609.9 572.12 1609.8 572.18 1609.8 572.18 1609.8 583.63 1609.8 583.72 1589.9 595.22 1589.8 595.27 1589.8 595.17 1589.8 583.72 1579.9 589.45 1579.8 589.5 1579.8 589.48 1579.8 589.4 1579.8 577.95 1569.9 583.68 1559.8 589.5 1559.8 577.95 1549.8 583.72 1549.8 572.18 1539.8 577.96 1539.7 577.99 1529.8 583.7 1519.8 589.5 1519.8 589.52 1519.8 601.04 1489.8 618.33 1489.8 618.36 1489.8 629.83 1489.8 629.87 1489.8 629.9 1479.8 635.65 1479.8 635.67 1479.8 635.71 1479.8 647.21 1479.7 647.23 1479.7 647.24 1459.8 658.76 1459.8 658.82 1459.8 670.3 1459.8 670.3 1449.8 676.07 1449.8 676.05 1449.8 664.58 1449.8 664.53 1449.8 664.53 1449.7 664.55 1429.7 676.1 1419.8 681.83 1419.8 681.84 1419.8 693.36 1419.8 693.39 1399.7 704.93 1399.7 716.47 1369.7 733.78 1369.7 733.79 1369.7 733.78 1369.7 722.25 1359.7 728.01 1349.7 733.79 1349.7 745.33 1339.7 751.1 1339.7 751.1 1339.7 762.6 1339.7 762.64 1339.7 762.65 1319.7 774.19 1319.7 774.19 1319.7 774.23 1319.7 774.24 1319.7 785.73 1319.7 785.74 1299.7 797.28 1299.7 797.32 1299.7 808.82 1279.7 820.36 1279.7 820.4 1279.7 831.91 1279.7 831.92 1259.7 843.45 1259.7 843.48 1259.7 855 1319.7 820.39 1319.7 808.85 1339.7 797.29 1349.6 791.58 1349.7 791.53 1349.7 803.08 1379.7 785.76 1379.7 774.22 1419.7 751.14 1429.7 745.39 1429.7 745.36 1429.7 756.9 1459.8 739.59 1459.8 728.04 1469.8 722.27 1469.8 710.73 1509.8 687.64 1519.7 681.89 1519.8 681.87 1519.8 693.41 1569.8 664.55 1569.8 653.01 1569.8 652.99 1579.8 647.24 1579.8 658.75 1579.8 658.78 1629.9 629.9 1639.8 624.15 1639.8 635.65 1639.8 635.7 1639.9 635.67 1639.9 635.67 1668 619.45 1668 527.08 1659.9 531.74" fill="#fff"/><polygon points="1451.5 154.1 1421.5 136.79 1421.5 148.33 1451.5 165.65" fill="#A3A3A3"/><polygon points="1451.5 131.02 1471.5 142.56 1471.5 131.02 1441.5 113.7 1441.5 125.24" fill="#A3A3A3"/><polygon points="1471.5 154.1 1481.5 159.88 1481.5 148.33" fill="#A3A3A3"/><rect x="1461.5" y="125.24" width="0" height="23.1" fill="#A3A3A3"/><polygon points="1501.5 136.79 1511.5 142.56 1511.5 131.02" fill="#A3A3A3"/><polygon points="1501.5 102.16 1471.5 84.843 1471.5 96.386 1501.5 113.7" fill="#A3A3A3"/><polygon points="1111.4 304.17 1111.4 315.71 1141.4 333.02 1141.4 321.48" fill="#A3A3A3"/><polygon points="1151.4 304.17 1121.4 286.85 1121.4 298.4 1151.4 315.71" fill="#A3A3A3"/><polygon points="1151.4 292.62 1161.4 298.4 1161.4 286.85 1131.4 269.54 1131.4 281.08" fill="#A3A3A3"/><polygon points="1171.4 315.71 1181.4 321.48 1181.4 309.94" fill="#A3A3A3"/><rect transform="matrix(-.8662 -.4997 .4997 -.8662 2010.3 1129.3)" x="1150.6" y="295.51" width="11.55" height="0" fill="#A3A3A3"/><polygon points="1221.4 286.85 1231.4 292.62 1231.4 281.08" fill="#A3A3A3"/><polygon points="1181.4 263.76 1171.4 269.54 1181.4 275.31" fill="#A3A3A3"/><polygon points="1171.4 269.54 1171.4 257.99 1141.4 240.68 1141.4 252.22 1151.4 257.99 1151.4 257.99" fill="#A3A3A3"/><polygon points="1181.4 229.14 1151.4 211.82 1151.4 234.91 1181.4 252.22" fill="#A3A3A3"/><polygon points="1191.4 211.82 1161.4 194.5 1161.4 206.05 1191.4 223.36" fill="#A3A3A3"/><polygon points="1211.4 188.73 1181.4 171.42 1181.4 182.96 1211.4 200.28" fill="#A3A3A3"/><polygon points="1231.4 165.65 1201.4 148.33 1201.4 159.88 1231.4 177.19" fill="#A3A3A3"/><polygon points="1341.4 240.68 1351.5 246.45 1351.5 234.91" fill="#A3A3A3"/><polygon points="1271.4 269.54 1281.4 275.31 1281.4 263.76" fill="#A3A3A3"/><polygon points="1151.4 315.71 1121.4 298.4 1111.4 304.17 1141.4 321.48" fill="#D6D6D6"/><polygon points="1161.4 298.4 1151.4 292.62 1131.4 281.08 1121.4 286.85 1151.4 304.17" fill="#D6D6D6"/><polygon points="1181.4 275.31 1171.4 269.54 1171.4 269.54 1171.4 269.54 1151.4 257.99 1151.4 257.99 1131.4 269.54 1161.4 286.85" fill="#D6D6D6"/><polygon points="1181.4 252.22 1151.4 234.91 1141.4 240.68 1171.4 257.99" fill="#D6D6D6"/><polygon points="1191.4 223.36 1161.4 206.05 1151.4 211.82 1181.4 229.14" fill="#D6D6D6"/><polygon points="1211.4 200.28 1181.4 182.96 1161.4 194.5 1191.4 211.82" fill="#D6D6D6"/><polygon points="1231.4 177.19 1201.4 159.88 1181.4 171.42 1211.4 188.73" fill="#D6D6D6"/><polygon points="1241.4 159.88 1221.4 148.33 1231.4 142.56 1221.4 136.79 1201.4 148.33 1231.4 165.65" fill="#D6D6D6"/><polygon points="1241.4 159.88 1251.4 154.1 1251.4 165.65 1261.4 159.88 1241.4 148.33 1251.4 142.56 1241.4 136.79 1231.4 142.56 1221.4 148.33" fill="#D6D6D6"/><polygon points="1261.4 159.88 1271.4 154.1 1271.4 165.65 1281.4 159.88 1261.4 148.33 1271.4 142.56 1261.4 136.79 1251.4 142.56 1241.4 148.33" fill="#D6D6D6"/><polygon points="1331.4 154.1 1321.4 148.33 1321.5 159.86" fill="#D6D6D6"/><polygon points="1331.4 177.19 1341.5 171.41 1331.4 165.63" fill="#D6D6D6"/><polygon points="1281.4 159.88 1291.4 154.1 1291.4 165.65 1321.4 148.33 1291.4 131.02 1271.4 142.56 1261.4 148.33" fill="#D6D6D6"/><polygon points="1381.5 171.42 1381.5 171.42" fill="#D6D6D6"/><polygon points="1331.4 154.1 1331.4 165.63 1341.5 171.41 1351.5 165.65 1351.5 177.18 1351.5 177.19 1371.5 165.65 1361.5 159.88 1371.5 154.1 1351.5 142.56 1331.4 154.1 1321.5 159.86" fill="#D6D6D6"/><polygon points="1391.5 177.19 1401.5 171.42 1391.5 165.65" fill="#D6D6D6"/><polygon points="1381.5 159.88 1381.5 171.42 1381.5 171.42 1381.5 171.42 1391.5 165.65" fill="#D6D6D6"/><polygon points="1371.5 165.65 1381.5 159.88 1391.5 154.1 1381.5 148.33 1371.5 154.1 1361.5 159.88" fill="#D6D6D6"/><polygon points="1381.5 159.88 1391.5 165.65 1391.5 165.65 1391.5 165.65 1401.5 171.42 1411.5 165.65 1411.5 177.19 1431.5 165.65 1401.5 148.33 1391.5 154.1" fill="#D6D6D6"/><polygon points="1471.5 142.56 1451.5 131.02 1441.5 125.24 1421.5 136.79 1451.5 154.1" fill="#D6D6D6"/><polygon points="1531.5 107.93 1521.5 102.16 1521.5 113.7" fill="#D6D6D6"/><polygon points="1501.5 102.16 1511.5 96.386 1511.5 96.386 1521.5 90.614 1491.5 73.299 1471.5 84.843" fill="#D6D6D6"/><polygon points="1501.5 113.7 1471.5 96.386 1441.5 113.7 1471.5 131.02" fill="#D6D6D6"/><polygon points="1511.5 96.386 1521.5 90.614 1521.5 102.16 1531.5 107.93 1541.5 102.16 1541.5 113.7 1561.5 102.16 1531.5 84.843 1521.5 90.614" fill="#D6D6D6"/><polygon points="1231.4 281.08 1231.4 292.62 1271.4 269.54 1281.4 263.76 1281.4 275.31 1341.4 240.68 1351.5 234.91 1351.5 246.45 1391.5 223.36 1391.5 211.82 1421.5 194.5 1421.5 182.96 1431.5 177.19 1431.5 165.65 1411.5 177.19 1411.5 165.65 1401.5 171.42 1391.5 177.19 1391.5 165.65 1391.5 165.65 1391.5 165.65 1381.5 171.42 1381.5 171.42 1381.5 171.42 1381.5 171.42 1381.5 159.88 1371.5 165.65 1351.5 177.19 1351.5 177.19 1351.5 177.18 1351.5 165.65 1341.5 171.41 1331.4 177.19 1331.4 165.63 1331.4 154.1 1321.5 159.86 1321.4 148.33 1291.4 165.65 1291.4 154.1 1281.4 159.88 1271.4 165.65 1271.4 154.1 1261.4 159.88 1251.4 165.65 1251.4 154.1 1241.4 159.88 1231.4 165.65 1231.4 177.19 1211.4 188.73 1211.4 200.28 1191.4 211.82 1191.4 223.36 1181.4 229.14 1181.4 252.22 1171.4 257.99 1171.4 257.99 1171.4 269.54 1171.4 269.54 1171.4 269.54 1181.4 263.76 1181.4 275.31 1161.4 286.85 1161.4 298.4 1161.4 298.4 1151.4 304.17 1151.4 315.71 1141.4 321.48 1141.4 333.02 1171.4 315.71 1181.4 309.94 1181.4 321.48 1211.4 304.17 1211.4 292.62 1221.4 286.85" fill="#fff"/><polygon points="1541.5 102.16 1531.5 107.93 1521.5 113.7 1521.5 102.16 1521.5 90.614 1511.5 96.386 1501.5 102.16 1501.5 102.16 1501.5 113.7 1471.5 131.02 1471.5 142.56 1471.5 142.56 1451.5 154.1 1451.5 165.65 1471.5 154.1 1481.5 148.33 1481.5 159.88 1491.5 154.1 1491.5 142.56 1501.5 136.79 1511.5 131.02 1511.5 142.56 1561.5 113.7 1561.5 102.16 1541.5 113.7" fill="#fff"/></svg>