<?xml version="1.0" encoding="UTF-8" standalone="no"?>
<!DOCTYPE svg PUBLIC "-//W3C//DTD SVG 1.1//EN" "http://www.w3.org/Graphics/SVG/1.1/DTD/svg11.dtd">
<!-- Created with Vectornator (http://vectornator.io/) -->
<svg height="100%" stroke-miterlimit="10" style="fill-rule:nonzero;clip-rule:evenodd;stroke-linecap:round;stroke-linejoin:round;" version="1.1" viewBox="0 0 1024 1024" width="100%" xml:space="preserve" xmlns="http://www.w3.org/2000/svg" xmlns:xlink="http://www.w3.org/1999/xlink">
<defs>
<linearGradient gradientTransform="matrix(0.446181 886.661 -886.661 0.446181 512.121 69.0755)" gradientUnits="userSpaceOnUse" id="LinearGradient" x1="0" x2="1" y1="0" y2="0">
<stop offset="0" stop-color="#ff8520"/>
<stop offset="0.491667" stop-color="#ff9c1e"/>
<stop offset="1" stop-color="#ffac00"/>
</linearGradient>
<linearGradient gradientTransform="matrix(1.60943e-11 608.372 -608.372 1.60607e-11 517.124 205.497)" gradientUnits="userSpaceOnUse" id="LinearGradient_2" x1="0" x2="1" y1="0" y2="0">
<stop offset="0" stop-color="#bf0d71"/>
<stop offset="1" stop-color="#f44125"/>
</linearGradient>
<linearGradient gradientTransform="matrix(-0.818397 604.796 -604.796 -0.818397 519.727 203.966)" gradientUnits="userSpaceOnUse" id="LinearGradient_3" x1="0" x2="1" y1="0" y2="0">
<stop offset="0" stop-color="#a3045e"/>
<stop offset="1" stop-color="#c21414"/>
</linearGradient>
<path d="M350.406 181.969C334.411 181.969 314.967 193.21 306.969 207.062L145.406 486.906C137.408 500.759 137.408 523.241 145.406 537.094L306.969 816.938C314.967 830.79 334.41 842.031 350.406 842.031L356.656 842.031C365.493 842.031 372.656 834.868 372.656 826.031L372.656 614.219C372.656 607.591 378.029 602.219 384.656 602.219L827.969 602.219C835.118 602.219 843.793 597.238 847.438 591.062L878.594 537.094C886.592 523.241 886.592 500.759 878.594 486.906L873.813 478.656C870.308 472.587 861.79 467.656 854.781 467.656L384.656 467.656C378.029 467.656 372.656 462.284 372.656 455.656L372.656 327.031C372.656 320.404 378.029 315.031 384.656 315.031L757.875 315.031C769.738 315.031 774.561 306.707 768.656 296.438L717.031 207.062C709.033 193.21 689.589 181.969 673.594 181.969L350.406 181.969Z" id="Fill"/>
<linearGradient gradientTransform="matrix(-7.48863 883.642 -883.642 -7.48863 514.684 74.5598)" gradientUnits="userSpaceOnUse" id="LinearGradient_4" x1="0" x2="1" y1="0" y2="0">
<stop offset="0" stop-color="#ff8520"/>
<stop offset="0.491667" stop-color="#ff9c1e"/>
<stop offset="1" stop-color="#ffac00"/>
</linearGradient>
<filter color-interpolation-filters="sRGB" filterUnits="userSpaceOnUse" height="646.005" id="Filter" width="733.411" x="145.295" y="188.997">
<feGaussianBlur in="SourceGraphic" result="Blur" stdDeviation="6"/>
</filter>
<linearGradient gradientTransform="matrix(1.60451e-11 608.372 -608.372 1.58902e-11 517.124 205.497)" gradientUnits="userSpaceOnUse" id="LinearGradient_5" x1="0" x2="1" y1="0" y2="0">
<stop offset="0" stop-color="#bf0d71"/>
<stop offset="1" stop-color="#f44125"/>
</linearGradient>
<linearGradient gradientTransform="matrix(-0.818397 604.796 -604.796 -0.818397 519.727 203.966)" gradientUnits="userSpaceOnUse" id="LinearGradient_6" x1="0" x2="1" y1="0" y2="0">
<stop offset="0" stop-color="#a3045e"/>
<stop offset="1" stop-color="#c21414"/>
</linearGradient>
<linearGradient gradientTransform="matrix(-7.63833e-14 657.55 -657.55 -1.13687e-13 518.397 179.696)" gradientUnits="userSpaceOnUse" id="LinearGradient_7" x1="0" x2="1" y1="0" y2="0">
<stop offset="0" stop-color="#ffffff" stop-opacity="0.9"/>
<stop offset="1" stop-color="#ffffff" stop-opacity="0.6"/>
</linearGradient>
<filter color-interpolation-filters="sRGB" filterUnits="userSpaceOnUse" height="451.817" id="Filter_2" width="992.163" x="-0.49994" y="200.402">
<feDropShadow dx="-4.37114e-07" dy="10" flood-color="#280b00" flood-opacity="0.498993" in="SourceGraphic" result="Shadow" stdDeviation="15"/>
</filter>
</defs>
<clipPath id="ArtboardFrame">
<rect height="1024" width="1024" x="0" y="0"/>
</clipPath>
<g clip-path="url(#ArtboardFrame)" id="レイヤー-1">
<path d="M330.888 68.0084L693.112 68.0084C734.659 68.0084 785.179 97.1761 805.952 133.156L987.064 446.852C1007.84 482.832 1007.84 541.168 987.064 577.148L805.952 890.844C785.179 926.824 734.659 955.992 693.112 955.992L330.888 955.992C289.341 955.992 238.821 926.824 218.048 890.844L36.9358 577.148C16.1626 541.168 16.1626 482.832 36.9358 446.852L218.048 133.156C238.821 97.176 289.341 68.0084 330.888 68.0084Z" fill="url(#LinearGradient)" fill-rule="nonzero" opacity="1" stroke="none"/>
<path d="M384.656 315.031C378.029 315.031 372.656 320.404 372.656 327.031L372.656 455.656C372.656 462.284 378.029 467.656 384.656 467.656L842.062 467.656L753.938 315.031L384.656 315.031ZM384.656 602.219C378.029 602.219 372.656 607.591 372.656 614.219L372.656 820L676.312 820C683.776 820 692.862 814.777 696.594 808.312L815.594 602.219L384.656 602.219Z" fill="url(#LinearGradient_2)" fill-rule="nonzero" opacity="1" stroke="none"/>
<path d="M735.469 315.031L823.563 467.656L842.062 467.656L753.938 315.031L735.469 315.031ZM797.094 602.219L682.719 800.312C682.404 800.858 681.32 801.866 679.844 802.719C678.367 803.571 676.943 804 676.312 804L372.656 804L372.656 820L676.312 820C683.776 820 692.862 814.776 696.594 808.312L815.594 602.219L797.094 602.219Z" fill="url(#LinearGradient_3)" fill-rule="nonzero" opacity="1" stroke="none"/>
<g opacity="1">
<use fill="url(#LinearGradient_4)" fill-rule="nonzero" opacity="1" stroke="none" xlink:href="#Fill"/>
<clipPath clip-rule="nonzero" id="ClipPath">
<use xlink:href="#Fill"/>
</clipPath>
<g clip-path="url(#ClipPath)">
<g filter="url(#Filter)" opacity="1">
<path d="M696.583 215.701L860.894 500.296C864.625 506.76 864.626 517.24 860.894 523.704L696.583 808.299C692.851 814.763 683.775 820.003 676.311 820.003L347.689 820.003C340.225 820.003 331.149 814.763 327.417 808.299L163.106 523.704C159.375 517.24 159.374 506.76 163.106 500.296L327.417 215.701C331.149 209.237 340.225 203.997 347.689 203.997L676.311 203.997C683.775 203.997 692.851 209.237 696.583 215.701Z" fill="url(#LinearGradient_5)" fill-rule="nonzero" opacity="1" stroke="none"/>
<path d="M347.687 204C340.224 204 331.138 209.223 327.406 215.688L163.094 500.281C159.362 506.745 159.362 517.255 163.094 523.719L327.406 808.312C331.138 814.776 340.224 820 347.687 820L676.312 820C683.776 820 692.862 814.777 696.594 808.312L860.906 523.719C864.638 517.255 864.638 506.745 860.906 500.281L696.594 215.688C692.862 209.224 683.776 204 676.312 204L347.687 204ZM347.687 220L676.312 220C676.943 220 678.367 220.429 679.844 221.281C681.32 222.134 682.404 223.142 682.719 223.688L847.031 508.281C847.346 508.827 847.688 510.295 847.688 512C847.688 513.705 847.347 515.173 847.031 515.719L682.719 800.312C682.404 800.858 681.32 801.866 679.844 802.719C678.367 803.571 676.943 804 676.312 804L347.687 804C347.057 804 345.633 803.571 344.156 802.719C342.68 801.866 341.596 800.858 341.281 800.312L176.969 515.719C176.654 515.173 176.312 513.705 176.312 512C176.312 510.295 176.654 508.827 176.969 508.281L341.281 223.688C341.596 223.142 342.68 222.134 344.156 221.281C345.633 220.429 347.057 220 347.687 220Z" fill="url(#LinearGradient_6)" fill-rule="nonzero" opacity="1" stroke="none"/>
</g>
</g>
</g>
<path d="M350.406 181.969C334.411 181.969 314.967 193.21 306.969 207.062L145.406 486.906C137.408 500.759 137.408 523.241 145.406 537.094L306.969 816.938C314.967 830.79 334.41 842.031 350.406 842.031L356.656 842.031C365.493 842.031 372.656 834.868 372.656 826.031L372.656 614.219C372.656 607.591 378.029 602.219 384.656 602.219L827.969 602.219C835.118 602.219 843.793 597.238 847.438 591.062L878.594 537.094C886.592 523.241 886.592 500.759 878.594 486.906L873.813 478.656C870.308 472.587 861.79 467.656 854.781 467.656L384.656 467.656C378.029 467.656 372.656 462.284 372.656 455.656L372.656 327.031C372.656 320.404 378.029 315.031 384.656 315.031L757.875 315.031C769.738 315.031 774.561 306.707 768.656 296.438L717.031 207.062C709.033 193.21 689.589 181.969 673.594 181.969L350.406 181.969Z" fill="url(#LinearGradient_7)" fill-rule="nonzero" opacity="1" stroke="none"/>
<path d="M350.406 181.969C334.411 181.969 314.967 193.21 306.969 207.062L145.406 486.906C137.408 500.759 137.408 523.241 145.406 537.094L306.969 816.938C314.967 830.79 334.411 842.031 350.406 842.031L356.656 842.031C365.493 842.031 372.656 834.868 372.656 826.031L372.656 614.219C372.656 607.591 378.029 602.219 384.656 602.219L827.969 602.219C835.118 602.219 843.793 597.238 847.438 591.062L878.594 537.094C886.592 523.241 886.592 500.759 878.594 486.906L873.812 478.656C870.308 472.587 861.79 467.656 854.781 467.656L384.656 467.656C378.029 467.656 372.656 462.284 372.656 455.656L372.656 327.031C372.656 320.404 378.029 315.031 384.656 315.031L757.875 315.031C769.738 315.031 774.561 306.707 768.656 296.438L717.031 207.062C709.033 193.21 689.589 181.969 673.594 181.969L350.406 181.969ZM350.406 193.969C351.037 193.969 672.963 193.969 673.594 193.969C685.295 193.969 700.768 202.917 706.625 213.062L758.25 302.438C758.384 302.671 758.367 302.731 758.469 302.938C758.217 302.954 758.176 303.031 757.875 303.031L384.656 303.031C371.401 303.031 360.656 313.776 360.656 327.031L360.656 455.656C360.656 468.911 371.401 479.656 384.656 479.656L854.781 479.656C857.496 479.656 862.042 482.293 863.406 484.656L868.219 492.938C874.063 503.06 874.042 520.954 868.188 531.094L837.094 584.969L837.031 585.062C835.483 587.569 830.825 590.219 827.969 590.219L384.656 590.219C371.401 590.219 360.656 600.964 360.656 614.219L360.656 826.031C360.656 828.24 358.866 830.031 356.656 830.031L350.406 830.031C338.704 830.031 323.233 821.083 317.375 810.938L155.812 531.094C149.958 520.954 149.958 503.046 155.812 492.906L317.375 213.062C323.232 202.917 338.704 193.969 350.406 193.969Z" fill="#ffffff" fill-rule="nonzero" opacity="1" stroke="none"/>
<g filter="url(#Filter_2)">
<path d="M899.875 227.938C896.887 227.818 893.848 227.999 890.781 228.5L74.7188 362C50.213 366.024 33.5957 389.146 37.5938 413.656L48.75 481.688C52.2431 502.958 70.1259 518.252 90.8125 519.312C97.2488 535.722 112.832 546.914 130.438 547.781C136.887 564.14 152.403 575.308 169.969 576.188C177.559 595.48 197.77 607.603 219.062 604.125L423.125 570.719C444.424 567.226 459.717 549.309 460.75 528.594C477.111 522.145 488.278 506.631 489.156 489.062C498.687 485.324 506.3 478.42 511.312 469.906C518.78 476.389 528.202 480.495 538.438 481C544.885 497.383 560.412 508.569 578 509.438C585.59 528.73 605.801 540.853 627.094 537.375L831.125 503.969C852.413 500.477 867.703 482.577 868.75 461.875C885.116 455.436 896.265 439.909 897.156 422.344C913.576 415.921 924.743 400.355 925.625 382.75C944.943 375.161 957.062 354.937 953.562 333.625C953.562 333.625 942.611 266.719 942.438 265.656C938.936 244.191 920.792 228.774 899.875 227.938Z" fill="#ffffff" fill-rule="nonzero" opacity="1" stroke="none"/>
<path d="M898.031 272.906L864.031 278.469L830.031 284.031L796.031 289.594L762.031 295.156L728.031 300.719L694 306.281L660.031 311.844L626 317.406L592.031 322.969L558 328.531L524.031 334.094L490 339.656L456 345.219L422 350.781L388 356.344L354 361.906L320 367.469L286 373.031L252 378.594L218 384.156L184 389.719L149.969 395.281L116 400.844L82 406.406L87.5625 440.406L93.125 474.406L127.125 468.844L132.688 502.844L166.688 497.281L172.219 531.281L206.25 525.719L211.812 559.688L245.781 554.156L279.812 548.562L313.812 543.031L347.812 537.438L381.812 531.906L415.812 526.312L410.25 492.344L444.25 486.781L438.688 452.781L472.719 447.219L467.125 413.219L461.594 379.219L495.562 373.656L529.594 368.094L535.156 402.094L540.719 436.094L574.688 430.531L580.25 464.531L614.281 458.969L619.844 492.969L653.812 487.406L687.844 481.844L721.812 476.281L755.844 470.719L789.812 465.156L823.844 459.594L818.281 425.594L852.281 420.031L846.719 386.031L880.719 380.469L875.156 346.469L909.156 340.906L903.594 306.906L898.031 272.906ZM665.594 345.844L671.156 379.844L705.125 374.281L710.719 408.281L744.719 402.719L750.281 436.719L716.25 442.281L710.719 408.281L676.719 413.844L682.281 447.844L648.25 453.406L642.688 419.406L608.719 424.969L603.156 390.969L569.125 396.531L563.562 362.531L597.594 356.969L603.156 390.969L637.125 385.406L631.562 351.406L665.594 345.844ZM637.125 385.406L642.688 419.406L676.719 413.844L671.156 379.844L637.125 385.406ZM257.562 412.594L263.125 446.594L297.125 441.031L302.688 475.031L336.688 469.469L342.25 503.469L308.25 509.031L302.688 475.031L268.688 480.594L274.25 514.594L240.25 520.156L234.688 486.156L200.688 491.719L195.125 457.719L161.094 463.281L155.562 429.281L189.562 423.719L195.125 457.719L229.125 452.156L223.562 418.156L257.562 412.594ZM229.125 452.156L234.688 486.156L268.688 480.594L263.125 446.594L229.125 452.156Z" fill="#000000" fill-rule="nonzero" opacity="1" stroke="#ffffff" stroke-linecap="butt" stroke-linejoin="round" stroke-width="0.1"/>
</g>
</g>
</svg>
