/* XPM */
static char *task_small_browser_armed[] = {
/* columns rows colors chars-per-pixel */
"25 12 10 1",
"   c #222222",
".  c #333366",
"X  c #6666cc",
"o  c Magenta",
"O  c #808000",
"+  c Yellow",
"@  c #808080",
"#  c #9999ff",
"$  c #c0c0c0",
"%  c None",
/* pixels */
"%%%%%+.%%%+.@%%+X@%%%%%%%",
"%%%%%%+.++#$#O+X %%%%%%%%",
"%%%%%%%+$.#.O#X @%%%%%%%%",
"%%%%%@+$X.$.XO$@%%%%%%%%%",
"%%%%%%+#.XOX@.O @@%%%%%%%",
"%%@++$$$$$#$+#$#$O %%%%%%",
"%%%@..O#.XOX..O.  %%%%%%%",
"%%%%%%%+X.+.X@O.%%%%%%%%%",
"%%%%%%@#$.$.$O..%%%%%%%%%",
"%%%%%@+$O$$$O.O %%%%%%%%%",
"%%%%%+$.@.+ . XO %%%%%%%%",
"%%%%%%.@%%O.X@%%.%%%%%%%%"
};

/* -*- Mode: xpm; tab-width: 4; indent-tabs-mode: nil; c-basic-offset: 2 -*-
 *
 * The contents of this file are subject to the Netscape Public
 * License Version 1.1 (the "License"); you may not use this file
 * except in compliance with the License. You may obtain a copy of
 * the License at http://www.mozilla.org/NPL/
 *
 * Software distributed under the License is distributed on an "AS
 * IS" basis, WITHOUT WARRANTY OF ANY KIND, either express or
 * implied. See the License for the specific language governing
 * rights and limitations under the License.
 *
 * The Original Code is mozilla.org code.
 *
 * The Initial Developer of the Original Code is Netscape
 * Communications Corporation.  Portions created by Netscape are
 * Copyright (C) 1998 Netscape Communications Corporation. All
 * Rights Reserved.
 *
 * Contributor(s): 
 */
/*-----------------------------------------*/
