/* XPM */
static char *task_small_editor[] = {
/* columns rows colors chars-per-pixel */
"25 12 11 1",
"   c Black",
".  c #333366",
"X  c #008080",
"o  c #800000",
"O  c Magenta",
"+  c #808000",
"@  c Yellow",
"#  c #808080",
"$  c #c0c0c0",
"%  c Gray100",
"&  c None",
/* pixels */
"&&&&&&&&&&&&&&& &##&&&&&&",
"&&&&&&&&&&%&&& &#X &&&&&&",
"&&&&&&&%%%$%& &#X  &&&&&&",
"&&&&&%%$%$%$@$#X  #&&&&&&",
"&&&.$%$@$@$@$#$  #&&&&&&&",
"&&&#.$@$@$@$#X  #$@&&&&&&",
"&&&&#.$@$@$#X  @$@$@&&&&&",
"&&&&&#.$$$#X  @$@$@$@ &&&",
"&&&&&&#.$#   @$@$@$  %&&&",
"&&&&&&&#+@  @$@$@  &&&&&&",
"&&&&&&&+%++#$@$  %&&&&&&&",
"&&&&&&&o+o&..  &&&&&&&&&&"
};

/* -*- Mode: xpm; tab-width: 4; indent-tabs-mode: nil; c-basic-offset: 2 -*-
 *
 * The contents of this file are subject to the Netscape Public License
 * Version 1.0 (the "NPL"); you may not use this file except in
 * compliance with the NPL.  You may obtain a copy of the NPL at
 * http://www.mozilla.org/NPL/
 *
 * Software distributed under the NPL is distributed on an "AS IS" basis,
 * WITHOUT WARRANTY OF ANY KIND, either express or implied. See the NPL
 * for the specific language governing rights and limitations under the
 * NPL.
 *
 * The Initial Developer of this code under the NPL is Netscape
 * Communications Corporation.  Portions created by Netscape are
 * Copyright (C) 1998 Netscape Communications Corporation.  All Rights
 * Reserved.
 */
/*-----------------------------------------*/
