/* XPM */
static char *task_news[] = {
/* columns rows colors chars-per-pixel */
"32 22 11 1",
"   c Black",
".  c #00373c",
"X  c #333366",
"o  c #6666cc",
"O  c Magenta",
"+  c Yellow",
"@  c #808080",
"#  c #9999ff",
"$  c #c0c0c0",
"%  c Gray100",
"&  c None",
/* pixels */
"&&&&&&&&&&&&&&&&&&&&&&&&&&&&&&&&",
"&&&&&&&&&&&&&&&&&&ooooooooXX&&&&",
"&&&&&&&&&&&&&&&&&o$$$$$$$$$#oX&&",
"&&&&&&&&&&&&&&&&o$$+%%%%%%%%#X&&",
"&&&&&&&&&&&&&&&&o$+%%...%.%%#o &",
"&&&&&&&&&&&&&&&&o$%%%%%%%%%%#o &",
"&&&&&&&&&&&&&X&&o$+..%...%.%#o &",
"&&&&&&&&&&&&oX&&o$%%%%%%%%%%#o &",
"&&&&&&&&&&&o#X&&o$+..%.%%%%%#o &",
"&&&oooooooo#$X&&o$$%%%%%%%$$#o &",
"&&o$$$$$$$$$$oX&&o$+$$$$$$##oX&&",
"&o$$+%%%%%%%$#oX&&o$ooooooooX&&&",
"&o$+..%.%%%%%#oX&&XoXXXXXXXX&@@&",
"&o$%%%%%%%%%%#oX&&XX&&&&@@@@@@@@",
"&o$+..%...%.%#oX&&X&&&@@oooooo@@",
"&o$%%%%%%%%%%#oX&&&#@oooooooo@@&",
"&o$+.....%%%%#oX@@&&&&&&&&&&&&&&",
"&o$$%%%%%%%%$#oX@ooo@&&&&&&&&&&&",
"&&o$$$$$$$$##oXoooo@@@&&&&&&&&&&",
"&&&oooooooooX@@@@@@@@&&&&&&&&&&&",
"&&&&XXXXXXXX&&&&&&&&&&&&&&&&&&&&",
"&&&&&&&&&&&&&&&&&&&&&&&&&&&&&&&&"
};

/* -*- Mode: xpm; tab-width: 4; indent-tabs-mode: nil; c-basic-offset: 2 -*-
 *
 * The contents of this file are subject to the Netscape Public License
 * Version 1.0 (the "NPL"); you may not use this file except in
 * compliance with the NPL.  You may obtain a copy of the NPL at
 * http://www.mozilla.org/NPL/
 *
 * Software distributed under the NPL is distributed on an "AS IS" basis,
 * WITHOUT WARRANTY OF ANY KIND, either express or implied. See the NPL
 * for the specific language governing rights and limitations under the
 * NPL.
 *
 * The Initial Developer of this code under the NPL is Netscape
 * Communications Corporation.  Portions created by Netscape are
 * Copyright (C) 1998 Netscape Communications Corporation.  All Rights
 * Reserved.
 */
/*-----------------------------------------*/
