/* XPM */
static char *task_browser_armed[] = {
/* columns rows colors chars-per-pixel */
"32 22 10 1",
"   c #333366",
".  c #6666cc",
"X  c Magenta",
"o  c #808000",
"O  c Yellow",
"+  c #808080",
"@  c #9999ff",
"#  c #c0c0c0",
"$  c Gray100",
"%  c None",
/* pixels */
"%%%%%%%+%%%%%%$.%%%%%%%%%%%%%%%%",
"%%%%%%O# %.%+O+ .%%%%%%%%%%%%%%%",
"%%%%%%%O# OO##$@+.%%%%O+%%%%%%%%",
"%%%%%%%%O@#. ## O@.%%$# %%%%%%%%",
"%%%%%%%%$O.   O .#O.$# +%%%%%%%%",
"%%%%%%%O+#O.o## %.$O#o %%%%%%%%%",
"%%%%%%%$Oo%O. $ %@#@. +%%%%%%%%%",
"%%%O$$$#o +%$o# @#oo+. %%%%%%%%%",
"%%%.@o###+O+#$O@Oo+ Oo %%%%%%%%%",
"%%%%%% O   .O$#O##$##O. %%%%%%%%",
"%%%%%%+#  .o@#O+ ..O@$#+%%%%%%%%",
"%%%%%%+O..%%OO#Oo o .@@@O.%%%%%%",
"%%%%%%+$O  O.%O+.o oo+ o+. %%%%%",
"%%%%%%@+$.O.o%# O.o%+O #++%%%%%%",
"%%%%%%%%$#.o %O  O. O. %%%%%%%%%",
"%%%%%%%$#+$O.%+ o#O@o. %%%%%%%%%",
"%%%%%%O#oo +O+OoO+.O. %%%%%%%%%%",
"%%%%%O#o  ##.O+O## o#  %%%%%%%%%",
"%%%%%@+  @+ %%$   . O# .%%%%%%%%",
"%%%%@+ %+%@++%O  .%.+O#.%%%%%%%%",
"%%%%%%%%%%%%%%O @%%%+. +%%%%%%%%",
"%%%%%%%%%%%%%% .%%%%%%%%%%%%%%%%"
};

/* -*- Mode: xpm; tab-width: 4; indent-tabs-mode: nil; c-basic-offset: 2 -*-
 *
 * The contents of this file are subject to the Netscape Public
 * License Version 1.1 (the "License"); you may not use this file
 * except in compliance with the License. You may obtain a copy of
 * the License at http://www.mozilla.org/NPL/
 *
 * Software distributed under the License is distributed on an "AS
 * IS" basis, WITHOUT WARRANTY OF ANY KIND, either express or
 * implied. See the License for the specific language governing
 * rights and limitations under the License.
 *
 * The Original Code is mozilla.org code.
 *
 * The Initial Developer of the Original Code is Netscape
 * Communications Corporation.  Portions created by Netscape are
 * Copyright (C) 1998 Netscape Communications Corporation. All
 * Rights Reserved.
 *
 * Contributor(s): 
 */
/*-----------------------------------------*/
