/* XPM */
static char *task_browser[] = {
/* columns rows colors chars-per-pixel */
"32 22 10 1",
"   c #333366",
".  c #6666cc",
"X  c Magenta",
"o  c #808000",
"O  c Yellow",
"+  c #808080",
"@  c #9999ff",
"#  c #c0c0c0",
"$  c Gray100",
"%  c None",
/* pixels */
"%%%%%%%$ %%%%%@.%%%%%%%%%%%%%%%%",
"%%%%%%%O$ .%OO$ ..%%%%%%%%%%%%%%",
"%%%%%%%%$#OO##$O...%%%OO%%%%%%%%",
"%%%%%%%%@$#. #O OO..%$$ %%%%%%%%",
"%%%%%%%%OO.   $ .#O.$#  %%%%%%%%",
"%%%%%%%OO#O.o%$ %.$O#o %%%%%%%%%",
"%%%%%%%$@ %O. $ %$#O. @%%%%%%%%%",
"%%%O%$$$  %%$o# $#oo@. %%%%%%%%%",
"%%%.   O#O@O#$O$#o  Oo %%%%%%%%%",
"%%%%.oo$. ..O$#@o%$###. %%%%%%%%",
"%%%%%%+$  ooo#OOo..#@OO@%%%%%%%%",
"%%%%%%+#..%%OO#@o o  @ OO.%%%%%%",
"%%%%%%+$#  O.%@O.o ooO o   %%%%%",
"%%%%%%@@$.O.o%% O.o%O@ #oo%%%%%%",
"%%%%%%%%$$.o %@  O..@. +%%%%%%%%",
"%%%%%%%$O@$@.%O o#O##  ++@+++%%%",
"%%%%%%OO@+#O@O#oOO.O. ..+..@+++%",
"%%%%%O#o  +#.@O### o#  ...++@%%%",
"%%%%%@+ +@+ %%$   . O# +..+++%%%",
"%%%%@+ %+%@++%O  .%.#OO +++@%%%%",
"%%%%%%%%%%%%%%O @%%%+.  +@%%%%%%",
"%%%%%%%%%%%%%% .%%%%%+.+.+%%%%%%"
};

/* -*- Mode: xpm; tab-width: 4; indent-tabs-mode: nil; c-basic-offset: 2 -*-
 *
 * The contents of this file are subject to the Netscape Public License
 * Version 1.0 (the "NPL"); you may not use this file except in
 * compliance with the NPL.  You may obtain a copy of the NPL at
 * http://www.mozilla.org/NPL/
 *
 * Software distributed under the NPL is distributed on an "AS IS" basis,
 * WITHOUT WARRANTY OF ANY KIND, either express or implied. See the NPL
 * for the specific language governing rights and limitations under the
 * NPL.
 *
 * The Initial Developer of this code under the NPL is Netscape
 * Communications Corporation.  Portions created by Netscape are
 * Copyright (C) 1998 Netscape Communications Corporation.  All Rights
 * Reserved.
 */
/*-----------------------------------------*/
