/* XPM */
static char *task_mail_raised[] = {
/* columns rows colors chars-per-pixel */
"32 22 19 1",
"   c #00373c",
".  c #222222",
"X  c #333366",
"o  c Blue",
"O  c #6666cc",
"+  c #008000",
"@  c Green",
"#  c #008080",
"$  c Cyan",
"%  c #429aa7",
"&  c Red",
"*  c #ff6633",
"=  c Magenta",
"-  c Yellow",
";  c #808080",
":  c #9999ff",
">  c #c0c0c0",
",  c Gray100",
"<  c None",
/* pixels */
"<<<<<<<<<<<<<<<<<<<<<<<<<<<<<<<<",
"<<<<<<<#+XX<<<<<<<<<<,<<<<<<<<<<",
"<<<<<<<@@% .<<<<<<<<$o,<<<<<<<<<",
"<<<<<<<@@% .<<<<<<<,,,*&&<<<<<<<",
"<<<<+++@@%+++X.<<<*&-,--,<<<<<<<",
"<<<<#-,-@@%+#..<<<,,,;,,$oO<<<<<",
"<<<<<#,--@+#..<<<$o,@#+,-,,<<<<<",
"<<<<<<#,-+#..<<<,,-,;#+,>,*&&<<<",
"<OXXOOX#@#..XXXXO:-,,+,>,>,,,<<<",
"<::XXXXX#X.XXXX,,,,,>,O,>,-,$&<<",
"<:-:OXXX..XX.;;o,-,>,O,>O>,:&O<<",
"<:,-,OOXXXXXXX>-,->-;,>O>,:&oO<<",
"<:-,,-:OXXXXX*&>,>,,>>;>->&o.<<<",
"<:,,,,,,OOXXX>-->,-,,o>,>::..X<<",
"<O,>,>,>,:OO>:*o.XX*OOOOOOOOOO<<",
"<<O::,>,:,:>OOOOOOOOOOOOOOXOXO<<",
"<<<:O:,:,:,:>OOOOOOXOXOXOXOXO;<<",
"<<<<<:O>:,:>OOXOXOXOXOXOXOXXOO;<",
"<<<<<<<O>:>OOXOXOXO...X....XOO;<",
"<<<<<<<<::OOXOXX...XXXOOOOO;;;<<",
"<<<<<<<<<<OXXXOOOOOO;;;;;<<<<<<<",
"<<<<<<<<<<<<<<<<<<<<<<<<<<<<<<<<"
};

/* -*- Mode: xpm; tab-width: 4; indent-tabs-mode: nil; c-basic-offset: 2 -*-
 *
 * The contents of this file are subject to the Netscape Public License
 * Version 1.0 (the "NPL"); you may not use this file except in
 * compliance with the NPL.  You may obtain a copy of the NPL at
 * http://www.mozilla.org/NPL/
 *
 * Software distributed under the NPL is distributed on an "AS IS" basis,
 * WITHOUT WARRANTY OF ANY KIND, either express or implied. See the NPL
 * for the specific language governing rights and limitations under the
 * NPL.
 *
 * The Initial Developer of this code under the NPL is Netscape
 * Communications Corporation.  Portions created by Netscape are
 * Copyright (C) 1998 Netscape Communications Corporation.  All Rights
 * Reserved.
 */
/*-----------------------------------------*/
