<!-- may be protected as a trademark in some jurisdictions -->
<svg xmlns="http://www.w3.org/2000/svg" width="135" height="40" xml:space="preserve"><path fill="#A6A6A6" d="M130.197 40H4.729A4.74 4.74 0 0 1 0 35.267V4.726A4.733 4.733 0 0 1 4.729 0h125.468C132.803 0 135 2.12 135 4.726v30.541c0 2.605-2.197 4.733-4.803 4.733z"/><path d="M134.032 35.268a3.83 3.83 0 0 1-3.834 3.83H4.729a3.835 3.835 0 0 1-3.839-3.83V4.725A3.84 3.84 0 0 1 4.729.89h125.468a3.834 3.834 0 0 1 3.834 3.835l.001 30.543z"/><g fill="#FFF"><path d="M30.128 19.784c-.029-3.223 2.639-4.791 2.761-4.864-1.511-2.203-3.853-2.504-4.676-2.528-1.967-.207-3.875 1.177-4.877 1.177-1.022 0-2.565-1.157-4.228-1.123-2.14.033-4.142 1.272-5.24 3.196-2.266 3.923-.576 9.688 1.595 12.859 1.086 1.553 2.355 3.287 4.016 3.226 1.625-.067 2.232-1.036 4.193-1.036 1.943 0 2.513 1.036 4.207.997 1.744-.028 2.842-1.56 3.89-3.127 1.255-1.78 1.759-3.533 1.779-3.623-.041-.014-3.387-1.291-3.42-5.154zM26.928 10.306c.874-1.093 1.472-2.58 1.306-4.089-1.265.056-2.847.875-3.758 1.944-.806.942-1.526 2.486-1.34 3.938 1.421.106 2.88-.717 3.792-1.793z"/></g><g fill="#FFF"><path d="M51.191 30.648h-1.744l-.956-3.003H45.17l-.91 3.003h-1.699l3.291-10.222h2.033l3.306 10.222zm-2.988-4.261-.865-2.669c-.091-.273-.263-.915-.516-1.927h-.03a78.645 78.645 0 0 1-.485 1.927l-.849 2.669h2.745zM59.653 26.872c0 1.254-.339 2.244-1.016 2.973-.606.647-1.36.971-2.26.971-.971 0-1.668-.349-2.093-1.047h-.03v3.883h-1.638v-7.947c0-.788-.021-1.598-.061-2.427h1.441l.091 1.168h.03c.546-.88 1.375-1.319 2.487-1.319.87 0 1.595.344 2.176 1.031s.873 1.592.873 2.714zm-1.668.061c0-.718-.162-1.31-.485-1.774-.354-.485-.83-.728-1.426-.728-.405 0-.771.134-1.1.401a1.868 1.868 0 0 0-.645 1.055 2.124 2.124 0 0 0-.076.5v1.229c0 .536.164.988.493 1.357s.756.554 1.282.554c.617 0 1.097-.237 1.44-.713s.517-1.103.517-1.881zM68.131 26.872c0 1.254-.339 2.244-1.016 2.973-.606.647-1.36.971-2.26.971-.971 0-1.668-.349-2.093-1.047h-.03v3.883h-1.638v-7.947c0-.788-.021-1.598-.061-2.427h1.441l.091 1.168h.03c.546-.88 1.375-1.319 2.487-1.319.87 0 1.595.344 2.176 1.031s.873 1.592.873 2.714zm-1.668.061c0-.718-.162-1.31-.485-1.774-.354-.485-.83-.728-1.426-.728-.405 0-.771.134-1.1.401a1.868 1.868 0 0 0-.645 1.055 2.124 2.124 0 0 0-.076.5v1.229c0 .536.164.988.493 1.357s.756.554 1.282.554c.617 0 1.097-.237 1.44-.713s.517-1.103.517-1.881zM77.611 27.782c0 .869-.303 1.577-.908 2.123-.666.597-1.594.895-2.785.895-1.1 0-1.982-.212-2.648-.637l.379-1.365a4.477 4.477 0 0 0 2.367.652c.617 0 1.098-.139 1.441-.418.344-.278.516-.65.516-1.116 0-.415-.143-.765-.424-1.048-.283-.284-.754-.547-1.412-.79-1.789-.669-2.684-1.646-2.684-2.933 0-.84.312-1.528.939-2.065s1.461-.805 2.504-.805c.93 0 1.703.162 2.32.485l-.41 1.335c-.576-.313-1.229-.47-1.957-.47-.576 0-1.025.142-1.35.424a1.22 1.22 0 0 0-.408.926c0 .404.156.738.469 1.001.273.242.77.506 1.486.788.881.354 1.527.769 1.941 1.244.417.475.624 1.066.624 1.774zM83.023 24.506h-1.805v3.579c0 .91.318 1.365.955 1.365.293 0 .537-.025.729-.076l.045 1.244c-.322.121-.748.182-1.273.182-.646 0-1.152-.197-1.516-.591-.365-.395-.547-1.057-.547-1.987v-3.716h-1.076v-1.229h1.076v-1.35l1.607-.485v1.835h1.805v1.229zM91.168 26.902c0 1.133-.322 2.062-.969 2.791-.678.748-1.578 1.122-2.701 1.122-1.082 0-1.943-.359-2.586-1.077-.641-.718-.963-1.623-.963-2.715 0-1.143.332-2.077.994-2.806.662-.728 1.555-1.092 2.676-1.092 1.082 0 1.951.359 2.609 1.077.627.698.94 1.599.94 2.7zm-1.697.053c0-.679-.146-1.262-.439-1.749-.344-.588-.834-.882-1.473-.882-.656 0-1.156.294-1.5.882-.295.487-.441 1.08-.441 1.779 0 .68.146 1.263.441 1.75.354.588.848.882 1.486.882.627 0 1.117-.299 1.471-.897.302-.497.455-1.085.455-1.765zM96.492 24.719a2.83 2.83 0 0 0-.516-.046c-.576 0-1.021.218-1.334.652-.273.384-.41.869-.41 1.456v3.867h-1.639l.016-5.051c0-.849-.02-1.622-.061-2.32h1.426l.061 1.411h.045c.172-.485.445-.875.82-1.168a1.976 1.976 0 0 1 1.182-.395c.152 0 .289.01.41.03v1.564zM103.816 26.614c0 .293-.02.541-.061.743h-4.914c.021.728.258 1.284.713 1.668.416.344.951.516 1.607.516.729 0 1.391-.116 1.988-.349l.258 1.138c-.699.303-1.523.455-2.473.455-1.143 0-2.039-.336-2.691-1.009-.652-.672-.979-1.574-.979-2.707 0-1.112.303-2.037.91-2.775.637-.789 1.496-1.184 2.578-1.184 1.061 0 1.865.395 2.41 1.184.438.627.654 1.4.654 2.32zm-1.56-.425c.01-.485-.098-.904-.32-1.259-.283-.455-.717-.683-1.303-.683-.537 0-.971.223-1.305.668a2.44 2.44 0 0 0-.486 1.273h3.414zM107.23 20.153c-.436 1.527-.951 2.78-1.547 3.762l-1.016.105c.443-1.213.764-2.452.955-3.715l1.608-.152zM110.658 21.078a.94.94 0 0 1-.289.713c-.191.183-.439.273-.742.273a.955.955 0 0 1-.97-.986c0-.283.096-.515.287-.697s.43-.273.713-.273.521.091.713.273.288.414.288.697zm-.183 9.57h-1.637v-7.371h1.637v7.371zM117.27 28.53c0 .687-.252 1.236-.758 1.649-.506.414-1.203.62-2.094.62-.84 0-1.553-.167-2.139-.5l.35-1.214a3.42 3.42 0 0 0 1.805.516c.84 0 1.258-.308 1.258-.925a.905.905 0 0 0-.271-.675c-.184-.177-.506-.352-.971-.523-1.314-.485-1.973-1.192-1.973-2.123 0-.637.242-1.168.729-1.593.484-.425 1.127-.637 1.926-.637.729 0 1.35.148 1.865.445l-.348 1.178a2.899 2.899 0 0 0-1.502-.425c-.344 0-.611.081-.805.242-.191.161-.287.368-.287.62s.102.459.303.62c.172.151.506.318 1.002.499 1.273.486 1.91 1.228 1.91 2.226zM122.805 24.506H121v3.579c0 .91.318 1.365.955 1.365.293 0 .537-.025.729-.076l.045 1.244c-.322.121-.748.182-1.273.182-.646 0-1.152-.197-1.516-.591-.365-.395-.547-1.057-.547-1.987v-3.716h-1.076v-1.229h1.076v-1.35l1.607-.485v1.835h1.805v1.229z"/></g><g fill="#FFF"><path d="M47.391 15.6h-3.715V9.062h1.048v5.655h2.667v.883zM52.329 15.6h-.941l-.077-.543h-.029c-.323.433-.782.65-1.377.65-.446 0-.806-.143-1.077-.427a1.338 1.338 0 0 1-.368-.96c0-.576.24-1.015.723-1.319.481-.304 1.159-.453 2.032-.446v-.087c0-.621-.326-.931-.978-.931-.465 0-.875.117-1.229.349l-.213-.688c.438-.271.979-.407 1.617-.407 1.233 0 1.85.65 1.85 1.95v1.736c-.002.47.022.845.067 1.123zm-1.087-1.62v-.727c-1.157-.02-1.735.297-1.735.95 0 .246.067.43.202.553a.73.73 0 0 0 .511.184c.231 0 .445-.073.642-.218a.889.889 0 0 0 .38-.742zM57.625 15.6h-.941l-.077-.543h-.029c-.323.433-.782.65-1.377.65-.446 0-.806-.143-1.077-.427a1.338 1.338 0 0 1-.368-.96c0-.576.24-1.015.723-1.319.481-.304 1.159-.453 2.032-.446v-.087c0-.621-.326-.931-.978-.931-.465 0-.875.117-1.229.349l-.213-.688c.438-.271.979-.407 1.617-.407 1.233 0 1.85.65 1.85 1.95v1.736c-.002.47.022.845.067 1.123zm-1.087-1.62v-.727c-1.157-.02-1.735.297-1.735.95 0 .246.067.43.202.553a.73.73 0 0 0 .511.184c.231 0 .445-.073.642-.218a.889.889 0 0 0 .38-.742zM63.581 15.6h-.931l-.049-.757h-.029c-.297.576-.802.864-1.513.864-.569 0-1.041-.223-1.416-.669s-.562-1.025-.562-1.736c0-.763.203-1.381.61-1.853.395-.44.88-.66 1.455-.66.634 0 1.077.213 1.329.64h.02V8.723h1.048v5.607c-.001.459.012.882.038 1.27zm-1.086-1.988v-.786a1.189 1.189 0 0 0-.409-.965 1.028 1.028 0 0 0-.701-.257c-.39 0-.696.155-.921.466-.224.311-.336.708-.336 1.193 0 .466.107.844.322 1.135.227.31.532.465.915.465.344 0 .62-.129.828-.388.201-.239.302-.527.302-.863zM66.568 9.479a.603.603 0 0 1-.184.456.661.661 0 0 1-.476.175.611.611 0 0 1-.621-.63c0-.181.062-.33.185-.446s.274-.175.456-.175a.64.64 0 0 1 .456.175.586.586 0 0 1 .184.445zm-.116 6.121h-1.048v-4.714h1.048V15.6zM74.676 15.6h-.941l-.076-.543h-.029c-.324.433-.783.65-1.377.65-.447 0-.807-.143-1.078-.427a1.337 1.337 0 0 1-.367-.96c0-.576.24-1.015.723-1.319.48-.304 1.158-.453 2.031-.446v-.087c0-.621-.326-.931-.977-.931-.465 0-.875.117-1.23.349l-.213-.688c.439-.271.979-.407 1.617-.407 1.234 0 1.85.65 1.85 1.95v1.736c-.002.47.022.845.067 1.123zm-1.086-1.62v-.727c-1.158-.02-1.736.297-1.736.95 0 .246.068.43.203.553a.728.728 0 0 0 .51.184c.232 0 .445-.073.643-.218a.898.898 0 0 0 .38-.742zM77.49 15.6h-1.049V8.723h1.049V15.6zM80.398 15.6h-1.047V8.723h1.047V15.6zM85.791 15.6h-.941l-.076-.543h-.029c-.324.433-.783.65-1.377.65-.447 0-.807-.143-1.078-.427a1.337 1.337 0 0 1-.367-.96c0-.576.24-1.015.723-1.319.48-.304 1.158-.453 2.031-.446v-.087c0-.621-.326-.931-.977-.931-.465 0-.875.117-1.23.349l-.213-.688c.439-.271.979-.407 1.617-.407 1.234 0 1.85.65 1.85 1.95v1.736c-.001.47.022.845.067 1.123zm-1.086-1.62v-.727c-1.158-.02-1.736.297-1.736.95 0 .246.068.43.203.553a.728.728 0 0 0 .51.184c.232 0 .445-.073.643-.218a.898.898 0 0 0 .38-.742z"/></g></svg>
