<!-- This Source Code Form is subject to the terms of the Mozilla Public
   - License, v. 2.0. If a copy of the MPL was not distributed with this
   - file, You can obtain one at http://mozilla.org/MPL/2.0/. -->
<svg enable-background="new 0 0 76.8 76.8" viewBox="0 0 76.8 76.8" xmlns="http://www.w3.org/2000/svg" xmlns:xlink="http://www.w3.org/1999/xlink">
  <linearGradient id="a" gradientTransform="matrix(1.3333 0 0 -1.3333 118.8667 193.9333)" gradientUnits="userSpaceOnUse" x1="-92.971" x2="-32.8" y1="81.79" y2="146.09">
    <stop offset=".26" stop-color="#9059ff"/>
    <stop offset=".96" stop-color="#00b3f4"/>
  </linearGradient>
  <circle cx="38.4" cy="38.4" fill="#fbfbfe" r="32.7"/>
  <path d="m38.4 0c-21.2 0-38.4 17.2-38.4 38.4s17.2 38.4 38.4 38.4 38.4-17.2 38.4-38.4-17.2-38.4-38.4-38.4zm0 11c9.1 0 16.5 7.4 16.5 16.5s-7.4 16.5-16.5 16.5-16.5-7.4-16.5-16.5c0-9.2 7.4-16.5 16.5-16.5zm22.6 42.8c-8.4 12.5-25.3 15.8-37.7 7.4-2.9-2-5.5-4.5-7.4-7.4-1.4-2.1-1.2-4.8.4-6.7 5.8-6.7 13.8 2.3 22.2 2.3s16.4-9 22.2-2.3c1.5 1.9 1.7 4.6.3 6.7z" fill="url(#a)"/>
</svg>
