<!-- This Source Code Form is subject to the terms of the Mozilla Public
   - License, v. 2.0. If a copy of the MPL was not distributed with this
   - file, You can obtain one at http://mozilla.org/MPL/2.0/. -->
<svg xmlns="http://www.w3.org/2000/svg" viewBox="0 0 16 16"><path fill="context-fill" fill-opacity="context-fill-opacity" d="M8 0a8.06 8.06 0 0 0-8 7.37 1.54 1.54 0 0 0 .4 1.15A1.48 1.48 0 0 0 1.5 9H7v3.59l-1.3-1.3a1 1 0 0 0-1.41 0 1 1 0 0 0 0 1.42l3 3a1.15 1.15 0 0 0 .33.21A1 1 0 0 0 8 16a1.09 1.09 0 0 0 .39-.08 1 1 0 0 0 .32-.21l3-3a1 1 0 0 0-1.42-1.42L9 12.59V9h5.51A1.49 1.49 0 0 0 16 7.37 8 8 0 0 0 8 0zm0 7H2.07a6 6 0 0 1 11.86 0z"/><path fill="context-fill" fill-opacity="context-fill-opacity" d="M8 0a8.06 8.06 0 0 0-8 7.37 1.54 1.54 0 0 0 .4 1.15A1.48 1.48 0 0 0 1.5 9H7v3.59l-1.3-1.3a1 1 0 0 0-1.41 0 1 1 0 0 0 0 1.42l3 3a1.15 1.15 0 0 0 .33.21A1 1 0 0 0 8 16a1.09 1.09 0 0 0 .39-.08 1 1 0 0 0 .32-.21l3-3a1 1 0 0 0-1.42-1.42L9 12.59V9h5.51A1.49 1.49 0 0 0 16 7.37 8 8 0 0 0 8 0zm0 7H2.07a6 6 0 0 1 11.86 0z"/></svg>