<!-- This Source Code Form is subject to the terms of the Mozilla Public
   - License, v. 2.0. If a copy of the MPL was not distributed with this
   - file, You can obtain one at http://mozilla.org/MPL/2.0/. -->
<svg xmlns="http://www.w3.org/2000/svg" viewBox="0 0 173.9 156.5">
  <style>
    .st0{opacity:0.1;fill:#0C0C0D;enable-background:new ;} .st1{fill:#FFFFFF;} .st2{fill:url(#SVGID_1_);} .st3{fill:#F9F9FA;} .st4{fill:url(#SVGID_2_);} .st5{fill:url(#SVGID_3_);} .st6{fill:url(#SVGID_4_);} .st7{fill:url(#SVGID_5_);} .st8{fill:url(#SVGID_6_);} .st9{fill:url(#SVGID_7_);}
  </style>
  <path class="st0" d="M140.9 152h-69c-.6 0-1-.4-1-1s.4-1 1-1H141c.6 0 1 .4 1 1s-.5 1-1.1 1zm-9.3-5.1h-12c-.3 0-.5-.2-.5-.5s.2-.5.5-.5h12c.3 0 .5.2.5.5s-.2.5-.5.5zm-15.7 9.6h-12c-.3 0-.5-.2-.5-.5s.2-.5.5-.5h12c.3 0 .5.2.5.5s-.2.5-.5.5zm-20 0h-3c-.3 0-.5-.2-.5-.5s.2-.5.5-.5h3c.3 0 .5.2.5.5s-.2.5-.5.5zm-7 0h-1c-.3 0-.5-.2-.5-.5s.2-.5.5-.5h1c.3 0 .5.2.5.5s-.2.5-.5.5zm-10 0h-12c-.3 0-.5-.2-.5-.5s.2-.5.5-.5h12c.3 0 .5.2.5.5s-.2.5-.5.5zm-20 0h-3c-.3 0-.5-.2-.5-.5s.2-.5.5-.5h3c.3 0 .5.2.5.5s-.2.5-.5.5zm-7 0h-1c-.3 0-.5-.2-.5-.5s.2-.5.5-.5h1c.3 0 .5.2.5.5s-.2.5-.5.5zm-10 0h-12c-.3 0-.5-.2-.5-.5s.2-.5.5-.5h12c.3 0 .5.2.5.5s-.2.5-.5.5zm-20 0h-3c-.3 0-.5-.2-.5-.5s.2-.5.5-.5h3c.3 0 .5.2.5.5s-.2.5-.5.5zm-7 0h-1c-.3 0-.5-.2-.5-.5s.2-.5.5-.5h1c.3 0 .5.2.5.5s-.2.5-.5.5z"/>
  <path class="st1" d="M85 20.4h21.3s-6.7-14.9 7.5-16.8c12.6-1.7 17.6 11.3 17.6 11.3s1.5-7.5 9-6.1 12.9 13.3 12.9 13.3h18.6"/>
  <path class="st0" d="M172.2 18.6h-4c-.3 0-.5-.2-.5-.5s.2-.5.5-.5h4c.3 0 .5.2.5.5s-.2.5-.5.5zm-13 0h-1c-.3 0-.5-.2-.5-.5s.2-.5.5-.5h1c.3 0 .5.2.5.5s-.2.5-.5.5zm-5 0h-.8c-.1-.1-.2-.1-.2-.2-.1-.2-.5-1-1.2-2.1-.1-.2-.1-.5.2-.7.2-.1.5-.1.7.2.5.8.9 1.5 1.1 1.9h.2c.3 0 .5.2.5.5s-.2.4-.5.4zm-47.5-.6h-1.3c-.3 0-.5-.2-.5-.5s.2-.5.5-.5h.6c-.1-.2-.2-.6-.3-.9-.1-.3.1-.6.3-.7.3-.1.6.1.7.3.3.9.6 1.5.6 1.5.1.3 0 .5-.3.7-.1.1-.2.1-.3.1zm-9.3 0h-12c-.3 0-.5-.2-.5-.5s.2-.5.5-.5h12c.3 0 .5.2.5.5s-.3.5-.5.5zm7.8-5.5c-.3 0-.5-.2-.5-.4 0-.3-.1-.7-.1-1s.2-.5.5-.5.5.2.5.5 0 .6.1 1c.1.2-.1.4-.5.4.1.1.1.1 0 0zm26.2-1c-.2 0-.4-.1-.4-.3-.1-.2-.3-.5-.4-.9-.1-.2 0-.5.2-.7.2-.1.5 0 .7.2.2.3.3.6.5.9.1.2 0 .5-.2.7-.3.1-.3.1-.4.1zm16.1-1.3c-.1 0-.3 0-.4-.1-1.7-1.8-4-3.1-6.4-3.7-1.3-.3-2.6-.2-3.9.2-.3.1-.5-.1-.6-.3-.1-.3.1-.5.3-.6 1.4-.4 2.9-.5 4.4-.2 2.6.6 5.1 2 6.9 4 .2.2.2.5 0 .7-.1-.1-.2 0-.3 0zm-18.8-3c-.2 0-.3-.1-.4-.2-.6-.8-1.3-1.5-2-2.1-.2-.2-.1-.5.1-.7.2-.1.4-.1.6 0 .8.7 1.5 1.4 2.1 2.2.2.2.1.5-.1.7 0 .1-.2.1-.3.1zm-20.5-3.8c-.3 0-.5-.2-.5-.5 0-.2.1-.3.2-.4 1.8-1.3 4-2.2 6.2-2.4 1.9-.3 3.8-.2 5.7.2.3.1.5.3.4.6s-.3.5-.6.4c-1.7-.4-3.5-.4-5.3-.2-2.1.2-4.1.9-5.7 2.2-.2.1-.3.1-.4.1z"/>
  <path class="st1" d="M172.9 22.4H85c-.6 0-1-.4-1-1s.4-1 1-1h87.9c.6 0 1 .4 1 1s-.5 1-1 1zM.8 37.7h11.9s-3.7-8.3 4.2-9.4c7-1 9.8 6.3 9.8 6.3s.8-4.2 5-3.4 7.2 7.4 7.2 7.4h10.3"/>
  <path class="st0" d="M13 36.4H1.1c-.3 0-.5-.2-.5-.5s.2-.5.5-.5h11.5c.2-.2.5-.2.7 0l.1.1v.1c.1.3 0 .5-.3.7 0 .1-.1.1-.1.1zm32.9-.2h-3c-.3 0-.5-.2-.5-.5s.2-.5.5-.5h3c.3 0 .5.2.5.5s-.2.5-.5.5zM27 33h-.1c-.3-.1-.4-.4-.3-.6.5-2 2.3-3.5 4.4-3.5.4 0 .7 0 1.1.1 1.9.5 3.6 1.5 4.9 3 .2.2.2.5 0 .7s-.5.2-.7 0c-1.1-1.3-2.6-2.3-4.3-2.7-.3-.1-.6-.1-.9-.1-1.7 0-3.1 1.2-3.4 2.8-.3.2-.5.3-.7.3zm-13.6-4.3c-.3 0-.5-.2-.5-.5 0-.1.1-.3.1-.4.8-.8 1.8-1.3 2.8-1.6.3-.1.6.1.6.4s-.1.6-.4.6c-.9.2-1.7.7-2.4 1.3.1.2 0 .2-.2.2zm7.5-1.3h-.1c-.3-.1-.6-.2-.9-.2-.3-.1-.5-.3-.4-.6.1-.3.3-.5.6-.4.3.1.7.2 1 .3.3 0 .5.3.4.6 0 .1-.3.3-.6.3z"/>
  <path class="st1" d="M49.9 39.7H1c-.6 0-1-.4-1-1s.4-1 1-1h48.8c.6 0 1 .4 1 1s-.4 1-.9 1zm85.5 37.5h-15.3V60.3c0-4.2-3.4-7.5-7.6-7.5H51.1c-4.2 0-7.5 3.4-7.5 7.5V101c0 1.3.4 2.6 1 3.7-.4.5-.8 1-1 1.6l-6.9 16.1c-.3.7-.5 1.5-.5 2.3v1.1c.1 3.4 2.8 6.1 6.2 6h60v3.2c0 4.1 3.3 7.4 7.4 7.4h25.6c4.1 0 7.4-3.3 7.4-7.4V84.7c.1-4.2-3.2-7.5-7.4-7.5z"/>
  <path class="st1" d="M50.8 56.5h61.4c2 0 3.6 1.6 3.6 3.5v40.7c0 2-1.6 3.6-3.6 3.6H50.8c-2 0-3.5-1.6-3.5-3.6V60.1c0-2 1.6-3.6 3.5-3.6z"/>
  <path class="st1" d="M52.7 62.5h57.7c1.2 0 2.1.9 2.1 2.1V99c0 1.2-.9 2.1-2.1 2.1H52.7c-1.2 0-2.1-.9-2.1-2.1V64.6c0-1.1 1-2.1 2.1-2.1z"/>
  <linearGradient id="SVGID_1_" gradientUnits="userSpaceOnUse" x1="55.4468" y1="665.5432" x2="128.2768" y2="738.3832" gradientTransform="translate(.02 -609.83)">
    <stop offset="0" stop-color="#CCFBFF"/>
    <stop offset="1" stop-color="#C9E4FF"/>
  </linearGradient>
  <path class="st2" d="M110.4 63.5c.6 0 1.1.5 1.1 1.1V99c0 .6-.5 1.1-1.1 1.1H52.7c-.6 0-1.1-.5-1.1-1.1V64.6c0-.6.5-1.1 1.1-1.1h57.7"/>
  <path class="st3" d="M115.7 107.6c-.4-.8-1.2-1.3-2.1-1.2H49c-.9 0-1.7.5-2.1 1.3L40 123.8c-.1.2-.1.5-.1.7v1.1c.1 1.2 1 2.1 2.2 2H121c1.2.1 2.2-.8 2.2-2v-1c0-.3-.1-.5-.2-.7l-7.3-16.3z"/>
  <linearGradient id="SVGID_2_" gradientUnits="userSpaceOnUse" x1="-4.5021" y1="627.6644" x2="182.4979" y2="797.1644" gradientTransform="translate(.02 -609.83)">
    <stop offset="0" stop-color="#00C8D7"/>
    <stop offset="1" stop-color="#0A84FF"/>
  </linearGradient>
  <path class="st4" d="M124.9 122.9l-7.3-16.1c-.3-.8-.9-1.4-1.6-1.8 1.2-1.1 1.9-2.6 1.9-4.2V60.1c0-3.1-2.5-5.5-5.6-5.5H50.9c-3.1 0-5.5 2.5-5.5 5.5v40.7c0 1.5.6 3 1.7 4-.9.4-1.6 1.1-2 2L38.2 123c-.2.5-.3 1-.3 1.5v1.1c.1 2.3 1.9 4.1 4.2 4H121c2.3.1 4.2-1.7 4.2-4v-1c0-.6-.1-1.2-.3-1.7zm-1.7 2.6c-.1 1.2-1 2.1-2.2 2H42.1c-1.2.1-2.2-.8-2.2-2v-1.1c0-.2 0-.5.1-.7l6.9-16.1c.4-.8 1.2-1.3 2.1-1.3h64.7c.9 0 1.7.5 2.1 1.2l7.3 16.1c.1.2.2.5.2.7l-.1 1.2zm-75.9-24.7V60.1c0-2 1.6-3.5 3.5-3.5h61.4c2 0 3.6 1.6 3.6 3.5v40.7c0 2-1.6 3.6-3.5 3.6H50.9c-2 0-3.6-1.6-3.6-3.6z"/>
  <linearGradient id="SVGID_3_" gradientUnits="userSpaceOnUse" x1="-51.3994" y1="590.94" x2="201.6006" y2="840.94" gradientTransform="translate(.02 -609.83)">
    <stop offset="0" stop-color="#00C8D7"/>
    <stop offset="1" stop-color="#0A84FF"/>
  </linearGradient>
  <path class="st5" d="M94.7 121.8H68.4c-.4 0-.8-.2-.8-.5.3-1.7.5-2.6.8-4.4 0-.2.3-.4.7-.4l25.3-.2c.4 0 .7.2.7.4.2 1.5.4 3 .4 4.5.1.4-.3.6-.8.6zM64 112.4h-3.9c-.3 0-.6.2-.7.4-.1.5-.2.7-.3 1.2s.4.7.9.7h3.8c.3 0 .6-.1.7-.3.1-.5.2-.7.3-1.2s-.3-.8-.8-.8zm9.9 0h-4.1c-.4 0-.7.2-.7.4-.1.5-.1.7-.2 1.2-.1.3.4.6.9.6h3.9c.3 0 .6-.1.7-.4.1-.5.2-.7.3-1.2.1-.4-.3-.7-.8-.6zm20.5 1.4c-.1-.5-.1-.7-.2-1.2 0-.2-.3-.4-.7-.4h-4.1c-.5 0-.9.3-.9.6l.3 1.2c0 .2.3.4.7.4h3.9c.6 0 1.1-.3 1-.6zm-9.9.1l-.2-1.2c0-.2-.4-.4-.8-.4h-3.7c-.4 0-.8.2-.8.4-.1.5-.2.7-.2 1.2-.1.3.3.6.8.6h4.1c.4-.1.8-.3.8-.6zm19.6-.2l-.2-1.2c0-.2-.3-.3-.6-.3h-3.9c-.5 0-1 .3-.9.7l.3 1.2c.1.2.3.3.7.3h3.8c.4-.1.9-.4.8-.7zm-39.1-5h-3.7c-.3 0-.5.1-.6.3-.1.4-.2.7-.3 1.1s.3.6.8.6h3.6c.3 0 .5-.1.7-.3.2-.4.2-.7.4-1.1s-.4-.6-.9-.6zm9.4 0h-3.9c-.4 0-.7.2-.7.4-.1.4-.2.7-.3 1.1s.3.6.8.6h3.8c.3 0 .6-.1.7-.4.1-.4.2-.7.3-1.1s-.3-.6-.7-.6zm19.6 1.4l-.2-1.1c0-.2-.3-.4-.7-.4h-3.9c-.5 0-.9.3-.8.6l.2 1.1c0 .2.3.4.7.4h3.8c.5-.1.9-.3.9-.6zm-9.5.1l-.2-1.1c0-.2-.3-.4-.7-.4H80c-.4 0-.7.2-.8.4-.1.4-.2.7-.3 1.1-.1.3.3.5.8.5h3.9c.5 0 .9-.3.9-.5zm18.7-.1l-.2-1.1c0-.2-.3-.3-.6-.3h-3.7c-.5 0-1 .3-.9.6l.3 1.1c.1.2.3.3.6.3h3.6c.5-.1.9-.4.9-.6zm-48.1 2.4h-3.8c-.3 0-.6.1-.7.4-.2.4-.3.8-.4 1.2-.1.3.4.7.9.7h3.7c.3 0 .6-.2.6-.4.1-.4.2-.8.4-1.2.2-.5-.2-.8-.7-.7zm1.3-3.7h-3.5c-.2 0-.5.1-.6.3-.1.4-.2.7-.4 1.1-.1.3.2.6.7.6h3.5c.3 0 .5-.1.7-.3.2-.4.3-.7.5-1.1s-.4-.7-.9-.6zm50.9 4.1c.1.4.3.8.3 1.1 0 .2.3.3.6.3h3.7c.5 0 1-.3.9-.6-.1-.4-.2-.8-.3-1.1-.1-.2-.4-.4-.7-.3h-3.7c-.5-.1-.9.2-.8.6zm-1.1-3.7c.1.4.2.7.4 1.1.1.2.4.3.6.3h3.4c.5 0 .8-.3.8-.6-.1-.4-.2-.7-.3-1.1 0-.2-.2-.3-.6-.3H107c-.4 0-.9.3-.8.6z"/>
  <g>
    <linearGradient id="SVGID_4_" gradientUnits="userSpaceOnUse" x1="-22.6206" y1="563.3309" x2="225.3794" y2="813.3309" gradientTransform="translate(0 -610)">
      <stop offset="0" stop-color="#00C8D7"/>
      <stop offset="1" stop-color="#0A84FF"/>
    </linearGradient>
    <circle class="st6" cx="82.6" cy="59.4" r="1.2"/>
  </g>
  <path class="st1" d="M109.6 80h25.6c2.5 0 4.4 2 4.4 4.4v50.3c0 2.5-2 4.4-4.4 4.4h-25.6c-2.5 0-4.4-2-4.4-4.4V84.4c-.1-2.4 1.9-4.4 4.4-4.4z"/>
  <linearGradient id="SVGID_5_" gradientUnits="userSpaceOnUse" x1="-19.2553" y1="590.7758" x2="221.2447" y2="809.2758" gradientTransform="translate(.02 -609.83)">
    <stop offset="0" stop-color="#00C8D7"/>
    <stop offset="1" stop-color="#0A84FF"/>
  </linearGradient>
  <path class="st7" d="M135.1 81c1.9 0 3.4 1.5 3.4 3.4v50.3c0 1.9-1.5 3.4-3.4 3.4h-25.6c-1.9 0-3.4-1.5-3.4-3.4V84.4c0-1.9 1.5-3.4 3.4-3.4h25.6m0-2h-25.6c-3 0-5.4 2.4-5.4 5.4v50.3c0 3 2.4 5.4 5.4 5.4h25.6c3 0 5.4-2.4 5.4-5.4V84.4c.1-3-2.4-5.4-5.4-5.4z"/>
  <g>
    <path class="st1" d="M111.1 84.8h22.4c.9 0 1.7.8 1.7 1.7v41.9c0 .9-.8 1.7-1.7 1.7h-22.4c-.9 0-1.7-.8-1.7-1.7V86.5c0-.9.8-1.7 1.7-1.7z"/>
    <linearGradient id="SVGID_6_" gradientUnits="userSpaceOnUse" x1="62.995" y1="657.995" x2="135.835" y2="730.835" gradientTransform="translate(.02 -609.83)">
      <stop offset="0" stop-color="#CCFBFF"/>
      <stop offset="1" stop-color="#C9E4FF"/>
    </linearGradient>
    <path class="st8" d="M133.5 85.8c.4 0 .7.3.7.7v41.9c0 .4-.3.7-.7.7h-22.4c-.4 0-.7-.3-.7-.7V86.5c0-.4.3-.7.7-.7h22.4"/>
  </g>
  <linearGradient id="SVGID_7_" gradientUnits="userSpaceOnUse" x1="-73.41" y1="701.6741" x2="262.92" y2="701.6741" gradientTransform="translate(.02 -609.83)">
    <stop offset="0" stop-color="#00C8D7"/>
    <stop offset="1" stop-color="#0A84FF"/>
  </linearGradient>
  <path class="st9" d="M82.9 97.8c-.6 0-1.1-.2-1.6-.6l-15-12.1c-1.5-1-2.7-2.2-3.7-3.7-3.3-5.1-2.6-11.7 1.7-16 5-5 13-5 17.9 0 .1.1.3.2.5.2s.4-.1.5-.2c5.1-4.8 13.1-4.6 18 .5s4.6 13.1-.5 18c-.5.4-1 .9-1.5 1.2L84.4 97.3c-.4.3-1 .5-1.5.5zm41 23.7l11-9c4.4-3 5.6-9 2.7-13.4-3-4.4-9-5.6-13.4-2.7-.5.3-1 .7-1.4 1.2 0 0-.1.1-.2.1s-.1 0-.2-.1c-3.8-3.8-9.9-3.8-13.7 0-3.2 3.2-3.8 8.3-1.3 12.2.7 1.1 1.7 2.1 2.8 2.8l11.1 9c.7.6 1.8.6 2.6-.1z"/>
  <path class="st1" d="M73.3 62.8c3.1 0 6.1 1.2 8.3 3.4.3.3.7.5 1.2.5.4 0 .9-.2 1.2-.5 4.6-4.5 12-4.5 16.6.1 4.5 4.6 4.5 12-.1 16.6-.5.5-1.1 1-1.7 1.4l-15 12.2c-.3.2-.6.3-.9.3s-.7-.1-.9-.3L67 84.3c-1.4-.9-2.5-2-3.4-3.4-3-4.6-2.4-10.7 1.5-14.7 2.1-2.1 5.1-3.4 8.2-3.4m0-2c-3.6 0-7.1 1.4-9.7 4-4.6 4.6-5.3 11.8-1.8 17.2 1 1.6 2.3 2.9 3.9 3.9l15 12.1c1.3 1 3.1 1 4.3 0l14.9-12.1c6.3-4.2 8-12.7 3.8-19s-12.7-8-19-3.8c-.7.5-1.3 1-1.9 1.5-2.6-2.4-6-3.8-9.5-3.8z"/>
  <path class="st3" d="M66.3 76.2h-.2c-1.1-.1-1.9-1-1.8-2.1.3-3.8 3.1-7 6.8-7.8 1-.4 2.2 0 2.6 1s0 2.2-1 2.6c-.2.1-.5.2-.8.2-2.1.5-3.6 2.2-3.8 4.3 0 1-.8 1.7-1.8 1.8z"/>
  <path class="st1" d="M115.4 95.8c2.3 0 4.5.9 6.1 2.6.2.2.5.4.9.4.3 0 .6-.1.9-.4 3.4-3.4 8.9-3.4 12.3 0 3.4 3.4 3.4 8.9 0 12.3-.4.4-.8.8-1.3 1.1l-11.1 9c-.2.2-.4.2-.7.2-.2 0-.5-.1-.7-.2l-11.1-9c-1-.7-1.9-1.5-2.5-2.5-2.2-3.4-1.7-8 1.1-10.9 1.6-1.7 3.8-2.6 6.1-2.6m0-2c-2.8 0-5.5 1.1-7.5 3.1-3.6 3.6-4.1 9.2-1.4 13.4.8 1.2 1.8 2.2 3 3l11 8.9c1.1.9 2.7.9 3.9 0l11-9c4.9-3.3 6.1-10 2.8-14.8-3.3-4.9-10-6.1-14.8-2.8-.3.2-.7.5-1 .7-2-1.6-4.5-2.6-7-2.5z"/>
  <path class="st3" d="M110.3 105.7c-.9-.1-1.5-.8-1.4-1.6.2-2.8 2.2-5.2 5-5.8.8-.2 1.6.3 1.8 1.1.2.8-.3 1.6-1.1 1.8h-.1c-1.5.3-2.7 1.6-2.8 3.2-.1.7-.7 1.3-1.4 1.3z"/>
  <path class="st1" d="M82.7 98.2c-.7 0-1.2-.6-1.2-1.2v-6.2c0-.3.1-.6.4-.9l1.7-1.7-4-4c-.5-.5-.5-1.3 0-1.8l6.3-6.3-3.9-3.9c-.2-.2-.4-.6-.4-.9v-4.6c0-.7.6-1.2 1.2-1.2s1.2.6 1.2 1.2v4.1l4.4 4.4c.5.5.5 1.3 0 1.8l-6.3 6.3 4 4c.5.5.5 1.3 0 1.8L84 91.2v5.7c0 .7-.6 1.3-1.3 1.3zm39.7 23.8c-.7 0-1.2-.6-1.2-1.2V116c0-.3.1-.6.4-.9l1.1-1.1-2.9-2.9c-.2-.2-.4-.6-.4-.9s.1-.6.4-.9l4.6-4.6-2.7-2.7c-.2-.2-.4-.6-.4-.9v-3.5c0-.7.6-1.2 1.2-1.2s1.2.6 1.2 1.2v3l3.2 3.2c.2.2.4.6.4.9s-.1.6-.4.9l-4.6 4.6 2.9 2.9c.5.5.5 1.3 0 1.8l-1.6 1.6v4.2c.1.8-.5 1.3-1.2 1.3z"/>
</svg>
