<!-- This Source Code Form is subject to the terms of the Mozilla Public
   - License, v. 2.0. If a copy of the MPL was not distributed with this
   - file, You can obtain one at http://mozilla.org/MPL/2.0/. -->

<svg xmlns="http://www.w3.org/2000/svg" xmlns:xlink="http://www.w3.org/1999/xlink" viewBox="0 0 173.87 156.5">
  <style>
    .cls-1{fill:#eaeaee;}
    .cls-2{fill:#fff;}
    .cls-3{fill:url(#linear-gradient);}
    .cls-4{fill:#f9f9fa;}
    .cls-5{fill:url(#New_Gradient_Swatch_1);}
    .cls-6{fill:url(#New_Gradient_Swatch_1-2);}
    .cls-7{fill:url(#New_Gradient_Swatch_1-3);}
    .cls-8{fill:url(#New_Gradient_Swatch_1-4);}
    .cls-9{fill:url(#linear-gradient-2);}
    .cls-10{fill:url(#New_Gradient_Swatch_1-5);}
  </style>
  <defs>
    <linearGradient id="linear-gradient" x1="55.45" y1="55.54" x2="128.28" y2="128.38" gradientUnits="userSpaceOnUse">
      <stop offset="0" stop-color="#ccfbff"/>
      <stop offset="1" stop-color="#c9e4ff"/>
    </linearGradient>
    <linearGradient id="New_Gradient_Swatch_1" x1="-4.48" y1="17.64" x2="182.52" y2="187.14" gradientUnits="userSpaceOnUse">
      <stop offset="0" stop-color="#00c8d7"/>
      <stop offset="1" stop-color="#0a84ff"/>
    </linearGradient>
    <linearGradient id="New_Gradient_Swatch_1-2" x1="-51.35" y1="-19.11" x2="201.65" y2="230.89" xlink:href="#New_Gradient_Swatch_1"/>
    <linearGradient id="New_Gradient_Swatch_1-3" x1="-22.65" y1="-46.64" x2="225.35" y2="203.36" xlink:href="#New_Gradient_Swatch_1"/>
    <linearGradient id="New_Gradient_Swatch_1-4" x1="-19.25" y1="-19.23" x2="221.25" y2="199.27" xlink:href="#New_Gradient_Swatch_1"/>
    <linearGradient id="linear-gradient-2" x1="63.01" y1="47.98" x2="135.85" y2="120.82" xlink:href="#linear-gradient"/>
    <linearGradient id="New_Gradient_Swatch_1-5" x1="-73.41" y1="91.75" x2="262.92" y2="91.75" xlink:href="#New_Gradient_Swatch_1"/>
  </defs>
  <path class="cls-1" d="M140.93,151.83H71.85a1,1,0,0,1,0-2h69.08a1,1,0,0,1,0,2Z" transform="translate(0.02 0.17)"/>
  <path class="cls-1" d="M131.6,146.72h-12a.5.5,0,0,1,0-1h12a.5.5,0,1,1,0,1Z" transform="translate(0.02 0.17)"/>
  <path class="cls-1" d="M115.89,156.33h-12a.5.5,0,1,1,0-1h12a.5.5,0,0,1,0,1Zm-20,0h-3a.5.5,0,0,1,0-1h3a.5.5,0,1,1,0,1Zm-7,0h-1a.5.5,0,0,1,0-1h1a.5.5,0,1,1,0,1Zm-10,0h-12a.5.5,0,0,1,0-1h12a.5.5,0,1,1,0,1Zm-20,0h-3a.5.5,0,1,1,0-1h3a.5.5,0,0,1,0,1Zm-7,0h-1a.5.5,0,1,1,0-1h1a.5.5,0,0,1,0,1Zm-10,0h-12a.5.5,0,1,1,0-1h12a.5.5,0,0,1,0,1Zm-20,0h-3a.5.5,0,1,1,0-1h3a.5.5,0,0,1,0,1Zm-7,0h-1a.5.5,0,1,1,0-1h1a.5.5,0,0,1,0,1Z" transform="translate(0.02 0.17)"/>
  <path class="cls-2" d="M85,20.23H106.3S99.63,5.33,113.8,3.4c12.63-1.72,17.62,11.27,17.62,11.27s1.5-7.49,9-6.05S153.3,21.94,153.3,21.94h18.57" transform="translate(0.02 0.17)"/>
  <path class="cls-1" d="M172.23,18.44h-4a.5.5,0,0,1,0-1h4a.5.5,0,0,1,0,1Zm-13,0h-1a.5.5,0,1,1,0-1h1a.5.5,0,1,1,0,1Zm-5,0h-.56a.5.5,0,0,1-.22-.05.54.54,0,0,1-.23-.23c-.11-.22-.53-1-1.2-2.08a.5.5,0,0,1,.85-.53c.53.84.9,1.52,1.1,1.89h.25a.5.5,0,1,1,0,1Zm-47.56-.61h-1.32a.5.5,0,1,1,0-1h.58c-.09-.25-.2-.56-.32-.92a.5.5,0,1,1,1-.31c.3.93.56,1.52.56,1.53a.5.5,0,0,1-.46.7Zm-9.32,0h-12a.5.5,0,1,1,0-1h12a.5.5,0,1,1,0,1Zm7.87-5.48a.5.5,0,0,1-.5-.44c0-.34-.07-.68-.09-1a.5.5,0,1,1,1-.06c0,.33,0,.65.09,1a.5.5,0,0,1-.44.56Zm26.15-1a.5.5,0,0,1-.45-.28c-.12-.25-.27-.54-.45-.87a.5.5,0,1,1,.88-.48c.19.34.34.65.47.91a.5.5,0,0,1-.45.72ZM147.48,10a.5.5,0,0,1-.35-.14,13.18,13.18,0,0,0-6.43-3.72,7.66,7.66,0,0,0-3.88.16.5.5,0,1,1-.32-.95,8.66,8.66,0,0,1,4.38-.19,14.15,14.15,0,0,1,6.93,4,.5.5,0,0,1-.35.86Zm-18.8-3a.5.5,0,0,1-.39-.19,19.12,19.12,0,0,0-2-2.13A.5.5,0,0,1,127,4a20.34,20.34,0,0,1,2.1,2.24.5.5,0,0,1-.39.81ZM108.19,3.27a.5.5,0,0,1-.31-.89A12.51,12.51,0,0,1,114.1,0a16.12,16.12,0,0,1,5.66.2.5.5,0,1,1-.22,1A15.06,15.06,0,0,0,114.23,1a11.54,11.54,0,0,0-5.73,2.18A.5.5,0,0,1,108.19,3.27Z" transform="translate(0.02 0.17)"/>
  <path class="cls-2" d="M172.85,22.23h0L85,22.21a1,1,0,1,1,0-2h0l87.87,0a1,1,0,1,1,0,2Z" transform="translate(0.02 0.17)"/>
  <path class="cls-2" d="M.76,37.55H12.62s-3.71-8.29,4.17-9.36c7-1,9.8,6.26,9.8,6.26s.83-4.16,5-3.37,7.16,7.41,7.16,7.41H49.08" transform="translate(0.02 0.17)"/>
  <path class="cls-1" d="M13,36.23H1.13a.5.5,0,0,1,0-1H12.59a.5.5,0,0,1,.8.18l0,.12a.5.5,0,0,1-.46.7Zm32.86-.15h-3a.5.5,0,1,1,0-1h3a.5.5,0,1,1,0,1ZM27,32.86l-.14,0a.5.5,0,0,1-.34-.62,4.66,4.66,0,0,1,4.4-3.55,6,6,0,0,1,1.11.11,9.37,9.37,0,0,1,4.88,3,.5.5,0,1,1-.73.69,8.42,8.42,0,0,0-4.34-2.73,5,5,0,0,0-.93-.09,3.63,3.63,0,0,0-3.44,2.84A.5.5,0,0,1,27,32.86ZM13.4,28.53a.5.5,0,0,1-.36-.85,6,6,0,0,1,2.82-1.57.5.5,0,1,1,.26,1,5,5,0,0,0-2.36,1.29A.5.5,0,0,1,13.4,28.53Zm7.52-1.35-.15,0a7.39,7.39,0,0,0-.91-.23.5.5,0,0,1,.19-1,8.41,8.41,0,0,1,1,.26.5.5,0,0,1-.15,1Z" transform="translate(0.02 0.17)"/>
  <path class="cls-2" d="M49.84,39.56H1a1,1,0,1,1,0-2H49.84a1,1,0,1,1,0,2Z" transform="translate(0.02 0.17)"/>
  <path class="cls-2" d="M135.34,77H120.06V60.18a7.56,7.56,0,0,0-7.55-7.55H51.08a7.56,7.56,0,0,0-7.55,7.55v40.74a7.55,7.55,0,0,0,1,3.67,5.88,5.88,0,0,0-1,1.6l-6.89,16.12a5.73,5.73,0,0,0-.46,2.26v1.05a6.1,6.1,0,0,0,6.22,6h60v3.19a7.45,7.45,0,0,0,7.45,7.45h25.55a7.46,7.46,0,0,0,7.45-7.45V84.49A7.46,7.46,0,0,0,135.34,77Z" transform="translate(0.02 0.17)"/>
  <rect class="cls-2" x="47.3" y="56.55" width="68.54" height="47.84" rx="3.55" ry="3.55"/>
  <rect class="cls-2" x="50.64" y="62.52" width="61.86" height="38.58" rx="2.09" ry="2.09"/>
  <path class="cls-3" d="M110.38,63.35a1.09,1.09,0,0,1,1.09,1.09V98.83a1.09,1.09,0,0,1-1.09,1.09H52.71a1.09,1.09,0,0,1-1.09-1.09V64.44a1.09,1.09,0,0,1,1.09-1.09h57.67" transform="translate(0.02 0.17)"/>
  <path class="cls-4" d="M115.72,107.47a2.23,2.23,0,0,0-2.06-1.23H49a2.22,2.22,0,0,0-2.07,1.27L40,123.63a1.76,1.76,0,0,0-.14.69v1.05a2.1,2.1,0,0,0,2.22,2H121a2.1,2.1,0,0,0,2.22-2v-1a1.77,1.77,0,0,0-.16-.73Z" transform="translate(0.02 0.17)"/>
  <path class="cls-5" d="M124.88,122.78l-7.34-16.14a4,4,0,0,0-1.64-1.79,5.54,5.54,0,0,0,1.91-4.18V59.93a5.56,5.56,0,0,0-5.55-5.55H50.83a5.56,5.56,0,0,0-5.55,5.55v40.74a5.53,5.53,0,0,0,1.74,4,4,4,0,0,0-2,2l-6.89,16.12a3.75,3.75,0,0,0-.3,1.48v1.05a4.1,4.1,0,0,0,4.22,4H121a4.1,4.1,0,0,0,4.22-4v-1A3.75,3.75,0,0,0,124.88,122.78Zm-1.66,2.59a2.1,2.1,0,0,1-2.22,2H42.09a2.1,2.1,0,0,1-2.22-2v-1.05a1.76,1.76,0,0,1,.14-.69L46.9,107.5A2.22,2.22,0,0,1,49,106.24h64.69a2.23,2.23,0,0,1,2.06,1.23l7.34,16.14a1.77,1.77,0,0,1,.16.73ZM47.27,100.66V59.93a3.55,3.55,0,0,1,3.55-3.55h61.43a3.55,3.55,0,0,1,3.55,3.55v40.74a3.55,3.55,0,0,1-3.55,3.55H50.83A3.55,3.55,0,0,1,47.27,100.66Z" transform="translate(0.02 0.17)"/>
  <path class="cls-6" d="M94.71,121.68H68.43c-.43,0-.81-.25-.79-.53.33-1.7.48-2.59.82-4.38,0-.24.3-.43.68-.43l25.34-.19c.38,0,.66.17.66.41a43.55,43.55,0,0,1,.44,4.53C95.55,121.4,95.14,121.68,94.71,121.68ZM64,112.2H60.07c-.34,0-.61.15-.66.36-.11.48-.17.72-.28,1.2s.39.66.91.66l3.82,0c.34,0,.61-.14.67-.35.13-.47.2-.71.34-1.19S64.53,112.2,64,112.2Zm9.85,0-4.07,0c-.38,0-.69.17-.73.4-.09.48-.13.71-.21,1.18-.05.31.37.61.87.6l3.95,0a.73.73,0,0,0,.74-.4c.12-.47.18-.7.31-1.18C74.76,112.46,74.35,112.16,73.83,112.16Zm20.57,1.46c-.06-.46-.1-.69-.16-1.16,0-.23-.33-.39-.71-.39l-4.07,0c-.52,0-.95.3-.88.61l.26,1.16c0,.23.35.39.73.39l3.95,0C94,114.22,94.45,113.93,94.4,113.63Zm-9.93.09-.2-1.17c0-.25-.38-.43-.79-.43l-3.68,0c-.41,0-.76.19-.81.44-.1.47-.15.71-.25,1.17-.06.3.32.57.8.56l4.09,0C84.13,114.28,84.52,114,84.47,113.72Zm19.61-.19-.23-1.15c0-.2-.3-.34-.64-.34H99.3c-.54,0-1,.33-.93.65l.3,1.15c.05.2.32.34.65.34l3.82,0C103.67,114.17,104.14,113.84,104.08,113.53Zm-39.11-5H61.26a.64.64,0,0,0-.64.33c-.13.44-.2.66-.32,1.09s.33.61.83.61h3.62a.66.66,0,0,0,.65-.33c.15-.44.23-.66.39-1.09S65.49,108.53,65,108.53Zm9.36,0H70.46c-.37,0-.67.16-.72.37-.11.44-.16.66-.26,1.1s.33.56.81.56h3.77a.72.72,0,0,0,.72-.37c.13-.44.2-.66.33-1.1S74.83,108.5,74.33,108.5Zm19.61,1.4-.16-1.1c0-.22-.31-.37-.68-.37H89.23c-.5,0-.91.28-.85.58l.24,1.09c0,.21.34.37.7.36h3.77C93.57,110.46,94,110.19,93.94,109.9Zm-9.49.06-.17-1.1c0-.23-.35-.4-.74-.4H80c-.39,0-.73.18-.79.41-.11.44-.17.66-.27,1.1-.07.28.29.53.76.53h3.92C84.12,110.5,84.5,110.25,84.45,110Zm18.67-.13-.22-1.1c0-.2-.28-.33-.61-.33h-3.7c-.52,0-1,.32-.88.62l.29,1.09c.05.19.3.32.63.32h3.62C102.74,110.44,103.19,110.13,103.13,109.83Zm-48.06,2.4H51.32a.71.71,0,0,0-.69.36,9.8,9.8,0,0,0-.39,1.21c-.09.33.37.67.88.67l3.7,0c.33,0,.58-.15.63-.36a7.82,7.82,0,0,1,.39-1.2C56,112.57,55.59,112.23,55.06,112.23Zm1.32-3.68h-3.5a.57.57,0,0,0-.59.32,10,10,0,0,1-.37,1.09c-.12.3.23.61.7.61h3.45a.72.72,0,0,0,.67-.33c.2-.44.29-.66.45-1.09S56.87,108.55,56.38,108.55Zm50.9,4.12a7.26,7.26,0,0,1,.34,1.14c0,.2.29.33.62.33l3.7,0c.51,0,1-.32.9-.63a9.34,9.34,0,0,0-.34-1.14.68.68,0,0,0-.67-.34h-3.74C107.57,112,107.17,112.36,107.28,112.67Zm-1.1-3.66a8.86,8.86,0,0,0,.36,1.09.66.66,0,0,0,.64.32h3.45c.47,0,.84-.3.75-.6a7.35,7.35,0,0,1-.27-1.1c0-.2-.25-.33-.56-.33H107C106.55,108.39,106.1,108.71,106.18,109Z" transform="translate(0.02 0.17)"/>
  <circle class="cls-7" cx="82.57" cy="59.42" r="1.15"/>
  <rect class="cls-2" x="105.11" y="79.96" width="34.45" height="59.17" rx="4.45" ry="4.45"/>
  <path class="cls-8" d="M135.09,80.79a3.45,3.45,0,0,1,3.45,3.45v50.28a3.45,3.45,0,0,1-3.45,3.45H109.53a3.45,3.45,0,0,1-3.45-3.45V84.24a3.45,3.45,0,0,1,3.45-3.45h25.55m0-2H109.53a5.45,5.45,0,0,0-5.45,5.45v50.28a5.45,5.45,0,0,0,5.45,5.45h25.55a5.45,5.45,0,0,0,5.45-5.45V84.24a5.45,5.45,0,0,0-5.45-5.45Z" transform="translate(0.02 0.17)"/>
  <rect class="cls-2" x="109.42" y="84.79" width="25.82" height="45.33" rx="1.72" ry="1.72"/>
  <path class="cls-9" d="M133.49,85.62a.72.72,0,0,1,.72.72v41.88a.72.72,0,0,1-.72.72H111.12a.72.72,0,0,1-.72-.72V86.34a.72.72,0,0,1,.72-.72h22.37" transform="translate(0.02 0.17)"/>
  <path class="cls-10" d="M82.85,97.67a2.47,2.47,0,0,1-1.55-.55L66.32,85a12.45,12.45,0,0,1-3.66-3.66,12.77,12.77,0,0,1,1.67-16,12.69,12.69,0,0,1,17.95,0,.67.67,0,0,0,.49.22.68.68,0,0,0,.48-.21A12.71,12.71,0,1,1,99.26,85L84.41,97.12A2.49,2.49,0,0,1,82.85,97.67Zm41,23.7,11-9a9.67,9.67,0,1,0-12.19-14.9.24.24,0,0,1-.17.08.25.25,0,0,1-.18-.09,9.66,9.66,0,0,0-13.66,0,9.72,9.72,0,0,0-1.27,12.15,9.46,9.46,0,0,0,2.78,2.78l11.09,9a2.09,2.09,0,0,0,2.63,0Z" transform="translate(0.02 0.17)"/>
  <path class="cls-2" d="M73.28,62.67a11.66,11.66,0,0,1,8.29,3.44l0,0a1.66,1.66,0,0,0,1.18.5,1.68,1.68,0,0,0,1.19-.5l0,0A11.71,11.71,0,1,1,98.7,84.16L83.78,96.34a1.48,1.48,0,0,1-.93.33,1.45,1.45,0,0,1-.92-.33l-15-12.16a11.41,11.41,0,0,1-3.41-3.4A11.82,11.82,0,0,1,65,66.08a11.65,11.65,0,0,1,8.25-3.41m0-2h0a13.6,13.6,0,0,0-9.66,4,13.77,13.77,0,0,0-1.8,17.22,13.4,13.4,0,0,0,3.91,3.92L80.67,97.9a3.47,3.47,0,0,0,4.35,0L99.89,85.77A13.71,13.71,0,1,0,82.77,64.49a13.62,13.62,0,0,0-9.49-3.82Z" transform="translate(0.02 0.17)"/>
  <path class="cls-4" d="M66.31,76h-.16a2,2,0,0,1-1.79-2.11,8.69,8.69,0,0,1,6.8-7.8A2,2,0,1,1,72,69.92a4.8,4.8,0,0,0-3.76,4.31A2,2,0,0,1,66.31,76Z" transform="translate(0.02 0.17)"/>
  <path class="cls-2" d="M115.4,95.66a8.64,8.64,0,0,1,6.14,2.55h0a1.23,1.23,0,0,0,.88.37,1.24,1.24,0,0,0,.88-.37h0a8.67,8.67,0,1,1,10.91,13.37l-11.05,9a1.1,1.1,0,0,1-.69.24,1.08,1.08,0,0,1-.68-.24l-11.13-9a8.45,8.45,0,0,1-2.53-2.52,8.76,8.76,0,0,1,1.14-10.89,8.63,8.63,0,0,1,6.11-2.52m0-2h0a10.59,10.59,0,0,0-7.52,3.11,10.72,10.72,0,0,0-1.4,13.4,10.44,10.44,0,0,0,3,3l11,8.94a3.09,3.09,0,0,0,3.87,0l11-9a10.67,10.67,0,1,0-13-16.88,10.59,10.59,0,0,0-7-2.64Z" transform="translate(0.02 0.17)"/>
  <path class="cls-4" d="M110.24,105.54h-.12a1.46,1.46,0,0,1-1.33-1.56,6.43,6.43,0,0,1,5-5.78,1.45,1.45,0,1,1,.63,2.83,3.56,3.56,0,0,0-2.78,3.19A1.45,1.45,0,0,1,110.24,105.54Z" transform="translate(0.02 0.17)"/>
</svg>
