<!-- This Source Code Form is subject to the terms of the Mozilla Public
   - License, v. 2.0. If a copy of the MPL was not distributed with this
   - file, You can obtain one at http://mozilla.org/MPL/2.0/. -->
<svg xmlns="http://www.w3.org/2000/svg" viewBox="0 0 106.6 89.6">
  <style>
    .st0{fill:#fff}
  </style>
  <path class="st0" d="M99.2 24.4H83.9V7.5c0-4.2-3.4-7.5-7.6-7.5H14.9c-4.2 0-7.5 3.4-7.5 7.5v40.7c0 1.3.4 2.6 1 3.7-.4.5-.8 1-1 1.6L.5 69.6c-.3.7-.5 1.5-.5 2.3V73c.1 3.4 2.8 6.1 6.2 6h60v3.2c0 4.1 3.3 7.4 7.4 7.4h25.6c4.1 0 7.4-3.3 7.4-7.4V31.9c.1-4.2-3.2-7.5-7.4-7.5z"/>
  <path class="st0" d="M14.6 3.7H76c2 0 3.6 1.6 3.6 3.5v40.7c0 2-1.6 3.6-3.6 3.6H14.6c-2 0-3.5-1.6-3.5-3.6V7.3c0-2 1.6-3.6 3.5-3.6z"/>
  <path class="st0" d="M16.5 9.7h57.7c1.2 0 2.1.9 2.1 2.1v34.4c0 1.2-.9 2.1-2.1 2.1H16.5c-1.2 0-2.1-.9-2.1-2.1V11.8c0-1.1 1-2.1 2.1-2.1z"/>
  <linearGradient id="SVGID_1_" gradientUnits="userSpaceOnUse" x1="19.2468" y1="-1740.7432" x2="92.0768" y2="-1813.5831" gradientTransform="matrix(1 0 0 -1 .02 -1737.83)">
    <stop offset="0" stop-color="#ccfbff"/>
    <stop offset="1" stop-color="#c9e4ff"/>
  </linearGradient>
  <path d="M74.2 10.7c.6 0 1.1.5 1.1 1.1v34.4c0 .6-.5 1.1-1.1 1.1H16.5c-.6 0-1.1-.5-1.1-1.1V11.8c0-.6.5-1.1 1.1-1.1h57.7" fill="url(#SVGID_1_)"/>
  <path class="st0" d="M79.5 54.8c-.4-.8-1.2-1.3-2.1-1.2H12.8c-.9 0-1.7.5-2.1 1.3L3.8 71c-.1.2-.1.5-.1.7v1.1c.1 1.2 1 2.1 2.2 2h78.9c1.2.1 2.2-.8 2.2-2v-1c0-.3-.1-.5-.2-.7l-7.3-16.3z"/>
  <linearGradient id="SVGID_2_" gradientUnits="userSpaceOnUse" x1="-40.7021" y1="-1702.8644" x2="146.2979" y2="-1872.3644" gradientTransform="matrix(1 0 0 -1 .02 -1737.83)">
    <stop offset="0" stop-color="#00c8d7"/>
    <stop offset="1" stop-color="#0a84ff"/>
  </linearGradient>
  <path d="M88.7 70.1L81.4 54c-.3-.8-.9-1.4-1.6-1.8 1.2-1.1 1.9-2.6 1.9-4.2V7.3c0-3.1-2.5-5.5-5.6-5.5H14.7c-3.1 0-5.5 2.5-5.5 5.5V48c0 1.5.6 3 1.7 4-.9.4-1.6 1.1-2 2L2 70.2c-.2.5-.3 1-.3 1.5v1.1c.1 2.3 1.9 4.1 4.2 4h78.9c2.3.1 4.2-1.7 4.2-4v-1c0-.6-.1-1.2-.3-1.7zM87 72.7c-.1 1.2-1 2.1-2.2 2H5.9c-1.2.1-2.2-.8-2.2-2v-1.1c0-.2 0-.5.1-.7l6.9-16.1c.4-.8 1.2-1.3 2.1-1.3h64.7c.9 0 1.7.5 2.1 1.2l7.3 16.1c.1.2.2.5.2.7l-.1 1.2zM11.1 48V7.3c0-2 1.6-3.5 3.5-3.5H76c2 0 3.6 1.6 3.6 3.5V48c0 2-1.6 3.6-3.5 3.6H14.7c-2 0-3.6-1.6-3.6-3.6z" fill="url(#SVGID_2_)"/>
  <linearGradient id="SVGID_3_" gradientUnits="userSpaceOnUse" x1="-87.5994" y1="-1666.14" x2="165.4006" y2="-1916.14" gradientTransform="matrix(1 0 0 -1 .02 -1737.83)">
    <stop offset="0" stop-color="#00c8d7"/>
    <stop offset="1" stop-color="#0a84ff"/>
  </linearGradient>
  <path d="M58.5 69H32.2c-.4 0-.8-.2-.8-.5.3-1.7.5-2.6.8-4.4 0-.2.3-.4.7-.4l25.3-.2c.4 0 .7.2.7.4.2 1.5.4 3 .4 4.5.1.4-.3.6-.8.6zm-30.7-9.4h-3.9c-.3 0-.6.2-.7.4-.1.5-.2.7-.3 1.2s.4.7.9.7h3.8c.3 0 .6-.1.7-.3.1-.5.2-.7.3-1.2s-.3-.8-.8-.8zm9.9 0h-4.1c-.4 0-.7.2-.7.4-.1.5-.1.7-.2 1.2-.1.3.4.6.9.6h3.9c.3 0 .6-.1.7-.4.1-.5.2-.7.3-1.2.1-.4-.3-.7-.8-.6zM58.2 61c-.1-.5-.1-.7-.2-1.2 0-.2-.3-.4-.7-.4h-4.1c-.5 0-.9.3-.9.6l.3 1.2c0 .2.3.4.7.4h3.9c.6 0 1.1-.3 1-.6zm-9.9.1l-.2-1.2c0-.2-.4-.4-.8-.4h-3.7c-.4 0-.8.2-.8.4-.1.5-.2.7-.2 1.2-.1.3.3.6.8.6h4.1c.4-.1.8-.3.8-.6zm19.6-.2l-.2-1.2c0-.2-.3-.3-.6-.3h-3.9c-.5 0-1 .3-.9.7l.3 1.2c.1.2.3.3.7.3h3.8c.4-.1.9-.4.8-.7zm-39.1-5h-3.7c-.3 0-.5.1-.6.3-.1.4-.2.7-.3 1.1s.3.6.8.6h3.6c.3 0 .5-.1.7-.3.2-.4.2-.7.4-1.1s-.4-.6-.9-.6zm9.4 0h-3.9c-.4 0-.7.2-.7.4-.1.4-.2.7-.3 1.1s.3.6.8.6h3.8c.3 0 .6-.1.7-.4.1-.4.2-.7.3-1.1s-.3-.6-.7-.6zm19.6 1.4l-.2-1.1c0-.2-.3-.4-.7-.4H53c-.5 0-.9.3-.8.6l.2 1.1c0 .2.3.4.7.4h3.8c.5-.1.9-.3.9-.6zm-9.5.1l-.2-1.1c0-.2-.3-.4-.7-.4h-3.6c-.4 0-.7.2-.8.4-.1.4-.2.7-.3 1.1-.1.3.3.5.8.5h3.9c.5 0 .9-.3.9-.5zm18.7-.1l-.2-1.1c0-.2-.3-.3-.6-.3h-3.7c-.5 0-1 .3-.9.6l.3 1.1c.1.2.3.3.6.3h3.6c.5-.1.9-.4.9-.6zm-48.1 2.4h-3.8c-.3 0-.6.1-.7.4-.2.4-.3.8-.4 1.2-.1.3.4.7.9.7h3.7c.3 0 .6-.2.6-.4.1-.4.2-.8.4-1.2.2-.5-.2-.8-.7-.7zm1.3-3.7h-3.5c-.2 0-.5.1-.6.3-.1.4-.2.7-.4 1.1-.1.3.2.6.7.6h3.5c.3 0 .5-.1.7-.3.2-.4.3-.7.5-1.1s-.4-.7-.9-.6zm50.9 4.1c.1.4.3.8.3 1.1 0 .2.3.3.6.3h3.7c.5 0 1-.3.9-.6-.1-.4-.2-.8-.3-1.1-.1-.2-.4-.4-.7-.3h-3.7c-.5-.1-.9.2-.8.6zM70 56.4c.1.4.2.7.4 1.1.1.2.4.3.6.3h3.4c.5 0 .8-.3.8-.6-.1-.4-.2-.7-.3-1.1 0-.2-.2-.3-.6-.3h-3.5c-.4 0-.9.3-.8.6z" fill="url(#SVGID_3_)"/>
  <g>
    <linearGradient id="SVGID_4_" gradientUnits="userSpaceOnUse" x1="-58.8206" y1="-1638.5309" x2="189.1794" y2="-1888.5308" gradientTransform="matrix(1 0 0 -1 0 -1738)">
      <stop offset="0" stop-color="#00c8d7"/>
      <stop offset="1" stop-color="#0a84ff"/>
    </linearGradient>
    <circle cx="46.4" cy="6.6" r="1.2" fill="url(#SVGID_4_)"/>
  </g>
  <path class="st0" d="M73.4 27.2H99c2.5 0 4.4 2 4.4 4.4v50.3c0 2.5-2 4.4-4.4 4.4H73.4c-2.5 0-4.4-2-4.4-4.4V31.6c-.1-2.4 1.9-4.4 4.4-4.4z"/>
  <linearGradient id="SVGID_5_" gradientUnits="userSpaceOnUse" x1="-55.4553" y1="-1665.9757" x2="185.0447" y2="-1884.4757" gradientTransform="matrix(1 0 0 -1 .02 -1737.83)">
    <stop offset="0" stop-color="#00c8d7"/>
    <stop offset="1" stop-color="#0a84ff"/>
  </linearGradient>
  <path d="M98.9 28.2c1.9 0 3.4 1.5 3.4 3.4v50.3c0 1.9-1.5 3.4-3.4 3.4H73.3c-1.9 0-3.4-1.5-3.4-3.4V31.6c0-1.9 1.5-3.4 3.4-3.4h25.6m0-2H73.3c-3 0-5.4 2.4-5.4 5.4v50.3c0 3 2.4 5.4 5.4 5.4h25.6c3 0 5.4-2.4 5.4-5.4V31.6c.1-3-2.4-5.4-5.4-5.4z" fill="url(#SVGID_5_)"/>
  <g>
    <path class="st0" d="M74.9 32h22.4c.9 0 1.7.8 1.7 1.7v41.9c0 .9-.8 1.7-1.7 1.7H74.9c-.9 0-1.7-.8-1.7-1.7V33.7c0-.9.8-1.7 1.7-1.7z"/>
    <linearGradient id="SVGID_6_" gradientUnits="userSpaceOnUse" x1="26.795" y1="-1733.1949" x2="99.635" y2="-1806.0349" gradientTransform="matrix(1 0 0 -1 .02 -1737.83)">
      <stop offset="0" stop-color="#ccfbff"/>
      <stop offset="1" stop-color="#c9e4ff"/>
    </linearGradient>
    <path d="M97.3 33c.4 0 .7.3.7.7v41.9c0 .4-.3.7-.7.7H74.9c-.4 0-.7-.3-.7-.7V33.7c0-.4.3-.7.7-.7h22.4" fill="url(#SVGID_6_)"/>
  </g>
  <linearGradient id="SVGID_7_" gradientUnits="userSpaceOnUse" x1="-109.61" y1="-1776.874" x2="226.72" y2="-1776.874" gradientTransform="matrix(1 0 0 -1 .02 -1737.83)">
    <stop offset="0" stop-color="#00c8d7"/>
    <stop offset="1" stop-color="#0a84ff"/>
  </linearGradient>
  <path d="M46.7 45c-.6 0-1.1-.2-1.6-.6l-15-12.1c-1.5-1-2.7-2.2-3.7-3.7-3.3-5.1-2.6-11.7 1.7-16 5-5 13-5 17.9 0 .1.1.3.2.5.2s.4-.1.5-.2c5.1-4.8 13.1-4.6 18 .5s4.6 13.1-.5 18c-.5.4-1 .9-1.5 1.2L48.2 44.5c-.4.3-1 .5-1.5.5zm41 23.7l11-9c4.4-3 5.6-9 2.7-13.4-3-4.4-9-5.6-13.4-2.7-.5.3-1 .7-1.4 1.2 0 0-.1.1-.2.1s-.1 0-.2-.1c-3.8-3.8-9.9-3.8-13.7 0-3.2 3.2-3.8 8.3-1.3 12.2.7 1.1 1.7 2.1 2.8 2.8l11.1 9c.7.6 1.8.6 2.6-.1z" fill="url(#SVGID_7_)"/>
  <path class="st0" d="M37.1 10c3.1 0 6.1 1.2 8.3 3.4.3.3.7.5 1.2.5.4 0 .9-.2 1.2-.5 4.6-4.5 12-4.5 16.6.1 4.5 4.6 4.5 12-.1 16.6-.5.5-1.1 1-1.7 1.4l-15 12.2c-.3.2-.6.3-.9.3s-.7-.1-.9-.3l-15-12.2c-1.4-.9-2.5-2-3.4-3.4-3-4.6-2.4-10.7 1.5-14.7C31 11.3 34 10 37.1 10m0-2c-3.6 0-7.1 1.4-9.7 4-4.6 4.6-5.3 11.8-1.8 17.2 1 1.6 2.3 2.9 3.9 3.9l15 12.1c1.3 1 3.1 1 4.3 0l14.9-12.1c6.3-4.2 8-12.7 3.8-19s-12.7-8-19-3.8c-.7.5-1.3 1-1.9 1.5C44 9.4 40.6 8 37.1 8z"/>
  <path class="st0" d="M30.1 23.4h-.2c-1.1-.1-1.9-1-1.8-2.1.3-3.8 3.1-7 6.8-7.8 1-.4 2.2 0 2.6 1s0 2.2-1 2.6c-.2.1-.5.2-.8.2-2.1.5-3.6 2.2-3.8 4.3 0 1-.8 1.7-1.8 1.8zM79.2 43c2.3 0 4.5.9 6.1 2.6.2.2.5.4.9.4.3 0 .6-.1.9-.4 3.4-3.4 8.9-3.4 12.3 0s3.4 8.9 0 12.3c-.4.4-.8.8-1.3 1.1L87 68c-.2.2-.4.2-.7.2-.2 0-.5-.1-.7-.2l-11.1-9c-1-.7-1.9-1.5-2.5-2.5-2.2-3.4-1.7-8 1.1-10.9 1.6-1.7 3.8-2.6 6.1-2.6m0-2c-2.8 0-5.5 1.1-7.5 3.1-3.6 3.6-4.1 9.2-1.4 13.4.8 1.2 1.8 2.2 3 3l11 8.9c1.1.9 2.7.9 3.9 0l11-9c4.9-3.3 6.1-10 2.8-14.8-3.3-4.9-10-6.1-14.8-2.8-.3.2-.7.5-1 .7-2-1.6-4.5-2.6-7-2.5z"/>
  <path class="st0" d="M74.1 52.9c-.9-.1-1.5-.8-1.4-1.6.2-2.8 2.2-5.2 5-5.8.8-.2 1.6.3 1.8 1.1.2.8-.3 1.6-1.1 1.8h-.1c-1.5.3-2.7 1.6-2.8 3.2-.1.7-.7 1.3-1.4 1.3z"/>
  <path class="st0" d="M46.4 45.3c-.7 0-1.2-.6-1.2-1.2v-6.2c0-.3.1-.6.4-.9l1.7-1.7-4-4c-.5-.5-.5-1.3 0-1.8l6.3-6.3-3.9-3.9c-.2-.2-.4-.6-.4-.9v-4.6c0-.7.6-1.2 1.2-1.2s1.2.6 1.2 1.2v4.1l4.4 4.4c.5.5.5 1.3 0 1.8l-6.3 6.3 4 4c.5.5.5 1.3 0 1.8l-2.1 2.1V44c0 .7-.6 1.3-1.3 1.3zm39.7 23.8c-.7 0-1.2-.6-1.2-1.2v-4.8c0-.3.1-.6.4-.9l1.1-1.1-2.9-2.9c-.2-.2-.4-.6-.4-.9s.1-.6.4-.9l4.6-4.6-2.7-2.7c-.2-.2-.4-.6-.4-.9v-3.5c0-.7.6-1.2 1.2-1.2s1.2.6 1.2 1.2v3l3.2 3.2c.2.2.4.6.4.9s-.1.6-.4.9L86 57.3l2.9 2.9c.5.5.5 1.3 0 1.8l-1.6 1.6v4.2c.1.8-.5 1.3-1.2 1.3z"/>
</svg>
