<!-- This Source Code Form is subject to the terms of the Mozilla Public
   - License, v. 2.0. If a copy of the MPL was not distributed with this
   - file, You can obtain one at http://mozilla.org/MPL/2.0/. -->
<svg xmlns="http://www.w3.org/2000/svg" width="10" height="22">
  <path d="m 8.280,16.293 -3.293,3.293 -3.293,-3.293 a 1,1 0 0 0 -1.414,1.414 l 4,4 a 1,1 0 0 0 1.414,0 l 4,-4 a 1,1 0 0 0 -1.414,-1.414 z M 5.694,0.293 a 1,1 0 0 0 -1.414,0 L 0.28,4.293 a 1,1 0 0 0 1.414,1.414 l 3.293,-3.293 3.293,3.293 a 1,1 0 0 0 1.414,-1.414 z" fill="#0c0c0d" fill-opacity=".8"/>
  <circle cx="5" cy="11" r="2" fill="#0c0c0d" fill-opacity=".6"/>
</svg>
