<!-- This Source Code Form is subject to the terms of the Mozilla Public
   - License, v. 2.0. If a copy of the MPL was not distributed with this
   - file, You can obtain one at http://mozilla.org/MPL/2.0/. -->
<svg xmlns="http://www.w3.org/2000/svg" viewBox="0 0 16 16" width="16" height="16" fill="context-fill" fill-opacity="context-fill-opacity">
  <path d="M8.5 1a7.5 7.5 0 1 0 0 15 7.5 7.5 0 0 0 0-15zm2.447 1.75a6.255 6.255 0 0 1 3.756 5.125l-2.229 0A9.426 9.426 0 0 0 10.54 2.75l.407 0zm-2.049 0a8.211 8.211 0 0 1 2.321 5.125l-5.438 0A8.211 8.211 0 0 1 8.102 2.75l.796 0zm-2.846 0 .408 0a9.434 9.434 0 0 0-1.934 5.125l-2.229 0A6.254 6.254 0 0 1 6.052 2.75zm0 11.5a6.252 6.252 0 0 1-3.755-5.125l2.229 0A9.426 9.426 0 0 0 6.46 14.25l-.408 0zm2.05 0a8.211 8.211 0 0 1-2.321-5.125l5.437 0a8.211 8.211 0 0 1-2.321 5.125l-.795 0zm2.846 0-.409 0a9.418 9.418 0 0 0 1.934-5.125l2.229 0a6.253 6.253 0 0 1-3.754 5.125z"/>
</svg>
