<!-- This Source Code Form is subject to the terms of the Mozilla Public
   - License, v. 2.0. If a copy of the MPL was not distributed with this
   - file, You can obtain one at http://mozilla.org/MPL/2.0/. -->
<svg xmlns="http://www.w3.org/2000/svg" viewBox="0 0 16 16" width="16" height="16" fill="context-fill" fill-opacity="context-fill-opacity">
  <path d="M7 12.4c0 .3-.3.6-.6.6s-.6-.3-.6-.6l0-4.8c-.1-.3.2-.6.6-.6s.6.3.6.6l0 4.8z"/>
  <path d="M10.2 12.4c0 .3-.3.6-.6.6s-.6-.3-.6-.6l0-4.8c0-.3.3-.6.6-.6s.6.3.6.6l0 4.8z"/>
  <path d="M13.6 3 11 3l0-1c0-1.1-.9-2-2-2L7 0C5.9 0 5 .9 5 2l0 1-2.6 0c-.4 0-.6.2-.6.6s.2.6.6.6l.4 0 0 9.8c0 1.1.9 2 2 2l6.5 0c1.1 0 2-.9 2-2l0-9.8.4 0c.3 0 .6-.3.6-.6S14 3 13.6 3zM6.3 1.8l.6-.6 2.3 0 .6.6 0 1.2-3.5 0c0 0 0-1.2 0-1.2zM12 14.1l-.6.6-6.8 0-.6-.6 0-9.9 8 0 0 9.9z"/>
</svg>
