<!-- This Source Code Form is subject to the terms of the Mozilla Public
   - License, v. 2.0. If a copy of the MPL was not distributed with this
   - file, You can obtain one at http://mozilla.org/MPL/2.0/. -->
<svg xmlns="http://www.w3.org/2000/svg" viewBox="0 0 16 16" width="16" height="16" fill="context-fill" fill-opacity="context-fill-opacity">
  <path d="M10.707 1a.5.5 0 0 0-.354.854l1.454 1.454-3.625 3.625a.628.628 0 0 0 0 .885.63.63 0 0 0 .885-.001l3.625-3.625.281.281 1.173 1.173A.5.5 0 0 0 15 5.293L15 1.3l-.3-.3-3.993 0z"/>
  <path d="M7.375 2.25a.625.625 0 0 0 0-1.25L3 1a2 2 0 0 0-2 2l0 10a2 2 0 0 0 2 2l10 0a2 2 0 0 0 2-2l0-4.375a.625.625 0 0 0-1.25 0l0 4.525-.6.6-10.3 0-.6-.6 0-10.3.6-.6 4.525 0z"/>
</svg>
