<!-- This Source Code Form is subject to the terms of the Mozilla Public
   - License, v. 2.0. If a copy of the MPL was not distributed with this
   - file, You can obtain one at http://mozilla.org/MPL/2.0/. -->
<svg xmlns="http://www.w3.org/2000/svg" viewBox="0 0 16 16" width="16" height="16" fill="context-fill" fill-opacity="context-fill-opacity">
  <path d="M15 6.578 15 12a2 2 0 0 1-2 2L3 14a2 2 0 0 1-2-2l0-8a2 2 0 0 1 2-2l7.422 0a2 2 0 0 1 1.414.586l2.578 2.578A2 2 0 0 1 15 6.578zM10 3.25l-7.15 0-.6.6 0 8.3.6.6 10.3 0 .6-.6 0-5.15-3.15 0-.6-.6 0-3.15z"/>
</svg>
