<!-- This Source Code Form is subject to the terms of the Mozilla Public
   - License, v. 2.0. If a copy of the MPL was not distributed with this
   - file, You can obtain one at http://mozilla.org/MPL/2.0/. -->
<svg xmlns="http://www.w3.org/2000/svg" viewBox="0 0 16 16" width="16" height="16" fill="context-fill" fill-opacity="context-fill-opacity">
  <path d="m13 3 0-1a1 1 0 0 0-1-1l-2 0a1 1 0 0 0-1 1l0 1-2 0 0-1a1 1 0 0 0-1-1L4 1a1 1 0 0 0-1 1l0 1a2 2 0 0 0-2 2l0 7a2 2 0 0 0 2 2l10 0a2 2 0 0 0 2-2l0-7a2 2 0 0 0-2-2zm.75 9.15-.6.6-10.3 0-.6-.6 0-7.3.6-.6 10.3 0 .6.6 0 7.3z"/>
</svg>
