<!-- This Source Code Form is subject to the terms of the Mozilla Public
   - License, v. 2.0. If a copy of the MPL was not distributed with this
   - file, You can obtain one at http://mozilla.org/MPL/2.0/. -->
<svg xmlns="http://www.w3.org/2000/svg" viewBox="0 0 16 16" width="16" height="16" fill="context-fill" fill-opacity="context-fill-opacity">
  <path d="m13 4-1 0 0-2a2 2 0 0 0-2-2L6 0a2 2 0 0 0-2 2l0 2-1 0a2 2 0 0 0-2 2l0 5a2 2 0 0 0 2 2l1 0 0 1a2 2 0 0 0 2 2l4 0a2 2 0 0 0 2-2l0-1 1 0a2 2 0 0 0 2-2l0-5a2 2 0 0 0-2-2zm-2.25 10.15-.6.6-4.3 0-.6-.6 0-4.15 5.5 0 0 4.15zm0-10.15-5.5 0 0-2.15.6-.6 4.3 0 .6.6 0 2.15zM13 7.6l-.4.4-1.2 0-.4-.4 0-1.2.4-.4 1.2 0 .4.4 0 1.2z"/>
</svg>
