<!-- This Source Code Form is subject to the terms of the Mozilla Public
   - License, v. 2.0. If a copy of the MPL was not distributed with this
   - file, You can obtain one at http://mozilla.org/MPL/2.0/. -->
<svg xmlns="http://www.w3.org/2000/svg" width="15" height="15" viewBox="0 0 15 15">
  <path d="M14.342 2.129l-.482-.483a.5.5 0 0 1 0 .708L2.354 13.86a.5.5 0 0 1-.708 0l.483.482a.5.5 0 0 0 .707 0L14.342 2.836a.5.5 0 0 0 0-.707z" fill="#f9f9fa" opacity=".5"/>
  <path d="M14.356 5.649l-.5-.5a.5.5 0 0 1 0 .707l-8 8a.5.5 0 0 1-.707 0l.5.5a.5.5 0 0 0 .707 0l8-8a.5.5 0 0 0 0-.707z" fill="#f9f9fa" opacity=".5"/>
  <path d="M14.363 9.158l-.511-.511a.5.5 0 0 1 0 .707l-4.5 4.5a.5.5 0 0 1-.707 0l.511.511a.5.5 0 0 0 .707 0l4.5-4.5a.5.5 0 0 0 0-.707z" fill="#f9f9fa" opacity=".5"/>
  <path d="M14.315 12.621l-.468-.468a.5.5 0 0 1 0 .707l-.993.993a.5.5 0 0 1-.707 0l.468.468a.5.5 0 0 0 .707 0l.993-.993a.5.5 0 0 0 0-.707z" fill="#f9f9fa" opacity=".5"/>
  <path d="M13.86 1.646a.5.5 0 0 0-.708 0L1.646 13.152a.5.5 0 1 0 .708.708L13.86 2.354a.5.5 0 0 0 0-.708z" fill="#0c0c0d" opacity=".6"/>
  <path d="M13.854 5.146a.5.5 0 0 0-.707 0l-8 8a.5.5 0 0 0 .707.707l8-8a.5.5 0 0 0 0-.707z" fill="#0c0c0d" opacity=".6"/>
  <path d="M13.852 8.647a.5.5 0 0 0-.707 0l-4.5 4.5a.5.5 0 0 0 .707.707l4.5-4.5a.5.5 0 0 0 0-.707z" fill="#0c0c0d" opacity=".6"/>
  <path d="M13.847 12.153a.5.5 0 0 0-.707 0l-.993.993a.5.5 0 1 0 .707.707l.993-.993a.5.5 0 0 0 0-.707z" fill="#0c0c0d" opacity=".6"/>
</svg>
