<!-- This Source Code Form is subject to the terms of the Mozilla Public
   - License, v. 2.0. If a copy of the MPL was not distributed with this
   - file, You can obtain one at http://mozilla.org/MPL/2.0/. -->
<svg xmlns="http://www.w3.org/2000/svg" width="15" height="15" viewBox="0 0 15 15">
  <path d="M 0.658,2.129 1.14,1.646 a 0.5,0.5 0 0 0 0,0.708 L 12.646,13.86 a 0.5,0.5 0 0 0 0.708,0 l -0.483,0.482 a 0.5,0.5 0 0 1 -0.707,0 L 0.658,2.836 a 0.5,0.5 0 0 1 0,-0.707 z" fill="#f9f9fa" opacity=".4"/>
  <path d="m 0.644,5.649 0.5,-0.5 a 0.5,0.5 0 0 0 0,0.707 l 8,8 a 0.5,0.5 0 0 0 0.707,0 l -0.5,0.5 a 0.5,0.5 0 0 1 -0.707,0 l -8,-8 a 0.5,0.5 0 0 1 0,-0.707 z" fill="#f9f9fa" opacity=".4"/>
  <path d="M 0.637,9.158 1.148,8.647 a 0.5,0.5 0 0 0 0,0.707 l 4.5,4.5 a 0.5,0.5 0 0 0 0.707,0 l -0.511,0.511 a 0.5,0.5 0 0 1 -0.707,0 l -4.5,-4.5 a 0.5,0.5 0 0 1 0,-0.707 z" fill="#f9f9fa" opacity=".4"/>
  <path d="m 0.685,12.621 0.468,-0.468 a 0.5,0.5 0 0 0 0,0.707 l 0.993,0.993 a 0.5,0.5 0 0 0 0.707,0 l -0.468,0.468 a 0.5,0.5 0 0 1 -0.707,0 L 0.685,13.328 a 0.5,0.5 0 0 1 0,-0.707 z" fill="#f9f9fa" opacity=".4"/>
  <path d="m 1.14,1.646 a 0.5,0.5 0 0 1 0.708,0 L 13.354,13.152 A 0.5006316,0.5006316 0 1 1 12.646,13.86 L 1.14,2.354 a 0.5,0.5 0 0 1 0,-0.708 z" fill="#0c0c0d" opacity=".4"/>
  <path d="m 1.146,5.146 a 0.5,0.5 0 0 1 0.707,0 l 8,8 a 0.5,0.5 0 0 1 -0.707,0.707 l -8,-8 a 0.5,0.5 0 0 1 0,-0.707 z" fill="#0c0c0d" opacity=".4"/>
  <path d="m 1.148,8.647 a 0.5,0.5 0 0 1 0.707,0 l 4.5,4.5 a 0.5,0.5 0 0 1 -0.707,0.707 l -4.5,-4.5 a 0.5,0.5 0 0 1 0,-0.707 z" fill="#0c0c0d" opacity=".4"/>
  <path d="m 1.153,12.153 a 0.5,0.5 0 0 1 0.707,0 l 0.993,0.993 A 0.5,0.5 0 1 1 2.146,13.853 L 1.153,12.86 a 0.5,0.5 0 0 1 0,-0.707 z" fill="#0c0c0d" opacity=".4"/>
</svg>
