<!-- This Source Code Form is subject to the terms of the Mozilla Public
   - License, v. 2.0. If a copy of the MPL was not distributed with this
   - file, You can obtain one at http://mozilla.org/MPL/2.0/. -->
<svg xmlns="http://www.w3.org/2000/svg" viewBox="0 0 16 16" width="16" height="16" fill="context-fill" fill-opacity="context-fill-opacity">
  <path d="m6 10.5 0 .5c0 1.1-.9 2-2 2-1.1 0-2-.9-2-2l0-.5a.5.5 0 0 1 .5-.5l3 0a.5.5 0 0 1 .5.5z"/>
  <path d="m5.805 7.084-.257 1.671-3.503 0-.309-1.474a3.79 3.79 0 0 0-.237-.751c-.179-.409-.463-1.147-.49-1.77-.257-5.847 5.268-6.552 5.683-.75.046.643-.153 1.651-.52 2.181-.199.29-.318.577-.367.893z"/>
  <path d="m13.07 12.5 0 .5c0 1.1-.9 2-2 2-1.1 0-2-.9-2-2l0-.5a.5.5 0 0 1 .5-.5l3 0a.5.5 0 0 1 .5.5z"/>
  <path d="m9.679 8.669-.037 2.081 3.521 0 .49-1.18c.098-.245.217-.478.363-.698.247-.371.655-1.05.79-1.658C16.074 1.5 10.755-.153 9.339 5.488c-.157.625-.136 1.652.133 2.239.147.32.214.623.207.942z"/>
</svg>
