<!-- This Source Code Form is subject to the terms of the Mozilla Public
   - License, v. 2.0. If a copy of the MPL was not distributed with this
   - file, You can obtain one at http://mozilla.org/MPL/2.0/. -->
<svg xmlns="http://www.w3.org/2000/svg" viewBox="0 0 16 16">
  <path fill="context-fill" d="M16,11 C16,11.5522847 15.5522847,12 15,12 C14.4477153,12 14,11.5522847 14,11 C14,8.23857625 11.7614237,6 9,6 C6.94968096,6 5.18760031,7.23409522 4.41604369,9 L7.0043326,9 C7.55661734,9 8.0043326,9.44771525 8.0043326,10 C8.0043326,10.5522847 7.55661734,11 7.0043326,11 L2,11 C1.44771525,11 1,10.5522847 1,10 L1,5 C1,4.44771525 1.44771525,4 2,4 C2.55228475,4 3,4.44771525 3,5 L3,7.39241339 C4.22489715,5.35958217 6.45367486,4 9,4 C12.8659932,4 16,7.13400675 16,11 Z"></path>
</svg>
