<svg xmlns="http://www.w3.org/2000/svg" height="128" width="128" viewBox="0 0 16 16">
<style>
  g {
    fill: #5a5b5c;
  }
  g#light:target {
    fill: #bfbfbf;
  }
</style>
<symbol id="icon">
  <path d="M3,1h10a3,3,0,0,1,3,3v8a3,3,0,0,1,-3,3h-10a3,3,0,0,1,-3,-3v-8a3,3,0,0,1,3,-3Z M3,3h 4a1,1,0,0,1,1,1v8a1,1,0,0,1,-1,1h -4a1,1,0,0,1,-1,-1v-8a1,1,0,0,1,1,-1Z" fill-rule="evenodd" />
  <circle cx="3.5" cy="4.5" r=".6" />
  <circle cx="3.5" cy="6.5" r=".6" />
  <circle cx="3.5" cy="8.5" r=".6" />
  <rect x="4.75" y="4" height="1" width="2.25" rx=".5" ry=".5" />
  <rect x="4.75" y="6" height="1" width="2.25" rx=".5" ry=".5" />
  <rect x="4.75" y="8" height="1" width="2.25" rx=".5" ry=".5" />
</symbol>
<g id="light"><use href="#icon"/></g>
</svg>
