<?xml version="1.0" encoding="utf-8"?>
<!-- This Source Code Form is subject to the terms of the Mozilla Public
   - License, v. 2.0. If a copy of the MPL was not distributed with this
   - file, You can obtain one at http://mozilla.org/MPL/2.0/. -->
<svg xmlns="http://www.w3.org/2000/svg" width="64" height="64" viewBox="0 0 64 64">
  <ellipse cx="32" cy="34" rx="29.5" ry="30" fill="#000" fill-opacity=".1"/>
  <circle cx="32" cy="32" r="30" fill="#58bf43"/>
  <circle cx="32" cy="32" r="29.5" stroke="#41a833" stroke-width="1" fill="none"/>
  <path d="M50,47.131L47.131,50,36.776,39.647a16.038,16.038,0,1,1,2.871-2.871ZM27,15A12,12,0,1,0,39,27,12,12,0,0,0,27,15Z" stroke="#41a833" stroke-width="2" fill="none"/>
  <path d="M50,47.131L47.131,50,36.776,39.647a16.038,16.038,0,1,1,2.871-2.871ZM27,15A12,12,0,1,0,39,27,12,12,0,0,0,27,15Z" fill="#fff"/>
  <circle cx="27" cy="27" r="13" fill="#fff" fill-opacity=".2"/>
</svg>
