<!-- This Source Code Form is subject to the terms of the Mozilla Public
   - License, v. 2.0. If a copy of the MPL was not distributed with this
   - file, You can obtain one at http://mozilla.org/MPL/2.0/. -->
<svg width="16px" height="11px" viewBox="-1 73 16 11" version="1.1" xmlns="http://www.w3.org/2000/svg" xmlns:xlink="http://www.w3.org/1999/xlink">
  <g id="Shape-Copy-3-+-Shape-Copy-4" stroke="none" stroke-width="1" fill="none" fill-rule="evenodd" transform="translate(0.000000, 74.000000)">
    <path d="M0.749321284,4.16081709 L4.43130681,0.242526751 C4.66815444,-0.00952143591 5.06030999,-0.0211407611 5.30721074,0.216574262 C5.55411149,0.454289284 5.56226116,0.851320812 5.32541353,1.103369 L1.95384971,4.69131519 L5.48809879,8.09407556 C5.73499955,8.33179058 5.74314922,8.72882211 5.50630159,8.9808703 C5.26945396,9.23291849 4.87729841,9.24453781 4.63039766,9.00682279 L0.827097345,5.34502101 C0.749816996,5.31670099 0.677016974,5.27216098 0.613753508,5.21125118 C0.427367989,5.03179997 0.377040713,4.7615583 0.465458792,4.53143559 C0.492371834,4.43667624 0.541703274,4.34676528 0.613628034,4.27022448 C0.654709457,4.22650651 0.70046335,4.19002189 0.749321284,4.16081709 Z" id="Shape-Copy-3" stroke="#FFFFFF" stroke-width="0.05" fill="#DDE1E4"></path>
    <path d="M13.7119065,5.44453032 L9.77062746,9.09174784 C9.51677479,9.3266604 9.12476399,9.31089603 8.89504684,9.05653714 C8.66532968,8.80217826 8.68489539,8.40554539 8.93874806,8.17063283 L12.5546008,4.82456128 L9.26827469,1.18571135 C9.03855754,0.931352463 9.05812324,0.534719593 9.31197591,0.299807038 C9.56582858,0.0648944831 9.95783938,0.0806588502 10.1875565,0.335017737 L13.72891,4.25625178 C13.8013755,4.28980469 13.8684335,4.3382578 13.9254821,4.40142604 C14.0883019,4.58171146 14.1258883,4.83347168 14.0435812,5.04846202 C14.0126705,5.15680232 13.9526426,5.2583679 13.8641331,5.34027361 C13.8174417,5.38348136 13.7660763,5.41820853 13.7119065,5.44453032 Z" id="Shape-Copy-4" stroke="#FFFFFF" stroke-width="0.05" fill="#DDE1E4"></path>
  </g>
</svg>
