<svg height="16" viewBox="0 0 15 16" width="15" xmlns="http://www.w3.org/2000/svg"><g fill="none" fill-rule="evenodd" transform="translate(0 1)"><path d="m1.5 13.5 10-13" stroke="#000" stroke-linecap="square"/><path d="m7.58013626 3-.75408823 1h-4.82604803c-.53612439 0-.77556634.12770238-.9020017.32999894-.07178403.11485445-.0979983.24068295-.0979983.27000106v4.8c0 .02931811.02621427.15514661.0979983.27000106.12643536.20229656.36587731.32999894.9020017.32999894h.30151865l-.73328118.9724077c-1.56823747-.2118785-1.56823747-1.5724077-1.56823747-1.5724077v-4.8s0-1.6 2-1.6zm3.94638894.52652517 3.4734748 3.47347483-4 4h-5.10913424l.75408823-1h3.94083241l3-3-2.6672362-2.66723627z" fill="#000" fill-rule="nonzero"/></g></svg>