<?xml version="1.0" encoding="UTF-8" standalone="no"?>
<!DOCTYPE svg PUBLIC "-//W3C//DTD SVG 1.1//EN" "http://www.w3.org/Graphics/SVG/1.1/DTD/svg11.dtd">
<!-- Created with Vectornator (http://vectornator.io/) -->
<svg height="1024.0pt" stroke-miterlimit="10" style="fill-rule:nonzero;clip-rule:evenodd;stroke-linecap:round;stroke-linejoin:round;" version="1.1" viewBox="0 0 1024 1024" width="1024.0pt" xml:space="preserve" xmlns="http://www.w3.org/2000/svg" xmlns:xlink="http://www.w3.org/1999/xlink">
<defs>
<linearGradient gradientTransform="matrix(0.446181 886.661 -886.661 0.446181 512.121 69.0755)" gradientUnits="userSpaceOnUse" id="LinearGradient" x1="0" x2="1" y1="0" y2="0">
<stop offset="0" stop-color="#7405e8"/>
<stop offset="0.5" stop-color="#5309e8"/>
<stop offset="1" stop-color="#0511e8"/>
</linearGradient>
<filter color-interpolation-filters="sRGB" filterUnits="userSpaceOnUse" height="740.062" id="Filter" width="825.184" x="99.4078" y="149.969">
<feDropShadow dx="-3.49691e-07" dy="8" flood-color="#130054" flood-opacity="0.354228" in="SourceGraphic" result="Shadow" stdDeviation="16"/>
</filter>
<radialGradient cx="0" cy="0" gradientTransform="matrix(1.14793 820.003 -820.003 1.14793 511.964 -1.13687e-13)" gradientUnits="userSpaceOnUse" id="RadialGradient" r="1">
<stop offset="0" stop-color="#381e95"/>
<stop offset="0.69958" stop-color="#260b85"/>
<stop offset="1" stop-color="#1c056c"/>
</radialGradient>
<linearGradient gradientTransform="matrix(-0.686179 658.217 -658.217 -0.686179 511.007 184.091)" gradientUnits="userSpaceOnUse" id="LinearGradient_2" x1="0" x2="1" y1="0" y2="0">
<stop offset="0" stop-color="#ffffff"/>
<stop offset="1" stop-color="#c1c3e5"/>
</linearGradient>
<filter color-interpolation-filters="sRGB" filterUnits="userSpaceOnUse" height="451.817" id="Filter_2" width="992.163" x="-0.49994" y="200.402">
<feDropShadow dx="-4.37114e-07" dy="10" flood-color="#090028" flood-opacity="0.498993" in="SourceGraphic" result="Shadow" stdDeviation="15"/>
</filter>
</defs>
<clipPath id="ArtboardFrame">
<rect height="1024" width="1024" x="0" y="0"/>
</clipPath>
<g clip-path="url(#ArtboardFrame)" id="レイヤー-1-コピー">
<g opacity="1">
<path d="M330.888 68.0084L693.112 68.0084C734.659 68.0084 785.179 97.1761 805.952 133.156L987.064 446.852C1007.84 482.832 1007.84 541.168 987.064 577.148L805.952 890.844C785.179 926.824 734.659 955.992 693.112 955.992L330.888 955.992C289.341 955.992 238.821 926.824 218.048 890.844L36.9358 577.148C16.1626 541.168 16.1626 482.832 36.9358 446.852L218.048 133.156C238.821 97.176 289.341 68.0084 330.888 68.0084Z" fill="url(#LinearGradient)" fill-rule="nonzero" opacity="1" stroke="none"/>
<g filter="url(#Filter)">
<path d="M696.583 215.701L860.893 500.296C864.625 506.76 864.625 517.24 860.893 523.704L696.583 808.299C692.851 814.763 683.775 820.003 676.311 820.003L347.689 820.003C340.225 820.003 331.149 814.763 327.417 808.299L163.106 523.704C159.374 517.24 159.374 506.76 163.106 500.296L327.417 215.701C331.149 209.237 340.225 203.997 347.689 203.997L676.311 203.997C683.775 203.997 692.851 209.237 696.583 215.701Z" fill="url(#RadialGradient)" fill-rule="nonzero" opacity="1" stroke="none"/>
<path d="M350.406 181.969C334.411 181.969 314.967 193.21 306.969 207.062L145.406 486.906C137.408 500.759 137.408 523.241 145.406 537.094L306.969 816.938C314.967 830.79 334.41 842.031 350.406 842.031L356.656 842.031C365.493 842.031 372.656 834.868 372.656 826.031L372.656 614.219C372.656 607.591 378.029 602.219 384.656 602.219L827.969 602.219C835.118 602.219 843.793 597.238 847.438 591.062L878.594 537.094C886.592 523.241 886.592 500.759 878.594 486.906L873.813 478.656C870.308 472.587 861.79 467.656 854.781 467.656L384.656 467.656C378.029 467.656 372.656 462.284 372.656 455.656L372.656 327.031C372.656 320.404 378.029 315.031 384.656 315.031L757.875 315.031C769.738 315.031 774.561 306.707 768.656 296.438L717.031 207.062C709.033 193.21 689.589 181.969 673.594 181.969L350.406 181.969Z" fill="url(#LinearGradient_2)" fill-rule="nonzero" opacity="1" stroke="none"/>
</g>
</g>
<g filter="url(#Filter_2)">
<path d="M899.875 227.938C896.887 227.818 893.848 227.999 890.781 228.5L74.7188 362C50.213 366.024 33.5957 389.146 37.5938 413.656L48.75 481.688C52.2431 502.958 70.1259 518.252 90.8125 519.312C97.2488 535.722 112.832 546.914 130.438 547.781C136.887 564.14 152.403 575.308 169.969 576.188C177.559 595.48 197.77 607.603 219.062 604.125L423.125 570.719C444.424 567.226 459.717 549.309 460.75 528.594C477.111 522.145 488.278 506.631 489.156 489.062C498.687 485.324 506.3 478.42 511.312 469.906C518.78 476.389 528.202 480.495 538.438 481C544.885 497.383 560.412 508.569 578 509.438C585.59 528.73 605.801 540.853 627.094 537.375L831.125 503.969C852.413 500.477 867.703 482.577 868.75 461.875C885.116 455.436 896.265 439.909 897.156 422.344C913.576 415.921 924.743 400.355 925.625 382.75C944.943 375.161 957.062 354.937 953.562 333.625C953.562 333.625 942.611 266.719 942.438 265.656C938.936 244.191 920.792 228.774 899.875 227.938Z" fill="#ffffff" fill-rule="nonzero" opacity="1" stroke="none"/>
<path d="M898.031 272.906L864.031 278.469L830.031 284.031L796.031 289.594L762.031 295.156L728.031 300.719L694 306.281L660.031 311.844L626 317.406L592.031 322.969L558 328.531L524.031 334.094L490 339.656L456 345.219L422 350.781L388 356.344L354 361.906L320 367.469L286 373.031L252 378.594L218 384.156L184 389.719L149.969 395.281L116 400.844L82 406.406L87.5625 440.406L93.125 474.406L127.125 468.844L132.688 502.844L166.688 497.281L172.219 531.281L206.25 525.719L211.812 559.688L245.781 554.156L279.812 548.562L313.812 543.031L347.812 537.438L381.812 531.906L415.812 526.312L410.25 492.344L444.25 486.781L438.688 452.781L472.719 447.219L467.125 413.219L461.594 379.219L495.562 373.656L529.594 368.094L535.156 402.094L540.719 436.094L574.688 430.531L580.25 464.531L614.281 458.969L619.844 492.969L653.812 487.406L687.844 481.844L721.812 476.281L755.844 470.719L789.812 465.156L823.844 459.594L818.281 425.594L852.281 420.031L846.719 386.031L880.719 380.469L875.156 346.469L909.156 340.906L903.594 306.906L898.031 272.906ZM665.594 345.844L671.156 379.844L705.125 374.281L710.719 408.281L744.719 402.719L750.281 436.719L716.25 442.281L710.719 408.281L676.719 413.844L682.281 447.844L648.25 453.406L642.688 419.406L608.719 424.969L603.156 390.969L569.125 396.531L563.562 362.531L597.594 356.969L603.156 390.969L637.125 385.406L631.562 351.406L665.594 345.844ZM637.125 385.406L642.688 419.406L676.719 413.844L671.156 379.844L637.125 385.406ZM257.562 412.594L263.125 446.594L297.125 441.031L302.688 475.031L336.688 469.469L342.25 503.469L308.25 509.031L302.688 475.031L268.688 480.594L274.25 514.594L240.25 520.156L234.688 486.156L200.688 491.719L195.125 457.719L161.094 463.281L155.562 429.281L189.562 423.719L195.125 457.719L229.125 452.156L223.562 418.156L257.562 412.594ZM229.125 452.156L234.688 486.156L268.688 480.594L263.125 446.594L229.125 452.156Z" fill="#000000" fill-rule="nonzero" opacity="1" stroke="#ffffff" stroke-linecap="butt" stroke-linejoin="round" stroke-width="0.1"/>
</g>
</g>
</svg>
