<?xml version="1.0" encoding="UTF-8" standalone="no"?>
<!DOCTYPE svg PUBLIC "-//W3C//DTD SVG 1.1//EN" "http://www.w3.org/Graphics/SVG/1.1/DTD/svg11.dtd">
<!-- Created with Vectornator (http://vectornator.io/) -->
<svg height="100%" stroke-miterlimit="10" style="fill-rule:nonzero;clip-rule:evenodd;stroke-linecap:round;stroke-linejoin:round;" version="1.1" viewBox="262 316.581 500 362.169" width="100%" xml:space="preserve" xmlns="http://www.w3.org/2000/svg" xmlns:xlink="http://www.w3.org/1999/xlink">
<defs/>
<g id="レイヤー-1">
<path d="M446.181 316.587C445.425 316.564 444.681 316.601 443.969 316.694L394.323 323.163C388.628 323.904 382.217 328.799 380.012 334.102L360.788 380.33C358.583 385.633 359.618 393.635 363.107 398.196L393.529 437.971C396.907 442.386 403.979 445.394 409.595 444.913L456.845 379.064L494.316 377.401C494.952 372.572 493.758 366.938 491.036 363.38L460.599 323.605C457.545 319.614 451.469 316.745 446.181 316.587Z" fill="#ff613d" fill-rule="nonzero" opacity="1" stroke="none"/>
<path d="M508.558 362.931C514.882 362.562 514.882 362.562 521.206 362.193C520.428 362.622 519.745 363.32 518.871 363.482C507.164 365.648 495.475 368.204 483.608 369.152C479.228 369.502 474.904 367.943 470.552 367.339C472.488 366.845 472.488 366.845 474.423 366.351C471.672 366.548 471.672 366.548 468.922 366.744C469.486 366.211 469.486 366.211 470.05 365.678C451.563 359.387 451.563 359.387 433.076 353.097C433.652 361.211 436.091 369.407 434.803 377.439C433.138 387.816 427.867 397.28 424.4 407.201C429.092 396.629 429.092 396.629 433.785 386.057C433.828 386.779 434.153 387.54 433.912 388.222C430.748 397.2 427.772 406.293 423.632 414.865C420.672 420.995 416.351 426.37 412.71 432.122C413.379 432.45 413.379 432.45 414.047 432.778C409.359 438.649 409.359 438.649 404.672 444.521C413.204 434.058 413.204 434.058 421.737 423.595C396.216 462.618 360.528 495.75 326.287 527.042C306.229 545.372 284.136 561.404 262 577.162C269.787 575.117 277.156 571.166 283.582 566.315C296.256 556.75 308.79 546.958 320.667 536.421C355.418 505.59 387.219 471.55 419.137 437.795C406.058 457.112 388.626 473.129 372.363 489.854C357.247 505.4 341.72 520.577 325.512 534.98C306.33 552.026 286.361 569.276 263.019 579.936C274.635 577.937 286.36 573.634 295.708 566.455C313.893 552.487 331.935 538.229 348.65 522.531C377.611 495.332 406.688 468.036 432.584 437.903C445.579 422.783 449.102 399.846 464.727 387.465C474.459 379.753 489.34 384.043 501.722 383.118C519.436 381.794 537.299 382.651 554.957 380.721C565.714 379.545 568.998 365.087 559.707 359.72C553.469 356.116 546.661 353.13 539.565 351.89C536.772 351.401 534.244 353.851 531.573 354.802C523.909 357.531 516.23 360.221 508.558 362.931ZM496.272 370.267C491.16 370.759 486.015 370.817 480.881 370.927C485.952 370.382 491.201 369.273 496.272 370.267ZM758.724 581.415C743.453 573.503 728.722 564.514 714.461 554.901C729.935 564.576 745.823 573.611 762 582.057C744.983 569.929 727.651 558.232 710.949 545.674C674.716 518.43 642.225 477.029 612.456 444.943C627.563 459.098 627.563 459.098 642.669 473.253C631.728 462.236 631.728 462.236 620.787 451.219C628.021 457.464 628.021 457.464 635.255 463.709C622.124 449.245 608.036 435.595 595.864 420.315C590.745 413.89 588.449 405.576 583.64 398.917C578.896 392.347 569.204 391.476 561.63 388.597C563.086 400.477 562.932 413.73 572.119 422.728C589.232 439.486 607.77 454.747 624.876 471.512C664.71 510.551 702.939 562.873 758.724 581.415ZM703.175 546.345C708.818 550.623 708.818 550.623 714.461 554.901C710.221 552.43 706.728 549.73 703.175 546.345Z" fill="#000000" fill-rule="nonzero" opacity="1" stroke="none"/>
<path d="M427.735 522.062L427.735 552.062L432.931 552.062L432.931 531.409L433.225 531.409L441.526 551.997L445.415 551.997L453.716 531.442L454.01 531.442L454.01 552.062L459.206 552.062L459.206 522.062L452.572 522.062L443.65 543.795L443.291 543.795L434.369 522.062L427.735 522.062ZM473.748 522.062L463.193 552.062L468.977 552.062L471.461 544.677L482.768 544.677L485.252 552.062L491.069 552.062L480.48 522.062L473.748 522.062ZM495.023 522.062L495.023 552.062L505.186 552.062C508.236 552.062 510.855 551.467 513.029 550.265C515.204 549.063 516.871 547.35 518.029 545.102C519.188 542.854 519.761 540.157 519.761 537.03C519.761 533.912 519.183 531.229 518.029 528.991C516.876 526.752 515.24 525.057 513.095 523.86C510.95 522.663 508.363 522.062 505.382 522.062L495.023 522.062ZM524.925 522.062L524.925 552.062L544.565 552.062L544.565 547.52L530.35 547.52L530.35 539.317L543.422 539.317L543.422 534.775L530.35 534.775L530.35 526.605L544.435 526.605L544.435 522.062L524.925 522.062ZM560.252 522.062L560.252 552.062L565.676 552.062L565.676 522.062L560.252 522.062ZM571.592 522.062L571.592 552.062L577.049 552.062L577.049 531.638L577.278 531.638L591.428 552.062L596.265 552.062L596.265 522.062L590.873 522.062L590.873 542.52L590.611 542.52L576.461 522.062L571.592 522.062ZM500.448 526.768L505.088 526.768C507.121 526.768 508.813 527.122 510.186 527.879C511.559 528.637 512.62 529.791 513.324 531.311C514.027 532.831 514.369 534.733 514.369 537.03C514.369 539.327 514.027 541.252 513.324 542.781C512.62 544.311 511.551 545.446 510.154 546.213C508.756 546.98 507.016 547.357 504.925 547.357L500.448 547.357L500.448 526.768ZM476.984 528.206L477.245 528.206L481.297 540.298L472.931 540.298L476.984 528.206Z" fill="#000000" fill-rule="nonzero" opacity="1" stroke="none"/>
<path d="M660.656 572.75L660.656 585.156L630.5 585.156L630.5 676.094L646.125 676.094L646.125 601.938L690.969 601.938L690.969 645.5C690.969 650.199 690.145 653.682 688.5 655.938C686.855 658.193 683.73 659.312 679.125 659.312L673.344 659.312L677.281 676.094L679.406 676.094C684.388 676.094 688.616 675.441 692.094 674.125C695.571 672.809 698.401 670.881 700.562 668.344C702.724 665.806 704.279 662.619 705.219 658.812C706.159 655.006 706.625 650.575 706.625 645.5L706.625 601.938L710 601.938L710 585.156L676.438 585.156L676.438 572.75L660.656 572.75ZM382.469 577.125C374.292 579.005 366.037 580.606 357.719 581.969C349.401 583.332 341.052 584.498 332.688 585.438L335.531 601.219C338.539 601.031 341.57 600.813 344.625 600.531C347.68 600.249 350.711 599.845 353.719 599.375L353.719 645.5C353.719 650.199 352.895 653.682 351.25 655.938C349.605 658.193 346.48 659.312 341.875 659.312L310 659.312L310 676.094L342.156 676.094C347.138 676.094 351.366 675.441 354.844 674.125C358.321 672.809 361.12 670.881 363.281 668.344C365.443 665.806 366.998 662.619 367.938 658.812C368.877 655.006 369.344 650.575 369.344 645.5L369.344 596.719C372.069 596.249 374.728 595.689 377.312 595.031C379.897 594.373 382.556 593.658 385.281 592.906L382.469 577.125ZM416.094 577.688L375.219 667.5L381.281 676.938L445 660.719L453.469 678.75L468 672.125L440.906 612.375L426.25 619L437.969 645.344L397.344 656.344L430.5 584.438L416.094 577.688ZM574.875 577.688L533.969 667.5L540.031 676.938L603.75 660.719L612.219 678.75L626.75 672.125L599.688 612.375L585 619L596.719 645.344L556.125 656.344L589.25 584.438L574.875 577.688ZM469.469 582.062L469.469 598.812L531.781 598.812C524.074 610.091 514.498 617.958 503.031 622.375C503.219 620.495 503.39 618.568 503.531 616.594C503.672 614.62 503.781 612.63 503.875 610.656L487.938 609.969C487.75 621.717 486.475 632.599 484.125 642.656C481.775 652.713 478.2 661.668 473.406 669.469L487.375 677.062C491.604 669.731 494.931 661.803 497.375 653.25C499.819 644.697 501.622 635.401 502.75 625.344L507.25 638.719C516.743 635.147 524.92 630.079 531.781 623.5C538.642 616.921 544.892 608.868 550.531 599.375L544.188 582.062L469.469 582.062Z" fill="#000000" fill-rule="nonzero" opacity="1" stroke="none"/>
</g>
</svg>
