<!-- This Source Code Form is subject to the terms of the Mozilla Public
   - License, v. 2.0. If a copy of the MPL was not distributed with this
   - file, You can obtain one at http://mozilla.org/MPL/2.0/. -->
<svg width="28" height="28" xmlns="http://www.w3.org/2000/svg">
  <path fill="context-fill" fill-opacity="context-fill-opacity" d="M27.386 22.024L17.48 2.212a4 4 0 0 0-7.156 0L.418 22.032a4 4 0 0 0 3.578 5.78h19.81a4 4 0 0 0 3.58-5.788zM11.902 7.812a2 2 0 1 1 4 0v8a2 2 0 1 1-4 0v-8zm2 16.5a2.5 2.5 0 1 1 0-5 2.5 2.5 0 0 1 0 5z"/>
</svg>
