<?xml version="1.0" encoding="UTF-8" standalone="no"?>
<!DOCTYPE svg PUBLIC "-//W3C//DTD SVG 1.1//EN" "http://www.w3.org/Graphics/SVG/1.1/DTD/svg11.dtd">
<!-- Created with Vectornator (http://vectornator.io/) -->
<svg height="100%" stroke-miterlimit="10" style="fill-rule:nonzero;clip-rule:evenodd;stroke-linecap:round;stroke-linejoin:round;" version="1.1" viewBox="0 0 1024 1024" width="100%" xml:space="preserve" xmlns="http://www.w3.org/2000/svg" xmlns:xlink="http://www.w3.org/1999/xlink">
<defs/>
<g id="レイヤー-1-コピー">
<path d="M330.888 68.0084L693.112 68.0084C734.659 68.0084 785.179 97.1761 805.952 133.156L987.064 446.852C1007.84 482.832 1007.84 541.168 987.064 577.148L805.952 890.844C785.179 926.824 734.659 955.992 693.112 955.992L330.888 955.992C289.341 955.992 238.821 926.824 218.048 890.844L36.9358 577.148C16.1626 541.168 16.1626 482.832 36.9358 446.852L218.048 133.156C238.821 97.176 289.341 68.0084 330.888 68.0084Z" fill="#ff9f01" fill-rule="nonzero" opacity="1" stroke="none"/>
<path d="M443.375 233.106C396.639 233.106 358.781 270.963 358.781 317.699L358.781 755.699L665.219 755.699L665.219 317.699C665.219 270.963 627.361 233.106 580.625 233.106L443.375 233.106ZM443.375 298.199L580.625 298.199C591.41 298.199 600.125 306.914 600.125 317.699L600.125 362.231L423.875 362.231L423.875 317.699C423.875 306.914 432.59 298.199 443.375 298.199ZM259.031 362.231C228.677 362.231 204.094 386.845 204.094 417.199L204.094 700.731C204.094 731.085 228.677 755.7 259.031 755.699L308.781 755.699L308.781 362.231L259.031 362.231ZM715.219 362.231L715.219 755.699L764.969 755.699C795.323 755.699 819.906 731.085 819.906 700.731L819.906 417.199C819.906 386.845 795.323 362.231 764.969 362.231L715.219 362.231Z" fill="#fffeff" fill-rule="nonzero" opacity="1" stroke="none"/>
</g>
</svg>
