<?xml version="1.0" encoding="UTF-8" standalone="no"?>
<!DOCTYPE svg PUBLIC "-//W3C//DTD SVG 1.1//EN" "http://www.w3.org/Graphics/SVG/1.1/DTD/svg11.dtd">
<!-- Created with Vectornator (http://vectornator.io/) -->
<svg height="100%" stroke-miterlimit="10" style="fill-rule:nonzero;clip-rule:evenodd;stroke-linecap:round;stroke-linejoin:round;" version="1.1" viewBox="0 0 1024 1024" width="100%" xml:space="preserve" xmlns="http://www.w3.org/2000/svg" xmlns:xlink="http://www.w3.org/1999/xlink">
<defs/>
<g id="レイヤー-1-コピー">
<path d="M330.888 68.0084L693.112 68.0084C734.659 68.0084 785.179 97.1761 805.952 133.156L987.064 446.852C1007.84 482.832 1007.84 541.168 987.064 577.148L805.952 890.844C785.179 926.824 734.659 955.992 693.112 955.992L330.888 955.992C289.341 955.992 238.821 926.824 218.048 890.844L36.9358 577.148C16.1626 541.168 16.1626 482.832 36.9358 446.852L218.048 133.156C238.821 97.176 289.341 68.0084 330.888 68.0084Z" fill="#ff4cda" fill-rule="nonzero" opacity="1" stroke="none"/>
<path d="M375.75 725.406C344.683 725.406 319.469 750.589 319.469 781.656C319.469 812.723 344.683 837.906 375.75 837.906C406.817 837.906 432 812.723 432 781.656C432 750.589 406.817 725.406 375.75 725.406Z" fill="#ffffff" fill-rule="nonzero" opacity="1" stroke="none"/>
<path d="M654.531 725.406C623.465 725.406 598.281 750.59 598.281 781.656C598.281 812.723 623.465 837.906 654.531 837.906C685.598 837.906 710.781 812.722 710.781 781.656C710.781 750.59 685.597 725.406 654.531 725.406Z" fill="#ffffff" fill-rule="nonzero" opacity="1" stroke="none"/>
<path d="M162.156 230L122.406 298.844L161.312 298.844L222.969 298.875L272.531 628.188C278.346 666.828 313.361 696.944 352.438 696.906L700.906 696.562C719.918 696.544 735.299 681.136 735.281 662.125C735.263 643.114 719.855 627.701 700.844 627.719L352.375 628.062C347.39 628.067 341.367 622.898 340.625 617.969L334.625 578.188L723.75 578.188C745.788 578.187 766.277 560.52 769.5 538.719L796.719 354.5C799.941 332.699 784.694 315.031 762.656 315.031L295 315.031L287.562 265.531C284.517 245.292 266.873 230.077 246.406 230.062L162.156 230Z" fill="#ffffff" fill-rule="nonzero" opacity="1" stroke="none"/>
</g>
</svg>
