<?xml version="1.0" encoding="UTF-8" standalone="no"?>
<!DOCTYPE svg PUBLIC "-//W3C//DTD SVG 1.1//EN" "http://www.w3.org/Graphics/SVG/1.1/DTD/svg11.dtd">
<!-- Created with Vectornator (http://vectornator.io/) -->
<svg height="100%" stroke-miterlimit="10" style="fill-rule:nonzero;clip-rule:evenodd;stroke-linecap:round;stroke-linejoin:round;" version="1.1" viewBox="0 0 1024 1024" width="100%" xml:space="preserve" xmlns="http://www.w3.org/2000/svg" xmlns:xlink="http://www.w3.org/1999/xlink">
<defs/>
<g id="レイヤー-1-コピー">
<path d="M330.888 68.0084L693.112 68.0084C734.659 68.0084 785.179 97.1761 805.952 133.156L987.064 446.852C1007.84 482.832 1007.84 541.168 987.064 577.148L805.952 890.844C785.179 926.824 734.659 955.992 693.112 955.992L330.888 955.992C289.341 955.992 238.821 926.824 218.048 890.844L36.9358 577.148C16.1626 541.168 16.1626 482.832 36.9358 446.852L218.048 133.156C238.821 97.176 289.341 68.0084 330.888 68.0084Z" fill="#af51f5" fill-rule="nonzero" opacity="1" stroke="none"/>
<path d="M57.9688 410.406L36.9375 446.844C33.7621 452.344 31.0484 458.428 28.8438 464.812L164.812 464.812L164.812 573.531L219.219 573.531L219.219 627.906L382.312 627.906L382.312 573.531L436.688 573.531L436.688 519.156L491.031 519.156L491.031 464.812L545.406 464.812L545.406 573.531L599.781 573.531L599.781 627.906L762.875 627.906L762.875 573.531L817.281 573.531L817.281 519.156L871.625 519.156L871.625 410.406L57.9688 410.406ZM219.219 464.812L273.562 464.812L273.562 519.156L327.938 519.156L327.938 573.531L273.562 573.531L273.562 519.156L219.219 519.156L219.219 464.812ZM599.781 464.812L654.156 464.812L654.156 519.156L708.531 519.156L708.531 573.531L654.156 573.531L654.156 519.156L599.781 519.156L599.781 464.812Z" fill="#ffffff" fill-rule="nonzero" opacity="1" stroke="none"/>
</g>
</svg>
