<?xml version="1.0" encoding="UTF-8" standalone="no"?>
<!DOCTYPE svg PUBLIC "-//W3C//DTD SVG 1.1//EN" "http://www.w3.org/Graphics/SVG/1.1/DTD/svg11.dtd">
<!-- Created with Vectornator (http://vectornator.io/) -->
<svg height="100%" stroke-miterlimit="10" style="fill-rule:nonzero;clip-rule:evenodd;stroke-linecap:round;stroke-linejoin:round;" version="1.1" viewBox="0 0 1024 1024" width="100%" xml:space="preserve" xmlns="http://www.w3.org/2000/svg" xmlns:xlink="http://www.w3.org/1999/xlink">
<defs/>
<g id="レイヤー-1-コピー">
<path d="M330.888 68.0084L693.112 68.0084C734.659 68.0084 785.179 97.1761 805.952 133.156L987.064 446.852C1007.84 482.832 1007.84 541.168 987.064 577.148L805.952 890.844C785.179 926.824 734.659 955.992 693.112 955.992L330.888 955.992C289.341 955.992 238.821 926.824 218.048 890.844L36.9358 577.148C16.1626 541.168 16.1626 482.832 36.9358 446.852L218.048 133.156C238.821 97.176 289.341 68.0084 330.888 68.0084Z" fill="#af51f5" fill-rule="nonzero" opacity="1" stroke="none"/>
<path d="M308.672 248.922C300.409 248.922 292.133 252.656 285.828 260.141L240.172 314.359C227.563 329.328 217.328 357.319 217.328 376.891L217.328 727.297C217.328 746.868 233.194 762.734 252.766 762.734L364.547 762.734C384.118 762.734 399.984 746.868 399.984 727.297L399.984 678.984L624.016 678.984L624.016 727.297C624.016 746.869 639.881 762.734 659.453 762.734L771.234 762.734C790.806 762.734 806.672 746.869 806.672 727.297L806.672 376.891C806.672 357.319 796.437 329.328 783.828 314.359L738.172 260.141C725.563 245.172 705.125 245.172 692.516 260.141L646.828 314.359C634.219 329.328 624.016 357.319 624.016 376.891L624.016 428.391L399.984 428.391L399.984 376.891C399.984 357.319 389.781 329.328 377.172 314.359L331.484 260.141C325.18 252.656 316.935 248.922 308.672 248.922ZM399.984 508.391L624.016 508.391L624.016 598.984L399.984 598.984L399.984 508.391Z" fill="#ffffff" fill-rule="nonzero" opacity="1" stroke="none"/>
</g>
</svg>
