<?xml version="1.0" encoding="UTF-8" standalone="no"?>
<!DOCTYPE svg PUBLIC "-//W3C//DTD SVG 1.1//EN" "http://www.w3.org/Graphics/SVG/1.1/DTD/svg11.dtd">
<!-- Created with Vectornator (http://vectornator.io/) -->
<svg height="100%" stroke-miterlimit="10" style="fill-rule:nonzero;clip-rule:evenodd;stroke-linecap:round;stroke-linejoin:round;" version="1.1" viewBox="0 0 1024 1024" width="100%" xml:space="preserve" xmlns="http://www.w3.org/2000/svg" xmlns:xlink="http://www.w3.org/1999/xlink">
<defs/>
<g id="レイヤー-1-コピー">
<path d="M330.888 68.0084L693.112 68.0084C734.659 68.0084 785.179 97.1761 805.952 133.156L987.064 446.852C1007.84 482.832 1007.84 541.168 987.064 577.148L805.952 890.844C785.179 926.824 734.659 955.992 693.112 955.992L330.888 955.992C289.341 955.992 238.821 926.824 218.048 890.844L36.9358 577.148C16.1626 541.168 16.1626 482.832 36.9358 446.852L218.048 133.156C238.821 97.176 289.341 68.0084 330.888 68.0084Z" fill="#ff613d" fill-rule="nonzero" opacity="1" stroke="none"/>
<path d="M411.237 183.485C401.598 184.435 393.855 192.558 393.845 202.689C393.816 230.501 399.018 253.642 408.882 272.441C419.279 292.254 434.302 306.736 453.209 316.949C467.762 324.81 483.958 329.682 500.013 331.987C500.073 331.995 500.185 332.007 500.254 332.017C511.973 333.678 522.425 324.497 522.297 312.661C521.99 284.452 516.611 261.032 506.716 242.185C496.243 222.237 481.282 207.872 462.479 197.858C447.56 189.912 431.678 185.492 415.465 183.545C414.028 183.372 412.614 183.349 411.237 183.485ZM629.884 344.971C581.847 346.616 531.648 366.322 507.712 365.353C472.762 363.937 415.611 327.92 339.764 355.388C287.314 374.383 230.347 451.998 236.254 539.763C240.926 609.179 257.282 673.572 298.125 732.683C350.511 808.499 400.456 814.94 408.852 814.905C445.987 814.75 485.538 791.379 507.712 791.232C532.738 791.066 578.367 814.41 617.564 813.788C632.19 813.556 686.517 804.832 738.286 713.992C764.234 668.46 786.344 605.755 788.049 546.255C791.239 434.904 730.668 379.822 691.392 357.562C673.121 347.207 651.719 344.223 629.884 344.971Z" fill="#ffffff" fill-rule="nonzero" opacity="1" stroke="none"/>
</g>
</svg>
