<?xml version="1.0" encoding="UTF-8" standalone="no"?>
<!DOCTYPE svg PUBLIC "-//W3C//DTD SVG 1.1//EN" "http://www.w3.org/Graphics/SVG/1.1/DTD/svg11.dtd">
<!-- Created with Vectornator (http://vectornator.io/) -->
<svg height="100%" stroke-miterlimit="10" style="fill-rule:nonzero;clip-rule:evenodd;stroke-linecap:round;stroke-linejoin:round;" version="1.1" viewBox="0 0 1024 1024" width="100%" xml:space="preserve" xmlns="http://www.w3.org/2000/svg" xmlns:xlink="http://www.w3.org/1999/xlink">
<defs/>
<g id="レイヤー-1-コピー">
<path d="M330.875 68C289.329 68 238.836 97.1762 218.062 133.156L36.9375 446.844C16.1643 482.824 16.1643 541.176 36.9375 577.156L218.062 890.844C238.836 926.824 289.329 956 330.875 956L693.125 956C734.671 956 785.164 926.824 805.938 890.844L987.062 577.156C1007.84 541.176 1007.84 482.824 987.062 446.844L805.938 133.156C785.164 97.1762 734.671 68 693.125 68L330.875 68Z" fill="#999999" fill-rule="nonzero" opacity="1" stroke="none"/>
<path d="M465.094 200.531C452.904 200.531 441.73 210.323 440.125 222.406L429.156 304.969L374.031 336.781L297.125 304.938C285.861 300.273 271.782 305.097 265.688 315.656L218.812 396.875C212.718 407.434 215.587 422.035 225.25 429.469L291.281 480.281L291.281 543.75L225.25 594.562C215.586 601.995 212.718 616.566 218.812 627.125L265.688 708.344C271.782 718.902 285.856 723.715 297.125 719.062L374.125 687.25L429.156 719.031L440.125 801.594C441.73 813.677 452.904 823.469 465.094 823.469L558.906 823.469C571.096 823.469 582.27 813.677 583.875 801.594L594.844 719.031L649.875 687.25L726.875 719.062C738.144 723.714 752.218 718.903 758.312 708.344L805.188 627.125C811.282 616.566 808.39 601.985 798.719 594.562L732.719 543.906L732.719 480.25L798.75 429.469C808.414 422.035 811.282 407.434 805.188 396.875L758.312 315.656C752.218 305.098 738.143 300.284 726.875 304.938L649.875 336.75L594.844 304.969L583.875 222.406C582.27 210.323 571.096 200.531 558.906 200.531L465.094 200.531ZM512 408.531C569.139 408.531 615.469 454.861 615.469 512C615.469 569.139 569.139 615.469 512 615.469C454.861 615.469 408.531 569.139 408.531 512C408.531 454.861 454.861 408.531 512 408.531Z" fill="#ffffff" fill-rule="nonzero" opacity="1" stroke="none"/>
</g>
</svg>
