<?xml version="1.0" encoding="UTF-8" standalone="no"?>
<!DOCTYPE svg PUBLIC "-//W3C//DTD SVG 1.1//EN" "http://www.w3.org/Graphics/SVG/1.1/DTD/svg11.dtd">
<!-- Created with Vectornator (http://vectornator.io/) -->
<svg height="100%" stroke-miterlimit="10" style="fill-rule:nonzero;clip-rule:evenodd;stroke-linecap:round;stroke-linejoin:round;" version="1.1" viewBox="0 0 1024 1024" width="100%" xml:space="preserve" xmlns="http://www.w3.org/2000/svg" xmlns:xlink="http://www.w3.org/1999/xlink">
<defs/>
<g id="レイヤー-1-コピー">
<path d="M330.888 68.0084L693.112 68.0084C734.659 68.0084 785.179 97.1761 805.952 133.156L987.064 446.852C1007.84 482.832 1007.84 541.168 987.064 577.148L805.952 890.844C785.179 926.824 734.659 955.992 693.112 955.992L330.888 955.992C289.341 955.992 238.821 926.824 218.048 890.844L36.9358 577.148C16.1626 541.168 16.1626 482.832 36.9358 446.852L218.048 133.156C238.821 97.176 289.341 68.0084 330.888 68.0084Z" fill="#04c79a" fill-rule="nonzero" opacity="1" stroke="none"/>
<path d="M390.219 211.812C279.006 211.813 196.656 466.501 196.656 583.875C196.656 688.152 266.428 739.474 359.969 749.656L359.969 956L436.062 956L436.062 749.25C464.322 745.819 490.579 738.677 513.406 727.406C511.054 715.456 509.813 702.904 509.812 689.781C509.812 638.364 527.11 564.459 553.656 504.156C560.891 487.723 568.758 472.544 577.156 458.656C542.105 341.641 469.647 211.812 390.219 211.812ZM699.031 422.156C619.03 422.156 559.812 605.348 559.812 689.781C559.812 762.577 607.084 799.526 671.375 808.344L671.375 956L693.125 956C707.532 956 722.987 952.426 737.938 946.344L737.938 807.938C801.525 798.514 849.5 761.637 849.5 689.781C849.5 605.348 779.032 422.156 699.031 422.156Z" fill="#ffffff" fill-rule="nonzero" opacity="1" stroke="none"/>
</g>
</svg>
