<?xml version="1.0"?>
<!-- This Source Code Form is subject to the terms of the Mozilla Public
   - License, v. 2.0. If a copy of the MPL was not distributed with this
   - file, You can obtain one at http://mozilla.org/MPL/2.0/. -->
<svg xmlns="http://www.w3.org/2000/svg" xmlns:xlink="http://www.w3.org/1999/xlink" width="16" height="16" viewBox="0 0 16 16">
  <style>
    use:not(:target) {
      display: none;
    }
    use {
      fill: graytext;
    }
    use[id$="-active"] {
      fill: HighlightText;
    }
  </style>
  <defs>
    <path id="search-history-glyph" d="M8,1C4.1,1,1,4.1,1,8c0,3.9,3.1,7,7,7c3.9,0,7-3.1,7-7 C15,4.1,11.9,1,8,1z M8,13.3c-2.9,0-5.3-2.4-5.3-5.3S5.1,2.7,8,2.7c2.9,0,5.3,2.4,5.3,5.3S10.9,13.3,8,13.3z M10.5,7H9V5 c0-0.6-0.4-1-1-1S7,4.4,7,5v3c0,0.6,0.4,1,1,1h2.5c0.6,0,1-0.4,1-1C11.5,7.4,11.1,7,10.5,7z"/>
  </defs>
  <use id="search-history-icon" xlink:href="#search-history-glyph"/>
  <use id="search-history-icon-active" xlink:href="#search-history-glyph"/>
</svg>
