<!-- This Source Code Form is subject to the terms of the Mozilla Public
   - License, v. 2.0. If a copy of the MPL was not distributed with this
   - file, You can obtain one at http://mozilla.org/MPL/2.0/. -->
<svg xmlns="http://www.w3.org/2000/svg"
     width="16" height="16" viewBox="0 0 16 16">
  <path fill="context-fill" d="M1,7v2.2C1,9.8,1.4,10,2,10h7.5l-3,3.1c-0.4,0.3-0.4,1,0,1.4l0.8,0.8 c0.4,0.4,1,0.4,1.4,0l6.6-6.6c0.4-0.4,0.4-1,0-1.4L8.7,0.7c-0.4-0.4-1-0.4-1.4,0L6.5,1.6C6.1,2,6.1,2.6,6.5,3l3,3H2C1.4,6,1,6.4,1,7z"/>
</svg>

