<?xml version="1.0" encoding="UTF-8" standalone="no"?>
<!DOCTYPE svg PUBLIC "-//W3C//DTD SVG 1.1//EN" "http://www.w3.org/Graphics/SVG/1.1/DTD/svg11.dtd">
<!-- Created with Vectornator (http://vectornator.io/) -->
<svg height="100%" stroke-miterlimit="10" style="fill-rule:nonzero;clip-rule:evenodd;stroke-linecap:round;stroke-linejoin:round;" version="1.1" viewBox="0 0 1136 256" width="100%" xml:space="preserve" xmlns="http://www.w3.org/2000/svg" xmlns:xlink="http://www.w3.org/1999/xlink">
<defs/>
<g id="レイヤー-1">
<path d="M128 8C61.7258 8 8 61.7258 8 128C8 194.274 61.7258 248 128 248C194.274 248 248 194.274 248 128C248 61.7258 194.274 8 128 8Z" fill="#19b9dc" fill-rule="nonzero" opacity="1" stroke="none"/>
<path d="M128 40.5C90.5908 40.5 57.3197 61.9474 42.8125 93.8125C30.2112 121.491 34.2999 155.887 52.6875 178.156C74.2372 204.255 98.6453 206.982 121.938 202.781C144.184 198.769 165.687 180.564 165.688 152.406C165.688 134.683 148.898 116.375 128.188 116.375C107.477 116.375 90.6875 134.683 90.6875 152.406C90.6875 170.13 107.477 180.562 128.188 180.562C130.081 180.562 131.901 180.391 133.719 180.219C130.417 182.514 126.682 184.44 122.594 185.781C104.365 191.761 81.6661 189.718 64.25 168.625C49.5664 150.842 46.2124 122.559 56.4688 100.031C68.5429 73.5103 96.4765 55.5 128 55.5C157.172 55.5 185.107 70.8166 198.5 97.8438C205.995 112.969 207.531 131.113 202.5 147.875C197.238 165.407 185.166 180.299 167.031 190.5C165.853 191.163 165.403 192.646 166.031 193.844C167.504 196.651 169.188 199.861 170.688 202.719C171.341 203.964 172.897 204.436 174.125 203.75C195.763 191.659 210.465 173.542 216.875 152.187C223 131.781 221.12 109.688 211.938 91.1563C195.862 58.7159 162.588 40.5 128 40.5ZM109.094 80.2813C101.638 80.2813 95.5938 86.3254 95.5938 93.7813C95.5938 101.237 101.638 107.281 109.094 107.281C116.55 107.281 122.594 101.237 122.594 93.7813C122.594 86.3254 116.55 80.2813 109.094 80.2813ZM147.25 80.2813C139.794 80.2813 133.75 86.3254 133.75 93.7813C133.75 101.237 139.794 107.281 147.25 107.281C154.706 107.281 160.75 101.237 160.75 93.7813C160.75 86.3254 154.706 80.2813 147.25 80.2813ZM78.9375 102.875C71.4817 102.875 65.4375 108.919 65.4375 116.375C65.4375 123.831 71.4817 129.875 78.9375 129.875C86.3933 129.875 92.4375 123.831 92.4375 116.375C92.4375 108.919 86.3933 102.875 78.9375 102.875ZM177.062 102.875C169.607 102.875 163.562 108.919 163.562 116.375C163.562 123.831 169.607 129.875 177.062 129.875C184.518 129.875 190.562 123.831 190.562 116.375C190.562 108.919 184.518 102.875 177.062 102.875Z" fill="#d7ffff" fill-rule="nonzero" opacity="1" stroke="none"/>
<path d="M1098.38 57.0312C1096.59 56.932 1094.83 56.9687 1093.06 57.1562C1088.34 57.6564 1083.67 59.2063 1079.41 61.8438C1070.81 67.1573 1065.41 76.2278 1064.69 87.4062C1063.93 99.2012 1068.33 112.781 1077.97 127.469C1083.92 136.538 1082.26 146.792 1075.34 152.438C1071.85 155.29 1067.64 156.445 1063.22 155.562C1062.05 155.33 1060.86 154.884 1059.66 154.344C1057.31 158.844 1054.33 162.964 1050.88 166.625C1054.45 168.599 1058.14 169.904 1061.81 170.469C1069.98 171.725 1078.06 169.567 1084.81 164.062C1097.66 153.582 1100.68 134.744 1090.5 119.219C1082.52 107.053 1079.13 96.5981 1079.66 88.375C1080.06 82.026 1082.84 77.3375 1087.28 74.5938C1096.05 69.1748 1108.07 72.4579 1113.88 82.7812C1114.51 83.9026 1115.89 84.3628 1117.06 83.8438C1119.95 82.5707 1123.31 81.1033 1126.31 79.7812C1127.64 79.1973 1128.2 77.6255 1127.53 76.3438C1121.33 64.5289 1110.05 57.6815 1098.38 57.0312ZM888.5 58.875C887.119 58.875 886 59.9943 886 61.375L886 172.125C886 173.506 887.119 174.625 888.5 174.625L898.5 174.625C899.881 174.625 901 173.506 901 172.125L901 140.75L911.406 131.281C911.406 131.281 944.995 170.499 947.781 173.75C948.256 174.304 948.958 174.625 949.688 174.625C953.339 174.625 958.242 174.625 962.844 174.625C964.98 174.625 966.14 172.122 964.75 170.5C962.965 168.418 922.531 121.219 922.531 121.219C922.531 121.219 952.956 93.605 959.438 87.7188C961.13 86.1821 960.036 83.3751 957.75 83.375C952.5 83.375 946.903 83.375 942.875 83.375C942.254 83.375 941.647 83.6139 941.188 84.0312C937.471 87.4034 901 120.5 901 120.5L901 61.375C901 59.9943 899.881 58.875 898.5 58.875L888.5 58.875ZM356.812 81.4375C345.573 81.4375 335.637 85.9601 328 93.1875L328 85.75C328 84.3693 326.881 83.25 325.5 83.25L315.5 83.25C314.119 83.25 313 84.3693 313 85.75L313 172.125C313 173.506 314.119 174.625 315.5 174.625L325.5 174.625C326.881 174.625 328 173.506 328 172.125L328 128.938C328 110.592 340.711 96.4376 356.812 96.4375C373.962 96.4375 385.594 109.862 385.594 128.938L385.594 172.125C385.594 173.506 386.713 174.625 388.094 174.625L398.094 174.625C399.474 174.625 400.594 173.506 400.594 172.125L400.594 128.938C400.594 102.012 382.754 81.4375 356.812 81.4375ZM461.094 81.4375C434.86 81.4375 413.594 102.704 413.594 128.938C413.594 155.171 434.86 176.437 461.094 176.438C487.327 176.438 508.594 155.171 508.594 128.938C508.594 102.704 487.327 81.4375 461.094 81.4375ZM614.906 81.4375C588.673 81.4375 567.406 102.704 567.406 128.938C567.406 155.171 588.673 176.437 614.906 176.438C627.512 176.438 638.903 171.45 647.406 163.438L647.406 172.125C647.406 173.506 648.526 174.625 649.906 174.625L659.906 174.625C661.287 174.625 662.406 173.506 662.406 172.125L662.406 128.938C662.406 102.704 641.14 81.4375 614.906 81.4375ZM721.219 81.4375C709.979 81.4375 700.043 85.9601 692.406 93.1875L692.406 85.75C692.406 84.3693 691.287 83.25 689.906 83.25L679.906 83.25C678.526 83.25 677.406 84.3693 677.406 85.75L677.406 172.125C677.406 173.506 678.526 174.625 679.906 174.625L689.906 174.625C691.287 174.625 692.406 173.506 692.406 172.125L692.406 128.938C692.406 110.592 705.117 96.4376 721.219 96.4375C738.368 96.4375 750 109.862 750 128.938L750 172.125C750 173.506 751.119 174.625 752.5 174.625L762.5 174.625C763.881 174.625 765 173.506 765 172.125L765 128.938C765 102.012 747.161 81.4375 721.219 81.4375ZM825.5 81.4375C799.266 81.4375 778 102.704 778 128.938C778 155.171 799.266 176.437 825.5 176.438C834.69 176.438 842.032 174.945 848.531 171.719C854.404 168.804 859.552 164.285 864.781 158.531C865.728 157.49 865.63 155.855 864.562 154.938C862.117 152.834 859.389 150.491 857 148.438C855.975 147.556 854.442 147.657 853.531 148.656C849.609 152.957 845.957 156.172 842 158.156C837.414 160.456 832.264 161.437 825.5 161.438C810.138 161.438 797.33 150.762 793.938 136.438C816.729 136.437 850.166 136.438 870.125 136.438C871.373 136.438 872.422 135.517 872.594 134.281C872.822 132.637 873 130.855 873 128.938C873 102.704 851.734 81.4375 825.5 81.4375ZM1010.88 81.4375C984.641 81.4375 963.375 102.704 963.375 128.938C963.375 155.171 984.641 176.437 1010.88 176.438C1037.11 176.438 1058.37 155.171 1058.38 128.938C1058.38 102.704 1037.11 81.4375 1010.88 81.4375ZM562.75 81.5312C550.515 82.3109 539.872 88.2346 532.5 97.3438C525.68 105.731 521.594 116.788 521.594 128.938L521.594 172.125C521.594 173.506 522.713 174.625 524.094 174.625L534.094 174.625C535.474 174.625 536.594 173.506 536.594 172.125L536.594 128.938C536.594 120.396 539.242 112.906 543.812 107.188C548.566 101.118 555.383 97.1944 563.125 96.5312C564.418 96.4205 565.406 95.3293 565.406 94.0312C565.406 90.9011 565.406 87.2864 565.406 84.0312C565.406 82.588 564.19 81.4395 562.75 81.5312ZM461.094 96.4375C479.043 96.4375 493.594 110.988 493.594 128.938C493.594 146.887 479.043 161.438 461.094 161.438C443.144 161.438 428.594 146.887 428.594 128.938C428.594 110.988 443.144 96.4375 461.094 96.4375ZM614.906 96.4375C632.856 96.4375 647.406 110.988 647.406 128.938C647.406 146.887 632.856 161.438 614.906 161.438C596.957 161.438 582.406 146.887 582.406 128.938C582.406 110.988 596.957 96.4374 614.906 96.4375ZM825.5 96.4375C840.847 96.4375 853.625 107.133 857.031 121.438L793.969 121.438C797.375 107.132 810.152 96.4374 825.5 96.4375ZM1010.88 96.4375C1028.82 96.4375 1043.37 110.988 1043.38 128.938C1043.38 146.887 1028.82 161.438 1010.88 161.438C992.926 161.438 978.375 146.887 978.375 128.938C978.375 110.988 992.926 96.4375 1010.88 96.4375Z" fill="#ffffff" fill-rule="nonzero" opacity="1" stroke="none"/>
</g>
</svg>
