<?xml version="1.0" encoding="UTF-8" standalone="no"?>
<!DOCTYPE svg PUBLIC "-//W3C//DTD SVG 1.1//EN" "http://www.w3.org/Graphics/SVG/1.1/DTD/svg11.dtd">
<!-- Created with Vectornator (http://vectornator.io/) -->
<svg height="100%" stroke-miterlimit="10" style="fill-rule:nonzero;clip-rule:evenodd;stroke-linecap:round;stroke-linejoin:round;" version="1.1" viewBox="0 0 1024 1024" width="100%" xml:space="preserve" xmlns="http://www.w3.org/2000/svg" xmlns:xlink="http://www.w3.org/1999/xlink">
<defs>
<linearGradient gradientTransform="matrix(1 0 0 1 0 0)" gradientUnits="userSpaceOnUse" id="LinearGradient" x1="509.452" x2="503.694" y1="75.3239" y2="953.968">
<stop offset="0" stop-color="#af51f5"/>
<stop offset="1" stop-color="#4f1bc8"/>
</linearGradient>
</defs>
<g id="レイヤー-1">
<path d="M330.875 68C289.329 68 238.836 97.1762 218.062 133.156L36.9375 446.844C16.1643 482.824 16.1643 541.176 36.9375 577.156L218.062 890.844C238.836 926.824 289.329 956 330.875 956L693.125 956C734.671 956 785.164 926.824 805.938 890.844L987.062 577.156C1007.84 541.176 1007.84 482.824 987.062 446.844L805.938 133.156C785.164 97.1762 734.671 68 693.125 68L330.875 68Z" fill="url(#LinearGradient)" fill-rule="nonzero" opacity="1" stroke="none"/>
<path d="M524.312 209.031C369.554 209.031 244.094 334.491 244.094 489.25C244.094 560.852 270.968 626.153 315.156 675.688L249.25 740.281C238.362 750.953 245.911 769.469 261.156 769.469L524.312 769.469L529.469 769.469L529.375 769.344C681.786 766.63 804.531 642.309 804.531 489.25C804.531 334.491 679.071 209.031 524.312 209.031ZM398.375 380.031L650.25 380.031C669.58 380.031 685.25 395.701 685.25 415.031C685.25 434.361 669.58 450.031 650.25 450.031L398.375 450.031C379.045 450.031 363.375 434.361 363.375 415.031C363.375 395.701 379.045 380.031 398.375 380.031ZM398.375 512.844L564.094 512.844C583.424 512.844 599.094 528.514 599.094 547.844C599.094 567.174 583.424 582.844 564.094 582.844L398.375 582.844C379.045 582.844 363.375 567.174 363.375 547.844C363.375 528.514 379.045 512.844 398.375 512.844Z" fill="#ffffff" fill-rule="nonzero" opacity="1" stroke="none"/>
</g>
</svg>
