/* XPM */
static char *BM_QFile[] = {
/* width height num_colors chars_per_pixel */
"    32    17       10            1",
/* colors */
". c #333366",
"# c #6666cc",
"a c #c0c0c0",
"b c #008080",
"c c none",
"d c #808080",
"e c #9999ff",
"f c #ffffff",
"g c #222222",
"h c #429aa7",
/* pixels */
"ccccccccccccccccccfgcccccccccccc",
"cccccccccccccccccfhgcccccc.....c",
"ccccccccccccccccfhbgfffcccc...cc",
"cccccccccccccccfhhhhhbgccccc.ccc",
"cefffaccccfaacfhhhhhbgcccccccccc",
"ceeefffcccfeeaahhhhbgccccccccccc",
"cceeeeefffaeeefhhhbgcccccccccccc",
"cceeeeeeeeeeeefhhbg#eccccccccccc",
"ccceeeeeeeeeeefhb.#.#.cccccccccc",
"ccceeeeeeeeeeefb.#.#...ccccccccc",
"cccceeeeeeeeeeaeg.g...cccccccccc",
"cccceeeeeeeeeeeagg.g.ccccccccccc",
"ccccc#e#e#e#e#ef.gg.cccccccccccc",
"cccccc###e#e#e#f#ggccccccccccccc",
"cccccccce######a#gd..#dccccccccc",
"cccccccccccced####.ddccccccccccc",
"cccccccccccccccccccccccccccccccc"
};
