/* XPM */
static char *Dash_Secure[] = {
/* width height num_colors chars_per_pixel */
"    16    14        8            1",
/* colors */
". c #000000",
"# c #333366",
"a c #6666cc",
"b c none",
"c c #9999ff",
"d c #ffffff",
"e c #ffff00",
"f c #222222",
/* pixels */
"bbbbbeeeeeebebbb",
"bebeeaa....ebebb",
"bbeeaddddcc.ebeb",
"bebead#..ac.eebb",
"bbebad.ebfc.ebeb",
"beeead.ee#c.eebe",
"beaaca###aa##.eb",
"bbacddddddc##.ee",
"beacdaaaaaa##.eb",
"bbacdcccccc##.ee",
"beacdaaaaaa##.eb",
"bbacdcccccc##.ee",
"beaccaaaaaa##.eb",
"bbe######f...ebb"
};
