/* XPM */
static char *LocationProxy[] = {
/* width height num_colors chars_per_pixel */
"    16    16       10            1",
/* colors */
". c #333366",
"# c #6666cc",
"a c #c0c0c0",
"b c #008080",
"c c none",
"d c #808080",
"e c #9999ff",
"f c #ffffff",
"g c #ffff00",
"h c #222222",
/* pixels */
"ccccccccbbbbcccc",
"ccccccccbbb#cccc",
"cccccefcbbb#cccc",
"ccccceabbbb.fccc",
"ccccfagbbbbhdecc",
"cccceffbbb#dga#c",
"ccceagbbbb.fg#cc",
"ccafgfbbbb#gfhcc",
"ccefgabbb#dg##cc",
"cefgfbbhb#aghccc",
"eagafb.gb#g#ddcc",
"cdefbhggbhah##dd",
"cch#afgagfh###dd",
"cccd.#egaeh#ddcc",
"cccccdheehddcccc",
"cccccccdhddccccc"
};
