/* XPM */
static char *TB_Back[] = {
/* width height num_colors chars_per_pixel */
"    23    21       11            1",
/* colors */
". c #333366",
"# c #00ff00",
"a c #00373c",
"b c #c0c0c0",
"c c #008080",
"d c none",
"e c #808080",
"f c #ffffff",
"g c #008000",
"h c #222222",
"i c #429aa7",
/* pixels */
"dddddddddddd#eddddddddd",
"ddddddddddd#fcddd.....d",
"dddddddddd#fbgeddd...dd",
"ddddddddd#fb#gadddd.ddd",
"dddddddd#fb#bgaeddddddd",
"ddddddd#fb#b#ghcddddddd",
"dddddd#fb#b#bghhedddddd",
"ddddd#fb#b#b#b#badddddd",
"dddd#fb#b#b#b#b#caddddd",
"dddifb#b#b#b#b#bhhddddd",
"dddif#b#b#b#b#b#hhddddd",
"ddddgccccccccccchaddddd",
"dddddgigcgcggggghaddddd",
"ddddddgigiggggggacddddd",
"dddddddgigigggggaeddddd",
"ddddddddgiggghhhhdddddd",
"ddddddeeegiggaaaceeeedd",
"dddddddeeeaigaaeeeeeeed",
"dddddddddeeaiaaeeeeeedd",
"ddddddddddeeaaeeeeddddd",
"ddddddddddddddddddddddd"
};
