/* XPM */
static char *TB_Forward[] = {
/* width height num_colors chars_per_pixel */
"    23    21       10            1",
/* colors */
". c #333366",
"# c #00ff00",
"a c #00373c",
"b c #c0c0c0",
"c c #008080",
"d c none",
"e c #808080",
"f c #ffffff",
"g c #008000",
"h c #429aa7",
/* pixels */
"ddddddd#chddddddddddddd",
"ddddddd##ghdddddd.....d",
"dddddddhb#ghdddddd...dd",
"dddddddhfb#ghdddddd.ddd",
"dddddddhb#b#ghddddddddd",
"dddddddhfb#b#ghdddddddd",
"ddd#####b#b#b#ggddddddd",
"dddhfbfb#b#b#b#cgdddddd",
"dddhb#b#b#b#b#b#cgddddd",
"dddhfb#b#b#b#b#b#cgdddd",
"dddhb#b#b#b#b#b#bgcdddd",
"dddhfcccccccccccaacdddd",
"dddhbghghggggggaacddddd",
"ddd#fhghggggggaacdddddd",
"ddd##ghghggggaacddddddd",
"dddgaaaahgggaaceeeeeeed",
"dddddddghgga.ceeeeeeedd",
"ddddeeeghga.ceeeeeddddd",
"dddddeegga.ceeedddddddd",
"ddddddeea.cdddddddddddd",
"ddddddddddddddddddddddd"
};
