/* XPM */
static char *TB_Print[] = {
/* width height num_colors chars_per_pixel */
"    23    21       10            1",
/* colors */
". c #333366",
"# c #00ff00",
"a c #6666cc",
"b c #c0c0c0",
"c c none",
"d c #808080",
"e c #9999ff",
"f c #ffffff",
"g c #008000",
"h c #222222",
/* pixels */
"ccccccccccccccccccccccc",
"ccccccfffffffffdccccccc",
"ccccccfffbfbfbfdccccccc",
"ccccccffffbfbffdccccccc",
"ccccccfffffffffdccccccc",
"ccccccfffffffffd..ae.cc",
"ccccccfbbbbbbbbd.ae.ccc",
"ccccccbfbfbfbfd.ae.cccc",
"ccccebfbfbfbfbda..ccccc",
"ccaaeeeaaaaaaaaaa..accc",
"caffbbfbeeaaaeea..aaccc",
"cabbbbbffffbeaa..a.accc",
"cabebbbbbbbbbbb...aa.dc",
"cabeeeeeeeeeeee...a.h..",
"cabeebebebebeee..a..h.d",
"caaebebebebe#ge....h.dc",
"ccddaaaaaaaaaee...h.dcc",
"cccccccddaa.....hh.dccc",
"cccccccccccccd.h.cccccc",
"ccccccccccccccccccccccc",
"ccccccccccccccccccccccc"
};
