/* XPM */
static char *TB_Reload[] = {
/* width height num_colors chars_per_pixel */
"    23    21        9            1",
/* colors */
". c #333366",
"# c #6666cc",
"a c #c0c0c0",
"b c none",
"c c #808080",
"d c #9999ff",
"e c #000080",
"f c #ffffff",
"g c #222222",
/* pixels */
"bbbbbbbbbbbbbbbbbbbbbbb",
"bbbbbbb########.bbbbbbb",
"bbbbbb#f#d#d##ge..bbbbb",
"bbbbb#fddddd#ggge..bbbb",
"b#faaaadadadaddd#gg.bbb",
"bb#faadadadadadggg..bbb",
"bbb#faadadadadg.ee..bbb",
"bbbb#faaaaaa#g.eee..bbb",
"bbbbb#faaaa#g.eeee..bbb",
"bbbbbb#faa#g.#eeee..bbb",
"bbbbbbb#f#g.b#eeee..bbb",
"bbbbbbbb...bb#eeeg..bbb",
"bbbbbbbbbbbbb#eeeg..bcb",
"bbbbbbbbbbbbbddegg..bcc",
"bbbbbddddddddd#geg..ccc",
"bbbbbddddddddd#ggg..##b",
"bbbbbd#d#d#d#d##g.#.#cb",
"bbbbbd############.#ccb",
"bbbbbbd##.....e...#ccbb",
"bbbbbbbbbcccccccccccbbb",
"bbbbbbbbbbbbbbbbbbbbbbb"
};
