/* XPM */
static char *TB_Secure[] = {
/* width height num_colors chars_per_pixel */
"    23    21       11            1",
/* colors */
". c #000000",
"# c #333366",
"a c #6666cc",
"b c #c0c0c0",
"c c none",
"d c #808080",
"e c #9999ff",
"f c #000080",
"g c #ffffff",
"h c #ffff00",
"i c #222222",
/* pixels */
"ccccccccccccccccccccccc",
"ccccccchhhhhhcccccccccc",
"ccccchhaaaaahhccccccccc",
"cccchhaggbbea#hcccccccc",
"cccchagbfffbea#hccccccc",
"cccchagihccfbaihccccccc",
"cccchabihccfeaihccccccc",
"ccchhabihhhfeaihhcccccc",
"cchhiaeada##eai#hcccccc",
"cchaea##eeeei#aa.hccccc",
"cchaebgggbbbbea#.hccccc",
"cchaegaaaaaaaai#.hccccc",
"cchaegbbbbbbbea#.hccccc",
"cchaegaaaaaaaa##.hccccc",
"cchaegbbbbbbbea#.hccccc",
"cchaegaaaaaaaai#.dddddc",
"cchaegbbbbbbbea#.haadcc",
"cchaeaaaaaaaaa#f.dhcccc",
"cchhaf#####i#i..hhhcccc",
"ccchhhhhhhhhhhhhccccccc",
"ccccccccccccccccccccccc"
};
