<svg xmlns="http://www.w3.org/2000/svg" width="16" height="16" viewBox="0 0 16 16" fill="context-fill" fill-opacity="context-fill-opacity"><path fill-rule="evenodd" d="M14 3.25H2a.75.75 0 0 0-.75.75v8c0 .414.336.75.75.75h12a.75.75 0 0 0 .75-.75V4a.75.75 0 0 0-.75-.75ZM2 2a2 2 0 0 0-2 2v8a2 2 0 0 0 2 2h12a2 2 0 0 0 2-2V4a2 2 0 0 0-2-2H2Z" clip-rule="evenodd"/><path d="M7.583 4.294a.442.442 0 0 1 .834 0l.755 1.967a.451.451 0 0 0 .386.293l2.023.144c.404.028.568.557.257.828l-1.555 1.359a.482.482 0 0 0-.148.474l.495 2.056c.098.41-.332.737-.674.512L8.239 10.8a.432.432 0 0 0-.478 0l-1.717 1.127c-.342.225-.772-.102-.674-.512l.495-2.056a.482.482 0 0 0-.148-.474L4.162 7.526c-.31-.271-.147-.8.257-.828l2.023-.144a.451.451 0 0 0 .386-.293l.755-1.967Z"/></svg>