<svg xmlns="http://www.w3.org/2000/svg" width="16" height="16" viewBox="0 0 16 16" fill="context-fill" fill-opacity="context-fill-opacity"><path fill-rule="evenodd" d="M8.875 3.63c0-.345.28-.625.625-.625h3.87a2.625 2.625 0 0 1 2.625 2.625v7.74a2.625 2.625 0 0 1-2.625 2.625H5.63a2.625 2.625 0 0 1-2.625-2.625V9.5a.625.625 0 1 1 1.25 0v3.87c0 .76.616 1.375 1.375 1.375h7.74c.76 0 1.375-.616 1.375-1.375V5.63c0-.76-.616-1.375-1.375-1.375H9.5a.625.625 0 0 1-.625-.625Z" clip-rule="evenodd"/><path d="M12.877 13.5H6.123a.5.5 0 0 1-.372-.835l3.377-3.752a.5.5 0 0 1 .744 0l3.377 3.752a.5.5 0 0 1-.372.835ZM13 7a1 1 0 1 1-2 0 1 1 0 0 1 2 0Z"/><path fill-rule="evenodd" d="M4 8a4 4 0 1 0 0-8 4 4 0 0 0 0 8Zm.625-6.37a.625.625 0 0 0-1.25 0v1.745H1.63a.625.625 0 1 0 0 1.25h1.745V6.37a.625.625 0 1 0 1.25 0V4.625H6.37a.625.625 0 1 0 0-1.25H4.625V1.63Z" clip-rule="evenodd"/></svg>
