<svg xmlns="http://www.w3.org/2000/svg" width="16" height="16" viewBox="0 0 16 16" fill="context-fill" fill-opacity="context-fill-opacity"><path fill-rule="evenodd" d="M3.757 14.326c2.344 2.232 6.142 2.232 8.486 0 2.343-2.231 2.343-5.85 0-8.08A5.986 5.986 0 0 0 11 5.335c-.354-.195-.601-.553-.601-.957V1a1 1 0 0 0-1-1H6.6a1 1 0 0 0-1 1v3.38c0 .403-.247.761-.601.956a5.984 5.984 0 0 0-1.242.91c-2.343 2.23-2.343 5.849 0 8.08Zm7.624-7.176c-.3-.286-.631-.525-.983-.719-.684-.377-1.248-1.118-1.248-2.052V1.25h-2.3v3.13c0 .933-.564 1.674-1.248 2.051a4.734 4.734 0 0 0-.983.72 4.349 4.349 0 0 0-1.323 2.514l.394-.19a4.445 4.445 0 0 1 4.7.537 3.195 3.195 0 0 0 3.38.386l.96-.461.005-.003a4.333 4.333 0 0 0-1.354-2.784Z" clip-rule="evenodd"/></svg>