<svg xmlns="http://www.w3.org/2000/svg" width="16" height="16" viewBox="0 0 16 16" fill="context-fill" fill-opacity="context-fill-opacity"><path fill-rule="evenodd" d="M11.379 9.682a.625.625 0 0 1 .883-.008l2.546 2.5a.625.625 0 0 1 .004.888l-2.5 2.5a.625.625 0 1 1-.884-.884l1.433-1.433H7.37a.625.625 0 1 1 0-1.25h5.472l-1.455-1.43a.625.625 0 0 1-.008-.883Z" clip-rule="evenodd"/><path fill-rule="evenodd" d="M3.63 1.005A2.625 2.625 0 0 0 1.005 3.63v7.77a2.625 2.625 0 0 0 2.625 2.624h2.922a1.625 1.625 0 0 1-.8-1.25H3.63c-.76 0-1.375-.615-1.375-1.375V6.18h11.5v3.56l1.25 1.227V3.63a2.625 2.625 0 0 0-2.625-2.625H3.63Zm11.237 11.236a.614.614 0 0 0-.06-.067l-1.052-1.034v.26c0 .759-.616 1.374-1.375 1.374H6.764c.069.27.314.471.606.471h5.491l-.78.78h.299a2.626 2.626 0 0 0 2.487-1.784ZM2.255 3.63c0-.76.616-1.375 1.375-1.375h8.75c.76 0 1.375.616 1.375 1.375v1.298h-11.5V3.63Z" clip-rule="evenodd"/></svg>
