<svg xmlns="http://www.w3.org/2000/svg" width="16" height="16" viewBox="0 0 16 16" fill="context-fill" fill-opacity="context-fill-opacity"><path fill-rule="evenodd" d="M14 3.25H2a.75.75 0 0 0-.75.75v8c0 .414.336.75.75.75h12a.75.75 0 0 0 .75-.75V4a.75.75 0 0 0-.75-.75ZM2 2a2 2 0 0 0-2 2v8a2 2 0 0 0 2 2h12a2 2 0 0 0 2-2V4a2 2 0 0 0-2-2H2Z" clip-rule="evenodd"/><path d="M5.5 8.5a1.5 1.5 0 1 1-3 0 1.5 1.5 0 0 1 3 0ZM9.5 8.5a1.5 1.5 0 1 1-3 0 1.5 1.5 0 0 1 3 0ZM10.5 9.375c0-.345.28-.625.625-.625h1.75a.625.625 0 1 1 0 1.25h-1.75a.625.625 0 0 1-.625-.625Z"/></svg>
