<svg xmlns="http://www.w3.org/2000/svg" width="16" height="16" viewBox="0 0 16 16" fill="context-fill" fill-opacity="context-fill-opacity"><path  fill-rule="evenodd" d="M3.63 2.255c-.76 0-1.375.616-1.375 1.375v5.74c0 .76.616 1.375 1.375 1.375h8.74c.76 0 1.375-.616 1.375-1.375V9a.625.625 0 1 1 1.25 0v.37a2.625 2.625 0 0 1-2.625 2.625H8.625V14a.625.625 0 1 1-1.25 0v-2.005H3.63A2.625 2.625 0 0 1 1.005 9.37V3.63A2.625 2.625 0 0 1 3.63 1.005H8a.625.625 0 1 1 0 1.25H3.63Z" clip-rule="evenodd"/><path  d="M4 14.375c0-.345.28-.625.625-.625h6.75a.625.625 0 1 1 0 1.25h-6.75A.625.625 0 0 1 4 14.375Z"/><path  fill-rule="evenodd" d="M14.313 4.689a.625.625 0 0 1-.002.884l-2.25 2.24a.625.625 0 0 1-.859.022l-2.49-2.24a.625.625 0 0 1 .836-.93l1.447 1.302V1.63a.625.625 0 1 1 1.25 0v4.236l1.184-1.179a.625.625 0 0 1 .884.002Z" clip-rule="evenodd"/></svg>