<svg xmlns="http://www.w3.org/2000/svg" width="16" height="16" viewBox="0 0 16 16" fill="context-fill" fill-opacity="context-fill-opacity"><path  fill-rule="evenodd" d="M3.63 2.255c-.76 0-1.375.616-1.375 1.375v5.74c0 .76.616 1.375 1.375 1.375h8.74c.76 0 1.375-.616 1.375-1.375V3.63c0-.76-.616-1.375-1.375-1.375H3.63ZM1.005 3.63A2.625 2.625 0 0 1 3.63 1.005h8.74a2.625 2.625 0 0 1 2.625 2.625v5.74a2.625 2.625 0 0 1-2.625 2.625H8.625V14a.625.625 0 1 1-1.25 0v-2.005H3.63A2.625 2.625 0 0 1 1.005 9.37V3.63Z" clip-rule="evenodd"/><path  d="M4 14.375c0-.345.28-.625.625-.625h6.75a.625.625 0 1 1 0 1.25h-6.75A.625.625 0 0 1 4 14.375ZM7 5a1 1 0 0 1 2 0 1 1 0 0 1-2 0ZM10 5a1 1 0 1 1 2 0 1 1 0 1 1-2 0ZM4 8a1 1 0 0 1 2 0 1 1 0 0 1-2 0ZM7 8a1 1 0 0 1 2 0 1 1 0 0 1-2 0ZM10 8a1 1 0 1 1 2 0 1 1 0 1 1-2 0Z"/></svg>