<svg xmlns="http://www.w3.org/2000/svg" viewBox="0 0 16 16" width="16" height="16" fill="context-fill" fill-opacity="context-fill-opacity">
  <path d="M8.366 0a.475.475 0 0 0-.474.48v1.967l-.016.105v.09c-3.62.074-6.543 3.04-6.543 6.677a6.689 6.689 0 0 0 6.68 6.68 6.652 6.652 0 0 0 6.652-6.033.599.599 0 0 0-.538-.651.604.604 0 0 0-.65.536 5.466 5.466 0 0 1-5.464 4.955 5.493 5.493 0 0 1-5.487-5.487A5.49 5.49 0 0 1 7.89 3.835v1.762c0 .426.515.64.815.339L11.4 3.242v-.405L8.707.14a.469.469 0 0 0-.34-.14Z"/>
  <path d="m7.554 11.454-2.29-2.29c-.552-.581.29-1.424.87-.872l1.767 1.766 3.405-3.407a.617.617 0 0 1 .872.872L8.25 11.45z"/>
</svg>
