<svg xmlns="http://www.w3.org/2000/svg" width="16" height="16" viewBox="0 0 16 16" fill="context-fill" fill-opacity="context-fill-opacity"><path d="M13.942 1.94a.855.855 0 0 0-.546.186c-.157.124-.287.3-.391.527-.101.225-.178.49-.23.796a6.37 6.37 0 0 0-.073 1.001c0 .53.05.98.152 1.348.1.364.248.641.444.83a.987.987 0 0 0 .713.283c.221 0 .431-.037.63-.112.198-.075.395-.165.59-.269v1.221c-.205.114-.426.2-.664.259a3.114 3.114 0 0 1-.757.088c-.537 0-.994-.142-1.372-.425-.374-.287-.66-.702-.859-1.245-.199-.547-.298-1.21-.298-1.988 0-.533.056-1.023.166-1.47.114-.449.28-.838.498-1.166.218-.332.485-.59.801-.772A2.165 2.165 0 0 1 13.84.76c.286 0 .563.036.83.107.267.072.524.182.771.332l-.39 1.133a2.559 2.559 0 0 0-.532-.283 1.537 1.537 0 0 0-.577-.108ZM6.218.861h1.88c.735 0 1.285.145 1.65.435.368.286.552.727.552 1.323 0 .28-.04.53-.117.752a1.391 1.391 0 0 1-.328.542 1.147 1.147 0 0 1-.517.298v.049c.254.068.46.176.62.322.163.147.282.332.357.557.074.224.112.488.112.79 0 .424-.085.79-.254 1.1-.166.309-.407.548-.723.717-.316.17-.693.254-1.133.254h-2.1V.861ZM7.59 3.752h.508c.276 0 .481-.08.615-.24.137-.159.205-.393.205-.702 0-.27-.07-.476-.21-.616-.14-.143-.35-.215-.63-.215H7.59v1.773Zm0 1.089v2.007h.62c.273 0 .478-.085.615-.254.137-.17.205-.427.205-.772 0-.211-.034-.389-.102-.532a.724.724 0 0 0-.298-.332.889.889 0 0 0-.474-.117H7.59ZM4.113 8l-.37-1.719H2.154L1.785 8H.314L2.042.861h1.772L5.573 8h-1.46Zm-.58-2.91L3.145 3.2l-.078-.459c-.022-.15-.045-.293-.068-.43l-.054-.39c-.01.114-.024.24-.044.376a14.36 14.36 0 0 1-.156.884l-.38 1.909h1.166ZM10.827 9.552a.667.667 0 0 1 1.021.85l-.077.092-4.299 4.31a.667.667 0 0 1-.851.078l-.092-.077-2.334-2.335a.667.667 0 0 1 .85-1.02l.093.078L7 13.389l3.827-3.837Z"/></svg>
