<svg xmlns="http://www.w3.org/2000/svg" width="16" height="16" viewBox="0 0 16 16" fill="context-fill" fill-opacity="context-fill-opacity"><path fill-rule="evenodd" d="M10.63.505c.345 0 .625.28.625.625v6.875h1.884l-2.509 2.509-2.509-2.509h1.884V1.13c0-.345.28-.625.625-.625Z" clip-rule="evenodd"/><path fill-rule="evenodd" d="M12.255 4.25H13a.75.75 0 0 1 .75.75v7a.75.75 0 0 1-.75.75H3a.75.75 0 0 1-.75-.75V3A.75.75 0 0 1 3 2.25h2.672a.75.75 0 0 1 .53.22l.828.828a3.25 3.25 0 0 0 1.975.936v-1.26a2 2 0 0 1-1.09-.56l-.83-.828A2 2 0 0 0 5.673 1H3a2 2 0 0 0-2 2v9a2 2 0 0 0 2 2h10a2 2 0 0 0 2-2V5a2 2 0 0 0-2-2h-.745v1.25ZM10.005 3h1.25v1.25h-1.25V3Z" clip-rule="evenodd"/></svg>
