<?xml version="1.0" encoding="UTF-8" standalone="no"?>
<!DOCTYPE svg PUBLIC "-//W3C//DTD SVG 1.1//EN" "http://www.w3.org/Graphics/SVG/1.1/DTD/svg11.dtd">
<!-- Created with Vectornator (http://vectornator.io/) -->
<svg height="100%" stroke-miterlimit="10" style="fill-rule:nonzero;clip-rule:evenodd;stroke-linecap:round;stroke-linejoin:round;" version="1.1" viewBox="0 0 1024 1024" width="100%" xml:space="preserve" xmlns="http://www.w3.org/2000/svg" xmlns:xlink="http://www.w3.org/1999/xlink">
<defs>
<linearGradient gradientTransform="matrix(1 0 0 1 0 0)" gradientUnits="userSpaceOnUse" id="LinearGradient" x1="523.181" x2="514.875" y1="78.2569" y2="947.611">
<stop offset="0" stop-color="#ffcb00"/>
<stop offset="1" stop-color="#bf4c00"/>
</linearGradient>
</defs>
<g id="レイヤー-1">
<path d="M330.888 68.0084L693.112 68.0084C734.659 68.0084 785.179 97.176 805.952 133.156L987.064 446.851C1007.84 482.831 1007.84 541.166 987.064 577.146L805.952 890.841C785.179 926.821 734.659 955.988 693.112 955.988L330.888 955.988C289.341 955.988 238.821 926.821 218.048 890.841L36.9358 577.146C16.1626 541.166 16.1626 482.831 36.9358 446.851L218.048 133.156C238.821 97.1759 289.341 68.0084 330.888 68.0084Z" fill="url(#LinearGradient)" fill-rule="nonzero" opacity="1" stroke="none"/>
<path d="M374.719 269.55C315.299 269.551 259.743 290.911 220.375 327.863C215.34 332.589 212.469 339.177 212.469 346.082L212.469 707.894C212.469 729.787 238.631 741.096 254.594 726.113C284.557 697.989 327.836 681.363 374.719 681.363C421.609 681.363 464.918 697.994 494.875 726.113C505.291 735.89 520.001 734.424 529 726.175C529.041 726.143 529.084 726.151 529.125 726.113C559.088 697.989 602.367 681.363 649.25 681.363C696.141 681.363 739.449 697.994 769.406 726.113C785.369 741.096 811.531 729.787 811.531 707.894L811.531 346.082C811.531 339.177 808.66 332.589 803.625 327.863C764.261 290.915 708.676 269.551 649.25 269.55C610.759 269.551 573.897 278.558 542 294.925L542 628.144C542 644.713 528.569 658.144 512 658.144C495.431 658.144 482 644.713 482 628.144L482 294.925C450.095 278.558 413.213 269.55 374.719 269.55Z" fill="#ffffff" fill-rule="nonzero" opacity="1" stroke="none"/>
</g>
</svg>
