<?xml version="1.0" encoding="UTF-8" standalone="no"?>
<!DOCTYPE svg PUBLIC "-//W3C//DTD SVG 1.1//EN" "http://www.w3.org/Graphics/SVG/1.1/DTD/svg11.dtd">
<!-- Created with Vectornator (http://vectornator.io/) -->
<svg height="100%" stroke-miterlimit="10" style="fill-rule:nonzero;clip-rule:evenodd;stroke-linecap:round;stroke-linejoin:round;" version="1.1" viewBox="0 0 1024 1024" width="100%" xml:space="preserve" xmlns="http://www.w3.org/2000/svg" xmlns:xlink="http://www.w3.org/1999/xlink">
<defs>
<linearGradient gradientTransform="matrix(1 0 0 1 0 0)" gradientUnits="userSpaceOnUse" id="LinearGradient" x1="518.558" x2="508.706" y1="65.9204" y2="957.221">
<stop offset="0" stop-color="#36adff"/>
<stop offset="1" stop-color="#0029ea"/>
</linearGradient>
</defs>
<g id="レイヤー-1">
<path d="M330.889 68.0128L693.109 68.0128C734.656 68.0128 785.175 97.1802 805.948 133.16L987.058 446.852C1007.83 482.832 1007.83 541.168 987.058 577.147L805.948 890.84C785.175 926.819 734.656 955.987 693.109 955.987L330.889 955.987C289.342 955.987 238.823 926.819 218.05 890.84L36.9397 577.147C16.1668 541.168 16.1668 482.832 36.9397 446.852L218.05 133.16C238.823 97.1801 289.342 68.0128 330.889 68.0128Z" fill="url(#LinearGradient)" fill-rule="nonzero" opacity="1" stroke="none"/>
<path d="M253.344 328.5C244.4 328.984 235.642 332.869 229.188 340.062C216.278 354.45 217.488 376.59 231.875 389.5L368.406 512L231.875 634.5C217.488 647.409 216.278 669.55 229.188 683.938C242.097 698.325 264.238 699.534 278.625 686.625L444.188 538.062C459.688 524.154 459.688 499.846 444.188 485.938L278.625 337.375C271.431 330.92 262.288 328.016 253.344 328.5ZM513.406 625.562C494.076 625.562 478.406 641.233 478.406 660.562C478.406 679.892 494.076 695.562 513.406 695.562L768.75 695.562C788.08 695.562 803.75 679.892 803.75 660.562C803.75 641.233 788.08 625.563 768.75 625.562L513.406 625.562Z" fill="#ffffff" fill-rule="nonzero" opacity="1" stroke="none"/>
</g>
</svg>
