<?xml version="1.0" encoding="UTF-8" standalone="no"?>
<!DOCTYPE svg PUBLIC "-//W3C//DTD SVG 1.1//EN" "http://www.w3.org/Graphics/SVG/1.1/DTD/svg11.dtd">
<!-- Created with Vectornator (http://vectornator.io/) -->
<svg height="100%" stroke-miterlimit="10" style="fill-rule:nonzero;clip-rule:evenodd;stroke-linecap:round;stroke-linejoin:round;" version="1.1" viewBox="0 0 1024 1024" width="100%" xml:space="preserve" xmlns="http://www.w3.org/2000/svg" xmlns:xlink="http://www.w3.org/1999/xlink">
<defs>
<linearGradient gradientTransform="matrix(1 0 0 1 0 0)" gradientUnits="userSpaceOnUse" id="LinearGradient" x1="514.819" x2="505.215" y1="78.5316" y2="956.099">
<stop offset="0" stop-color="#999999"/>
<stop offset="1" stop-color="#535075"/>
</linearGradient>
</defs>
<g id="レイヤー-1-コピー">
<path d="M330.888 68.0084L693.112 68.0084C734.659 68.0084 785.179 97.1761 805.952 133.156L987.064 446.852C1007.84 482.832 1007.84 541.168 987.064 577.148L805.952 890.844C785.179 926.824 734.659 955.992 693.112 955.992L330.888 955.992C289.341 955.992 238.821 926.824 218.048 890.844L36.9358 577.148C16.1626 541.168 16.1626 482.832 36.9358 446.852L218.048 133.156C238.821 97.176 289.341 68.0084 330.888 68.0084Z" fill="url(#LinearGradient)" fill-rule="nonzero" opacity="1" stroke="none"/>
<path d="M512 206.102C414.93 206.102 336.238 284.762 336.238 381.832C336.238 457.007 383.534 520.986 449.912 546.102C449.912 646.238 449.912 755.752 449.912 780.887C449.912 786.306 452.05 791.517 455.881 795.348C460.215 799.682 491.664 831.131 497.571 837.038C505.55 845.017 518.514 845.016 526.493 837.038C537.695 825.836 604.369 759.162 615.746 747.784C623.724 739.806 623.725 726.842 615.746 718.863C609.684 712.801 577.597 680.714 574.12 677.237L574.088 677.205C576.084 675.21 609.676 641.649 615.714 635.611C623.693 627.632 623.693 614.668 615.714 606.69C609.669 600.645 580.547 571.554 574.088 565.095C574.088 560.413 574.088 551.948 574.088 546.102C640.466 520.986 687.762 457.007 687.762 381.832C687.762 284.762 609.07 206.102 512 206.102ZM512 267.36C540.208 267.36 563.075 290.227 563.075 318.435C563.075 346.643 540.208 369.51 512 369.51C483.792 369.51 460.925 346.643 460.925 318.435C460.925 290.227 483.792 267.36 512 267.36Z" fill="#ffffff" fill-rule="nonzero" opacity="1" stroke="none"/>
</g>
</svg>
