<?xml version="1.0" encoding="UTF-8" standalone="no"?>
<!DOCTYPE svg PUBLIC "-//W3C//DTD SVG 1.1//EN" "http://www.w3.org/Graphics/SVG/1.1/DTD/svg11.dtd">
<!-- Created with Vectornator (http://vectornator.io/) -->
<svg height="100%" stroke-miterlimit="10" style="fill-rule:nonzero;clip-rule:evenodd;stroke-linecap:round;stroke-linejoin:round;" version="1.1" viewBox="0 0 1024 1024" width="100%" xml:space="preserve" xmlns="http://www.w3.org/2000/svg" xmlns:xlink="http://www.w3.org/1999/xlink">
<defs>
<linearGradient gradientTransform="matrix(1 0 0 1 0 0)" gradientUnits="userSpaceOnUse" id="LinearGradient" x1="516.106" x2="516.106" y1="75.7523" y2="940.437">
<stop offset="0" stop-color="#04c79a"/>
<stop offset="1" stop-color="#00716f"/>
</linearGradient>
</defs>
<g id="レイヤー-1-コピー">
<path d="M330.888 68.0084L693.112 68.0084C734.659 68.0084 785.179 97.176 805.952 133.156L987.064 446.851C1007.84 482.831 1007.84 541.166 987.064 577.146L805.952 890.841C785.179 926.821 734.659 955.988 693.112 955.988L330.888 955.988C289.341 955.988 238.821 926.821 218.048 890.841L36.9358 577.146C16.1626 541.166 16.1626 482.831 36.9358 446.851L218.048 133.156C238.821 97.1759 289.341 68.0084 330.888 68.0084Z" fill="url(#LinearGradient)" fill-rule="nonzero" opacity="1" stroke="none"/>
<path d="M508.812 198.875C478.821 199.089 448.261 204.8 418.906 216.406C384.057 230.185 357.425 253.839 338.406 283.906C327.762 300.733 320.168 318.466 315 336.188C313.18 342.429 311.793 348.285 310.75 353.656C310.066 357.175 309.612 359.979 309.375 361.938C306.385 386.61 323.984 409.041 348.656 412.031C373.328 415.022 395.728 397.454 398.719 372.781C398.697 372.963 398.698 373.082 398.688 373.156C398.691 373.129 398.928 371.699 399.094 370.844C399.627 368.097 400.385 364.907 401.406 361.406C404.356 351.293 408.68 341.183 414.469 332.031C423.816 317.254 436.013 306.415 452 300.094C501.524 280.514 555.743 287.364 591.812 314.094C607.599 325.793 618.163 340.222 622.562 355.531C627.137 371.45 625.333 388.945 615.844 408.125C606.199 427.619 594.118 439.305 574.344 450.656C570.949 452.605 567.293 454.573 562.719 456.938C560.193 458.243 551.194 462.821 549.75 463.562C538.011 469.589 530.024 474.121 521.938 479.656C510.712 487.341 501.211 495.921 493.188 506.25C474.938 529.742 466.724 559.358 467.781 596.562C468.487 621.405 489.188 640.956 514.031 640.25C538.874 639.544 558.456 618.843 557.75 594C557.25 576.413 559.804 567.191 564.25 561.469C568.145 556.455 574.859 551.83 590.844 543.625C592.023 543.02 601.171 538.385 604.031 536.906C609.686 533.983 614.465 531.412 619.156 528.719C653.348 509.09 678.198 485.023 696.5 448.031C734.669 370.885 711.695 290.906 645.406 241.781C607.157 213.435 558.798 198.518 508.812 198.875ZM513.656 705.125C480.519 705.125 453.656 731.988 453.656 765.125C453.656 798.262 480.519 825.125 513.656 825.125C546.793 825.125 573.656 798.262 573.656 765.125C573.656 731.988 546.793 705.125 513.656 705.125Z" fill="#ffffff" fill-rule="nonzero" opacity="1" stroke="none"/>
</g>
</svg>
