<?xml version="1.0" encoding="UTF-8" standalone="no"?>
<!DOCTYPE svg PUBLIC "-//W3C//DTD SVG 1.1//EN" "http://www.w3.org/Graphics/SVG/1.1/DTD/svg11.dtd">
<!-- Created with Vectornator (http://vectornator.io/) -->
<svg height="100%" stroke-miterlimit="10" style="fill-rule:nonzero;clip-rule:evenodd;stroke-linecap:round;stroke-linejoin:round;" version="1.1" viewBox="0 0 1024 1024" width="100%" xml:space="preserve" xmlns="http://www.w3.org/2000/svg" xmlns:xlink="http://www.w3.org/1999/xlink">
<defs>
<linearGradient gradientTransform="matrix(1 0 0 1 0 0)" gradientUnits="userSpaceOnUse" id="LinearGradient" x1="504.772" x2="495.611" y1="70.7292" y2="952.748">
<stop offset="0" stop-color="#50cd00"/>
<stop offset="1" stop-color="#00880a"/>
</linearGradient>
</defs>
<g id="レイヤー-1">
<path d="M330.889 68.0137L693.111 68.0137C734.657 68.0137 785.176 97.1811 805.949 133.161L987.06 446.853C1007.83 482.833 1007.83 541.167 987.06 577.147L805.949 890.839C785.176 926.819 734.657 955.986 693.111 955.986L330.889 955.986C289.343 955.986 238.824 926.819 218.051 890.839L36.9397 577.147C16.1668 541.167 16.1668 482.833 36.9397 446.853L218.051 133.161C238.824 97.181 289.343 68.0137 330.889 68.0137Z" fill="url(#LinearGradient)" fill-rule="nonzero" opacity="1" stroke="none"/>
<path d="M511.156 204.312C430.212 204.313 364.562 269.962 364.562 350.906C364.563 431.851 430.212 497.438 511.156 497.438C592.101 497.437 657.687 431.851 657.688 350.906C657.688 269.962 592.101 204.313 511.156 204.312ZM511.125 544.094C391.882 544.436 290.006 616.955 248.344 719.5C245.969 723.834 216.567 772.904 265.281 773C435.009 773.335 587.241 773.335 756.969 773C805.683 772.904 776.281 723.834 773.906 719.5C732.244 616.955 630.368 544.436 511.125 544.094Z" fill="#ffffff" fill-rule="nonzero" opacity="1" stroke="none"/>
</g>
</svg>
