<?xml version="1.0"?>
<!-- This Source Code Form is subject to the terms of the Mozilla Public
   - License, v. 2.0. If a copy of the MPL was not distributed with this
   - file, You can obtain one at http://mozilla.org/MPL/2.0/. -->
<svg xmlns="http://www.w3.org/2000/svg"
     width="32" height="32" viewBox="0 0 32 32">
  <style>
    path:not(:target) {
      display: none;
    }
  </style>
  <path id="camera" d="m 2,23 a 3,3 0 0 0 3,3 l 14,0 a 3,3 0 0 0 3,-3 l 0,-4 6,5.5 c 0.5,0.5 1,0.7 2,0.5 l 0,-18 c -1,-0.2 -1.5,0 -2,0.5 l -6,5.5 0,-4 a 3,3 0 0 0 -3,-3 l -14,0 a 3,3 0 0 0 -3,3 z" />
  <path id="geo-linux" d="m 2,15.9 a 14,14 0 1 1 0,0.2 z m 4,2.1 a 10,10 0 0 0 8,8 l 0,-4 4,0 0,4 a 10,10 0 0 0 8,-8 l -4,0 0,-4 4,0 a 10,10 0 0 0 -8,-8 l 0,4 -4,0 0,-4 a 10,10 0 0 0 -8,8 l 4,0 0,4 z" />
  <path id="geo-linux-detailed" d="m 2,15.9 a 14,14 0 1 1 0,0.2 z m 3,2.1 a 11,11 0 0 0 9,9 l 1,-5 2,0 1,5 a 11,11 0 0 0 9,-9 l -5,-1 0,-2 5,-1 a 11,11 0 0 0 -9,-9 l -1,5 -2,0 -1,-5 a 11,11 0 0 0 -9,9 l 5,1 0,2 z" />
  <path id="geo-osx" d="m 0,16 16,0 0,16 12,-28 z" />
  <path id="geo-windows" d="m 2,14 0,4 2,0 a 12,12 0 0 0 10,10 l 0,2 4,0 0,-2 a 12,12 0 0 0 10,-10 l 2,0 0,-4 -2,0 a 12,12 0 0 0 -10,-10 l 0,-2 -4,0 0,2 a 12,12 0 0 0 -10,10 z m 4,1.9 a 10,10 0 1 1 0,0.2 z m 4,0 a 6,6 0 1 1 0,0.2 z" />
  <path id="geo-windows-detailed" d="m 2,14.5 0,3 2,0.5 a 12,12 0 0 0 10,10 l 0.5,2 3,0 0.5,-2 a 12,12 0 0 0 10,-10 l 2,-0.5 0,-3 -2,-0.5 a 12,12 0 0 0 -10,-10 l -0.5,-2 -3,0 -0.5,2 a 12,12 0 0 0 -10,10 z m 4,1.4 a 10,10 0 1 1 0,0.2 z m 3,0 a 7,7 0 1 1 0,0.2 z" />
  <path id="indexedDB" d="m 2,24 a 4,4 0 0 0 4,4 l 2,0 0,-4 -2,0 0,-16 20,0 0,16 -2,0 0,4 2,0 a 4,4 0 0 0 4,-4 l 0,-16 a 4,4 0 0 0 -4,-4 l -20,0 a 4,4 0 0 0 -4,4 z m 8,-2 6,7 6,-7 -4,0 0,-8 -4,0 0,8 z" />
  <path id="login" d="m 2,26 0,4 6,0 0,-2 2,0 0,-2 1,0 0,-1 2,0 0,-3 2,0 2.5,-2.5 1.5,1.5 3,-3 a 8,8 0 1 0 -8,-8 l -3,3 2,2 z m 20,-18.1 a 2,2 0 1 1 0,0.2 z" />
  <path id="login-detailed" d="m 1,27 0,3.5 a 0.5,0.5 0 0 0 0.5,0.5 l 5,0 a 0.5,0.5 0 0 0 0.5,-0.5 l 0,-1.5 1.5,0 a 0.5,0.5 0 0 0 0.5,-0.5 l 0,-1.5 1,0 a 0.5,0.5 0 0 0 0.5,-0.5 l 0,-1 1,0 a 0.5,0.5 0 0 0 0.5,-0.5 l 0,-2 2,0 2.5,-2.5 q 0.5,-0.5 1,0 l 1,1 c 0.5,0.5 1,0.5 1.5,-0.5 l 1,-2 a 9,9 0 1 0 -8,-8 l -2,1 c -1,0.5 -1,1 -0.5,1.5 l 1.5,1.5 q 0.5,0.5 0,1 z m 21,-19.1 a 2,2 0 1 1 0,0.2 z" />
  <path id="microphone" d="m 8,14 0,4 a 8,8 0 0 0 6,7.7 l 0,2.3 -2,0 a 2,2 0 0 0 -2,2 l 12,0 a 2,2 0 0 0 -2,-2 l -2,0 0,-2.3 a 8,8 0 0 0 6,-7.7 l 0,-4 -2,0 0,4 a 6,6 0 0 1 -12,0 l 0,-4 z m 4,4 a 4,4 0 0 0 8,0 l 0,-12 a 4,4 0 0 0 -8,0 z" />
  <path id="microphone-detailed" d="m 8,18 a 8,8 0 0 0 6,7.7 l 0,2.3 -1,0 a 3,2 0 0 0 -3,2 l 12,0 a 3,2 0 0 0 -3,-2 l -1,0 0,-2.3 a 8,8 0 0 0 6,-7.7 l 0,-4 a 1,1 0 0 0 -2,0 l 0,4 a 6,6 0 0 1 -12,0 l 0,-4 a 1,1 0 0 0 -2,0 z m 4,0 a 4,4 0 0 0 8,0 l 0,-12 a 4,4 0 0 0 -8,0 z" />
  <path id="pointer" d="m 8,24 6,-5 5,10 4,-2 -5,-10 7,-1 -17,-14 z" />
  <path id="screen" d="m 2,18 a 2,2 0 0 0 2,2 l 2,0 0,-6 a 4,4 0 0 1 4,-4 l 14,0 0,-6 a 2,2 0 0 0 -2,-2 l -18,0 a 2,2 0 0 0 -2,2 z m 6,10 a 2,2 0 0 0 2,2 l 18,0 a 2,2 0 0 0 2,-2 l 0,-14 a 2,2 0 0 0 -2,-2 l -18,0 a 2,2 0 0 0 -2,2 z" />
  <path id="web-notifications" d="m 2,20 a 4,4 0 0 0 4,4 l 13,0 7,7 0,-7 a 4,4 0 0 0 4,-4 l 0,-12 a 4,4 0 0 0 -4,-4 l -20,0 a 4,4 0 0 0 -4,4 z m 5,-2 a 1,1 0 1 1 0,-2 l 10,0 a 1,1 0 1 1 0,2 z m 0,-4 a 1,1 0 1 1 0,-2 l 14,0 a 1,1 0 1 1 0,2 z m 0,-4 a 1,1 0 1 1 0,-2 l 18,0 a 1,1 0 1 1 0,2 z" />
</svg>
