<?xml version="1.0" encoding="UTF-8"?>
<!-- This Source Code Form is subject to the terms of the Mozilla Public
   - License, v. 2.0. If a copy of the MPL was not distributed with this
   - file, You can obtain one at http://mozilla.org/MPL/2.0/. -->
<svg xmlns="http://www.w3.org/2000/svg" viewBox="0 0 16 16" width="100%" height="100%">
  <path fill="#c0c0c0" d="M8,0C7.7,0,7.4,0.2,7.2,0.7l-2,4.1L0.9,5.5c-1,0.2-1.2,0.9-0.5,1.6l3.1,3.3l-0.7,4.6C2.7,15.6,3,16,3.4,16c0.2,0,0.4-0.1,0.6-0.2L8,13.7l3.9,2.1c0.2,0.1,0.5,0.2,0.6,0.2c0.5,0,0.8-0.4,0.7-1.1l-0.7-4.6l3.1-3.3c0.7-0.7,0.4-1.4-0.5-1.6l-4.3-0.7l-2-4.1C8.6,0.2,8.3,0,8,0L8,0z"/>
</svg>
