<?xml version="1.0" encoding="utf-8"?>
<!-- This Source Code Form is subject to the terms of the Mozilla Public
   - License, v. 2.0. If a copy of the MPL was not distributed with this
   - file, You can obtain one at http://mozilla.org/MPL/2.0/. -->
<svg xmlns="http://www.w3.org/2000/svg" xmlns:xlink="http://www.w3.org/1999/xlink"
     width="179" height="88" viewBox="0 0 179 88">
  <path fill="#fff" d="M8.946,35.096 C8.606,31.547 8.420,23.513 8.426,12.880 L36.504,8.301 L36.504,74.685 C33.361,74.046 24.945,71.679 19.034,64.025 C13.254,56.539 10.426,50.586 8.946,35.096 ZM70.859,17.395 C69.626,17.801 68.460,18.195 67.354,18.580 C67.370,16.177 67.375,13.601 67.367,10.865 C67.366,10.686 67.212,10.536 66.991,10.500 L36.505,5.532 L6.018,10.500 C5.798,10.536 5.643,10.687 5.642,10.866 C5.609,22.579 5.802,31.508 6.170,35.361 C7.705,51.406 10.825,57.918 16.814,65.669 C23.751,74.645 33.895,76.990 36.508,77.458 C38.819,77.044 47.234,75.103 53.958,68.218 C54.688,69.280 55.457,70.380 56.317,71.575 C56.631,71.983 56.954,72.374 57.276,72.765 C47.955,81.768 36.504,83.000 36.504,83.000 C36.504,83.000 21.987,81.447 12.339,68.990 C5.237,59.821 2.096,51.895 0.563,35.900 C0.036,30.405 -0.010,17.912 0.010,10.913 C0.019,8.021 2.164,5.580 5.089,5.105 L36.504,-0.003 L67.919,5.105 C70.844,5.580 72.990,8.021 72.998,10.913 C73.003,12.580 73.003,14.563 72.995,16.684 C72.347,16.902 71.640,17.137 70.859,17.395 Z" />
  <path fill="#fff" d="M176.593,36.244 C176.057,45.236 178.201,55.977 166.140,71.463 C153.271,87.987 140.491,86.725 138.079,86.974 C123.601,88.466 121.694,75.948 113.238,75.948 C105.835,75.948 99.803,88.386 88.929,86.974 C86.526,86.661 73.738,87.987 60.868,71.463 C48.808,55.977 50.952,45.236 50.416,36.244 C49.880,27.251 48.004,17.510 48.004,17.510 C48.004,17.510 53.816,23.255 61.321,23.755 C68.826,24.254 70.228,21.187 86.063,16.761 C103.186,11.975 113.505,31.587 113.505,31.587 C113.505,31.587 125.132,12.265 140.946,16.761 C156.759,21.257 157.416,24.254 164.920,23.755 C172.425,23.255 179.005,17.510 179.005,17.510 C179.005,17.510 177.129,27.251 176.593,36.244 ZM88.064,40.011 C78.705,37.996 74.778,41.439 70.768,42.908 C67.269,44.189 64.085,44.587 64.085,44.587 C64.085,44.587 64.621,49.832 74.002,54.328 C83.383,58.824 102.627,56.504 102.627,56.504 C102.627,56.504 104.670,43.587 88.064,40.011 ZM156.241,42.908 C152.231,41.439 148.304,37.996 138.944,40.011 C122.338,43.587 124.382,56.504 124.382,56.504 C124.382,56.504 143.626,58.824 153.006,54.328 C162.388,49.832 162.923,44.587 162.923,44.587 C162.923,44.587 159.740,44.189 156.241,42.908 Z" />
</svg>
