<?xml version="1.0"?>
<!-- This Source Code Form is subject to the terms of the Mozilla Public
   - License, v. 2.0. If a copy of the MPL was not distributed with this
   - file, You can obtain one at http://mozilla.org/MPL/2.0/. -->
<svg xmlns="http://www.w3.org/2000/svg"
     width="96" height="16" viewBox="0 0 96 16"
     class="fieldtext">
#include icon-colors.inc.svg

  <path id="placeholder" d="M8,16a8,8,0,1,1,8-8A8,8,0,0,1,8,16ZM12,4H4v8h8V4ZM5,9.939V6.061L6.939,8ZM9.939,11H6.061L8,9.061ZM11,11h0Zm0-4.939V9.939L9.061,8ZM11,5h0ZM6.061,5H9.939L8,6.939Z"/>
  <path id="cut" d="M29.63,15a2.426,2.426,0,0,1-2.282-1.277c-0.761-1.109-1.694-2.488-1.694-2.488S25,10.329,24.549,9.623a1.05,1.05,0,0,0-1.106-.538S20.6,4.437,20.124,3.706C19.465,2.689,20.7,1,20.7,1l4.4,7.044a19.333,19.333,0,0,0,1.867,2.286c0.519,0.4,1.382-.373,2.8.908C31.7,12.984,31.048,15,29.63,15ZM29.423,12.11c-0.933-1.042-1.728-.908-1.936-0.639a2.093,2.093,0,0,0,.38,1.748,1.612,1.612,0,0,0,1.383.74C29.838,13.959,30.356,13.153,29.423,12.11ZM25.582,7.372L24.4,5.6,27.276,1s1.233,1.69.575,2.708C27.568,4.142,26.445,5.967,25.582,7.372Zm-4.576,2.956A12.482,12.482,0,0,0,22.43,8.645l0.826,1.239c-0.428.65-.937,1.352-0.937,1.352s-0.933,1.378-1.694,2.488A2.426,2.426,0,0,1,18.344,15c-1.417,0-2.074-2.017-.138-3.765C19.624,9.956,20.487,10.732,21.006,10.329ZM18.551,12.11c-0.933,1.042-.415,1.849.173,1.849a1.612,1.612,0,0,0,1.383-.74,2.093,2.093,0,0,0,.38-1.748C20.28,11.2,19.485,11.068,18.551,12.11Z"/>
  <path id="copy" d="M46,15H40a1,1,0,0,1-1-1V6a1,1,0,0,1,1-1h4.953C45,5,47,6.984,47,7.047V14A1,1,0,0,1,46,15ZM44,6V8h2ZM38,4.886V11H34a1,1,0,0,1-1-1V2a1,1,0,0,1,1-1h4.953C39,1,41,2.985,41,3.047v1.34H38.5A0.5,0.5,0,0,0,38,4.886ZM38,2V4h2Z"/>
  <path id="paste" d="M59.5,15h-7A1.5,1.5,0,0,1,51,13.5v-9A1.5,1.5,0,0,1,52.5,3H54a2,2,0,1,1,4,0h1.5A1.5,1.5,0,0,1,61,4.5v9A1.5,1.5,0,0,1,59.5,15ZM58.682,4L57.61,3.5a1.613,1.613,0,0,0-3.219,0L53.318,4,52.781,5h6.437ZM58.82,5.688H54.074L51.059,7.428l2.849,4.935,6.574-3.8Z"/>
  <rect id="zoomOut" x="67" y="7" width="10" height="2"/>
  <path id="zoomIn" d="M93,9H89v4H87V9H83V7h4V3h2V7h4V9Z"/>
</svg>
