<?xml version="1.0"?>
<!-- This Source Code Form is subject to the terms of the Mozilla Public
   - License, v. 2.0. If a copy of the MPL was not distributed with this
   - file, You can obtain one at http://mozilla.org/MPL/2.0/. -->
<svg xmlns="http://www.w3.org/2000/svg"
     width="1056" height="32" viewBox="0 0 1056 32"
     class="fieldtext">
#include icon-colors.inc.svg

  <path id="containers" d="M1050,30h-20a2,2,0,0,1-2-2V4.414a1.03,1.03,0,0,1,.29-0.707L1030,2h20l1.71,1.707a1.03,1.03,0,0,1,.29.707V28A2,2,0,0,1,1050,30Zm0-24h-20V28h20V6Zm-2,10h-16V8h16v8Zm-4-4.5a0.5,0.5,0,0,0-1,0V13h-6V11.5a0.5,0.5,0,0,0-1,0v2a0.5,0.5,0,0,0,.5.5h7a0.5,0.5,0,0,0,.5-0.5v-2Zm4,14.5h-16V18h16v8Zm-4-4.5a0.5,0.5,0,0,0-1,0V23h-6V21.5a0.5,0.5,0,0,0-1,0v2a0.5,0.5,0,0,0,.5.5h7a0.5,0.5,0,0,0,.5-0.5v-2Z"/>
  <path id="tabs" d="M1021.98,28h-28a2,2,0,0,1-2-2V22a2,2,0,0,1,2-2H994c4.591,0,4-3,4.009-8,0.009-4.686.166-8,6.261-8h7.41c6.13,0,6.27,3.314,6.3,8,0.02,5-.59,8,4.02,8h-0.02a2,2,0,0,1,2,2v4A2,2,0,0,1,1021.98,28Z"/>
  <path id="pocket" d="M975.969,29.969A13.969,13.969,0,0,1,962,16V8.333A4.333,4.333,0,0,1,966.333,4H985.6a4.333,4.333,0,0,1,4.333,4.333V16A13.969,13.969,0,0,1,975.969,29.969Zm7.507-19.035a2.009,2.009,0,0,0-1.424.59l-0.007-.007-6.095,6.015-5.479-5.422a2,2,0,1,0-2.917,2.727l-0.01.01,5.555,5.5h0l1.518,1.5a1.9,1.9,0,0,0,2.661,0l7.558-7.459a1.979,1.979,0,0,0,.649-1.46A2,2,0,0,0,983.476,10.933Z"/>
  <path id="webIDE" d="M951.947,10a24.679,24.679,0,0,1,.362,2.691L949,16h-4v4l-2,2h-4.393a14.261,14.261,0,0,0,1.358,3.076l-1.716,3.777A15,15,0,1,1,957.175,7.825L955,10h-3.053ZM938.292,26.023A17.1,17.1,0,0,1,936.54,22h-2.819A12.445,12.445,0,0,0,938.292,26.023ZM932.616,20h3.437a25.331,25.331,0,0,1-.462-4h-3.978A12.38,12.38,0,0,0,932.616,20Zm0-10a12.38,12.38,0,0,0-1,4h3.978a25.331,25.331,0,0,1,.462-4h-3.437Zm1.105-2h2.819a17.093,17.093,0,0,1,1.752-4.023A12.444,12.444,0,0,0,933.721,8ZM943,2.613c-0.393.031-.777,0.093-1.158,0.16A10.229,10.229,0,0,0,938.607,8H943V2.613ZM943,10h-4.914a24.566,24.566,0,0,0-.467,4H943V10Zm0,6h-5.381a24.566,24.566,0,0,0,.467,4H943V16Zm2-2h5.381a24.566,24.566,0,0,0-.467-4H945v4Zm1.158-11.227c-0.381-.067-0.765-0.128-1.158-0.16V8h4.393A10.229,10.229,0,0,0,946.158,2.773Zm3.55,1.2A17.093,17.093,0,0,1,951.46,8h2.819A12.444,12.444,0,0,0,949.708,3.977ZM947.068,28.3L939,32l3.726-8.047ZM944,23l13-13,4,4L948,27Zm3.4,6.6,11.2-11.2A15,15,0,0,1,947.4,29.6Z"/>
  <path id="app" d="M920.044,27.006l-4.354-4.863c-0.39.4-1.028,2.507-1.49,2.769h-4.4c-0.459-.262-1.094-2.375-1.484-2.769l-4.153,4.863H901V16.067l4.353-4.271C906.443,5.26,910.259,1,912,1s5.7,4.26,6.515,10.8L923,16.135V27.006h-2.956Zm-8.036-19.48c-0.61,0-1.819,2.268-2.484,4.251a14.406,14.406,0,0,1,2.535-.224,14.627,14.627,0,0,1,2.423.2C913.818,9.782,912.613,7.526,912.008,7.526Zm-0.762,18.23a4.106,4.106,0,0,0-.165,1.17,1.493,1.493,0,0,0,.858,1.466,1.535,1.535,0,0,0,.957-1.466,4.071,4.071,0,0,0-.165-1.17h1.079a9.949,9.949,0,0,1,.544,1.973A3.6,3.6,0,0,1,912,31.014a3.686,3.686,0,0,1-2.352-3.337,9.384,9.384,0,0,1,.544-1.921h1.051Z"/>
  <path id="forget" d="M880,31a15,15,0,1,1,15-15A15,15,0,0,1,880,31ZM879.963,8.208V4.159l-6.328,5.2,6.328,5.524v-4.27A5.279,5.279,0,0,1,885.391,16,5.233,5.233,0,0,1,880,21.391a5.406,5.406,0,0,1-5.28-3.516h-2.189A7.773,7.773,0,0,0,887.852,16,8.115,8.115,0,0,0,879.963,8.208Z"/>
  <path id="sidebars" d="M862,29H834a1,1,0,0,1-1-1V4a1,1,0,0,1,1-1h28a1,1,0,0,1,1,1V28A1,1,0,0,1,862,29ZM840,9h-3a1,1,0,0,0-1,1V25a1,1,0,0,0,1,1h3V9Zm3,17h16a1,1,0,0,0,1-1V10a1,1,0,0,0-1-1H843V26Zm8-20.986a0.991,0.991,0,1,0,1,.99A0.995,0.995,0,0,0,851,5.015Zm3,0a0.991,0.991,0,1,0,1,.99A0.995,0.995,0,0,0,854,5.015ZM859,5h-2a1,1,0,0,0,0,2h2A1,1,0,0,0,859,5Z"/>
  <path id="addon-generic" d="M815.988,2.013a13.987,13.987,0,1,1-13.975,14A14,14,0,0,1,815.988,2.013ZM814.923,4.4a2.112,2.112,0,0,0-2.371,2,2.064,2.064,0,0,0,.547,1.585,0.884,0.884,0,0,1,.285.717,1.458,1.458,0,0,1-1.706,1.329h-3.2a0.581,0.581,0,0,0-.552.584c-0.011.061,0,2.462,0,2.462a2.445,2.445,0,0,0,.289,1.489,0.8,0.8,0,0,0,.841.411,2.8,2.8,0,0,0,1.6-.487,1.632,1.632,0,0,1,1.221-.428c1.108,0,1.293.45,1.293,1.856,0,1.013-.469,1.931-1.262,1.931a1.054,1.054,0,0,1-.969-0.384,2.6,2.6,0,0,0-1.718-.63,0.99,0.99,0,0,0-1,.485c-0.339.544-.3,1.255-0.3,2.768,0,2.015,0,3.248,0,3.285a0.591,0.591,0,0,0,.552.668h3.2c1.072,0,2.874.361,2.874-1.05a1.611,1.611,0,0,0-.458-1.111,1.685,1.685,0,0,1-.377-1.149c0-.285-0.068-1.283,1.668-1.283,0.071,0,1.634.148,1.634,1.346a1.388,1.388,0,0,1-.245,1.04A1.4,1.4,0,0,0,816.185,23c0,1.5,1.683,1.039,2.213,1.039,1.884,0,2.763.017,3.031,0a0.628,0.628,0,0,0,.585-0.634C822,22.875,822,22.735,822,19.861a6.582,6.582,0,0,1,.172-2.259,0.642,0.642,0,0,1,.657-0.231,1.869,1.869,0,0,1,1.047.384,2.142,2.142,0,0,0,1.625,1.006c1.386,0,2.125-1.622,2.125-2.779,0-1.232-.628-2.754-2.158-2.754a2.029,2.029,0,0,0-1.516.723,1.384,1.384,0,0,1-.876.584,1.131,1.131,0,0,1-1.067-.877V10.738a0.734,0.734,0,0,0-.56-0.709c-0.012,0-1.881,0-3.34,0a1.407,1.407,0,0,1-1.541-1.389,1.292,1.292,0,0,1,.279-0.984,1.8,1.8,0,0,0,.548-1.283C817.392,5.666,817.042,4.4,814.923,4.4Z"/>
  <path id="mail" d="M787.333,16a4.507,4.507,0,0,1-6.666,0L769.39,6.7A3.349,3.349,0,0,1,772.333,5h23.334a3.348,3.348,0,0,1,2.943,1.7Zm-6.666,3.143a4.507,4.507,0,0,0,6.666,0L799,9.243V23.857A3.242,3.242,0,0,1,795.667,27H772.333A3.243,3.243,0,0,1,769,23.857V9.243Z"/>
  <path id="settings" d="M763.005,16c0,1.307.425,2.516,1.03,2.728L765,19.068a13.308,13.308,0,0,1-1.644,3.956l-0.921-.443c-0.578-.278-1.733.276-2.657,1.2s-1.478,2.079-1.2,2.657l0.444,0.923a13.357,13.357,0,0,1-3.964,1.622l-0.333-.949c-0.212-.6-1.421-1.03-2.728-1.03s-2.516.425-2.728,1.03l-0.34.969a13.322,13.322,0,0,1-3.956-1.644l0.443-.921c0.278-.578-0.276-1.733-1.2-2.657s-2.08-1.478-2.658-1.2l-0.923.444a13.366,13.366,0,0,1-1.622-3.964l0.949-.333C740.57,18.516,741,17.308,741,16s-0.425-2.516-1.03-2.728l-0.971-.341a13.255,13.255,0,0,1,1.667-3.946l0.9,0.433c0.578,0.278,1.733-.276,2.658-1.2s1.478-2.08,1.2-2.657l-0.433-.9A13.261,13.261,0,0,1,748.932,3l0.34,0.969C749.484,4.57,750.693,5,752,5s2.516-.425,2.728-1.03L755.068,3a13.321,13.321,0,0,1,3.956,1.644l-0.443.921c-0.277.577,0.276,1.733,1.2,2.657s2.079,1.478,2.657,1.2l0.923-.444a13.337,13.337,0,0,1,1.622,3.964l-0.949.333C763.43,13.485,763.005,14.693,763.005,16ZM752,8.946A7.054,7.054,0,1,0,759.054,16,7.054,7.054,0,0,0,752,8.946Z"/>
  <path id="developer" d="M724.986,11.177a2.978,2.978,0,0,1,.246.367,2.361,2.361,0,0,0,2.835-.346l4.975-4.932A7.808,7.808,0,0,1,734,9.952a7.969,7.969,0,0,1-10.791,7.435L711.4,29.075a3.192,3.192,0,0,1-4.486,0,3.125,3.125,0,0,1,0-4.447l11.675-11.563a7.863,7.863,0,0,1-.64-3.113,7.974,7.974,0,0,1,11.725-7.014l-4.972,4.929a2.307,2.307,0,0,0-.246,2.964A3.066,3.066,0,0,1,724.986,11.177ZM709.25,25A1.747,1.747,0,1,0,711,26.748,1.746,1.746,0,0,0,709.25,25Z"/>
  <path id="fullscreen" d="M696,22V10l6,6Zm-14,2h12l-6,6Zm11-2H683a1,1,0,0,1-1-1V11a1,1,0,0,1,1-1h10a1,1,0,0,1,1,1V21A1,1,0,0,1,693,22Zm-1-7a1,1,0,0,0-1-1h-6a1,1,0,0,0-1,1v4a1,1,0,0,0,1,1h6a1,1,0,0,0,1-1V15ZM688,2l6,6H681.982Zm-8,8V22l-6-6Z"/>
  <path id="print" d="M670,26h-4V24h-1l3,6H644l2-4h-4a2,2,0,0,1-2-2V14a2,2,0,0,1,2-2h2V10a2,2,0,0,1,2-2V3a1,1,0,0,1,1-1h18a1,1,0,0,1,1,1V8a2,2,0,0,1,2,2v2h2a2,2,0,0,1,2,2V24A2,2,0,0,1,670,26Zm-24,0,1-2h-1v2Zm1-10h-2a1,1,0,0,0,0,2h2A1,1,0,0,0,647,16ZM664,4.5a0.5,0.5,0,0,0-.5-0.5h-15a0.5,0.5,0,0,0-.5.5v9a0.5,0.5,0,0,0,.5.5h15a0.5,0.5,0,0,0,.5-0.5v-9ZM662.222,24H649.778L648,28h16Z"/>
  <path id="search" d="M626.853,23.318a10.074,10.074,0,0,1-5.361-1.545l-6.611,6.619a2.028,2.028,0,0,1-2.87,0l-0.4-.4a2.033,2.033,0,0,1,0-2.873l6.618-6.627A10.137,10.137,0,1,1,626.853,23.318Zm0-16.254a6.1,6.1,0,1,0,6.088,6.1A6.092,6.092,0,0,0,626.853,7.064Z"/>
  <path id="privateBrowsing" d="M574.273,11.973c-0.122,2.136.37,4.688-2.4,8.367-2.953,3.926-5.886,3.626-6.44,3.685-3.322.354-3.76-2.62-5.7-2.62-1.7,0-3.083,2.955-5.578,2.62-0.552-.074-3.487.241-6.44-3.685-2.768-3.679-2.276-6.231-2.4-8.367a41.419,41.419,0,0,0-.553-4.451,5.372,5.372,0,0,0,3.056,1.484c1.722,0.119,2.044-.61,5.678-1.662,3.929-1.137,6.3,3.522,6.3,3.522s2.668-4.591,6.3-3.522,3.78,1.78,5.5,1.662a6.249,6.249,0,0,0,3.232-1.484A41.574,41.574,0,0,0,574.273,11.973Zm-20.315.895c-2.148-.479-3.049.339-3.969,0.688a7.615,7.615,0,0,1-1.534.4s0.123,1.246,2.276,2.314,6.569,0.517,6.569.517S557.769,13.718,553.958,12.868ZM569.6,13.557c-0.92-.349-1.821-1.167-3.969-0.688-3.811.85-3.342,3.918-3.342,3.918s4.416,0.551,6.569-.517,2.276-2.314,2.276-2.314A7.615,7.615,0,0,1,569.6,13.557Z"/>
  <path id="new-tab" d="M541.977,28h-28a2,2,0,0,1-2-2V22a2,2,0,0,1,2-2H514c4.591,0,4-3,4.009-8,0.009-4.686.166-8,6.26-8h7.415c6.126,0,6.271,3.314,6.293,8,0.023,5-.592,8,4.023,8h-0.023a2,2,0,0,1,2,2v4A2,2,0,0,1,541.977,28ZM533,14h-4V10h-2v4h-4v2h4v4h2V16h4V14Z"/>
  <path id="new-window" d="M510,29H482a1,1,0,0,1-1-1V4a1,1,0,0,1,1-1h28a1,1,0,0,1,1,1V28A1,1,0,0,1,510,29ZM499,5.015a0.991,0.991,0,1,0,1,.99A0.995,0.995,0,0,0,499,5.015Zm3,0a0.991,0.991,0,1,0,1,.99A0.995,0.995,0,0,0,502,5.015ZM507,5h-2a1,1,0,0,0,0,2h2A1,1,0,0,0,507,5Zm1,5a1,1,0,0,0-1-1H485a1,1,0,0,0-1,1V25a1,1,0,0,0,1,1h22a1,1,0,0,0,1-1V10Z"/>
  <path id="encoding" d="M474,30H454a4,4,0,0,1-4-4V6a4,4,0,0,1,4-4h20a4,4,0,0,1,4,4V26A4,4,0,0,1,474,30Zm-1-19a6,6,0,0,0-6-6h-8a6,6,0,0,0-6,6v8a6,6,0,0,0,6,6h8c3.314,0,6-.686,6-4V11Zm-5.953,6.863a7.6,7.6,0,0,0,1.655-.171,7.822,7.822,0,0,0,1.587-.552v1.445a8.416,8.416,0,0,1-1.567.532,8.014,8.014,0,0,1-1.714.161A4.231,4.231,0,0,1,462.964,17a4.931,4.931,0,0,1-1.753,1.758,4.724,4.724,0,0,1-2.271.518,3.547,3.547,0,0,1-2.5-.83,3,3,0,0,1-.9-2.325,2.846,2.846,0,0,1,1.211-2.447,6.7,6.7,0,0,1,3.692-.952l1.8-.059V12a2.632,2.632,0,0,0-.566-1.86,2.271,2.271,0,0,0-1.729-.6,6.575,6.575,0,0,0-3,.82l-0.508-1.24a7.934,7.934,0,0,1,3.623-.918,4.438,4.438,0,0,1,2.076.425,2.656,2.656,0,0,1,1.206,1.353A3.647,3.647,0,0,1,464.7,8.653a3.833,3.833,0,0,1,1.909-.469,3.787,3.787,0,0,1,3.008,1.3,5.1,5.1,0,0,1,1.133,3.472V14H463.9Q463.98,17.863,467.047,17.863ZM462.2,13.819l-1.543.068a5.31,5.31,0,0,0-2.617.611,1.837,1.837,0,0,0-.8,1.646,1.673,1.673,0,0,0,.522,1.363,2.092,2.092,0,0,0,1.382.435,3.013,3.013,0,0,0,2.237-.825,3.16,3.16,0,0,0,.82-2.329V13.819Zm6.808-1.114a3.81,3.81,0,0,0-.625-2.344,2.124,2.124,0,0,0-1.8-.82,2.3,2.3,0,0,0-1.861.811,4.028,4.028,0,0,0-.786,2.354h5.069Z"/>
  <path id="share" d="M433.425,19.753l-0.658.08,0-.08L443.07,4.742l-13.5,15.01,0.154,0.45-0.494.06,0.547,0.094,3.651,10.653L426.77,20.562l-8.777,1.067L445,1V25.188Zm0,1.231,4.938,2.986-4.938,7.04-0.6-10.129Z"/>
  <path id="feed" d="M412.68,29.958l-3.1.031a1.516,1.516,0,0,1-1.538-1.516s0.687-7.114-6.308-14.356c-5.1-6.065-14.151-6.358-14.151-6.358a1.517,1.517,0,0,1-1.6-1.451l0.031-2.833a1.463,1.463,0,0,1,1.538-1.451s12.628,0.807,19.264,8.856c6.554,6.143,7.213,17.593,7.213,17.593A1.337,1.337,0,0,1,412.68,29.958Zm-25.159-18s7.416,0.88,11.585,4.753c4.264,3.961,4.9,11.794,4.9,11.794,0,0.832-.112,1.474-0.952,1.474l-2.852-.031a1.321,1.321,0,0,1-1.235-1.537,12.715,12.715,0,0,0-3.786-8.6c-2.877-2.641-7.694-2.8-7.694-2.8a1.437,1.437,0,0,1-1.521-1.412L386,13.371A1.436,1.436,0,0,1,387.521,11.96Zm2.488,10.03a4.012,4.012,0,1,1-4,4.012A4,4,0,0,1,390.009,21.989Z"/>
  <path id="sync" d="M381.914,17.518a13.937,13.937,0,0,1-.8,3.367,10.892,10.892,0,0,1-5.084,6.587,23.381,23.381,0,0,0,2.531,1.884,51.867,51.867,0,0,1-8.176.671c-0.073.012-.145-0.233-0.218-0.221l-0.009.219a19.383,19.383,0,0,1-5.989-1.271,10.818,10.818,0,0,0,3.225-4.19,16.7,16.7,0,0,0,1.216-6.063,36.351,36.351,0,0,0,2.73,4.119,8.152,8.152,0,0,0,4.263-6.1,7.53,7.53,0,0,0-1.165-4.689,7.645,7.645,0,0,0-3.463-2.839c0.461-.872,1-1.847,1.513-2.674a7.385,7.385,0,0,1,2.559-2.383A13.959,13.959,0,0,1,381.914,17.518ZM367.96,13.509s-2.271-2.971-3.244-4.054a8.006,8.006,0,0,0-4.306,7.011,7.6,7.6,0,0,0,4.837,6.526,11.93,11.93,0,0,1-1.982,2.818,21.3,21.3,0,0,1-2.45,2.158,13.955,13.955,0,0,1-5.641-17.528,10.883,10.883,0,0,1,4.232-5.453c0.189-.147.382-0.287,0.577-0.424-0.8-.739-3.667-1.049-3.667-1.049s5.431-2.093,13.959-1.16C367.87,6.295,367.96,13.509,367.96,13.509Z"/>
  <path id="save" d="M346.25,30h-20.5A1.755,1.755,0,0,1,324,28.25V3.75A1.755,1.755,0,0,1,325.75,2h13.5a5.164,5.164,0,0,1,3.033,1.19L346.717,7.3A4.6,4.6,0,0,1,348,10.241V28.25A1.755,1.755,0,0,1,346.25,30ZM345.774,9.293l-5-4.586C340.347,4.318,340,4.45,340,5v5h5.455C346.055,10,346.2,9.682,345.774,9.293Z"/>
  <path id="open" d="M319.749,13.924a67.491,67.491,0,0,0-1.34,7.977,37.552,37.552,0,0,0-.4,6.4,0.708,0.708,0,0,1-.714.7H290.679a0.709,0.709,0,0,1-.715-0.7,37.552,37.552,0,0,0-.4-6.4,67.491,67.491,0,0,0-1.34-7.977C287.973,12.779,288.606,12,289,12h29.974C319.368,12,320,12.779,319.749,13.924Zm-29.682-6.9h-0.076V5.019a1.987,1.987,0,0,1,1.968-2.006h8.105c1.087,0,2.276,1.755,2.276,1.755l1.635,2.222,13-.009a1.012,1.012,0,0,1,1.025,1V11H290.048Z"/>
  <path id="addOns" d="M277.051,30.97a1.987,1.987,0,0,0,1.977-2V21.86s0.3-1.829,1.515-1.829,1.088,1.934,3.356,1.934c1.133,0,3.085-.581,3.085-4.082s-1.952-3.924-3.085-3.924c-2.268,0-2.138,1.828-3.356,1.828s-1.515-1.881-1.515-1.881V10.994a1.988,1.988,0,0,0-1.977-2h-5.2s-1.725-.3-1.725-1.515,1.882-1.3,1.882-3.565c0-1.131-.632-2.926-4.135-2.926s-3.977,1.8-3.977,2.926c0,2.268,1.724,2.349,1.724,3.565S263.9,8.993,263.9,8.993h-4.951a1.989,1.989,0,0,0-1.976,2l0,3.906s-0.211,3.015,2.213,3.015c1.528,0,1.732-2.057,3.742-2.057,1,0,2.019.941,2.019,3.02S263.932,22,262.932,22c-2.01,0-2.214-2.055-3.742-2.055-2.424,0-2.213,2.909-2.213,2.909l0,6.115a1.988,1.988,0,0,0,1.976,2h6.638s3.154,0.212,3.154-2.214c0-1.528-1.991-1.824-1.991-3.835,0-1,1.109-2.238,3.19-2.238s3.314,1.238,3.314,2.238c0,2.012-1.928,2.307-1.928,3.835,0,2.425,3.154,2.214,3.154,2.214h2.572Z"/>
#ifdef MOZ_PHOTON_THEME
  <path id="downloads" d="M248.7 26.1h-17.5c-1 0-1.8.8-1.8 1.8s.8 1.8 1.8 1.8h17.5c1 0 1.8-.8 1.8-1.8s-.8-1.8-1.8-1.8zm-10-2.2c.7.7 1.8.7 2.5 0l8.8-8.8c.7-.7.6-1.8-.1-2.5-.7-.6-1.7-.6-2.4 0l-5.8 5.8v-15c0-1-.8-1.8-1.8-1.8s-1.8.8-1.8 1.8v15l-5.8-5.8c-.7-.7-1.8-.6-2.5.1-.6.7-.6 1.7 0 2.4l8.9 8.8z"/>
#else
  <path id="downloads" d="M253.285,18.118L242.09,29.126a3.008,3.008,0,0,1-4.242,0L226.59,18.118c-1.166-1.166-.772-2.121.879-2.121h6.5l0.062-12a2.027,2.027,0,0,1,2.032-2H244a2,2,0,0,1,2,2V16h6.406C254.057,16,254.451,16.952,253.285,18.118Z"/>
#endif
  <path id="history" d="M208.007,30.007a14,14,0,1,1,14-14A14,14,0,0,1,208.007,30.007Zm0-24.007a10.008,10.008,0,1,0,10,10.008A10,10,0,0,0,208.007,6ZM206.1,15.9V10.412a1.829,1.829,0,0,1,1.829-1.829,1.951,1.951,0,0,1,1.965,1.829v5.032a22.977,22.977,0,0,1,3.52,5.939s-4.106-1.8-6.059-3.773A1.811,1.811,0,0,1,206.1,15.9Z"/>
  <path id="bookmark-filled" d="M188.4,11.546l-2.241-.371-5.3-.872-1.354-2.728v0l-1.09-2.192-1.088-2.2c-0.743-1.5-1.96-1.5-2.7,0l-1.089,2.2-1.088,2.192v0L171.1,10.3l-5.295.872-2.242.371c-1.677.275-2.093,1.49-.928,2.7l5.452,5.634-0.834,5.464L166.879,27.8c-0.253,1.643.766,2.348,2.264,1.576L171.2,28.3l2.051-1.071a0.007,0.007,0,0,0,.005,0l2.726-1.427,2.725,1.427a0.016,0.016,0,0,0,.007,0l2.048,1.071,2.06,1.082c1.5,0.772,2.514.068,2.266-1.576l-0.376-2.461-0.828-5.464,5.444-5.628C190.5,13.037,190.08,11.821,188.4,11.546Z"/>
  <path id="Bookmark-hollow" d="M144,8.365l1.725,3.526,0.79,1.616,1.773,0.3,4.069,0.681-3.007,3.153-1.182,1.24,0.254,1.7,0.63,4.207-3.426-1.821-1.639-.871-1.639.871-3.423,1.819,0.632-4.2,0.255-1.7-1.184-1.241-3-3.15,4.111-.683,1.79-.3,0.787-1.636L144,8.365M143.984,2a1.671,1.671,0,0,0-1.351,1.139l-3.472,7.213-7.582,1.259c-1.675.279-2.091,1.509-.926,2.735l5.445,5.709-1.207,8.031c-0.183,1.207.3,1.914,1.151,1.914a2.448,2.448,0,0,0,1.111-.317l6.832-3.631,6.832,3.631a2.447,2.447,0,0,0,1.11.317c0.85,0,1.333-.707,1.152-1.914l-1.2-8.031,5.438-5.7c1.165-1.229.749-2.461-.926-2.74l-7.527-1.259-3.527-7.213A1.668,1.668,0,0,0,143.984,2h0Z"/>
  <path id="home" d="M124,16L112,6,100,16H96L112,2l16,14h-4Zm-2,0v13.96h-8V20h-4v9.96h-8V16l10-8Z"/>
  <path id="stop" d="M93.121,24.879l-4.243,4.243-8.9-8.9L71.206,29l-4.2-4.2,8.774-8.774-8.9-8.9,4.243-4.243,8.9,8.9L88.794,3l4.2,4.2L84.222,15.98Z"/>
  <path id="reload" d="M62,14a2,2,0,0,1-2,2H48l5.833-5.833a8.993,8.993,0,1,0,1,12.686l3.035,2.6A13,13,0,1,1,56.669,7.331L62,2V14Z"/>
  <path id="placeholder" fill-rule="evenodd" d="M16,0A16,16,0,1,1,0,16,16,16,0,0,1,16,0ZM8,24V8H24V24H8Zm14-2h0Zm-2.121,0L16,18.121,12.121,22h7.757Zm-6-6L10,12.121v7.757Zm-1.757-6L16,13.879,19.879,10H12.121Zm6,6L22,19.879V12.121Z"/>
</svg>
