<!-- This Source Code Form is subject to the terms of the Mozilla Public
   - License, v. 2.0. If a copy of the MPL was not distributed with this
   - file, You can obtain one at http://mozilla.org/MPL/2.0/. -->
<svg xmlns="http://www.w3.org/2000/svg"
     width="32" height="32" viewBox="0 0 32 32">
  <path fill="context-fill" d="M17.3,9.4c0,0,1.1,0,3.7,0c1.7,0,2,0,5.6,0c0.6,0,0.6,0,1.1,0V9.2c0-1.5-0.9-2.6-2-2.6h-5.8V6.3c0-0.6-1.5-2-2.8-2h-7.1 H7.6H4.9v2.4v2.4v2.2c2.8,0,8.5,0,8.5,0C16.4,11.3,17.3,9.4,17.3,9.4z M29,13c0-0.6-0.6-1.1-1.5-1.7l0,0c-0.2,0-0.6,0-0.9,0 c-2.8,0-3,0-4.8,0c-1.9,0-3.3,0-3.3,0s-1.5,2.4-3.7,2.4c0,0-6.5,0-9.1,0H5.4C3,13.7,3,15.9,3,15.9l1.1,9.7C4.1,27.1,5,28,6.5,28 h19.1c1.5,0,2.4-0.9,2.4-2.4L29,13.7l0,0l0,0C29,13.7,29,13,29,13z" />
</svg>

