<!-- This Source Code Form is subject to the terms of the Mozilla Public
   - License, v. 2.0. If a copy of the MPL was not distributed with this
   - file, You can obtain one at http://mozilla.org/MPL/2.0/. -->
<svg xmlns="http://www.w3.org/2000/svg"
     width="16" height="16" viewBox="0 0 16 16">
  <path fill="context-fill" d="M14,9.5V6c0-1.7-1.3-3-3-3H5C3.3,3,2,4.3,2,6v3.5C2,10.3,1.3,11,0.5,11h0C0.2,11,0,11.2,0,11.5v1 C0,12.8,0.2,13,0.5,13h15c0.3,0,0.5-0.2,0.5-0.5v-1c0-0.3-0.2-0.5-0.5-0.5h0C14.7,11,14,10.3,14,9.5z"/>
</svg>
