<svg xmlns="http://www.w3.org/2000/svg" width="16" height="16" viewBox="0 0 16 16" fill="context-fill" fill-opacity="context-fill-opacity"><path fill-rule="evenodd" d="M11.927 8.174a.625.625 0 0 1 .03.883l-3.5 3.74a.625.625 0 0 1-.913 0l-3.5-3.74a.625.625 0 1 1 .912-.854l2.419 2.585V3.63a.625.625 0 0 1 1.25 0v7.157l2.419-2.584a.625.625 0 0 1 .883-.03ZM3 .005c.345 0 .625.28.625.625 0 .207.168.375.375.375h8a.375.375 0 0 0 .375-.375.625.625 0 1 1 1.25 0c0 .897-.727 1.625-1.625 1.625H4A1.625 1.625 0 0 1 2.375.63c0-.345.28-.625.625-.625ZM13 15.995a.625.625 0 0 1-.625-.625.375.375 0 0 0-.375-.375H4a.375.375 0 0 0-.375.375.625.625 0 1 1-1.25 0c0-.897.728-1.625 1.625-1.625h8c.898 0 1.625.728 1.625 1.625 0 .345-.28.625-.625.625Z" clip-rule="evenodd"/></svg>
