<svg xmlns="http://www.w3.org/2000/svg" width="16" height="16" viewBox="0 0 16 16" fill="context-fill" fill-opacity="context-fill-opacity"><path fill-rule="evenodd" d="M4 2h.014a2.276 2.276 0 0 0 .22 1.25H4a.75.75 0 0 0-.75.75v10c0 .414.336.75.75.75h6.127c-.165.4-.163.852.005 1.25H4a2 2 0 0 1-2-2V4a2 2 0 0 1 2-2Zm10 5.744V4a2 2 0 0 0-2-2h-.014a2.24 2.24 0 0 1-.22 1.25H12a.75.75 0 0 1 .75.75v2.453l.049.048L14 7.744ZM5.5 3.25h5A1.248 1.248 0 0 0 10.975 2h-5.95A1.256 1.256 0 0 0 5.5 3.25Z" clip-rule="evenodd"/><path d="M5 2.25C5 1.56 5.56 1 6.25 1h3.5a1.25 1.25 0 1 1 0 2.5h-3.5C5.56 3.5 5 2.94 5 2.25ZM4.25 5.625c0-.345.28-.625.625-.625h3.75a.625.625 0 1 1 0 1.25h-3.75a.625.625 0 0 1-.625-.625ZM4.25 7.625c0-.345.28-.625.625-.625h4.75a.625.625 0 1 1 0 1.25h-4.75a.625.625 0 0 1-.625-.625ZM4.25 9.625c0-.345.28-.625.625-.625h.75a.625.625 0 1 1 0 1.25h-.75a.625.625 0 0 1-.625-.625Z"/><path fill-rule="evenodd" d="M11.196 7.18a.625.625 0 0 1 .883.016l3.74 3.87a.625.625 0 0 1 0 .868l-3.74 3.87a.625.625 0 1 1-.898-.868l2.716-2.811H6.63a.625.625 0 1 1 0-1.25h7.267l-2.716-2.81a.625.625 0 0 1 .015-.884Z" clip-rule="evenodd"/></svg>
