<svg xmlns="http://www.w3.org/2000/svg" width="16" height="16" viewBox="0 0 16 16" fill="context-fill" fill-opacity="context-fill-opacity"><path fill-rule="evenodd" d="M15.582 7.597A.856.856 0 0 0 15 7.37V5a2 2 0 0 0-2-2H9.328a2 2 0 0 1-1.414-.586l-.828-.828A2 2 0 0 0 5.672 1H3a2 2 0 0 0-2 2v6.37a.804.804 0 0 0-.789.978l.448 2.074A2 2 0 0 0 2.614 14H13.28a2 2 0 0 0 1.978-1.702l.594-3.94a.858.858 0 0 0-.269-.761Zm-13.5 2.398a1.255 1.255 0 0 1-.558.51l.357 1.653a.75.75 0 0 0 .733.592H13.28a.75.75 0 0 0 .742-.638l.538-3.572a1.254 1.254 0 0 1-.642-.545H9.328c-.364 0-.714.145-.972.403l-.828.828a2.625 2.625 0 0 1-1.856.769h-3.59Zm11.668-3.25V5a.75.75 0 0 0-.75-.75H9.328a3.25 3.25 0 0 1-2.298-.952l-.828-.828a.75.75 0 0 0-.53-.22H3a.75.75 0 0 0-.75.75v5.745h3.422c.364 0 .714-.145.972-.403l.828-.828a2.625 2.625 0 0 1 1.856-.769h4.422Z" clip-rule="evenodd"/></svg>
