<svg xmlns="http://www.w3.org/2000/svg" width="16" height="16" viewBox="0 0 16 16" fill="context-fill" fill-opacity="context-fill-opacity"><path fill-rule="evenodd" d="M12.732 11.625c-.072 1.239-.352 2.305-.729 3.059-.476.953-.903 1.066-1.003 1.066-.1 0-.527-.114-1.003-1.066-.377-.754-.657-1.82-.73-3.059h3.465Zm1.252 0c-.083 1.604-.482 3.02-1.07 3.996a5.005 5.005 0 0 0 3.047-3.996h-1.977Zm-4.898 3.996a5.005 5.005 0 0 1-3.047-3.996h1.977c.083 1.604.482 3.02 1.07 3.996Zm.182-5.246c.072-1.239.352-2.305.729-3.059.476-.953.903-1.066 1.003-1.066.1 0 .527.113 1.003 1.066.377.754.657 1.82.73 3.059H9.267Zm-1.252 0H6.04a5.005 5.005 0 0 1 3.047-3.996c-.588.976-.987 2.392-1.07 3.996Zm4.898-3.996a5.005 5.005 0 0 1 3.047 3.996h-1.977c-.083-1.604-.482-3.02-1.07-3.996Z" clip-rule="evenodd"/><path d="M7.086 1.586A2 2 0 0 0 5.672 1H3a2 2 0 0 0-2 2v9a2 2 0 0 0 2 2h2.803c-.226-.39-.41-.81-.544-1.25H3a.75.75 0 0 1-.75-.75V3A.75.75 0 0 1 3 2.25h2.672a.75.75 0 0 1 .53.22l.828.828c.196.196.311.364.405.502.2.292.308.45.893.45H13a.75.75 0 0 1 .75.75v.666c.453.234.873.525 1.25.862V5a2 2 0 0 0-2-2H8.328c-.281 0-.275-.06-.263-.171.01-.099.025-.239-.15-.415l-.83-.828Z"/></svg>
