<svg xmlns="http://www.w3.org/2000/svg" width="16" height="16" viewBox="0 0 16 16" fill="context-fill" fill-opacity="context-fill-opacity"><path fill-rule="evenodd" d="M5.63 1.255c-.76 0-1.375.616-1.375 1.375v7.74c0 .76.616 1.375 1.375 1.375h7.74c.76 0 1.375-.616 1.375-1.375V2.63c0-.76-.616-1.375-1.375-1.375H5.63ZM3.005 2.63A2.625 2.625 0 0 1 5.63.005h7.74a2.625 2.625 0 0 1 2.625 2.625v7.74a2.625 2.625 0 0 1-2.625 2.625H5.63a2.625 2.625 0 0 1-2.625-2.625V2.63Z" clip-rule="evenodd"/><path fill-rule="evenodd" d="M1.63 2.005c.345 0 .625.28.625.625v9.74c0 .76.616 1.375 1.375 1.375h9.74a.625.625 0 1 1 0 1.25H3.63a2.625 2.625 0 0 1-2.625-2.625V2.63c0-.345.28-.625.625-.625Z" clip-rule="evenodd"/><path d="M12.877 10.5H6.123a.5.5 0 0 1-.372-.834l3.377-3.753a.5.5 0 0 1 .744 0l3.377 3.753a.5.5 0 0 1-.372.834ZM13 4a1 1 0 1 1-2 0 1 1 0 0 1 2 0Z"/></svg>
