<svg xmlns="http://www.w3.org/2000/svg" width="16" height="16" viewBox="0 0 16 16" fill="context-fill" fill-opacity="context-fill-opacity"><path d="M10.154 3.381a.625.625 0 0 1-.884 0L7.945 2.055A2.75 2.75 0 0 0 3.438 5h-.71c-.2 0-.397.016-.59.046a4 4 0 0 1 6.69-3.875l1.326 1.326a.625.625 0 0 1 0 .884ZM10.954 13.859a4 4 0 0 0 3.87-6.69L13.5 5.84a.625.625 0 0 0-.884.884l1.326 1.326A2.75 2.75 0 0 1 11 12.56v.711c0 .2-.016.396-.046.588ZM11 9.217a.625.625 0 0 0 .118-.976l-.17-.17.026.214c.017.146.026.294.026.444v.488ZM7.936 5.06l-.177-.178A.625.625 0 0 0 6.783 5h.488c.227 0 .45.02.665.06ZM2.729 7.3c-.79 0-1.43.64-1.43 1.429v4.542c0 .554.315 1.034.775 1.271l-.942.942A2.725 2.725 0 0 1 0 13.271V8.73A2.729 2.729 0 0 1 2.729 6H7.27c.911 0 1.718.446 2.213 1.132l-.942.942a1.43 1.43 0 0 0-1.27-.775H2.728Z"/><path d="M7.945 8.671 6.67 9.945A1 1 0 1 1 7.945 8.67ZM5.46 11.156l-2.838 2.838a.5.5 0 0 1-.264-.824l2.085-2.317a.5.5 0 0 1 .744 0l.273.303ZM4.38 14.005l1.917-1.918.975 1.083a.5.5 0 0 1-.371.835H4.379Z"/><path d="M3.683 14.7h3.588c.79 0 1.43-.64 1.43-1.429V9.683l1.28-1.28c.012.107.019.216.019.326v4.542A2.729 2.729 0 0 1 7.271 16H2.73c-.11 0-.22-.007-.326-.02l1.28-1.28Z"/><path fill-rule="evenodd" d="M9.812 6.188a.625.625 0 0 1 0 .884l-8.74 8.74a.625.625 0 1 1-.884-.884l8.74-8.74a.625.625 0 0 1 .884 0Z" clip-rule="evenodd"/></svg>