<svg xmlns="http://www.w3.org/2000/svg" width="16" height="16" viewBox="0 0 16 16" fill="context-fill" fill-opacity="context-fill-opacity"><path fill-rule="evenodd" d="M11.379 9.682a.625.625 0 0 1 .883-.008l2.546 2.5a.625.625 0 0 1 .004.888l-2.5 2.5a.625.625 0 1 1-.884-.884l1.433-1.433H7.37a.625.625 0 1 1 0-1.25h5.472l-1.455-1.43a.625.625 0 0 1-.008-.883Z" clip-rule="evenodd"/><path fill-rule="evenodd" d="M5.997 11.75H3.251V4.627c0-.76.617-1.377 1.377-1.377h6.745c.76 0 1.377.616 1.377 1.377v4.157c.075.052.146.11.213.177L14 9.979V4.627A2.627 2.627 0 0 0 11.373 2H4.628a2.627 2.627 0 0 0-2.627 2.627v7.122H.625a.625.625 0 0 0 0 1.251H5.79a1.629 1.629 0 0 1 .207-1.25Zm6.595 0 .25.245H7.37A.625.625 0 0 0 6.874 13H14v-1.62l-1.25-1.227v1.597h-.158Z" clip-rule="evenodd"/></svg>