<svg xmlns="http://www.w3.org/2000/svg" width="16" height="16" viewBox="0 0 16 16" fill="context-fill" fill-opacity="context-fill-opacity"><path fill-rule="evenodd" d="M11.625 7.5c.345 0 .625.28.625.625V11h2.875a.625.625 0 1 1 0 1.25H12.25v2.875a.625.625 0 1 1-1.25 0V12.25H8.125a.625.625 0 1 1 0-1.25H11V8.125c0-.345.28-.625.625-.625Z" clip-rule="evenodd"/><path fill-rule="evenodd" d="M3 2a2 2 0 0 0-2 2v7a2 2 0 0 0 2 2h4.259a1.624 1.624 0 0 1 .866-3H10V8.125a1.625 1.625 0 1 1 3.25 0V10H15V4a2 2 0 0 0-2-2H3Zm12 9h-2.75V8.125a.625.625 0 1 0-1.25 0V11H8.125a.625.625 0 1 0 0 1.25H11V13h1.25v-.75h2.311c.275-.342.439-.777.439-1.25Z" clip-rule="evenodd"/></svg>