<svg width="16" height="16" viewBox="0 0 16 16" fill="context-fill" fill-opacity="context-fill-opacity" xmlns="http://www.w3.org/2000/svg">
<path fill-rule="evenodd" clip-rule="evenodd" d="M13 8.25H10C9.58579 8.25 9.25 8.58579 9.25 9V14C9.25 14.4142 9.58579 14.75 10 14.75H13C13.4142 14.75 13.75 14.4142 13.75 14V9C13.75 8.58579 13.4142 8.25 13 8.25ZM10 7C8.89543 7 8 7.89543 8 9V14C8 15.1046 8.89543 16 10 16H13C14.1046 16 15 15.1046 15 14V9C15 7.89543 14.1046 7 13 7H10Z"/>
<path fill-rule="evenodd" clip-rule="evenodd" d="M5.49988 2.25C5.19634 2.02194 5 1.6589 5 1.25C5 1.16438 5.00861 1.08078 5.025 1L5.0254 0.998081C5.14195 0.428477 5.64594 0 6.25 0H9.75C10.3541 0 10.858 0.428477 10.9746 0.998081L10.975 1C10.9914 1.08078 11 1.16438 11 1.25C11 1.63833 10.8229 1.98529 10.5451 2.21456L10.5425 2.21669C10.3268 2.39373 10.0508 2.5 9.75 2.5H6.25C5.99112 2.5 5.75061 2.4213 5.55111 2.28652C5.53372 2.27477 5.51663 2.26259 5.49988 2.25ZM4.01373 1H4C2.89543 1 2 1.89543 2 3V14C2 15.1046 2.89543 16 4 16H7.51091C7.27284 15.6282 7.10842 15.2046 7.03822 14.75H4C3.58579 14.75 3.25 14.4142 3.25 14V3C3.25 2.58579 3.58579 2.25 4 2.25H4.23388C4.08418 1.94876 4 1.60921 4 1.25C4 1.1655 4.00466 1.08208 4.01373 1ZM9.8138 6.02902C8.95268 6.14453 8.19837 6.59727 7.68808 7.25H4.875C4.52982 7.25 4.25 6.97018 4.25 6.625C4.25 6.27982 4.52982 6 4.875 6H9.625C9.6908 6 9.75423 6.01017 9.8138 6.02902ZM12.75 6H13.25C13.5081 6 13.7592 6.03009 14 6.08697V3C14 1.89543 13.1046 1 12 1H11.9863C11.9953 1.08208 12 1.1655 12 1.25C12 1.60921 11.9158 1.94876 11.7661 2.25H12C12.4142 2.25 12.75 2.58579 12.75 3V6ZM4.25 4.625C4.25 4.27982 4.52982 4 4.875 4H8.625C8.97018 4 9.25 4.27982 9.25 4.625C9.25 4.97018 8.97018 5.25 8.625 5.25H4.875C4.52982 5.25 4.25 4.97018 4.25 4.625ZM4.25 8.625C4.25 8.27982 4.52982 8 4.875 8H5.625C5.97018 8 6.25 8.27982 6.25 8.625C6.25 8.97018 5.97018 9.25 5.625 9.25H4.875C4.52982 9.25 4.25 8.97018 4.25 8.625Z"/>
</svg>
