<svg xmlns="http://www.w3.org/2000/svg" width="16" height="16" viewBox="0 0 16 16" fill="context-fill" fill-opacity="context-fill-opacity"><path fill-rule="evenodd" d="M10.63 10.514a.625.625 0 0 1-.625-.625V5.014H8.121l2.509-2.509 2.509 2.509h-1.884v4.875c0 .345-.28.625-.625.625Z" clip-rule="evenodd"/><path fill-rule="evenodd" d="M10.236 3h.788c.114.049.22.12.313.212l.86.86a.557.557 0 0 1 .12.178H9.329c-.126 0-.252-.007-.376-.022a.562.562 0 0 1 .111-.156l.86-.86A.997.997 0 0 1 10.236 3Z" clip-rule="evenodd"/><path d="M5.672 1a2 2 0 0 1 1.414.586l.828.828a2 2 0 0 0 .88.513l-.96.96a3.25 3.25 0 0 1-.804-.589l-.828-.828a.75.75 0 0 0-.53-.22H3a.75.75 0 0 0-.75.75v9c0 .414.336.75.75.75h10a.75.75 0 0 0 .75-.75l.04-7.75L12.54 3H13a2 2 0 0 1 2 2v7a2 2 0 0 1-2 2H3a2 2 0 0 1-2-2V3a2 2 0 0 1 2-2h2.672Z"/></svg>
