<svg xmlns="http://www.w3.org/2000/svg" width="16" height="16" viewBox="0 0 16 16" fill="context-fill" fill-opacity="context-fill-opacity"><path fill-rule="evenodd" d="M1 6a2 2 0 0 1 2-2h1V3a2 2 0 0 1 2-2h4a2 2 0 0 1 2 2v1h1a2 2 0 0 1 2 2v7a2 2 0 0 1-2 2H3a2 2 0 0 1-2-2V6Zm3-.75H3a.75.75 0 0 0-.75.75v2H4v-.375a.625.625 0 1 1 1.25 0V8h5.5v-.375a.625.625 0 1 1 1.25 0V8h1.75V6a.75.75 0 0 0-.75-.75H4ZM2.25 13c0 .414.336.75.75.75h10a.75.75 0 0 0 .75-.75V9.25H12v1.125a.625.625 0 1 1-1.25 0V9.25h-5.5v1.125a.625.625 0 1 1-1.25 0V9.25H2.25V13ZM10 2.25H6a.75.75 0 0 0-.75.75v1h5.5V3a.75.75 0 0 0-.75-.75Z" clip-rule="evenodd"/></svg>
