<svg xmlns="http://www.w3.org/2000/svg" width="17" height="16" viewBox="0 0 17 16" fill="context-fill" fill-opacity="context-fill-opacity"><path fill-rule="evenodd" d="M4.99 7.695c-.708-.87-1.27-1.9-1.814-3.195H1.835l.082.225.004.011c.613 1.501 1.27 2.746 2.153 3.813-.826.666-1.816 1.222-3.074 1.77v1.35l.233-.09.011-.004c1.476-.626 2.674-1.28 3.689-2.113 1.038.971 2.331 1.763 4.033 2.496l-1.283 2.78-.118.262h1.373l1.267-2.745h4.09L15.562 15h1.373l-.114-.255-1.556-3.37-1.984-4.595-.003-.006c-.396-.89-1.66-.89-2.056 0l-1.746 4.043c-1.583-.68-2.73-1.387-3.627-2.21.066-.07.13-.14.195-.212C7.2 7.094 8.07 5.428 8.935 3.125H10v-1.25H5.625V0h-1.25v1.875H0v1.25h7.597c-.782 2-1.545 3.379-2.488 4.439a8.65 8.65 0 0 1-.119.131m7.26-.149-1.494 3.459h2.988z" clip-rule="evenodd"/></svg>