/* XPM */
static char *cz_logo_32[] = {
/* columns rows colors chars-per-pixel */
"32 32 60 1",
"  c #374552",
". c #384653",
"X c #3b4956",
"o c #3e4b58",
"O c #414e5b",
"+ c #43505d",
"@ c #4a5762",
"# c #4d5965",
"$ c #515d68",
"% c #55616c",
"& c #58646e",
"* c #5a6671",
"= c #5d6873",
"- c #616c77",
"; c #636e78",
": c #66707a",
"> c #6a747e",
", c #6c7780",
"< c #6e7881",
"1 c #717b84",
"2 c #767f88",
"3 c #7a838c",
"4 c #7e8790",
"5 c #828b93",
"6 c #8b939a",
"7 c #90979f",
"8 c #949ca3",
"9 c #9ca3aa",
"0 c #a0a7ad",
"q c #a2a8ae",
"w c #a5abb1",
"e c #a9afb4",
"r c #abb1b6",
"t c #adb2b8",
"y c #b0b5ba",
"u c #b3b8bd",
"i c #b7bcc1",
"p c #b8bdc2",
"a c #bbc0c4",
"s c #bfc4c8",
"d c #c2c6ca",
"f c #c5c9cc",
"g c #caced1",
"h c #cdd1d4",
"j c #d0d3d6",
"k c #d4d7da",
"l c #d6d9dc",
"z c #d9dcde",
"x c #dbdde0",
"c c #dde0e2",
"v c #e1e3e5",
"b c #e5e7e9",
"n c #e7e8ea",
"m c #eaebed",
"M c #eff0f1",
"N c #f4f5f5",
"B c #f6f7f8",
"V c #f7f8f8",
"C c #fefefe",
"Z c None",
/* pixels */
"ZZZZZZZZZZZZZZZZZZZZZZZZZZZZZZZZ",
"ZZZZZZZZZZZZZZZZZZZZZZZZZZZZZZZZ",
"ZZZZZZZZZZZZZZZZZZZZZZZZZZZZZZZZ",
"ZZZZZZZZZZZZZZZZZZZZZZZZZZZZZZZZ",
"ZZZZZZZZZZZZZZZZZZZZZZZZZZZZZZZZ",
"ZZZZZZZZZZZZZZZZZZZZZZZZZZZZZZZZ",
"ZZZZZZZZZZZZZZZZZZVVNBNBNNNNNVCZ",
"ZZZZZZZZZZZZZZZZMu<&&=**&==&==6v",
"ZZZZZZZZZZZZZZZC8O155555555553O>",
"ZZZZZZZZZZZZZZZc@9VCCCCCCCCCCC9o",
"ZZZZVca856ygmZV6@cCCVcxxcVCCCC9#",
"ZZCh<+o+&$Oo&ugO0CCN6OOO2MCCCg@3",
"ZCt@$9gvNmlp3O%&mCC8X2$$kCCCv&$k",
"ZpO5cCCCCCCCN3 9CCrO56+aCCCN3+fZ",
"m=*mCCCCCCVnCv;5k0+6u+9CCCC8oeCZ",
"eOfCCCCnfmCCCC9.++6f$3BCCCuO6VZZ",
"1;NCCB8$ <xCBv;;yjv>;vCCCk$<NVCZ",
"#6CCCdO4w&$4;$+pZV5#hCCCn>&hu<6v",
"OyCCC5@bZk&. .6CCr+uCCCV5#y<O;O,",
"#8CCC9OfVa+$5:+0d@6VCCC9O9>OrB6X",
">,VCCc%@>#>xCN2+@1NCCCf+55OrCC6#",
"8@zCCCv9&=hCCCpX&vCCCz%.#OrCCx#6",
"c#1NCCCCmMCCCC9@fCCCCu555uCCC8#c",
"CqowNCCCCCCCCg#9CCCCCCCCCCCCl#6C",
"ZN6O,smNCCVbi$X<uuuuuuuuuuuu1#cZ",
"ZZBr#o$=35;@O1t=OOOOOOOOOOOO#0CZ",
"ZZZCbd63=&18hNZNxxxzxxxzxxzxbCZZ",
"ZZZZZZZCNNCZZZZZZZZZZZZZZZZZZZZZ",
"ZZZZZZZZZZZZZZZZZZZZZZZZZZZZZZZZ",
"ZZZZZZZZZZZZZZZZZZZZZZZZZZZZZZZZ",
"ZZZZZZZZZZZZZZZZZZZZZZZZZZZZZZZZ",
"ZZZZZZZZZZZZZZZZZZZZZZZZZZZZZZZZ"
};
