/* XPM */
static char *cz_logo_16[] = {
/* columns rows colors chars-per-pixel */
"16 16 58 1",
"  c #374552",
". c #384653",
"X c #3c4956",
"o c #3d4b58",
"O c #414e5b",
"+ c #44515e",
"@ c #475460",
"# c #4a5762",
"$ c #4c5965",
"% c #54606b",
"& c #59646f",
"* c #5b6671",
"= c #5d6873",
"- c #626d77",
"; c #636e78",
": c #66717b",
"> c #69747d",
", c #6c7780",
"< c #6e7881",
"1 c #717b84",
"2 c #757f88",
"3 c #7a838c",
"4 c #7f8890",
"5 c #838c94",
"6 c #8d959c",
"7 c #90979f",
"8 c #90989f",
"9 c #949ca3",
"0 c #9aa1a7",
"q c #9ca3a9",
"w c #a6acb2",
"e c #a9afb4",
"r c #abb1b6",
"t c #adb2b8",
"y c #b0b6bb",
"u c #b3b8bd",
"i c #b7bcc1",
"p c #b8bdc2",
"a c #bdc1c6",
"s c #c3c7cb",
"d c #c5c9cd",
"f c #caced1",
"g c #cdd0d4",
"h c #d0d3d6",
"j c #d3d6d9",
"k c #d5d8da",
"l c #d8dbdd",
"z c #dbdde0",
"x c #e1e3e5",
"c c #e4e6e8",
"v c #e6e8e9",
"b c #eaeced",
"n c #eff0f1",
"m c #f3f4f5",
"M c #f6f7f8",
"N c #f7f8f8",
"B c #fefefe",
"V c None",
/* pixels */
"VVVVVVVVVVVVVVVV",
"VVVVVVVVVVVVVVVV",
"VVVVVVVVVNmmMmmB",
"VVVVVVVmw;=*=*=8",
"VVmfisx6#355553O",
"Ba>o+o#+iBmzbBm:",
"6@2tls9>mz>%jBeX",
"O8BBnBMqw%XeBd+>",
"+jBq-ij> .5Nx*.4",
"&mb$ .O .>bm1.=O",
"+lN0$5t:%lB6.1b1",
"+6BBvNN5aBc66cg+",
"8#2tgu6=tuuuuy:&",
"Na>OoX$#OOOOOO+r",
"VVmjugcvlzzzzzxN",
"VVVVVVVVVVVVVVVV"
};
