<!-- This Source Code Form is subject to the terms of the Mozilla Public
   - License, v. 2.0. If a copy of the MPL was not distributed with this
   - file, You can obtain one at http://mozilla.org/MPL/2.0/. -->
<!DOCTYPE svg PUBLIC "-//W3C//DTD SVG 1.1//EN" "http://www.w3.org/Graphics/SVG/1.1/DTD/svg11.dtd">
<svg version="1.1" xmlns="http://www.w3.org/2000/svg" xmlns:xlink="http://www.w3.org/1999/xlink" x="0px" y="0px"
	 viewBox="0 0 512 512" enable-background="new 0 0 512 512" xml:space="preserve">
<g id="Layer_2">
	<path fill="#132028" d="M190.475,376V203.308H81.266c-27.129,0-50.139,26-58.222,62.035c-9.877,1.302-17.62,13.541-17.62,28.455
		c0,14.914,7.743,27.153,17.62,28.455c7.291,32.507,26.733,56.84,50.385,61.294v68.669h395.95V376H190.475z"/>
</g>
<g id="Layer_3">
	<path fill="#575A5B" d="M490.712,427.977c0,30.941-25.082,56.023-56.023,56.023c-25.804,0-47.519-17.451-54.023-41.19
		c-6.504,23.739-28.219,41.19-54.023,41.19c-30.941,0-56.023-25.082-56.023-56.023c0-30.941,25.082-56.023,56.023-56.023
		c25.804,0,47.519,17.451,54.023,41.19c6.504-23.739,28.219-41.19,54.023-41.19C465.629,371.954,490.712,397.036,490.712,427.977z
		 M161.24,203.308l29.75-113.845H94.232l29.75,113.845h-13.668c-33.865,0-61.319,40.513-61.319,90.489
		c0,49.976,27.453,90.489,61.319,90.489H294.27V203.308H161.24z M162.321,420.431c-13.164,0-24.458,8.002-29.285,19.408
		c-4.826-11.405-16.121-19.408-29.284-19.408c-17.554,0-31.785,14.23-31.785,31.784c0,17.554,14.23,31.785,31.785,31.785
		c13.164,0,24.458-8.002,29.284-19.408C137.863,475.998,149.157,484,162.321,484c17.554,0,31.784-14.23,31.784-31.785
		C194.106,434.661,179.875,420.431,162.321,420.431z"/>
</g>
<g id="Layer_4">
	<path fill="#FFB636" d="M200.78,384.287h-16.028c-20.105,0-36.403-40.513-36.403-90.489c0-49.976,16.298-90.489,36.403-90.489
		h16.028c-20.105,0-36.403,40.513-36.403,90.489C164.378,343.773,180.676,384.287,200.78,384.287z M122.236,293.797
		c0-49.976,16.298-90.489,36.403-90.489H142.61c-20.105,0-36.403,40.513-36.403,90.489c0,49.976,16.298,90.489,36.403,90.489h16.028
		C138.534,384.287,122.236,343.773,122.236,293.797z"/>
</g>
<g id="Layer_5">
	<path fill="#FF473E" d="M489.353,384.287H294.27V85.761h195.083V384.287z M74.21,384.103h-7.99c-2.436,0-4.707,1.48-6.035,3.934
		l-43.633,80.594C13.436,474.387,16.874,482,22.587,482h52.826c4.027,0,7.271-3.968,7.199-8.806l-1.203-80.594
		C81.339,387.883,78.136,384.103,74.21,384.103z"/>
</g>
<g id="Layer_6">
	<path fill="#EF2020" d="M497.28,66.397H286.342c-5.92,0-10.72,4.8-10.72,10.72v1.626c0,5.92,4.8,10.72,10.72,10.72H497.28
		c5.921,0,10.72-4.8,10.72-10.72v-1.626C508,71.197,503.201,66.397,497.28,66.397z"/>
</g>
<g id="Layer_7">
	<path fill="#76DFFF" d="M371.466,257.523h-40.952c-3.976,0-7.2-3.224-7.2-7.2V124.018c0-3.976,3.224-7.2,7.2-7.2h40.952
		c3.976,0,7.2,3.224,7.2,7.2v126.305C378.666,254.3,375.442,257.523,371.466,257.523z M460.474,250.323V124.018
		c0-3.976-3.224-7.2-7.2-7.2h-40.952c-3.976,0-7.2,3.224-7.2,7.2v126.305c0,3.976,3.224,7.2,7.2,7.2h40.952
		C457.251,257.523,460.474,254.3,460.474,250.323z"/>
</g>
<g id="Layer_8">
	<path fill="#132028" d="M489.353,339.586H294.27v-36.582h195.083V339.586z M111.17,52L94.206,89.463h96.758L174,52H111.17z
		 M326.643,414.954c-7.192,0-13.023,5.831-13.023,13.023S319.451,441,326.643,441c7.192,0,13.023-5.831,13.023-13.023
		S333.835,414.954,326.643,414.954z M434.689,414.954c-7.192,0-13.023,5.831-13.023,13.023S427.496,441,434.689,441
		s13.023-5.831,13.023-13.023S441.881,414.954,434.689,414.954z M103.752,444.827c-4.081,0-7.389,3.308-7.389,7.389
		s3.308,7.389,7.389,7.389c4.081,0,7.389-3.308,7.389-7.389S107.833,444.827,103.752,444.827z M162.321,444.827
		c-4.081,0-7.389,3.308-7.389,7.389s3.308,7.389,7.389,7.389s7.389-3.308,7.389-7.389S166.402,444.827,162.321,444.827z"/>
</g>
<g id="Layer_9">
	<path fill="#FFB636" d="M196.709,444.208h-92.957c-4.91,0-8.891-3.98-8.891-8.891s3.98-8.891,8.891-8.891h90.449l36.759-22.53
		c1.398-0.857,3.006-1.311,4.646-1.311H459.54c4.91,0,8.891,3.98,8.891,8.891s-3.98,8.891-8.891,8.891H238.114l-36.759,22.53
		C199.957,443.755,198.349,444.208,196.709,444.208z"/>
</g>
<g id="Layer_10">
	<path fill="#ADB7BC" d="M69.849,393.079c-5.787,0-10.485-4.685-10.5-10.475c-0.014-5.799,4.676-10.512,10.475-10.525l413.924-1
		c0.009,0,0.018,0,0.026,0c5.787,0,10.485,4.685,10.499,10.475c0.014,5.799-4.676,10.512-10.475,10.525l-413.924,1
		C69.867,393.079,69.857,393.079,69.849,393.079z"/>
</g>
</svg>
