<!-- This Source Code Form is subject to the terms of the Mozilla Public
   - License, v. 2.0. If a copy of the MPL was not distributed with this
   - file, You can obtain one at http://mozilla.org/MPL/2.0/. -->
<svg width="13px" height="12px" viewBox="14 6 13 12" version="1.1" xmlns="http://www.w3.org/2000/svg" xmlns:xlink="http://www.w3.org/1999/xlink">
  <g id="world" stroke="none" stroke-width="1" fill="none" fill-rule="evenodd" transform="translate(14.000000, 6.000000)" stroke-linecap="round" stroke-linejoin="round">
    <path d="M6.35076107,0.354 C3.25095418,0.354 0.729,2.87582735 0.729,5.9758879 C0.729,9.07544113 3.25082735,11.5972685 6.35076107,11.5972685 C9.45044113,11.5972685 11.9723953,9.07544113 11.9723953,5.97576107 C11.9723953,2.87582735 9.45044113,0.354 6.35076107,0.354 L6.35076107,0.354 Z M6.35076107,10.8289121 C3.67445071,10.8289121 1.49722956,8.65181776 1.49722956,5.97576107 C1.49722956,5.9443064 1.49900522,5.91335907 1.49976622,5.88215806 L2.20090094,6.4213266 L2.56313696,6.4213266 L2.97268183,6.8306178 L2.97268183,7.68217686 L3.32324919,8.03287105 L3.73926255,8.03287105 L3.73926255,9.79940584 L4.27386509,10.3361645 L4.4591686,10.3361645 L4.4591686,10.000183 L5.37655417,9.08343163 L5.37655417,8.73400577 L5.85585737,8.25203907 L5.85585737,7.37206934 L5.32518666,7.37206934 L4.28439226,6.33140176 L2.82225748,6.33140176 L2.82225748,5.56938704 L3.96286973,5.56938704 L3.96286973,5.23949352 L4.65068695,5.23949352 L5.11477015,4.77667865 L5.11477015,4.03001076 L4.49087694,3.40662489 L3.75359472,3.40662489 L3.75359472,3.78725175 L2.96228149,3.78725175 L2.96228149,3.28385021 L3.42217919,2.82319151 L3.42217919,2.49786399 L2.97001833,2.49786399 C3.84466106,1.64744643 5.03714814,1.12222956 6.35063424,1.12222956 C7.57292716,1.12222956 8.69020207,1.57730759 9.54442463,2.32587797 L8.46164839,2.32587797 L7.680355,3.10666403 L8.21508437,3.64088607 L7.87238068,3.98257509 L7.7165025,3.82669692 L7.85297518,3.68946324 L7.78930484,3.62566607 L7.78943167,3.62566607 L7.56011699,3.39559038 L7.55986332,3.39571722 L7.49758815,3.33318838 L7.01904595,3.78585658 L7.55910232,4.32654712 L6.8069806,4.32198112 L6.8069806,5.25864535 L7.66716433,5.25864535 L7.6723645,4.72112565 L7.81289584,4.57996014 L8.31819988,5.08653251 L8.31819988,5.41921636 L9.00703176,5.41921636 L9.03366676,5.39321553 L9.03430093,5.39194719 L10.195587,6.55259911 L10.8637451,5.88520206 L11.2018828,5.88520206 C11.2023901,5.9153884 11.2041658,5.94532107 11.2041658,5.97563424 C11.2040389,8.65181776 9.0269446,10.8289121 6.35076107,10.8289121 L6.35076107,10.8289121 Z" id="Shape" stroke="#DDE1E5" stroke-width="0.25" fill="#DDE1E5"></path>
    <polygon id="Shape" stroke="#DDE1E5" stroke-width="0.25" fill="#DDE1E5" points="6.50676608 1.61523076 4.52892694 1.61789426 4.52892694 2.95192735 5.34560683 3.76733891 5.72496536 3.76733891 5.72496536 3.1967157 6.50676608 2.41592965"></polygon>
    <polygon id="Shape" stroke="#DDE1E5" stroke-width="0.25" fill="#DDE1E5" points="9.59959714 6.88718547 8.28623788 5.57268471 8.28623788 5.57002121 6.79607294 5.57002121 6.35101474 6.01469891 6.35101474 6.96201714 6.98429362 7.59466185 8.12909136 7.59466185 8.12909136 8.70343893 8.99434843 9.56882283 9.20971144 9.56882283 9.20971144 8.50329592 9.63029081 8.08271655 9.63029081 7.3026915 9.87025949 7.3026915 10.1711082 7.00082814 10.0558167 6.88718547"></polygon>
  </g>
</svg>
