<!-- This Source Code Form is subject to the terms of the Mozilla Public
   - License, v. 2.0. If a copy of the MPL was not distributed with this
   - file, You can obtain one at http://mozilla.org/MPL/2.0/. -->
<svg width="16px" height="15px" viewBox="975 569 11 11" version="1.1" xmlns="http://www.w3.org/2000/svg" xmlns:xlink="http://www.w3.org/1999/xlink">
  <g id="Pause-circle" stroke="none" stroke-width="1" fill="none" fill-rule="evenodd" transform="translate(976.000000, 570.000000)">
    <path d="M4.5,0.538639227 C2.3152037,0.538639227 0.538639227,2.31614868 0.538639227,4.5 C0.538639227,6.6847963 2.3152037,8.46136077 4.5,8.46136077 C6.6847963,8.46136077 8.46136077,6.6847963 8.46136077,4.5 C8.46136077,2.31614868 6.6847963,0.538639227 4.5,0.538639227 M4.5,9 C2.01847963,9 0,6.98152037 0,4.5 C0,2.01847963 2.01847963,0 4.5,0 C6.98152037,0 9,2.01847963 9,4.5 C9,6.98152037 6.98152037,9 4.5,9" id="Fill-1-Copy" stroke="#4990E2" stroke-width="0.5" fill="#4990E2"></path>
    <path d="M3,3 L3,6.5" id="Line" stroke="#4990E2" stroke-width="1.15" stroke-linecap="round"></path>
    <path d="M6,3 L6,6.5" id="Line" stroke="#4990E2" stroke-width="1.15" stroke-linecap="round"></path>
  </g>
</svg>
