<!-- This Source Code Form is subject to the terms of the Mozilla Public
   - License, v. 2.0. If a copy of the MPL was not distributed with this
   - file, You can obtain one at http://mozilla.org/MPL/2.0/. -->
<svg width="16" height="16" viewBox="0 0 16 16" xmlns="http://www.w3.org/2000/svg" fill="##4A464C">
  <path d="M4.525 13.21h-.472c-.574 0-.987-.154-1.24-.463-.253-.31-.38-.882-.38-1.719v-.573c0-.746-.097-1.265-.292-1.557-.196-.293-.51-.44-.945-.44v-.974c.435 0 .75-.146.945-.44.195-.292.293-.811.293-1.556v-.58c0-.833.126-1.404.379-1.712.253-.31.666-.464 1.24-.464h.472v.783h-.179c-.37 0-.628.08-.774.24-.145.159-.218.54-.218 1.141v.383c0 .824-.096 1.432-.287 1.823-.191.39-.516.679-.974.866.458.191.783.482.974.873.191.39.287.998.287 1.823v.382c0 .602.073.982.218 1.142.146.16.404.239.774.239h.18v.783zm9.502-4.752c-.43 0-.744.147-.942.44-.197.292-.296.811-.296 1.557v.573c0 .837-.125 1.41-.376 1.719-.251.309-.664.463-1.237.463h-.478v-.783h.185c.37 0 .628-.08.774-.24.145-.159.218-.539.218-1.14v-.383c0-.825.096-1.433.287-1.823.191-.39.516-.682.974-.873-.458-.187-.783-.476-.974-.866-.191-.391-.287-.999-.287-1.823v-.383c0-.602-.073-.982-.218-1.142-.146-.159-.404-.239-.774-.239h-.185v-.783h.478c.573 0 .986.155 1.237.464.25.308.376.88.376 1.712v.58c0 .673.088 1.174.263 1.503.176.329.5.493.975.493v.974z" fill-rule="evenodd"/>
</svg>
