<!-- This Source Code Form is subject to the terms of the Mozilla Public
   - License, v. 2.0. If a copy of the MPL was not distributed with this
   - file, You can obtain one at http://mozilla.org/MPL/2.0/. -->
<svg xmlns="http://www.w3.org/2000/svg" width="16" height="16" viewBox="0 0 16 16" fill="#D92215">
  <path d="M8 14.5c-3.6 0-6.5-2.9-6.5-6.5S4.4 1.5 8 1.5s6.5 2.9 6.5 6.5-2.9 6.5-6.5 6.5zm0-12C5 2.5 2.5 5 2.5 8S5 13.5 8 13.5 13.5 11 13.5 8 11 2.5 8 2.5z"/>
  <circle cx="5" cy="6" r="1" transform="translate(1 1)"/>
  <circle cx="9" cy="6" r="1" transform="translate(1 1)"/>
  <path d="M5.5 11c-.1 0-.2 0-.3-.1-.2-.1-.3-.4-.1-.7C6 9 7 8.5 8.1 8.5c1.7.1 2.8 1.7 2.8 1.8.2.2.1.5-.1.7-.2.1-.6 0-.7-.2 0 0-.9-1.3-2-1.3-.7 0-1.4.4-2.1 1.3-.2.2-.4.2-.5.2z"/>
</svg>
