<!-- This Source Code Form is subject to the terms of the Mozilla Public
   - License, v. 2.0. If a copy of the MPL was not distributed with this
   - file, You can obtain one at http://mozilla.org/MPL/2.0/. -->
<svg width="16" height="16" viewBox="0 0 16 16" xmlns="http://www.w3.org/2000/svg">
  <g fill-rule="evenodd">
    <path d="M3.233 11.25l-.417 1H1.712C.763 12.25 0 11.574 0 10.747V6.503C0 5.675.755 5 1.712 5h4.127l-.417 1H1.597C1.257 6 1 6.225 1 6.503v4.244c0 .277.267.503.597.503h1.636zM7.405 11.27L7 12.306c.865.01 2.212-.024 2.315-.04.112-.016.112-.016.185-.035.075-.02.156-.046.251-.082.152-.056.349-.138.592-.244.415-.182.962-.435 1.612-.744l.138-.066a179.35 179.35 0 0 0 2.255-1.094c1.191-.546 1.191-2.074-.025-2.632l-.737-.34a3547.554 3547.554 0 0 0-3.854-1.78c-.029.11-.065.222-.11.336l-.232.596c.894.408 4.56 2.107 4.56 2.107.458.21.458.596 0 .806L9.197 11.27H7.405zM4.462 14.692l5-12a.5.5 0 1 0-.924-.384l-5 12a.5.5 0 1 0 .924.384z"/>
  </g>
</svg>
