<!-- This Source Code Form is subject to the terms of the Mozilla Public
   - License, v. 2.0. If a copy of the MPL was not distributed with this
   - file, You can obtain one at http://mozilla.org/MPL/2.0/. -->
<svg width="329" height="400" fill="none" xmlns="http://www.w3.org/2000/svg"><g clip-path="url(#a)"><path d="m23.505 208.196-4.355-6.762 4.355-3.862 9.18 1.936 9.67 4.344-2.899-8.698-.963-4.836h7.736l6.28 4.836 2.899-1.444.481-5.318 2.418-3.862 3.381 3.862 5.799 4.836 3.862-5.798 3.38-3.863 7.254-2.899 2.418 2.899 3.862 2.9 2.418-3.863 8.217-1.936 1.444 1.936-1.444 7.736-2.418 7.242 7.254-4.343 10.634-.963-.963 8.217-3.862 7.735-11.597 11.597 9.179 10.624.963 9.66-13.534-2.417v-2.418h-3.862l-6.28-2.9-.963 12.561-3.862 10.623-9.672-7.735v-8.698l-9.671 7.243-2.9-11.116-7.253 4.836-15.952 6.28 4.354-14.015 5.8-10.634-5.8-1.937-6.761-5.799.963-2.417-9.18-3.381-.01.011Z" fill="url(#b)"/><path d="m139.79 298.2 4.632-6.173 5.146-1.027 8.228 4.632 16.465 2.568 16.979 2.054 16.465 4.633 9.254 8.227 6.173 7.714 1.027 9.254 2.568-3.092 5.659-2.054 2.568 2.054 1.027 6.687-3.595 6.173-2.054 10.292-9.254 11.833-6.173 1.027v-5.66l-11.833 6.687v-6.687l5.66-4.632-1.027-2.568 2.567-4.633-8.227-5.659-3.081 11.833-4.633 5.659-18.005 12.346-2.054-2.054 2.054-5.659-11.319 2.054-7.201-1.027-1.027-3.606 3.606-2.054 10.805-3.081-3.594-4.119 3.594-3.595 12.347 1.541 5.659-8.227-8.741 2.567-9.254-2.567-10.806-6.174 4.633 9.779-4.633 3.092-8.227-1.027-15.941 7.2-3.081-2.568 3.081-3.594-1.54-4.119H128l6.687-2.568 13.373-1.541 8.741-6.686-7.2-8.741-18.006-14.4v-5.66l8.227-4.632-.032-.022Z" fill="url(#c)"/><path d="m183.01 41.256-1.54-3.766 4.868-3.135 3.134 4.333-1.112 2.654-5.35-.086Z" fill="url(#d)"/><path d="m186.477 25.795-3.702-2.739-1.07-.021 3.274-3.691 4.814.075 1.519 5.37-4.835.995v.011Z" fill="url(#e)"/><path d="m170.515 20.178-3.681-3.809h-.535l4.355-4.215 6.43-.963-.129 7.49-6.44 1.497Z" fill="url(#f)"/><path d="m163.796 38.796 2.567 6.462-6.462 2.567-.941-8.034 1.658-3.178 3.178 2.194v-.011Z" fill="url(#g)"/><path d="m150.893 42.335 4.184 5.948-3.777 2.076-3.199-.589.096-5.884 2.696-1.562v.01Z" fill="url(#h)"/><path d="m287.012 235.914-9.212-4.034v-2.3l3.456-1.722-2.3-7.489 10.934 4.033 1.722-9.789 5.756 9.789 4.023-5.756 5.178-6.334h3.456l-7.479 10.945h7.479l5.755 3.456-9.211 8.056-9.212 1.155h-10.356l.011-.01Z" fill="#F37783"/><path d="M292.265 220.002c.62-2.824.374-5.628 2.621-7.992 2.354 1.551 2.6 4.461 4.44 6.644 3.156-3.691 6.045-7.66 10.474-9.886 1.69-.845 3.595-2.428 5.36-.813 1.669 1.53-.235 3.253-.663 4.868-.225.835-.642 1.701-1.209 2.354-2.643 3.06-1.905 3.969 1.925 5.349 4.13 1.487 7.639 4.708 11.598 6.954 3.616 2.065 2.343 7.874-2.054 10.603-6.131 3.808-13.031 5.467-20.082 6.504-3.487.514-6.997.803-11.041 1.263 3.274 4.279 7.885 6.697 9.79 11.779 4.279 11.405 1.829 21.804-7.875 29.122-12.72 9.586-27.27 12.217-42.762 10.837-7.478-.663-14.646-2.599-21.258-6.301-4.922-2.75-8.805-6.473-11.287-11.651-1.637-3.423-1.466-5.67 2.45-7.564 8.387-4.044 16.54-8.559 24.681-12.838-5.948 0-11.886.15-17.813-.075-2.632-.096-6.43.899-7.264-2.632-.738-3.145 1.048-6.045 3.905-8.099 9.104-6.547 19.643-8.666 30.416-10.078 1.391-.182 2.814-.182 4.247-.267-1.904-8.121-1.262-9.33 6.88-11.459 3.915-1.027 7.97-1.519 11.95-2.332 1.241-.257 3.434 0 2.803-2.161-1.969-6.815 2.6-3.852 5.221-3.552 1.38.161 2.696.813 4.525 1.402l.022.021Zm-68.161 36.365c10.752-.728 21.504-1.488 32.267-2.14 1.615-.096 4.098-1.209 4.633 1.059.492 2.054-2.097 2.557-3.574 3.306-9.939 5.039-19.996 9.821-29.838 15.031-2.119 1.124-6.484.129-6.013 4.087.321 2.686 2.696 4.868 4.996 6.666 3.242 2.535 6.698 4.707 10.571 6.034 15.598 5.349 31.079 4.782 46.025-2.14 8.687-4.023 16.048-9.736 19.3-19.45.589-1.755 1.316-3.21.268-4.975-3.755-6.323-8.163-11.843-14.903-15.438-12.443-6.633-25.431-6.665-38.794-4.322-9.361 1.647-17.877 5.06-24.949 12.26l.011.022Zm64.202-13.438c8.966-1.102 17.332-1.262 25.367-3.595 4.076-1.187 8.067-2.664 11.351-5.477 1.134-.974 2.803-2.151.653-3.766-2.204-1.659-5.221-3.221-7.297-1.562-5.67 4.525-12.132 5.627-18.968 6.783-7.04 1.187-13.994.941-19.215-3.392-4.74-3.937-8.859-3.231-13.534-1.733-1.958.631-5.478.385-5.018 3.541.439 3.028 3.221 4.472 6.355 4.537 6.077.139 11.887 1.54 17.525 3.733 1.145.45 2.332.781 2.771.931h.01Zm14.914-19.086c1.733-4.419 6.591-6.505 7.521-11.865-3.958 2.653-5.841 6.184-8.558 8.912-2.001 2.001-3.713 2.921-4.569-.963-.192-.888-.417-2.075-1.605-2.493-.802 2.268-1.604 4.526-2.417 6.794-2.889-1.412-5.125-3.68-8.121-2.867-1.198 3.487 6.633 5.285 1.188 9.029 6.408 4.012 13.17 2.964 19.931.963 3.017-.898 6.302-1.369 8.645-3.755 1.07-1.091 2.632-2.504 1.958-3.959-.407-.877-2.45-1.134-3.809-1.39-3.381-.621-6.441 1.39-10.164 1.583v.011ZM89.858 183.125v-4.953c1.85 2.589 3.423 2.503 5.67 1.562 7.628-3.21 9.575-1.519 8.43 6.783-.235 1.712-.502 3.413-.802 5.445 3.702-.888 6.911-1.69 10.271-1.733 2.557-.032 5.017-.481 5.681 3.103.374 2.054 2.589 1.444 3.98 1.947 7.585 2.717 13.245 7.446 15.812 15.278 2.119 6.429 1.423 7.435-5.06 8.109-1.562.161-3.135.214-5.232.353 2.29 2.108 4.868 1.798 6.976 2.696 1.369.578 3.573-.385 4.065 1.755.524 2.3-1.305 3.509-2.824 4.718-6.944 5.531-13.759 6.933-24.158 4.996-1.187 1.091-.759 2.579.075 3.242 3.413 2.707 2.974 6.291 2.257 9.725-.609 2.921.268 3.798 3.071 3.916 3.028.117 5.852.898 8.377 2.888 4.344 3.424 4.365 5.285-.332 8.292-1.016.652-2.065 1.241-3.562 2.139 1.23.332 1.872.514 2.514.696 3.669 1.038 7.842 2.161 7.296 6.911-.503 4.419-4.675 5.456-8.441 5.874-9.211 1.027-18.177.941-24.617-7.393-1.081-1.402-2.397-2.011-4.173-1.551-6.12 1.583-12.25 3.145-19.011 4.878 10.623 2.75 19.664 6.74 22.06 18.145 1.67 7.949-3.402 12.56-8.901 17.332-9.65 8.366-18.444 5.552-27.25-1.07-1.294 1.637.022 2.514.407 3.498 1.423 3.681 3.145 7.5-.085 10.934-3.338 3.563-6.869 6.034-12.635 4.365-4.783-1.39-10.186-.353-15.053-2.396-7.265-3.06-13.256-7.607-16.605-14.903-3.413-7.447-.16-16.69 7.586-22.339 6.9-5.028 14.485-8.837 22.51-12.111-6.987-1.048-13.93-1.573-20.724-3.06-5.905-1.294-11.618-2.995-16.722-6.451-3.316-2.247-5.05-5.552-6.173-9.072-.952-2.985.428-6.441 3.22-7.072 4.986-1.123 7.04-5.617 12.261-8.099-6.451-1.605-11.672-3.092-16.979-4.172-3.819-.771-3.52-2.568-1.99-5.2 4.89-8.452 12.315-14.507 19.632-20.595 1.99-1.658 3.938-2.289 1.017-4.868-1.68-1.487-3.381-3.669-2.054-6.119 1.401-2.579 4.097-3.103 6.911-3.092 5.21.021 9.907 2.225 14.807 3.616.792-4.183-3.852-9.233 1.626-12.047 4.322-2.225 10.581.064 12.004 3.37 2.503-7.325 7.446-7.963 14.828-1.915 9.468-11.404 14.336-13.212 20.028-6.376l.01.021Zm-27.153 34.257c-3.381-.567-6.355-2.172-9.255-3.819-5.167-2.942-10.11-2.14-15.406.364 5.018 5.456 10.827 7.499 17.781 5.788 2.386-.589 4.665-1.584 6.997-2.397-.17 2.118 2.686 3.146 1.316 6.12-2.9 6.269-2.61 12.999-.749 19.664 6.74-2.632 11.705-10.838 10.838-17.728-.556-4.354-1.894-7.842-7.371-7.253-1.38.149-2.857.139-4.162-.739h.01Zm-4.451 21.761c-5.734 2.568-10.688 6.131-16.487 7.735-2.054.567-4.193 2.782-6.333.61-2.193-2.225-.556-4.75.235-6.986 2.13-6.002 5.05-11.64 8.987-16.754-4.9-2.889-9.746-5.135-12.496-10.581-1.241-2.471-5.585-3.466-7.617-.192-1.83 2.931-4.408 4.375-7.008 6.13-3.584 2.418-6.29 5.488-8.003 9.639-1.337 3.231-.342 4.504 2.536 5.467a45.476 45.476 0 0 0 9.319 2.076c1.68.192 3.733.406 4.311 2.514.6 2.161-1.06 3.145-2.546 4.172-3.948 2.739-7.586 5.853-10.956 9.276-1.176 1.198-1.465 2.065-1.22 4.226.61 5.456 4.505 7.04 8.175 8.163 24.756 7.628 49.534 6.398 74.227-.631 1.326-.375 2.29-.824 2.524-2.29.942-6.055 5.606-8.312 10.571-9.949 4.418-1.455 4.814-5.35 4.579-8.559-.257-3.563-3.659-.771-5.564-1.327-.663-.192-1.401-.139-2.107-.235-2.6-.375-6.815-.535-6.387-3.253.502-3.177 4.087-.449 6.323-.502 1.861-.043 5.253 1.102 4.472-2.354-1.338-5.938-4.023-11.373-10.079-14.101 1.338 2.471 3.178 4.59 4.622 6.954 2.921 4.772 1.723 7.339-3.84 7.757-3.103.235-6.27-.418-9.565-.685-.364 3.017-.589 6.184-1.177 9.265-.6 3.124-1.433 6.227-2.418 9.254-1.166 3.574-3.306 4.408-6.344 1.755-2.696-2.354-5.606-4.761-6.601-8.195-1.124-3.873-2.472-3.167-5.018-1.412-4.771 3.273-6.815 2.428-8.27-3.06-.31-1.166-.492-2.365-.813-3.927h-.032Zm-9.137 82.433c1.06-.085 2.108-.235 3.167-.257 7.553-.149 9.169-2.621 6.312-9.65-1.765-4.343-4.846-7.831-7.414-11.651-.824-1.23-2.717-2.332-1.187-4.086 1.626-1.862 2.856.096 4.076.834 6.044 3.67 11.266 8.623 18.006 11.212 8.676 3.338 21.097-4.162 22.156-13.491.803-7.029-4.044-13.234-13.758-15.802-20.338-5.37-38.686-.577-54.552 12.903-7.307 6.205-6.805 15.395.289 21.879 6.472 5.916 14.058 8.783 22.895 8.088l.01.021Zm83.642-95.999c-3.905-1.508-7.35-2.45-10.164-4.664-1.144-.899-2.289-1.798-1.936-3.488.364-1.765 1.958-2.033 3.295-2.193 2.996-.342 6.013-.503 9.03-.567 2.043-.043 3.167-.589 2.204-2.803-2.664-6.163-7.115-10.485-13.448-12.71-1.488-.524-3.392-.888-3.873 1.38-1.498 7.05-6.409 11.704-11.212 16.454-.888.878-1.381 1.402-.45 3.017 6.74 11.555 14.294 13.406 26.554 5.564v.01Zm-7.179 31.508c-3.862-2.803-7.564-4.023-11.65-2.279-1.445.621-2.675.631-4.055.3-5.136-1.231-10.849 4.386-9.586 9.372 1.262 4.985 4.868 6.89 9.522 7.681 5.927 1.006 11.971 2.579 17.535-.759 2.278-1.37-.075-2.311-1.252-2.643-2.707-.759-5.488-1.241-8.238-1.861-1.252-.279-2.45-.771-2.696-2.172-.257-1.445.824-2.311 1.883-2.921 2.696-1.573 5.456-3.017 8.548-4.707l-.011-.011Zm-64.148-69.584c-3.499 2.739.802 7.2-2.515 9.747 1.338 1.69 3.66 1.219 5.232 2.364 1.573 1.134 3.477 2.065 4.536 3.573 1.883 2.686 2.686 2.172 4.986.097 6.301-5.649 13.587-9.34 22.542-8.559 3.049.267 2.546-3.049 2.867-4.59.481-2.332 2.375-4.975.182-7.297-.321-.342-1.937.396-2.878.792-3.017 1.273-4.14 4.194-5.83 6.655-1.007 1.476-1.99 4.065-4.398 2.642-1.894-1.123-.407-2.92.45-4.151 1.486-2.118-.407-3.199-1.199-4.589-.995-1.755-2.46-.942-3.712-.407-4.034 1.744-6.27 4.397-4.248 9.522 1.284-1.808 2.3-3.402 3.499-4.857.535-.653 1.433-1.188 2.364-.749.364.171.824.941.717 1.219-1.134 2.728-1.209 5.799-4.857 7.372-2.086.898-5.713-1.498-6.505 2.706-.128.674-1.594.182-2.065-.716-2.236-4.269-7.253-6.088-9.158-10.763l-.01-.011Zm-2.44 35.616c-4.76 1.84-10.42.053-13.512 6.002-2.332 4.482-5.2 8.591-6.056 14.817 8.88-5.456 21.344-5.809 19.568-20.83v.011Zm22.542 28.993c4.804-12.763 4.044-19.161-2.76-23.173-.717 2.182-1.252 4.408-2.172 6.462-3.177 7.146-2.129 11.094 4.932 16.7v.011Zm14.08-47.898c3.23.428 5.755-1.187 8.516-1.54 5.36-.685 2.942 3.926 4.247 6.397 3.071-2.086 4.183-5.22 5.242-8.355.664-1.958 1.958-4.59.706-5.906-1.583-1.669-4.3-.171-6.547.129-3.22.428-4.868 4.482-7.585 4.3-4.044-.267-4.387 1.68-4.58 4.965v.01Zm-15.32 19.258c5.092 6.023 10.666 9.19 18.465 8.002-1.22-4.985-5.403-7.617-8.174-10.966-.856-1.027-6.258 1.723-10.292 2.964Zm-27.475-22.478c1.573 6.13 5.467 9.276 9.971 11.854 1.455.835 3.178 2.45 4.772.877 1.647-1.615.61-3.883-.246-5.477-2.846-5.318-8.1-6.377-14.508-7.254h.011Zm-28.533-.128c2.91 7.638 13.726 10.506 21.376 5.467-7.05-2.878-13.566-6.323-21.376-5.467Zm68.61 17.759c3.787-1.102 6.141-3.231 8.302-5.52 1.295-1.37 3.231-3.156 2.161-5.028-1.059-1.851-3.156-.075-4.803.074-1.402.129-2.814.482-4.183-.203-.75-.374-1.37-.128-1.809.535-.577.845.129 1.348.675 1.68 4.108 2.546 1.208 5.103-.343 8.473v-.011Zm-12.303-15.62c-4.74 2.632-7.265 5.938-7.917 11.095 6.73-2.418 8.462-4.836 7.917-11.095Zm-31.572.995c-.78-3.819-1.091-7.457 5.028-7.649-3.359-2.375-6.333-5.339-8.666-3.713-2.236 1.562.354 5.146 1.028 7.778.31 1.22.513 2.835 2.61 3.584Zm40.997 9.779c-4.226 2.311-9.982-.214-14.229 4.718 6.27 1.434 10.634-.428 14.23-4.718Zm2.172-14.861c-7.318 1.477-8.41 3.317-5.841 9.501 3.477-2.236 5.317-5.307 5.841-9.501Z" fill="#000"/><path d="M242.078 349.834c-1.551-4.6-4.515-8.366-7.896-11.747-.545-.588-.492-.974-.16-1.444 4.707-6.452.973-18.22-8.431-13.866-1.626.792-2.075.653-1.915-1.144.182-1.937-1.102-3.36-1.851-4.579-17.791-24.244-32.406-17.685-57.259-22.756-3.177-1.552-6.74-3.927-10.345-5.232-4.419-.631-10.624-1.123-12.272 4.312-2.321 2.91-6.74 2.546-9.179 5.456.16 1.038-.289 1.551-1.327 1.626-.182.043-.31.118-.224.342.717.878-.835 2.183.513 2.868.407.203.717.406.952-.289.139-.546.546-.043.674.139.428.545.696.182.995-.118 1.466-2.482 3.852-3.702 6.43-4.483 3.884-.813 4.258-5.114 7.532-6.536.342 1.08 1.444 1.529 2.215 2.321 1.102-.524.717.61 1.037.974 1.916 1.851 5.029 2.589 7.147 3.969 2.279.385 4.558.749 6.837 1.145-.065.064-.14.139-.204.182 12.881 4.557 30.01-1.669 39.061 11.501 2.546 2.91 5.499 4.643 9.468 4.033 2.91-.856 3.445 2.642 5.146 4.194.064-.118.064-.268.064-.428.428 0 .289.567.632.652-.043.792-1.102.856-.92-.021-2.996-1.583-8.57 3.252-6.634 6.901.589-.546 1.177-.065 1.755-.043 1.466.385 1.305-.856 1.626-1.626.771-1.584 2.707-1.348 3.723-2.589.225.363.182.77.343 1.059.042-.161.064-.343.085-.492.428 1.957-1.754 4.258.546 5.552 1.808 1.198 3.498-1.177 4.868-2.097 1.423-1.102 3.049-1.262 4.664-1.423 3.766-1.016 2.343 9.897-.813 8.046-.246-.204-.428-.225-.492.203-.182 1.262-.877 2.386-.813 3.745-1.712 3.926-7.96 6.74-12.218 5.231-2.46-1.016-1.936-4.354-2.439-6.515-.043-2.75-4.087-2.643-4.055.064.043 1.038.118 2.075.182 3.135.246.042.514-.043.792 0-.022-.139.064-.065.064.021.118.021.203.086.321.225-2.011.385-3.83-1.53-5.884-1.648-1.648-.289-1.263-1.305-.995-2.215 1.401-5.146-.696-11.115-5.093-13.983-.77.567-.995.225-.952-.567l-.064.022c-.471-.246-1.017-.428-1.284-.952-6.762-2.643-13.983.877-20.413-1.284.407 1.444-.385 1.262-1.262.92-2.162.289-5.211-.631-6.987.267-.117.974-.77.974-1.326.835-1.53-.343-3.071.139-4.622-.118-4.579-.856-8.752-2.867-12.967-4.622-.717-.16-1.305-.952-2.182-.385-.182.086-.139-.342-.161-.513-2.418-3.702-6.761-5.211-9.714-8.367.203 1.017-1.327 0-.364-.406-.877-.589-.877-2.119-2.279-2.161-.588.406-1.305-.45-1.872.203-.92 1.423-.877 3.092.021 4.483 3.766 3.947 8.431 6.74 12.924 9.896.546-.107 1.06-.107 1.263.545.77.792 2.503 1.124 2.236 2.59 1.102.973.813 3.198 2.931 3.22.161 0 .321.021.268.246-.246 1.102.791 1.444 1.326 1.958.567.513.749.952.182 1.38-1.284.973-1.936 2.461-3.049 3.584.086.321.064.567-.321.652-.16.589-1.102.878-1.016.043-.118-.021-.204-.043-.268-.117-.749.16-1.262.855-1.979.77-4.686.31-9.447.043-13.962 1.551-4.536 2.996-9.382 5.82-12.881 10.175-5.659 6.633-9.361 14.657-12.378 22.713-2.236 6.291 6.815 5.702 10.666 5.82.45-.225.878-.717 1.348-.022 3.017-.181 6.088.204 9.062-.385 11.234.268 23.633-2.46 35.381-1.979 3.423-.588-8.367 16.369-9.693 18.059-.995 1.22-.589 3.253.834 3.788 25.891 17.321 100.706-6.965 87.312-44.475l-.011.011Zm-99.647-54.049c-.696-.632-.161-1.124.203-.204-.085.086-.139.161-.203.204Zm14.775.449-.065.064c.204.45-.16.653-.181.139-.065.064-.14.065-.204.065.064-.065.107-.14.161-.204.085.022.16-.021.203-.117.021 0 .064 0 .086.021v.032Zm5.681 2.568c.042-.086.139-.139.246.064-.065-.021-.161-.043-.246-.064Zm45.907 53.15c.204-1.176 2.119.311 2.097-1.176.043-.653.385-1.488-.545-2.012-.471-.246-1.487-.717-.995-1.241.749-.791 1.401-2.3 3.092-1.348.877.61 1.262 1.38 2.546.407.321 1.915 1.754 1.219 2.931 1.284 3.092.267 5.318-.995 8.121-2.418-2.386 5.21-5.232 9.917-10.603 12.335 1.712-2.033 1.102-5.884-1.893-4.536-3.296 2.161-6.045 3.766-10.079 4.536 1.081-2.054 2.707-2.91 4.012-4.055.61-.492 1.605-.588 1.306-1.786l.01.01Zm-24.425-27.762c10.036-2.076 18.306 3.765 14.347 14.346-.289 2.183-3.07 4.355-.813 6.387-2.364-.855-1.551 1.755-1.936 3.338.021.567-.289.653-.567.717-7.65 3.627-10.849 12.625-19.301 15.588.61-2.867 4.194-3.969 2.75-6.986-.631 0-.77-.492-.995-.952-6.387.588-13.234 4.985-19.397 1.348l-.021.021s-.043 0-.064-.021c-.343.289-.653.652-1.038.856-.342.182.225.749-.342.631-1.53-.952.321-2.011 1.423-1.509.021 0 .021.022.042.022 2.707-2.953 20.028-1.787 16.305-7.981-1.669-.022-2.707-1.348-4.108-1.915-.385-.182-.631-.386-.653-.835 2.504-2.3 13.288 3.745 15.224-.182 6.58-11.255 11.437-13.106-1.829-22.306-.31 0-.61-.065-.835-.567h1.808Zm-20.477 36.439c-.117.182-.267.31-.513.61-.043-.364-.118-.546-.118-.749-.021-.546.952-.364.631.139Zm-1.123-34.032c3.316-.182 8.837 2.097 10.688-1.605.182-.631.545-.589 1.08-.203 2.343 1.99 15.492 7.211 12.561 10.666-7.842 4.579-17.3-.471-24.126-4.707-1.123-.492-.513-1.915-2.14-1.851-2.343-.813-3.808-2.461-5.777-4.108 2.728.652 5.189 1.444 7.714 1.808Zm-22.799 13.78c-.652-.311-1.348-.546-1.979-1.177.952-.246 1.733-.525 2.568-.45.363-.567.674-.117 1.016.022 2.953-.631 6.836.588 9.265-1.327-.77-.021-1.348-.139-.61-1.038.118-.856.567-.674 1.059-.321.813.407-.085.878.022 1.327 1.219-.246 1.915-1.262 2.685-2.054 1.583-1.648 3.648-1.509 5.595-1.808 1.284-.043.674 1.733.792 2.546.407.717.835 1.444.546 2.322.449.385.567.995.995 1.423.406.428 1.262.973.652 1.69-.545.631-1.305 1.102-2.257.834-3.52-.92-7.19-2.642-10.239.118-3.519 2.076-8.098 5.114-12.089 4.579-.289-.567.182-.995.546-1.145 2.3-.92 4.397-3.969 1.444-5.552l-.011.011Zm34.214 56.328c-.085-.471.92-.771.856-.204.043.514-.791.835-.856.204Zm62.716-27.506c-13.737 20.434-56.468 34.385-78.207 22.049 3.584-5.948 7.649-12.335 10.688-18.711 2.642-5.574-6.27-4.291-9.383-4.291-16.101-.021-32.085 3.296-48.187 2.012-2.524-.471 2.771-6.858 2.996-8.677 3.563-6.633 8.077-16.593 15.984-18.016.545-.546.973-.043 1.444.139.952-.813 2.118-.717 3.295-.77-6.654 8.976 3.178 9.607 9.875 6.494-.043-.471-.749-.814-.225-1.348.835-.386.567.674.567 1.123 3.274-.589 5.521-4.033 8.688-4.173 3.584 1.038 8.099 2.814 10.827-.834 3.52-1.936 1.198-5.435-.771-7.575 6.045 2.91 12.111 5.553 19.119 4.44-.343.974-1.177 1.733-1.059 2.846-5.114 1.284-11.073-3.252-15.941.385-2.14 1.38-1.263 4.986.631 6.312.267.268 1.059-.117.899.61-3.135 1.445-17.546 1.894-13.17 8.003.545.492-.653.695.021 1.348.974.952 2.14 1.466 3.295 1.787 4.986 1.872 9.715.288 14.657-.428-1.037 1.102-.695 2.503-.631 3.701 1.423 5.66 8.548.717 11.683-.952-.086-.856.118-1.262.995-.653.182-.524 1.102-.609.792-1.401-.204-.514.117-.567.449-.407.364.161.546.14.792-.181 1.262-1.627 3.156-2.643 4.194-4.462-.546.118-1.017.064-.953-.631.204-.877 1.306-.225 1.851-.064.856-1.808 2.953-2.568 3.948-4.13.182-.567.492-.674.974-.364 4.033-.716 2.589-6.676 4.44-9.607.203-.631.492-.546.952-.407 1.53.022 2.813 1.851 4.279 1.199.118-.61.589-.92.974-.492.363.385-.343.588-.61.877-1.648 1.605-2.91 3.359-1.979 5.841-.878 2.161-4.109 3.445-5.189 5.885-3.381 5.188 1.284 6.986 5.659 5.798 9.287-3.83 8.388 6.387 18.242-5.092 3.402-4.173 7.061-9.287 7.67-14.369.61-.385 1.124.086 1.402.407 6.291 7.168 9.468 18.22 4.033 26.789l-.01-.01Z" fill="#030303"/><path d="M160.715 301.445c-.535-.685-1.551-.792-1.894-1.605-.043-.043-.064-.107-.085-.16-.289.021-.557-.022-.792-.182h-.021a2.176 2.176 0 0 1-.407-.364c-2.675-.642-4.13.61-6.473 1.402-2.599.823-3.124 4.012-3.177 6.312-.118 4.108 6.387 7.692 10.099 5.82 3.691-2.151 5.339-7.821 2.75-11.234v.011Zm-5.232 7.575c-2.129-.011-4.044-.953-3.199-3.606.803.524 1.231 1.68 2.279 1.605.182 1.155.856.899 1.584.588 1.743-.235.395 1.594-.653 1.423l-.011-.01Zm-.92-6.184c1.487.16 2.568.513 3.402 1.958-1.551-.204-2.525-.717-3.402-1.958Z" fill="#030303"/><path d="m82 39.585 9.094-6.42-6.42-2.674 1.605-2.675 15.513-1.604 9.629 3.21h9.094l12.303 5.348 6.42-3.744-22.467-12.303-9.094 1.604-14.443-1.07-2.14-2.674 5.884-2.675-3.21-4.28 1.07-2.139h7.489l-3.21-4.28L100.724 0l10.698 7.489 10.164 2.14 6.954 2.674 15.513 8.024 6.954-1.07h6.419l12.304-6.954h13.908l11.768 4.28 12.839 11.768 13.908 1.605 9.629 13.373-2.14 4.815 3.744 9.094h9.629l1.07 2.674-4.279 3.745 6.419 9.629-9.629-5.35-1.605 6.42-5.349-6.955-3.21-6.419-5.349-5.884-5.349 3.21H201.29l2.139 8.558 7.489 4.28 10.164 1.07 10.164 7.489-6.954 2.674 1.604 6.954-10.163-4.814-17.118-5.884-3.21-6.42-4.814-17.117-18.723-3.21-9.628-5.884-21.398 1.07h-9.093l-18.188-7.49-12.838-3.744-9.63 10.699-1.604-4.814H82v-2.14Z" fill="#F8F6F4"/><path d="m183.909 42.065-1.54-3.766 4.868-3.135 3.134 4.333-1.112 2.653-5.35-.085Z" fill="url(#i)"/><path d="m187.376 26.604-3.702-2.74-1.07-.02 3.274-3.692 4.814.075 1.519 5.37-4.835.996v.01Z" fill="url(#j)"/><path d="m171.414 20.987-3.681-3.809h-.535l4.355-4.215 6.429-.963-.128 7.489-6.44 1.498Z" fill="url(#k)"/><path d="m164.695 39.604 2.567 6.462-6.462 2.568-.941-8.035 1.658-3.177 3.178 2.193v-.01Z" fill="url(#l)"/><path d="m151.792 43.144 4.184 5.948-3.777 2.075L149 50.58l.096-5.884 2.696-1.562v.01Z" fill="url(#m)"/><path d="M204.879 36.256c-3.028-.332-5.21 1.37-5.371 4.258-.021.385.086.792.139 1.198.514.396.524.417-.289.77 0 1.509.632 2.803 1.359 4.098 1.712 3.156 5.018 3.68 7.543 1.091-.674-.834.609-.417.545-.856.032-.235-.192-.534.118-.727 0-.46-.182-1.027.567-1.113.899-.78.749-2.022.781-2.899.107-3.285-2.065-5.456-5.392-5.81v-.01Zm.096 4.611c-.503-.107-1.38-.31-1.786.481v.065h-.022c.15.428.417.813.096 1.284h.032l-.021.02c.118.514.696.846.471 1.456.139.064.267.128.385.203.3.16.588.343.578.75 0 .063-.118.17-.171.192-.471.117-.493-.386-.749-.557-.118-.096-.161-.32-.225-.503 0-.535-1.423-.834-.278-1.55v-.022c-.375-.407-.942-.803-.107-1.284v-.022s0-.032.021-.053c-.139-2.6 1.851-1.123 2.985-1.498-.096.792-.171 1.263-1.198 1.027l-.011.011ZM191.088 39.057c-1.22-2.322-3.081-3.809-5.841-3.937-1.562-.075-4.751 1.412-5.221 2.6-.749 1.84.866 6.547 2.642 7.489 2.108 1.123 4.333 1.316 6.837.524.845-.503 1.947-1.113 2.321-2.247.503-1.53-.043-3.081-.738-4.429Zm-3.648 3.445c-1.551.642-2.472-.332-3.381-1.145-.61-.524-.524-1.305-.107-2.011.139-.246.214-.546.578-.578.845-.053 3.359 1.37 3.616 2.193.257.728.417 1.541-.706 1.541ZM187.9 18.859c-2.118.043-3.231 1.187-4.29 2.653.235.428.118.76-.257 1.027.139.706-1.401 1.134-.353 2.012-.374.513.375.438.46.855.257 1.616 1.273 2.782 2.771 3.51 1.166 1.101 5.028 2.01 5.981.93.856-.92 2.46-1.358 2.535-2.696.097-1.433.064-2.974-.513-4.397-.995-2.514-3.638-3.937-6.334-3.905v.01Zm3.06 7.767c-.203.556-.161 1.252-.974.257-.503-.6-1.669-.631-2.546-.92a.929.929 0 0 1-.257.16c-.107.15-.139.364-.214.524 0-.181.097-.342.086-.513-.064 0-.128-.043-.193-.107a.258.258 0 0 0-.053-.16.355.355 0 0 0 .139-.097c.31-.246-.054-.652-.107-.695-.439-.16-.449-.396-.375-.62.054-.172.172-.354.193-.514.984-1.798 2.332-1.894 3.359-.182.525.856 1.413 1.658.953 2.889l-.011-.022Z" fill="#000"/><path d="M243.715 56.41c-1.915-.46-3.862-.299-5.788-.02-1.198.181-2.065-.3-2.429-1.349-.545-1.605-1.102-3.167-2.022-4.6-.385-.578-.567-1.156-.128-1.798.471-.674.92-1.433 1.305-2.107.802-1.327.428-2.333.075-3.434-.92-2.964-2.643-5.467-4.633-7.821-.684-.803-2.054-1.67-1.829-2.472.556-1.882-.214-3.188-1.156-4.46-1.476-2.034-4.129-3.328-6.344-2.611-1.091.363-2.279.92-2.899 2.064-.193.407-.332.653-.867.578-.984-.139-1.936.236-2.888.439-1.188.289-2.525.043-3.274-.696-2.568-2.428-5.563-4.354-7.992-6.964-1.605-1.723-3.413-3.285-5.114-4.911-.374-.556-1.327-.353-1.519-1.156-1.209-.577-2.418-1.166-3.638-1.743-1.551-.739-3.231-1.156-4.825-1.744-1.145-.396-2.493-.321-3.755-.739-.685-.224-1.819-.492-2.343-.331-1.188.353-2.439.214-3.509.192-2.343-.085-4.536.386-6.601 1.284-2.675 1.166-5.232 2.632-7.81 4.002-.674.374-1.487.834-1.755 1.444-.353.813-.984.727-1.444.642-1.53-.3-3.113-.236-4.665-.375-.834-.085-1.54.364-2.332.246-2.589-.331-5.092-.117-7.446 1.092-.278.15-.492.62-.995.192-.685-.61-1.519-1.016-2.247-1.562-2.097-1.637-4.376-2.995-6.729-4.183-1.701-.845-3.456-1.54-5.146-2.364-4.248-2.076-8.688-3.178-13.438-3.167-1.016 0-2.043-.321-3.049-.706-2.375-.877-3.884-3.006-6.12-4.173-1.166-.588-2.385-1.455-3.562-2.16-2.375-1.456-4.183-1.21-6.023.192-.856.663-.247 1.626-.878 2.29-.353.374.428.331.738.449-.32.738.685 1.251.364 1.915-.246.513-.91.214-1.337.32-1.37.397-2.92.3-4.034 1.424 0 .513.835 1.283-.449 1.38-.867 1.776.46 2.813 1.327 4.022.139.193.684.118.46.6-.118.246-.332.32-.6.374-2.182.3-3.337 1.755-4.022 3.712.064.065.107.16.182.246.086.054.139.086.246.14.064 0 .118.02.171.053v.043c.407-.075.375-.503.588-.781.343.396.482.802 0 1.134-.395.267-.438-.107-.567-.353h-.042a.43.43 0 0 1-.257-.075h-.021c-.182.075-.3.246-.46.332.888 2.203 2.824 3.091 4.889 3.498 3.284.663 6.601 1.006 9.885 1.487.236-.353.46-.16.696-.043.064 0 .128.043.192.043 3.007.075 5.949-.278 8.923-.866 1.872-.375 3.755-1.659 5.927.042 1.84 1.423 4.098 2.397 6.12 3.67 1.487.941 3.102 1.733 4.664 2.578 1.819.985 3.67 1.84 5.606 2.536.278.096.845.3.61.856-.364.866-4.269 2.268-5.039 1.669-1.209-.952-2.482-1.808-3.83-2.514-1.444-.739-2.824-1.562-4.386-2.033-2.622-.813-5.296-.77-7.992-.824-.632-.021-1.156.321-1.766.225-2.246-.364-4.354-1.113-6.376-2.13h-.021c-.236.086-.214.664-.653.354-.514-.375.31-.375.225-.631 0-.022-.011-.043-.043-.075-.835.288-1.391-.418-2.097-.589-2.065-.556-4.119-.01-6.184-.246-1.83-.203-3.702-.096-5.542-.021-2.257.085-4.504.481-6.75.845-1.36.235-2.579.888-3.306 1.99-1.498 2.247.128 5.531 2.867 5.841.503.043.856.225.941.45.193.492-.203.738-.663.963-1.562.791-3.028 1.829-4.215 3.113-.62.685-1.113 1.508-1.498 2.44-.396 1.005.289 1.561.406 2.342.257 1.69.739 2.204 2.365 2.407 1.722.214 3.349.043 4.868-.834.31-.182.663-.257.995-.396.139.439.374.802.214 1.37-.3 1.22-.14 2.45.63 3.54.92 1.274 3.189 1.349 4.056.15 2.064-2.845 3.712-5.98 6.023-8.644 1.166-1.348 3.049-2.257 4.686-1.904 2.396.492 4.793 1.358 7.04 2.471.224-.546.567-.332.909-.203.075.021.128.042.203.064.589.107 1.188.203 1.776.31-.075-.396-.096-.77.407-1.123.15.503.471.877.075 1.348.032.075.064.246.107.246 3.092.514 5.852 1.958 8.548 3.36 2.707 1.422 5.392 2.877 8.152 4.236.31-.021.61-.032.899-.032.075-.096.182-.171.267-.246-.599-1.06.332-1.52.867-2.13.032-.235.053-.48.096-.727-1.294-.256-2.129-1.744-3.637-1.294-1.584-2.268-4.323-2.61-6.505-3.884a10.014 10.014 0 0 0-3.916-1.39c-1.059-.161-1.979-.942-3.134-1.252-1.306-.364-2.686-.567-3.97-1.113-.599-.236-1.198-.514-1.808-.76-.353.706-.513.246-.727-.096-3.552-1.241-7.104-2.536-10.784-.374-.097.053-.364-.022-.396.032-.75 1.669-2.675 2.257-3.445 3.905-.321.717-.674 1.615-1.637 1.85-.022 0-.01.033-.01.033-.022 0-.033.032-.022.053.246.385.32.728-.182.995-.01.022-.043.064-.054.086-.117.288.065.866-.502.642-.375-.118.021-.428.17-.642-.181-.578-.277-1.102.546-1.156h.043c-.652-.92.171-1.915.503-2.3 1.284-1.583-.15-2.193-.802-3.092-.493-.203-.91.524-1.445.129.3-.546.717-.739 1.327-.535.46-.514.728-1.145 1.733-.9.781.193 2.011-1.294 1.99-2.128-.032-1.21-1.08-1.98-2.46-2.108-2.697-.267-5.457-.075-8.228-.76.952-.63 1.947-.78 2.889-1.09 1.626-.557 3.295-.364 4.942-.504 1.734-.128 3.52.14 5.232-.117 1.327-.203 2.579.117 3.852.15 1.615.032 2.974 1.059 4.333 1.808 1.765.973 3.637.802 5.488 1.059 3.113.439 6.28.16 9.404 1.123 2.225.706 4.066 2.011 6.12 2.974.064-.513.492-.62.791-.395.268.235-.042.502-.31.642 2.129 2.385 5.852 2.022 8.292-.129 2.557-2.215 4.75-4.814 7.842-6.505 2.492-1.37 4.632-3.509 7.414-4.397 1.38-.417 2.856-.791 4.397-.663 1.787.15 3.627-.236 5.435.15.909.192 1.808.449 2.685.674.471-.546 1.209-.867 1.305-1.723.054-.481-.278-.214-.449-.267-.182.107-.449.289-.567-.022-.053-.139-.021-.235.032-.3.118-.106.3-.149.428-.235v-.866c-1.166-.385-2.332-.803-3.616-1.23 1.498-.664 2.493-2.012 4.044-2.654.695-.31.931-.085 1.252.332.289.364.535.813.727 1.187 1.199 2.204 3.467 2.311 5.424 2.825 2.932.738 6.826-2.632 6.976-5.756 0-.225.193-.45.3-.663-.674-.407-.086-.856-.033-1.284 4.002.235 7.596 1.744 11.148 3.466 3.959 1.958 6.569 5.446 9.747 8.28 2.535 2.27 4.868 5.019 8.409 5.928 1.508.374 3.113.567 4.547.289 1.433-.289 2.739-.107 4.087-.022 1.797.118 3.145 1.605 4.943 1.851.064 0 .62 1.113 1.048 1.701 1.348 1.723 2.75 3.392 3.948 5.21 1.626 2.515 1.273 4.483-1.059 6.377-1.509 1.262-3.092 2.45-4.686 3.616-1.766 1.295-3.306 1.455-5.499.877-1.488-.385-2.804-1.39-4.43-1.262-.214 0-.46-.3-.695-.46-.268-.128-.535-.257-.813-.353-.022 0-.075-.022-.096-.01a.909.909 0 0 0-.257-.086c-.086-.043-.171-.054-.257-.086a5.4 5.4 0 0 0-.728-.118h-.021s-.053-.042-.075-.032l-.16-.075s-.054-.021-.075-.021a.954.954 0 0 0-.236-.032c-.128.085-.31.128-.363.289h-.022c-.01-.097 0-.172.032-.225h.022c.021-.086.053-.118.107-.15-.214-.032-.407-.075-.61-.096v-.021c-.235 0-.439-.022-.653.053-.01.096 0 .182-.01.267-.065 0-.118 0-.182-.02-.064 0-.161 0-.236-.033h-.075c-.021 0-.021-.01-.042 0 .128.171.107.321.021.439a.575.575 0 0 1-.203.182l-.182.064c.032.096.032.16-.032.214-.182.93.374 1.444.941 1.958.086.053.182.139.246.203 2.589 1.423 5.403 2.182 8.228 2.835.363.075.556.203.609.524.065.556-.353.257-.588.3-1.648.31-3.413.428-4.911.888-2.717.802-5.488-.353-8.077.738-.781.32-.589-.588-.674-.845-.931-2.247-2.044-4.397-3.263-6.473-.268-.439-.45-.439-.792-.278-.214.792-.674 1.102-1.466.813-.77-.3-.716.118-.695.674 0 1.263.781 2.215 1.209 3.306 1.006 2.6 2.322 5.05 2.931 7.863.343 1.594-.021 3.028.043 4.526.032 1.412.76 2.14 1.851 2.396 1.209.29 2.247.9 3.317 1.413 1.893.888 3.605 2.15 5.456 3.166.578.332.984 1.145 1.851.835.503-.396 1.038-1.284 1.391.107 1.679.16 3.038-.781 4.579-1.263-.065.578-.129 1.156-.204 1.744.407-.032.674.204.846.706a.507.507 0 0 0 .299.279c1.402.331 2.814.674 4.237.93 1.626.321 3.081.91 4.568 2.097-1.07.353-1.947.225-2.717.054-.664-.171-1.338-.193-1.905-.043-.545.15-.684.203-1.07-.31-.428-.578-2.086.513-2.482 1.605.064.246.257.481-.021.695.299 1.048 1.241 1.68 1.915 2.397.653.706.888 1.572 1.487 2.257.364.406.086.941-.193 1.22-.32.342-.567-.225-.834-.29-2.685-.802-4.547-3.06-7.157-4.033-.707-.235-1.37-.16-2.055-.278-2.225-.374-4.397-.941-6.472-1.83-.631-.288-1.209-.352-1.947-.096-.439.15-.557-.962-1.199-.995-.748-.042-.898-1.102-1.754-.941-.032.096-.032.214-.064.31-.332-.128-.632-.267-.599-.695-2.376-1.498-4.569-3.231-5.35-6.077-.364-1.273-.92-2.482-1.294-3.723-.685-2.247-1.252-4.536-1.958-6.804a44.65 44.65 0 0 0-1.006-2.782c-.332-.813-.406-1.84-.214-2.258.813-1.711-.652-2.236-1.294-3.21-.824.579-1.562.311-2.311-.181-3.071.171-6.034-.578-9.03-1.123-4.472-.824-8.644-2.557-12.721-4.537-.288-.139-.759-.374-.77-.62 0-.332.417-.524.749-.706 1.84-.963 3.809-1.562 5.692-2.322-.097-.139-.311-.428-.278-.46 1.636-1.605.032-2.193-.942-2.985-1.851.236-3.167 1.787-5.018 2.044-.256.16-.502.331-.738.481-.107-.246-.203-.503-.032-.792-.075-2.107-.866-4.076-1.819-5.83-.524-.974-1.647-1.82-2.76-2.59-1.851-1.208-3.028-.395-3.916.739-.813 1.038-1.615 2.279-1.519 3.894.054 1.049.118 2.033.439 3.006.011.043.032.075.021.129.086.481-.289.995.214 1.412.514-.492.995-.267 1.445.118.192.042.406.075.609.139.482-.257.739-.62.525-1.166-.311-.043-.781.053-.471-.503.246-.439.556-.824.813-1.22-.653-.952.588-1.744.246-2.685-.021-.064.31-.556.653-.16.224.256.834-.097.802.577-.075 1.498.835 2.792.824 4.354 0 1.017-.15 1.52-.984 1.862-.717.3-1.466.578-2.258.46-.759.364-1.562.481-2.386.492-.716.428-1.444-.118-2.139-.021-.343.032-.311-.129-.396-.418-.535-2.321-1.819-4.268-3.392-5.959-1.423-1.497-4.236-.845-5.199 1.017-.653 1.251-1.059 2.482-.61 3.947.3.92-.471 1.306-1.53 1.274-1.594-.054-3.338-.129-4.761.438-.663.257-1.466.589-2.15 1.027-.032.032-.043.065-.086.075.129.995.214 2.044 1.712 1.755.342-.054.61.278.738.631 2.108-.075 4.237-.278 6.344-.171 1.199.064 2.472.396 3.617.364 2.054-.054 4.065.3 6.13.107 1.573-.15 3.252-.236 4.686-.589 1.273-.31 2.15-.513 3.177.236.353.181.706.353 1.027.524.386.599 1.316.331 1.573.663 1.198 1.573 3.178 1.616 4.718 2.471 2.728 1.488 5.82 2.13 8.827 2.89 2.193.534 4.397 1.048 6.718 1.005 2.964-.043 3.723.599 4.205 2.963-.171.664.011 1.241.406 1.776.129 1.445 1.06 2.675 1.049 4.162-.075.289-.043.567.257.728.374 1.048.941 2.096 1.005 3.156.043.674.813.406.749 1.176-.16 2.13.792 4.077 1.701 5.895.888 1.82 2.632 3.05 4.344 4.162a40.44 40.44 0 0 0 7.339 3.723c1.616.61 3.327.92 5.007 1.348 1.444.364 3.113.321 4.301 1.08 1.198.75 2.621 1.295 3.584 2.45.396-.513.631-.16.877.161.995 1.252 2.568 1.359 3.927 1.862.995.364 2.075.513 3.124.717 1.433.278 2.674-.878 2.45-2.333-.193-1.24-.599-2.46-1.273-3.53-.46-.75-.343-1.658-.835-2.418-.31-.45.342-.674.546-.546 1.027.642 1.915-.235 2.899-.224 1.198 0 3.06-1.862 2.931-2.836-.31-2.332-2.022-3.573-3.691-4.771-1.219-.856-2.771-1.177-4.258-1.476-.77-.15-.856-.546-.492-1.006.803-.995.171-1.84-.257-2.6-.502-.845-1.273-1.658-2.332-1.562-2.204.182-4.354.578-6.291 1.819-.588.364-1.219 1.145-2.129.663-.93-.492-1.851-1.038-2.781-1.53-1.98-.995-3.616-2.61-5.863-3.134-.407-.075-1.038-.75-.995-.92.685-1.84-.3-3.542-.364-5.296-.011-.29-.257-.6.203-.696.428-.107.525.278.525.546 0 1.006.502.802 1.251.824.739.021 1.252-.557 2.108-.343 1.123.268 3.028.514 3.424-.053 1.155-1.584 2.31.235 3.327-.417.128-.065.364-.214.567-.268 1.861-.46 3.552-1.476 5.488-1.605l1.519-.535c-.278.717-1.241.578-1.08 1.338.61.963 1.273 1.733 2.065 1.433 1.786 1.926 2.867 4.098 3.648 6.43.802 2.343 2.193 4.387 3.306 6.59.471-.053 1.091-.363.877.578 1.091.888 2.086 1.883 3.488 2.258.385-.043.845-.428 1.048.257 2.022-.204 2.814-1.284 2.91-3.724.022-.32-.406-.834.118-.995.321-.107.653.278.952.418 1.091.502 1.701 2.246 3.37 1.476.268-.118.46.289.278.46-.599.524-.278.46.225.631 1.241.471 2.365.899 3.777.557 1.337-.3 1.893-.824 1.647-2.269-.406-2.663-2.214-4.493-3.84-6.408-.728-.877-1.637-1.605-2.472-2.396.3-.172.535-.386.792-.46 2.172-.653 2.461-2.472 2.6-4.28.117-1.797-1.541-3.37-3.927-3.948l-.053-.01ZM94.512 17.394c-.01-.107.15-.343.235-.332.503.021.482.546.91.877-.632.022-1.07.043-1.156-.545h.01Zm27.388 25.13c.214.108.385.13.417.236.204.439-.299.524-.449.803-.096-.075-.278-.172-.257-.225.065-.268.182-.503.289-.813ZM85.396 37.72c.043-.064.236.032.31.064.161.321-.063.375-.224.439-.096.032-.235-.032-.353-.054.075-.16.15-.342.267-.449Zm5.853-.428c.524-.406 1.112-.396 1.316-.128.438.535-.46.45-.567.738-.578 1.626-2.697 1.423-3.392 2.685-.663 1.284-1.893 1.07-2.803 1.637-.225.171-.492.107-.685-.043-.267-.256 0-.492.129-.642.845-1.059 1.85-1.99 3.102-2.61.974-.524 2.022-.963 2.9-1.626v-.01Zm60.789-15.534c-.075.224-.182.353-.321.406-.139.054-.321.022-.513-.064-1.947 1.22-3.905 2.493-5.895 3.638-1.733 1.016-3.306 2.236-4.761 3.594-.375.332-.695.246-1.059.332-.054.289.16 1.016-.492.417-.3-.278-.311-.888-.46-1.348-.514-.995-1.669-1.187-2.504-1.562-1.412-.61-2.61-1.594-3.948-2.3-3.766-1.98-7.328-4.376-11.051-6.42-1.37-.737-3.103-1.304-4.611-.662-1.081.47-2.162.545-3.231.877-1.926.588-3.841.717-5.82.77-3.456.107-6.901.107-10.228-1.016-.225-.075-.482-.118-.717-.193-.129-.043-.236-.16-.46-.278.963-1.048 2.214-.781 3.36-.941 1.272-.182 2.535.128 3.819-.257 1.102-.343 1.85-1.124 1.594-1.99-.225-.75-.974-1.551-2.183-1.637-2.172-.171-3.883-1.434-5.51-2.942 1.049-.567 2.001-.193 2.985-.097 2.397.247 4.665 1.177 7.104 1.402.856.096.888-.246 1.038-.792-.075-.706-.706-1.369-.15-2.129-.792-.342-.941-1.733-2.204-1.262.086-1.006-1.048-1.027-1.359-1.723-.406.097-.406-.214-.492-.449-.834.032-1.005-.513-1.07-1.316.557.31 1.028.567 1.498.845l.236.471c1.883.246 3.102 1.658 4.375 2.771 2.589 2.247 5.457 3.745 8.859 3.723 4.247 0 8.077 1.22 11.875 2.964 2.461 1.112 4.804 2.396 7.243 3.509.086-.257.182-.503.257-.738-.043-.386-.974-.567-.353-1.006.653-.47.877.267 1.123.717.311 0 .76-.45.781.374 0 .706.236 1.412.353 2.118 1.595 1.038 3.007 2.343 4.59 3.36.835.546 1.958 1.091 3.242.053.984-.813 2.493-.941 3.819-1.144.385-.62.845-.054 1.263-.086.267-.824 1.048-.235 1.615-.899-.356.97-.895 1.27-1.615.899l-.022.01Zm26.501-5.874c-.482 1.08-.771 2.472-1.937 2.686-1.337.449-4.504-1.038-4.868-2.001-.181-.45.225-.482.428-.62 1.605-.942 3.435-1.167 5.189-1.563 1.198-.246 1.391 1.049 1.198 1.488l-.01.01Zm31.539 34.257s.022.01.032.032h-.021s-.075-.01-.086-.032h.075Zm-.674.054h.086v.182a.44.44 0 0 1-.171-.182c.021.01.075.021.096.01l-.011-.01Zm-58.596-4.077c-.482-.16-.407.118-.235.354.181.203.171.428.149.684-.032.653-.716.942-1.048.931-.439-.043-.364-.717-.289-1.123.096-.364.471-.503-.118-.963-.61-.47-.278-1.594-.139-2.354.075-.428.813-.267 1.081.15.353.567.62 1.187.92 1.787-.203.117.717.898-.321.534Zm41.061 15.813s-.075-.085-.107-.118c-.032-.032-.064-.042-.096-.075.043-.064.096-.096.139-.16.011.043.043.053.054.096.042.075.106.16 0 .268l.01-.01Zm54.67 12.806c-.824.246-.824-.31-.856-.856.075.022.204 0 .214.032.086.108.15.236.214.343.257-.086.353-.749.771-.343.374.375-.343.482-.343.814v.01Zm-4.151-13.277c-.866.375-1.754.76-2.493 1.306-.888.695-.888 1.69-.481 2.728.182.47.439.91.781 1.284.374.492 1.433.47 1.07 1.69-.278-.792-1.305-.364-1.445-1.252-.973-.053-1.198-1.177-2.203-1.444-1.53-.417-2.686.15-2.632 1.754.032.9.342 1.723.631 2.557.235.739.342 1.53.588 2.622-1.091-1.06-1.551-2.183-2.749-2.61-.31-.119-.396-1.06-.664-1.616-.962-2.236-1.925-4.505-2.567-6.88-.139-.502-.428-1.155-.856-1.348-1.509-.674-2.375-2.118-3.713-3.006-.941-.642-.888-1.327.033-2.193 1.144-1.049 2.45-1.797 3.637-2.728.556-.439.813-.417 1.166.235.46.792.845 1.573 1.188 2.407 1.626 3.788 1.658 5.018 6.697 4.996.867-.01 1.712-.117 2.578-.203.407-.17.792-.214 1.06.225.663-.129 1.294.139 1.39.727.129.62-.62.578-1.048.75h.032Z" fill="#000"/></g><defs><linearGradient id="h" x1="148.155" y1="46.293" x2="190.938" y2="46.999" gradientUnits="userSpaceOnUse"><stop stop-color="#7662AB"/><stop offset=".52" stop-color="#EE4F9C"/><stop offset="1" stop-color="#FDBD50"/></linearGradient><linearGradient id="b" x1="19.161" y1="218.102" x2="114.379" y2="218.102" gradientUnits="userSpaceOnUse"><stop stop-color="#7662AB"/><stop offset=".52" stop-color="#EE4F9C"/><stop offset="1" stop-color="#FDBD50"/></linearGradient><linearGradient id="d" x1="148.304" y1="37.201" x2="191.088" y2="37.907" gradientUnits="userSpaceOnUse"><stop stop-color="#7662AB"/><stop offset=".52" stop-color="#EE4F9C"/><stop offset="1" stop-color="#FDBD50"/></linearGradient><linearGradient id="e" x1="148.55" y1="21.954" x2="191.345" y2="22.66" gradientUnits="userSpaceOnUse"><stop stop-color="#7662AB"/><stop offset=".52" stop-color="#EE4F9C"/><stop offset="1" stop-color="#FDBD50"/></linearGradient><linearGradient id="f" x1="148.668" y1="15.278" x2="191.452" y2="15.974" gradientUnits="userSpaceOnUse"><stop stop-color="#7662AB"/><stop offset=".52" stop-color="#EE4F9C"/><stop offset="1" stop-color="#FDBD50"/></linearGradient><linearGradient id="g" x1="148.229" y1="42.016" x2="191.013" y2="42.722" gradientUnits="userSpaceOnUse"><stop stop-color="#7662AB"/><stop offset=".52" stop-color="#EE4F9C"/><stop offset="1" stop-color="#FDBD50"/></linearGradient><linearGradient id="c" x1="127.957" y1="330.35" x2="235.981" y2="330.35" gradientUnits="userSpaceOnUse"><stop stop-color="#7662AB"/><stop offset=".52" stop-color="#EE4F9C"/><stop offset="1" stop-color="#FDBD50"/></linearGradient><linearGradient id="i" x1="182.369" y1="35.164" x2="190.371" y2="35.164" gradientUnits="userSpaceOnUse"><stop stop-color="#9059FF"/><stop offset=".521" stop-color="#FF4AA2"/><stop offset="1" stop-color="#FFBD4F"/></linearGradient><linearGradient id="j" x1="182.604" y1="20.152" x2="192.211" y2="20.152" gradientUnits="userSpaceOnUse"><stop stop-color="#9059FF"/><stop offset=".521" stop-color="#FF4AA2"/><stop offset="1" stop-color="#FFBD4F"/></linearGradient><linearGradient id="k" x1="167.198" y1="12" x2="177.982" y2="12" gradientUnits="userSpaceOnUse"><stop stop-color="#9059FF"/><stop offset=".521" stop-color="#FF4AA2"/><stop offset="1" stop-color="#FFBD4F"/></linearGradient><linearGradient id="l" x1="159.859" y1="37.422" x2="167.262" y2="37.422" gradientUnits="userSpaceOnUse"><stop stop-color="#9059FF"/><stop offset=".521" stop-color="#FF4AA2"/><stop offset="1" stop-color="#FFBD4F"/></linearGradient><linearGradient id="m" x1="149" y1="43.133" x2="155.976" y2="43.133" gradientUnits="userSpaceOnUse"><stop stop-color="#9059FF"/><stop offset=".521" stop-color="#FF4AA2"/><stop offset="1" stop-color="#FFBD4F"/></linearGradient><clipPath id="a"><path fill="#fff" d="M0 0h328.918v400H0z"/></clipPath></defs></svg>