<!-- This Source Code Form is subject to the terms of the Mozilla Public
   - License, v. 2.0. If a copy of the MPL was not distributed with this
   - file, You can obtain one at http://mozilla.org/MPL/2.0/. -->
<svg data-name="icon" xmlns="http://www.w3.org/2000/svg" viewBox="0 0 16 16"><path fill="context-fill" fill-opacity="context-fill-opacity" d="M15 12H4a2 2 0 0 1-2-2V3a1 1 0 0 0-2 0v7a4 4 0 0 0 4 4h11a1 1 0 0 0 0-2z"/><path fill="context-fill" fill-opacity="context-fill-opacity" d="M4 11a1 1 0 0 0 1-1V8a1 1 0 0 0-2 0v2a1 1 0 0 0 1 1zM7 11a1 1 0 0 0 1-1V4a1 1 0 0 0-2 0v6a1 1 0 0 0 1 1zM10 11a1 1 0 0 0 1-1V6a1 1 0 0 0-2 0v4a1 1 0 0 0 1 1zM13 11a1 1 0 0 0 1-1V7a1 1 0 0 0-2 0v3a1 1 0 0 0 1 1z"/></svg>
