<!-- This Source Code Form is subject to the terms of the Mozilla Public
   - License, v. 2.0. If a copy of the MPL was not distributed with this
   - file, You can obtain one at http://mozilla.org/MPL/2.0/. -->
<svg xmlns="http://www.w3.org/2000/svg" width="16" height="16" viewBox="0 0 16 16"><path fill="context-fill" fill-opacity="context-fill-opacity" d="M14 1H2a2 2 0 0 0-2 2v10a2 2 0 0 0 2 2h12a2 2 0 0 0 2-2V3a2 2 0 0 0-2-2zm-1 11.5a.5.5 0 0 1-.5.5h-10a.5.5 0 0 1-.5-.5v-9a.5.5 0 0 1 .5-.5h10a.5.5 0 0 1 .5.5v9zM15 9h-1V7h1v2z"></path></svg>