<!-- This Source Code Form is subject to the terms of the Mozilla Public
   - License, v. 2.0. If a copy of the MPL was not distributed with this
   - file, You can obtain one at http://mozilla.org/MPL/2.0/. -->
<svg xmlns="http://www.w3.org/2000/svg"
     width="32" height="32" viewBox="0 0 32 32">
  <path fill="context-fill" fill-rule="evenodd"
        d="M20.8195396,14 L15.1804604,14 L15.1804604,14 L15.8471271,18 L20.1528729,18 L20.8195396,14 Z M22.8471271,14 L27.6125741,14 L27.6125741,14 L26.2792408,18 L22.1804604,18 L22.8471271,14 Z M21.1528729,12 L14.8471271,12 L14.8471271,12 L14.1804604,8 L21.8195396,8 L21.1528729,12 Z M23.1804604,12 L28.2792408,12 L28.2792408,12 L29.6125741,8 L23.8471271,8 L23.1804604,12 Z M13.1528729,14 L8.47703296,14 L10.077033,18 L10.077033,18 L13.8195396,18 L13.1528729,14 Z M12.8195396,12 L7.67703296,12 L6.07703296,8 L12.1528729,8 L12.8195396,12 L12.8195396,12 Z M31.7207592,8 L32,8 L32,6 L31,6 L5.27703296,6 L5.27703296,6 L4,2.8074176 L4,2 L3,2 L1,2 L0,2 L0,4 L1,4 L2.32296704,4 L9.78931928,22.6658806 L9.78931928,22.6658806 C8.71085924,23.3823847 8,24.6081773 8,26 C8,28.209139 9.790861,30 12,30 C14.209139,30 16,28.209139 16,26 C16,25.2714257 15.8052114,24.5883467 15.4648712,24 L22.5351288,24 C22.1947886,24.5883467 22,25.2714257 22,26 C22,28.209139 23.790861,30 26,30 C28.209139,30 30,28.209139 30,26 C30,23.790861 28.209139,22 26,22 L11.677033,22 L10.877033,20 L27,20 L28,20 L28,19.1622777 L31.7207592,8 L31.7207592,8 Z M26,28 C27.1045695,28 28,27.1045695 28,26 C28,24.8954305 27.1045695,24 26,24 C24.8954305,24 24,24.8954305 24,26 C24,27.1045695 24.8954305,28 26,28 Z M12,28 C13.1045695,28 14,27.1045695 14,26 C14,24.8954305 13.1045695,24 12,24 C10.8954305,24 10,24.8954305 10,26 C10,27.1045695 10.8954305,28 12,28 Z"/>
</svg>

