<!-- This Source Code Form is subject to the terms of the Mozilla Public
   - License, v. 2.0. If a copy of the MPL was not distributed with this
   - file, You can obtain one at http://mozilla.org/MPL/2.0/. -->
<svg xmlns="http://www.w3.org/2000/svg"
     width="32" height="32" viewBox="0 0 32 32">
  <path fill="context-fill" d="M9.1,18.5l-5.7,5.9C3.2,23.8,3,23.3,3,22.6c0-2.5,2-4.4,4.4-4.4C7.8,18.1,8.5,18.3,9.1,18.5 M26.5,18.5l-5.7,5.9
  c-0.2-0.5-0.4-1.1-0.4-1.8c0-2.5,2-4.4,4.4-4.4C25.4,18.1,26,18.3,26.5,18.5 M24.7,2L24.7,2c-0.7,0-1.4,0.7-1.4,1.4s0.7,1.4,1.4,1.4
  c2.5,0,4.4,2,4.4,4.4v7.6c-1.6-1.2-3.6-1.8-5.5-1.4c-2.1,0.4-3.9,1.6-5,3.4c-1.6-1.2-3.9-1.2-5.5,0c-1.1-1.8-2.8-3-5-3.4
  c-2-0.4-3.9,0.2-5.5,1.4V9.2c0-2.5,2-4.4,4.4-4.4c0.5,0,0.9-0.4,1.2-0.7c0.2-0.4,0.2-0.9,0-1.4C8.2,2.3,7.6,2,7.1,2
  C3.2,2,0,5.2,0,9.2v13.5C0,26.7,3.2,30,7.1,30l0,0c3.9,0,7.1-3.2,7.1-7.3c0-0.2,0-0.4,0-0.5c0.2-0.9,0.9-1.4,1.8-1.4
  s1.6,0.5,1.8,1.4v0.2c0,0.2,0,0.2,0,0.4c0,2,0.7,3.7,2.1,5c1.4,1.4,3,2.1,5,2.1l0,0c2,0,3.6-0.7,5-2.1c1.4-1.2,2.1-3.2,2.1-5V9.2
  C32,5.2,28.8,2,24.7,2"/>
</svg>

