<?xml version="1.0" encoding="UTF-8" standalone="no"?>
<svg width="67px" height="28px" viewBox="0 0 67 28" version="1.1" xmlns="http://www.w3.org/2000/svg" xmlns:xlink="http://www.w3.org/1999/xlink">
    <defs></defs>
    <g id="Page-1" stroke="none" stroke-width="1" fill="none" fill-rule="evenodd">
        <path d="M2,14 C2,7.372583 7.37049212,2 13.9962035,2 L52.9937982,2 C59.6191184,2 64.9900017,7.37112582 64.9900017,14 C64.9900017,20.627417 59.6195096,26 52.9937982,26 L13.9962035,26 C7.37088326,26 2,20.6288742 2,14 Z M32.994984,7.28907739 L32.994984,21.2024677 L33.9950177,21.2024677 L33.9950177,7.28907739 L32.994984,7.28907739 Z" id="Rectangle-1264" fill-opacity="0.95" fill="#FFFFFF"></path>
        <path d="M2,14 L2,14 C2,20.6288742 7.37173577,26 13.9981077,26 L53.0018923,26 C59.6286554,26 65,20.627417 65,14 L65,14 C65,7.37112582 59.6282642,2 53.0018923,2 L13.9981077,2 C7.37134457,2 2,7.372583 2,14 L2,14 Z M0,14 L0,14 C0,6.26795905 6.26682948,0 13.9981077,0 L53.0018923,0 C60.73337,0 67,6.26709264 67,14 C67,21.7320409 60.7331705,28 53.0018923,28 L13.9981077,28 C6.26662998,28 0,21.7329074 0,14 L0,14 Z" id="Shape" fill-opacity="0.2" fill="#000000"></path>
        <path d="M14.5056409,19.4029285 L18.9833396,19.4029285 C19.5376264,19.4029285 20.0166604,19.2013186 20.4075253,18.8104537 C20.8113066,18.407234 21,17.9405548 21,17.3733515 L21,16.2136735 L23.8360165,19.04969 C23.9247473,19.1384208 24.0252714,19.1760472 24.1516286,19.1760472 C24.2145264,19.1760472 24.2650693,19.1636922 24.3279671,19.1384208 C24.517222,19.0626065 24.6053912,18.9238944 24.6053912,18.7222845 L24.6053912,11.0706559 C24.6053912,10.8819625 24.517222,10.7432504 24.3279671,10.6550812 C24.2650693,10.6421647 24.2145264,10.6298098 24.1516286,10.6298098 C24.0252714,10.6298098 23.9247473,10.6674361 23.8360165,10.7556054 L21,13.5792669 L21,12.9085694 L22.8301248,11.0784446 C22.8719395,11.0366299 22.900024,10.9667307 22.900024,10.8962074 C22.900024,10.8406625 22.8719395,10.7701392 22.8301248,10.7283245 L22.1860538,10.0842535 C22.1298848,10.0280845 22.0737158,10 22.0038166,10 C21.9339174,10 21.8777484,10.0280845 21.8215795,10.0842535 L12.1698752,19.7216035 C12.1280605,19.7777724 12.099976,19.8339414 12.099976,19.9038406 C12.099976,19.9737398 12.1280605,20.0299088 12.1698752,20.0860778 L12.8139462,20.7301488 C12.8701152,20.7725876 12.9262842,20.800048 12.9961834,20.800048 C13.0667067,20.800048 13.1222516,20.7725876 13.1784205,20.7301488 L14.5056409,19.4029285 Z M19.454018,10.4528944 C19.3038986,10.4193577 19.1468952,10.4029285 18.9833396,10.4029285 L14.0295769,10.4029285 C13.4623736,10.4029285 12.9956945,10.5916218 12.5924747,10.9954032 C12.2016099,11.386268 12,11.8647405 12,12.4195889 L12,17.3733515 C12,17.5387368 12.0171407,17.6955757 12.0511158,17.8447868 L19.454018,10.4528944 L19.454018,10.4528944 Z" id="Fill-83-Copy-3" fill="#00A9DC"></path>
        <path d="M42.0698992,19.6831493 L42.7139702,20.3272204 C42.7701392,20.3696591 42.8263082,20.3971195 42.8962074,20.3971195 C42.9667307,20.3971195 43.0222756,20.3696591 43.0784446,20.3272204 L45.0537206,18.3382141 C45.6278925,18.6883341 46.2445031,18.8986558 46.9029285,18.968555 L46.9029285,20.0051848 L44.8995679,20.0051848 C44.7597696,20.0051848 44.6474316,20.0469995 44.5494479,20.1593375 C44.4514642,20.2573212 44.3952952,20.3696591 44.3952952,20.4957273 C44.3952952,20.6355257 44.4514642,20.7478637 44.5494479,20.8458473 C44.6474316,20.943831 44.7597696,21 44.8995679,21 L49.9004801,21 C50.0402784,21 50.1526164,20.943831 50.2506001,20.8458473 C50.3485838,20.7478637 50.4047528,20.6355257 50.4047528,20.4957273 C50.4047528,20.3696591 50.3485838,20.2573212 50.2506001,20.1593375 C50.1526164,20.0469995 50.0402784,20.0051848 49.9004801,20.0051848 L47.8971195,20.0051848 L47.8971195,18.968555 C49.0317331,18.8424868 49.9847336,18.3662986 50.7548728,17.5119059 C51.5256361,16.6568891 51.9038406,15.6483437 51.9038406,14.5 L51.9038406,13.5051848 C51.9038406,13.3653865 51.8476716,13.2530485 51.749688,13.1550648 C51.6517043,13.0570811 51.5393663,13.0009121 51.4132981,13.0009121 C51.2734998,13.0009121 51.1611618,13.0570811 51.0631781,13.1550648 C50.9651944,13.2530485 50.9090254,13.3653865 50.9090254,13.5051848 L50.9090254,14.5 C50.9090254,15.4667307 50.5589054,16.2930389 49.8723956,16.9795487 C49.1858857,17.6660586 48.3595775,18.0018243 47.4072012,18.0018243 C46.8330293,18.0018243 46.300048,17.8757561 45.7957753,17.6098896 L46.5528084,16.8534806 C46.8330293,16.9514642 47.112626,17.0076332 47.4072012,17.0076332 C48.093711,17.0076332 48.6816131,16.7554969 49.1721555,16.2649544 C49.6620739,15.7744119 49.9004801,15.1865098 49.9004801,14.5 L49.9004801,13.5051848 L52.7301488,10.6755161 C52.7719635,10.6337014 52.800048,10.5638022 52.800048,10.4932789 C52.800048,10.437734 52.7719635,10.3672108 52.7301488,10.3253961 L52.0860778,9.68132501 C52.0299088,9.62515602 51.9737398,9.59707153 51.9038406,9.59707153 C51.8339414,9.59707153 51.7777724,9.62515602 51.7216035,9.68132501 L42.0698992,19.318675 C42.0280845,19.374844 42,19.431013 42,19.5009121 C42,19.5708113 42.0280845,19.6269803 42.0698992,19.6831493 L42.0698992,19.6831493 Z M43.218867,16.1807009 L44.0027364,15.3824772 C43.9328373,15.0741719 43.8910226,14.7802208 43.8910226,14.5 L43.8910226,13.5051848 C43.8910226,13.3653865 43.8348536,13.2530485 43.7368699,13.1550648 C43.6388862,13.0570811 43.5265482,13.0009121 43.4004801,13.0009121 C43.2606817,13.0009121 43.1483437,13.0570811 43.0503601,13.1550648 C42.9523764,13.2530485 42.8962074,13.3653865 42.8962074,13.5051848 L42.8962074,14.5 C42.8962074,15.0741719 43.0085454,15.6346135 43.218867,16.1807009 L43.218867,16.1807009 Z M49.7606817,9.65324052 C49.5784446,9.16269803 49.2701392,8.77076332 48.85012,8.46245799 C48.4157465,8.15415266 47.9395583,8 47.4072012,8 C46.706337,8 46.1184349,8.23840614 45.6278925,8.72832453 C45.1379741,9.21886702 44.8995679,9.80739318 44.8995679,10.4932789 L44.8995679,14.5 L49.7606817,9.65324052 L49.7606817,9.65324052 Z" id="Fill-90-Copy-2" fill="#00A9DC"></path>
    </g>
</svg>