<!-- This Source Code Form is subject to the terms of the Mozilla Public
   - License, v. 2.0. If a copy of the MPL was not distributed with this
   - file, You can obtain one at http://mozilla.org/MPL/2.0/. -->
<svg width="160" height="128" xmlns="http://www.w3.org/2000/svg"><defs><linearGradient x1="40.05%" y1="62.116%" x2="89.619%" y2="54.654%" id="a"><stop stop-color="#20123A" offset="0%"/><stop stop-color="#20123A" stop-opacity="0" offset="100%"/><stop stop-color="#20123A" stop-opacity="0" offset="100%"/></linearGradient><linearGradient x1="56.717%" y1="13.312%" x2="61.313%" y2="106.223%" id="c"><stop stop-color="#321C64" offset="0%"/><stop stop-color="#20123A" offset="100%"/></linearGradient><linearGradient x1="54.131%" y1="103.324%" x2="89.536%" y2="-63.876%" id="d"><stop stop-color="#20123A" offset="0%"/><stop stop-color="#5F2ECA" offset="64.418%"/><stop stop-color="#7542E5" stop-opacity="0" offset="100%"/></linearGradient><linearGradient x1="52.541%" y1="106.999%" x2="57.74%" y2="-26.862%" id="e"><stop stop-color="#2B1753" offset="0%"/><stop stop-color="#7033CA" offset="36.937%"/><stop stop-color="#FF4AD9" offset="73.362%"/><stop stop-color="#FF778E" offset="100%"/><stop stop-color="#FF778E" offset="100%"/></linearGradient><linearGradient x1="58.794%" y1="0%" x2="-74.439%" y2="-16.628%" id="f"><stop stop-color="#FC4CA0" offset="0%"/><stop stop-color="#FFA769" offset="100%"/></linearGradient><filter x="0%" y="0%" width="100%" height="100%" filterUnits="objectBoundingBox" id="b"><feGaussianBlur in="SourceGraphic"/></filter></defs><g fill="none" fill-rule="evenodd"><path fill="url(#a)" filter="url(#b)" transform="rotate(180 80 64)" d="M0 0h160v128H0z"/><path d="M58.473 0C110.866 11.618 151.937 63.151 160 128H32V.002L58.473 0z" fill="url(#c)" transform="rotate(180 96 64)"/><path d="M80.504 0c44.34 18.223 76.82 68.234 79.496 127.998L77 128V.003L80.504 0z" fill="url(#d)" transform="rotate(180 118.5 64)"/><path d="M116.57 8.47l.346.861 40.43 103.36A51.41 51.41 0 0 1 160 122h-48V0c1.75 2.54 3.29 5.37 4.57 8.47z" fill="url(#e)" transform="rotate(180 136 61)"/><path d="M160 28h-14.998L145 0c3.895 9.971 8.903 19.403 15 28z" fill="url(#f)" transform="rotate(180 152.5 14)"/></g></svg>