<!-- This Source Code Form is subject to the terms of the Mozilla Public
   - License, v. 2.0. If a copy of the MPL was not distributed with this
   - file, You can obtain one at http://mozilla.org/MPL/2.0/. -->
<svg xmlns="http://www.w3.org/2000/svg" width="18" height="18" viewBox="0 0 18 18">
  <path fill="context-fill" d="M13.888,14.885l-2.375-2.158A14.275,14.275,0,0,1,10.2,13.894H7.8a15.252,15.252,0,0,1-1.372-1.167l-2.2,2.158H3V9.938L5.374,7.659C5.969,4.649,8.051,2,9,2s3.11,2.649,3.554,5.659L15,9.907v4.978H13.888ZM9,5.005c-0.332,0-1.023,1.044-1.386,1.958a9.7,9.7,0,0,1,1.414-.1,8.535,8.535,0,0,1,1.26.093C9.929,6.044,9.335,5.005,9,5.005ZM8.589,14.39a0.757,0.757,0,0,0-.09.359,0.541,0.541,0,0,0,.468.45,0.6,0.6,0,0,0,.522-0.45A0.754,0.754,0,0,0,9.4,14.39H9.987a2.131,2.131,0,0,1,.3.606A1.484,1.484,0,0,1,9,16,1.5,1.5,0,0,1,7.719,14.98a2.035,2.035,0,0,1,.3-0.59H8.589Z"/>
</svg>
