<!-- This Source Code Form is subject to the terms of the Mozilla Public
   - License, v. 2.0. If a copy of the MPL was not distributed with this
   - file, You can obtain one at http://mozilla.org/MPL/2.0/. -->
<svg xmlns="http://www.w3.org/2000/svg" viewBox="0 0 16 16" width="16" height="16" fill="context-fill" fill-opacity="context-fill-opacity">
  <path d="M4.185 15.499c-.336 0-.671-.104-.957-.313a1.62 1.62 0 0 1-.621-1.72l.86-3.375-2.68-2.226A1.618 1.618 0 0 1 .279 6.11a1.621 1.621 0 0 1 1.444-1.122l3.475-.225 1.288-3.237C6.735.903 7.329.5 8 .5s1.265.403 1.514 1.026l1.288 3.237 3.475.225a1.62 1.62 0 0 1 1.444 1.122 1.62 1.62 0 0 1-.509 1.757l-2.68 2.225.86 3.375a1.62 1.62 0 0 1-.621 1.72 1.618 1.618 0 0 1-1.828.059L8 13.385l-2.944 1.861a1.63 1.63 0 0 1-.871.253zM8 1.75a.365.365 0 0 0-.352.239L6.214 5.592l-.541.393-3.87.251a.366.366 0 0 0-.336.261.364.364 0 0 0 .119.407L4.57 9.383l.206.635-.958 3.758a.364.364 0 0 0 .145.399c.063.047.23.139.426.014l3.278-2.071.668 0 3.278 2.071a.365.365 0 0 0 .426-.014.367.367 0 0 0 .143-.4l-.958-3.758.206-.635 2.984-2.478a.364.364 0 0 0 .119-.408.367.367 0 0 0-.336-.261l-3.869-.251-.541-.393-1.435-3.603A.367.367 0 0 0 8 1.75z"/>
</svg>
