<!-- This Source Code Form is subject to the terms of the Mozilla Public
   - License, v. 2.0. If a copy of the MPL was not distributed with this
   - file, You can obtain one at http://mozilla.org/MPL/2.0/. -->
<svg xmlns="http://www.w3.org/2000/svg" width="16" height="16" viewBox="0 0 16 16">
  <path fill-opacity="context-fill-opacity" fill="context-fill" d="M8.014 0c-.3 0-.6.2-.8.7l-2 4.1-4.3.7c-1 .2-1.2.9-.5 1.6l3.1 3.3-.7 4.6c-.1.6.2 1 .7 1l.6-.2 3.9-2.1 3.9 2.1.6.2c.5 0 .8-.4.7-1.1l-.7-4.6 3.1-3.3c.7-.7.4-1.4-.5-1.6l-4.3-.7-2-4.1a.9.9 0 0 0-.8-.6z"/>
</svg>
