<!-- This Source Code Form is subject to the terms of the Mozilla Public
   - License, v. 2.0. If a copy of the MPL was not distributed with this
   - file, You can obtain one at http://mozilla.org/MPL/2.0/. -->
<svg xmlns="http://www.w3.org/2000/svg" width="16" height="16" viewBox="0 0 16 16">
  <path fill="context-fill" fill-opacity="context-fill-opacity" d="M13 15H3a2.006 2.006 0 0 1-2-2V3a2.006 2.006 0 0 1 2-2h10a2.006 2.006 0 0 1 2 2v10a2.006 2.006 0 0 1-2 2zm0-10a2.946 2.946 0 0 0-3-3H6a2.946 2.946 0 0 0-3 3v4a2.946 2.946 0 0 0 3 3h4c1.7 0 3-.3 3-2zm-3 3.2a2.769 2.769 0 0 0 .9-.1c.3-.1.5-.2.8-.3v.8a6.89 6.89 0 0 0-.8.3 2.22 2.22 0 0 1-.9.1 2.149 2.149 0 0 1-2.1-1.2 3.819 3.819 0 0 1-.9.9 2.663 2.663 0 0 1-1.2.3 1.728 1.728 0 0 1-1.3-.5A1.248 1.248 0 0 1 4 7.3 1.486 1.486 0 0 1 4.6 6a3.312 3.312 0 0 1 1.9-.5h.9v-.4a1.327 1.327 0 0 0-.3-1c-.1-.3-.4-.4-.8-.4a3.429 3.429 0 0 0-1.6.4l-.2-.6a3.919 3.919 0 0 1 .9-.4c.3 0 .6-.1 1-.1a3.6 3.6 0 0 1 1.1.2 1.7 1.7 0 0 1 .6.8 1.575 1.575 0 0 1 .7-.7 1.689 1.689 0 0 1 1-.3 1.865 1.865 0 0 1 1.6.7 2.883 2.883 0 0 1 .6 1.9v.6H8.4c0 1.4.6 2 1.6 2zM7.5 6.1h-.8a2.42 2.42 0 0 0-1.4.3.975.975 0 0 0-.4.9.779.779 0 0 0 .3.7.844.844 0 0 0 .7.2 1.594 1.594 0 0 0 1.2-.4 1.7 1.7 0 0 0 .4-1.3zm3.6-.6a2.269 2.269 0 0 0-.3-1.3.975.975 0 0 0-.9-.4 1.284 1.284 0 0 0-1 .4 2.226 2.226 0 0 0-.5 1.3z"/>
</svg>
