<!-- This Source Code Form is subject to the terms of the Mozilla Public
   - License, v. 2.0. If a copy of the MPL was not distributed with this
   - file, You can obtain one at http://mozilla.org/MPL/2.0/. -->
<svg xmlns="http://www.w3.org/2000/svg" width="1278" height="36" fill="context-fill" fill-opacity="context-fill-opacity">
  <svg>
    <path d="M9.7 17.3l-5-5a1 1 0 1 0-1.4 1.4L7.6 18l-4.3 4.3a1 1 0 0 0 0 1.4 1 1 0 0 0 1.4 0l5-5a1 1 0 0 0 0-1.4zm6 0l-5-5a1 1 0 1 0-1.4 1.4l4.3 4.3-4.3 4.3a1 1 0 0 0 0 1.4 1 1 0 0 0 1.4 0l5-5a1 1 0 0 0 0-1.4z"/>
  </svg>
  <svg x="18">
    <path d="M9.7 17.3l-5-5a1 1 0 1 0-1.4 1.3L7.6 18l-4.4 4.2a1 1 0 0 0 0 1.4 1 1 0 0 0 1.4 0l5.1-4.9a1 1 0 0 0 0-1.4zm6 0l-5-5a1 1 0 1 0-1.4 1.4l4.3 4.3-4.4 4.3a1 1 0 0 0 0 1.4 1 1 0 0 0 1.4 0l5.1-5a1 1 0 0 0 0-1.3z"/>
  </svg>
  <svg x="36">
    <path d="M9.7 17.3L5 12.1a1 1 0 1 0-1.4 1.4l4 4.4-4.4 4.2a1 1 0 0 0 0 1.4 1 1 0 0 0 1.4 0l5.2-4.8a1 1 0 0 0 0-1.4zm6 .3L11 12.4a1 1 0 1 0-1.4 1.3l4 4.5-4.4 4.1a1 1 0 0 0 0 1.4 1 1 0 0 0 1.4 0l5.2-4.7a1 1 0 0 0 0-1.4z"/>
  </svg>
  <svg x="54">
    <path d="M9.8 17.4l-4.6-5.5a1 1 0 1 0-1.5 1.3L7.6 18l-4.7 3.9a1 1 0 0 0-.1 1.4 1 1 0 0 0 1.4.1l5.4-4.5a1 1 0 0 0 .2-1.4zm6 .5l-4.6-5.4a1 1 0 1 0-1.5 1.2l3.9 4.7-4.7 3.9a1 1 0 0 0-.1 1.4 1 1 0 0 0 1.4.2l5.4-4.6a1 1 0 0 0 .1-1.4z"/>
  </svg>
  <svg x="72">
    <path d="M9.8 17.4l-4.2-5.7A1 1 0 1 0 4 13l3.6 4.9-4.9 3.6a1 1 0 0 0-.2 1.4 1 1 0 0 0 1.4.2l5.7-4.2a1 1 0 0 0 .2-1.4zm6 .9l-4.3-5.7a1 1 0 1 0-1.6 1.2l3.6 4.9-4.8 3.6a1 1 0 0 0-.3 1.4 1 1 0 0 0 1.4.2l5.7-4.2a1 1 0 0 0 .2-1.4z"/>
  </svg>
  <svg x="90">
    <path d="M9.8 17.5l-3.7-6a1 1 0 1 0-1.7 1l3.2 5.2-5.1 3.2a1 1 0 0 0-.4 1.4 1 1 0 0 0 1.4.3l6-3.8a1 1 0 0 0 .3-1.3zm5.9 1.3l-3.8-6a1 1 0 1 0-1.7 1l3.3 5.2-5.2 3.2a1 1 0 0 0-.3 1.4 1 1 0 0 0 1.4.4l6-3.8a1 1 0 0 0 .3-1.4z"/>
  </svg>
  <svg x="108">
    <path d="M9.9 17.5l-3.2-6.2a1 1 0 1 0-1.8.9l2.8 5.4-5.4 2.7a1 1 0 0 0-.5 1.4A1 1 0 0 0 3 22l6.6-3a1 1 0 0 0 .4-1.4zm5.7 1.9L12.4 13a1 1 0 1 0-1.8.9l2.8 5.4L8 22.2a1 1 0 0 0-.5 1.3 1 1 0 0 0 1.3.5l6.4-3.3a1 1 0 0 0 .4-1.3z"/>
  </svg>
  <svg x="126">
    <path d="M10 17.6l-2.7-6.5a1 1 0 1 0-1.8.7l2.2 5.6-5.6 2.3a1 1 0 0 0-.6 1.3 1 1 0 0 0 1.3.6l6.6-2.7a1 1 0 0 0 .5-1.3zm5.4 2.4l-2.6-6.6a1 1 0 1 0-1.8.8l2.2 5.6-5.6 2.3a1 1 0 0 0-.6 1.2 1 1 0 0 0 1.3.6l6.6-2.6a1 1 0 0 0 .5-1.3z"/>
  </svg>
  <svg x="144">
    <path d="M10 17.7L8 11a1 1 0 1 0-1.9.6l1.7 5.8L1.9 19a1 1 0 0 0-.7 1.2 1 1 0 0 0 1.2.7l6.9-2a1 1 0 0 0 .7-1.2zm5.2 3l-2-6.8a1 1 0 1 0-1.8.5l1.6 5.8L7.2 22a1 1 0 0 0-.8 1.2 1 1 0 0 0 1.3.7l6.8-2a1 1 0 0 0 .7-1.1z"/>
  </svg>
  <svg x="162">
    <path d="M10 17.8l-1.2-7a1 1 0 1 0-2 .4l1 6-6 1a1 1 0 0 0-.8 1.1 1 1 0 0 0 1.2.9l7-1.2a1 1 0 0 0 .8-1.2zm4.9 3.5l-1.2-7a1 1 0 1 0-2 .4l1 6-6 1a1 1 0 0 0-.8 1.1 1 1 0 0 0 1.1.8l7-1.1a1 1 0 0 0 .9-1.2z"/>
  </svg>
  <svg x="180">
    <path d="M10 18l-.4-7.1a1 1 0 1 0-2 .1l.3 6-6 .4a1 1 0 0 0-1 1 1 1 0 0 0 1 1H2l7-.4a1 1 0 0 0 1-1zm4.5 4l-.4-7.1a1 1 0 1 0-2 0l.3 6.2-6 .3a1 1 0 0 0-1 1 1 1 0 0 0 1 1l7.1-.4a1 1 0 0 0 1-1z"/>
  </svg>
  <svg x="198">
    <path d="M10 18l.4-7a1 1 0 1 0-2-.1l-.3 6-6.1-.3a1 1 0 0 0-1 1 1 1 0 0 0 .8 1L9 19a1 1 0 0 0 1.1-1zm4 4.5l.4-7a1 1 0 1 0-2-.1l-.3 6-6.1-.3a1 1 0 0 0-1 .9 1 1 0 0 0 .8 1l7.1.5a1 1 0 0 0 1.1-1z"/>
  </svg>
  <svg x="216">
    <path d="M10 18.2l1.2-7a1 1 0 1 0-2-.3l-1 6-6-1a1 1 0 0 0-1.2.7 1 1 0 0 0 .8 1.2l7 1.2a1 1 0 0 0 1.2-.8zm3.5 4.9l1.1-7a1 1 0 1 0-2-.3l-1 6-6-1a1 1 0 0 0-1 .7 1 1 0 0 0 .7 1.2l7 1.2a1 1 0 0 0 1.2-.8z"/>
  </svg>
  <svg x="234">
    <path d="M10 18.3l1.9-6.8a1 1 0 1 0-2-.6l-1.6 5.9L2.5 15a1 1 0 0 0-1.3.7A1 1 0 0 0 2 17l6.8 2a1 1 0 0 0 1.3-.7zm2.9 5.2l2-6.8a1 1 0 1 0-2-.5L11.2 22l-5.8-1.6a1 1 0 0 0-1.2.6 1 1 0 0 0 .6 1.3l6.9 1.9a1 1 0 0 0 1.2-.7z"/>
  </svg>
  <svg x="252">
    <path d="M10 18.4l2.5-6.6a1 1 0 1 0-1.8-.7l-2.3 5.6-5.6-2.2a1 1 0 0 0-1.3.5 1 1 0 0 0 .5 1.3L8.7 19a1 1 0 0 0 1.3-.5zm2.3 5.5l2.6-6.6a1 1 0 1 0-1.8-.7l-2.3 5.6L5.2 20a1 1 0 0 0-1.3.5 1 1 0 0 0 .5 1.3l6.6 2.6a1 1 0 0 0 1.3-.5z"/>
  </svg>
  <svg x="270">
    <path d="M9.9 18.5l3.2-6.3a1 1 0 1 0-1.8-1l-2.7 5.5-5.4-2.8a1 1 0 0 0-1.4.4 1 1 0 0 0 .4 1.3L8.6 19a1 1 0 0 0 1.4-.4zm1.8 5.7l3.3-6.3a1 1 0 1 0-1.8-1l-2.8 5.5L5 19.6a1 1 0 0 0-1.3.4 1 1 0 0 0 .4 1.4l6.3 3.2a1 1 0 0 0 1.3-.4z"/>
  </svg>
  <svg x="288">
    <path d="M9.8 18.5l3.8-6a1 1 0 1 0-1.7-1l-3.2 5.1-5.2-3.2a1 1 0 0 0-1.3.3 1 1 0 0 0 .2 1.4l6 3.7a1 1 0 0 0 1.4-.3zm1.4 5.9l3.7-6a1 1 0 1 0-1.7-1l-3.2 5-5-3.1a1 1 0 0 0-1.4.3 1 1 0 0 0 .3 1.4l6 3.8a1 1 0 0 0 1.4-.3z"/>
  </svg>
  <svg x="306">
    <path d="M9.8 18.6l4.2-5.7a1 1 0 1 0-1.6-1.2l-3.6 4.9L3.9 13a1 1 0 0 0-1.4.2 1 1 0 0 0 .2 1.4l5.7 4.2a1 1 0 0 0 1.4-.2zm.9 6l4.2-5.8a1 1 0 1 0-1.6-1.1l-3.6 4.8L4.8 19a1 1 0 0 0-1.4.2 1 1 0 0 0 .2 1.4l5.7 4.2a1 1 0 0 0 1.4-.2z"/>
  </svg>
  <svg x="324">
    <path d="M9.8 18.6l4.5-5.4a1 1 0 1 0-1.5-1.3l-4 4.7-4.6-4a1 1 0 0 0-1.4.2 1 1 0 0 0 .1 1.4l5.5 4.6a1 1 0 0 0 1.4-.2zm.5 6l4.5-5.4a1 1 0 1 0-1.5-1.3l-3.9 4.7-4.7-4a1 1 0 0 0-1.4.2 1 1 0 0 0 .1 1.4L9 24.7a1 1 0 0 0 1.4 0z"/>
  </svg>
  <svg x="342">
    <path d="M9.7 18.7l4.8-5.2a1 1 0 1 0-1.4-1.4l-4.2 4.5-4.4-4.1a1 1 0 0 0-1.4 0 1 1 0 0 0 0 1.4l5.2 4.8a1 1 0 0 0 1.4 0zm.3 6l4.8-5.2a1 1 0 1 0-1.5-1.4l-4.1 4.5-4.5-4.1a1 1 0 0 0-1.4 0 1 1 0 0 0 0 1.4l5.3 4.8a1 1 0 0 0 1.4 0z"/>
  </svg>
  <svg x="360">
    <path d="M9.7 18.7l5-5a1 1 0 1 0-1.5-1.5L9 16.6l-4.4-4.3a1 1 0 0 0-1.4 0 1 1 0 0 0 0 1.4l5.1 5a1 1 0 0 0 1.4 0zm0 6l5-5a1 1 0 1 0-1.4-1.5L9 22.6l-4.3-4.3a1 1 0 0 0-1.4 0 1 1 0 0 0 0 1.4l5 5a1 1 0 0 0 1.5 0z"/>
  </svg>
  <svg x="378">
    <path d="M9.7 18.7l5-5a1 1 0 1 0-1.4-1.4L9 16.6l-4.3-4.3a1 1 0 0 0-1.4 0 1 1 0 0 0 0 1.4l5 5a1 1 0 0 0 1.4 0zm0 6l5-5a1 1 0 1 0-1.4-1.4L9 22.6l-4.3-4.3a1 1 0 0 0-1.4 0 1 1 0 0 0 0 1.4l5 5a1 1 0 0 0 1.4 0z"/>
  </svg>
  <svg x="396">
    <path d="M9.7 18.8l5-5a1 1 0 1 0-1.4-1.4L9 16.7l-4.3-4.3a1 1 0 0 0-1.4 0 1 1 0 0 0 0 1.4l5 5a1 1 0 0 0 1.4 0zm0 6l5-5a1 1 0 1 0-1.4-1.4L9 22.7l-4.3-4.3a1 1 0 0 0-1.4 0 1 1 0 0 0 0 1.4l5 5a1 1 0 0 0 1.4 0z"/>
  </svg>
  <svg x="414">
    <path d="M9.7 19l5-5a1 1 0 1 0-1.4-1.4L9 17l-4.3-4.3a1 1 0 0 0-1.4 0 1 1 0 0 0 0 1.4l5 5a1 1 0 0 0 1.4 0zm0 6l5-5a1 1 0 1 0-1.4-1.4L9 23l-4.3-4.3a1 1 0 0 0-1.4 0 1 1 0 0 0 0 1.4l5 5a1 1 0 0 0 1.4 0z"/>
  </svg>
  <svg x="432">
    <path d="M9.7 19.3l5-5a1 1 0 1 0-1.4-1.4L9 17.2 4.7 13a1 1 0 0 0-1.4 0 1 1 0 0 0 0 1.4l5 5a1 1 0 0 0 1.4 0zm0 6l5-5a1 1 0 1 0-1.4-1.4L9 23.2 4.7 19a1 1 0 0 0-1.4 0 1 1 0 0 0 0 1.4l5 5a1 1 0 0 0 1.4 0z"/>
  </svg>
  <svg x="450">
    <path d="M9.7 19.7l5-5a1 1 0 1 0-1.4-1.4L9 17.6l-4.3-4.3a1 1 0 0 0-1.4 0 1 1 0 0 0 0 1.4l5 5a1 1 0 0 0 1.4 0zm0 6l5-5a1 1 0 1 0-1.4-1.4L9 23.6l-4.3-4.3a1 1 0 0 0-1.4 0 1 1 0 0 0 0 1.4l5 5a1 1 0 0 0 1.4 0z"/>
  </svg>
  <svg x="468">
    <path d="M9.7 20l5-5a1 1 0 1 0-1.4-1.3L9 18l-4.3-4.3a1 1 0 0 0-1.4 0 1 1 0 0 0 0 1.3l5 5a1 1 0 0 0 1.4 0zm0 6l5-5a1 1 0 1 0-1.4-1.3L9 24l-4.3-4.3a1 1 0 0 0-1.4 0 1 1 0 0 0 0 1.3l5 5a1 1 0 0 0 1.4 0z"/>
  </svg>
  <svg x="486">
    <path d="M9.7 20.4l5-5a1 1 0 1 0-1.4-1.4L9 18.3 4.7 14a1 1 0 0 0-1.4 0 1 1 0 0 0 0 1.4l5 5a1 1 0 0 0 1.4 0zm0 6l5-5a1 1 0 1 0-1.4-1.4L9 24.3 4.7 20a1 1 0 0 0-1.4 0 1 1 0 0 0 0 1.4l5 5a1 1 0 0 0 1.4 0z"/>
  </svg>
  <svg x="504">
    <path d="M9.7 20.6l5.1-5a1 1 0 0 0 0-1.4 1 1 0 0 0-1.4 0L9 18.5l-4.4-4.3a1 1 0 0 0-1.4 0 1 1 0 0 0 0 1.4l5 5a1 1 0 0 0 1.5 0zm0 6l5.1-5a1 1 0 0 0 0-1.4 1 1 0 0 0-1.4 0L9 24.5l-4.4-4.3a1 1 0 0 0-1.4 0 1 1 0 0 0 0 1.4l5 5a1 1 0 0 0 1.5 0z"/>
  </svg>
  <svg x="522">
    <path d="M9.7 20.7l5.3-5a1 1 0 0 0 0-1.4 1 1 0 0 0-1.5 0L9 18.6l-4.5-4.3a1 1 0 0 0-1.5 0 1 1 0 0 0 0 1.4l5.3 5a1 1 0 0 0 1.4 0zm0 6l5.3-5a1 1 0 0 0 0-1.4 1 1 0 0 0-1.5 0L9 24.6l-4.5-4.3a1 1 0 0 0-1.5 0 1 1 0 0 0 0 1.4l5.3 5a1 1 0 0 0 1.4 0z"/>
  </svg>
  <svg x="540">
    <path d="M9.8 20.9l5.3-5c.4-.4.4-1 0-1.5-.4-.3-1.1-.3-1.5 0L9 18.7l-4.6-4.3c-.4-.4-1-.4-1.5 0a1 1 0 0 0 0 1.4l5.3 5c.5.4 1.1.4 1.6 0zm0 6l5.3-5c.4-.4.4-1 0-1.5-.4-.3-1.1-.3-1.5 0L9 24.7l-4.6-4.3c-.4-.4-1-.4-1.5 0a1 1 0 0 0 0 1.4l5.3 5c.5.4 1.1.4 1.6 0z"/>
  </svg>
  <svg x="558">
    <path d="M9.8 21.2l5.4-5c.5-.4.4-1 0-1.4-.4-.4-1-.4-1.5 0L9 19.1l-4.7-4.3a1 1 0 0 0-1.5 0 1 1 0 0 0 0 1.4l5.4 5c.5.4 1.1.4 1.6 0zm0 6l5.4-5c.5-.4.4-1 0-1.4-.4-.4-1-.4-1.5 0L9 25.1l-4.7-4.3a1 1 0 0 0-1.5 0 1 1 0 0 0 0 1.4l5.4 5c.5.4 1.1.4 1.6 0z"/>
  </svg>
  <svg x="576">
    <path d="M9.8 21.7l5.6-5c.4-.4.4-1 0-1.4-.5-.4-1.2-.4-1.6 0L9 19.6l-4.8-4.3c-.4-.4-1.1-.4-1.6 0a1 1 0 0 0 0 1.4l5.6 5c.4.4 1.2.4 1.6 0zm0 6l5.6-5c.4-.4.4-1 0-1.4-.5-.4-1.2-.4-1.6 0L9 25.6l-4.8-4.3c-.4-.4-1.1-.4-1.6 0a1 1 0 0 0 0 1.4l5.6 5c.4.4 1.2.4 1.6 0z"/>
  </svg>
  <svg x="594">
    <path d="M9.8 22.2l5.7-5c.5-.4.5-1 0-1.4-.4-.4-1.1-.4-1.6 0L9 20l-5-4.3c-.4-.4-1-.4-1.5 0a1 1 0 0 0 0 1.4l5.7 5c.4.4 1.2.4 1.6 0zm0 6l5.7-5c.5-.4.5-1 0-1.4-.4-.4-1.1-.4-1.6 0L9 26l-5-4.3c-.4-.4-1-.4-1.5 0a1 1 0 0 0 0 1.4l5.7 5c.4.4 1.2.4 1.6 0z"/>
  </svg>
  <svg x="612">
    <path d="M9.8 22.6l5.9-5c.4-.4.4-1 0-1.5-.5-.3-1.2-.3-1.7 0l-5 4.3-5-4.3c-.5-.4-1.2-.4-1.7 0a1 1 0 0 0 0 1.4l5.9 5c.4.4 1.2.4 1.6 0zm0 6l5.9-5c.4-.4.4-1 0-1.5-.5-.3-1.2-.3-1.7 0l-5 4.3-5-4.3c-.5-.4-1.2-.4-1.7 0a1 1 0 0 0 0 1.4l5.9 5c.4.4 1.2.4 1.6 0z"/>
  </svg>
  <svg x="630">
    <path d="M9.8 22.7l6-5c.4-.4.4-1 0-1.4-.5-.4-1.2-.4-1.7 0L9 20.6l-5.1-4.3c-.5-.4-1.2-.4-1.7 0s-.5 1 0 1.4l6 5c.4.4 1.2.4 1.6 0zm0 6l6-5c.4-.4.4-1 0-1.4-.5-.4-1.2-.4-1.7 0L9 26.6l-5.1-4.3c-.5-.4-1.2-.4-1.7 0s-.5 1 0 1.4l6 5c.4.4 1.2.4 1.6 0z"/>
  </svg>
  <svg x="648">
    <path d="M9.9 22.3l6-5c.5-.4.5-1 0-1.4-.5-.4-1.2-.4-1.7 0L9 20.2l-5.2-4.3c-.5-.4-1.2-.4-1.7 0-.5.3-.5 1 0 1.4l6 5c.5.4 1.3.4 1.8 0zm0 6l6-5c.5-.4.5-1 0-1.4-.5-.4-1.2-.4-1.7 0L9 26.2l-5.2-4.3c-.5-.4-1.2-.4-1.7 0-.5.3-.5 1 0 1.4l6 5c.5.4 1.3.4 1.8 0z"/>
  </svg>
  <svg x="666">
    <path d="M9.9 21.3l6.1-5c.5-.4.5-1 0-1.4-.5-.4-1.3-.4-1.7 0L9 19.2l-5.3-4.3c-.4-.4-1.2-.4-1.7 0-.5.3-.5 1 0 1.4l6.1 5c.5.4 1.3.4 1.8 0zm0 6l6.1-5c.5-.4.5-1 0-1.4-.5-.4-1.3-.4-1.7 0L9 25.2l-5.3-4.3c-.4-.4-1.2-.4-1.7 0-.5.3-.5 1 0 1.4l6.1 5c.5.4 1.3.4 1.8 0z"/>
  </svg>
  <svg x="684">
    <path d="M9.9 20.1l6.2-5c.4-.4.4-1 0-1.4-.5-.4-1.3-.4-1.8 0L9 18l-5.3-4.3c-.5-.4-1.3-.4-1.8 0s-.5 1 0 1.4l6.2 5c.5.4 1.3.4 1.8 0zm0 6l6.2-5c.4-.4.4-1 0-1.4-.5-.4-1.3-.4-1.8 0L9 24l-5.3-4.3c-.5-.4-1.3-.4-1.8 0s-.5 1 0 1.4l6.2 5c.5.4 1.3.4 1.8 0z"/>
  </svg>
  <svg x="702">
    <path d="M9.9 19.1l6.2-5c.5-.4.5-1 0-1.4-.5-.4-1.3-.4-1.7 0L9 17l-5.4-4.3c-.4-.4-1.2-.4-1.7 0s-.5 1 0 1.4l6.2 5c.5.4 1.3.4 1.8 0zm0 6l6.2-5c.5-.4.5-1 0-1.4-.5-.4-1.3-.4-1.7 0L9 23l-5.4-4.3c-.4-.4-1.2-.4-1.7 0s-.5 1 0 1.4l6.2 5c.5.4 1.3.4 1.8 0z"/>
  </svg>
  <svg x="720">
    <path d="M9.9 18.7l6.2-5c.5-.4.5-1 0-1.4-.5-.4-1.2-.4-1.7 0L9 16.6l-5.4-4.3c-.4-.4-1.2-.4-1.7 0s-.5 1 0 1.4l6.2 5c.5.4 1.3.4 1.8 0zm0 6l6.2-5c.5-.4.5-1 0-1.4-.5-.4-1.2-.4-1.7 0L9 22.6l-5.4-4.3c-.4-.4-1.2-.4-1.7 0s-.5 1 0 1.4l6.2 5c.5.4 1.3.4 1.8 0z"/>
  </svg>
  <svg x="738">
    <path d="M9.9 18.7l6-5c.5-.4.5-1 0-1.4-.4-.4-1.2-.4-1.7 0L9 16.6l-5.2-4.3c-.5-.4-1.3-.4-1.8 0-.4.4-.5 1 0 1.4l6.1 5c.5.4 1.3.4 1.8 0zm0 6l6-5c.5-.4.5-1 0-1.4-.4-.4-1.2-.4-1.7 0L9 22.6l-5.2-4.3c-.5-.4-1.3-.4-1.8 0-.4.4-.5 1 0 1.4l6.1 5c.5.4 1.3.4 1.8 0z"/>
  </svg>
  <svg x="756">
    <path d="M9.8 18.7l6-5c.4-.4.4-1 0-1.4-.5-.4-1.3-.4-1.7 0L9 16.6l-5-4.3c-.5-.4-1.3-.4-1.8 0a1 1 0 0 0 0 1.4l6 5c.4.4 1.2.4 1.6 0zm0 6l6-5c.4-.4.4-1 0-1.4-.5-.4-1.3-.4-1.7 0L9 22.6l-5-4.3c-.5-.4-1.3-.4-1.8 0a1 1 0 0 0 0 1.4l6 5c.4.4 1.2.4 1.6 0z"/>
  </svg>
  <svg x="774">
    <path d="M9.8 18.7l5.8-5c.4-.4.4-1 0-1.4-.5-.4-1.2-.4-1.7 0L9 16.6l-5-4.3c-.4-.4-1.1-.4-1.6 0a1 1 0 0 0 0 1.4l5.8 5c.4.4 1.2.4 1.6 0zm0 6l5.8-5c.4-.4.4-1 0-1.4-.5-.4-1.2-.4-1.7 0L9 22.6l-5-4.3c-.4-.4-1.1-.4-1.6 0a1 1 0 0 0 0 1.4l5.8 5c.4.4 1.2.4 1.6 0z"/>
  </svg>
  <svg x="792">
    <path d="M9.8 18.7l5.5-5c.5-.4.5-1 0-1.4a1 1 0 0 0-1.5 0L9 16.6l-4.8-4.3a1 1 0 0 0-1.5 0 1 1 0 0 0 0 1.4l5.5 5c.4.4 1.2.4 1.6 0zm0 6l5.5-5c.5-.4.5-1 0-1.4a1 1 0 0 0-1.5 0L9 22.6l-4.8-4.3a1 1 0 0 0-1.5 0 1 1 0 0 0 0 1.4l5.5 5c.4.4 1.2.4 1.6 0z"/>
  </svg>
  <svg x="810">
    <path d="M9.8 18.7l5.3-5c.5-.4.4-1 0-1.4-.4-.4-1-.4-1.5 0L9 16.6l-4.6-4.3a1 1 0 0 0-1.5 0 1 1 0 0 0 0 1.4l5.3 5c.5.4 1.1.4 1.6 0zm0 6l5.3-5c.5-.4.4-1 0-1.4-.4-.4-1-.4-1.5 0L9 22.6l-4.6-4.3a1 1 0 0 0-1.5 0 1 1 0 0 0 0 1.4l5.3 5c.5.4 1.1.4 1.6 0z"/>
  </svg>
  <svg x="828">
    <path d="M9.7 18.7l5.3-5a1 1 0 0 0 0-1.4 1 1 0 0 0-1.5 0L9 16.6l-4.5-4.3a1 1 0 0 0-1.5 0 1 1 0 0 0 0 1.4l5.3 5a1 1 0 0 0 1.4 0zm0 6l5.3-5a1 1 0 0 0 0-1.4 1 1 0 0 0-1.5 0L9 22.6l-4.5-4.3a1 1 0 0 0-1.5 0 1 1 0 0 0 0 1.4l5.3 5a1 1 0 0 0 1.4 0z"/>
  </svg>
  <svg x="846">
    <path d="M9.7 18.7l5.1-5a1 1 0 0 0 0-1.4 1 1 0 0 0-1.4 0L9 16.6l-4.4-4.3a1 1 0 0 0-1.4 0 1 1 0 0 0 0 1.4l5 5a1 1 0 0 0 1.5 0zm0 6l5.1-5a1 1 0 0 0 0-1.4 1 1 0 0 0-1.4 0L9 22.6l-4.4-4.3a1 1 0 0 0-1.4 0 1 1 0 0 0 0 1.4l5 5a1 1 0 0 0 1.5 0z"/>
  </svg>
  <svg x="864">
    <path d="M9.7 18.7l5-5a1 1 0 0 0 0-1.4 1 1 0 0 0-1.4 0L9 16.6l-4.3-4.3a1 1 0 0 0-1.4 0 1 1 0 0 0 0 1.4l5 5a1 1 0 0 0 1.4 0zm0 6l5-5a1 1 0 0 0 0-1.4 1 1 0 0 0-1.4 0L9 22.6l-4.3-4.3a1 1 0 0 0-1.4 0 1 1 0 0 0 0 1.4l5 5a1 1 0 0 0 1.4 0z"/>
  </svg>
  <svg x="882">
    <path d="M9.7 18.7l5-5a1 1 0 1 0-1.4-1.4L9 16.6l-4.3-4.3a1 1 0 0 0-1.4 0 1 1 0 0 0 0 1.4l5 5a1 1 0 0 0 1.4 0zm0 6l5-5a1 1 0 1 0-1.4-1.4L9 22.6l-4.3-4.3a1 1 0 0 0-1.4 0 1 1 0 0 0 0 1.4l5 5a1 1 0 0 0 1.4 0z"/>
  </svg>
  <svg x="900">
    <path d="M9.7 18.7l5-5a1 1 0 1 0-1.4-1.4L9 16.6l-4.3-4.3a1 1 0 0 0-1.4 0 1 1 0 0 0 0 1.4l5 5a1 1 0 0 0 1.4 0zm0 6l5-5a1 1 0 1 0-1.4-1.4L9 22.6l-4.3-4.3a1 1 0 0 0-1.4 0 1 1 0 0 0 0 1.4l5 5a1 1 0 0 0 1.4 0z"/>
  </svg>
  <svg x="918">
    <path d="M9.7 18.7l5-5a1 1 0 1 0-1.4-1.4L9 16.6l-4.3-4.3a1 1 0 0 0-1.4 0 1 1 0 0 0 0 1.4l5 5a1 1 0 0 0 1.4 0zm0 6l5-5a1 1 0 1 0-1.4-1.4L9 22.6l-4.3-4.3a1 1 0 0 0-1.4 0 1 1 0 0 0 0 1.4l5 5a1 1 0 0 0 1.4 0z"/>
  </svg>
  <svg x="936">
    <path d="M9.7 18.7l5-5a1 1 0 1 0-1.4-1.4L9 16.6l-4.3-4.3a1 1 0 0 0-1.4 0 1 1 0 0 0 0 1.4l5 5a1 1 0 0 0 1.4 0zm0 6l5-5a1 1 0 1 0-1.4-1.4L9 22.6l-4.3-4.3a1 1 0 0 0-1.4 0 1 1 0 0 0 0 1.4l5 5a1 1 0 0 0 1.4 0z"/>
  </svg>
  <svg x="954">
    <path d="M9.7 18.7l5-5a1 1 0 1 0-1.4-1.4L9 16.6l-4.3-4.3a1 1 0 0 0-1.4 0 1 1 0 0 0 0 1.4l5 5a1 1 0 0 0 1.4 0zm0 6l5-5a1 1 0 1 0-1.4-1.4L9 22.6l-4.3-4.3a1 1 0 0 0-1.4 0 1 1 0 0 0 0 1.4l5 5a1 1 0 0 0 1.4 0z"/>
  </svg>
  <svg x="972">
    <path d="M9.7 18.7l5-5a1 1 0 1 0-1.4-1.4L9 16.6l-4.3-4.3a1 1 0 0 0-1.4 0 1 1 0 0 0 0 1.4l5 5a1 1 0 0 0 1.4 0zm0 6l5-5a1 1 0 1 0-1.4-1.4L9 22.6l-4.3-4.3a1 1 0 0 0-1.4 0 1 1 0 0 0 0 1.4l5 5a1 1 0 0 0 1.4 0z"/>
  </svg>
  <svg x="990">
    <path d="M9.7 18.7l5-5a1 1 0 1 0-1.4-1.4L9 16.6l-4.3-4.3a1 1 0 0 0-1.4 0 1 1 0 0 0 0 1.4l5 5a1 1 0 0 0 1.4 0zm0 6l5-5a1 1 0 1 0-1.4-1.4L9 22.6l-4.3-4.3a1 1 0 0 0-1.4 0 1 1 0 0 0 0 1.4l5 5a1 1 0 0 0 1.4 0z"/>
  </svg>
  <svg x="1008">
    <path d="M9.7 18.7l5-5a1 1 0 1 0-1.4-1.4L9 16.6l-4.3-4.3a1 1 0 0 0-1.4 0 1 1 0 0 0 0 1.4l5 5a1 1 0 0 0 1.4 0zm0 6l5-5a1 1 0 1 0-1.4-1.4L9 22.6l-4.3-4.3a1 1 0 0 0-1.4 0 1 1 0 0 0 0 1.4l5 5a1 1 0 0 0 1.4 0z"/>
  </svg>
  <svg x="1026">
    <path d="M9.7 18.7l5-5a1 1 0 1 0-1.4-1.4L9 16.6l-4.3-4.3a1 1 0 0 0-1.4 0 1 1 0 0 0 0 1.4l5 5a1 1 0 0 0 1.4 0zm0 6l5-5a1 1 0 1 0-1.4-1.4L9 22.6l-4.3-4.3a1 1 0 0 0-1.4 0 1 1 0 0 0 0 1.4l5 5a1 1 0 0 0 1.4 0z"/>
  </svg>
  <svg x="1044">
    <path d="M9.7 18.7l5-5a1 1 0 1 0-1.4-1.4L9 16.6l-4.3-4.3a1 1 0 0 0-1.4 0 1 1 0 0 0 0 1.4l5 5a1 1 0 0 0 1.4 0zm0 6l5-5a1 1 0 1 0-1.4-1.4L9 22.6l-4.3-4.3a1 1 0 0 0-1.4 0 1 1 0 0 0 0 1.4l5 5a1 1 0 0 0 1.4 0z"/>
  </svg>
  <svg x="1062">
    <path d="M9.7 18.7l5-5a1 1 0 1 0-1.4-1.4L9 16.6l-4.3-4.3a1 1 0 0 0-1.4 0 1 1 0 0 0 0 1.4l5 5a1 1 0 0 0 1.4 0zm0 6l5-5a1 1 0 1 0-1.4-1.4L9 22.6l-4.3-4.3a1 1 0 0 0-1.4 0 1 1 0 0 0 0 1.4l5 5a1 1 0 0 0 1.4 0z"/>
  </svg>
  <svg x="1080">
    <path d="M9.7 18.7l5-5a1 1 0 1 0-1.4-1.4L9 16.6l-4.3-4.3a1 1 0 0 0-1.4 0 1 1 0 0 0 0 1.4l5 5a1 1 0 0 0 1.4 0zm0 6l5-5a1 1 0 1 0-1.4-1.4L9 22.6l-4.3-4.3a1 1 0 0 0-1.4 0 1 1 0 0 0 0 1.4l5 5a1 1 0 0 0 1.4 0z"/>
  </svg>
  <svg x="1098">
    <path d="M9.7 18.7l4.8-5.2A1 1 0 1 0 13 12l-4 4.5-4.5-4.1a1 1 0 0 0-1.5 0A1 1 0 0 0 3 14h.1l5.2 4.8a1 1 0 0 0 1.4 0zm.3 6l4.8-5.2a1 1 0 1 0-1.5-1.4l-4.1 4.5-4.5-4.1a1 1 0 0 0-1.4 0 1 1 0 0 0 0 1.4l5.3 4.8a1 1 0 0 0 1.4 0z"/>
  </svg>
  <svg x="1116">
    <path d="M9.8 18.6l4.1-5.8a1 1 0 1 0-1.6-1.1l-3.5 5-5-3.6a1 1 0 0 0-1.4.2 1 1 0 0 0 .2 1.4l5.8 4.1a1 1 0 0 0 1.4-.2zm1 5.9l4.1-5.7a1 1 0 1 0-1.6-1.2l-3.6 5L4.8 19a1 1 0 0 0-1.4.2 1 1 0 0 0 .2 1.4l5.8 4.1a1 1 0 0 0 1.4-.2z"/>
  </svg>
  <svg x="1134">
    <path d="M9.9 18.4l3-6.3a1 1 0 1 0-1.8-1l-2.6 5.6L3.1 14a1 1 0 0 0-1.4.5 1 1 0 0 0 .5 1.3L8.6 19a1 1 0 0 0 1.3-.5zm2 5.7l3-6.4a1 1 0 1 0-1.8-.9l-2.6 5.5L5 19.7a1 1 0 0 0-1.3.5 1 1 0 0 0 .5 1.3l6.4 3a1 1 0 0 0 1.3-.4z"/>
  </svg>
  <svg x="1152">
    <path d="M10 18.2l1.6-6.8a1 1 0 1 0-2-.5l-1.3 5.9-6-1.4a1 1 0 0 0-1.2.7 1 1 0 0 0 .8 1.2L8.8 19a1 1 0 0 0 1.2-.8zm3.1 5.1l1.7-6.8a1 1 0 1 0-2-.5l-1.4 5.9-5.9-1.4a1 1 0 0 0-1.2.7 1 1 0 0 0 .7 1.2l7 1.7a1 1 0 0 0 1.1-.8z"/>
  </svg>
  <svg x="1170">
    <path d="M10 18v-7a1 1 0 1 0-2 0v6H2a1 1 0 0 0-1 1 1 1 0 0 0 .9 1H9a1 1 0 0 0 1-1zm4.2 4.2v-7a1 1 0 1 0-2 0v6h-6a1 1 0 0 0-1 1 1 1 0 0 0 1 1h7a1 1 0 0 0 1-1z"/>
  </svg>
  <svg x="1188">
    <path d="M10 17.8l-1.7-7a1 1 0 1 0-1.9.5l1.4 6-6 1.4a1 1 0 0 0-.7 1.1 1 1 0 0 0 1.2.8l7-1.6a1 1 0 0 0 .7-1.2zm5 3.1L13.6 14a1 1 0 1 0-2 .5l1.4 6-6 1.3a1 1 0 0 0-.7 1.2 1 1 0 0 0 1.2.8l7-1.7A1 1 0 0 0 15 21z"/>
  </svg>
  <svg x="1206">
    <path d="M9.9 17.6l-3-6.4A1 1 0 1 0 5 12l2.7 5.4L2.2 20a1 1 0 0 0-.5 1.4A1 1 0 0 0 3 22l6.4-3.1a1 1 0 0 0 .5-1.3zm5.7 2l-3-6.4a1 1 0 1 0-1.9.8l2.6 5.5-5.5 2.6a1 1 0 0 0-.4 1.4 1 1 0 0 0 1.3.5l6.4-3.1a1 1 0 0 0 .5-1.3z"/>
  </svg>
  <svg x="1224">
    <path d="M9.8 17.4l-4.1-5.7A1 1 0 1 0 4 12.8l3.5 5-5 3.5a1 1 0 0 0-.2 1.4 1 1 0 0 0 1.4.3l5.8-4.2a1 1 0 0 0 .2-1.4zm6 1l-4.2-5.8a1 1 0 1 0-1.6 1.2l3.5 5-5 3.5a1 1 0 0 0-.2 1.4 1 1 0 0 0 1.4.2l5.8-4.1a1 1 0 0 0 .2-1.4z"/>
  </svg>
  <svg x="1242">
    <path d="M9.7 17.3L5 12.1a1 1 0 1 0-1.5 1.4l4 4.4L3.2 22a1 1 0 0 0 0 1.4 1 1 0 0 0 1.3.1l5.3-4.8a1 1 0 0 0 0-1.4zm6 .3L11 12.4a1 1 0 1 0-1.5 1.3l4 4.5-4.4 4.1a1 1 0 0 0 0 1.4 1 1 0 0 0 1.3.1l5.3-4.8a1 1 0 0 0 0-1.4z"/>
  </svg>
  <svg x="1260">
    <path d="M9.7 17.3l-5-5a1 1 0 1 0-1.4 1.4L7.6 18l-4.3 4.3a1 1 0 0 0 0 1.4 1 1 0 0 0 1.4 0l5-5a1 1 0 0 0 0-1.4zm6 0l-5-5a1 1 0 1 0-1.4 1.4l4.3 4.3-4.3 4.3a1 1 0 0 0 0 1.4 1 1 0 0 0 1.4 0l5-5a1 1 0 0 0 0-1.4z"/>
  </svg>
  <svg x="1278">
    <path d="M9.7 17.3l-5-5a1 1 0 1 0-1.4 1.4L7.6 18l-4.3 4.3a1 1 0 0 0 0 1.4 1 1 0 0 0 1.4 0l5-5a1 1 0 0 0 0-1.4zm6 0l-5-5a1 1 0 1 0-1.4 1.4l4.3 4.3-4.3 4.3a1 1 0 0 0 0 1.4 1 1 0 0 0 1.4 0l5-5a1 1 0 0 0 0-1.4z"/>
  </svg>
</svg>
