<!-- This Source Code Form is subject to the terms of the Mozilla Public
   - License, v. 2.0. If a copy of the MPL was not distributed with this
   - file, You can obtain one at http://mozilla.org/MPL/2.0/. -->
<svg xmlns="http://www.w3.org/2000/svg" viewBox="0 0 16 16" width="16" height="16" fill="context-fill" fill-opacity="context-fill-opacity">
  <path d="M7.18 10.944h.002l.397-.008a.372.372 0 0 0 .26-.114L12.3 6.203a.718.718 0 0 0-.02-1.021.742.742 0 0 0-1.022.02l-3.912 4.05-2.203-2.12a.72.72 0 0 0-.997 1.046l2.769 2.663a.372.372 0 0 0 .265.104ZM1.092 4.587l.634.392a.373.373 0 0 0 .522-.138c.12-.22.24-.415.368-.598a.37.37 0 0 0-.11-.527l-.63-.39a.373.373 0 0 0-.503.105c-.15.218-.288.44-.41.661a.37.37 0 0 0 .129.495ZM2.435 11.65a.37.37 0 0 0-.041-.291 6.436 6.436 0 0 1-.33-.62.372.372 0 0 0-.513-.169l-.657.352a.37.37 0 0 0-.16.486c.11.23.234.46.37.685a.372.372 0 0 0 .494.136l.654-.35a.371.371 0 0 0 .183-.23ZM3.131 3.028a.372.372 0 0 0 .538.05c.174-.154.36-.3.552-.435a.371.371 0 0 0 .078-.533l-.46-.583a.372.372 0 0 0-.508-.072 7.978 7.978 0 0 0-.611.482.37.37 0 0 0-.048.509l.46.582ZM1.517 9.535a.371.371 0 0 0 .061-.286 6.562 6.562 0 0 1-.101-.695.37.37 0 0 0-.423-.334l-.736.106a.37.37 0 0 0-.316.402c.024.256.061.515.11.77a.372.372 0 0 0 .419.296l.736-.106c.1-.015.19-.07.25-.153ZM5.116 1.67a.371.371 0 0 0 .488.229c.237-.092.456-.165.667-.221a.372.372 0 0 0 .257-.475L6.295.5a.372.372 0 0 0-.45-.242c-.249.068-.498.15-.742.243a.37.37 0 0 0-.22.462l.233.706ZM.355 7.143l.727.151a.376.376 0 0 0 .288-.058.37.37 0 0 0 .156-.25c.033-.221.082-.452.144-.686a.37.37 0 0 0-.284-.458L.658 5.69a.372.372 0 0 0-.436.27 8.027 8.027 0 0 0-.158.761.37.37 0 0 0 .291.42ZM3.373 12.588a.372.372 0 0 0-.54.016l-.494.553a.37.37 0 0 0 .016.511c.19.187.385.361.58.52a.37.37 0 0 0 .511-.042l.496-.554a.37.37 0 0 0-.045-.536 6.578 6.578 0 0 1-.524-.468ZM5.884 14.146a6.482 6.482 0 0 1-.652-.262.373.373 0 0 0-.501.2l-.277.69a.37.37 0 0 0 .191.475c.236.107.48.204.725.288a.372.372 0 0 0 .465-.213l.276-.689a.37.37 0 0 0-.227-.489Z"/>
  <path d="M15.975 7.455a.381.381 0 0 0 0-.066 8.037 8.037 0 0 0-.067-.541l-.01-.08a2.289 2.289 0 0 0-.02-.148.35.35 0 0 0-.018-.067 7.917 7.917 0 0 0-.54-1.76.376.376 0 0 0-.029-.095 6.757 6.757 0 0 0-.219-.429l-.028-.053-.018-.035-.031-.061a1.91 1.91 0 0 0-.06-.114.342.342 0 0 0-.062-.078 8.033 8.033 0 0 0-1.12-1.47.383.383 0 0 0-.04-.05l-.044-.041a3.21 3.21 0 0 0-.118-.11l-.14-.13a5.444 5.444 0 0 0-.269-.248.362.362 0 0 0-.05-.036 8.05 8.05 0 0 0-1.56-1.005.378.378 0 0 0-.08-.052 2.155 2.155 0 0 0-.136-.058l-.073-.03a7.958 7.958 0 0 0-.315-.131l-.068-.03a2.014 2.014 0 0 0-.126-.051.347.347 0 0 0-.08-.02A7.974 7.974 0 0 0 7.98 0a.371.371 0 0 0-.372.37v.198l-.026.534a.37.37 0 0 0 .103.274c.07.074.177.123.27.115.231 0 .47.01.703.034a.338.338 0 0 0 .073 0 6.487 6.487 0 0 1 3.556 1.587c.117.102.233.205.344.317a6.533 6.533 0 0 1 1.883 4.573 6.534 6.534 0 0 1-.155 1.396 6.554 6.554 0 0 1-4.43 4.826l-.036.012a6.533 6.533 0 0 1-1.808.284c-.023-.005-.053-.005-.07-.006-.239.003-.47-.011-.702-.035a.37.37 0 0 0-.41.35l-.036.74a.371.371 0 0 0 .335.388c.231.023.465.036.696.038.027.006.054.01.082.01.626 0 1.27-.082 1.916-.241a.369.369 0 0 0 .082-.012 1.99 1.99 0 0 0 .123-.037l.064-.02c.123-.035.244-.072.364-.112l.066-.02c.043-.012.085-.024.127-.04a.35.35 0 0 0 .078-.039 8.003 8.003 0 0 0 1.67-.857.391.391 0 0 0 .042-.025c.079-.054.155-.114.231-.173l.178-.136a4.094 4.094 0 0 0 .249-.198c.464-.395.888-.85 1.261-1.356a.374.374 0 0 0 .075-.077c.028-.04.053-.08.079-.121l.073-.113c.094-.138.188-.276.27-.42a.34.34 0 0 0 .037-.093 7.947 7.947 0 0 0 .714-1.698.37.37 0 0 0 .024-.063 1.98 1.98 0 0 0 .03-.13l.015-.069a8.59 8.59 0 0 0 .127-.559.34.34 0 0 0 .005-.062 7.86 7.86 0 0 0 .12-1.332c0-.184-.013-.366-.026-.547Z"/>
</svg>
