<!-- This Source Code Form is subject to the terms of the Mozilla Public
   - License, v. 2.0. If a copy of the MPL was not distributed with this
   - file, You can obtain one at http://mozilla.org/MPL/2.0/. -->
<svg xmlns="http://www.w3.org/2000/svg" width="16" height="16" viewBox="0 0 16 16">
  <path fill="context-fill" d="M12.2 5.5L14.8 3a4.136 4.136 0 0 1 .5 1.9 4.034 4.034 0 0 1-4.1 4 3.194 3.194 0 0 1-1.4-.3l-6 5.9a1.694 1.694 0 0 1-2.3 0 1.693 1.693 0 0 1 0-2.3l5.9-5.9a4.146 4.146 0 0 1-.3-1.6 4.034 4.034 0 0 1 4.1-4 4.136 4.136 0 0 1 1.9.5l-2.5 2.5a1.2 1.2 0 0 0 0 1.7c.6.8 1.4.2 1.6.1zm-9.6 7.1a.9.9 0 1 0 .9.9.9.9 0 0 0-.9-.9z"/>
</svg>
