<!-- This Source Code Form is subject to the terms of the Mozilla Public
   - License, v. 2.0. If a copy of the MPL was not distributed with this
   - file, You can obtain one at http://mozilla.org/MPL/2.0/. -->
<svg xmlns="http://www.w3.org/2000/svg" width="16" height="16" viewBox="0 0 16 16">
  <path fill="context-fill" fill-opacity="context-fill-opacity" d="M14 1H2C.895 1 0 1.895 0 3v10c0 1.105.895 2 2 2h12c1.105 0 2-.895 2-2V3c0-1.105-.895-2-2-2zm-1 11.5c0 .276-.224.5-.5.5h-10c-.276 0-.5-.224-.5-.5v-9c0-.276.224-.5.5-.5h10c.276 0 .5.224.5.5v9zM15 9h-1V7h1v2z"/>
</svg>
