<!-- This Source Code Form is subject to the terms of the Mozilla Public
   - License, v. 2.0. If a copy of the MPL was not distributed with this
   - file, You can obtain one at http://mozilla.org/MPL/2.0/. -->
<svg xmlns="http://www.w3.org/2000/svg" width="18" height="18" viewBox="0 0 18 18">
  <path fill="context-fill" d="M12.5,16h-7C4.7,16,4,15.3,4,14.5v-9 C4,4.7,4.7,4,5.5,4H7c0,0,0-2,2-2s2,2,2,2h1.5C13.3,4,14,4.7,14,5.5v9C14,15.3,13.3,16,12.5,16z M11.7,5l-1.1-0.5c0,0,0-1.5-1.6-1.5 C7.4,3,7.4,4.5,7.4,4.5L6.3,5L5.8,6h2.5h3.2h0.8L11.7,5z M11.8,6.7H7.1l-3,1.7l2.8,4.9l6.6-3.8L11.8,6.7z" />
</svg>
