<!-- This Source Code Form is subject to the terms of the Mozilla Public
   - License, v. 2.0. If a copy of the MPL was not distributed with this
   - file, You can obtain one at http://mozilla.org/MPL/2.0/. -->
<svg xmlns="http://www.w3.org/2000/svg" width="18" height="18" viewBox="0 0 18 18">
  <path fill="context-fill" d="M14.7,16c-0.8,0-1.5-0.2-2.3-1.3 c-0.8-1.1-1.7-2.5-1.7-2.5s-0.7-0.9-1.1-1.6c-0.5-0.7-1.1-0.5-1.1-0.5S5.6,5.4,5.1,4.7C4.5,3.7,5.7,2,5.7,2l4.4,7 c0,0,1.4,1.9,1.9,2.3c0.5,0.4,1.4-0.4,2.8,0.9C16.7,14,16.1,16,14.7,16z M14.4,13.1c-0.9-1-1.7-0.9-1.9-0.6c-0.2,0.3,0,1.2,0.4,1.7 c0.4,0.5,0.8,0.7,1.4,0.7C14.9,15,15.4,14.2,14.4,13.1z M10.6,8.4L9.4,6.6L12.3,2c0,0,1.2,1.7,0.6,2.7C12.6,5.1,11.5,7,10.6,8.4z M6,11.3c0.3-0.3,1-1.1,1.4-1.7l0.8,1.2c-0.4,0.6-0.9,1.4-0.9,1.4s-0.9,1.4-1.7,2.5C4.9,15.8,4.2,16,3.3,16c-1.4,0-2.1-2-0.1-3.8 C4.6,11,5.5,11.7,6,11.3z M3.6,13.1c-0.9,1-0.4,1.8,0.2,1.8c0.6,0,1-0.2,1.4-0.7c0.4-0.5,0.6-1.5,0.4-1.7 C5.3,12.2,4.5,12.1,3.6,13.1z" />
</svg>
