<!-- This Source Code Form is subject to the terms of the Mozilla Public
   - License, v. 2.0. If a copy of the MPL was not distributed with this
   - file, You can obtain one at http://mozilla.org/MPL/2.0/. -->
<svg xmlns="http://www.w3.org/2000/svg" width="16" height="16" viewBox="0 0 16 16">
  <path fill="context-fill" d="M13.7 15a2.56 2.56 0 0 1-2.3-1.3c-.8-1.1-1.7-2.5-1.7-2.5a16.977 16.977 0 0 1-1.1-1.6 1.009 1.009 0 0 0-1.1-.5S4.6 4.4 4.1 3.7c-.6-1 .6-2.7.6-2.7l4.4 7a22.156 22.156 0 0 0 1.9 2.3c.5.4 1.4-.4 2.8.9 1.9 1.8 1.3 3.8-.1 3.8zm-.3-2.9c-.9-1-1.7-.9-1.9-.6a1.955 1.955 0 0 0 .4 1.7 1.622 1.622 0 0 0 1.4.7c.6.1 1.1-.7.1-1.8zM9.6 7.4L8.4 5.6 11.3 1s1.2 1.7.6 2.7c-.3.4-1.4 2.3-2.3 3.7zM5 10.3a14.119 14.119 0 0 0 1.4-1.7l.8 1.2c-.4.6-.9 1.4-.9 1.4s-.9 1.4-1.7 2.5A2.381 2.381 0 0 1 2.3 15c-1.4 0-2.1-2-.1-3.8 1.4-1.2 2.3-.5 2.8-.9zm-2.4 1.8c-.9 1-.4 1.8.2 1.8a1.622 1.622 0 0 0 1.4-.7c.4-.5.6-1.5.4-1.7-.3-.3-1.1-.4-2 .6z"/>
</svg>
