<!-- This Source Code Form is subject to the terms of the Mozilla Public
   - License, v. 2.0. If a copy of the MPL was not distributed with this
   - file, You can obtain one at http://mozilla.org/MPL/2.0/. -->
<svg xmlns="http://www.w3.org/2000/svg" width="18" height="18" viewBox="0 0 18 18">
  <path fill="context-fill" d="M15.3,16h-1.5c-0.4,0-0.8-0.3-0.8-0.8 c0,0,0.3-3.6-3.2-7.2C7.3,5,2.8,4.8,2.8,4.8C2.3,4.8,2,4.5,2,4.1V2.7C2,2.3,2.3,2,2.8,2c0,0,6.3,0.4,9.6,4.5 c3.3,3.1,3.6,8.8,3.6,8.8C16,15.7,15.8,16,15.3,16z M2.8,7c0,0,3.7,0.5,5.8,2.4c2.1,2,2.5,5.9,2.5,5.9c0,0.4-0.1,0.8-0.5,0.8H9.1 c-0.4,0-0.6-0.3-0.6-0.8c0,0,0.1-2.4-1.8-4.2C5.2,9.8,2.8,9.7,2.8,9.7C2.3,9.7,2,9.4,2,9V7.7C2,7.3,2.3,7,2.8,7z M4,12 c1.1,0,2,0.9,2,2s-0.9,2-2,2c-1.1,0-2-0.9-2-2S2.9,12,4,12z" />
</svg>
