<!-- This Source Code Form is subject to the terms of the Mozilla Public
   - License, v. 2.0. If a copy of the MPL was not distributed with this
   - file, You can obtain one at http://mozilla.org/MPL/2.0/. -->
<svg xmlns="http://www.w3.org/2000/svg" width="16" height="16" fill="none">
  <g fill="context-fill" clip-path="url(#a)">
    <path d="M4 2a.5.5 0 0 0-.5.5H2a2 2 0 0 1 2-2h8a2 2 0 0 1 2 2h-1.5A.5.5 0 0 0 12 2H4Zm2 6h4v1.5H6V8Z"/>
    <path fill-rule="evenodd" d="M2 4a2 2 0 0 0-2 2v8a2 2 0 0 0 2 2h12a2 2 0 0 0 2-2V6a2 2 0 0 0-2-2H2Zm-.5 2a.5.5 0 0 1 .5-.5h12a.5.5 0 0 1 .5.5v8a.5.5 0 0 1-.5.5H2a.5.5 0 0 1-.5-.5V6Z" clip-rule="evenodd"/>
  </g>
  <defs>
    <clipPath id="a">
      <path fill="context-stroke" d="M0 0h16v16H0z"/>
    </clipPath>
  </defs>
</svg>
