<svg xmlns="http://www.w3.org/2000/svg" xmlns:xlink="http://www.w3.org/1999/xlink" width="328" zoomAndPan="magnify" viewBox="0 0 246 62.999997" height="84" preserveAspectRatio="xMidYMid meet" version="1.0"><defs><g><g id="id1"/></g></defs><g fill="rgb(0%, 0%, 0%)" fill-opacity="1"><g transform="translate(4.190962, 52.670445)"><g><path d="M 36.484375 -42 L 10.53125 -42 L 10.53125 -25.34375 L 32.59375 -25.34375 L 32.59375 -21.3125 L 10.59375 -21.3125 L 10.59375 1.109375 L 5.703125 1.109375 L 5.703125 -46.21875 L 36.484375 -46.21875 Z M 36.484375 -42 "/></g></g></g><g fill="rgb(0%, 0%, 0%)" fill-opacity="1"><g transform="translate(41.358118, 52.670445)"><g><path d="M 10.40625 1.109375 L 5.453125 1.109375 L 5.453125 -48.390625 L 10.40625 -48.390625 Z M 10.40625 1.109375 "/></g></g></g><g fill="rgb(0%, 0%, 0%)" fill-opacity="1"><g transform="translate(57.154156, 52.670445)"><g><path d="M 19.703125 -35.4375 C 23.867188 -35.4375 27.023438 -34.566406 29.171875 -32.828125 C 31.328125 -31.097656 32.40625 -28.5 32.40625 -25.03125 L 32.40625 -9.234375 C 32.40625 -2.335938 28.171875 1.109375 19.703125 1.109375 L 16.484375 1.109375 C 8.097656 1.109375 3.90625 -2.335938 3.90625 -9.234375 L 3.90625 -25.03125 C 3.90625 -31.96875 8.097656 -35.4375 16.484375 -35.4375 Z M 27.4375 -24.90625 C 27.4375 -26.351562 27.25 -27.488281 26.875 -28.3125 C 26.507812 -29.132812 25.992188 -29.765625 25.328125 -30.203125 C 24.671875 -30.640625 23.867188 -30.914062 22.921875 -31.03125 C 21.972656 -31.15625 20.941406 -31.21875 19.828125 -31.21875 L 16.421875 -31.21875 C 15.304688 -31.21875 14.28125 -31.15625 13.34375 -31.03125 C 12.414062 -30.914062 11.617188 -30.640625 10.953125 -30.203125 C 10.296875 -29.765625 9.78125 -29.132812 9.40625 -28.3125 C 9.039062 -27.488281 8.859375 -26.351562 8.859375 -24.90625 L 8.859375 -9.84375 C 8.859375 -8.320312 9.0625 -7.113281 9.46875 -6.21875 C 9.882812 -5.332031 10.453125 -4.648438 11.171875 -4.171875 C 11.898438 -3.703125 12.71875 -3.40625 13.625 -3.28125 C 14.539062 -3.15625 15.492188 -3.09375 16.484375 -3.09375 L 19.765625 -3.09375 C 20.878906 -3.09375 21.910156 -3.15625 22.859375 -3.28125 C 23.804688 -3.40625 24.617188 -3.671875 25.296875 -4.078125 C 25.984375 -4.492188 26.507812 -5.113281 26.875 -5.9375 C 27.25 -6.769531 27.4375 -7.910156 27.4375 -9.359375 Z M 27.4375 -24.90625 "/></g></g></g><g fill="rgb(0%, 0%, 0%)" fill-opacity="1"><g transform="translate(93.392133, 52.670445)"><g><path d="M 19.703125 -35.4375 C 23.867188 -35.4375 27.023438 -34.566406 29.171875 -32.828125 C 31.328125 -31.097656 32.40625 -28.5 32.40625 -25.03125 L 32.40625 -9.234375 C 32.40625 -2.335938 28.171875 1.109375 19.703125 1.109375 L 16.484375 1.109375 C 8.097656 1.109375 3.90625 -2.335938 3.90625 -9.234375 L 3.90625 -25.03125 C 3.90625 -31.96875 8.097656 -35.4375 16.484375 -35.4375 Z M 27.4375 -24.90625 C 27.4375 -26.351562 27.25 -27.488281 26.875 -28.3125 C 26.507812 -29.132812 25.992188 -29.765625 25.328125 -30.203125 C 24.671875 -30.640625 23.867188 -30.914062 22.921875 -31.03125 C 21.972656 -31.15625 20.941406 -31.21875 19.828125 -31.21875 L 16.421875 -31.21875 C 15.304688 -31.21875 14.28125 -31.15625 13.34375 -31.03125 C 12.414062 -30.914062 11.617188 -30.640625 10.953125 -30.203125 C 10.296875 -29.765625 9.78125 -29.132812 9.40625 -28.3125 C 9.039062 -27.488281 8.859375 -26.351562 8.859375 -24.90625 L 8.859375 -9.84375 C 8.859375 -8.320312 9.0625 -7.113281 9.46875 -6.21875 C 9.882812 -5.332031 10.453125 -4.648438 11.171875 -4.171875 C 11.898438 -3.703125 12.71875 -3.40625 13.625 -3.28125 C 14.539062 -3.15625 15.492188 -3.09375 16.484375 -3.09375 L 19.765625 -3.09375 C 20.878906 -3.09375 21.910156 -3.15625 22.859375 -3.28125 C 23.804688 -3.40625 24.617188 -3.671875 25.296875 -4.078125 C 25.984375 -4.492188 26.507812 -5.113281 26.875 -5.9375 C 27.25 -6.769531 27.4375 -7.910156 27.4375 -9.359375 Z M 27.4375 -24.90625 "/></g></g></g><g fill="rgb(0%, 0%, 0%)" fill-opacity="1"><g transform="translate(129.63011, 52.670445)"><g><path d="M 12.453125 -29.609375 C 12.828125 -30.109375 13.21875 -30.59375 13.625 -31.0625 C 14.039062 -31.539062 14.5 -32.007812 15 -32.46875 C 15.988281 -33.289062 17.179688 -33.988281 18.578125 -34.5625 C 19.984375 -35.144531 21.722656 -35.4375 23.796875 -35.4375 L 24.78125 -35.4375 L 24.78125 -31.21875 L 23.796875 -31.21875 C 22.054688 -31.21875 20.628906 -31.03125 19.515625 -30.65625 C 18.398438 -30.289062 17.390625 -29.738281 16.484375 -29 C 16.023438 -28.625 15.578125 -28.207031 15.140625 -27.75 C 14.710938 -27.300781 14.269531 -26.785156 13.8125 -26.203125 C 12.863281 -25.085938 11.8125 -23.785156 10.65625 -22.296875 L 10.65625 1.109375 L 5.703125 1.109375 L 5.703125 -35.4375 L 9.84375 -35.4375 L 10.40625 -26.765625 Z M 12.453125 -29.609375 "/></g></g></g><g fill="rgb(0%, 0%, 0%)" fill-opacity="1"><g transform="translate(155.647118, 52.670445)"><g><path d="M 20.8125 -35.4375 C 29.238281 -35.4375 33.453125 -32.15625 33.453125 -25.59375 L 33.453125 -8.859375 C 33.453125 -5.554688 32.378906 -3.066406 30.234375 -1.390625 C 28.085938 0.273438 24.945312 1.109375 20.8125 1.109375 L 9.96875 1.109375 L 9.96875 12.953125 L 5.078125 12.953125 L 5.078125 -25.59375 C 5.078125 -32.15625 9.269531 -35.4375 17.65625 -35.4375 Z M 28.4375 -24.96875 C 28.4375 -26.414062 28.25 -27.550781 27.875 -28.375 C 27.507812 -29.195312 26.992188 -29.828125 26.328125 -30.265625 C 25.671875 -30.703125 24.875 -30.976562 23.9375 -31.09375 C 23.007812 -31.21875 21.96875 -31.28125 20.8125 -31.28125 L 17.65625 -31.28125 C 16.5 -31.28125 15.445312 -31.21875 14.5 -31.09375 C 13.550781 -30.976562 12.734375 -30.703125 12.046875 -30.265625 C 11.367188 -29.828125 10.84375 -29.195312 10.46875 -28.375 C 10.09375 -27.550781 9.90625 -26.414062 9.90625 -24.96875 L 9.90625 -2.84375 L 20.875 -2.84375 C 21.863281 -2.84375 22.820312 -2.914062 23.75 -3.0625 C 24.6875 -3.207031 25.492188 -3.503906 26.171875 -3.953125 C 26.859375 -4.410156 27.40625 -5.0625 27.8125 -5.90625 C 28.226562 -6.757812 28.4375 -7.890625 28.4375 -9.296875 Z M 28.4375 -24.96875 "/></g></g></g></svg>