<svg xmlns="http://www.w3.org/2000/svg" width="16" height="16" viewBox="0 0 16 16">
    <path fill="context-fill" fill-opacity="context-fill-opacity" d="M13.4,9.92A4.915,4.915,0,0,0,13.8,8,5.058,5.058,0,0,0,8.735,2.946a4.958,4.958,0,0,0-1.913.4L5.741,2.261A6.357,6.357,0,0,1,8.735,1.5,6.508,6.508,0,0,1,15.251,8a6.309,6.309,0,0,1-.77,3Zm2.476,4.1-0.884.884L12.98,12.893a6.469,6.469,0,0,1-8.851-.3l1.028-1.025a5.018,5.018,0,0,0,6.8.3l-7.1-7.1A5,5,0,0,0,3.666,8H5.838L2.913,10.91l-0.051-.1L0.046,8H2.218A6.433,6.433,0,0,1,3.84,3.752L1.214,1.126,2.1,0.242Z"/>
</svg>