<!-- This Source Code Form is subject to the terms of the Mozilla Public
   - License, v. 2.0. If a copy of the MPL was not distributed with this
   - file, You can obtain one at http://mozilla.org/MPL/2.0/. -->
<svg xmlns="http://www.w3.org/2000/svg" width="16" height="16" viewBox="0 0 16 16">
  <path fill="context-fill" d="M1.3 14.7c.4.4 1 .4 1.4 0L6 11.4V14c0 .6.4 1 1 1s1-.4 1-1V9c0-.6-.4-1-1-1H2c-.6 0-1 .4-1 1s.4 1 1 1h2.6l-3.3 3.3c-.4.4-.4 1 0 1.4zM9 8h5c.6 0 1-.4 1-1s-.4-1-1-1h-2.6l3.3-3.3c.4-.4.4-1 0-1.4-.4-.4-1-.4-1.4 0L10 4.6V2c0-.6-.4-1-1-1s-1 .5-1 1v5c0 .6.4 1 1 1z"/>
</svg>
