<svg xmlns="http://www.w3.org/2000/svg" width="32" height="32" viewBox="0 0 32 32">
	<path fill="context-fill" fill-opacity="context-fill-opacity" d="M31.4 14.627c-.044-.289-.088-.46-.088-.46s-.113.131-.3.379a10.8 10.8 0 0 0-.375-2.04 13.883 13.883 0 0 0-.94-2.418 10.078 10.078 0 0 0-.858-1.473q-.177-.264-.36-.512c-.571-.934-1.227-1.5-1.986-2.583a7.826 7.826 0 0 1-.993-2.692 10.88 10.88 0 0 0-.477 1.761c-.779-.786-1.458-1.345-1.866-1.726C21.133.978 21.367 0 21.367 0s-3.773 4.209-2.137 8.6a8.43 8.43 0 0 0 2.81 3.744c1.581 1.3 3.283 2.33 4.18 4.952a8.4 8.4 0 0 0-3.154-3.327 7.593 7.593 0 0 1 .6 3.006 7.145 7.145 0 0 1-8.736 6.96 6.576 6.576 0 0 1-1.77-.6 7.2 7.2 0 0 1-2.121-1.96l-.01-.017.126.046a6.517 6.517 0 0 0 .9.242 5.644 5.644 0 0 0 3.594-.424c1.129-.626 1.813-1.091 2.367-.908h.01c.542.172.969-.353.581-.9a2.949 2.949 0 0 0-2.846-1.114c-1.131.165-2.167.968-3.648.19a3.13 3.13 0 0 1-.278-.163c-.1-.058.317.088.221.022a7.351 7.351 0 0 1-.931-.555c-.022-.018.224.07.2.052a3.591 3.591 0 0 1-.971-.982 1.746 1.746 0 0 1-.066-1.559 1.376 1.376 0 0 1 .6-.566c.192.095.31.166.31.166s-.087-.16-.135-.244c.017-.006.032 0 .049-.011.168.073.539.261.734.376a1.018 1.018 0 0 1 .335.3s.067-.033.017-.173a.907.907 0 0 0-.347-.425h.016A2.952 2.952 0 0 1 12.3 15a2.085 2.085 0 0 0 .171-.906 1.181 1.181 0 0 0-.069-.5c-.054-.1.03-.14.123-.035a.977.977 0 0 0-.079-.239v-.008s.053-.069.078-.095a1.434 1.434 0 0 1 .216-.176 10 10 0 0 1 1.469-.749c.416-.181.759-.32.83-.36a2.287 2.287 0 0 0 .294-.226 1.973 1.973 0 0 0 .661-1.143 1.593 1.593 0 0 0 .017-.178v-.105c-.06-.226-.449-.395-2.483-.586a1.778 1.778 0 0 1-1.454-1.364v.009c-.029.075-.055.15-.081.225.026-.075.052-.151.081-.225v-.016a5.153 5.153 0 0 1 1.992-2.474c.052-.043-.208.011-.156-.032a5.18 5.18 0 0 1 .532-.225c.091-.039-.391-.222-.818-.178a2.2 2.2 0 0 0-.758.178c.1-.086.4-.2.33-.2a4.877 4.877 0 0 0-1.547.585.315.315 0 0 1 .03-.14 2.407 2.407 0 0 0-.966.746 1.286 1.286 0 0 0 .01-.174 2.883 2.883 0 0 0-.475.446l-.009.007a6.3 6.3 0 0 0-3.527-.3l-.01-.009h.012a2.953 2.953 0 0 1-.627-.7l-.008-.012-.014-.021a5.48 5.48 0 0 1-.237-.388 5.527 5.527 0 0 1-.176-.339c0-.008-.009-.011-.013-.012-.024 0-.041.111-.061.082v-.006a4.322 4.322 0 0 1-.309-1.697l-.016.008a1.89 1.89 0 0 0-.716.937c-.062.137-.1.213-.14.288v-.035c.009-.069.039-.212.032-.2s-.013.019-.02.029a1.741 1.741 0 0 0-.252.373 2.366 2.366 0 0 0-.15.383c-.006.021 0-.018 0-.064s.009-.128 0-.111l-.022.043a9.526 9.526 0 0 0-.806 3.044 3.038 3.038 0 0 0-.023.54v.016a6.641 6.641 0 0 0-.819 1.1 15.65 15.65 0 0 0-1.731 4.246 10.379 10.379 0 0 1 .928-1.626 15.041 15.041 0 0 0-1.049 5.514 14.264 14.264 0 0 1 .451-1.634 13.848 13.848 0 0 0 1.25 6.489 15.08 15.08 0 0 0 5.968 6.768 13.057 13.057 0 0 0 3.478 1.667c.163.059.327.117.5.173-.053-.021-.1-.044-.153-.067a15.752 15.752 0 0 0 4.506.659c5.41 0 7.2-2.06 7.36-2.266a2.739 2.739 0 0 0 .639-.858q.156-.064.316-.137l.067-.03.122-.057a11.349 11.349 0 0 0 2.284-1.43 5.511 5.511 0 0 0 2.129-3.11 1.944 1.944 0 0 0 .029-1.433q.083-.132.171-.28a12.743 12.743 0 0 0 1.913-6.2v-.184a7.76 7.76 0 0 0-.115-1.388z"/>
</svg>