<svg xmlns="http://www.w3.org/2000/svg" width="16" height="16" viewBox="0 0 16 16">
	<path fill="context-fill" fill-opacity="context-fill-opacity" d="M13.152,7.5H12.22a25.187,25.187,0,0,0,.28-3.75L8.025,2,8.012,7.645A0.987,0.987,0,0,0,7.5,8.5v5.309A8,8,0,0,1,4,11C2.431,8.647,2.5,3,2.5,3L8,1l5.5,2A29.211,29.211,0,0,1,13.152,7.5Z"/>
	<path fill="#cc4f40" fill-opacity="context-fill-opacity" d="M14.5,15.5h-5a1,1,0,0,1-1-1v-5a1,1,0,0,1,1-1h5a1,1,0,0,1,1,1v5A1,1,0,0,1,14.5,15.5Zm-1.139-2.846-0.646-.646,0.646-.646-0.008-.008A0.5,0.5,0,0,0,13,10.5a0.491,0.491,0,0,0-.386.194l-0.606.606-0.646-.646,0,0a0.5,0.5,0,1,0-.7.7l0,0L11.3,12.008l-0.606.606A0.491,0.491,0,0,0,10.5,13a0.5,0.5,0,0,0,.854.354l0.008,0.008,0.646-.646,0.646,0.646,0,0a0.5,0.5,0,0,0,.7-0.7Z"/>
</svg>