<!-- This Source Code Form is subject to the terms of the Mozilla Public
   - License, v. 2.0. If a copy of the MPL was not distributed with this
   - file, You can obtain one at http://mozilla.org/MPL/2.0/. -->
<svg xmlns="http://www.w3.org/2000/svg" width="16" height="16" viewBox="0 0 16 16">
  <path fill="context-fill" d="M1 5V2a1 1 0 0 1 1-1h4c.5 0 1.2.9 1.2.9L8 3h6.5a.472.472 0 0 1 .5.5V5zM.6 6h14.8a.319.319 0 0 1 .3.3 34.537 34.537 0 0 0-.5 4.2c-.1 2.1-.2 4.1-.2 4.1a.43.43 0 0 1-.4.4H1.3c-.2 0-.3-.2-.3-.4a24.983 24.983 0 0 0-.2-4.1C.6 8.4.3 6.3.3 6.3A.451.451 0 0 1 .6 6z"/>
</svg>
