<!-- This Source Code Form is subject to the terms of the Mozilla Public
   - License, v. 2.0. If a copy of the MPL was not distributed with this
   - file, You can obtain one at http://mozilla.org/MPL/2.0/. -->
<svg viewBox="0 0 12 12" fill="context-fill" fill-opacity="context-fill-opacity" xmlns="http://www.w3.org/2000/svg"><path d="M4 0c.6 0 1 .4 1 1s-.5 1-1 1H3c-.6 0-1 .4-1 1v6c0 .6.4 1 1 1h6c.6 0 1-.4 1-1V8c0-.6.4-1 1-1s1 .4 1 1v1c0 1.7-1.3 3-3 3H3c-1.7 0-3-1.3-3-3V3c0-1.7 1.3-3 3-3zm7 0c.4 0 .8.2.9.6.1.1.1.3.1.4v3c0 .6-.4 1-1 1s-1-.4-1-1v-.6L8.7 4.7c-.2.3-.6.4-1 .3-.3-.1-.6-.4-.7-.7s0-.7.3-1L8.6 2H8c-.5 0-1-.4-1-1s.4-1 1-1z"/></svg>