<!-- This Source Code Form is subject to the terms of the Mozilla Public
   - License, v. 2.0. If a copy of the MPL was not distributed with this
   - file, You can obtain one at http://mozilla.org/MPL/2.0/. -->
<svg xmlns="http://www.w3.org/2000/svg" viewBox="0 0 12 12">
  <path d="M10.2 11.5c-.3 0-.6-.1-.9-.4l-2-2-1.2 1.2c-.2.2-.5.4-.9.4-.3 0-.6-.1-.8-.3-.7-.6-1.1-1.6-1.1-2.6v-.1c0-.7-.5-1.2-1.2-1.2h-.4c-.3 0-.6-.1-.9-.4-.2-.2-.3-.5-.3-.8 0-.3.1-.6.4-.9L4.5.8c.2-.2.5-.4.9-.4.7 0 1.2.5 1.2 1.2V2c0 .7.5 1.2 1.2 1.2h.1c1 0 1.9.4 2.6 1.1.5.5.5 1.2 0 1.7L9.2 7.4l2 2c.5.5.5 1.3 0 1.8-.3.2-.6.3-1 .3z" fill="context-fill"/>
  <path d="M5.3 1c.4 0 .7.3.7.7v.4c0 .9.8 1.7 1.7 1.7h.1c.8 0 1.6.3 2.2.9.3.3.3.7 0 1L8.4 7.4l2.3 2.3c.3.3.3.8 0 1.1-.2.2-.4.2-.6.2-.2 0-.4-.1-.5-.2L7.4 8.4 5.8 10c-.1.1-.3.2-.5.2s-.3-.1-.5-.2c-.6-.6-1-1.4-.9-2.2v-.1C3.8 6.7 3.1 6 2.1 6h-.4c-.2 0-.4-.1-.5-.2-.3-.3-.3-.7 0-1l3.6-3.6c.1-.1.3-.2.5-.2m0-1c-.5 0-.9.2-1.2.5L.5 4.1c-.3.3-.5.7-.5 1.2s.2.9.5 1.2c.3.3.8.5 1.2.5h.4c.4 0 .7.3.7.7v.1c0 1.1.4 2.2 1.3 3 .3.3.7.4 1.1.4.5 0 .9-.2 1.2-.5l.9-.9L9 11.5c.3.3.8.5 1.2.5.5 0 .9-.2 1.3-.5.7-.7.7-1.8 0-2.5L9.9 7.4l.9-.9c.7-.7.7-1.8 0-2.4-.8-.8-1.9-1.3-3-1.3h-.1c-.4 0-.7-.3-.7-.7v-.4c0-.5-.2-.9-.5-1.2C6.2.2 5.7 0 5.3 0z" fill="context-stroke"/>
</svg>