<!-- This Source Code Form is subject to the terms of the Mozilla Public
   - License, v. 2.0. If a copy of the MPL was not distributed with this
   - file, You can obtain one at http://mozilla.org/MPL/2.0/. -->
<svg xmlns="http://www.w3.org/2000/svg" width="16" height="16" viewBox="0 0 16 16">
  <path fill="context-fill" d="M15 13h-2l1 2H2l1-2H1a.945.945 0 0 1-1-1V7a.945.945 0 0 1 1-1h1V4a.945.945 0 0 1 1-1V2a.945.945 0 0 1 1-1h8a.945.945 0 0 1 1 1v1a.945.945 0 0 1 1 1v2h1a.945.945 0 0 1 1 1v5a.945.945 0 0 1-1 1zM3 13l.5-1H3zm.5-5h-1a.5.5 0 0 0 0 1h1a.5.5 0 0 0 0-1zM12 3a.945.945 0 0 0-1-1H5a.945.945 0 0 0-1 1v3a.945.945 0 0 0 1 1h6a.945.945 0 0 0 1-1zm-.9 9H4.9L4 14h8zm1.9 0h-.5l.5 1z"/>
</svg>
