<!-- This Source Code Form is subject to the terms of the Mozilla Public
   - License, v. 2.0. If a copy of the MPL was not distributed with this
   - file, You can obtain one at http://mozilla.org/MPL/2.0/. -->
<svg xmlns="http://www.w3.org/2000/svg" width="16" height="16" viewBox="0 0 16 16">
  <path fill="context-fill" d="M12.408 11.992c-1.663 0-2.813-2-4.408-2s-2.844 2-4.408 2C1.54 11.992.025 10.048 0 6.719c-.015-2.068.6-2.727 3.265-2.727S6.709 5.082 8 5.082s2.071-1.091 4.735-1.091 3.28.66 3.265 2.727c-.025 3.33-1.54 5.274-3.592 5.274zM4.572 6.537c-1.619.07-2.286 1.035-2.286 1.273s1.073.909 2.122.909 2.286-.384 2.286-.727a1.9 1.9 0 0 0-2.122-1.455zm6.857 0a1.9 1.9 0 0 0-2.123 1.455c0 .343 1.236.727 2.286.727s2.122-.671 2.122-.909-.667-1.203-2.286-1.273z"/>
</svg>
