<!-- This Source Code Form is subject to the terms of the Mozilla Public
   - License, v. 2.0. If a copy of the MPL was not distributed with this
   - file, You can obtain one at http://mozilla.org/MPL/2.0/. -->
<svg xmlns="http://www.w3.org/2000/svg" width="18" height="18" viewBox="0 0 18 18">
  <path fill="context-fill" d="M16.7,7.5 c-0.1,1.1,0.2,2.5-1.3,4.4C13.9,14,12.3,14,12,14c-1.8-0.1-2-1.5-3-1.5c-0.9,0-1.6,1.4-3,1.5c-0.3,0-1.9,0-3.4-2 C1.1,10,1.4,8.7,1.3,7.5C1.2,6.4,1,5.2,1,5.2S1.7,5.9,2.6,6c0.9,0.1,1.1-0.3,3-0.9C7.7,4.5,9,7,9,7s1.4-2.4,3.4-1.9s2,0.9,2.9,0.9 C16.2,5.9,17,5.2,17,5.2S16.8,6.4,16.7,7.5z M5.9,8C4.8,7.8,4.3,8.2,3.8,8.4C3.4,8.5,3,8.6,3,8.6S3,9.2,4.2,9.8 c1.1,0.6,3.5,0.3,3.5,0.3S7.9,8.4,5.9,8z M14.2,8.4c-0.5-0.2-1-0.6-2.1-0.4c-2,0.4-1.8,2.1-1.8,2.1s2.4,0.3,3.5-0.3 C15,9.2,15,8.6,15,8.6S14.7,8.5,14.2,8.4z" />
</svg>
