<!-- This Source Code Form is subject to the terms of the Mozilla Public
   - License, v. 2.0. If a copy of the MPL was not distributed with this
   - file, You can obtain one at http://mozilla.org/MPL/2.0/. -->
<svg xmlns="http://www.w3.org/2000/svg" width="24px" height="24px">
<path fill="#8000D7" d="M12,24L12,24C5.4,24,0,18.6,0,12l0,0C0,5.4,5.4,0,12,0l0,0c6.6,0,12,5.4,12,12l0,0
	C24,18.6,18.6,24,12,24z"/>
<path fill="#FFFFFF" d="M15.4,11c-1-0.1-1.9,0.5-2.1,1.5c0,0.3,1.2,0.7,2.3,0.7s2.1-0.7,2.1-0.9C17.7,12.1,17,11.1,15.4,11
	L15.4,11z M8.6,11c-1.6,0.1-2.3,1-2.3,1.3c0,0.2,1.1,0.9,2.1,0.9c1,0,2.3-0.4,2.3-0.7C10.5,11.5,9.5,10.9,8.6,11L8.6,11z M16.4,16.5
	c-1.7,0-2.8-2-4.4-2c-1.6,0-2.8,2-4.4,2c-2.1,0-3.6-1.9-3.6-5.3c0-2.1,0.6-2.7,3.3-2.7s3.4,1.1,4.7,1.1s2.1-1.1,4.7-1.1
	S20,9.2,20,11.2C20,14.6,18.5,16.5,16.4,16.5L16.4,16.5z"/>
</svg>
