<?xml version="1.0" encoding="utf-8"?>
<!-- This Source Code Form is subject to the terms of the Mozilla Public
   - License, v. 2.0. If a copy of the MPL was not distributed with this
   - file, You can obtain one at http://mozilla.org/MPL/2.0/. -->
<svg xmlns="http://www.w3.org/2000/svg" width="16" height="16" viewBox="0 0 16 16">
<path fill="context-fill" d="M14.5,15h-13C0.7,15,0,14.3,0,13.5v-11C0,1.7,0.7,1,1.5,1h13C15.3,1,16,1.7,16,2.5v11C16,14.3,15.3,15,14.5,15z M2,6v6
	c0,0.5,0.4,1,0.9,1c0,0,0.1,0,0.1,0h7V5H3C2.5,5,2,5.4,2,5.9C2,5.9,2,6,2,6z M8.5,2C8.2,2,8,2.2,8,2.4c0,0,0,0,0,0.1
	C8,2.8,8.2,3,8.5,3S9,2.8,9,2.5C9,2.2,8.8,2,8.5,2C8.5,2,8.5,2,8.5,2z M10.4,2c-0.3,0-0.5,0.2-0.5,0.4c0,0,0,0,0,0.1
	c0,0.3,0.2,0.5,0.5,0.5c0.3,0,0.5-0.2,0.5-0.4c0,0,0,0,0-0.1C10.9,2.2,10.7,2,10.4,2C10.4,2,10.4,2,10.4,2z M13.5,2h-1
	C12.2,2,12,2.2,12,2.4c0,0,0,0,0,0.1C12,2.8,12.2,3,12.4,3c0,0,0,0,0.1,0h1C13.8,3,14,2.8,14,2.6c0,0,0,0,0-0.1
	C14,2.2,13.8,2,13.5,2C13.5,2,13.5,2,13.5,2z M14,6c0-0.5-0.4-1-0.9-1c0,0-0.1,0-0.1,0h-1v8h1c0.5,0,1-0.4,1-0.9c0,0,0-0.1,0-0.1V6z
	"/>
</svg>
