<!-- This Source Code Form is subject to the terms of the Mozilla Public
   - License, v. 2.0. If a copy of the MPL was not distributed with this
   - file, You can obtain one at http://mozilla.org/MPL/2.0/. -->
<svg xmlns="http://www.w3.org/2000/svg" width="16" height="16" viewBox="0 0 16 16" fill="context-fill" fill-opacity="context-fill-opacity">
  <path d="M11 7H5a1 1 0 0 0 0 2h6a1 1 0 0 0 0-2zm-3 4H5a1 1 0 0 0 0 2h3a1 1 0 0 0 0-2zm6-8H5a1 1 0 0 0 0 2h9a1 1 0 0 0 0-2zM2 3a1 1 0 1 0 1 1 1 1 0 0 0-1-1zm0 4a1 1 0 1 0 1 1 1 1 0 0 0-1-1zm0 4a1 1 0 1 0 1 1 1 1 0 0 0-1-1z"/>
</svg>
