<!-- This Source Code Form is subject to the terms of the Mozilla Public
   - License, v. 2.0. If a copy of the MPL was not distributed with this
   - file, You can obtain one at http://mozilla.org/MPL/2.0/. -->
<svg xmlns="http://www.w3.org/2000/svg" width="18" height="18" viewBox="0 0 18 18">
  <path fill="context-fill" d="M16,9.8c-0.1,0.6-0.2,1.2-0.4,1.7 c-0.4,1.3-1.2,2.5-2.5,3.3c0.4,0.4,1.3,0.9,1.3,0.9s-2,0.3-4.1,0.3c0,0-0.1-0.1-0.1-0.1l0,0.1c-1,0-2-0.3-3-0.6 c0.7-0.6,1.2-1.3,1.6-2.1c0.6-1.2,0.6-3,0.6-3c0,0,0.9,1.5,1.4,2.1c1.2-0.6,2-1.8,2.1-3c0.1-0.9-0.2-1.7-0.6-2.3 c-0.4-0.7-1-1.1-1.7-1.4c0.2-0.4,0.5-0.9,0.8-1.3c0.4-0.6,0.9-1,1.3-1.2C14.8,4.3,16.3,6.9,16,9.8z M9,7.8c0,0-1.1-1.5-1.6-2 C6,6.5,5.2,7.8,5.2,9.2c0.1,1.5,1.1,2.7,2.4,3.3c-0.3,0.5-0.6,1-1,1.4c-0.4,0.5-0.9,0.8-1.2,1.1C3.1,13.6,1.7,11,2.1,8.2 c0.1-0.7,0.3-1.4,0.5-2c0.4-1.1,1.1-2,2.1-2.7C4.8,3.4,4.9,3.4,5,3.3C4.6,2.9,3.4,2.5,3.4,2.5s2.5-0.8,6.8-0.3C8.9,4.1,9,7.8,9,7.8z" />
</svg>
