<!-- This Source Code Form is subject to the terms of the Mozilla Public
   - License, v. 2.0. If a copy of the MPL was not distributed with this
   - file, You can obtain one at http://mozilla.org/MPL/2.0/. -->
<svg xmlns="http://www.w3.org/2000/svg" width="16" height="16" viewBox="0 0 16 16">
  <path fill="context-fill" d="M15 8.8a8.469 8.469 0 0 1-.4 1.7 5.793 5.793 0 0 1-2.5 3.3 7.683 7.683 0 0 0 1.3.9 31.431 31.431 0 0 1-4.1.3l-.1-.1v.1a10.659 10.659 0 0 1-3-.6 6.524 6.524 0 0 0 1.6-2.1 8.029 8.029 0 0 0 .6-3 24.178 24.178 0 0 0 1.4 2.1 3.821 3.821 0 0 0 2.1-3 3.462 3.462 0 0 0-.6-2.3 3.33 3.33 0 0 0-1.7-1.4 9.129 9.129 0 0 1 .8-1.3 3.559 3.559 0 0 1 1.3-1.2A6.687 6.687 0 0 1 15 8.8zm-7-2s-1.1-1.5-1.6-2a3.8 3.8 0 0 0-2.2 3.4 3.982 3.982 0 0 0 2.4 3.3 7.1 7.1 0 0 1-1 1.4A10.974 10.974 0 0 1 4.4 14a6.833 6.833 0 0 1-3.3-6.8 11.7 11.7 0 0 1 .5-2 5.557 5.557 0 0 1 2.1-2.7c.1-.1.2-.1.3-.2a5.7 5.7 0 0 0-1.6-.8 17.645 17.645 0 0 1 6.8-.3C7.9 3.1 8 6.8 8 6.8z"/>
</svg>
