<!-- This Source Code Form is subject to the terms of the Mozilla Public
   - License, v. 2.0. If a copy of the MPL was not distributed with this
   - file, You can obtain one at http://mozilla.org/MPL/2.0/. -->
<svg xmlns="http://www.w3.org/2000/svg" width="16" height="16" viewBox="0 0 32 32">
  <path fill="context-fill" d="M29.98,28h-28a2,2,0,0,1-2-2V22a2,2,0,0,1,2-2H2c4.591,0,4-3,4.009-8,0.009-4.686.166-8,6.261-8h7.41c6.13,0,6.27,3.314,6.3,8,0.02,5-.59,8,4.02,8h-0.02a2,2,0,0,1,2,2v4A2,2,0,0,1,29.98,28Z"/>
</svg>
