<!-- This Source Code Form is subject to the terms of the Mozilla Public
   - License, v. 2.0. If a copy of the MPL was not distributed with this
   - file, You can obtain one at http://mozilla.org/MPL/2.0/. -->
<svg xmlns="http://www.w3.org/2000/svg" viewBox="0 0 16 16" width="16" height="16" fill="context-fill" fill-opacity="context-fill-opacity">
  <path d="M9.105 10.038c.077.077.136.168.175.264l1.171-3.126c.163-.443.583-.731 1.05-.731s.887.288 1.058.731l2.854 7.622a.73.73 0 0 1-.684.98c-.303 0-.576-.194-.684-.474l-.7-1.859H9.649l-.692 1.859a.73.73 0 0 1-.684.474c-.506 0-.863-.506-.677-.98l1.323-3.532c-.283.145-.65.114-.903-.139L6.445 9.556l-3.329 3.337c-.311.303-.801.303-1.104 0a.77.77 0 0 1 0-1.104L5.41 8.436c-.7-.778-1.299-1.618-1.789-2.497-.264-.467.078-1.05.614-1.05a.69.69 0 0 1 .607.366 12.04 12.04 0 0 0 1.602 2.24A12.18 12.18 0 0 0 8.91 3.318H.993a.77.77 0 0 1-.77-.77.78.78 0 0 1 .77-.77h4.674V1a.78.78 0 0 1 .778-.778.78.78 0 0 1 .778.778v.778h4.674a.78.78 0 0 1 .77.77v.016a.78.78 0 0 1-.77.77h-1.509c-.568 1.836-1.532 3.57-2.886 5.079l-.023.023 1.626 1.602zM11.5 8.521l-1.26 3.368h2.52L11.5 8.521z"/>
</svg>
