<!-- This Source Code Form is subject to the terms of the Mozilla Public
   - License, v. 2.0. If a copy of the MPL was not distributed with this
   - file, You can obtain one at http://mozilla.org/MPL/2.0/. -->
<svg xmlns="http://www.w3.org/2000/svg" width="18" height="18" viewBox="0 0 18 18">
  <path fill="context-fill" d="M14.311,5.123A6.579,6.579,0,1,0,5.026,14.24L4.545,15.609A7.985,7.985,0,1,1,16.885,7.7ZM9.034,16.148L5,18l1.863-4.024ZM13.4,4.89c0.009,0.028.014,0.058,0.023,0.085,0.059,0.064.1,0.14,0.16,0.207l-0.89.911c-0.038-.222-0.061-0.458-0.107-0.672a15.86,15.86,0,0,0-1.706-.277c0.034,0.621.058,1.252,0.076,1.9,0.265,0.008.518,0.022,0.778,0.032L10,8.855c0-.283-0.011-0.556-0.014-0.839C9.652,8.013,9.337,8,9,8s-0.652.013-.983,0.017C8.013,8.348,8,8.663,8,9s0.013,0.652.017,0.983C8.308,9.987,8.59,10,8.882,10l-1.8,1.848c-0.012-.3-0.028-0.586-0.036-0.888-0.657-.019-1.3-0.045-1.93-0.081A15.963,15.963,0,0,0,5.389,12.6c0.26,0.059.547,0.089,0.819,0.135l-0.958.982a6.057,6.057,0,0,1-.642-0.6c-0.009-.027-0.014-0.057-0.023-0.085A6,6,0,0,1,3.93,12.2c0.148,0.051.312,0.091,0.466,0.139a13.619,13.619,0,0,1-.275-1.521c-0.282-.02-0.581-0.031-0.857-0.054A5.981,5.981,0,0,1,3.06,9.8c0.313,0.021.651,0.031,0.971,0.049C4.015,9.571,4,9.289,4,9s0.015-.571.032-0.852C3.711,8.166,3.372,8.176,3.06,8.2a5.981,5.981,0,0,1,.2-0.957c0.276-.023.575-0.034,0.857-0.054a13.633,13.633,0,0,1,.268-1.5c-0.158.048-.325,0.088-0.476,0.14a6,6,0,0,1,.671-0.864C4.593,4.938,4.6,4.907,4.607,4.88a6.031,6.031,0,0,1,1.195-1c-0.061.178-.11,0.375-0.165,0.562a13.17,13.17,0,0,1,1.544-.3C7.2,3.827,7.214,3.5,7.239,3.2A5.92,5.92,0,0,1,8.2,3c-0.023.343-.034,0.713-0.053,1.066C8.431,4.046,8.7,4,9,4s0.568,0.046.856,0.063C9.837,3.711,9.826,3.34,9.8,3a5.923,5.923,0,0,1,.957.206c0.025,0.3.037,0.624,0.058,0.931a13.172,13.172,0,0,1,1.518.3c-0.056-.191-0.1-0.391-0.167-0.573A6.032,6.032,0,0,1,13.4,4.89ZM5,9c0,0.308.02,0.6,0.035,0.9,0.648,0.029,1.31.049,1.985,0.064C7.016,9.641,7,9.33,7,9s0.016-.641.02-0.966C6.345,8.049,5.683,8.069,5.035,8.1,5.02,8.4,5,8.692,5,9ZM5.383,5.427a15.968,15.968,0,0,0-.272,1.695c0.631-.036,1.273-0.062,1.93-0.081,0.018-.645.042-1.276,0.076-1.9A15.853,15.853,0,0,0,5.383,5.427Zm4.523-.36C9.606,5.051,9.309,5.031,9,5.031s-0.606.02-.906,0.036c-0.027.638-.046,1.29-0.06,1.954C8.358,7.016,8.67,7,9,7s0.641,0.016.967,0.021C9.952,6.357,9.934,5.7,9.906,5.067Zm4.033,1.872,2.121,2.121L9.884,15.209,7.763,13.087ZM14.5,12.633l2.385-2.313a7.993,7.993,0,0,1-6.806,6.6L12.5,14.569A6.608,6.608,0,0,0,14.5,12.633Z"/>
</svg>
