<!-- This Source Code Form is subject to the terms of the Mozilla Public
   - License, v. 2.0. If a copy of the MPL was not distributed with this
   - file, You can obtain one at http://mozilla.org/MPL/2.0/. -->
<svg xmlns="http://www.w3.org/2000/svg" viewBox="0 0 20 20"><path d="M9.1 12L4.9 7.9c-.5-.5-1.3-.5-1.8 0s-.5 1.3 0 1.8l6.2 6.2c.5.5 1.3.5 1.8 0l6.2-6.2c.5-.5.5-1.3 0-1.8s-1.3-.5-1.8 0L11.6 12V1.2C11.6.6 11 0 10.3 0c-.7 0-1.2.6-1.2 1.2V12zM4 20c-.7 0-1.2-.6-1.2-1.2s.6-1.2 1.2-1.2h12.5c.7 0 1.2.6 1.2 1.2s-.5 1.2-1.2 1.2H4z" fill="#fff"/></svg>