<!-- This Source Code Form is subject to the terms of the Mozilla Public
   - License, v. 2.0. If a copy of the MPL was not distributed with this
   - file, You can obtain one at http://mozilla.org/MPL/2.0/. -->
<svg xmlns="http://www.w3.org/2000/svg" viewBox="0 0 46 46"><path d="M5 12c0-.6.5-1 1-1h34c.6 0 1 .5 1 1v24c0 .6-.5 1-1 1H6c-.6 0-1-.5-1-1V12zm2 23V13h32v22H7z" fill="context-fill"/><path d="M7 35h32V13H7z" fill="context-stroke #00fdff"/><path id="dash" d="M38 19h1v-2h-1v2zm0 3h1v-2h-1v2zm0 3h1v-2h-1v2zm0 3h1v-2h-1v2zm0 3h1v-2h-1v2zm0 3h1v-2h-1v2zm-1 1h2v-1h-2v1zm-3 0h2v-1h-2v1zm-3 0h2v-1h-2v1zm-3 0h2v-1h-2v1zm-3 0h2v-1h-2v1zm-3 0h2v-1h-2v1zm-3 0h2v-1h-2v1zm-3 0h2v-1h-2v1zm-3 0h2v-1h-2v1zm-3 0h2v-1h-2v1zm-2-3H7v3h2v-1H8v-2zm-1-1h1v-2H7v2zm0-3h1v-2H7v2zm0-3h1v-2H7v2zm0-3h1v-2H7v2zm0-3h1v-2H7v2zm2-6H7v3h1v-2h1v-1zm1 1h2v-1h-2v1zm3 0h2v-1h-2v1zm3 0h2v-1h-2v1zm3 0h2v-1h-2v1zm3 0h2v-1h-2v1zm3 0h2v-1h-2v1zm3 0h2v-1h-2v1zm3 0h2v-1h-2v1zm3 0h2v-1h-2v1zm5-1h-2v1h1v2h1v-3z" fill="context-fill" opacity="0.5"/></svg>