<svg xmlns="http://www.w3.org/2000/svg" width="16" height="16" viewBox="0 0 16 16">
  <path fill="context-fill" fill-opacity="context-fill-opacity" d="M2.824.47a.47.47 0 0 0-.942 0v.471c0 .78.632 1.412 1.412 1.412h9.412c.78 0 1.412-.632 1.412-1.412v-.47a.47.47 0 0 0-.942 0v.47c0 .26-.21.47-.47.47H3.294a.47.47 0 0 1-.47-.47zM8 3.295c.26 0 .47.21.47.47V11.1l3.433-3.432a.47.47 0 0 1 .665.666l-4.235 4.235a.47.47 0 0 1-.666 0L3.432 8.333a.47.47 0 0 1 .665-.666L7.53 11.1V3.765c0-.26.211-.47.471-.47zM1.882 15.06c0-.78.632-1.412 1.412-1.412h9.412c.78 0 1.412.632 1.412 1.412v.47a.47.47 0 0 1-.942 0v-.47a.47.47 0 0 0-.47-.47H3.294a.47.47 0 0 0-.47.47v.47a.47.47 0 0 1-.942 0Z" style="stroke-width:.941176"/>
</svg>
