<svg xmlns="http://www.w3.org/2000/svg" viewBox="0 0 16 16" width="16" height="16" fill="context-fill" fill-opacity="context-fill-opacity">
  <path d="M9.037 0c-.599 0-1.13.358-1.351.914l-.395.994a1.457 1.457 0 0 1 1.156.117l.276-.697a.326.326 0 0 1 .314-.213.328.328 0 0 1 .313.213l1.28 3.215.483.352 3.453.222a.328.328 0 0 1 .301.235.325.325 0 0 1-.105.365l-.576.476a1.446 1.446 0 0 1 .441.653 1.446 1.446 0 0 1 .07.373l.776-.645a1.446 1.446 0 0 0 .455-1.568 1.446 1.446 0 0 0-1.29-1l-3.1-.201-1.151-2.89A1.445 1.445 0 0 0 9.037 0zM6.963 2.613c-.599 0-1.13.36-1.352.916L4.463 6.418l-3.102.201a1.447 1.447 0 0 0-1.289 1 1.444 1.444 0 0 0 .453 1.567l2.393 1.986-.768 3.012a1.446 1.446 0 0 0 .555 1.535c.255.186.554.279.854.279a1.455 1.455 0 0 0 .777-.225l2.627-1.662 2.627 1.662a1.444 1.444 0 0 0 1.63-.052 1.446 1.446 0 0 0 .555-1.535l-.767-3.012 2.39-1.986a1.446 1.446 0 0 0 .456-1.569 1.446 1.446 0 0 0-1.29-1l-3.101-.201-1.149-2.889a1.45 1.45 0 0 0-1.351-.916zm0 1.116a.328.328 0 0 1 .314.212L8.56 7.156l.482.352 3.453.222a.328.328 0 0 1 .299.235.325.325 0 0 1-.105.363l-2.665 2.211-.183.566.855 3.356a.328.328 0 0 1-.127.355.326.326 0 0 1-.38.014l-2.926-1.85h-.596L3.74 14.83a.324.324 0 0 1-.38-.014.325.325 0 0 1-.13-.355l.856-3.354-.184-.566-2.664-2.213a.325.325 0 0 1-.105-.363.327.327 0 0 1 .299-.233l3.455-.224.482-.35 1.28-3.217a.326.326 0 0 1 .314-.212z"/>
</svg>
