<svg xmlns="http://www.w3.org/2000/svg" width="16" height="16" viewBox="0 0 16 16">
   <path
   style="fill:context-fill;fill-opacity:context-fill-opacity"
   d="M 7,0.5 C 7,0.22386 6.77614,0 6.5,0 6.22386,0 6,0.22386 6,0.5 V 1 C 6,1.39716 6.11577,1.76729 6.3154,2.07847 4.98842,2.38821 4,3.57867 4,5 H 3.5 C 2.67157,5 2,4.32843 2,3.5 v -2 C 2,1.22386 1.77614,1 1.5,1 1.22386,1 1,1.22386 1,1.5 v 2 C 1,4.88071 2.11929,6 3.5,6 H 4 V 8 H 0.5 C 0.22386,8 0,8.22386 0,8.5 0,8.7761 0.22386,9 0.5,9 H 4 v 2 H 3.5 C 2.11929,11 1,12.1193 1,13.5 v 2 C 1,15.7761 1.22386,16 1.5,16 1.77614,16 2,15.7761 2,15.5 v -2 C 2,12.6716 2.67157,12 3.5,12 H 4 c 0,2.2091 1.79086,4 4,4 2.2091,0 4,-1.7909 4,-4 h 0.5 c 0.8284,0 1.5,0.6716 1.5,1.5 v 2 c 0,0.2761 0.2239,0.5 0.5,0.5 0.2761,0 0.5,-0.2239 0.5,-0.5 v -2 C 15,12.1193 13.117468,12.234936 12.5,11 H 12 V 9 h 3.5 C 15.7761,9 16,8.7761 16,8.5 16,8.22386 15.7761,8 15.5,8 H 12 V 6 h 0.5 C 13.8807,6 15,4.88071 15,3.5 v -2 C 15,1.22386 14.7761,1 14.5,1 14.2239,1 14,1.22386 14,1.5 v 2 C 14,4.32843 13.3284,5 12.5,5 H 12 C 12,3.57867 11.0116,2.38821 9.6846,2.07847 9.8842,1.76729 10,1.39716 10,1 V 0.5 C 10,0.22386 9.7761,0 9.5,0 9.2239,0 9,0.22386 9,0.5 V 1 C 9,1.55228 8.5523,2 8,2 7.44772,2 7,1.55228 7,1 Z M 11,5 v 7 C 11,13.6569 9.6569,15 8,15 6.34315,15 5,13.6569 5,12 V 5 C 5,3.89543 5.89543,3 7,3 h 2 c 1.1046,0 2,0.89543 2,2 z" />
</svg>
