<svg width="16" height="16" viewBox="0 0 16 16" fill="context-fill" fill-opacity="context-fill-opacity" xmlns="http://www.w3.org/2000/svg">
  <path d="M2.286 4.571c0-.63.511-1.142 1.143-1.142h9.142c.632 0 1.143.512 1.143 1.142v2.286c0 .631-.511 1.143-1.143 1.143H3.429a1.149 1.149 0 0 1-1.143-1.143V4.571Zm10.285 0H3.429v2.286h9.142V4.571Zm-2.285 4.572c-.631 0-1.143.512-1.143 1.143v1.143c0 .631.512 1.142 1.143 1.142h2.285c.632 0 1.143-.511 1.143-1.142v-1.143c0-.631-.511-1.143-1.143-1.143h-2.285Zm0 1.143h2.285v1.143h-2.285v-1.143Zm-8-.572a.57.57 0 0 1 .571-.571h4.572c.313 0 .571.258.571.571a.574.574 0 0 1-.571.572H2.857a.574.574 0 0 1-.571-.571v-.001Zm.571 1.715a.574.574 0 0 0-.571.571c0 .313.258.571.571.571h4.572A.574.574 0 0 0 8 12a.574.574 0 0 0-.571-.571H2.857Z"/>
  <path d="M0 3.429A3.446 3.446 0 0 1 3.429 0h9.142A3.446 3.446 0 0 1 16 3.429v9.142A3.446 3.446 0 0 1 12.571 16H3.429A3.446 3.446 0 0 1 0 12.571V3.429Zm3.429-2.286a2.297 2.297 0 0 0-2.286 2.286v9.142a2.297 2.297 0 0 0 2.286 2.286h9.142a2.297 2.297 0 0 0 2.286-2.286V3.429a2.297 2.297 0 0 0-2.286-2.286H3.429Z"/>
</svg>