<svg width="16" height="16" viewBox="0 0 16 16" fill="context-fill" fill-opacity="context-fill-opacity" xmlns="http://www.w3.org/2000/svg">
  <path d="M4.437 0h7.126a3 3 0 0 1 3 3v10a3 3 0 0 1-3 3H4.437a3 3 0 0 1-3-3V3a3 3 0 0 1 3-3zm0 1.213C3.885 1.213 2.65 2.448 2.65 3v10c0 .552 1.235 1.787 1.787 1.787h7.126c.552 0 1.787-1.235 1.787-1.787V3c0-.552-1.235-1.787-1.787-1.787z"/>
  <path d="M2.6 7h10.8v1H2.6Z"/>
  <rect width="4.8" height="1" x="5.6" y="4" rx=".6"/>
  <rect width="4.8" height="1" x="5.6" y="10" rx=".6"/>
</svg>
