<svg width="16" height="16" viewBox="0 0 16 16" fill="context-fill" fill-opacity="context-fill-opacity" xmlns="http://www.w3.org/2000/svg">
  <path d="M1 4a1 1 0 0 1 1-1h.5a.5.5 0 0 0 0-1H2a2 2 0 0 0-2 2v.5a.5.5 0 0 0 1 0V4ZM7.5 2a.5.5 0 0 0-.5.5v11a.5.5 0 0 0 .5.5H14a2 2 0 0 0 2-2V7.414a1.5 1.5 0 0 0-.439-1.06l-3.915-3.915A1.499 1.499 0 0 0 10.586 2H7.5ZM8 13V3h2v3.5A1.5 1.5 0 0 0 11.5 8H15v4a1 1 0 0 1-1 1H8Zm3.5-6a.5.5 0 0 1-.5-.5V3.207L14.793 7H11.5ZM1 12a1 1 0 0 0 1 1h.5a.5.5 0 0 1 0 1H2a2 2 0 0 1-2-2v-.5a.5.5 0 0 1 1 0v.5ZM1 6.5a.5.5 0 0 0-1 0v3a.5.5 0 0 0 1 0v-3ZM4 2.5a.5.5 0 0 1 .5-.5h1a.5.5 0 0 1 0 1h-1a.5.5 0 0 1-.5-.5ZM4.5 13a.5.5 0 0 0 0 1h1a.5.5 0 0 0 0-1h-1Z"/>
</svg>
