<svg xmlns="http://www.w3.org/2000/svg" width="16" height="16" viewBox="0 0 16 16">
  <path fill="context-fill" fill-opacity="context-fill-opacity" style="stroke-width:.941092" d="M6.588 4.223a4.236 4.236 0 0 1 3.765-4.21v3.544l-.609-.608a.47.47 0 0 0-.665.665l1.412 1.412a.47.47 0 0 0 .665 0l1.412-1.412a.47.47 0 0 0-.666-.665l-.608.608V.014a4.236 4.236 0 1 1-4.706 4.209zm1.883 1.882c0 .26.21.47.47.47h3.764a.47.47 0 0 0 0-.94H8.941a.47.47 0 0 0-.47.47zm5.646 2.11a5.182 5.182 0 0 1-.941.62v.564H9.882a.47.47 0 0 0-.47.47 1.882 1.882 0 1 1-3.765 0 .47.47 0 0 0-.47-.47H1.883V6.575h4.329a5.142 5.142 0 0 1-.37-.94h-3.96c0-1.04.844-1.883 1.883-1.883h1.903c.03-.323.088-.638.174-.94H3.765A2.823 2.823 0 0 0 .942 5.633v7.53a2.823 2.823 0 0 0 2.823 2.822h7.529a2.823 2.823 0 0 0 2.823-2.823zm-.941 4.948c0 1.04-.843 1.882-1.882 1.882H3.765a1.882 1.882 0 0 1-1.882-1.882V10.34h2.862a2.824 2.824 0 0 0 5.569 0h2.862z"/>
</svg>
