<svg width="16" height="16" viewBox="0 0 16 16" fill="context-fill" fill-opacity="context-fill-opacity" xmlns="http://www.w3.org/2000/svg">
  <path d="M.854.146a.502.502 0 0 0-.708.708l3.499 3.498A8.098 8.098 0 0 0 .28 9.398a.501.501 0 0 0 .979.204 7.093 7.093 0 0 1 3.108-4.528L5.953 6.66a3.5 3.5 0 1 0 4.887 4.887l4.306 4.307a.502.502 0 0 0 .708-.708l-15-15Zm9.265 10.681a2.5 2.5 0 1 1-3.446-3.446l3.446 3.446ZM8.124 6.002l3.374 3.375a3.501 3.501 0 0 0-3.374-3.375Z"/>
  <path d="M8 4c-.57 0-1.129.074-1.666.213l-.803-.803A7.634 7.634 0 0 1 8 3c3.693 0 6.943 2.673 7.72 6.398a.501.501 0 0 1-.979.204C14.057 6.327 11.206 4 8 4Z"/>
</svg>
