<svg xmlns="http://www.w3.org/2000/svg" viewBox="0 0 16 16" width="16" height="16" fill="context-fill" fill-opacity="context-fill-opacity">
  <path d="M15.94 6.144a4.537 4.537 0 1 1-9.074 0 4.537 4.537 0 0 1 9.074 0zm-5.895-1.942a.413.413 0 0 0-.584.584l1.359 1.358-1.36 1.358a.413.413 0 0 0 .584.583l1.358-1.358 1.358 1.358a.413.413 0 0 0 .583-.583l-1.358-1.358 1.358-1.358a.413.413 0 0 0-.583-.584l-1.358 1.359zm-2.069 6.067A5.392 5.392 0 0 1 6.884 9.03h-3.73a.619.619 0 0 0 0 1.238zM6.04 6.144c0-.426.05-.84.144-1.238H.68a.619.619 0 0 0 0 1.238zm2.063 7.012a.619.619 0 0 1 0 1.237H5.628a.619.619 0 0 1 0-1.237z"/>
</svg>
