<svg width="16" height="16"  viewBox="0 0 16 16" fill="context-fill" fill-opacity="context-fill-opacity" xmlns="http://www.w3.org/2000/svg">
<path d="M13.749 4.463v-.004a2.28 2.28 0 00-2.28-2.281H5.964l-1.265-1.01a.568.568 0 00-.356-.125H2.345a2.28 2.28 0 00-2.28 2.28v6.841a2.28 2.28 0 002.28 2.28h10.546a1.71 1.71 0 001.642-1.231l1.332-4.56a1.71 1.71 0 00-1.641-2.19h-.475zM2.345 2.183h1.799l1.264 1.011a.572.572 0 00.356.125h5.705c.63 0 1.14.51 1.14 1.14v.004H3.77c-.76 0-1.429.502-1.642 1.231L1.205 8.86V3.323c0-.63.51-1.14 1.14-1.14zm.878 3.831a.57.57 0 01.547-.411h10.454a.57.57 0 01.547.73l-1.333 4.561a.57.57 0 01-.547.41H2.44a.57.57 0 01-.547-.73l1.33-4.56z"/>
</svg>