<svg xmlns="http://www.w3.org/2000/svg" width="16" height="16" viewBox="0 0 16 16">
  <path fill="context-fill" fill-opacity="context-fill-opacity" stroke-width=".942277" d="M2.36.462A2.356 2.356 0 0 0 .003 2.817v8.481a2.356 2.356 0 0 0 2.355 2.356h4.806a5.15 5.15 0 0 1-.37-.943H2.359c-.78 0-1.413-.632-1.413-1.413V4.702h3.836c.387 0 .757-.158 1.024-.439l1.377-1.446h5.541c.781 0 1.414.633 1.414 1.414v2.45c.337.172.653.38.942.62V4.23a2.356 2.356 0 0 0-2.356-2.356H7.228L5.72.745a1.413 1.413 0 0 0-.848-.283ZM.945 2.817c0-.78.633-1.413 1.413-1.413h2.513c.102 0 .201.033.283.094l1.157.868-1.188 1.248a.471.471 0 0 1-.342.146H.946Zm9.432 8.01c.044-1.063.235-2 .509-2.685.157-.394.333-.68.504-.861.17-.18.302-.223.391-.223.089 0 .221.043.391.223.171.18.347.467.504.86.274.685.465 1.623.509 2.686zm-.366-3.035c.06-.151.126-.296.196-.433a4.245 4.245 0 0 0-2.64 3.468h1.867c.045-1.163.252-2.223.577-3.035Zm3.54 0a4.98 4.98 0 0 0-.196-.433 4.244 4.244 0 0 1 2.64 3.468H14.13c-.045-1.163-.252-2.223-.577-3.035Zm.577 3.977h1.867a4.244 4.244 0 0 1-2.64 3.467c.07-.136.136-.281.196-.432.325-.812.532-1.873.577-3.035zm-1.956 3.546c-.17.18-.302.223-.391.223-.089 0-.221-.043-.391-.223-.171-.18-.347-.467-.504-.86-.274-.685-.465-1.623-.509-2.686h2.808c-.044 1.063-.235 2-.509 2.685-.157.394-.333.68-.504.861zM7.568 11.77a4.245 4.245 0 0 0 2.64 3.467 5.037 5.037 0 0 1-.196-.432c-.325-.812-.532-1.873-.577-3.035Z"/>
</svg>
