<svg xmlns="http://www.w3.org/2000/svg" width="16" height="16" viewBox="0 0 16 16" fill="context-fill" fill-opacity="context-fill-opacity">
<path d="M.256 3.652v7.745a2.58 2.58 0 002.581 2.581h10.326a2.58 2.58 0 002.581-2.581V4.943a2.581 2.581 0 00-2.581-2.582H6.936L5.499 1.212a.648.648 0 00-.403-.141H2.837A2.58 2.58 0 00.256 3.652zm1.29 0c0-.713.578-1.291 1.291-1.291h2.032l1.121.897-1.144 1.04h-3.3v-.646zm5.929 0h5.688c.713 0 1.291.578 1.291 1.291v6.454a1.29 1.29 0 01-1.291 1.29H2.837a1.29 1.29 0 01-1.291-1.29V5.588h3.55c.16 0 .315-.06.434-.168l1.945-1.768z"/>
</svg>
