<svg xmlns="http://www.w3.org/2000/svg" width="16" height="16" viewBox="0 0 16 16" fill="context-fill" fill-opacity="context-fill-opacity">
  <path d="M14.604 0a.6.6 0 0 1 .594.52l.005.08-.003 3.6a1.804 1.804 0 0 1-1.6 1.787l-.001 1.808a1.8 1.8 0 0 1-1.677 1.796l-.123.004h-.201v2.233a1.8 1.8 0 0 1-.913 1.567l-.123.064-5.308 2.485a.6.6 0 0 1-.85-.463L4.4 15.4V9.593h-.202A1.8 1.8 0 0 1 2.4 7.917l-.004-.123V5.986A1.8 1.8 0 0 1 .8 4.33l-.004-.132V.6A.6.6 0 0 1 1.99.519L1.997.6v3.597a.6.6 0 0 0 .518.595l.082.005h10.801a.603.603 0 0 0 .596-.519L14 4.197l.003-3.598a.6.6 0 0 1 .6-.599Zm-4.206 9.594H5.599v4.862l4.454-2.085a.6.6 0 0 0 .34-.458l.005-.086zm2-3.597h-8.8v1.797a.6.6 0 0 0 .518.594l.082.006H11.8a.6.6 0 0 0 .594-.519l.006-.081z"/>
</svg>
