<svg width="16" height="16" viewBox="0 0 16 16" fill="context-fill" fill-opacity="context-fill-opacity" xmlns="http://www.w3.org/2000/svg">
  <path d="M12.286 5.321a1.608 1.608 0 1 1-3.216 0 1.608 1.608 0 0 1 3.216 0Zm-1.072 0a.536.536 0 1 0-1.071.001.536.536 0 0 0 1.071-.001ZM.5 3.714A3.214 3.214 0 0 1 3.714.5h8.572A3.214 3.214 0 0 1 15.5 3.714v8.572a3.214 3.214 0 0 1-3.214 3.214H3.714A3.214 3.214 0 0 1 .5 12.286V3.714Zm3.214-2.143c-1.183 0-2.143.96-2.143 2.143v8.572c0 .399.11.773.3 1.093l5.003-4.916a1.605 1.605 0 0 1 2.252 0l5.003 4.916c.19-.32.3-.694.3-1.093V3.714c0-1.183-.96-2.143-2.143-2.143H3.714Zm0 12.858h8.572c.395 0 .766-.108 1.084-.294L8.375 9.227a.534.534 0 0 0-.75 0L2.63 14.135c.318.186.689.294 1.084.294Z"/>
</svg>
