<svg width="16" height="16" viewBox="0 0 16 16" fill="context-fill" fill-opacity="context-fill-opacity" xmlns="http://www.w3.org/2000/svg">
  <path d="M8.325.012a3.766 3.766 0 0 0-4.062 3.759c0 .37.053.727.152 1.066L.665 8.595a.565.565 0 0 0-.165.4v2.695c0 .312.253.565.564.565h2.634a.565.565 0 0 0 .565-.565v-1.32H6.05a.565.565 0 0 0 .564-.566V8.208l.691-.692a5.117 5.117 0 0 1-.534-.798l-.932.934a.566.566 0 0 0-.166.4v1.375H3.886a.566.566 0 0 0-.564.566v1.32H1.441V9.151l4.063-4.072-.111-.286a2.827 2.827 0 0 1 1.844-3.738A5.2 5.2 0 0 1 8.325.012Zm2.992 3.995a.707.707 0 1 0-.001-1.413.707.707 0 0 0 .001 1.413Zm-4.233.235A4.237 4.237 0 0 1 11.317 0a4.237 4.237 0 0 1 4.233 4.242 4.241 4.241 0 0 1-1.881 3.528v1.933l.736.738a.566.566 0 0 1 0 .8l-1.012 1.014 1.004 1.007a.566.566 0 0 1-.046.841l-2.211 1.773a.564.564 0 0 1-.705 0l-2.258-1.81a.568.568 0 0 1-.211-.442V7.77a4.24 4.24 0 0 1-1.882-3.528ZM11.317.943a3.296 3.296 0 0 0-3.292 3.299c0 1.221.661 2.287 1.646 2.859a.47.47 0 0 1 .235.408v5.934l1.882 1.508 1.647-1.321-.973-.975a.567.567 0 0 1 0-.8l1.012-1.014-.581-.581a.571.571 0 0 1-.165-.4V7.509c0-.169.09-.324.235-.408a3.301 3.301 0 0 0 1.646-2.859A3.296 3.296 0 0 0 11.317.943Z"/>
</svg>