<svg width="16" height="16" viewBox="0 0 16 16" fill="context-fill" fill-opacity="context-fill-opacity" xmlns="http://www.w3.org/2000/svg">
  <path d="M3.208.5h9.584a2.709 2.709 0 0 1 2.704 2.555l.004.153v9.584a2.709 2.709 0 0 1-2.555 2.704l-.153.004H3.208a2.709 2.709 0 0 1-2.704-2.555L.5 12.792V3.208A2.709 2.709 0 0 1 3.055.504L3.208.5Zm1.73 9.583H1.75v2.709c0 .765.589 1.392 1.339 1.453l.119.005h9.584c.765 0 1.392-.589 1.453-1.339l.005-.119v-2.709h-3.188a3.125 3.125 0 0 1-2.895 2.496L8 12.583a3.125 3.125 0 0 1-3.026-2.343l-.036-.157Zm7.854-8.333H3.208c-.765 0-1.392.589-1.453 1.339l-.005.119v5.625H5.5c.316 0 .578.235.619.54l.006.085a1.874 1.874 0 0 0 3.746.129l.004-.129c0-.316.235-.578.54-.619l.085-.006h3.75V3.208c0-.765-.589-1.392-1.339-1.453l-.119-.005ZM3.625 5.917h8.75a.625.625 0 0 1 .085 1.244l-.085.006h-8.75a.625.625 0 0 1-.085-1.245l.085-.005h8.75-8.75Zm0-2.5h8.75a.625.625 0 0 1 .085 1.244l-.085.006h-8.75a.625.625 0 0 1-.085-1.245l.085-.005h8.75-8.75Z"/>
</svg>
