<svg width="16" height="16" viewBox="0 0 16 16" fill="context-fill" fill-opacity="context-fill-opacity" xmlns="http://www.w3.org/2000/svg">
  <path fill="#212121" d="M0 3.789c0-.349.283-.632.632-.632h2.743c.838 0 1.64.333 2.233.925l2.484 2.485a2.74 2.74 0 0 0 1.936.801h3.816l-3.132-3.132a.632.632 0 1 1 .894-.894l4.21 4.211a.632.632 0 0 1 0 .894l-4.21 4.21a.631.631 0 1 1-.894-.893l3.132-3.132h-3.765a2.74 2.74 0 0 0-1.985.852L5.837 11.86a3.158 3.158 0 0 1-2.29.983H.632a.632.632 0 0 1 0-1.264h2.915c.52 0 1.016-.213 1.374-.59l2.257-2.376c.217-.228.458-.428.718-.597a4.004 4.004 0 0 1-.697-.556L4.715 4.976a1.895 1.895 0 0 0-1.34-.555H.632A.632.632 0 0 1 0 3.789Z" />
</svg>
