<svg xmlns="http://www.w3.org/2000/svg" viewBox="0 0 16 16" width="16" height="16" fill="context-fill" fill-opacity="context-fill-opacity">
  <path d="M4 3.192a2 2 0 0 0-2 2v4.585H1c-1.334 0-1.334 1.485 0 1.485h7v-.485a1 1 0 0 1 .872-.99h-5.64V7.34h.01V5.36a1.11 1.11 0 0 1 1.113-1.114h7.035a1.11 1.11 0 0 1 1.113 1.113v1.418h.496a1 1 0 0 1 1 1V5.192a2 2 0 0 0-2-2h-8z"/>
  <path d="M8.695 10.604h6.186L12.528 8.25a.342.342 0 0 1 .484-.483L16 10.758v.376l-2.989 2.988a.34.34 0 0 1-.483 0 .343.343 0 0 1 0-.483l2.353-2.353H8.695a.341.341 0 0 1 0-.682z"/>
</svg>
