<svg xmlns="http://www.w3.org/2000/svg" viewBox="0 0 16 16" width="16" height="16" fill="context-fill" fill-opacity="context-fill-opacity">
  <path d="M4.04 4.69a2 2 0 0 0-2 2v4.585h-1c-1.334 0-1.334 1.485 0 1.485h7v-.485a1 1 0 0 1 .872-.99h-5.64V8.838h.01v-1.98a1.11 1.11 0 0 1 1.113-1.114h7.035a1.11 1.11 0 0 1 1.113 1.113v1.418h.496a1 1 0 0 1 1 1V6.69a2 2 0 0 0-2-2h-8zm8.5 4.585c-.25 0-.5.167-.5.5v2.5h-2.5c-.668 0-.668 1 0 1h2.5v2.5c0 .667 1 .667 1 0v-2.5h2.5c.666 0 .666-1 0-1h-2.5v-2.5c0-.333-.25-.5-.5-.5z"/>
  <path d="M12.5 2.721a3.5 3.5 0 0 1 3.5 3.5v2.5c0 .819-.393 1.545-1 2v-4.5a2.5 2.5 0 0 0-2.5-2.5H3c.456-.606 1.182-1 2-1z"/>
</svg>
