<svg xmlns="http://www.w3.org/2000/svg" viewBox="0 0 16 16" width="16" height="16" fill="context-fill" fill-opacity="context-fill-opacity">
  <path d="M16 .655a.632.632 0 0 0-1.263 0v2.863C13.765 2.35 12.506 1.36 10.924.87a9.419 9.419 0 0 0-6.091.162C2.883 1.758 1.04 3.23.078 4.984a.632.632 0 1 0 1.107.607c.796-1.45 2.38-2.74 4.088-3.375a8.156 8.156 0 0 1 5.277-.139c1.433.444 2.586 1.401 3.477 2.578h-3.29a.632.632 0 0 0 0 1.264h4.631A.632.632 0 0 0 16 5.287zM4.037 6.939a2 2 0 0 0-2 2v4.089H.998c-1.332.002-1.332 1.527 0 1.527h14c1.335.002 1.335-1.527 0-1.527v.002h-1.3V8.938a2 2 0 0 0-2-2zm.407 1.065h6.818a1.11 1.11 0 0 1 1.113 1.113v3.913H3.33V9.117a1.11 1.11 0 0 1 1.114-1.113z"/>
</svg>
