<svg width="16" height="16" viewBox="0 0 16 16" fill="context-fill" fill-opacity="context-fill-opacity" xmlns="http://www.w3.org/2000/svg">
  <path d="M12.5 3A3.5 3.5 0 0 1 16 6.5V9c0 .818-.393 1.544-1 2V6.5A2.5 2.5 0 0 0 12.5 4H3c.456-.607 1.182-1 2-1h7.5Z"/>
  <path d="M15.995 12.432 16 12.5c0 .253-.226.462-.519.495L15.4 13H.6c-.331 0-.6-.224-.6-.5 0-.253.226-.462.519-.495L.6 12H1V7a2 2 0 0 1 2-2h9a2 2 0 0 1 2 2v5h1.4c.304 0 .555.188.595.432ZM13 7a1 1 0 0 0-1-1H3a1 1 0 0 0-1 1v5h11V7Z"/>
</svg>