<svg width="16" height="16" viewBox="0 0 16 16" fill="context-fill" fill-opacity="context-fill-opacity" xmlns="http://www.w3.org/2000/svg">
  <path d="M7.824 6.576a.598.598 0 0 0-.848 0 .598.598 0 0 0 0 .848L7.552 8l-.576.576a.598.598 0 0 0 0 .848.598.598 0 0 0 .848 0l.576-.576.576.575a.598.598 0 0 0 .848 0 .598.598 0 0 0 0-.848L9.249 8l.575-.576a.598.598 0 0 0 0-.848.598.598 0 0 0-.848 0l-.576.575-.576-.575ZM2.576 6.576a.598.598 0 0 1 .848 0L4 7.151l.576-.575a.598.598 0 0 1 .848 0 .598.598 0 0 1 0 .848L4.849 8l.575.575a.598.598 0 0 1 0 .848.598.598 0 0 1-.848 0L4 8.848l-.576.576a.598.598 0 0 1-.848 0 .598.598 0 0 1 0-.848L3.152 8l-.576-.576a.598.598 0 0 1 0-.848ZM11.6 9.2a.6.6 0 0 0 0 1.2H13a.6.6 0 0 0 0-1.2h-1.4Z"/>
  <path d="M2.599 2.4A2.6 2.6 0 0 0 0 5v6a2.6 2.6 0 0 0 2.6 2.6h10.8A2.6 2.6 0 0 0 16 11V5a2.6 2.6 0 0 0-2.599-2.6H2.599ZM1.2 5a1.4 1.4 0 0 1 1.399-1.4h10.802A1.4 1.4 0 0 1 14.8 5v6a1.4 1.4 0 0 1-1.4 1.4H2.6A1.4 1.4 0 0 1 1.2 11V5Z"/>
</svg>
