<!-- This Source Code Form is subject to the terms of the Mozilla Public
   - License, v. 2.0. If a copy of the MPL was not distributed with this
   - file, You can obtain one at http://mozilla.org/MPL/2.0/. -->
<svg xmlns="http://www.w3.org/2000/svg" width="16" height="16" viewBox="0 0 16 16" fill="context-fill" fill-opacity="context-fill-opacity">
  <circle cx="8" cy="8" r="7.5"/>
  <path filter="invert(100%) brightness(1.3)" d="M13.948 5.886c-1.143-1.501-3.388-1.693-4.785-.409l-.782.718-.765 0-.782-.718c-1.398-1.284-3.642-1.092-4.786.409-.148.585.081 2.745.21 3.085.26 1.372 1.382 2.404 2.726 2.404.671 0 1.279-.268 1.76-.697l.293-.251a1.451 1.451 0 0 1 1.883-.016l.44.364 0-.002a2.622 2.622 0 0 0 1.652.601c1.344 0 2.466-1.032 2.726-2.404.13-.339.367-2.49.21-3.084z"/>
  <path d="M5.3 6.843c-.558 0-1.054.233-1.374.594a.519.519 0 0 0 0 .678c.32.362.816.594 1.374.594s1.054-.233 1.374-.594a.519.519 0 0 0 0-.678A1.828 1.828 0 0 0 5.3 6.843z"/>
  <path d="M10.7 6.843c-.558 0-1.054.233-1.374.594a.519.519 0 0 0 0 .678c.32.362.816.594 1.374.594s1.054-.233 1.374-.594a.519.519 0 0 0 0-.678 1.828 1.828 0 0 0-1.374-.594z"/>
</svg>
