<!-- This Source Code Form is subject to the terms of the Mozilla Public
   - License, v. 2.0. If a copy of the MPL was not distributed with this
   - file, You can obtain one at http://mozilla.org/MPL/2.0/. -->
<svg xmlns="http://www.w3.org/2000/svg" width="16" height="16" viewBox="0 0 16 16" fill="context-fill" fill-opacity="context-fill-opacity">
  <path d="M13 0H3a3 3 0 0 0-3 3v8a3 3 0 0 0 3 3h4l-.3.4a1 1 0 1 0 1.6 1.2l1.5-2a1 1 0 0 0 0-1.2l-1.5-2a1 1 0 0 0-1.6 1.2l.3.4H3a1 1 0 0 1-1-1V5h12v6a1 1 0 0 1-1 1 1 1 0 0 0 0 2 3 3 0 0 0 3-3V3a3 3 0 0 0-3-3zM2 4V3a1 1 0 0 1 1-1h10a1 1 0 0 1 1 1v1z"/>
</svg>