<svg width="16" height="16" viewBox="0 0 16 16" fill="context-fill" fill-opacity="context-fill-opacity" xmlns="http://www.w3.org/2000/svg">
  <path d="M14.372 3.22A1.689 1.689 0 0 1 15.5 4.813v7.5a3.187 3.187 0 0 1-3.187 3.187h-7.5a1.689 1.689 0 0 1-1.593-1.128l1.573.003h7.52a2.062 2.062 0 0 0 2.062-2.062V4.812l-.003-.038V3.22ZM11.935.5c.932 0 1.688.756 1.688 1.688v9.747c0 .932-.756 1.688-1.688 1.688H2.188A1.688 1.688 0 0 1 .5 11.935V2.188C.5 1.256 1.256.5 2.188.5h9.747Zm0 1.125H2.188a.563.563 0 0 0-.563.563v9.747c0 .311.252.563.563.563h9.747a.563.563 0 0 0 .563-.563V2.188a.563.563 0 0 0-.563-.563ZM6.186 7.519l2.916-2.917a.563.563 0 0 1 .85.733l-.054.063-3.375 3.375a.563.563 0 0 1-.793.003l-.055-.063-1.125-1.5a.563.563 0 0 1 .845-.738l.055.063.736.981 2.916-2.917-2.916 2.917Z"/>
</svg>