<!-- This Source Code Form is subject to the terms of the Mozilla Public
   - License, v. 2.0. If a copy of the MPL was not distributed with this
   - file, You can obtain one at http://mozilla.org/MPL/2.0/. -->
<svg xmlns="http://www.w3.org/2000/svg" width="16" height="16" viewBox="0 0 16 16">
  <path fill="context-fill" fill-opacity="context-fill-opacity" d="M12 0H4a2 2 0 0 0-2 2v2a1 1 0 0 0 1 1 1 1 0 0 0 1-1V2.5a.5.5 0 0 1 .5-.5h7a.5.5 0 0 1 .5.5v10a.5.5 0 0 1-.5.5h-7a.5.5 0 0 1-.5-.5V11a1 1 0 0 0-1-1 1 1 0 0 0-1 1v3a2 2 0 0 0 2 2h8a2 2 0 0 0 2-2V2a2 2 0 0 0-2-2zM9 15H7v-1h2z"/>
  <path fill="context-fill" fill-opacity="context-fill-opacity" d="M5.146 10.146a.5.5 0 1 0 .707.707l3-3a.5.5 0 0 0 0-.708l-3-3a.5.5 0 0 0-.707.707L7.293 7H.5a.5.5 0 0 0 0 1h6.793z"/>
</svg>
