<svg xmlns="http://www.w3.org/2000/svg" viewBox="0 0 16 16" width="16" height="16" fill="context-fill" fill-opacity="context-fill-opacity">
  <path d="M3.662 4.678a2 2 0 0 0-2 2v4.601H.998c-1.332.002-1.332 1.527 0 1.527h14c1.335.002 1.335-1.527 0-1.527v.002h-1V6.678a2 2 0 0 0-2-2zm.565 1.066h7.035a1.11 1.11 0 0 1 1.113 1.113v4.424H3.113V6.857a1.11 1.11 0 0 1 1.114-1.113z"/>
  <path d="M12.5 2.721a3.5 3.5 0 0 1 3.5 3.5v2.5c0 .819-.393 1.545-1 2v-4.5a2.5 2.5 0 0 0-2.5-2.5H3c.456-.606 1.182-1 2-1z"/>
</svg>
