<svg width="36" height="36" viewBox="0 0 36 36" xmlns="http://www.w3.org/2000/svg">
  <path fill="context-fill" stroke="context-stroke" stroke-opacity="context-stroke-opacity" stroke-width="1.5" stroke-dasharray="60, 100" d="M36 0c-6 0-12 0-15 6-1.5 3-2.25 7.5-3 12 .188 1.125.375 2.25.574 3.352.1.55.202 1.096.309 1.632.107.536.219 1.063.336 1.578.117.516.24 1.021.37 1.51.131.49.268.963.415 1.42.146.457.301.898.467 1.317a14.336 14.336 0 0 0 .818 1.736 9.98 9.98 0 0 0 1.695 2.236 9.134 9.134 0 0 0 2.498 1.754c.302.147.61.278.926.397.316.118.639.224.967.318.328.094.66.176 1 .248.34.072.685.133 1.033.186.71.102 1.423.176 2.139.222.363.024.73.042 1.098.055.368.013.739.021 1.11.027C34.5 36 35.25 36 36 36V0"/>
</svg>
