<svg width="16" height="16" viewBox="0 0 16 16" fill="context-fill" fill-opacity="context-fill-opacity" xmlns="http://www.w3.org/2000/svg">
  <path d="M3.207 2.4h1.207A1.4 1.4 0 0 1 5.8 1.2h6.4a2.6 2.6 0 0 1 2.6 2.6v6.4a1.4 1.4 0 0 1-1.2 1.386v1.206A2.6 2.6 0 0 0 16 10.2V3.8A3.8 3.8 0 0 0 12.2 0H5.8a2.6 2.6 0 0 0-2.593 2.4ZM0 5.8a2.6 2.6 0 0 1 2.6-2.6h7.6a2.6 2.6 0 0 1 2.6 2.6v7.6a2.6 2.6 0 0 1-2.6 2.6H2.6A2.6 2.6 0 0 1 0 13.4Zm2.6-1.4a1.4 1.4 0 0 0-1.4 1.4v5.8h4.6a1.8 1.8 0 0 1 1.8 1.8v1.4h2.6a1.4 1.4 0 0 0 1.4-1.4V5.8a1.4 1.4 0 0 0-1.4-1.4zm3.8 10.4v-1.4a.6.6 0 0 0-.6-.6H1.2v.6a1.4 1.4 0 0 0 1.4 1.4z"/>
</svg>
