<svg width="30" height="30" viewBox="0 0 30 30" xmlns="http://www.w3.org/2000/svg">
  <path fill="context-fill" stroke="context-stroke" stroke-opacity="context-stroke-opacity" stroke-width="1.5" stroke-dasharray="47, 100" d="M0 0h1.5m0 0C9.714.018 13.264 3.745 15 7.967l-.045.105c-.18.447-.342.9-.486 1.36a26.38 26.38 0 0 0-.547 2.047c-.101.45-.19.899-.272 1.337-.08.44-.154.87-.222 1.29-.137.837-.253 1.625-.377 2.335a38.38 38.38 0 0 1-.305 1.547c-.109.5-.225.986-.351 1.455a25.149 25.149 0 0 1-.631 2.004 17.918 17.918 0 0 1-1.05 2.348 14.16 14.16 0 0 1-.966 1.514c-.344.463-.722.9-1.13 1.306a10.525 10.525 0 0 1-1.79 1.414c-.674.422-1.392.77-2.14 1.041a13.21 13.21 0 0 1-1.213.383c-.432.116-.87.212-1.31.29-.47.083-.942.148-1.417.195-.245.024-.494.045-.748.062V0"/>
</svg>
