<svg xmlns="http://www.w3.org/2000/svg" viewBox="0 0 16 16" width="16" height="16" fill="context-fill" fill-opacity="context-fill-opacity">
  <path d="M4 3a2 2 0 0 0-2 2v6H1a1 1 0 0 0 0 2h5.707a5.297 5.297 0 0 1-.049-.709 5.297 5.297 0 0 1 5.297-5.299A5.297 5.297 0 0 1 14 7.404V5a2 2 0 0 0-2-2Z"/>
  <path d="M12.098 8.823c-1.423.007-2.729.726-3.408 1.879V9.497c0-.3-.487-.3-.487 0v2.245c0 .124.109.224.243.224h2.435a.225.225 0 0 0 0-.449H9.344a.413.413 0 0 0 .027-.038c1.137-2.817 5.659-2.062 5.659.94 0 3-4.522 3.756-5.659.939-.235-.544-1.121-.239-.912.314 1.104 2.711 5.056 3.162 6.843.781 1.786-2.381-.064-5.633-3.204-5.63Z"/>
</svg>
