<svg width="16" height="16" viewBox="0 0 16 16" fill="context-fill" fill-opacity="context-fill-opacity" xmlns="http://www.w3.org/2000/svg">
  <path d="M4.5 1c.209 0 .395.129.468.324l3 8a.5.5 0 0 1-.936.352L6.029 7H2.972L1.968 9.676a.5.5 0 1 1-.936-.352l3-8A.5.5 0 0 1 4.5 1Zm0 1.924L3.347 6h2.307L4.5 2.924Zm8.354-.778a.5.5 0 0 0-.707.708L13.293 4H8.5a.5.5 0 0 0 0 1h4.793l-1.146 1.146a.5.5 0 1 0 .707.708l2-2a.502.502 0 0 0 0-.708l-2-2Zm0 8a.5.5 0 0 0-.707.708L13.293 12H1.5a.5.5 0 0 0 0 1h11.793l-1.146 1.146a.5.5 0 1 0 .707.708l2-2a.502.502 0 0 0 0-.708l-2-2Z"/>
</svg>
