<svg width="16" height="16" viewBox="0 0 16 16" fill="context-fill" fill-opacity="context-fill-opacity" xmlns="http://www.w3.org/2000/svg">
  <path d="M2.943 1a.5.5 0 0 1 .464.333l1.774 5a.5.5 0 0 1-.942.334L4.002 6H1.73l-.264.68a.499.499 0 1 1-.932-.36l1.935-5A.502.502 0 0 1 2.943 1Zm-.826 4h1.53l-.732-2.062L2.117 5ZM6.5 1h1.503c.162 0 .603 0 1.008.228.214.121.418.303.564.57.145.265.219.585.219.961 0 .455-.124.81-.321 1.077.149.106.288.246.399.428.162.267.246.594.246.978 0 .751-.352 1.228-.798 1.487A2.205 2.205 0 0 1 8.25 7H6.5a.5.5 0 0 1-.5-.5v-5a.5.5 0 0 1 .5-.5ZM8 2H7v1.5h1.024c.12 0 .33-.023.494-.123.125-.075.276-.221.276-.618 0-.245-.048-.393-.096-.48a.442.442 0 0 0-.177-.179C8.362 2.01 8.158 2 8 2ZM7 4.5V6h1.25c.14 0 .38-.027.567-.136.149-.086.301-.239.301-.622 0-.137-.017-.241-.04-.32a.632.632 0 0 0-.06-.138.476.476 0 0 0-.204-.18c-.195-.097-.441-.104-.628-.104H7Zm8.408-1.971c-.246-.686-.604-1.106-1.053-1.328C13.945 1 13.522 1 13.246 1h-.027c-.554 0-.994.19-1.327.487-.322.288-.521.656-.646.99a4.084 4.084 0 0 0-.242 1.201 1.676 1.676 0 0 0-.003.087L11 3.802v.023c0 .383 0 1.085.249 1.724.131.335.335.669.657.936.325.268.742.445 1.257.503.417.046 1.663.013 2.23-1.246a.499.499 0 1 0-.911-.41c-.293.648-.93.693-1.208.662-.344-.039-.571-.148-.73-.28a1.256 1.256 0 0 1-.363-.528c-.176-.45-.181-.982-.181-1.383V3.79l.003-.059a3.197 3.197 0 0 1 .18-.905c.091-.241.214-.449.375-.593.151-.135.355-.233.661-.233.303 0 .509.008.694.098.157.078.37.257.554.769a.5.5 0 1 0 .941-.338Zm-3.211 7.676a.727.727 0 0 0-.216.341.5.5 0 1 1-.962-.274 1.74 1.74 0 0 1 .516-.817c.308-.271.74-.455 1.311-.455 1.168 0 1.846.854 1.846 1.636 0 .304-.058.776-.38 1.181a1.537 1.537 0 0 1-.138.153 1.475 1.475 0 0 1 .247.267c.176.247.271.549.271.899 0 .63-.212 1.122-.598 1.448-.37.312-.836.416-1.248.416-.387 0-.774-.064-1.109-.276-.344-.219-.573-.554-.712-.977a.5.5 0 1 1 .95-.312c.043.131.092.227.144.298l.015.019a.638.638 0 0 0 .032.038l.015.016.017.016c.025.022.05.041.074.057a.638.638 0 0 0 .136.063c.107.036.248.058.438.058.261 0 .469-.067.603-.18.119-.101.243-.29.243-.684a.53.53 0 0 0-.085-.319.588.588 0 0 0-.234-.18c-.233-.109-.537-.137-.751-.137a.5.5 0 0 1 0-1c.573 0 .804-.175.908-.305.121-.153.162-.362.162-.559 0-.218-.219-.636-.846-.636-.342 0-.536.104-.649.205ZM7 10.864c0-.443.37-.864.835-.864.336 0 .614.157.752.369.123.189.182.495-.07.923-.122.208-.304.39-.543.578a9.128 9.128 0 0 1-.383.282l-.057.04c-.117.083-.241.17-.361.261C6.607 12.879 6 13.463 6 14.5a.5.5 0 0 0 .5.5l.026-.001.025.001h2.642a.5.5 0 0 0 0-1H7.097c.122-.282.355-.505.677-.748.102-.077.208-.152.32-.231l.015-.011.06-.041c.137-.098.283-.202.425-.314.282-.223.573-.496.785-.856.416-.708.404-1.425.046-1.975C9.082 9.297 8.47 9 7.835 9 6.747 9 6 9.943 6 10.864a.5.5 0 0 0 1 0Zm-4.582.87c.206-.138.404-.3.586-.479V14.5a.5.5 0 0 0 1 0v-5a.5.5 0 0 0-.989-.107c-.102.469-.552 1.109-1.152 1.509a.5.5 0 1 0 .555.832Z"/>
</svg>
