<svg width="16" height="16" viewBox="0 0 16 16" fill="context-fill" fill-opacity="context-fill-opacity" xmlns="http://www.w3.org/2000/svg">
  <path d="M11.66 12.422a.6.6 0 0 1-.087.844l-3.198 2.6a.6.6 0 0 1-.756 0l-3.198-2.6a.6.6 0 0 1 .756-.932l2.82 2.293 2.82-2.293a.598.598 0 0 1 .843.088ZM2.342 5.988c.433 0 .765.143.994.428.23.285.347.695.353 1.229v.733c0 .55-.114.971-.342 1.263-.228.292-.561.437-1 .437-.433 0-.765-.143-.995-.429-.229-.286-.347-.696-.352-1.23v-.733c0-.556.115-.978.346-1.266.23-.288.562-.432.996-.432Zm3.21 0c.434 0 .765.143.995.428.229.285.347.695.352 1.229v.733c0 .55-.114.971-.341 1.263-.228.292-.561.437-1 .437-.434 0-.765-.143-.995-.429-.229-.286-.347-.696-.352-1.23v-.733c0-.556.115-.978.345-1.266.231-.288.563-.432.996-.432Zm4.79 0c.434 0 .765.143.995.428.229.285.347.695.352 1.229v.733c0 .55-.114.971-.341 1.263-.228.292-.561.437-1 .437-.434 0-.765-.143-.995-.429-.229-.286-.347-.696-.352-1.23v-.733c0-.556.115-.978.345-1.266.231-.288.563-.432.996-.432Zm3.211 0c.433 0 .765.143.994.428.23.285.347.695.353 1.229v.733c0 .55-.114.971-.342 1.263-.227.292-.561.437-1 .437-.433 0-.765-.143-.994-.429-.23-.286-.347-.696-.353-1.23v-.733c0-.556.115-.978.346-1.266.23-.288.562-.432.996-.432ZM7.997 8.8c.129 0 .236.039.321.118.085.078.127.18.127.306a.392.392 0 0 1-.126.302.456.456 0 0 1-.322.116.456.456 0 0 1-.32-.116.395.395 0 0 1-.125-.302c0-.126.042-.228.127-.306a.447.447 0 0 1 .318-.118ZM2.342 6.628c-.186 0-.323.071-.412.214-.088.144-.135.367-.14.672v.968c0 .324.044.565.132.723.089.158.23.236.425.236.193 0 .333-.075.418-.227.086-.151.13-.382.134-.694v-.946c0-.33-.045-.57-.135-.721-.09-.15-.231-.225-.422-.225Zm3.21 0c-.186 0-.323.071-.411.214-.088.144-.135.367-.141.672v.968c0 .324.044.565.133.723.088.158.23.236.425.236.193 0 .332-.075.418-.227.085-.151.13-.382.134-.694v-.946c0-.33-.045-.57-.136-.721-.09-.15-.23-.225-.422-.225Zm4.79 0c-.186 0-.323.071-.411.214-.088.144-.135.367-.141.672v.968c0 .324.044.565.133.723.088.158.23.236.425.236.193 0 .332-.075.418-.227.085-.151.13-.382.134-.694v-.946c0-.33-.045-.57-.136-.721-.09-.15-.231-.225-.422-.225Zm3.211 0c-.186 0-.323.071-.411.214-.074.12-.119.295-.135.526l-.006.146v.968c0 .324.044.565.132.723.089.158.23.236.425.236.193 0 .333-.075.418-.227.072-.126.115-.307.129-.545l.005-.149v-.946c0-.33-.045-.57-.135-.721-.09-.15-.231-.225-.422-.225Zm-5.556-.067c.129 0 .236.039.321.117a.397.397 0 0 1 .127.306.395.395 0 0 1-.126.303.456.456 0 0 1-.322.116.456.456 0 0 1-.32-.116.397.397 0 0 1-.125-.303c0-.125.042-.228.127-.306a.45.45 0 0 1 .318-.117ZM4.421 2.734l3.198-2.6a.599.599 0 0 1 .679-.053l.077.053 3.198 2.6a.6.6 0 0 1-.683.983l-.073-.051-2.82-2.293-2.82 2.293a.6.6 0 0 1-.82-.871l.064-.061 3.198-2.6-3.198 2.6Z"/>
</svg>