<svg width="16" height="16" viewBox="0 0 16 16" fill="context-fill" fill-opacity="context-fill-opacity" xmlns="http://www.w3.org/2000/svg">
  <path d="M9.709 7.344h-1.84a.477.477 0 0 0-.337.813l2.555 2.554a.477.477 0 0 0 .673 0l2.554-2.554c.3-.3.088-.813-.337-.813h-1.84V4.548h.002v-1.19h-.002v-.786H9.71v.785h-.003v1.19h.004v2.797z"/>
  <path d="M13.714 3.357h-1.146v1.19h1.146c.329 0 .596.267.596.596v7.619a.595.595 0 0 1-.596.595H2.286a.595.595 0 0 1-.596-.595V3.238c0-.328.267-.595.596-.595h3.47a.6.6 0 0 1 .442.197l1.36 1.51A.593.593 0 0 0 8 4.548h.277v-1.19h-.012L7.082 2.042a1.79 1.79 0 0 0-1.328-.59H2.286C1.3 1.452.5 2.252.5 3.237v9.524c0 .985.801 1.786 1.786 1.786h11.428c.985 0 1.786-.801 1.786-1.786v-7.62c0-.984-.801-1.785-1.786-1.785z"/>
</svg>
