<svg width="16" height="16" viewBox="0 0 16 16" fill="context-fill" fill-opacity="context-fill-opacity" xmlns="http://www.w3.org/2000/svg">
  <path d="M4 2.969v.655H1.8c-.994 0-1.8.881-1.8 1.969v7.438C0 14.118.806 15 1.8 15h12.4c.994 0 1.8-.882 1.8-1.969V5.593c0-1.088-.806-1.969-1.8-1.969H12v-.655C12 1.882 11.194 1 10.2 1H5.8C4.806 1 4 1.882 4 2.969Zm1.8-.656h4.4c.331 0 .6.294.6.656v.655H5.2v-.655c0-.362.269-.656.6-.656ZM4 4.939h1.2v-.002h5.6v.002H12v-.002h2.2c.331 0 .6.294.6.656v1.97h-2.4v-.657c0-.362-.269-.656-.6-.656-.331 0-.6.294-.6.656v.657H4.8v-.657c0-.362-.269-.656-.6-.656-.331 0-.6.294-.6.656v.657H1.2v-1.97c0-.362.269-.656.6-.656H4v.002Zm7.2 3.937V9.97c0 .362.269.656.6.656.331 0 .6-.294.6-.656V8.876h2.4v4.155c0 .362-.269.656-.6.656H1.8c-.331 0-.6-.294-.6-.656V8.876h2.4V9.97c0 .362.269.656.6.656.331 0 .6-.294.6-.656V8.876h6.4Z"/>
</svg>