<?xml version="1.0" encoding="utf-8"?>
<!-- This Source Code Form is subject to the terms of the Mozilla Public
   - License, v. 2.0. If a copy of the MPL was not distributed with this
   - file, You can obtain one at http://mozilla.org/MPL/2.0/. -->
<svg xmlns="http://www.w3.org/2000/svg" viewBox="0 0 60 60">
  <defs>
    <linearGradient id="gradient" gradientUnits="userSpaceOnUse" x1="0" y1="30" x2="60" y2="30">
      <stop offset="0" style="stop-color: #fd6b0c"/>
      <stop offset="1" style="stop-color: #e65206"/>
    </linearGradient>
  </defs>
  <path fill="url(#gradient)" d="M45.844,41.272c0.018-0.08,0.039-0.156,0.055-0.239c0.097-0.35,0.164-0.735,0.215-1.136 c0.375-0.835,0.747-2.172,0.5-3.936c-0.021-0.326-0.073-0.669-0.14-1.018c4.957-3.957,24.499-20.957,5.137-29.039 c0,0,4.23,6.9-2.898,13.92c-4.332,4.266-5.37,8.436-5.058,11.538c0,0,0.036,0.21,0.096,0.564c-1.62-2.178-5.652-4.53-14.256-2.022 c-8.736,2.544-7.476,4.518-9.234,3.606c0,0-0.93-2.166-3.564-4.452c0,0,0.726-4.416-0.42-5.472 c-1.146-1.062-2.628,2.244-5.346,3.432c-2.712,1.188-6.234,2.928-6.57,6.024l-3.39,2.328c0,0-1.446,0.684-0.81,1.32 c0.636,0.636,1.698,1.44,3.012,1.314c1.314-0.126,2.928-0.51,4.158-0.168c1.23,0.336,2.202,2.67,4.872,6.102 c0,0,2.142,4.542,6.936,5.412c0.036,0.024,0.072,0.054,0.108,0.078c1.404,1.026,4.584,3.336,5.148,3.834 c0.744,0.636,7.422,1.158,9.486,0.474c0,0-0.6-3.408-5.04-1.944c0,0-2.082,0.078-4.59-2.892c0.228-0.072,0.456-0.156,0.69-0.252 c1.056-0.402,2.184-0.966,3.39-1.728c0,0,1.542-0.774,3.846-1.356c0,0,2.497-0.555,4.376,0.455c2.542,1.829,6.483,2.442,12.58-0.566 c0,0,5.357,5.102,7.575,8.644c0,0,4.916-1.89-5.065-11.76C51.643,42.336,47.455,42.801,45.844,41.272z"/>
</svg>
