<!-- This Source Code Form is subject to the terms of the Mozilla Public
   - License, v. 2.0. If a copy of the MPL was not distributed with this
   - file, You can obtain one at http://mozilla.org/MPL/2.0/. -->
<svg xmlns="http://www.w3.org/2000/svg" viewBox="0 0 16 16" width="16" height="16" fill="context-fill" fill-opacity="context-fill-opacity">
  <path d="M13 1 3 1a2 2 0 0 0-2 2l0 9a2 2 0 0 0 2 2l10 0a2 2 0 0 0 2-2l0-9a2 2 0 0 0-2-2zM2.85 2.25l10.3 0 .6.6 0 2.15-11.5 0 0-2.15.6-.6zm10.3 10.5-10.3 0-.6-.6 0-5.9 11.5 0 0 5.9-.6.6z"/>
</svg>
