<!-- may be protected as a trademark in some jurisdictions -->
<svg xmlns="http://www.w3.org/2000/svg" width="135" height="40" xml:space="preserve"><path fill="#A6A6A6" d="M130.197 40H4.729A4.74 4.74 0 0 1 0 35.267V4.726A4.733 4.733 0 0 1 4.729 0h125.468C132.803 0 135 2.12 135 4.726v30.541c0 2.605-2.197 4.733-4.803 4.733z"/><path d="M134.032 35.268a3.83 3.83 0 0 1-3.834 3.83H4.729a3.835 3.835 0 0 1-3.839-3.83V4.725A3.84 3.84 0 0 1 4.729.89h125.468a3.834 3.834 0 0 1 3.834 3.835l.001 30.543z"/><g fill="#FFF"><path d="M30.129 19.783c-.029-3.223 2.639-4.791 2.761-4.864-1.511-2.203-3.853-2.504-4.676-2.528-1.967-.207-3.875 1.177-4.877 1.177-1.022 0-2.565-1.157-4.228-1.123-2.14.033-4.142 1.272-5.24 3.196-2.266 3.923-.576 9.688 1.595 12.859 1.086 1.553 2.355 3.287 4.016 3.225 1.625-.066 2.232-1.035 4.193-1.035 1.943 0 2.513 1.035 4.207.996 1.744-.027 2.842-1.559 3.89-3.127 1.255-1.779 1.759-3.533 1.779-3.623-.041-.013-3.387-1.289-3.42-5.153zM26.929 10.306c.874-1.093 1.472-2.58 1.306-4.089-1.265.056-2.847.875-3.758 1.944-.806.942-1.526 2.486-1.34 3.938 1.421.105 2.88-.717 3.792-1.793z"/></g><g fill="#FFF"><path d="M53.681 31.502H51.41l-1.244-3.908h-4.324l-1.185 3.908h-2.211l4.284-13.307h2.646l4.305 13.307zm-3.889-5.548-1.125-3.475c-.119-.355-.342-1.191-.671-2.508h-.04a98.725 98.725 0 0 1-.632 2.508l-1.105 3.475h3.573zM64.698 26.586c0 1.633-.441 2.922-1.323 3.869-.79.844-1.771 1.264-2.942 1.264-1.264 0-2.172-.453-2.725-1.361h-.04v5.055h-2.132V25.066c0-1.027-.027-2.08-.079-3.16h1.875l.119 1.521h.04c.711-1.146 1.79-1.719 3.238-1.719 1.132 0 2.077.447 2.833 1.343s1.136 2.074 1.136 3.535zm-2.172.079c0-.935-.21-1.704-.632-2.31-.461-.633-1.08-.948-1.856-.948-.526 0-1.004.175-1.431.523a2.42 2.42 0 0 0-.839 1.372c-.066.264-.099.48-.099.651v1.6c0 .698.214 1.286.642 1.767s.984.721 1.668.721c.803 0 1.428-.309 1.875-.928s.672-1.434.672-2.448zM75.736 26.586c0 1.633-.441 2.922-1.324 3.869-.789.844-1.77 1.264-2.941 1.264-1.264 0-2.172-.453-2.725-1.361h-.039v5.055h-2.132V25.066c0-1.027-.027-2.08-.079-3.16h1.875l.119 1.521h.04c.711-1.146 1.79-1.719 3.239-1.719 1.131 0 2.076.447 2.834 1.343.754.896 1.133 2.074 1.133 3.535zm-2.172.079c0-.935-.211-1.704-.633-2.31-.461-.633-1.078-.948-1.855-.948-.527 0-1.004.175-1.432.523s-.708.806-.839 1.372c-.065.264-.099.48-.099.651v1.6c0 .698.214 1.286.641 1.767.428.48.984.721 1.67.721.803 0 1.428-.309 1.875-.928s.672-1.434.672-2.448zM88.076 27.771c0 1.131-.395 2.053-1.182 2.764-.867.777-2.076 1.164-3.625 1.164-1.432 0-2.582-.275-3.449-.828l.494-1.777c.934.566 1.961.85 3.08.85.805 0 1.43-.182 1.877-.545.447-.361.672-.848.672-1.453 0-.541-.186-.996-.553-1.365-.369-.369-.98-.711-1.836-1.028-2.33-.87-3.496-2.142-3.496-3.816 0-1.094.408-1.991 1.225-2.69s1.902-1.048 3.258-1.048c1.211 0 2.219.211 3.021.632l-.533 1.738c-.75-.408-1.6-.612-2.547-.612-.75 0-1.336.185-1.758.553a1.58 1.58 0 0 0-.533 1.204c0 .527.205.961.613 1.303.355.316 1 .658 1.934 1.027 1.146.461 1.988 1 2.527 1.619.542.617.811 1.387.811 2.308zM95.123 23.506h-2.35v4.66c0 1.184.416 1.777 1.244 1.777.383 0 .697-.033.949-.1l.059 1.619c-.422.158-.975.236-1.658.236-.844 0-1.502-.256-1.975-.77-.475-.514-.711-1.375-.711-2.586v-4.838h-1.402v-1.6h1.402v-1.757l2.092-.632v2.389h2.35v1.602zM105.727 26.625c0 1.475-.422 2.686-1.264 3.633-.881.975-2.053 1.461-3.514 1.461-1.41 0-2.531-.467-3.367-1.4-.836-.936-1.254-2.113-1.254-3.535 0-1.486.432-2.705 1.293-3.652.863-.947 2.025-1.422 3.486-1.422 1.408 0 2.539.468 3.395 1.402.816.908 1.225 2.079 1.225 3.513zm-2.211.07c0-.885-.191-1.645-.572-2.277-.447-.766-1.086-1.148-1.916-1.148-.855 0-1.508.383-1.955 1.148-.381.633-.572 1.405-.572 2.316 0 .885.191 1.645.572 2.277.461.766 1.105 1.148 1.936 1.148.816 0 1.455-.391 1.916-1.168.393-.645.591-1.412.591-2.296zM112.656 23.782a3.591 3.591 0 0 0-.67-.06c-.752 0-1.33.283-1.738.85-.355.5-.533 1.133-.533 1.896v5.034h-2.133l.02-6.574c0-1.105-.025-2.113-.078-3.021h1.855l.08 1.836h.059c.223-.631.578-1.138 1.066-1.52a2.574 2.574 0 0 1 1.539-.514c.197 0 .375.014.533.039v2.034zM122.193 26.25c0 .383-.027.705-.08.968h-6.396c.025.948.336 1.673.928 2.173.539.447 1.238.67 2.094.67.947 0 1.809-.15 2.586-.453l.336 1.48c-.908.395-1.982.592-3.219.592-1.488 0-2.656-.438-3.504-1.312-.85-.875-1.273-2.051-1.273-3.524 0-1.448.395-2.652 1.184-3.613.83-1.026 1.949-1.54 3.357-1.54 1.381 0 2.428.514 3.139 1.54.565.815.848 1.822.848 3.019zm-2.033-.553c.012-.631-.127-1.178-.416-1.639-.367-.592-.934-.889-1.697-.889-.697 0-1.264.29-1.697.869-.355.461-.566 1.014-.633 1.658h4.443z"/></g><g fill="#FFF"><path d="M47.427 13.432h-3.715V6.894h1.048v5.655h2.667v.883zM52.365 13.432h-.941l-.077-.543h-.029c-.323.433-.782.65-1.377.65-.446 0-.806-.143-1.077-.427a1.338 1.338 0 0 1-.368-.96c0-.576.24-1.015.723-1.319.481-.304 1.159-.453 2.032-.446V10.3c0-.621-.326-.931-.978-.931-.465 0-.875.117-1.229.349l-.214-.69c.438-.271.979-.407 1.617-.407 1.233 0 1.85.65 1.85 1.95v1.736a7.25 7.25 0 0 0 .068 1.125zm-1.087-1.62v-.727c-1.157-.02-1.735.297-1.735.95 0 .246.067.43.202.553a.73.73 0 0 0 .511.184c.231 0 .445-.073.642-.218a.889.889 0 0 0 .38-.742zM58.32 13.432h-.931l-.049-.757h-.029c-.297.576-.802.864-1.513.864-.569 0-1.041-.223-1.416-.669s-.562-1.025-.562-1.736c0-.763.203-1.381.61-1.853.395-.44.88-.66 1.455-.66.634 0 1.077.213 1.329.64h.02V6.554h1.048v5.607c0 .459.012.882.038 1.271zm-1.086-1.989v-.786a1.189 1.189 0 0 0-.409-.965 1.028 1.028 0 0 0-.701-.257c-.39 0-.696.155-.921.466-.224.311-.336.708-.336 1.193 0 .466.107.844.322 1.135.227.31.532.465.915.465.344 0 .62-.129.828-.388.201-.239.302-.527.302-.863zM64.025 10.852c0 .188-.014.346-.039.475h-3.143c.013.466.164.821.455 1.067.266.22.608.33 1.028.33.466 0 .89-.074 1.271-.223l.164.728c-.446.194-.973.291-1.581.291-.73 0-1.305-.215-1.722-.645s-.625-1.007-.625-1.731c0-.711.193-1.303.582-1.775.407-.504.956-.756 1.648-.756.679 0 1.193.252 1.542.756.28.4.42.894.42 1.483zm-1-.272a1.427 1.427 0 0 0-.203-.805c-.182-.291-.459-.437-.834-.437a.997.997 0 0 0-.835.427 1.577 1.577 0 0 0-.31.815h2.182zM69.641 13.432h-1.048v-2.7c0-.832-.316-1.248-.95-1.248a.946.946 0 0 0-.757.343 1.217 1.217 0 0 0-.291.808v2.796h-1.048v-3.366c0-.414-.013-.863-.038-1.349h.921l.049.737h.029c.122-.229.304-.418.543-.569.284-.176.602-.265.95-.265.44 0 .806.142 1.097.427.361.349.543.87.543 1.562v2.824zM75.479 7.311a.599.599 0 0 1-.184.456.66.66 0 0 1-.475.175.598.598 0 0 1-.441-.179c-.121-.12-.18-.27-.18-.451s.061-.33.184-.446.275-.176.457-.176c.18 0 .332.059.455.175s.184.265.184.446zm-.116 6.121h-1.049V8.717h1.049v4.715zM83.977 13.432H82.95V10.79c0-.871-.299-1.306-.893-1.306a.827.827 0 0 0-.684.324 1.182 1.182 0 0 0-.258.759v2.864h-1.027v-2.777c0-.355-.074-.639-.219-.852-.146-.213-.361-.319-.645-.319a.848.848 0 0 0-.699.348 1.25 1.25 0 0 0-.271.793v2.806h-1.029v-3.366c0-.414-.012-.863-.037-1.349h.9l.049.717h.029c.324-.542.803-.814 1.436-.814.641 0 1.074.294 1.301.882h.02c.148-.246.332-.443.553-.591.277-.194.598-.291.959-.291.422 0 .768.142 1.039.427.336.355.504.886.504 1.591v2.796z"/></g></svg>
