<!-- may be protected as a trademark in some jurisdictions -->
<svg xmlns="http://www.w3.org/2000/svg" width="135" height="40" xml:space="preserve"><path fill="#A6A6A6" d="M130.197 40H4.729A4.74 4.74 0 0 1 0 35.267V4.726A4.733 4.733 0 0 1 4.729 0h125.468C132.803 0 135 2.12 135 4.726v30.541c0 2.605-2.197 4.733-4.803 4.733z"/><path d="M134.032 35.268a3.83 3.83 0 0 1-3.834 3.83H4.729a3.835 3.835 0 0 1-3.839-3.83V4.725A3.84 3.84 0 0 1 4.729.89h125.468a3.834 3.834 0 0 1 3.834 3.835l.001 30.543z"/><g fill="#FFF"><path d="M30.133 19.784c-.029-3.223 2.639-4.791 2.761-4.864-1.511-2.203-3.853-2.504-4.676-2.528-1.967-.207-3.875 1.177-4.877 1.177-1.022 0-2.565-1.157-4.228-1.123-2.14.033-4.142 1.272-5.24 3.196-2.266 3.923-.576 9.688 1.595 12.859 1.086 1.553 2.355 3.287 4.016 3.226 1.625-.067 2.232-1.036 4.193-1.036 1.943 0 2.513 1.036 4.207.997 1.744-.028 2.842-1.56 3.89-3.127 1.255-1.78 1.759-3.533 1.779-3.623-.04-.014-3.386-1.291-3.42-5.154zM26.933 10.306c.874-1.093 1.472-2.58 1.306-4.089-1.265.056-2.847.875-3.758 1.944-.806.942-1.526 2.486-1.34 3.938 1.421.106 2.88-.717 3.792-1.793z"/></g><g fill="#FFF"><path d="M53.649 31.504h-2.271l-1.244-3.909H45.81l-1.185 3.909h-2.211l4.284-13.308h2.646l4.305 13.308zm-3.89-5.549-1.125-3.475c-.119-.355-.342-1.191-.671-2.507h-.04a96.75 96.75 0 0 1-.632 2.507l-1.105 3.475h3.573zM64.666 26.588c0 1.632-.441 2.922-1.323 3.869-.79.843-1.771 1.264-2.942 1.264-1.264 0-2.172-.454-2.725-1.362h-.04v5.055h-2.132V25.067c0-1.026-.027-2.079-.079-3.159H57.3l.119 1.521h.04c.711-1.146 1.79-1.718 3.238-1.718 1.132 0 2.077.447 2.833 1.342.758.896 1.136 2.074 1.136 3.535zm-2.172.078c0-.934-.21-1.704-.632-2.31-.461-.632-1.08-.948-1.856-.948-.526 0-1.004.176-1.431.523-.428.35-.708.807-.839 1.373-.066.264-.099.48-.099.65v1.6c0 .698.214 1.287.642 1.768s.984.721 1.668.721c.803 0 1.428-.31 1.875-.928.448-.619.672-1.435.672-2.449zM75.703 26.588c0 1.632-.441 2.922-1.324 3.869-.789.843-1.77 1.264-2.941 1.264-1.264 0-2.172-.454-2.724-1.362h-.039v5.055h-2.132V25.067c0-1.026-.027-2.079-.079-3.159h1.875l.119 1.521h.04c.71-1.146 1.789-1.718 3.238-1.718 1.131 0 2.076.447 2.834 1.342.754.896 1.133 2.074 1.133 3.535zm-2.172.078c0-.934-.211-1.704-.633-2.31-.461-.632-1.078-.948-1.855-.948a2.22 2.22 0 0 0-1.432.523c-.428.35-.707.807-.838 1.373-.065.264-.099.48-.099.65v1.6c0 .698.214 1.287.64 1.768.428.48.984.721 1.67.721.803 0 1.428-.31 1.875-.928.448-.619.672-1.435.672-2.449zM88.043 27.772c0 1.132-.393 2.053-1.182 2.764-.867.777-2.074 1.165-3.625 1.165-1.432 0-2.58-.276-3.449-.829l.494-1.777c.936.566 1.963.85 3.082.85.803 0 1.428-.182 1.877-.544.447-.362.67-.848.67-1.454 0-.54-.184-.995-.553-1.364-.367-.369-.98-.712-1.836-1.029-2.33-.869-3.494-2.142-3.494-3.816 0-1.094.408-1.991 1.225-2.689.814-.699 1.9-1.048 3.258-1.048 1.211 0 2.217.211 3.02.632l-.533 1.738c-.75-.408-1.598-.612-2.547-.612-.75 0-1.336.185-1.756.553a1.58 1.58 0 0 0-.533 1.205c0 .526.203.961.611 1.303.355.316 1 .658 1.936 1.027 1.145.461 1.986 1 2.527 1.618.538.616.808 1.387.808 2.307zM95.092 23.508h-2.35v4.659c0 1.185.414 1.777 1.244 1.777.381 0 .697-.033.947-.099l.059 1.619c-.42.157-.973.236-1.658.236-.842 0-1.5-.257-1.975-.77-.473-.514-.711-1.376-.711-2.587v-4.837h-1.4v-1.6h1.4v-1.757l2.094-.632v2.389h2.35v1.602zM105.695 26.627c0 1.475-.422 2.686-1.264 3.633-.883.975-2.055 1.461-3.516 1.461-1.408 0-2.529-.467-3.365-1.401s-1.254-2.113-1.254-3.534c0-1.487.43-2.705 1.293-3.652.861-.948 2.023-1.422 3.484-1.422 1.408 0 2.541.467 3.396 1.402.818.907 1.226 2.078 1.226 3.513zm-2.213.069c0-.885-.189-1.644-.572-2.277-.447-.766-1.086-1.148-1.914-1.148-.857 0-1.508.383-1.955 1.148-.383.634-.572 1.405-.572 2.317 0 .885.189 1.644.572 2.276.461.766 1.105 1.148 1.936 1.148.814 0 1.453-.39 1.914-1.168.394-.645.591-1.412.591-2.296zM112.625 23.783a3.702 3.702 0 0 0-.672-.059c-.75 0-1.33.283-1.738.85-.355.5-.533 1.132-.533 1.895v5.035h-2.131l.02-6.574c0-1.106-.027-2.113-.08-3.021h1.857l.078 1.836h.059c.225-.631.58-1.139 1.066-1.52a2.578 2.578 0 0 1 1.541-.514c.197 0 .375.014.533.039v2.033zM122.16 26.252a5 5 0 0 1-.078.967h-6.396c.025.948.334 1.673.928 2.173.539.447 1.236.671 2.092.671.947 0 1.811-.151 2.588-.454l.334 1.48c-.908.396-1.98.593-3.217.593-1.488 0-2.656-.438-3.506-1.313-.848-.875-1.273-2.05-1.273-3.524 0-1.447.395-2.652 1.186-3.613.828-1.026 1.947-1.539 3.355-1.539 1.383 0 2.43.513 3.141 1.539.563.815.846 1.823.846 3.02zm-2.033-.553c.014-.632-.125-1.178-.414-1.639-.369-.593-.936-.889-1.699-.889-.697 0-1.264.289-1.697.869-.355.461-.566 1.014-.631 1.658h4.441z"/></g><g fill="#FFF"><path d="M47.424 11.6c0 .557-.193 1.009-.58 1.358-.426.381-1.02.572-1.781.572-.703 0-1.269-.136-1.694-.408l.242-.873c.46.278.964.417 1.515.417.395 0 .701-.089.922-.268a.87.87 0 0 0 .329-.714.91.91 0 0 0-.271-.67c-.181-.181-.481-.35-.901-.505-1.145-.427-1.717-1.052-1.717-1.875 0-.538.2-.978.601-1.321.401-.343.935-.515 1.601-.515.595 0 1.09.104 1.484.311l-.262.854a2.573 2.573 0 0 0-1.252-.301c-.368 0-.656.091-.863.271a.779.779 0 0 0-.262.592.8.8 0 0 0 .301.64c.175.155.491.324.951.504.562.227.976.492 1.241.795.264.305.396.683.396 1.136zM52.39 8.845l-.203.795a2.062 2.062 0 0 0-.912-.194c-.459 0-.823.154-1.092.461-.268.307-.402.697-.402 1.169 0 .498.141.892.422 1.183s.639.437 1.072.437c.323 0 .64-.064.95-.194l.146.786c-.343.162-.775.243-1.3.243-.718 0-1.29-.218-1.717-.655s-.64-1.02-.64-1.751c0-.73.229-1.331.688-1.799s1.076-.703 1.853-.703c.44-.001.819.073 1.135.222zM57.356 13.433h-.941l-.077-.543h-.029c-.323.433-.782.65-1.377.65-.446 0-.806-.143-1.077-.427a1.338 1.338 0 0 1-.368-.96c0-.576.24-1.015.723-1.319.481-.304 1.159-.453 2.032-.446V10.3c0-.621-.326-.931-.978-.931-.465 0-.875.117-1.229.349l-.213-.688c.438-.271.979-.407 1.617-.407 1.233 0 1.85.65 1.85 1.95v1.736c-.001.471.022.846.067 1.124zm-1.087-1.62v-.727c-1.157-.02-1.735.297-1.735.95 0 .246.067.43.202.553a.73.73 0 0 0 .511.184c.231 0 .445-.073.642-.218a.889.889 0 0 0 .38-.742zM61.615 9.641a1.74 1.74 0 0 0-.33-.029c-.368 0-.652.139-.854.417-.174.246-.262.556-.262.931v2.474h-1.048l.01-3.23c0-.543-.013-1.038-.038-1.484h.911l.039.902h.029c.109-.311.284-.56.523-.747.233-.168.485-.252.757-.252.097 0 .185.006.262.019v.999zM64.117 7.312a.603.603 0 0 1-.184.456.661.661 0 0 1-.476.175.611.611 0 0 1-.621-.63c0-.181.062-.33.185-.446s.274-.175.456-.175a.64.64 0 0 1 .456.175.586.586 0 0 1 .184.445zM64 13.433h-1.048V8.719H64v4.714zM69.229 8.845l-.203.795a2.066 2.066 0 0 0-.913-.194c-.459 0-.823.154-1.092.461-.268.307-.402.697-.402 1.169 0 .498.141.892.422 1.183s.639.437 1.072.437c.323 0 .64-.064.95-.194l.146.786c-.343.162-.776.243-1.3.243-.718 0-1.29-.218-1.717-.655s-.64-1.02-.64-1.751c0-.73.229-1.331.688-1.799s1.076-.703 1.853-.703c.44-.001.819.073 1.136.222zM74.193 13.433h-.941l-.076-.543h-.029c-.324.433-.783.65-1.377.65-.447 0-.807-.143-1.078-.427a1.337 1.337 0 0 1-.367-.96c0-.576.24-1.015.723-1.319.48-.304 1.158-.453 2.031-.446V10.3c0-.621-.326-.931-.977-.931-.465 0-.875.117-1.23.349l-.213-.688c.439-.271.979-.407 1.617-.407 1.234 0 1.85.65 1.85 1.95v1.736c-.001.471.022.846.067 1.124zm-1.086-1.62v-.727c-1.158-.02-1.736.297-1.736.95 0 .246.068.43.203.553a.728.728 0 0 0 .51.184c.232 0 .445-.073.643-.218a.898.898 0 0 0 .38-.742zM81.672 12.079c0 .438-.16.79-.484 1.055-.322.265-.77.397-1.338.397-.537 0-.992-.107-1.367-.32l.223-.776c.361.22.746.33 1.154.33.537 0 .805-.197.805-.592a.584.584 0 0 0-.174-.432c-.117-.113-.324-.225-.621-.334-.842-.311-1.262-.763-1.262-1.358 0-.407.156-.747.465-1.019.311-.271.723-.407 1.232-.407.467 0 .863.095 1.193.285l-.223.752a1.854 1.854 0 0 0-.961-.271c-.219 0-.391.052-.514.155a.495.495 0 0 0-.184.397c0 .161.064.293.193.396.109.097.322.203.641.319.816.31 1.222.784 1.222 1.423zM87.309 13.433h-.922l-.059-.718h-.02c-.33.55-.828.825-1.494.825-.465 0-.836-.146-1.115-.437-.33-.356-.494-.893-.494-1.61V8.719h1.047v2.6c0 .906.311 1.358.932 1.358.467 0 .789-.226.971-.679.045-.116.068-.249.068-.398V8.719h1.047v3.356c0 .446.013.899.039 1.358z"/></g></svg>
