<svg xmlns="http://www.w3.org/2000/svg">

<rect x="0" y="0" width="50" height="50" fill="#ACCC10"/>
<rect x="50" y="0" width="50" height="50" fill="#B4B43F"/>
<rect x="100" y="0" width="50" height="50" fill="#DFDF3F"/>
<rect x="150" y="0" width="50" height="50" fill="#B4B43F"/>
<rect x="200" y="0" width="50" height="50" fill="#DFDF3F"/>
<rect x="250" y="0" width="50" height="50" fill="#DFB43F"/>
<rect x="300" y="0" width="50" height="50" fill="#DFB43F"/>
<rect x="350" y="0" width="50" height="50" fill="#DFB43F"/>
<rect x="0" y="50" width="50" height="50" fill="#E0B440"/>
<rect x="50" y="50" width="50" height="50" fill="#DFB43F"/>
<rect x="100" y="50" width="50" height="50" fill="#DFDF3F"/>
<rect x="150" y="50" width="50" height="50" fill="#DFDF3F"/>
<rect x="200" y="50" width="50" height="50" fill="#B4CC3F"/>
<rect x="250" y="50" width="50" height="50" fill="#DFB43F"/>
<rect x="300" y="50" width="50" height="50" fill="#B4CC3F"/>
<rect x="350" y="50" width="50" height="50" fill="#DFC88D"/>
</svg>
