<!-- This Source Code Form is subject to the terms of the Mozilla Public
   - License, v. 2.0. If a copy of the MPL was not distributed with this
   - file, You can obtain one at http://mozilla.org/MPL/2.0/. -->
<svg width="50" height="57" xmlns="http://www.w3.org/2000/svg"><defs><linearGradient x1="13.375%" y1="0%" x2="86.625%" y2="100%" id="a"><stop stop-color="#9059FF" offset="0%"/><stop stop-color="#0250BB" offset="100%"/></linearGradient></defs><g fill="none" fill-rule="evenodd"><path d="M43.436 34.835c.173 1.234.01 1.996-.491 2.286L23.723 48.218c-.749.433-1.745.113-2.225-.718L3.975 17.148c-.479-.828-.258-1.853.49-2.285L23.688 3.765c.751-.434 1.747-.11 2.225.718l17.524 30.352zM33.89 49.232l4.619-2.667-1.616-2.8-4.619 2.668 1.616 2.799zM2.738 11.289C.191 12.76-.43 16.453 1.351 19.538l19.382 33.571c1.78 3.085 5.29 4.393 7.838 2.923l18.487-10.674c2.547-1.47 3.169-5.164 1.388-8.249L29.063 3.538C27.283.453 23.773-.855 21.226.615L2.738 11.29z" fill-opacity=".8" fill="#0C0C0D"/><path d="M5.5 5.088c0 2.234-.067 3.795 0 4.537.036 2.173.751 4.28 2.045 6.025A5.807 5.807 0 0011 17.857a5.804 5.804 0 003.454-2.207A10.411 10.411 0 0016.5 9.625c.067-.742 0-2.303 0-4.537L11 4.146l-5.5.942zM11 20.633l-.154-.016A8.585 8.585 0 015.33 17.28a12.733 12.733 0 01-2.476-7.269C2.75 8.858 2.75 6.325 2.75 4.916a2.537 2.537 0 012.1-2.506L11 1.354l6.148 1.056a2.537 2.537 0 012.102 2.507c0 1.407 0 3.94-.11 5.094a12.732 12.732 0 01-2.475 7.269 8.585 8.585 0 01-5.516 3.337l-.149.016zm0-14.395l-3.438.589c.013 1.295.042 2.275.086 2.75A7.927 7.927 0 009.2 14.43a3.692 3.692 0 001.788 1.296H11V6.238z" transform="rotate(-30 44.99 -4.856)" fill="url(#a)"/></g></svg>
