<!-- This Source Code Form is subject to the terms of the Mozilla Public
   - License, v. 2.0. If a copy of the MPL was not distributed with this
   - file, You can obtain one at http://mozilla.org/MPL/2.0/. -->
<svg width="16" height="16" viewBox="0 0 16 16" fill="none" xmlns="http://www.w3.org/2000/svg">
<g clip-path="url(#clip0_84_46)">
<path d="M5.77778 7.11111C7.496 7.11111 8.88889 5.71822 8.88889 4C8.88889 2.28178 7.496 0.888885 5.77778 0.888885C4.05956 0.888885 2.66667 2.28178 2.66667 4C2.66667 5.71822 4.05956 7.11111 5.77778 7.11111Z" fill="black"/>
<path d="M13.5556 9.68178C14.8453 9.33245 15.7333 8.00534 15.3573 6.54312C15.1307 5.66489 14.4462 4.98045 13.568 4.75378C13.3369 4.69423 13.1093 4.66667 12.8889 4.66667C11.4773 4.66667 10.3333 5.81067 10.3333 7.22223C10.3333 8.40178 11.136 9.38401 12.2222 9.67912V15.1111H13.5556V14.2222H15.1111V12.4444H13.5556V9.68178ZM11.6667 7.22223C11.6667 6.54845 12.2151 6.00001 12.8889 6.00001C13.0018 6.00001 13.1182 6.01512 13.2347 6.04534C13.6418 6.15023 13.96 6.46845 14.0658 6.87645C14.2044 7.41423 13.9938 7.792 13.856 7.96978C13.6222 8.27112 13.2693 8.44445 12.8889 8.44445C12.2151 8.44445 11.6667 7.89601 11.6667 7.22223Z" fill="black"/>
<path d="M11.1111 10.4178C10.2604 9.94578 9.63111 9.15112 9.36444 8.22223H3.55556C1.592 8.22223 0 9.81423 0 11.7778V14.4445H11.1111V10.4178Z" fill="black"/>
</g>
<defs>
<clipPath id="clip0_84_46">
<rect width="16" height="16" fill="white"/>
</clipPath>
</defs>
</svg>
