<!-- This Source Code Form is subject to the terms of the Mozilla Public
   - License, v. 2.0. If a copy of the MPL was not distributed with this
   - file, You can obtain one at http://mozilla.org/MPL/2.0/. -->
<svg viewBox="0 0 64 64" xmlns="http://www.w3.org/2000/svg" xmlns:xlink="http://www.w3.org/1999/xlink"><linearGradient id="a" gradientUnits="userSpaceOnUse" x1="42.17" x2="15.57" y1="7.69" y2="53.76"><stop offset="0" stop-color="#ff9640"/><stop offset=".6" stop-color="#fc4055"/><stop offset="1" stop-color="#e31587"/></linearGradient><linearGradient id="b" gradientUnits="userSpaceOnUse" x1="42.17" x2="15.57" y1="7.69" y2="53.76"><stop offset="0" stop-color="#fff36e" stop-opacity=".8"/><stop offset=".09" stop-color="#fff36e" stop-opacity=".7"/><stop offset=".75" stop-color="#fff36e" stop-opacity="0"/></linearGradient><linearGradient id="c" gradientUnits="userSpaceOnUse" x1="43.57" x2="24.77" y1="42.61" y2="17.26"><stop offset="0" stop-color="#b833e1"/><stop offset=".37" stop-color="#9059ff"/><stop offset=".61" stop-color="#5b6df8"/><stop offset="1" stop-color="#0090ed"/></linearGradient><linearGradient id="d" gradientUnits="userSpaceOnUse" x1="37.17" x2="32.45" y1="45.92" y2="39.83"><stop offset="0" stop-color="#722291" stop-opacity=".5"/><stop offset=".5" stop-color="#722291" stop-opacity="0"/></linearGradient><path d="m37 34.26h.33zm10.8-23.59a21.78 21.78 0 0 0 -37.51 15.33c0 11.43 17.61 30.89 19.62 33.07a2.85 2.85 0 0 0 4.19-3.85 143.67 143.67 0 0 1 -9.23-11.32c-7.74-10.58-8.87-15.75-8.87-17.9a16.09 16.09 0 0 1 27.66-11.38 15.62 15.62 0 0 1 4.34 11.53c-.17 4.54-4.73 11.71-9.15 17.22l-1.55 1.63a3.6 3.6 0 0 1 -5.08-.75c1.2 1.48 2.54 3.07 4 4.77a3.51 3.51 0 0 0 2.65 1.2 3.51 3.51 0 0 0 2.73-1.22c2.77-3.23 11.81-14.4 12.11-22.64a21.25 21.25 0 0 0 -5.95-15.69zm-13.14 20.33a.28.28 0 0 0 0 .09 2.13 2.13 0 0 1 .11-.5 1.89 1.89 0 0 0 -.11.41z" fill="url(#a)"/><path d="m37 34.26h.33zm10.8-23.59a21.78 21.78 0 0 0 -37.51 15.33c0 11.43 17.61 30.89 19.62 33.07a2.85 2.85 0 0 0 4.19-3.85 143.67 143.67 0 0 1 -9.23-11.32c-7.74-10.58-8.87-15.75-8.87-17.9a16.09 16.09 0 0 1 27.66-11.38 15.62 15.62 0 0 1 4.34 11.53c-.17 4.54-4.73 11.71-9.15 17.22l-1.55 1.63a3.6 3.6 0 0 1 -5.08-.75c1.2 1.48 2.54 3.07 4 4.77a3.51 3.51 0 0 0 2.65 1.2 3.51 3.51 0 0 0 2.73-1.22c2.77-3.23 11.81-14.4 12.11-22.64a21.25 21.25 0 0 0 -5.95-15.69zm-13.14 20.33a.28.28 0 0 0 0 .09 2.13 2.13 0 0 1 .11-.5 1.89 1.89 0 0 0 -.11.41z" fill="url(#b)"/><path d="m37.3 45a3.59 3.59 0 0 1 -5.08-.75l-.22-.25c-8.1-10-9.57-14.91-9.8-16.67a9.59 9.59 0 0 1 2.39-7.73 9.93 9.93 0 0 1 7.69-3.23 9.63 9.63 0 0 1 7 3.32 10.45 10.45 0 0 1 2.53 7.87 10.56 10.56 0 0 1 -2 5.53 2.83 2.83 0 0 1 -5.15-1.26 2.8 2.8 0 0 1 .69-2.23 5.54 5.54 0 0 0 .76-2.6 4.78 4.78 0 0 0 -1.11-3.57 4 4 0 0 0 -2.88-1.38 4.21 4.21 0 0 0 -3.28 1.36 3.87 3.87 0 0 0 -1 3.15c.43 3.15 5.75 10.55 11.05 16.81z" fill="url(#c)"/><path d="m28.57 39.51c1 1.37 2.12 2.85 3.43 4.48l.22.27a3.59 3.59 0 0 0 5.08.74l1.58-1.64c-2.18-2.58-4.37-5.36-6.22-7.95z" fill="url(#d)"/></svg>
