<!-- This Source Code Form is subject to the terms of the Mozilla Public
   - License, v. 2.0. If a copy of the MPL was not distributed with this
   - file, You can obtain one at http://mozilla.org/MPL/2.0/. -->
<svg xmlns="http://www.w3.org/2000/svg" viewBox="0 0 64 64"><defs><radialGradient id="a" cx="32.06" cy="29.49" fx="53.493" fy="9.619" r="31.22" gradientUnits="userSpaceOnUse"><stop offset=".26" stop-color="#7542e5"/><stop offset=".43" stop-color="#7243e5"/><stop offset=".56" stop-color="#6845e4"/><stop offset=".68" stop-color="#574ae3"/><stop offset=".8" stop-color="#3f50e2"/><stop offset=".91" stop-color="#2158e1"/><stop offset="1" stop-color="#0060df"/></radialGradient></defs><path d="M56 13.57a6.52 6.52 0 0 0-5.43-6.45L32 4 13.43 7.12A6.52 6.52 0 0 0 8 13.57c0 4.25 0 11.89.33 15.33.91 9.88 2.76 15.29 7.32 21.45a24.94 24.94 0 0 0 16 9.63L32 60h.33a24.94 24.94 0 0 0 16-9.63c4.56-6.16 6.41-11.57 7.32-21.45.35-3.47.35-11.11.35-15.35zm-6.31 14.78c-.81 8.85-2.25 13.15-6.16 18.42A19.25 19.25 0 0 1 32 54a19.17 19.17 0 0 1-11.53-7.19c-3.91-5.27-5.35-9.58-6.16-18.42C14.09 26 14 20.64 14 13.58a.55.55 0 0 1 .43-.55L32 10l17.57 3a.55.55 0 0 1 .43.55c0 7.08-.09 12.45-.31 14.8zm-29.41-.55c.78 8.5 2.12 11.5 5 15.4A13 13 0 0 0 32 47.79V16.13l-12 2c0 4.6.13 8.06.28 9.67z" fill="url(#a)"/></svg>
