<!-- This Source Code Form is subject to the terms of the Mozilla Public
   - License, v. 2.0. If a copy of the MPL was not distributed with this
   - file, You can obtain one at http://mozilla.org/MPL/2.0/. -->
<svg width="188" height="188" xmlns="http://www.w3.org/2000/svg">
  <path d="M94 19.6c-7.953 0-14.4 6.447-14.4 14.4S86.047 48.4 94 48.4s14.4-6.447 14.4-14.4-6.447-14.4-14.4-14.4zM60.4 34C60.4 15.443 75.443.4 94 .4c18.557 0 33.6 15.043 33.6 33.6 0 18.557-15.043 33.6-33.6 33.6a33.45 33.45 0 01-15.985-4.039L63.561 78.015A33.397 33.397 0 0166.21 84.4h55.582c4.131-13.88 16.988-24 32.209-24 18.557 0 33.6 15.043 33.6 33.6 0 18.557-15.043 33.6-33.6 33.6a33.452 33.452 0 01-15.985-4.039l-14.454 14.454A33.452 33.452 0 01127.6 154c0 18.557-15.043 33.6-33.6 33.6-18.557 0-33.6-15.043-33.6-33.6 0-18.557 15.043-33.6 33.6-33.6a33.452 33.452 0 0115.985 4.039l14.454-14.454a33.37 33.37 0 01-2.648-6.385H66.209c-4.131 13.879-16.988 24-32.209 24C15.443 127.6.4 112.557.4 94 .4 75.443 15.443 60.4 34 60.4a33.45 33.45 0 0115.985 4.039l14.454-14.454A33.45 33.45 0 0160.4 34zm19.2 120c0-7.953 6.447-14.4 14.4-14.4s14.4 6.447 14.4 14.4-6.447 14.4-14.4 14.4-14.4-6.447-14.4-14.4zM34 79.6c-7.953 0-14.4 6.447-14.4 14.4s6.447 14.4 14.4 14.4 14.4-6.447 14.4-14.4S41.953 79.6 34 79.6zM139.6 94c0-7.953 6.447-14.4 14.4-14.4s14.4 6.447 14.4 14.4-6.447 14.4-14.4 14.4-14.4-6.447-14.4-14.4z" fill="#000" fill-rule="evenodd"/>
</svg>
