<svg id="Layer_1" data-name="Layer 1" xmlns="http://www.w3.org/2000/svg" xmlns:xlink="http://www.w3.org/1999/xlink" viewBox="0 0 256 70"><defs><style>.cls-1{fill:url(#radial-gradient);}.cls-2{fill:#cdcdd4;opacity:0.15;}.cls-3{fill:url(#linear-gradient);}.cls-4{fill:url(#linear-gradient-2);}.cls-5{fill:#cc3d00;}.cls-6{fill:url(#linear-gradient-3);}.cls-7{fill:url(#linear-gradient-4);}.cls-8{fill:url(#linear-gradient-5);}.cls-9{fill:url(#linear-gradient-6);}.cls-10{fill:url(#linear-gradient-7);}</style><radialGradient id="radial-gradient" cx="143.54" cy="81.07" r="146.71" gradientTransform="translate(0 24.46) scale(1 0.7)" gradientUnits="userSpaceOnUse"><stop offset="0.08" stop-color="#cdcdd4" stop-opacity="0"/><stop offset="0.36" stop-color="#cdcdd4" stop-opacity="0.02"/><stop offset="0.65" stop-color="#cdcdd4" stop-opacity="0.08"/><stop offset="0.94" stop-color="#cdcdd4" stop-opacity="0.18"/><stop offset="1" stop-color="#cdcdd4" stop-opacity="0.2"/></radialGradient><linearGradient id="linear-gradient" x1="-1068.38" y1="60.76" x2="-1119.19" y2="9.95" gradientTransform="matrix(-1, 0, 0, 1, -1043.81, 0)" gradientUnits="userSpaceOnUse"><stop offset="0" stop-color="#ffd567"/><stop offset="1" stop-color="#fff361"/></linearGradient><linearGradient id="linear-gradient-2" x1="-1144.21" y1="-15.08" x2="-1026.95" y2="102.18" gradientTransform="matrix(-1, 0, 0, 1, -1043.81, 0)" gradientUnits="userSpaceOnUse"><stop offset="0.4" stop-color="#ffd567"/><stop offset="0.86" stop-color="#ffc456"/><stop offset="1" stop-color="#ffbd4f"/></linearGradient><linearGradient id="linear-gradient-3" x1="21.26" y1="-19.95" x2="85.41" y2="44.2" gradientUnits="userSpaceOnUse"><stop offset="0.25" stop-color="#ffd567"/><stop offset="1" stop-color="#ffa436"/></linearGradient><linearGradient id="linear-gradient-4" x1="2.02" y1="-0.71" x2="66.17" y2="63.44" xlink:href="#linear-gradient-3"/><linearGradient id="linear-gradient-5" x1="16.77" y1="-15.46" x2="80.92" y2="48.69" xlink:href="#linear-gradient-3"/><linearGradient id="linear-gradient-6" x1="9.32" y1="-8.02" x2="73.47" y2="56.13" xlink:href="#linear-gradient-3"/><linearGradient id="linear-gradient-7" x1="-0.86" y1="2.17" x2="63.29" y2="66.32" xlink:href="#linear-gradient-3"/></defs><title>fx-fenix_error_9</title><path class="cls-1" d="M4.45,35.06A23.24,23.24,0,0,1,27.6,11.73l174.6-.5a23.25,23.25,0,1,1,.18,46.49l-174.59.5A23.25,23.25,0,0,1,4.45,35.06Z"/><path class="cls-2" d="M216.79,21.81a8,8,0,0,1-7.92,8H177.05a6.08,6.08,0,0,1,0-12.16,5.76,5.76,0,0,1,1.45.19,6.62,6.62,0,0,1-.16-1.41,6.28,6.28,0,0,1,9.81-5.17,10.53,10.53,0,0,1,20.72,2.65A8,8,0,0,1,216.79,21.81Z"/><path class="cls-2" d="M152.39,26.36a8.76,8.76,0,0,0-2.19.27,9.31,9.31,0,0,0,.24-2.12,9.45,9.45,0,0,0-14.78-7.79,15.88,15.88,0,0,0-31.24,4,11.93,11.93,0,1,0,0,23.85h48a9.11,9.11,0,1,0,0-18.21Z"/><path class="cls-3" d="M50.44,3.88a31,31,0,0,1,31,31c0,.42,0,.85,0,1.27a3.67,3.67,0,0,1-.52,7.31h-.66A31,31,0,1,1,50.44,3.88Z"/><path class="cls-4" d="M19.43,36.16c0-.42,0-.85,0-1.27A30.88,30.88,0,0,1,28,13.52,31.87,31.87,0,0,0,71.8,57.37,31,31,0,0,1,20.62,43.48h-.7a3.68,3.68,0,0,1-.49-7.32Z"/><circle class="cls-5" cx="55.56" cy="46.16" r="4.02"/><path class="cls-5" d="M69,34.2v-3a3.39,3.39,0,1,0-6.78,0v3Z"/><path class="cls-6" d="M69.63,25.48h-8a1.07,1.07,0,0,1,0-2.14h8a1.07,1.07,0,1,1,0,2.14Z"/><path class="cls-7" d="M55.51,54.31a5.27,5.27,0,0,1-2.2-.49,1.06,1.06,0,1,1,.91-1.92,3,3,0,0,0,2.66,0,1.07,1.07,0,0,1,1,1.91A5.28,5.28,0,0,1,55.51,54.31Z"/><path class="cls-8" d="M69,34.45H62.27a1.07,1.07,0,1,1,0-2.13H69a1.07,1.07,0,0,1,0,2.13Z"/><path class="cls-9" d="M38.8,16.35a1,1,0,0,1,.7.27,1.06,1.06,0,0,1,.08,1.5,6.44,6.44,0,0,1-4.82,2.17h0a6.44,6.44,0,0,1-4.82-2.17,1.06,1.06,0,1,1,1.6-1.4,4.34,4.34,0,0,0,3.22,1.45h0A4.27,4.27,0,0,0,38,16.72,1,1,0,0,1,38.8,16.35Z"/><path class="cls-5" d="M34.77,25.45a3.4,3.4,0,0,1,3.41,3.4v7.64c0,1.88-1.52,2.1-3.41,2.1h0c-1.88,0-3.4-.22-3.4-2.1V28.85a3.4,3.4,0,0,1,3.4-3.4Z"/><path class="cls-10" d="M38.16,38.9h-6.7a1.07,1.07,0,1,1,0-2.13h6.7a1.07,1.07,0,1,1,0,2.13Z"/></svg>