<svg id="Layer_1" data-name="Layer 1" xmlns="http://www.w3.org/2000/svg" xmlns:xlink="http://www.w3.org/1999/xlink" viewBox="0 0 256 70"><defs><style>.cls-1{fill:url(#radial-gradient);}.cls-2{fill:#cdcdd4;opacity:0.15;}.cls-3{fill:url(#linear-gradient);}.cls-4{fill:url(#linear-gradient-2);}.cls-5{fill:#cc3d00;}.cls-6{fill:url(#linear-gradient-3);}.cls-7{fill:url(#linear-gradient-4);}.cls-8{fill:url(#linear-gradient-5);}.cls-9{fill:url(#linear-gradient-6);}.cls-10{fill:#ffbd4f;}.cls-11{fill:url(#linear-gradient-7);}</style><radialGradient id="radial-gradient" cx="143.54" cy="81.07" r="146.71" gradientTransform="translate(0 24.46) scale(1 0.7)" gradientUnits="userSpaceOnUse"><stop offset="0.08" stop-color="#cdcdd4" stop-opacity="0"/><stop offset="0.36" stop-color="#cdcdd4" stop-opacity="0.02"/><stop offset="0.65" stop-color="#cdcdd4" stop-opacity="0.08"/><stop offset="0.94" stop-color="#cdcdd4" stop-opacity="0.18"/><stop offset="1" stop-color="#cdcdd4" stop-opacity="0.2"/></radialGradient><linearGradient id="linear-gradient" x1="76.3" y1="61.03" x2="25.49" y2="10.22" gradientTransform="matrix(-1, 0, 0, 1, 100.19, 0)" gradientUnits="userSpaceOnUse"><stop offset="0" stop-color="#ffd567"/><stop offset="1" stop-color="#fff361"/></linearGradient><linearGradient id="linear-gradient-2" x1="0.47" y1="-14.81" x2="117.73" y2="102.46" gradientTransform="matrix(-1, 0, 0, 1, 100.19, 0)" gradientUnits="userSpaceOnUse"><stop offset="0.4" stop-color="#ffd567"/><stop offset="0.86" stop-color="#ffc456"/><stop offset="1" stop-color="#ffbd4f"/></linearGradient><linearGradient id="linear-gradient-3" x1="32.96" y1="-14.67" x2="79.83" y2="42.94" gradientUnits="userSpaceOnUse"><stop offset="0.25" stop-color="#ffd567"/><stop offset="1" stop-color="#ffa436"/></linearGradient><linearGradient id="linear-gradient-4" x1="12.99" y1="1.58" x2="59.86" y2="59.19" xlink:href="#linear-gradient-3"/><linearGradient id="linear-gradient-5" x1="6.75" y1="6.72" x2="53.62" y2="64.33" xlink:href="#linear-gradient-3"/><linearGradient id="linear-gradient-6" x1="28.56" y1="-11.09" x2="75.43" y2="46.52" xlink:href="#linear-gradient-3"/><linearGradient id="linear-gradient-7" x1="47.79" y1="16.87" x2="1.03" y2="63.63" gradientUnits="userSpaceOnUse"><stop offset="0" stop-color="#ff7139"/><stop offset="0.22" stop-color="#ff624a"/><stop offset="0.66" stop-color="#ff3c75"/><stop offset="0.86" stop-color="#ff298a"/></linearGradient></defs><title>fx-fenix_error_1</title><path class="cls-1" d="M4.45,35.06A23.24,23.24,0,0,1,27.6,11.73l174.6-.5a23.25,23.25,0,1,1,.18,46.49l-174.59.5A23.25,23.25,0,0,1,4.45,35.06Z"/><path class="cls-2" d="M109.55,21.81a8,8,0,0,1-7.91,8H69.81a6.08,6.08,0,0,1,0-12.16,5.84,5.84,0,0,1,1.46.19,6,6,0,0,1-.17-1.41,6.28,6.28,0,0,1,9.81-5.17,10.54,10.54,0,0,1,20.73,2.65A7.94,7.94,0,0,1,109.55,21.81Z"/><path class="cls-2" d="M234.35,42.44a9.25,9.25,0,0,0-2.19.27,9.84,9.84,0,0,0,.24-2.12,9.45,9.45,0,0,0-14.79-7.78,15.87,15.87,0,0,0-31.23,4,11.93,11.93,0,1,0,0,23.85h48a9.11,9.11,0,0,0,0-18.21Z"/><path class="cls-3" d="M49.76,4.15a31,31,0,0,1,31,31c0,.42,0,.84,0,1.26a3.67,3.67,0,0,1-.52,7.31h-.66A31,31,0,1,1,49.76,4.15Z"/><path class="cls-4" d="M18.75,36.43q0-.63,0-1.26A30.86,30.86,0,0,1,27.27,13.8,31.88,31.88,0,0,0,71.12,57.65,31,31,0,0,1,19.94,43.76h-.7a3.68,3.68,0,0,1-3.68-3.69A3.64,3.64,0,0,1,18.75,36.43Z"/><circle class="cls-5" cx="55.16" cy="46.74" r="4.02"/><path class="cls-5" d="M33.61,20.86a5.19,5.19,0,0,1,5.2,5.2V37.74c0,2.88-2.32,3.22-5.2,3.22h0c-2.88,0-5.2-.34-5.2-3.22V26.06a5.19,5.19,0,0,1,5.2-5.2Z"/><path class="cls-5" d="M68.61,34.77v-3a3.4,3.4,0,0,0-6.79,0v3Z"/><path class="cls-6" d="M69.23,26.05h-8a1.07,1.07,0,1,1,0-2.13h8a1.07,1.07,0,0,1,0,2.13Z"/><path class="cls-7" d="M55.11,54.88a5.34,5.34,0,0,1-2.21-.49,1.06,1.06,0,0,1,.92-1.92,3,3,0,0,0,2.66,0,1.07,1.07,0,0,1,1,1.91A5.2,5.2,0,0,1,55.11,54.88Z"/><path class="cls-8" d="M38.79,41.44H28.54a1.64,1.64,0,1,1,0-3.27H38.79a1.64,1.64,0,1,1,0,3.27Z"/><path class="cls-9" d="M68.55,35H61.87a1.07,1.07,0,0,1,0-2.14h6.68a1.07,1.07,0,1,1,0,2.14Z"/><path class="cls-5" d="M45.84,19a17.33,17.33,0,0,0-26.09,22.7l-2.67,2.67,3.39,3.39,2.67-2.67A17.33,17.33,0,0,0,45.84,19ZM33.58,45.43a14.15,14.15,0,0,1-13.42-9.69l.06.27a14.14,14.14,0,0,1,23.3-14.77l0,0a14.14,14.14,0,0,1-10,24.17Z"/><path class="cls-10" d="M24,23A14.14,14.14,0,0,1,47.33,28.2a14.11,14.11,0,1,0-27.17,7.54A14.13,14.13,0,0,1,24,23Z"/><g id="Layer_5" data-name="Layer 5"><path class="cls-11" d="M2.62,62h0C1,60.34.44,58.29,1.31,57.44L16.62,43.82c.88-.85,2.3-.82,3.89.83h0c1.6,1.64,1.58,3.06.7,3.91L7.13,63.44C6.25,64.29,4.22,63.63,2.62,62Z"/></g><polygon class="cls-5" points="4.41 54.82 10.06 60.47 16.88 53.04 11.84 47.99 4.41 54.82"/></svg>