<svg id="Layer_1" data-name="Layer 1" xmlns="http://www.w3.org/2000/svg" xmlns:xlink="http://www.w3.org/1999/xlink" viewBox="0 0 256 70"><defs><style>.cls-1{fill:url(#radial-gradient);}.cls-2{fill:#cdcdd4;opacity:0.15;}.cls-3{fill:url(#linear-gradient);}.cls-4{fill:url(#linear-gradient-2);}.cls-5{fill:url(#linear-gradient-3);}.cls-6{fill:url(#linear-gradient-4);}.cls-7{fill:url(#linear-gradient-5);}.cls-8{fill:url(#linear-gradient-6);}.cls-9{fill:#cc3d00;}.cls-10{fill:url(#linear-gradient-7);}.cls-11{fill:url(#linear-gradient-8);}</style><radialGradient id="radial-gradient" cx="143.54" cy="81.07" r="146.71" gradientTransform="translate(0 24.46) scale(1 0.7)" gradientUnits="userSpaceOnUse"><stop offset="0.08" stop-color="#cdcdd4" stop-opacity="0"/><stop offset="0.36" stop-color="#cdcdd4" stop-opacity="0.02"/><stop offset="0.65" stop-color="#cdcdd4" stop-opacity="0.08"/><stop offset="0.94" stop-color="#cdcdd4" stop-opacity="0.18"/><stop offset="1" stop-color="#cdcdd4" stop-opacity="0.2"/></radialGradient><linearGradient id="linear-gradient" x1="75.94" y1="61.05" x2="25.13" y2="10.24" gradientTransform="matrix(-1, 0, 0, 1, 100.19, 0)" gradientUnits="userSpaceOnUse"><stop offset="0" stop-color="#ffd567"/><stop offset="1" stop-color="#fff361"/></linearGradient><linearGradient id="linear-gradient-2" x1="0.1" y1="-14.79" x2="117.37" y2="102.48" gradientTransform="matrix(-1, 0, 0, 1, 100.19, 0)" gradientUnits="userSpaceOnUse"><stop offset="0.4" stop-color="#ffd567"/><stop offset="0.86" stop-color="#ffc456"/><stop offset="1" stop-color="#ffbd4f"/></linearGradient><linearGradient id="linear-gradient-3" x1="26.98" y1="-14.71" x2="82.12" y2="43.5" gradientUnits="userSpaceOnUse"><stop offset="0.25" stop-color="#ffd567"/><stop offset="1" stop-color="#ffa436"/></linearGradient><linearGradient id="linear-gradient-4" x1="13.11" y1="-1.58" x2="68.26" y2="56.63" xlink:href="#linear-gradient-3"/><linearGradient id="linear-gradient-5" x1="20.19" y1="-8.28" x2="75.33" y2="49.93" xlink:href="#linear-gradient-3"/><linearGradient id="linear-gradient-6" x1="4.78" y1="6.32" x2="59.92" y2="64.53" xlink:href="#linear-gradient-3"/><linearGradient id="linear-gradient-7" x1="4.86" y1="6.24" x2="60.01" y2="64.45" xlink:href="#linear-gradient-3"/><linearGradient id="linear-gradient-8" x1="58.01" y1="29.76" x2="89.14" y2="-1.37" gradientUnits="userSpaceOnUse"><stop offset="0.26" stop-color="#e31587"/><stop offset="0.63" stop-color="#ff298a"/><stop offset="1" stop-color="#ff8a50"/></linearGradient></defs><title>fx-fenix_error_4</title><path class="cls-1" d="M4.45,35.06A23.24,23.24,0,0,1,27.6,11.73l174.6-.5a23.25,23.25,0,1,1,.18,46.49l-174.59.5A23.25,23.25,0,0,1,4.45,35.06Z"/><path class="cls-2" d="M105,57A8,8,0,0,1,97,65H65.22a6.08,6.08,0,0,1,0-12.15,6.26,6.26,0,0,1,1.45.18,6.48,6.48,0,0,1-.16-1.41,6.26,6.26,0,0,1,9.81-5.16A10.53,10.53,0,0,1,97,49.09,8,8,0,0,1,105,57Z"/><path class="cls-2" d="M203.71,26.36a8.76,8.76,0,0,0-2.19.27,9.31,9.31,0,0,0,.24-2.12A9.45,9.45,0,0,0,187,16.72a15.88,15.88,0,0,0-31.24,4,11.93,11.93,0,1,0,0,23.85h48a9.11,9.11,0,0,0,0-18.21Z"/><path class="cls-3" d="M50.12,4.18a31,31,0,0,1,31,31c0,.42,0,.84,0,1.26a3.68,3.68,0,0,1-.52,7.32h-.66A31,31,0,1,1,50.12,4.18Z"/><path class="cls-4" d="M19.11,36.45q0-.63,0-1.26a30.86,30.86,0,0,1,8.55-21.37A31.88,31.88,0,0,0,71.48,57.67,31,31,0,0,1,20.3,43.78h-.7a3.68,3.68,0,0,1-.49-7.33Z"/><path class="cls-5" d="M65.62,28.93h0a6.44,6.44,0,0,1-4.83-2.16,1.07,1.07,0,0,1,1.61-1.41,4.28,4.28,0,0,0,3.22,1.45h0a4.28,4.28,0,0,0,3.22-1.45,1.06,1.06,0,0,1,1.58,1.42A6.4,6.4,0,0,1,65.62,28.93Z"/><path class="cls-6" d="M30.65,22.26A1,1,0,0,1,30,22a1.07,1.07,0,0,1-.09-1.51,6.49,6.49,0,0,1,4.83-2.16h0a6.47,6.47,0,0,1,4.82,2.16,1.06,1.06,0,0,1-.1,1.51,1.05,1.05,0,0,1-1.5-.1,4.35,4.35,0,0,0-3.22-1.45h0a4.25,4.25,0,0,0-3.22,1.45A1.14,1.14,0,0,1,30.65,22.26Z"/><path class="cls-7" d="M65.52,41.54A8.19,8.19,0,0,1,62,40.76a1.16,1.16,0,0,1-.55-1.54A1.15,1.15,0,0,1,63,38.68a6,6,0,0,0,5.19-.07,1.15,1.15,0,0,1,1.55.52,1.16,1.16,0,0,1-.52,1.54A8.44,8.44,0,0,1,65.52,41.54Z"/><path class="cls-8" d="M50,56a8.2,8.2,0,0,1-3.49-.79,1.15,1.15,0,1,1,1-2.08,6,6,0,0,0,5.18-.07,1.16,1.16,0,1,1,1,2.07A8.55,8.55,0,0,1,50,56Z"/><path class="cls-9" d="M59.5,47.07a1.29,1.29,0,0,0-1.81.25,4.07,4.07,0,0,1-6.56,0,6.66,6.66,0,0,0-10.68,0,1.3,1.3,0,1,0,2.07,1.56,4.06,4.06,0,0,1,6.55,0h0a6.65,6.65,0,0,0,5.34,2.69h0a6.67,6.67,0,0,0,5.34-2.69A1.31,1.31,0,0,0,59.5,47.07Z"/><path class="cls-9" d="M34.67,25.17a3.38,3.38,0,0,1,3.4,3.4V36.2c0,1.89-1.51,1.17-3.4,1.17h0c-1.88,0-3.4.72-3.4-1.17V28.57a3.4,3.4,0,0,1,3.4-3.4Z"/><path class="cls-9" d="M70.27,34.5a1.07,1.07,0,0,0-.1-.39,4.87,4.87,0,0,0-9.08,0,1,1,0,0,0-.1.39A1.43,1.43,0,0,0,63.37,36a3,3,0,0,1,2.27-1h0a3,3,0,0,1,2.28,1,1.44,1.44,0,0,0,2,.11A1.46,1.46,0,0,0,70.27,34.5Z"/><path class="cls-10" d="M31.58,38.92a1.15,1.15,0,0,1-.51-2.18,8.2,8.2,0,0,1,7.2-.1,1.15,1.15,0,1,1-1,2.08,6,6,0,0,0-5.19.07A1.25,1.25,0,0,1,31.58,38.92Z"/><path class="cls-11" d="M83.74,7c0,5.59-6.21,5.21-6.21,9.08v0a.81.81,0,0,1-.81.81H73.33a.81.81,0,0,1-.81-.81v-.23c0-6,5.46-5.59,5.46-8.39,0-1.21-.9-1.93-2.39-1.93A5.14,5.14,0,0,0,72,7.1a.79.79,0,0,1-1,.05L68.75,5.41a.81.81,0,0,1-.09-1.2,10,10,0,0,1,7.49-3.07C81.22,1.14,83.74,3.87,83.74,7Zm-5.52,16.2A3.15,3.15,0,1,1,75.07,20,3.13,3.13,0,0,1,78.22,23.15Z"/></svg>