<svg id="Layer_1" data-name="Layer 1" xmlns="http://www.w3.org/2000/svg" xmlns:xlink="http://www.w3.org/1999/xlink" viewBox="0 0 256 70"><defs><style>.cls-1{fill:url(#linear-gradient);}.cls-2{fill:url(#radial-gradient);}.cls-3{fill:#cdcdd4;opacity:0.15;}.cls-4{fill:url(#linear-gradient-2);}.cls-5{fill:#ededf0;}.cls-6{fill:url(#linear-gradient-3);}.cls-7{fill:url(#linear-gradient-4);}.cls-8{clip-path:url(#clip-path);}.cls-9{fill:url(#linear-gradient-6);}.cls-10{fill:url(#linear-gradient-7);}.cls-11{fill:url(#linear-gradient-8);}.cls-12{fill:url(#linear-gradient-9);}.cls-13{fill:url(#linear-gradient-10);}.cls-14{fill:url(#linear-gradient-11);}.cls-15{fill:url(#linear-gradient-12);}.cls-16{fill:url(#linear-gradient-13);}.cls-17{fill:url(#linear-gradient-14);}.cls-18{fill:url(#linear-gradient-15);}.cls-19{fill:url(#linear-gradient-16);}.cls-20{fill:url(#linear-gradient-17);}.cls-21{fill:url(#linear-gradient-18);}.cls-22{fill:url(#linear-gradient-19);}.cls-23{fill:url(#linear-gradient-20);}.cls-24{fill:url(#linear-gradient-21);}.cls-25{fill:url(#linear-gradient-22);}.cls-26{fill:url(#linear-gradient-23);}.cls-27{fill:url(#linear-gradient-24);}.cls-28{fill:url(#linear-gradient-25);}.cls-29{fill:url(#linear-gradient-26);}.cls-30{fill:url(#linear-gradient-27);}.cls-31{fill:url(#linear-gradient-28);}.cls-32{fill:url(#linear-gradient-29);}.cls-33{fill:url(#linear-gradient-30);}.cls-34{fill:url(#linear-gradient-31);}.cls-35{fill:url(#linear-gradient-32);}.cls-36{fill:url(#linear-gradient-33);}.cls-37{fill:url(#linear-gradient-34);}.cls-38{fill:url(#linear-gradient-35);}.cls-39{fill:url(#linear-gradient-36);}.cls-40{fill:url(#linear-gradient-37);}.cls-41{fill:url(#linear-gradient-38);}.cls-42{fill:url(#linear-gradient-39);}.cls-43{fill:url(#linear-gradient-40);}.cls-44{fill:url(#linear-gradient-41);}.cls-45{fill:url(#linear-gradient-42);}.cls-46{fill:url(#linear-gradient-43);}.cls-47{fill:url(#linear-gradient-44);}.cls-48{fill:url(#linear-gradient-45);}.cls-49{fill:url(#linear-gradient-46);}.cls-50{fill:url(#linear-gradient-47);}.cls-51{fill:url(#linear-gradient-48);}.cls-52{fill:url(#linear-gradient-49);}.cls-53{fill:url(#linear-gradient-50);}.cls-54{fill:url(#linear-gradient-51);}.cls-55{fill:url(#linear-gradient-52);}.cls-56{fill:url(#linear-gradient-53);}.cls-57{fill:url(#linear-gradient-54);}.cls-58{fill:url(#linear-gradient-55);}.cls-59{fill:url(#linear-gradient-56);}.cls-60{fill:url(#linear-gradient-57);}.cls-61{fill:url(#linear-gradient-58);}.cls-62{fill:url(#linear-gradient-59);}.cls-63{fill:url(#linear-gradient-60);}.cls-64{fill:url(#linear-gradient-61);}.cls-65{fill:url(#linear-gradient-62);}.cls-66{fill:url(#linear-gradient-63);}.cls-67{fill:url(#linear-gradient-64);}.cls-68{fill:url(#linear-gradient-65);}.cls-69{fill:url(#linear-gradient-66);}.cls-70{fill:url(#linear-gradient-67);}.cls-71{fill:url(#linear-gradient-68);}.cls-72{fill:#ffbd4f;}.cls-73{fill:#cc3d00;}</style><linearGradient id="linear-gradient" x1="70.63" y1="-19.77" x2="143.74" y2="53.34" gradientUnits="userSpaceOnUse"><stop offset="0.44" stop-color="#ff8a50"/><stop offset="0.91" stop-color="#ff298a"/></linearGradient><radialGradient id="radial-gradient" cx="143.54" cy="81.07" r="146.71" gradientTransform="translate(0 24.46) scale(1 0.7)" gradientUnits="userSpaceOnUse"><stop offset="0.08" stop-color="#cdcdd4" stop-opacity="0"/><stop offset="0.36" stop-color="#cdcdd4" stop-opacity="0.02"/><stop offset="0.65" stop-color="#cdcdd4" stop-opacity="0.08"/><stop offset="0.94" stop-color="#cdcdd4" stop-opacity="0.18"/><stop offset="1" stop-color="#cdcdd4" stop-opacity="0.2"/></radialGradient><linearGradient id="linear-gradient-2" x1="89.14" y1="29.87" x2="133.56" y2="-24.13" gradientUnits="userSpaceOnUse"><stop offset="0.07" stop-color="#e31587"/><stop offset="0.29" stop-color="#ff298a"/><stop offset="0.7" stop-color="#ff8a50"/></linearGradient><linearGradient id="linear-gradient-3" x1="44.2" y1="6.66" x2="117.31" y2="79.77" xlink:href="#linear-gradient"/><linearGradient id="linear-gradient-4" x1="62.2" y1="-11.34" x2="135.31" y2="61.77" xlink:href="#linear-gradient"/><clipPath id="clip-path"><path class="cls-1" d="M98.33,21.53l13.6-13.6a1.66,1.66,0,0,1,2.35,0h0a1.66,1.66,0,0,1,0,2.35l-.45.45a2.88,2.88,0,0,1,.34.27l6,6.06a3.65,3.65,0,0,1,.49,4.56,1,1,0,0,0,.14,1.24,4.67,4.67,0,0,1,1,5.09l4.31,5.79a2.12,2.12,0,0,1-.43,3,2.08,2.08,0,0,1-1.27.42,2.13,2.13,0,0,1-1.71-.85L119,31.16a4.66,4.66,0,0,1-5.69-.7,1,1,0,0,0-1.25-.14,3.66,3.66,0,0,1-4.56-.49l-6.06-6.06a2.24,2.24,0,0,1-.27-.34l-.45.45a1.66,1.66,0,0,1-2.35,0h0A1.68,1.68,0,0,1,98.33,21.53Z"/></clipPath><linearGradient id="linear-gradient-6" x1="85.1" y1="-34.24" x2="158.21" y2="38.87" xlink:href="#linear-gradient"/><linearGradient id="linear-gradient-7" x1="84.82" y1="-33.96" x2="157.93" y2="39.15" xlink:href="#linear-gradient"/><linearGradient id="linear-gradient-8" x1="84.53" y1="-33.67" x2="157.64" y2="39.44" xlink:href="#linear-gradient"/><linearGradient id="linear-gradient-9" x1="84.24" y1="-33.38" x2="157.35" y2="39.73" xlink:href="#linear-gradient"/><linearGradient id="linear-gradient-10" x1="83.94" y1="-33.08" x2="157.05" y2="40.02" xlink:href="#linear-gradient"/><linearGradient id="linear-gradient-11" x1="83.65" y1="-32.79" x2="156.76" y2="40.32" xlink:href="#linear-gradient"/><linearGradient id="linear-gradient-12" x1="83.36" y1="-32.5" x2="156.47" y2="40.61" xlink:href="#linear-gradient"/><linearGradient id="linear-gradient-13" x1="83.07" y1="-32.21" x2="156.18" y2="40.9" xlink:href="#linear-gradient"/><linearGradient id="linear-gradient-14" x1="82.77" y1="-31.91" x2="155.88" y2="41.19" xlink:href="#linear-gradient"/><linearGradient id="linear-gradient-15" x1="82.48" y1="-31.62" x2="155.59" y2="41.49" xlink:href="#linear-gradient"/><linearGradient id="linear-gradient-16" x1="82.19" y1="-31.33" x2="155.3" y2="41.78" xlink:href="#linear-gradient"/><linearGradient id="linear-gradient-17" x1="81.9" y1="-31.04" x2="155.01" y2="42.07" xlink:href="#linear-gradient"/><linearGradient id="linear-gradient-18" x1="81.6" y1="-30.74" x2="154.71" y2="42.36" xlink:href="#linear-gradient"/><linearGradient id="linear-gradient-19" x1="81.31" y1="-30.45" x2="154.42" y2="42.66" xlink:href="#linear-gradient"/><linearGradient id="linear-gradient-20" x1="81.02" y1="-30.16" x2="154.13" y2="42.95" xlink:href="#linear-gradient"/><linearGradient id="linear-gradient-21" x1="80.73" y1="-29.87" x2="153.84" y2="43.24" xlink:href="#linear-gradient"/><linearGradient id="linear-gradient-22" x1="80.43" y1="-29.57" x2="153.54" y2="43.53" xlink:href="#linear-gradient"/><linearGradient id="linear-gradient-23" x1="80.14" y1="-29.28" x2="153.25" y2="43.83" xlink:href="#linear-gradient"/><linearGradient id="linear-gradient-24" x1="79.85" y1="-28.99" x2="152.96" y2="44.12" xlink:href="#linear-gradient"/><linearGradient id="linear-gradient-25" x1="79.56" y1="-28.7" x2="152.67" y2="44.41" xlink:href="#linear-gradient"/><linearGradient id="linear-gradient-26" x1="79.26" y1="-28.4" x2="152.37" y2="44.7" xlink:href="#linear-gradient"/><linearGradient id="linear-gradient-27" x1="78.97" y1="-28.11" x2="152.08" y2="45" xlink:href="#linear-gradient"/><linearGradient id="linear-gradient-28" x1="78.68" y1="-27.82" x2="151.79" y2="45.29" xlink:href="#linear-gradient"/><linearGradient id="linear-gradient-29" x1="78.39" y1="-27.53" x2="151.5" y2="45.58" xlink:href="#linear-gradient"/><linearGradient id="linear-gradient-30" x1="78.09" y1="-27.23" x2="151.2" y2="45.87" xlink:href="#linear-gradient"/><linearGradient id="linear-gradient-31" x1="77.8" y1="-26.94" x2="150.91" y2="46.17" xlink:href="#linear-gradient"/><linearGradient id="linear-gradient-32" x1="77.51" y1="-26.65" x2="150.62" y2="46.46" xlink:href="#linear-gradient"/><linearGradient id="linear-gradient-33" x1="77.21" y1="-26.35" x2="150.32" y2="46.76" xlink:href="#linear-gradient"/><linearGradient id="linear-gradient-34" x1="76.92" y1="-26.06" x2="150.02" y2="47.05" xlink:href="#linear-gradient"/><linearGradient id="linear-gradient-35" x1="76.62" y1="-25.76" x2="149.73" y2="47.35" xlink:href="#linear-gradient"/><linearGradient id="linear-gradient-36" x1="76.32" y1="-25.46" x2="149.43" y2="47.65" xlink:href="#linear-gradient"/><linearGradient id="linear-gradient-37" x1="76.02" y1="-25.16" x2="149.13" y2="47.95" xlink:href="#linear-gradient"/><linearGradient id="linear-gradient-38" x1="75.73" y1="-24.87" x2="148.84" y2="48.24" xlink:href="#linear-gradient"/><linearGradient id="linear-gradient-39" x1="75.43" y1="-24.57" x2="148.54" y2="48.54" xlink:href="#linear-gradient"/><linearGradient id="linear-gradient-40" x1="75.13" y1="-24.27" x2="148.24" y2="48.84" xlink:href="#linear-gradient"/><linearGradient id="linear-gradient-41" x1="74.84" y1="-23.97" x2="147.94" y2="49.13" xlink:href="#linear-gradient"/><linearGradient id="linear-gradient-42" x1="74.54" y1="-23.68" x2="147.65" y2="49.43" xlink:href="#linear-gradient"/><linearGradient id="linear-gradient-43" x1="74.24" y1="-23.38" x2="147.35" y2="49.73" xlink:href="#linear-gradient"/><linearGradient id="linear-gradient-44" x1="73.94" y1="-23.08" x2="147.05" y2="50.03" xlink:href="#linear-gradient"/><linearGradient id="linear-gradient-45" x1="73.65" y1="-22.79" x2="146.76" y2="50.32" xlink:href="#linear-gradient"/><linearGradient id="linear-gradient-46" x1="73.35" y1="-22.49" x2="146.46" y2="50.62" xlink:href="#linear-gradient"/><linearGradient id="linear-gradient-47" x1="73.05" y1="-22.19" x2="146.16" y2="50.92" xlink:href="#linear-gradient"/><linearGradient id="linear-gradient-48" x1="72.76" y1="-21.89" x2="145.86" y2="51.21" xlink:href="#linear-gradient"/><linearGradient id="linear-gradient-49" x1="72.46" y1="-21.6" x2="145.57" y2="51.51" xlink:href="#linear-gradient"/><linearGradient id="linear-gradient-50" x1="72.16" y1="-21.3" x2="145.27" y2="51.81" xlink:href="#linear-gradient"/><linearGradient id="linear-gradient-51" x1="71.86" y1="-21" x2="144.97" y2="52.11" xlink:href="#linear-gradient"/><linearGradient id="linear-gradient-52" x1="71.57" y1="-20.71" x2="144.68" y2="52.4" xlink:href="#linear-gradient"/><linearGradient id="linear-gradient-53" x1="71.27" y1="-20.41" x2="144.38" y2="52.7" xlink:href="#linear-gradient"/><linearGradient id="linear-gradient-54" x1="70.98" y1="-20.12" x2="144.09" y2="52.99" gradientTransform="translate(48.26 -72.48) rotate(43.03)" xlink:href="#linear-gradient"/><linearGradient id="linear-gradient-55" x1="70.69" y1="-19.83" x2="143.8" y2="53.28" gradientTransform="matrix(0.73, 0.68, -0.68, 0.73, 48.37, -72.2)" xlink:href="#linear-gradient"/><linearGradient id="linear-gradient-56" x1="70.4" y1="-19.53" x2="143.5" y2="53.57" gradientTransform="translate(48.48 -71.92) rotate(43.03)" xlink:href="#linear-gradient"/><linearGradient id="linear-gradient-57" x1="70.11" y1="-19.25" x2="143.21" y2="53.86" xlink:href="#linear-gradient"/><linearGradient id="linear-gradient-58" x1="69.82" y1="-18.96" x2="142.93" y2="54.15" xlink:href="#linear-gradient"/><linearGradient id="linear-gradient-59" x1="69.53" y1="-18.67" x2="142.64" y2="54.44" xlink:href="#linear-gradient"/><linearGradient id="linear-gradient-60" x1="69.25" y1="-18.38" x2="142.35" y2="54.72" xlink:href="#linear-gradient"/><linearGradient id="linear-gradient-61" x1="68.96" y1="-18.1" x2="142.07" y2="55.01" xlink:href="#linear-gradient"/><linearGradient id="linear-gradient-62" x1="68.67" y1="-17.81" x2="141.78" y2="55.3" xlink:href="#linear-gradient"/><linearGradient id="linear-gradient-63" x1="68.38" y1="-17.52" x2="141.49" y2="55.59" xlink:href="#linear-gradient"/><linearGradient id="linear-gradient-64" x1="68.1" y1="-17.24" x2="141.21" y2="55.87" xlink:href="#linear-gradient"/><linearGradient id="linear-gradient-65" x1="67.81" y1="-16.95" x2="140.92" y2="56.16" xlink:href="#linear-gradient"/><linearGradient id="linear-gradient-66" x1="61.85" y1="-10.99" x2="134.96" y2="62.12" xlink:href="#linear-gradient"/><linearGradient id="linear-gradient-67" x1="-1068.45" y1="61" x2="-1119.26" y2="10.19" gradientTransform="matrix(-1, 0, 0, 1, -1043.81, 0)" gradientUnits="userSpaceOnUse"><stop offset="0" stop-color="#ffd567"/><stop offset="1" stop-color="#fff361"/></linearGradient><linearGradient id="linear-gradient-68" x1="-1144.28" y1="-14.84" x2="-1027.02" y2="102.42" gradientTransform="matrix(-1, 0, 0, 1, -1043.81, 0)" gradientUnits="userSpaceOnUse"><stop offset="0.4" stop-color="#ffd567"/><stop offset="0.86" stop-color="#ffc456"/><stop offset="1" stop-color="#ffbd4f"/></linearGradient></defs><title>fx-fenix_error_6</title><path class="cls-2" d="M4.45,35.06A23.24,23.24,0,0,1,27.6,11.73l174.6-.5a23.25,23.25,0,1,1,.18,46.49l-174.59.5A23.25,23.25,0,0,1,4.45,35.06Z"/><path class="cls-3" d="M109.55,21.81a8,8,0,0,1-7.91,8H69.81a6.08,6.08,0,0,1,0-12.16,5.84,5.84,0,0,1,1.46.19,6,6,0,0,1-.17-1.41,6.28,6.28,0,0,1,9.81-5.17,10.54,10.54,0,0,1,20.73,2.65A7.94,7.94,0,0,1,109.55,21.81Z"/><path class="cls-3" d="M237.41,25.59a9.31,9.31,0,0,0-2.19.27,9.25,9.25,0,0,0,.24-2.12A9.45,9.45,0,0,0,220.68,16a15.88,15.88,0,0,0-31.24,4,11.93,11.93,0,1,0,0,23.85h48a9.11,9.11,0,1,0,0-18.21Z"/><path class="cls-4" d="M101.94,3.8a1.2,1.2,0,0,1,1.7,0l8.41,8.84a1.21,1.21,0,0,1-1.75,1.66L101.9,5.5a1.23,1.23,0,0,1-.34-.86A1.21,1.21,0,0,1,101.94,3.8Zm-7.16,7.3a1.2,1.2,0,0,0,.33.86l8.41,8.84a1.2,1.2,0,1,0,1.74-1.66L96.85,10.3a1.2,1.2,0,0,0-1.7-.05A1.18,1.18,0,0,0,94.78,11.1Z"/><path class="cls-5" d="M62.21,54.14a.52.52,0,0,1,.52-.54h.86a.54.54,0,0,1,.53.51.54.54,0,0,1-.52.55l-.86,0h0A.53.53,0,0,1,62.21,54.14Zm4-.2a.53.53,0,0,1,.46-.59c1.34-.17,2.73-.41,4.13-.73a.53.53,0,1,1,.24,1,42.53,42.53,0,0,1-4.24.75h-.06A.53.53,0,0,1,66.23,53.94Zm-8.65.3a27.41,27.41,0,0,1-4.19-1.08.52.52,0,0,1-.33-.67.53.53,0,0,1,.68-.33,25.22,25.22,0,0,0,4,1,.53.53,0,0,1,.43.62.53.53,0,0,1-.52.44Zm-7.19-2.31-.77-.38a.53.53,0,1,1,.48-.95l.75.37a.54.54,0,0,1,.25.71.53.53,0,0,1-.48.3A.46.46,0,0,1,50.39,51.93Zm-49-3.06a.53.53,0,0,1,0-.75s.23-.24.64-.62a.53.53,0,0,1,.75,0,.53.53,0,0,1,0,.75c-.39.35-.59.56-.59.56h0a.56.56,0,0,1-.39.17A.51.51,0,0,1,1.37,48.87Zm43.82,0c-1.07-.73-2.07-1.47-3-2.18l-.41-.31a.53.53,0,1,1,.63-.85l.41.3c1,.71,2,1.44,3,2.16a.53.53,0,0,1-.3,1A.58.58,0,0,1,45.19,48.89Zm-40.8-2.7a.54.54,0,0,1,.11-.74A36.16,36.16,0,0,1,8.12,43.1a.53.53,0,0,1,.72.2.52.52,0,0,1-.2.72A37,37,0,0,0,5.13,46.3a.51.51,0,0,1-.31.11A.53.53,0,0,1,4.39,46.19Zm34.76-1.61-.7-.46a.52.52,0,0,1-.17-.73.53.53,0,0,1,.73-.17l.73.47a.53.53,0,0,1-.3,1A.51.51,0,0,1,39.15,44.58ZM34,42a30.3,30.3,0,0,0-4-1.23.53.53,0,0,1,.24-1A33.68,33.68,0,0,1,34.34,41a.53.53,0,0,1-.19,1A.63.63,0,0,1,34,42Zm-21.47-.37a.55.55,0,0,1,.31-.69l.81-.29a.53.53,0,1,1,.35,1l-.78.29a.63.63,0,0,1-.19,0A.54.54,0,0,1,12.49,41.58Zm3.84-1.25a.53.53,0,0,1,.39-.64A28.55,28.55,0,0,1,21,39a.53.53,0,0,1,.57.48.54.54,0,0,1-.48.58,27.68,27.68,0,0,0-4.11.66l-.13,0A.52.52,0,0,1,16.33,40.33Zm10.57-.17-.83-.09a.52.52,0,0,1-.48-.57.53.53,0,0,1,.58-.48l.86.09A.53.53,0,0,1,27,40.17Z"/><path class="cls-6" d="M114.3,64.51a16.79,16.79,0,0,0,5.49-.93,1.11,1.11,0,0,0,.7-1.41,1.13,1.13,0,0,0-1.42-.7c-6.65,2.27-12.27-.62-18.77-4C92.56,53.51,83.78,49,71,52a1.11,1.11,0,0,0-.83,1.34,1.13,1.13,0,0,0,1.35.83A31.19,31.19,0,0,1,87,54.3a60.54,60.54,0,0,1,12.25,5.18C104.27,62.05,109,64.51,114.3,64.51Z"/><path class="cls-7" d="M118,63.12a1.43,1.43,0,0,1,.89-1.82c.25-.08.5-.17.74-.27a1.44,1.44,0,0,1,1.86.82,1.43,1.43,0,0,1-.82,1.85l-.85.32a1.53,1.53,0,0,1-.47.07A1.42,1.42,0,0,1,118,63.12Zm4.72-1.92a1.43,1.43,0,0,1,.32-2,12.62,12.62,0,0,0,2.7-2.66,1.43,1.43,0,0,1,2.31,1.7,15.47,15.47,0,0,1-3.33,3.28,1.45,1.45,0,0,1-.84.27A1.42,1.42,0,0,1,122.74,61.2Zm6-7a1.44,1.44,0,0,1-1-1.75c.06-.25.12-.5.17-.75a1.43,1.43,0,1,1,2.81.56c-.06.3-.13.61-.21.91a1.44,1.44,0,0,1-1.39,1.07A1.53,1.53,0,0,1,128.72,54.21Zm-.63-6.35a19,19,0,0,0-.71-3.87,1.42,1.42,0,0,1,1-1.77,1.44,1.44,0,0,1,1.78,1,22.57,22.57,0,0,1,.81,4.46,1.43,1.43,0,0,1-1.33,1.53h-.11A1.43,1.43,0,0,1,128.09,47.86Zm-2.5-8.33c-.12-.24-.25-.48-.38-.72a1.43,1.43,0,0,1,2.51-1.38c.15.26.29.53.42.79a1.44,1.44,0,0,1-.62,1.93,1.39,1.39,0,0,1-.65.16A1.44,1.44,0,0,1,125.59,39.53ZM123,35.38a39,39,0,0,0-2.56-3.2,1.43,1.43,0,0,1,2.14-1.9c1,1.12,1.92,2.27,2.75,3.42a1.44,1.44,0,0,1-.33,2,1.42,1.42,0,0,1-.83.27A1.45,1.45,0,0,1,123,35.38Zm-6-6.72-.61-.56a1.43,1.43,0,1,1,1.9-2.14l.65.59A1.43,1.43,0,0,1,117,28.66Zm-3.8-3.2c-.69-.53-1.41-1.06-2.13-1.57a1.43,1.43,0,0,1,1.66-2.34c.75.54,1.5,1.09,2.22,1.64a1.43,1.43,0,0,1-.88,2.57A1.41,1.41,0,0,1,113.19,25.46Z"/><path class="cls-1" d="M98.33,21.53l13.6-13.6a1.66,1.66,0,0,1,2.35,0h0a1.66,1.66,0,0,1,0,2.35l-.45.45a2.88,2.88,0,0,1,.34.27l6,6.06a3.65,3.65,0,0,1,.49,4.56,1,1,0,0,0,.14,1.24,4.67,4.67,0,0,1,1,5.09l4.31,5.79a2.12,2.12,0,0,1-.43,3,2.08,2.08,0,0,1-1.27.42,2.13,2.13,0,0,1-1.71-.85L119,31.16a4.66,4.66,0,0,1-5.69-.7,1,1,0,0,0-1.25-.14,3.66,3.66,0,0,1-4.56-.49l-6.06-6.06a2.24,2.24,0,0,1-.27-.34l-.45.45a1.66,1.66,0,0,1-2.35,0h0A1.68,1.68,0,0,1,98.33,21.53Z"/><g class="cls-8"><polygon class="cls-9" points="126.39 7.28 126.88 7.82 126.88 7.28 126.39 7.28"/><polygon class="cls-10" points="125.82 7.28 126.88 8.42 126.88 7.82 126.39 7.28 125.82 7.28"/><polygon class="cls-11" points="125.26 7.28 126.88 9.03 126.88 8.42 125.82 7.28 125.26 7.28"/><polygon class="cls-12" points="124.69 7.28 126.88 9.63 126.88 9.03 125.26 7.28 124.69 7.28"/><polygon class="cls-13" points="124.13 7.28 126.88 10.23 126.88 9.63 124.69 7.28 124.13 7.28"/><polygon class="cls-14" points="123.56 7.28 126.88 10.84 126.88 10.23 124.13 7.28 123.56 7.28"/><polygon class="cls-15" points="123 7.28 126.88 11.45 126.88 10.84 123.56 7.28 123 7.28"/><polygon class="cls-16" points="122.43 7.28 126.88 12.05 126.88 11.45 123 7.28 122.43 7.28"/><polygon class="cls-17" points="121.87 7.28 126.88 12.66 126.88 12.05 122.43 7.28 121.87 7.28"/><polygon class="cls-18" points="121.3 7.28 126.88 13.26 126.88 12.66 121.87 7.28 121.3 7.28"/><polygon class="cls-19" points="120.74 7.28 126.88 13.87 126.88 13.26 121.3 7.28 120.74 7.28"/><polygon class="cls-20" points="120.17 7.28 126.88 14.47 126.88 13.87 120.74 7.28 120.17 7.28"/><polygon class="cls-21" points="119.61 7.28 126.88 15.08 126.88 14.47 120.17 7.28 119.61 7.28"/><polygon class="cls-22" points="119.04 7.28 126.88 15.68 126.88 15.08 119.61 7.28 119.04 7.28"/><polygon class="cls-23" points="118.48 7.28 126.88 16.29 126.88 15.68 119.04 7.28 118.48 7.28"/><polygon class="cls-24" points="117.91 7.28 126.88 16.89 126.88 16.29 118.48 7.28 117.91 7.28"/><polygon class="cls-25" points="117.35 7.28 126.88 17.5 126.88 16.89 117.91 7.28 117.35 7.28"/><polygon class="cls-26" points="116.78 7.28 126.88 18.1 126.88 17.5 117.35 7.28 116.78 7.28"/><polygon class="cls-27" points="116.22 7.28 126.88 18.71 126.88 18.1 116.78 7.28 116.22 7.28"/><polygon class="cls-28" points="115.66 7.28 126.88 19.31 126.88 18.71 116.22 7.28 115.66 7.28"/><polygon class="cls-29" points="115.09 7.28 126.88 19.92 126.88 19.31 115.66 7.28 115.09 7.28"/><polygon class="cls-30" points="114.53 7.28 126.88 20.52 126.88 19.92 115.09 7.28 114.53 7.28"/><polygon class="cls-31" points="113.96 7.28 126.88 21.13 126.88 20.52 114.53 7.28 113.96 7.28"/><polygon class="cls-32" points="113.4 7.28 126.88 21.73 126.88 21.13 113.96 7.28 113.4 7.28"/><polygon class="cls-33" points="112.83 7.28 126.88 22.34 126.88 21.73 113.4 7.28 112.83 7.28"/><polygon class="cls-34" points="112.27 7.28 112.27 7.28 126.88 22.94 126.88 22.34 112.83 7.28 112.27 7.28"/><polygon class="cls-35" points="112.27 7.28 111.97 7.57 126.88 23.55 126.88 22.94 112.27 7.28"/><polygon class="cls-36" points="111.97 7.57 111.66 7.85 126.88 24.15 126.88 23.55 111.97 7.57"/><polygon class="cls-37" points="111.66 7.85 111.36 8.13 126.88 24.76 126.88 24.15 111.66 7.85"/><polygon class="cls-38" points="111.36 8.13 111.06 8.41 126.88 25.36 126.88 24.76 111.36 8.13"/><polygon class="cls-39" points="111.06 8.41 110.76 8.69 126.88 25.97 126.88 25.36 111.06 8.41"/><polygon class="cls-40" points="110.76 8.69 110.46 8.97 126.88 26.57 126.88 25.97 110.76 8.69"/><polygon class="cls-41" points="110.46 8.97 110.15 9.26 126.88 27.18 126.88 26.57 110.46 8.97"/><polygon class="cls-42" points="110.15 9.26 109.85 9.54 126.88 27.78 126.88 27.18 110.15 9.26"/><polygon class="cls-43" points="109.85 9.54 109.55 9.82 126.88 28.39 126.88 27.78 109.85 9.54"/><polygon class="cls-44" points="109.55 9.82 109.25 10.1 126.88 28.99 126.88 28.39 109.55 9.82"/><polygon class="cls-45" points="109.25 10.1 108.95 10.38 126.88 29.6 126.88 28.99 109.25 10.1"/><polygon class="cls-46" points="108.95 10.38 108.64 10.66 126.88 30.2 126.88 29.6 108.95 10.38"/><polygon class="cls-47" points="108.64 10.66 108.34 10.95 126.88 30.81 126.88 30.2 108.64 10.66"/><polygon class="cls-48" points="108.34 10.95 108.04 11.23 126.88 31.41 126.88 30.81 108.34 10.95"/><polygon class="cls-49" points="108.04 11.23 107.74 11.51 126.88 32.02 126.88 31.41 108.04 11.23"/><polygon class="cls-50" points="107.74 11.51 107.44 11.79 126.88 32.63 126.88 32.02 107.74 11.51"/><polygon class="cls-51" points="107.44 11.79 107.14 12.07 126.88 33.23 126.88 32.63 107.44 11.79"/><polygon class="cls-52" points="107.14 12.07 106.83 12.35 126.88 33.84 126.88 33.23 107.14 12.07"/><polygon class="cls-53" points="106.83 12.35 106.53 12.64 126.88 34.44 126.88 33.84 106.83 12.35"/><polygon class="cls-54" points="106.53 12.64 106.23 12.92 126.88 35.05 126.88 34.44 106.53 12.64"/><polygon class="cls-55" points="106.23 12.92 105.93 13.2 126.88 35.65 126.88 35.05 106.23 12.92"/><polygon class="cls-56" points="105.93 13.2 105.63 13.48 126.82 36.19 126.88 36.13 126.88 35.65 105.93 13.2"/><rect class="cls-57" x="115.87" y="9.44" width="0.41" height="31.06" transform="translate(14.18 85.92) rotate(-43.03)"/><rect class="cls-58" x="115.57" y="9.73" width="0.41" height="31.06" transform="translate(13.9 85.79) rotate(-43.03)"/><rect class="cls-59" x="115.26" y="10.01" width="0.41" height="31.06" transform="translate(13.63 85.66) rotate(-43.03)"/><polygon class="cls-60" points="104.72 14.33 104.42 14.61 125.45 37.14 125.8 37.14 125.92 37.03 104.72 14.33"/><polygon class="cls-61" points="104.42 14.61 104.12 14.89 124.89 37.14 125.45 37.14 104.42 14.61"/><polygon class="cls-62" points="104.12 14.89 103.82 15.17 124.32 37.14 124.89 37.14 104.12 14.89"/><polygon class="cls-63" points="103.82 15.17 103.51 15.45 123.76 37.14 124.32 37.14 103.82 15.17"/><polygon class="cls-64" points="103.51 15.45 103.21 15.73 123.19 37.14 123.76 37.14 103.51 15.45"/><polygon class="cls-65" points="103.21 15.73 102.91 16.02 122.63 37.14 123.19 37.14 103.21 15.73"/><polygon class="cls-66" points="102.91 16.02 102.61 16.3 122.06 37.14 122.63 37.14 102.91 16.02"/><polygon class="cls-67" points="102.61 16.3 102.31 16.58 121.5 37.14 122.06 37.14 102.61 16.3"/><polygon class="cls-68" points="102.31 16.58 102 16.86 120.94 37.14 121.5 37.14 102.31 16.58"/><polygon class="cls-69" points="102 16.86 97.69 20.89 97.69 37.14 120.94 37.14 102 16.86"/></g><path class="cls-70" d="M50.51,4.12a31,31,0,0,1,31,31c0,.42,0,.85,0,1.27A3.67,3.67,0,0,1,81,43.71h-.66A31,31,0,1,1,50.51,4.12Z"/><path class="cls-71" d="M19.5,36.4c0-.42,0-.85,0-1.27A30.88,30.88,0,0,1,28,13.76,31.87,31.87,0,0,0,71.87,57.61,31,31,0,0,1,20.69,43.72H20a3.68,3.68,0,0,1-.49-7.32Z"/><path class="cls-72" d="M39,20.18a1.05,1.05,0,0,1-.8-.36A4.32,4.32,0,0,0,35,18.37h0a4.29,4.29,0,0,0-3.23,1.45,1.07,1.07,0,0,1-1.59-1.42A6.45,6.45,0,0,1,35,16.23h0a6.44,6.44,0,0,1,4.83,2.17,1.05,1.05,0,0,1-.1,1.5A1,1,0,0,1,39,20.18Z"/><path class="cls-72" d="M70.37,20.18a1.07,1.07,0,0,1-.8-.36,4.3,4.3,0,0,0-3.22-1.45h0a4.29,4.29,0,0,0-3.23,1.45,1.07,1.07,0,0,1-1.59-1.42,6.41,6.41,0,0,1,4.83-2.17h0a6.41,6.41,0,0,1,4.83,2.17,1.06,1.06,0,0,1-.08,1.5A1.09,1.09,0,0,1,70.37,20.18Z"/><path class="cls-73" d="M35.17,23a3.38,3.38,0,0,1,3.38,3.39V34a3.38,3.38,0,0,1-3.38,3.38h0A3.38,3.38,0,0,1,31.79,34V26.41A3.37,3.37,0,0,1,35.17,23Z"/><path class="cls-73" d="M65.77,23a3.38,3.38,0,0,1,3.38,3.39V34a3.38,3.38,0,0,1-3.38,3.38h0A3.38,3.38,0,0,1,62.39,34V26.41A3.37,3.37,0,0,1,65.77,23Z"/><path class="cls-73" d="M50.83,40.25A6.86,6.86,0,0,0,44,47.09v9.28a1.27,1.27,0,0,0,1.27,1.27H56.42a1.27,1.27,0,0,0,1.27-1.27V47.11A6.86,6.86,0,0,0,50.83,40.25Z"/></svg>