<!-- This Source Code Form is subject to the terms of the Mozilla Public
   - License, v. 2.0. If a copy of the MPL was not distributed with this
   - file, You can obtain one at http://mozilla.org/MPL/2.0/. -->
<svg xmlns="http://www.w3.org/2000/svg" width="16" height="16" viewBox="0 0 16 16" fill="context-fill" fill-opacity="context-fill-opacity">
  <path d="M13.5 4.5l-4-4h-6c-0.6 0-1 0.4-1 1v13c0 0.6 0.4 1 1 1h9c0.6 0 1-0.4 1-1v-10z" fill-opacity=".1"/>
  <path d="M9.5 0.5v4h4l-4-4z" fill-opacity=".3"/>
  <path d="M14 4.4c0-0.1-0.1-0.2-0.1-0.3l-4-4C9.8 0.1 9.7 0 9.6 0H3.5C2.7 0 2 0.7 2 1.5v13C2 15.3 2.7 16 3.5 16h9c0.8 0 1.5-0.7 1.5-1.5V4.4zM12.3 4H10V1.7L12.3 4zm0.2 11h-9C3.2 15 3 14.8 3 14.5v-13C3 1.2 3.2 1 3.5 1H9v3.5C9 4.8 9.2 5 9.5 5H13v9.5c0 0.3-0.2 0.5-0.5 0.5z"/>
</svg>
