<!-- may be protected as a trademark in some jurisdictions -->
<svg xmlns="http://www.w3.org/2000/svg" width="135" height="40" xml:space="preserve"><path fill="#A6A6A6" d="M130.197 40H4.729A4.74 4.74 0 0 1 0 35.267V4.726A4.733 4.733 0 0 1 4.729 0h125.468C132.803 0 135 2.12 135 4.726v30.541c0 2.605-2.197 4.733-4.803 4.733z"/><path d="M134.032 35.268a3.83 3.83 0 0 1-3.834 3.83H4.729a3.835 3.835 0 0 1-3.839-3.83V4.725A3.84 3.84 0 0 1 4.729.89h125.468a3.834 3.834 0 0 1 3.834 3.835l.001 30.543z"/><g fill="#FFF"><path d="M30.128 19.784c-.029-3.223 2.639-4.791 2.761-4.864-1.511-2.203-3.853-2.504-4.676-2.528-1.967-.207-3.875 1.177-4.877 1.177-1.022 0-2.565-1.157-4.228-1.123-2.14.033-4.142 1.272-5.24 3.196-2.266 3.923-.576 9.688 1.595 12.859 1.086 1.553 2.355 3.287 4.016 3.226 1.625-.067 2.232-1.036 4.193-1.036 1.943 0 2.513 1.036 4.207.997 1.744-.028 2.842-1.56 3.89-3.127 1.255-1.78 1.759-3.533 1.779-3.623-.041-.014-3.387-1.291-3.42-5.154zM26.928 10.306c.874-1.093 1.472-2.58 1.306-4.089-1.265.056-2.847.875-3.758 1.944-.806.942-1.526 2.486-1.34 3.938 1.421.106 2.88-.717 3.792-1.793z"/></g><g fill="#FFF"><path d="M51.285 16.038h-1.61l-.882-2.772h-3.066l-.84 2.772h-1.568l3.038-9.436h1.876l3.052 9.436zm-2.758-3.934-.798-2.464c-.084-.252-.243-.845-.476-1.778h-.028c-.093.401-.243.994-.448 1.778l-.784 2.464h2.534zM59.097 12.552c0 1.157-.313 2.072-.938 2.744-.56.598-1.255.896-2.086.896-.896 0-1.54-.322-1.932-.966h-.028v3.584h-1.512v-7.336c0-.728-.019-1.475-.056-2.24h1.33l.084 1.078h.028c.504-.812 1.27-1.218 2.296-1.218.803 0 1.472.317 2.009.952.536.634.805 1.47.805 2.506zm-1.54.055c0-.663-.149-1.208-.448-1.638a1.547 1.547 0 0 0-1.316-.672c-.374 0-.712.124-1.015.371a1.722 1.722 0 0 0-.595.973 1.97 1.97 0 0 0-.07.462v1.134c0 .495.152.912.455 1.253s.698.511 1.183.511c.569 0 1.013-.219 1.33-.658.316-.438.476-1.017.476-1.736zM66.922 12.552c0 1.157-.313 2.072-.938 2.744-.56.598-1.255.896-2.086.896-.896 0-1.54-.322-1.932-.966h-.028v3.584h-1.512v-7.336c0-.728-.019-1.475-.056-2.24h1.33l.084 1.078h.028c.504-.812 1.27-1.218 2.296-1.218.803 0 1.472.317 2.009.952.537.634.805 1.47.805 2.506zm-1.54.055c0-.663-.149-1.208-.448-1.638a1.547 1.547 0 0 0-1.316-.672c-.374 0-.712.124-1.015.371a1.722 1.722 0 0 0-.595.973 1.97 1.97 0 0 0-.07.462v1.134c0 .495.152.912.455 1.253s.698.511 1.183.511c.569 0 1.013-.219 1.33-.658.317-.438.476-1.017.476-1.736zM75.672 13.392c0 .803-.279 1.456-.838 1.96-.615.551-1.472.826-2.57.826-1.016 0-1.83-.196-2.445-.588l.35-1.26a4.145 4.145 0 0 0 2.185.602c.57 0 1.014-.128 1.331-.386.317-.257.477-.601.477-1.031 0-.383-.131-.706-.393-.967-.261-.262-.695-.505-1.302-.729-1.652-.617-2.479-1.519-2.479-2.707 0-.776.29-1.412.868-1.907.579-.496 1.349-.744 2.311-.744.858 0 1.572.149 2.142.448l-.379 1.233c-.532-.289-1.134-.434-1.806-.434-.532 0-.947.131-1.246.392a1.12 1.12 0 0 0-.378.854c0 .374.145.681.434.924.252.224.709.467 1.372.728.812.327 1.409.709 1.792 1.148.382.438.574.984.574 1.638zM80.67 10.368h-1.666v3.304c0 .84.294 1.26.882 1.26.271 0 .495-.023.672-.07l.042 1.148c-.298.112-.69.168-1.176.168-.597 0-1.063-.182-1.399-.546-.336-.364-.504-.976-.504-1.834v-3.43h-.994V9.233h.994V7.988l1.483-.448v1.694h1.666v1.134zM88.188 12.58c0 1.045-.299 1.904-.896 2.576-.626.69-1.456 1.036-2.492 1.036-.999 0-1.795-.331-2.388-.994s-.889-1.498-.889-2.506c0-1.054.306-1.918.917-2.59s1.436-1.008 2.471-1.008c.999 0 1.802.331 2.408.994.58.643.869 1.474.869 2.492zm-1.568.048c0-.627-.135-1.165-.405-1.614-.317-.543-.771-.814-1.358-.814-.606 0-1.068.271-1.386.814-.271.449-.406.997-.406 1.643 0 .627.135 1.166.406 1.614.326.543.784.814 1.372.814.578 0 1.031-.276 1.357-.828.28-.458.42-1.001.42-1.629zM93.103 10.563a2.579 2.579 0 0 0-.476-.042c-.532 0-.943.201-1.232.602-.252.355-.378.803-.378 1.344v3.57h-1.512l.014-4.662c0-.784-.019-1.498-.056-2.142h1.315l.057 1.302h.042c.158-.448.41-.807.756-1.078.336-.243.7-.364 1.092-.364.14 0 .267.009.378.028v1.442zM99.864 12.313c0 .271-.019.5-.056.686h-4.536c.019.672.238 1.186.658 1.54.383.317.877.476 1.483.476.673 0 1.283-.107 1.834-.322l.238 1.05c-.644.28-1.404.42-2.282.42-1.055 0-1.883-.31-2.484-.931-.603-.621-.903-1.454-.903-2.499 0-1.026.28-1.88.84-2.562.588-.728 1.382-1.092 2.38-1.092.98 0 1.723.364 2.227 1.092.401.579.601 1.293.601 2.142zm-1.441-.392c.009-.448-.089-.835-.294-1.162-.262-.42-.663-.63-1.204-.63-.495 0-.896.206-1.204.616a2.262 2.262 0 0 0-.448 1.176h3.15zM103.977 7.078c1.287 0 2.062 1.026 2.213 2.715h.784V6.596h1.166v9.09h-1.166v-4.887h-.765c-.09 1.84-.854 2.957-2.232 2.957-1.377 0-2.202-1.267-2.202-3.329-.001-2.072.794-3.349 2.202-3.349zm-1.076 3.339c0 1.328.352 2.353 1.065 2.353.774 0 1.106-1.016 1.106-2.353s-.332-2.363-1.106-2.363-1.065 1.035-1.065 2.363zm7.009 5.581h-1.167V6.545h1.167v9.453zM115.665 6.968v2.645c0 1.498 1.237 2.604 2.504 3.218l-.573.895c-.814-.473-1.94-1.237-2.534-2.263-.532 1.036-1.559 1.84-2.563 2.464l-.755-.805c1.429-.794 2.716-1.971 2.716-3.54V6.968h1.205zm4.485 9.03h-1.188v-5.762h-1.84V9.28h1.84V6.545h1.188v9.453zM49.135 29.123c-1.73.23-3.318.23-5.39.23v-6.324h4.585v.955h-3.399v4.395c1.408 0 2.675-.011 4.204-.222v.966zm3.428-2.695h-1.619v5.369h-1.187v-9.451h1.187v3.117h1.619v.965zM62.845 27.916h-3.781v1.77h-1.197v-1.77h-4.032v-.936h9.01v.936zm-7.844-3.51c0-1.025 1.106-1.93 3.318-1.93 2.172 0 3.358.895 3.358 1.93 0 1.156-1.166 1.951-3.358 1.951-2.191 0-3.318-.835-3.318-1.951zM62 31.637h-6.968V28.67h1.207v2.021H62v.946zm-5.782-7.231c0 .634.875 1.066 2.102 1.066 1.287 0 2.132-.433 2.132-1.066 0-.572-.905-1.025-2.132-1.025-1.257 0-2.102.453-2.102 1.025zM69.365 28.529v1.217h3.892v.955h-9.01v-.955h3.912v-1.217h1.206zm-3.891-.432v-3.138h5.319v-1.186h-5.35v-.926h6.546v3.037H66.67v1.287h5.682v.925h-6.878zM83.668 30.379h-9.01v-.955h9.01v.955zm-7.783-2.775v-4.625h6.627v.945h-5.44v2.734h5.562v.945h-6.749zM92.106 23.723h2.434v.936h-6.083v-.936h2.433v-1.377h1.217v1.377zm1.891 3.881c0 1.338-.895 2.465-2.494 2.465-1.538 0-2.493-1.057-2.493-2.465 0-1.527.965-2.473 2.493-2.473 1.6 0 2.494.925 2.494 2.473zm-1.166 0c0-.955-.413-1.527-1.328-1.527-.854 0-1.316.604-1.316 1.527 0 .886.462 1.509 1.316 1.509.915-.001 1.328-.624 1.328-1.509zm3.469-5.258v3.841h1.599v.995H96.3v4.615h-1.187v-9.451H96.3zM104.378 23.029c-.04 3.82-1.81 5.561-4.243 6.877l-.744-.814c2.483-1.357 3.67-2.825 3.73-5.107h-3.349v-.955h4.606zm2.665 8.768h-1.187v-9.451h1.187v9.451z"/></g></svg>
