<!-- This Source Code Form is subject to the terms of the Mozilla Public
   - License, v. 2.0. If a copy of the MPL was not distributed with this
   - file, You can obtain one at http://mozilla.org/MPL/2.0/. -->
<svg width="160" height="128" xmlns="http://www.w3.org/2000/svg"><defs><linearGradient x1="50%" y1="18%" x2="79.211%" y2="27.519%" id="c"><stop stop-color="#20123A" offset="0%"/><stop stop-color="#20123A" stop-opacity="0" offset="100%"/></linearGradient><linearGradient x1="50%" y1="0%" x2="64.766%" y2="75.109%" id="d"><stop stop-color="#20123A" offset="0%"/><stop stop-color="#321C64" offset="100%"/></linearGradient><linearGradient x1="40.353%" y1="-6.305%" x2="125.167%" y2="120.857%" id="e"><stop stop-color="#20123A" offset="0%"/><stop stop-color="#5F2ECA" offset="64.418%"/><stop stop-color="#7542E5" stop-opacity="0" offset="100%"/></linearGradient><linearGradient x1="32.861%" y1="-6.728%" x2="79.91%" y2="128.478%" id="f"><stop stop-color="#2B1753" offset="0%"/><stop stop-color="#7033CA" offset="35.304%"/><stop stop-color="#FF4AD9" offset="73.362%"/><stop stop-color="#FF778E" offset="100%"/><stop stop-color="#FF778E" offset="100%"/></linearGradient><linearGradient x1="51.349%" y1="102.377%" x2="35.979%" y2="-21.792%" id="g"><stop stop-color="#FC4CA0" offset="0%"/><stop stop-color="#FFA769" offset="100%"/></linearGradient><linearGradient x1="0%" y1="0%" x2="0%" y2="100%" id="a"><stop stop-color="#fff" offset="60%"/><stop stop-color="#fff" stop-opacity="0" offset="100%"/></linearGradient><mask id="b" x="0" y="0" width="100%" height="100%"><rect width="100%" height="100%" fill="url(#a)"/></mask></defs><g mask="url(#b)"><path fill="url(#c)" d="M0 0h160v128H0z"/><path d="M72.032 0C104.133 9.442 128 44.983 128 87.385c0 14.616-2.836 28.417-7.867 40.615H.002L0 28.31C9.805 14.494 22.991 4.406 37.97 0h34.062z" fill="url(#d)"/><path d="M70.898 0C92.498 15.603 107 44.486 107 77.538c0 18.707-4.645 36.078-12.594 50.462L0 127.998V.003L70.898 0z" fill="url(#e)"/><path d="M42.2 0l47.062 66.707C101.74 84.395 102.074 109.96 91.14 128H27.324L0 89.27V0h42.2z" fill="url(#f)"/><path d="M24.863 64.883l2.182 2.963C40.32 85.206 48.63 106.15 52 128H0V0c2.255 23.505 10.625 46.336 24.863 64.883z" fill="url(#g)"/></g></svg>