<!-- This Source Code Form is subject to the terms of the Mozilla Public
   - License, v. 2.0. If a copy of the MPL was not distributed with this
   - file, You can obtain one at http://mozilla.org/MPL/2.0/. -->
<svg xmlns="http://www.w3.org/2000/svg" width="160" height="144"><defs><linearGradient id="c" x1="36.13" y1="115.75" x2="36.42" y2="115.63" gradientTransform="matrix(160 0 0 -144 -5724 16732)" gradientUnits="userSpaceOnUse"><stop offset="0" stop-color="#fc56a1"/><stop offset="1" stop-color="#fc56a1" stop-opacity="0"/></linearGradient><linearGradient id="d" x1="36.04" y1="115.68" x2="36.45" y2="115.42" gradientTransform="matrix(135 0 0 -144 -4824.07 16732)" gradientUnits="userSpaceOnUse"><stop offset="0" stop-color="#fc4ca0"/><stop offset="1" stop-color="#ffa769"/></linearGradient><linearGradient id="e" x1="35.6" y1="116.06" x2="36.35" y2="115.39" gradientTransform="matrix(111 0 0 -144 -3960 16732)" gradientUnits="userSpaceOnUse"><stop offset="0" stop-color="#4e27a4"/><stop offset=".34" stop-color="#8b4ee5"/><stop offset=".73" stop-color="#ff4ad9"/><stop offset="1" stop-color="#ff778e"/></linearGradient><linearGradient id="f" x1="35.51" y1="116.3" x2="36.42" y2="115.12" gradientTransform="matrix(102 0 0 -144 -3635.99 16732)" gradientUnits="userSpaceOnUse"><stop offset="0" stop-color="#20123a"/><stop offset=".11" stop-color="#3f2574"/><stop offset=".24" stop-color="#5f39b0"/><stop offset=".34" stop-color="#7245d6"/><stop offset=".39" stop-color="#7a4ae4"/><stop offset=".45" stop-color="#7a4ae4" stop-opacity=".97"/><stop offset=".53" stop-color="#7949e4" stop-opacity=".89"/><stop offset=".63" stop-color="#7948e4" stop-opacity=".75"/><stop offset=".74" stop-color="#7846e4" stop-opacity=".56"/><stop offset=".86" stop-color="#7745e5" stop-opacity=".32"/><stop offset=".99" stop-color="#7542e5" stop-opacity=".02"/><stop offset="1" stop-color="#7542e5" stop-opacity="0"/></linearGradient><linearGradient x1="0%" y1="0%" x2="0%" y2="100%" id="a"><stop stop-color="#fff" offset="60%"/><stop stop-color="#fff" stop-opacity="0" offset="100%"/></linearGradient><mask id="b" x="0" y="0" width="100%" height="100%"><rect width="100%" height="100%" fill="url(#a)"/></mask></defs><g mask="url(#b)" fill-rule="evenodd"><path d="M0 0h160v144H0z" fill="url(#c)"/><path d="M72 0c36.11 10.62 63 50.61 63 98.31a119.92 119.92 0 01-8.85 45.69H0V21A77.43 77.43 0 0133.72 0z" fill="url(#d)"/><path d="M70.51 0C94.74 17.55 111 50.05 111 87.23A117.86 117.86 0 0196.88 144H0V0z" fill="url(#e)"/><path d="M38.32 0l52.76 75.05c14 19.89 14.37 48.66 2.11 69H21.64L0 113.23V0z" fill="url(#f)"/><path d="M25.59 73L28 76.33C42.91 95.86 52.22 119.42 56 144H0V14.59C4.07 35.79 12.59 56 25.59 73z" fill="#20123a"/></g></svg>