<!-- This Source Code Form is subject to the terms of the Mozilla Public
   - License, v. 2.0. If a copy of the MPL was not distributed with this
   - file, You can obtain one at http://mozilla.org/MPL/2.0/. -->
<svg width="160" height="144" xmlns="http://www.w3.org/2000/svg"><defs><linearGradient x1="40.05%" y1="65.335%" x2="89.619%" y2="55.891%" id="a"><stop stop-color="#20123A" offset="0%"/><stop stop-color="#20123A" stop-opacity="0" offset="100%"/><stop stop-color="#20123A" stop-opacity="0" offset="100%"/></linearGradient><linearGradient x1="55.904%" y1="13.312%" x2="59.943%" y2="106.223%" id="c"><stop stop-color="#321C64" offset="0%"/><stop stop-color="#20123A" offset="100%"/></linearGradient><linearGradient x1="53.449%" y1="103.324%" x2="83.014%" y2="-63.876%" id="d"><stop stop-color="#20123A" offset="0%"/><stop stop-color="#5F2ECA" offset="64.418%"/><stop stop-color="#7542E5" stop-opacity="0" offset="100%"/></linearGradient><linearGradient x1="52.55%" y1="106.999%" x2="57.768%" y2="-26.862%" id="e"><stop stop-color="#2B1753" offset="0%"/><stop stop-color="#7033CA" offset="36.937%"/><stop stop-color="#FF4AD9" offset="73.362%"/><stop stop-color="#FF778E" offset="100%"/><stop stop-color="#FF778E" offset="100%"/></linearGradient><linearGradient x1="58.794%" y1="0%" x2="-74.439%" y2="-16.628%" id="f"><stop stop-color="#FC4CA0" offset="0%"/><stop stop-color="#FFA769" offset="100%"/></linearGradient><filter x="0%" y="0%" width="100%" height="100%" filterUnits="objectBoundingBox" id="b"><feGaussianBlur in="SourceGraphic"/></filter></defs><g fill="none" fill-rule="evenodd"><path fill="url(#a)" filter="url(#b)" transform="rotate(180 80 72)" d="M0 0h160v144H0z"/><path d="M160 0v143.998l-20.783.002C80.276 130.93 34.071 72.955 25 0h135z" fill="url(#c)"/><path d="M160 0v141.76C112.93 119.62 78.896 64.927 76 .003L160 0z" fill="url(#d)"/><path d="M111.14 9.511l.39.968 45.484 116.068A57.65 57.65 0 01160 137h-54V0c1.969 2.852 3.7 6.03 5.14 9.511z" fill="url(#e)" transform="rotate(180 133 68.5)"/><path d="M160 28h-14.998L145 0c3.895 9.971 8.903 19.403 15 28z" fill="url(#f)" transform="rotate(180 152.5 14)"/></g></svg>