<!-- This Source Code Form is subject to the terms of the Mozilla Public
   - License, v. 2.0. If a copy of the MPL was not distributed with this
   - file, You can obtain one at http://mozilla.org/MPL/2.0/. -->
<svg data-name="Layer 1" xmlns="http://www.w3.org/2000/svg" width="32" height="32"><defs><linearGradient id="a" x1="-102.26" y1="165.14" x2="-102.26" y2="164.98" gradientTransform="matrix(160 0 0 -128 16377 21140)" gradientUnits="userSpaceOnUse"><stop offset=".6" stop-color="#fff"/><stop offset="1" stop-color="#fff" stop-opacity="0"/></linearGradient><linearGradient id="b" x1="-101.35" y1="165.18" x2="-101.35" y2="165.03" gradientTransform="matrix(72 0 0 -128 7313 21140)" gradientUnits="userSpaceOnUse"><stop offset="0" stop-color="#ff6bba"/><stop offset="1" stop-color="#ffc999"/></linearGradient><linearGradient id="d" x1="-102.28" y1="165.06" x2="-102.23" y2="165.05" gradientTransform="matrix(160 0 0 -128 16377 21140)" gradientUnits="userSpaceOnUse"><stop offset="0" stop-color="#fc56a1"/><stop offset="1" stop-color="#fc56a1" stop-opacity="0"/></linearGradient><linearGradient id="e" x1="-102.13" y1="165.06" x2="-102.05" y2="165.01" gradientTransform="matrix(128 0 0 -128 13081 21140)" gradientUnits="userSpaceOnUse"><stop offset="0" stop-color="#fc4ca0"/><stop offset="1" stop-color="#ffa769"/></linearGradient><linearGradient id="f" x1="-102.01" y1="165.09" x2="-101.93" y2="165.03" gradientTransform="matrix(107 0 0 -128 10918 21140)" gradientUnits="userSpaceOnUse"><stop offset="0" stop-color="#4e27a4"/><stop offset=".34" stop-color="#8b4ee5"/><stop offset=".73" stop-color="#ff4ad9"/><stop offset="1" stop-color="#ff778e"/></linearGradient><linearGradient id="g" x1="-101.95" y1="165.14" x2="-101.8" y2="164.97" gradientTransform="matrix(99 0 0 -128 10094.01 21140)" gradientUnits="userSpaceOnUse"><stop offset="0" stop-color="#20123a"/><stop offset=".51" stop-color="#5f2eca"/><stop offset="1" stop-color="#7542e5" stop-opacity="0"/></linearGradient><mask id="c" x="2" y="2" width="26.73" height="21" maskUnits="userSpaceOnUse"><path fill="url(#a)" d="M2 2h26.73v21H2z"/></mask></defs><path d="M2 2h28v28H2z" fill-rule="evenodd" fill="url(#b)"/><g mask="url(#c)"><path d="M2 2h26.73v21H2z" fill="url(#d)"/><path d="M14 2c5.36 1.55 9.35 7.38 9.35 14.34A17.23 17.23 0 0 1 22.07 23H2V6.64A12.08 12.08 0 0 1 8.34 2z" fill="url(#e)"/><path d="M13.84 2c3.61 2.56 6 7.3 6 12.72A16.88 16.88 0 0 1 17.77 23H2V2z" fill="url(#f)"/><path d="M9.05 2l7.86 10.94A9.35 9.35 0 0 1 17.22 23H6.56L2 16.65V2z" fill="url(#g)"/><path d="M7.16 12.64l.36.49A21.45 21.45 0 0 1 11.69 23H2V2h1a20.5 20.5 0 0 0 4.16 10.64z" fill="#20123a"/></g><path fill="#fff" fill-opacity=".76" d="M16 2v13H2v15h28V2H16z"/><rect x="1" y="1" width="30" height="30" rx="2" fill="none" stroke="#08091a" stroke-opacity=".35" stroke-width="2"/><circle cx="9.5" cy="22.5" r="6" fill="#fff" fill-opacity=".8" stroke="#b7a1aa"/><path d="M12.5 22H7.71l2.14-2.15a.49.49 0 0 0-.7-.7l-3 3a.36.36 0 0 0-.11.16.5.5 0 0 0 0 .38.36.36 0 0 0 .11.16l3 3a.48.48 0 0 0 .7 0 .48.48 0 0 0 0-.7L7.71 23h4.79a.5.5 0 0 0 0-1zm8-2h4a.5.5 0 0 0 0-1h-4a.5.5 0 0 0 0 1zm4 2h-4a.5.5 0 0 0 0 1h4a.5.5 0 0 0 0-1zm0 3h-4a.5.5 0 0 0 0 1h4a.5.5 0 0 0 0-1z" fill="#5a2acb"/><path fill="#ac70ff" d="M16 2h14v1H16z"/><path d="M26.35 8.65l-3.5-3.5a.48.48 0 0 0-.7 0l-3.5 3.5a.49.49 0 0 0 .7.7l.65-.64v2.79a.5.5 0 0 0 .5.5h4a.5.5 0 0 0 .5-.5V8.71l.65.64a.48.48 0 0 0 .7 0 .48.48 0 0 0 0-.7zM24 11h-1V9h-1v2h-1V7.71l1.5-1.5 1.5 1.5z" fill="#5a2acb"/><path fill="#20123b" d="M15 2v12H2v1h14V2h-1z"/></svg>