<!-- This Source Code Form is subject to the terms of the Mozilla Public
   - License, v. 2.0. If a copy of the MPL was not distributed with this
   - file, You can obtain one at http://mozilla.org/MPL/2.0/. -->
<svg xmlns="http://www.w3.org/2000/svg" xmlns:xlink="http://www.w3.org/1999/xlink" width="680" height="92"><defs><linearGradient id="a" x1="340" y1="110.6483" x2="340" y2="48" gradientTransform="matrix(1, 0, 0, -1, 0, 94)" gradientUnits="userSpaceOnUse"><stop offset="0" stop-color="#ff6bba"/><stop offset="1" stop-color="#ffc999"/></linearGradient><linearGradient id="b" x1="594.6449" y1="19.413" x2="559.1679" y2="2.2744" gradientTransform="matrix(1, 0, 0, -1, 0, 94)" gradientUnits="userSpaceOnUse"><stop offset="0" stop-color="#fe82a4"/><stop offset="1" stop-color="#fe7fa3" stop-opacity="0"/></linearGradient><linearGradient id="c" x1="620.5032" y1="28.0963" x2="575.1182" y2="-6.4747" gradientTransform="matrix(1, 0, 0, -1, 0, 94)" gradientUnits="userSpaceOnUse"><stop offset="0" stop-color="#fc4ca0"/><stop offset="1" stop-color="#ffa769"/></linearGradient><linearGradient id="d" x1="653.6632" y1="78.8082" x2="619.4852" y2="-42.7065" gradientTransform="matrix(1, 0, 0, -1, 0, 94)" gradientUnits="userSpaceOnUse"><stop offset="0" stop-color="#7542e5"/><stop offset="0.15" stop-color="#8b4ee5"/><stop offset="0.62" stop-color="#ff4aa2"/><stop offset="1" stop-color="#ff778e"/></linearGradient><linearGradient id="e" x1="711.0562" y1="80.0741" x2="657.5361" y2="29.7641" gradientTransform="matrix(1, 0, 0, -1, 0, 94)" gradientUnits="userSpaceOnUse"><stop offset="0" stop-color="#20123a"/><stop offset="1" stop-color="#20123a" stop-opacity="0"/></linearGradient><linearGradient id="f" x1="57.8121" y1="32.2012" x2="102.6741" y2="11.5753" gradientTransform="matrix(1, 0, 0, -1, 0, 94)" gradientUnits="userSpaceOnUse"><stop offset="0" stop-color="#fc56a1"/><stop offset="1" stop-color="#fc56a1" stop-opacity="0"/></linearGradient><linearGradient id="g" x1="41.4175" y1="20.0672" x2="98.759" y2="-14.0228" xlink:href="#c"/><linearGradient id="h" x1="-18.9468" y1="59.324" x2="82.5921" y2="-10.5968" gradientTransform="matrix(1, 0, 0, -1, 0, 94)" gradientUnits="userSpaceOnUse"><stop offset="0" stop-color="#4e27a4"/><stop offset="0.34" stop-color="#8b4ee5"/><stop offset="0.73" stop-color="#ff4ad9"/><stop offset="1" stop-color="#ff778e"/></linearGradient><linearGradient id="i" x1="-37.3141" y1="83.7844" x2="97.6859" y2="-40.2126" gradientTransform="matrix(1, 0, 0, -1, 0, 94)" gradientUnits="userSpaceOnUse"><stop offset="0" stop-color="#20123a"/><stop offset="0.11" stop-color="#3f2574"/><stop offset="0.24" stop-color="#5f39b0"/><stop offset="0.34" stop-color="#7245d6"/><stop offset="0.39" stop-color="#7a4ae4"/><stop offset="0.45" stop-color="#7a4ae4" stop-opacity="0.97"/><stop offset="0.53" stop-color="#7949e4" stop-opacity="0.89"/><stop offset="0.63" stop-color="#7948e4" stop-opacity="0.75"/><stop offset="0.74" stop-color="#7846e4" stop-opacity="0.56"/><stop offset="0.86" stop-color="#7745e5" stop-opacity="0.32"/><stop offset="0.99" stop-color="#7542e5" stop-opacity="0.02"/><stop offset="1" stop-color="#7542e5" stop-opacity="0"/></linearGradient></defs><rect width="680" height="92" fill="url(#a)"/><rect x="520" width="160" height="144" fill="none"/><path d="M680,144H520V0H680Z" fill-rule="evenodd" fill="url(#b)"/><path d="M680,0V144H659.22C600.28,130.93,554.07,73,545,0Z" fill-rule="evenodd" fill="url(#c)"/><path d="M680,0V141.76C632.93,119.62,598.9,64.93,596,0Z" fill-rule="evenodd" fill="url(#d)"/><path d="M674.86,127.49l-.39-1L629,10.45A56.658,56.658,0,0,1,626,0h54V137A51.054,51.054,0,0,1,674.86,127.49Z" fill="#8c58ff" fill-rule="evenodd"/><path d="M674.86,127.49l-.39-1L629,10.45A56.658,56.658,0,0,1,626,0h54V137A51.054,51.054,0,0,1,674.86,127.49Z" fill-rule="evenodd" fill="url(#e)"/><path d="M665,0h15V28A130.5192,130.5192,0,0,0,665,0Z" fill="#20123a" fill-rule="evenodd"/><rect width="160" height="144" fill="none"/><path d="M0,0H160V144H0Z" fill-rule="evenodd" fill="url(#f)"/><path d="M72,0c36.11,10.62,63,50.61,63,98.31A119.9242,119.9242,0,0,1,126.15,144H0V21A77.431,77.431,0,0,1,33.72,0Z" fill-rule="evenodd" fill="url(#g)"/><path d="M70.51,0C94.74,17.55,111,50.05,111,87.23A117.8588,117.8588,0,0,1,96.88,144H0V0Z" fill-rule="evenodd" fill="url(#h)"/><path d="M38.32,0,91.08,75.05c14,19.89,14.37,48.66,2.11,69H21.64L0,113.23V0Z" fill-rule="evenodd" fill="url(#i)"/><path d="M25.59,73,28,76.33C42.91,95.86,52.22,119.42,56,144H0V14.59C4.07,35.79,12.59,56,25.59,73Z" fill="#20123a" fill-rule="evenodd"/><rect x="28" y="5" width="166" height="34" rx="4" fill="#fff" fill-opacity="0.75" stroke="#5a2acb" stroke-width="1.5"/><path d="M53,20H170a2,2,0,0,1,2,2h0a2,2,0,0,1-2,2H53a2,2,0,0,1-2-2h0A2,2,0,0,1,53,20Z" fill="#15141a"/><path d="M223,20H340a2,2,0,0,1,2,2h0a2,2,0,0,1-2,2H223a2,2,0,0,1-2-2h0A2,2,0,0,1,223,20Z" fill="#15141a"/><rect y="44" width="680" height="48" fill="#fff" fill-opacity="0.75"/><circle cx="24" cy="68" r="6.25" fill="none" stroke="#5a2acb" stroke-width="1.5"/><circle cx="60" cy="68" r="6.25" fill="none" stroke="#5a2acb" stroke-width="1.5"/><line x1="663" y1="73.75" x2="649" y2="73.75" fill="none" stroke="#5a2acb" stroke-width="1.5"/><line x1="663" y1="67.75" x2="649" y2="67.75" fill="none" stroke="#5a2acb" stroke-width="1.5"/><line x1="663" y1="61.75" x2="649" y2="61.75" fill="none" stroke="#5a2acb" stroke-width="1.5"/><rect x="114" y="52" width="488" height="32" rx="4" fill="#fff" fill-opacity="0.8"/><circle cx="130" cy="68" r="6.25" fill="none" stroke="#36294e" stroke-width="1.5"/><path d="M148,66H452a2,2,0,0,1,2,2h0a2,2,0,0,1-2,2H148a2,2,0,0,1-2-2h0A2,2,0,0,1,148,66Z" fill="#20123b"/></svg>
