<!-- This Source Code Form is subject to the terms of the Mozilla Public
   - License, v. 2.0. If a copy of the MPL was not distributed with this
   - file, You can obtain one at http://mozilla.org/MPL/2.0/. -->
<svg width="16" height="16" viewBox="0 0 16 16" xmlns="http://www.w3.org/2000/svg" fill="context-fill">
  <path fill-rule="evenodd" clip-rule="evenodd" d="M4.36968 15.003H3.89191C3.3109 15.003 2.89285 14.7972 2.63676 14.3844C2.38067 13.9703 2.25211 13.2061 2.25211 12.0879V11.3224C2.25211 10.3257 2.15393 9.63235 1.95655 9.24224C1.75815 8.8508 1.44032 8.65441 1 8.65441V7.35317C1.44032 7.35317 1.75916 7.15812 1.95655 6.76534C2.15393 6.37524 2.25313 5.68187 2.25313 4.68656V3.9117C2.25313 2.79883 2.38067 2.03599 2.63676 1.62451C2.89285 1.21036 3.3109 1.00462 3.89191 1.00462H4.36968V2.05068H4.18849C3.81397 2.05068 3.55282 2.15756 3.40503 2.37132C3.25826 2.58374 3.18437 3.09275 3.18437 3.89567V4.40735C3.18437 5.50819 3.0872 6.32046 2.89386 6.84283C2.70053 7.36386 2.37156 7.74996 1.90796 7.99978C2.37156 8.25496 2.70053 8.64372 2.89386 9.16609C3.0872 9.68712 3.18437 10.4994 3.18437 11.6016V12.1119C3.18437 12.9162 3.25826 13.4238 3.40503 13.6376C3.55282 13.8514 3.81397 13.9569 4.18849 13.9569H4.37069L4.36968 15.003ZM15 8.65441C14.5647 8.65441 14.2469 8.8508 14.0465 9.24224C13.8471 9.63235 13.7469 10.3257 13.7469 11.3224V12.0879C13.7469 13.2061 13.6203 13.9716 13.3663 14.3844C13.1122 14.7972 12.6942 15.003 12.1142 15.003H11.6303V13.9569H11.8176C12.1921 13.9569 12.4533 13.85 12.601 13.6363C12.7478 13.4238 12.8217 12.9162 12.8217 12.1133V11.6016C12.8217 10.4994 12.9189 9.68712 13.1122 9.16609C13.3055 8.64506 13.6345 8.25496 14.0981 7.99978C13.6345 7.74996 13.3055 7.36386 13.1122 6.84283C12.9189 6.32046 12.8217 5.50819 12.8217 4.40735V3.89567C12.8217 3.09141 12.7478 2.58374 12.601 2.36998C12.4533 2.15756 12.1921 2.05068 11.8176 2.05068H11.6303V1.00462H12.1142C12.6942 1.00462 13.1122 1.21169 13.3663 1.62451C13.6193 2.03599 13.7469 2.80017 13.7469 3.9117V4.68656C13.7469 5.58568 13.8359 6.255 14.0131 6.69454C14.1912 7.13407 14.5192 7.35317 15 7.35317V8.65441Z"/>
</svg>
