<svg xmlns="http://www.w3.org/2000/svg" xmlns:xlink="http://www.w3.org/1999/xlink" viewBox="0 0 352 303"><defs><style>.cls-1{fill:none;}.cls-2{fill:#eaeaee;}.cls-3{fill:#f9f9fa;}.cls-4{fill:#e1e1e6;}.cls-5{fill:#fff;}.cls-6{fill:#ccedf0;}.cls-7{fill:url(#New_Gradient_Swatch_1);}.cls-8{fill:url(#New_Gradient_Swatch_1-2);}.cls-9{fill:url(#New_Gradient_Swatch_1-3);}.cls-10{fill:url(#New_Gradient_Swatch_1-4);}.cls-11{fill:url(#New_Gradient_Swatch_1-5);}.cls-12{fill:url(#New_Gradient_Swatch_1-6);}.cls-13{fill:url(#New_Gradient_Swatch_1-7);}.cls-14{fill:url(#New_Gradient_Swatch_1-8);}.cls-15{fill:url(#New_Gradient_Swatch_1-9);}.cls-16{fill:url(#New_Gradient_Swatch_1-10);}.cls-17{fill:url(#New_Gradient_Swatch_1-11);}.cls-18{fill:url(#New_Gradient_Swatch_1-12);}.cls-19{fill:url(#New_Gradient_Swatch_1-13);}</style><linearGradient id="New_Gradient_Swatch_1" x1="32.85" y1="-164.62" x2="464.89" y2="267.42" gradientUnits="userSpaceOnUse"><stop offset="0" stop-color="#00c8d7"/><stop offset="1" stop-color="#0a84ff"/></linearGradient><linearGradient id="New_Gradient_Swatch_1-2" x1="251.69" y1="167.11" x2="323.02" y2="238.45" xlink:href="#New_Gradient_Swatch_1"/><linearGradient id="New_Gradient_Swatch_1-3" x1="-54.51" y1="-77.26" x2="377.54" y2="354.78" xlink:href="#New_Gradient_Swatch_1"/><linearGradient id="New_Gradient_Swatch_1-4" x1="-14.77" y1="-117" x2="417.27" y2="315.04" xlink:href="#New_Gradient_Swatch_1"/><linearGradient id="New_Gradient_Swatch_1-5" x1="20.3" y1="-152.07" x2="452.35" y2="279.97" xlink:href="#New_Gradient_Swatch_1"/><linearGradient id="New_Gradient_Swatch_1-6" x1="-37.83" y1="-93.94" x2="394.21" y2="338.1" xlink:href="#New_Gradient_Swatch_1"/><linearGradient id="New_Gradient_Swatch_1-7" x1="18.94" y1="-150.71" x2="450.98" y2="281.33" xlink:href="#New_Gradient_Swatch_1"/><linearGradient id="New_Gradient_Swatch_1-8" x1="-10.34" y1="-121.43" x2="421.71" y2="310.61" xlink:href="#New_Gradient_Swatch_1"/><linearGradient id="New_Gradient_Swatch_1-9" x1="-71.71" y1="-60.06" x2="360.33" y2="371.98" xlink:href="#New_Gradient_Swatch_1"/><linearGradient id="New_Gradient_Swatch_1-10" x1="-50.96" y1="-80.81" x2="381.08" y2="351.23" xlink:href="#New_Gradient_Swatch_1"/><linearGradient id="New_Gradient_Swatch_1-11" x1="23.51" y1="-155.28" x2="455.55" y2="276.76" xlink:href="#New_Gradient_Swatch_1"/><linearGradient id="New_Gradient_Swatch_1-12" x1="2.08" y1="-133.85" x2="434.12" y2="298.2" xlink:href="#New_Gradient_Swatch_1"/><linearGradient id="New_Gradient_Swatch_1-13" x1="-4.89" y1="-126.88" x2="427.16" y2="305.16" xlink:href="#New_Gradient_Swatch_1"/></defs><title>private</title><path class="cls-1" d="M0 0h352v303H0z" id="Layer_1" data-name="Layer 1"/><g id="Layer_2" data-name="Layer 2"><path class="cls-1" d="M304 279.51a20 20 0 0 1-.08-2.56c0-1.16.09-2.89.15-4.86a73.12 73.12 0 0 1-16.82 1.86c-2.29 0-4.64-.09-7-.28-1.61-.13-3.13-.29-4.58-.5.07 2.27.13 4.3.17 5.62h1c9.66-.01 18.86.21 27.16.72zM238.25 73.79s-.16-.37-.4-1l-6.34 1zM276.8 200.29z"/><path class="cls-2" d="M310.37 286.24a6 6 0 0 1-4.37-1.84 7.89 7.89 0 0 1-2-4.89c-8.3-.46-17.5-.72-27.2-.72h-1v.07c.07 2.54-.12 5.41-2.1 7.45a6 6 0 0 1-4.34 1.85c-3.87 0-6.4-3.19-9.46-9.1-28.4.92-49.35 4.12-49.35 7.93 0 4.53 29.65 8.2 66.22 8.2S343 291.51 343 287c0-2.6-9.82-4.92-25.1-6.43-2.28 3.7-4.49 5.67-7.53 5.67zM239.79 102.78a1.32 1.32 0 0 0 .23-.71 1.36 1.36 0 0 0-1.36-1.36h-68v2.73h60.63a12.75 12.75 0 0 1 5.1-.94 24.55 24.55 0 0 1 3.4.28zM181.3 96.51a.68.68 0 0 0 0-1.36h-10.64v1.36zM196.14 108.83a.68.68 0 0 0-.68-.68h-16.35a.68.68 0 1 0 0 1.36h16.35a.68.68 0 0 0 .68-.68zM206.36 109.51h4.09a.68.68 0 1 0 0-1.36h-4.09a.68.68 0 0 0 0 1.36zM215.9 109.51h1.36a.68.68 0 1 0 0-1.36h-1.36a.68.68 0 1 0 0 1.36zM258.2 109.51h2.66a.68.68 0 1 0 0-1.36h-4.09a.67.67 0 0 0-.54.28l.33.17c.5.25 1.05.57 1.64.91zM267.68 108.15h-1.36a.68.68 0 1 0 0 1.36h1.36a.68.68 0 1 0 0-1.36zM246.2 38.45a.17.17 0 0 0-.19-.14l-7.3 1.15a.17.17 0 0 0-.14.19l.48 3 7.63-1.2zM237.85 72.79c-.22-.59-.51-1.42-.78-2.42h-1A.68.68 0 1 1 236 69h.69c-.06-.26-.12-.52-.17-.79a11.38 11.38 0 1 1 4.19-15.14 17.1 17.1 0 0 1 8-3c.36 0 .7-.08 1-.11l-.52-3.31a22.63 22.63 0 0 0-2.83.57l.72-.11c.07 0 .14 0 .14.05l.37 2.36s0 .08-.12.1l-5.79.91c-.07 0-.14 0-.14-.05l-.14-.9a10.52 10.52 0 0 0-1.31 1.16.68.68 0 1 1-1-.93c2.23-2.38 5.55-3.89 9.88-4.5l-.25-2.31a1.78 1.78 0 0 0-2-1.48L239 42.68l-28.69 4.52a1.78 1.78 0 0 0-1.48 2l3.11 19.8h13.19a.68.68 0 1 1 0 1.36h-13l.54 3.42h18.82zM215.7 65.6a2.12 2.12 0 1 1 1.76-2.42 2.12 2.12 0 0 1-1.76 2.42z"/><path class="cls-3" d="M241.66 50.52s.07.07.14.05l5.79-.91c.07 0 .13-.05.12-.1l-.37-2.36s-.07-.07-.14-.05l-.72.11a14.24 14.24 0 0 0-5 2.36z"/><circle class="cls-3" cx="215.37" cy="63.51" r="2.12" transform="rotate(-8.95 215.312 63.517)"/><path class="cls-3" d="M229 47.21a11.38 11.38 0 1 0 7.6 21 23.86 23.86 0 0 1-.5-5.05 7.14 7.14 0 1 1 1.55-6.51 10.92 10.92 0 0 1 3.14-3.58A11.37 11.37 0 0 0 229 47.21z"/><path class="cls-2" d="M229.61 51.39A7.15 7.15 0 1 0 236 63.16v-.82s0-.31-.07-.47a.68.68 0 0 1 .15-.51 13 13 0 0 1 1.43-4.71 7.12 7.12 0 0 0-7.9-5.26zm2.94 6.12a1.3 1.3 0 1 1 1.08-1.51 1.3 1.3 0 0 1-1.08 1.5z"/><circle class="cls-3" cx="232.34" cy="56.22" r="1.3" transform="matrix(1 -.16 .16 1 -5.92 36.82)"/><path class="cls-2" d="M92.57 7.15a.16.16 0 0 0-.18-.15l-7.06.61a.16.16 0 0 0-.15.17l.26 2.93 7.38-.64zM61.24 27a2 2 0 0 1 2.09 1.38 16.73 16.73 0 0 1 5 6.55 7.35 7.35 0 0 1 .67-1.71l-.13-.12a.69.69 0 0 1-.64-.43s-.09-.22-.23-.51a10.91 10.91 0 1 1 13.74 2.61 30.69 30.69 0 0 1 3 4.46l10.56-.92a1.71 1.71 0 0 0 1.55-1.85l-2.17-24.83a1.71 1.71 0 0 0-1.85-1.55l-7.38.64-27.78 2.42A1.71 1.71 0 0 0 56.12 15l1 11.12a11.25 11.25 0 0 1 4 1zm32.26 9.56a.68.68 0 0 1-.68.68h-4.09a.68.68 0 1 1 0-1.36h4.09a.68.68 0 0 1 .68.68zm-.42-21l.2 2.28s-.05.08-.12.08l-5.6.49c-.07 0-.13 0-.13-.06l-.2-2.28s.05-.08.12-.08l5.6-.49c.05.03.12.06.13.1zm-33.87 8.8h-.14a10.85 10.85 0 0 0-1.27-.18.68.68 0 0 1 .11-1.36 12 12 0 0 1 1.43.21.68.68 0 0 1-.14 1.35z"/><path class="cls-3" d="M87.35 16c-.07 0-.12 0-.12.08l.2 2.28s.06.07.13.06l5.6-.49c.07 0 .12 0 .12-.08l-.2-2.28s-.06-.07-.13-.06z"/><path class="cls-4" d="M61.24 27h-.17a12.11 12.11 0 0 1 2.26 1.35A2 2 0 0 0 61.24 27z"/><path class="cls-3" d="M87.3 24.3A10.91 10.91 0 1 0 68 32.16c-.07-.15-.16-.33-.26-.54a.68.68 0 0 1 1-.89 7.35 7.35 0 0 1 1.66-2.29 6.86 6.86 0 1 1 11 1.47.67.67 0 0 1-1 .88 6.78 6.78 0 0 1-1.81.94 16.79 16.79 0 0 1 3.13 3A10.9 10.9 0 0 0 87.3 24.3z"/><path class="cls-3" d="M69.59 32.3A5.31 5.31 0 0 1 72 30.45a6.88 6.88 0 0 1-.87-.88 6.39 6.39 0 0 0-1.54 2.73zM68.88 33.1l.13.12.12-.21a.64.64 0 0 1-.14.07z"/><path class="cls-2" d="M80.4 30.78a10.27 10.27 0 0 0-4.62-2.42 7 7 0 0 0-1.31-.13 4.55 4.55 0 0 0-3.35 1.35 6.88 6.88 0 0 0 .87.88 6.18 6.18 0 0 1 3.4-.21 8.23 8.23 0 0 1 3.22 1.48 6.78 6.78 0 0 0 1.81-.94z"/><path class="cls-2" d="M76 27a11.6 11.6 0 0 1 5.24 2.72.67.67 0 0 1 .14.17 6.83 6.83 0 1 0-11-1.47 5.86 5.86 0 0 1 4.1-1.58A8.36 8.36 0 0 1 76 27zm2-5a1.25 1.25 0 1 1-1.13 1.35A1.25 1.25 0 0 1 78 22z"/><circle class="cls-3" cx="78.14" cy="23.22" r="1.25" transform="rotate(-4.97 78.17 23.25)"/><path class="cls-5" d="M303.13 73.8c-2.56-4.69-8.92-14.85-16.89-16.37-10.56-2-12.67 8.52-12.67 8.52S266.82 48.43 249.83 50c-.35 0-.69.06-1 .11a17.1 17.1 0 0 0-8 3 10.92 10.92 0 0 0-3.14 3.58 13 13 0 0 0-1.43 4.71.68.68 0 0 1 .45-.25.7.7 0 0 1 .75.6c.05.45.11.89.18 1.31a.68.68 0 0 1-.56.78h-.11a.68.68 0 0 1-.67-.57c0-.3-.09-.61-.13-.92v.82a23.86 23.86 0 0 0 .5 5.05c.05.27.11.54.17.79h1l-.13-.35a.68.68 0 0 1 1.28-.46c.27.76.47 1.21.48 1.22a.68.68 0 0 1-.62 1h-1.7c.28 1 .56 1.83.78 2.42s.4 1 .4 1h64.88z"/><path class="cls-2" d="M302.55 67.89a.68.68 0 0 0 1.16-.72c-.74-1.19-1.53-2.34-2.33-3.43a.68.68 0 1 0-1.1.81c.79 1.05 1.55 2.18 2.27 3.34zM320.49 71.21H331a.68.68 0 1 0 0-1.36h-10.51a.68.68 0 1 0 0 1.36zM267.48 53.09a.68.68 0 0 0 1-.95 25.78 25.78 0 0 0-3.15-2.77.68.68 0 1 0-.81 1.1 24.28 24.28 0 0 1 2.96 2.62zM306.86 71.21h1.36a.68.68 0 1 0 0-1.36h-1.36a.68.68 0 1 0 0 1.36zM271.54 58.37a.68.68 0 1 0 1.17-.71c-.23-.38-.48-.77-.75-1.18a.68.68 0 1 0-1.13.76c.25.39.49.76.71 1.13zM278.55 55.65a8.71 8.71 0 0 1 5.62-1.89 13.16 13.16 0 0 1 2.45.24 15.86 15.86 0 0 1 6.25 2.88.68.68 0 1 0 .8-1.1 17.19 17.19 0 0 0-6.79-3.11 14.59 14.59 0 0 0-2.71-.27 10 10 0 0 0-6.47 2.2.68.68 0 1 0 .85 1.06zM239.25 50.82a.68.68 0 0 0 1 0 10.52 10.52 0 0 1 1.31-1.16 14.24 14.24 0 0 1 5-2.36 22.63 22.63 0 0 1 2.83-.57h.08a21.88 21.88 0 0 1 5.44-.08.68.68 0 1 0 .15-1.35 23.21 23.21 0 0 0-5.78.09h-.11c-4.33.61-7.65 2.12-9.88 4.5a.68.68 0 0 0-.04.93zM235.35 69.69a.68.68 0 0 0 .68.68h2.73a.68.68 0 0 0 .62-1s-.2-.46-.48-1.22a.68.68 0 0 0-1.28.46l.13.35H236a.68.68 0 0 0-.65.73zM225.81 69.69a.68.68 0 0 0-.68-.68h-16.35a.68.68 0 1 0 0 1.36h16.35a.68.68 0 0 0 .68-.68zM236 61.88c0 .16 0 .31.07.47 0 .31.08.62.13.92a.68.68 0 0 0 .67.57h.13a.68.68 0 0 0 .56-.78c-.07-.43-.13-.87-.18-1.31a.7.7 0 0 0-.75-.6.69.69 0 0 0-.6.75z"/><path class="cls-5" d="M208.26 76.52h123.57a1.36 1.36 0 0 0 0-2.73H208.26a1.36 1.36 0 0 0 0 2.73zM84.81 39.38l-.08-.15a30.69 30.69 0 0 0-3-4.46 16.79 16.79 0 0 0-3.13-3 8.23 8.23 0 0 0-3.22-1.48 6.18 6.18 0 0 0-3.4.21 5.31 5.31 0 0 0-2.4 1.85c0 .14-.06.23-.06.25a.66.66 0 0 1-.4.46l-.12.21a7.35 7.35 0 0 0-.65 1.73 16.73 16.73 0 0 0-5-6.55 12.11 12.11 0 0 0-2.26-1.35 11.25 11.25 0 0 0-4-1 12.52 12.52 0 0 0-2.52.07c-7.27 1-7.52 6.35-6.83 9.92h1.16a.68.68 0 0 1 0 1.36h-.84a15.07 15.07 0 0 0 .65 1.88H32h1.83z"/><path class="cls-2" d="M98.27 37.24h1.36a.68.68 0 0 0 0-1.36h-1.36a.68.68 0 1 0 0 1.36zM49.26 27.3a.68.68 0 0 0 .55-.28 6.18 6.18 0 0 1 2.93-2.14.68.68 0 1 0-.48-1.27 7.49 7.49 0 0 0-3.56 2.62.68.68 0 0 0 .55 1.08zM59.34 23.06a12 12 0 0 0-1.43-.21.68.68 0 0 0-.11 1.36 10.85 10.85 0 0 1 1.27.18h.14a.68.68 0 0 0 .14-1.35zM88.73 35.88a.68.68 0 1 0 0 1.36h4.09a.68.68 0 0 0 0-1.36zM74.48 28.22a7 7 0 0 1 1.31.13 10.27 10.27 0 0 1 4.62 2.42.67.67 0 0 0 1-.88.67.67 0 0 0-.14-.17A11.6 11.6 0 0 0 76 27a8.36 8.36 0 0 0-1.56-.15 5.86 5.86 0 0 0-4.1 1.58 7.35 7.35 0 0 0-1.66 2.29.68.68 0 0 0-1 .89c.11.21.19.38.26.54s.21.48.23.51a.69.69 0 0 0 .64.43H69a.64.64 0 0 0 .14-.07.66.66 0 0 0 .4-.46s0-.11.06-.25a6.39 6.39 0 0 1 1.53-2.73 4.55 4.55 0 0 1 3.35-1.36zM49.58 36.78a.68.68 0 0 0-.68-.68H32.55a.68.68 0 0 0 0 1.36H48.9a.68.68 0 0 0 .68-.68z"/><path class="cls-5" d="M32.34 42.1h68.72a1.36 1.36 0 1 0 0-2.73H32.34a1.36 1.36 0 1 0 0 2.73z"/><path class="cls-3" d="M66.2 133.52c-8.52.37-12 5.43-12 6.68s5.62 4.8 11.14 4.8 12-2 12-3.82c.03-2.03-3.1-8-11.14-7.66zM102.27 133.52c-8-.35-11.16 5.62-11.16 7.63 0 1.8 6.5 3.82 12 3.82s11.16-3.52 11.16-4.77-3.48-6.31-12-6.68z"/><path class="cls-3" d="M167.94 85.81V66.65a5.16 5.16 0 0 0-5.16-5.16H8a5.16 5.16 0 0 0-5.16 5.16v144.16a4.64 4.64 0 0 0 4.79 4.48h155.52a4.64 4.64 0 0 0 4.79-4.48zm-13.52-15.72a3.49 3.49 0 1 1-3.49 3.49 3.49 3.49 0 0 1 3.49-3.49zm-11.25 0a3.49 3.49 0 1 1-3.49 3.49 3.49 3.49 0 0 1 3.5-3.49zM42.74 73.41a3.77 3.77 0 0 1 3.77-3.77h77.77a3.77 3.77 0 0 1 3.77 3.77v.34a3.77 3.77 0 0 1-3.77 3.77H46.51a3.77 3.77 0 0 1-3.77-3.77zm-15.13-3.32a3.49 3.49 0 1 1-3.49 3.49 3.49 3.49 0 0 1 3.49-3.49zm-11.25 0a3.49 3.49 0 1 1-3.49 3.49 3.49 3.49 0 0 1 3.5-3.49zm144.33 141.07H10.1c-2.51 0-3-.49-3-3V85.81h156.59v122.35c0 2.51-.49 3-3 3z"/><path class="cls-3" d="M162.33 87.17H8.46v121c0 1.17.13 1.43.17 1.49a3.46 3.46 0 0 0 1.47.15h150.59c1.16 0 1.43-.13 1.48-.17a3.47 3.47 0 0 0 .16-1.48zm-54.9 75c-8.75 0-14.8-10.49-23.19-10.49s-15 10.49-23.19 10.49c-10.79 0-18.76-10.19-18.89-27.66-.08-10.84 3.17-14.31 17.18-14.31s18.12 5.72 24.91 5.72 10.9-5.72 24.91-5.72 17.26 3.46 17.18 14.31c-.15 17.43-8.12 27.63-18.91 27.63z"/><path class="cls-2" d="M170.66 96.51V66.65a7.9 7.9 0 0 0-7.89-7.89H8a7.9 7.9 0 0 0-7.87 7.89v144.16A7.37 7.37 0 0 0 7.64 218h155.51a7.37 7.37 0 0 0 7.51-7.21V96.51zm-7.51 118.79H7.64a4.64 4.64 0 0 1-4.79-4.48V66.65A5.16 5.16 0 0 1 8 61.48h154.77a5.16 5.16 0 0 1 5.16 5.16v144.17a4.64 4.64 0 0 1-4.78 4.49z"/><path class="cls-2" d="M163.69 85.81H7.1v122.35c0 2.51.49 3 3 3h150.59c2.51 0 3-.49 3-3zm-1.52 123.83c-.05 0-.32.17-1.48.17H10.1a3.46 3.46 0 0 1-1.47-.15c0-.05-.17-.32-.17-1.49v-121h153.87v121a3.47 3.47 0 0 1-.16 1.47z"/><circle class="cls-2" cx="16.37" cy="73.58" r="3.49"/><circle class="cls-2" cx="27.61" cy="73.58" r="3.49"/><rect class="cls-2" x="42.74" y="69.63" width="85.32" height="7.89" rx="3.77" ry="3.77"/><circle class="cls-2" cx="143.18" cy="73.58" r="3.49"/><circle class="cls-2" cx="154.42" cy="73.58" r="3.49"/><path class="cls-2" d="M109.14 120.17c-14 0-18.12 5.72-24.91 5.72s-10.89-5.72-24.91-5.72-17.26 3.46-17.18 14.31c.13 17.47 8.1 27.66 18.89 27.66 8.23 0 14.8-10.49 23.19-10.49s14.44 10.49 23.19 10.49c10.79 0 18.76-10.19 18.89-27.66.1-10.85-3.15-14.31-17.16-14.31zM65.34 145c-5.52 0-11.16-3.52-11.16-4.77s3.51-6.31 12-6.68c8-.35 11.16 5.62 11.16 7.63.03 1.82-6.48 3.82-12 3.82zm37.79 0c-5.52 0-12-2-12-3.82 0-2 3.13-8 11.16-7.63 8.52.37 12 5.43 12 6.68s-5.64 4.77-11.16 4.77z"/><path class="cls-5" d="M347 149.35a2.11 2.11 0 0 1 2.25-1.95 1.24 1.24 0 0 1 .92.43 1.23 1.23 0 0 0-.93-.45h-.15a2.11 2.11 0 0 0-2.1 2c0 .06 0 .62-.09 1.43.04-.81.1-1.4.1-1.46zM351.12 151.5l-.07.16.08-.18a2.1 2.1 0 0 1 .7-.85 2.1 2.1 0 0 0-.71.87zM341.11 149.46a2.3 2.3 0 0 1 1-3.08c1.13-.56 2 .84 2.61 1.56a11.23 11.23 0 0 1 1.54 1.67 10.85 10.85 0 0 0-1.55-1.69c-.52-.6-1.21-1.69-2.09-1.69a1.17 1.17 0 0 0-.52.13 2.3 2.3 0 0 0-1 3.08l1.77 3.56.78 1.57-.77-1.55zM333.82 157.26a14 14 0 0 0 2-1.44 7.39 7.39 0 0 1 4.05-.76 14.94 14.94 0 0 1 3.46 1 15 15 0 0 0-3.44-1 3.67 3.67 0 0 0-.66-.05 7.6 7.6 0 0 0-3.39.81 14 14 0 0 1-2 1.44 4.34 4.34 0 0 0-1.08.61 4.25 4.25 0 0 1 1.06-.61zM227 188a3.83 3.83 0 0 1-1.26-.68 3.81 3.81 0 0 0 1.26.68zM231.85 183.61a3.82 3.82 0 0 1-3.74 4.54 3.78 3.78 0 0 1-.55 0 3.72 3.72 0 0 0 2-.21 3.82 3.82 0 0 0 2.33-4.27 2.89 2.89 0 0 1 .51-2.27 2.88 2.88 0 0 0-.55 2.21zM229.07 183.12h-1.89a2.43 2.43 0 0 0-.09 1.67 1.1 1.1 0 0 0 1 .69 1.07 1.07 0 0 0 .4-.08 1.09 1.09 0 0 0 .67-1.21 5.54 5.54 0 0 1-.09-1.07zM232 142.68c-.1.2-.17.4-.26.59l.38-.78zM229.14 166.63q-.25-1-.44-2.1c-.06-.36-.1-.72-.15-1.08.05.35.08.7.14 1.06.12.72.31 1.42.45 2.12zM286.9 112.33h-2.13a66.89 66.89 0 0 0-11.61 1.07 74.11 74.11 0 0 0-13.16 3.46 40.07 40.07 0 0 0-6.31-4.14 55.41 55.41 0 0 0-7.49-3.28c-1.42-.5-2.83-.94-4.19-1.29a25.13 25.13 0 0 0-5.93-.88 6.71 6.71 0 0 0-3.43.73l-.21.15a5.1 5.1 0 0 0-1.21 1.36c-3.19 5-4.92 19.22.11 31.63l.12-.18c-5.64-14-2.63-30.4 1.3-32.79 3.37-2 13.51.8 20.86 4.73a39.92 39.92 0 0 1 6.28 4.12 73.87 73.87 0 0 1 13.32-3.55 64.58 64.58 0 0 1 13.87-1 39.55 39.55 0 0 1 4.63-6.25c5.57-6.21 14.14-12.34 18-11.57 4.54.91 13 15.41 12.41 30.64l.15.12c.67-15.36-8-30-12.55-31a3.94 3.94 0 0 0-.77-.07c-4.3 0-12.14 5.85-17.39 11.7-.55.61-1.15 1.33-1.76 2.1-.34.43-.68.89-1 1.36-.69.9-1.33 1.83-1.91 2.83zM332.34 159.81a1.88 1.88 0 0 0 .08.22h-.13.14a2.23 2.23 0 0 1-.09-.22zM306.63 191.87l-.06.15c8.45-.56 17-2.52 19.42-4.55-.12.39-.21.63-.21.64a.77.77 0 0 0 .46 1 .8.8 0 0 0 .26 0 .77.77 0 0 0 .72-.51 35.89 35.89 0 0 0 1.23-4.59c-.59 2.52-1.25 4.44-1.3 4.57a.68.68 0 1 1-1.29-.45s.16-.45.37-1.16l-.07.11c-1.7 1.92-10.16 4.19-19.53 4.79zM210.3 178.28c.47.7.5 1.1.83 1.57-.31-.47-.35-.85-.83-1.57zM259.84 220.48a86.89 86.89 0 0 0-3.49 13.7 87.83 87.83 0 0 1 3.65-14.03l-.12.32zM333.68 162.76zM324.6 191.31a39.51 39.51 0 0 1-6.23 1.83 16.35 16.35 0 0 0 6.56-1.65zM332.91 176.42a7.09 7.09 0 0 1-.19-1.18q-.39-.27-.77-.58c0 1.57-.07 3.2-.15 4.77a37.91 37.91 0 0 1-1.23 7.52 13.74 13.74 0 0 0 2.34-10.53zM328 170.62l-.44.73a53.94 53.94 0 0 1 .44 6c.14-2.43.11-4.79 0-6.73zM217.07 186.36v.07zM251.64 204.15l-.27.25a3.5 3.5 0 0 1-4.91-.45 39.43 39.43 0 0 1-5.35-8.83c-.75-1.78-1.48-3.65-2.13-5.39a12.41 12.41 0 0 1-1.68 2.89 6.73 6.73 0 0 1 .16 1.14 13.5 13.5 0 0 0 7.94 10.91 16.81 16.81 0 0 0 6.63 1.4 18.76 18.76 0 0 0 9.68-2.89 52.8 52.8 0 0 1-9.18 1z"/><path class="cls-5" d="M249.36 200.93l.3.33a.68.68 0 0 1-1 .93c0-.05-.45-.48-1-1.19.52.71.88 1.15.92 1.2a.77.77 0 1 0 1.18-1 12.91 12.91 0 0 0 2.82.26 63 63 0 0 0 14.69-2.33l-.09-.11a61.33 61.33 0 0 1-14.55 2.28 11.4 11.4 0 0 1-3.27-.37zM265.27 277.4c-.44-.79-.91-1.68-1.43-2.71-.28-.55-.53-1.11-.78-1.68.24.56.49 1.12.76 1.66.53 1.04 1 1.93 1.45 2.73zM330.89 168.8a8.15 8.15 0 0 0 .4.84 8.16 8.16 0 0 1-.39-.82c-.33-.81.13-2.16 0-3.06 0-.34-.07-.68-.1-1 0 .31.06.63.09 1 .11.88-.33 2.24 0 3.04zM241.8 186.16c.6 1.91 1.36 4.13 2.24 6.3a56 56 0 0 1-1.5-5.71zM219.67 190.79a9.29 9.29 0 0 1-.6-.91 9.36 9.36 0 0 0 .6.91zM267 202.39c.36-.81.72-1.6 1.07-2.34-.35.72-.71 1.51-1.07 2.34zM213.87 170.72a2.1 2.1 0 0 1 1 .14 2.09 2.09 0 0 0-.8-.18 2.2 2.2 0 0 0-.2.04zM231 175.73a14 14 0 0 1-2.34-.79 4.47 4.47 0 0 0-1.11-.12 7.39 7.39 0 0 0-3 .58 18.46 18.46 0 0 0-1.94 1.17v.06a18.27 18.27 0 0 1 2-1.2 7.39 7.39 0 0 1 4.1-.46 14 14 0 0 0 2.34.79 2.37 2.37 0 0 1 1.89.83 2.34 2.34 0 0 0-1.94-.86zM212.64 173.26c.16.73.13 1.54.23 2.21l-.13-.15a2.12 2.12 0 0 0-1.6-.73h-.2a2.12 2.12 0 0 1 1.82.71l.13.15c-.1-.67-.07-1.48-.23-2.21-.23-1-.38-2 .7-2.43a2.08 2.08 0 0 1 .27-.08 2 2 0 0 0-.29.05c-1.08.46-.92 1.44-.7 2.48zM233.16 177.5l.69-.12zM339 165.72h.09a1.09 1.09 0 0 0 1.08-1 2.43 2.43 0 0 0-.57-1.57l-1.79.6a5.65 5.65 0 0 1 .2 1 1.09 1.09 0 0 0 .99.97z"/><path class="cls-5" d="M339.08 168.45h-.32a3.82 3.82 0 0 1-2.77-1.56 3.81 3.81 0 0 0 6.9-1.91 5 5 0 0 0-.79-3 5 5 0 0 1 .78 3 3.82 3.82 0 0 1-3.8 3.47zM309 276.42a9.5 9.5 0 0 0 .24 2.86 9.79 9.79 0 0 1-.23-2.84c.07-2.3.21-6.89.34-11.09-.11 4.2-.25 8.77-.35 11.07zM219.82 167.77h-.21c-1.08 0-1.46 1.46-1.83 2.28a7.77 7.77 0 0 0-1.08 2.5l-.14.83.14-.84a7.77 7.77 0 0 1 1.08-2.5c.38-.87.79-2.47 2-2.26a2.29 2.29 0 0 1 1.49.92 2.29 2.29 0 0 0-1.45-.93zM209.72 177.5c-.61-.91-.7-1.71.07-2.37a2 2 0 0 1 .25-.18 1.91 1.91 0 0 0-.26.16c-.78.66-.68 1.47-.06 2.39zM224 270.32a1.36 1.36 0 0 1-1.92.18 1.34 1.34 0 0 1-.46-.83h-.19a1.52 1.52 0 0 0 .53 1 1.54 1.54 0 0 0 2.17-.21s.19-.24.42-.57h-.18c-.17.22-.31.39-.37.43zM197.16 241.93a.67.67 0 0 1 .23-.55c.31-.26 5.66-4.64 15.24-7.44a1.33 1.33 0 0 1 .54-.49 1.34 1.34 0 0 1 1.14 0 57.45 57.45 0 0 1 9.15-1.58 1.33 1.33 0 0 1 2.14-.14c.43 0 .83-.06 1.27-.08 2.74-.1 5.28 0 7.65.09a1.37 1.37 0 0 1 1.14-.31 2.05 2.05 0 0 1 .69.42 70.22 70.22 0 0 1 9.58 1.41 1.35 1.35 0 0 1 1.76-.08s.34.28.76.69a44.2 44.2 0 0 1 6.67 2.29v-.11a44.62 44.62 0 0 0-6.44-2.22c-.5-.49-.84-.77-.89-.81a1.48 1.48 0 0 0-.93-.33 1.56 1.56 0 0 0-1.08.44 70.74 70.74 0 0 0-9.26-1.36 2.37 2.37 0 0 0-.83-.53h-.3a1.54 1.54 0 0 0-1.05.42c-1.5-.08-3.06-.13-4.7-.13h-2.78c-.38 0-.74 0-1.12.07a1.56 1.56 0 0 0-1.18-.55 1.49 1.49 0 0 0-.8.23 1.51 1.51 0 0 0-.47.48 57.7 57.7 0 0 0-8.86 1.52 1.61 1.61 0 0 0-.74-.18 1.43 1.43 0 0 0-.6.13 1.5 1.5 0 0 0-.64.6c-9.5 2.8-14.81 7.15-15.12 7.41a.76.76 0 0 0-.26.67c-2.86 2.09-4.87 4.48-5.4 7.13a7.56 7.56 0 0 0-.12 1.94 7.57 7.57 0 0 1 .13-1.92c.54-2.62 2.58-5.06 5.48-7.13z"/><path class="cls-5" d="M349.41 142.61a7.48 7.48 0 0 0-2.22.34 6.71 6.71 0 0 0-4.2-1.48 6.58 6.58 0 0 0-2.94.7 7.74 7.74 0 0 0-2.09 1.52 40.77 40.77 0 0 0-9.89-18.26c.4-16.88-8.78-34-17-35.67a9.42 9.42 0 0 0-1.84-.18c-7.37 0-16.95 8.49-21.45 13.51a48.69 48.69 0 0 0-3.54 4.43 73.53 73.53 0 0 0-11.74 1.15 83.67 83.67 0 0 0-11.3 2.77c-1.08-.75-2.12-1.39-3.05-1.93-.59-.34-1.14-.66-1.63-.92l-.33-.17a55.07 55.07 0 0 0-16.45-5.64 24.55 24.55 0 0 0-3.39-.28 12.75 12.75 0 0 0-5.1.94 9.29 9.29 0 0 0-1.16.59c-7.11 4.32-9.88 23.58-3.74 39.31a40.78 40.78 0 0 0-3.06 20.49 7.72 7.72 0 0 0-2.26-.75A6.82 6.82 0 0 0 220 163a6.47 6.47 0 0 0-5.46 2.93 7.53 7.53 0 0 0-2.72.51 6.69 6.69 0 0 0-4.07 4.45 7.46 7.46 0 0 0-1.14.83c-2.54 2.23-3.64 6.26-.4 10.28v.07a8.26 8.26 0 0 0 1.4 2.28l.68.8c1.23 1.45 2.22 2.61 2.86 3.26l.9.91.77.78a15.87 15.87 0 0 0 1.81 3.15l.42.53c.21.33.44.66.67 1a18.67 18.67 0 0 0 5.45 5.09 30.32 30.32 0 0 0 17.8 21.52 34.29 34.29 0 0 0 13.52 2.84h1.11q-.84 2.92-1.43 5.58l-.37-.11-.2-.17a7 7 0 0 0-6-1.33c-2.21-.42-4.49-.75-6.81-1a6.1 6.1 0 0 0-1.64-.58 7 7 0 0 0-3.55.23c-1.19 0-2.36-.07-3.54-.07h-2.56a7 7 0 0 0-6 .45 63.39 63.39 0 0 0-6.72 1.17 6.88 6.88 0 0 0-3.6.6 6.64 6.64 0 0 0-1.22.73c-9.66 3.09-15.14 7.54-15.75 8.06a6.18 6.18 0 0 0-1.26 1.45c-3.45 2.84-5.55 6-6.23 9.46-1.55 7.75 4.08 15.72 14.81 21.26a6.92 6.92 0 0 0 1 1.52 7 7 0 0 0 7.62 2 56.44 56.44 0 0 0 8.69 2l.07.06a7 7 0 0 0 8.3.44c1 0 2-.08 2.89-.17a66.92 66.92 0 0 0 6.83-1l.31.15a7 7 0 0 0 8.72-2.53q2.52-.84 5-1.87a7 7 0 0 0 5.5-.35 44.73 44.73 0 0 0 2.92 7.59l.64 1.26c3.06 5.91 5.59 9.1 9.46 9.1a6 6 0 0 0 4.34-1.85c2-2 2.18-4.91 2.1-7.45v-.07c0-1.32-.1-3.35-.17-5.62 1.45.21 3 .37 4.58.5 2.36.18 4.72.28 7 .28a73.12 73.12 0 0 0 16.82-1.86c-.06 2-.11 3.7-.15 4.86a20 20 0 0 0 .08 2.56 7.89 7.89 0 0 0 2 4.89 6 6 0 0 0 4.34 1.85c3 0 5.25-2 7.55-5.68.83-1.34 1.66-2.9 2.56-4.68a56.38 56.38 0 0 0 5-18.11c3.66-10.15.56-28.75-2.93-39q-1.33-3.93-2.67-7.53a33.28 33.28 0 0 0 20.22-8.11 30.33 30.33 0 0 0 10.7-25.8 14.56 14.56 0 0 0 1.05-1.28v-7.56c-.07.26-.15.52-.24.78a14.73 14.73 0 0 1-4 6.33 27.83 27.83 0 0 1-9.66 24.74 30.64 30.64 0 0 1-20.26 7.51q-1.07 0-2.17-.07c1.34 3.43 2.7 7.17 4 11.16 3.3 9.71 6.42 28.19 2.84 37.51-.54 4.81-1.8 11.63-4.75 17.53a41.61 41.61 0 0 1-3.62 6.23c-1.42 1.89-2.65 2.63-4 2.63a3.31 3.31 0 0 1-2.39-1 4.41 4.41 0 0 1-1.09-2.16 13.22 13.22 0 0 1-.24-3.32c.05-1.84.16-5.14.26-8.54a67 67 0 0 1-19.66 2.73c-2.22 0-4.5-.09-6.79-.27a59.16 59.16 0 0 1-7.62-1l.28 9v.55c0 2.45-.39 4-1.34 4.93a3.31 3.31 0 0 1-2.39 1c-2 0-3.66-1.53-6-5.78-.5-.9-1-1.92-1.62-3.07a48.46 48.46 0 0 1-4-12.43 15.76 15.76 0 0 1-.75 1.77 4.25 4.25 0 0 1-3.79 2.31 4.3 4.3 0 0 1-2-.48l-.33-.19a69 69 0 0 1-6.89 2.6l-.08.18a4.26 4.26 0 0 1-5.64 2.12 4.13 4.13 0 0 1-.9-.56 64.85 64.85 0 0 1-7.62 1.17c-1.14.11-2.35.16-3.59.17a4.27 4.27 0 0 1-5.62.17 4.2 4.2 0 0 1-.54-.54 53.52 53.52 0 0 1-10.12-2.29 4.25 4.25 0 0 1-6.29-2.56c-10.19-5-15.64-12.06-14.3-18.76.59-2.93 2.5-5.69 5.68-8.2a3.44 3.44 0 0 1 .89-1.15c.58-.49 5.86-4.77 15.32-7.71a4 4 0 0 1 1-.7 4.13 4.13 0 0 1 1.75-.39 4.24 4.24 0 0 1 .82.08 60.64 60.64 0 0 1 7.54-1.31l.25-.18a4.23 4.23 0 0 1 4.24-.16H229.56c1.33 0 2.64 0 4 .09a4.27 4.27 0 0 1 2.58-.3 3.7 3.7 0 0 1 1.32.56 74.15 74.15 0 0 1 7.8 1.13 4.23 4.23 0 0 1 4.16.64c.05 0 .25.21.56.49 1.48.42 2.74.84 3.78 1.22a91 91 0 0 1 3.24-12.33 30 30 0 0 1-4.91.41 31.58 31.58 0 0 1-12.45-2.63 27.82 27.82 0 0 1-16.47-20.85 14.72 14.72 0 0 1-5.67-4.89c-.23-.31-.44-.63-.64-1s-.31-.37-.45-.55a13.29 13.29 0 0 1-1.69-3.06l-1.26-1.27-.78-.79c-.57-.57-1.57-1.74-2.72-3.1l-.7-.82a5.6 5.6 0 0 1-1-1.57 2.42 2.42 0 0 0-.41-.7c-2.26-2.81-1.43-5.22.06-6.52a4.74 4.74 0 0 1 1.84-1 3.83 3.83 0 0 1 2.57-3.77 4.79 4.79 0 0 1 3.23-.09c.49-1.15 1.58-3.17 4-3.17a4.07 4.07 0 0 1 .66.05 5 5 0 0 1 4.13 5.77l-.29 1.78a11.09 11.09 0 0 1 3.41-.53h.54a36.13 36.13 0 0 1-2-7.12 38 38 0 0 1 3-22.3c-6.44-15.26-3.32-33.66 2.21-37a9.15 9.15 0 0 1 4.85-1.12c5.6 0 13.52 2.9 18.89 5.77a44.82 44.82 0 0 1 5.51 3.47 79.25 79.25 0 0 1 12.23-3.12 70 70 0 0 1 12.08-1.11h.63v-.06c.31-.47.62-.92.94-1.36a46.43 46.43 0 0 1 3.14-3.92c4.54-5.07 13.46-12.61 19.42-12.61a6.68 6.68 0 0 1 1.31.12c6.34 1.27 15.56 17.5 14.72 34a38 38 0 0 1 10.44 19.93 36.09 36.09 0 0 1 .54 7.07 11.38 11.38 0 0 1 3.27-.53h.25l-.8-1.61a5 5 0 0 1 2.26-6.73 3.88 3.88 0 0 1 1.74-.41 4.81 4.81 0 0 1 3.65 2 4.8 4.8 0 0 1 2.77-.88h.35a3.93 3.93 0 0 1 2.41 1V143a7.4 7.4 0 0 0-1.87-.41z"/><path class="cls-5" d="M208.32 267.27a1.36 1.36 0 0 1-2.13-1.59l-.18-.08a1.53 1.53 0 0 0 2.41 1.78s.25-.22.58-.57l-.16-.06c-.29.31-.49.49-.52.52zM252.89 264.66a1.33 1.33 0 0 1-1.33-1.21l-.17.08a1.51 1.51 0 0 0 .78 1.11 1.54 1.54 0 0 0 2.07-.66 16.37 16.37 0 0 0 .93-2.41l-.2.11a15.55 15.55 0 0 1-.87 2.24 1.36 1.36 0 0 1-1.21.74zM259.47 259c.17 1.33.4 2.81.7 4.35-.32-1.61-.53-3.06-.7-4.35zM241 268.48a1.36 1.36 0 0 1-1.8.68 1.34 1.34 0 0 1-.76-1h-.18a1.51 1.51 0 0 0 .85 1.11 1.54 1.54 0 0 0 2-.77c0-.07.23-.52.49-1.24l-.18.06c-.22.68-.42 1.09-.42 1.16z"/><path class="cls-6" d="M206.53 265.21s4.63-4.18 6.73-13.84c2-9-.3-15-.69-16a44.42 44.42 0 0 0-14.3 7 .68.68 0 0 1-1-.08.67.67 0 0 1-.15-.41c-2.9 2.1-4.95 4.51-5.48 7.18a7.57 7.57 0 0 0-.13 1.92v.1c0 .26.06.52.1.78 0 .1 0 .21.05.31s.11.45.17.68.08.28.13.42.14.39.22.59.15.36.24.53.15.33.24.49.27.47.41.71l.19.31c2.4 3.68 7 7.1 12.7 9.62l.18.08a1.34 1.34 0 0 1 .39-.39zM238.51 267.35a40.81 40.81 0 0 0 2.49-18.74 24.57 24.57 0 0 0-6.16-14.46 1.36 1.36 0 0 1-.23-.18 1.94 1.94 0 0 1-.55-.86c-2.24-.12-4.61-.16-7.16-.07h-.53c1.27 2.53 3.93 9.08 3.35 18.76-.63 10.54-4.19 16.37-5.34 18h1.26c1.19 0 2.37 0 3.55-.16q1.17-.11 2.3-.26h.08a65.67 65.67 0 0 0 6.66-1.24h.18a1.33 1.33 0 0 1 .1-.79z"/><path class="cls-6" d="M251.68 262.67c0-.06 3.12-6.29 1-15.6a22.49 22.49 0 0 0-6.68-11.74 1.33 1.33 0 0 1-.43-.7 69.09 69.09 0 0 0-7.7-1.22 28 28 0 0 1 5.89 14.95 44.14 44.14 0 0 1-2.29 19l.18-.06a65.81 65.81 0 0 0 9.74-3.75l.17-.08a1.33 1.33 0 0 1 .12-.8zM221.93 268.58c0-.05 4.4-5.53 5.08-16.91s-3.53-18.23-3.57-18.3 0-.07 0-.1a55.76 55.76 0 0 0-8.2 1.41c.71 1.85 2.69 8.21.72 17.27-1.91 8.76-5.69 13.36-7.08 14.8l.16.06a50.17 50.17 0 0 0 12.44 2.83h.19a1.34 1.34 0 0 1 .26-1.06z"/><path class="cls-3" d="M248.45 233.89c-.43-.41-.72-.65-.76-.69a1.35 1.35 0 0 0-1.76.08 70.22 70.22 0 0 0-9.58-1.41 2.05 2.05 0 0 0-.69-.42 1.37 1.37 0 0 0-1.14.31c-2.38-.13-4.91-.18-7.65-.09-.43 0-.84.06-1.27.08a1.33 1.33 0 0 0-2.14.14 57.45 57.45 0 0 0-9.15 1.58 1.34 1.34 0 0 0-1.14 0 1.33 1.33 0 0 0-.54.49c-9.58 2.8-14.93 7.18-15.24 7.44a.71.71 0 0 0-.08 1 .68.68 0 0 0 1 .08 44.42 44.42 0 0 1 14.3-7c.39.94 2.65 7 .69 16-2.1 9.66-6.69 13.8-6.73 13.84a1.34 1.34 0 0 0-.34.47 1.36 1.36 0 0 0 2.13 1.59s.23-.21.52-.51c1.39-1.45 5.17-6 7.08-14.8 2-9.07 0-15.43-.72-17.27a55.76 55.76 0 0 1 8.2-1.41v.1s4.26 6.83 3.57 18.3-5 16.86-5.08 16.91a1.4 1.4 0 0 0 .18 1.92 1.36 1.36 0 0 0 1.92-.18s.16-.21.36-.48c1.15-1.63 4.71-7.46 5.34-18 .58-9.68-2.08-16.23-3.35-18.76h.53c2.55-.09 4.93 0 7.16.07a1.94 1.94 0 0 0 .55.86 1.36 1.36 0 0 0 .23.18 24.57 24.57 0 0 1 6.15 14.3 40.81 40.81 0 0 1-2.52 18.74 1.43 1.43 0 0 0 .68 1.8 1.36 1.36 0 0 0 1.8-.68c0-.07.21-.47.45-1.14a44.14 44.14 0 0 0 2.29-19 28 28 0 0 0-5.89-14.95 69.09 69.09 0 0 1 7.7 1.22 1.33 1.33 0 0 0 .43.7 22.49 22.49 0 0 1 6.71 11.74c2.12 9.31-1 15.54-1 15.6a1.43 1.43 0 0 0 .59 1.84 1.36 1.36 0 0 0 1.84-.58 15.55 15.55 0 0 0 .87-2.24 29.14 29.14 0 0 0 .37-15.21 26.12 26.12 0 0 0-5.11-10.61 37.48 37.48 0 0 1 5 1.89c0-.57-.09-1.09-.12-1.56a44.2 44.2 0 0 0-6.64-2.28zM302.14 205a28.57 28.57 0 0 1-13.43 5.42 26.07 26.07 0 0 1-15.71-2.56c-5.79 8.47-11.44 21.61-11.16 34 .47 20.47 17.73 23.35 28.92 22.86 7.31-.32 14.31-2.95 18.95-8.22v-.07l.12-.07a22 22 0 0 0 5-10.56c2.33-12.58-3.27-25.15-8.4-34.77a28.19 28.19 0 0 0-4.29-6.03z"/><path class="cls-6" d="M351.13 151.52l-.08.18c-.06-.41-.17-.86-.27-1.32 0-.13 0-.26-.07-.4s-.07-.31-.08-.47a3.17 3.17 0 0 0-.45-1.67 1.24 1.24 0 0 0-.92-.43 2.11 2.11 0 0 0-2.25 1.95c0 .06 0 .62-.09 1.44l-.38-.76c-.07-.14-.14-.27-.21-.39a11.23 11.23 0 0 0-1.54-1.67c-.62-.72-1.48-2.13-2.61-1.56a2.3 2.3 0 0 0-1 3.08l1.77 3.56.77 1.55c1.7 1.39 5 4.14 5.43 5.08a.68.68 0 0 1-1.22.61 35.41 35.41 0 0 0-4.52-4.17 14.94 14.94 0 0 0-3.46-1 7.39 7.39 0 0 0-4.05.76 14 14 0 0 1-2 1.44 4.25 4.25 0 0 0-1.1.63 34.25 34.25 0 0 0 .39-8.7v-.06q-.13-1.46-.38-2.92c-.16-.9-.36-1.78-.58-2.65l-.09-.31q-.31-1.15-.7-2.27l-.12-.34a34.18 34.18 0 0 0-2.2-4.87l-.1-.17q-.61-1.09-1.29-2.13l-.15-.23a37.59 37.59 0 0 0-3.35-4.33l-.23-.23a37.65 37.65 0 0 0-11.06-7.29.68.68 0 0 1 .51-1.27 38.91 38.91 0 0 1 6.11 3.27c-.05-13.73-7.68-25.54-10.28-26.06H309c-2.33 0-9.32 4.24-15.15 10.74a38.32 38.32 0 0 0-3.6 4.65c9.73 1 14.31 4.54 14.58 4.75a.68.68 0 0 1-.85 1.07c-.09-.07-9.59-7.34-30.43-3.67s-27.24 12.48-27.31 12.57a.68.68 0 0 1-1.12-.78c.18-.26 3.24-4.51 12-8.4a39.05 39.05 0 0 0-4.67-2.91c-6.43-3.44-13.08-5.12-16.37-5.12a3.71 3.71 0 0 0-1.79.32c-2.25 1.37-5.35 14.88-.86 27.71a42.55 42.55 0 0 1 5.46-6.2.68.68 0 0 1 .9 1 44.34 44.34 0 0 0-7.31 9l-.23.47-.38.78c-.19.4-.37.81-.54 1.21s-.32.73-.46 1.09q-.4 1-.74 2c-.13.39-.24.78-.35 1.17s-.25.85-.36 1.29-.2.82-.29 1.23-.16.78-.23 1.17-.16.85-.22 1.27-.1.82-.14 1.23q-.12 1.11-.17 2.23v2.49s0 .74.05 1.1.06.9.11 1.36.11.84.17 1.26.09.72.15 1.08q.19 1.06.44 2.1c.15.62.32 1.22.5 1.82l.15.47c.14.45.3.89.46 1.32.08.23.17.46.26.69s.27.65.41 1a35.23 35.23 0 0 0 2.92 5.42l7.21-1.28-.32-1.82a6.37 6.37 0 0 1 .46-4.43 1.87 1.87 0 0 1-.52-3.7h.09c-1.07-16.83 14.12-32.84 35.4-36.59 22.51-4 43.3 7.3 46.45 25.15 0 .24.07.47.1.71a31.65 31.65 0 0 1 2.59 5.76l6.41-1.14a1.88 1.88 0 0 1 .57 0l.06-.25a2.23 2.23 0 0 0 .09.25 1.85 1.85 0 0 1 1.38 1.23 3.78 3.78 0 0 0 2.21.18l3.74-1.25a3.67 3.67 0 0 1 2.19 1.8 5 5 0 0 1 .79 3 3.82 3.82 0 0 1-7.61.07 2.86 2.86 0 0 0-.17-.7v-.1a2.85 2.85 0 0 0-.27-.5l-.09-.13a2.92 2.92 0 0 0-.41-.44l-.05-.05a3 3 0 0 0-.53-.34 1.87 1.87 0 0 1-1.31 1l-6 1.06a55.81 55.81 0 0 1 1.23 6.57l.44-.73c-.11-2.83-.3-4.78-.31-4.81a.68.68 0 0 1 .61-.75.7.7 0 0 1 .75.61s.1 1 .2 2.57c.57-1.15 1.09-2.32 1.55-3.5 0 .32.06.66.1 1 .09.9-.36 2.26 0 3.06a8.16 8.16 0 0 0 .39.82l.08.13c.12.21.24.42.38.63s.32.45.49.66a8.7 8.7 0 0 0 3.27 2.6 4.57 4.57 0 0 0 0 2.07c0 .09 2.15 9.16-5.29 15.45a19.2 19.2 0 0 1-12.68 4.67 23.93 23.93 0 0 1-10.42-2.47 4.33 4.33 0 0 0-1.07-.39c-2.43 4.35-8.24 6.39-9.54 6.8a13.26 13.26 0 0 1-8.34 5.48 10.67 10.67 0 0 1-9.33-2.64c-.89.22-3 .42-7.26-.76a8.79 8.79 0 0 1-3.54-1.88c-.34.74-.7 1.53-1.07 2.34l-.14.31c-1.12 1.05-6.88 6.08-14.82 6.08a19.44 19.44 0 0 1-7.7-1.62c-8.82-3.77-9.57-12.86-9.59-13.21a4.52 4.52 0 0 0-.59-2 9.48 9.48 0 0 0 3-6.05c.07-.87-.76-2-.93-2.92a8.32 8.32 0 0 0-.57-2.11l-2.68.48a1.84 1.84 0 0 1-.59 0 2.89 2.89 0 0 0-.51 2.27 3.82 3.82 0 0 1-2.33 4.27 3.72 3.72 0 0 1-2 .21 3.86 3.86 0 0 1-.64-.11 3.81 3.81 0 0 1-1.26-.68l-.22-.18-.21-.22a3.77 3.77 0 0 1-.27-.33l-.13-.18a3.79 3.79 0 0 1-.34-.64c-.73-1.83-.13-4.54 1.59-5.43l3.94.09a3.79 3.79 0 0 0 .82-.17 1.85 1.85 0 0 1-.12-.4 1.88 1.88 0 0 1 1.52-2.17l.85-.15a2.06 2.06 0 0 0-.27-.93 2.37 2.37 0 0 0-1.89-.83 14 14 0 0 1-2.34-.79 7.39 7.39 0 0 0-4.1.46 18.27 18.27 0 0 0-2 1.2 21.46 21.46 0 0 0-2.67 5.08.68.68 0 0 1-.64.46.69.69 0 0 1-.22 0 .68.68 0 0 1-.42-.87 21.56 21.56 0 0 1 2-4.17l.46-2.76.65-3.92a2.27 2.27 0 0 0-1.88-2.62c-1.25-.21-1.66 1.39-2 2.26a7.77 7.77 0 0 0-1.08 2.5l-.14.84c-.28-.77-.48-1.29-.5-1.35a2.08 2.08 0 0 0-.28-.49l-.1-.13a1.91 1.91 0 0 0-.6-.46l-.18-.08a2.1 2.1 0 0 0-1-.14h-.24a2.08 2.08 0 0 0-.27.08c-1.08.42-.93 1.39-.7 2.43.16.73.13 1.54.23 2.21l-.13-.15a2.12 2.12 0 0 0-1.82-.71h-.17a2 2 0 0 0-.57.19l-.16.1a2 2 0 0 0-.25.18c-.77.66-.68 1.46-.07 2.37q.13.19.29.39c.11.14.21.27.29.39.48.7.51 1.1.83 1.57a2.55 2.55 0 0 0 .18.23c.58.67 2.56 3 3.29 3.79l2.45 2.47v.06a13.2 13.2 0 0 0 .59 1.37l.11.2a9.64 9.64 0 0 0 .8 1.29c.15.2.31.39.48.57a9.29 9.29 0 0 0 .6.91c1.48 2 3.51 4 5.92 4.44.37 3.15 2.59 15.08 15.11 20.42a28.74 28.74 0 0 0 11.38 2.41 27.84 27.84 0 0 0 7.65-1.1c2.34-5.63 4.28-7.62 4.37-7.71a.68.68 0 0 1 1 1s-2.44 2.54-5.11 9.95a87.83 87.83 0 0 0-3.62 14.07 175.14 175.14 0 0 0 2 17.46.68.68 0 0 1-.55.79h-.12a.68.68 0 0 1-.67-.56c-.89-5.06-1.44-10.49-1.75-14.16a37.48 37.48 0 0 0-5-1.89 26.12 26.12 0 0 1 5.11 10.61 29.14 29.14 0 0 1-.37 15.21l.2-.11c1.57-.88 3-1.77 4.26-2.62.17 1.33.38 2.79.69 4.33v.11q.17.85.37 1.73v.18q.2.86.43 1.73l.06.22c.15.57.32 1.14.5 1.71l.09.26c.18.56.36 1.12.57 1.68l.11.29c.2.55.42 1.1.65 1.64l.08.18c.25.57.5 1.13.78 1.68.52 1 1 1.91 1.43 2.71l.28.5.39.66.2.33.17.29.29.44c.14.21.27.41.4.59l.21.28c.14.18.28.36.4.51l.15.17a5.15 5.15 0 0 0 .4.4l.09.08a2.19 2.19 0 0 0 .39.26.9.9 0 0 0 .37.1c.72 0 1-1.25 1-3.19v-.5c-.06-2.27-.2-6.74-.34-10.87a18.2 18.2 0 0 1-5.59-3.36.68.68 0 1 1 .92-1 17.82 17.82 0 0 0 4.62 2.87v-.29a48.64 48.64 0 0 0 10.67 1.88q3.41.27 6.58.26a60.5 60.5 0 0 0 21.86-3.67 23.51 23.51 0 0 0 5.38-3.36.68.68 0 1 1 .91 1 24.28 24.28 0 0 1-5.68 3.56c-.13 4.2-.28 8.78-.34 11.09a9.79 9.79 0 0 0 .23 2.84 2.12 2.12 0 0 0 .13.33l.07.12.07.09a.72.72 0 0 0 .15.13.56.56 0 0 0 .24.06 1.09 1.09 0 0 0 .51-.18c1-.58 2.49-2.72 4.72-7.17 2.85-5.71 4-12.4 4.52-17 3.24-7.8.84-25.4-2.75-36-1.33-3.93-2.88-8.21-4.53-12.35 0 0-.06-.05-.07-.09-.08-.23-.16-.46-.25-.69l-.07-.17a35.38 35.38 0 0 0-3.95-6.91.68.68 0 0 1 1.09-.82 38.1 38.1 0 0 1 3.57 5.95 31.61 31.61 0 0 0 4.9.39 28 28 0 0 0 18.5-6.87c10.39-8.78 9-20.83 8.45-24 2.17-1.14 3.52-3.66 4.35-6a9.35 9.35 0 0 0 .31-1.07c.1-.22.2-.45.29-.69a11.24 11.24 0 0 0 .6-3.26l1.61-3.06v-9.58a2.1 2.1 0 0 0-.59 1.09zm-36.39 94.33a22 22 0 0 1-5 10.56l-.12.07v.07c-4.64 5.27-11.63 7.9-18.95 8.22-11.2.49-28.45-2.39-28.92-22.86-.28-12.43 5.37-25.57 11.16-34a26.07 26.07 0 0 0 15.75 2.58 28.57 28.57 0 0 0 13.48-5.49 28.19 28.19 0 0 1 4.21 6.05c5.13 9.64 10.73 22.22 8.39 34.8z"/><path class="cls-3" d="M232.11 142.54l.23-.47-.25.42zM309.69 94.62c-3.85-.77-12.42 5.36-18 11.57a39.55 39.55 0 0 0-4.63 6.25 64.58 64.58 0 0 0-13.87 1 73.87 73.87 0 0 0-13.32 3.56 39.92 39.92 0 0 0-6.28-4.12c-7.36-3.93-17.5-6.78-20.86-4.73-3.93 2.39-6.94 18.74-1.3 32.79.61-1 1.24-1.9 1.86-2.75-4.49-12.84-1.39-26.34.86-27.71a3.71 3.71 0 0 1 1.79-.32c3.29 0 9.94 1.68 16.37 5.12a39.05 39.05 0 0 1 4.67 2.91c-8.74 3.88-11.8 8.14-12 8.4a.68.68 0 0 0 1.12.78c.06-.09 6.38-8.89 27.31-12.57s30.34 3.6 30.43 3.67a.68.68 0 0 0 .85-1.07c-.27-.22-4.85-3.75-14.58-4.75a38.32 38.32 0 0 1 3.6-4.65c5.83-6.5 12.82-10.74 15.15-10.74h.28c2.61.52 10.23 12.33 10.28 26.06.87.56 1.77 1.2 2.67 1.9.62-15.22-7.87-29.7-12.4-30.6z"/><path class="cls-6" d="M239.86 184.45c-.56-1.91-.87-3.18-.88-3.21a.68.68 0 1 1 1.32-.33s.56 2.26 1.5 5.24l.74.58a62.34 62.34 0 0 1-1.05-6.89l-5.13.91a39.83 39.83 0 0 0 3.5 3.7z"/><path class="cls-3" d="M244 192.46l.33.81a31.26 31.26 0 0 0 5 7.66 11.4 11.4 0 0 0 3.22.35 61.33 61.33 0 0 0 14.57-2.28 9.33 9.33 0 0 1-1.94-4.68v-.2c0-.17-.06-.34-.08-.52l-.1-1.49v-.44a11.07 11.07 0 0 1-4.12.24l-3.05.54a13.62 13.62 0 0 1-15.79-11l-.29-1.62h-.23a62.34 62.34 0 0 0 1.05 6.89 56 56 0 0 0 1.43 5.74zM247.71 159.7a11.22 11.22 0 0 1 12.59-9.59l6 .81a11.21 11.21 0 0 1 8.84 6.84 11.11 11.11 0 0 1 9.55-1.78 11.16 11.16 0 0 1 4.3-7.43l4.84-3.69a11.22 11.22 0 0 1 15.7 2.14l4.68 6.15 5.68-1a1.87 1.87 0 0 1 1.25 3.47 6.22 6.22 0 0 1 2.07 4.09l1.26 7.13a13.62 13.62 0 0 1-11 15.79l-2.08.37a11.17 11.17 0 0 1-4.24.75l-.63.11-.4.05.08.16.07.17c.05.12.1.24.15.37l.2.6a3.19 3.19 0 0 1 .11.36l.12.49c0 .21.08.38.11.55l.1.72v.1a1.52 1.52 0 0 1 0 .16l.06.68a1.17 1.17 0 0 1 0 .2v.42a8.22 8.22 0 0 1-.54 3c9.36-.6 17.83-2.87 19.53-4.76l.07-.11a40.9 40.9 0 0 0 1.77-9v-.7a53.94 53.94 0 0 0-.44-6 55.81 55.81 0 0 0-1.23-6.57l-2.18.39-.65-3.67 1.77-.31a31.65 31.65 0 0 0-2.59-5.76c0-.24-.06-.47-.1-.71-3.14-17.85-23.94-29.11-46.45-25.15-21.28 3.75-36.47 19.76-35.4 36.59L247 165z"/><path class="cls-6" d="M266.33 150.92l-6-.81a11.22 11.22 0 0 0-12.59 9.59L247 165l25.51-4.52a11.3 11.3 0 0 1 2.67-2.76 11.21 11.21 0 0 0-8.85-6.8zM265 191.68v-.14-.33l-.26.06-3.9.69a11.07 11.07 0 0 0 4.16-.28zM307.13 183.72a11.17 11.17 0 0 0 4.24-.75zM293.85 144.86l-4.85 3.69a11.16 11.16 0 0 0-4.3 7.43 11.28 11.28 0 0 1 3.65 1.73l25.85-4.58-4.67-6.13a11.22 11.22 0 0 0-15.68-2.14zM287.21 202.8zM288.25 202.65zM280 157.1a9.82 9.82 0 0 0-5.52 3.06l11.82-2.1a9.83 9.83 0 0 0-6.3-.96zM274.52 168.31l.46 2.58.39-.35-.1-.55a1.79 1.79 0 0 1 1.45-2.08 1.77 1.77 0 0 1 1.72.68 13.68 13.68 0 0 1 11.51 0l-.52-2.94a6.39 6.39 0 0 1 .45-4.41l-17.31 3.07a6.39 6.39 0 0 1 1.95 4zM266.39 191.21v.81l.09 1.39c0 .18 0 .32.07.47l.28 1.2a.3.3 0 0 1 0 .09v.15a1.17 1.17 0 0 1 .08.25l.18.47a.39.39 0 0 1 .07.13l.07.15v.06l.16.37.06.15c1.73 2.85 5 4.07 9.17 3.4h.78a5.76 5.76 0 0 1 2 .18 10.45 10.45 0 0 1 1.88.73c.58.29 1.14.58 1.7.84a10.52 10.52 0 0 0 1.67.63 7.57 7.57 0 0 0 1.74.24h.87l.5-.06h.4l.49-.1.42-.11H289.24l.24-.09h.18l.23-.09a1.35 1.35 0 0 0 .21-.09l.19-.09 1.14-.65a10 10 0 0 0 1.34-1.17c.43-.44.85-.91 1.3-1.38a10 10 0 0 1 1.51-1.34 6 6 0 0 1 1.83-.87l.48-.11h.39c4-.82 6.64-3.11 7.24-6.31V189.53v-.3a7.47 7.47 0 0 0-.06-1 .65.65 0 0 1 0-.14.68.68 0 0 1 0-.14v-.1a1.86 1.86 0 0 1 0-.28l-.05-.25c0-.16-.05-.3-.09-.43l-.14-.57c0-.08-.06-.2-.1-.32l-.18-.5c0-.11-.08-.2-.12-.3v-.11l-.11-.23-.19-.36a13.61 13.61 0 0 1-13.78-11.7l-.07-.42a1.88 1.88 0 0 1-.41.12 1.8 1.8 0 0 1-1.23-.21 10 10 0 0 0-9.65 0l1.55 8.6a1.79 1.79 0 1 1-3.53.64l-1.21-6.69a1.77 1.77 0 0 1-.44.16l.07.41a13.61 13.61 0 0 1-9.33 15.36l-.06.35zm13-1.06a1.79 1.79 0 0 1 2.08 1.43 2.09 2.09 0 0 0 .82 1 1.79 1.79 0 0 1 .78 2.41 1.79 1.79 0 0 1-2.42.79 5.48 5.48 0 0 1-2.71-3.56 1.79 1.79 0 0 1 1.44-2.07z"/><path class="cls-3" d="M280.64 195.79a1.8 1.8 0 0 0 1.64-3.19 2.09 2.09 0 0 1-.82-1 1.79 1.79 0 0 0-3.53.66 5.48 5.48 0 0 0 2.71 3.53zM276.72 167.91a1.79 1.79 0 0 0-1.45 2.08l.1.55a13.7 13.7 0 0 1 3.07-1.95 1.77 1.77 0 0 0-1.72-.68zM279.44 183a1.79 1.79 0 0 0 1.45-2.08l-1.55-8.6a10 10 0 0 0-2.68 2.15 1.79 1.79 0 0 1-.51.39l1.21 6.69a1.79 1.79 0 0 0 2.08 1.45z"/><path class="cls-7" d="M349.07 144.65a4.8 4.8 0 0 0-2.77.88 4.81 4.81 0 0 0-3.65-2 3.88 3.88 0 0 0-1.74.41 5 5 0 0 0-2.26 6.73l.8 1.61h-.25a11.38 11.38 0 0 0-3.27.53 36.09 36.09 0 0 0-.54-7.07A38 38 0 0 0 325 125.79c.84-16.54-8.38-32.77-14.72-34a6.68 6.68 0 0 0-1.31-.12c-6 0-14.87 7.54-19.42 12.61a46.43 46.43 0 0 0-3.14 3.92h3.42c.61-.77 1.21-1.49 1.76-2.1 5.25-5.85 13.09-11.7 17.39-11.7a3.94 3.94 0 0 1 .77.07c4.59.92 13.21 15.6 12.55 31l-.15-.12c-.9-.71-1.8-1.34-2.67-1.9a38.91 38.91 0 0 0-6.11-3.27.68.68 0 0 0-.51 1.27 37.65 37.65 0 0 1 11.06 7.29l.23.23a37.59 37.59 0 0 1 3.35 4.33l.15.23q.68 1 1.29 2.13l.1.17a34.18 34.18 0 0 1 2.2 4.87l.12.34q.39 1.12.7 2.27l.09.31c.23.87.42 1.75.58 2.65s.3 1.95.38 2.92v.06a34.25 34.25 0 0 1-.39 8.7 4.34 4.34 0 0 1 1.08-.61 14 14 0 0 0 2-1.44 7.6 7.6 0 0 1 3.39-.81 3.67 3.67 0 0 1 .66.05 15 15 0 0 1 3.44 1 35.41 35.41 0 0 1 4.52 4.17.68.68 0 0 0 1.22-.61c-.47-.93-3.73-3.68-5.43-5.08l-.78-1.57-1.77-3.56a2.3 2.3 0 0 1 1-3.08 1.17 1.17 0 0 1 .52-.13c.88 0 1.57 1.09 2.09 1.69a10.85 10.85 0 0 1 1.55 1.69c.07.12.14.24.21.39l.38.76c0-.81.08-1.37.09-1.43a2.11 2.11 0 0 1 2.1-2h.15a1.23 1.23 0 0 1 .93.45 3.17 3.17 0 0 1 .45 1.67c0 .16.06.31.08.47s0 .26.07.4c.1.46.21.9.27 1.32l.07-.16a2.1 2.1 0 0 1 .72-.86v-5a3.93 3.93 0 0 0-2.41-1z"/><path class="cls-8" d="M287.35 202.79z"/><path class="cls-9" d="M309.49 279.77l-.07-.12a2.12 2.12 0 0 1-.13-.33 9.5 9.5 0 0 1-.24-2.86c.07-2.3.21-6.87.34-11.06a24.28 24.28 0 0 0 5.68-3.56.68.68 0 1 0-.91-1 23.51 23.51 0 0 1-5.38 3.36 60.5 60.5 0 0 1-21.86 3.67q-3.17 0-6.58-.26a48.64 48.64 0 0 1-10.67-1.88v.27a17.82 17.82 0 0 1-4.62-2.87.68.68 0 1 0-.92 1 18.2 18.2 0 0 0 5.59 3.36l.34 10.87v.5h2.72v-.55l-.28-9a59.16 59.16 0 0 0 7.62 1c2.29.18 4.58.27 6.79.27a67 67 0 0 0 19.66-2.73c-.11 3.39-.21 6.69-.26 8.54a13.22 13.22 0 0 0 .24 3.32l3 .2z"/><path class="cls-10" d="M232.31 177.67a1.88 1.88 0 0 0-1.52 2.17 1.85 1.85 0 0 0 .12.4 3.79 3.79 0 0 1-.82.17l-3.94-.09c-1.72.9-2.32 3.6-1.59 5.43a3.79 3.79 0 0 0 .34.64l.13.18a3.77 3.77 0 0 0 .27.33l.21.22.22.18a3.83 3.83 0 0 0 1.27.7 3.86 3.86 0 0 0 .55.12 3.77 3.77 0 0 0 2-.23 3.82 3.82 0 0 0 2.33-4.27 2.88 2.88 0 0 1 .5-2.25 1.84 1.84 0 0 0 .59 0l2.68-.48a8.32 8.32 0 0 1 .57 2.11c.17.89 1 2.05.93 2.92a9.48 9.48 0 0 1-3 6.05 4.52 4.52 0 0 1 .59 2c0 .35.77 9.45 9.59 13.21a19.44 19.44 0 0 0 7.7 1.62c7.93 0 13.7-5 14.82-6.08l.14-.31c.37-.83.74-1.62 1.09-2.38a8.79 8.79 0 0 0 3.54 1.88c4.25 1.18 6.37 1 7.26.76a10.67 10.67 0 0 0 9.33 2.64 13.26 13.26 0 0 0 8.34-5.48c1.3-.41 7.11-2.45 9.54-6.8a4.33 4.33 0 0 1 1.07.39 23.93 23.93 0 0 0 10.42 2.47 19.2 19.2 0 0 0 12.68-4.67c7.45-6.29 5.31-15.36 5.29-15.45a4.57 4.57 0 0 1 0-2.07 8.7 8.7 0 0 1-3.27-2.6c-.17-.21-.33-.44-.49-.66s-.26-.41-.38-.63l-.08-.13a8.15 8.15 0 0 1-.4-.84c-.33-.81.13-2.16 0-3.06 0-.33-.07-.64-.09-1-.45 1.19-1 2.35-1.55 3.5-.1-1.56-.19-2.54-.2-2.57a.7.7 0 0 0-.75-.61.68.68 0 0 0-.61.75s.2 2 .31 4.81c.07 1.94.1 4.3 0 6.73v.7a40.9 40.9 0 0 1-1.77 9c-.22.71-.37 1.15-.37 1.16a.68.68 0 1 0 1.29.45c0-.13.71-2 1.3-4.57a35.89 35.89 0 0 1-1.23 4.59.77.77 0 0 1-.72.51.8.8 0 0 1-.26 0 .77.77 0 0 1-.46-1s.09-.24.21-.64c-2.38 2-11 4-19.42 4.55l.06-.15a8.22 8.22 0 0 0 .54-3v-.42a1.17 1.17 0 0 0 0-.2l-.06-.68a1.52 1.52 0 0 0 0-.16v-.1l-.1-.72c0-.17-.06-.34-.11-.55l-.12-.49a3.19 3.19 0 0 0-.11-.36l-.2-.6c0-.13-.09-.24-.15-.37l-.07-.17-.08-.16.4-.05.63-.11 4.24-.75 2.08-.37a13.62 13.62 0 0 0 11-15.79l-1.26-7.13a6.22 6.22 0 0 0-2.07-4.09 1.87 1.87 0 0 0-1.25-3.47l-5.68 1-25.85 4.58a11.35 11.35 0 0 0-8.56-1.95 11.16 11.16 0 0 0-4.64 2 11.3 11.3 0 0 0-2.67 2.76L247 165l-6.22 1.1h-.09a1.87 1.87 0 0 0 .52 3.7 6.37 6.37 0 0 0-.46 4.43l.32 1.82-7.21 1.28-.69.12zm-3.8 7.68a1.07 1.07 0 0 1-.4.08 1.1 1.1 0 0 1-1-.69 2.43 2.43 0 0 1 .09-1.67h1.89a5.54 5.54 0 0 0 .1 1 1.09 1.09 0 0 1-.68 1.28zm103.29-5.92c.08-1.58.13-3.21.15-4.77q.38.31.77.58a7.09 7.09 0 0 0 .19 1.18 13.74 13.74 0 0 1-2.34 10.58 37.91 37.91 0 0 0 1.23-7.57zm-7.2 11.88l.32.18a16.35 16.35 0 0 1-6.56 1.65 39.51 39.51 0 0 0 6.24-1.83zM252 206.06a16.81 16.81 0 0 1-6.63-1.4 13.5 13.5 0 0 1-7.94-10.91 6.73 6.73 0 0 0-.16-1.14 12.41 12.41 0 0 0 1.68-2.89c.65 1.74 1.38 3.61 2.13 5.39a39.43 39.43 0 0 0 5.35 8.83 3.5 3.5 0 0 0 4.91.45l.27-.25h.89a52.8 52.8 0 0 0 9.18-1 18.76 18.76 0 0 1-9.68 2.92zm24.78-5.77zm10.41 2.51zm2.67-41.55a6.39 6.39 0 0 0-.45 4.41l.52 2.94a13.71 13.71 0 0 0-14.58 1.94l-.39.35-.46-2.58a6.39 6.39 0 0 0-1.94-4zM280 157.1a9.83 9.83 0 0 1 6.3 1l-11.82 2.1a9.82 9.82 0 0 1 5.52-3.1zm-4.26 18.34l-.07-.41a1.77 1.77 0 0 0 .44-.16 1.79 1.79 0 0 0 .51-.39 10 10 0 0 1 12.38-2.19 1.8 1.8 0 0 0 1.23.21 1.88 1.88 0 0 0 .41-.12l.07.42a13.61 13.61 0 0 0 13.92 11.2l.19.36.11.23v.11c0 .1.09.19.12.3l.18.5c0 .12.08.24.1.32l.14.57c0 .13.06.27.09.43l.05.25a1.86 1.86 0 0 0 0 .28v.1a.68.68 0 0 0 0 .14.65.65 0 0 0 0 .14 7.47 7.47 0 0 1 .06 1v1.23c-.59 3.2-3.23 5.49-7.24 6.31h-.1H298.04l-.48.11a6 6 0 0 0-1.83.87 10 10 0 0 0-1.51 1.34c-.45.47-.86.94-1.3 1.38a10 10 0 0 1-1.34 1.17l-1.14.65-.19.09a1.35 1.35 0 0 1-.21.09l-.23.09h-.18l-.24.09H289.22l-.42.11-.49.1h-.4l-.5.06h-.87a7.57 7.57 0 0 1-1.74-.24 10.52 10.52 0 0 1-1.67-.63c-.56-.26-1.11-.56-1.7-.84a10.45 10.45 0 0 0-1.88-.73 5.76 5.76 0 0 0-2-.18h-.78c-4.12.67-7.44-.55-9.17-3.4l-.06-.15-.16-.37v-.06l-.07-.15a.39.39 0 0 0-.07-.13l-.18-.47a1.17 1.17 0 0 0-.08-.25v-.15a.3.3 0 0 0 0-.09l-.28-1.2c0-.15-.05-.29-.07-.47l-.09-1.39v-.4-.46l.06-.35a13.61 13.61 0 0 0 9.19-14.87zm-34.29 4.41h.23l.29 1.62a13.62 13.62 0 0 0 15.79 11l3.05-.54 3.9-.69.26-.06v.91l.1 1.49c0 .17 0 .34.08.52v.2a9.33 9.33 0 0 0 1.94 4.68l.09.11a63 63 0 0 1-14.69 2.33 12.91 12.91 0 0 1-2.82-.26.77.77 0 0 1-1.18 1s-.4-.48-.92-1.2c.58.71 1 1.14 1 1.19a.68.68 0 1 0 1-.93l-.3-.33a31.26 31.26 0 0 1-5-7.66l-.33-.81c-.88-2.17-1.64-4.39-2.24-6.3-.94-3-1.49-5.2-1.5-5.24a.68.68 0 1 0-1.32.33s.32 1.3.88 3.21a39.83 39.83 0 0 1-3.5-3.69z"/><path class="cls-11" d="M332.37 160a1.88 1.88 0 0 1-.08-.22l-.06.25h.11z"/><path class="cls-12" d="M265.94 278.56l-.39-.66-.28-.5c-.45-.8-.92-1.68-1.44-2.73-.27-.54-.52-1.1-.76-1.66l-.08-.18c-.23-.54-.44-1.09-.65-1.64l-.11-.29c-.2-.56-.39-1.12-.57-1.68l-.09-.26c-.18-.57-.34-1.14-.5-1.71L261 267q-.23-.87-.43-1.73v-.18q-.2-.88-.37-1.73v-.11c-.3-1.54-.53-3-.7-4.35-1.27.85-2.69 1.74-4.26 2.62a16.37 16.37 0 0 1-.93 2.41 1.54 1.54 0 0 1-2.07.66 1.51 1.51 0 0 1-.78-1.11 65.81 65.81 0 0 1-9.74 3.75c-.27.73-.46 1.17-.49 1.24a1.54 1.54 0 0 1-2 .77 1.51 1.51 0 0 1-.85-1.11 65.67 65.67 0 0 1-6.66 1.24h-.08q-1.13.15-2.3.26c-1.17.11-2.36.16-3.55.16h-1.08c-.23.33-.39.53-.42.57a1.54 1.54 0 0 1-2.17.21 1.52 1.52 0 0 1-.53-1A50.17 50.17 0 0 1 209 266.8c-.33.35-.54.53-.58.57a1.53 1.53 0 0 1-2.42-1.77c-5.68-2.52-10.3-5.95-12.7-9.62l-.19-.31c-.15-.24-.29-.47-.41-.71s-.16-.33-.24-.49-.17-.35-.24-.53-.15-.39-.22-.59-.09-.28-.13-.42-.12-.45-.17-.68 0-.2-.05-.31c0-.26-.08-.52-.1-.78v-.1a7.56 7.56 0 0 1 .12-1.94c.53-2.65 2.54-5 5.4-7.13a.76.76 0 0 1 .26-.67c.31-.26 5.61-4.61 15.12-7.41a1.5 1.5 0 0 1 .64-.6 1.43 1.43 0 0 1 .6-.13 1.61 1.61 0 0 1 .74.18 57.7 57.7 0 0 1 8.86-1.52 1.51 1.51 0 0 1 .47-.48 1.49 1.49 0 0 1 .8-.23 1.56 1.56 0 0 1 1.18.55c.38 0 .74-.06 1.12-.07h2.78c1.64 0 3.2 0 4.7.13a1.54 1.54 0 0 1 1.05-.42h.3a2.37 2.37 0 0 1 .83.53 70.74 70.74 0 0 1 9.26 1.36 1.56 1.56 0 0 1 1.08-.44 1.48 1.48 0 0 1 .93.33c.05 0 .39.32.89.81a44.62 44.62 0 0 1 6.44 2.22v.11c0 .47.08 1 .12 1.56.31 3.67.85 9.1 1.75 14.16a.68.68 0 0 0 .67.56h.12a.68.68 0 0 0 .55-.79 175.14 175.14 0 0 1-2-17.46 86.89 86.89 0 0 1 3.49-13.7l.12-.32c2.67-7.4 5.09-9.92 5.11-9.95a.68.68 0 0 0-1-1c-.09.09-2 2.08-4.37 7.71a27.84 27.84 0 0 1-7.65 1.1 28.74 28.74 0 0 1-11.38-2.41c-12.52-5.35-14.74-17.28-15.11-20.42-2.41-.45-4.44-2.46-5.92-4.44a9.36 9.36 0 0 1-.6-.91c-.17-.18-.32-.37-.48-.57a9.64 9.64 0 0 1-.8-1.29l-.11-.2a13.2 13.2 0 0 1-.59-1.37v-.07l-2.45-2.47c-.74-.75-2.71-3.12-3.29-3.79a2.55 2.55 0 0 1-.18-.23c-.32-.47-.35-.87-.83-1.57-.08-.12-.18-.25-.29-.39s-.2-.26-.29-.39c-.62-.92-.72-1.72.05-2.39a1.91 1.91 0 0 1 .26-.16l.16-.1a2 2 0 0 1 .57-.19h.37a2.12 2.12 0 0 1 1.6.73l.13.15c-.1-.67-.07-1.48-.23-2.21-.23-1-.38-2 .7-2.43a2 2 0 0 1 .29-.05h.24a2.2 2.2 0 0 1 .23 0 2.09 2.09 0 0 1 .8.18l.18.08a1.91 1.91 0 0 1 .6.46l.1.13a2.08 2.08 0 0 1 .28.49c0 .06.22.58.5 1.35l.14-.83a7.77 7.77 0 0 1 1.08-2.5c.36-.82.74-2.28 1.83-2.28h.21a2.3 2.3 0 0 1 1.89 2.64l-.65 3.92-.46 2.76a21.56 21.56 0 0 0-2 4.17.68.68 0 0 0 .42.87.69.69 0 0 0 .22 0 .68.68 0 0 0 .64-.46 21.46 21.46 0 0 1 2.67-5.08v-.06a18.46 18.46 0 0 1 1.94-1.17 7.39 7.39 0 0 1 3-.58 4.47 4.47 0 0 1 1.11.12 14 14 0 0 0 2.34.79 2.34 2.34 0 0 1 1.91.85 2.06 2.06 0 0 1 .27.93l.68-.12a35.23 35.23 0 0 1-2.92-5.42c-.14-.32-.28-.64-.41-1s-.17-.46-.26-.69c-.16-.44-.32-.88-.46-1.32l-.15-.47c-.18-.6-.35-1.21-.5-1.82-.17-.7-.33-1.4-.45-2.12-.06-.35-.09-.71-.14-1.06s-.12-.84-.17-1.26-.08-.91-.11-1.36 0-.74-.05-1.1 0-.91 0-1.37v-1.12q0-1.12.17-2.23c0-.41.08-.82.14-1.23s.14-.85.22-1.27.15-.78.23-1.17.18-.82.29-1.23.23-.86.36-1.29.22-.78.35-1.17q.34-1 .74-2c.14-.37.3-.73.46-1.09s.35-.81.54-1.21c.09-.2.17-.4.26-.59l.11-.19.25-.42a44.34 44.34 0 0 1 7.31-9 .68.68 0 0 0-.9-1 42.55 42.55 0 0 0-5.46 6.2c-.62.84-1.24 1.76-1.86 2.75l-.12.18c-5-12.41-3.29-26.66-.11-31.63h-1.68a.68.68 0 1 1 0-1.36h2.89l.21-.15a6.71 6.71 0 0 1 3.43-.73 25.13 25.13 0 0 1 5.93.88h3.9a.68.68 0 0 1 .3 1.29 55.41 55.41 0 0 1 7.49 3.28 40.07 40.07 0 0 1 6.31 4.14 74.11 74.11 0 0 1 13.19-3.51 66.89 66.89 0 0 1 11.61-1.07h2.13c.58-1 1.22-1.93 1.86-2.82h-3.32v.06h-.63a70 70 0 0 0-12.08 1.11 79.25 79.25 0 0 0-12.23 3.12 44.82 44.82 0 0 0-5.51-3.47c-5.37-2.87-13.3-5.77-18.89-5.77a9.15 9.15 0 0 0-4.85 1.12c-5.53 3.36-8.65 21.76-2.21 37a38 38 0 0 0-3 22.3 36.13 36.13 0 0 0 2 7.12h-.51a11.09 11.09 0 0 0-3.41.53l.29-1.78a5 5 0 0 0-4.13-5.77 4.07 4.07 0 0 0-.66-.05c-2.44 0-3.53 2-4 3.17a4.79 4.79 0 0 0-3.23.09 3.83 3.83 0 0 0-2.57 3.77 4.74 4.74 0 0 0-1.84 1c-1.49 1.29-2.32 3.71-.06 6.52a2.42 2.42 0 0 1 .41.7 5.6 5.6 0 0 0 1 1.57l.7.82c1.15 1.36 2.15 2.53 2.72 3.1l.78.79 1.26 1.27a13.29 13.29 0 0 0 1.69 3.06c.14.19.29.37.45.55s.42.65.64 1a14.72 14.72 0 0 0 5.67 4.89 27.82 27.82 0 0 0 16.47 20.85 31.58 31.58 0 0 0 12.45 2.63 30 30 0 0 0 4.91-.41 91 91 0 0 0-3.16 12.25c-1-.38-2.3-.8-3.78-1.22-.31-.29-.51-.45-.56-.49a4.23 4.23 0 0 0-4.16-.64 74.15 74.15 0 0 0-7.8-1.13 3.7 3.7 0 0 0-1.32-.56 4.27 4.27 0 0 0-2.58.3c-1.35-.06-2.66-.09-4-.09H226.57a4.23 4.23 0 0 0-4.24.16l-.25.18a60.64 60.64 0 0 0-7.54 1.31 4.24 4.24 0 0 0-.82-.08 4.13 4.13 0 0 0-1.75.39 4 4 0 0 0-1 .7c-9.47 2.94-14.74 7.22-15.32 7.71a3.44 3.44 0 0 0-.89 1.15c-3.19 2.51-5.1 5.27-5.68 8.2-1.34 6.7 4.11 13.79 14.3 18.76a4.26 4.26 0 0 0 6.29 2.56 53.52 53.52 0 0 0 10.12 2.29 4.2 4.2 0 0 0 .54.54 4.27 4.27 0 0 0 5.62-.17c1.24 0 2.45-.06 3.59-.17a64.85 64.85 0 0 0 7.62-1.17 4.13 4.13 0 0 0 .9.56 4.26 4.26 0 0 0 5.64-2.12l.08-.18a69 69 0 0 0 6.89-2.6l.33.19a4.3 4.3 0 0 0 2 .48 4.25 4.25 0 0 0 3.79-2.31 15.76 15.76 0 0 0 .75-1.77 48.46 48.46 0 0 0 4 12.43c.46.8.96 1.86 1.46 2.8l3.13-.07z"/><path class="cls-13" d="M324.19 165.17l2.18-.39 6-1.06a1.87 1.87 0 0 0 1.31-1 3 3 0 0 1 .53.34l.05.05a2.92 2.92 0 0 1 .41.44l.09.13a2.85 2.85 0 0 1 .27.5v.1a2.86 2.86 0 0 1 .17.7 3.82 3.82 0 0 0 3.48 3.4h.32a3.82 3.82 0 0 0 3.8-3.5 5 5 0 0 0-.78-3 3.67 3.67 0 0 0-2.33-1.77l-3.69 1.36a3.78 3.78 0 0 1-2.21-.18 1.85 1.85 0 0 0-1.38-1.23h-.14a1.88 1.88 0 0 0-.57 0l-6.41 1.14-1.77.31zm15.4-2a2.43 2.43 0 0 1 .57 1.57 1.09 1.09 0 0 1-1.08 1H339a1.09 1.09 0 0 1-1-1 5.65 5.65 0 0 0-.2-1z"/><path class="cls-14" d="M349.63 166.57c-.09.24-.18.47-.29.69a9.35 9.35 0 0 1-.31 1.07c-.83 2.33-2.18 4.84-4.35 6 .57 3.13 1.93 15.18-8.45 24a28 28 0 0 1-18.5 6.87 31.61 31.61 0 0 1-4.9-.39 38.1 38.1 0 0 0-3.57-5.95.68.68 0 0 0-1.09.82 35.38 35.38 0 0 1 3.95 6.91l.07.17c.09.23.17.46.25.69 0 0 0 .06.07.09 1.65 4.14 3.2 8.42 4.53 12.35 3.58 10.57 6 28.17 2.75 36-.49 4.58-1.66 11.27-4.52 17-2.22 4.45-3.74 6.59-4.72 7.17l3.54.28a41.61 41.61 0 0 0 3.62-6.23c2.95-5.89 4.21-12.71 4.75-17.53 3.58-9.32.46-27.79-2.84-37.51-1.35-4-2.71-7.72-4-11.16q1.09.07 2.17.07a30.64 30.64 0 0 0 20.21-7.63 27.83 27.83 0 0 0 9.63-24.77 14.73 14.73 0 0 0 4-6.33c.09-.25.16-.52.24-.78v-8.22l-1.61 3.06a11.24 11.24 0 0 1-.63 3.26z"/><path class="cls-2" d="M269.05 282a.9.9 0 0 1-.37-.1 2.19 2.19 0 0 1-.39-.26l-.09-.08a5.15 5.15 0 0 1-.4-.4l-.15-.17c-.13-.15-.26-.32-.4-.51l-.21-.28c-.13-.18-.26-.38-.4-.59l-.29-.44-.17-.29-3.18.12c2.38 4.25 4 5.78 6 5.78a3.31 3.31 0 0 0 2.39-1c.94-1 1.35-2.47 1.34-4.93h-2.72c.06 1.92-.23 3.15-.96 3.15z"/><path class="cls-15" d="M269.05 282a.9.9 0 0 1-.37-.1 2.19 2.19 0 0 1-.39-.26l-.09-.08a5.15 5.15 0 0 1-.4-.4l-.15-.17c-.13-.15-.26-.32-.4-.51l-.21-.28c-.13-.18-.26-.38-.4-.59l-.29-.44-.17-.29-3.18.12c2.38 4.25 4 5.78 6 5.78a3.31 3.31 0 0 0 2.39-1c.94-1 1.35-2.47 1.34-4.93h-2.72c.06 1.92-.23 3.15-.96 3.15z"/><path class="cls-2" d="M310 280.11a.56.56 0 0 1-.24-.06.72.72 0 0 1-.15-.13l-3-.2a4.41 4.41 0 0 0 1.09 2.16 3.31 3.31 0 0 0 2.39 1c1.39 0 2.62-.74 4-2.63l-3.54-.28a1.09 1.09 0 0 1-.55.14z"/><path class="cls-16" d="M310 280.11a.56.56 0 0 1-.24-.06.72.72 0 0 1-.15-.13l-3-.2a4.41 4.41 0 0 0 1.09 2.16 3.31 3.31 0 0 0 2.39 1c1.39 0 2.62-.74 4-2.63l-3.54-.28a1.09 1.09 0 0 1-.55.14z"/><path class="cls-2" d="M289.79 108.15h-3.42c-.31.44-.63.89-.94 1.36h3.32c.36-.51.7-.93 1.04-1.36z"/><path class="cls-17" d="M289.79 108.15h-3.42c-.31.44-.63.89-.94 1.36h3.32c.36-.51.7-.93 1.04-1.36z"/><path class="cls-2" d="M246.56 108.83a.68.68 0 0 0-.68-.68H242c1.36.34 2.77.78 4.19 1.29a.68.68 0 0 0 .37-.61z"/><path class="cls-18" d="M246.56 108.83a.68.68 0 0 0-.68-.68H242c1.36.34 2.77.78 4.19 1.29a.68.68 0 0 0 .37-.61z"/><path class="cls-2" d="M232.41 108.15h-2.89a.68.68 0 1 0 0 1.36h1.68a5.1 5.1 0 0 1 1.21-1.36z"/><path class="cls-19" d="M232.41 108.15h-2.89a.68.68 0 1 0 0 1.36h1.68a5.1 5.1 0 0 1 1.21-1.36z"/><ellipse class="cls-2" cx="114.9" cy="283.82" rx="26.73" ry="5.31"/><circle class="cls-2" cx="114.4" cy="234.64" r="8.47"/><path class="cls-2" d="M121.07 287.57a1.36 1.36 0 0 1-1.35-1.2l-5.66-48c-5.85 18.8-13.19 42.68-13.43 44.39a1.32 1.32 0 0 1-1.37 1.24 1.41 1.41 0 0 1-1.36-1.42c0-1.58 10.81-36.33 15.46-51.2a1.36 1.36 0 0 1 2.65.25l6.41 54.37a1.36 1.36 0 0 1-1.19 1.51z"/><path class="cls-2" d="M127 281.16a1.36 1.36 0 0 1-1.32-1l-12.31-48a1.36 1.36 0 1 1 2.64-.68l12.31 48a1.36 1.36 0 0 1-1.32 1.7z"/><path class="cls-2" d="M131.74 196a.21.21 0 0 1-.17.25l-5.57 1.07-3.45.68a.21.21 0 0 1-.25-.17l-1.3-6.45a.21.21 0 0 1 .17-.25l9.08-1.8a.21.21 0 0 1 .25.17z" id="Layer_2-2" data-name="Layer 2"/><path class="cls-2" d="M138.42 229.58l-45.22 9a2.23 2.23 0 0 1-2.62-1.75l-6.33-31.93a2.23 2.23 0 0 1 1.75-2.67l45.22-9a2.23 2.23 0 0 1 2.62 1.75l6.33 32.02a2.23 2.23 0 0 1-1.75 2.58z" id="Layer_3" data-name="Layer 3"/><path class="cls-3" d="M132.43 200.92c0 .07 0 .14-.14.16l-7.2 1.43a.15.15 0 0 1-.19-.09l-.77-3.9c0-.07 0-.14.14-.16l7.2-1.43a.15.15 0 0 1 .19.09z" id="Layer_4" data-name="Layer 4"/><circle class="cls-3" cx="93.13" cy="222.39" r="2.65" transform="rotate(-11.21 93.14 222.41)" id="Layer_6" data-name="Layer 6"/><circle class="cls-3" cx="112.09" cy="215.29" r="14.25" transform="rotate(-11.21 112.1 215.32)" id="Layer_7" data-name="Layer 7"/><path class="cls-2" d="M110.35 206.51a8.95 8.95 0 1 0 10.52 7 9 9 0 0 0-10.52-7z" id="Layer_8" data-name="Layer 8"/><path class="cls-3" d="M110.78 208.69a6.61 6.61 0 1 0 7.77 5.2 6.61 6.61 0 0 0-7.77-5.2zm3.54 5.32a1.63 1.63 0 1 1 1.28-1.91 1.63 1.63 0 0 1-1.28 1.9z" id="Layer_9" data-name="Layer 9"/></g></svg>