<svg xmlns="http://www.w3.org/2000/svg" width="281" height="233">
  <defs>
    <linearGradient id="a" x1="-26.7072552%" x2="121.200691%" y1="-8.21456664%" y2="115.364749%">
      <stop stop-color="#00C8D7" offset="0%"/>
      <stop stop-color="#008EA4" offset="100%"/>
    </linearGradient>
    <linearGradient id="b" x1="-171.534367%" x2="377.694136%" y1="-258.916232%" y2="507.082022%">
      <stop stop-color="#E6FCFF" offset="0%"/>
      <stop stop-color="#B5F2FF" offset="100%"/>
    </linearGradient>
    <linearGradient id="c" x1="-275.615152%" x2="393.814483%" y1="-214.880097%" y2="329.931438%">
      <stop stop-color="#E6FCFF" offset="0%"/>
      <stop stop-color="#B5F2FF" offset="100%"/>
    </linearGradient>
    <linearGradient id="d" x1="-71.2230562%" x2="141.268437%" y1="-46.5567621%" y2="122.213199%">
      <stop stop-color="#E6FCFF" offset="0%"/>
      <stop stop-color="#B5F2FF" offset="100%"/>
    </linearGradient>
    <linearGradient id="e" x1="-912.187374%" x2="706.872366%" y1="-223.131903%" y2="247.7375%">
      <stop stop-color="#E6FCFF" offset="0%"/>
      <stop stop-color="#B5F2FF" offset="100%"/>
    </linearGradient>
    <linearGradient id="f" x1="-636.509606%" x2="265.115932%" y1="-364.308744%" y2="178.753736%">
      <stop stop-color="#E6FCFF" offset="0%"/>
      <stop stop-color="#B5F2FF" offset="100%"/>
    </linearGradient>
    <linearGradient id="g" x1="-96.7324958%" x2="214.858961%" y1="-489.128132%" y2="600.29142%">
      <stop stop-color="#E6FCFF" offset="0%"/>
      <stop stop-color="#B5F2FF" offset="100%"/>
    </linearGradient>
    <linearGradient id="h" x1="-370.226425%" x2="176.655533%" y1="-420.236682%" y2="206.08556%">
      <stop stop-color="#E6FCFF" offset="0%"/>
      <stop stop-color="#B5F2FF" offset="100%"/>
    </linearGradient>
    <linearGradient id="i" x1="-1573.85207%" x2="2621.18334%" y1="-918.807829%" y2="1582.542%">
      <stop stop-color="#00C8D7" offset="0%"/>
      <stop stop-color="#008EA4" offset="100%"/>
    </linearGradient>
    <linearGradient id="j" x1="-1977.10979%" x2="2217.92561%" y1="-1158.35597%" y2="1342.99386%">
      <stop stop-color="#00C8D7" offset="0%"/>
      <stop stop-color="#008EA4" offset="100%"/>
    </linearGradient>
    <linearGradient id="k" x1="-635.169191%" x2="1018.69953%" y1="-1184.44408%" y2="1785.60576%">
      <stop stop-color="#00C8D7" offset="0%"/>
      <stop stop-color="#008EA4" offset="100%"/>
    </linearGradient>
    <linearGradient id="l" x1="-278.76866%" x2="377.256589%" y1="-697.981967%" y2="835.635246%">
      <stop stop-color="#00C8D7" offset="0%"/>
      <stop stop-color="#008EA4" offset="100%"/>
    </linearGradient>
    <linearGradient id="m" x1="-553.131633%" x2="647.619338%" y1="-1374.34047%" y2="1418.49315%">
      <stop stop-color="#00C8D7" offset="0%"/>
      <stop stop-color="#008EA4" offset="100%"/>
    </linearGradient>
    <linearGradient id="n" x1="-450.59361%" x2="546.286439%" y1="-895.950857%" y2="958.91224%">
      <stop stop-color="#00C8D7" offset="0%"/>
      <stop stop-color="#008EA4" offset="100%"/>
    </linearGradient>
    <linearGradient id="o" x1="-511.211278%" x2="295.07392%" y1="-745.273546%" y2="396.265912%">
      <stop stop-color="#00C8D7" offset="0%"/>
      <stop stop-color="#008EA4" offset="100%"/>
    </linearGradient>
    <linearGradient id="p" x1="-871.182847%" x2="303.781403%" y1="-595.928571%" y2="241.5435%">
      <stop stop-color="#00C8D7" offset="0%"/>
      <stop stop-color="#008EA4" offset="100%"/>
    </linearGradient>
    <linearGradient id="q" x1="-450.336951%" x2="307.764971%" y1="-505.416691%" y2="315.448433%">
      <stop stop-color="#E6FCFF" offset="0%"/>
      <stop stop-color="#B5F2FF" offset="100%"/>
    </linearGradient>
    <linearGradient id="r" x1="-2519.79056%" x2="1944.50093%" y1="-1090.70814%" y2="890.815528%">
      <stop stop-color="#00C8D7" offset="0%"/>
      <stop stop-color="#008EA4" offset="100%"/>
    </linearGradient>
    <linearGradient id="s" x1="-134.127826%" x2="165.330874%" y1="-297.102666%" y2="260.202663%">
      <stop stop-color="#E6FCFF" offset="0%"/>
      <stop stop-color="#B5F2FF" offset="100%"/>
    </linearGradient>
    <linearGradient id="t" x1="-1132.52358%" x2="304.180944%" y1="-1559.01765%" y2="393.843988%">
      <stop stop-color="#E6FCFF" offset="0%"/>
      <stop stop-color="#B5F2FF" offset="100%"/>
    </linearGradient>
    <linearGradient id="u" x1="-1884.94918%" x2="1592.74001%" y1="-342.289711%" y2="381.222953%">
      <stop stop-color="#E6FCFF" offset="0%"/>
      <stop stop-color="#B5F2FF" offset="100%"/>
    </linearGradient>
    <linearGradient id="v" x1="-109.932792%" x2="195.629347%" y1="-425.144051%" y2="431.622036%">
      <stop stop-color="#00C8D7" offset="0%"/>
      <stop stop-color="#008EA4" offset="100%"/>
    </linearGradient>
    <linearGradient id="w" x1="-813.648281%" x2="368.736119%" y1="-1076.38789%" y2="459.249729%">
      <stop stop-color="#00C8D7" offset="0%"/>
      <stop stop-color="#008EA4" offset="100%"/>
    </linearGradient>
    <linearGradient id="x" x1="-1092.12785%" x2="635.82518%" y1="-4587.46665%" y2="2425.66052%">
      <stop stop-color="#00C8D7" offset="0%"/>
      <stop stop-color="#008EA4" offset="100%"/>
    </linearGradient>
    <linearGradient id="y" x1="-415.250984%" x2="1490.35841%" y1="-442.448072%" y2="1582.67684%">
      <stop stop-color="#00C8D7" offset="0%"/>
      <stop stop-color="#008EA4" offset="100%"/>
    </linearGradient>
    <linearGradient id="z" x1="-167.167389%" x2="492.546376%" y1="-2085.55413%" y2="4392.09342%">
      <stop stop-color="#00C8D7" offset="0%"/>
      <stop stop-color="#008EA4" offset="100%"/>
    </linearGradient>
    <linearGradient id="A" x1="-2989.85248%" x2="1926.86535%" y1="-1363.11821%" y2="921.90878%">
      <stop stop-color="#00C8D7" offset="0%"/>
      <stop stop-color="#008EA4" offset="100%"/>
    </linearGradient>
    <linearGradient id="B" x1="-2586.45105%" x2="2652.41027%" y1="-792.93501%" y2="883.790987%">
      <stop stop-color="#00C8D7" offset="0%"/>
      <stop stop-color="#008EA4" offset="100%"/>
    </linearGradient>
  </defs>
  <g fill="none" fill-rule="evenodd">
    <g fill="#D7D7DB" fill-rule="nonzero">
      <path d="M204.3 76.7h-77c-.6 0-1.1-.5-1.1-1.1 0-.6.5-1.1 1.1-1.1h77c.6 0 1.1.5 1.1 1.1 0 .6-.4 1.1-1.1 1.1zM193.9 71h-13.4c-.3 0-.6-.2-.6-.6 0-.3.2-.6.6-.6h13.4c.3 0 .6.2.6.6 0 .4-.2.6-.6.6zM176.4 81.7H163c-.3 0-.6-.2-.6-.6 0-.4.2-.6.6-.6h13.4c.3 0 .6.2.6.6 0 .4-.2.6-.6.6zm-22.2 0h-3.3c-.3 0-.6-.2-.6-.6 0-.4.2-.6.6-.6h3.3c.3 0 .6.2.6.6 0 .4-.3.6-.6.6zm-7.8 0h-1.1c-.3 0-.6-.2-.6-.6 0-.4.2-.6.6-.6h1.1c.3 0 .6.2.6.6 0 .4-.3.6-.6.6zm-11.2 0h-13.4c-.3 0-.6-.2-.6-.6 0-.4.2-.6.6-.6h13.4c.3 0 .6.2.6.6 0 .4-.3.6-.6.6zm-22.2 0h-3.3c-.3 0-.6-.2-.6-.6 0-.4.2-.6.6-.6h3.3c.3 0 .6.2.6.6 0 .4-.3.6-.6.6zm-7.8 0H104c-.3 0-.6-.2-.6-.6 0-.4.2-.6.6-.6h1.1c.3 0 .6.2.6.6 0 .4-.2.6-.5.6zm-11.2 0H80.6c-.3 0-.6-.2-.6-.6 0-.4.2-.6.6-.6H94c.3 0 .6.2.6.6 0 .4-.3.6-.6.6zm-22.3 0h-3.3c-.3 0-.6-.2-.6-.6 0-.4.2-.6.6-.6h3.3c.3 0 .6.2.6.6 0 .4-.3.6-.6.6zm-7.8 0h-1.1c-.3 0-.6-.2-.6-.6 0-.4.2-.6.6-.6h1.1c.3 0 .6.2.6.6 0 .4-.3.6-.6.6z"/>
    </g>
    <g fill-rule="nonzero">
      <path fill="#F9F9FA" d="M152.3 47.8h23.8s-7.4-16.6 8.3-18.8c14.1-1.9 19.6 12.5 19.6 12.5s1.7-8.3 10-6.7c8.3 1.6 14.3 14.8 14.3 14.8H249"/>
      <path fill="#D7D7DB" d="M249.5 45.8H245c-.3 0-.6-.2-.6-.6 0-.3.2-.6.6-.6h4.5c.3 0 .6.2.6.6-.1.4-.3.6-.6.6zm-14.5 0h-1.1c-.3 0-.6-.2-.6-.6 0-.4.2-.6.6-.6h1.1c.3 0 .6.2.6.6 0 .4-.3.6-.6.6zm-5.6 0h-.6c-.2 0-.4-.1-.5-.3-.1-.2-.6-1.1-1.3-2.3-.2-.3-.1-.6.2-.8.3-.2.6-.1.8.2.6.9 1 1.7 1.2 2.1h.3c.3 0 .6.2.6.6 0 .4-.4.5-.7.5zm-52.9-.7H175c-.3 0-.6-.2-.6-.6 0-.3.2-.6.6-.6h.6c-.1-.3-.2-.6-.4-1-.1-.3.1-.6.4-.7.3-.1.6.1.7.4.3 1 .6 1.7.6 1.7.1.2.1.4 0 .5-.1.1-.3.3-.4.3zm-10.4 0h-13.4c-.3 0-.6-.2-.6-.6 0-.3.2-.6.6-.6h13.4c.3 0 .6.2.6.6-.1.4-.3.6-.6.6zm8.7-6.1c-.3 0-.5-.2-.6-.5 0-.4-.1-.8-.1-1.1 0-.3.2-.6.5-.6s.6.2.6.5c0 .4.1.7.1 1.1.1.3-.1.6-.5.6.1 0 .1 0 0 0zm29.2-1.1c-.2 0-.4-.1-.5-.3-.1-.3-.3-.6-.5-1-.1-.3 0-.6.2-.8.3-.1.6 0 .8.2.2.4.4.7.5 1 .1.3 0 .6-.3.7-.1.2-.2.2-.2.2zm17.9-1.4c-.1 0-.3-.1-.4-.2-2.4-2.3-4.8-3.7-7.2-4.1-1.6-.3-3.1-.2-4.3.2-.3.1-.6-.1-.7-.4-.1-.3.1-.6.4-.7 1.4-.5 3.1-.6 4.9-.2 2.6.5 5.2 2 7.7 4.4.2.2.2.6 0 .8-.1.1-.2.2-.4.2zM201 33.2c-.2 0-.3-.1-.4-.2-.7-.9-1.4-1.7-2.2-2.4-.2-.2-.2-.6 0-.8.2-.2.6-.2.8 0 .8.7 1.6 1.6 2.3 2.5.2.2.2.6-.1.8-.2 0-.3.1-.4.1zm-22.8-4.3c-.2 0-.3-.1-.4-.2-.2-.2-.2-.6.1-.8 1.7-1.4 4.1-2.3 6.9-2.7 2.2-.3 4.3-.2 6.3.2.3.1.5.4.4.7-.1.3-.4.5-.7.4-1.9-.4-3.9-.5-5.9-.2-2.7.4-4.8 1.2-6.4 2.4-.1.2-.2.2-.3.2z"/>
      <path fill="#F9F9FA" d="M250.2 50.1h-97.9c-.6 0-1.1-.5-1.1-1.1 0-.6.5-1.1 1.1-1.1h97.9c.6 0 1.1.5 1.1 1.1 0 .6-.5 1.1-1.1 1.1z"/>
    </g>
    <g fill-rule="nonzero">
      <path fill="#F9F9FA" d="M49.3 29.4h13.2s-4.1-9.2 4.6-10.4c7.8-1.1 10.9 7 10.9 7s.9-4.6 5.6-3.8c4.6.9 8 8.3 8 8.3h11.5"/>
      <path fill="#D7D7DB" d="M62.9 27.9H49.7c-.3 0-.6-.2-.6-.6 0-.3.2-.6.6-.6h12.8s.1-.1.2-.1c.3-.1.6 0 .7.3l.1.1c.1.2.1.4 0 .5-.2.3-.4.4-.6.4zm36.6-.1h-3.3c-.3 0-.6-.2-.6-.6 0-.3.2-.6.6-.6h3.3c.3 0 .6.2.6.6 0 .3-.3.6-.6.6zm-20.9-3.6h-.2c-.3-.1-.5-.4-.4-.7.3-.9 1.5-4 4.9-4 .4 0 .8 0 1.2.1 1.8.3 3.6 1.5 5.4 3.4.2.2.2.6 0 .8-.2.2-.6.2-.8 0-1.6-1.7-3.2-2.7-4.8-3-.4-.1-.7-.1-1-.1-2.6 0-3.5 2.2-3.8 3.2-.1.1-.3.3-.5.3zm-15.2-4.9c-.1 0-.3-.1-.4-.2-.2-.2-.2-.6 0-.8.8-.8 1.8-1.4 3.1-1.7.3-.1.6.1.7.4.1.3-.1.6-.4.7-1.1.3-2 .8-2.6 1.4-.1.2-.3.2-.4.2zm8.4-1.5h-.2c-.3-.1-.7-.2-1-.3-.3-.1-.5-.3-.4-.7.1-.3.4-.5.7-.4.4.1.8.2 1.1.3.3.1.5.4.4.7-.2.3-.4.4-.6.4z"/>
      <path fill="#F9F9FA" d="M104 31.6H49.6c-.6 0-1.1-.5-1.1-1.1 0-.6.5-1.1 1.1-1.1H104c.6 0 1.1.5 1.1 1.1 0 .6-.5 1.1-1.1 1.1z"/>
    </g>
    <g fill-rule="nonzero">
      <path fill="#FFF" d="M19.6 169.1c-2.8 0-5-2.2-5-4.8V46c0-3 2.4-5.4 5.4-5.4h127c3 0 5.4 2.4 5.4 5.4v118.3c0 2.6-2.3 4.8-5 4.8H19.6z"/>
      <path fill="#D7D7DB" d="M146.9 41.8c2.3 0 4.2 1.9 4.2 4.2v118.3c0 2-1.8 3.7-3.9 3.7H19.6c-2.2 0-3.9-1.6-3.9-3.7V46c0-2.3 1.9-4.2 4.2-4.2h127zm0-2.2h-127c-3.6 0-6.5 2.9-6.5 6.5v118.3c0 3.3 2.8 5.9 6.2 5.9h127.6c3.4 0 6.2-2.7 6.2-5.9V46c0-3.5-2.9-6.4-6.5-6.4z"/>
    </g>
    <path fill="#D7D7DB" fill-rule="nonzero" d="M145.8 62.9V161c0 1-.1 1.2-.1 1.2s-.2.1-1.2.1h-122c-1 0-1.2-.1-1.2-.1s-.1-.2-.1-1.2V62.9h124.6zm1.1-1.2H20v99.2c0 2 .4 2.5 2.5 2.5h122c2 0 2.5-.4 2.5-2.5V61.7h-.1z"/>
    <g fill="#D7D7DB" fill-rule="nonzero">
      <circle cx="3.8" cy="3.7" r="2.9" transform="translate(23 48)"/>
      <circle cx="3" cy="3.7" r="2.9" transform="translate(33 48)"/>
      <path d="M115.3 54.9H51.5c-1.7 0-3.1-1.4-3.1-3.1v-.3c0-1.7 1.4-3.1 3.1-3.1h63.8c1.7 0 3.1 1.4 3.1 3.1v.3c0 1.8-1.4 3.1-3.1 3.1z"/>
      <g>
        <circle cx="3.8" cy="3.7" r="2.9" transform="translate(127 48)"/>
        <circle cx="3.1" cy="3.7" r="2.9" transform="translate(137 48)"/>
      </g>
    </g>
    <g transform="translate(149 84)">
      <ellipse cx="42.7" cy="142" fill="#EDEDF0" fill-rule="nonzero" rx="42.5" ry="6.5"/>
      <path fill="#F9F9FA" fill-rule="nonzero" d="M121.2 99.6c-1.3-3.1-4.3-5.2-7.7-5.2-.7 0-1.4.1-2.1.3-.8 0-3.1-.3-7.2-2-1.7-.7-4.8-3.9-8.4-10.5 5.2-19.9 5.5-36.8.7-50.3-.4-1-.9-2.1-1.5-3.2l-.3-1.4 2-1.7c1.6-1.4 2.3-3.5 1.7-5.6-.3-1.2-1-2.2-2-2.9 0-.3 0-.6-.1-.9-.4-2.3-2.2-4.1-4.5-4.4-.4-.1-10.6-1.7-17.1-1.7h-.4l-1.7-2.8C70 3.1 65.5.6 60.5.6c-2.6 0-5.2.7-7.5 2.1-2.6 1.6-4.5 3.9-5.7 6.7-6 .7-12.1 2.3-18.2 4.7l-3.4-1.4c-1.7-.7-3.5-1.1-5.4-1.1-5.8 0-10.9 3.5-13.1 8.8-2.7 6.6-.1 14 5.8 17.5-1.1 5.9-1.5 12.4-1 19.6.6 9-2.2 13.5-5.1 18.2-4.4 7.1-9.4 15.1 0 33.8 0 2.2.1 4.2.2 5.8 1.3 11.8 4.6 17.7 10 17.7.9 0 1.9-.2 2.7-.6 2.2-1.1 3.3-2.6 5-9.9 9.3 3.1 21.2 5.8 30.9 6.9-1.7 7.6-1.5 9.4 0 11.4 1.2 1.5 3 2.4 5 2.4 4.1 0 8.8-4.1 14-12.1 1.3-2.1 2.8-5 4.4-8.5 1.4-2.4 5.5-9.7 10-20.9 2.8 2.9 5.6 5 8.6 6.2 5.2 2.1 9.8 3.2 13.5 3.2 2.5 0 4.2-.5 5.1-.9 4.6-1.5 6.6-6.4 4.9-10.6z"/>
      <path d="M115.2 101.4c-.4-.9-1.5-1.4-2.4-1-.2.1-.6.1-1.2.1-1.4 0-4.6-.3-9.8-2.4-5.5-2.2-10.3-10.6-12.7-15.5-.1-.2-.1-.5-.1-.8 5.4-19.5 5.9-35.8 1.4-48.4-.3-.8-.7-1.8-1.3-2.7-.1-.1-.1-.2-.1-.3L87.7 25c-.1-.4 0-.8.4-1.1l2.6-2.2-5.8-.9c-.5-.1-.9-.4-.9-.9s.2-.9.6-1.2l3-1.6c-3.5-.5-8.9-1.1-12.7-1.1-1.1 0-2 .1-2.6.2l-.4.1c-.4.1-.9-.1-1.1-.5l-3.4-5.5C66 8 63.5 6.7 60.9 6.7c-1.4 0-2.8.4-4.1 1.2-2.2 1.4-3.5 3.7-3.6 6.3 0 .6-.5 1-1.1 1.1-7.2.4-14.7 2.2-22.2 5.4-.3.1-.6.1-.9 0l-5.4-2.2c-.9-.4-1.9-.6-2.9-.6-3.1 0-5.9 1.9-7.1 4.8-1.6 3.9.3 8.4 4.2 10l2.3.9c.5.2.8.8.6 1.3-1.8 6.2-2.4 13.6-1.8 21.9.7 11.1-2.9 16.9-6.1 22.1-4.3 6.9-7.7 12.3.9 28.6.1.2.1.4.1.5-.1 2.6 0 4.7.2 6.3.8 7.8 2.6 11.1 3.4 11.8.4-.8 1.2-3.3 2.9-11.3.1-.3.3-.6.6-.8.2-.1.3-.1.5-.1.1 0 .3 0 .4.1 10.8 4.5 29.6 8.7 41.2 9.1.3 0 .7.2.9.4.2.3.3.6.2.9-2.1 8.3-2.5 11-2.5 11.9 1.1-.3 4.2-2.7 8.3-9.1 1.2-1.9 2.5-4.5 4-7.9 0 0 0-.1.1-.1 3.3-5.6 8.7-16.6 13-29.4.1-.4.5-.7.9-.8.4 0 .9.2 1.1.5 3.7 6.2 7.8 10.4 11.7 12 5.5 2.2 9.1 2.7 11.1 2.7 1.6 0 2.4-.3 2.7-.4.6-.4 1-1.5.7-2.4z"/>
      <path fill="url(#a)" fill-rule="nonzero" d="M114.6 98c-.8-2.1-2.9-3.4-5.1-3.4-.6 0-1.1.1-1.7.3-.7 0-3.4 0-8.7-2.2-3-1.2-6.8-6-10.3-12.8 5.4-19.8 5.7-36.5 1-49.7-.3-1-.8-2-1.4-3l-.9-3.4 3.3-2.8c.8-.7 1.1-1.7.8-2.7-.3-1-1.1-1.7-2.1-1.9l-.7-.1c.5-.6.8-1.4.6-2.2-.2-1.1-1-2-2.1-2.1-.1 0-10.3-1.6-16.7-1.6-.7 0-1.3 0-1.9.1l-2.6-4.2C64 2.9 60.4.9 56.4.9c-2.1 0-4.2.6-6 1.7-2.5 1.6-4.3 4.1-5 6.9-6.6.6-13.5 2.3-20.3 5.1l-4.4-1.8c-1.4-.6-2.8-.8-4.3-.8-4.7 0-8.8 2.8-10.6 7.1-2.4 5.8.4 12.5 6.2 14.9l.2.1c-1.4 6.1-1.9 13.2-1.4 20.9.7 9.9-2.5 15-5.6 19.9-4.3 6.9-8.7 14 .4 31.7 0 2.4 0 4.5.2 6.2.6 5.7 2.4 15.2 7.2 15.2.5 0 1-.1 1.5-.4 1.3-.6 2.1-1.5 4.2-11.1 10.3 3.8 25.5 7.2 36.4 8.1-2.6 10.4-2 11.1-1.2 12.2.7.9 1.7 1.4 2.8 1.4 4.1 0 9-6.8 11.6-10.8 1.3-2 2.7-4.8 4.2-8.3C75.5 114 80 104.9 84 94c3.4 4.5 6.9 7.6 10.6 9.1 4.9 2 9.1 3 12.5 3 2 0 3.3-.4 4.1-.7 3.2-1.4 4.5-4.6 3.4-7.4zm-4.4 3.8c-.3.1-1.1.4-2.7.4-2 0-5.6-.5-11.1-2.7-3.9-1.6-8-5.7-11.7-12-.2-.4-.6-.6-1.1-.5-.4 0-.8.3-.9.8-4.3 12.8-9.7 23.9-13 29.4 0 0 0 .1-.1.1-1.5 3.4-2.8 6.1-4 7.9-4.1 6.4-7.1 8.8-8.3 9.1 0-.9.4-3.6 2.5-11.9.1-.3 0-.7-.2-.9-.2-.3-.5-.4-.9-.4-11.6-.4-30.4-4.6-41.2-9.1-.1-.1-.3-.1-.4-.1-.2 0-.4 0-.5.1-.3.2-.5.4-.6.8-1.7 8.1-2.5 10.6-2.9 11.3-.8-.7-2.6-4-3.4-11.8-.2-1.7-.2-3.8-.2-6.3 0-.2 0-.4-.1-.5-8.5-16.3-5.2-21.7-.9-28.6 3.2-5.1 6.8-11 6.1-22.1-.5-8.3.1-15.7 1.8-21.9.2-.5-.1-1.1-.6-1.3l-2.3-.9c-3.9-1.6-5.8-6.1-4.2-10 1.2-2.9 4-4.8 7.1-4.8 1 0 2 .2 2.9.6l5.4 2.2c.3.1.6.1.9 0 7.5-3.2 15-5 22.2-5.4.6 0 1-.5 1.1-1.1.1-2.6 1.5-4.9 3.6-6.3 1.2-.8 2.6-1.2 4.1-1.2 2.7 0 5.1 1.4 6.5 3.6l3.4 5.5c.2.4.7.6 1.1.5l.4-.1c.7-.1 1.6-.2 2.6-.2 3.8 0 9.2.6 12.7 1.1l-3 1.6c-.4.2-.7.7-.6 1.2.1.5.5.8.9.9l5.8.9-2.6 2.2c-.3.3-.5.7-.4 1.1l1.3 5.4c0 .1.1.2.1.3.6 1 1 1.9 1.3 2.7 4.5 12.7 4 29-1.4 48.4-.1.3 0 .5.1.8 2.4 4.8 7.1 13.2 12.7 15.5 5.2 2.1 8.4 2.4 9.8 2.4.6 0 1 0 1.2-.1.9-.4 2 .1 2.4 1 .6.9.2 2-.7 2.4z" transform="translate(4 2)"/>
      <path fill="url(#b)" fill-rule="nonzero" d="M36.6 40.6c-1.1 0-2.2-.2-3.3-.7l-16.2-6.6c-4.5-1.8-6.7-7-4.8-11.5 1.8-4.5 7-6.7 11.5-4.8L40 23.6c4.5 1.8 6.7 7 4.8 11.5-1.4 3.4-4.7 5.5-8.2 5.5z"/>
      <path fill="url(#c)" fill-rule="nonzero" d="M70.8 39.3c-2.9 0-5.8-1.5-7.5-4.2L53.1 18.6c-2.6-4.1-1.3-9.6 2.8-12.1C60 3.9 65.5 5.2 68 9.3l10.2 16.5c2.6 4.1 1.3 9.6-2.8 12.1-1.4 1-3 1.4-4.6 1.4z"/>
      <path fill="url(#d)" fill-rule="nonzero" d="M28.6 19.4c-2.2.9-12.8 10.5-11.1 37.1 1.7 26.2-21.6 21.8-3.8 53.4 3.9 6.9 50.2 17.7 58.6 12.7 2.5-1.5 31.6-54.6 19.1-89.8-4.1-11.5-28.5-28-62.8-13.4z"/>
      <path fill="url(#e)" fill-rule="nonzero" d="M14.3 87.5s-2.6 17.8-1.7 26.6c1 8.8 3.3 13.7 5.1 12.8 1.7-.8 6.2-26.8 6.2-26.8l-9.6-12.6z"/>
      <path fill="url(#f)" fill-rule="nonzero" d="M80.7 103s-5.5 17.1-10.3 24.6c-4.8 7.5-9.1 10.8-10.2 9.3-1.2-1.5 6.2-26.8 6.2-26.8l14.3-7.1z"/>
      <path fill="url(#g)" fill-rule="nonzero" d="M33.5 19c7.8-4 28.9-2.7 38.4-4.1C77 14.1 91 16.3 91 16.3l-6 3.2 8.2 1.2-4.5 3.8 1.8 7.3-1.3-.7-46.3-12.8-9.4.7z"/>
      <path fill="url(#h)" fill-rule="nonzero" d="M111.4 105.1c-2.3 0-6-.6-11.5-2.8-10-4-16.7-20.9-17.4-22.9-.6-1.5.2-3.2 1.7-3.8 1.5-.6 3.2.2 3.8 1.7 1.7 4.5 7.7 16.9 14.1 19.5 7.1 2.9 10.2 2.3 10.2 2.3 1.5-.6 3.2.1 3.8 1.6.6 1.5-.1 3.2-1.6 3.8-.4.3-1.4.6-3.1.6z"/>
      <path fill="#FFF" fill-rule="nonzero" d="M35.4 29.8c-8.3 5.5-3.2 72.6 2.7 79.8 9.5 11.8 31.7 9.3 34.6 3 1.1-2.3 26-48.2 14.3-79.8-3-8-22.5-22.3-51.6-3z"/>
      <path fill="url(#i)" fill-rule="nonzero" d="M50.3 43.8c.9.2 1.4 1.1 1.2 1.9l-.8 3.5c-.2.9-1.1 1.4-1.9 1.2-.9-.2-1.4-1.1-1.2-1.9l.8-3.5c.2-.9 1.1-1.4 1.9-1.2z"/>
      <path fill="url(#j)" fill-rule="nonzero" d="M81.4 44.8c.9.2 1.4 1.1 1.2 1.9l-.8 3.5c-.2.9-1.1 1.4-1.9 1.2-.9-.2-1.4-1.1-1.2-1.9l.8-3.5c.2-.9 1-1.4 1.9-1.2z"/>
      <path fill="url(#k)" fill-rule="nonzero" d="M48.9 57.6c-.5 0-1-.1-1.5-.2-3.5-.8-4.7-3.9-4.7-4.1-.3-.8.1-1.6.9-1.9.8-.3 1.6.1 1.9.9 0 .1.7 1.8 2.6 2.2 1.9.5 3.3-.8 3.3-.8.6-.6 1.5-.5 2.1 0 .6.6.5 1.5 0 2.1-.2.1-2 1.8-4.6 1.8z"/>
      <path fill="url(#l)" fill-rule="nonzero" d="M56.6 69.2c-.8 0-1.4-.6-1.5-1.3-.1-.8.5-1.5 1.3-1.6 8.9-.7 17.1-2.5 18-3.8 1-1.7 1.2-4 1.2-4.1 0-.8.7-1.4 1.4-1.4.8 0 1.4.5 1.5 1.3.1 1.3.6 3.4 1.2 4.1 1.1 1.3 2.3 1.2 2.3 1.2.8 0 1.5.6 1.6 1.4.1.8-.6 1.5-1.4 1.6-1 .1-3.2-.3-4.8-2.3-.1-.2-.3-.4-.4-.6-.1.1-.1.2-.2.3-2 3.3-14.8 4.7-20.3 5.2h.1z"/>
      <g fill-rule="nonzero">
        <path fill="url(#m)" d="M2.4 4.3C1.3 5 7.7 8.2 8.6 8.2c1.3 0 7.8-2.8 7.6-5C16 2.1 6.8 1.3 2.4 4.3z" transform="translate(70 52)"/>
        <path fill="url(#n)" d="M8.6 9.7C7.5 9.7 1.5 7 .9 5c-.2-.8.1-1.5.7-2C5.8.2 13.9.3 16.3 1.4c1 .4 1.2 1.1 1.3 1.6.1.9-.2 1.7-1 2.6-1.8 2.1-6.4 4.1-8 4.1zm-3.9-5c1.3.8 3.5 1.9 4.1 2 .9-.1 4.3-1.7 5.5-2.8-2-.4-6.5-.5-9.6.8z" transform="translate(70 52)"/>
      </g>
      <g fill-rule="nonzero">
        <path fill="#C8C8CC" d="M115 92.8l-7.2.1-.5-40.7c0-3.3 2.5-6.1 5.7-6.3.3 0 .5.2.5.4l1.5 46.5z"/>
        <path fill="#E1E1E6" d="M130.1 53.3c.2-.2.5-.1.7.1 1.9 2.7 1.4 6.4-1.1 8.5l-31.3 26-4.6-5.5 36.3-29.1z"/>
        <path fill="url(#o)" d="M.7 10c-.4 2.6.2 5.2 1.9 7.1.8 1 1.8 1.7 2.9 2.3 3.5 1.6 7.8 1 11-1.7.2-.2.5-.4.7-.6l10.1-8.4c.4-.4.7-.9.8-1.4.1-.6-.1-1.1-.5-1.5l-2.9-3.4c-.2-.2-.4-.4-.7-.6-.2-.1-.5-.2-.7-.2-.6-.1-1.1.1-1.5.5l-2.9 2.4c-.1-.2-.2-.3-.4-.5-.8-1-1.8-1.7-2.9-2.3-3.5-1.6-7.8-1-11 1.7C2.5 5.1 1.2 7.5.7 10zm6.6-3.4c1.9-1.6 4.5-2.1 6.5-1.1.6.3 1.1.7 1.5 1.1 1.4 1.6 1.3 4.1.1 6.1-.5.7-1.1 1.4-2 2.1-1.9 1.3-4.2 1.5-5.9.7-.6-.3-1.1-.7-1.5-1.1-.8-1-1.2-2.4-.9-3.8 0-1.5.9-2.9 2.2-4z" transform="translate(77 75)"/>
        <path fill="url(#p)" d="M0 2.5l.2 13.2v.9c.1 4.1 2.3 7.8 5.7 9.4 1.2.6 2.5.9 3.8.8 5.1-.1 9.3-4.7 9.2-10.4-.1-4.1-2.3-7.8-5.7-9.4-1.2-.6-2.5-.9-3.8-.8h-.6V2.4c0-.8-.5-1.5-1.2-1.9C7.3.4 7 .3 6.7.3L2.2.4C1.6.4 1.1.6.7 1 .2 1.4 0 2 0 2.5zm11.3 8.3c1.9.9 3.2 3.1 3.3 5.6 0 3.4-2.2 6.1-5 6.2-.7 0-1.3-.1-1.9-.4-1.8-.8-3-2.7-3.2-4.9v-.1c0-1.2.1-2.1.3-2.9.7-2.2 2.5-3.9 4.7-3.9.5 0 1.2.1 1.8.4z" transform="translate(107 83)"/>
        <path fill="#C8C8CC" d="M111.3 70.6c1.3.1 2.2 1.3 2.1 2.5-.1 1.3-1.3 2.2-2.5 2.1-1.3-.1-2.2-1.3-2.1-2.5.1-1.2 1.2-2.2 2.5-2.1z"/>
      </g>
      <path fill="url(#q)" fill-rule="nonzero" d="M1.4 2.1L.3 5.7c-1 3.1.7 6.4 3.8 7.4 3.1 1 6.4-.7 7.4-3.8L14.4.1l-13 2z" transform="translate(57 67)"/>
      <path fill="url(#r)" fill-rule="nonzero" d="M63.3 74.7h-.2c-.4-.1-.6-.5-.5-.9l2.2-6.8c.1-.4.5-.6.9-.5.4.1.6.5.5.9L64 74.2c-.1.3-.4.5-.7.5z"/>
      <path fill="url(#s)" fill-rule="nonzero" d="M58.7 98.1c-17.5 0-33-27.8-33.6-29-.8-1.4-.3-3.2 1.2-4 1.4-.8 3.2-.3 4 1.2 4.2 7.6 17.5 27 29.4 25.9 15.2-1.4 22.4-6.9 22.4-7 1.3-1 3.1-.8 4.1.5 1 1.3.8 3.1-.4 4.1-.3.3-8.5 6.7-25.6 8.2-.5.1-1 .1-1.5.1z"/>
      <path fill="url(#t)" fill-rule="nonzero" d="M112.5 97.8s-8 3.2-8.1 5.9c-.1 2.7 8.2 6 11.8.7 3.6-5.2-2.3-7.2-3.7-6.6z"/>
      <path fill="url(#u)" fill-rule="nonzero" d="M30.5 65.3s.7 5.9 4.4 9.2c3.7 3.3-4.8 8.1-4.4 15.4.4 7.4 0-24.6 0-24.6z"/>
      <path fill="url(#v)" fill-rule="nonzero" d="M58.8 98.9h-1.1C44 98.5 32 81 31.5 80.2c-.2-.3-.1-.8.2-1 .3-.2.8-.1 1 .2.1.2 12.1 17.7 25 18 12.8.3 25.3-6.2 27.1-7.7.5-.4.9-2.6.2-3.7-.7-1-2.4-.3-3.6.5-.3.2-.8.1-1-.2-.2-.3-.1-.8.2-1 3.4-2.1 4.9-.9 5.6-.1 1.2 1.6.8 4.7-.4 5.7-1.2 1-13.4 8-27 8z"/>
      <path fill="url(#w)" fill-rule="nonzero" d="M110.8 108.3c-1.3 0-2.8-.3-4.4-1.3-1.9-1-2.8-2.2-2.7-3.6.2-2.7 4.7-4.5 5.2-4.7.4-.1.8 0 1 .4.1.4 0 .8-.4 1-1.6.6-4.2 2.1-4.3 3.5-.1.9 1 1.7 1.9 2.2 2.2 1.2 4.3 1.4 6.1.6 2.1-1 3.1-2.8 3.2-3.2.1-.6.5-2.4-.5-3.5-.7-.8-2.1-1.1-4.1-.9-.4 0-.8-.3-.8-.7 0-.4.3-.8.7-.8 2.5-.2 4.3.2 5.3 1.4 1.5 1.6 1 4 .8 4.7-.2.9-1.6 3.2-4 4.3-.8.3-1.8.6-3 .6z"/>
      <path fill="url(#x)" fill-rule="nonzero" d="M61.1 125.5c-.4 0-.7-.3-.7-.7 0-.4.3-.7.7-.7 3.2 0 8.1-1 8.2-1 .4-.1.8.2.9.6.1.4-.2.8-.6.9-.2-.1-5.1.9-8.5.9z"/>
      <path fill="url(#y)" fill-rule="nonzero" d="M23 25.4h-.2c-.4-.1-.6-.5-.5-.9.2-.7 2.4-5 7.8-7.4.4-.2.8 0 1 .4.2.4 0 .8-.4 1-4.7 2-6.7 5.8-6.9 6.4-.2.3-.5.5-.8.5z"/>
      <path fill="url(#z)" fill-rule="nonzero" d="M68.5 14.8c-8.9 0-18.2-1.2-18.3-1.2-.4-.1-.7-.4-.6-.8.1-.4.4-.7.8-.6.1 0 14.1 1.8 24.1 1 .4 0 .8.3.8.7 0 .4-.3.8-.7.8-2 0-4 .1-6.1.1z"/>
      <path fill="url(#A)" fill-rule="nonzero" d="M88.8 89h-.2c-.4-.1-.6-.5-.5-.9l2-6c.1-.4.5-.6.9-.5.4.1.6.5.5.9l-2 6c-.1.3-.4.5-.7.5z"/>
      <path fill="url(#B)" fill-rule="nonzero" d="M21 119.1h-.1c-.4-.1-.7-.5-.6-.9l1.7-8.6c.1-.4.5-.7.9-.6.4.1.7.5.6.9l-1.7 8.6c-.2.4-.5.6-.8.6z"/>
    </g>
    <path fill="#D7D7DB" fill-rule="nonzero" d="M70.8 82.4c-3.7 0-6.6 3-6.6 6.6h6.6v-6.6zm20 0h-6.6V89h6.6v-6.6zm13.3 0V89h6.6c0-3.6-3-6.6-6.6-6.6zm-23.3 0h-6.6V89h6.6v-6.6zm19.9 0h-6.6V89h6.6v-6.6zm3.4 16.6h6.6v-6.6h-6.6V99zm0 20c3.7 0 6.6-3 6.6-6.6h-6.6v6.6zm0-10h6.6v-6.6h-6.6v6.6zm-1.5-7.2c-2.1-3-6.2-3.7-9.3-1.6l-12.7 9.4-6.5-4.6c0-.3.1-.6.1-1 0-2.7-1.3-5.1-3.3-6.6v-5h-6.6v3.5c-3.8.8-6.6 4.1-6.6 8.1 0 4.6 3.7 8.3 8.3 8.3 1.8 0 3.5-.6 4.8-1.6l4.1 2.9-4.6 3.3c-1.3-.8-2.7-1.2-4.3-1.2-4.6 0-8.3 3.7-8.3 8.3 0 4.6 3.7 8.3 8.3 8.3 4.6 0 8.3-3.7 8.3-8.3 0-.6-.1-1.1-.2-1.6l28.5-20.6zm-36.7 6.4c-2.3 0-4.2-1.9-4.2-4.2 0-2.3 1.9-4.2 4.2-4.2 2.3 0 4.2 1.9 4.2 4.2-.1 2.3-1.9 4.2-4.2 4.2zm0 19.9c-2.3 0-4.2-1.9-4.2-4.2 0-2.3 1.9-4.2 4.2-4.2 2.3 0 4.2 1.9 4.2 4.2-.1 2.4-1.9 4.2-4.2 4.2zm17.9-8l10 7.6c3 2.1 7.2 1.4 9.3-1.6L89.6 116l-5.8 4.1z"/>
    <g fill="#D7D7DB" fill-rule="nonzero">
      <path d="M17.5 26.8l-.1-.1.1.1zM266.5 1.5v4.4c0 .8-.7 1.5-1.5 1.5s-1.5-.7-1.5-1.5V3h-2.9c-.8 0-1.5-.7-1.5-1.5s.7-1.5 1.5-1.5h4.4c.8 0 1.5.7 1.5 1.5zM266.5 14.4v8.5c0 .8-.7 1.5-1.5 1.5s-1.5-.7-1.5-1.5v-8.5c0-.8.7-1.5 1.5-1.5s1.5.7 1.5 1.5zm0 17V40c0 .8-.7 1.5-1.5 1.5s-1.5-.7-1.5-1.5v-8.5c0-.8.7-1.5 1.5-1.5s1.5.6 1.5 1.4zm0 17.1V57c0 .8-.7 1.5-1.5 1.5s-1.5-.7-1.5-1.5v-8.5c0-.8.7-1.5 1.5-1.5s1.5.7 1.5 1.5zm0 17V74c0 .8-.7 1.5-1.5 1.5s-1.5-.7-1.5-1.5v-8.5c0-.8.7-1.5 1.5-1.5s1.5.7 1.5 1.5zm0 17V91c0 .8-.7 1.5-1.5 1.5s-1.5-.7-1.5-1.5v-8.5c0-.8.7-1.5 1.5-1.5s1.5.7 1.5 1.5zm0 17.1v8.5c0 .8-.7 1.5-1.5 1.5s-1.5-.7-1.5-1.5v-8.5c0-.8.7-1.5 1.5-1.5s1.5.7 1.5 1.5zm0 17v8.5c0 .8-.7 1.5-1.5 1.5s-1.5-.7-1.5-1.5v-8.5c0-.8.7-1.5 1.5-1.5s1.5.7 1.5 1.5zm0 17.1v8.5c0 .8-.7 1.5-1.5 1.5s-1.5-.7-1.5-1.5v-8.5c0-.8.7-1.5 1.5-1.5s1.5.6 1.5 1.5zm0 17v8.5c0 .8-.7 1.5-1.5 1.5s-1.5-.7-1.5-1.5v-8.5c0-.8.7-1.5 1.5-1.5s1.5.7 1.5 1.5zm0 17v8.5c0 .8-.7 1.5-1.5 1.5s-1.5-.7-1.5-1.5v-8.5c0-.8.7-1.5 1.5-1.5s1.5.7 1.5 1.5zM266.5 184.8v4.4c0 .8-.7 1.5-1.5 1.5h-4.4c-.8 0-1.5-.7-1.5-1.5s.7-1.5 1.5-1.5h2.9v-2.9c0-.8.7-1.5 1.5-1.5s1.5.6 1.5 1.5zM253.3 189.2c0 .8-.7 1.5-1.5 1.5H243c-.8 0-1.5-.7-1.5-1.5s.7-1.5 1.5-1.5h8.8c.8 0 1.5.7 1.5 1.5zm-17.5 0c0 .8-.7 1.5-1.5 1.5h-8.8c-.8 0-1.5-.7-1.5-1.5s.7-1.5 1.5-1.5h8.8c.8 0 1.5.7 1.5 1.5zm-17.6 0c0 .8-.7 1.5-1.5 1.5H208c-.8 0-1.5-.7-1.5-1.5s.7-1.5 1.5-1.5h8.8c.8 0 1.4.7 1.4 1.5zm-17.5 0c0 .8-.7 1.5-1.5 1.5h-8.8c-.8 0-1.5-.7-1.5-1.5s.7-1.5 1.5-1.5h8.8c.9 0 1.5.7 1.5 1.5zm-17.5 0c0 .8-.7 1.5-1.5 1.5h-8.8c-.8 0-1.5-.7-1.5-1.5s.7-1.5 1.5-1.5h8.8c.8 0 1.5.7 1.5 1.5zm-17.6 0c0 .8-.7 1.5-1.5 1.5h-8.8c-.8 0-1.5-.7-1.5-1.5s.7-1.5 1.5-1.5h8.8c.9 0 1.5.7 1.5 1.5zm-17.5 0c0 .8-.7 1.5-1.5 1.5h-8.8c-.8 0-1.5-.7-1.5-1.5s.7-1.5 1.5-1.5h8.8c.9 0 1.5.7 1.5 1.5zm-17.5 0c0 .8-.7 1.5-1.5 1.5h-8.8c-.8 0-1.5-.7-1.5-1.5s.7-1.5 1.5-1.5h8.8c.8 0 1.5.7 1.5 1.5zm-17.6 0c0 .8-.7 1.5-1.5 1.5h-8.8c-.8 0-1.5-.7-1.5-1.5s.7-1.5 1.5-1.5h8.8c.9 0 1.5.7 1.5 1.5zm-17.5 0c0 .8-.7 1.5-1.5 1.5h-8.8c-.8 0-1.5-.7-1.5-1.5s.7-1.5 1.5-1.5H94c.9 0 1.5.7 1.5 1.5zm-17.5 0c0 .8-.7 1.5-1.5 1.5h-8.8c-.8 0-1.5-.7-1.5-1.5s.7-1.5 1.5-1.5h8.8c.8 0 1.5.7 1.5 1.5zm-17.6 0c0 .8-.7 1.5-1.5 1.5h-8.8c-.8 0-1.5-.7-1.5-1.5s.7-1.5 1.5-1.5H59c.8 0 1.4.7 1.4 1.5zm-17.5 0c0 .8-.7 1.5-1.5 1.5h-8.8c-.8 0-1.5-.7-1.5-1.5s.7-1.5 1.5-1.5h8.8c.9 0 1.5.7 1.5 1.5zm-17.5 0c0 .8-.7 1.5-1.5 1.5h-8.8c-.8 0-1.5-.7-1.5-1.5s.7-1.5 1.5-1.5h8.8c.8 0 1.5.7 1.5 1.5zM7.8 189.2c0 .8-.7 1.5-1.5 1.5H2c-.8 0-1.5-.7-1.5-1.5v-4.4c0-.8.7-1.5 1.5-1.5s1.5.7 1.5 1.5v2.9h2.9c.8 0 1.4.7 1.4 1.5zM3.4 14.4v8.5c0 .8-.7 1.5-1.5 1.5S.4 23.7.4 22.9v-8.5c0-.8.7-1.5 1.5-1.5s1.5.7 1.5 1.5zm0 17V40c0 .8-.7 1.5-1.5 1.5S.4 40.8.4 40v-8.5c0-.8.7-1.5 1.5-1.5s1.5.6 1.5 1.4zm0 17.1V57c0 .8-.7 1.5-1.5 1.5S.4 57.8.4 57v-8.5c0-.8.7-1.5 1.5-1.5s1.5.7 1.5 1.5zm0 17V74c0 .8-.7 1.5-1.5 1.5S.4 74.8.4 74v-8.5c0-.8.7-1.5 1.5-1.5s1.5.7 1.5 1.5zm0 17V91c0 .8-.7 1.5-1.5 1.5S.4 91.8.4 91v-8.5c0-.8.7-1.5 1.5-1.5s1.5.7 1.5 1.5zm0 17.1v8.5c0 .8-.7 1.5-1.5 1.5s-1.5-.7-1.5-1.5v-8.5c0-.8.7-1.5 1.5-1.5s1.5.7 1.5 1.5zm0 17v8.5c0 .8-.7 1.5-1.5 1.5s-1.5-.7-1.5-1.5v-8.5c0-.8.7-1.5 1.5-1.5s1.5.7 1.5 1.5zm0 17.1v8.5c0 .8-.7 1.5-1.5 1.5s-1.5-.7-1.5-1.5v-8.5c0-.8.7-1.5 1.5-1.5s1.5.6 1.5 1.5zm0 17v8.5c0 .8-.7 1.5-1.5 1.5s-1.5-.7-1.5-1.5v-8.5c0-.8.7-1.5 1.5-1.5s1.5.7 1.5 1.5zm0 17v8.5c0 .8-.7 1.5-1.5 1.5s-1.5-.7-1.5-1.5v-8.5c0-.8.7-1.5 1.5-1.5s1.5.7 1.5 1.5zM7.8 1.5c0 .8-.7 1.5-1.5 1.5H3.4v2.9c0 .8-.7 1.5-1.5 1.5S.4 6.7.4 5.9V1.5C.4.7 1.1 0 1.9 0h4.4c.9 0 1.5.7 1.5 1.5zM253.3 1.5c0 .8-.7 1.5-1.5 1.5H243c-.8 0-1.5-.7-1.5-1.5S242.2 0 243 0h8.8c.8 0 1.5.7 1.5 1.5zm-17.5 0c0 .8-.7 1.5-1.5 1.5h-8.8c-.8 0-1.5-.7-1.5-1.5s.7-1.5 1.5-1.5h8.8c.8 0 1.5.7 1.5 1.5zm-17.6 0c0 .8-.7 1.5-1.5 1.5H208c-.8 0-1.5-.7-1.5-1.5S207.2 0 208 0h8.8c.8 0 1.4.7 1.4 1.5zm-17.5 0c0 .8-.7 1.5-1.5 1.5h-8.8c-.8 0-1.5-.7-1.5-1.5s.7-1.5 1.5-1.5h8.8c.8 0 1.5.7 1.5 1.5zm-17.5 0c0 .8-.7 1.5-1.5 1.5h-8.8c-.8 0-1.5-.7-1.5-1.5s.7-1.5 1.5-1.5h8.8c.8 0 1.5.7 1.5 1.5zm-17.6 0c0 .8-.7 1.5-1.5 1.5h-8.8c-.8 0-1.5-.7-1.5-1.5s.7-1.5 1.5-1.5h8.8c.9 0 1.5.7 1.5 1.5zm-17.5 0c0 .8-.7 1.5-1.5 1.5h-8.8c-.8 0-1.5-.7-1.5-1.5S137 0 137.8 0h8.8c.9 0 1.5.7 1.5 1.5zm-17.5 0c0 .8-.7 1.5-1.5 1.5h-8.8c-.8 0-1.5-.7-1.5-1.5s.7-1.5 1.5-1.5h8.8c.8 0 1.5.7 1.5 1.5zm-17.6 0c0 .8-.7 1.5-1.5 1.5h-8.8c-.8 0-1.5-.7-1.5-1.5s.7-1.5 1.5-1.5h8.8c.9 0 1.5.7 1.5 1.5zm-17.5 0c0 .8-.7 1.5-1.5 1.5h-8.8c-.8 0-1.5-.7-1.5-1.5S84.4 0 85.2 0H94c.9 0 1.5.7 1.5 1.5zM78 1.5c0 .8-.7 1.5-1.5 1.5h-8.8c-.8 0-1.5-.7-1.5-1.5S66.9 0 67.7 0h8.8c.8 0 1.5.7 1.5 1.5zm-17.6 0c0 .8-.7 1.5-1.5 1.5h-8.8c-.8 0-1.5-.7-1.5-1.5S49.3 0 50.1 0H59c.8 0 1.4.7 1.4 1.5zm-17.5 0c0 .8-.7 1.5-1.5 1.5h-8.8c-.8 0-1.5-.7-1.5-1.5S31.8 0 32.6 0h8.8c.9 0 1.5.7 1.5 1.5zm-17.5 0c0 .8-.7 1.5-1.5 1.5h-8.8c-.8 0-1.5-.7-1.5-1.5S14.3 0 15.1 0h8.8c.8 0 1.5.7 1.5 1.5z"/>
    </g>
    <path d="M-18-32h352v303H-18z"/>
  </g>
</svg>
