<svg xmlns="http://www.w3.org/2000/svg" xmlns:xlink="http://www.w3.org/1999/xlink" viewBox="0 0 352 303"><defs><style>.cls-1{fill:none;}.cls-2{fill:#eaeaee;}.cls-3{fill:#fff;}.cls-4{fill:url(#New_Gradient_Swatch_1);}.cls-5{fill:#f9f9fa;}.cls-6{fill:#ccedf0;}.cls-7{fill:url(#New_Gradient_Swatch_1-2);}.cls-8{fill:#e9e9ee;}.cls-9{opacity:0.4;fill:url(#New_Gradient_Swatch_1-3);}.cls-10{fill:url(#New_Gradient_Swatch_1-4);}.cls-11{fill:url(#New_Gradient_Swatch_1-5);}</style><linearGradient id="New_Gradient_Swatch_1" x1="-55.56" y1="-49.66" x2="353.43" y2="359.34" gradientUnits="userSpaceOnUse"><stop offset="0" stop-color="#00c8d7"/><stop offset="1" stop-color="#0a84ff"/></linearGradient><linearGradient id="New_Gradient_Swatch_1-2" x1="13.21" y1="-119.62" x2="425.76" y2="293.58" xlink:href="#New_Gradient_Swatch_1"/><linearGradient id="New_Gradient_Swatch_1-3" x1="6.57" y1="-109.85" x2="415.58" y2="299.16" xlink:href="#New_Gradient_Swatch_1"/><linearGradient id="New_Gradient_Swatch_1-4" x1="5.37" y1="-110.59" x2="415.01" y2="299.04" xlink:href="#New_Gradient_Swatch_1"/><linearGradient id="New_Gradient_Swatch_1-5" x1="-103.8" y1="-209.73" x2="477.45" y2="371.52" xlink:href="#New_Gradient_Swatch_1"/></defs><title>Artboard 1</title><g id="Layer_1" data-name="Layer 1"><rect class="cls-1" width="352" height="303"/></g><g id="Layer_2" data-name="Layer 2"><path class="cls-2" d="M304.72,248.08H161.36a1.3,1.3,0,0,1,0-2.59H304.72a1.3,1.3,0,0,1,0,2.59Z"/><path class="cls-2" d="M285.35,241.6h-36a.65.65,0,1,1,0-1.3h36a.65.65,0,1,1,0,1.3Z"/><path class="cls-2" d="M252.75,253.74H237.2a.65.65,0,0,1,0-1.3h15.54a.65.65,0,0,1,0,1.3Zm-25.91,0H223a.65.65,0,0,1,0-1.3h3.89a.65.65,0,0,1,0,1.3Zm-9.07,0h-1.3a.65.65,0,1,1,0-1.3h1.3a.65.65,0,0,1,0,1.3Zm-13,0H189.28a.65.65,0,0,1,0-1.3h15.54a.65.65,0,0,1,0,1.3Zm-25.91,0H175a.65.65,0,0,1,0-1.3h3.89a.65.65,0,0,1,0,1.3Zm-9.07,0h-1.3a.65.65,0,0,1,0-1.3h1.3a.65.65,0,0,1,0,1.3Zm-13,0H141.35a.65.65,0,0,1,0-1.3H156.9a.65.65,0,0,1,0,1.3Zm-25.91,0H127.1a.65.65,0,1,1,0-1.3H131a.65.65,0,1,1,0,1.3Zm-9.07,0h-1.3a.65.65,0,0,1,0-1.3h1.3a.65.65,0,1,1,0,1.3Zm-13,0H93.43a.65.65,0,0,1,0-1.3H109a.65.65,0,0,1,0,1.3Zm-25.91,0H79.18a.65.65,0,0,1,0-1.3h3.89a.65.65,0,0,1,0,1.3Zm-9.07,0H72.7a.65.65,0,0,1,0-1.3H74a.65.65,0,0,1,0,1.3Zm-13,0H45.5a.65.65,0,0,1,0-1.3H61a.65.65,0,0,1,0,1.3Z"/><rect class="cls-3" x="1.55" y="134.35" width="297.33" height="43.55" rx="5.96" ry="5.96"/><path class="cls-4" d="M292.92,135.64a4.68,4.68,0,0,1,4.66,4.66v31.63a4.68,4.68,0,0,1-4.66,4.66H7.51a4.68,4.68,0,0,1-4.66-4.66V140.31a4.68,4.68,0,0,1,4.66-4.66H292.92m0-2.59H7.51a7.26,7.26,0,0,0-7.25,7.25v31.63a7.26,7.26,0,0,0,7.25,7.25H292.92a7.26,7.26,0,0,0,7.25-7.25V140.31a7.26,7.26,0,0,0-7.25-7.25Z"/><path class="cls-3" d="M182.43,32.4h28s-8.76-19.57,9.83-22.1C236.84,8,243.4,25.07,243.4,25.07s2-9.83,11.83-8,16.9,17.49,16.9,17.49H296.5"/><path class="cls-2" d="M297,30h-7.21a.65.65,0,0,1,0-1.3H297a.65.65,0,0,1,0,1.3Zm-18.86,0h-1.3a.65.65,0,0,1,0-1.3h1.3a.65.65,0,1,1,0,1.3Zm-67.21-.78h-2.08a.65.65,0,0,1,0-1.3h1.13c-.09-.24-.19-.52-.3-.83a.65.65,0,1,1,1.23-.41c.34,1,.61,1.62.62,1.63a.65.65,0,0,1-.59.91Zm-12.45,0H182.91a.65.65,0,0,1,0-1.3h15.54a.65.65,0,0,1,0,1.3Zm73.69-.07a.65.65,0,0,1-.57-.33c-.41-.74-1.1-1.91-2-3.27a.65.65,0,1,1,1.08-.72c.94,1.4,1.64,2.6,2.07,3.36a.65.65,0,0,1-.56,1Zm-63.09-6.65a.65.65,0,0,1-.64-.56c-.06-.43-.11-.88-.15-1.33a.65.65,0,0,1,1.29-.1c0,.43.08.84.14,1.25a.65.65,0,0,1-.55.73Zm33.74-2.86a.65.65,0,0,1-.57-.34c-.18-.34-.39-.71-.63-1.1a.65.65,0,0,1,1.11-.67c.24.41.46.8.66,1.15a.65.65,0,0,1-.57,1ZM263.36,18a.64.64,0,0,1-.42-.16,16.21,16.21,0,0,0-7.35-3.89,9.44,9.44,0,0,0-6.2.67.65.65,0,0,1-.59-1.15,10.73,10.73,0,0,1,7-.79,17.46,17.46,0,0,1,8,4.18.65.65,0,0,1-.42,1.14Zm-24.24-3.67a.65.65,0,0,1-.49-.22,24.16,24.16,0,0,0-2.7-2.65.65.65,0,0,1,.83-1,25.6,25.6,0,0,1,2.84,2.8.65.65,0,0,1-.49,1.07Zm-26.71-3.78A.65.65,0,0,1,212,9.4a15.88,15.88,0,0,1,8.68-3.58,21.3,21.3,0,0,1,6.56.09A.65.65,0,1,1,227,7.18a20.11,20.11,0,0,0-6.16-.08,14.63,14.63,0,0,0-8,3.26A.65.65,0,0,1,212.41,10.53Z"/><path class="cls-3" d="M297.78,35H182.43a1.3,1.3,0,0,1,0-2.59H297.78a1.3,1.3,0,0,1,0,2.59Z"/><path class="cls-3" d="M4.87,59.14H20.43S15.56,48.26,25.9,46.85c9.22-1.26,12.87,8.22,12.87,8.22s1.09-5.47,6.58-4.42,9.4,9.73,9.4,9.73H68.3"/><path class="cls-2" d="M20.89,57.4H5.35a.65.65,0,0,1,0-1.3H20.89a.65.65,0,0,1,0,1.3Zm47.89-.2h-.6a.65.65,0,0,1,0-1.3h.6a.65.65,0,0,1,0,1.3ZM63,57.2H59.12a.65.65,0,1,1,0-1.3H63a.65.65,0,1,1,0,1.3ZM39.25,53.33a.67.67,0,0,1-.61-.42l-.1-.23a.65.65,0,0,1,.25-.81,6,6,0,0,1,5.69-4.39,7.8,7.8,0,0,1,1.46.14A11.65,11.65,0,0,1,51.73,51a.65.65,0,0,1-.9.93,10.41,10.41,0,0,0-5.12-3,6.51,6.51,0,0,0-1.22-.12c-3.73,0-4.57,3.87-4.6,4A.65.65,0,0,1,39.25,53.33Zm-18-5.78a.65.65,0,0,1-.49-1.07,7.46,7.46,0,0,1,3.55-2.22.65.65,0,0,1,.39,1.24,6.18,6.18,0,0,0-2.95,1.83A.65.65,0,0,1,21.23,47.55Zm9.64-2.18-.17,0a9.93,9.93,0,0,0-1.19-.25.65.65,0,0,1-.55-.73.66.66,0,0,1,.73-.55,11.37,11.37,0,0,1,1.34.28.65.65,0,0,1-.17,1.27Z"/><path class="cls-3" d="M69.3,61.74H5.15a1.3,1.3,0,0,1,0-2.59H69.3a1.3,1.3,0,0,1,0,2.59Z"/><path class="cls-5" d="M244,112.59V100.4a3.61,3.61,0,0,0-3.6-3.6H44.11a3.61,3.61,0,0,0-3.6,3.6v12.19a3.61,3.61,0,0,0,3.6,3.6H240.39A3.61,3.61,0,0,0,244,112.59Zm0-40.4V60a3.61,3.61,0,0,0-3.6-3.6H44.11a3.61,3.61,0,0,0-3.6,3.6V72.19a3.61,3.61,0,0,0,3.6,3.6H240.39A3.61,3.61,0,0,0,244,72.19Zm0,140.87V200.87a3.61,3.61,0,0,0-3.6-3.6H44.11a3.61,3.61,0,0,0-3.6,3.6v12.19a3.61,3.61,0,0,0,3.6,3.6H240.39A3.61,3.61,0,0,0,244,213.06Z"/><path class="cls-2" d="M239.33,56.4A4.68,4.68,0,0,1,244,61.06V71.12a4.68,4.68,0,0,1-4.66,4.66H45.17a4.68,4.68,0,0,1-4.66-4.66V61.06a4.68,4.68,0,0,1,4.66-4.66H239.33m0,40.4a4.68,4.68,0,0,1,4.66,4.66v10.06a4.68,4.68,0,0,1-4.66,4.66H45.17a4.68,4.68,0,0,1-4.66-4.66V101.46a4.68,4.68,0,0,1,4.66-4.66H239.33m0,100.47a4.68,4.68,0,0,1,4.66,4.66V212a4.68,4.68,0,0,1-4.66,4.66H45.17A4.68,4.68,0,0,1,40.51,212V201.93a4.68,4.68,0,0,1,4.66-4.66H239.33m0-143.46H45.17a7.26,7.26,0,0,0-7.25,7.25V71.12a7.26,7.26,0,0,0,7.25,7.25H239.33a7.26,7.26,0,0,0,7.25-7.25V61.06a7.26,7.26,0,0,0-7.25-7.25Zm0,40.4H45.17a7.26,7.26,0,0,0-7.25,7.25v10.06a7.26,7.26,0,0,0,7.25,7.25H239.33a7.26,7.26,0,0,0,7.25-7.25V101.46a7.26,7.26,0,0,0-7.25-7.25Zm0,100.47H45.17a7.26,7.26,0,0,0-7.25,7.25V212a7.26,7.26,0,0,0,7.25,7.25H239.33a7.26,7.26,0,0,0,7.25-7.25V201.93a7.26,7.26,0,0,0-7.25-7.25Z"/><path class="cls-3" d="M349.44,210.11l-.12-.11-5.4-5a6.51,6.51,0,0,0-2-3.58l-20.18-18.53a6.46,6.46,0,0,0-3.74-1.67l-9.66-8.87a10.26,10.26,0,0,0-4.12-2.48,53.57,53.57,0,1,0-45.94,26,54.17,54.17,0,0,0,27.57-7.64,10.4,10.4,0,0,0,2.52,4.17l8.85,9.63a6.46,6.46,0,0,0,1.66,3.73L317.42,226a6.51,6.51,0,0,0,3.58,2l4.92,5.36.11.12a9.14,9.14,0,0,0,6.63,2.62c4.19,0,9.06-2.36,13-6.33C352.35,223.07,354,214.63,349.44,210.11Z"/><path class="cls-5" d="M260.33,108.05a38.33,38.33,0,0,0-30.54,15.13h61A38.31,38.31,0,0,0,260.33,108.05Z"/><path class="cls-6" d="M289.19,182.42a13.84,13.84,0,0,1,3.64-5.55,14,14,0,0,1,5.56-3.63l-3-3a47.07,47.07,0,1,0-9.2,9.2Zm-31.32-2.12a38.36,38.36,0,0,1-32.46-17.89c.07.15.13.3.19.44a38.44,38.44,0,0,1-3.1-6l0-.11c-.21-.52-.43-1-.62-1.57s-.48-1.35-.69-2l0-.17a38.39,38.39,0,0,1,3.24-29.82h.22a38.39,38.39,0,0,1,66.76,0h.07a38.4,38.4,0,0,1-33.53,57.11Z"/><path class="cls-3" d="M294.14,129.3H226a38.36,38.36,0,0,0-.57,33.1,38.4,38.4,0,0,0,68.73-33.1Z"/><path class="cls-3" d="M221.75,129.3h-.16a38.43,38.43,0,0,0-.49,23.7,38.43,38.43,0,0,1,.65-23.7Z"/><path class="cls-3" d="M222.51,156.89l0-.11Z"/><path class="cls-3" d="M221.84,155.21c-.24-.67-.48-1.35-.69-2Q221.47,154.2,221.84,155.21Z"/><path class="cls-7" d="M290.84,123.18h-61A38.4,38.4,0,0,0,226,129.3h68.16a38.18,38.18,0,0,0-2.75-6.12h-.07c.48.84.93,1.7,1.35,2.57C292.1,124.87,291.48,124,290.84,123.18Z"/><path class="cls-8" d="M224.56,123.18h-.22a38.18,38.18,0,0,0-2.75,6.12h.16A38.19,38.19,0,0,1,224.56,123.18Z"/><path class="cls-9" d="M226,129.3a38.37,38.37,0,0,1,64.86-6.12c.64.84,1.25,1.69,1.82,2.57-.42-.88-.87-1.73-1.35-2.57A38.4,38.4,0,0,0,221.1,153l0,.17c.21.69.45,1.37.69,2s.4,1,.62,1.57l0,.11a38.44,38.44,0,0,0,3.1,6c-.07-.15-.13-.3-.19-.44a38.36,38.36,0,0,1,.57-33.1Z"/><path class="cls-10" d="M346.26,212.43l-6.62-6.08a2.53,2.53,0,0,0-.77-2.47l-20.18-18.53a2.52,2.52,0,0,0-2.52-.55l-10.94-10a6.36,6.36,0,0,0-3.44-1.79l-3-3A49.86,49.86,0,0,0,293,106.77a49.68,49.68,0,1,0-35.13,84.8A50,50,0,0,0,286,182.86l3,3a6.5,6.5,0,0,0,1.82,3.48l10,10.9a2.58,2.58,0,0,0,.55,2.52l18.53,20.18a2.59,2.59,0,0,0,1.85.84h.06a2.58,2.58,0,0,0,.56-.07l6,6.58a5.3,5.3,0,0,0,3.88,1.48c3.14,0,7.07-2,10.27-5.19C347.52,221.54,349.17,215.33,346.26,212.43ZM224.57,175.19a47.09,47.09,0,1,1,70.87-4.92l3,3a14,14,0,0,0-5.56,3.63,13.84,13.84,0,0,0-3.64,5.55l-2.95-2.95a47.1,47.1,0,0,1-61.67-4.28Zm112.55,30.6-15.36,15.36L303.23,201l13.71-13.71Z"/><polygon class="cls-6" points="321.76 221.15 337.12 205.79 316.94 187.26 303.23 200.97 321.76 221.15"/><ellipse class="cls-2" cx="281.24" cy="291.55" rx="66.42" ry="6.77"/><path class="cls-11" d="M258.33,175.67a3.25,3.25,0,0,1-2-.73l-14.44-11.69a12.87,12.87,0,0,1-3.76-3.77A13.2,13.2,0,0,1,239.81,143a13.13,13.13,0,0,1,18.44-.09,13,13,0,0,1,9.14-3.7,13.15,13.15,0,0,1,7.27,24.1l-14.28,11.66A3.29,3.29,0,0,1,258.33,175.67Z"/><path class="cls-3" d="M249.08,141a11.27,11.27,0,0,1,8,3.33l0,0a1.6,1.6,0,0,0,1.14.48,1.62,1.62,0,0,0,1.15-.48l0,0a11.31,11.31,0,1,1,14.24,17.45l-14.42,11.77a1.43,1.43,0,0,1-.89.31,1.41,1.41,0,0,1-.89-.31l-14.52-11.75a11,11,0,0,1-3.3-3.28,11.43,11.43,0,0,1,1.48-14.21,11.26,11.26,0,0,1,8-3.29m0-3.67h0a14.87,14.87,0,0,0-10.56,4.36,15,15,0,0,0-2,18.81,14.66,14.66,0,0,0,4.21,4.25l14.38,11.64a5.09,5.09,0,0,0,6.38,0l14.32-11.69a15,15,0,1,0-17.59-24.25,14.85,14.85,0,0,0-9.17-3.14Z"/><path class="cls-5" d="M242.34,153.88h-.15a1.9,1.9,0,0,1-1.73-2,8.4,8.4,0,0,1,6.57-7.54,1.89,1.89,0,0,1,.82,3.69,4.64,4.64,0,0,0-3.63,4.16A1.89,1.89,0,0,1,242.34,153.88Z"/></g></svg>