<svg xmlns="http://www.w3.org/2000/svg" xmlns:xlink="http://www.w3.org/1999/xlink" viewBox="0 0 352 303"><defs><style>.cls-1{fill:none;}.cls-2{fill:#eaeaee;}.cls-3{fill:#f9f9fa;}.cls-4{fill:#e1e1e6;}.cls-5{fill:#fff;}.cls-6{fill:#d9ebff;}.cls-7{opacity:0.2;fill:url(#linear-gradient);}.cls-8{fill:#59acff;}.cls-9{fill:url(#linear-gradient-2);}</style><linearGradient id="linear-gradient" x1="203.33" y1="129.06" x2="318.43" y2="265.62" gradientUnits="userSpaceOnUse"><stop offset="0" stop-color="#e60024"/><stop offset="0.52" stop-color="#ed00b5"/><stop offset="1" stop-color="#8000d7"/></linearGradient><linearGradient id="linear-gradient-2" x1="173.4" y1="91.44" x2="346.22" y2="296.46" xlink:href="#linear-gradient"/></defs><title>Artboard 1</title><g id="Layer_1" data-name="Layer 1"><rect class="cls-1" width="352" height="303"/></g><g id="Layer_2" data-name="Layer 2"><g id="RAC"><ellipse class="cls-2" cx="276.53" cy="287.49" rx="66.13" ry="8.19"/><path class="cls-2" d="M238.44,104.2H145.16a1.36,1.36,0,0,1,0-2.72h93.28a1.36,1.36,0,0,1,0,2.72Z"/><path class="cls-2" d="M181.16,97.29h-23.4a.68.68,0,0,1,0-1.36h23.4a.68.68,0,1,1,0,1.36Z"/><path class="cls-2" d="M317.77,110.27h-1.36a.68.68,0,0,1,0-1.36h1.36a.68.68,0,0,1,0,1.36Zm-6.8,0h-4.08a.68.68,0,0,1,0-1.36H311a.68.68,0,1,1,0,1.36Zm-15,0H279.67a.68.68,0,0,1,0-1.36H296a.68.68,0,0,1,0,1.36Zm-28.58,0h-1.36a.68.68,0,0,1,0-1.36h1.36a.68.68,0,1,1,0,1.36Zm-6.8,0h-4.08a.68.68,0,0,1,0-1.36h4.08a.68.68,0,1,1,0,1.36Zm-15,0H229.32a.68.68,0,0,1,0-1.36h16.33a.68.68,0,0,1,0,1.36Zm-28.58,0h-1.36a.68.68,0,0,1,0-1.36h1.36a.68.68,0,1,1,0,1.36Zm-6.8,0h-4.08a.68.68,0,0,1,0-1.36h4.08a.68.68,0,1,1,0,1.36Zm-15,0H179a.68.68,0,0,1,0-1.36H195.3a.68.68,0,0,1,0,1.36Z"/><g id="Layer_2-2" data-name="Layer 2"><path class="cls-2" d="M246.79,44.49a.17.17,0,0,1-.14.19l-4.52.71-2.77.44a.17.17,0,0,1-.19-.14l-.82-5.18a.17.17,0,0,1,.14-.19l7.29-1.15a.17.17,0,0,1,.19.14Z"/></g><g id="Layer_3" data-name="Layer 3"><path class="cls-2" d="M251,71.49l-36.32,5.72a1.78,1.78,0,0,1-2-1.48l-4-25.65a1.78,1.78,0,0,1,1.48-2l36.32-5.72a1.78,1.78,0,0,1,2,1.48l4,25.65A1.78,1.78,0,0,1,251,71.49Z"/></g><g id="Layer_5" data-name="Layer 5"><path class="cls-3" d="M247.48,50.41s0,.08-.12.1l-5.78.91c-.07,0-.14,0-.14-.05L241.07,49s0-.08.12-.1L247,48c.07,0,.14,0,.14.05Z"/></g><g id="Layer_6" data-name="Layer 6"><circle class="cls-3" cx="215.18" cy="64.33" r="2.11" transform="translate(-7.39 34.25) rotate(-8.95)"/></g><g id="Layer_7" data-name="Layer 7"><circle class="cls-3" cx="230.51" cy="59.28" r="11.36" transform="translate(-6.41 36.57) rotate(-8.95)"/></g><g id="Layer_8" data-name="Layer 8"><path class="cls-2" d="M229.4,52.23a7.14,7.14,0,1,0,8.16,5.94A7.14,7.14,0,0,0,229.4,52.23Z"/></g><circle class="cls-3" cx="232.13" cy="57.05" r="1.3" transform="translate(-6.05 36.79) rotate(-8.95)"/><g id="Layer_2-3" data-name="Layer 2"><path class="cls-2" d="M93,13.06a.16.16,0,0,1-.15.17l-4.37.38-2.68.23a.16.16,0,0,1-.17-.15l-.44-5a.16.16,0,0,1,.15-.17l7-.61a.16.16,0,0,1,.17.15Z"/></g><g id="Layer_3-2" data-name="Layer 3"><path class="cls-2" d="M95.27,39.16,60.16,42.22a1.7,1.7,0,0,1-1.85-1.55L56.16,15.88A1.7,1.7,0,0,1,57.71,14L92.82,11a1.7,1.7,0,0,1,1.85,1.55l2.16,24.79A1.7,1.7,0,0,1,95.27,39.16Z"/></g><g id="Layer_5-2" data-name="Layer 5"><path class="cls-3" d="M93.26,18.77s-.05.08-.12.08l-5.59.49c-.07,0-.13,0-.13-.06L87.22,17s.05-.08.12-.08l5.59-.49c.07,0,.13,0,.13.06Z"/></g><g id="Layer_6-2" data-name="Layer 6"><circle class="cls-4" cx="61.45" cy="29.94" r="2.03" transform="matrix(1, -0.09, 0.09, 1, -2.36, 5.44)"/></g><g id="Layer_7-2" data-name="Layer 7"><circle class="cls-3" cx="76.45" cy="26.12" r="10.89" transform="translate(-1.98 6.72) rotate(-4.97)"/></g><g id="Layer_8-2" data-name="Layer 8"><path class="cls-2" d="M75.85,19.3a6.84,6.84,0,1,0,7.41,6.22A6.84,6.84,0,0,0,75.85,19.3Z"/></g><circle class="cls-3" cx="78.14" cy="24.1" r="1.24" transform="translate(-1.79 6.86) rotate(-4.97)"/><path class="cls-5" d="M208.09,74.6H238S228.66,53.66,248.55,51c17.74-2.42,24.75,15.81,24.75,15.81s2.1-10.52,12.65-8.5S304,77,304,77h26.07"/><path class="cls-2" d="M330.62,72H320.15a.68.68,0,0,1,0-1.36h10.47a.68.68,0,0,1,0,1.36Zm-22.72,0h-1.36a.68.68,0,0,1,0-1.36h1.36a.68.68,0,0,1,0,1.36Zm-69.36-.84h-2.73a.68.68,0,0,1,0-1.36h1.72l-.13-.35a.68.68,0,0,1,1.28-.46c.27.76.47,1.21.48,1.22a.68.68,0,0,1-.62,1Zm-13.61,0H208.6a.68.68,0,0,1,0-1.36h16.33a.68.68,0,0,1,0,1.36ZM302.82,69a.68.68,0,0,1-.58-.32c-.72-1.16-1.49-2.28-2.27-3.34a.68.68,0,1,1,1.09-.81c.8,1.09,1.58,2.24,2.32,3.43a.68.68,0,0,1-.22.94A.67.67,0,0,1,302.82,69Zm-66.16-4.37a.68.68,0,0,1-.67-.57c-.07-.45-.14-.91-.19-1.38a.68.68,0,0,1,.6-.75.7.7,0,0,1,.75.6c.05.45.11.89.18,1.31a.68.68,0,0,1-.56.78Zm35.19-5.13a.68.68,0,0,1-.58-.33c-.22-.36-.46-.74-.72-1.12a.68.68,0,0,1,1.13-.75c.27.41.52.8.75,1.17a.68.68,0,0,1-.58,1ZM293,57.84a.68.68,0,0,1-.4-.13,15.83,15.83,0,0,0-6.24-2.87,13.14,13.14,0,0,0-2.45-.24h0a8.7,8.7,0,0,0-5.61,1.89.68.68,0,1,1-.85-1.06,10,10,0,0,1,6.46-2.19h0a14.57,14.57,0,0,1,2.7.27,17.17,17.17,0,0,1,6.78,3.11.68.68,0,0,1-.4,1.23Zm-25.27-3.7a.68.68,0,0,1-.49-.21,24.25,24.25,0,0,0-3-2.62.68.68,0,1,1,.81-1.09A25.75,25.75,0,0,1,268.2,53a.68.68,0,0,1-.49,1.15Zm-28.22-2.3a.68.68,0,0,1-.5-1.14c2.24-2.4,5.6-3.92,10-4.51a23.18,23.18,0,0,1,5.77-.09.68.68,0,1,1-.15,1.35,21.85,21.85,0,0,0-5.43.08c-4.06.55-7.14,1.93-9.16,4.09A.68.68,0,0,1,239.5,51.84Z"/><path class="cls-5" d="M331.49,77.33H208.09a1.36,1.36,0,1,1,0-2.72h123.4a1.36,1.36,0,1,1,0,2.72Z"/><path class="cls-5" d="M32.11,40.2H48.76S43.55,28.56,54.61,27c9.86-1.34,13.76,8.79,13.76,8.79s1.17-5.85,7-4.73S85.46,41.52,85.46,41.52H100"/><path class="cls-2" d="M48.95,38.32H32.62a.68.68,0,0,1,0-1.36H48.95a.68.68,0,0,1,0,1.36ZM99.6,38.1H98.24a.68.68,0,0,1,0-1.36H99.6a.68.68,0,0,1,0,1.36Zm-6.8,0H88.72a.68.68,0,0,1,0-1.36H92.8a.68.68,0,0,1,0,1.36ZM68.89,34a.69.69,0,0,1-.64-.43s-.18-.44-.49-1a.68.68,0,0,1,1-.88,6.24,6.24,0,0,1,5.75-3.87,8.35,8.35,0,0,1,1.56.15,11.59,11.59,0,0,1,5.24,2.72.68.68,0,0,1-.88,1,10.26,10.26,0,0,0-4.61-2.42,7,7,0,0,0-1.3-.13c-4,0-4.9,4.15-4.94,4.32A.68.68,0,0,1,69,34ZM49.3,28.17a.68.68,0,0,1-.55-1.08,7.48,7.48,0,0,1,3.55-2.61.68.68,0,0,1,.48,1.27,6.17,6.17,0,0,0-2.93,2.13A.68.68,0,0,1,49.3,28.17Zm9.94-2.89H59.1a10.83,10.83,0,0,0-1.26-.18A.68.68,0,1,1,58,23.73a12,12,0,0,1,1.42.21.68.68,0,0,1-.14,1.35Z"/><path class="cls-5" d="M101,43H32.41a1.36,1.36,0,0,1,0-2.72H101A1.36,1.36,0,0,1,101,43Z"/><path class="cls-3" d="M7.75,217.27a6,6,0,0,1-6.14-5.84v-144a6.52,6.52,0,0,1,6.52-6.52H162.66a6.52,6.52,0,0,1,6.52,6.52v144a6,6,0,0,1-6.14,5.84Z"/><path class="cls-2" d="M162.66,62.31a5.16,5.16,0,0,1,5.16,5.16v144a4.64,4.64,0,0,1-4.78,4.48H7.75A4.64,4.64,0,0,1,3,211.43v-144a5.16,5.16,0,0,1,5.16-5.16H162.66m0-2.72H8.12A7.89,7.89,0,0,0,.25,67.46v144a7.36,7.36,0,0,0,7.5,7.2H163a7.36,7.36,0,0,0,7.5-7.2v-144a7.89,7.89,0,0,0-7.88-7.88Z"/><g id="Layer_8-3" data-name="Layer 8"><path class="cls-2" d="M162.22,88V208.78a3.47,3.47,0,0,1-.15,1.47c-.05,0-.32.17-1.48.17H10.2a3.46,3.46,0,0,1-1.47-.15c0-.05-.17-.32-.17-1.48V88H162.22m1.36-1.36H7.21V208.78c0,2.51.49,3,3,3H160.58c2.5,0,3-.49,3-3V86.6Z"/></g><g id="Layer_3-3" data-name="Layer 3"><circle class="cls-2" cx="16.46" cy="74.38" r="3.48"/></g><g id="Layer_5-3" data-name="Layer 5"><circle class="cls-2" cx="27.69" cy="74.38" r="3.48"/></g><g id="Layer_6-3" data-name="Layer 6"><path class="cls-2" d="M124.22,78.32H46.56a3.77,3.77,0,0,1-3.77-3.77v-.34a3.77,3.77,0,0,1,3.77-3.77h77.66A3.77,3.77,0,0,1,128,74.22v.34A3.77,3.77,0,0,1,124.22,78.32Z"/></g><g id="Layer_3-4" data-name="Layer 3"><circle class="cls-2" cx="143.09" cy="74.38" r="3.48"/></g><g id="Layer_5-4" data-name="Layer 5"><circle class="cls-2" cx="154.32" cy="74.38" r="3.48"/></g><path class="cls-2" d="M107.39,162.82c-8.74,0-14.78-10.48-23.16-10.48S69.3,162.82,61.08,162.82c-10.78,0-18.74-10.18-18.87-27.62-.08-10.83,3.16-14.29,17.15-14.29s18.09,5.71,24.87,5.71,10.88-5.71,24.87-5.71,17.23,3.46,17.15,14.29C126.13,152.64,118.17,162.82,107.39,162.82ZM66.23,134.25c-8.5.37-12,5.42-12,6.67s5.64,4.76,11.15,4.76,12-2,12-3.81C77.38,139.86,74.25,133.9,66.23,134.25Zm36,0c-8-.35-11.15,5.62-11.15,7.62,0,1.8,6.5,3.81,12,3.81s11.15-3.52,11.15-4.76S110.75,134.62,102.25,134.25Z"/></g><path class="cls-5" d="M262.82,273.54c.24.56.49,1.11.76,1.66.52,1,1,1.92,1.44,2.72-.44-.79-.91-1.67-1.42-2.7C263.31,274.67,263.06,274.11,262.82,273.54Z"/><ellipse class="cls-2" cx="125.64" cy="286.11" rx="26.69" ry="5.3"/><circle class="cls-2" cx="125.14" cy="237" r="8.45"/><path class="cls-2" d="M131.8,289.85a1.36,1.36,0,0,1-1.35-1.2l-5.66-48c-5.84,18.77-13.17,42.62-13.41,44.33a1.31,1.31,0,0,1-1.36,1.31,1.41,1.41,0,0,1-1.36-1.42c0-1.58,10.79-36.28,15.43-51.13a1.36,1.36,0,0,1,2.65.25l6.4,54.31a1.36,1.36,0,0,1-1.19,1.51Z"/><path class="cls-2" d="M137.69,283.45a1.36,1.36,0,0,1-1.32-1l-12.3-47.9a1.36,1.36,0,1,1,2.64-.68l12.3,47.9a1.36,1.36,0,0,1-1.32,1.7Z"/><g id="Layer_2-4" data-name="Layer 2"><path class="cls-2" d="M142.46,198.37a.21.21,0,0,1-.16.25l-5.62,1.11-3.45.68a.21.21,0,0,1-.25-.16l-1.28-6.44a.21.21,0,0,1,.16-.25l9.06-1.8a.21.21,0,0,1,.25.16Z"/></g><g id="Layer_3-5" data-name="Layer 3"><path class="cls-2" d="M149.12,231.94l-45.16,9a2.23,2.23,0,0,1-2.62-1.75L95,207.26a2.23,2.23,0,0,1,1.75-2.62l45.16-9a2.23,2.23,0,0,1,2.62,1.75l6.32,31.89A2.23,2.23,0,0,1,149.12,231.94Z"/></g><g id="Layer_4" data-name="Layer 4"><path class="cls-3" d="M143.14,203.32c0,.07,0,.14-.14.16l-7.19,1.42a.15.15,0,0,1-.19-.09l-.77-3.89c0-.07,0-.14.14-.16l7.19-1.42a.15.15,0,0,1,.19.09Z"/></g><g id="Layer_6-4" data-name="Layer 6"><circle class="cls-3" cx="103.9" cy="224.76" r="2.65" transform="translate(-41.71 24.49) rotate(-11.21)"/></g><g id="Layer_7-3" data-name="Layer 7"><circle class="cls-3" cx="122.83" cy="217.68" r="14.23" transform="translate(-39.98 28.03) rotate(-11.21)"/></g><g id="Layer_8-4" data-name="Layer 8"><path class="cls-2" d="M121.09,208.91a8.94,8.94,0,1,0,10.5,7A8.94,8.94,0,0,0,121.09,208.91Z"/></g><g id="Layer_9" data-name="Layer 9"><path class="cls-3" d="M121.52,211.09a6.6,6.6,0,1,0,7.75,5.19A6.6,6.6,0,0,0,121.52,211.09Zm3.54,5.32a1.62,1.62,0,1,1,1.28-1.91A1.63,1.63,0,0,1,125.06,216.41Z"/></g><path class="cls-5" d="M342.56,151.16a2.1,2.1,0,0,1,2.77-1.07,1.62,1.62,0,0,1,.61.44,1.6,1.6,0,0,0-.62-.46,2,2,0,0,0-.85-.19,2.12,2.12,0,0,0-1.93,1.26l-.07.16s0,0,0,0Z"/><path class="cls-5" d="M323.79,159.44h0a1.88,1.88,0,0,0,.08.22h-.13l.14,0A2.23,2.23,0,0,1,323.79,159.44Z"/><path class="cls-5" d="M338.42,149a2.1,2.1,0,0,1,2.25-1.95,1.24,1.24,0,0,1,.92.43,1.23,1.23,0,0,0-.93-.45h-.15a2.1,2.1,0,0,0-2.1,2c0,.06,0,.62-.09,1.43v0C338.38,149.62,338.42,149.06,338.42,149Z"/><path class="cls-5" d="M218.59,187.57a3.83,3.83,0,0,1-1.26-.68A3.81,3.81,0,0,0,218.59,187.57Z"/><path class="cls-5" d="M224.32,107.87c3.36-2,13.49.79,20.83,4.72a39.87,39.87,0,0,1,6.27,4.12,73.77,73.77,0,0,1,13.3-3.55,64.49,64.49,0,0,1,13.85-1,39.5,39.5,0,0,1,4.62-6.24c5.57-6.2,14.12-12.33,18-11.56,4.53.91,13,15.39,12.4,30.6l.15.12c.67-15.34-7.94-30-12.53-30.91a3.93,3.93,0,0,0-.77-.07c-4.29,0-12.12,5.84-17.36,11.68a39.64,39.64,0,0,0-4.64,6.27q-1,0-2.13,0a66.8,66.8,0,0,0-11.59,1.07,74,74,0,0,0-13.17,3.5,40,40,0,0,0-6.3-4.14c-5.64-3-12.91-5.44-17.58-5.44a6.7,6.7,0,0,0-3.43.73c-4,2.42-7,19-1.31,33.09l.11-.18C217.39,126.58,220.4,110.25,224.32,107.87Z"/><path class="cls-5" d="M332.55,149.11a2.29,2.29,0,0,1,1-3.07c1.13-.56,2,.84,2.61,1.56a11.21,11.21,0,0,1,1.53,1.67,10.84,10.84,0,0,0-1.55-1.69c-.52-.6-1.21-1.69-2.09-1.69a1.16,1.16,0,0,0-.52.13,2.29,2.29,0,0,0-1,3.07l1.77,3.56.78,1.57h0l-.77-1.55Z"/><path class="cls-5" d="M325.28,156.9a14,14,0,0,0,2-1.44,7.38,7.38,0,0,1,4-.76,14.92,14.92,0,0,1,3.46,1l0,0a15,15,0,0,0-3.43-1,3.67,3.67,0,0,0-.66-.05,7.58,7.58,0,0,0-3.39.81,14,14,0,0,1-2,1.44,4.33,4.33,0,0,0-1.08.61v0A4.25,4.25,0,0,1,325.28,156.9Z"/><path class="cls-5" d="M220.14,163.08c.05.35.08.7.14,1.06.13.72.28,1.42.45,2.12q-.25-1-.44-2.1C220.23,163.8,220.19,163.44,220.14,163.08Z"/><path class="cls-5" d="M223.68,142.14l-.11.19,0,0c-.1.2-.17.4-.26.59l.38-.78Z"/><path class="cls-5" d="M251.4,220h0a86.77,86.77,0,0,0-3.49,13.68v0a87.7,87.7,0,0,1,3.61-14Z"/><path class="cls-5" d="M202.75,179.45c-.31-.46-.35-.87-.83-1.57C202.4,178.58,202.43,179,202.75,179.45Z"/><path class="cls-5" d="M205.72,170.29a2.2,2.2,0,0,0-.23,0,2.09,2.09,0,0,1,1,.14A2.08,2.08,0,0,0,205.72,170.29Z"/><path class="cls-5" d="M208.34,172.17a7.76,7.76,0,0,1,1.07-2.5c.38-.87.79-2.46,2-2.26a2.29,2.29,0,0,1,1.49.92,2.29,2.29,0,0,0-1.5-.94l-.21,0c-1.08,0-1.46,1.46-1.82,2.28a7.76,7.76,0,0,0-1.07,2.5l-.14.83v0Z"/><path class="cls-5" d="M204.51,175.09c-.1-.67-.07-1.48-.23-2.21-.23-1-.38-2,.7-2.43a2.08,2.08,0,0,1,.27-.08,2,2,0,0,0-.29.05c-1.08.42-.92,1.39-.7,2.43.16.73.13,1.54.23,2.21l-.13-.15a2.12,2.12,0,0,0-1.6-.73c-.07,0-.13,0-.2,0a2.12,2.12,0,0,1,1.81.71Z"/><path class="cls-5" d="M243.21,203.72l-.27.25a3.49,3.49,0,0,1-4.91-.45,39.37,39.37,0,0,1-5.35-8.82c-.75-1.78-1.48-3.64-2.13-5.38a12.39,12.39,0,0,1-1.67,2.88,6.72,6.72,0,0,1,.16,1.14A13.48,13.48,0,0,0,237,204.22a16.79,16.79,0,0,0,6.62,1.4,18.73,18.73,0,0,0,9.67-2.89,52.73,52.73,0,0,1-9.16,1Z"/><path class="cls-5" d="M208.68,185.95l0,.07,0-.06Z"/><path class="cls-5" d="M316.06,190.89a39.45,39.45,0,0,1-6.22,1.83,16.33,16.33,0,0,0,6.55-1.65Z"/><path class="cls-5" d="M324.36,176a7.08,7.08,0,0,1-.19-1.18q-.39-.27-.77-.58c0,1.57-.07,3.19-.15,4.77a37.86,37.86,0,0,1-1.23,7.51A13.72,13.72,0,0,0,324.36,176Z"/><path class="cls-5" d="M210.68,189.47a9.35,9.35,0,0,0,.6.91h0a9.27,9.27,0,0,1-.6-.91Z"/><path class="cls-5" d="M225.45,177l0,0h0l-.68.12v0Z"/><path class="cls-5" d="M220.25,174.57a14,14,0,0,0,2.33.79,2.36,2.36,0,0,1,1.89.83,2.34,2.34,0,0,0-1.91-.85,14,14,0,0,1-2.33-.79,4.47,4.47,0,0,0-1.11-.12,7.38,7.38,0,0,0-3,.58,18.43,18.43,0,0,0-1.94,1.16l0,.06a18.24,18.24,0,0,1,2-1.2A7.38,7.38,0,0,1,220.25,174.57Z"/><path class="cls-5" d="M201.41,174.73a2,2,0,0,1,.25-.18,1.91,1.91,0,0,0-.26.16c-.77.67-.67,1.47-.05,2.39C200.74,176.19,200.65,175.4,201.41,174.73Z"/><path class="cls-5" d="M188.81,241.45a.67.67,0,0,1,.23-.55c.31-.26,5.65-4.64,15.22-7.43a1.32,1.32,0,0,1,.54-.49,1.34,1.34,0,0,1,1.14,0,57.37,57.37,0,0,1,9.14-1.58,1.33,1.33,0,0,1,2.14-.14c.43,0,.83-.06,1.27-.08,2.74-.1,5.27,0,7.64.09a1.36,1.36,0,0,1,1.14-.31,2,2,0,0,1,.69.42,70.12,70.12,0,0,1,9.56,1.41,1.34,1.34,0,0,1,1.75-.08s.34.28.76.69a44.14,44.14,0,0,1,6.66,2.29v-.11a44.56,44.56,0,0,0-6.43-2.21c-.5-.49-.84-.77-.89-.81a1.48,1.48,0,0,0-.93-.33,1.56,1.56,0,0,0-1.07.44,70.64,70.64,0,0,0-9.25-1.36,2.36,2.36,0,0,0-.83-.53l-.3,0a1.54,1.54,0,0,0-1.05.42c-1.5-.08-3.06-.13-4.69-.13q-1.36,0-2.78,0c-.38,0-.74,0-1.12.07a1.56,1.56,0,0,0-1.18-.55,1.48,1.48,0,0,0-.8.23,1.51,1.51,0,0,0-.47.48,57.62,57.62,0,0,0-8.85,1.52,1.61,1.61,0,0,0-.73-.18,1.43,1.43,0,0,0-.6.13,1.49,1.49,0,0,0-.64.6c-9.49,2.8-14.79,7.14-15.1,7.4a.76.76,0,0,0-.26.67c-2.86,2.08-4.86,4.47-5.39,7.12a7.55,7.55,0,0,0-.11,1.94,7.56,7.56,0,0,1,.13-1.92C183.87,246,185.91,243.54,188.81,241.45Z"/><path class="cls-5" d="M300.53,275.91c.07-2.3.21-6.88.34-11.07h0c-.13,4.18-.28,8.75-.34,11a9.49,9.49,0,0,0,.24,2.86A9.78,9.78,0,0,1,300.53,275.91Z"/><path class="cls-5" d="M254.62,272.48c.24.56.49,1.11.76,1.66.52,1,1,1.92,1.44,2.72-.44-.79-.91-1.67-1.42-2.7C255.12,273.61,254.86,273,254.62,272.48Z"/><path class="cls-5" d="M347.91,145.8a7.45,7.45,0,0,0-1.33-.46,6.68,6.68,0,0,0-5.18-3.05l-.56,0a7.47,7.47,0,0,0-2.22.34,6.7,6.7,0,0,0-4.19-1.48h0a6.57,6.57,0,0,0-2.94.7,7.73,7.73,0,0,0-2.09,1.52,40.72,40.72,0,0,0-9.88-18.23c.39-16.86-8.77-34-16.93-35.62a9.4,9.4,0,0,0-1.84-.18c-7.36,0-16.92,8.48-21.42,13.49a48.62,48.62,0,0,0-3.53,4.43,73.42,73.42,0,0,0-11.72,1.15,83.55,83.55,0,0,0-11.29,2.77,48.73,48.73,0,0,0-4.67-2.85c-5.25-2.81-13.68-6.09-20.15-6.09a11.74,11.74,0,0,0-6.26,1.52c-7.1,4.32-9.87,23.55-3.74,39.25a40.73,40.73,0,0,0-3.06,20.46,7.71,7.71,0,0,0-2.26-.74,6.81,6.81,0,0,0-1.1-.09,6.46,6.46,0,0,0-5.45,2.93h0a7.52,7.52,0,0,0-2.72.51,6.68,6.68,0,0,0-4.07,4.44,7.45,7.45,0,0,0-1.14.83c-2.53,2.22-3.63,6.25-.4,10.27h0l0,.07a8.24,8.24,0,0,0,1.4,2.28l.68.79c1.23,1.45,2.22,2.61,2.86,3.25l.9.91.77.78a15.84,15.84,0,0,0,1.81,3.15l.42.53c.21.33.43.66.67,1a18.64,18.64,0,0,0,5.45,5.08,30.28,30.28,0,0,0,17.78,21.49A34.24,34.24,0,0,0,244,223.73l1.1,0q-.84,2.92-1.42,5.57l-.37-.11-.2-.17a7,7,0,0,0-6-1.32c-2.21-.42-4.48-.75-6.8-1a6.09,6.09,0,0,0-1.64-.57,7,7,0,0,0-3.54.23c-1.19,0-2.35-.07-3.53-.07-.85,0-1.71,0-2.55,0a6.94,6.94,0,0,0-6,.44,63.3,63.3,0,0,0-6.71,1.17,6.87,6.87,0,0,0-3.59.6,6.63,6.63,0,0,0-1.21.73c-9.65,3.09-15.12,7.53-15.73,8a6.17,6.17,0,0,0-1.26,1.45c-3.45,2.83-5.54,6-6.23,9.44-1.55,7.73,4.07,15.7,14.79,21.23a6.91,6.91,0,0,0,1,1.51,7,7,0,0,0,7.61,2,56.36,56.36,0,0,0,8.68,2l.07.06a7,7,0,0,0,8.29.44c1,0,2-.08,2.89-.16a66.82,66.82,0,0,0,6.82-1l.31.15a7,7,0,0,0,8.71-2.53q2.52-.84,5-1.86a7,7,0,0,0,5.49-.35,44.67,44.67,0,0,0,2.91,7.58c3.36,6.71,6,10.35,10.09,10.35a6,6,0,0,0,4.34-1.84c2-2,2.17-4.9,2.1-7.44,0-1.32-.1-3.38-.17-5.68,1.44.21,3,.37,4.57.5,2.36.18,4.71.28,7,.28a73,73,0,0,0,16.8-1.85c-.06,2-.11,3.7-.15,4.85-.07,2.54.12,5.4,2.1,7.44a6,6,0,0,0,4.34,1.84c4.13,0,6.73-3.64,10.09-10.35a56.3,56.3,0,0,0,5-18.08c3.66-10.13.56-28.71-2.92-39q-1.33-3.92-2.66-7.52a33.23,33.23,0,0,0,20.19-8.1,30.28,30.28,0,0,0,10.69-25.76,18.64,18.64,0,0,0,3.72-6.46c.13-.37.25-.75.35-1.13.09-.21.17-.42.24-.62a15.85,15.85,0,0,0,.81-3.54l.58-1.1.52-1c.42-.8,1-2.2,1.78-3.95l.41-1a8.24,8.24,0,0,0,.67-2.59v-.07C353.2,150.69,351,147.18,347.91,145.8Z"/><path class="cls-5" d="M223.45,183.21a3.81,3.81,0,0,1-3.74,4.54,3.77,3.77,0,0,1-.55,0,3.71,3.71,0,0,0,2-.21,3.81,3.81,0,0,0,2.33-4.26A2.89,2.89,0,0,1,224,181h0A2.88,2.88,0,0,0,223.45,183.21Z"/><path class="cls-5" d="M199.94,266.75a1.36,1.36,0,0,1-2.13-1.59l-.18-.08a1.53,1.53,0,0,0,2.4,1.78s.25-.22.58-.57l-.16-.06C200.17,266.54,200,266.71,199.94,266.75Z"/><path class="cls-5" d="M215.64,269.79a1.36,1.36,0,0,1-1.92.18,1.34,1.34,0,0,1-.46-.83l-.19,0a1.52,1.52,0,0,0,.53,1,1.54,1.54,0,0,0,2.16-.21s.19-.24.42-.57H216C215.8,269.59,215.67,269.76,215.64,269.79Z"/><path class="cls-5" d="M251,258.43c.17,1.33.4,2.8.7,4.34-.3-1.54-.52-3-.68-4.32Z"/><path class="cls-5" d="M232.57,268a1.36,1.36,0,0,1-1.8.68,1.34,1.34,0,0,1-.76-1l-.18,0a1.51,1.51,0,0,0,.84,1.11,1.54,1.54,0,0,0,2-.77c0-.07.23-.51.49-1.24l-.18.05C232.78,267.49,232.6,267.88,232.57,268Z"/><path class="cls-5" d="M245.66,263.41a1.36,1.36,0,0,1-1.83.58,1.34,1.34,0,0,1-.7-1.05L243,263a1.5,1.5,0,0,0,.78,1.11,1.54,1.54,0,0,0,2.07-.66,16.35,16.35,0,0,0,.92-2.41l-.2.11A15.52,15.52,0,0,1,245.66,263.41Z"/><path class="cls-5" d="M330.52,168.07h-.32a3.81,3.81,0,0,1-2.77-1.56,3.81,3.81,0,0,0,6.89-1.91,5,5,0,0,0-.79-3,5,5,0,0,1,.77,3A3.81,3.81,0,0,1,330.52,168.07Z"/><path class="cls-5" d="M240.93,200.5l.3.33a.68.68,0,0,1-1,.93c0-.05-.45-.48-1-1.19.52.71.88,1.14.92,1.19a.77.77,0,1,0,1.18-1l0,0a12.89,12.89,0,0,0,2.81.26,62.92,62.92,0,0,0,14.67-2.33l-.09-.11a61.24,61.24,0,0,1-14.53,2.27A11.38,11.38,0,0,1,240.93,200.5Z"/><path class="cls-5" d="M325.13,162.38h0l0,0Z"/><path class="cls-5" d="M233.38,185.75c.6,1.91,1.36,4.13,2.24,6.29a55.91,55.91,0,0,1-1.49-5.71Z"/><path class="cls-5" d="M220.67,182.71l-1.89,0a2.43,2.43,0,0,0-.09,1.67,1.1,1.1,0,0,0,1,.69,1.07,1.07,0,0,0,.4-.08,1.08,1.08,0,0,0,.67-1.21A5.53,5.53,0,0,1,220.67,182.71Z"/><path class="cls-5" d="M298.12,191.46l-.06.15c8.43-.55,17-2.52,19.39-4.54-.12.39-.21.63-.21.64a.77.77,0,0,0,.46,1,.79.79,0,0,0,.26,0,.77.77,0,0,0,.72-.51,35.84,35.84,0,0,0,1.23-4.58c-.59,2.52-1.25,4.43-1.3,4.57a.68.68,0,1,1-1.28-.45s.16-.45.37-1.16l-.07.1C315.93,188.6,307.46,190.86,298.12,191.46Z"/><path class="cls-5" d="M322.35,168.42a8.14,8.14,0,0,0,.4.84,8.15,8.15,0,0,1-.39-.82c-.32-.81.13-2.16,0-3.06,0-.34-.07-.68-.1-1v0c0,.31.06.63.09,1C322.47,166.26,322,167.61,322.35,168.42Z"/><path class="cls-5" d="M258.53,202l0,0c.36-.81.72-1.59,1.06-2.33h0C259.26,200.34,258.9,201.13,258.53,202Z"/><path class="cls-5" d="M319.49,170.24l-.44.73a53.86,53.86,0,0,1,.44,6C319.6,174.53,319.57,172.18,319.49,170.24Z"/><path class="cls-5" d="M330.43,165.34h.09a1.09,1.09,0,0,0,1.08-1,2.43,2.43,0,0,0-.57-1.57l-1.79.6a5.64,5.64,0,0,1,.2,1A1.08,1.08,0,0,0,330.43,165.34Z"/><path class="cls-3" d="M239.26,232.73a1.34,1.34,0,0,0-1.75.08,70.12,70.12,0,0,0-9.56-1.41,2,2,0,0,0-.69-.42,1.36,1.36,0,0,0-1.14.31c-2.37-.13-4.91-.18-7.64-.09-.43,0-.84.06-1.27.08a1.33,1.33,0,0,0-2.14.14,57.37,57.37,0,0,0-9.14,1.58,1.34,1.34,0,0,0-1.14,0,1.32,1.32,0,0,0-.54.49c-9.57,2.79-14.91,7.17-15.22,7.43a.71.71,0,0,0-.08,1,.68.68,0,0,0,1,.08,44.36,44.36,0,0,1,14.28-7c.39.94,2.64,7,.69,15.94-2.1,9.64-6.68,13.78-6.72,13.82a1.34,1.34,0,0,0-.34.47,1.36,1.36,0,0,0,2.13,1.59s.23-.21.52-.51c1.39-1.44,5.17-6,7.07-14.78,2-9.06,0-15.4-.71-17.25a55.68,55.68,0,0,1,8.19-1.4s0,.07,0,.1,4.25,6.82,3.57,18.28-5,16.84-5.08,16.89a1.4,1.4,0,0,0,.18,1.92,1.36,1.36,0,0,0,1.92-.18s.16-.21.36-.48c1.15-1.63,4.7-7.45,5.33-18,.58-9.67-2.08-16.21-3.35-18.73l.53,0c2.55-.09,4.92,0,7.15.07a1.94,1.94,0,0,0,.55.86,1.36,1.36,0,0,0,.23.18,24.54,24.54,0,0,1,6.15,14.44,40.76,40.76,0,0,1-2.51,18.72,1.43,1.43,0,0,0,.68,1.8,1.36,1.36,0,0,0,1.8-.68c0-.07.21-.47.45-1.13a44.08,44.08,0,0,0,2.29-19,28,28,0,0,0-5.88-14.92,69,69,0,0,1,7.69,1.22,1.33,1.33,0,0,0,.43.7,22.45,22.45,0,0,1,6.7,11.73c2.11,9.29-1,15.52-1,15.58a1.43,1.43,0,0,0,.58,1.83,1.36,1.36,0,0,0,1.83-.58,15.52,15.52,0,0,0,.87-2.24,29.1,29.1,0,0,0,.37-15.19,26.08,26.08,0,0,0-5.1-10.59,37.43,37.43,0,0,1,5,1.89c0-.56-.09-1.09-.12-1.56a44.14,44.14,0,0,0-6.66-2.29C239.59,233,239.31,232.77,239.26,232.73Z"/><path class="cls-3" d="M293.64,204.59A28.53,28.53,0,0,1,280.23,210a26,26,0,0,1-15.73-2.58c-5.78,8.46-11.42,21.58-11.14,34,.47,20.44,17.7,23.32,28.88,22.83,7.3-.32,14.29-2.94,18.92-8.21V256l.12-.07a22,22,0,0,0,4.95-10.54c2.33-12.56-3.26-25.12-8.38-34.72A28.15,28.15,0,0,0,293.64,204.59Z"/><path class="cls-3" d="M223.93,141.72l-.25.42,0,0Z"/><path class="cls-3" d="M225.74,110.19a3.71,3.71,0,0,1,1.79-.32c3.29,0,9.93,1.68,16.35,5.11a39,39,0,0,1,4.66,2.91c-8.72,3.88-11.78,8.13-12,8.38a.68.68,0,0,0,1.12.78c.06-.09,6.37-8.88,27.27-12.56s30.29,3.59,30.39,3.67a.68.68,0,0,0,.85-1.07c-.27-.22-4.84-3.74-14.56-4.75a38.27,38.27,0,0,1,3.6-4.65C291.05,101.22,298,97,300.36,97l.28,0c2.6.52,10.22,12.31,10.27,26,.86.56,1.76,1.19,2.66,1.9.61-15.2-7.87-29.69-12.4-30.6-3.84-.77-12.4,5.35-18,11.56a39.5,39.5,0,0,0-4.62,6.24,64.49,64.49,0,0,0-13.85,1,73.77,73.77,0,0,0-13.3,3.55,39.87,39.87,0,0,0-6.27-4.12c-7.35-3.93-17.47-6.77-20.83-4.72-3.92,2.39-6.93,18.72-1.3,32.74.61-1,1.24-1.9,1.85-2.74C220.39,125,223.49,111.56,225.74,110.19Z"/><path class="cls-3" d="M235.62,192l.33.81a31.22,31.22,0,0,0,5,7.65,11.38,11.38,0,0,0,3.22.35,61.24,61.24,0,0,0,14.53-2.27,9.32,9.32,0,0,1-1.93-4.68s0,0,0-.05h0l0-.15c0-.17-.06-.34-.08-.52l-.1-1.48c0-.17,0-.31,0-.44h0a11.06,11.06,0,0,1-4.12.24l-3,.54a13.6,13.6,0,0,1-15.77-11l-.29-1.61-.23,0a62.25,62.25,0,0,0,1,6.88A55.91,55.91,0,0,0,235.62,192Z"/><path class="cls-3" d="M239.28,159.33a11.21,11.21,0,0,1,12.57-9.58l6,.81a11.19,11.19,0,0,1,8.82,6.83,11.09,11.09,0,0,1,9.53-1.78,11.14,11.14,0,0,1,4.29-7.42l4.83-3.68A11.21,11.21,0,0,1,301,146.63l4.68,6.14,5.67-1a1.87,1.87,0,0,1,1.25,3.47,6.21,6.21,0,0,1,2.06,4.08l1.26,7.12a13.6,13.6,0,0,1-11,15.77l-2.08.37a11.16,11.16,0,0,1-4.23.75l-.63.11-.4.05.08.16.07.16c.05.12.1.24.15.36l.2.59a3.19,3.19,0,0,1,.11.36l.12.49c0,.21.08.38.11.55l.1.72s0,.05,0,.1a1.51,1.51,0,0,1,0,.16l.06.68a1.17,1.17,0,0,1,0,.2l0,.35v.07a8.21,8.21,0,0,1-.54,3c9.35-.6,17.81-2.86,19.51-4.75l.07-.1a40.84,40.84,0,0,0,1.77-8.94c0-.23,0-.47,0-.7a53.86,53.86,0,0,0-.44-6,55.73,55.73,0,0,0-1.23-6.56l-2.17.39-.65-3.67,1.76-.31a31.6,31.6,0,0,0-2.59-5.76c0-.24-.06-.47-.1-.71-3.14-17.83-23.9-29.07-46.38-25.12C246.45,133,231.29,149,232.35,165.77l6.21-1.1Z"/><path class="cls-6" d="M256.52,191.27v0l0-.14h0c0-.13,0-.23,0-.33h0l-.26.06-3.89.69A11.06,11.06,0,0,0,256.52,191.27Z"/><path class="cls-6" d="M298.62,183.32a11.16,11.16,0,0,0,4.23-.75Z"/><path class="cls-6" d="M278.74,202.37h0Z"/><path class="cls-6" d="M279.77,202.22h0Z"/><path class="cls-7" d="M230,267.62l-.18,0v0a65.58,65.58,0,0,1-6.65,1.24h-.08q-1.13.15-2.3.26c-1.17.11-2.35.16-3.54.16H216.2l0,0H216c1.15-1.63,4.7-7.45,5.33-18,.58-9.67-2.08-16.21-3.35-18.73l.53,0c2.55-.09,4.92,0,7.15.07a1.94,1.94,0,0,0,.55.86,1.36,1.36,0,0,0,.23.18,24.54,24.54,0,0,1,6.15,14.44,40.76,40.76,0,0,1-2.51,18.72A1.33,1.33,0,0,0,230,267.62Zm-31.86-2.93s4.62-4.17,6.72-13.82c2-9-.3-15-.69-15.94a44.36,44.36,0,0,0-14.28,7,.68.68,0,0,1-1-.08.67.67,0,0,1-.15-.41c-2.9,2.1-4.94,4.5-5.47,7.17a7.56,7.56,0,0,0-.13,1.92s0,.07,0,.1c0,.26.06.52.1.78,0,.1,0,.2.05.31s.11.45.17.68.08.28.13.42.14.39.22.59.15.36.24.53.15.33.24.49.27.47.41.71l.19.31c2.4,3.67,7,7.09,12.69,9.61h0l.18.08A1.34,1.34,0,0,1,198.16,264.69Zm45.09-2.53c0-.06,3.12-6.29,1-15.58a22.45,22.45,0,0,0-6.7-11.73,1.33,1.33,0,0,1-.43-.7,69,69,0,0,0-7.69-1.22,28,28,0,0,1,5.88,14.92,44.08,44.08,0,0,1-2.29,19l.18-.05v0a65.72,65.72,0,0,0,9.73-3.74v0l.17-.08A1.33,1.33,0,0,1,243.25,262.16Zm-29.71,5.9c0-.05,4.4-5.53,5.08-16.89s-3.52-18.21-3.57-18.28,0-.07,0-.1a55.68,55.68,0,0,0-8.19,1.4c.71,1.85,2.69,8.19.71,17.25-1.9,8.75-5.69,13.34-7.07,14.78l.16.06h0a50.1,50.1,0,0,0,12.43,2.83v0l.19,0A1.34,1.34,0,0,1,213.54,268.06Zm132.4-117.53c.42.53.34,1.31,0,2.26-.51,1.29-.24,1.67-.6,2.48s-1.55,3.66-2,4.58l-1.62,3.08a11.23,11.23,0,0,1-.6,3.25c-.08.24-.18.47-.29.69a9.34,9.34,0,0,1-.31,1.07c-.83,2.32-2.18,4.83-4.35,6,.57,3.13,1.93,15.16-8.44,23.92a28,28,0,0,1-18.47,6.86,31.57,31.57,0,0,1-4.89-.39,38,38,0,0,0-3.57-5.94.68.68,0,0,0-1.09.82,35.33,35.33,0,0,1,3.94,6.9l.07.16c.09.23.17.46.25.69,0,0,0,.06.07.09,1.65,4.14,3.2,8.41,4.53,12.34,3.58,10.55,6,28.13,2.74,35.91-.49,4.57-1.66,11.25-4.51,17-2.64,5.28-4.29,7.34-5.22,7.34a.56.56,0,0,1-.24-.06l0,0a.72.72,0,0,1-.15-.13,1,1,0,0,1-.1-.13l-.07-.12a2.12,2.12,0,0,1-.13-.33v0a9.78,9.78,0,0,1-.23-2.83c.07-2.3.21-6.88.34-11.07a24.25,24.25,0,0,0,5.67-3.56.68.68,0,1,0-.91-1,23.47,23.47,0,0,1-5.37,3.35,60.41,60.41,0,0,1-21.83,3.67q-3.16,0-6.57-.26a48.57,48.57,0,0,1-10.65-1.87v.29a17.8,17.8,0,0,1-4.62-2.87.68.68,0,1,0-.92,1,18.18,18.18,0,0,0,5.58,3.35c.13,4.13.27,8.6.34,10.86s-.21,3.68-1,3.68a.9.9,0,0,1-.37-.1l0,0a2.19,2.19,0,0,1-.39-.26l-.09-.08a5.14,5.14,0,0,1-.4-.4l-.15-.17c-.13-.15-.26-.32-.4-.51l-.21-.28c-.13-.18-.26-.38-.4-.59l-.29-.44-.38-.62-.39-.66-.28-.5c-.44-.79-.91-1.67-1.42-2.7-.27-.55-.53-1.11-.77-1.68l-.08-.18c-.23-.54-.44-1.09-.65-1.64l-.11-.29c-.2-.56-.39-1.12-.57-1.68l-.09-.26c-.18-.57-.34-1.14-.49-1.71l-.06-.22q-.23-.87-.43-1.72l0-.18q-.2-.88-.37-1.73l0-.1c-.3-1.54-.52-3-.68-4.32v0h0l0,0c-1.27.85-2.69,1.73-4.25,2.62v0l-.2.11a29.1,29.1,0,0,0,.37-15.19,26.08,26.08,0,0,0-5.1-10.59,37.43,37.43,0,0,1,5,1.89c.3,3.67.85,9.09,1.74,14.14a.68.68,0,0,0,.67.56h.12a.68.68,0,0,0,.55-.79,174.89,174.89,0,0,1-2-17.43,87.7,87.7,0,0,1,3.61-14c2.67-7.39,5.08-9.91,5.1-9.93a.68.68,0,0,0-1-1c-.09.09-2,2.08-4.37,7.7a27.8,27.8,0,0,1-7.64,1.1,28.7,28.7,0,0,1-11.37-2.4c-12.5-5.34-14.72-17.25-15.09-20.39-2.4-.45-4.43-2.46-5.91-4.43a9.28,9.28,0,0,1-.6-.91h0v0c-.17-.18-.32-.37-.47-.57a9.62,9.62,0,0,1-.8-1.29l-.1-.2a13.18,13.18,0,0,1-.59-1.37l0-.06h0l-2.45-2.47c-.74-.74-2.71-3.12-3.29-3.79a2.55,2.55,0,0,1-.18-.23c-.31-.46-.35-.87-.83-1.57-.08-.12-.18-.25-.29-.39s-.2-.26-.29-.39c-.61-.91-.7-1.7.07-2.37a2,2,0,0,1,.25-.18l.16-.1a2,2,0,0,1,.57-.19l.17,0a2.12,2.12,0,0,1,1.81.71l.13.15c-.1-.67-.07-1.48-.23-2.21-.23-1-.38-2,.7-2.43a2.08,2.08,0,0,1,.27-.08l.24,0a2.09,2.09,0,0,1,1,.14l.18.08a1.91,1.91,0,0,1,.6.46l.1.13a2.08,2.08,0,0,1,.28.49c0,.06.22.58.5,1.35h0v0l.14-.84a7.76,7.76,0,0,1,1.07-2.5c.38-.87.79-2.46,2-2.26a2.27,2.27,0,0,1,1.87,2.62l-.65,3.92-.46,2.75a21.53,21.53,0,0,0-2,4.17.68.68,0,0,0,.42.87.69.69,0,0,0,.22,0,.68.68,0,0,0,.64-.46,21.43,21.43,0,0,1,2.67-5.07,18.24,18.24,0,0,1,2-1.2,7.38,7.38,0,0,1,4.09-.46,14,14,0,0,0,2.33.79,2.36,2.36,0,0,1,1.89.83,2.06,2.06,0,0,1,.27.93h0v0l-.85.15a1.88,1.88,0,0,0-1.52,2.17,1.85,1.85,0,0,0,.12.4,3.79,3.79,0,0,1-.82.17l-3.94-.09c-1.72.9-2.31,3.6-1.58,5.43a3.79,3.79,0,0,0,.33.64l.13.18a3.77,3.77,0,0,0,.27.33l.21.22.22.18a3.81,3.81,0,0,0,1.26.68h0a3.86,3.86,0,0,0,.54.12,3.71,3.71,0,0,0,2-.21,3.81,3.81,0,0,0,2.33-4.26A2.89,2.89,0,0,1,224,181a1.84,1.84,0,0,0,.59,0l2.68-.48a8.31,8.31,0,0,1,.57,2.1c.17.89,1,2,.93,2.92a9.46,9.46,0,0,1-3,6,4.52,4.52,0,0,1,.59,2c0,.35.77,9.43,9.58,13.2a19.41,19.41,0,0,0,7.69,1.62c7.92,0,13.68-5,14.8-6.07l.14-.31,0,0c.36-.81.72-1.59,1.06-2.33a8.78,8.78,0,0,0,3.53,1.87c4.25,1.18,6.36,1,7.25.76a10.65,10.65,0,0,0,9.32,2.64,13.24,13.24,0,0,0,8.33-5.47c1.3-.41,7.1-2.44,9.53-6.79a4.33,4.33,0,0,1,1.07.39,23.89,23.89,0,0,0,10.41,2.46,19.18,19.18,0,0,0,12.66-4.66c7.44-6.28,5.31-15.34,5.28-15.43a4.56,4.56,0,0,1,0-2.06,8.69,8.69,0,0,1-3.27-2.59l0,0c-.17-.21-.33-.43-.49-.66s-.26-.41-.38-.63l-.08-.13a8.15,8.15,0,0,1-.39-.82c-.32-.81.13-2.16,0-3.06,0-.34-.07-.68-.1-1v0c-.45,1.18-1,2.35-1.54,3.5-.1-1.56-.19-2.54-.2-2.56a.7.7,0,0,0-.75-.61.68.68,0,0,0-.61.75s.2,2,.31,4.8l-.44.73a55.73,55.73,0,0,0-1.23-6.56l6-1.06a1.86,1.86,0,0,0,1.31-1h0a3,3,0,0,1,.53.34l.05.05a2.92,2.92,0,0,1,.41.44l.09.13a2.85,2.85,0,0,1,.27.5l0,.1a2.86,2.86,0,0,1,.17.7,3.82,3.82,0,0,0,7.6-.07,5,5,0,0,0-.79-3,3.67,3.67,0,0,0-2.33-1.77l-3.74,1.25a3.78,3.78,0,0,1-2.21-.18,1.84,1.84,0,0,0-1.38-1.23,2.23,2.23,0,0,1-.09-.25h0v0l-.06.25h0a1.88,1.88,0,0,0-.57,0l-6.4,1.13a31.6,31.6,0,0,0-2.59-5.76c0-.24-.06-.47-.1-.71-3.14-17.83-23.9-29.07-46.38-25.12C246.45,133,231.29,149,232.35,165.77l-.09,0a1.87,1.87,0,0,0,.52,3.7,6.36,6.36,0,0,0-.46,4.42l.32,1.82-7.2,1.28,0,0a35.18,35.18,0,0,1-2.91-5.42c-.14-.32-.28-.64-.41-1s-.17-.46-.26-.69c-.16-.44-.31-.88-.46-1.32l-.15-.47c-.18-.6-.35-1.21-.5-1.82v0q-.25-1-.44-2.1c-.06-.36-.1-.72-.15-1.08s-.12-.84-.17-1.26-.08-.9-.11-1.36,0-.74-.05-1.1,0-.91,0-1.37,0-.75,0-1.12q0-1.12.17-2.23c0-.41.08-.82.14-1.23s.14-.85.22-1.27.15-.78.23-1.17.18-.82.29-1.23.23-.86.36-1.28.22-.78.35-1.17q.34-1,.74-2c.14-.37.3-.73.46-1.09s.35-.81.54-1.21l.38-.78.23-.47a44.28,44.28,0,0,1,7.3-9,.68.68,0,0,0-.9-1,42.49,42.49,0,0,0-5.45,6.19c-4.48-12.82-1.39-26.3.86-27.67a3.71,3.71,0,0,1,1.79-.32c3.29,0,9.93,1.68,16.35,5.11a39,39,0,0,1,4.66,2.91c-8.72,3.88-11.78,8.13-12,8.38a.68.68,0,0,0,1.12.78c.06-.09,6.37-8.88,27.27-12.56s30.29,3.59,30.39,3.67a.68.68,0,0,0,.85-1.07c-.27-.22-4.84-3.74-14.56-4.75a38.27,38.27,0,0,1,3.6-4.65C291.05,101.22,298,97,300.36,97l.28,0c2.6.52,10.22,12.31,10.27,26a38.86,38.86,0,0,0-6.1-3.27.68.68,0,0,0-.5,1.26,37.6,37.6,0,0,1,11,7.28l0,0,.23.23h0a37.54,37.54,0,0,1,3.35,4.32l.15.23q.68,1,1.29,2.13l.1.17a34.13,34.13,0,0,1,2.2,4.87l.12.34q.39,1.12.7,2.27l.09.31c.23.87.42,1.75.58,2.65s.3,1.94.38,2.91v.06a34.21,34.21,0,0,1-.39,8.69h0v0a4.25,4.25,0,0,1,1.1-.63,14,14,0,0,0,2-1.44,7.38,7.38,0,0,1,4-.76,14.92,14.92,0,0,1,3.46,1,35.36,35.36,0,0,1,4.51,4.17.68.68,0,0,0,1.22-.61c-.47-.93-3.72-3.68-5.42-5.07l-.77-1.55-1.77-3.56a2.29,2.29,0,0,1,1-3.07c1.13-.56,2,.84,2.61,1.56a11.21,11.21,0,0,1,1.53,1.67c.07.12.14.24.21.39l.38.76h0v0c0-.82.08-1.38.09-1.44a2.1,2.1,0,0,1,2.25-1.95,1.24,1.24,0,0,1,.92.43,3.16,3.16,0,0,1,.45,1.67c0,.16.06.31.08.47s0,.26.07.39c.1.46.21.9.27,1.31v0s0,0,0,0l.08-.18a2.1,2.1,0,0,1,2.77-1.07A1.62,1.62,0,0,1,345.94,150.53Zm-48.1,60.1a28.15,28.15,0,0,0-4.2-6A28.53,28.53,0,0,1,280.23,210a26,26,0,0,1-15.73-2.58c-5.78,8.46-11.42,21.58-11.14,34,.47,20.44,17.7,23.32,28.88,22.83,7.3-.32,14.29-2.94,18.92-8.21V256l.12-.07a22,22,0,0,0,4.95-10.54C308.55,232.8,303,220.24,297.84,210.63Zm-40-60.07-6-.81a11.21,11.21,0,0,0-12.57,9.58l-.72,5.34L264,160.15a11.28,11.28,0,0,1,2.66-2.75A11.19,11.19,0,0,0,257.88,150.56Zm27.48-6.05-4.83,3.68a11.14,11.14,0,0,0-4.29,7.42,11.27,11.27,0,0,1,3.65,1.73l25.82-4.58L301,146.63A11.21,11.21,0,0,0,285.36,144.51ZM258,193l-.09-1.39c0-.11,0-.23,0-.4s0-.21,0-.31l0-.1v-.05l.06-.35a13.59,13.59,0,0,0,9.32-15.34l-.07-.41a1.77,1.77,0,0,0,.44-.16l1.21,6.68a1.79,1.79,0,1,0,3.52-.64l-1.55-8.59a10,10,0,0,1,9.64,0,1.8,1.8,0,0,0,1.23.21,1.88,1.88,0,0,0,.41-.12l.07.42a13.59,13.59,0,0,0,13.91,11.21l.19.36.11.23,0,.11c0,.1.09.19.12.3l.18.5c0,.12.08.24.1.31l.14.57c0,.13.06.27.09.43l.05.25a1.86,1.86,0,0,0,0,.28h0v.1h0a.68.68,0,0,0,0,.14h0a.65.65,0,0,0,0,.14h0a7.46,7.46,0,0,1,.06,1v0c0,.07,0,.16,0,.3v.19h0v0h0l0,.2h0l0,.19h0l0,.35c-.59,3.2-3.22,5.48-7.23,6.3l-.1,0h0s0,0-.06,0h0l-.23,0-.48.11a6,6,0,0,0-1.83.87,10,10,0,0,0-1.5,1.34c-.45.47-.86.94-1.29,1.38a10,10,0,0,1-1.34,1.17l-1.14.65-.19.09a1.35,1.35,0,0,1-.21.09l-.23.09-.06,0h0l-.12,0-.24.09-.06,0h0l-.11,0-.42.11-.49.1h-.08l-.1,0-.22,0-.5.06H278a7.56,7.56,0,0,1-1.74-.24,10.51,10.51,0,0,1-1.67-.63c-.56-.26-1.11-.56-1.7-.84a10.44,10.44,0,0,0-1.88-.73,5.75,5.75,0,0,0-2-.18l-.26,0h-.13l-.1,0-.17,0h-.12c-4.12.67-7.43-.55-9.16-3.39l-.06-.15h0l-.16-.37,0-.06-.07-.14a.39.39,0,0,0-.07-.13l-.18-.47a1.17,1.17,0,0,0-.08-.25l0-.15a.3.3,0,0,0,0-.09h0l-.28-1.2C258,193.32,258,193.18,258,193Zm11.5-1.19a5.47,5.47,0,0,0,2.71,3.56,1.79,1.79,0,0,0,1.64-3.19,2.08,2.08,0,0,1-.82-1,1.79,1.79,0,0,0-3.52.66Zm-3-21.31.39-.35-.1-.55a1.79,1.79,0,0,1,1.44-2.08,1.77,1.77,0,0,1,1.72.68,13.66,13.66,0,0,1,11.5,0l-.52-2.94a6.39,6.39,0,0,1,.45-4.41l-17.28,3.06a6.39,6.39,0,0,1,1.94,4Zm5.06-13.77a9.81,9.81,0,0,0-5.52,3.06l11.8-2.09A9.81,9.81,0,0,0,271.57,156.74Z"/><path class="cls-8" d="M278.87,202.35h0Z"/><path class="cls-3" d="M272.17,195.37a1.79,1.79,0,0,0,1.64-3.19,2.08,2.08,0,0,1-.82-1,1.79,1.79,0,0,0-3.52.66A5.47,5.47,0,0,0,272.17,195.37Z"/><path class="cls-3" d="M268.25,167.53a1.79,1.79,0,0,0-1.44,2.08l.1.55a13.68,13.68,0,0,1,3.07-1.95A1.77,1.77,0,0,0,268.25,167.53Z"/><path class="cls-3" d="M271,182.6a1.79,1.79,0,0,0,1.44-2.08l-1.55-8.59a10,10,0,0,0-2.67,2.15,1.79,1.79,0,0,1-.51.39l1.21,6.68A1.79,1.79,0,0,0,271,182.6Z"/><path class="cls-8" d="M323.83,159.67h0a1.88,1.88,0,0,1-.08-.22v0l-.06.25h.11Z"/><path class="cls-9" d="M315.66,164.79l2.17-.39,6-1.06a1.86,1.86,0,0,0,1.31-1h0l0,0a3,3,0,0,1,.53.34l.05.05a2.92,2.92,0,0,1,.41.44l.09.13a2.85,2.85,0,0,1,.27.5l0,.1a2.86,2.86,0,0,1,.17.7,3.81,3.81,0,0,0,3.47,3.39h.32a3.81,3.81,0,0,0,3.79-3.5,5,5,0,0,0-.77-3,3.67,3.67,0,0,0-2.33-1.77l-3.74,1.25a3.78,3.78,0,0,1-2.21-.18,1.84,1.84,0,0,0-1.38-1.23l-.14,0a1.88,1.88,0,0,0-.57,0l-6.4,1.13-1.76.31Zm15.38-2a2.43,2.43,0,0,1,.57,1.57,1.09,1.09,0,0,1-1.08,1h-.09a1.08,1.08,0,0,1-1-1,5.64,5.64,0,0,0-.2-1Zm-107.12,14.5a1.88,1.88,0,0,0-1.52,2.17,1.85,1.85,0,0,0,.12.4,3.79,3.79,0,0,1-.82.17l-3.94-.09c-1.72.9-2.31,3.6-1.58,5.43a3.79,3.79,0,0,0,.33.64l.13.18a3.77,3.77,0,0,0,.27.33l.21.22.22.18a3.83,3.83,0,0,0,1.26.68h0a3.86,3.86,0,0,0,.54.12,3.77,3.77,0,0,0,2-.23,3.81,3.81,0,0,0,2.33-4.26,2.88,2.88,0,0,1,.5-2.25h0a1.84,1.84,0,0,0,.59,0l2.68-.48a8.31,8.31,0,0,1,.57,2.1c.17.89,1,2,.93,2.92a9.46,9.46,0,0,1-3,6,4.52,4.52,0,0,1,.59,2c0,.35.77,9.43,9.58,13.2a19.41,19.41,0,0,0,7.69,1.62c7.92,0,13.68-5,14.8-6.07l.14-.31c.37-.83.74-1.62,1.09-2.38h0a8.78,8.78,0,0,0,3.53,1.87c4.25,1.18,6.36,1,7.25.76a10.65,10.65,0,0,0,9.32,2.64,13.24,13.24,0,0,0,8.33-5.47c1.3-.41,7.1-2.44,9.53-6.79a4.33,4.33,0,0,1,1.07.39,23.89,23.89,0,0,0,10.41,2.46,19.18,19.18,0,0,0,12.66-4.66c7.44-6.28,5.31-15.34,5.28-15.43a4.56,4.56,0,0,1,0-2.06,8.69,8.69,0,0,1-3.27-2.59l0,0c-.17-.21-.33-.43-.49-.66s-.26-.41-.38-.63l-.08-.13a8.14,8.14,0,0,1-.4-.84c-.32-.81.13-2.16,0-3.06,0-.33-.07-.64-.09-1v0c-.45,1.18-1,2.35-1.54,3.5-.1-1.56-.19-2.54-.2-2.56a.7.7,0,0,0-.75-.61.68.68,0,0,0-.61.75s.2,2,.31,4.8c.07,1.94.1,4.29,0,6.72,0,.23,0,.47,0,.7a40.84,40.84,0,0,1-1.77,8.94c-.22.71-.37,1.14-.37,1.16a.68.68,0,1,0,1.28.45c0-.13.71-2,1.3-4.57a35.84,35.84,0,0,1-1.23,4.58.77.77,0,0,1-.72.51.79.79,0,0,1-.26,0,.77.77,0,0,1-.46-1s.09-.24.21-.64c-2.37,2-11,4-19.39,4.54l.06-.15a8.21,8.21,0,0,0,.54-3v-.07l0-.35a1.17,1.17,0,0,0,0-.2l-.06-.68a1.51,1.51,0,0,0,0-.16s0-.09,0-.1l-.1-.72c0-.16-.06-.34-.11-.55l-.12-.49a3.19,3.19,0,0,0-.11-.36l-.2-.59c0-.13-.09-.24-.15-.36l-.07-.16-.08-.16.4-.05.63-.11,4.23-.75,2.08-.37a13.6,13.6,0,0,0,11-15.77l-1.26-7.12a6.21,6.21,0,0,0-2.06-4.08,1.87,1.87,0,0,0-1.25-3.47l-5.67,1-25.82,4.58a11.33,11.33,0,0,0-8.55-1.94,11.15,11.15,0,0,0-4.63,2,11.28,11.28,0,0,0-2.66,2.75l-25.47,4.52-6.21,1.1-.09,0a1.87,1.87,0,0,0,.52,3.7,6.36,6.36,0,0,0-.46,4.42l.32,1.82-7.2,1.28-.69.12Zm-3.8,7.67a1.07,1.07,0,0,1-.4.08,1.1,1.1,0,0,1-1-.69,2.43,2.43,0,0,1,.09-1.67l1.89,0a5.53,5.53,0,0,0,.1,1A1.08,1.08,0,0,1,220.11,184.95ZM323.25,179c.08-1.58.13-3.2.15-4.77q.38.31.77.58a7.08,7.08,0,0,0,.19,1.18A13.72,13.72,0,0,1,322,186.54,37.86,37.86,0,0,0,323.25,179Zm-7.19,11.86.32.18a16.33,16.33,0,0,1-6.55,1.65A39.45,39.45,0,0,0,316.06,190.89Zm-72.47,14.73a16.79,16.79,0,0,1-6.62-1.4A13.48,13.48,0,0,1,229,193.33a6.72,6.72,0,0,0-.16-1.14,12.39,12.39,0,0,0,1.67-2.88c.65,1.74,1.38,3.6,2.13,5.38a39.37,39.37,0,0,0,5.35,8.82,3.49,3.49,0,0,0,4.91.45l.27-.25.89,0a52.73,52.73,0,0,0,9.16-1A18.73,18.73,0,0,1,243.59,205.62Zm35.15-3.25h0Zm-7.17-45.63a9.81,9.81,0,0,1,6.29,1l-11.8,2.09A9.81,9.81,0,0,1,271.57,156.74Zm9.83,4.14a6.39,6.39,0,0,0-.45,4.41l.52,2.94a13.69,13.69,0,0,0-14.56,1.93l-.39.35-.46-2.58a6.39,6.39,0,0,0-1.94-4Zm-23.51,30.33c0-.11,0-.21,0-.31l0-.1v-.05l.06-.35a13.59,13.59,0,0,0,9.32-15.34l-.07-.41a1.77,1.77,0,0,0,.44-.16,1.79,1.79,0,0,0,.51-.39,10,10,0,0,1,12.31-2.18,1.8,1.8,0,0,0,1.23.21,1.88,1.88,0,0,0,.41-.12l.07.42a13.59,13.59,0,0,0,13.91,11.21l.19.36.11.23,0,.11c0,.1.09.19.12.3l.18.5c0,.12.08.24.1.31l.14.57c0,.13.06.27.09.43l.05.25a1.86,1.86,0,0,0,0,.28h0v.1h0a.68.68,0,0,0,0,.14h0a.65.65,0,0,0,0,.14h0a7.46,7.46,0,0,1,.06,1v0c0,.07,0,.16,0,.3v.19h0v0h0l0,.2h0l0,.19h0l0,.35c-.59,3.2-3.22,5.48-7.23,6.3l-.1,0h0s0,0-.06,0h0l-.23,0-.48.11a6,6,0,0,0-1.83.87,10,10,0,0,0-1.5,1.34c-.45.47-.86.94-1.29,1.38a10,10,0,0,1-1.34,1.17l-1.14.65-.19.09a1.35,1.35,0,0,1-.21.09l-.23.09-.06,0h0l-.12,0-.24.09-.06,0h0l-.11,0-.42.11-.49.1h-.08l-.1,0-.22,0-.5.06H278a7.56,7.56,0,0,1-1.74-.24,10.51,10.51,0,0,1-1.67-.63c-.56-.26-1.11-.56-1.7-.84a10.44,10.44,0,0,0-1.88-.73,5.75,5.75,0,0,0-2-.18l-.26,0h-.13l-.1,0-.17,0h-.12c-4.12.67-7.43-.55-9.16-3.39l-.06-.15h0l-.16-.37,0-.06-.07-.14a.39.39,0,0,0-.07-.13l-.18-.47a1.17,1.17,0,0,0-.08-.25l0-.15a.3.3,0,0,0,0-.09h0l-.28-1.2c0-.15-.05-.29-.07-.47l-.09-1.39C257.87,191.5,257.88,191.39,257.89,191.21Zm-24.81-11.75.23,0,.29,1.61a13.6,13.6,0,0,0,15.77,11l3-.54,3.89-.69.26-.06h0c0,.09,0,.19,0,.33h0l0,.14v0h0c0,.13,0,.26,0,.44l.1,1.48c0,.17,0,.34.08.52l0,.15h0s0,0,0,.05a9.32,9.32,0,0,0,1.93,4.68l.09.11A62.92,62.92,0,0,1,244.1,201a12.89,12.89,0,0,1-2.81-.26l0,0a.77.77,0,0,1-1.18,1s-.4-.48-.92-1.19c.58.7,1,1.14,1,1.19a.68.68,0,0,0,1-.93l-.3-.33a31.22,31.22,0,0,1-5-7.65l-.33-.81c-.88-2.16-1.64-4.38-2.24-6.29-.94-3-1.49-5.19-1.5-5.23a.68.68,0,1,0-1.32.33s.32,1.3.88,3.2a39.77,39.77,0,0,1-3.49-3.68Zm113.34-31.88a4.64,4.64,0,0,0-1.95-.42h-.06a3.82,3.82,0,0,0-3.55-2.85h-.35a4.79,4.79,0,0,0-2.76.88,4.8,4.8,0,0,0-3.65-2,3.87,3.87,0,0,0-1.73.41,5,5,0,0,0-2.26,6.72l.8,1.61h-.25a11.37,11.37,0,0,0-3.27.53,36,36,0,0,0-.53-7.06,37.91,37.91,0,0,0-10.42-19.9c.84-16.52-8.37-32.73-14.7-34a6.67,6.67,0,0,0-1.3-.12c-5.94,0-14.85,7.53-19.39,12.59a44.53,44.53,0,0,0-4.11,5.33h-.63a69.92,69.92,0,0,0-12.06,1.11A79.14,79.14,0,0,0,252,113.48a44.76,44.76,0,0,0-5.5-3.47c-5.36-2.87-13.28-5.77-18.87-5.77a9.13,9.13,0,0,0-4.84,1.12c-5.52,3.35-8.63,21.73-2.2,37a37.91,37.91,0,0,0-3,22.27,36.08,36.08,0,0,0,2,7.11h-.51a11.07,11.07,0,0,0-3.4.53l.29-1.77a5,5,0,0,0-4.13-5.77,4.07,4.07,0,0,0-.66-.05c-2.44,0-3.52,2-4,3.17a4.79,4.79,0,0,0-3.23.09,3.83,3.83,0,0,0-2.57,3.77,4.73,4.73,0,0,0-1.83,1c-1.49,1.29-2.32,3.7-.06,6.51a2.41,2.41,0,0,1,.41.7,5.59,5.59,0,0,0,1,1.57l.7.82c1.15,1.36,2.15,2.52,2.71,3.1l.78.79,1.26,1.27A13.28,13.28,0,0,0,208,190.5c.14.19.29.37.44.55s.41.65.64,1a14.7,14.7,0,0,0,5.66,4.88,27.78,27.78,0,0,0,16.45,20.82,31.54,31.54,0,0,0,12.44,2.62,30,30,0,0,0,4.9-.41,90.83,90.83,0,0,0-3.16,12.23c-1-.38-2.3-.8-3.78-1.22-.31-.28-.51-.45-.56-.49a4.23,4.23,0,0,0-4.16-.64,74,74,0,0,0-7.79-1.13,3.7,3.7,0,0,0-1.32-.56,4.26,4.26,0,0,0-2.57.3c-1.35-.06-2.66-.09-4-.09-1,0-1.92,0-2.87,0h-.22a4.22,4.22,0,0,0-4.24.16l-.25.17a60.55,60.55,0,0,0-7.53,1.31,4.23,4.23,0,0,0-.82-.08,4.13,4.13,0,0,0-1.75.39,4,4,0,0,0-1,.7c-9.45,2.93-14.72,7.21-15.3,7.7a3.44,3.44,0,0,0-.89,1.15c-3.18,2.51-5.09,5.26-5.68,8.19-1.34,6.69,4.1,13.77,14.28,18.74a4.25,4.25,0,0,0,6.28,2.56,53.44,53.44,0,0,0,10.11,2.29,4.2,4.2,0,0,0,.54.54,4.26,4.26,0,0,0,5.61-.17c1.24,0,2.44-.06,3.59-.17a64.76,64.76,0,0,0,7.61-1.16,4.12,4.12,0,0,0,.9.56,4.26,4.26,0,0,0,5.63-2.12l.08-.18a68.85,68.85,0,0,0,6.88-2.6l.33.19a4.29,4.29,0,0,0,2,.48,4.24,4.24,0,0,0,3.78-2.3,15.74,15.74,0,0,0,.74-1.77,48.39,48.39,0,0,0,4,12.41c3.31,6.61,5.24,8.84,7.65,8.84a3.31,3.31,0,0,0,2.39-1c1-1,1.41-2.68,1.33-5.47-.06-1.93-.16-5.46-.28-9a59.08,59.08,0,0,0,7.61,1c2.29.18,4.57.27,6.78.27a66.92,66.92,0,0,0,19.63-2.73c-.11,3.39-.21,6.68-.26,8.52-.08,2.79.32,4.42,1.33,5.47a3.31,3.31,0,0,0,2.39,1c2.42,0,4.35-2.23,7.65-8.84,2.94-5.88,4.2-12.7,4.74-17.5,3.58-9.31.46-27.75-2.83-37.45-1.35-4-2.7-7.71-4-11.14q1.09.07,2.17.07a30.59,30.59,0,0,0,20.23-7.5A27.79,27.79,0,0,0,339,175.19a14.71,14.71,0,0,0,4-6.33c.13-.36.24-.73.34-1.1.1-.22.18-.44.26-.66a13.28,13.28,0,0,0,.71-3.42l1.15-2.18.2-.38c.38-.72,1-2.13,1.69-3.76l.43-1a5.58,5.58,0,0,0,.45-1.78,2.41,2.41,0,0,1,.19-.79C349.76,150.46,348.27,148.4,346.42,147.58Zm-.51,5.21c-.51,1.29-.24,1.67-.6,2.48s-1.55,3.66-2,4.58l-1.62,3.08a11.23,11.23,0,0,1-.6,3.25c-.08.24-.18.47-.29.69a9.34,9.34,0,0,1-.31,1.07c-.83,2.32-2.18,4.83-4.35,6,.57,3.13,1.93,15.16-8.44,23.92a28,28,0,0,1-18.47,6.86,31.57,31.57,0,0,1-4.89-.39,38,38,0,0,0-3.57-5.94.68.68,0,0,0-1.09.82,35.33,35.33,0,0,1,3.94,6.9l.07.16c.09.23.17.46.25.69,0,0,0,.06.07.09,1.65,4.14,3.2,8.41,4.53,12.34,3.58,10.55,6,28.13,2.74,35.91-.49,4.57-1.66,11.25-4.51,17-2.64,5.28-4.29,7.34-5.22,7.34a.56.56,0,0,1-.24-.06l0,0a.72.72,0,0,1-.15-.13,1,1,0,0,1-.1-.13l-.07-.12a2.12,2.12,0,0,1-.13-.33v0a9.49,9.49,0,0,1-.24-2.86c.07-2.3.21-6.86.34-11h0a24.25,24.25,0,0,0,5.67-3.56.68.68,0,1,0-.91-1,23.47,23.47,0,0,1-5.37,3.35,60.41,60.41,0,0,1-21.83,3.67q-3.16,0-6.57-.26a48.57,48.57,0,0,1-10.65-1.87v.29a17.8,17.8,0,0,1-4.62-2.87.68.68,0,1,0-.92,1,18.18,18.18,0,0,0,5.58,3.35c.13,4.13.27,8.6.34,10.86s-.21,3.68-1,3.68a.9.9,0,0,1-.37-.1l0,0a2.19,2.19,0,0,1-.39-.26l-.09-.08a5.14,5.14,0,0,1-.4-.4l-.15-.17c-.13-.15-.26-.32-.4-.51l-.21-.28c-.13-.18-.26-.38-.4-.59l-.29-.44-.38-.62-.39-.66-.28-.5c-.45-.8-.92-1.68-1.44-2.72-.27-.54-.52-1.1-.76-1.66l-.08-.18c-.23-.54-.44-1.09-.65-1.64l-.11-.29c-.2-.56-.39-1.12-.57-1.68l-.09-.26c-.18-.57-.34-1.14-.49-1.71l-.06-.22q-.23-.87-.43-1.72l0-.18q-.2-.88-.37-1.73l0-.1c-.3-1.54-.53-3-.7-4.34h0l0,0c-1.27.85-2.69,1.73-4.25,2.62v0a16.35,16.35,0,0,1-.92,2.41,1.54,1.54,0,0,1-2.07.66A1.5,1.5,0,0,1,243,263v0a65.72,65.72,0,0,1-9.73,3.74v0c-.27.72-.46,1.17-.49,1.24a1.54,1.54,0,0,1-2,.77,1.51,1.51,0,0,1-.84-1.11v0a65.58,65.58,0,0,1-6.65,1.24h-.08q-1.13.15-2.3.26c-1.17.11-2.35.16-3.54.16H216.2l0,0c-.23.33-.39.53-.42.57a1.54,1.54,0,0,1-2.16.21,1.52,1.52,0,0,1-.53-1v0a50.1,50.1,0,0,1-12.43-2.83h0c-.33.35-.54.53-.58.57a1.53,1.53,0,0,1-2.4-1.78h0c-5.67-2.52-10.29-5.94-12.69-9.61l-.19-.31c-.15-.24-.28-.47-.41-.71s-.16-.33-.24-.49-.16-.35-.24-.53-.15-.39-.22-.59-.09-.28-.13-.42-.12-.45-.17-.68,0-.2-.05-.31c0-.26-.08-.52-.1-.78,0,0,0-.07,0-.1a7.55,7.55,0,0,1,.11-1.94c.53-2.65,2.54-5,5.39-7.12a.76.76,0,0,1,.26-.67c.31-.26,5.61-4.6,15.1-7.4a1.49,1.49,0,0,1,.64-.6,1.43,1.43,0,0,1,.6-.13,1.61,1.61,0,0,1,.73.18,57.62,57.62,0,0,1,8.85-1.52,1.51,1.51,0,0,1,.47-.48,1.48,1.48,0,0,1,.8-.23,1.56,1.56,0,0,1,1.18.55c.38,0,.74-.06,1.12-.07q1.43,0,2.78,0c1.63,0,3.19,0,4.69.13a1.54,1.54,0,0,1,1.05-.42l.3,0a2.36,2.36,0,0,1,.83.53,70.64,70.64,0,0,1,9.25,1.36,1.56,1.56,0,0,1,1.07-.44,1.48,1.48,0,0,1,.93.33c.05,0,.39.32.89.81a44.56,44.56,0,0,1,6.43,2.21v.11c0,.47.08,1,.12,1.56.3,3.67.85,9.09,1.74,14.14a.68.68,0,0,0,.67.56h.12a.68.68,0,0,0,.55-.79,174.89,174.89,0,0,1-2-17.43v0A86.77,86.77,0,0,1,251.39,220h0l.12-.32c2.67-7.39,5.08-9.91,5.1-9.93a.68.68,0,0,0-1-1c-.09.09-2,2.08-4.37,7.7a27.8,27.8,0,0,1-7.64,1.1,28.7,28.7,0,0,1-11.37-2.4c-12.5-5.34-14.72-17.25-15.09-20.39-2.4-.45-4.43-2.46-5.91-4.43h0a9.35,9.35,0,0,1-.6-.91v0c-.17-.18-.32-.37-.47-.57a9.62,9.62,0,0,1-.8-1.29l-.1-.2a13.18,13.18,0,0,1-.59-1.37l0-.07h0l-2.45-2.47c-.74-.74-2.71-3.12-3.29-3.79a2.55,2.55,0,0,1-.18-.23c-.32-.47-.35-.87-.83-1.57-.08-.12-.18-.25-.29-.39s-.2-.26-.29-.39c-.62-.92-.72-1.72.05-2.39a1.91,1.91,0,0,1,.26-.16l.16-.1a2,2,0,0,1,.57-.19l.17,0c.07,0,.13,0,.2,0a2.12,2.12,0,0,1,1.6.73l.13.15c-.1-.67-.07-1.48-.23-2.21-.23-1-.38-2,.7-2.43a2,2,0,0,1,.29-.05l.24,0a2.2,2.2,0,0,1,.23,0,2.08,2.08,0,0,1,.8.18l.18.08a1.91,1.91,0,0,1,.6.46l.1.13a2.08,2.08,0,0,1,.28.49c0,.06.22.58.5,1.35h0l.14-.83a7.76,7.76,0,0,1,1.07-2.5c.36-.82.74-2.28,1.82-2.28l.21,0a2.3,2.3,0,0,1,1.89,2.64l-.65,3.92-.46,2.75a21.53,21.53,0,0,0-2,4.17.68.68,0,0,0,.42.87.69.69,0,0,0,.22,0,.68.68,0,0,0,.64-.46,21.43,21.43,0,0,1,2.67-5.07l0-.06a18.43,18.43,0,0,1,1.94-1.16,7.38,7.38,0,0,1,3-.58,4.47,4.47,0,0,1,1.11.12,14,14,0,0,0,2.33.79,2.34,2.34,0,0,1,1.91.85,2.06,2.06,0,0,1,.27.93h0l.68-.12h0a35.18,35.18,0,0,1-2.91-5.42c-.14-.32-.28-.64-.41-1s-.17-.46-.26-.69c-.16-.44-.31-.88-.46-1.32l-.15-.47c-.18-.6-.35-1.21-.5-1.82v0c-.17-.7-.33-1.4-.45-2.12-.06-.35-.09-.7-.14-1.06s-.12-.84-.17-1.26-.08-.9-.11-1.36,0-.74-.05-1.1,0-.91,0-1.37,0-.75,0-1.12q0-1.12.17-2.23c0-.41.08-.82.14-1.23s.14-.85.22-1.27.15-.78.23-1.17.18-.82.29-1.23.23-.86.36-1.28.22-.78.35-1.17q.34-1,.74-2c.14-.37.3-.73.46-1.09s.35-.81.54-1.21c.09-.2.17-.4.26-.59l0,0,.11-.19.25-.42a44.28,44.28,0,0,1,7.3-9,.68.68,0,0,0-.9-1,42.49,42.49,0,0,0-5.45,6.19c-.61.84-1.24,1.76-1.85,2.74l-.11.18c-5.73-14.14-2.67-30.68,1.31-33.09a6.7,6.7,0,0,1,3.43-.73c4.67,0,11.94,2.43,17.58,5.44a40,40,0,0,1,6.3,4.14,74,74,0,0,1,13.17-3.5A66.8,66.8,0,0,1,276.29,112q1.09,0,2.13,0a39.64,39.64,0,0,1,4.64-6.27c5.24-5.84,13.08-11.68,17.36-11.68a3.93,3.93,0,0,1,.77.07c4.59.92,13.19,15.58,12.53,30.91l-.15-.12c-.9-.71-1.8-1.34-2.66-1.9a38.86,38.86,0,0,0-6.1-3.27.68.68,0,0,0-.5,1.26,37.6,37.6,0,0,1,11,7.28l0,0,.23.23h0a37.54,37.54,0,0,1,3.35,4.32l.15.23q.68,1,1.29,2.13l.1.17a34.13,34.13,0,0,1,2.2,4.87l.12.34q.39,1.12.7,2.27l.09.31c.23.87.42,1.75.58,2.65s.3,1.94.38,2.91v.06a34.21,34.21,0,0,1-.39,8.69h0a4.33,4.33,0,0,1,1.08-.61,14,14,0,0,0,2-1.44,7.58,7.58,0,0,1,3.39-.81,3.67,3.67,0,0,1,.66.05,15,15,0,0,1,3.43,1l0,0a35.36,35.36,0,0,1,4.51,4.17.68.68,0,0,0,1.22-.61c-.47-.93-3.72-3.68-5.42-5.07h0l-.78-1.57-1.77-3.56a2.29,2.29,0,0,1,1-3.07,1.16,1.16,0,0,1,.52-.13c.88,0,1.56,1.09,2.09,1.69a10.84,10.84,0,0,1,1.55,1.69c.07.12.14.24.21.39l.38.76h0c0-.81.08-1.37.09-1.43a2.1,2.1,0,0,1,2.1-2h.15a1.23,1.23,0,0,1,.93.45,3.16,3.16,0,0,1,.45,1.67c0,.16.06.31.08.47s0,.26.07.39c.1.46.21.9.27,1.31v0l.07-.16a2.12,2.12,0,0,1,1.93-1.26,2,2,0,0,1,.85.19,1.6,1.6,0,0,1,.62.46C346.36,151.06,346.29,151.84,345.9,152.8Z"/></g></svg>