<svg xmlns="http://www.w3.org/2000/svg" width="295" height="238">
  <defs>
    <linearGradient id="a" x1="-678.179817%" x2="218.03211%" y1="-1879.5122%" y2="503.09878%">
      <stop stop-color="#FFFBCC" offset="0%"/>
      <stop stop-color="#FFC9D5" offset="100%"/>
    </linearGradient>
    <linearGradient id="b" x1="-2438.15968%" x2="713.035484%" y1="-2346.83281%" y2="705.8875%">
      <stop stop-color="#FFFBCC" offset="0%"/>
      <stop stop-color="#FFC9D5" offset="100%"/>
    </linearGradient>
    <linearGradient id="c" x1="-1876.47349%" x2="477.431325%" y1="-2215.7169%" y2="536.030986%">
      <stop stop-color="#FFFBCC" offset="0%"/>
      <stop stop-color="#FFC9D5" offset="100%"/>
    </linearGradient>
    <linearGradient id="d" x1="-300.502319%" x2="326.878731%" y1="-277.869139%" y2="301.876261%">
      <stop stop-color="#FFFBCC" offset="0%"/>
      <stop stop-color="#FFC9D5" offset="100%"/>
    </linearGradient>
    <linearGradient id="e" x1="-556.386842%" x2="471.897895%" y1="-1050.94952%" y2="809.757143%">
      <stop stop-color="#FFFBCC" offset="0%"/>
      <stop stop-color="#FFC9D5" offset="100%"/>
    </linearGradient>
    <linearGradient id="f" x1="-2301.11875%" x2="1769.175%" y1="-4460.38%" y2="3354.584%">
      <stop stop-color="#FFFBCC" offset="0%"/>
      <stop stop-color="#FFC9D5" offset="100%"/>
    </linearGradient>
    <linearGradient id="g" x1="-14090.38%" x2="5447.03%" y1="-14085.94%" y2="5451.47%">
      <stop stop-color="#FFFBCC" offset="0%"/>
      <stop stop-color="#FFC9D5" offset="100%"/>
    </linearGradient>
    <linearGradient id="h" x1="-1245.88053%" x2="483.093805%" y1="-2962.82857%" y2="1024.39796%">
      <stop stop-color="#FFFBCC" offset="0%"/>
      <stop stop-color="#FFC9D5" offset="100%"/>
    </linearGradient>
    <linearGradient id="i" x1="-4762.32308%" x2="1072.27051%" y1="-2525.31233%" y2="591.799315%">
      <stop stop-color="#FFFBCC" offset="0%"/>
      <stop stop-color="#FFC9D5" offset="100%"/>
    </linearGradient>
    <linearGradient id="j" x1="-419.785061%" x2="175.867683%" y1="-263.047589%" y2="146.541719%">
      <stop stop-color="#FFFBCC" offset="0%"/>
      <stop stop-color="#FFC9D5" offset="100%"/>
    </linearGradient>
    <linearGradient id="k" x1="-13945.16%" x2="5592.25%" y1="-13931.16%" y2="5606.26%">
      <stop stop-color="#FFFBCC" offset="0%"/>
      <stop stop-color="#FFC9D5" offset="100%"/>
    </linearGradient>
    <linearGradient id="l" x1="-93.8791876%" x2="171.036409%" y1="-368.29%" y2="383.149231%">
      <stop stop-color="#FFFBCC" offset="0%"/>
      <stop stop-color="#FFC9D5" offset="100%"/>
    </linearGradient>
    <linearGradient id="m" x1="-105.119971%" x2="175.589943%" y1="-106.702736%" y2="160.566895%">
      <stop stop-color="#FFFBCC" offset="0%"/>
      <stop stop-color="#FFC9D5" offset="100%"/>
    </linearGradient>
    <linearGradient id="n" x1="-4526.45652%" x2="3968.06957%" y1="-3864.98889%" y2="3371.08889%">
      <stop stop-color="#FFFBCC" offset="0%"/>
      <stop stop-color="#FFC9D5" offset="100%"/>
    </linearGradient>
    <linearGradient id="o" x1="-1590.58053%" x2="2387.43252%" y1="-835.835705%" y2="1325.72397%">
      <stop stop-color="#FFFBCC" offset="0%"/>
      <stop stop-color="#FFC9D5" offset="100%"/>
    </linearGradient>
    <linearGradient id="p" x1="-1174.27536%" x2="1657.23333%" y1="-1275.87873%" y2="1781.26242%">
      <stop stop-color="#FFFBCC" offset="0%"/>
      <stop stop-color="#FFC9D5" offset="100%"/>
    </linearGradient>
    <linearGradient id="q" x1="-8557.56%" x2="10979.85%" y1="-4234.38%" y2="5534.325%">
      <stop stop-color="#FFFBCC" offset="0%"/>
      <stop stop-color="#FFC9D5" offset="100%"/>
    </linearGradient>
    <linearGradient id="r" x1="-949.737079%" x2="1245.47865%" y1="-1023.81277%" y2="1336.75514%">
      <stop stop-color="#FFFBCC" offset="0%"/>
      <stop stop-color="#FFC9D5" offset="100%"/>
    </linearGradient>
    <linearGradient id="s" x1="-850.555238%" x2="1010.15048%" y1="-759.279881%" y2="912.10717%">
      <stop stop-color="#FFFBCC" offset="0%"/>
      <stop stop-color="#FFC9D5" offset="100%"/>
    </linearGradient>
    <linearGradient id="t" x1="-2526.775%" x2="962.048214%" y1="-2513.94763%" y2="949.261152%">
      <stop stop-color="#FFFBCC" offset="0%"/>
      <stop stop-color="#FFC9D5" offset="100%"/>
    </linearGradient>
    <linearGradient id="u" x1="-953.117868%" x2="406.88755%" y1="-1083.71008%" y2="471.112383%">
      <stop stop-color="#FFFBCC" offset="0%"/>
      <stop stop-color="#FFC9D5" offset="100%"/>
    </linearGradient>
    <linearGradient id="v" x1="-1736.94827%" x2="671.463404%" y1="-2238.58822%" y2="855.656147%">
      <stop stop-color="#FFFBCC" offset="0%"/>
      <stop stop-color="#FFC9D5" offset="100%"/>
    </linearGradient>
    <linearGradient id="w" x1="-9592.54%" x2="9944.87%" y1="-9613.77%" y2="9923.64%">
      <stop stop-color="#FFFBCC" offset="0%"/>
      <stop stop-color="#FFC9D5" offset="100%"/>
    </linearGradient>
    <linearGradient id="x" x1="-546.9251%" x2="669.232184%" y1="-637.97868%" y2="716.339388%">
      <stop stop-color="#FFFBCC" offset="0%"/>
      <stop stop-color="#FFC9D5" offset="100%"/>
    </linearGradient>
    <linearGradient id="y" x1="-2626.25%" x2="2515.17368%" y1="-10166.57%" y2="9370.85%">
      <stop stop-color="#FFFBCC" offset="0%"/>
      <stop stop-color="#FFC9D5" offset="100%"/>
    </linearGradient>
    <linearGradient id="z" x1="-26076.58%" x2="9092.02%" y1="-26064.58%" y2="9104.02%">
      <stop stop-color="#FFE900" offset="18.75%"/>
      <stop stop-color="#FF0039" offset="100%"/>
    </linearGradient>
    <linearGradient id="A" x1="-11996.8348%" x2="3293.86087%" y1="-4084.84179%" y2="1164.20299%">
      <stop stop-color="#FFE900" offset="18.75%"/>
      <stop stop-color="#FF0039" offset="100%"/>
    </linearGradient>
    <linearGradient id="B" x1="-1988.44219%" x2="759.104687%" y1="-1576.81875%" y2="621.219375%">
      <stop stop-color="#FFE900" offset="18.75%"/>
      <stop stop-color="#FF0039" offset="100%"/>
    </linearGradient>
    <linearGradient id="C" x1="-4889.30185%" x2="1623.40185%" y1="-2351.25495%" y2="817.087387%">
      <stop stop-color="#FFE900" offset="18.75%"/>
      <stop stop-color="#FF0039" offset="100%"/>
    </linearGradient>
    <linearGradient id="D" x1="-2655.5559%" x2="951.48%" y1="-6714.61282%" y2="2302.97692%">
      <stop stop-color="#FFE900" offset="18.75%"/>
      <stop stop-color="#FF0039" offset="100%"/>
    </linearGradient>
    <linearGradient id="E" x1="-11418.996%" x2="2648.448%" y1="-28603.67%" y2="6564.93%">
      <stop stop-color="#FFE900" offset="18.75%"/>
      <stop stop-color="#FF0039" offset="100%"/>
    </linearGradient>
    <linearGradient id="F" x1="-1067.54883%" x2="792.163033%" y1="-899.682353%" y2="691.657014%">
      <stop stop-color="#FFE900" offset="18.75%"/>
      <stop stop-color="#FF0039" offset="100%"/>
    </linearGradient>
    <linearGradient id="G" x1="-3245.82558%" x2="2272.05861%" y1="-2753.32267%" y2="1935.824%">
      <stop stop-color="#FFE900" offset="18.75%"/>
      <stop stop-color="#FF0039" offset="100%"/>
    </linearGradient>
    <linearGradient id="H" x1="-835.133806%" x2="827.684161%" y1="-835.133806%" y2="827.684161%">
      <stop stop-color="#FFE900" offset="18.75%"/>
      <stop stop-color="#FF0039" offset="100%"/>
    </linearGradient>
    <linearGradient id="I" x1="-4541.82131%" x2="1223.52295%" y1="-2322.54576%" y2="657.84322%">
      <stop stop-color="#FFE900" offset="18.75%"/>
      <stop stop-color="#FF0039" offset="100%"/>
    </linearGradient>
    <linearGradient id="J" x1="-2057.47051%" x2="889.742903%" y1="-1738.77914%" y2="791.335971%">
      <stop stop-color="#FFE900" offset="18.75%"/>
      <stop stop-color="#FF0039" offset="100%"/>
    </linearGradient>
    <linearGradient id="K" x1="-1278.62667%" x2="1189.34526%" y1="-1278.9986%" y2="1188.97333%">
      <stop stop-color="#FFE900" offset="18.75%"/>
      <stop stop-color="#FF0039" offset="100%"/>
    </linearGradient>
    <linearGradient id="L" x1="-6112.0075%" x2="2680.1425%" y1="-6270.03333%" y2="2747.55641%">
      <stop stop-color="#FFE900" offset="18.75%"/>
      <stop stop-color="#FF0039" offset="100%"/>
    </linearGradient>
    <linearGradient id="M" x1="-1115.93023%" x2="572.391158%" y1="-1175.6355%" y2="582.7945%">
      <stop stop-color="#FFE900" offset="18.75%"/>
      <stop stop-color="#FF0039" offset="100%"/>
    </linearGradient>
    <linearGradient id="N" x1="-9656.07586%" x2="2471.02759%" y1="-9322.84667%" y2="2400.02%">
      <stop stop-color="#FFE900" offset="18.75%"/>
      <stop stop-color="#FF0039" offset="100%"/>
    </linearGradient>
    <linearGradient id="O" x1="-7887.73698%" x2="3321.17237%" y1="-6188.2325%" y2="2603.9175%">
      <stop stop-color="#FFE900" offset="18.75%"/>
      <stop stop-color="#FF0039" offset="100%"/>
    </linearGradient>
    <linearGradient id="P" x1="-984.783738%" x2="288.77261%" y1="-1902.68288%" y2="506.125342%">
      <stop stop-color="#FFE900" offset="18.75%"/>
      <stop stop-color="#FF0039" offset="100%"/>
    </linearGradient>
    <linearGradient id="Q" x1="-2522.67732%" x2="1102.95155%" y1="-5039.01837%" y2="2138.24694%">
      <stop stop-color="#FFE900" offset="18.75%"/>
      <stop stop-color="#FF0039" offset="100%"/>
    </linearGradient>
    <linearGradient id="R" x1="-5921.7225%" x2="2870.4275%" y1="-6075.45385%" y2="2942.1359%">
      <stop stop-color="#FFE900" offset="18.75%"/>
      <stop stop-color="#FF0039" offset="100%"/>
    </linearGradient>
    <linearGradient id="S" x1="-5881.53%" x2="2910.62%" y1="-5881.26%" y2="2910.89%">
      <stop stop-color="#FFE900" offset="18.75%"/>
      <stop stop-color="#FF0039" offset="100%"/>
    </linearGradient>
    <linearGradient id="T" x1="-5841.3375%" x2="2950.8125%" y1="-5841.4525%" y2="2950.6975%">
      <stop stop-color="#FFE900" offset="18.75%"/>
      <stop stop-color="#FF0039" offset="100%"/>
    </linearGradient>
    <linearGradient id="U" x1="-7423.23691%" x2="3785.67244%" y1="-5801.6425%" y2="2990.5075%">
      <stop stop-color="#FFE900" offset="18.75%"/>
      <stop stop-color="#FF0039" offset="100%"/>
    </linearGradient>
    <linearGradient id="V" x1="-4020.34%" x2="1003.74571%" y1="-2527.16182%" y2="669.983636%">
      <stop stop-color="#FFE900" offset="18.75%"/>
      <stop stop-color="#FF0039" offset="100%"/>
    </linearGradient>
    <linearGradient id="W" x1="-4517.96032%" x2="1064.35714%" y1="-5480.38654%" y2="1282.80577%">
      <stop stop-color="#FFE900" offset="18.75%"/>
      <stop stop-color="#FF0039" offset="100%"/>
    </linearGradient>
    <linearGradient id="X" x1="-3834.66828%" x2="2163.11753%" y1="-3992.49299%" y2="2248.99581%">
      <stop stop-color="#FFE900" offset="18.75%"/>
      <stop stop-color="#FF0039" offset="100%"/>
    </linearGradient>
    <linearGradient id="Y" x1="-132.800878%" x2="141.123835%" y1="-126.933901%" y2="145.268963%">
      <stop stop-color="#FFE900" offset="18.75%"/>
      <stop stop-color="#FF0039" offset="100%"/>
    </linearGradient>
    <linearGradient id="Z" x1="-8624.4%" x2="10913.01%" y1="-4751.06111%" y2="6103.05556%">
      <stop stop-color="#FFFBCC" offset="0%"/>
      <stop stop-color="#FFC9D5" offset="100%"/>
    </linearGradient>
    <linearGradient id="aa" x1="-20576.83%" x2="14591.77%" y1="-11391.2944%" y2="8146.81667%">
      <stop stop-color="#FFE900" offset="18.75%"/>
      <stop stop-color="#FF0039" offset="100%"/>
    </linearGradient>
    <linearGradient id="ab" x1="-3210.85073%" x2="1716.38147%" y1="-3721.57455%" y2="1963.19067%">
      <stop stop-color="#FFE900" offset="18.75%"/>
      <stop stop-color="#FF0039" offset="100%"/>
    </linearGradient>
    <linearGradient id="ac" x1="-964.539164%" x2="305.324758%" y1="-1877.16986%" y2="531.638356%">
      <stop stop-color="#FFE900" offset="18.75%"/>
      <stop stop-color="#FF0039" offset="100%"/>
    </linearGradient>
    <linearGradient id="ad" x1="-5971.9075%" x2="2820.24%" y1="-7463.6%" y2="3526.5875%">
      <stop stop-color="#FFE900" offset="18.75%"/>
      <stop stop-color="#FF0039" offset="100%"/>
    </linearGradient>
    <linearGradient id="ae" x1="-3626.20024%" x2="2128.73795%" y1="-3780.54791%" y2="2217.23789%">
      <stop stop-color="#FFE900" offset="18.75%"/>
      <stop stop-color="#FF0039" offset="100%"/>
    </linearGradient>
    <linearGradient id="af" x1="-3545.17742%" x2="2127.17742%" y1="-3793.28448%" y2="2270.26724%">
      <stop stop-color="#FFE900" offset="18.75%"/>
      <stop stop-color="#FF0039" offset="100%"/>
    </linearGradient>
    <linearGradient id="ag" x1="-8571.16538%" x2="4955.21923%" y1="-4812.20217%" y2="2833.14565%">
      <stop stop-color="#FFE900" offset="18.75%"/>
      <stop stop-color="#FF0039" offset="100%"/>
    </linearGradient>
    <linearGradient id="ah" x1="-921.592388%" x2="295.314187%" y1="-948.070803%" y2="335.454745%">
      <stop stop-color="#FFE900" offset="18.75%"/>
      <stop stop-color="#FF0039" offset="100%"/>
    </linearGradient>
    <linearGradient id="ai" x1="-1521.4596%" x2="706.721231%" y1="-1247.46875%" y2="591.922626%">
      <stop stop-color="#FFE900" offset="18.75%"/>
      <stop stop-color="#FF0039" offset="100%"/>
    </linearGradient>
    <linearGradient id="aj" x1="-678.258824%" x2="423.307164%" y1="-682.475952%" y2="429.068947%">
      <stop stop-color="#FFE900" offset="18.75%"/>
      <stop stop-color="#FF0039" offset="100%"/>
    </linearGradient>
    <linearGradient id="ak" x1="-6036.96%" x2="2755.19%" y1="-6038.3275%" y2="2753.82%">
      <stop stop-color="#FFE900" offset="18.75%"/>
      <stop stop-color="#FF0039" offset="100%"/>
    </linearGradient>
    <linearGradient id="al" x1="-876.033667%" x2="359.821607%" y1="-805.490909%" y2="336.346753%">
      <stop stop-color="#FFE900" offset="18.75%"/>
      <stop stop-color="#FF0039" offset="100%"/>
    </linearGradient>
    <linearGradient id="am" x1="-6523.57663%" x2="4813.74946%" y1="-5038.58141%" y2="3749.13318%">
      <stop stop-color="#FFE900" offset="18.75%"/>
      <stop stop-color="#FF0039" offset="100%"/>
    </linearGradient>
    <linearGradient id="an" x1="-2645.94937%" x2="963.166315%" y1="-6683.46667%" y2="2334.12564%">
      <stop stop-color="#FFE900" offset="18.75%"/>
      <stop stop-color="#FF0039" offset="100%"/>
    </linearGradient>
    <linearGradient id="ao" x1="-6631.98345%" x2="4705.34265%" y1="-5121.96932%" y2="3665.74527%">
      <stop stop-color="#FFE900" offset="18.75%"/>
      <stop stop-color="#FF0039" offset="100%"/>
    </linearGradient>
    <linearGradient id="ap" x1="-1435.66843%" x2="1068.42563%" y1="-2846.04456%" y2="2010.54343%">
      <stop stop-color="#FFE900" offset="18.75%"/>
      <stop stop-color="#FF0039" offset="100%"/>
    </linearGradient>
    <linearGradient id="aq" x1="-2633.78646%" x2="975.329221%" y1="-6654.88205%" y2="2362.70769%">
      <stop stop-color="#FFE900" offset="18.75%"/>
      <stop stop-color="#FF0039" offset="100%"/>
    </linearGradient>
    <linearGradient id="ar" x1="-2206.3925%" x2="2189.6825%" y1="-2444.83034%" y2="2406.01103%">
      <stop stop-color="#FFE900" offset="18.75%"/>
      <stop stop-color="#FF0039" offset="100%"/>
    </linearGradient>
    <linearGradient id="as" x1="-5385.00363%" x2="1874.66412%" y1="-10484.884%" y2="3582.556%">
      <stop stop-color="#FFE900" offset="18.75%"/>
      <stop stop-color="#FF0039" offset="100%"/>
    </linearGradient>
    <linearGradient id="at" x1="-2391.91311%" x2="1397.1783%" y1="-5593.4125%" y2="3198.7375%">
      <stop stop-color="#FFE900" offset="18.75%"/>
      <stop stop-color="#FF0039" offset="100%"/>
    </linearGradient>
    <linearGradient id="au" x1="-2264.71662%" x2="1521.15732%" y1="-5306.3925%" y2="3485.7575%">
      <stop stop-color="#FFE900" offset="18.75%"/>
      <stop stop-color="#FF0039" offset="100%"/>
    </linearGradient>
    <linearGradient id="av" x1="-8124.26538%" x2="5402.11923%" y1="-4560.45%" y2="3084.89783%">
      <stop stop-color="#FFE900" offset="18.75%"/>
      <stop stop-color="#FF0039" offset="100%"/>
    </linearGradient>
    <linearGradient id="aw" x1="-651.882139%" x2="479.56521%" y1="-1403.71323%" y2="934.962067%">
      <stop stop-color="#FFE900" offset="18.75%"/>
      <stop stop-color="#FF0039" offset="100%"/>
    </linearGradient>
    <linearGradient id="ax" x1="-782.651586%" x2="579.099454%" y1="-1688.18577%" y2="1133.37245%">
      <stop stop-color="#FFE900" offset="18.75%"/>
      <stop stop-color="#FF0039" offset="100%"/>
    </linearGradient>
    <linearGradient id="ay" x1="-2808.00445%" x2="930.963547%" y1="-4874.39455%" y2="1519.89636%">
      <stop stop-color="#FFE900" offset="18.75%"/>
      <stop stop-color="#FF0039" offset="100%"/>
    </linearGradient>
    <linearGradient id="az" x1="-3080.27111%" x2="827.351111%" y1="-4651.45333%" y2="1209.98%">
      <stop stop-color="#FFE900" offset="18.75%"/>
      <stop stop-color="#FF0039" offset="100%"/>
    </linearGradient>
    <linearGradient id="aA" x1="-17842.03%" x2="17326.57%" y1="-17824.13%" y2="17344.47%">
      <stop stop-color="#FFE900" offset="18.75%"/>
      <stop stop-color="#FF0039" offset="100%"/>
    </linearGradient>
    <linearGradient id="aB" x1="-4927.80617%" x2="7466.4141%" y1="-2177.67416%" y2="3371.61183%">
      <stop stop-color="#FFE900" offset="18.75%"/>
      <stop stop-color="#FF0039" offset="100%"/>
    </linearGradient>
    <linearGradient id="aC" x1="-20583.89%" x2="14584.71%" y1="-5842.07714%" y2="4206.09429%">
      <stop stop-color="#FFE900" offset="18.75%"/>
      <stop stop-color="#FF0039" offset="100%"/>
    </linearGradient>
    <linearGradient id="aD" x1="-13953.96%" x2="21214.64%" y1="-2172.57143%" y2="3409.74603%">
      <stop stop-color="#FFE900" offset="18.75%"/>
      <stop stop-color="#FF0039" offset="100%"/>
    </linearGradient>
    <linearGradient id="aE" x1="-13796.3%" x2="21372.3%" y1="-1986.00882%" y2="3185.84412%">
      <stop stop-color="#FFE900" offset="18.75%"/>
      <stop stop-color="#FF0039" offset="100%"/>
    </linearGradient>
    <linearGradient id="aF" x1="-13888.17%" x2="21280.43%" y1="-2353.96379%" y2="3709.58793%">
      <stop stop-color="#FFE900" offset="18.75%"/>
      <stop stop-color="#FF0039" offset="100%"/>
    </linearGradient>
    <linearGradient id="aG" x1="-9372.00909%" x2="6613.71818%" y1="-2958.36812%" y2="2138.53043%">
      <stop stop-color="#FFE900" offset="18.75%"/>
      <stop stop-color="#FF0039" offset="100%"/>
    </linearGradient>
    <linearGradient id="aH" x1="-16384.5222%" x2="12067.4729%" y1="-4573.9%" y2="3418.96364%">
      <stop stop-color="#FFE900" offset="18.75%"/>
      <stop stop-color="#FF0039" offset="100%"/>
    </linearGradient>
    <linearGradient id="aI" x1="-17462.5%" x2="5983.23333%" y1="-13777.5842%" y2="4732.21053%">
      <stop stop-color="#FFE900" offset="18.75%"/>
      <stop stop-color="#FF0039" offset="100%"/>
    </linearGradient>
    <linearGradient id="aJ" x1="-7480.69%" x2="7500.95%" y1="-7483.33%" y2="7498.32%">
      <stop stop-color="#FFE900" offset="18.75%"/>
      <stop stop-color="#FF0039" offset="100%"/>
    </linearGradient>
    <linearGradient id="aK" x1="-7021.27187%" x2="3968.91562%" y1="-20520.9909%" y2="11450.4636%">
      <stop stop-color="#FFE900" offset="18.75%"/>
      <stop stop-color="#FF0039" offset="100%"/>
    </linearGradient>
    <linearGradient id="aL" x1="-9826.0913%" x2="5464.60435%" y1="-22671.15%" y2="12497.45%">
      <stop stop-color="#FFE900" offset="18.75%"/>
      <stop stop-color="#FF0039" offset="100%"/>
    </linearGradient>
    <linearGradient id="aM" x1="-2964.13075%" x2="2873.3758%" y1="-3993.57709%" y2="3854.15587%">
      <stop stop-color="#FFE900" offset="18.75%"/>
      <stop stop-color="#FF0039" offset="100%"/>
    </linearGradient>
    <linearGradient id="aN" x1="-2330.22879%" x2="2205.28384%" y1="-2914.60952%" y2="2667.70794%">
      <stop stop-color="#FFE900" offset="18.75%"/>
      <stop stop-color="#FF0039" offset="100%"/>
    </linearGradient>
    <linearGradient id="aO" x1="-1407.98283%" x2="1424.97017%" y1="-1728.51863%" y2="1719.38333%">
      <stop stop-color="#FFE900" offset="18.75%"/>
      <stop stop-color="#FF0039" offset="100%"/>
    </linearGradient>
    <linearGradient id="aP" x1="-1807.9102%" x2="1780.72245%" y1="-2740.56%" y2="2669.99385%">
      <stop stop-color="#FFE900" offset="18.75%"/>
      <stop stop-color="#FF0039" offset="100%"/>
    </linearGradient>
    <linearGradient id="aQ" x1="-1472.82%" x2="1783.415%" y1="-4365.0426%" y2="5068.41814%">
      <stop stop-color="#FFFBCC" offset="0%"/>
      <stop stop-color="#FFC9D5" offset="100%"/>
    </linearGradient>
    <linearGradient id="aR" x1="-511.087979%" x2="436.292949%" y1="-431.133333%" y2="359.905%">
      <stop stop-color="#FFE900" offset="18.75%"/>
      <stop stop-color="#FF0039" offset="100%"/>
    </linearGradient>
    <linearGradient id="aS" x1="-2336.83483%" x2="1396.15506%" y1="-7055.5%" y2="4019.03333%">
      <stop stop-color="#FFE900" offset="18.75%"/>
      <stop stop-color="#FF0039" offset="100%"/>
    </linearGradient>
  </defs>
  <g fill="none" fill-rule="evenodd">
    <path d="M149.5 168.5c-.1 0-.1.1-.2.1l-3.3 1.5c-.2.1-.3.1-.5.2.7.3 1.4.5 2.2.5 1.6 0 3.1-.7 4.2-1.9 1-1.1 1.4-2.5 1.3-4-.1-.9-.3-1.7-.7-2.4l-1.6 4.4c-.3.6-.8 1.2-1.4 1.6zM178.7 206.1c-.1-.1-.2-.3-.2-.4l-2 2.7 3.1 1.1-.8-2.6c-.1-.2-.1-.5-.1-.8zM240.6 207.9h0zM168.5 200.6h-.2c-.2.2-.5.3-.7.4l-2.5.7.2.8c1.1.7 2 1.7 2.5 2.9l1 .4 3.7-5c.9-1.2 2.2-1.9 3.7-2l-.1-.3-2.5.7c-.2.1-.4.1-.6.1h-.2c-.2.2-.5.3-.7.4l-3.1.9c-.1-.1-.3 0-.5 0zM146.9 159.8c.1.1.2.1.3.2 0-.1.1-.2.1-.3-.1 0-.2 0-.4.1zM143.3 112.9c.2-.3.4-.6.7-.8l4.4-2.8-.1-.1-4.2 2.7c-.3.2-.6.6-.8 1zM142.2 166c.3-.5.7-1 1.3-1.2h.1l.2-.1-1.9-.7c.2.4.2.8.2 1.3 0 .2.1.4.1.7zM200.9 117.6c-1.9 0-3.2 1-3.9 1.7.7-.7 2-1.7 3.9-1.7zM206.8 158.8c-.1 0-.1.1-.2.1.1 0 .1 0 .2-.1zM174.5 190.8c.2-.1.4-.1.6-.1h.2c.2-.2.5-.3.7-.4.5-.2 1-.2 1.6-.2 2.4 0 4.5 1.5 5.2 3.9.1.3.1.5.1.8.2.2.3.5.4.7l.9 3.1c.1.3.1.5.1.8.2.2.3.5.4.7l.3 1.1c.3.2.6.4.9.7-1.7-3.9-2.3-8.6-1.6-13.7-1.1.2-2.3.3-3.5.3-3.4 0-6.8-1-9.7-2.8-.7-.5-1.4-1-2.1-1.6 1.7 2.3 3.5 4.6 5.3 6.7h.2zM143.4 119.9c-1.1-.3-2-.8-2.8-1.6l-.7.5v.1l.7-.4c.8.7 1.7 1.2 2.8 1.4.4.2.9.2 1.3.2 1.4 0 2.7-.5 3.8-1.3-1.1.8-2.4 1.3-3.7 1.3-.5 0-.9-.1-1.4-.2zM198.7 120.8c.4-.4 1.2-.9 2.2-.9-1 0-1.8.5-2.2.9zM213.3 214.1c-1 0-2 0-3-.1 1.2 4.1 1.9 6.8 2.2 8.8 3.2-.1 6.5-.2 9.9-.2-.1-1.7-.1-3.8-.1-6.6l-7-2c-.6.1-1.3.1-2 .1zM275.4 138.9l.9-.3c-.1-.7.1-1.4.4-2.1-1.5 2-3.5 3.6-5.8 4.5.1 0 .1.1.2.1.2-.2.5-.3.7-.4 1.1-.7 2.4-1.3 3.6-1.8zM139.9 151.5c.5-.3 1.1-.5 1.7-.5.3 0 .7.1 1 .2.7.3 1.3.8 1.6 1.5.1.1.1.3.1.4 1-.3 2-.4 3-.4-2.2-4.2-4.8-9.7-7.4-15.2v14z"/>
    <path fill="#EDEDF0" fill-rule="nonzero" d="M227.5 226.4c.1.1.1.1.2.1 0 0-.1 0-.2-.1z"/>
    <path fill="#EDEDF0" fill-rule="nonzero" d="M228.2 231c-1.2 0-2.4-.4-3.4-1.2-1.3-1.1-2.1-2-2.4-7.2-3.4 0-6.7.1-9.9.2.6 3.3.2 4.4-.7 5.6-1 1.4-2.6 2.2-4.3 2.2-2.9 0-5.3-2.1-9.6-7-15.1 1.3-25.3 3.8-25.3 6.6 0 4.3 23.1 7.7 51.6 7.7s51.6-3.4 51.6-7.7c0-3.6-16.7-6.7-39.3-7.5-2.3 5.7-5.1 8.3-8.3 8.3z"/>
    <path fill="#D7D7DB" fill-rule="nonzero" d="M158.9 75.5h13.4c.3 0 .6-.2.6-.6 0-.3-.2-.6-.6-.6h-13.4c-.3 0-.6.2-.6.6.1.4.3.6.6.6zM155.4 85.7c0-.3-.2-.6-.6-.6h-13.4c-.3 0-.6.2-.6.6 0 .3.2.6.6.6h13.4c.3-.1.6-.3.6-.6z"/>
    <path fill="#FFF" fill-rule="nonzero" d="M134.3 114.7l.6-.4.4-.2c0-.7.1-1.3.2-2 0-.1.1-.2.1-.4-.4-.9-.8-2-1.2-3v6h-.1zM131.8 102.3c-.1-.3 0-.6.3-.7.3-.1.6 0 .7.3l.3.9V67h-13c.7 2.2 1.8 5.2 3.1 8.8.1.3 0 .6-.3.7h-.2c-.2 0-.4-.1-.5-.4-1.3-3.8-2.4-7-3.2-9.2h-3.4c1.1 3.8 3.1 10.1 5.8 18.2l-.1-.5c1.6 4.4 8.9 24.1 11.5 31l.4-.3v-9.5c-.6-1.4-1.1-2.7-1.4-3.5zM121.2 91.2c-3.9-10.9-6.6-19.6-7.9-24.2H7.1v98.7c0 .6 0 .9.1 1 .1 0 .4.1 1 .1h124c.6 0 .9 0 1-.1 0-.1.1-.4.1-1v-38.4l-1.6 1-.4.2c-.3.2-.6.4-1 .6-.6.3-1.2.4-1.9.4h-.2c-2 0-3.8-1.2-4.6-3-1-2.2-.3-4.7 1.5-6 .2-.2.5-.3.7-.5l2.3-1.4 2.7-1.7c-2.5-6.4-7-18.6-9.6-25.7zm-25.6 27.1h-7.1c-.5 2.1-1.4 4-2.6 5.8l5.1 5.1c1.2 1.6 1.2 3.6.1 5.1-.8 1.1-2 1.7-3.4 1.7-.9 0-1.8-.3-2.5-.8L80 130c-1.8 1.1-3.8 1.8-5.8 2.3v7.1c0 2.3-1.9 4.2-4.2 4.2-2.3 0-4.2-1.9-4.2-4.2V132c-2-.4-4-1.2-5.8-2.3l-4.7 5.1c-.2.3-.5.6-.8.8-.7.6-1.6.8-2.5.8-1.3 0-2.6-.6-3.4-1.7-1.4-1.9-1-4.5.8-5.9l5-4.7c-1.1-1.8-1.8-3.7-2.3-5.8H45c-2.3 0-4.2-1.9-4.2-4.2 0-2.3 1.9-4.2 4.2-4.2h7.1c.4-2.1 1.2-4 2.3-5.8l-5.1-4.7c-.9-.9-1.3-2-1.3-3.2 0-1.2.5-2.3 1.3-3.1.8-.8 2-1.3 3.1-1.3 1.2 0 2.3.5 3.1 1.3l4.7 5.1c1.8-1.1 3.7-1.8 5.8-2.3v-7.1c0-2.3 1.9-4.2 4.2-4.2 2.3 0 4.2 1.9 4.2 4.2v7.1c2.1.4 4 1.2 5.8 2.3l5.1-5.1c.8-.6 1.7-.9 2.6-.9.9 0 1.8.3 2.5.8.9.7 1.5 1.7 1.6 2.8.2 1.1-.1 2.2-.8 3.1l-5.1 5.1c1.1 1.8 1.8 3.8 2.3 5.8h7.1c2.3 0 4.2 1.9 4.2 4.2.2 2.4-1.7 4.3-4.1 4.3zm28.9-11.5c.3-.1.6.1.7.3l1.7 4.7c.1.3-.1.6-.3.7h-.2c-.2 0-.4-.1-.5-.4l-1.7-4.7c-.1-.2.1-.5.3-.6z"/>
    <path fill="#FFF" fill-rule="nonzero" d="M70.3 103.8c-5.6 0-10.2 4.6-10.2 10.2s4.6 10.2 10.2 10.2 10.2-4.6 10.2-10.2c.1-5.6-4.5-10.2-10.2-10.2zM137.7 124.4l-.9.6.9 2.1v-2.7zM135.3 121.7s0 .1 0 0l2.4-1.5v-.1l-2.4 1.6z"/>
    <path fill="#FFF" fill-rule="nonzero" d="M134.8 126.3l-.5.3v39.1c0 1.9-.3 2.2-2.2 2.2H8.1c-1.9 0-2.2-.3-2.2-2.2V65.8h107c-.2-.8-.4-1.4-.4-1.8-.1-.6.3-1.2.9-1.3.6-.1 1.2.3 1.3.9.1.4.3 1.2.6 2.2h3.4l-.8-2.4c-.1-.3.1-.6.4-.7.3-.1.6.1.7.4 0 0 .3 1 .9 2.7h14.5v39.7c.6 1.5 1.3 3.1 1.8 4.4.4-.9.9-1.6 1.6-2.3V49.7c0-2.3-1.9-4.2-4.2-4.2H6.8c-2.3 0-4.2 1.9-4.2 4.2v118c0 2 1.8 3.7 3.9 3.7h127.3c1 0 1.9-.4 2.6-.9-.8-1.6-1.2-3.4-1.3-5.3 0-1.5.9-2.7 2.2-3.3-.8-.8-1.1-2-.7-3.1l1.1-2.9v-23.4c-1-2.1-2-4.3-2.9-6.2zm-18.1-73.5c.3-.1.5 0 .6.3l1.9 5.3v.1c.1.3-.1.5-.4.6h-.1c-.2 0-.4-.1-.4-.3l-1.9-5.3c-.1-.4.1-.6.3-.7zm-1.7.4c0-.3.2-.5.5-.5s.5.2.5.5v5.3c0 .3-.2.5-.5.5s-.5-.2-.5-.5v-5.3zm-1.5.5c0-.3.2-.5.5-.5s.5.2.5.5v4.8c0 .3-.2.5-.5.5s-.5-.2-.5-.5v-4.8zm-1.4-1c0-.3.2-.5.5-.5s.5.2.5.5v5.8c0 .3-.2.5-.5.5s-.5-.2-.5-.5v-5.8zm-77.7 2.7c0-1.7 1.4-3.1 3.1-3.1h63.6c1.7 0 3.1 1.4 3.1 3.1v.3c0 1.7-1.4 3.1-3.1 3.1H37.5c-1.7 0-3.1-1.4-3.1-3.1v-.3zM22 52.7c1.6 0 2.9 1.3 2.9 2.9 0 1.6-1.3 2.9-2.9 2.9-1.6 0-2.9-1.3-2.9-2.9.1-1.6 1.3-2.9 2.9-2.9zm-9.2 0c1.6 0 2.9 1.3 2.9 2.9 0 1.6-1.3 2.9-2.9 2.9-1.6 0-2.9-1.3-2.9-2.9.1-1.6 1.3-2.9 2.9-2.9z"/>
    <path fill="#FFF" fill-rule="nonzero" d="M129.1 125.6c-.1.1-.2.2-.4.2-.2.1-.4.1-.6.1.2 0 .4 0 .6-.1.2 0 .3-.1.4-.2l4.1-2.5v-.1l-4.1 2.6z"/>
    <path fill="#D7D7DB" fill-rule="nonzero" d="M137.7 120.2v.1l2.2-1.5M139 115.8c-.2-.5-.2-1-.3-1.5 0 .5.1 1 .3 1.5z"/>
    <path fill="#D7D7DB" fill-rule="nonzero" d="M133.8 171.4H6.5c-2.2 0-3.9-1.6-3.9-3.7v-118c0-2.3 1.9-4.2 4.2-4.2h126.6c2.3 0 4.2 1.9 4.2 4.2V107.6c.6-.7 1.4-1.3 2.2-1.8V81.2h27.6c.1-.2.2-.4.2-.6 0-.2.3-.2.3 0 .1.2.1.4.2.6h14.5c.6 0 1.1-.5 1.1-1.1 0-.6-.5-1.1-1.1-1.1h-42.8V49.7c0-3.6-2.9-6.5-6.5-6.5H6.8c-3.6 0-6.5 2.9-6.5 6.5v118c0 3.3 2.8 5.9 6.1 5.9h127.3c1.4 0 2.7-.5 3.7-1.2-.4-.6-.8-1.3-1.1-1.9-.7.5-1.6.9-2.5.9z"/>
    <path fill="#D7D7DB" fill-rule="nonzero" d="M137.7 127.1l-.9-2.1-1.9 1.2c.9 2 1.9 4.1 2.9 6.3V156l1.2-3.2c.2-.5.6-1 1-1.3v-14.1c2.6 5.5 5.2 11 7.4 15.2h.4c.7 0 1.4.1 2.1.2-3.1-6.1-6.1-12.1-8.7-17.9-.2-.5-.7-1.5-1.2-2.7V123l-2.2 1.4v2.7h-.1z"/>
    <path fill="#D7D7DB" fill-rule="nonzero" d="M134.3 65.8h-14.5c-.6-1.7-.9-2.7-.9-2.7-.1-.3-.4-.4-.7-.4-.3.1-.4.4-.4.7l.8 2.4h-3.4c-.3-1-.5-1.8-.6-2.2-.1-.6-.7-1-1.3-.9-.6.1-1 .7-.9 1.3.1.4.2 1 .4 1.8H6v99.8c0 1.9.3 2.2 2.2 2.2h124c1.9 0 2.2-.3 2.2-2.2v-39.1l-1.1.7v38.4c0 .6 0 .9-.1 1-.1 0-.4.1-1 .1H8.2c-.6 0-.9 0-1-.1 0-.1-.1-.4-.1-1V67h106.2c1.3 4.6 4 13.3 7.9 24.2h.1c2.5 7.2 7.1 19.3 9.6 25.7l2-1.2c-2.7-6.9-9.9-26.7-11.5-31l.1.5c-2.8-8.1-4.7-14.4-5.8-18.2h3.4c.8 2.2 1.8 5.4 3.2 9.2.1.2.3.4.5.4h.2c.3-.1.4-.4.3-.7-1.3-3.6-2.3-6.6-3.1-8.8h13v35.8l-.3-.9c-.1-.3-.4-.4-.7-.3-.3.1-.4.4-.3.7.3.8.8 2.1 1.4 3.5v9.5l.2-.1.9-.6v-6c.4 1.1.8 2.1 1.2 3l.6-1.8c-.5-1.3-1.2-2.9-1.8-4.4V65.8h-.1zM12.8 58.4c1.6 0 2.9-1.3 2.9-2.9 0-1.6-1.3-2.9-2.9-2.9-1.6 0-2.9 1.3-2.9 2.9.1 1.7 1.3 2.9 2.9 2.9zM22 58.4c1.6 0 2.9-1.3 2.9-2.9 0-1.6-1.3-2.9-2.9-2.9-1.6 0-2.9 1.3-2.9 2.9.1 1.7 1.3 2.9 2.9 2.9zM37.5 58.8h63.6c1.7 0 3.1-1.4 3.1-3.1v-.3c0-1.7-1.4-3.1-3.1-3.1H37.5c-1.7 0-3.1 1.4-3.1 3.1v.3c0 1.7 1.4 3.1 3.1 3.1z"/>
    <path fill="#D7D7DB" fill-rule="nonzero" d="M95.6 109.8h-7.1c-.4-2.1-1.2-4-2.3-5.8l5.1-5.1c.7-.9 1-2 .8-3.1-.2-1.1-.7-2.1-1.6-2.8-.7-.6-1.6-.8-2.5-.8-.9 0-1.8.3-2.6.9l-5.1 5.1c-1.8-1.1-3.7-1.8-5.8-2.3v-7.1c0-2.3-1.9-4.2-4.2-4.2-2.3 0-4.2 1.9-4.2 4.2v7.1c-2.1.4-4 1.2-5.8 2.3l-4.7-5.1c-.8-.8-2-1.3-3.1-1.3-1.2 0-2.3.5-3.1 1.3-.8.8-1.3 2-1.3 3.1 0 1.2.5 2.3 1.3 3.2l5.1 4.7c-1.1 1.8-1.8 3.7-2.3 5.8H45c-2.3 0-4.2 1.9-4.2 4.2 0 2.3 1.9 4.2 4.2 4.2h7.1c.4 2.1 1.2 4 2.3 5.8l-5 4.7c-1.9 1.4-2.2 4.1-.8 5.9.8 1.1 2 1.7 3.4 1.7.9 0 1.8-.3 2.5-.8.3-.2.6-.5.8-.8l4.7-5.1c1.8 1.1 3.7 1.8 5.8 2.3v7.4c0 2.3 1.9 4.2 4.2 4.2 2.3 0 4.2-1.9 4.2-4.2v-7.1c2.1-.4 4-1.2 5.8-2.3l5.1 5.1c.7.6 1.6.8 2.5.8 1.3 0 2.6-.6 3.4-1.7 1.1-1.5 1.1-3.6-.1-5.1l-5.1-5.1c1.2-1.8 2.1-3.7 2.6-5.8h7.1c2.3 0 4.2-1.9 4.2-4.2.2-2.3-1.7-4.2-4.1-4.2zm-25.3 14.5c-5.6 0-10.2-4.6-10.2-10.2s4.6-10.2 10.2-10.2 10.2 4.6 10.2 10.2c.1 5.6-4.5 10.2-10.2 10.2zM115.3 21.3h1.1c.3 0 .6-.2.6-.6 0-.3-.2-.6-.6-.6h-1.1c-.3 0-.6.2-.6.6 0 .4.3.6.6.6zM126.4 21.3h4.5c.3 0 .6-.2.6-.6 0-.3-.2-.6-.6-.6h-4.5c-.3 0-.6.2-.6.6.1.4.3.6.6.6zM34.1 20.6h13.4c.3 0 .6-.2.6-.6 0-.3-.2-.6-.6-.6H34.1c-.3 0-.6.2-.6.6.1.4.3.6.6.6zM82 8.5c.1.1.3.2.4.2.1 0 .2 0 .3-.1.2-.2.3-.5.1-.8-.7-.9-1.5-1.8-2.3-2.5-.2-.2-.6-.2-.8 0-.2.2-.2.6 0 .8.8.7 1.6 1.5 2.3 2.4zM109.7 21c.1.2.3.3.5.3h.6c.3 0 .6-.2.6-.6 0-.4-.2-.6-.6-.6h-.3c-.2-.4-.6-1.2-1.2-2.1-.2-.3-.5-.3-.8-.2-.3.2-.3.5-.2.8.9 1.3 1.3 2.2 1.4 2.4zM59.6 4.4c.1 0 .2 0 .3-.1 1.6-1.2 3.7-2.1 6.4-2.4 2.1-.3 4-.2 5.9.2.3.1.6-.1.7-.4.1-.3-.1-.6-.4-.7-2-.4-4.1-.5-6.3-.2-2.9.4-5.2 1.3-6.9 2.7-.2.2-.3.5-.1.8 0 0 .2.1.4.1zM91.5 7.8c1.3-.4 2.7-.5 4.3-.2 2.3.4 4.8 1.8 7.2 4.1.1.1.2.2.4.2.1 0 .3-.1.4-.2.2-.2.2-.6 0-.8-2.6-2.5-5.2-3.9-7.7-4.4-1.8-.3-3.4-.3-4.9.2-.3.1-.4.4-.4.7.1.4.4.5.7.4zM84.9 13c.1.2.3.3.5.3.1 0 .2 0 .2-.1.3-.1.4-.5.3-.7-.1-.3-.3-.6-.5-1-.1-.3-.5-.4-.8-.2-.3.1-.4.5-.2.8.2.3.3.7.5.9zM56.2 14.5c.1 0 .1 0 0 0 .4 0 .6-.3.6-.6 0-.4-.1-.7-.1-1.1 0-.3-.3-.5-.6-.5H56c-.2.1-.4.3-.4.6 0 .4.1.8.1 1.1 0 .1 0 .1.1.2 0 .2.2.3.4.3zM58.3 20.4c.1-.2.1-.4 0-.5 0 0-.3-.7-.6-1.7-.1-.3-.4-.5-.7-.4-.3.1-.5.4-.4.7.1.4.3.7.4 1h-.7c-.2.1-.4.3-.4.5 0 .3.2.6.6.6H57.9c.2 0 .3-.1.4-.2z"/>
    <path fill="#F9F9FA" fill-rule="nonzero" d="M33.7 25.5h97.9c.6 0 1.1-.5 1.1-1.1 0-.6-.5-1.1-1.1-1.1h-22.8c-2-3.7-7.1-11.7-13.4-12.9-8.4-1.6-10 6.7-10 6.7S79.8 2.6 65.8 4.5c-6.5.9-9 4.2-9.8 7.8h.1c.3 0 .6.2.6.5 0 .4.1.7.1 1.1 0 .3-.2.6-.5.6h-.1c-.2 0-.4-.1-.5-.3-.1 1.9.1 3.8.5 5.3H57c-.1-.3-.2-.6-.4-1-.1-.3.1-.6.4-.7.3-.1.6.1.7.4.3 1 .6 1.7.6 1.7.1.2.1.4 0 .5-.1.2-.3.3-.5.3h-1.3c.4 1.5.9 2.5.9 2.7H33.7c-.6 0-1.1.5-1.1 1.1 0 .5.5 1 1.1 1z"/>
    <path fill="#D7D7DB" fill-rule="nonzero" d="M205.5 42.3c.1 0 .3-.1.4-.2.6-.7 1.5-1.1 2.6-1.4.3-.1.5-.4.4-.7-.1-.3-.4-.5-.7-.4-1.3.4-2.4.9-3.1 1.7-.2.2-.2.6 0 .8.1.2.3.2.4.2zM212.7 40.5c.4.1.7.2 1 .3h.2c.2 0 .5-.1.5-.4.1-.3-.1-.6-.4-.7-.4-.1-.8-.2-1.1-.3-.3-.1-.6.1-.7.4 0 .4.2.7.5.7zM238.3 50.7h3.3c.3 0 .6-.2.6-.6 0-.3-.2-.6-.6-.6h-3.3c-.3 0-.6.2-.6.6 0 .4.3.6.6.6zM221.2 46.7c.3-1 1.2-3.2 3.8-3.2.3 0 .7 0 1 .1 1.6.3 3.2 1.3 4.8 3 .2.2.6.2.8 0 .2-.2.2-.6 0-.8-1.8-1.9-3.6-3-5.4-3.4-.4-.1-.8-.1-1.2-.1-3.5 0-4.6 3-4.9 4-.1.3.1.6.4.7h.2c.1 0 .2 0 .3-.1.1.1.2 0 .2-.2zM205.5 50.6c.1-.2.1-.4 0-.5l-.1-.1c-.1-.3-.4-.4-.7-.3-.1 0-.1.1-.2.1h-12.7c-.3 0-.6.2-.6.6 0 .3.2.6.6.6H205c.2-.1.4-.2.5-.4z"/>
    <path fill="#F9F9FA" fill-rule="nonzero" d="M191.7 54.6h54.4c.6 0 1.1-.5 1.1-1.1 0-.6-.5-1.1-1.1-1.1h-12.9c-1.1-2.1-3.9-6.5-7.4-7.2-2.4-.5-3.8.5-4.6 1.6 0 .1-.1.2-.2.3-.6 1-.8 1.9-.8 1.9s-3.1-8-10.9-7c-5.7.8-6 5-5.4 7.8h.7s.1-.1.2-.1c.3-.1.6 0 .7.3l.1.1c.1.2.1.4 0 .5-.1.2-.3.3-.5.3h-.9c.2.9.5 1.4.5 1.5h-13.2.2c-.6 0-1.1.5-1.1 1.1-.1.6.4 1.1 1.1 1.1z"/>
    <path fill="#EDEDF0" fill-rule="nonzero" d="M107.4 231.1c-4 0-5.8-2.5-6.2-4.6l-.1-.5c-7 .5-12.1 2.1-12.1 4 0 2.3 7.3 4.1 16.3 4.1s16.3-1.8 16.3-4.1c0-1.4-2.7-2.6-6.7-3.3-.2.7-.6 1.3-1 1.9-2 2.4-5.7 2.5-6.5 2.5z"/>
    <path fill="#FFF" fill-rule="nonzero" d="M227.3 225.7c-.1-.3-.1-.6-.1-1 0 .4 0 .7.1 1zM228 226.5h-.1.1zM226.9 216v0zM199.5 218.8c.3.3.5.6.8.9-.3-.3-.6-.6-.8-.9z"/>
    <path fill="#F9F9FA" fill-rule="nonzero" d="M237.7 208.7c1-.3 1.9-.5 2.8-.8h.1c6.5-2 12.4-4.7 17.4-7.6-7.2 3.5-15 5-20 5.6 0 1-.1 1.9-.3 2.8z"/>
    <path fill="#FFF" fill-rule="nonzero" d="M241.9 163c.1-.2.2-.4.2-.6 0 .2-.1.4-.2.6zM234.1 70.2c-.3 0-.5-.1-.8-.1-.3 0-.7 0-1 .1.3 0 .7-.1 1-.1.2 0 .5 0 .8.1zM232 70.2c-2.5.4-4.6 2.2-5.5 4.5.9-2.3 3-4 5.5-4.5zM219.1 84.9c0-.1 0-.1 0 0 0-.1 0-.1 0 0zM221.2 79.8c.5-.5 1.1-.9 1.7-1.3-.6.3-1.2.8-1.7 1.3zM226 76.7c-.4.3-.7.7-1 1-.7.1-1.4.4-2.1.7.6-.3 1.3-.6 2.1-.7.3-.3.7-.6 1-1zM207.3 226.3s0-.1 0 0h-.1c0-.1.1 0 .1 0zM263.6 172.3c-.4.1-.8.3-1.2.4.4-.1.8-.2 1.2-.4zM248.7 65.6h.8c-.3.1-.5 0-.8 0zM237.3 69.6c1.3-.5 2.6-.9 4-1.2-1.4.4-2.7.8-4 1.2zM189.2 186.5v0zM252.5 139.1h-1c.3.1.6.1 1 0zM272.6 164c-.5 1.3-1.7 3.4-3.8 5.3 2.2-2 3.3-4.1 3.8-5.3zM262.6 67.9h-.6.6zM219.1 84.9c0 .3 0 .7.1 1-.2.3-.3.6-.5 1 .2-.3.3-.7.5-1 0-.3-.1-.6-.1-1zM202.8 96.1c.1.1.1.2.2.2.1.1.3.2.4.3-.1-.1-.3-.2-.4-.3-.1 0-.2-.1-.2-.2zM202.5 90.4c-.1-.1-.2-.1-.2-.2-.1-.1-.1-.2-.2-.3 0 .1.1.3.2.3l.2.2zM259.2 140.3h-.3.3zM277.1 177.5c-.1 0-.1 0 0 0-.1 0-.1 0 0 0-.1.1-.1 0 0 0zM274.7 180c0-.1 0-.1 0 0-.2 0-.4-.1-.6-.1.2 0 .4 0 .6.1z"/>
    <path fill="#F9F9FA" fill-rule="nonzero" d="M235.8 218c-.5 1.4-1.1 3.2-2 4.9-1.5 3.1-3.5 5.9-5.8 5.9-.7 0-1.3-.2-1.8-.6-.6-.5-1.2-.9-1.4-5.4-.1-1.5-.1-3.5-.1-6.2-.5 0-1-.1-1.6-.2l-.7-.2c0 2.8 0 4.9.1 6.6.2 5.1 1 6.1 2.4 7.2 1 .8 2.1 1.2 3.4 1.2 3.2 0 6-2.7 8.4-8.1.6-1.3 1.2-2.8 1.7-4.4.7-2 1.3-4.8 1.9-8.2-.9.3-1.9.5-2.9.8-.5 2.6-1.1 4.9-1.6 6.7zM265 198.7c-2.4 1.6-5 3.1-7.8 4.7 1.6-.7 3.1-1.4 4.6-2.3h.2c3.7 0 7.1-.5 10.2-1.4-1.7-.2-3.3-.6-4.7-1.3-.8.1-1.6.2-2.5.3z"/>
    <path fill="#FFF" fill-rule="nonzero" d="M284.9 173c.8-.7 1.8-1.2 2.9-1.2.4 0 .7 0 1 .1h.1c-.7-.6-1.5-1.1-2.4-1.2-.3-.1-.6-.1-.8-.1-.8 0-1.6.2-2.3.6l-.2.2c.6.6 1.2 1.1 1.7 1.6zM287.7 188c.3-.6.6-1.1.9-1.7-.4.3-.8.6-1.3.8.1.4.3.6.4.9z"/>
    <path fill="#F9F9FA" fill-rule="nonzero" d="M266.3 154.9c-1.2.6-2.1.9-2.7 1.2-.3.1-.6.2-.8.3-.2.1-.3.1-.3.1-.2.1-.4.1-.7.1-.6 0-1.2-.3-1.7-.7-6.4 3.3-13.7 6.8-16.1 7.9-.1.2-.2.4-.2.6.8-.1 1.7-.1 2.5-.1 3.5 0 6.8.6 9.7 1.8 2.7 1.1 5 2.5 7 4.3 6.4-2.4 7.9-7.8 7.9-8 .2-.9.9-1.5 1.8-1.7h.3c.8 0 1.5.4 1.9 1.1.1.2 1.7 2.9 2.3 7.1 1 .2 2 .6 2.9 1-.5-5.5-2.5-9.1-2.9-9.7-.9-1.4-2.4-2.3-4-2.3-.2 0-.5 0-.7.1-1.9.3-3.4 1.7-3.9 3.5 0 .1-1 3.6-5.1 5.7-1.9-1.4-4-2.7-6.4-3.7-1.3-.6-2.8-1-4.2-1.3 5.1-2.5 10.1-5 13.8-7.1-.1-.1-.1-.2-.2-.2 0-.1-.1-.1-.2 0z"/>
    <path fill="#FFF" fill-rule="nonzero" d="M265.3 137.7h.5-.5zM246.3 166.4h-.3H246.3z"/>
    <path fill="#F9F9FA" fill-rule="nonzero" d="M284.3 126.3l1.2-1.8c4.6-2.2 7.4-7.2 6.8-12.3v-.2c1.4-2.3 2-5 1.7-7.7-.3-2.4-1.3-4.6-2.8-6.4-.3-2.1-.7-4.1-1.3-6.1v-1c0-4-2-7.7-5.3-9.9-2.8-4.1-6.5-7.8-10.6-10.6-1.8-4.4-6.2-7.3-11-7.3-1.4 0-2.9.3-4.3.8-.8-.2-1.6-.4-2.4-.5-2.1-1.6-4.7-2.5-7.3-2.5-.5 0-1 0-1.5.1-2.2.3-4.4 1.2-6.1 2.6-2.1.4-4.2 1.1-6.2 1.9-.6-.1-1.1-.1-1.7-.1-5.2 0-9.9 3.5-11.4 8.4-4.4 1.8-7.4 6.2-7.4 11.1v.2c-.2.5-.4 1-.6 1.4-.4.4-.8.7-1.2 1.2-.1-2.2-1.1-4.2-2.2-6.3-.2-.4-.4-.8-.6-1.3-.9-1.8-2.7-3-4.6-3-3.8 0-5.5 3.8-6.2 5.3-1 2.1-2.3 5.9-1.3 9-.4 3.7.2 6.5 1.8 8.2.1.6.2 1.3.4 1.8-8.4 3.3-26.4 11.2-32.7 19.4-1.9 2.4-2.2 5.7-1 9.8 2.6 8.9 10.6 18.2 15.5 20.1 6.2 2.3 14.3 3.8 22.5 4.3-4.1 1.6-7.4 2.9-10 4.1.6.7 1.1 1.4 1.6 2.2 2.6-1.1 5.7-2.3 9.5-3.9 1.9-1.6 3.9-3.1 6-4.5h-2c-9.9 0-19.7-1.6-27.1-4.3-5.2-1.9-12.1-11.9-14-18.4-.9-3.3-.7-5.8.6-7.6 5.6-7.3 22.8-15.2 33.8-19.4-.6-1.4-.9-3-1.1-4.6l-.1-.1c-1.4-1.1-1.9-3.5-1.5-7.1-1.1-2.3.3-6 1.1-7.6 1.2-2.6 2.4-3.8 3.9-3.8 1 0 1.9.6 2.4 1.6.2.5.5.9.7 1.3 1.2 2.3 2.2 4.3 1.8 6.3.7 1 1.3 2.1 1.4 3.4.7.6 1.3 1.1 1.9 1.7-.1-.3-.1-.7-.1-1.1 0-2 1-3.8 2.6-4.8.3-.8.7-1.7 1.1-2.5v-.7c0-4.3 2.9-8 7-9.1l.1-.1c.8-4.4 4.7-7.8 9.3-7.8.7 0 1.3.1 2 .2 2.3-1 4.6-1.7 7-2.1 1.5-1.4 3.3-2.2 5.3-2.5.4 0 .8-.1 1.2-.1 2.3 0 4.5.9 6.2 2.4 1.2.2 2.4.5 3.6.8 1.3-.6 2.7-.9 4.1-.9 4.1 0 7.7 2.6 9 6.4 4.3 2.8 8 6.5 10.8 10.8 2.8 1.7 4.6 4.8 4.6 8.1 0 .4 0 .8-.1 1.3.7 2.3 1.2 4.6 1.5 7 1.5 1.5 2.5 3.4 2.7 5.6.3 2.5-.4 4.9-1.8 6.8.1.4.2.7.2 1.1.5 4.3-2 8.5-6 10-.6 1-1.2 1.9-1.8 2.8-.5 3.2-2.7 5.8-5.7 6.9-1.6 4.5-5.8 7.5-10.7 7.5-.5 0-1 0-1.5-.1-1 1.6-2.8 2.7-4.9 2.7-1.4 0-2.7-.5-3.7-1.3-1.3.2-2.7.2-4 .2-.4 1.9-1 3.9-1.6 5.8 8.1-1.9 16.9-3.8 18-3.9h.8c.1-.1.3-.2.4-.3l.6-.5c.2-.2.4-.3.6-.4.4-.3.8-.6 1.2-.8-.1 0-.1-.1-.2-.1 2.3-1 4.3-2.5 5.8-4.5.2-.4.4-.7.7-.9.3-.5.5-.9.8-1.4 2.8-2 5.1-4.9 5.8-8.4z"/>
    <path fill="#FFF" fill-rule="nonzero" d="M287.7 101.9c-.4-.6-.9-1.1-1.4-1.5.6.4 1 .9 1.4 1.5zM286.9 111.2c.2.6.4 1.2.5 1.9 0 .2 0 .5.1.7 0-.2 0-.5-.1-.7-.1-.7-.3-1.3-.5-1.9zM289 106c0-.3 0-.6-.1-.9 0-.4-.1-.7-.2-1.1.1.3.2.7.2 1.1.1.3.1.6.1.9zM263.6 137.5c-.3-.1-.7-.1-1-.2h-.1.1c.3.1.6.1 1 .2zM259.6 140.2c.4-.1.7-.2 1.1-.4-.4.2-.7.4-1.1.4zM188.5 192.2v0zM218.2 88.3c-.2.4-.4.9-.5 1.3-.2.1-.3.1-.5.2.1-.1.3-.2.5-.2.1-.4.3-.9.5-1.3zM186 170.6c0-.1-.1-.1-.1-.2 0 .1 0 .2.1.2zM215.8 97.7c0-.4.1-.9.2-1.3-.1.4-.1.8-.2 1.3z"/>
    <path fill="#F9F9FA" fill-rule="nonzero" d="M207.5 230.7c1.7 0 3.3-.8 4.3-2.2.9-1.2 1.3-2.3.7-5.6-.3-2-1.1-4.8-2.2-8.8 1 0 2 .1 3 .1h2.1l-3.8-1.1-4.8-.6c1.6 5.2 2.4 8.5 2.9 10.6.6 3.2.3 3.7-.2 4.3-.5.8-1.4 1.2-2.3 1.2-1.7 0-3.4-1.3-6.6-4.9-.8-.9-1.8-2-2.9-3.3-3.3-3.8-5.6-8.6-7.1-12.7-1-.5-2-1.1-2.9-1.7 1.6 4.8 4.3 11 8.4 15.8.6.8 1.3 1.5 1.8 2.1 4.4 4.8 6.7 6.8 9.6 6.8zM185.9 201.9c1.2.9 2.4 1.7 3.6 2.5l-.3-.9c-2.1-3-3.1-7-3-11.4-.4-.3-.8-.5-1.2-.8-.2-.2-.3-.5-.1-.8.2-.2.5-.3.8-.1.2.1.4.3.6.4.1-1 .2-2.1.3-3.2-.8.3-1.6.5-2.4.6-.5 5.1 0 9.8 1.7 13.7z"/>
    <path fill="#FFF" fill-rule="nonzero" d="M206.8 158.8c.5-.4 1-.9 1.6-1.3-.6.4-1.1.9-1.6 1.3z"/>
    <path fill="url(#a)" fill-rule="nonzero" d="M237.4 200.4c-.1 1-.2 2-.2 2.9 4.1-.4 10.5-1.6 17.1-4.5 1.7-.8 3.3-1.6 4.7-2.6-.7-.2-1.4-.6-1.9-1.1-3.5 1.9-8.3 4-14.2 4.8-1.9.2-3.7.4-5.5.5z"/>
    <path fill="url(#b)" fill-rule="nonzero" d="M268.8 169.3c1.6-.6 3.4-.9 5.1-.9.4 0 .7 0 1.1.1-.4-2.3-1.1-4-1.5-4.9-.1-.3-.3-.5-.3-.6v-.1s0 .1-.1.3c0 .1-.1.2-.1.3-.1.1-.1.3-.2.5-.7 1.2-1.8 3.3-4 5.3z"/>
    <path fill="url(#c)" fill-rule="nonzero" d="M274.9 176.9c-.3 0-.6-.1-.9-.1-2.6 0-5 1.4-6.3 3.6-.3.5-.7 1-1.1 1.4l1.6.4c0-.1.1-.2.2-.3l.9-.7c.2-.2.6-.1.8.1.2.2.1.6-.1.8l-.5.4.9.2c.8.2 1.5.6 2 1.2.7-1.4 1.3-2.8 1.8-4.1.2-1 .5-1.9.7-2.9z"/>
    <path fill="url(#d)" fill-rule="nonzero" d="M189.9 156.3c-2.8-1.8-6-2.6-9.1-2.6-5.6 0-11.1 2.8-14.3 7.8-5 7.9-2.7 18.3 5.2 23.3 2.8 1.8 6 2.6 9.1 2.6 2.1 0 4.2-.4 6.1-1.1.3-1.5.7-3.1 1.2-4.6-.5 0-1-.1-1.5-.4-1.5-.8-2.1-2.6-1.3-4s2.6-1.9 4.1-1.1c.3.2.5.3.7.5.6-1.3 1.3-2.6 2-3.9-3.2.4-4.2.5-4.7.5h-.6c-1-.1-2.3-.6-2.9-1.8-.5-.8-.7-2.3.5-4.3.5-.7 1.1-1.9 10.6-5.9-1.4-1.9-3-3.7-5.1-5zm-14.1 2.1c1.7 0 3.1 1.3 3.1 2.9 0 1.6-1.4 2.9-3.1 2.9-1.7 0-3.1-1.3-3.1-2.9 0-1.6 1.4-2.9 3.1-2.9zm-8.7 10.8c.8-1.4 2.6-1.9 4.1-1.1 1.5.8 2.1 2.6 1.3 4s-2.6 1.9-4.1 1.1c-1.4-.8-2.1-2.6-1.3-4zm13.4 12.7c-.6 1-1.9 1.5-3.3 1.2l1.7 1.7c.2.2.2.6 0 .8-.1.1-.3.2-.4.2-.1 0-.3 0-.4-.1-3.1-2.9-6.2-6.2-9.2-9.8-.2-.2-.2-.6.1-.8.2-.2.6-.2.8.1 1.2 1.5 2.5 2.9 3.7 4.3 0-.4.1-.8.3-1.1.4-.7 1.1-1.2 2-1.3l-.9-1.1c-.2-.2-.2-.6.1-.8.2-.2.6-.2.8.1l1.6 1.9c.4.1.8.2 1.1.4 1.9.9 2.8 2.9 2 4.3zm8.2-19.6c-.8 1.3-2.6 1.5-4 .7-1.4-.9-1.9-2.6-1.1-3.9.8-1.3 2.6-1.5 4-.7 1.4.9 1.9 2.7 1.1 3.9z"/>
    <path fill="url(#e)" fill-rule="nonzero" d="M204.7 160.7c-9.4 3.5-17.8 8.2-17.9 8.3-.1.1-.2.1-.3.1-.2 0-.4-.1-.5-.3-.2.3-.3.6-.3.9v.6c0 .1 0 .2.1.2 0 .1.1.1.1.2.4.5 1.2.5 1.2.5H188c.2 0 .4 0 .6-.1.3 0 .6-.1.9-.1h.2c.3 0 .6-.1.9-.1h.2c.4 0 .7-.1 1.1-.2h.1c.9-.1 2-.3 3.1-.5 2.9-4 5-6.2 5.1-6.4.2-.2.6-.2.8 0 .1.1.2.2.2.4 1.1-1.2 2.2-2.3 3.5-3.5z"/>
    <path fill="url(#f)" fill-rule="nonzero" d="M187.9 167.1c-.1 0-.1.1-.2.1s-.1.1-.2.1c1.1-.6 2.7-1.4 4.8-2.5-1.8.9-3.4 1.7-4.4 2.3z"/>
    <path fill="#F9F9FA" fill-rule="nonzero" d="M213.3 204.7c-.7-.2-1.3-.7-1.7-1.2l-.4 1.3 1.9.5c.3-.1.7-.2 1-.3l-.8-.3z"/>
    <path fill="#FFF" fill-rule="nonzero" d="M188.7 193.1c0 .1-.1.1-.1.1v1.6c0 .4.1.8.2 1.2 0 .2.1.4.1.5l.3 1.2c0 .2.1.3.1.5.1.4.3.8.4 1.2v.1c.8 1.6 2.9 4.5 8.2 5.4.3.1.5.3.4.6-.1.3-.3.5-.5.5h-.1c-2.7-.5-4.6-1.5-6-2.5l.3.9c.2.5.3 1 .5 1.5 1.4.7 2.7 1.2 4.1 1.7 2.4.8 4.8 1.4 7.2 1.9 0-.1-.1-.3-.1-.4 0-.1-.1-.3-.1-.4-.2-.5-.4-1-.5-1.5-.1-.3-.2-.6-.3-.8h.2c0-.6 0-1.1.2-1.7l1.2-4.1c-.7-.2-1.5-.4-2.2-.6-.3-.1-.5-.4-.4-.7.1-.3.4-.5.7-.4.7.2 1.5.4 2.2.6l4.1-14.3c.7-2.4 2.9-4 5.4-4 .5 0 1 .1 1.6.2l15.3 4.4c2-6.2 3.9-13.4 9.5-22.5.5-1.1 1.1-2.1 1.4-2.4.6-.4 12.5-5.9 18-8.5l.1-.1c.1-.2.3-.4.5-.7.3-.5.9-1.3 1.8-2.3.8-1 1.8-2 2.7-2.9l.6-.6c-3.9.8-12 2.6-19.4 4.4.4-.9.7-1.7 1-2.6.1-.2.1-.4.2-.6.5-1.4.9-2.9 1.3-4.3 1-5.6.1-9.3.1-9.4-.1-.3.1-.5.3-.6-.3-2.1-.8-3.8-1.6-5.3-3.1-1-5.4-3.9-5.4-7.4v-.1c-.8-1-1.4-2-2-2.9-.4-.4-.9-.9-1.3-1.4-2.1-2.7-3.1-5.6-3.5-7.3-.2-.4-.3-.7-.5-1.1-.7-.4-1.3-1-1.8-1.6-.8-.6-1.6-1.4-2-2.3-.5-1.3-.7-2.3-.6-3.2l-3.2-.1c-.2 0-.4-.2-.5-.4-.7 0-1.4 0-2.1.1-.4.6-1 1.2-1.7 1.5v.1c0 .3-.2.6-.5.6h-.6c-1.5 0-2.7-.8-3.2-1.2l-1.4.4c1.1 1.2 2.1 2.8 2.1 4.8 0 4.6-4.6 6.2-4.7 6.2h-.2c-.2 0-.4-.1-.5-.3-.8.2-1.6.3-2.5.1-.2 0-.5-.2-.7-.3h-.2c-.2 0-4.3-.9-6.1-6.6-.1-.3 0-.5 0-.7-.2.1-.4.1-.6.2-.2.1-.3.1-.5.2-.3.1-.5.2-.8.3-.2.1-.4.1-.5.2-.3.1-.5.2-.8.3-.2.1-.4.1-.5.2-.3.1-.5.2-.8.3-.2.1-.4.2-.6.2-.3.1-.5.2-.8.3-.2.1-.4.2-.6.2-.3.1-.5.2-.8.3l-.6.3c-.3.1-.5.2-.8.3l-.6.3c-.3.1-.5.2-.8.3l-.6.3c-.5.2-.9.4-1.4.6-.3.1-.5.2-.8.3-.2.1-.4.2-.7.3-.2.1-.5.2-.7.3-.2.1-.5.2-.7.3-.2.1-.5.2-.7.3-.2.1-.4.2-.7.3-.2.1-.5.2-.7.3l-.6.3c-.2.1-.5.2-.7.4l-.6.3c-.2.1-.5.2-.7.4l-.6.3c-.2.1-.5.3-.7.4l-.6.3c-.2.1-.5.3-.7.4-.2.1-.4.2-.5.3-.3.1-.5.3-.7.4-.2.1-.3.2-.5.3-.3.2-.7.4-1 .6-.1.1-.2.1-.3.2-.3.2-.7.4-1 .6-.1.1-.2.2-.4.2-.2.2-.5.3-.7.5-.1.1-.3.2-.4.3-.2.1-.4.3-.6.4-.1.1-.3.2-.4.3-.2.1-.4.3-.6.4-.1.1-.3.2-.4.3-.2.1-.4.3-.5.4-.1.1-.3.2-.4.3-.2.1-.3.3-.5.4-.1.1-.2.2-.4.3-.2.1-.3.3-.5.4l-.3.3c-.2.1-.3.3-.4.4l-.3.3c-.2.2-.3.3-.4.5-.1.1-.1.2-.2.2-.2.2-.4.5-.6.7-.3.4-.5 1-.7 1.6v.1c.5 0 .9.4 1 .8 0 .1 6.4 15.3 12 18.1 5.1 2.5 24.4 4.5 39.2 3.2 9-1.8 12.1-3.7 19.4-11 2.3-2.3 3.5 6.1-.8 10.1-3.6 3.4-12.9 4.7-23.1 4.7-.8.4-1.6.9-2.4 1.4-.1.1-.3.2-.4.3-.6.3-1.1.7-1.6 1-.2.1-.4.3-.6.4-.8.5-1.6 1.1-2.3 1.6-.3.3-.7.5-1 .8-.4.3-.7.6-1.1.8-.5.4-1.1.9-1.6 1.3-.1 0-.1.1-.2.1-4.6 1.8-10.2 4-14.3 5.9-2.1 1-3.8 1.9-4.8 2.5-.6.4-1.1.7-1.2 1-.1.1-.1.3-.2.4.1.2.3.3.5.3.1 0 .2 0 .3-.1.1-.1 8.5-4.8 17.9-8.3-1.2 1.1-2.4 2.3-3.5 3.5 0 .2 0 .3-.2.4 0 0-2.4 2.4-5.4 6.8-.2.3-.4.6-.6.8-.1.2-.2.4-.3.5-.4.6-.7 1.2-1 1.8-.1.2-.3.5-.4.7-.3.5-.6 1.1-.8 1.6-.1.3-.2.5-.4.8-.2.5-.5 1-.7 1.5-.1.3-.2.6-.3.8-.2.5-.4 1-.5 1.4-.1.3-.2.6-.3.8-.2.5-.3.9-.4 1.4-.1.3-.2.6-.2.8-.1.5-.2.9-.3 1.4 0 .2-.1.4-.1.6v.2c-.1.5-.2.9-.2 1.3 0 .3-.1.5-.1.8-.1.4-.1.9-.1 1.3 0 .2 0 .5-.1.7V191.3c.5 1.2.5 1.5.4 1.8zm7.3-73.4c.5-.8 1.8-2 3.7-2.4 0-.1-.1-.2-.1-.3v-3c0-.7.6-1.3 1.3-1.3.7 0 1.3.6 1.3 1.3v3c0 .1 0 .2-.1.3 1.9.4 3.2 1.6 3.7 2.4.5.8.3 1.8-.5 2.3-.3.2-.6.3-.9.3-.5 0-1.1-.3-1.4-.7-.1-.1-.8-1.1-2.2-1.1-1.4 0-2.1 1.1-2.2 1.1-.5.8-1.5 1-2.3.5-.6-.6-.8-1.7-.3-2.4zm12 18.1c0 .1-.1.1-.1.2l-.4.3c-.9.8-1.8 1.4-2.6 1.9-.9.5-1.7 1-2.5 1.3-1.6.7-3.1 1.2-4.6 1.5-.4.1-.8.1-1.2.2-2.4.3-4.7.1-6.9-.5h-.1-.1c-2.1-.7-4.2-1.8-6-3.3.2-.1.4-.1.6-.1-.2 0-.4.1-.6.1-.3-.3-.6-.5-.9-.8-1.1-1.1-2.1-2.3-3-3.8-.5-.8-.9-1.6-1.3-2.5-.4-.9-.8-1.9-1.2-3l-.1-.5c-.1-.2 0-.5.3-.5h.2c.5.1 1.1.2 1.6.4.3.1.5.1.8.2.3 1.3.6 2.7.7 2.9.2.3 2.7 1.8 3.1 1.5.2-.2.6-1.8.9-3.2l.6.1c.5.1.9.3 1.4.4-.4 1.6-.8 3.3-.7 3.5.2.3 3.1 1 3.5.8.5-.2 1.7-1.4 2.8-2.7.2.1.4.1.6.2l7.5 2.4 3.8 1.3c.7.3 1.5.5 2.2.8l1.5.6c.1-.1.3.1.2.3zm20.6-15.8c-.3.2-.6.3-.9.3-.5 0-1.1-.3-1.4-.7-.1-.1-.8-1.1-2.2-1.1-1.4 0-2.1 1.1-2.2 1.1-.5.8-1.5 1-2.3.5-.8-.5-1-1.5-.5-2.3.5-.8 1.8-2 3.7-2.4 0-.1-.1-.2-.1-.3v-3c0-.7.6-1.3 1.3-1.3.7 0 1.3.6 1.3 1.3v3c0 .1 0 .2-.1.3 1.9.4 3.2 1.6 3.7 2.4.7.7.4 1.7-.3 2.2zm-37.1 72.8c.1-.3.5-.4.8-.2.3.2.6.4 1 .5.3.1.4.5.2.8-.1.2-.3.3-.5.3-.1 0-.2 0-.3-.1-.3-.2-.7-.4-1-.5-.2-.2-.3-.5-.2-.8z"/>
    <path fill="url(#g)" fill-rule="nonzero" d="M203.6 209.1c0-.1 0-.1 0 0-.1-.2-.2-.3-.2-.4.1.1.1.2.2.4z"/>
    <path fill="url(#h)" fill-rule="nonzero" d="M222.3 203.8l-1.9-.6c0 .1 0 .2-.1.3-.4 1.3-1.6 2.2-2.9 2.2-.3 0-.6 0-.9-.1l-2.4-.7c-.3.1-.7.2-1 .3l10 2.9 1.3-4.5c-.4.2-.8.3-1.3.3-.2.1-.5 0-.8-.1z"/>
    <path fill="#EDEDF0" fill-rule="nonzero" d="M227.1 224.7c0 .4.1.7.1 1 0 .3.1.5.2.6 0 .1.1.1.1.1.1.1.1.1.2.1H228.3s.1 0 .1-.1c.1 0 .1-.1.2-.1l.1-.1c.1 0 .1-.1.2-.1l.1-.1.2-.2.1-.1c.1-.1.2-.2.2-.3l.1-.1c.1-.2.3-.3.4-.5v-.1c.1-.2.2-.3.4-.5 0-.1.1-.2.1-.2.1-.1.2-.3.3-.4.1-.1.1-.2.2-.3.1-.1.1-.2.2-.3-1.4 0-2.9-.1-4.3-.1v.9c.2.2.2.5.2.9z"/>
    <path fill="url(#i)" fill-rule="nonzero" d="M230 212.6c-.5 1.6-1.6 2.8-3.1 3.5v7.5c0 .4.1.7.1 1.1 0 .4.1.7.1 1 0 .3.1.5.2.6 0 .1.1.1.1.1.1.1.1.1.2.1H228.2s.1 0 .1-.1c.1 0 .1-.1.2-.1l.1-.1c.1 0 .1-.1.2-.1l.1-.1.2-.2.1-.1c.1-.1.2-.2.2-.3l.1-.1c.1-.2.3-.3.4-.5v-.1c.1-.2.2-.3.4-.5 0-.1.1-.2.1-.2.1-.1.2-.3.3-.4.1-.1.1-.2.2-.3.1-.1.1-.2.2-.3 0 0 0-.1.1-.1.1-.1.1-.2.2-.3.1-.2.2-.3.2-.5.1-.1.1-.2.2-.4s.2-.4.2-.5c.1-.1.1-.3.2-.4.1-.2.2-.4.2-.6.1-.1.1-.3.2-.4.1-.2.2-.5.3-.7 0-.1.1-.2.1-.4.1-.4.3-.7.4-1.1.1-.4.3-.9.4-1.4.1-.5.3-1 .4-1.5v-.1c.1-.5.2-1 .3-1.6v-.1c.1-.3.1-.6.2-1-1.3.1-3 .4-4.7.7z"/>
    <path fill="url(#j)" fill-rule="nonzero" d="M240.1 167.1c-.1.2-.3.3-.5.3h-.2c-.3-.1-.4-.4-.3-.7.4-.9.9-2.1 1.4-3.2-5.6 9-7.5 16.2-9.5 22.5l.9.3c1.4.4 2.6 1.4 3.3 2.7.7 1.3.9 2.8.5 4.3l-4.9 17.1c1.6-.3 3.2-.6 4.7-.9v-.1-.1c.1-.6.2-1.1.2-1.7v-.1c0-.2.1-.5.1-.7 0-.1-.1-.2 0-.3.5-4.5 1.9-23.7 1.9-23.9 0-.3.3-.5.6-.5s.5.3.5.6c0 .1-.7 9.5-1.3 16.7 1.7-.1 3.5-.2 5.3-.5 5.6-.8 10.3-2.8 13.7-4.7-.5-.9-.6-2-.4-3l1.9-7.3c.4-1.4 1.4-2.4 2.6-2.8-.9-1.2-1-2.9-.3-4.3.8-1.6 2-3.1 3.3-4.3-.4.1-.8.3-1.2.4-1.1.3-2.2.6-3.5.7-1-.8-2.2-1.2-3.6-1.3-.9 0-1.8.1-2.7.4-1.4-1.3-3.3-2-5.3-1.8-1.8.1-3.4.9-4.5 2.1-.9.1-1.8.2-2.6.4-.3 1.5-.5 2.7-.5 2.9 0 .3-.1.5-.4.6h-.2c-.2 0-.5-.1-.5-.4-.1-.2-.1-.4.9-5.1.3-1.6.7-3 1.1-4.4.1-.5.3-.9.4-1.3.1-.4.3-.8.4-1.2v-.1c.1-.4.3-.7.4-1.1 0 0 0-.1.1-.1.1-.2.1-.4.2-.5-.4.7-1.3 2.6-2 4.4zm2.2 29.4c3.9-1.5 8-3.4 12-5.7.3-.1.6-.1.8.2.1.3.1.6-.2.8-4.1 2.3-8.2 4.2-12.2 5.7h-.2c-.2 0-.4-.1-.5-.4-.1-.2 0-.5.3-.6z"/>
    <path fill="url(#k)" fill-rule="nonzero" d="M202.7 206.4c.1.2.2.5.3.8 0-.3-.1-.5-.1-.8h-.2z"/>
    <path fill="#F9F9FA" fill-rule="nonzero" d="M194.4 210.8c.3.6.6 1.3 1 1.9 0 .1.1.1.1.2.3.6.7 1.3 1.1 1.9 0 .1.1.1.1.2l1.2 1.8.1.1c.5.6.9 1.3 1.5 1.9.3.3.5.6.8.9.1.1.1.2.2.2l.6.6c.1.1.2.2.2.3.2.2.3.4.5.5.1.1.2.2.2.3.2.2.3.3.4.5.1.1.2.2.2.3l.5.5.2.2.2.2.4.4.1.1.5.5.2.2.3.3.2.2.3.3c.1.1.1.1.2.1.1.1.2.1.3.2l.1.1c.1.1.2.1.3.2 0 0 .1 0 .1.1.1.1.2.1.3.2h.1c.1 0 .2.1.2.1h.6c.1 0 .2-.1.2-.2 0 0 .1-.1.1-.2v-.1-.3-.1c0-.2 0-.4-.1-.6v-.2c0-.2-.1-.4-.1-.6v-.2c0-.2-.1-.4-.1-.6v-.2-.1c-.1-.3-.1-.6-.2-.9 0-.1 0-.2-.1-.3-.1-.3-.1-.6-.2-.8 0-.1 0-.1-.1-.2-.1-.4-.2-.7-.3-1.1 0-.1-.1-.2-.1-.3-.1-.3-.2-.6-.2-.9 0-.1-.1-.2-.1-.3l-.3-1.2v-.1c-.1-.4-.2-.7-.3-1.1 0-.1-.1-.2-.1-.3-.1-.4-.2-.7-.3-1.1v-.1c-.1-.4-.2-.8-.4-1.2 0-.1 0-.1-.1-.2-.1-.2-.1-.4-.2-.6-2.8-.6-5.7-1.3-8.6-2.2-.8-.2-1.5-.5-2.3-.8.2.6.5 1.1.7 1.7-.1-.2-.1-.2-.1-.1zM196.5 122c.8.5 1.8.3 2.3-.5 0 0 .8-1.1 2.2-1.1 1.4 0 2.1 1 2.2 1.1.3.5.9.7 1.4.7.3 0 .6-.1.9-.3.8-.5 1-1.5.5-2.3-.5-.8-1.8-2-3.7-2.4-.4-.1-.8-.1-1.3-.1-.4 0-.9.1-1.3.1-1.9.4-3.2 1.6-3.7 2.4-.5.8-.3 1.9.5 2.4zm0-2s.1-.2.3-.4l.3-.3c.7-.7 2-1.7 3.9-1.7 2.9 0 4.4 2.2 4.5 2.3.3.5.2 1.2-.3 1.5-.2.1-.4.2-.6.2-.4 0-.7-.2-.9-.5 0-.1-.9-1.3-2.6-1.3-1.1 0-1.8.5-2.2.9l-.4.4c-.3.5-1 .7-1.5.3-.7-.2-.9-.9-.5-1.4zM225.4 117.2c-.4-.1-.8-.1-1.3-.1-.4 0-.9.1-1.3.1-1.9.4-3.2 1.6-3.7 2.4-.5.8-.3 1.8.5 2.3.8.5 1.8.3 2.3-.5 0 0 .8-1.1 2.2-1.1 1.4 0 2.1 1 2.2 1.1.3.5.9.7 1.4.7.3 0 .6-.1.9-.3.8-.5 1-1.5.5-2.3-.5-.6-1.8-1.9-3.7-2.3zm2.9 4.3c-.2.1-.4.2-.6.2-.4 0-.7-.2-.9-.5l-.2-.2-.2-.2c-.4-.4-1.2-.9-2.3-.9-1.7 0-2.6 1.3-2.6 1.3-.3.5-1 .7-1.5.3-.5-.3-.7-1-.3-1.5.1-.1 1.5-2.3 4.5-2.3 1.4 0 2.5.5 3.2 1.1.1.1.2.2.3.2l.3.3c.4.4.6.7.7.8.2.4.1 1.1-.4 1.4z"/>
    <path fill="url(#l)" fill-rule="nonzero" d="M241.8 136.3c-7.4 7.4-10.4 9.3-19.4 11-14.7 1.3-34.1-.7-39.2-3.2-5.6-2.7-12-17.9-12-18.1-.1-.5-.5-.8-1-.8-.4 2.5.9 6.1 2.9 9.7.3.6.7 1.2 1.1 1.8.6.9 1.2 1.8 1.8 2.6.4.6.8 1.1 1.2 1.6.4.5.8 1 1.3 1.5.2.2.4.5.6.7.4.4.8.8 1.3 1.2.2.2.4.3.6.5.8.6 1.6 1.1 2.3 1.4 6.8 2.5 16.4 4.1 26.3 4.1 1.7 0 3.4-.1 5.1-.2h.2c.1 0 12.1-1.3 17.8-3.6.3-.1.6 0 .7.3.1.3 0 .6-.3.7-3.8 1.5-10.1 2.6-14.2 3.2-.3.2-.6.3-1 .5 10.2 0 19.5-1.3 23.1-4.7 4.3-4 3.1-12.5.8-10.2z"/>
    <path fill="#F9F9FA" fill-rule="nonzero" d="M250.4 158.2c-3.6 1.7-6.5 3.1-7.6 3.6 2.1-1 4.8-2.2 7.6-3.6z"/>
    <path fill="url(#m)" fill-rule="nonzero" d="M224.6 99.7c.7 0 1.4-.1 2.1-.1v-.2c0-.3.3-.6.6-.5l3.3.1c.3-1.1.7-1.7.8-1.7.2-.2.5-.3.8-.1.2.2.3.5.1.8-.1.1-1.4 1.9-.1 4.9.6 1.5 2.9 2.8 3.8 3.2.2.1.3.3.3.5 0 0 .4 4.6 3.5 8.4 3.4 4.2 8.4 5.7 8.5 5.7.2.1.4.2.4.4 0 0 .6 3.3 1.9 4.6.7.7 2.6 2.6 7.4 1.7.3-.1.6.1.6.4.1.3-.1.6-.4.6-1 .2-1.9.3-2.7.3-3.1 0-4.7-1.2-5.8-2.2-1.3-1.3-1.9-3.9-2.1-4.8-1.1-.4-4.5-1.7-7.4-4.6.6 1 1.2 1.9 2 2.9v.1c0 3.5 2.3 6.4 5.4 7.4.7 1.5 1.3 3.2 1.6 5.3h.1c.3-.1.6.1.7.4 0 .1.6 2.4.4 5.9h1.4c.3-1.1.6-2.3.9-3.5.2.1.5.1.8.2 1.6.2 3.1-.9 3.5-2.5h.2c.8.3 1.7.6 2.6.7 4.1.4 7.7-2.1 9-5.8 2.8-.2 5.1-2.2 5.5-5 .9-1.1 1.8-2.2 2.6-3.3 3.3-.5 5.8-3.4 5.7-6.9 0-.6-.1-1.2-.3-1.8 1.6-1.3 2.6-3.3 2.5-5.5 0-1.8-.8-3.5-2-4.7 0-1.5-.1-3-.3-4.4 1.3-1 2.2-2.5 2.5-4.2 0-.2.1-.5.1-.7V91v-.1c0-.3 0-.6-.1-.9v-.2c0-.3-.1-.5-.2-.7V89l-.3-.9s0-.1-.1-.1c-.1-.2-.2-.5-.4-.7 0 0 0-.1-.1-.1-.3-.5-.7-1-1.2-1.4-.5-.4-1-.8-1.6-1.1-1-.5-2-.8-3.2-.8-2.1-3.4-4.7-6.4-7.8-8.9 0-.4-.1-.9-.2-1.3s-.2-.8-.4-1.1v-.1c-.1-.4-.3-.7-.5-1v-.1c-.2-.3-.4-.6-.7-.9-.3-.3-.5-.6-.8-.8l-.9-.6s-.1 0-.1-.1c-.3-.2-.6-.3-1-.4-.1 0-.1 0-.2-.1-.3-.1-.7-.2-1-.3h-.2c-.4-.1-.8-.1-1.2-.1h-1c-.2 0-.5.1-.7.2-.1 0-.2 0-.3.1-.6.2-1.2.5-1.8.8-1.6-.5-3.2-.9-4.9-1.1-.2-.2-.4-.4-.6-.5l-.2-.2c-.1-.1-.3-.2-.4-.3-.1-.1-.2-.1-.3-.2-.1-.1-.3-.2-.4-.2-.1 0-.2-.1-.3-.1-.1-.1-.3-.1-.4-.2-.1 0-.2-.1-.3-.1-.2-.1-.3-.1-.5-.1-.1 0-.2-.1-.3-.1-.2 0-.4-.1-.5-.1h-1c-.3 0-.6 0-.9.1-.9.1-1.7.4-2.5.8s-1.4.9-2 1.5c-.7.1-1.4.3-2.1.4-1.4.3-2.7.7-4 1.2-.6.2-1.3.5-1.9.8-.4-.1-.9-.2-1.3-.3-.3 0-.5-.1-.8-.1-.3 0-.7 0-1 .1h-.3c-2.5.4-4.6 2.2-5.5 4.5-.1.3-.2.7-.3 1-.1.3-.1.7-.2 1-.4.3-.7.7-1 1-.7.1-1.4.4-2.1.7-.6.3-1.2.8-1.7 1.3-.3.3-.6.6-.8.9-.5.7-.8 1.4-1.1 2.2-.2.6-.2 1.2-.3 1.8v.2c0 .3 0 .7.1 1-.2.3-.3.6-.5 1-.2.5-.4.9-.6 1.4-.2.4-.4.9-.5 1.3-.2.1-.3.1-.5.2-.1.1-.3.2-.4.3-.4.3-.7.7-.9 1.2-.2.5-.4 1-.4 1.5 0 .8.3 1.6.7 2.1-.1.4-.1.9-.2 1.3s-.1.9-.2 1.3c-.1.7-.1 1.4-.1 2.2.2.2.5.3.7.5l2.3-.7c.2-.1.4 0 .6.1 0 0 1.3 1.3 3.1 1.1.3 0 .5.1.6.3.6-.3 1.2-.8 1.6-1.5zm37.2 25.8c.2-.2.6-.3.8-.1.1.1 2.3 1.9 4.9-.2 2.1-1.8 2.1-3.7 1.9-4.7-1.6 0-2.9-.6-3.7-1.2-.5-.4-.6-1-.3-1.6.4-.5 1-.6 1.6-.3.3.2 3.2 2.1 6.1-.9 3.4-3.4 1.7-6.8 1.7-6.8-.3-.5-.1-1.2.5-1.5.5-.3 1.2-.1 1.5.5.9 1.7 1.6 5.8-2.1 9.4-1.4 1.4-2.9 2-4.2 2.2.2 1.2.1 3.5-2.3 5.6-1.2 1-2.3 1.3-3.3 1.3-1.8 0-3.1-1.1-3.1-1.1-.2 0-.2-.4 0-.6zm-26-50.3c2.4-.3 3.9.7 4.7 1.7.1-.1.3-.1.4-.2 2.1-.9 3.9-.9 5.3-.4.6-1.2 1.9-2.7 4.7-3.1 4.2-.6 5.5 3.1 5.5 3.2.1.3-.1.6-.4.7-.3.1-.6-.1-.7-.4 0-.1-1-2.9-4.3-2.4-2.3.3-3.3 1.5-3.8 2.4 1.2.6 2 1.4 2.5 2.1.3.5.2 1.2-.3 1.5-.5.3-1.2.2-1.5-.3-.2-.3-2.3-3.1-6.1-1.4-4.4 2-4 5.8-4 5.8.1.6-.4 1.2-1 1.2h-.1c-.6 0-1-.4-1.1-1-.2-1.7.4-5.1 3.9-7.3-.6-.7-1.7-1.4-3.5-1.2-3.7.5-4.2 3.4-4.2 3.5 0 .3-.3.5-.5.5h-.1c-.3-.1-.5-.3-.5-.6 0 0 .6-3.7 5.1-4.3z"/>
    <path fill="url(#n)" fill-rule="nonzero" d="M233 105.8c.5.6 1.1 1.2 1.8 1.6.1.3.3.7.5 1.1-.1-.6-.2-1.1-.3-1.4-.4-.3-1.2-.7-2-1.3z"/>
    <path fill="url(#o)" fill-rule="nonzero" d="M202.5 90.4c1.3 1.2 3.4.6 4.4-.9v-.1c0-.1.3-5.4-2.2-7.4 0 0-.1 0-.1.1l-.2.2s-.1.1-.1.2c-.1.1-.1.2-.2.3 0 .1-.1.1-.1.2-.1.1-.1.2-.2.4 0 .1-.1.1-.1.2-.1.2-.2.3-.3.5 0 .1-.1.1-.1.2-.1.2-.2.5-.3.7 0 .1 0 .1-.1.2-.1.2-.2.4-.2.6 0 .1-.1.2-.1.3-.1.2-.1.3-.2.5 0 .1-.1.2-.1.3 0 .2-.1.3-.1.5 0 .1 0 .2-.1.3 0 .1-.1.3-.1.4V89.7c0 .1 0 .2.1.3v.2c0 .1.1.3.2.3.1-.2.1-.2.2-.1z"/>
    <path fill="url(#p)" fill-rule="nonzero" d="M209.1 94.2V94c-.1-.5-.3-1.4-.7-2.6-.1-.3-.2-.5-.3-.7-.6 2.1-3.7 3.3-5.8 1.5 0 .4-.1.7-.1 1.1 0 .6 0 1.1.1 1.6s.2 1 .4 1.3c.1.1.1.2.2.2.1.1.3.2.4.3.1.1.3.1.4.2 2.1.7 4.6-.6 5.4-2.7z"/>
    <path fill="url(#q)" fill-rule="nonzero" d="M204 98c0 .3.1.5.1.8-.1-.7-.2-1.3-.3-2 .1.4.1.8.2 1.2z"/>
    <path fill="url(#r)" fill-rule="nonzero" d="M210.6 95.5c-.4 2.7-3.6 4.7-6.5 3.5v.2c.1.4.2.8.2 1.1.4 1.6 1 2.9 1.6 3.4 2.8.5 6.9-1.5 7.1-4.5v-.5c-.2-.6-.5-1.4-1.1-2.1-.4-.4-.9-.8-1.3-1.1z"/>
    <path fill="url(#s)" fill-rule="nonzero" d="M214.2 112c-.1 0-.1-.1 0 0-.2-.4 0-.7.3-.8.2-.1 3.9-1.4 3.9-5.2 0-2.6-2.1-4.5-3.5-5.5.2 3.4-3.6 6.1-7 6 1.5 2.5 3.4 3 3.5 3 .6.1 1 .7.9 1.3-.1.5-.6.9-1.1.9.2.2.5.3.7.3.6.3 1.5.2 2.3 0z"/>
    <path fill="#D7D7DB" fill-rule="nonzero" d="M240.4 163.4c-.5 1.1-1 2.3-1.4 3.2-.1.3 0 .6.3.7h.2c.2 0 .4-.1.5-.3.7-1.7 1.6-3.7 2.1-4.6.1-.1.1-.3.2-.4.2-.1.3-.2.5-.2 1-.5 4-1.9 7.6-3.6 3-1.4 6.1-3 9-4.5 0-.3.1-.6.3-.9 0 0 0-.1.1-.2-5.5 2.5-17.4 8.1-18 8.5-.3.2-.8 1.2-1.4 2.3z"/>
    <path fill="url(#t)" fill-rule="nonzero" d="M275.8 140c-.7.2-1.3.6-2 .9v.4c.4 1.9 1.8 3.4 3.5 4.2.5-.6.9-1.1 1.3-1.7.3-.5.6-.9.8-1.3-.8-.2-1.5-.6-2-1.1-.4-.5-.7-1-.9-1.5-.2-.1-.4 0-.7.1z"/>
    <path fill="url(#u)" fill-rule="nonzero" d="M273.3 149.1c.1 0 .1-.1.2-.1l.6-.5c.2-.1.4-.3.6-.4.1-.1.2-.2.3-.2-.3-.2-.7-.4-1-.7-1.4-1.1-2.5-2.7-3-4.4-.1.1-.2.1-.3.2-.2.1-.4.3-.6.4l-.6.5c-.2.2-.4.3-.6.5-.6.5-1.2 1-1.7 1.5-.6.5-1.1 1-1.6 1.5-.9.9-1.8 1.9-2.6 2.9s-1.4 1.8-1.7 2.2c-.2.3-.3.5-.4.7l-.1.2c-.2.3-.2.7-.1 1 .1.4.3.7.6.8.3.2.7.2 1 .1 0 0 .1 0 .3-.1.2-.1.4-.1.7-.3.6-.2 1.4-.6 2.6-1.1h.1c-1.2-2.3-.6-5.1-.6-5.3.1-.6.7-1 1.3-.8.4.1.7.4.8.8 1.8-.4 4.1 0 5.8.6z"/>
    <path fill="url(#v)" fill-rule="nonzero" d="M281.4 141.3c.9-.2 2.7-.9 4.2-3.5-1-.8-2.6.8-3.3-.6-.6-1.1.1-1.5-.4-2.1h-.6c-1.6 0-2.9.7-3.5 1.9-.6 1.1-.3 2.5.6 3.5.6.8 1.8 1.1 3 .8z"/>
    <path fill="#FFF" fill-rule="nonzero" d="M267.5 148.5c.1.2.1.4 0 .6 0 0-.5 2.5.5 4.1.5.8 1.3 1.2 2.4 1.4 1.3.2 2.3 0 3.1-.6 1.2-.9 1.4-2.7 1.4-2.7 0-.4.3-.7.6-.9-.3-.3-.7-.5-1.1-.8-.3-.2-.7-.4-1.2-.5-1.6-.6-3.9-1-5.7-.6z"/>
    <path fill="#D7D7DB" fill-rule="nonzero" d="M148 139.7c-.3.1-.4.5-.3.7 2 4.3 4 8.2 6 12 .1.2.3.3.5.3.1 0 .2 0 .3-.1.3-.1.4-.5.2-.8-2-3.7-4-7.6-6-11.9-.1-.2-.4-.4-.7-.2zM160.4 163.3c.1 0 .2 0 .3-.1.3-.2.3-.5.2-.8-.6-.9-1.2-1.9-1.8-2.8-.1-.1-.2-.2-.4-.3.6 1.2 1 2.4 1.2 3.7.2.2.4.3.5.3zM143.3 129.9h-.2v.4l.4 1c.1.2.3.3.5.3h.2c.3-.1.4-.5.3-.7l-.4-1h-.8zM283.4 171.4c1.5-1.3 3.1-2.7 4.6-4.1.2-.2.2-.6 0-.8-.2-.2-.6-.2-.8 0-1.7 1.5-3.3 3-5 4.4.3.2.6.4.9.7.2-.1.2-.2.3-.2zM185 190.5c-.2.2-.1.6.1.8.4.3.8.5 1.2.8.5.4 1.1.8 1.6 1.1.1.1.2.1.3.1.1 0 .2-.1.3-.1l.1-.1c.2-.3.1-.6-.1-.8-.7-.5-1.5-1-2.2-1.5-.2-.1-.4-.3-.6-.4-.2-.2-.5-.1-.7.1zM242.5 197.6h.2c4-1.5 8-3.5 12.2-5.7.3-.1.4-.5.2-.8-.1-.3-.5-.4-.8-.2-4.1 2.2-8.1 4.1-12 5.7-.3.1-.4.4-.3.7.1.2.3.3.5.3zM270 181.4c-.2-.2-.5-.3-.8-.1l-.9.7c-.1.1-.2.2-.2.3l1.2.3.5-.4c.4-.2.4-.6.2-.8zM169.9 175c-.2-.2-.5-.3-.8-.1-.2.2-.3.5-.1.8 3 3.6 6 7 9.2 9.8.1.1.2.1.4.1.1 0 .3-.1.4-.2.2-.2.2-.6 0-.8-.6-.5-1.2-1.1-1.7-1.7-1.2-1.2-2.4-2.4-3.6-3.7-1.3-1.2-2.6-2.7-3.8-4.2zM164 167l-.6-.9c-.2-.3-.5-.3-.8-.2-.3.2-.3.5-.2.8l.6.9c.1.2.3.2.5.2.1 0 .2 0 .3-.1.3-.1.3-.4.2-.7zM191.8 195.5c.3.2.7.4 1 .5.1 0 .2.1.3.1.2 0 .4-.1.5-.3.1-.3 0-.6-.2-.8-.3-.2-.6-.3-1-.5-.3-.1-.6-.1-.8.2-.2.4-.1.7.2.8zM202.4 198.9c-.3-.1-.6.1-.7.4-.1.3.1.6.4.7.7.2 1.5.4 2.2.6l.3-1.1c-.7-.1-1.5-.3-2.2-.6zM169.1 184.2c-1.7-2.3-3.4-4.7-5-7.1-1.6-2.4-3.2-4.9-4.7-7.4-.3.8-.7 1.5-1.2 2.3 4.5 7.3 9.2 13.9 14 19.6l2.3-.7c-1.9-2.1-3.7-4.3-5.4-6.7zM133.2 123l2.1-1.3-2.1 1.3zM271.7 191c.1 0 .2.1.3.1.6.1 1.2.2 1.8.2.3 0 .7 0 1-.1 3.4-2.9 5.2-5 5.3-5 0 0 0-.1.1-.1l-2.4-.6c-1 1-3.1 3-6.1 5.5zM193.6 208.9c.8.3 1.5.6 2.3.8 2.9.9 5.8 1.6 8.6 2.2.8.2 1.6.3 2.5.4 1.6.3 3.2.5 4.8.6l-4.8-1.4c-1.2-.3-2.2-1.1-2.9-2.1-.1 0-.2 0-.3-.1-2.4-.5-4.7-1.1-7.2-1.9-1.4-.4-2.8-1-4.1-1.7-1-.5-1.9-1-2.9-1.6-1.2-.7-2.4-1.6-3.6-2.5-.3-.2-.6-.4-.9-.7l.6 1.9c.1.3.1.5.1.8.2.2.3.5.4.7v.1c.5.4 1.1.7 1.6 1.1 1 .6 1.9 1.2 2.9 1.7.9.9 1.9 1.3 2.9 1.7zM266.3 197.8c-.7-.4-1.3-.8-2-1.3-1.9 1.3-4 2.6-6.2 3.9-5 2.9-10.9 5.6-17.4 7.6h-.1c-.9.3-1.9.6-2.8.8-.8.2-1.6.4-2.3.6-1.5.4-3.1.7-4.7.9l-.7 2.3c1.7-.3 3.4-.5 5-.9l2.4-.6c1-.2 1.9-.5 2.9-.8 6.3-1.8 12-4.3 17-7 2.8-1.5 5.4-3.1 7.8-4.7.3-.2.7-.5 1.1-.8z"/>
    <path fill="#FFFEFE" fill-rule="nonzero" d="M235.2 188.8c-.7-1.3-1.9-2.3-3.3-2.7l-.9-.3-15.3-4.4c-.5-.1-1-.2-1.6-.2-2.5 0-4.7 1.7-5.4 4l-4.1 14.3-.3 1.1-1.2 4.1c-.2.6-.2 1.1-.2 1.7 0 .3 0 .5.1.8.1.5.2 1 .5 1.5.1.1.1.2.1.3 0 0 0 .1.1.1.1.2.2.4.4.5.7 1 1.7 1.7 2.9 2.1l4.8 1.4 3.8 1.1 7 2 .7.2c.5.1 1 .2 1.6.2.8 0 1.5-.2 2.2-.5 1.5-.7 2.6-1.9 3.1-3.5l.7-2.3 4.9-17.1c.3-1.5.1-3.1-.6-4.4zm-1.7 3.7l-5.6 19.4c-.4 1.5-1.8 2.4-3.2 2.4-.3 0-.6 0-.9-.1l-16.2-4.7c-1.8-.5-2.8-2.4-2.3-4.2l5.6-19.4c.4-1.5 1.8-2.4 3.2-2.4.3 0 .6 0 .9.1l16.2 4.7c1.8.5 2.8 2.4 2.3 4.2z"/>
    <path fill="#FFFEFE" fill-rule="nonzero" d="M228.7 191.1l-12.9-3.7c-.2 0-.3-.1-.5-.1-.7 0-1.4.5-1.6 1.2l-4.7 16.2c-.3.9.3 1.8 1.2 2.1l12.9 3.7c.2 0 .3.1.5.1.7 0 1.4-.5 1.6-1.2l4.7-16.2c.2-.9-.4-1.9-1.2-2.1zm-14.4 7.2c.1-.4.4-.6.8-.6h.2l8.1 2.3c.4.1.7.6.6 1-.1.4-.4.6-.8.6h-.2l-8.1-2.3c-.5-.1-.7-.5-.6-1zm-.9 3.2c.1-.4.4-.6.8-.6h.2l3.2.9c.4.1.7.6.6 1-.1.4-.4.6-.8.6h-.2l-3.2-.9c-.5 0-.8-.5-.6-1zm9.7 6.7l-10-2.9-1.9-.5.4-1.3c.4.6 1 1 1.7 1.2l.9.2 2.4.7c.3.1.6.1.9.1 1.4 0 2.6-.9 2.9-2.2 0-.1.1-.2.1-.3l1.9.6c.3.1.6.1.9.1.4 0 .9-.1 1.3-.3l-1.5 4.6zm1.8-10.3c-.1.4-.4.6-.8.6h-.2l-8.1-2.3c-.4-.1-.7-.6-.6-1 .1-.4.4-.6.8-.6h.2l8.1 2.3c.5.1.8.5.6 1zm1-3.3c-.1.4-.4.6-.8.6h-.2l-8.1-2.3c-.4-.1-.7-.6-.6-1 .1-.4.4-.6.8-.6h.2l8.1 2.3c.4.1.7.6.6 1zM275 168.4c-.4 0-.7-.1-1.1-.1-1.7 0-3.4.3-5.1.9-.7.3-1.4.5-2.1.9-1.1.6-2.1 1.3-3.1 2.2-1.3 1.2-2.5 2.7-3.3 4.3-.7 1.4-.6 3.1.3 4.3-1.3.4-2.3 1.5-2.6 2.8l-1.9 7.3c-.3 1-.1 2.1.4 3 0 .1 0 .1.1.2.2.3.4.5.6.8.5.5 1.2.9 1.9 1.1.3.1.7.1 1 .1 1.1 0 2.1-.4 2.9-1.2.5.5.9.9 1.5 1.3.6.5 1.3.9 2 1.3l1.2.6c1.5.7 3.1 1.1 4.7 1.3.6.1 1.1.1 1.7.1 2.5 0 5-.6 7.2-1.8 2.8-1.5 5-3.7 6.4-6.5.5-1 .6-2.1.3-3.1 0-.1-.1-.2-.1-.3-.1-.3-.3-.6-.4-.8.5-.2.9-.5 1.3-.8.6-.5 1.1-1.2 1.3-2l1.9-7.3c.3-1.1.1-2.2-.4-3.1-.5-.9-1.4-1.6-2.4-1.9h-.1c-.3-.1-.7-.1-1-.1-1.1 0-2.1.4-2.9 1.2-.5-.6-1.1-1-1.7-1.5-.3-.2-.6-.5-.9-.7-.7-.4-1.4-.8-2.1-1.1-.9-.4-1.9-.7-2.9-1-1.1-.2-1.8-.3-2.6-.4zm10.6 22.1c-1.2 2.4-3.1 4.3-5.5 5.6-2 1-4.1 1.5-6.1 1.5-4.7 0-9.2-2.5-11.5-6.9l-.5 2c-.2.9-1 1.4-1.8 1.4-.2 0-.3 0-.5-.1-1-.3-1.6-1.3-1.4-2.3l1.9-7.3c.2-.9 1-1.4 1.8-1.4.2 0 .3 0 .5.1l7.3 1.9c1 .3 1.6 1.3 1.4 2.3-.2.9-1 1.4-1.8 1.4-.2 0-.3 0-.5-.1l-3.7-1c1.1 2.8 3.5 4.9 6.4 5.6.8.2 1.5.3 2.3.3 3.4 0 6.6-1.8 8.3-4.9.4-.6 1-.9 1.6-.9.3 0 .6.1.9.2h.1c.9.5 1.2 1.6.8 2.6zm-10.6-7c.6 1 1.4 1.6 2.5 1.9l.3.1 2.4.6 1 .3c-.4.3-.7.7-1 1.1v.1c-1.1 2-3.1 3.4-5.3 3.7-.3 0-.7.1-1 .1-.6 0-1.2-.1-1.8-.2-.1 0-.2-.1-.3-.1l-.9-.3c1.2-.5 2.2-1.5 2.5-2.8.4-1.4 0-2.8-1-3.8-.5-.6-1.2-1-2-1.2l-.9-.2-1.2-.3-1.6-.4c.5-.4.8-.8 1.1-1.4 1.3-2.2 3.7-3.6 6.3-3.6.3 0 .6 0 .9.1.3 0 .6.1.9.2.4.1.8.3 1.2.4h-.1c-1 .4-1.9 1.3-2.3 2.4 0 .1-.1.2-.1.4-.3.8-.2 1.9.4 2.9zm10.4-6l.5-2c.2-.9 1-1.4 1.8-1.4.2 0 .3 0 .5.1 1 .3 1.6 1.3 1.4 2.3l-1.9 7.3c-.2.9-1 1.4-1.8 1.4-.2 0-.3 0-.5-.1l-7.3-1.9c-1-.3-1.6-1.3-1.4-2.3.2-.9 1-1.4 1.8-1.4.2 0 .3 0 .5.1l3.7 1c-1.1-2.8-3.5-4.9-6.4-5.6-.8-.2-1.6-.3-2.4-.3-3.3 0-6.5 1.8-8.2 4.8-.3.7-1 1.1-1.7 1.1-.2 0-.3 0-.5-.1l-.4-.1h-.1c-.9-.5-1.3-1.6-.8-2.5 1.2-2.4 3.1-4.3 5.5-5.6 2-1 4.1-1.5 6.1-1.5 4.8-.2 9.3 2.3 11.6 6.7zM160.2 164.9c0-.6-.1-1.3-.2-1.9-.2-1.3-.6-2.6-1.2-3.7-1.4-2.7-3.7-4.8-6.7-6-.7-.3-1.5-.5-2.3-.6-.7-.1-1.4-.2-2.1-.2h-.4c-1 0-2 .2-3 .4 0-.1-.1-.3-.1-.4-.3-.7-.9-1.2-1.6-1.5-.3-.1-.7-.2-1-.2-.6 0-1.2.2-1.7.5s-.8.8-1 1.3l-1.2 3.2-1.1 2.9c-.4 1.1-.1 2.3.7 3.1-1.3.5-2.2 1.8-2.2 3.3 0 1.9.5 3.7 1.3 5.3.3.7.7 1.3 1.1 1.9 2.3 3.2 6 5.2 10.2 5.2h.1c3.4 0 6.5-1.4 8.8-3.8.6-.6 1.1-1.2 1.6-1.9s.8-1.5 1.2-2.3c.5-1.3.8-2.9.8-4.6zm-12.5 10.5h-.1c-3.6 0-6.8-1.8-8.6-4.6-.6-.9-1.1-1.9-1.3-3-.2-.8-.4-1.7-.4-2.6 0-.4.1-.7.4-.9.2-.2.6-.4.9-.4.7 0 1.3.6 1.3 1.3 0 2.2 1 4.4 2.7 5.9 1.5 1.3 3.3 1.9 5.1 1.9 2.2 0 4.3-.9 5.8-2.7 2.8-3.2 2.5-8.1-.7-10.9-1.5-1.3-3.3-1.9-5.1-1.9-2.2 0-4.3.9-5.8 2.7l3.7 1.4c.3.1.5.5.4.8-.1.3-.3.4-.6.4h-.2l-5.2-2-.8-.3c-.3-.1-.5-.5-.4-.8l1.2-3.2 1.1-2.8c.1-.3.3-.4.6-.4h.2c.3.1.5.5.4.8l-1.2 3.3c1.9-1.7 4.3-2.5 6.8-2.5 1.2 0 2.4.2 3.6.6 4 1.5 6.6 5.3 6.6 9.5-.1 5.7-4.7 10.3-10.4 10.4zm-5.8-11.5l1.9.7-.2.1h-.1c-.6.3-1 .7-1.3 1.2 0-.2-.1-.5-.1-.8 0-.3 0-.8-.2-1.2zm5.6 1.6l1.7-4.6c.1-.3.3-.4.6-.4h.2c.3.1.5.5.4.8l-1.8 4.8c0 .2-.1.3-.3.4L145 168l-.1-.2-.8-.3c-.1-.3 0-.7.3-.8l3.1-1.2zm-.6-5.7h.4c0 .1-.1.2-.1.3-.1-.2-.2-.3-.3-.3zm3.9 7l1.6-4.4c.4.7.7 1.5.7 2.4.1 1.5-.4 2.9-1.3 4-1 1.2-2.6 1.9-4.2 1.9-.8 0-1.5-.2-2.2-.5.2 0 .3-.1.5-.2l3.3-1.5c.1 0 .2-.1.2-.1.7-.3 1.2-.9 1.4-1.6zM185.7 204c0-.3 0-.5-.1-.8l-.6-1.9-.3-1.1c-.1-.3-.2-.5-.4-.7 0-.3 0-.5-.1-.8l-.9-3.1c-.1-.3-.2-.5-.4-.7 0-.3 0-.5-.1-.8-.7-2.3-2.8-3.9-5.2-3.9-.5 0-1.1.1-1.6.2-.3.1-.5.2-.7.4h-.2c-.2 0-.4 0-.6.1h-.2l-2.3.7-.6.2c-.3.1-.5.2-.7.4h-.2c-.2 0-.4 0-.6.1l-3.1.9c-.3.1-.5.2-.7.4h-.2c-.2 0-.4 0-.6.1l-3.1.9c-.3.1-.5.2-.7.4h-.2c-.2 0-.4 0-.6.1-2.9.9-4.5 3.9-3.6 6.8.1.3.2.5.4.7 0 .3 0 .5.1.8l.1.2c-.7.7-1.2 1.5-1.5 2.5-.5 1.6-.4 3.3.3 4.8.7 1.4 1.8 2.4 3.2 3-.3.5-.6 1.1-.8 1.8-.9 3.3 1.1 6.7 4.5 7.6.5.1 1 .2 1.6.2 2.8 0 5.3-1.9 6-4.7.3-1 .3-2.1 0-3.1l.6-.8c.1.1.2.1.3.2l5.7 2.1h.1c.6.2 1.1.3 1.7.3 2.3 0 4.4-1.5 5.2-3.7v-.1c.3-1-.1-2-.9-2.5 2.1-1.2 3.2-3.8 2.5-6.2v-.1c-.2-.5-.3-.7-.5-.9zm-2.2-.2l-3.1.9-.9-3.1 3.1-.9.9 3.1zm-4 5.7l-3.1-1.1 2-2.7c.1.1.2.3.2.4 0 .3 0 .5.1.8l.8 2.6zm2.6-10.3l-3.1.9-.9-3.1 3.1-.9.9 3.1zm-4.4-6.8c1.4 0 2.6.9 3.1 2.3l-3.1.9-.9-3.1c.2-.1.5-.1.9-.1zm-2.5.6l.9 3.1-3.1.9-.9-3.1 3.1-.9zm-3 6.5c.3-.1.5-.2.7-.4h.2c.2 0 .4 0 .6-.1l2.5-.7.1.3c-1.5.1-2.8.9-3.7 2l-3.7 5-1-.4c-.5-1.2-1.4-2.2-2.5-2.9l-.2-.8 2.5-.7c.3-.1.5-.2.7-.4h.2c.2 0 .4 0 .6-.1l3-.8zm-1.6-5.2l.9 3.1-3.1.9-.9-3.1 3.1-.9zm-4.6 1.4l.9 3.1-3.1.9-.9-3.1 3.1-.9zm-4.6 1.4l.9 3.1-3.1.9c-.4-1.7.5-3.5 2.2-4zm7.1 17.9c.1.2.2.5.2.8.2.7.2 1.5.1 2.2-.5 1.8-2.1 3-3.9 3-.3 0-.7 0-1-.1-2.1-.6-3.4-2.7-2.9-4.9.5-1.8 2.1-3 3.9-3 .3 0 .7 0 1 .1l1.7-2.2-2.3-.8c-.4.6-.9 1-1.5 1.4-.6.3-1.2.4-1.8.4-1.5 0-2.9-.8-3.6-2.2-1-2-.2-4.4 1.8-5.4l-.5-1.7 3.1-.9.7 2.3c1.2.4 2.1 1.4 2.5 2.6l.1.5 3.6 1.3 4.6-6.2c.6-.8 1.6-1.2 2.5-1.2.7 0 1.4.2 2 .7L168.5 215zm13.9-2.1c-.4 1.3-1.7 2.2-3 2.2.1.1.1.3 0 .4-.1.2-.3.4-.5.4h-.2l-3.8-1.3c-.3-.1-.4-.4-.4-.7 0-.1.1-.2.2-.3l-2.1-.8 2-2.6 7.8 2.7zm-.6-3.6l-.9-3.1 3.1-.9c.5 1.7-.5 3.5-2.2 4z"/>
    <path fill="#FFFEFE" fill-rule="nonzero" d="M166.9 216.4c-.3-.9-1.1-1.5-2-1.5-.2 0-.4 0-.6.1-1.1.3-1.7 1.5-1.4 2.6.3.9 1.1 1.5 2 1.5.2 0 .4 0 .6-.1h.2c1-.3 1.6-1.4 1.3-2.4-.1-.1-.1-.2-.1-.2zM163.9 207.1c-.3-.8-1.1-1.3-1.9-1.3-.3 0-.5 0-.8.1-1.1.4-1.6 1.6-1.2 2.7.3.8 1.1 1.3 1.9 1.3.3 0 .5 0 .8-.1.1 0 .1 0 .2-.1 1-.4 1.5-1.5 1.1-2.5l-.1-.1zM136.1 109.9c-.3.6-.5 1.2-.6 1.8 0 .1-.1.2-.1.4-.1.7-.2 1.3-.2 2l-.4.2-.6.4-.9.6-.2.1-.4.3-2 1.2-2.7 1.7-2.3 1.4c-.3.1-.5.3-.7.5-1.8 1.4-2.5 3.9-1.5 6 .8 1.8 2.6 3 4.6 3h.2c.7 0 1.3-.2 1.9-.4.3-.2.7-.3 1-.6l.4-.2 1.6-1 1.1-.7.5-.3 1.9-1.2.9-.6 2.2-1.4.6-.4c.6.3 1.3.6 2 .7h.1c.7.2 1.4.2 2.1.2 4.5 0 8.4-3.1 9.4-7.5.3-1.4.3-2.9 0-4.4-.3-1.1-1-2-2.1-2.4h-.1c0-1.1-.5-2.1-1.3-2.8-1.1-.9-2.4-1.5-3.8-1.8h-.1c-.6-.1-1.3-.2-2-.2-1.8 0-3.4.5-4.9 1.4-.8.5-1.6 1.1-2.2 1.8-.4.6-1 1.4-1.4 2.2zm2.8 2.8c.6-2.9 3.2-4.9 6-4.9.4 0 .8 0 1.3.1.9.2 1.7.6 2.4 1.2l-.2.1.1.1-4.4 2.8c-.3.2-.6.5-.7.8-.2.6-.2 1.2.2 1.7.4.6 1 .9 1.7.9.4 0 .7-.1 1-.3l4.6-2.7c.2.9.2 1.9 0 2.8-.3 1.5-1.2 2.7-2.2 3.5-1.1.8-2.4 1.3-3.8 1.3-.4 0-.9 0-1.3-.2-1-.3-2-.8-2.8-1.6l-.7.4-2.2 1.4-2.4 1.5-2.1 1.3-4 2.5c-.1.1-.2.2-.4.2-.2.1-.4.1-.6.1h-.1c-.6 0-1.1-.3-1.4-.9-.3-.8 0-1.7.8-2l11.5-7.3c-.1-.5-.2-1-.2-1.5-.3-.3-.3-.8-.1-1.3z"/>
    <path fill="#D7D7DB" fill-rule="nonzero" d="M154.8 144.4l-2.2-4.7c-.1-.3-.5-.4-.7-.3-.3.1-.4.5-.3.7l2.2 4.7c.1.2.3.3.5.3.1 0 .2 0 .2-.1.3 0 .4-.4.3-.6zM161 185.3c.1.2.3.2.5.2.1 0 .2 0 .3-.1.3-.2.3-.5.1-.8l-2.5-3.5c-.2-.3-.5-.3-.8-.1-.3.2-.3.5-.1.8l2.5 3.5z"/>
    <path fill="#E1E1E6" fill-rule="nonzero" d="M179 214.8l-3.8-1.3c-.2-.1-.3 0-.5.1-.1.1-.2.2-.2.3-.1.3.1.6.4.7l3.8 1.3h.2c.2 0 .5-.1.5-.4v-.4c-.1-.2-.2-.3-.4-.3zM179.7 181.2c.1 0 .3 0 .4-.1.2-.2.3-.5.1-.8l-2.7-3.2-1.6-1.9c-.2-.2-.5-.3-.8-.1-.2.2-.3.5-.1.8l.9 1.1 3.3 4c.2.1.4.2.5.2z"/>
    <path fill="#D7D7DB" fill-rule="nonzero" d="M268.1 159.5l-6 5.5c-.2.2-.2.6 0 .8.1.1.3.2.4.2.1 0 .3 0 .4-.1l6-5.5c.2-.2.2-.6 0-.8-.2-.3-.5-.3-.8-.1zM125.9 112.2c.1.2.3.4.5.4h.2c.3-.1.4-.4.3-.7l-1.7-4.7c-.1-.3-.4-.4-.7-.3-.3.1-.4.4-.3.7l1.7 4.6z"/>
    <path fill="#FFF" fill-rule="nonzero" d="M98.9 188.6c.6-.9 1.6-1.5 2.5-1.7-1.1.2-2.2.8-2.9 1.8-.2.2-.3.5-.4.7h.2c.2-.2.3-.5.6-.8zM113 187.5c-.7-.2-1.3-.4-2-.3-1.6 0-3.3.8-4.3 2.1 0 .1.1.2.1.3 1.4-2 3.9-2.8 6.2-2.1zM95.5 213.7c.3.6.7 1.2 1.3 1.6.5.4 1.1.6 1.7.6l-.1-.1c-.6-.1-1.2-.3-1.7-.7-.6-.4-1-.9-1.2-1.4zM90.5 210.7c-2-1.5-2.9-4-2.4-6.3-.6 2.4.3 5 2.4 6.5 1.1.8 2.4 1.1 3.6 1.1.3 0 .7 0 1-.1v-.2c-1.6.4-3.2.1-4.6-1zM91.6 191.8c.4-.5.8-1 1.3-1.4-.6.4-1.2.9-1.6 1.6-1.8 2.5-1.4 5.9.8 7.9.1 0 .2-.1.3-.1-2.3-2-2.7-5.5-.8-8zM116.4 197.4c.2.1.3.2.5.4-.2-.2-.4-.4-.7-.5-.2-.2-.5-.3-.8-.4.3.1.7.3 1 .5zM109.4 218.5l-.6-3.3h-.1l.5 3.3c.1.1.2.1.2 0zM108.5 214.1c.1 0 .1 0 0 0 .1 0 .1 0 0 0zM102.4 213.5c-.1.3-.2.5-.4.7l-.3.3s0 .1.1.1l.3-.3c.1-.2.2-.5.3-.8l.1.1c.3.2.6.3.9.5-.4-.1-.7-.3-1-.6 0 .1 0 0 0 0zM111.9 213.8c0 .1.1.2.2.4.2.4.4.9.5 1.4 0-.1 0-.1.1-.2-.2-.5-.4-1-.5-1.4-.1-.1-.2-.2-.3-.2 0-.3-.2-.5-.5-.5h-.2c-.1 0-.2.1-.2.2.1 0 .1-.1.2-.1.3 0 .6.1.7.4zM110.3 225.1c.1.3-.2.6-.6.8-.5.3-1.2.5-1.8.5.7-.1 1.4-.3 2-.5.5-.2.8-.6.7-.9l-1-5.4h.1c-.1 0-.2.1-.2.1l.8 5.4zM99.7 215.7l.1.1h.1c-.1 0-.1 0-.2-.1zM104.3 217.3c-.7-.2-1.3-.5-1.9-.9.6.4 1.2.7 1.9.9z"/>
    <path fill="#FFF" fill-rule="nonzero" d="M114.5 211.4c.3.1.5.4.5.7-.4 1.9-1 4.2-2.5 5.8l-.1.1c-.5.6-1.2 1.1-2 1.4.9-.4 1.6-.9 2.1-1.5l.1-.1c1.4-1.6 2-3.9 2.4-5.8.1-.3-.1-.6-.5-.7h-.1c-.3 0-.5.2-.6.5v.1c.1-.3.4-.5.7-.5z"/>
    <path fill="#F9F9FA" fill-rule="nonzero" d="M121.5 195.5c.4-1.4.5-2.9.2-4.4-.4-2.7-1.9-5.1-4.2-6.8-1.8-1.3-3.9-2-6.1-2-1.4 0-2.7.3-4 .8-1.4-.9-3.1-1.3-4.8-1.3-2.4 0-4.7.9-6.4 2.5-3.3.1-6.5 1.8-8.4 4.5-1.9 2.7-2.5 6.2-1.6 9.3-.3.3-.6.7-.9 1.1-3.5 4.9-2.4 11.7 2.5 15.2 1.2.8 2.5 1.4 3.8 1.8.6 1 1.4 1.9 2.4 2.6 1.2.9 2.6 1.4 4 1.5.7.6 1.5 1 2.4 1.5l.7 4.2.1.5c.3 2.1 2.2 4.6 6.2 4.6.7 0 4.4-.1 6.5-2.6.5-.6.8-1.2 1-1.9.2-.8.3-1.6.2-2.4l-.3-2.1c.4-.3.8-.7 1.2-1.1l.2-.2c2.2-2.5 3.1-5.7 3.5-7.9.1-.5.1-1.1.1-1.6.8-.6 1.5-1.4 2.1-2.2 1.8-2.4 2.5-5.4 2-8.4-.4-1.9-1.2-3.7-2.4-5.2zm-1.9 12.1c-.8 1.1-1.8 2-3 2.7.4.6.6 1.4.5 2.1-.4 1.9-1.1 4.8-2.8 6.8l-.1.1c-.6.7-1.3 1.2-2.1 1.7l.7 3.6c.1.5 0 1.1-.2 1.6-.1.3-.2.5-.4.7-1.1 1.3-3.1 1.8-4.6 1.8-2.4 0-3.6-1.2-3.8-2.5l-.1-.5-1-5.5c-1.5-.6-2.7-1.3-3.7-2.2-1.3 0-2.5-.3-3.5-1.1-1-.7-1.8-1.7-2.2-2.8-1.5-.1-2.9-.6-4.1-1.5-1.8-1.3-3.1-3.2-3.5-5.4-.4-2.2.1-4.4 1.4-6.3.5-.7 1.1-1.3 1.7-1.8-1.4-2.7-1.2-6 .6-8.6 1.5-2.2 4.1-3.6 6.8-3.6h.7c1.3-1.6 3.2-2.6 5.3-2.6 1.4 0 2.8.4 4 1.2.2.2.4.3.6.5 1.2-.8 2.7-1.3 4.2-1.3 1.7 0 3.3.5 4.6 1.4 1.7 1.2 2.9 3 3.3 5.1.3 1.6.1 3.2-.6 4.6 1.5 1.3 2.4 3 2.8 5 .4 2.5-.1 4.9-1.5 6.8z"/>
    <path fill="url(#w)" fill-rule="nonzero" d="M108.2 214.3c.1 0 .2-.1.3-.1-.1 0-.2 0-.3.1z"/>
    <path fill="url(#x)" fill-rule="nonzero" d="M110.3 225.1l-.9-5.4c.1 0 .2-.1.2-.1.2-.1.5-.1.7-.2.8-.3 1.5-.8 2-1.4l.1-.1c1.4-1.6 2.1-3.9 2.5-5.8.1-.3-.1-.6-.5-.7-.3-.1-.6.1-.7.4-.2 1.2-.6 2.6-1.1 3.7v-.1c0 .1 0 .1-.1.2-.2-.5-.4-1-.5-1.4-.1-.2-.1-.3-.2-.4-.1-.3-.4-.5-.7-.4-.1 0-.1.1-.2.1-.1.2-.2.4-.1.6 0 .1.1.3.2.5.2.4.5 1 .6 1.6.2.6.1.9 0 .9l-.1.1c-.4.5-1 .9-1.6 1.1-.2.1-.3.1-.5.2h-.1l-.5-3.3c-.9.3-1.8.4-2.2.4h-.4c-.3 0-.5-.3-.5-.6 0-.1.1-.2.2-.3-.7 0-1.3-.2-2-.4h.1l.5 3s-.1 0-.1-.1c-.7-.2-1.3-.5-2-.9-.1 0-.2 0-.3-.1-1.2-.7-1.9-1.8-2.2-2.7v-.1-.2c-.1-.2-.1-.4-.1-.6v-.1c0-.1-.1-.3-.2-.4-.1-.1-.3-.1-.5 0-.3.1-.3.9-.1 1.8.2.6.6 1.2 1 1.7l.1.1c.3.4.7.7 1 1 1.1.9 2.5 1.4 3.8 1.8l1.3 7.2c1.3 0 2.6.1 3.8.1.1-.1.4-.3.3-.7z"/>
    <path fill="#EDEDF0" fill-rule="nonzero" d="M107.5 226.5h.4c.7-.1 1.4-.3 1.8-.5-1.2-.1-2.5-.1-3.8-.1v.1c.2.4.8.5 1.6.5z"/>
    <path fill="url(#y)" fill-rule="nonzero" d="M107.5 226.5h.4c.7-.1 1.4-.3 1.8-.5-1.2-.1-2.5-.1-3.8-.1v.1c.2.4.8.5 1.6.5z"/>
    <path fill="#F9F9FA" fill-rule="nonzero" d="M105.2 203.6c.8-.3 1.5-.5 2.3-.8-.8.3-1.6.6-2.3.8zM102.8 204.3c-.7.2-1.5.3-2 .5.6-.2 1.3-.3 2-.5zM98.8 214s0 .1 0 0c.2.7.6 1.3.9 1.7h.1c-.5-.5-.8-1-1-1.7zM107.4 202.8c.7-.3 1.4-.6 1.9-.8-.5.2-1.2.5-1.9.8zM99.6 212.7s.1 0 0 0c.1.1.1 0 0 0z"/>
    <path fill="#FFF" fill-rule="nonzero" d="M105.8 214.7c.1-.1.3-.2.4-.2 0 0 1 .1 2-.3.1 0 .2-.1.3-.1h.1c.4-.2.8-.5 1.2-.8l.1-.1.4-.4.5-.5c.1-.1.1-.2.2-.3.6-.9 1-2 1.1-3h.6c2 0 4-1 5.3-2.8 1.9-2.7 1.4-6.4-1-8.5-.1-.1-.3-.2-.5-.4-.3-.2-.6-.4-1-.6-.1 0-.1-.1-.2-.1.2-.2.4-.4.5-.6 1.8-2.6 1.2-6.1-1.4-7.9-.4-.3-.9-.5-1.3-.7-2.2-.7-4.8.1-6.2 2.1 0-.1-.1-.2-.1-.3-.1.1-.1.2-.2.2-.3-.8-.9-1.5-1.6-2-.8-.6-1.7-.8-2.7-.8-.3 0-.5.1-.8.1-1 .3-1.9.8-2.5 1.7-.2.3-.4.6-.5.9h-.2c0 .1-.1.1-.1.2-.6-.2-1.2-.2-1.8-.2-1.2 0-2.3.4-3.3 1-.5.4-1 .8-1.3 1.4-1.8 2.5-1.4 6 .8 8.1-.1 0-.2.1-.3.1l.1.1c-1.3.4-2.4 1.2-3.2 2.4-.2.3-.4.7-.6 1.1v.1l-.3.9c-.5 2.3.4 4.8 2.4 6.3 1.4 1 3.1 1.3 4.6 1.1v.2c0 .3 0 .6.1.9v.1c.1.2.1.4.2.6.3.6.7 1.1 1.2 1.4.5.4 1.1.6 1.7.7-.3-.4-.5-.9-.6-1.4-.7-2.4.3-3 .7-3.2.5-.2 1.1-.2 1.5.1.4.3.7.7.8 1.3 0 .5.3 1.3.9 2l.3-.3c.2-.2.3-.5.4-.7 0 0 .1 0 .1.1.3.2.6.4.9.5.1.1.3.1.4.2h.1c.5.2 1.1.3 1.8.3zm2.1-19.7c.6-.2 1.3.1 1.5.7l.8 2.4c-.8-.1-1.6.2-2.2.8l-.8-2.4c-.3-.7.1-1.3.7-1.5zM97 199.8c-.2-.6.1-1.3.7-1.5.6-.2 1.3.1 1.5.7l.8 2.4c-.8-.1-1.6.2-2.2.8l-.8-2.4zm6.3 8.1c.1-.1.1-.2.2-.2-.1.1-.2.1-.2.2-.2 0-.4 0-.6-.1-.7-.1-1.4-.3-2.1-.6-.4-.2-.8-.3-1.1-.6-.4-.2-.8-.5-1.2-.8l-.2-.1c-.1-.1-.1-.2 0-.3 0 0 0-.1.1-.1.2-.1.5-.2.7-.3.3-.1.6-.3 1-.4l1.7-.6c1.1-.4 2.3-.8 3.4-1.2 1.2-.4 2.3-.7 3.5-1.1l1.7-.5c.3-.1.7-.2 1-.3.2-.1.5-.1.7-.2.1 0 .2 0 .2.1v.1l-.1.2c-.1.5-.3 1-.5 1.4-.2.4-.4.8-.6 1.1-.4.7-.9 1.3-1.3 1.8-.1.1-.3.2-.4.4-.8.8-1.7 1.3-2.7 1.6-1 .5-2.1.7-3.2.5z"/>
    <path fill="url(#z)" fill-rule="nonzero" d="M203.6 209.1c.1.2.1.3.1.5.1 0 .2 0 .3.1-.1-.3-.3-.4-.4-.6z"/>
    <path fill="url(#A)" fill-rule="nonzero" d="M227 221.9v-1.3-1.4-1.4-.7-1c-.7.3-1.5.5-2.2.5 0 2.6 0 4.6.1 6.2h2.2c-.1-.3-.1-.6-.1-.9z"/>
    <path fill="url(#B)" fill-rule="nonzero" d="M203.3 223.1l-.2-.2-.5-.5c-.1-.1-.2-.2-.2-.3-.1-.2-.3-.3-.4-.5-.1-.1-.2-.2-.2-.3-.2-.2-.3-.4-.5-.5-.1-.1-.2-.2-.2-.3l-.6-.6c-.1-.1-.1-.2-.2-.2-.3-.3-.5-.6-.8-.9-.5-.6-1-1.2-1.5-1.9l-.1-.1-1.2-1.8c0-.1-.1-.1-.1-.2-.4-.6-.7-1.2-1.1-1.9 0-.1-.1-.1-.1-.2-.3-.6-.7-1.3-1-1.9 0-.1 0-.1-.1-.2-.3-.6-.5-1.1-.7-1.7-1-.4-2-.9-3-1.4 1.6 4.2 3.9 8.9 7.1 12.7 1.1 1.3 2 2.3 2.9 3.3.9-.1 1.9-.1 2.8-.2 0 0 0-.1-.1-.2z"/>
    <path fill="url(#C)" fill-rule="nonzero" d="M204.7 212.6c0 .1 0 .1.1.2.1.4.2.8.4 1.2v.1c.1.4.2.7.3 1.1 0 .1.1.2.1.3.1.4.2.7.3 1.1v.1l.3 1.2c0 .1.1.2.1.3.1.3.2.6.2.9 0 .1.1.2.1.3.1.4.2.7.3 1.1 0 .1 0 .1.1.2.1.3.1.6.2.8 0 .1 0 .2.1.3.1.3.1.6.2.9V223c.7 0 1.5-.1 2.3-.1-.4-2.1-1.3-5.4-2.9-10.6-.8-.1-1.6-.3-2.5-.4.1.3.2.5.3.7z"/>
    <path fill="url(#D)" fill-rule="nonzero" d="M214.9 199.4l8.1 2.3h.2c.4 0 .7-.2.8-.6.1-.4-.1-.9-.6-1l-8.1-2.3h-.2c-.4 0-.7.2-.8.6-.1.4.1.8.6 1z"/>
    <path fill="url(#E)" fill-rule="nonzero" d="M267.5 198.4l-1.2-.6c-.4.3-.9.6-1.3.9.9-.1 1.7-.2 2.5-.3z"/>
    <path fill="url(#F)" fill-rule="nonzero" d="M151.3 155.4c-1.2-.4-2.4-.6-3.6-.6-2.5 0-4.9.9-6.8 2.5l1.2-3.3c.1-.3 0-.7-.4-.8h-.2c-.3 0-.5.2-.6.4l-1.1 2.8v4.4l5.2 2h.2c.3 0 .5-.2.6-.4.1-.3 0-.7-.4-.8l-3.7-1.4c1.5-1.8 3.7-2.7 5.8-2.7 1.8 0 3.6.6 5.1 1.9 3.2 2.8 3.6 7.7.7 10.9-1.5 1.8-3.7 2.7-5.8 2.7-1.8 0-3.6-.6-5.1-1.9-1.7-1.5-2.7-3.6-2.7-5.9v2.5c0 1.1-.3 2.2-.9 3 1.9 2.8 5 4.6 8.6 4.6h.1c5.7-.1 10.3-4.7 10.2-10.4.2-4.2-2.4-8-6.4-9.5z"/>
    <path fill="url(#G)" fill-rule="nonzero" d="M144.1 167.6l.8.3.1.2 3.3-1.5c.2-.1.3-.3.3-.4l1.8-4.8c.1-.3 0-.7-.4-.8h-.2c-.3 0-.5.2-.6.4l-1.7 4.6-3.1 1.3c-.3 0-.4.4-.3.7z"/>
    <path fill="url(#H)" fill-rule="nonzero" d="M163 112.5c.1.5.7.5.8 0 1.2-4.8 5-8.6 9.8-9.8.5-.1.5-.7 0-.8-4.8-1.2-8.6-5-9.8-9.8-.1-.5-.7-.5-.8 0-1.2 4.8-5 8.6-9.8 9.8-.5.1-.5.7 0 .8 4.8 1.2 8.5 5 9.8 9.8z"/>
    <path fill="url(#I)" fill-rule="nonzero" d="M234.8 212.7c-.1.5-.2 1.1-.3 1.6v.1c-.1.5-.2 1-.4 1.5-.1.5-.3.9-.4 1.4-.1.4-.3.8-.4 1.1 0 .1-.1.3-.1.4-.1.2-.2.5-.3.7-.1.1-.1.3-.2.4-.1.2-.2.4-.2.6-.1.1-.1.3-.2.4-.1.2-.2.4-.2.5-.1.1-.1.3-.2.4-.1.2-.2.3-.2.5-.1.1-.1.2-.2.3 0 0 0 .1-.1.1.8 0 1.7 0 2.5.1.8-1.7 1.5-3.5 2-4.9.6-1.7 1.1-4 1.6-6.9l-2.4.6c-.1.3-.1.6-.2 1l-.1.1z"/>
    <path fill="url(#J)" fill-rule="nonzero" d="M191.9 204.4l-.3-.9c1.4 1.1 3.3 2 6 2.5h.1c.3 0 .5-.2.5-.5.1-.3-.1-.6-.4-.6-5.2-1-7.3-3.8-8.2-5.4-.1-.4-.3-.8-.4-1.2 0-.1-.1-.3-.1-.5l-.3-1.2c0-.2-.1-.4-.1-.5-.1-.4-.1-.8-.2-1.2v-.6-1c-.1.1-.2.1-.3.1-.1 0-.2 0-.3-.1-.5-.4-1.1-.7-1.6-1.1-.1 4.4.9 8.4 3 11.4l.3.9c1 .6 1.9 1.1 2.9 1.6-.3-.6-.4-1.2-.6-1.7z"/>
    <path fill="url(#K)" fill-rule="nonzero" d="M178.1 85.3c-.1-.3-.5-.3-.6 0-.8 3.2-3.4 5.8-6.6 6.6-.3.1-.3.5 0 .6 3.2.8 5.8 3.4 6.6 6.6.1.3.5.3.6 0 .8-3.2 3.4-5.8 6.6-6.6.3-.1.3-.5 0-.6-3.3-.9-5.8-3.4-6.6-6.6z"/>
    <path fill="url(#L)" fill-rule="nonzero" d="M180.4 204.7l3.1-.9-.9-3-3.1.9"/>
    <path fill="url(#M)" fill-rule="nonzero" d="M176.8 200.9c-.9 0-1.9.4-2.5 1.2l-4.6 6.2-3.6-1.3-.1-.5c-.4-1.2-1.3-2.2-2.5-2.6l-.7-2.3-3.1.9.5 1.7c-2 1-2.8 3.4-1.8 5.4.7 1.4 2.1 2.2 3.6 2.2.6 0 1.2-.1 1.8-.4.6-.3 1.2-.8 1.5-1.4l2.3.8-1.7 2.2c-.3-.1-.7-.1-1-.1-1.8 0-3.4 1.2-3.9 3-.6 2.1.7 4.3 2.9 4.9.3.1.7.1 1 .1 1.8 0 3.4-1.2 3.9-3 .2-.7.2-1.5-.1-2.2-.1-.3-.1-.5-.2-.8l10.3-13.5c-.6-.3-1.3-.5-2-.5zm-13.9 8.8c-.1 0-.1 0-.2.1-.2.1-.5.1-.8.1-.8 0-1.6-.5-1.9-1.3-.4-1.1.1-2.3 1.2-2.7.2-.1.5-.1.8-.1.8 0 1.6.5 1.9 1.3 0 0 0 .1.1.1.4 1-.1 2.1-1.1 2.5zm2.8 9.2h-.2c-.2.1-.4.1-.6.1-.9 0-1.7-.6-2-1.5-.3-1.1.3-2.3 1.4-2.6.2-.1.4-.1.6-.1.9 0 1.7.6 2 1.5v.1c.4 1.1-.2 2.2-1.2 2.5z"/>
    <path fill="url(#N)" fill-rule="nonzero" d="M274.7 179.9c.4-1.1 1.2-2 2.3-2.4-.4-.2-.8-.3-1.2-.4-.3-.1-.6-.1-.9-.2-.2 1-.4 1.9-.8 3h.6z"/>
    <path fill="url(#O)" fill-rule="nonzero" d="M180.9 206.3l.9 3.1c1.7-.5 2.6-2.3 2.1-4l-3 .9z"/>
    <path fill="url(#P)" fill-rule="nonzero" d="M284.7 187.9c-.4-.2-.7-.3-1-.3-.7 0-1.3.3-1.6.9-1.7 3.1-4.9 4.9-8.3 4.9-.8 0-1.5-.1-2.3-.3-2.9-.7-5.3-2.8-6.4-5.6l3.7 1c.2 0 .3.1.5.1.8 0 1.6-.6 1.8-1.4.3-1-.3-2-1.4-2.3l-7.3-1.9c-.2 0-.3-.1-.5-.1-.8 0-1.6.6-1.8 1.4l-1.9 7.3c-.3 1 .3 2 1.4 2.3.2 0 .3.1.5.1.8 0 1.6-.6 1.8-1.4l.5-2c2.4 4.4 6.9 6.9 11.5 6.9 2.1 0 4.2-.5 6.1-1.5 2.3-1.3 4.3-3.2 5.5-5.6.5-.9.2-2-.8-2.5z"/>
    <path fill="url(#Q)" fill-rule="nonzero" d="M172.7 212.8l2.1.8c.1-.1.3-.1.5-.1l3.8 1.3c.2 0 .3.2.3.3 1.3 0 2.6-.9 3-2.2l-7.7-2.7-2 2.6z"/>
    <path fill="url(#R)" fill-rule="nonzero" d="M176.1 196l-.9-3-3.1.9 1 3"/>
    <path fill="url(#S)" fill-rule="nonzero" d="M171.5 197.4l-.9-3.1-3.1 1 1 3"/>
    <path fill="url(#T)" fill-rule="nonzero" d="M166.9 198.8l-.9-3.1-3.1 1 1 3"/>
    <path fill="url(#U)" fill-rule="nonzero" d="M162.3 200.2l-.9-3.1c-1.7.5-2.6 2.3-2.1 4l3-.9z"/>
    <path fill="url(#V)" fill-rule="nonzero" d="M274.7 180c-.2 0-.4-.1-.6-.1-.4 1.3-1 2.7-1.8 4.1.9 1 1.3 2.4 1 3.8-.3 1.3-1.3 2.3-2.5 2.8l.9.3c3-2.5 5.1-4.5 6.1-5.5l-.3-.1c-1.1-.3-2-1-2.5-1.9-.6-1-.7-2.1-.4-3.1 0-.1.1-.2.1-.3z"/>
    <path fill="url(#W)" fill-rule="nonzero" d="M274.9 191.2c2.2-.3 4.2-1.7 5.3-3.7v-.1c.3-.4.6-.8 1-1.1l-1-.3s0 .1-.1.1c0 .2-1.9 2.2-5.2 5.1z"/>
    <path fill="url(#X)" fill-rule="nonzero" d="M187.6 158.4c-1.4-.9-3.2-.6-4 .7-.8 1.3-.3 3 1.1 3.9 1.4.9 3.2.6 4-.7.8-1.2.3-3-1.1-3.9z"/>
    <path fill="url(#Y)" fill-rule="nonzero" d="M276.7 136.6c-.3.7-.4 1.4-.4 2.1l-.9.3c-1.2.5-2.5 1.1-3.7 1.8-.2.1-.4.3-.7.4-.4.2-.7.5-1.2.8-.2.1-.4.3-.6.4l-.6.5c-.1.1-.3.2-.4.3h-.8c-1.1.1-9.8 2-18 3.9.6-1.9 1.2-3.8 1.6-5.8 1.3 0 2.7-.1 4-.2 1 .9 2.3 1.3 3.7 1.3 2.1 0 3.9-1.1 4.9-2.7.5.1 1 .1 1.5.1 4.8 0 9.1-3 10.7-7.5 3-1 5.2-3.7 5.7-6.9.6-.9 1.2-1.8 1.8-2.8 4-1.5 6.6-5.7 6-10 0-.4-.1-.7-.2-1.1 1.5-1.9 2.1-4.4 1.8-6.8-.3-2.1-1.2-4.1-2.7-5.6-.3-2.4-.8-4.7-1.5-7 .1-.4.1-.9.1-1.3 0-3.3-1.7-6.4-4.6-8.1-2.8-4.3-6.6-8-10.8-10.8-1.3-3.8-4.8-6.4-9-6.4-1.4 0-2.8.3-4.1.9-1.2-.3-2.4-.6-3.6-.8-1.7-1.5-4-2.4-6.2-2.4-.4 0-.8 0-1.2.1-2 .2-3.8 1.1-5.3 2.5-2.4.5-4.8 1.2-7 2.1-.6-.1-1.3-.2-2-.2-4.6 0-8.5 3.4-9.3 7.8l-.1.1c-4.1 1.1-7 4.8-7 9.1v.7c-.4.8-.8 1.7-1.1 2.5-1.6 1-2.6 2.8-2.6 4.8 0 .4 0 .7.1 1.1-.6-.6-1.2-1.2-1.9-1.7-.2-1.3-.8-2.4-1.4-3.4.3-2-.6-3.9-1.8-6.3-.2-.4-.4-.9-.7-1.3-.5-1-1.4-1.6-2.4-1.6-1.5 0-2.7 1.2-3.9 3.8-.7 1.6-2.2 5.3-1.1 7.6-.5 3.6 0 6 1.5 7.1l.1.1c.2 1.6.6 3.2 1.1 4.6-11 4.2-28.2 12.1-33.8 19.4-1.3 1.8-1.6 4.3-.6 7.6 1.9 6.5 8.8 16.5 14 18.4 7.3 2.7 17.2 4.3 27.1 4.3h2c-2.1 1.4-4.1 2.9-6 4.5-3.9 1.5-7 2.8-9.5 3.9-.5-.8-1-1.5-1.6-2.2-1.1-1.3-2.4-2.4-3.8-3.3-2.9-1.8-6.2-2.8-9.7-2.8-6.2 0-11.9 3.1-15.2 8.3-1.1 1.7-1.8 3.4-2.3 5.3l.6.9c.2.3.1.6-.1.8-.1.1-.2.1-.3.1-.2 0-.3-.1-.5-.2-.5 3.2-.1 6.5 1 9.4 1.6 2.5 3.3 4.8 5 7.1.6.6 1.3 1.1 2.1 1.6 2.9 1.8 6.2 2.8 9.7 2.8 1.2 0 2.4-.1 3.5-.3l2.4-.6c-.2 1.1-.3 2.1-.3 3.2.7.5 1.4 1 2.2 1.5v-.1-1.3c0-.2 0-.5.1-.7 0-.4.1-.9.1-1.3 0-.3.1-.5.1-.8.1-.4.2-.9.2-1.3v-.2c0-.2.1-.4.1-.6.1-.5.2-.9.3-1.4.1-.3.1-.6.2-.8.1-.5.3-.9.4-1.4.1-.3.2-.6.3-.8.2-.5.4-1 .5-1.4.1-.3.2-.6.3-.8.2-.5.4-1 .7-1.5.1-.3.2-.5.4-.8.3-.5.5-1.1.8-1.6.1-.2.2-.5.4-.7.3-.6.7-1.2 1-1.8.1-.2.2-.4.3-.5.2-.3.4-.6.6-.8 3-4.4 5.4-6.8 5.4-6.8.1-.1.2-.3.2-.4 0-.1-.1-.3-.2-.4-.2-.2-.6-.2-.8 0-.1.1-2.3 2.3-5.1 6.4-1.1.2-2.1.3-3.1.5h-.1c-.4.1-.8.1-1.1.2h-.2c-.3 0-.6.1-.9.1h-.2c-.3 0-.6.1-.9.1-.2 0-.4 0-.6.1h-.7-.2s-.8 0-1.2-.5c0-.1-.1-.1-.1-.2s-.1-.1-.1-.2v-.6c0-.2.1-.5.3-.9.1-.1.1-.2.2-.4.2-.3.6-.6 1.2-1 .1 0 .1-.1.2-.1s.1-.1.2-.1c1.1-.6 2.6-1.4 4.4-2.2 4.1-1.9 9.7-4.1 14.3-5.9.1 0 .1-.1.2-.1.5-.4 1-.9 1.6-1.3.4-.3.7-.6 1.1-.8.3-.3.7-.5 1-.8.8-.6 1.5-1.1 2.3-1.6.2-.1.4-.3.6-.4.5-.3 1.1-.7 1.6-1 .1-.1.3-.2.4-.3.8-.5 1.6-.9 2.4-1.4.3-.2.6-.4 1-.5 4.1-.6 10.4-1.6 14.2-3.2.3-.1.4-.4.3-.7-.1-.3-.4-.4-.7-.3-5.7 2.3-17.7 3.6-17.8 3.6h-.2c-1.7.1-3.4.2-5.1.2-9.9 0-19.5-1.6-26.3-4.1-.7-.3-1.4-.7-2.3-1.4-.2-.2-.4-.3-.6-.5-.4-.4-.8-.8-1.3-1.2-.2-.2-.4-.4-.6-.7-.4-.5-.9-1-1.3-1.5s-.8-1.1-1.2-1.6c-.6-.8-1.2-1.7-1.8-2.6-.4-.6-.7-1.2-1.1-1.8-2-3.6-3.3-7.2-2.9-9.7v-.1c.1-.6.3-1.1.7-1.6.2-.2.4-.4.6-.7.1-.1.1-.2.2-.2.1-.2.3-.3.4-.5l.3-.3.4-.4.3-.3c.1-.1.3-.3.5-.4.1-.1.2-.2.4-.3.2-.1.3-.3.5-.4.1-.1.3-.2.4-.3.2-.1.3-.3.5-.4.1-.1.3-.2.4-.3.2-.1.4-.3.6-.4.1-.1.3-.2.4-.3.2-.1.4-.3.6-.4.1-.1.3-.2.4-.3.2-.2.5-.3.7-.5.1-.1.2-.2.4-.2.3-.2.7-.4 1-.6.1-.1.2-.1.3-.2.3-.2.7-.4 1-.6.2-.1.3-.2.5-.3.2-.1.5-.3.7-.4.2-.1.4-.2.5-.3.2-.1.5-.3.7-.4l.6-.3c.2-.1.5-.3.7-.4l.6-.3c.2-.1.5-.2.7-.4l.6-.3c.2-.1.5-.2.7-.4l.6-.3c.2-.1.5-.2.7-.3.2-.1.4-.2.7-.3.2-.1.5-.2.7-.3.2-.1.5-.2.7-.3.2-.1.5-.2.7-.3.2-.1.4-.2.7-.3.3-.1.5-.2.8-.3.5-.2.9-.4 1.4-.6l.6-.3c.3-.1.5-.2.8-.3l.6-.3c.3-.1.5-.2.8-.3l.6-.3c.3-.1.5-.2.8-.3.2-.1.4-.2.6-.2.3-.1.5-.2.8-.3.2-.1.4-.2.6-.2.3-.1.5-.2.8-.3.2-.1.4-.1.5-.2.3-.1.5-.2.8-.3.2-.1.4-.1.5-.2.3-.1.5-.2.8-.3.2-.1.3-.1.5-.2s.4-.1.6-.2c-.1.2-.1.5 0 .7 1.8 5.7 5.9 6.6 6.1 6.6h.2c.5 0 1-.4 1.1-.9.1-.6-.3-1.2-.9-1.3-.1 0-2-.5-3.5-3 3.4.1 7.2-2.6 7-6 1.4 1 3.5 2.9 3.5 5.5 0 3.8-3.7 5.1-3.9 5.2-.3.1-.4.4-.4.7 0 0 0 .1.1.1.1.2.3.3.5.3h.2s4.6-1.6 4.7-6.2c0-2-1-3.6-2.1-4.8l1.4-.4c.5.4 1.7 1.2 3.2 1.2h.6c.3 0 .5-.3.5-.6v-.1c-.1-.2-.3-.4-.6-.3-1.7.2-3.1-1.1-3.1-1.1-.1-.1-.4-.2-.6-.1l-2.3.7c-.2-.2-.5-.4-.7-.5 0-.7.1-1.4.1-2.2 0-.4.1-.9.2-1.3s.1-.9.2-1.3c-.5-.6-.7-1.3-.7-2.1 0-.6.1-1.1.4-1.5.2-.5.5-.9.9-1.2.1-.1.3-.2.4-.3.1-.1.3-.2.5-.2.2-.5.3-.9.5-1.3.2-.5.4-.9.6-1.4.1-.3.3-.7.5-1 0-.3-.1-.7-.1-1v-.1-.1c0-.6.1-1.3.3-1.8.2-.8.6-1.6 1.1-2.2.2-.3.5-.7.8-.9.5-.5 1.1-.9 1.7-1.3.6-.3 1.3-.6 2.1-.7.3-.4.7-.7 1-1 0-.3.1-.7.2-1 .1-.4.2-.7.3-1 .9-2.3 3-4 5.5-4.5h.3c.3 0 .7-.1 1-.1.3 0 .6 0 .8.1.5.1.9.1 1.3.3.6-.3 1.3-.5 1.9-.8 1.3-.5 2.6-.9 4-1.2.7-.2 1.4-.3 2.1-.4.6-.6 1.2-1.1 2-1.5.8-.4 1.6-.7 2.5-.8.3 0 .6-.1.9-.1h1c.2 0 .4.1.5.1.1 0 .2.1.3.1.2 0 .3.1.5.1.1 0 .2.1.3.1.1.1.3.1.4.2.1 0 .2.1.3.1.1.1.3.2.4.2.1.1.2.1.3.2.1.1.3.2.4.3l.2.2c.2.2.4.3.6.5 1.7.2 3.3.6 4.9 1.1.6-.3 1.2-.6 1.8-.8.1 0 .2 0 .3-.1.2-.1.5-.1.7-.2h1c.4 0 .8 0 1.2.1h.2c.4.1.7.2 1 .3.1 0 .1 0 .2.1.3.1.7.3 1 .4 0 0 .1 0 .1.1l.9.6c.3.2.6.5.8.8.3.3.5.6.7.9v.1c.2.3.4.7.5 1v.1c.1.4.3.7.4 1.1.1.4.2.8.2 1.3 3.1 2.5 5.8 5.5 7.8 8.9 1.2 0 2.2.3 3.2.8.6.3 1.1.7 1.6 1.1.5.4.9.9 1.2 1.4 0 0 0 .1.1.1.1.2.3.5.4.7 0 0 0 .1.1.1l.3.9v.1c.1.2.1.5.2.7v.2c0 .3.1.6.1.9V92.9c0 .2-.1.5-.1.7-.3 1.7-1.2 3.1-2.5 4.2.2 1.5.3 2.9.3 4.4 1.2 1.2 2 2.8 2 4.7.1 2.2-.9 4.2-2.5 5.5.2.6.3 1.2.3 1.8.1 3.4-2.4 6.3-5.7 6.9-.8 1.2-1.7 2.3-2.6 3.3-.5 2.8-2.8 4.8-5.5 5-1.2 3.7-4.9 6.2-9 5.8-.9-.1-1.8-.3-2.6-.7h-.2c-.4 1.6-1.9 2.6-3.5 2.5-.3 0-.5-.1-.8-.2-.3 1.2-.6 2.4-.9 3.5h1-2.4c.2-3.6-.3-5.8-.4-5.9-.1-.3-.4-.5-.7-.4h-.1c-.2.1-.4.4-.3.6 0 0 .9 3.8-.1 9.4-.4 1.4-.8 2.8-1.3 4.3-.1.2-.1.4-.2.6-.3.9-.6 1.7-1 2.6 7.4-1.8 15.5-3.6 19.4-4.4l-.6.6c-.9.9-1.9 2-2.7 2.9-.8 1-1.4 1.8-1.8 2.3-.2.3-.4.5-.5.7 0 0 0 .1-.1.1-.1.1-.1.2-.1.2-.2.3-.2.6-.3.9-2.9 1.5-6 3.1-9 4.5-2.9 1.4-5.5 2.7-7.6 3.6-.2.1-.3.2-.5.2-.1.1-.1.3-.2.4-.1.2-.2.4-.2.6 0 0 0 .1-.1.1-.1.4-.3.7-.4 1.1v.1c-.1.4-.3.8-.4 1.2-.1.4-.3.9-.4 1.3-.4 1.4-.8 2.9-1.1 4.4-1 4.8-1 5-.9 5.1.1.2.3.4.5.4h.2c.3-.1.4-.3.4-.6s.2-1.4.5-2.9c.9-.2 1.8-.3 2.6-.4 1.2-1.2 2.8-2 4.5-2.1 2-.2 3.9.6 5.3 1.8.8-.3 1.7-.5 2.7-.4 1.3.1 2.6.5 3.6 1.3 1.3-.2 2.4-.4 3.5-.7.4-.1.8-.3 1.2-.4.9-.8 1.9-1.6 3.1-2.2.7-.4 1.4-.6 2.1-.9 2.1-1.9 3.3-4 3.8-5.3.1-.2.1-.3.2-.5 0-.1.1-.3.1-.3.1-.2.1-.3.1-.3v.1c.1.1.2.3.3.6.4.9 1.1 2.6 1.5 4.9.8.1 1.6.2 2.3.3-.6-4.3-2.2-7-2.3-7.1-.4-.7-1.1-1.1-1.9-1.1h-.3c-.9.1-1.6.8-1.8 1.7-.1.2-1.6 5.6-7.9 8-2-1.7-4.3-3.1-7-4.3-2.9-1.2-6.1-1.8-9.7-1.8-.8 0-1.6 0-2.5.1.1-.2.2-.4.2-.6 2.4-1.1 9.7-4.6 16.1-7.9.5.4 1.1.7 1.7.7.2 0 .4 0 .7-.1 0 0 .1 0 .3-.1.2-.1.5-.2.8-.3.6-.2 1.5-.6 2.7-1.2.1 0 .1-.1.2-.1.1.1.1.2.2.2.8.9 2 1.5 3.4 1.7.5.1.9.1 1.3.1 1.3 0 2.5-.4 3.5-1.1 2-1.5 2.3-4.1 2.3-4.2.1-.6-.4-1.2-1-1.2-.2 0-.4 0-.6.1-.3.2-.6.5-.6.9 0 0-.2 1.8-1.4 2.7-.7.6-1.8.8-3.1.6-1.1-.2-1.9-.6-2.4-1.4-1.1-1.6-.6-4-.5-4.1v-.6c-.1-.4-.4-.7-.8-.8-.6-.1-1.2.2-1.3.8 0 .1-.7 2.9.6 5.3h-.1c-1.1.5-2 .9-2.6 1.1-.3.1-.6.2-.7.3-.2.1-.3.1-.3.1-.4.1-.7 0-1-.1-.3-.2-.6-.5-.6-.8-.1-.3-.1-.7.1-1l.1-.2c.1-.2.2-.4.4-.7.3-.4.8-1.2 1.7-2.2.8-1 1.7-2 2.6-2.9.5-.5 1-1 1.6-1.5.6-.5 1.1-1 1.7-1.5.2-.2.4-.3.6-.5l.6-.5c.2-.1.4-.3.6-.4.1-.1.2-.1.3-.2.5 1.7 1.6 3.3 3 4.4.3.2.7.5 1 .7-.1.1-.2.2-.3.2-.2.2-.4.3-.6.4l-.6.5c-.1 0-.1.1-.2.1.4.2.8.3 1.2.5l.3-.3c.2-.2.4-.3.6-.5.7-.5 1.2-1 1.7-1.5 1-1 1.9-2 2.6-3.1.5-.7.8-1.3 1.1-1.8.3 0 .6 0 .9-.1 1.3-.3 4.6-1.7 6.4-7.7.2-.5 0-1.1-.5-1.5-.4-.4-1-.4-1.5-.2-.9.5-2.5 1-4.4.9-1.7-.1-3.3.5-4.3 1.6-.4-.4-.6-.1-.8.3 0-.1 0 0 0 0zm12.3-31.5c0 .3.1.6.1.9-.1-.3-.1-.6-.1-.9 0-.4-.1-.7-.2-1.1.1.4.1.8.2 1.1zm-104.7 62.1c-1.2 2-.9 3.4-.5 4.3.7 1.2 1.9 1.7 2.9 1.8h.6c.5 0 1.5-.1 4.7-.5-.7 1.3-1.4 2.6-2 3.9-.2-.2-.4-.4-.7-.5-1.5-.8-3.3-.3-4.1 1.1-.8 1.4-.2 3.2 1.3 4 .5.3 1 .4 1.5.4-.5 1.6-.9 3.1-1.2 4.6-2 .8-4 1.1-6.1 1.1-3.1 0-6.3-.9-9.1-2.6-7.9-5-10.2-15.5-5.2-23.3 3.2-5.1 8.7-7.8 14.3-7.8 3.1 0 6.3.9 9.1 2.6 2.1 1.3 3.7 3.1 5 5-9.3 4-10 5.2-10.5 5.9zm17.8-77.5c0-.1 0-.2-.1-.3v-.2-.4-.3-.4-.3c0-.1.1-.3.1-.4 0-.1 0-.2.1-.3 0-.2.1-.3.1-.5 0-.1.1-.2.1-.3.1-.2.1-.3.2-.5 0-.1.1-.2.1-.3.1-.2.1-.4.2-.6 0-.1 0-.1.1-.2.1-.2.2-.5.3-.7 0-.1.1-.1.1-.2.1-.2.2-.3.3-.5 0-.1.1-.1.1-.2.1-.1.1-.2.2-.4 0-.1.1-.1.1-.2.1-.1.1-.2.2-.3 0-.1.1-.1.1-.2l.2-.2s.1 0 .1-.1c2.4 1.9 2.2 7.3 2.2 7.4v.1c-1.1 1.6-3.1 2.1-4.4.9-.1-.1-.2-.1-.2-.2-.1-.1-.1-.2-.2-.3v.1zM204 98c-.1-.4-.1-.8-.1-1.2-.1-.1-.3-.1-.4-.2-.1-.1-.3-.2-.4-.3-.1-.1-.2-.1-.2-.2-.2-.3-.3-.7-.4-1.3-.1-.5-.1-1-.1-1.6 0-.3 0-.7.1-1.1 2.1 1.8 5.2.5 5.8-1.5.1.2.2.4.3.7.4 1.2.6 2.2.7 2.6v.2c-.8 2.2-3.3 3.4-5.3 2.7.1.7.2 1.3.3 2-.3-.2-.3-.5-.3-.8zm9.1 1.2c-.2 3-4.3 5-7.1 4.5-.7-.5-1.2-1.8-1.6-3.4-.1-.4-.2-.7-.2-1.1V99c2.9 1.2 6.1-.8 6.5-3.5.4.3.9.7 1.4 1.2.7.7 1 1.5 1.1 2.1-.1.1-.1.3-.1.4zm74.3 13.9c-.1-.7-.3-1.3-.5-1.9.2.6.4 1.2.5 1.9 0 .2 0 .5.1.7-.1-.3-.1-.5-.1-.7zm-1.1-12.7c.5.4 1 .9 1.4 1.5-.4-.6-.8-1.1-1.4-1.5zm-20.4 37.3h-.5.5zm-3.3-.4c.3.1.7.2 1 .2-.4-.1-.7-.1-1-.2-.1 0-.1 0 0 0-.1 0-.1 0 0 0zm-2 2.5c-.3.2-.7.3-1.1.4.5 0 .8-.2 1.1-.4zm-1.4.5h-.3.3zm-12.9 26.1h.1-.4.3zm31.4-29.4c.6-1.2 1.9-1.9 3.5-1.9h.6c.5.6-.2 1 .4 2.1.7 1.3 2.3-.3 3.3.6-1.5 2.6-3.3 3.3-4.2 3.5-1.2.3-2.5 0-3.1-.8-.8-1-1-2.4-.5-3.5zm-.2 4.3c.5.6 1.2.9 2 1.1-.2.4-.5.8-.8 1.3-.4.6-.9 1.2-1.3 1.7-1.7-.7-3.1-2.3-3.5-4.2v-.4c.7-.3 1.3-.7 2-.9.3-.1.5-.2.7-.3.2.7.5 1.2.9 1.7z"/>
    <path fill="#FFF" fill-rule="nonzero" d="M219.1 84.8c0-.6.1-1.3.3-1.8-.2.5-.3 1.2-.3 1.8z"/>
    <path fill="url(#Z)" fill-rule="nonzero" d="M219.1 84.8c0-.6.1-1.3.3-1.8-.2.5-.3 1.2-.3 1.8z"/>
    <path fill="url(#aa)" fill-rule="nonzero" d="M219.1 84.8c0-.6.1-1.3.3-1.8-.2.5-.3 1.2-.3 1.8z"/>
    <path fill="url(#ab)" fill-rule="nonzero" d="M178.6 177.5c-.4-.2-.8-.3-1.1-.4l2.7 3.2c.2.2.2.6-.1.8-.1.1-.2.1-.4.1s-.3-.1-.4-.2l-3.3-4c-.9.1-1.6.6-2 1.3-.2.3-.3.7-.3 1.1 1.2 1.3 2.4 2.6 3.6 3.7 1.4.3 2.7-.2 3.3-1.2.7-1.4-.2-3.4-2-4.4z"/>
    <path fill="url(#ac)" fill-rule="nonzero" d="M267.8 172.1c-2.3 1.3-4.3 3.2-5.5 5.6-.5.9-.1 2.1.8 2.5h.1l.4.1c.2 0 .3.1.5.1.7 0 1.4-.4 1.7-1.1 1.7-3 4.9-4.8 8.2-4.8.8 0 1.6.1 2.4.3 2.9.7 5.3 2.8 6.4 5.6l-3.7-1c-.2 0-.3-.1-.5-.1-.8 0-1.6.6-1.8 1.4-.3 1 .3 2 1.4 2.3l7.3 1.9c.2 0 .3.1.5.1.8 0 1.6-.6 1.8-1.4l1.9-7.3c.3-1-.3-2-1.4-2.3-.2 0-.3-.1-.5-.1-.8 0-1.6.6-1.8 1.4l-.5 2c-2.4-4.4-6.9-6.9-11.5-6.9-2.2.2-4.3.7-6.2 1.7z"/>
    <path fill="url(#ad)" fill-rule="nonzero" d="M180.7 194.6c-.4-1.4-1.7-2.3-3.1-2.3-.3 0-.6 0-.9.1l.9 3.1 3.1-.9z"/>
    <path fill="url(#ae)" fill-rule="nonzero" d="M172.6 172.1c.8-1.4.2-3.2-1.3-4-1.5-.8-3.3-.3-4.1 1.1-.8 1.4-.2 3.2 1.3 4 1.5.8 3.3.3 4.1-1.1z"/>
    <path fill="url(#af)" fill-rule="nonzero" d="M175.8 164.2c1.7 0 3.1-1.3 3.1-2.9 0-1.6-1.4-2.9-3.1-2.9-1.7 0-3.1 1.3-3.1 2.9 0 1.6 1.4 2.9 3.1 2.9z"/>
    <path fill="url(#ag)" fill-rule="nonzero" d="M224.1 117.1c.4 0 .9.1 1.3.1 0-.1.1-.2.1-.3v-3c0-.7-.6-1.3-1.3-1.3-.7 0-1.3.6-1.3 1.3v3c0 .1 0 .2.1.3.2-.1.7-.1 1.1-.1z"/>
    <path fill="url(#ah)" fill-rule="nonzero" d="M237.5 199.2c.6-7.2 1.2-16.6 1.3-16.7 0-.3-.2-.6-.5-.6s-.6.2-.6.5c0 .2-1.4 19.4-1.9 23.9v.3c0 .2-.1.5-.1.7v.1c-.1.6-.2 1.1-.2 1.7v.2c.8-.2 1.6-.4 2.3-.6.1-.9.3-1.8.4-2.8 5.1-.6 12.8-2.1 20-5.6 2.3-1.3 4.3-2.6 6.2-3.9-.5-.4-1-.8-1.5-1.3-.8.7-1.8 1.2-2.9 1.2-.3 0-.7 0-1-.1-1.4.9-3 1.8-4.7 2.6-6.6 3-13 4.1-17.1 4.5.1-.9.2-1.8.2-2.9 1.8-.1 3.6-.2 5.5-.5 5.9-.9 10.7-2.9 14.2-4.8-.2-.2-.4-.5-.6-.8 0 0 0-.1-.1-.2-3.4 1.9-8 3.8-13.7 4.7-1.8.2-3.5.4-5.2.4z"/>
    <path fill="url(#ai)" fill-rule="nonzero" d="M264.9 127.4c1 0 2.1-.3 3.3-1.3 2.4-2 2.5-4.3 2.3-5.6 1.4-.2 2.8-.8 4.2-2.2 3.6-3.7 2.9-7.8 2.1-9.4-.3-.5-1-.8-1.5-.5-.5.3-.8 1-.5 1.5 0 0 1.7 3.4-1.7 6.8-2.9 2.9-5.8 1.1-6.1.9-.5-.4-1.2-.2-1.6.3-.4.5-.2 1.2.3 1.6.8.5 2.1 1.1 3.7 1.2.2.9.2 2.9-1.9 4.7-2.6 2.1-4.8.3-4.9.2-.2-.2-.6-.2-.8.1-.2.2-.2.6.1.8 0-.2 1.2.9 3 .9z"/>
    <path fill="url(#aj)" fill-rule="nonzero" d="M249.6 126.6c1 1 2.7 2.2 5.8 2.2.8 0 1.7-.1 2.7-.3.3-.1.5-.3.4-.6-.1-.3-.3-.5-.6-.4-4.9.9-6.7-1-7.4-1.7-1.3-1.3-1.9-4.5-1.9-4.6 0-.2-.2-.4-.4-.4-.1 0-5.1-1.5-8.5-5.7-3.1-3.9-3.5-8.4-3.5-8.4 0-.2-.1-.4-.3-.5-.8-.4-3.2-1.7-3.8-3.2-1.3-3.1.1-4.9.1-4.9.2-.2.2-.6-.1-.8-.2-.2-.6-.2-.8.1 0 0-.5.6-.8 1.7l-3.3-.1c-.3 0-.6.2-.6.5v.2c.1.2.3.4.5.4l3.2.1c0 .9.1 2 .6 3.2.4.9 1.2 1.7 2 2.3.8.6 1.6 1.1 2.1 1.3 0 .3.1.8.3 1.4.4 1.8 1.3 4.7 3.5 7.3.4.5.8 1 1.3 1.4 2.9 2.9 6.4 4.2 7.4 4.6.2 1 .8 3.6 2.1 4.9z"/>
    <path fill="url(#ak)" fill-rule="nonzero" d="M179 200.2l3.1-1-.9-3-3.1.9"/>
    <path fill="url(#al)" fill-rule="nonzero" d="M231.2 188.3l-16.2-4.7c-.3-.1-.6-.1-.9-.1-1.5 0-2.8 1-3.2 2.4l-5.6 19.4c-.5 1.8.5 3.7 2.3 4.2l16.2 4.7c.3.1.6.1.9.1 1.5 0 2.8-1 3.2-2.4l5.6-19.4c.5-1.8-.5-3.7-2.3-4.2zm-1.4 4.9l-4.7 16.2c-.2.7-.9 1.2-1.6 1.2-.2 0-.3 0-.5-.1l-12.9-3.7c-.9-.3-1.4-1.2-1.2-2.1l4.7-16.2c.2-.7.9-1.2 1.6-1.2.2 0 .3 0 .5.1l12.9 3.7c.9.2 1.5 1.2 1.2 2.1z"/>
    <path fill="url(#am)" fill-rule="nonzero" d="M99.3 199.1c-.2-.6-.9-1-1.5-.7-.6.2-1 .9-.7 1.5l.8 2.4c.6-.6 1.4-.9 2.2-.8l-.8-2.4z"/>
    <path fill="url(#an)" fill-rule="nonzero" d="M224.4 196.8l-8.1-2.3h-.2c-.4 0-.7.2-.8.6-.1.4.1.9.6 1l8.1 2.3h.2c.4 0 .7-.2.8-.6.1-.4-.2-.8-.6-1z"/>
    <path fill="url(#ao)" fill-rule="nonzero" d="M108 198.9c.6-.6 1.4-.9 2.2-.8l-.8-2.4c-.2-.6-.9-1-1.5-.7-.6.2-1 .9-.7 1.5l.8 2.4z"/>
    <path fill="url(#ap)" fill-rule="nonzero" d="M106.2 206.7c1-.5 2-1 3.1-.7.1-.1.3-.2.4-.4.5-.5.9-1.1 1.3-1.8.2-.4.4-.7.6-1.1.2-.4.3-.9.5-1.4l.1-.2v-.1c0-.1-.1-.2-.2-.1-.2.1-.5.1-.7.2-.3.1-.7.2-1 .3l-1.7.5c-1.2.3-2.3.7-3.5 1.1-1.1.4-2.3.8-3.4 1.2l-1.7.6c-.3.1-.6.3-1 .4-.2.1-.5.2-.7.3 0 0-.1 0-.1.1-.1.1 0 .2 0 .3l.2.1c.4.3.8.6 1.2.8.4.2.8.4 1.1.6.7.3 1.4.5 2.1.6.2 0 .4 0 .5.1.1-.1.1-.2.2-.2.7-.9 1.7-1 2.7-1.2zm-5.4-1.9c.6-.1 1.3-.3 2-.5-.7.2-1.4.3-2 .5zm6.6-2c.7-.3 1.4-.6 1.9-.8-.5.2-1.2.5-1.9.8-.7.3-1.5.6-2.3.8.8-.2 1.6-.5 2.3-.8z"/>
    <path fill="url(#aq)" fill-rule="nonzero" d="M225.3 193.6l-8.1-2.3h-.2c-.4 0-.7.2-.8.6-.1.4.1.9.6 1l8.1 2.3h.2c.4 0 .7-.2.8-.6.1-.4-.2-.9-.6-1z"/>
    <path fill="url(#ar)" fill-rule="nonzero" d="M164 84.3c-.2 0-.2.3 0 .3 1.8.5 3.3 1.9 3.7 3.7 0 .2.3.2.3 0 .5-1.8 1.9-3.3 3.7-3.7.2 0 .2-.3 0-.3-1.6-.4-2.9-1.6-3.5-3.1h-.7c-.6 1.5-1.9 2.7-3.5 3.1z"/>
    <path fill="url(#as)" fill-rule="nonzero" d="M213.9 202.6l3.2.9h.2c.4 0 .7-.2.8-.6.1-.4-.1-.9-.6-1l-3.2-.9h-.2c-.4 0-.7.2-.8.6-.1.4.2.9.6 1z"/>
    <path fill="url(#at)" fill-rule="nonzero" d="M227.9 119.2l-.3-.3c-.1-.1-.2-.2-.3-.2-.7-.5-1.8-1.1-3.2-1.1-2.9 0-4.4 2.2-4.5 2.3-.3.5-.2 1.2.3 1.5.5.3 1.2.2 1.5-.3 0 0 .9-1.3 2.6-1.3 1.1 0 1.9.5 2.3.9l.2.2.2.2c.2.3.6.5.9.5.2 0 .4-.1.6-.2.5-.3.7-1 .3-1.5.1 0-.1-.3-.6-.7z"/>
    <path fill="url(#au)" fill-rule="nonzero" d="M196.8 121.5c.5.3 1.2.2 1.5-.3 0 0 .1-.2.4-.4.4-.4 1.2-.9 2.2-.9 1.7 0 2.6 1.3 2.6 1.3.2.3.6.5.9.5.2 0 .4-.1.6-.2.5-.3.7-1 .3-1.5-.1-.1-1.5-2.3-4.5-2.3-1.9 0-3.2 1-3.9 1.7l-.3.3c-.2.2-.3.4-.3.4-.2.4 0 1.1.5 1.4z"/>
    <path fill="url(#av)" fill-rule="nonzero" d="M200.9 117.1c.4 0 .9.1 1.3.1 0-.1.1-.2.1-.3v-3c0-.7-.6-1.3-1.3-1.3-.7 0-1.3.6-1.3 1.3v3c0 .1 0 .2.1.3.3-.1.7-.1 1.1-.1z"/>
    <path fill="url(#aw)" fill-rule="nonzero" d="M207.7 137.3l-1.5-.6c-.7-.3-1.5-.5-2.2-.8l-3.8-1.3-7.5-2.4c-.2-.1-.4-.1-.6-.2-1.1 1.2-2.3 2.4-2.8 2.7-.4.2-3.4-.5-3.5-.8-.1-.2.3-1.9.7-3.5-.5-.1-.9-.3-1.4-.4l-.6-.1c-.3 1.4-.7 3.1-.9 3.2-.4.3-2.9-1.2-3.1-1.5-.1-.2-.5-1.6-.7-2.9-.3-.1-.5-.1-.8-.2-.5-.1-1.1-.2-1.6-.4h-.2c-.2.1-.3.3-.3.5l.1.5c.3 1.1.7 2.2 1.2 3 .4.9.9 1.7 1.3 2.5.9 1.5 1.9 2.7 3 3.8.3.3.6.5.9.8.2-.1.4-.1.6-.1-.2 0-.4.1-.6.1 1.9 1.6 3.9 2.7 6 3.3h.2c2.2.6 4.4.8 6.9.5.4 0 .8-.1 1.2-.2 1.5-.3 3-.8 4.6-1.5.8-.4 1.6-.8 2.5-1.3.8-.5 1.7-1.1 2.6-1.9l.4-.3c0-.1.1-.1.1-.2.2 0 0-.2-.2-.3z"/>
    <path fill="url(#ax)" fill-rule="nonzero" d="M231.2 80.2c.4 0 .6-.2.6-.5 0-.1.5-3 4.2-3.5 1.8-.3 2.9.5 3.5 1.2-3.5 2.2-4.1 5.7-3.9 7.3.1.6.6 1 1.1 1h.1c.6-.1 1-.6 1-1.2 0 0-.4-3.8 4-5.8 3.8-1.7 5.8 1 6.1 1.4.3.5 1 .6 1.5.3s.6-1 .3-1.5c-.5-.7-1.3-1.5-2.5-2.1.5-.9 1.6-2.1 3.8-2.4 3.3-.5 4.2 2.3 4.3 2.4.1.3.4.5.7.4.3-.1.5-.4.4-.7 0 0-1.3-3.8-5.5-3.2-2.8.4-4.1 2-4.7 3.1-1.5-.5-3.3-.5-5.3.4-.1.1-.3.1-.4.2-.8-1-2.2-2.1-4.7-1.7-4.5.6-5.1 4.4-5.2 4.4 0 .2.3.5.6.5z"/>
    <path fill="#EDEDF0" fill-rule="nonzero" d="M207.7 223.7v.2c0 .2.1.4.1.6v.2c0 .2.1.4.1.6v.5c0 .1 0 .2-.1.2l-.2.2H207.3h-.1-.1c-.1 0-.1 0-.2-.1h-.1c-.1 0-.2-.1-.3-.2 0 0-.1 0-.1-.1-.1-.1-.2-.1-.3-.2l-.1-.1c-.1-.1-.2-.1-.3-.2-.1 0-.1-.1-.2-.1l-.3-.3-.2-.2-.3-.3-.2-.2-.5-.5-.1-.1-.4-.4c-1 .1-1.9.1-2.8.2 3.3 3.6 5 4.9 6.6 4.9.9 0 1.8-.4 2.3-1.2.4-.6.8-1.1.2-4.3-.8 0-1.5.1-2.3.1.1.4.1.6.2.8z"/>
    <path fill="url(#ay)" fill-rule="nonzero" d="M207.7 223.7v.2c0 .2.1.4.1.6v.2c0 .2.1.4.1.6v.5c0 .1 0 .2-.1.2l-.2.2H207.3h-.1-.1c-.1 0-.1 0-.2-.1h-.1c-.1 0-.2-.1-.3-.2 0 0-.1 0-.1-.1-.1-.1-.2-.1-.3-.2l-.1-.1c-.1-.1-.2-.1-.3-.2-.1 0-.1-.1-.2-.1l-.3-.3-.2-.2-.3-.3-.2-.2-.5-.5-.1-.1-.4-.4c-1 .1-1.9.1-2.8.2 3.3 3.6 5 4.9 6.6 4.9.9 0 1.8-.4 2.3-1.2.4-.6.8-1.1.2-4.3-.8 0-1.5.1-2.3.1.1.4.1.6.2.8z"/>
    <path fill="#EDEDF0" fill-rule="nonzero" d="M231.2 223.1c-.1.1-.1.2-.2.3-.1.2-.2.3-.3.4 0 .1-.1.2-.1.2-.1.2-.2.4-.4.5v.1c-.1.2-.3.4-.4.5 0 .1-.1.1-.1.1-.1.1-.2.2-.2.3 0 .1-.1.1-.1.1l-.2.2-.1.1c-.1.1-.1.1-.2.1l-.1.1c-.1 0-.1.1-.2.1 0 0-.1 0-.1.1h-.2-.1-.1-.1c-.1 0-.2-.1-.2-.1l-.1-.1c-.1-.1-.1-.3-.2-.6s-.1-.6-.1-1c0-.3-.1-.7-.1-1.1v-.9h-2.2c.2 4.5.8 4.9 1.4 5.4.5.4 1.2.6 1.8.6 2.3 0 4.3-2.8 5.8-5.9-.8 0-1.6 0-2.5-.1-.3.4-.4.5-.4.6z"/>
    <path fill="url(#az)" fill-rule="nonzero" d="M231.2 223.1c-.1.1-.1.2-.2.3-.1.2-.2.3-.3.4 0 .1-.1.2-.1.2-.1.2-.2.4-.4.5v.1c-.1.2-.3.4-.4.5 0 .1-.1.1-.1.1-.1.1-.2.2-.2.3 0 .1-.1.1-.1.1l-.2.2-.1.1c-.1.1-.1.1-.2.1l-.1.1c-.1 0-.1.1-.2.1 0 0-.1 0-.1.1h-.2-.1-.1-.1c-.1 0-.2-.1-.2-.1l-.1-.1c-.1-.1-.1-.3-.2-.6s-.1-.6-.1-1c0-.3-.1-.7-.1-1.1v-.9h-2.2c.2 4.5.8 4.9 1.4 5.4.5.4 1.2.6 1.8.6 2.3 0 4.3-2.8 5.8-5.9-.8 0-1.6 0-2.5-.1-.3.4-.4.5-.4.6z"/>
    <path fill="#D7D7DB" fill-rule="nonzero" d="M167.7 80.6c-.1.2-.1.4-.2.6h.7c-.1-.2-.2-.4-.2-.6 0-.2-.3-.2-.3 0z"/>
    <path fill="url(#aA)" fill-rule="nonzero" d="M167.7 80.6c-.1.2-.1.4-.2.6h.7c-.1-.2-.2-.4-.2-.6 0-.2-.3-.2-.3 0z"/>
    <path fill="#FFF" fill-rule="nonzero" d="M118.4 58.7c.1.2.2.3.4.3h.1c.3-.1.4-.3.4-.6v-.1l-1.9-5.3c-.1-.3-.4-.4-.6-.3-.3.1-.4.4-.3.6l1.9 5.4z"/>
    <path fill="url(#aB)" fill-rule="nonzero" d="M118.4 58.7c.1.2.2.3.4.3h.1c.3-.1.4-.3.4-.6v-.1l-1.9-5.3c-.1-.3-.4-.4-.6-.3-.3.1-.4.4-.3.6l1.9 5.4z"/>
    <path fill="#FFF" fill-rule="nonzero" d="M134.3 121.9c.2-.2.5-.4.9-.2v.1l2.4-1.5v-3.5l-3.4 2.1v3h.1zM137.7 164.3c-.2.2-.4.6-.4.9 0 .9.1 1.8.4 2.6v-3.5z"/>
    <path fill="url(#aC)" fill-rule="nonzero" d="M137.7 164.3c-.2.2-.4.6-.4.9 0 .9.1 1.8.4 2.6v-3.5z"/>
    <path fill="#FFF" fill-rule="nonzero" d="M115.5 59c.3 0 .5-.2.5-.5v-5.3c0-.3-.2-.5-.5-.5s-.5.2-.5.5v5.3c0 .3.2.5.5.5z"/>
    <path fill="url(#aD)" fill-rule="nonzero" d="M115.5 59c.3 0 .5-.2.5-.5v-5.3c0-.3-.2-.5-.5-.5s-.5.2-.5.5v5.3c0 .3.2.5.5.5z"/>
    <path fill="#FFF" fill-rule="nonzero" d="M112.6 59c.3 0 .5-.2.5-.5v-5.8c0-.3-.2-.5-.5-.5s-.5.2-.5.5v5.8c0 .3.2.5.5.5z"/>
    <path fill="url(#aE)" fill-rule="nonzero" d="M112.6 59c.3 0 .5-.2.5-.5v-5.8c0-.3-.2-.5-.5-.5s-.5.2-.5.5v5.8c0 .3.2.5.5.5z"/>
    <path fill="#FFF" fill-rule="nonzero" d="M114 59c.3 0 .5-.2.5-.5v-4.8c0-.3-.2-.5-.5-.5s-.5.2-.5.5v4.8c0 .3.3.5.5.5z"/>
    <path fill="url(#aF)" fill-rule="nonzero" d="M114 59c.3 0 .5-.2.5-.5v-4.8c0-.3-.2-.5-.5-.5s-.5.2-.5.5v4.8c0 .3.3.5.5.5z"/>
    <path fill="#FFF" fill-rule="nonzero" d="M129.1 125.6l4.1-2.6v-.5c0-.1-.1-.1-.1-.2 0 0 .1 0 .1.1v-2.9l-5.6 3.6c-.8.3-1.1 1.2-.8 2 .2.6.8.9 1.3.9.2 0 .4 0 .6-.1.1-.1.2-.2.4-.3z"/>
    <path fill="#D7D7DB" fill-rule="nonzero" d="M139 115.8l-1.3.9v3.5l2.2-1.4v-8.3c-.5.7-.9 1.5-1.1 2.3-.1.5-.1 1-.1 1.4.1.6.1 1.1.3 1.6zM139.9 165.2c0-.7-.6-1.3-1.3-1.3-.4 0-.7.1-.9.4v3.5c.3 1.1.7 2.1 1.3 3 .6-.9.9-1.9.9-3v-2.6z"/>
    <path fill="url(#aG)" fill-rule="nonzero" d="M139.9 165.2c0-.7-.6-1.3-1.3-1.3-.4 0-.7.1-.9.4v3.5c.3 1.1.7 2.1 1.3 3 .6-.9.9-1.9.9-3v-2.6z"/>
    <path fill="#D7D7DB" fill-rule="nonzero" d="M138.7 159.7c-.1.3 0 .7.4.8l.8.3v-4.4l-1.2 3.3z"/>
    <path fill="url(#aH)" fill-rule="nonzero" d="M138.7 159.7c-.1.3 0 .7.4.8l.8.3v-4.4l-1.2 3.3z"/>
    <path fill="#F9F9FA" fill-rule="nonzero" d="M198 217c.5.6.9 1.3 1.5 1.9-.5-.7-1-1.3-1.5-1.9z"/>
    <path fill="url(#aI)" fill-rule="nonzero" d="M198 217c.5.6.9 1.3 1.5 1.9-.5-.7-1-1.3-1.5-1.9z"/>
    <path fill="#F9F9FA" fill-rule="nonzero" d="M207.8 226l-.2.2c.1-.1.2-.1.2-.2z"/>
    <path fill="url(#aJ)" fill-rule="nonzero" d="M207.8 226l-.2.2c.1-.1.2-.1.2-.2z"/>
    <path fill="#F9F9FA" fill-rule="nonzero" d="M224.1 117.6c1.4 0 2.5.5 3.2 1.1-.7-.5-1.8-1.1-3.2-1.1z"/>
    <path fill="url(#aK)" fill-rule="nonzero" d="M224.1 117.6c1.4 0 2.5.5 3.2 1.1-.7-.5-1.8-1.1-3.2-1.1z"/>
    <path fill="#F9F9FA" fill-rule="nonzero" d="M224.1 119.9c1.1 0 1.9.5 2.3.9-.4-.4-1.2-.9-2.3-.9z"/>
    <path fill="url(#aL)" fill-rule="nonzero" d="M224.1 119.9c1.1 0 1.9.5 2.3.9-.4-.4-1.2-.9-2.3-.9z"/>
    <path fill="#D7D7DB" fill-rule="nonzero" d="M134.3 121.9v-3.1l-1.1.7v2.9s-.1 0-.1-.1c0 .1.1.1.1.2v.5l2.1-1.3v-.1c-.5-.1-.8 0-1 .3z"/>
    <path fill="url(#aM)" fill-rule="nonzero" d="M150.7 112.6l-4.5 2.7c-.3.2-.7.3-1 .3-.6 0-1.3-.3-1.6-.9-.4-.6-.4-1.3-.1-1.8.1-.4.4-.7.8-1l4.2-2.7c-.7-.5-1.5-.9-2.3-1.1-.4-.1-.8-.1-1.3-.1-2 0-3.8 1-4.9 2.5-.5.7-.9 1.5-1.1 2.3-.1.5-.1 1-.1 1.4 0 .5.1 1 .3 1.5v.1l-1.3.8-3.4 2.1-1.1.7-5.6 3.6c-.8.3-1.1 1.2-.8 2 .2.6.8.9 1.3.9.2 0 .4 0 .6-.1.1-.1.3-.1.4-.2l4.1-2.6 2.1-1.3 2.4-1.5 2.2-1.4.7-.5c.8.8 1.7 1.3 2.8 1.6.5.1.9.2 1.4.2 1.4 0 2.7-.5 3.7-1.3s1.8-2 2.1-3.4c.2-1 .2-1.9 0-2.8z"/>
    <path fill="#FFFEFE" fill-rule="nonzero" d="M143.5 114.7c.4.6 1 .9 1.6.9.4 0 .7-.1 1-.3l4.5-2.7c.2.9.2 1.9 0 2.8-.3 1.4-1.1 2.6-2.1 3.4 1.1-.8 1.9-2.1 2.2-3.5.2-.9.2-1.9 0-2.8l-4.6 2.7c-.3.2-.7.3-1 .3-.6 0-1.3-.3-1.7-.9-.3-.5-.4-1.2-.2-1.7-.1.5-.1 1.2.3 1.8z"/>
    <path fill="url(#aN)" fill-rule="nonzero" d="M143.5 114.7c.4.6 1 .9 1.6.9.4 0 .7-.1 1-.3l4.5-2.7c.2.9.2 1.9 0 2.8-.3 1.4-1.1 2.6-2.1 3.4 1.1-.8 1.9-2.1 2.2-3.5.2-.9.2-1.9 0-2.8l-4.6 2.7c-.3.2-.7.3-1 .3-.6 0-1.3-.3-1.7-.9-.3-.5-.4-1.2-.2-1.7-.1.5-.1 1.2.3 1.8z"/>
    <path fill="#FFFEFE" fill-rule="nonzero" d="M126.8 125.1c-.3-.8 0-1.7.8-2l5.6-3.6 1.1-.7 3.4-2.1 1.3-.8v-.1l-11.5 7.3c-.8.3-1.1 1.3-.8 2 .3.6.8.9 1.4.9h.1c-.7 0-1.2-.3-1.4-.9z"/>
    <path fill="url(#aO)" fill-rule="nonzero" d="M126.8 125.1c-.3-.8 0-1.7.8-2l5.6-3.6 1.1-.7 3.4-2.1 1.3-.8v-.1l-11.5 7.3c-.8.3-1.1 1.3-.8 2 .3.6.8.9 1.4.9h.1c-.7 0-1.2-.3-1.4-.9z"/>
    <path fill="#FFFEFE" fill-rule="nonzero" d="M139.9 110.5c1.1-1.5 2.9-2.5 4.9-2.5.4 0 .8 0 1.3.1.8.2 1.6.6 2.3 1.1l.2-.1c-.7-.6-1.5-1-2.4-1.2-.4-.1-.8-.1-1.3-.1-2.8 0-5.4 2-6 4.9-.1.5-.1 1-.1 1.6 0-.5 0-1 .1-1.4.1-1 .5-1.7 1-2.4z"/>
    <path fill="url(#aP)" fill-rule="nonzero" d="M139.9 110.5c1.1-1.5 2.9-2.5 4.9-2.5.4 0 .8 0 1.3.1.8.2 1.6.6 2.3 1.1l.2-.1c-.7-.6-1.5-1-2.4-1.2-.4-.1-.8-.1-1.3-.1-2.8 0-5.4 2-6 4.9-.1.5-.1 1-.1 1.6 0-.5 0-1 .1-1.4.1-1 .5-1.7 1-2.4z"/>
    <path fill="url(#aQ)" fill-rule="nonzero" d="M106.4 207.6c.1 0 .1 0 0 0h.1c1-.3 1.9-.9 2.7-1.6-1.1-.3-2 .2-3.1.7-1 .2-2 .3-2.7 1l-.2.2c1.2.2 2.3 0 3.2-.3z"/>
    <path fill="url(#aR)" fill-rule="nonzero" d="M118.3 196.1c.7-1.4.9-3 .6-4.6-.4-2.1-1.5-3.9-3.3-5.1-1.4-1-3-1.4-4.6-1.4-1.5 0-3 .5-4.2 1.3-.2-.2-.4-.3-.6-.5-1.2-.8-2.5-1.2-4-1.2-2.1 0-4 1-5.3 2.6h-.7c-2.7 0-5.2 1.4-6.8 3.6-1.8 2.6-1.9 5.9-.6 8.6-.7.5-1.2 1.1-1.7 1.8-1.3 1.8-1.8 4.1-1.4 6.3.4 2.2 1.6 4.1 3.5 5.4 1.2.9 2.6 1.4 4.1 1.5.4 1.1 1.2 2.1 2.2 2.8 1 .7 2.2 1.1 3.5 1.1 1 .9 2.2 1.6 3.7 2.2l1 5.5h2.3l-1.3-7.2c-1.3-.4-2.7-1-3.8-1.8-.4-.3-.7-.6-1-1h-.1l-.1-.1c-.4-.4-.7-1-.9-1.6v-.1c-.3-.9-.2-1.7.1-1.8.2-.1.4-.1.5 0 .1.1.2.3.2.4v.2c0 .2.1.4.1.6V213.9c.3.9 1 2 2.2 2.7.1 0 .2.1.3.1.6.4 1.3.6 1.9.9 0 0 .1 0 .1.1l-.5-3h-.1-.1c-.1-.1-.3-.1-.4-.2-.3-.1-.6-.3-.9-.5 0 0-.1 0-.1-.1-.1.3-.2.5-.4.7l-.3.3s0-.1-.1-.1c-.6-.7-.9-1.5-.9-2-.1-.6-.3-1-.8-1.3-.4-.3-1-.3-1.5-.1-.5.2-1.4.8-.7 3.2.1.5.4 1 .6 1.4l.1.1c-.6-.1-1.2-.3-1.7-.6-.6-.4-1-1-1.3-1.6-.1-.2-.2-.4-.2-.6v-.1c-.1-.3-.1-.6-.1-.9-.3.1-.7.1-1 .1-1.2 0-2.5-.3-3.6-1.1-2.2-1.5-3-4.1-2.4-6.5l.3-.9v-.1c.2-.4.4-.7.6-1.1.8-1.2 2-2 3.2-2.4l-.1-.1c-2.1-2.1-2.5-5.4-.8-7.9.5-.7 1-1.2 1.6-1.6 1-.7 2.2-1 3.3-1 .6 0 1.2.1 1.8.2 0-.1.1-.1.1-.2.1-.3.2-.5.4-.7.7-1 1.8-1.6 2.9-1.8.3 0 .5-.1.8-.1.9 0 1.8.2 2.7.8.7.5 1.3 1.2 1.6 2 .1-.1.1-.2.2-.2 1.1-1.4 2.7-2.1 4.3-2.1.7 0 1.3.1 2 .3.5.2.9.4 1.3.7 2.6 1.8 3.2 5.3 1.4 7.9-.2.2-.3.4-.5.6.1 0 .1.1.2.1.3.1.5.3.8.4.2.2.4.3.7.5 2.4 2.2 2.9 5.8 1 8.5-1.2 1.8-3.2 2.8-5.3 2.8h-.6c-.1 1.1-.4 2.1-1.1 3-.1.1-.1.2-.2.3-.1.2-.3.3-.5.5l-.4.4-.1.1c-.4.3-.8.6-1.2.8h-.1c-.1 0-.2.1-.3.1-1 .4-2 .3-2 .3-.2 0-.3.1-.4.2-.1.1-.2.2-.2.3 0 .3.2.6.5.6h.4c.5 0 1.3-.1 2.2-.4h.1l.6 3.3c.2-.1.4-.1.5-.2.6-.3 1.2-.7 1.6-1.1l.1-.1c.1-.1.1-.3 0-.9-.1-.6-.4-1.2-.6-1.6-.1-.2-.1-.3-.2-.5s0-.4.1-.6l.2-.2h.2c.2 0 .5.1.6.4 0 .1.1.2.2.4.2.4.4.9.5 1.4v.1c.6-1.2.9-2.5 1.1-3.7v-.1c.1-.3.3-.5.6-.5h.1c.3.1.5.4.5.7-.4 1.9-1 4.2-2.4 5.8l-.1.1c-.6.6-1.3 1.2-2.1 1.5-.2.1-.5.2-.7.2h-.1l1 5.4c.1.3-.2.7-.7.9l2.7.3c.2-.5.3-1 .2-1.6l-.7-3.6c.8-.4 1.4-1 2.1-1.7l.1-.1c1.8-2.1 2.5-4.9 2.8-6.8.1-.8 0-1.5-.5-2.1 1.2-.6 2.2-1.5 3-2.7 1.3-1.9 1.8-4.2 1.4-6.5.2-2.4-.8-4.2-2.2-5.4z"/>
    <path fill="#EDEDF0" fill-rule="nonzero" d="M107.9 226.5h-.4c-.8 0-1.5-.2-1.5-.6v-.1h-2.3l.1.5c.2 1.2 1.3 2.5 3.8 2.5 1.5 0 3.5-.5 4.6-1.8.2-.2.3-.5.4-.7l-2.7-.3c-.5.2-1.3.4-2 .5z"/>
    <path fill="url(#aS)" fill-rule="nonzero" d="M107.9 226.5h-.4c-.8 0-1.5-.2-1.5-.6v-.1h-2.3l.1.5c.2 1.2 1.3 2.5 3.8 2.5 1.5 0 3.5-.5 4.6-1.8.2-.2.3-.5.4-.7l-2.7-.3c-.5.2-1.3.4-2 .5z"/>
    <path d="M-30-28h352v303H-30z"/>
  </g>
</svg>
