<svg xmlns="http://www.w3.org/2000/svg" xmlns:xlink="http://www.w3.org/1999/xlink" viewBox="0 0 352 303"><defs><style>.cls-1{fill:none;}.cls-2{fill:#eaeaee;}.cls-3{fill:#f9f9fa;}.cls-4{fill:#fff;}.cls-5{fill:url(#linear-gradient);}.cls-6{fill:url(#linear-gradient-2);}.cls-7{fill:url(#linear-gradient-3);}.cls-8{fill:url(#linear-gradient-4);}.cls-9{fill:url(#linear-gradient-5);}.cls-10{fill:url(#linear-gradient-6);}.cls-11{fill:url(#linear-gradient-7);}.cls-12{fill:url(#linear-gradient-8);}.cls-13{fill:url(#linear-gradient-9);}.cls-14{fill:url(#linear-gradient-10);}.cls-15{fill:url(#linear-gradient-11);}.cls-16{fill:url(#linear-gradient-12);}.cls-17{fill:url(#linear-gradient-13);}.cls-18{fill:url(#linear-gradient-14);}.cls-19{fill:url(#linear-gradient-15);}.cls-20{fill:url(#linear-gradient-16);}.cls-21{fill:url(#linear-gradient-17);}.cls-22{fill:url(#linear-gradient-18);}.cls-23{fill:url(#linear-gradient-19);}.cls-24{fill:url(#linear-gradient-20);}.cls-25{fill:url(#linear-gradient-21);}.cls-26{fill:url(#linear-gradient-22);}.cls-27{fill:#fffefe;}.cls-28{fill:#e1e1e6;}.cls-29{fill:url(#linear-gradient-23);}.cls-30{fill:url(#linear-gradient-24);}.cls-31{fill:url(#linear-gradient-25);}.cls-32{fill:url(#linear-gradient-26);}.cls-33{fill:url(#linear-gradient-27);}</style><linearGradient id="linear-gradient" x1="106.6" y1="57.45" x2="340.88" y2="291.73" gradientUnits="userSpaceOnUse"><stop offset="0" stop-color="#fffbcc"/><stop offset="1" stop-color="#ffc9d5"/></linearGradient><linearGradient id="linear-gradient-2" x1="140.51" y1="23.54" x2="374.79" y2="257.82" xlink:href="#linear-gradient"/><linearGradient id="linear-gradient-3" x1="132.38" y1="31.67" x2="366.66" y2="265.96" xlink:href="#linear-gradient"/><linearGradient id="linear-gradient-4" x1="83.72" y1="80.33" x2="318.01" y2="314.61" xlink:href="#linear-gradient"/><linearGradient id="linear-gradient-5" x1="95.36" y1="68.68" x2="329.65" y2="302.97" xlink:href="#linear-gradient"/><linearGradient id="linear-gradient-6" x1="91.84" y1="72.21" x2="326.12" y2="306.49" xlink:href="#linear-gradient"/><linearGradient id="linear-gradient-7" x1="74.39" y1="89.66" x2="308.67" y2="323.94" xlink:href="#linear-gradient"/><linearGradient id="linear-gradient-8" x1="86.16" y1="77.88" x2="320.45" y2="312.17" xlink:href="#linear-gradient"/><linearGradient id="linear-gradient-9" x1="84.93" y1="79.12" x2="319.21" y2="313.4" xlink:href="#linear-gradient"/><linearGradient id="linear-gradient-10" x1="111.1" y1="52.95" x2="345.39" y2="287.23" xlink:href="#linear-gradient"/><linearGradient id="linear-gradient-11" x1="75.29" y1="88.76" x2="309.58" y2="323.04" xlink:href="#linear-gradient"/><linearGradient id="linear-gradient-12" x1="120.43" y1="43.61" x2="354.72" y2="277.9" xlink:href="#linear-gradient"/><linearGradient id="linear-gradient-13" x1="170.13" y1="-6.08" x2="404.42" y2="228.2" xlink:href="#linear-gradient"/><linearGradient id="linear-gradient-14" x1="154.01" y1="10.04" x2="388.29" y2="244.32" xlink:href="#linear-gradient"/><linearGradient id="linear-gradient-15" x1="148" y1="16.05" x2="382.28" y2="250.33" xlink:href="#linear-gradient"/><linearGradient id="linear-gradient-16" x1="144.76" y1="19.29" x2="379.04" y2="253.58" xlink:href="#linear-gradient"/><linearGradient id="linear-gradient-17" x1="141.22" y1="22.83" x2="375.5" y2="257.12" xlink:href="#linear-gradient"/><linearGradient id="linear-gradient-18" x1="142.83" y1="21.21" x2="377.12" y2="255.5" xlink:href="#linear-gradient"/><linearGradient id="linear-gradient-19" x1="141.66" y1="22.39" x2="375.94" y2="256.67" xlink:href="#linear-gradient"/><linearGradient id="linear-gradient-20" x1="158.1" y1="5.95" x2="392.38" y2="240.24" xlink:href="#linear-gradient"/><linearGradient id="linear-gradient-21" x1="147.8" y1="16.25" x2="382.08" y2="250.53" xlink:href="#linear-gradient"/><linearGradient id="linear-gradient-22" x1="163.23" y1="0.81" x2="397.52" y2="235.1" xlink:href="#linear-gradient"/><linearGradient id="linear-gradient-23" x1="14.17" y1="149.88" x2="248.45" y2="384.17" xlink:href="#linear-gradient"/><linearGradient id="linear-gradient-24" x1="12.58" y1="151.47" x2="246.86" y2="385.76" xlink:href="#linear-gradient"/><linearGradient id="linear-gradient-25" x1="-37.77" y1="-84.84" x2="383.95" y2="336.89" gradientUnits="userSpaceOnUse"><stop offset="0.19" stop-color="#ffe900"/><stop offset="1" stop-color="#ff0039"/></linearGradient><linearGradient id="linear-gradient-26" x1="17.23" y1="146.82" x2="251.52" y2="381.1" xlink:href="#linear-gradient"/><linearGradient id="linear-gradient-27" x1="-112.87" y1="12.53" x2="285.53" y2="410.94" xlink:href="#linear-gradient-25"/></defs><title>Artboard 1</title><g id="Layer_1" data-name="Layer 1"><rect class="cls-1" width="352" height="303"/></g><g id="Layer_2" data-name="Layer 2"><g id="UNI"><ellipse class="cls-2" cx="268.41" cy="284.61" rx="61.9" ry="9.24"/><path class="cls-2" d="M218.54,105.68h-92.3a1.34,1.34,0,0,1,0-2.67h92.3a1.34,1.34,0,1,1,0,2.67Z"/><path class="cls-2" d="M206.07,98.85H190a.67.67,0,1,1,0-1.34h16a.67.67,0,1,1,0,1.34Z"/><path class="cls-2" d="M185.08,111.69H169a.67.67,0,1,1,0-1.34h16a.67.67,0,1,1,0,1.34Zm-26.72,0h-4a.67.67,0,0,1,0-1.34h4a.67.67,0,0,1,0,1.34Zm-9.35,0h-1.34a.67.67,0,1,1,0-1.34H149a.67.67,0,1,1,0,1.34Zm-13.36,0h-16a.67.67,0,0,1,0-1.34h16a.67.67,0,0,1,0,1.34Zm-26.72,0h-4a.67.67,0,1,1,0-1.34h4a.67.67,0,1,1,0,1.34Zm-9.35,0H98.24a.67.67,0,1,1,0-1.34h1.34a.67.67,0,1,1,0,1.34Zm-13.36,0h-16a.67.67,0,1,1,0-1.34h16a.67.67,0,1,1,0,1.34Zm-26.72,0h-4a.67.67,0,1,1,0-1.34h4a.67.67,0,1,1,0,1.34Zm-9.35,0H48.81a.67.67,0,1,1,0-1.34h1.34a.67.67,0,0,1,0,1.34Z"/><path class="cls-3" d="M7.24,215.17a5.9,5.9,0,0,1-6-5.74V67.95a6.41,6.41,0,0,1,6.4-6.4H159.48a6.41,6.41,0,0,1,6.4,6.4V209.43a5.9,5.9,0,0,1-6,5.74Z"/><path class="cls-2" d="M159.48,62.88a5.07,5.07,0,0,1,5.07,5.07V209.43a4.56,4.56,0,0,1-4.7,4.4H7.24a4.56,4.56,0,0,1-4.7-4.4V67.95a5.07,5.07,0,0,1,5.07-5.07H159.48m0-2.67H7.61A7.75,7.75,0,0,0-.13,67.95V209.43a7.23,7.23,0,0,0,7.37,7.07H159.85a7.23,7.23,0,0,0,7.37-7.07V67.95a7.75,7.75,0,0,0-7.74-7.74Z"/><g id="Layer_8" data-name="Layer 8"><path class="cls-2" d="M159.14,88.6V207a5.82,5.82,0,0,1-.07,1.18,5.8,5.8,0,0,1-1.18.07H9.2A5.8,5.8,0,0,1,8,208.16,5.82,5.82,0,0,1,7.95,207V88.6h151.2m1.34-1.34H6.61V207c0,2.27.32,2.59,2.59,2.59h148.7c2.27,0,2.59-.32,2.59-2.59V87.26Z"/></g><g id="Layer_3" data-name="Layer 3"><circle class="cls-2" cx="14.8" cy="74.96" r="3.42"/></g><g id="Layer_5" data-name="Layer 5"><circle class="cls-2" cx="25.84" cy="74.96" r="3.42"/></g><g id="Layer_6" data-name="Layer 6"><path class="cls-2" d="M120.7,78.83H44.38a3.7,3.7,0,0,1-3.7-3.7v-.33a3.7,3.7,0,0,1,3.7-3.7H120.7a3.7,3.7,0,0,1,3.7,3.7v.33A3.7,3.7,0,0,1,120.7,78.83Z"/></g><path class="cls-2" d="M83.36,180.45a5.07,5.07,0,0,1-5.07-5.07v-8.93a22.27,22.27,0,0,1-6.94-2.7l-5.66,6.06a4.79,4.79,0,0,1-1,1,5.07,5.07,0,0,1-6.08-8.11l6-5.61a22.25,22.25,0,0,1-2.7-6.95h-8.5a5.07,5.07,0,1,1,0-10.13H62a22.25,22.25,0,0,1,2.7-6.94l-6.06-5.66a5.33,5.33,0,1,1,7.52-7.55l5.68,6.08a22.28,22.28,0,0,1,6.95-2.7v-8.5a5.07,5.07,0,1,1,10.13,0v8.5a22.27,22.27,0,0,1,7,2.71l6.09-6.09a5.06,5.06,0,0,1,7.17,7L102.93,133a22.28,22.28,0,0,1,2.71,7h8.5a5.07,5.07,0,0,1,0,10.13h-8.52a22.27,22.27,0,0,1-3.1,7l6.07,6.07a5.11,5.11,0,0,1,.07,6.16,5.06,5.06,0,0,1-7.09,1l-6.17-6.16a22.26,22.26,0,0,1-7,2.71v8.5A5.07,5.07,0,0,1,83.36,180.45Zm.43-47.68A12.27,12.27,0,1,0,96.07,145,12.29,12.29,0,0,0,83.8,132.77Z"/><path class="cls-3" d="M83.8,110.37a4.33,4.33,0,0,1,4.33,4.33v9.1a21.67,21.67,0,0,1,7.8,3l6.5-6.5a4.33,4.33,0,0,1,6.07,6.07l-6.5,6.5a21.67,21.67,0,0,1,3,7.8h9.1a4.33,4.33,0,1,1,0,8.67H105a21.67,21.67,0,0,1-3.47,7.8l6.5,6.5a4.33,4.33,0,0,1-6.07,6.07l-6.5-6.5a21.67,21.67,0,0,1-7.8,3v9.1a4.33,4.33,0,0,1-8.67,0v-9.54a21.67,21.67,0,0,1-7.8-3l-6.07,6.5a4.33,4.33,0,1,1-6.07-6.07l6.5-6.07a21.67,21.67,0,0,1-3-7.8h-9.1a4.33,4.33,0,0,1,0-8.67h9.1a21.67,21.67,0,0,1,3-7.8l-6.5-6.07a4.6,4.6,0,0,1,6.5-6.5l6.07,6.5a21.67,21.67,0,0,1,7.8-3v-9.1a4.33,4.33,0,0,1,4.33-4.33m0,47.68a13,13,0,1,0-13-13,13,13,0,0,0,13,13m0-49.14a5.8,5.8,0,0,0-5.8,5.8v7.91A23,23,0,0,0,71.92,125l-5.26-5.64a6.06,6.06,0,1,0-8.6,8.53l5.67,5.3a23,23,0,0,0-2.36,6.08H53.45a5.8,5.8,0,0,0,0,11.59h7.91a23,23,0,0,0,2.36,6.08l-5.58,5.21a5.8,5.8,0,1,0,8.13,8.13l5.21-5.59A23,23,0,0,0,77.57,167v8.34a5.8,5.8,0,0,0,11.59,0v-7.91a23,23,0,0,0,6.11-2.39l5.69,5.69.16.14a5.75,5.75,0,0,0,3.47,1.16,5.8,5.8,0,0,0,4.64-9.27l-.14-.16L103.45,157a23,23,0,0,0,2.73-6.15h8a5.8,5.8,0,1,0,0-11.59h-7.91a23,23,0,0,0-2.39-6.11l5.69-5.69.14-.16a5.8,5.8,0,0,0-8.12-8.12l-.16.14L95.7,125a23,23,0,0,0-6.11-2.39V114.7a5.8,5.8,0,0,0-5.8-5.8Zm0,47.68A11.54,11.54,0,1,1,95.34,145,11.55,11.55,0,0,1,83.8,156.59Z"/><path class="cls-4" d="M39.87,36.26H68.35s-8.91-19.92,10-22.49c16.88-2.29,23.54,15,23.54,15s2-10,12-8.09,17.2,17.81,17.2,17.81h24.8"/><path class="cls-2" d="M156.43,33.86h-5.36a.67.67,0,1,1,0-1.34h5.36a.67.67,0,1,1,0,1.34Zm-17.38,0h-1.34a.67.67,0,1,1,0-1.34h1.34a.67.67,0,1,1,0,1.34Zm-6.68,0h-.74a.69.69,0,0,1-.6-.37c-.15-.28-.69-1.32-1.6-2.78a.67.67,0,0,1,1.13-.71c.71,1.14,1.2,2,1.47,2.52h.34a.67.67,0,1,1,0,1.34ZM68.84,33H67.07a.67.67,0,1,1,0-1.34h.78c-.13-.33-.27-.75-.43-1.23a.67.67,0,0,1,1.27-.41c.4,1.25.75,2,.75,2a.67.67,0,0,1-.61.94ZM56.39,33h-16a.67.67,0,0,1,0-1.34h16a.67.67,0,1,1,0,1.34ZM66.9,25.72a.67.67,0,0,1-.66-.59c-.05-.45-.1-.91-.12-1.37a.67.67,0,1,1,1.33-.08c0,.44.06.87.12,1.29a.67.67,0,0,1-.58.74Zm34.93-1.39a.67.67,0,0,1-.6-.37c-.16-.33-.36-.73-.6-1.16a.67.67,0,0,1,1.17-.64c.25.46.46.87.63,1.22a.67.67,0,0,1-.6,1Zm21.53-1.68a.67.67,0,0,1-.46-.19c-2.89-2.76-5.78-4.43-8.59-5a10.26,10.26,0,0,0-5.19.21.67.67,0,1,1-.42-1.27,11.57,11.57,0,0,1,5.86-.26c3.07.59,6.18,2.37,9.26,5.32a.67.67,0,0,1-.46,1.15Zm-25.12-4a.67.67,0,0,1-.52-.25A25.77,25.77,0,0,0,95,15.59a.67.67,0,1,1,.9-1,27.06,27.06,0,0,1,2.81,3,.67.67,0,0,1-.52,1.09ZM70.87,13.6a.67.67,0,0,1-.42-1.19,16.71,16.71,0,0,1,8.31-3.19,21.5,21.5,0,0,1,7.56.26.67.67,0,0,1-.29,1.3,20.09,20.09,0,0,0-7.09-.24,15.41,15.41,0,0,0-7.65,2.91A.67.67,0,0,1,70.87,13.6Z"/><path class="cls-4" d="M157.25,38.92h0l-117.39,0a1.34,1.34,0,0,1,0-2.67h0l117.39,0a1.34,1.34,0,0,1,0,2.67Z"/><path class="cls-4" d="M229,71.1h15.84s-5-11.08,5.57-12.51c9.38-1.28,13.09,8.37,13.09,8.37s1.11-5.56,6.7-4.5,9.56,9.9,9.56,9.9h13.79"/><path class="cls-2" d="M245.31,69.34H229.47a.67.67,0,1,1,0-1.34h15.31a.67.67,0,0,1,1.07.24l.07.16a.67.67,0,0,1-.61.94Zm43.9-.19h-4a.67.67,0,1,1,0-1.34h4a.67.67,0,1,1,0,1.34Zm-25.14-4.31-.19,0a.67.67,0,0,1-.45-.83c.33-1.11,1.74-4.75,5.88-4.75a8,8,0,0,1,1.49.15,12.51,12.51,0,0,1,6.52,4,.67.67,0,1,1-1,.92,11.24,11.24,0,0,0-5.8-3.65,6.69,6.69,0,0,0-1.24-.12,4.85,4.85,0,0,0-4.6,3.79A.67.67,0,0,1,264.06,64.84ZM245.87,59a.67.67,0,0,1-.48-1.13,8,8,0,0,1,3.77-2.09.67.67,0,1,1,.35,1.29,6.7,6.7,0,0,0-3.15,1.73A.67.67,0,0,1,245.87,59Zm10-1.81a.66.66,0,0,1-.21,0,9.93,9.93,0,0,0-1.21-.31.67.67,0,0,1-.53-.78.67.67,0,0,1,.78-.53,11.29,11.29,0,0,1,1.37.35.67.67,0,0,1-.21,1.3Z"/><path class="cls-4" d="M294.55,73.78h0l-65.28,0a1.34,1.34,0,0,1,0-2.67h0l65.28,0a1.34,1.34,0,0,1,0,2.67Z"/><ellipse class="cls-2" cx="125.84" cy="284.03" rx="19.6" ry="4.94"/></g><path class="cls-1" d="M201.46,248.82h-.2a2.67,2.67,0,0,1-.87.45l-3,.89.28.93a7.53,7.53,0,0,1,3,3.47l1.18.42,4.41-6,0-.06a6.47,6.47,0,0,1,4.44-2.42l-.12-.39-3,.89a2.67,2.67,0,0,1-.77.12h-.2a2.67,2.67,0,0,1-.87.45l-3.67,1.11A2.67,2.67,0,0,1,201.46,248.82Z"/><path class="cls-1" d="M287.94,257.62l.15,0-.15,0Z"/><path class="cls-1" d="M170,207.34a3.42,3.42,0,0,1,1.55-1.46l.09,0,.25-.11-2.24-.84a4.2,4.2,0,0,1,.28,1.54A6.61,6.61,0,0,0,170,207.34Z"/><path class="cls-1" d="M208.76,237.14a2.67,2.67,0,0,1,.77-.12h.2a2.67,2.67,0,0,1,.87-.45,6.51,6.51,0,0,1,8.12,4.34,2.68,2.68,0,0,0,.56,1.84l1.11,3.67a2.68,2.68,0,0,0,.56,1.84l.42,1.37,1,.79a30.77,30.77,0,0,1-1.94-16.37,21.88,21.88,0,0,1-4.19.41,21.16,21.16,0,0,1-14.07-5.26q3.14,4.2,6.39,8Z"/><path class="cls-1" d="M329.76,174.91c.37-.14.72-.26,1.06-.37a4.79,4.79,0,0,1,.45-2.47,16.64,16.64,0,0,1-6.94,5.45l.24.12c.27-.19.55-.37.81-.54A23.89,23.89,0,0,1,329.76,174.91Z"/><path class="cls-1" d="M178.73,210.37l-.27.14-4,1.81a2.67,2.67,0,0,1-.59.19,6.62,6.62,0,0,0,8.36-9.39l-2,5.23A3.45,3.45,0,0,1,178.73,210.37Z"/><path class="cls-1" d="M213.71,255.47a2.66,2.66,0,0,1-.29-.47L211,258.19l3.77,1.32-.93-3.08A2.67,2.67,0,0,1,213.71,255.47Z"/><path class="cls-1" d="M175.65,199.89a3.41,3.41,0,0,1,.35.26,3.41,3.41,0,0,1,.15-.31Z"/><path class="cls-4" d="M271.8,277.71a6.23,6.23,0,0,0,.39,1.95A6.23,6.23,0,0,1,271.8,277.71Z"/><path class="cls-4" d="M272.87,280l-.21,0,.16,0Z"/><path class="cls-4" d="M271.55,267.38h0c0,.42,0,.84,0,1.25C271.55,268.22,271.55,267.8,271.55,267.38Z"/><path class="cls-4" d="M238.64,270.72h0l.95,1.1-.95-1.1Z"/><circle class="cls-4" cx="248.65" cy="279.3" transform="translate(-125.29 280.96) rotate(-48.58)"/><path class="cls-4" d="M284.53,258.59q1.73-.45,3.41-1v0l.15,0A103.63,103.63,0,0,0,309,248.51a78.28,78.28,0,0,1-24,6.71C284.84,256.4,284.69,257.51,284.53,258.59Z"/><path class="cls-4" d="M289.58,203.78l.29-.69,0,0Z"/><path class="cls-4" d="M280.15,92.45a8.68,8.68,0,0,0-1-.08h0a8.64,8.64,0,0,0-1.19.1,6.76,6.76,0,0,1,2.19,0Z"/><path class="cls-4" d="M277.64,92.51a8.68,8.68,0,0,0-6.56,5.39A8.68,8.68,0,0,1,277.64,92.51Z"/><path class="cls-4" d="M226.93,247.54l0-.07,0,.06Z"/><path class="cls-4" d="M269.25,101.56q.61-.64,1.25-1.25-.64.61-1.25,1.25a8.68,8.68,0,0,0-7,8.52h0A8.68,8.68,0,0,1,269.25,101.56Z"/><path class="cls-4" d="M248,279.62h-.14Z"/><path class="cls-4" d="M315.6,214.95c-.47.18-1,.35-1.47.5.5-.15,1-.31,1.44-.48Z"/><path class="cls-4" d="M297.67,87h0a8.58,8.58,0,0,1,1,.06A8.59,8.59,0,0,0,297.67,87Z"/><path class="cls-4" d="M284,91.82a39.76,39.76,0,0,1,4.77-1.46A39.75,39.75,0,0,0,284,91.82Z"/><path class="cls-4" d="M226.29,232l0,.21,0-.22Z"/><path class="cls-4" d="M302.18,175.16l-1.16,0h0Z"/><polygon class="cls-4" points="340.8 119.15 340.8 119.15 340.8 119.15 340.8 119.15"/><polygon class="cls-4" points="326.89 203.48 326.88 203.5 326.89 203.48 326.89 203.48"/><path class="cls-4" d="M326.37,204.92a18.15,18.15,0,0,1-4.59,6.36h0A18.06,18.06,0,0,0,326.37,204.92Z"/><path class="cls-4" d="M309.83,91a8.72,8.72,0,0,1,2.15-1A8.72,8.72,0,0,0,309.83,91Z"/><path class="cls-4" d="M314.4,89.71c-.26,0-.5,0-.75.05.25,0,.5-.05.75-.05Z"/><polygon class="cls-4" points="322.85 96.46 322.84 96.46 322.84 96.45 322.85 96.46"/><path class="cls-4" d="M262.22,110.16a8.92,8.92,0,0,0,.1,1.18c-.19.38-.36.77-.54,1.16.18-.39.35-.78.54-1.16A8.92,8.92,0,0,1,262.22,110.16Z"/><path class="cls-4" d="M242.58,123.59a1.33,1.33,0,0,0,.28.3,3.62,3.62,0,0,0,.48.31,3.62,3.62,0,0,1-.48-.31A1.33,1.33,0,0,1,242.58,123.59Z"/><path class="cls-4" d="M242.29,116.72a2.88,2.88,0,0,1-.26-.21,1.2,1.2,0,0,1-.22-.41,1.2,1.2,0,0,0,.22.41A2.9,2.9,0,0,0,242.29,116.72Z"/><path class="cls-4" d="M310.32,176.51c-.13,0-.25,0-.38,0h0C310.07,176.54,310.19,176.52,310.32,176.51Z"/><path class="cls-4" d="M331.68,221.2l-.05,0v.05Z"/><path class="cls-4" d="M328.87,224.1v0c-.25,0-.5-.05-.76-.1Z"/><path class="cls-4" d="M282.15,269.67c-1.62,4.85-5,13-9.33,13a3.49,3.49,0,0,1-2.19-.76c-1-.81-1.87-1.49-1.77-13.91h0a6.72,6.72,0,0,1-1.87-.26l-.84-.24c-.13,13.3.78,14.8,2.92,16.48a6.46,6.46,0,0,0,4,1.4c4.81,0,8.79-4.91,12.17-15a65.18,65.18,0,0,0,2.22-9.82q-1.69.49-3.43.92A58,58,0,0,1,282.15,269.67Z"/><path class="cls-4" d="M317.26,246.54c-2.82,1.87-6,3.77-9.34,5.59a58.71,58.71,0,0,0,5.57-2.71h.26a43.41,43.41,0,0,0,12.2-1.64,18.31,18.31,0,0,1-5.69-1.59Q318.8,246.41,317.26,246.54Z"/><path class="cls-4" d="M341.11,215.8a4.94,4.94,0,0,1,4.72-1.25l.15.06a5.65,5.65,0,0,0-6.71-.8L339,214A18.26,18.26,0,0,1,341.11,215.8Z"/><path class="cls-4" d="M344.42,233.79c.39-.66.75-1.32,1.07-2a4.92,4.92,0,0,1-1.61,1A4.94,4.94,0,0,1,344.42,233.79Z"/><path class="cls-4" d="M318.81,194a34.51,34.51,0,0,1-3.2,1.39l-1,.33-.37.11a3,3,0,0,1-2.82-.71c-7.64,4-16.45,8.11-19.32,9.45l-.29.71q1.52-.11,3-.11a29.86,29.86,0,0,1,20,7.25,15.39,15.39,0,0,0,9.5-9.59,2.67,2.67,0,0,1,4.87-.74,24.63,24.63,0,0,1,2.8,8.57,18.3,18.3,0,0,1,3.48,1.17A28.12,28.12,0,0,0,332,200.25a5.67,5.67,0,0,0-10.34,1.56,12.12,12.12,0,0,1-6.12,6.83,34,34,0,0,0-7.69-4.38,30,30,0,0,0-5.08-1.58c6.09-3,12.06-6,16.52-8.54l-.23-.28Z"/><path class="cls-4" d="M317.62,173.42l.66,0-.66,0h0Z"/><path class="cls-4" d="M294.83,207.84h0Z"/><path class="cls-4" d="M340.39,159.79c.49-.7,1-1.43,1.41-2.16a14.48,14.48,0,0,0,8.14-14.72l0-.29a14.21,14.21,0,0,0,2-9.21,14.38,14.38,0,0,0-3.4-7.65,48.28,48.28,0,0,0-1.61-7.37c0-.42.06-.84.06-1.26a14.4,14.4,0,0,0-6.37-11.92,49,49,0,0,0-12.68-12.7,14.32,14.32,0,0,0-18.31-7.8c-.94-.24-1.89-.45-2.84-.62a14.31,14.31,0,0,0-17.87.23,45.59,45.59,0,0,0-7.41,2.25,14.34,14.34,0,0,0-15.72,10,14.36,14.36,0,0,0-8.91,13.27q0,.1,0,.2-.39.85-.75,1.72a9.86,9.86,0,0,0-1.42,1.41c-.11-2.61-1.32-5-2.59-7.53l-.78-1.56a6.2,6.2,0,0,0-5.56-3.54c-4.58,0-6.64,4.59-7.41,6.31-1.14,2.54-2.75,7.11-1.61,10.74-.46,4.46.25,7.74,2.13,9.78q.19,1.16.44,2.21c-10,4-31.63,13.4-39.2,23.24-2.23,2.9-2.65,6.85-1.24,11.75,3.06,10.65,12.69,21.87,18.62,24.07,7.38,2.73,17.14,4.57,27,5.13-4.91,1.92-8.84,3.52-12,4.89a22.59,22.59,0,0,1,1.94,2.6c3.06-1.29,6.81-2.81,11.43-4.62a80.55,80.55,0,0,1,7.19-5.41l-2.35,0c-11.83,0-23.66-1.87-32.46-5.13C212,183.78,203.68,171.8,201.43,164c-1.13-3.93-.88-7,.73-9.1,6.76-8.78,27.32-18.25,40.52-23.29a23.45,23.45,0,0,1-1.33-5.48l-.13-.1c-1.73-1.33-2.31-4.21-1.74-8.56-1.3-2.72.41-7.19,1.28-9.13,1.41-3.14,2.86-4.55,4.68-4.55a3.18,3.18,0,0,1,2.87,1.87l.79,1.58c1.42,2.81,2.59,5.14,2.2,7.53a10.24,10.24,0,0,1,1.73,4.09,21.48,21.48,0,0,1,2.22,2.1,6.79,6.79,0,0,1-.12-1.27,6.87,6.87,0,0,1,3.13-5.77c.39-1,.83-2,1.31-3,0-.28,0-.54,0-.8a11.36,11.36,0,0,1,8.35-10.94L268,99a11.36,11.36,0,0,1,13.53-9.09A42.5,42.5,0,0,1,290,87.38a11.32,11.32,0,0,1,15.2-.2,42.92,42.92,0,0,1,4.36,1,11.32,11.32,0,0,1,15.62,6.6,45.75,45.75,0,0,1,13,12.93,11.3,11.3,0,0,1,5.51,9.72,10.85,10.85,0,0,1-.11,1.54,45.18,45.18,0,0,1,1.81,8.42,11.33,11.33,0,0,1,1.08,14.87,11,11,0,0,1,.24,1.31,11.4,11.4,0,0,1-7.23,12c-.68,1.15-1.4,2.27-2.17,3.35a10.35,10.35,0,0,1-6.85,8.26A13.63,13.63,0,0,1,315.79,176a6.87,6.87,0,0,1-10.26,1.63,45.61,45.61,0,0,1-4.84.29c-.54,2.32-1.2,4.63-2,6.91,9.76-2.3,20.23-4.57,21.56-4.65h.39c.19,0,.38,0,.56,0l.48-.39.76-.6.7-.54c.51-.39,1-.71,1.4-1l-.24-.12a16.64,16.64,0,0,0,6.94-5.45l0-.05a5.07,5.07,0,0,1,.78-1.14,16.45,16.45,0,0,0,.93-1.71A13.23,13.23,0,0,0,340.39,159.79Z"/><path class="cls-4" d="M344.48,130.46a8.74,8.74,0,0,0-1.68-1.79h0A8.74,8.74,0,0,1,344.48,130.46Z"/><path class="cls-4" d="M343.43,141.63a8.68,8.68,0,0,1,.6,2.25q.05.41.06.81,0-.4-.06-.81A8.67,8.67,0,0,0,343.43,141.63Z"/><path class="cls-4" d="M346,135.41a8.76,8.76,0,0,0-.32-2.31,8.76,8.76,0,0,1,.32,2.31Z"/><path class="cls-4" d="M315.53,173.19a11.08,11.08,0,0,1-1.24-.29l-.11,0,.11,0A11.11,11.11,0,0,0,315.53,173.19Z"/><path class="cls-4" d="M310.71,176.47A4.14,4.14,0,0,0,312,176,4.15,4.15,0,0,1,310.71,176.47Z"/><path class="cls-4" d="M225.53,238.77s0,.09,0,.13h0S225.53,238.81,225.53,238.77Z"/><path class="cls-4" d="M261,114.16c-.22.53-.44,1.07-.64,1.61a4.23,4.23,0,0,0-1.05.63,4.23,4.23,0,0,1,1.05-.63C260.61,115.23,260.83,114.69,261,114.16Z"/><path class="cls-4" d="M222.43,212.9h0a1.22,1.22,0,0,1-.16-.23A1.23,1.23,0,0,0,222.43,212.9Z"/><path class="cls-4" d="M258.25,125.42h0c.05-.54.12-1.07.19-1.6C258.37,124.35,258.31,124.88,258.25,125.42Z"/><path class="cls-4" d="M247.58,263c4.76,15.75,4.11,16.66,3.23,17.86A3.42,3.42,0,0,1,248,282.3c-2.54,0-5.08-2.46-11.41-9.84A51.49,51.49,0,0,1,228,257.18c-1.17-.62-2.34-1.29-3.5-2,1.93,5.82,5.11,13.17,10.08,19,6.63,7.74,9.72,10.89,13.68,10.89a6.39,6.39,0,0,0,5.22-2.66c1.67-2.29,2-4.36-1.84-17.32,1.19,0,2.38.06,3.56.06.86,0,1.71,0,2.56,0l-4.51-1.3Q250.47,263.48,247.58,263Z"/><path class="cls-4" d="M222.39,250.43q2.17,1.62,4.36,3c-.11-.35-.23-.71-.33-1-2.51-3.66-3.67-8.39-3.57-13.68-.46-.32-.93-.63-1.38-1a.67.67,0,0,1,.79-1.08l.67.46c.08-1.25.21-2.51.42-3.8a21.56,21.56,0,0,1-2.88.78A30.77,30.77,0,0,0,222.39,250.43Z"/><path class="cls-4" d="M249.31,197.19q-1,.77-1.89,1.55h0Q248.34,198,249.31,197.19Z"/><path class="cls-5" d="M284.13,248.57c-.1,1.24-.2,2.4-.29,3.45a68.69,68.69,0,0,0,20.52-5.41,45.36,45.36,0,0,0,5.69-3.07h0a4.9,4.9,0,0,1-2.29-1.36,49.62,49.62,0,0,1-17,5.79A63.61,63.61,0,0,1,284.13,248.57Z"/><path class="cls-6" d="M321.81,211.27a18.31,18.31,0,0,1,6.09-1.07c.43,0,.86,0,1.29.07a23.82,23.82,0,0,0-1.84-5.91h0c-.18-.37-.31-.62-.39-.75v0l0-.08v0s0,.14-.1.34v0l-.15.41,0,0c-.06.17-.14.36-.23.57v0A18.06,18.06,0,0,1,321.81,211.27Z"/><path class="cls-7" d="M329,220.44a8.65,8.65,0,0,0-8.56,4.25,5,5,0,0,1-1.35,1.63l1.89.5a.65.65,0,0,1,.24-.36l1.08-.78a.67.67,0,1,1,.79,1.08l-.62.45,1.12.29a4.9,4.9,0,0,1,2.37,1.44,33.25,33.25,0,0,0,2.11-5A29.5,29.5,0,0,0,329,220.44Z"/><path class="cls-8" d="M227.17,195.75a20.28,20.28,0,1,0-10.91,37.38,20.39,20.39,0,0,0,7.36-1.38,47.91,47.91,0,0,1,1.46-5.56,3.9,3.9,0,0,1-1.85-.47,3.47,3.47,0,1,1,3.31-6.09,3.94,3.94,0,0,1,.87.66c.72-1.56,1.51-3.12,2.39-4.67a48.09,48.09,0,0,1-5.6.61,4.11,4.11,0,0,1-.74-.06,4.48,4.48,0,0,1-3.52-2.22c-.55-1-.89-2.72.55-5.11.54-.9,1.38-2.27,12.66-7.1A20.15,20.15,0,0,0,227.17,195.75Zm-16.95,2.5a3.47,3.47,0,1,1-3.69,3.5A3.6,3.6,0,0,1,210.22,198.25Zm-10.38,12.9a3.74,3.74,0,1,1,1.62,4.82A3.6,3.6,0,0,1,199.84,211.14Zm16.09,15.24a3.58,3.58,0,0,1-3.94,1.49c.69.68,1.38,1.35,2.07,2a.67.67,0,0,1-.91,1,116,116,0,0,1-11-11.8.67.67,0,0,1,1-.84c1.47,1.8,3,3.52,4.47,5.18a2.77,2.77,0,0,1,.33-1.31,3.13,3.13,0,0,1,2.41-1.53l-1.06-1.27a.67.67,0,0,1,1-.86l1.88,2.25a5.68,5.68,0,0,1,1.36.52C215.82,222.38,216.85,224.7,215.93,226.38ZM225.72,203a3.62,3.62,0,1,1-1.3-4.65A3.42,3.42,0,0,1,225.72,203Z"/><path class="cls-9" d="M244.86,201A165.22,165.22,0,0,0,223.43,211a.65.65,0,0,1-.89-.24v0a3.7,3.7,0,0,0-.36,1,1.7,1.7,0,0,0,0,.69,1.25,1.25,0,0,0,.1.27,1.22,1.22,0,0,0,.16.23,2.23,2.23,0,0,0,1.44.63.59.59,0,0,0,.18,0h.26l.4,0h.19l.76-.07h0l1.07-.12.2,0,1.07-.14.25,0,1.33-.18h.09l3.69-.54a63.16,63.16,0,0,1,6.17-7.62.67.67,0,0,1,.94,0,.66.66,0,0,1,.19.44Q242.66,203.09,244.86,201Z"/><path class="cls-10" d="M224.72,208.72l-.27.16-.18.12c1.26-.68,3.26-1.73,5.76-3C227.86,207,226,208,224.72,208.72Z"/><path class="cls-3" d="M248.61,136.13l0,.05,0-.05Z"/><path class="cls-3" d="M255.24,253.81a3.67,3.67,0,0,1-2-1.5l-.44,1.52,2.26.65c.42-.12.83-.25,1.25-.38Z"/><path class="cls-3" d="M225.71,239.81a.64.64,0,0,1-.16.15c0,.39,0,.77,0,1.15s0,.49.05.74c0,.51.12,1,.19,1.5,0,.22.06.43.1.65.09.5.21,1,.33,1.47,0,.18.09.37.14.54.14.5.31,1,.49,1.46l0,.07c1,2,3.51,5.36,9.78,6.53a.67.67,0,0,1-.12,1.32h-.12a16.71,16.71,0,0,1-7.24-3c.11.37.22.72.34,1.1h0c.2.6.42,1.22.64,1.84a35.52,35.52,0,0,0,4.94,2c2.91.92,5.77,1.66,8.59,2.27l-.17-.54v0l-.16-.5a6.66,6.66,0,0,1-.55-1.75l-.3-1h.22a6.68,6.68,0,0,1,.23-2l1.41-4.89c-.9-.24-1.79-.48-2.68-.76a.67.67,0,0,1,.4-1.27c.87.28,1.76.51,2.65.75l4.94-17.11a6.71,6.71,0,0,1,8.31-4.58l18.32,5.29c2.39-7.47,4.64-16.11,11.4-26.94a9.93,9.93,0,0,1,1.71-2.85c.66-.47,15-7.12,21.54-10.17l.06-.1c.12-.2.31-.49.55-.85a34.52,34.52,0,0,1,2.1-2.79c1-1.19,2.11-2.41,3.25-3.53l.72-.68c-4.68.95-14.38,3.1-23.24,5.25.44-1,.83-2.08,1.21-3.11l.26-.74c.61-1.73,1.12-3.43,1.57-5.1a30.23,30.23,0,0,0,.15-11.24.66.66,0,0,1,.39-.76,20.39,20.39,0,0,0-1.87-6.37,9.32,9.32,0,0,1-6.46-8.87s0-.06,0-.1a39.69,39.69,0,0,1-2.42-3.51,19.82,19.82,0,0,1-1.51-1.68,22.2,22.2,0,0,1-4.18-8.8c-.19-.43-.4-.86-.57-1.28a8.73,8.73,0,0,1-2.21-1.89,7.3,7.3,0,0,1-2.4-2.82,9.05,9.05,0,0,1-.74-3.88l-3.85-.15a.67.67,0,0,1-.6-.44c-.81,0-1.64,0-2.49.06a4.22,4.22,0,0,1-2,1.75.65.65,0,0,1,.06.16.67.67,0,0,1-.57.75,5.22,5.22,0,0,1-.69,0,6.21,6.21,0,0,1-3.8-1.43l-1.7.54a8.36,8.36,0,0,1,2.54,5.74c0,5.54-5.52,7.44-5.58,7.46a.68.68,0,0,1-.21,0,.65.65,0,0,1-.55-.34,6,6,0,0,1-2.95.16,2.3,2.3,0,0,1-.81-.36l-.24,0c-.21,0-5.11-1.07-7.28-7.94a1.31,1.31,0,0,1,0-.88l-.67.25-.56.21-.93.36-.64.25-.92.36-.66.26-.92.37-.7.28-.92.38-.7.29-.93.39-.72.31-.91.39-.73.32-.92.41-.69.31-1.63.74-.91.42-.79.37-.85.4-.81.39-.83.4-.79.39-.84.42-.78.39-.83.42-.76.4-.83.44-.73.39-.84.46-.69.38-.85.48-.65.37-.9.52-.56.33-1.22.74-.32.19-1.23.77-.45.29-.86.57-.51.35-.74.51-.51.37-.68.5-.49.37-.63.49-.47.37-.59.49-.43.37-.55.49-.39.36-.52.51-.34.33-.51.55-.26.28c-.24.27-.46.54-.67.81h0a4.23,4.23,0,0,0-.78,1.9s0,.1,0,.15a1.29,1.29,0,0,1,1.17,1c0,.17,7.73,18.39,14.42,21.65,6.06,3,29.29,5.38,47,3.81,10.8-2.13,14.49-4.42,23.32-13.24,2.81-2.81,4.2,7.36-.94,12.17-4.35,4.07-15.5,5.64-27.74,5.68-1,.53-1.91,1.07-2.83,1.63l-.5.3q-1,.61-2,1.24l-.75.5q-1.44,1-2.81,2l-1.22.91-1.3,1q-1,.77-1.88,1.55a71.86,71.86,0,0,1,10.86-2.84.65.65,0,0,1,.22,1.29A77.53,77.53,0,0,0,244.86,201q-2.2,2.05-4.14,4.19a.66.66,0,0,1-.19.5,65.48,65.48,0,0,0-6.52,8.16c-.22.34-.45.67-.66,1s-.26.44-.39.66c-.43.7-.85,1.41-1.24,2.11-.16.29-.3.58-.46.87-.34.63-.67,1.27-1,1.9-.16.32-.29.64-.44,1-.28.6-.55,1.2-.8,1.79-.14.34-.27.67-.4,1-.23.58-.45,1.15-.65,1.72-.12.34-.23.68-.34,1-.19.56-.37,1.12-.53,1.68-.1.34-.18.67-.27,1-.15.55-.28,1.1-.41,1.64-.06.25-.11.5-.16.76l0,.22c-.11.54-.21,1.08-.29,1.61,0,.31-.09.62-.13.93q-.11.8-.17,1.58c0,.3,0,.59-.07.88,0,.52-.05,1-.06,1.55,0,0,0,.09,0,.14A.67.67,0,0,1,225.71,239.81Zm8.76-88a7.35,7.35,0,0,1,4.44-2.93,1.52,1.52,0,0,1-.07-.37V145a1.58,1.58,0,1,1,3.16,0v3.55a1.51,1.51,0,0,1-.07.37,7.35,7.35,0,0,1,4.44,2.93A2,2,0,0,1,243,154a3.3,3.3,0,0,0-2.6-1.3h0a3.32,3.32,0,0,0-2.58,1.28,2,2,0,1,1-3.36-2.18Zm14.37,21.79a.54.54,0,0,1-.14.21l-.48.41a25.29,25.29,0,0,1-3.17,2.29,29.91,29.91,0,0,1-3,1.6,26,26,0,0,1-5.5,1.8c-.48.08-.93.12-1.39.18h0l0,0a19.93,19.93,0,0,1-8.24-.61l-.13,0h0l-.12,0a19.93,19.93,0,0,1-7.22-4h0l0,0a5.89,5.89,0,0,1,.68-.16,3.42,3.42,0,0,0-.67.14c-.36-.31-.73-.59-1.07-.93a25,25,0,0,1-3.61-4.51,27.72,27.72,0,0,1-1.6-2.95,23.9,23.9,0,0,1-1.39-3.64l-.18-.6a.52.52,0,0,1,.31-.64.43.43,0,0,1,.24,0l1.93.43,0,0,1,.22a7,7,0,0,1-.29-2.74c.4-.38,6.17,1.11,6.35,1.38a13,13,0,0,1-.41,2.77l.67.17,1.67.46a15,15,0,0,1,1-3c.4-.38,8,1.53,8.18,1.8a15.11,15.11,0,0,1-2.43,3.07l.72.21c3,1,6,1.86,9.05,2.86l4.5,1.53,2.64,1c.6.22,1.21.44,1.81.69A.49.49,0,0,1,248.84,173.59Zm24.71-19a2,2,0,0,1-2.76-.57,3.3,3.3,0,0,0-2.6-1.3h0a3.31,3.31,0,0,0-2.58,1.28,2,2,0,0,1-3.36-2.18,7.35,7.35,0,0,1,4.44-2.93,1.52,1.52,0,0,1-.07-.37V145a1.58,1.58,0,0,1,3.16,0v3.55a1.51,1.51,0,0,1-.07.37,7.34,7.34,0,0,1,4.44,2.93A2,2,0,0,1,273.54,154.59Zm-44.41,87.29a.67.67,0,0,1,.91-.26l1.16.63a.67.67,0,0,1-.63,1.18l-1.18-.64A.67.67,0,0,1,229.13,241.89Z"/><path class="cls-11" d="M243.56,259h.09l-.07-.1c-.07-.13-.11-.27-.17-.41l.16.5Z"/><path class="cls-12" d="M266.06,252.73l-2.3-.66q0,.17-.08.35a3.68,3.68,0,0,1-4.56,2.51l-2.85-.82c-.41.13-.83.27-1.25.38L267,258l1.56-5.4a3.66,3.66,0,0,1-2.53.18Z"/><path class="cls-13" d="M271.55,267.38c0,.42,0,.84,0,1.25s0,.59,0,.88c0,.58,0,1.15,0,1.71s0,1.11,0,1.64,0,1,0,1.51v0c0,.73.05,1.4.09,2s.06.89.1,1.28a6.23,6.23,0,0,0,.39,1.95.45.45,0,0,0,.11.13h0a.84.84,0,0,0,.27.14l.1,0,.21,0,.13,0,.21-.05.15-.06.22-.11.16-.1.24-.18.17-.14.26-.25.17-.17.3-.34.15-.17c.15-.19.3-.39.46-.62l0-.07c.14-.2.28-.42.43-.65l.17-.27.32-.54.19-.35.3-.55.21-.41.29-.59.21-.45.29-.65.21-.48.3-.72.2-.5.32-.85.17-.45c.16-.44.32-.9.48-1.37v0c.17-.51.34-1.06.49-1.64v-.05c.15-.56.3-1.15.44-1.77l0-.1q.21-.91.4-1.87l0-.12c.08-.38.14-.77.22-1.16-1.94.42-3.94.78-6,1.08A6.72,6.72,0,0,1,271.55,267.38Z"/><path class="cls-14" d="M287.32,208.66a.67.67,0,0,1-.62.42.66.66,0,0,1-.25,0,.67.67,0,0,1-.37-.87c.45-1.09,1.07-2.57,1.68-3.86-6.76,10.83-9,19.46-11.4,26.94l1.08.31a6.71,6.71,0,0,1,4.58,8.31l-5.93,20.53q2.87-.47,5.63-1.11v-.09l0-.13c.1-.68.2-1.36.3-2v-.1c0-.29.08-.58.12-.87a.65.65,0,0,1-.06-.34c.64-5.36,2.26-28.44,2.28-28.67a.66.66,0,0,1,.71-.62.67.67,0,0,1,.62.71c0,.16-.8,11.43-1.5,20.08a62.2,62.2,0,0,0,6.31-.57,48.33,48.33,0,0,0,16.38-5.59,4.9,4.9,0,0,1-.43-3.56l2.31-8.79A5,5,0,0,1,312,225.3a5,5,0,0,1-.38-5.14,18.28,18.28,0,0,1,4-5.19c-.46.17-.94.33-1.44.48h0a24.91,24.91,0,0,1-4.15.86,7.66,7.66,0,0,0-7.46-1,8.6,8.6,0,0,0-11.86.3,31.12,31.12,0,0,0-3.18.51c-.37,1.79-.64,3.2-.66,3.53a.67.67,0,0,1-1.3.29c-.06-.19-.14-.45,1.08-6.15a47.68,47.68,0,0,1,1.32-5.32h0c.17-.54.34-1.07.51-1.59v0q.26-.75.52-1.46l0-.11q.25-.68.51-1.31l.07-.17.27-.66C289.24,204.21,288.17,206.56,287.32,208.66ZM290,244a120.56,120.56,0,0,0,14.41-6.78.67.67,0,0,1,.64,1.17,122,122,0,0,1-14.57,6.86A.67.67,0,0,1,290,244Z"/><path class="cls-15" d="M242.85,256.75a6.58,6.58,0,0,1-.08-1h-.22Z"/><path class="cls-3" d="M232.56,261.06q.55,1.16,1.16,2.32l.14.25q.61,1.13,1.29,2.24l.15.24q.7,1.13,1.47,2.21l.12.17c.55.77,1.14,1.51,1.75,2.22h0l.95,1.1.24.28.66.76.29.33.58.65.3.34.54.59.27.3.55.6.21.22.71.74.11.11.55.55.21.2.4.38.23.2.35.31.21.18.33.26.18.13.36.24.1.07a3.66,3.66,0,0,0,.41.21l.1,0,.27.08.12,0h.18a.77.77,0,0,0,.23-.05l.1,0a.78.78,0,0,0,.26-.23h0a.67.67,0,0,0,.08-.29s0-.07,0-.11a3.48,3.48,0,0,0,0-.4s0-.08,0-.12c0-.2,0-.43-.08-.68l0-.2q0-.31-.12-.67l0-.26c-.06-.31-.13-.64-.21-1l0-.1c-.07-.33-.15-.67-.24-1l-.09-.36-.25-1-.06-.24-.35-1.31-.09-.35-.3-1.09-.11-.38-.4-1.42,0-.16-.38-1.33-.1-.35-.39-1.33,0-.14-.45-1.49-.07-.24-.24-.78a95.47,95.47,0,0,1-10.29-2.63c-.92-.29-1.84-.64-2.76-1,.29.68.58,1.36.9,2Z"/><path class="cls-3" d="M235.05,154.58a2,2,0,0,0,2.77-.59,3.32,3.32,0,0,1,2.58-1.28h0A3.3,3.3,0,0,1,243,154a2,2,0,0,0,3.35-2.2,7.35,7.35,0,0,0-4.44-2.93,7,7,0,0,0-1.51-.18h0a7,7,0,0,0-1.51.18,7.35,7.35,0,0,0-4.44,2.93A2,2,0,0,0,235.05,154.58Zm0-2.41a6.66,6.66,0,0,1,5.39-2.8h0a6.66,6.66,0,0,1,5.39,2.8,1.34,1.34,0,0,1-2.24,1.46,4,4,0,0,0-3.15-1.59h0a4,4,0,0,0-3.14,1.58,1.34,1.34,0,1,1-2.24-1.45Z"/><path class="cls-3" d="M269.7,148.89a7,7,0,0,0-1.51-.18h0a7,7,0,0,0-1.51.18,7.35,7.35,0,0,0-4.44,2.93,2,2,0,0,0,3.36,2.18,3.31,3.31,0,0,1,2.58-1.28h0a3.3,3.3,0,0,1,2.6,1.3,2,2,0,0,0,3.35-2.2A7.34,7.34,0,0,0,269.7,148.89Zm3.48,5.14a1.34,1.34,0,0,1-1.84-.39,4,4,0,0,0-3.15-1.59h0a4,4,0,0,0-3.14,1.58,1.34,1.34,0,0,1-2.24-1.45,6.65,6.65,0,0,1,5.38-2.8h0a6.65,6.65,0,0,1,5.39,2.8A1.34,1.34,0,0,1,273.18,154Z"/><path class="cls-16" d="M289.36,171.79c-8.83,8.82-12.51,11.1-23.32,13.24-17.68,1.57-40.91-.85-47-3.81-6.69-3.26-14.39-21.48-14.42-21.65a1.29,1.29,0,0,0-1.17-1c-.43,2.94,1.13,7.3,3.52,11.57.41.72.84,1.45,1.28,2.16.67,1.07,1.39,2.11,2.12,3.11.49.67,1,1.31,1.5,1.93s1,1.21,1.53,1.76l.76.8c.51.52,1,1,1.5,1.42l.73.61a10.39,10.39,0,0,0,2.7,1.63c8.13,3,19.7,5,31.53,5,2,0,4.06-.07,6.09-.19a.65.65,0,0,1,.19-.06c.14,0,14.55-1.54,21.34-4.3a.67.67,0,0,1,.5,1.24c-4.52,1.84-12.07,3.11-17,3.8l-1.15.63c12.24,0,23.38-1.61,27.74-5.68C293.56,179.15,292.17,169,289.36,171.79Z"/><path class="cls-3" d="M299.76,198c-4.27,2-7.81,3.67-9.06,4.3C293.13,201.17,296.33,199.66,299.76,198Z"/><path class="cls-4" d="M222.21,169c.19.36,3.71,1.15,4.21.94a18.12,18.12,0,0,0,3.42-3.19,15.11,15.11,0,0,0,2.43-3.07c-.18-.27-7.78-2.18-8.18-1.8a15,15,0,0,0-1,3A21.44,21.44,0,0,0,222.21,169Z"/><path class="cls-4" d="M219.67,168a16.42,16.42,0,0,0,1.09-3.85,13,13,0,0,0,.41-2.77c-.18-.27-5.94-1.76-6.35-1.38a7,7,0,0,0,.29,2.74,33.3,33.3,0,0,0,.87,3.45C216.17,166.57,219.24,168.36,219.67,168Z"/><path class="cls-17" d="M268.75,127.91c.85,0,1.68-.06,2.49-.06a.66.66,0,0,1,0-.25.68.68,0,0,1,.69-.64l4,.15a5.49,5.49,0,0,1,.9-2,.67.67,0,0,1,1,.83c-.07.09-1.67,2.22-.15,5.91.74,1.8,3.52,3.34,4.52,3.79a.67.67,0,0,1,.4.55,21.1,21.1,0,0,0,4.24,10.12A22.49,22.49,0,0,0,297,153.11a.67.67,0,0,1,.47.53s.71,4,2.25,5.49c.84.84,3.09,3.08,8.91,2a.67.67,0,0,1,.24,1.31,17.6,17.6,0,0,1-3.18.31,9.06,9.06,0,0,1-6.91-2.69c-1.52-1.53-2.3-4.68-2.54-5.8a24.06,24.06,0,0,1-8.91-5.49,39.69,39.69,0,0,0,2.42,3.51s0,.06,0,.1a9.32,9.32,0,0,0,6.46,8.87,20.39,20.39,0,0,1,1.87,6.37l.1,0a.67.67,0,0,1,.81.49,26.62,26.62,0,0,1,.43,7.12l1.05,0h0l.59,0h0c.39-1.34.76-2.73,1.09-4.16a3.94,3.94,0,0,0,5.14-2.77l.18,0a10.3,10.3,0,0,0,13.83-6.18,7.24,7.24,0,0,0,6.64-6,40.08,40.08,0,0,0,3.17-4,8.13,8.13,0,0,0,6.48-10.41,8.14,8.14,0,0,0,.59-12.18,39.94,39.94,0,0,0-.34-5.3,8.67,8.67,0,0,0,3-5h0c.06-.28.1-.56.13-.85s0-.55,0-.83c0,0,0,0,0-.07a8.7,8.7,0,0,0-.08-1.11c0-.1,0-.19,0-.29a8.6,8.6,0,0,0-.19-.9l0-.17a8.58,8.58,0,0,0-.38-1l-.07-.16a8.62,8.62,0,0,0-.45-.85l-.08-.13a8.72,8.72,0,0,0-1.43-1.72l-.05,0a8.73,8.73,0,0,0-1.89-1.32h0a8.64,8.64,0,0,0-3.84-1A40.23,40.23,0,0,0,323.06,98a8.69,8.69,0,0,0-.21-1.55h0a8.64,8.64,0,0,0-.43-1.35l0-.09a8.66,8.66,0,0,0-.62-1.21l-.06-.09a8.71,8.71,0,0,0-.82-1.09l0,0a8.72,8.72,0,0,0-1-1h0a8.68,8.68,0,0,0-1.1-.75l-.15-.09a8.6,8.6,0,0,0-1.16-.53l-.21-.07a8.57,8.57,0,0,0-1.25-.33l-.18,0a8.69,8.69,0,0,0-1.39-.12c-.26,0-.5,0-.75.05s-.33,0-.48,0a8.52,8.52,0,0,0-.83.18l-.35.08a8.72,8.72,0,0,0-2.15,1,40.06,40.06,0,0,0-5.91-1.33,8.79,8.79,0,0,0-.68-.63l-.24-.19c-.16-.13-.33-.25-.5-.37l-.3-.19-.5-.29-.34-.17-.52-.23-.35-.13-.56-.17-.35-.09c-.21,0-.43-.08-.64-.11l-.3,0a8.58,8.58,0,0,0-1-.06,8.75,8.75,0,0,0-1.06.06,8.62,8.62,0,0,0-3,.93,8.71,8.71,0,0,0-2.38,1.84q-1.25.22-2.47.51A39.76,39.76,0,0,0,284,91.82q-1.16.44-2.29.94a8.06,8.06,0,0,0-3.77-.29l-.32,0a8.77,8.77,0,0,0-7.13,7.81q-.64.61-1.25,1.25a8.68,8.68,0,0,0-7,8.52s0,.06,0,.09a8.92,8.92,0,0,0,.1,1.18c-.19.38-.36.77-.54,1.16q-.38.82-.72,1.65c-.22.53-.44,1.07-.64,1.61a4.21,4.21,0,0,0-2.61,3.9,4.18,4.18,0,0,0,.9,2.57c-.09.52-.18,1-.25,1.58s-.14,1.06-.19,1.6h0c-.08.87-.13,1.74-.16,2.6.27.2.56.41.85.66l2.77-.87a.67.67,0,0,1,.67.16,4.86,4.86,0,0,0,3.68,1.28.66.66,0,0,1,.7.41A4.22,4.22,0,0,0,268.75,127.91Zm44.61,30.89a.67.67,0,0,1,.94-.07,4.49,4.49,0,0,0,5.87-.25,5.68,5.68,0,0,0,2.28-5.58,8.37,8.37,0,0,1-4.39-1.38,1.34,1.34,0,0,1,1.54-2.18,5.62,5.62,0,0,0,7.37-1c4.08-4.1,2-8.13,2-8.17a1.34,1.34,0,0,1,2.36-1.25c1.05,2,1.89,6.92-2.47,11.3a8.74,8.74,0,0,1-5.08,2.65,7,7,0,0,1-2.75,6.67,6,6,0,0,1-3.9,1.53,6.24,6.24,0,0,1-3.69-1.29A.67.67,0,0,1,313.36,158.79ZM282.27,98.43a5.72,5.72,0,0,1,5.59,2.05l.47-.24a8.58,8.58,0,0,1,6.37-.51A7.09,7.09,0,0,1,300.3,96a5.88,5.88,0,0,1,6.59,3.78.67.67,0,1,1-1.27.41,4.49,4.49,0,0,0-5.13-2.87,5.81,5.81,0,0,0-4.58,2.92,8.26,8.26,0,0,1,3,2.56,1.34,1.34,0,0,1-2.21,1.5,5.62,5.62,0,0,0-7.26-1.63c-5.26,2.4-4.75,6.9-4.75,6.94a1.34,1.34,0,0,1-1.16,1.49h-.17A1.34,1.34,0,0,1,282,110a9.57,9.57,0,0,1,4.65-8.81,4.48,4.48,0,0,0-4.23-1.39c-4.4.63-5,4-5.05,4.18a.67.67,0,0,1-.66.56h-.11a.67.67,0,0,1-.55-.76A6.92,6.92,0,0,1,282.27,98.43Z"/><path class="cls-18" d="M278.82,135.13A8.73,8.73,0,0,0,281,137c.18.42.38.85.57,1.28-.17-.73-.26-1.3-.31-1.65A15.7,15.7,0,0,1,278.82,135.13Z"/><path class="cls-4" d="M223.08,211a.65.65,0,0,0,.35-.09A165.22,165.22,0,0,1,244.86,201a77.53,77.53,0,0,1,13.64-3.84.65.65,0,0,0-.22-1.29,71.86,71.86,0,0,0-10.86,2.84h0l-.2.17C241.65,201.08,235,203.76,230,206c-2.5,1.23-4.5,2.28-5.76,3a5.08,5.08,0,0,0-1.49,1.22c-.1.16-.18.31-.25.46v0A.65.65,0,0,0,223.08,211Z"/><path class="cls-19" d="M242.29,116.72c1.6,1.44,4,.76,5.31-1.13a.91.91,0,0,1,0-.12c0-.07.3-6.52-2.59-8.84l-.11.09-.22.22-.16.19-.24.33-.16.24-.26.43-.15.26c-.1.19-.2.39-.3.6l-.09.18c-.13.28-.26.57-.38.87l-.08.21c-.09.23-.18.46-.27.7l-.11.34c-.07.2-.13.4-.19.59l-.1.37c-.05.19-.1.37-.15.56l-.09.37q-.06.27-.11.52t-.06.35c0,.17,0,.32-.06.48s0,.21,0,.32,0,.29,0,.43,0,.18,0,.26a2.64,2.64,0,0,0,.07.38c0,.06,0,.13,0,.18a1.2,1.2,0,0,0,.22.41A2.88,2.88,0,0,0,242.29,116.72Z"/><path class="cls-20" d="M250.18,121.24c0-.06,0-.12.05-.18a28.87,28.87,0,0,0-.87-3.17A5.49,5.49,0,0,0,249,117c-.7,2.47-4.49,3.92-7,1.82,0,.43-.07.87-.08,1.28a11.84,11.84,0,0,0,.11,1.95,3.73,3.73,0,0,0,.51,1.53,1.33,1.33,0,0,0,.28.3,3.62,3.62,0,0,0,.48.31,3.85,3.85,0,0,0,.51.23A5.19,5.19,0,0,0,250.18,121.24Z"/><path class="cls-21" d="M244,125.86v0c0,.32.1.63.16.95-.14-.78-.25-1.58-.33-2.39C243.9,124.91,244,125.39,244,125.86Z"/><path class="cls-22" d="M252,122.82a5.73,5.73,0,0,1-7.78,4.15c0,.1,0,.2,0,.29v0c.09.46.18.9.29,1.33h0a7.83,7.83,0,0,0,2,4.06c3.35.63,8.22-1.76,8.49-5.38,0-.19,0-.36,0-.54a5.65,5.65,0,0,0-1.35-2.5A14.87,14.87,0,0,0,252,122.82Z"/><path class="cls-23" d="M256.26,142.61s-.07-.06-.08-.11a.67.67,0,0,1,.42-.85c.19-.06,4.66-1.63,4.66-6.19,0-3.09-2.52-5.36-4.22-6.55.22,4.13-4.37,7.27-8.42,7.21l0,.05a7.09,7.09,0,0,0,4.15,3.58,1.34,1.34,0,0,1-.27,2.64h0a2.3,2.3,0,0,0,.81.36A6,6,0,0,0,256.26,142.61Z"/><path class="cls-2" d="M287.76,204.29c-.61,1.29-1.23,2.77-1.68,3.86a.67.67,0,0,0,.37.87.66.66,0,0,0,.25,0,.67.67,0,0,0,.62-.42c.85-2.09,1.92-4.45,2.53-5.53l0,0,.22-.52.61-.28c1.25-.63,4.79-2.3,9.06-4.3,3.56-1.73,7.35-3.63,10.78-5.41a3,3,0,0,1,.34-1.07l.13-.22c-6.58,3.05-20.88,9.7-21.54,10.17A9.93,9.93,0,0,0,287.76,204.29Z"/><path class="cls-24" d="M332.12,182.67a21.77,21.77,0,0,0,1.61-2.07c.38-.57.69-1.09.94-1.56a4.47,4.47,0,0,1-2.44-1.34,5.83,5.83,0,0,1-1.11-1.84c-.29.09-.58.19-.89.3a21.88,21.88,0,0,0-2.4,1.08c0,.14,0,.29.05.43A7.08,7.08,0,0,0,332.12,182.67Z"/><path class="cls-25" d="M327.2,187.12l.19-.15.74-.58.66-.53.35-.29a11.08,11.08,0,0,1-1.19-.81,10.94,10.94,0,0,1-3.63-5.3l-.36.27-.68.52-.75.59-.68.56c-.71.58-1.39,1.17-2,1.76s-1.3,1.2-1.9,1.79c-1.11,1.09-2.2,2.28-3.16,3.44a33.37,33.37,0,0,0-2,2.68c-.22.34-.4.61-.51.8l-.16.28a1.66,1.66,0,0,0,1.89,2.4l.31-.09.9-.31a33,33,0,0,0,3.07-1.34l.07,0a10.24,10.24,0,0,1-.67-6.31,1.34,1.34,0,0,1,1.6-1,1.32,1.32,0,0,1,1,.91A13.48,13.48,0,0,1,327.2,187.12Z"/><path class="cls-26" d="M336.95,177.72c1-.23,3.18-1.09,5-4.22-1.15-1-3.15.9-4-.68-.68-1.32.08-1.79-.46-2.53h-.8a4.51,4.51,0,0,0-4.22,2.33,3.75,3.75,0,0,0,.74,4.21A3.87,3.87,0,0,0,336.95,177.72Z"/><path class="cls-4" d="M320.18,186.36a1.3,1.3,0,0,1,0,.69c0,.06-.64,3,.66,4.86a4.09,4.09,0,0,0,2.93,1.67,4.65,4.65,0,0,0,3.66-.67,5.25,5.25,0,0,0,1.72-3.24,1.32,1.32,0,0,1,.72-1,6.29,6.29,0,0,0-1.35-.91,11.85,11.85,0,0,0-1.38-.62A13.48,13.48,0,0,0,320.18,186.36Z"/><path class="cls-2" d="M176.9,175.8a.67.67,0,0,0-.32.89c2.44,5.17,4.81,9.86,7.24,14.36a.67.67,0,1,0,1.17-.64c-2.42-4.47-4.78-9.15-7.21-14.29A.67.67,0,0,0,176.9,175.8Z"/><path class="cls-2" d="M191.82,204.08a.67.67,0,0,0,.56-1q-1.07-1.69-2.1-3.39a.67.67,0,0,0-.43-.3,15,15,0,0,1,1.47,4.48A.66.66,0,0,0,191.82,204.08Z"/><path class="cls-2" d="M158.74,130.53a.67.67,0,0,0-1.25.48q1.66,4.33,3.29,8.48l1.28-.4Q160.41,134.91,158.74,130.53Z"/><path class="cls-2" d="M171.06,164a.66.66,0,0,0,0,.46l.54,1.23a.67.67,0,0,0,1.22-.54l-.52-1.19c-.36,0-.71,0-1.07,0Z"/><path class="cls-2" d="M150.81,109.23a.67.67,0,1,0-1.26.45l1.37,3.77a.63.63,0,0,0,.15.19l1.09-.69Z"/><path class="cls-2" d="M141.12,83.55a.67.67,0,0,0-.42.84c0,.06,2,6,5.25,15.21a.67.67,0,0,0,.63.45.68.68,0,0,0,.22,0,.67.67,0,0,0,.41-.85C144,90,142,84,142,84A.67.67,0,0,0,141.12,83.55Z"/><path class="cls-2" d="M339.26,213.8q2.76-2.41,5.53-5a.67.67,0,1,0-.9-1q-3,2.74-6,5.33c.38.25.75.52,1.12.8Z"/><path class="cls-2" d="M221.31,236.77a.67.67,0,0,0,.15.93c.45.33.92.63,1.38,1,.65.45,1.29.92,1.94,1.34a.67.67,0,0,0,.37.11.66.66,0,0,0,.4-.16.64.64,0,0,0,.16-.15.67.67,0,0,0-.17-.91h0l0,0c-.87-.57-1.74-1.18-2.6-1.8l-.67-.46A.67.67,0,0,0,221.31,236.77Z"/><path class="cls-2" d="M290.27,245.24a.67.67,0,0,0,.24,0,122,122,0,0,0,14.57-6.86.67.67,0,0,0-.64-1.17A120.56,120.56,0,0,1,290,244a.67.67,0,0,0,.24,1.29Z"/><path class="cls-2" d="M323.28,225.83a.67.67,0,0,0-.93-.15l-1.08.78a.65.65,0,0,0-.24.36l1.49.39.62-.45A.67.67,0,0,0,323.28,225.83Z"/><path class="cls-2" d="M203.22,218.2a.67.67,0,0,0-1,.84,116,116,0,0,0,11,11.8.67.67,0,0,0,.91-1c-.69-.64-1.38-1.32-2.07-2q-2.17-2.14-4.31-4.49C206.18,221.72,204.68,220,203.22,218.2Z"/><path class="cls-2" d="M195.88,209.53a.67.67,0,0,0,.17-.93l-.72-1,0-.05a.67.67,0,1,0-1.11.75l.76,1.11h0a.67.67,0,0,0,.93.17Z"/><path class="cls-2" d="M229.39,242.79l1.18.64a.67.67,0,1,0,.63-1.18l-1.16-.63a.67.67,0,0,0-.65,1.17Z"/><path class="cls-2" d="M241.3,247.31a.67.67,0,0,0,.43.84c.88.28,1.78.52,2.68.76l.37-1.28c-.89-.24-1.77-.47-2.65-.75A.67.67,0,0,0,241.3,247.31Z"/><path class="cls-2" d="M147,116.2c-6-16.83-9.49-28.88-10.07-31.62a1.34,1.34,0,1,0-2.61.55c.68,3.25,4.4,15.67,10.41,32.52a3.79,3.79,0,0,1,.56-.37Z"/><path class="cls-2" d="M202.19,229.21q-3.06-4.1-6-8.53c-1.93-2.89-3.82-5.87-5.67-8.92a14.89,14.89,0,0,1-1.39,2.7A196.31,196.31,0,0,0,205.86,238l2.72-.82Q205.34,233.43,202.19,229.21Z"/><path class="cls-2" d="M149.68,123.55l-.29.18a3.73,3.73,0,0,1-2.16.75c2.28,6.19,4.83,12.85,7.61,19.75a5.81,5.81,0,0,1,1.68-2.81C154,135.15,151.74,129.15,149.68,123.55Z"/><path class="cls-2" d="M179.13,191.48c-3.77-7.26-7.26-14.53-10.43-21.46q-1.63-3.56-3.18-7.09a15,15,0,0,1-3.82-2.26c4.41,10.18,9.25,20.57,14.42,30.63.16,0,.32,0,.48,0A15,15,0,0,1,179.13,191.48Z"/><path class="cls-2" d="M325.29,237.29c.14,0,.26.11.4.14a8.55,8.55,0,0,0,3.35.17,79.54,79.54,0,0,0,6.38-6,1.24,1.24,0,0,0,.07-.12l-2.91-.77A93.58,93.58,0,0,1,325.29,237.29Z"/><path class="cls-2" d="M231.58,258.84c.92.38,1.84.72,2.76,1a95.47,95.47,0,0,0,10.29,2.63c1,.2,2,.37,3,.53q2.89.47,5.71.75l-5.7-1.65a6.64,6.64,0,0,1-3.5-2.46l-.35-.07c-2.82-.6-5.69-1.35-8.59-2.27a35.52,35.52,0,0,1-4.94-2c-1.16-.57-2.31-1.22-3.46-1.92q-2.19-1.33-4.36-3l-1-.79.7,2.3a2.68,2.68,0,0,0,.56,1.84s0,.07,0,.1c.64.44,1.27.86,1.91,1.27,1.16.74,2.33,1.41,3.5,2S230.4,258.36,231.58,258.84Z"/><path class="cls-2" d="M318.84,245.46a18.29,18.29,0,0,1-2.35-1.6c-2.29,1.55-4.79,3.12-7.49,4.65a103.63,103.63,0,0,1-20.91,9.06l-.15,0q-1.68.51-3.41,1-1.39.36-2.81.69-2.76.63-5.63,1.11l-.8,2.75,0,.06c2-.3,4-.66,6-1.08,1-.21,1.9-.44,2.84-.67q1.74-.43,3.43-.92a105,105,0,0,0,20.42-8.39c3.39-1.82,6.52-3.72,9.34-5.59Z"/><path class="cls-27" d="M268.85,268h0a6.63,6.63,0,0,0,2.69-.6h0a6.72,6.72,0,0,0,3.72-4.19l0-.06.8-2.75L282,239.85a6.71,6.71,0,0,0-4.58-8.31l-1.08-.31L258,225.94a6.71,6.71,0,0,0-8.31,4.58l-4.94,17.11-.37,1.28L243,253.8a6.68,6.68,0,0,0-.23,2,6.58,6.58,0,0,0,.08,1,6.66,6.66,0,0,0,.55,1.75c.06.13.1.27.17.41l.07.1a6.76,6.76,0,0,0,.44.64,6.64,6.64,0,0,0,3.5,2.46l5.7,1.65,4.51,1.3,8.35,2.41.84.24A6.72,6.72,0,0,0,268.85,268Zm-20.52-8.44a4,4,0,0,1-2.76-5l6.73-23.28a4,4,0,0,1,5-2.76l19.4,5.61a4,4,0,0,1,2.76,5l-6.73,23.28a4,4,0,0,1-5,2.76Z"/><path class="cls-27" d="M269.41,259.33l5.61-19.4a2,2,0,0,0-1.38-2.5l-15.52-4.49a2,2,0,0,0-2.5,1.38L250,253.72a2,2,0,0,0,1.38,2.5l15.52,4.49a2,2,0,0,0,2.5-1.38Zm-10.75-21a1,1,0,0,1,1.25-.69l9.7,2.8a1,1,0,1,1-.56,1.94l-9.7-2.8A1,1,0,0,1,258.66,238.35Zm-1.12,3.88a1,1,0,0,1,1.25-.69l9.7,2.8a1,1,0,1,1-.56,1.94l-9.7-2.8A1,1,0,0,1,257.54,242.23Zm-1.12,3.88a1,1,0,0,1,1.25-.69l9.7,2.8a1,1,0,1,1-.56,1.94l-9.7-2.8A1,1,0,0,1,256.41,246.11ZM255.29,250a1,1,0,0,1,1.25-.69l3.88,1.12a1,1,0,1,1-.56,1.94L256,251.24A1,1,0,0,1,255.29,250ZM267,258l-12-3.47-2.26-.65.44-1.52a3.67,3.67,0,0,0,2,1.5l1,.3,2.85.82a3.68,3.68,0,0,0,4.56-2.51q.05-.17.08-.35l2.3.66a3.66,3.66,0,0,0,2.53-.18Z"/><path class="cls-27" d="M171.06,164h.19c.36,0,.72,0,1.07,0a15.18,15.18,0,0,0,13.42-19.64l-1.85-6a5.77,5.77,0,0,0-5.54-4.08h0a5.8,5.8,0,0,0-1.72.26l-14.57,4.53-1.28.4-2.06.64a5.73,5.73,0,0,0-2.2,1.29,5.81,5.81,0,0,0-1.68,2.81,5.74,5.74,0,0,0,.06,3.15l1.85,6A15.12,15.12,0,0,0,171.06,164Zm-11.75-11.46-1.85-6a3.13,3.13,0,0,1,2.06-3.91l17.91-5.56a3.12,3.12,0,0,1,3.91,2.06l1.85,6a12.5,12.5,0,1,1-23.88,7.42Z"/><path class="cls-27" d="M172.63,154.87a1.56,1.56,0,0,0,1.38-.82l.72-1.37,3.4-6.46a1.55,1.55,0,1,0-2.74-1.44l-3.4,6.46-6.31-3.44a1.6,1.6,0,1,0-1.59,2.78l6.46,3.4,1.37.72A1.56,1.56,0,0,0,172.63,154.87Z"/><path class="cls-27" d="M329.18,210.26c-.43,0-.85-.07-1.29-.07a18.31,18.31,0,0,0-6.09,1.07h0a17.48,17.48,0,0,0-6.18,3.67l0,0a18.28,18.28,0,0,0-4,5.19,5,5,0,0,0,.38,5.14,5,5,0,0,0-3.16,3.42l-2.31,8.79a4.9,4.9,0,0,0,.43,3.56c0,.06.05.13.09.19a5.15,5.15,0,0,0,3,2.29h0a4.93,4.93,0,0,0,4.7-1.26,19.69,19.69,0,0,0,4.09,3.17c.46.26.94.5,1.42.73a18.32,18.32,0,0,0,24-8.27,4.91,4.91,0,0,0,.31-3.77c0-.13-.1-.24-.15-.36a4.94,4.94,0,0,0-.54-1,5.25,5.25,0,0,0,3.16-3.41l2.31-8.79a4.92,4.92,0,0,0-3.37-6l-.15-.06a4.94,4.94,0,0,0-4.72,1.25A18.26,18.26,0,0,0,339,214c-.36-.28-.73-.55-1.12-.8a18.15,18.15,0,0,0-8.75-2.93Zm12.7,26.44a15.67,15.67,0,0,1-27.77.22l-.63,2.42a2.27,2.27,0,0,1-4.39-1.15l2.31-8.79a2.27,2.27,0,0,1,2.77-1.62l8.79,2.31a2.27,2.27,0,1,1-1.15,4.39l-4.39-1.15A11.13,11.13,0,0,0,325,240a11.35,11.35,0,0,0,12.74-5.58,2.27,2.27,0,0,1,3-.85l.08,0A2.27,2.27,0,0,1,341.88,236.7Zm-12.68-8.4a4.91,4.91,0,0,0,3,2.29l.36.09,2.91.77,1.16.3a4.92,4.92,0,0,0-1.17,1.35l0,.08a8.68,8.68,0,0,1-9.74,4.27c-.14,0-.26-.1-.4-.14a8.45,8.45,0,0,1-1.13-.4,5,5,0,0,0-.53-9.39l-1.12-.29-1.49-.39-1.89-.5a5,5,0,0,0,1.35-1.63,8.7,8.7,0,0,1,9.67-4,8.46,8.46,0,0,1,1.48.53l.05,0-.06,0a4.92,4.92,0,0,0-2.74,2.85v0a4.81,4.81,0,0,0-.18.45A4.91,4.91,0,0,0,329.2,228.3Zm12.53-7.13.63-2.42a2.27,2.27,0,1,1,4.39,1.15l-2.31,8.79a2.27,2.27,0,0,1-2.77,1.62L332.9,228a2.27,2.27,0,1,1,1.15-4.39l4.39,1.15a11.13,11.13,0,0,0-7.63-6.7,11.35,11.35,0,0,0-12.68,5.36,2.27,2.27,0,0,1-2.66,1.18l-.44-.12-.08,0a2.27,2.27,0,0,1-1-3.06,15.67,15.67,0,0,1,27.77-.22Z"/><path class="cls-27" d="M191.53,206.09a15.31,15.31,0,0,0-.19-2.26,15,15,0,0,0-9.49-11.63,15.21,15.21,0,0,0-2.72-.73,15,15,0,0,0-2.53-.22c-.16,0-.32,0-.48,0a15.06,15.06,0,0,0-3.6.53,3.49,3.49,0,0,0-.17-.46,3.45,3.45,0,0,0-3.14-2h0a3.46,3.46,0,0,0-3.23,2.23l-2.72,7.24a3.45,3.45,0,0,0,.81,3.67,4.24,4.24,0,0,0-2.65,3.9,15.12,15.12,0,0,0,15.05,14.93h.18a15,15,0,0,0,10.59-4.53,15.21,15.21,0,0,0,1.86-2.32,15.06,15.06,0,0,0,2.42-8.37Zm-14.91,12.56h-.15a12.38,12.38,0,0,1-12.38-12.24,1.57,1.57,0,0,1,1.57-1.56h0a1.57,1.57,0,0,1,1.56,1.58,9.29,9.29,0,1,0,2.29-6.09L174,202a.77.77,0,1,1-.54,1.45l-7.24-2.72a.77.77,0,0,1-.45-1l2.72-7.24a.77.77,0,0,1,1.45.54L168.46,197a12.34,12.34,0,1,1,8.15,21.67Zm-7-13.76,2.24.84-.25.11-.09,0a3.42,3.42,0,0,0-1.55,1.46,6.61,6.61,0,0,1-.06-.9A4.2,4.2,0,0,0,169.62,204.89Zm6.76,1.83,2.07-5.51a.77.77,0,1,1,1.45.54l-2.18,5.8a.77.77,0,0,1-.36.53l-4,1.81-.09-.2-1-.38a.77.77,0,0,1,.38-1Zm-.73-6.84.5,0a3.41,3.41,0,0,0-.15.31A3.41,3.41,0,0,0,175.65,199.89Zm4.62,8.47,2-5.23a6.62,6.62,0,0,1-8.36,9.39,2.67,2.67,0,0,0,.59-.19l4-1.81.27-.14A3.45,3.45,0,0,0,180.27,208.35Z"/><path class="cls-27" d="M222.15,252.91a2.67,2.67,0,0,0-.11-1l-.7-2.3-.42-1.37a2.68,2.68,0,0,1-.56-1.84l-1.11-3.67a2.68,2.68,0,0,1-.56-1.84,6.51,6.51,0,0,0-8.12-4.34,2.67,2.67,0,0,0-.87.45h-.2a2.67,2.67,0,0,0-.77.12l-.18.05-2.72.82-.77.23a2.67,2.67,0,0,0-.87.45H204a2.67,2.67,0,0,0-.77.11l-3.67,1.11a2.67,2.67,0,0,0-.87.45h-.19a2.67,2.67,0,0,0-.77.11l-3.67,1.11a2.67,2.67,0,0,0-.87.45H193a2.67,2.67,0,0,0-.77.11,6.52,6.52,0,0,0-4.34,8.12,2.68,2.68,0,0,1,.56,1.84l.06.21a7.48,7.48,0,0,0,2.4,12.24,7.47,7.47,0,1,0,13.55,2.17l.72-.94a2.67,2.67,0,0,0,.39.18l6.79,2.56.1,0a6.51,6.51,0,0,0,8.23-4.13l0-.07a2.67,2.67,0,0,0-1.08-3,6.52,6.52,0,0,0,3-7.43s0-.07,0-.1A2.67,2.67,0,0,0,222.15,252.91Zm-2.67-.2-3.67,1.11-1.11-3.67,3.67-1.11Zm-4.74,6.8L211,258.19l2.44-3.19a1.74,1.74,0,0,1,.4,1.44Zm3.08-12.31-3.67,1.11L213,244.65l3.67-1.11ZM212.48,239a3.84,3.84,0,0,1,3.67,2.73l-3.67,1.11-1.11-3.67A3.84,3.84,0,0,1,212.48,239Zm-2.95.72,1.11,3.67L207,244.48l-1.11-3.67Zm-3.62,7.9a2.67,2.67,0,0,0,.87-.45h.2a2.67,2.67,0,0,0,.77-.12l3-.89.12.39a6.47,6.47,0,0,0-4.44,2.42l0,.06-4.41,6-1.18-.42a7.53,7.53,0,0,0-3-3.47l-.28-.93,3-.89a2.67,2.67,0,0,0,.87-.45h.2a2.67,2.67,0,0,0,.77-.12ZM204,241.36l1.11,3.67-3.67,1.11-1.11-3.67ZM198.52,243l1.11,3.67L196,247.81l-1.11-3.67ZM193,244.7l1.11,3.67-3.67,1.11A3.84,3.84,0,0,1,193,244.7Zm8.51,21.48a5.09,5.09,0,1,1-3.09-2.27l2-2.61-2.7-1a4.8,4.8,0,1,1-6.12-7l-.61-2,3.67-1.11.83,2.75a4.8,4.8,0,0,1,2.95,3.12l.17.55,4.27,1.52,5.55-7.49,0,0a3.84,3.84,0,0,1,5.39-.6Zm16.63-2.59a3.84,3.84,0,0,1-3.63,2.63.67.67,0,0,1-.81.92l-4.56-1.52a.67.67,0,0,1-.42-.84.66.66,0,0,1,.29-.36l-2.51-.95,2.45-3.15,9.2,3.23Zm-.66-4.25-1.11-3.67,3.67-1.11A3.84,3.84,0,0,1,217.48,259.34Z"/><path class="cls-27" d="M199.6,267.77a2.5,2.5,0,1,0-1.67,3.1l.19-.05a2.3,2.3,0,0,0,1.53-2.88Z"/><path class="cls-27" d="M196,256.62a2.5,2.5,0,1,0-1.42,3.23l.19-.07a2.3,2.3,0,0,0,1.29-3Z"/><path class="cls-27" d="M149.39,123.73l.29-.18,6.78-4.28a7.28,7.28,0,0,0,1.51.57l.07,0a7.33,7.33,0,0,0,8.71-8.82,2.67,2.67,0,0,0-1.56-1.85l0,0a2.67,2.67,0,0,0-1-2.11,7.33,7.33,0,0,0-2.86-1.39l-.07,0a7.28,7.28,0,0,0-8.77,7.15l-.27.17-1.09.69-4,2.55-1.71,1.08a3.79,3.79,0,0,0-.56.37,3.82,3.82,0,0,0,2.34,6.84h.13a3.73,3.73,0,0,0,2.16-.75Zm-1.82-2a1.15,1.15,0,0,1-.94-2.1l8.68-5.48a4.55,4.55,0,0,1,7.15-5l-3.31,2.09a1.47,1.47,0,1,0,1.57,2.48l3.42-2.06a4.56,4.56,0,0,1-7.61,4.42l-8.68,5.48A1.15,1.15,0,0,1,147.58,121.72Z"/><path class="cls-2" d="M185,181.43l-2.67-5.68a.67.67,0,0,0-1.21.57l2.67,5.68a.67.67,0,0,0,1.21-.57Z"/><path class="cls-2" d="M193.11,230.81a.67.67,0,0,0,.54-1.06l-3-4.2a.67.67,0,1,0-1.09.77l3,4.2A.67.67,0,0,0,193.11,230.81Z"/><path class="cls-28" d="M214.13,265.86l-4.56-1.52a.68.68,0,0,0-.84.42.67.67,0,0,0,.42.84l4.56,1.52a.67.67,0,0,0,.42-1.27Z"/><path class="cls-28" d="M215,225.6a.67.67,0,0,0,.51-1.1l-3.19-3.83-1.88-2.25a.67.67,0,0,0-1,.86l1.06,1.27,4,4.81A.67.67,0,0,0,215,225.6Z"/><path class="cls-2" d="M321,199.57l-7.14,6.62a.67.67,0,1,0,.91,1l7.14-6.62a.67.67,0,1,0-.91-1Z"/><path class="cls-2" d="M149.65,136.74a.67.67,0,1,0-1.26.44l2,5.68a.67.67,0,0,0,.63.45.68.68,0,0,0,.22,0,.67.67,0,0,0,.41-.85Z"/><path class="cls-4" d="M118,234.42a5.39,5.39,0,0,1,3.05-2.06,5.13,5.13,0,0,0-3.93,3.1l.27.06A5.45,5.45,0,0,1,118,234.42Z"/><path class="cls-4" d="M134.92,233.14a6.7,6.7,0,0,0-7.61,2.16c0,.1.1.2.14.3A6.78,6.78,0,0,1,134.92,233.14Z"/><path class="cls-4" d="M113.94,264.54a4.47,4.47,0,0,0,1.55,1.91,4.41,4.41,0,0,0,2,.76l-.1-.16a4.42,4.42,0,0,1-3.45-2.52Z"/><path class="cls-4" d="M107.94,261a7.38,7.38,0,0,1-2.9-7.55,7.35,7.35,0,0,0,8.48,9c0-.07,0-.15,0-.22A7.36,7.36,0,0,1,107.94,261Z"/><path class="cls-4" d="M109.24,238.27a7.37,7.37,0,0,1,1.62-1.63,7.36,7.36,0,0,0-1,11.43l.32-.12A7.38,7.38,0,0,1,109.24,238.27Z"/><path class="cls-4" d="M139,245c.19.14.37.29.55.44a7.85,7.85,0,0,0-.78-.63,7.66,7.66,0,0,0-.9-.52l0,0A7.86,7.86,0,0,1,139,245Z"/><path class="cls-4" d="M130.66,270.37l-.71-4-.11,0,.65,4Z"/><path class="cls-4" d="M129.61,265.08l.09,0v0l-.09,0Z"/><path class="cls-4" d="M122.18,264.35a4.53,4.53,0,0,1-.5.89,4.44,4.44,0,0,1-.33.37l.09.1a4.3,4.3,0,0,0,.34-.39,4.53,4.53,0,0,0,.48-.89l.09.07a6.34,6.34,0,0,0,1,.57,7.23,7.23,0,0,1-1.11-.64Z"/><path class="cls-4" d="M133.64,264.72c0,.08.1.26.18.45a16.53,16.53,0,0,1,.65,1.73l.09-.2a17.31,17.31,0,0,0-.65-1.64c-.08-.18-.16-.36-.19-.44a.69.69,0,0,0-.89-.42.67.67,0,0,0-.3.22.68.68,0,0,1,1.1.31Z"/><path class="cls-4" d="M131.76,278.28c.13.83-1.42,1.47-2.92,1.64,1.59-.14,3.38-.84,3.22-1.72l-1.16-6.46.08,0-.28.09Z"/><path class="cls-4" d="M123.87,265.27l.09,0h0Z"/><path class="cls-4" d="M119,267l.1.12h.09l-.11-.13Z"/><path class="cls-4" d="M124.55,268.89a13.59,13.59,0,0,1-2.31-1.06h0a14.25,14.25,0,0,0,2.35,1.08Z"/><path class="cls-4" d="M136.71,261.86a.69.69,0,0,1,.54.82,15.07,15.07,0,0,1-3,6.95l-.07.07a6.92,6.92,0,0,1-2.39,1.72,6.89,6.89,0,0,0,2.56-1.84l.06-.07a15.08,15.08,0,0,0,2.84-7,.69.69,0,0,0-.55-.81h-.14a.69.69,0,0,0-.67.57v.07A.69.69,0,0,1,136.71,261.86Z"/><path class="cls-4" d="M148,249a13.51,13.51,0,0,0-2.77-6.25,12.47,12.47,0,0,0-16.8-14.84,11,11,0,0,0-5.76-1.61,11.17,11.17,0,0,0-7.65,3.05,13,13,0,0,0-12.07,16.6,13.22,13.22,0,0,0-1,1.26,13.06,13.06,0,0,0,7.55,20.32,10.18,10.18,0,0,0,7.67,5,17.1,17.1,0,0,0,2.84,1.78l.91,5.6c.42,2.56,2.61,5.55,7.43,5.55.87,0,5.32-.15,7.83-3.1a6.39,6.39,0,0,0,1.47-5.17l-.4-2.47a13,13,0,0,0,1.45-1.36l.19-.21c2.65-3,3.67-6.87,4.21-9.52a6.35,6.35,0,0,0,.09-2A13.46,13.46,0,0,0,148,249Zm-5.06,8.27a10.48,10.48,0,0,1-3.55,3.19,3.36,3.36,0,0,1,.57,2.57c-.44,2.33-1.27,5.71-3.4,8.2l-.14.17a9.68,9.68,0,0,1-2.47,2l.78,4.34a3.36,3.36,0,0,1-.75,2.76c-1.26,1.53-3.75,2.11-5.51,2.14-2.93,0-4.26-1.5-4.52-3l-1.28-7.16a14.72,14.72,0,0,1-4.42-2.59h-.06a7.09,7.09,0,0,1-4.19-1.27,7.16,7.16,0,0,1-2.62-3.36,10.06,10.06,0,0,1-5.33-18,10.05,10.05,0,0,1,8.8-14.61q.4,0,.8,0a8.13,8.13,0,0,1,6.31-3.18,8.11,8.11,0,0,1,5.51,2,9.5,9.5,0,0,1,5-1.56,9.48,9.48,0,0,1,8.79,13.35,10.49,10.49,0,0,1,1.64,13.83Z"/><path class="cls-29" d="M129.25,265.23l.36-.15v0Z"/><path class="cls-30" d="M124,265.31l.09,0,.65,3.61-.16-.06v0a14.25,14.25,0,0,1-2.35-1.08.64.64,0,0,1-.31-.07,5.84,5.84,0,0,1-2.68-3.23l-.05-.14c0-.07,0-.13-.06-.2a5.13,5.13,0,0,1-.16-.74c0-.06,0-.1,0-.16a.66.66,0,0,0-.27-.48.75.75,0,0,0-.65,0c-.38.14-.41,1-.1,2.15a6.8,6.8,0,0,0,1.16,2l.11.13h0a8.24,8.24,0,0,0,1.23,1.16l0,0A14.66,14.66,0,0,0,125,270.5l1.56,8.69c.1.55.89.78,1.85.76l.45,0c1.5-.17,3.05-.81,2.92-1.64l-1.06-6.48.28-.09a7,7,0,0,0,.85-.29,6.92,6.92,0,0,0,2.39-1.72l.07-.07a15.07,15.07,0,0,0,3-6.95.69.69,0,0,0-.54-.82.69.69,0,0,0-.79.47,18.22,18.22,0,0,1-1.33,4.44l0-.08-.09.2a16.53,16.53,0,0,0-.65-1.73c-.08-.19-.15-.36-.18-.45a.68.68,0,0,0-1.1-.31.68.68,0,0,0-.13.66c0,.13.13.31.23.54a12.78,12.78,0,0,1,.71,1.92c.18.73.1,1,0,1.12l-.1.12a5.69,5.69,0,0,1-2.58,1.6h0l-.18.06-.65-4a7.79,7.79,0,0,1-2.69.49l-.42,0a.67.67,0,0,1-.6-.72.66.66,0,0,1,.2-.4,7.21,7.21,0,0,1-2.35-.49Z"/><path class="cls-3" d="M128.25,251.5c-.85.35-1.79.67-2.71,1C126.47,252.17,127.4,251.85,128.25,251.5Z"/><path class="cls-3" d="M122.78,253.31c-.88.24-1.74.39-2.46.56C121,253.7,121.89,253.55,122.78,253.31Z"/><path class="cls-3" d="M117.89,265l0,.08a5.81,5.81,0,0,0,1.07,2l.07,0A6.8,6.8,0,0,1,117.89,265Z"/><path class="cls-3" d="M130.56,250.48c-.68.29-1.45.68-2.31,1C129.11,251.17,129.88,250.77,130.56,250.48Z"/><path class="cls-3" d="M118.94,263.38s0-.06,0-.09,0,.11,0,.16Z"/><path class="cls-3" d="M139,245a7.86,7.86,0,0,0-1.16-.69l0,0-.26-.15a6.87,6.87,0,0,0,.61-.75,6.64,6.64,0,1,0-10.75-7.8c0-.1-.1-.2-.14-.3-.08.1-.16.19-.24.3a5.22,5.22,0,0,0-9.69-.08l-.27-.06c0,.07-.09.14-.12.22A7.21,7.21,0,0,0,110.17,248l-.32.12.14.15a7.38,7.38,0,0,0-4.59,4.13l0,.1a7.29,7.29,0,0,0-.33,1,7.38,7.38,0,0,0,8.47,8.83c0,.07,0,.15,0,.22h0a4.55,4.55,0,0,0,.08,1.11c0,.05,0,.1,0,.15a4.16,4.16,0,0,0,1.69,2.48,4.47,4.47,0,0,0,2,.79,6.58,6.58,0,0,1-.76-1.66c-.83-2.87.35-3.65.9-3.86a2.07,2.07,0,0,1,1.82.14,2,2,0,0,1,.92,1.56,4.73,4.73,0,0,0,1.09,2.37,4.44,4.44,0,0,0,.33-.37,4.53,4.53,0,0,0,.5-.89l.09.07a7.23,7.23,0,0,0,1.11.64l.49.2.09,0a7.21,7.21,0,0,0,2.35.49.65.65,0,0,1,.52-.2,6.54,6.54,0,0,0,2.41-.35l.36-.17.09,0h0a7.63,7.63,0,0,0,1.42-.91l.09-.07c.15-.13.3-.28.44-.42a7.27,7.27,0,0,0,.54-.61c.08-.11.18-.2.25-.32a7.21,7.21,0,0,0,1.28-3.65q.35,0,.69,0a7.81,7.81,0,0,0,5.12-13.6C139.37,245.31,139.19,245.16,139,245Zm-10.17-2.92a1.41,1.41,0,0,1,1.78.89l1,2.89a3.36,3.36,0,0,0-2.66.92l-1-2.92A1.41,1.41,0,0,1,128.83,242.1Zm-13,5.8a1.41,1.41,0,0,1,2.67-.89l1,2.89a3.36,3.36,0,0,0-2.66.92Zm18,1.76a11.58,11.58,0,0,1-.59,1.69,13.69,13.69,0,0,1-.69,1.38,11.89,11.89,0,0,1-1.59,2.12c-.15.15-.31.28-.47.42h0a9.13,9.13,0,0,1-3.25,1.94l-.05,0h-.07a9.13,9.13,0,0,1-3.77.39h0a2.71,2.71,0,0,1,.23-.26,1.51,1.51,0,0,0-.26.26c-.22,0-.43,0-.65-.07a11.46,11.46,0,0,1-2.54-.75,12.71,12.71,0,0,1-1.37-.69,11,11,0,0,1-1.48-1L117,255a.24.24,0,0,1-.05-.32.2.2,0,0,1,.09-.07l.84-.34h0l1.17-.47,2-.76c1.36-.5,2.74-1,4.11-1.43s2.76-.89,4.15-1.3l2.09-.61,1.25-.33.86-.22a.22.22,0,0,1,.26.16.25.25,0,0,1,0,.12Z"/><path class="cls-31" d="M335.42,231.56a1.24,1.24,0,0,0,.07-.12l1.16.3a4.92,4.92,0,0,0-1.17,1.35l0,.08a8.68,8.68,0,0,1-6.39,4.44A79.54,79.54,0,0,0,335.42,231.56Zm-6.55-7.46-.75-.11a33.25,33.25,0,0,1-2.11,5,4.93,4.93,0,0,1-1.84,8,8.45,8.45,0,0,0,1.13.4,93.58,93.58,0,0,0,7.28-6.62l-.36-.09a4.94,4.94,0,0,1-3.53-6A4.81,4.81,0,0,1,328.87,224.1Zm-44.63,23.13c.7-8.64,1.49-19.91,1.5-20.08a.67.67,0,0,0-.62-.71.66.66,0,0,0-.71.62c0,.23-1.64,23.31-2.28,28.67a.65.65,0,0,0,.06.34c0,.29-.07.57-.12.87v.1c-.09.68-.19,1.36-.3,2l0,.13v.09q1.42-.32,2.81-.69c.16-1.08.32-2.19.46-3.37a78.28,78.28,0,0,0,24-6.71c2.7-1.53,5.2-3.1,7.49-4.65a18.26,18.26,0,0,1-1.75-1.57,4.93,4.93,0,0,1-4.7,1.26,45.36,45.36,0,0,1-5.69,3.07A68.69,68.69,0,0,1,283.83,252c.09-1,.19-2.21.29-3.45a63.61,63.61,0,0,0,6.61-.6,49.62,49.62,0,0,0,17-5.79,5,5,0,0,1-.72-.93c0-.06-.05-.13-.09-.19a48.33,48.33,0,0,1-16.38,5.59A62.2,62.2,0,0,1,284.24,247.23Zm-59.82-48.92a3.24,3.24,0,1,0,1.3,4.65A3.42,3.42,0,0,0,224.42,198.31Zm-14.13,6.87a3.47,3.47,0,1,0-3.76-3.43A3.6,3.6,0,0,0,210.29,205.18Zm-3.9,9.53a3.74,3.74,0,1,0-4.93,1.26A3.6,3.6,0,0,0,206.39,214.71Zm7.24,6.48a5.68,5.68,0,0,0-1.36-.52l3.19,3.83a.67.67,0,0,1-1,.86l-4-4.81a3.13,3.13,0,0,0-2.41,1.53,2.77,2.77,0,0,0-.33,1.31q2.14,2.35,4.31,4.49a3.58,3.58,0,0,0,3.94-1.49C216.85,224.7,215.82,222.38,213.63,221.19Zm8-.28a3.6,3.6,0,0,0,1.62,4.82,3.9,3.9,0,0,0,1.85.47,55.61,55.61,0,0,1,2.33-5.9,3.94,3.94,0,0,0-.87-.66A3.6,3.6,0,0,0,221.62,220.9Zm18.8-72.2a7,7,0,0,1,1.51.18,1.51,1.51,0,0,0,.07-.37V145a1.58,1.58,0,1,0-3.16,0v3.55a1.52,1.52,0,0,0,.07.37,7,7,0,0,1,1.51-.18Zm-5,5.32a1.34,1.34,0,0,0,1.85-.39,4,4,0,0,1,3.14-1.58h0a4,4,0,0,1,3.15,1.59,1.34,1.34,0,0,0,2.24-1.46,6.66,6.66,0,0,0-5.39-2.8h0a6.66,6.66,0,0,0-5.39,2.8A1.34,1.34,0,0,0,235.42,154Zm32.77-5.31a7,7,0,0,1,1.51.18,1.51,1.51,0,0,0,.07-.37V145a1.58,1.58,0,0,0-3.16,0v3.55a1.52,1.52,0,0,0,.07.37,7,7,0,0,1,1.51-.18Zm0,.67h0a6.65,6.65,0,0,0-5.38,2.8,1.34,1.34,0,0,0,2.24,1.45,4,4,0,0,1,3.14-1.58h0a4,4,0,0,1,3.15,1.59,1.34,1.34,0,0,0,2.24-1.46A6.65,6.65,0,0,0,268.19,149.38ZM248.57,173c-.6-.25-1.21-.47-1.81-.69l-2.64-1-4.5-1.53c-3-1-6-1.91-9.05-2.86l-.72-.21a18.12,18.12,0,0,1-3.42,3.19c-.5.21-4-.57-4.21-.94a21.44,21.44,0,0,1,.88-4.15l-1.67-.46-.67-.17a16.42,16.42,0,0,1-1.09,3.85c-.43.34-3.5-1.45-3.68-1.81a33.3,33.3,0,0,1-.87-3.45l-1-.22,0,0-1.93-.43a.43.43,0,0,0-.24,0,.52.52,0,0,0-.31.64l.18.6A23.9,23.9,0,0,0,213.2,167a27.72,27.72,0,0,0,1.6,2.95,25,25,0,0,0,3.61,4.51c.35.34.72.63,1.07.93a3.42,3.42,0,0,1,.67-.14,5.89,5.89,0,0,0-.68.16l0,0h0a19.93,19.93,0,0,0,7.22,4l.12,0h0l.13,0a19.93,19.93,0,0,0,8.24.61l0,0h0c.47-.06.92-.1,1.39-.18a26,26,0,0,0,5.5-1.8,29.91,29.91,0,0,0,3-1.6,25.29,25.29,0,0,0,3.17-2.29l.48-.41a.54.54,0,0,0,.14-.21A.49.49,0,0,0,248.57,173Zm28.07-68.49h.11a.67.67,0,0,0,.66-.56c0-.14.65-3.55,5.05-4.18a4.48,4.48,0,0,1,4.23,1.39A9.57,9.57,0,0,0,282,110a1.34,1.34,0,0,0,1.32,1.17h.17a1.34,1.34,0,0,0,1.16-1.49s-.52-4.54,4.75-6.94a5.62,5.62,0,0,1,7.26,1.63,1.34,1.34,0,0,0,2.21-1.5,8.26,8.26,0,0,0-3-2.56,5.81,5.81,0,0,1,4.58-2.92,4.49,4.49,0,0,1,5.13,2.87.67.67,0,1,0,1.27-.41A5.88,5.88,0,0,0,300.3,96a7.09,7.09,0,0,0-5.61,3.74,8.58,8.58,0,0,0-6.37.51l-.47.24a5.72,5.72,0,0,0-5.59-2.05,6.92,6.92,0,0,0-6.18,5.29A.67.67,0,0,0,276.64,104.48Zm22.1,55.6a9.06,9.06,0,0,0,6.91,2.69,17.6,17.6,0,0,0,3.18-.31.67.67,0,0,0-.24-1.31c-5.82,1.07-8.07-1.17-8.91-2-1.53-1.54-2.24-5.45-2.25-5.49a.67.67,0,0,0-.47-.53,22.49,22.49,0,0,1-10.14-6.84,21.1,21.1,0,0,1-4.24-10.12.67.67,0,0,0-.4-.55c-1-.44-3.79-2-4.52-3.79-1.52-3.69.08-5.82.15-5.91a.67.67,0,0,0-1-.83,5.49,5.49,0,0,0-.9,2l-4-.15a.68.68,0,0,0-.69.64.67.67,0,0,0,.64.69l3.85.15a9.05,9.05,0,0,0,.74,3.88,7.3,7.3,0,0,0,2.4,2.82,15.7,15.7,0,0,0,2.47,1.52c0,.35.14.93.31,1.65a22.2,22.2,0,0,0,4.18,8.8,19.82,19.82,0,0,0,1.51,1.68,24.06,24.06,0,0,0,8.91,5.49C296.43,155.39,297.21,158.55,298.74,160.08Zm18.39,1a6,6,0,0,0,3.9-1.53,7,7,0,0,0,2.75-6.67,8.74,8.74,0,0,0,5.08-2.65c4.37-4.38,3.53-9.31,2.47-11.3a1.34,1.34,0,0,0-2.36,1.25s2.08,4.07-2,8.17a5.62,5.62,0,0,1-7.37,1,1.34,1.34,0,0,0-1.54,2.18,8.37,8.37,0,0,0,4.39,1.38,5.68,5.68,0,0,1-2.28,5.58,4.49,4.49,0,0,1-5.87.25.67.67,0,0,0-.87,1A6.24,6.24,0,0,0,317.13,161Zm-87.57,92.42c-.12-.38-.23-.73-.34-1.1a16.71,16.71,0,0,0,7.24,3h.12a.67.67,0,0,0,.12-1.32c-6.27-1.17-8.81-4.56-9.78-6.53h0l0-.06c-.18-.47-.35-1-.49-1.46-.05-.18-.09-.36-.14-.54-.12-.48-.24-1-.33-1.47,0-.21-.07-.43-.1-.65-.08-.49-.14-1-.19-1.5,0-.24,0-.49-.05-.74s0-.76,0-1.15a.66.66,0,0,1-.4.16.67.67,0,0,1-.37-.11c-.65-.43-1.29-.89-1.94-1.34-.09,5.29,1.07,10,3.57,13.68.1.33.22.69.33,1,1.15.7,2.3,1.35,3.46,1.92-.22-.62-.44-1.24-.64-1.84ZM281,263.39q-.19,1-.4,1.87l0,.1c-.14.61-.29,1.2-.44,1.77v.05c-.16.58-.32,1.13-.49,1.64v0c-.16.47-.32.92-.48,1.37l-.17.45-.32.85-.2.5-.3.72-.21.48-.29.65-.21.45-.29.59-.21.41-.3.55-.19.35-.32.54L276,277c-.14.23-.29.45-.43.65l0,.07c-.16.22-.31.43-.46.62l-.15.17-.3.34-.17.17-.26.25-.17.14-.24.18-.16.1-.22.11-.15.06-.21.05-.13,0h0l-.16,0-.1,0a.84.84,0,0,1-.27-.14h0a.45.45,0,0,1-.11-.13,6.23,6.23,0,0,1-.39-1.95c0-.38-.07-.81-.1-1.28s-.07-1.29-.09-2v0c0-.48,0-1,0-1.51s0-1.08,0-1.64,0-1.13,0-1.71q0-.44,0-.88c0-.42,0-.83,0-1.25a6.63,6.63,0,0,1-2.69.6c-.1,12.42.75,13.1,1.77,13.91a3.49,3.49,0,0,0,2.19.76c4.34,0,7.71-8.13,9.33-13a58,58,0,0,0,1.92-8.23c-.94.23-1.88.47-2.84.67-.07.39-.14.78-.22,1.16Zm39.27-17.21c-.48-.22-1-.46-1.42-.73l-1.58,1.07Q318.8,246.41,320.26,246.19Zm8.62-22.11a4.92,4.92,0,0,1,2.74-2.85v-.05a8.46,8.46,0,0,0-1.48-.53,8.73,8.73,0,0,0-1.1-.21,29.5,29.5,0,0,1-.93,3.54C328.38,224,328.62,224,328.88,224.08ZM243.56,259v0l.17.54.35.07a6.76,6.76,0,0,1-.44-.64h-.09Zm1.31,4.26.07.24.45,1.49,0,.14.39,1.33.1.35.38,1.33,0,.16.4,1.42.11.38.3,1.09.09.35.35,1.31.06.24.25,1,.09.36c.09.36.17.7.24,1l0,.1c.08.35.15.68.21,1l0,.26q.07.36.12.67l0,.2c0,.25.06.48.08.68,0,0,0,.08,0,.12a3.48,3.48,0,0,1,0,.4s0,.08,0,.11a.67.67,0,0,1-.08.29h0a.78.78,0,0,1-.26.23l-.1,0a.77.77,0,0,1-.23.05h0l-.14,0-.12,0-.27-.08-.1,0a3.66,3.66,0,0,1-.41-.21l-.1-.07-.36-.24-.18-.13-.33-.26-.21-.18-.35-.31-.23-.2-.4-.38-.21-.2-.55-.55-.11-.11-.71-.74-.21-.22-.55-.6-.27-.3-.54-.59-.3-.34-.58-.65-.29-.33-.66-.76-.24-.28-.95-1.1h0c-.61-.71-1.19-1.46-1.75-2.23l-.12-.17q-.77-1.08-1.47-2.21l-.15-.24q-.68-1.11-1.29-2.24l-.14-.25q-.61-1.15-1.16-2.32l-.09-.18c-.32-.68-.61-1.36-.9-2-1.18-.48-2.36-1-3.54-1.66a51.49,51.49,0,0,0,8.57,15.28c6.33,7.38,8.86,9.84,11.41,9.84a3.42,3.42,0,0,0,2.79-1.42c.88-1.2,1.53-2.11-3.23-17.86-1-.16-2-.33-3-.53ZM328,184.76a11.08,11.08,0,0,0,1.19.81c.21.12.41.25.62.36.5-.42,1-.85,1.44-1.3s1.11-1.13,1.59-1.7a7.35,7.35,0,0,1-4.92-5.25c0-.14,0-.29-.05-.43a7,7,0,0,1-.09-.72c-.67.34-1.34.72-2,1.15s-1.08.72-1.62,1.11c.06.23.15.45.22.67A10.94,10.94,0,0,0,328,184.76ZM331.28,172a5.07,5.07,0,0,1,.78-1.14,6.23,6.23,0,0,1,5.12-1.93,10.32,10.32,0,0,0,5.33-1.08,1.68,1.68,0,0,1,2.37,2c-2.06,7.2-6,8.82-7.63,9.19a6.25,6.25,0,0,1-1.13.14,19.64,19.64,0,0,1-1.28,2.19,23.87,23.87,0,0,1-3.16,3.76c-.57.56-1.21,1.12-2,1.78l-.68.55-.38.3a11.85,11.85,0,0,0-1.38-.62l.19-.15.74-.58.66-.53.35-.29c.21.12.41.25.62.36.5-.42,1-.85,1.44-1.3s1.11-1.13,1.59-1.7a7,7,0,0,1-.68-.25,21.77,21.77,0,0,0,1.61-2.07c.38-.57.69-1.09.94-1.56a4.47,4.47,0,0,1-2.44-1.34,5.83,5.83,0,0,1-1.11-1.84c-.29.09-.58.19-.89.3a21.88,21.88,0,0,0-2.4,1.08,7,7,0,0,1-.09-.72c-.67.34-1.34.72-2,1.15s-1.08.72-1.62,1.11c.06.23.15.45.22.67l-.36.27-.68.52-.75.59-.68.56c-.71.58-1.39,1.17-2,1.76s-1.3,1.2-1.9,1.79c-1.11,1.09-2.2,2.28-3.16,3.44a33.37,33.37,0,0,0-2,2.68c-.22.34-.4.61-.51.8l-.16.28a1.66,1.66,0,0,0,1.89,2.4l.31-.09.9-.31a33,33,0,0,0,3.07-1.34l.07,0a10.24,10.24,0,0,1-.67-6.31,1.34,1.34,0,0,1,1.6-1,1.32,1.32,0,0,1,1,.91,1.3,1.3,0,0,1,0,.69c0,.06-.64,3,.66,4.86a4.09,4.09,0,0,0,2.93,1.67,4.65,4.65,0,0,0,3.66-.67,5.25,5.25,0,0,0,1.72-3.24,1.32,1.32,0,0,1,.72-1,1.29,1.29,0,0,1,.75-.17,1.33,1.33,0,0,1,1.2,1.45,7.93,7.93,0,0,1-2.73,5.08,6.61,6.61,0,0,1-4.16,1.33,10,10,0,0,1-1.57-.13,6.91,6.91,0,0,1-4.11-2.08l-.23-.28-.25.13a34.51,34.51,0,0,1-3.2,1.39l-1,.33-.37.11a3,3,0,0,1-2.82-.71c-7.64,4-16.45,8.11-19.32,9.45l-.29.71q1.52-.11,3-.11a29.86,29.86,0,0,1,20,7.25,15.39,15.39,0,0,0,9.5-9.59,2.67,2.67,0,0,1,4.87-.74,24.63,24.63,0,0,1,2.8,8.57,18.38,18.38,0,0,0-2.78-.4,23.82,23.82,0,0,0-1.84-5.91h0c-.18-.37-.31-.62-.39-.75v0l0-.08h0v0s0,.14-.1.34v0l-.15.41,0,0c-.06.17-.14.36-.23.57v0a18.15,18.15,0,0,1-4.59,6.36,17.48,17.48,0,0,0-6.18,3.67c-.47.18-1,.35-1.47.5h0a24.91,24.91,0,0,1-4.15.86,7.66,7.66,0,0,0-7.46-1,8.6,8.6,0,0,0-11.86.3,31.12,31.12,0,0,0-3.18.51c-.37,1.79-.64,3.2-.66,3.53a.67.67,0,0,1-1.3.29c-.06-.19-.14-.45,1.08-6.15a47.68,47.68,0,0,1,1.32-5.32h0c.17-.54.34-1.07.51-1.59v0q.26-.75.52-1.46l0-.11q.25-.68.51-1.31l.07-.17.29-.69.22-.52.61-.28c2.44-1.12,5.63-2.63,9.06-4.3s7.35-3.63,10.78-5.41a3,3,0,0,1,.34-1.07l.13-.22.06-.1c.12-.2.31-.49.55-.85a34.52,34.52,0,0,1,2.1-2.79c1-1.19,2.11-2.41,3.25-3.53l.72-.68c-4.68.95-14.38,3.1-23.24,5.25.44-1,.83-2.08,1.21-3.11l.26-.74c.61-1.73,1.12-3.43,1.57-5.1a30.23,30.23,0,0,0,.15-11.24.66.66,0,0,1,.39-.76l.1,0a.67.67,0,0,1,.81.49,26.62,26.62,0,0,1,.43,7.12l1.05,0h0l.59,0,1.16,0-1.16,0c.39-1.34.76-2.73,1.09-4.16a3.94,3.94,0,0,0,5.14-2.77l.18,0a10.3,10.3,0,0,0,13.83-6.18,7.24,7.24,0,0,0,6.64-6,40.08,40.08,0,0,0,3.17-4,8.13,8.13,0,0,0,6.48-10.41,8.14,8.14,0,0,0,.59-12.18,39.94,39.94,0,0,0-.34-5.3,8.67,8.67,0,0,0,3-5h0c.06-.28.1-.56.13-.85s0-.55,0-.83c0,0,0,0,0-.07a8.7,8.7,0,0,0-.08-1.11c0-.1,0-.19,0-.29a8.6,8.6,0,0,0-.19-.9l0-.17a8.58,8.58,0,0,0-.38-1l-.07-.16a8.62,8.62,0,0,0-.45-.85l-.08-.13a8.72,8.72,0,0,0-1.43-1.72l-.05,0a8.73,8.73,0,0,0-1.89-1.32h0a8.64,8.64,0,0,0-3.84-1A40.23,40.23,0,0,0,323.06,98a8.69,8.69,0,0,0-.21-1.55h0a8.64,8.64,0,0,0-.43-1.35l0-.09a8.66,8.66,0,0,0-.62-1.21l-.06-.09a8.71,8.71,0,0,0-.82-1.09l0,0a8.72,8.72,0,0,0-1-1h0a8.68,8.68,0,0,0-1.1-.75l-.15-.09a8.6,8.6,0,0,0-1.16-.53l-.21-.07a8.57,8.57,0,0,0-1.25-.33l-.18,0a8.69,8.69,0,0,0-1.39-.12h0c-.26,0-.5,0-.75.05s-.33,0-.48,0a8.52,8.52,0,0,0-.83.18l-.35.08a8.72,8.72,0,0,0-2.15,1,40.06,40.06,0,0,0-5.91-1.33,8.79,8.79,0,0,0-.68-.63l-.24-.19c-.16-.13-.33-.25-.5-.37l-.3-.19-.5-.29-.34-.17-.52-.23-.35-.13-.56-.17-.35-.09c-.21,0-.43-.08-.64-.11l-.3,0a8.59,8.59,0,0,0-1-.06h0a8.75,8.75,0,0,0-1.06.06,8.62,8.62,0,0,0-3,.93,8.71,8.71,0,0,0-2.38,1.84q-1.25.22-2.47.51A39.75,39.75,0,0,0,284,91.82q-1.16.44-2.29.94a10.85,10.85,0,0,0-2.59-.39h0a8.64,8.64,0,0,0-1.19.1l-.32,0a8.77,8.77,0,0,0-7.13,7.81q-.64.61-1.25,1.25a8.68,8.68,0,0,0-7,8.52h0s0,.06,0,.09a8.92,8.92,0,0,0,.1,1.18c-.19.38-.36.77-.54,1.16q-.38.82-.72,1.65c-.22.53-.44,1.07-.64,1.61a4.21,4.21,0,0,0-2.61,3.9,4.18,4.18,0,0,0,.9,2.57c-.09.52-.18,1-.25,1.58s-.14,1.06-.19,1.6h0c-.08.87-.13,1.74-.16,2.6.27.2.56.41.85.66l2.77-.87a.67.67,0,0,1,.67.16,4.86,4.86,0,0,0,3.68,1.28.66.66,0,0,1,.7.41.65.65,0,0,1,.06.16.67.67,0,0,1-.57.75,5.22,5.22,0,0,1-.69,0,6.21,6.21,0,0,1-3.8-1.43l-1.7.54a8.36,8.36,0,0,1,2.54,5.74c0,5.54-5.52,7.44-5.58,7.46a.68.68,0,0,1-.21,0,.65.65,0,0,1-.55-.34s-.07-.06-.08-.11a.67.67,0,0,1,.42-.85c.19-.06,4.66-1.63,4.66-6.19,0-3.09-2.52-5.36-4.22-6.55.22,4.13-4.37,7.27-8.42,7.21h0l0,.05a7.09,7.09,0,0,0,4.15,3.58,1.34,1.34,0,0,1-.27,2.64h0l-.24,0c-.21,0-5.11-1.07-7.28-7.94a1.31,1.31,0,0,1,0-.88l-.67.25-.56.21-.93.36-.64.25-.92.36-.66.26-.92.37-.7.28-.92.38-.7.29-.93.39-.72.31-.91.39-.73.32-.92.41-.69.31-1.63.74-.91.42-.79.37-.85.4-.81.39-.83.4-.79.39-.84.42-.78.39-.83.42-.76.4-.83.44-.73.39-.84.46-.69.38-.85.48-.65.37-.9.52-.56.33-1.22.74-.32.19-1.23.77-.45.29-.86.57-.51.35-.74.51-.51.37-.68.5-.49.37-.63.49-.47.37-.59.49-.43.37-.55.49-.39.36-.52.51-.34.33-.51.55-.26.28c-.24.27-.46.54-.67.81h0a4.23,4.23,0,0,0-.78,1.9s0,.1,0,.15c-.43,2.94,1.13,7.3,3.52,11.57.41.72.84,1.45,1.28,2.16.67,1.07,1.39,2.11,2.12,3.11.49.67,1,1.31,1.5,1.93s1,1.21,1.53,1.76l.76.8c.51.52,1,1,1.5,1.42l.73.61a10.39,10.39,0,0,0,2.7,1.63c8.13,3,19.7,5,31.53,5,2,0,4.06-.07,6.09-.19a.65.65,0,0,1,.19-.06c.14,0,14.55-1.54,21.34-4.3a.67.67,0,0,1,.5,1.24c-4.52,1.84-12.07,3.11-17,3.8l-1.15.63c-1,.53-1.91,1.07-2.83,1.63l-.5.3q-1,.61-2,1.24l-.75.5q-1.44,1-2.81,2l-1.22.91-1.3,1q-1,.77-1.89,1.55l-.2.17C241.65,201.08,235,203.76,230,206c-2.17,1-4,1.91-5.31,2.68l-.27.16-.18.12a5.08,5.08,0,0,0-1.49,1.22c-.1.16-.18.31-.25.46a3.7,3.7,0,0,0-.36,1,1.7,1.7,0,0,0,0,.69,1.25,1.25,0,0,0,.1.27,1.23,1.23,0,0,0,.15.23h0a2.23,2.23,0,0,0,1.44.63.59.59,0,0,0,.18,0h.26l.4,0h.19l.76-.07h0l1.07-.12.2,0,1.07-.14.25,0,1.33-.18h.09l3.69-.54a63.16,63.16,0,0,1,6.17-7.62.67.67,0,0,1,.94,0,.68.68,0,0,1,0,.94,65.48,65.48,0,0,0-6.52,8.16c-.22.34-.45.67-.66,1s-.26.44-.39.66c-.43.7-.85,1.41-1.24,2.11-.16.29-.3.58-.46.87-.34.63-.67,1.27-1,1.9-.16.32-.29.64-.44,1-.28.6-.55,1.2-.8,1.79-.14.34-.27.67-.4,1-.23.58-.45,1.15-.65,1.72-.12.34-.23.68-.34,1-.19.56-.37,1.12-.53,1.68-.1.34-.18.67-.27,1-.15.55-.28,1.1-.41,1.64-.06.25-.11.5-.16.76h0l0,.21c-.11.54-.21,1.08-.29,1.61,0,.31-.09.62-.13.93q-.11.8-.17,1.58c0,.3,0,.59-.07.88,0,.52-.05,1-.06,1.55,0,0,0,.09,0,.13l0,0c-.87-.57-1.74-1.18-2.6-1.8.08-1.25.21-2.51.42-3.8a21.56,21.56,0,0,1-2.88.78,21.88,21.88,0,0,1-4.19.41,21.16,21.16,0,0,1-14.07-5.26q-3.06-4.1-6-8.53A21.71,21.71,0,0,1,195,209.36a.67.67,0,0,0,1.1-.76l-.72-1a21.59,21.59,0,0,1,32.55-12.93,21.11,21.11,0,0,1,4.57,4,22.59,22.59,0,0,1,1.94,2.6c3.06-1.29,6.81-2.81,11.43-4.62a80.55,80.55,0,0,1,7.19-5.41l-2.35,0c-11.83,0-23.66-1.87-32.46-5.13C212,183.78,203.68,171.8,201.43,164c-1.13-3.93-.88-7,.73-9.1,6.76-8.78,27.32-18.25,40.52-23.29a23.45,23.45,0,0,1-1.33-5.48l-.13-.1c-1.73-1.33-2.31-4.21-1.74-8.56-1.3-2.72.41-7.19,1.28-9.13,1.41-3.14,2.86-4.55,4.68-4.55a3.18,3.18,0,0,1,2.87,1.87l.79,1.58c1.42,2.81,2.59,5.14,2.2,7.53a10.24,10.24,0,0,1,1.73,4.09,21.48,21.48,0,0,1,2.22,2.1,6.79,6.79,0,0,1-.12-1.27,6.87,6.87,0,0,1,3.13-5.77c.39-1,.83-2,1.31-3,0-.28,0-.54,0-.8a11.36,11.36,0,0,1,8.35-10.94L268,99a11.36,11.36,0,0,1,13.53-9.09A42.5,42.5,0,0,1,290,87.38a11.32,11.32,0,0,1,15.2-.2,42.92,42.92,0,0,1,4.36,1,11.32,11.32,0,0,1,15.62,6.6,45.75,45.75,0,0,1,13,12.93,11.3,11.3,0,0,1,5.51,9.72,10.85,10.85,0,0,1-.11,1.54,45.18,45.18,0,0,1,1.81,8.42,11.33,11.33,0,0,1,1.08,14.87,11,11,0,0,1,.24,1.31,11.4,11.4,0,0,1-7.23,12c-.68,1.15-1.4,2.27-2.17,3.35a10.35,10.35,0,0,1-6.85,8.26A13.63,13.63,0,0,1,315.79,176a6.87,6.87,0,0,1-10.26,1.63,45.61,45.61,0,0,1-4.84.29c-.54,2.32-1.2,4.63-2,6.91,9.76-2.3,20.23-4.57,21.56-4.65h.39c.19,0,.38,0,.56,0l.48-.39.76-.6.7-.54c.51-.39,1-.71,1.4-1,.27-.19.55-.37.81-.54a23.89,23.89,0,0,1,4.39-2.19c.37-.14.72-.26,1.06-.37a4.79,4.79,0,0,1,.45-2.47Zm14.44-38.92a8.76,8.76,0,0,1,.32,2.31,8.76,8.76,0,0,0-.32-2.31ZM233.15,201.73a20.24,20.24,0,1,0-16.9,31.4,20.39,20.39,0,0,0,7.36-1.38,47.91,47.91,0,0,1,1.46-5.56,55.61,55.61,0,0,1,2.33-5.9c.72-1.56,1.51-3.12,2.39-4.67a48.09,48.09,0,0,1-5.6.61,4.11,4.11,0,0,1-.74-.06,4.48,4.48,0,0,1-3.52-2.22c-.55-1-.89-2.72.55-5.11C221,207.94,221.86,206.57,233.15,201.73Zm8.66-85.64a1.2,1.2,0,0,0,.22.41,2.9,2.9,0,0,0,.26.21c1.6,1.44,4,.76,5.31-1.13a.91.91,0,0,1,0-.12c0-.07.3-6.52-2.59-8.84l-.11.09-.22.22-.16.19-.24.33-.16.24-.26.43-.15.26c-.1.19-.2.39-.3.6l-.09.18c-.13.28-.26.57-.38.87l-.08.21c-.09.23-.18.46-.27.7l-.11.34c-.07.2-.13.4-.19.59l-.1.37c-.05.19-.1.37-.15.56l-.09.37q-.06.27-.11.52t-.06.35c0,.17,0,.32-.06.48s0,.21,0,.32,0,.29,0,.43,0,.18,0,.26a2.64,2.64,0,0,0,.07.38C241.78,116,241.79,116,241.81,116.1Zm2.37,10.72c-.14-.78-.25-1.58-.33-2.39a5.19,5.19,0,0,0,6.33-3.19c0-.06,0-.12.05-.18a28.87,28.87,0,0,0-.87-3.17A5.49,5.49,0,0,0,249,117c-.7,2.47-4.49,3.92-7,1.82,0,.43-.07.87-.08,1.28a11.84,11.84,0,0,0,.11,1.95,3.73,3.73,0,0,0,.51,1.53,1.33,1.33,0,0,0,.28.3,3.62,3.62,0,0,0,.48.31,3.85,3.85,0,0,0,.51.23c0,.48.1,1,.17,1.42v0C244.07,126.2,244.13,126.51,244.18,126.82Zm10.83-.08a5.65,5.65,0,0,0-1.35-2.5,14.87,14.87,0,0,0-1.68-1.43,5.73,5.73,0,0,1-7.78,4.15c0,.1,0,.2,0,.29v0c.09.46.18.9.29,1.33h0a7.83,7.83,0,0,0,2,4.06c3.35.63,8.22-1.76,8.49-5.38C255,127.1,255,126.92,255,126.74Zm89.08,17.95q0-.4-.06-.81a8.67,8.67,0,0,0-.6-2.25,8.68,8.68,0,0,1,.6,2.25Q344.08,144.29,344.09,144.69Zm-1.29-16h0a8.74,8.74,0,0,1,1.68,1.79,8.74,8.74,0,0,0-1.68-1.79Zm-25.19,44.75h0l.66,0Zm-3.44-.48.11,0a11.11,11.11,0,0,0,1.24.29,11.08,11.08,0,0,1-1.24-.29Zm-3.46,3.53A4.14,4.14,0,0,0,312,176,4.15,4.15,0,0,1,310.71,176.47Zm-.77.07h0c.13,0,.25,0,.38,0C310.19,176.52,310.07,176.54,309.94,176.54Zm-15.46,31.3h0Zm38.74-31a3.87,3.87,0,0,0,3.73.9c1-.23,3.18-1.09,5-4.22a1.68,1.68,0,0,1,.43.6,18.35,18.35,0,0,0,1.86-4.42,1,1,0,0,0-1.44-1.2,11,11,0,0,1-5.64,1.14h-.36l.27.22a2.25,2.25,0,0,1,.46.46h-.8a4.51,4.51,0,0,0-4.22,2.33A3.75,3.75,0,0,0,333.22,176.81Zm4.75-4c.81,1.58,2.82-.31,4,.68a1.68,1.68,0,0,1,.43.6,18.35,18.35,0,0,0,1.86-4.42,1,1,0,0,0-1.44-1.2,11,11,0,0,1-5.64,1.14h-.36l.27.22a2.25,2.25,0,0,1,.46.46C338.05,171,337.3,171.51,338,172.82ZM136.18,79a.58.58,0,0,0,.58-.58V72.67a.58.58,0,0,0-1.15,0v5.77A.58.58,0,0,0,136.18,79Zm5.19-.35a.58.58,0,0,0,.52.4h.17a.58.58,0,0,0,.4-.81l-2.31-6.35a.58.58,0,1,0-1.1.4ZM135,78.44V71.51a.58.58,0,1,0-1.15,0v6.93a.58.58,0,1,0,1.15,0Zm2.89.58a.58.58,0,0,0,.58-.58V72.09a.58.58,0,0,0-1.15,0v6.35A.58.58,0,0,0,137.91,79ZM267.73,265.15l-19.4-5.61a4,4,0,0,1-2.76-5l6.73-23.28a4,4,0,0,1,5-2.76l19.4,5.61a4,4,0,0,1,2.76,5l-6.73,23.28a4,4,0,0,1-5,2.76Zm-.26-4.36a2,2,0,0,0,1.94-1.46l5.61-19.4a2,2,0,0,0-1.38-2.5l-15.52-4.49a2,2,0,0,0-2.5,1.38L250,253.72a2,2,0,0,0,1.38,2.5l15.52,4.49A2,2,0,0,0,267.47,260.79Zm-9.25-17.3,9.7,2.8a1,1,0,0,0,.56-1.94l-9.7-2.8a1,1,0,0,0-.56,1.94Zm-1.12,3.88,9.7,2.8a1,1,0,0,0,.56-1.94l-9.7-2.8a1,1,0,1,0-.56,1.94ZM256,251.24l3.88,1.12a1,1,0,0,0,.56-1.94l-3.88-1.12a1,1,0,0,0-.56,1.94Zm3.36-11.64,9.7,2.8a1,1,0,1,0,.56-1.94l-9.7-2.8a1,1,0,1,0-.56,1.94Zm-88.1-78.24a12.51,12.51,0,0,1-11.94-8.8l-1.85-6a3.13,3.13,0,0,1,2.06-3.91l17.91-5.56a3.12,3.12,0,0,1,3.91,2.06l1.85,6a12.51,12.51,0,0,1-11.94,16.22Zm-.69-7.38,1.37.72a1.56,1.56,0,0,0,2.09-.65l.72-1.37,3.4-6.46a1.55,1.55,0,1,0-2.74-1.44l-3.4,6.46-6.31-3.44a1.6,1.6,0,1,0-1.59,2.78ZM340.9,233.64l-.08,0a2.27,2.27,0,0,0-3,.85A11.35,11.35,0,0,1,325,240a11.13,11.13,0,0,1-7.63-6.7l4.39,1.15a2.27,2.27,0,0,0,1.15-4.39l-8.79-2.31a2.27,2.27,0,0,0-2.77,1.62l-2.31,8.79a2.27,2.27,0,1,0,4.39,1.15l.63-2.42a15.67,15.67,0,0,0,27.77-.22A2.27,2.27,0,0,0,340.9,233.64Zm-20.37-18.93a15.67,15.67,0,0,0-6.56,6.67,2.27,2.27,0,0,0,1,3.06l.08,0,.44.12a2.27,2.27,0,0,0,2.66-1.18,11.35,11.35,0,0,1,12.68-5.36,11.13,11.13,0,0,1,7.63,6.7L334,223.61A2.27,2.27,0,1,0,332.9,228l8.79,2.31a2.27,2.27,0,0,0,2.77-1.62l2.31-8.79a2.27,2.27,0,1,0-4.39-1.15l-.63,2.42a15.66,15.66,0,0,0-21.2-6.45Zm-148.27-5.4,1,.38.09.2,4-1.81a.77.77,0,0,0,.36-.53l2.18-5.8a.77.77,0,1,0-1.45-.54l-2.07,5.51-3.73,1.57A.77.77,0,0,0,172.26,209.31Zm8.63-14.61A12.38,12.38,0,0,0,168.46,197l1.47-3.91a.77.77,0,1,0-1.45-.54l-2.72,7.24a.77.77,0,0,0,.45,1l7.24,2.72A.77.77,0,0,0,174,202l-4.49-1.69a9.29,9.29,0,1,1-2.29,6.09,1.57,1.57,0,0,0-1.56-1.58h0a1.57,1.57,0,0,0-1.57,1.56,12.38,12.38,0,0,0,12.38,12.24h.15a12.38,12.38,0,0,0,4.28-23.95ZM205.14,245,204,241.36l-3.67,1.11,1.11,3.67Zm8.72,5-12.35,16.17a5.09,5.09,0,1,1-3.09-2.27l2-2.61-2.7-1a4.8,4.8,0,1,1-6.12-7l-.61-2,3.67-1.11.83,2.75a4.8,4.8,0,0,1,2.95,3.12l.17.55,4.27,1.52,5.55-7.49,0,0a3.84,3.84,0,0,1,5.39-.6Zm-17.79,6.79-.06-.17a2.5,2.5,0,1,0-1.42,3.23l.19-.07A2.3,2.3,0,0,0,196.07,256.8Zm3.57,11.15,0-.18a2.5,2.5,0,1,0-1.67,3.1l.19-.05A2.3,2.3,0,0,0,199.64,267.95Zm11-24.58-1.11-3.67-3.67,1.11,1.11,3.67Zm-4.14,20.1,2.51.95a.65.65,0,0,1,.55-.07l4.56,1.52a.66.66,0,0,1,.39.35,3.84,3.84,0,0,0,3.63-2.63v0l-9.2-3.23Zm-12.39-15.09L193,244.7a3.84,3.84,0,0,0-2.56,4.78Zm5.51-1.67L198.52,243l-3.67,1.11,1.11,3.67Zm16.75,9,1.11,3.67a3.84,3.84,0,0,0,2.56-4.78Zm-.56-1.84,3.67-1.11L218.38,249l-3.67,1.11Zm.34-12.13a3.83,3.83,0,0,0-4.78-2.56l1.11,3.67Zm-2,6.62,3.67-1.11-1.11-3.67L213,244.65ZM158.63,117.25a4.66,4.66,0,0,0,5.52-5.61l-3.42,2.06a1.47,1.47,0,0,1-1.57-2.48l3.31-2.09a4.58,4.58,0,0,0-7.15,5l-8.68,5.48a1.15,1.15,0,1,0,1.22,1.93l8.68-5.48A4.61,4.61,0,0,0,158.63,117.25Zm37.43-7.48a6.18,6.18,0,0,1,4.46,4.47.19.19,0,0,0,.38,0,6.18,6.18,0,0,1,4.47-4.46.19.19,0,0,0,0-.38,6.18,6.18,0,0,1-4.46-4.47.19.19,0,0,0-.38,0,6.18,6.18,0,0,1-4.47,4.46A.19.19,0,0,0,196.06,109.77Zm8.35,9.34A10.94,10.94,0,0,1,212.3,127a.34.34,0,0,0,.67,0,10.94,10.94,0,0,1,7.89-7.89.34.34,0,0,0,0-.66,10.94,10.94,0,0,1-7.89-7.89.34.34,0,0,0-.67,0,10.89,10.89,0,0,1-7.89,7.88A.34.34,0,0,0,204.41,119.11Zm-21.33,12.35a16.35,16.35,0,0,1,11.8,11.8.51.51,0,0,0,1,0,16.35,16.35,0,0,1,11.8-11.8.51.51,0,0,0,0-1,16.35,16.35,0,0,1-11.8-11.8.51.51,0,0,0-1,0,16.35,16.35,0,0,1-11.8,11.8A.51.51,0,0,0,183.08,131.46ZM128.9,246.8a3.36,3.36,0,0,1,2.66-.92l-1-2.89a1.41,1.41,0,0,0-2.67.89Zm-10.43.21a1.41,1.41,0,0,0-2.67.89l1,2.92a3.36,3.36,0,0,1,2.66-.92Zm15.37,2.25a.25.25,0,0,1,0,.12l-.07.28a11.58,11.58,0,0,1-.59,1.69,13.69,13.69,0,0,1-.69,1.38,11.89,11.89,0,0,1-1.59,2.12c-.15.15-.31.28-.47.42-1.29-.38-2.42.26-3.66.85h0a5.75,5.75,0,0,0-3.22,1.25,1.51,1.51,0,0,0-.26.26c-.22,0-.43,0-.65-.07a11.46,11.46,0,0,1-2.54-.75,12.71,12.71,0,0,1-1.37-.69,11,11,0,0,1-1.48-1L117,255a.24.24,0,0,1-.05-.32.2.2,0,0,1,.09-.07l.84-.34h0l1.17-.47,2-.76c1.36-.5,2.74-1,4.11-1.43s2.76-.89,4.15-1.3l2.09-.61,1.25-.33.86-.22A.22.22,0,0,1,133.84,249.27Zm-11.06,4c-.88.24-1.74.39-2.46.56C121,253.7,121.89,253.55,122.78,253.31Zm7.78-2.82c-.68.29-1.45.68-2.31,1s-1.79.67-2.71,1c.93-.32,1.85-.64,2.71-1S129.88,250.77,130.56,250.48Z"/><path class="cls-32" d="M126.78,256.13h0a5.75,5.75,0,0,0-3.22,1.25,2.71,2.71,0,0,0-.23.26h0a9.13,9.13,0,0,0,3.77-.39h.07l.05,0a9.13,9.13,0,0,0,3.25-1.94h0C129.15,254.91,128,255.54,126.78,256.13Z"/><path class="cls-33" d="M141.27,243.4a9.47,9.47,0,0,0-8.79-13.35,9.5,9.5,0,0,0-5,1.56,8.11,8.11,0,0,0-11.82,1.14q-.4,0-.8,0a10.05,10.05,0,0,0-8.8,14.61,10.06,10.06,0,0,0,5.33,18,7.16,7.16,0,0,0,2.62,3.36,7.09,7.09,0,0,0,4.19,1.27h.06a14.72,14.72,0,0,0,4.42,2.59l1.28,7.16c.26,1.46,1.59,3,4.52,3,1.75,0,4.25-.6,5.51-2.14a3.36,3.36,0,0,0,.75-2.76l-.78-4.34a9.68,9.68,0,0,0,2.47-2l.14-.17c2.14-2.49,3-5.87,3.4-8.2a3.36,3.36,0,0,0-.57-2.57,10.49,10.49,0,0,0,1.91-17Zm-.55,12.31a7.81,7.81,0,0,1-6.3,3.35q-.35,0-.69,0a7.21,7.21,0,0,1-1.28,3.65c-.08.11-.17.21-.25.32a7.27,7.27,0,0,1-.54.61c-.14.14-.29.29-.44.42l-.09.07a7.63,7.63,0,0,1-1.42.91h0v0l-.09,0-.36.15a6.54,6.54,0,0,1-2.41.35.65.65,0,0,0-.52.2.66.66,0,0,0-.2.4.67.67,0,0,0,.6.72l.42,0a7.79,7.79,0,0,0,2.69-.49l.11,0,.71,4h0a5.69,5.69,0,0,0,2.58-1.6l.1-.12c.08-.07.16-.39,0-1.12a12.78,12.78,0,0,0-.71-1.92c-.1-.23-.18-.41-.23-.54a.68.68,0,0,1,.13-.66.67.67,0,0,1,.3-.22.69.69,0,0,1,.89.42c0,.08.11.26.19.44a17.31,17.31,0,0,1,.65,1.64l0,.08a18.22,18.22,0,0,0,1.33-4.44v-.07a.69.69,0,0,1,.67-.57h.14a.69.69,0,0,1,.55.81,15.08,15.08,0,0,1-2.84,7l-.06.07a6.89,6.89,0,0,1-2.56,1.84,7,7,0,0,1-.85.29l-.08,0,1.16,6.46c.16.89-1.63,1.58-3.22,1.72l-.45,0c-1,0-1.75-.21-1.85-.76L125,270.5a14.66,14.66,0,0,1-4.55-2.22l0,0a8.24,8.24,0,0,1-1.23-1.16h-.09L119,267a5.81,5.81,0,0,1-1.07-2l0-.08c-.31-1.13-.28-2,.1-2.15a.75.75,0,0,1,.65,0,.66.66,0,0,1,.27.48s0,.06,0,.09v.07a5.13,5.13,0,0,0,.16.74c0,.07,0,.13.06.2l.05.14a5.84,5.84,0,0,0,2.68,3.23.64.64,0,0,0,.31.07h0a13.59,13.59,0,0,0,2.31,1.06l.16.06-.65-3.61-.09,0-.09,0-.49-.2a6.34,6.34,0,0,1-1-.57l-.09-.07a4.53,4.53,0,0,1-.48.89,4.3,4.3,0,0,1-.34.39l-.09-.1a4.73,4.73,0,0,1-1.09-2.37,2,2,0,0,0-.92-1.56,2.07,2.07,0,0,0-1.82-.14c-.55.2-1.73,1-.9,3.86a6.58,6.58,0,0,0,.76,1.66l.1.16a4.41,4.41,0,0,1-2-.76,4.47,4.47,0,0,1-1.55-1.91,4.53,4.53,0,0,1-.25-.76c0-.05,0-.1,0-.15a4.55,4.55,0,0,1-.08-1.11h0a7.44,7.44,0,0,1-1.23.13,7.44,7.44,0,0,1-6.93-10.2l0-.1a7.38,7.38,0,0,1,4.59-4.13l-.14-.15a7.37,7.37,0,0,1,7.15-12.4c0-.07.08-.14.12-.22a5.13,5.13,0,0,1,3.93-3.1,5.38,5.38,0,0,1,6,3.24c.07-.11.16-.2.24-.3a6.79,6.79,0,0,1,10.89,8.1,6.87,6.87,0,0,1-.61.75l.26.15a7.66,7.66,0,0,1,.9.52,7.87,7.87,0,0,1,2,10.88Z"/></g></svg>