<svg id="Layer_1" data-name="Layer 1" xmlns="http://www.w3.org/2000/svg" viewBox="0 0 300 300"><defs><style>.cls-1{fill:none;}.cls-2{fill:#d9ebff;}.cls-3{fill:#e1e1e6;}.cls-4{fill:#fff;}.cls-5{fill:#59acff;}.cls-6{fill:#f9f9fa;}</style></defs><title>Onvoarding-</title><path class="cls-1" d="M240.85,85.58c-.11-.28-2.77-6.88-9.33-6a5.09,5.09,0,0,0-4.06,2.31,4.29,4.29,0,0,0-.39,1,5.92,5.92,0,0,1,4-1.95c7.07-1,9.86,6.3,9.86,6.3a5.41,5.41,0,0,1,.55-1.4.47.47,0,0,1-.14.06A.48.48,0,0,1,240.85,85.58Z"/><path class="cls-2" d="M283.79,139h-17.6v2h17.6a1,1,0,0,0,0-2Z"/><path class="cls-2" d="M272.51,135.67a.5.5,0,0,0,0-1h-6.32v1Z"/><path class="cls-2" d="M281.21,145.34a.5.5,0,0,0,0-1h-15v1Z"/><path class="cls-2" d="M17,190.5a1,1,0,0,0,0,2H41.35v-2Z"/><path class="cls-2" d="M26,186.53a.5.5,0,1,0,0,1H41.35v-1Z"/><path class="cls-3" d="M41.21,195.84a.5.5,0,0,0,0,1h.14v-1Z"/><path class="cls-4" d="M62.65,64a17.13,17.13,0,0,0,.46,4.63h.72A22,22,0,0,1,62.65,64Z"/><path class="cls-2" d="M65,69.39a.5.5,0,0,0,0-.48A18.91,18.91,0,0,1,63.62,60a8.63,8.63,0,0,1,1-3c1.33-2.38,3.88-3.85,7.6-4.36,12.16-1.66,17,10.5,17.2,11a.51.51,0,0,0,.51.32.5.5,0,0,0,.45-.4c.06-.29,1.49-7,8.48-5.7s12.55,11.93,12.6,12a.5.5,0,0,0,.45.27h18.68a.5.5,0,0,0,0-1H112.18c-.94-1.76-6.14-11-13.17-12.3-6-1.14-8.39,3-9.25,5.21C88.11,58.88,82.65,50.23,72,51.68c-4,.55-6.85,2.19-8.34,4.86A12,12,0,0,0,62.65,64a22,22,0,0,0,1.18,4.63H43.13a.5.5,0,0,0,0,1H64.58A.5.5,0,0,0,65,69.39Z"/><path class="cls-4" d="M42.75,74h88.42a1,1,0,0,0,0-2H110.62c-1.84-3.37-6.39-10.6-12.07-11.68-7.56-1.44-9.07,6.09-9.07,6.09s-5-13.06-17.73-11.33c-4.54.62-6.95,2.57-8.13,4.93A18.91,18.91,0,0,0,65,68.92a.5.5,0,0,1-.46.7H63.37A19.58,19.58,0,0,0,64.2,72H42.75a1,1,0,0,0,0,2Z"/><path class="cls-2" d="M43.35,117.62v92.5A3,3,0,0,0,46.42,213H78v-2.65H48c-1.61,0-1.92-.32-1.92-1.93v-78.5H78V124.6h-6.6a2.42,2.42,0,0,1-2.42-2.42V122a2.42,2.42,0,0,1,2.42-2.42H78v-5.23H46.67A3.31,3.31,0,0,0,43.35,117.62Zm15.88,2.21A2.24,2.24,0,1,1,57,122.07,2.24,2.24,0,0,1,59.24,119.83Zm-7.22,0a2.24,2.24,0,1,1-2.24,2.24A2.24,2.24,0,0,1,52,119.83Z"/><path class="cls-5" d="M46.42,213a3,3,0,0,1-3.07-2.88v-92.5a3.31,3.31,0,0,1,3.31-3.31H78v-2H46.67a5.32,5.32,0,0,0-5.31,5.31v92.5A5,5,0,0,0,46.42,215H78v-2Z"/><path class="cls-6" d="M46.08,208.41c0,1.61.32,1.93,1.92,1.93H78V129.91H46.08Z"/><circle class="cls-5" cx="52.02" cy="122.07" r="2.24"/><circle class="cls-5" cx="59.24" cy="122.07" r="2.24"/><path class="cls-5" d="M68.94,122v.22a2.42,2.42,0,0,0,2.42,2.42H78v-5.06h-6.6A2.42,2.42,0,0,0,68.94,122Z"/><path class="cls-2" d="M236.18,119.54A2.42,2.42,0,0,1,238.6,122v.22a2.42,2.42,0,0,1-2.42,2.42h-6.6v5.32h31.89v78.5c0,1.61-.32,1.93-1.92,1.93h-30V213h31.54a3,3,0,0,0,3.07-2.88v-92.5a3.31,3.31,0,0,0-3.31-3.31h-31.3v5.23Zm19.34.29a2.24,2.24,0,1,1-2.24,2.24A2.24,2.24,0,0,1,255.52,119.83Zm-7.22,0a2.24,2.24,0,1,1-2.24,2.24A2.24,2.24,0,0,1,248.31,119.83Z"/><path class="cls-5" d="M266.19,135.67V117.62a5.32,5.32,0,0,0-5.31-5.31h-31.3v2h31.3a3.31,3.31,0,0,1,3.31,3.31v92.5a3,3,0,0,1-3.07,2.88H229.58v2h31.54a5,5,0,0,0,5.07-4.88V135.67Z"/><path class="cls-6" d="M261.47,208.41v-78.5H229.58v80.43h30C261.15,210.34,261.47,210,261.47,208.41Z"/><path class="cls-5" d="M238.6,122.17V122a2.42,2.42,0,0,0-2.42-2.42h-6.6v5.06h6.6A2.42,2.42,0,0,0,238.6,122.17Z"/><circle class="cls-5" cx="248.31" cy="122.07" r="2.24"/><circle class="cls-5" cx="255.52" cy="122.07" r="2.24"/><path class="cls-4" d="M229.58,210.34V106.15a8.5,8.5,0,0,0-8.49-8.49H148.87a6.33,6.33,0,0,1-.72,2h72.94a6.5,6.5,0,0,1,6.49,6.49V231.57a6,6,0,0,1-6.16,5.9H86.13a6,6,0,0,1-6.16-5.9V106.15a6.5,6.5,0,0,1,6.49-6.49h43.37a6.38,6.38,0,0,1-.73-2H86.46A8.5,8.5,0,0,0,78,106.15V231.57a8,8,0,0,0,8.16,7.9H221.41a8,8,0,0,0,8.16-7.9V210.34Z"/><path class="cls-5" d="M146.38,101.65h74.71a4.49,4.49,0,0,1,4.49,4.49V231.57a4,4,0,0,1-4.16,3.9H86.13a4,4,0,0,1-4.16-3.9V106.15a4.49,4.49,0,0,1,4.49-4.49h45.15A6.28,6.28,0,0,1,130,100c-.07-.11-.12-.23-.19-.35H86.46A6.5,6.5,0,0,0,80,106.15V231.57a6,6,0,0,0,6.16,5.9H221.41a6,6,0,0,0,6.16-5.9V106.15a6.5,6.5,0,0,0-6.49-6.49H148.14c-.07.13-.13.27-.22.39A6.39,6.39,0,0,1,146.38,101.65Z"/><path class="cls-6" d="M181.35,124.44a9.82,9.82,0,0,1-2.68,2.71l-9.94,8.11a3,3,0,0,1-3.74,0l-10-8.08a9.63,9.63,0,0,1-2.78-2.8,9.78,9.78,0,0,1-.82-1.55H85.66V229.26c0,2.18.43,2.61,2.61,2.61h131c2.18,0,2.61-.43,2.61-2.61V122.82H182.22A9.67,9.67,0,0,1,181.35,124.44Zm6.36,24.26a23.29,23.29,0,0,1-4.86,34.38L155.75,205.2a4.71,4.71,0,0,1-2.93,1,4.66,4.66,0,0,1-2.93-1l-27.27-22.07a22.78,22.78,0,0,1-6.71-6.71A23.42,23.42,0,0,1,119,147.13a23.28,23.28,0,0,1,32.92.06l0,0a1,1,0,0,0,.73.32,1.08,1.08,0,0,0,.78-.36,23.3,23.3,0,0,1,34.28,1.51Z"/><circle class="cls-5" cx="93.72" cy="112.17" r="3.03"/><circle class="cls-5" cx="103.5" cy="112.17" r="3.03"/><path class="cls-5" d="M116.66,112v.29a3.28,3.28,0,0,0,3.28,3.28h31.29a9.82,9.82,0,0,1,15.58-4.13,9.83,9.83,0,0,1,15.56,4.13h5.23a3.28,3.28,0,0,0,3.28-3.28V112a3.28,3.28,0,0,0-3.28-3.28H119.94A3.28,3.28,0,0,0,116.66,112Z"/><circle class="cls-5" cx="204.04" cy="112.17" r="3.03"/><circle class="cls-5" cx="213.82" cy="112.17" r="3.03"/><path class="cls-5" d="M154.85,148.61l0,0a3.05,3.05,0,0,1-2.16.91,3,3,0,0,1-2.15-.91l0,0a21.28,21.28,0,0,0-30.1-.06,21.52,21.52,0,0,0-2.8,26.77,20.76,20.76,0,0,0,6.21,6.18l27.35,22.14a2.65,2.65,0,0,0,1.67.59,2.69,2.69,0,0,0,1.68-.59l27.17-22.17a21.31,21.31,0,1,0-26.82-32.86Zm-21.77,6.93a8.74,8.74,0,0,0-6.84,7.84,3.56,3.56,0,0,1-3.54,3.27,1.84,1.84,0,0,1-.29,0,3.58,3.58,0,0,1-3.27-3.84,15.81,15.81,0,0,1,12.38-14.21,3.56,3.56,0,1,1,1.55,7Z"/><path class="cls-2" d="M153.44,147.19a1.08,1.08,0,0,1-.78.36,1,1,0,0,1-.73-.32l0,0a23.28,23.28,0,0,0-32.92-.06,23.42,23.42,0,0,0-3.06,29.28,22.78,22.78,0,0,0,6.71,6.71l27.27,22.07a4.66,4.66,0,0,0,2.93,1,4.71,4.71,0,0,0,2.93-1l27.11-22.12a23.31,23.31,0,1,0-29.42-35.89Zm32.76,2.8a21.29,21.29,0,0,1-4.53,31.48L154.5,203.64a2.69,2.69,0,0,1-1.68.59,2.65,2.65,0,0,1-1.67-.59l-27.35-22.14a20.76,20.76,0,0,1-6.21-6.18,21.52,21.52,0,0,1,2.8-26.77,21.28,21.28,0,0,1,30.1.06l0,0a3,3,0,0,0,2.15.91,3.05,3.05,0,0,0,2.16-.91l0,0A21.3,21.3,0,0,1,186.19,150Z"/><path class="cls-6" d="M131.53,148.58a15.81,15.81,0,0,0-12.38,14.21,3.58,3.58,0,0,0,3.27,3.84,1.84,1.84,0,0,0,.29,0,3.56,3.56,0,0,0,3.54-3.27,8.74,8.74,0,0,1,6.84-7.84,3.56,3.56,0,1,0-1.55-7Z"/><path class="cls-4" d="M226,86a9.28,9.28,0,0,0,.17,2h.34A12.61,12.61,0,0,1,226,86Z"/><path class="cls-2" d="M227.68,88.8a.5.5,0,0,0,0-.48,9.6,9.6,0,0,1-.65-5.43,4.29,4.29,0,0,1,.39-1,5.09,5.09,0,0,1,4.06-2.31c6.56-.89,9.22,5.7,9.33,6a.48.48,0,0,0,.51.32.47.47,0,0,0,.14-.06.48.48,0,0,0,.3-.34s0-.1.05-.21a3.64,3.64,0,0,1,4.4-2.78c3.86.74,6.83,6.05,6.86,6.1a.5.5,0,0,0,.44.26H264a.5.5,0,0,0,0-1h-10.1c-.68-1.14-3.55-5.61-7.4-6.35a4.49,4.49,0,0,0-5.22,2.58c-1.16-2.08-4.24-6.26-9.85-5.5-2.32.32-3.94,1.26-4.8,2.82A7.1,7.1,0,0,0,226,86a12.61,12.61,0,0,0,.51,2h-11.2a.5.5,0,0,0,0,1h11.93A.5.5,0,0,0,227.68,88.8Z"/><path class="cls-4" d="M215.18,92.36h49.17a1,1,0,0,0,0-2H252.71c-1-1.87-3.55-5.91-6.72-6.51a3.89,3.89,0,0,0-4.13,1.44c0,.12-.05.2-.05.21a.48.48,0,0,1-.3.34,5.41,5.41,0,0,0-.55,1.4s-2.79-7.26-9.86-6.3a5.92,5.92,0,0,0-4,1.95,9.6,9.6,0,0,0,.65,5.43.5.5,0,0,1-.46.7h-.83a10.74,10.74,0,0,0,.46,1.33H215.17a1,1,0,0,0,0,2Z"/><ellipse class="cls-2" cx="151.69" cy="248.93" rx="73.47" ry="6.07"/><path class="cls-5" d="M156.19,125.56l10.06,8.14a1,1,0,0,0,.62.22,1,1,0,0,0,.62-.22l10-8.16a7.84,7.84,0,1,0-9.87-12.09h0a1.12,1.12,0,0,1-.8.34,1.11,1.11,0,0,1-.79-.34h0a7.83,7.83,0,0,0-11.07,0,7.92,7.92,0,0,0-1,9.85A7.64,7.64,0,0,0,156.19,125.56ZM159,113.44a1.31,1.31,0,1,1,.57,2.56,3.22,3.22,0,0,0-2.52,2.88,1.31,1.31,0,0,1-1.3,1.2h-.11a1.32,1.32,0,0,1-1.2-1.41A5.82,5.82,0,0,1,159,113.44Z"/><path class="cls-6" d="M155.68,120.08h.11a1.31,1.31,0,0,0,1.3-1.2A3.22,3.22,0,0,1,159.6,116a1.31,1.31,0,1,0-.57-2.56,5.82,5.82,0,0,0-4.56,5.23A1.32,1.32,0,0,0,155.68,120.08Z"/><path class="cls-5" d="M133,100.2l5.68,4.6a.55.55,0,0,0,.35.12.56.56,0,0,0,.35-.12l5.65-4.61a4.43,4.43,0,1,0-5.57-6.83h0a.63.63,0,0,1-.45.19.63.63,0,0,1-.45-.19h0a4.42,4.42,0,0,0-6.26,0,4.47,4.47,0,0,0-.58,5.56A4.32,4.32,0,0,0,133,100.2Zm1.61-6.84a.74.74,0,1,1,.32,1.45,1.82,1.82,0,0,0-1.42,1.63.74.74,0,0,1-.74.68h-.06a.74.74,0,0,1-.68-.8A3.29,3.29,0,0,1,134.59,93.36Z"/><path class="cls-2" d="M130,100a6.28,6.28,0,0,0,1.59,1.65H86.46A4.49,4.49,0,0,0,82,106.15V231.57a4,4,0,0,0,4.16,3.9H221.41a4,4,0,0,0,4.16-3.9V106.15a4.49,4.49,0,0,0-4.49-4.49H146.38a6.39,6.39,0,0,0,1.55-1.61c.08-.13.14-.26.22-.39a6.33,6.33,0,0,0,.72-2,6.42,6.42,0,0,0-9.88-6.5,6.42,6.42,0,0,0-9.16,8.5C129.9,99.77,129.94,99.89,130,100Zm-26.51,9.14a3,3,0,1,1-3,3A3,3,0,0,1,103.5,109.14Zm-9.78,0a3,3,0,1,1-3,3A3,3,0,0,1,93.72,109.14Zm128.17,13.68V229.26c0,2.18-.43,2.61-2.61,2.61h-131c-2.18,0-2.61-.43-2.61-2.61V122.82H151.4a9.78,9.78,0,0,0,.82,1.55,9.63,9.63,0,0,0,2.78,2.8l10,8.08a3,3,0,0,0,3.74,0l9.94-8.11a9.82,9.82,0,0,0,2.68-2.71,9.67,9.67,0,0,0,.86-1.62Zm-67-9.39a7.83,7.83,0,0,1,11.07,0h0a1.11,1.11,0,0,0,.79.34,1.12,1.12,0,0,0,.8-.34h0a7.84,7.84,0,1,1,9.87,12.09l-10,8.16a1,1,0,0,1-.62.22,1,1,0,0,1-.62-.22l-10.06-8.14a7.64,7.64,0,0,1-2.29-2.28A7.92,7.92,0,0,1,154.93,113.43Zm58.9-4.29a3,3,0,1,1-3,3A3,3,0,0,1,213.82,109.14Zm-9.78,0a3,3,0,1,1-3,3A3,3,0,0,1,204,109.14Zm-16.44-.4a3.28,3.28,0,0,1,3.28,3.28v.29a3.28,3.28,0,0,1-3.28,3.28h-5.23a9.7,9.7,0,0,0-1.7-2.94,9.84,9.84,0,0,0-13.86-1.19,9.81,9.81,0,0,0-15.58,4.13H119.94a3.28,3.28,0,0,1-3.28-3.28V112a3.28,3.28,0,0,1,3.28-3.28Zm-55.33-15.4a4.42,4.42,0,0,1,6.26,0h0a.63.63,0,0,0,.45.19.63.63,0,0,0,.45-.19h0a4.43,4.43,0,1,1,5.57,6.83l-5.65,4.61a.56.56,0,0,1-.35.12.55.55,0,0,1-.35-.12L133,100.2a4.32,4.32,0,0,1-1.29-1.29A4.47,4.47,0,0,1,132.27,93.35Z"/><path class="cls-6" d="M132.7,97.11h.06a.74.74,0,0,0,.74-.68,1.82,1.82,0,0,1,1.42-1.63.74.74,0,1,0-.32-1.45,3.29,3.29,0,0,0-2.57,3A.74.74,0,0,0,132.7,97.11Z"/><path class="cls-5" d="M151.52,85.23l9.33,7.55a.9.9,0,0,0,.57.2.92.92,0,0,0,.57-.2l9.27-7.57A7.27,7.27,0,1,0,162.12,74h0a1,1,0,0,1-.74.31,1,1,0,0,1-.73-.31h0a7.26,7.26,0,0,0-10.27,0,7.35,7.35,0,0,0-1,9.14A7.09,7.09,0,0,0,151.52,85.23ZM154.16,74a1.22,1.22,0,0,1,.53,2.37A3,3,0,0,0,152.36,79a1.21,1.21,0,0,1-1.21,1.11h-.1a1.22,1.22,0,0,1-1.11-1.31A5.4,5.4,0,0,1,154.16,74Z"/><path class="cls-2" d="M150.34,86.85l9.26,7.49a2.91,2.91,0,0,0,3.65,0l9.22-7.52A9.27,9.27,0,1,0,161.38,72a9.26,9.26,0,0,0-12.43.58,9.31,9.31,0,0,0-1.22,11.65A9.07,9.07,0,0,0,150.34,86.85Zm0-12.86a7.26,7.26,0,0,1,10.27,0h0a1,1,0,0,0,.73.31,1,1,0,0,0,.74-.31h0a7.27,7.27,0,1,1,9.15,11.22L162,92.79a.92.92,0,0,1-.57.2.9.9,0,0,1-.57-.2l-9.33-7.55a7.09,7.09,0,0,1-2.12-2.11A7.35,7.35,0,0,1,150.36,74Z"/><path class="cls-6" d="M151.05,80.16h.1A1.21,1.21,0,0,0,152.36,79a3,3,0,0,1,2.33-2.68,1.22,1.22,0,0,0-.53-2.37,5.4,5.4,0,0,0-4.23,4.85A1.22,1.22,0,0,0,151.05,80.16Z"/></svg>