<svg width="297" height="245" viewBox="0 0 297 245" xmlns="http://www.w3.org/2000/svg"><title>performance</title><defs><linearGradient x1="-920.838%" y1="-294.992%" x2="891.374%" y2="366.984%" id="a"><stop stop-color="#FFFBCC" offset="0%"/><stop stop-color="#CEF7C6" offset="100%"/></linearGradient><linearGradient x1="-162.81%" y1="-242.422%" x2="179.364%" y2="239.183%" id="b"><stop stop-color="#FFFBCC" offset="0%"/><stop stop-color="#CEF7C6" offset="100%"/></linearGradient><linearGradient x1="-347.431%" y1="-836.5%" x2="1777.43%" y2="3692.808%" id="c"><stop stop-color="#FFFBCC" offset="0%"/><stop stop-color="#CEF7C6" offset="100%"/></linearGradient><linearGradient x1="-494.697%" y1="-397.029%" x2="2194.58%" y2="1809.556%" id="d"><stop stop-color="#FFFBCC" offset="0%"/><stop stop-color="#CEF7C6" offset="100%"/></linearGradient><linearGradient x1="-358.927%" y1="-240.795%" x2="1727.185%" y2="1250.312%" id="e"><stop stop-color="#D7B600" offset="0%"/><stop stop-color="#05A700" offset="100%"/></linearGradient><linearGradient x1="-626.22%" y1="-1767.938%" x2="1375.102%" y2="3610.616%" id="f"><stop stop-color="#FFFBCC" offset="0%"/><stop stop-color="#CEF7C6" offset="100%"/></linearGradient><linearGradient x1="-2092.13%" y1="-2092.3%" x2="2102.26%" y2="2102.09%" id="g"><stop stop-color="#FFFBCC" offset="0%"/><stop stop-color="#CEF7C6" offset="100%"/></linearGradient><linearGradient x1="-10687.27%" y1="-10695.62%" x2="6524.09%" y2="6515.75%" id="h"><stop stop-color="#FFFBCC" offset="0%"/><stop stop-color="#CEF7C6" offset="100%"/></linearGradient><linearGradient x1="-235.943%" y1="-613.083%" x2="463.706%" y2="1010.631%" id="i"><stop stop-color="#FFFBCC" offset="0%"/><stop stop-color="#CEF7C6" offset="100%"/></linearGradient><linearGradient x1="-10998.63%" y1="-10974.25%" x2="6212.73%" y2="6237.11%" id="j"><stop stop-color="#FFFBCC" offset="0%"/><stop stop-color="#CEF7C6" offset="100%"/></linearGradient><linearGradient x1="-73.995%" y1="-65.306%" x2="120.692%" y2="159.008%" id="k"><stop stop-color="#FFFBCC" offset="0%"/><stop stop-color="#CEF7C6" offset="100%"/></linearGradient><linearGradient x1="-21.918%" y1="-53.508%" x2="187.863%" y2="264.044%" id="l"><stop stop-color="#FFFBCC" offset="0%"/><stop stop-color="#CEF7C6" offset="100%"/></linearGradient><linearGradient x1="-489.211%" y1="-179.924%" x2="521.605%" y2="253.611%" id="m"><stop stop-color="#FFFBCC" offset="0%"/><stop stop-color="#CEF7C6" offset="100%"/></linearGradient><linearGradient x1="-7695.347%" y1="-543.989%" x2="5437.677%" y2="468.444%" id="n"><stop stop-color="#FFFBCC" offset="0%"/><stop stop-color="#CEF7C6" offset="100%"/></linearGradient><linearGradient x1="-871.152%" y1="-248.513%" x2="1179.248%" y2="414.667%" id="o"><stop stop-color="#D7B600" offset="0%"/><stop stop-color="#05A700" offset="100%"/></linearGradient><linearGradient x1="-737.21%" y1="-1393.274%" x2="549.019%" y2="955.49%" id="p"><stop stop-color="#D7B600" offset="0%"/><stop stop-color="#05A700" offset="100%"/></linearGradient><linearGradient x1="-638.104%" y1="-1298.114%" x2="447.684%" y2="806.622%" id="q"><stop stop-color="#D7B600" offset="0%"/><stop stop-color="#05A700" offset="100%"/></linearGradient><linearGradient x1="-1950.055%" y1="-1089.986%" x2="3277.839%" y2="1905.929%" id="r"><stop stop-color="#D7B600" offset="0%"/><stop stop-color="#05A700" offset="100%"/></linearGradient><linearGradient x1="-575.859%" y1="-1406.193%" x2="985.226%" y2="2277.098%" id="s"><stop stop-color="#D7B600" offset="0%"/><stop stop-color="#05A700" offset="100%"/></linearGradient><linearGradient x1="-1033.963%" y1="-1091.623%" x2="2289.262%" y2="2403.036%" id="t"><stop stop-color="#D7B600" offset="0%"/><stop stop-color="#05A700" offset="100%"/></linearGradient><linearGradient x1="-2408.138%" y1="-454.703%" x2="4538.159%" y2="962.257%" id="u"><stop stop-color="#D7B600" offset="0%"/><stop stop-color="#05A700" offset="100%"/></linearGradient><linearGradient x1="-998.9%" y1="-1143.058%" x2="1755.168%" y2="1997.85%" id="v"><stop stop-color="#D7B600" offset="0%"/><stop stop-color="#05A700" offset="100%"/></linearGradient><linearGradient x1="-4669.755%" y1="-4076.6%" x2="8549.086%" y2="7499.45%" id="w"><stop stop-color="#D7B600" offset="0%"/><stop stop-color="#05A700" offset="100%"/></linearGradient><linearGradient x1="-195.59%" y1="-922.704%" x2="389.831%" y2="1341.95%" id="x"><stop stop-color="#FFFBCC" offset="0%"/><stop stop-color="#CEF7C6" offset="100%"/></linearGradient><linearGradient x1="-343.613%" y1="-263.57%" x2="487.353%" y2="406.119%" id="y"><stop stop-color="#D7B600" offset="0%"/><stop stop-color="#05A700" offset="100%"/></linearGradient><linearGradient x1="-27.659%" y1="2.333%" x2="125.482%" y2="104.574%" id="z"><stop stop-color="#D7B600" offset="0%"/><stop stop-color="#05A700" offset="100%"/></linearGradient><linearGradient x1="-651.262%" y1="-472.878%" x2="435.248%" y2="317.591%" id="A"><stop stop-color="#FFFBCC" offset="0%"/><stop stop-color="#CEF7C6" offset="100%"/></linearGradient><linearGradient x1="-548.021%" y1="-473.693%" x2="248.049%" y2="204.898%" id="B"><stop stop-color="#FFFBCC" offset="0%"/><stop stop-color="#CEF7C6" offset="100%"/></linearGradient></defs><g fill="none" fill-rule="evenodd"><path d="M-24-20h352v303H-24z"/><g fill-rule="nonzero"><path d="M13.6 181.6c-2.8 0-5.1-2.2-5.1-4.8V58.3c0-3 2.4-5.4 5.4-5.4h127.2c3 0 5.4 2.4 5.4 5.4v118.5c0 2.6-2.3 4.8-5 4.8H13.6z" fill="#FFF"/><path d="M141.1 54c2.3 0 4.2 1.9 4.2 4.2v118.5c0 2-1.8 3.7-3.9 3.7H13.6c-2.2 0-3.9-1.7-3.9-3.7V58.3c0-2.3 1.9-4.2 4.2-4.2h127.2V54zm0-2.2H13.9c-3.6 0-6.5 2.9-6.5 6.5v118.4c0 3.3 2.8 5.9 6.2 5.9h127.8c3.4 0 6.2-2.7 6.2-5.9V58.3c-.1-3.6-3-6.5-6.5-6.5z" fill="#D7D7DB"/></g><path d="M139.9 75.2v98.2c0 1-.1 1.2-.1 1.2s-.2.1-1.2.1H16.4c-1 0-1.2-.1-1.2-.1s-.1-.2-.1-1.2V75.2h124.8zM141 74H13.9v99.3c0 2 .4 2.5 2.5 2.5h122.2c2 0 2.5-.4 2.5-2.5V74h-.1z" fill-rule="nonzero" fill="#D7D7DB"/><g fill-rule="nonzero" fill="#D7D7DB"><circle cx="3.7" cy="3" r="2.9" transform="translate(17 61)"/><circle cx="3" cy="3" r="2.9" transform="translate(27 61)"/><path d="M109.4 67.2H45.5c-1.7 0-3.1-1.4-3.1-3.1v-.3c0-1.7 1.4-3.1 3.1-3.1h63.9c1.7 0 3.1 1.4 3.1 3.1v.3c0 1.7-1.3 3.1-3.1 3.1z"/><g><circle cx="3" cy="3" r="2.9" transform="translate(122 61)"/><circle cx="3.2" cy="3" r="2.9" transform="translate(131 61)"/></g></g><g fill-rule="nonzero"><path d="M39.9 22.9h23.8S56.3 6.3 72.1 4.1c14.1-1.9 19.7 12.6 19.7 12.6s1.7-8.4 10.1-6.8c8.3 1.6 14.4 14.9 14.4 14.9H137" fill="#F9F9FA"/><path d="M137.2 20.9h-4.5c-.3 0-.6-.3-.6-.6s.3-.6.6-.6h4.5c.3 0 .6.3.6.6s-.2.6-.6.6zm-14.5 0h-1.1c-.3 0-.6-.2-.6-.6 0-.3.2-.6.6-.6h1.1c.3 0 .6.2.6.6 0 .3-.3.6-.6.6zm-5.5 0h-.6c-.2 0-.4-.1-.5-.3-.1-.2-.6-1.1-1.3-2.3-.2-.3-.1-.6.2-.8.3-.2.6-.1.8.2.6.9 1 1.7 1.2 2.1h.3c.3 0 .6.2.6.6 0 .4-.4.5-.7.5zm-53.1-.7h-1.5c-.3 0-.6-.3-.6-.6s.3-.6.6-.6h.6c-.1-.3-.2-.6-.4-1-.1-.3.1-.6.4-.7.3-.1.6.1.7.4.3 1 .6 1.7.6 1.7.1.2.1.4 0 .5 0 .2-.2.3-.4.3zm-10.4 0H40.3c-.3 0-.6-.3-.6-.6s.3-.6.6-.6h13.4c.3 0 .6.3.6.6s-.3.6-.6.6zm8.8-6.1c-.3 0-.5-.2-.6-.5 0-.4-.1-.8-.1-1.1 0-.3.2-.6.5-.6s.6.2.6.5c0 .4.1.7.1 1.1.1.3-.1.6-.5.6zm29.1-1.2c-.2 0-.4-.1-.5-.3-.1-.3-.3-.6-.5-1-.1-.3 0-.6.2-.8.3-.1.6 0 .8.2.2.4.4.7.5 1 .1.3 0 .6-.3.7 0 .2-.1.2-.2.2zm18-1.4c-.1 0-.3-.1-.4-.2-2.4-2.3-4.8-3.7-7.2-4.1-1.6-.3-3.1-.2-4.3.2-.3.1-.6-.1-.7-.4-.1-.3.1-.6.4-.7 1.4-.5 3.1-.6 4.9-.2 2.6.5 5.2 2 7.7 4.4.2.2.2.6 0 .8-.1.2-.2.2-.4.2zM88.7 8.2c-.2 0-.3-.1-.4-.2-.7-.9-1.4-1.7-2.2-2.4-.2-.2-.2-.6 0-.8.2-.2.6-.2.8 0 .8.8 1.6 1.6 2.3 2.5.2.2.2.6-.1.8-.2.1-.3.1-.4.1zM65.8 4c-.2 0-.3-.1-.4-.2-.2-.2-.2-.6.1-.8C67.2 1.6 69.6.7 72.4.3c2.2-.3 4.3-.2 6.3.2.3.1.5.4.4.7-.1.3-.4.5-.7.4-1.9-.4-3.9-.5-5.9-.2-2.7.4-4.8 1.2-6.4 2.4-.1.1-.2.2-.3.2z" fill="#D7D7DB"/><path d="M137.9 25.1h-98c-.6 0-1.1-.5-1.1-1.1 0-.6.5-1.1 1.1-1.1h98c.6 0 1.1.5 1.1 1.1 0 .6-.5 1.1-1.1 1.1z" fill="#F9F9FA"/></g><path d="M261.4 80.6c.2-.3.6-1 .2-1.3-.3-.2-.6-.3-1-.3-.8 0-1.6.3-2.3.8-1.4 1-2.6 2.7-2.3 3.5 2.5-.5 4.6-1.5 5.4-2.7z"/><path d="M59.3 94.4c4.3.1 8.5-1 12.1-3.3 3.3-2.1 7.2-3.1 11.1-3 3.9-.1 7.8 1 11.1 3 7.5 4.4 16.8 4.4 24.3 0 6.8-4 15.3-4 22.2 0 7.5 4.4 16.8 4.4 24.3 0 6.8-4 15.3-4 22.2 0 3.6 2.2 7.9 3.4 12.1 3.3.6 0 1.1-.5 1.1-1.1 0-.6-.5-1.1-1.1-1.1-3.9.1-7.8-.9-11.1-3-7.5-4.4-16.8-4.4-24.3 0-6.8 4-15.3 4-22.2 0-7.5-4.4-16.8-4.4-24.3 0-6.8 4-15.3 4-22.2 0-3.6-2.2-7.9-3.4-12.1-3.3-4.3-.1-8.5 1-12.1 3.3-3.3 2.1-7.2 3.1-11.1 3-3.9.1-7.8-.9-11.1-3-3.6-2.2-7.9-3.4-12.1-3.3-.6 0-1.1.5-1.1 1.1 0 .6.5 1.1 1.1 1.1 3.9-.1 7.8.9 11.1 3 3.6 2.3 7.8 3.4 12.1 3.3zM269.2 82.1c-.2-.2-.5-.3-.8-.1-3.1 2-6.6 3.2-10.3 3.5-1.4.2-2.8.2-4.2 0 2.2-.7 4.2-1.7 5.1-2.9 1.1-1.5.4-2.4.1-2.7-1-.9-3.1-.7-4.7.4-1.2.9-3.2 3-2.8 4.7-1.8.4-3.6.7-5.4.8-.3 0-.6.2-.6.6 0 .4.2.6.6.6 2-.1 4-.4 6-.9 1 .8 2.9 1 6 .7 7-.8 10.7-3.6 10.8-3.8.3-.3.4-.6.2-.9zm-14.1-.9c.7-.5 1.5-.8 2.3-.8.4 0 .7.1 1 .3.3.3 0 1-.2 1.3-.8 1.2-3 2.1-5.4 2.8-.3-1 .9-2.6 2.3-3.6z" fill="#D7D7DB" fill-rule="nonzero"/><path d="M154.6 87.1c-.3 0-.6-.3-.7-.6 0-.4.2-.7.6-.7 1.4-.1 2.8-.4 4-.9.3-.1.7.1.9.4.1.3-.1.7-.4.9-1.4.4-2.8.7-4.4.9zM202.6 86.9c-.3 0-.6-.2-.7-.6-.1-.4.2-.7.5-.8 3.4-.6 5.5-1.9 7.5-3.3.3-.2.7-.1.9.2.2.3.1.7-.2.9-2.1 1.3-4.4 2.8-8 3.4.1.2 0 .2 0 .2zM148.2 86.8h-.1c-3.5-.6-5.7-2.1-7.9-3.5l-.1-.1c-.3-.2-.4-.6-.2-.9.2-.3.6-.4.9-.2l.1.1c2.2 1.4 4.2 2.7 7.4 3.3.4.1.6.4.5.8 0 .3-.3.5-.6.5zM241.1 86.7h-.1c-3.2-.7-5.4-2.1-7.5-3.4l-.5-.3c-.3-.2-.4-.6-.2-.9.2-.3.6-.4.9-.2l.4.3c2.1 1.3 4 2.6 7 3.2.4.1.6.4.5.8.1.3-.2.5-.5.5zM194.1 86.7h-.2c-.4-.1-.7-.2-1.1-.3-.4-.1-.6-.5-.4-.8.1-.4.5-.6.8-.4.3.1.6.2 1 .3.4.1.6.4.5.8 0 .2-.3.4-.6.4zM189.2 84.7c-.1 0-.2 0-.3-.1-.7-.4-1.4-.8-2-1.3-.5-.3-1.1-.7-1.6-1-.3-.2-.4-.6-.2-.9.2-.3.6-.4.9-.2.6.3 1.1.7 1.6 1 .6.4 1.3.8 2 1.2.3.2.4.6.2.9-.1.3-.4.4-.6.4zM162.6 84.3c-.2 0-.4-.1-.6-.3-.2-.3-.1-.7.2-.9l.9-.6c.3-.2.7-.1.9.2.2.3.1.7-.2.9l-.9.6c-.1 0-.2.1-.3.1zM216.1 80.6c-.3 0-.5-.2-.6-.5-.1-.4.1-.7.4-.8 1.4-.4 2.8-.7 4.3-.8.4 0 .7.2.7.6 0 .4-.2.7-.6.7-1.5.1-2.8.4-4 .8h-.2zM123.2 80.5c-.3 0-.6-.2-.6-.5-.1-.4.1-.7.5-.8 1.4-.4 2.8-.6 4.4-.7.4 0 .7.3.7.6 0 .4-.3.7-.6.7-1.5.1-2.8.3-4.1.7h-.3zM171.2 80.1c-.3 0-.6-.2-.7-.5-.1-.4.2-.7.5-.8 1.4-.3 2.9-.4 4.5-.4 1.5 0 2.9.1 4.2.4.4.1.6.4.5.8-.1.4-.4.6-.8.5-1.2-.2-2.5-.4-4-.4-1.6 0-2.9.1-4.2.4.1 0 0 0 0 0zM132.7 80h-.1c-.3-.1-.7-.1-1-.1-.4 0-.6-.4-.6-.7 0-.4.4-.6.7-.6.4 0 .7.1 1.1.2.4.1.6.4.5.8 0 .2-.3.4-.6.4zM225.6 79.9h-.1c-.3-.1-.7-.1-1-.1-.4 0-.6-.4-.6-.7 0-.4.4-.6.7-.6.4 0 .7.1 1.1.1.4.1.6.4.6.8-.1.3-.4.5-.7.5z" fill="#D7D7DB" fill-rule="nonzero"/><g fill-rule="nonzero" fill="#D7D7DB"><path d="M12 200.6c4.3.1 8.5-1 12.1-3.3 6.8-4 15.3-4 22.2 0 7.5 4.4 16.8 4.4 24.3 0 3.3-2.1 7.2-3.1 11.1-3 .6 0 1.1-.5 1.1-1.1 0-.6-.5-1.1-1.1-1.1-4.3-.1-8.5 1-12.1 3.3-6.8 4-15.3 4-22.2 0-7.5-4.4-16.8-4.4-24.3 0-3.3 2.1-7.2 3.1-11.1 3-3.6.1-7.2-.8-10.3-2.6-.3.7-.7 1.3-1.2 1.9 3.5 2 7.5 3 11.5 2.9zM61.3 208.7c-.3 0-.6-.2-.7-.6-.1-.4.2-.7.5-.8 3.4-.6 5.5-1.9 7.5-3.3.3-.2.7-.1.9.2.2.3.1.7-.2.9-2.1 1.3-4.4 2.8-8 3.4v.2zM52.8 208.5h-.2c-.4-.1-.7-.2-1.1-.3-.4-.1-.6-.5-.4-.8.1-.4.5-.6.8-.4.3.1.6.2 1 .3.4.1.6.4.5.8-.1.2-.3.4-.6.4zM47.8 206.5c-.1 0-.2 0-.3-.1-.7-.4-1.4-.8-2-1.3-.5-.3-1.1-.7-1.6-1-.3-.2-.4-.6-.2-.9.2-.3.6-.4.9-.2.6.3 1.1.7 1.6 1 .6.4 1.3.8 2 1.2.3.2.4.6.2.9-.1.3-.3.4-.6.4zM74.7 202.4c-.3 0-.5-.2-.6-.5-.1-.4.1-.7.4-.8 1.4-.4 2.8-.7 4.3-.8.4 0 .7.2.7.6 0 .4-.2.7-.6.7-1.5.1-2.8.4-4 .8h-.2z"/><path d="M29.8 202c-.3 0-.6-.2-.7-.5-.1-.4.2-.7.5-.8 1.4-.3 2.9-.4 4.5-.4 1.5 0 2.9.1 4.2.4.4.1.6.4.5.8-.1.4-.4.6-.8.5-1.2-.2-2.5-.4-4-.4-1.6 0-2.9.1-4.2.4.1-.1 0 0 0 0zM84.2 201.8h-.1c-.3-.1-.7-.1-1-.1-.4 0-.6-.4-.6-.7 0-.4.4-.6.7-.6.4 0 .7.1 1.1.1.4.1.6.4.6.8-.1.2-.4.5-.7.5z"/></g><path d="M112.1 196.9c-.2-.2-.5-.3-.8-.1-3.1 2-6.6 3.2-10.3 3.5-1.4.2-2.8.2-4.2 0 2.2-.7 4.2-1.7 5.1-2.9 1.1-1.5.4-2.4.1-2.7-1-.9-3.1-.7-4.7.4-1.2.9-3.2 3-2.8 4.7-1.8.4-3.6.7-5.4.8-.3 0-.6.2-.6.6 0 .3.2.6.6.6 2-.1 4-.4 6-.9 1 .8 2.9 1 6 .7 7-.8 10.7-3.6 10.8-3.8.3-.2.4-.6.2-.9zm-14.2-.9c.7-.5 1.5-.8 2.3-.8.4 0 .7.1 1 .3.3.3 0 1-.2 1.3-.8 1.2-3 2.1-5.4 2.8-.3-1 1-2.6 2.3-3.6z" fill="#D7D7DB" fill-rule="nonzero"/><g fill-rule="nonzero" fill="#D7D7DB"><path d="M77 97.8c-14.9 0-27 12.1-27 27 0 4 .9 8 2.6 11.6.7 1.7 2.6 2.6 4.4 1.9 1.7-.7 2.6-2.6 1.9-4.4-.1-.2-.1-.3-.2-.4-1.3-2.7-2-5.7-2-8.7 0-11.2 9-20.3 20.2-20.3s20.3 9 20.3 20.2c0 3-.7 6-2 8.8-.8 1.7-.1 3.7 1.6 4.5 1.7.8 3.7.1 4.5-1.6 6.4-13.5.7-29.6-12.7-36-3.5-1.8-7.5-2.7-11.6-2.6z"/><path d="M89.8 118.3c-.8-.5-1.8-.3-2.3.5l-8.3 13.1c-3.6-1.2-7.4.8-8.5 4.3-1.2 3.6.8 7.4 4.3 8.5 2 .6 4.2.3 5.9-.8.7-.5 1.3-1.1 1.8-1.8 1.8-2.6 1.5-6.1-.7-8.4l8.3-13.1c.5-.8.3-1.8-.5-2.3z"/></g><g fill-rule="nonzero"><path d="M251.2 231.9l-13.4-1.7c-.5-.1-.9-.5-.9-1l-1.1-27.6-2.6 1.1c-.1.1-.3.1-.4.1-.2 0-.5-.1-.6-.2-.3-.2-.4-.6-.3-1l.8-3.6-3.6.6h-.2c-.3 0-.7-.2-.9-.5-.2-.3-.2-.8.1-1.1l4.2-5.6c.1-.1.2-.2.4-.3l7-3.3c.1-.1.3-.1.4-.1.2 0 .3 0 .4.1l7.8 3.9c.4.2.6.6.5 1 0 .4-.3.8-.7.9l-4.2 1.3 2 4c.2.3.1.7-.1 1-.2.3-.5.4-.8.4h-.2l-3.1-.5 10.3 30.8c.1.3 0 .7-.2 1-.2.2-.5.4-.8.4.3-.1.2-.1.2-.1z" fill="#F5F5F7"/><path d="M240.2 188.8l7.8 3.9-5.3 1.7 2.5 5-4.7-.8 10.9 32.4-13.4-1.7-1.1-29-3.9 1.7 1.1-5-5 .8 4.2-5.6 6.9-3.4zm0-2c-.3 0-.6.1-.9.2l-7 3.3c-.3.1-.5.3-.7.6l-4.2 5.6c-.5.7-.5 1.5-.1 2.2.4.6 1 1 1.7 1h.3l2.1-.3-.5 2.1c-.2.7.1 1.5.7 2 .4.3.8.5 1.3.5.3 0 .5-.1.8-.2l1.2-.5 1 26.1c0 1 .8 1.8 1.8 1.9l13.4 1.7h.2c.6 0 1.2-.3 1.5-.7.4-.5.6-1.3.3-1.9l-9.8-29.2 1.4.3h.3c.6 0 1.2-.3 1.6-.8.5-.6.5-1.4.2-2.1l-1.5-2.9 3.1-1c.8-.2 1.3-.9 1.4-1.7.1-.8-.4-1.6-1.1-1.9l-7.8-3.9c-.1-.3-.4-.4-.7-.4z" fill="#D7D7DB"/></g><g fill-rule="nonzero"><path d="M199.7 227.4c-.2 0-.5-.1-.7-.3-.2-.2-.3-.4-.3-.7l-1.1-24.8-2.6 1.1c-.1.1-.3.1-.4.1-.2 0-.5-.1-.6-.2-.3-.2-.4-.6-.3-1l.8-3.6-3.6.6h-.2c-.3 0-.7-.2-.9-.5-.2-.3-.2-.8.1-1.1l4.2-5.6c.1-.1.2-.2.4-.3l7-3.3c.1-.1.3-.1.4-.1.2 0 .3 0 .4.1l7.8 3.9c.4.2.6.6.5 1 0 .4-.3.8-.7.9l-4.2 1.3 2 4c.2.3.1.7-.1 1-.2.3-.5.4-.8.4h-.2l-3.2-.6 7.4 25.8c.1.3 0 .6-.1.9-.2.2-.5.4-.8.4.2.1-10.2.6-10.2.6z" fill="#F5F5F7"/><path d="M202 188.8l7.8 3.9-5.3 1.7 2.5 5-4.7-.8 7.8 27.3-10.3.6-1.1-26.2-3.9 1.7 1.1-5-5 .8 4.2-5.6 6.9-3.4zm0-2c-.3 0-.6.1-.9.2l-7 3.3c-.3.1-.5.3-.7.6l-4.2 5.6c-.5.7-.5 1.5-.1 2.2.4.6 1 1 1.7 1h.3l2.1-.3-.5 2.1c-.2.7.1 1.5.7 2 .4.3.8.5 1.3.5.3 0 .5-.1.8-.2l1.2-.5 1 23.3c0 .5.3 1 .7 1.4.4.3.8.5 1.3.5h.1l10.3-.6c.6 0 1.2-.3 1.5-.8.3-.5.5-1.1.3-1.7l-6.9-24.3 1.6.3h.3c.6 0 1.2-.3 1.6-.8.5-.6.5-1.4.2-2.1l-1.5-2.9 3.1-1c.8-.2 1.3-.9 1.4-1.7.1-.8-.4-1.6-1.1-1.9l-7.8-3.9c-.2-.2-.5-.3-.8-.3z" fill="#D7D7DB"/></g><path d="M201.4 210.6l1.4 17.5" stroke="#D7D7DB" stroke-linecap="round" stroke-linejoin="round"/><path d="M203.6 221.7l2 11.7" stroke="#EAEAEE" stroke-linecap="round" stroke-linejoin="round"/><path d="M240.2 207.5l5 19" stroke="#D7D7DB" stroke-linecap="round" stroke-linejoin="round"/><path d="M236.5 220.6l1.2 10.9" stroke="#EAEAEE" stroke-linecap="round" stroke-linejoin="round"/><g transform="translate(153 210)" fill-rule="nonzero"><ellipse fill="#EDEDF0" cx="72.1" cy="27" rx="71.5" ry="7.9"/><ellipse fill="#F9F9FA" cx="72.2" cy="25.5" rx="56.8" ry="6.3"/><path d="M20.7 24.2l-.2-.2S12.4 7.7 28.1 4.9c14-2.5 20.1 11.8 20.1 11.8s1.4-8.4 9.8-7.1c8.3 1.3 14.9 14.3 14.9 14.3h.2" fill="#F9F9FA"/><path d="M79.4 19.7h-1.1c-.3 0-.6-.2-.6-.5s.2-.6.5-.6h1.1c.3 0 .6.2.6.5 0 .4-.2.6-.5.6zm-5.6.2h-.6c-.2 0-.4-.1-.5-.3-.1-.2-.6-1.1-1.4-2.3-.2-.3-.1-.6.1-.8.3-.2.6-.1.8.1.6.9 1.1 1.7 1.3 2.1h.3c.3 0 .6.2.6.5s-.3.7-.6.7zm-53 1.4l-1.5.1c-.3 0-.6-.2-.6-.5s.2-.6.5-.6h.6c-.1-.3-.3-.6-.4-1-.1-.3 0-.6.3-.7.3-.1.6 0 .7.3.4 1 .7 1.7.7 1.7.1.2.1.4 0 .5 0 .1-.2.2-.3.2zm-1.9-6.1c-.3 0-.5-.2-.6-.5-.1-.4-.1-.8-.1-1.1 0-.3.2-.6.5-.6s.6.2.6.5c0 .4.1.7.1 1.1.1.3-.1.6-.5.6zM48 13c-.2 0-.4-.1-.5-.3-.1-.3-.3-.6-.5-1-.2-.3-.1-.6.2-.8.3-.2.6-.1.8.2.2.4.4.7.6 1 .1.3 0 .6-.2.8-.2 0-.3.1-.4.1zm17.9-2.1c-.1 0-.3 0-.4-.1-2.5-2.2-5-3.5-7.3-3.9-1.6-.2-3.1-.1-4.3.3-.3.1-.6 0-.7-.3-.1-.3 0-.6.3-.7 1.4-.5 3.1-.7 4.9-.4 2.6.4 5.2 1.8 7.9 4.1.2.2.3.6 0 .8-.1.1-.2.2-.4.2zM44.8 8.4c-.2 0-.3-.1-.4-.2-.7-.8-1.5-1.6-2.3-2.3-.2-.2-.3-.6-.1-.8.2-.2.6-.3.8-.1.9.7 1.7 1.5 2.4 2.4.2.2.2.6-.1.8 0 .1-.2.2-.3.2zM21.8 5c-.2 0-.3-.1-.4-.2-.2-.2-.2-.6.1-.8 1.7-1.4 4-2.4 6.8-2.9 2.2-.4 4.3-.4 6.3 0 .3.1.5.3.4.6-.1.3-.3.5-.6.4-1.9-.3-3.9-.3-5.9 0-2.7.5-4.8 1.4-6.3 2.7-.1.2-.3.2-.4.2z" fill="#D7D7DB"/><g><path d="M119.8 27l.2-.2s8.2-16.3-7.5-19.2C98.5 5 92.3 19.2 92.3 19.2S91 10.8 82.6 12c-8.3 1.2-15 14.2-15 14.2h-.2" fill="#F9F9FA"/><path d="M60.6 21.4c0-.3.3-.5.6-.5l1.1.1c.3 0 .5.3.5.6s-.3.5-.6.5l-1.1-.1c-.3 0-.5-.3-.5-.6zm5.5.3c0-.3.3-.5.6-.5h.3c.2-.4.7-1.1 1.3-2 .2-.3.5-.3.8-.1.3.2.3.5.1.8-.8 1.2-1.3 2-1.4 2.3-.1.2-.3.3-.5.3h-.6c-.3-.3-.6-.5-.6-.8zm53.2 2.1c-.1-.2-.1-.4 0-.5 0 0 .3-.6.7-1.7.1-.3.4-.4.7-.3.3.1.4.4.3.7-.1.4-.3.7-.4 1h.6c.3 0 .5.3.5.6s-.3.5-.6.5l-1.5-.1c-.1 0-.3-.1-.3-.2zm2.2-5.8c-.3-.1-.5-.3-.5-.6.1-.4.1-.7.1-1.1 0-.3.3-.5.6-.5s.5.3.5.6c0 .4-.1.8-.2 1.1.1.3-.1.5-.5.5.1 0 .1 0 0 0zm-29.2-2.6c-.3-.1-.4-.5-.2-.8.2-.3.3-.6.6-1 .2-.3.5-.3.8-.2.3.2.3.5.2.8-.2.4-.4.7-.5.9-.1.2-.3.3-.5.3-.2.1-.3.1-.4 0zm-18.1-2.3c-.2-.2-.2-.6.1-.8 2.7-2.3 5.3-3.7 7.9-4.1 1.8-.3 3.5-.1 4.9.4.3.1.4.4.3.7-.1.3-.4.4-.7.3-1.2-.5-2.7-.6-4.3-.4-2.4.3-4.8 1.6-7.4 3.8-.1.1-.3.1-.4.1-.1.1-.3.1-.4 0zm21.2-2.3c-.2-.2-.3-.6 0-.8.8-.9 1.6-1.7 2.5-2.4.2-.2.6-.2.8.1.2.2.2.6-.1.8-.8.7-1.6 1.4-2.3 2.3-.1.1-.3.2-.4.2-.3-.1-.4-.1-.5-.2zm23-3.2c-1.5-1.3-3.6-2.2-6.3-2.7-2-.4-4-.4-5.9-.1-.3 0-.6-.2-.6-.5-.1-.3.2-.6.5-.6 2-.3 4.1-.3 6.3.1 2.9.5 5.1 1.5 6.8 3 .2.2.3.6.1.8-.1.1-.3.2-.4.2-.3-.1-.4-.1-.5-.2z" fill="#D7D7DB"/></g></g><g transform="translate(159 16)" fill-rule="nonzero"><path d="M125.2 89.7c-.8-4.6-5-4.7-14.4-4.7-7.5 0-17.8-.1-23.3-2.4-9.6-4-17.5-13.4-17.6-13.6-.6-.7-1.4-1.2-2.3-1.5l-.6 1.2c2.7 2.8 5 5.7 7 8.6 3.3 2.9 7.6 6 12.2 7.9 6.1 2.5 16.8 2.6 24.5 2.6 8.4.1 10.8.1 11.1 1.9.3 1.7-2 3.5-6.5 6.6-2.2 1.6-5.9 4.2-6.1 5.1 0 3.4-5.1 9.2-12.9 10-2.6.3-4.8.3-6.5.3-3.2.1-5.2.1-7.6 1.4-.3.2-.8.3-1.3.4-.4 1.1-.9 2.4-1.5 3.8 1.9 0 3.4-.3 4.4-.9 1.6-.9 2.8-.9 6-1 1.8 0 4-.1 6.8-.3 8.4-.8 14.8-6.8 15.8-12 1-.9 3.3-2.6 4.8-3.7 5.2-3.4 8.6-5.8 8-9.7z" fill="#F9F9FA"/><path d="M34.7 63.9h0zM37.6 63.9h-.4.4zM42.2 67.5c.8-1.1 1.7-2.3 2.6-3.4-.9 1.2-1.8 2.3-2.6 3.4zM40.4 63.6H40c.1.1.2.1.4 0zM43.2 63.3c-.1 0-.3 0-.4.1.1-.1.3-.1.4-.1z" fill="#FFF"/><path d="M62.4 149.2c-.8-1-1.6-2-2.4-3.1-3.6 1-7.5 1.5-11.2 1.5-.8 0-1.6 0-2.4-.1.2.2.3.5.4.8v.1c0 .1.1.2.1.3v.2c.1.3.1.6 0 .9v1.2h1.5c3.2 0 6.6-.4 9.8-1.1.6.7 1.1 1.4 1.7 2.2.5-1.1 1.3-2.2 2.5-2.9z" fill="#F9F9FA"/><path d="M59.6 143.9c-.1 0-.3.1-.4.1.1 0 .3-.1.4-.1z" fill="#FFF"/><path d="M27.9 147c-.7-2.4-1.3-5.4-1.9-8.9-1.6-2.2-2.9-4.8-3.7-7.8-.9 0-1.9-.3-2.7-.8-1.9-1.1-2.9-3.2-2.7-5.4l-3.7-9.6c-.3-.8-.3-1.7 0-2.5-.8-3-1.3-7.3-.4-12.6 1.9-10.4 8.8-19.8 20.6-28.1.1-.4.3-.8.7-1.1l3.3-3c.4-.4 1-.6 1.5-.6.3 0 .6.1.9.2.2-.3.5-.7.7-1-2 .2-4 .3-5.9.3-14.8 0-23-6.5-23.3-18.3 0-2.7.3-5.5 1-8.4-2.9-2.4-4.8-5.3-5.7-8.5-.5-.9-1-1.9-1.3-2.9-2.4-7.5 1.8-15.5 9.3-17.9 1.4-.4 2.8-.7 4.3-.7 1.7 0 3.4.3 5 .9 2-.4 4-.6 6.1-.6h1.2c.6 0 1.2.1 1.8.1 3.3-2.2 6.7-3.9 10.1-4.9 3.7-1.1 7.5-1.7 11.3-1.7 7.4 0 14.8 2.3 20.9 6.4 13 2.2 22.3 11.2 22.3 21.6 0 10.2-8.8 18.9-21.5 21.4-2.1 1.6-4.5 3-7 4.4-1.6 2.9-3.1 5.8-4.4 8.6.7.5 1.4 1.3 1.7 2.4.3.9.4 1.8.4 2.4.1 0 .1.1.2.1 0 .1 2.6 3.2 6.7 6.6-2-2.9-4.3-5.8-7-8.6l.6-1.2c1.2-2.6 2.5-5.2 4-7.9 2.1-1.2 4.1-2.4 5.9-3.7 13.9-3 23.4-12.9 23.4-24.5 0-11.8-10.2-22.1-24.4-24.7C69.6 2.3 61.8 0 54 0c-4.1 0-8.3.6-12.3 1.9-3.4 1.1-6.7 2.6-10 4.7h-2.2c-1.9 0-3.9.2-5.8.5-1.7-.5-3.5-.8-5.3-.8-1.8 0-3.5.3-5.3.8-4.5 1.4-8.2 4.5-10.3 8.7C.6 20 .2 24.7 1.6 29.2c.3 1.1.8 2.1 1.3 3.2.9 3.1 2.6 5.9 5.1 8.4-.5 2.5-.7 4.9-.6 7.2.1 5.4 1.7 9.9 4.7 13.5.4.4.7.8 1.1 1.2.8.8 1.6 1.5 2.6 2.1 3.6 2.5 8.3 4.1 13.9 4.6-11.9 8.6-19 18.5-21 29.5-1 5.4-.5 9.9.2 13.2-.2 1.2-.1 2.5.4 3.7l3.4 9c0 3.1 1.6 6 4.3 7.7.6.4 1.2.6 1.8.9.8 2.3 1.9 4.4 3.1 6.2.7 4 1.4 7.4 2.2 9.9 1.3-1.2 2.4-2.1 3.8-2.5z" fill="#F9F9FA"/><circle fill="#FFF" transform="rotate(-26.565 9.428 30.382)" cx="8.978" cy="29.932" r="1"/><path d="M7.2 22.9c-.1 1.5 0 3.1.5 4.7-.5-1.6-.7-3.2-.5-4.7zM22.6 128h.4-.6.2zM25.1 131.3c.2.6.4 1.2.7 1.8-.3-.6-.5-1.2-.7-1.8-.1 0 0 0 0 0zM22.7 119.8v-.7l-1.4-1 1.4 1.7zM21.5 127.8c-.2-.1-.5-.2-.7-.3.2.2.5.3.7.3zM22.3 128c-.2 0-.5-.1-.7-.1.2 0 .5.1.7.1zM15.3 113v-.1.1zM15.3 113.3v-.1.1zM19.2 124.9v-.5c0 .2-.1.3 0 .5zM19.2 124.4v-.3.3zM50.5 145.3h-.1.1zM53.9 145h-.3.3zM28.5 138.9v-.1c-.1 0-.1 0 0 .1zM57 144.5c-.2 0-.3.1-.5.1.1 0 .3-.1.5-.1zM58.3 144.2c-.2 0-.3.1-.5.1.2 0 .4 0 .5-.1zM55.5 144.8c-.1 0-.3.1-.4.1.1-.1.3-.1.4-.1zM38.9 145.2c0 .1 0 .1 0 0 0 .1 0 .1 0 0zM48.8 145.4h.1-.2c.1-.1.1 0 .1 0zM41.5 144.6h-.2.2zM44 145h-.2.2zM95.7 31.4c0 1.8-.3 3.5-.9 5.1.6-1.6.9-3.3.9-5.1zM14.8 53.7c0-.1-.1-.2-.1-.3 0 .1 0 .2.1.3zM15.5 55.4c0-.1-.1-.2-.1-.3 0 .1.1.2.1.3zM16.3 56.7c-.1-.1-.1-.2-.1-.2 0 .1.1.2.1.2zM17.4 58.1c-.1-.1-.1-.2-.2-.2.1.1.2.1.2.2zM14.3 52c0-.1 0-.1-.1-.2 0 .1 0 .1.1.2zM14.4 41.2c0-.1.1-.3.1-.4 0 .1-.1.3-.1.4zM13.9 50.1v-.4.4zM13.8 45.9v-.5.5zM30.5 63.7h-.3.3zM18.5 59.2l-.1-.1s.1 0 .1.1zM28.6 63.5c-.1 0-.2 0-.4-.1.1 0 .3.1.4.1zM14.1 38l-.3-.3.3.3zM24.7 62.6c-.1 0-.2 0-.2-.1.1 0 .2 0 .2.1zM26.5 63.1c-.1 0-.2-.1-.3-.1.1 0 .2 0 .3.1zM19.9 60.3c-.1-.1-.2-.1-.3-.2.2.1.3.1.3.2zM23 61.9c-.1 0-.2-.1-.3-.1.1 0 .2.1.3.1zM8.3 29s0-.1-.1-.1c0 0 0 .1.1.1zM27.7 12.4c.4 0 .7-.1 1.1-.1-.3 0-.7 0-1.1.1zM18.1 11.9h.8-.8zM25.5 12.6h.2-.2zM30.3 12.2h-.7 1.8-1.1zM93.7 23.9c.2.4.5.9.7 1.4-.3-.5-.5-.9-.7-1.4zM89.5 18.7l.8.8c-.2-.3-.5-.6-.8-.8zM91.5 20.8c.5.5.9 1.1 1.3 1.7-.4-.6-.8-1.2-1.3-1.7zM10.6 34.1c-.1-.2-.2-.4-.3-.5.1.2.2.4.3.5zM9.3 31.6c-.1-.2-.2-.5-.2-.7.1.2.1.4.2.7zM12.9 37l-.3-.3.3.3zM17 12.1c.2 0 .5-.1.7-.1-.2 0-.5.1-.7.1zM11.9 35.9s0-.1 0 0c0-.1 0 0 0 0zM9.9 32.9l-.3-.6.3.6zM32.8 63.9h-.4.4zM11.4 14.7c.6-.5 1.2-1 1.9-1.3-.7.4-1.3.8-1.9 1.3zM15.6 12.4c.4-.1.7-.2 1.1-.3-.4.1-.8.2-1.1.3zM81.2 139.8h-1.1 1.1zM72.5 139.6c-.2 0-.4 0-.6-.1.2 0 .4 0 .6.1zM82.7 139.7c-.3 0-.6 0-1 .1.4-.1.7-.1 1-.1zM84.3 139.6c-.3 0-.6.1-1 .1.3-.1.6-.1 1-.1zM76.3 139.8h-.5.5zM74.4 139.7h-.6.6zM78.2 139.9h1.5-1.5zM92 138.5c-.3.1-.6.1-.9.2.3-.1.6-.1.9-.2zM90.6 138.8c-.3.1-.6.1-.9.1.3 0 .6-.1.9-.1zM85.9 139.4c-.3 0-.7.1-1 .1.3 0 .6 0 1-.1zM93.4 138.2c-.3.1-.6.1-.9.2.3-.1.6-.1.9-.2zM89.2 139c-.4.1-.8.1-1.1.2.3-.1.7-.2 1.1-.2zM87.7 139.2c-.5.1-1 .1-1.4.2.5-.1 1-.1 1.4-.2zM69.2 121.2c-.3-.1-.5-.1-.8-.2l-1.3.8c.3.2.6.3.8.5l.6.3.7-1.4zM23.3 107.4v-.1.1zM23.2 105.3v-.1.1zM23.2 106.4v-.1.1zM71.5 141.8c.9 1.7 1.7 3.3 2.2 4.7-.5-1.4-1.3-3-2.2-4.7zM65.9 150c-1.8-2.3-3.6-4.6-5.1-6.4 1.5 1.8 3.2 4.1 5.1 6.4zM95 137.9l-1.2.3c.4-.2.8-.2 1.2-.3zM65 117.8c-.8.4-1.5.5-2.4.7.8.6 1 .9 1.9 1.5l1.3-.8c-.2-.2-.3-.4-.4-.6-.2-.2-.3-.4-.4-.8zM19.2 125c.1 1 .7 1.9 1.6 2.5-.9-.5-1.5-1.5-1.6-2.5zM38.9 144.1c0-.1 0-.1 0 0 0-.1 0-.1 0 0zM22.4 121.2l-2-2.5 1 2.7c.3-.2.6-.2 1-.2zM25.9 133.3c.7 1.4 1.4 2.7 2.3 3.9 0 .2.1.4.1.6 0-.2-.1-.4-.1-.6-.9-1.2-1.7-2.5-2.3-3.9zM96.3 137.5l-1.2.3c.5-.1.9-.2 1.2-.3zM105.8 134c-.2.1-.3.2-.5.3.2-.1.4-.2.5-.3zM106.2 133.7c-.1.1-.2.2-.3.2.1 0 .2-.1.3-.2zM105.2 134.4c-.1.1-.3.2-.4.2.1 0 .2-.1.4-.2zM106.6 133.5l-.2.2c0-.1.1-.2.2-.2zM104.5 134.8c-.1.1-.3.1-.4.2.1-.1.2-.2.4-.2zM106.8 133.2c0 .1-.1.1-.1.2 0-.1.1-.2.1-.2zM106.9 132.9c0 .1 0 .1-.1.2.1-.1.1-.1.1-.2zM103.8 135.1c-.2.1-.3.1-.5.2.1 0 .3-.1.5-.2zM106.9 132.6v0zM95.8 130.5h.2-.2zM98.7 136.9c-.2.1-.5.1-.7.2.2-.1.5-.1.7-.2zM97.5 137.2c-.3.1-.5.1-.8.2.3 0 .6-.1.8-.2zM99.8 136.6c-.2.1-.5.1-.7.2.3-.1.5-.2.7-.2zM101 136.2c-.3.1-.5.2-.8.3.2-.1.5-.2.8-.3zM102.1 135.8l-.9.3.9-.3zM103 135.4c-.2.1-.4.2-.6.2.2 0 .4-.1.6-.2zM59.3 111.8h-.1.3-.2zM58.4 111.9h.2-.2zM57.6 112.2c-.1.1-.2.2-.3.2.1 0 .2-.1.3-.2zM74.2 116.6v0zM61 112.2c.1 0 .1.1.2.1-.1 0-.2 0-.2-.1zM65.4 114l.1-.1-.1.1zM61.6 112.8l.2.2c0-.1-.1-.2-.2-.2zM62.7 115.2c.7-.2 1.5-.4 2.3-.5-.8.1-1.5.3-2.3.5 0-.5-.1-1.1-.4-1.6.3.5.4 1 .4 1.6zM60.1 111.9h0zM64.3 111.8c.1-.1.1-.2.2-.3l-1.2-.3c.3.3.5.6.7.9l.3-.3z" fill="#FFF"/><path d="M79.1 113.9c-.5 0-1 0-1.5-.1-.3.9-.8 1.9-1.2 2.9 0 .4-.1.9-.3 1.3l-1.9 4.4c0 .1 0 .2-.1.3 0 .1 0 .1-.1.2.4.2.8.3 1.1.5 10.3 4.3 18.9 4.8 24.5 5.2 4.9.3 8.1.5 9.2 3.2.3.9.2 1.8-.3 2.7-2.3 3.4-17.1 7.7-30.4 7.7-1.4 0-2.8 0-4.1-.1.6 1.1 1 2.1 1.4 3 .1 0 .1 0 .2-.1.6-.1 3.7-.3 5.5.4 7.3-.3 13.6-1.7 16.9-2.6 10.5-2.8 12.4-5.5 13-6.5 1.2-1.8 1.4-3.9.7-5.8-1.9-4.7-6.8-5-12.1-5.3-5.1-.3-12.6-.8-21.5-4.1l.7-1.7c.2-.6.4-1.1.5-1.7 0-.1 0-.1.1-.2.6-1.3 1.1-2.6 1.5-3.8-.5.2-1.1.2-1.8.2z" fill="#F9F9FA"/><path d="M56.8 110.8c.1.3.1.5.2.8 0-.3-.1-.5-.2-.8zM66.7 112c-.3.6-.6 1-.7 1.2.1-.2.4-.6.7-1.2z" fill="#FFF"/><path d="M58.4 107.7c2.3.6 4.7 1.2 7 1.8 1.7-4.3 3.2-13.6-7-26-1.7 7.8-1.7 15.9 0 24.2z" fill="url(#a)"/><path d="M81.2 111.4c2.9-1.6 5.3-1.6 8.6-1.7 1.8 0 3.8-.1 6.3-.3 6.8-.7 10.9-5.8 10.9-7.8 0-.4.1-.7.3-1.1-1.7.2-3.2.2-4.6.2-6.7 0-10.6-1.5-10.8-1.6-.3-.1-.4-.4-.3-.7.1-.3.4-.4.7-.3.1 0 6 2.4 15.9 1.2 1.2-1.2 3.1-2.7 5.8-4.6 1.8-1.3 4.4-3.1 5.3-4.2-1.5-.3-5.2-.3-8.6-.3-8-.1-18.9-.1-25.4-2.8C78.5 84.6 72.6 79.5 69 76c11 13.8 11.5 25.8 9.7 33.9 0 0-.2.7-.5 1.8 1.5.1 2.5 0 3-.3z" fill="url(#b)"/><path d="M28.3 16.1c1.8-1.9 3-3.1 3.9-3.7-.2 0-.5 0-.7-.1H29c-.4 0-.7 0-1.1.1-.7.1-1.4.1-2.1.2h-.2l-1.5.3c1.5.7 3 1.8 4.2 3.2z" fill="url(#c)"/><path d="M60.1 146.8s-4.3 5.9-3.1 9c1.2 3.1 9.3 12.9 9.3 12.9s-1.2 8.1-.8 9.6c.4 1.5 4.2 5.8 12.7 2.5s8.8-8.3 8.9-12.3c0-1.6.3-4.2.1-7.8 0-.3 3.5-4.3 1.7-11.3-.8-3.1-2.5-4.3-2.8-4.3-1.1 0-.4 0-.7-.6-1.1-2.2-25.3 2.3-25.3 2.3z" fill="#F9F9FA"/><path d="M8.9 30.2c.1.2.1.4.2.7.1.2.1.5.2.7.1.2.2.5.3.7l.3.6c.1.2.2.5.4.7.1.2.2.4.3.5.4.6.8 1.2 1.2 1.7.2.3.5.5.7.8l.3.3c.3.3.5.5.8.7l.3.3s.1 0 .1.1c.4-1 .8-1.9 1.3-2.7-2.6-.8-4.9-2.6-6.4-5.1z" fill="url(#d)"/><path d="M16.6 30.2c-.3.5-1 .7-1.5.3-.5-.3-.7-1-.3-1.5.1-.1 1.8-2.7 5.1-2.7h.4c-.6-.2-1.1-.8-1.1-1.5l.1-3.5c0-.9.7-1.5 1.6-1.5.9 0 1.5.7 1.5 1.6l-.1 2.4c.9-1.3 1.9-2.5 2.9-3.7-.1-.2-.2-.5 0-.7 1.1-1.4 2.1-2.5 3-3.4-1.2-1.4-2.7-2.4-4.3-3.2-1.5-.7-3.1-1-4.8-1h-1.5c-.2 0-.5.1-.7.1-.1 0-.2 0-.3.1-.4.1-.7.2-1.1.3-.8.2-1.5.6-2.2 1-.7.4-1.4.8-1.9 1.3-1.5 1.3-2.6 2.9-3.4 4.7-.4 1.1-.7 2.3-.8 3.5-.1 1.5 0 3.1.5 4.7.1.5.3.9.5 1.3 0 0 0 .1.1.1l.6 1.2c1.5 2.5 3.8 4.3 6.5 5.2.7-1.3 1.4-2.2 1.4-2.3.1-.1.2-.2.3-.2.6-1.4 1.4-2.9 2.2-4.3-1.7.3-2.6 1.6-2.7 1.7z" fill="#F9F9FA"/><path d="M20.9 19.8c-.9 0-1.6.7-1.6 1.5l-.1 3.5c0 .7.4 1.3 1.1 1.5h-.4c-3.4 0-5 2.5-5.1 2.7-.3.5-.2 1.2.3 1.5.5.3 1.2.2 1.5-.3 0 0 .9-1.3 2.6-1.6.9-1.6 1.9-3.2 3.1-4.7l.1-2.4c0-.9-.6-1.6-1.5-1.7z" fill="url(#e)"/><path d="M77.5 13.6c2.2 0 4.2.6 6 1.6-1.1-.8-2-1.3-2.6-1.6-1.9-.7-3.9-1.2-6-1.6.8.9 1.6 1.6 2.6 1.6z" fill="url(#f)"/><path fill="url(#g)" d="M19.1 113.1v-.1l-.1.1"/><path d="M68 122.3c.2.1.4.2.6.4-.2-.2-.4-.3-.6-.4z" fill="url(#h)"/><path d="M46.2 67.8c.6 0 1.3 0 2-.1 6.3-.4 13.8-2.8 13.9-2.9.2-.1.5-.1.7-.1h.3c1.3-2.7 2.6-5.2 3.8-7.5-3.4 1.7-10.3 4.6-22 6.8-.9 1.1-1.7 2.2-2.6 3.4.9.3 2.2.4 3.9.4z" fill="url(#i)"/><path d="M24.7 143.9s-4.7 5.6-3.8 8.8c.9 3.2 8.4 13.7 8.4 13.7s-1.8 8.1-1.5 9.6c.3 1.5 3.8 6.1 12.6 3.5 8.8-2.6 8.9-6.7 9.3-10.7.4-4 1-16.3.7-18.8-.3-2.5-25.7-6.1-25.7-6.1z" fill="#F9F9FA"/><path d="M69.7 127.3c.1-.2.1-.5.3-.8l-.3.6v.2z" fill="url(#j)"/><path d="M65.9 150c.8.3 2.4.4 5.3-.3 1.7-.4 2.7-.9 3.3-1.3l-.6-1.8c-.6-1.4-1.3-3.1-2.2-4.8-2.1-3.4-3.7-6.1-3.7-6.1-.2-.3-.1-.6.2-.8.3-.2.6-.1.8.2 0 0 1.1 1.8 2.6 4.3.2 0 .4.1.6.1.2 0 .4 0 .6.1.4 0 .9.1 1.3.1h.6c.4 0 .9.1 1.4.1h6c.3 0 .6 0 1-.1h.6c.3 0 .6-.1 1-.1h.5c.4 0 .7-.1 1-.1h.4c.5-.1 1-.1 1.4-.2h.3c.4-.1.8-.1 1.1-.2.2 0 .3-.1.5-.1.3 0 .6-.1.9-.1.2 0 .4-.1.5-.1.3-.1.6-.1.9-.2.2 0 .3-.1.5-.1.3-.1.6-.1.9-.2.1 0 .3-.1.4-.1l1.2-.3h.1l1.2-.3c.1 0 .3-.1.4-.1.3-.1.5-.1.8-.2.2 0 .3-.1.4-.1.2-.1.5-.1.7-.2.1 0 .3-.1.4-.1.2-.1.5-.1.7-.2.1 0 .3-.1.4-.1.3-.1.5-.2.8-.3.1 0 .1 0 .2-.1l.9-.3c.1 0 .2-.1.2-.1.2-.1.4-.2.6-.2.1 0 .2-.1.3-.1.2-.1.3-.1.5-.2.1 0 .2-.1.3-.1.2-.1.3-.1.4-.2.1 0 .2-.1.2-.1.2-.1.3-.2.4-.2.1 0 .1-.1.2-.1.2-.1.4-.2.5-.3 0 0 .1 0 .1-.1.1-.1.2-.2.3-.2l.1-.1.2-.2.1-.1c0-.1.1-.1.1-.2 0 0 0-.1.1-.1 0-.1 0-.1.1-.2v-.1-.2c-.7-1.8-4.7-1.6-10.9-2.1h-.2c-5.6-.5-12.9-1.5-21.4-5.1-.4-.2-.8-.3-1.2-.5-.7 1.6-1.3 3.1-1.3 3.5-.1 1-1.2 2.7-2.7 3.6-.8.5-1.6.7-2.5.7-.5 0-1-.1-1.5-.3-.5-.2-.8-.8-.7-1.3-1.6-.8-2.2-2.3-2.3-3.2 0-.3.2-.6.5-.6h.1c.1-1.1.7-2.2 1.8-2.8 1-.5 2.1-.5 3-.1l.4-.9-.1-.1c-.4-.2-.7-.4-1.1-.6l-.4-.2-.5-.3-1.7 1c-.3 1.3-1.3 3.4-3.5 3.5h-.2c-3 0-3.8-1.9-4.2-3.3-.1-.3.1-.6.4-.7h.1c0-.4 0-.8.1-1.2.5-1.8 2.5-2.9 4.3-2.3.8.2 1.4.7 1.9 1.4l.2-.1c-.3-.3-.6-.5-.8-.7-.2-.2-.4-.4-.7-.6l-.9-.7c-.9.2-1.8.3-2.6.3-.5 0-.9-.1-1.2-.2-2.3-.9-2.3-3.8-2.3-3.9 0-.3.3-.5.6-.6.2 0 .3.1.4.2.1-.9.6-1.7 1.4-2.2-.1-.3-.2-.6-.2-.9-.1-.3-.1-.5-.2-.8-.1-.4-.2-.9-.3-1.3 0-.2-.1-.4-.1-.6-.1-.6-.3-1.2-.4-1.8v-.1c-1.5-8.1-1.7-17.2 1-26.8-.9-1.2-1.5-1.9-2-2.4-2 .4-4.1.6-6.5.6h-.2c-1.3 3.8-2 7.3-2.3 10.5l2.3.1c.4 0 .8.3 1 .7.2.4 0 .9-.3 1.2l-3.1 2.9c.3 6.4 2.1 11.8 3.5 16 .4 1.2.8 2.4 1.1 3.4 2.8 9.4 2.6 17.3-.4 22.2-1.7 2.7-4.1 4.4-7.1 4.9-.4.1-.9.1-1.4.1-2.3 0-4.8-1-7-2.7-2.8-2.3-7.7-7.9-8.2-20.8C26 108.9 28 101 30.6 94c-.4-.1-.7-.3-.8-.6-.2-.3-.1-.7.1-1.1l6.2-10.2c1.1-2.1 2.2-3.9 3.1-5.3-2.9-1-4.3-2.4-5-3.3-4.3 3.1-8 6.3-10.9 9.7 0 0 0 .1-.1.2 1.2-1.4 2-2.2 2.1-2.3.3-.3.7-.3 1 0 .3.3.3.7 0 1 0 0-2.8 2.8-5.2 6.6-1.3 3.7-2.7 8.5-2.6 12.2.1 4.7 1.3 7.8 2.1 9.3.9.3 1.9.5 2.9.8-.1.8-.3 1.8-.3 2.9-.5-.1-1-.3-1.4-.4.5.3.9.6 1.4.8.2-1.5.4-2.5.4-2.7.1-.3.3-.5.6-.5.3.1.5.3.5.6 0 .1-2 11.3.5 19.2.2.6.5 1.2.7 1.8 0 .1.1.1.1.2.7 1.4 1.4 2.7 2.3 3.9 0 .2.1.4.1.6.1.3.1.6.2 1v.1c.6 3.6 1.4 7.2 2.3 9.8.8.4 2.2.6 4.7.5 2-.1 3-.5 3.6-.8 0-1 0-2-.1-3v-.1c-4.5-1.2-6.1-2.9-6.2-3-.2-.2-.2-.6 0-.8.2-.2.6-.2.8 0 0 0 1.5 1.5 5.4 2.6v-.1l2.4.6h.2c.8.2 1.6.3 2.4.4h.2c1.6.2 3.2.3 4.7.3h1.7c1.1 0 2.1-.1 3.1-.3h.3c.4 0 .8-.1 1.1-.2.1 0 .3 0 .4-.1.3-.1.6-.1 1-.2.2 0 .3-.1.5-.1.3-.1.6-.1.9-.2.2 0 .3-.1.5-.1.3-.1.6-.1.9-.2.1 0 .3-.1.4-.1l1.2-.3c1.3 2.3 3 4.6 4.9 6.9zm8-22.2c.1-.2.3-.4.5-.5.4-.1.8.1 1.2.3 4.8 2.9 14 4.5 27.2 4.6.1 0 .6 0 .8.4.1.2.1.5-.1.8-.5.7-8.8 1.8-15.3 1.8-2 0-3.8-.1-5.2-.3-5.8-1-8-3.7-8.6-4.9-.6-.8-.7-1.6-.5-2.2zm-49.7-17.2c0 .3-.3.5-.6.5s-.5-.3-.5-.6c0-.9.1-1.8.3-2.7 0-.2-.1-.3-.1-.5v-.1c0-.3-.1-.6-.1-.9v-.1-1-.1-1.1-.1c.2-3.2 1.2-7.3 4.2-11.8l.1-.1c.3-.5.7-1 1-1.5.8-2 1.5-3.3 1.5-3.5.1-.3.5-.4.7-.3.3.1.4.5.3.7-.1.4-6.3 13.7-6.8 23.2z" fill="url(#k)"/><path d="M37.2 63.9h.4c.8 0 1.6-.1 2.4-.2h.4l2.4-.3c.1 0 .3 0 .4-.1.5-.1 1-.2 1.5-.2 13.5-2.6 20.6-6 23.1-7.5.1-.1.2-.1.4-.2.5-.3.7-.4.7-.5.1-.1.2-.1.3-.1 1.7-1 3.4-2 4.9-3.1-4.2-.1-7.5-1.9-7.7-2-.3-.1-.4-.5-.2-.8.1-.3.5-.4.8-.2 0 0 4.6 2.4 9.5 1.7 1.1-.2 2.2-.5 3.2-.8 6.7-2.1 12-6.3 14.5-11.6.2-.5.5-1.1.7-1.6.6-1.6.9-3.3.9-5.1 0-2.2-.5-4.2-1.3-6.2-.2-.5-.4-.9-.7-1.4l-.9-1.5c-.4-.6-.8-1.1-1.3-1.7-.4-.4-.8-.9-1.2-1.3l-.8-.8c.9 1.6 1.5 3.4 1.7 5.6.9 1.4 1.6 2.9 1.8 4.6 1.4 7.8-5.3 15.4-14.8 17.1-3.2.6-6.3.4-9-.4-6.2 3.4-14.2 5.7-22.1 6.6-16.5 1.9-29.8-1.4-28.8-13.1.8-8.9 9.4-22.1 19.5-29.1-.5.3-1.1.6-1.6.9-.8.5-1.6 1-2.4 1.6 0 0-2.4 1.2-7.7 7.7-.1.1-.3.2-.4.2-.1 0-.2 0-.4-.1l-.1-.1c-1 1.2-2 2.4-2.9 3.7-1.1 1.5-2.1 3.1-3.1 4.7-.8 1.4-1.5 2.8-2.2 4.3.2 0 .3 0 .5.1.3.2.3.5.1.8 0 0-2.2 3.2-3 6.3-.1.3-.1.6-.2.8 0 .1-.1.3-.1.4-.1.7-.3 1.4-.4 2.1-.1.7-.2 1.4-.2 2v.5c0 .7-.1 1.3 0 2 0 .6.1 1.2.1 1.8v.4c.1.6.2 1.1.3 1.7 0 .1 0 .1.1.2.1.5.3.9.4 1.4 0 .1.1.2.1.3.2.5.4.9.6 1.4 0 .1.1.2.1.3.2.4.4.8.7 1.1 0 .1.1.2.1.2.3.4.6.8.9 1.1.1.1.1.2.2.2l.9.9.1.1 1.2.9c.1.1.2.1.3.2.4.3.8.5 1.3.8h.1c.4.2.9.4 1.3.7.1 0 .2.1.3.1l1.5.6c.1 0 .2.1.2.1.5.1.9.3 1.4.4.1 0 .2.1.3.1.6.1 1.1.2 1.7.3.1 0 .2 0 .4.1.5.1 1.1.2 1.6.2h.3c.6.1 1.2.1 1.9.1h2.4c1 .6 1.8.6 2.6.6z" fill="url(#l)"/><path d="M68.1 113.9c1.7-2.1 3.7-5.6 4.9-11.1 1.6-7-3-17.6-6.6-24.5-1-1.3-2-2.5-2.8-3.4-1.7.9-4.2 1.9-7.3 2.6.4.5.9 1.1 1.5 1.8 14.4 15.6 11.4 27.5 9.3 32-.1.3-.2.5-.4.7-.3.6-.6 1-.7 1.2-.2.2-.3.4-.5.6l-.1.1c-.1.2-.3.4-.4.7 1.1-.2 2.1-.4 3.1-.7z" fill="url(#m)"/><path d="M76.4 110.7c.2-.8.3-1.3.3-1.3 1.2-5.5.8-10.8-.6-15.7 1.7 6.5 1.4 12.4.3 17z" fill="url(#n)"/><path d="M30.7 86.9c-.3-.1-.6 0-.7.3-.1.2-.7 1.5-1.5 3.5-.4.5-.7 1-1 1.5l-.1.1c-3 4.5-4 8.6-4.2 11.8V106.5c0 .3.1.6.1.9v.1c0 .2 0 .3.1.5l-.3 2.7c0 .3.2.6.5.6s.5-.2.6-.5c.4-9.5 6.7-22.8 6.7-23 .2-.4.1-.8-.2-.9z" fill="url(#o)"/><path d="M32.7 105.7c-.2 0-.4-.1-.6-.2-.4-.3-.6-.8-.4-1.3l3.6-9.5-4.5-.6c-2.6 6.9-4.5 14.9-4.2 22.8.6 12.8 5.4 18.5 8.2 20.8 2.2 1.7 4.7 2.7 7 2.7.5 0 .9 0 1.4-.1 3-.5 5.4-2.2 7.1-4.9 3-4.9 3.2-12.8.4-22.2-.3-1-.7-2.2-1.1-3.4-1.4-4.2-3.2-9.5-3.5-16l-12.5 11.6c-.4.2-.7.3-.9.3zM36.2 82.1c.2-.3.6-.6 1-.5l7.8.4c.4 0 .8.3 1 .6.2.4.1.8-.1 1.2l-3.9 5 4.1.2c.3-3.3 1-6.8 2.3-10.5-1.1 0-2.1-.1-3.2-.2-2.5-.2-4.5-.7-6-1.2-.9 1.4-1.9 3.2-3.1 5.3l.1-.3zM82.9 134.9c1.4.2 3.2.3 5.2.3 6.5 0 14.8-1.1 15.3-1.8.2-.2.2-.5.1-.8-.2-.4-.6-.4-.8-.4-13.2-.1-22.3-1.7-27.2-4.6-.5-.3-.8-.5-1.2-.3-.2.1-.4.3-.5.5-.2.5 0 1.3.4 2.2.7 1.1 2.9 3.9 8.7 4.9zM69.5 120.6h-.4l-1.9 1.2 1.3-.8c.2.1.5.2.8.2l-.6 1.4.8-2zM65.4 118.7c.1.2.2.4.4.6h.1c-.2-.3-.4-.4-.5-.6z" fill="#F9F9FA"/><path d="M57.3 112.5c-.8.5-1.2 1.4-1.4 2.2.1.1.1.2.1.3 0 0 0 2.2 1.6 2.8 1.2.5 5.3-.7 7.5-1.5h.3l.2-.1.4 1.2c.1.4.3.6.6 1l.9 1-1.1.7-1.4.9-.6.4-.6-.4c-.1-.1-.3-.2-.4-.3l-.2.1c-.4-.6-1.1-1.1-1.9-1.4-1.8-.5-3.8.5-4.3 2.3-.1.4-.1.8-.1 1.2.3 0 .5.1.6.4.4 1.5 1.1 2.5 3.3 2.5 2-.1 2.5-2.8 2.5-2.8 0-.2.1-.3.3-.4l4.5-2.8c.1 0 .1-.1.2-.1l.2-.1.3-.2h.6l1.9-.2-.8 1.8-.9 2.1-.5 1.1-1-.5-.4.9c-.9-.4-2.1-.4-3 .1-1.1.6-1.7 1.6-1.8 2.8.2 0 .5.2.5.5 0 .1.3 1.9 2.1 2.5h.5c.3.1.5.1.8.1h.3c.3-.1.6-.2.9-.4.6-.4 1-.9 1.3-1.3.3-.5.4-1 .4-1.1 0-.1 0-.3.1-.4v-.2l.3-.6c.4-1 1-2.3 1.4-3.1l2.7-6.2c0-.1.1-.2.1-.3v-.2-.3c1.1-2 1.8-4.2 2.2-5.6 1.1-4.7 1.4-10.5-.2-17-2.2-7.6-6.7-14.2-11.3-19.4-.3.2-.7.4-1.2.6.9 1 1.8 2.2 2.8 3.4 3.6 6.8 8.2 17.5 6.6 24.5-1.2 5.4-3.2 8.9-4.9 11.1-1 .2-2 .5-3 .7-.8.2-1.6.4-2.3.5 0-.5-.1-1.1-.4-1.6-.1-.3-.3-.5-.5-.7l-.2-.2c-.2-.1-.3-.3-.5-.4-.1 0-.1-.1-.2-.1-.2-.1-.5-.2-.7-.3h-.1c-.2-.1-.4-.1-.7-.1h-.3c-.2 0-.4 0-.5.1h-.2c-.3.1-.5.2-.7.3-.5 0-.6.1-.7.2zM64.4 123.5l1.7-1-1.7 1zM18.4 39.1c-1.1 11.7 12.3 15 28.8 13.1 7.9-.9 15.9-3.2 22.1-6.6 2.8.8 5.8 1 9 .4 9.5-1.7 16.1-9.3 14.8-17.1-.3-1.7-.9-3.2-1.8-4.6.2 2.6-.3 5.5-2 8.7-.1.2-.2.3-.4.4-2 4.2-6.7 7-12 6.6-4.3-.4-7.9-2.8-9.8-6.2-2.6-3.7-1.8-7.3-1.7-7.5.1-.3.4-.5.7-.4.3.1.5.4.4.7 0 .1-.4 1.5.1 3.5 1.7 4.1 5.3 7 10.3 7.2.1-.1.2-.1.4-.1.4 0 10.5-.3 11.6-9.9.7-6.3-2.5-10-5.2-12-1.8-1-3.8-1.6-6-1.6-1 0-1.8-.7-2.6-1.5h-.2c-5.5-3.8-12.5-6.3-20.1-6.3-3.4 0-7 .5-10.6 1.6-2.1.6-4.1 1.5-6.1 2.6-10.3 6.9-18.9 20-19.7 29zM60 42c-.1 0-.2.1-.2.1-.2 0-.4-.1-.5-.3-2.6-5.6-.5-10.6-.4-10.8.1-.3.4-.4.7-.3.3.1.4.5.3.7 0 0-2 4.7.4 9.9.1.2 0 .6-.3.7zm25.3-12.3c.3.5.2 1.2-.3 1.5-.2.1-.4.2-.6.2-.4 0-.7-.2-.9-.5 0-.1-1.1-1.6-3.2-1.6s-3.2 1.6-3.2 1.6c-.3.5-1 .7-1.5.3-.5-.3-.7-1-.3-1.5.1-.1 1.8-2.7 5.1-2.7 3.2.1 4.9 2.6 4.9 2.7zm-17.2-.9h-.2c-.2 0-.5-.1-.5-.4l-.1-.3c-.1-.3.1-.6.4-.7.3-.1.6.1.7.4l.1.3c.1.3-.1.6-.4.7zm5.6 6.2h-.1c-.1 0-2.9-.6-5.1-4.3-.2-.3-.1-.6.2-.8.3-.2.6-.1.8.2 2 3.3 4.4 3.8 4.4 3.8.3.1.5.3.4.6-.1.4-.3.5-.6.5zm8.1-12.2l-.1 3.5v.3c-.4-.1-.9-.2-1.4-.2-.6 0-1.1.1-1.6.2 0-.1-.1-.3 0-.4l.1-3.5c0-.9.7-1.5 1.6-1.5.7 0 1.4.7 1.4 1.6zM72.7 14c.1.3 0 .6-.3.7 0 0-2.4.9-3.6 3.3-.1.2-.3.3-.5.3-.1 0-.2 0-.2-.1-.3-.1-.4-.5-.2-.7 1.4-2.8 4.1-3.8 4.2-3.9.2-.1.5.1.6.4zM23.4 111.2c-1-.3-2-.6-2.9-.8-.8-1.5-2-4.7-2.1-9.3-.1-3.7 1.3-8.5 2.6-12.2 2.4-3.8 5.2-6.6 5.2-6.6.3-.3.3-.7 0-1-.3-.3-.7-.3-1 0-.1.1-1 .9-2.1 2.3.1-.1.1-.2.1-.2-4.4 5.1-7.1 10.6-8.2 16.4-1 5.3-.2 9.7.6 12.4-.1.1-.1.2-.2.3v.1c0 .1-.1.1-.1.2v.4c0 .1 0 .2.1.3l3.9 10.1v1.3c.1 1 .7 1.9 1.6 2.5.2.1.5.2.7.3h.1c.2.1.5.1.7.1H23.3c-.4-2.2-.5-4.5-.5-6.6-.1 0-.2-.1-.2-.2l-.1-.1c-.3 0-.7.1-1 .2l-1-2.7-1-1.2c-.2-.2-.2-.6.1-.8.2-.2.6-.2.8.1l1.1 1.3 1.4 1c.1-1.2.1-2.3.2-3.3-1.6-.9-3.3-2-3.6-2.1-.3-.1-.4-.4-.3-.6v-.1c.1-.3.4-.4.7-.3.2.1 1 .5 1.9 1.1.4.1.9.3 1.4.4-.1-.9 0-1.9.2-2.7z" fill="#F9F9FA"/><path d="M64.4 121.4l.6-.4 1.4-.9 1.1-.7-.9-1c-.4-.4-.5-.6-.6-1l-.4-1.2-.2.1h-.3c-2.2.8-6.3 2-7.5 1.5-1.6-.6-1.6-2.8-1.6-2.8 0-.1-.1-.3-.1-.3-.1-.1-.2-.2-.4-.2-.3 0-.6.2-.6.6 0 .1 0 3 2.3 3.9.3.1.7.2 1.2.2.8 0 1.7-.1 2.6-.3l.9.7c.3.2.5.4.7.6.2.2.5.4.8.7.1.1.2.2.4.3l.6.2zm1.4-2.1l-1.3.8c-.9-.6-1.1-.9-1.9-1.5.9-.2 1.6-.3 2.4-.7.1.4.2.6.4.9.1.1.3.2.4.5z" fill="url(#p)"/><path d="M69.6 123.1l.9-2.1.8-1.8-1.9.2h-.6l-.3.2-.2.1c-.1 0-.1 0-.2.1l-4.5 2.8c-.1.1-.2.2-.3.4 0 0-.4 2.8-2.5 2.8-2.2 0-2.9-1-3.3-2.5-.1-.3-.3-.4-.6-.4h-.1c-.3.1-.5.4-.4.7.4 1.4 1.3 3.3 4.2 3.3h.2c2.2-.1 3.2-2.2 3.5-3.5l1.6-1 .5.3.4.2c.4.2.7.4 1.1.6l.1.1 1 .5.6-1zm-1-.4c-.2-.1-.4-.2-.6-.4-.3-.2-.6-.3-.8-.5l1.9-1.2h.4l-.9 2.1z" fill="url(#q)"/><path d="M78.7 22.7l-.1 3.5v.4c.5-.1 1-.2 1.6-.2.5 0 .9.1 1.4.2v-.3l.1-3.5c0-.9-.7-1.6-1.5-1.6-.8-.1-1.5.6-1.5 1.5z" fill="url(#r)"/><path d="M80.2 27.1c-3.4 0-5 2.5-5.1 2.7-.3.5-.2 1.2.3 1.5.5.3 1.2.2 1.5-.3 0 0 1.1-1.6 3.2-1.6s3.2 1.6 3.2 1.6c.2.3.6.5.9.5.2 0 .4-.1.6-.2.5-.3.7-1 .3-1.5.2-.2-1.5-2.7-4.9-2.7z" fill="url(#s)"/><path d="M67.8 17.5c-.1.3 0 .6.2.7.1 0 .2.1.2.1.2 0 .4-.1.5-.3 1.2-2.4 3.6-3.3 3.6-3.3.3-.1.4-.4.3-.7-.1-.3-.4-.4-.7-.3 0 0-2.7 1-4.1 3.8z" fill="url(#t)"/><path d="M59.9 31.3c.1-.3 0-.6-.3-.7-.3-.1-.6 0-.7.3-.1.2-2.2 5.2.4 10.8.1.2.3.3.5.3.1 0 .2 0 .2-.1.3-.1.4-.5.3-.7-2.4-5.1-.4-9.8-.4-9.9z" fill="url(#u)"/><path d="M73.8 33.9s-2.4-.5-4.4-3.8c-.2-.3-.5-.3-.8-.2-.3.2-.4.5-.2.8 2.3 3.8 5 4.3 5.1 4.3h.1c.3 0 .5-.2.5-.5.2-.2 0-.5-.3-.6z" fill="url(#v)"/><path d="M68.5 28.1l-.1-.3c-.1-.3-.4-.4-.7-.4-.3.1-.4.4-.4.7l.1.3c.1.2.3.4.5.4h.2c.3-.1.5-.4.4-.7z" fill="url(#w)"/><path d="M65 71.5s0-1.4-.4-2.6c0-.2-.1-.3-.2-.4-1.4.6-6.2 2.4-15.4 3.3-6.1.6-9.9-.8-11.5-1.6l-1.9 1.7s1.1 3.3 9.7 4.1c1.1.1 2.2.1 3.2.1 10.4 0 16.5-4.6 16.5-4.6z" fill="url(#x)"/><path d="M49 71.8c9.2-.9 14-2.7 15.4-3.3-.5-.9-1.7-1.4-1.7-1.4s-7.8 2.6-14.5 3c-.7 0-1.4.1-2.1.1-5.2 0-7.2-1.2-7.2-1.2l-1.4 1.3c1.6.7 5.4 2.1 11.5 1.5z" fill="#FFF"/><path d="M47.9 83.5c.3-.3.3-.8.1-1.2-.2-.4-.5-.6-1-.6l-7.8-.4c-.4 0-.8.2-1 .5l-.1.2-6.2 10.2c-.2.3-.2.7-.1 1.1.2.3.5.6.8.6l4.5.6-3.6 9.5c-.2.5 0 1 .4 1.3.2.1.4.2.6.2.3 0 .5-.1.8-.3l12.5-11.6 3.1-2.9c.3-.3.4-.8.3-1.2-.2-.4-.5-.7-1-.7l-2.3-.1-4.1-.2 4.1-5z" fill="url(#y)"/><path d="M77.3 148.2c-.5 1.6-2.3 2.8-5.6 3.7-3.5.9-6 .8-7.5-.3-.2-.2-.4-.3-.6-.5-1.1.7-1.6 1.7-1.3 2.4.5 1.4 3.5 2.3 9.2.9 8.2-2 9.3-4.8 9.5-5.6.1-.8-.2-1.2-.3-1.3-.5-.3-1.9-.5-3.2-.4-.1.3-.1.7-.2 1.1z" fill="#FFF"/><path d="M75.7 144.9c-.1 0-.2 0-.2.1-.4-.9-.8-1.9-1.4-3 1.3.1 2.7.1 4.1.1 13.4 0 28.1-4.3 30.4-7.7.6-.8.7-1.8.3-2.7-1.1-2.7-4.3-2.9-9.2-3.2-5.7-.4-14.2-.9-24.5-5.2-.4-.2-.8-.3-1.1-.5 0-.1 0-.1.1-.2 0-.1.1-.2.1-.3l1.9-4.4c.2-.4.3-.9.3-1.3.5-1 .9-2 1.2-2.9.5 0 1 .1 1.5.1.7 0 1.3 0 1.8-.1s1-.2 1.3-.4c2.4-1.3 4.4-1.4 7.6-1.4 1.7 0 3.8-.1 6.5-.3 7.8-.8 12.9-6.6 12.9-10 .2-.9 3.9-3.5 6.1-5.1 4.5-3.2 6.8-4.9 6.5-6.6-.3-1.8-2.7-1.9-11.1-1.9-7.8-.1-18.4-.1-24.5-2.6-4.7-1.9-8.9-5-12.2-7.9-4-3.5-6.6-6.6-6.7-6.6 0-.1-.1-.1-.2-.1 0-.6-.2-1.5-.4-2.4-.3-1.1-1.1-1.9-1.7-2.4 1.3-2.8 2.8-5.7 4.4-8.6 2.5-1.4 4.9-2.8 7-4.4C89.2 50.6 98 41.8 98 31.6c0-10.4-9.4-19.4-22.3-21.6-6.1-4.1-13.5-6.4-20.9-6.4-3.8 0-7.6.6-11.3 1.7-3.4 1.1-6.8 2.7-10.1 4.9-.6-.1-1.2-.1-1.8-.1h-1.2c-2 0-4.1.2-6.1.6-1.6-.6-3.3-.9-5-.9-1.4 0-2.9.2-4.3.7-7.5 2.4-11.7 10.4-9.3 17.9.3 1 .7 1.9 1.3 2.9.8 3.2 2.8 6.1 5.7 8.5-.7 2.9-1 5.7-1 8.4.2 11.8 8.5 18.3 23.3 18.3 1.9 0 3.8-.1 5.9-.3-.3.3-.5.7-.7 1-.3-.1-.6-.2-.9-.2-.5 0-1.1.2-1.5.6l-3.3 3c-.3.3-.6.7-.7 1.1C22 79.9 15.1 89.3 13.2 99.8c-1 5.2-.4 9.6.4 12.6-.3.8-.3 1.7 0 2.5l3.7 9.6c-.2 2.1.8 4.2 2.7 5.4.8.5 1.7.8 2.7.8.9 3 2.1 5.6 3.7 7.8.6 3.6 1.2 6.5 1.9 8.9-1.4.4-2.5 1.3-3.1 2.3-.4.7-.6 1.5-.5 2.3.1.4.3 1.2.9 1.9 3.4 5.5 7 11.8 7.1 12.9 0 .4-.2 1.1-.3 1.9-.5 2.4-1.1 5.5-.3 7.3.4 1.1 1.8 1.6 3.8 1.6h.5c3.2-.1 8.6-1.8 9.9-6 1.4-4.1 1.2-15.5 1.1-20.3v-1.2-.9-.1-.1c0-.1 0-.2-.1-.3v-.1c-.1-.3-.2-.6-.4-.8.8 0 1.6.1 2.4.1 3.7 0 7.5-.5 11.2-1.5.9 1.1 1.7 2.1 2.4 3.1-1.2.8-2 1.8-2.3 2.9-.2.7-.2 1.4 0 2.1 0 .1-.1.1-.1.2-.1.4 0 .8.2 1 4.2 5.2 8.7 11.3 9 12.4 0 .4-.1 1.1-.2 1.9-.3 2.5-.7 5.6.3 7.3.6 1.1 2.1 1.4 3.5 1.4.6 0 1.1-.1 1.6-.1 4-.5 8.5-2.8 9.5-6.5.7-2.6.5-8 .2-12.9.9-.5 1.8-1.3 2.2-2.4 1.6-4.2 0-7.3 0-7.4-.1-.2-.3-.3-.5-.3s-.4.1-.5.3c-.4.9-1 2.3-1.8 3.3-.2-1.9-.4-3.1-.4-3.3.2-1.6-.5-2.8-1.3-3.3l-.6-.3c-2.3-1.2-5.3-.9-6-.9zm5.7 13.8c-.3.1-.5.4-.4.7.1.3.4.5.7.4 0 0 .1 0 .3-.1.3 4.5.4 9.2-.2 11.4-.5 1.9-2.6 3.5-5.6 4.4-2.6.8-4.6.6-4.9.3-.6-1.1-.3-4.1 0-5.9.1-.6.1-1.1.2-1.5.7.2 1.3.3 1.9.3 1.7 0 2.8-.7 2.9-.8.3-.2.3-.5.2-.8-.2-.3-.5-.3-.8-.2 0 0-1.8 1.1-4.3.2-.6-1.8-3.6-6-6.8-10 .6.1 1.2.1 1.9.1 1.5 0 3.3-.2 5.6-.8 4.9-1.2 7.7-2.7 9.3-4.2 0 .4.1.9.2 1.5-1.2.4-2.8.9-3.4 2.8-.7 2.4.8 4.1.9 4.2.1.1.3.2.4.2.1 0 .3 0 .4-.1.2-.2.2-.6 0-.8 0-.1-1.2-1.3-.6-3.1.4-1.4 1.6-1.8 2.8-2.1.2-.1.3-.1.5-.2 0 .1 0 .1.1.2.1.2.3.3.5.3.1 0 .2 0 .3-.1.6-.4 2.5-1.6 2.6-2.8 0-.3-.2-.6-.5-.6h-.1c.2-.3.3-.6.5-.9.3 1.2.4 3-.4 5.2-1.1 2-4.2 2.8-4.2 2.8zm-.8-11.2c.1.1.5.5.3 1.3-.1.8-1.2 3.6-9.5 5.6-5.7 1.4-8.7.5-9.2-.9-.2-.7.2-1.7 1.3-2.4.2.2.3.3.6.5 1.5 1 4 1.1 7.5.3 3.3-.8 5.1-2 5.6-3.7.1-.4.1-.8.1-1.1 1.4 0 2.8.1 3.3.4zM69.1 76c3.5 3.5 9.4 8.6 16.3 11.4 6.5 2.7 17.4 2.8 25.4 2.8 3.4 0 7.1 0 8.6.3-.9 1-3.5 2.9-5.3 4.2-2.7 1.9-4.7 3.3-5.8 4.6-9.9 1.2-15.8-1.2-15.9-1.2-.3-.1-.6 0-.7.3-.1.3 0 .6.3.7.2.1 4 1.6 10.8 1.6 1.4 0 3-.1 4.6-.2-.2.4-.3.7-.3 1.1 0 2.1-4.1 7.1-10.9 7.8-2.6.3-4.5.3-6.3.3-3.3.1-5.7.1-8.6 1.7-.5.3-1.5.4-2.8.3.3-1.1.5-1.8.5-1.8 1.7-8.1 1.1-20.1-9.9-33.9zM44.8 64.2c11.7-2.2 18.6-5 22-6.8-1.2 2.2-2.5 4.8-3.8 7.5h-.3c-.2 0-.5 0-.7.1-.1 0-7.6 2.5-13.9 2.9-.7 0-1.3.1-2 .1-1.7 0-3-.1-4-.3.9-1.3 1.8-2.4 2.7-3.5zm3.7 11.9c-1 0-2.1 0-3.2-.1-8.5-.8-9.7-4.1-9.7-4.1l1.9-1.7 1.4-1.3s2.1 1.2 7.2 1.2c.6 0 1.3 0 2.1-.1 6.7-.4 14.5-3 14.5-3s1.1.5 1.7 1.4c.1.1.1.3.2.4.4 1.2.4 2.6.4 2.6s-6.1 4.7-16.5 4.7zM34.7 63.9h-2.3c-.6 0-1.3-.1-1.9-.1h-.3c-.5-.1-1.1-.1-1.6-.2-.1 0-.2 0-.4-.1-.6-.1-1.1-.2-1.7-.3-.1 0-.2-.1-.3-.1-.5-.1-1-.3-1.4-.4-.1 0-.2 0-.2-.1l-1.5-.6c-.1 0-.2-.1-.3-.1-.5-.2-.9-.4-1.3-.7h-.1c-.4-.2-.9-.5-1.3-.8-.1-.1-.2-.1-.3-.2l-1.2-.9-.1-.1-.9-.9c-.1-.1-.1-.2-.2-.2-.3-.4-.6-.7-.9-1.1-.1-.1-.1-.2-.1-.2-.2-.4-.5-.7-.7-1.1 0-.1-.1-.2-.1-.3-.2-.4-.4-.9-.6-1.4 0-.1-.1-.2-.1-.3-.2-.5-.3-.9-.4-1.4 0-.1 0-.1-.1-.2-.1-.5-.2-1.1-.3-1.7V50c-.1-.6-.1-1.2-.1-1.8v-2-.5c0-.7.1-1.3.2-2s.2-1.4.4-2.1c0-.1.1-.3.1-.4.1-.3.1-.6.2-.8.8-3.1 3-6.2 3-6.3.2-.3.1-.6-.1-.8-.1-.1-.3-.1-.5-.1-.1 0-.2.1-.3.2 0 .1-.7 1-1.4 2.3-.4.8-.9 1.7-1.3 2.7 0 0-.1 0-.1-.1l-.3-.3c-.3-.2-.5-.5-.8-.7l-.3-.3c-.2-.3-.5-.5-.7-.8-.5-.5-.9-1.1-1.2-1.7-.1-.2-.2-.4-.3-.5-.1-.2-.3-.5-.4-.7l-.3-.6c-.1-.2-.2-.5-.3-.7-.1-.2-.2-.5-.2-.7-.1-.2-.1-.4-.2-.7-.2-.4-.5-.8-.6-1.2 0 0 0-.1-.1-.1-.2-.4-.4-.9-.5-1.3-.5-1.6-.6-3.1-.5-4.7.1-1.2.4-2.4.8-3.5.7-1.8 1.9-3.4 3.4-4.7.6-.5 1.2-1 1.9-1.3.7-.4 1.4-.7 2.2-1 .4-.1.7-.2 1.1-.3.1 0 .2 0 .3-.1.2 0 .5-.1.7-.1H19.4c1.7 0 3.3.4 4.8 1l1.5-.3h.2c.7-.1 1.4-.2 2.1-.2.4 0 .7-.1 1.1-.1h2.5c.2 0 .5 0 .7.1-.8.7-2.1 1.8-3.9 3.7-.9.9-1.8 2.1-3 3.4-.2.2-.2.5 0 .7l.1.1c.1.1.2.1.4.1s.3-.1.4-.2c5.3-6.5 7.6-7.7 7.7-7.7.8-.6 1.6-1.1 2.4-1.6.5-.3 1.1-.6 1.6-.9 2-1.1 4-2 6.1-2.6 3.6-1.1 7.2-1.6 10.6-1.6 7.6 0 14.5 2.4 20.1 6.3h.2c2.1.3 4.1.9 6 1.6.6.3 1.6.8 2.6 1.6 2.7 2 5.9 5.7 5.2 12-1.1 9.6-11.2 9.9-11.6 9.9-.1 0-.3.1-.4.1-5-.2-8.6-3.1-10.3-7.2-.5-1.9-.1-3.3-.1-3.5.1-.3-.1-.6-.4-.7-.3-.1-.6.1-.7.4 0 .2-.9 3.8 1.7 7.5 1.8 3.4 5.5 5.9 9.8 6.2 5.3.4 10-2.3 12-6.6.2-.1.3-.2.4-.4 1.7-3.3 2.2-6.2 2-8.7-.2-2.1-.8-4-1.7-5.6l.8.8c.4.4.8.9 1.2 1.3.5.5.9 1.1 1.3 1.7l.9 1.5c.2.4.5.9.7 1.4.8 1.9 1.3 4 1.3 6.2 0 1.8-.3 3.5-.9 5.1-.2.5-.4 1.1-.7 1.6-2.5 5.2-7.7 9.4-14.5 11.6-1 .3-2.1.6-3.2.8-4.9.7-9.5-1.7-9.5-1.7-.3-.1-.6 0-.8.2-.1.3 0 .6.2.8.2.1 3.5 1.8 7.7 2-1.6 1.1-3.2 2.1-4.9 3.1-.1 0-.2 0-.3.1 0 0-.2.2-.7.5-.1.1-.2.1-.4.2-2.5 1.4-9.6 4.9-23.1 7.5-.5.1-1 .2-1.5.2-.1 0-.3 0-.4.1l-2.4.3h-.4c-.8.1-1.6.1-2.4.2h-.4c-.8 0-1.6.1-2.4.1v-.8zm9.2 106.6c-.9 2.8-4.7 3.9-5.8 4.2-2.5.6-4 .2-4.2 0-.5-1.2.1-4.2.4-6l.3-1.5c.8.3 1.5.4 2.1.4 1.4 0 2.3-.5 2.3-.6.3-.2.3-.5.2-.8-.2-.3-.5-.3-.8-.2 0 0-1.7 1-3.8-.1-.4-1.9-3.1-6.6-5.5-10.6 1.1.2 2.4.4 4 .4.6 0 1.2 0 1.9-.1 5.1-.3 8.1-1.4 9.8-2.7.2 5.6.1 14.4-.9 17.6zm.7-21.7c.1.1.3.6.1 1.2-.3.7-1.8 3.2-9.8 3.7-5.5.4-8.2-1-8.4-2.3-.1-.7.5-1.5 1.6-2 .1.2.3.4.4.6 1.2 1.2 3.6 1.8 7 1.5 3.2-.2 5.2-1 5.9-2.5.2-.3.3-.7.3-1 1.3.1 2.5.4 2.9.8zm16.2-5.3l-1.2.3c-.1 0-.3.1-.4.1-.3.1-.6.2-.9.2-.2 0-.3.1-.5.1-.3.1-.6.1-.9.2-.2 0-.3.1-.5.1-.3.1-.6.1-1 .2-.1 0-.3.1-.4.1-.4.1-.8.1-1.1.2h-.3c-1 .1-2 .2-3.1.3H49h-.1-.1c-1.5 0-3.1-.1-4.7-.3h-.2c-.8-.1-1.6-.2-2.4-.4h-.2l-2.4-.6v.1c-3.9-1.1-5.3-2.6-5.4-2.6-.2-.2-.6-.2-.8 0-.2.2-.2.6 0 .8.1.1 1.8 1.8 6.2 3v.1c0 1 .1 2 .1 3-.5.3-1.6.7-3.6.8-2.5.2-3.9-.1-4.7-.5-.9-2.6-1.7-6.2-2.3-9.8v-.1c-.1-.3-.1-.6-.2-1 0-.2-.1-.4-.1-.6-.9-1.2-1.7-2.5-2.3-3.9 0-.1-.1-.1-.1-.2-.3-.6-.5-1.2-.7-1.8-2.5-7.9-.5-19.1-.5-19.2.1-.3-.1-.6-.5-.6-.3-.1-.6.1-.6.5 0 .1-.2 1.1-.4 2.7-.5-.3-1-.6-1.4-.8-.9-.6-1.7-1-1.9-1.1-.3-.1-.6.1-.7.3v.1c-.1.3.1.5.3.6.2.1 2 1.1 3.6 2.1-.1 1-.2 2.1-.2 3.3v.7l-1.4-1.7-1.1-1.3c-.2-.2-.5-.3-.8-.1-.2.2-.3.5-.1.8l1 1.2 2 2.5.1.1.2.2c0 2.1.1 4.4.5 6.6h-.8-.1c-.2 0-.5-.1-.7-.1h-.1c-.2-.1-.5-.2-.7-.3-.9-.6-1.5-1.5-1.6-2.5v-.1-.5-.1-.3-.3l-3.9-10.1c0-.1-.1-.2-.1-.3v-.1-.2-.1c0-.1 0-.1.1-.2v-.1c.1-.1.1-.2.2-.3-.8-2.8-1.5-7.1-.6-12.4 1.1-5.8 3.8-11.3 8.2-16.4 2.9-3.4 6.5-6.6 10.9-9.7.7 1 2.1 2.3 5 3.3 1.5.5 3.5 1 6 1.2 1.1.1 2.2.1 3.2.2h.2c2.4 0 4.6-.2 6.5-.6.4.5 1.1 1.2 2 2.4-2.7 9.6-2.5 18.7-1 26.8v.1c.1.6.2 1.2.4 1.8 0 .2.1.4.1.6.1.4.2.9.3 1.3.1.3.1.5.2.8.1.3.2.6.2.9.1-.1.2-.2.3-.2.2-.1.5-.2.7-.3h.2c.2 0 .4-.1.5-.1h.2c.2 0 .5 0 .7.1h.1c.3.1.5.2.7.3.1 0 .1.1.2.1.2.1.3.2.5.4l.2.2c.2.2.4.4.5.7.3.5.4 1 .4 1.6.7-.2 1.5-.4 2.3-.5.1-.2.2-.5.4-.7 0-.1.1-.1.1-.1.1-.2.3-.4.5-.6.1-.2.4-.6.7-1.2.1-.2.2-.5.4-.7 2.1-4.5 5.1-16.4-9.3-32-.6-.8-1.1-1.4-1.5-1.8 3.1-.7 5.6-1.7 7.3-2.6.5-.2.9-.4 1.2-.6 4.6 5.2 9.2 11.8 11.3 19.4 1.4 4.9 1.8 10.2.6 15.7 0 0-.1.5-.3 1.3-.4 1.4-1.1 3.6-2.2 5.6v.5c0 .1 0 .2-.1.3l-2.7 6.2c-.4.8-1 2.1-1.4 3.1-.1.3-.2.6-.3.8 0 .2-.1.3-.1.4 0 .1-.1.6-.4 1.1-.3.4-.7.9-1.3 1.3-.3.2-.6.3-.9.4h-.3c-.3 0-.5 0-.8-.1-.2-.1-.3-.1-.5 0-1.8-.6-2.1-2.4-2.1-2.5 0-.3-.2-.4-.5-.5h-.1c-.3 0-.5.3-.5.6.1.8.7 2.4 2.3 3.2-.1.5.2 1.1.7 1.3.5.2 1 .3 1.5.3.8 0 1.7-.2 2.5-.7 1.5-.9 2.6-2.6 2.7-3.6.1-.4.6-1.9 1.3-3.5.4.2.8.3 1.2.5 8.5 3.5 15.9 4.6 21.4 5.1h.2c6.3.5 10.2.3 10.9 2.1V133.5c0 .1 0 .1-.1.2 0 0 0 .1-.1.1 0 .1-.1.1-.1.2l-.1.1-.2.2-.1.1c-.1.1-.2.2-.3.2 0 0-.1 0-.1.1-.2.1-.3.2-.5.3-.1 0-.1.1-.2.1-.1.1-.3.2-.4.2-.1 0-.2.1-.2.1-.1.1-.3.1-.4.2-.1 0-.2.1-.3.1-.2.1-.3.1-.5.2-.1 0-.2.1-.3.1-.2.1-.4.2-.6.2-.1 0-.2.1-.2.1l-.9.3c-.1 0-.1 0-.2.1-.3.1-.5.2-.8.3-.1 0-.2.1-.4.1-.2.1-.5.1-.7.2-.1 0-.3.1-.4.1-.2.1-.5.1-.7.2-.1 0-.3.1-.4.1-.3.1-.5.1-.8.2-.1 0-.3.1-.4.1l-1.2.3h-.1l-1.2.3c-.1 0-.3.1-.4.1-.3.1-.6.1-.9.2-.2 0-.3.1-.5.1-.3.1-.6.1-.9.2-.2 0-.4.1-.5.1-.3.1-.6.1-.9.1-.2 0-.3.1-.5.1-.4.1-.8.1-1.1.2h-.3c-.5.1-1 .1-1.4.2h-.4c-.3 0-.7.1-1 .1h-.5c-.3 0-.6.1-1 .1h-.6c-.3 0-.6 0-1 .1h-6c-.5 0-.9 0-1.4-.1h-.6c-.4 0-.9-.1-1.3-.1-.2 0-.4 0-.6-.1-.2 0-.4-.1-.6-.1-1.5-2.5-2.6-4.3-2.6-4.3-.2-.3-.5-.4-.8-.2-.3.2-.4.5-.2.8 0 0 1.6 2.7 3.7 6.1.9 1.7 1.7 3.3 2.2 4.7l.6 1.8c-.6.4-1.6.9-3.3 1.3-2.8.7-4.4.6-5.3.3-1.4-2.6-3.1-4.9-4.6-6.8zm3.7-32c-.1.1-.1.2-.2.3l-.3.3c-.2-.3-.5-.6-.7-.9l1.2.3zm1-2c-2.4-.6-4.8-1.2-7-1.8-1.7-8.3-1.7-16.4 0-24.2 10.1 12.4 8.6 21.7 7 26z" fill="url(#z)"/><path d="M35 155.9c-.7 0-1.3.1-1.9.1-1.6 0-3-.2-4-.4 2.4 4 5 8.7 5.5 10.6 2.2 1.1 3.8.1 3.8.1.3-.2.6-.1.8.2.2.3.1.6-.2.8-.1 0-1 .6-2.3.6-.6 0-1.3-.1-2.1-.4-.1.4-.2.9-.3 1.5-.3 1.8-.9 4.8-.4 6 .2.2 1.8.5 4.2 0 1.1-.3 4.8-1.3 5.8-4.2 1.1-3.2 1.1-12 1-17.3-1.8 1-4.7 2-9.9 2.4z" fill="url(#A)"/><path d="M41.5 148.8c-.8 1.5-2.7 2.3-5.9 2.5-3.4.2-5.8-.3-7-1.5-.2-.2-.3-.4-.4-.6-1.1.5-1.7 1.3-1.6 2 .2 1.4 2.9 2.7 8.4 2.3 8-.5 9.5-2.9 9.8-3.7.2-.6 0-1.1-.1-1.2-.4-.4-1.6-.7-2.8-.9-.1.5-.2.8-.4 1.1z" fill="#FFF"/><path d="M85.3 156c.8-2.2.7-4.1.4-5.2-.1.3-.3.6-.5.9h.1c.3 0 .5.3.5.6-.2 1.1-2.1 2.4-2.6 2.8-.1.1-.2.1-.3.1-.2 0-.4-.1-.5-.3 0-.1-.1-.1-.1-.2-.2.1-.3.1-.5.2-1.1.4-2.3.7-2.8 2.1-.6 1.7.6 3 .6 3.1.2.2.2.6 0 .8-.1.1-.2.1-.4.1s-.3-.1-.4-.2c-.1-.1-1.6-1.8-.9-4.2.6-1.9 2.2-2.4 3.4-2.8-.1-.5-.1-1-.2-1.5-1.6 1.5-4.4 3-9.3 4.2-2.3.6-4.1.8-5.6.8-.7 0-1.3-.1-1.9-.1 3.2 4.1 6.2 8.2 6.8 10 2.5 1 4.3-.2 4.3-.2.3-.2.6-.1.8.2.2.3.1.6-.2.8-.1 0-1.2.8-2.9.8-.6 0-1.2-.1-1.9-.3 0 .4-.1 1-.2 1.5-.2 1.8-.6 4.8 0 5.9.3.3 2.3.5 4.9-.3 3-.9 5.1-2.6 5.6-4.4.6-2.2.5-6.9.2-11.4-.2 0-.3.1-.3.1-.3.1-.6-.1-.7-.4-.1-.3.1-.6.4-.7.3-.1 3.4-.9 4.2-2.8z" fill="url(#B)"/></g></g></svg>