<svg id="Layer_1" data-name="Layer 1" xmlns="http://www.w3.org/2000/svg" viewBox="0 0 300 300"><defs><style>.cls-1{fill:none;}.cls-2{fill:#d9ebff;}.cls-3{fill:#fff;}.cls-4{fill:#f9f9fa;}.cls-5{fill:#59acff;}.cls-6{fill:#f5f5f7;}</style></defs><title>Onvoarding-</title><path class="cls-1" d="M80.93,74c-.11-.28-2.76-6.92-9.4-6-2,.27-3.39,1.06-4.09,2.33a4.33,4.33,0,0,0-.39,1,6,6,0,0,1,4.05-2c7.12-1,9.93,6.35,9.93,6.35a5.45,5.45,0,0,1,.56-1.41.47.47,0,0,1-.15.06A.49.49,0,0,1,80.93,74Z"/><path class="cls-2" d="M227.32,106.17a1,1,0,0,0,0-2H127.59a16.73,16.73,0,0,1,.34,2Z"/><path class="cls-2" d="M184.61,100.18a.5.5,0,0,0,0,1h27.77a.5.5,0,0,0,0-1Z"/><path class="cls-2" d="M20.64,109.54a.5.5,0,0,0,0,1H53.56a12.32,12.32,0,0,1,.75-1Z"/><path class="cls-2" d="M187.2,110.54a.5.5,0,0,0,0-1H128q0,.49-.09,1Z"/><path class="cls-2" d="M213.94,199.33a1,1,0,0,0,0,2h26.11l-1.84-2Z"/><path class="cls-2" d="M281.26,199.33H261.64l1.55,1.42a3,3,0,0,1,.44.58h17.63a1,1,0,0,0,0-2Z"/><path class="cls-2" d="M269.9,196a.5.5,0,0,0,0-1h-13l1.09,1Z"/><path class="cls-2" d="M177.35,204.7a.5.5,0,0,0,0,1h66.71l-.92-1Z"/><path class="cls-2" d="M263.62,205.7h15a.5.5,0,0,0,0-1H263.93c0,.15-.07.3-.12.46S263.69,205.52,263.62,205.7Z"/><path class="cls-3" d="M229.15,172.38a4.35,4.35,0,0,1,4.32,1.09l5.48,5h22.79a3.61,3.61,0,0,0,3.6-3.6V150.48a3.61,3.61,0,0,0-3.6-3.6H233.45a34.1,34.1,0,0,1-6.81,23Z"/><path class="cls-3" d="M217.09,178.49h4.83L220,176.55A34,34,0,0,1,217.09,178.49Z"/><path class="cls-3" d="M65.9,108.31h-.09c.46,0,.93,0,1.42.05C66.78,108.33,66.34,108.31,65.9,108.31Z"/><path class="cls-3" d="M101.69,105.57c-.38.48-.76,1-1.13,1.49s-.63.91-.92,1.37c.29-.46.59-.92.92-1.37S101.31,106,101.69,105.57Z"/><path class="cls-3" d="M119.94,120.17l.45-.75c-.14.24-.31.49-.46.74Z"/><path class="cls-3" d="M119.38,121.05h0l0,.07Z"/><path class="cls-3" d="M114.92,97.75h-.07a10.12,10.12,0,0,1,1,0C115.56,97.77,115.24,97.75,114.92,97.75Z"/><path class="cls-3" d="M125.52,150.11a1,1,0,0,1,.82,1.14,11.59,11.59,0,0,1-2,4.44h.12a11.66,11.66,0,0,0,2-4.42,1.11,1.11,0,0,0-.91-1.27h-.12l0,.11Z"/><path class="cls-3" d="M70,157.77a1,1,0,0,1,.75-1.12l0-.1a1.1,1.1,0,0,0-.83,1.24,12.78,12.78,0,0,0,4.82,7.37l.07-.08A12.66,12.66,0,0,1,70,157.77Z"/><path class="cls-3" d="M41.39,146.88a3.61,3.61,0,0,0-3.6,3.6v24.42a3.61,3.61,0,0,0,3.6,3.6H64.61a2,2,0,0,1,.13-1,49.19,49.19,0,0,1,7.18-12.15,14.24,14.24,0,0,1-4-7.27,3.07,3.07,0,0,1,.54-2.31,35.69,35.69,0,0,0-2.52-6.58,23.09,23.09,0,0,1-2-5.6,24.66,24.66,0,0,1,0-10.26c-6.51-4.49-12.29-11.6-10.13-19,1.43-4.94,6.05-8,12.06-8a25.63,25.63,0,0,1,12.74,3.94c.57.34,1.14.7,1.74,1.11a35.76,35.76,0,0,1,8.46-2.91,36.66,36.66,0,0,1,7.57-.8l1.35,0c.39-.62.77-1.2,1.16-1.76,4.57-6.46,10.4-10.16,16-10.16h0a10.59,10.59,0,0,1,9.63,5.66c1.33,2.48,3.62,9.24-2.78,19.61a24.67,24.67,0,0,1,4.19,9.31,23.09,23.09,0,0,1,.49,5.92,36.75,36.75,0,0,0,.79,9.31l0,.15a13.62,13.62,0,0,1,.25,3.14,3.11,3.11,0,0,1,.91,2.73,13.44,13.44,0,0,1-1.78,4.4,2.16,2.16,0,0,1,.54.4l.1.12,10.32,10.77h0a2.15,2.15,0,0,1,.6,1.55l-.2,9.66h43.65a34.16,34.16,0,0,1-16.35-31.62H129.43c0-.44-.11-.87-.2-1.3l0-.17c0-.18-.06-.35-.09-.53a34.59,34.59,0,0,1-.65-8.28,25.09,25.09,0,0,0-.53-6.43,26.42,26.42,0,0,0-3.78-9,28.08,28.08,0,0,0,3.77-10.65q.06-.51.09-1a18.56,18.56,0,0,0-.07-3.37,16.73,16.73,0,0,0-.34-2,14.5,14.5,0,0,0-1.28-3.46A12.69,12.69,0,0,0,114.92,94h0c-6.24,0-12.67,4-17.62,11q-.31.43-.61.89h-.27a38.67,38.67,0,0,0-8,.85,38,38,0,0,0-7.89,2.58l-.88-.54a27.61,27.61,0,0,0-13.76-4.22,14.84,14.84,0,0,0-11.59,5A12.52,12.52,0,0,0,51.92,114c-2.33,8,3.21,15.55,9.86,20.48a26.39,26.39,0,0,0,.21,9.79c0,.2.1.39.15.59q.24,1,.57,2Z"/><path class="cls-2" d="M123.58,156.67c.29-.33.54-.66.77-1a11.59,11.59,0,0,0,2-4.44,1,1,0,0,0-.82-1.14h-.12l0-.11c0-.29.07-.58.08-.87q0-.1,0-.19c0-.25,0-.5,0-.75s0-.3,0-.45,0-.37,0-.56c0-.35-.09-.71-.16-1.07l0-.13a40.65,40.65,0,0,1-.7-4.62c-.08-.91-.14-1.81-.16-2.72s0-1.65,0-2.47q0-.67,0-1.34t-.07-1.35a21.05,21.05,0,0,0-.4-2.71q-.14-.66-.32-1.31a23.45,23.45,0,0,0-4.35-8.33l0-.07a13.94,13.94,0,0,0-3.57-3,.5.5,0,0,1,.47-.88,14.59,14.59,0,0,1,3.66,3c.15-.25.32-.49.46-.74l.24-.4c.32-.55.62-1.1.88-1.63l.07-.14c.25-.5.47-1,.68-1.48l.16-.38c.21-.51.4-1,.57-1.51l.07-.22c.14-.44.27-.87.38-1.3l.09-.34c.12-.47.21-.93.29-1.39,0-.09,0-.17,0-.26q.09-.59.14-1.15c0-.1,0-.2,0-.3q0-.64,0-1.25c0-.09,0-.18,0-.28q0-.52-.07-1c0-.08,0-.17,0-.25,0-.38-.11-.74-.19-1.1l-.07-.27q-.11-.45-.26-.88l-.06-.2a10.06,10.06,0,0,0-.39-.94l-.12-.24c-.13-.26-.28-.51-.43-.76l-.08-.13a8.83,8.83,0,0,0-.57-.77l-.17-.2A8.51,8.51,0,0,0,121,100l-.06-.06a8.35,8.35,0,0,0-.73-.58l-.21-.15a8.38,8.38,0,0,0-.81-.48l-.07,0a8.57,8.57,0,0,0-.82-.36l-.23-.09a8.92,8.92,0,0,0-.93-.27L117,98c-.29-.06-.59-.11-.89-.15l-.24,0a10.12,10.12,0,0,0-1,0h-.19c-.3,0-.61,0-.92.06l-.29,0c-.37,0-.74.11-1.12.2h0c-.37.09-.74.2-1.12.32l-.29.1c-.35.12-.7.26-1.06.42l-.12.05c-.39.18-.79.38-1.18.6l-.28.16q-.5.29-1,.62l-.23.15q-.59.41-1.18.88l-.25.21q-.49.4-1,.85l-.29.26c-.39.37-.78.76-1.17,1.17L103,104c-.33.37-.66.75-1,1.15l-.3.37c-.38.48-.76,1-1.13,1.49s-.62.92-.92,1.37-.46.75-.68,1.12a30.36,30.36,0,0,1,14.39,4.7.5.5,0,0,1-.59.81c-.09-.07-9.48-6.8-23.31-3.87a31.56,31.56,0,0,0-14.85,7.5,30.51,30.51,0,0,0-5.43,6.77h0a.5.5,0,0,1,.11.7,26.38,26.38,0,0,0-2.72,5.11,25.84,25.84,0,0,0-.65,2.51h0q-.13.66-.23,1.31v0q-.09.63-.15,1.27v.1c0,.4-.06.8-.08,1.19,0,.06,0,.11,0,.17,0,.37,0,.74,0,1.12,0,.08,0,.16,0,.24,0,.35,0,.7.06,1,0,.1,0,.2,0,.3,0,.34.07.68.12,1,0,.1,0,.21,0,.31q.1.65.24,1.3c.13.6.29,1.18.46,1.75s.32,1,.5,1.44c.25.66.53,1.3.85,1.93s.66,1.38,1,2.08c.2.46.37.93.55,1.4.08.22.17.43.25.65.22.62.43,1.25.62,1.88l0,.16q.31,1,.56,2.08h0l0,.1a1,1,0,0,0-.75,1.12,12.66,12.66,0,0,0,4.78,7.31l-.07.08q-.57.67-1.12,1.36l-.16.2q-.5.63-1,1.27l-.26.36q-.43.59-.84,1.19l-.34.51c-.25.37-.49.74-.72,1.11l-.41.67c-.21.34-.41.68-.61,1s-.31.56-.47.85-.33.6-.49.9-.36.73-.54,1.09-.24.48-.35.72c-.28.61-.55,1.24-.81,1.86H82l.2-9.5a14.1,14.1,0,0,1-4.83-1.41.5.5,0,0,1,.47-.88s4.16,2.18,8.28,1a12.59,12.59,0,0,1-2.84-3,.5.5,0,0,1,.17-.69.49.49,0,0,1,.45,0,12,12,0,0,1-1.38-6.27,11.84,11.84,0,0,1,3.25-7.61,1,1,0,0,1-.24-.16,3,3,0,0,0-4.69,1,1,1,0,0,1-1.87-.71,5,5,0,0,1,8-1.71,1,1,0,0,1,.22.34,10.56,10.56,0,0,1,1.39-.88l-1.73-8.06a8.54,8.54,0,0,1,14.21-8,14.13,14.13,0,0,1-.4-4.63h0a8.05,8.05,0,0,1,16.1-.28c.09,5,3.46,6.95,3.55,12.45,0,.1,0,.19,0,.28a9.66,9.66,0,0,1-6.82,9.12,12.23,12.23,0,0,1,1.28,2,11.77,11.77,0,0,1,.63,9.44l.13,0a.5.5,0,0,1,.3.64,6.46,6.46,0,0,1-.32.69,12.26,12.26,0,0,0,5.24-2.52.49.49,0,0,1,.62,0A14,14,0,0,0,123.58,156.67ZM82.37,146.28a5.32,5.32,0,0,0-1.18.41s0,0,0-.07L80.6,144a1.2,1.2,0,1,1,2.35-.5l.56,2.63s0,0,0,.05A5.32,5.32,0,0,0,82.37,146.28Z"/><path class="cls-2" d="M78.28,220.48a2.9,2.9,0,0,0,2.88-2.83s0,0,0-.07l.68-32.8-5.77-.12-.7,33s0,0,0,.07a2.89,2.89,0,0,0,2.83,2.76Z"/><path class="cls-4" d="M137.09,169.28l-10.81-.23a1,1,0,0,1-1-1l.23-10.89a1,1,0,0,1,.12-.43l-2.07,0a14,14,0,0,1-2.27,2.09l.09.06a.5.5,0,0,1,0,.71,12.91,12.91,0,0,1-6.37,2.9h-.07l-.15,0a11.17,11.17,0,0,1-4.19,3.58l11.1.23a1.17,1.17,0,0,1,1.14,1.19l-.1,4.75h0a1.16,1.16,0,0,1-1.18,1.06l-30.33-.64a1.16,1.16,0,0,1-1.14-1.11h0l0-2a11.36,11.36,0,0,1-3-1.33,10.2,10.2,0,0,1-3.72.68h-.22l-1,48.85h0a3.89,3.89,0,0,1-3.89,3.8h-.08l49.89,1.05,4.11.09h.08a3.89,3.89,0,0,0,3.89-3.81l1-49.55h-.13ZM89.78,185.1A1.14,1.14,0,0,1,90.95,184l18.81.4a1.14,1.14,0,0,1,1.11,1.16l-.05,2.39a1.14,1.14,0,0,1-1.16,1.11l-18.81-.4a1.14,1.14,0,0,1-1.11-1.16Zm-.15,7,21.08.45,0,2.33-21.08-.45ZM89.52,198l21.08.45,0,2.33-21.08-.45Zm-.12,5.83,21.08.45,0,2.33-21.08-.45Zm-.12,5.83,21.08.45h0l0,2.33L89.22,212Zm39.89,8.43-40.06-.85,0-1.17,40.06.85Zm.12-5.25-15.48-.33,0-2.33,15.48.33Zm.15-7a1.17,1.17,0,0,1-1.19,1.14h0l-13.15-.28h0a1.17,1.17,0,0,1-1.14-1.19l.42-19.83a1.17,1.17,0,0,1,1.19-1.14h0l13.15.28h0a1.17,1.17,0,0,1,1.14,1.19Zm.49-23.5-40.06-.85,0-1.17,40.06.85Z"/><rect class="cls-5" x="109.32" y="161.26" width="1.17" height="40.07" transform="translate(-73.68 287.34) rotate(-88.79)"/><rect class="cls-5" x="108.56" y="197.01" width="1.17" height="40.07" transform="translate(-110.16 321.58) rotate(-88.79)"/><rect class="cls-5" x="98.87" y="188.81" width="2.33" height="21.08" transform="translate(-101.39 295.15) rotate(-88.79)"/><rect class="cls-5" x="98.98" y="182.98" width="2.33" height="21.08" transform="translate(-95.44 289.55) rotate(-88.79)"/><rect class="cls-5" x="98.74" y="194.64" width="2.33" height="21.08" transform="translate(-107.34 300.73) rotate(-88.79)"/><rect class="cls-5" x="120.4" y="203.73" width="2.33" height="15.48" transform="translate(-92.43 328.54) rotate(-88.79)"/><polygon class="cls-5" points="110.35 210.07 110.35 210.07 89.27 209.63 89.22 211.96 110.3 212.4 110.35 210.07"/><path class="cls-5" d="M128.71,184.78h0l-13.15-.28h0a1.17,1.17,0,0,0-1.19,1.14l-.42,19.83a1.17,1.17,0,0,0,1.14,1.19h0l13.15.28h0a1.17,1.17,0,0,0,1.19-1.14l.42-19.83A1.17,1.17,0,0,0,128.71,184.78Z"/><rect class="cls-5" x="97.97" y="175.97" width="4.67" height="21.09" rx="1.14" ry="1.14" transform="translate(-88.29 282.85) rotate(-88.79)"/><polygon class="cls-6" points="137.11 168.28 136.88 167.96 126.53 157.16 126.3 168.06 137.11 168.28"/><polygon class="cls-2" points="99.73 161.37 99.42 159.93 99.42 159.93 99.73 161.37 99.73 161.37"/><path class="cls-5" d="M105.22,144.12a10.59,10.59,0,0,1,1.89.31,1,1,0,0,1,0-.52,5,5,0,0,1,8-1.71,1,1,0,0,1-1.41,1.42,3,3,0,0,0-4.7,1,1,1,0,0,1-.25.35,11.69,11.69,0,0,1,4.67,3.6,9.66,9.66,0,0,0,6.82-9.12c0-.09,0-.18,0-.28-.09-5.5-3.46-7.4-3.55-12.45a8.05,8.05,0,0,0-16.1.28h0a14.13,14.13,0,0,0,.4,4.63,8.5,8.5,0,0,1,2.5,4.43Zm4.51-7.59a1.2,1.2,0,0,1,1.42.92l.56,2.63s0,0,0,.05a4.91,4.91,0,0,0-2.32.52s0,0,0-.07l-.56-2.63A1.19,1.19,0,0,1,109.73,136.53Z"/><path class="cls-5" d="M82.95,143.49a1.2,1.2,0,1,0-2.35.5l.56,2.63s0,0,0,.07a4.94,4.94,0,0,1,2.32-.52s0,0,0-.05Z"/><path class="cls-2" d="M109.37,140.58s0,0,0,.07a4.91,4.91,0,0,1,2.32-.52s0,0,0-.05l-.56-2.63a1.2,1.2,0,0,0-2.35.5Z"/><path class="cls-5" d="M86.9,148.24a5,5,0,0,0-8,1.71,1,1,0,0,0,.58,1.29,1,1,0,0,0,1.29-.58,3,3,0,0,1,4.69-1,1,1,0,0,0,.24.16,11,11,0,0,1,1.39-1.24A1,1,0,0,0,86.9,148.24Z"/><path class="cls-2" d="M111.1,142.93a3,3,0,0,1,2.6.68,1,1,0,0,0,1.41-1.42,5,5,0,0,0-8,1.71,1,1,0,0,0,0,.52,11,11,0,0,1,1.65.55,1,1,0,0,0,.25-.35A3,3,0,0,1,111.1,142.93Z"/><path class="cls-4" d="M114.7,150.53a12.23,12.23,0,0,0-1.28-2,11.69,11.69,0,0,0-4.67-3.6,11,11,0,0,0-1.65-.55,10.59,10.59,0,0,0-1.89-.31l-1.73-8.06a8.54,8.54,0,0,0-16.71,3.58l1.73,8.06a10.56,10.56,0,0,0-1.39.88,11,11,0,0,0-1.39,1.24,11.84,11.84,0,0,0-3.25,7.61,12,12,0,0,0,1.38,6.27.49.49,0,0,1,.24.19s2.94,4.69,8.41,5a11.92,11.92,0,0,0,5.77-1,10.93,10.93,0,0,0,2.4-2v-.06h0l-.95-4.42h0l-.31-1.44-.71.07c-.39,0-.77-.09-1.09-.13a5.09,5.09,0,0,1-1.12-.39l-1.83-1a2.41,2.41,0,0,1,.66-4.51l3.19-.6c1.58-.36,3.16-.76,3.16-.76a2.3,2.3,0,0,1,2.48,3.49l-1.31,2a3.75,3.75,0,0,1-.85.86,3.47,3.47,0,0,1-.95.55c-.25.07-.5.19-.76.27l1.26,5.86-.5-.24-.31.36,1.19,0a11.06,11.06,0,0,0,1.29.43,12.83,12.83,0,0,0,5.45-.53,10.09,10.09,0,0,0,6.16-5.43.5.5,0,0,1,.51-.32A11.77,11.77,0,0,0,114.7,150.53ZM86.61,162.62A.53.53,0,1,1,87,162,.53.53,0,0,1,86.61,162.62ZM89,158.26a.53.53,0,1,1,.41-.63A.53.53,0,0,1,89,158.26Zm2.41,5.44a.53.53,0,1,1,.41-.63A.53.53,0,0,1,91.4,163.7Zm16.47-9.49a.53.53,0,1,1,.41-.63A.53.53,0,0,1,107.87,154.21Zm2.41,5.44a.53.53,0,1,1,.41-.63A.53.53,0,0,1,110.29,159.66Zm2.37-4.36a.53.53,0,1,1,.41-.63A.53.53,0,0,1,112.66,155.3Z"/><circle class="cls-5" cx="91.29" cy="163.19" r="0.53" transform="translate(-32.14 22.72) rotate(-12.08)"/><circle class="cls-5" cx="112.55" cy="154.78" r="0.53" transform="translate(-29.91 26.99) rotate(-12.08)"/><circle class="cls-5" cx="107.76" cy="153.7" r="0.53" transform="translate(-29.79 25.96) rotate(-12.08)"/><circle class="cls-5" cx="88.87" cy="157.74" r="0.53" transform="translate(-31.06 22.11) rotate(-12.09)"/><circle class="cls-5" cx="86.5" cy="162.1" r="0.53" transform="translate(-32.02 21.7) rotate(-12.08)"/><circle class="cls-5" cx="110.18" cy="159.14" r="0.53" transform="translate(-30.88 26.6) rotate(-12.09)"/><path class="cls-4" d="M201.17,124.73a27.81,27.81,0,0,0-22.48,11.41h45A27.81,27.81,0,0,0,201.17,124.73Z"/><path class="cls-3" d="M225.7,140.14H176.25a27.83,27.83,0,0,0-.41,24,27.86,27.86,0,0,0,49.86-24Z"/><path class="cls-3" d="M173.18,140.14h-.11a27.89,27.89,0,0,0-.36,17.2,27.89,27.89,0,0,1,.47-17.2Z"/><path class="cls-2" d="M176.25,140.14a27.85,27.85,0,0,1,47.4-4q.51.7,1,1.43c-.23-.49-.48-1-.74-1.43a27.85,27.85,0,0,0-51.18,21.2l0,.12q.23.75.5,1.48c.14.38.29.76.45,1.14l0,.08a27.88,27.88,0,0,0,2.25,4.32l-.14-.32a27.83,27.83,0,0,1,.41-24Z"/><path class="cls-2" d="M230.44,173.19c-1.41,0-3,.84-4.67,2.48a7.83,7.83,0,0,0-2.45,4.13,3.25,3.25,0,0,0,.95,2.86l8.38,9.13,9.24-9.24-9.11-8.37A3.22,3.22,0,0,0,230.44,173.19Z"/><path class="cls-2" d="M256.53,196l-10.44,10.44,5.49,6c1.47,1.47,5.23.23,8.19-2.74a12.11,12.11,0,0,0,3.07-4.81c.46-1.5.33-2.71-.35-3.4Z"/><path class="cls-5" d="M261.64,199.33,258,196l-1.09-1-15.76-14.47h20.61a5.61,5.61,0,0,0,5.6-5.6V150.48a5.61,5.61,0,0,0-5.6-5.6H233.25a34.15,34.15,0,0,0-67.74,0H129.1c0,.18.06.35.09.53l0,.17c.09.43.15.86.2,1.3h35.89a34.16,34.16,0,0,0,16.35,31.62H138l.2-9.66a2.15,2.15,0,0,0-.6-1.55h0L127.28,156.5l-.1-.12a2.16,2.16,0,0,0-.54-.4,13.44,13.44,0,0,0,1.78-4.4,3.11,3.11,0,0,0-.91-2.73,13.62,13.62,0,0,0-.25-3.14l0-.15a36.75,36.75,0,0,1-.79-9.31,23.09,23.09,0,0,0-.49-5.92,24.67,24.67,0,0,0-4.19-9.31c6.4-10.38,4.11-17.13,2.78-19.61a10.59,10.59,0,0,0-9.63-5.66h0c-5.59,0-11.42,3.7-16,10.16-.39.55-.77,1.13-1.16,1.76l-1.35,0a36.66,36.66,0,0,0-7.57.8,35.76,35.76,0,0,0-8.46,2.91c-.6-.41-1.17-.77-1.74-1.11a25.63,25.63,0,0,0-12.74-3.94c-6,0-10.63,3.07-12.06,8-2.15,7.44,3.62,14.55,10.13,19a24.66,24.66,0,0,0,0,10.26,23.09,23.09,0,0,0,2,5.6,35.69,35.69,0,0,1,2.52,6.58,3.07,3.07,0,0,0-.54,2.31,14.24,14.24,0,0,0,4,7.27,49.19,49.19,0,0,0-7.18,12.15,2,2,0,0,0-.13,1H41.39a3.61,3.61,0,0,1-3.6-3.6V150.48a3.61,3.61,0,0,1,3.6-3.6H62.71q-.33-1-.57-2H41.39a5.61,5.61,0,0,0-5.6,5.6v24.42a5.61,5.61,0,0,0,5.6,5.6H81.93l0,2.3-6.77-.14h0a1,1,0,0,0-1,1l-.72,34.11a1,1,0,0,0,0,.21,4.9,4.9,0,0,0,4.77,4.54h0l49.89,1.05,4.11.09h.1a4.92,4.92,0,0,0,4.89-4.79l.81-38.35h47.5a34.26,34.26,0,0,0,27.81,0h9a4.16,4.16,0,0,0,1.25,2.86l14.67,16,1.84,2,3.09,3.37.92,1,6.8,7.41a3.42,3.42,0,0,0,2.49.92c2.1,0,4.79-1.3,7.13-3.64a13.57,13.57,0,0,0,3.14-4.69c.07-.18.13-.36.19-.54s.08-.31.12-.46a4.45,4.45,0,0,0-.3-3.37,3,3,0,0,0-.44-.58ZM136.88,168l.23.32-10.81-.23.23-10.89Zm-71-59.65c.43,0,.88,0,1.33.06-.48,0-1-.06-1.42-.05Zm9.48,109.41s0,0,0-.07l.7-33,5.77.12-.68,32.8s0,0,0,.07a2.9,2.9,0,0,1-2.88,2.83h-.07A2.89,2.89,0,0,1,75.38,217.72Zm60.78,1.1a3.89,3.89,0,0,1-3.89,3.81h-.08l-4.11-.09-49.89-1.05h.08a3.89,3.89,0,0,0,3.89-3.8h0l1-48.85h.22a10.2,10.2,0,0,0,3.72-.68,11.36,11.36,0,0,0,3,1.33l0,2h0a1.16,1.16,0,0,0,1.14,1.11l30.33.64a1.16,1.16,0,0,0,1.18-1.06h0l.1-4.75a1.17,1.17,0,0,0-1.14-1.19l-11.1-.23a11.17,11.17,0,0,0,4.19-3.58l.15,0H115a12.91,12.91,0,0,0,6.37-2.9.5.5,0,0,0,0-.71l-.09-.06a.49.49,0,0,0-.62,0,12.26,12.26,0,0,1-5.24,2.52,6.46,6.46,0,0,0,.32-.69.5.5,0,0,0-.3-.64l-.13,0a.5.5,0,0,0-.51.32,10.09,10.09,0,0,1-6.16,5.43,12.83,12.83,0,0,1-5.45.53,11.06,11.06,0,0,1-1.29-.43l-1.19,0,.31-.36.5.24-1.26-5.86c.26-.08.51-.2.76-.27A3.47,3.47,0,0,0,102,159a3.75,3.75,0,0,0,.85-.86l1.31-2a2.3,2.3,0,0,0-2.48-3.49s-1.58.4-3.16.76l-3.19.6a2.41,2.41,0,0,0-.66,4.51l1.83,1a5.09,5.09,0,0,0,1.12.39c.32,0,.7.11,1.09.13l.71-.07h0l.31,1.44.95,4.42h0v.06a10.93,10.93,0,0,1-2.4,2,11.92,11.92,0,0,1-5.77,1c-5.46-.3-8.38-4.94-8.41-5a.52.52,0,0,0-.69-.16.5.5,0,0,0-.17.69,12.59,12.59,0,0,0,2.84,3c-4.12,1.22-8.24-.94-8.28-1a.5.5,0,0,0-.47.88,14.1,14.1,0,0,0,4.83,1.41l-.2,9.5H66.6c.25-.63.52-1.25.81-1.86.11-.24.23-.48.35-.72s.35-.73.54-1.09.32-.6.49-.9.31-.57.47-.85.4-.68.61-1l.41-.67c.24-.37.48-.74.72-1.11l.34-.51q.41-.6.84-1.19l.26-.36q.48-.64,1-1.27l.16-.2q.55-.69,1.12-1.36a12.78,12.78,0,0,1-4.82-7.37,1.1,1.1,0,0,1,.83-1.24h0q-.26-1-.56-2.08l0-.16c-.19-.63-.39-1.26-.62-1.88-.08-.22-.17-.43-.25-.65-.18-.47-.35-.94-.55-1.4-.3-.7-.62-1.39-1-2.08s-.59-1.27-.85-1.93q-.27-.71-.5-1.44c-.18-.57-.34-1.15-.46-1.75q-.14-.65-.24-1.3c0-.1,0-.21,0-.31,0-.34-.09-.67-.12-1,0-.1,0-.2,0-.3,0-.35,0-.7-.06-1,0-.08,0-.16,0-.24,0-.37,0-.74,0-1.12,0-.06,0-.11,0-.17,0-.4,0-.8.08-1.19v-.1q.06-.63.15-1.27v0q.1-.66.23-1.31h0a25.84,25.84,0,0,1,.65-2.51,26.38,26.38,0,0,1,2.72-5.11.5.5,0,0,0-.11-.7h0a30.51,30.51,0,0,1,5.43-6.77,31.56,31.56,0,0,1,14.85-7.5c13.83-2.93,23.22,3.8,23.31,3.87a.5.5,0,0,0,.59-.81A30.36,30.36,0,0,0,99,109.56c.22-.37.44-.75.68-1.12s.59-.92.92-1.37.75-1,1.13-1.49l.3-.37c.33-.4.66-.78,1-1.15l.17-.19c.39-.42.77-.8,1.17-1.17l.29-.26q.49-.45,1-.85l.25-.21q.59-.47,1.18-.88l.23-.15q.5-.33,1-.62l.28-.16c.39-.22.79-.42,1.18-.6l.12-.05c.35-.16.71-.29,1.06-.42l.29-.1c.38-.12.75-.23,1.12-.32h0c.38-.09.75-.15,1.12-.2l.29,0c.31,0,.62-.05.92-.06h.26c.32,0,.64,0,1,0l.24,0c.3,0,.6.08.89.15l.12,0a8.92,8.92,0,0,1,.93.27l.23.09a8.57,8.57,0,0,1,.82.36l.07,0a8.38,8.38,0,0,1,.81.48l.21.15a8.35,8.35,0,0,1,.73.58l.06.06a8.51,8.51,0,0,1,.61.63l.17.2a8.83,8.83,0,0,1,.57.77l.08.13c.15.24.3.49.43.76l.12.24a10.06,10.06,0,0,1,.39.94l.06.2q.14.43.26.88l.07.27c.08.36.14.72.19,1.1,0,.08,0,.17,0,.25q.05.49.07,1c0,.09,0,.18,0,.28q0,.61,0,1.25c0,.1,0,.2,0,.3q0,.56-.14,1.15c0,.09,0,.17,0,.26-.08.45-.17.92-.29,1.39l-.09.34c-.11.43-.24.86-.38,1.3l-.07.22c-.17.5-.36,1-.57,1.51l-.16.38c-.21.49-.43,1-.68,1.48l-.07.14c-.27.54-.57,1.08-.88,1.63l-.24.4-.45.75h0a14.59,14.59,0,0,0-3.66-3,.5.5,0,0,0-.47.88,13.94,13.94,0,0,1,3.57,3h0l0,.07a23.45,23.45,0,0,1,4.35,8.33q.18.65.32,1.31a21.05,21.05,0,0,1,.4,2.71q.05.68.07,1.35t0,1.34q-.06,1.24,0,2.47c0,.91.08,1.82.16,2.72a40.65,40.65,0,0,0,.7,4.62l0,.13c.07.36.12.71.16,1.07,0,.19,0,.38,0,.56s0,.3,0,.45,0,.5,0,.75q0,.1,0,.19c0,.29,0,.58-.08.87h.12a1.11,1.11,0,0,1,.91,1.27,11.66,11.66,0,0,1-2,4.42h-.12c-.23.32-.49.65-.77,1l2.07,0a1,1,0,0,0-.12.43L125.3,168a1,1,0,0,0,1,1l10.81.23h.13Zm97.29-71.94h28.28a3.61,3.61,0,0,1,3.6,3.6v24.42a3.61,3.61,0,0,1-3.6,3.6H238.95l-5.48-5a4.35,4.35,0,0,0-4.32-1.09l-2.5-2.5A34.1,34.1,0,0,0,233.45,146.88Zm-16.36,31.62a34,34,0,0,0,2.88-1.95l1.95,1.95Zm-17.71-1.35a27.83,27.83,0,0,1-23.55-13l.14.32a27.88,27.88,0,0,1-2.25-4.32l0-.08c-.16-.38-.31-.75-.45-1.14s-.35-1-.5-1.48l0-.12a27.89,27.89,0,0,1,.36-17.2h.11a27.85,27.85,0,0,1,50.71-4c.26.47.51.94.74,1.43q-.47-.73-1-1.43h-45a27.85,27.85,0,0,0-2.44,4H225.7a27.86,27.86,0,0,1-26.32,37Zm33.26,14.64-8.38-9.13a3.25,3.25,0,0,1-.95-2.86,7.83,7.83,0,0,1,2.45-4.13c1.64-1.64,3.26-2.48,4.67-2.48a3.22,3.22,0,0,1,2.34,1l9.11,8.37Zm30.2,13.08a12.11,12.11,0,0,1-3.07,4.81c-3,3-6.72,4.2-8.19,2.74l-5.49-6L256.53,196l6,5.48C263.18,202.16,263.31,203.37,262.85,204.87Z"/><path class="cls-3" d="M195.07,51.08a17.24,17.24,0,0,0,.46,4.69h.73A22.11,22.11,0,0,1,195.07,51.08Z"/><path class="cls-2" d="M197.42,56.54a.5.5,0,0,0,0-.48A19,19,0,0,1,196,47.14a8.71,8.71,0,0,1,1-3c1.34-2.41,3.91-3.88,7.66-4.39C216.92,38,221.79,50.28,222,50.8a.51.51,0,0,0,.51.32.5.5,0,0,0,.45-.4c.06-.29,1.53-7.08,8.55-5.75,7.18,1.37,12.64,12,12.7,12.13a.5.5,0,0,0,.45.27h18.82a.5.5,0,0,0,0-1H244.94c-.94-1.76-6.18-11-13.26-12.39-6-1.15-8.45,3-9.31,5.25-1.66-3.27-7.15-12-17.84-10.53-4.07.55-6.9,2.2-8.39,4.9a12.07,12.07,0,0,0-1.07,7.47,22.11,22.11,0,0,0,1.2,4.69H175.39a.5.5,0,0,0,0,1H197A.5.5,0,0,0,197.42,56.54Z"/><path class="cls-3" d="M175,61.21h89.06a1,1,0,0,0,0-2H243.38c-1.85-3.39-6.43-10.68-12.16-11.78-7.61-1.45-9.13,6.14-9.13,6.14S217,40.42,204.23,42.16c-4.58.62-7,2.59-8.19,5a19,19,0,0,0,1.43,8.92.5.5,0,0,1-.46.7h-1.22a19.65,19.65,0,0,0,.84,2.44H175a1,1,0,0,0,0,2Z"/><path class="cls-3" d="M66,74.41a9.34,9.34,0,0,0,.18,2h.35A12.65,12.65,0,0,1,66,74.41Z"/><path class="cls-2" d="M67.66,77.23a.5.5,0,0,0,0-.48A9.67,9.67,0,0,1,67,71.29a4.33,4.33,0,0,1,.39-1c.71-1.27,2.08-2.06,4.09-2.33,6.64-.89,9.29,5.75,9.4,6a.49.49,0,0,0,.51.32.47.47,0,0,0,.15-.06.48.48,0,0,0,.3-.33s0-.09.05-.21a3.68,3.68,0,0,1,4.44-2.82c3.89.74,6.88,6.1,6.91,6.15a.5.5,0,0,0,.44.26h10.46a.5.5,0,1,0,0-1H94c-.68-1.15-3.58-5.65-7.45-6.39a4.52,4.52,0,0,0-5.25,2.61C80.14,70.42,77,66.2,71.39,67c-2.34.32-4,1.27-4.83,2.83A7.14,7.14,0,0,0,66,74.41a12.65,12.65,0,0,0,.52,2H55.22a.5.5,0,0,0,0,1h12A.5.5,0,0,0,67.66,77.23Z"/><path class="cls-3" d="M55.07,80.81H104.6a1,1,0,0,0,0-2H92.87c-1-1.88-3.57-6-6.77-6.56a3.91,3.91,0,0,0-4.17,1.46c0,.11,0,.19-.05.21a.48.48,0,0,1-.3.33A5.45,5.45,0,0,0,81,75.66s-2.81-7.32-9.93-6.35a6,6,0,0,0-4.05,2,9.67,9.67,0,0,0,.65,5.47.5.5,0,0,1-.46.7H66.4a10.82,10.82,0,0,0,.47,1.35H55.07a1,1,0,0,0,0,2Z"/><ellipse class="cls-2" cx="149.88" cy="243.84" rx="115.63" ry="6.16"/></svg>