<svg xmlns="http://www.w3.org/2000/svg" width="267" height="240">
  <defs>
    <linearGradient id="a" x1="-287.251713%" x2="363.382118%" y1="-127.999431%" y2="247.172106%">
      <stop stop-color="#FFCCD7" offset="40.06%"/>
      <stop stop-color="#EDBEE2" offset="100%"/>
    </linearGradient>
    <linearGradient id="b" x1="-8347.28%" x2="11424.26%" y1="-8337.33%" y2="11434.21%">
      <stop stop-color="#FFCCD7" offset="40.06%"/>
      <stop stop-color="#EDBEE2" offset="100%"/>
    </linearGradient>
    <linearGradient id="c" x1="-2354.3122%" x2="2468.01463%" y1="-738.5544%" y2="843.1688%">
      <stop stop-color="#FFCCD7" offset="40.06%"/>
      <stop stop-color="#EDBEE2" offset="100%"/>
    </linearGradient>
    <linearGradient id="d" x1="-11316.73%" x2="8454.81%" y1="-5346.60952%" y2="4068.40952%">
      <stop stop-color="#FFCCD7" offset="40.06%"/>
      <stop stop-color="#EDBEE2" offset="100%"/>
    </linearGradient>
    <linearGradient id="e" x1="-156.148629%" x2="205.305484%" y1="-480.49483%" y2="430.938303%">
      <stop stop-color="#FFCCD7" offset="40.06%"/>
      <stop stop-color="#EDBEE2" offset="100%"/>
    </linearGradient>
    <linearGradient id="f" x1="-11777.11%" x2="7994.43%" y1="-1542.90541%" y2="1128.92432%">
      <stop stop-color="#FFCCD7" offset="40.06%"/>
      <stop stop-color="#EDBEE2" offset="100%"/>
    </linearGradient>
    <linearGradient id="g" x1="-1966.10678%" x2="1385.00169%" y1="-2646.49545%" y2="1847.03636%">
      <stop stop-color="#FFCCD7" offset="40.06%"/>
      <stop stop-color="#EDBEE2" offset="100%"/>
    </linearGradient>
    <linearGradient id="h" x1="-1259.26087%" x2="945.558937%" y1="-1283.95691%" y2="942.373333%">
      <stop stop-color="#FFCCD7" offset="40.06%"/>
      <stop stop-color="#EDBEE2" offset="100%"/>
    </linearGradient>
    <linearGradient id="i" x1="-4828.28387%" x2="3895.46452%" y1="-2550.56897%" y2="2112.12414%">
      <stop stop-color="#FFE900" offset="28.07%"/>
      <stop stop-color="#FFCC07" offset="32.21%"/>
      <stop stop-color="#FF8119" offset="41.22%"/>
      <stop stop-color="#FF0B36" offset="54.35%"/>
      <stop stop-color="#FF0039" offset="55.5%"/>
      <stop stop-color="#ED00B5" offset="85.24%"/>
    </linearGradient>
    <linearGradient id="j" x1="-1420.34388%" x2="1159.68716%" y1="-3565.4194%" y2="2819.67133%">
      <stop stop-color="#FFE900" offset="28.07%"/>
      <stop stop-color="#FFCC07" offset="32.21%"/>
      <stop stop-color="#FF8119" offset="41.22%"/>
      <stop stop-color="#FF0B36" offset="54.35%"/>
      <stop stop-color="#FF0039" offset="55.5%"/>
      <stop stop-color="#ED00B5" offset="85.24%"/>
    </linearGradient>
    <linearGradient id="k" x1="-6578.28%" x2="13193.26%" y1="-6566.33%" y2="13205.21%">
      <stop stop-color="#FFCCD7" offset="40.06%"/>
      <stop stop-color="#EDBEE2" offset="100%"/>
    </linearGradient>
    <linearGradient id="l" x1="-690.589109%" x2="1266.98911%" y1="-1068.60597%" y2="1882.37015%">
      <stop stop-color="#FFCCD7" offset="40.06%"/>
      <stop stop-color="#EDBEE2" offset="100%"/>
    </linearGradient>
    <linearGradient id="m" x1="-3693.78418%" x2="6240.18862%" y1="-1360.99327%" y2="2373.67085%">
      <stop stop-color="#FFCCD7" offset="40.06%"/>
      <stop stop-color="#EDBEE2" offset="100%"/>
    </linearGradient>
    <linearGradient id="n" x1="-51.4002563%" x2="99.3496099%" y1="-59.6430664%" y2="133.087695%">
      <stop stop-color="#FFE900" offset="28.07%"/>
      <stop stop-color="#FFCC07" offset="32.21%"/>
      <stop stop-color="#FF8119" offset="41.22%"/>
      <stop stop-color="#FF0B36" offset="54.35%"/>
      <stop stop-color="#FF0039" offset="55.5%"/>
      <stop stop-color="#ED00B5" offset="85.24%"/>
    </linearGradient>
    <linearGradient id="o" x1="-47.4074974%" x2="121.810771%" y1="-106.87209%" y2="132.306567%">
      <stop stop-color="#FFE900" offset="28.07%"/>
      <stop stop-color="#FFCC07" offset="32.21%"/>
      <stop stop-color="#FF8119" offset="41.22%"/>
      <stop stop-color="#FF0B36" offset="54.35%"/>
      <stop stop-color="#FF0039" offset="55.5%"/>
      <stop stop-color="#ED00B5" offset="85.24%"/>
    </linearGradient>
    <linearGradient id="p" x1="-701.943676%" x2="609.202314%" y1="-537.964802%" y2="487.22249%">
      <stop stop-color="#FFE900" offset="28.07%"/>
      <stop stop-color="#FFCC07" offset="32.21%"/>
      <stop stop-color="#FF8119" offset="41.22%"/>
      <stop stop-color="#FF0B36" offset="54.35%"/>
      <stop stop-color="#FF0039" offset="55.5%"/>
      <stop stop-color="#ED00B5" offset="85.24%"/>
    </linearGradient>
    <linearGradient id="q" x1="-1074.53%" x2="834.91%" y1="-358.218519%" y2="348.981481%">
      <stop stop-color="#FFE900" offset="28.07%"/>
      <stop stop-color="#FFCC07" offset="32.21%"/>
      <stop stop-color="#FF8119" offset="41.22%"/>
      <stop stop-color="#FF0B36" offset="54.35%"/>
      <stop stop-color="#FF0039" offset="55.5%"/>
      <stop stop-color="#ED00B5" offset="85.24%"/>
    </linearGradient>
    <linearGradient id="r" x1="-5230.64688%" x2="3222.21875%" y1="-2856.73793%" y2="1806.91207%">
      <stop stop-color="#FFE900" offset="28.07%"/>
      <stop stop-color="#FFCC07" offset="32.21%"/>
      <stop stop-color="#FF8119" offset="41.22%"/>
      <stop stop-color="#FF0B36" offset="54.35%"/>
      <stop stop-color="#FF0039" offset="55.5%"/>
      <stop stop-color="#ED00B5" offset="85.24%"/>
    </linearGradient>
    <linearGradient id="s" x1="-1536.40601%" x2="955.898444%" y1="-3896.2795%" y2="2345.49035%">
      <stop stop-color="#FFE900" offset="28.07%"/>
      <stop stop-color="#FFCC07" offset="32.21%"/>
      <stop stop-color="#FF8119" offset="41.22%"/>
      <stop stop-color="#FF0B36" offset="54.35%"/>
      <stop stop-color="#FF0039" offset="55.5%"/>
      <stop stop-color="#ED00B5" offset="85.24%"/>
    </linearGradient>
    <linearGradient id="t" x1="-2573.03736%" x2="4141.82528%" y1="-7694%" y2="12077.54%">
      <stop stop-color="#FFCCD7" offset="40.06%"/>
      <stop stop-color="#EDBEE2" offset="100%"/>
    </linearGradient>
    <linearGradient id="u" x1="-105.756%" x2="253.726545%" y1="-959.543678%" y2="1313.04713%">
      <stop stop-color="#FFCCD7" offset="40.06%"/>
      <stop stop-color="#EDBEE2" offset="100%"/>
    </linearGradient>
    <linearGradient id="v" x1="-113.495628%" x2="246.641894%" y1="-1951.93556%" y2="2441.74%">
      <stop stop-color="#FFCCD7" offset="40.06%"/>
      <stop stop-color="#EDBEE2" offset="100%"/>
    </linearGradient>
    <linearGradient id="w" x1="-203.741261%" x2="362.77851%" y1="-8794.04%" y2="10977.5%">
      <stop stop-color="#FFCCD7" offset="40.06%"/>
      <stop stop-color="#EDBEE2" offset="100%"/>
    </linearGradient>
    <linearGradient id="x" x1="-8901.65455%" x2="9072.47273%" y1="-4629.9%" y2="4785.11905%">
      <stop stop-color="#FFCCD7" offset="40.06%"/>
      <stop stop-color="#EDBEE2" offset="100%"/>
    </linearGradient>
    <linearGradient id="y" x1="-135.885507%" x2="273.463147%" y1="-6854.87692%" y2="8354%">
      <stop stop-color="#FFCCD7" offset="40.06%"/>
      <stop stop-color="#EDBEE2" offset="100%"/>
    </linearGradient>
    <linearGradient id="z" x1="-237.240755%" x2="222.496119%" y1="-950.902381%" y2="659.16369%">
      <stop stop-color="#FFE900" offset="28.07%"/>
      <stop stop-color="#FFCC07" offset="32.21%"/>
      <stop stop-color="#FF8119" offset="41.22%"/>
      <stop stop-color="#FF0B36" offset="54.35%"/>
      <stop stop-color="#FF0039" offset="55.5%"/>
      <stop stop-color="#ED00B5" offset="85.24%"/>
    </linearGradient>
    <linearGradient id="A" x1="-323.294457%" x2="276.418625%" y1="-16784.12%" y2="10262.94%">
      <stop stop-color="#FFE900" offset="28.07%"/>
      <stop stop-color="#FFCC07" offset="32.21%"/>
      <stop stop-color="#FF8119" offset="41.22%"/>
      <stop stop-color="#FF0B36" offset="54.35%"/>
      <stop stop-color="#FF0039" offset="55.5%"/>
      <stop stop-color="#ED00B5" offset="85.24%"/>
    </linearGradient>
    <linearGradient id="B" x1="-324.50885%" x2="273.863496%" y1="-16876.15%" y2="10170.29%">
      <stop stop-color="#FFE900" offset="28.07%"/>
      <stop stop-color="#FFCC07" offset="32.21%"/>
      <stop stop-color="#FF8119" offset="41.22%"/>
      <stop stop-color="#FF0B36" offset="54.35%"/>
      <stop stop-color="#FF0039" offset="55.5%"/>
      <stop stop-color="#ED00B5" offset="85.24%"/>
    </linearGradient>
    <linearGradient id="C" x1="-8757.43409%" x2="-13250.9636%" y1="-25788.3267%" y2="-38969.3533%">
      <stop stop-color="#FFCCD7" offset="40.06%"/>
      <stop stop-color="#EDBEE2" offset="100%"/>
    </linearGradient>
    <linearGradient id="D" x1="-4977.81154%" x2="-7512.62308%" y1="-21732.3667%" y2="-32716.5611%">
      <stop stop-color="#FFCCD7" offset="40.06%"/>
      <stop stop-color="#EDBEE2" offset="100%"/>
    </linearGradient>
    <linearGradient id="E" x1="-778.197863%" x2="-1200.66709%" y1="-2873.70382%" y2="-4382.98244%">
      <stop stop-color="#FFCCD7" offset="40.06%"/>
      <stop stop-color="#EDBEE2" offset="100%"/>
    </linearGradient>
    <linearGradient id="F" x1="-3162.7925%" x2="-4810.42083%" y1="-25654.4533%" y2="-38835.4867%">
      <stop stop-color="#FFCCD7" offset="40.06%"/>
      <stop stop-color="#EDBEE2" offset="100%"/>
    </linearGradient>
    <linearGradient id="G" x1="-1053.32338%" x2="1514.40909%" y1="-4984.71765%" y2="6645.6%">
      <stop stop-color="#FFCCD7" offset="40.06%"/>
      <stop stop-color="#EDBEE2" offset="100%"/>
    </linearGradient>
    <linearGradient id="H" x1="-5039.72338%" x2="-7607.45714%" y1="-23040.7706%" y2="-34671.0941%">
      <stop stop-color="#FFCCD7" offset="40.06%"/>
      <stop stop-color="#EDBEE2" offset="100%"/>
    </linearGradient>
    <linearGradient id="I" x1="143.631333%" x2="-4.86%" y1="790.352632%" y2="-381.952632%">
      <stop stop-color="#FFE900" offset="28.07%"/>
      <stop stop-color="#FFCC07" offset="32.21%"/>
      <stop stop-color="#FF8119" offset="41.22%"/>
      <stop stop-color="#FF0B36" offset="54.35%"/>
      <stop stop-color="#FF0039" offset="55.5%"/>
      <stop stop-color="#ED00B5" offset="85.24%"/>
    </linearGradient>
    <linearGradient id="J" x1="-2552.41333%" x2="-3870.516%" y1="-20494.2053%" y2="-30900.2789%">
      <stop stop-color="#FFCCD7" offset="40.06%"/>
      <stop stop-color="#EDBEE2" offset="100%"/>
    </linearGradient>
    <linearGradient id="K" x1="-1250.60304%" x2="-1918.56115%" y1="-38487.33%" y2="-58258.87%">
      <stop stop-color="#FFCCD7" offset="40.06%"/>
      <stop stop-color="#EDBEE2" offset="100%"/>
    </linearGradient>
    <linearGradient id="L" x1="-37598.9%" x2="-57370.44%" y1="-17879.1857%" y2="-27294.2048%">
      <stop stop-color="#FFCCD7" offset="40.06%"/>
      <stop stop-color="#EDBEE2" offset="100%"/>
    </linearGradient>
    <linearGradient id="M" x1="-882.727251%" x2="-1363.78637%" y1="-29434.6846%" y2="-44643.5692%">
      <stop stop-color="#FFCCD7" offset="40.06%"/>
      <stop stop-color="#EDBEE2" offset="100%"/>
    </linearGradient>
    <linearGradient id="N" x1="-268.313828%" x2="273.677355%" y1="-882.118713%" y2="699.481287%">
      <stop stop-color="#FFE900" offset="28.07%"/>
      <stop stop-color="#FFCC07" offset="32.21%"/>
      <stop stop-color="#FF8119" offset="41.22%"/>
      <stop stop-color="#FF0B36" offset="54.35%"/>
      <stop stop-color="#FF0039" offset="55.5%"/>
      <stop stop-color="#ED00B5" offset="85.24%"/>
    </linearGradient>
    <linearGradient id="O" x1="-420.455862%" x2="943.098621%" y1="-4784.28571%" y2="9338.24286%">
      <stop stop-color="#FFCCD7" offset="40.06%"/>
      <stop stop-color="#EDBEE2" offset="100%"/>
    </linearGradient>
    <linearGradient id="P" x1="-587.656122%" x2="1429.84796%" y1="-3859.74375%" y2="8497.475%">
      <stop stop-color="#FFCCD7" offset="40.06%"/>
      <stop stop-color="#EDBEE2" offset="100%"/>
    </linearGradient>
    <linearGradient id="Q" x1="-597.567708%" x2="1461.96771%" y1="-6217.96%" y2="13553.58%">
      <stop stop-color="#FFCCD7" offset="40.06%"/>
      <stop stop-color="#EDBEE2" offset="100%"/>
    </linearGradient>
    <linearGradient id="R" x1="-989.3%" x2="1835.20571%" y1="-6563.19091%" y2="11410.9364%">
      <stop stop-color="#FFCCD7" offset="40.06%"/>
      <stop stop-color="#EDBEE2" offset="100%"/>
    </linearGradient>
    <linearGradient id="S" x1="-1683.03158%" x2="3520.00526%" y1="-4061.93125%" y2="8295.28125%">
      <stop stop-color="#FFCCD7" offset="40.06%"/>
      <stop stop-color="#EDBEE2" offset="100%"/>
    </linearGradient>
    <linearGradient id="T" x1="-289.56383%" x2="551.778298%" y1="-736.619802%" y2="1220.95842%">
      <stop stop-color="#FFCCD7" offset="40.06%"/>
      <stop stop-color="#EDBEE2" offset="100%"/>
    </linearGradient>
    <linearGradient id="U" x1="-8102.24%" x2="11669.3%" y1="-8112.37%" y2="11659.17%">
      <stop stop-color="#FFCCD7" offset="40.06%"/>
      <stop stop-color="#EDBEE2" offset="100%"/>
    </linearGradient>
    <linearGradient id="V" x1="-527.27218%" x2="959.309774%" y1="-7671.89%" y2="12099.65%">
      <stop stop-color="#FFCCD7" offset="40.06%"/>
      <stop stop-color="#EDBEE2" offset="100%"/>
    </linearGradient>
    <linearGradient id="W" x1="-563.298261%" x2="1155.96609%" y1="-4360.425%" y2="7996.7875%">
      <stop stop-color="#FFCCD7" offset="40.06%"/>
      <stop stop-color="#EDBEE2" offset="100%"/>
    </linearGradient>
    <linearGradient id="X" x1="-595.656881%" x2="1218.24587%" y1="-7031.95%" y2="12739.59%">
      <stop stop-color="#FFCCD7" offset="40.06%"/>
      <stop stop-color="#EDBEE2" offset="100%"/>
    </linearGradient>
    <linearGradient id="Y" x1="-4261.16471%" x2="7369.15294%" y1="-5186.16429%" y2="8936.36429%">
      <stop stop-color="#FFCCD7" offset="40.06%"/>
      <stop stop-color="#EDBEE2" offset="100%"/>
    </linearGradient>
    <linearGradient id="Z" x1="-7291.52%" x2="12480.03%" y1="-7323.1%" y2="12448.44%">
      <stop stop-color="#FFCCD7" offset="40.06%"/>
      <stop stop-color="#EDBEE2" offset="100%"/>
    </linearGradient>
    <linearGradient id="aa" x1="-46.8866667%" x2="106.777333%" y1="-610.354545%" y2="437.354545%">
      <stop stop-color="#FFE900" offset="28.07%"/>
      <stop stop-color="#FFCC07" offset="32.21%"/>
      <stop stop-color="#FF8119" offset="41.22%"/>
      <stop stop-color="#FF0B36" offset="54.35%"/>
      <stop stop-color="#FF0039" offset="55.5%"/>
      <stop stop-color="#ED00B5" offset="85.24%"/>
    </linearGradient>
    <linearGradient id="ab" x1="-954.992%" x2="1681.21333%" y1="-6801.97273%" y2="11172.1545%">
      <stop stop-color="#FFCCD7" offset="40.06%"/>
      <stop stop-color="#EDBEE2" offset="100%"/>
    </linearGradient>
    <linearGradient id="ac" x1="-53.1965517%" x2="108.827586%" y1="-138.8375%" y2="154.825%">
      <stop stop-color="#FFE900" offset="28.07%"/>
      <stop stop-color="#FFCC07" offset="32.21%"/>
      <stop stop-color="#FF8119" offset="41.22%"/>
      <stop stop-color="#FF0B36" offset="54.35%"/>
      <stop stop-color="#FF0039" offset="55.5%"/>
      <stop stop-color="#ED00B5" offset="85.24%"/>
    </linearGradient>
    <linearGradient id="ad" x1="-2268.40345%" x2="4549.36897%" y1="-4153.9%" y2="8203.3125%">
      <stop stop-color="#FFCCD7" offset="40.06%"/>
      <stop stop-color="#EDBEE2" offset="100%"/>
    </linearGradient>
    <linearGradient id="ae" x1="-134.196822%" x2="349.214914%" y1="-7485.96%" y2="12285.58%">
      <stop stop-color="#FFCCD7" offset="40.06%"/>
      <stop stop-color="#EDBEE2" offset="100%"/>
    </linearGradient>
    <linearGradient id="af" x1="-203.129153%" x2="467.092542%" y1="-7412.3%" y2="12359.24%">
      <stop stop-color="#FFCCD7" offset="40.06%"/>
      <stop stop-color="#EDBEE2" offset="100%"/>
    </linearGradient>
    <linearGradient id="ag" x1="-8254.16%" x2="11517.38%" y1="-4829.67647%" y2="6800.64118%">
      <stop stop-color="#FFCCD7" offset="40.06%"/>
      <stop stop-color="#EDBEE2" offset="100%"/>
    </linearGradient>
    <linearGradient id="ah" x1="-261.207831%" x2="281.860241%" y1="-1137.19462%" y2="943.173846%">
      <stop stop-color="#FFE900" offset="28.07%"/>
      <stop stop-color="#FFCC07" offset="32.21%"/>
      <stop stop-color="#FF8119" offset="41.22%"/>
      <stop stop-color="#FF0B36" offset="54.35%"/>
      <stop stop-color="#FF0039" offset="55.5%"/>
      <stop stop-color="#ED00B5" offset="85.24%"/>
    </linearGradient>
    <linearGradient id="ai" x1="-353.298433%" x2="352.892428%" y1="-15403.61%" y2="11643.5%">
      <stop stop-color="#FFE900" offset="28.07%"/>
      <stop stop-color="#FFCC07" offset="32.21%"/>
      <stop stop-color="#FF8119" offset="41.22%"/>
      <stop stop-color="#FF0B36" offset="54.35%"/>
      <stop stop-color="#FF0039" offset="55.5%"/>
      <stop stop-color="#ED00B5" offset="85.24%"/>
    </linearGradient>
    <linearGradient id="aj" x1="-355.267885%" x2="350.914099%" y1="-15487.8%" y2="11558.97%">
      <stop stop-color="#FFE900" offset="28.07%"/>
      <stop stop-color="#FFCC07" offset="32.21%"/>
      <stop stop-color="#FF8119" offset="41.22%"/>
      <stop stop-color="#FF0B36" offset="54.35%"/>
      <stop stop-color="#FF0039" offset="55.5%"/>
      <stop stop-color="#ED00B5" offset="85.24%"/>
    </linearGradient>
    <linearGradient id="ak" x1="-2084.69358%" x2="-3141.99572%" y1="-5548.86479%" y2="-8333.58732%">
      <stop stop-color="#FFCCD7" offset="40.06%"/>
      <stop stop-color="#EDBEE2" offset="100%"/>
    </linearGradient>
    <linearGradient id="al" x1="-2136.94011%" x2="-3223.28791%" y1="-39758.41%" y2="-59529.95%">
      <stop stop-color="#FFCCD7" offset="40.06%"/>
      <stop stop-color="#EDBEE2" offset="100%"/>
    </linearGradient>
    <linearGradient id="am" x1="-8671.43111%" x2="-13065.1111%" y1="-39159.26%" y2="-58930.8%">
      <stop stop-color="#FFCCD7" offset="40.06%"/>
      <stop stop-color="#EDBEE2" offset="100%"/>
    </linearGradient>
    <linearGradient id="an" x1="42.05%" x2="39.02%" y1="40.85%" y2="37.83%">
      <stop stop-color="#FFCCD7" offset="40.06%"/>
      <stop stop-color="#EDBEE2" offset="100%"/>
    </linearGradient>
    <linearGradient id="ao" x1="-1655.02189%" x2="-2503.58541%" y1="-18008.5045%" y2="-26995.5636%">
      <stop stop-color="#FFCCD7" offset="40.06%"/>
      <stop stop-color="#EDBEE2" offset="100%"/>
    </linearGradient>
    <linearGradient id="ap" x1="26.16%" x2="23.82%" y1="17.93%" y2="15.58%">
      <stop stop-color="#FFCCD7" offset="40.06%"/>
      <stop stop-color="#EDBEE2" offset="100%"/>
    </linearGradient>
    <linearGradient id="aq" x1="-7321.04%" x2="-10915.8655%" y1="-26976.66%" y2="-40157.6867%">
      <stop stop-color="#FFCCD7" offset="40.06%"/>
      <stop stop-color="#EDBEE2" offset="100%"/>
    </linearGradient>
    <linearGradient id="ar" x1="-3806.45143%" x2="-5689.45619%" y1="-33702.4583%" y2="-50178.75%">
      <stop stop-color="#FFCCD7" offset="40.06%"/>
      <stop stop-color="#EDBEE2" offset="100%"/>
    </linearGradient>
    <linearGradient id="as" x1="-719.07449%" x2="1298.42959%" y1="-4375.10588%" y2="7255.21176%">
      <stop stop-color="#FFCCD7" offset="40.06%"/>
      <stop stop-color="#EDBEE2" offset="100%"/>
    </linearGradient>
    <linearGradient id="at" x1="-4193.87653%" x2="-6211.37959%" y1="-24406.3118%" y2="-36036.6294%">
      <stop stop-color="#FFCCD7" offset="40.06%"/>
      <stop stop-color="#EDBEE2" offset="100%"/>
    </linearGradient>
    <linearGradient id="au" x1="-524.679508%" x2="1095.93852%" y1="-4333.45%" y2="8023.7625%">
      <stop stop-color="#FFCCD7" offset="40.06%"/>
      <stop stop-color="#EDBEE2" offset="100%"/>
    </linearGradient>
    <linearGradient id="av" x1="-3315.91393%" x2="-4936.53115%" y1="-25616.6063%" y2="-37973.8188%">
      <stop stop-color="#FFCCD7" offset="40.06%"/>
      <stop stop-color="#EDBEE2" offset="100%"/>
    </linearGradient>
    <linearGradient id="aw" x1="-1422.94082%" x2="2612.06735%" y1="-5115.85714%" y2="9006.67143%">
      <stop stop-color="#FFCCD7" offset="40.06%"/>
      <stop stop-color="#EDBEE2" offset="100%"/>
    </linearGradient>
    <linearGradient id="ax" x1="-8372.54082%" x2="-12407.5531%" y1="-29439.4643%" y2="-43561.9929%">
      <stop stop-color="#FFCCD7" offset="40.06%"/>
      <stop stop-color="#EDBEE2" offset="100%"/>
    </linearGradient>
    <linearGradient id="ay" x1="-2040.6303%" x2="3950.74545%" y1="-6860.53%" y2="12911.01%">
      <stop stop-color="#FFCCD7" offset="40.06%"/>
      <stop stop-color="#EDBEE2" offset="100%"/>
    </linearGradient>
    <linearGradient id="az" x1="-12359.7364%" x2="-18351.1091%" y1="-40913.58%" y2="-60685.12%">
      <stop stop-color="#FFCCD7" offset="40.06%"/>
      <stop stop-color="#EDBEE2" offset="100%"/>
    </linearGradient>
    <linearGradient id="aA" x1="-1005.75152%" x2="1989.93788%" y1="-6296.96364%" y2="11677.1727%">
      <stop stop-color="#FFCCD7" offset="40.06%"/>
      <stop stop-color="#EDBEE2" offset="100%"/>
    </linearGradient>
    <linearGradient id="aB" x1="-6165.30303%" x2="-9160.98939%" y1="-37254.2727%" y2="-55228.4%">
      <stop stop-color="#FFCCD7" offset="40.06%"/>
      <stop stop-color="#EDBEE2" offset="100%"/>
    </linearGradient>
    <linearGradient id="aC" x1="-2871.84%" x2="5036.776%" y1="-4515.63125%" y2="7841.58125%">
      <stop stop-color="#FFCCD7" offset="40.06%"/>
      <stop stop-color="#EDBEE2" offset="100%"/>
    </linearGradient>
    <linearGradient id="aD" x1="-16493.056%" x2="-24401.672%" y1="-25798.7875%" y2="-38156%">
      <stop stop-color="#FFCCD7" offset="40.06%"/>
      <stop stop-color="#EDBEE2" offset="100%"/>
    </linearGradient>
    <linearGradient id="aE" x1="-4836.46667%" x2="8344.56%" y1="-7269.91%" y2="12501.63%">
      <stop stop-color="#FFCCD7" offset="40.06%"/>
      <stop stop-color="#EDBEE2" offset="100%"/>
    </linearGradient>
    <linearGradient id="aF" x1="-27538.4933%" x2="-40719.52%" y1="-41322.96%" y2="-61094.5%">
      <stop stop-color="#FFCCD7" offset="40.06%"/>
      <stop stop-color="#EDBEE2" offset="100%"/>
    </linearGradient>
    <linearGradient id="aG" x1="123.979381%" x2="7.09896907%" y1="645.125%" y2="-299.65%">
      <stop stop-color="#FFE900" offset="28.07%"/>
      <stop stop-color="#FFCC07" offset="32.21%"/>
      <stop stop-color="#FF8119" offset="41.22%"/>
      <stop stop-color="#FF0B36" offset="54.35%"/>
      <stop stop-color="#FF0039" offset="55.5%"/>
      <stop stop-color="#ED00B5" offset="85.24%"/>
    </linearGradient>
    <linearGradient id="aH" x1="-4143.41443%" x2="-6181.71959%" y1="-33849.65%" y2="-50325.925%">
      <stop stop-color="#FFCCD7" offset="40.06%"/>
      <stop stop-color="#EDBEE2" offset="100%"/>
    </linearGradient>
    <linearGradient id="aI" x1="110.22963%" x2="13.6574074%" y1="263.406667%" y2="-84.2533333%">
      <stop stop-color="#FFE900" offset="28.07%"/>
      <stop stop-color="#FFCC07" offset="32.21%"/>
      <stop stop-color="#FF8119" offset="41.22%"/>
      <stop stop-color="#FF0B36" offset="54.35%"/>
      <stop stop-color="#FF0039" offset="55.5%"/>
      <stop stop-color="#ED00B5" offset="85.24%"/>
    </linearGradient>
    <linearGradient id="aJ" x1="-7493.57037%" x2="-11154.9667%" y1="-27110.28%" y2="-40291.3067%">
      <stop stop-color="#FFCCD7" offset="40.06%"/>
      <stop stop-color="#EDBEE2" offset="100%"/>
    </linearGradient>
    <linearGradient id="aK" x1="-1314.06588%" x2="-1982.02331%" y1="-40374.36%" y2="-60145.89%">
      <stop stop-color="#FFCCD7" offset="40.06%"/>
      <stop stop-color="#EDBEE2" offset="100%"/>
    </linearGradient>
    <linearGradient id="aL" x1="-39504.49%" x2="-59276.05%" y1="-23215.4176%" y2="-34845.7353%">
      <stop stop-color="#FFCCD7" offset="40.06%"/>
      <stop stop-color="#EDBEE2" offset="100%"/>
    </linearGradient>
    <linearGradient id="aM" x1="-935.697066%" x2="-1419.10856%" y1="-40260.71%" y2="-60032.24%">
      <stop stop-color="#FFCCD7" offset="40.06%"/>
      <stop stop-color="#EDBEE2" offset="100%"/>
    </linearGradient>
    <linearGradient id="aN" x1="-239.365731%" x2="302.59479%" y1="-1057.81832%" y2="1006.59618%">
      <stop stop-color="#FFE900" offset="28.07%"/>
      <stop stop-color="#FFCC07" offset="32.21%"/>
      <stop stop-color="#FF8119" offset="41.22%"/>
      <stop stop-color="#FF0B36" offset="54.35%"/>
      <stop stop-color="#FF0039" offset="55.5%"/>
      <stop stop-color="#ED00B5" offset="85.24%"/>
    </linearGradient>
    <linearGradient id="aO" x1="-195.98196%" x2="188.238494%" y1="-262.20413%" y2="218.292299%">
      <stop stop-color="#FFE900" offset="28.07%"/>
      <stop stop-color="#FFCC07" offset="32.21%"/>
      <stop stop-color="#FF8119" offset="41.22%"/>
      <stop stop-color="#FF0B36" offset="54.35%"/>
      <stop stop-color="#FF0039" offset="55.5%"/>
      <stop stop-color="#ED00B5" offset="85.24%"/>
    </linearGradient>
    <linearGradient id="aP" x1="-148.239568%" x2="156.504317%" y1="-236.10625%" y2="205.1375%">
      <stop stop-color="#FFE900" offset="28.07%"/>
      <stop stop-color="#FFCC07" offset="32.21%"/>
      <stop stop-color="#FF8119" offset="41.22%"/>
      <stop stop-color="#FF0B36" offset="54.35%"/>
      <stop stop-color="#FF0039" offset="55.5%"/>
      <stop stop-color="#ED00B5" offset="85.24%"/>
    </linearGradient>
    <linearGradient id="aQ" x1="-684.479137%" x2="737.933813%" y1="-1012.53646%" y2="1046.99896%">
      <stop stop-color="#FFCCD7" offset="40.06%"/>
      <stop stop-color="#EDBEE2" offset="100%"/>
    </linearGradient>
    <linearGradient id="aR" x1="-802.736152%" x2="689.739334%" y1="-1056.80385%" y2="890.777014%">
      <stop stop-color="#FFE900" offset="28.07%"/>
      <stop stop-color="#FFCC07" offset="32.21%"/>
      <stop stop-color="#FF8119" offset="41.22%"/>
      <stop stop-color="#FF0B36" offset="54.35%"/>
      <stop stop-color="#FF0039" offset="55.5%"/>
      <stop stop-color="#ED00B5" offset="85.24%"/>
    </linearGradient>
    <linearGradient id="aS" x1="-1124.88665%" x2="549.535228%" y1="-1423.71471%" y2="673.128094%">
      <stop stop-color="#FFE900" offset="28.07%"/>
      <stop stop-color="#FFCC07" offset="32.21%"/>
      <stop stop-color="#FF8119" offset="41.22%"/>
      <stop stop-color="#FF0B36" offset="54.35%"/>
      <stop stop-color="#FF0039" offset="55.5%"/>
      <stop stop-color="#ED00B5" offset="85.24%"/>
    </linearGradient>
    <linearGradient id="aT" x1="-465.885211%" x2="339.528169%" y1="-152.931663%" y2="157.298039%">
      <stop stop-color="#FFE900" offset="28.07%"/>
      <stop stop-color="#FFCC07" offset="32.21%"/>
      <stop stop-color="#FF8119" offset="41.22%"/>
      <stop stop-color="#FF0B36" offset="54.35%"/>
      <stop stop-color="#FF0039" offset="55.5%"/>
      <stop stop-color="#ED00B5" offset="85.24%"/>
    </linearGradient>
    <linearGradient id="aU" x1="-632.473239%" x2="759.889437%" y1="-217.098158%" y2="319.212821%">
      <stop stop-color="#FFCCD7" offset="40.06%"/>
      <stop stop-color="#EDBEE2" offset="100%"/>
    </linearGradient>
  </defs>
  <g fill="none" fill-rule="evenodd">
    <path d="M150.1 145.9v-.2.2zM152.6 147.1c0 .9.3 1.9.9 2.8-.6-.9-.9-1.9-.9-2.8zM149.7 154.2c0-.2-.1-.5-.3-.6.2.2.3.4.3.6 0 0-.1.7.8 1.8-.9-1-.8-1.8-.8-1.8zM229.2 188.9c.4-1.5.7-3 .8-4.4 0-.5.1-1 .1-1.5 0 .5-.1 1-.1 1.5-.1 1.4-.4 2.9-.8 4.4zM103.1 216.7h.8l-.3-.3c-.1.2-.3.3-.5.3zM235.1 153.6v.2c.4.1.8.3 1.1.6.8.7 1 1.8.7 2.7.1-.2.1-.4.1-.6.1-1.3-.7-2.5-2-2.9v-.2l-.1-.9c-1.5-.1-3-.2-4.6-.4l-.3 3.3 5.1-1.8zM245.1 143.8c6.7-3.5 11.1-12.3 10.9-20.8.3 8.5-4.2 17.3-10.9 20.8-3.5 1.8-8.8 2.6-14.2 2.7 5.4-.1 10.7-.8 14.2-2.7zM228.5 173.5l-.1 1.1c.6.3 1.3.5 1.9.8v.1c.1 0 .1.1.2.1-.1-1.3-.2-2.8-.4-4.3.1 1 .1 2 .2 2.9-.6-.2-1.2-.4-1.8-.7zM147.3 150.3l1-2.8-.1.1-.9 2.7c-.2.3 0 .6.3.7h.1c-.4-.1-.5-.4-.4-.7zM210.1 73.1c.5.1 1 .2 1.6.4-.5-.1-1-.3-1.6-.4zM155.1 180c0 .1.5 2.8 1.3 6.9h.1c-.8-4.1-1.3-6.9-1.3-7 0-.2.1-.4.2-.5-.2.1-.4.3-.3.6zM160 204.4h.2c-1.2-5.1-2.3-10.7-3.2-15.3h-.1c.8 4.6 1.9 10.2 3.1 15.3z"/>
    <path d="M239.9 150.3c-.8.1-1.6.2-2.4.2-.1-.1-.3-.1-.4-.1-2.1-.1-4.3-.2-6.4-.4v.1c2.1.2 4.2.4 6.3.5.1 0 .3 0 .4.1.8 0 1.6-.1 2.4-.2 6.9-.9 11-3.2 15.3-8.7 1.4-1.7 3-4.6 4.1-7.8-1.2 3.2-2.7 5.9-4.1 7.7-4.3 5.4-8.4 7.7-15.2 8.6zM104 200.6c0-.1 0-.1 0 0 0-.1 0-.1 0 0zM145.8 157.9l-.2-.3v-.1l.1.1M140.7 165.2h-.1l-.6.9v.1M252 110.6c-2.8-4.7-6.4-9.1-8.6-11.7 2.2 2.6 5.8 7 8.6 11.7zM206.9 117.5c-.2-.3-.5-.5-.7-.7-.6-.5-1.4-.7-2.1-.7 1 0 2.1.5 2.8 1.4.5.8 1.5 1 2.3.5.1-.1.2-.1.3-.2-.1.1-.2.1-.3.2-.8.5-1.8.3-2.3-.5zM218.4 218.6c-.2 3.3-.2 5.7-.2 7.4h.1c-.1-1.7 0-4.1.1-7.4-6.4 1.4-13 2.3-19.7 2.4-7.5.1-14.9-.8-22.2-2.6v.1c7.2 1.8 14.6 2.7 22.1 2.6 6.7-.2 13.3-1 19.8-2.5zM209 117.5h-.1.1zM244.8 117.2c-.5.4-1.2.3-1.6-.2-.2-.3-.4-.5-.7-.7-.7.4-1.4.6-2.2.6-1 0-1.9-.3-2.6-.9-.4.3-.8.6-1.1 1-.1.2-.3.4-.6.4.2.2.5.4.7.6 2.9 2 6.8 1.3 8.8-1.6.3-.5.2-1.2-.3-1.5-.3-.2-.6-.2-1-.1.3.3.6.6.8 1 .4.5.2 1.1-.2 1.4zM241.5 113.3c.3-.3.4-.6.4-1.1v-3.5c0-.7-.4-1.3-1.1-1.5.4.3.7.8.7 1.3v3.5c0 .2-.1.5-.2.7-.5-.1-1.1-.2-1.6-.2-.3 0-.6 0-.9.1.1.2.1.4.3.5.7 0 1.6 0 2.4.2zM200.6 117.5l.3-.3.6-.6c-.2.2-.4.4-.6.7 0 0-.1.1-.3.2zM208.1 114.6c-.1 0-.1-.1-.2-.2-1.5-1.1-3.3-1.4-5-1 1.8-.4 3.7.1 5.2 1.2zM209.5 116.7c0-.2 0-.5-.1-.7l-.3-.3.3.3c.1.2.2.5.1.7zM159.7 206.8c.7 3.1 1.5 6.2 2.6 9.2.3.9 2.2 6 4.6 10.2h.1c-2.5-4.2-4.3-9.3-4.7-10.3-1-3-1.9-6-2.6-9.1-1.2.1-2.5.1-3.8.1-4-.1-7.9-.5-11.8-1.2v.1c3.9.7 7.8 1.1 11.7 1.1 1.3 0 2.6 0 3.9-.1zM198.4 115.7c1.1-1.5 2.7-2.5 4.4-2.8-.1-.2-.1-.4-.1-.6v-3.5c0-.9.7-1.6 1.6-1.6-.9 0-1.6.7-1.6 1.6v3.5c0 .2 0 .4.1.6-1.8.2-3.4 1.3-4.4 2.8-.5.7-.3 1.5.2 2.1-.6-.6-.7-1.5-.2-2.1zM156.8 110.8c.3-.1.4-.4.3-.7l-1.2-2.9V106.9l-.3-1 .3.9v.1l-.3-1 .4 1.1v.2l1.2 2.9c0 .3-.1.6-.4.7h-.3c.2.1.3.1.3 0zM164.8 90.6l-.1 4.1M164.9 97.3l-.3-2.4c.1.8.2 1.7.3 2.5V97.3zM184.8 79.4l.2-.2 2.6-1.1h-.1l-2.4 1c-.2.1-.3.2-.3.3z"/>
    <path d="M214.8 223.5v-.9c-1.3.2-2.6.4-3.8.6-4.1.6-8.2 1-12.4 1-6.3 0-12.6-.5-18.8-1.7 0 1.3 0 2.3-.1 3.3 4.7-.1 9.6-.2 14.7-.2 7.1 0 13.9.1 20.4.3v-2.4zM159.1 216.9c-.7-1.9-1.3-4.2-2-6.8h-1.3c-3.9-.1-7.9-.4-11.7-1.1v1.9h1c1 0 1.9 1 1.9 2.2v1.4c0 1.2-.8 2.1-1.7 2.2h.2l.4.3c.2-.2.4-.3.7-.3h.8c1.9.1 3.1.4 3.6.9 1.6 1.3 2.6 4.2 2.6 7.5 0 .5-.1 1.2-.2 1.9 3.1-.2 6.3-.4 9.8-.6-.6-1-1.1-2.1-1.6-3.2-.9-1.9-1.8-4.1-2.5-6.3zM235.4 114.9c-.2.1-.3.3-.3.4.1-.1.2-.2.3-.4.1 0 .1 0 0 0zM150.3 134.7c0-12.6 1.1-21.9 3.3-27.6l-.2-.5c-.4-1.2.3-2.4 1.5-2.8l.3-.1c2-3.6 4.4-6.9 7.3-9.9l.1-3.3c0-1.2 1-2.2 2.2-2.2l3.5.1c3.3-2.6 6.8-5 10.5-7.1l1.4-5.3c.3-1.2 1.5-1.8 2.6-1.6h-.1c-1.2-.3-2.4.4-2.7 1.6l-1.4 5.3c-3.7 2-7.2 4.4-10.5 7.1l-3.5-.1c-1.2 0-2.2 1-2.2 2.2l-.1 3.3c-2.8 3-5.3 6.3-7.3 9.9l-.3.1c-1.2.4-1.8 1.6-1.5 2.8l.2.5c-2.2 5.7-3.3 15-3.3 27.6-.6 3.6-1.3 7.2-2.2 10.6l-4.8 2.9 5-2.8c.9-3.5 1.6-7.1 2.2-10.7zM149.2 158.3c.7.7 1.6 1.5 2.8 2.1-1.2-.6-2.1-1.3-2.8-2.1zM206.5 72.8c.6 0 1.3.1 1.9.1.6 0 1.1.1 1.7.2-.7-.1-1.3-.2-1.9-.3-.6-.1-1.2-.1-1.9-.1-5.7.2-11.4 1.3-16.7 3.4l.2.1c5.3-2 10.9-3.2 16.7-3.4zM140.8 153.8c-.5-.9-.6-1.9-.4-2.8-.3.9-.2 1.9.4 2.8l2.6 4.3-2.6-4.3zM227.3 212.8c-1.9 1.7-4.1 3-6.5 4v.1c2.3-1 4.5-2.3 6.5-4.1-.1.1-.1.1 0 0zM162.3 170.7l-.1-1.2c-2.4.6-4.8 1.4-7.2 2.3-.4-2.9-.8-5.5-1.1-7.6.3 2.1.7 4.8 1.1 7.7-.1 0-.2.1-.4.2.4 2.2 1.1 5.1 1.5 7.4-.3-2.2-.7-4.4-1-6.4 2.4-1.1 4.7-1.9 7.2-2.4zM174.5 205.9v2.9"/>
    <path d="M152.3 147.3c-.2-3.1-.3-6.4-.4-9.8.2-1 .4-1.9.5-2.8 0-10.7.9-20.1 2.9-26v-.1c-2 5.9-2.9 15.3-2.9 26.1-.2.9-.3 1.8-.5 2.8v.2c0-.1 0-.2.1-.3 0 3.5.1 6.8.3 9.9 0 .1 0 .1 0 0zM236.4 182.5c-.4 15.2-3.8 25.4-5.2 29-.3 1.4-.7 2.7-1.1 3.8-1.6 4.5-3.5 8.5-5.2 11.1 1.7-2.6 3.7-6.6 5.3-11.2.4-1.1.7-2.4 1.1-3.8 1.4-3.6 4.8-13.7 5.2-29v-2.3s-.1 0-.1-.1v2.5zM149 153.6c.1-.6.3-1.3.6-1.9-.3.6-.6 1.2-.6 1.9h.2c-.1-.1-.2-.1-.2 0zM174.2 215.2v.2h-.1l.1-.2-.1.3c.1 2.1.1 4.1.1 6 0 1.7 0 3.2-.1 4.5h.1c.1-1.3.1-2.9.1-4.6 0-1.9-.1-3.9-.1-6h.1v-.2l-.2-5.8c0-.1 0-.2.1-.3-.1.1-.2.3-.2.4l.2 5.7zM236.5 172.8v-2.2c-.1-.7-.1-1.6-.2-2.4.1 1.5.2 3 .2 4.6z"/>
    <path fill="#FFF" fill-rule="nonzero" d="M7.7 72.3v98.1c0 1 .1 1.2.1 1.2s.2.1 1.2.1h121.1l-.6-1.9c-.9-3.1.3-6.3 2.9-7.9V72.3H7.7zm45.8 65.5c0 1.8-1.5 3.3-3.3 3.3-1.8 0-3.3-1.5-3.3-3.3V98.4c0-1.8 1.5-3.3 3.3-3.3 1.8 0 3.3 1.5 3.3 3.3v39.4zm9.8 0c0 1.8-1.5 3.3-3.3 3.3-1.8 0-3.3-1.5-3.3-3.3V105c0-1.8 1.5-3.3 3.3-3.3 1.8 0 3.3 1.5 3.3 3.3v32.8zm9.9 0c0 1.8-1.5 3.3-3.3 3.3-1.8 0-3.3-1.5-3.3-3.3v-36.1c0-1.8 1.5-3.3 3.3-3.3 1.8 0 3.3 1.5 3.3 3.3v36.1zm20.8 3.1c-.4.1-.8.2-1.1.2-1.3 0-2.6-.8-3.1-2.2l-13.1-36.1c-.6-1.7.3-3.6 2-4.2 1.7-.6 3.6.3 4.2 2L96 136.7c.6 1.7-.3 3.5-2 4.2zM133.5 171.4c-.1 0-.1 0 0 0l.5 1.7-.5-1.7z"/>
    <path fill="#FFF" fill-rule="nonzero" d="M127.3 173.2l1.8.1c.1-.2.3-.4.5-.5H9c-2 0-2.5-.4-2.5-2.5V71.2h127v90.2c.2-.1.4-.2.7-.2l3.6-1.1v-4.8c-1.3-2.3-1.2-5 0-7.1V55.4c0-2.3-1.9-4.2-4.2-4.2H6.5c-2.3 0-4.2 1.9-4.2 4.2v118.3c0 2 1.8 3.7 3.9 3.7h90c.3-.6.6-1.2 1.1-1.5.9-.7 2.6-.8 3.8-.8.5 0 .9.2 1.2.5l.5-.4h19.1c1.3-1.2 3-2 4.9-2h.5zm9.1-13.5l-.1-.2.1.2zm-.1-.3v.4l-.3-.9.3.5zm-9.6-101.2c1.6 0 2.9 1.3 2.9 2.9 0 1.6-1.3 2.9-2.9 2.9-1.6 0-2.9-1.3-2.9-2.9 0-1.6 1.3-2.9 2.9-2.9zm-9.2 0c1.6 0 2.9 1.3 2.9 2.9 0 1.6-1.3 2.9-2.9 2.9-1.6 0-2.9-1.3-2.9-2.9 0-1.6 1.3-2.9 2.9-2.9zM35 61c0-1.7 1.4-3.1 3.1-3.1H102c1.7 0 3.1 1.4 3.1 3.1v.3c0 1.7-1.4 3.1-3.1 3.1H38.1c-1.7 0-3.1-1.4-3.1-3.1V61zm-12.4-2.8c1.6 0 2.9 1.3 2.9 2.9 0 1.6-1.3 2.9-2.9 2.9-1.6 0-2.9-1.3-2.9-2.9 0-1.6 1.3-2.9 2.9-2.9zm-9.3 0c1.6 0 2.9 1.3 2.9 2.9 0 1.6-1.3 2.9-2.9 2.9-1.6 0-2.9-1.3-2.9-2.9 0-1.6 1.4-2.9 2.9-2.9zM136.4 173.1l-.1-.3-.2-.6-1.1-3.7c-.2-.8.2-1.6 1-1.8-.8.2-1.2 1.1-1 1.8l1.1 3.7.3.9.1.5c-.5.6-.9 1.1-1.4 1.7.5-.6 1-1.1 1.4-1.7l-.1-.5z"/>
    <path fill="#D7D7DB" fill-rule="nonzero" d="M138.7 159.7c.3-.5.6-1.1.8-1.7l-1.7-2.8v4.7l.9-.2zM6.2 177.5c-2.2 0-3.9-1.6-3.9-3.7V55.4c0-2.3 1.9-4.2 4.2-4.2h127.1c2.3 0 4.2 1.9 4.2 4.2V148c.5-.9 1.3-1.7 2.2-2.3V55.4c0-3.6-2.9-6.5-6.5-6.5H6.5c-3.6 0-6.5 2.9-6.5 6.5v118.3c0 3.3 2.8 5.9 6.2 5.9h89.2c.2-.8.4-1.5.7-2.2H6.2v.1zM139 167.8l1.1-1.6v-.1l-1.1 1.7c-.2.1-.2.4 0 .5-.1-.1-.1-.3 0-.5z"/>
    <path fill="#D7D7DB" fill-rule="nonzero" d="M6.5 71.2v99.2c0 2 .4 2.5 2.5 2.5h120.5c.2-.2.4-.5.7-.7l-.1-.4H9c-1 0-1.2-.1-1.2-.1s-.1-.2-.1-1.2V72.3h124.7V162c.3-.2.7-.4 1.1-.6V71.2H6.5zM132.8 169.2c-.2-.7-.2-1.4 0-2.1-.3.6-.3 1.4 0 2.1l.7 2.3v-.1l-.7-2.2zM13.3 64c1.6 0 2.9-1.3 2.9-2.9 0-1.6-1.3-2.9-2.9-2.9-1.6 0-2.9 1.3-2.9 2.9 0 1.6 1.4 2.9 2.9 2.9zM22.6 64c1.6 0 2.9-1.3 2.9-2.9 0-1.6-1.3-2.9-2.9-2.9-1.6 0-2.9 1.3-2.9 2.9 0 1.6 1.3 2.9 2.9 2.9zM38.1 64.3H102c1.7 0 3.1-1.4 3.1-3.1V61c0-1.7-1.4-3.1-3.1-3.1H38.1c-1.7 0-3.1 1.4-3.1 3.1v.3c0 1.7 1.4 3 3.1 3zM117.5 64c1.6 0 2.9-1.3 2.9-2.9 0-1.6-1.3-2.9-2.9-2.9-1.6 0-2.9 1.3-2.9 2.9 0 1.6 1.3 2.9 2.9 2.9zM126.7 64c1.6 0 2.9-1.3 2.9-2.9 0-1.6-1.3-2.9-2.9-2.9-1.6 0-2.9 1.3-2.9 2.9 0 1.6 1.3 2.9 2.9 2.9z"/>
    <path fill="#D7D7DB" fill-rule="nonzero" d="M60 101.6c-1.8 0-3.3 1.5-3.3 3.3v32.8c0 1.8 1.5 3.3 3.3 3.3 1.8 0 3.3-1.5 3.3-3.3v-32.8c0-1.8-1.4-3.3-3.3-3.3zM69.9 98.4c-1.8 0-3.3 1.5-3.3 3.3v36.1c0 1.8 1.5 3.3 3.3 3.3 1.8 0 3.3-1.5 3.3-3.3v-36.1c0-1.9-1.5-3.3-3.3-3.3zM50.2 95.1c-1.8 0-3.3 1.5-3.3 3.3v39.4c0 1.8 1.5 3.3 3.3 3.3 1.8 0 3.3-1.5 3.3-3.3V98.4c0-1.8-1.5-3.3-3.3-3.3zM82.8 100.5c-.6-1.7-2.5-2.6-4.2-2-1.7.6-2.6 2.5-2 4.2l13.1 36.1c.5 1.3 1.7 2.2 3.1 2.2.4 0 .8-.1 1.1-.2 1.7-.6 2.6-2.5 2-4.2l-13.1-36.1zM122.5 21.4h1.1c.3 0 .6-.2.6-.6 0-.4-.2-.6-.6-.6h-1.1c-.3 0-.6.2-.6.6 0 .4.3.6.6.6zM133.7 21.4h4.5c.3 0 .6-.2.6-.6 0-.3-.2-.6-.6-.6h-4.5c-.3 0-.6.2-.6.6 0 .3.2.6.6.6zM116.9 21.1c.1.2.3.3.5.3h.6c.3 0 .6-.2.6-.6 0-.3-.2-.6-.6-.6h-.3c-.2-.4-.6-1.2-1.2-2.1-.2-.3-.5-.3-.8-.2-.3.2-.3.5-.2.8.9 1.3 1.3 2.1 1.4 2.4zM66.7 4.5c.1 0 .2 0 .3-.1 1.6-1.2 3.7-2.1 6.4-2.4 2.1-.3 4-.2 5.9.2.3.1.6-.1.7-.4.1-.3-.1-.6-.4-.7-2-.4-4.1-.5-6.3-.2-2.9.4-5.2 1.3-6.9 2.7-.2.2-.3.5-.1.8.1 0 .3.1.4.1zM41.3 20.7h13.4c.3 0 .6-.2.6-.6 0-.3-.2-.6-.6-.6H41.3c-.3 0-.6.2-.6.6 0 .3.3.6.6.6zM98.6 7.9c1.3-.4 2.7-.5 4.3-.2 2.3.4 4.8 1.8 7.2 4.1.1.1.2.2.4.2.1 0 .3-.1.4-.2.2-.2.2-.6 0-.8-2.6-2.5-5.2-3.9-7.7-4.4-1.8-.3-3.4-.3-4.9.2-.3.1-.4.4-.4.7.1.3.5.5.7.4zM92.1 13.1c.1.2.3.3.5.3.1 0 .2 0 .2-.1.3-.1.4-.5.3-.7-.1-.3-.3-.6-.5-1-.1-.3-.5-.4-.8-.2-.3.1-.4.5-.2.8.2.3.3.6.5.9zM89.1 8.5c.1.1.3.2.4.2.1 0 .2 0 .3-.1.2-.2.3-.5.1-.8-.7-.9-1.5-1.8-2.3-2.5-.2-.2-.6-.2-.8 0-.2.2-.2.6 0 .8.9.7 1.6 1.5 2.3 2.4zM63.4 14.6s.1 0 0 0c.4 0 .6-.3.6-.6 0-.4-.1-.7-.1-1.1 0-.3-.3-.5-.6-.5h-.1c-.2.1-.4.3-.4.6 0 .4.1.8.1 1.1 0 .1 0 .1.1.2 0 .2.2.3.4.3zM65.5 20.4c.1-.2.1-.4 0-.5 0 0-.3-.7-.6-1.7-.1-.3-.4-.5-.7-.4-.3.1-.5.4-.4.7.1.4.3.8.4 1h-.7c-.2.1-.4.3-.4.5 0 .3.2.6.6.6H65.1c.1.1.3 0 .4-.2z"/>
    <path fill="#F9F9FA" fill-rule="nonzero" d="M40.9 25.6h97.9c.6 0 1.1-.5 1.1-1.1 0-.6-.5-1.1-1.1-1.1H116c-2-3.7-7.1-11.7-13.4-12.9-8.4-1.6-10 6.7-10 6.7S87 2.7 73 4.6c-6.5.9-9 4.2-9.8 7.8h.1c.3 0 .6.2.6.5 0 .4.1.7.1 1.1 0 .3-.2.6-.5.6h-.1c-.2 0-.4-.1-.5-.3-.1 1.9.1 3.8.5 5.3h.7c-.1-.3-.2-.6-.4-1-.1-.3.1-.6.4-.7.3-.1.6.1.7.4.3 1 .6 1.7.6 1.7.1.2.1.4 0 .5-.1.2-.3.3-.5.3h-1.3c.4 1.5.9 2.5.9 2.7H40.7c-.6 0-1.1.5-1.1 1.1.1.5.6 1 1.3 1z"/>
    <path fill="#D7D7DB" fill-rule="nonzero" d="M229.2 52.9c.3-1 1.2-3.2 3.8-3.2.3 0 .7 0 1 .1 1.6.3 3.2 1.3 4.8 3 .2.2.6.2.8 0 .2-.2.2-.6 0-.8-1.8-1.9-3.6-3-5.4-3.4-.4-.1-.8-.1-1.2-.1-3.5 0-4.6 3-4.9 4-.1.3.1.6.4.7h.2c.1 0 .2 0 .3-.1.1 0 .2-.1.2-.2zM213.5 48.4c.1 0 .3-.1.4-.2.6-.7 1.5-1.1 2.6-1.4.3-.1.5-.4.4-.7-.1-.3-.4-.5-.7-.4-1.3.4-2.4.9-3.1 1.7-.2.2-.2.6 0 .8.1.2.3.2.4.2zM246.3 56.9h3.3c.3 0 .6-.2.6-.6 0-.3-.2-.6-.6-.6h-3.3c-.3 0-.6.2-.6.6 0 .3.3.6.6.6zM220.7 46.6c.4.1.7.2 1 .3h.2c.2 0 .5-.1.5-.4.1-.3-.1-.6-.4-.7-.4-.1-.8-.2-1.1-.3-.3-.1-.6.1-.7.4 0 .4.2.7.5.7zM213.5 56.8c.1-.2.1-.4 0-.5l-.1-.1c-.1-.3-.4-.4-.7-.3-.1 0-.1.1-.2.1h-12.7c-.3 0-.6.2-.6.6 0 .3.2.6.6.6H213c.2-.2.4-.3.5-.4z"/>
    <path fill="#F9F9FA" fill-rule="nonzero" d="M199.6 60.7h54.5c.6 0 1.1-.5 1.1-1.1 0-.6-.5-1.1-1.1-1.1h-12.9c-1.1-2.1-3.9-6.5-7.4-7.2-2.4-.5-3.8.5-4.6 1.6 0 .1-.1.2-.2.3-.6 1-.8 1.9-.8 1.9s-3.1-8-10.9-7c-5.8.8-6 5-5.4 7.8h.7s.1-.1.2-.1c.3-.1.6 0 .7.3l.1.1c.1.2.1.4 0 .5-.1.2-.3.3-.5.3h-.9c.2.9.5 1.4.5 1.5h-13.2.2c-.6 0-1.1.5-1.1 1.1-.1.6.4 1.1 1 1.1z"/>
    <path fill="#EDEDF0" fill-rule="nonzero" d="M173.7 229.1c-.1.2-.1.4-.2.5 0 0-.1 0-.1.1.1 0 .2-.1.3-.1.3-.3.5-1.6.6-3.6h-.1c-.2 1.5-.3 2.6-.5 3.1zM173.1 232c.5 0 1-.1 1.5-.4-.4.2-.9.4-1.5.4-2.1 0-4.3-2.7-6.1-5.8h-.1c1.8 3.2 4 5.8 6.2 5.8z"/>
    <path fill="#EDEDF0" fill-rule="nonzero" d="M231.1 226.7c-2.6 4.8-5.9 8.5-9.7 8.5-1.4 0-2.9-.5-4-1.4-1.7-1.4-2.5-2.9-2.6-7.8-6.4-.2-13.3-.3-20.4-.3-5 0-9.9.1-14.7.2-.2 5.1-1 6.6-2.7 7.9-1.1.9-2.5 1.4-4 1.4-4 0-6.8-3.6-8.7-6.8-.4-.6-.8-1.3-1.1-2-3.4.2-6.7.4-9.8.6-.3 2-1.1 4.5-2.2 5.4-1.1.9-3.1 1.1-4.5 1.1-.6 0-1-.3-1.4-.6l-.6.6H97.4c-1 0-1.9-.7-2.2-1.7l-.3-1.1v-.2c-5.9.7-9.4 1.5-9.4 2.4 0 2.1 17.6 3.7 39.4 3.7 3.5 0 6.8 0 10-.1 12.2 2.1 34.3 3.4 59.5 3.4 38.5 0 69.7-3.2 69.7-7.1 0-2.6-13.2-4.8-33-6.1z"/>
    <path fill="#EDEDF0" fill-rule="nonzero" d="M219.5 231.3c.5.4 1.2.7 1.9.7.6 0 1.3-.2 1.9-.6-.6.4-1.2.6-1.8.6-.7 0-1.4-.3-2-.7-.6-.6-1.2-1.1-1.3-5.3h-.1c.2 4.3.8 4.8 1.4 5.3zM223.3 228.4c.5-.5 1-1.2 1.5-2-.5.8-1 1.4-1.5 2z"/>
    <path fill="#D7D7DB" fill-rule="nonzero" d="M102.1 188.2l-.3-.2c-.1.2-.3.3-.6.3h-.7c-1.6-.1-2.6-.3-3.1-.7l-.6-.6H83c-.6 0-1.1.5-1.1 1.1 0 .6.5 1.1 1.1 1.1h19.4c.1-.4.2-.7.5-.9h-.8v-.1zM156.8 189.1h.1c-.2-.8-.3-1.5-.4-2.2h-.1c.1.7.3 1.4.4 2.2zM27.3 194.1c.3 0 .6-.2.6-.6 0-.3-.2-.6-.6-.6H24c-.3 0-.6.2-.6.6 0 .3.2.6.6.6h3.3zM19.5 193h-1.1c-.3 0-.6.2-.6.6 0 .3.2.6.6.6h1.1c.3 0 .6-.2.6-.6 0-.3-.3-.6-.6-.6zM68.5 194.1c.3 0 .6-.2.6-.6 0-.3-.2-.6-.6-.6h-3.3c-.3 0-.6.2-.6.6 0 .3.2.6.6.6h3.3zM49.6 194.1c.3 0 .6-.2.6-.6 0-.3-.2-.6-.6-.6H36.2c-.3 0-.6.2-.6.6 0 .3.2.6.6.6h13.4zM102 194.1c.3 0 .6-.2.6-.6 0-.3-.2-.6-.6-.6h-1.1c-.3 0-.6.2-.6.6 0 .3.2.6.6.6h1.1zM60.7 194.1c.3 0 .6-.2.6-.6 0-.3-.2-.6-.6-.6h-1.1c-.3 0-.6.2-.6.6 0 .3.2.6.6.6h1.1zM91.4 193.6c0-.3-.2-.6-.6-.6H77.4c-.3 0-.6.2-.6.6 0 .3.2.6.6.6h13.4c.3-.1.6-.3.6-.6z"/>
    <path fill="#EDEDF0" fill-rule="nonzero" d="M65.7 230.4c-.3.9-.6 1.7-1.1 2.1-.8.8-2.3.9-3.4.9-.4 0-.8-.3-1-.6l-.5.5H24.5h-.1c2.2 1.6 12.1 2.7 24 2.7 13.5 0 24.4-1.5 24.4-3.4 0-.7-2.7-1.6-7.1-2.2z"/>
    <path fill="#FAFAFA" fill-rule="nonzero" d="M28.3 224.9h32.9c.1 0 .1 0 .2.1-.1-.4-.1-.7-.3-1H27.2v4.6h33.7c.2-.3.3-.7.4-1.1h-33c-.2 0-.4-.2-.4-.4s.2-.4.4-.4h32.9c.1 0 .2 0 .2.1v-1.1c-.1.1-.2.1-.3.1H28.3c-.2 0-.4-.2-.4-.4s.2-.5.4-.5z"/>
    <path fill="#F9F9FA" fill-rule="nonzero" d="M59.2 231.8l.8-.9.3.1c.3.1.5.3.6.5.1.1.2.3.3.3 1.2 0 2.1-.2 2.5-.6.6-.5 1.3-3.3 1.3-5.1 0-2.6-.7-4.6-1.4-5.2-.1-.1-.8-.3-1.9-.4-.1.4-.2.7-.7.8h-.3l-.9-.9H24.3c-.1 0-.3.1-.3.3v1.2c0 .2.1.3.3.3H62l.2.4c1.3 2.4.8 5.9-.4 7.3l-.2.2H24.3c-.1 0-.2 0-.2.1s-.1.2 0 .3l.2 1c0 .1.1.2.2.2h34.7v.1z"/>
    <path fill="#D7D7DB" fill-rule="nonzero" d="M59.7 233.4l.5-.5c.2.3.6.6 1 .6 1.1 0 2.6-.2 3.4-.9.4-.4.8-1.2 1.1-2.1.5-1.5.7-3.3.7-4.3 0-2.8-.8-5.4-1.9-6.5-.4-.4-1.3-.7-2.7-.8h-.6c-.3 0-.4.1-.5.3l-.3-.3h-36c-.9 0-1.7.9-1.7 2v1.2c0 1.1.7 2 1.7 2h.9v4.6h-.9c-.5 0-1 .3-1.3.8-.3.5-.4 1.1-.3 1.7l.2 1c.2.8.8 1.4 1.5 1.5h35.2v-.3zm-35.5-1.8l-.2-1v-.3c0-.1.1-.1.2-.1h37.2l.2-.2c1.3-1.4 1.7-4.9.4-7.3l-.2-.4H24.3c-.1 0-.3-.1-.3-.3v-1.2c0-.2.1-.3.3-.3h35.5l.9.9h.3c.4-.1.6-.5.7-.8 1.2.1 1.8.3 1.9.4.7.7 1.4 2.7 1.4 5.2 0 1.8-.7 4.6-1.3 5.1-.4.3-1.3.6-2.5.6-.1-.1-.2-.3-.3-.3-.2-.2-.3-.5-.6-.5l-.3-.1-.8.9H24.5l-.3-.3zm4.1-5.9h32.9c.1 0 .2-.1.3-.1v1.1c-.1-.1-.1-.1-.2-.1h-33c-.2 0-.4.2-.4.4s.2.4.4.4h33c-.1.4-.2.8-.4 1.1H27.2v-4.6h33.9c.1.3.2.7.3 1-.1 0-.1-.1-.2-.1H28.3c-.2 0-.4.2-.4.4s.2.5.4.5z"/>
    <path fill="#FFF" fill-rule="nonzero" d="M174.2 215.4v-.2M236.7 157.9c.2-.2.3-.4.3-.6.1-.2.1-.5.1-.7 0 .2-.1.4-.1.6-.1.2-.2.4-.3.7zM161.3 204.2v.1h.1v-.1h-.1zM173.7 229.1c-.1.1-.1.2-.2.3-.4.3-1 .1-1.7-.5-.1 0-.1-.1-.2-.2-.3-.2-.5-.5-.8-.9.9 1.1 1.7 1.8 2.3 1.8h.2s.1 0 .1-.1c.1 0 .2-.1.3-.4z"/>
    <path fill="#F9F9FA" fill-rule="nonzero" d="M233.4 212.2c-.3 1.4-.7 2.7-1.1 3.8-.5 1.4-4.6 12.7-9 15.4-.6.4-1.3.6-1.9.6-.7 0-1.3-.2-1.9-.7-.7-.5-1.3-1-1.3-5.3 0-1.7 0-4.1.2-7.4-6.5 1.5-13.1 2.3-19.7 2.4-7.4.1-14.9-.7-22.1-2.6.2 11.4-.6 12-1.5 12.8-.1.1-.3.2-.5.3-.5.3-1 .4-1.5.4-2.2 0-4.4-2.6-6.2-5.8-2.5-4.2-4.3-9.3-4.6-10.2-1-3-1.9-6.1-2.6-9.2-1.3.1-2.6.1-3.9.1-3.9-.1-7.9-.5-11.7-1.1v3.2c3.9.7 7.8 1 11.7 1.1h1.3c.7 2.7 1.3 5 2 6.8.8 2.2 1.6 4.3 2.6 6.3.5 1.1 1 2.1 1.6 3.2.4.7.7 1.3 1.1 2 2 3.2 4.7 6.8 8.7 6.8 1.4 0 2.9-.5 4-1.4 1.6-1.3 2.4-2.9 2.7-7.9 0-1 .1-2.1.1-3.3 6.2 1.2 12.5 1.8 18.8 1.7 4.1 0 8.3-.4 12.4-1 1.2-.2 2.5-.4 3.8-.6v3.4c.1 4.9.9 6.4 2.6 7.8 1.1.9 2.5 1.4 4 1.4 3.8 0 7.1-3.7 9.7-8.5.2-.4.5-.8.7-1.3 1.4-2.8 2.6-5.6 3.6-8.5.4-1.1.8-2.4 1.2-3.9 1.5-4 4.8-14.1 5.4-29-1-1.2-2.1-2.3-3.3-3.3v1.8c-.5 15.4-3.9 25.8-5.4 29.7z"/>
    <path fill="#F9F9FA" fill-rule="nonzero" d="M137.8 148.1c-1.2 2.1-1.3 4.8 0 7.1v.1l1.7 2.8c-.3.6-.6 1.1-.8 1.7l-.8.3-3.6 1.1c-.2.1-.5.2-.7.2-.4.2-.8.4-1.1.6-2.5 1.7-3.8 4.9-2.9 7.9l.6 1.9.1.4c-.2.3-.4.5-.7.7-.2.2-.3.4-.5.5l-1.8-.1h-.6c-1.9 0-3.6.8-4.9 2h10.3l1.8-2.1-.5-1.7-.7-2.2c-.2-.7-.2-1.5 0-2.2.3-1.1 1.2-2.1 2.4-2.5l5.8-1.8c.8-1.4 1.6-3 2.3-4.7l-2.6-4.3c-.5-.9-.7-1.9-.4-2.8.2-.9.8-1.8 1.7-2.3l1.1-.7 4.8-2.9c.9-3.3 1.7-6.9 2.2-10.6 0-12.6 1.1-21.9 3.3-27.6l-.2-.5c-.4-1.2.3-2.4 1.5-2.8l.3-.1c2-3.6 4.4-6.9 7.3-9.9l.1-3.3c0-1.2 1-2.2 2.2-2.2l3.5.1c3.3-2.6 6.8-5 10.5-7.1l1.4-5.3c.3-1.2 1.6-1.9 2.7-1.6h.2l6.5 1.8c5.3-2.1 11-3.2 16.7-3.4.6 0 1.3 0 1.9.1.6 0 1.3.1 1.9.3h.1c.5.1 1 .2 1.6.4 3.9 1.1 8.5 3.5 13.9 7.2 6.2 4.5 12.1 9.4 17.5 14.7.7 0 1.3.3 1.8.8 3.5 3.3 6.7 7 9.7 10.8 3 3.2 6.8 8.1 8.1 13.3 2 7.8-2.2 17.9-5.9 22.5-4.7 5.9-9.2 8.5-16.7 9.5-.7.1-1.5.2-2.4.2 1.9 1.8 2.1 4.8.5 6.9 1 1.5 1.1 3.3.2 4.8-.1.1-.1.3-.2.5.2 4.9.4 10.9.4 14.4 1.1.9 2.2 1.9 3.2 3 .2-6.2 0-12.5-.4-18.7l-.3.1c-.3 0-.5-.2-.5-.5s.2-.6.5-.6c.2 0 .4-.1.5-.2 0-.6-.1-1.2-.1-1.8 1-1.6 1.5-3.6 1.3-5.5l1-.2c.2-.3.5-.3.8-.2.9-.2 1.7-.4 2.5-.7 0-.3.2-.6.5-.6.2 0 .4.1.5.2 4.5-1.7 8.1-4.5 11.6-9 3.8-4.7 8.8-15.6 6.6-25 0-.1 0-.3-.1-.4-.1-.1-.1-.5-.2-.7-.6-1.8-1.3-3.5-2.2-5.2-.4-.7-.8-1.5-1.3-2.2-1.2-1.8-2.5-3.6-3.9-5.2-.3-.4-.6-.7-1-1.1l-.1-.2c-3-4-6.3-7.7-9.9-11.1-.7-.7-1.6-1.2-2.5-1.4-8-7.7-24.5-22.1-36.2-22.9-.7 0-1.4-.1-2.1-.1-5.8.1-11.5 1.2-16.9 3.2l-5.7-1.6c-3-.8-6 .9-6.8 3.9l-1.1 3.9c-3 1.8-6 3.7-8.7 5.9H165c-3 0-5.5 2.4-5.6 5.4v2c-2.4 2.6-4.5 5.5-6.3 8.5-2.1 1.2-3.3 3.6-2.8 5.9-2.1 6.1-3.2 15.3-3.2 27.5-.5 3-1.1 5.9-1.8 8.7l-4.8 2.9c-.1 0-.1.1-.2.1-1.2 1.2-2 2-2.5 3z"/>
    <path fill="#FFF" fill-rule="nonzero" d="M136.3 159.7v-.3l-.2-.5.2.9M155.9 106.8l-.3-.9.3 1"/>
    <path fill="#FAFAFA" fill-rule="nonzero" d="M230.3 174.3c0-1-.1-2-.2-2.9-.1-.7-.2-1.4-.2-2.1-.3-.1-.6-.1-1-.2l-.4 4.5c.6.2 1.2.4 1.8.7zM242.5 116.3c-.7-.6-1.6-.9-2.6-1-.8 0-1.6.2-2.3.7.7.6 1.7.9 2.6.9.9 0 1.7-.2 2.3-.6z"/>
    <path fill="#FFF" fill-rule="nonzero" d="M174.5 205.9c9.6 4.4 20.4 5.7 30.8 3.8 14.7-2.9 21.6-12.6 23.9-20.8.4-1.5.7-3 .8-4.4 0-.5.1-1 .1-1.5.2-2.5.2-5 .2-7.5v-.1c-.6-.3-1.3-.6-1.9-.8l-1.1 11.7c-.1.9-.8 1.5-1.7 1.5l-22.1 3.1c-.9.9-2.9 2.3-6.5 2.5h-.8c-3.3 0-5.3-1.4-6.2-2.3l-24.9-3.6c-.9 0-1.6-.7-1.6-1.5l-1.2-15.4c-2.4.6-4.8 1.4-7.1 2.3.3 2 .6 4.2 1 6.4.1.1.2.2.2.4l.2.9c.6 3.2 2.6 14.1 4.8 23.4v.1h.1v.1h.1c.8 3.7 1.7 7.3 2.9 10.9 2 5.6 4.5 10.3 6.4 12.7.3.3.6.6.8.9.1 0 .1.1.2.2.7.6 1.3.8 1.7.5.1 0 .1-.1.2-.3.2-.5.3-1.6.4-3.2.1-1.3.1-2.8.1-4.5 0-1.9 0-3.9-.1-6v-.2h.1l-.2-5.8c0-.2.1-.3.2-.4.1-.1.2-.2.3-.2l-.1-2.9z"/>
    <path fill="#FAFAFA" fill-rule="nonzero" d="M152 137.6c.1 3.3.2 6.6.4 9.8l.3-.3v.1c-.1.9.3 1.9.8 2.9.8 1.4 2.1 2.7 3.2 3.7 1.8-1 3.3-1.2 4-1.2l-.3-4.3c0-.5.1-1 .5-1.3.3-.3.8-.5 1.3-.5h.3l1.4-6.1c.1-.4.4-.8.8-.8.4-.1 10.5-2.3 19.1 1.5 7.1 3.1 11.3 7.9 13.1 10.5 1.5-2.6 5.2-7.4 12.7-11 6.3-3.1 15.5-3.4 16.7-2.9.3.1.6.4.7.7.2.6 1.3 4.5 1.9 7.1h.2c.5 0 1 .1 1.3.5.2.2.4.5.4.8 5.4-.1 10.7-.9 14.2-2.7 6.7-3.5 11.1-12.3 10.9-20.7 0-1.2-.2-2.4-.4-3.6-.6-2.9-2-5.9-3.7-8.9-2.8-4.7-6.4-9.1-8.6-11.7-.3-.3-.5-.6-.8-.9 0 0-.1 0-.1.1C231 87.2 216.6 76.1 208 75.5c-.6 0-1.1-.1-1.7-.1-5.7.2-11.3 1.4-16.6 3.5l-.5-.1-3.8 1.7h-.1c-.3.1-.6 0-.7-.3-.1-.2 0-.4.1-.6 0-.1.1-.2.2-.3l2.4-1-5.1-1.4-1.7 6.2c-4.1 2.2-8 4.8-11.6 7.8l-4.3-.1-.1 4.1v.1l-.1.1.3 2.4v.3c0 .2-.2.4-.4.5h-.2c-.2 0-.4-.2-.5-.4l-.3-1.8c-2.7 2.9-5 6.1-6.8 9.6l-1.1.3.3 1V107.3l1.2 2.9c.1.3 0 .6-.3.7h-.3c-.2 0-.4-.1-.5-.4l-.7-1.7c-2 5.9-2.9 15.3-2.9 26 .1.9 0 1.8-.2 2.8zm82.7-21.8c.1-.2.2-.3.4-.4.1-.2.2-.3.3-.4.3-.2.5-.5.8-.7.8-.6 1.8-.9 2.7-1.1-.1-.2-.2-.3-.3-.5h-.3c-.1-.2-.1-.4-.1-.6v-3.5c0-.9.7-1.6 1.6-1.6.3 0 .6.1.9.3.6.2 1.1.8 1.1 1.5v3.5c0 .4-.2.8-.4 1.1 1 .3 2 .8 2.8 1.5.3-.1.7-.1 1 .1.5.3.7 1 .3 1.5-2 2.9-5.9 3.6-8.8 1.6-.3-.2-.5-.4-.7-.6-.3.1-.7.1-1-.1-.5-.4-.6-1.1-.3-1.6zm-36.4-.2c1.1-1.5 2.7-2.5 4.5-2.8-.1-.2-.1-.4-.1-.6v-3.5c0-.9.7-1.6 1.6-1.6.9 0 1.6.7 1.6 1.6v3.5c0 .2-.1.5-.2.7 1.6.4 3 1.4 4 2.7.4.7.3 1.6-.2 2.1-.1.1-.2.2-.3.2-.8.5-1.8.3-2.3-.5-.7-.9-1.7-1.4-2.8-1.5H203.5c-.2 0-.4.1-.5.1h-.1c-.6.2-1.2.6-1.6 1.2-.5.8-1.5 1-2.3.5-.1-.1-.2-.1-.3-.2-.7-.3-.8-1.2-.4-1.9zM236.2 154.4c-.3-.3-.7-.5-1.1-.6v-.2l-5 1.9v.1h.4c.1 0 3-.3 6.2 2.3.1-.2.2-.5.3-.7.3-1 0-2-.8-2.8z"/>
    <path fill="#FFF" fill-rule="nonzero" d="M161.7 166.1c-3.6.4-6.2-.6-7.8-1.9.3 2.1.7 4.7 1.1 7.6 2.3-.9 4.7-1.7 7.2-2.3l-.1-.8c-.2-.9-.4-1.7-.4-2.6z"/>
    <path fill="#FAFAFA" fill-rule="nonzero" d="M136.4 159.7l-.1-.3"/>
    <path fill="#D7D7DB" fill-rule="nonzero" d="M156.4 186.9H145c-.1.3-.2.5-.4.7h.8l.3.2c.1-.2.3-.3.6-.3h.7c1.6.1 2.6.3 3.1.7.3.2.5.5.8.8h6c-.2-.7-.4-1.4-.5-2.1zM150.2 182.9c0-.3-.2-.6-.6-.6h-7.5v1.1h7.5c.3 0 .6-.2.6-.5z"/>
    <path fill="url(#a)" fill-rule="nonzero" d="M252 110.6c1.7 3 3.1 6 3.7 8.9.2 1.2.4 2.4.4 3.6.2 8.5-4.2 17.3-10.9 20.8-3.5 1.9-8.8 2.6-14.2 2.7v.5l-.3 2.9c2.1.2 4.2.4 6.4.4.1 0 .3 0 .4.1.8 0 1.6-.1 2.4-.2 6.9-.9 11-3.2 15.3-8.7 1.4-1.7 2.9-4.5 4.1-7.7 1.5-4.1 2.4-8.8 1.3-12.8-1.2-4.7-4.7-9.3-7.7-12.5-2.9-3.8-6-7.3-9.5-10.6-.1-.1-.3-.2-.5-.2-.1 0-.3.1-.4.1.2.3.5.6.8.9 2.3 2.7 5.9 7.1 8.7 11.8z"/>
    <path fill="#FAFAFA" fill-rule="nonzero" d="M242.6 98c.2.3.5.6.8.9-.3-.3-.6-.6-.8-.9z"/>
    <path fill="url(#b)" fill-rule="nonzero" d="M242.6 98c.2.3.5.6.8.9-.3-.3-.6-.6-.8-.9z"/>
    <path fill="#FAFAFA" fill-rule="nonzero" d="M252 110.6c1.7 3 3.1 6 3.7 8.9.2 1.2.4 2.4.4 3.6 0-1.2-.2-2.4-.4-3.6-.6-2.9-2-6-3.7-8.9z"/>
    <path fill="url(#c)" fill-rule="nonzero" d="M252 110.6c1.7 3 3.1 6 3.7 8.9.2 1.2.4 2.4.4 3.6 0-1.2-.2-2.4-.4-3.6-.6-2.9-2-6-3.7-8.9z"/>
    <path fill="#FAFAFA" fill-rule="nonzero" d="M229.9 169.3c.1.7.1 1.4.2 2.1 0-.8-.1-1.5-.2-2.1z"/>
    <path fill="url(#d)" fill-rule="nonzero" d="M229.9 169.3c.1.7.1 1.4.2 2.1 0-.8-.1-1.5-.2-2.1z"/>
    <path fill="#EDEDF0" fill-rule="nonzero" d="M220.4 226.2c0 1.8.2 3.1.5 3.3.1.1.3.2.5.2.5 0 1.2-.5 1.9-1.3.5-.5 1-1.2 1.5-2-1.4-.1-2.9-.2-4.4-.2z"/>
    <path fill="#FAFAFA" fill-rule="nonzero" d="M205.3 209.7c-10.4 1.9-21.2.6-30.8-3.8 9.6 4.4 20.3 5.8 30.8 3.8 14.7-2.8 21.6-12.5 23.9-20.8-2.3 8.3-9.2 17.9-23.9 20.8z"/>
    <path fill="url(#e)" fill-rule="nonzero" d="M205.3 209.7c-10.4 1.9-21.2.6-30.8-3.8 9.6 4.4 20.3 5.8 30.8 3.8 14.7-2.8 21.6-12.5 23.9-20.8-2.3 8.3-9.2 17.9-23.9 20.8z"/>
    <path fill="#FAFAFA" fill-rule="nonzero" d="M230.1 183c.2-2.5.3-5 .2-7.4 0 2.4 0 4.9-.2 7.4z"/>
    <path fill="url(#f)" fill-rule="nonzero" d="M230.1 183c.2-2.5.3-5 .2-7.4 0 2.4 0 4.9-.2 7.4z"/>
    <path fill="url(#g)" fill-rule="nonzero" d="M236.4 180.1v-1c-1.9-1.3-3.9-2.4-5.9-3.4 0 .7.1 1.3.1 1.8 2 .8 3.9 1.4 5.8 2.6z"/>
    <path fill="url(#h)" fill-rule="nonzero" d="M236.5 172.8c-.1-1.6-.1-3.1-.2-4.6-1.4 1-3.6 1.6-6.4 1.1.1.7.2 1.4.2 2.1.2 1.5.3 3 .4 4.3-.1 0-.1-.1-.2-.1 0 2.5 0 5-.2 7.4 0 .5-.1 1-.1 1.5-.1 1.4-.4 2.9-.8 4.4-2.3 8.3-9.2 18-23.9 20.8-10.4 1.9-21.2.6-30.8-3.8v2.9h.1c.3 0 .6.2.6.5l.3 6.4c2.9.9 10.8 3 23.3 3 7.3-.2 14.5-1.1 21.5-2.9 2.3-.9 4.4-2.2 6.3-3.8.2-.2.6-.2.8 0 .2.2.2.6 0 .8h-.1v.1c-1.9 1.7-4.1 3-6.4 4-.2 2.9-.3 5.7-.3 7.9v1.4c0 1.8.2 3.1.5 3.3.1.1.3.2.5.2.5 0 1.2-.5 1.9-1.3.5-.5 1-1.2 1.5-2 1.7-2.6 3.6-6.5 5.2-11.1.4-1.1.8-2.4 1.1-3.8 1.4-3.6 4.8-13.8 5.2-29V180s.1 0 .1.1v-1.2c-.2-1.5-.1-4.1-.1-6.1z"/>
    <path fill="url(#i)" fill-rule="nonzero" d="M202.7 108.7v3.5c0 .2 0 .4.1.6.4-.1.8-.1 1.2-.1.5 0 1.1.1 1.6.2.1-.2.2-.5.2-.7v-3.5c0-.9-.7-1.6-1.6-1.6-.8 0-1.5.7-1.5 1.6z"/>
    <path fill="#F9F9FA" fill-rule="nonzero" d="M202.8 112.8c-1.8.3-3.4 1.3-4.5 2.8-.4.7-.3 1.5.2 2.1.1.1.2.2.3.2.8.5 1.8.3 2.3-.5.4-.6 1-1 1.6-1.2h.1c.2-.1.4-.1.5-.1H203.9c.7 0 1.5.2 2.1.7.3.2.5.4.7.7.5.8 1.5 1 2.3.5.1-.1.2-.1.3-.2.6-.5.7-1.4.2-2.1-1-1.4-2.4-2.3-4-2.7-.5-.1-1.1-.2-1.6-.2-.3-.1-.7 0-1.1 0zm5.1 1.6c.1 0 .1.1.2.2s.3.2.4.4c.2.1.3.3.5.5.1.1.2.2.2.3l.3.3c.1.2.1.5.1.7v.1c0 .1-.1.2-.1.2 0 .1 0 .1-.1.2 0 .1-.1.1-.1.1l-.1.1h-.1-.1c-.1 0-.2.1-.2.1h-.1c-.4 0-.7-.1-1-.4-.8-1-2-1.7-3.3-1.7H203.8c-.2 0-.4.1-.6.1-.1 0-.3.1-.4.2-.1.1-.3.1-.4.2-.2.1-.4.2-.5.4l-.1.1-.6.6-.3.3c-.4.3-.9.3-1.2 0-.5-.3-.7-1-.3-1.5.2-.3.4-.5.6-.7l.1-.1c.2-.2.5-.5.8-.7h.1c.1-.1.3-.2.5-.3h.1c.2-.1.3-.2.5-.2h.1c.2-.1.3-.1.5-.2s.4-.1.6-.2c1.3-.4 3.1-.1 4.6.9z"/>
    <path fill="url(#j)" fill-rule="nonzero" d="M202.9 113.4c-.2 0-.4.1-.6.2-.2.1-.4.1-.5.2h-.1c-.2.1-.3.2-.5.2h-.1c-.2.1-.3.2-.5.3h-.1c-.3.2-.5.4-.8.7l-.1.1c-.2.2-.4.5-.6.7-.3.5-.2 1.2.3 1.5.4.3.9.2 1.2 0l.3-.3c.2-.2.4-.5.6-.7l.1-.1c.2-.1.4-.3.5-.4.1-.1.2-.1.4-.2.1-.1.3-.1.4-.2.2-.1.4-.1.6-.1H204c1.3 0 2.5.6 3.3 1.7.2.3.6.4 1 .4h.1c.1 0 .2 0 .2-.1.1 0 .1 0 .2-.1h.1l.1-.1.1-.1s.1-.1.1-.2.1-.1.1-.2v-.1c0-.2 0-.5-.1-.7l-.3-.3c-.1-.1-.1-.2-.2-.3-.1-.2-.3-.3-.5-.5-.1-.1-.3-.2-.4-.4-1.2-.8-3.1-1.3-4.9-.9z"/>
    <path fill="url(#k)" fill-rule="nonzero" d="M140 165.4v.7l.6-.9"/>
    <path fill="#FFF" fill-rule="nonzero" d="M137.8 166.1l-1.9.6c-.8.2-1.2 1.1-1 1.8l1.1 3.7.2.6.1.2v.1l.1.4c-.5.6-1 1.1-1.4 1.7h2.4c.2-.4.3-.9.3-1.4v-7.7h.1z"/>
    <path fill="#D7D7DB" fill-rule="nonzero" d="M140 168.2l-.1.2c-.2.3-.5.3-.8.2l-.2-.2c-.1-.2-.1-.4 0-.6l1.1-1.6v-.7l-2.2.7v7.7c0 .5-.1 1-.3 1.4h2.3c.1-.5.2-.9.2-1.4v-5.7z"/>
    <path fill="url(#l)" fill-rule="nonzero" d="M154.4 170.6c-3.5 1.5-6.8 3.4-9.9 5.6.1.1.1.2.2.4l.2.7c3.1-2 6.3-3.8 9.7-5.2-.1-.6-.1-1.1-.2-1.5z"/>
    <path fill="url(#m)" fill-rule="nonzero" d="M156.8 189.1c-.2-.8-.3-1.5-.4-2.2-.8-4.1-1.3-6.9-1.3-6.9 0-.3.1-.5.4-.6.1-.1.2-.1.2-.1.2 0 .3 0 .4.1-.4-2.2-1.1-5.2-1.5-7.4.1-.1.2-.1.4-.2-.4-2.9-.8-5.5-1.1-7.7-1.5-1.3-2.1-2.8-2-3.7v-.1c-1.2-.6-2.1-1.4-2.8-2.1-1.4-1.5-1.7-3-1.7-3.2v-.4c.1-.4.5-.8.9-.8h.3l.2-.2c.1-.6.3-1.3.6-1.9.8-1.9 2.1-3.5 2.7-4.3-.1-3.2-.2-6.5-.3-9.9 0 .1 0 .2-.1.3l-.6 3c-.1.2-.1.5-.2.7-.3 1.1-.5 2.3-.9 3.5-.1.2-.1.4-.2.6v.2l-.1.2-.1.5h-.1l-1.5 4.1c-.1.2-.3.4-.6.3h-.1-.1c-.3-.1-.4-.4-.3-.7l1-2.7-.3.2-4.7 2.9c-.7.4-.9 1.3-.5 2l2.9 4.7.1.1.1.1.2.3v.1c-1 2.3-2.1 4.5-3.3 6.7h-.1l-2.4 3.5-.1.2c-.2.3-.5.3-.8.2l-.2-.2c-.1-.2-.1-.4 0-.6l1.1-1.6v-.7l-2.2.7-1.9.6c-.8.2-1.2 1.1-1 1.8l1.1 3.7.2.6.1.2v.1l.1.4c-.5.6-1 1.1-1.4 1.7H142.6c.7 0 1.3.4 1.7.9.1.1.1.2.2.4l.2.7.1.2c.1.5 0 1.1-.3 1.5-.4.4-.9.7-1.5.7h-1v4h1c1 0 1.9.8 1.9 1.7v1.1c0 .1 0 .3-.1.4-.1.3-.2.5-.4.7h.8l.3.2c.1-.2.3-.3.6-.3h.7c1.6.1 2.6.3 3.1.7.3.2.5.5.8.8.9 1.2 1.4 3 1.4 5 0 1.5-.7 4.7-2 5.7-.9.7-2.6.8-3.8.8h-.2c.2.3.4.6.5 1.1l.2 1.1c.1.4.1.7 0 1.1 3 .4 6 .7 9 .7 1.4 0 2.8-.1 4.1-.2-1.1-4.9-2.2-10.5-3.1-15.1z"/>
    <path fill="#F9F9FA" fill-rule="nonzero" d="M149.2 153.6s0-.1 0 0c.2 0 .2 0 .3.1.2.1.3.3.3.6 0 0-.1.7.8 1.8.5.6 1.3 1.2 2.5 1.9.2-.9.7-1.7 1.5-2.5s1.5-1.3 2.3-1.7c-1.2-1.1-2.4-2.4-3.2-3.7-.6-.9-.9-1.9-.9-2.8v-.1l-.3.3c-.6.7-1.9 2.4-2.7 4.3-.3.6-.5 1.3-.6 1.9-.2-.2-.1-.2 0-.1z"/>
    <path fill="url(#n)" fill-rule="nonzero" d="M136.3 173.1l-.3-.9-1.1-3.7c-.2-.8.2-1.6 1-1.8l1.9-.6 2.2-.7.6-.2h.1l-.7 1-1.1 1.6c-.1.2-.1.4 0 .5 0 .1.1.2.2.2.3.2.6.1.8-.2l.1-.2 2.4-3.5h.1c1.2-2.2 2.4-4.4 3.3-6.7v-.1l-.2-.3-.1-.2-.1-.1-2.9-4.7c-.4-.7-.2-1.6.5-2l4.7-2.9.3-.2.1-.1-1 2.8c-.1.3.1.6.3.7h.1c.2 0 .5-.1.6-.3l1.5-4.1h.1l.1-.5.1-.2v-.2c.1-.2.1-.4.2-.6.3-1.2.6-2.3.9-3.5.1-.2.1-.5.2-.7l.6-3v-.2c.2-.9.3-1.9.5-2.8 0-10.8.9-20.2 2.9-26.1v.1l.7 1.7c.1.2.3.3.5.4h.2c.3-.1.4-.4.3-.7l-1.2-2.9v-.2l-.4-1.1 1.1-.3c1.8-3.5 4.1-6.7 6.8-9.6 0 .6.1 1.2.3 1.8.1.2.3.4.5.4h.2c.2-.1.4-.3.4-.5v-.2c-.1-.8-.2-1.7-.3-2.5l.1-.1v-.1l.1-4.1 4.3.1c3.6-3 7.5-5.6 11.6-7.8l1.7-6.2 5.1 1.4h.1l-2.6 1.1c-.1 0-.2.1-.2.2-.1.1-.2.4-.1.6.1.3.4.4.7.3h.1l3.8-1.7.5.1c5.3-2.1 10.9-3.3 16.6-3.5.6 0 1.2 0 1.7.1 8.6.6 23 11.7 34.3 22.9 0 0 .1 0 .1-.1.1-.1.3-.1.4-.1.2 0 .4.1.5.2 3.4 3.3 6.6 6.8 9.5 10.6 2.9 3.2 6.5 7.7 7.7 12.5 1 4 .2 8.7-1.3 12.8-1.2 3.2-2.8 6-4.1 7.8-4.3 5.5-8.4 7.8-15.3 8.7-.8.1-1.6.2-2.4.2-.1-.1-.3-.1-.4-.1-2.1-.1-4.2-.2-6.3-.5l-.2 2.1c1.5.2 3 .3 4.6.4l.1.9v.2c1.3.4 2.1 1.6 2 2.9 0 .2 0 .5-.1.7l-.3.6.6.6c.3.3.6.7.9 1.1 1.6-2.1 1.5-5-.5-6.9.8 0 1.6-.1 2.4-.2 7.5-1 12.1-3.6 16.7-9.5 3.7-4.6 7.9-14.7 5.9-22.5-1.3-5.2-5.1-10.1-8.1-13.3-2.9-3.9-6.1-7.5-9.7-10.8-.5-.5-1.2-.8-1.8-.8-5.4-5.4-11.3-10.3-17.5-14.7-5.4-3.7-10-6.2-13.9-7.2-.5-.2-1.1-.3-1.6-.4h-.1c-.6-.1-1.2-.2-1.7-.2-.6 0-1.2-.1-1.9-.1-5.7.2-11.4 1.3-16.7 3.4l-.2-.1-6.5-1.8h-.1c-1.2-.3-2.3.4-2.6 1.6l-1.4 5.3c-3.7 2-7.2 4.4-10.5 7.1l-3.5-.1c-1.2 0-2.2 1-2.2 2.2l-.1 3.3c-2.8 3-5.3 6.3-7.3 9.9l-.3.1c-1.2.4-1.8 1.6-1.5 2.8l.2.5c-2.2 5.7-3.3 15-3.3 27.6-.6 3.6-1.4 7.2-2.2 10.6l-5 2.8-1.1.7c-.9.5-1.4 1.4-1.7 2.3-.2.9-.1 1.9.4 2.8l2.6 4.3c-.7 1.6-1.5 3.2-2.3 4.7l-5.8 1.8c-1.2.4-2.1 1.3-2.4 2.5-.2.7-.2 1.4 0 2.1l.7 2.2.5 1.7-1.8 2.1h2.9c.5-.6 1-1.1 1.4-1.7l-.2-.8z"/>
    <path fill="url(#o)" fill-rule="nonzero" d="M237.3 167.2c-.2.3-.6.7-1 1 0 .9.1 1.7.2 2.4.1.5 0 1.3 0 2.2 0 2-.2 4.6 0 6.1v3.5c-.4 15.3-3.8 25.4-5.2 29-.4 1.4-.7 2.6-1.1 3.8-1.6 4.6-3.6 8.6-5.3 11.2-.5.8-1.1 1.5-1.5 2-.7.8-1.4 1.3-1.9 1.3-.2 0-.3-.1-.5-.2-.3-.3-.5-1.5-.5-3.3v-1-.3-.1c0-2.2.2-5.1.3-7.9v-.1c2.4-.9 4.6-2.3 6.5-4h.1c.2-.2.2-.6 0-.8-.2-.2-.6-.2-.8 0-1.9 1.6-4 2.9-6.3 3.8-7.1 1.8-14.3 2.7-21.5 2.9-12.5 0-20.4-2.1-23.3-3l-.3-6.4c0-.3-.3-.5-.6-.5h-.1c-.1 0-.2.1-.3.2-.1.1-.1.2-.1.3l.2 5.8v.2h-.1c0 2.1.1 4.1.1 6 0 1.7 0 3.3-.1 4.6-.1 2-.3 3.3-.6 3.6-.1.1-.2.1-.3.1h-.2c-.6 0-1.4-.6-2.3-1.8-2-2.4-4.5-7.1-6.4-12.7-1.2-3.6-2.1-7.2-2.9-10.9h-.2v-.2c-2.2-9.3-4.2-20.2-4.8-23.4l-.2-.9c0-.1-.1-.3-.2-.4-.1-.1-.3-.1-.4-.1-.1 0-.2.1-.2.1-.2.1-.2.3-.2.5 0 .1.5 2.9 1.3 7 .1.7.3 1.5.4 2.2.9 4.6 2 10.2 3.2 15.3h-.2c-1.4.1-2.7.2-4.1.2-3 0-6-.3-9-.7-.1.3-.2.6-.3.8-.4.5-.9.9-1.5.9h-1v.2c3.9.7 7.8 1.1 11.8 1.2 1.3 0 2.6 0 3.9-.1.7 3.1 1.5 6.2 2.6 9.2.3.9 2.2 6.1 4.7 10.3 1.8 3.1 4 5.7 6.2 5.7.5 0 1-.1 1.4-.4.2-.1.3-.2.5-.3.9-.8 1.7-1.4 1.5-12.8v-.1c7.2 1.8 14.7 2.7 22.2 2.6 6.6-.1 13.3-.9 19.7-2.4-.2 3.3-.3 5.7-.2 7.5.1 4.2.7 4.7 1.3 5.2.5.4 1.2.7 1.9.7.6 0 1.2-.2 1.8-.6 4.4-2.7 8.5-14 9-15.4.4-1.1.8-2.4 1.1-3.8 1.5-3.9 4.9-14.2 5.3-29.7v-1.8-1.3c-.1-3.6-.2-9.6-.4-14.4-.4.6-.7 1.7-1.1 2.2z"/>
    <path fill="url(#p)" fill-rule="nonzero" d="M152 160.4c.2-.2 1.1.2 1-.1-.2-.8-.2-1.6 0-2.4-1.2-.7-2-1.3-2.5-1.9-.9-1-.8-1.8-.8-1.8 0-.2-.1-.4-.2-.6-.1 0-.1-.1-.2-.1H149c-.1 0-.2.1-.2.2h-.3c-.5.1-.8.4-.9.8v.4c0 .2.3 1.7 1.7 3.2.6 1 1.5 1.7 2.7 2.3z"/>
    <path fill="url(#q)" fill-rule="nonzero" d="M161.9 166s-.1 0-.2.1c.1.9.2 1.8.4 2.6l-.2-2.7z"/>
    <path fill="url(#r)" fill-rule="nonzero" d="M241.3 112.7c.1-.2.2-.5.2-.7v-3.5c0-.5-.3-1-.7-1.3-.3-.2-.6-.3-.9-.3-.9 0-1.6.7-1.6 1.6v3.5c0 .2 0 .4.1.6h.3c.3 0 .6-.1.9-.1.6 0 1.2.1 1.7.2z"/>
    <path fill="url(#s)" fill-rule="nonzero" d="M235.1 117.3c.3.2.7.2 1 .1.2-.1.4-.2.6-.4.3-.4.7-.7 1.1-1 .7-.4 1.4-.7 2.3-.7 1 0 1.9.4 2.6 1 .3.2.5.4.7.7.4.5 1.1.6 1.6.2.4-.3.6-.9.3-1.4-.2-.4-.5-.7-.8-1-.8-.8-1.8-1.3-2.8-1.5-.8-.2-1.6-.2-2.4-.1-1 .1-1.9.5-2.7 1.1-.3.2-.6.4-.8.7l-.4.4-.4.4c-.6.5-.5 1.2.1 1.5z"/>
    <path fill="#FAFAFA" fill-rule="nonzero" d="M102.5 224.6c-.3 0-.5-.2-.5-.5s.2-.5.5-.5h44.2c.1 0 .2 0 .2.1-.1-.4-.2-.8-.4-1.2H101v5.2h45.2c.2-.3.4-.8.6-1.3H102.4c-.3 0-.5-.2-.5-.5s.2-.5.5-.5h44.2c.1 0 .2 0 .3.1.1-.4.1-.8 0-1.3-.1.1-.2.2-.3.2h-44.1v.2z"/>
    <path fill="url(#t)" fill-rule="nonzero" d="M96.8 230.3c.9-.1 1.9-.2 2.9-.3v-.3h-2.6c-.1 0-.2 0-.3.1 0 .2-.1.3 0 .5z"/>
    <path fill="url(#u)" fill-rule="nonzero" d="M151.8 225.1c0-2.9-1-5.2-1.9-6-.2-.1-1-.4-2.6-.5-.1.4-.3.9-.9.9l-.4.1-1.2-1H97.1c-.2 0-.3.2-.3.3v1.4c0 .2.2.3.3.3h15.6l34.2-.6.6.6h.1l.2.3 1.1 1.1-.2 1.1c.3 1.4.2 3-.2 4.2l3-.3c.2-.6.3-1.3.3-1.9z"/>
    <path fill="#EDEDF0" fill-rule="nonzero" d="M142.6 230.1h-43v-.1c-1 .1-2 .2-2.9.3l.3 1c0 .2.2.3.3.3H144l1.1-1 .5.1c.4.1.6.3.8.6l.4.4c1.6 0 2.8-.3 3.3-.7.5-.4 1.1-2.1 1.5-3.8l-3 .3c-.2.5-.4 1-.6 1.4l-.2 1-5.2.2z"/>
    <path fill="url(#v)" fill-rule="nonzero" d="M142.6 230.1h-43v-.1c-1 .1-2 .2-2.9.3l.3 1c0 .2.2.3.3.3H144l1.1-1 .5.1c.4.1.6.3.8.6l.4.4c1.6 0 2.8-.3 3.3-.7.5-.4 1.1-2.1 1.5-3.8l-3 .3c-.2.5-.4 1-.6 1.4l-.2 1-5.2.2z"/>
    <path fill="#FAFAFA" fill-rule="nonzero" d="M112.7 220.7h34.9l-.7-.6"/>
    <path fill="url(#w)" fill-rule="nonzero" d="M112.7 220.7h34.9l-.7-.6"/>
    <path fill="#FAFAFA" fill-rule="nonzero" d="M147.9 221l.1.1c.4.6.7 1.3.8 2l.2-1.1-1.1-1z"/>
    <path fill="url(#x)" fill-rule="nonzero" d="M147.9 221l.1.1c.4.6.7 1.3.8 2l.2-1.1-1.1-1z"/>
    <path fill="#FAFAFA" fill-rule="nonzero" d="M99.7 230.1h43l5.1-.3.2-1c-.2.3-.4.5-.6.7l-.3.3H99.7v.3z"/>
    <path fill="url(#y)" fill-rule="nonzero" d="M99.7 230.1h43l5.1-.3.2-1c-.2.3-.4.5-.6.7l-.3.3H99.7v.3z"/>
    <path fill="url(#z)" fill-rule="nonzero" d="M95.2 231.8c.2 1 1.1 1.7 2.2 1.7h47.3l.6-.6c.3.3.8.6 1.4.6 1.5 0 3.4-.2 4.5-1.1 1.1-.9 1.9-3.4 2.2-5.4.1-.7.2-1.4.2-1.9 0-3.2-1-6.2-2.6-7.5-.6-.4-1.8-.7-3.6-.9h-.8c-.3 0-.6.1-.7.3l-.4-.3H97c-1.2 0-2.2 1-2.2 2.2v1.4c0 1.2 1 2.2 2.2 2.2h1.2v5.2H97c-.7 0-1.3.3-1.8.9-.4.5-.5 1.1-.4 1.7v.2l.4 1.3zm1.6-1.9c.1-.1.2-.1.3-.1h50l.3-.3c.2-.2.4-.4.6-.7.3-.4.5-.9.6-1.4.4-1.3.5-2.8.2-4.2-.2-.7-.4-1.4-.8-2l-.1-.1-.2-.3H97.2c-.2 0-.3-.2-.3-.3v-1.4c0-.2.2-.3.3-.3h47.7l1.2 1 .4-.1c.6-.1.8-.5.9-.9 1.6.1 2.4.4 2.6.5.9.8 1.9 3.1 1.9 6 0 .6-.1 1.4-.2 2.1-.3 1.7-.9 3.4-1.5 3.8-.5.4-1.8.6-3.3.7l-.4-.4c-.2-.3-.4-.5-.8-.6l-.5-.1-1.1 1H97.5c-.2 0-.3-.1-.3-.3l-.3-1v-.1c-.2-.3-.1-.4-.1-.5zm50.2-4.1c.1.1.2.2.2.4s-.1.4-.3.4c-.1.5-.3.9-.6 1.3H101v-5.2h45.5c.2.4.3.8.4 1.2.1.1.2.2.2.4 0 .1-.1.2-.1.3.1.3.1.8 0 1.2z"/>
    <path fill="url(#A)" fill-rule="nonzero" d="M147 223.8c-.1 0-.2-.1-.2-.1h-44.2c-.3 0-.5.2-.5.5s.2.5.5.5h44.2c.1 0 .3-.1.3-.2.1-.1.1-.2.1-.3 0-.2-.1-.3-.2-.4z"/>
    <path fill="url(#B)" fill-rule="nonzero" d="M102.5 225.6c-.3 0-.5.2-.5.5s.2.5.5.5H146.9c.2-.1.3-.2.3-.4 0-.1-.1-.3-.2-.4-.1-.1-.2-.1-.3-.1h-44.2v-.1z"/>
    <path fill="#FAFAFA" fill-rule="nonzero" d="M103 210.8h38.8v-5.2h-38.5c-.8 1.1-1 3.5-.3 5.2z"/>
    <path fill="url(#C)" fill-rule="nonzero" d="M134.5 203.4c-1.4-.5-2.8-.9-4.2-1.5h-.2l4.2 1.5h.2z"/>
    <path fill="url(#D)" fill-rule="nonzero" d="M145.3 203.6c-2.5-.5-5.1-1-7.6-1.8h-.2c2.5.8 5.1 1.4 7.8 1.8z"/>
    <path fill="url(#E)" fill-rule="nonzero" d="M103.2 213.9l.4-.1 1 1h40.6c.2 0 .3-.2.3-.3v-1.4c0-.2-.1-.3-.3-.3h-13.3l-29.1.6-.5-.6h-.1l-.2-.3-.9-1.1.1-1.1c-.4-2-.1-4.2.7-5.6l.1-1 4.4-.3h18.5c-.8-.4-1.7-.9-2.6-1.5h-17.1l-.9 1-.4-.1c-.3-.1-.5-.3-.7-.6-.1-.1-.2-.3-.3-.4-1.3 0-2.4.3-2.8.7-.7.6-1.4 3.8-1.4 5.9 0 2.9.8 5.2 1.6 6 .1.1.9.4 2.2.5 0-.5.2-.9.7-1z"/>
    <path fill="#F9F9FA" fill-rule="nonzero" d="M134.3 203.4c-1.4-.5-2.8-.9-4.2-1.5h-7.8c.9.6 1.8 1.1 2.6 1.5h9.4z"/>
    <path fill="url(#F)" fill-rule="nonzero" d="M134.3 203.4c-1.4-.5-2.8-.9-4.2-1.5h-7.8c.9.6 1.8 1.1 2.6 1.5h9.4z"/>
    <path fill="url(#G)" fill-rule="nonzero" d="M145.3 203.6c.1-.1.1-.2.1-.3l-.2-1.1c0-.2-.1-.3-.3-.3h-7.2c2.5.7 5 1.3 7.6 1.7z"/>
    <path fill="url(#H)" fill-rule="nonzero" d="M145.3 203.6c.1-.1.1-.2.1-.3l-.2-1.1c0-.2-.1-.3-.3-.3h-7.2c2.5.7 5 1.3 7.6 1.7z"/>
    <path fill="url(#I)" fill-rule="nonzero" d="M142.9 203.4v.3h2.2c.1 0 .1 0 .2-.1-2.6-.4-5.2-1-7.8-1.8h-7.2l4.2 1.5h8.4v.1z"/>
    <path fill="url(#J)" fill-rule="nonzero" d="M142.9 203.4v.3h2.2c.1 0 .1 0 .2-.1-2.6-.4-5.2-1-7.8-1.8h-7.2l4.2 1.5h8.4v.1z"/>
    <path fill="#FAFAFA" fill-rule="nonzero" d="M131.8 212.7h-29.6l.5.7"/>
    <path fill="url(#K)" fill-rule="nonzero" d="M131.8 212.7h-29.6l.5.7"/>
    <path fill="#FAFAFA" fill-rule="nonzero" d="M101.9 212.4l-.1-.1c-.3-.6-.6-1.3-.7-2l-.1 1.1.9 1z"/>
    <path fill="url(#L)" fill-rule="nonzero" d="M101.9 212.4l-.1-.1c-.3-.6-.6-1.3-.7-2l-.1 1.1.9 1z"/>
    <path fill="#FAFAFA" fill-rule="nonzero" d="M134.5 203.4h-28.1l-4.4.3-.1 1c.1-.3.3-.5.5-.7l.2-.3H143v-.3h-8.5z"/>
    <path fill="url(#M)" fill-rule="nonzero" d="M134.5 203.4h-28.1l-4.4.3-.1 1c.1-.3.3-.5.5-.7l.2-.3H143v-.3h-8.5z"/>
    <path fill="url(#N)" fill-rule="nonzero" d="M103 216.8h.2c.2 0 .4-.1.5-.3l.3.3H145.4c1-.1 1.7-1.1 1.7-2.2v-1.4c0-1.2-.9-2.2-1.9-2.2h-1v-5.5h1c.6 0 1.1-.3 1.5-.9.2-.3.3-.5.3-.8.1-.3.1-.7 0-1.1l-.2-1.1c-.1-.4-.3-.8-.5-1.1-.4-.1-.7-.3-1-.5l-.5.4h-40.1c-.2 0-.3 0-.5-.1-.4-.1-.7-.3-.9-.6h-.2c-1.2 0-2.9.2-3.9 1.1-1.3 1.3-2 5.5-2 7.4 0 3.2.9 6.2 2.2 7.5.5.4 1.5.7 3.1.9.1.1.3.2.5.2zm-2.8-2.5c-.8-.8-1.6-3.1-1.6-6 0-2.1.8-5.3 1.4-5.9.4-.4 1.5-.6 2.8-.7.1.1.3.3.3.4.2.3.4.5.7.6l.4.1.9-1H144.8c.1 0 .2.1.3.3l.2 1.1c0 .1 0 .2-.1.3l-.1.1s-.1.1-.2.1h-42.6l-.2.3c-.2.2-.3.4-.5.7-.8 1.4-1.1 3.6-.7 5.6.1.7.4 1.4.7 2l.1.1.2.3h43c.2 0 .3.2.3.3v1.4c0 .2-.1.3-.3.3h-40.6l-1-1-.4.1c-.5.1-.7.5-.8.9-1 0-1.8-.2-1.9-.4zm41.5-8.7v5.2H103c-.7-1.7-.5-4.1.3-5.2h38.4z"/>
    <path fill="#FAFAFA" fill-rule="nonzero" d="M108.9 193.8c-.2 0-.4-.2-.4-.4s.2-.4.4-.4h37.5c.1 0 .1 0 .2.1l-.3-.9h-38.6v4.1H146c.2-.3.4-.6.5-1h-37.6c-.2 0-.4-.2-.4-.4s.2-.4.4-.4h37.5c.1 0 .2 0 .3.1 0-.3.1-.7 0-1-.1.1-.2.1-.3.1h-37.5v.1z"/>
    <path fill="url(#O)" fill-rule="nonzero" d="M104.3 198.9c0 .1.1.2.3.2h13.9c-.4-.4-.9-.8-1.3-1.1h-10.7v-.3h-2.2c-.1 0-.2 0-.2.1-.1.1-.1.1-.1.2l.3.9z"/>
    <path fill="url(#P)" fill-rule="nonzero" d="M104.2 189.1c-.1 0-.2.1-.2.2v1.1c0 .1.1.3.3.3h9.3c0-.6.1-1.1.2-1.6h-9.6z"/>
    <path fill="#D7D7DB" fill-rule="nonzero" d="M113.8 189.1h-9.5-.1 9.6z"/>
    <path fill="url(#Q)" fill-rule="nonzero" d="M113.8 189.1h-9.5-.1 9.6z"/>
    <path fill="#F9F9FA" fill-rule="nonzero" d="M117.2 198c.4.4.8.8 1.3 1.1h5.7c-.7-.4-1.4-.7-2-1.1h-5z"/>
    <path fill="url(#R)" fill-rule="nonzero" d="M117.2 198c.4.4.8.8 1.3 1.1h5.7c-.7-.4-1.4-.7-2-1.1h-5z"/>
    <path fill="#F9F9FA" fill-rule="nonzero" d="M113.8 189.1c-.1.5-.2 1.1-.2 1.6h3.4c.1-.6.2-1.1.4-1.6h-3.6z"/>
    <path fill="url(#S)" fill-rule="nonzero" d="M113.8 189.1c-.1.5-.2 1.1-.2 1.6h3.4c.1-.6.2-1.1.4-1.6h-3.6z"/>
    <path fill="url(#T)" fill-rule="nonzero" d="M142.9 198h-15.8c.9.4 1.7.8 2.6 1.1h14.4l.9-.8.4.1c.3.1.5.3.7.5.1.1.2.3.3.3 1.3 0 2.4-.2 2.8-.5.7-.5 1.4-2.9 1.4-4.6 0-2.3-.8-4-1.6-4.6-.1-.1-.8-.3-2-.4h-.2c-.1.3-.3.6-.7.7h-.3l-1-.7h-13.3c-.4.5-.7.9-1.1 1.4l16.2-.3.5.5h.1l.2.2.9.8-.1.9c.4 1.6.1 3.2-.7 4.3l-.1.8-4.5.3z"/>
    <path fill="url(#T)" fill-rule="nonzero" d="M142.9 198h-15.8c.9.4 1.7.8 2.6 1.1h14.4l.9-.8.4.1c.3.1.5.3.7.5.1.1.2.3.3.3 1.3 0 2.4-.2 2.8-.5.7-.5 1.4-2.9 1.4-4.6 0-2.3-.8-4-1.6-4.6-.1-.1-.8-.3-2-.4h-.2c-.1.3-.3.6-.7.7h-.3l-1-.7h-13.3c-.4.5-.7.9-1.1 1.4l16.2-.3.5.5h.1l.2.2.9.8-.1.9c.4 1.6.1 3.2-.7 4.3l-.1.8-4.5.3z"/>
    <path fill="#D7D7DB" fill-rule="nonzero" d="M146.8 189.1h.2-.2z"/>
    <path fill="url(#U)" fill-rule="nonzero" d="M146.8 189.1h.2-.2zM146.8 189.1h.2-.2z"/>
    <path fill="#D7D7DB" fill-rule="nonzero" d="M144.8 189.1h-13.3 13.3z"/>
    <path fill="url(#V)" fill-rule="nonzero" d="M144.8 189.1h-13.3 13.3zM144.8 189.1h-13.3 13.3z"/>
    <path fill="url(#W)" fill-rule="nonzero" d="M119.8 189.1c-.3.5-.5 1-.6 1.6l10.5-.2c.3-.5.7-.9 1-1.4h-10.9z"/>
    <path fill="url(#W)" fill-rule="nonzero" d="M119.8 189.1c-.3.5-.5 1-.6 1.6l10.5-.2c.3-.5.7-.9 1-1.4h-10.9z"/>
    <path fill="#D7D7DB" fill-rule="nonzero" d="M130.8 189.1h-10.9 10.9z"/>
    <path fill="url(#X)" fill-rule="nonzero" d="M130.8 189.1h-10.9 10.9zM130.8 189.1h-10.9 10.9z"/>
    <path fill="url(#Y)" fill-rule="nonzero" d="M129.7 190.5h.6c.4-.5.7-.9 1.1-1.4h-.7c-.3.5-.6.9-1 1.4z"/>
    <path fill="url(#Y)" fill-rule="nonzero" d="M129.7 190.5h.6c.4-.5.7-.9 1.1-1.4h-.7c-.3.5-.6.9-1 1.4z"/>
    <path fill="url(#Y)" fill-rule="nonzero" d="M129.7 190.5h.6c.4-.5.7-.9 1.1-1.4h-.7c-.3.5-.6.9-1 1.4z"/>
    <path fill="#D7D7DB" fill-rule="nonzero" d="M131.5 189.1h-.7.7z"/>
    <path fill="url(#Z)" fill-rule="nonzero" d="M131.5 189.1h-.7.7zM131.5 189.1h-.7.7zM131.5 189.1h-.7.7z"/>
    <path fill="url(#aa)" fill-rule="nonzero" d="M122.2 198c.6.4 1.3.8 2 1.1h5.5c-.9-.4-1.8-.7-2.6-1.1h-4.9z"/>
    <path fill="url(#ab)" fill-rule="nonzero" d="M122.2 198c.6.4 1.3.8 2 1.1h5.5c-.9-.4-1.8-.7-2.6-1.1h-4.9z"/>
    <path fill="url(#ac)" fill-rule="nonzero" d="M119.8 189.1h-2.5c-.2.5-.3 1-.4 1.6h2.3c.1-.6.3-1.1.6-1.6z"/>
    <path fill="url(#ad)" fill-rule="nonzero" d="M119.8 189.1h-2.5c-.2.5-.3 1-.4 1.6h2.3c.1-.6.3-1.1.6-1.6z"/>
    <path fill="#FAFAFA" fill-rule="nonzero" d="M117.2 198H142.9l4.4-.2.1-.8c-.1.2-.3.4-.5.5l-.2.2h-40.2v.3h10.7z"/>
    <path fill="url(#ae)" fill-rule="nonzero" d="M117.2 198H142.9l4.4-.2.1-.8c-.1.2-.3.4-.5.5l-.2.2h-40.2v.3h10.7z"/>
    <path fill="#FAFAFA" fill-rule="nonzero" d="M130.3 190.5h-.6l-10.5.2h-1.6 29.5l-.5-.5"/>
    <path fill="url(#af)" fill-rule="nonzero" d="M130.3 190.5h-.6l-10.5.2h-1.6 29.5l-.5-.5"/>
    <path fill="#FAFAFA" fill-rule="nonzero" d="M147.4 191l.1.1c.3.5.6 1 .7 1.6l.1-.9-.9-.8z"/>
    <path fill="url(#ag)" fill-rule="nonzero" d="M147.4 191l.1.1c.3.5.6 1 .7 1.6l.1-.9-.9-.8z"/>
    <path fill="url(#ah)" fill-rule="nonzero" d="M104.1 200.5c.2 0 .3.1.5.1h40.1l.5-.4c.2.2.6.4 1 .5h.2c1.2 0 2.9-.2 3.8-.8 1.3-1 2-4.2 2-5.7 0-2-.6-3.8-1.4-5-.2-.3-.5-.6-.8-.8-.5-.3-1.5-.6-3.1-.7h-.7c-.3 0-.5.1-.6.3l-.3-.2h-.8c-.3.4-.8.6-1.4.6h-40.2c-.2.3-.4.6-.5.9v1.3c0 1 .8 1.7 1.9 1.7h1v4.1h-1c-.6 0-1.1.2-1.5.7-.4.4-.5 1-.3 1.5l.2.9c.1.3.2.5.4.7.2 0 .5.2 1 .3-.1 0-.1 0 0 0zm0-2.7c.1-.1.1-.1.2-.1H146.7l.2-.2.5-.5c.8-1.1 1.1-2.8.7-4.3-.1-.6-.4-1.1-.7-1.6l-.1-.1-.2-.2h-42.8c-.2 0-.3-.1-.3-.3v-1.1c0-.1.1-.2.2-.2h40.6l1 .7h.3c.5-.1.7-.4.7-.7h.2c1.2.1 1.9.3 2 .4.8.6 1.6 2.4 1.6 4.6 0 1.6-.8 4.1-1.4 4.6-.4.3-1.5.5-2.8.5-.1-.1-.3-.2-.3-.3-.2-.2-.4-.4-.7-.5l-.4-.1-.9.8h-39.5c-.1 0-.2-.1-.3-.2l-.3-1s0-.1.1-.2zm42.5-3.2c.1.1.1.2.1.3 0 .2-.1.3-.3.3-.1.4-.3.7-.5 1h-38.4v-4.1h38.6l.3.9c.1.1.2.2.2.3 0 .1 0 .2-.1.3.2.4.2.7.1 1z"/>
    <path fill="url(#ai)" fill-rule="nonzero" d="M146.6 193.1c-.1 0-.1-.1-.2-.1h-37.5c-.2 0-.4.2-.4.4s.2.4.4.4h37.5c.1 0 .2 0 .3-.1.1-.1.1-.2.1-.3 0-.1-.1-.2-.2-.3z"/>
    <path fill="url(#aj)" fill-rule="nonzero" d="M108.9 194.6c-.2 0-.4.2-.4.4s.2.4.4.4h37.6c.2 0 .3-.2.3-.3 0-.1-.1-.2-.1-.3-.1-.1-.2-.1-.3-.1h-37.5v-.1z"/>
    <path fill="#FAFAFA" fill-rule="nonzero" d="M101.1 183.6h38.6v-4.1h-38.4c-.6 1-.8 2.8-.2 4.1z"/>
    <path fill="url(#ak)" fill-rule="nonzero" d="M98.4 186.4c.1.1.9.3 2.2.4.1-.3.3-.7.8-.7h.3l1 .8h11.9c.2-.5.5-1 .8-1.4l-14.6.2-.5-.5h-.1l-.2-.2-.9-.8.1-.9c-.3-1.2-.2-2.5.2-3.5H97c-.2.7-.3 1.4-.3 2 .1 2.2.9 4 1.7 4.6z"/>
    <path fill="#FFF" fill-rule="nonzero" d="M120.7 176.7h-17.3l-.9.8h17.9c0-.3.1-.5.3-.8z"/>
    <path fill="url(#al)" fill-rule="nonzero" d="M120.7 176.7h-17.3l-.9.8h17.9c0-.3.1-.5.3-.8z"/>
    <path fill="#FFF" fill-rule="nonzero" d="M102 177.4c-.3-.1-.5-.3-.7-.5-.1-.1-.2-.3-.3-.3-1.3 0-2.4.2-2.8.5l-.3.3h4.5-.4z"/>
    <path fill="url(#am)" fill-rule="nonzero" d="M102 177.4c-.3-.1-.5-.3-.7-.5-.1-.1-.2-.3-.3-.3-1.3 0-2.4.2-2.8.5l-.3.3h4.5-.4z"/>
    <path fill="#FFF" fill-rule="nonzero" d="M133 177.5c.2-.3.5-.5.8-.8l-.8.8z"/>
    <path fill="url(#an)" fill-rule="nonzero" d="M133 177.5c.2-.3.5-.5.8-.8l-.8.8z"/>
    <path fill="#D7D7DB" fill-rule="nonzero" d="M100 178.9l.1-.8 4.4-.2h15.6c0-.1.1-.2.2-.4H97.9c-.3.5-.7 1.3-.9 2.2h2.5c.2-.3.3-.6.5-.8z"/>
    <path fill="url(#ao)" fill-rule="nonzero" d="M100 178.9l.1-.8 4.4-.2h15.6c0-.1.1-.2.2-.4H97.9c-.3.5-.7 1.3-.9 2.2h2.5c.2-.3.3-.6.5-.8z"/>
    <path fill="#D7D7DB" fill-rule="nonzero" d="M133 177.5c-.2.1-.3.2-.4.4l.4-.4z"/>
    <path fill="url(#ap)" fill-rule="nonzero" d="M133 177.5c-.2.1-.3.2-.4.4l.4-.4z"/>
    <path fill="#F9F9FA" fill-rule="nonzero" d="M120.2 185.3l-4.7.1c-.3.4-.6.9-.8 1.4h4.1c.3-.6.8-1.1 1.4-1.5z"/>
    <path fill="url(#aq)" fill-rule="nonzero" d="M120.2 185.3l-4.7.1c-.3.4-.6.9-.8 1.4h4.1c.3-.6.8-1.1 1.4-1.5z"/>
    <path fill="#F9F9FA" fill-rule="nonzero" d="M120.1 177.9h4c.7-.7 1.6-1.1 2.6-1.1h.3l3.3.3c.1-.1.2-.2.3-.4h-10c-.1.3-.3.5-.4.8 0 .1 0 .2-.1.4z"/>
    <path fill="url(#ar)" fill-rule="nonzero" d="M120.1 177.9h4c.7-.7 1.6-1.1 2.6-1.1h.3l3.3.3c.1-.1.2-.2.3-.4h-10c-.1.3-.3.5-.4.8 0 .1 0 .2-.1.4z"/>
    <path fill="url(#as)" fill-rule="nonzero" d="M143.1 186.7c.2 0 .3-.1.3-.3v-1.1c0-.1-.1-.3-.3-.3h-7.9l-1.6 1.6h9.5v.1z"/>
    <path fill="url(#at)" fill-rule="nonzero" d="M143.1 186.7c.2 0 .3-.1.3-.3v-1.1c0-.1-.1-.3-.3-.3h-7.9l-1.6 1.6h9.5v.1z"/>
    <path fill="url(#au)" fill-rule="nonzero" d="M122 186.7h10.7c.3-.3.6-.6.8-.9l.7-.7h-4.4l-5.8.1c-.7.6-1.4 1.1-2 1.5z"/>
    <path fill="url(#av)" fill-rule="nonzero" d="M122 186.7h10.7c.3-.3.6-.6.8-.9l.7-.7h-4.4l-5.8.1c-.7.6-1.4 1.1-2 1.5z"/>
    <path fill="url(#aw)" fill-rule="nonzero" d="M140.9 177.9v.3h1c.4-.3.9-.7 1.3-1l-.1-.2c0-.1-.1-.2-.3-.2h-3.6c-.2.4-.5.8-.9 1.1h2.6z"/>
    <path fill="url(#ax)" fill-rule="nonzero" d="M140.9 177.9v.3h1c.4-.3.9-.7 1.3-1l-.1-.2c0-.1-.1-.2-.3-.2h-3.6c-.2.4-.5.8-.9 1.1h2.6z"/>
    <path fill="#FFF" fill-rule="nonzero" d="M133.9 177.5c.9 0 1.7-.3 2.4-.8h-2.5c-.2.3-.5.5-.8.8h.9z"/>
    <path fill="url(#ay)" fill-rule="nonzero" d="M133.9 177.5c.9 0 1.7-.3 2.4-.8h-2.5c-.2.3-.5.5-.8.8h.9z"/>
    <path fill="url(#az)" fill-rule="nonzero" d="M133.9 177.5c.9 0 1.7-.3 2.4-.8h-2.5c-.2.3-.5.5-.8.8h.9z"/>
    <path fill="#D7D7DB" fill-rule="nonzero" d="M133 177.5l-.4.4h5.7c.3-.3.6-.7.9-1.1h-3c-.7.5-1.5.8-2.4.8h-.8v-.1z"/>
    <path fill="url(#aA)" fill-rule="nonzero" d="M133 177.5l-.4.4h5.7c.3-.3.6-.7.9-1.1h-3c-.7.5-1.5.8-2.4.8h-.8v-.1z"/>
    <path fill="url(#aB)" fill-rule="nonzero" d="M133 177.5l-.4.4h5.7c.3-.3.6-.7.9-1.1h-3c-.7.5-1.5.8-2.4.8h-.8v-.1z"/>
    <path fill="url(#aC)" fill-rule="nonzero" d="M132.7 186.7h.9c.5-.6 1.1-1.1 1.6-1.6h-.9l-.7.7-.9.9z"/>
    <path fill="url(#aC)" fill-rule="nonzero" d="M132.7 186.7h.9c.5-.6 1.1-1.1 1.6-1.6h-.9l-.7.7-.9.9z"/>
    <path fill="url(#aD)" fill-rule="nonzero" d="M132.7 186.7h.9c.5-.6 1.1-1.1 1.6-1.6h-.9l-.7.7-.9.9z"/>
    <path fill="url(#aE)" fill-rule="nonzero" d="M143.1 178.1c.1 0 .2 0 .2-.1.1-.1.1-.1.1-.2l-.2-.7c-.4.3-.9.7-1.3 1h1.2z"/>
    <path fill="url(#aE)" fill-rule="nonzero" d="M143.1 178.1c.1 0 .2 0 .2-.1.1-.1.1-.1.1-.2l-.2-.7c-.4.3-.9.7-1.3 1h1.2z"/>
    <path fill="url(#aF)" fill-rule="nonzero" d="M143.1 178.1c.1 0 .2 0 .2-.1.1-.1.1-.1.1-.2l-.2-.7c-.4.3-.9.7-1.3 1h1.2z"/>
    <path fill="url(#aG)" fill-rule="nonzero" d="M127 176.8h-.3c-1 0-1.9.4-2.6 1.1h8.5l.4-.4c.2-.3.5-.5.8-.8h-3c-.1.1-.2.2-.3.4l-3.5-.3z"/>
    <path fill="url(#aH)" fill-rule="nonzero" d="M127 176.8h-.3c-1 0-1.9.4-2.6 1.1h8.5l.4-.4c.2-.3.5-.5.8-.8h-3c-.1.1-.2.2-.3.4l-3.5-.3z"/>
    <path fill="url(#aI)" fill-rule="nonzero" d="M120.2 185.3c-.6.5-1.1 1-1.5 1.5h3.4c.6-.5 1.3-1 2-1.5h-3.9z"/>
    <path fill="url(#aJ)" fill-rule="nonzero" d="M120.2 185.3c-.6.5-1.1 1-1.5 1.5h3.4c.6-.5 1.3-1 2-1.5h-3.9z"/>
    <path fill="#FAFAFA" fill-rule="nonzero" d="M115.4 185.3h4.8l3.9-.1 5.8-.1h-29.6l.6.5"/>
    <path fill="url(#aK)" fill-rule="nonzero" d="M115.4 185.3h4.8l3.9-.1 5.8-.1h-29.6l.6.5"/>
    <path fill="#FAFAFA" fill-rule="nonzero" d="M100.1 184.9l-.1-.1c-.3-.5-.6-1-.7-1.6l-.1.9.9.8z"/>
    <path fill="url(#aL)" fill-rule="nonzero" d="M100.1 184.9l-.1-.1c-.3-.5-.6-1-.7-1.6l-.1.9.9.8z"/>
    <path fill="#FAFAFA" fill-rule="nonzero" d="M138.4 177.9h-33.8l-4.4.2-.1.8c.1-.2.3-.4.5-.5l.2-.2H141v-.3h-2.6z"/>
    <path fill="url(#aM)" fill-rule="nonzero" d="M138.4 177.9h-33.8l-4.4.2-.1.8c.1-.2.3-.4.5-.5l.2-.2H141v-.3h-2.6z"/>
    <path fill="url(#aN)" fill-rule="nonzero" d="M97.4 187.5c.5.3 1.5.6 3.1.7h.7c.3 0 .5-.1.6-.3l.3.2h41c.6 0 1.1-.2 1.4-.6.2-.2.4-.5.4-.7 0-.1.1-.3.1-.4v-1.1c0-1-.8-1.7-1.9-1.7h-1v-4h1c.6 0 1.1-.2 1.5-.7.4-.4.5-1 .3-1.5l-.1-.2-.2-.7c0-.1-.1-.3-.2-.4-.3-.6-.9-.9-1.7-.9h-40l-.5.4c-.3-.2-.7-.5-1.2-.5-1.2 0-2.9.2-3.8.8-.4.3-.8.8-1.1 1.5-.3.7-.6 1.5-.7 2.2-.2.8-.3 1.5-.3 2 0 2.1.6 4 1.6 5.2.2.3.4.5.7.7zm-.4-7.8c.2-.9.5-1.8.9-2.2l.3-.3c.4-.3 1.5-.5 2.8-.5.1.1.3.2.3.3.2.2.4.4.7.5l.4.1.9-.8h39.4c.1 0 .2.1.3.2l.1.2.2.7c0 .1 0 .2-.1.2-.1.1-.1.1-.2.1H100.6l-.2.2-.5.5c-.2.3-.3.5-.5.8-.4 1-.5 2.3-.2 3.5.1.6.4 1.1.7 1.6l.1.1.2.2H143c.2 0 .3.1.3.3v1.1c0 .1-.1.3-.3.3h-40.4l-1-.8h-.3c-.5.1-.7.4-.8.7-1.3-.1-2.1-.3-2.2-.4-.8-.6-1.6-2.4-1.6-4.6.1-.6.2-1.3.3-2zm42.8-.1v4.1h-38.6c-.7-1.3-.5-3.2.3-4.1h38.3z"/>
    <path fill="#FFF" fill-rule="nonzero" d="M190.1 151.1c-8.6-5.4-23.3-5.4-23.5-5.4-.3 0-.6-.2-.6-.6 0-.3.2-.6.6-.6.1 0 7.6-.1 15.1 1.8 5.8 1.5 10 3.7 12.6 6.7h.2c-9.2-10.9-26.7-9.7-26.9-9.6-.3 0-.6-.2-.6-.5s.2-.6.5-.6c.2 0 15.7-1.1 25.6 7.7-2.1-2.3-5.5-5.2-10.1-7.3-6.7-2.9-14.7-1.9-17-1.5l-1.2 5.3 25.1 4.3c0 .3.1.3.2.3zM210.5 142.3c-5 2.4-8.1 5.4-10 7.7 8.8-8.7 22.6-8.9 22.7-8.9.3 0 .6.2.6.6 0 .3-.2.6-.6.6-.2 0-15.1.2-23.3 10 .2-.1.4-.2.6-.4 2.3-2.2 5.4-4 9.5-5.5 6.9-2.5 14.1-3.1 14.2-3.1.3 0 .6.2.6.5s-.2.6-.5.6c-.2 0-12 1-19.8 5.9l22.3-4.7c-.7-2.4-1.4-5-1.7-6.2-2.1 0-9.4.4-14.6 2.9z"/>
    <path fill="url(#aO)" fill-rule="nonzero" d="M230.9 147v-.5c-.1-.3-.2-.6-.4-.8-.3-.4-.8-.5-1.3-.5h-.2c-.7-2.6-1.7-6.5-1.9-7.1-.1-.3-.4-.6-.7-.7-1.2-.5-10.5-.2-16.7 2.9-7.5 3.7-11.2 8.5-12.7 11-1.8-2.6-6-7.4-13.1-10.5-8.6-3.7-18.7-1.6-19.1-1.5-.4.1-.8.4-.8.8l-1.4 6.1h-.3c-.5 0-.9.2-1.3.5-.3.3-.5.8-.5 1.3l.3 4.3h.5l.4.1.5 4.9c1.6-.1 6-.5 6.5-.5.8 0 1.3.5 1.4 1.4.2 1.9-1.9 5-7.1 6.2-.3.1-.9.6-1.1.8-.1.1.2.6-.1.8l.2 2.7.1.8.1 1.2 1.2 15.4c.1.9.8 1.5 1.6 1.5l24.9 3.6c.9.9 2.9 2.3 6.2 2.3h.8c3.6-.2 5.6-1.6 6.5-2.5l22.1-3.1c.9 0 1.6-.7 1.7-1.5l1.1-11.7.1-1.1.4-4.5c-.3-.1-.7-.2-1-.3-.8-.3 1.5-.1.4-.3-3.5-.8-5.4-2.9-6.2-4.7l-10.6 1.6h-.2c-.3 0-.5-.1-.7-.3-.2-.2-.4-.5-.4-.9l.1-5.5c0-.5.4-1 .9-1.1l11.5-1.8c.3 0 .7 0 .9.3.2.2.4.5.4.9l.1 3c1.5.1 4.3.3 5.5.5l.5-4.9h.1v-.1l.3-3.3.2-2.1v-.1l.3-3zm-66.3-.2l1.2-5.3c2.4-.4 10.3-1.4 17 1.5 4.7 2 8 4.9 10.1 7.3-9.9-8.9-25.4-7.8-25.6-7.7-.3 0-.5.3-.5.6s.3.5.6.5c.2 0 17.7-1.3 26.9 9.6h-.2c-2.6-2.9-6.8-5.2-12.6-6.7-7.5-1.9-15-1.8-15.1-1.8-.3 0-.6.3-.6.6s.3.5.6.6c.2 0 14.9-.1 23.5 5.4-.1 0-.2-.1-.3-.1l-25-4.5zm38.5 40.8s-1.4 3.6-6.7 3.1c-5.3-.5-6.4-2.8-6.4-2.8l-.3-33.2s3.3 2 7.5 1.7c4.2-.3 6.7-2.5 6.7-2.5l-.8 33.7zm1.3-37.2c7.9-4.9 19.6-5.9 19.8-5.9.3 0 .5-.3.5-.6s-.3-.5-.6-.5c-.1 0-7.2.6-14.2 3.1-4.1 1.5-7.2 3.3-9.5 5.5-.2.1-.4.2-.6.4 8.2-9.8 23.1-10 23.3-10 .3 0 .6-.3.6-.6s-.3-.6-.6-.6c-.2 0-14 .2-22.7 8.9 1.9-2.3 5.1-5.3 10-7.7 5.2-2.5 12.4-2.9 14.5-2.8.3 1.2 1 3.8 1.7 6.2l-22.2 4.6z"/>
    <path fill="url(#aP)" fill-rule="nonzero" d="M223.7 156.1c-.2-.2-.6-.3-.9-.3l-11.5 1.8c-.5.1-.9.5-.9 1.1l-.1 5.5c0 .3.1.6.4.9.2.2.5.3.7.3h.2l10.6-1.6c-.4-.9-.5-1.8-.4-2.4.1-.8.6-1.4 1.4-1.4.1 0 .5 0 .9.1l.1-3.1c-.2-.4-.3-.7-.5-.9z"/>
    <path fill="url(#aQ)" fill-rule="nonzero" d="M223.7 156.1c-.2-.2-.6-.3-.9-.3l-11.5 1.8c-.5.1-.9.5-.9 1.1l-.1 5.5c0 .3.1.6.4.9.2.2.5.3.7.3h.2l10.6-1.6c-.4-.9-.5-1.8-.4-2.4.1-.8.6-1.4 1.4-1.4.1 0 .5 0 .9.1l.1-3.1c-.2-.4-.3-.7-.5-.9z"/>
    <path fill="#FFF" fill-rule="nonzero" d="M162.8 163.3c4.7-1 6.4-3.7 6.3-5 0-.4-.2-.4-.3-.4-.4 0-4.4.3-6.9.6h-.5l-.6-5.1c-.9 0-3.2.4-5.5 2.6-1.4 1.3-1.7 3.1-.9 4.6.9 2 3.7 3.8 8.4 2.7z"/>
    <path fill="url(#aR)" fill-rule="nonzero" d="M161.7 166.1c.1 0 .2 0 .2-.1.3-.2 0-.7.1-.8.2-.2.8-.7 1.1-.8 5.2-1.1 7.3-4.3 7.1-6.2-.1-.8-.6-1.4-1.4-1.4-.5 0-4.9.4-6.5.5l-.5-4.9-.4-.1h-.5c-.8 0-2.3.2-4 1.2-.7.4-1.5 1-2.3 1.7-.8.7-1.3 1.6-1.5 2.5-.2.8-.2 1.6 0 2.4.1.3-.8-.1-1 .1v.1c-.1.9.5 2.4 2 3.7 1.4 1.5 3.9 2.5 7.6 2.1zm-6.5-9.9c2.3-2.3 4.6-2.6 5.5-2.6l.6 5.1h.5c2.6-.2 6.5-.6 6.9-.6.1 0 .2 0 .3.4.1 1.2-1.6 3.9-6.3 5-4.7 1-7.5-.7-8.5-2.5-.7-1.7-.3-3.4 1-4.8z"/>
    <path fill="#FFF" fill-rule="nonzero" d="M231.1 156.6l-.6 5.1h-.5c-2.6-.2-6.5-.6-6.9-.6-.1 0-.2 0-.3.4-.1 1.2 1.6 3.9 6.3 5 4.7 1 7.5-.7 8.5-2.5.8-1.5.5-3.3-.9-4.6-2.5-2.4-4.7-2.7-5.6-2.8z"/>
    <path fill="url(#aS)" fill-rule="nonzero" d="M236.7 157.9c-3.2-2.7-6.1-2.4-6.2-2.4h-.5l-.5 4.9c-1.2-.1-4-.3-5.5-.5-.5 0-.8-.1-.9-.1-.8 0-1.3.5-1.4 1.4-.1.6.1 1.5.4 2.4.8 1.9 2.7 4 6.2 4.7 1 .2-1.2 0-.4.3.4.1.7.2 1 .3.3.1.6.2 1 .2 2.8.5 5.1-.1 6.4-1.1.4-.3.8-.6 1-1 .4-.5.7-1.6.9-2.2.1-.2.2-.4.2-.5.8-1.6.7-3.3-.2-4.8-.2-.4-.5-.7-.9-1.1-.2-.1-.4-.3-.6-.5zm.8 6c-1 1.8-3.8 3.5-8.5 2.5s-6.4-3.7-6.3-5c0-.4.2-.4.3-.4.4 0 4.4.3 6.9.6h.5l.6-5.1c.9 0 3.2.4 5.5 2.6 1.5 1.5 1.8 3.2 1 4.8z"/>
    <path fill="url(#aT)" fill-rule="nonzero" d="M189.7 154.7l.3 33.2s1.1 2.2 6.4 2.8c5.3.6 6.7-3.1 6.7-3.1l.8-33.7s-2.5 2.2-6.7 2.5c-4.2.3-7.5-1.7-7.5-1.7z"/>
    <path fill="url(#aU)" fill-rule="nonzero" d="M189.7 154.7l.3 33.2s1.1 2.2 6.4 2.8c5.3.6 6.7-3.1 6.7-3.1l.8-33.7s-2.5 2.2-6.7 2.5c-4.2.3-7.5-1.7-7.5-1.7z"/>
    <path d="M-31-22h352v303H-31z"/>
  </g>
</svg>
