<svg width="281" height="233" viewBox="0 0 281 233" xmlns="http://www.w3.org/2000/svg"><title>screenshots</title><defs><linearGradient x1="-26.636%" y1="-8.146%" x2="121.182%" y2="115.528%" id="a"><stop stop-color="#00C8D7" offset="0%"/><stop stop-color="#008EA4" offset="100%"/></linearGradient><linearGradient x1="-171.866%" y1="-259.207%" x2="378.183%" y2="507.936%" id="b"><stop stop-color="#E6FCFF" offset="0%"/><stop stop-color="#B5F2FF" offset="100%"/></linearGradient><linearGradient x1="-273.931%" y1="-214.553%" x2="391.708%" y2="329.48%" id="c"><stop stop-color="#E6FCFF" offset="0%"/><stop stop-color="#B5F2FF" offset="100%"/></linearGradient><linearGradient x1="-71.285%" y1="-46.509%" x2="141.281%" y2="122.152%" id="d"><stop stop-color="#E6FCFF" offset="0%"/><stop stop-color="#B5F2FF" offset="100%"/></linearGradient><linearGradient x1="-905.015%" y1="-222.382%" x2="702.474%" y2="247.063%" id="e"><stop stop-color="#E6FCFF" offset="0%"/><stop stop-color="#B5F2FF" offset="100%"/></linearGradient><linearGradient x1="-637.775%" y1="-363.637%" x2="265.268%" y2="178.654%" id="f"><stop stop-color="#E6FCFF" offset="0%"/><stop stop-color="#B5F2FF" offset="100%"/></linearGradient><linearGradient x1="-96.703%" y1="-484.067%" x2="214.832%" y2="594.35%" id="g"><stop stop-color="#E6FCFF" offset="0%"/><stop stop-color="#B5F2FF" offset="100%"/></linearGradient><linearGradient x1="-371.132%" y1="-420.826%" x2="176.567%" y2="206.433%" id="h"><stop stop-color="#E6FCFF" offset="0%"/><stop stop-color="#B5F2FF" offset="100%"/></linearGradient><linearGradient x1="-1578.005%" y1="-920.714%" x2="2623.302%" y2="1584.375%" id="i"><stop stop-color="#00C8D7" offset="0%"/><stop stop-color="#008EA4" offset="100%"/></linearGradient><linearGradient x1="-1978.191%" y1="-1160.599%" x2="2223.114%" y2="1344.492%" id="j"><stop stop-color="#00C8D7" offset="0%"/><stop stop-color="#008EA4" offset="100%"/></linearGradient><linearGradient x1="-635.935%" y1="-1186.601%" x2="1020.406%" y2="1787.888%" id="k"><stop stop-color="#00C8D7" offset="0%"/><stop stop-color="#008EA4" offset="100%"/></linearGradient><linearGradient x1="-757%" y1="-1404.139%" x2="899.342%" y2="1570.353%" id="l"><stop stop-color="#00C8D7" offset="0%"/><stop stop-color="#008EA4" offset="100%"/></linearGradient><linearGradient x1="-279.398%" y1="-693.472%" x2="377.608%" y2="829.953%" id="m"><stop stop-color="#00C8D7" offset="0%"/><stop stop-color="#008EA4" offset="100%"/></linearGradient><linearGradient x1="-554.206%" y1="-1383.924%" x2="648.335%" y2="1429.895%" id="n"><stop stop-color="#00C8D7" offset="0%"/><stop stop-color="#008EA4" offset="100%"/></linearGradient><linearGradient x1="-451.488%" y1="-897.538%" x2="546.883%" y2="960.099%" id="o"><stop stop-color="#00C8D7" offset="0%"/><stop stop-color="#008EA4" offset="100%"/></linearGradient><linearGradient x1="-512.073%" y1="-746.325%" x2="295.417%" y2="396.922%" id="p"><stop stop-color="#00C8D7" offset="0%"/><stop stop-color="#008EA4" offset="100%"/></linearGradient><linearGradient x1="-872.395%" y1="-594.489%" x2="304.326%" y2="241.084%" id="q"><stop stop-color="#00C8D7" offset="0%"/><stop stop-color="#008EA4" offset="100%"/></linearGradient><linearGradient x1="-451.411%" y1="-501.649%" x2="307.825%" y2="314.302%" id="r"><stop stop-color="#E6FCFF" offset="0%"/><stop stop-color="#B5F2FF" offset="100%"/></linearGradient><linearGradient x1="-2522.171%" y1="-1092.359%" x2="1948.796%" y2="892.127%" id="s"><stop stop-color="#00C8D7" offset="0%"/><stop stop-color="#008EA4" offset="100%"/></linearGradient><linearGradient x1="-133.746%" y1="-297.859%" x2="165.198%" y2="260.279%" id="t"><stop stop-color="#E6FCFF" offset="0%"/><stop stop-color="#B5F2FF" offset="100%"/></linearGradient><linearGradient x1="-1133.055%" y1="-1556.38%" x2="304.453%" y2="392.875%" id="u"><stop stop-color="#E6FCFF" offset="0%"/><stop stop-color="#B5F2FF" offset="100%"/></linearGradient><linearGradient x1="-1887.716%" y1="-342.815%" x2="1595.172%" y2="381.78%" id="v"><stop stop-color="#E6FCFF" offset="0%"/><stop stop-color="#B5F2FF" offset="100%"/></linearGradient><linearGradient x1="-110.09%" y1="-426.198%" x2="195.929%" y2="431.849%" id="w"><stop stop-color="#00C8D7" offset="0%"/><stop stop-color="#008EA4" offset="100%"/></linearGradient><linearGradient x1="-814.083%" y1="-1067.034%" x2="370.069%" y2="457.107%" id="x"><stop stop-color="#00C8D7" offset="0%"/><stop stop-color="#008EA4" offset="100%"/></linearGradient><linearGradient x1="-1094.296%" y1="-4595.031%" x2="636.241%" y2="2428.583%" id="y"><stop stop-color="#00C8D7" offset="0%"/><stop stop-color="#008EA4" offset="100%"/></linearGradient><linearGradient x1="-414.856%" y1="-444.012%" x2="1493.602%" y2="1584.141%" id="z"><stop stop-color="#00C8D7" offset="0%"/><stop stop-color="#008EA4" offset="100%"/></linearGradient><linearGradient x1="-167.296%" y1="-2088.02%" x2="493.404%" y2="4399.316%" id="A"><stop stop-color="#00C8D7" offset="0%"/><stop stop-color="#008EA4" offset="100%"/></linearGradient><linearGradient x1="-2994.648%" y1="-1364.874%" x2="1929.424%" y2="923.569%" id="B"><stop stop-color="#00C8D7" offset="0%"/><stop stop-color="#008EA4" offset="100%"/></linearGradient><linearGradient x1="-2590.706%" y1="-794.497%" x2="2655.989%" y2="884.736%" id="C"><stop stop-color="#00C8D7" offset="0%"/><stop stop-color="#008EA4" offset="100%"/></linearGradient></defs><g fill="none" fill-rule="evenodd"><path d="M-18-32h352v303H-18z"/><g fill-rule="nonzero" fill="#D7D7DB"><path d="M204.3 76.9h-77.1c-.6 0-1.1-.5-1.1-1.1 0-.6.5-1.1 1.1-1.1h77.1c.6 0 1.1.5 1.1 1.1 0 .6-.5 1.1-1.1 1.1zM193.9 71.2h-13.4c-.3 0-.6-.2-.6-.6 0-.4.2-.6.6-.6h13.4c.3 0 .6.2.6.6 0 .4-.3.6-.6.6zM176.3 81.9H163c-.3 0-.6-.2-.6-.6 0-.3.2-.6.6-.6h13.4c.3 0 .6.2.6.6-.1.4-.3.6-.7.6zm-22.3 0h-3.3c-.3 0-.6-.2-.6-.6 0-.3.2-.6.6-.6h3.3c.3 0 .6.2.6.6 0 .4-.3.6-.6.6zm-7.8 0h-1.1c-.3 0-.6-.2-.6-.6 0-.3.2-.6.6-.6h1.1c.3 0 .6.2.6.6 0 .4-.3.6-.6.6zm-11.1 0h-13.4c-.3 0-.6-.2-.6-.6 0-.3.2-.6.6-.6h13.4c.3 0 .6.2.6.6-.1.4-.3.6-.6.6zm-22.3 0h-3.3c-.3 0-.6-.2-.6-.6 0-.3.2-.6.6-.6h3.3c.3 0 .6.2.6.6-.1.4-.3.6-.6.6zm-7.9 0h-1.1c-.3 0-.6-.2-.6-.6 0-.3.2-.6.6-.6h1.1c.3 0 .6.2.6.6 0 .4-.2.6-.6.6zm-11.1 0H80.4c-.3 0-.6-.2-.6-.6 0-.3.2-.6.6-.6h13.4c.3 0 .6.2.6.6-.1.4-.3.6-.6.6zm-22.3 0h-3.3c-.3 0-.6-.2-.6-.6 0-.3.2-.6.6-.6h3.3c.3 0 .6.2.6.6-.1.4-.3.6-.6.6zm-7.8 0h-1.1c-.3 0-.6-.2-.6-.6 0-.3.2-.6.6-.6h1.1c.3 0 .6.2.6.6-.1.4-.3.6-.6.6z"/></g><g fill-rule="nonzero"><path d="M152.2 48H176s-7.4-16.6 8.4-18.8c14.1-1.9 19.7 12.6 19.7 12.6s1.7-8.4 10.1-6.8c8.3 1.6 14.4 14.9 14.4 14.9h20.7" fill="#F9F9FA"/><path d="M249.5 46H245c-.3 0-.6-.3-.6-.6s.3-.6.6-.6h4.5c.3 0 .6.3.6.6s-.3.6-.6.6zM235 46h-1.1c-.3 0-.6-.2-.6-.6 0-.3.2-.6.6-.6h1.1c.3 0 .6.2.6.6-.1.3-.3.6-.6.6zm-5.6 0h-.6c-.2 0-.4-.1-.5-.3-.1-.2-.6-1.1-1.3-2.3-.2-.3-.1-.6.2-.8.3-.2.6-.1.8.2.6.9 1 1.7 1.2 2.1h.3c.3 0 .6.2.6.6-.1.2-.4.5-.7.5zm-53-.7h-1.5c-.3 0-.6-.3-.6-.6s.3-.6.6-.6h.6c-.1-.3-.2-.6-.4-1-.1-.3.1-.6.4-.7.3-.1.6.1.7.4.3 1 .6 1.7.6 1.7.1.2.1.4 0 .5-.1.1-.3.3-.4.3zm-10.4 0h-13.4c-.3 0-.6-.3-.6-.6s.3-.6.6-.6H166c.3 0 .6.3.6.6-.1.3-.3.6-.6.6zm8.7-6.1c-.3 0-.5-.2-.6-.5 0-.4-.1-.8-.1-1.1 0-.3.2-.6.5-.6s.6.2.6.5c0 .4.1.7.1 1.1.1.3-.1.5-.5.6.1 0 .1 0 0 0zm29.2-1.2c-.2 0-.4-.1-.5-.3-.1-.3-.3-.6-.5-1-.1-.3 0-.6.2-.8.3-.1.6 0 .8.2.2.4.4.7.5 1 .1.3 0 .6-.3.7 0 .2-.1.2-.2.2zm18-1.4c-.1 0-.3-.1-.4-.2-2.4-2.3-4.8-3.7-7.2-4.1-1.6-.3-3.1-.2-4.3.2-.3.1-.6-.1-.7-.4-.1-.3.1-.6.4-.7 1.4-.5 3.1-.6 4.9-.2 2.6.5 5.2 2 7.7 4.4.2.2.2.6 0 .8-.1.1-.3.2-.4.2zm-21-3.3c-.2 0-.3-.1-.4-.2-.7-.9-1.4-1.7-2.2-2.4-.2-.2-.2-.6 0-.8.2-.2.6-.2.8 0 .8.8 1.6 1.6 2.3 2.5.2.2.2.6-.1.8-.2.1-.3.1-.4.1zM178.1 29c-.2 0-.3-.1-.4-.2-.2-.2-.2-.6.1-.8 1.7-1.4 4.1-2.3 6.9-2.7 2.2-.3 4.3-.2 6.3.2.3.1.5.4.4.7-.1.3-.4.5-.7.4-1.9-.4-3.9-.5-5.9-.2-2.7.4-4.8 1.2-6.4 2.4-.1.2-.2.2-.3.2z" fill="#D7D7DB"/><path d="M250.2 50.2h-98c-.6 0-1.1-.5-1.1-1.1 0-.6.5-1.1 1.1-1.1h98c.6 0 1.1.5 1.1 1.1 0 .6-.5 1.1-1.1 1.1z" fill="#F9F9FA"/></g><g fill-rule="nonzero"><path d="M49 29.5h13.2s-4.1-9.3 4.7-10.4c7.8-1.1 10.9 7 10.9 7s.9-4.6 5.6-3.8c4.6.9 8 8.3 8 8.3h11.5" fill="#F9F9FA"/><path d="M62.7 28H49.5c-.3 0-.6-.3-.6-.6s.3-.6.6-.6h12.8s.1-.1.2-.1c.3-.1.6 0 .7.3l.1.1c.1.2.1.4 0 .5-.3.3-.5.4-.6.4zm36.6-.1H96c-.3 0-.6-.3-.6-.6s.3-.6.6-.6h3.3c.3 0 .6.3.6.6s-.3.6-.6.6zm-21-3.6h-.2c-.3-.1-.5-.4-.4-.7.3-.9 1.5-4 4.9-4 .4 0 .8 0 1.2.1 1.8.3 3.7 1.5 5.4 3.4.2.2.2.6 0 .8-.2.2-.6.2-.8 0-1.6-1.7-3.3-2.7-4.8-3-.4-.1-.7-.1-1-.1-2.6 0-3.6 2.2-3.8 3.2 0 .1-.2.3-.5.3zm-15.2-4.9c-.1 0-.3-.1-.4-.2-.2-.2-.2-.6 0-.8.8-.8 1.8-1.4 3.1-1.7.3-.1.6.1.7.4.1.3-.1.6-.4.7-1.1.3-2 .8-2.6 1.4-.1.2-.2.2-.4.2zm8.4-1.5h-.2c-.3-.1-.7-.2-1-.3-.3-.1-.5-.3-.4-.7.1-.3.4-.5.7-.4.4.1.8.2 1.1.3.3.1.5.4.4.7-.1.3-.3.4-.6.4z" fill="#D7D7DB"/><path d="M103.8 31.7H49.3c-.6 0-1.1-.5-1.1-1.1 0-.6.5-1.1 1.1-1.1h54.5c.6 0 1.1.5 1.1 1.1 0 .6-.5 1.1-1.1 1.1z" fill="#F9F9FA"/></g><g fill-rule="nonzero"><path d="M19.3 169.5c-2.8 0-5.1-2.2-5.1-4.8V46.2c0-3 2.4-5.4 5.4-5.4h127.2c3 0 5.4 2.4 5.4 5.4v118.5c0 2.6-2.3 4.8-5 4.8H19.3z" fill="#FFF"/><path d="M146.8 41.9c2.3 0 4.2 1.9 4.2 4.2v118.4c0 2-1.8 3.7-3.9 3.7H19.3c-2.2 0-3.9-1.7-3.9-3.7V46.2c0-2.3 1.9-4.2 4.2-4.2h127.2v-.1zm0-2.2H19.6c-3.6 0-6.5 2.9-6.5 6.5v118.4c0 3.3 2.8 5.9 6.2 5.9h127.8c3.4 0 6.2-2.7 6.2-5.9V46.2c-.1-3.6-3-6.5-6.5-6.5z" fill="#D7D7DB"/></g><path d="M145.6 63v98.2c0 1-.1 1.2-.1 1.2s-.2.1-1.2.1H22.1c-1 0-1.2-.1-1.2-.1s-.1-.2-.1-1.2V63h124.8zm1.1-1.1H19.6v99.3c0 2 .4 2.5 2.5 2.5h122.2c2 0 2.5-.4 2.5-2.5V61.9h-.1z" fill-rule="nonzero" fill="#D7D7DB"/><g fill-rule="nonzero" fill="#D7D7DB"><circle cx="3.4" cy="2.9" r="2.9" transform="translate(23 49)"/><circle cx="3.7" cy="2.9" r="2.9" transform="translate(32 49)"/><path d="M115.1 55.1H51.2c-1.7 0-3.1-1.4-3.1-3.1v-.3c0-1.7 1.4-3.1 3.1-3.1h63.9c1.7 0 3.1 1.4 3.1 3.1v.3c0 1.7-1.3 3.1-3.1 3.1z"/><g><circle cx="3.7" cy="2.9" r="2.9" transform="translate(127 49)"/><circle cx="2.9" cy="2.9" r="2.9" transform="translate(137 49)"/></g></g><g transform="translate(149 84)"><ellipse fill="#EDEDF0" fill-rule="nonzero" cx="42.6" cy="142.4" rx="42.6" ry="6.5"/><path d="M121.2 99.9c-1.3-3.2-4.3-5.2-7.7-5.2-.7 0-1.4.1-2.1.3-.8 0-3.1-.3-7.2-2-1.7-.7-4.9-3.9-8.4-10.5 5.2-19.9 5.5-36.9.7-50.4-.4-1-.9-2.1-1.5-3.2l-.3-1.4 2-1.7c1.6-1.4 2.3-3.5 1.7-5.6-.3-1.2-1.1-2.2-2-2.9 0-.3 0-.6-.1-.9-.4-2.3-2.2-4.1-4.5-4.4-.4-.1-10.6-1.7-17.1-1.7h-.4l-1.7-2.8C70 3.3 65.5.8 60.5.8c-2.6 0-5.2.7-7.5 2.1-2.6 1.6-4.5 4-5.7 6.7-6 .7-12.1 2.3-18.3 4.7l-3.4-1.4c-1.7-.7-3.5-1.1-5.4-1.1-5.8 0-11 3.5-13.2 8.8-2.7 6.6-.1 14 5.8 17.6-1.1 5.9-1.5 12.5-1 19.6.6 9-2.2 13.5-5.1 18.2-4.4 7.1-9.4 15.2 0 33.8 0 2.3.1 4.2.2 5.8 1.3 11.8 4.7 17.7 10 17.7 1 0 1.9-.2 2.7-.6 2.2-1.1 3.3-2.7 5-9.9 9.3 3.1 21.2 5.8 31 6.9-1.7 7.6-1.5 9.4 0 11.4 1.2 1.5 3 2.4 5 2.4 4.2 0 8.9-4.1 14-12.1 1.3-2.1 2.8-5 4.4-8.5 1.4-2.4 5.5-9.7 10-21 2.8 2.9 5.7 5 8.6 6.2 5.2 2.1 9.8 3.2 13.5 3.2 2.5 0 4.2-.5 5.1-.9 4.7-1.4 6.8-6.2 5-10.5z" fill="#F9F9FA" fill-rule="nonzero"/><path d="M115.2 101.7c-.4-.9-1.5-1.4-2.4-1-.2.1-.6.1-1.2.1-1.4 0-4.6-.3-9.9-2.4-5.5-2.2-10.3-10.7-12.7-15.5-.1-.2-.1-.5-.1-.8 5.4-19.5 5.9-35.8 1.4-48.5-.3-.8-.7-1.8-1.3-2.7-.1-.1-.1-.2-.1-.3l-1.3-5.4c-.1-.4 0-.8.4-1.1l2.6-2.2-5.8-.9c-.5-.1-.9-.4-.9-.9s.2-.9.6-1.2l3-1.6c-3.5-.5-8.9-1.1-12.7-1.1-1.1 0-2 .1-2.6.2l-.4.1c-.4.1-.9-.1-1.1-.5l-3.4-5.5c-1.4-2.3-3.9-3.6-6.6-3.6-1.4 0-2.8.4-4.1 1.2-2.2 1.4-3.5 3.7-3.6 6.3 0 .6-.5 1-1.1 1.1-7.2.4-14.7 2.2-22.3 5.4-.3.1-.6.1-.9 0l-5.4-2.2c-.9-.4-1.9-.6-2.9-.6-3.1 0-6 1.9-7.1 4.8-1.6 3.9.3 8.4 4.2 10.1l2.3.9c.5.2.8.8.7 1.3-1.8 6.3-2.4 13.6-1.8 22 .7 11.1-2.9 16.9-6.1 22.1-4.3 6.9-7.7 12.3.9 28.6.1.2.1.4.1.5-.1 2.6 0 4.7.2 6.4.8 7.8 2.6 11.2 3.4 11.8.4-.8 1.2-3.3 2.9-11.4.1-.3.3-.6.6-.8.2-.1.3-.1.5-.1.1 0 .3 0 .4.1 10.8 4.5 29.7 8.7 41.2 9.1.3 0 .7.2.9.4.2.3.3.6.2.9-2.2 8.3-2.5 11-2.5 11.9 1.1-.3 4.2-2.7 8.3-9.1 1.2-1.9 2.5-4.5 4-8 0 0 0-.1.1-.1 3.3-5.6 8.8-16.6 13-29.5.1-.4.5-.7.9-.8.4 0 .9.2 1.1.5 3.7 6.2 7.8 10.4 11.8 12 5.5 2.2 9.1 2.7 11.1 2.7 1.6 0 2.4-.3 2.7-.4.7-.3 1.2-1.3.8-2.3z"/><path d="M114.6 97.3c-.9-2.1-2.9-3.5-5.1-3.5-.6 0-1.1.1-1.7.3-.7 0-3.4 0-8.7-2.2-3-1.2-6.9-6-10.3-12.8 5.4-19.8 5.7-36.6 1-49.8-.3-1-.8-2-1.4-3l-.9-3.4 3.3-2.8c.8-.7 1.1-1.7.8-2.7-.3-1-1.1-1.7-2.1-1.9l-.7-.1c.5-.6.8-1.4.6-2.2-.2-1.1-1-2-2.1-2.1-.1 0-10.3-1.6-16.7-1.6-.7 0-1.3 0-1.9.1l-2.6-4.2C64 2 60.4 0 56.4 0c-2.1 0-4.2.6-6 1.7-2.5 1.6-4.3 4.1-5.1 6.9-6.7.6-13.5 2.3-20.4 5.1l-4.4-1.8c-1.4-.6-2.8-.9-4.3-.9-4.7 0-8.8 2.8-10.6 7.1-2.4 5.8.4 12.5 6.2 14.9l.2.1c-1.4 6.1-1.9 13.2-1.4 21C11.3 64 8.1 69.1 5 74c-4.3 6.9-8.7 14 .4 31.7 0 2.4 0 4.5.2 6.2.6 5.7 2.4 15.3 7.2 15.3.5 0 1-.1 1.5-.4 1.3-.6 2.1-1.5 4.2-11.1 10.4 3.8 25.5 7.2 36.5 8.1-2.6 10.4-2 11.2-1.2 12.2.7.9 1.7 1.4 2.8 1.4 4.1 0 9.1-6.8 11.6-10.8 1.3-2 2.7-4.8 4.2-8.3 3-5.1 7.5-14.2 11.6-25.1 3.4 4.5 6.9 7.6 10.6 9.1 4.9 2 9.1 3 12.5 3 2 0 3.3-.4 4.1-.7 3.2-1.2 4.6-4.4 3.4-7.3zm-4.4 3.8c-.3.1-1.1.4-2.7.4-2 0-5.6-.5-11.1-2.7-3.9-1.6-8-5.7-11.8-12-.2-.4-.6-.6-1.1-.5-.4 0-.8.3-.9.8-4.3 12.8-9.7 23.9-13 29.5 0 0 0 .1-.1.1-1.5 3.4-2.8 6.1-4 8-4.1 6.4-7.2 8.8-8.3 9.1 0-.9.4-3.6 2.5-11.9.1-.3 0-.7-.2-.9-.2-.3-.5-.4-.9-.4-11.6-.4-30.5-4.6-41.2-9.1-.1-.1-.3-.1-.4-.1-.2 0-.4 0-.5.1-.3.2-.5.4-.6.8-1.7 8.1-2.5 10.6-2.9 11.4-.8-.7-2.6-4-3.4-11.8-.2-1.7-.2-3.8-.2-6.4 0-.2 0-.4-.1-.5-8.6-16.3-5.2-21.7-.9-28.6 3.2-5.1 6.8-11 6.1-22.1-.5-8.3.1-15.7 1.8-22 .2-.5-.1-1.1-.7-1.3l-2.3-.9C9.4 28.5 7.5 24 9.1 20c1.2-2.9 4-4.8 7.1-4.8 1 0 2 .2 2.9.6l5.4 2.2c.3.1.6.1.9 0 7.6-3.2 15-5 22.3-5.4.6 0 1-.5 1.1-1.1.1-2.6 1.5-4.9 3.6-6.3C53.6 4.4 55 4 56.5 4c2.7 0 5.1 1.4 6.6 3.6l3.4 5.5c.2.4.7.6 1.1.5l.4-.1c.7-.1 1.6-.2 2.6-.2 3.8 0 9.2.6 12.7 1.1l-3 1.6c-.4.2-.7.7-.6 1.2.1.5.5.8.9.9l5.8.9-2.6 2.2c-.3.3-.5.7-.4 1.1l1.3 5.4c0 .1.1.2.1.3.6 1 1 1.9 1.3 2.7 4.5 12.7 4 29-1.4 48.5-.1.3 0 .5.1.8 2.4 4.8 7.1 13.2 12.7 15.5 5.3 2.1 8.4 2.4 9.9 2.4.6 0 1 0 1.2-.1.9-.4 2 .1 2.4 1 .6.9.1 1.9-.8 2.3z" fill="url(#a)" fill-rule="nonzero" transform="translate(4 3)"/><path d="M36.5 40.8c-1.1 0-2.2-.2-3.3-.7L17 33.5c-4.5-1.8-6.7-7-4.8-11.5 1.8-4.5 7-6.7 11.5-4.8l16.2 6.6c4.5 1.8 6.7 7 4.8 11.5-1.4 3.5-4.7 5.5-8.2 5.5z" fill="url(#b)" fill-rule="nonzero"/><path d="M70.8 39.6c-3 0-5.8-1.5-7.5-4.2L53 18.9c-2.6-4.1-1.3-9.6 2.8-12.2 4.1-2.6 9.6-1.3 12.2 2.8L78.3 26c2.6 4.1 1.3 9.6-2.8 12.2-1.5 1-3.1 1.4-4.7 1.4z" fill="url(#c)" fill-rule="nonzero"/><path d="M28.5 19.6c-2.2.9-12.8 10.5-11.1 37.2 1.7 26.2-21.6 21.9-3.8 53.5 3.9 6.9 50.3 17.8 58.7 12.7 2.5-1.5 31.6-54.6 19.1-90-4.1-11.5-28.5-28-62.9-13.4z" fill="url(#d)" fill-rule="nonzero"/><path d="M14.1 87.8s-2.6 17.8-1.7 26.7c1 8.8 3.4 13.7 5.1 12.9 1.7-.8 6.3-26.8 6.3-26.8l-9.7-12.8z" fill="url(#e)" fill-rule="nonzero"/><path d="M80.7 103.3s-5.5 17.2-10.3 24.7c-4.8 7.5-9.1 10.8-10.2 9.3-1.2-1.5 6.3-26.8 6.3-26.8l14.2-7.2z" fill="url(#f)" fill-rule="nonzero"/><path d="M33.4 19.2c7.8-4 28.9-2.7 38.5-4.1C77 14.3 91 16.5 91 16.5l-6 3.2 8.2 1.3-4.5 3.8 1.8 7.4-1.3-.7-46.3-12.8-9.5.5z" fill="url(#g)" fill-rule="nonzero"/><path d="M111.5 105.4c-2.3 0-6-.6-11.5-2.8-10-4-16.7-21-17.4-22.9-.6-1.5.2-3.2 1.7-3.8 1.5-.6 3.2.2 3.8 1.7 1.7 4.5 7.7 16.9 14.1 19.5 7.1 2.9 10.2 2.3 10.2 2.3 1.5-.6 3.2.1 3.8 1.6.6 1.5-.1 3.2-1.6 3.8-.5.3-1.5.6-3.1.6z" fill="url(#h)" fill-rule="nonzero"/><path d="M35.3 30c-8.3 5.5-3.2 72.7 2.7 80 9.6 11.8 31.7 9.3 34.7 3 1.1-2.3 26.1-48.3 14.3-79.9C84 25 64.5 10.7 35.3 30z" fill="#F9F9FA" fill-rule="nonzero"/><path d="M50.3 44.1c.9.2 1.4 1.1 1.2 1.9l-.8 3.5c-.2.9-1.1 1.4-1.9 1.2-.9-.2-1.4-1.1-1.2-1.9l.8-3.5c.1-.9 1-1.4 1.9-1.2z" fill="url(#i)" fill-rule="nonzero"/><path d="M81.3 45.1c.9.2 1.4 1.1 1.2 1.9l-.8 3.5c-.2.9-1.1 1.4-1.9 1.2-.9-.2-1.4-1.1-1.2-1.9l.8-3.5c.2-.9 1.1-1.4 1.9-1.2z" fill="url(#j)" fill-rule="nonzero"/><path d="M48.8 57.9c-.5 0-1-.1-1.5-.2-3.5-.8-4.7-3.9-4.7-4.1-.3-.8.1-1.6.9-1.9.8-.3 1.6.1 1.9.9 0 .1.7 1.8 2.6 2.2 2 .5 3.3-.8 3.3-.8.6-.6 1.5-.5 2.1 0 .6.6.5 1.5 0 2.1-.2.1-1.9 1.8-4.6 1.8z" fill="url(#k)" fill-rule="nonzero"/><path d="M80.5 53.6c-.5 0-1-.1-1.5-.2-3.5-.8-4.7-3.9-4.7-4.1-.3-.8.1-1.6.9-1.9.8-.3 1.6.1 1.9.9 0 .1.7 1.8 2.6 2.2 1.9.5 3.3-.8 3.3-.8.6-.5 1.5-.5 2.1.1.6.6.5 1.5 0 2.1-.1.1-1.9 1.7-4.6 1.7z" fill="url(#l)" fill-rule="nonzero"/><path d="M56.6 69.5c-.8 0-1.4-.6-1.5-1.3-.1-.8.5-1.5 1.3-1.6 8.9-.7 17.1-2.5 18-3.8 1-1.7 1.2-4 1.2-4.1 0-.8.7-1.4 1.4-1.4.8 0 1.4.5 1.5 1.3.1 1.3.6 3.4 1.2 4.1C80.8 64 82 63.9 82 64c.8 0 1.5.6 1.6 1.4.1.8-.6 1.5-1.4 1.6-1 .1-3.2-.3-4.8-2.3-.1-.2-.3-.4-.4-.6-.1.1-.1.2-.2.3-2 3.3-14.9 4.7-20.3 5.2l.1-.1z" fill="url(#m)" fill-rule="nonzero"/><g fill-rule="nonzero"><path d="M2.4 4.5c-1.1.7 5.3 3.9 6.2 3.9 1.4 0 7.8-2.8 7.6-5C16 2.3 6.8 1.6 2.4 4.5z" fill="url(#n)" transform="translate(70 52)"/><path d="M8.6 10C7.5 10 1.5 7.3.9 5.3c-.2-.8.1-1.5.7-2C5.8.5 13.9.6 16.3 1.7c1 .4 1.2 1.1 1.3 1.6.1.9-.2 1.7-1 2.6-1.8 2-6.4 4.1-8 4.1zm-4-5c1.3.8 3.5 1.9 4.1 2 .9-.1 4.3-1.7 5.5-2.8-1.9-.4-6.4-.5-9.6.8z" fill="url(#o)" transform="translate(70 52)"/></g><g fill-rule="nonzero"><path d="M115 93.1l-7.2.1-.5-40.8c0-3.3 2.5-6.1 5.7-6.4.3 0 .5.2.5.4l1.5 46.7z" fill="#C8C8CC"/><path d="M130.1 53.6c.2-.2.5-.1.7.1 1.9 2.7 1.4 6.4-1.1 8.5L98.4 88.3l-4.6-5.5 36.3-29.2z" fill="#E1E1E6"/><path d="M.7 9.3c-.4 2.7.2 5.2 1.9 7.1.8 1 1.8 1.7 2.9 2.3 3.5 1.6 7.8 1 11-1.7.2-.2.5-.4.7-.6L27.3 8c.4-.4.7-.9.8-1.4.1-.6-.1-1.1-.5-1.5l-2.9-3.4c-.2-.2-.4-.4-.7-.6-.2-.1-.5-.2-.7-.2-.6-.1-1.1.1-1.5.5l-2.9 2.4c-.1-.2-.2-.3-.4-.5-.8-1-1.8-1.7-2.9-2.3-3.5-1.6-7.8-1-11 1.7C2.5 4.4 1.1 6.8.7 9.3zm6.6-3.4c1.9-1.6 4.5-2.1 6.5-1.1.6.3 1.1.7 1.5 1.1 1.4 1.6 1.3 4.1.1 6.1-.5.7-1.2 1.4-2 2.1-1.9 1.3-4.2 1.5-5.9.7-.6-.3-1.1-.7-1.5-1.1-.8-1-1.2-2.4-.9-3.8 0-1.4.9-2.9 2.2-4z" transform="translate(77 76)" fill="url(#p)"/><path d="M0 2.9l.2 13.2v.9c.1 4.1 2.3 7.8 5.7 9.4 1.2.6 2.5.9 3.8.8 5.1-.1 9.3-4.8 9.2-10.5-.1-4.1-2.3-7.8-5.7-9.4-1.2-.6-2.5-.9-3.8-.8h-.6V2.7c0-.8-.5-1.5-1.2-1.9C7.3.7 7 .6 6.7.6L2.2.7c-.6 0-1.1.2-1.5.6-.5.5-.7 1-.7 1.6zm11.3 8.2c1.9.9 3.2 3.1 3.3 5.6 0 3.4-2.2 6.1-5 6.2-.7 0-1.3-.1-1.9-.4-1.8-.8-3-2.7-3.2-4.9v-.1c0-1.2.1-2.1.3-2.9.7-2.3 2.5-3.9 4.7-3.9.5 0 1.2.1 1.8.4z" transform="translate(107 83)" fill="url(#q)"/><path d="M111.3 71c1.3.1 2.2 1.3 2.1 2.5-.1 1.2-1.3 2.2-2.5 2.1-1.3-.1-2.2-1.3-2.1-2.5.1-1.2 1.2-2.3 2.5-2.1z" fill="#C8C8CC"/></g><path d="M1.4 2.4L.3 6c-1 3.1.7 6.4 3.8 7.4 3.1 1 6.4-.7 7.4-3.8L14.4.3l-13 2.1z" transform="translate(57 67)" fill-rule="nonzero" fill="url(#r)"/><path d="M63.2 75H63c-.4-.1-.6-.5-.5-.9l2.2-6.8c.1-.4.5-.6.9-.5.4.1.6.5.5.9l-2.2 6.8c-.1.3-.4.5-.7.5z" fill="url(#s)" fill-rule="nonzero"/><path d="M58.6 98.5c-17.5 0-33-27.8-33.7-29-.8-1.4-.3-3.2 1.2-4 1.4-.8 3.2-.3 4 1.2 4.2 7.6 17.6 27 29.5 25.9 15.2-1.4 22.4-6.9 22.5-7 1.3-1 3.1-.8 4.1.5 1 1.3.8 3.1-.4 4.1-.3.3-8.5 6.7-25.6 8.2-.6.1-1.1.1-1.6.1z" fill="url(#t)" fill-rule="nonzero"/><path d="M112.5 98.2s-8 3.2-8.1 5.9c-.1 2.7 8.2 6 11.8.7 3.6-5.3-2.2-7.3-3.7-6.6z" fill="url(#u)" fill-rule="nonzero"/><path d="M30.4 65.6s.7 5.9 4.4 9.2c3.7 3.3-4.8 8.1-4.4 15.4.4 7.4 0-24.6 0-24.6z" fill="url(#v)" fill-rule="nonzero"/><path d="M58.7 99.3h-1.1c-13.7-.4-25.7-18-26.2-18.7-.2-.3-.1-.8.2-1 .3-.2.8-.1 1 .2.1.2 12.1 17.7 25 18.1 12.8.3 25.4-6.2 27.1-7.7.5-.4.9-2.6.2-3.7-.7-1-2.4-.3-3.6.5-.3.2-.8.1-1-.2-.2-.3-.1-.8.2-1 3.4-2.1 4.9-.9 5.6-.1 1.2 1.7.8 4.7-.4 5.7-1.2.8-13.3 7.9-27 7.9z" fill="url(#w)" fill-rule="nonzero"/><path d="M110.8 108.6c-1.3 0-2.8-.3-4.5-1.3-1.9-1-2.8-2.2-2.7-3.6.2-2.7 4.7-4.6 5.2-4.8.4-.1.8 0 1 .4.1.4 0 .8-.4 1-1.6.6-4.2 2.1-4.3 3.5-.1.9 1 1.7 1.9 2.2 2.2 1.2 4.3 1.4 6.1.6 2.1-1 3.1-2.9 3.2-3.2.1-.6.5-2.4-.5-3.5-.7-.8-2.1-1.1-4.1-.9-.4 0-.8-.3-.8-.7 0-.4.3-.8.7-.8 2.5-.2 4.3.2 5.3 1.4 1.5 1.6 1 4 .8 4.7-.2.9-1.6 3.2-4 4.3-.7.4-1.7.7-2.9.7z" fill="url(#x)" fill-rule="nonzero"/><path d="M61.1 125.9c-.4 0-.7-.3-.7-.7 0-.4.3-.7.7-.7 3.2 0 8.1-1 8.2-1 .4-.1.8.2.9.6.1.4-.2.8-.6.9-.2-.1-5.2.9-8.5.9z" fill="url(#y)" fill-rule="nonzero"/><path d="M22.8 25.7h-.2c-.4-.1-.6-.5-.5-.9.2-.7 2.4-5 7.8-7.4.4-.2.8 0 1 .4.2.4 0 .8-.4 1-4.7 2-6.7 5.8-6.9 6.4-.1.3-.4.5-.8.5z" fill="url(#z)" fill-rule="nonzero"/><path d="M68.4 15c-8.9 0-18.2-1.2-18.3-1.2-.4-.1-.7-.4-.6-.8.1-.4.4-.7.8-.6.1 0 14.1 1.8 24.1 1 .4 0 .8.3.8.7 0 .4-.3.8-.7.8-1.9 0-4 .1-6.1.1z" fill="url(#A)" fill-rule="nonzero"/><path d="M88.8 89.3h-.2c-.4-.1-.6-.5-.5-.9l2-6c.1-.4.5-.6.9-.5.4.1.6.5.5.9l-2 6c-.1.3-.4.5-.7.5z" fill="url(#B)" fill-rule="nonzero"/><path d="M20.9 119.5h-.1c-.4-.1-.7-.5-.6-.9l1.7-8.6c.1-.4.5-.7.9-.6.4.1.7.5.6.9l-1.7 8.6c-.2.3-.5.6-.8.6z" fill="url(#C)" fill-rule="nonzero"/></g><path d="M70.6 82.6c-3.7 0-6.7 3-6.7 6.7h6.7v-6.7zm20 0h-6.7v6.7h6.7v-6.7zm13.3 0v6.7h6.7c-.1-3.7-3.1-6.7-6.7-6.7zm-23.3 0h-6.7v6.7h6.7v-6.7zm19.9 0h-6.7v6.7h6.7v-6.7zm3.4 16.7h6.7v-6.7h-6.7v6.7zm0 19.9c3.7 0 6.7-3 6.7-6.7h-6.7v6.7zm0-9.9h6.7v-6.7h-6.7v6.7zm-1.5-7.3c-2.1-3-6.3-3.7-9.3-1.6l-12.8 9.4-6.6-4.6c0-.3.1-.6.1-1 0-2.7-1.3-5.1-3.3-6.6v-5h-6.7v3.5c-3.8.8-6.7 4.1-6.7 8.2 0 4.6 3.7 8.3 8.3 8.3 1.8 0 3.5-.6 4.9-1.6l4.1 2.9-4.6 3.3c-1.3-.8-2.7-1.2-4.3-1.2-4.6 0-8.3 3.7-8.3 8.3 0 4.6 3.7 8.3 8.3 8.3 4.6 0 8.3-3.7 8.3-8.3 0-.6-.1-1.1-.2-1.6l28.8-20.7zm-36.8 6.4c-2.3 0-4.2-1.9-4.2-4.2 0-2.3 1.9-4.2 4.2-4.2 2.3 0 4.2 1.9 4.2 4.2-.1 2.4-1.9 4.2-4.2 4.2zm0 20c-2.3 0-4.2-1.9-4.2-4.2 0-2.3 1.9-4.2 4.2-4.2 2.3 0 4.2 1.9 4.2 4.2 0 2.3-1.9 4.2-4.2 4.2zm17.9-8.1l10 7.6c3 2.1 7.2 1.4 9.3-1.6l-13.5-10.1-5.8 4.1z" fill="#D7D7DB" fill-rule="nonzero"/><g fill-rule="nonzero" fill="#D7D7DB"><path d="M17.2 26.9l-.1-.1c0 .1.1.1.1.1zM266.5 1.5V6c0 .8-.7 1.5-1.5 1.5s-1.5-.7-1.5-1.5V3h-2.9c-.8 0-1.5-.7-1.5-1.5s.7-1.5 1.5-1.5h4.4c.9.1 1.5.7 1.5 1.5zM266.5 14.5V23c0 .8-.7 1.5-1.5 1.5s-1.5-.7-1.5-1.5v-8.5c0-.8.7-1.5 1.5-1.5s1.5.7 1.5 1.5zm0 17.1v8.5c0 .8-.7 1.5-1.5 1.5s-1.5-.7-1.5-1.5v-8.5c0-.8.7-1.5 1.5-1.5s1.5.6 1.5 1.5zm0 17v8.5c0 .8-.7 1.5-1.5 1.5s-1.5-.7-1.5-1.5v-8.5c0-.8.7-1.5 1.5-1.5s1.5.7 1.5 1.5zm0 17.1v8.5c0 .8-.7 1.5-1.5 1.5s-1.5-.7-1.5-1.5v-8.5c0-.8.7-1.5 1.5-1.5s1.5.7 1.5 1.5zm0 17v8.5c0 .8-.7 1.5-1.5 1.5s-1.5-.7-1.5-1.5v-8.5c0-.8.7-1.5 1.5-1.5s1.5.7 1.5 1.5zm0 17.1v8.5c0 .8-.7 1.5-1.5 1.5s-1.5-.7-1.5-1.5v-8.5c0-.8.7-1.5 1.5-1.5s1.5.7 1.5 1.5zm0 17.1v8.5c0 .8-.7 1.5-1.5 1.5s-1.5-.7-1.5-1.5v-8.5c0-.8.7-1.5 1.5-1.5s1.5.6 1.5 1.5zm0 17v8.5c0 .8-.7 1.5-1.5 1.5s-1.5-.7-1.5-1.5v-8.5c0-.8.7-1.5 1.5-1.5s1.5.7 1.5 1.5zm0 17.1v8.5c0 .8-.7 1.5-1.5 1.5s-1.5-.7-1.5-1.5V151c0-.8.7-1.5 1.5-1.5s1.5.7 1.5 1.5zm0 17v8.5c0 .8-.7 1.5-1.5 1.5s-1.5-.7-1.5-1.5V168c0-.8.7-1.5 1.5-1.5s1.5.7 1.5 1.5zM266.5 185.1v4.4c0 .8-.7 1.5-1.5 1.5h-4.4c-.8 0-1.5-.7-1.5-1.5s.7-1.5 1.5-1.5h2.9v-2.9c0-.8.7-1.5 1.5-1.5s1.5.7 1.5 1.5zM253.3 189.5c0 .8-.7 1.5-1.5 1.5H243c-.8 0-1.5-.7-1.5-1.5s.7-1.5 1.5-1.5h8.8c.9.1 1.5.7 1.5 1.5zm-17.5 0c0 .8-.7 1.5-1.5 1.5h-8.8c-.8 0-1.5-.7-1.5-1.5s.7-1.5 1.5-1.5h8.8c.8.1 1.5.7 1.5 1.5zm-17.6 0c0 .8-.7 1.5-1.5 1.5H208c-.8 0-1.5-.7-1.5-1.5s.7-1.5 1.5-1.5h8.8c.7.1 1.4.7 1.4 1.5zm-17.6 0c0 .8-.7 1.5-1.5 1.5h-8.8c-.8 0-1.5-.7-1.5-1.5s.7-1.5 1.5-1.5h8.8c.9.1 1.5.7 1.5 1.5zm-17.5 0c0 .8-.7 1.5-1.5 1.5h-8.8c-.8 0-1.5-.7-1.5-1.5s.7-1.5 1.5-1.5h8.8c.8.1 1.5.7 1.5 1.5zm-17.6 0c0 .8-.7 1.5-1.5 1.5h-8.8c-.8 0-1.5-.7-1.5-1.5s.7-1.5 1.5-1.5h8.8c.9.1 1.5.7 1.5 1.5zm-17.5 0c0 .8-.7 1.5-1.5 1.5h-8.8c-.8 0-1.5-.7-1.5-1.5s.7-1.5 1.5-1.5h8.8c.8.1 1.5.7 1.5 1.5zm-17.6 0c0 .8-.7 1.5-1.5 1.5h-8.8c-.8 0-1.5-.7-1.5-1.5s.7-1.5 1.5-1.5h8.8c.8.1 1.5.7 1.5 1.5zm-17.6 0c0 .8-.7 1.5-1.5 1.5h-8.8c-.8 0-1.5-.7-1.5-1.5s.7-1.5 1.5-1.5h8.8c.9.1 1.5.7 1.5 1.5zm-17.5 0c0 .8-.7 1.5-1.5 1.5H85c-.8 0-1.5-.7-1.5-1.5s.7-1.5 1.5-1.5h8.8c.8.1 1.5.7 1.5 1.5zm-17.6 0c0 .8-.7 1.5-1.5 1.5h-8.8c-.8 0-1.5-.7-1.5-1.5s.7-1.5 1.5-1.5h8.8c.9.1 1.5.7 1.5 1.5zm-17.5 0c0 .8-.7 1.5-1.5 1.5h-8.8c-.8 0-1.5-.7-1.5-1.5s.7-1.5 1.5-1.5h8.8c.8.1 1.5.7 1.5 1.5zm-17.6 0c0 .8-.7 1.5-1.5 1.5h-8.8c-.8 0-1.5-.7-1.5-1.5s.7-1.5 1.5-1.5h8.8c.9.1 1.5.7 1.5 1.5zm-17.5 0c0 .8-.7 1.5-1.5 1.5h-8.8c-.8 0-1.5-.7-1.5-1.5s.7-1.5 1.5-1.5h8.8c.8.1 1.5.7 1.5 1.5zM7.5 189.5c0 .8-.7 1.5-1.5 1.5H1.6c-.8 0-1.5-.7-1.5-1.5v-4.4c0-.8.7-1.5 1.5-1.5s1.5.7 1.5 1.5v2.9H6c.8.1 1.5.7 1.5 1.5zM3.1 14.5V23c0 .8-.7 1.5-1.5 1.5S.1 23.8.1 23v-8.5c0-.8.7-1.5 1.5-1.5s1.5.7 1.5 1.5zm0 17.1v8.5c0 .8-.7 1.5-1.5 1.5S.1 40.9.1 40.1v-8.5c0-.8.7-1.5 1.5-1.5s1.5.6 1.5 1.5zm0 17v8.5c0 .8-.7 1.5-1.5 1.5S.1 57.9.1 57.1v-8.5c0-.8.7-1.5 1.5-1.5s1.5.7 1.5 1.5zm0 17.1v8.5c0 .8-.7 1.5-1.5 1.5S.1 75 .1 74.2v-8.5c0-.8.7-1.5 1.5-1.5s1.5.7 1.5 1.5zm0 17v8.5c0 .8-.7 1.5-1.5 1.5S.1 92 .1 91.2v-8.5c0-.8.7-1.5 1.5-1.5s1.5.7 1.5 1.5zm0 17.1v8.5c0 .8-.7 1.5-1.5 1.5s-1.5-.7-1.5-1.5v-8.5c0-.8.7-1.5 1.5-1.5s1.5.7 1.5 1.5zm0 17.1v8.5c0 .8-.7 1.5-1.5 1.5s-1.5-.7-1.5-1.5v-8.5c0-.8.7-1.5 1.5-1.5s1.5.7 1.5 1.5zm0 17v8.5c0 .8-.7 1.5-1.5 1.5s-1.5-.7-1.5-1.5v-8.5c0-.8.7-1.5 1.5-1.5s1.5.7 1.5 1.5zm0 17.1v8.5c0 .8-.7 1.5-1.5 1.5s-1.5-.7-1.5-1.5V151c0-.8.7-1.5 1.5-1.5s1.5.7 1.5 1.5zm0 17v8.5c0 .8-.7 1.5-1.5 1.5s-1.5-.7-1.5-1.5V168c0-.8.7-1.5 1.5-1.5s1.5.7 1.5 1.5zM7.5 1.5C7.5 2.3 6.8 3 6 3H3.1v3c0 .8-.7 1.5-1.5 1.5S.1 6.8.1 6V1.6C.1.8.8.1 1.6.1H6c.8 0 1.5.6 1.5 1.4zM253.3 1.5c0 .8-.7 1.5-1.5 1.5H243c-.8 0-1.5-.7-1.5-1.5S242.2 0 243 0h8.8c.9.1 1.5.7 1.5 1.5zm-17.5 0c0 .8-.7 1.5-1.5 1.5h-8.8c-.8 0-1.5-.7-1.5-1.5s.7-1.5 1.5-1.5h8.8c.8.1 1.5.7 1.5 1.5zm-17.6 0c0 .8-.7 1.5-1.5 1.5h-8.8c-.8 0-1.5-.7-1.5-1.5s.7-1.5 1.5-1.5h8.8c.8.1 1.5.7 1.5 1.5zm-17.6 0c0 .8-.7 1.5-1.5 1.5h-8.8c-.8 0-1.5-.7-1.5-1.5s.7-1.5 1.5-1.5h8.8c.9.1 1.5.7 1.5 1.5zm-17.5 0c0 .8-.7 1.5-1.5 1.5h-8.8c-.8 0-1.5-.7-1.5-1.5S172 0 172.8 0h8.8c.8.1 1.5.7 1.5 1.5zm-17.6 0c0 .8-.7 1.5-1.5 1.5h-8.8c-.8 0-1.5-.7-1.5-1.5s.7-1.5 1.5-1.5h8.8c.9.1 1.5.7 1.5 1.5zm-17.5 0c0 .8-.7 1.5-1.5 1.5h-8.8c-.8 0-1.5-.7-1.5-1.5s.7-1.5 1.5-1.5h8.8c.8.1 1.5.7 1.5 1.5zm-17.6 0c0 .8-.7 1.5-1.5 1.5h-8.8c-.8 0-1.5-.7-1.5-1.5s.7-1.5 1.5-1.5h8.8c.8.1 1.5.7 1.5 1.5zm-17.6 0c0 .8-.7 1.5-1.5 1.5h-8.8c-.8 0-1.5-.7-1.5-1.5s.7-1.5 1.5-1.5h8.8c.9.1 1.5.7 1.5 1.5zm-17.5 0c0 .8-.7 1.5-1.5 1.5H85c-.8 0-1.5-.7-1.5-1.5S84.2 0 85 0h8.8c.8.1 1.5.7 1.5 1.5zm-17.6 0c0 .8-.7 1.5-1.5 1.5h-8.8c-.8 0-1.5-.7-1.5-1.5S66.6 0 67.4 0h8.8c.9.1 1.5.7 1.5 1.5zm-17.5 0c0 .8-.7 1.5-1.5 1.5h-8.8c-.8 0-1.5-.7-1.5-1.5S49.1 0 49.9 0h8.8c.8.1 1.5.7 1.5 1.5zm-17.6 0c0 .8-.7 1.5-1.5 1.5h-8.8c-.8 0-1.5-.7-1.5-1.5S31.5 0 32.3 0h8.8c.9.1 1.5.7 1.5 1.5zm-17.5 0c0 .8-.7 1.5-1.5 1.5h-8.8c-.8 0-1.5-.7-1.5-1.5S14 0 14.8 0h8.8c.8.1 1.5.7 1.5 1.5z"/></g></g></svg>