<svg xmlns="http://www.w3.org/2000/svg" xmlns:xlink="http://www.w3.org/1999/xlink" viewBox="0 0 352 303"><defs><style>.cls-1{fill:none;}.cls-2{fill:#eaeaee;}.cls-3{fill:#f9f9fa;}.cls-4{fill:url(#New_Gradient_Swatch_1);}.cls-5{fill:#fff;}.cls-6{fill:#ccedf0;}.cls-7{fill:#fafafa;}.cls-8{fill:url(#New_Gradient_Swatch_1-2);}.cls-9{fill:url(#New_Gradient_Swatch_1-3);}.cls-10{fill:url(#New_Gradient_Swatch_1-4);}.cls-11{fill:url(#New_Gradient_Swatch_1-5);}.cls-12{fill:url(#New_Gradient_Swatch_1-6);}.cls-13{fill:url(#New_Gradient_Swatch_1-7);}.cls-14{fill:url(#New_Gradient_Swatch_1-8);}.cls-15{fill:url(#New_Gradient_Swatch_1-9);}.cls-16{fill:url(#New_Gradient_Swatch_1-10);}.cls-17{fill:url(#New_Gradient_Swatch_1-11);}.cls-18{fill:url(#New_Gradient_Swatch_1-12);}.cls-19{fill:url(#New_Gradient_Swatch_1-13);}.cls-20{fill:url(#New_Gradient_Swatch_1-14);}.cls-21{fill:url(#New_Gradient_Swatch_1-15);}.cls-22{fill:url(#New_Gradient_Swatch_1-16);}.cls-23{fill:url(#New_Gradient_Swatch_1-17);}.cls-24{fill:url(#New_Gradient_Swatch_1-18);}.cls-25{fill:url(#New_Gradient_Swatch_1-19);}.cls-26{fill:url(#New_Gradient_Swatch_1-20);}.cls-27{fill:url(#New_Gradient_Swatch_1-21);}.cls-28{fill:url(#New_Gradient_Swatch_1-22);}.cls-29{fill:url(#New_Gradient_Swatch_1-23);}.cls-30{fill:url(#New_Gradient_Swatch_1-24);}.cls-31{fill:url(#New_Gradient_Swatch_1-25);}.cls-32{fill:url(#New_Gradient_Swatch_1-26);}.cls-33{fill:url(#New_Gradient_Swatch_1-27);}.cls-34{fill:url(#New_Gradient_Swatch_1-28);}.cls-35{fill:url(#New_Gradient_Swatch_1-29);}.cls-36{fill:url(#New_Gradient_Swatch_1-30);}.cls-37{fill:url(#New_Gradient_Swatch_1-31);}.cls-38{fill:url(#New_Gradient_Swatch_1-32);}.cls-39{fill:url(#New_Gradient_Swatch_1-33);}.cls-40{fill:url(#New_Gradient_Swatch_1-34);}.cls-41{fill:url(#New_Gradient_Swatch_1-35);}.cls-42{fill:url(#New_Gradient_Swatch_1-36);}.cls-43{fill:url(#New_Gradient_Swatch_1-37);}.cls-44{fill:url(#New_Gradient_Swatch_1-38);}.cls-45{fill:url(#New_Gradient_Swatch_1-39);}.cls-46{fill:url(#New_Gradient_Swatch_1-40);}.cls-47{fill:url(#New_Gradient_Swatch_1-41);}</style><linearGradient id="New_Gradient_Swatch_1" x1="-.25" y1="-152" x2="422.65" y2="270.9" gradientUnits="userSpaceOnUse"><stop offset="0" stop-color="#00c8d7"/><stop offset="1" stop-color="#0a84ff"/></linearGradient><linearGradient id="New_Gradient_Swatch_1-2" x1="-36.12" y1="-116.13" x2="386.78" y2="306.77" xlink:href="#New_Gradient_Swatch_1"/><linearGradient id="New_Gradient_Swatch_1-3" x1="-14.66" y1="-137.59" x2="408.24" y2="285.31" xlink:href="#New_Gradient_Swatch_1"/><linearGradient id="New_Gradient_Swatch_1-4" x1="-6.81" y1="-145.44" x2="416.09" y2="277.46" xlink:href="#New_Gradient_Swatch_1"/><linearGradient id="New_Gradient_Swatch_1-5" x1="-32.26" y1="-119.99" x2="390.64" y2="302.91" xlink:href="#New_Gradient_Swatch_1"/><linearGradient id="New_Gradient_Swatch_1-6" x1="-25.1" y1="-127.15" x2="397.8" y2="295.75" xlink:href="#New_Gradient_Swatch_1"/><linearGradient id="New_Gradient_Swatch_1-7" x1="-28.57" y1="-123.68" x2="394.33" y2="299.22" xlink:href="#New_Gradient_Swatch_1"/><linearGradient id="New_Gradient_Swatch_1-8" x1="-66.38" y1="-85.87" x2="356.52" y2="337.03" xlink:href="#New_Gradient_Swatch_1"/><linearGradient id="New_Gradient_Swatch_1-9" x1="-38.09" y1="-114.17" x2="384.82" y2="308.73" xlink:href="#New_Gradient_Swatch_1"/><linearGradient id="New_Gradient_Swatch_1-10" x1="-92.67" y1="-59.58" x2="330.23" y2="363.32" xlink:href="#New_Gradient_Swatch_1"/><linearGradient id="New_Gradient_Swatch_1-11" x1="-119.12" y1="-33.14" x2="303.79" y2="389.76" xlink:href="#New_Gradient_Swatch_1"/><linearGradient id="New_Gradient_Swatch_1-12" x1="-20.49" y1="-131.77" x2="402.42" y2="291.14" xlink:href="#New_Gradient_Swatch_1"/><linearGradient id="New_Gradient_Swatch_1-13" x1="-110.52" y1="-41.73" x2="312.38" y2="381.17" xlink:href="#New_Gradient_Swatch_1"/><linearGradient id="New_Gradient_Swatch_1-14" x1="-98.7" y1="-53.55" x2="324.2" y2="369.35" xlink:href="#New_Gradient_Swatch_1"/><linearGradient id="New_Gradient_Swatch_1-15" x1="-2.23" y1="-150.02" x2="420.67" y2="272.88" xlink:href="#New_Gradient_Swatch_1"/><linearGradient id="New_Gradient_Swatch_1-16" x1="-85.23" y1="-67.02" x2="337.67" y2="355.88" xlink:href="#New_Gradient_Swatch_1"/><linearGradient id="New_Gradient_Swatch_1-17" x1="20.36" y1="-172.61" x2="443.26" y2="250.29" xlink:href="#New_Gradient_Swatch_1"/><linearGradient id="New_Gradient_Swatch_1-18" x1="-84.34" y1="-67.91" x2="338.56" y2="354.99" xlink:href="#New_Gradient_Swatch_1"/><linearGradient id="New_Gradient_Swatch_1-19" x1="-103.75" y1="-48.51" x2="319.16" y2="374.4" xlink:href="#New_Gradient_Swatch_1"/><linearGradient id="New_Gradient_Swatch_1-20" x1="-45.31" y1="-106.95" x2="377.6" y2="315.95" xlink:href="#New_Gradient_Swatch_1"/><linearGradient id="New_Gradient_Swatch_1-21" x1="-42.27" y1="-109.99" x2="380.64" y2="312.91" xlink:href="#New_Gradient_Swatch_1"/><linearGradient id="New_Gradient_Swatch_1-22" x1="-108.84" y1="-43.41" x2="314.06" y2="379.49" xlink:href="#New_Gradient_Swatch_1"/><linearGradient id="New_Gradient_Swatch_1-23" x1="38.18" y1="-190.43" x2="461.08" y2="232.47" xlink:href="#New_Gradient_Swatch_1"/><linearGradient id="New_Gradient_Swatch_1-24" x1="37.69" y1="-189.94" x2="460.59" y2="232.96" xlink:href="#New_Gradient_Swatch_1"/><linearGradient id="New_Gradient_Swatch_1-25" x1="24.38" y1="-176.63" x2="447.28" y2="246.27" xlink:href="#New_Gradient_Swatch_1"/><linearGradient id="New_Gradient_Swatch_1-26" x1="30.1" y1="-182.35" x2="453" y2="240.55" xlink:href="#New_Gradient_Swatch_1"/><linearGradient id="New_Gradient_Swatch_1-27" x1="30" y1="-182.26" x2="452.91" y2="240.64" xlink:href="#New_Gradient_Swatch_1"/><linearGradient id="New_Gradient_Swatch_1-28" x1="24.91" y1="-177.17" x2="447.82" y2="245.74" xlink:href="#New_Gradient_Swatch_1"/><linearGradient id="New_Gradient_Swatch_1-29" x1="37.77" y1="-190.02" x2="460.67" y2="232.88" xlink:href="#New_Gradient_Swatch_1"/><linearGradient id="New_Gradient_Swatch_1-30" x1=".38" y1="-152.64" x2="423.29" y2="270.27" xlink:href="#New_Gradient_Swatch_1"/><linearGradient id="New_Gradient_Swatch_1-31" x1="27.25" y1="-179.51" x2="450.16" y2="243.4" xlink:href="#New_Gradient_Swatch_1"/><linearGradient id="New_Gradient_Swatch_1-32" x1="34.96" y1="-187.21" x2="457.86" y2="235.69" xlink:href="#New_Gradient_Swatch_1"/><linearGradient id="New_Gradient_Swatch_1-33" x1="-.52" y1="-151.73" x2="422.38" y2="271.17" xlink:href="#New_Gradient_Swatch_1"/><linearGradient id="New_Gradient_Swatch_1-34" x1="5.59" y1="-157.84" x2="428.49" y2="265.06" xlink:href="#New_Gradient_Swatch_1"/><linearGradient id="New_Gradient_Swatch_1-35" x1="-22.02" y1="-130.24" x2="400.89" y2="292.66" xlink:href="#New_Gradient_Swatch_1"/><linearGradient id="New_Gradient_Swatch_1-36" x1="-8.72" y1="-143.54" x2="414.19" y2="279.36" xlink:href="#New_Gradient_Swatch_1"/><linearGradient id="New_Gradient_Swatch_1-37" x1="-71.79" y1="-80.47" x2="351.11" y2="342.44" xlink:href="#New_Gradient_Swatch_1"/><linearGradient id="New_Gradient_Swatch_1-38" x1="-72.61" y1="-79.65" x2="350.29" y2="343.26" xlink:href="#New_Gradient_Swatch_1"/><linearGradient id="New_Gradient_Swatch_1-39" x1="-60.8" y1="-91.45" x2="362.1" y2="331.45" xlink:href="#New_Gradient_Swatch_1"/><linearGradient id="New_Gradient_Swatch_1-40" x1="-80.66" y1="-71.6" x2="342.25" y2="351.3" xlink:href="#New_Gradient_Swatch_1"/><linearGradient id="New_Gradient_Swatch_1-41" x1="28.46" y1="-180.71" x2="451.36" y2="242.19" xlink:href="#New_Gradient_Swatch_1"/></defs><title>add-ons</title><path class="cls-1" d="M0 0h352v303H0z" id="Layer_1" data-name="Layer 1"/><g id="Layer_2" data-name="Layer 2"><g id="OCTO"><path class="cls-2" d="M290.75 47.92a24.51 24.51 0 0 1-13.4-3.61 23.93 23.93 0 0 0-24.21 0 26.64 26.64 0 0 1-26.8 0 23.93 23.93 0 0 0-24.21 0 24.51 24.51 0 0 1-13.4 3.61 1.36 1.36 0 1 1 0-2.72 21.94 21.94 0 0 0 12.1-3.29 26.64 26.64 0 0 1 26.8 0 23.94 23.94 0 0 0 24.21 0 26.64 26.64 0 0 1 26.8 0 23.93 23.93 0 0 0 24.21 0 24.51 24.51 0 0 1 13.4-3.61 1.36 1.36 0 1 1 0 2.72 21.94 21.94 0 0 0-12.1 3.29 24.52 24.52 0 0 1-13.4 3.61z"/><path class="cls-2" d="M239.37 37.81a.68.68 0 0 1 0-1.36 26.34 26.34 0 0 0 4-.33.68.68 0 1 1 .22 1.34 27.71 27.71 0 0 1-4.17.35zm9.26-1.9a.68.68 0 0 1-.28-1.3c.41-.18.81-.38 1.2-.57a.68.68 0 1 1 .61 1.22c-.41.2-.82.4-1.26.6a.69.69 0 0 1-.27.04zm-19.84-.19a.67.67 0 0 1-.29-.06c-.93-.43-1.79-.9-2.65-1.37a22.5 22.5 0 0 0-12.43-3.37.68.68 0 0 1 0-1.36 23.94 23.94 0 0 1 13.08 3.53c.84.46 1.68.91 2.58 1.33a.68.68 0 0 1-.29 1.3zm32.45-4.64a.68.68 0 0 1-.07-1.36 30.67 30.67 0 0 1 3.26-.16.68.68 0 0 1 0 1.36 29.31 29.31 0 0 0-3.11.16zM291 57.11a.68.68 0 0 1 0-1.36 26.34 26.34 0 0 0 4-.33.68.68 0 1 1 .22 1.34 27.71 27.71 0 0 1-4.17.35zm9.26-1.9a.68.68 0 0 1-.28-1.3c.41-.18.81-.38 1.2-.57a.68.68 0 1 1 .61 1.22c-.41.21-.83.41-1.26.6a.69.69 0 0 1-.28.05zM280.4 55a.67.67 0 0 1-.29-.06c-.93-.43-1.79-.9-2.65-1.37A22.51 22.51 0 0 0 265 50.21a.68.68 0 0 1 0-1.36 23.93 23.93 0 0 1 13.07 3.53c.84.46 1.68.91 2.59 1.33a.68.68 0 0 1-.29 1.3zm32.45-4.64a.68.68 0 0 1-.07-1.36 30.43 30.43 0 0 1 3.23-.16.68.68 0 1 1 0 1.36 26.26 26.26 0 0 0-3.1.16z"/><path class="cls-3" d="M7.53 191.87A6 6 0 0 1 1.36 186V41.39a6.55 6.55 0 0 1 6.54-6.54h155.24a6.55 6.55 0 0 1 6.54 6.54V186a6 6 0 0 1-6.16 5.86z"/><path class="cls-2" d="M163.14 36.21a5.18 5.18 0 0 1 5.18 5.18V186a4.66 4.66 0 0 1-4.8 4.5H7.53a4.66 4.66 0 0 1-4.8-4.5V41.39a5.18 5.18 0 0 1 5.17-5.18h155.24m0-2.72H7.9a7.91 7.91 0 0 0-7.9 7.9V186a7.39 7.39 0 0 0 7.53 7.22h156A7.39 7.39 0 0 0 171 186V41.39a7.91 7.91 0 0 0-7.9-7.9z"/><path class="cls-2" d="M161.72 62v119.85c0 1.21-.15 1.44-.17 1.48s-.27.18-1.47.18H11c-1.2 0-1.44-.15-1.47-.17s-.18-.27-.18-1.48V62h152.4m1.36-1.36H8v121.21c0 2.49.52 3 3 3h149.1c2.48 0 3-.53 3-3V60.61z" id="Layer_8" data-name="Layer 8"/><circle class="cls-2" cx="16.28" cy="48.34" r="3.5" id="Layer_3" data-name="Layer 3"/><circle class="cls-2" cx="27.56" cy="48.34" r="3.5" id="Layer_5" data-name="Layer 5"/><path class="cls-2" d="M124.53 52.3h-78a3.79 3.79 0 0 1-3.79-3.79v-.34a3.79 3.79 0 0 1 3.79-3.79h78a3.79 3.79 0 0 1 3.79 3.79v.34a3.79 3.79 0 0 1-3.79 3.79z" id="Layer_6" data-name="Layer 6"/><circle class="cls-2" cx="143.49" cy="48.34" r="3.5" id="Layer_3-2" data-name="Layer 3"/><circle class="cls-2" cx="154.77" cy="48.34" r="3.5" id="Layer_5-2" data-name="Layer 5"/><ellipse class="cls-2" cx="216.91" cy="262.12" rx="95.64" ry="9.06"/><path class="cls-2" d="M294.63 230.16a24.5 24.5 0 0 1-13.4-3.61 23.93 23.93 0 0 0-24.21 0 26.64 26.64 0 0 1-26.8 0 23.93 23.93 0 0 0-24.21 0 26.64 26.64 0 0 1-26.8 0 23.93 23.93 0 0 0-24.21 0 26.64 26.64 0 0 1-26.8 0 21.93 21.93 0 0 0-12.1-3.29 1.36 1.36 0 1 1 0-2.72 24.51 24.51 0 0 1 13.4 3.61 23.93 23.93 0 0 0 24.2 0 26.64 26.64 0 0 1 26.8 0 23.93 23.93 0 0 0 24.21 0 26.64 26.64 0 0 1 26.8 0 23.93 23.93 0 0 0 24.21 0 26.64 26.64 0 0 1 26.8 0 21.92 21.92 0 0 0 12.1 3.29 1.36 1.36 0 1 1 0 2.72zM244.58 219c-1 0-1.89 0-2.77-.12a.68.68 0 1 1 .12-1.36c.84.08 1.73.11 2.65.11h1.32a.68.68 0 1 1 .1 1.37zm-50.53 0a.68.68 0 0 1 0-1.36 26.34 26.34 0 0 0 4-.33.68.68 0 1 1 .22 1.34 27.71 27.71 0 0 1-4.17.35zm57.28-.82a.68.68 0 0 1-.18-1.34q.65-.18 1.25-.39a.68.68 0 0 1 .45 1.28c-.43.15-.88.29-1.34.42zm-48-1.08a.68.68 0 0 1-.28-1.3c.41-.18.81-.38 1.2-.57a.68.68 0 1 1 .61 1.22c-.41.21-.83.41-1.26.6a.69.69 0 0 1-.28.07zm-19.85-.19a.67.67 0 0 1-.29-.06c-.93-.43-1.79-.9-2.65-1.37a22.51 22.51 0 0 0-12.43-3.37.68.68 0 1 1 0-1.36 23.93 23.93 0 0 1 13.07 3.53c.84.46 1.68.91 2.59 1.33a.68.68 0 0 1-.29 1.3zm48.18-1.46a.69.69 0 0 1-.32-.08 22.28 22.28 0 0 0-12.22-3.26 29.23 29.23 0 0 0-3.1.16.68.68 0 0 1-.15-1.35 30.57 30.57 0 0 1 3.25-.16 23.73 23.73 0 0 1 12.88 3.43.68.68 0 0 1-.32 1.28zm32.15-2.62a.68.68 0 0 1-.17-1.34 26.08 26.08 0 0 1 6.48-.74.68.68 0 0 1 0 1.36 24.77 24.77 0 0 0-6.15.69z"/><g id="_Group_" data-name="&lt;Group&gt;"><path class="cls-2" d="M93.71 152.16a11 11 0 0 1-4.34-.84 5.2 5.2 0 0 1-3.27-5c0-1.93 1.12-3.12 2.21-4.26s2.3-2.43 2.3-4.66c0-1.86-2.51-4.54-7.06-4.54s-6.77 2.71-6.77 4.54c0 2.23 1.15 3.41 2.37 4.66s2.28 2.33 2.28 4.27c0 4.32-3.93 5.86-7.61 5.86H58.15a5.33 5.33 0 0 1-5.3-5.35v-14.3c0-.1-.24-3.66 1.79-5.84a5.3 5.3 0 0 1 4.06-1.63c2 0 3 1.21 4.1 2.38s2.17 2.42 4.38 2.42c2 0 4-2.27 4-6.61s-2-6.37-4-6.37c-2.2 0-3.26 1.18-4.37 2.42s-2.13 2.38-4.1 2.38a5.24 5.24 0 0 1-4-1.62c-2.09-2.24-1.85-6-1.84-6.15v-9.07a5.36 5.36 0 0 1 1-3.11 5.29 5.29 0 0 1 4.29-2.24h11.3s3.35-.64 3.35-2.86c0-.88-.49-1.42-1.35-2.29a7.62 7.62 0 0 1-2.67-6c0-2.81 1.3-7.52 10-7.52 9.33 0 10.34 5.26 10.34 7.52a7.4 7.4 0 0 1-2.92 6.06c-.94.87-1.47 1.41-1.47 2.27 0 2.24 3.43 2.86 3.46 2.87h12.11a5.33 5.33 0 0 1 5.3 5.35v6.8s.44 3.71 2.62 3.71c.84 0 1.29-.48 2.06-1.4a6.71 6.71 0 0 1 5.78-2.87c2.94 0 7.88 1.28 7.88 9.85 0 9.48-6 10.21-7.88 10.21a6.63 6.63 0 0 1-5.79-3c-.77-1-1.21-1.48-2-1.48-2.19 0-2.62 3.63-2.63 3.67v16.5a5.33 5.33 0 0 1-5.3 5.35h-6.64z"/><path class="cls-3" d="M78.73 81.48c8.18 0 9.66 4.19 9.66 6.84 0 5.3-4.4 5.48-4.4 8.33s4 3.54 4 3.54h12.22a4.64 4.64 0 0 1 4.62 4.67v6.8s.46 4.39 3.3 4.39 2.54-4.27 7.84-4.27c2.64 0 7.2 1 7.2 9.17s-4.56 9.53-7.2 9.53c-5.3 0-5-4.52-7.84-4.52s-3.3 4.27-3.3 4.27v16.57a4.64 4.64 0 0 1-4.62 4.67h-6.5c-1.58 0-6.93-.36-6.93-5.18 0-3.57 4.5-4.23 4.5-8.93 0-2.34-2.88-5.22-7.74-5.22s-7.44 2.86-7.44 5.23c0 4.7 4.65 5.36 4.65 8.93 0 4.82-5.34 5.18-6.93 5.18H58.15a4.64 4.64 0 0 1-4.61-4.67v-14.27s-.5-6.79 5.17-6.79c3.57 0 3.78 4.8 8.47 4.8 2.34 0 4.72-2.44 4.72-7.29s-2.38-7.05-4.71-7.05c-4.69 0-4.91 4.81-8.47 4.81-5.66 0-5.17-7-5.17-7v-9.12a4.68 4.68 0 0 1 .88-2.72 4.58 4.58 0 0 1 3.74-2h11.3s4-.7 4-3.54-4-3-4-8.33c0-2.64 1.11-6.84 9.29-6.84m0-1.36c-9.27 0-10.65 5.14-10.65 8.2A8.3 8.3 0 0 0 71 94.83c.84.85 1.16 1.22 1.16 1.81 0 1.46-2.3 2.06-2.8 2.18H58.15a6 6 0 0 0-6 6v9.08c0 .52-.15 4.28 2 6.61a5.89 5.89 0 0 0 4.5 1.83c2.27 0 3.57-1.45 4.61-2.61s2-2.2 3.87-2.2a2.73 2.73 0 0 1 2.15 1.17 7.25 7.25 0 0 1 1.2 4.52 7.74 7.74 0 0 1-1.22 4.66 2.71 2.71 0 0 1-2.13 1.27c-1.9 0-2.77-1-3.87-2.19s-2.34-2.6-4.61-2.6a6 6 0 0 0-4.56 1.85c-2.11 2.27-2 5.83-2 6.35v14.24a6 6 0 0 0 6 6h15.73a11.69 11.69 0 0 0 4.62-.9 5.84 5.84 0 0 0 3.67-5.64c0-2.22-1.31-3.56-2.47-4.75s-2.17-2.23-2.17-4.18c0-1.62 2.12-3.86 6.09-3.86s6.38 2.25 6.38 3.86c0 2-1 3-2.11 4.2s-2.39 2.53-2.39 4.73c0 4.82 4.28 6.54 8.29 6.54h6.53a6 6 0 0 0 6-6v-16.48c.06-.41.53-3 1.94-3 .48 0 .75.26 1.51 1.22a7.3 7.3 0 0 0 6.33 3.3c2 0 8.56-.79 8.56-10.89 0-9.16-5.37-10.53-8.56-10.53a7.39 7.39 0 0 0-6.3 3.11c-.73.87-1 1.16-1.53 1.16-1.41 0-1.88-2.71-1.94-3.12v-6.71a6 6 0 0 0-6-6H88.16c-.5-.11-2.81-.72-2.81-2.18 0-.55.34-.92 1.26-1.77a8.08 8.08 0 0 0 3.14-6.56c0-1.92-.79-8.2-11-8.2z"/></g></g><path class="cls-4" d="M336 181.88a2.6 2.6 0 1 1-2.34 2.84 2.6 2.6 0 0 1 2.34-2.84z" id="Layer_6-2" data-name="Layer 6"/><path class="cls-1" d="M315.89 204a4.34 4.34 0 0 1-1.44 1.87 9.36 9.36 0 0 1-.71 3.43 7.61 7.61 0 0 0 3.17-1.9v-.05a13.2 13.2 0 0 0 1.79-2.76 5.82 5.82 0 0 0-1.36-6.65 4.82 4.82 0 0 0-1.86-.95 5.79 5.79 0 0 0-2.76 0c2.65 1.41 4.35 3.84 3.17 7.01zM158.17 138.47l-.23-.1a4.82 4.82 0 0 1-.62-.15H156.64a1.48 1.48 0 0 0-.41 0 .42.42 0 0 0-.15.07l-.2.12a3.86 3.86 0 0 0-.42.3 15.17 15.17 0 0 0-1.37 1.31l-.85.91a.67.67 0 0 1 .17.56 11.76 11.76 0 0 1-1 3.28 15.78 15.78 0 0 0 .78 2 16.84 16.84 0 0 0 1.81 2.73 16.18 16.18 0 0 0 2.67 2.73 14.68 14.68 0 0 0 1.62 1.13l.1.06a13.59 13.59 0 0 0 1.8.91 13.9 13.9 0 0 0 3.93 1 11.55 11.55 0 0 0 1.33.07h1.71l.46-.05h.24a14.57 14.57 0 0 0 1.81-.49 12.19 12.19 0 0 0 1.61-.72 10.77 10.77 0 0 0 1-.6 122 122 0 0 0 1.39-13.65 25 25 0 0 1-4.51-2.61 5.27 5.27 0 0 1-3.52 1.92 2.46 2.46 0 0 1-.93-.18l-3.71-1.64c-1.36 1.1-2.72 1.54-3.83 1.09z"/><path class="cls-5" d="M172.08 99c0 .85 0 1.68.08 2.52q-.62.51-1.2 1.06.58-.56 1.2-1.06c-.05-.85-.08-1.68-.08-2.52zM294.82 128.42zM220 59.18a40.51 40.51 0 0 0-7.38-.68q-1.31 0-2.6.08 1.29-.08 2.6-.08a40.51 40.51 0 0 1 7.38.68zM149.93 195.33c.75-.79 1.5-1.6 2.25-2.44q-1.12 1.25-2.25 2.44c-1.21 1.28-2.44 2.45-3.66 3.53 1.23-1.08 2.45-2.26 3.66-3.53zM163.66 179.79c.42-.44.86-.86 1.29-1.29-.43.43-.87.85-1.29 1.29-1.63 1.7-3.19 3.47-4.72 5.24l-2.28 2.66 2.28-2.66c1.53-1.78 3.06-3.54 4.72-5.24zM157.48 174.22q1.1.56 2.25 1c.77.33 1.56.62 2.36.88-.8-.27-1.59-.56-2.36-.88s-1.52-.63-2.25-1zM294.9 129.89v-.06l-.03-.36.03.36v.06zM298.53 202.57h-.46.46zM177.94 78q1-1.67 2.18-3.23-1.12 1.55-2.18 3.23zM257.49 256.67zM220 215.55zM167.57 256.67zM216.32 203c-.39-1-.77-1.84-1.14-2.65.37.84.75 1.72 1.14 2.65zM133.42 216.71a26.36 26.36 0 0 0 3.87.42h1.72-1.72a26.37 26.37 0 0 1-3.87-.42zM176.07 81.44q.85-1.77 1.87-3.44-1.01 1.66-1.87 3.44zM173.24 153.38a10.77 10.77 0 0 1-1 .6 12.19 12.19 0 0 1-1.61.72 14.57 14.57 0 0 1-1.81.49h-.24l-.46.05H166.38a11.55 11.55 0 0 1-1.33-.07 13.9 13.9 0 0 1-3.93-1 13.59 13.59 0 0 1-1.8-.91l-.1-.06a14.68 14.68 0 0 1-1.62-1.13 16.18 16.18 0 0 1-2.6-2.57 16.84 16.84 0 0 1-1.79-2.93 15.78 15.78 0 0 1-.78-2 6 6 0 0 1-2.2 2.52h-.07c.09.2.16.4.26.6a19.54 19.54 0 0 0 2.08 3.4 18.89 18.89 0 0 0 3.13 3.2 17.65 17.65 0 0 0 2 1.39 16.9 16.9 0 0 0 6.84 2.32 14.21 14.21 0 0 0 1.64.08h1.35l.32-.05h.36l.45-.05h.49a16.9 16.9 0 0 0 2.19-.6 14.72 14.72 0 0 0 2-.9 13.52 13.52 0 0 0 2.16-1.48 126.33 126.33 0 0 0 1.7-17 22.31 22.31 0 0 1-5.42-2.8 13.56 13.56 0 0 1-1.56 2 25 25 0 0 0 4.51 2.61 122 122 0 0 1-1.42 13.57zM171.82 242.33c.59-.56 1.17-1.19 1.74-1.84-.56.66-1.15 1.28-1.74 1.84zM242.44 252.65a32.17 32.17 0 0 0 3.8 1.8q.92.37 1.82.67-.89-.29-1.82-.67a32.17 32.17 0 0 1-3.8-1.8zM248.61 195c.75.12 1.52.26 2.33.47l1.09.3-1.09-.3c-.81-.18-1.58-.33-2.33-.47zM222.58 226.33q.42 1.3.9 2.58a54.31 54.31 0 0 0 2.14 5 54.33 54.33 0 0 1-2.14-5q-.48-1.28-.9-2.58zM220 215.59zM311.19 207.32a6.6 6.6 0 0 1-.86 2l.23.09a5.91 5.91 0 0 0 3.18-.11 9.36 9.36 0 0 0 .71-3.43 8.47 8.47 0 0 1-3.26 1.45z"/><path class="cls-5" d="M305 111c-.71.8-1.33 1.56-1.9 2.31s-1.32 1.74-1.89 2.65a25.23 25.23 0 0 0-1.56 2.81 23.33 23.33 0 0 0-1.19 3 20.78 20.78 0 0 0-.87 6.56v1.26l.06.73.11 1.44v.52c0 .43.07.86.08 1.23a65.53 65.53 0 0 1 0 7.45 51.93 51.93 0 0 1-3.54 16 41.2 41.2 0 0 1-4.32 8 35.47 35.47 0 0 1-5.35 6 8.44 8.44 0 0 1-1.52 1.44 8.82 8.82 0 0 1-1 .63 34.45 34.45 0 0 1-7.13 4.1 33.63 33.63 0 0 1-3.38 1.2 44.77 44.77 0 0 1 9.53 10.67c5.88 8.65 12.73 10.59 18 10.94a12.59 12.59 0 0 1 1.49-2.67c-5-.15-11.31-1.62-16.87-9.8a56.74 56.74 0 0 0-6.54-8.08 36.52 36.52 0 0 0 8.38-5.2 38.52 38.52 0 0 0 7-7.6 43.93 43.93 0 0 0 4.61-8.59 54.65 54.65 0 0 0 3.73-16.82 68.35 68.35 0 0 0 0-7.72c0-.46 0-.91-.08-1.36v-.49l-.11-1.4v-.08l-.06-.73v-.3-.55-.21a18.1 18.1 0 0 1 .74-5.71 20.13 20.13 0 0 1 1.06-2.65 22.51 22.51 0 0 1 1.39-2.5c.52-.83 1.12-1.62 1.76-2.47.47-.63 1-1.26 1.58-1.92A4.79 4.79 0 0 1 305 111zM169.38 100.32v-1.33a43.22 43.22 0 1 1 86.43 0v1.33a22.41 22.41 0 0 1-7.67 37.58c.05.94.11 1.87.18 2.76l.1.19c.19.33.38.7.57 1.08s.25.49.39.75l.05.11c.15.31.31.63.48 1v.07c.1.19.19.38.28.58l.1.19.13.25v.07l.14.29.1.2c.12.22.24.45.36.71s.15.3.23.45l.27.51a15.74 15.74 0 0 0 1.24 1.85 12.61 12.61 0 0 0 1.61 1.68 9.78 9.78 0 0 0 3.89 2.06h.08a10.22 10.22 0 0 0 2.18.29h.26a11.09 11.09 0 0 0 1.61-.18h.11a9.61 9.61 0 0 0 3.8-1.64 12.11 12.11 0 0 0 2-1.79 13.61 13.61 0 0 0 1.76-2.61 26.15 26.15 0 0 0 2.49-7.82 44.51 44.51 0 0 0 .54-4.68v-.11-.65V132.21a3.55 3.55 0 0 1 0-.36v-1.13l.06-.85v-.45c0-.54.08-1.08.14-1.55a39.48 39.48 0 0 1 4.26-14 40.1 40.1 0 0 1 7.49-10 47.25 47.25 0 0 1 7.65-6 56.33 56.33 0 0 1 6.27-3.51l.18-.09-.23-1.27-3.91 1.24a4.15 4.15 0 0 1-1.3.21h-.18c-.58.35-1.18.72-1.79 1.12a49.8 49.8 0 0 0-8.05 6.34 42.82 42.82 0 0 0-8 10.65 42.23 42.23 0 0 0-4.55 15c-.06.48-.1 1.07-.15 1.65v.44l-.06.87v3.58a41.89 41.89 0 0 1-.51 4.39 23.42 23.42 0 0 1-2.22 7 10.84 10.84 0 0 1-1.39 2.07 9.26 9.26 0 0 1-1.49 1.36 6.92 6.92 0 0 1-2.7 1.17 9.91 9.91 0 0 1-1.19.14H261a8.6 8.6 0 0 1-1.52-.18h-.16a7.14 7.14 0 0 1-2.8-1.48 9.91 9.91 0 0 1-1.27-1.32 12.88 12.88 0 0 1-1-1.46l-.27-.51-.14-.26c-.14-.3-.28-.57-.42-.83l-.07-.15-.13-.28-.07-.14-.15-.29-.05-.1c-.1-.21-.2-.42-.31-.63v-.08c-.16-.3-.31-.6-.45-.88l-.11-.21c-.12-.23-.24-.45-.35-.67s-.27-.54-.43-.84v-.16a25.14 25.14 0 0 0 7.57-40.5v-.19A45.94 45.94 0 1 0 167 99v.19a25 25 0 0 0-7 14.41l2.27.92a22.3 22.3 0 0 1 7.11-14.2zM291.32 216.79a17.12 17.12 0 0 1-2 0h.51c.53.06 1.02.04 1.49 0zM273.08 209.74l-1.56-1.24c-.83-.67-1.61-1.32-2.4-2 .78.65 1.57 1.3 2.4 2z"/><path class="cls-5" d="M306.71 212.77l-.46.37a39.65 39.65 0 0 1-3.91 2.71 26.76 26.76 0 0 1-6.32 2.81 22.34 22.34 0 0 1-4.46.83c-.54 0-1.11.07-1.68.07a22.32 22.32 0 0 1-3.45-.28 27.19 27.19 0 0 1-9.54-3.62 61 61 0 0 1-7.07-5.06c-1-.78-1.89-1.54-2.79-2.29l-2.5-2a9 9 0 0 1-.86-.55 8.64 8.64 0 0 1-1.21-1.08c-1.26-1-2.42-1.8-3.49-2.51-.69-.45-1.42-.9-2.33-1.42s-1.57-.84-2.28-1.15a23.66 23.66 0 0 0-4.07-1.43 22.69 22.69 0 0 0-3.44-.59v8.52c.09 1.67.13 3.39.11 5.11V213c.45 20.37 5.31 23.63 12 28.15 7.66 5.16 10.06 6.77 9.44 11a7.21 7.21 0 0 1-7.09 7h-.15a26.69 26.69 0 0 1-3.66.24c-.63 0-1.28 0-1.95-.06a33 33 0 0 1-6.44-1.07 32.39 32.39 0 0 1-3.88-1.29 34.7 34.7 0 0 1-4.11-2 39.25 39.25 0 0 1-4.18-2.69 41.65 41.65 0 0 1-7.73-7.53 44.92 44.92 0 0 1-3.27-4.65 56.56 56.56 0 0 1-5-10.28c-.65-1.74-1.25-3.56-1.75-5.37-.22-.75-.4-1.48-.58-2.19l-.15-.59-.12-.5c-.17-.72-.35-1.47-.5-2.29l-.48-2.47V216.17v-.33l-.12-.52-.24-1c-.31-1.27-.64-2.62-1-3.89a59 59 0 0 0-2.09-6.39c-.43-1-.78-1.86-1.08-2.52l-.19-.4-.18.37c-.32.7-.67 1.51-1.09 2.53a59 59 0 0 0-2.1 6.43c-.35 1.26-.68 2.61-1 3.86l-.24 1-.13.55V216.42l-.48 2.45c-.16.84-.33 1.59-.5 2.31l-.13.55-.14.56c-.18.7-.36 1.43-.57 2.13-.52 1.84-1.11 3.66-1.76 5.39a56.53 56.53 0 0 1-5 10.29 45 45 0 0 1-3.28 4.66 41.65 41.65 0 0 1-7.75 7.54A39.12 39.12 0 0 1 184 255a34.75 34.75 0 0 1-4.11 2 32.25 32.25 0 0 1-3.87 1.29 33 33 0 0 1-6.46 1.07c-.65 0-1.31.06-1.94.06a26.69 26.69 0 0 1-3.66-.24h-.15a7.2 7.2 0 0 1-.66-14.37l.28-.12c.47-.2 1.19-.53 2.06-1a22.62 22.62 0 0 0 2.9-1.91c.55-.43 1.08-.89 1.59-1.37a22.34 22.34 0 0 0 1.54-1.63 20.1 20.1 0 0 0 1.44-1.92 20.43 20.43 0 0 0 1.29-2.16 27.65 27.65 0 0 0 1.15-2.51c.34-.88.67-1.84 1-2.85s.51-1.91.75-3.12c.2-1 .38-2.07.55-3.33.13-1 .27-2.29.35-3.61 0-.5.06-1 .08-1.51v-.36-6.16c0-1.84 0-3.58.12-5.3s.22-3.2.42-4.77c-1.06.67-2.25 1.45-3.65 2.4l-2.95 2c-2.88 2-6.14 4.22-9.63 6.34a73.86 73.86 0 0 1-7.6 4.06 46.49 46.49 0 0 1-8.56 3 37 37 0 0 1-4.57.79c-1.21.12-2.32.17-3.39.17h-1.09a29.49 29.49 0 0 1-6.48-1 14.06 14.06 0 0 1 1.16 3 32 32 0 0 0 5.57.7h1.17c1.16 0 2.35-.06 3.65-.19h.1a39.5 39.5 0 0 0 4.86-.84 49.16 49.16 0 0 0 9-3.17 76.51 76.51 0 0 0 7.87-4.21c3.57-2.16 6.86-4.43 9.77-6.43l1.87-1.29c-.07 1.53-.1 3.08-.08 4.72v6.39c0 .48 0 1-.08 1.44v.08c-.07 1.2-.2 2.38-.33 3.39-.15 1.18-.32 2.2-.51 3.1-.23 1.15-.46 2.08-.7 2.9s-.58 1.82-.9 2.64-.72 1.64-1 2.26a20.15 20.15 0 0 1-2.37 3.55c-.53.61-1 1.07-1.34 1.43s-.92.83-1.4 1.21a19.67 19.67 0 0 1-2.53 1.66c-.75.41-1.35.69-1.8.88a9.93 9.93 0 0 0 1.2 19.73 29.27 29.27 0 0 0 4 .27c.69 0 1.39 0 2.1-.07a35.76 35.76 0 0 0 7-1.16 34.92 34.92 0 0 0 4.18-1.39 37.41 37.41 0 0 0 4.43-2.11 41.85 41.85 0 0 0 4.44-2.86 44.38 44.38 0 0 0 8.25-8 47.74 47.74 0 0 0 3.48-4.94 59.22 59.22 0 0 0 5.19-10.84c.66-1.77 1.28-3.65 1.81-5.56.23-.78.42-1.52.59-2.24l.14-.55v-.11l.11-.48c.18-.76.36-1.54.53-2.44l.47-2.43v-.45l.13-.57.24-1c.29-1.22.62-2.54 1-3.76q.36-1.34.74-2.55c.25.8.49 1.64.73 2.53.34 1.24.67 2.56 1 3.81l.24 1 .12.51V216.94l.48 2.48c.16.85.34 1.63.52 2.39l.11.49v.11l.13.53c.18.72.37 1.47.6 2.26.53 1.91 1.15 3.79 1.83 5.59a59.25 59.25 0 0 0 5.48 10.8 47.62 47.62 0 0 0 3.47 4.92 44.37 44.37 0 0 0 8.22 8 42 42 0 0 0 4.48 2.89 37.38 37.38 0 0 0 4.42 2.1 35.09 35.09 0 0 0 4.2 1.4 35.66 35.66 0 0 0 7 1.15q1.1.07 2.12.07a29.27 29.27 0 0 0 4-.27 9.94 9.94 0 0 0 9.6-9.44c.79-5.83-2.85-8.29-10.63-13.52-6.25-4.21-10.39-7-10.82-25.89v-1.8c0-1.76 0-3.51-.11-5.22s0-3.2 0-4.78v-.44a21 21 0 0 1 3.6 1.27h.08c.58.25 1.21.59 2 1s1.55.91 2.18 1.33c1.45 1 3.05 2.14 4.91 3.63 1 .77 1.93 1.57 2.92 2.39s1.85 1.53 2.82 2.31a63.44 63.44 0 0 0 7.39 5.28 29.91 29.91 0 0 0 10.52 4 25 25 0 0 0 3.87.31c.65 0 1.29 0 1.92-.08a25.11 25.11 0 0 0 5-.93 29.84 29.84 0 0 0 6.95-3.08 42.19 42.19 0 0 0 4.19-2.9l.08-.07c.57-.46 1.06-.86 1.49-1.23-.15 0-.31 0-.46-.08a9.52 9.52 0 0 1-2.7-1.14zM315.14 91.44a9.81 9.81 0 0 0-1-.85l.35 1.05zM122.31 196.87a.67.67 0 0 1 .24-.14.68.68 0 0 1 .86.43c.05.16.07.32.11.48.83.22 1.76.52 2.85.89 2.81.94 6.66 2.23 10.19 2.23a11.36 11.36 0 0 0 3.22-.43 27.61 27.61 0 0 0 3.86-2.78 53.1 53.1 0 0 0 4.3-4.1c2.17-2.28 4.29-4.77 6.54-7.42l2.38-2.78c1.57-1.83 2.87-3.28 4.11-4.6-.81-.27-1.58-.56-2.31-.88a36 36 0 0 1-8.91-5.35 34.22 34.22 0 0 1-3.54-3.31 34.73 34.73 0 0 1-6.88-10.83c-.32-.82-.61-1.65-.86-2.49a3.45 3.45 0 0 1-1.23-2.1l-.06-.35v-.35c0-.23 0-.55-.05-1s0-.89.05-1.46c0-.23.05-.48.09-.73a32.79 32.79 0 0 1-.23-3.32v-.92-.93-.22a7 7 0 0 1-1.91-4 8.57 8.57 0 0 0-.28 1.47l-.1 1c-.06.55-.09 1.13-.11 1.64V146.49a34.45 34.45 0 0 0 .53 5.66 36.53 36.53 0 0 0 2 7.08 37.94 37.94 0 0 0 11.22 15.25 38.52 38.52 0 0 0 8.3 5.18l-1.52 1.75-2.39 2.8c-2.22 2.61-4.32 5.08-6.44 7.3a50.45 50.45 0 0 1-4.08 3.89 25.64 25.64 0 0 1-3.19 2.33 9 9 0 0 1-2.15.24c-3.09 0-6.55-1.16-9.33-2.09a27.14 27.14 0 0 0-4.56-1.27 9.46 9.46 0 0 0-1.33-.1 8.85 8.85 0 0 0-1 .09l.07.72a5.38 5.38 0 0 1 1.54 1.55z"/><path class="cls-5" d="M178.35 231.81c-.15.43-.28.88-.44 1.29.16-.41.29-.86.44-1.29z"/><path class="cls-6" d="M144.06 159.58a1.48 1.48 0 0 1 .38-.08 37.91 37.91 0 0 1-2.11-3.35 3.48 3.48 0 0 1-.75.28c.1.28.19.55.3.83a30 30 0 0 0 1.4 3 1.65 1.65 0 0 1 .78-.68zM178.35 176.23a38.53 38.53 0 0 0 7.64-2.54l.28-.95a40.44 40.44 0 0 1-13.34 2h-1.29a33.41 33.41 0 0 1-22.79-10 5.06 5.06 0 0 1-.17 3 32 32 0 0 0 2.81 2.61 33.11 33.11 0 0 0 6 3.9q1.1.56 2.25 1c.77.33 1.56.62 2.36.88s1.62.5 2.45.72l1.25.29.41.09-.08.08a51.62 51.62 0 0 0 11.24.79 1.33 1.33 0 0 1-.11-.3 1.36 1.36 0 0 1 1.09-1.57zM146.28 198.86c3.58-2.95 7.46-7.44 12.2-12.93 1.94-2.25 4.13-4.78 6.49-7.43-.43.43-.87.85-1.29 1.29-1.63 1.7-3.19 3.47-4.72 5.24l-2.28 2.66-2.25 2.64c-.75.87-1.49 1.73-2.24 2.56s-1.49 1.65-2.25 2.44c-1.22 1.27-2.44 2.45-3.66 3.53zM178.35 231.81c-.15.43-.28.88-.44 1.29a29.86 29.86 0 0 1-1.27 2.77 23.1 23.1 0 0 1-1.46 2.46 22.55 22.55 0 0 1-1.62 2.16c-.57.66-1.14 1.29-1.74 1.84l-.21.18c3.14-2.17 5.39-5.69 6.74-10.7zM184.78 137.31h-.11c-.08 0-.9.09-2.05.09a21.31 21.31 0 0 1-2.78-.17 130.94 130.94 0 0 1-1.8 18.27 13.78 13.78 0 0 0 1.68-2.34c2.28-4.02 4.08-11.32 5.06-15.85zM308 207.74zM297.58 207.37c-8.67 3.65-17.34-.91-23.27-6.39s-20.08-21.9-20.08-21.9l11.41-.91a7.3 7.3 0 0 1 1.8.71c-.41-.34-.84-.66-1.26-1h-1.55a38 38 0 0 1-5.87-.46.68.68 0 0 1-.56-.79.67.67 0 0 1 .79-.56 35.5 35.5 0 0 0 9.43.19c.43-.09.86-.16 1.28-.27a27.74 27.74 0 0 0 4.28-1.41 32.7 32.7 0 0 0 3.48-1.75c-.51-1.23.53-3.25 2.53-4.73 1.81-1.34 3.81-1.79 4.94-1.23a32.07 32.07 0 0 0 2.85-3.51 37.8 37.8 0 0 0 3.2-5.57q.44-.95.83-1.91a44.66 44.66 0 0 0 1.73-5.21 1.62 1.62 0 0 1-.94.07c-1.42-.37-2-2.8-1.32-5.42s2.4-4.44 3.81-4.07v-.52a62.54 62.54 0 0 0 0-7.12c0-.58-.07-1.14-.11-1.71l-.11-1.41-.05-.67v-.41V129.17v-.82a24.82 24.82 0 0 1 .53-5.67q.19-.89.46-1.75a25.51 25.51 0 0 1 1.32-3.33 27.88 27.88 0 0 1 1.73-3.12c.56-.9 1.19-1.74 1.81-2.57a1.73 1.73 0 0 1-1.14-.49c-1-1.07-.22-3.44 1.75-5.29a8.55 8.55 0 0 1 1.58-1.18l-.7-2.12a18.09 18.09 0 0 0-5.83 5.82c-4.37 7.44-5.38 10.61-5.38 17v1.55c0 7.41.12 21.2-5.18 29.14-6.82 10.24-17.06 15.24-31.21 15.24h-1.78a32.8 32.8 0 0 0 11.44.25 1.36 1.36 0 0 1 .44 2.69 34.17 34.17 0 0 1-5.47.44 41 41 0 0 1-16.11-3.5 109.88 109.88 0 0 1 1.5 15.07.67.67 0 0 1 .59.61s.22 2.84.28 7.6c.46 0 .93 0 1.43.08s1.12.12 1.71.21c.75.12 1.52.26 2.33.47l1.09.3c.74.22 1.5.48 2.27.79q.58.23 1.18.51c.8.35 1.61.78 2.44 1.23s1.67 1 2.53 1.54c.32.21.65.46 1 .68 1-1 3.29-.62 5.37.9s3.26 3.85 2.4 5l-.06.06c.78.65 1.57 1.3 2.4 2l1.56 1.24q.8.62 1.64 1.23c.71.52 1.46 1 2.22 1.52a1.49 1.49 0 0 1 .04-.5c.55-1.36 3-1.64 5.54-.63s4.11 2.93 3.56 4.29a1.59 1.59 0 0 1-.53.65c.41.09.82.21 1.24.27a20 20 0 0 0 2 .2h.5a17.12 17.12 0 0 0 2 0 19.65 19.65 0 0 0 3.91-.73c.24-.07.45-.15.67-.23a1.49 1.49 0 0 1-.31-.35c-.74-1.26.55-3.4 2.89-4.77a7.71 7.71 0 0 1 5.19-1 9.66 9.66 0 0 1-.72-1.44 8.82 8.82 0 0 1-2.92-1.93c-.74.34-1.55.67-2.44 1.04z"/><path class="cls-6" d="M263.27 253.58c-4.45 0-13-2.81-18.93-5.91-9.41-5-16.35-20.63-18.1-32.86-2.11-14.76-6.17-27.36-9.87-30.66a9.47 9.47 0 0 0-4.3-2.32 13 13 0 0 0-7.43 6.25c-2.39 4.33-3.42 12.75-4.52 21.66-1.24 10.12-2.53 20.59-6 26.27-7 11.45-14.49 16.87-25.14 18.12a30.35 30.35 0 0 1-3.53.22c-3.37 0-5.08-.73-5.93-1.33a4.47 4.47 0 0 0 4.33 3.39h5.46a30.05 30.05 0 0 0 5.92-1q.85-.22 1.74-.52t1.82-.67c.62-.25 1.24-.52 1.88-.82s1.28-.63 1.92-1a36.33 36.33 0 0 0 3.88-2.5c.29-.22.57-.46.86-.69a1.46 1.46 0 0 1-.21-.14c-1-1-.35-3.43 1.56-5.36s4.29-2.66 5.33-1.63a1.47 1.47 0 0 1 .13.19 42.26 42.26 0 0 0 2.65-3.81q.71-1.15 1.37-2.34a54.22 54.22 0 0 0 2.39-4.92q.54-1.26 1-2.54c.5-1.34.94-2.7 1.35-4.06a1.58 1.58 0 0 1-.82 0c-1.38-.49-1.76-3-.84-5.51.85-2.36 2.5-3.94 3.84-3.77l.06-.26.12-.53.25-1c.33-1.38.66-2.7 1-4s.7-2.46 1.06-3.58.74-2.17 1.13-3.14.77-1.84 1.14-2.65l.56-1.14.54-1c.55-1 1.05-1.87 1.56-2.65.51.78 1 1.65 1.56 2.65l.53 1 .56 1.14c.37.81.75 1.69 1.14 2.65a61.58 61.58 0 0 1 2.2 6.72c.35 1.26.67 2.59 1 4l.25 1 .12.53.06.26v.38l.48 2.47c.18 1 .39 1.82.59 2.69s.43 1.75.69 2.62.51 1.74.79 2.61.58 1.73.9 2.58a54.33 54.33 0 0 0 2.14 5 53.37 53.37 0 0 0 2.63 4.77 42.16 42.16 0 0 0 3.08 4.38 40.31 40.31 0 0 0 3.48 3.85q.92.88 1.86 1.69t1.9 1.52q1 .71 1.94 1.34c.65.42 1.3.8 1.94 1.16a32.17 32.17 0 0 0 3.8 1.8q.92.37 1.82.67t1.74.52a30.08 30.08 0 0 0 5.92 1H261.08a4.47 4.47 0 0 0 4.29-3.24h-.06a5 5 0 0 1-2.04.45zM174.73 125.4a16.3 16.3 0 0 1-1.34 6.44c-.12.3-.26.57-.38.85a19.58 19.58 0 0 0 6.78 3.18 21.69 21.69 0 0 0 4.73.12 36.31 36.31 0 0 1-2.51-3.77 20.6 20.6 0 0 1-7.28-6.82zM256.66 154.94a12.61 12.61 0 0 1-4-2.32 15.28 15.28 0 0 1-2-2c-.29-.36-.56-.74-.81-1.12s-.48-.76-.71-1.14-.43-.76-.6-1.15c-.09-.19-.19-.38-.29-.56l-.27-.56c-.09-.18-.2-.36-.28-.54s-.17-.36-.26-.53c-.18-.35-.35-.69-.51-1s-.34-.64-.49-.95-.3-.59-.46-.86-.26-.45-.39-.65c-.11-1.37-.2-2.81-.27-4.3a28.75 28.75 0 0 1-3.4.33 22.48 22.48 0 0 0 1.08 7.01 16.3 16.3 0 0 0 13.66 10.34zM177.64 99.59a35.08 35.08 0 1 1 69.93-4v1.78a20.5 20.5 0 0 1-2.57 34.51 36.32 36.32 0 0 1-2.84 4.28 28.39 28.39 0 0 0 3.66-.42 19.67 19.67 0 0 0 7.18-34.23c.05-.83.08-1.67.08-2.52a40.56 40.56 0 0 0-1.19-9.75q-.1-.4-.21-.79a40.49 40.49 0 0 0-28.55-28.55l-.79-.21q-1.17-.29-2.37-.51a40.51 40.51 0 0 0-7.38-.68q-1.31 0-2.6.08a40.36 40.36 0 0 0-28.64 14.65q-.62.75-1.2 1.53-1.15 1.56-2.21 3.24t-1.87 3.44a40.21 40.21 0 0 0-2.17 5.51q-.59 1.9-1 3.88a40.67 40.67 0 0 0-.82 8.16c0 .85 0 1.68.08 2.52q-.62.51-1.2 1.06a19.81 19.81 0 0 0-2.13 2.4q-.48.64-.91 1.33a19.11 19.11 0 0 0-3 9.3l2.16.88c1.1.45 1.77 1.72 2 3.47l3.63 1.47a20.41 20.41 0 0 1 4.9-21.84zM185.06 177l-.87.33a.67.67 0 0 1 .48.48.68.68 0 0 1-.49.83 38.84 38.84 0 0 1-8.83.88c-1.22 0-2.56-.05-4-.16l2.36.88a.69.69 0 0 1 .34.29c.27.46 1.32 3.06-5.12 9.5l-1.53 1.55c-6.32 6.39-15.87 16-25.81 16.9-.82.07-1.65.1-2.49.1-6.31 0-13.11-1.84-17.42-3.26l.73 6.66q.5.15 1 .34v-.11c.74-1.26 3.24-1.18 5.57.2 1.91 1.12 3.1 2.75 3.07 4 .44.1.87.21 1.33.29a26.37 26.37 0 0 0 3.87.42h2.27c.62 0 1.24-.07 1.87-.13h.22a1.49 1.49 0 0 1-.26-.41c-.55-1.36 1-3.28 3.56-4.29s5-.73 5.54.63a2.17 2.17 0 0 1-.48 2.06c1.26-.45 2.49-1 3.69-1.51 1.79-.82 3.5-1.73 5.16-2.68a1.53 1.53 0 0 1-.52-.43c-.86-1.18.21-3.44 2.4-5s4.66-1.94 5.53-.75a1.84 1.84 0 0 1 .24 1.46c1.42-1 2.81-1.9 4.13-2.81l2.86-2c1.85-1.25 3.58-2.38 5.15-3.33.76-.46 1.47-.85 2.14-1.21A82.36 82.36 0 0 0 182 188a.7.7 0 0 1 .65-.62l.19-1.08c.45-2.5 1.23-5.68 2.22-9.3z"/><path class="cls-7" d="M187.63 172.92l.34-.16a18 18 0 0 0 3.36-2.33 28 28 0 0 1-3.46 1.71z"/><path class="cls-7" d="M160.07 251.69c.42.42 2.37 1.83 8.76 1.08 10.19-1.19 17.41-6.42 24.14-17.47 3.3-5.43 4.57-15.75 5.8-25.73 1.11-9 2.16-17.6 4.68-22.15a14.37 14.37 0 0 1 5.11-5.44 4.85 4.85 0 0 0-1 .41l-1.31.84 4.83-27.58a20.88 20.88 0 0 1-1.73-2.19c-3.45-5.17.36-11.4 5-16.31l.05-.31h.22a64.84 64.84 0 0 1 9.54-8.06l.2-.13 17.81 1.44-.07.69s-.23 2.46-.22 5.4h.23a36.32 36.32 0 0 0 2.84-4.28 20.5 20.5 0 0 0 2.53-34.47v-1.78a35.08 35.08 0 1 0-69.93 4 20.41 20.41 0 0 0-4.9 21.84c1.24.5 1.9 2 2 4a20.6 20.6 0 0 0 7.28 6.82 36.31 36.31 0 0 0 2.51 3.77.7.7 0 0 1 .5.15c.35-1.68.54-2.77.55-2.81l.06-.37.34-.14c.66-.28 16.37-6.82 22.21-1.48 2.42 2.21 2.78 6.06 1.06 11.44-3.11 9.73-6.71 17.64-12.18 23.16a1.34 1.34 0 0 1 .38.21 1.36 1.36 0 0 1 .13 1.92c-.18.21-4.53 5.18-8.4 7.11-.88.44-1.73.83-2.54 1.18-1.11 4-2 7.48-2.46 10.13a134.12 134.12 0 0 0-2.58 25.62c-.06 2.13-.12 4.51-.22 7.32-.53 14.63-4.38 22.85-12.12 25.86-.64.25-1.29.48-1.95.72s-1.35.48-2 .73l-.83.38c-.52.23-.75.32-.62.32h-.22c-1.92.92-3.4 2.15-3.48 4.16zm77.2-137.14a1.73 1.73 0 1 1-3.46 0v-3.87a1.73 1.73 0 0 1 3.46 0zm-7.53-18.33a7.09 7.09 0 0 1 11.6 0 1.36 1.36 0 0 1-2.28 1.49 4.41 4.41 0 0 0-3.52-1.78A4.46 4.46 0 0 0 232 97.7a1.36 1.36 0 1 1-2.28-1.48zm-35.38 18.33a1.73 1.73 0 1 1-3.46 0v-3.87a1.73 1.73 0 0 1 3.46 0zm3.64-8.45a1.36 1.36 0 0 1-1.88-.39 4.41 4.41 0 0 0-3.52-1.78 4.46 4.46 0 0 0-3.52 1.78 1.36 1.36 0 1 1-2.28-1.48 7.09 7.09 0 0 1 11.6 0 1.36 1.36 0 0 1-.4 1.87z"/><path class="cls-3" d="M169.26 245.3c7.75-3 11.6-11.23 12.12-25.86.1-2.8.16-5.19.22-7.32a134.12 134.12 0 0 1 2.58-25.62c.48-2.65 1.36-6.16 2.46-10.13-.55.24-1.08.46-1.59.65-1 3.6-1.77 6.78-2.21 9.23l-.19 1.08h.07a.68.68 0 0 1 .64.72 89.71 89.71 0 0 1-1.65 10.87c-.12.7-.23 1.4-.32 2.1-.22 1.68-.37 3.35-.45 5q-.07 1.31-.1 2.59t0 2.54v6.37s-.06 1.29-.1 1.92c-.07 1.28-.21 2.52-.36 3.74q-.12.91-.26 1.81t-.32 1.75c-.23 1.15-.49 2.26-.81 3.33-.18.61-.4 1.18-.6 1.77-1.38 5-3.6 8.54-6.74 10.7-.52.48-1.05.94-1.57 1.35a25.25 25.25 0 0 1-3.28 2.15c-.55.3-1 .54-1.44.74.64-.25 1.31-.49 2-.73s1.26-.51 1.9-.75z"/><path class="cls-8" d="M192.63 109a1.72 1.72 0 0 0-1.73 1.73v3.87a1.73 1.73 0 1 0 3.46 0v-3.87a1.73 1.73 0 0 0-1.73-1.73z"/><path class="cls-9" d="M235.54 109a1.72 1.72 0 0 0-1.73 1.73v3.87a1.73 1.73 0 1 0 3.46 0v-3.87a1.73 1.73 0 0 0-1.73-1.73z"/><path class="cls-10" d="M230.14 98.1a1.36 1.36 0 0 0 1.88-.4 4.46 4.46 0 0 1 3.52-1.78 4.41 4.41 0 0 1 3.52 1.78 1.36 1.36 0 0 0 2.28-1.49 7.09 7.09 0 0 0-11.6 0 1.36 1.36 0 0 0 .4 1.89z"/><path class="cls-11" d="M192.63 101.19a7.17 7.17 0 0 0-5.8 3 1.36 1.36 0 1 0 2.28 1.48 4.46 4.46 0 0 1 3.52-1.78 4.41 4.41 0 0 1 3.52 1.78 1.36 1.36 0 0 0 2.28-1.49 7.17 7.17 0 0 0-5.8-2.99z"/><path class="cls-7" d="M171.67 173.38c19.15.43 28.95-8 36.29-31 1.54-4.83 1.31-8.2-.68-10-4.77-4.36-18.12.68-20.42 1.59-.42 2.29-2.7 14.09-5.94 19.92a15.44 15.44 0 0 1-17 7.57c-8-1.77-15-7-17.24-12.39l-.06.14c-.27.67-.5 1.38-.78 2a16.6 16.6 0 0 1-.89 1.87 12.93 12.93 0 0 1-.93 1.44 8.66 8.66 0 0 1-.64.76 36.55 36.55 0 0 0 4.51 6.45c3.73 4.27 11.73 11.39 23.78 11.65z"/><path class="cls-3" d="M146.72 149c2.28 5.42 9.28 10.65 17.28 12.43a15.44 15.44 0 0 0 17-7.57c3.24-5.83 5.52-17.63 5.94-19.92 2.3-.92 15.66-6 20.42-1.59 2 1.82 2.22 5.19.68 10-7.35 23-17.15 31.43-36.29 31-12.05-.26-20-7.4-23.74-11.63a36.55 36.55 0 0 1-4.51-6.45l-.1.11-.22.22-.08.07a3.55 3.55 0 0 1-.68.45 37.91 37.91 0 0 0 2.11 3.35c1.32-.17 3 1.33 3.93 3.61a8.63 8.63 0 0 1 .47 1.59 33.41 33.41 0 0 0 22.79 10h1.29a40.44 40.44 0 0 0 13.34-2l-.28.95c.53-.23 1.08-.49 1.64-.76l.23-.79a28 28 0 0 0 3.46-1.71 44.52 44.52 0 0 0 4.21-4.13 1.35 1.35 0 0 1 1.54-.35c5.46-5.52 9.07-13.43 12.18-23.16 1.72-5.38 1.36-9.23-1.06-11.44-5.84-5.33-21.54 1.2-22.21 1.48l-.34.14-.06.37s-.2 1.13-.55 2.81a.67.67 0 0 1-.25 1.17c-1 4.53-2.81 11.83-5.06 15.89a13.78 13.78 0 0 1-1.68 2.34c0 .25-.09.52-.13.77a16.24 16.24 0 0 1-3.36 2.46c-.37.2-.75.39-1.14.56s-.79.34-1.2.49-.83.28-1.27.4-.87.22-1.32.32h-.25l-.49.05h-.98a1.58 1.58 0 0 1-.3 0H166.15a17 17 0 0 1-2-.1 19.27 19.27 0 0 1-4.13-.92q-.67-.23-1.32-.51c-.43-.18-.86-.38-1.28-.59s-.83-.44-1.22-.68-.79-.49-1.16-.75-.74-.54-1.1-.82a21.55 21.55 0 0 1-3.62-3.7 22.26 22.26 0 0 1-1.88-2.92q-.26-.48-.48-.94c-.16-.34-.28-.65-.41-1h-.3l-.11.22c-.14.65-.31.94-.42 1.18z"/><path class="cls-7" d="M212.3 156.9l-4.17 23.8a8.13 8.13 0 0 1 2.49-.39 9.92 9.92 0 0 1 6.66 2.82c4.61 4.09 8.5 18.76 10.32 31.48 2 14 9.47 27.68 17.38 31.85s17.71 6.54 19.83 5.54c.12-.06.18-.12.19-.17.35-2.07-.25-2.66-7.95-7.84-7-4.71-13-8.78-13.53-31-.09-4.08-.09-8.06-.1-11.92 0-10.92 0-20.85-1.85-30.34-.49-.23-.95-.46-1.37-.68-11.43-2.34-21.91-7.23-27.9-13.15z"/><path class="cls-3" d="M241.58 170.76c1.81 9.5 1.84 19.42 1.85 30.34 0 3.85 0 7.84.1 11.92.49 22.18 6.53 26.25 13.53 31 7.7 5.18 8.29 5.77 7.95 7.84 0 .06-.07.11-.19.17-2.11 1-11.88-1.34-19.83-5.53s-15.38-17.85-17.38-31.85c-1.82-12.72-5.71-27.39-10.32-31.48a9.92 9.92 0 0 0-6.66-2.82 8.13 8.13 0 0 0-2.49.39l4.17-23.8c6 5.92 16.47 10.81 27.91 13.18a34.34 34.34 0 0 1-3.69-2.18s-.05-.06-.09-.09c-11.58-3.06-21.59-8.68-25.88-15.11-5.62-8.44 12.15-21.21 14.22-22.65l16 1.29c-.17 2.31-.58 9.78 1 13.77 1.16 2.9 5.94 12.28 18.67 11.21 11.89-1 14.8-11.61 16.08-21.88.18-1.45.34-2.74.48-3.92.92-7.7 1.23-10.29 4.35-17.33q.17-.37.37-.76c-.54.84-1.05 1.71-1.54 2.63a36.86 36.86 0 0 0-4 13c-.07.6-.12 1.28-.17 1.92l-.06.83v2.2c0 .42 0 .85-.06 1.27a47.48 47.48 0 0 1-.58 5 28.93 28.93 0 0 1-2.76 8.63 16.4 16.4 0 0 1-2.13 3.16 14.85 14.85 0 0 1-2.38 2.18 12.37 12.37 0 0 1-5 2.14 14.38 14.38 0 0 1-2.19.23h-.48a12.19 12.19 0 0 1-2.74-.39c-.32-.08-.64-.2-1-.31A16.3 16.3 0 0 1 243 144.6a22.48 22.48 0 0 1-1.07-7.07h-.42a.68.68 0 0 1 0-1.36h.4c0-2.94.22-5.35.22-5.4l.07-.69-17.81-1.44-.2.13a64.84 64.84 0 0 0-9.54 8.06h-.22l-.05.31c-4.61 4.91-8.41 11.14-5 16.31a20.88 20.88 0 0 0 1.73 2.19l-4.83 27.58 1.31-.84a4.85 4.85 0 0 1 1-.41 14.37 14.37 0 0 0-5.11 5.44c-2.51 4.56-3.57 13.1-4.68 22.15-1.23 10-2.5 20.3-5.8 25.73-6.73 11.05-13.95 16.28-24.14 17.47-6.39.75-8.34-.66-8.76-1.08.08-2 1.55-3.25 3.58-4.22a4.41 4.41 0 0 0-4.11 5.55c.85.6 2.56 1.33 5.93 1.33a30.35 30.35 0 0 0 3.53-.22c10.65-1.25 18.17-6.67 25.14-18.12 3.46-5.68 4.74-16.15 6-26.27 1.1-8.92 2.13-17.34 4.52-21.66a13 13 0 0 1 7.43-6.25 9.47 9.47 0 0 1 4.3 2.32c3.71 3.3 7.77 15.9 9.87 30.66 1.75 12.23 8.68 27.9 18.1 32.86 5.89 3.1 14.48 5.91 18.93 5.91a5 5 0 0 0 2.14-.37h.06a4.43 4.43 0 0 0 .2-1.24 3.6 3.6 0 0 0 0-1.71c-.41-1.31-1.89-2.52-5.65-5.09l-2.54-1.72c-3.07-2.06-5.75-4-7.88-6.94a22.68 22.68 0 0 1-3.28-6.94 40.54 40.54 0 0 1-1.1-4.89 82.56 82.56 0 0 1-1-11.63v-1.87c0-1.63 0-3.3-.11-5v-11.43c-.06-4.68-.27-7.44-.27-7.48a.68.68 0 0 1 .62-.73h.14a109.88 109.88 0 0 0-1.5-15.07c-.59-.24-1.09-.46-1.57-.7z"/><path class="cls-7" d="M277 130.52c-.14 1.18-.3 2.47-.48 3.92-1.28 10.26-4.2 20.89-16.08 21.88-12.73 1.07-17.51-8.31-18.67-11.21-1.6-4-1.19-11.46-1-13.77l-16-1.29c-2.07 1.45-19.85 14.21-14.22 22.65 4.29 6.43 14.3 12 25.88 15.11a1.35 1.35 0 0 1 1.66-2.13 39.69 39.69 0 0 0 8 4c1.81.23 3.63.41 5.44.5 15.28.75 26.1-4 33.13-14.56 5.07-7.6 5-21.63 5-28.38v-1.55c0-6.68 1-10 5.57-17.68a19.59 19.59 0 0 1 6.56-6.46l-1.55-4.71-1.18.59a48.56 48.56 0 0 0-4.63 2.67l-.18.12a62.17 62.17 0 0 0-8 6.53 38.12 38.12 0 0 0-2.74 3.16q-.91 1.19-1.77 2.53-.2.38-.37.76c-3.17 7.03-3.48 9.62-4.37 17.32z"/><path class="cls-3" d="M295.17 108c-4.53 7.7-5.57 11-5.57 17.68v1.55c0 6.75.11 20.78-5 28.38-7 10.54-17.84 15.31-33.13 14.56-1.82-.09-3.63-.27-5.44-.5a41 41 0 0 0 6.71 1.89h1.78c14.15 0 24.39-5 31.21-15.24 5.3-7.94 5.22-21.73 5.18-29.14v-1.55c0-6.38 1-9.56 5.38-17a18.09 18.09 0 0 1 5.83-5.82l-.44-1.33a19.59 19.59 0 0 0-6.51 6.52zM287.14 105.78c-.31.3-.62.65-.93 1a62.17 62.17 0 0 1 8-6.53 44.67 44.67 0 0 0-7.07 5.53z"/><path class="cls-6" d="M254.24 179.08s14.14 16.43 20.08 21.9 14.6 10 23.27 6.39c.89-.37 1.69-.7 2.45-1a5.32 5.32 0 0 1-1.3-2.19 5.39 5.39 0 0 1-.2-1.61h-.46l-.74-.08-.62-.09-.76-.12-.64-.12-.78-.17-.66-.17-.79-.23-.68-.22-.81-.29-.69-.27-.82-.36-.7-.33-.83-.44-.7-.39c-.28-.17-.56-.35-.84-.53l-.69-.46c-.28-.2-.57-.42-.85-.64s-.45-.34-.67-.52-.58-.5-.87-.76-.43-.38-.65-.59-.6-.6-.89-.91-.4-.41-.6-.63-.65-.76-1-1.16c-.16-.2-.33-.38-.49-.59-.49-.62-1-1.27-1.44-2s-.86-1.23-1.28-1.8l-.3-.41c-.41-.55-.82-1.09-1.21-1.58l-.05-.06c-.38-.48-.76-.93-1.13-1.36l-.26-.29c-.37-.43-.74-.83-1.1-1.21l-.09-.1c-.33-.34-.65-.66-1-1l-.24-.24c-.32-.31-.63-.59-.94-.86l-.19-.16-.71-.59-.28-.22-.72-.54-.33-.23-.36-.24-.38-.24c-.32-.19-.61-.36-.88-.5a7.3 7.3 0 0 0-1.8-.71z"/><path class="cls-7" d="M141.48 207.14c9.44-.82 18.78-10.26 25-16.5l1.54-1.55c4.75-4.75 5-7 4.93-7.67l-6.58-2.42c-2.51 2.81-4.82 5.48-6.87 7.86-7.42 8.6-12.78 14.81-18.4 16.66-5.38 1.77-11.66-.34-15.81-1.73l-1.81-.59a6.43 6.43 0 0 1-.52 1.19 7.66 7.66 0 0 1-1.21 1.57c4.74 1.54 12.92 3.78 19.73 3.18z"/><path class="cls-3" d="M141.6 208.5c9.94-.86 19.49-10.52 25.81-16.9l1.53-1.55c6.44-6.44 5.39-9 5.12-9.5a.69.69 0 0 0-.34-.29l-2.36-.88a53.63 53.63 0 0 1-6.39-.88c-2.36 2.65-4.55 5.18-6.49 7.43-4.74 5.49-8.62 10-12.2 12.93-.29.26-.57.53-.86.78a29.75 29.75 0 0 1-4.52 3.2 13.79 13.79 0 0 1-4.32.64c-4.88 0-9.89-2-12.94-3a5.88 5.88 0 0 1-.14.67l1.81.59c4.16 1.39 10.44 3.5 15.81 1.73 5.62-1.85 11-8.06 18.4-16.66 2-2.37 4.36-5.05 6.87-7.86l6.54 2.45c.06.65-.19 2.93-4.93 7.67l-1.54 1.55c-6.18 6.25-15.52 15.68-25 16.5-6.81.59-15-1.65-19.73-3.23l-.2.2.13 1.22c4.31 1.42 11.11 3.26 17.42 3.26.87.03 1.7 0 2.52-.07z"/><path class="cls-12" d="M308.1 207.74a4.34 4.34 0 0 0 2.26 1.51 6.6 6.6 0 0 0 .86-2 16.46 16.46 0 0 1-3.12.49z"/><path class="cls-13" d="M281.13 189a44.77 44.77 0 0 0-9.48-10.59 33.63 33.63 0 0 0 3.38-1.2 34.45 34.45 0 0 0 7.13-4.1c-1.89 1-3.79 1.15-4.53.15a1.47 1.47 0 0 1-.16-.32 32.7 32.7 0 0 1-3.48 1.75 27.74 27.74 0 0 1-4.28 1.41c-.43.11-.85.18-1.28.27a35.5 35.5 0 0 1-9.43-.19.67.67 0 0 0-.79.56.68.68 0 0 0 .56.79 38 38 0 0 0 5.87.46h1.55c.42.33.85.65 1.26 1 .27.14.56.3.88.5l.38.24.36.24.33.23.72.54.28.22.71.59.19.16c.3.26.62.55.94.86l.24.24c.31.3.63.62 1 1l.09.1c.36.38.72.78 1.1 1.21l.26.29c.37.43.74.87 1.13 1.36l.05.06c.39.49.8 1 1.21 1.58l.3.41c.42.57.84 1.17 1.28 1.8s1 1.35 1.44 2c.16.21.33.39.49.59.32.4.65.79 1 1.16s.4.42.6.63.59.63.89.91.43.39.65.59.58.52.87.76.45.35.67.52.57.44.85.64l.69.46c.28.18.56.37.84.53l.7.39.83.44.7.33.82.36.69.27.81.29.68.22.79.23.66.17.78.17.64.12.76.12.62.09.74.08h.46a5.39 5.39 0 0 0 .2 1.61 5.32 5.32 0 0 0 1.3 2.19 8.82 8.82 0 0 0 2.92 1.93 16.4 16.4 0 0 0 2.27.79h.18a.68.68 0 0 0 .18-1.34l-.35-.11c-2.93-.85-4.68-2.14-5.18-3.86-.89-3 2.25-6.54 2.28-6.58a.67.67 0 0 0 .14-.64.66.66 0 0 0-.19-.32.68.68 0 0 0-1 0s-.34.38-.72.91a12.59 12.59 0 0 0-1.49 2.67c-5.25-.39-12.11-2.33-17.98-10.94z"/><path class="cls-14" d="M137 144.67v1.85a32.79 32.79 0 0 0 .23 3.32c0-.37.11-.76.2-1.18s.17-.74.28-1.14.23-.83.36-1.28c.07-.23.16-.48.23-.72a11.82 11.82 0 0 0 3.36 1.58 17.75 17.75 0 0 0 5 .9H147.49c.14.32.25.63.41 1s.31.62.48.94a22.26 22.26 0 0 0 1.88 2.92 21.55 21.55 0 0 0 3.62 3.7c.36.28.72.55 1.1.82s.76.52 1.16.75.8.47 1.22.68.85.41 1.28.59.87.36 1.32.51a19.27 19.27 0 0 0 4.13.92 17 17 0 0 0 2 .1H167.62a1.58 1.58 0 0 0 .3 0h.98l.49-.05h.25c.45-.1.89-.2 1.32-.32s.85-.25 1.27-.4.81-.32 1.2-.49.77-.36 1.14-.56a16.24 16.24 0 0 0 3.36-2.46c0-.25.09-.51.13-.77a130.94 130.94 0 0 0 1.8-18.27 21.31 21.31 0 0 0 2.78.17c1.15 0 2-.08 2.05-.09h.11a.67.67 0 0 0 .25-1.17.7.7 0 0 0-.5-.15 21.69 21.69 0 0 1-4.73-.12 19.58 19.58 0 0 1-6.78-3.18c.13-.28.26-.55.38-.85a16.3 16.3 0 0 0 1.34-6.44c-.06-2-.72-3.46-2-4l-3.65-1.78a11.38 11.38 0 0 1 .09 1.51l3 1.24c1.37.56 1.66 4.24-.13 8.63s-4.55 6.83-5.93 6.27l-3-1.24a11.39 11.39 0 0 1-1.12 1l3.65 1.48a2.46 2.46 0 0 0 .93.18 5.27 5.27 0 0 0 3.52-1.92 13.56 13.56 0 0 0 1.56-2 22.31 22.31 0 0 0 5.42 2.8 126.33 126.33 0 0 1-1.7 17 13.52 13.52 0 0 1-2.16 1.48 14.72 14.72 0 0 1-2 .9 16.9 16.9 0 0 1-2.19.6h-.49l-.45.05h-.37l-.32.05h-1.35a14.21 14.21 0 0 1-1.64-.08 16.9 16.9 0 0 1-6.84-2.32 17.65 17.65 0 0 1-2-1.39 18.89 18.89 0 0 1-3.13-3.2 19.54 19.54 0 0 1-2.08-3.4c-.09-.19-.17-.4-.26-.6h.07a6 6 0 0 0 2.2-2.52 11.76 11.76 0 0 0 1-3.28.68.68 0 0 0-1.34-.23c0 .16-.06.31-.1.47-.45 2.19-1.26 3.64-2.5 4.4-1.56 1-3.84.92-7.39-.16-6.93-2.1-5.59-7.33-5.53-7.55a.68.68 0 0 0-1.31-.37 7.39 7.39 0 0 0-.1 2.58 7 7 0 0 0 1.91 4c-.03.14-.03.22-.03.29z"/><path class="cls-15" d="M291.32 216.79c-.47 0-1 .06-1.44.06h-1.01a20 20 0 0 1-2-.2c-.42-.06-.83-.18-1.24-.27-1 .76-3 .8-5 0-2.24-.9-3.74-2.52-3.66-3.83-.77-.5-1.51-1-2.22-1.52q-.84-.61-1.64-1.23l-1.56-1.24c-.83-.67-1.61-1.32-2.4-2-.79 1-2.71.83-4.61-.26l2.5 2c.9.75 1.83 1.52 2.79 2.29a61 61 0 0 0 7.07 5.06 27.19 27.19 0 0 0 9.54 3.62 22.32 22.32 0 0 0 3.45.28c.57 0 1.14 0 1.68-.07a22.34 22.34 0 0 0 4.46-.83 26.76 26.76 0 0 0 6.32-2.81 39.65 39.65 0 0 0 3.91-2.71l.46-.37a9.53 9.53 0 0 1-1-.71 9.63 9.63 0 0 1-.73-.67c-.28 1.24-2 2.82-3.81 3.9-2.09 1.23-4.29 1.42-5.27.55-.23.07-.44.16-.67.23a19.65 19.65 0 0 1-3.92.73z"/><path class="cls-16" d="M137.2 219.85h1.09c1.07 0 2.18-.06 3.39-.17a37 37 0 0 0 4.57-.79 46.49 46.49 0 0 0 8.56-3 73.86 73.86 0 0 0 7.6-4.06c3.5-2.12 6.76-4.36 9.63-6.34l2.95-2c1.4-.95 2.59-1.73 3.65-2.4q-.29 2.35-.42 4.77c-.1 1.72-.14 3.46-.12 5.3V217.68c0 .51 0 1-.08 1.51-.08 1.32-.22 2.56-.35 3.61-.16 1.26-.34 2.36-.55 3.33-.24 1.21-.49 2.22-.75 3.12s-.63 2-1 2.85a27.65 27.65 0 0 1-1.15 2.51 20.43 20.43 0 0 1-1.29 2.16 20.1 20.1 0 0 1-1.44 1.92 22.34 22.34 0 0 1-1.54 1.63c-.51.48-1 .94-1.59 1.37a22.62 22.62 0 0 1-2.9 1.91c-.87.48-1.59.8-2.06 1l-.28.12a7.2 7.2 0 0 0 .66 14.37h.15a26.69 26.69 0 0 0 3.66.24c.63 0 1.28 0 1.94-.06a33 33 0 0 0 6.46-1.07 32.25 32.25 0 0 0 3.87-1.29 34.75 34.75 0 0 0 4.11-2 39.12 39.12 0 0 0 4.16-2.68 41.65 41.65 0 0 0 7.75-7.54 45 45 0 0 0 3.28-4.66 56.53 56.53 0 0 0 5-10.29c.65-1.73 1.24-3.55 1.76-5.39.21-.7.39-1.43.57-2.13l.14-.56.13-.55c.17-.73.35-1.48.5-2.31l.48-2.45v-.22V215.79l.13-.55.24-1c.3-1.26.63-2.6 1-3.86a59 59 0 0 1 2.1-6.43c.42-1 .77-1.83 1.09-2.53l.18-.37.19.4c.3.66.65 1.47 1.08 2.52a59 59 0 0 1 2.09 6.39c.35 1.27.68 2.62 1 3.89l.24 1 .12.52V216.34l.48 2.47c.15.81.33 1.56.5 2.29l.12.5.15.59c.18.71.36 1.44.58 2.19.51 1.81 1.1 3.63 1.75 5.37a56.56 56.56 0 0 0 5 10.28 44.92 44.92 0 0 0 3.27 4.65 41.65 41.65 0 0 0 7.73 7.53 39.25 39.25 0 0 0 4.18 2.69 34.7 34.7 0 0 0 4.11 2 32.39 32.39 0 0 0 3.88 1.29 33 33 0 0 0 6.44 1.07c.66 0 1.32.06 1.95.06a26.69 26.69 0 0 0 3.66-.24h.15a7.21 7.21 0 0 0 7.09-7c.62-4.24-1.78-5.86-9.44-11-6.72-4.52-11.57-7.78-12-28.15v-1.83c0-1.72 0-3.44-.11-5.11s0-3.26 0-4.86v-3.66a22.69 22.69 0 0 1 3.44.59 23.66 23.66 0 0 1 4.07 1.43c.72.32 1.42.69 2.28 1.15s1.64 1 2.33 1.42c1.07.7 2.23 1.54 3.49 2.51-1.33-1.42-1.86-3-1.18-4a1.45 1.45 0 0 1 .16-.15c-.32-.22-.65-.47-1-.68-.86-.57-1.7-1.07-2.53-1.54s-1.64-.88-2.44-1.23q-.6-.27-1.18-.51c-.78-.31-1.54-.57-2.27-.79l-1.09-.3c-.81-.2-1.58-.35-2.33-.47-.58-.09-1.16-.17-1.71-.21s-1-.06-1.43-.08c-.06-4.75-.28-7.56-.28-7.6a.67.67 0 0 0-.59-.61h-.14a.68.68 0 0 0-.62.73s.21 2.79.27 7.48v11.43c.09 1.7.13 3.36.11 5V213a82.56 82.56 0 0 0 1 11.63 40.54 40.54 0 0 0 1.1 4.89 22.68 22.68 0 0 0 3.28 6.94c2.13 3 4.82 4.88 7.88 6.94l2.54 1.72c3.76 2.57 5.25 3.78 5.65 5.09a3.6 3.6 0 0 1 0 1.71 4.57 4.57 0 0 1-4.48 4.48h-5.46a30.08 30.08 0 0 1-5.92-1q-.85-.22-1.74-.52t-1.82-.67a32.17 32.17 0 0 1-3.8-1.8c-.64-.36-1.29-.75-1.94-1.16s-1.3-.86-1.94-1.34-1.27-1-1.9-1.52-1.25-1.1-1.86-1.69a40.31 40.31 0 0 1-3.48-3.85 42.16 42.16 0 0 1-3.08-4.38 53.37 53.37 0 0 1-2.63-4.77 54.31 54.31 0 0 1-2.14-5q-.48-1.28-.9-2.58t-.79-2.61c-.26-.87-.47-1.75-.69-2.62s-.42-1.73-.59-2.69l-.48-2.47v-.38l-.06-.26-.12-.53-.25-1c-.33-1.38-.66-2.7-1-4a61.58 61.58 0 0 0-2.2-6.72c-.39-1-.77-1.84-1.14-2.65q-.28-.6-.56-1.14l-.53-1c-.55-1-1.05-1.87-1.56-2.65-.51.78-1 1.65-1.56 2.65l-.54 1-.56 1.14c-.37.81-.75 1.69-1.14 2.65s-.77 2-1.13 3.14-.72 2.32-1.06 3.58-.67 2.59-1 4l-.25 1-.12.53-.06.26a1.47 1.47 0 0 1 .32.05c1.38.49 1.76 3 .84 5.51-.74 2.07-2.11 3.54-3.33 3.76-.41 1.36-.85 2.72-1.35 4.06q-.47 1.28-1 2.54a54.22 54.22 0 0 1-2.39 4.92q-.66 1.19-1.37 2.34a42.26 42.26 0 0 1-2.65 3.81c.82 1.11.12 3.34-1.69 5.17s-4 2.55-5.12 1.77c-.29.23-.57.47-.86.69a36.33 36.33 0 0 1-3.88 2.5c-.64.36-1.28.69-1.92 1s-1.26.57-1.88.82-1.22.47-1.82.67-1.18.37-1.74.52a30.05 30.05 0 0 1-5.92 1H163.88a4.47 4.47 0 0 1-.22-8.94h.22c-.13 0 .1-.09.62-.32l.83-.38c.42-.2.9-.44 1.44-.74a25.25 25.25 0 0 0 3.28-2.15c.52-.41 1-.87 1.57-1.35l.21-.18c.59-.56 1.17-1.19 1.74-1.84a22.55 22.55 0 0 0 1.62-2.16 23.1 23.1 0 0 0 1.46-2.46 29.86 29.86 0 0 0 1.27-2.77c.16-.41.29-.87.44-1.29.2-.59.42-1.15.6-1.77.31-1.06.58-2.18.81-3.33q.18-.86.32-1.75t.26-1.81c.15-1.22.29-2.46.36-3.74 0-.63.07-1.28.1-1.92s0-1.31 0-1.89v-4.48q0-1.26 0-2.54t.1-2.59c.09-1.64.23-3.3.45-5 .09-.7.2-1.4.32-2.1a89.71 89.71 0 0 0 1.68-10.98.68.68 0 0 0-.64-.72h-.07a.7.7 0 0 0-.65.62 82.36 82.36 0 0 1-1.24 8.74c-.68.36-1.38.75-2.14 1.21-1.58.94-3.3 2.07-5.15 3.33l-2.86 2c-1.32.91-2.71 1.86-4.13 2.81a6.38 6.38 0 0 1-2.63 3.58c-1.85 1.35-3.89 1.79-5 1.18-1.66.94-3.37 1.86-5.16 2.68-1.2.55-2.43 1.05-3.69 1.51a7.13 7.13 0 0 1-3.08 2.23c-2.23.9-4.43.77-5.28-.22h-.22c-.63.06-1.25.1-1.87.13h-2.27a26.36 26.36 0 0 1-3.87-.42c-.46-.08-.89-.19-1.33-.29a1.57 1.57 0 0 1-.19.77 2 2 0 0 1-1.65.86 14 14 0 0 0-6.85-5.72q-.49-.19-1-.34l-.73-6.66-.13-1.22.2-.2a7.66 7.66 0 0 0 1.21-1.57 6.43 6.43 0 0 0 .52-1.19 5.88 5.88 0 0 0 .14-.67c3.06.94 8.06 3 12.94 3a13.79 13.79 0 0 0 4.32-.64 29.75 29.75 0 0 0 4.52-3.2c.29-.24.57-.52.86-.78 1.22-1.09 2.44-2.26 3.66-3.53q1.13-1.18 2.25-2.44c.75-.84 1.49-1.69 2.24-2.56l2.25-2.64 2.28-2.66c1.53-1.77 3.09-3.54 4.72-5.24.42-.44.86-.86 1.29-1.29a53.63 53.63 0 0 0 6.39.88c1.42.11 2.76.16 4 .16a38.84 38.84 0 0 0 8.83-.88.68.68 0 0 0 .49-.83.67.67 0 0 0-.48-.48.66.66 0 0 0-.34 0 36 36 0 0 1-6.47.77 51.62 51.62 0 0 1-11.24-.79l.08-.08-.41-.09-1.25-.29c-.83-.22-1.65-.46-2.45-.72s-1.59-.56-2.36-.88-1.52-.67-2.25-1a33.11 33.11 0 0 1-6-3.9 32 32 0 0 1-2.81-2.61 1.76 1.76 0 0 1-.9 1c-1.36.56-3.29-1-4.31-3.53-.78-1.91-.81-3.8-.18-4.84a30 30 0 0 1-1.4-3c-.11-.28-.2-.56-.3-.83-.1 0-.2.08-.31.1a3.46 3.46 0 0 1-2.78-.75c.26.84.54 1.67.86 2.49a34.73 34.73 0 0 0 6.88 10.83 34.22 34.22 0 0 0 3.54 3.31 36 36 0 0 0 8.91 5.35c.73.31 1.5.6 2.31.88-1.23 1.32-2.53 2.77-4.11 4.6L154.5 186c-2.25 2.64-4.37 5.14-6.54 7.42a53.1 53.1 0 0 1-4.3 4.1 27.61 27.61 0 0 1-3.86 2.78 11.36 11.36 0 0 1-3.22.43c-3.54 0-7.38-1.29-10.19-2.23-1.09-.37-2-.67-2.85-.89 0-.16-.06-.32-.11-.48a.68.68 0 0 0-.86-.43.67.67 0 0 0-.24.14.68.68 0 0 0-.19.72 4.87 4.87 0 0 1-.34 4.1 9.58 9.58 0 0 1-6 4c-3.05.67-5.34.4-6.8-.82a5.59 5.59 0 0 1-1.76-4.09.67.67 0 0 0-.46-.66.66.66 0 0 0-.19 0 .71.71 0 0 0-.7.65 6.88 6.88 0 0 0 2.24 5.17 6.35 6.35 0 0 0 2.86 1.3l.6 5.9a14.17 14.17 0 0 0-4.15 3.45 14.07 14.07 0 0 0 6.67 22.31 2 2 0 0 0 .6.09h.2a2 2 0 0 0 1.35-.73 2 2 0 0 0 .44-1.46v-.23l-1-9.45a.54.54 0 0 1 .48-.59l2.44-.25 1-.1 1-.1a.55.55 0 0 1 .58.48l1 9.68a2 2 0 0 0 2 1.8h.2a2 2 0 0 0 .77-.24 13.77 13.77 0 0 0 1.64-1.08 14.14 14.14 0 0 0 2.43-2.32 14 14 0 0 0 3.1-10.3 14.15 14.15 0 0 0-1.55-5.15 29.49 29.49 0 0 0 6.41.93zm-6.28 4.33a12.61 12.61 0 0 1-5 11.4l-1-9.44a1.9 1.9 0 0 0-1.89-1.71h-.19l-4.44.45-2.44.25a1.9 1.9 0 0 0-1.7 2.08l1 9.45a12.7 12.7 0 0 1 .17-23l-.7-6.41c.43-.06.86-.13 1.32-.23a12.34 12.34 0 0 0 4.23-1.89l.87 7.94a12.67 12.67 0 0 1 9.78 11.11z"/><path class="cls-6" d="M238.09 165.68a1.35 1.35 0 0 0-1.66 2.13s.05.07.09.09a34.34 34.34 0 0 0 3.69 2.18c.43.22.88.45 1.37.68s1 .46 1.52.69a41 41 0 0 0 16.11 3.5 34.17 34.17 0 0 0 5.47-.44 1.36 1.36 0 0 0-.44-2.69 32.8 32.8 0 0 1-11.44-.25 41 41 0 0 1-6.71-1.89 39.69 39.69 0 0 1-8-4z"/><path class="cls-17" d="M129 212.43c-2.34-1.37-4.83-1.46-5.57-.2v.11a14 14 0 0 1 6.85 5.72 2 2 0 0 0 1.65-.86 1.57 1.57 0 0 0 .19-.77c0-1.25-1.19-2.88-3.12-4z"/><path class="cls-18" d="M280 168.16c-2 1.48-3 3.49-2.53 4.73a1.47 1.47 0 0 0 .16.32c.74 1 2.64.89 4.53-.15a8.82 8.82 0 0 0 1-.63 8.44 8.44 0 0 0 1.52-1.44c1.09-1.33 1.48-2.76.85-3.61a1.55 1.55 0 0 0-.58-.45c-1.14-.56-3.14-.1-4.95 1.23z"/><path class="cls-19" d="M150.47 212.88c-.55-1.36-3-1.64-5.54-.63s-4.11 2.93-3.56 4.29a1.49 1.49 0 0 0 .26.41c.85 1 3 1.11 5.28.22a7.13 7.13 0 0 0 3.08-2.23 2.17 2.17 0 0 0 .48-2.06z"/><path class="cls-20" d="M166.24 204.54c-.86-1.18-3.34-.85-5.53.75s-3.26 3.85-2.4 5a1.53 1.53 0 0 0 .52.43c1.11.61 3.16.17 5-1.18a6.38 6.38 0 0 0 2.63-3.58 1.84 1.84 0 0 0-.22-1.42z"/><path class="cls-21" d="M291.29 145.38c-.69 2.62-.1 5 1.32 5.42a1.62 1.62 0 0 0 .94-.07c1.16-.4 2.33-1.94 2.87-4 .69-2.61.1-5-1.3-5.41-1.44-.38-3.12 1.44-3.83 4.06z"/><path class="cls-22" d="M148.85 164.71a8.63 8.63 0 0 0-.47-1.59c-.93-2.28-2.62-3.78-3.93-3.61a1.48 1.48 0 0 0-.38.08 1.65 1.65 0 0 0-.78.71c-.63 1-.6 2.93.18 4.84 1 2.51 3 4.09 4.31 3.53a1.76 1.76 0 0 0 .9-1 5.06 5.06 0 0 0 .17-2.96z"/><path class="cls-23" d="M299.54 111.47a1.73 1.73 0 0 0 1.14.49 5.85 5.85 0 0 0 3.94-1.66v-.1l-1.71-5.2a8.55 8.55 0 0 0-1.58 1.18c-2.01 1.82-2.8 4.23-1.79 5.29z"/><path class="cls-24" d="M201.27 219.3c-.91 2.55-.54 5 .84 5.51a1.58 1.58 0 0 0 .82 0c1.23-.22 2.59-1.69 3.33-3.76.91-2.55.54-5-.84-5.51a1.47 1.47 0 0 0-.32-.05c-1.33-.13-2.98 1.45-3.83 3.81z"/><path class="cls-25" d="M188.7 244c-1.9 1.93-2.6 4.33-1.56 5.36a1.46 1.46 0 0 0 .21.14c1.12.78 3.33 0 5.12-1.77s2.5-4.06 1.69-5.17a1.47 1.47 0 0 0-.13-.19c-1.03-1.06-3.43-.37-5.33 1.63z"/><path class="cls-26" d="M269.12 206.53l.06-.06c.86-1.18-.21-3.44-2.4-5s-4.4-1.88-5.37-.9a1.45 1.45 0 0 0-.16.15c-.68.93-.14 2.53 1.18 4a8.64 8.64 0 0 0 1.21 1.08 9 9 0 0 0 .86.55c1.91 1.01 3.83 1.14 4.62.18z"/><path class="cls-27" d="M280.59 216.32c2 .82 4 .78 5 0a1.59 1.59 0 0 0 .53-.65c.55-1.36-1-3.28-3.56-4.29s-5-.73-5.54.63a1.49 1.49 0 0 0-.09.47c-.08 1.32 1.42 2.94 3.66 3.84z"/><path class="cls-6" d="M186.65 176.37c.81-.35 1.66-.74 2.54-1.18 3.87-1.94 8.22-6.9 8.4-7.11a1.36 1.36 0 0 0-.13-1.92 1.43 1.43 0 0 0-1.92.13 44.52 44.52 0 0 1-4.21 4.13 18 18 0 0 1-3.36 2.33l-.34.16c-.56.27-1.11.53-1.64.76a38.53 38.53 0 0 1-7.64 2.54 1.36 1.36 0 0 0-1.09 1.58 1.33 1.33 0 0 0 .11.3 36 36 0 0 0 6.47-.77.66.66 0 0 1 .34 0l.87-.33c.52-.16 1.05-.38 1.6-.62z"/><path class="cls-28" d="M112.94 190.68a12.67 12.67 0 0 1-4.58-22.46l1 9.44a1.9 1.9 0 0 0 1.89 1.71h.19l2.44-.25 4.44-.45a1.9 1.9 0 0 0 1.7-2.08l-1-9.45a12.7 12.7 0 0 1-.17 23l.46 4.54a7.46 7.46 0 0 1 1.44.7l-.07-.72-.38-3.72a14.17 14.17 0 0 0 4.15-3.45 14.06 14.06 0 0 0-4.85-21.59 14.09 14.09 0 0 0-1.82-.72 2 2 0 0 0-.6-.09H117a2 2 0 0 0-1.35.73 2 2 0 0 0-.44 1.46l1 9.68a.54.54 0 0 1-.48.59l-2 .2-2.44.25a.55.55 0 0 1-.58-.48l-1-9.44v-.24a2 2 0 0 0-2-1.8h-.2a2 2 0 0 0-.77.24 14.07 14.07 0 0 0 2.7 25.75l.35 3.43a10.23 10.23 0 0 1 3.56-1.25z"/><path class="cls-6" d="M121.16 213.07l-.87-7.94a12.34 12.34 0 0 1-4.23 1.89c-.46.1-.89.17-1.32.23l.7 6.41a12.7 12.7 0 0 0-.17 23l-1-9.45a1.9 1.9 0 0 1 1.7-2.08l2.44-.25 4.44-.45h.19a1.9 1.9 0 0 1 1.89 1.71l1 9.44a12.7 12.7 0 0 0-4.77-22.51zM307.58 74.86l-.3-.92-1.97 1.67 2.27-.75zM292.67 69.58l.41 1.25 2.68-2.26-3.09 1.01zM304.95 66.83l-.38-1.16-2.43.8-7.81 6.61a1.24 1.24 0 0 1-.42.22l.71 2.15 9.92-8.4a1.25 1.25 0 0 1 .41-.22zM295.42 77.94l.27.83 3.25-1.07 7.11-6a1.25 1.25 0 0 1 .42-.23l-.7-2.14-9.92 8.4a1.24 1.24 0 0 1-.43.21zM300.21 92.53l.47 1.43 3.06-2.59-3.53 1.16zM306.7 98.08l-3.26 2.76a1.24 1.24 0 0 1-.42.23l.71 2.15 3.14-2.66a6.3 6.3 0 0 1-.17-2.48zM312.54 90l-.44-1.34-2 .65-8.2 6.94a1.23 1.23 0 0 1-.42.23l.71 2.15 9.92-8.4a1.25 1.25 0 0 1 .43-.23zM308.11 102.79l-3.11 2.68a1.24 1.24 0 0 1-.42.23l.71 2.15 4.48-3.79a6.77 6.77 0 0 1-1.66-1.27z"/><path class="cls-29" d="M298.94 77.7l6.37-2.09 2-1.67.39-.33a1.26 1.26 0 0 0-1.7-1.92z"/><path class="cls-30" d="M302.13 66.47l-6.37 2.09-2.68 2.27-.39.33a1.25 1.25 0 0 0 1.2 2.15 1.24 1.24 0 0 0 .42-.22z"/><path class="cls-31" d="M312.37 105.1a10.91 10.91 0 0 1-2.66-1.05l-4.48 3.79-.39.33a1.25 1.25 0 0 0 1.25 2.14 1.24 1.24 0 0 0 .38-.21z"/><path class="cls-32" d="M310.11 89.28l-6.37 2.09-3.06 2.63-.39.33a1.25 1.25 0 0 0 1.2 2.15 1.23 1.23 0 0 0 .42-.23z"/><path class="cls-33" d="M306.7 98.08a8.26 8.26 0 0 1 .71-2.46.68.68 0 0 1 .91-.29.67.67 0 0 1 .18.15 13.52 13.52 0 0 1 5.5-3.64 1.24 1.24 0 0 0-.07-1.5 1.27 1.27 0 0 0-1.77-.15l-9.92 8.4-.39.33a1.25 1.25 0 0 0 1.2 2.15 1.24 1.24 0 0 0 .42-.23z"/><path class="cls-34" d="M308.11 102.79a5.46 5.46 0 0 1-1-1.44 5.29 5.29 0 0 1-.27-.8l-3.14 2.66-.39.33a1.25 1.25 0 0 0 1.2 2.15 1.24 1.24 0 0 0 .42-.23z"/><path class="cls-35" d="M295.42 77.94a1.24 1.24 0 0 0 .42-.23l9.92-8.4.39-.33a1.26 1.26 0 0 0-1.63-1.92l-9.92 8.4-.39.33a1.25 1.25 0 0 0 1.2 2.15z"/><path class="cls-6" d="M287.476 57.47l13.453-4.418 3.67 11.172-13.455 4.418zM295.014 80.448l13.454-4.416 3.667 11.174-13.454 4.415z"/><path class="cls-36" d="M295 94.24l3.91-1.24.42 1.27-.18.09a56.33 56.33 0 0 0-6.27 3.51 47.25 47.25 0 0 0-7.65 6 40.1 40.1 0 0 0-7.49 10 39.48 39.48 0 0 0-4.26 14c-.06.47-.1 1-.14 1.55v.45l-.06.85v1.13a3.55 3.55 0 0 0 0 .36v2.06a44.51 44.51 0 0 1-.54 4.68 26.15 26.15 0 0 1-2.49 7.82 13.61 13.61 0 0 1-1.76 2.61 12.11 12.11 0 0 1-2 1.79 9.61 9.61 0 0 1-3.8 1.64h-.11a11.09 11.09 0 0 1-1.61.18h-.26a10.22 10.22 0 0 1-2.18-.29h-.08a9.78 9.78 0 0 1-3.89-2.06 12.61 12.61 0 0 1-1.61-1.68 15.74 15.74 0 0 1-1.24-1.85l-.27-.51c-.08-.15-.17-.3-.23-.45s-.24-.49-.36-.71l-.1-.2-.14-.29v-.07l-.13-.25-.1-.19c-.09-.2-.19-.39-.28-.58v-.07c-.17-.32-.33-.64-.48-1l-.05-.11c-.14-.25-.27-.51-.39-.75s-.38-.74-.57-1.08l-.1-.19c-.07-.89-.13-1.81-.18-2.76a22.41 22.41 0 0 0 7.67-37.58v-1.33a43.22 43.22 0 1 0-86.43 0v1.33a22.3 22.3 0 0 0-7.1 14.2l2.53 1.08a19.11 19.11 0 0 1 3-9.3q.43-.68.91-1.33a19.81 19.81 0 0 1 2.13-2.4q.58-.56 1.2-1.06c-.05-.83-.08-1.67-.08-2.52a40.67 40.67 0 0 1 .82-8.16q.4-2 1-3.88a40.21 40.21 0 0 1 2.17-5.51q.85-1.77 1.87-3.44t2.18-3.23q.58-.78 1.2-1.53A40.36 40.36 0 0 1 210 58.58q1.29-.08 2.6-.08a40.51 40.51 0 0 1 7.38.68q1.2.22 2.37.51l.79.21a40.5 40.5 0 0 1 28.55 28.55q.11.39.21.79a40.56 40.56 0 0 1 1.16 9.76c0 .85 0 1.68-.08 2.52a19.62 19.62 0 0 1-7.18 34.24 28.39 28.39 0 0 1-3.66.42h-.64a.68.68 0 0 0 0 1.36h.42a28.75 28.75 0 0 0 3.4-.33c.07 1.48.16 2.93.27 4.3.12.2.26.42.39.65s.31.55.46.86.31.62.49.95.33.67.51 1c.09.17.18.35.26.53s.19.36.28.54l.27.56c.1.18.2.37.29.56.17.39.41.76.6 1.15s.46.76.71 1.14.52.75.81 1.12a15.28 15.28 0 0 0 2 2 12.61 12.61 0 0 0 4 2.32c.32.11.63.23 1 .31a12.19 12.19 0 0 0 2.74.39h.48a14.38 14.38 0 0 0 2.19-.23 12.37 12.37 0 0 0 5-2.14 14.85 14.85 0 0 0 2.38-2.18 16.4 16.4 0 0 0 2.13-3.16 28.93 28.93 0 0 0 2.76-8.63 47.48 47.48 0 0 0 .58-5c0-.42 0-.85.06-1.27v-.88V130.78l.02-.78c.05-.65.09-1.32.17-1.92a36.86 36.86 0 0 1 4-13c.49-.92 1-1.8 1.54-2.63s1.16-1.73 1.77-2.53a38.12 38.12 0 0 1 2.74-3.16c.31-.32.62-.67.93-1a44.67 44.67 0 0 1 7.06-5.56l.18-.12a48.56 48.56 0 0 1 4.61-2.65l1.18-.59 1.55 4.71.44 1.33.7 2.12 1.71 5.2v.1a5.85 5.85 0 0 1-3.94 1.66c-.62.82-1.25 1.67-1.81 2.57a27.88 27.88 0 0 0-1.73 3.12 25.51 25.51 0 0 0-1.32 3.33q-.27.86-.46 1.75a24.82 24.82 0 0 0-.53 5.67v1.47l.05.67.11 1.41c0 .57.1 1.13.11 1.71a62.54 62.54 0 0 1 0 7.12v.52c1.4.39 2 2.8 1.3 5.41-.54 2.06-1.71 3.6-2.87 4a44.66 44.66 0 0 1-1.73 5.21q-.39 1-.83 1.91a37.8 37.8 0 0 1-3.2 5.57 32.07 32.07 0 0 1-2.85 3.51 1.55 1.55 0 0 1 .58.45c.63.85.24 2.28-.85 3.61a35.47 35.47 0 0 0 5.35-6 41.2 41.2 0 0 0 4.32-8 51.93 51.93 0 0 0 3.54-16 65.53 65.53 0 0 0 0-7.45c0-.37 0-.8-.08-1.23v-.52l-.11-1.44-.06-.73v-.36 0-.1-.47-.33a20.78 20.78 0 0 1 .87-6.56 23.33 23.33 0 0 1 1.19-3 25.23 25.23 0 0 1 1.56-2.81c.57-.91 1.24-1.8 1.89-2.65s1.19-1.51 1.9-2.31a4.8 4.8 0 0 0 5.71 2.24l5.33-1.75a4.82 4.82 0 0 0 3.07-6.08l-.27-.83a11.12 11.12 0 0 1-1.34.27l.33 1a3.46 3.46 0 0 1-2.21 4.36l-5.37 1.78a3.45 3.45 0 0 1-4.14-1.68 1.26 1.26 0 0 1-1.25-2.14l.39-.33-.71-2.15a1.25 1.25 0 0 1-1.2-2.15l.39-.33-.71-2.15a1.25 1.25 0 0 1-1.2-2.15l.39-.33-.71-2.15a1.25 1.25 0 0 1-1.2-2.15l.39-.33-.47-1.43 3.54-1.16 6.37-2.09 2-.65.44 1.34a1.26 1.26 0 0 1 1.35.38 1.24 1.24 0 0 1 .07 1.5l.56-.2-.35-1.05-.78-2.39 3.92-1.29a4.14 4.14 0 0 0 2.68-5.23l-2-5.9a4.14 4.14 0 0 0-5.22-2.64l-3.92 1.29-3-9.19 3.92-1.25a4.11 4.11 0 0 0 2.4-2.06 4.18 4.18 0 0 0 .3-.76 4.1 4.1 0 0 0-.06-2.4l-1.94-5.9a4.14 4.14 0 0 0-5.22-2.64l-22.33 7.33a4.14 4.14 0 0 0-2.64 5.22l1.94 5.9a4.13 4.13 0 0 0 5.22 2.64l3.93-1.33 3 9.19-3.92 1.29a4.14 4.14 0 0 0-2.64 5.22l1.94 5.9a4.08 4.08 0 0 0 3.74 2.83h.18a4.15 4.15 0 0 0 1.32-.19zm18.23-19.8a2.78 2.78 0 0 1 3.5 1.77l1.94 5.9a2.77 2.77 0 0 1-1.77 3.5l-3.47 1.14-3.67-11.17zm-7.54-22.94a2.78 2.78 0 0 1 3.5 1.77l1.94 5.9a2.78 2.78 0 0 1-1.77 3.5l-3.46 1.14-3.67-11.17zm-14.33 17.8l-4.11 1.35a3.46 3.46 0 0 1-4.36-2.21l-1.94-5.9a3.46 3.46 0 0 1 2.21-4.36l4.11-1.35.21.65 13.45-4.42 3.67 11.17-13.45 4.42zm2.71 8.27a1.26 1.26 0 0 1 .15-1.77l.39-.33-.71-2.15a1.25 1.25 0 0 1-1.2-2.15l.39-.33-.41-1.25 3.09-1 6.37-2.09 2.43-.8.38 1.16a1.26 1.26 0 0 1 1.2 2.14l-.39.33.7 2.14a1.26 1.26 0 0 1 1.21 2.15l-.39.33.3.92-2.28.75-6.37 2.09-3.25 1.07-.27-.83a1.23 1.23 0 0 1-1.35-.37zm-3.65 13.83l-1.94-5.9a3.46 3.46 0 0 1 2.21-4.36l4.11-1.35.21.65L308.47 76l3.67 11.17-13.46 4.43.21.65-4.11 1.35a3.46 3.46 0 0 1-4.36-2.21z"/><path class="cls-37" d="M298.89 92.24l-.21-.65L295 80.43l-.21-.65-4.11 1.35a3.46 3.46 0 0 0-2.21 4.36l1.94 5.9a3.46 3.46 0 0 0 4.36 2.21z"/><path class="cls-38" d="M287.26 56.83l-4.11 1.35a3.46 3.46 0 0 0-2.21 4.36l1.94 5.9a3.46 3.46 0 0 0 4.36 2.21l4.11-1.35-.21-.65-3.67-11.17z"/><path class="cls-3" d="M309.36 62.67a2.78 2.78 0 0 0 1.77-3.5l-1.94-5.9a2.78 2.78 0 0 0-3.5-1.77l-3.47 1.14 3.67 11.17zM316.89 85.62a2.77 2.77 0 0 0 1.77-3.5l-1.94-5.9a2.78 2.78 0 0 0-3.5-1.77l-3.47 1.14 3.67 11.17z"/><path class="cls-6" d="M341.05 195.34a2.33 2.33 0 0 1 .65 0l-1.85-8.34-5.14 6.24.69 3.41a2.34 2.34 0 0 1 .77-.31zM328.44 162.33l4 19.59 5-5.85-4.68-21a6.36 6.36 0 0 0-4.32 7.26z"/><path class="cls-39" d="M331.54 195.91a2.35 2.35 0 0 1-.53 1.72l-5.64 6.84 8.17-9.92.73 3.62a2.3 2.3 0 0 1 1.07-1.56l-.69-3.41 5.14-6.24 1.85 8.31a2.17 2.17 0 0 1 1.57.78L341 185.66l10.88-13.2v-2.14l-20.49 24.87a2.34 2.34 0 0 1 .15.72z"/><path class="cls-3" d="M326.85 191.16l3.84 3.17a2.34 2.34 0 0 1 .64.86l20.49-24.87v-9l-25.33 29.6a2.34 2.34 0 0 1 .36.24z"/><path class="cls-40" d="M338.53 174.78L334 154.54a1.18 1.18 0 0 0-1.48-.88 7.73 7.73 0 0 0-5.45 8.95l4.19 20.63-6.36 7.43h.2a2.25 2.25 0 0 1 1.37.3l25.33-29.6v-2.09zm-6.12 7.15l-4-19.59a6.36 6.36 0 0 1 4.31-7.31l4.68 21z"/><path class="cls-41" d="M331.54 195.91a2.49 2.49 0 0 0-.84-1.59l-3.84-3.17a2.35 2.35 0 0 0-1.72-.53h-.2a2.34 2.34 0 0 0-1.39.81l-2.68 3.25c-.16-.15-.33-.31-.5-.45a9.49 9.49 0 0 0-3.66-1.87 11.38 11.38 0 0 0-10.62 3 12.67 12.67 0 0 1 6.67 1.53 5.79 5.79 0 0 1 2.76 0 4.82 4.82 0 0 1 1.86.95 5.82 5.82 0 0 1 1.36 6.65 13.2 13.2 0 0 1-1.79 2.76v.05a7.61 7.61 0 0 1-3.17 1.9 5.91 5.91 0 0 1-3.18.11l-.23-.09a4.34 4.34 0 0 1-2.26-1.51 20 20 0 0 1-2.8-.07l.35.11a.68.68 0 0 1-.18 1.34h-.18a16.4 16.4 0 0 1-2.27-.79 9.66 9.66 0 0 0 .72 1.44 7.71 7.71 0 0 0-5.19 1c-2.34 1.37-3.63 3.51-2.89 4.77a1.49 1.49 0 0 0 .31.35c1 .87 3.18.68 5.27-.55 1.84-1.08 3.53-2.66 3.81-3.9a9.63 9.63 0 0 0 .73.67 9.93 9.93 0 0 0 3.66 1.87c.15 0 .31.05.46.08a11.62 11.62 0 0 0 11.24-4.23c.21-.26.41-.53.6-.8l3.72-4.51 5.64-6.84a2.35 2.35 0 0 0 .43-1.74z"/><path class="cls-42" d="M341.7 195.31a2.33 2.33 0 0 0-.65 0l-4.88 1a2.36 2.36 0 0 0-1.84 2.77l2.93 14.41c0 .33.09.66.16 1a11.65 11.65 0 0 0 8.15 9.1 9.44 9.44 0 0 0 6.26-.49v-5.74a5 5 0 0 1-2.86 1.75 4.83 4.83 0 0 1-2.2-.07 6.78 6.78 0 0 1-4.55-4.72v-.07a13.2 13.2 0 0 1-.28-3.28 5.82 5.82 0 0 1 4.33-5.23 4.83 4.83 0 0 1 2.2.07 6.2 6.2 0 0 1 3.37 2.4v-6.06a10.15 10.15 0 0 0-2.18-.89 9.5 9.5 0 0 0-4.33-.13l-.66.16-.84-4.12a2.28 2.28 0 0 0-2.12-1.87z"/><path class="cls-3" d="M154.14 112.5l-.09-.14a2 2 0 0 0-.92-.83 1.71 1.71 0 0 0-.62-.12h-.18l-.16-.1c-9.49-5.79-21.72-14.27-26-21.83a9.07 9.07 0 0 0-.74-1.49 4.73 4.73 0 0 0-2.19-1.94c-2.32-.94-5.55.37-8.87 3.61a43.32 43.32 0 0 0-9.16 14.46c-4.8 11.81-4.66 23.5.31 25.52 1.44.59 3.25.31 5.23-.79l.17-.07c8.41-2 22.4.32 32.66 2.64l.24.05.15.19a1.86 1.86 0 0 0 .76.6 2.22 2.22 0 0 0 1.63-.07l.2-.07h.2l.77.19c2.19-1.34 4.58-4.47 6.22-8.5 1.72-4.23 2.17-8.32 1.38-10.78l-.82-.49zm-28.86-8v.08q-.22 1-.5 2l-.09.32q-.26.9-.57 1.82l-.13.41c-.25.71-.51 1.42-.8 2.14s-.59 1.38-.9 2l-.18.38c-.31.64-.63 1.27-1 1.88-3.52 6.47-8.08 10.62-11.77 10.62a4.46 4.46 0 0 1-1.69-.32c-2.29-.93-3.61-3.73-3.72-7.87a34.73 34.73 0 0 1 2.81-13.43A34.73 34.73 0 0 1 114.11 93c3-2.89 5.86-4 8.16-3 3.54 1.4 4.58 7.26 3.02 14.47z"/><path class="cls-43" d="M147.51 132.35l-.77-.19h-.2l-.2.07a2.22 2.22 0 0 1-1.63.07 1.86 1.86 0 0 1-.76-.6l-.15-.19-.24-.05c-10.25-2.32-24.24-4.67-32.66-2.64l-.17.07c-2 1.11-3.78 1.38-5.23.79-5-2-5.11-13.71-.31-25.52a43.32 43.32 0 0 1 9.16-14.46c3.32-3.23 6.55-4.55 8.87-3.61a4.73 4.73 0 0 1 2.2 1.91 9.07 9.07 0 0 1 .74 1.49c4.3 7.56 16.52 16 26 21.83l.16.1h.18a1.71 1.71 0 0 1 .62.12 2 2 0 0 1 .92.83l.09.14.14.08.82.49a3.22 3.22 0 0 0-1.72-2.17l2.34 1-.61-.36a3.27 3.27 0 0 0-1.47-1.22 3 3 0 0 0-.92-.21c-7.69-4.7-21-13.61-25.35-21.16a9.59 9.59 0 0 0-.81-1.63 6.06 6.06 0 0 0-2.83-2.47c-2.89-1.17-6.55.21-10.33 3.89a44.7 44.7 0 0 0-9.47 14.92c-5.26 12.93-4.79 24.92 1.06 27.3 1.82.74 4 .46 6.32-.82 8.11-1.91 21.67.35 31.72 2.62a3.14 3.14 0 0 0 1.16.83 3.31 3.31 0 0 0 2.06.1l-1.8-.73a3.43 3.43 0 0 0 3.07-.62z"/><path class="cls-3" d="M163.14 136.36l3 1.24c1.38.56 4.15-1.88 5.93-6.27s1.5-8.07.13-8.63l-3-1.24a24.12 24.12 0 0 1-6.06 14.9z"/><path class="cls-44" d="M122.27 90c-2.29-.93-5.19.15-8.16 3a34.73 34.73 0 0 0-7.36 11.59 34.73 34.73 0 0 0-2.81 13.41c.11 4.14 1.43 6.94 3.72 7.87a4.46 4.46 0 0 0 1.69.32c3.69 0 8.26-4.15 11.77-10.62.33-.6.65-1.23 1-1.88l.18-.38c.31-.66.61-1.34.9-2s.56-1.43.8-2.14l.13-.41q.31-.92.57-1.82l.09-.32q.28-1 .5-2v-.08c1.56-7.28.52-13.14-3.02-14.54zm2 12.5a40.2 40.2 0 0 1-6.46 15.88h-.12c-1.08-.44-1.37-4.08.64-9a18.61 18.61 0 0 1 3.28-5.48 3.85 3.85 0 0 1 2.27-1.47.73.73 0 0 1 .28.05z"/><path class="cls-6" d="M121.62 103.82a18.61 18.61 0 0 0-3.28 5.48c-2 4.93-1.72 8.57-.64 9h.12a40.2 40.2 0 0 0 6.46-15.88l-.11-.06a.73.73 0 0 0-.28-.05 3.85 3.85 0 0 0-2.27 1.51z"/><path class="cls-45" d="M152 141.55c0-.16.07-.31.1-.47a.68.68 0 0 1 .79-.56.67.67 0 0 1 .39.23l.85-.91a15.17 15.17 0 0 1 1.37-1.31 3.86 3.86 0 0 1 .42-.3l.2-.12a.42.42 0 0 1 .15-.07 1.48 1.48 0 0 1 .41 0h.71a4.82 4.82 0 0 0 .62.15l.23.1c1.1.45 2.46 0 3.85-1.09a11.39 11.39 0 0 0 1.12-1 24.12 24.12 0 0 0 6.06-14.9 11.38 11.38 0 0 0-.09-1.51c-.23-1.76-.89-3-2-3.47l-2.18-.72-2.67-1.09-2.27-.92-.92-.37-3.36-1.37-2.34-1a3.22 3.22 0 0 1 1.72 2.17c.78 2.46.34 6.55-1.38 10.78-1.64 4-4 7.17-6.22 8.5a3.43 3.43 0 0 1-3.06.54l1.8.73h.08l-.49.56-.3.36c2.9 1.37 5.76 4.15 6.41 7.06z"/><path class="cls-46" d="M143 155.71l.08-.07.22-.22.1-.11a8.66 8.66 0 0 0 .64-.76 12.93 12.93 0 0 0 .93-1.44 16.6 16.6 0 0 0 .89-1.87c.27-.67.5-1.38.78-2l.06-.14c.12-.28.23-.57.36-.84l.11-.22h-.53a17.75 17.75 0 0 1-5-.9 11.82 11.82 0 0 1-3.36-1.58c-.08.24-.17.49-.23.72-.13.45-.26.88-.36 1.28s-.2.78-.28 1.14-.15.81-.2 1.18-.06.5-.09.73c0 .56-.06 1-.05 1.46s0 .73.05 1v.35l.06.35a3.52 3.52 0 0 0 4 2.85c.11 0 .2-.07.31-.1a3.48 3.48 0 0 0 .75-.28 3.55 3.55 0 0 0 .76-.53z"/><path class="cls-6" d="M314 91.84a13.52 13.52 0 0 0-5.46 3.63.68.68 0 0 1 .11.77 5.87 5.87 0 0 0-.24 4.55c.67 1.45 2.21 2.48 4.59 3.06a.68.68 0 0 1-.16 1.34h-.16l-.27-.08-5.9 5a1.24 1.24 0 0 1-.38.21 3.45 3.45 0 0 0 4.14 1.68l5.33-1.75a3.46 3.46 0 0 0 2.21-4.36l-.33-1a11.12 11.12 0 0 0 1.34-.27 8.63 8.63 0 0 0 2.5-1.05c4.47-2.89 4-10.38-2.4-12.51a7.38 7.38 0 0 0-3.75.4l-.61.2zM302.32 197.23s-3.17 3.55-2.28 6.58c.51 1.72 2.26 3 5.18 3.86a20 20 0 0 0 2.8.07h.07a16.46 16.46 0 0 0 3.09-.42 8.47 8.47 0 0 0 3.26-1.48 4.34 4.34 0 0 0 1.44-1.87c1.18-3.15-.52-5.58-3.13-7a12.67 12.67 0 0 0-6.67-1.53 8.08 8.08 0 0 0-2.42.48 5.14 5.14 0 0 0-1.2.7.67.67 0 0 1-.14.61zM142.07 145.8c3.55 1.07 5.83 1.12 7.39.16 1.23-.76 2-2.21 2.5-4.4-.6-2.91-3.47-5.69-6.43-7a8.44 8.44 0 0 0-2.83-.74 7.83 7.83 0 0 0-6.39 3.69.68.68 0 0 1 .24.72c-.07.24-1.41 5.47 5.52 7.57zM107.21 200.79a5.59 5.59 0 0 0 1.76 4.09c1.46 1.21 3.75 1.49 6.8.82a9.58 9.58 0 0 0 6-4 4.87 4.87 0 0 0 .34-4.1.68.68 0 0 1 .19-.72 5.38 5.38 0 0 0-1.57-1.48 7.46 7.46 0 0 0-1.44-.7l-.46-4.54a12.7 12.7 0 0 0 .17-23l1 9.45a1.9 1.9 0 0 1-1.7 2.08l-4.44.45-2.44.25h-.19a1.9 1.9 0 0 1-1.89-1.71l-1-9.44a12.69 12.69 0 0 0 4.58 22.46l.39 3.55a10.23 10.23 0 0 0-3.56 1.25 6.77 6.77 0 0 0-.61.4 7.64 7.64 0 0 0-2.4 4.26.67.67 0 0 1 .47.63z"/><path class="cls-47" d="M307.4 95.62a8.26 8.26 0 0 0-.71 2.46 6.3 6.3 0 0 0 .16 2.47 5.29 5.29 0 0 0 .27.8 5.46 5.46 0 0 0 1 1.44 6.77 6.77 0 0 0 1.6 1.26 10.91 10.91 0 0 0 2.66 1.05l.27.08h.16a.68.68 0 0 0 .16-1.34c-2.38-.58-3.92-1.61-4.59-3.06a5.87 5.87 0 0 1 .24-4.55.68.68 0 0 0-.11-.77.67.67 0 0 0-.18-.15.68.68 0 0 0-.93.31z"/></g></svg>