<svg width="295" height="199" viewBox="0 0 295 199" xmlns="http://www.w3.org/2000/svg"><title>addons</title><defs><linearGradient x1="-3335.765%" y1="-2236.632%" x2="5558.543%" y2="3780.103%" id="a"><stop stop-color="#CCFBFF" offset="0%"/><stop stop-color="#C9E4FF" offset="100%"/></linearGradient><linearGradient x1="-251.09%" y1="-799.657%" x2="413.095%" y2="1054.368%" id="b"><stop stop-color="#CCFBFF" offset="0%"/><stop stop-color="#C9E4FF" offset="100%"/></linearGradient><linearGradient x1="-573.525%" y1="-521.071%" x2="763.527%" y2="703.894%" id="c"><stop stop-color="#CCFBFF" offset="0%"/><stop stop-color="#C9E4FF" offset="100%"/></linearGradient><linearGradient x1="-2190.515%" y1="-1349.885%" x2="1528.924%" y2="974.764%" id="d"><stop stop-color="#CCFBFF" offset="0%"/><stop stop-color="#C9E4FF" offset="100%"/></linearGradient><linearGradient x1="-1533.42%" y1="-541.311%" x2="2119.6%" y2="822.483%" id="e"><stop stop-color="#CCFBFF" offset="0%"/><stop stop-color="#C9E4FF" offset="100%"/></linearGradient><linearGradient x1="-16561.05%" y1="-16565.77%" x2="3895.86%" y2="3891.14%" id="f"><stop stop-color="#CCFBFF" offset="0%"/><stop stop-color="#C9E4FF" offset="100%"/></linearGradient><linearGradient x1="-204.8%" y1="-96.752%" x2="205.158%" y2="122.743%" id="g"><stop stop-color="#CCFBFF" offset="0%"/><stop stop-color="#C9E4FF" offset="100%"/></linearGradient><linearGradient x1="-112.715%" y1="-148.497%" x2="122.964%" y2="186.313%" id="h"><stop stop-color="#CCFBFF" offset="0%"/><stop stop-color="#C9E4FF" offset="100%"/></linearGradient><linearGradient x1="-817.408%" y1="-862.654%" x2="1335.951%" y2="1471.194%" id="i"><stop stop-color="#CCFBFF" offset="0%"/><stop stop-color="#C9E4FF" offset="100%"/></linearGradient><linearGradient x1="-923.374%" y1="-755.994%" x2="781.368%" y2="664.624%" id="j"><stop stop-color="#CCFBFF" offset="0%"/><stop stop-color="#C9E4FF" offset="100%"/></linearGradient><linearGradient x1="-57.385%" y1="-74.839%" x2="205.558%" y2="247.317%" id="k"><stop stop-color="#CCFBFF" offset="0%"/><stop stop-color="#C9E4FF" offset="100%"/></linearGradient><linearGradient x1="-136.437%" y1="-251.542%" x2="257.723%" y2="370.248%" id="l"><stop stop-color="#CCFBFF" offset="0%"/><stop stop-color="#C9E4FF" offset="100%"/></linearGradient><linearGradient x1="-3134.668%" y1="-1436.328%" x2="4644.893%" y2="2194.132%" id="m"><stop stop-color="#00C8D7" offset="0%"/><stop stop-color="#0A84FF" offset="100%"/></linearGradient><linearGradient x1="-3763.993%" y1="-1729.31%" x2="4015.564%" y2="1901.152%" id="n"><stop stop-color="#00C8D7" offset="0%"/><stop stop-color="#0A84FF" offset="100%"/></linearGradient><linearGradient x1="-967.977%" y1="-2316.493%" x2="1244.002%" y2="2869.881%" id="o"><stop stop-color="#00C8D7" offset="0%"/><stop stop-color="#0A84FF" offset="100%"/></linearGradient><linearGradient x1="-828.528%" y1="-1974.736%" x2="1398.399%" y2="3211.636%" id="p"><stop stop-color="#00C8D7" offset="0%"/><stop stop-color="#0A84FF" offset="100%"/></linearGradient><linearGradient x1="-341.455%" y1="-545.157%" x2="204.062%" y2="280.185%" id="q"><stop stop-color="#CCFBFF" offset="0%"/><stop stop-color="#C9E4FF" offset="100%"/></linearGradient><linearGradient x1="-6989.704%" y1="-10987.987%" x2="1723.404%" y2="2626.238%" id="r"><stop stop-color="#00C8D7" offset="0%"/><stop stop-color="#0A84FF" offset="100%"/></linearGradient><linearGradient x1="-346.468%" y1="-491.716%" x2="205.755%" y2="249.195%" id="s"><stop stop-color="#00C8D7" offset="0%"/><stop stop-color="#0A84FF" offset="100%"/></linearGradient><linearGradient x1="-163.142%" y1="-212.577%" x2="367.782%" y2="441.559%" id="t"><stop stop-color="#00C8D7" offset="0%"/><stop stop-color="#0A84FF" offset="100%"/></linearGradient><linearGradient x1="-431.069%" y1="-1508.892%" x2="196.676%" y2="489.527%" id="u"><stop stop-color="#00C8D7" offset="0%"/><stop stop-color="#0A84FF" offset="100%"/></linearGradient><linearGradient x1="-46.826%" y1="-91.711%" x2="115.212%" y2="164.256%" id="v"><stop stop-color="#00C8D7" offset="0%"/><stop stop-color="#0A84FF" offset="100%"/></linearGradient><linearGradient x1="-469.407%" y1="-1536.217%" x2="369.344%" y2="1016.816%" id="w"><stop stop-color="#CCFBFF" offset="0%"/><stop stop-color="#C9E4FF" offset="100%"/></linearGradient><linearGradient x1="-1395.389%" y1="-1859.067%" x2="1629.996%" y2="2107.556%" id="x"><stop stop-color="#00C8D7" offset="0%"/><stop stop-color="#0A84FF" offset="100%"/></linearGradient><linearGradient x1="-2132.529%" y1="-2452.139%" x2="1054.189%" y2="1199.521%" id="y"><stop stop-color="#00C8D7" offset="0%"/><stop stop-color="#0A84FF" offset="100%"/></linearGradient><linearGradient x1="-1425.341%" y1="-2206.746%" x2="1446.3%" y2="2189.629%" id="z"><stop stop-color="#00C8D7" offset="0%"/><stop stop-color="#0A84FF" offset="100%"/></linearGradient><linearGradient x1="-1606.851%" y1="-1906.042%" x2="1515.309%" y2="1780.906%" id="A"><stop stop-color="#00C8D7" offset="0%"/><stop stop-color="#0A84FF" offset="100%"/></linearGradient><linearGradient x1="-2952.119%" y1="-1785.48%" x2="1577.955%" y2="986.112%" id="B"><stop stop-color="#00C8D7" offset="0%"/><stop stop-color="#0A84FF" offset="100%"/></linearGradient><linearGradient x1="-1774.73%" y1="-1132.379%" x2="2586.424%" y2="1691.85%" id="C"><stop stop-color="#00C8D7" offset="0%"/><stop stop-color="#0A84FF" offset="100%"/></linearGradient><linearGradient x1="-2922.831%" y1="-2221.905%" x2="1969.085%" y2="1525.629%" id="D"><stop stop-color="#00C8D7" offset="0%"/><stop stop-color="#0A84FF" offset="100%"/></linearGradient><linearGradient x1="-2790%" y1="-1744.265%" x2="1698.406%" y2="1091.887%" id="E"><stop stop-color="#00C8D7" offset="0%"/><stop stop-color="#0A84FF" offset="100%"/></linearGradient><linearGradient x1="-2160.459%" y1="-2153.729%" x2="1208.199%" y2="1206.393%" id="F"><stop stop-color="#00C8D7" offset="0%"/><stop stop-color="#0A84FF" offset="100%"/></linearGradient><linearGradient x1="-2197.557%" y1="-2601.613%" x2="936.462%" y2="1097.31%" id="G"><stop stop-color="#00C8D7" offset="0%"/><stop stop-color="#0A84FF" offset="100%"/></linearGradient><linearGradient x1="-2154.892%" y1="-3309.827%" x2="719.541%" y2="1068.777%" id="H"><stop stop-color="#00C8D7" offset="0%"/><stop stop-color="#0A84FF" offset="100%"/></linearGradient><linearGradient x1="-548.887%" y1="-964.209%" x2="654.188%" y2="1081.481%" id="I"><stop stop-color="#CCFBFF" offset="0%"/><stop stop-color="#C9E4FF" offset="100%"/></linearGradient><linearGradient x1="-318.202%" y1="-291.169%" x2="636.625%" y2="583.64%" id="J"><stop stop-color="#00C8D7" offset="0%"/><stop stop-color="#0A84FF" offset="100%"/></linearGradient><linearGradient x1="-455.827%" y1="-310.105%" x2="637.3%" y2="482.798%" id="K"><stop stop-color="#CCFBFF" offset="0%"/><stop stop-color="#C9E4FF" offset="100%"/></linearGradient><linearGradient x1="-5771.947%" y1="-7842.936%" x2="4994.847%" y2="6769.143%" id="L"><stop stop-color="#CCFBFF" offset="0%"/><stop stop-color="#C9E4FF" offset="100%"/></linearGradient><linearGradient x1="-4086.052%" y1="-5400.884%" x2="4096.712%" y2="5365.911%" id="M"><stop stop-color="#CCFBFF" offset="0%"/><stop stop-color="#C9E4FF" offset="100%"/></linearGradient><linearGradient x1="-1126.574%" y1="-1260.202%" x2="1146.414%" y2="1265.342%" id="N"><stop stop-color="#CCFBFF" offset="0%"/><stop stop-color="#C9E4FF" offset="100%"/></linearGradient><linearGradient x1="-1150.53%" y1="-1333.596%" x2="1122.46%" y2="1289.085%" id="O"><stop stop-color="#CCFBFF" offset="0%"/><stop stop-color="#C9E4FF" offset="100%"/></linearGradient><linearGradient x1="-3947.183%" y1="-5480.943%" x2="3106.924%" y2="4260.443%" id="P"><stop stop-color="#CCFBFF" offset="0%"/><stop stop-color="#C9E4FF" offset="100%"/></linearGradient><linearGradient x1="-3712.853%" y1="-2757.137%" x2="2679.931%" y2="2000.284%" id="Q"><stop stop-color="#CCFBFF" offset="0%"/><stop stop-color="#C9E4FF" offset="100%"/></linearGradient><linearGradient x1="-1265.89%" y1="-1395.587%" x2="1007.1%" y2="1099.159%" id="R"><stop stop-color="#CCFBFF" offset="0%"/><stop stop-color="#C9E4FF" offset="100%"/></linearGradient><linearGradient x1="-2822.135%" y1="-2883.724%" x2="1935.286%" y2="1986.969%" id="S"><stop stop-color="#CCFBFF" offset="0%"/><stop stop-color="#C9E4FF" offset="100%"/></linearGradient><linearGradient x1="-1548.018%" y1="-2218.877%" x2="1374.022%" y2="1940.124%" id="T"><stop stop-color="#00C8D7" offset="0%"/><stop stop-color="#0A84FF" offset="100%"/></linearGradient><linearGradient x1="-1369.976%" y1="-1928.433%" x2="1334.398%" y2="1827.217%" id="U"><stop stop-color="#00C8D7" offset="0%"/><stop stop-color="#0A84FF" offset="100%"/></linearGradient><linearGradient x1="-2000.906%" y1="-2495.611%" x2="1322.352%" y2="1633.822%" id="V"><stop stop-color="#00C8D7" offset="0%"/><stop stop-color="#0A84FF" offset="100%"/></linearGradient><linearGradient x1="-1470.604%" y1="-2072.202%" x2="1136.662%" y2="1558.26%" id="W"><stop stop-color="#00C8D7" offset="0%"/><stop stop-color="#0A84FF" offset="100%"/></linearGradient><linearGradient x1="-1194.36%" y1="-1336.72%" x2="901.341%" y2="996.106%" id="X"><stop stop-color="#00C8D7" offset="0%"/><stop stop-color="#0A84FF" offset="100%"/></linearGradient><linearGradient x1="-3044.038%" y1="-2935.975%" x2="2075.73%" y2="2014.652%" id="Y"><stop stop-color="#00C8D7" offset="0%"/><stop stop-color="#0A84FF" offset="100%"/></linearGradient><linearGradient x1="-1070.957%" y1="-1207.499%" x2="1021.673%" y2="1139.289%" id="Z"><stop stop-color="#00C8D7" offset="0%"/><stop stop-color="#0A84FF" offset="100%"/></linearGradient><linearGradient x1="-668.331%" y1="-735.951%" x2="792.876%" y2="862.245%" id="aa"><stop stop-color="#CCFBFF" offset="0%"/><stop stop-color="#C9E4FF" offset="100%"/></linearGradient><linearGradient x1="-757.712%" y1="-833.503%" x2="703.496%" y2="764.693%" id="ab"><stop stop-color="#CCFBFF" offset="0%"/><stop stop-color="#C9E4FF" offset="100%"/></linearGradient><linearGradient x1="-27.011%" y1="-65.863%" x2="141.75%" y2="151.803%" id="ac"><stop stop-color="#00C8D7" offset="0%"/><stop stop-color="#0A84FF" offset="100%"/></linearGradient><linearGradient x1="-1321.337%" y1="-997.486%" x2="1168.46%" y2="905.137%" id="ad"><stop stop-color="#00C8D7" offset="0%"/><stop stop-color="#0A84FF" offset="100%"/></linearGradient><linearGradient x1="-1178.308%" y1="-888.422%" x2="1311.49%" y2="1014.201%" id="ae"><stop stop-color="#00C8D7" offset="0%"/><stop stop-color="#0A84FF" offset="100%"/></linearGradient><linearGradient x1="-546.976%" y1="-767.016%" x2="189.173%" y2="248.435%" id="af"><stop stop-color="#00C8D7" offset="0%"/><stop stop-color="#0A84FF" offset="100%"/></linearGradient><linearGradient x1="-93.493%" y1="-91.832%" x2="384.41%" y2="447.193%" id="ag"><stop stop-color="#00C8D7" offset="0%"/><stop stop-color="#0A84FF" offset="100%"/></linearGradient><linearGradient x1="-258.202%" y1="-134.734%" x2="952.458%" y2="591.721%" id="ah"><stop stop-color="#00C8D7" offset="0%"/><stop stop-color="#0A84FF" offset="100%"/></linearGradient><linearGradient x1="-764.248%" y1="-327.902%" x2="2650.413%" y2="1243.88%" id="ai"><stop stop-color="#CCFBFF" offset="0%"/><stop stop-color="#C9E4FF" offset="100%"/></linearGradient><linearGradient x1="-341.63%" y1="-267.69%" x2="726.152%" y2="596.706%" id="aj"><stop stop-color="#00C8D7" offset="0%"/><stop stop-color="#0A84FF" offset="100%"/></linearGradient><linearGradient x1="-517.979%" y1="-536.225%" x2="166.434%" y2="167.425%" id="ak"><stop stop-color="#00C8D7" offset="0%"/><stop stop-color="#0A84FF" offset="100%"/></linearGradient><linearGradient x1="-792.149%" y1="-462.294%" x2="98.549%" y2="87.052%" id="al"><stop stop-color="#00C8D7" offset="0%"/><stop stop-color="#0A84FF" offset="100%"/></linearGradient><linearGradient x1="-964.554%" y1="-879.35%" x2="1659.876%" y2="1524.226%" id="am"><stop stop-color="#00C8D7" offset="0%"/><stop stop-color="#0A84FF" offset="100%"/></linearGradient><linearGradient x1="-797.538%" y1="-665.814%" x2="581.403%" y2="509.871%" id="an"><stop stop-color="#CCFBFF" offset="0%"/><stop stop-color="#C9E4FF" offset="100%"/></linearGradient><linearGradient x1="-1165.123%" y1="-1561.869%" x2="356.021%" y2="461.04%" id="ao"><stop stop-color="#CCFBFF" offset="0%"/><stop stop-color="#C9E4FF" offset="100%"/></linearGradient><linearGradient x1="-505.775%" y1="-623.411%" x2="1092.421%" y2="1325.92%" id="ap"><stop stop-color="#CCFBFF" offset="0%"/><stop stop-color="#C9E4FF" offset="100%"/></linearGradient><linearGradient x1="-365.189%" y1="-194.484%" x2="727.939%" y2="447.534%" id="aq"><stop stop-color="#CCFBFF" offset="0%"/><stop stop-color="#C9E4FF" offset="100%"/></linearGradient><linearGradient x1="-2359.875%" y1="-1563.43%" x2="1606.616%" y2="1099.129%" id="ar"><stop stop-color="#00C8D7" offset="0%"/><stop stop-color="#0A84FF" offset="100%"/></linearGradient></defs><g fill="none" fill-rule="evenodd"><path d="M-31-68h352v303H-31z"/><g fill-rule="nonzero"><g fill="#D7D7DB"><path d="M238.3 15.6c-5.5 0-8.3-1.5-11-3-2.6-1.4-5-2.7-9.9-2.7s-7.4 1.3-9.9 2.7c-2.7 1.5-5.5 3-11 3s-8.3-1.5-11-3c-2.6-1.4-5-2.7-9.9-2.7s-7.4 1.3-9.9 2.7c-2.7 1.5-5.5 3-11 3-.6 0-1.1-.5-1.1-1.1 0-.6.5-1.1 1.1-1.1 4.9 0 7.4-1.3 9.9-2.7 2.7-1.5 5.5-3 11-3s8.3 1.5 11 3c2.6 1.4 5 2.7 9.9 2.7s7.4-1.3 9.9-2.7c2.7-1.5 5.5-3 11-3s8.3 1.5 11 3c2.6 1.4 5 2.7 9.9 2.7s7.4-1.3 9.9-2.7c2.7-1.5 5.5-3 11-3 .6 0 1.1.5 1.1 1.1 0 .6-.5 1.1-1.1 1.1-4.9 0-7.4 1.3-9.9 2.7-2.7 1.5-5.5 3-11 3zM196.2 7.3c-.3 0-.6-.2-.6-.6 0-.3.2-.6.6-.6 1.2 0 2.2-.1 3.2-.3.3-.1.6.2.6.5.1.3-.2.6-.5.6-1 .3-2.1.4-3.3.4zm7.6-1.6c-.2 0-.4-.1-.5-.3-.1-.3 0-.6.3-.7.3-.2.7-.3 1-.5.3-.1.6 0 .7.2.1.3 0 .6-.2.7-.3.2-.7.3-1 .5-.2.1-.2.1-.3.1zm-16.3-.1c-.1 0-.2 0-.2-.1-.8-.4-1.5-.7-2.2-1.1-2.6-1.4-5.1-2.8-10.2-2.8-.3 0-.6-.2-.6-.6 0-.3.2-.6.6-.6 5.4 0 8.1 1.5 10.7 2.9.7.4 1.4.7 2.1 1.1.3.1.4.5.3.7-.1.4-.3.5-.5.5zm26.6-3.8c-.3 0-.5-.2-.6-.5 0-.3.2-.6.5-.6.8-.1 1.7-.1 2.7-.1.3 0 .6.2.6.6 0 .3-.2.6-.6.6-.9-.2-1.7-.1-2.6 0 .1 0 0 0 0 0zM238.5 23.1c-.3 0-.6-.2-.6-.6 0-.3.2-.6.6-.6 1.2 0 2.2-.1 3.2-.3.3-.1.6.2.6.5.1.3-.2.6-.5.6-1 .3-2.1.4-3.3.4zm7.6-1.5c-.2 0-.4-.1-.5-.3-.1-.3 0-.6.3-.7.3-.2.7-.3 1-.5.3-.1.6 0 .7.2.1.3 0 .6-.2.7-.3.2-.7.3-1 .5-.2 0-.3.1-.3.1zm-16.3-.2c-.1 0-.2 0-.2-.1-.8-.4-1.5-.7-2.2-1.1-2.6-1.4-5.1-2.8-10.2-2.8-.3 0-.6-.2-.6-.6 0-.3.2-.6.6-.6 5.4 0 8.1 1.5 10.7 2.9.7.4 1.4.7 2.1 1.1.3.1.4.5.3.7-.1.4-.3.5-.5.5zm26.6-3.8c-.3 0-.5-.2-.6-.5 0-.3.2-.6.5-.6.8-.1 1.7-.1 2.6-.1.3 0 .6.2.6.6 0 .3-.2.6-.6.6-.8-.1-1.6-.1-2.5 0z"/></g><path d="M6.2 133.5c-2.8 0-5.1-2.2-5.1-4.8V10.2c0-3 2.4-5.4 5.4-5.4h127.2c3 0 5.4 2.4 5.4 5.4v118.5c0 2.6-2.3 4.8-5 4.8H6.2z" fill="#FFF"/><path d="M133.7 6c2.3 0 4.2 1.9 4.2 4.2v118.5c0 2-1.8 3.7-3.9 3.7H6.2c-2.2 0-3.9-1.7-3.9-3.7V10.2C2.3 7.9 4.2 6 6.5 6h127.2zm0-2.2H6.6C3 3.8.1 6.7.1 10.3v118.4c0 3.3 2.8 5.9 6.2 5.9H134c3.4 0 6.2-2.7 6.2-5.9V10.2c0-3.5-2.9-6.4-6.5-6.4z" fill="#D7D7DB"/><path d="M132.6 27.1v98.2c0 1-.1 1.2-.1 1.2s-.2.1-1.2.1H9.1c-1 0-1.2-.1-1.2-.1s-.1-.2-.1-1.2V27.1h124.8zm1.1-1.1H6.6v99.3c0 2 .4 2.5 2.5 2.5h122.2c2 0 2.5-.4 2.5-2.5V26h-.1z" fill="#D7D7DB"/><g fill="#D7D7DB"><circle cx="3.4" cy="2.9" r="2.9" transform="translate(10 13)"/><circle cx="3.7" cy="2.9" r="2.9" transform="translate(19 13)"/><path d="M102.1 19.2H38.2c-1.7 0-3.1-1.4-3.1-3.1v-.3c0-1.7 1.4-3.1 3.1-3.1h63.9c1.7 0 3.1 1.4 3.1 3.1v.3c0 1.7-1.4 3.1-3.1 3.1z"/><g><circle cx="3.6" cy="2.9" r="2.9" transform="translate(114 13)"/><circle cx="2.9" cy="2.9" r="2.9" transform="translate(124 13)"/></g></g><ellipse fill="#EDEDF0" cx="177.8" cy="191.1" rx="78.4" ry="7.4"/><g fill="#D7D7DB"><path d="M241.5 164.9c-5.5 0-8.3-1.5-11-3-2.6-1.4-5-2.7-9.9-2.7s-7.4 1.3-9.9 2.7c-2.7 1.5-5.5 3-11 3s-8.3-1.5-11-3c-2.6-1.4-5-2.7-9.9-2.7s-7.4 1.3-9.9 2.7c-2.7 1.5-5.5 3-11 3s-8.3-1.5-11-3c-2.6-1.4-5-2.7-9.9-2.7s-7.4 1.3-9.9 2.7c-2.7 1.5-5.5 3-11 3s-8.3-1.5-11-3c-2.6-1.4-5-2.7-9.9-2.7-.6 0-1.1-.5-1.1-1.1 0-.6.5-1.1 1.1-1.1 5.5 0 8.3 1.5 11 3 2.6 1.4 5 2.7 9.9 2.7s7.4-1.3 9.9-2.7c2.7-1.5 5.5-3 11-3s8.3 1.5 11 3c2.6 1.4 5 2.7 9.9 2.7s7.4-1.3 9.9-2.7c2.7-1.5 5.5-3 11-3s8.3 1.5 11 3c2.6 1.4 5 2.7 9.9 2.7s7.4-1.3 9.9-2.7c2.7-1.5 5.5-3 11-3s8.3 1.5 11 3c2.6 1.4 5 2.7 9.9 2.7.6 0 1.1.5 1.1 1.1 0 .6-.5 1.1-1.1 1.1zM200.5 155.8c-.8 0-1.5 0-2.3-.1-.3 0-.5-.3-.5-.6s.3-.5.6-.5c.7.1 1.4.1 2.2.1h1.1c.3 0 .6.2.6.5s-.2.6-.5.6h-1.2zm-41.4 0c-.3 0-.6-.2-.6-.6 0-.3.2-.6.6-.6 1.2 0 2.2-.1 3.2-.3.3-.1.6.2.6.5.1.3-.2.6-.5.6-1 .3-2.1.4-3.3.4zm46.9-.7c-.2 0-.5-.2-.5-.4-.1-.3.1-.6.4-.7.4-.1.7-.2 1-.3.3-.1.6.1.7.3.1.3-.1.6-.3.7-.4.1-.7.2-1.1.3-.1.1-.2.1-.2.1zm-39.3-.9c-.2 0-.4-.1-.5-.3-.1-.3 0-.6.3-.7.3-.2.7-.3 1-.5.3-.1.6 0 .7.2.1.3 0 .6-.2.7-.3.2-.7.3-1 .5-.2.1-.3.1-.3.1zm-16.3-.1c-.1 0-.2 0-.2-.1-.8-.4-1.5-.7-2.2-1.1-2.6-1.4-5.1-2.8-10.2-2.8-.3 0-.6-.2-.6-.6 0-.3.2-.6.6-.6 5.4 0 8.1 1.5 10.7 2.9.7.4 1.4.7 2.1 1.1.3.1.4.5.3.7-.1.3-.3.5-.5.5zm39.5-1.2c-.1 0-.2 0-.3-.1-2.4-1.3-4.9-2.7-10-2.7-.9 0-1.7 0-2.5.1-.3 0-.6-.2-.6-.5s.2-.6.5-.6c.8-.1 1.7-.1 2.7-.1 5.4 0 8.1 1.5 10.5 2.8.3.1.4.5.2.8-.1.1-.3.3-.5.3zm26.3-2.2c-.2 0-.5-.2-.5-.4-.1-.3.1-.6.4-.7 1.6-.4 3.3-.6 5.3-.6.3 0 .6.2.6.6 0 .3-.2.6-.6.6-1.9 0-3.5.2-5 .6-.1-.1-.2-.1-.2-.1z"/></g><g fill="#D7D7DB"><path d="M76.9 101c-.8 0-2.2-.1-3.6-.7-1.8-.8-2.7-2.2-2.7-4.1 0-1.6.9-2.6 1.8-3.5 1-1 1.9-2 1.9-3.8 0-1.5-2.1-3.7-5.8-3.7-3.8 0-5.5 2.2-5.5 3.7 0 1.8.9 2.8 1.9 3.8.9.9 1.9 1.9 1.9 3.5 0 3.5-3.2 4.8-6.2 4.8H47.8c-2.4 0-4.3-2-4.3-4.4V84.9c0-.1-.2-3 1.5-4.8.8-.9 1.9-1.3 3.3-1.3 1.6 0 2.5 1 3.4 1.9.9 1 1.8 2 3.6 2 1.6 0 3.3-1.9 3.3-5.4 0-3.6-1.7-5.2-3.3-5.2-1.8 0-2.7 1-3.6 2-.9 1-1.7 2-3.4 2-1.4 0-2.5-.4-3.3-1.3-1.7-1.8-1.5-4.9-1.5-5v-7.4c0-.9.3-1.8.8-2.6.8-1.1 2.1-1.8 3.5-1.8h9.3s2.7-.5 2.7-2.3c0-.7-.4-1.2-1.1-1.9-1-1-2.2-2.2-2.2-4.9 0-2.3 1.1-6.2 8.2-6.2 7.6 0 8.5 4.3 8.5 6.2 0 2.7-1.3 4-2.4 5-.8.7-1.2 1.2-1.2 1.9 0 1.8 2.8 2.3 2.8 2.3h9.9c2.4 0 4.3 2 4.3 4.4v5.6s.4 3 2.1 3c.7 0 1.1-.4 1.7-1.1.8-1 2-2.4 4.7-2.4 2.4 0 6.5 1 6.5 8.1 0 7.8-4.9 8.4-6.5 8.4-2.8 0-3.9-1.4-4.7-2.5-.6-.8-1-1.2-1.7-1.2-1.8 0-2.1 3-2.2 3v13.5c0 2.4-1.9 4.4-4.3 4.4h-5c0-.3-.1-.3-.3-.3z"/></g></g><path d="M258.9 143.4c-.2.6-.7 1.1-1.2 1.5 0 1-.2 1.9-.6 2.8.9-.3 1.8-.8 2.6-1.6.7-.8 1.1-1.6 1.5-2.3.8-2 .4-4.2-1.1-5.5-.4-.4-1-.6-1.5-.8-.7-.2-1.5-.2-2.3 0 2.2 1.4 3.6 3.4 2.6 5.9zM129.7 89.8l-.2-.1c-.2 0-.3-.1-.5-.1h-.1-.1-.1H128.1c-.1 0-.1 0-.1.1 0 0-.1 0-.2.1-.1 0-.2.1-.3.2-.3.2-.7.6-1.1 1.1l-.7.7c.1.1.2.3.1.5-.2 1.1-.5 1.9-.8 2.7.2.6.4 1.1.6 1.6.4.8.9 1.6 1.5 2.4.6.8 1.3 1.5 2.2 2.2.5.4.9.7 1.3.9h.1c.4.3.9.5 1.5.7 1 .4 2.1.7 3.2.8.3 0 .7.1 1.1.1h2.1c.6-.1 1.1-.3 1.5-.4.6-.2 1-.4 1.3-.6.3-.2.5-.3.8-.5.5-3.3.9-7 1.1-11.2-1.3-.6-2.6-1.3-3.7-2.1-1 1-2 1.6-2.9 1.6-.3 0-.5 0-.8-.1l-3-1.2c-1.2.6-2.3.9-3.2.6z"/><path d="M141.1 57.4c0 .7 0 1.4.1 2.1-.3.3-.7.6-1 .9.3-.3.6-.6 1-.9-.1-.7-.1-1.4-.1-2.1zM180.3 24.8c-2-.4-4-.6-6-.6-.7 0-1.4 0-2.1.1.7 0 1.4-.1 2.1-.1 2 .1 4 .2 6 .6zM122.9 136.4c.6-.6 1.2-1.3 1.8-2-.6.6-1.2 1.3-1.8 2-1 1-2 2-3 2.9 1-.9 2-1.9 3-2.9zM134.2 123.6c.3-.4.7-.7 1.1-1.1l-1.1 1.1c-1.3 1.4-2.6 2.8-3.9 4.3-.6.7-1.2 1.5-1.9 2.2.6-.7 1.2-1.5 1.9-2.2 1.2-1.4 2.5-2.9 3.9-4.3zM129.1 119.1l1.8.9c.6.3 1.3.5 1.9.7-.7-.2-1.3-.5-1.9-.7l-1.8-.9zM241.7 82.7v-.3M244.7 142.3h-.4.4zM145.9 40.2c.6-.9 1.2-1.8 1.8-2.6-.7.8-1.3 1.7-1.8 2.6zM211 186.6h.2-.5.3zM137.4 186.6h.3-.5.2zM177.3 142.7c-.3-.8-.6-1.5-.9-2.2.3.7.6 1.4.9 2.2zM109.4 153.9c1 .2 2.1.3 3.2.3h1.4-1.4c-1.1 0-2.2-.1-3.2-.3zM144.3 43c.5-1 1-1.9 1.5-2.8-.5.9-1 1.9-1.5 2.8z" fill="#FFF" fill-rule="nonzero"/><path d="M142 102c-.3.2-.5.3-.8.5-.3.2-.8.4-1.3.6-.4.1-.9.3-1.5.4h-1-1.1c-.4 0-.8 0-1.1-.1-1.1-.1-2.2-.4-3.2-.8-.6-.2-1-.5-1.5-.7h-.1c-.4-.2-.8-.5-1.3-.9-.8-.7-1.6-1.5-2.2-2.2-.6-.8-1.1-1.6-1.5-2.4-.2-.5-.5-1-.6-1.6-.5.9-1 1.6-1.8 2.1h-.1c.1.2.1.3.2.5.5 1 1 1.9 1.7 2.8.7.9 1.6 1.8 2.6 2.6.6.5 1.1.8 1.6 1.1.5.3 1.1.6 1.8.9 1.2.5 2.5.9 3.8 1 .4 0 .8.1 1.3.1h2.5c.7-.2 1.3-.3 1.8-.5.7-.3 1.2-.5 1.6-.7.6-.3 1.2-.8 1.8-1.2.7-4 1.2-8.6 1.4-13.9-1.6-.6-3.1-1.3-4.4-2.3-.4.6-.8 1.2-1.3 1.6 1.1.8 2.4 1.6 3.7 2.1-.1 4-.4 7.7-1 11z" fill="#F9F9FA" fill-rule="nonzero"/><path d="M140.8 174.9c.5-.5 1-1 1.4-1.5-.4.5-.9 1-1.4 1.5zM198.7 183.3c1.1.6 2.1 1.1 3.1 1.5.5.2 1 .4 1.5.5-.5-.2-1-.3-1.5-.5-1-.4-2-.9-3.1-1.5zM203.8 136.1c.6.1 1.2.2 1.9.4.3.1.6.2.9.2-.3-.1-.6-.2-.9-.2-.7-.2-1.3-.3-1.9-.4zM182.4 161.8c.2.7.5 1.4.7 2.1.5 1.4 1.1 2.8 1.8 4.1-.7-1.3-1.2-2.7-1.8-4.1-.2-.7-.4-1.4-.7-2.1zM180.3 153v.1-.1zM255 146.2c-.1.6-.4 1.1-.7 1.6.1 0 .1.1.2.1.8.2 1.7.2 2.6-.1.4-.9.6-1.8.6-2.8-.7.5-1.6.9-2.7 1.2z" fill="#FFF" fill-rule="nonzero"/><path d="M249.9 67.3c-.6.7-1.1 1.3-1.6 1.9-.5.7-1.1 1.4-1.5 2.2-.5.8-.9 1.6-1.3 2.3-.3.7-.7 1.5-1 2.4-.5 1.6-.7 3.4-.7 5.4V83.2l.1 1.2v.4c0 .4.1.7.1 1 .1 2 .1 4.1 0 6.1-.3 4.7-1.3 9.1-2.9 13.1-1 2.4-2.1 4.6-3.5 6.6-1.2 1.8-2.7 3.4-4.4 4.9-.3.4-.8.8-1.2 1.2-.3.2-.5.4-.8.5-1.8 1.3-3.7 2.5-5.8 3.4-1 .4-1.9.7-2.8 1 2.1 1.6 4.8 4.3 7.8 8.7 4.8 7.1 10.4 8.7 14.7 9 .4-.9.8-1.7 1.2-2.2-4.1-.1-9.3-1.3-13.8-8-1.9-2.8-3.7-5-5.4-6.6 2.5-1.1 4.8-2.6 6.9-4.3 2.2-1.8 4.2-3.9 5.8-6.2 1.5-2.1 2.8-4.5 3.8-7 1.7-4.2 2.7-8.8 3.1-13.8.1-2.1.1-4.2 0-6.3 0-.4 0-.7-.1-1.1v-.4l-.1-1.1V82.4v-.5-.2c0-1.7.2-3.3.6-4.7.2-.6.5-1.3.9-2.2.3-.7.7-1.4 1.1-2 .4-.7.9-1.3 1.4-2 .4-.5.8-1 1.3-1.6-.8-.6-1.5-1.2-1.9-1.9zM138.8 58.5v-1.1c0-19.5 15.9-35.4 35.4-35.4s35.4 15.9 35.4 35.4v1.1c3.8 3.5 5.9 8.3 5.9 13.5 0 7.9-4.9 14.7-12.2 17.3 0 .8.1 1.5.1 2.3 0 0 .1.1.1.2.2.3.3.6.5.9l.3.6v.1c.1.3.3.5.4.8v.1c.1.2.2.3.2.5 0 .1.1.1.1.2l.1.2v.1l.1.2.1.2.3.6c.1.1.1.2.2.4.1.1.2.3.2.4.4.6.7 1.1 1 1.5.4.5.9 1 1.3 1.4.9.8 2 1.4 3.2 1.7h.1c.5.2 1.1.2 1.8.2h.2c.4 0 .8-.1 1.3-.1h.1c1.2-.2 2.2-.7 3.1-1.3.7-.5 1.2-1 1.6-1.5.5-.6 1-1.3 1.4-2.1 1-1.9 1.7-4.1 2-6.4.2-1.5.4-2.7.4-3.8v-.1-.5-1-2.3c0-.4.1-.9.1-1.3.4-4 1.7-8 3.5-11.5 1.6-3 3.6-5.7 6.1-8.2 1.8-1.8 3.8-3.3 6.3-4.9 1.9-1.3 3.6-2.1 5.1-2.9l.2-.1-.3-1-3.2 1.1c-.3.1-.7.2-1.1.2h-.2l-1.5.9c-2.6 1.6-4.7 3.3-6.6 5.2-2.7 2.6-4.9 5.6-6.5 8.7-2 3.7-3.3 8-3.7 12.3 0 .4-.1.9-.1 1.3v.4l-.1.7v2.9c-.1 1-.2 2.2-.4 3.6-.3 2.1-1 4.1-1.8 5.7-.3.6-.7 1.2-1.1 1.7-.3.4-.7.7-1.2 1.1-.7.5-1.4.8-2.2 1-.4.1-.8.1-1 .1h-.1c-.3 0-.9-.1-1.2-.1h-.1c-.8-.2-1.6-.6-2.3-1.2-.4-.3-.7-.7-1-1.1-.2-.3-.5-.7-.8-1.2-.1-.1-.1-.3-.2-.4 0-.1-.1-.1-.1-.2-.1-.2-.2-.5-.3-.7l-.1-.1-.1-.2s0-.1-.1-.1l-.1-.2v-.1c-.1-.2-.2-.3-.3-.5v-.1c-.1-.2-.3-.5-.4-.7 0-.1-.1-.1-.1-.2-.1-.2-.2-.4-.3-.5-.1-.2-.2-.4-.4-.7v-.1c7.3-3.3 12.1-10.5 12.1-18.8 0-5.4-2.1-10.6-5.9-14.4V58c0-20.8-16.9-37.6-37.6-37.6-20.7 0-37.6 16.9-37.6 37.6v.2c-3.2 3.2-5.1 7.3-5.7 11.8l1.9.8c.5-5.1 2.5-9.2 5.8-12.3z" fill="#F9F9FA" fill-rule="nonzero"/><path d="M238.7 153.9h-1.6.4c.5.1.9.1 1.2 0zM223.8 148.2c-.4-.3-.9-.7-1.3-1-.7-.5-1.3-1.1-2-1.6.6.5 1.3 1.1 2 1.6.4.3.9.6 1.3 1z" fill="#FFF" fill-rule="nonzero"/><path d="M251.4 150.6c-.1.1-.2.2-.4.3-.9.7-1.9 1.4-3.2 2.2-1.3.8-3 1.7-5.2 2.3-1.1.3-2.3.6-3.7.7-.4 0-.9.1-1.4.1-.9 0-1.9-.1-2.8-.2-3.2-.5-6-1.9-7.8-3-2.2-1.3-4.1-2.8-5.8-4.1-.8-.6-1.5-1.3-2.3-1.9-.7-.6-1.4-1.1-2.1-1.7-.2-.1-.5-.3-.7-.5-.4-.3-.7-.6-1-.9-1-.8-2-1.5-2.9-2.1-.6-.4-1.2-.7-1.9-1.2-.7-.4-1.3-.7-1.9-.9-1.1-.5-2.1-.9-3.3-1.2-.9-.2-1.9-.4-2.8-.5v7c.1 1.4.1 2.8.1 4.2v1.5c.4 16.7 4.3 19.4 9.8 23.1 6.3 4.2 8.2 5.5 7.7 9-.1 3.1-2.7 5.7-5.8 5.7h-.1c-.5.1-1.5.2-3 .2-.5 0-1.1 0-1.6-.1-1.8-.1-3.6-.4-5.3-.9-1.1-.3-2.2-.6-3.2-1.1-1.3-.5-2.4-1-3.4-1.6-1.2-.7-2.3-1.4-3.4-2.2-1.1-.9-2.2-1.8-3.3-2.8-1-1-2-2.1-3-3.4-1-1.2-1.9-2.5-2.7-3.8-1.6-2.6-3-5.5-4.1-8.4-.5-1.4-1-2.9-1.4-4.4-.2-.6-.3-1.2-.5-1.8v-.2l-.1-.4c-.1-.6-.3-1.2-.4-1.9l-.4-2v-.2V153.2l-.1-.4-.2-.8c-.3-1-.5-2.1-.8-3.2-.5-2-1.1-3.8-1.7-5.2-.4-.9-.6-1.5-.9-2.1-.1-.1-.1-.2-.2-.3 0 .1-.1.2-.1.3-.3.6-.5 1.2-.9 2.1-.6 1.5-1.2 3.2-1.7 5.3-.3 1-.6 2.1-.8 3.2l-.2.8-.1.4v.5l-.4 2c-.1.7-.3 1.3-.4 1.9l-.1.4-.1.5c-.1.6-.3 1.2-.5 1.7-.4 1.5-.9 3-1.4 4.4-1.1 3-2.5 5.8-4.1 8.4-.8 1.3-1.7 2.6-2.7 3.8-1.1 1.3-2 2.4-3 3.4s-2.2 2-3.3 2.8c-1.1.8-2.2 1.5-3.4 2.2-1 .6-2.1 1.1-3.4 1.6-1 .4-2.1.8-3.2 1.1-1.7.5-3.5.8-5.3.9h-1.6c-1.5 0-2.5-.1-3-.2h-.1c-3.2 0-5.8-2.7-5.8-5.9 0-3 2.3-5.6 5.3-5.9l.2-.1c.4-.2 1-.4 1.7-.8.8-.4 1.6-1 2.4-1.6.4-.4.9-.7 1.3-1.1.4-.3.8-.8 1.3-1.3.4-.5.8-1 1.2-1.6.4-.6.7-1.2 1.1-1.8.3-.6.6-1.3.9-2.1.3-.7.5-1.5.8-2.3.2-.7.4-1.6.6-2.6.2-.8.3-1.7.4-2.7.1-.9.2-1.9.3-3 0-.4 0-.8.1-1.2v-.3V151.3v-.1-1.9c0-1.5 0-2.9.1-4.3l.3-3.9c-.9.5-1.8 1.2-3 2-.8.5-1.6 1.1-2.4 1.7-2.4 1.6-5 3.5-7.9 5.2-2.2 1.4-4.3 2.4-6.2 3.3-2.4 1.1-4.7 1.9-7 2.5-1.1.3-2.3.5-3.7.6-1 .1-1.9.1-2.8.1h-.9c-1.8-.1-3.5-.3-5.3-.8.4.8.7 1.6.9 2.4 1.5.3 3 .5 4.6.6h1c.9 0 1.9 0 3-.2h.1c1.5-.2 2.8-.4 4-.7 2.4-.6 4.9-1.4 7.4-2.6 2-.9 4.1-2 6.4-3.4 2.9-1.8 5.6-3.6 8-5.3.5-.4 1-.7 1.5-1.1-.1 1.3-.1 2.5-.1 3.9v5.2c0 .4 0 .8-.1 1.2v.1c-.1 1-.2 2-.3 2.8-.1 1-.3 1.8-.4 2.5-.2.9-.4 1.7-.6 2.4-.2.8-.5 1.5-.7 2.2-.3.7-.6 1.3-.9 1.9l-.9 1.5c-.4.5-.7 1-1 1.4-.4.5-.8.9-1.1 1.2-.4.3-.8.7-1.2 1-.8.6-1.6 1.1-2.1 1.4-.6.3-1.1.6-1.5.7-3.9.6-6.9 4-6.9 8 0 4.4 3.5 8 7.9 8.1.5.1 1.7.2 3.3.2.6 0 1.1 0 1.7-.1 2-.1 3.9-.4 5.7-.9 1.2-.3 2.3-.7 3.4-1.1 1.3-.5 2.5-1.1 3.6-1.7 1.3-.7 2.5-1.5 3.6-2.3 1.2-.9 2.4-1.9 3.5-3 1.1-1 2.1-2.2 3.2-3.6 1-1.3 2-2.6 2.8-4 1.7-2.8 3.2-5.7 4.3-8.8.5-1.5 1-3 1.5-4.6.2-.6.3-1.2.5-1.8l.1-.4v-.1l.1-.4c.1-.6.3-1.3.4-2l.4-2v-.2-.2l.1-.5.2-.8c.2-1 .5-2.1.8-3.1l.6-2.1c.2.7.4 1.3.6 2.1.3 1 .5 2.1.8 3.1l.2.8.1.4v.4l.4 2c.1.7.3 1.3.4 2l.1.4v.1l.1.4c.1.6.3 1.2.5 1.9.4 1.6.9 3.1 1.5 4.6 1.1 3.1 2.6 6 4.3 8.8.9 1.4 1.8 2.8 2.8 4 1.1 1.4 2.2 2.6 3.2 3.6 1.1 1.1 2.3 2.1 3.5 3 1.2.9 2.4 1.6 3.7 2.4 1.1.6 2.3 1.2 3.6 1.7 1.1.4 2.3.8 3.4 1.1 1.8.5 3.8.8 5.7.9.6 0 1.2.1 1.7.1 1.6 0 2.7-.1 3.3-.2 4.2-.1 7.7-3.5 7.9-7.7.6-4.8-2.3-6.8-8.7-11.1-5.1-3.4-8.5-5.7-8.9-21.2v-1.5c0-1.4 0-2.9-.1-4.3v-3.9-.4c1.1.3 2 .6 2.9 1h.1c.5.2 1 .5 1.6.8.7.4 1.3.7 1.8 1.1 1.2.8 2.5 1.7 4 3 .8.6 1.6 1.3 2.4 2 .7.6 1.5 1.3 2.3 1.9 1.8 1.4 3.7 2.9 6.1 4.3 2 1.2 5 2.7 8.6 3.3 1.1.2 2.1.3 3.2.3.5 0 1.1 0 1.6-.1 1.5-.1 2.8-.4 4.1-.8 2.4-.7 4.3-1.7 5.7-2.5 1.4-.9 2.5-1.7 3.4-2.4l.1-.1c.5-.4.9-.7 1.2-1-.1 0-.3 0-.4-.1-.2-.2-1-.5-1.6-1z" fill="#F9F9FA" fill-rule="nonzero"/><path d="M258.3 51.2c-.2-.3-.5-.5-.8-.7l.3.9c.1-.1.3-.1.5-.2z" fill="#FFF" fill-rule="nonzero"/><path d="M100.3 137.6c.1-.1.1-.1.2-.1.3-.1.6.1.7.4 0 .1.1.3.1.4.7.2 1.4.4 2.3.7 2.3.8 5.5 1.8 8.4 1.8 1 0 1.9-.1 2.6-.4 1-.6 2.1-1.4 3.2-2.3 1.1-.9 2.2-2 3.5-3.4 1.8-1.9 3.5-3.9 5.4-6.1.6-.8 1.3-1.5 1.9-2.3 1.3-1.5 2.4-2.7 3.4-3.8-.7-.2-1.3-.5-1.9-.7-2.7-1.1-5.1-2.6-7.3-4.4-1.1-.9-2.1-1.8-2.9-2.7-.8-.8-1.6-1.8-2.4-2.9-1.4-1.9-2.4-3.9-3.2-5.9-.3-.7-.5-1.4-.7-2-.5-.4-.9-1-1-1.7v-.3-.1-.2-.8-1.2c0-.2 0-.4.1-.6-.1-.9-.2-1.8-.2-2.7v-.8V94.7v-.2c-1-1.1-1.4-2.3-1.6-3.3-.1.4-.2.8-.2 1.2l-.1.8c0 .4-.1.9-.1 1.3v1.7c0 1.6.2 3.1.4 4.6.3 2 .9 3.9 1.6 5.8.9 2.2 2 4.3 3.5 6.4.9 1.2 1.7 2.2 2.6 3.2.9 1 2 2 3.1 2.9 2.1 1.7 4.3 3.1 6.8 4.2-.4.4-.8.9-1.2 1.4-.7.8-1.3 1.5-2 2.3-1.8 2.1-3.5 4.2-5.3 6-1.2 1.3-2.3 2.3-3.3 3.2-.9.8-1.8 1.4-2.6 1.9-.5.1-1.1.2-1.8.2-2.5 0-5.4-.9-7.6-1.7-1.5-.5-2.6-.9-3.7-1-.4-.1-.7-.1-1.1-.1-.3 0-.6 0-.8.1l.1.6c.3.5.8.9 1.1 1.4z" fill="#F9F9FA" fill-rule="nonzero"/><path d="M146.2 166.2c-.1.4-.2.7-.4 1.1.2-.3.3-.7.4-1.1z" fill="#FFF" fill-rule="nonzero"/><path d="M37.1 92.1c.1 0 .2-.1.3-.1-.6-.9-1.2-1.8-1.7-2.7-.2.1-.4.2-.6.2.1.2.2.5.2.7.3.8.7 1.6 1.1 2.5.2-.3.4-.5.7-.6z" fill="url(#a)" fill-rule="nonzero" transform="translate(81 15)"/><path d="M65.2 105.7s2.7-.5 6.3-2.1c.1-.3.1-.5.2-.8-3.1 1.1-6.7 1.7-10.9 1.7h-1.1c-8.8-.2-15.1-4.7-18.7-8.2.2 1 .1 1.8-.1 2.5.7.7 1.5 1.5 2.3 2.1 1.5 1.2 3.1 2.3 4.9 3.2l1.8.9c.6.3 1.3.5 1.9.7.7.2 1.3.4 2 .6l1 .2c.1 0 .2 0 .3.1l-.1.1c3.6.6 6.8.7 9.2.6 0-.1-.1-.2-.1-.2.1-.7.5-1.3 1.1-1.4z" fill="url(#b)" fill-rule="nonzero" transform="translate(81 15)"/><path d="M38.9 124.2c2.9-2.4 6.1-6.1 10-10.6 1.6-1.8 3.4-3.9 5.3-6.1l-1.1 1.1c-1.3 1.4-2.6 2.8-3.9 4.3-.6.7-1.2 1.5-1.9 2.2-.6.7-1.2 1.4-1.8 2.2l-1.8 2.1c-.6.7-1.2 1.4-1.8 2-1 1-2 2-3 2.8z" fill="url(#c)" fill-rule="nonzero" transform="translate(81 15)"/><path d="M65.2 151.2c-.1.4-.2.7-.4 1.1-.3.8-.7 1.5-1 2.3-.4.7-.8 1.4-1.2 2-.4.6-.9 1.2-1.3 1.8-.5.5-.9 1.1-1.4 1.5-.1.1-.1.1-.2.1 2.5-1.8 4.4-4.6 5.5-8.8z" fill="url(#d)" fill-rule="nonzero" transform="translate(81 15)"/><path d="M70.5 73.8c-.1 0-.1 0 0 0-.2 0-.8.1-1.8.1-.7 0-1.5 0-2.3-.1-.2 5.8-.7 10.7-1.5 15 .6-.7 1-1.3 1.4-1.9 1.9-3.4 3.4-9.4 4.2-13.1z" fill="url(#e)" fill-rule="nonzero" transform="translate(81 15)"/><path d="M171.4 131.5s.1 0 0 0c.1 0 .1 0 0 0 .1 0 .1 0 0 0z" fill="url(#f)" fill-rule="nonzero" transform="translate(81 15)"/><path d="M162.9 131.2c-7.1 3-14.2-.7-19.1-5.2-4.9-4.5-16.4-17.9-16.4-17.9l9.3-.7s.5.1 1.5.6c-.3-.3-.7-.5-1-.8h-1.3c-2.6 0-4.7-.4-4.8-.4-.3-.1-.5-.3-.5-.6.1-.3.3-.5.6-.5 0 0 4 .7 7.7.2.4-.1.7-.1 1.1-.2 1.2-.3 2.4-.7 3.5-1.2 1-.4 1.9-.9 2.9-1.4-.4-1 .4-2.7 2.1-3.9 1.5-1.1 3.1-1.5 4-1 .9-.9 1.6-1.9 2.3-2.9 1-1.5 1.9-3 2.6-4.6.2-.5.5-1 .7-1.6.6-1.4 1-2.8 1.4-4.3-.3.1-.5.1-.8.1-1.2-.3-1.6-2.3-1.1-4.4.6-2.1 2-3.6 3.1-3.3v-.4c.1-2 .1-3.9 0-5.8 0-.5-.1-.9-.1-1.4 0-.4-.1-.8-.1-1.2v-.8-.2-.7c0-1.6.1-3.2.4-4.6.1-.5.2-1 .4-1.4.3-.9.7-1.8 1.1-2.7.4-.9.9-1.7 1.4-2.6l1.5-2.1c-.4 0-.7-.2-.9-.4-.8-.9-.2-2.8 1.4-4.3.4-.4.9-.7 1.3-1l-.6-1.7c-1.8 1.2-3.6 2.7-4.8 4.8-3.6 6.1-4.4 8.7-4.4 13.9v1.3c0 6.1.1 17.4-4.2 23.9-5.6 8.4-14 12.5-25.6 12.5H126c2.9.5 6 .7 9.4.2.6-.1 1.2.3 1.3.9.1.6-.3 1.2-.9 1.3-1.5.2-3 .4-4.5.4-5.3 0-9.9-1.4-13.2-2.9.7 4 1.1 8.1 1.2 12.3.3 0 .5.2.5.5 0 0 .2 2.3.2 6.2.4 0 .8 0 1.2.1.4 0 .9.1 1.4.2.6.1 1.2.2 1.9.4.3.1.6.2.9.2.6.2 1.2.4 1.9.6.3.1.6.3 1 .4.7.3 1.3.6 2 1s1.4.8 2.1 1.3c.3.2.5.4.8.6.8-.8 2.7-.5 4.4.7 1.8 1.3 2.7 3.2 2 4.1.6.5 1.3 1.1 2 1.6.4.3.8.7 1.3 1 .4.3.9.7 1.3 1l1.8 1.2c0-.1 0-.3.1-.4.4-1.1 2.5-1.3 4.5-.5 2.1.8 3.4 2.4 2.9 3.5-.1.2-.2.4-.4.5.3.1.7.2 1 .2.6.1 1.1.1 1.7.2h2c1.2-.1 2.2-.3 3.2-.6.2-.1.4-.1.6-.2l-.3-.3c-.6-1 .5-2.8 2.4-3.9 1.4-.8 3.1-1.1 4.3-.8l-.6-1.2c-1-.4-1.8-1-2.4-1.6-.7.1-1.4.4-2.1.7z" fill="url(#g)" fill-rule="nonzero" transform="translate(81 15)"/><path d="M134.8 169.1c-3.6 0-10.7-2.3-15.5-4.8-7.7-4.1-13.4-16.9-14.8-26.9-1.7-12.1-5.1-22.4-8.1-25.1-1.3-1.1-2.5-1.7-3.5-1.9-2.6.9-4.7 2.6-6.1 5.1-2 3.5-2.8 10.4-3.7 17.7-1 8.3-2.1 16.9-4.9 21.5-5.7 9.4-11.9 13.8-20.6 14.8-1.1.1-2.1.2-2.9.2-2.8 0-4.2-.6-4.9-1.1.4 1.6 1.8 2.8 3.5 2.8h4.5c1.4-.1 3-.3 4.8-.8.5-.1.9-.3 1.4-.4.5-.2 1-.3 1.5-.5s1-.4 1.5-.7c.5-.2 1-.5 1.6-.8 1.1-.6 2.1-1.3 3.2-2 .2-.2.5-.4.7-.6-.1 0-.1-.1-.2-.1-.9-.8-.3-2.8 1.3-4.4 1.6-1.6 3.5-2.2 4.4-1.3 0 0 .1.1.1.2.8-1 1.5-2 2.2-3.1.4-.6.8-1.3 1.1-1.9.7-1.3 1.4-2.7 2-4 .3-.7.6-1.4.8-2.1.4-1.1.8-2.2 1.1-3.3h-.7c-1.1-.4-1.4-2.4-.7-4.5.7-1.9 2-3.2 3.1-3.1l.1-.2.1-.4.2-.9c.3-1.1.5-2.2.8-3.2.3-1 .6-2 .9-2.9.3-.9.6-1.8.9-2.6.3-.8.6-1.5.9-2.2.2-.3.3-.6.5-.9.1-.3.3-.6.4-.9.5-.8.9-1.5 1.3-2.2.4.6.8 1.4 1.3 2.2.1.3.3.6.4.9.1.3.3.6.5.9.3.7.6 1.4.9 2.2.6 1.6 1.2 3.4 1.8 5.5.3 1 .6 2.1.8 3.2l.2.9.1.4.1.2V138.3l.4 2c.1.8.3 1.5.5 2.2l.6 2.1.6 2.1c.2.7.5 1.4.7 2.1.5 1.4 1.1 2.8 1.8 4.1.7 1.3 1.4 2.7 2.2 3.9.8 1.3 1.6 2.5 2.5 3.6.9 1.1 1.8 2.2 2.9 3.2.5.5 1 .9 1.5 1.4.5.4 1 .9 1.6 1.2.5.4 1.1.8 1.6 1.1.5.3 1.1.7 1.6 1 1.1.6 2.1 1.1 3.1 1.5.5.2 1 .4 1.5.5.5.2 1 .3 1.4.4 1.9.5 3.5.7 4.8.8h4.6c1.7 0 3.1-1.1 3.5-2.7h-.1c-.4.2-1 .3-1.7.3z" fill="url(#h)" fill-rule="nonzero" transform="translate(81 15)"/><path d="M62.2 64.1c0 1.5-.3 3.3-1.1 5.3-.1.2-.2.5-.3.7 1.6 1.2 3.5 2.1 5.6 2.6 1.9.3 3.7.1 3.9.1-.7-1-1.4-2-2.1-3.1-2.4-1.4-4.5-3.3-6-5.6z" fill="url(#i)" fill-rule="nonzero" transform="translate(81 15)"/><path d="M129.4 88.3c-1.2-.4-2.3-1.1-3.3-1.9-.6-.5-1.1-1.1-1.6-1.7-.2-.3-.5-.6-.7-.9l-.6-.9c-.2-.3-.4-.6-.5-.9-.1-.2-.2-.3-.2-.5-.1-.2-.1-.3-.2-.5-.1-.1-.2-.3-.2-.4-.1-.1-.1-.3-.2-.4-.1-.3-.3-.6-.4-.8-.1-.3-.3-.5-.4-.8-.1-.2-.2-.5-.4-.7-.1-.2-.2-.4-.3-.5-.1-1.1-.2-2.3-.2-3.5-1.2.2-2.3.3-2.8.3.1 2.1.3 4.3.9 5.8.7 1.7 3.6 7.6 11.1 8.3z" fill="url(#j)" fill-rule="nonzero" transform="translate(81 15)"/><path d="M64.6 42.9c-.1-1.1-.2-2.1-.2-3.2C64.4 23.8 77.3 11 93.1 11c15.9 0 28.7 12.9 28.7 28.7v1.5c4.1 3.1 6.7 7.9 6.7 13.4 0 6.4-3.6 12-8.8 14.8-.7 1.2-1.5 2.4-2.3 3.5.6 0 1.7-.1 3-.3.7-.2 1.4-.4 2.1-.7.8-.4 1.6-.8 2.3-1.3 4.4-2.9 7.4-7.9 7.4-13.5 0-2.5-.6-4.9-1.6-7-1-2.1-2.5-4-4.3-5.5 0-.7.1-1.4.1-2.1 0-2.8-.3-5.4-1-8-.1-.2-.1-.4-.2-.6-1.5-5.7-4.5-10.8-8.6-14.8-1-1-2.1-2-3.2-2.8-1.1-.9-2.3-1.7-3.6-2.4-2.5-1.4-5.2-2.6-8-3.3-.2-.1-.4-.1-.6-.2-.6-.2-1.3-.3-1.9-.4-2-.4-4-.6-6-.6-.7 0-1.4 0-2.1.1-2.1.1-4.2.5-6.2 1-6.9 1.8-12.9 5.7-17.3 11-.3.4-.7.8-1 1.3-.6.9-1.2 1.7-1.8 2.6-.6.9-1.1 1.9-1.5 2.8-.7 1.5-1.3 3-1.8 4.5-.3 1-.6 2.1-.8 3.2-.4 2.2-.7 4.4-.7 6.7 0 .7 0 1.4.1 2.1-.3.3-.7.6-1 .9-.6.6-1.2 1.3-1.7 2-.3.4-.5.7-.7 1.1-.6 1-1.1 2.1-1.5 3.2-.5 1.4-.8 2.9-.9 4.4l1.8.7c.9.4 1.4 1.4 1.6 2.8l3 1.2c-.7-1.8-1.1-3.8-1.1-5.9-.2-4.9 1.8-9.1 4.9-12.2z" fill="url(#k)" fill-rule="nonzero" transform="translate(81 15)"/><path d="M70.7 106.4c-.2.1-.5.2-.7.3.2.1.3.2.4.4.1.3-.1.6-.4.7-.2 0-2.9.7-7.2.7-1 0-2.1 0-3.3-.1l1.9.7c.1 0 .2.1.3.2.2.4 1.1 2.5-4.2 7.8l-1.3 1.3c-5.2 5.2-13 13.1-21.1 13.8-.7.1-1.4.1-2 .1-5.2 0-10.7-1.5-14.3-2.7l.6 5.5c.3.1.5.2.8.3v-.1c.6-1 2.7-1 4.6.2 1.6.9 2.5 2.3 2.5 3.3.4.1.7.2 1.1.2 1 .2 2.1.3 3.2.3H33.4c.5 0 1-.1 1.5-.1h.2c-.1-.1-.2-.2-.2-.3-.4-1.1.9-2.7 2.9-3.5 2.1-.8 4.1-.6 4.5.5.2.5 0 1.1-.4 1.7l3-1.2c1.5-.7 2.9-1.4 4.2-2.2-.2-.1-.3-.2-.4-.4-.7-1 .2-2.8 2-4.1 1.8-1.3 3.8-1.6 4.5-.6.2.3.3.7.2 1.2 1.2-.8 2.3-1.6 3.4-2.3.8-.6 1.6-1.1 2.3-1.6 1.5-1 2.9-2 4.2-2.7.6-.4 1.2-.7 1.8-1 .8-4.4 1-7.1 1-7.2 0-.3.3-.5.5-.5.1-.3.1-.6.2-.9.4-2.2 1.1-4.8 1.9-7.7z" fill="url(#l)" fill-rule="nonzero" transform="translate(81 15)"/><path d="M153.8 118c.1 0 .2-.1.3-.1.9-.4 1.9-1.2 2.7-1.9-.9.5-1.8 1-2.8 1.4-.1.2-.1.4-.2.6z" fill="#FAFAFA" fill-rule="nonzero"/><path d="M131.2 182.5c.3.3 1.9 1.5 7.2.9 8.3-1 14.3-5.3 19.8-14.3 2.7-4.4 3.7-12.9 4.8-21.1.9-7.4 1.8-14.4 3.8-18.2 1.1-2 2.6-3.5 4.2-4.5-.5.2-.8.3-.8.3l-1.1.7 4-22.6c-.5-.6-1-1.2-1.4-1.8-2.8-4.2.3-9.3 4.1-13.4v-.3h.2c3.5-3.7 7.5-6.4 7.8-6.6l.2-.1 14.6 1.2-.1.6s-.2 2-.2 4.4h.2c.9-1.1 1.6-2.3 2.3-3.5 5.3-2.8 8.8-8.4 8.8-14.8 0-5.5-2.7-10.4-6.7-13.4v-1.5c0-15.9-12.9-28.7-28.7-28.7-15.9 0-28.7 12.9-28.7 28.7 0 1.1.1 2.2.2 3.2-3.1 3.1-5.1 7.3-5.1 12 0 2.1.4 4 1.1 5.9 1 .4 1.6 1.6 1.6 3.2 1.5 2.3 3.5 4.2 6 5.6.6 1.1 1.3 2.1 2.1 3.1.1 0 .3 0 .4.1.3-1.4.4-2.3.5-2.3l.1-.3.3-.1c.5-.2 13.4-5.6 18.2-1.2 2 1.8 2.3 5 .9 9.4-2.5 8-5.5 14.5-10 19 .1 0 .2.1.3.2.5.4.5 1.1.1 1.6-.1.2-3.7 4.2-6.9 5.8-.7.4-1.4.7-2.1 1-.9 3.3-1.6 6.1-2 8.3-1.8 10-1.9 13.6-2.1 21 0 1.7-.1 3.7-.2 6-.4 12-3.6 18.7-9.9 21.2-.5.2-1.1.4-1.6.6-.6.2-1.1.4-1.6.6-.3.1-.5.2-.7.3-.4.2-.6.3-.5.3h-.2c-1.9.9-3.1 1.9-3.2 3.5zm63.3-112.3c0 .8-.6 1.4-1.4 1.4-.8 0-1.4-.6-1.4-1.4V67c0-.8.6-1.4 1.4-1.4.8 0 1.4.6 1.4 1.4v3.2zm-6.2-15c.1-.1 1.6-2.5 4.8-2.5 3.1 0 4.7 2.4 4.8 2.5.3.5.2 1.2-.3 1.5-.2.1-.4.2-.6.2-.4 0-.7-.2-.9-.5 0-.1-1-1.5-2.9-1.5s-2.9 1.4-2.9 1.5c-.3.5-1 .7-1.5.3-.7-.3-.8-1-.5-1.5zm-29 15c0 .8-.6 1.4-1.4 1.4-.8 0-1.4-.6-1.4-1.4V67c0-.8.6-1.4 1.4-1.4.8 0 1.4.6 1.4 1.4v3.2zm3-7c-.2.1-.4.2-.6.2-.4 0-.7-.2-.9-.5 0-.1-1-1.5-2.9-1.5s-2.9 1.4-2.9 1.5c-.3.5-1 .7-1.5.3-.5-.3-.7-1-.3-1.5.1-.1 1.6-2.5 4.8-2.5 3.2 0 4.7 2.4 4.8 2.5.2.5 0 1.2-.5 1.5z" fill="#FAFAFA" fill-rule="nonzero"/><path d="M138.7 177.3c6.3-2.5 9.5-9.2 9.9-21.2.1-2.3.1-4.2.2-6 .2-7.3.3-11 2.1-21 .4-2.2 1.1-5 2-8.3-.5.2-.9.4-1.3.5-.8 2.9-1.4 5.6-1.8 7.6-.1.3-.1.6-.2.9h.1c.3 0 .5.3.5.6 0 0-.2 3.5-1.3 8.9-.1.6-.2 1.1-.3 1.7-.2 1.4-.3 2.7-.4 4.1 0 .7-.1 1.4-.1 2.1v7.2c0 .5 0 1.1-.1 1.6-.1 1-.2 2.1-.3 3.1-.1.5-.1 1-.2 1.5s-.2 1-.3 1.4c-.2.9-.4 1.9-.7 2.7-.2.5-.3 1-.5 1.4-1.1 4.1-3 7-5.5 8.8-.4.4-.9.8-1.3 1.1-1 .7-1.9 1.3-2.7 1.8l-1.2.6c.5-.2 1.1-.4 1.6-.6.8-.1 1.3-.3 1.8-.5z" fill="#F9F9FA" fill-rule="nonzero"/><path d="M76.9 50.6c-.8 0-1.4.6-1.4 1.4v3.2c0 .8.6 1.4 1.4 1.4.8 0 1.4-.6 1.4-1.4V52c0-.8-.6-1.4-1.4-1.4z" fill="url(#m)" fill-rule="nonzero" transform="translate(81 15)"/><path d="M112.1 50.6c-.8 0-1.4.6-1.4 1.4v3.2c0 .8.6 1.4 1.4 1.4.8 0 1.4-.6 1.4-1.4V52c0-.8-.7-1.4-1.4-1.4z" fill="url(#n)" fill-rule="nonzero" transform="translate(81 15)"/><path d="M107.6 41.7c.5.3 1.2.2 1.5-.3 0 0 1-1.5 2.9-1.5s2.8 1.4 2.9 1.5c.2.3.6.5.9.5.2 0 .4-.1.6-.2.5-.3.7-1 .3-1.5-.1-.1-1.6-2.5-4.8-2.5-3.1 0-4.7 2.4-4.8 2.5-.1.5 0 1.2.5 1.5z" fill="url(#o)" fill-rule="nonzero" transform="translate(81 15)"/><path d="M76.9 44.2c-3.1 0-4.7 2.4-4.8 2.5-.3.5-.2 1.2.3 1.5.5.3 1.2.2 1.5-.3 0 0 1-1.5 2.9-1.5s2.8 1.4 2.9 1.5c.2.3.6.5.9.5.2 0 .4-.1.6-.2.5-.3.7-1 .3-1.5.1-.1-1.5-2.5-4.6-2.5z" fill="url(#p)" fill-rule="nonzero" transform="translate(81 15)"/><path d="M140.7 118.4c15.7.3 23.7-6.5 29.7-25.4 1.3-4 1.1-6.7-.6-8.2-3.9-3.6-14.8.6-16.7 1.3-.3 1.9-2.2 11.5-4.9 16.3-2.3 4.1-7.5 7.6-13.9 6.2-6.5-1.5-12.3-5.7-14.1-10.1 0 0 0 .1-.1.1-.2.6-.4 1.1-.6 1.7-.2.6-.5 1.1-.7 1.5-.3.5-.5.9-.8 1.2-.2.3-.4.5-.5.6 1 1.7 2.2 3.5 3.7 5.3 3.1 3.4 9.6 9.3 19.5 9.5z" fill="#FAFAFA" fill-rule="nonzero"/><path d="M120.3 98.4c1.9 4.4 7.6 8.7 14.1 10.1 6.4 1.4 11.6-2.1 13.9-6.2 2.7-4.8 4.5-14.4 4.9-16.3 1.9-.8 12.8-4.9 16.7-1.3 1.6 1.5 1.8 4.3.6 8.2-6 18.9-14 25.8-29.7 25.4-9.9-.2-16.4-6.1-19.4-9.5-1.5-1.7-2.7-3.5-3.7-5.3l-.1.1-.2.2-.1.1c-.2.1-.4.3-.6.4.5.9 1.1 1.8 1.7 2.7 1.1-.1 2.5 1.1 3.2 3 .2.4.3.9.4 1.3 3.6 3.5 9.8 8 18.7 8.2h1.1c4.2 0 7.8-.6 10.9-1.7-.1.3-.2.5-.2.8.4-.2.9-.4 1.3-.6.1-.2.1-.4.2-.6 1-.4 1.9-.9 2.8-1.4 1.9-1.6 3.4-3.4 3.5-3.4.3-.4.8-.5 1.3-.3 4.5-4.5 7.4-11 10-19 1.4-4.4 1.1-7.6-.9-9.4-4.8-4.4-17.7 1-18.2 1.2l-.3.1-.1.3s-.2.9-.5 2.3c.1.1.2.2.2.4 0 .3-.2.5-.4.6-.8 3.7-2.3 9.7-4.1 13-.3.6-.8 1.3-1.4 1.9 0 .2-.1.4-.1.6-.8.8-1.7 1.4-2.8 2-.3.2-.6.3-.9.5-.3.1-.6.3-1 .4-.3.1-.7.2-1 .3-.4.1-.7.2-1.1.3h.2H136.1c-.5 0-1.1 0-1.6-.1-1.1-.1-2.3-.4-3.4-.8-.4-.1-.7-.3-1.1-.4-.4-.2-.7-.3-1-.5-.3-.2-.7-.4-1-.6-.3-.2-.6-.4-1-.6-.3-.2-.6-.4-.9-.7-1.2-.9-2.2-2-3-3-.6-.8-1.1-1.6-1.5-2.4-.1-.3-.3-.5-.4-.8-.1-.3-.2-.5-.3-.8h-.2c0 .1-.1.1-.1.2-.1.7-.2.9-.3 1.1z" fill="#F9F9FA" fill-rule="nonzero"/><path d="M174 104.9l-3.4 19.5c.5-.2 1.2-.3 2-.3 1.5 0 3.4.5 5.5 2.3 3.8 3.4 7 15.4 8.5 25.8 1.6 11.5 7.8 22.7 14.2 26.1 6.5 3.4 14.5 5.4 16.3 4.5.1 0 .1-.1.2-.1.3-1.7-.2-2.2-6.5-6.4-5.7-3.9-10.7-7.2-11.1-25.4-.1-3.3-.1-6.6-.1-9.8 0-8.9 0-17.1-1.5-24.9-.4-.2-.8-.4-1.1-.6-9.5-1.9-18.1-5.9-23-10.7z" fill="#FAFAFA" fill-rule="nonzero"/><path d="M198 116.2c1.5 7.8 1.5 15.9 1.5 24.9 0 3.2 0 6.4.1 9.8.4 18.2 5.3 21.5 11.1 25.4 6.3 4.2 6.8 4.7 6.5 6.4 0 0-.1.1-.2.1-1.7.9-9.7-1.1-16.3-4.5-6.5-3.4-12.6-14.6-14.2-26.1-1.5-10.4-4.7-22.4-8.5-25.8-2-1.8-4-2.3-5.5-2.3-.8 0-1.5.1-2 .3l3.4-19.5c4.9 4.9 13.5 8.9 22.9 10.8-1.8-.9-2.9-1.7-3-1.8 0 0 0-.1-.1-.1-9.5-2.5-17.7-7.1-21.2-12.4-4.6-6.9 10-17.4 11.7-18.6l13.1 1.1c-.1 1.9-.5 8 .8 11.3.9 2.4 4.9 10.1 15.3 9.2 9.7-.8 12.1-9.5 13.2-17.9.1-1.2.3-2.2.4-3.2.8-6.3 1-8.4 3.6-14.2l.3-.6c-.4.7-.9 1.4-1.3 2.2-1.6 3.1-2.8 6.8-3.2 10.7-.1.5-.1 1-.1 1.6v3.5c-.1 1.4-.3 2.7-.5 4.1-.4 2.6-1.2 5.1-2.3 7.1-.5 1-1.1 1.9-1.7 2.6-.6.7-1.3 1.3-1.9 1.8-.7.5-1.3.8-2 1.1-.7.3-1.4.5-2.1.6-.6.1-1.2.2-1.8.2h-.4c-.7 0-1.5-.1-2.2-.3-.3-.1-.5-.2-.8-.3-7.4-.7-10.4-6.5-11.2-8.5-.6-1.5-.8-3.7-.9-5.8h-.3c-.3 0-.6-.2-.6-.6 0-.3.2-.6.6-.6h.3c0-2.4.2-4.4.2-4.4l.1-.6-14.6-1.2-.2.1c-.3.2-4.3 2.9-7.8 6.6h-.2v.3c-3.8 4-6.9 9.1-4.1 13.4.4.6.9 1.2 1.4 1.8l-4 22.6 1.1-.7s.3-.2.8-.3c-1.6 1-3.1 2.4-4.2 4.5-2.1 3.7-2.9 10.7-3.8 18.2-1 8.2-2 16.6-4.8 21.1-5.5 9.1-11.4 13.3-19.8 14.3-5.2.6-6.8-.5-7.2-.9.1-1.7 1.3-2.7 2.9-3.5-1.9.1-3.5 1.7-3.5 3.7 0 .3 0 .6.1.9.7.5 2.1 1.1 4.9 1.1.8 0 1.8-.1 2.9-.2 8.7-1 14.9-5.5 20.6-14.8 2.8-4.7 3.9-13.2 4.9-21.5.9-7.3 1.7-14.2 3.7-17.7 1.4-2.5 3.4-4.2 6.1-5.1 1 .2 2.2.8 3.5 1.9 3 2.7 6.4 13 8.1 25.1 1.4 10 7.1 22.9 14.8 26.9 4.8 2.5 11.9 4.8 15.5 4.8.7 0 1.3-.1 1.8-.3h.1c.1-.3.2-.7.2-1 .1-.5.1-1 0-1.4-.3-1.1-1.6-2.1-4.6-4.2-.6-.4-1.3-.9-2.1-1.4-2.5-1.7-4.7-3.3-6.5-5.7-1.1-1.5-2-3.3-2.7-5.7-.4-1.2-.7-2.5-.9-4-.4-2.6-.7-5.7-.8-9.5v-1.5c0-1.3 0-2.7-.1-4.1v-9.4c-.1-3.8-.2-6.1-.2-6.1 0-.3.2-.6.5-.6h.1c-.2-4.2-.5-8.3-1.2-12.3-.7-.5-1.1-.7-1.5-.9z" fill="#F9F9FA" fill-rule="nonzero"/><path d="M227 83.3c-.1 1-.2 2-.4 3.2-1.1 8.4-3.4 17.1-13.2 17.9-10.4.9-14.3-6.8-15.3-9.2-1.3-3.3-1-9.4-.8-11.3l-13.1-1.1c-1.7 1.2-16.3 11.6-11.7 18.6 3.5 5.3 11.7 9.9 21.2 12.4-.4-.4-.5-1-.2-1.5.4-.5 1.1-.6 1.6-.3 0 0 2.6 1.8 6.6 3.3 1.5.2 3 .3 4.5.4 12.5.6 21.4-3.3 27.1-11.9 4.1-6.2 4.1-17.7 4.1-23.3v-1.3c0-5.5.9-8.2 4.6-14.5 1.4-2.3 3.4-4 5.4-5.3l-1.3-3.9c-.3.2-.6.3-1 .5-1.1.6-2.4 1.3-3.8 2.2l-.1.1c-2.3 1.6-4.6 3.5-6.5 5.4-.8.8-1.5 1.6-2.2 2.6-.5.7-1 1.3-1.5 2.1l-.3.6c-2.7 5.8-3 8-3.7 14.3z" fill="#FAFAFA" fill-rule="nonzero"/><path d="M241.9 64.8c-3.7 6.3-4.6 9-4.6 14.5v1.3c0 5.5.1 17-4.1 23.3-5.8 8.6-14.6 12.5-27.1 11.9-1.5-.1-3-.2-4.5-.4 1.6.6 3.5 1.2 5.5 1.5h1.5c11.6 0 20-4.1 25.6-12.5 4.3-6.5 4.3-17.8 4.2-23.9v-1.3c0-5.2.8-7.8 4.4-13.9 1.2-2 3-3.6 4.8-4.8l-.4-1.1c-1.9 1.4-3.9 3.1-5.3 5.4zM235.3 63c-.3.2-.5.5-.8.8 1.9-1.9 4.2-3.7 6.5-5.4-1.7 1.2-3.7 2.7-5.7 4.6z" fill="#F9F9FA" fill-rule="nonzero"/><path d="M127.4 108s11.6 13.5 16.4 17.9c4.9 4.5 12 8.2 19.1 5.2.7-.3 1.4-.6 2-.8-.5-.5-.9-1.1-1.1-1.8-.1-.4-.2-.9-.2-1.3h-.4c-.2 0-.4 0-.6-.1-.2 0-.3 0-.5-.1-.2 0-.4-.1-.6-.1-.2 0-.3-.1-.5-.1s-.4-.1-.6-.1c-.2 0-.4-.1-.5-.1-.2-.1-.4-.1-.7-.2-.2-.1-.4-.1-.6-.2-.2-.1-.4-.2-.7-.2-.2-.1-.4-.1-.6-.2-.2-.1-.4-.2-.7-.3l-.6-.3c-.2-.1-.5-.2-.7-.4l-.6-.3c-.2-.1-.5-.3-.7-.4-.2-.1-.4-.2-.6-.4-.2-.2-.5-.3-.7-.5-.2-.1-.4-.3-.6-.4-.2-.2-.5-.4-.7-.6-.2-.2-.4-.3-.5-.5l-.7-.7-.5-.5c-.3-.3-.5-.6-.8-.9-.1-.2-.3-.3-.4-.5-.4-.5-.8-1-1.2-1.6-.4-.5-.7-1-1-1.5-.1-.1-.2-.2-.2-.3-.3-.5-.7-.9-1-1.3v-.1c-.3-.4-.6-.8-.9-1.1-.1-.1-.1-.2-.2-.2-.3-.3-.6-.7-.9-1l-.1-.1-.8-.8-.2-.2c-.3-.3-.5-.5-.8-.7-.1 0-.1-.1-.2-.1-.2-.2-.4-.3-.6-.5-.1-.1-.2-.1-.2-.2-.2-.2-.4-.3-.6-.4-.1-.1-.2-.1-.3-.2-.1-.1-.2-.1-.3-.2-.1-.1-.2-.1-.3-.2-.3-.2-.5-.3-.7-.4-.9-.5-1.5-.6-1.5-.6l-9.1.6z" fill="url(#q)" fill-rule="nonzero" transform="translate(81 15)"/><path d="M116 146c7.7-.7 15.4-8.4 20.4-13.5l1.3-1.3c3.9-3.9 4.1-5.8 4-6.3l-5.4-2c-2.1 2.3-3.9 4.5-5.6 6.4-6.1 7-10.5 12.1-15.1 13.6-4.4 1.4-9.5-.3-13-1.4-.5-.2-1-.3-1.5-.5-.1.3-.2.7-.4 1-.3.5-.6.9-1 1.3 4 1.4 10.7 3.2 16.3 2.7z" fill="#FAFAFA" fill-rule="nonzero"/><path d="M116.1 147.1c8.1-.7 16-8.6 21.1-13.8l1.3-1.3c5.3-5.3 4.4-7.4 4.2-7.8-.1-.1-.2-.2-.3-.2l-1.9-.7c-1.6-.1-3.4-.3-5.2-.7-1.9 2.2-3.7 4.2-5.3 6.1-3.9 4.5-7.1 8.2-10 10.6-.2.2-.5.4-.7.6-1.2 1-2.5 1.9-3.7 2.6-1.1.4-2.3.5-3.5.5-4 0-8.1-1.7-10.6-2.4 0 .2-.1.4-.1.5.5.1.9.3 1.5.5 3.4 1.1 8.6 2.9 13 1.4 4.6-1.5 9-6.6 15.1-13.6 1.7-1.9 3.6-4.1 5.6-6.4l5.4 2c0 .5-.2 2.4-4 6.3l-1.3 1.3c-5.1 5.1-12.7 12.8-20.4 13.5-5.6.5-12.3-1.4-16.2-2.6l-.2.2.1 1c3.5 1.2 9.1 2.7 14.3 2.7.4-.2 1.1-.2 1.8-.3z" fill="#F9F9FA" fill-rule="nonzero"/><path d="M171.5 131.5c.1.2.3.4.5.6.4.3.8.5 1.3.7.3-.5.6-1 .7-1.6-.8.2-1.6.3-2.5.3z" fill="url(#r)" fill-rule="nonzero" transform="translate(81 15)"/><path d="M149.4 116.1c-3-4.4-5.7-7.1-7.8-8.7.9-.2 1.8-.6 2.8-1 2.1-.9 4.1-2 5.8-3.4-1.5.9-3.1.9-3.7.1-.1-.1-.1-.2-.1-.3-.9.5-1.9 1-2.9 1.4-1.1.5-2.3.9-3.5 1.2-.3.1-.7.1-1.1.2-3.7.5-7.7-.1-7.7-.2-.3-.1-.6.2-.6.5-.1.3.2.6.5.6.1 0 2.2.4 4.8.4h1.3c.3.3.7.5 1 .8.2.1.5.2.7.4.1.1.2.1.3.2.1.1.2.1.3.2.1.1.2.1.3.2.2.1.4.3.6.4.1.1.2.1.2.2.2.1.4.3.6.5.1 0 .1.1.2.1.2.2.5.5.8.7l.2.2c.3.2.5.5.8.8l.1.1c.3.3.6.6.9 1 .1.1.1.2.2.2.3.4.6.7.9 1.1v.1c.3.4.7.8 1 1.3.1.1.2.2.2.3.3.5.7 1 1 1.5.4.6.8 1.1 1.2 1.6.1.2.3.3.4.5.3.3.5.7.8.9l.5.5c.2.3.5.5.7.7.2.2.4.3.5.5.2.2.5.4.7.6.2.2.4.3.6.4.2.2.5.4.7.5.2.1.4.3.6.4.2.2.5.3.7.4l.6.3c.2.1.5.2.7.4l.6.3c.2.1.4.2.7.3.2.1.4.2.6.2.2.1.4.2.7.2.2.1.4.1.6.2.2.1.4.1.7.2.2 0 .4.1.5.1.2.1.4.1.6.1.2 0 .4.1.5.1.2 0 .4.1.6.1.2 0 .3.1.5.1s.4 0 .6.1h.4c0 .4 0 .9.2 1.3.2.7.6 1.3 1.1 1.8.6.6 1.4 1.1 2.4 1.6.6.2 1.2.5 1.9.6h.1c.2 0 .5-.2.5-.4.1-.3-.1-.6-.4-.7-.1 0-.2-.1-.3-.1-2.4-.7-3.8-1.8-4.2-3.2-.7-2.5 1.8-5.4 1.9-5.4.1-.1.2-.3.1-.5 0-.1-.1-.2-.2-.3-.2-.2-.6-.2-.8 0 0 0-.3.3-.6.7-.4.5-.9 1.3-1.2 2.2-4.5.3-10.1-1.3-14.9-8.4z" fill="url(#s)" fill-rule="nonzero" transform="translate(81 15)"/><path d="M31.3 79.8v1.6c0 .9.1 1.8.2 2.7 0-.3.1-.6.2-1 .1-.3.1-.6.2-.9.1-.3.2-.7.3-1 .1-.2.1-.4.2-.6.7.5 1.6.9 2.8 1.3 1.3.4 2.7.7 4.1.7H39.9c.1.3.2.5.3.8.1.3.3.5.4.8.4.8.9 1.6 1.5 2.4.8 1.1 1.8 2.1 3 3 .3.2.6.5.9.7.3.2.6.4 1 .6.3.2.7.4 1 .6.3.2.7.3 1 .5.4.2.7.3 1.1.4 1.1.4 2.2.6 3.4.8.5.1 1.1.1 1.6.1h3.1-.2c.4-.1.7-.2 1.1-.3.4-.1.7-.2 1-.3.3-.1.7-.3 1-.4.3-.1.6-.3.9-.5 1-.6 2-1.3 2.8-2 0-.2.1-.4.1-.6.8-4.3 1.3-9.2 1.5-15 .8.1 1.6.1 2.3.1.9 0 1.6-.1 1.7-.1h.1c.3-.1.4-.3.4-.6 0-.2-.1-.3-.2-.4-.1-.1-.3-.1-.4-.1-.1 0-2 .2-3.9-.1-2-.5-3.9-1.4-5.6-2.6.1-.2.2-.5.3-.7.8-1.9 1.1-3.8 1.1-5.3-.1-1.6-.6-2.8-1.6-3.2l-3-1.2c.1.4.1.8.1 1.2l2.5 1c1.1.5 1.4 3.5-.1 7.1-1.5 3.6-3.7 5.6-4.9 5.1l-2.5-1c-.3.3-.6.6-.9.8l3 1.2c.2.1.5.1.8.1.9 0 1.9-.6 2.9-1.6.4-.5.9-1 1.3-1.6 1.4.9 2.8 1.7 4.4 2.3-.2 5.3-.7 9.9-1.4 13.9-.5.5-1.1.9-1.8 1.2-.4.2-.9.5-1.6.7-.5.2-1.1.3-1.8.5h-.8H55.1c-.5 0-.9 0-1.3-.1-1.3-.1-2.6-.5-3.8-1l-1.8-.9c-.5-.3-1-.7-1.6-1.1-1-.8-1.9-1.7-2.6-2.6-.7-.9-1.2-1.8-1.7-2.8-.1-.2-.1-.3-.2-.5h.1c.8-.5 1.3-1.2 1.8-2.1.4-.7.7-1.6.8-2.7 0-.2 0-.3-.1-.5-.1-.1-.2-.2-.3-.2-.3-.1-.6.2-.6.5 0 .1-.1.3-.1.4-.4 1.8-1 3-2 3.6-1.3.8-3.1.8-6.1-.1-5.7-1.7-4.6-6-4.5-6.2.1-.2 0-.5-.2-.6-.1 0-.1-.1-.2-.1-.3-.1-.6.1-.7.4 0 0-.2.9-.1 2.1.1 1 .5 2.2 1.6 3.3-.2 0-.2.1-.2.1z" fill="url(#t)" fill-rule="nonzero" transform="translate(81 15)"/><path d="M157.7 138.9c-.4 0-.8.1-1.2.1h-.8c-.5 0-1.1-.1-1.7-.2-.3-.1-.7-.1-1-.2-.8.6-2.4.7-4.1 0-1.8-.7-3.1-2.1-3-3.1l-1.8-1.2c-.5-.3-.9-.7-1.3-1-.4-.3-.9-.7-1.3-1-.7-.5-1.3-1.1-2-1.6-.6.8-2.2.7-3.8-.2.7.5 1.4 1.1 2.1 1.7.7.6 1.5 1.2 2.3 1.9 1.7 1.4 3.6 2.8 5.8 4.1 1.8 1.1 4.6 2.5 7.8 3 1 .1 1.9.2 2.8.2.5 0 .9 0 1.4-.1 1.3-.1 2.5-.3 3.7-.7 2.2-.6 3.8-1.5 5.2-2.3 1.3-.8 2.3-1.6 3.2-2.2.1-.1.3-.2.4-.3-.3-.2-.6-.4-.8-.6-.2-.2-.4-.4-.6-.5-.2 1-1.6 2.3-3.1 3.2-1.7 1-3.5 1.2-4.3.4-.2.1-.4.1-.6.2-1 .1-2.1.3-3.3.4z" fill="url(#u)" fill-rule="nonzero" transform="translate(81 15)"/><path d="M31.5 141.4h.9c.9 0 1.8 0 2.8-.1 1.4-.2 2.6-.4 3.7-.6 2.3-.5 4.6-1.4 7-2.5 1.9-.9 4-2 6.2-3.3 2.9-1.7 5.5-3.6 7.9-5.2.8-.6 1.6-1.1 2.4-1.7 1.1-.8 2.1-1.4 3-2-.2 1.3-.3 2.6-.3 3.9-.1 1.4-.1 2.8-.1 4.3V139.6c0 .4 0 .8-.1 1.2-.1 1.1-.2 2.1-.3 3-.1 1-.3 1.9-.4 2.7-.2 1-.4 1.8-.6 2.6-.2.8-.5 1.6-.8 2.3-.3.8-.7 1.5-.9 2.1-.3.6-.7 1.2-1.1 1.8-.4.6-.8 1.1-1.2 1.6-.5.6-.9 1-1.3 1.3-.4.4-.9.8-1.3 1.1-.8.6-1.6 1.1-2.4 1.6-.7.4-1.3.7-1.7.8l-.2.1c-3 .3-5.3 2.8-5.3 5.9 0 3.2 2.6 5.9 5.8 5.9h.1c.5.1 1.5.2 3 .2h1.6c1.8-.1 3.6-.4 5.3-.9 1.1-.3 2.1-.6 3.2-1.1 1.2-.5 2.4-1 3.4-1.6 1.2-.7 2.3-1.4 3.4-2.2 1.1-.9 2.3-1.8 3.3-2.8 1-1 2-2.1 3-3.4 1-1.2 1.9-2.5 2.7-3.8 1.6-2.6 3-5.5 4.1-8.4.5-1.4 1-2.9 1.4-4.4.2-.6.3-1.2.5-1.7l.1-.5.1-.4c.1-.6.3-1.2.4-1.9l.4-2v-.2V138.2l.1-.4.2-.8c.2-1 .5-2.1.8-3.2.5-2 1.1-3.8 1.7-5.3.3-.8.6-1.5.9-2.1 0-.1.1-.2.1-.3.1.1.1.2.2.3.2.5.5 1.2.9 2.1.6 1.5 1.2 3.2 1.7 5.2.3 1 .6 2.1.8 3.2l.2.8.1.4v.5l.4 2c.1.7.3 1.3.4 1.9l.1.4.1.5c.1.6.3 1.2.5 1.8.4 1.5.9 3 1.4 4.4 1.1 2.9 2.5 5.8 4.1 8.4.8 1.3 1.7 2.6 2.7 3.8 1 1.3 2 2.4 3 3.4s2.2 2 3.3 2.8c1.1.8 2.2 1.5 3.4 2.2 1 .6 2.1 1.1 3.4 1.6 1 .4 2.1.8 3.2 1.1 1.7.5 3.5.8 5.3.9.5 0 1.1.1 1.6.1 1.5 0 2.5-.1 3-.2h.1c3.1 0 5.7-2.6 5.8-5.7.5-3.5-1.5-4.8-7.7-9-5.5-3.7-9.5-6.4-9.8-23.1v-1.5c0-1.4 0-2.8-.1-4.2v-4-3c.9.1 1.9.3 2.8.5 1.2.3 2.3.7 3.3 1.2.6.3 1.2.6 1.9.9.7.4 1.3.8 1.9 1.2.9.6 1.8 1.3 2.9 2.1-1.1-1.2-1.5-2.5-1-3.2l.1-.1c-.3-.2-.5-.4-.8-.6-.7-.5-1.4-.9-2.1-1.3-.7-.4-1.3-.7-2-1-.3-.2-.6-.3-1-.4-.6-.3-1.3-.5-1.9-.6-.3-.1-.6-.2-.9-.2-.7-.2-1.3-.3-1.9-.4-.5-.1-.9-.1-1.4-.2-.4 0-.8-.1-1.2-.1-.1-3.9-.2-6.2-.2-6.2 0-.3-.2-.5-.5-.5h-.1c-.3 0-.5.3-.5.6 0 0 .2 2.3.2 6.1v9.4c.1 1.4.1 2.8.1 4.1v1.5c.1 3.8.4 6.9.8 9.5.2 1.5.6 2.8.9 4 .7 2.4 1.6 4.2 2.7 5.7 1.7 2.4 3.9 4 6.5 5.7.8.5 1.5 1 2.1 1.4 3.1 2.1 4.3 3.1 4.6 4.2.1.4.1.9 0 1.4 0 .4-.1.7-.2 1-.4 1.5-1.8 2.7-3.5 2.7h-.1H132h-.5H128.1c-1.4-.1-3-.3-4.8-.8-.5-.1-.9-.3-1.4-.4-.5-.2-1-.3-1.5-.5-1-.4-2.1-.9-3.1-1.5-.5-.3-1.1-.6-1.6-1-.5-.3-1.1-.7-1.6-1.1-.5-.4-1-.8-1.6-1.2-.5-.4-1-.9-1.5-1.4-1-1-1.9-2-2.9-3.2-.9-1.1-1.8-2.3-2.5-3.6-.8-1.3-1.5-2.6-2.2-3.9-.7-1.3-1.2-2.7-1.8-4.1-.3-.7-.5-1.4-.7-2.1l-.6-2.1-.6-2.1c-.2-.7-.3-1.4-.5-2.2l-.4-2v-.2-.1l-.1-.2-.1-.4-.2-.9c-.3-1.1-.5-2.2-.8-3.2-.6-2.1-1.2-3.9-1.8-5.5-.3-.8-.6-1.5-.9-2.2-.2-.3-.3-.6-.5-.9-.1-.3-.3-.6-.4-.9-.5-.8-.9-1.5-1.3-2.2-.4.6-.8 1.4-1.3 2.2-.1.3-.3.6-.4.9-.1.3-.3.6-.5.9-.3.7-.6 1.4-.9 2.2-.3.8-.6 1.6-.9 2.6-.3.9-.6 1.9-.9 2.9-.3 1-.6 2.1-.8 3.2l-.2.9-.1.4-.1.2h.3c1.1.4 1.4 2.4.7 4.5-.6 1.7-1.7 2.9-2.7 3.1-.3 1.1-.7 2.2-1.1 3.3-.3.7-.5 1.4-.8 2.1-.6 1.4-1.2 2.7-2 4-.4.7-.7 1.3-1.1 1.9-.7 1.1-1.4 2.1-2.2 3.1.7.9.1 2.7-1.4 4.2s-3.3 2.1-4.2 1.5c-.2.2-.5.4-.7.6-1.1.8-2.1 1.5-3.2 2-.5.3-1.1.6-1.6.8-.5.2-1 .5-1.5.7-.5.2-1 .4-1.5.5-.5.2-1 .3-1.4.4-1.9.5-3.5.7-4.8.8H54.1h-1-.2c-1.7 0-3.1-1.2-3.5-2.8-.1-.3-.1-.6-.1-.9 0-2 1.5-3.6 3.5-3.7h.2c-.1 0 .1-.1.5-.3.2-.1.4-.2.7-.3.3-.2.7-.4 1.2-.6.8-.4 1.7-1 2.7-1.8.4-.3.9-.7 1.3-1.1.1-.1.1-.1.2-.1.5-.5 1-1 1.4-1.5.5-.5.9-1.1 1.3-1.8.4-.6.8-1.3 1.2-2 .4-.7.7-1.5 1-2.3.1-.3.2-.7.4-1.1.2-.5.3-.9.5-1.4.3-.9.5-1.8.7-2.7.1-.5.2-.9.3-1.4.1-.5.1-1 .2-1.5.1-1 .2-2 .3-3.1 0-.5.1-1 .1-1.6V136.2v.1-1.8-2.1c0-.7 0-1.4.1-2.1.1-1.3.2-2.7.4-4.1.1-.6.2-1.1.3-1.7 1.1-5.4 1.3-8.9 1.3-8.9 0-.3-.2-.6-.5-.6h-.1c-.3 0-.5.2-.5.5 0 0-.2 2.8-1 7.2-.6.3-1.1.6-1.8 1-1.3.8-2.7 1.7-4.2 2.7-.8.5-1.5 1-2.3 1.6-1.1.7-2.2 1.5-3.4 2.3-.2.9-1 2.1-2.2 2.9-1.5 1.1-3.2 1.5-4.1 1-1.4.8-2.8 1.5-4.2 2.2-1 .4-2 .9-3 1.2-.5.7-1.4 1.4-2.5 1.8-1.8.7-3.6.6-4.3-.2h-.2c-.5 0-1 .1-1.5.1h-1.8c-1.1 0-2.2-.2-3.2-.3-.4-.1-.7-.2-1.1-.2 0 .2 0 .4-.2.6-.2.4-.7.6-1.4.7-1.3-2.1-3.3-3.8-5.6-4.7-.3-.1-.5-.2-.8-.3l-.6-5.5-.1-1 .2-.2c.4-.4.7-.8 1-1.3.2-.3.3-.6.4-1 .1-.2.1-.4.1-.5 2.5.8 6.6 2.4 10.6 2.4 1.2 0 2.4-.2 3.5-.5 1.2-.7 2.5-1.6 3.7-2.6.2-.2.5-.4.7-.6 1-.9 2-1.8 3-2.9.6-.6 1.2-1.3 1.8-2l1.8-2.1c.6-.7 1.2-1.4 1.8-2.2.6-.7 1.2-1.5 1.9-2.2 1.3-1.5 2.5-2.9 3.9-4.3.3-.4.7-.7 1.1-1.1 1.9.4 3.6.6 5.2.7 1.2.1 2.3.1 3.3.1 4.3 0 7-.7 7.2-.7.3-.1.5-.4.4-.7-.1-.2-.2-.3-.4-.4h-.3s-2 .5-5.3.6c-2.4.1-5.6 0-9.2-.6l.1-.1c-.1 0-.2 0-.3-.1l-1-.2c-.7-.2-1.3-.4-2-.6-.7-.2-1.3-.5-1.9-.7l-1.8-.9c-1.8-.9-3.4-2-4.9-3.2-.8-.7-1.6-1.4-2.3-2.1-.2.4-.4.6-.7.8-1.1.5-2.7-.8-3.5-2.9-.6-1.6-.7-3.1-.1-4-.4-.8-.8-1.7-1.1-2.5-.1-.2-.2-.5-.2-.7-.1 0-.2.1-.3.1-.8.1-1.7-.1-2.3-.6.2.7.4 1.4.7 2 .8 2 1.9 4 3.2 5.9.8 1.1 1.6 2.1 2.4 2.9.8.9 1.8 1.8 2.9 2.7 2.2 1.8 4.6 3.3 7.3 4.4.6.3 1.2.5 1.9.7-1 1.1-2.1 2.3-3.4 3.8-.7.8-1.3 1.5-1.9 2.3-1.8 2.2-3.6 4.2-5.4 6.1-1.3 1.4-2.4 2.5-3.5 3.4-1.1.9-2.1 1.7-3.2 2.3-.8.2-1.7.4-2.6.4-2.9 0-6-1.1-8.4-1.8-.9-.3-1.7-.6-2.3-.7 0-.1 0-.3-.1-.4-.1-.3-.4-.4-.7-.4-.1 0-.1.1-.2.1-.2.1-.2.4-.2.6.4 1.2.3 2.3-.3 3.4-1 1.7-3.2 2.9-4.9 3.3-2.5.6-4.4.3-5.6-.7-1.5-1.2-1.4-3.3-1.4-3.3 0-.3-.2-.5-.4-.5h-.2c-.3 0-.6.2-.6.5 0 .1-.1 2.6 1.8 4.2.6.5 1.4.9 2.3 1.1l.5 4.8c-1.3.7-2.5 1.7-3.4 2.8-1.9 2.4-2.8 5.4-2.5 8.4.5 4.6 3.6 8.4 8 9.8.2.1.3.1.5.1h.2c.4 0 .8-.3 1.1-.6.3-.3.4-.8.4-1.2v-.2l-.8-7.7c0-.2.1-.3.1-.3 0-.1.1-.1.3-.2l2-.2.8-.1.8-.1c.3 0 .5.2.5.4l.8 7.9c.1.8.8 1.5 1.6 1.5h.2c.2 0 .4-.1.6-.2.4-.2.9-.5 1.3-.9.8-.6 1.4-1.2 2-1.9 1.9-2.4 2.8-5.4 2.5-8.4L27 143c-.2-.9-.5-1.7-.9-2.4 1.8.5 3.6.8 5.4.8zm-5.2 3.6c.3 2.9-.6 5.6-2.3 7.6-.5.6-1.1 1.2-1.8 1.7l-.8-7.7c0-.4-.2-.8-.5-1-.3-.2-.6-.4-1-.4h-.2l-3.6.4-2 .2c-.4 0-.8.3-1 .6-.3.3-.4.7-.3 1.1l.8 7.7c-3.2-1.5-5.5-4.6-5.9-8.3-.3-2.9.6-5.6 2.3-7.6 1-1.2 2.3-2.2 3.7-2.9l-.6-5.3c.4-.1.7-.1 1.1-.2 1.1-.2 2.4-.8 3.5-1.5l.7 6.5c4.2 1 7.5 4.5 7.9 9.1z" fill="url(#v)" fill-rule="nonzero" transform="translate(81 15)"/><path d="M114.1 97.1c-.5-.4-1.2-.2-1.6.3-.3.5-.2 1.1.2 1.5 0 0 0 .1.1.1.1.1 1.2.9 3 1.8.3.2.7.4 1.1.6l1.2.6c3.3 1.4 7.9 2.9 13.2 2.9 1.5 0 2.9-.1 4.5-.4.6-.1 1-.7.9-1.3-.1-.6-.7-1-1.3-.9-3.3.5-6.5.3-9.4-.2-2-.4-3.9-.9-5.5-1.5-3.8-1.7-6.3-3.5-6.4-3.5z" fill="url(#w)" fill-rule="nonzero" transform="translate(81 15)"/><path d="M24.8 135.4c-1.9-1.1-4-1.2-4.6-.2v.1c2.4.9 4.3 2.6 5.6 4.7.6-.1 1.1-.3 1.4-.7.1-.2.1-.4.2-.6-.1-1.1-1.1-2.4-2.6-3.3z" fill="url(#x)" fill-rule="nonzero" transform="translate(81 15)"/><path d="M148.5 99.1c-1.6 1.2-2.5 2.9-2.1 3.9 0 .1.1.2.1.3.6.8 2.2.7 3.7-.1.3-.2.5-.3.8-.5.5-.4.9-.8 1.2-1.2.9-1.1 1.2-2.3.7-3-.1-.2-.3-.3-.5-.4-.8-.5-2.4-.1-3.9 1z" fill="url(#y)" fill-rule="nonzero" transform="translate(81 15)"/><path d="M42.4 135.7c-.4-1.1-2.5-1.3-4.5-.5-2.1.8-3.4 2.4-2.9 3.5.1.1.1.2.2.3.7.8 2.5.9 4.3.2 1.1-.5 2-1.1 2.5-1.8.4-.6.6-1.2.4-1.7z" fill="url(#z)" fill-rule="nonzero" transform="translate(81 15)"/><path d="M55.3 128.9c-.7-1-2.7-.7-4.5.6-1.8 1.3-2.7 3.2-2 4.1.1.2.3.3.4.4.9.5 2.6.1 4.1-1 1.2-.9 2-2 2.2-2.9.1-.5 0-.9-.2-1.2z" fill="url(#A)" fill-rule="nonzero" transform="translate(81 15)"/><path d="M157.7 80.4c-.6 2.1-.1 4.1 1.1 4.4.3.1.5 0 .8-.1 1-.3 1.9-1.6 2.4-3.3.6-2.1.1-4.1-1.1-4.4-1.2-.2-2.6 1.3-3.2 3.4z" fill="url(#B)" fill-rule="nonzero" transform="translate(81 15)"/><path d="M41 96.3c-.1-.4-.2-.9-.4-1.3-.8-1.9-2.1-3.1-3.2-3-.1 0-.2 0-.3.1-.3.1-.5.3-.6.6-.5.9-.5 2.4.1 4 .8 2.1 2.4 3.4 3.5 2.9.3-.1.6-.4.7-.8.4-.7.4-1.6.2-2.5z" fill="url(#C)" fill-rule="nonzero" transform="translate(81 15)"/><path d="M164.5 52.7c.2.2.6.4.9.4.9.1 2.1-.4 3.2-1.4v-.1l-1.4-4.3c-.4.3-.9.6-1.3 1-1.6 1.5-2.2 3.5-1.4 4.4z" fill="url(#D)" fill-rule="nonzero" transform="translate(81 15)"/><path d="M84 141c-.7 2.1-.4 4.1.7 4.5.2.1.4.1.7 0 1-.2 2.1-1.4 2.7-3.1.7-2.1.4-4.1-.7-4.5h-.3c-1.1-.1-2.4 1.2-3.1 3.1z" fill="url(#E)" fill-rule="nonzero" transform="translate(81 15)"/><path d="M73.7 161.2c-1.6 1.6-2.1 3.5-1.3 4.4 0 0 .1.1.2.1.9.6 2.7 0 4.2-1.5s2.1-3.3 1.4-4.2c0-.1-.1-.1-.1-.2-.9-.8-2.9-.2-4.4 1.4z" fill="url(#F)" fill-rule="nonzero" transform="translate(81 15)"/><path d="M139.6 130.5c.8-1-.1-2.9-1.9-4.2-1.7-1.2-3.6-1.5-4.4-.7l-.1.1c-.6.8-.1 2.1 1 3.2.3.3.6.6 1 .9.2.2.5.3.7.5 1.4.9 3 1 3.7.2z" fill="url(#G)" fill-rule="nonzero" transform="translate(81 15)"/><path d="M149 138.6c1.7.7 3.3.6 4.1 0 .2-.1.4-.3.4-.5.4-1.1-.9-2.7-2.9-3.5-2.1-.8-4.1-.6-4.5.5 0 .1-.1.3-.1.4-.1 1 1.1 2.3 3 3.1z" fill="url(#H)" fill-rule="nonzero" transform="translate(81 15)"/><path d="M72 105.8c.7-.3 1.4-.6 2.1-1 3.2-1.6 6.7-5.7 6.9-5.8.4-.5.4-1.2-.1-1.6-.1-.1-.2-.1-.3-.2-.4-.2-.9-.1-1.3.3 0 0-1.6 1.8-3.5 3.4-.9.8-1.9 1.5-2.7 1.9-.1 0-.2.1-.3.1-.5.2-.9.4-1.3.6-3.6 1.6-6.2 2.1-6.3 2.1-.6.1-1 .7-.9 1.3 0 .1.1.2.1.2 3.3-.1 5.3-.6 5.3-.6h.3c.2-.1.5-.2.7-.3.4 0 .8-.2 1.3-.4z" fill="url(#I)" fill-rule="nonzero" transform="translate(81 15)"/><path d="M11.6 117.5c-4.2-1-7.4-4.5-7.8-9.1-.3-2.9.6-5.6 2.3-7.6.5-.6 1.1-1.2 1.8-1.7l.8 7.7c.1.8.8 1.4 1.5 1.4h.2l2-.2 3.6-.4c.4 0 .8-.3 1-.6.3-.3.4-.7.3-1.1l-.8-7.7c3.2 1.5 5.5 4.6 5.9 8.3.3 2.9-.6 5.6-2.3 7.6-1 1.2-2.3 2.2-3.7 2.9l.4 3.7c.4.2.8.3 1.2.6l-.1-.6-.3-3.1c1.3-.7 2.5-1.7 3.4-2.8 1.9-2.4 2.8-5.4 2.5-8.4-.4-4-2.8-7.5-6.5-9.2l-1.5-.6c-.2-.1-.3-.1-.5-.1h-.2c-.4 0-.8.3-1.1.6-.3.3-.4.8-.4 1.2l.8 7.9c0 .2-.1.3-.1.3 0 .1-.1.1-.3.2l-1.6.2-2 .2c-.3 0-.5-.2-.5-.4L9 99v-.2c-.1-.8-.8-1.5-1.6-1.5h-.2c-.2 0-.4.1-.6.2-1.3.7-2.4 1.7-3.3 2.8-1.9 2.4-2.8 5.4-2.5 8.4.5 4.7 3.7 8.5 8.1 9.9l.3 2.8c.8-.5 1.8-.8 2.9-1l-.5-2.9z" fill="url(#J)" fill-rule="nonzero" transform="translate(81 15)"/><path d="M18.3 135.9l-.7-6.5c-1.1.8-2.4 1.3-3.5 1.5-.4.1-.7.1-1.1.2l.6 5.3c-1.5.7-2.7 1.7-3.7 2.9-1.7 2.1-2.6 4.8-2.3 7.6.4 3.8 2.7 6.8 5.9 8.3l-.8-7.7c0-.4.1-.8.3-1.1.3-.3.6-.5 1-.6l2-.2 3.6-.4h.2c.4 0 .8.1 1 .4.3.2.5.6.5 1l.8 7.7c.7-.5 1.3-1.1 1.8-1.7 1.7-2.1 2.6-4.8 2.3-7.6-.3-4.6-3.6-8.1-7.9-9.1z" fill="url(#K)" fill-rule="nonzero" transform="translate(81 15)"/><path fill="url(#L)" fill-rule="nonzero" d="M171.1 22.7l-.3-.8-1.6 1.4" transform="translate(81 15)"/><path fill="url(#M)" fill-rule="nonzero" d="M158.9 18.3l.3 1.1 2.2-1.9" transform="translate(81 15)"/><path d="M168.9 16.1l-.3-.9-2 .7-6.4 5.4c-.1.1-.2.1-.3.2l.6 1.8 8.1-6.9c.1-.2.2-.3.3-.3z" fill="url(#N)" fill-rule="nonzero" transform="translate(81 15)"/><path d="M161.1 25.2l.2.7 2.7-.9 5.8-4.9c.1-.1.2-.1.3-.2l-.6-1.8-8.1 6.9c-.1.1-.2.1-.3.2z" fill="url(#O)" fill-rule="nonzero" transform="translate(81 15)"/><path fill="url(#P)" fill-rule="nonzero" d="M165 37.1l.4 1.2 2.5-2.1" transform="translate(81 15)"/><path d="M170.3 41.7l-2.7 2.3c-.1.1-.2.1-.3.2l.6 1.8 2.6-2.2c-.2-.8-.2-1.5-.2-2.1z" fill="url(#Q)" fill-rule="nonzero" transform="translate(81 15)"/><path d="M175.1 35l-.4-1.1-1.6.5-6.7 5.7c-.1.1-.2.1-.3.2l.6 1.8 8.1-6.9c.1-.1.2-.1.3-.2z" fill="url(#R)" fill-rule="nonzero" transform="translate(81 15)"/><path d="M171.5 45.5l-2.6 2.2c-.1.1-.2.1-.3.2l.6 1.8 3.7-3.1c-.6-.3-1-.7-1.4-1.1z" fill="url(#S)" fill-rule="nonzero" transform="translate(81 15)"/><path d="M164 25l5.2-1.7 1.6-1.4.3-.3c.4-.4.5-1 .1-1.5-.3-.3-.7-.4-1.1-.3-.1 0-.2.1-.3.2l-5.8 5z" fill="url(#T)" fill-rule="nonzero" transform="translate(81 15)"/><path d="M166.6 15.8l-5.2 1.7-2.2 1.9-.3.3c-.4.4-.5 1-.1 1.5l.3.3c.2.1.5.1.8.1.1 0 .2-.1.3-.2l6.4-5.6z" fill="url(#U)" fill-rule="nonzero" transform="translate(81 15)"/><path d="M175 47.4c-.8-.2-1.6-.5-2.2-.9l-3.7 3.1-.3.3c-.4.4-.5 1-.1 1.5l.3.3c.3.1.6.1.8 0 .1 0 .2-.1.3-.2l4.9-4.1z" fill="url(#V)" fill-rule="nonzero" transform="translate(81 15)"/><path d="M173.2 34.5l-5.2 1.7-2.5 2.1-.3.3c-.4.4-.5 1-.1 1.5l.3.3c.2.1.5.1.8.1.1 0 .2-.1.3-.2l6.7-5.8z" fill="url(#W)" fill-rule="nonzero" transform="translate(81 15)"/><path d="M170.3 41.7c.1-1.1.6-2 .6-2 .1-.3.5-.4.7-.2.1 0 .1.1.2.1 1.1-1.3 2.8-2.3 4.5-3 .2-.4.2-.9-.1-1.2-.3-.3-.7-.4-1.1-.3-.1 0-.2.1-.3.2l-8.1 6.9-.3.3c-.4.4-.5 1-.1 1.5l.3.3c.2.1.5.1.8.1.1 0 .2-.1.3-.2l2.6-2.5z" fill="url(#X)" fill-rule="nonzero" transform="translate(81 15)"/><path d="M171.5 45.5c-.3-.4-.6-.7-.8-1.2-.1-.2-.2-.4-.2-.7l-2.6 2.2-.3.3c-.4.4-.5 1-.1 1.5l.3.3c.2.1.5.1.8.1.1 0 .2-.1.3-.2l2.6-2.3z" fill="url(#Y)" fill-rule="nonzero" transform="translate(81 15)"/><path d="M161.1 25.2c.1 0 .2-.1.3-.2l8.1-6.9.3-.3c.4-.4.5-1 .1-1.5-.3-.3-.7-.4-1.1-.3-.1 0-.2.1-.3.2l-8.1 6.9-.3.3c-.4.4-.5 1-.1 1.5l.3.3c.3 0 .5.1.8 0z" fill="url(#Z)" fill-rule="nonzero" transform="translate(81 15)"/><path fill="url(#aa)" fill-rule="nonzero" d="M165.6 4.8l-11 3.6 3 9.2 11-3.7" transform="translate(81 15)"/><path fill="url(#ab)" fill-rule="nonzero" d="M174.8 32.7l-3-9.1-11 3.6 3 9.2" transform="translate(81 15)"/><path d="M160.8 38.5l3.2-1.1.3 1-.2.1c-1.5.7-3.2 1.6-5.1 2.9-2.4 1.6-4.4 3.1-6.3 4.9-2.5 2.5-4.6 5.2-6.1 8.2-1.8 3.5-3 7.4-3.5 11.5 0 .4-.1.8-.1 1.3v3.9c-.1 1.1-.2 2.3-.4 3.8-.4 2.3-1.1 4.5-2 6.4-.4.8-.9 1.5-1.4 2.1-.4.5-.9 1-1.6 1.5-.9.7-1.9 1.1-3.1 1.3h-.1c-.5.1-.9.1-1.3.1h-.2c-.6 0-1.3-.1-1.8-.2h-.1c-1.2-.3-2.3-.9-3.2-1.7-.5-.4-.9-.9-1.3-1.4-.3-.4-.6-.9-1-1.5-.1-.1-.1-.3-.2-.4-.1-.1-.1-.2-.2-.4l-.3-.6-.1-.2-.1-.2v-.1l-.1-.2c0-.1-.1-.1-.1-.2-.1-.2-.2-.3-.2-.5v-.1c-.1-.3-.3-.5-.4-.8v-.1l-.3-.6c-.2-.3-.3-.6-.5-.9 0-.1-.1-.1-.1-.2-.1-.7-.1-1.5-.1-2.3 7.3-2.6 12.2-9.4 12.2-17.3 0-5.2-2.1-10-5.9-13.5v-1.1c0-19.5-15.9-35.4-35.4-35.4S58.3 22.4 58.3 41.9V43c-3.3 3.1-5.4 7.2-5.8 11.6l2.2.9c.1-1.5.4-3 .9-4.4.4-1.1.9-2.2 1.5-3.2.2-.4.5-.7.7-1.1.5-.7 1.1-1.4 1.7-2 .3-.3.6-.6 1-.9 0-.7-.1-1.4-.1-2.1 0-2.3.2-4.5.7-6.7.2-1.1.5-2.1.8-3.2.5-1.6 1.1-3.1 1.8-4.5.5-1 1-1.9 1.5-2.8.6-.9 1.2-1.8 1.8-2.6.3-.4.6-.8 1-1.3 4.4-5.3 10.4-9.3 17.3-11 2-.5 4-.8 6.2-1 .7 0 1.4-.1 2.1-.1 2.1 0 4.1.2 6 .6.7.1 1.3.3 1.9.4.2.1.4.1.6.2 2.8.8 5.5 1.9 8 3.3 1.2.7 2.4 1.5 3.6 2.4 1.1.9 2.2 1.8 3.2 2.8 4 4 7 9.1 8.6 14.8.1.2.1.4.2.6.6 2.6 1 5.2 1 8 0 .7 0 1.4-.1 2.1 1.8 1.5 3.3 3.3 4.3 5.5 1 2.1 1.6 4.5 1.6 7 0 5.7-2.9 10.7-7.4 13.5-.7.5-1.5.9-2.3 1.3-.7.3-1.4.5-2.1.7-1.3.2-2.4.3-3 .3h-.5c-.3 0-.6.3-.6.6s.2.6.6.6h.3c.5 0 1.5-.1 2.8-.3.1 1.2.1 2.4.2 3.5.1.2.2.3.3.5.1.2.2.5.4.7.1.2.3.5.4.8.1.3.3.5.4.8.1.1.1.3.2.4.1.1.2.3.2.4.1.1.1.3.2.5s.2.3.2.5c.1.3.3.6.5.9l.6.9c.2.3.4.6.7.9.5.6 1 1.2 1.6 1.7 1 .8 2.1 1.5 3.3 1.9.3.1.5.2.8.3.7.2 1.5.3 2.2.3h.4c.6 0 1.2-.1 1.8-.2.7-.1 1.4-.3 2.1-.6.7-.3 1.3-.7 2-1.1.6-.5 1.3-1.1 1.9-1.8.6-.7 1.2-1.6 1.7-2.6 1-2 1.8-4.4 2.3-7.1.2-1.3.4-2.7.5-4.1V68.8 67c0-.5.1-1.1.1-1.6.4-3.9 1.6-7.6 3.2-10.7.4-.8.8-1.5 1.3-2.2l1.5-2.1c.7-.9 1.5-1.8 2.2-2.6l.8-.8c2-1.9 4-3.4 5.8-4.6l.1-.1c1.4-.9 2.7-1.6 3.8-2.2.3-.2.7-.3 1-.5l1.3 3.9.4 1.1.6 1.7 1.4 4.3v.1c-1.1.9-2.3 1.4-3.2 1.4l-1.5 2.1c-.5.8-1 1.7-1.4 2.6-.4.9-.8 1.8-1.1 2.7-.1.5-.3.9-.4 1.4-.3 1.5-.5 3-.4 4.6v1.7c0 .4.1.8.1 1.2 0 .5.1.9.1 1.4.1 1.9.1 3.8 0 5.8v.4c1.1.3 1.6 2.3 1.1 4.4-.4 1.7-1.4 3-2.4 3.3-.4 1.4-.8 2.8-1.4 4.3-.2.5-.4 1-.7 1.6-.7 1.6-1.6 3.1-2.6 4.6-.7 1-1.5 2-2.3 2.9.2.1.4.2.5.4.5.7.2 1.9-.7 3 1.7-1.5 3.1-3.2 4.4-4.9 1.4-2 2.6-4.2 3.5-6.6 1.6-4 2.6-8.4 2.9-13.1.1-2 .1-4.1 0-6.1 0-.3 0-.7-.1-1v-.4l-.1-1.2V66.3v0-.1-.4-.3c0-2 .2-3.8.7-5.4.3-.9.7-1.8 1-2.4.4-.8.8-1.5 1.3-2.3.5-.7 1-1.5 1.5-2.2.5-.6 1-1.2 1.6-1.9.4.7 1 1.3 1.8 1.7.5.2 1.1.4 1.7.4.4 0 .8-.1 1.2-.2l4.4-1.4c1-.3 1.8-1 2.3-2 .5-.9.6-2 .2-3l-.2-.7c-.4.1-.7.2-1.1.2l.3.8c.5 1.5-.3 3.1-1.8 3.6l-4.4 1.4c-.3.1-.6.1-.9.1-1 0-2-.6-2.5-1.5-.3.1-.6.1-.8 0-.1-.1-.2-.1-.3-.3-.4-.4-.3-1.1.1-1.5l.3-.3-.6-1.8c-.3.1-.5.1-.8-.1-.1-.1-.2-.1-.3-.3-.4-.4-.3-1.1.1-1.5l.3-.3-.6-1.8c-.3.1-.5.1-.8-.1-.1-.1-.2-.1-.3-.3-.4-.4-.3-1.1.1-1.5l.3-.3-.6-1.8c-.3.1-.5.1-.8-.1-.1-.1-.2-.1-.3-.3-.4-.4-.3-1.1.1-1.5l.3-.3-.4-1.2 2.9-1 5.2-1.7 1.6-.5.4 1.1c.4-.1.8 0 1.1.3.3.4.3.9.1 1.2.2-.1.3-.1.5-.2l-.3-.9-.6-2 3.2-1.1c.9-.3 1.6-.9 2-1.7.4-.8.5-1.7.2-2.6l-1.6-4.8c-.6-1.8-2.5-2.7-4.3-2.2l-3.2 1.1-2.5-7.5 3.2-1.1c.9-.3 1.6-.9 2-1.7.1-.2.2-.4.2-.6.1-.2.1-.4.1-.6 0-.4 0-.9-.2-1.3l-1.6-4.8c-.3-.9-.9-1.6-1.7-2-.8-.4-1.7-.5-2.6-.2l-18.3 6c-1.8.6-2.7 2.5-2.2 4.3l1.6 4.8c.3.9.9 1.6 1.7 2 .5.2 1 .4 1.5.4.4 0 .7-.1 1.1-.2l3.2-1.1 2.5 7.5-3.2 1.1c-.9.3-1.6.9-2 1.7-.4.8-.5 1.7-.2 2.6l1.6 4.8c.3.9.9 1.6 1.7 2 .4.2.9.3 1.4.3h.2c.3 1.9.6 1.8 1 1.7zm14.9-16.2c1.2-.4 2.5.3 2.9 1.5l1.6 4.8c.2.6.1 1.2-.1 1.7-.3.5-.7.9-1.3 1.1l-2.8.9-3-9.2 2.7-.8zm-6.2-18.8c.6-.2 1.2-.1 1.7.1.5.3.9.7 1.1 1.3l1.6 4.8c.2.6.1 1.2-.1 1.7-.3.5-.7.9-1.3 1.1l-2.8.9-3-9.2 2.8-.7zm-11.7 14.6l-3.4 1.1c-1.5.5-3.1-.3-3.6-1.8l-1.6-4.8c-.5-1.5.3-3.1 1.8-3.6l3.4-1.1.2.5 11-3.6 3 9.2-11 3.6.2.5zm2.2 6.8c-.4-.4-.3-1.1.1-1.5l.3-.3-.6-1.8c-.3.1-.5.1-.8-.1-.1-.1-.2-.1-.3-.3-.4-.4-.3-1.1.1-1.5l.3-.3-.3-1 2.5-.8 5.2-1.7 2-.7.3.9c.4-.1.8 0 1.1.3.4.4.3 1.1-.1 1.5l-.3.3.6 1.8c.4-.1.8 0 1.1.3.4.4.3 1.1-.1 1.5l-.3.3.2.8-1.9.6L164 25l-2.7.9-.2-.7c-.3.1-.5.1-.8-.1-.1 0-.2-.1-.3-.2zm-3 11.3l-1.6-4.8c-.5-1.5.3-3.1 1.8-3.6l3.4-1.1.2.5 11-3.6 3 9.2-11 3.6.2.5-3.4 1.1c-1.5.5-3.1-.3-3.6-1.8z" fill="url(#ac)" fill-rule="nonzero" transform="translate(81 15)"/><path d="M164 36.9l-.2-.5-3-9.2-.2-.5-3.4 1.1c-1.5.5-2.3 2.1-1.8 3.6l1.6 4.8c.5 1.5 2.1 2.3 3.6 1.8l3.4-1.1z" fill="url(#ad)" fill-rule="nonzero" transform="translate(81 15)"/><path d="M154.4 7.9L151 9c-1.5.5-2.3 2.1-1.8 3.6l1.6 4.8c.5 1.5 2.1 2.3 3.6 1.8l3.4-1.1-.2-.5-3-9.2-.2-.5z" fill="url(#ae)" fill-rule="nonzero" transform="translate(81 15)"/><path d="M253.5 27.7c.6-.2 1-.6 1.3-1.1.3-.5.3-1.2.1-1.7l-1.6-4.8c-.2-.6-.6-1-1.1-1.3-.5-.3-1.2-.3-1.7-.1l-2.8.9 3 9.2 2.8-1.1zM259.7 46.5c.6-.2 1-.6 1.3-1.1.3-.5.3-1.2.1-1.7l-1.6-4.8c-.4-1.2-1.7-1.8-2.9-1.5l-2.8.9 3 9.2 2.9-1z" fill="#F9F9FA" fill-rule="nonzero"/><path d="M190.7 121.8c0-.2-.1-.4-.2-.6-.1-.3-.3-.5-.5-.7l-3.2-2.6c-.1-.1-.2-.1-.3-.2-.1-.1-.3-.1-.4-.2-.2-.1-.4-.1-.7-.1h-.2c-.4.1-.8.3-1.1.7l-2.2 2.7-.4-.4c-.9-.7-1.9-1.2-3-1.5-3-.8-6.3.2-8.7 2.5 1.8-.1 3.8.3 5.5 1.3.8-.2 1.5-.2 2.3 0 .6.1 1.1.4 1.5.8 1.5 1.2 1.9 3.4 1.1 5.5-.3.7-.8 1.4-1.5 2.3-.8.7-1.7 1.3-2.6 1.6-.9.3-1.8.3-2.6.1-.1 0-.1-.1-.2-.1-.5-.2-.9-.4-1.3-.7-.2-.2-.4-.3-.5-.5-.8 0-1.6 0-2.3-.1.1 0 .2.1.3.1.3.1.5.4.4.7-.1.2-.3.4-.5.4h-.1c-.7-.2-1.3-.4-1.9-.6l.6 1.2c-1.1-.3-2.9 0-4.3.8-1.9 1.1-3 2.9-2.4 3.9l.3.3c.8.7 2.6.6 4.3-.4 1.5-.9 2.9-2.2 3.1-3.2.2.2.4.4.6.5.3.2.5.4.8.6.7.4 1.4.7 2.2.9.1 0 .3 0 .4.1 3.3.7 6.9-.6 9.2-3.5.2-.2.3-.4.5-.7l3-3.7 4.6-5.6c.3-.6.5-1.1.4-1.6z" fill="url(#af)" fill-rule="nonzero" transform="translate(81 15)"/><path d="M126.4 68.5l-.1-.1c-.2-.3-.5-.6-.8-.7-.2-.1-.3-.1-.5-.1h-.2l-.1-.1c-7.8-4.7-17.8-11.7-21.3-17.9-.2-.5-.4-.9-.6-1.2-.5-.8-1.1-1.3-1.8-1.6-1.9-.8-4.5.3-7.3 3-2.9 2.8-5.5 7-7.5 11.8-3.9 9.7-3.8 19.3.3 20.9 1.2.5 2.7.3 4.3-.7l.1-.1c6.9-1.7 18.4.3 26.8 2.2h.2l.1.2c.2.2.4.4.6.5.4.2.8.1 1.3-.1l.2-.1h.2c.2.1.4.1.6.2 1.8-1.1 3.8-3.7 5.1-7 1.4-3.5 1.8-6.8 1.1-8.8-.2-.1-.4-.3-.7-.4v.1zm-23.7-6.6s0 .1 0 0c-.1.6-.3 1.2-.4 1.7 0 .1 0 .2-.1.3-.1.5-.3 1-.5 1.5 0 .1-.1.2-.1.3-.2.6-.4 1.2-.7 1.8-.2.6-.5 1.1-.7 1.7 0 .1-.1.2-.1.3-.3.5-.5 1-.8 1.5-2.9 5.3-6.6 8.7-9.6 8.7-.5 0-.9-.1-1.4-.3-1.9-.8-3-3.1-3-6.4-.1-3.2.7-7.1 2.3-11 1.6-3.9 3.7-7.2 6-9.5 2.4-2.4 4.8-3.3 6.7-2.5 2.8 1.2 3.7 6 2.4 11.9z" fill="#F9F9FA" fill-rule="nonzero"/><path d="M39.9 69.8c-.2-.1-.4-.1-.6-.2h-.2l-.2.1c-.5.2-1 .2-1.3.1-.2-.1-.4-.3-.6-.5l-.1-.2h-.2c-8.4-1.9-19.9-3.8-26.8-2.2l-.1.1c-1.6.9-3.1 1.1-4.3.7-4.1-1.7-4.2-11.2-.3-20.9 2-4.8 4.6-9 7.5-11.8 2.7-2.6 5.4-3.7 7.3-3 .7.3 1.3.8 1.8 1.6.2.3.4.7.6 1.2 3.5 6.2 13.5 13.1 21.3 17.9l.1.1h.2c.2 0 .4 0 .5.1.3.1.5.3.8.7l.1.1.1.1c.2.1.5.3.7.4-.3-.9-.7-1.5-1.4-1.8l1.9.8c-.2-.1-.3-.2-.5-.3-.3-.5-.7-.8-1.2-1-.2-.1-.5-.2-.8-.2-6.3-3.8-17.2-11.2-20.8-17.3-.2-.5-.4-.9-.7-1.3-.6-1-1.4-1.6-2.3-2-2.4-1-5.4.2-8.5 3.2-3 2.9-5.7 7.2-7.8 12.2C-.2 57.1.2 66.9 5 68.9c1.5.6 3.3.4 5.2-.7 6.6-1.6 17.8.3 26 2.1.3.3.6.5.9.7.5.2 1.1.2 1.7.1l-1.5-.6c.9 0 1.7-.2 2.6-.7z" fill="url(#ag)" fill-rule="nonzero" transform="translate(81 15)"/><path d="M133.7 88l2.5 1c1.1.5 3.4-1.5 4.9-5.1 1.5-3.6 1.2-6.6.1-7.1l-2.5-1c0 1.9-.5 4.2-1.4 6.5-1 2.4-2.3 4.4-3.6 5.7z" fill="#F9F9FA" fill-rule="nonzero"/><path d="M19.3 35c-1.9-.8-4.2.1-6.7 2.5-2.3 2.3-4.5 5.6-6 9.5-1.6 3.9-2.4 7.8-2.3 11 .1 3.4 1.2 5.7 3 6.4.4.2.9.3 1.4.3 3 0 6.8-3.4 9.6-8.7.3-.5.5-1 .8-1.5.1-.1.1-.2.1-.3.3-.5.5-1.1.7-1.7.2-.6.5-1.2.7-1.8 0-.1.1-.2.1-.3.2-.5.3-1 .5-1.5 0-.1 0-.2.1-.3.2-.6.3-1.1.4-1.7v-.1c1.3-5.8.4-10.6-2.4-11.8zm1.6 10.3c-.4 2.2-1 4.5-1.9 6.8-.9 2.3-2.1 4.4-3.3 6.2h-.1c-.9-.4-1.1-3.3.5-7.4.7-1.8 1.7-3.4 2.7-4.5.7-.8 1.4-1.2 1.9-1.2l.2.1c-.1-.1 0-.1 0 0z" fill="url(#ah)" fill-rule="nonzero" transform="translate(81 15)"/><path d="M18.7 46.4c-1 1.1-2 2.7-2.7 4.5-1.6 4-1.4 7-.5 7.4h.1c1.3-1.8 2.4-4 3.3-6.2.9-2.3 1.6-4.6 1.9-6.8H20.5c-.4-.1-1.1.3-1.8 1.1z" fill="url(#ai)" fill-rule="nonzero" transform="translate(81 15)"/><path d="M43.6 77.3c0-.1.1-.3.1-.4.1-.3.3-.5.6-.5.1 0 .2.1.3.2.2-.3.5-.5.7-.7.4-.5.8-.8 1.1-1.1.1-.1.3-.2.3-.2.1-.1.1-.1.2-.1s0 0 .1-.1H47.9c.2.1.3.1.5.1l.2.1c.9.4 2 0 3.2-.9.3-.2.6-.5.9-.8 1.3-1.3 2.6-3.3 3.5-5.7 1-2.4 1.4-4.7 1.4-6.5 0-.4 0-.9-.1-1.2-.2-1.4-.7-2.5-1.6-2.8l-1.8-.7-2.2-.9-1.9-.8-.8-.3-2.8-1.1-1.9-.8c.7.3 1.1.9 1.4 1.8.6 2 .3 5.4-1.1 8.8-1.3 3.3-3.3 5.9-5.1 7-.9.6-1.8.7-2.5.4l1.5.6h.1c-.1.2-.3.3-.4.5-.1.1-.2.2-.2.3 2.5 1.1 4.9 3.4 5.4 5.8z" fill="url(#aj)" fill-rule="nonzero" transform="translate(81 15)"/><g fill-rule="nonzero"><path d="M283.2 146.6l-6.8.9-5.3-38.5c-.4-3.1 1.6-6 4.7-6.7.2-.1.5.1.5.4l6.9 43.9z" fill="#C8C8CC"/><path d="M292.8 107.4c.2-.2.5-.2.6 0 2.1 2.3 2.1 5.9-.1 8.2L266.8 144l-5-4.7 31-31.9z" fill="#E1E1E6"/><path d="M.9 10.6c-.1 2.6.8 4.9 2.6 6.5.9.8 1.9 1.4 3 1.8 3.5 1.2 7.5 0 10.2-2.9l.6-.6 8.6-9.2c.4-.4.6-.9.5-1.4 0-.5-.2-1-.6-1.4L22.7.5c-.2-.2-.5-.4-.7-.4-.2-.1-.5-.1-.7-.1-.5 0-1 .2-1.4.6l-2.5 2.6-.4-.4c-.9-.8-1.9-1.4-3-1.8C10.5-.2 6.5 1 3.8 3.9 2 5.7 1 8.1.9 10.6zm5.8-4c1.6-1.7 4.1-2.5 6-1.8.6.2 1.1.5 1.5.9 1.5 1.4 1.7 3.7.8 5.8-.4.7-.9 1.5-1.7 2.3-1.6 1.4-3.8 2-5.5 1.4-.6-.2-1.1-.5-1.5-.9-.9-.9-1.4-2.1-1.3-3.5 0-1.5.6-3 1.7-4.2z" transform="translate(246 133)" fill="url(#ak)"/><path d="M.7 3.7l1.7 12.5c0 .3 0 .6.1.9C3 21 5.6 24.2 9 25.3c1.2.4 2.4.5 3.7.3 4.9-.7 8.2-5.6 7.5-11-.5-3.9-3.1-7.1-6.5-8.2-1.2-.4-2.4-.5-3.7-.3-.2 0-.4.1-.6.1l-.5-3.6c-.1-.8-.7-1.4-1.4-1.6-.3-.1-.6-.1-.9-.1l-4.2.6c-.5.1-1 .4-1.3.8-.3.3-.5.8-.4 1.4zm11.7 6.5c2 .6 3.4 2.6 3.7 4.9.4 3.2-1.4 6.1-4 6.4-.6.1-1.3 0-1.9-.2-1.8-.6-3.1-2.2-3.6-4.3v-.1c-.1-1.1-.2-2-.1-2.8.4-2.2 2-4 4-4.2.6 0 1.3.1 1.9.3z" transform="translate(274 137)" fill="url(#al)"/><path d="M277.1 126c1.2 0 2.3.9 2.3 2.2 0 1.2-.9 2.3-2.2 2.3-1.3 0-2.3-.9-2.3-2.2 0-1.2.9-2.2 2.2-2.3z" fill="#C8C8CC"/></g><path d="M36.2 88.9s.1 0 0 0l.2-.2.1-.1c.1-.2.3-.4.5-.6.2-.3.5-.7.8-1.2.3-.5.5-1 .7-1.5.2-.5.4-1.1.6-1.7 0 0 0-.1.1-.1.1-.2.2-.5.3-.7 0-.1.1-.1.1-.2h-.4c-1.4 0-2.8-.4-4.1-.7-1.1-.3-2-.8-2.8-1.3-.1.2-.1.4-.2.6-.1.4-.2.7-.3 1-.1.3-.2.6-.2.9-.1.3-.1.7-.2 1 0 .2-.1.4-.1.6v2.6c.1.7.5 1.3 1 1.7.6.5 1.4.8 2.3.6.1 0 .2-.1.3-.1.2-.1.4-.1.6-.2.4-.1.6-.3.7-.4z" fill="url(#am)" fill-rule="nonzero" transform="translate(81 15)"/><path d="M176.3 36.6c-1.7.6-3.4 1.7-4.5 3 .2.2.2.4.1.6 0 0-1 2-.2 3.7.5 1.2 1.8 2 3.8 2.5.3.1.5.4.4.7-.1.3-.3.4-.5.4h-.1c-.1 0-.1 0-.2-.1l-4.8 4.1c-.1.1-.2.1-.3.2.5.9 1.5 1.5 2.5 1.5.3 0 .6 0 .9-.1l4.4-1.4c1.5-.5 2.3-2.1 1.8-3.6l-.3-.8c.4-.1.7-.1 1.1-.2.7-.2 1.4-.5 2-.9 3.7-2.4 3.3-8.5-2-10.3-.6-.2-1.8-.1-3.1.3-.2 0-.3.1-.5.2s-.3.1-.5.2z" fill="url(#an)" fill-rule="nonzero" transform="translate(81 15)"/><path d="M166.8 122.9s-2.6 2.9-1.9 5.4c.4 1.4 1.8 2.5 4.2 3.2.7.1 1.5.1 2.3.1h.1c.9 0 1.7-.1 2.5-.3 1-.2 2-.6 2.7-1.2.5-.4.9-.9 1.2-1.5 1-2.6-.4-4.6-2.6-5.8-1.6-.9-3.7-1.4-5.5-1.3-.7 0-1.4.2-2 .4-.3.1-.6.3-1 .6.1.1.1.3 0 .4z" fill="url(#ao)" fill-rule="nonzero" transform="translate(81 15)"/><path d="M35.5 80.8c2.9.9 4.8.9 6.1.1 1-.6 1.7-1.8 2-3.6-.5-2.4-2.8-4.7-5.3-5.7-.8-.3-1.6-.6-2.3-.6-1.5-.1-4.1 1-5.2 3 .2.1.3.4.2.6-.1.2-1.2 4.5 4.5 6.2z" fill="url(#ap)" fill-rule="nonzero" transform="translate(81 15)"/><path d="M6.9 125.8s-.1 2.1 1.4 3.3c1.2 1 3.1 1.2 5.6.7 1.7-.4 3.9-1.5 4.9-3.3.6-1 .7-2.2.3-3.4-.1-.2 0-.4.2-.6-.3-.5-.8-.9-1.3-1.2l-1.2-.6-.4-3.7c1.5-.7 2.7-1.7 3.7-2.9 1.7-2.1 2.6-4.8 2.3-7.6-.4-3.8-2.7-6.8-5.9-8.3l.8 7.7c0 .4-.1.8-.3 1.1-.3.3-.6.5-1 .6l-3.6.4-2 .2h-.2c-.8 0-1.5-.6-1.5-1.4l-.8-7.7c-.7.5-1.3 1.1-1.8 1.7-1.7 2.1-2.6 4.8-2.3 7.6.5 4.5 3.7 8 7.8 9.1l.3 2.9c-1.1.2-2.1.5-2.9 1-.2.1-.3.2-.5.3-.8.6-1.7 2-2 3.5.3.2.4.4.4.6z" fill="url(#aq)" fill-rule="nonzero" transform="translate(81 15)"/><path d="M170.9 39.7c0 .1-.4.9-.6 2-.1.6-.1 1.3.1 2 .1.2.1.4.2.7.2.4.5.8.8 1.2.4.4.8.7 1.3 1 .6.4 1.3.6 2.2.9.1 0 .1 0 .2.1h.1c.3 0 .5-.2.5-.4.1-.3-.1-.6-.4-.7-1.9-.5-3.2-1.3-3.8-2.5-.8-1.7.2-3.7.2-3.7.1-.2.1-.5-.1-.6 0 0-.1-.1-.2-.1 0-.3-.3-.2-.5.1z" fill="url(#ar)" fill-rule="nonzero" transform="translate(81 15)"/></g></svg>