<svg xmlns="http://www.w3.org/2000/svg" xmlns:xlink="http://www.w3.org/1999/xlink" viewBox="0 0 352 303"><defs><style>.cls-1{fill:none;}.cls-2{fill:#eaeaee;}.cls-3{fill:#f9f9fa;}.cls-4{fill:#fff;}.cls-5{fill:#fafafa;}.cls-6{fill:url(#linear-gradient);}.cls-7{fill:url(#linear-gradient-2);}.cls-8{fill:url(#linear-gradient-3);}.cls-9{fill:url(#linear-gradient-4);}.cls-10{fill:url(#linear-gradient-5);}.cls-11{fill:url(#linear-gradient-6);}.cls-12{fill:url(#linear-gradient-7);}.cls-13{fill:url(#linear-gradient-8);}.cls-14{fill:url(#linear-gradient-9);}.cls-15{fill:url(#linear-gradient-10);}.cls-16{fill:url(#linear-gradient-11);}.cls-17{fill:url(#linear-gradient-12);}.cls-18{fill:url(#linear-gradient-13);}.cls-19{fill:url(#linear-gradient-14);}.cls-20{fill:url(#linear-gradient-15);}.cls-21{fill:url(#linear-gradient-16);}.cls-22{fill:url(#linear-gradient-17);}.cls-23{fill:url(#linear-gradient-18);}.cls-24{fill:url(#linear-gradient-19);}.cls-25{fill:url(#linear-gradient-20);}.cls-26{fill:url(#linear-gradient-21);}.cls-27{fill:url(#linear-gradient-22);}.cls-28{fill:url(#linear-gradient-23);}.cls-29{fill:url(#linear-gradient-24);}.cls-30{fill:url(#linear-gradient-25);}.cls-31{fill:url(#linear-gradient-26);}.cls-32{fill:url(#linear-gradient-27);}.cls-33{fill:url(#linear-gradient-28);}.cls-34{fill:url(#linear-gradient-29);}.cls-35{fill:url(#linear-gradient-30);}.cls-36{fill:url(#linear-gradient-31);}.cls-37{fill:url(#linear-gradient-32);}.cls-38{fill:url(#linear-gradient-33);}.cls-39{fill:url(#linear-gradient-34);}.cls-40{fill:url(#linear-gradient-35);}.cls-41{fill:url(#linear-gradient-36);}.cls-42{fill:url(#linear-gradient-37);}.cls-43{fill:url(#linear-gradient-38);}.cls-44{fill:url(#linear-gradient-39);}.cls-45{fill:url(#linear-gradient-40);}.cls-46{fill:url(#linear-gradient-41);}.cls-47{fill:url(#linear-gradient-42);}.cls-48{fill:url(#linear-gradient-43);}.cls-49{fill:url(#linear-gradient-44);}.cls-50{fill:url(#linear-gradient-45);}.cls-51{fill:url(#linear-gradient-46);}.cls-52{fill:url(#linear-gradient-47);}.cls-53{fill:url(#linear-gradient-48);}.cls-54{fill:url(#linear-gradient-49);}.cls-55{fill:url(#linear-gradient-50);}.cls-56{fill:url(#linear-gradient-51);}.cls-57{fill:url(#linear-gradient-52);}.cls-58{fill:url(#linear-gradient-53);}.cls-59{fill:url(#linear-gradient-54);}.cls-60{fill:url(#linear-gradient-55);}.cls-61{fill:url(#linear-gradient-56);}.cls-62{fill:url(#linear-gradient-57);}.cls-63{fill:url(#linear-gradient-58);}.cls-64{fill:url(#linear-gradient-59);}.cls-65{fill:url(#linear-gradient-60);}.cls-66{fill:url(#linear-gradient-61);}.cls-67{fill:url(#linear-gradient-62);}.cls-68{fill:url(#linear-gradient-63);}.cls-69{fill:url(#linear-gradient-64);}.cls-70{fill:url(#linear-gradient-65);}.cls-71{fill:url(#linear-gradient-66);}.cls-72{fill:url(#linear-gradient-67);}.cls-73{fill:url(#linear-gradient-68);}.cls-74{fill:url(#linear-gradient-69);}.cls-75{fill:url(#linear-gradient-70);}.cls-76{fill:url(#linear-gradient-71);}.cls-77{fill:url(#linear-gradient-72);}.cls-78{fill:url(#linear-gradient-73);}</style><linearGradient id="linear-gradient" x1="21.74" y1="73.74" x2="335.38" y2="387.38" gradientUnits="userSpaceOnUse"><stop offset="0" stop-color="#fffbcc"/><stop offset="1" stop-color="#cef7c6"/></linearGradient><linearGradient id="linear-gradient-2" x1="116.37" y1="-20.89" x2="430.01" y2="292.75" xlink:href="#linear-gradient"/><linearGradient id="linear-gradient-3" x1="91" y1="4.48" x2="404.64" y2="318.12" xlink:href="#linear-gradient"/><linearGradient id="linear-gradient-4" x1="55.2" y1="40.28" x2="368.84" y2="353.92" xlink:href="#linear-gradient"/><linearGradient id="linear-gradient-5" x1="201.38" y1="78.55" x2="388.15" y2="265.32" gradientUnits="userSpaceOnUse"><stop offset="0" stop-color="#d7b600"/><stop offset="1" stop-color="#05a700"/></linearGradient><linearGradient id="linear-gradient-6" x1="224.11" y1="55.83" x2="410.87" y2="242.59" xlink:href="#linear-gradient-5"/><linearGradient id="linear-gradient-7" x1="220.66" y1="59.28" x2="407.42" y2="246.04" xlink:href="#linear-gradient-5"/><linearGradient id="linear-gradient-8" x1="197.5" y1="82.44" x2="384.26" y2="269.2" xlink:href="#linear-gradient-5"/><linearGradient id="linear-gradient-9" x1="31.21" y1="64.27" x2="344.85" y2="377.91" xlink:href="#linear-gradient"/><linearGradient id="linear-gradient-10" x1="164.86" y1="115.07" x2="351.63" y2="301.84" xlink:href="#linear-gradient-5"/><linearGradient id="linear-gradient-11" x1="-45.64" y1="-135.28" x2="496.78" y2="407.15" xlink:href="#linear-gradient"/><linearGradient id="linear-gradient-12" x1="135.74" y1="144.2" x2="322.5" y2="330.96" xlink:href="#linear-gradient-5"/><linearGradient id="linear-gradient-13" x1="133.49" y1="146.45" x2="320.25" y2="333.21" xlink:href="#linear-gradient-5"/><linearGradient id="linear-gradient-14" x1="246.76" y1="277.02" x2="331.37" y2="277.02" xlink:href="#linear-gradient"/><linearGradient id="linear-gradient-15" x1="145.3" y1="134.63" x2="332.06" y2="321.4" xlink:href="#linear-gradient-5"/><linearGradient id="linear-gradient-16" x1="146.94" y1="132.99" x2="333.71" y2="319.76" xlink:href="#linear-gradient-5"/><linearGradient id="linear-gradient-17" x1="145.49" y1="134.44" x2="332.25" y2="321.21" xlink:href="#linear-gradient-5"/><linearGradient id="linear-gradient-18" x1="3360.07" y1="1066.65" x2="3432.07" y2="1066.65" gradientTransform="translate(3689.18 1320.08) rotate(180)" xlink:href="#linear-gradient"/><linearGradient id="linear-gradient-19" x1="3260.75" y1="932.54" x2="3447.52" y2="1119.31" gradientTransform="translate(3689.18 1320.08) rotate(180)" xlink:href="#linear-gradient-5"/><linearGradient id="linear-gradient-20" x1="3262.28" y1="931.02" x2="3449.04" y2="1117.78" gradientTransform="translate(3689.18 1320.08) rotate(180)" xlink:href="#linear-gradient-5"/><linearGradient id="linear-gradient-21" x1="3260.83" y1="932.47" x2="3447.59" y2="1119.23" gradientTransform="translate(3689.18 1320.08) rotate(180)" xlink:href="#linear-gradient-5"/><linearGradient id="linear-gradient-22" x1="261.33" y1="231.95" x2="333.07" y2="231.95" xlink:href="#linear-gradient"/><linearGradient id="linear-gradient-23" x1="172.02" y1="107.91" x2="358.79" y2="294.67" xlink:href="#linear-gradient-5"/><linearGradient id="linear-gradient-24" x1="173.35" y1="106.58" x2="360.11" y2="293.35" xlink:href="#linear-gradient-5"/><linearGradient id="linear-gradient-25" x1="172.23" y1="107.71" x2="358.99" y2="294.47" xlink:href="#linear-gradient-5"/><linearGradient id="linear-gradient-26" x1="3387.65" y1="1049.72" x2="3459.39" y2="1049.72" gradientTransform="translate(3686.65 1262.84) rotate(180)" xlink:href="#linear-gradient"/><linearGradient id="linear-gradient-27" x1="3295.19" y1="922.52" x2="3481.95" y2="1109.28" gradientTransform="translate(3686.65 1262.84) rotate(180)" xlink:href="#linear-gradient-5"/><linearGradient id="linear-gradient-28" x1="3296.51" y1="921.19" x2="3483.28" y2="1107.95" gradientTransform="translate(3686.65 1262.84) rotate(180)" xlink:href="#linear-gradient-5"/><linearGradient id="linear-gradient-29" x1="3295.39" y1="922.32" x2="3482.15" y2="1109.08" gradientTransform="translate(3686.65 1262.84) rotate(180)" xlink:href="#linear-gradient-5"/><linearGradient id="linear-gradient-30" x1="178.1" y1="281.25" x2="262.71" y2="281.25" xlink:href="#linear-gradient"/><linearGradient id="linear-gradient-31" x1="108.86" y1="171.07" x2="295.62" y2="357.84" xlink:href="#linear-gradient-5"/><linearGradient id="linear-gradient-32" x1="110.5" y1="169.43" x2="297.27" y2="356.2" xlink:href="#linear-gradient-5"/><linearGradient id="linear-gradient-33" x1="109.05" y1="170.89" x2="295.81" y2="357.65" xlink:href="#linear-gradient-5"/><linearGradient id="linear-gradient-34" x1="162.39" y1="257.66" x2="234.39" y2="257.66" xlink:href="#linear-gradient"/><linearGradient id="linear-gradient-35" x1="109.73" y1="170.21" x2="296.49" y2="356.97" xlink:href="#linear-gradient-5"/><linearGradient id="linear-gradient-36" x1="111.25" y1="168.68" x2="298.01" y2="355.45" xlink:href="#linear-gradient-5"/><linearGradient id="linear-gradient-37" x1="109.8" y1="170.14" x2="296.56" y2="356.9" xlink:href="#linear-gradient-5"/><linearGradient id="linear-gradient-38" x1="3320.21" y1="1059.55" x2="3391.94" y2="1059.55" gradientTransform="translate(3553.96 1296.08) rotate(180)" xlink:href="#linear-gradient"/><linearGradient id="linear-gradient-39" x1="3276.86" y1="981.46" x2="3463.62" y2="1168.23" gradientTransform="translate(3553.96 1296.08) rotate(180)" xlink:href="#linear-gradient-5"/><linearGradient id="linear-gradient-40" x1="3278.19" y1="980.14" x2="3464.95" y2="1166.9" gradientTransform="translate(3553.96 1296.08) rotate(180)" xlink:href="#linear-gradient-5"/><linearGradient id="linear-gradient-41" x1="3277.06" y1="981.26" x2="3463.82" y2="1168.02" gradientTransform="translate(3553.96 1296.08) rotate(180)" xlink:href="#linear-gradient-5"/><linearGradient id="linear-gradient-42" x1="176.24" y1="217.35" x2="247.97" y2="217.35" xlink:href="#linear-gradient"/><linearGradient id="linear-gradient-43" x1="136.78" y1="143.16" x2="323.54" y2="329.92" xlink:href="#linear-gradient-5"/><linearGradient id="linear-gradient-44" x1="138.1" y1="141.83" x2="324.87" y2="328.6" xlink:href="#linear-gradient-5"/><linearGradient id="linear-gradient-45" x1="136.98" y1="142.96" x2="323.74" y2="329.72" xlink:href="#linear-gradient-5"/><linearGradient id="linear-gradient-46" x1="207.33" y1="284.51" x2="291.94" y2="284.51" xlink:href="#linear-gradient"/><linearGradient id="linear-gradient-47" x1="121.84" y1="158.09" x2="308.61" y2="344.86" xlink:href="#linear-gradient-5"/><linearGradient id="linear-gradient-48" x1="123.48" y1="156.45" x2="310.25" y2="343.21" xlink:href="#linear-gradient-5"/><linearGradient id="linear-gradient-49" x1="122.03" y1="157.9" x2="308.8" y2="344.67" xlink:href="#linear-gradient-5"/><linearGradient id="linear-gradient-50" x1="3335.52" y1="1069.6" x2="3407.52" y2="1069.6" gradientTransform="translate(3606.16 1330.08) rotate(180)" xlink:href="#linear-gradient"/><linearGradient id="linear-gradient-51" x1="3261.91" y1="961.21" x2="3448.67" y2="1147.97" gradientTransform="translate(3606.16 1330.08) rotate(180)" xlink:href="#linear-gradient-5"/><linearGradient id="linear-gradient-52" x1="3263.43" y1="959.68" x2="3450.2" y2="1146.45" gradientTransform="translate(3606.16 1330.08) rotate(180)" xlink:href="#linear-gradient-5"/><linearGradient id="linear-gradient-53" x1="3261.98" y1="961.14" x2="3448.74" y2="1147.9" gradientTransform="translate(3606.16 1330.08) rotate(180)" xlink:href="#linear-gradient-5"/><linearGradient id="linear-gradient-54" x1="421.99" y1="1411.43" x2="491.05" y2="1411.43" gradientTransform="translate(976.24 -1126.27) rotate(45)" xlink:href="#linear-gradient"/><linearGradient id="linear-gradient-55" x1="350.36" y1="1306.39" x2="537.13" y2="1493.16" gradientTransform="translate(976.24 -1126.27) rotate(45)" xlink:href="#linear-gradient-5"/><linearGradient id="linear-gradient-56" x1="351.7" y1="1305.05" x2="538.47" y2="1491.82" gradientTransform="translate(976.24 -1126.27) rotate(45)" xlink:href="#linear-gradient-5"/><linearGradient id="linear-gradient-57" x1="350.52" y1="1306.24" x2="537.28" y2="1493" gradientTransform="translate(976.24 -1126.27) rotate(45)" xlink:href="#linear-gradient-5"/><linearGradient id="linear-gradient-58" x1="206.74" y1="239.35" x2="278.47" y2="239.35" xlink:href="#linear-gradient"/><linearGradient id="linear-gradient-59" x1="141.03" y1="138.91" x2="327.79" y2="325.67" xlink:href="#linear-gradient-5"/><linearGradient id="linear-gradient-60" x1="142.36" y1="137.58" x2="329.12" y2="324.34" xlink:href="#linear-gradient-5"/><linearGradient id="linear-gradient-61" x1="141.23" y1="138.7" x2="327.99" y2="325.47" xlink:href="#linear-gradient-5"/><linearGradient id="linear-gradient-62" x1="3334.46" y1="1052.97" x2="3406.2" y2="1052.97" gradientTransform="translate(3602.15 1273.84) rotate(180)" xlink:href="#linear-gradient"/><linearGradient id="linear-gradient-63" x1="3281.97" y1="965.75" x2="3468.74" y2="1152.51" gradientTransform="translate(3602.15 1273.84) rotate(180)" xlink:href="#linear-gradient-5"/><linearGradient id="linear-gradient-64" x1="3283.3" y1="964.42" x2="3470.06" y2="1151.18" gradientTransform="translate(3602.15 1273.84) rotate(180)" xlink:href="#linear-gradient-5"/><linearGradient id="linear-gradient-65" x1="3282.18" y1="965.55" x2="3468.94" y2="1152.31" gradientTransform="translate(3602.15 1273.84) rotate(180)" xlink:href="#linear-gradient-5"/><linearGradient id="linear-gradient-66" x1="3332.25" y1="1044.98" x2="3403.98" y2="1044.98" gradientTransform="translate(3594.65 1246.84) rotate(180)" xlink:href="#linear-gradient"/><linearGradient id="linear-gradient-67" x1="3291.9" y1="969.91" x2="3478.67" y2="1156.67" gradientTransform="translate(3594.65 1246.84) rotate(180)" xlink:href="#linear-gradient-5"/><linearGradient id="linear-gradient-68" x1="3293.23" y1="968.58" x2="3479.99" y2="1155.35" gradientTransform="translate(3594.65 1246.84) rotate(180)" xlink:href="#linear-gradient-5"/><linearGradient id="linear-gradient-69" x1="3292.1" y1="969.71" x2="3478.87" y2="1156.47" gradientTransform="translate(3594.65 1246.84) rotate(180)" xlink:href="#linear-gradient-5"/><linearGradient id="linear-gradient-70" x1="198.07" y1="182.85" x2="269.8" y2="182.85" xlink:href="#linear-gradient"/><linearGradient id="linear-gradient-71" x1="164.94" y1="114.99" x2="351.71" y2="301.75" xlink:href="#linear-gradient-5"/><linearGradient id="linear-gradient-72" x1="166.27" y1="113.66" x2="353.03" y2="300.43" xlink:href="#linear-gradient-5"/><linearGradient id="linear-gradient-73" x1="165.15" y1="114.79" x2="351.91" y2="301.55" xlink:href="#linear-gradient-5"/></defs><title>Artboard 1</title><g id="Layer_1" data-name="Layer 1"><rect class="cls-1" width="352" height="303"/></g><g id="Layer_2" data-name="Layer 2"><ellipse class="cls-2" cx="129.76" cy="293.33" rx="35.34" ry="4.58"/><path class="cls-3" d="M11.25,224.86a6.23,6.23,0,0,1-6.38-6.06V69.22a6.77,6.77,0,0,1,6.77-6.77H172.21A6.77,6.77,0,0,1,179,69.22V218.8a6.23,6.23,0,0,1-6.37,6.06Z"/><path class="cls-2" d="M172.21,63.86a5.36,5.36,0,0,1,5.36,5.36V218.8a4.82,4.82,0,0,1-5,4.65H11.25a4.82,4.82,0,0,1-5-4.65V69.22a5.36,5.36,0,0,1,5.36-5.36H172.21m0-2.82H11.64a8.18,8.18,0,0,0-8.17,8.17V218.8a7.64,7.64,0,0,0,7.78,7.47H172.6a7.64,7.64,0,0,0,7.78-7.47V69.22A8.18,8.18,0,0,0,172.21,61Z"/><g id="Layer_8" data-name="Layer 8"><path class="cls-2" d="M170.74,90.51v124c0,1.25-.15,1.49-.18,1.53s-.28.18-1.52.18H14.81c-1.24,0-1.49-.15-1.52-.18s-.18-.28-.18-1.53v-124H170.74m1.41-1.41H11.7V214.5c0,2.57.54,3.12,3.11,3.12H169c2.57,0,3.11-.54,3.11-3.12V89.1Z"/></g><g id="Layer_3" data-name="Layer 3"><circle class="cls-2" cx="20.3" cy="76.41" r="3.62"/></g><g id="Layer_5" data-name="Layer 5"><circle class="cls-2" cx="31.97" cy="76.41" r="3.62"/></g><g id="Layer_6" data-name="Layer 6"><path class="cls-2" d="M132.27,80.5H51.58a3.92,3.92,0,0,1-3.92-3.92v-.35a3.92,3.92,0,0,1,3.92-3.92h80.69a3.92,3.92,0,0,1,3.92,3.92v.35A3.92,3.92,0,0,1,132.27,80.5Z"/></g><g id="Layer_3-2" data-name="Layer 3"><circle class="cls-2" cx="151.88" cy="76.41" r="3.62"/></g><g id="Layer_5-2" data-name="Layer 5"><circle class="cls-2" cx="163.55" cy="76.41" r="3.62"/></g><path class="cls-2" d="M79.31,127.64a4.15,4.15,0,0,0-4.15,4.15v41.49a4.15,4.15,0,1,0,8.3,0V131.78A4.15,4.15,0,0,0,79.31,127.64Zm12.45-4.15a4.15,4.15,0,0,0-4.15,4.15v45.64a4.15,4.15,0,1,0,8.3,0V127.64A4.15,4.15,0,0,0,91.76,123.49Zm32.94,48.37-16.6-45.64a4.15,4.15,0,1,0-7.8,2.84l16.6,45.64a4.15,4.15,0,1,0,7.8-2.84ZM66.86,119.34a4.15,4.15,0,0,0-4.15,4.15v49.79a4.15,4.15,0,1,0,8.3,0V123.49A4.15,4.15,0,0,0,66.86,119.34Z"/><path class="cls-4" d="M55.08,28.74h30S75.71,7.74,95.66,5c17.79-2.42,24.82,15.87,24.82,15.87s2.11-10.55,12.69-8.53S151.3,31.14,151.3,31.14h26.15"/><path class="cls-2" d="M178,26.2h-5.65a.7.7,0,1,1,0-1.41H178a.7.7,0,1,1,0,1.41Zm-18.32,0h-1.41a.7.7,0,1,1,0-1.41h1.41a.7.7,0,1,1,0,1.41Zm-7,0h-.78a.72.72,0,0,1-.63-.39c-.15-.3-.73-1.39-1.69-2.93a.7.7,0,1,1,1.2-.75c.75,1.2,1.27,2.14,1.55,2.66h.36a.7.7,0,0,1,0,1.41Zm-67-.86H83.76a.7.7,0,1,1,0-1.41h.82c-.13-.35-.29-.79-.45-1.3a.7.7,0,1,1,1.34-.43c.42,1.32.79,2.14.79,2.15a.7.7,0,0,1-.64,1Zm-13.13,0H55.59a.7.7,0,1,1,0-1.41h16.9a.7.7,0,1,1,0,1.41Zm11.08-7.71a.71.71,0,0,1-.7-.62c-.06-.47-.1-1-.13-1.45a.7.7,0,0,1,1.41-.08c0,.46.07.91.12,1.36a.71.71,0,0,1-.62.78Zm36.82-1.47a.7.7,0,0,1-.63-.39c-.17-.35-.38-.77-.63-1.22a.7.7,0,0,1,1.24-.68c.26.48.48.91.67,1.28a.7.7,0,0,1-.63,1Zm22.7-1.77a.7.7,0,0,1-.49-.2c-3-2.91-6.09-4.67-9.05-5.24a10.81,10.81,0,0,0-5.47.22.7.7,0,1,1-.45-1.34,12.2,12.2,0,0,1,6.18-.27c3.24.62,6.52,2.5,9.76,5.6a.7.7,0,0,1-.49,1.21Zm-26.48-4.17a.7.7,0,0,1-.55-.26,27.17,27.17,0,0,0-2.82-3,.7.7,0,1,1,.95-1,28.53,28.53,0,0,1,3,3.16.7.7,0,0,1-.55,1.15ZM87.77,4.85a.7.7,0,0,1-.44-1.25A17.62,17.62,0,0,1,96.08.23a22.67,22.67,0,0,1,8,.28.7.7,0,1,1-.31,1.38,21.18,21.18,0,0,0-7.48-.26A16.25,16.25,0,0,0,88.2,4.69.7.7,0,0,1,87.77,4.85Z"/><path class="cls-4" d="M178.83,31.55h0l-123.76,0a1.41,1.41,0,0,1,0-2.82h0l123.76,0a1.41,1.41,0,0,1,0,2.82Z"/><path class="cls-4" d="M255.39,73.1h16.7S266.86,61.43,278,59.92c9.89-1.34,13.8,8.82,13.8,8.82s1.17-5.86,7.06-4.74S308.9,74.44,308.9,74.44h14.54"/><path class="cls-2" d="M272.6,71.24H255.9a.7.7,0,1,1,0-1.41H272a.7.7,0,0,1,1.13.25l.07.17a.7.7,0,0,1-.64,1Zm46.28-.2h-4.23a.7.7,0,1,1,0-1.41h4.23a.7.7,0,1,1,0,1.41ZM292.37,66.5a.7.7,0,0,1-.67-.91c.35-1.17,1.83-5,6.2-5a8.46,8.46,0,0,1,1.57.15A13.19,13.19,0,0,1,306.33,65a.7.7,0,0,1-1,1,11.85,11.85,0,0,0-6.11-3.85,7,7,0,0,0-1.3-.13c-3.3,0-4.49,2.8-4.85,4A.7.7,0,0,1,292.37,66.5ZM273.2,60.39a.7.7,0,0,1-.51-1.19,8.42,8.42,0,0,1,4-2.21.7.7,0,0,1,.36,1.36,7.06,7.06,0,0,0-3.33,1.82A.7.7,0,0,1,273.2,60.39Zm10.59-1.91a.7.7,0,0,1-.22,0,10.47,10.47,0,0,0-1.28-.33.7.7,0,0,1-.56-.82.71.71,0,0,1,.82-.56,11.9,11.9,0,0,1,1.45.37.7.7,0,0,1-.22,1.37Z"/><path class="cls-4" d="M324.51,75.93h0l-68.82,0a1.41,1.41,0,0,1,0-2.82h0l68.82,0a1.41,1.41,0,0,1,0,2.82Z"/><path class="cls-1" d="M312,201.21a6,6,0,0,0-.58-5.32.7.7,0,0,1,0-.8l-1.25.25a10.65,10.65,0,0,1-1.59,7c0,.75.08,1.51.14,2.25A5.84,5.84,0,0,0,312,201.21Z"/><path class="cls-1" d="M274.87,280.39c-1.63.3-3.24.56-4.82.79l4.79.35C274.85,281.16,274.85,280.8,274.87,280.39Z"/><path class="cls-4" d="M223.5,271.4h.08v-.31h-.08Z"/><path class="cls-4" d="M302.19,199a.68.68,0,0,1,.34-.15,3.65,3.65,0,0,0,.58-2.11,3.66,3.66,0,0,1-1,2.28Z"/><path class="cls-4" d="M211,270.9a125.22,125.22,0,0,1-3.68-13.75H207v.3h.27A125.18,125.18,0,0,0,211,271.19c3.68,10.48,8.72,18.31,11.08,18.31a.9.9,0,0,0,.58-.21c.66-.54.89-4.82.89-10.31,0,5.35-.24,9.48-.89,10C220.7,290.66,215.05,282.33,211,270.9Z"/><path class="cls-4" d="M305,227.5v2.34c-.49,19.51-4.79,32.6-6.69,37.48-.49,1.8-1,3.41-1.41,4.8-.73,2.07-7.28,20.21-13.72,20.21a3.7,3.7,0,0,1-2.37-.83c-1.18-1-2.21-1.8-1.41-16a121.67,121.67,0,0,1-24.94,3.06,108,108,0,0,1-28-3.25c.21,14.52-.73,15.3-1.9,16.25a3.7,3.7,0,0,1-2.37.83c-6.46,0-13-18.15-13.75-20.21a113.77,113.77,0,0,1-3.23-11.63c-1.59.11-3.23.18-4.87.18a92.73,92.73,0,0,1-32.58-6.44,56.71,56.71,0,0,1-5.49-2.41c-.63,1.27-1.18,2.48-1.7,3.63,2.3,1.1,4.35,1.9,5.63,2.42a97.18,97.18,0,0,0,34.11,6.73h1.59c.86,3.39,1.7,6.3,2.54,8.65a83.07,83.07,0,0,0,3.25,8,64,64,0,0,0,3.44,6.46c2.46,4,5.94,8.59,11,8.59a8,8,0,0,0,5-1.79c2.46-2,3.42-4.32,3.49-14.21a122.33,122.33,0,0,0,23.75,2.15,106.87,106.87,0,0,0,15.65-1.27c1.58-.24,3.18-.49,4.82-.79v1.14c-.18,8.65.8,11,3.23,13a8,8,0,0,0,5,1.79c5.27,0,9.7-5.51,13.17-12.27a87.49,87.49,0,0,0,4.54-10.77c.51-1.41,1-3.07,1.51-4.89,1.94-5.06,6.07-17.84,6.82-36.62A31,31,0,0,0,305,227.5Z"/><path class="cls-4" d="M151.15,241.4c0-5.17,3.28-7.56,7.46-10.56l.31-4a4.68,4.68,0,0,1,4.63-4.23h.38l4.23.34c1.54-1.54,3.06-3.21,4.54-5l-1.52-5a4.66,4.66,0,0,1,3.08-5.82l7.35-2.25c1-1.85,2-3.83,3-5.93l-3.3-5.45a4.66,4.66,0,0,1,1.56-6.39l7.49-4.54a122.54,122.54,0,0,0,2.82-13.34c0-15.94,1.41-27.68,4.23-34.89l-.21-.65a2.82,2.82,0,0,1,1.84-3.53h0l.42-.13a60,60,0,0,1,9.18-12.45l.1-4.23a2.82,2.82,0,0,1,2.82-2.82h0l4.42.1a92.43,92.43,0,0,1,13.22-8.92L231,95.11a2.82,2.82,0,0,1,3.46-2h0l8.45,2.32a63.55,63.55,0,0,1,21.13-4.31,21.62,21.62,0,0,1,2.37.08c5.63.38,12.93,3.73,21.82,9.94a187.74,187.74,0,0,1,22.21,18.68,3.69,3.69,0,0,1,2.32,1A113.76,113.76,0,0,1,325,134.55c3.77,4.07,8.58,10.27,10.27,16.83,2.55,9.86-2.82,22.53-7.45,28.42-5.93,7.49-11.66,10.75-21.13,12-.94.13-1.94.21-3,.27a6.48,6.48,0,0,1,.31,9.16l0,0c.66,8.11.93,16.3.85,24.39a33.8,33.8,0,0,1,4.23,4h0c.2-7.82,0-15.75-.45-23.63l-.46.14h.11a.71.71,0,0,1-.15-1.41,5.28,5.28,0,0,0,.66-.23c0-.75-.08-1.51-.14-2.25a10.65,10.65,0,0,0,1.59-7l1.25-.25a.69.69,0,0,1,1-.21h0q1.62-.38,3.1-.87a.7.7,0,0,1,1.25-.52h0c5.63-2.15,10.2-5.72,14.65-11.34,4.75-6,11.1-19.72,8.32-31.6a.89.89,0,0,0-.1-.49,8.13,8.13,0,0,1-.28-.92,33.63,33.63,0,0,0-2.82-6.56q-.76-1.41-1.68-2.82a57.74,57.74,0,0,0-5-6.56c-.41-.46-.82-.94-1.24-1.41l-.18-.2a118.94,118.94,0,0,0-12.56-14.08,7.83,7.83,0,0,0-3.18-1.83c-10.11-9.7-31-27.91-45.77-28.94-.86,0-1.76-.08-2.66-.08a66.41,66.41,0,0,0-21.34,4.1l-7.2-2a7,7,0,0,0-8.65,4.93l-1.41,5a96.69,96.69,0,0,0-11,7.46h-3.06a7,7,0,0,0-7,6.87v2.58a64.19,64.19,0,0,0-8,10.79,7,7,0,0,0-3.54,7.51c-2.65,7.7-4,19.35-4.06,34.69-.65,3.77-1.41,7.45-2.32,11l-6,3.65a8.9,8.9,0,0,0-3.06,12.07v.13l2.14,3.52q-.54,1.1-1.07,2.14L173,202.76a8.89,8.89,0,0,0-5.89,11.1l.85,2.82-1.41,1.61-2.28-.18h-.7a8.92,8.92,0,0,0-8.84,8.17l-.15,2.06c-3.86,2.82-7.63,6.41-7.63,12.84,0,6.18,6.55,10.79,12.3,13.7.52-1.15,1.08-2.37,1.72-3.63C155.94,248.59,151.15,245.14,151.15,241.4Z"/><path class="cls-4" d="M175.66,200.64l-.31-.7.35,1.14V201Z"/><path class="cls-4" d="M200.07,132.83H200l.45,1.41v-.14Z"/><path class="cls-5" d="M237.78,154.87h0l-.32-.62Z"/><path class="cls-5" d="M288.63,207.55a1.41,1.41,0,0,1-.41,0h-.14a21.62,21.62,0,0,1-1.7,8.87,71,71,0,0,1,8,3,60.35,60.35,0,0,0-1.75-13.08Z"/><polygon class="cls-5" points="190.78 185.59 190.28 185.9 190.77 185.63 190.78 185.59"/><path class="cls-5" d="M266.19,181.39s1,.44,2.62,1.06c8.3,1.27,33.1,4.38,44.36-1.52,9.65-5.06,15.62-18.83,13.32-30.77C324.56,140,314,127.62,309.87,123h0c-14.32-14.08-32.39-28.17-43.35-28.9q-1.06-.07-2.18-.07a62.15,62.15,0,0,0-21.06,4.54l-.66-.18-4.83,2.1a.7.7,0,0,1-.58-1.28l3.27-1.41L233.92,96l-2.14,7.83a89.9,89.9,0,0,0-14.65,9.86l-5.46-.13-.13,5.27-.17.17a30.56,30.56,0,0,0,.38,3.15.7.7,0,0,1-.45.89h-.23a.7.7,0,0,1-.66-.48,16.72,16.72,0,0,1-.32-2.25,55.84,55.84,0,0,0-8.58,12.1l-1.41.45.42,1.41v.39l1.48,3.7a.7.7,0,0,1-.39.91h0a.7.7,0,0,1-.91-.39h0l-.94-2.3c-2.58,7.48-3.66,19.34-3.66,33q-.28,1.7-.63,3.51c.08,4.23.25,8.45.46,12.44l.39-.45c-.18,3.15,3.21,6.73,5.93,9.08a.68.68,0,0,1,.39,0c.58.24,14.28,5.73,16.65,7,4.23,2.48,4.23,9.14,4.23,9.42a.7.7,0,0,1-.63.68l-4.13.42v.11a63.06,63.06,0,0,1,6.61-.1c-.15-2.32,1.11-4.23,3.75-5.63a15.49,15.49,0,0,1,4.23-1.41.7.7,0,0,1,.79.51c.31,1.13.55,2.17.72,3.15h3.65a.7.7,0,1,1,0,1.41H235a25.46,25.46,0,0,1,.21,4.56h3.68a.7.7,0,1,1,0,1.41h-3.79a11.82,11.82,0,0,1-.61,2.82.7.7,0,0,1-.65.44h0c-.07,0-6.73-.52-8.25-5.72-2-.08-4.07-.07-6.08,0l2.07,3.63a.7.7,0,0,1-.07.8l-.3.35c0,.39-.31.83-1.23,1.15a5.63,5.63,0,0,1-3.52,1.28,7.37,7.37,0,0,1-3.9-1.27,9.3,9.3,0,0,1-3.55-4.48,63.29,63.29,0,0,0-9.49,3.06c.46,3.11,1,6.45,1.51,9.86.73,4.07,3.28,17.86,6,29.58h.34A125.22,125.22,0,0,0,211,270.92c4,11.45,9.66,19.72,11.68,18.13.65-.54.87-4.66.89-10,0-2.38,0-5-.1-7.62h0v-.31h.08l-.31-7.28a.7.7,0,0,1,.62-.72v-3.76a64.79,64.79,0,0,0,38.91,4.86c22-4.23,30.24-20.72,31.22-31.84a103.72,103.72,0,0,0,.41-11.42,69,69,0,0,0-8.75-3.24,9.55,9.55,0,0,1-1.31,1.65,8.45,8.45,0,0,1-6.27,2.45h-1.23a.7.7,0,0,1-.63-.77V221l1-5.3c-2.37-.48-4.83-.92-7.42-1.28a6.61,6.61,0,0,1-2.15,4.1,5.84,5.84,0,0,1-3.89,1.41,7.38,7.38,0,0,1-1.08-.08c-2.93-.44-4.89-4.44-4.89-7.9a7.62,7.62,0,0,1,3.73-6.27h.13a5.54,5.54,0,0,1,5.23.54c2.14,1.55,3,4.59,3,6.87,1.25.18,2.46.37,3.66.58a.69.69,0,0,1-.15-.28c0-.27-1.41-6.75,3.2-10.2,1.77-1.34,14.2-6.14,15.61-6.69a.7.7,0,0,1,.51,1.31c-3.77,1.41-13.9,5.46-15.27,6.49-3.24,2.44-2.93,6.93-2.73,8.34l.56.13-.49-.23,11.69-2a26.37,26.37,0,0,0,.08-4.68.7.7,0,0,1,.38-.7l3.1-1.55h.15c.1,0,9.28-2.11,11.9-4.41a3.42,3.42,0,0,0-1.59-5.63v-.3l-15.68,6.07s-.15-2.45-3.52-6.13a34.9,34.9,0,0,0-9.42-6.45c-4.11-1.41-6.62-2.49-6.87-2.61a1.41,1.41,0,0,1,1.17-2.56Zm38.89-44.83a2,2,0,0,1,4,0V141a2,2,0,1,1-4,0Zm-4.14,7.86a1.41,1.41,0,0,1,1.94.41,5.23,5.23,0,0,0,4.23,2.13,5.3,5.3,0,0,0,4.23-2.11,1.41,1.41,0,1,1,2.37,1.54h0a8,8,0,0,1-13.08,0,1.41,1.41,0,0,1,.32-2h0ZM209.62,220.6a.7.7,0,0,1,.87.48h0a5.89,5.89,0,0,0,9.1,2.82.71.71,0,1,1,.9,1.08,7.39,7.39,0,0,1-4.42,1.49,7.24,7.24,0,0,1-2.17-.34,7.32,7.32,0,0,1-4.76-4.7A.7.7,0,0,1,209.62,220.6Zm12.68,8.45a11,11,0,0,1-17.06-5.34.73.73,0,1,1,1.41-.38,9.55,9.55,0,0,0,14.8,4.62.71.71,0,0,1,.9,1.08Zm38.87-83.22a4.52,4.52,0,0,0-3.58,1.79,2.11,2.11,0,0,1-3.55-2.3,8.92,8.92,0,0,1,5.63-3.58,2,2,0,0,1-.15-.77v-4.41a2,2,0,0,1,4,0V141a2,2,0,0,1-.23.9,9,9,0,0,1,5.06,3.46,2.12,2.12,0,0,1-3.54,2.32,4.55,4.55,0,0,0-3.58-1.85Z"/><path class="cls-5" d="M199.29,216.25a64.55,64.55,0,0,1,9.23-2.94,23.62,23.62,0,0,1-.93-6.65h-.2a1.41,1.41,0,0,1-.54-.11l-9.49-3.92.08.61C197.86,206.31,198.5,210.91,199.29,216.25Z"/><path class="cls-5" d="M187.31,198l.2.32h0Z"/><path class="cls-5" d="M175.81,201l-.14-.31.11.35Z"/><path class="cls-6" d="M173.31,236.08a62.83,62.83,0,0,0-9.79,13.24,89.59,89.59,0,0,0,36.76,8.53c1.82,0,3.61-.1,5.39-.25-3.25-14-6.23-30.83-6.27-31a.71.71,0,0,1,1.41-.24l.21,1.2c-.54-3.39-1-6.72-1.51-9.86A75.67,75.67,0,0,0,173.31,236.08Z"/><path class="cls-7" d="M313.18,180.94c-11.27,5.9-36.07,2.82-44.36,1.52A104.57,104.57,0,0,0,303,189.21a1.41,1.41,0,0,1,.49.11,24,24,0,0,0,3.07-.24c8.66-1.15,13.86-4,19.34-11,3.94-5,9.23-17,6.93-26-1.54-6-6-11.75-9.72-15.73A111.05,111.05,0,0,0,311.12,123a.9.9,0,0,0-.62-.25.92.92,0,0,0-.63.25c4.23,4.62,14.68,17.06,16.63,27.18C328.79,162.11,322.82,175.88,313.18,180.94Z"/><path class="cls-3" d="M282.29,273.3c-.24,3.63-.41,7.21-.44,10.07v.49c0-3,.2-6.73.45-10.58Z"/><path class="cls-8" d="M292.71,206.32a60.35,60.35,0,0,1,1.75,13.08,50.48,50.48,0,0,1,7.82,4.23c0-7.58-.3-14.39-.7-20Z"/><path class="cls-9" d="M294,232.33c-1,11.13-9.18,27.55-31.22,31.84a64.79,64.79,0,0,1-38.91-4.86v3.76h0a.7.7,0,0,1,.73.67h0l.35,8.14c3.63,1.15,13.61,3.77,29.38,3.77A122.86,122.86,0,0,0,281.59,272a27,27,0,0,0,7.94-4.8.71.71,0,1,1,1,1h0a27.15,27.15,0,0,1-8.25,5.07c-.25,3.84-.45,7.62-.45,10.58s.17,5.07.65,5.45a.9.9,0,0,0,.58.21c2.37,0,7.38-7.86,11.06-18.31a48.58,48.58,0,0,0,1.41-4.76c1.8-4.58,6.07-17.38,6.55-36.62q0-2.25.07-4.42a47.34,47.34,0,0,0-7.77-4.39A103.71,103.71,0,0,1,294,232.33Z"/><path class="cls-10" d="M263.28,141.89a2,2,0,0,0,.23-.9v-4.42a2,2,0,0,0-4,0V141a2,2,0,0,0,.15.77,8.69,8.69,0,0,1,1.52-.14A8.58,8.58,0,0,1,263.28,141.89Z"/><path class="cls-2" d="M205.6,238.16H108.3a1.41,1.41,0,0,1,0-2.82h97.3a1.41,1.41,0,1,1,0,2.82Z"/><path class="cls-2" d="M192.46,231h-16.9a.7.7,0,0,1,0-1.41h16.9a.7.7,0,1,1,0,1.41Z"/><path class="cls-2" d="M170.33,244.5h-16.9a.7.7,0,1,1,0-1.41h16.9a.7.7,0,1,1,0,1.41Zm-28.17,0h-4.23a.7.7,0,1,1,0-1.41h4.23a.7.7,0,1,1,0,1.41Zm-9.86,0H130.9a.7.7,0,1,1,0-1.41h1.41a.7.7,0,1,1,0,1.41Zm-14.08,0h-16.9a.7.7,0,1,1,0-1.41h16.9a.7.7,0,1,1,0,1.41Zm-28.17,0H85.83a.7.7,0,1,1,0-1.41h4.23a.7.7,0,1,1,0,1.41Zm-9.86,0H78.79a.7.7,0,1,1,0-1.41h1.41a.7.7,0,1,1,0,1.41Zm-14.08,0H49.21a.7.7,0,1,1,0-1.41h16.9a.7.7,0,1,1,0,1.41Zm-28.17,0H33.72a.7.7,0,1,1,0-1.41h4.23a.7.7,0,1,1,0,1.41Zm-9.86,0H26.68a.7.7,0,1,1,0-1.41h1.41a.7.7,0,1,1,0,1.41Z"/><path class="cls-11" d="M307.06,143a2,2,0,0,0,2-2h0v-4.44a2,2,0,0,0-4,0V141A2,2,0,0,0,307.06,143Z"/><path class="cls-3" d="M264.81,147.67a2.12,2.12,0,0,0,3.54-2.32,9,9,0,0,0-5.06-3.46,8.58,8.58,0,0,0-2.07-.25,8.69,8.69,0,0,0-1.52.14,8.92,8.92,0,0,0-5.63,3.58,2.11,2.11,0,0,0,3.55,2.3,4.48,4.48,0,0,1,7.18,0Zm-7.46-.41a1.41,1.41,0,0,1-2.37-1.54,8,8,0,0,1,13.08,0,1.41,1.41,0,0,1-2.35,1.54,5.23,5.23,0,0,0-4.23-2.13A5.3,5.3,0,0,0,257.35,147.27Z"/><path class="cls-12" d="M307.06,149.74a8.07,8.07,0,0,0,6.53-3.39,1.41,1.41,0,1,0-2.37-1.54,5.3,5.3,0,0,1-4.23,2.11,5.23,5.23,0,0,1-4.23-2.13,1.41,1.41,0,0,0-2.35,1.54A8.07,8.07,0,0,0,307.06,149.74Z"/><path class="cls-13" d="M265.7,147.28a1.41,1.41,0,0,0,2.35-1.54,8,8,0,0,0-13.08,0,1.41,1.41,0,0,0,2.37,1.54,5.3,5.3,0,0,1,4.23-2.11A5.23,5.23,0,0,1,265.7,147.28Z"/><ellipse class="cls-2" cx="64.51" cy="293.33" rx="30.88" ry="4.27"/><path class="cls-14" d="M195.42,173c-.62,3.27-1.41,6.73-2.35,10.28a.7.7,0,0,1,0,.25l-.11.31-.24.63h-.07l-1.86,5.17a.7.7,0,0,1-1.32-.48l1.25-3.49-.49.27-6,3.61a1.85,1.85,0,0,0-.62,2.52l3.61,6,.21.28h0l.25.42a83.89,83.89,0,0,1-4.23,8.45h-.15l-3.18,4.73a.71.71,0,0,1-1.17-.79l2.21-3.3-6.08,2a1.85,1.85,0,0,0-1.21,2.3l1.41,4.72.31.7.14.31h0v.08l.17.54a72.38,72.38,0,0,1-6.61,7.31h-.08a22.1,22.1,0,0,1-3.83,3.1.7.7,0,0,1-.82-1.14l.06,0a21.89,21.89,0,0,0,2.7-2.06l-3.56-.28h-.23a1.85,1.85,0,0,0-1.82,1.69l-.42,5.28c-4.59,3.32-7.35,5-7.35,9,0,1.92,3.17,4.62,8.28,7.28a64.12,64.12,0,0,1,10-13.48,77,77,0,0,1,27-18.84c-.79-5.35-1.41-10-1.83-13l-.08-.61-.92-.38c-5.87-2.42-6.65-7-6.68-7.21a1.41,1.41,0,0,1,1.18-1.61h0a1.41,1.41,0,0,1,.35,0,.69.69,0,0,1,.31-.25c.55-3.21,3.24-6.63,4.23-7.83C195.67,181.45,195.53,177.25,195.42,173Z"/><path class="cls-15" d="M309.16,229.66a33.8,33.8,0,0,0-4.23-4c.07-8.1-.2-16.28-.85-24.39a6.48,6.48,0,0,0-.26-9.16l0,0a22.2,22.2,0,0,0,3-.27c9.51-1.27,15.24-4.52,21.13-12,4.62-5.84,10-18.52,7.45-28.42-1.69-6.56-6.49-12.75-10.27-16.83a113.76,113.76,0,0,0-12.2-13.69,3.69,3.69,0,0,0-2.32-1,187.74,187.74,0,0,0-22.11-18.63c-8.9-6.21-16.24-9.56-21.82-9.94-.76,0-1.56-.08-2.37-.08a63.55,63.55,0,0,0-21.13,4.31l-8.45-2.32a2.82,2.82,0,0,0-3.46,2h0l-1.83,6.68a92.43,92.43,0,0,0-13.22,8.92l-4.42-.1h0a2.82,2.82,0,0,0-2.82,2.82l-.1,4.23a60,60,0,0,0-9.18,12.45l-.42.13a2.82,2.82,0,0,0-1.85,3.53h0l.21.65c-2.82,7.21-4.23,18.93-4.23,34.89-.77,4.61-1.75,9.08-2.82,13.34l-7.73,4.42a4.66,4.66,0,0,0-1.56,6.39l3.3,5.45c-.94,2.1-1.93,4.08-3,5.93l-7.35,2.25a4.66,4.66,0,0,0-3.08,5.82l1.52,5a57.53,57.53,0,0,1-4.54,5l-4.23-.34h-.39a4.68,4.68,0,0,0-4.63,4.23l-.31,4c-4.23,3-7.46,5.39-7.46,10.56,0,3.73,4.79,7.18,9.86,9.79-.63,1.27.45-1.06-.07.1l1.32.61m0,0h0c.52-1.15-.52,1.21.1-.06,1.94.94,3.86,1.76,5.49,2.41a92.73,92.73,0,0,0,32.58,6.44,42.61,42.61,0,0,0,4.87-.18,113.77,113.77,0,0,0,3.23,11.63c.73,2.07,7.28,20.21,13.75,20.21a3.7,3.7,0,0,0,2.37-.83c1.17-1,2.11-1.72,1.9-16.25a108,108,0,0,0,28,3.25,121.67,121.67,0,0,0,24.94-3.06c-.82,14.24.21,15.08,1.41,16a3.7,3.7,0,0,0,2.37.83c6.44,0,13-18.15,13.72-20.21a47.73,47.73,0,0,0,1.41-4.8c1.89-4.87,6.2-18,6.69-37.48v-2.34a31,31,0,0,1,4.13,4.31,27.54,27.54,0,0,1,2.23,3.21M265,184c.27.11,2.82,1.24,6.87,2.61a106.52,106.52,0,0,0,28.49,5.37l.14,1.14v.3a3.65,3.65,0,0,1,2,5.46.68.68,0,0,0-.34.15h0c-2.62,2.3-11.8,4.38-11.9,4.41h-.15L287,205a.7.7,0,0,0-.38.7,26.37,26.37,0,0,1-.08,4.68,13.41,13.41,0,0,1-3.13,8,7.25,7.25,0,0,1-5.63,2l1.15-6.27a.7.7,0,0,0-.54-.82l-3.1-.69-.56-.13c-.2-1.41-.51-5.9,2.73-8.34,1.41-1,11.49-5,15.27-6.49a.7.7,0,0,0-.51-1.31c-1.41.55-13.83,5.35-15.61,6.69-4.59,3.45-3.25,9.86-3.2,10.2a.69.69,0,0,0,.15.28c-1.2-.2-2.41-.39-3.66-.58,0-2.28-.89-5.32-3-6.87a5.54,5.54,0,0,0-5.15-.42h-.13a7.62,7.62,0,0,0-3.73,6.27c0,3.46,2,7.46,4.89,7.9a7.38,7.38,0,0,0,1.08.08,5.84,5.84,0,0,0,3.89-1.41,6.61,6.61,0,0,0,2.15-4.1c2.59.37,5,.8,7.42,1.28l-1,5.3a.7.7,0,0,0,.56.82h1.28a8.45,8.45,0,0,0,6.27-2.45,9.55,9.55,0,0,0,1.31-1.65,69,69,0,0,1,8.75,3.24,47.34,47.34,0,0,1,7.77,4.39q0,2.18-.07,4.42c-.48,19.3-4.75,32.08-6.55,36.62-.46,1.72-.94,3.32-1.41,4.76-3.68,10.48-8.7,18.31-11.06,18.31a.9.9,0,0,1-.58-.21c-.48-.38-.65-2.49-.65-5.45v-.49c0-2.82.2-6.44.44-10.07h0a27.15,27.15,0,0,0,8.25-5.07.71.71,0,1,0-1-1,27,27,0,0,1-7.94,4.8,122.86,122.86,0,0,1-27.22,3.65c-15.76,0-25.75-2.62-29.38-3.77l-.35-8.14A.7.7,0,0,0,224,263h0a.7.7,0,0,0-.62.72l.31,7.28v.31h-.08c0,2.63.1,5.24.1,7.62,0,5.49-.23,9.77-.89,10.31a.9.9,0,0,1-.58.21c-2.37,0-7.41-7.86-11.08-18.31a125.18,125.18,0,0,1-3.68-13.75h-.27v-.3c-2.73-11.79-5.28-25.58-6-29.58l-.21-1.2a.71.71,0,0,0-1.41.24c0,.18,3,17,6.27,31-1.77.15-3.58.25-5.39.25a89.59,89.59,0,0,1-36.76-8.53A62.83,62.83,0,0,1,173.49,236a75.67,75.67,0,0,1,26.2-18.31,63.29,63.29,0,0,1,9.49-3.06,9.3,9.3,0,0,0,3.55,4.48,7.37,7.37,0,0,0,3.9,1.27,5.63,5.63,0,0,0,3.52-1.28,9.24,9.24,0,0,0,1.23-1.15l.3-.35a.7.7,0,0,0,.07-.8l-2.27-3.61a51.58,51.58,0,0,1,6.08,0c1.52,5.2,8.18,5.72,8.25,5.72h0a.7.7,0,0,0,.65-.44,11.82,11.82,0,0,0,.61-2.82h3.79a.7.7,0,1,0,0-1.41h-3.61a25.46,25.46,0,0,0-.21-4.56h3.44a.7.7,0,1,0,0-1.41h-3.65c-.18-1-.41-2-.72-3.15a.7.7,0,0,0-.79-.51,15.49,15.49,0,0,0-4.23,1.41c-2.62,1.41-3.9,3.34-3.75,5.63a63.06,63.06,0,0,0-6.61.1v-.11l4.13-.42a.7.7,0,0,0,.63-.68c0-.28.14-6.94-4.23-9.42-2.37-1.41-16.06-6.86-16.65-7a.68.68,0,0,0-.39,0,.69.69,0,0,0-.52.42.7.7,0,0,0,.39.91h0l3.34,1.41c4.34,1.77,11.55,4.75,13.13,5.63,2.82,1.66,3.37,5.94,3.44,7.55l-4.23.44h-.32a.7.7,0,0,0-.54,1.06l3.2,5.63c-1.52,1.68-3.52,2.92-6.8.86-5.07-3.17-4.23-13-4.23-13.14a.7.7,0,0,0-.31-.65s-.21-.14-.68-.39c-.68-.37-2-1-4.23-2-1.27-.55-2.82-1.21-4.76-2-6.9-2.82-6.53-5.76-6.53-5.77a.7.7,0,0,0-.55-.83h0a.76.76,0,0,0-.73.31,1.38,1.38,0,0,0-1.54,1.6h0c0,.2.8,4.79,6.68,7.21l.92.38,9.49,3.92a1.41,1.41,0,0,0,.54.11h.2a23.62,23.62,0,0,0,.93,6.65,64.55,64.55,0,0,0-9.23,2.94,77,77,0,0,0-27,18.82,64.12,64.12,0,0,0-10,13.58c-5.1-2.66-8.28-5.35-8.28-7.28,0-4.06,2.82-5.73,7.35-9l.42-5.28a1.85,1.85,0,0,1,1.82-1.69h.15l3.56.28a21.89,21.89,0,0,1-2.73,2,.7.7,0,0,0,.76,1.18,22.1,22.1,0,0,0,3.83-3.1h.08a72.38,72.38,0,0,0,6.61-7.31l-.17-.54-.35-1.14-1.41-4.72a1.84,1.84,0,0,1,1.21-2.31l6.13-1.89-2.2,3.3a.71.71,0,0,0,1.17.79l3.18-4.73h.15a83.89,83.89,0,0,0,4.23-8.45l-.25-.42-.2-.32-3.61-6a1.85,1.85,0,0,1,.62-2.52l6-3.62.51-.31h0l-1.25,3.49a.7.7,0,0,0,1.32.48l1.84-5.18h.07l.15-.58.11-.31a.7.7,0,0,0,0-.25c.94-3.55,1.73-7,2.35-10.28q.34-1.79.63-3.51c0-13.61,1.08-25.48,3.66-33l.92,2.28a.7.7,0,0,0,1.31-.52l-1.48-3.7v-.25L200,133h.08l1.41-.45a55.84,55.84,0,0,1,8.58-12.1,16.72,16.72,0,0,0,.32,2.25.7.7,0,0,0,.66.48h.23a.7.7,0,0,0,.45-.89,30.56,30.56,0,0,1-.38-3.15l.17-.17.13-5.27,5.46.13a89.9,89.9,0,0,1,14.65-9.86l2.14-7.83,6.55,1.79-3.27,1.41a.7.7,0,0,0,.5,1.32l.08,0,4.83-2.17.66.18a62.15,62.15,0,0,1,21-4.44q1.13,0,2.18.07c10.92.75,29,14.8,43.35,28.9h0a.92.92,0,0,1,.63-.25.9.9,0,0,1,.62.25A111.05,111.05,0,0,1,323,136.55c3.72,4,8.18,9.75,9.72,15.73,2.31,9-3,21-6.93,26-5.48,6.93-10.68,9.86-19.34,11-1,.13-2,.2-3.07.24a1.41,1.41,0,0,0-.49-.11,104.57,104.57,0,0,1-34.13-6.89c-1.65-.63-2.58-1-2.62-1.06A1.41,1.41,0,0,0,265,184Zm37.2,39.69a50.48,50.48,0,0,0-7.82-4.23,71,71,0,0,0-8-3,21.62,21.62,0,0,0,1.7-8.87h.14a1.41,1.41,0,0,0,.41,0l4-1.23,8.86-2.7c.42,5.59.72,12.41.72,20Zm-41-7.3,1.89-3.21a.7.7,0,1,1,1.22.7v0l-1.89,3.21a.7.7,0,0,1-1.21-.72Zm-.41-4.1a.7.7,0,0,1-.61-1.06l1.9-3.21a.7.7,0,0,1,1.21.72l-1.9,3.21A.7.7,0,0,1,260.78,212.26Z"/><path class="cls-3" d="M263.29,208.7a.7.7,0,0,0-1.21-.72l-1.9,3.23a.7.7,0,0,0,1.2.74v0Z"/><polygon class="cls-5" points="36.51 290.43 36.78 280.33 81 279.38 82.88 281.59 81.8 290.11 76.96 290.43 36.51 290.43"/><path class="cls-3" d="M86.43,284.89c0-3.27-.9-6.28-2.12-7.42a6.59,6.59,0,0,0-2.93-.75l-.71,0c-.11,0-.21,1.06-.3,1.07l-1.06-1H34.09a1.33,1.33,0,0,0-1.21,1.42v1.58a1.33,1.33,0,0,0,1.21,1.42h2V289h-2a1.16,1.16,0,0,0-1,.55,1.62,1.62,0,0,0-.22,1.22l.27,1.26a1.27,1.27,0,0,0,1.17,1.08h44.2l1-1c.17,0,.64,1.12,1.24,1.11,1.2,0,2.9-.2,3.73-1C85.59,291.2,86.43,287.15,86.43,284.89ZM80.79,289H36.92v-7.89H81.2C82.57,283.66,82.12,287.5,80.79,289Z"/><path class="cls-2" d="M80.78,294.23a1.77,1.77,0,0,1-1.28-.7l-.59.63H34.36a2.19,2.19,0,0,1-2-1.87L32.05,291a2.8,2.8,0,0,1,.38-2.12,2,2,0,0,1,1.66-1h1.13v-5.79H34.09A2.31,2.31,0,0,1,32,279.7v-1.58a2.31,2.31,0,0,1,2.1-2.47H79.62L80,276a.8.8,0,0,1,.69-.37c.15,0,.43,0,.78,0a6.19,6.19,0,0,1,3.43,1c1.47,1.38,2.45,4.7,2.45,8.24,0,2.11-.78,6.76-2.26,8.15-1,1-2.89,1.18-4.27,1.2Zm.09-2.08Zm-1.61-1.2.43.08a1.33,1.33,0,0,1,.8.66,2.76,2.76,0,0,0,.36.44,5.32,5.32,0,0,0,3.12-.74c.73-.68,1.58-4.2,1.58-6.51,0-3.23-.9-5.77-1.79-6.61a6.64,6.64,0,0,0-2.44-.52c-.1.46-.29.94-.84,1l-.39.06L79,277.74H34.09a.35.35,0,0,0-.32.38v1.58a.35.35,0,0,0,.32.37h47.6l.26.49c1.62,3,1,7.42-.55,9.21l-.26.29H34.09a.31.31,0,0,0-.25.15.42.42,0,0,0-.06.32l.27,1.27a.33.33,0,0,0,.31.28H78.21Zm-41.45-3H80.39a7.31,7.31,0,0,0,.29-5.79H37.81Z"/><path class="cls-2" d="M80.79,284.42H39.19a.53.53,0,0,1,0-1h41.6a.53.53,0,0,1,0,1Z"/><path class="cls-2" d="M80.79,286.58H39.19a.53.53,0,0,1,0-1h41.6a.53.53,0,0,1,0,1Z"/><polygon class="cls-5" points="344.09 243.4 343.82 253.5 299.61 254.45 297.72 252.24 298.8 243.72 303.64 243.4 344.09 243.4"/><path class="cls-3" d="M294.17,248.95c0,3.27.9,6.28,2.12,7.42a6.59,6.59,0,0,0,2.93.75l.71,0c.11,0,.21-1.06.3-1.07l1.06,1h45.21a1.33,1.33,0,0,0,1.21-1.42v-1.58a1.33,1.33,0,0,0-1.21-1.42h-2v-7.89h2a1.16,1.16,0,0,0,1-.55,1.62,1.62,0,0,0,.22-1.22l-.27-1.26a1.27,1.27,0,0,0-1.17-1.08H302l-1,1c-.17,0-.64-1.12-1.24-1.11-1.2,0-2.9.2-3.73,1C295,242.63,294.17,246.68,294.17,248.95Zm5.64-4.12h43.87v7.89H299.4C298,250.17,298.48,246.33,299.82,244.82Z"/><path class="cls-2" d="M299.82,239.6a1.77,1.77,0,0,1,1.28.7l.59-.63h44.54a2.19,2.19,0,0,1,2,1.87l.27,1.26a2.8,2.8,0,0,1-.38,2.12,2,2,0,0,1-1.66,1h-1.13v5.79h1.13a2.31,2.31,0,0,1,2.1,2.47v1.58a2.31,2.31,0,0,1-2.1,2.47H301l-.35-.35a.8.8,0,0,1-.69.37c-.15,0-.43,0-.78,0a6.19,6.19,0,0,1-3.43-1c-1.47-1.38-2.45-4.7-2.45-8.24,0-2.11.78-6.76,2.26-8.15,1-1,2.89-1.18,4.27-1.2Zm-.09,2.08Zm1.61,1.2-.43-.08a1.33,1.33,0,0,1-.8-.66,2.76,2.76,0,0,0-.36-.44,5.32,5.32,0,0,0-3.12.74c-.73.68-1.58,4.2-1.58,6.51,0,3.23.9,5.77,1.79,6.61a6.64,6.64,0,0,0,2.44.52c.1-.46.29-.94.84-1l.39-.06,1.11,1.1h44.88a.35.35,0,0,0,.32-.38v-1.58a.35.35,0,0,0-.32-.37h-47.6l-.26-.49c-1.62-3-1-7.42.55-9.21l.26-.29h47.05a.31.31,0,0,0,.25-.15.42.42,0,0,0,.06-.32l-.27-1.27a.33.33,0,0,0-.31-.28H302.39Zm41.45,3H300.21a7.31,7.31,0,0,0-.29,5.79h42.87Z"/><path class="cls-2" d="M299.82,249.41h41.6a.53.53,0,0,1,0,1h-41.6a.53.53,0,0,1,0-1Z"/><path class="cls-2" d="M299.82,247.25h41.6a.53.53,0,0,1,0,1h-41.6a.53.53,0,0,1,0-1Z"/><polygon class="cls-5" points="149.99 246.51 156.51 258.43 105.77 289.45 102.09 288.15 97.57 277.52 102.99 273.88 149.99 246.51"/><path class="cls-3" d="M95.73,286.73c2.21,3.8,5.3,6.68,7.49,7.19.84.2,2.75-.57,3.92-1.12.39-.18.7-.34.85-.43s-.47-1.37-.37-1.45l1.94.5,52.53-30.59a1.79,1.79,0,0,0,.44-2.47l-1.07-1.83a1.79,1.79,0,0,0-2.37-.83l-2.34,1.37-5.34-9.17,2.34-1.37a1.55,1.55,0,0,0,.74-1.28,2.18,2.18,0,0,0-.57-1.57l-1.17-1.28a1.7,1.7,0,0,0-2.09-.46l-51.35,29.9-.43,1.88c-.22.08-1.5-.87-2.2-.45-1.38.82-3.24,2.2-3.67,3.65C92.44,278.83,94.2,284.09,95.73,286.73Zm3.77-8.61,51-29.68,5.34,9.17-51.45,30C101,285.53,99,280.77,99.5,278.12Z"/><path class="cls-2" d="M96,272a2.37,2.37,0,0,1,2-.06l.26-1.14L150,240.72a3,3,0,0,1,3.63.79l1.17,1.29a3.76,3.76,0,0,1,1,2.72,2.69,2.69,0,0,1-1.28,2.23l-1.31.76,3.92,6.73,1.31-.76a3.11,3.11,0,0,1,4.11,1.45l1.07,1.84a3.11,3.11,0,0,1-.77,4.29l-52.91,30.81-.64-.17a1.08,1.08,0,0,1-.55.9c-.17.1-.51.27-.93.47-2.14,1-3.7,1.4-4.64,1.18-2.64-.61-6-3.8-8.42-7.92-1.43-2.45-3.67-8.38-2.89-11,.55-1.82,2.56-3.33,4.15-4.28Zm1.31,2.47Zm2.68.31-.55.19a1.79,1.79,0,0,1-1.37-.23,3.71,3.71,0,0,0-.71-.27c-1.68,1-2.87,2.15-3.12,3-.38,1.28,1,6,2.56,8.63,2.19,3.75,4.95,6.1,6.55,6.47a8.93,8.93,0,0,0,3.19-1,1.51,1.51,0,0,1,.28-1.76l.41-.33,2,.52,52.15-30.37a.47.47,0,0,0,.12-.65l-1.07-1.84a.47.47,0,0,0-.62-.22l-55.31,32.2-.64-.39c-3.92-2.41-6.22-7.92-5.59-11.07l.1-.51,54.67-31.83a.41.41,0,0,0,.2-.34.57.57,0,0,0-.15-.41l-1.17-1.29a.45.45,0,0,0-.55-.12l-51,29.67Zm50.19-24.57-49.48,28.81a9.82,9.82,0,0,0,3.59,6.93l49.81-29Z"/><path class="cls-2" d="M102.61,283.45l48.33-28.14a.71.71,0,0,1,.71,1.22l-48.33,28.14a.71.71,0,0,1-.71-1.22Z"/><path class="cls-2" d="M101.15,280.94l48.33-28.14a.71.71,0,0,1,.71,1.22l-48.33,28.14a.71.71,0,0,1-.71-1.22Z"/><path class="cls-3" d="M261.44,217.33a.7.7,0,0,0,1-.25l1.89-3.21a.7.7,0,0,0-1.2-.74v0l-1.89,3.21a.7.7,0,0,0,.24,1Z"/><path class="cls-16" d="M275.37,204.55l27.23.47-2.22-13.08c-9.7-.48-28.34-4.84-37.55-7.92,3.47,1.62,8.31,6,11.13,10.68A48.65,48.65,0,0,1,275.37,204.55Z"/><ellipse class="cls-2" cx="249.13" cy="293.33" rx="88.03" ry="9.03"/><polygon class="cls-5" points="296.4 272.72 296.67 262.62 340.88 261.67 342.76 263.88 341.69 272.4 336.85 272.72 296.4 272.72"/><path class="cls-3" d="M346.31,267.17c0-3.27-.9-6.28-2.12-7.42a6.59,6.59,0,0,0-2.93-.75l-.71,0c-.11,0-.21,1.06-.3,1.07l-1.06-1H294a1.33,1.33,0,0,0-1.21,1.42V262a1.33,1.33,0,0,0,1.21,1.42h2v7.89h-2a1.16,1.16,0,0,0-1,.55,1.62,1.62,0,0,0-.22,1.22l.27,1.26a1.27,1.27,0,0,0,1.17,1.08h44.2l1-1c.17,0,.64,1.12,1.24,1.11,1.2,0,2.9-.2,3.73-1C345.48,273.49,346.31,269.44,346.31,267.17Zm-5.64,4.12H296.8v-7.89h44.28C342.45,266,342,269.79,340.67,271.3Z"/><path class="cls-2" d="M340.66,276.52a1.77,1.77,0,0,1-1.28-.7l-.59.63H294.24a2.19,2.19,0,0,1-2-1.87l-.27-1.26a2.8,2.8,0,0,1,.38-2.12,2,2,0,0,1,1.66-1h1.13v-5.79H294a2.31,2.31,0,0,1-2.1-2.47V260.4a2.31,2.31,0,0,1,2.1-2.47h45.53l.35.35a.8.8,0,0,1,.69-.37c.15,0,.43,0,.78,0a6.19,6.19,0,0,1,3.43,1c1.47,1.38,2.45,4.7,2.45,8.24,0,2.11-.78,6.76-2.26,8.15-1,1-2.89,1.18-4.27,1.2Zm.09-2.08Zm-1.61-1.2.43.08a1.33,1.33,0,0,1,.8.66,2.76,2.76,0,0,0,.36.44,5.32,5.32,0,0,0,3.12-.74c.73-.68,1.58-4.2,1.58-6.51,0-3.23-.9-5.77-1.79-6.61a6.64,6.64,0,0,0-2.44-.52c-.1.46-.29.94-.84,1l-.39.06-1.11-1.1H294a.35.35,0,0,0-.32.38V262a.35.35,0,0,0,.32.37h47.6l.26.49c1.62,3,1,7.42-.55,9.21l-.26.29H294a.31.31,0,0,0-.25.15.42.42,0,0,0-.06.32l.27,1.27a.33.33,0,0,0,.31.28H338.1Zm-41.45-3h42.58a7.31,7.31,0,0,0,.29-5.79H297.69Z"/><path class="cls-2" d="M340.67,266.7h-41.6a.53.53,0,0,1,0-1h41.6a.53.53,0,0,1,0,1Z"/><path class="cls-2" d="M340.67,268.86h-41.6a.53.53,0,0,1,0-1h41.6a.53.53,0,0,1,0,1Z"/><path class="cls-17" d="M213.91,226.18a7.24,7.24,0,0,0,2.17.34A7.39,7.39,0,0,0,220.5,225a.71.71,0,1,0-.9-1.08,5.89,5.89,0,0,1-9.1-2.82.73.73,0,1,0-1.41.38A7.32,7.32,0,0,0,213.91,226.18Z"/><path class="cls-18" d="M221.45,228a9.55,9.55,0,0,1-14.8-4.62.73.73,0,1,0-1.41.38,10.94,10.94,0,0,0,17.06,5.32.71.71,0,0,0-.9-1.08Z"/><path class="cls-3" d="M217.08,210.36a.7.7,0,0,1,.28-.09h.32l-.15-.32.29.52,4.23-.44c-.07-1.61-.55-5.89-3.44-7.55-1.58-.9-8.79-3.89-13.13-5.63l-1.54,5c2.15.87,3.44,1.49,4.13,1.86v-.07c.41.22.58.34.61.36a.7.7,0,0,1,.31.65c0,.1-.86,10,4.23,13.14,3.28,2,5.28.8,6.8-.86l-3.2-5.63A.7.7,0,0,1,217.08,210.36Zm1.92-5.23.11,0-.92,1.68Z"/><path class="cls-3" d="M275.32,212.62l3.1.69a.7.7,0,0,1,.54.82l-1.15,6.27a7.25,7.25,0,0,0,5.63-2,13.41,13.41,0,0,0,3.13-8l-11.69,2Z"/><path class="cls-3" d="M196.28,184.94l-.39.45c-1,1.2-3.7,4.62-4.23,7.83a.69.69,0,0,1,.41,0,.7.7,0,0,1,.55.83h0s-.37,3,6.53,5.77c1.93.77,3.49,1.41,4.76,2l1.54-5-3.34-1.41a.7.7,0,0,1-.39-.91h0a.69.69,0,0,1,.52-.42C199.49,191.69,196.1,188.1,196.28,184.94Z"/><polygon class="cls-5" points="252.5 284.42 252.92 270.84 322.78 269.56 325.76 272.54 324.06 284 316.4 284.42 252.5 284.42"/><path class="cls-19" d="M331.37,277c0-4.4-1.43-8.44-3.35-10-.74-.59-3.13-.89-4.64-1-.5,0-.91-.05-1.12-.05s-.33,1.42-.48,1.44L320.1,266H248.67a1.91,1.91,0,0,0-1.91,1.91V270a1.91,1.91,0,0,0,1.91,1.91h3.19v10.61h-3.19a1.91,1.91,0,0,0-1.86,2.38l.42,1.7a1.91,1.91,0,0,0,1.86,1.45h69.83l1.55-1.41c.26,0,1,1.51,2,1.5,1.89,0,4.59-.27,5.89-1.3C330,285.45,331.37,280,331.37,277Zm-8.92,5.54H253.13V271.9h70C325.26,275.32,324.56,280.49,322.45,282.51Z"/><path class="cls-20" d="M322.44,289.53a3,3,0,0,1-2-.94l-.94.85H249.09a3.32,3.32,0,0,1-3.22-2.51l-.42-1.7a3.32,3.32,0,0,1,3.22-4.13h1.78v-7.79h-1.78a3.32,3.32,0,0,1-3.32-3.32v-2.12a3.32,3.32,0,0,1,3.32-3.32h71.94l.55.47a1.33,1.33,0,0,1,1.09-.5c.23,0,.68,0,1.23.06,2.77.21,4.59.65,5.41,1.31,2.32,1.86,3.87,6.31,3.87,11.08,0,2.83-1.23,9.09-3.57,11-1.63,1.3-4.57,1.59-6.75,1.61Zm.14-2.79ZM320,285.12l.67.11a2.06,2.06,0,0,1,1.26.89,3.9,3.9,0,0,0,.57.59c2.31,0,4.19-.41,4.92-1,1.15-.91,2.5-5.65,2.5-8.75,0-4.34-1.42-7.76-2.82-8.88a12,12,0,0,0-3.86-.7,1.59,1.59,0,0,1-1.32,1.38l-.61.08-1.76-1.48H248.67a.51.51,0,0,0-.5.5V270a.5.5,0,0,0,.5.5h75.21l.42.66c2.56,4.05,1.63,10-.87,12.38l-.41.39H248.67a.51.51,0,0,0-.4.2.5.5,0,0,0-.09.43l.42,1.7a.5.5,0,0,0,.49.38h69.29Zm-65.5-4h67.28c1.26-1.69,1.66-5.23.45-7.79H254.54Z"/><path class="cls-21" d="M322.45,276.34H256.72a.7.7,0,0,1,0-1.41h65.73a.7.7,0,0,1,0,1.41Z"/><path class="cls-22" d="M322.45,279.24H256.72a.7.7,0,0,1,0-1.41h65.73a.7.7,0,1,1,0,1.41Z"/><polygon class="cls-5" points="324.23 246.03 323.86 259.61 264.41 260.89 261.88 257.91 263.33 246.46 269.84 246.03 324.23 246.03"/><path class="cls-23" d="M257.11,253.49c0,4.4,1.21,8.44,2.85,10,.63.59,2.66.89,3.94,1,.43,0,.77.05,1,.05s.28-1.42.41-1.44l1.43,1.41h60.79a1.79,1.79,0,0,0,1.63-1.91v-2.12a1.79,1.79,0,0,0-1.63-1.91h-2.71V247.94h2.71a1.55,1.55,0,0,0,1.28-.74,2.18,2.18,0,0,0,.3-1.64l-.36-1.7a1.7,1.7,0,0,0-1.58-1.45H267.69l-1.32,1.41c-.23,0-.86-1.51-1.67-1.5-1.61,0-3.91.27-5,1.3C258.23,245,257.11,250.44,257.11,253.49Zm7.59-5.54h59v10.61H264.14C262.3,255.13,262.9,250,264.7,247.94Z"/><path class="cls-24" d="M264.71,240.92a2.37,2.37,0,0,1,1.73.94l.8-.85h59.89a3,3,0,0,1,2.74,2.51l.36,1.7a3.76,3.76,0,0,1-.51,2.85,2.69,2.69,0,0,1-2.23,1.28H326v7.79h1.51a3.11,3.11,0,0,1,2.83,3.32v2.12a3.11,3.11,0,0,1-2.83,3.32H266.26l-.47-.47a1.08,1.08,0,0,1-.93.5c-.2,0-.58,0-1-.06-2.36-.21-3.91-.65-4.61-1.31-2-1.86-3.3-6.31-3.3-11.08,0-2.83,1-9.09,3-11,1.39-1.3,3.89-1.59,5.74-1.61Zm-.12,2.79Zm2.16,1.61-.57-.11a1.79,1.79,0,0,1-1.07-.89,3.71,3.71,0,0,0-.48-.59c-2,0-3.56.41-4.19,1-1,.91-2.13,5.65-2.13,8.75,0,4.34,1.21,7.76,2.4,8.88a8.93,8.93,0,0,0,3.28.7c.14-.61.39-1.27,1.12-1.38l.52-.08,1.5,1.48h60.35a.47.47,0,0,0,.43-.5v-2.12a.47.47,0,0,0-.43-.5h-64l-.35-.66c-2.18-4.05-1.39-10,.74-12.38l.35-.39h63.26a.41.41,0,0,0,.34-.2.57.57,0,0,0,.08-.43l-.36-1.7a.45.45,0,0,0-.42-.38h-59Zm55.74,4H265.23a9.82,9.82,0,0,0-.38,7.79h57.64Z"/><path class="cls-25" d="M264.7,254.12h55.93a.71.71,0,0,1,0,1.41H264.7a.71.71,0,0,1,0-1.41Z"/><path class="cls-26" d="M264.7,251.21h55.93a.71.71,0,0,1,0,1.41H264.7a.71.71,0,0,1,0-1.41Z"/><polygon class="cls-5" points="266.2 237.69 266.56 227.16 325.79 226.18 328.31 228.48 326.87 237.36 320.38 237.69 266.2 237.69"/><path class="cls-27" d="M333.07,231.91c0-3.41-1.21-6.54-2.84-7.73-.63-.46-2.65-.69-3.93-.78-.43,0-.77,0-1,0s-.28,1.1-.41,1.12l-1.42-1.09H263a1.56,1.56,0,0,0-1.62,1.48v1.64A1.56,1.56,0,0,0,263,228h2.7v8.22H263a1.68,1.68,0,0,0-1.28.57,1.38,1.38,0,0,0-.29,1.27l.36,1.32a1.6,1.6,0,0,0,1.57,1.12h59.2l1.32-1.09c.22,0,.86,1.17,1.67,1.16,1.6,0,3.89-.21,5-1C331.95,238.49,333.07,234.27,333.07,231.91Zm-7.56,4.29H266.74V228h59.32C327.89,230.64,327.3,234.64,325.51,236.2Z"/><path class="cls-28" d="M325.5,241.64a2.6,2.6,0,0,1-1.72-.73l-.8.66H263.32a2.78,2.78,0,0,1-2.73-1.95l-.36-1.32a2.39,2.39,0,0,1,.51-2.21,2.91,2.91,0,0,1,2.22-1h1.51v-6H263a2.71,2.71,0,0,1-2.82-2.57v-1.65a2.71,2.71,0,0,1,2.82-2.57h61l.47.36a1.18,1.18,0,0,1,.93-.38c.2,0,.57,0,1,0,2.35.16,3.89.5,4.59,1,2,1.44,3.28,4.89,3.28,8.58,0,2.2-1,7-3,8.49-1.38,1-3.87,1.23-5.72,1.25Zm.12-2.16Zm-2.15-1.25.57.09a1.75,1.75,0,0,1,1.07.69,3.16,3.16,0,0,0,.48.46,8.75,8.75,0,0,0,4.17-.77c1-.71,2.12-4.38,2.12-6.78,0-3.37-1.2-6-2.39-6.88a11,11,0,0,0-3.27-.54,1.29,1.29,0,0,1-1.12,1.07l-.52.06-1.49-1.14H263a.41.41,0,0,0-.43.39v1.65a.41.41,0,0,0,.43.39h63.76l.35.51c2.17,3.14,1.39,7.73-.74,9.59l-.35.3H263a.45.45,0,0,0-.34.15.36.36,0,0,0-.08.33l.36,1.32a.42.42,0,0,0,.41.3h58.74Zm-55.53-3.11h57a6.1,6.1,0,0,0,.38-6H267.93Z"/><path class="cls-29" d="M325.5,231.42H269.78a.55.55,0,1,1,0-1.09H325.5a.55.55,0,1,1,0,1.09Z"/><path class="cls-30" d="M325.5,233.67H269.78a.55.55,0,1,1,0-1.09H325.5a.55.55,0,1,1,0,1.09Z"/><polygon class="cls-5" points="294.13 207.4 293.77 217.92 234.54 218.9 232.02 216.6 233.46 207.72 239.95 207.4 294.13 207.4"/><path class="cls-31" d="M227.26,213.17c0,3.41,1.21,6.54,2.84,7.73.63.46,2.65.69,3.93.78.43,0,.77,0,1,0s.28-1.1.41-1.12l1.42,1.09h60.56a1.56,1.56,0,0,0,1.62-1.48v-1.64a1.56,1.56,0,0,0-1.62-1.48h-2.7v-8.22h2.7a1.68,1.68,0,0,0,1.28-.57,1.38,1.38,0,0,0,.29-1.27l-.36-1.32A1.6,1.6,0,0,0,297,204.6h-59.2l-1.32,1.09c-.22,0-.86-1.17-1.67-1.16-1.6,0-3.89.21-5,1C228.38,206.59,227.26,210.81,227.26,213.17Zm7.56-4.29h58.77v8.22H234.27C232.44,214.44,233,210.44,234.82,208.88Z"/><path class="cls-32" d="M234.83,203.44a2.6,2.6,0,0,1,1.72.73l.8-.66H297a2.78,2.78,0,0,1,2.73,1.95l.36,1.32a2.39,2.39,0,0,1-.51,2.21,2.91,2.91,0,0,1-2.22,1h-1.51v6h1.51a2.71,2.71,0,0,1,2.82,2.57v1.65a2.71,2.71,0,0,1-2.82,2.57h-61l-.47-.36a1.18,1.18,0,0,1-.93.38c-.2,0-.57,0-1,0-2.35-.16-3.89-.5-4.59-1-2-1.44-3.28-4.89-3.28-8.58,0-2.2,1-7,3-8.49,1.38-1,3.87-1.23,5.72-1.25Zm-.12,2.16Zm2.15,1.25-.57-.09a1.75,1.75,0,0,1-1.07-.69,3.16,3.16,0,0,0-.48-.46,8.75,8.75,0,0,0-4.17.77c-1,.71-2.12,4.38-2.12,6.78,0,3.37,1.2,6,2.39,6.88a11,11,0,0,0,3.27.54,1.29,1.29,0,0,1,1.12-1.07l.52-.06,1.49,1.14h60.12a.41.41,0,0,0,.43-.39v-1.65a.41.41,0,0,0-.43-.39H233.61l-.35-.51c-2.17-3.14-1.39-7.73.74-9.59l.35-.3h63a.45.45,0,0,0,.34-.15.36.36,0,0,0,.08-.33l-.36-1.32a.42.42,0,0,0-.41-.3H238.27ZM292.4,210h-57a6.1,6.1,0,0,0-.38,6H292.4Z"/><path class="cls-33" d="M234.83,213.66h55.72a.55.55,0,1,1,0,1.09H234.83a.55.55,0,1,1,0-1.09Z"/><path class="cls-34" d="M234.83,211.41h55.72a.55.55,0,1,1,0,1.09H234.83a.55.55,0,1,1,0-1.09Z"/><polygon class="cls-5" points="183.84 288.65 184.26 275.07 254.12 273.79 257.1 276.77 255.4 288.22 247.75 288.65 183.84 288.65"/><path class="cls-35" d="M262.71,281.19c0-4.4-1.43-8.44-3.35-10-.74-.59-3.13-.89-4.64-1-.5,0-.91-.05-1.12-.05s-.33,1.42-.48,1.44l-1.68-1.41H180a1.91,1.91,0,0,0-1.91,1.91v2.12a1.91,1.91,0,0,0,1.91,1.91h3.19v10.61H180a1.91,1.91,0,0,0-1.86,2.38l.42,1.7a1.91,1.91,0,0,0,1.86,1.45h69.83l1.55-1.41c.26,0,1,1.51,2,1.5,1.89,0,4.59-.27,5.89-1.3C261.39,289.68,262.71,284.24,262.71,281.19Zm-8.92,5.54H184.48V276.13h70C256.61,279.55,255.9,284.71,253.79,286.73Z"/><path class="cls-36" d="M253.78,293.75a3,3,0,0,1-2-.94l-.94.85H180.44a3.32,3.32,0,0,1-3.22-2.51l-.42-1.7a3.32,3.32,0,0,1,3.22-4.13h1.78v-7.79H180a3.32,3.32,0,0,1-3.32-3.32v-2.12a3.32,3.32,0,0,1,3.32-3.32H252l.55.47a1.33,1.33,0,0,1,1.09-.5c.23,0,.68,0,1.23.06,2.77.21,4.59.65,5.41,1.31,2.32,1.86,3.87,6.31,3.87,11.08,0,2.83-1.23,9.09-3.57,11-1.63,1.3-4.57,1.59-6.75,1.61Zm.14-2.79Zm-2.54-1.61.67.11a2.06,2.06,0,0,1,1.26.89,3.9,3.9,0,0,0,.57.59c2.31,0,4.19-.41,4.92-1,1.15-.91,2.5-5.65,2.5-8.75,0-4.34-1.42-7.76-2.82-8.88a12,12,0,0,0-3.86-.7A1.59,1.59,0,0,1,253.3,273l-.61.08-1.76-1.48H180a.51.51,0,0,0-.5.5v2.12a.5.5,0,0,0,.5.5h75.21l.42.66c2.56,4.05,1.63,10-.87,12.38l-.41.39H180a.51.51,0,0,0-.4.2.5.5,0,0,0-.09.43l.42,1.7a.5.5,0,0,0,.49.38h69.29Zm-65.5-4h67.28c1.26-1.69,1.66-5.23.45-7.79H185.88Z"/><path class="cls-37" d="M253.79,280.56H188.06a.7.7,0,1,1,0-1.41h65.73a.7.7,0,0,1,0,1.41Z"/><path class="cls-38" d="M253.79,283.47H188.06a.7.7,0,0,1,0-1.41h65.73a.7.7,0,0,1,0,1.41Z"/><polygon class="cls-5" points="167.27 265.06 167.63 251.47 227.08 250.2 229.62 253.18 228.17 264.63 221.66 265.06 167.27 265.06"/><path class="cls-39" d="M234.39,257.6c0-4.4-1.21-8.44-2.85-10-.63-.59-2.66-.89-3.94-1-.43,0-.77-.05-1-.05s-.28,1.42-.41,1.44l-1.43-1.41H164a1.79,1.79,0,0,0-1.63,1.91v2.12a1.79,1.79,0,0,0,1.63,1.91h2.71v10.61H164a1.55,1.55,0,0,0-1.28.74,2.18,2.18,0,0,0-.3,1.64l.36,1.7a1.7,1.7,0,0,0,1.58,1.45H223.8l1.32-1.41c.23,0,.86,1.51,1.67,1.5,1.61,0,3.91-.27,5-1.3C233.27,266.09,234.39,260.65,234.39,257.6Zm-7.59,5.54h-59V252.54h59.54C229.2,256,228.6,261.12,226.8,263.14Z"/><path class="cls-40" d="M226.79,270.16a2.37,2.37,0,0,1-1.73-.94l-.8.85H164.38a3,3,0,0,1-2.74-2.51l-.36-1.7a3.76,3.76,0,0,1,.51-2.85,2.69,2.69,0,0,1,2.23-1.28h1.51v-7.79H164a3.11,3.11,0,0,1-2.83-3.32V248.5a3.11,3.11,0,0,1,2.83-3.32h61.22l.47.47a1.08,1.08,0,0,1,.93-.5c.2,0,.58,0,1,.06,2.36.21,3.91.65,4.61,1.31,2,1.86,3.3,6.31,3.3,11.08,0,2.83-1,9.09-3,11-1.39,1.3-3.89,1.59-5.74,1.61Zm.12-2.79Zm-2.16-1.61.57.11a1.79,1.79,0,0,1,1.07.89,3.71,3.71,0,0,0,.48.59c2,0,3.56-.41,4.19-1,1-.91,2.13-5.65,2.13-8.75,0-4.34-1.21-7.76-2.4-8.88a8.93,8.93,0,0,0-3.28-.7c-.14.61-.39,1.27-1.12,1.38l-.52.08-1.5-1.48H164a.47.47,0,0,0-.43.5v2.12a.47.47,0,0,0,.43.5h64l.35.66c2.18,4.05,1.39,10-.74,12.38l-.35.39H164a.41.41,0,0,0-.34.2.57.57,0,0,0-.08.43l.36,1.7a.45.45,0,0,0,.42.38h59Zm-55.74-4h57.25a9.82,9.82,0,0,0,.38-7.79H169Z"/><path class="cls-41" d="M226.8,257H170.87a.71.71,0,0,1,0-1.41H226.8a.71.71,0,0,1,0,1.41Z"/><path class="cls-42" d="M226.8,259.88H170.87a.71.71,0,0,1,0-1.41H226.8a.71.71,0,0,1,0,1.41Z"/><polygon class="cls-5" points="228.89 230.8 228.53 241.32 169.3 242.31 166.78 240 168.22 231.13 174.71 230.8 228.89 230.8"/><path class="cls-43" d="M162,236.57c0,3.41,1.21,6.54,2.84,7.73.63.46,2.65.69,3.93.78.43,0,.77,0,1,0s.28-1.1.41-1.12l1.42,1.09h60.56a1.56,1.56,0,0,0,1.62-1.48V242a1.56,1.56,0,0,0-1.62-1.48h-2.7v-8.22h2.7a1.68,1.68,0,0,0,1.28-.57,1.38,1.38,0,0,0,.29-1.27l-.36-1.32a1.6,1.6,0,0,0-1.57-1.12h-59.2l-1.32,1.09c-.22,0-.86-1.17-1.67-1.16-1.6,0-3.89.21-5,1C163.14,230,162,234.21,162,236.57Zm7.56-4.29h58.77v8.22H169C167.2,237.85,167.79,233.84,169.58,232.28Z"/><path class="cls-44" d="M169.59,226.84a2.6,2.6,0,0,1,1.72.73l.8-.66h59.66a2.78,2.78,0,0,1,2.73,1.95l.36,1.32a2.39,2.39,0,0,1-.51,2.21,2.91,2.91,0,0,1-2.22,1h-1.51v6h1.51a2.71,2.71,0,0,1,2.82,2.57v1.65a2.71,2.71,0,0,1-2.82,2.57h-61l-.47-.36a1.18,1.18,0,0,1-.93.38c-.2,0-.57,0-1,0-2.35-.16-3.89-.5-4.59-1-2-1.44-3.28-4.89-3.28-8.58,0-2.2,1-7,3-8.49,1.38-1,3.87-1.23,5.72-1.25Zm-.12,2.16Zm2.15,1.25-.57-.09a1.75,1.75,0,0,1-1.07-.69,3.16,3.16,0,0,0-.48-.46,8.75,8.75,0,0,0-4.17.77c-1,.71-2.12,4.38-2.12,6.78,0,3.37,1.2,6,2.39,6.88a11,11,0,0,0,3.27.54,1.29,1.29,0,0,1,1.12-1.07l.52-.06L172,244h60.12a.41.41,0,0,0,.43-.39V242a.41.41,0,0,0-.43-.39H168.37l-.35-.51c-2.17-3.14-1.39-7.73.74-9.59l.35-.3h63a.45.45,0,0,0,.34-.15.36.36,0,0,0,.08-.33l-.36-1.32a.42.42,0,0,0-.41-.3H173Zm55.53,3.11h-57a6.1,6.1,0,0,0-.38,6h57.42Z"/><path class="cls-45" d="M169.58,237.06h55.72a.55.55,0,1,1,0,1.09H169.58a.55.55,0,1,1,0-1.09Z"/><path class="cls-46" d="M169.58,234.81h55.72a.55.55,0,1,1,0,1.09H169.58a.55.55,0,1,1,0-1.09Z"/><polygon class="cls-5" points="181.1 223.08 181.46 212.56 240.69 211.57 243.21 213.88 241.77 222.75 235.29 223.08 181.1 223.08"/><path class="cls-47" d="M248,217.31c0-3.41-1.21-6.54-2.84-7.73-.63-.46-2.65-.69-3.93-.78-.43,0-.77,0-1,0s-.28,1.1-.41,1.12l-1.42-1.09H177.86a1.56,1.56,0,0,0-1.62,1.48v1.64a1.56,1.56,0,0,0,1.62,1.48h2.7v8.22h-2.7a1.68,1.68,0,0,0-1.28.57,1.38,1.38,0,0,0-.29,1.27l.36,1.32a1.6,1.6,0,0,0,1.57,1.12h59.2l1.32-1.09c.22,0,.86,1.17,1.67,1.16,1.6,0,3.89-.21,5-1C246.85,223.89,248,219.67,248,217.31Zm-7.56,4.29H181.64v-8.22H241C242.8,216,242.2,220,240.41,221.6Z"/><path class="cls-48" d="M240.4,227a2.6,2.6,0,0,1-1.72-.73l-.8.66H178.22a2.78,2.78,0,0,1-2.73-1.95l-.36-1.32a2.39,2.39,0,0,1,.51-2.21,2.91,2.91,0,0,1,2.22-1h1.51v-6h-1.51A2.71,2.71,0,0,1,175,211.9v-1.65a2.71,2.71,0,0,1,2.82-2.57h61l.47.36a1.18,1.18,0,0,1,.93-.38c.2,0,.57,0,1,0,2.35.16,3.89.5,4.59,1,2,1.44,3.28,4.89,3.28,8.58,0,2.2-1,7-3,8.49-1.38,1-3.87,1.23-5.72,1.25Zm.12-2.16Zm-2.15-1.25.57.09a1.75,1.75,0,0,1,1.07.69,3.16,3.16,0,0,0,.48.46,8.75,8.75,0,0,0,4.17-.77c1-.71,2.12-4.38,2.12-6.78,0-3.37-1.2-6-2.39-6.88a11,11,0,0,0-3.27-.54A1.29,1.29,0,0,1,240,211l-.52.06L238,209.87H177.86a.41.41,0,0,0-.43.39v1.65a.41.41,0,0,0,.43.39h63.76l.35.51c2.17,3.14,1.39,7.73-.74,9.59l-.35.3h-63a.45.45,0,0,0-.34.15.36.36,0,0,0-.08.33l.36,1.32a.42.42,0,0,0,.41.3H237Zm-55.53-3.11h57a6.1,6.1,0,0,0,.38-6H182.84Z"/><path class="cls-49" d="M240.41,216.82H184.68a.55.55,0,1,1,0-1.09h55.72a.55.55,0,1,1,0,1.09Z"/><path class="cls-50" d="M240.41,219.07H184.68a.55.55,0,1,1,0-1.09h55.72a.55.55,0,1,1,0,1.09Z"/><polygon class="cls-5" points="213.07 291.91 213.49 278.33 283.36 277.06 286.33 280.03 284.63 291.49 276.98 291.91 213.07 291.91"/><path class="cls-51" d="M291.94,284.46c0-4.4-1.43-8.44-3.35-10-.74-.59-3.13-.89-4.64-1-.5,0-.91-.05-1.12-.05s-.33,1.42-.48,1.44l-1.68-1.41H209.24a1.91,1.91,0,0,0-1.91,1.91v2.12a1.91,1.91,0,0,0,1.91,1.91h3.19V290h-3.19a1.91,1.91,0,0,0-1.86,2.38l.42,1.7a1.91,1.91,0,0,0,1.86,1.45H279.5l1.55-1.41c.26,0,1,1.51,2,1.5,1.89,0,4.59-.27,5.89-1.3C290.62,292.95,291.94,287.51,291.94,284.46ZM283,290H213.71V279.39h70C285.84,282.82,285.13,288,283,290Z"/><path class="cls-52" d="M283,297a3,3,0,0,1-2-.94l-.94.85H209.67a3.32,3.32,0,0,1-3.22-2.51l-.42-1.7a3.32,3.32,0,0,1,3.22-4.13H211V280.8h-1.78a3.32,3.32,0,0,1-3.32-3.32v-2.12a3.32,3.32,0,0,1,3.32-3.32h71.94l.55.47a1.33,1.33,0,0,1,1.09-.5c.23,0,.68,0,1.23.06,2.77.21,4.59.65,5.41,1.31,2.32,1.86,3.87,6.31,3.87,11.08,0,2.83-1.23,9.09-3.57,11-1.63,1.3-4.57,1.59-6.75,1.61Zm.14-2.79Zm-2.54-1.61.67.11a2.06,2.06,0,0,1,1.26.89,3.9,3.9,0,0,0,.57.59c2.31,0,4.19-.41,4.92-1,1.15-.91,2.5-5.65,2.5-8.75,0-4.34-1.42-7.76-2.82-8.88a12,12,0,0,0-3.86-.7,1.59,1.59,0,0,1-1.32,1.38l-.61.08-1.76-1.48H209.24a.51.51,0,0,0-.5.5v2.12a.5.5,0,0,0,.5.5h75.21l.42.66c2.56,4.05,1.63,10-.87,12.38l-.41.39H209.24a.51.51,0,0,0-.4.2.5.5,0,0,0-.09.43l.42,1.7a.5.5,0,0,0,.49.38H279Zm-65.5-4h67.28c1.26-1.69,1.66-5.23.45-7.79H215.11Z"/><path class="cls-53" d="M283,283.83H217.29a.7.7,0,0,1,0-1.41H283a.7.7,0,0,1,0,1.41Z"/><path class="cls-54" d="M283,286.73H217.29a.7.7,0,0,1,0-1.41H283a.7.7,0,0,1,0,1.41Z"/><polygon class="cls-5" points="265.76 253.07 265.4 266.65 205.95 267.93 203.42 264.95 204.87 253.5 211.38 253.07 265.76 253.07"/><path class="cls-55" d="M198.65,260.53c0,4.4,1.21,8.44,2.85,10,.63.59,2.66.89,3.94,1,.43,0,.77.05,1,.05s.28-1.42.41-1.44l1.43,1.41H269a1.79,1.79,0,0,0,1.63-1.91v-2.12a1.79,1.79,0,0,0-1.63-1.91h-2.71V255H269a1.55,1.55,0,0,0,1.28-.74,2.18,2.18,0,0,0,.3-1.64l-.36-1.7a1.7,1.7,0,0,0-1.58-1.45H209.23l-1.32,1.41c-.23,0-.86-1.51-1.67-1.5-1.61,0-3.91.27-5,1.3C199.77,252,198.65,257.48,198.65,260.53Zm7.59-5.54h59v10.61H205.68C203.84,262.17,204.44,257,206.23,255Z"/><path class="cls-56" d="M206.24,248a2.37,2.37,0,0,1,1.73.94l.8-.85h59.89a3,3,0,0,1,2.74,2.51l.36,1.7a3.76,3.76,0,0,1-.51,2.85,2.69,2.69,0,0,1-2.23,1.28H267.5v7.79H269a3.11,3.11,0,0,1,2.83,3.32v2.12A3.11,3.11,0,0,1,269,273H207.8l-.47-.47a1.08,1.08,0,0,1-.93.5c-.2,0-.58,0-1-.06-2.36-.21-3.91-.65-4.61-1.31-2-1.86-3.3-6.31-3.3-11.08,0-2.83,1-9.09,3-11,1.39-1.3,3.89-1.59,5.74-1.61Zm-.12,2.79Zm2.16,1.61-.57-.11a1.79,1.79,0,0,1-1.07-.89,3.71,3.71,0,0,0-.48-.59c-2,0-3.56.41-4.19,1-1,.91-2.13,5.65-2.13,8.75,0,4.34,1.21,7.76,2.4,8.88a8.93,8.93,0,0,0,3.28.7c.14-.61.39-1.27,1.12-1.38l.52-.08,1.5,1.48H269a.47.47,0,0,0,.43-.5V267.5a.47.47,0,0,0-.43-.5H205l-.35-.66c-2.18-4.05-1.39-10,.74-12.38l.35-.39H269a.41.41,0,0,0,.34-.2.57.57,0,0,0,.08-.43l-.36-1.7a.45.45,0,0,0-.42-.38h-59Zm55.74,4H206.77a9.82,9.82,0,0,0-.38,7.79H264Z"/><path class="cls-57" d="M206.24,261.16h55.93a.71.71,0,0,1,0,1.41H206.24a.71.71,0,0,1,0-1.41Z"/><path class="cls-58" d="M206.24,258.25h55.93a.71.71,0,0,1,0,1.41H206.24a.71.71,0,0,1,0-1.41Z"/><polygon class="cls-5" points="275.64 177.74 283.72 170.15 324.78 209.73 324.78 213.16 317.19 218.8 312.52 214.63 275.64 177.74"/><path class="cls-59" d="M325.46,219c2.54-2.54,4-5.69,3.83-7.69-.08-.77-1.29-2.32-2.09-3.26-.27-.31-.49-.56-.62-.68s-1,.63-1.11.55l-.16-1.78-41.23-41.23a1.56,1.56,0,0,0-2.21,0l-1.23,1.23a1.56,1.56,0,0,0,0,2.21l1.84,1.84-6.12,6.12-1.84-1.84a1.56,1.56,0,0,0-2.44.3l-.73,1.22a1.56,1.56,0,0,0,.24,1.91l40.3,40.3,1.71.08c.13.18-.28,1.45.27,2,1.1,1.08,2.81,2.49,4.15,2.65C319.8,223.09,323.7,220.72,325.46,219ZM317.11,217l-40-40,6.12-6.12,40.38,40.38C322.89,214.49,319.5,217.06,317.11,217Z"/><path class="cls-60" d="M313.06,221.05a2.41,2.41,0,0,1-.63-1.71l-1-.05-40.62-40.62a2.71,2.71,0,0,1-.41-3.31l.74-1.23a2.71,2.71,0,0,1,4.24-.52l1,1,4.5-4.5-1-1a2.71,2.71,0,0,1,0-3.83l1.23-1.23a2.71,2.71,0,0,1,3.83,0l41.52,41.52.05.59a1.09,1.09,0,0,1,.92.34c.13.13.38.4.67.74,1.48,1.72,2.27,3,2.37,3.88.26,2.41-1.41,5.88-4.16,8.63-1.64,1.64-6,4.54-8.38,4.26-1.69-.19-3.56-1.72-4.82-3Zm1.69-1.53Zm-.53-2.4.32.45a1.68,1.68,0,0,1,.21,1.24,3.18,3.18,0,0,0,0,.67,7.81,7.81,0,0,0,3.42,2.27c1.19.13,4.71-1.82,6.49-3.6,2.51-2.51,3.66-5.3,3.5-6.76a9.81,9.81,0,0,0-1.82-2.63,1.3,1.3,0,0,1-1.56,0l-.4-.31-.16-1.87-40.93-40.93a.41.41,0,0,0-.58,0l-1.23,1.23a.41.41,0,0,0,0,.58l43.41,43.41-.14.62c-.86,3.82-4.82,6.7-7.65,6.64h-.46l-42.91-42.91a.41.41,0,0,0-.34-.12.41.41,0,0,0-.3.2l-.74,1.23a.41.41,0,0,0,.06.5l40,40ZM278.73,177l38.83,38.83a6.94,6.94,0,0,0,4.76-4.24l-39.09-39.09Z"/><path class="cls-61" d="M320.68,213.45l-37.94-37.94a.57.57,0,0,1,.81-.81l37.94,37.94a.57.57,0,1,1-.81.81Z"/><path class="cls-62" d="M319,215.12l-37.94-37.94a.57.57,0,1,1,.81-.81l37.94,37.94a.57.57,0,0,1-.81.81Z"/><polygon class="cls-5" points="211.6 245.08 211.96 234.56 271.19 233.57 273.72 235.88 272.27 244.75 265.79 245.08 211.6 245.08"/><path class="cls-63" d="M278.47,239.31c0-3.41-1.21-6.54-2.84-7.73-.63-.46-2.65-.69-3.93-.78-.43,0-.77,0-1,0s-.28,1.1-.41,1.12l-1.42-1.09H208.36a1.56,1.56,0,0,0-1.62,1.48v1.64a1.56,1.56,0,0,0,1.62,1.48h2.7v8.22h-2.7a1.68,1.68,0,0,0-1.28.57,1.38,1.38,0,0,0-.29,1.27l.36,1.32a1.6,1.6,0,0,0,1.57,1.12h59.2l1.32-1.09c.22,0,.86,1.17,1.67,1.16,1.6,0,3.89-.21,5-1C277.35,245.88,278.47,241.67,278.47,239.31Zm-7.56,4.29H212.14v-8.22h59.32C273.3,238,272.7,242,270.91,243.6Z"/><path class="cls-64" d="M270.9,249a2.6,2.6,0,0,1-1.72-.73l-.8.66H208.72A2.78,2.78,0,0,1,206,247l-.36-1.32a2.39,2.39,0,0,1,.51-2.21,2.91,2.91,0,0,1,2.22-1h1.51v-6h-1.51a2.71,2.71,0,0,1-2.82-2.57v-1.65a2.71,2.71,0,0,1,2.82-2.57h61l.47.36a1.18,1.18,0,0,1,.93-.38c.2,0,.57,0,1,0,2.35.16,3.89.5,4.59,1,2,1.44,3.28,4.89,3.28,8.58,0,2.2-1,7-3,8.49-1.38,1-3.87,1.23-5.72,1.25Zm.12-2.16Zm-2.15-1.25.57.09a1.75,1.75,0,0,1,1.07.69,3.16,3.16,0,0,0,.48.46,8.75,8.75,0,0,0,4.17-.77c1-.71,2.12-4.38,2.12-6.78,0-3.37-1.2-6-2.39-6.88a11,11,0,0,0-3.27-.54,1.29,1.29,0,0,1-1.12,1.07L270,233l-1.49-1.14H208.36a.41.41,0,0,0-.43.39v1.65a.41.41,0,0,0,.43.39h63.76l.35.51c2.17,3.14,1.39,7.73-.74,9.59l-.35.3h-63a.45.45,0,0,0-.34.15.36.36,0,0,0-.08.33l.36,1.32a.42.42,0,0,0,.41.3h58.74Zm-55.53-3.11h57a6.1,6.1,0,0,0,.38-6H213.34Z"/><path class="cls-65" d="M270.91,238.82H215.19a.55.55,0,1,1,0-1.09h55.72a.55.55,0,1,1,0,1.09Z"/><path class="cls-66" d="M270.91,241.07H215.19a.55.55,0,1,1,0-1.09h55.72a.55.55,0,1,1,0,1.09Z"/><polygon class="cls-5" points="262.82 215.14 262.46 225.66 203.23 226.65 200.71 224.34 202.15 215.47 208.64 215.14 262.82 215.14"/><path class="cls-67" d="M196,220.92c0,3.41,1.21,6.54,2.84,7.73.63.46,2.65.69,3.93.78.43,0,.77,0,1,0s.28-1.1.41-1.12l1.42,1.09h60.56a1.56,1.56,0,0,0,1.62-1.48v-1.64a1.56,1.56,0,0,0-1.62-1.48h-2.7v-8.22h2.7a1.68,1.68,0,0,0,1.28-.57,1.38,1.38,0,0,0,.29-1.27l-.36-1.32a1.6,1.6,0,0,0-1.57-1.12H206.5l-1.32,1.09c-.22,0-.86-1.17-1.67-1.16-1.6,0-3.89.21-5,1C197.07,214.34,196,218.55,196,220.92Zm7.56-4.29h58.77v8.22H203C201.13,222.19,201.72,218.19,203.51,216.62Z"/><path class="cls-68" d="M203.52,211.18a2.6,2.6,0,0,1,1.72.73l.8-.66H265.7a2.78,2.78,0,0,1,2.73,1.95l.36,1.32a2.39,2.39,0,0,1-.51,2.21,2.91,2.91,0,0,1-2.22,1h-1.51v6h1.51a2.71,2.71,0,0,1,2.82,2.57V228a2.71,2.71,0,0,1-2.82,2.57h-61l-.47-.36a1.18,1.18,0,0,1-.93.38c-.2,0-.57,0-1,0-2.35-.16-3.89-.5-4.59-1-2-1.44-3.28-4.89-3.28-8.58,0-2.2,1-7,3-8.49,1.38-1,3.87-1.23,5.72-1.25Zm-.12,2.16Zm2.15,1.25-.57-.09a1.75,1.75,0,0,1-1.07-.69,3.16,3.16,0,0,0-.48-.46,8.75,8.75,0,0,0-4.17.77c-1,.71-2.12,4.38-2.12,6.78,0,3.37,1.2,6,2.39,6.88a11,11,0,0,0,3.27.54,1.29,1.29,0,0,1,1.12-1.07l.52-.06,1.49,1.14h60.12a.41.41,0,0,0,.43-.39v-1.65a.41.41,0,0,0-.43-.39H202.3l-.35-.51c-2.17-3.14-1.39-7.73.74-9.59l.35-.3h63a.45.45,0,0,0,.34-.15.36.36,0,0,0,.08-.33l-.36-1.32a.42.42,0,0,0-.41-.3H207Zm55.53,3.11H204a6.1,6.1,0,0,0-.38,6h57.42Z"/><path class="cls-69" d="M203.52,221.4h55.72a.55.55,0,1,1,0,1.09H203.52a.55.55,0,1,1,0-1.09Z"/><path class="cls-70" d="M203.52,219.15h55.72a.55.55,0,1,1,0,1.09H203.52a.55.55,0,1,1,0-1.09Z"/><polygon class="cls-5" points="257.54 196.13 257.18 206.65 197.95 207.64 195.43 205.33 196.87 196.46 203.35 196.13 257.54 196.13"/><path class="cls-71" d="M190.67,201.9c0,3.41,1.21,6.54,2.84,7.73.63.46,2.65.69,3.93.78.43,0,.77,0,1,0s.28-1.1.41-1.12l1.42,1.09h60.56A1.56,1.56,0,0,0,262.4,209v-1.64a1.56,1.56,0,0,0-1.62-1.48h-2.7v-8.22h2.7a1.68,1.68,0,0,0,1.28-.57,1.38,1.38,0,0,0,.29-1.27l-.36-1.32a1.6,1.6,0,0,0-1.57-1.12h-59.2l-1.32,1.09c-.22,0-.86-1.17-1.67-1.16-1.6,0-3.89.21-5,1C191.79,195.33,190.67,199.54,190.67,201.9Zm7.56-4.29H257v8.22H197.68C195.85,203.17,196.44,199.17,198.23,197.61Z"/><path class="cls-72" d="M198.24,192.17a2.6,2.6,0,0,1,1.72.73l.8-.66h59.66a2.78,2.78,0,0,1,2.73,1.95l.36,1.32a2.39,2.39,0,0,1-.51,2.21,2.91,2.91,0,0,1-2.22,1h-1.51v6h1.51a2.71,2.71,0,0,1,2.82,2.57V209a2.71,2.71,0,0,1-2.82,2.57h-61l-.47-.36a1.18,1.18,0,0,1-.93.38c-.2,0-.57,0-1,0-2.35-.16-3.89-.5-4.59-1-2-1.44-3.28-4.89-3.28-8.58,0-2.2,1-7,3-8.49,1.38-1,3.87-1.23,5.72-1.25Zm-.12,2.16Zm2.15,1.25-.57-.09a1.75,1.75,0,0,1-1.07-.69,3.16,3.16,0,0,0-.48-.46,8.75,8.75,0,0,0-4.17.77c-1,.71-2.12,4.38-2.12,6.78,0,3.37,1.2,6,2.39,6.88a11,11,0,0,0,3.27.54,1.29,1.29,0,0,1,1.12-1.07l.52-.06,1.49,1.14h60.12a.41.41,0,0,0,.43-.39v-1.65a.41.41,0,0,0-.43-.39H197l-.35-.51c-2.17-3.14-1.39-7.73.74-9.59l.35-.3h63a.45.45,0,0,0,.34-.15.36.36,0,0,0,.08-.33l-.36-1.32a.42.42,0,0,0-.41-.3H201.68Zm55.53,3.11h-57a6.1,6.1,0,0,0-.38,6h57.42Z"/><path class="cls-73" d="M198.23,202.39H254a.55.55,0,1,1,0,1.09H198.23a.55.55,0,1,1,0-1.09Z"/><path class="cls-74" d="M198.23,200.14H254a.55.55,0,1,1,0,1.09H198.23a.55.55,0,1,1,0-1.09Z"/><polygon class="cls-5" points="202.93 188.58 203.29 178.06 262.52 177.07 265.04 179.37 263.6 188.25 257.12 188.58 202.93 188.58"/><path class="cls-75" d="M269.8,182.8c0-3.41-1.21-6.54-2.84-7.73-.63-.46-2.65-.69-3.93-.78-.43,0-.77,0-1,0s-.28,1.1-.41,1.12l-1.42-1.09H199.69a1.56,1.56,0,0,0-1.62,1.48v1.64a1.56,1.56,0,0,0,1.62,1.48h2.7v8.22h-2.7a1.68,1.68,0,0,0-1.28.57,1.38,1.38,0,0,0-.29,1.27l.36,1.32a1.6,1.6,0,0,0,1.57,1.12h59.2l1.32-1.09c.22,0,.86,1.17,1.67,1.16,1.6,0,3.89-.21,5-1C268.68,189.38,269.8,185.17,269.8,182.8Zm-7.56,4.29H203.47v-8.22h59.32C264.63,181.53,264,185.53,262.24,187.1Z"/><path class="cls-76" d="M262.23,192.54a2.6,2.6,0,0,1-1.72-.73l-.8.66H200a2.78,2.78,0,0,1-2.73-1.95L197,189.2a2.39,2.39,0,0,1,.51-2.21,2.91,2.91,0,0,1,2.22-1h1.51v-6h-1.51a2.71,2.71,0,0,1-2.82-2.57v-1.65a2.71,2.71,0,0,1,2.82-2.57h61l.47.36a1.18,1.18,0,0,1,.93-.38c.2,0,.57,0,1,0,2.35.16,3.89.5,4.59,1,2,1.44,3.28,4.89,3.28,8.58,0,2.2-1,7-3,8.49-1.38,1-3.87,1.23-5.72,1.25Zm.12-2.16Zm-2.15-1.25.57.09a1.75,1.75,0,0,1,1.07.69,3.16,3.16,0,0,0,.48.46,8.75,8.75,0,0,0,4.17-.77c1-.71,2.12-4.38,2.12-6.78,0-3.37-1.2-6-2.39-6.88a11,11,0,0,0-3.27-.54,1.29,1.29,0,0,1-1.12,1.07l-.52.06-1.49-1.14H199.69a.41.41,0,0,0-.43.39v1.65a.41.41,0,0,0,.43.39h63.76l.35.51c2.17,3.14,1.39,7.73-.74,9.59l-.35.3h-63a.45.45,0,0,0-.34.15.36.36,0,0,0-.08.33l.36,1.32a.42.42,0,0,0,.41.3h58.74ZM204.67,186h57a6.1,6.1,0,0,0,.38-6H204.67Z"/><path class="cls-77" d="M262.24,182.32H206.51a.55.55,0,1,1,0-1.09h55.72a.55.55,0,1,1,0,1.09Z"/><path class="cls-78" d="M262.24,184.57H206.51a.55.55,0,1,1,0-1.09h55.72a.55.55,0,1,1,0,1.09Z"/></g></svg>