<svg id="Layer_1" data-name="Layer 1" xmlns="http://www.w3.org/2000/svg" viewBox="0 0 300 300"><defs><style>.cls-1,.cls-6{fill:none;}.cls-2{fill:#d9ebff;}.cls-3{fill:#59acff;}.cls-4{fill:#f9f9fa;}.cls-5{fill:#fff;}.cls-6{stroke:#59acff;stroke-linecap:round;stroke-linejoin:round;stroke-width:0;}.cls-7{fill:#e1e1e6;}</style></defs><title>Onvoarding-</title><path class="cls-1" d="M227,231.93a6.19,6.19,0,0,1-1.9-.63l-21.72,11c5.91-.6,13.27-1,21.25-1q2.11,0,4.15,0l-.35-9.4A6.21,6.21,0,0,1,227,231.93Z"/><path class="cls-1" d="M63.13,91.53c-2,.28-3.45,1.08-4.17,2.37a4.41,4.41,0,0,0-.41,1,6,6,0,0,1,4.14-2,9.19,9.19,0,0,1,1.85-.05l-.12-1.41A9.1,9.1,0,0,0,63.13,91.53Z"/><path class="cls-1" d="M183,63.36s-.12-.27-.29-.73l-4.65.73Z"/><path class="cls-1" d="M55.73,214.42c1,0,1.89.11,2.78.18l-5.1-19.87Z"/><path class="cls-1" d="M143.83,241.86c0-.05,0-.1,0-.15,0-.85.06-2.12.11-3.57a53.66,53.66,0,0,1-12.34,1.36c-1.68,0-3.41-.07-5.14-.2-1.18-.09-2.3-.21-3.36-.37l.07,2.36h.11C130.62,241.3,137.58,241.5,143.83,241.86Z"/><path class="cls-1" d="M50.48,188.32a6.23,6.23,0,0,1-1.3-.14c-3.19,10.26-6.67,21.62-8.12,26.64a87.12,87.12,0,0,1,9.79-.52c1,0,1.92,0,2.86,0l-3.07-26Z"/><path class="cls-2" d="M148.56,248.53a4.41,4.41,0,0,1-3.19-1.35c-1.42-1.46-1.59-3.49-1.55-5.31-6.24-.36-13.2-.56-20.55-.56h-.11c0,.71,0,1.33.05,1.81.05,1.86-.09,4-1.54,5.47a4.41,4.41,0,0,1-3.19,1.35c-3,0-4.95-2.67-7.41-7.6-.13-.27-.26-.55-.39-.82-20.73.69-36,3-36,5.81,0,3.32,21.76,6,48.59,6s48.59-2.69,48.59-6c0-1.82-6.54-3.45-16.85-4.55C153,246.52,151.19,248.53,148.56,248.53Z"/><path class="cls-2" d="M28.73,136.62a1,1,0,0,0,0,2H85.4q-.23-1-.4-2Z"/><path class="cls-2" d="M38,133.53h17.2a.5.5,0,0,0,0-1H38a.5.5,0,0,0,0,1Z"/><path class="cls-2" d="M53.58,142.08a.5.5,0,0,0,0,1H86.71q-.18-.5-.35-1Z"/><path class="cls-2" d="M169.94,143V109.62H271.58V189c0,1.63-.32,1.95-1.95,1.95H171.89c-1.63,0-1.95-.32-1.95-1.95v-1.17a26.82,26.82,0,0,1-2.75,2v.92a3,3,0,0,0,3.11,2.91H271.22a3,3,0,0,0,3.11-2.91V97.18A3.35,3.35,0,0,0,271,93.83H170.54a3.35,3.35,0,0,0-3.35,3.35v41.93a28.68,28.68,0,0,1,1.62,4.8A5.69,5.69,0,0,1,169.94,143Zm95.62-43.62a2.26,2.26,0,1,1-2.26,2.26A2.26,2.26,0,0,1,265.56,99.41Zm-7.3,0a2.26,2.26,0,1,1-2.26,2.26A2.26,2.26,0,0,1,258.26,99.41Zm-65.19,2.15a2.45,2.45,0,0,1,2.45-2.45H246a2.45,2.45,0,0,1,2.45,2.45v.22a2.45,2.45,0,0,1-2.45,2.45H195.52a2.45,2.45,0,0,1-2.45-2.45Zm-9.82-2.15a2.26,2.26,0,1,1-2.26,2.26A2.26,2.26,0,0,1,183.26,99.41Zm-7.3,0a2.26,2.26,0,1,1-2.26,2.26A2.26,2.26,0,0,1,176,99.41Z"/><path class="cls-3" d="M271,91.83H170.54a5.36,5.36,0,0,0-5.35,5.35v38.1a29.66,29.66,0,0,1,2,3.83V97.18a3.35,3.35,0,0,1,3.35-3.35H271a3.35,3.35,0,0,1,3.35,3.35v93.57a3,3,0,0,1-3.11,2.91H170.29a3,3,0,0,1-3.11-2.91v-.92c-.65.4-1.31.78-2,1.12a5,5,0,0,0,5.09,4.71H271.22a5,5,0,0,0,5.11-4.91V97.18A5.36,5.36,0,0,0,271,91.83Z"/><path class="cls-4" d="M213.31,145a4.91,4.91,0,0,0-4.57-2.39h-.35a8,8,0,0,0-5.41,2,10.05,10.05,0,0,0,4.76,1.41A15.55,15.55,0,0,0,213.31,145Z"/><path class="cls-4" d="M237,144.61a8,8,0,0,0-5.41-2h-.35a4.91,4.91,0,0,0-4.57,2.39,15.55,15.55,0,0,0,5.56,1A10.05,10.05,0,0,0,237,144.61Z"/><path class="cls-4" d="M171.89,191h97.74c1.63,0,1.95-.32,1.95-1.95V109.62H169.94V143c.13-.08.26-.17.4-.24a4.83,4.83,0,0,1,2.16-.51h0a4.93,4.93,0,0,1,3.08,1.09,5.49,5.49,0,0,1,1.63-.25h.41a4.91,4.91,0,0,1,3.81,2.24,5.47,5.47,0,0,1,1,.34c2.25,1,3.88,3.59,2.49,7.13v.05a6.06,6.06,0,0,1-.49,1.9l-.3.7c-.55,1.28-1,2.31-1.31,2.9l-.39.73L182,160a11.65,11.65,0,0,1-.59,2.6c-.05.15-.11.31-.18.46s-.16.56-.26.83a13.7,13.7,0,0,1-2.73,4.75,22.25,22.25,0,0,1-7.85,18.93l-.42.33V189C169.94,190.66,170.26,191,171.89,191Zm21.26-58.21c2-2,5.1-2.85,10.69-2.85a27.73,27.73,0,0,1,11.82,2.5,8.4,8.4,0,0,0,8.69,0,27.73,27.73,0,0,1,11.82-2.5c5.59,0,8.69.82,10.69,2.85,2.2,2.22,2.48,5.52,2.46,8.45-.09,11.93-5.82,19.94-14.26,19.94-3.51,0-6.35-2-8.85-3.83-2.13-1.53-4.15-3-6.2-3s-4.21,1.49-6.45,3.06c-2.61,1.84-5.31,3.75-8.6,3.75-8.44,0-14.17-8-14.26-19.94C190.67,138.29,190.95,135,193.15,132.77Z"/><circle class="cls-3" cx="175.96" cy="101.68" r="2.26"/><circle class="cls-3" cx="183.26" cy="101.68" r="2.26"/><rect class="cls-3" x="193.07" y="99.12" width="55.38" height="5.12" rx="2.45" ry="2.45"/><circle class="cls-3" cx="258.26" cy="101.68" r="2.26"/><circle class="cls-3" cx="265.56" cy="101.68" r="2.26"/><path class="cls-2" d="M60.57,215.73q.38-.42.81-.82l-.75-.09,0,.17A1,1,0,0,1,60.57,215.73Z"/><path class="cls-2" d="M60.36,216a1,1,0,0,1-.41.23,1,1,0,0,1-1.22-.72l-.23-.88c-.89-.08-1.83-.13-2.78-.18l.64,5.4a1,1,0,0,1-.88,1.11h-.12a1,1,0,0,1-1-.88l-.67-5.72c-.94,0-1.88,0-2.86,0a87.12,87.12,0,0,0-9.79.52c-.4,1.4-.65,2.32-.69,2.57a1,1,0,0,1-1,1,1,1,0,0,1-1-1,17.92,17.92,0,0,1,.54-2.2c-4.66.71-7.68,1.83-7.68,3.08,0,2.15,8.78,3.89,19.61,3.89,2.4,0,4.68-.09,6.8-.25,0-.28.06-.57.12-.85A10.89,10.89,0,0,1,60.36,216Z"/><path class="cls-3" d="M39.37,218.35a1,1,0,0,0,1-1c0-.25.28-1.17.69-2.57,1.45-5,4.94-16.38,8.12-26.64a6.23,6.23,0,0,0,1.3.14h.16l3.07,26,.67,5.72a1,1,0,0,0,1,.88h.12a1,1,0,0,0,.88-1.11l-.64-5.4-2.32-19.69,5.1,19.87.23.88a1,1,0,0,0,1.22.72,1,1,0,0,0,.41-.23l.21-.24a1,1,0,0,0,.1-.74l0-.17-7-27.35a6.17,6.17,0,0,0,2.91-6.79l11.58-2.3a1.64,1.64,0,0,0,1.29-1.92L64.75,153a1.64,1.64,0,0,0-1.92-1.29h0L62.27,149a.15.15,0,0,0-.18-.12l-6.66,1.32a.15.15,0,0,0-.12.18l.55,2.77-26.21,5.2a1.64,1.64,0,0,0-1.29,1.92L33,183.67A1.64,1.64,0,0,0,34.92,185l9.43-1.87a6.21,6.21,0,0,0,3,4.35c-3,9.8-7,22.57-8.4,27.66a17.92,17.92,0,0,0-.54,2.2A1,1,0,0,0,39.37,218.35ZM63,154.42a.11.11,0,0,1,.14.07l.57,2.86c0,.05,0,.1-.1.11l-5.28,1a.11.11,0,0,1-.14-.07l-.57-2.86c0-.05,0-.1.1-.12ZM35.25,175a1.94,1.94,0,1,1,1.53-2.29A1.94,1.94,0,0,1,35.25,175Zm3.28-5.08a10.46,10.46,0,1,1,12.29,8.22A10.46,10.46,0,0,1,38.53,169.93Z"/><path class="cls-4" d="M57.62,155.59l.57,2.86a.11.11,0,0,0,.14.07l5.28-1c.07,0,.11-.06.1-.11l-.57-2.86a.11.11,0,0,0-.14-.07l-5.28,1C57.66,155.48,57.61,155.54,57.62,155.59Z"/><circle class="cls-2" cx="34.87" cy="173.11" r="1.94" transform="translate(-32.99 10.08) rotate(-11.21)"/><path class="cls-2" d="M50.82,178.16a10.46,10.46,0,1,0-12.29-8.22A10.46,10.46,0,0,0,50.82,178.16Zm-8.48-9a6.57,6.57,0,1,1,7.72,5.17A6.57,6.57,0,0,1,42.34,169.18Z"/><path class="cls-3" d="M50.06,174.34a6.57,6.57,0,1,0-7.72-5.17A6.57,6.57,0,0,0,50.06,174.34Zm-6-5.58a4.85,4.85,0,1,1,5.7,3.81A4.85,4.85,0,0,1,44,168.76Z"/><circle class="cls-3" cx="50.19" cy="165.8" r="1.19" transform="translate(-31.27 12.92) rotate(-11.21)"/><path class="cls-4" d="M53.52,166.87a4.85,4.85,0,1,0-3.81,5.7A4.85,4.85,0,0,0,53.52,166.87ZM49,166a1.19,1.19,0,1,1,1.4.94A1.19,1.19,0,0,1,49,166Z"/><path class="cls-5" d="M87.37,176.42a2.81,2.81,0,0,1-.93-.5A2.8,2.8,0,0,0,87.37,176.42Z"/><path class="cls-5" d="M164.68,155.75h0a1.39,1.39,0,0,0,.06.16h0A1.64,1.64,0,0,1,164.68,155.75Z"/><path class="cls-5" d="M75.73,170.45c-.23-.34-.25-.64-.61-1.15C75.47,169.81,75.49,170.11,75.73,170.45Z"/><path class="cls-5" d="M113.85,238.82c.18.41.36.82.56,1.22.38.77.73,1.41,1.06,2-.32-.58-.67-1.23-1-2C114.21,239.65,114,239.24,113.85,238.82Z"/><path class="cls-5" d="M91.58,117.85c2.47-1.5,9.91.58,15.31,3.47a29.3,29.3,0,0,1,4.61,3,54.21,54.21,0,0,1,9.77-2.61,47.37,47.37,0,0,1,10.18-.75,29,29,0,0,1,3.4-4.59c4.09-4.56,10.38-9.05,13.2-8.49,3.33.67,9.56,11.31,9.11,22.48l.11.09c.49-11.27-5.84-22-9.21-22.72a2.89,2.89,0,0,0-.57-.05c-3.15,0-8.91,4.29-12.76,8.59a29.13,29.13,0,0,0-3.41,4.61q-.76,0-1.56,0a49.09,49.09,0,0,0-8.52.79,54.38,54.38,0,0,0-9.68,2.57,29.4,29.4,0,0,0-4.63-3c-4.15-2.22-9.49-4-12.92-4a4.92,4.92,0,0,0-2.52.53c-2.92,1.77-5.18,13.93-1,24.32l.08-.13C86.49,131.6,88.7,119.6,91.58,117.85Z"/><path class="cls-5" d="M165.77,153.88a10.27,10.27,0,0,0,1.47-1.06,5.42,5.42,0,0,1,3-.56,11,11,0,0,1,2.54.75l0,0a11,11,0,0,0-2.52-.75,2.69,2.69,0,0,0-.48,0,5.57,5.57,0,0,0-2.49.6,10.26,10.26,0,0,1-1.47,1.06,3.19,3.19,0,0,0-.79.45v0A3.12,3.12,0,0,1,165.77,153.88Z"/><path class="cls-5" d="M116.72,187l0,0,.78-1.71h0Z"/><path class="cls-5" d="M88.51,158.42c0,.26.06.52.1.78.09.53.21,1,.33,1.56q-.18-.76-.32-1.54C88.58,158.95,88.55,158.68,88.51,158.42Z"/><path class="cls-5" d="M88.59,166.86a10.27,10.27,0,0,0,1.71.58,1.74,1.74,0,0,1,1.39.61,1.72,1.72,0,0,0-1.4-.62,10.28,10.28,0,0,1-1.71-.58,3.28,3.28,0,0,0-.82-.09,5.43,5.43,0,0,0-2.19.43,13.55,13.55,0,0,0-1.42.86l0,0a13.41,13.41,0,0,1,1.47-.88A5.42,5.42,0,0,1,88.59,166.86Z"/><path class="cls-5" d="M103.78,185.92l.22.24a.5.5,0,0,1-.73.68s-.33-.36-.76-.87c.38.52.65.84.68.88a.57.57,0,1,0,.87-.72l0,0a9.47,9.47,0,0,0,2.07.19,46.25,46.25,0,0,0,10.78-1.71l-.07-.08a45,45,0,0,1-10.68,1.67A8.37,8.37,0,0,1,103.78,185.92Z"/><path class="cls-5" d="M88.9,172.85l-1.39,0a1.78,1.78,0,0,0-.06,1.23.81.81,0,0,0,.75.5.79.79,0,0,0,.29-.06.8.8,0,0,0,.49-.89A4.07,4.07,0,0,1,88.9,172.85Z"/><path class="cls-5" d="M105.46,188.29l-.2.18a2.57,2.57,0,0,1-3.61-.33,29,29,0,0,1-3.93-6.48c-.55-1.31-1.09-2.68-1.57-4a9.11,9.11,0,0,1-1.23,2.12,4.94,4.94,0,0,1,.12.83,9.91,9.91,0,0,0,5.83,8,12.34,12.34,0,0,0,4.86,1,13.76,13.76,0,0,0,7.11-2.12,38.75,38.75,0,0,1-6.73.74Z"/><path class="cls-5" d="M165.1,167.94a5.21,5.21,0,0,1-.14-.86q-.29-.2-.57-.43c0,1.15-.05,2.34-.11,3.5a27.83,27.83,0,0,1-.9,5.52A10.08,10.08,0,0,0,165.1,167.94Z"/><path class="cls-5" d="M163.62,162.34a6,6,0,0,0,.29.62,6,6,0,0,1-.28-.6c-.24-.59.09-1.59,0-2.25,0-.25-.05-.5-.07-.73v0c0,.23,0,.46.07.7C163.71,160.76,163.38,161.75,163.62,162.34Z"/><path class="cls-5" d="M159,178.86a29,29,0,0,1-4.57,1.34,12,12,0,0,0,4.81-1.21Z"/><path class="cls-5" d="M79.84,165.1a5.7,5.7,0,0,1,.79-1.84c.28-.64.58-1.81,1.5-1.66a1.68,1.68,0,0,1,1.09.68,1.68,1.68,0,0,0-1.1-.69H82c-.8,0-1.07,1.07-1.34,1.67a5.7,5.7,0,0,0-.79,1.84l-.1.61v0Z"/><path class="cls-5" d="M90.94,173.22a2.8,2.8,0,0,1-2.74,3.33,2.76,2.76,0,0,1-.41,0,2.73,2.73,0,0,0,1.45-.15,2.8,2.8,0,0,0,1.71-3.13,2.12,2.12,0,0,1,.37-1.66h0A2.12,2.12,0,0,0,90.94,173.22Z"/><path class="cls-5" d="M92.41,168.66v0h0l-.5.09v0Z"/><path class="cls-5" d="M85.2,236.84a1,1,0,0,1-1.41.13,1,1,0,0,1-.34-.61h-.14a1.12,1.12,0,0,0,.39.71,1.13,1.13,0,0,0,1.59-.15s.14-.18.31-.42h-.13C85.32,236.69,85.22,236.82,85.2,236.84Z"/><path class="cls-5" d="M97.65,235.49a1,1,0,0,1-1.32.5,1,1,0,0,1-.56-.74l-.13,0a1.11,1.11,0,0,0,.62.81,1.13,1.13,0,0,0,1.49-.56c0-.05.17-.38.36-.91l-.14,0C97.8,235.15,97.67,235.44,97.65,235.49Z"/><path class="cls-5" d="M73.67,234.61a1,1,0,0,1-1.56-1.17l-.13-.06a1.13,1.13,0,0,0,1.77,1.31s.18-.16.43-.42l-.11,0C73.84,234.45,73.69,234.58,73.67,234.61Z"/><path class="cls-5" d="M111.2,228.49c.08.6.17,1.24.28,1.91-.11-.67-.2-1.29-.27-1.89Z"/><path class="cls-5" d="M65.48,216a.49.49,0,0,1,.17-.4,32.83,32.83,0,0,1,11.18-5.46,1,1,0,0,1,.39-.36,1,1,0,0,1,.84,0,42.17,42.17,0,0,1,6.72-1.16,1,1,0,0,1,1.57-.1l.93-.06c2-.07,3.87,0,5.62.06a1,1,0,0,1,.84-.23,1.5,1.5,0,0,1,.51.31,51.55,51.55,0,0,1,7,1,1,1,0,0,1,1.29-.06s.25.2.56.51A32.41,32.41,0,0,1,108,211.8v-.08a32.74,32.74,0,0,0-4.73-1.63c-.37-.36-.61-.56-.65-.6a1.09,1.09,0,0,0-.68-.24,1.14,1.14,0,0,0-.79.32,51.92,51.92,0,0,0-6.8-1,1.74,1.74,0,0,0-.61-.39l-.22,0a1.13,1.13,0,0,0-.77.31c-1.1-.06-2.25-.1-3.45-.1q-1,0-2,0l-.82.05a1.14,1.14,0,0,0-.87-.41,1.09,1.09,0,0,0-.59.17,1.11,1.11,0,0,0-.34.36,42.35,42.35,0,0,0-6.51,1.12,1.18,1.18,0,0,0-.54-.14,1,1,0,0,0-.44.1,1.1,1.1,0,0,0-.47.44,32.8,32.8,0,0,0-11.09,5.44.56.56,0,0,0-.19.49c-2.1,1.53-3.57,3.29-4,5.23a5.55,5.55,0,0,0-.08,1.42,5.56,5.56,0,0,1,.09-1.41C61.85,219.32,63.35,217.55,65.48,216Z"/><path class="cls-5" d="M107.27,232.15a1,1,0,0,1-1.35.43,1,1,0,0,1-.52-.78l-.13.06a1.1,1.1,0,0,0,.57.82,1.13,1.13,0,0,0,1.52-.49,12,12,0,0,0,.68-1.77l-.14.08A11.42,11.42,0,0,1,107.27,232.15Z"/><path class="cls-5" d="M77,167.25c-.07-.49-.05-1.09-.17-1.62-.17-.76-.28-1.48.51-1.79l.2-.06a1.46,1.46,0,0,0-.21,0c-.79.31-.68,1-.51,1.79.12.53.09,1.13.17,1.62l-.1-.11a1.56,1.56,0,0,0-1.18-.53l-.15,0a1.56,1.56,0,0,1,1.33.52Z"/><path class="cls-5" d="M74.74,167l.18-.13a1.4,1.4,0,0,0-.19.12c-.57.49-.5,1.08,0,1.76C74.25,168.06,74.18,167.47,74.74,167Z"/><path class="cls-5" d="M80.08,175.23l0,.05,0,0Z"/><path class="cls-5" d="M111.48,200.26h0a63.75,63.75,0,0,0-2.56,10v0A64.44,64.44,0,0,1,111.56,200Z"/><path class="cls-5" d="M77.91,163.72a1.61,1.61,0,0,0-.17,0,1.54,1.54,0,0,1,.76.1A1.53,1.53,0,0,0,77.91,163.72Z"/><path class="cls-5" d="M147.59,241.34c0-1.69.15-5.06.25-8.14h0c-.1,3.07-.2,6.43-.25,8.11a7,7,0,0,0,.18,2.1A7.19,7.19,0,0,1,147.59,241.34Z"/><path class="cls-5" d="M81.56,177.81a6.86,6.86,0,0,0,.44.67h0a6.81,6.81,0,0,1-.44-.67Z"/><path class="cls-5" d="M161.52,163.68l-.32.53a39.6,39.6,0,0,1,.32,4.41C161.6,166.83,161.58,165.11,161.52,163.68Z"/><path class="cls-5" d="M98.24,175.08c.44,1.4,1,3,1.64,4.62a41.12,41.12,0,0,1-1.1-4.19Z"/><path class="cls-5" d="M145.81,179.28l0,.11c6.2-.41,12.5-1.85,14.25-3.34-.09.29-.15.46-.15.47a.56.56,0,0,0,.34.72.58.58,0,0,0,.19,0,.56.56,0,0,0,.53-.37,26.32,26.32,0,0,0,.9-3.36c-.43,1.85-.92,3.25-1,3.35a.5.5,0,0,1-.47.34l-.17,0a.5.5,0,0,1-.31-.64s.11-.33.27-.85l-.05.08C158.9,177.17,152.68,178.83,145.81,179.28Z"/><path class="cls-5" d="M91.11,143l-.08.14v0c-.07.14-.13.29-.19.44l.28-.57Z"/><path class="cls-5" d="M165.66,157.91h0Z"/><path class="cls-5" d="M169.94,187.86l.42-.33a22.25,22.25,0,0,0,7.85-18.93,13.7,13.7,0,0,0,2.73-4.75c.1-.27.18-.55.26-.83s.12-.31.18-.46A11.65,11.65,0,0,0,182,160l.42-.81.39-.73c.31-.59.76-1.62,1.31-2.9l.3-.7a6.06,6.06,0,0,0,.49-1.9v-.05c1.39-3.54-.24-6.12-2.49-7.13a5.47,5.47,0,0,0-1-.34,4.91,4.91,0,0,0-3.81-2.24h-.41a5.49,5.49,0,0,0-1.63.25,4.93,4.93,0,0,0-3.08-1.09h0a4.83,4.83,0,0,0-2.16.51c-.14.07-.26.16-.4.24a5.69,5.69,0,0,0-1.14.87,28.68,28.68,0,0,0-1.62-4.8,29.66,29.66,0,0,0-2-3.83,31.49,31.49,0,0,0-3.64-4.77c.29-12.39-6.45-25-12.44-26.17a6.91,6.91,0,0,0-1.35-.13c-5.41,0-12.44,6.23-15.74,9.92a35.73,35.73,0,0,0-2.59,3.25,54,54,0,0,0-8.61.84,61.4,61.4,0,0,0-8.29,2,35.81,35.81,0,0,0-3.44-2.09c-3.86-2.06-10-4.47-14.81-4.47a8.62,8.62,0,0,0-4.6,1.12C85.48,117.35,83.35,127,85,136.62q.17,1,.4,2c.26,1.16.58,2.32,1,3.46q.17.5.35,1c.07.19.14.39.21.58a29.93,29.93,0,0,0-2.25,15,5.66,5.66,0,0,0-1.66-.55,5,5,0,0,0-.81-.07,4.75,4.75,0,0,0-4,2.15h0a5.52,5.52,0,0,0-2,.37,4.91,4.91,0,0,0-3,3.26,5.48,5.48,0,0,0-.84.61c-1.86,1.63-2.67,4.59-.3,7.55h0l0,.05a6.06,6.06,0,0,0,1,1.67l.5.58c.9,1.07,1.63,1.92,2.1,2.39l.66.67.57.57a11.64,11.64,0,0,0,1.33,2.31l.31.39c.15.25.32.49.49.72a13.7,13.7,0,0,0,4,3.74,22.25,22.25,0,0,0,13.06,15.79A25.16,25.16,0,0,0,106,203h.81q-.62,2.14-1,4.09l-.27-.08-.15-.12a5.11,5.11,0,0,0-4.41-1c-1.62-.31-3.3-.55-5-.72a4.48,4.48,0,0,0-1.21-.42,5.14,5.14,0,0,0-2.6.17c-.87,0-1.73-.05-2.6-.05l-1.88,0a5.1,5.1,0,0,0-4.39.33,46.52,46.52,0,0,0-4.93.86l-.51,0a5,5,0,0,0-2.13.47,4.87,4.87,0,0,0-.89.54A35.88,35.88,0,0,0,63.28,213a4.53,4.53,0,0,0-.93,1.06c-.34.28-.67.57-1,.86s-.55.54-.81.82l-.21.24a10.89,10.89,0,0,0-2.59,5c-.06.28-.09.57-.12.85-.58,5.41,3.51,10.89,11,14.75a5.07,5.07,0,0,0,.74,1.11A5.13,5.13,0,0,0,75,239.17a41.42,41.42,0,0,0,6.38,1.44l.05,0a5.13,5.13,0,0,0,6.09.33c.73,0,1.44-.06,2.12-.12a49.11,49.11,0,0,0,5-.73l.23.11a5.13,5.13,0,0,0,6.4-1.86q1.85-.62,3.64-1.37a5.14,5.14,0,0,0,4-.25,33.67,33.67,0,0,0,1.76,4.75c.13.28.25.56.39.82,2.47,4.93,4.38,7.6,7.41,7.6a4.41,4.41,0,0,0,3.19-1.35c1.46-1.5,1.6-3.6,1.54-5.47,0-.48,0-1.1-.05-1.81l-.07-2.36c1.06.15,2.18.28,3.36.37,1.73.13,3.46.2,5.14.2a53.66,53.66,0,0,0,12.34-1.36c0,1.45-.08,2.72-.11,3.57,0,.05,0,.1,0,.15,0,1.83.13,3.86,1.55,5.31a4.41,4.41,0,0,0,3.19,1.35c2.63,0,4.42-2,6.46-5.77q.47-.86,1-1.83a41.37,41.37,0,0,0,3.66-13.29c2.69-7.45.41-21.1-2.15-28.64q-1-2.88-2-5.52a24.05,24.05,0,0,0,9.68-2.53c.67-.34,1.33-.72,2-1.12A26.82,26.82,0,0,0,169.94,187.86ZM154,191q-.79,0-1.59-.05c1,2.52,2,5.26,3,8.19,2.42,7.13,4.71,20.68,2.08,27.52a39.63,39.63,0,0,1-3.49,12.86c-2.43,4.86-3.85,6.5-5.62,6.5a2.43,2.43,0,0,1-1.75-.75c-.74-.77-1-2-1-4,0-1.35.11-3.77.19-6.26a49.18,49.18,0,0,1-14.43,2c-1.63,0-3.3-.07-5-.2a43.41,43.41,0,0,1-5.59-.77c.08,2.62.16,5.21.2,6.63.06,2-.23,3.25-1,4a2.43,2.43,0,0,1-1.75.75c-1.78,0-3.19-1.64-5.62-6.5a35.56,35.56,0,0,1-2.92-9.12,11.57,11.57,0,0,1-.55,1.3,3.12,3.12,0,0,1-2.78,1.69,3.15,3.15,0,0,1-1.44-.35l-.24-.14a50.59,50.59,0,0,1-5.05,1.91l-.06.13a3.13,3.13,0,0,1-4.14,1.56,3,3,0,0,1-.66-.41,47.61,47.61,0,0,1-5.59.86c-.84.08-1.73.12-2.63.12a3.13,3.13,0,0,1-4.12.12,3.09,3.09,0,0,1-.4-.4,39.27,39.27,0,0,1-7.43-1.68A3.12,3.12,0,0,1,70,234.65c-7.48-3.65-11.48-8.85-10.5-13.77a10.5,10.5,0,0,1,4.17-6,2.53,2.53,0,0,1,.66-.85,34,34,0,0,1,11.24-5.66,2.92,2.92,0,0,1,.76-.51,3,3,0,0,1,1.29-.28,3.11,3.11,0,0,1,.6.06,44.5,44.5,0,0,1,5.53-1l.19-.13a3.1,3.1,0,0,1,3.11-.12h.16c.7,0,1.41,0,2.11,0,1,0,1.94,0,2.93.07a3.13,3.13,0,0,1,1.89-.22,2.72,2.72,0,0,1,1,.41,54.41,54.41,0,0,1,5.72.83,3.11,3.11,0,0,1,3.06.47s.19.15.41.36c1.09.31,2,.61,2.78.89a66.73,66.73,0,0,1,2.32-9,22,22,0,0,1-3.6.3,23.18,23.18,0,0,1-9.14-1.93,20.42,20.42,0,0,1-12.09-15.3,10.81,10.81,0,0,1-4.16-3.59c-.17-.22-.33-.46-.47-.7l-.33-.41a9.76,9.76,0,0,1-1.24-2.25l-.77-.78-.73-.73c-.42-.42-1.15-1.28-2-2.28l-.51-.6a4.11,4.11,0,0,1-.7-1.16,1.77,1.77,0,0,0-.3-.51c-1.66-2.06-1-3.83,0-4.78a3.48,3.48,0,0,1,1.35-.75A2.81,2.81,0,0,1,76.63,162,3.52,3.52,0,0,1,79,161.9,3.29,3.29,0,0,1,82,159.57a3,3,0,0,1,.48,0,3.69,3.69,0,0,1,3,4.24l-.22,1.3a8.14,8.14,0,0,1,2.5-.39h.37a26.52,26.52,0,0,1-1.49-5.23,27.86,27.86,0,0,1,2.2-16.36c-4.73-11.2-2.44-24.7,1.62-27.17a6.71,6.71,0,0,1,3.56-.83c4.11,0,9.92,2.13,13.87,4.24a32.89,32.89,0,0,1,4,2.55,58.15,58.15,0,0,1,9-2.29,51.39,51.39,0,0,1,8.86-.82h.47a32.72,32.72,0,0,1,3-3.92c3.33-3.72,9.88-9.25,14.25-9.25a4.91,4.91,0,0,1,1,.09c4.65.93,11.42,12.84,10.8,25a27.86,27.86,0,0,1,7.66,14.63,26.49,26.49,0,0,1,.39,5.19,8.35,8.35,0,0,1,2.4-.39h.18l-.59-1.18a3.69,3.69,0,0,1,1.66-4.94,2.84,2.84,0,0,1,1.27-.3,3.53,3.53,0,0,1,2.68,1.48,3.52,3.52,0,0,1,2-.64h.26a2.81,2.81,0,0,1,2.61,2.09h0a3.41,3.41,0,0,1,1.43.31c1.36.6,2.46,2.12,1.48,4.57a1.77,1.77,0,0,0-.14.58,4.1,4.1,0,0,1-.33,1.31l-.31.73c-.51,1.2-1,2.23-1.24,2.76l0,.08-.95,1.81a9.76,9.76,0,0,1-.52,2.51c-.06.16-.12.32-.19.48s-.15.54-.25.81a10.81,10.81,0,0,1-2.92,4.65,20.42,20.42,0,0,1-7.07,18.18A22.48,22.48,0,0,1,154,191Z"/><path class="cls-5" d="M169.56,160.09h.07a.8.8,0,0,0,.79-.73,1.79,1.79,0,0,0-.42-1.16l-1.32.44a4.15,4.15,0,0,1,.14.74A.8.8,0,0,0,169.56,160.09Z"/><path class="cls-5" d="M178.47,149.66a1.54,1.54,0,0,1,2-.79,1.19,1.19,0,0,1,.45.32,1.17,1.17,0,0,0-.46-.34,1.47,1.47,0,0,0-.62-.14,1.56,1.56,0,0,0-1.42.92l-.05.12s0,0,0,0Z"/><path class="cls-5" d="M171.12,148.15a1.69,1.69,0,0,1,.76-2.26c.83-.41,1.46.62,1.92,1.15a8.24,8.24,0,0,1,1.13,1.22,8,8,0,0,0-1.14-1.24c-.38-.44-.89-1.24-1.53-1.24a.86.86,0,0,0-.38.1,1.69,1.69,0,0,0-.76,2.26l1.3,2.61.57,1.15h0l-.57-1.14Z"/><path class="cls-5" d="M169.63,162.09h-.23a2.8,2.8,0,0,1-2-1.14,2.8,2.8,0,0,0,5.06-1.4,3.68,3.68,0,0,0-.58-2.19,3.67,3.67,0,0,1,.57,2.17A2.8,2.8,0,0,1,169.63,162.09Z"/><path class="cls-5" d="M175.43,148.07a1.55,1.55,0,0,1,1.65-1.43.91.91,0,0,1,.68.31.91.91,0,0,0-.69-.33H177a1.55,1.55,0,0,0-1.54,1.43s0,.45-.06,1.05v0C175.4,148.53,175.43,148.12,175.43,148.07Z"/><path class="cls-2" d="M105.49,231.23s2.29-4.62.74-11.45a16.52,16.52,0,0,0-4.92-8.62,1,1,0,0,1-.32-.51,50.79,50.79,0,0,0-5.65-.89,20.57,20.57,0,0,1,4.32,11A32.39,32.39,0,0,1,98,234.66l.14,0v0a48.3,48.3,0,0,0,7.15-2.75v0l.13-.06A1,1,0,0,1,105.49,231.23Z"/><path class="cls-2" d="M95.82,234.67a30,30,0,0,0,1.85-13.76,18,18,0,0,0-4.52-10.61l-.17-.13a1.43,1.43,0,0,1-.41-.63c-1.64-.09-3.39-.12-5.26-.05l-.39,0a27.31,27.31,0,0,1,2.46,13.77c-.46,7.74-3.07,12-3.92,13.21h.13v0h.79c.87,0,1.74,0,2.6-.11q.86-.08,1.69-.19h.06a48.21,48.21,0,0,0,4.88-.91v0l.13,0A1,1,0,0,1,95.82,234.67Z"/><path class="cls-2" d="M83.66,235.57s3.23-4.06,3.73-12.41-2.59-13.38-2.62-13.43,0,0,0-.07a40.92,40.92,0,0,0-6,1,22.73,22.73,0,0,1,.52,12.68c-1.4,6.43-4.18,9.8-5.2,10.86l.11,0h0a36.82,36.82,0,0,0,9.13,2.08v0h.14A1,1,0,0,1,83.66,235.57Z"/><path class="cls-2" d="M72.35,233.1s3.4-3.07,4.94-10.15c1.43-6.58-.22-11-.51-11.72a32.59,32.59,0,0,0-10.49,5.15.5.5,0,0,1-.7-.06.49.49,0,0,1-.11-.3c-2.13,1.54-3.63,3.31-4,5.27a5.56,5.56,0,0,0-.09,1.41s0,.05,0,.08c0,.19,0,.38.07.57s0,.15,0,.23.08.33.13.5l.1.31q.07.22.16.43c.05.13.11.26.17.39l.18.36c.09.17.19.35.3.52l.14.23c1.76,2.7,5.16,5.21,9.32,7.06h0l.13.06A1,1,0,0,1,72.35,233.1Z"/><path class="cls-4" d="M102.56,209.61a1,1,0,0,0-1.29.06,51.55,51.55,0,0,0-7-1,1.5,1.5,0,0,0-.51-.31,1,1,0,0,0-.84.23c-1.74-.1-3.6-.13-5.62-.06l-.93.06a1,1,0,0,0-1.57.1,42.17,42.17,0,0,0-6.72,1.16,1,1,0,0,0-.84,0,1,1,0,0,0-.39.36,32.83,32.83,0,0,0-11.18,5.46.52.52,0,0,0-.06.7.5.5,0,0,0,.7.06,32.59,32.59,0,0,1,10.49-5.15c.29.69,1.94,5.13.51,11.72-1.54,7.09-4.91,10.13-4.94,10.15a1,1,0,0,0-.1,1.41,1,1,0,0,0,1.41.1s.17-.15.38-.38c1-1.06,3.8-4.43,5.2-10.86a22.73,22.73,0,0,0-.52-12.68,40.92,40.92,0,0,1,6-1s0,0,0,.07,3.12,5.06,2.62,13.43-3.7,12.37-3.73,12.41a1,1,0,0,0,.13,1.41,1,1,0,0,0,1.41-.13s.12-.15.26-.36c.85-1.2,3.46-5.47,3.92-13.21a27.31,27.31,0,0,0-2.46-13.77l.39,0c1.87-.06,3.62,0,5.26.05a1.43,1.43,0,0,0,.41.63l.17.13a18,18,0,0,1,4.52,10.61,30,30,0,0,1-1.85,13.76,1.05,1.05,0,0,0,.5,1.32,1,1,0,0,0,1.32-.5c0-.05.15-.34.33-.83a32.39,32.39,0,0,0,1.68-13.94,20.57,20.57,0,0,0-4.32-11,50.79,50.79,0,0,1,5.65.89,1,1,0,0,0,.32.51,16.52,16.52,0,0,1,4.92,8.62c1.55,6.83-.72,11.41-.74,11.45a1.05,1.05,0,0,0,.43,1.35,1,1,0,0,0,1.35-.43,11.42,11.42,0,0,0,.64-1.65,21.38,21.38,0,0,0,.27-11.16,19.17,19.17,0,0,0-3.75-7.79,27.37,27.37,0,0,1,3.67,1.39c0-.41-.07-.8-.09-1.15a32.41,32.41,0,0,0-4.89-1.68C102.8,209.81,102.59,209.64,102.56,209.61Z"/><path class="cls-4" d="M142.52,188.93a21,21,0,0,1-9.86,4A19.13,19.13,0,0,1,121.1,191c-4,5.82-7.86,14.64-8.17,23.23,0,.59,0,1.17,0,1.75a18,18,0,0,0,2.46,9.26c4.15,6.69,12.67,7.79,18.76,7.52,5.37-.24,10.5-2.16,13.9-6v-.05l.09-.05a16.15,16.15,0,0,0,3.64-7.75c1.71-9.23-2.4-18.46-6.16-25.52A20.69,20.69,0,0,0,142.52,188.93Z"/><path class="cls-2" d="M173.74,166.41v0c1.59-.84,2.58-2.68,3.19-4.39a6.86,6.86,0,0,0,.23-.79c.08-.16.15-.33.21-.5a8.25,8.25,0,0,0,.44-2.39v0l1.18-2.24c.36-.68,1.23-2.77,1.5-3.37s.06-.87.44-1.82c.28-.7.33-1.27,0-1.66a1.19,1.19,0,0,0-.45-.32,1.54,1.54,0,0,0-2,.79l-.06.13s0,0,0,0v0c0-.3-.13-.63-.2-1,0-.1,0-.19-.05-.29s-.05-.23-.06-.34a2.32,2.32,0,0,0-.33-1.23.91.91,0,0,0-.68-.31,1.55,1.55,0,0,0-1.65,1.43s0,.46-.06,1.05v0h0l-.28-.56-.16-.29a8.24,8.24,0,0,0-1.13-1.22c-.46-.53-1.09-1.56-1.92-1.15a1.69,1.69,0,0,0-.76,2.26l1.3,2.61.57,1.14a26.37,26.37,0,0,1,4,3.73.5.5,0,1,1-.89.45,25.92,25.92,0,0,0-3.32-3.06,11,11,0,0,0-2.54-.75,5.42,5.42,0,0,0-3,.56,10.27,10.27,0,0,1-1.47,1.06,3.12,3.12,0,0,0-.81.46v0h0a25.14,25.14,0,0,0,.29-6.38v0q-.09-1.07-.28-2.14c-.12-.66-.26-1.31-.43-1.95l-.06-.23q-.23-.85-.52-1.67l-.09-.25a25.08,25.08,0,0,0-1.62-3.58l-.07-.12q-.44-.8-.95-1.56l-.11-.17a27.59,27.59,0,0,0-2.46-3.18h0l-.16-.17h0a27.63,27.63,0,0,0-8.12-5.35.5.5,0,0,1-.28-.65.53.53,0,0,1,.65-.28,28.56,28.56,0,0,1,4.48,2.4c0-10.08-5.63-18.74-7.55-19.13l-.21,0c-1.71,0-6.84,3.11-11.12,7.88a28.12,28.12,0,0,0-2.65,3.42,27.74,27.74,0,0,1,7.34,1.71,14,14,0,0,1,3.37,1.78.5.5,0,0,1-.62.78c-.07-.05-7-5.38-22.33-2.69s-20,9.16-20,9.23a.5.5,0,0,1-.9-.38.49.49,0,0,1,.08-.19c.13-.19,2.38-3.31,8.79-6.16a28.66,28.66,0,0,0-3.43-2.14c-4.72-2.52-9.6-3.76-12-3.76a2.73,2.73,0,0,0-1.31.23c-1.65,1-3.93,10.92-.63,20.34a31.23,31.23,0,0,1,4-4.55.51.51,0,0,1,.71,0,.5.5,0,0,1,0,.71,32.54,32.54,0,0,0-5.36,6.64l-.17.35-.28.57c-.14.29-.27.59-.4.89s-.23.53-.34.8q-.29.74-.54,1.5c-.09.28-.17.57-.26.86s-.18.63-.26.94-.14.6-.21.9-.12.57-.17.86-.11.62-.16.93-.07.6-.11.9q-.09.82-.12,1.64c0,.27,0,.55,0,.82s0,.67,0,1,0,.54,0,.81,0,.66.08,1,.08.62.12.92.07.53.11.79q.14.78.32,1.54v0c.11.45.24.9.37,1.34l.11.34c.1.33.22.65.34,1l.19.5c.09.24.2.47.3.71a25.85,25.85,0,0,0,2.14,4v0l5.29-.94-.24-1.34a4.68,4.68,0,0,1,.34-3.25,1.37,1.37,0,0,1-.38-2.72h.06c-.78-12.35,10.36-24.1,26-26.85,16.52-2.91,31.78,5.36,34.08,18.46,0,.17,0,.35.07.52a23.22,23.22,0,0,1,1.9,4.23l4.7-.83a1.38,1.38,0,0,1,.42,0h0l0-.18v0h0a1.64,1.64,0,0,0,.07.18,1.35,1.35,0,0,1,1,.9,2.78,2.78,0,0,0,1.62.13l2.75-.92a2.69,2.69,0,0,1,1.71,1.3,3.68,3.68,0,0,1,.58,2.19,2.81,2.81,0,0,1-5.58.05,2.1,2.1,0,0,0-.12-.52l0-.07a2.09,2.09,0,0,0-.2-.37l-.07-.09a2.14,2.14,0,0,0-.3-.32l0,0a2.17,2.17,0,0,0-.39-.25h0a1.37,1.37,0,0,1-1,.71l-.9.16-3.5.62a41,41,0,0,1,.9,4.82l.32-.53c-.08-2.07-.22-3.51-.22-3.53a.5.5,0,0,1,.45-.55.52.52,0,0,1,.55.45s.07.74.14,1.89c.42-.85.8-1.7,1.14-2.57v0c0,.24,0,.48.07.73.07.66-.26,1.66,0,2.25a6,6,0,0,0,.28.6l.06.1c.09.16.18.31.28.46s.23.33.36.49l0,0a6.39,6.39,0,0,0,2.4,1.9h0a3.35,3.35,0,0,0,0,1.51,12,12,0,0,1-3.88,11.34,14.09,14.09,0,0,1-9.31,3.42,17.56,17.56,0,0,1-7.65-1.81,3.18,3.18,0,0,0-.78-.29,10.39,10.39,0,0,1-4.27,3.83l-.43.22a17,17,0,0,1-2.31.94,9.73,9.73,0,0,1-6.12,4,7.83,7.83,0,0,1-6.85-1.94,8.66,8.66,0,0,1-3.58-.15c-.52-.1-1.09-.23-1.75-.41a6.45,6.45,0,0,1-2.59-1.38l-.78,1.71,0,0-.1.22a16.85,16.85,0,0,1-10.87,4.46,14.26,14.26,0,0,1-5.65-1.19,12,12,0,0,1-7-9.7,3.31,3.31,0,0,0-.43-1.43v0a7,7,0,0,0,2.21-4.44c.05-.64-.56-1.49-.68-2.14a6.11,6.11,0,0,0-.42-1.55l-2,.35a1.35,1.35,0,0,1-.44,0,2.12,2.12,0,0,0-.37,1.66,2.8,2.8,0,0,1-1.71,3.13,2.73,2.73,0,0,1-1.45.15,2.84,2.84,0,0,1-.4-.09h0a2.8,2.8,0,0,1-.93-.5l-.16-.13-.16-.16-.2-.24-.09-.13a2.79,2.79,0,0,1-.25-.47c-.54-1.34-.1-3.33,1.16-4l2.89.07a2.79,2.79,0,0,0,.6-.13,1.36,1.36,0,0,1-.09-.29,1.38,1.38,0,0,1,1.12-1.6l.62-.11v0h0a1.51,1.51,0,0,0-.2-.68,1.74,1.74,0,0,0-1.39-.61,10.27,10.27,0,0,1-1.71-.58,5.42,5.42,0,0,0-3,.34,13.41,13.41,0,0,0-1.47.88,15.78,15.78,0,0,0-2,3.73.5.5,0,0,1-.47.34l-.16,0a.5.5,0,0,1-.31-.64,15.84,15.84,0,0,1,1.49-3.06l.33-2,.48-2.88a1.67,1.67,0,0,0-1.38-1.92c-.92-.15-1.22,1-1.5,1.66a5.7,5.7,0,0,0-.79,1.84l-.1.62v0h0c-.21-.56-.35-.95-.37-1a1.53,1.53,0,0,0-.21-.36l-.07-.09a1.53,1.53,0,0,0-.24-.22l-.2-.12-.13-.06a1.54,1.54,0,0,0-.76-.1l-.17,0-.2.06c-.79.31-.68,1-.51,1.79.12.53.09,1.13.17,1.62l-.1-.11a1.56,1.56,0,0,0-1.33-.52l-.13,0a1.49,1.49,0,0,0-.42.14l-.12.07-.18.13c-.56.49-.5,1.07,0,1.74l.21.29.21.29c.35.51.38.81.61,1.15l.13.17c.43.49,1.88,2.23,2.42,2.78l1.8,1.81h0l0,0a9.68,9.68,0,0,0,.43,1l.08.14a7.07,7.07,0,0,0,.59.95c.11.15.23.29.35.42v0h0a6.81,6.81,0,0,0,.44.67c1.08,1.45,2.57,2.93,4.34,3.26h0c.28,2.33,1.92,11.06,11.09,15a21.09,21.09,0,0,0,8.35,1.77,20.43,20.43,0,0,0,5.61-.81,20,20,0,0,1,3.14-5.59l.07-.08a.5.5,0,0,1,.71.71s-1.79,1.87-3.75,7.31a64.44,64.44,0,0,0-2.65,10.32c0,.49.08,1.23.16,2.14.22,2.67.62,6.82,1.3,10.67a.5.5,0,0,1-.41.58h-.09a.5.5,0,0,1-.49-.41c-.65-3.71-1.06-7.7-1.28-10.39a27.37,27.37,0,0,0-3.67-1.39,19.17,19.17,0,0,1,3.75,7.79,21.38,21.38,0,0,1-.27,11.16l.14-.08v0c1.15-.65,2.2-1.3,3.13-1.92v0h0c.08.6.16,1.23.27,1.89h0c.07.41.15.84.23,1.27l0,.09q.12.62.27,1.27l0,.14q.14.62.31,1.26l0,.17c.11.41.23.83.36,1.25l.07.2c.13.41.27.82.41,1.23l.08.21c.15.4.31.81.47,1.2l.06.13c.18.42.37.83.57,1.23.38.76.72,1.4,1,2l.2.37.29.48.28.46.21.32.3.43.16.21.3.37.11.12a3.78,3.78,0,0,0,.29.29l.07.06a1.61,1.61,0,0,0,.29.19h0a.66.66,0,0,0,.27.07c.58,0,.78-1.07.73-2.71s-.15-4.94-.25-8a13.36,13.36,0,0,1-4.1-2.46.5.5,0,0,1-.05-.67l0,0a.5.5,0,0,1,.71,0,13.43,13.43,0,0,0,2,1.4,10.89,10.89,0,0,0,1.44.71v-.2h0a35.69,35.69,0,0,0,7.83,1.38q2.5.19,4.83.19a44.39,44.39,0,0,0,16-2.7l.48-.22a17,17,0,0,0,3.46-2.24.5.5,0,1,1,.67.74,17.82,17.82,0,0,1-4.17,2.61c-.1,3.08-.2,6.44-.25,8.14a7.19,7.19,0,0,0,.17,2.08v0a1.56,1.56,0,0,0,.1.24l.05.09.08.1a.53.53,0,0,0,.11.1l0,0a.41.41,0,0,0,.18,0c.68,0,1.9-1.51,3.84-5.39a37.93,37.93,0,0,0,3.32-12.46l0,0c2.35-5.74.59-18.61-2-26.34-1-2.88-2.12-6-3.33-9.07,0,0,0,0-.05-.07s-.12-.33-.18-.5l-.07-.18c-.18-.45-.38-.9-.6-1.33a28.18,28.18,0,0,0-2.27-3.68.5.5,0,0,1,.8-.6,28,28,0,0,1,2.62,4.36,23.2,23.2,0,0,0,3.6.29,20.56,20.56,0,0,0,13.57-5C175.14,177.55,174.16,168.73,173.74,166.41Zm-22,52.48a16.15,16.15,0,0,1-3.64,7.75l-.09.05v.05c-3.4,3.87-8.54,5.8-13.9,6-6.09.27-14.61-.83-18.76-7.52a18,18,0,0,1-2.46-9.26c0-.58,0-1.17,0-1.75.31-8.59,4.19-17.41,8.17-23.23a19.13,19.13,0,0,0,11.56,1.9,21,21,0,0,0,9.86-4,20.69,20.69,0,0,1,3.09,4.44C149.37,200.43,153.48,209.66,151.77,218.89Z"/><path class="cls-2" d="M255.71,243.84a1.63,1.63,0,0,1-1.24.65l-23.87.88a1.64,1.64,0,0,1-1.7-1.58l-.09-2.4q-2,0-4.15,0c-8,0-15.33.36-21.25,1l-7.71,3.91a1,1,0,1,1-.9-1.78l2.7-1.37c-5.09.82-8.16,1.88-8.16,3,0,2.62,15.81,4.74,35.32,4.74S260,248.72,260,246.1C260,245.28,258.43,244.51,255.71,243.84Z"/><path class="cls-4" d="M91.29,142.73l-.18.31,0,0Z"/><path class="cls-4" d="M92.62,119.56a2.73,2.73,0,0,1,1.31-.23c2.42,0,7.3,1.23,12,3.76a28.66,28.66,0,0,1,3.43,2.14c-6.41,2.85-8.66,6-8.79,6.16a.49.49,0,0,0-.08.19.5.5,0,0,0,.9.38c0-.06,4.68-6.52,20-9.23s22.26,2.64,22.33,2.69a.5.5,0,0,0,.62-.78,14,14,0,0,0-3.37-1.78,27.74,27.74,0,0,0-7.34-1.71,28.12,28.12,0,0,1,2.65-3.42c4.28-4.77,9.41-7.88,11.12-7.88l.21,0c1.91.38,7.51,9,7.55,19.13.64.41,1.3.88,2,1.4.45-11.17-5.78-21.82-9.11-22.48-2.83-.56-9.11,3.93-13.2,8.49a29,29,0,0,0-3.4,4.59,47.37,47.37,0,0,0-10.18.75,54.21,54.21,0,0,0-9.77,2.61,29.3,29.3,0,0,0-4.61-3c-5.4-2.89-12.84-5-15.31-3.47-2.88,1.75-5.1,13.75-1,24.06.45-.72.91-1.4,1.36-2C88.69,130.47,91,120.56,92.62,119.56Z"/><polygon class="cls-2" points="97.89 168.81 97.7 167.72 97.89 168.81 97.89 168.81"/><path class="cls-2" d="M96.81,173.83c-.41-1.4-.64-2.33-.65-2.35a.5.5,0,1,1,1-.24s.41,1.66,1.1,3.84l.55.43a45.77,45.77,0,0,1-.77-5.06l-3.77.67A29.24,29.24,0,0,0,96.81,173.83Z"/><path class="cls-4" d="M99.88,179.7l.25.6a22.94,22.94,0,0,0,3.66,5.62,8.37,8.37,0,0,0,2.36.26,45,45,0,0,0,10.68-1.67,6.85,6.85,0,0,1-1.42-3.4l0-.18c0-.13,0-.25-.06-.38l0-.39,0-.7c0-.13,0-.23,0-.32h0a8.11,8.11,0,0,1-2.29.24q-.37,0-.74-.06l-2.24.4a10,10,0,0,1-11.59-8.1l-.21-1.19-.17,0a45.77,45.77,0,0,0,.77,5.06A41.12,41.12,0,0,0,99.88,179.7Z"/><polygon class="cls-4" points="97.96 169.18 97.89 168.81 97.89 168.81 97.96 169.18"/><path class="cls-4" d="M102.58,155.67a8.24,8.24,0,0,1,9.24-7l4.43.6a8.22,8.22,0,0,1,6.48,5,8.21,8.21,0,0,1,7-1.31,8.19,8.19,0,0,1,3.15-5.45l3.55-2.71a8.24,8.24,0,0,1,11.51,1.55l3.44,4.51,4.17-.74a1.37,1.37,0,0,1,.92,2.55,4.08,4.08,0,0,1,1.36,2.31c.06.22.12.44.16.69l.93,5.24a10,10,0,0,1-8.1,11.59l-1.5.27h0a8.2,8.2,0,0,1-3.11.55l-.46.08-.29,0,.06.12.05.12c0,.09.08.18.11.27v0h0l.12.36a2.59,2.59,0,0,1,.1.31l.09.36c0,.12,0,.22.06.32l0,.08.07.53s0,0,0,.07a1.11,1.11,0,0,1,0,.12l0,.48a.77.77,0,0,1,0,.16v.16c0,.12,0,.24,0,.35a6,6,0,0,1-.4,2c6.87-.44,13.09-2.1,14.33-3.49l.05-.08a30,30,0,0,0,1.3-6.57c0-.17,0-.34,0-.52a39.6,39.6,0,0,0-.32-4.41,41,41,0,0,0-.9-4.82l-1.6.28-.48-2.69,1.3-.23a23.22,23.22,0,0,0-1.9-4.23c0-.17,0-.35-.07-.52-2.31-13.1-17.57-21.37-34.08-18.46-15.62,2.75-26.76,14.5-26,26.85l4.56-.81Z"/><path class="cls-2" d="M116.24,149.22l-4.43-.6a8.24,8.24,0,0,0-9.24,7l-.53,3.92,18.71-3.32,0-.08a8.25,8.25,0,0,1,1.91-2A8.22,8.22,0,0,0,116.24,149.22Z"/><path class="cls-2" d="M115.24,179.14h0V179c0-.09,0-.18,0-.27h0l-.19,0-2.86.51q.37,0,.74.06A8.11,8.11,0,0,0,115.24,179.14Z"/><path class="cls-2" d="M146.18,173.3a8.2,8.2,0,0,0,3.11-.55Z"/><path class="cls-2" d="M136.44,144.78l-3.55,2.71a8.19,8.19,0,0,0-3.15,5.45,8.24,8.24,0,0,1,2.57,1.19l.11.09,19-3.36-3.44-4.51A8.24,8.24,0,0,0,136.44,144.78Z"/><path class="cls-2" d="M132.33,187.19h0Z"/><polygon class="cls-2" points="116.8 182.57 116.81 182.56 116.8 182.56 116.8 182.57"/><path class="cls-2" d="M126.3,153.76a7.2,7.2,0,0,0-4.06,2.25l8.7-1.54A7.19,7.19,0,0,0,126.3,153.76Z"/><path class="cls-2" d="M122.25,162l.34,1.89.29-.26-.07-.4a1.32,1.32,0,0,1,1.06-1.53,1.3,1.3,0,0,1,1.26.5,10,10,0,0,1,8.45,0L133.2,160a4.69,4.69,0,0,1,.33-3.24l-12.7,2.25A4.69,4.69,0,0,1,122.25,162Z"/><path class="cls-2" d="M134.13,165.28l-.05-.31a1.38,1.38,0,0,1-.3.09,1.32,1.32,0,0,1-.9-.15,7.31,7.31,0,0,0-7.08,0l1.14,6.31a1.32,1.32,0,1,1-2.59.47l-.89-4.91a1.3,1.3,0,0,1-.32.11l.05.3a10,10,0,0,1-6.85,11.28l0,.26v0l0,.08c0,.06,0,.11,0,.17v0h0v.07c0,.08,0,.17,0,.25l.06,1c0,.13,0,.23.06.34l.2.87a.29.29,0,0,1,0,.08l0,.11a.8.8,0,0,1,.06.18l.13.34s0,0,0,.05,0,0,0,.05l0,.07v0h0l.15.33h0l.09.16c1.22,2,3.66,2.94,6.68,2.44h.09l.12,0h.17l.19,0a4.22,4.22,0,0,1,1.49.13,7.67,7.67,0,0,1,1.38.53c.43.21.84.43,1.25.62a7.72,7.72,0,0,0,1.22.46,5.56,5.56,0,0,0,1.28.18h.64l.37,0,.16,0h.14l.36-.07L133,187l.08,0h0l0,0,.18-.06.09,0h0l0,0,.17-.07.15-.07.14-.06.84-.48a7.33,7.33,0,0,0,1-.86c.32-.32.62-.67,1-1a7.36,7.36,0,0,1,1.11-1,4.41,4.41,0,0,1,1.35-.64l.35-.08.17,0h.14c2.94-.6,4.88-2.28,5.31-4.63l0-.23v0l0-.11h0v-.05h0v-.39c0-.07,0-.13,0-.2a5.46,5.46,0,0,0,0-.66h0a.47.47,0,0,1,0-.1h0a.5.5,0,0,1,0-.1h0V176h0a1.37,1.37,0,0,1,0-.2l0-.18c0-.12,0-.22-.06-.32l-.08-.34a2.68,2.68,0,0,0-.09-.3l-.15-.44-.07-.15,0-.08-.08-.18-.12-.22,0,0A10,10,0,0,1,134.13,165.28Zm-5.61,16.3a1.31,1.31,0,0,1-1.77.58,4,4,0,0,1-2-2.61,1.32,1.32,0,0,1,2.59-.48,1.53,1.53,0,0,0,.6.75A1.31,1.31,0,0,1,128.52,181.57Z"/><path class="cls-3" d="M131.67,187.28h0Z"/><path class="cls-4" d="M127.95,179.81a1.53,1.53,0,0,1-.6-.75,1.32,1.32,0,0,0-2.59.48,4,4,0,0,0,2,2.61,1.32,1.32,0,0,0,1.2-2.34Z"/><path class="cls-4" d="M123.87,161.69a1.32,1.32,0,0,0-1.06,1.53l.07.4a10.05,10.05,0,0,1,2.25-1.43A1.3,1.3,0,0,0,123.87,161.69Z"/><path class="cls-4" d="M125.86,172.77a1.32,1.32,0,0,0,1.06-1.53l-1.14-6.31a7.32,7.32,0,0,0-2,1.58,1.31,1.31,0,0,1-.37.29l.89,4.91A1.32,1.32,0,0,0,125.86,172.77Z"/><path class="cls-2" d="M182.69,62.63c-.16-.44-.37-1-.58-1.78h1.24a.5.5,0,0,0,.46-.7,19.45,19.45,0,0,1-1.45-9.07l.15-.29c0-.08,0-.15-.06-.23a8.61,8.61,0,0,1,.91-2.62,7.39,7.39,0,0,1,.67-1,8.3,8.3,0,0,1,.78,1.2,12.55,12.55,0,0,1,5.9-2.17l.77-.08-.38-2.43h.06a15,15,0,0,1,13.53,5,22.16,22.16,0,0,1,4.13,6.34.5.5,0,0,0,1-.08c.06-.3,1.53-7.22,8.71-5.86s12.88,12.25,12.94,12.36a.5.5,0,0,0,.45.27H251a.5.5,0,0,0,0-1H232.17c-.95-1.78-6.29-11.24-13.5-12.61-6.12-1.17-8.61,3.12-9.48,5.36C207.51,49.91,201.92,41,191,42.48h-.08l-.28-1.76a1.31,1.31,0,0,0-1.49-1.09h0l-.35-2.23a.12.12,0,0,0-.14-.1l-5.36.84a.12.12,0,0,0-.1.14l.35,2.23-21.08,3.32a1.31,1.31,0,0,0-1.09,1.49l2.28,14.51h-2.32a.5.5,0,0,0,0,1h2.48l.4,2.51H178Zm6.86-18.82c.05,0,.1,0,.11,0l.27,1.73s0,.06-.09.07l-4.25.67c-.05,0-.1,0-.11,0l-.1-.67a10.6,10.6,0,0,1,3.77-1.74ZM166,54.29a1.55,1.55,0,1,1-1.29,1.78A1.55,1.55,0,0,1,166,54.29Zm3.26-.88a8.34,8.34,0,0,1,14.15-7.2,8.43,8.43,0,0,0-.87,1.25,9.21,9.21,0,0,0-.72,1.68,5.26,5.26,0,1,0-.4,6.43c0-.18,0-.37,0-.55a22.52,22.52,0,0,0,1.23,4.84h-.76c0-.19-.08-.38-.13-.58a8.28,8.28,0,0,1-1.18.58h-6.19A8.34,8.34,0,0,1,169.21,53.4Zm10.38-3.08a1,1,0,1,1-1.09-.79A1,1,0,0,1,179.59,50.32Z"/><path class="cls-4" d="M185.49,46.29s.05,0,.11,0l4.25-.67c.05,0,.09,0,.09-.07l-.27-1.73s-.05,0-.11,0l-.4.06a10.6,10.6,0,0,0-3.77,1.74Z"/><circle class="cls-4" cx="166.19" cy="55.82" r="1.55" transform="translate(-6.66 26.52) rotate(-8.95)"/><path class="cls-4" d="M183.36,47.94a8.61,8.61,0,0,0-.91,2.62c0,.07,0,.15.06.23a8,8,0,0,1,2.3-2.63A8.3,8.3,0,0,0,184,47,7.39,7.39,0,0,0,183.36,47.94Z"/><path class="cls-4" d="M181.74,59.27a17.51,17.51,0,0,1-.37-3.71,5.24,5.24,0,1,1,.4-6.43,9.21,9.21,0,0,1,.72-1.68,8.43,8.43,0,0,1,.87-1.25,8.34,8.34,0,1,0-9,13.65h6.19A8.28,8.28,0,0,0,181.74,59.27Z"/><circle class="cls-4" cx="178.65" cy="50.47" r="0.95" transform="translate(-5.68 28.4) rotate(-8.95)"/><path class="cls-3" d="M158.7,159.68l1.6-.28,3.5-.62.9-.16a1.37,1.37,0,0,0,1-.71h0a2.17,2.17,0,0,1,.39.25l0,0a2.14,2.14,0,0,1,.3.32l.07.09a2.09,2.09,0,0,1,.2.37l0,.07a2.1,2.1,0,0,1,.12.52,2.8,2.8,0,0,0,2.55,2.49h.23a2.8,2.8,0,0,0,2.79-2.57,3.67,3.67,0,0,0-.57-2.17,2.69,2.69,0,0,0-1.71-1.3l-2.75.92a2.78,2.78,0,0,1-1.62-.13,1.35,1.35,0,0,0-1-.9h-.11a1.38,1.38,0,0,0-.42,0l-4.7.83-1.3.23ZM170,158.2a1.79,1.79,0,0,1,.42,1.16.8.8,0,0,1-.79.73h-.07a.8.8,0,0,1-.73-.71,4.15,4.15,0,0,0-.14-.74Z"/><path class="cls-3" d="M91.28,168.86a1.38,1.38,0,0,0-1.12,1.6,1.36,1.36,0,0,0,.09.29,2.79,2.79,0,0,1-.6.13l-2.89-.07c-1.26.66-1.7,2.64-1.16,4a2.79,2.79,0,0,0,.25.47l.09.13.2.24.16.16.16.13a2.81,2.81,0,0,0,.93.5h0a2.84,2.84,0,0,0,.4.09,2.77,2.77,0,0,0,1.44-.17,2.8,2.8,0,0,0,1.71-3.13,2.12,2.12,0,0,1,.37-1.65h0a1.35,1.35,0,0,0,.44,0l2-.35a6.11,6.11,0,0,1,.42,1.55c.13.65.74,1.51.68,2.14a7,7,0,0,1-2.21,4.44v0a3.31,3.31,0,0,1,.43,1.43,12,12,0,0,0,7,9.7,14.26,14.26,0,0,0,5.65,1.19,16.85,16.85,0,0,0,10.87-4.46l.1-.22.8-1.75h0a6.45,6.45,0,0,0,2.59,1.38c.65.18,1.23.31,1.75.41a8.66,8.66,0,0,0,3.58.15,7.83,7.83,0,0,0,6.85,1.94,9.73,9.73,0,0,0,6.12-4,17,17,0,0,0,2.31-.94l.43-.22a10.39,10.39,0,0,0,4.27-3.83,3.18,3.18,0,0,1,.78.29,17.56,17.56,0,0,0,7.65,1.81,14.09,14.09,0,0,0,9.31-3.42A12,12,0,0,0,167,167.46a3.35,3.35,0,0,1,0-1.51h0a6.39,6.39,0,0,1-2.4-1.9l0,0c-.13-.16-.24-.32-.36-.49s-.19-.3-.28-.46l-.06-.1a6,6,0,0,1-.29-.62c-.24-.59.09-1.59,0-2.25,0-.24-.05-.47-.07-.7v0c-.33.87-.71,1.73-1.14,2.57-.07-1.15-.14-1.87-.14-1.89a.52.52,0,0,0-.55-.45.5.5,0,0,0-.45.55s.15,1.46.22,3.53c.05,1.42.08,3.15,0,4.94,0,.17,0,.34,0,.52a30,30,0,0,1-1.3,6.57c-.16.52-.27.84-.27.85a.5.5,0,0,0,.31.64l.17,0a.5.5,0,0,0,.47-.34c0-.1.52-1.5,1-3.35a26.32,26.32,0,0,1-.9,3.36.56.56,0,0,1-.53.37.58.58,0,0,1-.19,0,.56.56,0,0,1-.34-.72s.06-.18.15-.47c-1.74,1.49-8,2.93-14.25,3.34l0-.11a6,6,0,0,0,.4-2c0-.11,0-.23,0-.35v-.16a.77.77,0,0,0,0-.16l0-.48a1.11,1.11,0,0,0,0-.12s0-.07,0-.07l-.07-.53,0-.08c0-.1,0-.2-.06-.32l-.09-.36a2.59,2.59,0,0,0-.1-.31l-.12-.36h0v0c0-.1-.07-.18-.11-.27l-.05-.12-.06-.12.29,0,.46-.08,3.11-.55h0l1.5-.27a10,10,0,0,0,8.1-11.59l-.93-5.24c0-.25-.1-.47-.16-.69a4.08,4.08,0,0,0-1.36-2.31,1.37,1.37,0,0,0-.92-2.55l-4.17.74-19,3.36-.11-.09a8.28,8.28,0,0,0-11.49,2.07l0,.08L102,159.59l-4.56.81h-.06a1.37,1.37,0,0,0,.38,2.72,4.68,4.68,0,0,0-.34,3.25l.24,1.34h0l.19,1.09.06.37-.06-.37-.19-1.09-5.29.94-.51.09Zm-2.79,5.64a.79.79,0,0,1-.29.06.81.81,0,0,1-.75-.5,1.78,1.78,0,0,1,.06-1.23l1.39,0a4.07,4.07,0,0,0,.08.75A.8.8,0,0,1,88.49,174.49Zm75.8-4.34c.06-1.16.1-2.35.11-3.5q.28.23.57.43a5.21,5.21,0,0,0,.14.86,10.08,10.08,0,0,1-1.72,7.73A27.83,27.83,0,0,0,164.28,170.15ZM159,178.86l.24.14a12,12,0,0,1-4.81,1.21A29,29,0,0,0,159,178.86Zm-53.26,10.82a12.34,12.34,0,0,1-4.86-1,9.91,9.91,0,0,1-5.83-8,4.94,4.94,0,0,0-.12-.83,9.11,9.11,0,0,0,1.23-2.12c.48,1.28,1,2.65,1.57,4a29,29,0,0,0,3.93,6.48,2.57,2.57,0,0,0,3.61.33l.2-.18h.65a38.75,38.75,0,0,0,6.73-.74A13.76,13.76,0,0,1,105.74,189.68Zm11.06-7.12h0Zm27.56-9,.12.22.08.18,0,.08.07.15.15.44a2.68,2.68,0,0,1,.09.3l.08.34c0,.1,0,.2.06.32l0,.18a1.37,1.37,0,0,0,0,.2h0V176h0a.5.5,0,0,0,0,.1h0a.47.47,0,0,0,0,.1h0a5.46,5.46,0,0,1,0,.66c0,.07,0,.13,0,.2v.39h0v.05h0l0,.11v0l0,.23c-.43,2.35-2.37,4-5.31,4.63h-.14l-.17,0-.35.08a4.41,4.41,0,0,0-1.35.64,7.36,7.36,0,0,0-1.11,1c-.33.35-.63.69-1,1a7.33,7.33,0,0,1-1,.86l-.84.48-.14.06-.15.07-.17.07,0,0h0l-.09,0-.18.06,0,0h0l-.08,0-.31.08-.36.07h-.14l-.16,0-.37,0H131a5.56,5.56,0,0,1-1.28-.18,7.72,7.72,0,0,1-1.22-.46c-.41-.19-.82-.41-1.25-.62a7.67,7.67,0,0,0-1.38-.53,4.22,4.22,0,0,0-1.49-.13l-.19,0h-.17l-.12,0h-.09c-3,.5-5.46-.41-6.68-2.44l-.09-.16h0l-.15-.33h0v0l0-.07s0-.08,0-.05,0-.08,0-.05l-.13-.34a.8.8,0,0,0-.06-.18l0-.11a.29.29,0,0,0,0-.08l-.2-.87c0-.11,0-.21-.06-.34l-.06-1c0-.08,0-.17,0-.25v-.07h0v0c0-.06,0-.11,0-.17l0-.08v0l0-.26a10,10,0,0,0,6.85-11.28l-.05-.3a1.3,1.3,0,0,0,.32-.11,1.31,1.31,0,0,0,.37-.29,7.36,7.36,0,0,1,9-1.6,1.32,1.32,0,0,0,.9.15,1.38,1.38,0,0,0,.3-.09l.05.31a10,10,0,0,0,10.22,8.24ZM133.53,156.8a4.69,4.69,0,0,0-.33,3.24l.38,2.16a10.06,10.06,0,0,0-10.7,1.42l-.29.26-.34-1.89a4.69,4.69,0,0,0-1.42-2.93Zm-7.22-3a7.19,7.19,0,0,1,4.63.71l-8.7,1.54A7.2,7.2,0,0,1,126.3,153.76ZM98,170.46l.17,0,.21,1.19a10,10,0,0,0,11.59,8.1l2.24-.4,2.86-.51.19,0h0c0,.09,0,.18,0,.27v.08h0c0,.09,0,.19,0,.32l0,.7,0,.39c0,.13,0,.25.06.38l0,.18a6.85,6.85,0,0,0,1.42,3.4l.07.08a46.25,46.25,0,0,1-10.78,1.71,9.47,9.47,0,0,1-2.07-.19l0,0a.57.57,0,0,1-.87.72s-.29-.36-.68-.88c.43.52.72.84.76.87a.5.5,0,0,0,.73-.68l-.22-.24a22.94,22.94,0,0,1-3.66-5.62l-.25-.6c-.64-1.59-1.2-3.22-1.64-4.62-.69-2.19-1.09-3.82-1.1-3.84a.5.5,0,1,0-1,.24s.24,1,.65,2.35a29.24,29.24,0,0,1-2.57-2.71Z"/><line class="cls-6" x1="97.72" y1="167.71" x2="97.7" y2="167.72"/><path class="cls-4" d="M86.65,85.53l.15,1.68s0,0,.1,0L91,86.9c.05,0,.09,0,.09-.06l-.15-1.68s0,0-.1,0l-4.11.36C86.69,85.48,86.65,85.5,86.65,85.53Z"/><path class="cls-7" d="M67.59,93.56l-.12,0a8.88,8.88,0,0,1,1.66,1A1.49,1.49,0,0,0,67.59,93.56Z"/><path class="cls-4" d="M81.66,96.31a5,5,0,0,1-1.32.68,12.32,12.32,0,0,1,2.3,2.23,8,8,0,0,0,1.1-.73A15.71,15.71,0,0,0,81.66,96.31Z"/><path class="cls-4" d="M73.72,97.41a3.9,3.9,0,0,1,1.76-1.35,5.05,5.05,0,0,1-.63-.64A4.72,4.72,0,0,0,73.72,97.41Z"/><path class="cls-4" d="M74.29,94.57a5,5,0,1,1,8.13,1.06,16.58,16.58,0,0,1,2.06,2.17,8,8,0,1,0-13.71-4.88c0,.08,0,.16,0,.24a13.35,13.35,0,0,1,2.31,3A5.5,5.5,0,0,1,74.29,94.57Z"/><path class="cls-4" d="M72.56,97.32a12.26,12.26,0,0,0-1.24-2.08A8,8,0,0,0,72.56,97.32Z"/><path class="cls-4" d="M73.18,98l.11.1.09-.16a.48.48,0,0,1-.16.07Z"/><circle class="cls-4" cx="79.98" cy="90.75" r="0.91" transform="translate(-7.56 7.27) rotate(-4.97)"/><path class="cls-5" d="M181.86,59.85h.76A22.52,22.52,0,0,1,181.39,55c0,.18,0,.37,0,.55a17.51,17.51,0,0,0,.37,3.71C181.78,59.47,181.82,59.66,181.86,59.85Z"/><path class="cls-5" d="M161,65.37h90.68a1,1,0,0,0,0-2H230.6c-1.88-3.44-6.55-10.89-12.4-12-7.75-1.48-9.3,6.25-9.3,6.25s-5-12.86-17.42-11.7l-.77.08a12.55,12.55,0,0,0-5.9,2.17,8,8,0,0,0-2.3,2.63l-.15.29a19.45,19.45,0,0,0,1.45,9.07.5.5,0,0,1-.46.7h-1.24c.21.73.41,1.34.58,1.78s.29.73.29.73H161a1,1,0,0,0,0,2Z"/><path class="cls-5" d="M57.5,98.08a9.48,9.48,0,0,0,.18,2.13H58A12.82,12.82,0,0,1,57.5,98.08Z"/><path class="cls-2" d="M59.18,101a.5.5,0,0,0,0-.48A9.93,9.93,0,0,1,58.55,95a4.41,4.41,0,0,1,.41-1c.72-1.3,2.13-2.1,4.17-2.37a9.1,9.1,0,0,1,1.28-.08l.12,1.41a8.26,8.26,0,0,1,2.93.72l.12,0a1.49,1.49,0,0,1,1.54,1,12.28,12.28,0,0,1,3.68,4.81,5.4,5.4,0,0,1,.49-1.29l-.11-.1h0a.48.48,0,0,0,.16-.07.48.48,0,0,0,.29-.33s0-.09,0-.19a4.72,4.72,0,0,1,1.13-2,5.05,5.05,0,0,0,.63.64,4.54,4.54,0,0,1,2.5-.15A6,6,0,0,1,80.33,97a5,5,0,0,0,1.32-.68,15.71,15.71,0,0,1,2.07,2.18,8,8,0,0,1-1.1.73,22.51,22.51,0,0,1,2.18,3.27l7.75-.67a1.24,1.24,0,0,0,1-.78H96.4a.5.5,0,0,0,0-1H93.67l-1.55-17.8a1.25,1.25,0,0,0-1.36-1.14h0L90.57,79a.12.12,0,0,0-.13-.11l-5.18.45a.12.12,0,0,0-.11.13l.19,2.15L65,83.35a1.25,1.25,0,0,0-1.14,1.36l.5,5.75a9.92,9.92,0,0,0-1.33.08c-2.38.32-4,1.29-4.91,2.88a7.24,7.24,0,0,0-.59,4.65A12.82,12.82,0,0,0,58,100.2H46.53a.5.5,0,0,0,0,1H58.77A.5.5,0,0,0,59.18,101Zm12.13-5.74a12.26,12.26,0,0,1,1.24,2.08A8,8,0,0,1,71.32,95.24Zm7.76-4.41a.91.91,0,1,1,1,.83A.91.91,0,0,1,79.07,90.83Zm11.78-5.72c.05,0,.1,0,.1,0l.15,1.68s0,.06-.09.06l-4.11.36c-.05,0-.1,0-.1,0l-.15-1.68s0-.06.09-.06ZM70.76,92.93a8,8,0,1,1,13.71,4.88,16.58,16.58,0,0,0-2.06-2.17,5,5,0,1,0-8.13-1.06,5.5,5.5,0,0,0-1.18,1.65,13.35,13.35,0,0,0-2.31-3C70.79,93.09,70.77,93,70.76,92.93Z"/><path class="cls-5" d="M46.38,104.61H96.81a1,1,0,0,0,0-2H84.88l-.06-.11a22.51,22.51,0,0,0-2.18-3.27A12.32,12.32,0,0,0,80.33,97,6,6,0,0,0,78,95.91a4.54,4.54,0,0,0-2.5.15,3.9,3.9,0,0,0-1.76,1.35c0,.1,0,.17,0,.19a.48.48,0,0,1-.29.33l-.09.16a5.4,5.4,0,0,0-.49,1.29,12.28,12.28,0,0,0-3.68-4.81,8.88,8.88,0,0,0-1.66-1,8.26,8.26,0,0,0-2.93-.72,9.19,9.19,0,0,0-1.85.05,6,6,0,0,0-4.14,2,9.93,9.93,0,0,0,.68,5.55.5.5,0,0,1-.46.7h-.86a11.07,11.07,0,0,0,.48,1.38H46.15l1.32,0h-1.1a1,1,0,0,0,0,2Z"/><path class="cls-3" d="M205,159.16c5.34,0,9.61-6.81,15.05-6.81s9.37,6.81,15.05,6.81c7,0,12.18-6.62,12.26-18,.05-7-2.05-9.29-11.15-9.29s-11.76,3.71-16.17,3.71-7.07-3.71-16.17-3.71-11.2,2.25-11.15,9.29C192.78,152.54,198,159.16,205,159.16Zm26.32-18.58h.43c5.53.24,7.8,3.52,7.8,4.33s-3.66,3.1-7.25,3.1-7.8-1.31-7.8-2.48S226.38,140.58,231.28,140.58Zm-23,0h.43c4.9,0,6.81,3.7,6.81,5s-4.22,2.48-7.8,2.48-7.25-2.29-7.25-3.1S202.77,140.83,208.3,140.59Z"/><path class="cls-2" d="M205,161.16c3.29,0,6-1.9,8.6-3.75,2.23-1.58,4.35-3.06,6.45-3.06s4.06,1.45,6.2,3c2.5,1.8,5.34,3.83,8.85,3.83,8.44,0,14.17-8,14.26-19.94,0-2.94-.25-6.23-2.46-8.45-2-2-5.1-2.85-10.69-2.85a27.73,27.73,0,0,0-11.82,2.5,8.4,8.4,0,0,1-8.69,0,27.73,27.73,0,0,0-11.82-2.5c-5.59,0-8.69.82-10.69,2.85-2.2,2.22-2.48,5.52-2.46,8.45C190.78,153.15,196.51,161.16,205,161.16Zm-1.11-29.24c9.09,0,11.76,3.71,16.17,3.71s7.07-3.71,16.17-3.71,11.2,2.25,11.15,9.29c-.08,11.34-5.26,18-12.26,18-5.68,0-9.61-6.81-15.05-6.81s-9.71,6.81-15.05,6.81c-7,0-12.18-6.62-12.26-18C192.64,134.17,194.75,131.92,203.84,131.92Z"/><path class="cls-2" d="M232.27,148c3.58,0,7.25-2.29,7.25-3.1s-2.28-4.09-7.8-4.33h-.43c-4.9,0-6.81,3.7-6.81,5S228.69,148,232.27,148Zm-1-5.44h.35a8,8,0,0,1,5.41,2,10.05,10.05,0,0,1-4.76,1.41,15.55,15.55,0,0,1-5.56-1A4.91,4.91,0,0,1,231.28,142.58Z"/><path class="cls-2" d="M207.74,148c3.58,0,7.8-1.31,7.8-2.48s-1.92-5-6.81-5h-.43c-5.53.24-7.8,3.52-7.8,4.33S204.16,148,207.74,148Zm.64-5.43h.35a4.91,4.91,0,0,1,4.57,2.39,15.55,15.55,0,0,1-5.56,1,10.05,10.05,0,0,1-4.76-1.41A8,8,0,0,1,208.39,142.58Z"/><path class="cls-3" d="M194.37,245.78a1,1,0,0,0,1.34.44l7.71-3.91,21.72-11a6.1,6.1,0,0,0,3.33.69l.35,9.4.09,2.4a1.64,1.64,0,0,0,1.7,1.58l23.87-.88a1.66,1.66,0,0,0,1.58-1.7h0l2.82-.1a.15.15,0,0,0,.15-.16l-.25-6.78a.15.15,0,0,0-.16-.15l-2.82.1-1-26.71a1.64,1.64,0,0,0-1.7-1.58l-23.87.88a1.64,1.64,0,0,0-1.58,1.7l.35,9.61a6.2,6.2,0,0,0-6.15,7c-12.62.64-29.14,1.54-30,1.85a1,1,0,0,0-.63,1.29,1,1,0,0,0,1.25.61c1.12-.24,16.36-1.08,30-1.78l-30,12.52a1,1,0,1,0,.77,1.85l25.51-10.64-21.2,10.75-2.7,1.37A1,1,0,0,0,194.37,245.78Zm58.8-8.62.2,5.38a.11.11,0,0,1-.09.13l-2.91.11c-.05,0-.1-.05-.1-.12l-.2-5.38a.11.11,0,0,1,.09-.13l2.91-.11C253.13,237,253.17,237.09,253.17,237.16ZM239.3,209.86a1.94,1.94,0,1,1-1.87,2A1.94,1.94,0,0,1,239.3,209.86Zm2.63,6.06a10.46,10.46,0,1,1-10.06,10.83A10.46,10.46,0,0,1,241.93,215.92Z"/><path class="cls-4" d="M250.07,237.27l.2,5.38c0,.07,0,.12.1.12l2.91-.11a.11.11,0,0,0,.09-.13l-.2-5.38c0-.07,0-.12-.1-.12l-2.91.11A.11.11,0,0,0,250.07,237.27Z"/><circle class="cls-2" cx="239.37" cy="211.81" r="1.94" transform="translate(-7.63 8.95) rotate(-2.11)"/><path class="cls-2" d="M242.7,236.81a10.46,10.46,0,1,0-10.83-10.06A10.46,10.46,0,0,0,242.7,236.81Zm-.63-17a6.57,6.57,0,1,1-6.32,6.81A6.57,6.57,0,0,1,242.07,219.8Z"/><circle class="cls-3" cx="244.17" cy="228.09" r="1.19" transform="translate(-8.23 9.15) rotate(-2.11)"/><path class="cls-3" d="M242.55,232.93a6.57,6.57,0,1,0-6.81-6.32A6.57,6.57,0,0,0,242.55,232.93Zm-.33-11.41a4.85,4.85,0,1,1-4.67,5A4.85,4.85,0,0,1,242.22,221.52Z"/><path class="cls-4" d="M242.58,231.21a4.85,4.85,0,1,0-5-4.67A4.85,4.85,0,0,0,242.58,231.21Zm1.55-4.31a1.19,1.19,0,1,1-1.15,1.24A1.19,1.19,0,0,1,244.12,226.9Z"/><path class="cls-3" d="M164.7,155.92h0a1.39,1.39,0,0,1-.06-.16v0l0,.18h.08Z"/><path class="cls-3" d="M175.89,167.32a10.81,10.81,0,0,0,2.92-4.65c.09-.26.18-.53.25-.81s.13-.32.19-.48a9.76,9.76,0,0,0,.52-2.51l.95-1.81,0-.08c.28-.53.72-1.56,1.24-2.76l.31-.73a4.1,4.1,0,0,0,.33-1.31,1.77,1.77,0,0,1,.14-.58c1-2.45-.12-4-1.48-4.57a3.41,3.41,0,0,0-1.43-.31h0a2.81,2.81,0,0,0-2.61-2.09H177a3.52,3.52,0,0,0-2,.64,3.53,3.53,0,0,0-2.68-1.48,2.84,2.84,0,0,0-1.27.3,3.69,3.69,0,0,0-1.66,4.94l.59,1.18h-.18a8.35,8.35,0,0,0-2.4.39,26.49,26.49,0,0,0-.39-5.19,27.86,27.86,0,0,0-7.66-14.63c.62-12.14-6.15-24-10.8-25a4.91,4.91,0,0,0-1-.09c-4.37,0-10.92,5.53-14.25,9.25a32.72,32.72,0,0,0-3,3.92h-.47a51.39,51.39,0,0,0-8.86.82,58.15,58.15,0,0,0-9,2.29,32.89,32.89,0,0,0-4-2.55c-3.94-2.11-9.76-4.24-13.87-4.24a6.71,6.71,0,0,0-3.56.83c-4.05,2.46-6.34,16-1.62,27.17a27.86,27.86,0,0,0-2.2,16.36,26.52,26.52,0,0,0,1.49,5.23h-.37a8.14,8.14,0,0,0-2.5.39l.22-1.3a3.69,3.69,0,0,0-3-4.24,3,3,0,0,0-.48,0A3.29,3.29,0,0,0,79,161.9a3.52,3.52,0,0,0-2.37.06,2.81,2.81,0,0,0-1.89,2.77,3.48,3.48,0,0,0-1.35.75c-1.09.95-1.7,2.72,0,4.78a1.77,1.77,0,0,1,.3.51,4.11,4.11,0,0,0,.7,1.16l.51.6c.84,1,1.58,1.85,2,2.28l.73.73.77.78a9.76,9.76,0,0,0,1.24,2.25l.33.41c.15.24.3.48.47.7a10.81,10.81,0,0,0,4.16,3.59,20.42,20.42,0,0,0,12.09,15.3,23.18,23.18,0,0,0,9.14,1.93,22,22,0,0,0,3.6-.3,66.73,66.73,0,0,0-2.32,9c-.76-.28-1.69-.59-2.78-.89-.23-.21-.38-.33-.41-.36a3.11,3.11,0,0,0-3.06-.47,54.41,54.41,0,0,0-5.72-.83,2.72,2.72,0,0,0-1-.41,3.13,3.13,0,0,0-1.89.22c-1,0-2-.07-2.93-.07-.7,0-1.41,0-2.11,0H87a3.1,3.1,0,0,0-3.11.12l-.19.13a44.5,44.5,0,0,0-5.53,1,3.11,3.11,0,0,0-.6-.06,3,3,0,0,0-1.29.28,2.92,2.92,0,0,0-.76.51A34,34,0,0,0,64.31,214a2.53,2.53,0,0,0-.66.85,10.5,10.5,0,0,0-4.17,6c-1,4.92,3,10.12,10.5,13.77a3.13,3.13,0,0,0,4.62,1.88A39.27,39.27,0,0,0,82,238.21a3.09,3.09,0,0,0,.4.4,3.13,3.13,0,0,0,4.12-.12c.91,0,1.79,0,2.63-.12a47.61,47.61,0,0,0,5.59-.86,3,3,0,0,0,.66.41,3.13,3.13,0,0,0,4.14-1.56l.06-.13a50.59,50.59,0,0,0,5.05-1.91l.24.14a3.15,3.15,0,0,0,1.44.35,3.12,3.12,0,0,0,2.78-1.69,11.57,11.57,0,0,0,.55-1.3,35.56,35.56,0,0,0,2.92,9.12c2.43,4.86,3.85,6.5,5.62,6.5a2.43,2.43,0,0,0,1.75-.75c.74-.77,1-2,1-4,0-1.42-.12-4-.2-6.63a43.41,43.41,0,0,0,5.59.77c1.68.13,3.36.2,5,.2a49.18,49.18,0,0,0,14.43-2c-.08,2.49-.15,4.91-.19,6.26-.06,2,.23,3.25,1,4a2.43,2.43,0,0,0,1.75.75c1.78,0,3.19-1.64,5.62-6.5a39.63,39.63,0,0,0,3.49-12.86c2.63-6.84.34-20.4-2.08-27.52-1-2.93-2-5.67-3-8.19q.8.05,1.59.05a22.48,22.48,0,0,0,14.86-5.51A20.42,20.42,0,0,0,175.89,167.32ZM154,189a23.2,23.2,0,0,1-3.6-.29,28,28,0,0,0-2.62-4.36.5.5,0,0,0-.8.6,28.18,28.18,0,0,1,2.27,3.68c.22.43.42.88.6,1.33l.07.18c.06.17.12.33.18.5s0,0,.05.07c1.21,3,2.35,6.18,3.33,9.07,2.62,7.73,4.38,20.6,2,26.34l0,0a37.93,37.93,0,0,1-3.32,12.46c-1.94,3.88-3.15,5.39-3.84,5.39a.41.41,0,0,1-.18,0l0,0a.53.53,0,0,1-.11-.1l-.08-.1-.05-.09a1.56,1.56,0,0,1-.1-.24v0a7,7,0,0,1-.18-2.1c0-1.69.15-5,.25-8.11h0a17.82,17.82,0,0,0,4.17-2.61.5.5,0,1,0-.67-.74,17,17,0,0,1-3.46,2.24l-.48.22a44.39,44.39,0,0,1-16,2.7q-2.32,0-4.83-.19a35.69,35.69,0,0,1-7.83-1.38h0v.2a10.89,10.89,0,0,1-1.44-.71,13.43,13.43,0,0,1-2-1.4.5.5,0,0,0-.71,0l0,0a.5.5,0,0,0,.05.67,13.36,13.36,0,0,0,4.1,2.46c.1,3,.2,6.32.25,8s-.16,2.71-.73,2.71a.66.66,0,0,1-.27-.07h0a1.61,1.61,0,0,1-.29-.19l-.07-.06a3.78,3.78,0,0,1-.29-.29l-.11-.12-.3-.37-.16-.21-.3-.43-.21-.32-.28-.46-.29-.48-.2-.37c-.33-.59-.67-1.24-1.06-2-.2-.4-.38-.81-.56-1.22l-.06-.13c-.17-.4-.32-.8-.47-1.2l-.08-.21c-.15-.41-.28-.82-.41-1.23l-.07-.2c-.13-.42-.25-.83-.36-1.25l0-.17q-.17-.63-.31-1.26l0-.14q-.15-.64-.27-1.27l0-.09c-.08-.43-.16-.86-.23-1.27h0c-.11-.66-.21-1.31-.28-1.91h0v0c-.93.63-2,1.27-3.13,1.92v0a12,12,0,0,1-.68,1.77,1.13,1.13,0,0,1-1.52.49,1.1,1.1,0,0,1-.57-.82v0a48.3,48.3,0,0,1-7.15,2.75v0c-.2.53-.34.86-.36.91a1.13,1.13,0,0,1-1.49.56,1.11,1.11,0,0,1-.62-.81v0a48.21,48.21,0,0,1-4.88.91h-.06q-.83.11-1.69.19c-.86.08-1.73.11-2.6.11h-.79v0c-.17.24-.29.39-.31.42a1.13,1.13,0,0,1-1.59.15,1.12,1.12,0,0,1-.39-.71v0a36.82,36.82,0,0,1-9.13-2.08h0c-.24.25-.4.39-.43.42A1.12,1.12,0,0,1,72,233.38h0c-4.17-1.85-7.56-4.36-9.32-7.06l-.14-.23c-.11-.17-.21-.35-.3-.52L62,225.2c-.06-.13-.12-.26-.17-.39s-.11-.29-.16-.43l-.1-.31c0-.17-.09-.33-.13-.5s0-.15,0-.23-.06-.38-.07-.57c0,0,0-.05,0-.08a5.55,5.55,0,0,1,.08-1.42c.39-1.95,1.87-3.7,4-5.23a.56.56,0,0,1,.19-.49,32.8,32.8,0,0,1,11.09-5.44,1.1,1.1,0,0,1,.47-.44,1,1,0,0,1,.44-.1,1.18,1.18,0,0,1,.54.14,42.35,42.35,0,0,1,6.51-1.12,1.11,1.11,0,0,1,.34-.36,1.09,1.09,0,0,1,.59-.17,1.14,1.14,0,0,1,.87.41l.82-.05q1,0,2,0c1.2,0,2.35,0,3.45.1a1.13,1.13,0,0,1,.77-.31l.22,0a1.74,1.74,0,0,1,.61.39,51.92,51.92,0,0,1,6.8,1,1.14,1.14,0,0,1,.79-.32,1.09,1.09,0,0,1,.68.24s.29.24.65.6a32.74,32.74,0,0,1,4.73,1.63v.08c0,.35.06.73.09,1.15.22,2.7.63,6.68,1.28,10.39a.5.5,0,0,0,.49.41H110a.5.5,0,0,0,.41-.58c-.68-3.85-1.09-8-1.3-10.67-.07-.91-.13-1.65-.16-2.14v0a63.75,63.75,0,0,1,2.56-10h0l.08-.23c2-5.44,3.73-7.29,3.75-7.31a.5.5,0,0,0-.71-.71l-.07.08a20,20,0,0,0-3.14,5.59,20.43,20.43,0,0,1-5.61.81,21.09,21.09,0,0,1-8.35-1.77c-9.17-3.92-10.81-12.65-11.09-15h0c-1.77-.33-3.26-1.81-4.34-3.26h0a6.86,6.86,0,0,1-.44-.67v0c-.12-.13-.24-.27-.35-.42a7.07,7.07,0,0,1-.59-.95l-.08-.14a9.68,9.68,0,0,1-.43-1l0-.05h0l-1.8-1.81c-.54-.55-2-2.29-2.42-2.78l-.13-.17c-.24-.34-.26-.64-.61-1.15l-.21-.29-.21-.29c-.46-.67-.53-1.26,0-1.76a1.4,1.4,0,0,1,.19-.12l.12-.07a1.49,1.49,0,0,1,.42-.14l.13,0,.15,0a1.56,1.56,0,0,1,1.18.53l.1.11c-.07-.49-.05-1.09-.17-1.62-.17-.76-.28-1.48.51-1.79a1.46,1.46,0,0,1,.21,0l.17,0a1.61,1.61,0,0,1,.17,0,1.53,1.53,0,0,1,.59.13l.13.06.2.12a1.53,1.53,0,0,1,.24.22l.07.09a1.53,1.53,0,0,1,.21.36s.16.43.37,1h0l.1-.61a5.7,5.7,0,0,1,.79-1.84c.27-.6.54-1.67,1.34-1.67h.16a1.69,1.69,0,0,1,1.39,1.94L83,166.4l-.33,2a15.84,15.84,0,0,0-1.49,3.06.5.5,0,0,0,.31.64l.16,0a.5.5,0,0,0,.47-.34,15.78,15.78,0,0,1,2-3.73l0,0a13.55,13.55,0,0,1,1.42-.86,5.43,5.43,0,0,1,2.19-.43,3.28,3.28,0,0,1,.82.09,10.28,10.28,0,0,0,1.71.58,1.72,1.72,0,0,1,1.4.62,1.51,1.51,0,0,1,.2.68h0l.5-.09h0a25.85,25.85,0,0,1-2.14-4c-.1-.24-.2-.47-.3-.71l-.19-.5c-.12-.32-.23-.64-.34-1l-.11-.34c-.13-.44-.26-.89-.37-1.34v0c-.13-.51-.24-1-.33-1.56,0-.26-.07-.52-.1-.78s-.09-.62-.12-.92-.06-.66-.08-1,0-.54,0-.81,0-.67,0-1,0-.55,0-.82q0-.82.12-1.64c0-.3.06-.6.11-.9s.1-.62.16-.93.11-.58.17-.86.13-.6.21-.9.17-.63.26-.94.16-.57.26-.86q.25-.75.54-1.5c.11-.27.22-.54.34-.8s.26-.59.4-.89.12-.29.19-.44v0l.08-.14.18-.31a32.54,32.54,0,0,1,5.36-6.64.5.5,0,0,0,0-.71.51.51,0,0,0-.71,0,31.23,31.23,0,0,0-4,4.55c-.45.62-.91,1.29-1.36,2l-.08.13c-4.21-10.39-2-22.55,1-24.32a4.92,4.92,0,0,1,2.52-.53c3.43,0,8.77,1.78,12.92,4a29.4,29.4,0,0,1,4.63,3,54.38,54.38,0,0,1,9.68-2.57,49.09,49.09,0,0,1,8.52-.79q.8,0,1.56,0a29.13,29.13,0,0,1,3.41-4.61c3.85-4.29,9.61-8.59,12.76-8.59a2.89,2.89,0,0,1,.57.05c3.37.67,9.7,11.45,9.21,22.72l-.11-.09c-.66-.52-1.32-1-2-1.4a28.56,28.56,0,0,0-4.48-2.4.53.53,0,0,0-.65.28.5.5,0,0,0,.28.65,27.63,27.63,0,0,1,8.12,5.35h0l.16.17h0a27.59,27.59,0,0,1,2.46,3.18l.11.17q.5.77.95,1.56l.07.12a25.08,25.08,0,0,1,1.62,3.58l.09.25q.29.82.52,1.67l.06.23c.17.64.31,1.29.43,1.95s.22,1.43.28,2.14v0a25.14,25.14,0,0,1-.29,6.38h0a3.19,3.19,0,0,1,.79-.45,10.26,10.26,0,0,0,1.47-1.06,5.57,5.57,0,0,1,2.49-.6,2.69,2.69,0,0,1,.48,0,11,11,0,0,1,2.52.75l0,0a25.92,25.92,0,0,1,3.32,3.06.5.5,0,0,0,.45.28.5.5,0,0,0,.45-.72,26.37,26.37,0,0,0-4-3.73h0l-.57-1.15-1.3-2.61a1.69,1.69,0,0,1,.76-2.26.86.86,0,0,1,.38-.1c.65,0,1.15.8,1.53,1.24a8,8,0,0,1,1.14,1.24l.16.29.28.56h0c0-.6.06-1,.06-1.05a1.55,1.55,0,0,1,1.54-1.43h.11a.91.91,0,0,1,.69.33,2.32,2.32,0,0,1,.33,1.23c0,.11,0,.23.06.34s0,.2.05.29c.07.33.16.66.2,1v0l.05-.12a1.56,1.56,0,0,1,1.42-.92,1.47,1.47,0,0,1,.62.14,1.17,1.17,0,0,1,.46.34c.31.39.25,1,0,1.66-.38.95-.17,1.22-.44,1.82s-1.14,2.69-1.5,3.37l-1.18,2.24v0a8.25,8.25,0,0,1-.44,2.39c-.06.17-.13.34-.21.5a6.86,6.86,0,0,1-.23.79c-.61,1.71-1.6,3.55-3.19,4.39v0c.42,2.32,1.4,11.14-6.21,17.56A20.56,20.56,0,0,1,154,189Z"/></svg>