<svg id="Layer_1" data-name="Layer 1" xmlns="http://www.w3.org/2000/svg" viewBox="0 0 300 300"><defs><style>.cls-1{fill:none;}.cls-2{fill:#d9ebff;}.cls-3{fill:#f9f9fa;}.cls-4{fill:#59acff;}.cls-5{fill:#fff;}.cls-6{fill:#fafafa;}</style></defs><title>Onvoarding-</title><path class="cls-1" d="M116.14,209.88c0-.7,0-1.4.06-2.08l-1.38.95c-1.74,1.2-3.68,2.52-5.75,3.83l.61-.33A18.09,18.09,0,0,1,116.14,209.88Z"/><path class="cls-1" d="M219.08,206a3.18,3.18,0,0,1-1.05,1.37,6.88,6.88,0,0,1-.52,2.52,5.59,5.59,0,0,0,2.33-1.4l0,0a9.69,9.69,0,0,0,1.32-2,4.27,4.27,0,0,0-1-4.89,3.54,3.54,0,0,0-1.37-.7,4.25,4.25,0,0,0-2,0C218.7,201.88,219.95,203.67,219.08,206Z"/><path class="cls-1" d="M100.89,166a11.88,11.88,0,0,0,2,2,10.78,10.78,0,0,0,1.19.83l.07,0a10,10,0,0,0,1.32.67,10.21,10.21,0,0,0,2.89.75,8.48,8.48,0,0,0,1,0h.43l.33,0,.11,0h.08l.19,0,.14,0,.34,0,.18,0a10.7,10.7,0,0,0,1.33-.36,9,9,0,0,0,1.18-.53,7.91,7.91,0,0,0,.71-.44,89.57,89.57,0,0,0,1-10,18.37,18.37,0,0,1-3.31-1.92,3.87,3.87,0,0,1-2.58,1.41,1.81,1.81,0,0,1-.68-.13l-2.68-1.09a2.94,2.94,0,0,1-2.83.8l-.17-.07a3.54,3.54,0,0,1-.45-.11l-.06,0-.08,0,0,0h-.07l-.08,0-.18,0a1.08,1.08,0,0,0-.3,0,.31.31,0,0,0-.11,0l-.15.09a2.84,2.84,0,0,0-.31.22,11.15,11.15,0,0,0-1,1l-.62.67a.49.49,0,0,1,.12.41,8.64,8.64,0,0,1-.75,2.41,11.6,11.6,0,0,0,.57,1.45A12.36,12.36,0,0,0,100.89,166Z"/><polygon class="cls-1" points="238.1 181.74 235.09 181.74 235.71 184.53 238.1 181.74"/><path class="cls-1" d="M108.73,219.49a18.13,18.13,0,0,1,7.33-2.52c0-.33,0-.67.06-1v-.23c0-.41,0-.82,0-1.19t0-.07l0-1.41v-1.79c0-.13,0-.25,0-.38a17.21,17.21,0,0,0-6,2.24,18.57,18.57,0,0,1-6,2.28c-.79.41-1.57.8-2.32,1.14a36.1,36.1,0,0,1-6.65,2.33,29,29,0,0,1-3.57.62h-.07l-.51,0a17.56,17.56,0,0,0,17.66-.06Z"/><path class="cls-1" d="M157.47,240.83l-.46-.41a33.35,33.35,0,0,1-2.9-3.21,35,35,0,0,1-2.55-3.62,43.51,43.51,0,0,1-3.85-7.9c-.49-1.31-.93-2.67-1.32-4a17.05,17.05,0,0,1-6.59,2.13c-.21.64-.43,1.28-.66,1.89a43.49,43.49,0,0,1-3.85,7.91,35.06,35.06,0,0,1-2.55,3.63,33.39,33.39,0,0,1-2.9,3.2l-.52.47c5-.1,10.1-.16,15.38-.16Q151.25,240.72,157.47,240.83Z"/><path class="cls-1" d="M144,211.26c-.18-.65-.36-1.27-.54-1.86q-.27.88-.54,1.87c-.25.9-.48,1.87-.7,2.76l-.07.28a14.36,14.36,0,0,0,2.43-.77C144.36,212.78,144.17,212,144,211.26Z"/><path class="cls-1" d="M145.84,219.54l0-.08-.08-.36c-.13-.55-.26-1.13-.38-1.75l-.36-1.82,0-.1v-.08l0-.15v0l-.09-.37-.06-.27a15.65,15.65,0,0,1-2.91.85v0l0,.11-.35,1.78c-.12.66-.26,1.23-.39,1.79l-.08.36,0,.08-.1.4c-.13.53-.27,1.07-.44,1.65l0,.07a16.2,16.2,0,0,0,5.42-2Z"/><path class="cls-1" d="M190.65,187.88a41.67,41.67,0,0,1,4.8,5.94c4.09,6,8.69,7.09,12.39,7.19.28-.39.5-.63.53-.67a.5.5,0,0,1,.71,0,.49.49,0,0,1,.14.24,3.77,3.77,0,0,1,.88-.52,5.94,5.94,0,0,1,1.78-.35,8.36,8.36,0,0,1,7.8-2.21,7,7,0,0,1,2.69,1.37l.37.33,2-2.38a1.72,1.72,0,0,1,1-.59l4.67-5.46-1.83-9H199.29a29.1,29.1,0,0,1-2.47,2.32A26.82,26.82,0,0,1,190.65,187.88Z"/><path class="cls-1" d="M238.42,213.58a5,5,0,0,0,3.34,3.47,3.55,3.55,0,0,0,1.62,0c2.26-.46,3.66-3,3.11-5.74a5.09,5.09,0,0,0-3.48-4,3.55,3.55,0,0,0-1.62,0,4.27,4.27,0,0,0-3.18,3.84,9.69,9.69,0,0,0,.21,2.41Z"/><path class="cls-2" d="M136.52,59.46a17.57,17.57,0,0,1,17.78,0,19.57,19.57,0,0,0,19.68,0,17.58,17.58,0,0,1,17.78,0,19.57,19.57,0,0,0,19.68,0,16.11,16.11,0,0,1,8.89-2.41,1,1,0,0,0,0-2,18,18,0,0,0-9.84,2.65,17.57,17.57,0,0,1-17.78,0,19.57,19.57,0,0,0-19.68,0,17.58,17.58,0,0,1-17.78,0,19.56,19.56,0,0,0-19.68,0l-.77.41v2.24C135.4,60.07,136,59.77,136.52,59.46Z"/><path class="cls-2" d="M144.81,49.63a16.53,16.53,0,0,1,9.13,2.47,19.07,19.07,0,0,0,19.21,0,16.53,16.53,0,0,1,9.13-2.47.5.5,0,0,0,0-1,17.58,17.58,0,0,0-9.6,2.59,18.07,18.07,0,0,1-18.25,0,17.58,17.58,0,0,0-9.6-2.59.5.5,0,0,0,0,1Z"/><path class="cls-2" d="M210.56,65.4a18.07,18.07,0,0,1-18.25,0,17.58,17.58,0,0,0-9.6-2.59.5.5,0,0,0,0,1,16.53,16.53,0,0,1,9.13,2.47,19.07,19.07,0,0,0,19.2,0,16.53,16.53,0,0,1,9.13-2.47.5.5,0,0,0,0-1A17.58,17.58,0,0,0,210.56,65.4Z"/><path class="cls-2" d="M68.84,151.7l-.53.26H83.42C78.07,151.16,72.64,150.81,68.84,151.7Z"/><path class="cls-2" d="M25,146.15V64.68H129.28V98.27a33.51,33.51,0,0,1,3.52-1.4V51.76a3.48,3.48,0,0,0-3.48-3.48H25a3.48,3.48,0,0,0-3.48,3.48v97.19a3.13,3.13,0,0,0,3.23,3H63.56a6.09,6.09,0,0,1-2.4-3.79H27.06C25.39,148.17,25,147.82,25,146.15Zm98.65-92.07a2.35,2.35,0,1,1-2.35,2.35A2.35,2.35,0,0,1,123.69,54.08Zm-7.58,0a2.35,2.35,0,1,1-2.35,2.35A2.35,2.35,0,0,1,116.11,54.08ZM48.4,56.32a2.54,2.54,0,0,1,2.54-2.54h52.43a2.54,2.54,0,0,1,2.54,2.54v.23a2.54,2.54,0,0,1-2.54,2.54H50.95a2.54,2.54,0,0,1-2.54-2.54ZM38.21,54.08a2.35,2.35,0,1,1-2.35,2.35A2.35,2.35,0,0,1,38.21,54.08Zm-7.58,0a2.35,2.35,0,1,1-2.35,2.35A2.35,2.35,0,0,1,30.63,54.08Z"/><path class="cls-3" d="M79,116.26c0-.31-.91-1.51-3.2-1.51-2.11,0-3,1.08-3,1.51,0,.84.37,1.26,1.15,2.05l.29.3a4.9,4.9,0,0,1,3.57-.19l.08-.08C78.67,117.53,79,117.11,79,116.26Z"/><path class="cls-3" d="M63,108.56c.76.84,1.06,1.11,1.79,1.11.13,0,.34-.11.56-.4a4.18,4.18,0,0,0,.61-2.49,3.86,3.86,0,0,0-.58-2.38.8.8,0,0,0-.59-.36c-.73,0-1,.27-1.79,1.12A6.65,6.65,0,0,1,61,106.86,6.65,6.65,0,0,1,63,108.56Z"/><path class="cls-3" d="M109.72,128.88a33.78,33.78,0,0,1,19.56-30.6V64.68H25v81.47c0,1.67.35,2,2,2H61.17c-1-3.84-.27-9.72,2.25-15.91a40.16,40.16,0,0,1,2.18-4.53H58.76a5.13,5.13,0,0,1-5.1-5.14v-9.52a7.28,7.28,0,0,1,1.61-5A4.82,4.82,0,0,1,57,106.85a4.81,4.81,0,0,1-1.67-1.17,7.56,7.56,0,0,1-1.65-5.21V94.4a5.14,5.14,0,0,1,5.1-5.14h7.38a2.8,2.8,0,0,0,.87-.39c-.1-.12-.28-.3-.42-.44a6.68,6.68,0,0,1-2.24-5.14c0-2,.8-6.59,8.24-6.59h0c6.26,0,8.49,3.41,8.49,6.59a6.53,6.53,0,0,1-2.46,5.2c-.14.13-.31.28-.42.4a2.79,2.79,0,0,0,.84.37h8a5.13,5.13,0,0,1,5.1,5.14v4.44a3.72,3.72,0,0,0,.26.88l.16-.19a6,6,0,0,1,5.07-2.48c4.28,0,6.84,3.05,6.84,8.16,0,6.2-3.53,8.41-6.84,8.41a5.92,5.92,0,0,1-5.1-2.63l-.15-.19a3.45,3.45,0,0,0-.23.79v11a5.13,5.13,0,0,1-5.1,5.14h-.82a101.34,101.34,0,0,0,13,9.27,2.2,2.2,0,0,1,.67.16,2.39,2.39,0,0,1,1.08.9l.45.26,2.47,1,.67.27A18.34,18.34,0,0,1,109.72,129Z"/><circle class="cls-4" cx="30.63" cy="56.43" r="2.35"/><circle class="cls-4" cx="38.21" cy="56.43" r="2.35"/><rect class="cls-4" x="48.4" y="53.77" width="57.52" height="5.32" rx="2.54" ry="2.54"/><circle class="cls-4" cx="116.11" cy="56.43" r="2.35"/><circle class="cls-4" cx="123.69" cy="56.43" r="2.35"/><polygon class="cls-2" points="234.64 179.74 239.81 179.74 242.48 176.61 233.94 176.61 234.64 179.74"/><path class="cls-2" d="M202,178.48c-.3.43-.62.85-.95,1.26h27.13l-.64-3.13H203.16C202.78,177.25,202.39,177.87,202,178.48Z"/><path class="cls-2" d="M170.47,92.45H275.52v82.11c0,1.68-.36,2-2,2H248.89a5.62,5.62,0,0,1-.94,3.13h27.46a3.13,3.13,0,0,0,3.23-3V79.53A3.48,3.48,0,0,0,275.15,76H170.83a3.48,3.48,0,0,0-3.48,3.48v25.56a34,34,0,0,1,3.12,3.6Zm99.06-10.6a2.35,2.35,0,1,1-2.35,2.35A2.35,2.35,0,0,1,269.52,81.85Zm-7.58,0a2.35,2.35,0,1,1-2.35,2.35A2.35,2.35,0,0,1,261.94,81.85Zm-67.71,2.24a2.54,2.54,0,0,1,2.54-2.54H249.2a2.54,2.54,0,0,1,2.54,2.54v.23a2.54,2.54,0,0,1-2.54,2.54H196.78a2.54,2.54,0,0,1-2.54-2.54ZM184,81.85a2.35,2.35,0,1,1-2.35,2.35A2.35,2.35,0,0,1,184,81.85Zm-7.58,0a2.35,2.35,0,1,1-2.35,2.35A2.35,2.35,0,0,1,176.46,81.85Z"/><path class="cls-4" d="M275.15,74H170.83a5.49,5.49,0,0,0-5.48,5.48v23.71c.69.59,1.36,1.2,2,1.84V79.53A3.48,3.48,0,0,1,170.83,76H275.15a3.48,3.48,0,0,1,3.48,3.48v97.19a3.13,3.13,0,0,1-3.23,3H247.95a5.69,5.69,0,0,0-.76-7.19.84.84,0,0,0-.65-.25.88.88,0,0,0-.63.31l-3.42,4-2.68,3.13h-5.17l-.7-3.13-1.54-6.94a.87.87,0,0,0-.4-.55.88.88,0,0,0-.68-.09,5.68,5.68,0,0,0-4,6.57l.21,1,.64,3.13H201q-.82,1-1.74,2h29.27l1.83,9-4.67,5.46a1.72,1.72,0,0,0-1,.59l-2,2.38-.37-.33a7,7,0,0,0-2.69-1.37,8.36,8.36,0,0,0-7.8,2.21,9.31,9.31,0,0,1,4.9,1.12,4.25,4.25,0,0,1,2,0,3.54,3.54,0,0,1,1.37.7,4.27,4.27,0,0,1,1,4.89,9.69,9.69,0,0,1-1.32,2l0,0a5.59,5.59,0,0,1-2.33,1.4,4.34,4.34,0,0,1-2.34.08l-.17-.06a4.85,4.85,0,0,0,.63-1.45,12.09,12.09,0,0,1-2.27.31l0,0,0,0a14.68,14.68,0,0,1-2.06-.05c-2.15-.62-3.44-1.57-3.81-2.84-.65-2.22,1.65-4.8,1.68-4.83a.53.53,0,0,0,0-.71.5.5,0,0,0-.71,0s-.25.28-.53.67a9.25,9.25,0,0,0-1.1,2c-3.85-.25-8.88-1.68-13.2-8a32.88,32.88,0,0,0-7-7.78,24.71,24.71,0,0,0,2.48-.88,25.3,25.3,0,0,0,5.24-3,6.47,6.47,0,0,0,.73-.46,6.2,6.2,0,0,0,1.11-1.06,26.05,26.05,0,0,0,3.93-4.42,30.25,30.25,0,0,0,3.17-5.88,38.13,38.13,0,0,0,2.6-11.73,48.12,48.12,0,0,0,0-5.47c0-.27,0-.59-.06-.9l0-.38-.08-1.06,0-.53,0-.26s0,0,0,.06V151c0-.11,0-.22,0-.35s0-.15,0-.24a15.26,15.26,0,0,1,.64-4.82,17.13,17.13,0,0,1,.88-2.19,18.53,18.53,0,0,1,1.14-2.06c.42-.67.91-1.32,1.39-1.95s.87-1.11,1.4-1.7a3.52,3.52,0,0,0,1.61,1.49c-.42.49-.81,1-1.16,1.41-.47.62-.91,1.21-1.29,1.81a16.53,16.53,0,0,0-1,1.84,14.79,14.79,0,0,0-.78,1.94,13.29,13.29,0,0,0-.55,4.19c0,.06,0,.11,0,.15s0,.29,0,.41v0l0,.22,0,.53v.06l.08,1,0,.33h6c1.06,0,4.65-.24,4.65-3.48,0-2.4-3.12-2.84-3.12-6,0-1.57,1.74-3.51,5-3.51s5.2,1.94,5.2,3.51c0,3.16-3,3.6-3,6,0,3.24,3.59,3.48,4.66,3.48h4.39a3.12,3.12,0,0,0,3.1-3.14V138.88s.31-2.87,2.22-2.87,1.71,3,5.27,3c1.78,0,4.84-.91,4.84-6.41s-3.06-6.16-4.84-6.16c-3.56,0-3.36,2.87-5.27,2.87s-2.22-3-2.22-3v-4.57a3.12,3.12,0,0,0-3.1-3.14h-8.21a5.12,5.12,0,0,1-1.54-.58,3,3,0,0,0,0-1.93l-.44-1.35c.88-.87,2.21-1.72,2.21-4.11,0-1.77-1-4.59-6.49-4.59a7.76,7.76,0,0,0-4.59,1.13l-.65-2-.39-1.17,2.88-.95a3,3,0,0,0,1.94-3.83L215.11,95A3,3,0,0,0,211.27,93l-16.4,5.38a3,3,0,0,0-1.94,3.83l1.42,4.33a3,3,0,0,0,3.83,1.94l2.88-.95,2.22,6.75-2.88.95a3,3,0,0,0-1.94,3.83l.29.87,1.14,3.46a3,3,0,0,0,.51.93V127l.92-.62c.45-.3.89-.57,1.31-.82l.13,0a3,3,0,0,0,1-.15l2.88-.95.31.93-.14.07a41.36,41.36,0,0,0-4.6,2.58,34.7,34.7,0,0,0-5.62,4.41,29.45,29.45,0,0,0-5.5,7.32A29,29,0,0,0,187.94,150c0,.35-.07.75-.1,1.14l0,.33,0,.62,0,.56,0,.27a2.59,2.59,0,0,0,0,.27v.14l0,.47c0,.1,0,.22,0,.35s0,.32,0,.48v.08a32.7,32.7,0,0,1-.4,3.43,19.2,19.2,0,0,1-1.83,5.74,10,10,0,0,1-1.29,1.92,8.89,8.89,0,0,1-1.44,1.31,7.05,7.05,0,0,1-2.79,1.2h-.08a8.14,8.14,0,0,1-1.18.13h-.19a7.5,7.5,0,0,1-1.6-.21l-.06,0a7.18,7.18,0,0,1-2.86-1.51,9.27,9.27,0,0,1-1.18-1.23,11.57,11.57,0,0,1-.91-1.36l-.2-.37c-.06-.11-.12-.22-.17-.33s-.18-.36-.27-.52l-.07-.15-.1-.21,0-.05-.1-.18-.08-.14c-.06-.14-.14-.28-.21-.42l0-.05-.35-.7,0-.08c-.1-.19-.19-.37-.28-.55s-.28-.55-.42-.79l-.08-.14c-.05-.65-.1-1.33-.13-2a16.46,16.46,0,0,0,5.63-27.6c0-.33,0-.65,0-1a31.74,31.74,0,1,0-63.47,0c0,.32,0,.64,0,1a16.38,16.38,0,0,0-5.21,10.43l-1.67-.68-.67-.27-2.47-1-.45-.26a2.39,2.39,0,0,0-1.08-.9,2.2,2.2,0,0,0-.67-.16,101.34,101.34,0,0,1-13-9.27c-.76-.66-1.49-1.33-2.16-2h3a3.12,3.12,0,0,0,3.1-3.14V111.46s.31-2.87,2.22-2.87,1.71,3,5.27,3c1.78,0,4.84-.91,4.84-6.41s-3.06-6.16-4.84-6.16c-3.56,0-3.36,2.87-5.27,2.87s-2.22-3-2.22-3V94.4a3.12,3.12,0,0,0-3.1-3.14H78.84s-2.71-.47-2.71-2.38,3-2,3-5.59c0-1.77-1-4.59-6.49-4.59s-6.24,2.82-6.24,4.59c0,3.56,2.71,3.68,2.71,5.59s-2.71,2.38-2.71,2.38H58.76a3.08,3.08,0,0,0-2.51,1.31,3.14,3.14,0,0,0-.59,1.83v6.13s-.33,4.73,3.47,4.73c2.4,0,2.54-3.23,5.7-3.23,1.57,0,3.17,1.48,3.17,4.74s-1.6,4.9-3.17,4.9c-3.15,0-3.3-3.22-5.69-3.22-3.81,0-3.47,4.57-3.47,4.57v9.58a3.12,3.12,0,0,0,3.1,3.14h8q-.63,1-1.22,2a40.16,40.16,0,0,0-2.18,4.53c-2.52,6.19-3.24,12.07-2.25,15.91a6.09,6.09,0,0,0,2.4,3.79H24.75a3.13,3.13,0,0,1-3.23-3V51.76A3.48,3.48,0,0,1,25,48.28H129.32a3.48,3.48,0,0,1,3.48,3.48V96.87c.66-.22,1.32-.42,2-.6V51.76a5.49,5.49,0,0,0-5.48-5.48H25a5.49,5.49,0,0,0-5.48,5.48v97.19a5.13,5.13,0,0,0,5.23,5H92.51a2.22,2.22,0,0,0,.47.27,2.43,2.43,0,0,0,1.51.07l.06,0-.36.41L94,155c2.17.94,4.28,3,4.72,5.13a4.64,4.64,0,0,1-1.83,3.23c-1.15.71-2.82.67-5.43-.12-5.09-1.54-4.11-5.38-4.06-5.55a.5.5,0,0,0-1-.27,5.43,5.43,0,0,0-.07,1.89,5.13,5.13,0,0,0,1.4,2.93c0,.05,0,.11,0,.16v.1l0,.49s0,.06,0,.09v.68a24.07,24.07,0,0,0,.17,2.44c0,.19,0,.37-.06.54,0,.41,0,.77,0,1.07s0,.54,0,.71l0,.19v.07l0,.26a2.54,2.54,0,0,0,.91,1.54c.19.62.4,1.23.63,1.83a25.51,25.51,0,0,0,5.05,8,25.14,25.14,0,0,0,2.6,2.43,26.43,26.43,0,0,0,6.54,3.93c.54.23,1.1.44,1.69.64-.91,1-1.86,2-3,3.38l-1.75,2c-1.65,1.94-3.21,3.77-4.8,5.45a39,39,0,0,1-3.16,3,20.29,20.29,0,0,1-2.84,2,8.34,8.34,0,0,1-2.37.32A24.91,24.91,0,0,1,79.9,202c-.8-.27-1.49-.49-2.1-.65,0-.12,0-.23-.08-.35a.5.5,0,0,0-.95.32,3.58,3.58,0,0,1-.25,3,7,7,0,0,1-4.41,2.95c-2.24.49-3.92.29-5-.6a4.1,4.1,0,0,1-1.29-3,.49.49,0,0,0-.34-.48.48.48,0,0,0-.14,0,.51.51,0,0,0-.52.48,5.05,5.05,0,0,0,1.64,3.8,4.66,4.66,0,0,0,2.1,1l.44,4.33A10.41,10.41,0,0,0,66,215.22a10.25,10.25,0,0,0-2.32,6.64c0,.31,0,.62,0,.93a10.71,10.71,0,0,0,7.17,8.81,1.47,1.47,0,0,0,.44.07h.15a1.48,1.48,0,0,0,1-.53,1.46,1.46,0,0,0,.32-1.08l0-.17h0l-.7-6.94a.39.39,0,0,1,.35-.43l1.79-.18.72-.07.75-.08h0a.4.4,0,0,1,.43.35l.72,7.11A1.46,1.46,0,0,0,78.27,231h.15a1.46,1.46,0,0,0,.57-.18,10.12,10.12,0,0,0,1.2-.8,10.39,10.39,0,0,0,1.78-1.7,10.26,10.26,0,0,0,2.28-7.57,10.39,10.39,0,0,0-1.14-3.78,21.66,21.66,0,0,0,4.76.7l.8,0c.79,0,1.6,0,2.49-.13a27.17,27.17,0,0,0,3.36-.58,34.14,34.14,0,0,0,6.29-2.2,54.25,54.25,0,0,0,5.58-3c2.57-1.55,5-3.2,7.07-4.66l2.17-1.48c1-.7,1.9-1.27,2.68-1.76-.14,1.15-.25,2.32-.31,3.5s-.1,2.54-.09,3.89V213l0,1.49c0,.42,0,.86,0,1.3v.27c0,.37,0,.74-.06,1.11-.06,1-.16,1.88-.25,2.65-.12.93-.25,1.73-.4,2.45-.18.89-.36,1.63-.55,2.29s-.46,1.45-.71,2.09a20.31,20.31,0,0,1-.85,1.85,15,15,0,0,1-.95,1.59,14.75,14.75,0,0,1-1.06,1.41,16.4,16.4,0,0,1-1.13,1.2c-.37.35-.77.69-1.17,1a16.61,16.61,0,0,1-2.13,1.4c-.64.35-1.17.59-1.51.74l-.2.09h0a5.29,5.29,0,0,0,.49,10.55h.11a19.6,19.6,0,0,0,2.69.18c.46,0,.94,0,1.42,0a24.24,24.24,0,0,0,4.75-.79,23.69,23.69,0,0,0,2.84-.95,25.53,25.53,0,0,0,3-1.44,28.74,28.74,0,0,0,3.05-2,30.59,30.59,0,0,0,5.69-5.54,33.06,33.06,0,0,0,2.41-3.42A41.51,41.51,0,0,0,137,225c.47-1.27.91-2.6,1.29-4,.15-.52.29-1.05.41-1.57l.1-.41.09-.4c.13-.53.26-1.08.37-1.7l.35-1.8,0-.11V215s0-.11,0-.16l0-.09.09-.4.18-.76c.22-.92.46-1.91.72-2.84a43.3,43.3,0,0,1,1.54-4.72c.31-.75.57-1.35.8-1.86l.13-.27.14.3c.22.49.48,1.08.79,1.85a43.3,43.3,0,0,1,1.53,4.7c.26.93.5,1.92.72,2.86l.18.75.09.38,0,.1s0,.1,0,.14V215l0,.1.35,1.82c.11.6.24,1.15.37,1.68l.09.36.11.43c.13.52.26,1.06.43,1.61.37,1.33.81,2.66,1.29,3.94a41.54,41.54,0,0,0,3.67,7.55,33,33,0,0,0,2.4,3.42,30.59,30.59,0,0,0,5.68,5.53,28.83,28.83,0,0,0,3.07,2,25.49,25.49,0,0,0,3,1.43,23.79,23.79,0,0,0,2.85.95,24.22,24.22,0,0,0,4.73.78c.49,0,1,0,1.43,0a19.61,19.61,0,0,0,2.69-.18H179a5.3,5.3,0,0,0,5.21-5.12c.46-3.12-1.3-4.3-6.93-8.09-4.93-3.32-8.5-5.72-8.83-20.67v-1.35c0-1.26,0-2.52-.08-3.75s0-2.39,0-3.57q0-1.35,0-2.69a16.67,16.67,0,0,1,2.53.44,17.37,17.37,0,0,1,3,1.05c.53.23,1,.5,1.68.85s1.2.71,1.71,1c.79.52,1.64,1.13,2.57,1.84a6.34,6.34,0,0,0,.89.8,6.59,6.59,0,0,0,.63.41l1.84,1.51,2,1.68a44.77,44.77,0,0,0,5.19,3.72,20,20,0,0,0,7,2.66,16.39,16.39,0,0,0,2.54.2c.42,0,.83,0,1.23-.05a16.4,16.4,0,0,0,3.28-.61,19.65,19.65,0,0,0,4.64-2.07,29.11,29.11,0,0,0,2.87-2l.34-.27a7,7,0,0,0,2,.85l.34.06a8.53,8.53,0,0,0,8.25-3.11c.16-.19.3-.39.44-.59l2.73-3.31,0,0,6-7.28.54,2.66a1.72,1.72,0,0,0,0,.66L234.77,213c0,.24.07.48.12.73a8.55,8.55,0,0,0,6,6.68,7,7,0,0,0,3.18.09c4.13-.84,6.73-5.24,5.8-9.81a8.55,8.55,0,0,0-6-6.68h0a7,7,0,0,0-3.18-.09l-.48.12-.61-3a1.71,1.71,0,0,0-.41-.8l-1.7-7.66,8.89-10.79h29a5.13,5.13,0,0,0,5.23-5V79.53A5.49,5.49,0,0,0,275.15,74ZM209.62,130.4a.91.91,0,0,0,.31-.17l2.39-2a4.62,4.62,0,0,0,.12,1.82l-2.31,2Zm-.8-3.56,6-5.1,1.46-.48.32,1a.92.92,0,0,0-.31.17L209,128.58,208.5,127A.91.91,0,0,0,208.82,126.84Zm-.91-1.65-.35-1.05,2.6-.85Zm3.35,10.19-.52-1.58a.91.91,0,0,0,.31-.17l2.32-2a5,5,0,0,0,1.18.92ZM223,132.23a6.34,6.34,0,0,1-1.84.77,8.16,8.16,0,0,1-1,.2l.24.73a2.54,2.54,0,0,1-1.62,3.2l-3.91,1.29a2.53,2.53,0,0,1-3-1.23.91.91,0,0,0,.28-.16l4.33-3.66.2.06h.12a.5.5,0,0,0,.46-.32l0-.06a.5.5,0,0,0-.37-.6c-1.75-.43-2.88-1.18-3.37-2.25a4.31,4.31,0,0,1,.18-3.34.5.5,0,0,0-.08-.57,9.93,9.93,0,0,1,4-2.67l.41-.14-.25-.77a7.21,7.21,0,0,1,.7.62,5.42,5.42,0,0,1,2.76-.29C226,124.6,226.33,130.1,223,132.23Zm-5.92-21.38a2,2,0,0,1,2.57,1.3l1.42,4.33a2,2,0,0,1-1.3,2.57h0l-2.55.84-2.69-8.21Zm-4.36-.37.22.68-1.67.55Zm-.6-1.82a.92.92,0,0,0-.31.17l-5.22,4.42-2.38.78-.2-.61a.91.91,0,0,0,.31-.17l7.29-6.17ZM211.59,94a2,2,0,0,1,2.57,1.3l1.42,4.33a2,2,0,0,1-1.3,2.57l-2.55.84L209,94.83Zm-10.68,12.6-2.69-8.21,9.88-3.24,2.69,8.21Zm1.12.68,2.27-.75-2,1.66Zm1.42,4.32-.52-1.58a.91.91,0,0,0,.31-.17L209,105l1.79-.59.28.85a.92.92,0,0,0-.31.17Zm3,11.85-2.69-8.21,9.88-3.25,2.69,8.21ZM75.83,112.75c3.26,0,5.2,1.94,5.2,3.51a4.5,4.5,0,0,1-1.53,3.3A4.18,4.18,0,0,0,78,118.45l-.12,0a4.9,4.9,0,0,0-3.57.19,9.53,9.53,0,0,0-1.83,1,4.48,4.48,0,0,1-1.61-3.34C70.83,114.69,72.57,112.75,75.83,112.75ZM68.31,152l.53-.26c3.8-.9,9.23-.54,14.58.26Zm27.11,1.41-.57-.14-.15,0-.14.05a1.63,1.63,0,0,1-1.2.05,1.37,1.37,0,0,1-.56-.44l-.11-.14-.17,0c-7.53-1.71-17.8-3.43-24-1.94l-.13.05a4.47,4.47,0,0,1-3.84.58h0c-3.65-1.48-3.76-10.07-.23-18.74A31.82,31.82,0,0,1,71.07,122c2.44-2.37,4.81-3.34,6.51-2.65a3.47,3.47,0,0,1,1.61,1.42,6.65,6.65,0,0,1,.54,1.09c3.16,5.55,12.13,11.78,19.11,16L99,138h.14a1.25,1.25,0,0,1,.46.09,1.46,1.46,0,0,1,.67.61l.06.1.1.06.61.36c.58,1.81.25,4.81-1,7.92S97,152.4,95.42,153.38Zm2,10.84A4.42,4.42,0,0,0,99,162.37a8.64,8.64,0,0,0,.75-2.41.49.49,0,0,0-.12-.41l.62-.67a11.15,11.15,0,0,1,1-1,2.84,2.84,0,0,1,.31-.22l.15-.09a.31.31,0,0,1,.11,0,1.08,1.08,0,0,1,.3,0l.18,0,.08,0h.07l0,0,.08,0,.06,0a3.54,3.54,0,0,0,.45.11l.17.07a2.94,2.94,0,0,0,2.83-.8l2.68,1.09a1.81,1.81,0,0,0,.68.13,3.87,3.87,0,0,0,2.58-1.41,10,10,0,0,0,1.14-1.47,16.38,16.38,0,0,0,4,2.06,92.76,92.76,0,0,1-1.25,12.46,9.93,9.93,0,0,1-1.59,1.09,10.81,10.81,0,0,1-1.46.66,12.42,12.42,0,0,1-1.61.44l-.07,0-.29,0-.33,0h-.07l-.19,0-.24,0h0l-.47,0H109a10.43,10.43,0,0,1-1.21-.06,12.41,12.41,0,0,1-5-1.71,13,13,0,0,1-1.47-1,13.87,13.87,0,0,1-2.3-2.35,14.35,14.35,0,0,1-1.53-2.49c-.07-.14-.13-.29-.19-.44Zm9.52-7.89a17.71,17.71,0,0,0,4.45-10.94l2.24.91c.48.2.79,1,.82,2a11.14,11.14,0,0,1-.91,4.3c-1.31,3.22-3.35,5-4.36,4.61ZM83.24,220.82a9.26,9.26,0,0,1-3.67,8.37l-.7-6.93A1.39,1.39,0,0,0,77.49,221h-.14l-3.26.33h0l-1.79.18A1.39,1.39,0,0,0,71,223l.7,6.94a9.33,9.33,0,0,1,.12-16.9l-.51-4.71c.32,0,.63-.09,1-.17a9.06,9.06,0,0,0,3.11-1.38l.64,5.83A9.3,9.3,0,0,1,83.24,220.82Zm123.05-9.89c-1.72,1-2.66,2.58-2.12,3.51a1.1,1.1,0,0,0,.22.26l-.5.17a14.44,14.44,0,0,1-2.87.53c-.35,0-.7,0-1.06,0l-.37,0-.37,0a14.69,14.69,0,0,1-1.49-.15h0c-.31,0-.61-.13-.91-.2a1.16,1.16,0,0,0,.39-.48c.4-1-.77-2.41-2.62-3.15s-3.67-.53-4.07.46a1.1,1.1,0,0,0-.07.34l-.36-.23c-1.31-.87-2.49-1.8-3.61-2.7l-1.76-1.45h0l0,0c.63-.87-.15-2.52-1.76-3.7s-3.23-1.38-3.94-.66c-.24-.16-.48-.34-.71-.5l-.94-.59-.92-.54c-.61-.33-1.21-.65-1.79-.9l-.37-.16a19.07,19.07,0,0,0-1.9-.71c-.36-.11-.72-.22-1.07-.31-.59-.15-1.16-.26-1.71-.34s-.85-.12-1.25-.16-.71,0-1.05-.06c0-3.49-.2-5.55-.21-5.58a.5.5,0,0,0-.44-.45h-.1a.5.5,0,0,0-.46.54s.16,2.05.2,5.49h0c0,2.73,0,5.53,0,8.39.07,1.25.09,2.47.08,3.67v1.38a56.81,56.81,0,0,0,.88,9.52q.18.95.41,1.79a15.56,15.56,0,0,0,6,9.27c.31.24.63.48,1,.71.49.35,1,.69,1.51,1,5.55,3.73,6.37,4.36,6,6.26a3.35,3.35,0,0,1-3.29,3.29h-.17l-.23,0-.22,0-.13,0-.33,0h-.1l-.5,0h-.16l-.44,0h-.94l-.77,0h0a22.35,22.35,0,0,1-2.93-.39l-.5-.11-.92-.22q-.62-.16-1.28-.38t-1.33-.49a23.63,23.63,0,0,1-2.79-1.33c-.47-.26-.95-.55-1.42-.85s-1-.63-1.42-1a29.14,29.14,0,0,1-2.76-2.35c-.45-.43-.89-.89-1.31-1.36s-.84-1-1.25-1.47a31,31,0,0,1-2.26-3.22q-.52-.84-1-1.72c-.42-.77-.81-1.56-1.18-2.35q-.36-.77-.69-1.55t-.62-1.58q-.35-.94-.66-1.9t-.58-1.91c-.19-.64-.34-1.28-.5-1.93s-.31-1.27-.44-2l-.35-1.81,0-.1v-.19h0l0-.19-.09-.39,0-.15-.15-.62q-.18-.76-.37-1.49t-.37-1.42q-.38-1.39-.78-2.63-.2-.62-.41-1.19t-.42-1.11c-.29-.7-.57-1.35-.84-1.95s-.45-.93-.67-1.35l-.13-.26c-.4-.73-.77-1.37-1.15-1.95-.37.58-.74,1.21-1.15,1.95-.26.49-.52,1-.8,1.61s-.55,1.24-.84,1.95a45.17,45.17,0,0,0-1.61,4.93c-.25.92-.49,1.9-.74,2.91l-.18.76-.09.39,0,.19c-1-.12-2.2,1-2.82,2.77s-.39,3.69.62,4a1.16,1.16,0,0,0,.6,0c-.3,1-.62,2-1,3q-.35.94-.74,1.87a39.82,39.82,0,0,1-1.76,3.61q-.48.88-1,1.72t-1.09,1.65c-.28.39-.57.77-.86,1.14a1.07,1.07,0,0,0-.1-.14c-.77-.76-2.52-.22-3.92,1.2s-1.91,3.18-1.14,3.93a1.07,1.07,0,0,0,.15.1c-.21.17-.42.35-.63.51q-.71.52-1.42,1t-1.42.85a23.65,23.65,0,0,1-2.79,1.33,21.65,21.65,0,0,1-2.61.87,22.07,22.07,0,0,1-4.35.72h0l-.77,0h-.94l-.44,0h-.15l-.5,0h-.1l-.33,0-.13,0-.22,0-.22,0h-.18a3.28,3.28,0,0,1-.16-6.56l.16,0c-.07,0,0,0,.21-.13l.24-.11.61-.28c.31-.14.66-.32,1.06-.54s.74-.42,1.15-.69.83-.56,1.26-.9.77-.64,1.15-1l.15-.13c.44-.41.86-.87,1.28-1.35q.31-.36.61-.76t.58-.82q.29-.42.56-.87t.52-.94a21.94,21.94,0,0,0,.93-2c.12-.3.21-.63.32-.95s.31-.85.44-1.3.22-.79.32-1.2.19-.82.27-1.25c.18-.84.31-1.72.43-2.61s.21-1.81.26-2.75c0-.46.05-.94.08-1.41,0-.24,0-.48,0-.71s0-.46,0-.67l0-1.56v-.12h0v-1.6c0-1.23,0-2.49.09-3.77q0-.9.13-1.82c.1-1.11.25-2.24.44-3.38a65.77,65.77,0,0,0,1.21-8,.5.5,0,0,0-.47-.53h-.05a.5.5,0,0,0-.48.46,60.68,60.68,0,0,1-.91,6.42c-.5.26-1,.55-1.57.89s-1.19.73-1.82,1.14-1.29.85-2,1.31c-1.59,1.08-3.31,2.28-5.13,3.5a1.35,1.35,0,0,0-.17-1.07c-.63-.87-2.45-.62-4.06.55s-2.39,2.83-1.76,3.7a1.13,1.13,0,0,0,.38.32c-1.22.69-2.47,1.37-3.79,2q-.71.32-1.43.62c-.42.17-.85.33-1.27.49h0a1.6,1.6,0,0,0,.35-1.51c-.4-1-2.22-1.21-4.07-.46s-3,2.15-2.62,3.15a1.1,1.1,0,0,0,.19.3l-.16,0c-.46,0-.92.07-1.37.09H87.92a19.53,19.53,0,0,1-3.82-.52c0-.92-.85-2.11-2.26-2.94-1.72-1-3.55-1.07-4.09-.14,0,0,0,.06,0,.08q-.36-.14-.73-.25L76.46,207l-.1-.9.15-.15a5.62,5.62,0,0,0,.89-1.15,4.72,4.72,0,0,0,.38-.87,4.32,4.32,0,0,0,.11-.49c2.24.69,5.92,2.19,9.5,2.19a10.12,10.12,0,0,0,3.18-.47,19.31,19.31,0,0,0,1.65-1.06q.83-.59,1.66-1.29c.21-.18.42-.38.63-.56s.69-.6,1-.93c.55-.53,1.11-1.09,1.66-1.67s1.1-1.18,1.65-1.79c1.1-1.23,2.19-2.52,3.3-3.82l1.67-2q.84-1,1.7-1.94t1.76-1.9c.31-.32.63-.63.95-.95h0a39.38,39.38,0,0,0,4.69.65c1,.08,2,.12,2.92.12a28.53,28.53,0,0,0,6.49-.65.5.5,0,0,0,.36-.61.49.49,0,0,0-.36-.35.48.48,0,0,0-.25,0,26.41,26.41,0,0,1-4.75.57,37.93,37.93,0,0,1-8.26-.58h0l.06-.06h0l-.3-.06-.92-.21a25.81,25.81,0,0,1-3.53-1.18,24.81,24.81,0,0,1-4.69-2.59q-.71-.5-1.37-1a23.49,23.49,0,0,1-2.07-1.91,3.71,3.71,0,0,0,.13-2.21,6.34,6.34,0,0,0-.35-1.17c-.69-1.68-1.92-2.78-2.89-2.65a1.09,1.09,0,0,0-.28.06,1.21,1.21,0,0,0-.57.52,22,22,0,0,1-1-2.21c-.08-.21-.15-.41-.22-.61a2.55,2.55,0,0,0,.55-.21,2.61,2.61,0,0,0,.5-.33l.06-.05.16-.16.08-.08a6.37,6.37,0,0,0,.47-.56,9.48,9.48,0,0,0,.68-1.05,12.19,12.19,0,0,0,.65-1.37c.2-.49.37-1,.57-1.5l0-.11c.09-.21.17-.42.26-.62l.08-.17h.22c.1.24.18.46.3.71a16.37,16.37,0,0,0,1.73,2.84q.27.36.58.71a15.9,15.9,0,0,0,1.34,1.36q.36.33.75.64c.26.21.53.41.8.6s.56.38.86.55.59.35.9.5.62.3.94.44a14.1,14.1,0,0,0,4,1,12.45,12.45,0,0,0,1.44.08h.61l.51,0,.22,0,.2,0,.19,0,.33,0,.36,0,.18,0h0a14.51,14.51,0,0,0,1.9-.53,12.89,12.89,0,0,0,1.72-.78,11.93,11.93,0,0,0,2.47-1.8c0-.18.07-.38.1-.56.25-1.41.48-2.9.67-4.48.32-2.71.54-5.68.65-8.94h0a15.65,15.65,0,0,0,2,.13c.85,0,1.45-.06,1.51-.07l.08,0a.49.49,0,0,0,.18-.86.52.52,0,0,0-.36-.11h0a16,16,0,0,1-3.48-.09h0c-.23-.06-.45-.13-.67-.2s-.59-.19-.88-.3a14.33,14.33,0,0,1-2.75-1.37c-.23-.15-.45-.31-.67-.48.09-.21.19-.4.28-.62a12.16,12.16,0,0,0,1-4.71v0c0-1.51-.56-2.54-1.44-2.9h0l-2.66-1.08a2.94,2.94,0,0,0-1.47-2.55l-1.59-.65a14.08,14.08,0,0,1,5.29-10.35c0-.61-.06-1.23-.06-1.85a29.87,29.87,0,0,1,.6-6q.3-1.45.73-2.85a29.53,29.53,0,0,1,1.6-4q.63-1.3,1.37-2.53t1.6-2.37q.43-.57.88-1.12a29.64,29.64,0,0,1,21-10.76q.95-.06,1.91-.06a29.75,29.75,0,0,1,5.42.5q.88.16,1.74.38l.58.15a29.75,29.75,0,0,1,21,21l.15.58a29.79,29.79,0,0,1,.87,7.16c0,.62,0,1.24-.06,1.85a14.45,14.45,0,0,1-5.27,25.14,20.84,20.84,0,0,1-2.68.31h-.47a.5.5,0,0,0,0,1h.31a21.12,21.12,0,0,0,2.5-.24c0,.38,0,.78.06,1.15q.06,1,.14,2l.14.24.14.24c.17.29.33.62.51,1l.19.36.13.25.25.5c.07.13.13.26.19.39s.14.26.21.4l.2.41c.07.13.15.27.21.41s.3.56.44.85a13.94,13.94,0,0,0,1.11,1.66,11.26,11.26,0,0,0,1.39,1.45l0,0a9.27,9.27,0,0,0,1.72,1.18,9.14,9.14,0,0,0,1.24.53c.23.08.46.16.69.23a9,9,0,0,0,2,.29h.35a10.56,10.56,0,0,0,1.61-.17,9.09,9.09,0,0,0,3.64-1.57,10.9,10.9,0,0,0,1.74-1.6,12,12,0,0,0,1.56-2.32,19.71,19.71,0,0,0,1.22-2.95c.17-.53.33-1.08.46-1.65s.25-1.15.34-1.74.18-1.19.26-1.8.13-1.22.17-1.84c0-.31,0-.62,0-.93l0-.47v-.19h0s0,0,0-.16v0l0-.27,0-.54,0-.61c0-.47.07-1,.12-1.41.1-.87.23-1.73.41-2.57s.39-1.67.64-2.47a26.23,26.23,0,0,1,1.86-4.52c.36-.68.74-1.32,1.13-1.93a27.5,27.5,0,0,1,3.31-4.17c.23-.24.46-.49.69-.72q.69-.67,1.37-1.26a34.75,34.75,0,0,1,3.82-2.83l.12-.08a38.93,38.93,0,0,1,4.27-2.4l1.14,3.46.32,1,.51,1.56a6.28,6.28,0,0,0-1.16.87c-1.45,1.36-2,3.1-1.29,3.89a1.27,1.27,0,0,0,.84.36c-.46.61-.92,1.22-1.33,1.89a20.47,20.47,0,0,0-1.27,2.29,18.75,18.75,0,0,0-1,2.44q-.2.63-.34,1.29a18.23,18.23,0,0,0-.39,4.16c0,.23,0,.41,0,.61v.07s0,0,0,.1l0,.27,0,.53.08,1c0,.42.07.83.08,1.26a45.93,45.93,0,0,1,0,5.23c0,.13,0,.25,0,.38h0c-1-.27-2.29,1.06-2.8,3s-.07,3.71,1,4a1.19,1.19,0,0,0,.69-.05,32.79,32.79,0,0,1-1.27,3.82q-.29.7-.61,1.4a27.76,27.76,0,0,1-2.35,4.09,23.53,23.53,0,0,1-2,2.53l-.05.05c-.83-.41-2.3-.08-3.63.91s-2.23,2.56-1.86,3.47a24,24,0,0,1-2.56,1.29,20.37,20.37,0,0,1-3.14,1c-.31.08-.63.13-.94.2a26.11,26.11,0,0,1-6.92-.14.5.5,0,1,0-.17,1c.08,0,.89.15,2.08.24.65.05,1.41.09,2.23.09l1.14,0c.31.24.62.47.92.73,1.63.84,4.64,3,8.39,8.52,4.65,6.84,10.18,8.54,14.43,8.88a4.18,4.18,0,0,0,0,.5,3.62,3.62,0,0,0,.73,1.88,4.65,4.65,0,0,0,.75.78,7,7,0,0,0,1.74,1,7.1,7.1,0,0,0,.53,1.05A5.66,5.66,0,0,0,206.29,210.92Zm31.8-29.18-2.39,2.79-.62-2.79Zm-9.8-6.35a4.67,4.67,0,0,1,3.16-5.37l3.44,15.46-3.68,4.3Zm13.09,31.88a3.55,3.55,0,0,1,1.62,0,5.09,5.09,0,0,1,3.48,4c.55,2.71-.84,5.29-3.11,5.74a3.55,3.55,0,0,1-1.62,0,5,5,0,0,1-3.34-3.47v-.05a9.69,9.69,0,0,1-.21-2.41A4.27,4.27,0,0,1,241.38,207.28ZM238,199.61a1.71,1.71,0,0,0-.48,0l-3.59.73a1.72,1.72,0,0,0-.56.23l-.51-2.5,3.78-4.58Zm8.82-20-16.43,19.94a1.72,1.72,0,0,0-.47-.63l-2.82-2.33a1.72,1.72,0,0,0-.26-.17l19.71-23A4.68,4.68,0,0,1,246.85,179.58Z"/><path class="cls-3" d="M275.52,174.56V92.45H170.47v16.24a33.56,33.56,0,0,1,6.72,20.19s0,.09,0,.14a18.46,18.46,0,0,1-5.56,29.74v.12c.12.22.22.42.32.62l.25.49.08.16.33.65,0,.06c.08.15.16.3.23.46l0,.07.11.21.05.1.1.2.05.11c.1.19.21.39.31.61l.1.19.2.37a9.46,9.46,0,0,0,.71,1.07,7.28,7.28,0,0,0,.93,1,5.25,5.25,0,0,0,2.05,1.09l.12,0a6.31,6.31,0,0,0,1.11.13h.12a7.28,7.28,0,0,0,.87-.11h0a5.08,5.08,0,0,0,2-.86,6.8,6.8,0,0,0,1.09-1,8,8,0,0,0,1-1.52,17.2,17.2,0,0,0,1.63-5.15,30.77,30.77,0,0,0,.38-3.22q0-.08,0-.16c0-.11,0-.23,0-.35s0-.27,0-.36l0-.47h0c0-.14,0-.3,0-.44l0-.28,0-.58,0-.64,0-.33c0-.43.07-.85.11-1.21a31,31,0,0,1,3.34-11,31.44,31.44,0,0,1,5.87-7.82,34,34,0,0,1,3-2.59c0-.22,0-.41,0-.51v-6.07a5.09,5.09,0,0,1,.35-1.84l-.29-.87a3,3,0,0,1,1.94-3.83l2.88-.95-2.22-6.75-2.88.95a3,3,0,0,1-3.83-1.94l-1.42-4.33a3,3,0,0,1,1.94-3.83L211.27,93A3,3,0,0,1,215.11,95l1.42,4.33a3,3,0,0,1-1.94,3.83l-2.88.95.39,1.17a10.43,10.43,0,0,1,5.24-1.15h0c6.26,0,8.49,3.41,8.49,6.59a6.53,6.53,0,0,1-2.46,5.2c-.14.13-.31.28-.42.4a2.78,2.78,0,0,0,.84.37h8a5.13,5.13,0,0,1,5.1,5.14v4.44a3.76,3.76,0,0,0,.26.88l.16-.19a6,6,0,0,1,5.07-2.48c4.28,0,6.84,3.05,6.84,8.16,0,6.2-3.53,8.41-6.84,8.41a5.92,5.92,0,0,1-5.1-2.63l-.15-.19a3.45,3.45,0,0,0-.23.79v11a5.13,5.13,0,0,1-5.1,5.14h-4.39c-4,0-6.66-2.15-6.66-5.48a5.51,5.51,0,0,1,1.91-3.93c.76-.8,1.12-1.22,1.12-2.07,0-.31-.91-1.51-3.2-1.51-2.11,0-3,1.08-3,1.51,0,.84.37,1.26,1.15,2.05a5.47,5.47,0,0,1,2,3.95,5,5,0,0,1-3.1,4.78,9,9,0,0,1-3.55.7h-5.9c.05,1.57,0,3.14,0,4.7a40.13,40.13,0,0,1-2.74,12.35,32.79,32.79,0,0,1-2.19,4.41h24.36l-.21-1a5.68,5.68,0,0,1,4-6.57.88.88,0,0,1,.68.09.87.87,0,0,1,.4.55l1.54,6.94h8.54l3.42-4a.88.88,0,0,1,.63-.31.84.84,0,0,1,.65.25,5.62,5.62,0,0,1,1.7,4.06h24.58C275.15,176.61,275.52,176.25,275.52,174.56Z"/><path class="cls-2" d="M198.41,127.9c0,.1,0,.29,0,.51.63-.49,1.3-1,2-1.44v-2.59a3,3,0,0,1-.51-.93L198.76,120a5.09,5.09,0,0,0-.35,1.84Z"/><path class="cls-2" d="M208.12,154.18c0,.32,0,.65,0,1H214a9,9,0,0,0,3.55-.7,5,5,0,0,0,3.1-4.78,5.47,5.47,0,0,0-2-3.95c-.78-.8-1.15-1.22-1.15-2.05,0-.43.89-1.51,3-1.51,2.29,0,3.18,1.21,3.2,1.51,0,.85-.36,1.27-1.12,2.07a5.51,5.51,0,0,0-1.91,3.93c0,3.33,2.61,5.48,6.66,5.48h4.39a5.13,5.13,0,0,0,5.1-5.14V139a3.45,3.45,0,0,1,.23-.79l.15.19a5.92,5.92,0,0,0,5.1,2.63c3.31,0,6.84-2.21,6.84-8.41,0-5.11-2.56-8.16-6.84-8.16a6,6,0,0,0-5.07,2.48l-.16.19a3.76,3.76,0,0,1-.26-.88v-4.44a5.13,5.13,0,0,0-5.1-5.14h-8a2.78,2.78,0,0,1-.84-.37c.11-.12.28-.28.42-.4a6.53,6.53,0,0,0,2.46-5.2c0-3.19-2.23-6.59-8.49-6.59h0a10.43,10.43,0,0,0-5.24,1.15l.65,2a7.76,7.76,0,0,1,4.59-1.13c5.5,0,6.49,2.82,6.49,4.59,0,2.39-1.33,3.23-2.21,4.11l.44,1.35a3,3,0,0,1,0,1.93,5.12,5.12,0,0,0,1.54.58h8.21a3.12,3.12,0,0,1,3.1,3.14v4.57s.31,3,2.22,3,1.71-2.87,5.27-2.87c1.78,0,4.84.66,4.84,6.16s-3.06,6.41-4.84,6.41c-3.56,0-3.36-3-5.27-3s-2.22,2.87-2.22,2.87V150a3.12,3.12,0,0,1-3.1,3.14h-4.39c-1.07,0-4.66-.24-4.66-3.48,0-2.4,3-2.84,3-6,0-1.57-1.94-3.51-5.2-3.51s-5,1.94-5,3.51c0,3.16,3.12,3.6,3.12,6,0,3.24-3.59,3.48-4.65,3.48h-6v0C208.08,153.51,208.11,153.85,208.12,154.18Z"/><circle class="cls-4" cx="176.46" cy="84.2" r="2.35"/><circle class="cls-4" cx="184.04" cy="84.2" r="2.35"/><rect class="cls-4" x="194.23" y="81.54" width="57.52" height="5.32" rx="2.54" ry="2.54"/><circle class="cls-4" cx="261.94" cy="84.2" r="2.35"/><circle class="cls-4" cx="269.52" cy="84.2" r="2.35"/><path class="cls-2" d="M179.39,248.48h0a21.49,21.49,0,0,1-2.95.2q-.76,0-1.56,0a26.19,26.19,0,0,1-5.11-.84,25.77,25.77,0,0,1-3.09-1,27.45,27.45,0,0,1-3.25-1.54,30.87,30.87,0,0,1-3.29-2.12,33.09,33.09,0,0,1-2.68-2.26q-6.21-.11-12.77-.11c-5.29,0-10.43.06-15.38.16a33.39,33.39,0,0,1-2.64,2.22,30.73,30.73,0,0,1-3.26,2.1,27.48,27.48,0,0,1-3.25,1.55,25.64,25.64,0,0,1-3.07,1,26.26,26.26,0,0,1-5.14.85c-.52,0-1,0-1.54,0a21.49,21.49,0,0,1-2.95-.2h0a7.3,7.3,0,0,1-7-6.27c-15.86,1.22-26,3.08-26,5.17,0,3.68,31.45,6.65,70.24,6.65s70.24-3,70.24-6.65c0-2.2-11.23-4.14-28.54-5.35A7.3,7.3,0,0,1,179.39,248.48Z"/><path class="cls-2" d="M146.37,221.58c-.17-.58-.31-1.13-.44-1.66l-.07-.26a16.2,16.2,0,0,1-5.42,2c-.2.71-.42,1.42-.65,2.11a17.05,17.05,0,0,0,6.59-2.13Z"/><path class="cls-2" d="M116.06,217V217a18.13,18.13,0,0,0-7.33,2.52,17.56,17.56,0,0,1-17.66.06c-.75.06-1.48.1-2.17.1l-.86,0c-.7,0-1.41-.09-2.11-.18A19.81,19.81,0,0,1,90,221.25a19.57,19.57,0,0,0,19.68,0,16.56,16.56,0,0,1,6.2-2.24c.07-.61.14-1.26.18-1.93Z"/><path class="cls-2" d="M63.64,221.86c-.4,0-.81,0-1.25,0a16.11,16.11,0,0,1-8.89-2.41,18,18,0,0,0-9.84-2.65,1,1,0,0,0,0,2,16.11,16.11,0,0,1,8.89,2.41,18,18,0,0,0,9.84,2.65c.53,0,1,0,1.49,0a10.3,10.3,0,0,1-.19-1.07C63.65,222.48,63.64,222.17,63.64,221.86Z"/><path class="cls-2" d="M174.75,223.9a1,1,0,1,0,0-2,19,19,0,0,1-3.21-.26c.16.77.34,1.47.54,2.1A22.55,22.55,0,0,0,174.75,223.9Z"/><path class="cls-2" d="M116.14,210.89q0-.51,0-1a18.09,18.09,0,0,0-6.46,2.37l-.61.33-1.43.89c-1.21.73-2.35,1.37-3.46,1.95a18.57,18.57,0,0,0,6-2.28A17.21,17.21,0,0,1,116.14,210.89Z"/><path class="cls-2" d="M144.67,214.06l-.13-.52a14.36,14.36,0,0,1-2.43.77l-.11.47-.1.42,0,.16h0a15.65,15.65,0,0,0,2.91-.85Z"/><path class="cls-5" d="M148.63,99.64a29.75,29.75,0,0,0-5.42-.5q-1,0-1.91.06.95-.06,1.91-.06A29.75,29.75,0,0,1,148.63,99.64Z"/><path class="cls-5" d="M119.12,156h0c-.23-.06-.45-.13-.67-.2C118.67,155.83,118.89,155.91,119.12,156Z"/><path class="cls-5" d="M89.58,215.63c.45,0,.91,0,1.37-.09l.16,0-.16,0C90.49,215.58,90,215.61,89.58,215.63Z"/><path class="cls-5" d="M97.24,214c.43-.15.85-.31,1.27-.49-.42.17-.85.33-1.27.49Z"/><path class="cls-5" d="M119.17,157c-.12,3.26-.34,6.23-.65,8.94.32-2.71.54-5.68.65-8.94Z"/><path class="cls-5" d="M105.52,190.12q-.86,1-1.7,1.94l-1.67,2,1.67-2Q104.66,191.08,105.52,190.12Z"/><path class="cls-5" d="M108.23,187.26h0c-.32.32-.64.62-.95.95q-.9.94-1.76,1.9.86-1,1.76-1.9C107.59,187.89,107.92,187.58,108.23,187.26Z"/><path class="cls-5" d="M109.15,186.35l-.06.06h0l.06-.06Z"/><path class="cls-5" d="M177.43,202.36l.94.59c.23.15.47.33.71.5-.24-.16-.48-.34-.71-.5Z"/><path class="cls-5" d="M200,215.43c.36,0,.71,0,1.06,0a12.57,12.57,0,0,1-1.43,0Z"/><path class="cls-5" d="M184.73,207.85l1.76,1.45-1.76-1.45Z"/><path class="cls-5" d="M88.65,215.65h.53c-.42,0-.84,0-1.26,0Z"/><path class="cls-5" d="M98.85,197.83q-.82.92-1.65,1.79c-.55.58-1.1,1.14-1.66,1.67.55-.53,1.11-1.09,1.66-1.67S98.3,198.45,98.85,197.83Z"/><path class="cls-5" d="M148.63,214.48h0Z"/><path class="cls-5" d="M174.71,200.92l-.37-.16.37.16c.59.26,1.18.57,1.79.9l.92.54-.92-.54C175.89,201.49,175.3,201.18,174.71,200.92Z"/><path class="cls-5" d="M145.12,203.33c-.23-.49-.45-.93-.67-1.35C144.67,202.4,144.89,202.85,145.12,203.33Z"/><path class="cls-5" d="M169.67,199.4c.55.09,1.12.19,1.71.34.35.09.7.19,1.07.31-.36-.11-.72-.22-1.07-.31C170.79,199.59,170.22,199.49,169.67,199.4Z"/><path class="cls-5" d="M212.34,212.44l-.34.27a29.11,29.11,0,0,1-2.87,2,19.65,19.65,0,0,1-4.64,2.07,16.4,16.4,0,0,1-3.28.61c-.4,0-.82.05-1.23.05a16.39,16.39,0,0,1-2.54-.2,20,20,0,0,1-7-2.66,44.77,44.77,0,0,1-5.19-3.72l-2-1.68-1.84-1.51a6.59,6.59,0,0,1-.63-.41,6.34,6.34,0,0,1-.89-.8c-.93-.71-1.78-1.32-2.57-1.84-.5-.33-1-.66-1.71-1s-1.15-.61-1.68-.85a17.37,17.37,0,0,0-3-1.05,16.67,16.67,0,0,0-2.53-.44q0,1.33,0,2.69,0,1.77,0,3.57c.07,1.23.09,2.49.08,3.75v1.35c.33,15,3.9,17.35,8.83,20.67,5.63,3.79,7.39,5,6.93,8.09a5.3,5.3,0,0,1-5.21,5.12h-.11a19.61,19.61,0,0,1-2.69.18c-.46,0-.94,0-1.43,0a24.22,24.22,0,0,1-4.73-.78,23.79,23.79,0,0,1-2.85-.95,25.49,25.49,0,0,1-3-1.43,28.83,28.83,0,0,1-3.07-2,30.59,30.59,0,0,1-5.68-5.53,33,33,0,0,1-2.4-3.42,41.54,41.54,0,0,1-3.67-7.55c-.48-1.28-.91-2.62-1.29-3.94-.16-.55-.3-1.09-.43-1.61l-.11-.43-.09-.36c-.13-.53-.25-1.08-.37-1.68l-.35-1.82,0-.1V215s0-.09,0-.14l0-.1-.09-.38-.18-.75c-.23-.93-.47-1.92-.72-2.86a43.3,43.3,0,0,0-1.53-4.7c-.32-.77-.57-1.36-.79-1.85l-.14-.3-.13.27c-.23.51-.49,1.11-.8,1.86a43.3,43.3,0,0,0-1.54,4.72c-.26.93-.5,1.91-.72,2.84l-.18.76-.09.4,0,.09c0,.05,0,.12,0,.16V215l0,.11-.35,1.8c-.11.61-.24,1.17-.37,1.7l-.09.4-.1.41c-.13.52-.26,1-.41,1.57-.38,1.35-.81,2.69-1.29,4a41.51,41.51,0,0,1-3.67,7.56,33.06,33.06,0,0,1-2.41,3.42,30.59,30.59,0,0,1-5.69,5.54,28.74,28.74,0,0,1-3.05,2,25.53,25.53,0,0,1-3,1.44,23.69,23.69,0,0,1-2.84.95,24.24,24.24,0,0,1-4.75.79c-.48,0-1,0-1.42,0a19.6,19.6,0,0,1-2.69-.18h-.11a5.29,5.29,0,0,1-.49-10.55h0l.2-.09c.34-.15.87-.39,1.51-.74a16.61,16.61,0,0,0,2.13-1.4c.4-.32.79-.65,1.17-1a16.4,16.4,0,0,0,1.13-1.2,14.75,14.75,0,0,0,1.06-1.41,15,15,0,0,0,.95-1.59,20.31,20.31,0,0,0,.85-1.85c.25-.65.49-1.35.71-2.09s.37-1.4.55-2.29c.15-.71.28-1.52.4-2.45.09-.77.2-1.68.25-2.65,0-.37,0-.74.06-1.11v-.27c0-.43,0-.88,0-1.3l0-1.49v-1.75c0-1.35,0-2.63.09-3.89s.16-2.35.31-3.5c-.78.49-1.65,1.07-2.68,1.76l-2.17,1.48c-2.11,1.45-4.51,3.1-7.07,4.66a54.25,54.25,0,0,1-5.58,3,34.14,34.14,0,0,1-6.29,2.2,27.17,27.17,0,0,1-3.36.58c-.89.09-1.7.13-2.49.13l-.8,0a21.66,21.66,0,0,1-4.76-.7,10.32,10.32,0,0,1,.85,2.19c.66.14,1.32.25,2,.33s1.41.15,2.11.18l.86,0c.69,0,1.41,0,2.17-.1l.51,0h.07a29,29,0,0,0,3.57-.62,36.1,36.1,0,0,0,6.65-2.33c.76-.34,1.53-.73,2.32-1.14,1.11-.58,2.25-1.22,3.46-1.95l1.43-.89c2.07-1.31,4-2.63,5.75-3.83l1.38-.95c0,.68,0,1.37-.06,2.08q0,.5,0,1c0,.13,0,.25,0,.38v1.79l0,1.41s0,0,0,.07c0,.36,0,.78,0,1.19V216c0,.34,0,.67-.06,1v.12c0,.67-.11,1.32-.18,1.93,0,.19,0,.39-.06.56-.11.86-.24,1.62-.37,2.28-.17.84-.34,1.53-.51,2.13s-.43,1.34-.66,1.94-.53,1.21-.76,1.66a14.8,14.8,0,0,1-1.74,2.61c-.39.45-.71.79-1,1s-.68.61-1,.89a14.45,14.45,0,0,1-1.86,1.22c-.55.3-1,.5-1.32.65a7.29,7.29,0,0,0,.88,14.49h0a21.49,21.49,0,0,0,2.95.2c.5,0,1,0,1.54,0a26.26,26.26,0,0,0,5.14-.85,25.64,25.64,0,0,0,3.07-1,27.48,27.48,0,0,0,3.25-1.55,30.73,30.73,0,0,0,3.26-2.1,33.39,33.39,0,0,0,2.64-2.22l.52-.47a33.39,33.39,0,0,0,2.9-3.2,35.06,35.06,0,0,0,2.55-3.63,43.49,43.49,0,0,0,3.85-7.91c.23-.62.45-1.25.66-1.89s.44-1.4.65-2.11l0-.07c.17-.57.3-1.12.44-1.65l.1-.4,0-.08.08-.36c.13-.56.27-1.13.39-1.79l.35-1.78,0-.11v0h0l0-.16.1-.42.11-.47.07-.28c.22-.9.45-1.87.7-2.76q.27-1,.54-1.87c.18.59.36,1.21.54,1.86s.4,1.52.58,2.28l.13.52.11.47.06.27.09.37v0l0,.15v.08l0,.1.36,1.82c.12.63.25,1.2.38,1.75l.08.36,0,.08,0,.12.07.26c.13.53.27,1.08.44,1.66l0,.06c.39,1.38.83,2.74,1.32,4a43.51,43.51,0,0,0,3.85,7.9,35,35,0,0,0,2.55,3.62,33.35,33.35,0,0,0,2.9,3.21l.46.41a33.09,33.09,0,0,0,2.68,2.26,30.87,30.87,0,0,0,3.29,2.12,27.45,27.45,0,0,0,3.25,1.54,25.77,25.77,0,0,0,3.09,1,26.19,26.19,0,0,0,5.11.84q.8,0,1.56,0a21.49,21.49,0,0,0,2.95-.2h0a7.3,7.3,0,0,0,7-6.46c0-.16,0-.31,0-.47.58-4.28-2.1-6.08-7.81-9.93-2.9-2-5.18-3.49-6.55-7.87-.2-.64-.38-1.34-.54-2.1a51.1,51.1,0,0,1-.86-9v-1.32c0-1.29,0-2.58-.08-3.83s0-2.35,0-3.51v-.32h0a15.39,15.39,0,0,1,2.64.93l.06,0c.42.19.89.43,1.46.74s1.14.67,1.6,1c1.07.7,2.24,1.57,3.61,2.66.7.56,1.41,1.15,2.15,1.76l2.07,1.7a46.59,46.59,0,0,0,5.43,3.88,22,22,0,0,0,7.73,2.92,18.37,18.37,0,0,0,2.84.23c.48,0,1,0,1.41-.06a18.44,18.44,0,0,0,3.66-.68,21.92,21.92,0,0,0,5.1-2.26,31,31,0,0,0,3.08-2.13l.06,0,1.1-.9-.34-.06A7,7,0,0,1,212.34,212.44Z"/><path class="cls-5" d="M149.46,218.56c.16.64.32,1.28.5,1.93s.37,1.28.58,1.91q-.31-1-.58-1.91C149.78,219.84,149.63,219.2,149.46,218.56Z"/><path class="cls-5" d="M130.54,233.14q.57-.8,1.09-1.65t1-1.72q-.48.88-1,1.72T130.54,233.14Z"/><path class="cls-5" d="M154.71,231.49A31,31,0,0,0,157,234.7c.41.5.82,1,1.25,1.47-.43-.47-.84-1-1.25-1.47A31,31,0,0,1,154.71,231.49Z"/><path class="cls-5" d="M115.16,232q-.3.4-.61.76c-.42.48-.84.94-1.28,1.35.44-.41.86-.87,1.28-1.35Q114.86,232.43,115.16,232Z"/><path class="cls-5" d="M116.3,230.33q-.27.45-.56.87t-.58.82q.3-.4.58-.82T116.3,230.33Z"/><path class="cls-5" d="M150.55,222.39q.31,1,.66,1.9t.62,1.58q-.33-.78-.62-1.58T150.55,222.39Z"/><path class="cls-5" d="M148.67,214.77l0-.1,0,.1.35,1.81c.13.7.29,1.33.44,2-.15-.64-.31-1.27-.44-2Z"/><path class="cls-5" d="M145.12,203.33c.27.6.55,1.24.84,1.95q.21.53.42,1.11-.21-.58-.42-1.11C145.67,204.58,145.39,203.93,145.12,203.33Z"/><path class="cls-5" d="M147.94,211.63q.18.73.37,1.49l.15.62-.15-.62Q148.13,212.36,147.94,211.63Z"/><path class="cls-5" d="M148.63,214.51v0Z"/><path class="cls-5" d="M76.91,200.75a.5.5,0,0,1,.81.21c0,.12.05.24.08.35.61.16,1.29.39,2.1.65a24.91,24.91,0,0,0,7.49,1.64,8.34,8.34,0,0,0,2.37-.32,20.29,20.29,0,0,0,2.84-2,39,39,0,0,0,3.16-3c1.59-1.67,3.15-3.51,4.8-5.45l1.75-2c1.16-1.34,2.11-2.41,3-3.38-.59-.2-1.16-.41-1.69-.64a26.43,26.43,0,0,1-6.54-3.93,25.14,25.14,0,0,1-2.6-2.43,25.51,25.51,0,0,1-5.05-8c-.24-.6-.44-1.21-.63-1.83a2.54,2.54,0,0,1-.91-1.54l0-.26v-.07l0-.19c0-.17,0-.41,0-.71s0-.66,0-1.07c0-.17,0-.35.06-.54a24.07,24.07,0,0,1-.17-2.44v-.68s0-.06,0-.09l0-.49v-.1c0-.05,0-.11,0-.16a5.13,5.13,0,0,1-1.4-2.93,6.29,6.29,0,0,0-.21,1.08l-.07.74c0,.4-.06.83-.08,1.2l0,.59q0,.09,0,.18v.67a25.3,25.3,0,0,0,.39,4.16,26.83,26.83,0,0,0,1.48,5.2,27.86,27.86,0,0,0,8.24,11.2,28.29,28.29,0,0,0,6.09,3.81L101,189.45l-1.75,2.05c-1.63,1.92-3.17,3.73-4.73,5.36a37.05,37.05,0,0,1-3,2.86,18.83,18.83,0,0,1-2.34,1.71,6.64,6.64,0,0,1-1.58.17,23,23,0,0,1-6.85-1.54,19.93,19.93,0,0,0-3.35-.93,7,7,0,0,0-1-.07,6.5,6.5,0,0,0-.75.06l.05.53A4,4,0,0,1,76.91,200.75Z"/><path class="cls-5" d="M99,167.18a13.87,13.87,0,0,0,2.3,2.35,13,13,0,0,0,1.47,1,12.41,12.41,0,0,0,5,1.71,10.43,10.43,0,0,0,1.21.06h.52l.47,0h0l.24,0,.19,0h.07l.33,0,.29,0,.07,0a12.42,12.42,0,0,0,1.61-.44,10.81,10.81,0,0,0,1.46-.66,9.93,9.93,0,0,0,1.59-1.09,92.76,92.76,0,0,0,1.25-12.46,16.38,16.38,0,0,1-4-2.06,10,10,0,0,1-1.14,1.47,18.37,18.37,0,0,0,3.31,1.92,89.57,89.57,0,0,1-1,10,7.91,7.91,0,0,1-.71.44,9,9,0,0,1-1.18.53,10.7,10.7,0,0,1-1.33.36l-.18,0-.34,0-.14,0-.19,0h-.08l-.11,0-.33,0h-.43a8.48,8.48,0,0,1-1,0,10.21,10.21,0,0,1-2.89-.75,10,10,0,0,1-1.32-.67l-.07,0a10.78,10.78,0,0,1-1.19-.83,11.88,11.88,0,0,1-2-2,12.36,12.36,0,0,1-1.32-2.15,11.6,11.6,0,0,1-.57-1.45,4.42,4.42,0,0,1-1.62,1.85l-.05,0c.06.15.12.3.19.44A14.35,14.35,0,0,0,99,167.18Z"/><path class="cls-5" d="M215.63,208.43a4.85,4.85,0,0,1-.63,1.45l.17.06a4.34,4.34,0,0,0,2.34-.08,6.88,6.88,0,0,0,.52-2.52A6.22,6.22,0,0,1,215.63,208.43Z"/><path class="cls-5" d="M129.28,98.27a33.78,33.78,0,0,0-19.56,30.6V129a18.34,18.34,0,0,0-5.12,10.58l1.67.68a16.38,16.38,0,0,1,5.21-10.43c0-.33,0-.65,0-1a31.74,31.74,0,1,1,63.47,0c0,.32,0,.64,0,1a16.46,16.46,0,0,1-5.63,27.6c0,.69.08,1.37.13,2l.08.14c.14.24.28.51.42.79s.18.36.28.55l0,.08.35.7,0,.05c.07.14.14.28.21.42l.08.14.1.18,0,.05.1.21.07.15c.09.16.18.33.27.52s.11.22.17.33l.2.37a11.57,11.57,0,0,0,.91,1.36,9.27,9.27,0,0,0,1.18,1.23,7.18,7.18,0,0,0,2.86,1.51l.06,0a7.5,7.5,0,0,0,1.6.21h.19a8.14,8.14,0,0,0,1.18-.13h.08a7.05,7.05,0,0,0,2.79-1.2,8.89,8.89,0,0,0,1.44-1.31,10,10,0,0,0,1.29-1.92,19.2,19.2,0,0,0,1.83-5.74,32.7,32.7,0,0,0,.4-3.43v-.08c0-.16,0-.32,0-.48s0-.24,0-.35l0-.47v-.14a2.59,2.59,0,0,1,0-.27l0-.27,0-.56,0-.62,0-.33c0-.4.06-.8.1-1.14a29,29,0,0,1,3.13-10.28,29.45,29.45,0,0,1,5.5-7.32,34.7,34.7,0,0,1,5.62-4.41,41.36,41.36,0,0,1,4.6-2.58l.14-.07-.31-.93-2.88.95a3,3,0,0,1-1,.15l-.13,0c-.43.25-.86.53-1.31.82l-.92.62c-.7.47-1.37,1-2,1.44a34,34,0,0,0-3,2.59,31.44,31.44,0,0,0-5.87,7.82,31,31,0,0,0-3.34,11c0,.35-.08.78-.11,1.21l0,.33,0,.64,0,.58,0,.28c0,.14,0,.3,0,.44h0l0,.47c0,.09,0,.23,0,.36s0,.23,0,.35,0,.1,0,.16a30.77,30.77,0,0,1-.38,3.22A17.2,17.2,0,0,1,183.9,163a8,8,0,0,1-1,1.52,6.8,6.8,0,0,1-1.09,1,5.08,5.08,0,0,1-2,.86h0a7.28,7.28,0,0,1-.87.11h-.12a6.31,6.31,0,0,1-1.11-.13l-.12,0a5.25,5.25,0,0,1-2.05-1.09,7.28,7.28,0,0,1-.93-1,9.46,9.46,0,0,1-.71-1.07l-.2-.37-.1-.19c-.1-.22-.2-.42-.31-.61l-.05-.11-.1-.2-.05-.1-.11-.21,0-.07c-.07-.16-.15-.31-.23-.46l0-.06-.33-.65-.08-.16-.25-.49c-.1-.19-.2-.4-.32-.62v-.12A18.46,18.46,0,0,0,177.19,129s0-.09,0-.14a33.56,33.56,0,0,0-6.72-20.19,34,34,0,0,0-3.12-3.6c-.64-.64-1.31-1.25-2-1.84a33.65,33.65,0,0,0-30.55-7c-.68.18-1.34.38-2,.6A33.51,33.51,0,0,0,129.28,98.27Z"/><path class="cls-5" d="M108.23,141.07a14.5,14.5,0,0,1,.33-2.42A14.5,14.5,0,0,0,108.23,141.07Z"/><path class="cls-5" d="M117.77,113.46q.75-1.23,1.6-2.37Q118.52,112.23,117.77,113.46Z"/><path class="cls-5" d="M116.4,116q.63-1.3,1.37-2.53Q117,114.68,116.4,116Z"/><path class="cls-5" d="M168.58,162.15l-.13-.25-.19-.36.19.36Z"/><path class="cls-5" d="M167.61,160.34l-.14-.24q-.08-1-.14-2,.06,1,.14,2Z"/><path class="cls-5" d="M174.35,169.43a9.27,9.27,0,0,1-1.72-1.18l0,0,0,0A9.27,9.27,0,0,0,174.35,169.43Z"/><path class="cls-5" d="M217.82,122.7l.25.77.45-.15A7.21,7.21,0,0,0,217.82,122.7Z"/><path class="cls-5" d="M203.16,176.61a32.79,32.79,0,0,0,2.19-4.41,40.13,40.13,0,0,0,2.74-12.35c.09-1.56.1-3.13,0-4.7,0-.32,0-.65,0-1s0-.67-.06-1v0l0-.33-.08-1v-.06l0-.53,0-.22v0c0-.11,0-.26,0-.41s0-.1,0-.15a13.29,13.29,0,0,1,.55-4.19,14.79,14.79,0,0,1,.78-1.94,16.53,16.53,0,0,1,1-1.84c.38-.61.82-1.19,1.29-1.81.35-.46.73-.93,1.16-1.41a3.52,3.52,0,0,1-1.61-1.49c-.52.59-1,1.14-1.4,1.7s-1,1.28-1.39,1.95a18.53,18.53,0,0,0-1.14,2.06,17.13,17.13,0,0,0-.88,2.19,15.26,15.26,0,0,0-.64,4.82c0,.09,0,.17,0,.24s0,.24,0,.35v.13s0,0,0-.06l0,.26,0,.53.08,1.06,0,.38c0,.31,0,.63.06.9a48.12,48.12,0,0,1,0,5.47,38.13,38.13,0,0,1-2.6,11.73,30.25,30.25,0,0,1-3.17,5.88,26.05,26.05,0,0,1-3.93,4.42,6.2,6.2,0,0,1-1.11,1.06,6.47,6.47,0,0,1-.73.46,25.3,25.3,0,0,1-5.24,3,24.71,24.71,0,0,1-2.48.88,32.88,32.88,0,0,1,7,7.78c4.32,6.36,9.35,7.78,13.2,8a9.25,9.25,0,0,1,1.1-2c-3.7-.11-8.31-1.19-12.39-7.19a41.67,41.67,0,0,0-4.8-5.94,26.82,26.82,0,0,0,6.16-3.82,29.1,29.1,0,0,0,2.47-2.32q.92-1,1.74-2c.33-.41.65-.83.95-1.26C202.39,177.87,202.78,177.25,203.16,176.61Z"/><path class="cls-5" d="M176.19,244.68h0Z"/><path class="cls-5" d="M110.15,244.68h0Z"/><path class="cls-5" d="M165.14,241.72c-.47-.26-.95-.55-1.42-.85.48.31,1,.59,1.42.85a23.63,23.63,0,0,0,2.79,1.33q.68.27,1.33.49-.65-.22-1.33-.49A23.63,23.63,0,0,1,165.14,241.72Z"/><path class="cls-2" d="M115.4,148.26v0a12.16,12.16,0,0,1-1,4.71c-.09.22-.19.42-.28.62.22.16.44.33.67.48a14.33,14.33,0,0,0,2.75,1.37q.43.16.88.3c.22.07.44.14.67.2a16,16,0,0,0,3.48.09,26.67,26.67,0,0,1-1.84-2.77A15.13,15.13,0,0,1,115.4,148.26Z"/><path class="cls-2" d="M118.07,226.42c-.11.31-.21.65-.32.95a21.94,21.94,0,0,1-.93,2q-.25.48-.52.94t-.56.87q-.28.43-.58.82t-.61.76c-.42.48-.84.94-1.28,1.35l-.15.13C115.42,232.69,117.06,230.1,118.07,226.42Z"/><path class="cls-2" d="M123,186.18l1.17-.48c.6-.26,1.22-.54,1.87-.86,2.85-1.42,6-5.07,6.17-5.22a1,1,0,0,0-.1-1.41,1,1,0,0,0-1.41.1,33,33,0,0,1-3.1,3,13.2,13.2,0,0,1-2.46,1.71l-.25.12c-.41.2-.81.39-1.2.56l.2-.7a29.7,29.7,0,0,1-9.8,1.48h-1a24.53,24.53,0,0,1-16.74-7.37,3.71,3.71,0,0,1-.13,2.21,23.49,23.49,0,0,0,2.07,1.91q.66.54,1.37,1a24.81,24.81,0,0,0,4.69,2.59,25.81,25.81,0,0,0,3.53,1.18l.92.21.3.06h0l-.06.06a37.93,37.93,0,0,0,8.26.58,26.41,26.41,0,0,0,4.75-.57.48.48,0,0,1,.25,0,.49.49,0,0,1,.36.35.5.5,0,0,1-.36.61,28.53,28.53,0,0,1-6.49.65c-.9,0-1.88,0-2.92-.12l1.73.65a.5.5,0,0,1,.25.21c.2.34,1,2.25-3.76,7L110,196.89c-4.64,4.69-11.66,11.78-19,12.41-.6.05-1.21.08-1.83.08A43.62,43.62,0,0,1,76.46,207l.53,4.89q.37.11.73.25s0-.06,0-.08c.55-.93,2.38-.86,4.09.14,1.4.82,2.28,2,2.26,2.94a19.53,19.53,0,0,0,3.82.52c.41,0,.84,0,1.26,0h.4c.45,0,.91,0,1.37-.09l.16,0a1.1,1.1,0,0,1-.19-.3c-.4-1,.77-2.41,2.62-3.15s3.67-.53,4.07.46a1.6,1.6,0,0,1-.35,1.51c.43-.15.85-.31,1.27-.49s1-.4,1.43-.62c1.32-.6,2.57-1.27,3.79-2a1.13,1.13,0,0,1-.38-.32c-.64-.87.15-2.52,1.76-3.7s3.42-1.42,4.06-.55a1.35,1.35,0,0,1,.17,1.07c1.82-1.22,3.54-2.42,5.13-3.5.68-.46,1.33-.9,2-1.31s1.24-.79,1.82-1.14,1.08-.62,1.57-.89a60.68,60.68,0,0,0,.91-6.42.5.5,0,0,1,.48-.46l.14-.79C121.7,191.16,122.27,188.82,123,186.18Z"/><path class="cls-2" d="M103.48,192.73c1.43-1.65,3-3.51,4.77-5.46h0c-.32.32-.64.62-.95.95q-.9.94-1.76,1.9t-1.7,1.94l-1.67,2c-1.11,1.3-2.2,2.59-3.3,3.82-.55.61-1.1,1.21-1.65,1.79s-1.1,1.14-1.66,1.67c-.34.33-.69.63-1,.93A84.32,84.32,0,0,0,103.48,192.73Z"/><path class="cls-2" d="M91.07,171.07c.07.2.14.41.22.61a22,22,0,0,0,1,2.21,1.21,1.21,0,0,1,.57-.52,1.09,1.09,0,0,1,.28-.06,27.85,27.85,0,0,1-1.55-2.46A2.55,2.55,0,0,1,91.07,171.07Z"/><path class="cls-2" d="M122.79,157l-.08,0c-.06,0-.66.07-1.51.07a15.65,15.65,0,0,1-2-.13c-.12,3.26-.34,6.23-.65,8.94-.19,1.58-.41,3.07-.67,4.48a10.11,10.11,0,0,0,1.23-1.72C120.73,165.71,122.07,160.35,122.79,157Z"/><path class="cls-2" d="M207.84,208.11a4.65,4.65,0,0,1-.75-.78,3.62,3.62,0,0,1-.73-1.88,4.18,4.18,0,0,1,0-.5c-4.25-.34-9.78-2-14.43-8.88-3.75-5.52-6.77-7.68-8.39-8.52-.3-.25-.62-.48-.92-.73l-1.14,0c-.82,0-1.58,0-2.23-.09-1.19-.09-2-.23-2.08-.24a.5.5,0,1,1,.17-1,26.11,26.11,0,0,0,6.92.14c.31-.06.63-.12.94-.2a20.37,20.37,0,0,0,3.14-1,24,24,0,0,0,2.56-1.29c-.37-.91.39-2.39,1.86-3.47s2.8-1.31,3.63-.91l.05-.05a23.53,23.53,0,0,0,2-2.53,27.76,27.76,0,0,0,2.35-4.09q.33-.7.61-1.4a32.79,32.79,0,0,0,1.27-3.82,1.19,1.19,0,0,1-.69.05c-1-.27-1.47-2.06-1-4s1.76-3.26,2.8-3h0c0-.13,0-.25,0-.38a45.93,45.93,0,0,0,0-5.23c0-.43-.05-.84-.08-1.26l-.08-1,0-.53,0-.27c0-.05,0-.08,0-.1v-.07c0-.21,0-.38,0-.61a18.23,18.23,0,0,1,.39-4.16q.14-.65.34-1.29a18.75,18.75,0,0,1,1-2.44,20.47,20.47,0,0,1,1.27-2.29c.41-.66.88-1.28,1.33-1.89a1.27,1.27,0,0,1-.84-.36c-.74-.78-.16-2.52,1.29-3.89a6.28,6.28,0,0,1,1.16-.87l-.51-1.56a13.28,13.28,0,0,0-4.28,4.27c-3.21,5.46-4,7.8-4,12.48v1.14c0,5.44.09,15.57-3.8,21.4-5,7.52-12.53,11.19-22.92,11.19-.42,0-.86,0-1.3,0a30.15,30.15,0,0,1-4.93-1.39,29.14,29.14,0,0,1-5.88-2.95,1,1,0,0,0-1.22,1.56l.06.07a25.18,25.18,0,0,0,2.71,1.6l1,.5,1.11.51a80.71,80.71,0,0,1,1.1,11.07.5.5,0,0,1,.44.45s.16,2.09.21,5.58c.34,0,.69,0,1.05.06s.82.09,1.25.16,1.12.19,1.71.34c.35.09.7.19,1.07.31a19.07,19.07,0,0,1,1.9.71l.37.16c.59.26,1.18.57,1.79.9l.92.54.94.59c.23.15.47.33.71.5.71-.72,2.42-.46,3.94.66s2.39,2.83,1.76,3.7l0,0,1.76,1.45c1.12.9,2.31,1.83,3.61,2.7l.36.23a1.1,1.1,0,0,1,.07-.34c.4-1,2.22-1.21,4.07-.46s3,2.15,2.62,3.15a1.16,1.16,0,0,1-.39.48c.3.07.6.15.91.2h0a14.69,14.69,0,0,0,1.49.15l.37,0a12.57,12.57,0,0,0,1.43,0,14.44,14.44,0,0,0,2.87-.53l.5-.17a1.1,1.1,0,0,1-.22-.26c-.55-.93.4-2.5,2.12-3.51a5.66,5.66,0,0,1,3.81-.72,7.1,7.1,0,0,1-.53-1.05A7,7,0,0,1,207.84,208.11Z"/><path class="cls-2" d="M117.55,129.31a25.76,25.76,0,1,1,51.35-2.9q0,.66,0,1.3A15.06,15.06,0,0,1,167,153a26.66,26.66,0,0,1-2.08,3.15,20.84,20.84,0,0,0,2.68-.31,14.45,14.45,0,0,0,5.27-25.14c0-.61.06-1.23.06-1.85a29.79,29.79,0,0,0-.87-7.16l-.15-.58a29.73,29.73,0,0,0-21-21l-.58-.15q-.86-.21-1.74-.38a29.75,29.75,0,0,0-5.42-.5q-1,0-1.91.06a29.64,29.64,0,0,0-21,10.76q-.45.55-.88,1.12-.86,1.14-1.6,2.37T116.4,116a29.53,29.53,0,0,0-1.6,4q-.43,1.4-.73,2.85a29.87,29.87,0,0,0-.6,6c0,.62,0,1.24.06,1.85a14.08,14.08,0,0,0-5.29,10.35l1.59.65a2.94,2.94,0,0,1,1.47,2.55l2.66,1.08a15,15,0,0,1,3.6-16Z"/><path class="cls-2" d="M175.59,170a9.14,9.14,0,0,1-1.24-.53,9.27,9.27,0,0,1-1.72-1.18l0,0a11.26,11.26,0,0,1-1.39-1.45,13.94,13.94,0,0,1-1.11-1.66c-.14-.29-.31-.56-.44-.85s-.14-.28-.21-.41l-.2-.41c-.07-.13-.14-.26-.21-.4s-.13-.26-.19-.39l-.25-.5-.13-.25-.19-.36c-.18-.34-.34-.68-.51-1l-.14-.24-.14-.24q-.08-1-.14-2c0-.37,0-.77-.06-1.15a21.12,21.12,0,0,1-2.5.24,16.49,16.49,0,0,0,.78,5.19A12,12,0,0,0,175.59,170Z"/><path class="cls-2" d="M180.44,242.4c-3.27,0-9.58-2.06-13.91-4.34-6.91-3.64-12-15.15-13.29-24.13-1.55-10.84-4.53-20.1-7.25-22.52a7,7,0,0,0-3.14-1.71,9.58,9.58,0,0,0-5.47,4.59c-1.75,3.18-2.51,9.36-3.32,15.91-.92,7.44-1.86,15.12-4.4,19.29-5.12,8.41-10.64,12.39-18.46,13.31a22.28,22.28,0,0,1-2.59.16,7.45,7.45,0,0,1-4.35-1,3.25,3.25,0,0,0,3.18,2.49h.18l.22,0,.22,0,.13,0,.33,0h.1l.5,0h.15l.44,0h.94l.77,0h0a22.07,22.07,0,0,0,4.35-.72,21.65,21.65,0,0,0,2.61-.87,23.65,23.65,0,0,0,2.79-1.33q.71-.4,1.42-.85t1.42-1c.21-.16.42-.34.63-.51a1.07,1.07,0,0,1-.15-.1c-.77-.76-.25-2.52,1.14-3.93s3.15-2,3.92-1.2a1.07,1.07,0,0,1,.1.14c.29-.38.58-.75.86-1.14s.74-1.09,1.09-1.65.68-1.14,1-1.72a39.82,39.82,0,0,0,1.76-3.61q.39-.93.74-1.87c.37-1,.69-2,1-3a1.16,1.16,0,0,1-.6,0c-1-.36-1.29-2.18-.62-4s1.84-2.9,2.82-2.77l0-.19.09-.39.18-.76c.24-1,.48-2,.74-2.91a45.17,45.17,0,0,1,1.61-4.93c.29-.7.57-1.35.84-1.95s.54-1.12.8-1.61c.4-.73.77-1.37,1.15-1.95.37.58.74,1.21,1.15,1.95l.13.26c.22.42.44.86.67,1.35s.55,1.24.84,1.95q.21.53.42,1.11t.41,1.19q.4,1.24.78,2.63.19.69.37,1.42t.37,1.49l.15.62,0,.15.09.39,0,.19h0v.19l0,.1.35,1.81c.13.7.29,1.33.44,2s.32,1.28.5,1.93.37,1.28.58,1.91.43,1.27.66,1.9.4,1.05.62,1.58.45,1,.69,1.55c.37.8.76,1.59,1.18,2.35q.48.88,1,1.72A31,31,0,0,0,157,234.7c.41.5.82,1,1.25,1.47s.86.93,1.31,1.36a29.14,29.14,0,0,0,2.76,2.35q.71.52,1.42,1c.48.31,1,.59,1.42.85a23.63,23.63,0,0,0,2.79,1.33q.68.27,1.33.49t1.28.38l.92.22.5.11a22.35,22.35,0,0,0,2.93.39h0l.77,0h.94l.44,0h.16l.5,0h.1l.33,0,.13,0,.22,0,.23,0h.17a3.28,3.28,0,0,0,3.15-2.38l0,0A3.66,3.66,0,0,1,180.44,242.4Z"/><path class="cls-6" d="M104.65,241c.31.31,1.74,1.34,6.44.79,7.48-.88,12.79-4.72,17.73-12.83,2.43-4,3.36-11.56,4.26-18.9.82-6.65,1.59-12.92,3.44-16.27a10.56,10.56,0,0,1,3.78-4,3.62,3.62,0,0,0-.72.32l-1,.6.19-1.11,3.35-19.14a15.33,15.33,0,0,1-1.27-1.61,5.66,5.66,0,0,1-.93-2.57c-.34-3.17,1.93-6.59,4.58-9.41l0-.23h.16a47,47,0,0,1,5.81-5.07c.66-.49,1.1-.79,1.2-.86l.15-.1L165,151.71l0,.5s-.07.72-.11,1.77c0,.63-.05,1.38,0,2.19h.17A26.66,26.66,0,0,0,167,153a15.06,15.06,0,0,0,1.86-25.32q0-.65,0-1.3a25.76,25.76,0,1,0-51.35,2.9,15,15,0,0,0-3.6,16h0c.88.36,1.39,1.39,1.44,2.9a15.13,15.13,0,0,0,5.35,5A26.67,26.67,0,0,0,122.6,156h0a.52.52,0,0,1,.36.11c.17-.8.28-1.41.35-1.75l.06-.31,0-.27.25-.11c.37-.16,7.14-3,12.25-2.58a8.22,8.22,0,0,1,2.73.63,5,5,0,0,1,1.33.86c1.78,1.62,2,4.45.78,8.4-.57,1.79-1.16,3.49-1.79,5.1-1.89,4.84-4.14,8.87-7.15,11.91a1,1,0,0,1,.28.16,1,1,0,0,1,.1,1.41c-.13.15-3.33,3.8-6.17,5.22-.65.32-1.27.61-1.87.86-.81,2.92-1.46,5.49-1.81,7.44A98.56,98.56,0,0,0,120.46,212c0,1.56-.09,3.32-.17,5.38-.39,10.74-3.22,16.78-8.9,19l-1.43.53-1.46.54-.61.28-.24.11c-.2.09-.28.13-.21.13l-.16,0C105.79,238.63,104.71,239.54,104.65,241ZM161.34,140.3a1.27,1.27,0,1,1-2.54,0v-2.84a1.27,1.27,0,0,1,2.54,0Zm-5.53-13.46a5.34,5.34,0,0,1,3.2-2.1,5.15,5.15,0,0,1,1.06-.11,5.09,5.09,0,0,1,1.16.14,5.38,5.38,0,0,1,3.1,2.07,1,1,0,0,1-1.67,1.09,3.21,3.21,0,0,0-5.17,0,1,1,0,1,1-1.68-1.09Zm-26,13.46a1.27,1.27,0,1,1-2.54,0v-2.84a1.27,1.27,0,0,1,2.54,0Zm2.7-6.21a1,1,0,0,1-1.38-.29,3.21,3.21,0,0,0-5.17,0,1,1,0,0,1-1.68-1.09,5.2,5.2,0,0,1,8.52,0A1,1,0,0,1,132.52,134.09Z"/><path class="cls-6" d="M124.89,183.17l.25-.12a13.2,13.2,0,0,0,2.46-1.71,20.57,20.57,0,0,1-2.54,1.25Z"/><path class="cls-3" d="M111.39,236.32c5.69-2.21,8.52-8.25,8.9-19,.07-2.06.12-3.81.17-5.38a98.56,98.56,0,0,1,1.89-18.81c.35-1.94,1-4.52,1.81-7.44l-1.17.48c-.72,2.64-1.3,5-1.62,6.78l-.14.79h.05a.5.5,0,0,1,.47.53,65.77,65.77,0,0,1-1.21,8c-.19,1.13-.34,2.26-.44,3.38q-.08.92-.13,1.82c-.07,1.28-.1,2.54-.09,3.77v1.6h0V213l0,1.56c0,.21,0,.44,0,.67s0,.48,0,.71c0,.47,0,.95-.08,1.41-.05.94-.15,1.85-.26,2.75s-.25,1.77-.43,2.61q-.13.63-.27,1.25t-.32,1.2c-.14.45-.29.87-.44,1.3-1,3.68-2.64,6.27-4.95,7.86-.38.35-.77.69-1.15,1s-.86.63-1.26.9-.79.49-1.15.69-.76.4-1.06.54l1.46-.54Z"/><path class="cls-4" d="M128.56,136.19a1.26,1.26,0,0,0-1.27,1.27v2.84a1.27,1.27,0,1,0,2.54,0v-2.84A1.27,1.27,0,0,0,128.56,136.19Z"/><path class="cls-4" d="M160.07,136.19a1.27,1.27,0,0,0-1.27,1.27v2.84a1.27,1.27,0,1,0,2.54,0v-2.84A1.27,1.27,0,0,0,160.07,136.19Z"/><path class="cls-4" d="M156.11,128.22a1,1,0,0,0,1.38-.3,3.21,3.21,0,0,1,5.17,0,1,1,0,0,0,1.67-1.09,5.38,5.38,0,0,0-3.1-2.07,5.09,5.09,0,0,0-1.16-.14,5.15,5.15,0,0,0-1.06.11,5.34,5.34,0,0,0-3.2,2.1A1,1,0,0,0,156.11,128.22Z"/><path class="cls-4" d="M128.56,130.49a5.27,5.27,0,0,0-4.26,2.22A1,1,0,0,0,126,133.8a3.21,3.21,0,0,1,5.17,0,1,1,0,0,0,1.67-1.09A5.27,5.27,0,0,0,128.56,130.49Z"/><path class="cls-6" d="M113.16,183.5c14,.31,21.26-5.87,26.65-22.77,1.13-3.55,1-6-.5-7.36-3.51-3.2-13.31.5-15,1.17-.31,1.68-2,10.35-4.36,14.63a11.34,11.34,0,0,1-12.46,5.56c-5.86-1.3-11-5.14-12.66-9.1l0,.11c-.2.49-.37,1-.57,1.5a12.19,12.19,0,0,1-.65,1.37,9.48,9.48,0,0,1-.68,1.05,6.37,6.37,0,0,1-.47.56A26.84,26.84,0,0,0,95.73,175C98.44,178.07,104.31,183.31,113.16,183.5Z"/><path class="cls-3" d="M114.09,184.51a29.7,29.7,0,0,0,9.8-1.48l-.2.7c.39-.17.79-.36,1.2-.56l.17-.58a20.57,20.57,0,0,0,2.54-1.25,33,33,0,0,0,3.1-3,1,1,0,0,1,1.13-.26c3-3,5.25-7.07,7.15-11.91.63-1.61,1.22-3.31,1.79-5.1,1.26-4,1-6.78-.78-8.4a5,5,0,0,0-1.33-.86,8.22,8.22,0,0,0-2.73-.63c-5.1-.39-11.87,2.42-12.25,2.58l-.25.11,0,.27-.06.31c-.06.34-.18,1-.35,1.75a.49.49,0,0,1-.18.86c-.72,3.33-2.06,8.69-3.71,11.67a10.11,10.11,0,0,1-1.23,1.72c0,.19-.06.38-.1.56a11.93,11.93,0,0,1-2.47,1.8,12.89,12.89,0,0,1-1.72.78,14.51,14.51,0,0,1-1.9.53h0l-.18,0-.36,0-.33,0-.19,0-.2,0-.22,0-.51,0H109a12.45,12.45,0,0,1-1.44-.08,14.1,14.1,0,0,1-4-1c-.32-.14-.63-.28-.94-.44s-.61-.32-.9-.5-.58-.36-.86-.55-.54-.4-.8-.6-.51-.42-.75-.64A15.9,15.9,0,0,1,98,169.1q-.3-.35-.58-.71a16.37,16.37,0,0,1-1.73-2.84c-.12-.25-.2-.47-.3-.71h-.22l-.08.17c-.09.2-.18.41-.26.62,1.66,4,6.79,7.79,12.66,9.1A11.34,11.34,0,0,0,120,169.17c2.38-4.28,4.05-12.94,4.36-14.63,1.69-.67,11.49-4.37,15-1.17,1.46,1.34,1.63,3.81.5,7.36-5.4,16.91-12.63,23.08-26.65,22.77-8.85-.19-14.72-5.43-17.43-8.54a26.84,26.84,0,0,1-3.31-4.73l-.08.08-.16.16-.06.05a2.61,2.61,0,0,1-.5.33,27.85,27.85,0,0,0,1.55,2.46c1-.12,2.2,1,2.89,2.65a6.34,6.34,0,0,1,.35,1.17,24.53,24.53,0,0,0,16.74,7.37Z"/><path class="cls-6" d="M139.94,188.88a6,6,0,0,1,1.83-.28,7.29,7.29,0,0,1,4.89,2.07c3.38,3,6.24,13.78,7.58,23.12,1.47,10.28,7,20.33,12.76,23.39s13,4.83,14.57,4.06c.09,0,.13-.09.14-.13.25-1.52-.18-2-5.84-5.76-5.14-3.46-9.58-6.44-9.93-22.73-.07-3-.07-5.92-.07-8.75,0-8,0-15.31-1.36-22.28l-1-.5c-8.4-1.74-16.1-5.33-20.5-9.68Z"/><path class="cls-3" d="M164.51,181.58c1.33,7,1.35,14.26,1.36,22.28,0,2.83,0,5.76.07,8.75.36,16.29,4.79,19.28,9.93,22.73,5.65,3.8,6.09,4.23,5.84,5.76,0,0-.05.08-.14.13-1.55.77-8.72-1-14.57-4.06s-11.3-13.11-12.76-23.39c-1.33-9.34-4.2-20.12-7.58-23.12a7.29,7.29,0,0,0-4.89-2.07,6,6,0,0,0-1.83.28L143,171.4c4.4,4.35,12.1,7.94,20.5,9.68a25.18,25.18,0,0,1-2.71-1.6l-.06-.07c-8.5-2.25-15.86-6.38-19-11.1-4.13-6.2,8.92-15.57,10.44-16.63l11.72,1c-.13,1.7-.43,7.18.75,10.12A13,13,0,0,0,178.33,171c8.73-.73,10.87-8.53,11.81-16.07.13-1.06.25-2,.35-2.88.67-5.65.9-7.56,3.2-12.72q.12-.27.27-.55c-.39.61-.77,1.26-1.13,1.93a26.23,26.23,0,0,0-1.86,4.52c-.25.81-.46,1.63-.64,2.47s-.31,1.7-.41,2.57c-.05.44-.08.94-.12,1.41l0,.61,0,.54,0,.27v0c0,.13,0,.16,0,.16h0v.19l0,.47c0,.31,0,.63,0,.93,0,.62-.09,1.23-.17,1.84s-.16,1.21-.26,1.8-.21,1.17-.34,1.74-.29,1.12-.46,1.65a19.71,19.71,0,0,1-1.22,2.95,12,12,0,0,1-1.56,2.32,10.9,10.9,0,0,1-1.74,1.6,9.09,9.09,0,0,1-3.64,1.57,10.56,10.56,0,0,1-1.61.17h-.35a9,9,0,0,1-2-.29c-.23-.06-.46-.15-.69-.23a12,12,0,0,1-10-7.59,16.49,16.49,0,0,1-.78-5.19h-.31a.5.5,0,0,1,0-1h.3c0-.81,0-1.56,0-2.19,0-1,.11-1.75.11-1.77l0-.5-13.08-1.06-.15.1c-.1.07-.54.37-1.2.86a47,47,0,0,0-5.81,5.07h-.16l0,.23c-2.65,2.82-4.93,6.24-4.58,9.41a5.66,5.66,0,0,0,.93,2.57,15.33,15.33,0,0,0,1.27,1.61l-3.35,19.14-.19,1.11,1-.6a3.62,3.62,0,0,1,.72-.32,10.56,10.56,0,0,0-3.78,4c-1.85,3.35-2.62,9.62-3.44,16.27-.9,7.33-1.83,14.91-4.26,18.9-4.94,8.12-10.24,12-17.73,12.83-4.7.55-6.12-.49-6.44-.79.06-1.48,1.14-2.38,2.63-3.1a3.24,3.24,0,0,0-3,4.07,7.45,7.45,0,0,0,4.35,1,22.28,22.28,0,0,0,2.59-.16c7.82-.92,13.35-4.9,18.46-13.31,2.54-4.17,3.48-11.86,4.4-19.29.81-6.55,1.57-12.73,3.32-15.91a9.58,9.58,0,0,1,5.47-4.59,7,7,0,0,1,3.14,1.71c2.72,2.42,5.7,11.68,7.25,22.52,1.28,9,6.38,20.49,13.29,24.13,4.33,2.28,10.64,4.34,13.91,4.34a3.66,3.66,0,0,0,1.57-.27l0,0a3.25,3.25,0,0,0,.14-.91c.32-1.9-.5-2.52-6-6.26-.52-.35-1-.69-1.51-1-.33-.23-.64-.47-1-.71a15.56,15.56,0,0,1-6-9.27q-.22-.85-.41-1.79a56.81,56.81,0,0,1-.88-9.52v-1.38c0-1.2,0-2.42-.08-3.67,0-2.86,0-5.66,0-8.39h0c0-3.44-.2-5.47-.2-5.49a.5.5,0,0,1,.46-.54h.1a80.71,80.71,0,0,0-1.1-11.07Z"/><path class="cls-6" d="M190.5,152c-.1.87-.22,1.82-.35,2.88-.94,7.54-3.08,15.34-11.81,16.07a13,13,0,0,1-13.71-8.23c-1.17-2.93-.87-8.42-.75-10.12l-11.72-1c-1.52,1.06-14.58,10.44-10.44,16.63,3.15,4.72,10.5,8.85,19,11.1a1,1,0,0,1,1.22-1.56,29.14,29.14,0,0,0,5.88,2.95c1.33.17,2.66.3,4,.36,11.2.55,19.17-3,24.33-10.69,3.72-5.58,3.66-15.89,3.63-20.84v-1.14c0-4.91.76-7.33,4.09-13a14.4,14.4,0,0,1,4.82-4.74l-1.14-3.46a38.93,38.93,0,0,0-4.27,2.4l-.12.08a45.68,45.68,0,0,0-5.88,4.81,27.5,27.5,0,0,0-3.31,4.17q-.15.28-.27.55C191.4,144.47,191.17,146.38,190.5,152Z"/><path class="cls-3" d="M203.86,135.5c-3.33,5.65-4.09,8.08-4.09,13v1.14c0,5,.08,15.26-3.63,20.84-5.16,7.74-13.13,11.24-24.33,10.69-1.33-.07-2.67-.2-4-.36a30.15,30.15,0,0,0,4.93,1.39c.43,0,.87,0,1.3,0,10.4,0,17.91-3.67,22.92-11.19,3.89-5.83,3.83-16,3.8-21.4v-1.14c0-4.68.74-7,4-12.48a13.28,13.28,0,0,1,4.28-4.27l-.32-1A14.4,14.4,0,0,0,203.86,135.5Z"/><path class="cls-3" d="M199.33,132.61q-.68.59-1.37,1.26c-.23.22-.46.48-.69.72a45.68,45.68,0,0,1,5.88-4.81A34.75,34.75,0,0,0,199.33,132.61Z"/><path class="cls-2" d="M92.16,122.59v-11a3.45,3.45,0,0,1,.23-.79l.15.19a5.92,5.92,0,0,0,5.1,2.63c3.31,0,6.84-2.21,6.84-8.41,0-5.11-2.56-8.16-6.84-8.16a6,6,0,0,0-5.07,2.48l-.16.19a3.72,3.72,0,0,1-.26-.88V94.4a5.13,5.13,0,0,0-5.1-5.14H79a2.79,2.79,0,0,1-.84-.37c.11-.12.28-.28.42-.4a6.53,6.53,0,0,0,2.46-5.2c0-3.19-2.23-6.59-8.49-6.59h0c-7.44,0-8.24,4.61-8.24,6.59a6.68,6.68,0,0,0,2.24,5.14c.14.14.32.32.42.44a2.8,2.8,0,0,1-.87.39H58.76a5.14,5.14,0,0,0-5.1,5.14v6.07a7.56,7.56,0,0,0,1.65,5.21A4.81,4.81,0,0,0,57,106.85,4.82,4.82,0,0,0,55.28,108a7.28,7.28,0,0,0-1.61,5v9.52a5.13,5.13,0,0,0,5.1,5.14H65.6q.59-1,1.22-2h-8a3.12,3.12,0,0,1-3.1-3.14V113s-.33-4.57,3.47-4.57c2.4,0,2.54,3.22,5.69,3.22,1.57,0,3.17-1.64,3.17-4.9S66.41,102,64.84,102c-3.15,0-3.3,3.23-5.7,3.23-3.8,0-3.47-4.73-3.47-4.73V94.4a3.14,3.14,0,0,1,.59-1.83,3.08,3.08,0,0,1,2.51-1.31h7.59s2.71-.47,2.71-2.38-2.71-2-2.71-5.59c0-1.77.74-4.59,6.24-4.59s6.49,2.82,6.49,4.59c0,3.56-3,3.68-3,5.59s2.71,2.38,2.71,2.38h8.21a3.12,3.12,0,0,1,3.1,3.14V99s.31,3,2.22,3,1.71-2.87,5.27-2.87c1.78,0,4.84.66,4.84,6.16s-3.06,6.41-4.84,6.41c-3.56,0-3.36-3-5.27-3s-2.22,2.87-2.22,2.87v11.14a3.12,3.12,0,0,1-3.1,3.14h-3c.67.67,1.4,1.34,2.16,2h.82A5.13,5.13,0,0,0,92.16,122.59ZM63,105.15c.76-.84,1.06-1.12,1.79-1.12a.8.8,0,0,1,.59.36,3.86,3.86,0,0,1,.58,2.38,4.18,4.18,0,0,1-.61,2.49c-.22.3-.43.4-.56.4-.73,0-1-.27-1.79-1.11a6.65,6.65,0,0,0-2.06-1.7A6.65,6.65,0,0,0,63,105.15Z"/><path class="cls-2" d="M74.27,118.61l-.29-.3c-.78-.8-1.15-1.22-1.15-2.05,0-.43.89-1.51,3-1.51,2.29,0,3.18,1.21,3.2,1.51,0,.85-.36,1.27-1.12,2.07l-.08.08.12,0a4.18,4.18,0,0,1,1.54,1.11,4.5,4.5,0,0,0,1.53-3.3c0-1.57-1.94-3.51-5.2-3.51s-5,1.94-5,3.51a4.48,4.48,0,0,0,1.61,3.34A9.53,9.53,0,0,1,74.27,118.61Z"/><path class="cls-6" d="M91,208.3c6.93-.6,13.79-7.53,18.33-12.12l1.13-1.14c3.48-3.48,3.67-5.16,3.62-5.64l-4.8-1.8c-1.84,2.06-3.54,4-5,5.77-5.45,6.31-9.38,10.88-13.51,12.23-3.95,1.3-8.56-.25-11.61-1.27l-1.33-.43a4.72,4.72,0,0,1-.38.87,5.62,5.62,0,0,1-.89,1.15C80,207.09,86,208.74,91,208.3Z"/><path class="cls-3" d="M91.08,209.3c7.3-.63,14.31-7.72,19-12.41l1.13-1.14c4.73-4.73,4-6.64,3.76-7a.5.5,0,0,0-.25-.21l-1.73-.65a39.38,39.38,0,0,1-4.69-.65c-1.73,1.95-3.34,3.81-4.77,5.46a84.32,84.32,0,0,1-9,9.5c-.21.19-.42.39-.63.56q-.83.7-1.66,1.29a19.31,19.31,0,0,1-1.65,1.06,10.12,10.12,0,0,1-3.18.47c-3.59,0-7.26-1.5-9.5-2.19a4.32,4.32,0,0,1-.11.49l1.33.43c3.05,1,7.67,2.57,11.61,1.27,4.13-1.36,8.06-5.92,13.51-12.23,1.5-1.74,3.2-3.71,5-5.77l4.8,1.8c0,.48-.14,2.15-3.62,5.64l-1.13,1.14c-4.54,4.59-11.4,11.52-18.33,12.12-5,.44-11-1.21-14.49-2.37l-.15.15.1.9a43.62,43.62,0,0,0,12.79,2.39C89.87,209.38,90.48,209.35,91.08,209.3Z"/><path class="cls-4" d="M69.33,199a8.94,8.94,0,0,1,1-.22l-.28-2.6a9.31,9.31,0,0,1-3.37-16.49l.7,6.93a1.39,1.39,0,0,0,1.39,1.25h.14l1.79-.18h0l3.26-.33a1.4,1.4,0,0,0,1.25-1.53l-.7-6.94a9.33,9.33,0,0,1-.12,16.9l.34,3.33a5.48,5.48,0,0,1,1.06.52l-.05-.53-.28-2.73a10.4,10.4,0,0,0,3.05-2.54A10.32,10.32,0,0,0,74.93,178h0a10.36,10.36,0,0,0-1.34-.53,1.47,1.47,0,0,0-.44-.07H73a1.48,1.48,0,0,0-1,.53,1.46,1.46,0,0,0-.32,1.07l.72,7.11a.4.4,0,0,1-.35.43l-1.47.15h0l-1.79.18h0a.4.4,0,0,1-.43-.35l-.7-6.93h0l0-.18a1.46,1.46,0,0,0-1.46-1.32H66a1.46,1.46,0,0,0-.56.18,10.34,10.34,0,0,0,2,18.91l.25,2.52a6.19,6.19,0,0,1,1-.47C68.88,199.18,69.1,199.1,69.33,199Z"/><path class="cls-2" d="M76.07,212.66l-.64-5.83a9.06,9.06,0,0,1-3.11,1.38c-.34.07-.65.12-1,.17l.51,4.71a9.33,9.33,0,0,0-.12,16.9L71,223a1.39,1.39,0,0,1,1.25-1.53l1.79-.18h0l3.26-.33h.14a1.39,1.39,0,0,1,.5.09,1.39,1.39,0,0,1,.88,1.16l.7,6.93a9.32,9.32,0,0,0-3.5-16.53Z"/><path class="cls-2" d="M211,105.26l-.28-.85L209,105l-5.74,4.85a.91.91,0,0,1-.31.17l.52,1.58,7.29-6.17A.92.92,0,0,1,211,105.26Z"/><polygon class="cls-2" points="202.03 107.28 202.33 108.2 204.3 106.53 202.03 107.28"/><polygon class="cls-2" points="212.98 111.16 212.76 110.48 211.31 111.7 212.98 111.16"/><path class="cls-2" d="M204.35,113.25a.91.91,0,0,1-.31.17l.2.61,2.38-.78,5.22-4.42a.92.92,0,0,1,.31-.17l-.52-1.57Z"/><polygon class="cls-2" points="207.56 124.13 207.91 125.18 210.16 123.28 207.56 124.13"/><path class="cls-2" d="M212.33,128.21l-2.39,2a.91.91,0,0,1-.31.17l.52,1.58,2.31-2A4.62,4.62,0,0,1,212.33,128.21Z"/><path class="cls-2" d="M216.31,122.41a.92.92,0,0,1,.31-.17l-.32-1-1.46.48-6,5.1a.91.91,0,0,1-.31.17l.52,1.58Z"/><path class="cls-2" d="M213.37,131.67l-2.32,2a.91.91,0,0,1-.31.17l.52,1.58,3.29-2.78A5,5,0,0,1,213.37,131.67Z"/><rect class="cls-2" x="204.83" y="113.4" width="10.4" height="8.64" transform="translate(-26.25 71.42) rotate(-18.18)"/><rect class="cls-2" x="199.3" y="96.55" width="10.4" height="8.64" transform="translate(-21.26 68.84) rotate(-18.18)"/><path class="cls-3" d="M219.82,119.05h0a2,2,0,0,0,1.3-2.57l-1.42-4.33a2,2,0,0,0-2.57-1.3l-2.54.84,2.69,8.21Z"/><path class="cls-3" d="M214.28,102.2a2,2,0,0,0,1.3-2.57l-1.42-4.33a2,2,0,0,0-2.57-1.3l-2.54.84,2.69,8.21Z"/><path class="cls-2" d="M232.9,198.09l.51,2.5a1.72,1.72,0,0,1,.56-.23l3.59-.73a1.71,1.71,0,0,1,.48,0l-1.36-6.11Z"/><path class="cls-2" d="M234.89,185.48,231.45,170a4.67,4.67,0,0,0-3.16,5.37l2.92,14.39Z"/><path class="cls-3" d="M226.87,196.39a1.72,1.72,0,0,1,.26.17l2.82,2.33a1.72,1.72,0,0,1,.47.63l16.43-19.94a4.68,4.68,0,0,0-.27-6.23Zm7.32-2.84a1.91,1.91,0,1,1,1.72-2.09A1.91,1.91,0,0,1,234.19,193.55Z"/><circle class="cls-4" cx="234.01" cy="191.65" r="1.91" transform="translate(-17.31 23.35) rotate(-5.51)"/><path class="cls-3" d="M101,139.21l-.61-.36-.1-.06-.06-.1a1.46,1.46,0,0,0-.67-.61,1.25,1.25,0,0,0-.46-.09H99l-.12-.07c-7-4.25-15.95-10.48-19.11-16a6.65,6.65,0,0,0-.54-1.09,3.47,3.47,0,0,0-1.61-1.42c-1.7-.69-4.08.27-6.51,2.65a31.82,31.82,0,0,0-6.73,10.62c-3.53,8.67-3.42,17.26.23,18.74h0a4.47,4.47,0,0,0,3.84-.58l.13-.05c6.18-1.49,16.45.23,24,1.94l.17,0,.11.14a1.37,1.37,0,0,0,.56.44,1.63,1.63,0,0,0,1.2-.05l.14-.05.15,0,.57.14c1.61-1,3.36-3.28,4.57-6.24S101.58,141,101,139.21ZM79.42,131.1l0,.22c0,.05,0,.11,0,.17-.07.47-.16.94-.26,1.42V133q-.16.73-.37,1.49l-.06.23q-.19.66-.42,1.34l-.1.3c-.18.52-.37,1-.59,1.57s-.43,1-.66,1.5l-.17.35q-.28.58-.58,1.14l-.17.32q-.35.64-.72,1.24l-.07.11q-.42.67-.87,1.29l0,0-.13.18h0a19,19,0,0,1-2,2.34c-1.67,1.63-3.31,2.47-4.74,2.47a3.29,3.29,0,0,1-1.25-.24c-1.68-.68-2.65-2.74-2.73-5.78a28.2,28.2,0,0,1,7.47-18.38c2.18-2.12,4.31-2.92,6-2.23,2.3.93,3.16,4.41,2.54,8.85Z"/><path class="cls-3" d="M113.5,152.63a11.14,11.14,0,0,0,.91-4.3c0-1.08-.33-1.84-.82-2l-2.24-.91a17.71,17.71,0,0,1-4.45,10.94l2.24.91C110.15,157.64,112.19,155.85,113.5,152.63Z"/><path class="cls-4" d="M76.88,122.24c-1.68-.68-3.81.11-6,2.23a28.2,28.2,0,0,0-7.47,18.38c.08,3,1,5.1,2.73,5.78a3.29,3.29,0,0,0,1.25.24c1.43,0,3.07-.85,4.74-2.47a19,19,0,0,0,2-2.34h0l.13-.18,0,0q.44-.62.87-1.29l.07-.11q.37-.6.72-1.24l.17-.32q.3-.56.58-1.14l.17-.35c.23-.49.45-1,.66-1.5s.41-1.05.59-1.57l.1-.3q.23-.68.42-1.34l.06-.23q.21-.75.37-1.49v-.06c.1-.48.19-1,.26-1.42,0-.05,0-.11,0-.17l0-.22h0C80,126.65,79.18,123.17,76.88,122.24Zm-.26,15.27a28.45,28.45,0,0,1-3,5.58l-.09,0c-.8-.32-1-3,.47-6.62a13.68,13.68,0,0,1,2.41-4,2.83,2.83,0,0,1,1.67-1.08.54.54,0,0,1,.2,0l.08,0A28.41,28.41,0,0,1,76.62,137.51Z"/><path class="cls-2" d="M78.08,131.34a2.83,2.83,0,0,0-1.67,1.08,13.68,13.68,0,0,0-2.41,4c-1.47,3.62-1.26,6.29-.47,6.62l.09,0a29.52,29.52,0,0,0,4.74-11.67l-.08,0A.54.54,0,0,0,78.08,131.34Z"/><path class="cls-2" d="M218.53,123.33l-.45.15-.41.14a9.93,9.93,0,0,0-4,2.67.5.5,0,0,1,.08.57,4.31,4.31,0,0,0-.18,3.34c.49,1.07,1.62,1.82,3.37,2.25a.5.5,0,0,1,.37.6l0,.06a.5.5,0,0,1-.46.32h-.12l-.2-.06L212.16,137a.91.91,0,0,1-.28.16,2.53,2.53,0,0,0,3,1.23l3.91-1.29a2.54,2.54,0,0,0,1.62-3.2l-.24-.73a8.16,8.16,0,0,0,1-.2,6.34,6.34,0,0,0,1.84-.77c3.28-2.12,2.93-7.63-1.76-9.19A5.42,5.42,0,0,0,218.53,123.33Z"/><path class="cls-2" d="M209.22,200.55a.49.49,0,0,1-.1.47s-2.33,2.6-1.68,4.83c.37,1.26,1.66,2.21,3.81,2.84a14.68,14.68,0,0,0,2.06.05l0,0,0,0a12.09,12.09,0,0,0,2.27-.31,6.22,6.22,0,0,0,2.4-1.08,3.18,3.18,0,0,0,1.05-1.37c.87-2.31-.38-4.1-2.3-5.17a9.31,9.31,0,0,0-4.9-1.12,5.94,5.94,0,0,0-1.78.35A3.77,3.77,0,0,0,209.22,200.55Z"/><path class="cls-2" d="M91.43,163.25c2.61.79,4.28.82,5.43.12a4.64,4.64,0,0,0,1.83-3.23C98.25,158,96.14,156,94,155a6.19,6.19,0,0,0-2.08-.54,5.75,5.75,0,0,0-4.69,2.71.5.5,0,0,1,.17.53C87.32,157.87,86.34,161.71,91.43,163.25Z"/><path class="cls-2" d="M65.83,203.63a4.1,4.1,0,0,0,1.29,3c1.07.89,2.75,1.09,5,.6a7,7,0,0,0,4.41-2.95,3.58,3.58,0,0,0,.25-3,.5.5,0,0,1,.14-.53,4,4,0,0,0-1.15-1.09,5.48,5.48,0,0,0-1.06-.52l-.34-3.33a9.33,9.33,0,0,0,.12-16.9l.7,6.94a1.4,1.4,0,0,1-1.25,1.53l-3.26.33h0l-1.79.18h-.14a1.39,1.39,0,0,1-1.39-1.25l-.7-6.93A9.32,9.32,0,0,0,70,196.21l.28,2.6a8.94,8.94,0,0,0-1,.22c-.23.07-.46.14-.67.23a6.19,6.19,0,0,0-1,.47,5,5,0,0,0-.45.29,5.61,5.61,0,0,0-1.77,3.13A.49.49,0,0,1,65.83,203.63Z"/></svg>