<svg id="Layer_1" data-name="Layer 1" xmlns="http://www.w3.org/2000/svg" viewBox="0 0 300 300"><defs><style>.cls-1{fill:none;}.cls-2{fill:#d9ebff;}.cls-3{fill:#fff;}.cls-4{fill:#59acff;}.cls-5{fill:#f9f9fa;}.cls-6{fill:#fffefe;}.cls-7{fill:#e1e1e6;}</style></defs><title>Onvoarding-</title><path class="cls-1" d="M153.31,204.88a2.56,2.56,0,0,1,1.16-1.09l.07,0,.19-.08-1.67-.63a3.14,3.14,0,0,1,.21,1.16A5,5,0,0,0,153.31,204.88Z"/><path class="cls-1" d="M262.92,168.86l.79-.27a3.58,3.58,0,0,1,.33-1.85,12.45,12.45,0,0,1-5.2,4.08l.18.09.6-.4A17.9,17.9,0,0,1,262.92,168.86Z"/><path class="cls-1" d="M157.57,199.31l.26.2a2.54,2.54,0,0,1,.11-.23Z"/><path class="cls-1" d="M180.91,215.28q.06-1.06.19-2.14a16.34,16.34,0,0,1-2.3.28c.69.65,1.38,1.27,2.08,1.87Z"/><path class="cls-1" d="M146.47,163.59l2.27-.7q-1.12-2.38-2.27-4.52Z"/><path class="cls-1" d="M204.48,236.32c.73,2.5,1.26,4.45,1.62,6,2.94-.16,6-.28,9.22-.35,0-.59,0-1.22,0-1.91l-3.8-1.1a5,5,0,0,1-3-2.4c0-.07-.06-.15-.1-.23l-1.25,0C206.27,236.37,205.37,236.35,204.48,236.32Z"/><path class="cls-1" d="M162,207.47a5,5,0,0,0,.36-.5q-.55-.91-1.09-1.83l-.19.51a2.58,2.58,0,0,1-1.15,1.51l-.2.11-.5.23.69,1.39A5,5,0,0,0,162,207.47Z"/><path class="cls-1" d="M163.16,203.88c0-.08,0-.15,0-.22a16.27,16.27,0,0,1-.65-1.86l-.34.9q.49.88,1,1.75A5,5,0,0,0,163.16,203.88Z"/><path class="cls-1" d="M156.69,208.62a2,2,0,0,1-.44.14,4.81,4.81,0,0,0,2.62.36l-.61-1.22Z"/><path class="cls-1" d="M155.6,179.42a11.25,11.25,0,0,1-3,3c1.42,3.47,2.92,7,4.54,10.47.37,0,.74-.08,1.11-.08a11.26,11.26,0,0,1,3.93.71l0,0c0-.15.06-.3.1-.44Q158.84,186.86,155.6,179.42Z"/><path class="cls-1" d="M182.17,225.82l.36-.48a18.21,18.21,0,0,1-1-3.06,2,2,0,0,1-.49.07h-.15a2,2,0,0,1-.65.34l-1.66.5Q180.29,224.59,182.17,225.82Z"/><path class="cls-1" d="M218.42,74.27c-.11-.28-2.72-6.84-9.27-5.95a5.05,5.05,0,0,0-4,2.29,4.24,4.24,0,0,0-.38,1,5.89,5.89,0,0,1,4-1.93c7-1,9.8,6.26,9.8,6.26a5.37,5.37,0,0,1,.55-1.38.47.47,0,0,1-.14.06A.5.5,0,0,1,218.42,74.27Z"/><path class="cls-1" d="M169.29,210.91a16.25,16.25,0,0,1-1.45-1q-.29.48-.63.94a68.2,68.2,0,0,0,5.7,7.1,4.81,4.81,0,0,1,1.17-.55,2,2,0,0,1,.58-.09h.15a2,2,0,0,1,.65-.34l2.75-.83a2,2,0,0,1,.58-.09h.15a2,2,0,0,1,.65-.34l.17,0q-1.2-1.06-2.38-2.21A16.12,16.12,0,0,1,169.29,210.91Z"/><path class="cls-2" d="M220.52,251.54a4.84,4.84,0,0,1-3-1.05c-1.37-1.08-2.06-2.06-2.18-8.5-3.19.07-6.28.19-9.22.35,1,4.49.68,5.68-.24,7a4.78,4.78,0,0,1-3.9,2c-2.89,0-5.16-2.25-9.86-7.71-9.92,1.27-16.21,3.15-16.21,5.25,0,3.82,20.74,6.92,46.33,6.93s46.33-3.08,46.34-6.91c0-3.38-16.26-6.2-37.74-6.81a5,5,0,0,1-2.26,1.2C226.26,248.81,223.62,251.54,220.52,251.54Z"/><polygon class="cls-3" points="236.49 179.09 236.49 179.09 236.49 179.09 236.49 179.09"/><polygon class="cls-3" points="231.61 193.97 231.61 193.97 231.61 193.97 231.61 193.97"/><path class="cls-3" d="M232.85,190.47l.22-.52,0,0Z"/><path class="cls-3" d="M194.72,240.58h0l.72.83-.72-.83Z"/><path class="cls-3" d="M236.78,193.51h0Z"/><polygon class="cls-3" points="257.75 110.14 257.75 110.14 257.75 110.14 257.75 110.14"/><path class="cls-3" d="M209.74,129.44a3.12,3.12,0,0,1-.53-2.87,3.12,3.12,0,0,0,.53,2.87c-.14.78-.26,1.57-.34,2.38h0C209.48,131,209.6,130.22,209.74,129.44Z"/><path class="cls-3" d="M197.46,125.31c-.09.53-.15,1.06-.2,1.58h0c0-.52.11-1.05.2-1.58a2.16,2.16,0,0,1-.19-.16A2.16,2.16,0,0,0,197.46,125.31Z"/><path class="cls-3" d="M197.26,126.89c0,.12,0,.23,0,.35,0-.11,0-.23,0-.35Z"/><path class="cls-3" d="M185.48,211.6l0,.16,0-.16Z"/><path class="cls-3" d="M218.57,113q-.48.46-.94.93a6.47,6.47,0,0,0-2.09.79,6.47,6.47,0,0,1,2.09-.79Q218.09,113.48,218.57,113Z"/><path class="cls-3" d="M182.33,214.85a2,2,0,0,1,.58-.09H183c.06-.73.15-1.46.27-2.21a16.12,16.12,0,0,1-2.16.58q-.14,1.08-.19,2.14Z"/><path class="cls-3" d="M235.18,229.6A78.91,78.91,0,0,0,247.37,224a53.12,53.12,0,0,1-11.7,3.94Z"/><path class="cls-3" d="M202.71,185.54q-.72.57-1.41,1.16h0Q202,186.12,202.71,185.54Z"/><path class="cls-3" d="M226,107.16a6.55,6.55,0,0,0-1-.08h0a6.46,6.46,0,0,0-.86.08,6.46,6.46,0,0,1,.87-.08A6.54,6.54,0,0,1,226,107.16Z"/><path class="cls-3" d="M223.91,107.18a6.5,6.5,0,0,0-5.19,5A6.5,6.5,0,0,1,223.91,107.18Z"/><path class="cls-3" d="M260.39,191.33a13.59,13.59,0,0,1-3.44,4.76h0A13.52,13.52,0,0,0,260.39,191.33Z"/><path class="cls-3" d="M242.36,169l-1,0h0Z"/><path class="cls-3" d="M252.27,167.58a8.29,8.29,0,0,1-.93-.22l-.08,0,.08,0A8.32,8.32,0,0,0,252.27,167.58Z"/><path class="cls-3" d="M260.75,164a8.23,8.23,0,0,1-3.5,3A8.23,8.23,0,0,0,260.75,164Z"/><path class="cls-3" d="M249.62,105.35a6.53,6.53,0,0,0-1.61.72h0A6.53,6.53,0,0,1,249.62,105.35Z"/><path class="cls-3" d="M273.95,135.59a6.54,6.54,0,0,0-1.25-1.34h0A6.54,6.54,0,0,1,273.95,135.59Z"/><path class="cls-3" d="M252.33,198.83c-.36.13-.71.26-1.1.38h0c.37-.11.73-.23,1.08-.36Z"/><path class="cls-3" d="M207,232.34h0Z"/><path class="cls-3" d="M275.12,139.3a6.55,6.55,0,0,0-.24-1.73,6.56,6.56,0,0,1,.24,1.73Z"/><path class="cls-3" d="M267,155.6c-.12.17-.23.35-.36.52a5.77,5.77,0,0,1-.92,2.73,5.77,5.77,0,0,0,.92-2.73C266.75,156,266.86,155.78,267,155.6Z"/><path class="cls-3" d="M198.4,231.8v0Z"/><path class="cls-3" d="M227,231.91h0v0Z"/><path class="cls-3" d="M238.91,103.07h0a6.42,6.42,0,0,1,.72,0A6.43,6.43,0,0,0,238.91,103.07Z"/><path class="cls-3" d="M211,124.6c.31-.87.68-1.72,1.07-2.55C211.7,122.88,211.33,123.72,211,124.6Z"/><path class="cls-3" d="M228.69,106.67a29.76,29.76,0,0,1,3.57-1.09A29.75,29.75,0,0,0,228.69,106.67Z"/><path class="cls-3" d="M212.37,120.33h0a6.46,6.46,0,0,1,.88-3.26A6.46,6.46,0,0,0,212.37,120.33Z"/><path class="cls-3" d="M262.26,205.68h0l-.57-.07Z"/><path class="cls-3" d="M254.73,183.15a25.69,25.69,0,0,1-2.39,1l-.72.25-.27.08a2.25,2.25,0,0,1-.59.08,2.19,2.19,0,0,1-1.53-.61c-5.71,3-12.31,6.07-14.46,7.07l-.22.54q1.14-.08,2.23-.08a22.35,22.35,0,0,1,14.94,5.43,11.52,11.52,0,0,0,7.11-7.17,2,2,0,0,1,1.64-1.49l.3,0a2,2,0,0,1,1.71,1,18.44,18.44,0,0,1,2.09,6.42,13.7,13.7,0,0,1,2.61.87,21,21,0,0,0-2.57-8.67,4.24,4.24,0,0,0-7.74,1.17,9.07,9.07,0,0,1-4.58,5.11,25.47,25.47,0,0,0-5.76-3.28,22.46,22.46,0,0,0-3.81-1.19c4.56-2.21,9-4.48,12.37-6.39l-.17-.21Z"/><path class="cls-3" d="M270.89,157.54c.36-.53.72-1.07,1.05-1.62a10.84,10.84,0,0,0,6.09-11l0-.22a10.63,10.63,0,0,0,1.49-6.9,10.76,10.76,0,0,0-2.55-5.73,36.13,36.13,0,0,0-1.21-5.51c0-.31,0-.63,0-.94a10.78,10.78,0,0,0-4.77-8.92,36.65,36.65,0,0,0-9.49-9.51,10.72,10.72,0,0,0-13.7-5.84c-.71-.18-1.41-.33-2.12-.47a10.71,10.71,0,0,0-13.37.17,34.12,34.12,0,0,0-5.55,1.69A10.74,10.74,0,0,0,215,110.18a10.75,10.75,0,0,0-6.67,9.94s0,.1,0,.15q-.29.64-.56,1.28a7.38,7.38,0,0,0-1.07,1.05,14.21,14.21,0,0,0-1.94-5.63l-.58-1.17a4.64,4.64,0,0,0-4.16-2.65c-3.43,0-5,3.43-5.55,4.73-.86,1.9-2.06,5.32-1.2,8-.35,3.34.19,5.8,1.59,7.32q.14.87.33,1.65c-7.5,3-23.67,10-29.34,17.39-1.67,2.17-2,5.13-.93,8.8,2.29,8,9.5,16.37,13.94,18a72.84,72.84,0,0,0,20.23,3.84c-3.67,1.44-6.62,2.64-9,3.66a16.91,16.91,0,0,1,1.45,1.94c2.29-1,5.1-2.11,8.56-3.46a60.29,60.29,0,0,1,5.38-4.05l-1.76,0c-8.85,0-17.71-1.4-24.29-3.84-4.62-1.71-10.88-10.67-12.56-16.54-.85-2.94-.66-5.24.55-6.81,5.06-6.57,20.45-13.66,30.33-17.43a17.54,17.54,0,0,1-1-4.1l-.1-.07c-1.29-1-1.73-3.15-1.3-6.41-1-2,.31-5.38,1-6.84,1.06-2.35,2.14-3.4,3.5-3.4A2.38,2.38,0,0,1,202,117l.59,1.18c1.06,2.1,1.94,3.85,1.64,5.64a7.67,7.67,0,0,1,1.29,3.06,16.08,16.08,0,0,1,1.66,1.57,5.15,5.15,0,0,1,2.25-5.27c.29-.76.62-1.51,1-2.26,0-.21,0-.4,0-.6a8.51,8.51,0,0,1,6.25-8.19l.07-.07a8.5,8.5,0,0,1,10.13-6.8,31.81,31.81,0,0,1,6.32-1.93,8.47,8.47,0,0,1,11.38-.15,32.14,32.14,0,0,1,3.26.72,8.48,8.48,0,0,1,11.69,4.94,34.24,34.24,0,0,1,9.74,9.68,8.46,8.46,0,0,1,4.12,7.28,8.12,8.12,0,0,1-.08,1.15,33.81,33.81,0,0,1,1.36,6.3,8.48,8.48,0,0,1,.81,11.13,8.25,8.25,0,0,1,.18,1,8.53,8.53,0,0,1-5.41,9c-.51.86-1.05,1.7-1.63,2.51a7.74,7.74,0,0,1-5.13,6.18,10.2,10.2,0,0,1-11,6.6,5.14,5.14,0,0,1-7.68,1.22,34.12,34.12,0,0,1-3.62.22c-.4,1.74-.9,3.47-1.47,5.17,7.31-1.72,15.14-3.42,16.14-3.48h.29l.42,0,.36-.29.56-.44.52-.4c.38-.29.72-.53,1-.76l-.18-.09a12.45,12.45,0,0,0,5.2-4.08l0,0a3.8,3.8,0,0,1,.58-.85,12.31,12.31,0,0,0,.7-1.28A9.9,9.9,0,0,0,270.89,157.54Z"/><path class="cls-3" d="M271.42,199.47a3.7,3.7,0,0,1,3.53-.94l.12,0a4.24,4.24,0,0,0-5-.63l-.2.18A13.66,13.66,0,0,1,271.42,199.47Z"/><path class="cls-3" d="M273.9,212.93c.29-.49.56-1,.8-1.48a3.69,3.69,0,0,1-1.21.73A3.71,3.71,0,0,1,273.9,212.93Z"/><path class="cls-3" d="M253.57,222.48c-2.11,1.4-4.45,2.82-7,4.18a44,44,0,0,0,4.17-2h.19a32.49,32.49,0,0,0,9.13-1.23,13.71,13.71,0,0,1-4.26-1.19Q254.72,222.38,253.57,222.48Z"/><path class="cls-3" d="M248.36,170.06l-.27,0h0Z"/><path class="cls-3" d="M264.37,203.51h0v0Z"/><path class="cls-3" d="M248.67,170a3.1,3.1,0,0,0,.94-.35A3.1,3.1,0,0,1,248.67,170Z"/><path class="cls-3" d="M254.34,167.73l-.5,0h0Z"/><path class="cls-3" d="M183.91,223.47a16.79,16.79,0,0,1-.51-1.76l-1.83.55h-.09a18.21,18.21,0,0,0,1,3.06Z"/><path class="cls-3" d="M251.43,105.09c-.19,0-.38,0-.57,0,.19,0,.38,0,.58,0Z"/><path class="cls-3" d="M243.59,105.07a29.83,29.83,0,0,1,4,.87A29.81,29.81,0,0,0,243.59,105.07Z"/><path class="cls-3" d="M217.5,250.49a4.84,4.84,0,0,0,3,1.05c3.1,0,5.73-2.73,8-8.31a4.92,4.92,0,0,1-1.12.14,5,5,0,0,1-1.4-.2h0c-1.37,3.14-3.34,6.34-5.69,6.34a2.62,2.62,0,0,1-1.64-.57c-.7-.55-1.29-1-1.33-8.27l-2-.59c0,.68,0,1.32,0,1.91C215.44,248.43,216.13,249.41,217.5,250.49Z"/><path class="cls-3" d="M220.31,247.51h-.12Z"/><path class="cls-3" d="M201.74,247.24h0Z"/><path class="cls-3" d="M224.06,242.61h0l-.14.32Z"/><path class="cls-3" d="M202,251.27a4.78,4.78,0,0,0,3.9-2c.93-1.27,1.28-2.46.24-7-.36-1.56-.89-3.51-1.62-6,.89,0,1.78,0,2.67,0l1.25,0a5,5,0,0,1-.32-.79c-2.18-.14-4.41-.38-6.67-.75,3.56,11.79,3.07,12.47,2.42,13.37a2.56,2.56,0,0,1-2.09,1.07c-1.9,0-3.8-1.84-8.54-7.37a30.8,30.8,0,0,1-3.19-4.57,4.89,4.89,0,0,1-.8-.19l-.07,0-1.86-.7a35,35,0,0,0,4.43,6.73l.38.44C196.79,249,199.07,251.27,202,251.27Z"/><circle class="cls-3" cx="202.22" cy="247" transform="translate(-116.79 235.21) rotate(-48.58)"/><path class="cls-4" d="M262.39,215.79a6.49,6.49,0,0,0,4.78-3.32l0-.06a3.68,3.68,0,0,1,.87-1l-.86-.23a.93.93,0,0,1-.05.09A59.55,59.55,0,0,1,262.39,215.79Z"/><path class="cls-4" d="M262.26,205.68l-.57-.08.57.07a3.69,3.69,0,0,1,2.05-2.13v0c-.18-.08-.37-.13-.56-.2l-1.82,1.46c-.08.28-.15.56-.25.84a24.89,24.89,0,0,1-1.58,3.71,3.69,3.69,0,0,1-1.37,6,6.33,6.33,0,0,0,.84.3,70.12,70.12,0,0,0,5.45-5l-.27-.07a3.7,3.7,0,0,1-2.64-4.52A3.6,3.6,0,0,1,262.26,205.68Z"/><path class="cls-2" d="M236.47,225.14a48,48,0,0,0,7.44-2.6,34,34,0,0,0,4.26-2.3h0a3.67,3.67,0,0,1-1.72-1,37.57,37.57,0,0,1-9.32,3.66Z"/><path class="cls-2" d="M257,196.08a13.71,13.71,0,0,1,4.56-.8c.32,0,.64,0,1,0a17.83,17.83,0,0,0-1.38-4.42h0c-.13-.27-.23-.46-.29-.56v0l0-.06s0,.1-.08.25v0l-.11.3v0l-.17.42v0A13.52,13.52,0,0,1,257,196.08Z"/><path class="cls-2" d="M261.94,204.76l1.82-1.46c-.18-.06-.36-.15-.55-.2a6.52,6.52,0,0,0-.65-.12l-.22.18,0-.21a6.48,6.48,0,0,0-6.41,3.18,3.7,3.7,0,0,1-1,1.22l1.44.38,1.24.33.69.18a3.67,3.67,0,0,1,1.77,1.08,24.89,24.89,0,0,0,1.58-3.71C261.79,205.31,261.86,205,261.94,204.76Z"/><path class="cls-4" d="M236.47,225.14l-.17.58-.63,2.19a53.12,53.12,0,0,0,11.7-3.94c2-1.14,3.85-2.3,5.56-3.44l.07,0c-.25-.2-.5-.42-.74-.64s-.39-.34-.57-.53a3.69,3.69,0,0,1-3.52.94,34,34,0,0,1-4.26,2.3A48,48,0,0,1,236.47,225.14Z"/><path class="cls-4" d="M237.28,222.32l-.16.56a37.57,37.57,0,0,0,9.32-3.66,3.7,3.7,0,0,1-.54-.7s0-.09-.06-.14a36.85,36.85,0,0,1-8.46,3.41A4.91,4.91,0,0,1,237.28,222.32Z"/><path class="cls-2" d="M188.28,192.17l-.23.11-.77.36-.36.17-.71.35-.28.14-.88.46-.06,0-.68.39-.2.12-.14.09c.94-.51,2.42-1.29,4.27-2.2Z"/><path class="cls-4" d="M162.5,201.73l0,.07a16.27,16.27,0,0,0,.65,1.86A4.92,4.92,0,0,0,162.5,201.73Z"/><path class="cls-4" d="M177.37,213.42c-.37-.36-.73-.71-1.09-1.08a14.84,14.84,0,0,1-7.94-3.38q-.22.46-.49.9a16,16,0,0,0,9.52,3.56Z"/><path class="cls-4" d="M162.25,193.57l.46.2-.36-.64C162.31,193.28,162.28,193.43,162.25,193.57Z"/><ellipse class="cls-4" cx="182.78" cy="188.41" rx="2.41" ry="2.69" transform="translate(-74.32 241.37) rotate(-57.51)"/><ellipse class="cls-4" cx="173.48" cy="188.93" rx="2.79" ry="2.59" transform="translate(-1.88 1.74) rotate(-0.57)"/><path class="cls-4" d="M170.58,198.65a2.8,2.8,0,0,0-4.76-2.87,11.16,11.16,0,0,1,2.85,4.14A2.52,2.52,0,0,0,170.58,198.65Z"/><path class="cls-4" d="M175,203.12l2.39,2.87a.5.5,0,1,1-.77.64l-3-3.6a2.35,2.35,0,0,0-1.81,1.14,2.11,2.11,0,0,0-.22,1.23c.75,1,1.52,1.91,2.29,2.82,1.55.68,3.23.36,3.87-.82s-.09-3-1.72-3.89A4.25,4.25,0,0,0,175,203.12Z"/><path class="cls-2" d="M199.38,188.42a123.67,123.67,0,0,0-16,7.43.49.49,0,0,1-.67-.18v0a2.83,2.83,0,0,0-.26.71,1.58,1.58,0,0,0,0,.34,1,1,0,0,0,.11.44.92.92,0,0,0,.11.17,1.1,1.1,0,0,0,.29.24,1.58,1.58,0,0,0,.32.14l.28.07.2,0,.13,0h.64l.57-.05h0l.8-.09.15,0,.8-.1.19,0,1-.14h.08l2.76-.4a47.35,47.35,0,0,1,4.62-5.7.5.5,0,0,1,.71,0,.49.49,0,0,1,.14.33Q197.74,190,199.38,188.42Z"/><path class="cls-3" d="M202.19,139.84l0,0,0,0Z"/><path class="cls-3" d="M196.48,225.38s0,0,0,0a2,2,0,0,1,.34.65,4.86,4.86,0,0,1-1.78,5.33q1.76.47,3.49.84l-.12-.39v0l-.76-2.4a27.56,27.56,0,0,0,11.94-1.86v0a43.58,43.58,0,0,1-9.5-1.11Q198.27,226,196.48,225.38Z"/><path class="cls-3" d="M186.21,221.18a4.82,4.82,0,0,1,.66-.28l-.26-.16-.45.14-.45.14a2,2,0,0,1-.37.05c0,.2.09.41.14.6A4.83,4.83,0,0,1,186.21,221.18Z"/><path class="cls-3" d="M187.91,220.34h0l0,0Z"/><path class="cls-3" d="M187,213.52h.15a2,2,0,0,1,.65-.34,4.87,4.87,0,0,1,6.07,3.25,2,2,0,0,0,.42,1.37l.83,2.75a2,2,0,0,0,.42,1.37l.7,2.32c1.33.45,2.68.85,4.05,1.17a42.69,42.69,0,0,0,9.56,1.09l3.23-11.17a5,5,0,0,1,6.22-3.43l3,.88c2-6,3.51-13,9.12-21.93l.31-.64a5.12,5.12,0,0,1,1-1.49c.49-.35,11.2-5.33,16.13-7.61l0-.08c.09-.15.23-.37.41-.64a25.91,25.91,0,0,1,1.57-2.09c.74-.89,1.58-1.8,2.43-2.65l.54-.51c-3.5.71-10.76,2.32-17.4,3.93h0c.33-.78.62-1.56.9-2.32l.2-.55c.46-1.3.84-2.57,1.17-3.82a22.61,22.61,0,0,0,.11-8.41.49.49,0,0,1,.3-.57,15.26,15.26,0,0,0-1.4-4.77,7.1,7.1,0,0,1-4.83-6.64s0,0,0-.07a29.7,29.7,0,0,1-1.81-2.63A14.86,14.86,0,0,1,230,148a16.63,16.63,0,0,1-3.13-6.59c-.14-.32-.3-.64-.43-1a6.53,6.53,0,0,1-1.65-1.42A5.47,5.47,0,0,1,223,137a6.77,6.77,0,0,1-.55-2.9l-2.88-.11a.5.5,0,0,1-.45-.33c-.61,0-1.23,0-1.86,0a3.16,3.16,0,0,1-1.49,1.31.47.47,0,0,1,0,.12.5.5,0,0,1-.43.56,3.92,3.92,0,0,1-.52,0,4.65,4.65,0,0,1-2.84-1.07l-1.27.4a6.26,6.26,0,0,1,1.9,4.3c0,4.14-4.13,5.57-4.17,5.58l-.16,0a.49.49,0,0,1-.41-.26,4.48,4.48,0,0,1-2.2.12,1.72,1.72,0,0,1-.61-.27l-.18,0c-.16,0-3.82-.8-5.45-5.95a1,1,0,0,1,0-.66l-.47.18-.46.17-.67.26-.51.2-.66.26-.53.21-.66.26-.55.22-.66.27-.56.23-.65.27-.59.25-.63.27-.62.27-.62.27-.68.3-1,.46-.72.33-.57.27-.67.31-.57.28-.65.32-.57.28-.65.32-.56.28-.64.33-.56.29-.63.33-.54.29-.63.34-.52.28-.64.36-.48.27-.68.39-.42.24-1,.58-.14.09-1,.61-.33.22-.65.43-.38.26-.56.38-.38.27-.51.37-.37.28-.47.36-.35.28-.44.36-.33.28-.41.37-.29.27-.39.38-.25.25-.38.41-.2.21q-.26.3-.49.59l0,0a3.24,3.24,0,0,0-.6,1.53,1,1,0,0,1,.88.76c0,.13,5.79,13.77,10.79,16.21,4.54,2.21,21.92,4,35.16,2.85,8.09-1.6,10.84-3.3,17.45-9.91.34-.34.66-.42.93-.31,1.39.58,1.59,6.4-1.63,9.42s-11.6,4.22-20.76,4.25c-.72.4-1.43.8-2.12,1.22l-.38.23-1.47.93-.56.37q-1.08.72-2.1,1.47l-.92.68-1,.76q-.72.57-1.41,1.16h0l-.15.13c-4.17,1.62-9.15,3.63-12.87,5.34l0,0c-1.85.91-3.33,1.69-4.27,2.2a3.8,3.8,0,0,0-1.12.91c-.07.12-.13.23-.19.34v0a.49.49,0,0,0,.67.18,123.67,123.67,0,0,1,16-7.43q-1.65,1.54-3.1,3.13a.49.49,0,0,1-.14.38,49,49,0,0,0-4.88,6.11c-.16.25-.34.5-.5.76l-.29.49c-.32.53-.63,1.05-.92,1.58-.12.22-.23.44-.35.66-.25.47-.5.94-.73,1.41-.12.24-.22.48-.33.72-.21.45-.41.89-.6,1.34-.11.25-.2.5-.3.75-.17.43-.34.86-.49,1.29-.09.25-.17.51-.25.76-.14.42-.27.84-.39,1.25-.07.25-.14.5-.2.75-.11.41-.21.82-.3,1.22,0,.19-.08.38-.12.57l0,.16c-.08.4-.15.81-.22,1.2,0,.23-.07.47-.1.7s0,.23,0,.35l1.36-.41A2,2,0,0,1,187,213.52Zm4.56-61.94a5.5,5.5,0,0,1,3.32-2.19,1.14,1.14,0,0,1-.06-.27v-2.65a1.18,1.18,0,1,1,2.37,0v2.65a1.13,1.13,0,0,1-.06.27,5.51,5.51,0,0,1,3.32,2.19,1.5,1.5,0,0,1-2.51,1.65,2.47,2.47,0,0,0-1.94-1h0a2.48,2.48,0,0,0-1.93,1,1.5,1.5,0,0,1-2.52-1.63Zm10.76,16.31a.4.4,0,0,1-.11.16l-.36.31a18.93,18.93,0,0,1-2.37,1.71,22.38,22.38,0,0,1-2.21,1.2,19.42,19.42,0,0,1-4.12,1.35c-.36.06-.69.09-1,.14h0a14.92,14.92,0,0,1-6.17-.45l-.09,0h0l-.09,0a14.92,14.92,0,0,1-5.41-3h0a4.41,4.41,0,0,1,.51-.12,2.56,2.56,0,0,0-.5.11c-.27-.23-.54-.44-.8-.7a18.73,18.73,0,0,1-2.7-3.38,20.76,20.76,0,0,1-1.2-2.2,17.89,17.89,0,0,1-1-2.72l-.13-.45a.39.39,0,0,1,.23-.48.32.32,0,0,1,.18,0l1.44.32,0,0,.73.17a24.9,24.9,0,0,0,.65,2.58c.14.27,2.44,1.61,2.76,1.36a12.29,12.29,0,0,0,.81-2.88l.5.13,1.25.35a16,16,0,0,0-.66,3.11,7.43,7.43,0,0,0,3.15.7,13.56,13.56,0,0,0,2.56-2.38l.54.15c2.26.71,4.53,1.39,6.78,2.14l3.37,1.15,2,.73c.45.16.9.33,1.36.51A.37.37,0,0,1,202.36,167.88Zm18.49-14.22a1.5,1.5,0,0,1-2.06-.43,2.47,2.47,0,0,0-1.94-1h0a2.47,2.47,0,0,0-1.95,1,1.51,1.51,0,0,1-2.08.4,1.49,1.49,0,0,1-.43-2.05,5.5,5.5,0,0,1,3.32-2.19,1.13,1.13,0,0,1-.06-.27v-2.65a1.18,1.18,0,1,1,2.37,0v2.65a1.13,1.13,0,0,1-.06.27,5.5,5.5,0,0,1,3.32,2.19A1.5,1.5,0,0,1,220.85,153.66Z"/><path class="cls-2" d="M227,231.94v0a2.7,2.7,0,0,1-.89.16,2.76,2.76,0,0,1-.77-.11l-1.72-.5q0,.13-.06.26a2.75,2.75,0,0,1-3.41,1.88l-1-.28-.39,0-1,.1,4.88,1.41,3.46,1,.5-1.73.63-2.18L227,232Z"/><path class="cls-2" d="M215.71,231.65l0,.05h.05Z"/><path class="cls-2" d="M220.12,247.47h.33l.16,0,.11,0,.16-.08.12-.08.18-.13.13-.11.19-.19.13-.13.22-.26.11-.13c.11-.14.23-.29.34-.46l0-.06.31-.47.12-.2.24-.4.14-.26.23-.42.15-.3.22-.45.16-.33.14-.32-4.7-1.36c0,3.22.18,5.82.56,6.12A.63.63,0,0,0,220.12,247.47Z"/><path class="cls-2" d="M197.65,229.4l.76,2.4h0c.61.08,1.26.16,1.93.22h.07c1.34.13,2.77.22,4.23.27h.1c.72,0,1.44,0,2.17,0h1.3l1.38-4.78A27.56,27.56,0,0,1,197.65,229.4Z"/><path class="cls-3" d="M193.41,238.91c.41.57.85,1.13,1.31,1.67h0l.72.83.17.19.5.58.22.26.42.48.23.26.4.44.21.23.42.46.15.16.53.56.07.07.42.42.16.15.31.29.16.15.27.23.15.13.25.2.13.1.27.18.08,0,.31.16.07,0,.2.06h.23a.58.58,0,0,0,.17,0l.08,0a.58.58,0,0,0,.19-.17h0a.5.5,0,0,0,.06-.21s0-.06,0-.09a2.61,2.61,0,0,0,0-.3s0-.06,0-.09,0-.32-.06-.51l0-.15q0-.23-.09-.5l0-.2c0-.23-.1-.48-.15-.74l0-.08-.18-.77-.07-.27-.18-.73-.05-.21-.26-1-.07-.27-.22-.8-.08-.29-.3-1.05,0-.14-.27-1-.09-.32-.27-.9-.06-.19-.33-1.09-.06-.2-.17-.57c-1.23-.24-2.48-.53-3.73-.85a2,2,0,0,1-.08.42l0,0a4.86,4.86,0,0,1-3.15,3.11q.52.84,1.1,1.65Z"/><path class="cls-3" d="M190.86,230.11l-.55-1.81q-.55-.22-1-.47l-.89,1.16.06.17Q189.63,229.68,190.86,230.11Z"/><path class="cls-3" d="M189.94,227l0,0,.09,0Z"/><path class="cls-4" d="M196,149.25a5.27,5.27,0,0,1,1.13.13,1.13,1.13,0,0,0,.06-.27v-2.65a1.18,1.18,0,1,0-2.37,0v2.65a1.14,1.14,0,0,0,.06.27,5.27,5.27,0,0,1,1.13-.13Z"/><path class="cls-5" d="M192,153.65a1.5,1.5,0,0,0,2.08-.44,2.48,2.48,0,0,1,1.93-1h0a2.47,2.47,0,0,1,1.94,1,1.5,1.5,0,0,0,2.51-1.65,5.51,5.51,0,0,0-3.32-2.19,5.27,5.27,0,0,0-1.13-.13h0a5.27,5.27,0,0,0-1.13.13,5.5,5.5,0,0,0-3.32,2.19A1.5,1.5,0,0,0,192,153.65Zm0-1.8a5,5,0,0,1,4-2.1h0a5,5,0,0,1,4,2.1,1,1,0,0,1-1.67,1.09,3,3,0,0,0-2.36-1.19h0a3,3,0,0,0-2.35,1.18,1,1,0,0,1-1.68-1.09Z"/><path class="cls-4" d="M192.31,153.23a1,1,0,0,0,1.38-.29,3,3,0,0,1,2.35-1.18h0a3,3,0,0,1,2.36,1.19,1,1,0,0,0,1.67-1.09,5,5,0,0,0-4-2.1h0a5,5,0,0,0-4,2.1A1,1,0,0,0,192.31,153.23Z"/><path class="cls-4" d="M216.84,149.25a5.27,5.27,0,0,1,1.13.13,1.13,1.13,0,0,0,.06-.27v-2.65a1.18,1.18,0,1,0-2.37,0v2.65a1.13,1.13,0,0,0,.06.27,5.27,5.27,0,0,1,1.13-.13Z"/><path class="cls-5" d="M218,149.39a5.27,5.27,0,0,0-1.13-.13h0a5.27,5.27,0,0,0-1.13.13,5.5,5.5,0,0,0-3.32,2.19,1.49,1.49,0,0,0,.43,2.05,1.51,1.51,0,0,0,2.08-.4,2.47,2.47,0,0,1,1.95-1h0a2.47,2.47,0,0,1,1.94,1,1.5,1.5,0,0,0,2.51-1.65A5.5,5.5,0,0,0,218,149.39Zm2.61,3.85a1,1,0,0,1-1.38-.29,3,3,0,0,0-2.36-1.19h0a3,3,0,0,0-2.36,1.19,1,1,0,0,1-1.38.28,1,1,0,0,1-.29-1.37,5,5,0,0,1,4-2.1h0a5,5,0,0,1,4,2.1A1,1,0,0,1,220.58,153.24Z"/><path class="cls-4" d="M216.84,149.75h0a5,5,0,0,0-4,2.1,1,1,0,0,0,.29,1.37,1,1,0,0,0,1.38-.28,3,3,0,0,1,2.36-1.19h0a3,3,0,0,1,2.36,1.19,1,1,0,0,0,1.67-1.09A5,5,0,0,0,216.84,149.75Z"/><path class="cls-2" d="M233.61,166.22c-.27-.11-.58,0-.93.31-6.61,6.6-9.37,8.31-17.45,9.91-13.23,1.17-30.62-.63-35.16-2.85-5-2.44-10.77-16.08-10.79-16.21a1,1,0,0,0-.88-.76,11.19,11.19,0,0,0,1.06,5.43q.16.4.34.8a35.85,35.85,0,0,0,3.78,6.38l.56.74c.56.72,1.14,1.4,1.71,2,.38.41.76.8,1.14,1.16a13.26,13.26,0,0,0,2.16,1.71,5.75,5.75,0,0,0,1,.48c6.09,2.26,14.75,3.72,23.6,3.72,1.52,0,3-.05,4.56-.14a.49.49,0,0,1,.14,0c.11,0,10.89-1.16,16-3.22a.5.5,0,0,1,.38.93c-3.38,1.37-9,2.33-12.7,2.84l-.86.47c9.16,0,17.5-1.21,20.76-4.25S235,166.8,233.61,166.22Z"/><path class="cls-3" d="M240.47,186.14c-3.2,1.5-5.84,2.75-6.78,3.22C235.52,188.52,237.91,187.39,240.47,186.14Z"/><path class="cls-4" d="M202.16,167.41c-.45-.18-.91-.35-1.36-.51l-2-.73L195.45,165c-2.25-.75-4.52-1.43-6.78-2.14l-.54-.15a13.56,13.56,0,0,1-2.56,2.38,7.43,7.43,0,0,1-3.15-.7,16,16,0,0,1,.66-3.11l-1.25-.35-.5-.13a12.29,12.29,0,0,1-.81,2.88c-.32.25-2.62-1.09-2.76-1.36a24.9,24.9,0,0,1-.65-2.58l-.73-.17,0,0-1.44-.32a.32.32,0,0,0-.18,0,.39.39,0,0,0-.23.48l.13.45a17.89,17.89,0,0,0,1,2.72,20.76,20.76,0,0,0,1.2,2.2,18.73,18.73,0,0,0,2.7,3.38c.26.26.54.47.8.7a2.56,2.56,0,0,1,.5-.11,4.41,4.41,0,0,0-.51.12h0a14.92,14.92,0,0,0,5.41,3l.09,0h0l.09,0a14.92,14.92,0,0,0,6.17.45h0c.35,0,.69-.07,1-.14a19.42,19.42,0,0,0,4.12-1.35,22.38,22.38,0,0,0,2.21-1.2,18.93,18.93,0,0,0,2.37-1.71l.36-.31a.4.4,0,0,0,.11-.16A.37.37,0,0,0,202.16,167.41Z"/><path class="cls-2" d="M217.26,133.68c.64,0,1.25,0,1.86,0a.5.5,0,0,1,0-.19.48.48,0,0,1,.52-.48l3,.11a4.12,4.12,0,0,1,.67-1.53.5.5,0,0,1,.7-.08.49.49,0,0,1,.16.26.49.49,0,0,1-.08.44c-.05.07-1.25,1.66-.11,4.43.55,1.34,2.63,2.5,3.39,2.83a.5.5,0,0,1,.3.41,15.81,15.81,0,0,0,3.17,7.58,16.84,16.84,0,0,0,7.59,5.12.5.5,0,0,1,.35.39s.54,3,1.68,4.11c.63.63,2.3,2.31,6.67,1.51a.48.48,0,0,1,.41.11.49.49,0,0,1-.23.87,13.2,13.2,0,0,1-2.38.23,8.78,8.78,0,0,1-1.68-.16,6.47,6.47,0,0,1-3.49-1.86c-1.14-1.14-1.72-3.5-1.9-4.34a18,18,0,0,1-6.67-4.11,29.7,29.7,0,0,0,1.81,2.63s0,0,0,.07a7.1,7.1,0,0,0,4.83,6.64,15.26,15.26,0,0,1,1.4,4.77l.07,0a.5.5,0,0,1,.6.37,19.93,19.93,0,0,1,.32,5.33l.79,0h0l.45,0h0c.29-1,.57-2,.81-3.11a2.95,2.95,0,0,0,3.85-2.07l.14,0a7.71,7.71,0,0,0,10.35-4.62,5.42,5.42,0,0,0,5-4.5,30,30,0,0,0,2.37-3,6.09,6.09,0,0,0,4.85-7.79,6.1,6.1,0,0,0,.44-9.12,29.89,29.89,0,0,0-.25-4,6.49,6.49,0,0,0,2.25-3.73h0c0-.21.08-.42.1-.63a5.87,5.87,0,0,0,0-1.5c0-.07,0-.14,0-.22a6.45,6.45,0,0,0-.14-.67l0-.13a6.43,6.43,0,0,0-.28-.76l-.05-.11a6.45,6.45,0,0,0-.34-.64l-.06-.1a6.52,6.52,0,0,0-1.07-1.29l0,0a6.54,6.54,0,0,0-1.41-1h0a6.47,6.47,0,0,0-2.87-.72,30.11,30.11,0,0,0-7-8,6.5,6.5,0,0,0-.16-1.16h0a6.47,6.47,0,0,0-.32-1l0-.07a6.49,6.49,0,0,0-.47-.9l0-.07a6.53,6.53,0,0,0-.61-.82l0,0a6.53,6.53,0,0,0-.76-.72h0a6.5,6.5,0,0,0-.82-.56l-.11-.07a6.44,6.44,0,0,0-.87-.4l-.15-.05a6.42,6.42,0,0,0-.94-.25l-.13,0a6.5,6.5,0,0,0-1-.09c-.2,0-.38,0-.58,0l-.35,0a6.36,6.36,0,0,0-.65.14l-.24.05a6.53,6.53,0,0,0-1.61.72h0l-.46-.12a29.83,29.83,0,0,0-4-.87,6.58,6.58,0,0,0-.51-.47l-.18-.14-.38-.28-.23-.14-.37-.22-.25-.12-.39-.17-.26-.1-.42-.13-.26-.07-.48-.09-.22,0a6.42,6.42,0,0,0-.72,0,6.53,6.53,0,0,0-2,.3,6.43,6.43,0,0,0-1.07.44,6.52,6.52,0,0,0-1.78,1.38q-.93.16-1.85.38a29.76,29.76,0,0,0-3.57,1.09q-.87.33-1.71.71a6.46,6.46,0,0,0-.94-.22,6.54,6.54,0,0,0-1-.08,6.46,6.46,0,0,0-.87.08l-.27,0a6.57,6.57,0,0,0-5.34,5.84q-.48.46-.94.93a6.47,6.47,0,0,0-2.09.79,6.53,6.53,0,0,0-2.3,2.33,6.46,6.46,0,0,0-.88,3.26c0,.16,0,.32,0,.48s0,.32,0,.48h0c-.12.25-.24.51-.35.76-.39.83-.76,1.68-1.07,2.55a3.15,3.15,0,0,0-2,2.92,3.13,3.13,0,0,0,.67,1.93c-.14.78-.26,1.57-.34,2.38h0c-.06.65-.1,1.3-.12,1.94.2.15.42.31.63.49l1.91-.6.16-.05a.5.5,0,0,1,.5.12,3.67,3.67,0,0,0,2.75,1,.5.5,0,0,1,.52.31A3.16,3.16,0,0,0,217.26,133.68Zm36.67,16.27a1,1,0,0,1,1.39-.24,4.21,4.21,0,0,0,5.52-.77c3-3,1.56-6,1.49-6.12a1,1,0,0,1,1.77-.93c.79,1.49,1.42,5.18-1.85,8.46a6.54,6.54,0,0,1-3.8,2,5.27,5.27,0,0,1-2.06,5,4.49,4.49,0,0,1-2.92,1.15,4.67,4.67,0,0,1-2.76-1,.5.5,0,0,1,.65-.76,3.36,3.36,0,0,0,4.39-.19,4.27,4.27,0,0,0,1.7-4.18,6.26,6.26,0,0,1-3.28-1A1,1,0,0,1,253.93,149.95Zm-26.55-38.33a4.28,4.28,0,0,1,4.19,1.53l.35-.18a6.42,6.42,0,0,1,4.76-.38,5.31,5.31,0,0,1,4.2-2.8,4.39,4.39,0,0,1,4.93,2.83.5.5,0,1,1-1,.31,3.36,3.36,0,0,0-3.84-2.15,4.35,4.35,0,0,0-3.43,2.18,6.19,6.19,0,0,1,2.24,1.92,1,1,0,1,1-1.65,1.12,4.21,4.21,0,0,0-5.43-1.22c-3.94,1.8-3.56,5.16-3.55,5.2a1,1,0,0,1-.87,1.12h-.13a1,1,0,0,1-1-.87,7.16,7.16,0,0,1,3.48-6.6,3.34,3.34,0,0,0-3.17-1,4.13,4.13,0,0,0-3.78,3.13.5.5,0,0,1-.49.42h-.08a.5.5,0,0,1-.41-.57A5.18,5.18,0,0,1,227.38,111.62Z"/><path class="cls-2" d="M224.8,139.09a6.53,6.53,0,0,0,1.65,1.42c.13.31.28.63.43,1-.12-.54-.19-1-.23-1.24A11.76,11.76,0,0,1,224.8,139.09Z"/><path class="cls-4" d="M223.17,116.15h.08a.5.5,0,0,0,.49-.42,4.13,4.13,0,0,1,3.78-3.13,3.34,3.34,0,0,1,3.17,1,7.16,7.16,0,0,0-3.48,6.6,1,1,0,0,0,1,.87h.13a1,1,0,0,0,.87-1.12s-.39-3.4,3.55-5.2a4.21,4.21,0,0,1,5.43,1.22,1,1,0,1,0,1.65-1.12,6.19,6.19,0,0,0-2.24-1.92,4.35,4.35,0,0,1,3.43-2.18,3.36,3.36,0,0,1,3.84,2.15.5.5,0,1,0,1-.31,4.39,4.39,0,0,0-4.93-2.83,5.31,5.31,0,0,0-4.2,2.8,6.42,6.42,0,0,0-4.76.38l-.35.18a4.28,4.28,0,0,0-4.19-1.53,5.18,5.18,0,0,0-4.63,4A.5.5,0,0,0,223.17,116.15Z"/><path class="cls-2" d="M197.46,125.31c-.09.53-.15,1.06-.2,1.58C197.3,126.37,197.37,125.84,197.46,125.31Z"/><path class="cls-2" d="M203.36,128.69s0-.09,0-.14a21.59,21.59,0,0,0-.65-2.38,4.11,4.11,0,0,0-.27-.65,3.33,3.33,0,0,1-5.21,1.36c0,.12,0,.23,0,.35a8.13,8.13,0,0,0,.19,2.66,2.19,2.19,0,0,0,.2.46,1.08,1.08,0,0,0,.27.32,2.79,2.79,0,0,0,.74.41A3.89,3.89,0,0,0,203.36,128.69Z"/><path class="cls-2" d="M197.46,125.31a2.67,2.67,0,0,0,4-.85.65.65,0,0,1,0-.09s.23-4.88-1.94-6.61l-.08.06-.17.17-.12.14-.18.25-.12.18-.19.33-.11.19-.22.45-.07.14c-.1.21-.19.43-.28.65l-.06.16c-.07.17-.13.34-.2.52l-.09.26-.14.44-.08.28c0,.14-.08.28-.11.41l-.06.28q0,.2-.08.39l0,.26c0,.12,0,.24,0,.36s0,.16,0,.24,0,.22,0,.32,0,.14,0,.2a2,2,0,0,0,.05.29s0,.1,0,.14a.9.9,0,0,0,.17.31A2.16,2.16,0,0,0,197.46,125.31Z"/><path class="cls-2" d="M198.75,132.15h0c0,.24.08.47.12.71-.1-.58-.19-1.18-.25-1.79C198.66,131.44,198.7,131.8,198.75,132.15Z"/><path class="cls-2" d="M207.91,144.69s-.05,0-.06-.08a.5.5,0,0,1,.31-.63c.14,0,3.49-1.22,3.49-4.63,0-2.32-1.89-4-3.16-4.9.16,3.09-3.27,5.45-6.31,5.4l0,0a5.31,5.31,0,0,0,3.1,2.67,1,1,0,0,1-.2,2h0a1.72,1.72,0,0,0,.61.27A4.48,4.48,0,0,0,207.91,144.69Z"/><path class="cls-2" d="M204.71,129.87a4.29,4.29,0,0,1-5.83,3.11c0,.07,0,.15,0,.22h0c.36,1.87.94,3.45,1.69,4,2.5.47,6.15-1.31,6.36-4,0-.14,0-.27,0-.41a4.22,4.22,0,0,0-1-1.87A11.12,11.12,0,0,0,204.71,129.87Z"/><path class="cls-2" d="M231.8,190.22l-.31.64c-5.6,9-7.07,15.93-9.12,21.93l6.12,1.77c.27-3.69.48-6.59.48-6.66a.51.51,0,0,1,.53-.46l.09,0a.49.49,0,0,1,.37.51c0,.07-.22,3.08-.5,6.87l4.37,1.26a5,5,0,0,1,3.53,5.69,36.85,36.85,0,0,0,8.46-3.41,3.65,3.65,0,0,1-.4-2.18,3.71,3.71,0,0,1,.08-.49l.22-.85,1.5-5.72a3.7,3.7,0,0,1,2.37-2.56,3.7,3.7,0,0,1-.29-3.85,13.68,13.68,0,0,1,3-3.89c-.35.13-.7.25-1.08.36a18.65,18.65,0,0,1-3.11.65,5.73,5.73,0,0,0-5.58-.77,6.44,6.44,0,0,0-8.88.23,23.3,23.3,0,0,0-2.38.38c-.28,1.34-.48,2.4-.49,2.64a.5.5,0,0,1-.34.53l-.16,0a.49.49,0,0,1-.24-.08.48.48,0,0,1-.24-.27c0-.14-.11-.33.8-4.59l.4-1.86h0c.18-.73.37-1.44.58-2.13h0q.19-.61.39-1.19h0q.19-.57.39-1.1l0-.08q.19-.51.38-1l.05-.13.2-.49,0,0,.16-.39.46-.21c.94-.47,3.58-1.72,6.78-3.22,2.66-1.3,5.5-2.72,8.07-4.05a2.25,2.25,0,0,1,.26-.8l.1-.17c-4.93,2.28-15.63,7.26-16.13,7.61A5.12,5.12,0,0,0,231.8,190.22Z"/><path class="cls-4" d="M239.71,157.76a6.47,6.47,0,0,0,3.49,1.86,8.78,8.78,0,0,0,1.68.16,13.2,13.2,0,0,0,2.38-.23.49.49,0,0,0,.23-.87.48.48,0,0,0-.41-.11c-4.37.8-6-.87-6.67-1.51-1.15-1.15-1.68-4.08-1.68-4.11a.5.5,0,0,0-.35-.39,16.84,16.84,0,0,1-7.59-5.12,15.81,15.81,0,0,1-3.17-7.58.5.5,0,0,0-.3-.41c-.75-.33-2.83-1.49-3.39-2.83-1.14-2.76.06-4.36.11-4.43a.49.49,0,0,0,.08-.44.49.49,0,0,0-.16-.26.5.5,0,0,0-.7.08,4.12,4.12,0,0,0-.67,1.53l-3-.11a.48.48,0,0,0-.52.48.51.51,0,0,0,.48.52l2.88.11A6.77,6.77,0,0,0,223,137a5.47,5.47,0,0,0,1.8,2.11,11.76,11.76,0,0,0,1.85,1.14c0,.26.1.69.23,1.24A16.63,16.63,0,0,0,230,148a14.86,14.86,0,0,0,1.13,1.26,18,18,0,0,0,6.67,4.11C238,154.26,238.57,156.62,239.71,157.76Z"/><path class="cls-4" d="M257.45,152.38a4.27,4.27,0,0,1-1.7,4.18,3.36,3.36,0,0,1-4.39.19.5.5,0,0,0-.65.76,4.67,4.67,0,0,0,2.76,1,4.49,4.49,0,0,0,2.92-1.15,5.27,5.27,0,0,0,2.06-5,6.54,6.54,0,0,0,3.8-2c3.27-3.28,2.64-7,1.85-8.46a1,1,0,0,0-1.77.93c.06.13,1.52,3.09-1.49,6.12a4.21,4.21,0,0,1-5.52.77,1,1,0,1,0-1.15,1.63A6.26,6.26,0,0,0,257.45,152.38Z"/><path class="cls-4" d="M255.82,222.22c-.36-.17-.72-.35-1.06-.54l-1.18.8Q254.72,222.38,255.82,222.22Z"/><path class="cls-4" d="M206.94,232.34h0c-.73,0-1.45,0-2.17,0h-.1c-1.47,0-2.9-.14-4.23-.27h-.07c-.67-.07-1.31-.14-1.93-.22h0v0l.12.39a65.93,65.93,0,0,0,9.39,1.32,5.06,5.06,0,0,1,.15-.79l.13-.43h-1.26Z"/><path class="cls-4" d="M218.68,248.94a2.62,2.62,0,0,0,1.64.57c2.36,0,4.32-3.2,5.69-6.34l-1.94-.56-.15.32-.16.33-.22.45-.15.3-.23.42-.14.26-.24.4-.12.2-.31.47,0,.06c-.12.17-.23.32-.34.46l-.11.13-.22.26-.13.13-.19.19-.13.11-.18.13-.12.08-.16.08-.11,0-.16,0h-.13l-.12,0h-.07a.63.63,0,0,1-.2-.11c-.38-.3-.53-2.9-.56-6.12l-2-.58C217.38,247.91,218,248.38,218.68,248.94Z"/><path class="cls-4" d="M262.56,203l-.17,0,0,.21Z"/><path class="cls-4" d="M184.61,222.53h0l0,0,0,0a4.91,4.91,0,0,1,.65-.67l.14-.1c-.05-.2-.09-.4-.14-.6a2,2,0,0,1-.21,0H185a2,2,0,0,1-.65.34l-.92.28a16.79,16.79,0,0,0,.51,1.76Z"/><path class="cls-4" d="M227,231.94V232l.22-.05,0-.13-.24.08Z"/><path class="cls-4" d="M199.38,235l.06.2.33,1.09.06.19.27.9.09.32.27,1,0,.14.3,1.05.08.29.22.8.07.27.26,1,.05.21.18.73.07.27.18.77,0,.08c.06.26.11.51.15.74l0,.2q.05.27.09.5l0,.15c0,.19,0,.36.06.51s0,.06,0,.09a2.61,2.61,0,0,1,0,.3s0,.06,0,.09a.5.5,0,0,1-.06.21h0a.58.58,0,0,1-.19.17l-.08,0a.58.58,0,0,1-.17,0h-.23l-.2-.06-.07,0L201,247l-.08,0-.27-.18-.13-.1-.25-.2-.15-.13-.27-.23-.16-.15-.31-.29-.16-.15-.42-.42-.07-.07-.53-.56-.15-.16-.42-.46-.21-.23-.4-.44-.23-.26-.42-.48-.22-.26-.5-.58-.17-.19-.72-.83h0c-.46-.53-.89-1.09-1.31-1.67l-.09-.12q-.58-.81-1.1-1.65a4.76,4.76,0,0,1-2.21.17,30.8,30.8,0,0,0,3.19,4.57c4.74,5.53,6.63,7.37,8.54,7.37a2.56,2.56,0,0,0,2.09-1.07c.66-.9,1.14-1.58-2.42-13.37-.73-.12-1.47-.25-2.21-.39Z"/><path class="cls-4" d="M188.39,229l-.09.11.15.06Z"/><path class="cls-4" d="M229.61,207.46l-.09,0a.51.51,0,0,0-.53.46c0,.07-.21,3-.48,6.66l1,.28c.28-3.79.49-6.8.5-6.87A.49.49,0,0,0,229.61,207.46Z"/><path class="cls-4" d="M219.16,233.32l-.61-.18-1.31-.38a2.73,2.73,0,0,1-1.49-1.08h-.05l-.31,1.09,2.34.68,1-.1Z"/><path class="cls-4" d="M190.24,228a1.18,1.18,0,0,0-.24-1l-.09,0-.63.82q.48.25,1,.47Z"/><path class="cls-2" d="M114.8,103.89a1,1,0,0,0,1,1h69.08a1,1,0,0,0,0-2H115.8A1,1,0,0,0,114.8,103.89Z"/><path class="cls-2" d="M158.22,100.27h17.33a1,1,0,1,0,0-2H158.22a1,1,0,1,0,0,2Z"/><path class="cls-2" d="M160.84,108.89a1,1,0,0,0-1-1h-104a1,1,0,0,0,0,2h104A1,1,0,0,0,160.84,108.89Z"/><path class="cls-2" d="M144.47,151.26a5.26,5.26,0,0,1-1.7.82,5.47,5.47,0,0,1-1.34.21v3.44q-1-2-2.07-3.8c-.16-.06-.32-.13-.47-.21l-1.43.91a77.63,77.63,0,0,1,4,7.72v4.8l1.85-.58,1.92-.6-.73-1.7v-7.46q1,1.68,2,3.54,1.14,2.13,2.27,4.52l1-.3q-1.6-3.4-3.23-6.29-1-1.78-2-3.39Z"/><path class="cls-2" d="M26.25,230.76V141.15h107.8c.82.82,1.71,1.76,2.65,2.84a5.46,5.46,0,0,1,.62-.8c-.65-.74-1.28-1.42-1.88-2h6v.28a5.48,5.48,0,0,1,1,.11h.05a5.48,5.48,0,0,1,2,.93V126.69a3.79,3.79,0,0,0-3.79-3.79H27a3.79,3.79,0,0,0-3.79,3.79v105.9a3.41,3.41,0,0,0,3.52,3.29H43.67a9.69,9.69,0,0,1-2.31-3.19H28.19C26.49,232.69,26.25,232.46,26.25,230.76ZM123.7,129.51a.44.44,0,0,1,.56.26l1.73,4.75a.43.43,0,0,1-.3.6h-.13a.43.43,0,0,1-.39-.3l-1.73-4.75A.44.44,0,0,1,123.7,129.51Zm-1.56.39a.43.43,0,0,1,.86,0v4.75a.43.43,0,1,1-.86,0Zm-1.3.43a.43.43,0,0,1,.86,0v4.32a.43.43,0,1,1-.86,0Zm-1.3-.86a.43.43,0,1,1,.86,0v5.18a.43.43,0,1,1-.86,0Zm-67.8,2.34A2.77,2.77,0,0,1,54.52,129h57.13a2.77,2.77,0,0,1,2.77,2.77v.25a2.77,2.77,0,0,1-2.77,2.77H54.52a2.77,2.77,0,0,1-2.77-2.77Zm-11.11-2.44a2.56,2.56,0,1,1-2.56,2.56A2.56,2.56,0,0,1,40.64,129.38Zm-8.26,0a2.56,2.56,0,1,1-2.56,2.56A2.56,2.56,0,0,1,32.38,129.38Z"/><path class="cls-2" d="M139.49,232.69H74.31a10.1,10.1,0,0,1-1.13,1.08,4.75,4.75,0,0,1-.07,1.46c0,.21-.09.43-.14.65h68a3.41,3.41,0,0,0,3.52-3.29V184.38a11.31,11.31,0,0,1-3-.89v47.27C141.42,232.46,141.19,232.69,139.49,232.69Z"/><path class="cls-4" d="M144.47,184.38v48.21a3.41,3.41,0,0,1-3.52,3.29H73c-.14.62-.32,1.29-.55,2H141a5.41,5.41,0,0,0,5.52-5.29v-48.1h-.34A11.51,11.51,0,0,1,144.47,184.38Z"/><path class="cls-4" d="M144.47,154.83v7.46l.73,1.7,1.27-.4v-5.22Q145.47,156.51,144.47,154.83Z"/><path class="cls-4" d="M144.47,151.26v1.65q1,1.6,2,3.39v-7.87A5.4,5.4,0,0,1,144.47,151.26Z"/><path class="cls-4" d="M43.67,235.89H26.72a3.41,3.41,0,0,1-3.52-3.29V126.69A3.79,3.79,0,0,1,27,122.9H140.68a3.79,3.79,0,0,1,3.79,3.79v15.78l.16.11a2,2,0,0,1,.75,1.58h0a2,2,0,0,1,1.05,1.06V126.69a5.8,5.8,0,0,0-5.79-5.79H27a5.8,5.8,0,0,0-5.79,5.79v105.9a5.41,5.41,0,0,0,5.52,5.29H47a9.56,9.56,0,0,1-3.35-2Z"/><circle class="cls-5" cx="84.03" cy="182.06" r="6.89"/><path class="cls-5" d="M141.42,152.29h-.15a5.47,5.47,0,0,1-1.2-.13H140a5.43,5.43,0,0,1-.66-.22q1.06,1.78,2.07,3.8Z"/><path class="cls-5" d="M135.45,141.15c.6.62,1.22,1.3,1.88,2a5.45,5.45,0,0,1,4-1.77h.11v-.28Z"/><path class="cls-5" d="M137.45,152.64l-1.88,1.19a.49.49,0,0,1,.46.19l1.14,1.52a.5.5,0,1,1-.8.6l-1.14-1.52a.5.5,0,0,1,0-.56l-1.61,1a2.86,2.86,0,1,1-3-4.83l3.59-2.27a20.08,20.08,0,0,0-1.75-1.81,1,1,0,1,1,1.34-1.49,22.19,22.19,0,0,1,2.12,2.22h0a5.38,5.38,0,0,1,.83-2.9c-.94-1.08-1.83-2-2.65-2.84H26.25v89.61c0,1.7.24,1.94,1.94,1.94H41.36a9.77,9.77,0,0,1,1-9.73,9.9,9.9,0,0,1,.77-.95,9.76,9.76,0,0,1,9-12.43,8.36,8.36,0,0,1,5.72-2.28,8.25,8.25,0,0,1,4.31,1.21,9.34,9.34,0,0,1,12.58,11.11,10.1,10.1,0,0,1,.31,12.2,10,10,0,0,1-.73.88h65.18c1.7,0,1.94-.24,1.94-1.94V183.48a11.31,11.31,0,0,1-6.14-7L133.9,172a4.34,4.34,0,0,1,2.86-5.43l4.67-1.45v-4.8A77.63,77.63,0,0,0,137.45,152.64ZM104.78,187h-4.7a16.67,16.67,0,0,1-1.35,3.05L102,193.4a2,2,0,0,1,.19.21,5,5,0,0,1-4,7.94,4.92,4.92,0,0,1-3-1l-.21-.19L91.69,197a16.69,16.69,0,0,1-3,1.17v4.64a5,5,0,0,1-9.93,0v-4.93a16.68,16.68,0,0,1-2.95-1.15l-3,3.23a5,5,0,1,1-7-7l3.23-3A16.69,16.69,0,0,1,67.91,187H63.27a5,5,0,0,1,0-9.93h4.64a16.69,16.69,0,0,1,1.15-2.95l-3.3-3.08,0,0A5.14,5.14,0,0,1,73,163.75l0,0,3.08,3.3a16.68,16.68,0,0,1,2.95-1.15v-4.64a5,5,0,1,1,9.93,0v4.64a16.68,16.68,0,0,1,3,1.17l3.37-3.37.21-.19a5,5,0,0,1,7,7,2,2,0,0,1-.19.21L99,174.1a16.68,16.68,0,0,1,1.17,3h4.64a5,5,0,0,1,0,9.93Z"/><circle class="cls-4" cx="32.38" cy="131.94" r="2.56"/><circle class="cls-4" cx="40.64" cy="131.94" r="2.56"/><rect class="cls-4" x="51.75" y="129.04" width="62.67" height="5.79" rx="2.77" ry="2.77"/><path class="cls-2" d="M263.28,169.8a16.4,16.4,0,0,0-1.79.81c0,.11,0,.22,0,.32a5.3,5.3,0,0,0,3.17,3.74,16.3,16.3,0,0,0,1.2-1.55c.29-.42.51-.81.71-1.17a3.34,3.34,0,0,1-1.83-1h0a4.37,4.37,0,0,1-.83-1.38Z"/><path class="cls-2" d="M261,178l.15-.11.54-.43.5-.4.26-.22a8.29,8.29,0,0,1-.89-.6,8.19,8.19,0,0,1-2.71-4l-.27.2-.51.39-.55.44-.52.42c-.53.43-1,.88-1.53,1.32s-1,.9-1.42,1.34c-.83.82-1.65,1.71-2.37,2.57a24.85,24.85,0,0,0-1.51,2c-.17.25-.3.46-.38.6l-.12.21a1.24,1.24,0,0,0,1.41,1.8l.24-.07.67-.23a24.69,24.69,0,0,0,2.3-1l.05,0a7.67,7.67,0,0,1-.5-4.72,1,1,0,0,1,1.2-.75,1,1,0,0,1,.71.68A10.09,10.09,0,0,1,261,178Z"/><path class="cls-2" d="M268.31,171a6,6,0,0,0,3.73-3.16c-.86-.74-2.36.68-3-.51-.51-1,.06-1.34-.35-1.89h-.31a3.46,3.46,0,0,0-3.45,1.73,2.81,2.81,0,0,0,.55,3.15A2.89,2.89,0,0,0,268.31,171Z"/><path class="cls-4" d="M264.05,166.74a3.58,3.58,0,0,0-.33,1.85l-.79.27a17.9,17.9,0,0,0-3.29,1.64l-.6.4c-.33.22-.66.47-1,.76l-.52.4-.56.44-.36.29-.42,0h-.29c-1,.06-8.83,1.76-16.14,3.48.58-1.71,1.07-3.43,1.47-5.17a34.12,34.12,0,0,0,3.62-.22,5.14,5.14,0,0,0,7.68-1.22,10.2,10.2,0,0,0,11-6.6,7.74,7.74,0,0,0,5.13-6.18c.58-.81,1.12-1.65,1.63-2.51a8.53,8.53,0,0,0,5.41-9,8.25,8.25,0,0,0-.18-1,8.48,8.48,0,0,0-.81-11.13,33.81,33.81,0,0,0-1.36-6.3,8.12,8.12,0,0,0,.08-1.15,8.46,8.46,0,0,0-4.12-7.28,34.24,34.24,0,0,0-9.74-9.68,8.48,8.48,0,0,0-11.69-4.94,32.14,32.14,0,0,0-3.26-.72,8.48,8.48,0,0,0-11.38.15,31.81,31.81,0,0,0-6.32,1.93,8.5,8.5,0,0,0-10.13,6.8l-.07.07a8.51,8.51,0,0,0-6.25,8.19c0,.19,0,.39,0,.6-.36.75-.69,1.51-1,2.26a5.15,5.15,0,0,0-2.25,5.27,16.08,16.08,0,0,0-1.66-1.57,7.67,7.67,0,0,0-1.29-3.06c.3-1.79-.58-3.54-1.64-5.64L202,117a2.38,2.38,0,0,0-2.15-1.4c-1.37,0-2.45,1-3.5,3.4-.65,1.45-1.93,4.8-1,6.84-.43,3.26,0,5.41,1.3,6.41l.1.07a17.54,17.54,0,0,0,1,4.1c-9.88,3.78-25.27,10.86-30.33,17.43-1.21,1.57-1.4,3.86-.55,6.81,1.68,5.86,7.94,14.82,12.56,16.54,6.59,2.44,15.44,3.84,24.29,3.84l1.76,0a60.29,60.29,0,0,0-5.38,4.05c-3.46,1.35-6.27,2.49-8.56,3.46a16.91,16.91,0,0,0-1.45-1.94,15.8,15.8,0,0,0-3.42-3,16.13,16.13,0,0,0-23.91,8.2l.66,1.18a15.1,15.1,0,0,1,27.19-4.06c-8.45,3.62-9.07,4.65-9.48,5.32-1.08,1.79-.82,3.07-.41,3.83a3.35,3.35,0,0,0,2.64,1.66,3.08,3.08,0,0,0,.56,0,36,36,0,0,0,4.19-.45c-.66,1.16-1.25,2.33-1.79,3.5a3,3,0,0,0-.65-.49,2.6,2.6,0,1,0-2.48,4.56,2.92,2.92,0,0,0,1.38.35,35.85,35.85,0,0,0-1.1,4.16,15.26,15.26,0,0,1-5.51,1h-.17l1,1a16.34,16.34,0,0,0,2.3-.28,16.12,16.12,0,0,0,2.16-.58c-.12.75-.21,1.48-.27,2.21h.07a2,2,0,0,1,.65-.34l1.39-.42c0-.12,0-.23,0-.35s.06-.46.1-.7c.06-.4.14-.8.22-1.2l0-.16h0c0-.19.08-.38.12-.57.09-.4.19-.81.3-1.22.07-.25.13-.5.2-.75.12-.42.25-.83.39-1.25.08-.25.16-.5.25-.76.15-.43.32-.86.49-1.29.1-.25.19-.5.3-.75.19-.44.39-.89.6-1.34.11-.24.22-.48.33-.72.23-.47.48-.94.73-1.41.12-.22.22-.44.35-.66.29-.53.6-1.05.92-1.58l.29-.49c.16-.25.33-.5.5-.76a49,49,0,0,1,4.88-6.11.51.51,0,0,0,0-.71.5.5,0,0,0-.71,0,47.35,47.35,0,0,0-4.62,5.7l-2.76.4H188l-1,.14-.19,0-.8.1-.15,0-.8.09h0l-.57.05h-.64l-.13,0-.2,0-.28-.07a1.58,1.58,0,0,1-.32-.14,1.1,1.1,0,0,1-.29-.24.92.92,0,0,1-.11-.17,1,1,0,0,1-.11-.44,1.58,1.58,0,0,1,0-.34,2.83,2.83,0,0,1,.26-.71c.05-.11.11-.22.19-.34a3.8,3.8,0,0,1,1.12-.91l.14-.09.2-.12.68-.39.06,0,.88-.46.28-.14.71-.35.36-.17.77-.36.23-.11c3.72-1.71,8.7-3.71,12.87-5.34l.15-.13q.69-.59,1.41-1.16l1-.76.92-.68q1-.75,2.1-1.47l.56-.37,1.47-.93.38-.23c.69-.42,1.4-.82,2.12-1.22l.86-.47c3.67-.51,9.32-1.47,12.7-2.84a.5.5,0,0,0-.38-.93c-5.08,2.06-15.87,3.21-16,3.22a.49.49,0,0,0-.14,0c-1.52.09-3,.14-4.56.14-8.85,0-17.51-1.46-23.6-3.72a5.75,5.75,0,0,1-1-.48,13.26,13.26,0,0,1-2.16-1.71c-.38-.36-.76-.74-1.14-1.16-.57-.62-1.15-1.3-1.71-2l-.56-.74a35.85,35.85,0,0,1-3.78-6.38q-.18-.4-.34-.8a11.19,11.19,0,0,1-1.06-5.43,3.24,3.24,0,0,1,.6-1.53l0,0q.23-.29.49-.59l.2-.21.38-.41.25-.25.39-.38.29-.27.41-.37.33-.28.44-.36.35-.28.47-.36.37-.28.51-.37.38-.27.56-.38.38-.26.65-.43.33-.22,1-.61.14-.09,1-.58.42-.24.68-.39.48-.27.64-.36.52-.28.63-.34.54-.29.63-.33.56-.29.64-.33.56-.28.65-.32.57-.28.65-.32.57-.28.67-.31.57-.27.72-.33,1-.46.68-.3.62-.27.62-.27.63-.27.59-.25.65-.27.56-.23.66-.27.55-.22.66-.26.53-.21.66-.26.51-.2.67-.26.46-.17.47-.18a1,1,0,0,0,0,.66c1.63,5.15,5.29,5.92,5.45,5.95l.18,0h0a1,1,0,0,0,.2-2,5.31,5.31,0,0,1-3.1-2.67l0,0h0c3,0,6.47-2.31,6.31-5.4,1.27.88,3.16,2.58,3.16,4.9,0,3.41-3.35,4.58-3.49,4.63a.5.5,0,0,0-.31.63s0,.05.06.08a.49.49,0,0,0,.41.26l.16,0s4.17-1.44,4.17-5.58a6.26,6.26,0,0,0-1.9-4.3l1.27-.4a4.65,4.65,0,0,0,2.84,1.07,3.92,3.92,0,0,0,.52,0,.5.5,0,0,0,.43-.56.47.47,0,0,0,0-.12.5.5,0,0,0-.52-.31,3.67,3.67,0,0,1-2.75-1,.5.5,0,0,0-.5-.12l-.16.05-1.91.6c-.22-.18-.43-.34-.63-.49,0-.64.05-1.29.12-1.94h0c.08-.8.2-1.6.34-2.38a3.13,3.13,0,0,1-.12-3.7A3.17,3.17,0,0,1,211,124.6c.31-.87.68-1.72,1.07-2.55.12-.25.23-.51.35-.76h0c0-.16,0-.32,0-.48s0-.31,0-.48h0a6.47,6.47,0,0,1,1.51-4.16,6.53,6.53,0,0,1,1.67-1.42,6.47,6.47,0,0,1,2.09-.79q.46-.48.94-.93a6.57,6.57,0,0,1,5.34-5.84l.27,0a6.46,6.46,0,0,1,.86-.08h0a6.55,6.55,0,0,1,1,.08,6.46,6.46,0,0,1,.94.22q.84-.38,1.71-.71a29.75,29.75,0,0,1,3.57-1.09q.91-.22,1.85-.38a6.52,6.52,0,0,1,1.78-1.38,6.43,6.43,0,0,1,1.07-.44,6.53,6.53,0,0,1,2-.3h0a6.43,6.43,0,0,1,.72,0l.22,0,.48.09.26.07.42.13.26.1.39.17.25.13.37.22.23.14.38.28.18.14a6.58,6.58,0,0,1,.51.47,29.81,29.81,0,0,1,4,.87l.46.12a6.53,6.53,0,0,1,1.61-.72l.24-.05a6.36,6.36,0,0,1,.65-.14l.35,0c.19,0,.38,0,.57,0h0a6.5,6.5,0,0,1,1,.09l.13,0a6.42,6.42,0,0,1,.94.25l.15.05a6.44,6.44,0,0,1,.87.4l.11.07a6.5,6.5,0,0,1,.82.56h0a6.53,6.53,0,0,1,.76.72l0,0a6.53,6.53,0,0,1,.61.82l0,.07a6.49,6.49,0,0,1,.47.9l0,.07a6.47,6.47,0,0,1,.32,1h0a6.5,6.5,0,0,1,.16,1.16,30.11,30.11,0,0,1,7,8,6.47,6.47,0,0,1,2.87.72h0a6.54,6.54,0,0,1,1.41,1l0,0a6.52,6.52,0,0,1,1.07,1.29l.06.1a6.45,6.45,0,0,1,.34.64l.05.11a6.43,6.43,0,0,1,.28.76l0,.13a6.45,6.45,0,0,1,.14.67c0,.07,0,.14,0,.22a5.87,5.87,0,0,1,0,1.5c0,.21-.06.43-.1.63h0a6.49,6.49,0,0,1-2.25,3.73,29.89,29.89,0,0,1,.25,4,6.1,6.1,0,0,1-.44,9.12,6.09,6.09,0,0,1-4.85,7.79,30,30,0,0,1-2.37,3,5.42,5.42,0,0,1-5,4.5,7.71,7.71,0,0,1-10.35,4.62l-.14,0a2.95,2.95,0,0,1-3.85,2.07c-.25,1.07-.52,2.11-.81,3.11l1,0-1,0-.45,0h0l-.79,0a19.93,19.93,0,0,0-.32-5.33.5.5,0,0,0-.6-.37l-.07,0a.49.49,0,0,0-.3.57,22.61,22.61,0,0,1-.11,8.41c-.34,1.25-.72,2.52-1.17,3.82l-.2.55c-.28.77-.57,1.54-.9,2.32h0c6.63-1.61,13.9-3.22,17.4-3.93l-.54.51c-.85.84-1.7,1.76-2.43,2.65a25.91,25.91,0,0,0-1.57,2.09c-.18.27-.32.49-.41.64l0,.08-.1.17a2.25,2.25,0,0,0-.26.8c-2.56,1.33-5.4,2.75-8.07,4.05s-5,2.38-6.78,3.22l-.46.21-.16.39-.22.52-.05.13q-.19.48-.38,1l0,.08q-.2.54-.39,1.1h0q-.2.58-.39,1.19h0c-.21.69-.4,1.4-.58,2.13h0l-.4,1.86c-.91,4.26-.85,4.45-.8,4.59a.48.48,0,0,0,.24.27.49.49,0,0,0,.24.08l.16,0a.5.5,0,0,0,.34-.53c0-.25.22-1.3.49-2.64a23.3,23.3,0,0,1,2.38-.38,6.44,6.44,0,0,1,8.88-.23,5.73,5.73,0,0,1,5.58.77,18.65,18.65,0,0,0,3.11-.65h0c.38-.11.74-.24,1.1-.38a13.08,13.08,0,0,1,4.62-2.75,13.59,13.59,0,0,0,3.44-4.76v0l.17-.42v0l.11-.3v0c.05-.16.08-.25.08-.25l0,.06v0c.06.1.16.29.29.56h0a17.83,17.83,0,0,1,1.38,4.42,13.76,13.76,0,0,1,2.08.3,18.44,18.44,0,0,0-2.09-6.42,2,2,0,0,0-1.71-1l-.3,0a2,2,0,0,0-1.64,1.49,11.52,11.52,0,0,1-7.11,7.17,22.35,22.35,0,0,0-14.94-5.43q-1.09,0-2.23.08l.22-.54c2.15-1,8.75-4.1,14.46-7.07a2.22,2.22,0,0,0,2.12.53l.27-.08.72-.25a25.69,25.69,0,0,0,2.39-1l.19-.1.17.21a5.17,5.17,0,0,0,3.07,1.56,7.51,7.51,0,0,0,1.18.1,5,5,0,0,0,3.11-1,5.93,5.93,0,0,0,2-3.8,1,1,0,0,0-.9-1.09,1,1,0,0,0-1.09.9,3.93,3.93,0,0,1-1.28,2.41,3.46,3.46,0,0,1-2.75.51,3.06,3.06,0,0,1-2.2-1.25,5.38,5.38,0,0,1-.49-3.64,1,1,0,0,0,0-.51,1,1,0,0,0-.71-.68,1,1,0,0,0-1.2.75,7.67,7.67,0,0,0,.5,4.72l-.05,0a24.69,24.69,0,0,1-2.3,1l-.67.23-.24.07a1.24,1.24,0,0,1-1.41-1.8l.12-.21c.09-.14.21-.35.38-.6a24.85,24.85,0,0,1,1.51-2c.72-.86,1.53-1.75,2.37-2.57.45-.45.93-.9,1.42-1.34s1-.89,1.53-1.32l.52-.42.55-.44.51-.39.27-.2a8.19,8.19,0,0,0,2.71,4,8.29,8.29,0,0,0,.89.6l-.26.22-.5.4-.54.43L261,178a8.87,8.87,0,0,1,1,.46l.28-.22.51-.41c.61-.49,1.09-.92,1.52-1.33a17.87,17.87,0,0,0,2.37-2.81,14.74,14.74,0,0,0,1-1.64,4.64,4.64,0,0,0,.85-.11c1.2-.27,4.17-1.49,5.71-6.88a1.26,1.26,0,0,0-1.77-1.47,7.76,7.76,0,0,1-4,.81,4.66,4.66,0,0,0-3.83,1.45,3.8,3.8,0,0,0-.58.85Zm-67-42a2,2,0,0,1-.05-.29c0-.06,0-.13,0-.2s0-.21,0-.32,0-.16,0-.24,0-.23,0-.36l0-.26q0-.19.08-.39l.06-.28c0-.14.07-.27.11-.41l.08-.28.14-.44.09-.26c.06-.18.13-.35.2-.52l.06-.16c.09-.22.19-.44.28-.65l.07-.14.22-.45.11-.19.19-.33.12-.18.18-.25.12-.14.17-.17.08-.06c2.17,1.73,1.94,6.56,1.94,6.61a.65.65,0,0,0,0,.09,2.67,2.67,0,0,1-4,.85c-.09.53-.15,1.06-.2,1.58h0c0-.52.11-1.05.2-1.58a2.16,2.16,0,0,1-.19-.16.9.9,0,0,1-.17-.31S197.08,124.75,197.07,124.7Zm1.69,7.46h0c-.05-.35-.09-.71-.13-1.07a2.79,2.79,0,0,1-.74-.41,1.08,1.08,0,0,1-.27-.32,2.19,2.19,0,0,1-.2-.46,8.13,8.13,0,0,1-.19-2.66c0-.11,0-.23,0-.35h0a3.33,3.33,0,0,0,5.21-1.36,4.11,4.11,0,0,1,.27.65,21.59,21.59,0,0,1,.65,2.38s0,.09,0,.14a3.89,3.89,0,0,1-4.74,2.39c.06.6.15,1.2.25,1.79C198.83,132.63,198.79,132.4,198.75,132.16Zm8.22,1.06c-.2,2.72-3.85,4.5-6.36,4-.75-.59-1.33-2.17-1.69-4h0c0-.07,0-.15,0-.22a4.29,4.29,0,0,0,5.83-3.11,11.12,11.12,0,0,1,1.25,1.07,4.22,4.22,0,0,1,1,1.87C207,132.94,207,133.08,207,133.22Zm68.1,5.31a6.53,6.53,0,0,1,0,.78,6.56,6.56,0,0,0-.24-1.73A6.52,6.52,0,0,1,275.07,138.52Zm-2.38-4.27a6.54,6.54,0,0,1,1.25,1.34,6.54,6.54,0,0,0-1.25-1.34h0Zm-6.07,21.87c.13-.17.24-.35.36-.52-.12.17-.23.35-.36.52a5.77,5.77,0,0,1-.92,2.73A5.77,5.77,0,0,0,266.63,156.12ZM260.75,164a8.23,8.23,0,0,1-3.5,3A8.23,8.23,0,0,0,260.75,164Zm-6.41,3.76-.49,0h0Zm-3-.37a8.29,8.29,0,0,0,.93.22,8.32,8.32,0,0,1-.93-.22l-.08,0Zm-1.74,2.33a3.1,3.1,0,0,1-.94.35A3.1,3.1,0,0,0,249.61,169.69Zm-1.25.37-.27,0h0Zm-11.58,23.45h0ZM265,167.14a3.46,3.46,0,0,1,3.45-1.73h.31c.41.56-.16.91.35,1.89.61,1.18,2.11-.23,3,.51a6,6,0,0,1-3.73,3.16,2.89,2.89,0,0,1-2.79-.68A2.81,2.81,0,0,1,265,167.14Zm-.2,3.82h0a3.34,3.34,0,0,0,1.83,1c-.19.35-.42.74-.71,1.17a16.3,16.3,0,0,1-1.2,1.55,5.3,5.3,0,0,1-3.17-3.74c0-.11,0-.21,0-.32a16.4,16.4,0,0,1,1.79-.81l.66-.23A4.37,4.37,0,0,0,264.77,171Z"/><path class="cls-3" d="M255.76,177.44a1,1,0,0,1,0,.51,5.38,5.38,0,0,0,.49,3.64,3.06,3.06,0,0,0,2.2,1.25,3.46,3.46,0,0,0,2.75-.51,3.93,3.93,0,0,0,1.28-2.41,1,1,0,0,1,.53-.77,4.72,4.72,0,0,0-1-.68,8.87,8.87,0,0,0-1-.46A10.09,10.09,0,0,0,255.76,177.44Z"/><path class="cls-4" d="M104.78,179.1H98.55a14.82,14.82,0,0,0-2.08-5.34l4.45-4.45a3,3,0,0,0-4.15-4.15l-4.45,4.45A14.82,14.82,0,0,0,87,167.54v-6.23a3,3,0,1,0-5.93,0v6.23a14.82,14.82,0,0,0-5.34,2.08l-4.15-4.45a3.14,3.14,0,1,0-4.45,4.45l4.45,4.15a14.82,14.82,0,0,0-2.08,5.34H63.27a3,3,0,0,0,0,5.93H69.5a14.82,14.82,0,0,0,2.08,5.34l-4.45,4.15a3,3,0,1,0,4.15,4.15l4.15-4.45a14.82,14.82,0,0,0,5.34,2.08v6.52a3,3,0,0,0,5.93,0v-6.23A14.82,14.82,0,0,0,92,194.52L96.48,199a3,3,0,0,0,4.15-4.15l-4.45-4.45A14.82,14.82,0,0,0,98.55,185h6.23a3,3,0,0,0,0-5.93ZM84,191a8.89,8.89,0,1,1,8.89-8.89A8.89,8.89,0,0,1,84,191Z"/><path class="cls-2" d="M104.78,177.1h-4.64a16.68,16.68,0,0,0-1.17-3l3.37-3.37a2,2,0,0,0,.19-.21,5,5,0,0,0-7-7l-.21.19L92,167.12a16.68,16.68,0,0,0-3-1.17v-4.64a5,5,0,1,0-9.93,0v4.64a16.68,16.68,0,0,0-2.95,1.15L73,163.8l0,0A5.14,5.14,0,0,0,65.71,171l0,0,3.3,3.08a16.69,16.69,0,0,0-1.15,2.95H63.27a5,5,0,0,0,0,9.93h4.64A16.69,16.69,0,0,0,69.06,190l-3.23,3a5,5,0,0,0-.9,6.88,5,5,0,0,0,4,2A5,5,0,0,0,72.8,200l3-3.23a16.68,16.68,0,0,0,2.95,1.15v4.93a5,5,0,0,0,9.93,0v-4.64a16.69,16.69,0,0,0,3-1.17l3.37,3.37.21.19a4.92,4.92,0,0,0,3,1,5,5,0,0,0,4-7.94,2,2,0,0,0-.19-.21l-3.31-3.31a16.67,16.67,0,0,0,1.35-3.05h4.7a5,5,0,0,0,0-9.93Zm0,7.93H98.55a14.82,14.82,0,0,1-2.37,5.34l4.45,4.45A3,3,0,0,1,96.48,199L92,194.52a14.82,14.82,0,0,1-5.34,2.08v6.23a3,3,0,0,1-5.93,0v-6.52a14.82,14.82,0,0,1-5.34-2.08l-4.15,4.45a3,3,0,1,1-4.15-4.15l4.45-4.15A14.82,14.82,0,0,1,69.5,185H63.27a3,3,0,0,1,0-5.93H69.5a14.82,14.82,0,0,1,2.08-5.34l-4.45-4.15a3.14,3.14,0,1,1,4.45-4.45l4.15,4.45a14.82,14.82,0,0,1,5.34-2.08v-6.23a3,3,0,1,1,5.93,0v6.23a14.82,14.82,0,0,1,5.34,2.08l4.45-4.45a3,3,0,0,1,4.15,4.15l-4.45,4.45a14.82,14.82,0,0,1,2.08,5.34h6.23a3,3,0,0,1,0,5.93Z"/><path class="cls-2" d="M84,173.17a8.89,8.89,0,1,0,8.89,8.89A8.89,8.89,0,0,0,84,173.17ZM84,189a6.89,6.89,0,1,1,6.89-6.89A6.9,6.9,0,0,1,84,189Z"/><path class="cls-4" d="M122.58,135.09a.43.43,0,0,0,.43-.43V129.9a.43.43,0,0,0-.86,0v4.75A.43.43,0,0,0,122.58,135.09Z"/><path class="cls-4" d="M121.28,135.09a.43.43,0,0,0,.43-.43v-4.32a.43.43,0,0,0-.86,0v4.32A.43.43,0,0,0,121.28,135.09Z"/><path class="cls-4" d="M125.17,134.83a.43.43,0,0,0,.39.3h.13a.43.43,0,0,0,.3-.6l-1.73-4.75a.44.44,0,1,0-.82.3Z"/><path class="cls-4" d="M120,135.09a.43.43,0,0,0,.43-.43v-5.18a.43.43,0,1,0-.86,0v5.18A.43.43,0,0,0,120,135.09Z"/><path class="cls-2" d="M155.6,179.42q3.24,7.45,6.75,13.71l.36.64a11.39,11.39,0,0,1,1.66.89,11.23,11.23,0,0,1,1.45,1.12,2.8,2.8,0,0,1,4.76,2.87,2.52,2.52,0,0,1-1.91,1.27,11.25,11.25,0,0,1,.66,2.44,11.46,11.46,0,0,1,.13,1.59c0,.1,0,.19,0,.28a11.18,11.18,0,0,1-1.11,4.73,14.84,14.84,0,0,0,7.94,3.38c.36.37.73.73,1.09,1.08q1.18,1.15,2.38,2.21l1.14-.34c-.7-.6-1.4-1.22-2.08-1.87l-1-1H178a15.26,15.26,0,0,0,5.51-1,35.85,35.85,0,0,1,1.1-4.16,2.92,2.92,0,0,1-1.38-.35,2.6,2.6,0,1,1,2.48-4.56,3,3,0,0,1,.65.49c.54-1.17,1.13-2.34,1.79-3.5a36,36,0,0,1-4.19.45,3.08,3.08,0,0,1-.56,0,3.35,3.35,0,0,1-2.64-1.66c-.41-.76-.67-2,.41-3.83.41-.67,1-1.7,9.48-5.32A15.13,15.13,0,0,0,163.42,193l-.66-1.18q-3.39-6.17-6.53-13.48l0,.09C156,178.77,155.81,179.1,155.6,179.42ZM180.51,187a2.71,2.71,0,1,1,1,3.48A2.56,2.56,0,0,1,180.51,187Zm-2.78,20.43c-.64,1.17-2.32,1.5-3.87.82-.77-.9-1.53-1.85-2.29-2.82a2.11,2.11,0,0,1,.22-1.23,2.35,2.35,0,0,1,1.81-1.14l-.79-1a.5.5,0,1,1,.77-.64l1.4,1.69a4.25,4.25,0,0,1,1,.39C177.64,204.39,178.41,206.13,177.73,207.39Zm-4.28-21.06a2.6,2.6,0,1,1-2.76,2.62A2.7,2.7,0,0,1,173.45,186.33Z"/><path class="cls-2" d="M270.09,197.94q2.48-2.18,5-4.52a.5.5,0,0,0-.68-.73q-2.7,2.51-5.36,4.84c.29.19.56.39.83.6Z"/><path class="cls-2" d="M196.27,224.25l.13.43a2,2,0,0,1,.08.7q1.78.58,3.61,1a43.58,43.58,0,0,0,9.5,1.11l.29-1a42.69,42.69,0,0,1-9.56-1.09C199,225.1,197.6,224.71,196.27,224.25Z"/><path class="cls-2" d="M188,220.63l-.08-.26,0,0-1.28.39.26.16A4.84,4.84,0,0,1,188,220.63Z"/><path class="cls-2" d="M163.14,204.44q-.51-.87-1-1.75l-.92,2.45q.54.92,1.09,1.83A4.87,4.87,0,0,0,163.14,204.44Z"/><path class="cls-2" d="M178,223.34l.21.69a5.63,5.63,0,0,1,2.25,2.59l.89.31.84-1.13q-1.88-1.23-3.64-2.64Z"/><path class="cls-2" d="M172.92,217.9a68.2,68.2,0,0,1-5.7-7.1,11.35,11.35,0,0,1-1.38,1.53,69.48,69.48,0,0,0,5.64,7A4.83,4.83,0,0,1,172.92,217.9Z"/><path class="cls-2" d="M155.23,193.27a11.27,11.27,0,0,1,1.94-.34c-1.62-3.48-3.12-7-4.54-10.47a11.3,11.3,0,0,1-1.75,1c1.2,2.93,2.46,5.89,3.8,8.84a2.57,2.57,0,0,1,.43.64A2.62,2.62,0,0,1,155.23,193.27Z"/><path class="cls-2" d="M259.58,215.56c.1,0,.2.08.3.11a6.4,6.4,0,0,0,2.51.13,59.55,59.55,0,0,0,4.77-4.53.93.93,0,0,0,.05-.09l-2.18-.57A70.12,70.12,0,0,1,259.58,215.56Z"/><path class="cls-2" d="M254.75,221.67a13.69,13.69,0,0,1-1.76-1.2l-.07,0c-1.7,1.15-3.56,2.31-5.56,3.44a78.91,78.91,0,0,1-12.19,5.63l-.68,2.34a79.78,79.78,0,0,0,12.08-5.28c2.54-1.36,4.88-2.78,7-4.18Z"/><path class="cls-2" d="M188.45,229.17l-.15-.06-.19.25,2.82,1-.07-.25Q189.64,229.67,188.45,229.17Z"/><path class="cls-2" d="M195,231.39a4.82,4.82,0,0,1-.46.31,2,2,0,0,1,.89,1.87c1.25.32,2.5.61,3.73.85.74.15,1.48.27,2.21.39,2.26.37,4.49.62,6.67.75a5,5,0,0,1-.16-2,65.93,65.93,0,0,1-9.39-1.32Q196.8,231.86,195,231.39Z"/><path class="cls-2" d="M133.73,144.68a1,1,0,1,0-1.34,1.49,20.08,20.08,0,0,1,1.75,1.81l1.71-1.08A22.19,22.19,0,0,0,133.73,144.68Z"/><path class="cls-4" d="M217.79,230.85l2.9.84a.76.76,0,0,0,.42-1.45l-2.9-.84a.76.76,0,0,0-.42,1.45Z"/><path class="cls-4" d="M218.63,227.94l7.26,2.1a.76.76,0,1,0,.42-1.45l-7.26-2.1a.76.76,0,0,0-.42,1.45Z"/><path class="cls-4" d="M227.15,225.69l-7.26-2.1a.76.76,0,0,0-.42,1.45l7.26,2.1a.76.76,0,1,0,.42-1.45Z"/><path class="cls-4" d="M228,222.78l-7.26-2.1a.76.76,0,1,0-.42,1.45l7.26,2.1a.76.76,0,1,0,.42-1.45Z"/><path class="cls-4" d="M233.3,218l-14.52-4.2a3,3,0,0,0-3.74,2.06l-5,17.42a3,3,0,0,0,2.06,3.74l14.52,4.2a3,3,0,0,0,3.74-2.06l5-17.42A3,3,0,0,0,233.3,218ZM232,222.38l-4.2,14.52a1.51,1.51,0,0,1-1.87,1l-11.62-3.36a1.51,1.51,0,0,1-1-1.87l4.2-14.52a1.51,1.51,0,0,1,1.87-1L231,220.51A1.51,1.51,0,0,1,232,222.38Z"/><path class="cls-6" d="M235.67,227.91l.63-2.19.17-.58.65-2.25.16-.56a4.91,4.91,0,0,0,.1-.53,5,5,0,0,0-3.53-5.69l-4.37-1.26-1-.28-6.12-1.77-3-.88a5,5,0,0,0-6.22,3.43l-3.23,11.17-.29,1v0l-1.38,4.78-.12.43a5.06,5.06,0,0,0-.15.79,5,5,0,0,0,.16,2,5,5,0,0,0,.32.79c0,.07.06.15.1.23a5,5,0,0,0,3,2.4l3.8,1.1,2,.59,2,.58,4.7,1.36h0l1.94.56h0a5,5,0,0,0,1.4.2,4.92,4.92,0,0,0,1.12-.14,5,5,0,0,0,2.26-1.2,5,5,0,0,0,1.44-2.29l2.26-7.81.68-2.34Zm-5.34,11.28a3,3,0,0,1-3.74,2.06l-14.52-4.2a3,3,0,0,1-2.06-3.74l5-17.42a3,3,0,0,1,3.74-2.06L233.3,218a3,3,0,0,1,2.06,3.74Z"/><path class="cls-6" d="M231,220.51l-11.62-3.36a1.51,1.51,0,0,0-1.87,1l-4.2,14.52a1.51,1.51,0,0,0,1,1.87L226,237.93a1.51,1.51,0,0,0,1.87-1l4.2-14.52A1.51,1.51,0,0,0,231,220.51ZM218.11,227a.75.75,0,0,1,.94-.52l7.26,2.1a.76.76,0,1,1-.42,1.45l-7.26-2.1A.76.76,0,0,1,218.11,227Zm-.84,2.9a.75.75,0,0,1,.94-.52l2.9.84a.76.76,0,1,1-.42,1.45l-2.9-.84A.76.76,0,0,1,217.27,229.91Zm9.91,2.05-.63,2.18-.5,1.73-3.46-1-4.88-1.41-2.34-.68.31-1.09,0-.05,0,0a2.73,2.73,0,0,0,1.49,1.08l1.31.38.61.18,1,.28a2.78,2.78,0,0,0,3.41-1.88q0-.13.06-.26l1.72.5a2.76,2.76,0,0,0,.77.11,2.7,2.7,0,0,0,.89-.16h0l.24-.08Zm.48-5.34a.75.75,0,0,1-.94.52l-7.26-2.1a.76.76,0,1,1,.42-1.45l7.26,2.1A.76.76,0,0,1,227.66,226.62Zm.84-2.9a.75.75,0,0,1-.94.52l-7.26-2.1a.76.76,0,1,1,.42-1.45l7.26,2.1A.76.76,0,0,1,228.5,223.72Z"/><path class="cls-4" d="M155.07,170.37l-1.39-4.47a2.34,2.34,0,0,0-2.93-1.54l-13.41,4.16a2.34,2.34,0,0,0-1.54,2.93l1.39,4.47a9.36,9.36,0,0,0,17.87-5.55Zm-3.79.81L148.74,176l-.54,1a1.17,1.17,0,0,1-1.56.49l-1-.54-4.83-2.54a1.2,1.2,0,0,1,1.19-2.08l4.72,2.58,2.54-4.83a1.16,1.16,0,1,1,2,1.08Z"/><path class="cls-6" d="M155.6,179.42c.21-.32.41-.65.59-1l0-.09a11.35,11.35,0,0,0,1.13-3.5.49.49,0,0,1-.19-.25l-.76-2.28a.5.5,0,0,1,.95-.32l.1.3a11.43,11.43,0,0,0-.47-2.52l-1.39-4.47a4.32,4.32,0,0,0-4.14-3.05h0a4.34,4.34,0,0,0-1.29.2l-.46.14-1,.3-2.27.7-1.27.4-1.92.6-1.85.58-4.67,1.45A4.34,4.34,0,0,0,133.9,172l1.39,4.47a11.32,11.32,0,0,0,9.18,7.87,11.51,11.51,0,0,0,1.66.13h.34a11.36,11.36,0,0,0,3-.5,11.49,11.49,0,0,0,1.37-.54,11.18,11.18,0,0,0,4.72-4Zm-6.69,2.66a9.35,9.35,0,0,1-11.71-6.16l-1.39-4.47a2.34,2.34,0,0,1,1.54-2.93l13.41-4.16a2.34,2.34,0,0,1,2.93,1.54l1.39,4.47A9.36,9.36,0,0,1,148.91,182.08Z"/><path class="cls-6" d="M150.78,169.6a1.13,1.13,0,0,0-1.54.5l-2.54,4.83L142,172.35a1.2,1.2,0,1,0-1.19,2.08l4.83,2.54,1,.54a1.17,1.17,0,0,0,1.56-.49l.54-1,2.54-4.83A1.17,1.17,0,0,0,150.78,169.6Z"/><path class="cls-4" d="M271.27,212.83l-.06,0a1.7,1.7,0,0,0-2.28.63,8.5,8.5,0,0,1-9.53,4.18,8.33,8.33,0,0,1-5.71-5l3.29.86a1.7,1.7,0,1,0,.86-3.29l-6.58-1.73a1.7,1.7,0,0,0-2.08,1.21l-1.73,6.58a1.7,1.7,0,1,0,3.29.86l.48-1.81a11.73,11.73,0,0,0,20.79-.17A1.7,1.7,0,0,0,271.27,212.83Z"/><path class="cls-4" d="M256,198.66a11.73,11.73,0,0,0-4.91,5,1.7,1.7,0,0,0,.74,2.29l.06,0,.33.09a1.7,1.7,0,0,0,2-.88,8.5,8.5,0,0,1,9.49-4,8.33,8.33,0,0,1,5.71,5l-3.29-.86a1.7,1.7,0,0,0-.86,3.29l6.58,1.73a1.7,1.7,0,0,0,2.08-1.21l1.73-6.58a1.7,1.7,0,1,0-3.29-.86l-.48,1.81A11.72,11.72,0,0,0,256,198.66Z"/><path class="cls-6" d="M262.5,195.32c-.32,0-.64,0-1,0a13.71,13.71,0,0,0-4.56.8h0a13.08,13.08,0,0,0-4.62,2.75l0,0a13.68,13.68,0,0,0-3,3.89,3.7,3.7,0,0,0,.29,3.85,3.7,3.7,0,0,0-2.37,2.56l-1.5,5.72-.22.85a3.71,3.71,0,0,0-.08.49,3.65,3.65,0,0,0,.4,2.18s0,.09.06.14a3.86,3.86,0,0,0,2.26,1.71h0a3.69,3.69,0,0,0,3.52-.94c.18.19.38.36.57.53s.49.44.74.64a13.69,13.69,0,0,0,1.76,1.2c.35.2.7.38,1.06.54a13.71,13.71,0,0,0,18-6.19,3.77,3.77,0,0,0-.29-3.85,3.93,3.93,0,0,0,2.37-2.56l1.73-6.58a3.7,3.7,0,0,0-2.52-4.48l-.12,0a3.7,3.7,0,0,0-3.53.94,13.66,13.66,0,0,0-1.53-1.35c-.27-.21-.55-.41-.83-.6a13.59,13.59,0,0,0-6.56-2.2Zm9.5,19.79a11.73,11.73,0,0,1-20.79.17l-.48,1.81a1.7,1.7,0,1,1-3.29-.86l1.73-6.58a1.7,1.7,0,0,1,2.08-1.21l6.58,1.73a1.7,1.7,0,1,1-.86,3.29l-3.29-.86a8.33,8.33,0,0,0,5.71,5,8.5,8.5,0,0,0,9.53-4.18,1.7,1.7,0,0,1,2.28-.63l.06,0A1.7,1.7,0,0,1,272,215.12Zm-7.23-4.58.27.07,2.18.57.86.23a3.68,3.68,0,0,0-.87,1l0,.06a6.5,6.5,0,0,1-7.29,3.19c-.1,0-.2-.08-.3-.11a6.33,6.33,0,0,1-.84-.3,3.71,3.71,0,0,0-.4-7l-.69-.18-1.24-.33-1.44-.38a3.7,3.7,0,0,0,1-1.22,6.48,6.48,0,0,1,6.41-3.18l.17,0a6.52,6.52,0,0,1,.65.12c.19,0,.37.13.55.2s.38.12.56.2h0l0,0a3.69,3.69,0,0,0-2.05,2.13h0a3.6,3.6,0,0,0-.13.34A3.7,3.7,0,0,0,264.77,210.54Zm7.13-7.05.48-1.81a1.7,1.7,0,1,1,3.29.86l-1.73,6.58a1.7,1.7,0,0,1-2.08,1.21l-6.58-1.73a1.7,1.7,0,1,1,.86-3.29l3.29.86a8.33,8.33,0,0,0-5.71-5,8.5,8.5,0,0,0-9.49,4,1.7,1.7,0,0,1-2,.88l-.33-.09-.06,0a1.7,1.7,0,0,1-.74-2.29,11.73,11.73,0,0,1,20.79-.17Z"/><path class="cls-4" d="M155,206.36l.76.29.07.15,3-1.35a.58.58,0,0,0,.27-.39l1.63-4.34a.58.58,0,1,0-1.08-.41l-1.55,4.12-2.79,1.18A.58.58,0,0,0,155,206.36Z"/><path class="cls-4" d="M161.5,195.43a9.27,9.27,0,0,0-9.3,1.7l1.1-2.93a.58.58,0,1,0-1.08-.41l-2,5.42a.58.58,0,0,0,.34.75l5.42,2a.58.58,0,0,0,.41-1.08L153,199.65a7,7,0,1,1-1.71,4.55A1.17,1.17,0,0,0,150.1,203h0a1.17,1.17,0,0,0-1.17,1.17,9.27,9.27,0,0,0,9.27,9.16h.11a9.27,9.27,0,0,0,3.2-17.93Z"/><path class="cls-6" d="M167.85,209.86q.26-.44.49-.9a11.18,11.18,0,0,0,1.11-4.73c0-.09,0-.19,0-.28a11.46,11.46,0,0,0-.13-1.59,11.12,11.12,0,0,0-5-7.71,11.39,11.39,0,0,0-1.66-.89l-.46-.2,0,0a11.26,11.26,0,0,0-3.93-.71c-.37,0-.74,0-1.11.08a11.27,11.27,0,0,0-1.94.34,2.62,2.62,0,0,0-.13-.34,2.58,2.58,0,0,0-2.35-1.51h0a2.59,2.59,0,0,0-2.41,1.67l-2,5.42a2.59,2.59,0,0,0,.61,2.75,3.18,3.18,0,0,0-2,2.92,11.31,11.31,0,0,0,11.27,11.17h.13a11.21,11.21,0,0,0,7.52-3,11.35,11.35,0,0,0,1.38-1.53Q167.55,210.35,167.85,209.86Zm-9.55,3.49h-.11a9.27,9.27,0,0,1-9.27-9.16A1.17,1.17,0,0,1,150.1,203h0a1.17,1.17,0,0,1,1.17,1.18,7,7,0,1,0,1.71-4.55l3.36,1.26a.58.58,0,1,1-.41,1.08l-5.42-2a.58.58,0,0,1-.34-.75l2-5.42a.58.58,0,0,1,1.08.41l-1.1,2.93a9.23,9.23,0,1,1,6.1,16.22Zm-5.24-10.3,1.67.63-.19.08-.07,0a2.56,2.56,0,0,0-1.16,1.09,5,5,0,0,1,0-.68A3.14,3.14,0,0,0,153.06,203.05Zm5.06,1.37,1.55-4.12a.58.58,0,0,1,1.08.41l-1.63,4.34a.58.58,0,0,1-.27.39l-3,1.35-.07-.15-.76-.29a.58.58,0,0,1,.29-.76Zm-.55-5.12.37,0a2.54,2.54,0,0,0-.11.23Zm2.79,10.56a.5.5,0,0,1-.89.45l-.6-1.2a4.81,4.81,0,0,1-2.62-.36,2,2,0,0,0,.44-.14l1.57-.71-.31-.62a.5.5,0,0,1,.89-.45l.33.65.5-.23.2-.11a2.58,2.58,0,0,0,1.15-1.51l.19-.51.92-2.45.34-.9,0-.07a4.92,4.92,0,0,1,.63,1.92c0,.08,0,.15,0,.22a5,5,0,0,1,0,.56,4.87,4.87,0,0,1-.83,2.53,4.45,4.45,0,0,1-2.44,1.91Z"/><rect class="cls-4" x="176.39" y="218.37" width="2.87" height="2.87" transform="translate(-56.05 60.94) rotate(-16.84)"/><rect class="cls-4" x="180.52" y="217.12" width="2.87" height="2.87" transform="translate(-55.51 62.08) rotate(-16.84)"/><path class="cls-4" d="M188.48,222.61a2.87,2.87,0,0,0-2.25,1.08l0,0-4.15,5.61-3.19-1.13-.12-.41a3.59,3.59,0,0,0-2.21-2.33l-.62-2.06-2.75.83.46,1.51a3.59,3.59,0,1,0,4.58,5.22l2,.74-1.51,2a3.59,3.59,0,0,0-4.37,2.58s0,0,0,0l1.63.54a1.86,1.86,0,0,1,3.63-.28l0,.13a1.72,1.72,0,0,1-1.14,2.15l-.14,0a1.83,1.83,0,0,1-2.17-.94l-.12,0-1.81-.6a3.55,3.55,0,1,0,6.78-2l9.24-12.1A2.86,2.86,0,0,0,188.48,222.61ZM176,230.56l-.14,0a1.87,1.87,0,1,1,1.06-2.42l0,.13A1.72,1.72,0,0,1,176,230.56Z"/><path class="cls-4" d="M175.5,222l-.83-2.75a2.87,2.87,0,0,0-1.92,3.58Z"/><path class="cls-4" d="M190.76,235.37a2.87,2.87,0,0,0,2.73-2v0L186.61,231l-1.84,2.36,5.08,1.91A2.87,2.87,0,0,0,190.76,235.37Z"/><path class="cls-4" d="M192,217a2.87,2.87,0,0,0-3.58-1.92l.83,2.75Z"/><rect class="cls-4" x="190.01" y="218.75" width="2.87" height="2.87" transform="translate(-55.57 64.9) rotate(-16.84)"/><path class="cls-4" d="M193,230.22a2.87,2.87,0,0,0,1.92-3.58l-2.75.83Z"/><rect class="cls-4" x="191.26" y="222.87" width="2.87" height="2.87" transform="translate(-56.71 65.44) rotate(-16.84)"/><rect class="cls-4" x="184.64" y="215.87" width="2.87" height="2.87" transform="translate(-54.97 63.22) rotate(-16.84)"/><path class="cls-6" d="M189.22,237.12a4.88,4.88,0,0,0,6.16-3.09l0,0a2,2,0,0,0-.81-2.29,4.91,4.91,0,0,0,2.23-5.64,2,2,0,0,0-.34-.65s0,0,0,0a2,2,0,0,0-.08-.7l-.13-.43-.7-2.32a2,2,0,0,1-.42-1.37l-.83-2.75a2,2,0,0,1-.42-1.37,4.87,4.87,0,0,0-6.07-3.25,2,2,0,0,0-.65.34H187a2,2,0,0,0-.58.09l-1.36.41-1.39.42a2,2,0,0,0-.65.34h-.15a2,2,0,0,0-.58.09l-1.42.43h0l-1.14.34-.17,0a2,2,0,0,0-.65.34h-.15a2,2,0,0,0-.58.09l-2.75.83a2,2,0,0,0-.65.34h-.15a2,2,0,0,0-.58.09,4.93,4.93,0,0,0-3.25,6.07,2,2,0,0,1,.42,1.37l0,.16a5.6,5.6,0,0,0,1.8,9.16,5.59,5.59,0,1,0,10.14,1.63l.54-.7.29.14,3.22,1.21,1.86.7Zm3.77-6.9-.83-2.75,2.75-.83A2.87,2.87,0,0,1,193,230.22Zm1.5-5-2.75.83-.83-2.75,2.75-.83Zm-3.55,5.09-2.82-1,.19-.25.09-.11.89-1.16.63-.82,0,0,.06.09a1.18,1.18,0,0,1,.24,1l.08.25.55,1.81Zm2.3-9.21-2.75.83-.83-2.75,2.75-.83Zm-4-6.16a2.87,2.87,0,0,1,2.75,2l-2.75.83-.83-2.75A2.87,2.87,0,0,1,189.24,215Zm-2.21.54.83,2.75-2.75.83-.83-2.75Zm-4.12,1.25.83,2.75-2.75.83-.83-2.75Zm-2.71,5.91a2,2,0,0,0,.65-.34H181a2,2,0,0,0,.49-.07h.09l1.83-.55.92-.28a2,2,0,0,0,.65-.34h.15a2,2,0,0,0,.21,0,2,2,0,0,0,.37-.05l.45-.14.45-.14,1.28-.39h0v0l.08.26a4.76,4.76,0,0,0-2.53,1l-.14.1a4.91,4.91,0,0,0-.65.67l0,0,0,0h0l-.7.94-1.38,1.87-.36.48-.84,1.13-.89-.31A5.63,5.63,0,0,0,178.2,224l-.21-.69.55-.17ZM178.79,218l.83,2.75-2.75.83-.83-2.75Zm-4.12,1.25.83,2.75-2.75.83A2.87,2.87,0,0,1,174.67,219.26ZM181,235.34a3.62,3.62,0,1,1-6.78,2l-1.61-.54a.5.5,0,1,1,.32-.95l1.38.46s0,0,0,0a3.59,3.59,0,0,1,4.37-2.58l1.51-2-2-.74a3.59,3.59,0,1,1-4.58-5.22l-.46-1.51,2.75-.83.62,2.06a3.59,3.59,0,0,1,2.21,2.33l.12.41,3.19,1.13,4.15-5.61,0,0a2.87,2.87,0,0,1,4-.45Zm3.74-2,1.84-2.36,6.88,2.42v0a2.87,2.87,0,0,1-3.63,1.82Z"/><path class="cls-6" d="M176.69,237.58a.5.5,0,0,1-.47.34h0a1.83,1.83,0,0,0,2.17.94l.14,0a1.72,1.72,0,0,0,1.14-2.15l0-.13a1.86,1.86,0,0,0-3.63.28l.41.14A.5.5,0,0,1,176.69,237.58Z"/><path class="cls-6" d="M176.91,228.19a1.87,1.87,0,1,0-1.06,2.42l.14,0a1.72,1.72,0,0,0,1-2.24Z"/><path class="cls-4" d="M142.08,147.57a1.1,1.1,0,0,1-1.17-1.86l2.48-1.56a3.43,3.43,0,0,0-5.35,3.74l-6.5,4.1a.86.86,0,1,0,.91,1.44l6.5-4.1a3.45,3.45,0,0,0,5.7-3.31Z"/><path class="cls-6" d="M145.42,144.18h0a2,2,0,0,0-.75-1.58l-.16-.11a5.48,5.48,0,0,0-2-.93h-.05a5.48,5.48,0,0,0-1-.11h-.11a5.45,5.45,0,0,0-5.45,5.47h0L134.14,148l-3.59,2.27a2.86,2.86,0,1,0,3,4.83l1.61-1a.5.5,0,0,1,.13-.14.48.48,0,0,1,.24-.09l1.88-1.19,1.43-.91c.15.08.31.14.47.21a5.43,5.43,0,0,0,.66.22h.05a5.47,5.47,0,0,0,1.2.13h.15a5.47,5.47,0,0,0,1.34-.21,5.36,5.36,0,0,0,3.7-3.66c0-.12.09-.24.12-.37a5.45,5.45,0,0,0,0-2.49,2.16,2.16,0,0,0-1.17-1.39Zm-.78,3.43a3.38,3.38,0,0,1-5.69,1.72l-6.5,4.1a.86.86,0,1,1-.91-1.44l6.5-4.1a3.4,3.4,0,0,1,5.35-3.74l-2.48,1.56a1.1,1.1,0,1,0,1.17,1.86l2.56-1.54A3.45,3.45,0,0,1,144.63,147.62Z"/><path class="cls-2" d="M67.94,249.26c-1.88,2.21-5.21,2.32-5.86,2.32-3.61,0-5.25-2.24-5.56-4.15l-.5-3.07c-20.55.9-34.72,2.8-34.72,5,0,3.07,27.52,5.56,61.46,5.56s61.46-2.49,61.46-5.56-27.52-5.56-61.46-5.56c-4.8,0-9.47.05-14,.15l.23,1.44A4.79,4.79,0,0,1,67.94,249.26Z"/><path class="cls-2" d="M156.72,171.68a.5.5,0,0,0-.32.63l.76,2.28a.49.49,0,0,0,.19.25.5.5,0,0,0,.28.09l.16,0a.5.5,0,0,0,.32-.63l-.66-2-.1-.3A.5.5,0,0,0,156.72,171.68Z"/><path class="cls-2" d="M158.85,206.84a.5.5,0,0,0-.89.45l.31.62.61,1.22.6,1.2a.5.5,0,1,0,.89-.45l-.5-1-.69-1.39Z"/><path class="cls-7" d="M176.17,237.91h0a.5.5,0,0,0,.16-1l-.41-.14-1.63-.54-1.38-.46a.5.5,0,1,0-.32.95l1.61.54,1.81.6Z"/><path class="cls-7" d="M177,206.8a.5.5,0,0,0,.38-.82L175,203.12l-1.4-1.69a.5.5,0,1,0-.77.64l.79,1,3,3.6A.5.5,0,0,0,177,206.8Z"/><path class="cls-2" d="M256.35,187.32l-5.35,5a.5.5,0,1,0,.68.73l5.35-5a.5.5,0,1,0-.68-.73Z"/><path class="cls-2" d="M135.23,154.62l1.14,1.52a.5.5,0,1,0,.8-.6L136,154a.49.49,0,0,0-.46-.19.48.48,0,0,0-.24.09.5.5,0,0,0-.1.7Z"/><path class="cls-3" d="M63.89,241.42a5.12,5.12,0,0,0,2.6-1.56h0a5.11,5.11,0,0,1-2.61,1.55Z"/><path class="cls-3" d="M65.77,239.1c.06-.05.13-.29,0-.84a9.57,9.57,0,0,0-.51-1.44c-.07-.17-.13-.31-.16-.41a.51.51,0,0,1,.13-.52.52.52,0,0,0-.17.56c0,.1.09.24.16.41a9.56,9.56,0,0,1,.51,1.44c.13.55.06.78,0,.84l-.06.07,0,0Z"/><path class="cls-3" d="M58.84,236.52a5.37,5.37,0,0,1-1.26-.65l-.07-.05,0,.05.06,0a5.38,5.38,0,0,0,1.26.65l.43,2.65.05,0Z"/><path class="cls-3" d="M51,234.28a5.52,5.52,0,0,1-4.83-9.36,5.52,5.52,0,0,0,4.79,9.4,3.38,3.38,0,0,0,1.4,3,3.3,3.3,0,0,0,1.58.6l0,0a3.35,3.35,0,0,1-1.51-.59A3.38,3.38,0,0,1,51,234.28Z"/><path class="cls-3" d="M67.77,234.35a.52.52,0,0,1,.08-.19.51.51,0,0,0-.12.23,14,14,0,0,1-1,3.29v0A13.76,13.76,0,0,0,67.77,234.35Z"/><path class="cls-3" d="M73.12,235.24a4.75,4.75,0,0,0,.07-1.46,10.1,10.1,0,0,0,1.13-1.08,9.86,9.86,0,0,0,2.5-8.4,10.11,10.11,0,0,0-2.08-4.68,9.33,9.33,0,0,0-12.58-11.11,8.25,8.25,0,0,0-4.31-1.21,8.36,8.36,0,0,0-5.72,2.28,9.76,9.76,0,0,0-9,12.43,9.9,9.9,0,0,0-.77.95A9.78,9.78,0,0,0,48,238.17a7.62,7.62,0,0,0,5.74,3.73,12.8,12.8,0,0,0,2.13,1.34l.18,1.12.5,3.07c.31,1.92,2,4.15,5.56,4.15.65,0,4-.11,5.86-2.32a4.79,4.79,0,0,0,1.1-3.87l-.23-1.44-.07-.41a9.77,9.77,0,0,0,1.08-1l.14-.16a12.83,12.83,0,0,0,2.46-4.47c.23-.71.41-1.38.55-2C73,235.66,73.07,235.44,73.12,235.24Zm-2.81-2.17a2.51,2.51,0,0,1,.4,1.93,13.19,13.19,0,0,1-2.65,6.1l-.11.12a7.24,7.24,0,0,1-1.87,1.48l.53,3.26A2.51,2.51,0,0,1,66,248a5.73,5.73,0,0,1-4.15,1.53c-2.2,0-3.17-1.17-3.35-2.27l-.88-5.37a11,11,0,0,1-3.28-2h0a5.31,5.31,0,0,1-3.12-1,5.36,5.36,0,0,1-1.92-2.54,7.53,7.53,0,0,1-3.77-13.51A7.52,7.52,0,0,1,52.27,212l.6,0a6.09,6.09,0,0,1,4.76-2.3,6,6,0,0,1,3.54,1.14,6.09,6.09,0,0,1,.55.45,7.11,7.11,0,0,1,3.8-1.1,7.09,7.09,0,0,1,6.42,10.1,7.85,7.85,0,0,1-1.63,12.72Z"/><path class="cls-3" d="M63.77,235.94h0a5.39,5.39,0,0,0,.5-.38,5.36,5.36,0,0,1-.51.39Z"/><path class="cls-3" d="M63.07,236.36h0l.27-.15-.3.14Z"/><path class="cls-3" d="M62.06,213.62a5.08,5.08,0,0,0-.61.67h0A5.08,5.08,0,0,1,62.06,213.62Z"/><path class="cls-3" d="M54.37,213.41l.07-.08s-.08.08-.11.12a4.06,4.06,0,0,0-.43.78h0A4.08,4.08,0,0,1,54.37,213.41Z"/><path class="cls-3" d="M47.82,216.29a5.54,5.54,0,0,1,.52-.61,5.48,5.48,0,0,0,.12,7.87l.06,0A5.53,5.53,0,0,1,47.82,216.29Z"/><path class="cls-3" d="M66.15,231.92v0l.48,0a5.85,5.85,0,0,0,4.18-1.76A5.85,5.85,0,0,1,66.15,231.92Z"/><path class="cls-3" d="M60.53,246.91l-1.06-6.52a9.27,9.27,0,0,1-4.31-2.61h-.05l.06.08a9.35,9.35,0,0,0,4.26,2.56L60.49,247c.07.42.66.59,1.37.59A4.86,4.86,0,0,0,64,247C62.92,247.61,60.67,247.75,60.53,246.91Z"/><path class="cls-3" d="M70.92,44.93a17,17,0,0,0,.46,4.59h.71A21.86,21.86,0,0,1,70.92,44.93Z"/><path class="cls-2" d="M73.25,50.28a.5.5,0,0,0,0-.48A18.77,18.77,0,0,1,71.88,41a8.56,8.56,0,0,1,1-3c1.32-2.37,3.86-3.82,7.55-4.32a14.46,14.46,0,0,1,13.09,4.81,21.45,21.45,0,0,1,4,6.14.5.5,0,0,0,1-.08c.06-.29,1.49-7,8.43-5.66s12.47,11.86,12.52,12a.5.5,0,0,0,.45.27H138.4a.5.5,0,0,0,0-1H120.13c-.93-1.75-6.1-10.89-13.08-12.23-5.91-1.12-8.34,3-9.19,5.17-1.65-3.23-7.06-11.81-17.6-10.39-4,.55-6.81,2.17-8.29,4.83a11.93,11.93,0,0,0-1.05,7.41,21.86,21.86,0,0,0,1.17,4.59H51.51a.5.5,0,0,0,0,1H72.83A.5.5,0,0,0,73.25,50.28Z"/><path class="cls-3" d="M51.14,54.9l87.87,0h0a1,1,0,0,0,0-2H118.58c-1.83-3.35-6.34-10.53-12-11.61-7.51-1.43-9,6.05-9,6.05s-5-13-17.62-11.27c-4.51.61-6.9,2.54-8.07,4.89a18.77,18.77,0,0,0,1.4,8.83.5.5,0,0,1-.46.7h-1.2a19.54,19.54,0,0,0,.82,2.39H51.14a1,1,0,0,0,0,2Z"/><path class="cls-4" d="M166.19,123.45a.14.14,0,0,0,.28,0,4.63,4.63,0,0,1,3.34-3.34.14.14,0,0,0,0-.28,4.63,4.63,0,0,1-3.34-3.34.14.14,0,0,0-.28,0,4.63,4.63,0,0,1-3.34,3.34.14.14,0,0,0,0,.28A4.63,4.63,0,0,1,166.19,123.45Z"/><path class="cls-4" d="M175,133a.25.25,0,0,0,.5,0,8.19,8.19,0,0,1,5.91-5.9.25.25,0,0,0,0-.5,8.19,8.19,0,0,1-5.9-5.91.25.25,0,0,0-.5,0,8.15,8.15,0,0,1-5.91,5.9.25.25,0,0,0,0,.5A8.19,8.19,0,0,1,175,133Z"/><path class="cls-4" d="M153.13,136.34a12.24,12.24,0,0,1,8.83,8.83.38.38,0,0,0,.75,0,12.24,12.24,0,0,1,8.83-8.83.38.38,0,0,0,0-.75,12.24,12.24,0,0,1-8.83-8.83.38.38,0,0,0-.75,0,12.24,12.24,0,0,1-8.83,8.83A.38.38,0,0,0,153.13,136.34Z"/><path class="cls-2" d="M59.28,239.23l-.05,0v.06a10.35,10.35,0,0,1-1.84-.87l-.11,0a4.37,4.37,0,0,1-2-2.41l0-.11,0-.14a3.86,3.86,0,0,1-.12-.56s0-.08,0-.13a.49.49,0,0,0-.2-.35.56.56,0,0,0-.49,0c-.28.11-.31.77-.07,1.61a5.09,5.09,0,0,0,.87,1.52,9.27,9.27,0,0,0,4.31,2.61l1.06,6.52c.14.84,2.38.7,3.51.12a2,2,0,0,0,.31-.19l0,0,.07-.07a.56.56,0,0,0,.18-.47l-.79-4.85h0v0a5.11,5.11,0,0,0,2.61-1.55l0,0a11.28,11.28,0,0,0,2.21-5.2.52.52,0,0,0-.41-.61h-.1a.52.52,0,0,0-.3.1.51.51,0,0,0-.08.08h0a.52.52,0,0,0-.08.19,13.76,13.76,0,0,1-1.06,3.36v0l0,.07a12.37,12.37,0,0,0-.48-1.29c-.06-.14-.11-.27-.14-.33a.52.52,0,0,0-.49-.35l-.16,0a.47.47,0,0,0-.29.62c0,.1.09.24.16.41a9.57,9.57,0,0,1,.51,1.44c.13.55.06.78,0,.84l-.08.09,0,0,0,0a4.13,4.13,0,0,1-2,1.18l-.49-3a5.84,5.84,0,0,1-2,.35H60.9a.5.5,0,0,1-.45-.54.49.49,0,0,1,.15-.3,5.4,5.4,0,0,1-1.76-.36Z"/><path class="cls-2" d="M62.79,236.47l.27-.12v0Z"/><path class="cls-5" d="M55.08,235.09s0,0,0-.07,0,.08,0,.13Z"/><path class="cls-5" d="M54.3,236.26v.06a4.35,4.35,0,0,0,.8,1.47h.05A5.09,5.09,0,0,1,54.3,236.26Z"/><path class="cls-5" d="M62.05,226.19c-.64.26-1.34.5-2,.74C60.72,226.69,61.41,226.45,62.05,226.19Z"/><path class="cls-5" d="M63.78,225.43c-.51.22-1.08.51-1.73.76C62.69,225.95,63.27,225.65,63.78,225.43Z"/><path class="cls-5" d="M58,227.55c-.66.18-1.3.29-1.84.42C56.65,227.84,57.29,227.73,58,227.55Z"/><path class="cls-5" d="M70.05,221.38a5.87,5.87,0,0,0-.86-.51,5.09,5.09,0,0,0-.69-7.66,5.07,5.07,0,0,0-5.16-.46l-.13.06-.42.24a5,5,0,0,0-.58.43l-.15.14a5.08,5.08,0,0,0-.6.67h0l0,0a4.05,4.05,0,0,0-6.34-1.66l-.09.07a4.1,4.1,0,0,0-.54.59l-.07.08a4.08,4.08,0,0,0-.46.82h0l0,0a5.54,5.54,0,0,0-4.64.67h0c-.13.08-.25.18-.37.27l-.32.27-.2.19a5.48,5.48,0,0,0,.18,7.85l-.06,0,0,0A5.51,5.51,0,0,0,51,234.28a3.38,3.38,0,0,0,1.4,3,3.35,3.35,0,0,0,1.51.59,4.93,4.93,0,0,1-.57-1.24c-.62-2.15.26-2.73.67-2.89a1.54,1.54,0,0,1,1.37.1,1.51,1.51,0,0,1,.69,1.17,3.54,3.54,0,0,0,.81,1.77c.07-.08.15-.15.21-.24a3.39,3.39,0,0,0,.37-.66h0l0-.05.07.05a5.92,5.92,0,0,0,3,1,.5.5,0,0,1,.39-.15,4.84,4.84,0,0,0,1.8-.26l.27-.13.3-.14.14-.08a3,3,0,0,0,.26-.17,5.36,5.36,0,0,0,.51-.39l.24-.22a5.44,5.44,0,0,0,.51-.58l.07-.08a5.4,5.4,0,0,0,1-2.71h0v0a5.82,5.82,0,0,0,3.9-10.54Zm-7.57-2.23a1.05,1.05,0,0,1,1.33.67l.72,2.16a2.51,2.51,0,0,0-2,.69l-.72-2.19A1.06,1.06,0,0,1,62.48,219.16Zm-9.75,4.34a1.05,1.05,0,1,1,2-.66l.72,2.16a2.51,2.51,0,0,0-2,.69Zm13.45,1.32a8.66,8.66,0,0,1-.44,1.27,10.25,10.25,0,0,1-.52,1A8.9,8.9,0,0,1,64,228.71l-.35.32h0a6.83,6.83,0,0,1-2.43,1.45l0,0h-.05a6.83,6.83,0,0,1-2.82.29h0a2,2,0,0,1,.18-.2,1.13,1.13,0,0,0-.19.19c-.16,0-.32,0-.48-.05a8.58,8.58,0,0,1-1.9-.56,9.51,9.51,0,0,1-1-.51,8.2,8.2,0,0,1-1.11-.75l-.17-.13a.18.18,0,0,1,0-.24.15.15,0,0,1,.06-.05l.63-.26h0l.87-.35,1.53-.57c1-.37,2-.72,3.07-1.07s2.07-.67,3.11-1l1.57-.45.93-.25.64-.16a.17.17,0,0,1,.2.12.18.18,0,0,1,0,.09Z"/><path class="cls-4" d="M62.54,222.68a2.51,2.51,0,0,1,2-.69l-.72-2.16a1.05,1.05,0,0,0-2,.66Z"/><path class="cls-4" d="M55.45,225l-.72-2.16a1.05,1.05,0,1,0-2,.66l.72,2.19A2.51,2.51,0,0,1,55.45,225Z"/><path class="cls-4" d="M66,224.4l-.64.16-.93.25-1.57.45c-1,.31-2.07.65-3.11,1s-2.05.7-3.07,1.07l-1.53.57-.87.35h0l-.63.26a.15.15,0,0,0-.06.05.18.18,0,0,0,0,.24l.17.13a8.2,8.2,0,0,0,1.11.75,9.51,9.51,0,0,0,1,.51,8.58,8.58,0,0,0,1.9.56c.17,0,.32,0,.48.05a1.13,1.13,0,0,1,.19-.19,4.3,4.3,0,0,1,2.41-.94h0a3.84,3.84,0,0,1,2.74-.63l.35-.32a8.9,8.9,0,0,0,1.19-1.59,10.25,10.25,0,0,0,.52-1,8.66,8.66,0,0,0,.44-1.27l.05-.21a.18.18,0,0,0,0-.09A.17.17,0,0,0,66,224.4ZM56.12,228c.54-.13,1.18-.24,1.84-.42C57.29,227.73,56.65,227.84,56.12,228Zm5.94-1.77c-.64.26-1.33.5-2,.74.69-.24,1.39-.48,2-.74s1.22-.54,1.73-.76C63.27,225.65,62.69,225.95,62.05,226.19Z"/><path class="cls-2" d="M60.95,229.66h0a4.3,4.3,0,0,0-2.41.94,2,2,0,0,0-.18.2h0a6.83,6.83,0,0,0,2.82-.29h.05l0,0A6.83,6.83,0,0,0,63.7,229h0A3.84,3.84,0,0,0,60.95,229.66Z"/><path class="cls-4" d="M74.38,224.87a7.79,7.79,0,0,0-2.44-4.52,7.09,7.09,0,0,0-6.42-10.1,7.11,7.11,0,0,0-3.8,1.1,6.09,6.09,0,0,0-.55-.45,6,6,0,0,0-3.54-1.14,6.09,6.09,0,0,0-4.76,2.3l-.6,0a7.52,7.52,0,0,0-6.77,10.82,7.53,7.53,0,0,0,3.77,13.51,5.36,5.36,0,0,0,1.92,2.54,5.31,5.31,0,0,0,3.12,1h0a11,11,0,0,0,3.28,2l.88,5.37c.18,1.1,1.15,2.27,3.35,2.27A5.73,5.73,0,0,0,66,248a2.51,2.51,0,0,0,.6-2.06l-.53-3.26A7.24,7.24,0,0,0,68,241.22l.11-.12a13.19,13.19,0,0,0,2.65-6.1,2.51,2.51,0,0,0-.4-1.93,7.84,7.84,0,0,0,4.07-8.2Zm-3,4.68A6,6,0,0,1,66.63,232l-.48,0h0a5.4,5.4,0,0,1-1,2.71l-.07.08a5.44,5.44,0,0,1-.51.58l-.24.22a5.39,5.39,0,0,1-.5.38h0a3,3,0,0,1-.26.17l-.14.08-.27.15h0l-.27.12a4.84,4.84,0,0,1-1.8.26.5.5,0,0,0-.39.15.49.49,0,0,0-.15.3.5.5,0,0,0,.45.54h.32a5.84,5.84,0,0,0,2-.35l.49,3a4.13,4.13,0,0,0,2-1.18l0,0,.06-.07c.06-.05.13-.29,0-.84a9.56,9.56,0,0,0-.51-1.44c-.07-.17-.13-.31-.16-.41a.53.53,0,0,1,.33-.66l.16,0a.52.52,0,0,1,.49.35c0,.06.08.19.14.33a12.37,12.37,0,0,1,.48,1.29l0-.07a14,14,0,0,0,1-3.29.51.51,0,0,1,.12-.23h0a.51.51,0,0,1,.08-.08.52.52,0,0,1,.3-.1h.1a.52.52,0,0,1,.41.61,11.28,11.28,0,0,1-2.21,5.2l0,0h0a5.12,5.12,0,0,1-2.6,1.56h0l.79,4.85a.56.56,0,0,1-.18.47l-.07.07,0,0A2,2,0,0,1,64,247a4.86,4.86,0,0,1-2.18.51c-.72,0-1.31-.18-1.37-.59l-1.06-6.52a9.35,9.35,0,0,1-4.26-2.56l-.06-.08a4.35,4.35,0,0,1-.8-1.47v-.06c-.23-.85-.21-1.51.07-1.61a.56.56,0,0,1,.49,0,.49.49,0,0,1,.2.35s0,0,0,.07v.05a3.86,3.86,0,0,0,.12.56l0,.14,0,.11a4.37,4.37,0,0,0,2,2.41l.11,0a10.35,10.35,0,0,0,1.84.87v-.06l-.43-2.65a5.38,5.38,0,0,1-1.26-.65l-.06,0h0a3.39,3.39,0,0,1-.37.66c-.06.09-.14.16-.21.24a3.54,3.54,0,0,1-.81-1.77,1.51,1.51,0,0,0-.69-1.17,1.54,1.54,0,0,0-1.37-.1c-.41.15-1.29.74-.67,2.89a4.93,4.93,0,0,0,.57,1.24l0,0a3.3,3.3,0,0,1-1.58-.6,3.38,3.38,0,0,1-1.4-3,5.56,5.56,0,0,1-.95.08,5.53,5.53,0,0,1-1.55-10.83l0,0a5.48,5.48,0,0,1-.12-7.87l.2-.19.32-.27c.12-.09.24-.19.37-.27h0a5.54,5.54,0,0,1,4.64-.67l0,0a4.06,4.06,0,0,1,.43-.78s.08-.08.11-.12a4.1,4.1,0,0,1,.54-.59l.09-.07a4.06,4.06,0,0,1,6.34,1.66l0,0a5.08,5.08,0,0,1,.61-.67l.15-.14a5,5,0,0,1,.58-.43l.42-.24.13-.06a5.09,5.09,0,0,1,5.85,8.12,5.85,5.85,0,0,1,2.2,8.68Z"/><path class="cls-3" d="M203.69,74.7a9.23,9.23,0,0,0,.17,2h.33A12.51,12.51,0,0,1,203.69,74.7Z"/><path class="cls-2" d="M205.34,77.46a.5.5,0,0,0,0-.48,9.55,9.55,0,0,1-.64-5.41,4.24,4.24,0,0,1,.38-1,5.05,5.05,0,0,1,4-2.29c6.55-.89,9.16,5.67,9.27,5.95a.5.5,0,0,0,.51.32.47.47,0,0,0,.14-.06.48.48,0,0,0,.31-.34s0-.1.05-.22a3.6,3.6,0,0,1,4.37-2.76c3.84.73,6.79,6,6.81,6.07a.5.5,0,0,0,.44.26h10.32a.5.5,0,0,0,0-1h-10c-.68-1.14-3.53-5.58-7.35-6.31a4.47,4.47,0,0,0-5.19,2.56c-1.16-2.07-4.2-6.22-9.79-5.46-2.31.31-3.91,1.26-4.77,2.8a7.06,7.06,0,0,0-.56,4.57,12.51,12.51,0,0,0,.51,2H193.06a.5.5,0,0,0,0,1h11.86A.5.5,0,0,0,205.34,77.46Z"/><path class="cls-3" d="M192.91,81h48.87a1,1,0,1,0,0-2H230.21c-1-1.86-3.52-5.86-6.67-6.47a3.86,3.86,0,0,0-4.1,1.43c0,.12,0,.2-.05.22a.48.48,0,0,1-.31.34,5.37,5.37,0,0,0-.55,1.38s-2.77-7.22-9.8-6.26a5.89,5.89,0,0,0-4,1.93,9.55,9.55,0,0,0,.64,5.41.5.5,0,0,1-.46.7h-.82a10.66,10.66,0,0,0,.46,1.32H192.87a1,1,0,0,0,0,2Z"/></svg>