<svg xmlns="http://www.w3.org/2000/svg" viewBox="0 0 64 64"><defs><style>.cls-1{fill:none;}.cls-2{fill:#fff;}.cls-3{fill:#e1e1e5;}.cls-4{fill:#a0a7e6;}.cls-5{fill:#f9f9fa;}.cls-6{fill:#cd6f14;}.cls-7{fill:#a4000f;}</style></defs><title>Artboard 1</title><g id="Layer_1" data-name="Layer 1"><rect class="cls-1" width="64" height="64"/></g><g id="Layer_7" data-name="Layer 7"><path class="cls-1" d="M3.62,44.42H42.49L56.8,60a1.69,1.69,0,0,0,1.23.45,6.19,6.19,0,0,0,3.94-2,5.83,5.83,0,0,0,2-4.21,6,6,0,0,1-2,4.1c-1.86,1.86-4.19,2.57-5.18,1.58L42.49,44.31H3.62A3.55,3.55,0,0,1,.07,40.77V27h0V40.88A3.55,3.55,0,0,0,3.62,44.42Z"/><path class="cls-1" d="M53.93,44.3l.1.09a3.53,3.53,0,0,0,3.4-3.51v-.11A3.54,3.54,0,0,1,53.93,44.3Z"/><path class="cls-2" d="M52.52,43h1.36a2.25,2.25,0,0,0,2.25-2.25V26.9a2.25,2.25,0,0,0-2.25-2.25H46.43A19.7,19.7,0,0,1,42.53,35l1.7,1.7a2.19,2.19,0,0,1,2.06.59Z"/><path class="cls-2" d="M40.36,40.57l-1.7-1.7A19.82,19.82,0,0,1,7,24.66H3.62A2.25,2.25,0,0,0,1.37,26.9V40.77A2.25,2.25,0,0,0,3.62,43H41.3l-.35-.38A2.19,2.19,0,0,1,40.36,40.57Z"/><path class="cls-3" d="M3.62,44.31H42.49L41.3,43H3.62a2.25,2.25,0,0,1-2.25-2.25V26.9a2.25,2.25,0,0,1,2.25-2.25H7c0-.42-.05-.84-.06-1.25,0,0,0,0,0,.07H3.62A3.55,3.55,0,0,0,.07,27V40.77A3.55,3.55,0,0,0,3.62,44.31Z"/><path class="cls-3" d="M53.88,24.66a2.25,2.25,0,0,1,2.25,2.25V40.77A2.25,2.25,0,0,1,53.88,43H52.52l.71.65.7.64a3.54,3.54,0,0,0,3.5-3.53V27a3.55,3.55,0,0,0-3.54-3.54H46.46s0,0,0,0c0,.41,0,.82,0,1.23Z"/><path class="cls-4" d="M12.68,37.07a19.84,19.84,0,0,0,26,1.8l1.7,1.7a6,6,0,0,1,3.87-3.87L42.53,35a19.7,19.7,0,0,0,3.9-10.35c0-.41,0-.82,0-1.23A19.78,19.78,0,0,0,42.2,10.8l-.26-.31c-.38-.46-.78-.92-1.21-1.35A19.82,19.82,0,0,0,6.89,23.4c0,.42,0,.84.06,1.25A19.74,19.74,0,0,0,12.68,37.07ZM11.44,17.74a16.07,16.07,0,0,1,1.16-2.6h.09a16.12,16.12,0,0,1,28,0h.07c.1.18.16.39.26.58s.21.34.29.52L41.21,16a16.49,16.49,0,0,1,.76,1.7A16.16,16.16,0,0,1,13,31.65c0,.07.06.15.09.23-.15-.24-.27-.5-.41-.75s-.26-.46-.38-.7-.29-.56-.41-.86a16,16,0,0,1-.67-1.77l0-.12a16.11,16.11,0,0,1-.46-2.08l0-.15a15.54,15.54,0,0,1,.71-7.71Z"/><path class="cls-5" d="M27.75,8.8a16.13,16.13,0,0,0-12.83,6.35H40.56A16.11,16.11,0,0,0,27.75,8.8Z"/><path class="cls-2" d="M10.57,23.16a16.11,16.11,0,0,1,.95-5.41h-.07a15.54,15.54,0,0,0-.71,7.71A16.23,16.23,0,0,1,10.57,23.16Z"/><path class="cls-2" d="M11.57,25A16.09,16.09,0,0,0,13,31.65,16.15,16.15,0,0,0,42,17.74H13.29A16.08,16.08,0,0,0,11.57,25Z"/><path class="cls-3" d="M10.57,23.16a16.23,16.23,0,0,0,.17,2.3l0,.15a16.11,16.11,0,0,0,.46,2.08l0,.12a16,16,0,0,0,.67,1.77c.13.29.27.57.41.86s.25.47.38.7.26.51.41.75c0-.07-.06-.15-.09-.23a16.05,16.05,0,0,1,.26-13.9H42a16.49,16.49,0,0,0-.76-1.7l.15.21c-.09-.18-.19-.35-.29-.52s-.16-.4-.26-.58h-.07a16.12,16.12,0,0,0-28,0H12.6a16.07,16.07,0,0,0-1.16,2.6h.07A16.11,16.11,0,0,0,10.57,23.16ZM27.75,8.8a16.11,16.11,0,0,1,12.81,6.35H14.92A16.13,16.13,0,0,1,27.75,8.8Z"/><path class="cls-6" d="M45.81,47.93l5.77-5.77,1.64,1.51L52.52,43l-6.23-5.72a2.19,2.19,0,0,0-2.06-.59,6,6,0,0,0-3.87,3.87,2.19,2.19,0,0,0,.59,2.06l.35.38,1.19,1.3L56.8,59.9c1,1,3.32.28,5.18-1.58a6,6,0,0,0,2-4.1,1.58,1.58,0,0,0-.43-1L60,50l-6.41,6.41Z"/><path class="cls-7" d="M53.23,43.66l-1.64-1.51-5.77,5.77,7.81,8.5L60,50l-6.11-5.61.1,0-.1-.09Z"/></g></svg>