<svg id="Layer_1" data-name="Layer 1" xmlns="http://www.w3.org/2000/svg" viewBox="0 0 32 32"><defs><style>.cls-1{fill:none;}.cls-2{fill:#767aa8;}.cls-3{fill:#f9f9fa;}.cls-4{fill:#e1e1e5;}.cls-5{fill:#fff;}.cls-6{fill:#0a84ff;}.cls-7{fill:#f5f5f7;}</style></defs><title>icons</title><path class="cls-1" d="M20.51,8.55h0V7.2a.5.5,0,0,0-.08-.25.5.5,0,0,1,0,.17Z"/><path class="cls-1" d="M26.67,8.55h0a.26.26,0,0,0-.07-.15.25.25,0,0,1,0,.11Z"/><path class="cls-1" d="M28.11,25.26A1.07,1.07,0,0,1,27,26.33H19.09a1.06,1.06,0,0,1-1-.6,1.07,1.07,0,0,0,1,.69h7.95a1.07,1.07,0,0,0,1.07-1.07V9.7A1,1,0,0,0,28,9.23a1.06,1.06,0,0,1,.08.39Z"/><path class="cls-1" d="M4.67,21.81a.47.47,0,0,1-.4-.22.47.47,0,0,0,.44.31H18v-.08Z"/><path class="cls-2" d="M4.67,21.81H18V20.71H5.63a.41.41,0,0,1-.41-.41V9h13a1.05,1.05,0,0,1,.86-.46h1.42V7.11A.43.43,0,0,0,20,6.69H4.75a.51.51,0,0,0-.51.51V21.45a.41.41,0,0,0,0,.14A.47.47,0,0,0,4.67,21.81ZM19.21,7.46a.42.42,0,0,1,.38.38.35.35,0,0,1-.35.35.42.42,0,0,1-.38-.38A.35.35,0,0,1,19.21,7.46Zm-1.09,0a.35.35,0,1,1-.35.35A.35.35,0,0,1,18.12,7.49Zm-10.32.3a.38.38,0,0,1,.38-.38h8.2a.38.38,0,0,1,.38.38v0a.38.38,0,0,1-.38.38H8.17a.38.38,0,0,1-.38-.38ZM6.55,7.46a.35.35,0,1,1-.35.35A.35.35,0,0,1,6.55,7.46Zm-1.12,0a.35.35,0,1,1-.35.35A.35.35,0,0,1,5.43,7.46Z"/><circle class="cls-3" cx="5.43" cy="7.81" r="0.35"/><circle class="cls-3" cx="6.55" cy="7.81" r="0.35"/><rect class="cls-3" x="7.79" y="7.41" width="8.96" height="0.79" rx="0.38" ry="0.38"/><path class="cls-3" d="M17.82,19.1a1.17,1.17,0,0,1-1.17-1.17V17a1.1,1.1,0,0,1-.62.21,1.11,1.11,0,0,1-.68-.24l-3-2.28a1.12,1.12,0,0,1,0-1.78l3-2.28a1.11,1.11,0,0,1,.68-.24,1.13,1.13,0,0,1,1.13,1.12v.36H18V9.62A1,1,0,0,1,18.24,9h-13V20.3a.41.41,0,0,0,.41.41H18V19.1Z"/><circle class="cls-3" cx="18.12" cy="7.84" r="0.35"/><path class="cls-3" d="M19.24,8.18a.35.35,0,0,0,.35-.35.42.42,0,0,0-.38-.38.35.35,0,0,0-.35.35.42.42,0,0,0,.38.38Z"/><path class="cls-4" d="M19.09,8.55A1.12,1.12,0,0,0,18,9.62v2.3h.88a1.1,1.1,0,0,1,.16,0V10.2a.47.47,0,0,1,.48-.46h7a.54.54,0,0,1,.54.54v13a.54.54,0,0,1-.54.54h-7a.54.54,0,0,1-.54-.54V19.1H18v2.79h0v3.45a1,1,0,0,0,1,1H27a1.07,1.07,0,0,0,1.07-1.07V9.62a1,1,0,0,0-1-1h-.37v0s0,0,0,0h0v0a.25.25,0,0,0,0-.11.26.26,0,0,0-.18-.07H25a.26.26,0,0,0-.25.22s0,0,0,0v0H20.55V8.55H19.09Zm5.09,16.54a.45.45,0,0,1-.45.45H22.28a.45.45,0,0,1-.45-.45v0a.45.45,0,0,1,.45-.45h1.45a.45.45,0,0,1,.45.45Z"/><path class="cls-3" d="M24.32,16.28a1.12,1.12,0,0,1,0,1.78l-3,2.28a1.11,1.11,0,0,1-1.8-.82l-.52.92V23.3a.54.54,0,0,0,.54.54h7a.54.54,0,0,0,.54-.54v-13a.54.54,0,0,0-.54-.54H25.1l-2.81,5Z"/><path class="cls-5" d="M20.06,13.09V14a1.1,1.1,0,0,1,.62-.21,1.11,1.11,0,0,1,.68.24l.92.71,2.81-5H19.53a.47.47,0,0,0-.48.46V12A1.16,1.16,0,0,1,20.06,13.09Z"/><path class="cls-5" d="M19.56,19.45V19.1h-.51v1.35l.52-.92S19.56,19.48,19.56,19.45Z"/><path class="cls-6" d="M17.15,16.53v1.4a.67.67,0,0,0,.67.67h2.24v.86a.62.62,0,0,0,.63.62.61.61,0,0,0,.38-.13l3-2.28a.62.62,0,0,0,0-1l-3-2.28a.61.61,0,0,0-.38-.13.62.62,0,0,0-.63.62v1H17.82A.67.67,0,0,0,17.15,16.53Z"/><path class="cls-6" d="M16.65,11.56a.62.62,0,0,0-.63-.62.61.61,0,0,0-.38.13l-3,2.28a.62.62,0,0,0,0,1l3,2.28a.61.61,0,0,0,.38.13.62.62,0,0,0,.63-.62v-1H18.9a.67.67,0,0,0,.67-.67v-1.4a.67.67,0,0,0-.67-.67H16.65Z"/><path class="cls-7" d="M17.15,11.56A1.13,1.13,0,0,0,16,10.44a1.11,1.11,0,0,0-.68.24l-3,2.28a1.12,1.12,0,0,0,0,1.78l3,2.28a1.11,1.11,0,0,0,.68.24,1.1,1.1,0,0,0,.62-.21v.88a1.17,1.17,0,0,0,1.17,1.17h1.74v.36s0,0,0,.07a1.11,1.11,0,0,0,1.8.82l3-2.28a1.12,1.12,0,0,0,0-1.78l-2-1.57L21.37,14a1.11,1.11,0,0,0-.68-.24,1.1,1.1,0,0,0-.62.21v-.88a1.16,1.16,0,0,0-1-1.14,1.1,1.1,0,0,0-.16,0H17.15Zm2.9,4.3v-1a.62.62,0,0,1,.63-.62.61.61,0,0,1,.38.13l3,2.28a.62.62,0,0,1,0,1l-3,2.28a.61.61,0,0,1-.38.13.62.62,0,0,1-.63-.62V18.6H17.82a.67.67,0,0,1-.67-.67v-1.4a.67.67,0,0,1,.67-.67ZM18.9,12.42a.67.67,0,0,1,.67.67v1.4a.67.67,0,0,1-.67.67H16.65v1a.62.62,0,0,1-.63.62.61.61,0,0,1-.38-.13l-3-2.28a.62.62,0,0,1,0-1l3-2.28a.61.61,0,0,1,.38-.13.62.62,0,0,1,.63.62v.86Z"/><rect class="cls-3" x="21.83" y="24.62" width="2.35" height="0.92" rx="0.45" ry="0.45"/><path class="cls-5" d="M4.71,22.89H17.06v2.45a2.07,2.07,0,0,0,2.07,2.07h7.95a2.07,2.07,0,0,0,2.07-2.07V9.7a2.07,2.07,0,0,0-1.88-2.06,1.25,1.25,0,0,0-.83-.31H25a1.26,1.26,0,0,0-.82.3H21.55V7.2A1.51,1.51,0,0,0,20,5.69H4.75A1.51,1.51,0,0,0,3.24,7.2V21.45A1.46,1.46,0,0,0,4.71,22.89ZM4.24,9.09V7.2a.51.51,0,0,1,.51-.51H20a.5.5,0,0,1,.43.26.5.5,0,0,1,.08.25V8.63h4.13v0s0,0,0,0A.26.26,0,0,1,25,8.33h1.49a.26.26,0,0,1,.18.07.26.26,0,0,1,.07.15s0,0,0,0v0h.37a1.06,1.06,0,0,1,1,.6,1,1,0,0,1,.12.47V25.34a1.07,1.07,0,0,1-1.07,1.07H19.13a1.09,1.09,0,0,1-1.07-1.07V21.89H4.71a.47.47,0,0,1-.44-.31.41.41,0,0,1,0-.14Z"/></svg>