<svg xmlns="http://www.w3.org/2000/svg" viewBox="0 0 64 64"><defs><style>.cls-1{fill:none;}.cls-2{fill:#13bf00;}.cls-3{fill:#767aa8;}.cls-4{fill:#a0a7e6;}.cls-5{fill:#737eb3;}.cls-6{fill:#cdcfe6;}.cls-7{fill:#5df73e;}.cls-8{fill:#fff;}</style></defs><title>Artboard 1</title><g id="Layer_1" data-name="Layer 1"><rect class="cls-1" width="64" height="64"/></g><g id="Layer_6" data-name="Layer 6"><path class="cls-1" d="M18.72,17.45a12,12,0,0,1-1.4,1,11.81,11.81,0,0,0,1.41-1Z"/><path class="cls-1" d="M19.4,20.56a6.44,6.44,0,0,1-1.82.68H15.79v-2.1l-.06,0v2.11h1.79A6.52,6.52,0,0,0,19.4,20.56Z"/><path class="cls-1" d="M9.21,21.28v0h-1a3.74,3.74,0,0,0-1.8.46,3.73,3.73,0,0,1,1.74-.43Z"/><path class="cls-1" d="M9.19.83V8.55a1.51,1.51,0,0,0,1.51,1.51h5.49a1.48,1.48,0,0,0,.63-.15,1.5,1.5,0,0,1-.57.11H10.76A1.51,1.51,0,0,1,9.25,8.52V.8A.5.5,0,0,0,8.55.34l-.06,0a.5.5,0,0,1,.7.46Z"/><path class="cls-1" d="M21.88,6.17,22.37,6l-.42.08A10,10,0,0,0,17.76,1v.08A10,10,0,0,1,21.88,6.17Z"/><path class="cls-1" d="M32.52,8.71H39.9a2.74,2.74,0,0,1,2.74,2.74v4.93A2.74,2.74,0,0,1,41,18.88h0a2.74,2.74,0,0,0,1.68-2.53V11.42A2.74,2.74,0,0,0,40,8.68H32.58c-.95-1.57-3-3-7.29-3a13.41,13.41,0,0,0-2.14.17,15.56,15.56,0,0,1,2.08-.14C29.51,5.76,31.57,7.14,32.52,8.71Z"/><path class="cls-1" d="M15.64,46.5a3,3,0,0,0,1.46-.4,3,3,0,0,1-1.39.36c-3.9,0-4.07-4-7-4a4.49,4.49,0,0,0-1.59.27,4.59,4.59,0,0,1,1.53-.24C11.57,42.51,11.75,46.5,15.64,46.5Z"/><path class="cls-1" d="M9.66,38.37c1.48-.54,2.19-2.24,3.7-3.18C11.83,36.11,11.11,37.8,9.66,38.37Z"/><path class="cls-1" d="M23,52.16c0,3.9,3.86,4.45,3.86,7.41a3.75,3.75,0,0,1-.92,2.6,3.7,3.7,0,0,0,1-2.63c0-3-3.86-3.51-3.86-7.41a4.21,4.21,0,0,1,2.43-3.46A4.24,4.24,0,0,0,23,52.16Z"/><path class="cls-1" d="M35.54,20.63a1,1,0,0,1,.93.62s0,0,0,0h6.61a3.86,3.86,0,0,1,3.83,3.88v5.65a8,8,0,0,0,.19.94c.29,1.08,1,2.7,2.55,2.7a1.92,1.92,0,0,0,.82-.18,1.94,1.94,0,0,1-.76.15c-1.58,0-2.26-1.62-2.55-2.7a8,8,0,0,1-.19-.94V25.13a3.86,3.86,0,0,0-3.83-3.88H36.53s0,0,0,0a1,1,0,0,0-.93-.62V19.13h-.06Z"/><path class="cls-1" d="M62.15,38.52c0,4.22-1.47,6.25-3.1,7.18,1.66-.92,3.16-2.94,3.16-7.22,0-6.79-3.78-7.61-6-7.61a5.28,5.28,0,0,0-2.57.58,5.33,5.33,0,0,1,2.51-.54C58.36,30.91,62.15,31.72,62.15,38.52Z"/><path class="cls-1" d="M46.92,46.23V60a3.87,3.87,0,0,1-2.28,3.54A3.88,3.88,0,0,0,47,60V46.19s.29-2.65,1.9-3.36C47.22,43.5,46.92,46.23,46.92,46.23Z"/><path class="cls-2" d="M18.51,30.63a2.74,2.74,0,0,1,2.74-2.74H25.6V26.62a1,1,0,0,1-.71-.25,1,1,0,0,1,.33-1.63l.38-.15V22.75a1,1,0,0,1-.71-.25,1,1,0,0,1,.33-1.63l.38-.15V19.13H21.25a2.66,2.66,0,0,1-.47-.07,2.35,2.35,0,0,1-.42.72l-.07.08a3.17,3.17,0,0,1-.39.37l-.26.19-.23.15a6.52,6.52,0,0,1-1.88.72H15.72V31.75h2.78Z"/><path class="cls-2" d="M9.2,28.59h0V21.28H8.14a3.73,3.73,0,0,0-1.74.43,3.91,3.91,0,0,0-2,3.41v6.62H9.2Z"/><path class="cls-2" d="M22.48,8.71h10c-.95-1.57-3-3-7.29-3a15.56,15.56,0,0,0-2.08.14L22.37,6l-.48.12A10.08,10.08,0,0,1,22.48,8.71Z"/><path class="cls-2" d="M35.92,22.56l-.38.15V24.5a1,1,0,0,1,.38,1.92l-.38.15v1.31H39.9a2.74,2.74,0,0,1,2.74,2.74v1.13h4.47a8,8,0,0,1-.19-.94V25.16a3.86,3.86,0,0,0-3.83-3.88H36.47A1,1,0,0,1,35.92,22.56Z"/><path class="cls-3" d="M9.27,19.15v2.1H9.21v7.34h1.95V19.18A10.09,10.09,0,0,1,7.29,2.51a10.11,10.11,0,0,1,1.9-1.45V.83a.5.5,0,0,0-.7-.46,10.08,10.08,0,0,0,.79,18.78Z"/><path class="cls-4" d="M14.24,10.06H10.7A1.51,1.51,0,0,1,9.19,8.55V1.05a10.11,10.11,0,0,0-1.9,1.45,10.09,10.09,0,0,0,3.87,16.67v9.41h4.56v3.16h0V19.17l.06,0h0a8.57,8.57,0,0,0,1.54-.71,12,12,0,0,0,1.4-1,2.73,2.73,0,0,1-.22-1.07V11.46a2.74,2.74,0,0,1,2.74-2.74h1.23a10.08,10.08,0,0,0-.59-2.55,10,10,0,0,0-4.13-5.1V8.52a1.49,1.49,0,0,1-.94,1.39,1.48,1.48,0,0,1-.63.15Z"/><polygon class="cls-3" points="9.2 31.75 15.72 31.75 15.72 28.59 11.16 28.59 11.15 28.59 9.21 28.59 9.2 28.59 9.2 31.75"/><path class="cls-4" d="M35.54,27.88V26.57l-3.23,1.31H27l8.18-3.32a1,1,0,0,1,.38-.07V22.71L26,26.58a1,1,0,0,1-.38,0v1.27h-.92v3.87H36.46V27.88Z"/><path class="cls-5" d="M35.92,22.56a1,1,0,0,0,.56-1.27s0,0,0,0a1,1,0,0,0-.93-.62v2.07Z"/><path class="cls-5" d="M24.68,22.17a1,1,0,0,0,.22.33,1,1,0,0,0,.71.25v-2l-.38.15A1,1,0,0,0,24.68,22.17Z"/><path class="cls-5" d="M35.92,26.42a1,1,0,0,0-.38-1.92v2.07Z"/><path class="cls-5" d="M24.68,26a1,1,0,0,0,.22.33,1,1,0,0,0,.71.25v-2l-.38.15A1,1,0,0,0,24.68,26Z"/><path class="cls-3" d="M26,22.72l8.86-3.59H29.52L25.6,20.71v2A1,1,0,0,0,26,22.72Z"/><path class="cls-3" d="M27,27.88h5.32l3.23-1.31V24.5a1,1,0,0,0-.38.07Z"/><path class="cls-3" d="M26,26.58l9.56-3.87V20.63a1,1,0,0,0-.38.07L25.6,24.58v2A1,1,0,0,0,26,26.58Z"/><path class="cls-4" d="M36.46,17.38V8.71H24.68V19.13h.92v1.59l3.91-1.59h5.32L26,22.72a1,1,0,0,1-.38,0v1.83l9.56-3.87a1,1,0,0,1,.38-.07V19.13h.06v0h.86V17.38Z"/><path class="cls-3" d="M18.79,17.42a2.73,2.73,0,0,0,2,1.6l0,0a2.66,2.66,0,0,0,.47.07h3.43V8.71H21.25a2.74,2.74,0,0,0-2.74,2.74v4.93a2.73,2.73,0,0,0,.22,1.07h0Z"/><path class="cls-3" d="M24.68,29.89a1,1,0,0,1,0-.76V27.88H21.25a2.74,2.74,0,0,0-2.74,2.74v1.13h6.18V29.9Z"/><path class="cls-5" d="M24.68,29.89h0v-.77A1,1,0,0,0,24.68,29.89Z"/><path class="cls-6" d="M42.64,16.38V11.46A2.74,2.74,0,0,0,39.9,8.71H36.46V19.09H40a2.67,2.67,0,0,0,2.68-2.71Z"/><path class="cls-6" d="M39.9,27.88H36.46v3.87h6.18V30.63A2.74,2.74,0,0,0,39.9,27.88Z"/><path class="cls-7" d="M47.11,31.75H4.38v.95S4,38.55,8.67,38.55a2.83,2.83,0,0,0,1-.17c1.45-.58,2.17-2.27,3.7-3.18a4.3,4.3,0,0,1,2.34-.64c1.94,0,3.91,1.82,3.91,5.85,0,3-1.13,4.94-2.52,5.69a3,3,0,0,1-1.46.4c-3.9,0-4.07-4-7-4a4.59,4.59,0,0,0-1.53.24c-3,1.12-2.7,5.36-2.7,5.36V60A3.86,3.86,0,0,0,8.2,63.83h13a9.1,9.1,0,0,0,3-.52,5.56,5.56,0,0,0,.55-.24c.12-.06.23-.13.35-.2a4,4,0,0,0,.73-.57l.13-.13a3.75,3.75,0,0,0,.92-2.6c0-3-3.86-3.51-3.86-7.41a4.24,4.24,0,0,1,2.49-3.49,7.76,7.76,0,0,1,3.76-.88c4,0,6.42,2.4,6.42,4.34,0,3.9-3.74,4.45-3.74,7.41,0,4,4.44,4.3,5.75,4.3h5.42a3.79,3.79,0,0,0,1.49-.3A3.87,3.87,0,0,0,46.92,60V46.23s.3-2.73,2-3.4a2,2,0,0,1,.84-.18c2.36,0,2.11,3.75,6.51,3.75A5.87,5.87,0,0,0,59,45.7c1.64-.93,3.1-3,3.1-7.18,0-6.79-3.78-7.61-6-7.61a5.33,5.33,0,0,0-2.51.54c-1.56.84-2,2.35-3.17,2.82a1.92,1.92,0,0,1-.82.18C48.08,34.45,47.4,32.83,47.11,31.75Z"/><path class="cls-8" d="M17.58,21.25a6.44,6.44,0,0,0,1.82-.68l.23-.15.26-.19a3.17,3.17,0,0,0,.39-.37l.07-.08a2.35,2.35,0,0,0,.42-.72l0,0a2.73,2.73,0,0,1-2-1.6l-.06,0a11.81,11.81,0,0,1-1.41,1,8.57,8.57,0,0,1-1.54.71h0v2.1Z"/></g></svg>