<svg xmlns="http://www.w3.org/2000/svg" viewBox="0 0 64 64"><defs><style>.cls-1{fill:none;}.cls-2{fill:#767aa8;}.cls-3{fill:#f9f9fa;}.cls-4{fill:#a0a7e6;}.cls-5{fill:#fff;}.cls-6{fill:#0a84ff;}.cls-7{fill:#0060df;}.cls-8{fill:#f5f5f7;}</style></defs><title>Artboard 1</title><g id="Layer_1" data-name="Layer 1"><rect class="cls-1" width="64" height="64"/></g><g id="Layer_5" data-name="Layer 5"><path class="cls-1" d="M43.49,11.2h.11V7.59a1.32,1.32,0,0,0-.2-.67,1.34,1.34,0,0,1,.09.45Z"/><path class="cls-1" d="M59.9,11.2H60a.7.7,0,0,0-.18-.39.66.66,0,0,1,.12.29Z"/><path class="cls-1" d="M63.73,55.69a2.85,2.85,0,0,1-2.85,2.85H39.71a2.83,2.83,0,0,1-2.54-1.6,2.84,2.84,0,0,0,2.65,1.83H61a2.85,2.85,0,0,0,2.85-2.85V14.27A2.79,2.79,0,0,0,63.52,13a2.83,2.83,0,0,1,.21,1Z"/><path class="cls-1" d="M1.3,46.5a1.26,1.26,0,0,1-1.07-.6,1.24,1.24,0,0,0,1.18.82H36.86V46.5Z"/><path class="cls-2" d="M1.3,46.5H36.86V43.59h-33a1.1,1.1,0,0,1-1.1-1.1V12.42H37.43a2.8,2.8,0,0,1,2.28-1.22h3.78V7.37a1.34,1.34,0,0,0-.09-.45,1.34,1.34,0,0,0-1.16-.69H1.51A1.36,1.36,0,0,0,.15,7.59V45.54a1.09,1.09,0,0,0,.08.36A1.26,1.26,0,0,0,1.3,46.5ZM40,8.29a.91.91,0,0,1,.69.32A.91.91,0,0,1,41,9.3a.93.93,0,0,1-.93.93.91.91,0,0,1-.69-.32.91.91,0,0,1-.32-.69A.93.93,0,0,1,40,8.29Zm-2.91.08a.93.93,0,1,1-.93.93A.93.93,0,0,1,37.12,8.37Zm-27.49.8a1,1,0,0,1,1-1H32.47a1,1,0,0,1,1,1v.09a1,1,0,0,1-1,1H10.63a1,1,0,0,1-1-1ZM6.31,8.29a.93.93,0,1,1-.93.93A.93.93,0,0,1,6.31,8.29Zm-3,0a.93.93,0,1,1-.93.93A.93.93,0,0,1,3.33,8.29Z"/><rect class="cls-3" x="9.62" y="8.17" width="23.85" height="2.1" rx="1" ry="1"/><path class="cls-3" d="M36.31,39.28a3.12,3.12,0,0,1-3.11-3.11V33.81a2.92,2.92,0,0,1-1.65.56,3,3,0,0,1-1.82-.63l-7.86-6.08a3,3,0,0,1,0-4.73l7.86-6.08a3,3,0,0,1,1.82-.63,3,3,0,0,1,3,3v1h2.3V14.05a2.78,2.78,0,0,1,.58-1.63H2.77V42.48a1.1,1.1,0,0,0,1.1,1.1h33V39.28Z"/><circle class="cls-3" cx="37.12" cy="9.3" r="0.93"/><path class="cls-3" d="M40.1,10.22A.93.93,0,0,0,41,9.3a.91.91,0,0,0-.32-.69A.91.91,0,0,0,40,8.29a.93.93,0,0,0-.93.93.91.91,0,0,0,.32.69A.91.91,0,0,0,40.1,10.22Z"/><path class="cls-4" d="M39.71,11.2a3,3,0,0,0-2.85,2.85v6.12h2.33a2.92,2.92,0,0,1,.41.08V15.59a1.26,1.26,0,0,1,1.29-1.23H59.56A1.43,1.43,0,0,1,61,15.79V50.47a1.43,1.43,0,0,1-1.43,1.43H41a1.43,1.43,0,0,1-1.43-1.43V39.28H36.86v7.44H37v9.19a2.63,2.63,0,0,0,2.74,2.63H60.87a2.85,2.85,0,0,0,2.85-2.85V14.05a2.83,2.83,0,0,0-.21-1A2.83,2.83,0,0,0,61,11.42H60v-.1s0-.08-.05-.13H59.9v-.1a.66.66,0,0,0-.12-.29.71.71,0,0,0-.48-.2h-4a.69.69,0,0,0-.66.59s-.05.08-.05.13v.1h-11V11.2H39.71ZM53.26,55.25a1.21,1.21,0,0,1-1.21,1.21H48.2A1.21,1.21,0,0,1,47,55.25v0A1.21,1.21,0,0,1,48.2,54h3.85a1.21,1.21,0,0,1,1.21,1.21Z"/><path class="cls-3" d="M53.63,31.79a3,3,0,0,1,0,4.73L45.77,42.6A3,3,0,0,1,41,40.43L39.6,42.89v7.58A1.43,1.43,0,0,0,41,51.9H59.56A1.43,1.43,0,0,0,61,50.47V15.79a1.43,1.43,0,0,0-1.43-1.43H55.71L48.23,27.61Z"/><path class="cls-5" d="M42.3,23.28v2.36a2.92,2.92,0,0,1,1.65-.56,3,3,0,0,1,1.82.63l2.46,1.9,7.48-13.25H40.89a1.26,1.26,0,0,0-1.29,1.23v4.66A3.08,3.08,0,0,1,42.3,23.28Z"/><path class="cls-5" d="M41,40.23v-1H39.6v3.61L41,40.43C41,40.36,41,40.3,41,40.23Z"/><path class="cls-6" d="M34.53,32.45v3.72a1.78,1.78,0,0,0,1.78,1.78h6v2.29a1.66,1.66,0,0,0,1.67,1.66,1.64,1.64,0,0,0,1-.35l7.86-6.08a1.66,1.66,0,0,0,0-2.63L45,26.76a1.64,1.64,0,0,0-1-.35,1.66,1.66,0,0,0-1.67,1.66v2.6h-6A1.78,1.78,0,0,0,34.53,32.45Z"/><path class="cls-7" d="M33.22,19.22a1.66,1.66,0,0,0-1.67-1.66,1.63,1.63,0,0,0-1,.35L22.69,24a1.66,1.66,0,0,0,0,2.63l7.86,6.08a1.64,1.64,0,0,0,1,.35,1.66,1.66,0,0,0,1.67-1.66v-2.6h6A1.78,1.78,0,0,0,41,27V23.28a1.78,1.78,0,0,0-1.78-1.78h-6Z"/><path class="cls-8" d="M34.55,19.22a3,3,0,0,0-3-3,3,3,0,0,0-1.82.63l-7.86,6.08a3,3,0,0,0,0,4.73l7.86,6.08a3,3,0,0,0,1.82.63,2.92,2.92,0,0,0,1.65-.56v2.36a3.12,3.12,0,0,0,3.11,3.11H41v1c0,.07,0,.13,0,.2a3,3,0,0,0,4.78,2.17l7.86-6.08a3,3,0,0,0,0-4.73l-5.4-4.18-2.46-1.9a3,3,0,0,0-1.82-.63,2.92,2.92,0,0,0-1.65.56V23.28a3.08,3.08,0,0,0-2.7-3,2.92,2.92,0,0,0-.41-.08H34.55Zm7.73,11.46v-2.6a1.66,1.66,0,0,1,1.67-1.66,1.64,1.64,0,0,1,1,.35l7.86,6.08a1.66,1.66,0,0,1,0,2.63L45,41.55a1.64,1.64,0,0,1-1,.35,1.66,1.66,0,0,1-1.67-1.66V37.95h-6a1.78,1.78,0,0,1-1.78-1.78V32.45a1.78,1.78,0,0,1,1.78-1.78ZM39.19,21.5A1.78,1.78,0,0,1,41,23.28V27a1.78,1.78,0,0,1-1.78,1.78h-6v2.6A1.66,1.66,0,0,1,31.55,33a1.64,1.64,0,0,1-1-.35l-7.86-6.08a1.66,1.66,0,0,1,0-2.63l7.86-6.08a1.63,1.63,0,0,1,1-.35,1.66,1.66,0,0,1,1.67,1.66V21.5Z"/><rect class="cls-3" x="47" y="54" width="6.27" height="2.46" rx="1.21" ry="1.21"/></g></svg>