<svg id="Layer_1" data-name="Layer 1" xmlns="http://www.w3.org/2000/svg" viewBox="0 0 32 32"><defs><style>.cls-1{fill:none;}.cls-2{fill:#f9f9fa;}.cls-3{fill:#d9ebff;}.cls-4{fill:#59acff;}</style></defs><title>icons</title><path class="cls-1" d="M13.54,25.84l0,0a13.11,13.11,0,0,1-5.12-1.37A13,13,0,0,0,13.54,25.84Z"/><path class="cls-1" d="M19.58,16.95v0a3.16,3.16,0,0,1,3.15-3.07A3.13,3.13,0,0,0,19.58,16.95Z"/><path class="cls-1" d="M22.73,13.91a3.16,3.16,0,0,1,3.15,3.18v0A3.13,3.13,0,0,0,22.73,13.91Z"/><path class="cls-1" d="M9.39,9.69a1.78,1.78,0,0,1,.15.3l0,0a1.78,1.78,0,0,0-.12-.23A5.9,5.9,0,0,0,7.22,7.57,5.91,5.91,0,0,1,9.39,9.69Z"/><path class="cls-1" d="M28.89,18.1a41,41,0,0,0-2.25-3.72,5.79,5.79,0,0,0,1.43-1.64,5.87,5.87,0,0,0,0-5.79.39.39,0,0,0-.19-.14.42.42,0,0,1,.11.1,5.87,5.87,0,0,1,0,5.79,5.79,5.79,0,0,1-1.43,1.64,41,41,0,0,1,2.25,3.72.72.72,0,0,1,.11.39.5.5,0,0,1-.07.39c-2.53,4.55-5.23,6.48-10.13,6.95l-.06.05c5-.45,7.71-2.37,10.27-7a.5.5,0,0,0,.07-.39A.72.72,0,0,0,28.89,18.1Z"/><path class="cls-2" d="M12.5,17.13a3.15,3.15,0,0,0-6.29,0v1.36H3.26s0,0,0,0a.69.69,0,0,0,.11.36,13.15,13.15,0,0,0,5,5.54A13.11,13.11,0,0,0,13.5,25.8a3.31,3.31,0,0,1-.26-.23,6,6,0,0,1-1.11-4.16.25.25,0,0,1,.28-.22.23.23,0,0,1,.1.05V17.13Zm-1.07.79-2,1.89-2-1.36a1.51,1.51,0,0,1-.25-.18A1.4,1.4,0,1,1,9,16.13c0,.07.11.11.14.18s.11-.11.14-.18a1.45,1.45,0,0,1,2-.18A1.38,1.38,0,0,1,11.43,17.91Z"/><path class="cls-2" d="M28.84,18.84a.5.5,0,0,0,.07-.39h-3V17.09A3.15,3.15,0,0,0,19.58,17v4.15h0a.25.25,0,0,1,.29.21c0,.11.41,2.68-.93,4.24a3.09,3.09,0,0,1-.23.21C23.61,25.32,26.31,23.39,28.84,18.84Zm-3.93-.5-2.25,1.54-1.79-1.72L20.65,18a1.4,1.4,0,1,1,2.15-1.79.36.36,0,0,1,.14.18.36.36,0,0,1,.14-.18,1.38,1.38,0,0,1,2,.18A1.53,1.53,0,0,1,24.91,18.34Z"/><path class="cls-3" d="M19.58,17.31v-.36a3.15,3.15,0,0,1,6.29.11v1.39h3a.72.72,0,0,0-.11-.39,41,41,0,0,0-2.25-3.72A5.79,5.79,0,0,0,28,12.69,5.87,5.87,0,0,0,28,6.9a.42.42,0,0,0-.11-.1.35.35,0,0,0-.13,0c-.13,0-.25,0-.37,0h.36v0a9.46,9.46,0,0,0-3.88,4A6.43,6.43,0,0,1,25,12.05a.25.25,0,0,1-.08.34.25.25,0,0,1-.34-.08,7.16,7.16,0,0,0-1.88-1.78l0,0a9.6,9.6,0,0,0-1.73-.92,11.66,11.66,0,0,0-1.21-.4l-.12,0a12.85,12.85,0,0,0-1.57-.3l-.16,0c-.47-.05-1-.08-1.47-.09-6.33,0-8.88,3.6-8.91,3.64a.25.25,0,0,1-.41-.28,6.8,6.8,0,0,1,1.15-1.2,8.87,8.87,0,0,0-3.91-4A.39.39,0,0,0,4.18,7a5.87,5.87,0,0,0,0,5.79,6.33,6.33,0,0,0,1.43,1.64,25.9,25.9,0,0,0-2.29,3.68.71.71,0,0,0-.1.35H6.21V17.13a3.15,3.15,0,0,1,6.29,0v4.12a.23.23,0,0,1,.12.22,5.56,5.56,0,0,0,1,3.78,3.22,3.22,0,0,0,2.51,1,3,3,0,0,0,2.43-1c1.19-1.39.82-3.82.82-3.84a.25.25,0,0,1,.2-.28V17.31Zm-1.72,7.15a2.24,2.24,0,0,1-1.82.86,2.49,2.49,0,0,1-1.89-.86.35.35,0,1,1,.54-.46,1.74,1.74,0,0,0,2.65,0,.35.35,0,1,1,.54.46Zm-.07-2.75-.68.75a1.51,1.51,0,0,1-.36.25,1.07,1.07,0,0,1-.36.14.45.45,0,0,1-.21,0h-.43c-.07,0-.14,0-.21,0a.27.27,0,0,1-.18-.07c-.07,0-.11,0-.18-.07a2.57,2.57,0,0,1-.36-.21l-.64-.64a.84.84,0,0,1,0-1.18,1.05,1.05,0,0,1,.75-.29h1.86a1.62,1.62,0,0,0,.36,0,.8.8,0,0,1,.86.75A.76.76,0,0,1,17.79,21.7Z"/><path class="cls-4" d="M17.15,20.35a1.62,1.62,0,0,1-.36,0H14.93a1.05,1.05,0,0,0-.75.29.84.84,0,0,0,0,1.18l.64.64a2.57,2.57,0,0,0,.36.21c.07,0,.11.07.18.07a.27.27,0,0,0,.18.07c.07,0,.14,0,.21,0h.43a.45.45,0,0,0,.21,0,1.07,1.07,0,0,0,.36-.14,1.51,1.51,0,0,0,.36-.25l.68-.75A.76.76,0,0,0,18,21.1.8.8,0,0,0,17.15,20.35Z"/><path class="cls-2" d="M27.77,6.83v0H27.4l-.38,0-.14,0a5.24,5.24,0,0,0-2.22,1,6.12,6.12,0,0,0-1.75,1.94c0,.07-.08.15-.12.23a9.16,9.16,0,0,1,1.09.82A9.46,9.46,0,0,1,27.77,6.83Z"/><path class="cls-2" d="M8.26,10.91A9.9,9.9,0,0,1,9.54,10a1.78,1.78,0,0,0-.15-.3,5.77,5.77,0,0,0-3-2.51A5.2,5.2,0,0,0,4.5,6.84H4.4s0,0,0,0l0,0A8.87,8.87,0,0,1,8.26,10.91Z"/><path class="cls-4" d="M23.08,16.16a.36.36,0,0,0-.14.18.36.36,0,0,0-.14-.18A1.4,1.4,0,1,0,20.65,18l.21.21,1.79,1.72,2.25-1.54a1.53,1.53,0,0,0,.14-2A1.38,1.38,0,0,0,23.08,16.16Z"/><path class="cls-4" d="M9.25,16.13c0,.07-.11.11-.14.18S9,16.2,9,16.13a1.4,1.4,0,1,0-1.79,2.15,1.51,1.51,0,0,0,.25.18l2,1.36,2-1.89a1.38,1.38,0,0,0-.18-2A1.45,1.45,0,0,0,9.25,16.13Z"/><path class="cls-4" d="M17.33,24a1.74,1.74,0,0,1-2.65,0,.35.35,0,1,0-.54.46,2.49,2.49,0,0,0,1.89.86,2.24,2.24,0,0,0,1.82-.86.35.35,0,1,0-.54-.46Z"/><path class="cls-4" d="M27.95,14.54a7.62,7.62,0,0,0,1-1.29A6.85,6.85,0,0,0,29,6.46l0-.07a1.37,1.37,0,0,0-1.15-.62A6.22,6.22,0,0,0,24.07,7a7,7,0,0,0-1.89,2,13.87,13.87,0,0,0-6.06-1.28A13.29,13.29,0,0,0,10.2,9,7,7,0,0,0,6.71,6.24,6.16,6.16,0,0,0,4.5,5.84H4.4a1,1,0,0,0-.64.22,1.4,1.4,0,0,0-.41.4l0,.06a6.88,6.88,0,0,0,0,6.78,7.6,7.6,0,0,0,1,1.27,29.58,29.58,0,0,0-1.83,3.06,1.74,1.74,0,0,0-.24.89,1.69,1.69,0,0,0,.25.87c2.8,5,5.89,7.06,11.33,7.48a4.65,4.65,0,0,0,4.6,0c5.46-.42,8.56-2.46,11.35-7.48a1.5,1.5,0,0,0,.21-1,1.72,1.72,0,0,0-.24-.79C29.16,16.5,28.55,15.48,27.95,14.54Zm1,4.34c-2.56,4.59-5.28,6.51-10.27,7l.06-.05a3.09,3.09,0,0,0,.23-.21c1.34-1.57.95-4.13.93-4.24a.25.25,0,0,0-.29-.21h0a.25.25,0,0,0-.2.28s.37,2.45-.82,3.84a3,3,0,0,1-2.43,1,3.22,3.22,0,0,1-2.51-1,5.56,5.56,0,0,1-1-3.78.33.33,0,0,0-.22-.28.25.25,0,0,0-.28.22,6,6,0,0,0,1.11,4.16,3.31,3.31,0,0,0,.26.23l0,0a13,13,0,0,1-5.16-1.41,13.15,13.15,0,0,1-5-5.54.69.69,0,0,1-.11-.36s0,0,0,0a.71.71,0,0,1,.1-.35,25.9,25.9,0,0,1,2.29-3.68,6.33,6.33,0,0,1-1.43-1.64A5.87,5.87,0,0,1,4.18,7a.39.39,0,0,1,.16-.13l0,0s0,0,0,0H4.5a5.2,5.2,0,0,1,1.87.35,6,6,0,0,1,.84.38A5.9,5.9,0,0,1,9.47,9.73a1.78,1.78,0,0,1,.12.23l0,0a9.9,9.9,0,0,0-1.29.91,6.8,6.8,0,0,0-1.15,1.2.25.25,0,0,0,.41.28s2.58-3.64,8.91-3.64c.51,0,1,0,1.47.09l.16,0a12.85,12.85,0,0,1,1.57.3l.12,0a11.66,11.66,0,0,1,1.21.4,9.6,9.6,0,0,1,1.73.92l0,0a7.16,7.16,0,0,1,1.88,1.78.25.25,0,0,0,.34.08.25.25,0,0,0,.08-.34,6.43,6.43,0,0,0-1.14-1.27A9.16,9.16,0,0,0,22.79,10c0-.08.07-.16.12-.23A6.12,6.12,0,0,1,24.66,7.8a5.24,5.24,0,0,1,2.22-1l.14,0,.38,0c.12,0,.25,0,.37,0a.35.35,0,0,1,.13,0,.39.39,0,0,1,.19.14,5.87,5.87,0,0,1,0,5.79,5.79,5.79,0,0,1-1.43,1.64,41,41,0,0,1,2.25,3.72.72.72,0,0,1,.11.39A.5.5,0,0,1,28.92,18.89Z"/></svg>