<svg id="Layer_1" data-name="Layer 1" xmlns="http://www.w3.org/2000/svg" viewBox="0 0 32 32"><defs><style>.cls-1{fill:none;}.cls-2{fill:#fff;}.cls-3{fill:#d9ebff;}.cls-4{fill:#f9f9fa;}.cls-5{fill:#e1e1e6;}.cls-6{fill:#59acff;}</style></defs><title>icons</title><path class="cls-1" d="M5.36,20.8A1.32,1.32,0,0,1,4,19.48v0a1.32,1.32,0,0,0,1.32,1.32H19.86l1.2,1.31,0,0L19.86,20.8Z"/><path class="cls-1" d="M24.35,20.75l0,0a1.3,1.3,0,0,0,1-1.26v0A1.3,1.3,0,0,1,24.35,20.75Z"/><path class="cls-1" d="M25.19,26.61,24,25.32l0,0,1.2,1.31a.63.63,0,0,0,.46.17,2.31,2.31,0,0,0,1.47-.76,2.17,2.17,0,0,0,.75-1.57A2.22,2.22,0,0,1,27.12,26C26.43,26.72,25.56,27,25.19,26.61Z"/><path class="cls-2" d="M4.53,14.31v5.17a.84.84,0,0,0,.84.84h14l-.13-.14a.82.82,0,0,1-.22-.77l-.63-.63a7.38,7.38,0,0,1-8.11.49.24.24,0,0,1,0,.15.25.25,0,0,1-.22.13.26.26,0,0,1-.12,0,7.75,7.75,0,0,1-3.78-6H5.36A.84.84,0,0,0,4.53,14.31Z"/><path class="cls-2" d="M20.34,17.8l0,0c.05,0,.53-.37,1.33.48.29.31,1.24,1.19,2.2,2.07h.23a.84.84,0,0,0,.84-.84V14.31a.84.84,0,0,0-.84-.84H21.8A6.19,6.19,0,0,1,21,16.2l0,.07a.24.24,0,0,1-.23.16h-.08a.23.23,0,0,1-.11-.1,7.32,7.32,0,0,1-.64,1Z"/><path class="cls-3" d="M19.87,17.33a7.32,7.32,0,0,0,.64-1,.25.25,0,0,1,0-.22.88.88,0,0,1,.08-.15,5.77,5.77,0,0,0,.78-3.17,7.35,7.35,0,0,0-1.58-4.45l-.1-.12c-.14-.17-.29-.34-.45-.5a7.39,7.39,0,0,0-12.59,4.6,7.58,7.58,0,0,0,3.6,6.78.24.24,0,0,1,.11.2,7.38,7.38,0,0,0,8.11-.49l.63.63a.82.82,0,0,0,.22.77l.13.14h-14a.84.84,0,0,1-.84-.84V14.31a.84.84,0,0,1,.84-.84h.81c0-.16,0-.3,0-.44H5.36A1.32,1.32,0,0,0,4,14.36v5.13A1.32,1.32,0,0,0,5.36,20.8H19.86l1.22,1.33,2-1.92c-.77-.72-1.46-1.36-1.71-1.63s-.62-.44-.68-.41a.24.24,0,0,1-.34,0s0-.06,0-.09a.25.25,0,0,1,.06-.24ZM14,18.91a6,6,0,0,1-5.1-2.82l0,.08c-.06-.09-.1-.19-.15-.28l-.14-.26c-.05-.11-.11-.21-.15-.32a6,6,0,0,1-.25-.66v0A6,6,0,0,1,8,13.83v-.05a6.06,6.06,0,0,1,.7-3.84h0a6,6,0,0,1,10.46,0l.12.22c0,.06.08.13.11.2l-.06-.08-.24-.33H9.58a6,6,0,0,0-.61,1H19.66a6,6,0,0,1-5.69,8Z"/><path class="cls-3" d="M24.94,14.31v5.17a.84.84,0,0,1-.84.84h-.23l.47.43a1.3,1.3,0,0,0,1.07-1.27V14.36A1.32,1.32,0,0,0,24.1,13H21.82c0,.15,0,.3,0,.44H24.1A.84.84,0,0,1,24.94,14.31Z"/><path class="cls-4" d="M14.36,7.56A6,6,0,0,0,9.58,9.93h9.56A6,6,0,0,0,14.36,7.56Z"/><path class="cls-2" d="M19.66,10.9H9a6,6,0,0,0-.1,5.18A6,6,0,0,0,19.66,10.9Z"/><path class="cls-2" d="M8.31,10.9h0A5.79,5.79,0,0,0,8,13.77a5.93,5.93,0,0,1,.29-2.87Z"/><path class="cls-5" d="M8.75,9.93h0a6,6,0,0,0-.43,1h0A6,6,0,0,1,8.75,9.93Z"/><path class="cls-6" d="M9,10.9a6,6,0,0,1,10.17-1l.24.33.06.08c0-.07-.07-.13-.11-.2l-.12-.22A6,6,0,0,0,8,13.77v.05a6,6,0,0,0,.17.78v0a6,6,0,0,0,.25.66c0,.11.1.21.15.32l.14.26c.05.09.1.19.15.28l0-.08A6,6,0,0,1,9,10.9Z"/><path class="cls-3" d="M26.4,22.93,24,25.32l1.18,1.29c.37.37,1.24.1,1.93-.59a2.22,2.22,0,0,0,.75-1.53.59.59,0,0,0-.16-.36Z"/><path class="cls-6" d="M28.42,23.43l-2.58-2.37a2.31,2.31,0,0,0,.59-1.54V14.36A2.32,2.32,0,0,0,24.1,12H22.3A8.37,8.37,0,0,0,8,7,8.31,8.31,0,0,0,5.63,12H5.36A2.32,2.32,0,0,0,3,14.36v5.17a2.32,2.32,0,0,0,2.32,2.32H19.42l5,5.49a1.65,1.65,0,0,0,1.2.49,3.27,3.27,0,0,0,2.18-1C29,25.65,29.2,24.22,28.42,23.43ZM20.28,18s0,.06,0,.09a.24.24,0,0,0,.34,0c.06,0,.29,0,.68.41s.94.91,1.71,1.63l-2,1.92,0,0-1.2-1.31H5.36A1.32,1.32,0,0,1,4,19.52V14.36A1.32,1.32,0,0,1,5.36,13h.77c0,.14,0,.28,0,.44a7.75,7.75,0,0,0,3.78,6,.26.26,0,0,0,.12,0,.25.25,0,0,0,.22-.12.24.24,0,0,0,0-.15.24.24,0,0,0-.11-.2,7.58,7.58,0,0,1-3.6-6.78A7.39,7.39,0,0,1,19.2,7.69c.16.16.31.33.45.5l.1.12a7.35,7.35,0,0,1,1.58,4.45,5.77,5.77,0,0,1-.78,3.17.88.88,0,0,0-.08.15.25.25,0,0,0,0,.22.23.23,0,0,0,.11.1h.08a.24.24,0,0,0,.23-.16l0-.07a6.19,6.19,0,0,0,.82-2.72c0-.14,0-.29,0-.44H24.1a1.32,1.32,0,0,1,1.32,1.32v5.17a1.3,1.3,0,0,1-1,1.26l0,0-.47-.43c-1-.88-1.9-1.76-2.2-2.07-.8-.85-1.28-.52-1.33-.48l0,0A.25.25,0,0,0,20.28,18Zm6.84,8a2.31,2.31,0,0,1-1.47.76.63.63,0,0,1-.46-.17L24,25.34l0,0,2.39-2.39,1.31,1.21a.59.59,0,0,1,.16.36A2.17,2.17,0,0,1,27.12,26.07Z"/></svg>
