<svg id="Layer_1" data-name="Layer 1" xmlns="http://www.w3.org/2000/svg" viewBox="0 0 32 32"><defs><style>.cls-1{fill:none;}.cls-2{fill:gold;}.cls-3{fill:#f2cc00;}.cls-4{fill:#767aa8;}.cls-5{fill:#505473;}.cls-6{fill:#c980ff;}.cls-7{fill:#fff;}</style></defs><title>icons</title><path class="cls-1" d="M26.84,19.32c-.06.2-.13.39-.19.58l-.13.35c-.07.18-.15.36-.23.53l-.17.35c-.09.17-.17.34-.27.5l-.2.33c-.1.16-.2.33-.31.49l-.12.16a11.08,11.08,0,0,1-.77,1l-.27.29-.4.38-.31.28-.42.35-.33.25-.45.32-.34.21a11,11,0,0,1-1,.54l-.26.12-.53.21-.39.14-.54.16-.41.11-.56.12-.42.06-.19,0,.35,0,.42-.06.56-.12.41-.11.54-.16.39-.14.53-.21.26-.12a11,11,0,0,0,1-.54l.34-.21.45-.32.33-.25.42-.35.31-.28.4-.38.27-.29a11.07,11.07,0,0,0,.78-1l.12-.15c.11-.16.21-.32.31-.49l.2-.33c.09-.17.18-.33.27-.5l.17-.35c.08-.18.16-.35.23-.53l.13-.35c.07-.19.14-.38.19-.58v0h-.15Z"/><path class="cls-1" d="M24.27,8.6v0l.19.22c.14.16.29.32.42.49l.28.37c.11.15.22.3.33.46s.19.32.29.48l.09.14c1.3.5,1.67,1.55,1.66,3.45a13.09,13.09,0,0,1-.21,2.29c0,.07,0,.14,0,.21a1.3,1.3,0,0,1-.11,2.59h.08A1.31,1.31,0,0,0,28.57,18a1.29,1.29,0,0,0-1.13-1.3c0-.07,0-.14,0-.21a13.09,13.09,0,0,0,.21-2.29c0-1.9-.36-2.95-1.66-3.45l-.09-.14c-.09-.16-.19-.32-.29-.48s-.22-.3-.33-.45L25,9.27c-.13-.17-.28-.33-.42-.49l-.19-.22v0a11,11,0,0,0-8-3.46l-.36,0h.21A11,11,0,0,1,24.27,8.6Z"/><path class="cls-2" d="M16.22,11.88c1.82,0,2.92-1.53,6.67-1.53a11.09,11.09,0,0,1,2.31.19,11.27,11.27,0,0,0-.94-1.93,11,11,0,0,0-8-3.46h-.21a11.17,11.17,0,0,0-1.11.08h-.1a11,11,0,0,0-8,5.38,9.55,9.55,0,0,1,2.67-.29C13.3,10.35,14.4,11.88,16.22,11.88ZM20,9.24a2.3,2.3,0,0,1,3.44,0,.38.38,0,0,1,0,.54.35.35,0,0,1-.25.1.38.38,0,0,1-.29-.13,1.54,1.54,0,0,0-2.3,0,.38.38,0,0,1-.54,0A.39.39,0,0,1,20,9.24Z"/><path class="cls-2" d="M5.56,19.28h.26a11,11,0,0,0,3,4.9h0l.07.06.27.23a11.31,11.31,0,0,0,14.43-3,4.28,4.28,0,0,1-1.13.15c-2.34,0-4-2.81-6.21-2.81s-4,2.81-6.21,2.81-4.15-1.76-4.8-4.86a1.29,1.29,0,0,0-1,1.24A1.31,1.31,0,0,0,5.56,19.28Zm7,2a.55.55,0,0,1,.78,0,4.22,4.22,0,0,0,3.71.75.55.55,0,1,1,.3,1.07,5.35,5.35,0,0,1-4.74-1A.55.55,0,0,1,12.56,21.3Z"/><path class="cls-2" d="M25.84,10.73h0l-.09-.14Z"/><path class="cls-2" d="M17.31,27.17h.07l.23,0,.19,0Z"/><path class="cls-3" d="M28.42,18a1.29,1.29,0,0,0-1.13-1.3c0-.07,0-.14,0-.21-.51,2.73-1.89,4.47-3.72,5a11.31,11.31,0,0,1-14.43,3l.36.31.1.08a11,11,0,0,0,2.6,1.52l.13.05q.4.16.82.29l.17.05q.41.12.84.21l.16,0c.32.06.65.11,1,.14h0c.36,0,.72.06,1.08.06l.56,0,.34,0,.49-.06.42-.06.56-.12.41-.11.54-.16.39-.14.53-.21.26-.12a11,11,0,0,0,1-.54l.34-.21.45-.32.33-.25.42-.35.31-.28.4-.38.27-.29a11.08,11.08,0,0,0,.77-1l.12-.16c.11-.16.21-.32.31-.49l.2-.33c.09-.17.18-.33.27-.5l.17-.35c.08-.18.16-.35.23-.53l.13-.35c.07-.19.14-.38.19-.58v0h.33A1.3,1.3,0,0,0,28.42,18Z"/><path class="cls-3" d="M25.47,10.11c-.1-.16-.22-.3-.33-.46l-.28-.37c-.13-.17-.28-.33-.42-.49l-.19-.22v0a11.27,11.27,0,0,1,.94,1.93,4.23,4.23,0,0,1,.63.19l-.08-.14C25.67,10.43,25.57,10.26,25.47,10.11Z"/><path class="cls-3" d="M20.61,9.75a1.54,1.54,0,0,1,2.3,0,.38.38,0,0,0,.29.13.35.35,0,0,0,.25-.1.38.38,0,0,0,0-.54,2.3,2.3,0,0,0-3.44,0,.39.39,0,0,0,0,.54A.38.38,0,0,0,20.61,9.75Z"/><path class="cls-4" d="M16,23.25a5.22,5.22,0,0,0,1.39-.19.55.55,0,1,0-.3-1.07,4.22,4.22,0,0,1-3.71-.75.55.55,0,1,0-.74.83A5.21,5.21,0,0,0,16,23.25Z"/><path class="cls-5" d="M11.16,17c1.48,0,3.22-.54,3.22-1a2.68,2.68,0,0,0-3-2c-2.28.1-3.22,1.46-3.22,1.79S9.68,17,11.16,17Z"/><path class="cls-5" d="M21.29,17c1.48,0,3-.94,3-1.28s-.94-1.69-3.22-1.79a2.68,2.68,0,0,0-3,2C18.07,16.45,19.81,17,21.29,17Z"/><path class="cls-6" d="M10,21.59c2.2,0,4-2.81,6.21-2.81s3.87,2.81,6.21,2.81a4.28,4.28,0,0,0,1.13-.15c1.83-.5,3.22-2.24,3.72-5a13.09,13.09,0,0,0,.21-2.29c0-1.9-.36-2.95-1.66-3.45h0a4.23,4.23,0,0,0-.63-.19,11.09,11.09,0,0,0-2.31-.19c-3.75,0-4.86,1.53-6.67,1.53s-2.92-1.53-6.67-1.53a9.55,9.55,0,0,0-2.67.29l0,0c-1.37.49-1.76,1.54-1.75,3.49a12.87,12.87,0,0,0,.25,2.52l-.14,0C5.86,19.84,7.69,21.59,10,21.59Zm11-7.67c2.28.1,3.22,1.46,3.22,1.79S22.77,17,21.29,17s-3.22-.54-3.22-1A2.68,2.68,0,0,1,21.06,13.92Zm-9.67,0a2.68,2.68,0,0,1,3,2c0,.48-1.74,1-3.22,1s-3-.94-3-1.28S9.11,14,11.39,13.92Z"/><path class="cls-7" d="M5.07,20.23a12.08,12.08,0,0,0,3,4.59l.07.08L8.2,25c.21.19.44.39.68.59l.11.09a12,12,0,0,0,2.83,1.65l.1,0c.33.13.63.24.93.33l.19.06c.3.09.6.16.91.23H14l.12,0c.36.07.72.12,1.07.16a12.1,12.1,0,0,0,1.22.07l.44,0h.3l.33,0,.57-.07h.06l.46-.07.61-.13.45-.12.59-.18.35-.13.08,0,.1,0,.47-.19.2-.09.08,0a12.06,12.06,0,0,0,1.11-.59l.09-.05.28-.17.49-.35.36-.27.46-.38.33-.3.43-.42.22-.24.07-.08a12.12,12.12,0,0,0,.85-1l0,0,.09-.13c.1-.14.19-.3.29-.45l.05-.08,0-.08.17-.29c.1-.18.2-.36.29-.55l.19-.39c.09-.19.17-.38.25-.58l.12-.34-.06,0A2.31,2.31,0,0,0,29.57,18a2.27,2.27,0,0,0-1-1.94,14.55,14.55,0,0,0,.13-1.85c0-1.63-.22-3.38-2-4.24l-.24-.39c-.09-.14-.19-.27-.29-.41L26.1,9,26,9l-.23-.31c-.14-.18-.29-.35-.45-.51L25.28,8l-.15-.17L25,7.79a11.91,11.91,0,0,0-8.63-3.66A12.08,12.08,0,0,0,6.16,9.88c-1.83.84-2.07,2.63-2.06,4.29a14.57,14.57,0,0,0,.14,1.9,2.29,2.29,0,0,0-1,1.89A2.31,2.31,0,0,0,5.07,20.23Zm.14-3.5.14,0a12.87,12.87,0,0,1-.25-2.52c0-1.94.37-3,1.75-3.49l0,0a11,11,0,0,1,8-5.38h.1a11.17,11.17,0,0,1,1.11-.08l.36,0a11,11,0,0,1,8,3.46v0l.19.22c.14.16.29.32.42.49l.28.37c.11.15.22.3.33.45s.19.32.29.48l.09.14c1.3.5,1.67,1.55,1.66,3.45a13.09,13.09,0,0,1-.21,2.29c0,.07,0,.14,0,.21A1.29,1.29,0,0,1,28.57,18a1.31,1.31,0,0,1-1.31,1.31H27v0c-.06.2-.13.39-.19.58l-.13.35c-.07.18-.15.36-.23.53l-.17.35c-.09.17-.17.34-.27.5l-.2.33c-.1.16-.2.33-.31.49l-.12.15a11.07,11.07,0,0,1-.78,1l-.27.29-.4.38-.31.28-.42.35-.33.25-.45.32-.34.21a11,11,0,0,1-1,.54l-.26.12-.53.21-.39.14-.54.16-.41.11-.56.12L18,27.1l-.35,0-.23,0h-.07l-.34,0-.56,0c-.37,0-.73,0-1.08-.06h0c-.33,0-.66-.08-1-.14l-.16,0q-.42-.09-.84-.21l-.17-.05q-.42-.13-.82-.29l-.13-.05a11,11,0,0,1-2.6-1.52l-.1-.08-.36-.31-.27-.23-.07-.06h0a11,11,0,0,1-3-4.9H5.56A1.31,1.31,0,0,1,4.24,18,1.29,1.29,0,0,1,5.21,16.73Z"/></svg>