<svg xmlns="http://www.w3.org/2000/svg" viewBox="0 0 64 64"><defs><style>.cls-1{fill:none;}.cls-2{fill:#00c8d7;}.cls-3{fill:#00feff;}</style></defs><title>Artboard 1</title><g id="Layer_1" data-name="Layer 1"><rect class="cls-1" width="64" height="64"/></g><g id="Layer_8" data-name="Layer 8"><path class="cls-2" d="M.23,37.15A13.75,13.75,0,0,0,19,49.95a1.42,1.42,0,0,0,.17.61,14.53,14.53,0,0,0,27.26-7V41.22H62.63a1.37,1.37,0,1,0,0-2.74H45a1.37,1.37,0,0,0-1.37,1.37v3.71a11.78,11.78,0,0,1-22.11,5.67,1.39,1.39,0,0,0-.35-.41,13.75,13.75,0,0,0,6.5-11.67,1.37,1.37,0,1,0-2.74,0,11,11,0,1,1-11-11,1.37,1.37,0,0,0,.5-.1,15.86,15.86,0,0,0,5.34,7.59,1.42,1.42,0,0,0,.85.29,1.37,1.37,0,0,0,.85-2.45A13.14,13.14,0,1,1,42.72,21.1v2a1.37,1.37,0,0,0,1.37,1.37H61.94a1.37,1.37,0,0,0,0-2.74H45.46v-.66a15.88,15.88,0,1,0-31.77,0,15.52,15.52,0,0,0,.16,2.29A13.77,13.77,0,0,0,.23,37.15Z"/><path class="cls-3" d="M45.14,38.43H57.58v-14H44.09a1.37,1.37,0,0,1-1.37-1.37v-2a13.14,13.14,0,1,0-26.29,0,12.9,12.9,0,0,0,.16,2.08,13.6,13.6,0,0,0,.51,2h0a13,13,0,0,0,4.44,6.3,1.38,1.38,0,0,1,.24,1.93,1.4,1.4,0,0,1-1.08.52,1.34,1.34,0,0,1-.85-.29A15.78,15.78,0,0,1,14.47,26a1.32,1.32,0,0,1-.5.1,11,11,0,1,0,11,11,1.37,1.37,0,1,1,2.74,0,13.75,13.75,0,0,1-6.5,11.67,1.39,1.39,0,0,1,.35.41,11.78,11.78,0,0,0,22.11-5.67V39.82A1.37,1.37,0,0,1,45,38.45h.1Z"/><path class="cls-2" d="M43.77,31.77a1.37,1.37,0,0,1,1.37-1.37H62.63a1.37,1.37,0,0,1,0,2.74H45.14A1.37,1.37,0,0,1,43.77,31.77Z"/></g></svg>