<svg xmlns="http://www.w3.org/2000/svg" viewBox="0 0 64 64"><defs><style>.cls-1{fill:none;}.cls-2{fill:gold;}.cls-3{fill:#f2cc00;}.cls-4{fill:#f70;}.cls-5{fill:#ff40df;}.cls-6{fill:#9400ff;}.cls-7{fill:#59acff;}.cls-8{fill:#13bf00;}.cls-9{fill:#de9b59;}.cls-10{fill:#cd6f14;}</style></defs><title>Artboard 1</title><g id="Layer_1" data-name="Layer 1"><rect class="cls-1" width="64" height="64"/></g><g id="Layer_3" data-name="Layer 3"><path class="cls-1" d="M7.64,36.2h0Z"/><path class="cls-1" d="M22.81,38.46c.2.23.41.44.6.68.38.45.74.92,1.11,1.38s.73.94,1.09,1.42.85,1.17,1.27,1.76c.8-1.06,1.69-2.17,2.56-3.28,3.08-3.95,5.85-7.94,3.28-9.86-2.38-1.78-5.66.8-8.83,3.85-.84.81-1.68,1.65-2.48,2.46.48.51,1,1,1.42,1.58Z"/><path class="cls-1" d="M1.6,19.55h0c.7.2,1.35.42,2,.66l.54.21q.7.27,1.33.57l.46.21c.51.25,1,.51,1.46.79h0a13.62,13.62,0,0,1,4,3.49c0-.08,0-.16,0-.25A13.79,13.79,0,0,0,7.58,22h0c-.45-.27-.94-.53-1.45-.79L5.67,21q-.64-.3-1.33-.57L3.8,20.2c-.63-.23-1.28-.45-2-.66h0a1.35,1.35,0,0,0-.37-.05,1.18,1.18,0,0,0-.22.06,1.19,1.19,0,0,1,.38,0Z"/><path class="cls-1" d="M8.34,36.13l.26,0v0Z"/><path class="cls-1" d="M34.37,57.23c.19.52.33.93.42,1.21s.13.44.13.44a3,3,0,0,1-2.14,3.73,3,3,0,0,1-.91.06,3,3,0,0,0,.33,0,3,3,0,0,0,2.93-3.84s0-.16-.13-.44-.23-.7-.42-1.21c-.37-1-.94-2.37-1.71-3.94l-.24,0C33.42,54.83,34,56.22,34.37,57.23Z"/><path class="cls-1" d="M63.72,27.49A26.26,26.26,0,0,1,37.57,53.75h.1a26.26,26.26,0,1,0,0-52.52h-.11A26.26,26.26,0,0,1,63.72,27.49Z"/><path class="cls-2" d="M16.58,29.94s3.14.85,7.31,4.46c3.16-3,6.45-5.63,8.83-3.85,2.57,1.93-.2,5.92-3.28,9.86a68.79,68.79,0,0,1,7.89,13.32h.25A26.26,26.26,0,1,0,12.29,20.87a14.67,14.67,0,0,1,2.25,2.94A16.57,16.57,0,0,1,16.58,29.94Zm37.65,9.29a4.5,4.5,0,1,1,1.6-6.39A4.67,4.67,0,0,1,54.23,39.23ZM51.48,13.78a4.67,4.67,0,0,1,5.12,4.15,4.84,4.84,0,0,1-9.63.66A4.67,4.67,0,0,1,51.48,13.78Zm-8.14,31.1A4.44,4.44,0,0,1,38.68,49,4.44,4.44,0,0,1,34,44.87a4.44,4.44,0,0,1,4.66-4.17A4.44,4.44,0,0,1,43.34,44.87ZM33.93,7.59c3.22-.22,6,1.6,6.13,4.08s-2.3,4.66-5.52,4.88-6-1.6-6.13-4.08S30.71,7.81,33.93,7.59Zm-13,10.67A4.67,4.67,0,0,1,26,22.41a4.67,4.67,0,0,1-4.51,4.81,4.67,4.67,0,0,1-5.12-4.15A4.67,4.67,0,0,1,20.89,18.27Z"/><path class="cls-3" d="M26.87,43.7c.27.38.55.75.82,1.13.67,1,1.3,1.94,1.89,2.9,1.19,1.91,2.2,3.76,3,5.4l.05.11.24,0,0,0q1.1.21,2.22.35l1.21.08c.34,0,.68.05,1,.06a68.79,68.79,0,0,0-7.89-13.32C28.57,41.53,27.68,42.64,26.87,43.7Z"/><path class="cls-3" d="M13.13,30.71a23.93,23.93,0,0,1,3.23,1.83,29.45,29.45,0,0,1,2.55,1.94h0c.75.63,1.5,1.33,2.23,2.08l.27.3c.81-.81,1.64-1.65,2.48-2.46-4.17-3.61-7.31-4.46-7.31-4.46a16.57,16.57,0,0,0-2-6.13,14.67,14.67,0,0,0-2.25-2.94,26.2,26.2,0,0,0-.78,4.55l-.16-.19c0,.08,0,.16,0,.25A8.37,8.37,0,0,1,13.13,30.71Z"/><ellipse class="cls-4" cx="38.68" cy="44.87" rx="4.66" ry="4.17"/><ellipse class="cls-5" cx="51.78" cy="35.47" rx="4.83" ry="4.49" transform="translate(-10.97 34) rotate(-33.06)"/><ellipse class="cls-6" cx="51.78" cy="18.25" rx="4.83" ry="4.49" transform="translate(-1.13 3.6) rotate(-3.93)"/><ellipse class="cls-7" cx="34.24" cy="12.07" rx="5.84" ry="4.49" transform="translate(-0.75 2.38) rotate(-3.93)"/><ellipse class="cls-8" cx="21.2" cy="22.74" rx="4.83" ry="4.49" transform="translate(-1.51 1.51) rotate(-3.93)"/><path class="cls-9" d="M34.92,58.88s0-.16-.13-.44-.23-.7-.42-1.21c-.37-1-1-2.4-1.73-4l-.05-.11c-.81-1.64-1.82-3.5-3-5.4-.59-1-1.22-1.93-1.89-2.9-.26-.38-.55-.75-.82-1.13-.42-.59-.83-1.18-1.27-1.76s-.73-.94-1.09-1.42-.73-.93-1.11-1.38c-.19-.24-.4-.45-.6-.68A14.51,14.51,0,0,1,21.3,40.8a14.3,14.3,0,0,1-7.63,5l0,.06h0c.18.24.32.48.51.72.35.47.72.93,1.08,1.4s.74.93,1.12,1.39c.75.92,1.54,1.82,2.32,2.7s1.59,1.71,2.37,2.52c1.58,1.6,3.15,3,4.55,4.19a44.5,44.5,0,0,0,3.57,2.69c.46.3.82.54,1.08.69l.4.23a3.06,3.06,0,0,0,1.13.33,3,3,0,0,0,.91-.06A3,3,0,0,0,34.92,58.88Z"/><path class="cls-9" d="M18.9,34.48a29.45,29.45,0,0,0-2.55-1.94,23.93,23.93,0,0,0-3.23-1.83,5.36,5.36,0,0,1-1.63,3.86,6.4,6.4,0,0,1-2.92,1.51v0l.21,0c.18.65.4,1.34.67,2.06a29.56,29.56,0,0,0,1.29,2.92A9.14,9.14,0,0,0,12,40.9,9.29,9.29,0,0,0,18.9,34.48Z"/><path class="cls-10" d="M21.3,40.8a14.51,14.51,0,0,0,1.51-2.34l0,0c-.46-.55-.94-1.07-1.42-1.58l-.27-.3c-.73-.75-1.48-1.45-2.23-2.08h0A9.29,9.29,0,0,1,12,40.9a9.14,9.14,0,0,1-1.29.16v0h0c.44.87.94,1.76,1.5,2.63.43.69.91,1.37,1.41,2.05A14.3,14.3,0,0,0,21.3,40.8Z"/><path class="cls-2" d="M1.56,19.54a1.19,1.19,0,0,0-.38,0h0a1.22,1.22,0,0,1,.46,0Z"/><path class="cls-2" d="M11.5,34.57a5.36,5.36,0,0,0,1.63-3.86,8.37,8.37,0,0,0-1.8-5.24,13.62,13.62,0,0,0-4-3.49c-2.84,1.29.69,4.52-1.66,5.73-2,1.05-2.52-.58-3.91,1.21L1.73,29c0,.09,0,.18,0,.27l0,0c-.05,4.21,2.74,6.93,5.88,7H7.7a5.61,5.61,0,0,0,.63-.07l.25,0A6.4,6.4,0,0,0,11.5,34.57Z"/><path class="cls-8" d="M.57,22.16c.1.23.2.43.3.68s.2.66.3,1,.16.46.22.72c.1.43.16.9.22,1.37,0,.21.08.4.1.62a15,15,0,0,1,0,2.25h0c0,.07,0,.13,0,.19l.07-.08c1.39-1.79,1.86-.15,3.91-1.21C8.06,26.51,4.53,23.28,7.37,22h0c-.45-.27-.94-.53-1.46-.79L5.46,21q-.64-.3-1.33-.57l-.54-.21c-.63-.23-1.28-.45-2-.66h0a1.22,1.22,0,0,0-.46,0,1.29,1.29,0,0,0-.9,1.84C.35,21.62.46,21.9.57,22.16Z"/></g></svg>