<svg xmlns="http://www.w3.org/2000/svg" width="16" height="16" viewBox="0 0 92 92"><style>.st0{fill:#0A84FF;}</style><path class="st0" d="M80.5 3.8h-69C5.1 3.8 0 8.9 0 15.3v57.5c0 6.4 5.1 11.5 11.5 11.5h28.8c3.2 0 5.8-2.6 5.8-5.8 0-3.2-2.6-5.8-5.8-5.8h-23c-3.2 0-5.8-2.6-5.8-5.8V32.5h69V44c0 3.2 2.6 5.8 5.8 5.8s5.8-2.6 5.8-5.8V15.2C92 8.9 86.9 3.8 80.5 3.8zm0 23h-69V21c0-3.2 2.6-5.8 5.8-5.8h57.5c3.2 0 5.8 2.6 5.8 5.8v5.8z"/><path class="st0" d="M11.5 52.9V44c0-3.2-2.6-5.8-5.8-5.8S0 40.8 0 44v28.8c0 6.4 5.1 11.5 11.5 11.5h69c6.4 0 11.5-5.1 11.5-11.5V15.2c0-6.4-5.1-11.5-11.5-11.5H51.8c-3.2 0-5.8 2.6-5.8 5.8 0 3.2 2.6 5.8 5.8 5.8h23c3.2 0 5.8 2.6 5.8 5.8v40.5c0 6.2-2.6 11.2-5.8 11.2H17.2c-3.2 0-5.8-5-5.8-11.2v-8.7z"/><path class="st0" d="M47.3 37.7c-.3.3-.8.5-1.3.5s-.9-.2-1.3-.5c-2.4-2.4-5.6-3.7-9-3.7s-6.6 1.3-9 3.7c-4.2 4.3-4.9 10.9-1.7 16 1 1.5 2.2 2.7 3.7 3.7L45 70.6c.3.2.6.4 1 .4s.7-.1 1-.4l16.2-13.2c4-2.7 6.2-7.4 5.6-12.2s-3.8-8.9-8.4-10.5-9.7-.4-13.1 3z"/></svg>