<svg id="Layer_1" data-name="Layer 1" xmlns="http://www.w3.org/2000/svg" viewBox="0 0 32 32"><defs><style>.cls-1{fill:none;}.cls-2{fill:#fff;}.cls-3{fill:#e1e1e5;}.cls-4{fill:#767aa8;}.cls-5{fill:#f9f9fa;}.cls-6{fill:#cd6f14;}</style></defs><title>icons</title><path class="cls-1" d="M5.36,20.85H19.86l5.33,5.81a.63.63,0,0,0,.46.17,2.31,2.31,0,0,0,1.47-.76,2.17,2.17,0,0,0,.75-1.57A2.22,2.22,0,0,1,27.12,26c-.69.69-1.56,1-1.93.59L19.86,20.8H5.36A1.32,1.32,0,0,1,4,19.48V14.35H4v5.17A1.32,1.32,0,0,0,5.36,20.85Z"/><path class="cls-1" d="M24.12,20.8l0,0a1.32,1.32,0,0,0,1.27-1.31v0A1.32,1.32,0,0,1,24.12,20.8Z"/><path class="cls-2" d="M23.6,20.32h.51a.84.84,0,0,0,.84-.84V14.31a.84.84,0,0,0-.84-.84H21.33a7.34,7.34,0,0,1-1.45,3.86l.63.63a.82.82,0,0,1,.77.22Z"/><path class="cls-2" d="M19.06,19.41l-.63-.63a7.39,7.39,0,0,1-11.82-5.3H5.36a.84.84,0,0,0-.84.84v5.17a.84.84,0,0,0,.84.84h14l-.13-.14A.82.82,0,0,1,19.06,19.41Z"/><path class="cls-3" d="M5.36,20.8H19.86l-.44-.48h-14a.84.84,0,0,1-.84-.84V14.31a.84.84,0,0,1,.84-.84H6.61c0-.16,0-.31,0-.47,0,0,0,0,0,0H5.36A1.32,1.32,0,0,0,4,14.35v5.13A1.32,1.32,0,0,0,5.36,20.8Z"/><path class="cls-3" d="M24.1,13.48a.84.84,0,0,1,.84.84v5.17a.84.84,0,0,1-.84.84H23.6l.26.24.26.24a1.32,1.32,0,0,0,1.3-1.32V14.36A1.32,1.32,0,0,0,24.1,13H21.34v0c0,.15,0,.31,0,.46Z"/><path class="cls-4" d="M8.75,18.11a7.4,7.4,0,0,0,9.68.67l.63.63A2.22,2.22,0,0,1,20.51,18l-.63-.63a7.34,7.34,0,0,0,1.45-3.86c0-.15,0-.31,0-.46a7.37,7.37,0,0,0-1.59-4.71l-.1-.12c-.14-.17-.29-.34-.45-.5A7.39,7.39,0,0,0,6.59,13c0,.16,0,.31,0,.47A7.36,7.36,0,0,0,8.75,18.11ZM8.28,10.9a6,6,0,0,1,.43-1h0a6,6,0,0,1,10.46,0h0c0,.07.06.15.1.22s.08.13.11.2l-.06-.08a6.15,6.15,0,0,1,.28.63A6,6,0,0,1,8.87,16.08l0,.08c-.06-.09-.1-.19-.15-.28l-.14-.26c-.05-.11-.11-.21-.15-.32a6,6,0,0,1-.25-.66v0A6,6,0,0,1,8,13.83v-.05a5.79,5.79,0,0,1,.27-2.87Z"/><path class="cls-5" d="M14.36,7.56A6,6,0,0,0,9.58,9.93h9.56A6,6,0,0,0,14.36,7.56Z"/><path class="cls-2" d="M8,12.92a6,6,0,0,1,.35-2h0A5.79,5.79,0,0,0,8,13.77,6.05,6.05,0,0,1,8,12.92Z"/><path class="cls-2" d="M8.33,13.59a6,6,0,0,0,.54,2.49A6,6,0,0,0,19.66,10.9H9A6,6,0,0,0,8.33,13.59Z"/><path class="cls-3" d="M8,12.92a6.05,6.05,0,0,0,.06.86v.05a6,6,0,0,0,.17.78v0a6,6,0,0,0,.25.66c0,.11.1.21.15.32l.14.26c.05.09.1.19.15.28l0-.08A6,6,0,0,1,9,10.9H19.66a6.15,6.15,0,0,0-.28-.63l.06.08c0-.07-.07-.13-.11-.2s-.06-.15-.1-.22h0a6,6,0,0,0-10.46,0h0a6,6,0,0,0-.43,1h0A6,6,0,0,0,8,12.92Zm6.41-5.35a6,6,0,0,1,4.78,2.37H9.58A6,6,0,0,1,14.36,7.56Z"/><path class="cls-6" d="M21.1,22.15,23.25,20l.61.56-.26-.24-2.32-2.13a.82.82,0,0,0-.77-.22,2.22,2.22,0,0,0-1.44,1.44.82.82,0,0,0,.22.77l.13.14.44.48,5.33,5.81c.37.37,1.24.1,1.93-.59a2.22,2.22,0,0,0,.75-1.53.59.59,0,0,0-.16-.36L26.4,22.93,24,25.32Z"/><path class="cls-4" d="M23.86,20.56,23.25,20,21.1,22.15,24,25.32l2.39-2.39-2.28-2.09h0l0,0Z"/><path class="cls-2" d="M5.36,21.85H19.42l5,5.49a1.65,1.65,0,0,0,1.2.49,3.27,3.27,0,0,0,2.18-1c1.12-1.12,1.37-2.56.59-3.34l-2.58-2.37a2.31,2.31,0,0,0,.59-1.54V14.36A2.32,2.32,0,0,0,24.1,12H22.3A8.37,8.37,0,0,0,8,7,8.31,8.31,0,0,0,5.63,12H5.36A2.32,2.32,0,0,0,3,14.36v5.17A2.32,2.32,0,0,0,5.36,21.85ZM4,14.36H4A1.32,1.32,0,0,1,5.36,13H6.59s0,0,0,0A7.39,7.39,0,0,1,19.2,7.69c.16.16.31.33.45.5l.1.12A7.37,7.37,0,0,1,21.34,13v0H24.1a1.32,1.32,0,0,1,1.32,1.32v5.17a1.32,1.32,0,0,1-1.27,1.31h0l2.28,2.09,1.31,1.21a.59.59,0,0,1,.16.36,2.17,2.17,0,0,1-.75,1.57,2.31,2.31,0,0,1-1.47.76.63.63,0,0,1-.46-.17l-5.33-5.81H5.36A1.32,1.32,0,0,1,4,19.52Z"/></svg>