<svg id="Layer_1" data-name="Layer 1" xmlns="http://www.w3.org/2000/svg" viewBox="0 0 32 32"><defs><style>.cls-1{fill:none;}.cls-2{fill:#13bf00;}.cls-3{fill:#a0a7e6;}.cls-4{fill:#e1e1e5;}.cls-5{fill:#767aa8;}.cls-6{fill:#737eb3;}.cls-7{fill:#f5f5f7;}.cls-8{fill:#5df73e;}.cls-9{fill:#fff;}</style></defs><title>icons</title><path class="cls-1" d="M11.31,10.32a4.48,4.48,0,0,1-.52.36,4.41,4.41,0,0,0,.52-.36Z"/><path class="cls-1" d="M11.57,11.48a2.4,2.4,0,0,1-.68.26h-.67V11h0v.79h.67A2.44,2.44,0,0,0,11.57,11.48Z"/><path class="cls-1" d="M7.76,11.75H7.39a1.4,1.4,0,0,0-.67.17,1.39,1.39,0,0,1,.65-.16Z"/><path class="cls-1" d="M9.42,19.66c.35.4.47.49.77.49,0,0,.1,0,.19-.15a1.85,1.85,0,0,0,.27-1.1,1.7,1.7,0,0,0-.25-1,.3.3,0,0,0-.21-.14c-.3,0-.41.09-.77.49a3.39,3.39,0,0,1-.84.74A3.39,3.39,0,0,1,9.42,19.66Z"/><path class="cls-1" d="M7.75,4.12V7a.56.56,0,0,0,.56.56h2a.55.55,0,0,0,.24-.06.56.56,0,0,1-.21,0h-2A.56.56,0,0,1,7.78,7V4.1a.19.19,0,0,0-.19-.19l-.07,0h0l.07,0A.19.19,0,0,1,7.75,4.12Z"/><path class="cls-1" d="M12.49,6.11l.18,0-.16,0A3.74,3.74,0,0,0,11,4.17v0A3.74,3.74,0,0,1,12.49,6.11Z"/><path class="cls-1" d="M16.46,7.06h2.76a1,1,0,0,1,1,1V9.92a1,1,0,0,1-.61.93h0a1,1,0,0,0,.63-.94V8.07a1,1,0,0,0-1-1H16.49c-.35-.59-1.12-1.1-2.72-1.1A5,5,0,0,0,13,6,5.81,5.81,0,0,1,13.74,6C15.34,6,16.11,6.47,16.46,7.06Z"/><path class="cls-1" d="M10.16,21.16a1.1,1.1,0,0,0,.54-.15,1.1,1.1,0,0,1-.52.14c-1.45,0-1.52-1.49-2.63-1.49a1.68,1.68,0,0,0-.59.1,1.71,1.71,0,0,1,.57-.09C8.64,19.67,8.71,21.16,10.16,21.16Z"/><path class="cls-1" d="M7.93,18.13c.55-.2.82-.84,1.38-1.19C8.74,17.28,8.47,17.91,7.93,18.13Z"/><path class="cls-1" d="M12.93,23.27c0,1.46,1.44,1.66,1.44,2.77A1.4,1.4,0,0,1,14,27a1.38,1.38,0,0,0,.37-1c0-1.11-1.44-1.31-1.44-2.77A1.57,1.57,0,0,1,13.86,22,1.58,1.58,0,0,0,12.93,23.27Z"/><path class="cls-1" d="M17.59,11.51a.37.37,0,0,1,.35.23h2.47a1.44,1.44,0,0,1,1.43,1.45V15.3a3,3,0,0,0,.07.35c.11.4.36,1,1,1a.72.72,0,0,0,.31-.07.72.72,0,0,1-.28.06c-.59,0-.85-.61-1-1a3,3,0,0,1-.07-.35V13.18a1.44,1.44,0,0,0-1.43-1.45H18a.37.37,0,0,0-.35-.23v-.55h0Z"/><path class="cls-1" d="M27.52,18.18c0,1.58-.55,2.33-1.16,2.68.62-.34,1.18-1.1,1.18-2.69,0-2.54-1.41-2.84-2.23-2.84a2,2,0,0,0-1,.22,2,2,0,0,1,.94-.2C26.11,15.34,27.52,15.65,27.52,18.18Z"/><path class="cls-1" d="M21.84,21.06V26.2A1.45,1.45,0,0,1,21,27.52a1.45,1.45,0,0,0,.88-1.33V21s.11-1,.71-1.26C22,20,21.84,21.06,21.84,21.06Z"/><path class="cls-1" d="M15.26,22.64c-1,0-1.3.49-1.31.62,0,.36.16.53.51.89a3,3,0,0,1,.87,1.34,3,3,0,0,1,.84-1.33c.34-.36.5-.54.5-.89C16.64,23.14,16.23,22.64,15.26,22.64Z"/><path class="cls-2" d="M11.23,15.24a1,1,0,0,1,1-1h1.63v-.47a.36.36,0,0,1-.26-.09.37.37,0,0,1,.12-.61l.14-.06V12.3a.36.36,0,0,1-.26-.09.37.37,0,0,1,.12-.61l.14-.06v-.59H12.26l-.18,0a.88.88,0,0,1-.16.27l0,0-.15.14-.1.07-.09.05a2.44,2.44,0,0,1-.7.27h-.67v3.91h1Z"/><path class="cls-2" d="M7.76,14.48h0V11.75h-.4a1.39,1.39,0,0,0-.65.16A1.46,1.46,0,0,0,6,13.18v2.46h1.8Z"/><path class="cls-2" d="M12.71,7.06h3.75C16.11,6.47,15.34,6,13.74,6A5.81,5.81,0,0,0,13,6l-.29.06-.18,0A3.76,3.76,0,0,1,12.71,7.06Z"/><path class="cls-2" d="M17.73,12.22l-.14.06v.67a.37.37,0,0,1,.14.72l-.14.06v.49h1.63a1,1,0,0,1,1,1v.42h1.67a3,3,0,0,1-.07-.35V13.2a1.44,1.44,0,0,0-1.43-1.45H17.94A.37.37,0,0,1,17.73,12.22Z"/><path class="cls-3" d="M7.79,11v.79h0v2.73h.73V11A3.73,3.73,0,0,1,7.75,4.2V4.12a.19.19,0,0,0-.19-.19l-.07,0a3.76,3.76,0,0,0,.29,7Z"/><path class="cls-4" d="M9.64,7.56H8.32A.56.56,0,0,1,7.75,7V4.2A3.75,3.75,0,0,0,8.49,11v3.51h1.7v1.18h0V11h0a3.2,3.2,0,0,0,.57-.27,4.48,4.48,0,0,0,.52-.36,1,1,0,0,1-.08-.4V8.08a1,1,0,0,1,1-1h.46A3.84,3.84,0,0,0,11,4.2V7a.56.56,0,0,1-.35.52.55.55,0,0,1-.24.06Z"/><polygon class="cls-5" points="7.76 15.66 10.19 15.66 10.19 14.48 8.49 14.48 8.49 14.48 7.76 14.48 7.76 14.48 7.76 15.66"/><path class="cls-4" d="M17.59,14.21v-.49l-1.21.49h-2L17.45,13l.14,0v-.67L14,13.73a.35.35,0,0,1-.14,0v.47h-.34v1.44h4.4V14.21Z"/><path class="cls-6" d="M17.73,12.22a.37.37,0,0,0,.21-.48h0a.37.37,0,0,0-.35-.23v.77Z"/><path class="cls-6" d="M13.54,12.08a.37.37,0,0,0,.08.12.36.36,0,0,0,.26.09v-.76l-.14.06A.37.37,0,0,0,13.54,12.08Z"/><path class="cls-6" d="M17.73,13.67a.37.37,0,0,0-.14-.72v.77Z"/><path class="cls-6" d="M13.54,13.52a.37.37,0,0,0,.08.12.36.36,0,0,0,.26.09V13l-.14.06A.37.37,0,0,0,13.54,13.52Z"/><path class="cls-5" d="M14,12.28l3.31-1.34h-2l-1.46.59v.76A.35.35,0,0,0,14,12.28Z"/><path class="cls-5" d="M14.4,14.21h2l1.21-.49v-.77l-.14,0Z"/><path class="cls-5" d="M14,13.73l3.57-1.45v-.77l-.14,0L13.88,13v.76A.35.35,0,0,0,14,13.73Z"/><path class="cls-4" d="M17.94,10.29V7.06h-4.4v3.89h.34v.59l1.46-.59h2L14,12.28a.35.35,0,0,1-.14,0V13l3.57-1.45.14,0v-.56h.34v-.64Z"/><path class="cls-5" d="M11.34,10.31a1,1,0,0,0,.75.6h0l.18,0h1.28V7.06H12.26a1,1,0,0,0-1,1V9.92a1,1,0,0,0,.08.4h0Z"/><path class="cls-5" d="M13.54,15a.37.37,0,0,1,0-.28v-.47H12.26a1,1,0,0,0-1,1v.42h2.31V15Z"/><path class="cls-6" d="M13.54,15h0v-.29A.37.37,0,0,0,13.54,15Z"/><path class="cls-7" d="M20.24,9.92V8.08a1,1,0,0,0-1-1H17.94v3.87h1.31a1,1,0,0,0,1-1Z"/><path class="cls-7" d="M19.22,14.21H17.94v1.44h2.31v-.42A1,1,0,0,0,19.22,14.21Z"/><path class="cls-8" d="M21.91,15.66H6V16s-.15,2.18,1.6,2.18a1.06,1.06,0,0,0,.37-.06c.54-.21.81-.85,1.38-1.19a1.6,1.6,0,0,1,.88-.24c.72,0,1.46.68,1.46,2.19A2.27,2.27,0,0,1,10.71,21a1.1,1.1,0,0,1-.54.15c-1.45,0-1.52-1.49-2.63-1.49a1.71,1.71,0,0,0-.57.09c-1.12.42-1,2-1,2v4.42a1.44,1.44,0,0,0,1.43,1.45h4.86a3.4,3.4,0,0,0,1.12-.19l.21-.09.13-.08a1.51,1.51,0,0,0,.27-.21L14,27a1.4,1.4,0,0,0,.34-1c0-1.11-1.44-1.31-1.44-2.77a1.58,1.58,0,0,1,.93-1.3,2.89,2.89,0,0,1,1.4-.33c1.51,0,2.4.9,2.4,1.62,0,1.46-1.4,1.66-1.4,2.77,0,1.49,1.66,1.61,2.15,1.61h2a1.41,1.41,0,0,0,.56-.11,1.45,1.45,0,0,0,.85-1.32V21.06s.11-1,.73-1.27a.76.76,0,0,1,.31-.07c.88,0,.79,1.4,2.43,1.4a2.19,2.19,0,0,0,1.05-.26c.61-.35,1.16-1.11,1.16-2.68,0-2.54-1.41-2.84-2.23-2.84a2,2,0,0,0-.94.2c-.58.31-.76.88-1.18,1.05a.72.72,0,0,1-.31.07C22.27,16.67,22,16.06,21.91,15.66Z"/><path class="cls-9" d="M10.89,11.74a2.4,2.4,0,0,0,.68-.26l.09-.05.1-.07.15-.14,0,0a.88.88,0,0,0,.16-.27h0a1,1,0,0,1-.75-.6l0,0a4.41,4.41,0,0,1-.52.36,3.2,3.2,0,0,1-.57.27h0v.79Z"/><path class="cls-9" d="M6.06,11.14a2.46,2.46,0,0,0-1.1,2V16a3.57,3.57,0,0,0,.78,2.46,2.3,2.3,0,0,0,.64.48,2.3,2.3,0,0,0-.66.49A3.44,3.44,0,0,0,5,21.8v4.39a2.44,2.44,0,0,0,2.43,2.45h4.86a4.21,4.21,0,0,0,1.67-.33,2.37,2.37,0,0,0,1.41-1.67c.28,1.23,1.43,2,3.08,2h2a2.44,2.44,0,0,0,2.43-2.45V21.12a1.51,1.51,0,0,1,.05-.21,2.82,2.82,0,0,0,2.4,1.22c1.56,0,3.23-1,3.23-4A3.93,3.93,0,0,0,27.39,15a3.08,3.08,0,0,0-2.08-.71,2.86,2.86,0,0,0-2.38,1.16l0-.1c0-.07,0-.13,0-.17v-2a2.45,2.45,0,0,0-1.81-2.37,2,2,0,0,0,.21-.91V8.07a2,2,0,0,0-2-2H17a4.21,4.21,0,0,0-3.21-1.1,6.38,6.38,0,0,0-.67,0,4.73,4.73,0,0,0-1.62-1.66A1,1,0,0,0,10,4.17V6.55H8.78V4.1A1.19,1.19,0,0,0,7.12,3a4.77,4.77,0,0,0-1.06,8.13Zm9.27,14.36a3,3,0,0,0-.87-1.34c-.35-.36-.51-.54-.51-.89,0-.13.34-.62,1.31-.62s1.38.5,1.4.63c0,.35-.15.53-.5.89A3,3,0,0,0,15.32,25.49Zm-9-20.77a3.77,3.77,0,0,1,1.15-.78h0l.07,0a.19.19,0,0,1,.19.19V7a.56.56,0,0,0,.56.56h2A.56.56,0,0,0,11,7V4.17a3.74,3.74,0,0,1,1.56,1.92l.16,0L13,6a5,5,0,0,1,.8-.06c1.6,0,2.37.52,2.72,1.1h2.76a1,1,0,0,1,1,1V9.91a1,1,0,0,1-.63.94h0a1,1,0,0,1-.39.08H17.61v.55a.37.37,0,0,1,.35.23h2.47a1.44,1.44,0,0,1,1.43,1.45v2.11a3,3,0,0,0,.07.35c.11.4.36,1,1,1a.72.72,0,0,0,.28-.06c.43-.18.6-.74,1.18-1.05a2,2,0,0,1,1-.22c.82,0,2.23.3,2.23,2.84,0,1.6-.56,2.35-1.18,2.69a2.19,2.19,0,0,1-1.05.26c-1.64,0-1.55-1.4-2.43-1.4a.76.76,0,0,0-.31.07c-.6.27-.71,1.26-.71,1.26v5.14A1.45,1.45,0,0,1,21,27.52a1.41,1.41,0,0,1-.56.11h-2c-.49,0-2.15-.11-2.15-1.61,0-1.11,1.4-1.31,1.4-2.77,0-.72-.89-1.62-2.4-1.62a2.89,2.89,0,0,0-1.4.33,1.57,1.57,0,0,0-.91,1.29c0,1.46,1.44,1.66,1.44,2.77A1.38,1.38,0,0,1,14,27l-.05.05a1.51,1.51,0,0,1-.27.21l-.13.08-.21.09a3.4,3.4,0,0,1-1.12.19H7.39A1.44,1.44,0,0,1,6,26.18V21.77s-.11-1.59,1-2a1.68,1.68,0,0,1,.59-.1c1.11,0,1.17,1.49,2.63,1.49a1.1,1.1,0,0,0,.52-.14,2.27,2.27,0,0,0,.94-2.12c0-1.5-.74-2.19-1.46-2.19a1.6,1.6,0,0,0-.88.24c-.57.35-.83,1-1.38,1.19a1.06,1.06,0,0,1-.37.06C5.81,18.19,6,16,6,16v-.35H6V13.18a1.46,1.46,0,0,1,.76-1.27,1.4,1.4,0,0,1,.67-.17h.4V11A3.77,3.77,0,0,1,6.34,4.73Zm2.24,14.2a3.39,3.39,0,0,0,.84-.74c.35-.4.47-.49.77-.49a.3.3,0,0,1,.21.14,1.7,1.7,0,0,1,.25,1,1.85,1.85,0,0,1-.27,1.1c-.09.12-.17.15-.19.15-.3,0-.41-.09-.77-.49A3.39,3.39,0,0,0,8.58,18.93Z"/></svg>