<svg xmlns="http://www.w3.org/2000/svg" viewBox="0 0 64 64"><defs><style>.cls-1{fill:none;}.cls-2{fill:gold;}.cls-3{fill:#f2cc00;}.cls-4{fill:#767aa8;}.cls-5{fill:#505473;}.cls-6{fill:#c980ff;}</style></defs><title>Artboard 1</title><g id="Layer_1" data-name="Layer 1"><rect class="cls-1" width="64" height="64"/></g><g id="Layer_2" data-name="Layer 2"><path class="cls-1" d="M59.44,40c-.15.52-.33,1-.51,1.52-.11.31-.22.62-.34.93-.19.47-.39.94-.6,1.4s-.29.62-.45.93-.45.89-.7,1.33-.35.58-.53.88-.52.86-.81,1.28c-.1.14-.21.27-.31.41a29.13,29.13,0,0,1-2,2.52c-.23.26-.46.52-.7.77s-.69.68-1,1-.53.49-.8.73-.73.62-1.11.92-.58.44-.87.65-.78.57-1.19.83-.6.36-.89.54a29,29,0,0,1-2.68,1.43c-.23.11-.44.22-.67.32-.45.2-.92.36-1.39.54s-.68.26-1,.38-.94.29-1.42.42L38.28,60c-.48.11-1,.22-1.46.31s-.74.12-1.12.17l-.51.08.91-.11c.37-.05.75-.1,1.12-.17s1-.19,1.46-.31l1.08-.28c.48-.13,1-.27,1.42-.42s.68-.25,1-.38.93-.34,1.39-.54c.23-.1.45-.22.67-.32A29,29,0,0,0,47,56.59c.3-.18.6-.35.89-.54s.8-.55,1.19-.83.58-.43.87-.65.75-.6,1.11-.92.54-.48.8-.73.7-.66,1-1,.47-.51.7-.77a29.11,29.11,0,0,0,2-2.53c.1-.14.21-.27.3-.41.29-.41.54-.85.81-1.28s.36-.58.53-.88.47-.88.7-1.33.31-.62.45-.93.41-.93.6-1.4c.12-.31.23-.62.34-.93.18-.5.36-1,.51-1.52v0h-.39Z"/><path class="cls-1" d="M52.69,11.83l0-.06c.17.18.32.38.49.57.38.42.76.84,1.11,1.28s.49.65.73,1,.59.79.86,1.2.51.83.76,1.25l.23.38c3.41,1.32,4.39,4.09,4.35,9.07a34.42,34.42,0,0,1-.55,6c0,.18,0,.37,0,.55a3.43,3.43,0,0,1-.29,6.82h.22A3.44,3.44,0,0,0,64,36.43,3.39,3.39,0,0,0,61,33c0-.18,0-.37,0-.55a34.42,34.42,0,0,0,.55-6c0-5-.94-7.75-4.35-9.07L57,17c-.25-.42-.49-.85-.76-1.26s-.57-.8-.86-1.19-.48-.66-.73-1-.73-.86-1.11-1.28c-.17-.19-.32-.39-.49-.57l0,.06a28.88,28.88,0,0,0-21-9.09c-.32,0-.62.05-.94.06l.54,0A28.88,28.88,0,0,1,52.69,11.83Z"/><path class="cls-2" d="M31.54,20.44c4.78,0,7.68-4,17.55-4a29.16,29.16,0,0,1,6.08.51,29.63,29.63,0,0,0-2.48-5.08,28.88,28.88,0,0,0-21-9.09l-.54,0a29.35,29.35,0,0,0-2.93.2l-.25,0A29,29,0,0,0,7,17.16a25.12,25.12,0,0,1,7-.75C23.87,16.41,26.76,20.44,31.54,20.44Zm10-6.95a6.05,6.05,0,0,1,9,0,1,1,0,0,1-.09,1.42.91.91,0,0,1-.66.26,1,1,0,0,1-.75-.34,4,4,0,0,0-6,0,1,1,0,0,1-1.42.08A1,1,0,0,1,41.58,13.49Z"/><path class="cls-2" d="M3.49,39.89h.68a29,29,0,0,0,7.9,12.89l0,0,.19.16c.23.21.47.41.7.61a29.74,29.74,0,0,0,37.93-8,11.24,11.24,0,0,1-3,.4c-6.16,0-10.43-7.39-16.34-7.39S21,46,15.21,46C9.11,46,4.31,41.36,2.58,33.2A3.4,3.4,0,0,0,0,36.44,3.44,3.44,0,0,0,3.49,39.89ZM21.92,45.2A1.44,1.44,0,0,1,24,45.08a11.09,11.09,0,0,0,9.76,2,1.45,1.45,0,1,1,.78,2.8A14.07,14.07,0,0,1,22,47.25,1.44,1.44,0,0,1,21.92,45.2Z"/><path class="cls-2" d="M56.83,17.42h0L56.61,17Z"/><path class="cls-2" d="M34.4,60.64h.18l.61-.08.51-.08C35.27,60.54,34.84,60.6,34.4,60.64Z"/><path class="cls-3" d="M63.6,36.47a3.39,3.39,0,0,0-3-3.41c0-.18,0-.37,0-.55-1.33,7.17-5,11.75-9.78,13.07a29.74,29.74,0,0,1-37.93,8c.32.28.62.56,1,.83l.27.22a29,29,0,0,0,6.82,4l.34.13q1.05.42,2.15.76l.46.14q1.08.32,2.2.55l.41.09c.85.16,1.7.29,2.57.38h.08c.94.09,1.89.15,2.85.15.5,0,1,0,1.48-.07l.9,0c.44,0,.87-.1,1.3-.16s.75-.1,1.12-.17,1-.19,1.46-.31l1.08-.28c.48-.13,1-.27,1.42-.42s.68-.25,1-.38.93-.34,1.39-.54c.23-.1.45-.22.67-.32a29,29,0,0,0,2.68-1.43c.3-.18.6-.35.89-.54s.8-.55,1.19-.83.59-.43.87-.65.75-.6,1.11-.92.54-.48.8-.73.7-.66,1-1,.47-.51.7-.77a29.13,29.13,0,0,0,2-2.52c.1-.14.21-.27.31-.41.29-.41.54-.85.81-1.28s.36-.58.53-.88.47-.88.7-1.33.31-.62.45-.93.41-.93.6-1.4c.12-.31.23-.62.34-.93.18-.5.36-1,.51-1.52l0-.08h.39v0h.47A3.42,3.42,0,0,0,63.6,36.47Z"/><path class="cls-3" d="M55.85,15.79c-.27-.41-.57-.8-.86-1.2s-.48-.66-.73-1-.73-.86-1.11-1.28c-.17-.19-.32-.39-.49-.57l0,.06a29.63,29.63,0,0,1,2.48,5.08,11.13,11.13,0,0,1,1.66.5L56.61,17C56.36,16.62,56.12,16.2,55.85,15.79Z"/><path class="cls-3" d="M43.08,14.83a4,4,0,0,1,6,0,1,1,0,0,0,.75.34.91.91,0,0,0,.66-.26,1,1,0,0,0,.09-1.42,6.05,6.05,0,0,0-9,0,1,1,0,0,0,.08,1.42A1,1,0,0,0,43.08,14.83Z"/><path class="cls-4" d="M30.85,50.34a13.72,13.72,0,0,0,3.66-.49,1.45,1.45,0,1,0-.78-2.8,11.09,11.09,0,0,1-9.76-2A1.45,1.45,0,1,0,22,47.25,13.69,13.69,0,0,0,30.85,50.34Z"/><path class="cls-5" d="M18.23,33.88c3.89,0,8.47-1.42,8.47-2.69s-2.2-5.62-7.87-5.38c-6,.26-8.47,3.83-8.47,4.7S14.34,33.88,18.23,33.88Z"/><path class="cls-5" d="M44.85,33.88c3.89,0,7.87-2.48,7.87-3.36s-2.47-4.44-8.47-4.7c-5.66-.24-7.87,4-7.87,5.38S41,33.88,44.85,33.88Z"/><path class="cls-6" d="M15.21,46c5.8,0,10.43-7.39,16.34-7.39S41.72,46,47.88,46a11.24,11.24,0,0,0,3-.4c4.81-1.31,8.46-5.89,9.78-13.07a34.42,34.42,0,0,0,.55-6c0-5-.94-7.75-4.35-9.07h0a11.13,11.13,0,0,0-1.66-.5,29.16,29.16,0,0,0-6.08-.51c-9.87,0-12.76,4-17.55,4s-7.68-4-17.55-4a25.12,25.12,0,0,0-7,.75l-.08.13c-3.61,1.29-4.64,4.06-4.6,9.16A33.83,33.83,0,0,0,3,33.06a3.33,3.33,0,0,0-.38.13C4.31,41.36,9.11,46,15.21,46Zm29-20.16c6,.26,8.47,3.83,8.47,4.7s-4,3.36-7.87,3.36-8.47-1.42-8.47-2.69S38.59,25.57,44.25,25.82Zm-25.41,0c5.66-.24,7.87,4,7.87,5.38s-4.58,2.69-8.47,2.69-7.87-2.48-7.87-3.36S12.84,26.08,18.84,25.82Z"/></g></svg>