<svg xmlns="http://www.w3.org/2000/svg" width="16" height="16" viewBox="0 0 16 16" fill="context-fill" fill-opacity="context-fill-opacity"><path fill-rule="evenodd" d="M6.456 3.212c.378-.94 1.71-.94 2.088 0l1.2 2.99 3.213.217c1.012.069 1.424 1.336.646 1.986L11.13 10.47l.786 3.123c.247.983-.83 1.767-1.69 1.227L7.5 13.108 4.772 14.82c-.859.54-1.936-.244-1.689-1.227l.786-3.123-2.472-2.065c-.778-.65-.366-1.917.646-1.986l3.213-.218 1.2-2.989Zm1.044.755L6.387 6.74c-.161.4-.537.674-.968.703l-2.981.202L4.73 9.561c.331.277.475.719.37 1.138l-.73 2.897 2.53-1.588c.367-.23.831-.23 1.197 0l2.53 1.588L9.9 10.7c-.106-.42.038-.861.37-1.138l2.292-1.916-2.98-.202a1.125 1.125 0 0 1-.969-.703L7.5 3.967Z" clip-rule="evenodd"/><path d="M8.456 1.212c.378-.94 1.71-.94 2.088 0l1.2 2.99 3.213.217c1.012.069 1.424 1.336.646 1.986l-.364.304a2.528 2.528 0 0 0-.697-1.047l.02-.017-.043-.003a2.46 2.46 0 0 0-1.469-.595l-2.352-.16L9.82 2.7a2.666 2.666 0 0 0-.155-.323l-.165-.41-.041.103a2.419 2.419 0 0 0-1.039-.768l.036-.09Z"/></svg>
