<svg xmlns="http://www.w3.org/2000/svg" width="16" height="16" viewBox="0 0 16 16" fill="context-fill" fill-opacity="context-fill-opacity"><path fill-rule="evenodd" d="M1.25 10.255V14c0 .414.336.75.75.75h12a.75.75 0 0 0 .75-.75v-3.745h-3.534c-.46 0-.868.292-1.016.727-.716 2.1-3.684 2.1-4.4 0a1.074 1.074 0 0 0-1.016-.727H1.25Zm13.5-1.25h-3.534c-.995 0-1.879.633-2.2 1.574-.33.97-1.702.97-2.032 0a2.324 2.324 0 0 0-2.2-1.574H1.25V2A.75.75 0 0 1 2 1.25h12a.75.75 0 0 1 .75.75v7.005ZM2 0a2 2 0 0 0-2 2v12a2 2 0 0 0 2 2h12a2 2 0 0 0 2-2V2a2 2 0 0 0-2-2H2Z" clip-rule="evenodd"/><path d="M3 3.625C3 3.28 3.28 3 3.625 3h8.75a.625.625 0 1 1 0 1.25h-8.75A.625.625 0 0 1 3 3.625ZM3 6.625C3 6.28 3.28 6 3.625 6h8.75a.625.625 0 1 1 0 1.25h-8.75A.625.625 0 0 1 3 6.625Z"/></svg>
