<svg xmlns="http://www.w3.org/2000/svg" width="16" height="16" viewBox="0 0 16 16" fill="context-fill" fill-opacity="context-fill-opacity"><path fill-rule="evenodd" d="M11.625 7.5c.345 0 .625.28.625.625V11h2.875a.625.625 0 1 1 0 1.25H12.25v2.875a.625.625 0 1 1-1.25 0V12.25H8.125a.625.625 0 1 1 0-1.25H11V8.125c0-.345.28-.625.625-.625Z" clip-rule="evenodd"/><path fill-rule="evenodd" d="M2.005 4.63A2.625 2.625 0 0 1 4.63 2.005h6.74a2.625 2.625 0 0 1 2.625 2.625V10h-.745V8.125a1.625 1.625 0 1 0-3.25 0V10H8.125a1.625 1.625 0 0 0-.874 2.995H.63a.625.625 0 1 1 0-1.25h1.375V4.63Zm10.245 8.365H11v-.745H8.125a.625.625 0 1 1 0-1.25H11V8.125a.625.625 0 1 1 1.25 0V11h1.745v1.25H12.25v.745Z" clip-rule="evenodd"/></svg>