<?xml version="1.0" encoding="UTF-8"?><svg xmlns="http://www.w3.org/2000/svg" xmlns:xlink="http://www.w3.org/1999/xlink" width="262.5pt" zoomAndPan="magnify" viewBox="0 0 262.5 67.499998" height="67.499998pt" preserveAspectRatio="xMidYMid meet" version="1.2"><defs><g/><clipPath xml:id="clip1" id="clip1"><path d="M 169 16 L 200 16 L 200 67.003906 L 169 67.003906 Z M 169 16 "/></clipPath></defs><g xml:id="surface1" id="surface1"><g style="fill:rgb(100%,100%,100%);fill-opacity:1;"><g transform="translate(2.490922, 54.711814)"><path style="stroke:none;" d="M 38.953125 -44.84375 L 11.25 -44.84375 L 11.25 -27.046875 L 34.796875 -27.046875 L 34.796875 -22.75 L 11.3125 -22.75 L 11.3125 1.1875 L 6.078125 1.1875 L 6.078125 -49.34375 L 38.953125 -49.34375 Z M 38.953125 -44.84375 "/></g></g><g style="fill:rgb(100%,100%,100%);fill-opacity:1;"><g transform="translate(42.175329, 54.711814)"><path style="stroke:none;" d="M 11.109375 1.1875 L 5.828125 1.1875 L 5.828125 -51.65625 L 11.109375 -51.65625 Z M 11.109375 1.1875 "/></g></g><g style="fill:rgb(100%,100%,100%);fill-opacity:1;"><g transform="translate(59.041203, 54.711814)"><path style="stroke:none;" d="M 21.03125 -37.828125 C 25.488281 -37.828125 28.863281 -36.898438 31.15625 -35.046875 C 33.445312 -33.203125 34.59375 -30.425781 34.59375 -26.71875 L 34.59375 -9.859375 C 34.59375 -2.492188 30.070312 1.1875 21.03125 1.1875 L 17.59375 1.1875 C 8.644531 1.1875 4.171875 -2.492188 4.171875 -9.859375 L 4.171875 -26.71875 C 4.171875 -34.125 8.644531 -37.828125 17.59375 -37.828125 Z M 29.296875 -26.59375 C 29.296875 -28.132812 29.097656 -29.34375 28.703125 -30.21875 C 28.304688 -31.101562 27.753906 -31.773438 27.046875 -32.234375 C 26.347656 -32.703125 25.488281 -33 24.46875 -33.125 C 23.457031 -33.257812 22.359375 -33.328125 21.171875 -33.328125 L 17.53125 -33.328125 C 16.332031 -33.328125 15.238281 -33.257812 14.25 -33.125 C 13.257812 -33 12.410156 -32.703125 11.703125 -32.234375 C 11.003906 -31.773438 10.453125 -31.101562 10.046875 -30.21875 C 9.648438 -29.34375 9.453125 -28.132812 9.453125 -26.59375 L 9.453125 -10.515625 C 9.453125 -8.878906 9.671875 -7.585938 10.109375 -6.640625 C 10.554688 -5.691406 11.164062 -4.960938 11.9375 -4.453125 C 12.707031 -3.953125 13.578125 -3.632812 14.546875 -3.5 C 15.515625 -3.375 16.53125 -3.3125 17.59375 -3.3125 L 21.09375 -3.3125 C 22.289062 -3.3125 23.394531 -3.375 24.40625 -3.5 C 25.414062 -3.632812 26.285156 -3.921875 27.015625 -4.359375 C 27.742188 -4.804688 28.304688 -5.46875 28.703125 -6.34375 C 29.097656 -7.226562 29.296875 -8.441406 29.296875 -9.984375 Z M 29.296875 -26.59375 "/></g></g><g style="fill:rgb(100%,100%,100%);fill-opacity:1;"><g transform="translate(97.733499, 54.711814)"><path style="stroke:none;" d="M 21.03125 -37.828125 C 25.488281 -37.828125 28.863281 -36.898438 31.15625 -35.046875 C 33.445312 -33.203125 34.59375 -30.425781 34.59375 -26.71875 L 34.59375 -9.859375 C 34.59375 -2.492188 30.070312 1.1875 21.03125 1.1875 L 17.59375 1.1875 C 8.644531 1.1875 4.171875 -2.492188 4.171875 -9.859375 L 4.171875 -26.71875 C 4.171875 -34.125 8.644531 -37.828125 17.59375 -37.828125 Z M 29.296875 -26.59375 C 29.296875 -28.132812 29.097656 -29.34375 28.703125 -30.21875 C 28.304688 -31.101562 27.753906 -31.773438 27.046875 -32.234375 C 26.347656 -32.703125 25.488281 -33 24.46875 -33.125 C 23.457031 -33.257812 22.359375 -33.328125 21.171875 -33.328125 L 17.53125 -33.328125 C 16.332031 -33.328125 15.238281 -33.257812 14.25 -33.125 C 13.257812 -33 12.410156 -32.703125 11.703125 -32.234375 C 11.003906 -31.773438 10.453125 -31.101562 10.046875 -30.21875 C 9.648438 -29.34375 9.453125 -28.132812 9.453125 -26.59375 L 9.453125 -10.515625 C 9.453125 -8.878906 9.671875 -7.585938 10.109375 -6.640625 C 10.554688 -5.691406 11.164062 -4.960938 11.9375 -4.453125 C 12.707031 -3.953125 13.578125 -3.632812 14.546875 -3.5 C 15.515625 -3.375 16.53125 -3.3125 17.59375 -3.3125 L 21.09375 -3.3125 C 22.289062 -3.3125 23.394531 -3.375 24.40625 -3.5 C 25.414062 -3.632812 26.285156 -3.921875 27.015625 -4.359375 C 27.742188 -4.804688 28.304688 -5.46875 28.703125 -6.34375 C 29.097656 -7.226562 29.296875 -8.441406 29.296875 -9.984375 Z M 29.296875 -26.59375 "/></g></g><g style="fill:rgb(100%,100%,100%);fill-opacity:1;"><g transform="translate(136.425796, 54.711814)"><path style="stroke:none;" d="M 13.296875 -31.609375 C 13.691406 -32.140625 14.109375 -32.660156 14.546875 -33.171875 C 14.992188 -33.679688 15.476562 -34.175781 16 -34.65625 C 17.0625 -35.539062 18.34375 -36.289062 19.84375 -36.90625 C 21.34375 -37.519531 23.191406 -37.828125 25.390625 -37.828125 L 26.453125 -37.828125 L 26.453125 -33.328125 L 25.390625 -33.328125 C 23.546875 -33.328125 22.023438 -33.128906 20.828125 -32.734375 C 19.640625 -32.335938 18.5625 -31.742188 17.59375 -30.953125 C 17.101562 -30.554688 16.628906 -30.113281 16.171875 -29.625 C 15.710938 -29.144531 15.238281 -28.597656 14.75 -27.984375 C 13.738281 -26.785156 12.613281 -25.394531 11.375 -23.8125 L 11.375 1.1875 L 6.078125 1.1875 L 6.078125 -37.828125 L 10.515625 -37.828125 L 11.109375 -28.578125 Z M 13.296875 -31.609375 "/></g></g><g clip-rule="nonzero" clip-path="url(#clip1)"><g style="fill:rgb(100%,100%,100%);fill-opacity:1;"><g transform="translate(164.204875, 54.711814)"><path style="stroke:none;" d="M 22.21875 -37.828125 C 31.21875 -37.828125 35.71875 -34.320312 35.71875 -27.3125 L 35.71875 -9.453125 C 35.71875 -5.929688 34.570312 -3.273438 32.28125 -1.484375 C 29.988281 0.296875 26.632812 1.1875 22.21875 1.1875 L 10.65625 1.1875 L 10.65625 13.828125 L 5.421875 13.828125 L 5.421875 -27.3125 C 5.421875 -34.320312 9.894531 -37.828125 18.84375 -37.828125 Z M 30.359375 -26.65625 C 30.359375 -28.195312 30.160156 -29.40625 29.765625 -30.28125 C 29.367188 -31.164062 28.816406 -31.835938 28.109375 -32.296875 C 27.398438 -32.765625 26.550781 -33.066406 25.5625 -33.203125 C 24.570312 -33.335938 23.457031 -33.40625 22.21875 -33.40625 L 18.84375 -33.40625 C 17.613281 -33.40625 16.488281 -33.335938 15.46875 -33.203125 C 14.457031 -33.066406 13.585938 -32.765625 12.859375 -32.296875 C 12.128906 -31.835938 11.566406 -31.164062 11.171875 -30.28125 C 10.773438 -29.40625 10.578125 -28.195312 10.578125 -26.65625 L 10.578125 -3.046875 L 22.296875 -3.046875 C 23.347656 -3.046875 24.367188 -3.117188 25.359375 -3.265625 C 26.359375 -3.421875 27.21875 -3.738281 27.9375 -4.21875 C 28.664062 -4.707031 29.25 -5.40625 29.6875 -6.3125 C 30.132812 -7.21875 30.359375 -8.421875 30.359375 -9.921875 Z M 30.359375 -26.65625 "/></g></g></g></g></svg>