<?xml version="1.0" encoding="UTF-8"?><svg viewBox="0 0 135 82" xml:space="preserve" xmlns="http://www.w3.org/2000/svg" xmlns:xlink="http://www.w3.org/1999/xlink"><g><path d="M0.5 24.2188L0.5 57.7812L6.46875 57.7812L6.46875 43.9688L22.5312 43.9688L22.5312 39L6.46875 39L6.46875 30.1562L24.4688 30.1562L24.4688 24.2188L0.5 24.2188ZM28.5312 24.2188L28.5312 57.7812L34.5 57.7812L34.5 24.2188L28.5312 24.2188ZM103.531 32.4688L101.719 32.5312C98.725 32.6211 95.8719 34.6928 93.75 37.0312L93.75 33.0938L87.8125 33.0938L87.8125 57.7812L93.75 57.7812L93.75 46.75C93.749 45.9766 93.6362 42.0497 96.3125 40.1562C99.4423 37.942 103.563 38.4063 103.562 38.4062L103.531 32.4688ZM121.531 32.5938C118.021 32.6847 115.277 34.3157 113.344 36.5625L113.344 33.0938L107.375 33.0938L107.375 63.6875L113.344 63.6875L113.344 53.9062C115.294 56.2947 118.062 58.0418 121.531 57.9688C127.81 57.8365 133.031 52.3618 133.031 45.2812C133.031 38.2007 127.809 32.4311 121.531 32.5938ZM72.75 33.0938C68.6085 32.9248 65.1227 34.949 61.125 40.8438C57.0182 34.8332 53.1698 32.6823 49 33.1875C41.5168 34.0942 36.9389 41.7509 39 49C39.7855 51.7628 41.3502 54.0916 43.75 55.7812C45.3726 56.9236 47.5435 57.7116 49.125 57.7812C53.352 57.9674 57.1429 55.7858 61.0938 50.125C65.1764 55.9694 69.1009 58.1897 73.2188 57.7812C76.6277 57.4431 79.2032 55.685 81.25 53.0938C82.96 50.9288 83.8094 47.8463 83.75 45.0625C83.7302 44.1346 83.5987 43.2247 83.375 42.4062C82.7818 40.236 82.2035 38.9831 80.7812 37.25C78.7574 34.7838 75.85 33.2202 72.75 33.0938ZM120.594 37.8125C124.555 37.8125 127.844 41.0984 127.844 45.25C127.844 49.4016 124.555 52.6875 120.594 52.6875C116.632 52.6875 113.344 49.4016 113.344 45.25C113.344 41.0984 116.632 37.8125 120.594 37.8125ZM72.5625 38.0312C74.1859 38.0975 75.7759 38.9595 76.9375 40.375C77.8561 41.4944 78.1692 42.1656 78.5938 43.7188C79.0894 45.5321 78.6043 48.404 77.3438 50C76.0535 51.6336 74.5671 52.6604 72.7188 52.8438C71.6596 52.9488 70.6576 52.7008 69.4062 51.8438C67.7741 50.7259 65.985 48.6348 64.0312 45.5C66.0409 42.2133 67.8138 40.089 69.375 39C70.5101 38.2082 71.3617 37.9823 72.5625 38.0312ZM49.5938 38.0938C50.6614 37.9644 51.5887 38.1893 52.7812 39C54.3942 40.0965 56.1917 42.2283 58.1875 45.5C56.2949 48.5504 54.5539 50.5997 52.9375 51.7188C51.6571 52.6052 50.5769 52.898 49.3438 52.8438C48.7565 52.8179 47.4741 52.3385 46.5938 51.7188C45.1651 50.7129 44.2684 49.3698 43.7812 47.6562C42.5226 43.2294 45.2584 38.619 49.5938 38.0938Z" fill="#ffffff" fill-rule="nonzero" opacity="1" stroke="none"/></g></svg>