<svg width="16" height="16" xmlns="http://www.w3.org/2000/svg" fill="context-fill" fill-opacity="context-fill-opacity">
  <path fill="#fedc77" d="M2 1.5 1 2 .5 3v10l.5 1 1 .5h12l1-.5.5-1V4.5l-.5-1-1-.5H7.5l-2-1.5z"/>
  <path fill="#a97a04" d="m2.5 1-.164.006A2.5 2.5 0 0 0 0 3.5v9l.006.164A2.5 2.5 0 0 0 2.5 15h11l.164-.006A2.5 2.5 0 0 0 16 12.5V5l-.006-.164-.016-.162A2.5 2.5 0 0 0 13.5 2.5H7.668L6.066 1.3l-.134-.089a1.5 1.5 0 0 0-.766-.21zm0 1h2.666l.08.006c.08.013.156.045.22.094l1.228.922-1.26 1.324-.06.052a.499.499 0 0 1-.302.102L1 4.498V3.5l.008-.145A1.499 1.499 0 0 1 2.5 2zm5.117 1.5H13.5l.144.008C14.405 3.58 15 4.22 15 5v7.5l-.008.144A1.499 1.499 0 0 1 13.5 14h-11l-.145-.007A1.499 1.499 0 0 1 1 12.5V5.498l4.072.001.153-.007a1.5 1.5 0 0 0 .933-.457z"/>
</svg>
