<svg width="16" height="16" xmlns="http://www.w3.org/2000/svg" fill="context-fill" fill-opacity="context-fill-opacity">
  <path d="M3 1c-1.099 0-2 .9-2 2v10c0 1.099.9 2 2 2h4.295a5.702 5.702 0 0 1-.67-1H3c-.563 0-1-.437-1-1V3c0-.563.437-1 1-1h3v1.5C6 4.323 6.678 5 7.5 5H14v1.598c.358.182.693.405 1 .662V3c0-1.099-.9-2-2-2H3zm4 1h6c.563 0 1 .437 1 1v1H7.5a.493.493 0 0 1-.5-.5V2z"/>
  <path d="M11.5 7A4.5 4.5 0 0 0 7 11.5a4.5 4.5 0 0 0 4.5 4.5 4.5 4.5 0 0 0 4.5-4.5A4.5 4.5 0 0 0 11.5 7zm0 2a.5.5 0 0 1 .5.5V11h1.5a.5.5 0 0 1 .5.5.5.5 0 0 1-.5.5H12v1.5a.5.5 0 0 1-.5.5.5.5 0 0 1-.5-.5V12H9.5a.5.5 0 0 1-.5-.5.5.5 0 0 1 .5-.5H11V9.5a.5.5 0 0 1 .5-.5z"/>
</svg>
