<svg width="16" height="16" xmlns="http://www.w3.org/2000/svg" fill="context-fill" fill-opacity="context-fill-opacity">
  <path d="M3 1a2 2 0 0 0-2 2v10a2 2 0 0 0 2 2h10a2 2 0 0 0 2-2V4.621a2 2 0 0 0-.586-1.414l-1.62-1.621A2 2 0 0 0 11.378 1H3zm0 1h1v2.5A1.5 1.5 0 0 0 5.5 6h4A1.5 1.5 0 0 0 11 4.5V2h.379a1 1 0 0 1 .707.293l1.62 1.621a1 1 0 0 1 .294.707V13a1 1 0 0 1-1 1V9.5A1.5 1.5 0 0 0 11.5 8h-7A1.5 1.5 0 0 0 3 9.5V14a1 1 0 0 1-1-1V3a1 1 0 0 1 1-1zm2 0h5v2.5a.5.5 0 0 1-.5.5h-4a.5.5 0 0 1-.5-.5V2zm-.5 7h7a.5.5 0 0 1 .5.5V14H4V9.5a.5.5 0 0 1 .5-.5z"/>
</svg>
