<?xml version="1.0"?>
<svg width="54px" height="72px" viewBox="0 0 54 72" xmlns="http://www.w3.org/2000/svg" xmlns:xlink="http://www.w3.org/1999/xlink">
    <g stroke="none" stroke-width="1" fill="none" fill-rule="evenodd">
        <g transform="translate(-285.000000, -1234.000000)" fill="#FFFFFF">
            <g transform="translate(240.000000, 1198.000000)">
                <path d="M63,103.5 C63,105.9849 60.9849,108 58.5,108 L49.5,108 C47.0151,108 45,105.9849 45,103.5 L45,40.5 C45,38.0151 47.0151,36 49.5,36 L58.5,36 C60.9849,36 63,38.0151 63,40.5 L63,103.5 Z M94.5,108 L85.5,108 C83.0151,108 81,105.9849 81,103.5 L81,40.5 C81,38.0151 83.0151,36 85.5,36 L94.5,36 C96.9849,36 99,38.0151 99,40.5 L99,103.5 C99,105.9849 96.9849,108 94.5,108 Z"></path>
            </g>
        </g>
    </g>
</svg>
