<!-- This Source Code Form is subject to the terms of the Mozilla Public
   - License, v. 2.0. If a copy of the MPL was not distributed with this
   - file, You can obtain one at http://mozilla.org/MPL/2.0/. -->
<svg width="350" height="152" fill="none" xmlns="http://www.w3.org/2000/svg"><g clip-path="url(#a)"><path opacity=".12" d="M236.131 117.019c-3.755 3.501-8.225 6.403-13.095 8.502-4.871 2.1-10.025 3.345-15.099 3.65-7.476.392-14.515-1.282-22.034-.389-16.239 1.92-30.609 15.139-46.874 17.747-13.603 2.185-25.256-3.491-35.716-8.983-8.21-4.315-16.49-8.681-22.92-14.657-6.43-5.977-10.96-13.876-10.516-22.767.354-7.326 3.977-14.783 7.793-21.961 9.394-17.652 20.733-35.366 37.515-49.364 16.782-13.998 39.973-23.77 60.416-21.46 9.955 1.122 19.101 4.995 29.589 3.649 11.004-1.411 22.594-8.49 32.599-6.3 3.694.807 6.626 2.834 9.025 5.163 5.74 5.628 8.789 13.053 8.7 21.186-.117 8.268-3.492 17.077-1.7 24.899 2.316 10.124 12.539 18.643 5.968 30.378-5.287 9.432-15.242 22.777-23.651 30.707Z" fill="#97BDFC"/><path d="M245.658 128.93h33.857M177.943 136.35h124.144M57.248 106.234h33.858M75.305 112.013h33.858" stroke="#FBFBFE" stroke-width="1.548" stroke-linecap="round" stroke-linejoin="round"/><g clip-path="url(#b)"><rect x="79.805" y="24.233" width="113.695" height="74.905" rx="6.688" fill="#42414D"/><path stroke="#FBFBFE" stroke-width=".702" d="M79.454 40.024h119.31v8.422H79.454z"/><path fill="#00A84C" fill-opacity=".24" stroke="#FBFBFE" stroke-width=".702" d="M79.392 39.307h119.255V23.232H79.392z"/><rect x="86.214" y="29.195" width="28.931" height="5.926" rx=".697" fill="#009844" stroke="#FBFBFE" stroke-width=".702"/><rect x="120.511" y="29.195" width="28.931" height="5.926" rx=".697" fill="#009844" stroke="#FBFBFE" stroke-width=".702"/><circle cx="87.525" cy="44.586" r="2.456" stroke="#FBFBFE" stroke-width=".702"/><circle cx="95.245" cy="44.586" r="2.456" stroke="#FBFBFE" stroke-width=".702"/><path d="m184.728 86.695-8.071 8.071M191.044 85.291l-8.071 8.071" stroke="#FBFBFE" stroke-width="1.053" stroke-linecap="round" stroke-linejoin="round"/></g><rect x="79.103" y="23.531" width="115.099" height="76.309" rx="7.39" stroke="#FBFBFE" stroke-width="1.404"/><g clip-path="url(#c)"><rect x="100.859" y="36.164" width="113.695" height="74.905" rx="6.688" fill="#42414D"/><path stroke="#FBFBFE" stroke-width=".702" d="M100.508 51.955h119.31v8.422h-119.31z"/><path fill="#FBCB28" fill-opacity=".4" d="M100.012 51.402h119.956V34.625H100.012z"/><rect x="107.268" y="41.126" width="28.931" height="5.926" rx=".697" fill="#F8D044" stroke="#FBFBFE" stroke-width=".702"/><rect x="141.564" y="41.126" width="28.931" height="5.926" rx=".697" fill="#F8D044" stroke="#FBFBFE" stroke-width=".702"/><circle cx="108.579" cy="56.517" r="2.456" stroke="#FBFBFE" stroke-width=".702"/><circle cx="116.299" cy="56.517" r="2.456" stroke="#FBFBFE" stroke-width=".702"/><path d="m205.781 98.626-8.071 8.071M212.098 97.223l-8.071 8.071" stroke="#FBFBFE" stroke-width="1.053" stroke-linecap="round" stroke-linejoin="round"/></g><rect x="100.157" y="35.462" width="115.099" height="76.309" rx="7.39" stroke="#FBFBFE" stroke-width="1.404"/><g clip-path="url(#d)"><rect x="135.951" y="53.709" width="113.695" height="74.905" rx="6.688" fill="#42414D"/><rect x="142.36" y="58.671" width="28.931" height="5.926" rx=".697" fill="#8A52FF" stroke="#FBFBFE" stroke-width=".702"/><rect x="176.656" y="58.671" width="28.931" height="5.926" rx=".697" fill="#8A52FF" stroke="#FBFBFE" stroke-width=".702"/><path stroke="#FBFBFE" stroke-width=".702" d="M135.6 69.5h119.31v8.422H135.6z"/><path d="M135.244 69.017h119.957v-6.71c0-5.56-4.507-10.067-10.067-10.067H145.31c-5.559 0-10.066 4.507-10.066 10.067v6.71Z" fill="#5F17F3" fill-opacity=".19"/><circle cx="143.671" cy="74.062" r="2.456" stroke="#FBFBFE" stroke-width=".702"/><circle cx="151.391" cy="74.062" r="2.456" stroke="#FBFBFE" stroke-width=".702"/><path d="m240.873 116.172-8.071 8.071M247.189 114.768l-8.071 8.071" stroke="#FBFBFE" stroke-width="1.053" stroke-linecap="round" stroke-linejoin="round"/></g><rect x="135.249" y="53.008" width="115.099" height="76.309" rx="7.39" stroke="#FBFBFE" stroke-width="1.404"/></g><defs><clipPath id="a"><path fill="#fff" d="M0 0h350v152H0z"/></clipPath><clipPath id="b"><rect x="79.805" y="24.233" width="113.695" height="74.905" rx="6.688" fill="#fff"/></clipPath><clipPath id="c"><rect x="100.859" y="36.164" width="113.695" height="74.905" rx="6.688" fill="#fff"/></clipPath><clipPath id="d"><rect x="135.951" y="53.709" width="113.695" height="74.905" rx="6.688" fill="#fff"/></clipPath></defs></svg>
