<!-- This Source Code Form is subject to the terms of the Mozilla Public
   - License, v. 2.0. If a copy of the MPL was not distributed with this
   - file, You can obtain one at http://mozilla.org/MPL/2.0/. -->
<svg width="350" height="152" fill="none" xmlns="http://www.w3.org/2000/svg"><g clip-path="url(#a)"><path opacity=".07" d="M165.721 125.287c-30.865-16.041-92.958 7.521-101.635-16.041-6.348-17.372 26.486-23.769 9.488-60.003s55.914-54.573 80.964-38.917c25.05 15.656 77.755-4.574 109.145 13.313 14.543 8.334 25.627 24.337 17.613 35.431-3.318 4.586-9.475 7.678-11.451 12.827-3.85 10.047 11.864 29.166 11.451 39.971-1.946 50.785-84.71 29.461-115.575 13.419Z" fill="#FF6D33"/><path d="M60.315 95.195H163.23M46 90.723h146.666" stroke="#FBFBFE" stroke-width="1.123" stroke-linecap="round" stroke-linejoin="round"/><path d="M84.792 100.023c-1.945 2.248-.348 5.742 2.625 5.742h118.985c2.737 0 4.397-3.02 2.93-5.331l-4.554-7.176a3.47 3.47 0 0 0-2.93-1.611H93.628a3.47 3.47 0 0 0-2.625 1.2l-6.21 7.176Z" fill="#42414D" stroke="#FBFBFE" stroke-width="1.431"/><rect x="-.716" y=".716" width="39.237" height="63.159" rx="9.451" transform="matrix(-1 0 0 1 257.44 60.43)" fill="#42414D" stroke="#FBFBFE" stroke-width="1.431"/><rect x="91.533" y="16.29" width="113.994" height="78.111" rx="9.451" fill="#42414D" stroke="#FBFBFE" stroke-width="1.431"/><g clip-path="url(#b)"><rect x="97.395" y="21.559" width="101.67" height="66.983" rx="5.981" fill="#42414D"/><rect x="102.768" y="24.744" width="26.587" height="6.015" rx=".981" fill="#E0490E" stroke="#FBFBFE" stroke-width=".716"/><path stroke="#FBFBFE" stroke-width=".895" d="M93.863 34.811h106.461v8.946H93.863z"/><circle cx="104.711" cy="38.749" r="1.942" fill="#42414D" stroke="#FBFBFE" stroke-width=".895"/><circle cx="111.217" cy="38.749" r="1.942" fill="#42414D" stroke="#FBFBFE" stroke-width=".895"/><rect x="135.672" y="24.744" width="26.587" height="6.015" rx=".981" fill="#E0490E" stroke="#FBFBFE" stroke-width=".716"/></g><rect x="96.859" y="21.022" width="102.744" height="68.056" rx="6.517" stroke="#FBFBFE" stroke-width="1.074"/><g clip-path="url(#c)"><rect x="224.184" y="66.406" width="29.305" height="52.629" rx="5.981" fill="#fff" fill-opacity=".05"/><rect x="228.505" y="70.144" width="21.471" height="5.368" rx=".895" fill="#E0490E" stroke="#FBFBFE" stroke-width=".895"/><path stroke="#FBFBFE" stroke-width=".895" d="M220.006 79.541h101.093v4.473H220.006z"/></g><rect x="223.513" y="65.735" width="30.647" height="53.971" rx="6.652" stroke="#FBFBFE" stroke-width="1.342"/><circle cx="238.538" cy="113.658" r="3.438" fill="#42414D" stroke="#FBFBFE" stroke-width=".895"/><path fill-rule="evenodd" clip-rule="evenodd" d="m252.813 42.754-6.381.1c-.181-11.601-9.901-21.023-21.212-20.846-5.221.081-10.124 1.898-13.844 5.148-.571.589-.852 1.173-.843 1.753.009.58.013.87.312 1.446.884.856 2.339 1.124 3.195.24 3.15-2.66 6.897-4.169 10.958-4.232 9.28-.145 16.939 7.278 17.084 16.558l-6.381.1c-1.16.018-1.717 1.477-.834 2.334l8.252 8.284 2.61-.041 8.284-8.252c.852-1.174-.04-2.61-1.2-2.592Zm-75.031 81.36 6.381-.1c1.16-.018 1.718-1.477.834-2.333l-8.252-8.284-2.61.041-7.994 8.247c-.852 1.174.041 2.61 1.201 2.592l6.38-.1c.181 11.601 9.901 21.023 21.502 20.842 4.931-.077 9.834-1.894 13.554-5.143.857-.884 1.124-2.339.241-3.195-.884-.857-2.339-1.124-3.195-.24-3.15 2.66-6.897 4.169-10.958 4.232-9.28.145-16.939-7.278-17.084-16.559Z" fill="#E0490E"/><path d="M243.713 124.18h27.734M245.503 127.402h18.787" stroke="#FBFBFE" stroke-width="1.123" stroke-linecap="round" stroke-linejoin="round"/></g><defs><clipPath id="a"><path fill="#fff" d="M0 0h350v152H0z"/></clipPath><clipPath id="b"><rect x="97.395" y="21.559" width="101.67" height="66.983" rx="5.981" fill="#fff"/></clipPath><clipPath id="c"><rect x="224.184" y="66.406" width="29.305" height="52.629" rx="5.981" fill="#fff"/></clipPath></defs></svg>
