<!-- This Source Code Form is subject to the terms of the Mozilla Public
   - License, v. 2.0. If a copy of the MPL was not distributed with this
   - file, You can obtain one at http://mozilla.org/MPL/2.0/. -->
<svg xmlns="http://www.w3.org/2000/svg" width="20" height="20" fill="context-fill" fill-opacity="context-fill-opacity">
  <path d="M12.5 15v-1.5H3a.501.501 0 0 1-.5-.5V5c0-.275.225-.5.5-.5h4.5v2A.5.5 0 0 0 8 7h7.5v3.5H17V5a2 2 0 0 0-2-2H3a2 2 0 0 0-2 2v8a2 2 0 0 0 2 2h9.5Z"/>
  <path d="m19 13.06-1.44 1.44L19 15.94 17.94 17l-1.44-1.44L15.06 17 14 15.94l1.44-1.44L14 13.06 15.06 12l1.44 1.44L17.94 12 19 13.06Z"/>
</svg>