<!-- This Source Code Form is subject to the terms of the Mozilla Public
   - License, v. 2.0. If a copy of the MPL was not distributed with this
   - file, You can obtain one at http://mozilla.org/MPL/2.0/. -->
<svg xmlns="http://www.w3.org/2000/svg" width="20" height="20" fill="context-fill" fill-opacity="context-fill-opacity">
  <path fill-rule="evenodd"  clip-rule="evenodd" d="M0 3a2 2 0 0 1 2-2h7a2 2 0 0 1 2 2v4a2 2 0 0 1-2 2H2a2 2 0 0 1-2-2V3Zm2-.5a.5.5 0 0 0-.5.5v4a.5.5 0 0 0 .5.5h6.5v-5H2Z"/>
  <path d="M17 5.5h-4.5V4H17a2 2 0 0 1 2 2v8a2 2 0 0 1-2 2h3v1.5H2V16h3a2 2 0 0 1-2-2v-3.5h1.5V14a.5.5 0 0 0 .5.5h12a.5.5 0 0 0 .5-.5V6a.5.5 0 0 0-.5-.5Z"/>
</svg>