<!-- This Source Code Form is subject to the terms of the Mozilla Public
   - License, v. 2.0. If a copy of the MPL was not distributed with this
   - file, You can obtain one at http://mozilla.org/MPL/2.0/. -->
<svg xmlns="http://www.w3.org/2000/svg" width="20" height="20" fill="context-fill" fill-opacity="context-fill-opacity">
  <path fill-rule="evenodd" clip-rule="evenodd" d="M3.2 4.4c0-.22.18-.4.4-.4h5.2v4H3.6a.4.4 0 0 1-.4-.4V4.4Zm.4-1.6A1.6 1.6 0 0 0 2 4.4v3.2a1.6 1.6 0 0 0 1.6 1.6h5.6a1.6 1.6 0 0 0 1.6-1.6V4.4a1.6 1.6 0 0 0-1.6-1.6H3.6Zm12 3.6H12V5.2h3.6a1.6 1.6 0 0 1 1.6 1.6v6.4a1.6 1.6 0 0 1-1.6 1.6H18V16H3.6v-1.2H6a1.6 1.6 0 0 1-1.6-1.6v-2.8h1.2v2.8c0 .22.18.4.4.4h9.6a.4.4 0 0 0 .4-.4V6.8a.4.4 0 0 0-.4-.4Z"/>
</svg>
