<!-- This Source Code Form is subject to the terms of the Mozilla Public
   - License, v. 2.0. If a copy of the MPL was not distributed with this
   - file, You can obtain one at http://mozilla.org/MPL/2.0/. -->
<svg xmlns="http://www.w3.org/2000/svg" width="20" height="20" fill="context-fill" fill-opacity="context-fill-opacity">
  <path fill-rule="evenodd" d="m4.444 4.151.182-.849c.086-.402.66-.402.747 0l.182.849a.381.381 0 0 0 .293.293l.849.182c.402.086.402.66 0 .747l-.848.183a.38.38 0 0 0-.293.293l-.183.849c-.086.402-.66.402-.747 0l-.182-.849a.38.38 0 0 0-.293-.293l-.849-.183c-.402-.086-.402-.66 0-.747l.849-.182a.38.38 0 0 0 .293-.293ZM4.444 14.151l.182-.849c.086-.402.66-.402.747 0l.182.849a.381.381 0 0 0 .293.293l.849.182c.402.086.402.66 0 .747l-.849.182a.381.381 0 0 0-.293.293l-.182.849c-.086.402-.66.402-.747 0l-.182-.849a.381.381 0 0 0-.293-.293l-.849-.182c-.402-.086-.402-.66 0-.747l.849-.182a.38.38 0 0 0 .293-.293Z"/>
  <path fill-rule="evenodd" d="M13.173 4.799c-.42-1.064-1.927-1.064-2.347 0L9.771 7.475a.528.528 0 0 1-.297.297L6.8 8.827c-1.064.42-1.064 1.926 0 2.346l2.675 1.055a.529.529 0 0 1 .297.298l1.055 2.676c.42 1.065 1.927 1.064 2.347 0l1.055-2.676a.528.528 0 0 1 .298-.297l2.675-1.055c1.064-.42 1.064-1.927 0-2.347l-2.676-1.055a.528.528 0 0 1-.298-.297l-1.054-2.676Zm-2.006 3.226.832-2.112.833 2.113c.206.52.619.935 1.143 1.142l2.112.833-2.113.833a2.027 2.027 0 0 0-1.142 1.142L12 14.088l-.833-2.113a2.029 2.029 0 0 0-1.142-1.143L7.913 10l2.113-.833c.521-.206.934-.62 1.14-1.142Z"/>
</svg>
