<!-- This Source Code Form is subject to the terms of the Mozilla Public
   - License, v. 2.0. If a copy of the MPL was not distributed with this
   - file, You can obtain one at http://mozilla.org/MPL/2.0/. -->
<svg width="100" height="87" fill="none" xmlns="http://www.w3.org/2000/svg">
  <path opacity=".25" d="M60.978 10.288C70.863 20.61 90.238.811 97.805 20.646c7.566 19.835-15.526 11.738-10.466 37.806 5.06 26.068-33.743 26.37-41.319 16.52-7.575-9.849-32.019 1.49-41.805-9.884-4.526-5.296-5.858-15.106-.7-20.947 2.135-2.413 8.292-7.808 9.973-10.596 3.28-5.44-4.86-13.746 2.523-25.769 7.382-12.022 35.081-7.81 44.967 2.512Z" fill="url(#a)"/>
  <path stroke="context-stroke" stroke-linecap="round" d="M7.523 81.816h57.238M25.914 86.414h34.249"/>
  <path fill="context-fill" d="M29.232 16.149 81.58 35.2 65.162 80.307 12.815 61.254z"/>
  <path d="M31.4 10.198a3 3 0 0 1 3.845-1.793L81.747 25.33a3 3 0 0 1 1.793 3.845L81.12 35.82l-52.14-18.977 2.419-6.644Z" fill="#CB9EFF"/>
  <rect x=".148" y=".32" width="13.886" height="3.5" rx=".25" transform="matrix(.9397 .34202 -.34854 .9373 34.265 11.037)" fill="context-fill" stroke="context-stroke" stroke-width=".5"/>
  <rect x=".148" y=".32" width="13.886" height="3.5" rx=".25" transform="matrix(.9397 .34202 -.34854 .9373 50.525 16.955)" fill="context-fill" stroke="context-stroke" stroke-width=".5"/>
  <rect x=".148" y=".32" width="13.886" height="3.5" rx=".25" transform="matrix(.9397 .34202 -.34854 .9373 66.745 22.86)" fill="context-fill" stroke="context-stroke" stroke-width=".5"/>
  <path stroke="context-stroke" d="m29.169 16.325 52.007 18.929M31 10.597a3.5 3.5 0 0 1 4.486-2.092L81.31 25.183a3.5 3.5 0 0 1 2.092 4.486L65.21 79.644a.5.5 0 0 1-.64.3L13.108 61.212a.5.5 0 0 1-.298-.64L31 10.596Z"/>
  <mask id="b" maskUnits="userSpaceOnUse" x="22.931" y="19.539" width="23.755" height="24.95" fill="context-stroke">
    <path fill="context-fill" d="M22.931 19.539h23.755v24.95H22.931z"/>
    <path d="M43.01 31.776c-.022-.968-.36-2.127-.782-2.608.103 1.05.025 2.038-.124 2.741 0 0 0 .005-.003.014-.03-2.598-1.158-4.052-1.622-6.493a11.144 11.144 0 0 1-.067-.375 2.68 2.68 0 0 1-.023-.199 1.635 1.635 0 0 1 .004-.378.02.02 0 0 0-.01-.012.025.025 0 0 0-.014-.005h-.005l-.007.002.005-.003c-2.08.438-3.456 2.03-4.065 3.142a4.12 4.12 0 0 0-1.66-.14.216.216 0 0 0-.135.074.233.233 0 0 0-.041.235c.01.027.027.052.047.072a.193.193 0 0 0 .155.054c.49-.056.98-.018 1.45.114l.045.013a3.855 3.855 0 0 1 1.227.62l.054.044a3.839 3.839 0 0 1 .261.225l.085.082c.044.044.086.089.128.135l.056.063a3.868 3.868 0 0 1 .189.235c.42.565.695 1.236.8 1.952-.297-.452-.917-1.018-1.667-1.143 2.213 2.456-.35 7.208-4.083 5.635a3.418 3.418 0 0 1-.918-.565 4.42 4.42 0 0 1-.294-.29c-.745-.852-1.162-2.098-.83-3.308 0 0 .86-1.266 3.028-.477.234.086 1.158-.366 1.243-.563.022-.067-1.101-1.111-1.422-1.841-.17-.39-.251-.578-.33-.725a2.432 2.432 0 0 0-.14-.23 4.24 4.24 0 0 1 .7-1.99c-.921.094-1.749.472-2.384.84l-.004-.001c-.154-.518.356-1.853.476-2.127.002-.018-.27.04-.307.051-.34.105-.673.242-.993.408a7.516 7.516 0 0 0-2.96 2.732c-.005.008-.196.313-.396.702l-.094.182a6.113 6.113 0 0 0-.214.448l-.01.023-.114.264-.015.041c-1.63 4.477.464 9.35 4.676 10.882 3.772 1.373 7.964-.398 9.968-3.998.051-.099.1-.2.149-.3.657-1.335 1.02-2.858.988-4.254Z"/>
  </mask>
  <path d="M43.01 31.776c-.022-.968-.36-2.127-.782-2.608.103 1.05.025 2.038-.124 2.741 0 0 0 .005-.003.014-.03-2.598-1.158-4.052-1.622-6.493a11.144 11.144 0 0 1-.067-.375 2.68 2.68 0 0 1-.023-.199 1.635 1.635 0 0 1 .004-.378.02.02 0 0 0-.01-.012.025.025 0 0 0-.014-.005h-.005l-.007.002.005-.003c-2.08.438-3.456 2.03-4.065 3.142a4.12 4.12 0 0 0-1.66-.14.216.216 0 0 0-.135.074.233.233 0 0 0-.041.235c.01.027.027.052.047.072a.193.193 0 0 0 .155.054c.49-.056.98-.018 1.45.114l.045.013a3.855 3.855 0 0 1 1.227.62l.054.044a3.839 3.839 0 0 1 .261.225l.085.082c.044.044.086.089.128.135l.056.063a3.868 3.868 0 0 1 .189.235c.42.565.695 1.236.8 1.952-.297-.452-.917-1.018-1.667-1.143 2.213 2.456-.35 7.208-4.083 5.635a3.418 3.418 0 0 1-.918-.565 4.42 4.42 0 0 1-.294-.29c-.745-.852-1.162-2.098-.83-3.308 0 0 .86-1.266 3.028-.477.234.086 1.158-.366 1.243-.563.022-.067-1.101-1.111-1.422-1.841-.17-.39-.251-.578-.33-.725a2.432 2.432 0 0 0-.14-.23 4.24 4.24 0 0 1 .7-1.99c-.921.094-1.749.472-2.384.84l-.004-.001c-.154-.518.356-1.853.476-2.127.002-.018-.27.04-.307.051-.34.105-.673.242-.993.408a7.516 7.516 0 0 0-2.96 2.732c-.005.008-.196.313-.396.702l-.094.182a6.113 6.113 0 0 0-.214.448l-.01.023-.114.264-.015.041c-1.63 4.477.464 9.35 4.676 10.882 3.772 1.373 7.964-.398 9.968-3.998.051-.099.1-.2.149-.3.657-1.335 1.02-2.858.988-4.254Z" fill="#CB9EFF"/>
  <path d="m43.01 31.776.75-.017-.75.017Zm-.782-2.608.563-.495-1.54-1.755.23 2.324.746-.074Zm-.124 2.741.728.183.003-.014.003-.014-.734-.155Zm-.003.014-.75.01 1.48.166-.73-.176Zm-1.622-6.493-.737.14.737-.14Zm-.067-.375-.74.113v.001l.74-.114Zm-.023-.199.748-.058v-.01l-.002-.01-.745.078Zm.003-.362-.695-.282-.038.094-.011.1.744.088Zm-.01-.028-.454.596.05.039.057.03.348-.665Zm-.013-.005.034-.75-.084-.003-.083.015.133.738Zm-.005 0 .128.74h.004l-.132-.74Zm-.007.002-.431-.613.56 1.352-.129-.739Zm.005-.003.432.613-.587-1.347.155.734Zm-4.065 3.142-.213.719.58.172.291-.53-.658-.361Zm-1.66-.14-.089-.745-.012.001.1.744Zm-.19.222.75.026v-.015l-.75-.011Zm.216.213.075.747.012-.002-.087-.745Zm1.45.114-.204.722.204-.722Zm.045.013.21-.72-.007-.002-.008-.002-.195.724Zm.191.062.252-.707-.003-.001-.249.708Zm1.036.56.455-.597-.002-.002-.453.598Zm.054.042-.464.59.002.001.462-.59Zm.154.127.497-.562-.006-.005-.492.566Zm.107.098-.518.543.004.004.514-.547Zm.085.082.533-.528-.003-.002-.53.53Zm.128.135-.557.502.001.002.556-.504Zm.056.063.568-.49-.002-.002-.566.492Zm.117.141-.59.464.002.002.588-.466Zm.072.094-.604.446.002.002.602-.448Zm.8 1.952-.628.412 1.37-.52-.742.108Zm-1.667-1.143.125-.74-2.12-.356 1.438 1.598.557-.503Zm-4.083 5.635.291-.691-.004-.002-.287.693Zm-.918-.565-.5.56.006.005.006.004.488-.569Zm-.189-.179-.538.523.006.006.532-.529Zm-.105-.112-.564.494.564-.494Zm-.83-3.307-.621-.42-.07.102-.033.12.724.198Zm4.271-1.04.688.3.016-.037.012-.037-.715-.226Zm-1.422-1.841.687-.302-.687.302Zm-.33-.725.663-.352v-.002l-.662.354Zm-.14-.23-.747-.065-.023.267.152.221.619-.424Zm.7-1.99.624.417.887-1.325-1.587.162.077.746Zm-2.384.84-.257.705.33.12.303-.176-.376-.65Zm-.004-.001-.718.214.107.361.355.13.256-.705Zm.476-2.127.687.3.04-.093.015-.099-.742-.108Zm-.307.051-.206-.721-.008.002-.008.003.222.716Zm-.993.408.342.667.003-.002-.345-.665Zm-1.043.648.446.604.002-.001-.447-.603Zm-1.917 2.084-.637-.396-.001.003.638.393Zm-.396.702.663.35.004-.007-.667-.343Zm-.094.182.661.354.005-.008.004-.01-.67-.336Zm-.214.448.684.308.003-.006-.687-.302Zm-.01.023-.686-.303-.001.003.687.3Zm-.114.264-.69-.291-.008.017-.006.018.704.256Zm14.63 6.925.655.365.006-.012.006-.011-.668-.342Zm.148-.3.673.331-.673-.331Zm1.737-4.271a6.63 6.63 0 0 0-.272-1.683c-.152-.51-.38-1.041-.697-1.403l-1.127.99c.105.12.257.407.386.84.123.414.201.88.211 1.291l1.5-.035Zm-2.279-2.517c.096.974.022 1.884-.11 2.512l1.467.31c.165-.78.247-1.844.136-2.97l-1.493.148Zm.623 2.667-.727-.182v.003l-.002.004-.003.014 1.458.35.002-.006v-.001l-.728-.182Zm.747.006c-.017-1.417-.335-2.518-.69-3.543-.358-1.035-.726-1.931-.945-3.082l-1.474.28c.246 1.29.673 2.342 1.002 3.293.332.962.593 1.887.607 3.07l1.5-.018Zm-1.635-6.624c-.024-.126-.045-.237-.062-.351l-1.483.229c.022.143.048.28.071.4l1.474-.278Zm-.062-.35a1.93 1.93 0 0 1-.017-.143l-1.495.117c.006.085.016.17.03.253l1.482-.227Zm-.019-.162a.883.883 0 0 1 .002-.196l-1.49-.177c-.02.175-.022.352-.003.528l1.491-.155Zm-.048-.003a.773.773 0 0 0 .017-.537l-1.422.478a.727.727 0 0 1 .015-.505l1.39.564Zm.017-.537a.77.77 0 0 0-.373-.437l-.696 1.329a.73.73 0 0 1-.353-.414l1.422-.478Zm-.266-.369a.775.775 0 0 0-.435-.158l-.07 1.498a.725.725 0 0 1-.405-.148l.91-1.192Zm-.602-.147h-.004l.264 1.477h.005l-.264-1.477Zm0 0-.007.001.257 1.478.006-.001-.256-1.478Zm.553 1.353.005-.003-.863-1.227-.005.004.863 1.226Zm-.582-1.35c-2.37.5-3.898 2.294-4.567 3.515l1.315.721c.548-1 1.772-2.391 3.562-2.768l-.31-1.468Zm-3.696 3.157a4.873 4.873 0 0 0-1.963-.166l.177 1.49a3.371 3.371 0 0 1 1.359.114l.427-1.438Zm-1.975-.165a.966.966 0 0 0-.604.33l1.14.976a.534.534 0 0 1-.334.18l-.202-1.486Zm-.604.33a.984.984 0 0 0-.235.624l1.5.023a.517.517 0 0 1-.125.329l-1.14-.975Zm-.235.61a.968.968 0 0 0 .065.383l1.398-.541a.53.53 0 0 1 .036.21l-1.499-.052Zm.065.383a.953.953 0 0 0 .22.336l1.052-1.069c.058.057.1.123.127.192l-1.4.541Zm.22.336a.941.941 0 0 0 .348.218l.499-1.415a.556.556 0 0 1 .205.128l-1.052 1.069Zm.348.218a.944.944 0 0 0 .408.049l-.15-1.493a.556.556 0 0 1 .24.03l-.498 1.414Zm.42.047a2.989 2.989 0 0 1 1.159.091l.407-1.444a4.491 4.491 0 0 0-1.74-.137l.174 1.49Zm1.16.091.053.015.39-1.448-.037-.01-.407 1.443Zm.038.011c.051.015.102.031.152.05l.498-1.416a4.49 4.49 0 0 0-.23-.074l-.42 1.44Zm.15.048c.299.106.58.258.834.451l.906-1.196a4.604 4.604 0 0 0-1.238-.668l-.502 1.413Zm.832.45s.002 0 .01.008l.035.027.929-1.178-.02-.015a1.671 1.671 0 0 0-.044-.035l-.91 1.192Zm.047.037c.043.033.084.067.124.102l.983-1.133a4.685 4.685 0 0 0-.183-.15l-.924 1.181Zm.118.097c.03.026.059.053.087.08l1.036-1.085a4.569 4.569 0 0 0-.128-.118l-.995 1.123Zm.091.084.07.066 1.06-1.061c-.038-.038-.075-.072-.102-.098l-1.028 1.093Zm.067.063c.035.036.07.072.103.11l1.113-1.006c-.049-.054-.1-.108-.151-.16l-1.065 1.056Zm.104.11.046.052 1.132-.984c-.024-.029-.05-.056-.067-.075l-1.11 1.008Zm.045.05.095.115 1.178-.928a4.738 4.738 0 0 0-.139-.168l-1.134.981Zm.096.116.056.075 1.207-.891a4.37 4.37 0 0 0-.087-.114l-1.176.93Zm.058.077c.344.462.572 1.015.66 1.613l1.484-.217a5.057 5.057 0 0 0-.94-2.292l-1.204.896Zm2.029 1.093c-.37-.565-1.15-1.301-2.17-1.472l-.248 1.48c.48.08.94.475 1.163.815l1.255-.823Zm-2.85-.23c.827.918.808 2.335.112 3.422-.665 1.04-1.87 1.643-3.348 1.02l-.582 1.382c2.254.95 4.198-.037 5.194-1.594.966-1.51 1.123-3.697-.262-5.235l-1.115 1.004Zm-3.24 4.44c-.26-.108-.501-.256-.717-.441l-.976 1.138c.335.288.712.52 1.12.689l.573-1.386Zm-.706-.431a3.624 3.624 0 0 1-.156-.148l-1.064 1.057c.072.072.145.142.221.21l1-1.12Zm-.15-.142a2.394 2.394 0 0 1-.079-.084l-1.128.989c.048.054.095.103.131.14l1.076-1.045Zm-.078-.084c-.612-.698-.925-1.692-.672-2.614l-1.447-.397c-.41 1.496.111 2.996.99 4l1.129-.989Zm-1.395-2.813a51.876 51.876 0 0 1 .619.423l-.001.002-.002.003a.098.098 0 0 1-.003.004l-.004.005.006-.008a1.21 1.21 0 0 1 .392-.28c.293-.13.846-.255 1.764.08l.513-1.41c-1.25-.456-2.21-.342-2.89-.037a2.71 2.71 0 0 0-.737.483 2.24 2.24 0 0 0-.265.296l-.008.01c0 .002-.002.003-.003.004v.002l-.001.001s-.001.001.62.422Zm2.771.228c.184.067.355.059.445.05a1.73 1.73 0 0 0 .293-.056c.173-.048.353-.12.514-.195.162-.076.328-.166.47-.261.069-.047.146-.104.216-.168.055-.05.175-.166.25-.338l-1.375-.6a.578.578 0 0 1 .081-.135c.017-.02.03-.032.032-.034.002-.002-.009.008-.041.03-.064.042-.16.096-.269.147-.11.052-.209.09-.278.108-.035.01-.045.01-.035.01a.563.563 0 0 1 .21.034l-.513 1.408Zm2.216-1.042c.082-.26-.005-.473-.016-.503a.834.834 0 0 0-.071-.142 1.203 1.203 0 0 0-.086-.12 4.404 4.404 0 0 0-.154-.177c-.118-.13-.253-.275-.41-.452-.325-.37-.607-.732-.714-.975l-1.374.603c.214.487.653 1.012.964 1.364.162.184.323.358.42.466.055.06.085.094.1.112.009.012-.003-.002-.02-.03a.657.657 0 0 1-.056-.113c-.009-.022-.095-.229-.014-.485l1.43.452Zm-1.45-2.369c-.164-.372-.26-.596-.355-.775l-1.325.703c.061.116.126.266.305.675l1.374-.603Zm-.356-.776a3.177 3.177 0 0 0-.183-.302l-1.237.848c.035.051.067.105.097.16l1.323-.706Zm-.054.187c.05-.584.25-1.15.576-1.637l-1.247-.834a4.991 4.991 0 0 0-.824 2.342l1.495.129Zm-.124-2.8c-1.07.11-2.005.543-2.684.937l.752 1.298c.592-.343 1.313-.664 2.085-.743l-.153-1.492Zm-2.052.881-.003-.001-.513 1.41h.003l.513-1.409Zm.459.49c.01.03-.008-.018.017-.195.021-.155.064-.342.12-.54.114-.398.26-.769.307-.878l-1.375-.599c-.072.164-.24.598-.374 1.066-.067.234-.13.495-.164.745-.032.227-.055.54.032.829l1.437-.429Zm.499-1.805a.752.752 0 0 0-.517-.825c-.109-.035-.2-.036-.22-.036a.975.975 0 0 0-.136.007 3.35 3.35 0 0 0-.382.076l.41 1.442c-.016.005.033-.007.104-.02l.045-.008-.016.001-.057.002a.744.744 0 0 1-.715-.854l1.484.215Zm-1.271-.773a6.786 6.786 0 0 0-1.116.458l.69 1.331c.281-.145.572-.264.87-.356l-.444-1.433Zm-1.113.456a8.23 8.23 0 0 0-1.147.714l.893 1.205c.299-.222.612-.417.938-.584l-.684-1.335Zm-1.146.713a8.266 8.266 0 0 0-2.109 2.291l1.274.792a6.767 6.767 0 0 1 1.726-1.876l-.89-1.207Zm-2.11 2.294a11.478 11.478 0 0 0-.425.752l1.334.686c.186-.361.364-.645.368-.652l-1.277-.786Zm-.421.744c-.034.065-.068.13-.1.195l1.34.675c.027-.057.056-.113.086-.169l-1.326-.7Zm-.092.178a6.881 6.881 0 0 0-.24.5l1.374.604a5.43 5.43 0 0 1 .188-.395l-1.322-.709Zm-.237.494-.01.022a.223.223 0 0 1-.002.006s0 .001 0 0l1.372.607.004-.01.003-.007c.002-.003.002-.003 0-.001l-1.367-.617Zm-.013.032c-.04.09-.08.181-.118.273l1.382.583.11-.256-1.374-.6Zm-.131.308.001-.005-.002.005c0 .003-.003.009-.006.015a1.203 1.203 0 0 0-.01.026l1.41.513a.11.11 0 0 0-.002.005l.003-.005a.913.913 0 0 0 .016-.04l-1.41-.514Zm-.016.04c-1.756 4.826.483 10.155 5.124 11.844l.513-1.41c-3.783-1.376-5.73-5.791-4.228-9.92l-1.41-.513Zm5.124 11.844c4.155 1.512 8.716-.451 10.88-4.338l-1.31-.73c-1.845 3.314-5.667 4.892-9.057 3.659l-.513 1.41Zm10.893-4.361c.054-.106.109-.22.154-.31l-1.346-.664c-.054.11-.096.198-.143.29l1.335.684Zm.154-.31c.705-1.432 1.1-3.074 1.065-4.603l-1.5.035c.03 1.262-.3 2.666-.911 3.905l1.346.662Z" fill="context-stroke" mask="url(#b)"/>
  <defs>
    <linearGradient id="a" x1="90.259" y1="57.79" x2="10.599" y2="18.261" gradientUnits="userSpaceOnUse">
      <stop stop-color="#FF9AA2"/>
      <stop offset="1" stop-color="#9059FF"/>
    </linearGradient>
  </defs>
</svg>
