<!-- This Source Code Form is subject to the terms of the Mozilla Public
   - License, v. 2.0. If a copy of the MPL was not distributed with this
   - file, You can obtain one at http://mozilla.org/MPL/2.0/. -->
<svg xmlns="http://www.w3.org/2000/svg" width="92" height="70" fill="none">
  <path fill="#FF7139" d="M41.696 54.129c-11.343-5.896-34.162 2.764-37.351-5.896-2.333-6.384 9.734-8.735 3.487-22.05C1.585 12.865 28.38 6.125 37.586 11.88c9.206 5.754 28.576-1.681 40.112 4.892 5.344 3.063 9.418 8.945 6.472 13.022-1.219 1.685-3.482 2.821-4.208 4.714-1.415 3.692 4.36 10.718 4.208 14.689-.715 18.664-31.13 10.827-42.474 4.932Z" fill-opacity="context-fill-opacity"/>
  <path fill="#FF8A50" stroke="context-stroke" stroke-width=".917" d="m20.006 38.366 11.777-31.8a3.21 3.21 0 0 1 4.108-1.901l27.506 10.011a3.21 3.21 0 0 1 1.918 4.114L53.724 50.636c-.088.241-.222.43-.35.534a.387.387 0 0 1-.138.079.085.085 0 0 1-.02.003L20 39.163a.086.086 0 0 1-.013-.015.386.386 0 0 1-.054-.149 1.257 1.257 0 0 1 .074-.633Zm33.208 12.887h.002-.002Z"/>
  <path fill="context-fill" stroke="context-stroke" stroke-width=".917" d="M20.32 37.506v-.001L31 8.768 64.523 20.97 54.037 49.777a.774.774 0 0 1-.268.372c-.099.067-.154.054-.165.05L20.381 38.106c-.011-.004-.062-.029-.095-.144a.774.774 0 0 1 .034-.456Z"/>
  <rect width="9.208" height="1.927" x="34.878" y="6.32" fill="context-fill" stroke="context-stroke" stroke-width=".5" rx=".25" transform="rotate(20 34.878 6.32)"/>
  <rect width="9.208" height="1.927" x="45.714" y="10.336" fill="context-fill" stroke="context-stroke" stroke-width=".5" rx=".25" transform="rotate(20 45.714 10.336)"/>
  <path fill="context-fill" stroke="context-stroke" d="M42.334 24.818H64a.5.5 0 0 1 .5.5V57a.5.5 0 0 1-.5.5H20a.5.5 0 0 1-.5-.5V20a.5.5 0 0 1 .5-.5h14.59a.5.5 0 0 1 .3.1l6.543 4.917c.26.196.576.301.9.301Z"/>
  <path stroke="context-stroke" stroke-linecap="round" d="M63.5 57.5h17M59.5 60.5h13"/>
</svg>
