<!-- This Source Code Form is subject to the terms of the Mozilla Public
   - License, v. 2.0. If a copy of the MPL was not distributed with this
   - file, You can obtain one at http://mozilla.org/MPL/2.0/. -->
<svg xmlns="http://www.w3.org/2000/svg" width="86" height="70" fill="none">
  <rect width="38.569" height="62.569" x="-.716" y=".716" fill="context-fill" stroke="context-stroke" stroke-width="1.431" rx="9.451" transform="matrix(-1 0 0 1 69.569 0)"/>
  <path fill="#FF7139" d="M71.638 11.736c0 3.758 10.574 19.057 11.98 24.351 3.844 14.47-.388 33.529-11.98 33.529-12.387 0-24.598-9.738-32.306-12C22.492 52.674-4.603 56.204.669 40.675c0-4.457 14.39-10.284 18.98-17.646 4.339-6.959 8.611-15.514 11.614-18 10.238-8.47 11.675-1.135 22.449.001 2.357.249 17.925-6.704 17.925 6.706Z" fill-opacity="context-fill-opacity"/>
  <g clip-path="url(#a)">
    <rect width="32" height="56" x="35" y="4" fill="context-fill" rx="5.981"/>
    <path fill="#FF8A50" stroke="context-stroke" stroke-width=".895" d="M43 6.89a.89.89 0 0 1 .89-.89h14.22a.89.89 0 0 1 .89.89v.22a.89.89 0 0 1-.89.89H43.89a.89.89 0 0 1-.89-.89v-.22ZM51 58.447a3.447 3.447 0 1 0 0-6.894 3.447 3.447 0 0 0 0 6.894Z"/>
  </g>
  <rect width="33.342" height="57.342" x="34.329" y="3.329" stroke="context-stroke" stroke-width="1.342" rx="6.652"/>
  <path stroke="context-stroke" stroke-linecap="round" stroke-linejoin="round" stroke-width="1.123" d="M57 63.3h27.734M58 68h18.787M27 66h18.787"/>
  <defs>
    <clipPath id="a">
      <rect width="32" height="56" x="35" y="4" fill="context-fill" rx="5.981"/>
    </clipPath>
  </defs>
</svg>
