<!-- This Source Code Form is subject to the terms of the Mozilla Public
   - License, v. 2.0. If a copy of the MPL was not distributed with this
   - file, You can obtain one at http://mozilla.org/MPL/2.0/. -->
<svg xmlns="http://www.w3.org/2000/svg" viewBox="0 0 20 20" width="20" height="20" fill="context-fill" fill-opacity="context-fill-opacity">
  <path d="M15.5 9 15 9l0-4A5 5 0 0 0 5 5l0 4-.5 0A2.5 2.5 0 0 0 2 11.5l0 6A2.5 2.5 0 0 0 4.5 20l11 0a2.5 2.5 0 0 0 2.5-2.5l0-6A2.5 2.5 0 0 0 15.5 9zm-9-4c0-1.93 1.57-3.5 3.5-3.5 1.93 0 3.5 1.57 3.5 3.5l0 4-7 0 0-4zm10 12.7-.8.8-11.4 0-.8-.8 0-6.4.8-.8 11.4 0 .8.8 0 6.4z"/>
</svg>
