<!-- This Source Code Form is subject to the terms of the Mozilla Public
   - License, v. 2.0. If a copy of the MPL was not distributed with this
   - file, You can obtain one at http://mozilla.org/MPL/2.0/. -->
<svg width="22" height="22" fill="context-fill" fill-opacity="context-fill-opacity" xmlns="http://www.w3.org/2000/svg"><path d="M21.831 3.51h-7.772l.424-1.202s.071-.141.071-.353c0-.495-.353-.99-.918-.99H5.793c-.07 0-.07 0-.141.071L0 20.893c0 .07 0 .142.141.142h1.625c.07 0 .07 0 .142-.071l2.26-7.915h5.864c.566 0 .99.424 1.06.919 0 .565-.424.99-.918 1.06H8.83a.966.966 0 0 0-.989.99v.211c.142.424.565.778.99.778h9.255c.07 0 .14-.071.14-.142l3.745-13.073c.07-.141 0-.283-.141-.283z"/></svg>
