<!-- This Source Code Form is subject to the terms of the Mozilla Public
   - License, v. 2.0. If a copy of the MPL was not distributed with this
   - file, You can obtain one at http://mozilla.org/MPL/2.0/. -->
<svg xmlns="http://www.w3.org/2000/svg" viewBox="0 0 24 24">
  <path fill="context-fill" fill-opacity="context-fill-opacity" d="M10,15.1c-3.3,0-6-2.7-6-6c0-3.3,2.7-6,6-6c3.3,0,6,2.7,6,6S13.3,15.1,10,15.1L10,15.1 M17.3,14.3 c2.9-4,2-9.7-2.1-12.6s-9.7-2-12.6,2.1C1.6,5.3,1,7.2,1,9.1c0,5,4.1,9,9,9c1.8,0,3.6-0.6,5.2-1.6l6.2,6.2c0.6,0.6,1.5,0.6,2.1,0	c0.6-0.6,0.6-1.5,0-2.1L17.3,14.3L17.3,14.3z"/>
</svg>
