<?xml version="1.0" encoding="UTF-8" standalone="no"?>
<!DOCTYPE svg PUBLIC "-//W3C//DTD SVG 1.1//EN" "http://www.w3.org/Graphics/SVG/1.1/DTD/svg11.dtd">
<!-- Created with Vectornator (http://vectornator.io/) -->
<svg height="100%" stroke-miterlimit="10" style="fill-rule:nonzero;clip-rule:evenodd;stroke-linecap:round;stroke-linejoin:round;" version="1.1" viewBox="0 0 1024 1024" width="100%" xml:space="preserve" xmlns="http://www.w3.org/2000/svg" xmlns:xlink="http://www.w3.org/1999/xlink">
<defs>
<linearGradient gradientTransform="matrix(1 0 0 1 0 0)" gradientUnits="userSpaceOnUse" id="LinearGradient" x1="518.554" x2="508.702" y1="65.916" y2="957.217">
<stop offset="0" stop-color="#36adff"/>
<stop offset="1" stop-color="#0029ea"/>
</linearGradient>
</defs>
<g id="レイヤー-1-コピー">
<path d="M330.888 68.0084L693.112 68.0084C734.659 68.0084 785.179 97.1761 805.952 133.156L987.064 446.852C1007.84 482.832 1007.84 541.168 987.064 577.148L805.952 890.844C785.179 926.824 734.659 955.992 693.112 955.992L330.888 955.992C289.341 955.992 238.821 926.824 218.048 890.844L36.9358 577.148C16.1626 541.168 16.1626 482.832 36.9358 446.852L218.048 133.156C238.821 97.176 289.341 68.0084 330.888 68.0084Z" fill="url(#LinearGradient)" fill-rule="nonzero" opacity="1" stroke="none"/>
<path d="M513.625 211.875C506.21 211.875 498.718 212.144 491.156 212.688C432.205 216.925 381.751 235.412 339.469 265.5C305.747 289.496 278.906 319.552 257.719 353.469C250.404 365.179 253.977 380.591 265.688 387.906C277.398 395.221 292.81 391.679 300.125 379.969C318.024 351.316 340.523 326.105 368.469 306.219C403.362 281.389 445.048 266.135 494.75 262.562C545.288 258.93 591.625 269.933 632.531 292.594C644.609 299.285 659.84 294.89 666.531 282.812C673.222 270.735 668.828 255.535 656.75 248.844C613.735 225.014 565.533 211.874 513.625 211.875ZM706.25 292.031C699.852 292.043 693.435 294.485 688.562 299.375C678.817 309.156 678.844 324.974 688.625 334.719C702.747 348.789 714.752 364.264 724.781 380.938C741.326 408.442 751.933 438.035 757.688 467.844C759.763 478.598 761.07 488.707 761.75 497.906C761.998 501.26 762.149 504.308 762.219 507C762.265 508.792 762.265 510.179 762.25 511.125C762.248 511.233 762.248 511.265 762.25 511.219C761.815 525.019 772.637 536.565 786.438 537C800.238 537.435 811.784 526.582 812.219 512.781C812.225 512.573 812.244 512.304 812.25 511.938C812.32 507.63 812.142 501.634 811.594 494.219C810.775 483.136 809.24 471.111 806.781 458.375C799.977 423.128 787.408 388.076 767.625 355.188C755.524 335.07 741.027 316.339 723.938 299.312C719.047 294.44 712.648 292.02 706.25 292.031ZM523.188 301.562C511.64 301.47 499.922 302.254 488.125 303.969C444.609 310.295 406.167 325.387 374.938 351.531C337.356 382.993 312.682 428.633 303.188 489.094C301.381 500.6 300.93 512.342 301.5 525.219C301.915 534.598 302.65 542.201 304.406 557.469C307.806 587.027 308.224 598.587 305.375 611.5C301.929 627.122 292.954 640.167 274.625 653.188C263.369 661.183 260.754 676.775 268.75 688.031C276.746 699.287 292.337 701.933 303.594 693.938C331.813 673.892 348.003 650.313 354.188 622.281C356.731 610.75 357.548 598.825 357.062 585.438C356.717 575.934 356.041 568.954 354.062 551.75C350.872 524.006 350.314 511.395 352.594 496.875C360.262 448.043 379.003 413.308 407.031 389.844C430.443 370.244 460.326 358.555 495.312 353.469C567.875 342.92 634.752 376.787 659.875 438.938C672.915 471.197 681.062 517.605 682.156 567.469C683.32 620.515 676.518 673.588 662.094 718.25C657.851 731.389 665.049 745.476 678.188 749.719C691.326 753.962 705.413 746.764 709.656 733.625C741.78 634.156 738.862 500.974 706.219 420.219C676.304 346.216 604.02 302.213 523.188 301.562ZM512.531 389.5C487.507 388.97 458.677 398.109 436.719 416.219C408.297 439.66 393.579 475.464 396.844 521.156C401.203 582.162 390.418 635.747 369.844 681.281C363.799 694.66 357.346 706.262 350.969 716C348.795 719.32 346.805 722.149 345.062 724.469C344.489 725.232 343.994 725.874 343.594 726.375C343.474 726.525 343.332 726.708 343.375 726.656C334.466 737.205 335.795 752.998 346.344 761.906C356.892 770.815 372.654 769.486 381.562 758.938C381.828 758.624 382.212 758.159 382.688 757.562C383.391 756.681 384.162 755.658 385.031 754.5C387.411 751.333 390.04 747.641 392.812 743.406C400.569 731.561 408.26 717.69 415.406 701.875C439.259 649.084 451.668 587.29 446.688 517.594C444.558 487.786 452.802 467.786 468.531 454.812C480.855 444.648 497.973 439.214 511.469 439.5C529.42 439.88 545.748 445.512 558.094 456.469C573.292 469.958 583.136 491.772 585.625 523.812C592.616 613.821 579.136 689.924 536.906 771.531C530.561 783.794 535.362 798.873 547.625 805.219C559.888 811.564 574.967 806.762 581.312 794.5C628.035 704.211 643.151 618.842 635.469 519.938C632.024 475.586 616.709 441.661 591.281 419.094C569.463 399.73 541.714 390.118 512.531 389.5ZM247.594 418C235.978 417.471 225.208 425.13 222.25 436.844C208.493 491.32 210.248 549.103 224.906 602.406C228.567 615.719 242.312 623.536 255.625 619.875C268.938 616.214 276.786 602.438 273.125 589.125C260.674 543.85 259.169 494.83 270.719 449.094C274.099 435.707 265.981 422.099 252.594 418.719C250.92 418.296 249.253 418.076 247.594 418ZM512.375 487C510.714 486.977 509.008 487.115 507.312 487.438C493.749 490.021 484.854 503.124 487.438 516.688C487.443 516.715 487.788 518.77 487.938 519.75C488.38 522.661 488.827 526.099 489.25 530C490.899 545.192 491.668 562.476 491 581.125C490.116 605.785 486.804 630.428 480.594 654.344C477.124 667.708 485.136 681.342 498.5 684.812C511.864 688.283 525.499 680.27 528.969 666.906C536.147 639.262 539.961 611.034 540.969 582.906C541.728 561.728 540.865 542.065 538.969 524.594C538.467 519.968 537.924 515.824 537.375 512.219C537.177 510.919 536.984 509.779 536.812 508.781C536.7 508.128 536.623 507.632 536.562 507.312C534.302 495.445 524.002 487.159 512.375 487ZM469.031 717.812C461.01 718.064 453.229 722.17 448.625 729.469C441.262 741.142 432.912 752.136 423.531 762.406C414.219 772.601 414.962 788.407 425.156 797.719C435.351 807.031 451.157 806.319 460.469 796.125C471.87 783.644 482.014 770.272 490.938 756.125C498.304 744.447 494.803 729.023 483.125 721.656C478.746 718.894 473.844 717.661 469.031 717.812Z" fill="#ffffff" fill-rule="nonzero" opacity="1" stroke="none"/>
</g>
</svg>
