<?xml version="1.0" encoding="UTF-8"?>
<svg height="16px" viewBox="0 0 16 16" width="16px" xmlns="http://www.w3.org/2000/svg">
    <path d="m 7.515625 1 c -0.277344 0 -0.5 0.222656 -0.5 0.5 v 7.585938 l -1.792969 -1.792969 c -0.1875 -0.1875 -0.441406 -0.292969 -0.707031 -0.292969 h -1.5 v 1 h 0.011719 c -0.003906 0.265625 0.097656 0.519531 0.28125 0.707031 l 4 4 c 0.390625 0.390625 1.023437 0.390625 1.414062 0 l 4 -4 c 0.1875 -0.1875 0.289063 -0.441406 0.289063 -0.707031 h 0.003906 v -1 h -1.5 c -0.265625 0 -0.519531 0.105469 -0.707031 0.292969 l -1.792969 1.792969 v -7.585938 c 0 -0.277344 -0.222656 -0.5 -0.5 -0.5 z m -5 13 c -0.277344 0 -0.5 0.222656 -0.5 0.5 v 1 c 0 0.277344 0.222656 0.5 0.5 0.5 h 11 c 0.277344 0 0.5 -0.222656 0.5 -0.5 v -1 c 0 -0.277344 -0.222656 -0.5 -0.5 -0.5 z m 0 0" fill="context-fill" stroke="context-stroke" fill-opacity="context-fill-opacity" stroke-opacity="context-stroke-opacity" font-family="sans-serif" font-weight="400" overflow="visible" style="font-feature-settings:normal;font-variant-alternates:normal;font-variant-caps:normal;font-variant-ligatures:normal;font-variant-numeric:normal;font-variant-position:normal;isolation:auto;mix-blend-mode:normal;shape-padding:0;text-decoration-color:#000;text-decoration-line:none;text-decoration-style:solid;text-indent:0;text-orientation:mixed;text-transform:none;white-space:normal"/>
</svg>
