<?xml version="1.0" encoding="UTF-8"?>
<svg height="16px" viewBox="0 0 16 16" width="16px" xmlns="http://www.w3.org/2000/svg">
    <path d="m 8.015625 1 c -0.207031 0 -0.410156 0.066406 -0.578125 0.1875 l -7 5 c -0.007812 0.003906 -0.007812 0.003906 -0.011719 0.003906 c -0.082031 0.058594 -0.152343 0.132813 -0.210937 0.214844 c -0.0625 0.082031 -0.109375 0.171875 -0.1406252 0.269531 c -0.0039063 0.003907 -0.0039063 0.003907 -0.0078126 0.007813 c -0.03125 0.097656 -0.046875 0.203125 -0.0507812 0.308594 v 0.007812 v 1 h 0.996094 l -0.011719 3.996094 v 0.003906 c 0 1.332031 0.8125 2.273438 1.550781 2.644531 c 0.742188 0.371094 1.449219 0.355469 1.449219 0.355469 h 8 s 0.707031 0.015625 1.449219 -0.355469 c 0.734375 -0.367187 1.550781 -1.308593 1.550781 -2.644531 l 0.011719 -4 h 1.003906 v -1 c 0 -0.324219 -0.15625 -0.625 -0.417969 -0.8125 l -7 -5 c -0.167968 -0.121094 -0.375 -0.1875 -0.582031 -0.1875 z m 0 2.230469 l 5 3.570312 v 0.171875 c 0 0.007813 -0.003906 0.015625 -0.003906 0.023438 l -0.015625 5 v 0.003906 c 0 0.667969 -0.1875 0.726562 -0.449219 0.855469 c -0.257813 0.132812 -0.550781 0.144531 -0.550781 0.144531 h -2.949219 v -3.992188 h -3.03125 v 3.992188 h -2.019531 s -0.292969 -0.011719 -0.554688 -0.144531 c -0.257812 -0.128907 -0.445312 -0.1875 -0.445312 -0.851563 v -0.003906 l 0.007812 -3 h 0.011719 v -2.199219 z m 0 0" fill="context-fill" stroke="context-stroke" fill-opacity="context-fill-opacity" stroke-opacity="context-stroke-opacity"/>
</svg>
