<!-- may be protected as a trademark in some jurisdictions -->
<svg xmlns="http://www.w3.org/2000/svg" width="135" height="40" xml:space="preserve"><path fill="#A6A6A6" d="M130.197 40H4.729A4.74 4.74 0 0 1 0 35.267V4.726A4.733 4.733 0 0 1 4.729 0h125.468C132.803 0 135 2.12 135 4.726v30.541c0 2.605-2.197 4.733-4.803 4.733z"/><path d="M134.032 35.268a3.83 3.83 0 0 1-3.834 3.83H4.729a3.835 3.835 0 0 1-3.839-3.83V4.725A3.84 3.84 0 0 1 4.729.89h125.468a3.834 3.834 0 0 1 3.834 3.835l.001 30.543z"/><g fill="#FFF"><path d="M30.128 19.784c-.029-3.223 2.639-4.791 2.761-4.864-1.511-2.203-3.853-2.504-4.676-2.528-1.967-.207-3.875 1.177-4.877 1.177-1.022 0-2.565-1.157-4.228-1.123-2.14.033-4.142 1.272-5.24 3.196-2.266 3.923-.576 9.688 1.595 12.859 1.086 1.553 2.355 3.287 4.016 3.226 1.625-.067 2.232-1.036 4.193-1.036 1.943 0 2.513 1.036 4.207.997 1.744-.028 2.842-1.56 3.89-3.127 1.255-1.78 1.759-3.533 1.779-3.623-.041-.014-3.387-1.291-3.42-5.154zM26.928 10.306c.874-1.093 1.472-2.58 1.306-4.089-1.265.056-2.847.875-3.758 1.944-.806.942-1.526 2.486-1.34 3.938 1.421.106 2.88-.717 3.792-1.793z"/></g><g fill="#FFF"><path d="M50.383 30.648h-1.587l-.87-2.732h-3.022l-.828 2.732h-1.545l2.995-9.301h1.849l3.008 9.301zm-2.718-3.877-.787-2.429c-.083-.248-.239-.832-.469-1.753h-.028c-.092.396-.239.98-.441 1.753l-.773 2.429h2.498zM58.098 27.212c0 1.142-.309 2.043-.925 2.705-.552.589-1.237.883-2.056.883-.883 0-1.518-.317-1.904-.952h-.028v3.533h-1.49V26.15c0-.718-.019-1.453-.055-2.208h1.311l.083 1.062h.028c.497-.8 1.251-1.2 2.263-1.2.791 0 1.451.312 1.98.938.528.626.793 1.449.793 2.47zm-1.518.056c0-.653-.147-1.191-.442-1.614a1.524 1.524 0 0 0-1.297-.663 1.54 1.54 0 0 0-1 .366 1.691 1.691 0 0 0-.587.959 1.956 1.956 0 0 0-.069.455v1.118c0 .487.149.899.449 1.235.299.336.688.503 1.166.503.561 0 .998-.216 1.311-.648.312-.433.469-1.003.469-1.711zM65.826 27.212c0 1.142-.309 2.043-.925 2.705-.552.589-1.237.883-2.056.883-.883 0-1.518-.317-1.904-.952h-.028v3.533h-1.49V26.15c0-.718-.019-1.453-.055-2.208h1.311l.083 1.062h.028c.497-.8 1.251-1.2 2.263-1.2.791 0 1.451.312 1.98.938.528.626.793 1.449.793 2.47zm-1.518.056c0-.653-.147-1.191-.442-1.614a1.524 1.524 0 0 0-1.297-.663 1.54 1.54 0 0 0-1 .366 1.691 1.691 0 0 0-.587.959 1.956 1.956 0 0 0-.069.455v1.118c0 .487.149.899.449 1.235.299.336.688.503 1.166.503.561 0 .998-.216 1.311-.648.312-.433.469-1.003.469-1.711zM74.479 28.04c0 .792-.275 1.436-.826 1.933-.605.543-1.451.813-2.533.813-1.002 0-1.805-.193-2.411-.579l.344-1.242a4.078 4.078 0 0 0 2.154.594c.561 0 .998-.127 1.311-.381.314-.253.471-.592.471-1.016 0-.378-.129-.695-.387-.954-.258-.258-.686-.497-1.283-.719-1.629-.607-2.443-1.497-2.443-2.668 0-.765.285-1.391.855-1.879.57-.489 1.33-.733 2.277-.733.846 0 1.551.147 2.111.441l-.373 1.215c-.523-.285-1.117-.428-1.779-.428-.525 0-.934.129-1.229.387-.248.229-.373.51-.373.842 0 .368.143.671.428.91.248.221.699.46 1.354.718.801.322 1.389.699 1.766 1.132s.566.97.566 1.614zM79.529 25.06h-1.643v3.257c0 .828.289 1.242.869 1.242.268 0 .488-.023.662-.069l.041 1.132c-.293.11-.68.165-1.158.165-.59 0-1.049-.179-1.381-.538-.33-.358-.496-.961-.496-1.808V25.06h-.98v-1.118h.98v-1.228l1.463-.442v1.67h1.643v1.118zM87.09 27.24c0 1.03-.293 1.876-.883 2.539-.615.681-1.436 1.021-2.457 1.021-.984 0-1.768-.326-2.352-.979s-.877-1.477-.877-2.47c0-1.04.301-1.891.904-2.554.602-.662 1.414-.993 2.436-.993.984 0 1.775.326 2.373.979.571.635.856 1.454.856 2.457zm-1.545.048c0-.618-.133-1.148-.4-1.592-.312-.535-.76-.803-1.338-.803-.6 0-1.055.268-1.367.803-.266.443-.4.983-.4 1.619 0 .619.135 1.149.4 1.592.322.535.773.803 1.354.803.57 0 1.016-.272 1.338-.816.274-.453.413-.988.413-1.606zM92.279 25.253a2.494 2.494 0 0 0-.469-.042c-.525 0-.93.198-1.215.594-.248.35-.373.791-.373 1.325v3.519h-1.49l.014-4.596c0-.772-.018-1.477-.055-2.111h1.297l.055 1.283h.043c.156-.441.404-.795.744-1.062a1.801 1.801 0 0 1 1.076-.358c.139 0 .264.009.373.027v1.421zM99.068 26.978c0 .267-.02.492-.055.677H94.54c.02.662.236 1.168.65 1.518.377.312.863.469 1.461.469.664 0 1.266-.105 1.809-.317l.234 1.035c-.635.276-1.385.414-2.25.414-1.039 0-1.855-.306-2.449-.918-.592-.611-.889-1.433-.889-2.463 0-1.012.275-1.854.828-2.525.578-.718 1.361-1.076 2.346-1.076.965 0 1.697.358 2.193 1.076.398.569.595 1.273.595 2.11zm-1.422-.387c.01-.441-.088-.823-.289-1.145-.258-.414-.654-.621-1.188-.621-.488 0-.883.202-1.186.606-.25.322-.396.709-.443 1.159h3.106zM103.596 27.475h-3.438v-1.049h3.438v1.049zM111.57 27.198c0 1.132-.312 2.033-.938 2.705-.553.598-1.229.896-2.029.896-.957 0-1.66-.396-2.111-1.187h-.027l-.084 1.035h-1.27c.037-.543.057-1.146.057-1.808v-7.977h1.49v4.058h.027c.441-.746 1.154-1.118 2.139-1.118.811 0 1.471.311 1.98.932s.766 1.443.766 2.464zm-1.517.056c0-.653-.146-1.188-.441-1.601a1.53 1.53 0 0 0-1.311-.677c-.369 0-.699.12-.994.358-.295.24-.492.558-.594.953a2.023 2.023 0 0 0-.055.469v1.173c0 .46.154.855.461 1.187.309.332.693.497 1.152.497.562 0 1-.211 1.312-.635.313-.422.47-.998.47-1.724zM119.367 27.24c0 1.03-.293 1.876-.883 2.539-.615.681-1.436 1.021-2.457 1.021-.984 0-1.768-.326-2.352-.979s-.877-1.477-.877-2.47c0-1.04.301-1.891.904-2.554.602-.662 1.414-.993 2.436-.993.984 0 1.775.326 2.373.979.571.635.856 1.454.856 2.457zm-1.545.048c0-.618-.133-1.148-.4-1.592-.312-.535-.76-.803-1.338-.803-.6 0-1.055.268-1.367.803-.266.443-.4.983-.4 1.619 0 .619.135 1.149.4 1.592.322.535.773.803 1.354.803.57 0 1.016-.272 1.338-.816.275-.453.413-.988.413-1.606zm.207-6.161-1.67 2h-1.035l1.188-2h1.517zM122.5 30.648h-1.49v-9.784h1.49v9.784z"/></g><g fill="#FFF"><path d="M47.391 16.533h-3.715V9.996h1.048v5.655h2.667v.882zM52.678 13.953c0 .188-.014.346-.039.475h-3.143c.013.466.164.821.455 1.067.266.22.608.33 1.028.33.466 0 .89-.074 1.271-.223l.164.728c-.446.194-.973.291-1.581.291-.73 0-1.305-.215-1.722-.645s-.625-1.007-.625-1.731c0-.711.193-1.303.582-1.775.407-.504.956-.756 1.648-.756.679 0 1.193.252 1.542.756.281.4.42.895.42 1.483zm-1-.271a1.427 1.427 0 0 0-.203-.805c-.182-.291-.459-.437-.834-.437a.997.997 0 0 0-.835.427 1.577 1.577 0 0 0-.31.815h2.182zM56.577 12.604h-1.154v2.29c0 .582.204.873.611.873.188 0 .343-.016.466-.049l.028.795c-.207.078-.479.117-.814.117-.414 0-.737-.126-.97-.378-.233-.252-.35-.676-.35-1.271v-2.377h-.688v-.786h.688v-.863l1.028-.31v1.173h1.154v.786zM62.33 14.137c0 .725-.207 1.319-.62 1.785-.432.479-1.006.718-1.723.718-.69 0-1.24-.229-1.65-.689-.41-.459-.614-1.038-.614-1.736 0-.73.211-1.329.634-1.794.422-.466.992-.698 1.708-.698.69 0 1.245.229 1.665.688.399.446.6 1.022.6 1.726zm-2.698-3.511c0 .155-.05.285-.148.388a.492.492 0 0 1-.37.155.496.496 0 0 1-.38-.16c-.1-.107-.148-.234-.148-.383a.535.535 0 0 1 .538-.543c.147 0 .269.054.365.16a.557.557 0 0 1 .143.383zm1.611 3.545c0-.435-.094-.808-.28-1.119-.219-.376-.531-.564-.937-.564-.419 0-.738.188-.957.564-.187.311-.28.69-.28 1.138 0 .435.094.808.28 1.119.226.376.541.564.947.564.398 0 .712-.191.937-.574.193-.317.29-.693.29-1.128zm.214-3.545c0 .155-.05.285-.149.388a.503.503 0 0 1-.38.155.482.482 0 0 1-.369-.16c-.1-.107-.149-.234-.149-.383s.051-.276.153-.383a.504.504 0 0 1 .375-.16c.154 0 .279.054.375.16a.553.553 0 0 1 .144.383zM64.928 16.533H63.88V9.656h1.048v6.877zM69.166 12.604h-1.154v2.29c0 .582.204.873.611.873.188 0 .343-.016.466-.049l.027.795c-.207.078-.478.117-.814.117-.414 0-.737-.126-.97-.378-.233-.252-.35-.676-.35-1.271v-2.377h-.688v-.786h.688v-.863l1.028-.31v1.173h1.154v.786zM74.715 16.533h-1.049v-2.68c0-.845-.316-1.268-.949-1.268-.486 0-.818.245-1 .735a1.317 1.317 0 0 0-.049.377v2.835h-1.047V9.656h1.047v2.841h.02c.33-.517.803-.775 1.416-.775.434 0 .793.142 1.078.427.355.355.533.883.533 1.581v2.803zM80.439 13.953c0 .188-.014.346-.039.475h-3.143c.012.466.164.821.455 1.067.266.22.607.33 1.027.33.467 0 .891-.074 1.271-.223l.164.728c-.445.194-.973.291-1.58.291-.73 0-1.305-.215-1.723-.645-.416-.43-.625-1.007-.625-1.731 0-.711.193-1.303.582-1.775.408-.504.957-.756 1.648-.756.68 0 1.193.252 1.543.756.28.4.42.895.42 1.483zm-1-.271a1.435 1.435 0 0 0-.203-.805c-.182-.291-.459-.437-.834-.437a.998.998 0 0 0-.836.427 1.567 1.567 0 0 0-.309.815h2.182zM84.338 12.604h-1.154v2.29c0 .582.203.873.611.873.188 0 .342-.016.465-.049l.029.795c-.207.078-.479.117-.814.117-.414 0-.738-.126-.971-.378-.232-.252-.35-.676-.35-1.271v-2.377h-.688v-.786h.688v-.863l1.029-.31v1.173h1.154v.786zM90.1 14.137c0 .725-.207 1.319-.621 1.785-.434.479-1.01.718-1.727.718-.693 0-1.244-.229-1.654-.689-.41-.459-.615-1.038-.615-1.736 0-.73.211-1.329.635-1.794s.994-.698 1.711-.698c.693 0 1.248.229 1.67.688.399.446.601 1.022.601 1.726zm-1.088.034c0-.435-.094-.808-.281-1.119-.219-.376-.533-.564-.939-.564-.422 0-.742.188-.961.564-.188.311-.281.69-.281 1.138 0 .435.094.808.281 1.119.227.376.543.564.951.564.4 0 .713-.191.939-.574.195-.317.291-.693.291-1.128zm-.746-4.389-1.029 1.368h-.629l.717-1.368h.941zm1.484 0-1.029 1.368h-.629l.717-1.368h.941zM98.004 16.533h-.941l-.076-.543h-.029c-.324.433-.783.65-1.377.65-.447 0-.807-.143-1.078-.427a1.337 1.337 0 0 1-.367-.96c0-.576.24-1.015.723-1.319.48-.304 1.158-.453 2.031-.446V13.4c0-.621-.326-.931-.977-.931-.465 0-.875.117-1.23.349l-.213-.688c.439-.271.979-.407 1.617-.407 1.234 0 1.85.65 1.85 1.95v1.736c-.001.471.022.846.067 1.124zm-1.086-1.62v-.727c-1.158-.02-1.736.297-1.736.95 0 .246.068.43.203.553a.728.728 0 0 0 .51.184c.232 0 .445-.073.643-.218a.898.898 0 0 0 .38-.742zM103.135 16.533h-3.84v-.611l1.881-2.473c.117-.155.33-.411.641-.767v-.019h-2.338v-.844h3.607v.65l-1.842 2.435c-.207.265-.42.521-.641.766v.02h2.531v.843z"/></g></svg>
