<!-- This Source Code Form is subject to the terms of the Mozilla Public
   - License, v. 2.0. If a copy of the MPL was not distributed with this
   - file, You can obtain one at http://mozilla.org/MPL/2.0/. -->
<svg xmlns="http://www.w3.org/2000/svg" viewBox="0 0 16 16" fill="context-fill" fill-opacity="context-fill-opacity" width="32" height="32">
  <path d="M9.5 3s.43 2.43 1.25 3.25S14 7.5 14 7.5s-2.43.39-3.25 1.21S9.5 12 9.5 12s-.39-2.46-1.21-3.29S5 7.5 5 7.5s2.46-.43 3.29-1.25S9.5 3 9.5 3m0-2a2 2 0 0 0-2 1.68 7.54 7.54 0 0 1-.66 2.15 7.9 7.9 0 0 1-2.21.7 2 2 0 0 0 0 3.95 7.73 7.73 0 0 1 2.18.66 7.74 7.74 0 0 1 .66 2.19 2 2 0 0 0 2 1.68 2 2 0 0 0 2-1.66 7.89 7.89 0 0 1 .7-2.21 7.57 7.57 0 0 1 2.15-.66 2 2 0 0 0 0-3.94 7.69 7.69 0 0 1-2.18-.7 7.73 7.73 0 0 1-.7-2.18A2 2 0 0 0 9.5 1zM5.09 12.51a3.13 3.13 0 0 1-1.18-.42 3.11 3.11 0 0 1-.42-1.18.5.5 0 0 0-.49-.41.5.5 0 0 0-.49.42 3 3 0 0 1-.4 1.17 3.14 3.14 0 0 1-1.19.42.5.5 0 0 0 0 1 3 3 0 0 1 1.19.4 3 3 0 0 1 .4 1.19.5.5 0 0 0 .49.4.5.5 0 0 0 .49-.41 3.2 3.2 0 0 1 .42-1.19 3 3 0 0 1 1.17-.4.5.5 0 0 0 0-1zM4.09 2a2.36 2.36 0 0 1-.82-.28A2.37 2.37 0 0 1 3 .91.5.5 0 0 0 2.5.5a.5.5 0 0 0-.5.42 2.28 2.28 0 0 1-.27.81A2.4 2.4 0 0 1 .91 2a.5.5 0 0 0 0 1 2.32 2.32 0 0 1 .82.26 2.34 2.34 0 0 1 .27.82.5.5 0 0 0 .49.42.5.5 0 0 0 .51-.41 2.42 2.42 0 0 1 .28-.83 2.3 2.3 0 0 1 .8-.26.5.5 0 0 0 0-1z"/>
</svg>
