<!-- This Source Code Form is subject to the terms of the Mozilla Public
   - License, v. 2.0. If a copy of the MPL was not distributed with this
   - file, You can obtain one at http://mozilla.org/MPL/2.0/. -->
<svg xmlns="http://www.w3.org/2000/svg" viewBox="0 0 16 16" fill="context-fill" fill-opacity="context-fill-opacity" width="32" height="32">
  <path d="M12 8a4 4 0 1 0 4 4 4 4 0 0 0-4-4zm2.2 4.46l-1.92 1.92a.38.38 0 0 1-.54 0L9.8 12.46a.38.38 0 0 1 .54-.54l1.27 1.27V9.88a.38.38 0 0 1 .77 0v3.3l1.27-1.27a.38.38 0 0 1 .54.54z"/>
  <path d="M6.93.64a1 1 0 0 0-1.86 0l-5 14a1 1 0 0 0 .61 1.28A1 1 0 0 0 1 16a1 1 0 0 0 .94-.66l1.58-4.43h3.6a5 5 0 0 1 2.34-3.19zM4.24 8.91L6 4l1.76 4.91z"/>
</svg>
