<!-- This Source Code Form is subject to the terms of the Mozilla Public
   - License, v. 2.0. If a copy of the MPL was not distributed with this
   - file, You can obtain one at http://mozilla.org/MPL/2.0/. -->
<svg width="24" height="24" viewBox="0 0 24 24" fill="none" xmlns="http://www.w3.org/2000/svg">
<path fill-rule="evenodd" clip-rule="evenodd" d="M5 4a2 2 0 0 1 2-2h10a2 2 0 0 1 2 2v16a2 2 0 0 1-2 2H7a2 2 0 0 1-2-2V4zm2 .51A.51.51 0 0 1 7.51 4h8.98a.51.51 0 0 1 .51.51v13.98a.51.51 0 0 1-.51.51H7.51a.51.51 0 0 1-.51-.51V4.51zM10.5 20a.5.5 0 1 0 0 1h3a.5.5 0 1 0 0-1h-3z" fill="context-fill #0b0b0b"></path>
</svg>