<?xml version="1.0" encoding="UTF-8" standalone="no"?>
<!DOCTYPE svg PUBLIC "-//W3C//DTD SVG 1.1//EN" "http://www.w3.org/Graphics/SVG/1.1/DTD/svg11.dtd">
<!-- Created with Vectornator (http://vectornator.io/) -->
<svg height="100%" stroke-miterlimit="10" style="fill-rule:nonzero;clip-rule:evenodd;stroke-linecap:round;stroke-linejoin:round;" version="1.1" viewBox="0 0 1024 1024" width="100%" xml:space="preserve" xmlns="http://www.w3.org/2000/svg" xmlns:vectornator="http://vectornator.io" xmlns:xlink="http://www.w3.org/1999/xlink">
<defs>
<linearGradient gradientTransform="matrix(1 0 0 1 0 0)" gradientUnits="userSpaceOnUse" id="LinearGradient" x1="512.121" x2="512.567" y1="69.0755" y2="955.737">
<stop offset="0" stop-color="#7405e8"/>
<stop offset="0.5" stop-color="#5309e8"/>
<stop offset="1" stop-color="#0511e8"/>
</linearGradient>
</defs>
<g id="レイヤー-1" vectornator:layerName="レイヤー 1">
<path d="M330.888 68.0084L693.112 68.0084C734.659 68.0084 785.179 97.1761 805.952 133.156L987.064 446.852C1007.84 482.832 1007.84 541.168 987.064 577.148L805.952 890.844C785.179 926.824 734.659 955.992 693.112 955.992L330.888 955.992C289.341 955.992 238.821 926.824 218.048 890.844L36.9358 577.148C16.1626 541.168 16.1626 482.832 36.9358 446.852L218.048 133.156C238.821 97.176 289.341 68.0084 330.888 68.0084Z" fill="url(#LinearGradient)" fill-rule="nonzero" opacity="1" stroke="none"/>
<path d="M350.406 181.969C334.411 181.969 314.967 193.21 306.969 207.062L145.406 486.906C137.408 500.759 137.408 523.241 145.406 537.094L306.969 816.938C314.967 830.79 334.41 842.031 350.406 842.031L356.656 842.031C365.493 842.031 372.656 834.868 372.656 826.031L372.656 614.219C372.656 607.591 378.029 602.219 384.656 602.219L827.969 602.219C835.118 602.219 843.793 597.238 847.438 591.062L878.594 537.094C886.592 523.241 886.592 500.759 878.594 486.906L873.813 478.656C870.308 472.587 861.79 467.656 854.781 467.656L384.656 467.656C378.029 467.656 372.656 462.284 372.656 455.656L372.656 327.031C372.656 320.404 378.029 315.031 384.656 315.031L757.875 315.031C769.738 315.031 774.561 306.707 768.656 296.438L717.031 207.062C709.033 193.21 689.589 181.969 673.594 181.969L350.406 181.969Z" fill="#ffffff" fill-rule="nonzero" opacity="1" stroke="none"/>
</g>
</svg>
