<svg version="1.1" id="Layer_1" xmlns="http://www.w3.org/2000/svg" xmlns:xlink="http://www.w3.org/1999/xlink" x="0px" y="0px"
	 width="100%" viewBox="0 0 256 256" enable-background="new 0 0 256 256" xml:space="preserve">
<path fill="#000000" opacity="1.000000" stroke="none" 
	d="
M257.000000,96.000000 
	C257.000000,150.000000 257.000000,203.500000 257.000000,257.000000 
	C171.666672,257.000000 86.333336,257.000000 1.000000,257.000000 
	C1.000000,171.666672 1.000000,86.333336 1.000000,1.000000 
	C86.333336,1.000000 171.666672,1.000000 257.000000,1.000000 
	C257.000000,32.500000 257.000000,64.000000 257.000000,96.000000 
M48.084553,223.555542 
	C48.373970,223.751801 48.663387,223.948059 49.216057,224.721313 
	C50.104218,225.827164 50.992378,226.933014 51.994156,228.733612 
	C60.064354,239.774216 71.186569,245.673523 84.602707,245.867859 
	C113.903328,246.292313 143.216660,246.217499 172.520050,245.902954 
	C186.165497,245.756500 197.284714,239.646332 206.149231,228.368011 
	C207.377518,226.244690 208.605820,224.121368 210.140625,221.373810 
	C211.465027,219.263397 212.789444,217.153000 214.721695,214.708206 
	C216.091858,212.136307 217.462021,209.564407 219.186996,206.300674 
	C220.368988,203.499619 221.282028,200.789627 217.030045,199.131500 
	C220.298843,193.419968 223.567642,187.708420 227.152985,181.359924 
	C229.786911,176.608643 232.420822,171.857346 235.664200,166.756821 
	C239.387482,160.169601 243.110764,153.582382 247.174896,146.337051 
	C251.902100,138.395523 253.486038,130.000198 250.942581,120.233925 
	C246.667847,112.142517 242.393127,104.051102 238.005203,95.239594 
	C236.738037,93.015945 235.526810,90.758102 234.192337,88.575623 
	C231.201706,83.684555 228.149765,78.830986 225.000137,73.236717 
	C221.943497,67.706863 218.886841,62.177010 215.469162,55.999645 
	C213.257568,52.332008 211.045990,48.664375 208.756790,44.301083 
	C206.211700,40.188213 203.666611,36.075344 200.840393,31.346239 
	C192.370132,21.456701 181.731262,17.593674 168.656906,17.837591 
	C140.881378,18.355774 113.087646,18.183620 85.305130,17.911146 
	C72.692802,17.787451 63.494755,23.365799 55.854355,33.635647 
	C53.624859,37.422745 51.395367,41.209846 48.854244,45.638817 
	C46.624264,49.424694 44.394283,53.210567 41.851852,57.638721 
	C39.289513,62.091553 36.727169,66.544388 33.851917,71.638054 
	C30.858969,76.736687 27.866020,81.835312 24.248234,87.261925 
	C20.220760,94.506096 16.193287,101.750267 11.839833,109.644592 
	C7.603724,116.138138 5.402193,123.172218 6.028766,131.811951 
	C7.332215,136.256088 8.635665,140.700211 10.253890,145.764969 
	C12.463539,149.524719 14.673188,153.284485 17.187653,157.684601 
	C19.179607,161.121567 21.171562,164.558533 23.248909,168.686386 
	C26.121569,173.471924 28.994228,178.257446 32.181892,183.680511 
	C35.122158,189.066635 38.062428,194.452759 40.320999,199.980316 
	C39.504128,201.335938 38.687260,202.691544 37.992737,204.768356 
	C39.717186,207.844650 41.441635,210.920959 43.237446,214.683182 
	C44.786667,217.136383 46.335888,219.589584 48.000881,222.532120 
	C48.044880,222.693848 48.088879,222.855591 48.084553,223.555542 
z"/>
<path fill="#00F292" opacity="1.000000" stroke="none" 
	d="
M56.166328,32.997276 
	C63.494755,23.365799 72.692802,17.787451 85.305130,17.911146 
	C113.087646,18.183620 140.881378,18.355774 168.656906,17.837591 
	C181.731262,17.593674 192.370132,21.456701 200.504517,31.663340 
	C156.453918,31.987011 112.739128,31.965992 69.024513,32.043591 
	C64.737907,32.051197 60.452366,32.664902 56.166328,32.997276 
z"/>
<path fill="#00F08C" opacity="1.000000" stroke="none" 
	d="
M56.010342,33.316460 
	C60.452366,32.664902 64.737907,32.051197 69.024513,32.043591 
	C112.739128,31.965992 156.453918,31.987011 200.645096,31.971455 
	C203.666611,36.075344 206.211700,40.188213 208.337585,44.649757 
	C199.793427,44.783562 191.642670,44.899345 183.550110,44.268589 
	C173.836029,43.511440 164.190857,41.418514 154.481400,41.150017 
	C135.869568,40.635349 117.233429,40.994347 98.607399,41.009846 
	C96.782234,41.011364 94.930527,40.970619 93.136284,41.244850 
	C78.560814,43.472607 64.030594,46.171944 49.165874,44.996948 
	C51.395367,41.209846 53.624859,37.422745 56.010342,33.316460 
z"/>
<path fill="#00EA81" opacity="1.000000" stroke="none" 
	d="
M215.830200,56.647156 
	C218.886841,62.177010 221.943497,67.706863 224.584930,73.608582 
	C214.397446,73.011017 203.961777,76.901619 194.753784,69.770615 
	C191.500931,65.096367 188.633072,60.545280 185.407623,56.263580 
	C184.340347,54.846802 182.351715,54.124092 180.492828,52.921814 
	C176.800232,50.816628 173.399124,48.873669 169.551071,46.775833 
	C154.338943,46.597866 139.573654,46.530842 124.808617,46.565514 
	C112.874046,46.593544 100.939766,46.744110 88.597794,46.776482 
	C83.256691,46.643261 80.083298,49.613888 76.860138,53.138359 
	C75.993744,54.109909 75.463043,55.021450 74.562027,55.968933 
	C73.192291,56.740143 71.952736,57.295326 71.240120,58.245640 
	C69.370651,60.738659 67.730919,63.403950 65.648590,66.065376 
	C61.185238,69.892212 56.205746,70.123604 50.958366,70.084404 
	C45.363106,70.042595 39.762886,70.664864 34.164829,70.997215 
	C36.727169,66.544388 39.289513,62.091553 42.466114,57.318550 
	C48.740120,56.998905 54.404961,56.852722 60.057888,57.049316 
	C64.116188,57.190456 67.409721,56.184109 70.411163,53.241375 
	C77.547920,46.244202 86.138580,43.648075 96.258858,43.852249 
	C119.387810,44.318878 142.532730,44.038464 165.670929,43.976658 
	C172.787918,43.957649 178.913422,46.074429 184.436569,50.712788 
	C187.505844,53.290382 191.203857,56.223560 194.912033,56.696899 
	C201.770889,57.572411 208.845474,56.757778 215.830200,56.647156 
z"/>
<path fill="#00ED86" opacity="1.000000" stroke="none" 
	d="
M215.649689,56.323402 
	C208.845474,56.757778 201.770889,57.572411 194.912033,56.696899 
	C191.203857,56.223560 187.505844,53.290382 184.436569,50.712788 
	C178.913422,46.074429 172.787918,43.957649 165.670929,43.976658 
	C142.532730,44.038464 119.387810,44.318878 96.258858,43.852249 
	C86.138580,43.648075 77.547920,46.244202 70.411163,53.241375 
	C67.409721,56.184109 64.116188,57.190456 60.057888,57.049316 
	C54.404961,56.852722 48.740120,56.998905 42.622341,56.997414 
	C44.394283,53.210567 46.624264,49.424694 49.010059,45.317883 
	C64.030594,46.171944 78.560814,43.472607 93.136284,41.244850 
	C94.930527,40.970619 96.782234,41.011364 98.607399,41.009846 
	C117.233429,40.994347 135.869568,40.635349 154.481400,41.150017 
	C164.190857,41.418514 173.836029,43.511440 183.550110,44.268589 
	C191.642670,44.899345 199.793427,44.783562 208.376404,44.997585 
	C211.045990,48.664375 213.257568,52.332008 215.649689,56.323402 
z"/>
<path fill="#4844E9" opacity="1.000000" stroke="none" 
	d="
M205.853638,228.995453 
	C197.284714,239.646332 186.165497,245.756500 172.520050,245.902954 
	C143.216660,246.217499 113.903328,246.292313 84.602707,245.867859 
	C71.186569,245.673523 60.064354,239.774216 52.344513,228.381073 
	C54.462803,228.405975 56.280197,228.631180 57.990211,229.186844 
	C66.006531,231.791733 73.934738,234.690170 82.026016,237.028381 
	C84.479675,237.737442 87.354958,236.987503 90.362625,236.958908 
	C91.122192,237.073349 91.556244,237.134705 92.255020,237.421844 
	C94.470818,238.467758 96.353081,239.709488 98.383919,240.040970 
	C113.788681,242.555435 129.185959,243.646637 144.880371,242.201721 
	C162.867691,240.545715 180.211090,236.683807 197.214981,230.823196 
	C199.976486,229.871429 202.968292,229.587875 205.853638,228.995453 
z"/>
<path fill="#00E36B" opacity="1.000000" stroke="none" 
	d="
M238.118393,95.959694 
	C242.393127,104.051102 246.667847,112.142517 250.430359,120.615379 
	C242.611343,120.998604 235.304520,121.000374 227.773941,120.754074 
	C223.028412,117.824425 217.461472,116.039810 214.218369,112.260872 
	C208.706787,105.838646 204.658676,98.160469 200.341263,91.069962 
	C205.197800,95.431175 210.584656,96.439537 216.673065,96.092232 
	C223.800827,95.685638 230.968201,95.973228 238.118393,95.959694 
z"/>
<path fill="#00E777" opacity="1.000000" stroke="none" 
	d="
M238.061798,95.599640 
	C230.968201,95.973228 223.800827,95.685638 216.673065,96.092232 
	C210.584656,96.439537 205.197800,95.431175 200.045853,90.874725 
	C198.269012,86.414589 197.133286,82.209587 196.215500,77.747116 
	C195.955429,74.992699 195.477402,72.495735 194.999390,69.998772 
	C203.961777,76.901619 214.397446,73.011017 224.646271,73.971298 
	C228.149765,78.830986 231.201706,83.684555 234.192337,88.575623 
	C235.526810,90.758102 236.738037,93.015945 238.061798,95.599640 
z"/>
<path fill="#00E05E" opacity="1.000000" stroke="none" 
	d="
M227.997711,121.002136 
	C235.304520,121.000374 242.611343,120.998604 250.375977,120.995064 
	C253.486038,130.000198 251.902100,138.395523 246.546753,146.667313 
	C240.451080,146.995544 234.942352,147.381622 229.535416,146.808167 
	C227.242432,146.564987 225.163040,144.308044 222.986572,142.553223 
	C223.327316,139.424911 223.668060,136.709717 224.352524,133.896484 
	C228.700836,130.282303 227.905670,125.527763 227.997711,121.002136 
z"/>
<path fill="#00E03F" opacity="1.000000" stroke="none" 
	d="
M226.836426,181.996872 
	C223.567642,187.708420 220.298843,193.419968 216.576660,199.619415 
	C213.428482,200.350967 210.733688,200.594574 207.588379,200.705963 
	C202.752121,200.662018 198.366379,200.750290 193.543549,200.705872 
	C189.730499,200.447067 186.354553,200.320953 182.996765,199.806076 
	C187.008728,192.611359 191.002518,185.805389 195.190826,179.318542 
	C197.428894,180.424759 199.453568,181.827881 201.519257,181.891113 
	C209.951492,182.149170 218.396271,181.997559 226.836426,181.996872 
z"/>
<path fill="#00E570" opacity="1.000000" stroke="none" 
	d="
M12.165815,108.994431 
	C16.193287,101.750267 20.220760,94.506096 24.908268,87.244591 
	C36.140324,86.056000 47.557999,89.961884 56.998951,81.996414 
	C57.000198,82.000450 57.002811,82.007019 56.986679,82.372063 
	C55.126984,85.847534 53.385925,89.024620 51.416168,92.052963 
	C48.358871,96.753304 45.145794,101.352310 41.602905,106.014877 
	C36.153488,106.690323 31.110504,107.447990 26.043224,107.969643 
	C21.431135,108.444450 16.792660,108.662956 12.165815,108.994431 
z"/>
<path fill="#00E051" opacity="1.000000" stroke="none" 
	d="
M222.986572,142.966339 
	C225.163040,144.308044 227.242432,146.564987 229.535416,146.808167 
	C234.942352,147.381622 240.451080,146.995544 246.376343,146.996368 
	C243.110764,153.582382 239.387482,160.169601 235.031006,166.669083 
	C227.100159,166.387085 219.766876,166.549240 212.522171,165.825089 
	C209.578735,165.530869 206.827972,163.308762 204.049667,161.626053 
	C210.241867,155.214432 216.373062,149.139725 222.513824,143.074692 
	C222.611649,142.978073 222.826385,142.999832 222.986572,142.966339 
z"/>
<path fill="#00E166" opacity="1.000000" stroke="none" 
	d="
M12.002825,109.319511 
	C16.792660,108.662956 21.431135,108.444450 26.043224,107.969643 
	C31.110504,107.447990 36.153488,106.690323 41.603271,106.348785 
	C41.999451,107.107147 41.999420,107.552200 41.937279,108.341171 
	C40.857487,110.371132 39.816578,112.043663 38.826469,113.745743 
	C35.873077,118.822899 32.939617,123.911659 29.587648,129.072495 
	C26.410126,129.432556 23.647751,129.773529 20.875551,129.986786 
	C15.976088,130.363693 11.070643,130.662857 6.167703,130.994568 
	C5.402193,123.172218 7.603724,116.138138 12.002825,109.319511 
z"/>
<path fill="#00E048" opacity="1.000000" stroke="none" 
	d="
M203.989548,161.963852 
	C206.827972,163.308762 209.578735,165.530869 212.522171,165.825089 
	C219.766876,166.549240 227.100159,166.387085 234.726288,166.843704 
	C232.420822,171.857346 229.786911,176.608643 226.994705,181.678406 
	C218.396271,181.997559 209.951492,182.149170 201.519257,181.891113 
	C199.453568,181.827881 197.428894,180.424759 195.207367,178.942596 
	C197.029602,173.161514 199.029831,168.075500 201.341064,162.940308 
	C202.431259,162.582047 203.210403,162.272949 203.989548,161.963852 
z"/>
<path fill="#474AE9" opacity="1.000000" stroke="none" 
	d="
M206.001434,228.681732 
	C202.968292,229.587875 199.976486,229.871429 197.214981,230.823196 
	C180.211090,236.683807 162.867691,240.545715 144.880371,242.201721 
	C129.185959,243.646637 113.788681,242.555435 98.383919,240.040970 
	C96.353081,239.709488 94.470818,238.467758 92.715851,237.350494 
	C97.965645,236.715286 103.019348,236.377182 108.419350,236.191864 
	C111.893692,236.480270 115.021736,236.615891 118.601906,236.838333 
	C125.689705,236.925339 132.325363,236.925522 139.264648,237.174469 
	C143.963364,237.286301 148.358444,237.149353 152.968475,237.323639 
	C155.173264,237.091446 157.163101,236.547989 159.572937,236.003204 
	C168.191162,234.216797 176.498260,232.817337 184.557831,230.541321 
	C193.105774,228.127380 201.418610,224.880936 209.834122,221.998047 
	C208.605820,224.121368 207.377518,226.244690 206.001434,228.681732 
z"/>
<path fill="#00E87B" opacity="1.000000" stroke="none" 
	d="
M56.997704,81.992371 
	C47.557999,89.961884 36.140324,86.056000 25.220684,87.080597 
	C27.866020,81.835312 30.858969,76.736687 34.008373,71.317635 
	C39.762886,70.664864 45.363106,70.042595 50.958366,70.084404 
	C56.205746,70.123604 61.185238,69.892212 65.590904,66.415482 
	C64.441399,69.112595 62.973362,71.509766 61.562431,73.940094 
	C60.013420,76.608261 58.517025,79.306969 56.997704,81.992371 
z"/>
<path fill="#00E03F" opacity="1.000000" stroke="none" 
	d="
M41.002693,199.838882 
	C38.062428,194.452759 35.122158,189.066635 32.501633,183.351303 
	C40.884968,182.347137 48.948559,181.672180 57.352524,181.062836 
	C61.468254,187.481384 65.243607,193.834305 68.567551,200.277435 
	C65.059975,200.524796 62.003811,200.681976 58.500832,200.715332 
	C52.370235,200.340652 46.686462,200.089767 41.002693,199.838882 
z"/>
<path fill="#3E63E9" opacity="1.000000" stroke="none" 
	d="
M40.661842,199.909607 
	C46.686462,200.089767 52.370235,200.340652 58.551598,201.027374 
	C59.749050,202.321365 60.287853,203.672546 61.173534,203.961868 
	C70.693512,207.071732 80.268204,210.014069 89.893730,213.448334 
	C89.915550,216.596909 89.871552,219.299393 89.418930,222.000458 
	C78.011818,218.501816 66.954208,215.177322 56.037853,211.440170 
	C49.862171,209.325958 43.918541,206.533905 37.870392,204.047150 
	C38.687260,202.691544 39.504128,201.335938 40.661842,199.909607 
z"/>
<path fill="#3E63E9" opacity="1.000000" stroke="none" 
	d="
M208.038910,200.838181 
	C210.733688,200.594574 213.428482,200.350967 216.561249,199.973022 
	C221.282028,200.789627 220.368988,203.499619 218.642578,206.667145 
	C210.673996,210.217010 203.446365,214.026611 195.778381,216.433167 
	C184.986954,219.819992 173.868973,222.166275 162.942337,224.591919 
	C163.853363,221.772018 164.712708,219.317734 166.017258,216.892639 
	C180.500778,215.281601 193.341431,209.964615 205.918762,203.916031 
	C206.893448,203.447296 207.344482,201.889679 208.038910,200.838181 
z"/>
<path fill="#00E048" opacity="1.000000" stroke="none" 
	d="
M57.012150,180.997208 
	C48.948559,181.672180 40.884968,182.347137 32.344131,183.032532 
	C28.994228,178.257446 26.121569,173.471924 23.616261,168.315063 
	C28.413145,167.628952 32.845116,167.344589 37.271442,166.989853 
	C40.859425,166.702271 44.440628,166.330109 48.362465,166.059753 
	C53.086700,170.178680 56.419693,174.822159 57.012150,180.997208 
z"/>
<path fill="#4259E9" opacity="1.000000" stroke="none" 
	d="
M37.931564,204.407745 
	C43.918541,206.533905 49.862171,209.325958 56.037853,211.440170 
	C66.954208,215.177322 78.011818,218.501816 89.485321,222.434235 
	C89.916367,224.913269 89.872398,226.957077 89.419746,228.999634 
	C80.630203,226.645081 72.168106,224.542572 63.893356,221.861771 
	C56.871933,219.586975 50.066879,216.644363 43.166080,213.997253 
	C41.441635,210.920959 39.717186,207.844650 37.931564,204.407745 
z"/>
<path fill="#00E05E" opacity="1.000000" stroke="none" 
	d="
M6.098234,131.403259 
	C11.070643,130.662857 15.976088,130.363693 20.875551,129.986786 
	C23.647751,129.773529 26.410126,129.432556 29.735790,129.399292 
	C31.528246,131.763260 32.761837,133.877060 34.000679,136.391159 
	C34.012161,137.857635 34.018398,138.923782 33.762169,140.227661 
	C30.379873,141.643173 27.346806,143.305405 24.119555,143.883362 
	C19.466692,144.716629 14.672814,144.762466 9.939115,145.144348 
	C8.635665,140.700211 7.332215,136.256088 6.098234,131.403259 
z"/>
<path fill="#00DF55" opacity="1.000000" stroke="none" 
	d="
M10.096502,145.454651 
	C14.672814,144.762466 19.466692,144.716629 24.119555,143.883362 
	C27.346806,143.305405 30.379873,141.643173 34.047455,140.408051 
	C37.072033,144.560837 39.548855,148.770966 41.710484,153.168274 
	C38.835617,154.236710 36.332146,155.587601 33.704639,155.902039 
	C28.131624,156.568985 22.493982,156.695908 16.882837,157.044235 
	C14.673188,153.284485 12.463539,149.524719 10.096502,145.454651 
z"/>
<path fill="#00E051" opacity="1.000000" stroke="none" 
	d="
M17.035244,157.364410 
	C22.493982,156.695908 28.131624,156.568985 33.704639,155.902039 
	C36.332146,155.587601 38.835617,154.236710 41.954002,153.166595 
	C42.512714,152.977722 43.000328,152.971375 43.152378,153.288361 
	C44.877899,157.735382 46.451370,161.865417 48.024837,165.995453 
	C44.440628,166.330109 40.859425,166.702271 37.271442,166.989853 
	C32.845116,167.344589 28.413145,167.628952 23.573565,167.969604 
	C21.171562,164.558533 19.179607,161.121567 17.035244,157.364410 
z"/>
<path fill="#4259E9" opacity="1.000000" stroke="none" 
	d="
M162.890640,224.957520 
	C173.868973,222.166275 184.986954,219.819992 195.778381,216.433167 
	C203.446365,214.026611 210.673996,210.217010 218.465179,207.013062 
	C217.462021,209.564407 216.091858,212.136307 214.018555,214.868896 
	C212.184509,215.218567 210.937408,215.161789 209.940094,215.633316 
	C194.329697,223.014252 177.999741,228.075394 161.001190,230.628693 
	C161.635254,228.490494 162.262939,226.723999 162.890640,224.957520 
z"/>
<path fill="#4551E9" opacity="1.000000" stroke="none" 
	d="
M160.994797,231.000412 
	C177.999741,228.075394 194.329697,223.014252 209.940094,215.633316 
	C210.937408,215.161789 212.184509,215.218567 213.714630,215.036087 
	C212.789444,217.153000 211.465027,219.263397 209.987366,221.685928 
	C201.418610,224.880936 193.105774,228.127380 184.557831,230.541321 
	C176.498260,232.817337 168.191162,234.216797 159.540146,235.655197 
	C159.723160,233.872498 160.358978,232.436462 160.994797,231.000412 
z"/>
<path fill="#4551E9" opacity="1.000000" stroke="none" 
	d="
M43.201763,214.340225 
	C50.066879,216.644363 56.871933,219.586975 63.893356,221.861771 
	C72.168106,224.542572 80.630203,226.645081 89.486702,229.424530 
	C89.918175,231.567474 89.874023,233.284256 89.460526,234.925110 
	C80.194824,232.221451 71.278503,229.658844 62.410019,226.940186 
	C57.526840,225.443222 52.724110,223.683838 47.885109,222.042786 
	C46.335888,219.589584 44.786667,217.136383 43.201763,214.340225 
z"/>
<path fill="#474AE9" opacity="1.000000" stroke="none" 
	d="
M47.942993,222.287445 
	C52.724110,223.683838 57.526840,225.443222 62.410019,226.940186 
	C71.278503,229.658844 80.194824,232.221451 89.527954,235.238159 
	C89.988853,236.053360 90.012985,236.479584 90.037117,236.905823 
	C87.354958,236.987503 84.479675,237.737442 82.026016,237.028381 
	C73.934738,234.690170 66.006531,231.791733 57.990211,229.186844 
	C56.280197,228.631180 54.462803,228.405975 52.287704,228.033691 
	C50.992378,226.933014 50.104218,225.827164 48.985348,224.219376 
	C48.594872,223.441895 48.387619,223.208527 48.132877,223.017334 
	C48.088879,222.855591 48.044880,222.693848 47.942993,222.287445 
z"/>
<path fill="#4551E9" opacity="1.000000" stroke="none" 
	d="
M48.108715,223.286438 
	C48.387619,223.208527 48.594872,223.441895 48.853722,223.930878 
	C48.663387,223.948059 48.373970,223.751801 48.108715,223.286438 
z"/>
<path fill="#EDFFF6" opacity="1.000000" stroke="none" 
	d="
M169.998032,46.930710 
	C173.399124,48.873669 176.800232,50.816628 180.523010,53.153530 
	C180.844696,53.547474 180.759933,54.007214 180.428223,54.075241 
	C178.442139,55.212807 176.678574,56.146179 175.149612,57.372135 
	C148.664276,78.608864 110.591743,79.645180 83.712746,57.354763 
	C81.883308,55.837631 79.404152,55.103951 77.180801,53.775322 
	C77.134438,53.544731 77.195831,53.078346 77.195831,53.078346 
	C80.083298,49.613888 83.256691,46.643261 88.650665,47.129112 
	C90.380310,49.013443 91.395233,50.870770 92.957054,51.890518 
	C115.016220,66.293587 137.786362,67.516983 160.966721,54.842880 
	C164.394455,52.968723 167.007874,49.605179 169.998032,46.930710 
z"/>
<path fill="#E7FFF4" opacity="1.000000" stroke="none" 
	d="
M169.551071,46.775833 
	C167.007874,49.605179 164.394455,52.968723 160.966721,54.842880 
	C137.786362,67.516983 115.016220,66.293587 92.957054,51.890518 
	C91.395233,50.870770 90.380310,49.013443 89.058228,47.192947 
	C100.939766,46.744110 112.874046,46.593544 124.808617,46.565514 
	C139.573654,46.530842 154.338943,46.597866 169.551071,46.775833 
z"/>
<path fill="#00E777" opacity="1.000000" stroke="none" 
	d="
M56.998951,81.996414 
	C58.517025,79.306969 60.013420,76.608261 61.562431,73.940094 
	C62.973362,71.509766 64.441399,69.112595 65.941956,66.350708 
	C67.730919,63.403950 69.370651,60.738659 71.240120,58.245640 
	C71.952736,57.295326 73.192291,56.740143 74.597908,56.002884 
	C75.004120,56.000885 75.076126,56.068359 75.036484,56.409855 
	C74.648399,57.797756 74.299950,58.844162 73.641449,60.050598 
	C71.941238,62.808537 70.551071,65.406456 68.979828,68.304611 
	C65.907204,73.082329 63.015659,77.559814 59.733994,82.027885 
	C58.563519,82.014664 57.783165,82.010841 57.002811,82.007019 
	C57.002811,82.007019 57.000198,82.000450 56.998951,81.996414 
z"/>
<path fill="#00E87B" opacity="1.000000" stroke="none" 
	d="
M180.759933,54.007210 
	C180.759933,54.007214 180.844696,53.547474 180.814514,53.315758 
	C182.351715,54.124092 184.340347,54.846802 185.407623,56.263580 
	C188.633072,60.545280 191.500931,65.096367 194.753769,69.770615 
	C195.477402,72.495735 195.955429,74.992699 195.866302,77.741898 
	C194.833618,77.981010 194.368103,77.967896 193.933289,77.593475 
	C190.998611,72.106537 188.033218,66.980888 185.030518,61.507595 
	C183.582138,58.775700 182.171036,56.391453 180.759933,54.007210 
z"/>
<path fill="#00E777" opacity="1.000000" stroke="none" 
	d="
M76.860138,53.138359 
	C77.195831,53.078346 77.134438,53.544731 77.035385,54.044128 
	C76.316261,55.051804 75.696190,55.560081 75.076126,56.068359 
	C75.076126,56.068359 75.004120,56.000885 74.968231,55.966938 
	C75.463043,55.021450 75.993744,54.109909 76.860138,53.138359 
z"/>
<path fill="#FBFEFC" opacity="1.000000" stroke="none" 
	d="
M90.362625,236.958893 
	C90.012985,236.479584 89.988853,236.053360 89.897293,235.314087 
	C89.874023,233.284256 89.918175,231.567474 89.895378,229.425797 
	C89.872398,226.957077 89.916367,224.913269 89.893951,222.435669 
	C89.871552,219.299393 89.915550,216.596909 89.962585,213.014130 
	C90.292076,211.127319 90.331635,209.524872 90.990044,209.207901 
	C96.592972,206.510483 109.102997,209.944382 112.954987,215.428329 
	C113.391579,217.880173 113.781601,219.939743 114.104858,222.417618 
	C113.659744,225.544861 113.281410,228.253784 112.615784,231.121643 
	C110.910004,232.866730 109.491524,234.452896 108.073044,236.039062 
	C103.019348,236.377182 97.965645,236.715286 92.451126,237.124725 
	C91.556244,237.134705 91.122192,237.073349 90.362625,236.958893 
M95.040573,223.906433 
	C95.040573,226.827530 95.040573,229.748627 95.040573,232.587173 
	C105.746887,233.728012 108.401344,231.994705 108.964668,223.169128 
	C108.997917,214.183746 105.343346,211.625107 95.171867,213.668533 
	C95.171867,216.751968 95.171867,219.874863 95.040573,223.906433 
z"/>
<path fill="#02D964" opacity="1.000000" stroke="none" 
	d="
M193.902573,77.954773 
	C194.368103,77.967896 194.833618,77.981010 195.648346,77.999359 
	C197.133286,82.209587 198.269012,86.414589 199.700150,90.814835 
	C204.658676,98.160469 208.706787,105.838646 214.218369,112.260872 
	C217.461472,116.039810 223.028412,117.824425 227.773941,120.754074 
	C227.905670,125.527763 228.700836,130.282303 224.347534,133.499268 
	C223.377441,131.465164 222.756012,129.730270 222.065582,127.631165 
	C220.709351,124.762672 219.422104,122.258392 217.893005,119.473351 
	C215.466553,118.742012 213.281937,118.291428 211.033585,117.496384 
	C206.005478,108.728249 201.041122,100.304565 196.010849,91.536263 
	C193.980560,87.519890 192.016174,83.848145 190.364899,80.087601 
	C191.752884,79.317444 192.827728,78.636108 193.902573,77.954773 
z"/>
<path fill="#10CC5B" opacity="1.000000" stroke="none" 
	d="
M222.134598,127.995369 
	C222.756012,129.730270 223.377441,131.465164 224.003845,133.597290 
	C223.668060,136.709717 223.327316,139.424911 222.986572,142.553238 
	C222.826385,142.999832 222.611649,142.978073 222.513824,143.074692 
	C216.373062,149.139725 210.241867,155.214432 204.049667,161.626053 
	C203.210403,162.272949 202.431259,162.582047 201.285416,162.645416 
	C200.587753,161.916046 200.256760,161.432388 200.002106,160.613434 
	C200.504883,159.212814 200.931320,158.147461 201.597260,156.878418 
	C202.593872,155.137604 203.350998,153.600464 204.469406,152.011642 
	C206.205902,151.680801 207.581146,151.401627 209.305115,151.040955 
	C213.226013,145.817413 216.976395,140.785858 220.270813,135.471664 
	C221.380737,133.681290 221.333084,131.173325 221.891525,128.742859 
	C222.023895,128.326736 222.079254,128.161057 222.134598,127.995369 
z"/>
<path fill="#3870EA" opacity="1.000000" stroke="none" 
	d="
M112.908409,215.036041 
	C109.102997,209.944382 96.592972,206.510483 90.990044,209.207901 
	C90.331635,209.524872 90.292076,211.127319 89.896774,212.568054 
	C80.268204,210.014069 70.693512,207.071732 61.173534,203.961868 
	C60.287853,203.672546 59.749050,202.321365 58.998421,201.151184 
	C62.003811,200.681976 65.059975,200.524796 69.039093,200.373505 
	C71.557655,200.277802 73.153275,200.176193 74.765854,200.078979 
	C74.782814,200.083359 74.822083,200.072815 75.295639,200.157318 
	C81.841759,200.199875 87.914322,200.157928 94.376961,200.221512 
	C95.829109,200.465271 96.891182,200.603500 98.127869,201.001877 
	C100.737984,202.181122 103.101845,203.468613 105.620811,203.958450 
	C119.936523,206.742310 134.378601,206.519272 148.759796,204.778656 
	C152.961395,204.270111 156.965912,202.133347 161.510071,200.636536 
	C166.967896,200.410217 171.976410,200.290283 177.405273,200.269958 
	C179.543274,200.311310 181.260941,200.253082 182.978592,200.194855 
	C186.354553,200.320953 189.730499,200.447067 193.501099,201.011505 
	C193.086426,202.219910 192.404648,203.394608 191.447678,203.696274 
	C183.546356,206.186951 175.594009,208.515839 167.720947,210.509918 
	C167.545959,209.782318 167.368759,209.212921 167.059143,209.128357 
	C161.812347,207.695526 162.383774,212.476105 160.417603,215.003723 
	C157.051834,215.336975 154.104385,215.671051 150.995270,215.660706 
	C150.046646,213.226547 149.259689,211.136765 148.411652,208.884796 
	C146.813919,209.052505 145.434158,209.197342 143.905243,209.357834 
	C144.365646,211.483627 144.743149,213.226639 144.772583,214.993347 
	C143.620926,215.674973 142.817352,216.332916 141.675598,216.993073 
	C140.886520,216.995956 140.435608,216.996628 139.652817,216.754272 
	C134.020676,216.333649 128.720428,216.156036 123.348740,215.642776 
	C123.325356,214.854599 123.373405,214.402100 123.541229,213.861893 
	C123.804192,213.632309 123.910530,213.466751 124.438004,213.173615 
	C129.504608,213.069702 134.113235,213.069702 138.721863,213.069702 
	C138.974457,212.631271 139.227066,212.192825 139.479675,211.754395 
	C138.622742,210.831009 137.795456,209.142181 136.904099,209.107651 
	C130.821854,208.872070 124.726128,208.984222 118.551971,208.984222 
	C118.330147,211.421417 118.166702,213.217117 117.578690,215.008942 
	C115.738876,215.015381 114.323647,215.025711 112.908409,215.036041 
z"/>
<path fill="#3C68EA" opacity="1.000000" stroke="none" 
	d="
M167.657120,210.893738 
	C175.594009,208.515839 183.546356,206.186951 191.447678,203.696274 
	C192.404648,203.394608 193.086426,202.219910 193.938202,201.144196 
	C198.366379,200.750290 202.752121,200.662018 207.588379,200.705963 
	C207.344482,201.889679 206.893448,203.447296 205.918762,203.916031 
	C193.341431,209.964615 180.500778,215.281601 166.125641,216.544937 
	C166.411591,214.409943 167.034363,212.651825 167.657120,210.893738 
z"/>
<path fill="#00CE3E" opacity="1.000000" stroke="none" 
	d="
M182.996765,199.806091 
	C181.260941,200.253082 179.543274,200.311310 177.524872,199.933594 
	C180.491364,193.667908 183.758621,187.838135 187.282043,181.785339 
	C191.667404,174.691101 195.796585,167.819901 199.925781,160.948715 
	C200.256760,161.432388 200.587753,161.916046 200.974396,162.694611 
	C199.029831,168.075500 197.029602,173.161514 195.012848,178.623474 
	C191.002518,185.805389 187.008728,192.611359 182.996765,199.806091 
z"/>
<path fill="#00E36B" opacity="1.000000" stroke="none" 
	d="
M56.986679,82.372063 
	C57.783165,82.010841 58.563519,82.014664 59.675858,82.382866 
	C59.282185,84.478027 58.556530,86.208801 57.533249,88.094635 
	C56.126595,90.440903 55.017570,92.632118 53.596809,95.001259 
	C52.196270,97.328148 51.107471,99.477104 49.776543,101.754929 
	C48.969147,102.592361 48.403885,103.300941 47.670441,104.182785 
	C47.303307,104.614502 47.158669,104.900436 47.064014,105.505417 
	C47.003674,106.181297 46.947678,106.565613 46.678970,106.983078 
	C46.466267,107.016228 46.045628,107.108025 45.840500,106.918343 
	C44.423374,107.151520 43.211380,107.574387 41.999390,107.997253 
	C41.999420,107.552200 41.999451,107.107147 41.999123,106.328186 
	C45.145794,101.352310 48.358871,96.753304 51.416168,92.052963 
	C53.385925,89.024620 55.126984,85.847534 56.986679,82.372063 
z"/>
<path fill="#02D964" opacity="1.000000" stroke="none" 
	d="
M41.937279,108.341171 
	C43.211380,107.574387 44.423374,107.151520 45.699749,107.233704 
	C44.787376,109.806114 43.810623,111.873482 42.539375,114.105484 
	C41.094624,116.494072 39.944370,118.718025 38.504913,121.120773 
	C37.431553,123.199547 36.647400,125.099533 35.541363,127.123779 
	C34.811462,130.162308 34.403442,133.076569 33.995430,135.990845 
	C32.761837,133.877060 31.528246,131.763260 30.146513,129.322678 
	C32.939617,123.911659 35.873077,118.822899 38.826469,113.745743 
	C39.816578,112.043663 40.857487,110.371132 41.937279,108.341171 
z"/>
<path fill="#F5F9FE" opacity="1.000000" stroke="none" 
	d="
M118.003265,215.012817 
	C118.166702,213.217117 118.330147,211.421417 118.551971,208.984222 
	C124.726128,208.984222 130.821854,208.872070 136.904099,209.107651 
	C137.795456,209.142181 138.622742,210.831009 139.479675,211.754395 
	C139.227066,212.192825 138.974457,212.631271 138.721863,213.069702 
	C134.113235,213.069702 129.504608,213.069702 124.243652,213.176758 
	C123.300896,213.446060 123.244263,213.667984 123.421448,213.949585 
	C123.373405,214.402100 123.325356,214.854599 123.266617,215.984787 
	C123.312599,217.125000 123.369270,217.587540 123.372169,218.433533 
	C126.950134,219.395996 130.573883,220.367203 134.215897,220.441391 
	C137.708755,220.512527 138.622345,221.755753 137.265808,224.837555 
	C132.410858,224.797958 128.002213,224.797958 123.630096,224.797958 
	C123.630096,227.980118 123.630096,230.360413 123.630096,233.084625 
	C129.003769,233.084625 133.980911,233.084625 138.985657,233.468079 
	C138.995834,234.876251 138.978424,235.900970 138.961029,236.925690 
	C132.325363,236.925522 125.689705,236.925339 118.635162,236.429352 
	C118.144081,234.295944 118.071877,232.658356 118.095169,230.576843 
	C118.127930,227.424179 118.065178,224.715424 118.095100,221.576141 
	C118.126274,219.101364 118.064774,217.057083 118.003265,215.012817 
z"/>
<path fill="#FBFEFC" opacity="1.000000" stroke="none" 
	d="
M167.720947,210.509918 
	C167.034363,212.651825 166.411591,214.409943 165.680450,216.515747 
	C164.712708,219.317734 163.853363,221.772018 162.942337,224.591919 
	C162.262939,226.723999 161.635254,228.490494 161.001190,230.628693 
	C160.358978,232.436462 159.723160,233.872498 159.120132,235.656555 
	C157.163101,236.547989 155.173264,237.091446 152.910889,236.975891 
	C152.009369,234.549149 151.380371,232.781418 150.693375,230.666275 
	C149.785614,228.204773 148.935867,226.090668 148.061035,223.601425 
	C147.312546,221.155777 146.589127,219.085281 145.913132,216.719269 
	C145.680588,215.939056 145.400620,215.454346 145.120651,214.969650 
	C144.743149,213.226639 144.365646,211.483627 143.905243,209.357834 
	C145.434158,209.197342 146.813919,209.052505 148.411652,208.884796 
	C149.259689,211.136765 150.046646,213.226547 150.960999,216.041061 
	C152.516998,221.219910 153.945618,225.674011 155.435959,230.320541 
	C155.953018,229.738342 156.443542,229.425018 156.576111,229.000061 
	C158.028229,224.344925 159.424469,219.672363 160.835907,215.004547 
	C162.383774,212.476105 161.812347,207.695526 167.059143,209.128357 
	C167.368759,209.212921 167.545959,209.782318 167.720947,210.509918 
z"/>
<path fill="#4551E9" opacity="1.000000" stroke="none" 
	d="
M150.751389,231.013702 
	C151.380371,232.781418 152.009369,234.549149 152.695953,236.664642 
	C148.358444,237.149353 143.963364,237.286301 139.264648,237.174469 
	C138.978424,235.900970 138.995834,234.876251 139.249451,233.188049 
	C143.240906,232.020950 146.996155,231.517334 150.751389,231.013702 
z"/>
<path fill="#4551E9" opacity="1.000000" stroke="none" 
	d="
M117.999664,231.020752 
	C118.071877,232.658356 118.144081,234.295944 118.183029,236.342529 
	C115.021736,236.615891 111.893692,236.480270 108.419350,236.191864 
	C109.491524,234.452896 110.910004,232.866730 113.040527,231.128937 
	C115.168266,230.991806 116.583969,231.006271 117.999664,231.020752 
z"/>
<path fill="#00CE3E" opacity="1.000000" stroke="none" 
	d="
M74.748886,200.074585 
	C73.153275,200.176193 71.557655,200.277802 69.490501,200.283325 
	C65.243607,193.834305 61.468254,187.481384 57.352524,181.062836 
	C56.419693,174.822159 53.086700,170.178680 48.362465,166.059753 
	C46.451370,161.865417 44.877899,157.735382 43.157394,152.728943 
	C43.239456,150.000275 43.468555,148.147980 43.888428,146.643433 
	C47.437046,152.654602 50.794891,158.318054 54.200142,164.322800 
	C58.126160,171.122696 62.004780,177.581314 65.961456,184.386490 
	C68.916199,189.790390 71.792862,194.847733 74.650314,199.965729 
	C74.631104,200.026382 74.748886,200.074585 74.748886,200.074585 
z"/>
<path fill="#10CC5B" opacity="1.000000" stroke="none" 
	d="
M43.697655,146.295700 
	C43.468555,148.147980 43.239456,150.000275 43.005341,152.411957 
	C43.000328,152.971375 42.512714,152.977722 42.269196,152.979401 
	C39.548855,148.770966 37.072033,144.560837 34.309921,140.170334 
	C34.018398,138.923782 34.012161,137.857635 34.000675,136.391159 
	C34.403442,133.076569 34.811462,130.162308 35.624428,127.371246 
	C36.080639,127.660789 36.131908,127.827126 36.116829,128.396820 
	C37.932888,133.235718 39.815296,137.671219 41.773773,142.406250 
	C42.465782,143.902405 43.081718,145.099060 43.697655,146.295700 
z"/>
<path fill="#F2FFF9" opacity="1.000000" stroke="none" 
	d="
M75.036484,56.409855 
	C75.696190,55.560081 76.316261,55.051804 77.081741,54.274719 
	C79.404152,55.103951 81.883308,55.837631 83.712746,57.354763 
	C110.591743,79.645180 148.664276,78.608864 175.149612,57.372135 
	C176.678574,56.146179 178.442139,55.212807 180.428223,54.075241 
	C182.171036,56.391453 183.582138,58.775700 184.855209,61.805202 
	C180.704147,65.369331 176.768372,68.402733 172.657227,71.176132 
	C168.190506,74.189400 163.560715,76.960915 158.538605,79.913193 
	C140.382614,79.937737 122.690048,79.886932 104.890823,79.512634 
	C103.879715,78.518379 103.069252,77.601021 102.056297,77.214912 
	C91.581062,73.222115 82.139809,67.579948 73.951500,59.890572 
	C74.299950,58.844162 74.648399,57.797756 75.036484,56.409855 
z"/>
<path fill="#FBFEFC" opacity="1.000000" stroke="none" 
	d="
M57.830875,87.939575 
	C58.556530,86.208801 59.282185,84.478027 60.065979,82.392273 
	C63.015659,77.559814 65.907204,73.082329 69.308144,68.373131 
	C77.823563,73.095383 85.829582,78.049355 93.908882,83.466660 
	C93.932098,91.617554 93.882034,99.305122 93.462662,106.974686 
	C80.039322,103.027916 68.716118,95.889793 57.830875,87.939575 
z"/>
<path fill="#F5FFFA" opacity="1.000000" stroke="none" 
	d="
M93.835609,83.003326 
	C85.829582,78.049355 77.823563,73.095383 69.489227,68.072891 
	C70.551071,65.406456 71.941238,62.808537 73.641449,60.050598 
	C82.139809,67.579948 91.581062,73.222115 102.056297,77.214912 
	C103.069252,77.601021 103.879715,78.518379 104.447227,79.585815 
	C102.281685,79.989174 100.337563,79.608391 98.656433,80.109650 
	C96.916565,80.628418 95.431900,82.003059 93.835609,83.003326 
z"/>
<path fill="#F5FFFA" opacity="1.000000" stroke="none" 
	d="
M159.002029,79.837845 
	C163.560715,76.960915 168.190506,74.189400 172.657227,71.176132 
	C176.768372,68.402733 180.704147,65.369331 184.892517,62.152855 
	C188.033218,66.980888 190.998611,72.106537 193.933289,77.593475 
	C192.827728,78.636108 191.752884,79.317444 189.895798,80.013100 
	C179.076385,79.964226 169.039200,79.901031 159.002029,79.837845 
z"/>
<path fill="#3C68EA" opacity="1.000000" stroke="none" 
	d="
M95.171867,222.997742 
	C95.171867,219.874863 95.171867,216.751968 95.171867,213.668533 
	C105.343346,211.625107 108.997917,214.183746 108.466492,223.584442 
	C103.702827,223.665756 99.437347,223.331757 95.171867,222.997742 
z"/>
<path fill="#4259E9" opacity="1.000000" stroke="none" 
	d="
M95.106216,223.452087 
	C99.437347,223.331757 103.702827,223.665756 108.397995,223.999695 
	C108.401344,231.994705 105.746887,233.728012 95.040573,232.587173 
	C95.040573,229.748627 95.040573,226.827530 95.106216,223.452087 
z"/>
<path fill="#3E63E9" opacity="1.000000" stroke="none" 
	d="
M118.095177,230.576843 
	C116.583969,231.006271 115.168266,230.991806 113.327820,230.970016 
	C113.281410,228.253784 113.659744,225.544861 114.487915,222.417694 
	C115.959297,222.001846 116.980865,222.004257 118.002426,222.006668 
	C118.065178,224.715424 118.127930,227.424179 118.095177,230.576843 
z"/>
<path fill="#3C68EA" opacity="1.000000" stroke="none" 
	d="
M118.095100,221.576141 
	C116.980865,222.004257 115.959297,222.001846 114.554680,221.999359 
	C113.781601,219.939743 113.391579,217.880173 112.954987,215.428329 
	C114.323647,215.025711 115.738876,215.015381 117.578690,215.008942 
	C118.064774,217.057083 118.126274,219.101364 118.095100,221.576141 
z"/>
<path fill="#00753A" opacity="1.000000" stroke="none" 
	d="
M158.538605,79.913193 
	C169.039200,79.901031 179.076385,79.964226 189.582672,80.101913 
	C192.016174,83.848145 193.980560,87.519890 195.785202,91.798325 
	C179.464203,104.674126 160.849869,110.863319 141.086838,113.782295 
	C134.813049,114.708923 128.232132,114.796661 121.937172,114.047096 
	C112.613510,112.936890 103.419556,110.737411 94.095711,108.669220 
	C93.958023,107.888741 93.895004,107.440720 93.831985,106.992691 
	C93.882034,99.305122 93.932098,91.617554 93.908882,83.466660 
	C95.431900,82.003059 96.916565,80.628418 98.656433,80.109650 
	C100.337563,79.608391 102.281685,79.989174 104.553879,79.909317 
	C122.690048,79.886932 140.382614,79.937737 158.538605,79.913193 
z"/>
<path fill="#DBF0E0" opacity="1.000000" stroke="none" 
	d="
M38.794121,120.941986 
	C39.944370,118.718025 41.094624,116.494072 42.894131,114.173447 
	C44.417622,114.544418 45.358452,114.919456 46.156372,115.493225 
	C66.881851,130.396820 90.009537,139.370331 115.334747,141.682770 
	C146.511383,144.529510 175.915527,138.245987 202.799850,121.704384 
	C204.098297,120.905464 204.940140,119.364441 206.413391,118.094315 
	C208.253876,117.960030 209.675598,117.900436 211.097321,117.840843 
	C213.281937,118.291428 215.466553,118.742012 217.718658,119.783188 
	C216.963928,121.183998 216.238068,122.132011 215.305328,122.784172 
	C195.045502,136.949768 172.570435,145.443726 148.161911,149.029938 
	C146.713821,149.242706 145.377396,150.215668 143.523621,150.887238 
	C133.373184,150.904480 123.688133,150.869339 113.858467,150.498886 
	C112.685364,149.768295 111.687752,149.168839 110.623825,149.007904 
	C90.291428,145.932602 71.036491,139.794098 53.314392,129.164658 
	C48.545811,126.304535 43.638012,123.676537 38.794121,120.941986 
z"/>
<path fill="#007038" opacity="1.000000" stroke="none" 
	d="
M211.033585,117.496384 
	C209.675598,117.900436 208.253876,117.960030 205.952087,118.024628 
	C200.379913,118.075294 195.687790,118.120964 190.534454,118.095947 
	C185.380341,118.072151 180.687469,118.119041 175.531067,118.094757 
	C150.146133,118.013847 125.224442,118.051987 100.303810,117.907776 
	C98.205009,117.895638 96.113289,116.660385 94.009064,115.555817 
	C94.056694,113.079399 94.113533,111.040527 94.170380,109.001663 
	C103.419556,110.737411 112.613510,112.936890 121.937172,114.047096 
	C128.232132,114.796661 134.813049,114.708923 141.086838,113.782295 
	C160.849869,110.863319 179.464203,104.674126 195.851105,92.142952 
	C201.041122,100.304565 206.005478,108.728249 211.033585,117.496384 
z"/>
<path fill="#D5EDDB" opacity="1.000000" stroke="none" 
	d="
M143.989014,150.834869 
	C145.377396,150.215668 146.713821,149.242706 148.161911,149.029938 
	C172.570435,145.443726 195.045502,136.949768 215.305328,122.784172 
	C216.238068,122.132011 216.963928,121.183998 217.960510,120.063950 
	C219.422104,122.258392 220.709351,124.762672 222.065582,127.631165 
	C222.079254,128.161057 222.023895,128.326736 221.554199,128.810867 
	C209.903244,135.014420 198.651978,140.871826 187.442474,146.808075 
	C185.208557,147.991104 183.134247,149.475510 180.520935,150.871140 
	C168.033371,150.892502 156.011185,150.863693 143.989014,150.834869 
z"/>
<path fill="#006230" opacity="1.000000" stroke="none" 
	d="
M200.002106,160.613434 
	C195.796585,167.819901 191.667404,174.691101 186.843140,181.783020 
	C177.207565,183.714844 168.285400,185.529694 159.322418,187.113449 
	C144.951309,189.652786 130.471283,190.447433 115.916092,189.189423 
	C108.656624,188.561966 101.414169,187.737625 94.093414,186.545868 
	C93.960457,182.387985 93.898117,178.686584 93.899734,174.552216 
	C94.030869,172.080338 94.098030,170.041428 94.556015,168.025269 
	C106.130569,169.365356 117.288620,171.364532 128.506058,171.787048 
	C137.696533,172.133209 147.098236,171.365067 156.149948,169.698547 
	C166.158081,167.855957 175.881927,164.455185 185.714828,161.680740 
	C190.945251,160.204941 196.144470,158.618576 201.357758,157.082123 
	C200.931320,158.147461 200.504883,159.212814 200.002106,160.613434 
z"/>
<path fill="#006732" opacity="1.000000" stroke="none" 
	d="
M201.597260,156.878433 
	C196.144470,158.618576 190.945251,160.204941 185.714828,161.680740 
	C175.881927,164.455185 166.158081,167.855957 156.149948,169.698547 
	C147.098236,171.365067 137.696533,172.133209 128.506058,171.787048 
	C117.288620,171.364532 106.130569,169.365356 94.484177,167.600403 
	C93.958755,165.433075 93.895996,163.713379 93.901939,161.551315 
	C94.050629,158.434235 94.130623,155.759552 94.487823,152.947098 
	C95.473457,152.449860 96.181892,152.090363 97.357086,151.827316 
	C133.251938,151.970291 168.680023,152.016800 204.108124,152.063309 
	C203.350998,153.600464 202.593872,155.137604 201.597260,156.878433 
z"/>
<path fill="#CEEAD5" opacity="1.000000" stroke="none" 
	d="
M180.986328,150.820953 
	C183.134247,149.475510 185.208557,147.991104 187.442474,146.808075 
	C198.651978,140.871826 209.903244,135.014420 221.477173,129.061310 
	C221.333084,131.173325 221.380737,133.681290 220.270813,135.471664 
	C216.976395,140.785858 213.226013,145.817413 208.845825,150.995331 
	C199.020645,150.961121 190.003479,150.891037 180.986328,150.820953 
z"/>
<path fill="#6BBA99" opacity="1.000000" stroke="none" 
	d="
M180.520935,150.871140 
	C190.003479,150.891037 199.020645,150.961121 208.497086,151.076828 
	C207.581146,151.401627 206.205902,151.680801 204.469391,152.011642 
	C168.680023,152.016800 133.251938,151.970291 97.700638,151.584198 
	C103.052650,151.107803 108.527863,150.970993 114.003082,150.834198 
	C123.688133,150.869339 133.373184,150.904480 143.523621,150.887253 
	C156.011185,150.863693 168.033371,150.892502 180.520935,150.871140 
z"/>
<path fill="#005D2E" opacity="1.000000" stroke="none" 
	d="
M94.164024,187.002350 
	C101.414169,187.737625 108.656624,188.561966 115.916092,189.189423 
	C130.471283,190.447433 144.951309,189.652786 159.322418,187.113449 
	C168.285400,185.529694 177.207565,183.714844 186.586945,182.006042 
	C183.758621,187.838135 180.491364,193.667908 177.104523,199.834015 
	C171.976410,200.290283 166.967896,200.410217 161.056534,200.493515 
	C148.036377,200.403015 135.918854,200.279785 123.801857,200.318802 
	C115.185295,200.346527 106.569435,200.592911 97.953262,200.741730 
	C96.891182,200.603500 95.829109,200.465271 94.379913,199.759659 
	C93.939651,196.458359 93.886513,193.724457 93.899429,190.594788 
	C94.031670,189.133469 94.097847,188.067902 94.164024,187.002350 
z"/>
<path fill="#2E7DD4" opacity="1.000000" stroke="none" 
	d="
M98.127869,201.001862 
	C106.569435,200.592911 115.185295,200.346527 123.801857,200.318802 
	C135.918854,200.279785 148.036377,200.403015 160.607208,200.599884 
	C156.965912,202.133347 152.961395,204.270111 148.759796,204.778656 
	C134.378601,206.519272 119.936523,206.742310 105.620811,203.958450 
	C103.101845,203.468613 100.737984,202.181122 98.127869,201.001862 
z"/>
<path fill="#ADDCBB" opacity="1.000000" stroke="none" 
	d="
M93.833374,190.990540 
	C93.886513,193.724457 93.939651,196.458359 93.989838,199.654129 
	C87.914322,200.157928 81.841759,200.199875 75.280151,200.109955 
	C74.791107,199.978073 74.669525,199.905060 74.669525,199.905060 
	C71.792862,194.847733 68.916199,189.790390 66.360870,184.394592 
	C75.732605,186.367584 84.782990,188.679062 93.833374,190.990540 
z"/>
<path fill="#3E63E9" opacity="1.000000" stroke="none" 
	d="
M145.865707,217.014786 
	C146.589127,219.085281 147.312546,221.155777 147.676025,223.764084 
	C144.114777,224.493637 140.913422,224.685379 137.712082,224.877136 
	C138.622345,221.755753 137.708755,220.512527 134.215897,220.441391 
	C130.573883,220.367203 126.950134,219.395996 123.811234,218.421936 
	C129.530945,217.683701 134.757828,217.340500 139.984711,216.997284 
	C140.435608,216.996628 140.886520,216.995956 142.060364,216.994568 
	C143.810760,217.000839 144.838242,217.007812 145.865707,217.014786 
z"/>
<path fill="#3E63E9" opacity="1.000000" stroke="none" 
	d="
M160.417603,215.003723 
	C159.424469,219.672363 158.028229,224.344925 156.576111,229.000061 
	C156.443542,229.425018 155.953018,229.738342 155.435959,230.320541 
	C153.945618,225.674011 152.516998,221.219910 151.122650,216.385468 
	C154.104385,215.671051 157.051834,215.336975 160.417603,215.003723 
z"/>
<path fill="#4374EB" opacity="1.000000" stroke="none" 
	d="
M139.652817,216.754272 
	C134.757828,217.340500 129.530945,217.683701 123.865005,218.038483 
	C123.369270,217.587540 123.312599,217.125000 123.338043,216.320450 
	C128.720428,216.156036 134.020676,216.333649 139.652817,216.754272 
z"/>
<path fill="#4374EB" opacity="1.000000" stroke="none" 
	d="
M145.913132,216.719269 
	C144.838242,217.007812 143.810760,217.000839 142.398529,216.992371 
	C142.817352,216.332916 143.620926,215.674973 144.772583,214.993347 
	C145.400620,215.454346 145.680588,215.939056 145.913132,216.719269 
z"/>
<path fill="#2E7DD4" opacity="1.000000" stroke="none" 
	d="
M74.650314,199.965729 
	C74.669525,199.905060 74.791107,199.978073 74.806595,200.025452 
	C74.822083,200.072815 74.782814,200.083359 74.765854,200.078979 
	C74.748886,200.074585 74.631104,200.026382 74.650314,199.965729 
z"/>
<path fill="#4374EB" opacity="1.000000" stroke="none" 
	d="
M123.541229,213.861893 
	C123.244263,213.667984 123.300896,213.446060 123.785690,213.280670 
	C123.910530,213.466751 123.804192,213.632309 123.541229,213.861893 
z"/>
<path fill="#E1F2E6" opacity="1.000000" stroke="none" 
	d="
M190.995667,118.166626 
	C195.687790,118.120964 200.379913,118.075294 205.533325,118.099304 
	C204.940140,119.364441 204.098297,120.905464 202.799850,121.704384 
	C175.915527,138.245987 146.511383,144.529510 115.334747,141.682770 
	C90.009537,139.370331 66.881851,130.396820 46.156372,115.493225 
	C45.358452,114.919456 44.417622,114.544418 43.188629,114.008820 
	C43.810623,111.873482 44.787376,109.806114 45.904877,107.423386 
	C46.045628,107.108025 46.466267,107.016228 46.980095,107.150085 
	C48.857483,108.232956 50.234062,109.163872 51.582645,110.133720 
	C71.920029,124.759460 94.761703,132.920334 119.560188,134.843277 
	C141.931763,136.578033 163.567642,132.355499 184.137497,123.292603 
	C186.682373,122.171356 188.721939,119.903275 190.995667,118.166626 
z"/>
<path fill="#ECF7F0" opacity="1.000000" stroke="none" 
	d="
M94.018288,115.993370 
	C96.113289,116.660385 98.205009,117.895638 100.303810,117.907776 
	C125.224442,118.051987 150.146133,118.013847 175.451187,118.434845 
	C174.844162,119.628578 173.970566,120.721985 172.844864,121.145882 
	C160.164352,125.920860 146.947830,128.377457 133.485077,128.908722 
	C114.833527,129.644745 96.651390,126.445816 79.712334,118.647095 
	C69.390236,113.894814 59.888756,107.360138 50.018673,101.626068 
	C51.107471,99.477104 52.196270,97.328148 53.768047,95.306351 
	C58.810783,98.724785 63.029694,102.711075 68.006569,105.151802 
	C76.424789,109.280235 85.322296,112.431343 94.018288,115.993370 
z"/>
<path fill="#E7F4EA" opacity="1.000000" stroke="none" 
	d="
M49.776543,101.754929 
	C59.888756,107.360138 69.390236,113.894814 79.712334,118.647095 
	C96.651390,126.445816 114.833527,129.644745 133.485077,128.908722 
	C146.947830,128.377457 160.164352,125.920860 172.844864,121.145882 
	C173.970566,120.721985 174.844162,119.628578 175.914703,118.506027 
	C180.687469,118.119041 185.380341,118.072151 190.534439,118.095947 
	C188.721939,119.903275 186.682373,122.171356 184.137497,123.292603 
	C163.567642,132.355499 141.931763,136.578033 119.560188,134.843277 
	C94.761703,132.920334 71.920029,124.759460 51.582645,110.133720 
	C50.234062,109.163872 48.857483,108.232956 47.192802,107.116928 
	C46.947678,106.565613 47.003674,106.181297 47.310379,105.391037 
	C47.653599,104.659897 47.746113,104.334717 47.838623,104.009529 
	C48.403885,103.300941 48.969147,102.592361 49.776543,101.754929 
z"/>
<path fill="#F3FAF5" opacity="1.000000" stroke="none" 
	d="
M94.009064,115.555817 
	C85.322296,112.431343 76.424789,109.280235 68.006569,105.151802 
	C63.029694,102.711075 58.810783,98.724785 54.079788,95.128418 
	C55.017570,92.632118 56.126595,90.440903 57.533249,88.094635 
	C68.716118,95.889793 80.039322,103.027916 93.462662,106.974686 
	C93.895004,107.440720 93.958023,107.888741 94.095711,108.669220 
	C94.113533,111.040527 94.056694,113.079399 94.009064,115.555817 
z"/>
<path fill="#02D964" opacity="1.000000" stroke="none" 
	d="
M47.670444,104.182785 
	C47.746113,104.334717 47.653599,104.659897 47.314720,105.099464 
	C47.158669,104.900436 47.303307,104.614502 47.670444,104.182785 
z"/>
<path fill="#D5EDDB" opacity="1.000000" stroke="none" 
	d="
M113.858467,150.498901 
	C108.527863,150.970993 103.052650,151.107803 97.233879,151.487732 
	C96.181892,152.090363 95.473457,152.449860 94.060410,152.927612 
	C92.195892,152.944855 90.925415,153.117844 89.892868,152.701202 
	C77.112427,147.544037 64.265900,142.529587 51.659065,136.973175 
	C46.234863,134.582489 41.326103,131.022308 36.183174,127.993454 
	C36.131908,127.827126 36.080639,127.660789 35.946312,127.246986 
	C36.647400,125.099533 37.431553,123.199547 38.504913,121.120773 
	C43.638012,123.676537 48.545811,126.304535 53.314392,129.164658 
	C71.036491,139.794098 90.291428,145.932602 110.623825,149.007904 
	C111.687752,149.168839 112.685364,149.768295 113.858467,150.498901 
z"/>
<path fill="#4259E9" opacity="1.000000" stroke="none" 
	d="
M137.265808,224.837555 
	C140.913422,224.685379 144.114777,224.493637 147.701111,224.139236 
	C148.935867,226.090668 149.785614,228.204773 150.693375,230.666290 
	C146.996155,231.517334 143.240906,232.020950 139.221863,232.804596 
	C133.980911,233.084625 129.003769,233.084625 123.630096,233.084625 
	C123.630096,230.360413 123.630096,227.980118 123.630096,224.797958 
	C128.002213,224.797958 132.410858,224.797958 137.265808,224.837555 
z"/>
<path fill="#C6E7CF" opacity="1.000000" stroke="none" 
	d="
M93.833237,161.993698 
	C93.895996,163.713379 93.958755,165.433075 94.093353,167.577637 
	C94.098030,170.041428 94.030869,172.080338 93.481918,174.556091 
	C83.334038,172.329025 73.661339,169.688705 64.005478,166.988159 
	C60.699524,166.063568 57.435772,164.988068 54.152740,163.981506 
	C50.794891,158.318054 47.437046,152.654602 43.888428,146.643433 
	C43.081718,145.099060 42.465782,143.902405 42.150620,142.429214 
	C44.538300,143.152435 46.674870,144.061050 48.704136,145.166611 
	C62.948112,152.926865 77.776413,159.102982 93.833237,161.993698 
z"/>
<path fill="#B7E0C3" opacity="1.000000" stroke="none" 
	d="
M54.200142,164.322800 
	C57.435772,164.988068 60.699524,166.063568 64.005478,166.988159 
	C73.661339,169.688705 83.334038,172.329025 93.417953,174.989059 
	C93.898117,178.686584 93.960457,182.387985 94.093414,186.545868 
	C94.097847,188.067902 94.031670,189.133469 93.899429,190.594788 
	C84.782990,188.679062 75.732605,186.367584 66.282806,184.048019 
	C62.004780,177.581314 58.126160,171.122696 54.200142,164.322800 
z"/>
<path fill="#CEEAD5" opacity="1.000000" stroke="none" 
	d="
M93.901939,161.551315 
	C77.776413,159.102982 62.948112,152.926865 48.704136,145.166611 
	C46.674870,144.061050 44.538300,143.152435 42.074547,142.129700 
	C39.815296,137.671219 37.932888,133.235718 36.116829,128.396820 
	C41.326103,131.022308 46.234863,134.582489 51.659065,136.973175 
	C64.265900,142.529587 77.112427,147.544037 89.892868,152.701202 
	C90.925415,153.117844 92.195892,152.944855 93.783211,153.065369 
	C94.130623,155.759552 94.050629,158.434235 93.901939,161.551315 
z"/>
</svg>