<!-- This Source Code Form is subject to the terms of the Mozilla Public
   - License, v. 2.0. If a copy of the MPL was not distributed with this
   - file, You can obtain one at http://mozilla.org/MPL/2.0/. -->
<svg xmlns="http://www.w3.org/2000/svg" width="14" height="16" viewBox="0 0 14 16" fill="context-fill">
	<path d="M12.6647273,4.78981818 L8.30109091,0.426181818 C8.02837421,0.153382728 7.65846518,8.23816807e-05 7.27272727,0 L5.81818182,0 L2,0 C0.8954305,2.02906125e-16 -2.13367219e-15,0.8954305 -1.99840144e-15,2 L-1.86719327e-15,8.72727273 L-1.86719327e-15,13.0909091 C-1.86719327e-15,14.6975556 1.30244436,16 2.90909091,16 L10.1818182,16 C11.7884647,16 13.0909091,14.6975556 13.0909091,13.0909091 L13.0909091,5.81818182 C13.0908267,5.43244391 12.9375264,5.06253488 12.6647273,4.78981818 Z M9.57963636,5.81818182 L7.27272727,5.81818182 L7.27272727,3.51127273 L9.57963636,5.81818182 Z M2.90909091,13.0909091 L2.90909091,2.90909091 L5.81818182,2.90909091 L5.81818182,6.54545455 C5.81818182,6.94711618 6.14379291,7.27272727 6.54545455,7.27272727 L10.1818182,7.27272727 L10.1818182,13.0909091 L2.90909091,13.0909091 Z" />
</svg>
