<!-- This Source Code Form is subject to the terms of the Mozilla Public
   - License, v. 2.0. If a copy of the MPL was not distributed with this
   - file, You can obtain one at http://mozilla.org/MPL/2.0/. -->
<svg width="10" height="7" viewBox="0 0 10 7" fill="none" xmlns="http://www.w3.org/2000/svg">
<path d="M7.146 5.146C7.09824 5.19212 7.06015 5.2473 7.03395 5.3083C7.00774 5.3693 6.99395 5.43491 6.99337 5.5013C6.9928 5.56769 7.00545 5.63353 7.03059 5.69498C7.05573 5.75642 7.09286 5.81225 7.1398 5.8592C7.18675 5.90614 7.24257 5.94327 7.30402 5.96841C7.36547 5.99355 7.43131 6.0062 7.4977 6.00562C7.56409 6.00505 7.6297 5.99126 7.6907 5.96505C7.7517 5.93885 7.80688 5.90075 7.853 5.853L9.853 3.853C9.94674 3.75924 9.99939 3.63208 9.99939 3.4995C9.99939 3.36692 9.94674 3.23976 9.853 3.146L7.853 1.146C7.7587 1.05492 7.6324 1.00452 7.5013 1.00566C7.3702 1.0068 7.24479 1.05939 7.15209 1.15209C7.05939 1.24479 7.0068 1.3702 7.00566 1.5013C7.00452 1.6324 7.05492 1.7587 7.146 1.853L8.293 3H1.5C1.36739 3 1.24021 2.94732 1.14645 2.85355C1.05268 2.75979 1 2.63261 1 2.5V0.5C1 0.367392 0.947322 0.240215 0.853553 0.146447C0.759785 0.0526785 0.632608 0 0.5 0C0.367392 0 0.240215 0.0526785 0.146447 0.146447C0.0526784 0.240215 0 0.367392 0 0.5L0 2.5C0 2.89782 0.158035 3.27936 0.43934 3.56066C0.720644 3.84196 1.10218 4 1.5 4H8.293L7.146 5.146Z" fill="#737373"/>
</svg>
