<!-- This Source Code Form is subject to the terms of the Mozilla Public
   - License, v. 2.0. If a copy of the MPL was not distributed with this
   - file, You can obtain one at http://mozilla.org/MPL/2.0/. -->
<svg width="16" height="16" viewBox="0 0 16 16" xmlns="http://www.w3.org/2000/svg" fill="#babec3">
  <path d="M6 3h3V2c0-.003-3 0-3 0-.002 0 0 1 0 1zm-5 .5c0-.276.226-.5.494-.5h12.012c.273 0 .494.232.494.5 0 .276-.226.5-.494.5H1.494C1.22 4 1 3.768 1 3.5zM5 3V2c0-.553.444-1 1-1h3c.552 0 1 .443 1 1v1H5z"/>
  <path d="M5 13h1V7H5v6zm4 0h1V7H9v6zm3-8v8.998c-.046.553-.45 1.002-1 1.002H4c-.55 0-.954-.456-1-1.002V5h9zm-5 8h1V7H7v6z"/>
</svg>
