<!-- This Source Code Form is subject to the terms of the Mozilla Public
   - License, v. 2.0. If a copy of the MPL was not distributed with this
   - file, You can obtain one at http://mozilla.org/MPL/2.0/. -->
<svg xmlns="http://www.w3.org/2000/svg" width="16" height="16" viewBox="0 0 16 16">
  <g fill="context-fill #0b0b0b">
    <rect width="3" height="10" x="11" y="3" fill-opacity=".2"/>
    <path d="M2,3.00247329 L2,3.00247329 L2,12.9975267 C2,12.9944441 2.00555363,13 2.00684547,13 L13.9931545,13 C13.9983241,13 14,12.9983304 14,12.9975267 L14,3.00247329 C14,3.00555595 13.9944464,3 13.9931545,3 L2.00684547,3 C2.00167589,3 2,3.00166957 2,3.00247329 L2,3.00247329 L2,3.00247329 L2,3.00247329 L2,3.00247329 L2,3.00247329 Z M1,3.00247329 C1,2.44882258 1.44994876,2 2.00684547,2 L13.9931545,2 C14.5492199,2 15,2.45576096 15,3.00247329 L15,12.9975267 C15,13.5511774 14.5500512,14 13.9931545,14 L2.00684547,14 C1.45078007,14 1,13.544239 1,12.9975267 L1,3.00247329 Z M10,3.45454545 L10,12.5454545 L10,13 L11,13 L11,12.5454545 L11,3.45454545 L11,3 L10,3 L10,3.45454545 Z"/>
    <polygon points="4 10.75 4 6 8.5 8.375"/>
  </g>
</svg>
