<!-- This Source Code Form is subject to the terms of the Mozilla Public
   - License, v. 2.0. If a copy of the MPL was not distributed with this
   - file, You can obtain one at http://mozilla.org/MPL/2.0/. -->
<svg xmlns="http://www.w3.org/2000/svg" viewBox="0 0 16 16" fill="#0b0b0b">
  <path d="M13.6 5H11V3.5C11 2.7 10 2 9.2 2H6.8C6 2 5 2.7 5 3.5V5H2.4C1.6 5 1 5.6 1 6.4v6.5c0 .8.6 1.1 1.4 1.1h11.2c.8 0 1.4-.3 1.4-1.1V6.4c0-.8-.6-1.4-1.4-1.4zm.4 8H2V6h4V3h4v3h3.9l.1 7z"/>
  <path d="M8 6.8c-1.3 0-2.4 1.1-2.4 2.4s1.1 2.4 2.4 2.4 2.4-1.1 2.4-2.4c0-1.3-1.1-2.4-2.4-2.4zm0 3.5c-.7 0-1.2-.5-1.2-1.1S7.3 8.1 8 8.1s1.2.5 1.2 1.1-.5 1.1-1.2 1.1z"/>
</svg>
