<!-- This Source Code Form is subject to the terms of the Mozilla Public
   - License, v. 2.0. If a copy of the MPL was not distributed with this
   - file, You can obtain one at http://mozilla.org/MPL/2.0/. -->
<svg xmlns="http://www.w3.org/2000/svg" width="16" height="16" viewBox="0 0 16 16" fill="context-fill #0c0c0d">
  <path d="M5.293.293a1 1 0 0 1 1.414 0L8.414 2H13a3 3 0 0 1 3 3v8a3 3 0 0 1-3 3H3a3 3 0 0 1-3-3V5a3 3 0 0 1 3-3h.586L5.293.293zM6 2.414L4.707 3.707A1 1 0 0 1 4 4H3c-.545 0-1 .455-1 1v8c0 .545.455 1 1 1h10c.545 0 1-.455 1-1V5c0-.545-.455-1-1-1H8a1 1 0 0 1-.707-.293L6 2.414z"/>
</svg>
