<!-- This Source Code Form is subject to the terms of the Mozilla Public
   - License, v. 2.0. If a copy of the MPL was not distributed with this
   - file, You can obtain one at http://mozilla.org/MPL/2.0/. -->
<svg xmlns="http://www.w3.org/2000/svg" width="16" height="16" viewBox="0 0 16 16" fill="context-fill #0c0c0d">
  <path d="M13 1a3 3 0 0 1 3 3v8a3 3 0 0 1-3 3H3a3 3 0 0 1-3-3V4a3 3 0 0 1 3-3h10ZM3 3c-.54 0-1 .46-1 1v8a1 1 0 0 0 1 1h10a1 1 0 0 0 1-1V4c0-.54-.46-1-1-1H3Z"/>
  <path d="M6.42 8.48a1.7 1.7 0 0 0-.1-.48 1.19 1.19 0 0 0-.6-.68c-.16-.07-.32-.1-.5-.1s-.35.03-.5.1c-.15.06-.28.15-.39.26a1.32 1.32 0 0 0-.36.9h2.45Zm-2.45.7c0 .18.02.35.08.53.05.17.13.32.23.45s.24.23.4.3c.16.08.35.12.57.12.3 0 .56-.06.74-.2.2-.13.33-.33.42-.59h1A1.98 1.98 0 0 1 6 11.31c-.23.07-.48.1-.74.1-.37 0-.7-.06-1-.18a2.06 2.06 0 0 1-1.18-1.31 3.22 3.22 0 0 1 0-1.98c.12-.3.27-.57.47-.8a2.2 2.2 0 0 1 2.7-.52c.3.16.54.36.74.62a2.73 2.73 0 0 1 .5 1.93H3.97Zm1.66-4.65h1.25L5.57 5.85H4.8l.83-1.32ZM11.96 8.48a1.7 1.7 0 0 0-.1-.48 1.19 1.19 0 0 0-.6-.68c-.16-.07-.32-.1-.5-.1s-.35.03-.5.1c-.15.06-.28.15-.39.26a1.32 1.32 0 0 0-.36.9h2.45Zm-2.45.7c0 .18.02.35.07.53.06.17.14.32.24.45.1.13.24.23.4.3.16.08.35.12.57.12.3 0 .55-.06.74-.2.19-.13.33-.33.42-.59h1a1.98 1.98 0 0 1-1.42 1.52c-.23.07-.48.1-.74.1-.38 0-.7-.06-1-.18a2.06 2.06 0 0 1-1.18-1.31 3.22 3.22 0 0 1 0-1.98c.11-.3.27-.57.47-.8a2.2 2.2 0 0 1 2.7-.52c.29.16.54.36.73.62a2.73 2.73 0 0 1 .5 1.93h-3.5Zm1.66-4.65h1.24l-1.3 1.32h-.77l.83-1.32Z"/>
</svg>
