<!-- This Source Code Form is subject to the terms of the Mozilla Public
   - License, v. 2.0. If a copy of the MPL was not distributed with this
   - file, You can obtain one at http://mozilla.org/MPL/2.0/. -->
<svg xmlns="http://www.w3.org/2000/svg" width="16" height="16" viewBox="0 0 16 16" fill="context-fill #0c0c0d">
  <path d="M0 5c0-1.1.9-2 2-2h12a2 2 0 0 1 2 2v6a2 2 0 0 1-2 2H2a2 2 0 0 1-2-2V5zm14 0H2v6h12V5z"/>
  <path d="M5 5v2.5a.5.5 0 0 1-1 0V5h1zM7 5v1.5a.5.5 0 0 1-1 0V5h1zM11 5v1.5a.5.5 0 0 1-1 0V5h1zM9 5v2.5a.5.5 0 0 1-1 0V5h1zM13 5v2.5a.5.5 0 0 1-1 0V5h1z"/>
</svg>
