<!-- This Source Code Form is subject to the terms of the Mozilla Public
   - License, v. 2.0. If a copy of the MPL was not distributed with this
   - file, You can obtain one at http://mozilla.org/MPL/2.0/. -->
<svg xmlns="http://www.w3.org/2000/svg" viewBox="0 0 16 16">
  <path fill="context-stroke" fill-opacity=".15" d="M1.5 2.5h13V9L8 7l2 6.5H1.5z"/>
  <path fill="context-fill #0d0d0d" d="M2 13h5.5a.5.5 0 1 1 0 1H2c-.55 0-1-.45-1-1V3c0-.55.45-1 1-1h12c.55 0 1 .45 1 1v3.5a.5.5 0 1 1-1 0V3H2v10z"/>
  <path fill="context-fill #0d0d0d" d="M11.893 12.307l1.414-1.414 1.8 1.8a1 1 0 0 1-1.414 1.414l-1.8-1.8zM7.05 7A.752.752 0 0 1 8 6.05l6.737 2.238a.75.75 0 0 1 .293 1.242l-4.5 4.5a.75.75 0 0 1-1.242-.293L7.05 7zm1.886.936l1.392 4.176 2.784-2.784-4.176-1.392z"/>
</svg>
