<!-- This Source Code Form is subject to the terms of the Mozilla Public
   - License, v. 2.0. If a copy of the MPL was not distributed with this
   - file, You can obtain one at http://mozilla.org/MPL/2.0/. -->
<svg xmlns="http://www.w3.org/2000/svg" viewBox="0 0 16 16" fill="#0b0b0b">
  <path d="M8.3 2.9l4.9 4.9c.2.2.5.4.8.1.2-.2.1-.5-.1-.8L11.6 5l1.8-1.8c.2-.2.4-.5.1-.8-.2-.2-.5-.1-.8.1L11 4.3l-2.1-2c-.2-.3-.5-.4-.8-.2-.2.3-.1.6.2.8zM10.4 7.4l-6.1 6-2.4.8.7-2.4 6.2-6.1-.7-.7L2 11c-.1.1-.2.3-.2.4L1 13.7s-.1.7.1 1c.3.3.9.3 1.2.2l2.3-.8c.2-.1.3-.1.4-.3L11 8l-.6-.6z"/>
  <path opacity="0.5" d="M7.1 7.1l-4.2 3.8-1.4 3.5 2.9-.6 2.8-2.7z"/>
</svg>
