<!-- This Source Code Form is subject to the terms of the Mozilla Public
   - License, v. 2.0. If a copy of the MPL was not distributed with this
   - file, You can obtain one at http://mozilla.org/MPL/2.0/. -->
<svg xmlns="http://www.w3.org/2000/svg" width="16" height="16" viewBox="0 0 16 16" fill="context-fill #0c0c0d">
  <path d="M3 3a1 1 0 0 0-1 1v10h4V8a1 1 0 0 1 1-1h7V3H3zM0 4a3 3 0 0 1 3-3h11a2 2 0 0 1 2 2v4a2 2 0 0 1-2 2H8v5a2 2 0 0 1-2 2H2a2 2 0 0 1-2-2V4z"/>
  <path d="M3.5 11H2v1h1.5a.5.5 0 0 0 0-1zM6 4.5V3H5v1.5a.5.5 0 0 0 1 0zM9 4.5V3H8v1.5a.5.5 0 0 0 1 0zM12 4.5V3h-1v1.5a.5.5 0 0 0 1 0zM3.5 8H2v1h1.5a.5.5 0 0 0 0-1zM3.5 5H2v1h1.5a.5.5 0 0 0 0-1z"/>
</svg>
