<!-- This Source Code Form is subject to the terms of the Mozilla Public
   - License, v. 2.0. If a copy of the MPL was not distributed with this
   - file, You can obtain one at http://mozilla.org/MPL/2.0/. -->
<svg xmlns="http://www.w3.org/2000/svg" viewBox="0 0 16 16" width="16" height="16">
  <path fill="context-fill" fill-rule="evenodd" d="M1.146 14.854c.748.747 1.96.747 2.708 0l6.542-6.543.897.896a1 1 0 1 0 1.414-1.414l-.9-.9 3.047-3.04a1.914 1.914 0 0 0-2.708-2.707L9.107 4.193l-.9-.9a1 1 0 0 0-1.414 1.414l.896.897-6.543 6.542a1.914 1.914 0 0 0 0 2.708zm.708-2a.914.914 0 1 0 1.292 1.292L9.69 7.604 8.396 6.31l-6.542 6.543z"/>
</svg>
