<!-- This Source Code Form is subject to the terms of the Mozilla Public
   - License, v. 2.0. If a copy of the MPL was not distributed with this
   - file, You can obtain one at http://mozilla.org/MPL/2.0/. -->
<svg xmlns="http://www.w3.org/2000/svg" viewBox="0 0 16 16" fill="context-fill #0b0b0b">
  <path d="
    M13 1a3 3 0 0 1 3 3v8a3 3 0 0 1-3 3h-10a3 3 0 0 1-3-3v-8a3 3 0 0 1 3-3h10z
    M13 3h-10a1 1 0 0 0-1 1v1h12v-1a1 1 0 0 0-1-1z
    M14 6h-12v6a1 1 0 0 0 1 1h10a1 1 0 0 0 1-1z"/>
  <path d="M4.5 7.5l2 2l-2 2" stroke="context-fill" stroke-width="1"
    stroke-linecap="round" stroke-linejoin="round" fill="none"/>
</svg>
