<!-- This Source Code Form is subject to the terms of the Mozilla Public
   - License, v. 2.0. If a copy of the MPL was not distributed with this
   - file, You can obtain one at http://mozilla.org/MPL/2.0/. -->
<svg xmlns="http://www.w3.org/2000/svg" width="16" height="16" viewBox="0 0 16 16" fill="context-fill #0c0c0d">
  <path d="M3 4a1 1 0 0 0-1 1v7a1 1 0 0 0 1 1h10a1 1 0 0 0 1-1V5a1 1 0 0 0-1-1H3zM0 5a3 3 0 0 1 3-3h10a3 3 0 0 1 3 3v7a3 3 0 0 1-3 3H3a3 3 0 0 1-3-3V5M3 2h3a1 1 0 0 0-1-1H4a1 1 0 0 0-1 1z"/>
  <path d="M8 6a2.5 2.5 0 1 0 0 5 2.5 2.5 0 0 0 0-5zM4.5 8.5a3.5 3.5 0 1 1 7 0 3.5 3.5 0 0 1-7 0z"/>
</svg>
