<!-- This Source Code Form is subject to the terms of the Mozilla Public
   - License, v. 2.0. If a copy of the MPL was not distributed with this
   - file, You can obtain one at http://mozilla.org/MPL/2.0/. -->
<svg height="16" width="16" xmlns="http://www.w3.org/2000/svg" viewBox="0 0 18 18" fill="#fbfbfb">
  <path d="M12,17c0.5,0,1-0.5,1-1v-4c0,0,0.2-0.8,0.8-0.8c0.6,0,0.6,0.8,1.8,0.8 c0.6,0,1.5-0.2,1.5-2c0-1.8-0.9-2-1.5-2c-1.1,0-1.2,0.8-1.8,0.8C13.2,8.8,13,8,13,8V6c0-0.6-0.4-1-1-1H9c0,0-0.8-0.1-0.8-0.8 S9,3.6,9,2.5C9,1.9,8.8,1,7,1S5,1.9,5,2.5c0,1.1,0.8,1.2,0.8,1.8S5,5,5,5H2C1.4,5,1,5.4,1,6l0,2.5c0,0-0.1,1.5,1.1,1.5 c0.8,0,0.9-1,1.9-1c0.5,0,1,0.5,1,1.6c0,1-0.5,1.6-1,1.6c-1,0-1.1-1-1.9-1C0.9,11,1,12.5,1,12.5L1,16c0,0.6,0.4,1,1,1h3.9 c0,0,1.5,0.1,1.5-1.1c0-0.8-1-0.9-1-1.9c0-0.5,0.7-1.2,1.8-1.2s1.9,0.7,1.9,1.2c0,1-1,1.1-1,1.9c0,1.2,1.5,1.1,1.5,1.1H12z" />
</svg>
