<!-- This Source Code Form is subject to the terms of the Mozilla Public
   - License, v. 2.0. If a copy of the MPL was not distributed with this
   - file, You can obtain one at http://mozilla.org/MPL/2.0/. -->
<svg width="32" height="16" viewBox="0 0 32 16" xmlns="http://www.w3.org/2000/svg" fill="#0b0b0b">
  <path d="M3.233 11.25l-.417 1H1.712C.763 12.25 0 11.574 0 10.747V6.503C0 5.675.755 5 1.712 5h4.127l-.417 1H1.597C1.257 6 1 6.225 1 6.503v4.244c0 .277.267.503.597.503h1.636zM7.405 11.02L7 12.056c.865.01 2.212-.024 2.315-.04.112-.016.112-.016.185-.035.075-.02.156-.046.251-.082.152-.056.349-.138.592-.244.415-.182.962-.435 1.612-.744l.138-.066a179.35 179.35 0 0 0 2.255-1.094c1.191-.546 1.191-2.074-.025-2.632l-.737-.34A3547.554 3547.554 0 0 0 9.732 5c-.029.11-.065.222-.11.336l-.232.596c.894.408 4.56 2.107 4.56 2.107.458.21.458.596 0 .806L9.197 11.02H7.405zM20.462 14.192l5-12a.5.5 0 0 0-.924-.384l-5 12a.5.5 0 0 0 .924.384zM19.233 11.25l-.417 1h-1.104c-.949 0-1.712-.676-1.712-1.503V6.503C16 5.675 16.755 5 17.712 5h4.127l-.417 1h-3.825c-.34 0-.597.225-.597.503v4.244c0 .277.267.503.597.503h1.636zM23.405 11.02L23 12.056c.865.01 2.212-.024 2.315-.04.112-.016.112-.016.185-.035.075-.02.156-.046.251-.082.152-.056.349-.138.592-.244.415-.182.962-.435 1.612-.744l.138-.066a179.35 179.35 0 0 0 2.255-1.094c1.191-.546 1.191-2.074-.025-2.632l-.737-.34A3547.554 3547.554 0 0 0 25.732 5c-.029.11-.065.222-.11.336l-.232.596c.894.408 4.56 2.107 4.56 2.107.458.21.458.596 0 .806l-4.753 2.174h-1.792z"/>
</svg>
