<!-- This Source Code Form is subject to the terms of the Mozilla Public
   - License, v. 2.0. If a copy of the MPL was not distributed with this
   - file, You can obtain one at http://mozilla.org/MPL/2.0/. -->
<svg width="16" height="16" viewBox="0 0 16 16" xmlns="http://www.w3.org/2000/svg" fill="#0b0b0b">
  <path d="M5.5 2C3.565 2 2.806 3.12 3.065 4.587c.239 1.346.117 1.76-.435 2.39l-.054.06c-.252.288-.39.474-.523.74L1.94 8l.112.224c.132.265.27.45.523.739l.054.06c.552.63.674 1.044.435 2.39C2.802 12.904 3.527 14 5.5 14a.5.5 0 1 0 0-1c-1.291 0-1.614-.487-1.45-1.413.292-1.65.081-2.37-.669-3.223l-.053-.06c-.2-.229-.296-.357-.38-.528v.448c.084-.17.18-.299.38-.528l.053-.06c.75-.854.961-1.573.67-3.223C3.89 3.515 4.24 3 5.5 3a.5.5 0 1 0 0-1zM10.5 3c1.26 0 1.609.515 1.45 1.413-.292 1.65-.081 2.37.669 3.223l.053.06c.2.229.296.357.38.528v-.448c-.084.17-.18.299-.38.528l-.053.06c-.75.854-.961 1.573-.67 3.223.165.926-.158 1.413-1.449 1.413a.5.5 0 1 0 0 1c1.973 0 2.698-1.096 2.435-2.587-.239-1.346-.117-1.76.435-2.39l.054-.06c.252-.288.39-.474.523-.74L14.06 8l-.112-.224c-.132-.265-.27-.45-.523-.739l-.054-.06c-.552-.63-.674-1.044-.435-2.39C13.194 3.12 12.435 2 10.5 2a.5.5 0 0 0 0 1z"/>
</svg>
