<!-- This Source Code Form is subject to the terms of the Mozilla Public
   - License, v. 2.0. If a copy of the MPL was not distributed with this
   - file, You can obtain one at http://mozilla.org/MPL/2.0/. -->
<svg height="16" width="16" xmlns="http://www.w3.org/2000/svg" viewBox="0 0 16 16" fill="#babec3">
  <path d="M10.2 4.1c-.6 0-1.2.2-1.8.4-.6-.4-1.4-.6-2.2-.6-2.5 0-4.6 2.1-4.6 4.6s2.1 4.6 4.6 4.6c.9 0 1.6-.2 2.3-.7.5.2 1.1.4 1.7.4 2.4 0 4.3-1.9 4.3-4.3.1-2.4-1.9-4.4-4.3-4.4zm-4 7.9c-1.9 0-3.5-1.6-3.5-3.5S4.2 5 6.2 5c.3 0 .7 0 1 .1-.8.9-1.4 2.1-1.4 3.4 0 1.3.6 2.5 1.5 3.3-.4.1-.8.2-1.1.2zm2.1-.7c-.9-.6-1.4-1.6-1.4-2.8 0-1.1.6-2.1 1.4-2.8.8.6 1.4 1.6 1.4 2.8 0 1.1-.6 2.1-1.4 2.8z"/>
  <path d="M7.6 8c-.2 0-.3-.1-.4-.2-.1-.2 0-.4.2-.5l1.1-.6c.2-.1.4 0 .5.2.1.2 0 .4-.2.5l-1.1.5c0 .1-.1.1-.1.1zM7.6 9.1c-.1 0-.3-.1-.4-.2-.1-.2 0-.4.2-.5l1.1-.6c.3-.1.5 0 .6.2.1.2 0 .4-.2.5l-1.1.6h-.2zM7.8 10.3c-.1 0-.3-.1-.4-.2-.1-.2 0-.4.2-.5L8.8 9c.2-.1.4 0 .5.2.1.2 0 .4-.2.5l-1.1.6h-.2z"/>
</svg>
