<!-- This Source Code Form is subject to the terms of the Mozilla Public
   - License, v. 2.0. If a copy of the MPL was not distributed with this
   - file, You can obtain one at http://mozilla.org/MPL/2.0/. -->
<svg xmlns="http://www.w3.org/2000/svg" width="16" height="16" viewBox="0 0 16 16" fill="whitesmoke">
  <path d="M-1.5 3.2h-9.6c-.1 0-.2.1-.2.2V13c0 .1.1.2.2.2h9.6c.1 0 .2-.1.2-.2V3.4c0-.1-.1-.2-.2-.2zm-3.6 8.9h-5V4.4h5v7.7zm3.2-.1h-2.7V4.4h2.7V12zM11.1 3.2H.9c-.3 0-.7.3-.7.7v9.2c0 .3.2.7.7.7h10.2c.3 0 .7-.3.7-.7V3.9c-.1-.6-.6-.7-.7-.7zM6.9 13H1.1V4H7v9zm4 0h-3V4h3v9z"/>
</svg>
