<!-- This Source Code Form is subject to the terms of the Mozilla Public
   - License, v. 2.0. If a copy of the MPL was not distributed with this
   - file, You can obtain one at http://mozilla.org/MPL/2.0/. -->
<svg viewBox="0 0 16 16" xmlns="http://www.w3.org/2000/svg"
  fill="context-fill #0b0b0b">
  <path d="
    M5 1a1 1 0 0 1 0 2h-2a1 1 0 0 0-1 1v8a1 1 0 0 0 1 1h10a1 1 0 0 0 1-1
    a1 1 0 0 1 2 0a3 3 0 0 1-3 3h-10a3 3 0 0 1-3-3v-8a3 3 0 0 1 3-3z
    M9 3a1 1 0 1 1 0-2h6a1 1 0 0 1 1 1v6a1 1 0 1 1-2 0v-3.586l-5.293 5.293
    a1 1 0 0 1-1.414-1.414l5.293 -5.293z"/>
</svg>
