<!-- This Source Code Form is subject to the terms of the Mozilla Public
   - License, v. 2.0. If a copy of the MPL was not distributed with this
   - file, You can obtain one at http://mozilla.org/MPL/2.0/. -->
<svg width="16" height="16" viewBox="0 0 16 16" xmlns="http://www.w3.org/2000/svg" fill="#0b0b0b">
  <path d="M13.003 1.941H6.997c.008 0 .003.004.003.008v6.102c0 .004.004.008-.003.008h6.006c-.008 0-.003-.004-.003-.008V1.949c0-.004-.004-.008.003-.008zm0-.941c.55 0 .997.43.997.95v6.1c0 .525-.453.95-.997.95H6.997C6.447 9 6 8.57 6 8.05v-6.1c0-.525.453-.95.997-.95h6.006z"/>
  <path d="M9 9.91v-.278h1v1.183c0 .516-.453.935-.997.935H2.997c-.55 0-.997-.43-.997-.95V4.7c0-.525.444-.95 1.006-.95h2.288v.941H3.006C3 4.691 3 4.691 3 4.7v6.102c0 .004.004.008-.003.008h6.006c-.004 0-.003-.001-.003.006v-.248-.657-.278h1v1.183c0 .516-.453.935-.997.935H2.997c-.55 0-.997-.43-.997-.95V4.7c0-.525.444-.95 1.006-.95h2.288v.941H3.006C3 4.691 3 4.691 3 4.7v6.102c0 .004.004.008-.003.008h6.006c-.004 0-.003-.001-.003.006v-.248-.657z"/>
  <path d="M12.52 5H6.976v1h6.046V5zM6.5 7H2.975v1H7V7z"/>
</svg>
