<!-- This Source Code Form is subject to the terms of the Mozilla Public
   - License, v. 2.0. If a copy of the MPL was not distributed with this
   - file, You can obtain one at http://mozilla.org/MPL/2.0/. -->
<svg viewBox="0 0 16 16" xmlns="http://www.w3.org/2000/svg"
  fill="context-fill #0b0b0b">
  <path d="
    M12 0a3 3 0 0 1 3 3v10a3 3 0 0 1-3 3h-8a3 3 0 0 1-3-3v-10a3 3 0 0 1 3-3h8z
    M12 2h-8a1 1 0 0 0-1 1v7h10v-7a1 1 0 0 0-1-1z
    M13 11h-10v2a1 1 0 0 0 1 1h8a1 1 0 0 0 1-1z"/>
</svg>
