<!-- This Source Code Form is subject to the terms of the Mozilla Public
   - License, v. 2.0. If a copy of the MPL was not distributed with this
   - file, You can obtain one at http://mozilla.org/MPL/2.0/. -->
<svg xmlns="http://www.w3.org/2000/svg" viewBox="0 0 12 12" width="12" height="12">
  <path fill="context-fill" d="M12 6A6 6 0 1 1 0 6a6 6 0 0 1 12 0zM5.75 8a.75.75 0 0 0-.75.75v.5c0 .41.34.75.75.75h.5c.41 0 .75-.34.75-.75v-.5A.75.75 0 0 0 6.25 8h-.5zM5 6c0 .54.46 1 1 1s1-.46 1-1V3.15c0-.54-.46-1-1-1s-1 .46-1 1V6z"/>
</svg>
