<!-- This Source Code Form is subject to the terms of the Mozilla Public
   - License, v. 2.0. If a copy of the MPL was not distributed with this
   - file, You can obtain one at http://mozilla.org/MPL/2.0/. -->
<svg version="1.0" xmlns="http://www.w3.org/2000/svg" xmlns:xlink="http://www.w3.org/1999/xlink" x="0px" y="0px"
	 width="72px" height="72px" viewBox="0 0 72 72" enable-background="new 0 0 72 72" xml:space="preserve">
<path fill="#FFD8CA" d="M30.4,61C15.5,60,7.7,54.7,0.3,41.4C0.1,41.1,0,40.7,0,40.4h8.5l0-3.2h0c0-0.2,0-0.4,0-0.6
	c0-4.9,3.9-8.8,8.8-8.8c4.9,0,8.8,3.9,8.8,8.8c0,0.2,0,0.4,0,0.6h0v15.7C26.1,56.2,27.8,59.2,30.4,61z M63.5,40.4v-3.2h0
	c0-0.2,0-0.5,0-0.7c0-4.9-3.9-8.8-8.8-8.8c-4.8,0-8.7,3.8-8.8,8.5v0.5c0,0.2,0,0.3,0,0.5h0v15.7c0,3.4-1.7,6.3-4.3,8.1
	c14.9-1,22.7-6.2,30.1-19.5c0.2-0.3,0.3-0.7,0.2-1.1H63.5z"/>
<path fill="#FF6F1F" d="M42.5,60.3c0.1,0,0.1-0.1,0.2-0.1c0.2-0.2,0.4-0.4,0.6-0.6c0.1-0.1,0.1-0.1,0.2-0.2c0.2-0.2,0.4-0.5,0.6-0.7
	c0,0,0.1-0.1,0.1-0.1c0.2-0.3,0.4-0.6,0.6-1c0,0,0,0,0,0c0.2-0.3,0.3-0.6,0.4-1c0-0.1,0.1-0.2,0.1-0.3c0.1-0.2,0.2-0.5,0.2-0.7
	c0-0.1,0.1-0.2,0.1-0.4c0.1-0.3,0.1-0.5,0.1-0.8c0-0.1,0-0.2,0.1-0.3c0-0.4,0.1-0.8,0.1-1.1v-1.2V37.1h0c0-0.2,0-0.3,0-0.5v-0.5
	c0.1-4.7,4-8.5,8.8-8.5c4.9,0,8.8,3.9,8.8,8.8c0,0.2,0,0.5,0,0.7h0v3.2H72c0-0.4-0.1-0.8-0.3-1.1c-2-3.7-4.1-7.2-6.3-10.4
	c1.6-1.2,2.9-2.8,4-4.6c3-5.2,2.8-11.3,0.1-16.2c-0.2-0.3-0.5-0.5-0.9-0.5c-5.5,0-10.4,3-13.4,8.2c-0.4,0.6-0.7,1.3-1,1.9
	C49.2,14.7,43.4,13,36,13s-13.2,1.8-18.1,4.8c-0.3-0.7-0.6-1.3-1-1.9c-3-5.2-7.9-8.2-13.4-8.2c-0.4,0-0.7,0.2-0.9,0.5
	c-2.7,4.8-2.9,11,0.1,16.2c1.1,1.8,2.4,3.3,4,4.6C4.4,32,2.3,35.5,0.3,39.3C0.1,39.6,0,40,0,40.4h8.5l0-3.2h0c0-0.2,0-0.4,0-0.6
	c0-4.9,3.9-8.8,8.8-8.8c4.9,0,8.8,3.9,8.8,8.8c0,0.2,0,0.4,0,0.6h0v14.5v1.2c0,0.4,0,0.8,0.1,1.1c0,0.1,0,0.2,0.1,0.3
	c0,0.3,0.1,0.5,0.1,0.8c0,0.1,0.1,0.2,0.1,0.4c0.1,0.3,0.2,0.5,0.2,0.7c0,0.1,0.1,0.2,0.1,0.3c0.1,0.3,0.3,0.6,0.4,1c0,0,0,0,0,0
	c0.2,0.3,0.4,0.7,0.6,1c0,0,0.1,0.1,0.1,0.1c0.2,0.3,0.4,0.5,0.6,0.7c0.1,0.1,0.1,0.1,0.2,0.2c0.2,0.2,0.4,0.4,0.6,0.6
	c0.1,0,0.1,0.1,0.2,0.1c0.3,0.2,0.6,0.5,0.9,0.7c1.6,1.1,3.5,1.7,5.6,1.7c2.1,0,4-0.6,5.6-1.7C41.9,60.8,42.2,60.6,42.5,60.3z"/>
<g>
	<path fill="#2B3B47" d="M32.9,45.7c0,0,0.4,0,1,0c0.6,0,1.3,0,2.1,0c0.8,0,1.5,0,2.1,0c0.6,0,1-0.1,1-0.1c1.2-0.1,2.3,0.8,2.4,2.1
		c0.1,0.6-0.2,1.3-0.6,1.7l-1.9,2.1c0,0-0.4,0.4-1,0.7c-0.3,0.2-0.6,0.3-1,0.4c-0.2,0.1-0.4,0.1-0.6,0.1c-0.2,0-0.4,0-0.6,0
		c-0.2,0-0.4,0-0.6,0c-0.2,0-0.4-0.1-0.6-0.1c-0.2,0-0.4-0.1-0.5-0.2c-0.2,0-0.3-0.1-0.5-0.2c-0.6-0.3-1-0.6-1-0.6l-1.8-1.8
		c-0.9-0.9-0.9-2.4,0-3.3C31.6,45.9,32.3,45.6,32.9,45.7z"/>
</g>
<path fill="#2B3B47" stroke="#2B3B47" stroke-width="1.0904" stroke-linecap="round" stroke-linejoin="round" stroke-miterlimit="10" d="
	M30.6,55c0,0,2.1,1.3,5.4,1.3s5.4-1.3,5.4-1.3s-0.3,4.9-5.4,4.9S30.6,55,30.6,55z"/>
<path fill="#2B3B47" d="M17.3,32.5c1.7,0,3,1.3,3,3v6.8c0,1.7-1.3,3-3,3l0,0c-1.7,0-3-1.3-3-3v-6.8C14.3,33.8,15.7,32.5,17.3,32.5
	L17.3,32.5z"/>
<path fill="#2B3B47" d="M54.8,32.5c1.7,0,3,1.3,3,3v6.8c0,1.7-1.3,3-3,3l0,0c-1.7,0-3-1.3-3-3v-6.8C51.8,33.8,53.1,32.5,54.8,32.5
	L54.8,32.5z"/>
<path fill="#2B3B47" d="M57.3,20.1c3.6-8,10-11.5,11.5-12.3c0,0,0-0.1,0-0.1c-0.1,0-0.2,0-0.3,0c-0.1,0-0.3,0-0.4,0
	c-0.2,0-0.4,0-0.6,0c-0.1,0-0.1,0-0.2,0c-5.1,0.4-9.5,3.3-12.3,8.1c-0.4,0.6-0.7,1.3-1,1.9C55.2,18.5,56.3,19.2,57.3,20.1z"/>
<path fill="#2B3B47" d="M14.7,20.1c1.1-0.9,2.3-1.8,3.6-2.5c-0.2-0.7-0.5-1.3-0.9-1.8c-3.1-5.2-8.6-8.1-14.2-8.1
	c-0.1,0-0.1,0.1,0,0.2C4.7,8.5,11.1,12.1,14.7,20.1z"/>
</svg>
