<!-- This Source Code Form is subject to the terms of the Mozilla Public
   - License, v. 2.0. If a copy of the MPL was not distributed with this
   - file, You can obtain one at http://mozilla.org/MPL/2.0/. -->
<svg width="16" height="16" viewBox="0 0 16 16" xmlns="http://www.w3.org/2000/svg" fill="#0b0b0b">
  <path d="M14,8 L12,8 L12,11.25 L12,12 L11.5,12 L3.5,12 L3,12 L3,11.75 L3,11.5 L3,8 L1,8 L1,8 L1,8.5 L1,9 L0,9 L0,8.5 L0,6.5 L0,6 L1,6 L1,6.5 L1,7 L3,7 L3,3.5 L3,3 L3.72222222,3 L3.72222222,3 L10.5555556,3 L11,3 L11,4 L10.5555556,4 L4,4 L4,11 L11,11 L11,3.5 L11,3 L12,3 L12,3.5 L12,7 L14,7 L14,6.5 L14,6 L15,6 L15,6.5 L15,8.5 L15,9 L14,9 L14,8.5 L14,8 Z M8,14 L8.5,14 L9,14 L9,15 L8.5,15 L6.5,15 L6,15 L6,14 L6.5,14 L7,14 L7,11.5 L7,11 L8,11 L8,11.5 L8,14 Z M7,1 L6.5,1 L6,1 L6,0 L6.5,0 L8.5,0 L9,0 L9,1 L8.5,1 L8,1 L8,3.5 L8,4 L7,4 L7,3.5 L7,1 L7,1 Z"/>
  <path d="M3.5,9 C4.32842712,9 5,8.32842712 5,7.5 C5,6.67157288 4.32842712,6 3.5,6 C2.67157288,6 2,6.67157288 2,7.5 C2,8.32842712 2.67157288,9 3.5,9 Z M7.5,13 C8.32842712,13 9,12.3284271 9,11.5 C9,10.6715729 8.32842712,10 7.5,10 C6.67157288,10 6,10.6715729 6,11.5 C6,12.3284271 6.67157288,13 7.5,13 Z M11.5,9 C12.3284271,9 13,8.32842712 13,7.5 C13,6.67157288 12.3284271,6 11.5,6 C10.6715729,6 10,6.67157288 10,7.5 C10,8.32842712 10.6715729,9 11.5,9 Z M7.5,5 C8.32842712,5 9,4.32842712 9,3.5 C9,2.67157288 8.32842712,2 7.5,2 C6.67157288,2 6,2.67157288 6,3.5 C6,4.32842712 6.67157288,5 7.5,5 Z"/>
</svg>