<!-- This Source Code Form is subject to the terms of the Mozilla Public
   - License, v. 2.0. If a copy of the MPL was not distributed with this
   - file, You can obtain one at http://mozilla.org/MPL/2.0/. -->
<svg width="16" height="16" viewBox="0 0 16 16" xmlns="http://www.w3.org/2000/svg" fill="#0b0b0b">
  <path d="M7.864 1.417c-.123-.13-.305-.185-.48-.144-.173.04-.312.172-.363.343-.05.17-.007.357.116.487l4 4.243c.19.2.506.21.707.02.2-.188.21-.505.02-.706l-4-4.243z"/>
  <path d="M7.136 1.414l-4 4.243c-.19.2-.18.518.02.707.202.19.52.18.708-.02l4-4.244c.123-.13.166-.316.115-.487-.052-.17-.19-.302-.365-.343-.174-.04-.356.014-.48.144zM1.5 8c-.276 0-.5.224-.5.5v5c0 .2.224.5.5.5h12c.276 0 .5-.3.5-.5v-5c0-.276-.224-.5-.5-.5h-3c-.28 0-.5.224-.5.5s.22.5.5.5H13v4H2V9h2.5c.27 0 .5-.224.5-.5S4.77 8 4.5 8h-3z"/>
  <path d="M7 2v9c0 .276.224.5.5.5s.5-.224.5-.5V2c0-.276-.224-.5-.5-.5S7 1.724 7 2z"/>
</svg>
