<!-- This Source Code Form is subject to the terms of the Mozilla Public
   - License, v. 2.0. If a copy of the MPL was not distributed with this
   - file, You can obtain one at http://mozilla.org/MPL/2.0/. -->
<svg xmlns="http://www.w3.org/2000/svg" width="16" height="16" viewBox="0 0 16 16" fill="#0b0b0b">
  <path d="M11 7V5.5c0-.3-.2-.5-.5-.5h-5c-.3 0-.5.2-.5.5v5c0 .3.2.5.5.5h1.9V7.5c0-.3.2-.5.5-.5H11zM3 7H.8c-.1 0-.6 0-.7-.7-.1-.2-.1-.4-.1-.6v-5C0 .5 0 .3.2.1.4 0 .6 0 .7 0h5.2c.3 0 .6 0 .8.2.2.1.3.3.3.5V3H3v4zM1 6h1V2.7c0-.2.1-.4.2-.5.3-.2.6-.2.8-.2h3V1H1v5z"/>
  <path d="M9 9h1v1H9V9zm5 1h-1V9h1v1zm-2 0h-1V9h1v1zm3-1h1v1h-1V9zm1 5h-1v-1h1v1zm0-2h-1v-1h1v1zm-1 3h1v1h-1v-1zm-1 1h-1v-1h1v1zm-2 0h-1v-1h1v1zm-3-1h1v1H9v-1zm1-1H9v-1h1v1zm0-2H9v-1h1v1z"/>
</svg>
