<!-- This Source Code Form is subject to the terms of the Mozilla Public
   - License, v. 2.0. If a copy of the MPL was not distributed with this
   - file, You can obtain one at http://mozilla.org/MPL/2.0/. -->
<svg xmlns="http://www.w3.org/2000/svg" viewBox="0 0 16 16" width="16" height="16">
  <path fill="context-fill" d="M4.56 14H12a1 1 0 0 0 1-1V8a1 1 0 0 0-1-1h-.44l-7 7zM4 7a1 1 0 0 0-1 1v4.94L8.94 7H6V6a2 2 0 0 1 3.414-1.414l1.414-1.414A4 4 0 0 0 4 6v1z"/>
  <path fill="context-stroke" d="M14.03 1.97a.75.75 0 0 1 0 1.06l-11.5 11.5a.75.75 0 0 1-1.06-1.06l11.5-11.5a.75.75 0 0 1 1.06 0z"/>
</svg>
