<!-- This Source Code Form is subject to the terms of the Mozilla Public
   - License, v. 2.0. If a copy of the MPL was not distributed with this
   - file, You can obtain one at http://mozilla.org/MPL/2.0/. -->
<svg xmlns="http://www.w3.org/2000/svg" width="16" height="16" viewBox="0 0 16 16" fill="whitesmoke">
  <path opacity="0.5" d="M10.7 3.3c0-.2-.2-.4-.4-.4H2.8c-.2 0-.4.3-.4.5s.2.5.4.5h7.5c.2 0 .4-.3.4-.5"/>
  <path d="M12.7 6.4c0-.2-.2-.4-.4-.4H4.8c-.2 0-.4.3-.4.5s.2.5.4.5h7.5c.2 0 .4-.3.4-.5"/>
  <path opacity="0.5" d="M10.7 9.3c0-.2-.2-.4-.4-.4H3.8c-.2 0-.4.3-.4.5s.2.5.4.5h6.5c.2 0 .4-.3.4-.5"/>
  <path d="M6.7 12.3c0-.2-.2-.4-.4-.4H2.8c-.2 0-.4.3-.4.5s.2.5.4.5h3.5c.2 0 .4-.3.4-.5"/>
</svg>
