<!-- This Source Code Form is subject to the terms of the Mozilla Public
   - License, v. 2.0. If a copy of the MPL was not distributed with this
   - file, You can obtain one at http://mozilla.org/MPL/2.0/. -->
<svg height="16" width="16" xmlns="http://www.w3.org/2000/svg" viewBox="0 0 16 16" fill="whitesmoke">
    <path d="M13.4 7H13V4.1c0-.7-.3-1.1-1-1.1H9V2c0-.5-.5-1-1-1s-1 .4-1 1v1H4c-.7 0-1 .4-1 1.1V7h-.4c-.5 0-1 .5-1 1s.4 1 1 1H3v2.8c0 .7.3 1.2 1 1.2h3v.8c0 .5.5 1 1 1s1-.4 1-1V13h3c.7 0 1-.3 1-1V9h.4c.5 0 1-.5 1-1s-.5-1-1-1zM11 11H5V5h6v6z"/>
</svg>