<!-- This Source Code Form is subject to the terms of the Mozilla Public
   - License, v. 2.0. If a copy of the MPL was not distributed with this
   - file, You can obtain one at http://mozilla.org/MPL/2.0/. -->
<svg xmlns="http://www.w3.org/2000/svg" width="16" height="16" viewBox="0 0 16 16" fill="context-fill #0c0c0d">
  <path d="M2.5 4a.5.5 0 0 0-.5.5v7c0 .28.22.5.5.5h7.55l3.6-4-3.6-4H2.5zM0 4.5A2.5 2.5 0 0 1 2.5 2h8a1 1 0 0 1 .74.33l4.5 5a1 1 0 0 1 0 1.34l-4.5 5a1 1 0 0 1-.74.33h-8A2.5 2.5 0 0 1 0 11.5v-7z"/>
</svg>
