<!-- This Source Code Form is subject to the terms of the Mozilla Public
   - License, v. 2.0. If a copy of the MPL was not distributed with this
   - file, You can obtain one at http://mozilla.org/MPL/2.0/. -->
<svg xmlns="http://www.w3.org/2000/svg" width="16" height="16" viewBox="0 0 16 16" fill="whitesmoke">
  <path d="M6.9 7.8c-.3.1-.6.4-.6.7-.1.5.2 1 .7 1.1.3 0 .7-.1.9-.3l2.5-2.9-3.5 1.4z"/>
  <path opacity="0.5" d="M4.7 10.6c.7 1.1 1.9 1.9 3.3 1.9s2.6-.8 3.3-1.9H4.7z"/>
  <path d="M7.9 2.3C4.6 2.3 1.8 5 1.8 8.5s2.7 6.3 6.3 6.3c3.5 0 6.3-2.7 6.3-6.3-.2-3.4-3-6.2-6.5-6.2zm0 11.4c-2.9 0-5.2-2.3-5.2-5.2v-.4h1.8c.2 0 .4-.3.4-.5s-.2-.5-.4-.5H2.9C3.2 5.9 4 4.8 5 4.1l1.4 1.4c.2.1.6.1.7-.1.1-.1.2-.5.1-.6L6 3.7c.6-.2 1.2-.4 1.9-.4.8 0 1.5.2 2.2.5L9 4.8c-.1.1 0 .5.1.6.1.1.5.2.6.1L11 4.3c.9.7 1.6 1.7 1.9 2.8h-1.6c-.2 0-.4.3-.4.5s.2.5.4.5h1.8v.4c0 3-2.2 5.2-5.2 5.2z"/>
</svg>
