<!-- This Source Code Form is subject to the terms of the Mozilla Public
   - License, v. 2.0. If a copy of the MPL was not distributed with this
   - file, You can obtain one at http://mozilla.org/MPL/2.0/. -->
<svg xmlns="http://www.w3.org/2000/svg" viewBox="0 0 16 16"
  fill="context-fill #0b0b0b">
  <path d="M7.45 15.95a1.86 1.86 0 0 1-1.86-1.86v-.89c-.3-.14-.6-.3-.89-.5l-.77.43a1.87 1.87 0 0 1-2.54-.68l-.55-.96c-.51-.88-.21-2.02.68-2.54l.77-.44a5.8 5.8 0 0 1 0-1.02l-.77-.45A1.87 1.87 0 0 1 .84 4.5l.55-.95a1.87 1.87 0 0 1 2.54-.69l.77.45c.28-.2.58-.37.89-.52v-.88C5.58.88 6.42.05 7.45.05h1.1c1.03 0 1.86.83 1.86 1.86v.89c.3.14.6.3.89.5l.77-.44a1.86 1.86 0 0 1 2.54.69l.55.95c.52.9.21 2.03-.68 2.55l-.77.44c.03.34.03.68 0 1.02l.77.44c.89.52 1.2 1.66.68 2.55l-.55.95a1.87 1.87 0 0 1-2.54.69l-.77-.45c-.29.2-.58.38-.88.52v.88c0 1.03-.84 1.86-1.87 1.86h-1.1zM5.49 11.4c.26.2.53.35.82.48l.78.34v1.87c0 .2.17.35.36.35h1.1c.2 0 .36-.16.36-.35v-1.87l.78-.34c.3-.13.57-.29.82-.48l.69-.5 1.62.93a.36.36 0 0 0 .48-.13l.56-.96a.36.36 0 0 0-.13-.48l-1.62-.94.1-.85c.03-.31.03-.63 0-.95l-.1-.85 1.62-.93c.17-.1.22-.32.13-.49l-.56-.95a.36.36 0 0 0-.48-.13l-1.62.94-.69-.51a4.27 4.27 0 0 0-.82-.48l-.78-.34V1.91c0-.2-.16-.35-.36-.35h-1.1c-.2 0-.36.16-.36.35v1.87l-.78.34c-.3.13-.57.29-.82.48l-.69.5-1.62-.93a.36.36 0 0 0-.48.13l-.56.96c-.1.16-.03.38.13.48l1.62.94-.1.85c-.03.31-.03.63 0 .95l.1.84-1.62.94a.36.36 0 0 0-.13.48l.56.96c.06.1.18.18.3.18.07 0 .13-.02.18-.05l1.62-.94.69.51z"/>
  <circle cx="8" cy="8" r="1.5" stroke-width="1"
    stroke="context-fill" fill="none"/>
</svg>
