<!-- This Source Code Form is subject to the terms of the Mozilla Public
   - License, v. 2.0. If a copy of the MPL was not distributed with this
   - file, You can obtain one at http://mozilla.org/MPL/2.0/. -->
<svg xmlns="http://www.w3.org/2000/svg" width="16" height="16" viewBox="0 0 16 16" fill="#5FC749">
  <path d="M6.9 7.8c-.3.1-.6.4-.6.7-.1.5.2 1 .7 1.1.3 0 .7-.1.9-.3l2.5-2.9-3.5 1.4z"/>
  <path opacity="0.5" d="M4.7 10.6c.7 1.1 1.9 1.9 3.3 1.9s2.6-.8 3.3-1.9H4.7z"/>
  <path d="M-12.7-2.5c-3.8 0-6.7 3-6.7 6.7s3 6.7 6.7 6.7c3.8 0 6.7-3 6.7-6.7s-2.9-6.7-6.7-6.7zM-12.8 9c-2.5 0-4.6-2.1-4.8-4.5v-.2h.6c.6 0 1-.4 1-1s-.4-1-1-1h-.4c.4-.9.8-1.4 1.5-1.9l.2.4c.3.5.8.7 1.3.4.5-.2.7-.7.4-1.2l-.2-.4c.4-.1.9-.2 1.4-.2.6 0 1.1.1 1.6.3l-.2.4c-.3.5-.1 1 .4 1.3.5.3 1 .1 1.3-.4l.2-.6c.6.6 1.2 1.5 1.4 1.8h-.4c-.6 0-1 .4-1 1s.4 1 1 1h.6v.2C-8.2 6.9-10.3 9-12.8 9zM-12.8 12.7c-3.4 0-6.2 2.7-6.2 6.2s2.7 6.3 6.3 6.3c3.5 0 6.3-2.7 6.3-6.3-.1-3.4-2.9-6.2-6.4-6.2zm0 11.4c-2.9 0-5.2-2.3-5.2-5.2 0-2.9 2.3-5.2 5.2-5.2s5.2 2.3 5.2 5.2c0 3-2.2 5.2-5.2 5.2z"/>
  <path d="M-14.5 16.3c-.2 0-.4.2-.4.4v4.5c0 .2.3.4.5.4s.5-.2.5-.4v-4.5c0-.2-.3-.4-.5-.4"/>
  <path d="M8 2.3C4.5 2.3 1.8 5 1.8 8.5s2.7 6.3 6.3 6.3c3.5 0 6.3-2.7 6.3-6.3-.2-3.4-2.9-6.2-6.4-6.2zm0 11.4c-2.9 0-5.2-2.3-5.2-5.2v-.3h1.7c.2 0 .4-.3.4-.5s-.2-.6-.4-.6H2.9C3.3 5.9 4 4.8 5 4.1l1.4 1.3c.1.1.5.1.6-.1.1-.1.2-.5.1-.6L6 3.6c.6-.2 1.3-.4 2-.4.8 0 1.5.2 2.2.5L9 4.8c-.1.1 0 .5.1.6s.5.2.6.1L11 4.3c1 .7 1.7 1.7 2 2.8h-1.7c-.2 0-.4.3-.4.5s.2.5.4.5h1.9v.3c0 3.1-2.2 5.3-5.2 5.3z"/>
</svg>
