<!-- This Source Code Form is subject to the terms of the Mozilla Public
   - License, v. 2.0. If a copy of the MPL was not distributed with this
   - file, You can obtain one at http://mozilla.org/MPL/2.0/. -->
<svg xmlns="http://www.w3.org/2000/svg" width="16" height="16" viewBox="0 0 16 16" fill="context-fill #0c0c0d">
  <path d="M0 4a3 3 0 0 1 3-3h10a3 3 0 0 1 3 3v8a3 3 0 0 1-3 3H3a3 3 0 0 1-3-3V4zm3-1a1 1 0 0 0-1 1v8a1 1 0 0 0 1 1h10a1 1 0 0 0 1-1V4a1 1 0 0 0-1-1H3z"/>
  <path d="M4.22 5.2a.62.62 0 0 1 .88.02l2.75 2.85c.23.24.23.62 0 .86L5.1 11.78a.63.63 0 0 1-.9-.86L6.53 8.5 4.2 6.08a.62.62 0 0 1 .02-.88z"/>
</svg>
