<!-- This Source Code Form is subject to the terms of the Mozilla Public
   - License, v. 2.0. If a copy of the MPL was not distributed with this
   - file, You can obtain one at http://mozilla.org/MPL/2.0/. -->
<svg xmlns="http://www.w3.org/2000/svg" width="16" height="16" viewBox="0 0 16 16" fill="whitesmoke">
  <path d="M12.3 10.8c.1-.2.2-.6.3-.6h2.1V6.8h-2.1c-.1 0-.2-.3-.3-.6l.6-.5c.2-.2.3-.3.3-.6 0-.2-.1-.4-.3-.6l-.7-.5c-.3-.3-.9-.3-1.2 0l-.4.6c-.3-.2-.6-.3-.6-.4V2.1H6.6v2.1c0 .1-.3.2-.6.3L5.6 4c-.4-.3-.9-.3-1.2 0l-.7.7c-.3.3-.3.9 0 1.2l.6.4c-.1.2-.2.5-.3.5H1.9v3.4H4c.1 0 .2.3.3.6L3 12l2 2 1-1.4c.2.1.6.2.6.3V15H10v-2.1c0-.1.3-.2.6-.3l.5.6c.3.3.9.3 1.2 0l.7-.7c.2-.2.2-.4.2-.6 0-.2-.1-.4-.3-.6l-.6-.5zm.1 1.1l-.7.7h-.1-.1l-.8-.8c-.1-.1-.3-.1-.5-.1-.3.2-.6.4-.9.4-.2 0-.2.2-.2.4V14H7.5v-1.5c0-.2 0-.3-.2-.4-.4-.1-.7-.2-1-.4-.1 0-.1-.1-.2-.1s-.2 0-.3.1l-.9 1h-.2L4 12v-.1-.1l1-1c.1-.1.1-.3.1-.5-.2-.1-.3-.3-.4-.7 0-.2-.2-.2-.4-.2H2.8V7.7h1.5c.2 0 .3 0 .4-.2.1-.4.2-.7.4-1 .1-.1.1-.3-.1-.4l-.7-.8v-.1l.7-.7h.2l.8.8c0 .1.2.1.4 0 .3-.2.5-.3.9-.4.2 0 .2-.2.2-.4V3h1.7v1.5c0 .2 0 .3.2.4.4.1.7.2 1 .4.1.1.3.1.4-.1l.8-.8h.1l.7.7v.2l-.8.8c-.1.1-.1.3-.1.5.2.3.4.6.4.9 0 .2.2.2.4.2h1.5v1.7h-1.5c-.2 0-.3 0-.4.2-.1.4-.2.7-.4 1-.1.2-.1.3.1.4l.8.8v.1z"/>
  <path d="M8.3 6C6.9 6 5.7 7.1 5.7 8.6s1.2 2.6 2.6 2.6 2.6-1.2 2.6-2.6S9.7 6 8.3 6zm0 4.4c-1 0-1.8-.8-1.8-1.8s.8-1.8 1.8-1.8 1.8.8 1.8 1.8-.8 1.8-1.8 1.8z"/>
</svg>
