<!-- This Source Code Form is subject to the terms of the Mozilla Public
   - License, v. 2.0. If a copy of the MPL was not distributed with this
   - file, You can obtain one at http://mozilla.org/MPL/2.0/. -->
<svg height="16" width="16" xmlns="http://www.w3.org/2000/svg" viewBox="0 0 16 16" fill="whitesmoke">
    <path opacity="0.2" d="M2.6 2.8l10.7 10.7-10.7-.1z"/>
    <path d="M11.4 10.5L5.9 5c-.3-.3-.8-.3-1 0-.3.3-.3.8 0 1l5.5 5.5c.1.1.3.2.5.2s.4-.1.5-.2c.2-.3.2-.7 0-1z"/>
    <path opacity="0.5" d="M11.2 4.9H9.6c-.1 0-.1 0-.1.1v1.6c0 .1.1.1.1.1h1.6c.1 0 .1-.1.1-.1V5c.1-.1 0-.1-.1-.1zM11.3 8.7H9.7s-.1 0-.1.1l1.8 1.8.1-.1V8.8c0-.1-.1-.1-.2-.1zM9.4 6.7H7.8s-.1 0-.1.1l1.8 1.8.1-.1V6.9c0-.1-.1-.2-.2-.2zM7.5 4.8H5.9s-.1 0-.1.1l1.8 1.8.1-.1V5c-.1-.1-.1-.2-.2-.2z"/>
    <path d="M14 11.9V3.6c.5-.2.9-.7.9-1.3 0-.8-.7-1.5-1.5-1.5-.7 0-1.3.5-1.4 1.2H3.9C3.8 1.3 3.2.8 2.5.8 1.7.8 1 1.5 1 2.3c0 .6.4 1.2 1 1.4v8.2c-.6.2-1 .7-1 1.4 0 .8.7 1.5 1.5 1.5.5 0 1-.3 1.3-.7h8.5c.3.4.7.7 1.3.7.8 0 1.5-.7 1.5-1.5-.2-.6-.6-1.2-1.1-1.4zM4 4h8v8H4V4z"/>
</svg>