<!-- This Source Code Form is subject to the terms of the Mozilla Public
   - License, v. 2.0. If a copy of the MPL was not distributed with this
   - file, You can obtain one at http://mozilla.org/MPL/2.0/. -->
<svg xmlns="http://www.w3.org/2000/svg" width="16px" height="16px" fill="none" stroke="context-fill #0b0b0b" stroke-width="0.8">
<path d="M8,2.7c0.7,0,1.3,0.6,1.3,1.3S8.7,5.3,8,5.3S6.7,4.7,6.7,4S7.3,2.7,8,2.7z"/>
<path d="M12,6.9H9.7v3v2.7c0,0.4-0.3,0.7-0.7,0.7S8.3,13,8.3,12.6V9.9H7.7v2.7c0,0.4-0.3,0.7-0.7,0.7S6.3,13,6.3,12.6
       V7.4V7H4C3.6,7,3.3,6.7,3.3,6.3c0-0.4,0.3-0.7,0.7-0.7h2.3h3.3H12c0.3,0,0.6,0.2,0.6,0.5C12.7,6.6,12.4,6.9,12,6.9z"/>
</svg>
