<!-- This Source Code Form is subject to the terms of the Mozilla Public
   - License, v. 2.0. If a copy of the MPL was not distributed with this
   - file, You can obtain one at http://mozilla.org/MPL/2.0/. -->
<svg height="16" width="16" xmlns="http://www.w3.org/2000/svg" viewBox="0 0 16 16" fill="whitesmoke">
    <path d="M7.9 6.8C2 6.8 2 5 2 4.6v-.9C2 2 5.6 1.6 7.9 1.6c2.3 0 6.1.4 6.1 2.1v.8c0 .5-.2 2.3-6.1 2.3z"/>
    <path d="M7.9 8.7C1.9 8.7 2 6.6 2 6.6v1.8c0 .4 0 2.3 5.8 2.3 6 0 6.2-1.9 6.2-2.3V6.8s0 1.9-6.1 1.9z"/>
    <path d="M7.9 12.4c-6 0-5.9-2.1-5.9-2.1v1.8c0 .4 0 2.3 5.8 2.3 6 0 6.2-1.9 6.2-2.3v-1.6c0-.1 0 1.9-6.1 1.9z"/>
</svg>