<!-- This Source Code Form is subject to the terms of the Mozilla Public
   - License, v. 2.0. If a copy of the MPL was not distributed with this
   - file, You can obtain one at http://mozilla.org/MPL/2.0/. -->
<svg xmlns="http://www.w3.org/2000/svg" width="16" height="16" viewBox="0 0 16 16" fill="context-fill #0c0c0d">
   <path d="M1 2a1 1 0 0 1 1-1h12a1 1 0 0 1 1 1v12a1 1 0 0 1-1 1H2a1 1 0 0 1-1-1V2zm13 0H2v12h12V2z"/>
  <path d="M3 3h2v2H3zM11 3h2v2h-2zM7 3h2v2H7zM3 7h2v2H3zM11 7h2v2h-2zM7 7h2v2H7zM5 5h2v2H5zM9 5h2v2H9zM3 11h2v2H3zM11 11h2v2h-2zM7 11h2v2H7zM5 9h2v2H5zM9 9h2v2H9z" opacity="0.5"/>
</svg>
