<!-- This Source Code Form is subject to the terms of the Mozilla Public
   - License, v. 2.0. If a copy of the MPL was not distributed with this
   - file, You can obtain one at http://mozilla.org/MPL/2.0/. -->
<svg width="16" height="16" viewBox="0 0 16 16" xmlns="http://www.w3.org/2000/svg" fill="#0b0b0b">
  <path d="M8.513 3.416v-.918A.502.502 0 0 0 8.012 2h-.999c-.273 0-.5.226-.5.498V4.07l-.6.262c-.274.12-.534.27-.775.449l-.527.39-.567-.328-.796-.46a.502.502 0 0 0-.682.185l-.5.864a.504.504 0 0 0 .182.683l.795.46.567.326-.073.65a4.055 4.055 0 0 0 0 .898l.073.65-.567.327-.795.459a.502.502 0 0 0-.181.683l.499.864c.137.237.446.32.682.185l.796-.46.567-.327.527.39c.24.177.5.328.775.448l.6.262v1.572c0 .272.225.498.5.498h.999c.273 0 .5-.226.5-.498V11.93l.6-.262c.274-.12.534-.27.775-.449l.527-.39.567.328.796.46a.502.502 0 0 0 .682-.185l.5-.864a.504.504 0 0 0-.182-.683l-.795-.46-.567-.326.073-.65a4.055 4.055 0 0 0 0-.898l-.073-.65.567-.327.795-.459a.502.502 0 0 0 .181-.683l-.499-.864a.504.504 0 0 0-.682-.185l-.796.46-.567.327-.527-.39c-.24-.177-.5-.328-.775-.448l-.6-.262v-.654zm1 0c.345.15.67.34.968.56l.796-.459a1.504 1.504 0 0 1 2.048.55l.5.865a1.502 1.502 0 0 1-.548 2.05l-.795.459a5.055 5.055 0 0 1 0 1.118l.795.46c.717.414.958 1.337.547 2.049l-.499.864a1.502 1.502 0 0 1-2.048.55l-.796-.458c-.299.22-.623.41-.968.56v.918c0 .827-.679 1.498-1.501 1.498h-.999c-.829 0-1.5-.675-1.5-1.498v-.918c-.345-.15-.67-.34-.97-.56l-.795.459a1.504 1.504 0 0 1-2.048-.55l-.5-.865a1.502 1.502 0 0 1 .548-2.05l.795-.459a5.055 5.055 0 0 1 0-1.118l-.795-.46A1.504 1.504 0 0 1 1.2 4.932l.499-.864a1.502 1.502 0 0 1 2.048-.55l.796.458c.299-.22.624-.41.969-.56v-.918c0-.827.678-1.498 1.5-1.498h.999c.829 0 1.5.675 1.5 1.498v.918z"/>
    <path d="M7.5 9a1 1 0 1 0 0-2 1 1 0 0 0 0 2zm0 1a2 2 0 1 1 0-4 2 2 0 0 1 0 4z"/>
</svg>
