<!-- This Source Code Form is subject to the terms of the Mozilla Public
   - License, v. 2.0. If a copy of the MPL was not distributed with this
   - file, You can obtain one at http://mozilla.org/MPL/2.0/. -->
<svg height="16" width="16" xmlns="http://www.w3.org/2000/svg" viewBox="0 0 40 40" fill="whitesmoke">
    <path d="M32.4 34.7c-3.9 0-5.1-6.2-6.1-13.2-.1-.5-.1-.9-.2-1.1-.1-.3-.1-.7-.2-1.3-.7-5-1.4-7.4-1.8-8.6-.5 1.2-1.1 3.7-1.7 8.6-.1.6-.1 1-.2 1.3 0 .3-.1.7-.2 1.2-.9 6.9-2.1 13.2-6 13.2s-5.1-6.2-6.1-13.2c-.1-.5-.1-.9-.2-1.1-.1-.3-.1-.7-.2-1.3-.7-5-1.4-7.4-1.8-8.6-.5 1.2-1.1 3.7-1.8 8.9-.1.4-.1.8-.1 1-.2 1.2-1.3 2-2.4 1.8-1.2-.2-2-1.3-1.8-2.4 0-.2.1-.5.1-.9C2.7 10.2 4 5.3 7.6 5.3c3.9 0 5.1 6.2 6.1 13.2.1.5.1.9.2 1.2 0 .3.1.7.2 1.3.7 5 1.4 7.4 1.8 8.7.5-1.2 1.1-3.7 1.7-8.6.1-.6.1-1 .2-1.3 0-.3.1-.7.2-1.2.9-6.9 2.1-13.2 6-13.2s5.1 6.2 6.1 13.2c.1.5.1.9.2 1.2 0 .3.1.7.2 1.3.7 5 1.4 7.4 1.8 8.6.5-1.2 1.1-3.7 1.8-8.9.1-.4.1-.8.1-1 .2-1.2 1.3-2 2.4-1.8 1.2.2 2 1.3 1.8 2.4 0 .2-.1.5-.1.9-1 8.5-2.3 13.4-5.9 13.4z"/>
</svg>