<!-- This Source Code Form is subject to the terms of the Mozilla Public
   - License, v. 2.0. If a copy of the MPL was not distributed with this
   - file, You can obtain one at http://mozilla.org/MPL/2.0/. -->
<svg height="16" width="16" xmlns="http://www.w3.org/2000/svg" viewBox="0 0 40 40" fill="whitesmoke">
    <path d="M16.3 15.4L7.7 6.9c-.3-.3-.7-.5-1.1-.5H4.3c-.7 0-1.2.4-1.5 1-.2.6-.1 1.3.4 1.8l7.4 7.4-7.1 7.1c-.5.5-.6 1.2-.4 1.8.3.6.8 1 1.5 1h2.3c.4 0 .8-.2 1.1-.5l8.3-8.3c.6-.6.6-1.6 0-2.3zM34.9 33.6H9.2c-1.3 0-2.4-1.1-2.4-2.4 0-1.3 1.1-2.4 2.4-2.4h25.7c1.3 0 2.4 1.1 2.4 2.4 0 1.3-1.1 2.4-2.4 2.4z"/>
</svg>