<!-- This Source Code Form is subject to the terms of the Mozilla Public
   - License, v. 2.0. If a copy of the MPL was not distributed with this
   - file, You can obtain one at http://mozilla.org/MPL/2.0/. -->
<svg xmlns="http://www.w3.org/2000/svg" width="16" height="16" viewBox="0 0 16 16" fill="#5FC749">
  <path opacity="0.2" d="M5.2 2.9l5.7.1v9.4H5.2V2.9z"/>
  <path d="M10.5 2.2h-5c-.4 0-.8.4-.8.9v9.2c0 .4.3.9.8.9h5c.4 0 .8-.4.8-.9V3.1s-.6-.9-.8-.9zm-.2 10H5.7v-9h4.6v9zM15.5 6.6c-.1 0-.3-.1-.4-.2l-1.5-1.7-.9.9c-.2.2-.5.2-.7 0-.2-.2-.2-.5 0-.7l1.3-1.3c.1-.1.2-.1.4-.1.1 0 .3.1.4.2l1.9 2c.2.2.2.5 0 .7-.3.2-.4.2-.5.2zM15.5 9.7c-.1 0-.3-.1-.4-.2l-1.5-1.7-.9.9c-.2.3-.5.3-.7.1-.2-.2-.2-.5 0-.7l1.3-1.2c.1-.1.2-.1.4-.1.1 0 .3.1.4.2L16 9c.2.2.2.5 0 .7h-.5zM15.5 12.7c-.1 0-.3-.1-.4-.2l-1.5-1.7-.9.9c-.2.2-.5.2-.7 0-.2-.2-.2-.5 0-.7l1.3-1.2c.1-.1.2-.1.4-.1.1 0 .3.1.4.2l1.9 2c.2.2.2.5 0 .7-.3.1-.4.1-.5.1zM.5 6.6c.1 0 .3-.1.4-.2l1.5-1.7.9.9c.2.2.5.2.7 0 .2-.2.2-.5 0-.7L2.7 3.7c-.1-.1-.2-.1-.3-.1-.2 0-.3 0-.4.1l-1.9 2c-.2.3-.1.6.1.8.1.1.2.1.3.1zM.5 9.7c.1 0 .3-.1.4-.2l1.5-1.7.9.9c.2.3.5.3.7.1.2-.2.2-.6 0-.8L2.7 6.8c-.1-.1-.2-.1-.3-.1-.2 0-.3 0-.4.1l-1.9 2c-.2.2-.2.5 0 .7.2.2.3.2.4.2zM.5 12.7c.1 0 .3-.1.4-.2l1.5-1.7.9.9c.2.3.5.3.7.1.2-.2.2-.5 0-.7L2.7 9.8c-.1-.1-.2-.1-.3-.1-.2 0-.3 0-.4.1l-1.9 2c-.2.2-.2.5 0 .7.2.2.3.2.4.2z"/>
</svg>
