<!-- This Source Code Form is subject to the terms of the Mozilla Public
   - License, v. 2.0. If a copy of the MPL was not distributed with this
   - file, You can obtain one at http://mozilla.org/MPL/2.0/. -->
<svg xmlns="http://www.w3.org/2000/svg" width="16" height="16" viewBox="0 0 16 16" fill="whitesmoke">
  <path opacity="0.2" d="M2.5 3.9l11.1 8.3-11.4.1.3-8.4z"/>
  <path d="M-8.6 9.8l-5.5-5.5c-.3-.3-.8-.3-1 0-.3.3-.3.8 0 1l5.5 5.5c.1.1.3.2.5.2s.4-.1.5-.2c.2-.3.2-.7 0-1z"/>
  <path d="M-6 11.2V2.9c.5-.2.9-.7.9-1.3C-5.1.8-5.8.1-6.6.1-7.3.1-7.9.6-8 1.3h-8.1c-.1-.7-.7-1.2-1.4-1.2-.8 0-1.5.7-1.5 1.5 0 .6.4 1.2 1 1.4v8.2c-.6.2-1 .7-1 1.4 0 .8.7 1.5 1.5 1.5.5 0 1-.3 1.3-.7h8.5c.3.4.7.7 1.3.7.8 0 1.5-.7 1.5-1.5-.2-.6-.6-1.2-1.1-1.4zm-10-7.9h8v8h-8v-8z"/>
  <circle cx="14.9" cy="2.6" r="1.1"/>
  <circle cx="1.1" cy="2.6" r="1.1"/>
  <circle cx="1.3" cy="13.5" r="1.1"/>
  <circle cx="14.9" cy="13.2" r="1.1"/>
  <path d="M13.4 2.9H2.6c-.4 0-.8.4-.8.9V12c0 .4.3.9.8.9h10.8c.4 0 .8-.4.8-.9V3.8c0-.7-.6-.9-.8-.9zm-.2 8.3L3.5 3.9h9.7v7.3zM2.8 4.6l9.6 7.3H2.8V4.6z"/>
  <path opacity="0.2" d="M8.3 4.1H6.7c-.1 0-.1.1-.1.1v1.6c0 .1.1.1.1.1h1.6c.1 0 .1-.1.1-.1V4.2c.1-.1 0-.1-.1-.1zM10.6 5.8H9c-.1 0-.1.1-.1.1v1.6c0 .1.1.1.1.1h1.6c.1 0 .1-.1.1-.1V5.9c0-.1 0-.1-.1-.1zM12.7 4.2h-1.6c-.1 0-.1.1-.1.1v1.6c0 .1.1.1.1.1h1.6c.1.1.1 0 .1-.1V4.3c0-.1 0-.1-.1-.1zM12.8 7.7h-1.6c-.1 0-.1.1-.1.1v1.6c0 .1.1.1.1.1h1.6c.1.1.1.1.1 0V7.9c0-.1 0-.2-.1-.2z"/>
</svg>
