<!-- This Source Code Form is subject to the terms of the Mozilla Public
   - License, v. 2.0. If a copy of the MPL was not distributed with this
   - file, You can obtain one at http://mozilla.org/MPL/2.0/. -->
<svg height="16" width="16" xmlns="http://www.w3.org/2000/svg" viewBox="0 0 16 16" fill="whitesmoke">
    <path d="M12.7 13c-1.5 0-2-2.3-2.3-4.9 0-.2 0-.3-.1-.4 0-.1 0-.3-.1-.5-.2-1.9-.5-2.8-.7-3.3-.1.5-.4 1.4-.6 3.3 0 .2-.1.4-.1.5 0 .1 0 .1-.1.3-.3 2.7-.7 5-2.2 5-1.5 0-2-2.3-2.3-4.9 0-.2 0-.3-.1-.4-.1-.1-.1-.3-.1-.5-.3-1.9-.5-2.8-.7-3.3-.2.5-.4 1.4-.7 3.4 0 .2 0 .3-.1.4 0 .5-.4.8-.9.7-.4-.1-.7-.5-.7-.9v-.3C1.4 3.9 1.9 2 3.3 2c1.5 0 1.9 2.4 2.3 5 0 .2 0 .3.1.4 0 .1 0 .3.1.5.3 1.9.5 2.8.7 3.3.2-.5.4-1.4.7-3.3 0-.2.1-.4.1-.5 0-.1 0-.2.1-.4.2-2.6.6-5 2.1-5s1.9 2.4 2.3 5c0 .2 0 .3.1.4 0 .1 0 .3.1.5.3 1.9.5 2.8.7 3.3.2-.5.4-1.4.7-3.4 0-.2 0-.3.1-.4.1-.4.5-.8.9-.7.4.1.8.5.7.9v.2c-.5 3.4-1 5.2-2.4 5.2z"/>
</svg>