<!-- This Source Code Form is subject to the terms of the Mozilla Public
   - License, v. 2.0. If a copy of the MPL was not distributed with this
   - file, You can obtain one at http://mozilla.org/MPL/2.0/. -->
<svg height="16" width="16" xmlns="http://www.w3.org/2000/svg" viewBox="0 0 16 16" fill="#71c054">
  <path opacity="0.2" d="M5.8 3.9l4.9.1v8.3H5.8z"/>
  <path d="M12.8 8L14 9.2c.1.1.3.2.5.2s.4-.1.5-.2c.3-.3.3-.8 0-1.1l-1.6-1.6c-.2-.2-.5-.3-.8-.2l-.6.4V5.3l.8-.3L14 6.2c.1.1.3.2.5.2s.4-.1.5-.2c.3-.3.3-.8 0-1.1l-1.6-1.6c-.2-.2-.5-.3-.8-.2l-.6.4V2.3c0-.2-.1-.3-.3-.3H4.3c-.2 0-.3.1-.3.3v1.5l-.8-.4c-.3-.1-.6-.1-.9.1L.8 5.1c-.3.3-.3.8 0 1.1.1.1.3.2.5.2s.4-.1.5-.2L3 5l1 .4v1.4l-.8-.4c-.3-.1-.6-.1-.9.1L.8 8.1c-.3.3-.3.8 0 1.1.1.1.3.2.5.2s.4-.1.5-.2L3 8l1 .4v1.4l-.8-.4c-.3-.1-.6-.1-.9.1L.7 11.1c-.3.3-.3.8 0 1.1.1.1.3.2.5.2s.4-.1.5-.2L3 11l1 .4v2.4c0 .1.1.2.3.2h7.5c.1 0 .3-.1.3-.3v-2.4l.8-.3 1.2 1.2c.1.1.3.2.5.2s.4-.1.5-.2c.3-.3.3-.8 0-1.1l-1.6-1.6c-.2-.2-.5-.3-.8-.2l-.7.4V8.3l.8-.3zM10 12H6V4h4v8z"/>
</svg>
