<!-- This Source Code Form is subject to the terms of the Mozilla Public
   - License, v. 2.0. If a copy of the MPL was not distributed with this
   - file, You can obtain one at http://mozilla.org/MPL/2.0/. -->
<svg xmlns="http://www.w3.org/2000/svg" width="16" height="16" viewBox="0 0 16 16" fill="whitesmoke">
  <path d="M13.2 3h-1.3v-.8c0-.3-.3-.6-.6-.6s-.6.3-.6.6V3H7.8v-.8c0-.3-.3-.6-.6-.6s-.7.2-.7.6V3H3.7v-.8c0-.3-.3-.6-.6-.6s-.6.2-.6.6V3H.8c-.4 0-.8.4-.8.9v10.2c0 .4.3.9.8.9h12.4c.4 0 .8-.4.8-.9V3.9s-.6-.9-.8-.9zM13 14H1V3.9h12V14z"/>
  <path d="M8.7 12.1h-6c-.3 0-.5-.2-.5-.5s.2-.5.5-.5h6c.3 0 .5.2.5.5s-.3.5-.5.5zM11.5 9.9H5.4c-.3 0-.5-.2-.5-.5s.2-.5.5-.5h6.1c.3 0 .5.2.5.5s-.2.5-.5.5zM7.7 7.8H3c-.3 0-.5-.2-.5-.5s.2-.5.5-.5h4.7c.3 0 .5.2.5.5s-.2.5-.5.5z"/>
</svg>
