<!-- This Source Code Form is subject to the terms of the Mozilla Public
   - License, v. 2.0. If a copy of the MPL was not distributed with this
   - file, You can obtain one at http://mozilla.org/MPL/2.0/. -->
<svg xmlns="http://www.w3.org/2000/svg" width="16" height="16" viewBox="0 0 16 16" fill="whitesmoke">
  <path d="M8.2 1.7C4.8 1.7 2 4.4 2 7.9s2.7 6.3 6.3 6.3c3.5 0 6.3-2.7 6.3-6.3-.1-3.4-2.9-6.2-6.4-6.2zm0 11.4C5.3 13.1 3 10.8 3 7.9 3 5 5.3 2.7 8.2 2.7c2.9 0 5.2 2.3 5.2 5.2 0 3-2.2 5.2-5.2 5.2z"/>
  <path d="M6.5 5.3c-.2 0-.4.2-.4.4v4.5c0 .2.3.4.5.4s.5-.2.5-.4V5.7c0-.2-.3-.4-.5-.4M9.5 5.3c-.2 0-.4.2-.4.4v4.5c0 .2.3.4.5.4s.5-.2.5-.4V5.7c0-.2-.3-.4-.5-.4"/>
</svg>
