<!-- This Source Code Form is subject to the terms of the Mozilla Public
   - License, v. 2.0. If a copy of the MPL was not distributed with this
   - file, You can obtain one at http://mozilla.org/MPL/2.0/. -->
<svg xmlns="http://www.w3.org/2000/svg" width="16" height="16" viewBox="0 0 16 16">
  <path fill="none" stroke="context-fill #0c0c0d" d="M4 1.5H2a.5.5 0 0 0-.5.5v2c0 .28.22.5.5.5h2a.5.5 0 0 0 .5-.5V2a.5.5 0 0 0-.5-.5zM9 1.5H7a.5.5 0 0 0-.5.5v2c0 .28.22.5.5.5h2a.5.5 0 0 0 .5-.5V2a.5.5 0 0 0-.5-.5zM14 1.5h-2a.5.5 0 0 0-.5.5v2c0 .28.22.5.5.5h2a.5.5 0 0 0 .5-.5V2a.5.5 0 0 0-.5-.5zM4 6.5H2a.5.5 0 0 0-.5.5v2c0 .28.22.5.5.5h2a.5.5 0 0 0 .5-.5V7a.5.5 0 0 0-.5-.5zM9 6.5H7a.5.5 0 0 0-.5.5v2c0 .28.22.5.5.5h2a.5.5 0 0 0 .5-.5V7a.5.5 0 0 0-.5-.5zM14 6.5h-2a.5.5 0 0 0-.5.5v2c0 .28.22.5.5.5h2a.5.5 0 0 0 .5-.5V7a.5.5 0 0 0-.5-.5zM4 11.5H2a.5.5 0 0 0-.5.5v2c0 .28.22.5.5.5h2a.5.5 0 0 0 .5-.5v-2a.5.5 0 0 0-.5-.5zM9 11.5H7a.5.5 0 0 0-.5.5v2c0 .28.22.5.5.5h2a.5.5 0 0 0 .5-.5v-2a.5.5 0 0 0-.5-.5zM14 11.5h-2a.5.5 0 0 0-.5.5v2c0 .28.22.5.5.5h2a.5.5 0 0 0 .5-.5v-2a.5.5 0 0 0-.5-.5z"/>
</svg>
