<!-- This Source Code Form is subject to the terms of the Mozilla Public
   - License, v. 2.0. If a copy of the MPL was not distributed with this
   - file, You can obtain one at http://mozilla.org/MPL/2.0/. -->
<svg height="16" width="16" xmlns="http://www.w3.org/2000/svg" viewBox="0 0 40 40" fill="whitesmoke">
    <path d="M20 4.1c-8.8 0-15.9 7-15.9 15.9s7 15.9 15.9 15.9 15.9-7 15.9-15.9S28.8 4.1 20 4.1zm0 27.2c-6.3 0-11.3-5-11.3-11.3S13.7 8.7 20 8.7s11.3 5 11.3 11.3-5 11.3-11.3 11.3z"/>
    <path d="M15.5 13.2c1.4 0 2.3.9 2.3 2.3v9.1c0 1.4-.9 2.3-2.3 2.3s-2.3-.9-2.3-2.3v-9.1c0-1.4.9-2.3 2.3-2.3zM24.5 13.2c1.4 0 2.3.9 2.3 2.3v9.1c0 1.4-.9 2.3-2.3 2.3s-2.3-.9-2.3-2.3v-9.1c.1-1.4 1-2.3 2.3-2.3z"/>
</svg>