<!-- This Source Code Form is subject to the terms of the Mozilla Public
   - License, v. 2.0. If a copy of the MPL was not distributed with this
   - file, You can obtain one at http://mozilla.org/MPL/2.0/. -->
<svg height="16" width="16" xmlns="http://www.w3.org/2000/svg" viewBox="0 0 40 40" fill="whitesmoke">
    <path opacity="0.2" d="M6.9 7.3h26l-.1 25.9-25.9-.1z"/>
    <path opacity="0.5" d="M13 8.7H9.1c-.2 0-.4.2-.4.4V13c0 .2.2.4.4.4H13c.2 0 .4-.2.4-.4V9.1c0-.2-.2-.4-.4-.4zM13 17.9H9.1c-.2 0-.4.2-.4.4v3.9c0 .2.2.4.4.4H13c.2 0 .4-.2.4-.4v-3.9c0-.2-.2-.4-.4-.4zM13 27.1H9.1c-.2 0-.4.2-.4.4v3.9c0 .2.2.4.4.4H13c.2 0 .4-.2.4-.4v-3.9c0-.3-.2-.4-.4-.4zM17.6 13.3h-3.9c-.2 0-.4.2-.4.4v3.9c0 .2.2.4.4.4h3.9c.2 0 .4-.2.4-.4v-3.9c0-.2-.2-.4-.4-.4zM17.6 22.5h-3.9c-.2 0-.4.2-.4.4v3.9c0 .2.2.4.4.4h3.9c.2 0 .4-.2.4-.4v-3.9c0-.3-.2-.4-.4-.4zM22.2 8.7h-3.9c-.2 0-.4.2-.4.4V13c0 .2.2.4.4.4h3.9c.2 0 .4-.2.4-.4V9.1c-.1-.2-.2-.4-.4-.4zM22.2 17.9h-3.9c-.2 0-.4.2-.4.4v3.9c0 .2.2.4.4.4h3.9c.2 0 .4-.2.4-.4v-3.9c-.1-.2-.2-.4-.4-.4zM22.2 27.1h-3.9c-.2 0-.4.2-.4.4v3.9c0 .2.2.4.4.4h3.9c.2 0 .4-.2.4-.4v-3.9c0-.3-.2-.4-.4-.4zM26.8 13.3h-3.9c-.2 0-.4.2-.4.4v3.9c0 .2.2.4.4.4h3.9c.2 0 .4-.2.4-.4v-3.9c-.1-.2-.2-.4-.4-.4zM26.8 22.5h-3.9c-.2 0-.4.2-.4.4v3.9c0 .2.2.4.4.4h3.9c.2 0 .4-.2.4-.4v-3.9c-.1-.3-.2-.4-.4-.4zM31.4 8.7h-3.9c-.2 0-.4.2-.4.4V13c0 .2.2.4.4.4h3.9c.2 0 .4-.2.4-.4V9.1c-.1-.2-.2-.4-.4-.4zM31.4 17.9h-3.9c-.2 0-.4.2-.4.4v3.9c0 .2.2.4.4.4h3.9c.2 0 .4-.2.4-.4v-3.9c-.1-.2-.2-.4-.4-.4zM31.4 27.1h-3.9c-.2 0-.4.2-.4.4v3.9c0 .2.2.4.4.4h3.9c.2 0 .4-.2.4-.4v-3.9c-.1-.3-.2-.4-.4-.4z"/>
    <path d="M34.1 5.3H5.9c-.4 0-.6.3-.6.6V34c0 .4.3.6.6.6h28.2c.4 0 .6-.3.6-.6V5.9c0-.3-.3-.6-.6-.6zm-2.9 25.9H9.3L9.2 9h22.1v22.2z"/>
</svg>