<!-- This Source Code Form is subject to the terms of the Mozilla Public
   - License, v. 2.0. If a copy of the MPL was not distributed with this
   - file, You can obtain one at http://mozilla.org/MPL/2.0/. -->
<svg xmlns="http://www.w3.org/2000/svg" viewBox="0 0 16 16"
  fill="context-fill #0b0b0b">
  <path fill-rule="evenodd"
    d="M8 16a1 1 0 0 1-1-1v-2.1a5 5 0 0 1-1.65-0.76
       l-1.5 1.5a1 1 0 0 1-1.5-1.5l1.5-1.5
       A5 5 0 0 1 3.1 9h-2.1a1 1 0 1 1 0-2h2.1a5 5 0 0 1 0.76-1.65
       l-1.5-1.5a1 1 0 0 1 1.5-1.5l1.5 1.5
       A5 5 0 0 1 7 3.1v-2.1a1 1 0 1 1 2 0v2.1a5 5 0 0 1 1.65 0.76
       l1.5-1.5a1 1 0 1 1 1.5 1.5l-1.5 1.5
       A5 5 0 0 1 12.9 7h2.1a1 1 0 1 1 0 2h-2.1a5 5 0 0 1-0.76 1.65
       l1.5 1.5a1 1 0 0 1-1.5 1.5l-1.5-1.5
       A5 5 0 0 1 9 12.9v2.1a1 1 0 0 1-1 1z
       M5 8a3 3 0 1 1 6 0 3 3 0 0 1-6 0z" />
</svg>
