<!DOCTYPE svg PUBLIC "-//W3C//DTD SVG 20000802//EN"
"http://www.w3.org/TR/2000/CR-SVG-20000802/DTD/svg-20000802.dtd">

<!-- ========================================================================= -->
<!-- Copyright (C) The Apache Software Foundation. All rights reserved.        -->
<!--                                                                           -->
<!-- This software is published under the terms of the Apache Software License -->
<!-- version 1.1, a copy of which has been included with this distribution in  -->
<!-- the LICENSE file.                                                         -->
<!-- ========================================================================= -->

<!-- ========================================================================= -->
<!-- Illustrates how SVG can be used for high quality graphs.                  -->
<!--                                                                           -->
<!-- @author vincent.hardy@eng.sun.com                                         -->
<!-- @version $Id: barChart.svg,v 1.1 2001/06/10 01:46:29 edburns%acm.org Exp $ -->
<!-- ========================================================================= -->

<?xml-stylesheet type="text/css" href="tests/test.css" ?>
<svg id="body" width="450" height="500" xml:space="preserve" viewBox="0 0 450 500">
    <title>Bar Chart</title>

    <g id="barChart" transform="translate(40, 100)" fill-rule="evenodd" clip-rule="evenodd" stroke="none" class="legend"
        stroke-width="1" stroke-linecap="round" stroke-linejoin="round" stroke-miterlimit="10" style="text-anchor:start">

		<g id="GridAndLegend" style="stroke:none;">
            <g stroke="black">
			<path d="M27.272,240.141l316.355,0.147"/>
			<path d="M27.272,202.845h316.355"/>
			<path d="M27.272,165.401h316.355"/>
			<path d="M27.272,127.957h316.355"/>
			<path d="M27.272,90.514l316.355,0.147"/>
			<path d="M27.272,53.07l316.355,0.147"/>
			<path d="M27.272,15.774h316.355"/>
			<path d="M27.272,240.141l316.355,0.147"/>
			<path d="M27.272,240.141l316.355,0.147"/>
			<path d="M27.272,245.448v-5.307"/>
			<path d="M106.287,245.448l0.147-5.307"/>
			<path d="M185.45,245.448v-5.307"/>
			<path d="M264.612,245.448v-5.307"/>
			<path d="M27.272,240.141V15.774"/>
			<path d="M27.272,240.141V15.774"/>
			<path d="M22.112,240.141l5.16,0.147"/>
			<path d="M22.112,202.845h5.16"/>
			<path d="M22.112,165.401h5.16"/>
			<path d="M22.112,127.957h5.16"/>
			<path d="M22.112,90.514l5.16,0.147"/>
			<path style="fill:none;" d="M22.112,53.07l5.16,0.147" />
			<path d="M22.112,15.774h5.16" />
            </g>

			<text transform="matrix(1 0 0 1 54.0181 256.1836)">Shoe</text>
			<text transform="matrix(1 0 0 1 142.0815 256.1836)">Car</text>
			<text transform="matrix(1 0 0 1 211.1733 256.1836)">Travel</text>
			<text transform="matrix(1 0 0 1 285.7813 256.1836)">Computer</text>
			<text transform="matrix(1 0 0 1 13.1763 247.1855)"><tspan x="0" y="0">0</tspan></text>
			<text transform="matrix(1 0 0 1 6.9829 209.4468)"><tspan x="0" y="0">1</tspan><tspan x="6.193" y="0">0</tspan></text>
			<text transform="matrix(1 0 0 1 6.9829 171.561)"><tspan x="0" y="0">2</tspan><tspan x="6.193" y="0">0</tspan></text>
			<text transform="matrix(1 0 0 1 6.9829 134.7065)"><tspan x="0" y="0">3</tspan><tspan x="6.193" y="0">0</tspan></text>
			<text transform="matrix(1 0 0 1 6.9829 96.9688)"><tspan x="0" y="0">4</tspan><tspan x="6.193" y="0">0</tspan></text>
			<text transform="matrix(1 0 0 1 6.9829 60.1143)"><tspan x="0" y="0">5</tspan><tspan x="6.193" y="0">0</tspan></text>
			<text transform="matrix(1 0 0 1 6.9829 22.228)"><tspan x="0" y="0">6</tspan><tspan x="6.193" y="0">0</tspan></text>
		</g>

		<g id="ShoeBar">
			<path style="fill:#7575C3;" d="M47.025,202.845v37.296h39.508v-37.296H47.025z"/>
			<path style="fill:#8686E0;" d="M86.533,240.141v-37.296l15.626-15.626v37.297l-15.626,15.625z"/>
			<path style="fill:#5B5B97;" d="M86.533,202.845H47.025l15.626-15.626h39.507l-15.626,15.626z"/>
		</g>
		<g id="CarBar">
			<path style="fill:#8686E0;" d="M165.549,240.141v-74.74l15.625-15.626v74.74l-15.625,15.625z"/>
			<path style="fill:#5B5B97;" d="M165.549,165.401h-39.508l15.626-15.626h39.507l-15.625,15.626z"/>
			<path style="fill:#7575C3;" d="M126.041,165.401v74.74h39.508v-74.74h-39.508z"/>
		</g>
		<g id="TravelBar">
			<path style="fill:#8686E0;" d="M244.711,240.141v-37.296l15.626-15.626v37.297l-15.626,15.625z"/>
			<path style="fill:#5B5B97;" d="M244.711,202.845h-39.508l15.626-15.626h39.508l-15.626,15.626z"/>
			<path style="fill:#7575C3;" d="M205.203,202.845v37.296h39.508v-37.296h-39.508z"/>
		</g>
		<g id="ComputerBar">
			<path style="fill:#8686E0;" d="M323.874,240.141V15.774L339.5,0.147v224.368l-15.626,15.625z"/>
			<path style="fill:#5B5B97;" d="M323.874,15.774h-39.655l15.626-15.626H339.5l-15.626,15.626z"/>
			<path style="fill:#7575C3;" d="M284.218,15.774v224.367h39.655V15.774h-39.655z"/>
		</g>

    </g>

    <!-- ============================================================= -->
    <!-- Batik sample mark                                             -->
    <!-- ============================================================= -->
    <use xlink:href="batikLogo.svg#Batik_Tag_Box" />

</svg>
