<!DOCTYPE svg PUBLIC "-//W3C//DTD SVG 20000802//EN"
"http://www.w3.org/TR/2000/CR-SVG-20000802/DTD/svg-20000802.dtd">

<!-- ========================================================================= -->
<!-- Copyright (C) The Apache Software Foundation. All rights reserved.        -->
<!--                                                                           -->
<!-- This software is published under the terms of the Apache Software License -->
<!-- version 1.1, a copy of which has been included with this distribution in  -->
<!-- the LICENSE file.                                                         -->
<!-- ========================================================================= -->

<!-- ========================================================================= -->
<!-- @author vincent.hardy@eng.sun.com                                         -->
<!-- @version $Id: logoTexture.svg,v 1.1 2001/06/10 01:46:30 edburns%acm.org Exp $ -->
<!-- ========================================================================= -->

<svg  width="450" height="500" xml:space="preserve" viewBox="0 0 450 500">
    <!-- ============================================================= -->
    <!-- Test content                                                  -->
    <!-- ============================================================= -->
    <defs>
        <filter id="tableRedOrangeTint" filterUnits="objectBoundingBox" 
              x="0%" y="0%" width="100%" height="100%">
            <feTurbulence type="turbulence" baseFrequency="0.01" numOctaves="1"/>
            <feColorMatrix type="luminanceToAlpha" />
            <feColorMatrix type="matrix" values="0 0 0 -1 1    0 0 0 -1 1    0 0 0 -1 1   0 0 0 0 1" />
            <feComponentTransfer filterUnits="objectBoundingBox" 
              x="0%" y="0%" width="100%" height="100%" >
                <feFuncR type="table" tableValues="0 .3   .6  .9  1 1" />
                <feFuncG type="table" tableValues="0 .2  .3  .6  1 1" />
                <feFuncB type="table" tableValues="0 0    0  0   .5 1" />
                <feFuncA type="linear" slope="1" intercept="0" />
            </feComponentTransfer>
        </filter>

        <mask maskUnits="userSpaceOnUse" x="65" y="100" width="322" height="263" id="batikMask">
	        <g id="Layer_x0020_1" style="fill:white; fill-rule:nonzero;clip-rule:nonzero;stroke:#000000;stroke-miterlimit:4;" transform="translate(40, 80) scale(.75, .75)" >
		    <path style="stroke:none;" d="M64.994,178.963V77.831c0-6.188-0.57-10.773-1.707-13.754c-1.137-2.977-3.066-5.461-5.793-7.449c-1.137-0.766-2.367-1.395-3.695-1.891s-3.012-0.938-5.055-1.32c-2.125-0.371-3.488-0.781-4.094-1.23s-0.906-1.121-0.906-2.02
			c0-1.195,0.32-2.035,0.969-2.52c0.645-0.484,1.953-0.73,3.93-0.73c0.758,0,3.816,0.211,9.176,0.625c5.355,0.418,10.387,0.625,15.098,0.625c2.961,0,7.883-0.207,14.758-0.625c6.875-0.414,12.324-0.625,16.352-0.625c16.711,0,29.762,3.461,39.145,10.379
			s14.074,16.574,14.074,28.965c0,7.148-1.793,13.418-5.375,18.816c-3.586,5.398-9,9.996-16.242,13.797v2.18c11.574,2.051,20.445,6.547,26.613,13.492s9.254,15.879,9.254,26.805c0,15.406-5.184,27.645-15.551,36.715s-24.473,13.602-42.316,13.602
			c-6.078,0-13.367-0.293-21.871-0.875c-8.508-0.586-13.898-0.875-16.172-0.875c-6.762,0-13.863,0.348-21.301,1.043c-1.824,0.137-2.965,0.207-3.418,0.207c-0.609,0-1.199-0.344-1.77-1.027s-0.852-1.406-0.852-2.172c0-1.598,1.355-2.93,4.074-3.996l0.113-0.055
			c1.809-0.836,3.223-1.574,4.242-2.223c1.02-0.645,1.906-1.387,2.66-2.223c2.039-2.047,3.492-4.516,4.359-7.402s1.301-7.254,1.301-13.105z M82.994,110.209c0,3.648,0.453,5.93,1.367,6.84c0.914,0.914,2.816,1.367,5.711,1.367h16.555
			c12.023,0,20.758-2.031,26.203-6.098c5.441-4.066,8.164-10.508,8.164-19.324c0-10.945-4.188-20.027-12.559-27.246c-8.375-7.219-18.914-10.832-31.625-10.832c-5.711,0-9.441,0.855-11.191,2.566s-2.625,5.148-2.625,10.316v42.41z M82.994,187.737
			c0,6.539,1.789,10.953,5.371,13.242c3.578,2.293,11.16,3.438,22.746,3.438c14.172,0,24.82-3.031,31.945-9.094s10.688-15.156,10.688-27.281c0-13.031-4.234-23.188-12.695-30.461s-20.316-10.914-35.563-10.914H91.213c-3.578,0-5.84,0.477-6.793,1.426
			s-1.426,3.285-1.426,7.004v52.641z"/>
		    <path style="stroke:none;" d="M238.275,198.952c-5.238,4.766-10.891,8.285-16.961,10.559c-6.07,2.27-12.863,3.406-20.375,3.406c-7.363,0-12.98-1.922-16.848-5.762c-3.871-3.844-5.805-9.414-5.805-16.719c0-9.359,4.266-16.758,12.805-22.195
			c8.535-5.438,23.766-10.215,45.695-14.324v-15.789c0-7.09-2.16-12.523-6.477-16.297s-10.523-5.664-18.625-5.664c-6.891,0-11.758,0.992-14.598,2.977s-4.258,5.336-4.258,10.063c0,1.984,0.281,4.27,0.852,6.863s0.855,4.156,0.855,4.688
			c0,1.07-0.516,1.945-1.547,2.633s-2.352,1.027-3.953,1.027c-3.055,0-5.652-0.816-7.793-2.449s-3.207-3.664-3.207-6.098c0-6.605,3.664-12.625,11-18.055c7.332-5.43,15.977-8.148,25.93-8.148c13.906,0,23.727,2.621,29.465,7.855
			c5.734,5.238,8.605,14.535,8.605,27.891v42.844c0,6.516,0.621,10.715,1.867,12.594s3.609,2.816,7.086,2.816c0.602,0,1.434-0.035,2.492-0.113c1.055-0.078,1.773-0.117,2.152-0.117c0.527,0,1.02,0.246,1.473,0.73c0.453,0.488,0.68,1.07,0.68,1.742
			c0,1.574-1.273,2.887-3.816,3.934s-5.785,1.574-9.73,1.574c-4.176,0-7.668-1.039-10.477-3.117s-4.973-5.191-6.488-9.348z M236.787,159.167c-16.43,3.43-27.789,7.273-34.074,11.535c-6.285,4.266-9.426,9.973-9.426,17.129c0,5.559,1.512,9.879,4.543,12.961
			c3.027,3.086,7.27,4.625,12.723,4.625c7.492,0,13.738-1.941,18.738-5.832c4.996-3.887,7.496-8.813,7.496-14.777v-25.641z"/>
		    <g style="fill:white;stroke:none;">
			<path d="M355.009,205.69c-0.684-0.531-2.199-0.871-4.551-1.023c-1.441,0-2.711-0.113-3.813-0.34s-2.105-0.57-3.012-1.027c-3.035-1.594-5.102-3.586-6.203-5.98c-1.102-2.391-1.648-6.625-1.648-12.703v-35.543c0-11.688,0.188-23.227,0.566-34.617
				c0.078-2.047,0.117-3.227,0.117-3.531c0-1.594-0.191-2.617-0.57-3.074c-0.383-0.453-1.066-0.684-2.059-0.684c-1.066,0-9.44,3.681-11.451,4.196s-6.655,1.804-11.209,1.804h-20.266V92.045c0-1.148-0.117-1.918-0.344-2.301s-0.684-0.578-1.363-0.578
				c-1.219,0-3.059,2.172-5.527,6.516s-4.727,7.617-6.777,9.824c-2.887,3.199-5.98,6.246-9.285,9.141s-4.953,4.609-4.953,5.141c0,0.609,0.375,1.203,1.129,1.773s1.434,0.855,2.035,0.855h8.586v59.84c0,11.266,2.051,19.273,6.16,24.027
				c4.105,4.754,10.875,7.133,20.305,7.133c5.724,0,11.038-1.066,15.948-3.17c4.26-0.381,8.633-0.58,13.126-0.58c4.328,0,8.957,0.211,13.895,0.625c4.934,0.414,7.668,0.625,8.199,0.625c1.141,0,2.09-0.266,2.848-0.793c0.758-0.531,1.141-1.176,1.141-1.934
				c0-1.137-0.344-1.969-1.023-2.5z M295.067,200.288c-2.773-2.922-4.156-7.227-4.156-12.914v-64.957c0,0,12.812,0.543,13.215,0.57c1.194,0.081,2.965,0.184,5.164,0.184c3.867,0,6.23,1.637,7.637,3.914c1.402,2.281,2.105,7.367,2.105,15.266v42.039
				c0,4.781-0.285,8.273-0.848,10.477c-0.566,2.203-1.563,4.211-2.992,6.031c-0.758,0.836-1.961,1.863-3.617,3.074c-0.292,0.169-0.532,0.312-0.731,0.434c-1.229,0.172-2.446,0.261-3.651,0.261c-5.313,0-9.355-1.457-12.125-4.379z"/>
			<path d="M327.817,85.667c1.969,0,4.207-1.535,6.711-4.605c2.5-3.07,3.754-5.555,3.754-7.453c0-1.969-1.309-4.453-3.926-7.449c-2.617-2.992-4.648-4.492-6.086-4.492c-1.594,0-3.695,1.555-6.313,4.664s-3.926,5.766-3.926,7.961c0,2.352,1.137,4.836,3.41,7.453
				s4.398,3.922,6.375,3.922z"/>
		    </g>
		    <path style="stroke:none;" d="M375.257,184.307V72.413c0-8.078-0.68-13.219-2.031-15.43s-3.906-3.316-7.664-3.316h-1.805c-1.387,0-2.465-0.242-3.23-0.734c-0.77-0.492-1.191-1.188-1.27-2.094c0-1.656,1.977-2.941,5.93-3.848l0.23-0.074
			c1.824-0.301,3.516-0.68,5.074-1.133s3.098-0.984,4.617-1.594c2.66-1.059,5.586-2.535,8.781-4.43c3.191-1.895,5.246-2.844,6.16-2.844c0.984,0,1.746,0.383,2.277,1.141s0.801,1.859,0.801,3.301c0,0.305-0.039,1.082-0.113,2.332
			c-0.078,1.254-0.113,2.375-0.113,3.359c-0.383,5.391-0.668,10.684-0.859,15.883s-0.285,10.531-0.285,15.996v80.641l33.148-30.207c1.434-1.367,2.566-2.715,3.398-4.047c0.832-1.328,1.25-2.527,1.25-3.594c0-1.289-1.324-2.316-3.969-3.078
			c-0.305-0.074-0.566-0.148-0.793-0.227c-1.891-0.375-3.215-0.828-3.969-1.359c-0.758-0.527-1.133-1.242-1.133-2.148c0-0.68,0.453-1.262,1.359-1.754s2.004-0.738,3.289-0.738c0.301,0,2.305,0.211,6.008,0.625c3.703,0.418,7.297,0.625,10.773,0.625
			c2.871,0,6.141-0.207,9.809-0.625c3.664-0.414,5.875-0.625,6.633-0.625c1.438,0,2.496,0.227,3.176,0.68s1.02,1.133,1.02,2.039c0,1.734-1.285,2.828-3.855,3.281h-0.113c-1.133,0.152-2.27,0.379-3.402,0.684s-2.305,0.723-3.516,1.254
			c-7.332,2.891-13.758,7.07-19.273,12.543c-0.605,0.684-1.059,1.141-1.359,1.367l-19.73,17.781c10.66,14.914,19.223,26.215,25.688,33.902s11.59,12.672,15.371,14.953c3.023,1.75,6.879,2.969,11.566,3.652c0.375,0.078,0.641,0.113,0.793,0.113
			c2.191,0.152,3.609,0.438,4.254,0.852c0.641,0.414,1,1.113,1.078,2.094c0,1.133-0.512,1.922-1.535,2.375s-3.012,0.68-5.965,0.68h-19.277c-5,0-15.23-10.113-30.684-30.34c-5.609-7.375-10.117-13.227-13.523-17.563l-6.516,6.156v15.617
			c0,6.852,0.531,11.344,1.602,13.477c1.066,2.133,3.086,3.883,6.059,5.25c1.219,0.535,3.121,0.992,5.715,1.371c0.078,0.023,0.152,0.031,0.23,0.031c2.133,0.152,3.523,0.492,4.172,1.023s0.973,1.363,0.973,2.5c0,0.836-0.344,1.496-1.027,1.988
			s-1.594,0.738-2.734,0.738c-0.305,0-2.758-0.211-7.355-0.625c-4.602-0.414-8.992-0.625-13.172-0.625c-6.309,0-12.313,0.375-18.016,1.125c-0.914,0.082-1.445,0.125-1.594,0.125c-0.836,0-1.523-0.25-2.055-0.746s-0.797-1.09-0.797-1.777
			c0-0.766,0.262-1.473,0.789-2.121c0.523-0.648,1.613-1.434,3.27-2.355c0.375-0.227,0.789-0.492,1.242-0.797c1.273-0.758,2.215-1.445,2.816-2.055c1.277-1.367,2.16-3.074,2.648-5.129c0.488-2.051,0.734-5.926,0.734-11.629z"/>
		    <g>
			<path style="fill:none;stroke:none;" d="M72.994,271.083c4-42,302-44,348-24c-56,40-160,2-208,56c20,10,42,2,48,30c4,18-12,34-4,50"/>
			<path style="stroke:none;" d="M80.536,266.312c-0.018,0.1-0.377,1.375-0.439,1.492c-0.15,0.285-1.382,2.046-1.598,2.291c0.206-0.233,0.428-0.452,0.65-0.67c-6.851,6.751-0.262,0.713,0.893-0.499c1.893-1.986-2.124,1.712,0.112-0.08
				c0.604-0.484,1.242-0.925,1.886-1.355c-2.574,1.719,0.458-0.228,1.417-0.868c-2.634,1.761-1.231,0.788-0.605,0.423c1.799-1.049,3.686-1.946,5.591-2.783c0.978-0.43,1.97-0.828,2.964-1.217c1.844-0.723-1.918,0.683-0.003,0.012
				c0.706-0.264,1.412-0.528,2.117-0.792c-1.224,0.456-1.388,0.521-0.491,0.195c2.531-0.908,5.102-1.708,7.683-2.461c5.73-1.672,11.556-3.013,17.401-4.216c30.689-6.315,61.555-8.765,92.723-10.467c35.225-1.924,70.559-2.313,105.819-1.278
				c27.375,0.803,55.137,2.029,82.154,6.813c1.854,0.328,3.702,0.69,5.545,1.079c-2.182-0.459,0.632,0.149,1.102,0.26c0.785,0.185,1.566,0.383,2.347,0.585c2.714,0.705,5.407,1.537,7.987,2.642c0.676-4.98,1.351-9.959,2.026-14.939
				c-29.001,20.428-70.184,18.783-104.484,20.881c-37.85,2.314-78.422,7.341-105.371,37.024c-3.142,3.46-5.693,10.35-0.21,12.998c8.018,3.873,16.683,5.137,25.266,7.166c7.149,1.69,13.362,4.381,16.934,11.121c4.934,9.311,2.75,18.519-0.175,28.003
				c-3.217,10.428-5.508,20.886-0.692,31.219c4.219,9.05,19.441-3.641,15.823-11.611c-4.234-9.326,1.407-19.828,3.653-28.997c2.667-10.888,1.908-22.401-3.872-32.224c-9.76-16.588-31.066-13.848-46.449-21.271c-0.07,4.333-0.14,8.666-0.21,12.998
				c10.537-11.719,25.017-18.668,40.974-22.714c18.159-4.604,37.034-5.719,55.666-6.747c37.146-2.049,77.822-2.405,109.506-24.634c4.136-2.902,8.771-12.048,2.026-14.939c-7.868-3.373-16.687-4.781-25.083-6.132c-12.447-2.004-25.032-3.156-37.6-4.075
				c-33.215-2.427-66.599-2.839-99.887-2.247c-34.872,0.621-69.791,2.496-104.432,6.637c-24.317,2.907-50.972,6.112-73.187,17.171c-4.951,2.465-9.505,5.587-13.309,9.623c-1.027,1.089-2.19,2.464-2.986,3.643c0.137-0.203-3.419,6.639-1.518,3.165
				c-0.205,0.374-0.38,0.762-0.549,1.151c-1.126,2.59-2.056,5.322-2.196,8.168c-0.222,4.484,4.48,3.091,6.917,1.551c3.856-2.437,7.345-6.516,8.167-11.093z"/>
		    </g>
		    <g>
			<path style="fill:none;stroke:none;" d="M91.063,159.92c3.21-4.278,7.488-7.488,11.768-9.628c-3.209,8.559-9.628,16.047-12.837,24.604c4.279-3.209,8.558-6.418,11.768-10.697c-1.07,2.14-3.21,4.279-5.35,6.419c2.14-3.21,5.35-5.35,8.559-7.488
				c0,1.069-2.14,4.278-2.14,5.349c4.279-3.21,3.209-4.279,3.209-1.07"/>
			<path style="fill:white;stroke:none;" d="M92.895,162.792c2.783-3.428,5.975-5.999,9.896-8.025c-1.157-1.682-2.313-3.363-3.47-5.045c-3.529,8.583-9.506,15.878-12.988,24.507c-1.424,3.528,1.087,7.368,4.788,4.606c4.628-3.453,9.209-6.988,12.807-11.548
				c-1.737-1.683-3.474-3.367-5.21-5.05c-1.203,2.039-2.795,3.63-4.451,5.306c1.724,1.675,3.448,3.35,5.171,5.025c1.737-2.343,4.278-3.896,6.66-5.5c-1.726-1.112-3.452-2.225-5.177-3.337c-0.412,1.82-1.716,3.448-2.165,5.333c-0.819,3.436,2.431,5.561,5.228,3.37
				c1.089-0.853,2.121-1.741,3.154-2.66c0.27-0.24,2.352-2.781,1.087-1.242c-1.901,0.256-3.802,0.513-5.703,0.769c-0.442-1.809-0.591-2.103-0.447-0.882c0.061,0.692,0.135,1.383,0.222,2.073c0.547,4.68,6.211-1.189,6.884-2.75c0.811-1.877,1.806-4.181,0.519-6.087
				c-1.083-1.603-3.412-1.174-4.709-0.111c-1.155,0.947-2.154,2.039-3.312,2.981c1.743,1.123,3.485,2.247,5.228,3.37c0.401-1.833,1.678-3.476,2.114-5.365c0.839-3.633-2.323-5.241-5.177-3.337c-4.064,2.711-7.516,5.554-10.458,9.476
				c-3.299,4.397,0.973,9.229,5.171,5.025c2.33-2.333,4.55-4.69,6.248-7.532c2.625-4.394-1.298-9.954-5.21-5.05c-3.095,3.878-6.791,6.867-10.729,9.847c1.596,1.536,3.192,3.071,4.788,4.606c3.412-8.649,9.323-16.011,12.686-24.702
				c0.948-2.451,0.194-7.002-3.47-5.045c-5.309,2.836-9.933,6.46-13.639,11.23c-1.319,1.697-3.073,4.564-1.681,6.745c1.318,2.063,4.239,0.358,5.343-1.001z"/>
		    </g>
		    <g>
			<path style="fill:none;stroke:none;" d="M121.018,149.223c1.069-1.07,2.139-2.14,4.278-3.209c-2.14,4.278-4.278,9.628-6.418,12.837c2.14-1.07,4.278-3.209,6.418-5.349c0,1.069-2.14,4.278-2.14,5.349c3.21-2.14,7.489-4.279,10.698-6.419
				c-2.14,3.21-4.279,7.488-6.419,10.698c1.07,0,4.279-2.14,5.349-3.21c-1.069,2.14-3.209,3.21-3.209,5.349c2.14-1.069,4.279-3.209,6.419-4.278"/>
			<path style="fill:white;stroke:none;" d="M122.068,153.47c1.095-1.054,2.151-1.838,3.493-2.567c-0.949-2.375-1.897-4.749-2.846-7.124c-1.96,3.858-3.554,8.012-5.898,11.658c-1.202,1.87-1.95,4.149-1.307,6.371c0.461,1.592,2.045,2.92,3.719,1.958
				c2.792-1.606,5.072-3.694,7.356-5.946c-1.631-1.296-3.263-2.592-4.895-3.888c0.423-2.181-0.838,1.04-1.041,1.472c-0.595,1.267-0.875,2.5-1.14,3.864c-0.396,2.038,1.298,6.281,4.05,4.513c3.503-2.25,7.211-4.155,10.708-6.416c-0.86-2.792-1.721-5.585-2.582-8.377
				c-2.26,3.495-4.161,7.205-6.419,10.698c-1.166,1.803-3.031,9.546,1.622,8.659c2.694-0.513,5.223-2.283,7.228-4.094c-1.4-2.216-2.8-4.432-4.2-6.648c-1.777,2.892-3.42,4.527-4.006,8.079c-0.355,2.152,1.243,6.147,4.078,4.521c2.237-1.284,4.184-2.972,6.395-4.286
				c2.267-1.346,3.457-4.071,3.249-6.675c-0.157-1.958-1.758-4.435-4.029-3.175c-2.268,1.258-4.202,2.985-6.443,4.271c1.359,1.507,2.719,3.014,4.078,4.521c-0.546,1.443-0.411,1.566,0.405,0.371c0.791-0.92,1.374-1.96,2.007-2.989
				c1.776-2.889-0.048-10.398-4.2-6.648c-0.903,0.816-2.232,2.09-3.469,2.326c0.541,2.886,1.081,5.772,1.622,8.659c2.26-3.495,4.161-7.205,6.419-10.698c1.215-1.88,1.976-4.14,1.287-6.376c-0.469-1.523-2.212-3.072-3.869-2.001
				c-3.493,2.259-7.202,4.153-10.688,6.422c1.35,1.504,2.7,3.008,4.05,4.513c-0.386,2.161,0.771-1.038,0.976-1.492c0.577-1.276,0.878-2.497,1.123-3.869c0.493-2.755-2.1-6.696-4.895-3.888c-1.704,1.712-3.375,3.525-5.479,4.751c0.804,2.776,1.608,5.553,2.413,8.329
				c2.776-4.455,4.699-9.286,6.938-14.016c0.902-1.905,1.375-9.486-2.846-7.124c-1.896,1.062-3.539,2.305-5.063,3.851c-1.783,1.808-2.738,4.762-2.12,7.262c0.545,2.203,2.574,2.816,4.221,1.232z"/>
		    </g>
		    <g>
			<path style="fill:none;stroke:none;" d="M106.04,184.524c1.07-2.139,3.21-3.209,5.35-4.278c-2.14,3.209-3.21,8.558-5.35,12.837c3.21-3.209,7.488-5.349,10.698-8.559c-1.07,2.14-2.14,5.35-4.279,7.489c3.209-2.14,7.488-3.21,10.697-6.419
				c0,1.069-2.139,4.279-2.139,4.279c2.139-2.14,3.209-3.21,4.278-6.419c-2.14,1.069-4.278,2.14-6.418,2.14c0-1.07,2.14-3.209,3.209-4.279c-3.209,1.07-6.419,2.14-8.559,3.209c0,0,3.21-2.139,4.279-2.139c1.07-2.14-1.069,1.069-2.14,1.069"/>
			<path style="fill:white;stroke:none;" d="M109.826,184.816c0.783-0.504,1.606-0.938,2.469-1.301c-1.583-1.209-3.166-2.419-4.748-3.628c-2.467,3.958-3.438,8.551-5.454,12.714c-2.352,4.856,3.013,5.929,6.132,3.061c3.375-3.103,7.41-5.351,10.752-8.495
				c-2.078-1.06-4.155-2.12-6.233-3.18c-1.059,2.217-1.887,4.529-3.542,6.382c-3.302,3.697,0.169,7.709,4.344,5.127c4.005-2.478,8.331-4.002,11.861-7.246c-2.243-0.696-4.485-1.393-6.728-2.089c-0.215,1.156-1.024,2.195-1.661,3.168
				c-3.016,4.607,3.391,6.075,6.246,3.195c2.925-2.951,5.072-5.702,6.501-9.646c1.441-3.978-3.187-4.057-5.543-2.891c-1.383,0.685-2.487,1.158-4.03,1.306c1.048,1.237,2.097,2.475,3.145,3.712c0.125-0.477,1.471-1.594,1.964-2.097
				c2.829-2.878,1.002-6.963-3.061-5.589c-2.886,0.976-5.777,1.933-8.535,3.236c0.28,2.457,0.561,4.913,0.841,7.369c0.352-0.233,0.71-0.457,1.068-0.681c0.451-0.278,0.911-0.541,1.379-0.791c-0.923,0.3-0.715,0.262,0.625-0.115c2.553-0.935,4.935-3.57,5.073-6.385
				c0.154-3.138-3.764-2.988-5.619-1.686c-2.035,1.429-3.433,2.693-4.696,4.823c0.983-0.965,1.966-1.93,2.949-2.895c-0.115,0.083-0.23,0.167-0.345,0.25c-1.448,1.045-2.816,2.212-3.498,3.921c-0.501,1.257-0.279,3.353,1.588,3.168
				c1.579-0.156,3.114-0.367,4.511-1.194c-0.039,0.023,3.256-2.522,1.495-1.309c-1.873-0.562-3.745-1.124-5.618-1.687c0.139-0.474,0.279-0.949,0.418-1.423c1.762-1.264,3.523-2.527,5.285-3.791c-2.419,0.446-4.606,1.661-6.651,2.991
				c-1.733,1.126-3.506,2.876-3.606,5.088c-0.11,2.417,2.563,3.155,4.448,2.281c2.775-1.286,5.681-2.224,8.582-3.182c-0.685-2.2-1.37-4.401-2.055-6.601c-2.17,2.169-4.635,4.408-5.459,7.474c-0.627,2.334,0.756,3.929,3.145,3.712c3.196-0.29,5.958-1.573,8.806-2.973
				c-1.848-0.963-3.695-1.927-5.543-2.891c-0.48,1.318-1.07,2.204-2.055,3.192c2.082,1.065,4.164,2.13,6.246,3.195c1.067-1.622,2.254-3.462,2.616-5.39c0.854-4.542-4.149-4.445-6.728-2.089c-2.762,2.523-6.394,3.631-9.534,5.592c1.448,1.709,2.896,3.418,4.344,5.127
				c2.271-2.566,3.568-5.538,5.016-8.597c2.284-4.825-3.085-6.168-6.233-3.18c-3.328,3.158-7.349,5.426-10.644,8.623c2.044,1.02,4.088,2.041,6.132,3.061c1.928-4.203,2.889-8.988,5.245-12.96c2.417-4.074-1.607-5.273-4.748-3.628
				c-3.403,1.783-6.204,3.945-8.23,7.255c-0.98,1.601-1.226,4.278,1.271,4.468c2.564,0.195,5.004-1.875,6.301-3.884z"/>
		    </g>
	        </g>

        </mask>

    </defs>

    <rect width="100%" height="100%" fill="black" /> 
    <rect width="493" height="420" style="filter:url(#tableRedOrangeTint); mask:url(#batikMask)" />


    <!-- ============================================================= -->
    <!-- Batik sample mark                                             -->
    <!-- ============================================================= -->
    <defs>
	    <g id="BatikTag" style="fill-rule:nonzero;clip-rule:nonzero;fill:none;stroke:#000000;stroke-miterlimit:4;" transform="translate(410, 460) scale(.5, .5)">
			<path style="stroke:none;" d="M5.104,18.946c3.21-4.278,7.488-7.488,11.768-9.628c-3.209,8.559-9.628,16.047-12.837,24.604c4.279-3.209,8.558-6.417,11.768-10.697c-1.07,2.14-3.21,4.279-5.35,6.419c2.14-3.21,5.35-5.35,8.559-7.489c0,1.069-2.14,4.278-2.14,5.349
				c4.279-3.21,3.209-4.279,3.209-1.07"/>
			<path style="fill:#6666FF;stroke:none;" d="M6.936,21.818c2.783-3.428,5.975-6,9.896-8.026c-1.157-1.682-2.313-3.363-3.47-5.045C9.833,17.33,3.856,24.625,0.374,33.254c-1.424,3.527,1.087,7.367,4.788,4.606c4.627-3.453,9.209-6.988,12.807-11.547
				c-1.737-1.684-3.474-3.367-5.21-5.05c-1.203,2.039-2.795,3.63-4.451,5.307c1.724,1.675,3.448,3.35,5.171,5.025c1.737-2.343,4.278-3.897,6.66-5.501c-1.726-1.112-3.452-2.225-5.177-3.337c-0.412,1.82-1.716,3.448-2.165,5.333c-0.819,3.436,2.431,5.561,5.228,3.37
				c1.089-0.854,2.121-1.741,3.154-2.66c0.27-0.24,2.352-2.781,1.087-1.242c-1.901,0.256-3.802,0.513-5.703,0.769c-0.442-1.809-0.591-2.103-0.447-0.882c0.061,0.692,0.135,1.383,0.222,2.073c0.547,4.68,6.211-1.189,6.884-2.75c0.811-1.877,1.806-4.181,0.519-6.087
				c-1.083-1.603-3.412-1.174-4.709-0.111c-1.155,0.947-2.154,2.039-3.312,2.981c1.743,1.123,3.485,2.247,5.228,3.37c0.401-1.833,1.678-3.476,2.114-5.365c0.839-3.633-2.323-5.241-5.177-3.337c-4.064,2.711-7.516,5.555-10.458,9.477
				c-3.298,4.397,0.973,9.23,5.171,5.025c2.33-2.333,4.55-4.69,6.248-7.532c2.625-4.394-1.298-9.954-5.21-5.05c-3.095,3.879-6.791,6.867-10.729,9.846c1.596,1.536,3.192,3.071,4.788,4.606c3.412-8.648,9.323-16.01,12.686-24.701c0.948-2.451,0.194-7.002-3.47-5.045
				c-5.309,2.836-9.933,6.46-13.639,11.23c-1.319,1.698-3.073,4.564-1.681,6.745c1.318,2.063,4.239,0.358,5.343-1.001z"/>
			<path style="stroke:none;" d="M35.059,8.249c1.069-1.07,2.139-2.14,4.278-3.209c-2.14,4.278-4.278,9.628-6.418,12.837c2.14-1.07,4.278-3.209,6.418-5.349c0,1.069-2.14,4.278-2.14,5.349c3.21-2.14,7.489-4.279,10.698-6.419c-2.14,3.21-4.279,7.488-6.419,10.698
				c1.07,0,4.279-2.14,5.349-3.21c-1.069,2.14-3.209,3.21-3.209,5.349c2.14-1.069,4.279-3.209,6.419-4.278"/>
			<path style="fill:#FF0000;stroke:none;" d="M36.109,12.496c1.095-1.054,2.15-1.838,3.492-2.567c-0.948-2.375-1.896-4.749-2.846-7.124c-1.96,3.858-3.554,8.012-5.897,11.658c-1.202,1.87-1.95,4.148-1.307,6.371c0.462,1.592,2.045,2.92,3.72,1.958
				c2.792-1.606,5.072-3.694,7.356-5.946c-1.632-1.296-3.264-2.592-4.896-3.888c0.424-2.181-0.838,1.04-1.041,1.472c-0.595,1.267-0.875,2.5-1.14,3.864c-0.396,2.038,1.298,6.281,4.051,4.513c3.503-2.25,7.211-4.155,10.707-6.416c-0.86-2.792-1.721-5.585-2.581-8.377
				c-2.26,3.495-4.161,7.205-6.419,10.698c-1.165,1.803-3.031,9.546,1.621,8.659c2.694-0.513,5.224-2.283,7.229-4.094c-1.4-2.216-2.8-4.432-4.2-6.648c-1.777,2.892-3.42,4.527-4.006,8.079c-0.355,2.152,1.243,6.147,4.077,4.521c2.237-1.284,4.184-2.972,6.395-4.286
				c2.267-1.346,3.457-4.071,3.249-6.675c-0.156-1.958-1.758-4.435-4.028-3.175c-2.269,1.258-4.202,2.985-6.443,4.271c1.359,1.507,2.718,3.014,4.077,4.521c-0.546,1.443-0.411,1.566,0.405,0.371c0.791-0.92,1.374-1.96,2.007-2.989
				c1.776-2.889-0.048-10.398-4.2-6.648c-0.903,0.816-2.231,2.09-3.469,2.326c0.54,2.886,1.08,5.772,1.621,8.659c2.26-3.495,4.161-7.205,6.419-10.698c1.215-1.88,1.977-4.14,1.287-6.376c-0.469-1.523-2.212-3.072-3.868-2.001c-3.493,2.259-7.202,4.153-10.689,6.422
				c1.351,1.504,2.7,3.008,4.051,4.513c-0.387,2.161,0.771-1.038,0.976-1.492c0.576-1.276,0.877-2.497,1.123-3.869c0.492-2.755-2.101-6.696-4.896-3.888c-1.703,1.712-3.375,3.525-5.479,4.751c0.805,2.776,1.608,5.552,2.413,8.329
				c2.776-4.455,4.699-9.286,6.938-14.016c0.901-1.905,1.374-9.486-2.846-7.124c-1.896,1.062-3.539,2.305-5.064,3.851c-1.782,1.808-2.738,4.762-2.119,7.262c0.544,2.203,2.574,2.816,4.221,1.232z"/>
		<g>
			<path style="stroke:none;" d="M20.081,43.551c1.07-2.139,3.21-3.209,5.35-4.279c-2.14,3.209-3.21,8.559-5.35,12.838c3.21-3.209,7.488-5.35,10.698-8.559c-1.07,2.139-2.14,5.35-4.279,7.488c3.209-2.139,7.488-3.209,10.697-6.418c0,1.068-2.139,4.279-2.139,4.279
				c2.139-2.141,3.209-3.211,4.278-6.42c-2.14,1.07-4.278,2.141-6.418,2.141c0-1.07,2.14-3.209,3.209-4.279c-3.209,1.07-6.419,2.139-8.559,3.209c0,0,3.21-2.139,4.279-2.139c1.07-2.141-1.069,1.068-2.14,1.068"/>
			<path style="fill:#33CC33;stroke:none;" d="M23.867,43.843c0.783-0.505,1.606-0.938,2.469-1.303c-1.583-1.209-3.166-2.418-4.748-3.628c-2.467,3.958-3.438,8.552-5.454,12.715c-2.352,4.856,3.013,5.93,6.132,3.062c3.375-3.103,7.41-5.352,10.752-8.494
				c-2.077-1.061-4.155-2.12-6.233-3.181c-1.06,2.217-1.887,4.528-3.542,6.381c-3.303,3.697,0.169,7.708,4.344,5.127c4.006-2.477,8.331-4.001,11.86-7.244c-2.242-0.696-4.484-1.393-6.728-2.09c-0.215,1.156-1.023,2.195-1.66,3.169
				c-0.909,1.389-1.034,3.728,0.661,4.583c2.4,1.212,5.012-0.811,6.589-2.401c2.543-2.567,4.263-5.229,5.496-8.634c1.441-3.977-3.187-4.059-5.543-2.892c-1.384,0.686-2.486,1.159-4.03,1.308c1.048,1.237,2.097,2.475,3.145,3.712c0.126-0.477,1.472-1.595,1.965-2.097
				c2.829-2.879,1.002-6.963-3.061-5.589c-2.886,0.976-5.777,1.933-8.535,3.236c0.28,2.456,0.561,4.913,0.841,7.369c0.353-0.233,0.71-0.457,1.068-0.681c0.452-0.278,0.911-0.542,1.379-0.791c-0.923,0.301-0.715,0.262,0.625-0.115c2.554-0.936,4.936-3.57,5.073-6.386
				c0.154-3.139-3.763-2.987-5.618-1.686c-2.035,1.427-3.433,2.693-4.696,4.822c0.983-0.965,1.966-1.93,2.95-2.895c-0.115,0.083-0.23,0.166-0.346,0.249c-1.448,1.046-2.816,2.212-3.498,3.922c-0.501,1.257-0.279,3.353,1.588,3.168
				c1.578-0.156,3.114-0.367,4.511-1.193c-0.039,0.022,3.258-2.521,1.495-1.309c-1.873-0.563-3.745-1.124-5.618-1.687c0.139-0.475,0.279-0.948,0.418-1.423c1.762-1.264,3.523-2.527,5.284-3.79c-2.419,0.445-4.605,1.661-6.651,2.99
				c-1.733,1.127-3.506,2.876-3.606,5.088c-0.11,2.416,2.563,3.155,4.448,2.281c2.774-1.286,5.682-2.224,8.582-3.182c-0.685-2.2-1.37-4.4-2.055-6.601c-2.17,2.169-4.635,4.407-5.459,7.474c-0.628,2.334,0.756,3.929,3.145,3.712c3.196-0.29,5.958-1.573,8.806-2.974
				c-1.848-0.964-3.695-1.928-5.543-2.892c-0.48,1.317-1.07,2.204-2.056,3.192c2.082,1.065,4.164,2.13,6.245,3.195c1.067-1.622,2.254-3.462,2.617-5.39c0.854-4.543-4.149-4.445-6.728-2.09c-2.763,2.522-6.394,3.631-9.534,5.592c1.448,1.709,2.896,3.418,4.344,5.127
				c2.271-2.566,3.567-5.537,5.016-8.596c2.285-4.825-3.084-6.167-6.232-3.181c-3.328,3.158-7.349,5.427-10.644,8.623c2.044,1.021,4.088,2.041,6.132,3.062c1.928-4.204,2.889-8.989,5.246-12.961c2.416-4.073-1.608-5.275-4.749-3.628
				c-3.403,1.784-6.204,3.945-8.23,7.256c-0.98,1.602-1.226,4.278,1.271,4.469c2.564,0.194,5.004-1.876,6.301-3.885z"/>
		</g>
	</g>
    </defs>
    <rect x="1" y="1" width="446" height="496" fill="none" stroke="black" />
    <use xlink:href="#BatikTag" />
    
</svg>