<!-- This Source Code Form is subject to the terms of the Mozilla Public
   - License, v. 2.0. If a copy of the MPL was not distributed with this
   - file, You can obtain one at http://mozilla.org/MPL/2.0/. -->
<svg width="80" height="80" fill="context-fill" xmlns="http://www.w3.org/2000/svg"><path fill-rule="evenodd" clip-rule="evenodd" d="M4 2h72a2 2 0 0 1 2 2v72a2 2 0 0 1-2 2H4a2 2 0 0 1-2-2V4a2 2 0 0 1 2-2ZM0 4a4 4 0 0 1 4-4h72a4 4 0 0 1 4 4v72a4 4 0 0 1-4 4H4a4 4 0 0 1-4-4V4Zm7.08 3.08h15.892v15.892H7.08V7.08Zm4.54 2.27H9.35V20.701H20.701V9.35h-9.08Zm18.163-2.27h4.541v2.27h2.27v2.27h-2.27v2.27h-2.27v2.271h4.54v-4.54h2.27V9.35h2.271v6.811h-2.27v2.27h2.27v4.541h-2.27v-2.27h-2.27v-2.27h-2.27v2.27h-2.271v-2.27h-2.27V7.08Zm0 13.622v-2.27h-2.27V9.35h-2.27v13.622h2.27v2.27h-9.081v2.271h-2.27v2.27H13.89v-4.54h-2.27v2.27H7.08v2.27h2.27v2.27h2.27v2.271h9.081v2.27h2.271v2.27h-2.27v2.271h-2.27v-2.27h-2.27v-2.27H7.08v2.27h4.54v2.27H9.35v2.27h6.811v-2.27h2.27v4.54h6.811v-2.27h2.271v2.27h2.27v-4.54h-4.54v-2.27h2.27v-4.54h2.27v-2.271h-4.54v-2.27h2.27v-2.271h2.27v-4.54h2.27v2.27h4.541v2.27h-2.27v2.27h2.27v-2.27h2.27v-4.54h-2.27v-2.271h-2.27v2.27h-2.27v-2.27h-2.27Zm0 0h-2.27v2.27h2.27v-2.27Zm-9.081 11.352v2.27h2.27v2.27h2.27v-4.54h-4.54Zm4.54 9.081h-4.54v2.27h4.54v-2.27Zm-4.54-9.081v-2.27h2.27v-2.271h-4.54v4.54h2.27Zm-9.082 0v-2.27h2.27v2.27h-2.27ZM41.135 9.35V7.08h2.27v2.27h-2.27Zm2.27 20.433h-2.27v-4.54h2.27v2.27h2.27v-2.27h2.271v-4.541h2.27v2.27h2.271v-4.54h2.27V25.242h2.27v2.271h-4.54v-2.27h-2.27v4.54h-6.811Zm9.082 2.27v-2.27h-2.27v2.27h2.27Zm2.27 0h-2.27v4.541h-2.27v4.541h2.27v4.54h-2.27v4.541h-4.541v2.271h-2.27v-2.27h-2.27v2.27h2.27v2.27h-4.541v-4.54h-6.811v2.27h-2.27v-4.54h-4.541v2.27h-2.27v-2.27h-2.271v2.27h2.27v2.27h-4.54v-4.54H13.89v2.27h-2.27v-4.541H9.35v2.27H7.08v2.27h4.54v2.271H7.08v2.27h4.54v-2.27h2.27v2.27h2.271v-2.27h2.27v2.27h6.811v6.811h2.271v2.27h2.27v2.271h-4.54v2.27h2.27v2.271h2.27v-4.54h2.27v-2.271h-2.27v-4.54h4.541v2.27h2.27v2.27h-2.27v2.27h2.27v4.541h-2.27v2.27h2.27v-2.27h2.27v2.27h6.811v-2.27h4.541v-4.54h4.541v2.27h-2.27v4.54h2.27v-2.27h2.27v2.27h9.082V66.11h2.27v2.27h4.541v-2.27h-2.27v-6.811h2.27V45.675h-2.27v13.622h-2.27v-2.27h-2.27v-4.541h-6.811v-2.27h-4.541v-6.811h2.27v4.54h4.54v-4.54h-2.27v-2.27h-6.811v-2.271h2.27v-2.27h2.27v2.27h2.271v-4.54h4.54v9.08h2.271v-2.27h2.27v-2.27h-2.27v-6.811h2.27v-2.27h2.271v2.27h2.27v-4.541h-2.27v-2.27H59.299v2.27h-2.271v2.27h-2.27v2.27Zm2.27 0v2.271h-2.27v-2.27h2.27Zm2.271-2.27h2.27v2.27h2.27v-4.54h-4.54v2.27Zm0 0v2.27h-2.27v-2.27h2.27Zm9.082 29.515h-2.27v2.27h-2.271v2.27h4.54v-4.54ZM54.757 66.11h2.27v2.27h2.271v2.271h4.54v-2.27h-2.27v-2.27h-2.27v-2.271h-4.54v2.27Zm-6.81-2.27v2.27h2.27v-2.27h-2.27Zm-2.271 0v-2.27h-6.811v-2.27h2.27v-2.271h2.27v-2.27h9.082v4.54h-4.54v-2.27h-2.271v2.27h2.27v4.54h-2.27Zm0 0h-9.081v2.27h2.27v2.27h2.27v2.271h2.27v-2.27h2.27v-4.541Zm-9.082-6.811v2.27h-2.27v-2.27h2.27Zm0-2.27h2.27v2.27h-2.27v-2.27Zm0 0h-2.27v-2.271h2.27v2.27Zm-6.81 4.54v-6.811h-2.271v6.811h2.27ZM47.945 7.08h4.541v4.54h-2.27V9.35h-2.27V7.08Zm0 2.27v2.27h2.27v2.27h4.541v2.271h-4.54v2.27h-6.811v-2.27h2.27v-2.27h-2.27v-2.27h2.27V9.35h2.27Zm9.082-2.27H72.92v15.892H57.028V7.08Zm4.54 2.27h-2.27V20.701H70.65V9.35h-9.081ZM11.62 11.62h6.811v6.811H11.621V11.621Zm49.949 0H68.379v6.811H61.57V11.621Zm-18.163 9.082h2.27v2.27h-2.27v-2.27ZM68.38 34.324h2.27v2.27h-2.27v-2.27Zm2.27 2.27h2.27v4.541h-2.27v-4.54Zm-4.54 11.352h2.27v2.27h-2.27v-2.27Zm-9.082 6.811h-2.27v6.811H61.567V54.758h-4.54ZM7.08 57.027h15.892V72.92H7.08V57.028Zm4.54 2.271H9.35V70.65H20.701V59.299h-9.08Zm45.408-2.27h2.27v2.27h-2.27v-2.27Zm-45.408 4.54h6.811v6.811H11.621V61.57Zm59.03 9.082h2.27v2.27h-2.27v-2.27Z"/><path d="M46.066 37.552c-.285-.686-.863-1.426-1.316-1.66.323.625.547 1.296.664 1.99l.002.01c-.742-1.847-1.998-2.593-3.025-4.215-.052-.082-.104-.164-.154-.25a2.078 2.078 0 0 1-.073-.136 1.193 1.193 0 0 1-.102-.271.017.017 0 0 0-.01-.006.024.024 0 0 0-.013 0l-.003.002-.005.003.003-.005c-1.647.964-2.206 2.749-2.256 3.642a3.28 3.28 0 0 0-1.805.696 1.953 1.953 0 0 0-.17-.129 3.04 3.04 0 0 1-.018-1.602 4.856 4.856 0 0 0-1.578 1.22h-.003c-.26-.33-.242-1.416-.227-1.643-.077.031-.15.07-.219.117-.229.163-.444.347-.64.549-.225.227-.43.473-.613.735a5.537 5.537 0 0 0-.88 1.986l-.009.043c-.012.057-.056.346-.064.41l-.002.014c-.057.298-.093.6-.106.903v.034a6.556 6.556 0 0 0 13.017 1.109l.03-.254a6.742 6.742 0 0 0-.426-3.293Zm-7.556 5.132c.03.015.059.03.09.044l.005.003a3.257 3.257 0 0 1-.095-.047Zm6.906-4.79v-.006.007Z" fill="url(#a)"/><path d="M46.066 37.552c-.285-.685-.863-1.426-1.316-1.66.323.625.547 1.296.664 1.99v.006l.002.007a5.937 5.937 0 0 1-.204 4.425c-.752 1.612-2.57 3.265-5.417 3.184-3.075-.088-5.785-2.37-6.29-5.36-.093-.47 0-.71.046-1.093-.064.298-.099.6-.106.905v.034a6.557 6.557 0 0 0 13.017 1.108l.03-.254a6.743 6.743 0 0 0-.426-3.293Z" fill="url(#b)"/><path d="M46.066 37.552c-.285-.685-.863-1.426-1.316-1.66.323.625.547 1.296.664 1.99v.006l.002.007a5.937 5.937 0 0 1-.204 4.425c-.752 1.612-2.57 3.265-5.417 3.184-3.075-.088-5.785-2.37-6.29-5.36-.093-.47 0-.71.046-1.093-.064.298-.099.6-.106.905v.034a6.557 6.557 0 0 0 13.017 1.108l.03-.254a6.743 6.743 0 0 0-.426-3.293Z" fill="url(#c)"/><path d="m42.879 38.322.04.03a3.57 3.57 0 0 0-.608-.795c-2.039-2.038-.535-4.418-.28-4.54l.002-.004c-1.647.965-2.206 2.75-2.257 3.642.077-.005.152-.011.23-.011a3.307 3.307 0 0 1 2.873 1.677Z" fill="url(#d)"/><path d="M40.01 38.73c-.01.162-.587.725-.788.725-1.865 0-2.167 1.127-2.167 1.127.082.95.744 1.733 1.544 2.145.036.02.073.036.11.053.065.029.129.055.193.079.274.097.562.152.853.164 3.268.154 3.9-3.907 1.542-5.086a2.263 2.263 0 0 1 1.581.384 3.309 3.309 0 0 0-2.872-1.678c-.078 0-.154.007-.23.012a3.28 3.28 0 0 0-1.805.695c.1.085.213.198.45.432.445.439 1.586.893 1.589.946v.001Z" fill="url(#e)"/><path d="M40.01 38.73c-.01.162-.587.725-.788.725-1.865 0-2.167 1.127-2.167 1.127.082.95.744 1.733 1.544 2.145.036.02.073.036.11.053.065.029.129.055.193.079.274.097.562.152.853.164 3.268.154 3.9-3.907 1.542-5.086a2.263 2.263 0 0 1 1.581.384 3.309 3.309 0 0 0-2.872-1.678c-.078 0-.154.007-.23.012a3.28 3.28 0 0 0-1.805.695c.1.085.213.198.45.432.445.439 1.586.893 1.589.946v.001Z" fill="url(#f)"/><path d="m37.665 37.134.136.09a3.04 3.04 0 0 1-.019-1.602 4.854 4.854 0 0 0-1.578 1.22c.032-.002.983-.019 1.461.292Z" fill="url(#g)"/><path d="M33.503 40.145c.506 2.989 3.216 5.272 6.291 5.359 2.847.08 4.665-1.572 5.416-3.184a5.937 5.937 0 0 0 .204-4.425v-.012l.002.01c.232 1.52-.54 2.99-1.748 3.986l-.004.008c-2.352 1.917-4.604 1.156-5.059.846a3.524 3.524 0 0 1-.095-.047c-1.372-.656-1.939-1.905-1.817-2.977a1.683 1.683 0 0 1-1.553-.977 2.474 2.474 0 0 1 2.41-.097c.777.352 1.66.387 2.462.097-.003-.054-1.144-.508-1.589-.946-.238-.234-.35-.347-.45-.432a1.987 1.987 0 0 0-.17-.128 9.602 9.602 0 0 0-.135-.09c-.478-.31-1.429-.294-1.46-.293h-.003c-.26-.33-.242-1.415-.227-1.642-.077.03-.15.07-.219.116-.23.164-.444.348-.64.55a5.712 5.712 0 0 0-.616.733 5.536 5.536 0 0 0-.88 1.986c-.003.013-.236 1.031-.121 1.56l.001-.001Z" fill="url(#h)"/><path d="M42.31 37.557c.24.235.445.503.61.795.035.027.07.054.098.08 1.486 1.37.707 3.307.65 3.444 1.207-.994 1.978-2.466 1.747-3.985-.742-1.849-2-2.595-3.025-4.217a7.809 7.809 0 0 1-.154-.25 2.078 2.078 0 0 1-.073-.136 1.193 1.193 0 0 1-.102-.271.017.017 0 0 0-.01-.006.024.024 0 0 0-.013 0l-.003.002-.004.003c-.254.12-1.758 2.501.28 4.538v.003Z" fill="url(#i)"/><path d="M43.017 38.433a1.349 1.349 0 0 0-.098-.08l-.04-.03a2.263 2.263 0 0 0-1.581-.384c2.358 1.179 1.725 5.239-1.543 5.086a2.915 2.915 0 0 1-.853-.164 3.434 3.434 0 0 1-.303-.132l.005.003c.455.311 2.706 1.071 5.059-.846l.004-.008c.058-.137.837-2.074-.65-3.444Z" fill="url(#j)"/><path d="M37.055 40.581s.302-1.127 2.167-1.127c.201 0 .778-.563.788-.726a3.265 3.265 0 0 1-2.461-.097 2.471 2.471 0 0 0-2.41.097 1.683 1.683 0 0 0 1.552.977c-.121 1.072.446 2.32 1.817 2.977l.091.045c-.8-.414-1.462-1.196-1.544-2.145Z" fill="url(#k)"/><path d="M46.066 37.552c-.285-.686-.863-1.426-1.316-1.66.323.625.547 1.296.664 1.99l.002.01c-.742-1.847-1.998-2.593-3.025-4.215a8.036 8.036 0 0 1-.154-.25 2.078 2.078 0 0 1-.073-.136 1.193 1.193 0 0 1-.102-.271.017.017 0 0 0-.01-.006.024.024 0 0 0-.013 0l-.003.002-.005.003.003-.005c-1.647.964-2.206 2.749-2.256 3.642.076-.005.152-.011.23-.011a3.308 3.308 0 0 1 2.872 1.677 2.263 2.263 0 0 0-1.58-.384c2.357 1.18 1.725 5.239-1.543 5.087a2.916 2.916 0 0 1-.853-.165 3.432 3.432 0 0 1-.303-.132l.004.003a3.524 3.524 0 0 1-.095-.047l.09.044c-.8-.413-1.461-1.195-1.544-2.144 0 0 .303-1.128 2.167-1.128.202 0 .778-.563.789-.726-.003-.053-1.144-.507-1.589-.945-.237-.234-.35-.347-.45-.432a1.987 1.987 0 0 0-.17-.128 3.04 3.04 0 0 1-.018-1.603 4.854 4.854 0 0 0-1.578 1.22h-.003c-.26-.33-.241-1.415-.226-1.642-.077.03-.15.07-.22.116-.229.164-.443.347-.64.549-.224.227-.43.473-.613.735v.001-.001a5.536 5.536 0 0 0-.88 1.986l-.008.043c-.013.058-.068.35-.076.414-.05.302-.083.607-.097.914v.034a6.557 6.557 0 0 0 13.017 1.108l.03-.253a6.743 6.743 0 0 0-.426-3.294Zm-.65.337v.006-.007Z" fill="url(#l)"/><defs><radialGradient id="b" cx="0" cy="0" r="1" gradientUnits="userSpaceOnUse" gradientTransform="translate(44.777 34.536) scale(13.6677)"><stop offset=".129" stop-color="#FFBD4F"/><stop offset=".186" stop-color="#FFAC31"/><stop offset=".247" stop-color="#FF9D17"/><stop offset=".283" stop-color="#FF980E"/><stop offset=".403" stop-color="#FF563B"/><stop offset=".467" stop-color="#FF3750"/><stop offset=".71" stop-color="#F5156C"/><stop offset=".782" stop-color="#EB0878"/><stop offset=".86" stop-color="#E50080"/></radialGradient><radialGradient id="c" cx="0" cy="0" r="1" gradientUnits="userSpaceOnUse" gradientTransform="translate(39.702 40.118) scale(13.6677)"><stop offset=".3" stop-color="#960E18"/><stop offset=".351" stop-color="#B11927" stop-opacity=".74"/><stop offset=".435" stop-color="#DB293D" stop-opacity=".343"/><stop offset=".497" stop-color="#F5334B" stop-opacity=".094"/><stop offset=".53" stop-color="#FF3750" stop-opacity="0"/></radialGradient><radialGradient id="d" cx="0" cy="0" r="1" gradientUnits="userSpaceOnUse" gradientTransform="translate(41.394 31.491) scale(9.90066)"><stop offset=".132" stop-color="#FFF44F"/><stop offset=".252" stop-color="#FFDC3E"/><stop offset=".506" stop-color="#FF9D12"/><stop offset=".526" stop-color="#FF980E"/></radialGradient><radialGradient id="e" cx="0" cy="0" r="1" gradientUnits="userSpaceOnUse" gradientTransform="translate(38.18 43.67) scale(6.5074)"><stop offset=".353" stop-color="#3A8EE6"/><stop offset=".472" stop-color="#5C79F0"/><stop offset=".669" stop-color="#9059FF"/><stop offset="1" stop-color="#C139E6"/></radialGradient><radialGradient id="f" cx="0" cy="0" r="1" gradientUnits="userSpaceOnUse" gradientTransform="matrix(3.35414 -.81093 .9494 3.92687 40.363 38.945)"><stop offset=".206" stop-color="#9059FF" stop-opacity="0"/><stop offset=".278" stop-color="#8C4FF3" stop-opacity=".064"/><stop offset=".747" stop-color="#7716A8" stop-opacity=".45"/><stop offset=".975" stop-color="#6E008B" stop-opacity=".6"/></radialGradient><radialGradient id="g" cx="0" cy="0" r="1" gradientUnits="userSpaceOnUse" gradientTransform="translate(39.533 34.028) scale(4.68222)"><stop stop-color="#FFE226"/><stop offset=".121" stop-color="#FFDB27"/><stop offset=".295" stop-color="#FFC82A"/><stop offset=".502" stop-color="#FFA930"/><stop offset=".732" stop-color="#FF7E37"/><stop offset=".792" stop-color="#FF7139"/></radialGradient><radialGradient id="h" cx="0" cy="0" r="1" gradientUnits="userSpaceOnUse" gradientTransform="translate(43.254 30.983) scale(19.9772)"><stop offset=".113" stop-color="#FFF44F"/><stop offset=".456" stop-color="#FF980E"/><stop offset=".622" stop-color="#FF5634"/><stop offset=".716" stop-color="#FF3647"/><stop offset=".904" stop-color="#E31587"/></radialGradient><radialGradient id="i" cx="0" cy="0" r="1" gradientUnits="userSpaceOnUse" gradientTransform="rotate(83.976 2.969 39.153) scale(14.6396 9.60783)"><stop stop-color="#FFF44F"/><stop offset=".06" stop-color="#FFE847"/><stop offset=".168" stop-color="#FFC830"/><stop offset=".304" stop-color="#FF980E"/><stop offset=".356" stop-color="#FF8B16"/><stop offset=".455" stop-color="#FF672A"/><stop offset=".57" stop-color="#FF3647"/><stop offset=".737" stop-color="#E31587"/></radialGradient><radialGradient id="j" cx="0" cy="0" r="1" gradientUnits="userSpaceOnUse" gradientTransform="translate(39.533 35.72) scale(12.4701)"><stop offset=".137" stop-color="#FFF44F"/><stop offset=".48" stop-color="#FF980E"/><stop offset=".592" stop-color="#FF5634"/><stop offset=".655" stop-color="#FF3647"/><stop offset=".904" stop-color="#E31587"/></radialGradient><radialGradient id="k" cx="0" cy="0" r="1" gradientUnits="userSpaceOnUse" gradientTransform="translate(42.747 36.397) scale(13.6491)"><stop offset=".094" stop-color="#FFF44F"/><stop offset=".231" stop-color="#FFE141"/><stop offset=".509" stop-color="#FFAF1E"/><stop offset=".626" stop-color="#FF980E"/></radialGradient><linearGradient id="a" x1="45.198" y1="35.108" x2="34.314" y2="45.609" gradientUnits="userSpaceOnUse"><stop offset=".048" stop-color="#FFF44F"/><stop offset=".111" stop-color="#FFE847"/><stop offset=".225" stop-color="#FFC830"/><stop offset=".368" stop-color="#FF980E"/><stop offset=".401" stop-color="#FF8B16"/><stop offset=".462" stop-color="#FF672A"/><stop offset=".534" stop-color="#FF3647"/><stop offset=".705" stop-color="#E31587"/></linearGradient><linearGradient id="l" x1="45.066" y1="35.053" x2="35.806" y2="44.314" gradientUnits="userSpaceOnUse"><stop offset=".167" stop-color="#FFF44F" stop-opacity=".8"/><stop offset=".266" stop-color="#FFF44F" stop-opacity=".634"/><stop offset=".489" stop-color="#FFF44F" stop-opacity=".217"/><stop offset=".6" stop-color="#FFF44F" stop-opacity="0"/></linearGradient></defs></svg>
