<?xml version="1.0" encoding="UTF-8" standalone="no"?>
<svg
   xmlns="http://www.w3.org/2000/svg"
   version="1.1"
   x="0"
   y="0"
   width="24px"
   height="7992px"
   viewBox="0 0 24 7992"
   preserveAspectRatio="none">
  <path
     style="opacity:1;fill:#338000;fill-opacity:1;stroke:#333333;stroke-width:0.00377953;stroke-linecap:round;stroke-linejoin:round;stroke-miterlimit:4;stroke-dasharray:none"
     d="m 12.254729,7226.1639 a 10.219037,9.9150381 0 0 0 -10.2187504,9.914 10.219037,9.9150381 0 0 0 10.2187504,9.916 10.219037,9.9150381 0 0 0 10.21875,-9.916 10.219037,9.9150381 0 0 0 -10.21875,-9.914 z m -4.8632817,5.4238 a 1.8472255,1.8472254 0 0 1 1.8476563,1.8476 1.8472255,1.8472254 0 0 1 -1.8476563,1.8477 1.8472255,1.8472254 0 0 1 -1.8476563,-1.8477 1.8472255,1.8472254 0 0 1 1.8476563,-1.8476 z m 7.9511717,0.1894 a 2.8750086,2.8750083 0 0 1 2.875,2.875 2.8750086,2.8750083 0 0 1 -2.875,2.875 2.8750086,2.8750083 0 0 1 -2.875,-2.875 2.8750086,2.8750083 0 0 1 2.875,-2.875 z m -9.4726561,5.9942 c 2.3418683,-0.014 5.6283111,3.4184 11.8808601,3.3125 l 0.560546,0.8418 c -2.199521,1.9496 -11.6343041,3.7181 -13.9374997,-3.5078 0.4646917,-0.456 0.9556625,-0.6433 1.4960936,-0.6465 z"/>
</svg>
