<!-- This Source Code Form is subject to the terms of the Mozilla Public
   - License, v. 2.0. If a copy of the MPL was not distributed with this
   - file, You can obtain one at http://mozilla.org/MPL/2.0/. -->
<svg width="16" height="16" viewBox="0 0 16 16" xmlns="http://www.w3.org/2000/svg">
  <path fill="context-fill" d="M14,7H12.9a4.967,4.967,0,0,0-.732-1.753l.782-.783A1,1,0,1,0,11.535,3.05l-.782.783A4.968,4.968,0,0,0,9,3.1V2A1,1,0,0,0,7,2V3.1a4.968,4.968,0,0,0-1.753.732L4.464,3.05A1,1,0,0,0,3.05,4.464l.783.783A4.968,4.968,0,0,0,3.1,7H2A1,1,0,0,0,2,9H3.1a4.968,4.968,0,0,0,.732,1.753l-.783.782a1,1,0,1,0,1.414,1.414l.783-.782A4.967,4.967,0,0,0,7,12.9V14a1,1,0,0,0,2,0V12.9a4.968,4.968,0,0,0,1.753-.732l.782.782a1,1,0,0,0,1.414-1.414l-.782-.782A4.968,4.968,0,0,0,12.9,9H14a1,1,0,0,0,0-2ZM8,11a3,3,0,1,1,3-3A3,3,0,0,1,8,11Z"/>
</svg>
