<!-- This Source Code Form is subject to the terms of the Mozilla Public
   - License, v. 2.0. If a copy of the MPL was not distributed with this
   - file, You can obtain one at http://mozilla.org/MPL/2.0/. -->
<svg width="16" height="16" viewBox="0 0 16 16" fill="context-fill" xmlns="http://www.w3.org/2000/svg">
  <path fill-opacity=".15" d="M8,0a8,8,0,1,0,8,8A8,8,0,0,0,8,0ZM8,13a5,5,0,1,1,5-5A5,5,0,0,1,8,13Z"/>
  <path d="M8,1A7,7,0,1,1,1,8,7,7,0,0,1,8,1M8,0a8,8,0,1,0,8,8A8,8,0,0,0,8,0Z"/>
  <path fill-opacity=".25" d="M8,3A5,5,0,1,1,3,8,5,5,0,0,1,8,3M8,2a6,6,0,1,0,6,6A6,6,0,0,0,8,2Z"/>
  <path d="M10.5,9H7V4.5a.5.5,0,0,1,1,0V8h2.5a.5.5,0,1,1,0,1Z"/>
</svg>
