<svg width="16" height="16" viewBox="0 0 16 16" fill="context-fill" fill-opacity="context-fill-opacity" xmlns="http://www.w3.org/2000/svg"><path fill-rule="evenodd" d="M3.63 1.005A2.625 2.625 0 0 0 1.005 3.63v7.77a2.625 2.625 0 0 0 2.625 2.624h3.414c.065-.29.21-.567.437-.793l.457-.457H3.63c-.76 0-1.375-.615-1.375-1.375V6.18h11.5v.95c.4-.166.85-.166 1.25 0V3.63a2.625 2.625 0 0 0-2.625-2.625H3.63Zm11.375 7.626v-.002a.625.625 0 0 0-1.067-.441l-.183.183v1.768l1.067-1.067a.623.623 0 0 0 .183-.441Zm-1.702 3.788a1.37 1.37 0 0 1-.923.355h-.49l1.163 1.163c.432-.114.82-.335 1.134-.634l-.884-.884Zm1.471.057-.97-.971 1.201-1.202V11.4c0 .384-.082.749-.23 1.077Zm-3.048 1.548-.221-.22-.221.22h.442Zm-1.856 0 1.25-1.25H9.352l-1.164 1.164a.628.628 0 0 0-.072.086H9.87ZM2.255 3.63c0-.76.616-1.375 1.375-1.375h8.75c.76 0 1.375.616 1.375 1.375v1.298h-11.5V3.63Z" clip-rule="evenodd"/><path fill-rule="evenodd" d="M8.188 8.188a.625.625 0 0 1 .884 0l2.433 2.433 2.433-2.433a.625.625 0 1 1 .884.884l-2.433 2.433 2.433 2.433a.625.625 0 1 1-.884.884l-2.433-2.433-2.433 2.433a.625.625 0 1 1-.884-.884l2.433-2.433-2.433-2.433a.625.625 0 0 1 0-.884Z" clip-rule="evenodd"/></svg>