<svg xmlns="http://www.w3.org/2000/svg" width="16" height="16" viewBox="0 0 16 16" fill="context-fill" fill-opacity="context-fill-opacity"><path fill-rule="evenodd" d="M11.188 5.058a.625.625 0 0 1 .884 0l2.146 2.147c.44.439.44 1.151 0 1.59l-2.146 2.147a.625.625 0 1 1-.884-.884L13.246 8l-2.058-2.058a.625.625 0 0 1 0-.884ZM9.557 3.034c.33.103.513.454.41.783l-2.74 8.74a.625.625 0 0 1-1.193-.374l2.74-8.74a.625.625 0 0 1 .783-.41ZM4.812 5.058a.625.625 0 0 1 0 .884L2.754 8l2.058 2.058a.625.625 0 1 1-.884.884L1.782 8.796a1.125 1.125 0 0 1 0-1.591l2.146-2.147a.625.625 0 0 1 .884 0Z" clip-rule="evenodd"/></svg>
