<svg xmlns="http://www.w3.org/2000/svg" width="16" height="16" viewBox="0 0 16 16" fill="context-fill" fill-opacity="context-fill-opacity"><path fill-rule="evenodd" d="M1.005 3.63A2.625 2.625 0 0 1 3.63 1.005h8.75a2.625 2.625 0 0 1 2.625 2.625v8.77a2.625 2.625 0 0 1-2.625 2.624H3.63A2.625 2.625 0 0 1 1.005 12.4V3.63ZM3.63 2.255c-.76 0-1.375.616-1.375 1.375v1.298h11.5V3.63c0-.76-.616-1.375-1.375-1.375H3.63Zm10.125 3.923h-11.5V12.4c0 .76.616 1.375 1.375 1.375h8.75c.76 0 1.375-.615 1.375-1.375V6.18Z" clip-rule="evenodd"/><path  fill-rule="evenodd" d="M3.546 7.2a.625.625 0 0 1 .884-.024l2.117 2.008c.468.443.468 1.189 0 1.632L4.43 12.824a.625.625 0 1 1-.86-.908L5.592 10 3.57 8.084a.625.625 0 0 1-.024-.884Z" clip-rule="evenodd"/></svg>