<svg xmlns="http://www.w3.org/2000/svg" width="16" height="16" viewBox="0 0 16 16" fill="context-fill" fill-opacity="context-fill-opacity"><path fill-rule="evenodd" d="M1.63 2.245c.345 0 .625.28.625.625v8.5c0 .76.616 1.375 1.375 1.375h11a.625.625 0 1 1 0 1.25h-11a2.625 2.625 0 0 1-2.625-2.625v-8.5c0-.345.28-.625.625-.625Z" clip-rule="evenodd"/><path fill-rule="evenodd" d="M7.37 3.245c.345 0 .625.28.625.625v7.5a.625.625 0 1 1-1.25 0v-7.5c0-.345.28-.625.625-.625Zm3 2.5c.345 0 .625.28.625.625v5a.625.625 0 1 1-1.25 0v-5c0-.345.28-.625.625-.625Zm-6 2c.345 0 .625.28.625.625v3a.625.625 0 1 1-1.25 0v-3c0-.345.28-.625.625-.625Zm9 0c.345 0 .625.28.625.625v3a.625.625 0 1 1-1.25 0v-3c0-.345.28-.625.625-.625Z" clip-rule="evenodd"/></svg>
