<svg xmlns="http://www.w3.org/2000/svg" width="16" height="16" viewBox="0 0 16 16" fill="context-fill" fill-opacity="context-fill-opacity"><path fill-rule="evenodd" d="M4 1a2 2 0 0 0-2 2v5.018a3.834 3.834 0 0 1 1.25.086V3A.75.75 0 0 1 4 2.25h4V6a1 1 0 0 0 1 1h3.75v1.362c.162.073.32.157.476.252l.774.47-1.158 2.596a2.955 2.955 0 0 1 .7 1.035 3.141 3.141 0 0 1 .21 1.25A1.99 1.99 0 0 0 14 13V6.828a2 2 0 0 0-.586-1.414L9.586 1.586A2 2 0 0 0 8.172 1H4Z" clip-rule="evenodd"/><path d="M12.674 13.903c0 .659-.188 1.174-.563 1.545-.37.368-.92.552-1.646.552-.645 0-1.178-.131-1.6-.394v-1.4c.215.154.465.28.75.382.29.1.543.151.762.151.242 0 .426-.06.55-.181a.654.654 0 0 0 .194-.491.799.799 0 0 0-.2-.54c-.132-.153-.376-.341-.731-.563-.473-.291-.813-.6-1.02-.928-.203-.33-.305-.72-.305-1.17 0-.573.19-1.028.569-1.363.382-.335.906-.503 1.57-.503.578 0 1.123.158 1.635.473l-.51 1.157c-.418-.234-.785-.351-1.102-.351-.199 0-.35.054-.45.163a.578.578 0 0 0-.147.4c0 .182.06.344.181.485.125.142.356.317.692.527.406.255.691.471.855.649.164.178.291.38.381.606.09.226.135.491.135.794ZM8.186 13.903c0 .659-.188 1.174-.563 1.545-.371.368-.92.552-1.646.552-.645 0-1.178-.131-1.6-.394v-1.4c.215.154.465.28.75.382.289.1.543.151.762.151.242 0 .425-.06.55-.181a.654.654 0 0 0 .194-.491.798.798 0 0 0-.2-.54c-.132-.153-.376-.341-.732-.563-.472-.291-.812-.6-1.02-.928-.202-.33-.304-.72-.304-1.17 0-.573.19-1.028.568-1.363.383-.335.907-.503 1.57-.503.579 0 1.124.158 1.635.473l-.51 1.157c-.417-.234-.785-.351-1.1-.351-.2 0-.35.054-.452.163a.578.578 0 0 0-.147.4c0 .182.061.344.182.485.125.142.356.317.691.527.407.255.692.471.856.649.164.178.29.38.38.606.09.226.136.491.136.794ZM2.385 16c-.778 0-1.37-.293-1.776-.879C.203 14.535 0 13.675 0 12.54c0-1.188.191-2.074.574-2.66C.961 9.293 1.557 9 2.361 9c.243 0 .496.036.762.11.266.072.504.177.715.314l-.445 1.255c-.325-.198-.612-.297-.862-.297-.332 0-.572.18-.72.54-.145.355-.217.89-.217 1.605 0 .7.072 1.223.217 1.57.144.343.38.515.709.515.39 0 .798-.141 1.224-.424v1.418a2.47 2.47 0 0 1-1.36.394Z"/></svg>
