<svg xmlns="http://www.w3.org/2000/svg" width="16" height="16" viewBox="0 0 16 16" fill="context-fill" fill-opacity="context-fill-opacity"><path fill-rule="evenodd" d="M4.014 2H4a2 2 0 0 0-2 2v10a2 2 0 0 0 2 2h8a2 2 0 0 0 2-2V4a2 2 0 0 0-2-2h-.014a2.24 2.24 0 0 1-.22 1.25H12a.75.75 0 0 1 .75.75v10a.75.75 0 0 1-.75.75H4a.75.75 0 0 1-.75-.75V4A.75.75 0 0 1 4 3.25h.234A2.24 2.24 0 0 1 4.014 2ZM10.5 3.25h-5A1.248 1.248 0 0 1 5.025 2h5.95a1.256 1.256 0 0 1-.475 1.25Z" clip-rule="evenodd"/><path d="M5 2.25C5 1.56 5.56 1 6.25 1h3.5a1.25 1.25 0 1 1 0 2.5h-3.5C5.56 3.5 5 2.94 5 2.25ZM4.25 5.625c0-.345.28-.625.625-.625h3.75a.625.625 0 1 1 0 1.25h-3.75a.625.625 0 0 1-.625-.625ZM4.25 7.625c0-.345.28-.625.625-.625h4.75a.625.625 0 1 1 0 1.25h-4.75a.625.625 0 0 1-.625-.625ZM4.25 9.625c0-.345.28-.625.625-.625h2.75a.625.625 0 1 1 0 1.25h-2.75a.625.625 0 0 1-.625-.625Z"/></svg>