<svg xmlns="http://www.w3.org/2000/svg" width="16" height="16" viewBox="0 0 16 16" fill="context-fill" fill-opacity="context-fill-opacity"><path fill-rule="evenodd" d="M4.5 13.75a1.25 1.25 0 1 0 0-2.5 1.25 1.25 0 0 0 0 2.5Zm0 1.25a2.5 2.5 0 1 0 0-5 2.5 2.5 0 0 0 0 5ZM11.5 13.75a1.25 1.25 0 1 0 0-2.5 1.25 1.25 0 0 0 0 2.5Zm0 1.25a2.5 2.5 0 1 0 0-5 2.5 2.5 0 0 0 0 5Z" clip-rule="evenodd"/><path fill-rule="evenodd" d="M4.285 1.109a.625.625 0 0 1 .866.176l5.87 8.87a.625.625 0 1 1-1.042.69l-5.87-8.87a.625.625 0 0 1 .176-.866Z" clip-rule="evenodd"/><path fill-rule="evenodd" d="M10.849 1.285a.625.625 0 1 1 1.042.69L9.25 5.967 8.5 4.834l2.349-3.549ZM7.75 5.967l-2.772 4.188a.625.625 0 1 0 1.042.69L8.5 7.099l-.75-1.132Z" clip-rule="evenodd"/></svg>