<svg xmlns="http://www.w3.org/2000/svg" width="16" height="16" viewBox="0 0 16 16" fill="context-fill" fill-opacity="context-fill-opacity"><path fill-rule="evenodd" d="M9.624 2.625a6.25 6.25 0 0 0-7.716 3.099l-1.12-.557a7.5 7.5 0 1 1-.783 3.338.625.625 0 1 1 1.25 0 6.25 6.25 0 1 0 8.369-5.88Z" clip-rule="evenodd"/><path fill-rule="evenodd" d="M.63 1.375c.345 0 .625.28.625.625v3.375H4.63a.625.625 0 1 1 0 1.25h-4A.625.625 0 0 1 .005 6V2c0-.345.28-.625.625-.625ZM7.625 4A.625.625 0 0 0 7 4.625V7.79L4.278 9.605a.625.625 0 0 0 .694 1.04l3-2a.625.625 0 0 0 .278-.52v-3.5A.625.625 0 0 0 7.625 4Z" clip-rule="evenodd"/></svg>