<svg xmlns="http://www.w3.org/2000/svg" width="16" height="16" viewBox="0 0 16 16" fill="context-fill" fill-opacity="context-fill-opacity"><path d="M8 4.625C8 4.28 8.28 4 8.625 4h6.75a.625.625 0 1 1 0 1.25h-6.75A.625.625 0 0 1 8 4.625ZM8 7.995c0-.345.28-.625.625-.625h6.75a.625.625 0 1 1 0 1.25h-6.75A.625.625 0 0 1 8 7.995ZM8 11.375c0-.345.28-.625.625-.625h6.75a.625.625 0 1 1 0 1.25h-6.75A.625.625 0 0 1 8 11.375Z"/><path d="M7.17 5.349A1.625 1.625 0 0 1 8.625 3h.58l-.277-.69c-.336-.836-1.52-.836-1.856 0l-.907 2.26a1 1 0 0 1-.86.625l-2.429.164c-.9.061-1.265 1.188-.573 1.765L4.17 8.685a1 1 0 0 1 .33 1.012l-.595 2.36c-.22.874.738 1.57 1.502 1.091l1.742-1.093a1.62 1.62 0 0 1 .048-1.456 2.251 2.251 0 0 0-.393.196l-1.535.963.442-1.756a2.25 2.25 0 0 0-.739-2.276l-1.39-1.162 1.807-.122a2.25 2.25 0 0 0 1.78-1.093ZM10.357 13l.236.148A.992.992 0 0 0 11.841 13h-1.484Z"/></svg>
