<svg xmlns="http://www.w3.org/2000/svg" width="16" height="16" viewBox="0 0 16 16" fill="context-fill" fill-opacity="context-fill-opacity"><path fill-rule="evenodd" d="M12.75 10v3a.75.75 0 0 1-.75.75H4a.75.75 0 0 1-.75-.75v-3H2v3a2 2 0 0 0 2 2h8a2 2 0 0 0 2-2v-3h-1.25ZM13 5.25H3a.75.75 0 0 0-.75.75v1c0 .414.336.75.75.75h10a.75.75 0 0 0 .75-.75V6a.75.75 0 0 0-.75-.75ZM3 4a2 2 0 0 0-2 2v1a2 2 0 0 0 2 2h10a2 2 0 0 0 2-2V6a2 2 0 0 0-2-2H3Z" clip-rule="evenodd"/><path d="M7 5.25v2.5h2v-2.5H7ZM7 10v3.75h2V10H7ZM8 3.75 6.25 2A1.06 1.06 0 0 1 7.75.5L8 .75 8.25.5A1.06 1.06 0 0 1 9.75 2L8 3.75Z"/></svg>
