<?xml version="1.0" encoding="UTF-8" standalone="no"?>
<!DOCTYPE svg PUBLIC "-//W3C//DTD SVG 1.1//EN" "http://www.w3.org/Graphics/SVG/1.1/DTD/svg11.dtd">
<!-- Created with Vectornator (http://vectornator.io/) -->
<svg height="210.0pt" stroke-miterlimit="10" style="fill-rule:nonzero;clip-rule:evenodd;stroke-linecap:round;stroke-linejoin:round;" version="1.1" viewBox="0 0 570 210" width="570.0pt" xml:space="preserve" xmlns="http://www.w3.org/2000/svg" xmlns:vectornator="http://vectornator.io" xmlns:xlink="http://www.w3.org/1999/xlink">
<defs>
<path d="M49.3659 155C49.3659 143.954 58.3207 135 69.3669 135C80.4132 135 89.368 143.954 89.368 155C89.368 166.046 80.4132 175 69.3669 175C58.3207 175 49.3659 166.046 49.3659 155Z" id="Fill"/>
<path d="M129.37 155C129.37 143.954 138.325 135 149.371 135C160.418 135 169.372 143.954 169.372 155C169.372 166.046 160.418 175 149.371 175C138.325 175 129.37 166.046 129.37 155Z" id="Fill_2"/>
<path d="M234.374 155C234.374 143.954 243.329 135 254.376 135C265.422 135 274.377 143.954 274.377 155C274.377 166.046 265.422 175 254.376 175C243.329 175 234.374 166.046 234.374 155Z" id="Fill_3"/>
</defs>
<path d="M0 0L570 0L570 210L0 210L0 0Z" fill="#f0f0f4" fill-rule="nonzero" opacity="1" stroke="none" vectornator:artboardBackground="true"/>
<g id="レイヤー-1" vectornator:layerName="レイヤー 1">
<path d="M89.375 10C78.3293 10 69.375 18.9543 69.375 30L69.375 80C69.375 91.0457 60.4207 100 49.375 100L0 100L0 210L570 210L570 100L389.375 100C378.329 100 369.375 91.0457 369.375 80L369.375 30C369.375 18.9543 360.421 10 349.375 10L89.375 10Z" fill="#f9f9fb" fill-rule="nonzero" opacity="1" stroke="none" vectornator:layerName="曲線 4"/>
<g opacity="1" vectornator:layerName="楕円形 2">
<mask height="40" id="StrokeMask" maskUnits="userSpaceOnUse" width="40.0022" x="49.3659" y="135">
<rect fill="#000000" height="40" stroke="none" width="40.0022" x="49.3659" y="135"/>
<use fill="#ffffff" fill-rule="evenodd" stroke="none" xlink:href="#Fill"/>
</mask>
<use fill="none" mask="url(#StrokeMask)" stroke="#5b5b67" stroke-linecap="butt" stroke-linejoin="round" stroke-width="10" xlink:href="#Fill"/>
</g>
<g opacity="1" vectornator:layerName="楕円形 4">
<mask height="40" id="StrokeMask_2" maskUnits="userSpaceOnUse" width="40.0022" x="129.37" y="135">
<rect fill="#000000" height="40" stroke="none" width="40.0022" x="129.37" y="135"/>
<use fill="#ffffff" fill-rule="evenodd" stroke="none" xlink:href="#Fill_2"/>
</mask>
<use fill="none" mask="url(#StrokeMask_2)" stroke="#5b5b67" stroke-linecap="butt" stroke-linejoin="round" stroke-width="10" xlink:href="#Fill_2"/>
</g>
<path d="M247.125 115C226.275 115 209.375 131.9 209.375 152.75L209.375 157.25C209.375 178.1 226.275 195 247.125 195L570 195L570 115L247.125 115Z" fill="#f0f0f4" fill-rule="nonzero" opacity="1" stroke="none" vectornator:layerName="曲線 5"/>
<g opacity="1" vectornator:layerName="楕円形 3">
<mask height="40" id="StrokeMask_3" maskUnits="userSpaceOnUse" width="40.0022" x="234.374" y="135">
<rect fill="#000000" height="40" stroke="none" width="40.0022" x="234.374" y="135"/>
<use fill="#ffffff" fill-rule="evenodd" stroke="none" xlink:href="#Fill_3"/>
</mask>
<use fill="none" mask="url(#StrokeMask_3)" stroke="#5b5b67" stroke-linecap="butt" stroke-linejoin="round" stroke-width="10" xlink:href="#Fill_3"/>
</g>
<path d="M299.375 150C296.619 150 294.375 152.244 294.375 155C294.375 157.756 296.619 160 299.375 160L570 160L570 150L299.375 150Z" fill="#5b5b67" fill-rule="nonzero" opacity="1" stroke="none" vectornator:layerName="曲線 6"/>
<path d="M119.367 54.9318C119.367 52.208 121.575 50 124.299 50L314.435 50C317.159 50 319.367 52.208 319.367 54.9318L319.367 55.0682C319.367 57.792 317.159 60 314.435 60L124.299 60C121.575 60 119.367 57.792 119.367 55.0682L119.367 54.9318Z" fill="#5b5b67" fill-rule="nonzero" opacity="1" stroke="none" vectornator:layerName="長方形 14"/>
<path d="M424.312 50C421.589 50 419.375 52.2138 419.375 54.9375L419.375 55.0625C419.375 57.7862 421.589 60 424.312 60L570 60L570 50L424.312 50Z" fill="#6a6a6e" fill-rule="nonzero" opacity="1" stroke="none" vectornator:layerName="曲線 3"/>
</g>
</svg>
