<!-- This Source Code Form is subject to the terms of the Mozilla Public
   - License, v. 2.0. If a copy of the MPL was not distributed with this
   - file, You can obtain one at http://mozilla.org/MPL/2.0/. -->

<svg viewBox="0 0 288 180" xmlns="http://www.w3.org/2000/svg"><circle cx="144" cy="90" fill="#bfbfc9" opacity=".15" r="72"/><path d="m68.3 106.33h-.5v14h.5 4 .5v-14h-.5z" fill="none"/><path d="m92.3 106.33h-.5v14h.5 4 .5v-14h-.5z" fill="none"/><path d="m80.3 106.33h-.5v14h.5 4 .5v-14h-.5z" fill="none"/><path d="m92.3 103.33h4v3h-4z" fill="#ffbd4f"/><path d="m68.3 103.33h4v3h-4z" fill="#ffbd4f"/><path d="m80.3 103.33h4v3h-4z" fill="#ffbd4f"/><path d="m92.3 120.33h4v3h-4z" fill="#ffbd4f"/><path d="m80.3 120.33h4v3h-4z" fill="#ffbd4f"/><path d="m68.3 120.33h4v3h-4z" fill="#ffbd4f"/><g fill="#ffa436"><path d="m67.8 103.33h.5v3h-.5z"/><path d="m67.8 120.33h.5v3h-.5z"/><path d="m72.3 103.33h.5v3h-.5z"/><path d="m72.3 120.33h.5v3h-.5z"/><path d="m79.8 103.33h.5v3h-.5z"/><path d="m79.8 120.33h.5v3h-.5z"/><path d="m84.3 103.33h.5v3h-.5z"/><path d="m84.3 120.33h.5v3h-.5z"/><path d="m91.8 103.33h.5v3h-.5z"/><path d="m91.8 120.33h.5v3h-.5z"/><path d="m96.3 103.33h.5v3h-.5z"/><path d="m96.3 120.33h.5v3h-.5z"/></g><path d="m67.8 106.33v-9a.5.5 0 0 0 -.14-.35l-3-3a.5.5 0 0 0 -.66.02l-3 3a.47.47 0 0 0 -.15.35v32a.5.5 0 0 0 .5.5h6a.5.5 0 0 0 .5-.5v-23zm-2.5 15a1 1 0 1 1 -1-1 1 1 0 0 1 1 1zm-1-18a1 1 0 1 1 -1 1 1 1 0 0 1 1-1z" fill="#ffd567"/><path d="m79.8 106.33v-9a.5.5 0 0 0 -.14-.35l-3-3a.5.5 0 0 0 -.66.02l-3 3a.47.47 0 0 0 -.15.35v32a.5.5 0 0 0 .5.5h6a.5.5 0 0 0 .5-.5v-23zm-2.5 15a1 1 0 1 1 -1-1 1 1 0 0 1 1 1zm-1-18a1 1 0 1 1 -1 1 1 1 0 0 1 1-1z" fill="#ffd567"/><path d="m91.8 106.33v-9a.5.5 0 0 0 -.14-.35l-3-3a.5.5 0 0 0 -.66.02l-3 3a.47.47 0 0 0 -.15.35v32a.5.5 0 0 0 .5.5h6a.5.5 0 0 0 .5-.5v-23zm-2.5 15a1 1 0 1 1 -1-1 1 1 0 0 1 1 1zm-1-18a1 1 0 1 1 -1 1 1 1 0 0 1 1-1z" fill="#ffd567"/><path d="m103.66 97-3-3a.5.5 0 0 0 -.71 0l-3 3a.47.47 0 0 0 -.15.35v32a.5.5 0 0 0 .5.5h6a.5.5 0 0 0 .5-.5v-32a.5.5 0 0 0 -.14-.35zm-2.36 7.35a1 1 0 1 1 -1-1 1 1 0 0 1 1 .98zm0 17a1 1 0 1 1 -1-1 1 1 0 0 1 1 .98z" fill="#ffd567"/><circle cx="88.3" cy="104.33" fill="#afafbb" r="1"/><circle cx="100.3" cy="104.33" fill="#afafbb" r="1"/><circle cx="76.3" cy="104.33" fill="#afafbb" r="1"/><circle cx="64.3" cy="104.33" fill="#afafbb" r="1"/><circle cx="88.3" cy="121.33" fill="#afafbb" r="1"/><circle cx="100.3" cy="121.33" fill="#afafbb" r="1"/><circle cx="76.3" cy="121.33" fill="#afafbb" r="1"/><circle cx="64.3" cy="121.33" fill="#afafbb" r="1"/><path d="m191.7 106.33h-.5v14h.5 4 .5v-14h-.5z" fill="none"/><path d="m215.7 106.33h-.5v14h.5 4 .5v-14h-.5z" fill="none"/><path d="m203.7 106.33h-.5v14h.5 4 .5v-14h-.5z" fill="none"/><path d="m215.7 103.33h4v3h-4z" fill="#ffbd4f"/><path d="m191.7 103.33h4v3h-4z" fill="#ffbd4f"/><path d="m203.7 103.33h4v3h-4z" fill="#ffbd4f"/><path d="m215.7 120.33h4v3h-4z" fill="#ffbd4f"/><path d="m203.7 120.33h4v3h-4z" fill="#ffbd4f"/><path d="m191.7 120.33h4v3h-4z" fill="#ffbd4f"/><path d="m191.2 103.33h.5v3h-.5z" fill="#ffa436"/><path d="m191.2 120.33h.5v3h-.5z" fill="#ffa436"/><path d="m195.7 103.33h.5v3h-.5z" fill="#ffa436"/><path d="m195.7 120.33h.5v3h-.5z" fill="#ffa436"/><path d="m203.2 103.33h.5v3h-.5z" fill="#ffa436"/><path d="m203.2 120.33h.5v3h-.5z" fill="#ffa436"/><path d="m207.7 103.33h.5v3h-.5z" fill="#ffa436"/><path d="m207.7 120.33h.5v3h-.5z" fill="#ffa436"/><path d="m215.2 103.33h.5v3h-.5z" fill="#ffa436"/><path d="m215.2 120.33h.5v3h-.5z" fill="#ffa436"/><path d="m219.7 103.33h.5v3h-.5z" fill="#ffa436"/><path d="m219.7 120.33h.5v3h-.5z" fill="#ffa436"/><path d="m191.2 106.33v-9a.47.47 0 0 0 -.15-.35l-3-3a.5.5 0 0 0 -.71 0l-3 3a.5.5 0 0 0 -.14.35v32a.5.5 0 0 0 .5.5h6a.5.5 0 0 0 .5-.5zm-2.5 15a1 1 0 1 1 -1-1 1 1 0 0 1 1 1zm-1-18a1 1 0 1 1 -1 1 1 1 0 0 1 1-1z" fill="#ffd567"/><path d="m203.2 106.33v-9a.47.47 0 0 0 -.15-.35l-3-3a.5.5 0 0 0 -.71 0l-3 3a.5.5 0 0 0 -.14.35v32a.5.5 0 0 0 .5.5h6a.5.5 0 0 0 .5-.5zm-2.5 15a1 1 0 1 1 -1-1 1 1 0 0 1 1 1zm-1-18a1 1 0 1 1 -1 1 1 1 0 0 1 1-1z" fill="#ffd567"/><path d="m215.2 106.33v-9a.47.47 0 0 0 -.15-.35l-3-3a.5.5 0 0 0 -.71 0l-3 3a.5.5 0 0 0 -.14.35v32a.5.5 0 0 0 .5.5h6a.5.5 0 0 0 .5-.5zm-2.5 15a1 1 0 1 1 -1-1 1 1 0 0 1 1 1zm-1-18a1 1 0 1 1 -1 1 1 1 0 0 1 1-1z" fill="#ffd567"/><path d="m227.05 97-3-3a.5.5 0 0 0 -.71 0l-3 3a.5.5 0 0 0 -.14.35v32a.5.5 0 0 0 .5.5h6a.5.5 0 0 0 .5-.5v-32a.47.47 0 0 0 -.15-.35zm-2.35 7.35a1 1 0 1 1 -1-1 1 1 0 0 1 1 .98zm0 17a1 1 0 1 1 -1-1 1 1 0 0 1 1 .98z" fill="#ffd567"/><circle cx="211.7" cy="104.33" fill="#afafbb" r="1"/><circle cx="223.7" cy="104.33" fill="#afafbb" r="1"/><circle cx="199.7" cy="104.33" fill="#afafbb" r="1"/><circle cx="187.7" cy="104.33" fill="#afafbb" r="1"/><circle cx="211.7" cy="121.33" fill="#afafbb" r="1"/><circle cx="223.7" cy="121.33" fill="#afafbb" r="1"/><circle cx="199.7" cy="121.33" fill="#afafbb" r="1"/><circle cx="187.7" cy="121.33" fill="#afafbb" r="1"/><path d="m193.26 122.56a5.24 5.24 0 0 0 1.22-3.33v-63.77a5.33 5.33 0 0 0 -5.31-5.31h-90.34a5.33 5.33 0 0 0 -5.31 5.31v63.77a5.24 5.24 0 0 0 1.22 3.33l-11.85 2v5.31h122.22v-5.31z" fill="#9f9fad"/><path d="m153.74 60.77-54.91 54.91a1.77 1.77 0 0 0 1.77 1.77h86.8a1.77 1.77 0 0 0 1.77-1.77v-54.91z" fill="#0090ed"/><path d="m98.83 60.77v54.91l54.91-54.91z" fill="#00a2f1"/><path d="m187.4 55.46h-86.8a1.78 1.78 0 0 0 -1.77 1.77v3.54h90.34v-3.54a1.78 1.78 0 0 0 -1.77-1.77z" fill="#0090ed"/><path d="m187.56 123.86h-86.79a.89.89 0 1 1 0-1.77h86.79a.89.89 0 0 1 0 1.77z" fill="#8f8f9d"/><path d="m137.47 126.17h12.4" fill="none" stroke="#80808e" stroke-linecap="round" stroke-linejoin="round"/><path d="m156.54 74.46-2.09 2.09v4.18h-4.18v-4.18l-2.09-2.09-2.09 2.09v4.18h-4.18v-4.18l-2.09-2.09-2.09 2.09v4.18h-4.18v-4.18l-2.09-2.09-2.09 2.09v23h4.18v-4.19h4.18v4.18h4.18v-4.18h4.18v4.18h4.18v-4.18h4.18v4.18h4.18v-23zm-18.81 18.81h-4.18v-10.45h4.18zm8.56 0h-3.69v-9.56h3.69zm8.16 0h-4.18v-10.45h4.18z" fill="#fff" fill-rule="evenodd"/></svg>