<!-- This Source Code Form is subject to the terms of the Mozilla Public
   - License, v. 2.0. If a copy of the MPL was not distributed with this
   - file, You can obtain one at http://mozilla.org/MPL/2.0/. -->
   
<svg viewBox="0 0 288 180" xmlns="http://www.w3.org/2000/svg"><circle cx="144" cy="90" fill="#bfbfc9" opacity=".15" r="72"/><rect fill="#0df" height="15.49" rx=".5" width="48.16" x="62.2" y="69.68"/><path d="m107.27 66.63h-42.13a7.22 7.22 0 0 0 -7.2 7.2v6.53a7.22 7.22 0 0 0 7.2 7.2h42.13a7.22 7.22 0 0 0 7.2-7.2v-6.53a7.22 7.22 0 0 0 -7.2-7.2zm-29.91 11.37a.39.39 0 0 1 .23.24.4.4 0 0 1 0 .34l-.89 1.51a.4.4 0 0 1 -.28.19.41.41 0 0 1 -.32-.08l-1.91-1.48.3 2.45a.41.41 0 0 1 -.4.46h-1.78a.41.41 0 0 1 -.31-.14.46.46 0 0 1 -.1-.32l.31-2.46-2 1.49a.42.42 0 0 1 -.33.08.45.45 0 0 1 -.27-.2l-.84-1.51a.38.38 0 0 1 0-.33.38.38 0 0 1 .23-.24l2.28-1-2.28-.9a.43.43 0 0 1 -.23-.25.42.42 0 0 1 0-.33l.88-1.52a.4.4 0 0 1 .27-.19.39.39 0 0 1 .33.07l2 1.49-.35-2.37a.46.46 0 0 1 .1-.32.41.41 0 0 1 .31-.14h1.74a.41.41 0 0 1 .4.46l-.3 2.44 2-1.48a.43.43 0 0 1 .33-.07.45.45 0 0 1 .27.2l.85 1.51a.47.47 0 0 1 0 .33.39.39 0 0 1 -.23.24l-2.28.94zm13 0a.39.39 0 0 1 .23.24.44.44 0 0 1 0 .34l-.89 1.51a.4.4 0 0 1 -.28.19.41.41 0 0 1 -.32-.08l-1.91-1.48.3 2.45a.41.41 0 0 1 -.1.32.41.41 0 0 1 -.3.14h-1.75a.41.41 0 0 1 -.3-.14.41.41 0 0 1 -.1-.32l.31-2.46-2 1.49a.42.42 0 0 1 -.33.08.45.45 0 0 1 -.27-.2l-.85-1.51a.47.47 0 0 1 0-.33.39.39 0 0 1 .2-.24l2.27-1-2.27-.9a.43.43 0 0 1 -.23-.25.42.42 0 0 1 0-.33l.92-1.52a.4.4 0 0 1 .27-.19.37.37 0 0 1 .32.07l2 1.49-.34-2.37a.41.41 0 0 1 .1-.32.41.41 0 0 1 .3-.14h1.75a.41.41 0 0 1 .3.14.41.41 0 0 1 .1.32l-.31 2.44 2-1.48a.42.42 0 0 1 .33-.07.45.45 0 0 1 .27.2l.84 1.51a.38.38 0 0 1 0 .33.38.38 0 0 1 -.22.24l-2.28.94zm13 0a.37.37 0 0 1 .23.24.4.4 0 0 1 0 .34l-.9 1.51a.4.4 0 0 1 -.27.19.41.41 0 0 1 -.32-.08l-1.92-1.48.31 2.45a.41.41 0 0 1 -.41.46h-1.7a.41.41 0 0 1 -.3-.14.41.41 0 0 1 -.1-.32l.31-2.46-2 1.49a.44.44 0 0 1 -.33.08.43.43 0 0 1 -.27-.2l-.85-1.51a.38.38 0 0 1 0-.33.39.39 0 0 1 .23-.24l2.27-1-2.34-.9a.42.42 0 0 1 -.19-.58l.92-1.52a.36.36 0 0 1 .27-.19.37.37 0 0 1 .32.07l2 1.49-.32-2.37a.41.41 0 0 1 .1-.32.41.41 0 0 1 .3-.14h1.74a.41.41 0 0 1 .41.46l-.31 2.44 2-1.48a.4.4 0 0 1 .59.13l.85 1.51a.38.38 0 0 1 0 .33.39.39 0 0 1 -.23.24l-2.27.94z" fill="#0090ed"/><path d="m193.26 122.56a5.24 5.24 0 0 0 1.22-3.33v-63.77a5.33 5.33 0 0 0 -5.31-5.31h-90.34a5.33 5.33 0 0 0 -5.31 5.31v63.77a5.24 5.24 0 0 0 1.22 3.33l-11.85 2v5.31h122.22v-5.31z" fill="#9f9fad"/><path d="m153.74 60.77-54.91 54.91a1.77 1.77 0 0 0 1.77 1.77h86.8a1.77 1.77 0 0 0 1.77-1.77v-54.91z" fill="#592acb"/><path d="m98.83 60.77v54.91l54.91-54.91z" fill="#6736d8"/><path d="m187.4 55.46h-86.8a1.78 1.78 0 0 0 -1.77 1.77v3.54h90.34v-3.54a1.78 1.78 0 0 0 -1.77-1.77z" fill="#592acb"/><path d="m187.56 123.86h-86.79a.89.89 0 1 1 0-1.77h86.79a.89.89 0 0 1 0 1.77z" fill="#8f8f9d"/><path d="m137.47 126.17h12.4" fill="none" stroke="#80808e" stroke-linecap="round" stroke-linejoin="round"/><g fill="#fff"><path d="m156.45 76-3.87-2.21-8.83-5.06-.28-.16a4.71 4.71 0 0 0 -4.68 0l-.28.16-12.42 7.11-.28.16a4.66 4.66 0 0 0 -2.34 4v14.84a4.63 4.63 0 0 0 2.34 4l12.7 7.28a2.05 2.05 0 0 0 1 .26 2 2 0 0 0 1.69-1 1.94 1.94 0 0 0 -.72-2.64l-12.48-7.07a1.34 1.34 0 0 1 -.67-1.15v-14.23a1.34 1.34 0 0 1 .67-1.15l2.2-1.26 10.27-5.88a1.34 1.34 0 0 1 1.33 0l12.42 7.11a1.34 1.34 0 0 1 .67 1.15v14.26a1.34 1.34 0 0 1 -.67 1.15l-4.2 2.4-2.12-3.19a10.15 10.15 0 1 0 -6.77 2.57 10.2 10.2 0 0 0 3.42-.59l3.22 4.86a1.2 1.2 0 0 0 .17.21 2.09 2.09 0 0 0 .22.2h.06a1.91 1.91 0 0 0 .27.16h.07l.26.1h.06a1.77 1.77 0 0 0 .32 0h.43a1.94 1.94 0 0 0 .33-.07h.08l.25-.11h.05l6.08-3.48a4.63 4.63 0 0 0 2.34-4v-14.73a4.66 4.66 0 0 0 -2.31-4zm-21.55 11.4a6.24 6.24 0 1 1 6.23 6.19 6.21 6.21 0 0 1 -6.23-6.19z"/><path d="m156.45 76-3.87-2.21-8.83-5.06-.28-.16a4.71 4.71 0 0 0 -4.68 0l-.28.16-12.42 7.11-.28.16a4.66 4.66 0 0 0 -2.34 4v14.84a4.63 4.63 0 0 0 2.34 4l12.7 7.28a2.05 2.05 0 0 0 1 .26 2 2 0 0 0 1.69-1 1.94 1.94 0 0 0 -.72-2.64l-12.48-7.07a1.34 1.34 0 0 1 -.67-1.15v-14.23a1.34 1.34 0 0 1 .67-1.15l2.2-1.26 10.27-5.88a1.34 1.34 0 0 1 1.33 0l12.42 7.11a1.34 1.34 0 0 1 .67 1.15v14.26a1.34 1.34 0 0 1 -.67 1.15l-4.2 2.4-2.12-3.19a10.15 10.15 0 1 0 -6.77 2.57 10.2 10.2 0 0 0 3.42-.59l3.22 4.86a1.2 1.2 0 0 0 .17.21 2.09 2.09 0 0 0 .22.2h.06a1.91 1.91 0 0 0 .27.16h.07l.26.1h.06a1.77 1.77 0 0 0 .32 0h.43a1.94 1.94 0 0 0 .33-.07h.08l.25-.11h.05l6.08-3.48a4.63 4.63 0 0 0 2.34-4v-14.73a4.66 4.66 0 0 0 -2.31-4zm-21.55 11.4a6.24 6.24 0 1 1 6.23 6.19 6.21 6.21 0 0 1 -6.23-6.19z"/><path d="m156.45 76-3.87-2.21-5.4-3.09a4.14 4.14 0 0 0 -4-.06l-2.71 1.36a1.34 1.34 0 0 1 1.33 0l12.42 7.11a1.34 1.34 0 0 1 .67 1.15v14.26a1.32 1.32 0 0 1 -.67 1.15l-4.2 2.4.65 1.05a2.75 2.75 0 0 0 3.7.92l2.08-1.19a4.61 4.61 0 0 0 2.34-4v-14.85a4.63 4.63 0 0 0 -2.34-4z"/><path d="m154.89 80.29v6.9h3.9v-7.19a4.63 4.63 0 0 0 -2.34-4l-3.87-2.21-5.4-3.09a4.14 4.14 0 0 0 -4-.06l-2.71 1.36a1.34 1.34 0 0 1 1.33 0l12.42 7.11a1.34 1.34 0 0 1 .67 1.18z"/><path d="m154.89 88.31v6.21a1.32 1.32 0 0 1 -.67 1.15l-4.2 2.4.65 1.05a2.75 2.75 0 0 0 3.7.92l2.08-1.19a4.61 4.61 0 0 0 2.34-4v-6.54z" opacity=".9"/><path d="m149.72 97.62-1.82-2.74a10.11 10.11 0 0 1 -3.35 2l1.94 2.93c1.09-.72 2.17-1.44 3.23-2.19z" opacity=".9"/></g><rect fill="#ffbdc5" height="13.79" rx="5.4" width="44.43" x="178.92" y="85.86"/><path d="m222.52 81.78h-42.13a7.22 7.22 0 0 0 -7.2 7.2v6.53a7.22 7.22 0 0 0 7.2 7.2h42.13a7.22 7.22 0 0 0 7.2-7.2v-6.51a7.22 7.22 0 0 0 -7.2-7.22zm-29.91 11.41a.39.39 0 0 1 .23.24.44.44 0 0 1 0 .34l-.89 1.51a.4.4 0 0 1 -.28.19.41.41 0 0 1 -.32-.08l-1.91-1.48.3 2.45a.41.41 0 0 1 -.1.32.41.41 0 0 1 -.3.14h-1.75a.41.41 0 0 1 -.3-.14.41.41 0 0 1 -.1-.32l.31-2.46-2 1.49a.42.42 0 0 1 -.33.08.45.45 0 0 1 -.27-.2l-.9-1.51a.47.47 0 0 1 0-.33.39.39 0 0 1 .23-.24l2.27-1-2.27-1a.43.43 0 0 1 -.23-.19.42.42 0 0 1 0-.33l.87-1.48a.4.4 0 0 1 .27-.19.37.37 0 0 1 .32.07l2 1.49-.31-2.43a.41.41 0 0 1 .1-.32.41.41 0 0 1 .3-.14h1.75a.41.41 0 0 1 .3.14.41.41 0 0 1 .1.32l-.31 2.44 2-1.48a.42.42 0 0 1 .33-.07.45.45 0 0 1 .27.2l.84 1.51a.38.38 0 0 1 0 .33.38.38 0 0 1 -.22.24l-2.28.94zm13 0a.37.37 0 0 1 .23.24.4.4 0 0 1 0 .34l-.9 1.51a.4.4 0 0 1 -.27.19.41.41 0 0 1 -.32-.08l-1.92-1.48.31 2.45a.41.41 0 0 1 -.41.46h-1.74a.41.41 0 0 1 -.3-.14.41.41 0 0 1 -.1-.32l.31-2.46-2 1.49a.43.43 0 0 1 -.33.08.43.43 0 0 1 -.27-.2l-.85-1.51a.38.38 0 0 1 0-.33.39.39 0 0 1 .23-.24l2.27-1-2.28-1a.45.45 0 0 1 -.27-.19.42.42 0 0 1 0-.33l.88-1.48a.36.36 0 0 1 .27-.19.37.37 0 0 1 .32.07l2 1.49-.3-2.43a.41.41 0 0 1 .1-.32.41.41 0 0 1 .3-.14h1.74a.41.41 0 0 1 .41.46l-.31 2.44 2-1.48a.4.4 0 0 1 .59.13l.85 1.51a.38.38 0 0 1 0 .33.39.39 0 0 1 -.23.24l-2.27.94zm13 0a.39.39 0 0 1 .23.24.4.4 0 0 1 0 .34l-.9 1.51a.4.4 0 0 1 -.27.19.43.43 0 0 1 -.33-.08l-1.91-1.48.3 2.45a.4.4 0 0 1 -.4.46h-1.74a.41.41 0 0 1 -.4-.46l.3-2.46-2 1.49a.41.41 0 0 1 -.32.08.4.4 0 0 1 -.27-.2l-.85-1.51a.38.38 0 0 1 0-.33.39.39 0 0 1 .23-.24l2.27-1-2.28-1a.39.39 0 0 1 -.22-.25.38.38 0 0 1 0-.33l.87-1.48a.4.4 0 0 1 .27-.19.38.38 0 0 1 .33.07l2 1.49-.3-2.43a.41.41 0 0 1 .4-.46h1.74a.4.4 0 0 1 .4.46l-.3 2.44 2-1.48a.4.4 0 0 1 .59.13l.85 1.51a.38.38 0 0 1 0 .33.39.39 0 0 1 -.23.24l-2.27.94z" fill="#ff298a"/><rect fill="#ff298a" height="16.85" rx="5.4" width="49.79" x="77.09" y="118.86"/><path d="m123.41 117.07h-42.13a7.22 7.22 0 0 0 -7.2 7.2v6.54a7.22 7.22 0 0 0 7.2 7.2h42.13a7.22 7.22 0 0 0 7.2-7.2v-6.54a7.22 7.22 0 0 0 -7.2-7.2zm-29.91 11.42a.39.39 0 0 1 .23.24.45.45 0 0 1 0 .34l-.89 1.5a.45.45 0 0 1 -.28.2.41.41 0 0 1 -.32-.08l-1.91-1.48.3 2.45a.42.42 0 0 1 -.1.32.43.43 0 0 1 -.3.13h-1.78a.44.44 0 0 1 -.31-.13.42.42 0 0 1 -.1-.32l.31-2.47-2 1.5a.38.38 0 0 1 -.33.07.4.4 0 0 1 -.27-.19l-.85-1.51a.47.47 0 0 1 0-.33.39.39 0 0 1 .23-.24l2.28-1-2.28-1a.43.43 0 0 1 -.23-.25.42.42 0 0 1 0-.33l.87-1.48a.4.4 0 0 1 .27-.19.37.37 0 0 1 .32.07l2 1.49-.36-2.37a.4.4 0 0 1 .1-.32.41.41 0 0 1 .31-.14h1.74a.41.41 0 0 1 .4.46l-.31 2.44 2-1.48a.41.41 0 0 1 .6.13l.84 1.5a.4.4 0 0 1 -.19.58l-2.28.94zm13 0a.37.37 0 0 1 .23.24.41.41 0 0 1 0 .34l-.9 1.5a.45.45 0 0 1 -.27.2.41.41 0 0 1 -.32-.08l-1.92-1.48.31 2.45a.42.42 0 0 1 -.1.32.44.44 0 0 1 -.31.13h-1.74a.43.43 0 0 1 -.3-.13.42.42 0 0 1 -.1-.32l.31-2.47-2 1.5a.39.39 0 0 1 -.33.07.38.38 0 0 1 -.27-.19l-.79-1.51a.38.38 0 0 1 0-.33.39.39 0 0 1 .23-.24l2.27-1-2.28-1a.45.45 0 0 1 -.22-.25.39.39 0 0 1 0-.33l.87-1.48a.36.36 0 0 1 .27-.19.37.37 0 0 1 .32.07l2 1.49-.3-2.43a.41.41 0 0 1 .4-.46h1.74a.41.41 0 0 1 .31.14.4.4 0 0 1 .1.32l-.31 2.44 2-1.48a.42.42 0 0 1 .33-.07.38.38 0 0 1 .26.2l.85 1.5a.41.41 0 0 1 0 .34.42.42 0 0 1 -.23.24l-2.27.94zm13 0a.39.39 0 0 1 .23.24.41.41 0 0 1 0 .34l-.9 1.5a.45.45 0 0 1 -.27.2.43.43 0 0 1 -.33-.08l-1.91-1.48.3 2.45a.42.42 0 0 1 -.09.32.44.44 0 0 1 -.31.13h-1.74a.4.4 0 0 1 -.3-.13.39.39 0 0 1 -.1-.32l.3-2.47-2 1.5a.37.37 0 0 1 -.32.07.36.36 0 0 1 -.27-.19l-.85-1.51a.38.38 0 0 1 0-.33.39.39 0 0 1 .23-.24l2.27-1-2.28-1a.39.39 0 0 1 -.22-.25.38.38 0 0 1 0-.33l.87-1.48a.4.4 0 0 1 .27-.19.38.38 0 0 1 .33.07l2 1.49-.3-2.43a.37.37 0 0 1 .1-.32.37.37 0 0 1 .3-.14h1.74a.41.41 0 0 1 .31.14.4.4 0 0 1 .09.32l-.3 2.44 2-1.48a.41.41 0 0 1 .32-.07.37.37 0 0 1 .27.2l.85 1.5a.41.41 0 0 1 0 .34.42.42 0 0 1 -.23.24l-2.27.94z" fill="#ffd567"/></svg>