<!-- This Source Code Form is subject to the terms of the Mozilla Public
   - License, v. 2.0. If a copy of the MPL was not distributed with this
   - file, You can obtain one at http://mozilla.org/MPL/2.0/. -->

<svg viewBox="0 0 288 180" xmlns="http://www.w3.org/2000/svg"><circle cx="144" cy="90" fill="#bfbfc9" opacity=".15" r="72"/><path d="m187.73 65.17c-.06-4.45-.12-9.5-.14-15.2a4.87 4.87 0 0 0 -4-4.79l-38.73-6.7a5 5 0 0 0 -1.66 0l-38.73 6.7a4.87 4.87 0 0 0 -4 4.79c0 5.7-.08 10.75-.14 15.2-.1 8-.17 13.84.16 17.46 2.09 23.23 7 33.81 15.31 45.21a45.42 45.42 0 0 0 27.31 17.58 5.2 5.2 0 0 0 1 .09 5 5 0 0 0 1-.09 46 46 0 0 0 27.3-17.58c8.31-11.4 13.22-22 15.32-45.21.17-3.63.1-9.43 0-17.46z" fill="#9f9fad"/><path d="m143.18 38.56-38.73 6.7a4.89 4.89 0 0 0 -4 4.79c0 5.7-.07 10.75-.13 15.2-.1 8-.18 13.84.15 17.46 2.1 23.23 7 33.81 15.32 45.21a45.34 45.34 0 0 0 27.31 17.57 4.32 4.32 0 0 0 .95.1v-107.1a4.57 4.57 0 0 0 -.87.07z" fill="#80808e"/><path d="m143.3 45.93-32.48 5.62a4.08 4.08 0 0 0 -3.38 4c0 4.77-.06 9-.11 12.74-.09 6.74-.15 11.61.12 14.64 1.76 19.49 5.88 28.36 12.85 37.92a38 38 0 0 0 22.91 14.74 3.47 3.47 0 0 0 .79.08v-89.8a4.14 4.14 0 0 0 -.7.06z" fill="#592acb"/><path d="m180.67 68.31c0-3.73-.1-8-.11-12.74a4.08 4.08 0 0 0 -3.38-4l-32.48-5.64a4.14 4.14 0 0 0 -.7-.06v89.82a3.62 3.62 0 0 0 .8-.08 38.54 38.54 0 0 0 22.89-14.74c7-9.56 11.09-18.43 12.85-37.92.28-3.03.22-7.9.13-14.64z" fill="#7542e5"/><path d="m156.89 79.5a3.46 3.46 0 0 0 -2.89-3.4l-10-1.65-10 1.65a3.46 3.46 0 0 0 -2.93 3.4c0 2.71 0 6.3.18 8 .48 5.16 1.49 8 4 11.2a13.51 13.51 0 0 0 8.59 5h.17.17a13.51 13.51 0 0 0 8.59-5c2.46-3.22 3.46-6 4-11.2.11-1.8.12-5.78.12-8zm-3.38 7.68c-.44 4.59-1.21 6.82-3.3 9.55a10.39 10.39 0 0 1 -6.21 3.74 10.42 10.42 0 0 1 -6.21-3.74c-2.09-2.74-2.86-5-3.29-9.54-.12-1.22-.17-4-.17-7.68a.26.26 0 0 1 .23-.23l9.44-1.56 9.44 1.56a.25.25 0 0 1 .23.23c0 3.67-.06 6.49-.16 7.67zm-15.95-5.13c0 3.17.1 4.41.14 4.83.41 4.35 1.12 5.89 2.65 7.89a7 7 0 0 0 3.65 2.39v-16.16z" fill="#fff"/></svg>