<!-- This Source Code Form is subject to the terms of the Mozilla Public
   - License, v. 2.0. If a copy of the MPL was not distributed with this
   - file, You can obtain one at http://mozilla.org/MPL/2.0/. -->

<svg viewBox="0 0 288 180" xmlns="http://www.w3.org/2000/svg"><circle cx="144" cy="90" fill="#bfbfc9" opacity=".15" r="72"/><path d="m165.68 121.55a5.26 5.26 0 0 0 1.22-3.34v-63.77a5.33 5.33 0 0 0 -5.31-5.31h-90.34a5.33 5.33 0 0 0 -5.31 5.31v63.77a5.26 5.26 0 0 0 1.22 3.34l-11.85 2v5.32h122.22v-5.32z" fill="#9f9fad"/><path d="m126.16 59.76-54.91 54.91a1.78 1.78 0 0 0 1.75 1.77h86.79a1.78 1.78 0 0 0 1.77-1.77v-54.91z" fill="#592acb"/><path d="m71.25 59.76v54.91l54.91-54.91z" fill="#6736d8"/><path d="m159.82 54.44h-86.82a1.78 1.78 0 0 0 -1.78 1.77v3.55h90.34v-3.55a1.78 1.78 0 0 0 -1.74-1.77z" fill="#592acb"/><path d="m160 122.84h-86.81a.89.89 0 1 1 0-1.77h86.81a.89.89 0 0 1 0 1.77z" fill="#8f8f9d"/><path d="m109.89 125.15h12.4" fill="none" stroke="#80808e" stroke-linecap="round" stroke-linejoin="round"/><path d="m227.42 50.1h-37.58a5.37 5.37 0 0 0 -5.36 5.36v68a5.38 5.38 0 0 0 5.36 5.37h37.58a5.38 5.38 0 0 0 5.37-5.37v-68a5.38 5.38 0 0 0 -5.37-5.36z" fill="#bfbfc9"/><path d="m189.84 98.41v21.48a1.8 1.8 0 0 0 1.79 1.79h34a1.79 1.79 0 0 0 1.79-1.79v-59.06z" fill="#f11f89"/><path d="m189.84 60.83v37.58l37.58-37.58z" fill="#ff298a"/><path d="m225.63 55.46h-34a1.8 1.8 0 0 0 -1.79 1.79v3.58h37.58v-3.58a1.79 1.79 0 0 0 -1.79-1.79z" fill="#f11f89"/><circle cx="199.69" cy="113.62" fill="#ffd567" r="2.68"/><circle cx="208.63" cy="113.62" fill="#ff8a50" r="2.68"/><circle cx="217.58" cy="113.62" fill="#7542e5" r="2.68"/><path d="m206.27 125.26h5.05" fill="none" stroke="#9f9fad" stroke-linecap="round" stroke-linejoin="round"/><g fill="#fff"><path d="m116.07 99.86a15.1 15.1 0 0 1 -15.07-15.11v-7.56a3.77 3.77 0 0 1 3.78-3.77h22.67a3.77 3.77 0 0 1 3.77 3.77v7.56a15.1 15.1 0 0 1 -15.15 15.11zm7.53-19a1.87 1.87 0 0 0 -1.37.6l-6.23 6.26-6.09-6.11a1.85 1.85 0 0 0 -1.42-.7 1.89 1.89 0 0 0 -1.89 1.89 1.87 1.87 0 0 0 .54 1.32l6.22 6.25 1.33 1.33a1.88 1.88 0 0 0 2.67 0l1.34-1.33 6.3-6.23a1.89 1.89 0 0 0 0-2.67 2 2 0 0 0 -1.4-.56z"/><path d="m208.73 95.37a10.15 10.15 0 0 1 -10.15-10.15v-5.07a2.54 2.54 0 0 1 2.54-2.54h15.22a2.54 2.54 0 0 1 2.53 2.54v5.07a10.15 10.15 0 0 1 -10.14 10.15zm5.05-12.72a1.24 1.24 0 0 0 -.92.4l-4.16 4.16-4.09-4.1a1.22 1.22 0 0 0 -1-.46 1.25 1.25 0 0 0 -1.26 1.26 1.27 1.27 0 0 0 .36.89l4.18 4.2.89.89a1.26 1.26 0 0 0 1.79 0l.9-.89 4.2-4.2a1.26 1.26 0 0 0 -.91-2.16z"/></g></svg>