<!-- This Source Code Form is subject to the terms of the Mozilla Public
   - License, v. 2.0. If a copy of the MPL was not distributed with this
   - file, You can obtain one at http://mozilla.org/MPL/2.0/. -->

<svg viewBox="0 0 288 180" xmlns="http://www.w3.org/2000/svg" xmlns:xlink="http://www.w3.org/1999/xlink"><linearGradient id="a" gradientTransform="matrix(1 0 0 -1 0 182)" gradientUnits="userSpaceOnUse" x1="161.49" x2="161.49" y1="48.36" y2="138.65"><stop offset="0" stop-color="#3a8ee6"/><stop offset=".24" stop-color="#5c79f0"/><stop offset=".63" stop-color="#9059ff"/><stop offset="1" stop-color="#c139e6"/></linearGradient><linearGradient id="b" gradientTransform="matrix(1 0 0 -1 0 182)" gradientUnits="userSpaceOnUse" x1="192.18" x2="138.57" y1="70.63" y2="70.63"><stop offset=".14" stop-color="#6a2bea" stop-opacity="0"/><stop offset=".34" stop-color="#642de4" stop-opacity=".03"/><stop offset=".55" stop-color="#5131d3" stop-opacity=".12"/><stop offset=".76" stop-color="#3139b7" stop-opacity=".27"/><stop offset=".98" stop-color="#054490" stop-opacity=".48"/><stop offset="1" stop-color="#00458b" stop-opacity=".5"/></linearGradient><linearGradient id="c" gradientTransform="matrix(1 0 0 -1 0 182)" gradientUnits="userSpaceOnUse" x1="146.69" x2="109.67" y1="126.28" y2="62.15"><stop offset="0" stop-color="#ff980e"/><stop offset=".27" stop-color="#ff851b"/><stop offset=".56" stop-color="#ff7f1f"/><stop offset=".77" stop-color="#ff3750"/><stop offset=".9" stop-color="#f92261"/><stop offset="1" stop-color="#f5156c"/></linearGradient><linearGradient id="d" gradientTransform="matrix(1 0 0 -1 0 182)" gradientUnits="userSpaceOnUse" x1="146.69" x2="109.67" y1="126.28" y2="62.15"><stop offset="0" stop-color="#fff261" stop-opacity=".8"/><stop offset=".06" stop-color="#fff261" stop-opacity=".68"/><stop offset=".19" stop-color="#fff261" stop-opacity=".48"/><stop offset=".31" stop-color="#fff261" stop-opacity=".31"/><stop offset=".42" stop-color="#fff261" stop-opacity=".17"/><stop offset=".53" stop-color="#fff261" stop-opacity=".08"/><stop offset=".63" stop-color="#fff261" stop-opacity=".02"/><stop offset=".72" stop-color="#fff261" stop-opacity="0"/></linearGradient><linearGradient id="e" gradientTransform="matrix(1 0 0 -1 11.03 186.57)" gradientUnits="userSpaceOnUse" x1="128.01" x2="128.01" y1="86.9" y2="134.16"><stop offset="0" stop-color="#6e008b" stop-opacity=".5"/><stop offset=".5" stop-color="#c846cb" stop-opacity="0"/></linearGradient><circle cx="144" cy="90" fill="#bfbfc9" opacity=".15" r="72"/><path d="m193.18 52.82a30.66 30.66 0 0 0 -21.93-9.47h-.25a30.62 30.62 0 0 0 -21.8 9l-24.7 24.73a10.53 10.53 0 0 0 0 14.9l4.58 4.57a10.58 10.58 0 0 0 14.93 0l-12.01-11.89 24.67-24.73a20.07 20.07 0 0 1 14.33-5.93h.19a20.07 20.07 0 0 1 14.37 6.19c7.59 7.87 7.2 20.83-.86 28.9l-35.15 35.25a7.75 7.75 0 0 1 -11 0l5.65 5.66.91.92a9.23 9.23 0 0 0 12.31.63l34.7-34.94c12.23-12.13 12.64-31.77 1.06-43.79z" fill="url(#a)"/><path d="m184.66 89.1-35.15 35.25a7.75 7.75 0 0 1 -11 0l5.69 5.65.91.92a9.23 9.23 0 0 0 12.31.63l34.7-34.94z" fill="url(#b)"/><path d="m144.05 96.52h-.05a10.57 10.57 0 0 1 -14.92 0l7.47 7.46a10.55 10.55 0 0 0 14.92 0l12-12a10.58 10.58 0 0 0 0-14.93l-24.63-24.64a30.65 30.65 0 0 0 -21.8-9h-.29a30.68 30.68 0 0 0 -21.93 9.41c-11.58 12-11.13 31.66 1 43.8l34.18 34.15a20 20 0 0 0 27.5.79 9.23 9.23 0 0 1 -12.31-.63l-7.66-7.67-34.18-34.16c-8.07-8.07-8.46-21-.87-28.9a20.05 20.05 0 0 1 14.37-6.2h.15a20.07 20.07 0 0 1 14.31 5.92l24.69 24.57-11.93 12z" fill="url(#c)"/><path d="m144.05 96.52h-.05a10.57 10.57 0 0 1 -14.92 0l7.47 7.46a10.55 10.55 0 0 0 14.92 0l12-12a10.58 10.58 0 0 0 0-14.93l-24.63-24.64a30.65 30.65 0 0 0 -21.8-9h-.29a30.68 30.68 0 0 0 -21.93 9.41c-11.58 12-11.13 31.66 1 43.8l34.18 34.15a20 20 0 0 0 27.5.79 9.23 9.23 0 0 1 -12.31-.63l-7.66-7.67-34.18-34.16c-8.07-8.07-8.46-21-.87-28.9a20.05 20.05 0 0 1 14.37-6.2h.15a20.07 20.07 0 0 1 14.31 5.92l24.69 24.57-11.93 12z" fill="url(#d)"/><path d="m149.16 52.41-24.66 24.67a10.53 10.53 0 0 0 0 14.9l4.58 4.57a10.58 10.58 0 0 0 14.93 0l-12.01-11.89 24.67-24.73z" fill="url(#e)"/></svg>