<!-- This Source Code Form is subject to the terms of the Mozilla Public
   - License, v. 2.0. If a copy of the MPL was not distributed with this
   - file, You can obtain one at http://mozilla.org/MPL/2.0/. -->
<svg viewBox="0 0 288 180" xmlns="http://www.w3.org/2000/svg" xmlns:xlink="http://www.w3.org/1999/xlink"><clipPath id="a"><path d="m187.39 55.55h-86.79a1.77 1.77 0 0 0 -1.77 1.77v58.45a1.78 1.78 0 0 0 1.77 1.77h86.79a1.77 1.77 0 0 0 1.77-1.77v-58.45a1.77 1.77 0 0 0 -1.77-1.77z"/></clipPath><circle cx="144" cy="90" fill="#bfbfc9" opacity=".15" r="72"/><path d="m193.26 122.56a5.24 5.24 0 0 0 1.22-3.33v-63.77a5.33 5.33 0 0 0 -5.31-5.31h-90.34a5.33 5.33 0 0 0 -5.31 5.31v63.77a5.24 5.24 0 0 0 1.22 3.33l-11.85 2v5.31h122.22v-5.31z" fill="#9f9fad"/><path d="m153.74 60.77-54.91 54.91a1.77 1.77 0 0 0 1.77 1.77h86.8a1.77 1.77 0 0 0 1.77-1.77v-54.91z" fill="#592acb"/><path d="m98.83 60.77v54.91l54.91-54.91z" fill="#6736d8"/><path d="m187.4 55.46h-86.8a1.78 1.78 0 0 0 -1.77 1.77v3.54h90.34v-3.54a1.78 1.78 0 0 0 -1.77-1.77z" fill="#592acb"/><path d="m187.56 123.86h-86.79a.89.89 0 1 1 0-1.77h86.79a.89.89 0 0 1 0 1.77z" fill="#8f8f9d"/><path d="m137.47 126.17h12.4" fill="none" stroke="#80808e" stroke-linecap="round" stroke-linejoin="round"/><path d="m142.65 49.58a1.48 1.48 0 0 0 -1.16-1l-5.57-1-2.63-5.27a1.5 1.5 0 0 0 -2.69 0l-2.6 5.27-5.57 1a1.5 1.5 0 0 0 -.84 2.5l4 4.3-.84 5.95a1.52 1.52 0 0 0 1.46 1.67 1.57 1.57 0 0 0 .7-.17l5-2.63 5 2.62a1.47 1.47 0 0 0 1.56-.1 1.51 1.51 0 0 0 .63-1.43l-.84-5.95 4-4.3a1.5 1.5 0 0 0 .39-1.46z" fill="#00b3f4"/><path d="m166.76 34.46a1.47 1.47 0 0 0 -1.16-1l-5.57-1-2.63-5.28a1.5 1.5 0 0 0 -2.69 0l-2.63 5.28-5.57 1a1.51 1.51 0 0 0 -.84 2.51l4 4.29-.84 6a1.53 1.53 0 0 0 .63 1.44 1.51 1.51 0 0 0 .86.27 1.38 1.38 0 0 0 .69-.17l5-2.62 5 2.62a1.51 1.51 0 0 0 1.56-.1 1.53 1.53 0 0 0 .63-1.44l-.84-6 4-4.29a1.5 1.5 0 0 0 .4-1.51z" fill="#0090ed"/><path d="m147 15.61a1.48 1.48 0 0 0 -1.16-1l-5.58-1-2.63-5.28a1.5 1.5 0 0 0 -2.68 0l-2.63 5.28-5.57 1a1.48 1.48 0 0 0 -1.17 1 1.53 1.53 0 0 0 .32 1.5l4 4.29-.83 6a1.49 1.49 0 0 0 1.49 1.71 1.44 1.44 0 0 0 .69-.17l5-2.62 5 2.62a1.5 1.5 0 0 0 2.18-1.54l-.83-6 4-4.29a1.51 1.51 0 0 0 .4-1.5z" fill="#0df"/><g clip-path="url(#a)"><path d="m124.24 109.74a1.48 1.48 0 0 0 -1.16-1l-5.57-1-2.63-5.28a1.5 1.5 0 0 0 -2.69 0l-2.63 5.28-5.57 1a1.5 1.5 0 0 0 -.84 2.5l4 4.29-.84 6a1.5 1.5 0 0 0 1.49 1.71 1.38 1.38 0 0 0 .69-.17l5-2.62 5 2.62a1.5 1.5 0 0 0 2.18-1.54l-.83-6 4-4.29a1.5 1.5 0 0 0 .4-1.5z" fill="#00b3f4"/><path d="m148.82 109.39a1.5 1.5 0 0 0 -1.16-1l-5.58-1-2.62-5.28a1.5 1.5 0 0 0 -2.69 0l-2.63 5.28-5.57 1a1.5 1.5 0 0 0 -.84 2.5l4 4.29-.83 6a1.48 1.48 0 0 0 .62 1.43 1.53 1.53 0 0 0 .87.28 1.45 1.45 0 0 0 .69-.18l5-2.62 5 2.62a1.5 1.5 0 0 0 2.18-1.54l-.83-5.95 4-4.29a1.5 1.5 0 0 0 .39-1.54z" fill="#00b3f4"/><path d="m161.75 107.31a1.47 1.47 0 0 0 -1.16-1l-5.57-1-2.63-5.31a1.5 1.5 0 0 0 -2.69 0l-2.63 5.28-5.57 1a1.53 1.53 0 0 0 -1.17 1 1.51 1.51 0 0 0 .33 1.5l4 4.29-.83 6a1.5 1.5 0 0 0 1.49 1.71 1.41 1.41 0 0 0 .69-.17l5-2.62 5 2.62a1.5 1.5 0 0 0 2.18-1.54l-.83-6 4-4.29a1.5 1.5 0 0 0 .39-1.47z" fill="#0df"/><path d="m139.18 105.88a1.53 1.53 0 0 0 -1.16-1l-5.58-1-2.63-5.28a1.5 1.5 0 0 0 -2.69 0l-2.63 5.28-5.57 1a1.5 1.5 0 0 0 -.84 2.5l4 4.3-.83 5.95a1.48 1.48 0 0 0 .62 1.43 1.45 1.45 0 0 0 .86.28 1.57 1.57 0 0 0 .7-.17l5-2.63 5 2.63a1.51 1.51 0 0 0 1.57-.11 1.48 1.48 0 0 0 .62-1.43l-.83-5.95 4-4.3a1.5 1.5 0 0 0 .39-1.5z" fill="#0090ed"/><path d="m154.3 116.29a1.52 1.52 0 0 0 -1.16-1l-5.58-1-2.62-5.29a1.51 1.51 0 0 0 -1.35-.83 1.49 1.49 0 0 0 -1.34.83l-2.63 5.28-5.57 1a1.52 1.52 0 0 0 -1.17 1 1.5 1.5 0 0 0 .33 1.5l4 4.3-.83 5.95a1.49 1.49 0 0 0 1.49 1.71 1.56 1.56 0 0 0 .69-.17l5-2.63 5 2.63a1.5 1.5 0 0 0 2.18-1.54l-.83-5.95 4-4.29a1.52 1.52 0 0 0 .39-1.5z" fill="#00b3f4"/><path d="m173.15 113a1.52 1.52 0 0 0 -1.16-1l-5.58-1-2.63-5.28a1.5 1.5 0 0 0 -2.68 0l-2.63 5.28-5.57 1a1.52 1.52 0 0 0 -1.17 1 1.5 1.5 0 0 0 .33 1.5l4 4.3-.83 6a1.49 1.49 0 0 0 1.49 1.71 1.56 1.56 0 0 0 .69-.17l5-2.63 5 2.63a1.5 1.5 0 0 0 2.18-1.54l-.83-6 4-4.29a1.52 1.52 0 0 0 .39-1.51z" fill="#0090ed"/><path d="m113.09 104.46a1.47 1.47 0 0 0 -1.16-1l-5.57-1-2.63-5.28a1.5 1.5 0 0 0 -2.69 0l-2.63 5.28-5.57 1a1.47 1.47 0 0 0 -1.16 1 1.5 1.5 0 0 0 .32 1.54l4 4.29-.83 6a1.49 1.49 0 0 0 1.48 1.71 1.45 1.45 0 0 0 .7-.17l5-2.62 5 2.62a1.51 1.51 0 0 0 2.19-1.54l-.84-6 4-4.29a1.5 1.5 0 0 0 .39-1.54z" fill="#0df"/><path d="m107 115.2a1.5 1.5 0 0 0 -1.16-1l-5.58-1-2.63-5.28a1.5 1.5 0 0 0 -2.69 0l-2.62 5.28-5.58 1a1.5 1.5 0 0 0 -.84 2.5l4 4.29-.83 6a1.49 1.49 0 0 0 1.49 1.71 1.44 1.44 0 0 0 .69-.17l5-2.62 5 2.62a1.5 1.5 0 0 0 2.18-1.54l-.83-6 4-4.29a1.5 1.5 0 0 0 .4-1.5z" fill="#00b3f4"/><path d="m125.37 115.42a1.48 1.48 0 0 0 -1.16-1l-5.58-1-2.63-5.28a1.5 1.5 0 0 0 -2.68 0l-2.63 5.28-5.57 1a1.5 1.5 0 0 0 -.84 2.51l4 4.29-.83 6a1.49 1.49 0 0 0 1.49 1.71 1.44 1.44 0 0 0 .69-.17l5-2.62 5 2.62a1.5 1.5 0 0 0 2.18-1.54l-.83-6 4-4.29a1.51 1.51 0 0 0 .39-1.51z" fill="#0090ed"/><path d="m138.3 113.33a1.52 1.52 0 0 0 -1.16-1l-5.58-1-2.62-5.28a1.51 1.51 0 0 0 -1.35-.83 1.49 1.49 0 0 0 -1.34.83l-2.63 5.28-5.57 1a1.52 1.52 0 0 0 -1.17 1 1.5 1.5 0 0 0 .33 1.5l4 4.3-.83 6a1.49 1.49 0 0 0 1.49 1.71 1.56 1.56 0 0 0 .69-.17l5-2.63 5 2.63a1.5 1.5 0 0 0 2.18-1.54l-.83-6 4-4.29a1.52 1.52 0 0 0 .39-1.51z" fill="#0df"/><path d="m180.52 110.12a1.51 1.51 0 0 0 -1.17-1l-5.57-1-2.65-5.27a1.49 1.49 0 0 0 -1.34-.83 1.47 1.47 0 0 0 -1.34.84l-2.62 5.28-5.57 1a1.51 1.51 0 0 0 -.83 2.51l4 4.28-.81 6a1.51 1.51 0 0 0 .62 1.44 1.51 1.51 0 0 0 1.56.1l5-2.64 5 2.61a1.51 1.51 0 0 0 2.18-1.55l-.85-5.94 4-4.31a1.5 1.5 0 0 0 .39-1.52z" fill="#00b3f4"/><path d="m205.09 109.71a1.47 1.47 0 0 0 -1.16-1l-5.58-1-2.64-5.27a1.5 1.5 0 0 0 -2.69 0l-2.61 5.29-5.57 1a1.5 1.5 0 0 0 -.84 2.5l4 4.29-.82 6a1.51 1.51 0 0 0 .63 1.43 1.53 1.53 0 0 0 .87.28 1.45 1.45 0 0 0 .69-.18l5-2.64 5.05 2.62a1.51 1.51 0 0 0 2.18-1.55l-.85-5.95 4-4.3a1.48 1.48 0 0 0 .34-1.52z" fill="#00b3f4"/><path d="m218 107.59a1.51 1.51 0 0 0 -1.16-1l-5.58-1-2.64-5.27a1.51 1.51 0 0 0 -1.35-.83 1.48 1.48 0 0 0 -1.34.84l-2.62 5.28-5.57 1a1.51 1.51 0 0 0 -1.16 1 1.48 1.48 0 0 0 .33 1.49l4 4.29-.82 5.95a1.49 1.49 0 0 0 .63 1.44 1.5 1.5 0 0 0 1.55.1l5-2.64 5 2.61a1.51 1.51 0 0 0 2.18-1.55l-.85-5.94 4-4.31a1.5 1.5 0 0 0 .4-1.46z" fill="#0df"/><path d="m195.44 106.22a1.49 1.49 0 0 0 -1.16-1l-5.58-1-2.64-5.22a1.51 1.51 0 0 0 -2.69 0l-2.62 5.29-5.56 1a1.5 1.5 0 0 0 -1.17 1 1.53 1.53 0 0 0 .33 1.5l4 4.28-.82 6a1.51 1.51 0 0 0 .63 1.43 1.51 1.51 0 0 0 1.56.1l5-2.64 5 2.61a1.5 1.5 0 0 0 2.28-1.57l-.84-6 4-4.3a1.52 1.52 0 0 0 .28-1.48z" fill="#0090ed"/><path d="m210.59 116.6a1.48 1.48 0 0 0 -1.16-1l-5.58-1-2.64-5.27a1.5 1.5 0 0 0 -2.69 0l-2.62 5.29-5.56 1a1.5 1.5 0 0 0 -1.17 1 1.52 1.52 0 0 0 .33 1.5l4 4.29-.82 5.95a1.51 1.51 0 0 0 .63 1.43 1.46 1.46 0 0 0 1.56.1l5-2.64 5 2.62a1.51 1.51 0 0 0 2.18-1.55l-.84-5.95 4-4.3a1.5 1.5 0 0 0 .38-1.47z" fill="#00b3f4"/><path d="m229.43 113.26a1.5 1.5 0 0 0 -1.16-1l-5.58-1-2.64-5.26a1.5 1.5 0 0 0 -2.69 0l-2.62 5.29-5.56 1a1.5 1.5 0 0 0 -.84 2.5l4 4.29-.82 6a1.53 1.53 0 0 0 .63 1.44 1.51 1.51 0 0 0 .86.27 1.57 1.57 0 0 0 .7-.17l5-2.64 5 2.61a1.51 1.51 0 0 0 2.29-1.59l-.84-6 4-4.3a1.5 1.5 0 0 0 .27-1.44z" fill="#0090ed"/><path d="m163.24 115.62a1.47 1.47 0 0 0 -1.16-1l-5.58-1-2.64-5.28a1.46 1.46 0 0 0 -1.34-.82 1.5 1.5 0 0 0 -1.35.83l-2.61 5.29-5.57 1a1.5 1.5 0 0 0 -.83 2.5l4 4.28-.81 6a1.49 1.49 0 0 0 1.49 1.7 1.41 1.41 0 0 0 .69-.17l5-2.64 5.05 2.61a1.5 1.5 0 0 0 2.18-1.54l-.85-5.95 4-4.3a1.49 1.49 0 0 0 .33-1.51z" fill="#00b3f4"/><path d="m181.66 115.79a1.5 1.5 0 0 0 -1.17-1l-5.57-1-2.65-5.28a1.49 1.49 0 0 0 -1.34-.83 1.5 1.5 0 0 0 -1.34.84l-2.59 5.32-5.57 1a1.48 1.48 0 0 0 -1.16 1 1.5 1.5 0 0 0 .33 1.5l4 4.28-.81 6a1.48 1.48 0 0 0 .62 1.43 1.54 1.54 0 0 0 .87.27 1.41 1.41 0 0 0 .69-.17l5-2.64 5 2.61a1.5 1.5 0 0 0 2.18-1.54l-.85-6 4-4.3a1.52 1.52 0 0 0 .36-1.49z" fill="#0090ed"/><path d="m194.58 113.68a1.48 1.48 0 0 0 -1.16-1l-5.58-1-2.64-5.27a1.5 1.5 0 0 0 -2.69 0l-2.61 5.29-5.57 1a1.5 1.5 0 0 0 -.84 2.5l4 4.29-.82 6a1.53 1.53 0 0 0 .63 1.44 1.52 1.52 0 0 0 .87.27 1.56 1.56 0 0 0 .69-.17l5-2.64 5 2.61a1.49 1.49 0 0 0 1.56-.11 1.53 1.53 0 0 0 .62-1.44l-.85-5.94 4-4.31a1.48 1.48 0 0 0 .39-1.52z" fill="#0df"/></g><path d="m159.69 81.08a2.18 2.18 0 0 0 -1.7-1.47l-8.17-1.46-3.82-7.73a2.2 2.2 0 0 0 -3.94 0l-3.85 7.73-8.21 1.46a2.21 2.21 0 0 0 -1.23 3.67l5.86 6.29-1.22 8.72a2.2 2.2 0 0 0 2.18 2.51 2.16 2.16 0 0 0 1-.25l7.41-3.85 7.38 3.85a2.22 2.22 0 0 0 2.29-.15 2.18 2.18 0 0 0 .91-2.11l-1.22-8.72 5.86-6.29a2.19 2.19 0 0 0 .47-2.2z" fill="#fff"/></svg>