<!-- This Source Code Form is subject to the terms of the Mozilla Public
   - License, v. 2.0. If a copy of the MPL was not distributed with this
   - file, You can obtain one at http://mozilla.org/MPL/2.0/. -->
<svg xmlns="http://www.w3.org/2000/svg" width="336" height="64" viewBox="0 0 336 64">
  <defs>
    <linearGradient x1="110%" y1="66%" x2="-10%" y2="33%" id="a">
      <stop offset="0" stop-color="#80ebff"/>
      <stop offset=".33" stop-color="#0df"/>
      <stop offset=".66" stop-color="#00b3f4"/>
      <stop offset="1" stop-color="#00b3f4"/>
    </linearGradient>
  </defs>
  <path d="M1 3.879h21.427v5.8H7.147v7.86h15.28v5.752H7.147v12.641H1zM29.716 1.64a3.448 3.448 0 0 1 3.557 3.6 3.434 3.434 0 0 1-3.6 3.6 3.4 3.4 0 0 1-3.556-3.513 3.555 3.555 0 0 1 3.599-3.687zm-3.03 10.582h6.06v23.71h-6.06zm23.623 6.586a4.894 4.894 0 0 0-2.942-1.054c-2.459 0-3.864 1.581-3.864 5.05v13.128h-6.015v-23.71h5.752v3.425A5.649 5.649 0 0 1 48.9 12a7.184 7.184 0 0 1 4.04 1.23zm2.5 5.4a12.129 12.129 0 0 1 12.206-12.47c7.113 0 12.163 5.049 12.163 12.075v2.5H58.739c.659 2.986 2.986 4.962 6.543 4.962a6.353 6.353 0 0 0 5.883-3.513l5.05 3.03c-2.5 3.688-6.059 5.62-11.109 5.62-7.684.003-12.294-5.134-12.294-12.203zm6.015-2.679H71.3c-.658-3.029-3.117-4.7-6.323-4.7a6.091 6.091 0 0 0-6.15 4.701zm19.847-9.308h4.259v-1.185c0-6.454 2.722-9.133 8.694-9.133h2.107v5.226h-1.709c-2.81 0-3.425.966-3.425 3.907v1.186h5.137v5.445h-5v18.265h-5.8V17.667h-4.26zm16.2 11.855a12.139 12.139 0 0 1 12.382-12.338 12.338 12.338 0 1 1 0 24.676 11.959 11.959 0 0 1-12.377-12.337zm18.88 0a6.5 6.5 0 1 0-13 0 6.5 6.5 0 1 0 13 0zm14.051-.263l-8.562-11.592h7.113l5.05 7.289 5.181-7.289h6.981l-8.689 11.549 9.133 12.162h-7.069l-5.664-7.732-5.489 7.728h-7.069z" fill="#fff"/>
  <path d="M180.422 19.377a7.41 7.41 0 0 0 4.266-6.948c0-5.188-3.958-8.531-9.938-8.531h-13.722V36h14.161c6.068 0 10.158-3.429 10.158-9.058a7.712 7.712 0 0 0-4.925-7.565zM164.678 7.241h10.028c3.913 0 6.332 2.11 6.332 5.188s-2.111 5.365-6.025 5.365h-10.335zm10.467 25.374h-10.467V21.18h10.291c4.4 0 6.685 2.331 6.685 5.718 0 3.342-2.554 5.717-6.509 5.717zm18.032-15.876v-4.486H189.7V36h3.562V22.984c0-5.234 2.286-7.521 6.244-7.521a5.21 5.21 0 0 1 2.9.748l1.5-3.429a7.744 7.744 0 0 0-3.957-.88 6.576 6.576 0 0 0-6.772 4.837zM216.4 11.77a12.192 12.192 0 0 0-12.312 12.357 12.335 12.335 0 1 0 24.669 0A12.2 12.2 0 0 0 216.4 11.77zm0 21.284a8.606 8.606 0 0 1-8.663-8.927 8.69 8.69 0 1 1 17.371 0 8.642 8.642 0 0 1-8.708 8.927zm41.3-2.111l-7.081-18.69h-3.342l-7.256 18.822-5.98-18.822h-3.783L238.037 36h3.517l7.3-18.821 7.3 18.821h3.255l8.223-23.747h-3.738zm22.649-8.663c-3.694-.747-6.552-1.232-6.552-3.694 0-2.2 1.5-3.782 5.145-3.782a7.664 7.664 0 0 1 6.509 3.166l2.99-2.022a11.479 11.479 0 0 0-9.5-4.222c-5.629-.044-8.839 3.21-8.839 6.9 0 4.749 4.354 5.849 8.444 6.64 3.473.7 6.727 1.231 6.727 3.87 0 2.375-1.934 4.134-5.629 4.134a8.772 8.772 0 0 1-7.651-3.87l-3.122 2.111c2.11 3.034 5.5 4.969 10.685 4.969 6.2.044 9.368-3.65 9.368-7.388-.005-4.877-4.491-6.02-8.581-6.812zm23.925-10.51a12.178 12.178 0 0 0-12.4 12.445c0 6.948 4.925 12.269 12.532 12.269a12.2 12.2 0 0 0 11.038-6.025l-3.078-1.8a8.491 8.491 0 0 1-7.96 4.573c-5.013 0-8.487-3.21-9.015-7.739h20.977v-1.63a11.714 11.714 0 0 0-12.1-12.093zm-8.795 10.554a8.821 8.821 0 0 1 8.795-7.344 8 8 0 0 1 8.4 7.344zM330.92 11.9a6.576 6.576 0 0 0-6.772 4.837v-4.484h-3.475V36h3.563V22.984c0-5.234 2.286-7.521 6.244-7.521a5.207 5.207 0 0 1 2.9.748l1.5-3.429a7.742 7.742 0 0 0-3.96-.882z" fill="#fff"/>
  <path d="M6.034 44.213H1v15.573h5.1A7.724 7.724 0 0 0 14.163 52c0-4.416-3.178-7.787-8.129-7.787zm-.127 12.758H4.029v-9.963h1.793c3.413 0 5.289 2.133 5.289 4.992a4.894 4.894 0 0 1-5.204 4.971zm10.61 2.815h10.475v-2.858h-7.466v-3.542h7.466v-2.837h-7.466v-3.5h7.466v-2.836H16.517zm19.356-4.011l-4.181-11.562h-3.179L34.4 59.786h2.965l5.889-15.573H40.1zm9.076 4.011h10.475v-2.858h-7.466v-3.542h7.466v-2.837h-7.466v-3.5h7.466v-2.836H44.949zm16.113-15.573h-3.029v15.573h10.219v-2.922h-7.19zM76.963 44a8 8 0 1 0 8 8 7.966 7.966 0 0 0-8-8zm0 13.034A5.046 5.046 0 1 1 81.933 52a4.953 4.953 0 0 1-4.97 5.034zm16.478-12.821H87.3v15.573h3.029v-4.245h3.091a5.667 5.667 0 1 0 .021-11.328zm-.193 8.533h-2.922v-5.781h2.922a2.892 2.892 0 1 1 0 5.781zm8.435 7.04h10.475v-2.858h-7.466v-3.542h7.466v-2.837h-7.466v-3.5h7.466v-2.836h-10.475zm22.387-5.695a5.071 5.071 0 0 0 2.731-4.609c0-2.965-2.135-5.269-5.718-5.269h-6.315v15.573h3.009V54.88h3.5l2.5 4.906h3.37zm-3.222-1.963h-3.071v-5.141h3.071c1.919 0 2.9.98 2.9 2.517a2.589 2.589 0 0 1-2.9 2.624z" fill="url(#a)"/>
</svg>
