<?xml version="1.0" encoding="utf-8"?>
<!DOCTYPE svg PUBLIC "-//W3C//DTD SVG 1.1//EN" "http://www.w3.org/Graphics/SVG/1.1/DTD/svg11.dtd">

<svg version="1.1" id="aboutWordmark" xmlns="http://www.w3.org/2000/svg" xmlns:xlink="http://www.w3.org/1999/xlink" x="0px" y="0px" width="264px" height="38px" viewBox="0 0 264 38" xml:space="preserve">

<path fill="#fff" d="M262,29l0.2-8.2c0-2.2,0-4.1-0.6-5.5c-1-2.5-3.4-3.9-6.9-3.9c-3.6,0-7.1,1.1-10.4,3.3l1.9,2.8
	c1.6-1.4,5.1-2.9,7.9-2.9c1.6,0,2.5,0.4,3.3,1.3c0.7,0.8,0.8,1.7,0.8,3.9v1.8c0,0-0.7,0-1.7,0c-8.3,0-13.2,3.3-13.2,8.9
	c0,3.3,1.8,7.1,8,7.1c2.8,0,4.8-0.9,7.2-3.3c0.5,1.7,1.7,3.1,3.4,3.6l2-2.8C262.2,34.1,261.9,33,262,29z M258.1,30.8
	c-1.1,2.3-3.5,3.9-6,3.9c-2.8,0-4.3-1.6-4.3-4.5c0-3.8,2.2-5.9,8.5-5.9c0.7,0,1.3,0.1,1.9,0.1L258.1,30.8z M196.3,15.5
	c0.1-2.1-0.8-4-0.8-4l-3.9,1c0,0,0.8,1.6,0.8,5.3v19.1h3.9V21.4c0-2,0.3-2.8,1.4-3.9c1.2-1.1,2.6-1.8,4.1-1.8c0.4,0,0.8,0.1,1.1,0.2
	l1.6-4.2c0,0-0.7-0.3-1.3-0.3C200.8,11.3,198.1,12.9,196.3,15.5z M75.5,11.8V7.9c0-2.2,1.2-3.5,3.1-3.5c1,0,1.8,0.3,3,0.9l1.8-3.5
	c-1.7-1-3.5-1.4-5.7-1.4C73.2,0.3,70,2.8,70,8c0,2.3,0.2,3.7,0.2,3.7h-2.5v3.8H70V37h5.4V15.6h5.1l1.4-3.8H75.5z M62.7,13.8
	c-2.1-1.9-4.4-2.6-6.9-2.6c-3.2,0-5.7,1-7.7,3.4C45.9,17.1,45,20,45,24.5c0,8.1,4.5,13.2,11.6,13.2c3.4,0,6.4-1.1,9.1-3.3L63.4,31
	c-1.9,1.6-3.9,2.5-6.3,2.5c-4.9,0-6.2-3.7-6.2-7.2v-0.4H66v-1.2C66,18.9,64.9,15.8,62.7,13.8z M51,21.8c0-4.1,1.7-6.5,4.8-6.5
	c2.8,0,4.5,2.4,4.5,6.5H51z M0,37h5.7V21.2h9.6v-4.6H5.7V7.2h11.8l0.7-4.7H0V37z M24.2,0.7c-2,0-3.6,1.6-3.6,3.7
	c0,2,1.5,3.6,3.5,3.6s3.7-1.6,3.7-3.6C27.8,2.3,26.2,0.7,24.2,0.7z M43.7,11.1c-2.5,0-4.4,1.3-6.4,4c0-1.4-0.3-2.8-0.9-4l-5,1.3
	c0.6,1.6,0.9,3.6,0.9,6.8V37h5.5V19.9c0.5-2,2.4-3.7,4.7-3.7c0.6,0,1,0.1,1.6,0.4l1.7-5.1C45,11.2,44.5,11.1,43.7,11.1z M21.4,37
	h5.5V11.2l-5.5,1V37z M148.4,2.7L137,36.9h4.1l3.3-10.5h12.8l3.2,10.5h4.6L153.7,2.7H148.4z M145.5,23.1l5.4-16.7l5.2,16.7H145.5z
	 M215.4,11.3c-6.5,0-10.6,4.9-10.6,13c0,8.2,3.9,13.2,10.7,13.2c6.2,0,10.7-4.4,10.7-12.7c0-4-0.7-7-2.3-9.2
	C222.2,13.2,219.5,11.3,215.4,11.3z M221,30.6c-0.8,2.4-2.8,3.7-5.4,3.7c-2.1,0-4.1-1-5-2.5c-0.9-1.5-1.5-4.6-1.5-8.1
	c0-2.9,0.4-4.9,1.2-6.5c0.8-1.6,2.9-2.7,5.1-2.7c2,0,4.2,1,5.3,3.2c0.8,1.6,1.2,4,1.2,7.5C221.8,27.6,221.6,29,221,30.6z M92.3,11.2
	c-6.7,0-11,5.2-11,13.3c0,8.1,4.3,13.2,11.1,13.2c6.8,0,11.2-5,11.2-13.2C103.6,16.5,99.5,11.2,92.3,11.2z M92.5,33.6
	c-3.3,0-5.1-2.1-5.1-9.5c0-6.1,1.5-8.8,5-8.8c3.2,0,5.2,2.1,5.2,9.3C97.6,30.9,95.8,33.6,92.5,33.6z M186.7,11.7h-0.1l-3.8,0.6v17.6
	c-1.4,2.7-3.9,4.5-6.3,4.5c-1.1,0-2.2-0.3-3-0.8c-1.1-0.8-1.5-1.8-1.5-4.2V11.5l-3.8,0.8v18.2c0,1.4,0.2,2.7,0.6,3.7
	c1,2.2,3.4,3.5,6.5,3.5c3.4,0,6-1.2,7.9-3.8c0.3,1.6,1,2.6,2.7,4l2.5-2.6c-1.2-1.1-1.7-2.4-1.7-5.5V11.7z M234.2,15.5
	c0.2-2.1-0.8-4-0.8-4l-3.9,1c0,0,0.8,1.6,0.8,5.3v19.1h3.9V21.4c0-2,0.3-2.8,1.4-3.9c1.1-1.1,2.6-1.8,4.1-1.8c0.4,0,0.9,0.1,1.1,0.2
	l1.6-4.2c0,0-0.7-0.3-1.3-0.3C238.6,11.3,236,12.9,234.2,15.5z M125.2,11.8h-6.4c-0.7,1.1-3.3,6.1-4,7.7c-1.2-2.3-3.4-6.3-4.6-8.2
	l-5.9,1.2l7.3,10.8L102.2,37h6.9c0.9-1.4,4.5-7.5,5.5-9.4c0.5,0.9,4.6,8,5.5,9.4h6.9l-9.2-13.8L125.2,11.8z M128,12
	c-1.1,0-2,0.9-2,2s0.9,2,2,2s2-0.9,2-2S129.1,12,128,12z M128,15.5c-0.8,0-1.5-0.7-1.5-1.5s0.7-1.5,1.5-1.5s1.5,0.7,1.5,1.5
	S128.8,15.5,128,15.5z M128.3,12.9c-0.3-0.1-0.7-0.1-1-0.1v2.3h0.3v-1c0.3,0,0.7,1,0.7,1s0.2,0,0.4,0c-0.2-0.3-0.3-0.7-0.6-1
	C128.8,14.1,128.9,13.1,128.3,12.9z M127.6,13.8v-0.7c0,0,0.7,0,0.7,0.3C128.3,13.9,127.8,13.9,127.6,13.8z"/>
	
</svg>
