<!-- may be protected as a trademark in some jurisdictions -->
<svg xmlns="http://www.w3.org/2000/svg" width="135" height="40" xml:space="preserve"><path fill="#A6A6A6" d="M130.197 40H4.729A4.74 4.74 0 0 1 0 35.267V4.726A4.733 4.733 0 0 1 4.729 0h125.468C132.803 0 135 2.12 135 4.726v30.541c0 2.605-2.197 4.733-4.803 4.733z"/><path d="M134.032 35.268a3.83 3.83 0 0 1-3.834 3.83H4.729a3.835 3.835 0 0 1-3.839-3.83V4.725A3.84 3.84 0 0 1 4.729.89h125.468a3.834 3.834 0 0 1 3.834 3.835l.001 30.543z"/><g fill="#FFF"><path d="M30.128 19.784c-.029-3.223 2.639-4.791 2.761-4.864-1.511-2.203-3.853-2.504-4.676-2.528-1.967-.207-3.875 1.177-4.877 1.177-1.022 0-2.565-1.157-4.228-1.123-2.14.033-4.142 1.272-5.24 3.196-2.266 3.923-.576 9.688 1.595 12.859 1.086 1.553 2.355 3.287 4.016 3.226 1.625-.067 2.232-1.036 4.193-1.036 1.943 0 2.513 1.036 4.207.997 1.744-.028 2.842-1.56 3.89-3.127 1.255-1.78 1.759-3.533 1.779-3.623-.041-.014-3.387-1.291-3.42-5.154zM26.928 10.306c.874-1.093 1.472-2.58 1.306-4.089-1.265.056-2.847.875-3.758 1.944-.806.942-1.526 2.486-1.34 3.938 1.421.106 2.88-.717 3.792-1.793z"/></g><g fill="#FFF"><path d="M51.143 31.516h-1.748l-.958-3.01h-3.329l-.912 3.01h-1.702l3.298-10.246h2.037l3.314 10.246zm-2.995-4.272-.866-2.676c-.091-.273-.264-.916-.517-1.93h-.03a86.938 86.938 0 0 1-.486 1.93l-.851 2.676h2.75zM59.608 27.73c0 1.256-.341 2.25-1.024 2.979-.612.648-1.371.973-2.278.973-.979 0-1.682-.35-2.109-1.049v3.877h-1.642v-7.953c0-.789-.021-1.6-.061-2.428h1.444l.091 1.17h.031c.547-.883 1.378-1.322 2.493-1.322.871 0 1.598.344 2.181 1.033s.874 1.595.874 2.72zm-1.671.061c0-.719-.163-1.312-.486-1.777-.355-.488-.831-.73-1.429-.73a1.71 1.71 0 0 0-1.102.402c-.329.27-.544.621-.646 1.057a2.146 2.146 0 0 0-.076.502v1.23c0 .537.165.99.494 1.361.329.369.757.555 1.284.555.618 0 1.1-.238 1.444-.715.344-.477.517-1.104.517-1.885zM68.105 27.73c0 1.256-.341 2.25-1.024 2.979-.612.648-1.371.973-2.278.973-.979 0-1.682-.35-2.109-1.049v3.877h-1.642v-7.953c0-.789-.021-1.6-.061-2.428h1.444l.091 1.17h.031c.547-.883 1.378-1.322 2.493-1.322.871 0 1.598.344 2.181 1.033.582.689.874 1.595.874 2.72zm-1.672.061c0-.719-.163-1.312-.486-1.777-.355-.488-.831-.73-1.429-.73a1.71 1.71 0 0 0-1.102.402c-.329.27-.544.621-.646 1.057a2.146 2.146 0 0 0-.076.502v1.23c0 .537.165.99.494 1.361.329.369.757.555 1.284.555.618 0 1.1-.238 1.444-.715.345-.477.517-1.104.517-1.885zM77.605 28.643c0 .871-.304 1.58-.91 2.127-.667.6-1.598.898-2.79.898-1.103 0-1.986-.213-2.653-.639l.38-1.369c.719.426 1.51.639 2.371.639.618 0 1.1-.139 1.443-.418.345-.277.518-.65.518-1.117 0-.416-.143-.766-.426-1.049-.284-.283-.755-.547-1.414-.791-1.793-.668-2.69-1.646-2.69-2.934 0-.84.317-1.529.95-2.066.634-.537 1.472-.805 2.516-.805.933 0 1.708.162 2.326.486l-.412 1.336c-.58-.312-1.236-.471-1.969-.471-.579 0-1.032.143-1.357.426a1.217 1.217 0 0 0-.412.928c0 .404.157.74.472 1.002.273.244.77.508 1.489.791.882.355 1.53.771 1.946 1.246.414.477.622 1.071.622 1.78zM83.046 25.359h-1.809v3.588c0 .91.319 1.367.958 1.367.294 0 .537-.025.729-.076l.046 1.246c-.325.121-.751.184-1.277.184-.648 0-1.155-.199-1.52-.594-.365-.395-.548-1.059-.548-1.99v-3.725h-1.079v-1.23h1.079v-1.354l1.611-.486v1.84h1.809v1.23zM91.193 27.76c0 1.137-.324 2.068-.973 2.797-.679.75-1.581 1.125-2.706 1.125-1.084 0-1.947-.359-2.591-1.078-.644-.721-.966-1.627-.966-2.721 0-1.145.332-2.082.996-2.812.663-.73 1.558-1.094 2.683-1.094 1.084 0 1.956.359 2.614 1.078.629.699.943 1.601.943 2.705zm-1.702.039c0-.678-.147-1.258-.44-1.742-.345-.586-.837-.881-1.475-.881-.659 0-1.161.295-1.505.881-.294.484-.441 1.076-.441 1.773 0 .676.147 1.258.441 1.742.354.586.851.879 1.489.879.628 0 1.12-.299 1.475-.895.304-.494.456-1.079.456-1.757zM96.529 25.572a2.764 2.764 0 0 0-.518-.047c-.577 0-1.023.219-1.337.654-.274.385-.411.871-.411 1.459v3.877h-1.642v-5.062c0-.852-.015-1.627-.045-2.324h1.429l.061 1.412h.046c.172-.486.445-.875.82-1.17.365-.264.76-.395 1.186-.395.152 0 .289.01.411.029v1.567zM103.869 27.473c0 .293-.021.541-.061.744h-4.925c.021.73.259 1.287.715 1.672.415.344.952.518 1.61.518.73 0 1.394-.117 1.991-.35l.259 1.139c-.699.305-1.525.457-2.478.457-1.146 0-2.044-.338-2.698-1.012-.653-.674-.98-1.578-.98-2.713 0-1.115.305-2.041.912-2.781.639-.791 1.5-1.186 2.584-1.186 1.064 0 1.87.395 2.417 1.186.436.628.654 1.404.654 2.326zm-1.565-.426c.01-.486-.097-.908-.319-1.262-.283-.457-.72-.684-1.307-.684-.537 0-.973.223-1.308.668a2.453 2.453 0 0 0-.486 1.277h3.42zM110.057 29.387c0 .689-.253 1.242-.76 1.656-.507.416-1.206.625-2.098.625-.841 0-1.556-.168-2.144-.502l.35-1.217a3.418 3.418 0 0 0 1.81.518c.841 0 1.261-.309 1.261-.928 0-.273-.091-.498-.273-.676s-.507-.352-.973-.525c-1.317-.486-1.976-1.195-1.976-2.127 0-.639.243-1.172.729-1.596.486-.426 1.13-.639 1.931-.639.729 0 1.353.146 1.869.439l-.35 1.172a2.89 2.89 0 0 0-1.505-.426c-.345 0-.613.08-.806.242s-.289.371-.289.623c0 .254.102.461.305.623.172.152.506.32 1.003.502 1.277.488 1.916 1.234 1.916 2.236zM115.619 25.359h-1.809v3.588c0 .91.319 1.367.958 1.367.294 0 .537-.025.729-.076l.046 1.246c-.325.121-.751.184-1.277.184-.648 0-1.155-.199-1.52-.594-.365-.395-.548-1.059-.548-1.99v-3.725h-1.079v-1.23h1.079v-1.354l1.611-.486v1.84h1.809v1.23zM122.81 31.516h-1.475l-.122-.852h-.045c-.507.68-1.227 1.018-2.159 1.018-.699 0-1.262-.223-1.687-.668-.386-.406-.578-.906-.578-1.506 0-.9.378-1.59 1.133-2.066s1.816-.709 3.185-.699v-.137c0-.973-.512-1.459-1.535-1.459-.73 0-1.374.182-1.931.547l-.335-1.078c.689-.426 1.535-.639 2.539-.639 1.936 0 2.903 1.018 2.903 3.055v2.721c0 .739.035 1.327.107 1.763zm-1.704-2.539v-1.141c-1.813-.029-2.721.467-2.721 1.49 0 .385.105.674.317.867.212.191.479.289.802.289a1.65 1.65 0 0 0 1.005-.344 1.39 1.39 0 0 0 .566-.873c.022-.081.031-.177.031-.288z"/></g><g fill="#FFF"><path d="M47.394 16.216h-3.717V9.675h1.048v5.658h2.669v.883zM51.389 16.216l-.077-.543h-.029c-.32.437-.786.65-1.378.65-.845 0-1.446-.592-1.446-1.388 0-1.164 1.009-1.766 2.756-1.766v-.087c0-.621-.33-.932-.98-.932-.465 0-.873.117-1.232.35l-.213-.689c.437-.272.98-.408 1.62-.408 1.232 0 1.854.65 1.854 1.951v1.737c0 .476.02.845.068 1.126h-.943zm-.145-2.348c-1.164 0-1.747.282-1.747.951 0 .495.301.737.719.737.533 0 1.028-.407 1.028-.96v-.728zM56.471 12.286h-1.154v2.29c0 .583.204.874.611.874.185 0 .34-.02.466-.049l.029.796c-.204.078-.476.117-.815.117-.825 0-1.319-.456-1.319-1.65v-2.377H53.6V11.5h.689v-.864l1.028-.311V11.5h1.154v.786zM60.517 16.216l-.077-.543h-.029c-.32.437-.786.65-1.378.65-.845 0-1.446-.592-1.446-1.388 0-1.164 1.009-1.766 2.756-1.766v-.087c0-.621-.33-.932-.979-.932-.467 0-.874.117-1.233.35l-.213-.689c.437-.272.979-.408 1.62-.408 1.232 0 1.854.65 1.854 1.951v1.737c0 .476.02.845.068 1.126h-.943zm-.145-2.348c-1.165 0-1.747.282-1.747.951 0 .495.301.737.719.737.533 0 1.028-.407 1.028-.96v-.728zM65.813 16.216l-.077-.543h-.029c-.32.437-.786.65-1.378.65-.845 0-1.446-.592-1.446-1.388 0-1.164 1.009-1.766 2.756-1.766v-.087c0-.621-.33-.932-.98-.932-.465 0-.873.117-1.232.35l-.213-.689c.437-.272.98-.408 1.62-.408 1.232 0 1.854.65 1.854 1.951v1.737c0 .476.02.845.068 1.126h-.943zm-.146-2.348c-1.164 0-1.747.282-1.747.951 0 .495.301.737.719.737.533 0 1.028-.407 1.028-.96v-.728z"/></g></svg>
