<?xml version="1.0" encoding="UTF-8" standalone="no"?>
<!-- This Source Code Form is subject to the terms of the Mozilla Public
   - License, v. 2.0. If a copy of the MPL was not distributed with this
   - file, You can obtain one at http://mozilla.org/MPL/2.0/. -->
<svg xmlns="http://www.w3.org/2000/svg" width="64px" height="64px" viewBox="0 0 64 64">
  <path fill="#ff6b00" d="m 12.183457,12.241457 c -11.129861,11.12986 -11.129861,29.175226 0,40.305086 11.12986,11.129861 29.175226,11.129861 40.305086,0 11.129861,-11.12986 11.129861,-29.175226 0,-40.305086 -11.12986,-11.129861 -29.175226,-11.129861 -40.305086,0 z m 32.241241,14.52963 -5.531697,5.531696 5.388154,5.388154 c 1.82575,1.82575 1.82575,4.823882 0,6.649632 -1.827164,1.827164 -4.825297,1.827164 -6.651047,0.0014 l -5.388153,-5.388153 -5.527454,5.527453 c -1.781909,1.781909 -4.686704,1.779081 -6.465784,0 -1.779081,-1.77908 -1.781202,-4.684582 0,-6.465784 l 5.527453,-5.527454 -5.388153,-5.388153 c -1.82575,-1.82575 -1.82575,-4.823883 0.0014,-6.651047 1.82575,-1.82575 4.823882,-1.82575 6.649632,0 l 5.388154,5.388154 5.531696,-5.531697 c 1.777667,-1.777666 4.68529,-1.777666 6.46437,0.0014 1.779081,1.77908 1.779081,4.686703 0.0014,6.46437 z"/>
</svg>
