<!-- This Source Code Form is subject to the terms of the Mozilla Public
   - License, v. 2.0. If a copy of the MPL was not distributed with this
   - file, You can obtain one at http://mozilla.org/MPL/2.0/. -->
<svg version="1.1" xmlns="http://www.w3.org/2000/svg" x="0px"
	 y="0px" width="16px" height="16px" viewBox="0 0 16 16" enable-background="new 0 0 16 16" xml:space="preserve">
<path d="M12.001,2.037c0.553,0,1,0.449,1,1v3.001c0,0.553-0.447,1-1,1H3c-0.551,0-1-0.447-1-1V3.037c0-0.551,0.449-1,1-1H12.001
	 M12.001,1.038H3c-1.1,0-2,0.9-2,2v3.001c0,1.1,0.9,2,2,2h9c1.101,0,2-0.9,2-2V3.038C14.001,1.937,13.1,1.038,12.001,1.038
	L12.001,1.038z"/>
<path d="M12,7H6.001c-1.1,0-2,0.75-2,1.667v3.664c0,0.916,0.9,1.668,2,1.668H12c1.101,0,2-0.752,2-1.668V8.668
	C14,7.751,13.099,7,12,7z M11,10.999L9.75,11v1.25c0,0.275-0.224,0.5-0.5,0.5c-0.275,0-0.5-0.225-0.5-0.5V11l-1.249-0.001
	c-0.275,0-0.5-0.224-0.5-0.5s0.225-0.5,0.5-0.5H8.75V8.752c0-0.276,0.225-0.501,0.5-0.501c0.276,0,0.5,0.225,0.5,0.501v1.247H11
	c0.276,0,0.5,0.224,0.5,0.5S11.276,10.999,11,10.999z"/>
</svg>
